<?xml version="1.0" encoding="utf-8"?>
<svg xmlns="http://www.w3.org/2000/svg" preserveAspectRatio="none" version="1.1" viewBox="0 0 32 320">
	<title>A curly bracket gylph.</title>
	<path d="m25.712 46.72c0-36.624-12.56-46.72-21.008-46.72-1.76 0-4.704 0.352-4.704 1.744 0 1.744 13.152 7.68 13.152 38.688 0 20.224-5.296 40.432-5.296 67.28 0 15.344 1.968 33.808 8.24 51.248 0.192 0.688 0.8 2.08 0.8 3.472 0 3.488-8.448 16.384-8.448 46.72 0 22.656 5.488 44.272 5.488 66.24 0 32.064-12.56 42.512-12.56 43.568 0 0.688 0.592 1.04 3.136 1.04 8.832 0 21.984-10.8 21.984-49.152 0-26.832-6.272-49.152-6.272-71.456 0-18.128 4.512-29.984 10.992-36.256 0.592-0.352 0.784-1.04 0.784-1.744 0-0.352 0-0.352-0.192-0.688-0.8-1.056-11.392-5.232-11.392-34.88 0-26.832 5.296-50.88 5.296-79.12z" stroke-width="16"/>
</svg>
