<?xml version="1.0" encoding="utf-8"?>
<svg xmlns="http://www.w3.org/2000/svg" preserveAspectRatio="none" version="1.1" viewBox="0 0 2 20">
	<title>A curly bracket gylph.</title>
	<path d="M1.607 2.92C1.607.631.822 0 .294 0 .184 0 0 .022 0 .109c0 .109.822.48.822 2.418 0 1.264-.331 2.527-.331 4.205 0 .959.123 2.113.515 3.203.012.043.05.13.05.217 0 .218-.528 1.024-.528 2.92 0 1.416.343 2.767.343 4.14 0 2.004-.785 2.657-.785 2.723 0 .043.037.065.196.065.552 0 1.374-.675 1.374-3.072 0-1.677-.392-3.072-.392-4.466 0-1.133.282-1.874.687-2.266.037-.022.049-.065.049-.109 0-.022 0-.022-.012-.043-.05-.066-.712-.327-.712-2.18 0-1.677.331-3.18.331-4.945z"/>
</svg>
