<?xml version="1.0" encoding="utf-8"?>
<svg xmlns="http://www.w3.org/2000/svg" version="1.1" viewBox="0 0 578 900">
	<title>Sketch of a tall tower with three sets of elongated arched windows. Trees are lined up along the left, partially covering the base of the tower, and mountains are in the distance.</title>
	<path d="M19.4 898c-1.3-2-1.4-2.8-.5-3.7 1-1 1.6-.8 2.7.7.8 1 1.4 2.5 1.4 3.2 0 2.5-2 2.4-3.6-.2zm27.2-1.3c-.3-.4.1-.8 1-.8.7 0 1.4.4 1.4.8 0 .5-.4.9-1 .9s-1.1-.4-1.4-.9zm1.6-6.3c-.7-1-1-2.8-.6-4.8 1-4.3 2.6-2.4 2.2 2.5-.3 3.2-.5 3.6-1.6 2.3zm-1.2-15c0-2.5.3-3 1-1.8 1.3 2 1.3 5 0 5-.6 0-1-1.5-1-3.3zm-31.5-1.1c-.4-1-.5-2.1-.1-2.4 1-1 1.8.4 1.3 2.3-.4 1.8-.4 1.8-1.2 0zm77-8c-.4-.9-.2-2.4.4-3.5s.8-3.5.5-5.5c-.4-2.4 0-4.3 1.1-6.1a8 8 0 0 0 1.2-5.9c-1.2-7-1.8-79.4-.8-87.5 1.8-14.6 3.2-20.9 5.2-24.2 3-5 4.5-2.5 2 3.3-1.6 3.7-2.1 7.8-2.6 20.9a1096.8 1096.8 0 0 0-2 52c-.4 22.4-.3 26.9.9 27.3 1 .5 1.3 2.6 1.1 9.3-.3 10.4-.2 10-2 7.6-1.3-1.8-1.4-1.4-1.5 4.7 0 4.6-.5 7-1.5 7.9-1.2 1-1.6.9-2-.3zm-76-3c.4-1 1-1.6 1.3-1.3.3.3 0 1.2-.7 1.8-1 1-1 .9-.5-.5zm30.6-.3c0-1.2.3-1.4.6-.6.3.7.2 1.6-.1 1.9-.3.3-.6-.3-.5-1.3zm-2.4-4.8c-.8-2 .1-9.9 1.3-11 1.6-1.6 2-.2 1 3.3-.5 1.8-.7 4.6-.3 6.2.6 2.9-1 4.1-2 1.5zm112-10.8c-.4-3-.7-8.7-.7-12.9 0-4.6-.5-8-1.2-8.8a40 40 0 0 1-2-12.4 720 720 0 0 0-1.4-17c-.4-4-.1-7.2 1-10.4.9-2.6 1.6-5.8 1.6-7s.7-3.8 1.5-5.4c.9-1.6 1.8-6.6 2.2-11 .5-6.4 1-8.2 2.4-9 1-.6 1.9-1.9 1.9-2.9 0-1.6 1.8-3 4-3 .4 0 .5 10 .2 22.5-.3 16.5-.2 22.5.7 22.5.6 0 1.1-.7 1.1-1.5s.5-1.5 1.1-1.5c.8 0 1 2.5.4 8.7-.9 9.5-.8 12.7.1 18.7.6 3.6.5 3.8-1.5 3.3-1.9-.5-2.1-.1-2.1 3.7 0 2.8-.6 4.8-1.6 5.7-1.4 1.1-1.6 2.8-1.1 10.6.4 7.6.3 9.3-.9 9.3-1 0-1.4-1.3-1.4-4.3 0-2.3-.5-5-1-5.7-.8-1.1-1 .4-.9 5.4.3 8.3-1.5 10-2.5 2.3zm7.4-30.2a174.2 174.2 0 0 0-1.8-41.6c-1.5-1.7-2.3 4.5-2.3 17.8v15.4l-5.3-1 .7 7c.4 4 1.3 7.9 2.1 8.8.8.9 1.5 3.4 1.6 5.5v4l2-4.4c1-2.4 2.4-7.6 3-11.5zm-7.9-20.9c.3-3.8.2-6.5-.3-6.2-.5.3-.9 3.6-.9 7.2 0 8.3.6 7.8 1.2-1zM18.8 841.5c-.2-7.4-.2-7.2.5-20.4.8-14.4 2-19.7 3.8-17.8.7.7.8 1.7.1 2.9-1.4 2.7-2.2 10-2.7 26.3-.5 15.2-1.4 19.8-1.7 9zm68.2-5c0-1.8.4-2.8 1-2.4.5.3 1 1.7 1 3s-.5 2.5-1 2.5-1-1.4-1-3.1zm124-3.4c0-1 .7-1.6 1.7-1.3 2.2.4 2 2.1-.2 2.6-.9.2-1.5-.4-1.5-1.3zm-3.8-5.8c.2-4 .7-5.3 2-5.6 1.3-.2 1.8.4 1.8 2.2 0 4.6-1.3 8.7-2.7 8.7-1 0-1.3-1.3-1.1-5.3zm-127-1.2v-6l.9 4.4c.5 2.6.5 5-.1 6-.7 1-1-.2-.9-4.4zm-33.5 3.8c-.4-.4-.7-2.2-.7-4 0-2-.5-5.4-1.1-7.9-1.1-4.5-.5-10.5 1-8.8a95 95 0 0 1 3.1 19.1c0 2.2-1 3-2.3 1.6zm41.5-1.3c0-1.4.2-2 .5-1.3s.2 1.8 0 2.5c-.3.7-.5.1-.5-1.2zm-27.5-6.7c-1.4-1.4-.7-3.5 1-3.1 1 .1 1.8 1 1.8 1.7 0 1.6-1.8 2.5-2.8 1.4zm155-2c-.4-.4-.7-2-.7-3.5 0-1.8-.5-2.8-1.4-2.8-.8 0-1.8-.5-2.1-1a272 272 0 0 1-1-24.5l-.5-23.4 2.8-1.4c2.1-1 2.8-2 3-5 .2-2.8.8-3.7 2-3.7 1.7 0 1.9 1.6 2.2 17.7a287 287 0 0 1-1 47c0 1.3-2.2 1.7-3.3.6zm.4-19.6c-.4-.4-.8 1.2-.8 3.5l-.2 4.3.9-3.5c.5-2 .5-3.9.1-4.3zm32.2 13a55 55 0 0 1 .4-21.6c1.4-1.4 1.8-11.1.5-11.1-.4 0-1.3.4-1.9 1-.7.7-1.2-2.4-1.7-10.5a62.3 62.3 0 0 1 1.5-23.8c1-1.7-1-9.7-2.3-9.7-1.6 0-2 2.4-.8 6 1 3 1 4.6.3 6.2-.6 1.2-1.4 3.1-1.7 4.2-.6 1.7-.8 1.8-2.2.4-1.1-1.1-1.6-3.9-1.6-10.2-.1-4.7.1-9 .5-9.3.3-.3 1.7-.7 3-.7 1.9-.1 2.3-.8 2.7-4.6.7-5.8 1.5-7 4.6-7 2.8 0 3.2 1.4.6 2.9-1 .5-1.3 1-.7 1.1l3.3.4c1.3.2 2.5-.1 2.8-.5.6-1-3.5-5.4-5.9-6.2-1.2-.5-1.7-1.8-1.7-4.2 0-3.1-.3-3.5-2.5-3.5-2 0-2.5.5-2.5 2.5 0 1.4-.6 2.5-1.3 2.5-3.3 0-4.8-10-2.6-17 .6-2 1.2-4.8 1.5-6.4.8-5.5 2.4-10.4 3.9-11.7 2-1.5 2-3.6 0-4.3-.8-.3-1.5-1.2-1.5-2s-1.1-2.8-2.5-4.4-3-4.3-3.6-5.9c-1.4-3.6-2-23.5-.7-29.3 1-4.7.3-10-1.4-10-.6 0-.8 4.2-.6 11.2.3 10 .1 11.4-1.6 12.8-1.9 1.6-1.9 1.9-.2 10.8 1.2 6.5 1.3 9.7.6 11.1-1.5 2.8-1.2 7.4.5 9.6 1.6 2.1 2 5.4.7 5.4-.5 0-1.7-.9-2.8-2l-1.9-2.1-.8 3.3c-2 8.6-2.6 15.2-1.5 17.2a82 82 0 0 1-.8 28l-2.8 13.2c-1.1 5.3-1.5 6-4 6.3-2 .2-3.2 1.3-4.6 4.2-1.1 2.2-2.5 4-3 4-1.2 0-.5-29 .8-35.5 1.3-6.2 3.5-12.5 4.3-12.5.4 0 1.9-1.7 3.4-3.6 2.1-2.8 3-5.3 3.6-11 .4-4 1-9 1.4-11.2.9-5.6-1-2-3 5.7a86.2 86.2 0 0 1-9.8 23.6c-1.5 1.8-1.6 1.8-2.2.2-.4-1-.2-2.4.4-3.1s1.7-3.2 2.5-5.5c1.2-3.3 1.3-4.8.4-6.7-1-2.1-.8-3 1.1-5.6 1.4-1.8 2-3.4 1.4-4-1.3-1.2-5.8 8.2-8.5 18-2.3 8.2-4.8 11-4.8 5.1 0-4.9 3.1-16.1 5.6-20 3.2-5.2 4.7-11.4 3.4-13.9-.6-1.2-.8-4.7-.4-9.2.6-6.4.5-7.1-1-6.6-1.2.5-1.6.1-1.6-1.5 0-1.1-.2-1.8-.5-1.5-.3.3-1 5.6-1.5 11.9-1.2 14-3 20.4-5.6 20.4-1.7 0-1.9-.7-1.6-5.7l.3-5.6-2.7.5c-2.6.5-2.7.4-1.9-2.9 1-4.4 1.1-24.4 0-33.4a31 31 0 0 1 .9-13.3c2-8.1 2.2-25.6.2-22.9-1 1.4-1.5 1.5-2.4.5-.8-1-.5-2.4 1.2-5.4 1.3-2.3 2.9-6.4 3.6-9.3s1.9-5.8 2.7-6.6c2.3-2.3.5-3.8-2.4-2-1.4 1-2.7 1.4-3 1.1s-.6-3-.4-5.8c.2-4.8 0-5.4-2.4-6.5l-2.7-1.2.1 9.2.2 12.2c0 12.8 1.1 28.4 2 30.2.9 1.7.6 4.4-1.1 12-4.4 19-4.5 25.7-.8 26.7 1.7.4 2 1 1.4 3.3l-2.2 10.3c-1 4.9-2.2 8-3.4 8.8-1.4 1-1.7 1.9-1.1 3.5.5 1.4.4 3-.5 4.2a22 22 0 0 0-2 6.8c-.6 4.7-.6 4.8 2.3 4.8 5 0 8.2-2.2 9.3-6.3.6-2 1.4-3.9 1.8-4.1 1.2-.8.6 38.4-.6 39.6-1.6 1.6-2-.2-3-11.7l-.7-10-1.8 12.5c-1 6.8-2 15.2-2.2 18.6-.3 4-1.4 7.8-3.4 11.6-1.6 3-3.7 8.7-4.7 12.7-1 4.1-2.4 7-3.1 7-2 0-1.6-3.4 1.3-13.8a36 36 0 0 0 1.8-11c-.5-1.2-.9-.8-1.6 1.7-.5 1.8-1.4 3.1-2.1 2.9-1.7-.6-1.3-30.5.6-37.4 1-3.5 1-5.8.4-7a23 23 0 0 1-.5-8.2c.7-8 .3-9.2-2.7-9.2-1.3 0-2.8-.7-3.3-1.6-.6-1.1-1.8-1.5-3.6-1.1-4 .7-5-1.4-5.4-12.4-.3-7.5-.7-9.7-1.6-8.9a41 41 0 0 0-1.3 13.2c-.3 12.8-1 14.8-4.8 14.8-3.2 0-3.5-1.6-2.5-13.2l1-11.4c0-.6-1.6-2-3.5-3.2-3.1-1.9-3.5-2.6-3.6-6.4 0-2.3-.4-5.2-.8-6.3-.8-1.9-.8-1.9-1.5.3a40 40 0 0 0 1 14.5c.5 2.3.2 2.7-1.5 2.7-2 0-2.1.7-2.3 8.3v11.4c.2 1.7-.4 3.6-1.3 4.3-1.6 1.4-2.1 7-.6 7 .5 0 1.2 3 1.6 6.6s1 7.9 1.5 9.5c1.4 4.7-.8 4.5-2.9-.2a72 72 0 0 1-3.7-25.9c-.6-14.6 0-19 3.1-22.4 2.2-2.4 2.5-3.5 2.4-10.4-.1-4.2-1-12-2-17.5-1-5.4-1.9-11.3-1.9-13s-.6-4.1-1.4-5.2c-.7-1-1.7-5.3-2-9.3-.5-4-1.1-7-1.5-6.5a54 54 0 0 0-4.1 14.3c-3.3 20.8-6.6 32.4-11.2 39.4-2 3.2-3.8 7-3.8 8.6s-1 6.2-2 10.6c-1.2 4.4-2.7 12.4-3.3 17.9-.8 6.5-1.7 10-2.5 10.3-1.1.4-1.3-2.1-.8-13.4.3-7.6 1-14 1.5-14.1.5-.2.7-1.1.4-2.1-.2-1 .9-4.5 2.5-7.7 1.6-3.3 3.5-7.8 4.2-10 .7-2.2 1.5-4.4 1.9-5 1.5-2.4 3.7-26.7 4-43.7 0-4.6.4-5.8 1.7-5.8 1.4 0 1.5 1.5 1 12.3a221 221 0 0 1-2 20.2c-.8 4.8-1 8.4-.5 9 .5.5.9.6.9.2l1.4-8 4-20.3c1.4-7.3 3.1-14.4 3.8-15.8 1-2.4.9-3-1.4-5-4.9-4.6-6.5-22.2-2.7-30.1a89.6 89.6 0 0 0 2.7-34.5c-1-5.2-.9-10.2.2-22.1l1.4-19c0-4.3-2.2-9.9-4-9.9-1.7 0-2 .7-2.8 6.2-.7 4.4-.5 4.7 1.6 5 1.7.2 2.4 1 2.6 3.2.2 1.5 0 3.6-.4 4.5-.9 2.1-1.8 6.7-2.3 12.3 0 .3-1.3.6-2.7.6-2.3 0-2.5-.3-1.8-2.6.4-1.5.6-7.6.6-13.7a58 58 0 0 1 1.1-14.5c1-3 1.6-3.5 4.5-3.3 4 .2 4.3-1 2.4-13.2-1.2-7.2-.3-14.6 1.7-15.3.6-.2 1.1-1.5 1.1-2.8 0-3.7 2.4-2.4 3.2 1.7.3 1.9 1 4.4 1.3 5.6.9 2.7-1.4 4.2-3 2-2.3-3.2-2.8-1.6-2 7 .5 4.9 1 12.4 1.1 16.8.1 4.4.5 10.3.9 13s.8 11.3 1 19c.4 14.2 1 18.5 2.4 18.5 1.5 0 2.1-9.2 1.5-21a165 165 0 0 1 .7-24.5c.7-7.1 1.3-14.8 1.2-17-.3-14.4.2-35 1.1-43 .6-4.9.5-7.8-.2-9-1-1.7-1.1-1.3-1.2 2.2a23 23 0 0 1-.6 5.7c-1.2 3.1-2.4 1.6-2.4-3 0-2.7-.4-4.3-1-3.9-.6.4-1 1.6-1 2.8 0 1.2-.7 3.5-1.5 5.1-.8 1.6-2 7-2.5 11.9a47 47 0 0 1-2.5 11.6 24 24 0 0 0-2 6.3c-.3 2-1 4-1.6 4.4-.8.5-1-.3-.5-2.2 1.1-6 1-23.4-.3-23.4-.8 0-2 5.2-2.6 12l-1 11.3c-.6 5.3-.4 8.1.4 9 .8 1.1.8 3.2-.4 8.8-.9 4-1.3 8-1 8.8.7 2-.6 8.5-1.5 7.5-.5-.5-1-1.8-1.2-2.9-.5-2.7-5.4 13.2-7 22.5-1.5 9.4-6.8 22.4-9.3 22.9-1.4.3-1.7-.1-1.1-2.2.3-1.5 1.7-4.3 3.1-6.3 1.4-2 2.5-5 2.5-6.5s.4-3.8.9-5 1.7-5.3 2.6-8.9 2.4-8.5 3.2-11 1.7-6.7 2-9.4c.4-3.4 1.3-5.6 2.7-6.7 2-1.7 2-1.8.2-3.2-1.8-1.3-1.8-1.5-.3-3.7 2.1-3 2.3-11.3.2-13.3-1-1-1.5-4.1-1.7-9.8l-.3-8.4-4.2-1c-4.2-.8-4.3-1-3.8-4.4 1.5-11.6 2.9-30.7 1.7-23-.8 5-1.8 7-3.4 7-.7 0-1-2.7-.5-8 .3-4.5.2-8 0-8-.4 0-1.7.9-3 2.1-1.7 1.6-2.3 1.8-2.3.7 0-.8 1-2.4 2.4-3.6 1.7-1.4 2.6-3.6 3-7.2 1-7 .1-7.4-2-.7-1 3-2 5.4-2.4 5.1a47 47 0 0 1 1.2-11.2c2.5-14.5 3.4-26.3 2-26.3-.7 0-1.2 1.6-1.2 3.5 0 2-.5 3.5-1 3.5-.6 0-.8-4.1-.6-11.2.3-6.2.2-12.5-.1-14l-.5-2.8-2.4 2.6a14.3 14.3 0 0 0-3 6.7c-2.4 16.7-7.8 40.5-9.6 42.2-1.2 1.2-.2-11.4 1.3-15.2.9-2.4 1.9-11.5 2.3-21 .1-3 .8-5.8 1.4-6.5 1.9-1.8 1.5-8.8-.4-8.8-1.3 0-1.5-.7-1-3.7.8-4.8 3.7-34.4 4.3-44.1.6-7.9 2.3-10.2 5-6.7 1.2 1.8 1.3 1.8 1.3-.5a127.8 127.8 0 0 1-2.3-23.8c-.4-12-.3-14.4 1-14.9 1.8-.7 2.7.2 1.8 1.7a96.8 96.8 0 0 0 1 28.5c.8 1.9 1.5 5.6 1.6 8.2 0 4.3.1 4.5 1 2.3a43 43 0 0 0 1-11c-.1-6.8.2-9 1.8-11.3 1.3-2 1.7-4 1.4-6.5a33 33 0 0 1 1.1-9.9 47 47 0 0 0 1.5-7c-.3-2 .2-3.4 1.1-2.8 1.2.8 1.3 10 0 12.4-1 2-1.7 22.8-.7 23.8.4.3.7-1.2.7-3.5s.5-5.3 1-6.8c1.6-4 2-21 .8-27.6-.6-3.2-.8-6.1-.4-6.5 1.7-1.8 3.3 3.3 4 12.2.3 6 1.3 11.3 2.5 14.3a93.3 93.3 0 0 1 4.5 28.9 29 29 0 0 0 1.3 9.5c.6.7 1.4 3.7 1.8 6.7.5 3.8 1.4 6 3.1 7.6 2.4 2.3 3.2 6 1.4 7-1 .7-.6 13.3 1 28.2.6 5 1 11.3 1 14 0 6 1.3 15.2 2.1 13.8.4-.5 1-2.7 1.3-4.7.4-2.3 1.2-3.8 2.1-3.8 1.8 0 1.8-.3 0 6.7a48.3 48.3 0 0 0 0 23.3c.8 4.7 1.6 9.8 1.7 11.3.2 2.7.5 2.8 4.5 2.6 2.3-.2 4.5 0 5 .4 1.8 2 2.3 0 2.1-8.3-.1-5-.6-9-1-9s-.8 1.8-.8 4c0 4.1-2.3 10-4 10-2 0-3.1-3-2.5-7.3.4-2.7.2-6-.5-8.2-1.5-4.6-.6-8.5 2-8.5 1.2 0 2.3.7 2.6 1.5.4.8 1.2 1.5 2 1.5 2.3 0 2.6-2 .6-4.3-3.6-3.8-4.3-7.3-3.6-18.3.6-8.2 1-10.7 2.5-12 1.4-1.2 1.9-3.1 1.9-7 0-2.9.5-5.5 1-5.9.6-.4.8-2 .4-4-.5-2.8-.3-3.5 1-3.5 1.8 0 4.6 5.5 4.6 9 0 1.3.5 1.8 1.5 1.4 1-.4 1.6.3 2 2 1.4 5.3 2.4 2.4 1.9-5-.6-8.4.2-14 1.6-11.3 1 1.9 1.6 27 .6 28.7-.4.6 0 2.3 1 3.8a25 25 0 0 1 2.2 10.8c.3 6.8.8 8.5 2.8 10.7 1.7 1.8 2.6 4.2 3 8.6.4 4 1 6 1.8 5.7.6-.2 2.2 2 3.5 4.8 2 4.5 2.3 6.1 1.7 12.5-.5 6.1-.3 7.3 1 7.3 2.3 0 3.4 4.4 3.4 14 0 6.6-.4 9.1-1.5 10-1.7 1.5-2 5.3-.5 8.1 1.4 2.6 2.6 1.7 3.4-2.6 1-5.2 2.6-4.2 2.6 1.8 0 4.9.2 5.1 1.6 3.2 1.8-2.4 1.4-8-1-14.5-1.7-4.3-1.7-6.3 0-16 .4-1.9 1.1-4 1.7-4.8.6-.7 1.1-3.4 1.1-6 .2-8.2 7.6-15 7.6-6.9 0 1.7.8 4 1.7 5 3.6 3.9 4.7 9 4.8 21 0 8.2.4 12 1.3 13 1.1 1 1.3.5 1-3.2-.2-2.8.1-4.5 1-4.8.7-.3 1.2.5 1.2 2.2a65.5 65.5 0 0 1 2.6 26.2c-.2 14.2 0 17.2 1.4 19.3 1.7 2.5 2.4 7.2 4 23.7.3 4.5 1.3 9 2 9.9s1.4 3.8 1.4 6.4c0 3.3.7 5.5 2 7 1.7 1.8 1.8 2.7.8 10.6-.7 4.7-2 11-2.9 14-1.3 4.2-1.4 5.7-.5 6.7 1 .9 1.2.8 1.2-.6 0-.9.4-1.7 1-1.7 1.5 0 2.2 10 1.6 21.6-.9 14.4-1.4 17.3-3.6 18-2.5.7-3.1 4.3-2.6 15.8.6 14 1.3 13.8 3.1-.7.4-3 1-4.6 1.8-4.4 1.3.5 1.3.8.2 14-.5 5.8-.4 8.7.3 8.7.6 0 1.2 1.2 1.4 2.6s.7 2.5 1.3 2.5c.6 0 1.2-5.8 1.5-14.3.3-7.8.9-14.8 1.3-15.5.4-.6-.2-4-1.4-7.5-2.7-8-2.3-18.4 1-22.8 1.5-2 2.1-4.3 2.1-7.9 0-2.7.7-7.1 1.6-9.7 1-2.8 1.3-5.9 1-7.8-1.6-7.2-1.7-12-.6-16.4 2.3-8.2 4.1-12.2 5.9-12.2a6 6 0 0 0 3.1-1c1.3-.9 1.1-1.3-1-3-2-1.7-2.4-3-2.3-6.3.1-2.3-.3-6-.9-8.4-.7-3-.7-5 0-7.4 1.6-4.3.8-4.8-2.3-1.4-2 2.1-2.9 2.5-4 1.6-.9-.8-1.5-.8-2-.1-.3.6-1 1-1.4 1-1 0-3.1-4.6-3.1-7 0-1.3-.5-1.6-2-1.3-1.5.4-2-.1-2.7-2.3-.4-1.6-.8-16.6-.8-33.4 0-30.3 0-30.5 2.4-34.6 2.9-5.1 5.1-6.4 11.8-6.7 6.5-.2 9.9 2 13.2 8.9 2.4 4.8 2.4 5.6 2.5 28.4a140 140 0 0 1-1 25.5c-.7 1.1-1.5 4.2-1.9 6.9-.8 6 .7 5.5 3-1.1l2.7-7c.6-1.2.7-3.8.3-5.9-.6-3.3-.5-3.6 1-2.4 1.3 1.1 1.5 1 1.7-1.1v-4.6c-.2-1.7.3-2.3 1.8-2.3 1.7 0 2 .7 2.2 4.8v11c-.3 4.5 0 7 1.2 8.7 1 1.5 1.6 4.6 1.6 7.7 0 4.5.2 5 1.2 3.4.8-1.5.8-3.8-.1-9.4-.7-4.1-1.5-8-1.8-8.8-.3-.8.1-1.4 1-1.4 1 0 2.1 1.8 3.1 5.1 2.7 9 3 11.6 1.2 14.1a9.8 9.8 0 0 0-1.6 4.7c0 2.4 0 2.4 1.3.7 1.7-2.2 4-1.2 3.4 1.5-.3 1 .2 2.8 1.1 4 1 1.5 1.7 5.3 2 10.6.3 4.6.9 8.3 1.4 8.3s.9-1.6.8-3.7c-.3-5.8 0-7.3 1-7.3.6 0 1 3.1 1 7.3 0 4 .5 7.8 1 8.4a67 67 0 0 1 .8 21.3c-.6 5.7.5 9 1.2 3.8.3-2.1 1-3.7 1.5-3.5.6.1.9 5.2.6 13.4-.3 12-.1 13.6 1.9 17.8 2.1 4.5 2.2 5.3 1.5 21.9a556 556 0 0 0-.5 28.6c.4 15 .4 17.9-.3 34.2-.5 13-.7 13.8-3.6 18.6a25.5 25.5 0 0 0-3.1 6.1c0 .6-.7 1.2-1.5 1.2-2 0-1.9-2.4.4-6.8 1-2 2.1-5.8 2.5-8.2l.6-4.5-2.3 5.5a53.6 53.6 0 0 0-4.4 16.4c-.5 2.7-.4 2.9 1 1.6 1-.7 2-1.1 2.3-.8.7.7-4 10.5-7.1 14.7a13.2 13.2 0 0 0-2.5 6.3c0 2.4-.4 2.8-2.2 2.6-1.5-.3-2.5-1.5-3.3-4.3l-1.1-4-.7 3c-.6 3.3 0 7.2 1.5 9.1.5.7.2 2.4-1 4.6-1 1.8-3.1 6.8-4.6 11-2.5 7.3-2.7 9-3 30a600 600 0 0 1-1.2 30c-.7 7.7-2.4 11.2-4 8.6zm-62-86c.4-6.5.3-11.6-.2-11.3-.4.3-1.4 4-2 8.3-.7 4.3-1.6 9.3-2.1 11.3-1 4-.3 11.8 1.4 13.9 1.3 1.6 2-3.7 3-22.2zm34.8 10.1c.7-1.4.8-2.4 0-3.1-1.4-1.4-4.1.8-4.1 3.4 0 2.5 2.7 2.4 4-.3zm2.4-17.5c1-12.3-.1-12.2-4 .5-1.8 6.5-2 9.8-.3 10.5 2.3.8 3.6-2.4 4.3-11zm33.8-5.3c.3-1.1 1.2-2 2.1-2 2 0 2 0 2-13 .1-5.8.5-12.6.9-15 .4-3 .4-3.8-.2-2.5-.5 1.1-1.7 6.5-2.6 12-1 6-2.4 10.8-3.6 12.3-1.8 2.3-2.6 8.1-1.2 9.5 1.1 1.2 2 .7 2.6-1.3zm-9.3-11 .6-6.4c.4-2.8.3-4.6-.3-4.6-1.2 0-3.7 10.5-2.8 12 1 1.6 2.5 1 2.5-1zm22.3-5 1.1-6.3c.5-2.3.3-2.7-1.3-2.7s-2 .9-2.6 5.7c-.4 3.2-.9 6.6-1.2 7.6-.4 1.6-.2 1.6 1.5.5 1.2-.7 2.2-2.7 2.5-4.8zm-15.6-4.2c-.3-.8-.6-.6-.6.6 0 1 .2 1.6.5 1.3.3-.4.4-1.2 0-2zm-75.7-7.8c0-.6-.2-1-.4-1s-.8.4-1.1 1-.1 1 .4 1 1.1-.5 1.1-1zm79.2-3.6c.4-1.6.4-3.9-.1-5l-1.5-3.7c-.3-1-1.2-1.8-2-1.8-1.7 0-2.8 6.7-1.5 9.2.6 1 .5 1.8-.3 2-.6.3-.9 1.2-.5 2.1 1 2.6 5 .7 5.9-2.8zm18.7-12.4c.6-.4 1.4-2.4 1.8-4.4.5-3.4.4-3.7-2-3.7-2.2 0-2.5.5-3 5.7-.3 3.1-.3 7 0 8.8.7 3 .7 3 1.3-1.3.4-2.4 1.2-4.7 1.9-5zm-14.5 5.4c-.7-1.5-2.4-2-2.4-.6 0 1 1 2.2 2.1 2.2.5 0 .6-.7.3-1.6zm-38.4-6.2a15 15 0 0 1 2.7-5.6c1-.5 1.3-2.7 1.1-7.2-.1-3.6-.5-6.5-1-6.5-1 0-3.5 8.8-4.3 15a90 90 0 0 1-1.2 8c-1.1 4.5 1.4 1.2 2.7-3.7zm47 3.2c0-.9-.5-1.3-1-1s-.8 1.1-.5 1.6c.9 1.4 1.5 1.1 1.5-.6zm-21-6.9c0-1.2.9-3.4 2-4.8 2.2-2.8 2.6-4.8 1-4.8-1.3 0-3.7 4.9-4.6 9.5-.5 2.8-.4 3.6.5 3.1.6-.4 1.1-1.7 1.1-3zm1.5-16.1c1.7-1.4 1-15.5-1.1-19.7-.8-1.4-1.4-4-1.4-5.7 0-1.7-.5-3-1-3-1.3 0-1.3 11.3 0 12.6.8.7.7 2.4 0 5.4-2.6 10.4-4 17.6-4 20 0 2 .6 1.4 3-3 1.7-3 3.7-6 4.5-6.6zm27.4-3-.1-9-1.5 8.8c-1.6 8.7-1.2 13.8.7 10.7.5-.8 1-5.5.9-10.5zm-67.4 1.2c.7-3.7.7-3.8-1.4-2.7-2.9 1.5-3.5 3.4-2 6 1.4 2.8 2.5 1.7 3.4-3.3zm72.5 2.3c0-.5-.2-1-.4-1s-.8.5-1.1 1c-.3.6-.1 1 .4 1s1.1-.4 1.1-1zm-138.4-12 .5-7.7-.1-22.8c-.3-23.5-1.6-19.6-1.9 5.8l-.1 12.7h-2.6c-2 0-2.4.5-2 1.8.2 1 .8 5.8 1.2 10.7.3 5 .9 9.4 1.1 9.9 1.3 2 3.6-4.2 4-10.5zm129.4 2c0-3.4-.4-5.8-1-5.5a23 23 0 0 0-1.5 11.5c1.4 2.3 2.5-.4 2.5-6zm-66 0c0-.5-.5-1-1-1s-1 .7-1 1.6c0 .9.4 1.3 1 1s1-1 1-1.6zm-33-9.1c1.2-5.8 1.2-14.9.1-14.9-1.7 0-4.8 19-3.4 20.4 1.2 1.2 2.5-1 3.4-5.5zm7 4c0-.5-.5-.7-1-.4s-1 1.1-1 1.7.4.7 1 .3 1-1 1-1.6zm21.3-4.6c.3-2.3.2-4.3-.3-4.3-1 0-2 3.8-2 8 0 4.6 1.5 2.1 2.3-3.7zm7.7-2c0-1.4-.4-2.1-1-1.8-.6.4-1 2.1-1 3.9 0 2.4.3 2.8 1 1.6.5-.8 1-2.5 1-3.8zm-57-6.6a52 52 0 0 1 2.5-9.6c2-6 2.3-7.7 1.3-8.7-1-1-1.7-1-3.2.2-1.5 1-2.1 3.7-3.2 12.6-.7 6.2-1 11.7-.7 12.1.7 1.2 3.3-4 3.3-6.6zm113.8 6.3c-.2-.6-.8-1.1-1.3-1.1s-1.1.5-1.3 1c-.2.7.4 1.1 1.3 1.1s1.5-.4 1.3-1zm5.5-1.7a57 57 0 0 0 0-10.4c-.3-4.3-.1-9 .5-10.6.6-1.8.6-3.5 0-4.4-1.8-3-2.7 1.8-2.7 14.9 0 12.5 1 16.7 2.2 10.5zm7.5-2.1c.2-1.8-.2-4-.9-4.7-.8-1-1-3.6-.5-8.5.5-4.3.3-7-.3-7-1 0-1.8 11.7-1.3 19.3.4 5.5 2.5 6 3 .9zm-75.8-5.4c0-1.2.7-4 1.5-6.3 1.8-5.1 1.8-6.5 0-6.5-2.3 0-2.8-2.3-1.2-6 2-5 3-11 1.7-11-.5 0-1 1-1 2a10 10 0 0 1-1.5 4.4c-1.3 2-2 12-1.6 22.9.1 3.3 2 3.7 2.1.5zm34-.5c0-2.1-.2-2.4-1-1.3-1.3 2-1.3 4 0 4 .5 0 1-1.2 1-2.7zm-102.3-3c-.3-1-.5-.4-.5 1.2 0 1.7.2 2.5.5 1.8.2-.7.2-2 0-3zm103.2-6.6c1-5.8.1-10.4-1.8-9.2-1 .6-1.4 13.2-.5 14.7.9 1.4 1.1 1 2.3-5.5zm6.8-4.4c-.3-1-.5-.2-.5 1.7 0 2 .2 2.8.5 1.8.2-1 .2-2.5 0-3.5zm17 2.6c-.3-.8-.6-.6-.6.6 0 1 .2 1.6.5 1.3.3-.4.4-1.2 0-2zM187 602c0-5.3-2.1-7-4.6-3.8-1.8 2.4-1.7 3 .6 3.5 1.1.3 2 1.3 2 2.2s.4 1.4 1 1 1-1.6 1-3zm-57-.6c0-.5-.5-1-1-1s-.8.5-.5 1 .8 1 1 1 .5-.4.5-1zm45.6-3.6c-.6-1.5-.9-1.5-1.6-.4-1.1 1.8 0 4.5 1.3 3.2.5-.6.7-1.8.3-2.8zm46.4 2.8c0-.4-.6-1.6-1.3-2.6-1.2-1.6-1.4-1.6-2.7 0-1.2 1.4-1.2 1.7 0 2.5 1.9 1.1 4 1.2 4 .1zm9.7-5.4c-.3-.7-.5-.1-.5 1.2s.2 2 .5 1.3.2-1.8 0-2.5zm-97.2-13.7c.3-5.3 1-11.2 1.6-13.3a39 39 0 0 0 .4-15.5c-1-1.1-2.4 1.9-3.5 7.7l-2 10.5c-1 5-1.3 10.5-1 18.3 0 4 .1 4.2 2 3 1.5-1 2-2.8 2.5-10.7zm120.3-14.4c.3-18-.3-24.7-2-24.7-.7 0-.4 48.7.3 51 .7 2 1.6-11.4 1.7-26.3zm-11.3 21.3c1-5.3 2.4-11 4.6-16.7 2-5.7 2.4-9.3 1-9.3-1.1 0-2.1 2.5-2.1 5.2 0 1.2-.8 2.2-2 2.5-2.3.7-3.5 3.3-1.5 3.3 1.9 0 1.9 1.7 0 6.8-1.2 3.5-2 8.8-1.6 11.7.2 1.7 1 0 1.6-3.5zm-69.9-1.5c-.3-.8-1-1.5-1.6-1.5-.6 0-.5 1 .2 2.7 1.2 2.6 2.5 1.6 1.4-1.2zm97.8-12.5-.3-13.4c0-3.7-.4-4.7-1.2-3.8a106 106 0 0 0-.4 29.3c1.4 2.2 2.2-2.6 1.9-12zm-52 1-.7-2.3-1.4 2.7c-1.7 3.3-.8 5.5 1.4 3.4 1-1 1.3-2.3.8-3.8zm3.6 1.5c0-1.3-.2-2.5-.4-2.5s-.6 1.2-.8 2.5-.1 2.5.3 2.5c.5 0 .9-1 .9-2.5zm-33.2-10.4c.3-3.7 0-6-.6-6-1.3 0-2.2 3.5-2.2 9.4 0 7.1 2.2 4.4 2.8-3.4zm17.2 5.3c0-.8-.5-1.2-1-.9s-1 1.3-1 2.2.4 1.2 1 .8 1-1.3 1-2zm-5.4-9.5c1-1 1.4-2.1 1.1-2.5-1.7-1.7-5.2 4-6.2 10.2l-.6 4 2-5c1-2.6 2.8-5.6 3.7-6.7zm-52.7 3.4c1.4-5 1.4-7.5-.3-9.7-1.7-2.4-3.2-1.4-3.9 2.7-.6 3.4 1 10.7 2.4 10.7.4 0 1.3-1.6 1.8-3.7zm49.2-8.5a95 95 0 0 0 1.8-19c.7-16.6.7-16.7 3.4-18.8 2.7-2.1 3.6-5.3 1.7-6.5-.6-.3-1-1.5-1-2.5 0-3-1.7-2.3-2.4 1-.6 3-3 4.1-3.9 1.8-.7-1.8.7-21 1.7-22.5 1-1.6-.4-13.3-1.5-13.3-.5 0-1 1.3-1 2.8 0 4.4-1.9 10.3-3.6 11-1.2.4-1.4 1.5-.9 5.4.4 2.7.3 5.6-.2 6.6s-.6 4.9-.3 8.7c.5 6.4.8 7 3 7.4 3.3.4 3.4 2 .7 10.4-2.8 8.5-4.3 26.2-2.4 28.5 1.6 1.9 3.6 1.5 5-1zm44 1V556l-.3-10.7c0-5.4-.4-9.9-.9-9.9-1.8 0-4 5.1-4.6 10.5-.5 4.5-.3 5.5.9 5.5 1.1 0 1.4 1 1 4-.3 3.5 0 4 1.7 4 1.2 0 2.1-.5 2.2-1.2zm33.9-4.7c0-1.6-.5-3.2-1-3.6-.6-.3-1 .9-1 3 0 2 .4 3.5 1 3.5s1-1.3 1-2.9zm-89.5-10.7c-.3-1.3-1-2.4-1.5-2.4-1.4 0-1.2 7.4.2 10.7 1.3 2.8 1.3 2.8 1.6-1.6a27 27 0 0 0-.3-6.7zm16.2 5.4c-.3-.7-.5-.1-.5 1.2s.2 2 .5 1.3.2-1.8 0-2.5zm20.3-1.8c0-.5-.2-1-.4-1s-.8.5-1.1 1c-.3.6-.1 1 .4 1s1.1-.4 1.1-1zm-18-8.7c0-1.2-.5-2.3-1-2.3s-1 2-1 4.3c.1 3.3.3 3.8 1 2.2.5-1 .9-3 1-4.2zm12.8-.6c.2-2-.1-3.7-.7-3.7-1.6 0-3.3 4-2.6 6.1 1 3.1 3 1.7 3.3-2.4zm34.8-2.2c-1.3-3.3-3.6-.2-3.6 5 0 1.5.3 1.4 2-.9 1.2-1.4 2-3.3 1.6-4zM152 533.8c-.1-4.3-.2-4.4-1-1.8-1 4.5-1 6.5 0 6.5.6 0 1-2.1 1-4.7zm112.3-10c1.2-5.7.7-7.3-1.7-5.3-1.2 1-1.5 3.3-1.4 10.4.1 8.3.2 8.7 1 4.6l2.1-9.7zm4.8 6.2c0-7.1-1.4-8-2.4-1.5-.6 3.6.5 8 2 8 .2 0 .4-3 .4-6.5zm-91.7 3.5c.3-1 .1-2-.4-2s-1 1-1 2c0 1.1.3 2 .5 2s.6-.9.9-2zM193 525c0-1.7-.6-2.4-2-2.4-2.6 0-3.2 1.4-2 4.6.9 2.2 1.3 2.4 2.5 1.4.8-.7 1.5-2.3 1.5-3.6zm60-.7c1-1.9 2-4.2 2-5.2s.9-2.8 2-3.9c1.6-1.8 2.5-6.4 2-11.3 0-2-2-1.4-2 .6 0 1-.7 2.5-1.5 3.1s-1.5 2-1.5 3c0 3-1.1 5-2.6 5-.9 0-1.4-1-1.4-3 0-3.6-1.4-3.2-2.8 1-.8 2.3-.7 3.6.8 6.3 1 2 1.6 4.5 1.3 5.6-.8 3.3 1.3 2.5 3.6-1.2zm-71.2-2.2c1.6-3.3 1.5-5.7 0-5.2-1.3.4-3 7.7-1.8 7.7.4 0 1.2-1.1 1.8-2.5zM163 520c0-.2-.5-.7-1-1s-1-.2-1 .4.4 1 1 1 1-.2 1-.4zm-6.3-4.8c2.3-4.3 3.1-10.8 1.4-10.8-1.4 0-2.3 1.8-3.1 6-.4 2-1 4.8-1.5 6.3-1.1 4.1.7 3.3 3.2-1.5zm32.7 2.7a5 5 0 0 0 0-3c-.6-1.3-.8-1.4-1.5-.3-1.1 1.8-1.1 4.8 0 4.8.5 0 1.1-.6 1.5-1.5zm26.1-7.4c-1-8-2.3-7.8-2 .2.3 8.3.3 8.3 1.6 7 .7-.7.9-3.1.4-7.2zm47.2 1.7c-.3-.7-.6-.5-.6.7 0 1 .2 1.6.5 1.3s.4-1.2 0-2zm-99.7-1.1c0-1.3.3-4.6.6-7.3.5-3.4.3-4.6-.4-3.9-1.2 1.2-2 13.5-1 13.5.5 0 .8-1 .8-2.3zm82 1.2c0-.7.7-2 1.6-3 2-2.2 1-11.9-1.2-11.9-.8 0-1.4 1-1.4 2.5 0 3.1-1.7 3.3-2.3.3-.3-1.3-.4.4-.2 3.7l.4 7.8c.1 1.9 3 2.5 3 .6zm-59.4-9.6c-1.3-1.3-1.7.7-1 4.4l.9 3.8.3-3.8c.2-2.1 0-4.1-.2-4.4zm-42.3-9.9c.8-4.6 1-8.7.5-9-1.4-.8-2.5 3.7-3.1 13.1-.8 10.8.6 8.7 2.6-4zm110.1 7.9c-1-7.4-2.4-7.3-2.9.1-.2 4 0 4.6 1.7 4.6s1.8-.4 1.2-4.7zm-76.2-1.7c.2-1.9 0-3.2-.4-3-.8.5-1.2 6.4-.4 6.4.2 0 .6-1.5.8-3.4zm24.8-2c0-.9-.5-1.3-1-1s-1 1-1 1.6c0 .5.4 1 1 1s1-.8 1-1.6zm36-2c0-1-.5-1.3-1-1s-1 1.3-1 2.2.4 1.2 1 .8 1-1.3 1-2zm-54 0c0-.9-.5-1.3-1-1s-.8 1-.5 1.6c.9 1.4 1.5 1.1 1.5-.6zm-68.3-5.7c-.3-.7-.5-.1-.5 1.2s.2 2 .5 1.3.2-1.8 0-2.5zm63.7.7c.3-1 .6-3.5.6-5.7 0-5.6-2-3.6-2.7 2.6-.6 4.5.8 6.4 2 3zm31.6-8.7c0-6-1-8.1-3.2-7.2-1.8.7-2.8 3.5-2.8 8.3 0 2.5.3 3.2 1.5 2.8.8-.3 1.7-.1 2 .4 1.5 2.3 2.5.5 2.5-4.3zm43.7 3c-.3-.8-.6-.5-.6.7 0 1 .2 1.6.5 1.3.3-.4.4-1.2 0-2zm-67.5-2c-1-.9-1.2-.6-1.2 1.2 0 1.9.3 2.2 1.2 1.2s1-1.4 0-2.4zm1.8-7.3c.7-1.3 2-2.5 2.7-2.5s1.3-.6 1.3-1.3c0-2.1-1.2-2.7-2.8-1.4-1.2 1-1.6 1-2 0-1-3-2.2-1-2 3.2.1 5.1.9 5.6 2.8 2zm-5-5.5c0-1-.5-2-1-2s-1 1-1 2c0 1.1.4 2 1 2s1-.9 1-2zm-32-6.4c0-3.3-1.9-7.4-2-4.6-1 12.2-1 11.6.5 9.6.8-1 1.5-3.3 1.5-5zm23.6-4.3c-1-1-1.9.5-1 1.9.6 1 .8 1 1.2 0 .2-.7.1-1.6-.2-1.9zm61.9 1.7c.3-.5.1-1-.4-1s-1.1.5-1.1 1 .2 1 .4 1 .8-.4 1-1zm10.5-6c0-1.1-.7-2-1.6-2-1 0-1.4.6-1 1.6.3.9.6 2 .6 2.6s.4.7 1 .3 1-1.5 1-2.5zM119.9 447a67 67 0 0 0 1.1-10c0-2.4 1-6 2.1-8.4 1.3-2.5 2-5 1.6-6.7-.3-1.5-.1-8.5.4-15.5.9-12.3.3-17.8-2-17.8-2 0-2.4 4.8-2.5 23 0 12.9-.4 18.5-1.3 18.7-.7.3-1.3-2.4-1.7-8.4-.8-13.2-2-21-2.9-19.6a63 63 0 0 0-.8 22.8c.7.8 1 2 .6 2.5-1 1.8-.8 10.2.4 11.3.6.6 1.1 4.1 1.1 7.8 0 10.3 2 10.5 3.9.5zm51.1 5.2c0-1.6-.3-1.9-1.1-1-.6.6-.8 1.5-.5 2.1 1 1.7 1.6 1.3 1.6-1zm30.9-5.8c-1.6-1-2.4-.5-1.4 1 .3.6 1.1.8 1.7.4.6-.4.5-1-.3-1.4zm-57.1-15c0-9.1-1.4-12.6-1.5-3.9 0 4.2-.3 9.6-.7 12l-.6 4.4 1.4-3.5c.8-1.9 1.4-6 1.4-9zm24.2 7c0-.5-.5-1-1-1s-1 .7-1 1.6c0 .8.4 1.3 1 1s1-1.1 1-1.6zm70-13.4c-2.4-1-3.5-.3-2.7 2 .6 1.2 1 1.3 2.7.2l2-1.3zm-105.2-5c1.8-7.6 2.6-15.6 1.6-15.6-1.5 0-3.4 5.2-4.5 12.3-1.7 10.8.6 13.3 2.9 3.2zm44.2-4c0-2-.5-3.6-1-3.6-1.1 0-1.4 5.3-.3 6.4 1.1 1.1 1.3.7 1.3-2.9zm-67-13.4c1.5-5.5 1.3-10.2-.5-10.2-1.6 0-2.1 1.9-2.8 9.2-.7 7.1 1.4 7.8 3.3 1zm65 4-1-2.7c-.8-1.7-.9-1.7-1 .8 0 1.5.4 2.7 1 2.7s1-.3 1-.7zm-57.7-27c-.4-7-.2-9 1-10.7 1.5-1.8 1.6-1.4 1.7 6 0 5.6.3 7.6 1 6.5 1.4-2.1 1.3-18.7-.1-19.2-.8-.2-1.1-3.8-1-10.8.2-10 .1-10.4-1.5-8.2a7 7 0 0 0-1 5.5c.6 3.5-.9 7.5-1.8 4.7-.2-.8-1-6-1.6-11.5-1.2-10.3-1.9-12.6-3.7-13.2-1.3-.4-2.4 9.2-2.5 20.8 0 5.7.5 8.6 2.1 12 1.9 3.8 2 5.5 1.6 12.4a63 63 0 0 1-1.2 10c-.4 1.7-.3 1.8.8.8 2-1.9 3.2-1.5 2.6.7-.4 1.7.3 2.4 3.5 3 .4 0 .4-4 .1-8.7zm-8.3-1c0-2-.2-2.3-1-1.2-1.3 2-1.3 5.3 0 4.5.5-.3 1-1.8 1-3.3zm39.1-4.2c-.7-3.3-.8-3.4-1.4-1a12 12 0 0 0 0 5c1 3.7 2.3.1 1.4-4zm5.9 2c0-1-.5-2-1-2s-1 1-1 2c0 1.1.4 2 1 2s1-.9 1-2zm9.3-5c-.3-1-1-2-1.4-2s-.9 1-.9 2c0 1.1.6 2 1.4 2 1 0 1.2-.7.9-2zm-14.6-7.2c-.3-.8-.6-.5-.6.6s.2 1.7.5 1.4c.3-.4.4-1.2 0-2zm10.1-7.8c-1.6-4.7-3-3.6-2.2 1.8.3 2.6.9 5.2 1.2 5.7 1.1 2 2-4.7 1-7.5zM96 336.6v-8.3l-2.3 1.5c-2.4 1.6-3.5 6.3-1.8 8 .6.6 1.1 2.8 1.1 4.8s.3 3.9.7 4.3c1.4 1.4 2.3-2.2 2.3-10.2zm10 3c.7-1.4.7-3.6.1-6.8l-.9-4.8v5.2c-.2 2.9-.7 5.5-1.2 5.8s-1 1-1 1.6c0 1.6 1.9 1 3-1zm18.6-14.8c-1.1-1.1-1.3.2-.7 4.7l.6 4.5.3-4.3a16 16 0 0 0-.2-5zm-23-1.5-1.1-7.5c-.8-4.8-2.5-5.8-2.5-1.4 0 6.5 1.3 12.1 2.7 12.1 1.2 0 1.4-.8 1-3.2zm15.4-5.4c0-4.5-.7-5.3-2.8-3.2-1.3 1.3-1.7 8-.5 9.1 1.4 1.5 3.3-1.8 3.3-5.9zm4.1-9.2c-.8-2.3-1-1.7-1 3.3 0 5.5.2 5.7 1 2.7.7-2.2.7-4.3 0-6zm-16.1 3c0-4.8 2.8-14.3 4.6-15.6 1-.8 1.2-2.2.8-4.8-.4-2.1-1-3.8-1.3-3.8-1.3 0-5.5 10.4-5.6 13.9 0 2-.4 4.1-.7 4.7-.9 1.4.2 9.4 1.3 9.4.5 0 .9-1.7.9-3.8zm5-2.3c.4-3 1.2-6.7 1.6-8.3.5-2.1.3-2.7-.6-2.4-2.5.8-5.2 14.2-3.3 16.2 1 1 1.3.3 2.2-5.5zm9.7-17c.2-3.1 0-4.8-.7-4.4-1.2.7-1.4 9.5-.3 9.5.5 0 1-2.3 1-5zm-3.9-17.8c.2-1.3-.1-2.8-.7-3.4-.8-.8-1.1-.5-1.1 1 0 1.2-.3 3-.7 3.9-.4 1.2-.2 1.6.8 1.2.8-.2 1.5-1.5 1.7-2.7zm-37 528.7a347 347 0 0 1 1.1-46.2c.6-2 1 6.9 1 25.7 0 16.3-.3 28.8-.8 28.8s-1-3.7-1.3-8.3zm8-8c-.4-26.5 0-42.3 1.1-45.1.6-1.6 1.3-2.7 1.4-2.5a810 810 0 0 1-1.4 60.9c-.5 0-1-6-1.1-13.3zm-35 10.6L52 794a50 50 0 0 0-.8-12.5c-.8-1.2-1-.5-1 2.7-.1 2.3-.5 4.3-1 4.3s-1-11.1-1-25.3a2693 2693 0 0 0-.4-27.7c-.3-7.2.3-11 1.8-11 1.2 0 1.5 1.7 1.5 9.8 0 5.3.4 10.2 1 10.7a444 444 0 0 1 1.1 60.9c-.6.4-1.2.3-1.2-.1zm123.8-2.3c-.6-.9.2-3.6 2.9-9.5 2.7-6.2 3.6-10.2 2.6-12.7-1-2.8 2.7-19 4.5-19.6 2-.6 2.4 2.6.9 6.2-2.2 5.1-2 6.9.5 5.4 2.8-1.8 3.5-.3 1.2 2.6-1.1 1.4-2.5 4.8-3.2 7.6s-1.6 5.2-2.1 5.5c-.5.3-.9 1.6-.9 2.8 0 2.5-4.1 12.6-5.2 12.6-.4 0-1-.3-1.2-.9zm64.9-10.2c-.3-.8-.4-7.3-.3-14.4.3-10.7.6-13 1.8-13 1.3 0 1.5 2 1.2 13.6-.3 12.4-1.3 17.5-2.7 13.8zm-214.5-5-.6-17.6c-.4-15-.3-17.2 1-17.2 1 0 1.6.3 1.6.7 0 .4.2 8.2.2 17.2.1 11.9-.1 16.5-1 16.8-.7.3-1.2.3-1.2 0zm220-2.8c0-1.1.5-2 1-2s1 .9 1 2c0 1-.4 2-1 2s-1-1-1-2zm-97.7-.6c-.3-1 .2-3 1-4.5 1.8-2.9 1.8-5.3.1-24.7-.8-9.1.4-22.2 2-22.2s1.5 46.3-.2 50.2c-1.3 3.2-2 3.4-2.9 1.2zM57 778.4c0-1.8.9-5.2 2-7.5 1-2.2 2.1-5.6 2.5-7.4.4-1.9 1.1-4 1.6-5l2.3-5.2c.8-2 2.2-3.7 3-3.7 2.1 0 2 1.6-.4 5.4-1 1.8-2.7 6-3.6 9.6-.9 3.5-2 7-2.5 7.9-.5.9-1.2 3.1-1.7 5-1 4.6-3.2 5.2-3.2.9zm84.4-3.6a30 30 0 0 1-4.3-7.2c-.6-2-2-4.2-3-5-1.6-1.2-2.4-4.2-3.7-13.9-1.6-11.8-1.6-12.4.2-15.7 1.5-2.9 1.7-3.8.6-5.2-.7-1-1.9-3.2-2.7-5-1.9-4-3.1-4.7-3.8-2.1-.3 1.2-1 1.8-1.7 1.4-1-.7-.9-3 1-12.5a141 141 0 0 0 1.4-8.8 52 52 0 0 1 5-16.7c.8-1.1 1.8-1.5 2.6-1 1 .5 1.1 4.4.7 17.1-.4 9-1 17-1.3 17.6-1 1.7-2.2-1.9-2.3-7 0-2.4-.6-4.2-1.2-4.2-.8 0-1 2-.4 7.2.6 6.3 1 7.7 3.7 10.2 2.6 2.6 2.9 3.4 2.3 6.5-.8 3.9-1 13.8-.5 21.5l.3 4.9 1.8-2.4c1-1.3 2-2.1 2.4-1.8.4.4 1.5 3.8 2.5 7.5 1 3.8 2.5 8.9 3.4 11.4 2.2 6 2.3 6.2 1 6.6-.5.2-2.4-1.3-4-3.4zm26.6-10.5c0-5.5.9-8.5 2.6-9.1 1-.4 1.3 0 1 1.6-.3 1.3-.8 4.4-1.1 7-.8 6-2.5 6.3-2.5.5zm21.4 1 1.1-5c.2-.9 1-2.7 1.6-4 2-3.7 2.2-.3.3 6.2-2 6.3-4.2 8.5-3 2.8zM85 744.5c0-4.4 4.4-15.8 5.7-14.6.6.7-3.6 16.6-4.9 18.1-.4.5-.8-1-.8-3.5zm54-4.5c-1.4-1.7-2-7.9-.8-9 1.3-1.3 2.6.6 3.3 4.7.8 4.6-.5 6.8-2.5 4.3zm-26.8-2.6c.3-3.5 2.8-5.3 2.8-2 0 2.7-1 5.2-2.2 5.2-.5 0-.8-1.5-.6-3.2zm52.8-.2c0-1.8 2.7-5.3 3.5-4.4 1.2 1.1-.4 5.8-2 5.8-.8 0-1.5-.6-1.5-1.4zm-111-.5c0-1.9 8.1-13.2 9-12.6 1.7 1-6 13.5-8.2 13.5a.8.8 0 0 1-.8-.9zm91.5-8.9a74.8 74.8 0 0 1-1.7-21.2c.5-2.1 1.4-3.5 2.2-3.5 1.2 0 1.6 2.5 2 13.2.4 9.6.2 13.3-.6 13.3-.7 0-1.5-.8-1.9-1.8zm-27.7-1.2c-2-5.2-1.4-14 1-14.8.8-.3 1.2.8 1.1 3.4 0 5.8-1.5 13-2.1 11.4zm39.7-3.6c-2.2-2.1-2.6-3.1-2-5.7.6-3.3 2.5-5.2 3.8-3.9.4.5.3 2-.2 3.5-1 2.8-.2 4 2.2 3 2-.6 2.8.7 2 3.5-.7 2.8-2.4 2.7-5.8-.4zm-90.8-1.1c-.6-1 .8-5 2.2-5.8 1.9-1.1 1.2-2.8-.9-2.3-1 .3-2.3.1-2.6-.4-1-1.5 1.7-4 3.7-3.3 3 1 5.1-4.6 5.2-13.2 0-5.6.4-7.3 1.5-7.3 1 0 1.3.8.8 3.7-.6 3.6-.6 3.7 1 1.8a6 6 0 0 0 1-4.8c-.6-3 1-4.6 2.6-3 1.2 1.2-.2 8-2.8 14a91.9 91.9 0 0 1-9.9 20.2c-.7.6-1.5.9-1.8.4zm8.8-1.6c2.6-8.5 3.8-11.7 4.6-11.7 1.3 0 1.1 2.4-.7 8.6-1 3.4-2 5.4-3 5.4-1.1 0-1.3-.7-.9-2.3zm92-2.2c-1.2-4.6 0-15.4 1.8-17.2.9-1 1.9-1.5 2.1-1.2 1 1-1 20.2-2.1 20.6-.7.2-1.5-.8-1.9-2.2zm-76.5-1c0-1.4.5-2.5 1-2.5s1 .6 1 1.5v2.2c0 .4-.3.9-1 1-.5.3-1-.7-1-2.2zm18-1.4c0-1 .7-2.5 1.6-3.2a32 32 0 0 0 4.5-7c2.7-5.5 4.5-7.7 5.5-6.7.4.4-5.2 11.6-8 16-2.1 3.2-3.6 3.6-3.6.9zm-13.5-7.4c.4-2.9 1-6.8 1.5-8.7.5-2 1.2-6.7 1.6-10.5.6-6.6 1.8-9 3.6-8 1.7 1.1 0 13-4.2 28.4-1.6 6-3.3 5.2-2.5-1.2zm25.5-18c0-.7 1.6-4.5 3.5-8.3 3.6-7.2 4.3-10 2.4-10.6-.8-.3-.7-2.8.1-8.7.8-5.2 1.7-8.1 2.4-7.8 1.2.4 1.3 5.1.1 10.8-.7 3.5-.6 3.7 1.6 3.1 1.9-.5 2.1-.3 1.5 1.3a50.6 50.6 0 0 1-4.4 11.1 47 47 0 0 0-2.9 6.8c-.8 3-4.3 4.9-4.3 2.3zm-6.4-1.6c-1-1.5 0-5.8 3-14.6 2.7-8 5.4-11.7 4.6-6.3-.2 1.8-.8 3.7-1.2 4.3-.5.5-1.6 4-2.4 7.8-1.9 8-3 10.4-4 8.8zm-7-40.8a52 52 0 0 1 2-10c1-4 1-8-.3-11.4-.4-.8-.7-6.1-.7-11.8 0-8.7-.4-10.4-1.8-11.3-2-1-2.3-3.5-.8-7.5.8-2 1.4-2.4 2.2-1.5 1.7 1.6 2.8 1.4 2.8-.4 0-2.7 4.3-1.3 5.8 1.8 1.1 2.3 1.1 4.6.2 12-.6 5.1-1.6 13.3-2 18.2a99.3 99.3 0 0 1-4.2 22c-2 7.4-4.2 7.4-3.2 0zm5.4-27.4c0-.5-.2-1-.4-1s-.8.5-1.1 1c-.3.6-.1 1 .4 1s1.1-.4 1.1-1zm-1-11c0-.5-.5-1-1-1s-.8.5-.5 1 .8 1 1 1 .5-.4.5-1zm-20 40.1 1.5-8.2c1.3-5.9 1.3-7.8.4-9.6-1-1.9-1-2.9.4-5.5l1.6-3.3v2.8c0 1.5.6 3.6 1.3 4.6 1 1.8 0 8.2-2.8 18.4-.5 1.8-2.4 2.5-2.4.8zm-9.7-8.6c-.1-4.7.2-8.5.8-8.5.5 0 .9-1 .9-2 0-1.8-.2-2-1.5-1s-1.5 1-1.5-.8c0-4.7 5.3-1.4 6.5 4 .8 3.7-.3 13.9-1.7 15.6-2.4 3-3.3 1.1-3.5-7.3zm220.7-2.5c-1.2-2.2-1.5-33.3-1.2-122.5V410c0-30.8-.1-65.9-.4-78-.3-12-.6-75.6-.7-141.2-.2-83.6-.5-119.6-1.3-120.3-.8-.8-1.4-.6-2.4.5-1.2 1.4-1.5 1.4-3.1-.1-1.8-1.6-2-1.6-3.8 0-2.2 2-8.3 1.5-13.4-1-2.6-1.4-2.9-1.4-3.4.4-.4 1.8-1.9 2-20.6 2.7-33.4 1.3-40.6 1-38.6-1 .2-.2 11.2-.6 24.4-1 26.3-.7 31.4-1 32.4-2 .3-.4-12.7-.4-28.9 0s-40.7 1-54.5 1c-13.7 0-25.8.4-26.8.9-2.6 1.2-4.8-1.2-4.5-4.8.2-1.7.8-2.9 1.3-2.6.5.3.9 1 .7 1.7a2 2 0 0 0 .8 1.8c.5.3 1 0 1-.6 0-.9 1.6-1 6.3-.4 7.7 1 19.4 1 45.2-.5 14.6-.9 28.7-.9 52.3-.1 20.1.6 33.2.7 34.8 0 2.9-1 2.7.3 2.5-32-.1-22.8.4-28.4 3-28.4 2 0 2.4 3.6.5 4.7-2.3 1.3-2 5.5 1 11.7 1.8 3.9 2.5 7.4 2.7 12.5.1 4 .8 7.7 1.5 8.4A6 6 0 0 1 311 46c0 1.3.7 4.3 1.5 6.6 1.8 5.2 2 10 .3 10.1l-2.3.4-2.2.4c-.7 0-1.3.7-1.3 1.5s-.9 1.6-2 1.9c-2.3.6-2.7 3.7-.6 3.7 2.7 0 4.5-1.2 4-2.6-.8-2 1-1.8 2.8.3 1.8 2 2.3 9.9.8 10.8-.8.5-.7 1 0 2 .8.9 1 9 1 24.7l-.2 24.8-.3 12.5c-.3 9.3-.6 47.7-.5 65.3 0 3.5.4 5.2 1.3 5.2.7 0 1.7 1 2.2 2.3 1 2 1.6 2.2 10.5 2.2 6 0 10-.4 10.8-1.2 1.4-1.3 4.5-.6 3.6.8-.3.5-1.4 1-2.4 1s-2.2.4-2.5 1c-.3.5-1.5 1-2.6 1-1 0-1.9.2-1.9.7 0 1.5-5.7 3.2-9 2.6-2.7-.6-3.6-.3-5 1.6-2 2.8-4.5 2.2-6.1-1.4-1-2-.8-2.8.5-4.1 1.6-1.7 2.2-5.5.8-5.5-.4 0-1.5 1.9-2.5 4.2l-1.9 4.2 2.7 4.9c1.4 2.7 2.6 6 2.6 7.5 0 2.6-.8 10.7-1.1 10.7-.3 0-1.4 54.7-1.2 62.5 0 4.7.4 16 .7 25 .8 27 .8 31.1-.4 40.4-.8 6.3-.9 10.4-.1 14 .5 2.8 1.3 18.4 1.6 34.6a904 904 0 0 0 2.2 55c.8 11.6.6 15.4-.5 12.3-.6-1.7-2.3-1.6-2.3.2 0 .8.7 1.8 1.6 2.4 1.4.7 1.7 2.5 1.5 10.2a92 92 0 0 1-1.5 15c-.7 3-1 8-.8 11.2.3 3.9 0 7-1.2 9.7-.9 2.3-1.6 5.6-1.6 7.5s-.4 3.7-.9 4c-1 .5-1.5 7.8-2.7 33-1 21.5-1.1 23-1.9 24.8-.4 1-.3 1.7.5 1.7.9 0 1 3.9.5 15.3-.3 8.4-.8 15.4-1 15.6-.2.2-.9-.7-1.5-2zm4.7-97.1c-.3-.8-.6-.6-.6.6 0 1 .2 1.6.5 1.3s.4-1.2 0-2zm1.3-31.9c0-.5-.5-1-1-1s-.8.5-.5 1c.3.6.8 1 1 1s.5-.4.5-1zm4-9.4c0-.2-.4-.7-1-1s-1-.2-1 .4.5 1 1 1 1-.2 1-.4zm-1.3-6.7c-1-.6-1.6-1.7-1.3-2.7.3-1-.1-2.8-.9-4.2-1.3-2.3-1.4-2.2-.9 2 .5 4.3 1.7 6 4 6 .5 0 .1-.5-.9-1zm.3-39.4c0-.8-.7-1.5-1.5-1.5-1.6 0-2 1.2-.8 2.4 1.1 1.1 2.3.7 2.3-.9zm-1-11.5c0-.5-.4-1-1-1s-1 .5-1 1a1 1 0 0 0 2 0zm-2-20c0-1-.4-2.1-1-2.5-.6-.3-1 .7-1 2.5 0 1.9.4 2.9 1 2.5.6-.3 1-1.4 1-2.5zm5-200c0-.5-.4-1-1-1s-1 .5-1 1 .5 1 1 1 1-.4 1-1zm-3-62c0-.6-.4-1-1-1s-1 .7-1 1.6c0 .8.5 1.2 1 .9s1-1 1-1.6zm-1-9.5c0-.8-.6-1.5-1.4-1.5-2 0-3 1.7-1.3 2.3 2.1 1 2.7.7 2.7-.8zm-2-89.5c0-.6-.7-1-1.5-1s-1.5.4-1.5 1 .7 1 1.5 1 1.5-.5 1.5-1zM92.8 616c-.5-4.5.7-5.5 1.6-1.3.8 4.1.8 4.8-.3 4.8-.5 0-1-1.6-1.3-3.5zm2.2-8.6c0-1 .7-3 1.5-4.5 1.5-2.9 1.5-2.9 1.5-.4a9 9 0 0 1-1.5 4.5c-1.2 1.6-1.5 1.6-1.5.4zm22.1-24.1a72 72 0 0 1-4.7-17.4 9 9 0 0 0-2.1-4c-1.4-1.3-1.8-3.3-1.7-9 .1-6.3.5-7.8 2.9-11 2-2.5 2.8-4.9 2.9-7.7 0-3.6.4-4.2 2.4-4.5 2.2-.3 2.3 0 2 3.5-.2 3.3 0 3.9 1.8 4.1 2 .3 2.2 1.1 2.6 7.1.7 13.4-1.2 21.8-2.6 11.4a43.6 43.6 0 0 0-4.6-15.3c-.3 0-1.6 2-2.8 4.4a18.6 18.6 0 0 0 0 17.5c1.2 1.9 2.5 6 3 9 .4 3 1.4 6 2.2 6.7 2 1.5 3 5.9 1.8 8-.8 1.5-1.3 1.1-3.1-2.8zm-33 2c0-.7 1-3.5 2.4-6.2A26 26 0 0 0 89 573c0-.8.5-1.4 1.1-1.4 1.2 0 1 .8-1.3 9.5-.8 3.3-1.9 5.1-3 5.4-1 .1-1.8-.3-1.8-1zm15-1.3c0-1 .7-3 1.5-4.5l1.5-2.5-.6 3.5c-.6 4-2.5 6.6-2.5 3.5zm-3.1-7.5c0-1 .4-2.8 1-3.7.5-1 1.6-4.1 2.5-7 1-2.9 2-5.3 2.6-5.3 1.3 0 1.2.4-1.8 9.7-2.7 8.1-4.3 10.5-4.3 6.3zm6-1.9c0-1.1.5-2 1-2s1 .6 1 1.4c0 .8-.4 1.7-1 2s-1-.3-1-1.4zm-11.3-12.3c.6-5.5 5.5-16.3 8-17.2 2-.8 1.6 2.2-1 5.8-3.3 4.4-5 9.2-4.3 11.9.4 1.6 0 2.7-1.4 3.5-1.8 1.1-1.9 1-1.3-4zm305.9-18.6c-.4-.7-.5-1.6-.2-1.9.9-.9 1.9.4 1.4 1.9-.3 1-.6 1-1.2 0zm3.8-10.6c-.7-1.8.4-3.8 1.7-3 1.2.8 1.2 4.4-.1 4.4-.6 0-1.3-.6-1.6-1.4zm-.4-12.7c0-1.3-.3-4-.6-6.1-.5-3-.3-3.8.9-3.8 1.7 0 2.5 2.8 2.3 8-.1 3.8-2.6 5.6-2.6 1.9zm-311.3-.7c-1.9-2-2.2-4.2-.7-4.2.5 0 1.2.6 1.6 1.2.4.6 1.5-1.4 2.5-4.7 1-3.1 2.3-6.2 2.8-6.8 1.5-1.4 1.4-.1-.3 6a89 89 0 0 0-2 7.6c-.7 3.2-1.7 3.4-4 1zm12.6-3.2 2-8c.9-3 1.9-6.8 2.2-8.3.3-1.6.9-2.7 1.1-2.4 1 1-2.7 17.1-4.3 19.2-1.5 2-1.5 2-1-.5zM87.1 511c0-1.2.3-1.4.6-.7.3.8.2 1.6 0 2-.4.3-.7-.3-.6-1.3zm204.5-.3c-.7-1.2.5-5.2 1.5-5.2 1.2 0 1.2 4.8 0 5.5-.5.3-1.2.2-1.5-.3zm91-12.2c-2.5-3.8-12.4-10-16-10-1 0-1.6-.9-1.6-2.5 0-2.1-.3-2.4-2.3-2-1.8.5-3 0-5.3-2.4-1.6-1.7-3.4-3-4-3s-2.3-1.4-3.9-3c-1.6-1.7-3.3-3-3.8-3s-2.5-1.4-4.3-3c-2-1.7-3.9-3-4.4-3-1.5 0-5-3.4-5-4.8 0-2.6 3.7-1.1 8 3.3 3.6 3.6 9 7.4 10.7 7.4 1.2 0 0-3.1-1.4-3.6-2.5-1-9.3-7.5-9.3-9 0-2.4 1.6-1.5 6.8 3.9a190.9 190.9 0 0 0 19.6 18.7c1.1 0 9.4 5.9 13.6 9.6 3.4 3 8.8 4.5 18 5 4.5 0 3.6 3-1.4 4.3-8.4 2.1-11 1.6-14-2.9zm9.6 1c1 0 1.7-.4 1.3-1-1-1.7-6.5-1.2-6.5.6 0 1.1.6 1.4 1.6 1a12 12 0 0 1 3.6-.6zM96 501.1c0-1.2 3.2-6.8 3.6-6.4.7.8-1.2 6.2-2.4 6.6-.6.2-1.2.1-1.2-.2zm11.2-6.6c0-1.3.2-1.9.5-1.2s.3 1.8 0 2.5-.5.1-.5-1.3zm-11-8c0-1.3.3-3.4.8-4.5l.9-2v2a19 19 0 0 1-.9 4.5l-.8 2.5v-2.5zm11.8-.5c0-1.7.5-3.6 1-4.5.8-1 .9-.3.4 2.5-.8 5-1.4 5.8-1.4 2zm276.7-.8c-1.5-4 2.7-6.4 5.4-3 1.2 1.4 1.1 1.5-.6 1.2-1.2-.3-2.4.3-3 1.5-1 1.6-1.3 1.7-1.8.3zM98.4 474c1.5-9.8 4-19.5 5.1-19.5 1.8 0 1.2 7.7-1 12.5-1 2.2-1.8 5-2 6.3a6.7 6.7 0 0 1-1.4 3.6c-1 .9-1.1.3-.7-2.9zm7.6 0c0-2.9 2.3-12 3.3-13 .6-.6.8.2.4 2.5l-1.3 7.8c-.6 4-2.4 6-2.4 2.8zm184.7-7.1c-1-1-.8-6.2.3-6.9 1.3-.8 3.5 4 2.7 6-.6 1.6-1.9 2-3 .9zm-181-8.2c-1.2-1.8-.4-10.2.8-10.2.8 0 1 1.8.9 5.2-.4 5.4-.8 6.6-1.8 5zm225-2.8c-1.5-1.5-2.5-3-2.2-3.2.7-.7 5.8 3 6.3 4.6.7 2-1.4 1.4-4.2-1.4zm-7.4-4.2c.5-2.4.3-3.2-.8-3.2-.9 0-1.8.7-2.1 1.5-.5 1.3-1 1.3-3.4-.1-3.1-1.9-4.7-5.4-2.4-5.4.8 0 2.3 1 3.4 2 1 1 2.2 1.6 2.5 1.1.6-1-3.9-6-5.3-6-1.3 0-2.3-2.9-1.2-3.5.8-.5 4.2 2.6 11.3 10.2l2.8 3-5.4 3.5zM104 449.6c0-.5.5-1.2 1-1.6.6-.3 1 .1 1 1 0 .8-.4 1.5-1 1.5s-1-.4-1-1zm-6-9c0-2.2.7-4.6 1.6-5.5.8-.8 2.2-2.8 3-4.3 1.1-2.3 1.4-2.4 1.4-.8 0 1.1-.4 3.6-.9 5.5l-1.5 6.3c-1 4.3-3.6 3.5-3.6-1.2zm-6-12.7c.7-4.7 2.6-5.4 3.4-1.2.7 3.6.8 3.4-2 4.2-2 .6-2 .4-1.5-3zm197.4 1.3c-1-2.7 0-8.2 1.6-8.2 1.1 0 1.5 1.2 1.5 4.4 0 4.4-2 6.8-3 3.8zM87.6 417.8c1.6-11.5 2.7-17.3 3.4-17.3.4 0 1-2.4 1.3-5.4.7-7 2.3-10.2 4.2-8.5 2.3 1.8 2.8 4.8 1 6.5-.8.9-1.5 3.3-1.5 5.5 0 3-.3 3.7-1.5 3.3-2.2-.9-1.8 1.2.6 2.8 2.3 1.5 1.7 5-.7 4.2-2-.8-1.7 1.3.5 3.5 1.2 1.2 1.6 2.4 1 3.3-.7 1.1-.9 1-.9-.1s-.3-1.2-1.2-.3c-1 1-.8 1.5.7 2.6 2 1.5 2 1.5-4.7 3-2.6.6-2.6.5-2.2-3.1zM231 398.5c-2.2-4 3-16 6.9-16 1.3 0 2-1 2.5-3 .4-2.1 1.1-3 2.6-3 2.2 0 6 2.9 6 4.6 0 1.5 8.7 3.3 12.7 2.7 3-.4 3.2-.3 3.8 3 .9 4.4.3 9-1.1 9.4-.6.2-1.4-.6-1.7-2-.4-1.2-2-3.5-3.6-5-2.5-2.5-3.8-2.9-9.5-3.2-7.2-.3-7.1-.3-6.7 6.2.2 3.2-2.3 8.3-4.1 8.3-.6 0-.8-1.2-.5-2.7a23 23 0 0 0-.2-6.8l-.7-4-1.7 3.1c-1 2.1-1.4 4.4-1 6.8.4 2.9.2 3.6-1 3.6-1 0-2.1-.9-2.7-2zm-4.5-1c.3-.5.8-1 1-1s.5.5.5 1-.5 1-1 1-.8-.4-.5-1zm-49.8-1.6c-1.3-1.3-.7-7.1.7-8.3a6 6 0 0 0 1.8-3.3c.2-1.2.8-2.3 1.3-2.4 1.4-.5 4.5 5.2 4.5 8.2 0 2.5-1.4 3.2-2.5 1.4-1.3-2.2-3.5-1-3.5 2 0 2.9-.9 3.8-2.3 2.4zm45.5-2.4c-1.2-1.1-2.2-2.7-2.2-3.5s-.7-1.8-1.5-2.1c-1.6-.6-2-4-.6-4.8 1-.7 4.5 3.8 5.5 7.2.4 1.2 1.4 2.2 2.2 2.2.8 0 1.4.7 1.4 1.5 0 2.1-2.2 1.9-4.8-.5zm36.8 1c0-.5.7-1 1.5-1s1.5.5 1.5 1-.7 1-1.5 1-1.5-.4-1.5-1zm-56.6-1.4c-.6-1.7.2-3.6 1.7-3.6 1.2 0 1.2 3.7-.1 4.5-.6.4-1.3 0-1.6-.9zm-10.4-2.6c-1.9-2.6-1.9-2.6.5-8.1 1.5-3.6 2.6-4.8 4.7-5.3 6-1.2 7.6 1.7 2.8 5.3a8.7 8.7 0 0 0-3.6 6.2c-.7 4.3-2.2 5-4.4 1.9zm79-.3c0-2 3.3-4.7 5.8-4.7 2.9 0 2.8 2.5 0 4.5-2.7 1.9-5.8 2-5.8.2zM207.4 380c-.4-1-.3-2 0-2.3.9-.9 4.2 1.1 4 2.3-.5 1.7-3.4 1.6-4 0zm45.9-1.2c-1.8-.7-3.3-1.9-3.3-2.5 0-1.3 6.2 0 7.2 1.5 2 2.9.9 3.1-4 1zm37 .2c-.6-1.8.5-3.8 1.8-3 1.2.8 1.2 4.4-.1 4.4-.6 0-1.3-.6-1.6-1.4zm-210-5.7c.4-1.7.7-8.3.7-14.6 0-8 .3-11.3 1.1-11 1.1.3 1.4 5.4 1 22 0 5.5-.4 6.7-1.7 6.7-1.3 0-1.5-.6-1-3.1zm157-10.4c-.3-.9-.3-1.8 0-2.1.9-.9 2.7.6 2.7 2.2 0 1.9-1.9 1.8-2.6-.1zm-40-11c.4-9.9.2-10.7-1.7-12-1.8-1.3-2.1-2.6-2.1-9.7L193 309c-.2-10.6 0-13 1.2-13.7 1-.6 1.5-2.8 1.6-7.8.1-7.9 2.2-12.5 8-17.6a20 20 0 0 1 17.4-3.2c4.7 1.3 9.1 7.2 10.1 13.6.4 2.4 1.8 5.7 3.2 7.4 1.3 1.6 2.1 3.4 1.7 4-.4.7-.7 2.1-.8 3.2 0 2.9-2.8 2.5-3.6-.5l-.6-2.5-.8 2.9c-.4 1.6-.3 4.3.3 6.2 1.3 4.4.2 9-2.3 9-1.6 0-1.8.7-1.6 7.7.3 8.8-1.3 10.5-2.4 2.5-1-7.2-1.6-8.2-4-6.4-1.8 1.4-2 2.6-1.8 15.2.3 12.7.1 14-1.7 15.7-1.1 1-2 2.5-2 3.3 0 2.2-2 1.7-3-.8-.5-1.4-1-1.7-1-.8-.4 5.1-1 7.2-2.4 8.5-2.5 2.6-3.6 1.7-3.6-3 0-4.3 1.3-6.7 2.3-4.2.3.7.6.3.6-.9s-.6-2.7-1.4-3.4c-1-.9-1.5-3.3-1.5-8.6 0-4-.4-7.4-.8-7.4s-.8 6-.8 13.3c.1 11-.2 13.8-1.6 16-1 1.5-1.8 3.3-1.8 4.2s-.7 1.5-1.6 1.5c-1.5 0-1.6-1.2-1.2-10.5zm13.5-13c0-3.4-.2-5.3-.8-5-1.2.8-1.3 10.5-.2 10.5.5 0 1-2.5 1-5.5zm2.1-28.8c0-4.3-.3-6.6-.9-6.2-.5.4-1 4.5-.9 9.3.1 10.3 1.7 7.7 1.8-3zm14.1-6.7c0-.5-.2-1-.4-1l-1.9-.5c-.8-.3-1.7.1-2 1-.5 1.1 0 1.5 1.8 1.5 1.4 0 2.5-.4 2.5-1zm-14.4-7.7c-1-1-1.8.5-1 1.9.6 1 .9 1 1.2 0 .2-.7.1-1.6-.2-2zm2.4-6.3c0-3.3-1-3.8-3-1.5-1.5 1.8-.6 4.5 1.5 4.5 1 0 1.5-1 1.5-3zm11.5 0c.4-.5 0-1.3-1-1.6-1.9-.7-3 0-2 1.6.8 1.3 2.2 1.3 3 0zm-.8-5.6c-.3-.3-1.2-.4-1.9 0-.8.3-.5.5.6.5 1 0 1.7-.2 1.3-.5zm17.4 73.7c-1.6-2.8-1.3-6.8.4-7.4 2-.8 2-3.7 0-3.7-1.8 0-2.2-1.6-3-12.8-.6-8.5-.5-9.4 1.2-9.8 1.5-.4 1.8-1.4 1.6-6.6 0-3.3-1-7.8-1.9-10l-1.8-4 2.9-2.2c2-1.5 2.5-2.5 1.7-3-2.2-1.3-4.4-6.6-3.3-7.9.5-.7 1.7-4.1 2.6-7.7a29 29 0 0 1 4.7-10.8c.7-2.4 10.8-5.2 16.6-4.5 4.4.5 5.5 1 6.7 3.3.8 1.5 2.1 3.3 3 4 1.5 1.2 1.6 1 1-1.4-.6-2.4-.5-2.7 1-2.4 1.3.2 2.4 1.8 3.1 4.5.7 2.3 2.3 5.6 3.6 7.3 1.8 2.4 2.2 4.2 2 7.8l-.5 11c-.2 6.6-1.4 8-5.2 6.6-1.3-.5-1.6-.3-1.3.7.3.8 1.4 1.6 2.5 1.7 2.7.4 3.1 3.4 2.7 20.7-.4 18-.9 20.5-3.5 20.5-1.7 0-1.9-.4-1.3-2.2.4-1.3.8-9.2.8-17.7l.1-15.4-3.2-3a13 13 0 0 1-3.8-6.8c-.4-2.2-1.1-3.9-1.6-3.9-1.4 0-6.7 5.9-8.5 9.4a10 10 0 0 0-1 6.2c.5 2.6.2 3.7-1.4 5.2-2.7 2.5-3.7 8.4-1.7 10 1.2 1 1.6.7 2.2-2.5 1-5.7 2.7-10.2 4.2-10.7 2-.8 2.4 1 .8 4.8a21 21 0 0 0-1.5 5.3c0 1-.7 3.1-1.5 4.7s-1.5 5.2-1.5 8-.5 5.8-1 6.6c-2 3-4-1.7-4-9.4 0-3.9-.5-7.8-1-8.6-1.1-1.7-1.2-1.1-1.3 11.3 0 7.9-1.3 9.9-3.6 6-.9-1.5-1-1.5-1-.2 0 .9-1 2.4-2.1 3.5-1.4 1.2-2 2.6-1.5 4 .7 3-1 4-2.4 1.5zm6.6-26.3c-.2-1.3-.4-.3-.4 2.2s.2 3.5.4 2.3c.3-1.3.3-3.3 0-4.5zm.4-17.8c-.8-4-.9-3.4-.9 4.5 0 8 .1 8.5 1 4.5.4-2.5.4-6.4 0-9zm4.6 2.8c-.2-1.3-.4-.3-.4 2.2s.2 3.5.4 2.3c.3-1.3.3-3.3 0-4.5zm2.2-18.8c0-3.1-2.8 4.7-2.8 8s.1 3.2 1.4-1.5c.8-2.7 1.4-5.7 1.4-6.5zm6.1 5.5c0-.8-.2-1.5-.6-1.5-1.3 0-3.4 3-3.4 5v2l2-2c1.1-1 2-2.7 2-3.5zm16-11c1-1.2 1-2-.4-4-2-3-5.9-3-9.3 0-2.6 2.3-2.1 3.5 1.5 3.5 1.5 0 3.4.5 4.2 1 2 1.3 2.6 1.3 4-.5zm-10-9c0-.2-.4-.6-1-1s-1-.1-1 .5.5 1 1 1 1-.2 1-.4zm0-4.5c5 0 3.8-2-3.3-5.9-5.5-3-7.9-2.7-3.9.5 1.7 1.5 3 3 2.6 3.6-.3.5-.3 1.7.1 2.6.5 1.2.9 1.3 1.2.5.3-.7 1.8-1.3 3.4-1.3zm-18.5 80c-.9-1.4 2.3-4.7 5-5.2 1.5-.2 2 .4 2.3 2.5.2 1.7-.1 2.7-1 2.7-.7 0-2.3.3-3.4.6-1.2.3-2.5 0-2.9-.6zm-77.3-4.6a83 83 0 0 1-.3-25.8c1.9-1.2 2.5 2 2.9 15.5.4 14.3-.6 18-2.6 10.3zm-98.6 0c-.3-2.2-1.1-6.1-1.8-8.9-1.8-7.6-.5-40.1 1.7-42.3 1.5-1.5 1.6 2.1.6 15a72.2 72.2 0 0 0 0 19.3 91 91 0 0 1 2 15.5c.4 5.6-1.7 6.7-2.5 1.3zm159 .7c-.7-1-.7-1.3-1-21-.2-17.3.4-23.3 2.3-22.2 1.3.9 1.5 3.6 1 19.6-.1 3.3 0 10 .2 15 .3 6.1 0 9-.7 9.2-.7.2-1.5 0-1.8-.6zm56.4-4.4c0-2 .5-3.9 1-4.2 1.5-1 1.8-.5 2.2 3.5.2 2.7 0 3.5-1.4 3.8-1.4.3-1.8-.3-1.8-3.1zM25.2 328.5c0-1.4.2-2 .5-1.2s.3 1.8 0 2.5-.5.1-.5-1.3zm-1-5.1c-.3-4.6 1-8.8 2.9-9.4 1.6-.5 1.6-.8.3-3.3-1.5-2.8-1.9-8.2-.6-8.2.8 0 4.2 11 4.2 13.5 0 1.2-.6 1.5-1.8 1-2.4-.7-4 1.1-4.4 5.5-.4 2.7-.5 2.9-.6.9zm267.4-5.1c-1-3.4-1.4-11.8-.5-12.3 3-1.9 5 5 3.3 11.3-.7 2.4-2.2 3-2.8 1zm-62.6-.8c0-.6.5-.8 1-.5.6.4 1 .8 1 1s-.4.5-1 .5-1-.5-1-1zm-68.2-6.5c-.5-13.8-.3-18 1.2-18 1.3 0 1.5 1.6 1.2 10-.4 10-2 15.7-2.4 8zm12.8 2.3c-.5-1.6-1.9-18.3-1.8-21.8.1-4.4 1.4-9 2.5-8.7 1.3.4 2 31.7.7 31.7-.6 0-1.2-.5-1.4-1.2zm61-10c-.6-2.5-.2-3.3 1.3-2.3 1.3.8 1.5 4.5.2 4.5-.5 0-1.1-1-1.4-2.2zM79 299.5c-.3-18 .3-36.7 1-37.4.6-.6 1-4.4 1-8.7 0-6-.4-8.2-1.9-10l-1.9-2.3-1 4c-.7 2.1-1.2 4.9-1.2 6.1 0 1.2-.5 2.5-1.1 2.9-.9.5-1-1.4-.4-7.2.4-4.3.8-10.3.8-13.2 0-7.4 2.7-5.8 5.4 3.3 1 3.5 4.1 4.5 6 2 1.8-2.5 1.7-5.5-.6-12.8A170.4 170.4 0 0 1 79 200c-1-7-2.6-12.5-3.8-12.5-.3 0-1.3.8-2.1 1.8-1.1 1.3-1.5 4.8-1.7 13.7a49 49 0 0 0 .3 10.8c.9-2 4.2-1.5 5.8.9 2 2.8 1 4.4-1.4 2.3-1.8-1.6-2-1.5-2.9 2.2-2 8.1-3 16-3.5 29.8-.5 12.8-3 7.8-4.2-8.4-.1-2.4.4-7.2 1.2-10.8 2.8-12.1 1.8-54.5-1.4-58.7a24 24 0 0 1-2.2-6c-1-3.9-1-5-.1-5.4.9-.3 1-2.4.5-7.7-.7-7.4-.6-7.4 2-8 2.6-.7 3.6-3.7 1.6-5-1.5-.9-1.3-9.8.2-9.3 1.4.5 3.6 6.3 3.7 9.7 0 1.4-.9 4.5-2 6.9-1.8 3.7-2 5.4-1.5 11 1.6 15.7 2.1 17.8 4.9 20.8 3 3.1 3.6 2 1.7-3-.5-1.5-1.2-7.3-1.4-12.9-.4-9-.3-10 1-8.3.8 1.1 1.4 2.8 1.4 3.8s.6 1.7 1.3 1.6c.9-.2 1.4 2.7 1.8 10.7.4 6 1.3 14.2 2 18l1.4 7 .3-10.2c.3-9.6 1.1-12.5 2.6-8.7 1 2.8.7 20.2-.6 24.9-1 3.5-1 4.8 0 5.7 1 1 1.2.5 1.2-2 0-1.7.4-3.3 1-3.6 1.3-.9 2 3.9 1.9 15-.1 5.4.4 11.8 1 14.2a155 155 0 0 1-.8 35.7c-1.4 3.4-5 19.6-6 27.5-1.2 8.2-3 11.7-3.1 6zm-54.6-2.8c-.6-.4-1.6-5.2-2.3-10.8-1.3-11.1-.4-15.4 3.1-15.4 1.7 0 1.8.2.3 2.5a41 41 0 0 0-.2 20.8c1 3 .8 4-.9 3zm267.1-19.3a20 20 0 0 1-.8-4.5c-.3-4.3 2.7-3.9 3.1.5.4 3.7-1.3 6.5-2.3 4zm-201-2.8c-.3-.5 0-1.2.5-1.6s1 .1 1 1c0 1.7-.6 2-1.4.6zm-56.4-2c-2.2-4-2.3-11-.3-14.5a27 27 0 0 0 2.6-8.2c1.3-8.5 2.8-12.4 4.8-12.4s2.4 1 .8 2.6a80.3 80.3 0 0 0-3.7 26.2c.4 5.4.2 6.4-1.4 7.3-1.4.7-2 .5-2.8-1zm126.6 1.2c-1-1.8-1.8-29-.9-29.7 2.1-1.3 2.7 2.2 2.7 16.2 0 12.7-.4 15.8-1.8 13.5zm13.5-1c-1.5-3-2.5-21.4-1.3-24.6 1.7-4.3 2.8-2.5 4 6.6 2 13.6.4 24-2.7 18zm-127-12.3c0-1.4.2-2 .5-1.2s.3 1.8 0 2.5-.5 0-.5-1.3zm85.4-8.9c-.7-1.2 3.2-4 5.6-4 1 0 2-.5 2.3-1 .6-1 7.5-2 8-1 .7 1-5.3 4.4-9 5.3l-4.6 1.2c-1 .3-2 0-2.3-.5zm159.1-2.7c-.4-.4-.7-2.9-.7-5.6 0-3.6.4-4.8 1.5-4.8 1.7 0 2.8 3.6 2.4 7.6-.4 2.7-1.9 4-3.2 2.8zm-196-2.5c-.4-1.3-1.1-7.1-1.7-12.9a96.8 96.8 0 0 0-2.6-14.5c-1.9-5.5-1.8-7.7.3-7.3 2.5.5 5 12.3 5.5 25 .3 10.1-.5 14.9-1.6 9.7zm191 1.5c-.3-.4-.7-1.6-.7-2.8 0-1.4.3-1.7 1.1-.9.6.6 1 1.9.8 2.8s-.7 1.4-1.1 1zM274 239c-1.6-2-2.1-10.9-.9-17 1-5.3 3.8-8.3 8.1-8.7 2-.3 2.4.2 2.6 3.4.3 2.7-.2 4.4-1.6 5.9-2.5 2.7-4.6 1.6-3.7-1.9.6-2.2.5-2.4-1-1.2-1.9 1.6-2 5.7 0 10.1.8 2.1 1 4.1.5 5.5-.5 1.2-.6 2.4-.4 2.7.3.2-.2 1-1 1.6-1 .9-1.6.8-2.6-.4zm-227-3.5c0-1.6.5-3 1-3s1 1.4 1 3c0 1.7-.4 3-1 3s-1-1.3-1-3zm128.2.7c-1.5-1.8-2.8-16.7-1.4-16.7.6 0 1.4.5 1.7 1 .5.8 1.1.7 2.1 0 2.3-2 2.8-.4 1.6 5.7-.7 3-1.2 7-1.2 8.5 0 3-1 3.6-2.8 1.5zm69-4c-1.3-2.2-1.7-4-1-4.8.4-.8.8-2.2.8-3.2s1.2-4.3 2.6-7.3c2.8-5.8 4.9-6.8 7.8-3.6 3.2 3.6 1.1 7.9-2.3 4.8-3-2.7-3.4-1.8-2.8 5.4.4 4.4.2 7-.4 7-.6 0-.9 1-.7 2.2.5 3.5-1.8 3.2-4-.5zm-28.3 2c-.8-2-.2-9 .8-9.9.7-.5 1.3-2.2 1.4-3.7.1-4.6 1.4-6.6 4.5-6.8l5.8-.5c3.8-.4 4.5 1.7 1 3-4 1.5-7.4 4.7-7.4 6.9 0 3.2-3.3 11.3-4.7 11.3l-1.4-.2zm-56.2-3.4c-1.4-1.3-.7-6.3.8-6.3 1 0 1.5 1 1.5 3.5 0 3.3-.8 4.3-2.3 2.8zm404.7-.2c-5.6-.3-10.5-.9-10.8-1.2-1-1 6.2-2.1 7.6-1.3.6.4 4.7.7 9 .6 6.4-.2 7.8 0 7.8 1.3 0 .8-.8 1.4-1.7 1.3l-12-.7zm-18.4-4c-3.8-1.3-8.7-4-7-4a46 46 0 0 1 8 2.4c6 2.2 5.2 3.5-1 1.5zm-357.8-.7c-.8-.4-1-1.7-.6-4 .4-2.1.2-4-.6-4.9-1.7-2.1 0-2.6 8.5-2.2 6.2.2 7 .5 7 2.2 0 1.4-.6 2-2 1.8-3.7-.4-7.3 1.7-7.7 4.5-.3 2.6-2 3.6-4.6 2.6zm337.3-5.1c-5-1.5-8-3.2-7.1-4 .2-.2 2.6.3 5.3 1 2.6 1 6.5 1.9 8.6 2.2 2 .3 3.7 1 3.7 1.6 0 1.3-4.6 1-10.5-.8zM353 219.6c0-1.4 3.1-2.1 8.4-2 5.6.3 6 1.4.9 2.3-5.5.9-9.3.7-9.3-.3zm20.5-3c1.4-1.3 8.4-1.8 8.7-.6.2.6-2 1.1-4.7 1.3-3.3.2-4.6 0-4-.7zm126-1.3c-.4-.4-.2-.8.2-.8l4.8-.6c5.4-.6 11.4.5 9.5 1.7-1.8 1-13.9.9-14.6-.3zm-339.7-1c-.3-.7-.6-12-.7-25-.2-19 0-23.8 1.1-23.8 1 0 1.3 2.6 1.3 10.8 0 5.9.2 17 .5 24.6.4 9.8.2 14-.6 14.3-.6.2-1.4-.2-1.6-.9zm47.5-1c.2-.7 1-1.3 1.7-1.3s1.5.6 1.8 1.3c.2.7-.5 1.2-1.8 1.2s-2-.5-1.7-1.2zm28.2.1c-1-1.5 1.4-2.9 5.2-2.9 3.5 0 5.3 1.7 3.2 3.1-2 1.3-7.6 1.1-8.4-.2zm27.1.3c-1.5-2.4.7-4.2 5-4.2 5 0 6.2 2.4 1.7 3.3-1.5.3-3.5.9-4.4 1.2-1 .4-2 .2-2.3-.3zm84.4-1.1c0-2 2-3.3 3.8-2.2 1.4.8.3 2.5-2 3.4-1.3.5-1.8.1-1.8-1.2zm107.5.8c-4.3-1-7-2.9-4.2-2.9.9 0 1.8.4 2.1.8s2.3 1 4.5 1c2.1.1 5 .6 6.3 1.1 2.1.9 2 1-1.2 1-1.9 0-5.3-.5-7.5-1zm-98.8-3.4c.3-.8 1.5-1.5 2.7-1.5 2 0 2 .1.2 1.5-2.5 2-3.7 2-3 0zm86.3-1.4c-.8-.5-3.2-1.1-5.2-1.5-2.3-.4-4.2-1.5-4.9-2.8-1-1.9-.9-2 1.3-1.5 5.6 1.4 11.7 4 12.2 5.3.6 1.6-1 1.8-3.4.5zm-293.5-1c-1-.6-3.2-1-4.8-1-1.5 0-3-.8-3.3-1.6-.3-.8-2.1-1.7-4-2s-5.6-2.5-8.2-4.6-5.8-4.2-7.2-4.5-3.6-1.3-5-2.2-3.7-1.7-5.2-1.8-3.7-.8-4.6-1.4c-1.2-.8 0-.9 4.3-.4a34 34 0 0 1 17.4 7.1c1.1 1 3.5 2.5 5.3 3.4l7.2 3.5c2.2 1 5.7 2.4 8 3 2.2.5 4.2 1.5 4.4 2.2.4 1.4-1.3 1.5-4.3.2zm214.7-.2c.3-.8 2.2-1.7 4.2-2 2-.3 4.2-1.1 4.9-1.7 1.7-1.7 2.7-1.4 2.7.7 0 2.1-1 2.6-7.8 3.6-3.5.6-4.3.4-4-.6zM189 203.5c0-.5.5-1 1-1s.9.5.5 1-.8 1-1 1-.5-.4-.5-1zm-139.4-4.2c.6-4.2 6.4-16.6 6.4-14 0 .8-1.2 5.2-2.6 9.8-2.8 9-5 11.4-3.8 4.2zm140.8-1.2c-1-1.9-2.8-4-4.3-4.7-1.4-.8-2.9-1.8-3.2-2.3-.4-.5-.7-9.6-.8-20.2v-19.3l3 .6c2.4.5 3 .2 3-1.3 0-1-.8-3.2-1.6-4.8-.8-1.5-1.5-3.3-1.5-4 0-2 8.3-15.5 10-16.1.8-.4 4-.9 7-1 5-.4 5.6-.2 8.7 3 3.7 4 5.3 9.7 3.3 12-1 1.2-1 1.8 0 3 1.5 1.8 2.5 20.5 1.1 20.5-1.5 0-2-2.8-2-10 0-4-.5-7-1-7-.6 0-1 2.8-1 6.4 0 4.7-.6 7-2 8.8-1 1.3-2.2 4.4-2.6 6.8a16 16 0 0 1-2 6.3 6.7 6.7 0 0 0-.8 4.8c.4 1.8 0 3.8-1 5.4-1 1.3-1.7 3.8-1.7 5.4 0 2.1-1.1 4.1-4 7a30.2 30.2 0 0 1-4.5 4.1c-.3 0-1.2-1.5-2.1-3.4zm7.3-15.3c-.2-1-.5-.4-.5 1.2 0 1.7.2 2.5.5 1.8s.3-2 0-3zm-4.3-1.8c-.6-1.6-2.4-2-2.4-.7 0 1.1 1.1 2.2 2.2 2.2.4 0 .5-.7.2-1.5zm11.6-16.5c0-.5-.4-1-1-1s-.8.5-.5 1c.4.6.8 1 1 1s.5-.4.5-1zm-5-28.9c0-.5-1.1-1-2.5-1.3-2.4-.5-3.2.2-1.8 1.5 1 1 4.3.8 4.3-.2zm7.6-2.3c-1-.6-2-.7-2.4-.3-.8.8 2 2.5 3.2 1.8.5-.3.1-1-.8-1.5zm-7.6-2.8c0-.5-.4-1-1-1s-.8.5-.5 1c.4.6.8 1 1 1s.5-.4.5-1zm22.5 68.6c-.4-1.4-1.1-2.6-1.7-2.6-.5 0-.7-1.2-.3-2.9.4-1.7.2-3.2-.5-3.6-.7-.5-1-6.4-1-18.8 0-10-.2-19.6-.6-21.3-.4-2.4-.1-3.5 1.3-4.5 2.4-1.8 6.3-9.3 6.3-12.2 0-3.3 4.5-9.4 7.5-10a18 18 0 0 1 14.5 4.9c3 3.4 4.7 11.7 3.5 16.7-.3 1.3-.2 2.7.3 3 .9.6.6 17.6-.3 18.6-1 1-1.5-.8-1.5-6.5 0-3.2-.3-6.7-.6-7.6-1-3.3-2.4-1.8-2.4 2.3 0 3.3-.3 4-1.7 3.7-1-.1-3 .9-4.3 2.2-2.3 2.3-2.5 3.3-2.5 12 0 5.3-.6 10.5-1.3 11.7-.6 1.2-1.2 4.7-1.2 7.7 0 4.6-.3 5.6-1.6 5.6-1 0-2.4.6-3.3 1.4-.9.8-3 1.7-4.8 2-2.9.7-3.3.5-3.8-1.8zm10.5-19.8c0-1.6-.3-1.9-1-1-.7.5-.9 1.5-.5 2.1 1 1.7 1.5 1.3 1.5-1zm7-30.5c0-1.3-.3-1.3-1.5-.3-.8.7-1.5 2-1.5 2.7 0 1.3.3 1.3 1.5.3.9-.7 1.5-2 1.5-2.7zm-6.3.5c-.3-.8-.5-.5-.6.6 0 1 .2 1.7.5 1.3.4-.3.4-1.2.1-1.9zM423 200.5c0-.5 1-1 2-1s2.2.5 2.5 1c.4.6-.5 1-2 1-1.3 0-2.5-.4-2.5-1zm-253-2.2c-.9-1.5-1-5.4-.5-13.2l.7-12.6c-1.5-23.6-1.5-23 .2-23 1.4 0 1.7 1.6 1.8 12.3.2 27 .4 33.3 1.2 36 .7 2.1.5 2.7-.7 2.7-.9 0-2.1-1-2.8-2.2zm210.6 1.3c-.7-1.1.9-2.3 1.8-1.4 1 1 .8 2.3-.3 2.3-.5 0-1.2-.4-1.5-1zM39 196.9a7.8 7.8 0 0 1 0-5.7c.6-1.6 1-4.2 1-5.7s1-3.8 2-5.1l2-2.4v2.2c0 1.3-.7 4-1.6 6.3a15 15 0 0 0-1 8c.8 4.6-1 6.3-2.4 2.4zm219 1c-.8-1-1-3.5-.7-8.2.4-4.8.2-7.1-.8-8.2-1.4-1.6-2.4-29.4-1-30.8.4-.4 1.3.2 2.1 1.2 1.3 1.9 1.4 1.7 1.4-1.6 0-2 .5-4 1.1-4.4.7-.3.9-2 .6-3.8-.7-3.7 2.7-12.3 6.7-16.8 2.4-2.8 3-3 6.9-2.4 2.3.4 4.9 1.3 5.7 2 .9.8 2.4 1.6 3.5 1.7 1.3.3 3 2.3 4.5 5.3 2.3 4.7 2.4 6 2.6 22.5 0 9.7-.2 19.9-.5 22.6-.3 2.8-.3 7.2 0 9.8.4 3.3.1 5.1-.7 5.9-1.8 1.4-4.7.2-4-1.8.4-.8-.1-2.7-1-4-1.6-2.5-1.6-2.7 0-3.9 1.5-1.1 1.6-2 .7-7.6-.6-3.5-1-8.5-1-11 0-2.7-.5-5-1.1-5.4-.6-.4-.8-2-.4-3.7l.7-3.1-3.3 2c-4 2.2-4.5 4-5.9 19.3-1.9 21.4-2.1 22.3-5.8 23.2-1.7.5-3.4 1.3-3.8 1.8-.9 1.5-5 1.2-6.5-.5zm7-18.4c0-.5-.4-1-1-1s-1 .5-1 1 .5 1 1 1 1-.4 1-1zm-2-7.6c0-1.4-.2-1.4-1.7-.3l-2.2 1.6c-.2.2.6.3 1.8.3 1.3 0 2.1-.6 2.1-1.6zm2-30.4c0-.5-.4-1-1-1s-.8.5-.5 1 .9 1 1.1 1 .4-.4.4-1zm16.2-12.3c-1.7-1.6-2.6 0-1 1.9.9 1.1 1.4 1.3 1.7.4.2-.6-.1-1.7-.7-2.3zm-7.8-1.2c-.3-.9-.8-1.4-1-1.1-.3.3-.3 1 .1 1.5 1 1.6 1.6 1.3.9-.4zM388 198c0-1 1-1.5 2.5-1.5a7 7 0 0 0 4.3-1.7c4.7-4.8 5.9-5.4 8.3-4.4 2.4 1 2.4 1 .2 1a12 12 0 0 0-5.5 3c-5.7 4.9-9.8 6.4-9.8 3.6zm-211.3-.2c-.7-1.1-.5-39.5.2-41.3.8-1.9 2.2 16.2 2.5 30.4 0 7.5-.2 11-1 11.3-.7.2-1.4 0-1.7-.4zm260.8-.3c-.3-.5.4-1 1.5-1 1.2 0 1.9.5 1.5 1-.3.6-1 1-1.5 1-.4 0-1.1-.4-1.5-1zm132.5-1-8.5-1.4c-8-1.4-12.5-2.9-12.5-4.2 0-1.2.6-1.2 3.8 0 2 .8 7.8 2 12.7 2.6 11 1.4 12.7 1.9 12 3-.6 1.1-.9 1-7.5 0zm-360-3c-.6-1.3-.7-2.6-.1-3.6.7-1.4 1-1.3 2.5.7a9 9 0 0 1 1.6 3.6c0 2-2.8 1.5-4-.7zm241 1.1c0-1 3-2.4 3.8-1.7.2.2-.5 1-1.7 1.6-1.1.6-2 .7-2 .1zm-389-2c0-1.2.5-2 1-2s1 .8 1 2-.4 2-1 2-1-1-1-2zm-55-1.8c-5.4-.8-7-1.4-7-2.4 0-1.3 3.6-.9 13.5 1.5l6 1.4h-5a67 67 0 0 1-7.5-.5zm89-2.2c0-1 6.1-2.1 7.4-1.3 1.3.7-1.6 2.2-4.6 2.2-1.5 0-2.8-.4-2.8-.9zm446-.8c-1.3-1.4-1.3-1.5.5-.6l3.5 1.6c1 .4.9.6-.6.6a5 5 0 0 1-3.5-1.6zM8.1 186.6c-1-.6-1-1-.3-1.5 1.3-.8 3.1 0 3.1 1.5 0 1.1-1 1.1-2.8 0zm10.6.2c.7-.2 1.8-.2 2.5 0 .7.3.1.5-1.3.5s-1.9-.2-1.2-.5zm230.9-1c-1.1-1.1-.7-2.3.8-2.3.9 0 1.5.4 1.5 1 0 1.2-1.5 2.1-2.3 1.3zm281.8-.3c-.3-.6.5-1 2-1 1.4 0 2.5.5 2.5 1s-.8 1-1.9 1c-1 0-2.2-.4-2.6-1zm-59.3-3c.3-.9 2.6-1.8 5.4-2.2a106 106 0 0 1 26.3-2l5.6.6-4 .7c-2.2.5-6.9.8-10.5 1a81 81 0 0 0-19.3 2.5c-3.2.6-3.8.4-3.5-.7zm41-1.7c1-.2 2.6-.2 3.6 0 1 .3.2.5-1.8.5s-2.7-.2-1.7-.5zM44 176.6c0-2 1.3-4 2.6-4 1.1 0 1.2.4.3 2.4-1.2 2.5-2.9 3.4-2.9 1.6zm6.5-10c1.3-2.6 3.5-5 3.5-3.8 0 1.3-3.3 6.7-4 6.7-.6 0-.3-1.3.5-3zm6-1c-.8-1.5.4-16.3 1.6-18.2 1.7-2.8 2 0 .9 9.2-1.2 10-1.4 10.6-2.5 9zm-3.5-17c0-1.7 3.8-5.7 4.6-5 .4.4-.5 2-2 3.5-1.4 1.5-2.6 2.2-2.6 1.5zm106.3-15.4c.2-16.6.1-25.9-.2-45-.2-8.8 0-10.8 1.2-10.8 2 0 2.6 11.4 2 40.5-.4 28.6-.5 30.8-2 31.3-1 .3-1.2-3.7-1-16zM177 145c0-2.6 2.5-3.5 3.3-1.2.7 1.8-.2 3.7-1.8 3.7-.9 0-1.5-1-1.5-2.5zm1.2-8.7c.2-1.8.8-3.3 1.3-3.3s1.2 1.5 1.4 3.3c.2 2.4-.1 3.2-1.4 3.2-1.2 0-1.5-.8-1.3-3.2zM60.4 133c-.6-1.6.2-12.3 1.2-16.7.4-1.6 1.4-2.8 2.2-2.8 1 0 1.3.6.8 2.3-.4 1.2-1 3.8-1.3 5.7-.5 3.1-.4 3.3 1 2.1 1-.7 2.5-1 3.4-.7 1.5.6 1.4.9-.4 2.9a29.5 29.5 0 0 0-3.7 5.5c-1.8 3.6-2.4 3.9-3.2 1.7zm110.3-7c-.7-1.8.2-4.5 1.4-4.5s1.2 4.7 0 5.4c-.4.3-1.1 0-1.4-.9zm.9-16.8a20.4 20.4 0 0 1-1-9.9c.5-2.9 1.2-3.7 3.2-4.1 4.3-.8 4.9 0 4.8 6.8 0 7.2-1.8 8.8-3.4 3.2l-1-3.2v4.2c-.2 4-1.7 5.9-2.6 3zm65.5-2.5c-4-1.4-5.6-6.2-2-6.2 2.3 0 2.5-.6 3.4-7.1.5-4 1-4.9 3.6-6 2.4-1 3.3-1 4.2 0 1 1 .7 1.6-1 2.8-1.9 1.3-2.3 2.5-2.3 7 0 7.6-2 10.8-6 9.5zm23.2-1.8c-.3-1 .1-2.2 1.1-3 1.2-.8 1.5-2 1.1-3.7-.8-3.2 2.6-11.1 5.4-12.6 2.9-1.6 5.1-1.4 5.1.5s-2.3 4.4-4.1 4.4c-1 0-1.5 2-1.7 7.2a42 42 0 0 1-.8 8c-.9 1.5-5.4.8-6-.8zm-50.6-2.5c-3-2.4-3.7-5.6-1-4.4 1 .4 3 1 4.5 1.2 2.3.4 2.6.2 2.2-1.5-.8-3 3.3-10.2 5.7-10.2 1 0 2 .6 2 1.3 0 1.8-3.8 9.4-5 10.2-.6.3-1 1.7-1 3 0 3.2-3.7 3.4-7.4.4zM190 94.8c0-7 9.2-12.6 12-7.4 1.3 2.4.5 3.1-3.6 3.1-3 0-3.4.4-4.4 4-1.4 5.2-4 5.4-4 .3zm-21.3-21.1c-.8-1.2 22.9-2.6 26.7-1.6 1.6.4 2.4 1 1.7 1.3a129 129 0 0 1-28.4.3zM159.4 50c.4-4 1.4-9 2.2-11a28 28 0 0 0 1.5-8.7c0-6 .8-9.8 2-9.8 2.3 0 .9 20.3-1.6 23-1.7 1.9-2.3 8.4-1.1 11.7.6 2 .4 2.3-1.4 2.3-2.2 0-2.2-.2-1.6-7.5zm100.1-16c-3-2.2-.5-4.2 3.8-2.9 1.8.6 4.4.7 5.7.3s4-.8 5.9-.8c2.6 0 3.2.2 3 1.6-.3 1.5-1.6 1.8-6.9 2a37 37 0 0 0-8 .7c-.8.3-2.4 0-3.5-.8zm-85.5-.5c0-.6.7-1.3 1.5-1.6 2.2-.9 8.7.5 8 1.6-.8 1.3-9.5 1.3-9.5 0zm74.3-1.2A62.1 62.1 0 0 1 248 9c1.4-.8 4.4 5.5 4.2 8.7-.1 1.7.6 3.4 1.8 4.5 2.2 1.9 3.8 8 2.4 9.3-1.7 1.5-6.9 2-8.1.8zm-42.8-.7c-5.1-1-3.2-2.5 3-2.2 6.5.3 7.9.7 7 2.2-.6 1-5.3 1-10 0zM187 28c-2-3.3-2.2-4.5-1.7-14.1.3-5.8 1-11 1.6-11.5C188 1 193 11 193.2 14.7c0 1.3.7 4.2 1.5 6.6 1.7 5.5 1.7 5.8-.7 8.2-2.8 2.9-4.5 2.5-7-1.6zm4-10.8c0-1.1-1.9-1.5-2.4-.6-.4.5 0 1 .9 1 .8 0 1.5-.2 1.5-.4zM280 29c0-1 .5-1.5 1.1-1.3.6.2 1 .8 1 1.3s-.4 1.1-1 1.3-1-.4-1-1.3zm-60.8-3.2c.5-2.5 2.8-2.8 2.8-.4 0 1.2-.6 2-1.5 2-1 0-1.5-.6-1.3-1.6zm61.5-10c-1-1-.8-5.3.3-5.3.6 0 1 1.3 1 3 0 3.1-.2 3.5-1.3 2.3zM170.2 9.1c-3.9-4-4.2-4.6-3-6.5a7.2 7.2 0 0 1 2.5-2.5c1.4-.6 4.3 3 4.3 5.1 0 .8.8 2.5 1.6 3.8 1.5 2.2 1.3 4.5-.4 4.5-.3 0-2.6-2-5-4.4zm60.9 2.5c-.6-1.1-1-3-1-4.2 0-2.2 0-2.2 2-.4 2 1.8 2.7 6.5 1 6.5-.5 0-1.4-.9-2-2zm-70-.5c0-.9.7-1.6 1.5-1.6 1.8 0 1.5 2.1-.4 2.8-.6.2-1.2-.4-1.2-1.2zm59.7-.8c-.6-2 .4-6.8 1.4-6.2 1.1.7 1.1 6.1 0 6.8-.6.4-1.2 0-1.4-.6zm66.3-.7c-1.6-3-1.3-5.3.7-5 1.1.3 1.9 1.5 2 3.7.4 3.5-1.1 4.3-2.7 1.3zm-60-7c0-1.2.4-2.1 1-2.1s1 .6 1 1.4-.5 1.8-1 2-1-.2-1-1.3z"/>
</svg>
