<?xml version="1.0" encoding="utf-8"?>
<svg xmlns="http://www.w3.org/2000/svg" version="1.1" viewBox="0 0 1469 205">
	<title>Four bars of musical notation on the treble clef, in the key of C, and labeled with a tempo of Valorosissimo.</title>
	<path d="M0 56v2h1469v-2zm0 25v2h1469v-2zm0 25v2h1469v-2zm0 25v2h1469v-2zm0 24v2h1469v-2z"/>
	<path d="M1208 154c30 33 96 39 132 12a93 93 0 0 1-132-12"/>
	<path d="M1208 153a1 1 0 0 0-1 0 1 1 0 0 0 0 2c34 40 94 45 134 12a1 1 0 0 0-1-2c-18 14-44 19-68 17-25-3-49-12-63-29a1 1 0 0 0-1 0zm15 14c14 9 31 15 49 16 18 2 36 0 52-7a92 92 0 0 1-101-9zM503 63c26-31 103-31 129 0-26-25-103-25-129 0"/>
	<path d="M568 39c-26 0-52 8-65 23h-1v1a1 1 0 0 0 0 1 1 1 0 0 0 1 0 1 1 0 0 0 1 0c12-13 38-19 64-19s51 6 63 19a1 1 0 0 0 2-1v-1c-14-15-40-23-65-23zm0 2c19 0 39 4 53 14-14-8-34-12-54-12s-39 4-53 12c14-10 34-15 54-15z"/>
	<path d="M430 56v102M794 56v102m364-102v102m240-102v102m13-102v102M428 56v102h4V56zm364 0v102h4V56zm364 0v102h4V56zm240 0v102h4V56zm13 0v102h4V56zM486 85v81m136-81v84m119-53V38m482 90V48m132 93V57M188 104V29M187 29v75h2V29zm553 9v78h2V38zm482 10v80h2V48zm132 9v84h2V57zM485 85v81h2V85zm136 0v84h2V85z"/>
	<path d="M188 99c-1-4-5-5-10-5l-10 2c-7 4-11 10-11 15l1 4c2 3 6 5 10 5s7-1 11-3c6-3 10-9 10-14l-1-4m328-25c-2-3-5-5-10-5l-11 3c-6 3-10 9-10 14l1 4c2 3 5 5 10 5l11-3c6-3 10-9 10-14l-1-4m-4 7-9 5a38 38 0 0 1-11 5l-3-2-1-2 2-4 9-5a38 38 0 0 1 11-4l3 1 1 2-2 4m140-7c-2-3-6-5-10-5s-7 1-11 3c-6 3-10 9-10 14l1 4c1 3 5 5 10 5 3 0 7-1 10-3 7-3 11-9 11-14l-1-4m89 37c-2-3-6-5-10-5s-7 1-11 3c-6 3-10 9-10 14l1 4c1 4 5 5 10 5l10-2c7-4 11-10 11-15l-1-4"/>
	<path d="M870 141V57M869 57v84h2V57z"/>
	<path d="M871 136c-2-3-6-5-10-5s-7 1-11 3c-6 3-10 9-10 14l1 4c1 3 5 5 10 5 3 0 7-1 10-3 7-3 11-9 11-14l-1-4"/>
	<path d="M946 166V82M945 82v84h2V82z"/>
	<path d="M946 161c-2-4-5-5-10-5l-11 2c-6 4-10 10-10 15l1 4c2 3 5 5 10 5l11-3c6-3 10-9 10-14l-1-4m277-38c-1-3-5-5-10-5-3 0-7 1-10 3-7 4-11 10-11 15l1 4c2 3 6 5 10 5s7-1 11-3c6-4 10-9 10-14l-1-5m132 13c-2-3-5-5-10-5l-11 3c-6 3-10 9-10 14l1 4c2 3 5 5 10 5l11-3c6-3 10-9 10-14l-1-4M103 126c-1-6-4-10-4-11a22 22 0 0 0-21-9l-3-17c6-6 9-12 12-16l4-11c2-6 2-13 1-21s-3-15-5-18l-3-2c-1 0-4 1-7 4l-8 12c-3 7-3 17-3 23l2 13v5l-4 3-3 3c-8 8-21 20-21 39a32 32 0 0 0 10 23 37 37 0 0 0 33 10l3 22c0 6-2 10-6 13-2 2-5 3-8 3l-6-1v-1c2 0 5-1 8-5 1-2 2-7 0-11-1-2-3-5-9-5a11 11 0 0 0-11 6c-2 5-2 10 1 14s8 6 13 7h3c4 0 9-2 12-4 4-2 6-6 7-12 0-4 0-10-2-18l-1-9c6-2 10-6 13-11 4-6 5-12 3-18m-34 26c-4-2-9-4-13-8l-4-6-2-10c0-5 1-10 4-15s7-11 13-16l4-4 3 14c-4 1-9 4-12 10-3 7-3 12-3 15 1 5 4 9 7 11l7 2 1-1-2-3-2-1c-3-2-5-7-4-11 1-3 2-5 4-6l6-4 6 31v2H69m11-33c11-1 15 7 16 11l-1 12c-1 3-4 7-9 9v-2l-6-30m-7-71c2-5 5-9 7-10l4-3v1l2 1c2 4 1 11 0 15-2 6-5 11-13 21l-1-3c-1-8-1-16 1-22m1158-37c-9-10-18-11-23-11s-13 1-22 11c-5 5-9 16-9 21 0 2 1 3 2 3 3 0 1-8 10-17 7-7 17-7 19-7 3 0 13 0 20 7 8 9 7 17 10 17l1-3c0-5-3-16-8-21m-30 19a7 7 0 1 0 14 0 7 7 0 0 0-14 0"/>
	<path d="M1021 141V57m90 59V38M1110 38v78h2V38zm-90 19v84h2V57z"/>
	<path d="M1022 136c-2-3-6-5-11-5-3 0-7 1-10 3-7 3-11 9-11 14l1 4c2 3 6 5 10 5s7-1 11-3c7-3 10-9 10-14v-4m89-25c-1-3-5-5-10-5-3 0-7 1-10 3-7 3-11 9-11 14l1 4c2 4 6 5 10 5l11-2c6-4 10-10 10-15l-1-4"/>
	<path d="m1020 51 92-19v13l-92 19V51m92 0-32 6v13l32-7V51"/>
	<path d="M360 66v90M359 66v90h2V66z"/>
	<path d="M361 61c-2-3-6-5-11-5-3 0-7 1-10 3-7 4-11 10-11 15l1 4c2 3 6 5 10 5s7-1 11-3c7-4 11-9 11-14l-1-5m-2 96 1 1 2-1s1-10 5-16l15-15c3-4 4-9 5-15l-2-13v-7c0-6-2-11-4-14l-2-2-1 3 3 12c0 4 0 7-4 13-6 9-14 14-17 15l-1 1v38m23-51c0 5 0 10-5 16-4 5-10 9-14 10h-1l1-1c0-2 2-6 6-10a118 118 0 0 0 13-15m241 63 1-4s2-6 6-11c2-5 12-17 12-17s7-9 7-22v-2c0-6 0-15-4-24 0-1-1-2-2-1v3c2 6 3 14 3 21 0 8-3 12-5 15-7 11-15 17-20 18v24l1 1 1-1m-469 28-6-15v-1l2-1h1v-2h-13v2c2 0 2 0 3 2l9 23h3l8-21c2-2 3-4 5-4v-2h-10v2c2 0 3 1 3 2v2l-5 13m28-4c0-3-1-4-2-5l-6-2c-5 0-9 2-9 5 0 2 2 3 3 3 2 0 3-1 3-3v-1l-1-1 3-1c2 0 3 1 3 4v2h-2l-5 1c-3 1-5 3-5 5 0 3 2 5 6 5 3 0 5-1 7-3 0 2 2 3 4 3s4-2 4-3l-1-1h-1v1l-1-3v-6m-6 3v2c0 2-1 4-3 4s-3-1-3-2c0-2 1-3 4-4h2m19-19-9 1v2h1c2 0 2 0 2 3v19h-3v2h11v-2l-2-1v-24m14 9c-6 0-10 4-10 10 0 5 4 9 10 9s10-4 10-9c0-6-4-10-10-10m0 2 3 2 1 6c0 4-2 7-4 7s-4-3-4-7c0-5 2-8 4-8m20-1h-8v2h1c2 0 2 0 2 4v9h-3v2h12v-2h-1l-2-1v-3c0-5 1-9 4-9l-1 1c0 2 1 3 3 3s3-1 3-3-2-4-4-4c-3 0-5 2-6 5v-4m21-1c-6 0-10 4-10 10 0 5 4 9 10 9s10-4 10-9c0-6-4-10-10-10m0 2 3 2 1 6c0 4-2 7-4 7s-4-3-4-7c0-5 2-8 4-8m27-1h-1l-2 1-4-2c-4 0-7 3-7 6l1 4 5 2h3c1 1 2 1 2 3 0 1-1 2-3 2-3 0-5-2-7-5h-1v6h1l2-1 5 2c4 0 7-3 7-7l-1-3-5-2-3-1c-2 0-2-1-2-2s1-2 3-2 4 2 6 4h1v-5m12 0h-9v2h1c2 0 2 0 2 3v10h-3v2h12v-2l-3-1v-14m-3-10c-2 0-3 2-3 4 0 1 1 3 3 3s3-2 3-3c0-2-1-4-3-4m23 10h-2l-1 1-5-2c-4 0-7 3-7 6l2 4 4 2h3c2 1 2 1 2 3 0 1-1 2-3 2s-5-2-6-5h-2v6h2l1-1 5 2c5 0 8-3 8-7l-2-3-4-2-4-1-2-2c0-1 1-2 3-2 3 0 4 2 6 4h2v-5m18 0h-2l-1 1-5-2c-4 0-7 3-7 6l2 4 4 2h3c2 1 3 1 3 3l-4 2c-2 0-4-2-6-5h-2v6h2l1-1 5 2c5 0 8-3 8-7l-2-3-4-2-3-1c-2 0-3-1-3-2l3-2c3 0 4 2 6 4h2v-5m11 0h-8v2c3 0 3 0 3 3v10h-3v2h11v-2l-3-1v-14m-2-10c-2 0-4 2-4 4l3 3c2 0 4-2 4-3 0-2-2-4-3-4m15 10h-8v2h1c2 0 2 0 2 3v10h-3v2h11v-2c-3 0-3 0-2-3v-5c0-3 1-4 3-4 1 0 2 1 2 3v6c0 3 0 3-2 3v2h10v-2c-3 0-3 0-3-3v-5c0-3 2-4 4-4 1 0 2 1 2 3v9h-2v2h10v-2l-3-1v-9c0-3-2-6-5-6s-4 1-6 4c-1-2-3-4-5-4s-4 2-6 4v-3m37-1c-5 0-10 4-10 10 0 5 5 9 10 9 6 0 10-4 10-9 0-6-4-10-10-10m0 2c2 0 3 1 3 2l1 6c0 4-1 7-4 7-2 0-3-3-3-7 0-5 1-8 3-8"/>
	<path d="M271 128V32M270 32v96h2V32z"/>
	<path d="M271 123c-1-3-5-5-10-5-3 0-7 1-10 3-7 4-11 10-11 15l1 4c2 3 6 5 10 5s7-1 11-3c7-4 10-9 10-14l-1-5m2-87-1-4-1-1-1 1v23l1 1c4 1 12 7 19 18 2 3 4 7 4 15l-2 22v2c1 1 2 0 2-1 4-9 4-18 4-24v-2c0-13-7-22-7-22s-10-12-12-17c-4-5-6-11-6-11m12 83a5 5 0 1 0 10 0 5 5 0 0 0-10 0"/>
</svg>
