<?xml version="1.0" encoding="utf-8"?>
<svg xmlns="http://www.w3.org/2000/svg" version="1.1" viewBox="0 0 667 464">
	<title>Sketched elevation relief map with labels: B on the left, D on the top, A on the top right, E in the center, and C on the right.</title>
	<path d="M328.3 463c-1.2-.4-3.3-.8-4.8-.9h-2.8l-3-4.2c-2.9-4-4.8-5.6-9.8-7.8a29 29 0 0 0-8.5-1h-6.2l-16.8-8.6-9.3-14-12-6.2-2.8-3.9c-1.5-2.1-4-5.5-5.3-7.6l-2.4-3.7-3.3-1.4a16 16 0 0 1-4.9-3.3c-1-1-2.6-3.9-3.8-6.3l-2.1-4.5-6.2-3.7a82.1 82.1 0 0 0-21.1-9.4l-5.2-1.3-6 1c-3.4.6-8.8 2.2-12 3.8a424 424 0 0 0-22.6 11.1 47.3 47.3 0 0 1-18 6.7l-5.3.6.4-1.4c.3-.8 2.2-1.7 4.4-2.1 2.2-.4 5.7-1.6 8-2.8 2-1.1 4.4-2 5-2 .8 0 2.6-1 4.1-2.4a42 42 0 0 1 5.9-3.9c6.9-3.6 19.1-9.1 22.4-10 2-.6 7-1.2 11-1.5l7.2-.4 5.2 1.7c7 2.2 19.8 9 24.3 12.7 2 1.6 4.7 5 6 7.6l2.4 4.7 2.8 1.5a44 44 0 0 1 12.4 12.6c0 1.3 6.6 7.4 8 7.4 1.7 0 8.7 6.8 13.1 12.8l4.2 5.8 15.6 7.7 8.3-1.4 4.2 1.2c4.7 1.4 7.7 3.5 7.7 5.5 0 .8.7 1.4 1.6 1.4.8 0 2.5 1 3.7 2.4 1.3 1.3 4 3 6 3.9l3.8 1.6v1.5c0 .9-.4 1.5-.8 1.5s-1.6-.5-2.8-1zm52.6-20.6c0-1.9 3.8-8.3 5-8.3 1.3 0 6-5.2 6-6.8 0-.8 1.4-3.3 3-5.7l3.2-4.3.7-6a25 25 0 0 1 2.4-8.4l6-8.5c2.3-3.4 6-8.1 8.3-10.5a36.4 36.4 0 0 0 9.4-14.3c.8-2.2 2.3-5.4 3.4-7.2 1.1-1.7 3.4-4 5.1-5.1 1.7-1.1 5-2.3 7.3-2.6l4.2-.7 4.7 1.6a43 43 0 0 1 8 3.8 31 31 0 0 1 6.9 7.7l3.5 5.5 3.6 1.3c3.8 1.4 9.5 5.8 9.5 7.3 0 2 6.5 9 11.1 12 2.6 1.6 5 3.6 5.3 4.5s.6 2.6.6 4v2.4h-1.4c-.8 0-1.7-1-2.1-2-.4-1.2-3.2-4.1-6.3-6.5A63.2 63.2 0 0 1 478 385l-4.5-6.2-10-3.3-5.7-11.1-5.3-3.2c-5.3-3.2-9-4-10.1-2l-.7 1-4.7-1.1-3 2.5a15.7 15.7 0 0 0-4.1 6.2 38 38 0 0 1-10 16.8c-3.2 3.5-6.5 7.9-7.4 9.8s-3.4 5.5-5.5 8.1l-4 4.7-.6 5.6-.6 5.5-2.8 4.2a51.6 51.6 0 0 0-4 7.3c-.8 1.7-3 4.4-4.8 5.8s-3.4 3-3.4 3.5c0 1.5-3.3 5-4.8 5-.7 0-1.2-.8-1.2-1.7zm-63.2-2c-6.7-1.3-21.5-5.5-22.7-6.5a10 10 0 0 1-2-4.5c-.3-2-1.6-4.7-2.8-6.2a25.8 25.8 0 0 1-3.6-7.1c-.7-2.5-2.3-6.2-3.4-8.2-1.1-2-4-5.8-6.4-8.4l-4.4-4.7-5.7-2.5c-5.5-2.5-11.1-6.8-11.1-8.5 0-1-5.2-5.7-6.4-5.7-.4 0-3.1-2-6-4.5a33 33 0 0 0-8.6-5.7c-2-.6-6.5-3-10-5.3-3.7-2.3-9.8-5.8-13.6-7.6-3.9-1.9-8.8-5-11-7-2.3-2.1-6-4.5-8.3-5.5l-4.3-1.7-8.3 1.3c-4.5.6-11 2.1-14.2 3.2a232 232 0 0 0-31 14.7c-1.7 1.1-4 2-5.2 2-2.2 0-16.4 5-20.6 7a69 69 0 0 0-6.5 4.7 28.2 28.2 0 0 1-4.7 3.4c-.3 0-2.7 1.3-5.2 2.9-4.6 2.9-7.5 3.1-7.5.6 0-1.2 11.7-12.7 31.2-30.5a1486 1486 0 0 0 17.9-16.8l7.5-7.2h-2.5c-1.3 0-8.2 1.8-15.3 4l-12.7 4.1-3.4 3.2a1976.4 1976.4 0 0 1-29.6 27.4c-4.5 4.2-8.1 5.5-8.1 3 0-.7 2.1-3 4.7-5 5.8-4.7 30.7-27.8 31.2-29 .2-.4-1.7-.7-4.1-.7h-4.5l-13.4 6-3.1 3.6a29.4 29.4 0 0 1-6.7 5.3c-2 1-5.2 2-7.1 2.2l-3.5.4-.3-1.7c-.2-1 .4-2.3 1.3-3 1-.7 7-6.4 13.4-12.5a3412 3412 0 0 1 17.6-16.7c3.3-3 5.7-5.9 5.4-6.2a15 15 0 0 0-5.7.1l-5 .7L55 346l-1.7-.3a2 2 0 0 1-1.6-1.9c0-.9 3-4.2 6.6-7.3 3.5-3.2 11-10.1 16.4-15.4l9.9-9.7-5-.6-8.3 8.6c-4.6 4.7-9 8.6-9.7 8.6-3 0-1-3.8 5.4-9.7 3.6-3.5 6.5-6.5 6.2-6.8-.2-.2-3 .2-6.3 1l-6 1.3-3 3c-1.8 1.8-4 3.1-5 3.1h-1.7v-1.5c0-.8.7-1.8 1.5-2 2.3-1 1.8-2.5-.7-2.2l-2.2.2-.3-1.5-.3-1.5 8-8.5c4.4-4.6 8-8.8 8-9.2 0-.4-.6-.8-1.4-.8-.9 0-1.5.4-1.6.8a40 40 0 0 1-9.9 10.2c-2 0-1-2.2 2.7-6.3l3.7-4.2-3.3-.3-3.3-.3-1.4-3.3a11 11 0 0 1-.8-5.4 5 5 0 0 0-.5-3.5c-.6-.7-1.2-3-1.3-5l-.3-4 19-17.6h-2.4a10 10 0 0 0-5.4 2.5l-3 2.6-1.1-1.1-1.1-1.1 1.2-2c.7-1 1.2-2.6 1.2-3.4V250h4.3l6.4-6.2a42 42 0 0 0 6.4-7c0-.4-1-.8-2.1-.8H69l-7.7 7.5a47.6 47.6 0 0 1-8.9 7.5c-.6 0-1.2-.7-1.2-1.7v-1.8l6-4.9c3.4-2.7 6-5.5 6-6.2 0-1.4-2.1-2.1-7.4-2.6l-3-.3-.4-1.7-.3-1.7 3.3-1.4c1.9-.7 5-2.8 6.9-4.6 7-6.6 26-25.2 26-25.6 0-.2-1.9-.2-4.3.2l-4.2.5-5-4 1-1.1L77 193l2.4.8c3.3 1.1 23.5.7 28.7-.7l4.2-1 8.2 3.2 5.7-.7 16.2-1.6a291 291 0 0 0 14.9-1.5l4.3-.7 10.9 3.4 24-1.1 4.3-2.2c8.4-4.2 16.4-10 20.4-14.6 2.3-2.7 4.5-6 5-7.3.3-1.4 1.5-3.5 2.5-4.8 1-1.3 2.3-4.6 2.8-7.5 1.8-9.3 3-22 2.4-27.7l-.5-5.5 3.9-10-.4-14-.5-14 1-3.5 4.3-12.5c1.7-5 3.4-10.3 3.6-12 .3-1.6.6-5.9.7-9.4l.3-6.4 3.4-2.2 1 1.4c.4.8.6 2 .3 2.8-.3.7 0 1.3.6 1.3s1-.5 1-1a31 31 0 0 1 5.6-7l5.5-5.7v-4.1c0-2.3.4-4.2.9-4.2 1.7 0 4.1 5 4.1 8.5V35h1.4c.7 0 3-1.4 5.2-3l3.8-3 1.8 1.8-1.6 2.5a22 22 0 0 1-5.1 4.9l-3.5 2.3v6.7l1-.4c.5-.1 4.3-3.6 8.5-7.7 4.1-4 7.8-8.2 8.1-9.3l.6-2 3.4.7.5 2.8.5 2.9 3-3.1c2.7-3 5.5-4 5.5-2.3 0 .5-1.7 2.2-3.8 3.9-4 3.2-9.9 11-9 11.9a35 35 0 0 0 7.3-7c6.3-7.1 9.6-9.3 9.5-6.3 0 .6-4.6 6-10 11.7a77.6 77.6 0 0 0-9.5 11c.3.2 5.6-4.8 12-11.1l11.3-11.6 13.3-1.4 4 1.1c2 .6 4.6 1.8 5.5 2.7l1.6 1.6-2 2a25 25 0 0 0-2.7 3.7l-.8 1.5 2.3-2c1.2-1 3-1.9 4-1.7 1 .2 2.3-.3 2.9-1l1.1-1.5 6 1v1.6c0 .9-4.1 5.2-9.1 9.6-5 4.4-9.8 9-10.6 10.3-.8 1.2-1.2 2.6-.8 3 .4.4 5.7-4.5 11.9-10.8s11.6-11.3 12-11.2c.5.2 1.5-.2 2.3-.9.8-.6 2-.9 2.9-.5.8.3 1.5 1.5 1.5 2.6 0 1-.4 2-1 2s-2.8 4-5.1 9a45 45 0 0 1-5 9c-.4 0-1 .8-1.4 1.8-.3 1 4-2.8 9.4-8.3l10.1-10v-5.7c0-3.1.4-5.9.8-6.2.5-.2 1.5 0 2.3.4l1.4 1v8.4c0 4.6.3 8.7.6 9 .3.4 1.4-.3 2.4-1.4 1-1 2.6-2 3.5-2 .8 0 2-1 2.6-2.2.5-1.2 1.6-2.4 2.4-2.6l1.4-.5-.7 3.4c-.4 1.9-1.4 4-2.2 4.6l-1.5 1.1.1 4.4c.2 4.3-.2 7.7-2.1 17.8-.6 3-1.3 7.7-1.6 10.3l-.5 4.8 3.3 5.5a27 27 0 0 0 3.8 5.4c.3 0 1.1.4 1.8.8l1.2.8-.9 5.6-.9 5.5-3 4.9c-1.8 2.6-3.2 6-3.2 7.6 0 1.5-.4 3-.9 3.3-.5.3-1.2 2-1.6 3.7-.4 1.7-2.4 5-4.4 7.2-2.1 2.3-4.3 5-4.8 6.1a50.4 50.4 0 0 0-1.4 20.4l.9 5.3-1 4-1 3.8 3.2 3.7c1.8 2 4 5.3 4.8 7.3.8 2 2.7 5 4.3 6.7a40 40 0 0 1 4.5 6.8c1 2 3 4.5 4.5 5.5 4 2.8 18.5 9 22.9 9.6 2 .3 6.7.1 10.4-.4l6.8-1 4.7-3c2.6-1.7 7.7-4.6 11.3-6.5 3.6-1.9 8.7-4.8 11.4-6.5 2.7-1.7 6.6-3.6 8.5-4.3 2-.6 5.9-2.1 8.6-3.4a84 84 0 0 1 20.2-5.5c1 0 4.8-1.6 8.4-3.6s8.6-4.1 11-4.9 7.8-2 11.9-2.9c4-.8 9-2.5 11-3.7 2-1.3 5.9-2.7 8.7-3.1 2.7-.5 12.2-1.2 21-1.7l16-.8 5.6-1.6c3-1 8.8-2 12.7-2.3l7.3-.7 4.3 1.1 10.6 2.3 6.3 1.2 8.2-1.1c4.5-.6 11-1.4 14.5-1.7l6.3-.6.6 1.6c.3.9.4 1.8.2 2-.2.2-3.6.7-7.4 1-3.8.3-11.4 1-16.7 1.7l-9.7 1.1-3 3.1-21.7 21.6a211.4 211.4 0 0 0-18.5 19.8v1.2h4.4c2.4 0 6.3.3 8.7.6l4.4.6 10-10c5.6-5.4 14.5-14.4 19.9-20 9-9.2 12.7-12 12.7-9.1 0 .5-3 4-6.7 7.8-22.2 22.3-29.6 30.2-29 30.8.4.4 4.4 1.3 9 2l8.2 1.1 26.5-27.2 1.2 1.2 1.2 1.2-6.4 6.8c-3.5 3.7-8.8 9-11.7 11.8-3 2.7-5.3 5.6-5.3 6.2v1.2h4.4c2.5 0 4.8.5 5.1 1 .4.6 1.4 1 2.3 1 .9 0 6.1-4.7 11.7-10.5s10.6-10.5 11.3-10.5c.7 0 1.3.8 1.3 1.8v1.7l-8.3 7.8a74.7 74.7 0 0 1-9 7.7c-.4 0-.8.8-.8 1.8v1.8l6.8 2c6.5 1.9 7.6 2.1 11.5 2.3l1.8.1v2.1a6 6 0 0 1-1.9 3.8 205 205 0 0 0-17 19.5c.2.2 1.7.7 3.4 1l3.1.7 5.1-5.8c2.9-3.2 7-8.1 9.3-11l4.2-5.3 1.4 1.1c.8.7 1.4 1.6 1.4 2s-2.5 3.3-5.6 6.2l-5.5 5.2.4 1.6.4 1.7-3.2-.3-2.2 4.5a72 72 0 0 1-8.8 12l-6.6 7.4v4.2l-2.6 2a24 24 0 0 0-5 6.8c-2.5 4.9-4.6 7.6-5.9 7.6-.3 0-.3-1 0-2.5.4-1.3.5-2.5.2-2.5a195 195 0 0 0-17.7 17.5c0 .3.7.6 1.7.6h1.8l10-11.4 2.8 1-3.6 4c-2 2.3-3.7 4.4-3.7 4.7s.9.6 2 .6h2v2.8l-5.3.6c-2.9.3-6.7.6-8.5.6h-3.3l-9 8.7a81 81 0 0 0-9 9.5c0 1.3 5.2 1 11-.7 2.9-.9 5.5-1.3 5.8-1 .3.2.3 1 0 1.8-.6 1.6-6.9 3.3-16.8 4.5l-7.5 1-1.5-.9c-.8-.4-1.1-.8-.6-.8 1.3 0-2.5-4-3.9-4-.6 0-2.2-1.2-3.5-2.5a10.8 10.8 0 0 0-3-2.5c-.3 0-4.8 4-10 9-5.1 5-9 9.3-8.8 9.6.3.3 2.1.9 4 1.3l3.6.8 4.2-2.8 4.3-2.8 13.3-2.3 5.7 2.2-.9.9c-.5.5-3.9 1-7.5 1.2l-6.6.4-10.4 6.7-5.3-.7-6.2-.7c-1.9-.1-12 2-20.5 4.2l-8.5 2.3-8-1.3-13.6-2c-3-.3-6.6-1.3-8-2a52 52 0 0 0-18.9-3.6l-7.3-.5-6.4-4.7-6 .9-4.5-3a32 32 0 0 0-7.7-3.6l-3.3-.7-2.3 1.6a99 99 0 0 0-8 7.2l-5.7 5.6-1.4 4.1c-.9 2.3-2.3 6.6-3.2 9.6-.9 3-3 7.4-4.7 9.8a18 18 0 0 1-3.8 4.3c-.3 0-1.2 1.5-1.8 3.4l-1.3 3.5-7.8 8.1c-4.3 4.5-8.5 9.3-9.5 10.8l-5.7 9.7c-2.2 3.8-5.2 8.7-6.7 10.9s-6.2 6.2-10.4 9.1L349 438l-4.9 1a131 131 0 0 1-26.4 1.5zm17.2-4.3c4.8-.3 9-.8 9.3-1l14-13.9c7.3-7.3 14.4-15.1 15.7-17.4 1.4-2.3 4-5.8 6-7.7a120.1 120.1 0 0 0 18-22.8l2.8-3.5a63.3 63.3 0 0 0 6.4-16.7c-1.2 0-17 16.3-18.4 19a99 99 0 0 1-17.5 17c-.5 0-4 3.2-8 7.2l-7 7.3-1.8 4.5c-3 7.8-6.7 14.8-9.2 17.4l-2.3 2.6h-2.5c-1.4 0-3.6-.4-4.9-1l-2.3-.8-5.3 4.8a22 22 0 0 0-5.2 6v1.2l1.8-.8c1-.4 5.7-1 10.4-1.4zm-10.9-6 4.8-5.1-6.1-2.2-2.1-4.1a66.8 66.8 0 0 0-2.4-4.5c-.2-.2-4.4 3.7-9.5 8.5l-9.2 8.9 3.4 1.4c1.8.7 5.6 2 8.3 2.6l5 1.2 1.5-.8c.9-.4 3.7-3 6.3-5.9zm-16.4-11.5 8.3-8.5-.7-3.3a14 14 0 0 0-1.8-4.6 16 16 0 0 0-4-2.8l-3-1.5-16.2 16.1 2.5 4.7 3.5 6.5c.5 1 1.4 1.9 2 1.9s4.9-3.8 9.4-8.5zm55.1 4.8c1.7-2 2.8-4 2.6-4.2-.3-.3-2.4 1.4-4.7 3.7l-4.3 4.2h1.7c1 0 3-1.7 4.7-3.7zm-20.6.2c.9-.9 1.8-2.4 2.2-3.5.3-1.1 1-2 1.4-2 1 0 3-4.6 3-6.8v-1.6l-13.3 13.7 2 .8c1 .4 2.2.8 2.6.8.3 0 1.3-.6 2.1-1.4zm.5-11.8 10.2-10.3 1-3.8c.7-2 2-4.6 3-5.6s3.8-2.5 6.2-3.2l4.3-1.3 9-9c5-5 10.1-11 11.3-13.3 1.2-2.2 3.8-6.2 5.7-8.7a22 22 0 0 0 3.6-5.8c0-1.4-3.2 1.4-14.5 12.7a7951.1 7951.1 0 0 1-53 52.5l-4 4 2.4 1c1.4.5 3 1 3.5 1a83 83 0 0 0 11.3-10.2zm19.7-33.2 34.1-33.5-1.3-2a8.7 8.7 0 0 1-1.2-3.8v-1.7l-8.8 9c-4.8 5-10 11-11.6 13.4-3.5 5.4-7.4 9-9.6 9-.9 0-11 9.5-22.6 21l-21 21 1.4 2.5 1.3 2.5 2.6-2c1.5-1 18-17 36.7-35.4zm-65.7 24.1c3.3-3.2 6-6.3 6-7s-.8-3.1-1.9-5.3l-2-4.1-3.1-1.1c-1.8-.6-4-1.1-4.9-1.1-.9 0-4 2.2-6.8 4.9a32 32 0 0 0-5.3 5.6c0 .4 2.3 3.1 5 6.2 2.8 3 5 6.1 5 7s.5 1.3 1 1.1c.5-.2 3.6-3 7-6.2zm43-15.4c9.2-9 16.2-16.2 15.5-16.2-.6 0-3.7 2.2-6.9 5l-5.7 5-6.4 1.1-18.4 17.6v2c0 1.2.3 2.8.7 3.7l.6 1.6 2-1.7 18.6-18zm-15.5 2 8.5-8.2-7.3-2-7.8 7.7a80 80 0 0 0-7.8 8.3c0 .8 4.2 2.9 5.2 2.6.3 0 4.5-3.8 9.2-8.4zm-3.6-10c.7-.6 1.2-1.6 1.2-2.2v-1H313l-5.1 5c-2.8 2.9-5.1 5.7-5.1 6.3s.7 2.2 1.6 3.5l1.6 2.3 6.7-6.3 7.9-7.5zm-39.6 8a23 23 0 0 0 4.8-5.7c0-.6-2-2.1-4.5-3.4a16 16 0 0 1-5-3.7 2.3 2.3 0 0 0-2-1.4c-.7 0-4 2.5-7 5.7l-5.7 5.8 3.3 2.7A21 21 0 0 0 275 392c.5 0 3.1-2 5.8-4.7zm24.7-8.6c2.4-2.4 4-4.6 3.4-5-.4-.2-2.4-.8-4.3-1.1l-3.5-.7-3.8 3.8a18 18 0 0 0-3.7 4.5c0 .5.8.9 2 .9 1 0 2.1.4 2.5 1 .3.5 1.2 1 1.8 1s3.2-2 5.6-4.4zm-39.7-3.5c2.6-2.5 4.7-5 4.7-5.7 0-.7-1.5-1.8-3.5-2.4a17 17 0 0 1-5.9-4.1c-1.4-1.6-3-3-3.5-3-1.3 0-11.1 9.5-11.1 10.8 0 .6 2.2 2.5 4.9 4.2a34 34 0 0 1 6.1 4.6c.7.8 1.7 1.1 2.4.8l5.9-5.2zm28.6-1.2c2.3-2.2 4.2-4.4 4.2-4.8 0-.4-1-1.4-2.4-2l-2.4-1.3-4 4.3a19.5 19.5 0 0 0-4.2 5.5c0 1.2 1.4 2.1 3.5 2.3.6 0 3-1.8 5.3-4zm60.8-14.8 18.6-18.4v-1.9c0-1-.5-1.8-1-1.8-.6 0-1 .4-1 1s-8.3 9.3-18.3 19.5a408 408 0 0 0-18.7 19.6c-.2.6.1 1 .7.7s9.5-8.6 19.7-18.7zm-15.4 9.1 21.4-22a81.2 81.2 0 0 0 12.2-14c-.4-.3-11 9.6-23.5 22l-22.7 22.8h4zm8 4.3c2.6-2.5 5.5-4.5 6.2-4.5a37 37 0 0 0 8.5-7.8c8.5-9.3 12-13.7 10.6-13.1-.6.2-7.5 6.4-15.3 13.9a272.8 272.8 0 0 1-15.2 13.8c-1 .4-1.3 2.2-.3 2.2.4 0 2.8-2 5.5-4.5zm1.2-21.4c13-13 23.7-24.2 23.7-24.8s-.3-1.3-.7-1.7c-.8-1-49.4 48.5-48.7 49.6.2.4.8.8 1.2.8s11.4-10.8 24.5-23.9zm-244.5 16.2a38 38 0 0 1 13.2-6.4c2.2-.7 5.8-2 8-3s6-2.3 8.3-3 5.8-2.4 7.5-3.7c1.8-1.3 6.6-4 10.6-5.8l7.4-3.5 7-6.7c13.8-13.2 16.8-16.4 16.8-17.2v-.8l-3.7.9c-8.3 1.8-21.4 3.8-24.5 3.8-1.9 0-4.5.8-5.9 1.7a145 145 0 0 0-11 9.9 1001.4 1001.4 0 0 1-38.5 35.8l-5 4.9 3.4-2.3c2-1.3 4.8-3.3 6.4-4.6zm225-4 26-26.5c8.5-8.6 15.3-16 15.1-16.7-.4-1.1-54 51.3-54 52.8 0 2.7 3.5.2 13-9.7zm-42.7 5a26 26 0 0 0 4.8-5.6c0-1.1-2.6-3.7-3.7-3.7-.5 0-3.1 2.2-5.8 5l-5 4.9 2 2c1 1.1 2 2 2.3 2 .3 0 2.7-2 5.4-4.7zm27.3 1.7c.4-.6.4-1 .1-1s-.7.4-1 1-.5 1-.2 1 .8-.5 1.1-1zm3.6-8.3a898 898 0 0 0 21-21.6 3173 3173 0 0 1 20.8-22c4.5-4.8 8.2-9 8.2-9.4 0-.4-.5-.8-1.1-.8a517 517 0 0 0-30.6 29.3c-16.2 16-29.9 29.4-30.4 29.6-.6.2-1 1-1 1.7v1.5h4.7zm-68 .1 6.2-6.1-4.2-3.9-4.1-3.8H243l-6.3 6.2a35 35 0 0 0-6.3 7.3c0 .6 2.9 2.3 6.3 3.7l6.5 2.6c.1.1 3-2.6 6.4-6zm69 3.4c0-.9-.2-1.4-.3-1.2a90 90 0 0 1-1.7 2.2l-1.4 1.8 1.7-.6c.9-.4 1.6-1.4 1.6-2.2zm15-30a627.7 627.7 0 0 0 32-33c0-.7-.3-1.2-.7-1.2-.4 0-9.4 8.4-20 18.7-27.9 27.2-46.5 47.3-44 47.3.3 0 15-14.3 32.6-31.8zm-54.4 26.5 4.3-4.3v-2.1c0-1.2-.6-2.6-1.4-3.2l-1.3-1-11.7 11.7 1.3 1.6c.7.9 2 1.6 3 1.6.9 0 3.5-2 5.8-4.3zm84 1.5c-.7-.7-2.6.7-2.6 2v1l1.6-1.3c.8-.7 1.3-1.4 1-1.7zm-47.9-16.8c4.6-4.7 8-9 7.7-9.3a88 88 0 0 0-13 12.2l-12.5 12.8.6 1 .7 1 4-4.4 12.5-13.3zm5 15.9c-.5-.4-.8 0-.8.7s.3 1 .7.6c.4-.3.4-1 0-1.3zm52.8-9.5c-.3-.4-2.3 1.2-4.5 3.6s-4 4.7-4 5.1 2-1.1 4.5-3.5 4.3-4.7 4-5.2zm-100.7 1.4 7-6.7-4.5-5.5-1 .7-6.9 7-6 6.2 1.2 2.5c.7 1.4 1.6 2.6 2.2 2.6.5 0 4.2-3 8-6.8zm-39.3-1.5c3.4-3.4 6.3-6.7 6.3-7.4 0-.6-2-2-4.3-3.1s-5.1-3-6.2-4.1c-1-1.2-2.3-2.1-2.7-2.1-.5 0-4 3-8 6.6l-7 6.7 1 .9c.9.9 13.3 8.5 14.1 8.7a56 56 0 0 0 6.8-6.2zm66.8 2.3c1-1.1 1.7-2.3 1.3-2.6-.6-.7-6.7 4.5-6.7 5.8v.8l1.8-1a12 12 0 0 0 3.6-3zm48-18.4a366 366 0 0 0 21.8-22.5c0-.6-.4-1.2-.9-1.2a493 493 0 0 0-30.8 31l-9.2 9.8c-3 3-3.8 4.3-3 4.3.2 0 10.2-9.7 22.1-21.4zm-47.4 11.7c3.5-3.8 10.7-11.2 16-16.6 5.1-5.3 9.1-10 8.8-10.4-.8-.8-34.8 33-34.8 34.6v1.1l1.7-1c1-.4 4.7-4 8.3-7.7zm115.7-9.6c7-7 12.7-13 12.5-13.1-.2-.2-2-.9-3.8-1.5-7.4-2.5-16.3-.7-21 4.2a26 26 0 0 0-4.6 6.7l-1.5 3.6 1.5 2.8a14 14 0 0 1 1.4 5.6c0 1.6-.5 4-1 5.6l-1 2.8 2.2-2c1.3-1 8.1-7.7 15.3-14.7zm-146 .6a2.9 2.9 0 0 0-2.1-1.3 45 45 0 0 0-11.7 11.5c0 .6.5 1.6 1.1 2.2l1.2 1.1 12.7-12.2zm48.3-16.9c16.3-16.2 29-29.5 28.3-29.5-1.4 0-59.3 56.8-59.3 58.2 0 .5.3.9.7.9s14-13.3 30.3-29.5zm-11.3 24.8 31.2-31.5c15.2-15.2 27.3-28 27-28.4a55 55 0 0 0-11.1 9.4 2248.3 2248.3 0 0 0-50.2 51.2l-3 3h1.3c.7 0 2.9-1.6 4.8-3.7zm118.3-48c-.6-.7-1.6-1.2-2.3-1a370 370 0 0 0-24 22.5L377 343v7.4l50-49.8zm95 38 12.6-12.6-1.3-.9-1.3-.9L516 324l-1.2 1.3-11.5 12-10.4 10.6 5.4 1c3 .5 6.4 1 7.6 1l2.3.2zM525 348c3.5-1 7.4-2 8.7-2h2.2l11.2-10.5c6.1-5.9 11.2-11 11.2-11.3 0-1-17-1.2-19-.2-1.7 1-7.6 7-20 20.3l-5.4 5.8h2.4c1.3 0 5.2-1 8.7-2zm-220.3-17.7c19-19.1 56.7-55.5 58.3-56 1.2-.6 1-3.3-.3-3.3-.6 0-2.6 1.5-4.4 3.3l-38.5 38.2a1158.1 1158.1 0 0 0-35.1 35.8c0 .4.3.8.7.8.4 0 9.1-8.5 19.3-18.8zm-89 10c3.8-3.7 6.8-7.2 6.8-7.9 0-.7-1.3-2.2-3-3.3l-3-2.1-9.9-1.2-6 5.8c-3.4 3.2-6.1 6.1-6.1 6.5s.8 1.1 2 1.4 3.8 2.2 6 4.1c2.3 2 4.7 3.5 5.3 3.5.6 0 4.2-3 8-6.8zm283.9-3.9a92 92 0 0 0 10.6-11.6v-1l-1.8.8c-1 .4-5.8 1-10.8 1.2l-9 .4-7.8 7.7c-4.2 4.2-7.7 8-7.7 8.4s1 .8 2.2.8c1.3 0 4.5.9 7.3 1.9l5.7 2c.4 0 5.4-4.7 11.3-10.6zm-240 4 5.7-5.5-1-2.4c-.7-1.4-1.7-2.4-2.3-2.2s-4.2 3.1-8 6.6l-6.8 6.4 1.9 1.4a8 8 0 0 0 3.4 1.4c.8 0 4-2.6 7.2-5.6zm-185 2.2.5-1.4-1.5.5c-1.5.6-2 2.4-.5 2.4.5 0 1.1-.7 1.4-1.5zm248.1-38 39.2-39-2.2-2-28.2 28.7c-31.7 32.2-48.2 49.5-48.7 51.1-.2.7-.1 1 .2.7l39.7-39.5zm142.5 37.5 3.7-.8 6.6-6.8 6.6-7c0-.1-2.9-.3-6.4-.3-3.6 0-7.7-.7-9.1-1.3l-2.6-1.2-13 12.9 2.8 1.1c1.6.7 3.5 2 4.2 2.8.7.8 1.8 1.5 2.4 1.5.6 0 2.8-.4 4.8-.9zm-213.4-7.8 7.7-7.7-1.3-1.8c-.7-1-1.8-1.7-2.4-1.7s-4.7 3.4-9.2 7.7l-8.3 7.7 2.3 1.8c1.2 1 2.5 1.8 2.9 1.8.3 0 4-3.5 8.3-7.8zm36.9-1.5c4.1-4.5 18.9-19.7 32.8-33.8 36-36.3 37.5-37.9 37.2-39-.2-.5-18.3 16.7-40.2 38.3l-39.9 39.3v1.7c0 1 .6 1.8 1.3 1.7.7 0 4.6-3.7 8.8-8.2zm-109.5 5.5 11.3-1.7 12.2-12.4-3-1.5a19 19 0 0 1-4.2-3c-.7-1-2.6-1.6-4.1-1.6h-2.8l-1.4 2c-.8 1-5.8 6-11.1 11s-9.4 9-9 9l12.1-1.8zM453 331c4-4 7-7.3 6.9-7.4-.1-.2-5.9.2-12.8.7l-12.5 1-3.5 3.4-3.5 3.5h2.9c4.3 0 10.3 2 12.2 4.1 1 1 2 1.9 2.4 1.9.4 0 3.9-3.3 7.9-7.2zm-209-1.6c4.3-4 7.7-7.9 7.7-8.6v-1.4l-7.3-1.4-7.2 6.8c-4 3.8-7.4 7.4-7.4 8-.2 1.4 3.9 4.4 5.5 4 .6 0 4.6-3.4 8.8-7.4zm95.7-7.7c8.1-8 16-15.4 17.4-16.5 3.5-2.7 9.3-10 8-10-.8 0-18.6 17.4-41.2 40.5-.2.3 0 .5.4.5s7.4-6.5 15.4-14.5zm60.7-6 20.9-20.2-.7-4.4a32 32 0 0 0-1.1-4.8c-.2-.2-9.8 9-21.4 20.7L377 328v8.2h1.2c.7-.1 10.7-9.3 22.2-20.4zm-308 15.5 8.3-3 3.9-3.8 9.5-9c3-3 5.4-5.5 5.1-5.7-.2-.3-3-.2-6.3.2l-6 .6-11 10.5c-10.2 9.7-13.4 13.2-12.2 13.2l8.7-3zm188.5-4.2c3.8-3.9 6.8-7.4 6.7-7.7-.2-.4-4 2.8-8.3 7s-7.4 7.8-6.7 7.8c.8 0 4.5-3.1 8.3-7zm30-36.3c22-22 40-40.4 40-40.8 0-.4-.4-.8-1-.8a2767 2767 0 0 0-81 81.2c-.3.6 0 1 .7.7.6-.2 19.2-18.3 41.2-40.3zm273.6 33.7 9.8-9 2.5-2.3-15.5.3-1.1-1.1a4 4 0 0 0-2.4-1.1 54 54 0 0 0-12.4 11.7c0 .2.5 1 1.2 1.6 1.7 1.7 9.1 6.7 10 6.7.3 0 3.9-3 7.9-6.8zM111.9 328c1.7-1.2 7.2-6.2 12-11l9-9-8.6 1.2-10 9.7c-5.4 5.4-10 10-10 10.5 0 1.5 4.5.7 7.6-1.4zm122.5-5.3 7.4-7.4-2-1c-1.1-.7-2.6-1.1-3.3-1.1s-4.1 2.9-7.7 6.5l-6.4 6.5 1.8 2c1 1 2 2 2.2 2 .3 0 3.9-3.4 8-7.5zm73.1-35.6c22-22 40-40.5 40.2-41 .2-.5 0-1-.4-1-.5 0-19.2 18.3-41.7 40.7a887.7 887.7 0 0 0-40.3 41.5c.3.5 1 .6 1.4.3.5-.3 18.9-18.5 40.8-40.5zm-181.2 38 3.3-.8 8.8-8.5c4.8-4.8 8.5-8.8 8.2-9.1s-1.9-.5-3.6-.5h-3.2l-4 4a204 204 0 0 1-10.6 10c-3.6 3.2-6.4 6-6 6.4s1.3.3 2.1 0c.9-.4 3.1-1 5-1.5zm100-7.1c3.5-3.4 6-6.5 5.6-6.9-.4-.4-2.3-1-4.3-1.2l-3.5-.5-6.4 5.9a32 32 0 0 0-6 6.2c.5.5 6.2 2.5 7.3 2.6a40 40 0 0 0 7.2-6.1zM399 301.7c12.4-12.4 23.3-24 24.2-25.8a76 76 0 0 1 5.6-8.3l3.9-5 7.4-2.4 11-11.1c6-6.2 11-11.3 11-11.6 0-.2-1-.3-2.2-.3a20 20 0 0 0-6.5 2.2l-4.2 2.2-75.2 74.6v1.7c0 2.6 1.1 6.3 1.9 6.3.4 0 10.8-10.2 23.1-22.5zm86.3 12.9a150 150 0 0 0 9.7-10.4c.2-.4-2.6-.2-6.2.5l-6.5 1.4-15 15.6 2.7 1.2a15 15 0 0 0 4.3 1.2c.9 0 5.8-4.2 11-9.5zm11.1-.7 9.8-10.3-4-1.7-1.5 1.2-10.6 11.2-9.1 9.9h5.7zm-345.2 2.8a61.7 61.7 0 0 0 13-12.2c-.3-.3-3.1.2-6.3 1L152 307l-6.5 6.3-7.8 7.4c-.8.7-1.4 1.4-1.4 1.7s2.4-.1 5.3-1c2.9-.8 7.2-3 9.5-4.8zM295.7 291a827.8 827.8 0 0 0 32-32.4c-.3-.3-1.9.7-3.5 2-3.4 3-62.6 61.6-62.6 62.1 0 .2.4.4.9.4s15.4-14.5 33.2-32zm214 23.3c4.7-4.8 8.5-9 8.5-9.4 0-.3-1.7-.9-3.8-1.2l-3.7-.6-20 20h10.6zm-67.7-.7 8.5-8.6h-7.7l-16 15.5 1.9.7c1 .4 2.5.7 3.3.8.8 0 5.3-3.8 10-8.4zm6 7 4.5-.6 5.8-5.7c3.2-3.1 5.8-6.2 5.8-6.8v-1.1l-10.5-.4-7.3 7.2c-4 4-7.3 7.7-7.3 8.1 0 .4 1 .6 2.3.3l6.7-1zm74.5-7.2c3.4-3.6 6.3-7 6.5-7.4.2-.5-.8-1.2-2.1-1.5l-2.5-.6-7.9 8.2c-4.3 4.5-8 8.5-8.1 9-.2.4 1.5.3 3.8-.2l4-.9zM285.6 295a532 532 0 0 0 26-26.5c-.3-.2-12.3 11.1-26.8 25.2-22.5 22-27.6 27.4-25.9 27.4.2 0 12.2-11.8 26.7-26zm12 19.6c3.6-3.6 6.1-6.5 5.6-6.5-.6 0-4 2.9-7.5 6.5-3.5 3.5-6 6.5-5.4 6.5.5 0 3.8-3 7.4-6.5zm171.8 0a36 36 0 0 0 6.7-7.5c0-.6-1.2-1-2.7-1h-2.8l-6.8 6.7c-3.7 3.7-6.8 7-6.8 7.5s1.3.8 3 .8h2.8l6.6-6.5zm74.5 0c5.9-6 7.6-8.6 5.5-8.6a76.1 76.1 0 0 0-14.2 14c0 2.3 2.6.8 8.7-5.4zm14.7-.6 5.7-5.4-1.8-.7c-1-.4-2.9-.7-4.2-.8h-2.5l-6.3 6a38.3 38.3 0 0 0-6.3 6.7v.9l9.8-1.3 5.6-5.4zm8.4 2.4c3-2.5 5.3-5 5.3-5.5s-1-.8-2-.8H568l-10.7 9.4 1.2.8a5 5 0 0 0 2.2.7c.5 0 3.3-2 6.2-4.6zm-353.2-2.2c3.2-3.1 5.5-6 5-6.5s-1.5-.6-2.6-.6h-2l-5.8 5.6c-3.3 3.2-6 6.1-6 6.5s1.3.9 2.9.9h2.8l5.7-5.9zm113.6 4.2c-.3-.4-.6 0-.6.7s.3 1 .6.6c.4-.3.4-1 0-1.3zm104-6.2 7.7-7.8-9.1-2-16 16.2 3.2.6 4.8.7c.8 0 5-3.4 9.3-7.7zm99 6.6c3-1.4 13.8-11.4 13.8-12.8 0-.5-2-1-4.4-1h-4.5l-7 7.2c-4 3.9-7.1 7.2-7.1 7.5 0 .8 6.7.2 9.2-1zM157 316.4c-.3-.4-.6 0-.6.7s.3 1 .6.6c.4-.3.4-1 0-1.3zm117.6-16.7c18.5-18.4 27.8-27.4 51-50 6.7-6.5 12.2-12 12.2-12.3s-.5-.4-1.2-.4-3.2 1.9-5.7 4.2a3503 3503 0 0 0-64.3 63.5c-6.6 6.7-12 12.4-12 12.7s.3.7.7.7c.4 0 9-8.3 19.3-18.4zm61.2 12.2c0-.5-.4-.8-.8-.8-1 0-6.2 5.3-6.2 6.3 0 .4 1.5-.4 3.5-2 1.9-1.4 3.5-3 3.5-3.5zm-163.5-1c3.1-2.8 5.8-5.5 6-6 .1-.5-1.7-.8-4-.8h-4.4L158.3 315l1.8 1a6 6 0 0 0 4.2.6c1.4-.3 5-2.9 8-5.6zm34-.6 3.6-3.3h-9.3l-3 3.1a14 14 0 0 0-3.1 3.9c0 .4 1 1.2 2.2 1.8l2.3 1 2-1.6 5.4-4.9zm85.8-34.8 40.6-40.6-3.1-1.1-13.7 13.5-28.6 27.9a715.4 715.4 0 0 0-19.4 19.4c-.7.7-1.3 1.8-1.3 2.4 0 .6-.8 1.4-1.7 1.7-1 .4-5.4 4.2-9.9 8.5l-8.1 7.8 1 .4c.7.3 1.7.5 2.4.6.7 0 19.5-18.2 41.8-40.5zM192 310.9l3-3-1.5-.8c-.7-.5-3.4-1.2-5.8-1.5l-4.4-.7-4.8 4.3a26.5 26.5 0 0 0-5 5.2v.9l15.4-1.4zm59.5-5c3.5-3.2 6-6.2 5.7-6.6-.3-.3-3.6 2.4-7.3 6.1-3.7 3.7-6.3 6.6-5.8 6.6s3.8-2.7 7.4-6zm43.9 4.5c-.4-.4-.7 0-.7.7s.3 1 .7.6c.3-.3.3-1 0-1.3zm113.4-33.6C426 260 440 246 440 245.8c0-.7-10.4.4-11.8 1.2a3110 3110 0 0 0-58.4 57.6l1.6 4 1.6 3.8 2.3-2.4a5258 5258 0 0 1 33.5-33.2zm191.8 24.9c5.4-5.2 9.8-9.9 9.8-10.5 0-.6-.8-1.2-1.8-1.2h-1.8l-9.7 9.8a49.6 49.6 0 0 0-9.1 10.6c.4.3 1.2.6 1.8.6a77 77 0 0 0 10.8-9.3zm-523-.3c3.8-4 7.6-7.4 8.3-7.4.7 0 1.3.4 1.3.9 0 .4-2.5 3.6-5.6 7-3 3.4-5 6.1-4.5 6.1.6 0 4.5-3.2 8.7-7.2l7.7-7.2-3.4-.8a17 17 0 0 0-5.9-.2l-2.5.6-7.8 7.6c-4.2 4.3-7.7 8-7.7 8.4 0 .4 1 .4 2.1.1 1.2-.3 5.3-3.9 9.2-7.9zm169.8 3c3.4-3.1 6.2-6 6.2-6.5 0-2-2.3-.5-8 5.2a87 87 0 0 0-6 6.5c0 1.4 2.3-.2 7.8-5.2zm50 4c-.4-.4-.7 0-.7.6 0 .8.3 1 .7.7.3-.4.3-1 0-1.3zm295.8-8c5-5.4 9-10 9-10.4-.2-.3-1.7-.2-3.3.3l-3 1-15.8 16.6.7 1c.3.7 1.2 1.2 2 1.2.7 0 5.4-4.4 10.4-9.8zm12.6 3.4c3.5-3.4 7.6-7.4 9.2-8.7l2.9-2.5-3.7-.7-8.8 8.3a98.3 98.3 0 0 0-9 9.1c0 .4.7.7 1.5.7.9 0 4.5-2.8 8-6.2zM74 297.2c1.9-1.7 3.2-3.7 3-4.3l-.4-1.2-7 7.2c-3.8 4-7.1 7.8-7.3 8.5-.2.6 1.6-.7 4-3l7.7-7.2zm17.2 4.4c1.4-2 3.1-3.5 3.8-3.5.7 0 1.2-.6 1.2-1.2v-1.1l1.4 1.1 1.3 1.1 2.8-3 2.8-2.8-6.1.1-15.7 16 3-1.6c1.7-.9 4.2-3.2 5.5-5zm7-6.6c0-.7.3-1 .7-.6.4.3.4 1 0 1.3-.4.4-.7 0-.7-.7zm6.6 5.1c3.6-3.5 6.5-6.8 6.5-7.2 0-2.2-3.1-.2-9.8 6.4-4 4-7.3 7.5-7.3 8s1 .3 2 0c1.2-.5 5-3.7 8.6-7.2zm7 .4 8-7.5H115l-6.4 6.6c-6 6.1-7.6 8.5-5.7 8.4a77 77 0 0 0 8.8-7.5zm129.6 2.3c2.9-2.9 4.8-5.4 4.2-5.6-1.2-.4-12 8.6-12 10 0 2.1 3 .4 7.8-4.4zm58 3.6c-.4-.4-.7 0-.7.6 0 .8.3 1 .7.7.3-.4.3-1 0-1.3zm42-1c-.7-.8-2.6.6-2.6 1.8v1l1.5-1.2c.8-.7 1.3-1.4 1-1.7zm242.6-5.6c4.6-4.5 8.3-8.6 8.3-9s-1-.8-2.2-.8h-2.3l-8.3 8.4c-4.5 4.5-8 8.6-7.6 9 .4.3 1.4.6 2.2.6s5.3-3.7 9.9-8.2zm-464.3 1.4 5.8-6-.4-1.3-.5-1.4-14.8 14.5h4l5.9-5.8zm115.9-.2c3.2-3.4 6-6.8 6.4-7.5.6-1.7 4.6-2 4.6-.4v1.1l6-1.3 1.3 1c.6.5 2.9 1 5 1h3.7l15.3-15.2a1823.8 1823.8 0 0 1 34.8-34.2l3.5-3.8-3.2 2.2a465 465 0 0 0-23.5 22.2c-11.1 11-20.6 20-21 20s-.9-.6-.9-1.2c0-1.2 16.2-17.4 39-38.8a160 160 0 0 0 14.1-14.3c0-.5-.4-.8-.9-.6a735 735 0 0 0-24.5 23.3 753 753 0 0 1-25 23.8l-1.5.8-.7-1.1-.7-1.1 23.7-23c13-12.8 23.5-23.3 23.2-23.6-.7-.8-11.3 8.7-29.4 26.2-9 8.8-16.9 16.2-17.5 16.4l-1 .4.5-11.1.6-11.1 2-2.8 2-2.8-2.7-4.9-3.7 3.7a17 17 0 0 1-4.6 3.7c-.5 0-.9-.9-.9-2s-.7-2.3-1.4-2.6l-1.5-.5.6-1.6c.4-1 2.2-3 4.2-4.7 7.4-6.5 13.2-12.7 12.6-13.6l-.6-1-1.3.8c-.8.4-5.5 4.5-10.5 9l-9.1 8.4v3.6l-2.1.6c-2.5.6-5-.2-5-1.5 0-.6 1.5-2.2 3.3-3.7 5.6-4.5 16.8-15.5 16.8-16.3 0-.5-.4-.9-1-.9a91 91 0 0 0-11.3 10l-10.3 9.9-3 .7c-1.6.4-3.9 1.7-5 3l-2.1 2.2v7c.1 3.9.5 7.4.8 7.8.4.4.5 1.9.3 3.3-.3 1.5-.7 7-.9 12.1s-.7 11.2-1.1 13.3l-.7 3.7h2.1c1.2 0 2.1.5 2.1 1.1 0 .6-1.8 3-4 5.2s-4 4.4-4 5c0 2 2.6.3 8-5.3zm3.1-23.6-1.3-.6 3.5-3.8v-7.7c.1-4.3 0-8.4-.4-9.3l-.4-1.5 15-.5 3.8 2.8-.6 1.7-.7 1.7-2.2-1.6c-1.3-.9-4-1.6-6-1.6h-3.8v3.4c0 1.8.3 3.6.6 4 .4.3 1.2.2 1.8-.3s2.2-1 3.6-1.2l2.5-.4.6 6.5h-1.6c-.8 0-1.5-.4-1.5-1s-1.4-1-3-1h-3.2l.4 3.8.3 3.7h4.5c2.5-.1 5.5-.5 6.7-1l2.3-.7v1.4c0 .8-.5 2-1.2 2.6l-1.2 1.2h-8.6a61 61 0 0 1-9.9-.6zM124 302.9l5.1-5.6c1.3-1.4 2-2.7 1.7-3-.3-.4-3.2 2.1-6.4 5.5-3.1 3.4-5.2 6.2-4.5 6.2s2.5-1.4 4-3.1zm179.7-.1v-1l-1.5 1.2c-.8.7-1.5 1.7-1.5 2.3v1l1.5-1.3c.8-.6 1.5-1.6 1.5-2.2zm272-4.7 8-8-3.6-1.3-7.4 7.3c-7.1 7-9 10-6.2 10a50 50 0 0 0 9.3-8zm-437.9 1 6-6H142a53.3 53.3 0 0 0-12.8 11.5c0 .2.6.4 1.3.4.7 0 4-2.7 7.2-6zm76.8-10.7 15-14.8v-1.8c0-1-.4-1.8-.8-1.8s-8 7.5-17 16.7-16 17-15.8 17.5l.6.9 1.6-1c.8-.4 8.2-7.5 16.4-15.7zm-87.6 15a1 1 0 0 0-1.4 0c-.3.3 0 .6.7.6s1-.3.7-.6zm17.8-5.8c3.9-3.5 6.8-6.7 6.5-7a35 35 0 0 0-8 6.5c-4.1 3.8-7 7-6.5 6.9a46 46 0 0 0 8-6.4zm14.6-1.6 8.5-8h-4l-7.3 7.3c-6.8 6.7-8.3 8.8-6.5 8.7.4 0 4.6-3.6 9.3-8zm58.6-2c5.8-5.6 10.4-10.6 10.4-11 0-2.3-3.3 0-13 9.4-5.8 5.6-10.7 10.6-10.9 11s.5.7 1.4.7c1 0 6.4-4.5 12.1-10.1zm-1.6 6.5 3.5-3.7-2.4 1.5c-1.4.8-3.1 2.5-4 3.7-.7 1.2-1.2 2.1-1 2.1.3 0 2-1.6 4-3.6zm8-.4c1.8-2.2 3-4.3 2.8-4.5-.6-.6-8.8 6.8-8.8 7.9 0 .3.6.6 1.4.6.8 0 2.9-1.8 4.7-4zm251.2-3.1c7-6.8 9-9.9 6.2-9.9a99 99 0 0 0-16.8 16.3c0 .4.7.7 1.6.7.8 0 5-3.2 9-7.1zm86.6-1.4c4.6-4.6 7.8-8.5 7-8.5-.7 0-3 1.6-5 3.4-2 1.9-4.2 3.6-4.6 3.8a31 31 0 0 0-4.8 5.1l-3.8 4.7h1.3a49 49 0 0 0 9.9-8.5zm6.8 1 7.3-7.5h-3.8l-6.7 7.5c-3.7 4.2-6.2 7.5-5.4 7.5s4.6-3.3 8.6-7.5zm-417.8 1c3-3 5.2-5.6 5-6-.7-.6-12 9.6-12 10.8 0 1.7 1.9.5 7-4.7zm43.5 2.7c2-1.6 6.4-6 9.8-9.8 3.4-3.8 10.5-11.1 15.6-16.3 16.4-16.5 8.2-11-12.7 8.6l-20 18.7 1.2.8a4 4 0 0 0 1.9.8c.3 0 2.2-1.2 4.2-2.8zm123-5.6c2.4-2.8 3.5-4.4 2.5-3.5a85.2 85.2 0 0 0-10.6 10.4l-1.5 2 2.5-2c1.4-1 4.5-4.2 7-7zm150 2.2c6-6 7.6-8.8 5-8.8-.7 0-4.6 3.4-8.8 7.5l-7.4 7.5h4.9zm16-.5c4-3.7 7.3-7.3 7.3-8v-1.2l-1.7.7c-1 .3-4.7 3.7-8.5 7.5s-6.8 7-6.8 7.3c0 .3.5.4 1.2.4s4.6-3 8.6-6.7zm-1 5.2c.8-.8 1.3-1.8 1-2-.2-.3-1.2.4-2.2 1.5-2.1 2.4-1.1 2.8 1.2.5zm70.2-4.3a59.6 59.6 0 0 0 10.3-11.5c0-1.1-3.9-.7-4.6.4l-.7 1.1-1-1a4 4 0 0 0-2.5-1.2c-1.6 0-1.5 0-10.1 9.8L538 302h3.5l14.7-15.5v1.7c0 .9-2.4 4-5.5 6.7-3 2.7-5.5 5.7-5.5 6.6s.5 1.5 1 1.5 3.6-2.6 6.8-5.8zm-389.6 1.3c1.8-1.9 3-3.4 2.4-3.4s-2.7 1.6-4.8 3.5l-4 3.4h1.5c.8 0 3-1.5 4.9-3.5zm28.4-5.4 8.8-9-.7-1-.7-1.2-.6.8-9.6 10.1c-5 5-8.3 9.2-7.5 9.2.8 0 5.4-4 10.3-8.9zm115.9 5.8c0-.6-.7-.3-1.5.5s-1.5 1.8-1.5 2.2c0 .4.7.1 1.5-.6.8-.6 1.5-1.6 1.5-2.1zm39.4 1.7.6-1.4-1.5.5c-.8.3-1.4 1-1.4 1.5 0 1.4 1.7 1 2.3-.6zm107.4-4.6c3.3-3.3 5.4-6 4.6-6s-4 2.7-7.4 6l-6.2 6h1.5a26 26 0 0 0 7.5-6zm1 4.5.5-1.6-1.2.4c-1.5.5-2.3 2.7-1 2.7.6 0 1.3-.7 1.6-1.5zm35.5.5c.8 0 5-3.9 10.4-9.7l2.9-3-3.4-1.3-6.9 6.7c-6.7 6.5-8.5 9.2-5.3 8 .8-.4 2-.7 2.3-.7zm46.6-6.6 7.7-7.6-2-2-8 7.8c-7.1 7-8.7 9.4-6.2 9.4.4 0 4.3-3.4 8.5-7.6zm-362.7-.3c4-3.9 7-7.2 6.8-7.5-.3-.3-1.5 0-2.7.6a72.8 72.8 0 0 0-13.6 13c0 2.2 3 .2 9.5-6.1zm9.6-.7c4.4-4.2 8-8 8-8.5 0-2.2-3-.2-10.2 6.8-4.3 4.2-7.9 8-7.9 8.5 0 2.2 2.9.2 10.1-6.8zm262.6 3.4c4.8-4.2 6.2-6.8 3.6-6.8-.7 0-3.7 2.5-6.7 5.5l-5.4 5.5h1.7c1 0 4-1.9 6.8-4.2zm58.4-2.5c3-2.9 5.8-5.7 6.2-6.3l.6-1h-3.8l-6.1 6.2c-3.4 3.4-6 6.6-5.7 7 .3.5 1.2.5 1.9.1s3.8-3.1 6.9-6zm24.7-.5c3.4-3.8 6-7.1 5.6-7.5a28 28 0 0 0-7.6 6.3c-3.9 3.8-7 7.3-7 7.7 0 2 3-.2 9-6.5zm-131.4-23a608 608 0 0 0 24-25l.4-1-1.7.6c-1 .3-3.5.6-5.6.6h-4l-6.2 6.7-21.6 22-15.3 15.3v10.4l3.1-3c1.8-1.5 13.8-13.6 26.9-26.6zm43.7 23.2 6-6h-4.8l-5.3 5.2c-5 5-5.9 6.8-3 6.8a33 33 0 0 0 7.1-6zm65.2 4.6c2.3-1.7 3.9-2 3-.6-.4.6-.2 1 .5 1h1l-.5-1.7-.5-1.8 3-3.3c2.9-3.2 3.7-5.1 2.2-5.2a97.6 97.6 0 0 0-12.3 12.7c0 .8 1.8.2 3.6-1.1zm16.8-5.3 6.8-6.8-1.7-.3-1.7-.4-14.2 14.2h4zm-36.4 2.2c0-.4-.7-.1-1.5.5-.8.7-1.5 1.7-1.5 2.2s.7.3 1.5-.5 1.5-1.8 1.5-2.2zm-178.7.9c-.4-.4-.7 0-.7.6 0 .8.3 1 .7.7.3-.4.3-1 0-1.3zm126.6-4.2a49 49 0 0 0 6-6.5c0-.4-.4-.7-.9-.7a56.7 56.7 0 0 0-12.1 12c0 .6.2 1 .5 1s3.2-2.6 6.5-5.8zm-301 3.2c-.4-.4-1-.4-1.3 0s-.1.6.6.6c.8 0 1-.3.7-.6zm89-2c2.8-2.7 2.7-4.6 0-2.3-1.7 1.4-3.9 5-3 5a14 14 0 0 0 3-2.7zm134.5-3.6c3.5-3.4 6.3-6.6 6.3-7 0-1.2-12 9.3-13.1 11.5-.5 1-.6 1.7-.2 1.7.4 0 3.6-2.8 7-6.2zm105 2.2c2.2-2.2 3.5-4 3-4-1 0-8.5 6.8-8.5 7.6 0 .3.4.4.8.4a20 20 0 0 0 4.8-4zM70 294.4a1 1 0 0 0-1.4 0c-.3.3 0 .6.7.6s1-.3.7-.6zm364.9-6.2c1.3-1.2 2.1-2.6 1.8-2.9-.3-.3-2.7 1.5-5.1 4-2.5 2.5-4.5 5-4.5 5.4 0 .7 2.5-1.4 7.8-6.5zm-121.4 4.2c-.4-.4-.7 0-.7.6 0 .8.3 1 .7.7.4-.4.4-1 0-1.3zm204.4-1c-.3-.4-.6 0-.6.6 0 .8.3 1 .6.7.4-.4.4-1 0-1.3zm-200-2.6v-1l-1.6 1.2c-.8.7-1.5 1.7-1.5 2.3v1l1.5-1.3c.9-.6 1.5-1.6 1.5-2.2zm39.6-4.3c8.5-8 8.8-10.5.4-2.7-4.7 4.3-9.8 10.2-8.7 10.2.2 0 4-3.3 8.3-7.5zm91.8-17 4-4-1.2-.3c-2.2-.7-6.5 2-9.5 6-1.6 2.2-6.7 7.5-11.3 11.8l-8.3 8 1.3 3.3 10.5-10.3 14.4-14.3zm73 19.8v-1.5l-1.5 1.2c-.8.7-1.5 2-1.5 2.8v1.5l1.5-1.3c.8-.6 1.5-1.9 1.5-2.7zm-196.4-.8c0-.4-.7-.1-1.5.5s-1.5 1.7-1.5 2.2c0 .6.6.3 1.5-.5.8-.8 1.5-1.8 1.5-2.2zM495 289a1 1 0 0 0-2 0 1 1 0 0 0 2 0zm-322-1.6c-.4-.4-.7 0-.7.6 0 .8.3 1 .7.7.3-.4.3-1 0-1.3zm156.7-9c1.9-1.8 3-3.3 2.4-3.3a66.2 66.2 0 0 0-13.5 12.4c0 .8 4.5-2.9 11-9.1zm218.1 8c-.4-.4-.7 0-.7.6 0 .8.3 1 .7.7s.4-1 0-1.3zm-220.5-2c-.3-.4-.6 0-.6.6 0 .8.3 1 .6.7s.4-1 0-1.3zm60.2-18.1 18.4-18.8-2.5-.3c-1.4-.1-3.5.4-4.7 1.2-1.2.9-8.6 7.8-16.4 15.5l-14.2 14v3.6c-.1 2 0 3.5.4 3.5s8.8-8.4 19-18.7zm-58.2 16c-.3-.3-.6 0-.6.7 0 .8.3 1 .6.7.4-.4.4-1 0-1.3zm103.8-6.5c4.3-4.5 8.4-9 8.9-10l1-1.8h-1.4a79.4 79.4 0 0 0-17.7 18.4c0 1 .3 1.6.6 1.6s4.2-3.7 8.6-8.2zm-226.6 2.5 1.4-1.8-1.8 1.4c-1.6 1.3-2.2 2.1-1.3 2.1.2 0 1-.7 1.7-1.7zm134.5-6.5c1.5-1.5 2.4-2.8 2-2.8a43 43 0 0 0-10.3 10.3c0 .5 1.2-.3 2.7-2l5.6-5.5zm-135.4.5c3.4-3.7 8-8.4 10.2-10.5 2.2-2 3.7-4 3.3-4.4-.6-.6-3.5 2-19 16.7-2 2-3.4 4-3 4.3.3.3 1 .6 1.4.6.4 0 3.6-3 7-6.7zm-6.2-2.5c0-.4-1.6.6-3.5 2.4s-3.5 3.6-3.5 4.2 1.5-.5 3.5-2.4c1.9-1.8 3.5-3.7 3.5-4.2zm9.7 5.6c-.4-.4-.7 0-.7.6 0 .8.3 1 .7.7s.3-1 0-1.3zm251.5-8.2c4-4.2 7.3-8 7.4-8.4 0-1.9-5.7 2.5-10.7 8.3a78 78 0 0 1-5.2 5.3c-1.8 1.5-3.2 3.2-3.2 3.8v1l2.2-1.3c1.2-.6 5.5-4.5 9.5-8.7zM190.2 261a699.3 699.3 0 0 1 23.3-22.4l2.5-2.8-3 1.5c-4 2-41.6 38.9-39.3 38.5 1-.1 8.4-6.8 16.5-14.8zm18.8-12.2 17.5-16.6c2-1.7 3-3.1 2.2-3.1-.7 0-7.7 6.2-15.5 13.8-7.8 7.7-16.7 16-19.7 18.7a55 55 0 0 0-13 13.7c0 .6 3.2-2 7.2-6l21.3-20.5zm-17.7 24.1a602 602 0 0 0 32-31.5c-.5-.4-5.7 4.1-14.6 12.5l-14 12.9c-7.4 6.8-9.4 9.2-7.6 9.2.3 0 2.2-1.4 4.2-3zm-14.1-6c4.5-4.6 8.2-8.7 8.2-9.2a48 48 0 0 0-8.2 7.3c-4.5 4.4-8.6 8-9 8-.4 0-.8.5-.8 1s.3 1 .7 1 4.5-3.7 9-8.2zm34 6.5c-.4-.4-.7 0-.7.6 0 .8.3 1 .7.7.3-.4.3-1 0-1.3zm257.7-7.1c4.4-4.8 7.6-9 7-9.1s-4.8 3.4-9.4 8a76.7 76.7 0 0 0-8.4 9c0 .5.6.8 1.4.8.7 0 5-3.9 9.4-8.7zm156.6 7.7c.4 0 3.4-3 6.5-7 3-3.7 5.3-7.3 5-8-.8-1.1-3.6-1.3-3.6-.2 0 .8-3.6 5.5-8.7 11.3-1.8 2-3.3 4-3.3 4.4s.7.5 1.6.2a8 8 0 0 1 2.5-.7zM141 265c4.9-5 9-9.5 9.2-10 .2-.5-.2-1-.9-1-1.4 0-11.7 9.4-17.3 15.7l-4 4.3h4zm8.5-1 10.3-10h-3.9l-8.8 8.8c-4.8 4.8-8.8 9.3-8.8 10s.2 1.2.5 1.2c.2 0 5-4.5 10.7-10zm10.2-1.1 10-9.9h-4l-10.2 9.7c-9.3 8.8-11.7 12.3-7.4 10.6 1-.3 6.1-5 11.6-10.4zm7 .1c6-6 10.3-11 9.6-11-.8 0-6 4.6-11.7 10.2a106 106 0 0 0-10.2 11c0 .5.3.8.7.8.4 0 5.7-5 11.7-11zm9.8-1.7c7-7 12.7-12.8 12.5-13-1-1-6.6 3.3-17 13.6-6.4 6.3-11.6 11.6-11.6 11.8s.7.3 1.6.3c.9 0 7.4-5.7 14.5-12.7zm215.3-15-3.7-.4-11.1 10.7c-6.1 5.9-11.2 11-11.2 11.5s.5 2 1 3.5l1 2.7 27.6-27.7zm218 26.7c1.6 0 16-14.5 16.4-16.5.6-2.4-2-1.6-5.9 1.8-6.2 5.6-15.5 16.1-13.6 15.4 1-.4 2.4-.7 3.1-.7zm14.5-6.4c3.3-3.8 6.1-7.6 6.1-8.5s-3.4 2.1-7.5 6.5a63.8 63.8 0 0 0-7.5 8.7c0 2.1 3.2-.3 8.9-6.7zm14.4 1.7c4.4-5.2 5.9-8.3 4-8.3a79 79 0 0 0-12.3 13.5c0 .3.8.5 1.8.5s3.9-2.6 6.5-5.7zm-515.2-3.8c4.6-4.8 8.5-9 8.7-9.5.1-.5-.4-1-1.2-1-.8 0-5.6 4-10.6 8.7-5 4.7-9.1 9-9.1 9.5 0 .4.9.8 2 .8h1.9zm6.8-.5c4.5-5 7.8-9 7.4-9-.5 0-4 3.2-7.9 7.1a83.4 83.4 0 0 1-8.7 8c-2.1 1.2-2.4 3-.4 3 .7 0 5-4.1 9.6-9zm85.2 5.8v-1L214 270c-.8.7-1.5 1.7-1.5 2.3v1l1.5-1.3c.8-.6 1.5-1.7 1.5-2.2zm262.7-4.4c4.4-4.3 8-8 8-8.5s-1-.9-2.2-.9h-2.1l-7.4 7.8c-4 4.3-7.4 8-7.4 8.5 0 .4.7.7 1.6.7a40 40 0 0 0 9.5-7.6zM98 269.3c1.4-1.5 5-5.4 8.2-8.6 3.1-3.2 5.2-5.7 4.5-5.5-1.3.4-17.4 15.5-17.4 16.3 0 .3.6.5 1.2.5s2.2-1.2 3.5-2.7zm15.6-3c3.3-3.2 6.9-7 8-8.5l2-2.8H122a122.3 122.3 0 0 0-17.8 16.5c0 .3.7.5 1.5.5s4.3-2.5 7.7-5.7zm232.3-3.7c3-3 5-5.5 4.5-5.5-.6 0-4.4 3.4-8.5 7.7-4.1 4.2-6.2 6.7-4.5 5.5a87 87 0 0 0 8.5-7.7zm256.2.8c4.3-4.7 8-9 8.2-9.5.2-.5-.3-.9-1-.9s-5.4 4-10.2 9-8.7 9-8.7 9.4.9.6 2 .6h1.8zm8.7.8a51 51 0 0 0 7.7-9c0-.7-1.1-1.2-2.5-1.2s-2.5.4-2.5.8-3.4 4.1-7.5 8.2a67.2 67.2 0 0 0-7.5 8.3c0 .4 1 .7 2.3.7h2.3zm-513-1.2c4.3-4.4 7.6-8.3 7.2-8.7-.4-.3-4.6 3.3-9.4 8l-8.8 8.7h1.5c.9 0 5.1-3.6 9.5-8zm-24.3 5.4c1-1 1.8-2 1.8-2.6 0-1-5 2.4-5 3.5 0 1.2 1.2.9 3.2-1zm18.3-6.3c4.4-4.4 7.7-8.3 7.3-8.6-.3-.3-1.4-.2-2.4.4-1 .5-5.2 4.4-9.4 8.6l-7.4 7.5h4zm393.9 3.3a75.1 75.1 0 0 0 10.5-12.7c0-.4-1.4.6-3.1 2-4.5 4-13.3 13.3-13.8 14.5l-.3 1 1.8-1c1-.5 3.2-2.3 4.9-3.8zm106 .7c2-2.1 4.2-4.2 5-4.7.9-.5 3.1-3 5.1-5.6l3.7-4.8H604a107 107 0 0 0-18.8 18c0 2.2 3 .9 6.3-2.9zm-528-1.3 6.4-7c1.4-1.5 2.3-3 1.9-3.4a68.9 68.9 0 0 0-14.7 13.8c0 .5.6.8 1.3.8s3-1.9 5.2-4.2zm10.5-3.1c4-3.8 7.1-7 7.1-7.3 0-.2-.8-.4-1.8-.4-1.6 0-6.4 4.5-13.2 12.4l-2.5 2.9 1.7-.4a45 45 0 0 0 8.7-7.2zm127 5.7c-.3-.4-.6 0-.6.6 0 .8.3 1 .6.7.4-.4.4-1 0-1.3zm88.9-19.9 12.6-11.7c4.1-3.7 7.2-7 6.9-7.3s-1.5 0-2.6.7c-2.9 2-16.4 14.6-28.5 26.6a57.8 57.8 0 0 0-10.1 11.5c.3.5 4.2-2.6 8.5-7a4014 4014 0 0 1 13.2-12.8zm27.7 15.2c0-.6-1 0-2.5 1.3a10.9 10.9 0 0 0-2.5 3.2c0 .5 1.2-.1 2.5-1.3 1.4-1.2 2.5-2.7 2.5-3.2zm29.8 2.8c1.4-1.4 2.3-2.8 2-3s-1.6 1-3.2 2.6-2.6 3-2.1 3c.4 0 1.8-1.2 3.3-2.6zm-142-1.6c0-.6-.7-.3-1.5.5s-1.5 1.8-1.5 2.2c0 .4.7.1 1.5-.6s1.5-1.6 1.5-2.1zm15 1.6 1.3-1.5-1.6.6c-1 .4-1.7 1-1.7 1.6 0 .4.2.8.4.8s1-.6 1.6-1.5zm269.8.6c.2-.6 3.2-4 6.6-7.4 3.5-3.6 6-6.7 5.5-7-.5-.3-3 1.8-5.4 4.8a53.7 53.7 0 0 1-7.1 7.2c-1.6 1-2.8 2.2-2.8 2.6 0 1.1 2.8.9 3.2-.2zm7.7-.7c1.4-.9 5.1-4.5 8.1-8.1 3-3.6 6-7.1 6.4-7.9l.8-1.4h-1c-.4 0-5 4.1-10 9.2-5 5-9.2 9.3-9.2 9.5 0 .8 2.4.2 4.9-1.3zm91.4-5.4 7.4-7H595c-2.5 0-5.5 1.8-9.7 5.5a99 99 0 0 1-5.9 4.7l-2.3 1.7.7 1c1.4 2.4 4.6.8 11.6-5.9zm-30.9-1.7c3.4-4 5.8-7.6 5.4-8a58.4 58.4 0 0 0-14.7 14.6v1.3l1.7-.3a35 35 0 0 0 7.6-7.6zm5.4 1.2a41 41 0 0 0 6.4-7.5c0-1.8-2.9-1-4.4 1.2a127 127 0 0 1-6 6.9c-2.6 2.6-4.7 5-4.7 5.3 0 .4.6.6 1.2.6s4-2.9 7.5-6.5zm6 .9c3-3.1 5.2-5.9 5-6.2a27 27 0 0 0-6.9 5.7c-3.4 3.4-5.6 6.1-4.9 6.1.7 0 3.8-2.5 6.8-5.6zm6.2 3.1c-.3-.3-.9.3-1.2 1.3l-.7 1.7 1.2-1.2c.7-.7 1-1.5.7-1.8zm-498.4.5c.3-.5.1-1-.4-1-.6 0-1.1.5-1.1 1s.2 1 .4 1c.3 0 .8-.4 1-1zm436.7-6.5c4-4.2 7.4-8 7.6-8.5.2-.5-.7-1-2-1h-2.4l-6 6.3-8 8.5-1.8 2.2h5.3zm28.6-1.8c3.4-3.5 6.2-6.7 6.2-7 0-.4-1-.7-2.2-.7h-2.3l-13.5 13.6 1.1 1.2 1.2 1.2 1.6-1c.9-.4 4.4-3.7 7.9-7.3zm.7 6.3c1-1 1.6-2.3 1.2-2.6-.7-.8-4.7 2.5-4.7 3.8 0 1.5 1.6 1 3.5-1.2zm9-5c3.7-4 6.5-7.4 6.1-7.7s-1.1 0-1.8.6c-1.6 1.6-3 1.4-2.4-.4l.6-1.5H553l.5 2 .5 1.9-2.2 2c-1.2 1.2-2.5 1.9-2.8 1.5-.4-.3-1.5.2-2.5 1.2l-1.8 1.8 1.8-.6c1.8-.7 2.4.7.7 1.7-.5.4-1.4 1.5-2 2.6l-1 2h.8c.5 0 4-3.2 7.7-7.1zm23.6 1.5 5.4-5.5h-1.5c-.8 0-3.7 2.5-6.3 5.5-2.6 3-4.4 5.5-3.9 5.5.5 0 3.3-2.4 6.3-5.5zM374.8 254l9.6-8.9-1.1-1.8a5 5 0 0 0-3.5-2l-2.5-.2-14.7 13.6.7 4.2c.4 2.3 1 4.1 1.4 4.1.3 0 5-4 10.1-9zm141.2 6.5c-.3-.3-1 .3-1.3 1.3l-.7 1.7 1.3-1.2c.7-.7 1-1.5.7-1.8zm7.6-.7 7.4-8 4.6-4.8h-3.8l-6.8 7.1a49 49 0 0 0-6.8 8c0 2 2.8.8 5.4-2.3zm9.9-3.5c3.7-3.6 6.7-7.3 6.7-8.2v-1.5l-7.5 7.4a62.3 62.3 0 0 0-7.5 8.3c0 1.8 2 .4 8.3-6zm-305 1.4c0-.5-.9-.2-2 .8-1 1-2 2.3-2 2.9s1 .1 2-.9c1.1-1 2-2.2 2-2.8zm94.2 1.2c0-.4 2.4-2.7 5.3-5 6-5 14.3-13.7 13.6-14.4-.5-.5-22.9 21-22.9 22 0 .3 1 0 2-.7 1.1-.7 2-1.6 2-2zm258.1 1.1c.3-.5.1-1-.4-1s-1.1.5-1.1 1c0 .6.2 1 .4 1 .3 0 .8-.4 1.1-1zm-224.5-3.8c-.6-.6-3.5 1.9-3.5 3.1 0 .6.9.2 2-.8s1.8-2 1.5-2.3zm100 3a383 383 0 0 0 31.8-31c0-.2-.8.2-1.8 1.1s-4.5 2-8 2.6c-3.4.6-6.8 1.4-7.5 1.8a389 389 0 0 0-24.8 25.6c0 1 7.5.9 10.3-.2zm61.5-.8c-.3-.4-.6 0-.6.6 0 .8.3 1 .6.7.4-.4.4-1 0-1.3zm-188.4-2c-.4-.4-.7 0-.7.6 0 .8.3 1 .7.7.4-.4.4-1 0-1.3zM85.7 256c.3-.5.1-1-.4-1s-1.1.5-1.1 1 .2 1 .4 1c.3 0 .8-.4 1-1zm107.7-5.5c3.6-3.5 6.2-6.5 5.8-6.5-.8 0-12.8 11.7-12.8 12.5 0 .3.1.5.3.5a86 86 0 0 0 6.7-6.5zm393.5 2.8c-.6-.6-3.6 2.3-3.6 3.3 0 .4.9 0 2-1s1.8-2 1.6-2.3zM228.2 251l1.1-1.5-1-.6c-.5-.4-2.4.8-4.4 2.5a15.6 15.6 0 0 0-3.4 3.9c0 1 6.3-2.4 7.7-4.3zm103.2 3.3c-.4-.4-.7 0-.7.6 0 .8.3 1 .7.7.4-.4.4-1 0-1.3zm-43.6-12.2c7.4-6.9 13.5-12.8 13.7-13.3.2-.5-.1-.9-.7-.9s-7.3 6.2-14.9 13.7-13.3 13.4-12.6 13.2c.6-.2 7.2-6 14.5-12.7zm66.5 11.8c.3-.5.1-1-.5-1a1 1 0 0 0-1 1c0 .6.2 1 .4 1 .3 0 .7-.4 1-1zM488 239.6c7.4-7.5 13.7-14 13.9-14.6l.3-1-5.5 1.3-14.4 14.3a289.9 289.9 0 0 0-14.4 14.7c0 .3 1.5.2 3.3-.2l3.3-.8zm152.7 7.7 9.6-10.5 3.2-3.7-1.7-.7c-1-.4-2.8-.3-4 .2a82 82 0 0 0-12 9.9l-9.6 9 2.3 1.2a11 11 0 0 0 4.1 1.3h1.8l6.3-6.7zM505.6 238c8-8 14.6-14.7 14.6-15 0-.4-2.6-.4-5.8-.2l-5.8.5-14.2 14.1a187.4 187.4 0 0 0-14.3 15v.9l11-1zm-361.5 5.7a54 54 0 0 0 7.2-8c-.3-.2-3.2 0-6.6.7l-6.1 1.1-6.2 6a31.3 31.3 0 0 0-6.1 7.3v1.2l10.2-.6 7.6-7.7zm223.4 2.1c3.5-3.4 6.3-6.8 6.3-7.5 0-2.9-4.2-.9-10.4 5l-6.6 6 1.1 1.4c.6.7 1.6 1.3 2.2 1.3s4-2.8 7.4-6.2zm264.7-4c5.6-5.6 10.2-10.5 10.2-10.8 0-.8-5-2-8.4-2h-2l-21 21 1.5.4c2.3.8 5.3 1.4 7.5 1.5l2 .1zm-556.6 3.4c2.8-2.6 5.4-5.1 5.8-5.7 1.2-1.6.9-2.5-1-2.4a27 27 0 0 0-8 6 36.9 36.9 0 0 0-6.2 7.1v1l2.2-.7a32 32 0 0 0 7.2-5.3zm16.4-.5c3-3 5.4-5.8 5.2-6-.3-.2-2.2-.6-4.3-1l-3.9-.6-14.3 14 11.7-.7zm35.2 0 6.3-6.4-5.5-1-5.9 5.7a29 29 0 0 0-5.8 6.9c0 .6 1 1.1 2.2 1.1h2.3l6.4-6.3zm28-2.3a76 76 0 0 0 8.2-9.5c0-2.2-3-.2-11.5 7.9a105 105 0 0 0-9.5 9.5c0 .4 1 .7 2.3.7h2.5zm7.3 7.8c2.1-.9 36-33.4 35.4-34-.2-.3-1.3.3-2.3 1.2-1 .9-2.1 1.6-2.5 1.6a50 50 0 0 0-6.6 3c-3.2 1.5-7 3-8.4 3.4l-2.4.6-11.4 11.5c-6.3 6.4-11.6 12-11.8 12.6l-.3 1 4.3-.1a20 20 0 0 0 6-.8zm-60.5-5.4a33 33 0 0 0 5.2-6c0-.4-.8-.8-1.8-.8s-4.3 2.5-7.5 5.6a54 54 0 0 0-5.7 6c0 .2 1 .4 2.2.4h2.3l5.3-5.2zm14.8-.8 6-6H113l-12.2 12h10zm470.4-8.1c7-7.2 12.8-13.4 13-14l.3-.9h-8.7l-13 13a142.2 142.2 0 0 0-12.5 13.4l3.5 1.4c1.6.5 3.4.8 3.8.5.5-.3 6.6-6.3 13.6-13.4zm10.4 1.3c7-7 12.8-13.1 12.8-13.5 0-.4-1.4-.7-3-.7h-3l-13 12.8c-7.2 7-13.1 13.2-13.1 13.5s1.5.7 3.3.7h3.3zm1 11.7c3.6-1.6 25-22.7 24.3-23.9-.4-.5-2.2-1-4-1h-3.5L603 236.2c-7 6.8-12.6 12.6-12.6 13 0 1.2 5.6 1 8.4-.3zm-416-2.4c1.7-1 12.4-10.9 23.7-22.1l20.7-20.5-5 .7c-2.8.4-5.7 1.2-6.6 1.8a795 795 0 0 0-21.7 20.4c-11 10.6-20.8 20-21.9 20.8l-2 1.6 4.9-.6a28 28 0 0 0 7.9-2.1zm92.7.9c-.4-.4-.7 0-.7.6 0 .8.3 1 .7.7.4-.4.4-1 0-1.3zm231-.2 4.3-1.9 10.8-11.3a103 103 0 0 0 10.6-12c-.2-.3-1.7-.3-3.3.2l-3 .8-12.8 12.1c-7 6.7-12.8 12.6-12.8 13 0 .5.4 1 1 1 .4 0 2.8-.9 5.2-2zm112.5-9.1a48.7 48.7 0 0 0 9.3-10.7 53 53 0 0 0-11.5 10L605.9 248h1.5c.8 0 6-4.4 11.4-10zm-257 2.3c3.3-3 6-6.1 6-6.8 0-.7-.9-2-2-3l-1.9-1.8-4.3 3.6c-2.4 2-5.4 4.7-6.7 6.2l-2.4 2.5 1.3 2.5c.7 1.3 1.9 2.4 2.6 2.4.7 0 4-2.5 7.4-5.6zm212.8-6.2a96 96 0 0 0 11.7-13.1v-1.3l-2.3.6a85 85 0 0 0-13.9 12L558.6 244l1 1c.6.6 1.6 1 2.2 1 .6 0 6.3-5.3 12.8-11.8zm-35.5-1.9a158 158 0 0 0 11.7-13c-.2-.2-3 .1-6.4.8l-6 1.2-8.9 8.9-9.3 9.4c-.3.3.2 1 1 1.6l1.5 1-4.8-1.4-.8 1.3c-.4.8-.6 1.7-.3 2.1.3.5 2.7.8 5.3.8h5zm25.2 1.2c6.3-6.3 11.6-11.9 11.8-12.3.1-.5-2.1-.7-5-.4l-5.3.4-11.3 11.2c-6.2 6.1-11.3 11.5-11.3 11.9s2.2.7 4.9.7h4.8zm-14.4-.8c6.3-6.3 11.4-11.7 11.4-12s-1.4-.7-3-.7h-3l-10.8 11c-6 6.2-11 11.6-11.1 12-.2.6.9 1 2.4 1h2.8zm-352 8.7c2.7-1 6.5-2.7 8.5-4 3.4-2.3 25.1-22.9 51.4-48.7l12-11.8-.8-3-1-3.2-6 6.3c-3.2 3.4-6.6 8-7.4 10a25 25 0 0 1-4.4 6.9c-2.8 3-8.5 6.1-13.9 7.8-1.5.5-6.4 4.4-11 8.8a962.1 962.1 0 0 0-32.9 32c0 .3.2.5.4.5l5.2-1.6zm64.7.1 1.2-1.5h-1c-.5 0-1.5.7-2.2 1.5l-1.3 1.5h1c.6 0 1.6-.6 2.3-1.5zm145.5-7.2c5-4.8 9.4-9.4 9.8-10.3l.8-1.5H396L381.4 237l2.5 1.8c1.3 1 5.2 2.2 8.5 2.8l6.3 1.3c.2 0 4.4-3.8 9.4-8.6zm40.2-13 23.8-23.8 2.5-2.7-3 .5c-4.5.7-18.7 7-23.7 10.4a87 87 0 0 1-10 5.7l-5.4 2.6-13.3 13.5a315.9 315.9 0 0 0-13.3 14c0 .7 5.3 1.1 13.3 1l7.9-.1zm.4 16.2c4.7-2.5 9.7-4.5 11.2-4.5 1.4 0 4.4-.8 6.6-1.9l4-1.8 11.5-11.9 23.5-24.2 12.2-12.4-4.8.7a60.8 60.8 0 0 0-21.6 8.7c-1.4 1-3.9 1.8-5.5 1.8h-3.1L458 216.3a389.6 389.6 0 0 0-24.9 25.6l-.1 1.4 3.6-.7c2-.4 7.4-2.7 12-5.1zM283.3 235c3.2-3 6.5-6.3 7.2-7.3l1.4-1.7h-1.4a71 71 0 0 0-15.9 15v1.1l1.4-.8c.8-.4 4-3.3 7.3-6.3zm-.2 6 .6-1-1.5.7c-1.8.6-2 1.3-.6 1.3.5 0 1.2-.4 1.5-1zm-34-9.4a41 41 0 0 0 8.3-9c-1.2-1.3-6.4 2.2-10.9 7.5a115 115 0 0 1-6.2 6.8c-1.8 1.7-2.3 3.1-1 3.1.4 0 4.8-3.7 9.8-8.4zm25.5-1c3.6-3.6 6-6.6 5.5-6.6a91.5 91.5 0 0 0-15.5 14.4c0 1.4 3.6-1.4 10-7.8zm-1 7c.7-.9 1-1.6.6-1.6s-1.4.7-2.2 1.5c-.9.9-1.1 1.5-.6 1.5.5 0 1.5-.6 2.2-1.5zm-44-2c1.2-1.4 2-2.6 1.7-2.6-.7 0-4.8 3.7-4.8 4.4 0 .4.2.6.3.6s1.4-1 2.7-2.5zm95.1-1.8c0-.5-.9-.3-2 .2-1 .6-2 1.8-2 2.6v1.4l2-1.7c1.1-1 2-2 2-2.5zm30.5-1.7 5.8-5.9-.6-1a2.5 2.5 0 0 0-2-1.2 33 33 0 0 0-7 5.4l-6 5.4.7 1.6c.3 1 1.2 1.6 2 1.6.7 0 3.9-2.6 7.1-5.9zm-113.5-2c3.5-3.3 6-6 5.5-6a65.2 65.2 0 0 0-12.7 11.2c0 .4.2.7.4.7s3.3-2.7 6.8-6zm150.2-9.3c0-.4-.8-.8-1.8-.8s-4-1.1-7-2.6l-5.1-2.6-11.4 11 10.6 10.3 7.3-7.2c4-4 7.4-7.7 7.4-8zM120 217.2c10-9.8 18.3-18 18.3-18.3 0-.2-4.4-.3-9.8 0l-9.7.4-3 2.5a751 751 0 0 0-32.6 31.6c0 .5 3.7.8 15.5 1.4l3 .2 18.3-17.8zm2.8 16.8h4l18.3-17.9a396 396 0 0 0 18.3-18.5c0-.8-14-.5-17 .5-1.4.4-10.6 8.6-20.5 18.3l-18 17.4 2 .6c1 .3 3.4.3 5.4 0s5.3-.3 7.5-.4zm168.9-2.2c0-.5-.7-.2-1.6.6-.8.8-1.5 1.8-1.5 2.2 0 .4.7.1 1.5-.6.9-.6 1.6-1.6 1.6-2.2zm-144.4.3 11.3-2 8.6-8.4 16-15.3 7.5-6.9-4.4-.6c-2.4-.3-7.6-.4-11.5-.1l-7 .5-36 34.7h2.1c1.2 0 7.2-.8 13.4-2zm132.3-1.3c0-.5-.7-.2-1.5.6s-1.5 1.8-1.5 2.2.7.1 1.5-.6 1.5-1.6 1.5-2.2zm69.1-3c3.8-3.4 7-6.6 7-7a19 19 0 0 0-5.5-5.8c-1 0-17.5 15.4-17.5 16.3 0 .4 1 .7 2.3.8 1.2 0 3 .4 3.8 1s1.8 1 2.3 1a63 63 0 0 0 7.6-6.3zm-261.9-3.5c13.4-12.3 27-26.1 26.2-26.9-.4-.3-5-.2-10.2.4l-9.6 1-11.3 11.4A461 461 0 0 1 66 226a22.6 22.6 0 0 0-4.6 4.7l2.9 1.3c1.3.5 5 .8 8.1.7l5.6-.1zm148.8 6.5c.8-.7 2.1-2 2.8-3l1.4-1.8h-1.4c-.8.1-2.4 1.5-3.7 3.1-2.4 3-1.8 4 1 1.7zm46.5-1.8c.4-.5.2-1-.4-1s-1 .5-1 1c0 .6.1 1 .4 1 .2 0 .7-.4 1-1zm55.9-7.7c4.8-4.8 8.8-9.3 8.8-10s-.8-1.6-1.8-2.1l-1.8-1-20 19 2 1.4c1 .8 2.4 1.4 3 1.4s5-3.9 9.8-8.7zm146 5.1c3.1-1.4 10-3.9 15.5-5.4l9.8-2.9 16.7-16.4 23-22.4a31 31 0 0 0 6.2-7V171H552c-6.2 0-18.3 3-22.9 5.4a83.2 83.2 0 0 0-13 11.3l-24.3 24.4a310.8 310.8 0 0 0-15.8 16.3c0 1.2 2.5.6 8-2zm-252.3-2.1 7.3-3.8 7-6.5a1770.5 1770.5 0 0 0 28.6-27.4c0-.1-.9-1.3-2-2.5l-2-2.3-1.7 1.3a30821.5 30821.5 0 0 1-38.4 36.7c-4.7 4.5-8 8.2-7.3 8.2.7 0 4.5-1.6 8.5-3.7zm52.6 2a1 1 0 0 0-1.3 0c-.4.4-.1.7.6.7.8 0 1-.3.7-.6zm45.7-10.1c5.9-6 10.7-11.1 10.7-11.4s-1.2-1.3-2.8-2l-2.9-1.5-12.2 12c-6.6 6.5-12.1 12-12.1 12.2 0 .4 3.3 1 7 1.4.8 0 6.4-4.7 12.3-10.7zm-161 9.2a1 1 0 0 0-1.3 0c-.4.3 0 .6.7.6s1-.3.6-.6zm147.6-10.8c5.3-5.2 10.9-10.4 12.4-11.6 1.5-1.2 2.7-2.7 2.7-3.4 0-.7-.6-1.9-1.4-2.5l-1.4-1.2-5 4.8-14 13.5c-5 4.7-8.9 8.9-8.5 9.2.3.4 1.7.6 3.1.6h2.5zm-18 5.3c2-1.6 9.1-8.5 16-15.1l12.4-12-1-1.7c-.6-.9-1.7-1.6-2.5-1.6s-9 7.3-18.2 16.2L288.7 222l1.2.5c2.9 1.1 5.5.4 8.7-2.5zm72-2c2.8-3 5.2-5.7 5.2-6.2a48 48 0 0 0-9.1-12.4c-.4.1-3.8 2.9-7.4 6l-6.5 5.9 5.2 5.9c3 3.2 5.7 5.9 6.3 6a28 28 0 0 0 6.2-5.3zM179.3 220a76 76 0 0 0 23.2-11.6c2-1.8 5.7-4.3 8-5.5l4.4-2.2 15-14.8c8.3-8.1 16.4-16 18.2-17.4l3-2.5.7-7.3 1.2-12 .7-4.7-20.2 20.4-6 13.5-5.4 5.2a85 85 0 0 1-14.7 10.8c-5 3-12 8.2-15.4 11.4l-13.2 12.3c-3.8 3.5-6.5 6.3-6 6.3s3.5-.9 6.5-1.9zm81.8-8.9 14.8-13.9c2.5-2.3 4.6-4.9 4.6-5.6 0-.8-.7-1.7-1.7-2.1l-1.6-.6-5 4.7-13.1 12.7a189 189 0 0 1-11.4 10.4c-1.8 1.4-3.3 2.9-3.3 3.4s1.5.8 3.3.8h3.2l10.2-9.8zm30.4 2.7a915 915 0 0 0 18.5-17.7l11.9-11.6 1-3.4.9-3.4-2.1-2.1-8.3 8.1c-4.6 4.5-9.5 9-10.8 10.2a818 818 0 0 0-13.4 12.4c-6 5.6-11.6 10.5-12.3 11-2.7 1.5-1.3 2.6 3.4 2.6h4.7l6.5-6zm241.2 4.5 5.1-.5 7-7.2 24.8-24.6a291 291 0 0 0 17.6-18.3c0-.4-.3-.8-.8-.8l-9.7 2.5a80.3 80.3 0 0 1-12 2.6h-3l-17.2 16.7c-9.4 9.2-20.3 19.7-24.3 23.4s-7.2 7-7.2 7.2c0 .5 9.7 0 19.7-1zm-251.6-9.1a1643 1643 0 0 1 37.6-35.1c2-1.7 4.1-4.4 4.7-6 1.4-3.7 4.2-12.9 4.2-13.7 0-.4-4.8 4-10.8 9.6a93.3 93.3 0 0 0-12.1 13.2 50.5 50.5 0 0 1-14.7 13.4c-1.6.9-5.7 4.1-9 7.2l-14.5 13.4-8.4 7.7H271l10-9.7zM589.5 193l23.1-23.5-5.6-.7a31 31 0 0 1-7.6-1.7 9 9 0 0 0-3.4-1c-.8 0-12.9 11.3-26.9 25.2l-25.5 25.2h22.8zm-232.3 9.5 6.9-6.6-2.8-5.2c-1.5-2.8-3.3-6-4-7l-1.4-2-16.8 15.8 5.6 5.7 5.6 5.8 7-6.5zm-119.8-5.3 6.4-2.7 8.2-9.6.4-7.5c.2-4 .1-7.4-.2-7.4-.3 0-7.2 6.5-15.2 14.3s-14.3 14.6-13.9 15c1.5 1.5 8.1.5 14.3-2zM346 186.5l9.3-9 .1-5.3c0-3-.2-7.1-.5-9.4l-.5-4-5 4.7c-16 15.1-21.6 21-21.6 22.5 0 2.3 6 10.2 7.6 9.8.7-.1 5.5-4.3 10.6-9.3zm-55.2-2.5c2-1.6 2.9-3 2.2-3-1.2 0-6.3 4.3-6.3 5.4 0 .3.2.6.4.6s1.9-1.3 3.7-3zm4.2-9a62.2 62.2 0 0 0 11.2-12.1l-.6-1-8.2 8c-4.5 4.4-9.9 9.4-12 11.2-3.5 3.1-4.6 5-3 5 .5 0 6.2-5 12.6-11.2zm-12.7 5.3c1.9-1.5 3.4-3.3 3.4-4v-1.2l-1.8.7c-2 .8-8.2 5.8-8.2 6.7 0 .3.7.5 1.6.5.8 0 3-1.2 5-2.7zM280 174c.3-.7.4-1.6.1-1.8-.6-.6-6.6 5.8-6.6 7 0 1.2 5.7-3.3 6.5-5.2zm18.9 2.3c2-2 3.6-3.8 3.3-4.1-.6-.6-8.4 5.8-8.6 7-.1 1.5 1.5.6 5.3-2.9zm43.5-11 13.3-12.9V149c0-2 .7-4.6 1.6-6 1-1.4 3.1-4 5-6l3.2-3.5 2.3-7.5a52 52 0 0 1 4.6-11l2.3-3.5-1-.3c-.7-.2-8 6.3-16.4 14.6s-16.2 15.8-17.5 16.8a41 41 0 0 0-6.2 10 82.1 82.1 0 0 0-7.3 23.7l-.6 3.7 1.7-1c1-.5 7.7-6.6 15-13.7zm-80 7 4-4.5-.6-4.7a22 22 0 0 0-1-5.1c-.2-.2-2.4 1.5-4.9 4l-4.4 4.3v2.2c0 3.5 1.1 8.4 2 8.4.4 0 2.6-2 4.8-4.5zm36.3-8.2 8.7-8.4.6-2.5c.4-1.4.5-2.7.3-2.9-.2-.2-4.9 4.1-10.3 9.7s-10.1 11-10.3 12l-.3 2.2 1.3-.9c.7-.4 5.2-4.6 10-9.2zm-18.3 1.4c-.7-.7-7 5.4-7 6.8 0 .6 1.8-.6 3.8-2.6 2-2 3.5-4 3.2-4.2zm7.6.6c6.4-6 13.2-13.6 11.4-12.6-1.9 1-16.9 15.2-16.9 16 0 1.2 1.9.1 5.5-3.4zm-9.6-3.2c3-3.4 5.2-6.2 5-6.5-.5-.4-13 11-13 12 0 .3.7.5 1.3.5.7 0 3.7-2.7 6.7-6zm55.2-22.4c1.1-2.7 1.8-5.1 1.6-5.4a386.7 386.7 0 0 0-23.7 21.4c-1 1-2 4-2.4 6.4l-.8 4.4 23.2-21.8zm-56.4 17.2 6.3-6.2v-1.9c0-1-.4-1.7-.8-1.5a68 68 0 0 0-7 7c-5.7 6-7.4 8.8-5.5 8.8.4 0 3.6-2.8 7-6.2zm6.8 5.2c.4-.5.2-1-.4-1-.5 0-1.2.5-1.6 1-.3.6-.2 1 .4 1s1.3-.4 1.6-1zm-23.9-6.2c2.3-2.4 4.4-5.5 4.8-7l1.2-5.5.6-2.8-4.7 4.5c-2.6 2.5-5.4 6-6.2 7.7-1.5 3.6-1.8 7.3-.6 7.3.5 0 2.7-1.9 5-4.2zm12.6-2c3.4-3 9.8-10.7 9.8-11.9 0-.5-.5-.9-1-.9-1.5 0-14 12.5-14 13.9 0 1.8 2.5 1.3 5.2-1.1zm-20.5-15.5c1.3-1.2 2.6-7.8 3.6-18.5.2-2.7.1-5-.3-5.2-.4-.3-4.3 3.2-8.8 7.7l-8.1 8.2-1.1 7.2c-.6 4-1 9.1-1 11.5v4.3l7.1-7 8.6-8.2zm50.3 6.4c4.4-4.4 8-8.3 8-8.8s-.3-.9-.7-.9a142 142 0 0 0-17.3 17.5c0 .4.5.5 1 .4s4.6-4 9-8.2zm1.2 4.6 1.4-1.8-1.8 1.4c-1.7 1.3-2.2 2.1-1.4 2.1.2 0 1-.8 1.8-1.7zm10.7-1.3c1.5-1.2 6-5.4 10.2-9.3s9-8.5 11-10a67.8 67.8 0 0 0 14.1-18.2 82.1 82.1 0 0 1 9.8-14.3c.7-.8 1-1.7.8-2-.3-.2-2.5 1.5-4.9 4L332 122l-19.3 18.4-.4 2c-1.1 5.8-1.4 8.6-1 8.6.4 0 1.9-1 3.3-2zm-43.4-2c.3-.5.1-1-.5-1a1 1 0 0 0-1 1c0 .6.2 1 .4 1 .3 0 .7-.4 1-1zm35.4-11.8c4.7-4.5 8.1-8.6 7.8-9-.4-.3-5.2 3.9-10.7 9.4a107 107 0 0 0-10 10.6c0 1.3 4-2 13-11zm-43.6 6a24 24 0 0 0 5.2-7.8l1-4.8.4-2-11.8 12-1.4 7.4h1c.5 0 3-2.2 5.6-4.9zm11.3-1.3.6-1 .9 1.3.9 1.3 2.5-2.7c1.4-1.5 2.2-2.8 1.8-2.8-.5 0-1.4.6-2 1.2-.7.7-1.5 1-1.8.6-.3-.3 1.5-3 4-5.8 2.5-3 4.5-6 4.5-6.9v-1.5l-3.7 3.5c-9.2 8.5-11.3 10.8-11.3 12.3 0 1.8 2.5 2.2 3.6.5zm76.4-12.3c5.9-5.7 13.7-13.2 17.5-16.6s6.7-6.6 6.7-7c0-.5-.6-1.4-1.3-2.2a23.8 23.8 0 0 1-5.7-9.2c0-2.8-1.6-1.7-3.4 2.2-.9 2-3.7 6.9-6.2 10.7s-5 8-5.4 9c-.5 1.1-3.8 6-7.5 11a47 47 0 0 0-6.6 10.7c0 1 .3 1.8.6 1.8s5.4-4.7 11.3-10.4zm-45.6 2.8a74 74 0 0 0 14.7-16.5c0-.5-.4-.9-1-.9-.4 0-5.6 4.7-11.4 10.3a61 61 0 0 0-10.7 12c0 1 .3 1.7.6 1.7.4 0 3.9-3 7.8-6.6zm-38.3-5.7 4.8-4.8 1-4.7c.5-2.6.8-4.8.7-4.9-.1-.1-3.2 2.8-6.8 6.5l-6.6 6.7-.8 4.5-.7 4.5 1.8-1.5c1-.8 4-3.6 6.6-6.3zm14.8-1.2c4-4 7.2-7.8 6.8-8.2-.4-.4-4.5 3-9 7.5s-7.6 8.2-6.8 8.2c.8 0 4.8-3.3 9-7.5zm47.8-3.9a1481 1481 0 0 1 18.8-18l14.7-14 1.5-5.4c.9-3 1.5-6 1.3-6.9l-.3-1.4-22.8 23.5a691.6 691.6 0 0 0-22.8 24c0 .4.7.6 1.5.6s1.5.4 1.5.8c0 .5-1.3 2.1-3 3.7s-3 3.3-3 3.8c0 1 6-4.1 12.6-10.7zm-80-3 6.3-5.9v-4.2c0-2.3.6-5.5 1.4-7a32 32 0 0 0 2-6.5l.8-3.5-17.1 16.8-1.6 6.1c-3.1 11.4-3.4 12.5-2.8 13 .6.7 1.8-.3 11-8.8zm53.5 7.6c.2-.5 5.6-5.6 12-11.5 11-10 16-15.7 16-18.7 0-.7-6.8 5.4-15.1 13.6s-15 15.4-15 16.1c0 1.5 1.6 1.8 2.1.5zm-14.2-15.4c0-1.9-2-.3-7.8 5.6a28 28 0 0 0-6.2 8.1v1.7l7-7.3c3.8-4 7-7.7 7-8.1zm-20.1 1.5 8-7.8.5-2.5a27 27 0 0 1 1.1-4.2c.4-1 .3-1.8-.1-1.8-.5 0-4.8 3.8-9.7 8.4l-8.7 8.3v3.7c0 2 .1 3.6.4 3.6.2 0 4-3.5 8.5-7.7zm14.5-2a29 29 0 0 0 5.5-6.8 56 56 0 0 0-12.9 12.6c0 .6.3 1 .7.8.5-.2 3.5-3.2 6.7-6.6zm39.4-12A84.7 84.7 0 0 0 333.7 84c0-.8-6.7 5.4-15 13.6-8.3 8.3-15 15.4-15 16 0 1 2.8-1.6 18.7-17.2zm34.6-18 10-10.4-.5-3.6c-.4-2-.9-3.8-1.2-4-.7-.9-27.8 25.6-29.8 29.1a16 16 0 0 0-1.8 6.8v3.7l-1.5 1.5c-1 1-2 1.6-2.6 1.6-.5 0-.9.6-.9 1.4 0 .7-.9 2.1-2 3.1-1 1-2 2.3-2 3 0 .5 5-4.2 11.2-10.5L357 78.2zM285 101c3.3-3.4 5.6-6.4 5.2-6.7-.7-.7-7.7 5.8-10.7 10-3.5 4.8-.4 3 5.6-3.3zm-14.7-4.4 8.3-8v-5.4l-18 17.3-1.3 5.8 1.4-.8c.7-.5 5-4.5 9.6-9zm50.5-4.4c11.6-11.6 15.8-16.7 14.7-17.8-.2-.2-6.8 6.1-14.6 14-12.8 13-15.8 16.7-13.5 16.6.4 0 6.5-5.8 13.4-12.8zM251 93.8l8.4-8.3.5-4a164 164 0 0 1 2.2-11.8c1-4.2 1.6-8.2 1.4-8.7-.2-.6-5.4 4-11.6 10.3l-11.3 11.4v9c0 7.9.4 10.3 1.7 10.3.2 0 4.1-3.7 8.7-8.2zm34.4-1.4c-.4-.4-.7-.1-.7.6 0 .8.3 1 .7.7.4-.4.4-1 0-1.3zm-11-9.6 5.3-5 .6-3.4c.4-2 .4-3.7.1-4-.2-.3-4.4 3.2-9.1 7.7l-8.6 8.3v6.8l3.2-2.7 8.5-7.7zm50.7-3c7-6.6 12.7-12.8 12.7-13.6v-1.6l-13 13C313.4 88.8 310.6 92 312 92c.2 0 6-5.4 13-12.1zm-35 5.2c3.3-3.2 5.7-6.2 5.3-6.5a25 25 0 0 0-6.7 5c-5.7 5.3-7.2 7.5-5.3 7.5a41 41 0 0 0 6.7-6zm0 4c1-1 1.6-2 1.3-2-.2 0-1.5 1-2.8 2s-1.8 2-1.3 2c.6 0 1.8-.9 2.8-2zm-17-16.5c4.7-4.6 8.5-9.1 8.5-9.9 0-.8.3-2.2.7-3.1l.6-1.8-1 .4c-.6.2-4.3 3.3-8.3 7l-7.2 6.4-2 4.4a45 45 0 0 0-1.8 4.7c0 .2.4.4 1 .4a67 67 0 0 0 9.4-8.5zm13.9 7.3c-.6-1 3.6-7 5.1-7.7.6-.2 3.6-3.1 6.8-6.5 5.3-5.6 6.7-7.6 5.2-7.6-.4 0-6 5.3-19.7 18.7-1 .9-1.8 2.2-1.8 2.7 0 .6 1.1 1.1 2.4 1.1 1.3 0 2.2-.3 2-.7zm63.9-11.6 12.7-12.7-.5-3.3c-.3-1.8-1-3.1-1.4-3-.5.2-5.6 5-11.4 10.7a94.6 94.6 0 0 0-10.6 11.5c-.4 4.6-.8 6-1.8 6.4-1.3.4-1.6 3.2-.4 3.2.4 0 6.4-5.7 13.4-12.8zM344.8 53c0-1.4-21.3 18.1-24.2 22.1-1 1.5-2 3.3-1.9 4 0 .8 5.9-4.5 13-11.7 7.2-7.2 13-13.7 13-14.4zm-55.5 25.3a1 1 0 0 0-1.3 0c-.4.4-.1.7.6.7.8 0 1-.3.7-.7zm2-2c-.4-.3-.7 0-.7.7s.3 1 .7.7c.4-.4.4-1 0-1.4zm8.2-7.8c-.7-.7-6.9 5.5-6.9 7 0 .5 1.7-.7 3.7-2.7s3.5-4 3.2-4.3zM255.9 63c3.3-3 6.7-6.3 7.5-7.2 1.8-2 4-10 4.1-14.3 0-1.6-.4-3.7-.9-4.5l-1-1.5L259 42c-3.6 3.6-7.2 7.7-8 9.2s-1.5 3.9-1.5 5.3-1 5.8-2.5 9.7l-2.5 7.2 2.8-2.5a860 860 0 0 0 8.6-7.9zm48.5-11c-.1-.6-4 2.6-8.5 7a100 100 0 0 1-8.9 8c-1.4 0 2.1-4.2 10-12 8.2-8 10.6-11.2 6.8-9-1 .5-6 5.3-11.2 10.5l-9.5 9.6 1.4 1 1.5.9-1.2 1.9c-.6 1-1 2.2-.6 2.5.8.8 20.6-19.3 20.1-20.5zm21.3 15c.8-.6 1.1-1.3.7-1.7-.4-.4-1.5 0-2.4 1-1.8 1.7-.8 2.2 1.7.7zM269 64.8c1.1-1.3 4.4-4.3 7.3-6.8l5.2-4.5 3-7.4a28 28 0 0 0 2.6-8 74 74 0 0 0-9.2 7.8l-8.7 8.2-1.8 5.7a65 65 0 0 0-1.8 6.5c0 1.3 1.2.8 3.4-1.5zm102.7-6.4v-5.6l-2 1.7c-1 1-1.9 2.4-1.9 3.1 0 2.2 1.9 6.4 2.9 6.4.5 0 1-2.5 1-5.6zm-38.5.6c1.6-1.6 2.6-3.2 2.4-3.5-.3-.3-2 1-3.7 3-1.8 2-2.9 3.5-2.4 3.5a12 12 0 0 0 3.7-3zm8.5-8.5c2-2 3.1-3.5 2.7-3.5-.3 0-2.3 1.6-4.4 3.5s-3.2 3.5-2.7 3.5 2.6-1.6 4.4-3.5zm-11.5-.5c.4-.5.2-1-.4-1-.5 0-1.3.5-1.6 1s-.2 1 .4 1a2 2 0 0 0 1.6-1zm-28.1-5.5c4-3.5 4.4-5.5.7-3.6-2.2 1.2-6.8 7.1-5.5 7a21 21 0 0 0 4.8-3.4zm35.1-1c2.7-2.4 4.7-4.7 4.4-5-.3-.3-3 1.7-6 4.5-3 2.7-5 5-4.3 5 .5 0 3.2-2 6-4.4zm12.6-1.6c0-.6-.5-.7-1-.4-.6.4-1 1-1 1.6 0 .6.4.8 1 .4.5-.3 1-1 1-1.6zm306.4 257.5c-1.5-.3-4.1-1.8-5.9-3.4l-3.1-3 .5-4.2.6-4.3 3-2.6a16 16 0 0 1 6.5-3.3l3.7-.6 5.5 2.6v6l-2.3.3-2.2.3v-1.5c0-.8-.7-2-1.5-2.6l-1.4-1.2-5.1 3.3-.7 3.6-.7 3.6 1.8 1.2c1.5 1.1 4.5 1.2 8.4.3.7-.2 1.9.4 2.5 1.4l1.1 1.7-1 1c-1.3 1.3-6.1 2-9.7 1.4zM.2 286.8c-.5-.4 0-5.4 1-11 1-5.7 1.8-11.5 1.8-13 0-1.4.4-2.9.8-3.2.5-.2 3.7-.6 7.2-.7l6.4-.2 2.3 2.8 2.4 2.7-.1 5.2c0 2.8.2 6.8.5 8.7l.7 3.6-5.4 6.4-8.5-.2c-4.6-.2-8.7-.7-9.2-1.1zm16.6-6.4.3-2.2-2-1.1a10 10 0 0 0-4.9-.9l-2.7.3-.3 1.9c-.2 1-.1 2.4.2 3.3l.6 1.5 8.5-.7zm-.8-9.6c0-2.3-3-5.8-5-5.8H9v7h7zm384.4-71.3-5-1-4-.6-4.3-4.7a48.4 48.4 0 0 1-6.2-8.2 53 53 0 0 1-3.1-12.6l-1.3-9.2 1.3-7.3c.7-4 2.2-9.6 3.2-12.4a54.7 54.7 0 0 1 6-16.2c2.1-4.6 4.9-11.8 6-16 2.3-8.4 3.4-15.9 5-32.3 1-10 1-15.2.6-21l-.2-2.5h3l1.3 4 1.3 4-.6 5-2.5 21c-1.1 8.8-2.7 18.7-3.5 22-.9 3.3-3.6 10-6 15a84.9 84.9 0 0 0-7.1 19 58 58 0 0 0-2.5 10.2l-1.3 7.2.7 7.7a49 49 0 0 0 2 10.5 53.4 53.4 0 0 0 12.6 14c1 .5 3.1 1 4.5 1 3.5 0 20-8.4 22.3-11.3 1-1.3 4.1-3.9 7-5.7a28 28 0 0 0 7-6.5c1-1.7 2.4-3.7 3.3-4.4.9-.7 3.4-2.1 5.7-3.2s5.6-3.3 7.5-5a25 25 0 0 1 12.7-6c2.3-.6 5.8-2.4 7.8-4.1l3.4-3 9.3-3c5.1-1.7 11.7-3.2 14.7-3.5s8.2-1.1 11.4-2l6-1.7 5.7 1.2c3.1.6 10 1.1 15.2 1.1h9.5l18.7-4 4.4 1.2c4.2 1 7.7.8 11.6-.7l1.8-.7v2.8l-4.5 1.3c-2.4.7-4.9 1-5.4.7-2-1.2-11.7-.8-17.7.8-3.3.8-11.4 1.7-18 2l-12 .3-8.4-2.4-8.8 1.9-18.4 4-9.4 2.3-5 3.7a29.7 29.7 0 0 1-13.8 6.2c-1.5.3-5 2.4-8 4.6a32 32 0 0 1-6.2 4c-.5 0-2.9 1.4-5.3 3-2.4 1.8-4.4 3.7-4.4 4.5s-1.7 2.7-3.8 4.5a89 89 0 0 1-33 20.4 6 6 0 0 1-2.8.1zm-205.6-33.3c-2.2-1-5.4-2.8-7-4.2a24 24 0 0 0-7.5-3.8c-2.4-.8-5.2-1.8-6.2-2.3s-3.2-.9-5-.9H166l-16.9-8.2-6.4-.8c-6.6-.8-11.3-3-11.3-5.4 0-2 2.6-2.7 4-1l1.2 1.4h3.7a41 41 0 0 1 16.6 4.5c7 3.1 11.7 4.5 15.1 4.5 1.7 0 4.3.8 6 1.8 1.6 1 4.6 2.5 6.5 3.2 2 .8 5.6 2.9 8.3 4.6 2.6 1.8 6.4 3.8 8.3 4.5l3.7 1.2 2.4-2.5c1.3-1.3 3.2-4.8 4.1-7.8l1.7-5.5v-19l-4.8-15 .3-6 .4-12.5v-6.5L205.2 77l2.5-13.9 4-1.3L214 64l-3.8 11 .5 4.3 2.1 13 1.6 8.5-1 3.4c-.5 1.9-1 5-1 7s1 6.5 2.1 10l2 6.4.7 10.1.5 10-5.4 16.4-2.6 2-2.5 2H203c-2.3 0-6-.8-8.3-1.8zm281.5-55.4c-.5-.7-1.8-3.8-2.7-7l-1.8-5.6-4.3-1a32 32 0 0 0-5.7-1.2c-.8 0-3.1 2.4-5.3 5.3a58 58 0 0 1-5.3 6.4c-.9.7-1.9 1-2.4.7-1.8-1.1-.6-3.9 5-10.8a93 93 0 0 0 9.2-14c3.4-6.6 6-9.3 8.1-8 .6.3 1.5 1.7 2 3.1a100 100 0 0 1 2.5 12.2 66.8 66.8 0 0 0 5.5 18.8c0 .6-.8 1.4-1.6 1.7-.9.4-1.8.6-2 .6 0 0-.7-.5-1.2-1.2zM471 91.6c0-2.8-1.3-7.6-2-7.6-.8 0-5 6.2-5 7.3 0 .3.8.8 1.8 1 3.4 1 5.2.7 5.2-.7zM311 24.8l-5.3-1 .3-1.6c.4-1.7.9-1.8 4.3-.8 1 .3 2.5.2 3.2-.2l1.2-.8-1.4-12.9-2.3-1c-1.2-.5-2.2-1.7-2.2-2.6 0-.9 1.1-2 2.5-2.7 1.4-.7 3.2-1.2 4-1.2.6 0 3.7 1.1 6.8 2.5l5.5 2.4 2.6 3.4 2.6 3.4v8l-2.2 2a18.5 18.5 0 0 1-5.1 3.2c-3.3 1.3-7.1 1.2-14.5 0zm15.5-5c.7-.5 1.3-2.4 1.3-4v-3l-3-2.9c-1.5-1.6-3.5-2.9-4.3-2.9H319v7.6l.2 7.6 2.9-.6c1.6-.3 3.5-1.1 4.3-1.7z"/>
</svg>
