<?xml version="1.0" encoding="utf-8"?>
<svg xmlns="http://www.w3.org/2000/svg" version="1.1" viewBox="0 0 728 591">
	<title>Sketch of stone block city walls with a tower on the right.</title>
	<path d="M706 588c-1-3-1-10 1-12s3 1 4 7v7c-1 2-3 1-5-2zm-1-17c-1-1-2-3-2-9-1-6 0-7 2-7 3 0 5 2 5 9 1 5 1 6-1 7-2 2-2 2-4 0zm-423-44c-1 0-2-14 0-17 0-3 8-6 10-6l3 2c1 2 3 2 8 1 8-2 11-1 9 1s-17 4-22 3c-5 0-6 1-3 4 5 5 1 15-5 12zm-78-1c-2-1-2-2-1-4v-5l-4-3-2-2c0-6 12 2 14 10 2 4-3 6-7 4zm333-3c0-2-1-3-4-3l-3-2c0-1 1-2 6-2h6c2 0 1 4-1 6-3 4-4 4-4 1zm164-4v-2c1-2 4-1 4 0 1 3-2 4-4 2zm-192-5-1-7c0-6-1-8-2-10-5-6 1-11 5-5 2 3 2 4 2 12l-1 10h-3zm39-7c0-4 2-5 6-4 1 1 1 1-1 4-3 4-5 4-5 0zm-348 1c0-1-1-2-3-2s-4-2-5-6-3-5-10 0c-6 4-13 6-16 5l-5-2c-2 0-3-1-3-3s1-3 3-3l3-1 6-2c5 0 6-1 7-4a19738 19738 0 0 1 4-11v-3l-2-2c-2 0-7-5-7-7l1-3c3-2 2-4-2-4-3-1-4-1-5-4-1-4-9-12-12-12-2 0-5-5-5-8 0-2-3-3-7-1v1c2 1 2 1 1 4l-2 3c0 1-1 2-3 2l-5 3c-5 2-7-1-3-4v-3c-2-1-1-4 2-6l8-3c4-1 6-3 7-4 1-2 2-4 4-4 2-1 3-3 1-3-3 0-1-10 3-14l3-4c-1-2-6 4-7 6l-3 6c-1 2-2 3-1 5 1 5-4 5-6 0l-5-7c-4-4-5-6-1-6l5 4 4 4c3-4 2-8-1-7-2 0-2-1-3-6-1-4-2-7-4-9s-2-3-2-8l1-10c2-9-2-5-6 4l-3 6-3-3c0-2-1-3-2-3-2 0-1 2 0 4 2 2 2 3 0 3s-4-2-4-5c0-2 0-2-3-2l-10 1c-4 1-8 1-10 3-5 2-7 1-8-3 0-4 2-5 6-5h9c3 0 5-1 7-5 5-6 8-6 7-2l1 3 3 2c0 3 2 2 2-2l2-5 1-4c1-3 1-4-1-6-2-1-2-3-2-5a76 76 0 0 1 14-24c2-2 2-3 0-5-1-2-1-2-3 1-2 2-4 3-7 1-2-1-2-1-4 1l-5 9 3-2c2-2 3-2 5-2 5 1 5 2 3 4-2 1-3 4-4 7-1 5-4 7-5 5h-1l-3 2-1 1 2 2c2 0 2 0 1 4l-1 5c-1 1-6-5-6-7s-2-2-5-1h-8c-4-1-4-1-6 2s-4 3-8-1l-3-2 7-7 5 2c8 3 9 3 13 2 3-1 4-2 4-4l1-5v-4c-1-1-2-3-1-5 0-5-2-7-6-4s-6 4-9 1h-7l-7 1-6 2c-2 2-3 2-5 0-4-3 2-8 8-7 3 1 4 1 6-4 5-8 11-8 11-2l1 6c2 1 2 1 6-1l3-2v-12c1-16 0-16-7-16-15 2-17 2-19 1-3-1-3-5 0-7s12-2 12 0c1 3 11 1 14-2 2-2 2-2 1-8l-3-10-1-8v-10l-1-6h-7c-13-2-12-5 0-5l7-1 1-4-1-10v-5l-5-1c-6-1-8-1-8 2 0 2-5 3-10 2-3-1-3-2-3-5l-2-3c-1-2-2-5 0-6l1-4c0-4 2-6 6-7 3-1 7-7 5-8l-5 3-6 4c-2 0-1-3 1-5s3-5 1-5l-7 5c-4 4-5 5-6 4s-1-2 1-4c4-5 4-6 0-6-3-1-4 0-7 2l-4 3c-2 0-3-3-1-4s1-3-1-3l-5 3-5 3c-2 0-3-2-1-4 5-4-3-4-9 0l-6 3c-2 0-1-2 1-4 3-2 2-4-1-4-2 0-4 1-5 3-4 5-11 8-11 4l-2-1c-3 2-3 1-4 0v-3l4-3 2-2-3-3c-4-4-4-5-1-6l13-1 9-1 2 2c3 2 4 2 18 2 13 0 16 1 19 2 2 1 4 2 5 1 3 0 17 1 23 4 16 4 15 4 15 13l-1 5h4l8-2c6-3 12-4 34-6a251 251 0 0 0 39-6c3 0 5 3 5 5 0 4-3 4-5 1l-2-3-9 2-25 6-6 2-10 2c-8 3-10 3-7-1l2-3-10 4-8 3-9 1c-1 1-2 2-2 5v33c-2 2-2 4-1 5l1 4c0 3 0 3 5 1 6-2 6-3 7-5h-1c-2 1-3 1-3-1l5-7 7-9 6-10c4-7 5-8 2-8-4 0-13 12-15 19 0 2-1 3-2 3-4-1-3-4 2-12 6-8 5-9-2-7l-5 1c-2 0-1-4 2-6 2-2 16-4 29-6l7-1 10-1c8 0 14-2 25-6 5-2 10-2 10 0l-2 3-4 3-5 2-7 1c-4 1-5 2-5 4l-3 3c-4 1-8 6-8 11l-2 7c0 2 0 2 2 0l9-12 9-11c2-1 3 0 2 2l-6 8-3 4-4 5a805 805 0 0 0-13 17c-3 5-5 6-11 4l-5-1 1-7v-12l1-2c-1-1-7 5-7 6 0 2-6 9-8 9l-2 1 2 2 3 1c0 1-1 4-3 5l-2 5c0 3-3 4-4 2-1-1-2-2-3-1-3 0-4 3-7 10-2 3-2 4-1 4l3-2 3-2c2 0 2 0 0 4l-3 5c0 1 0 2 2 2 3 0 3 1-1 8l-3 7c0 2 1 1 2-1 2-4 6-8 9-8s4 4 2 6l-3 6c0 3-1 4-3 5s-5 6-4 7l2 1 5 2c2 3 3 3 5 2s6-8 6-10l-2-1c-2 0-1-4 1-9 5-8 5-9 5-16 1-8 1-9 6-11s6 0 2 5l-2 5h2c4 0 5-3 5-10 0-6 0-6 3-7l7-7 8-13 7-9c4-8 11-16 14-16s2 1-1 4l-7 9c-3 4-3 5-2 7s3 3 5 0c5-6 11-11 12-11 3 0 4 2 3 4-7 7-21 24-21 26s6-1 9-4c3-2 4-3 8-3l4 1-2 1-3 3c-1 2-5 6-7 6-1 0-7 7-10 13l-5 7-2 3-4 4-1-5v-10l-1-6 7-8 8-12 1-3-2-1c-3-1-4-1-6 2-5 4-14 18-14 21l-1 4v2c2 1 2 4 0 8l-2 3h2c2 0 3 0 3 2l-2 5-3 6c-1 2-2 5-4 5-1 1-1 1 1 1 4-1 4 2 0 2-4 1-6 2-9 9-3 5-6 7-6 4s6-13 8-14l4-4 3-5v-4c-2-1-3-5-1-6 1 0 1-2-1-2-2-1-7 4-10 11-3 5-4 7-3 8 2 4 0 8-9 17l-9 10c0 2 1 2 3 0h4c1 2 2 2 4 0 3-2 6-3 8-2l2 4c2 2 3 3 5 3s4 3 2 3l-3 1c-2 2-2 2-1 3l1 3c0 2-1 2-3 2-3-1-3 1 2 4 4 3 8 4 9 2h5l-2 4-1 3c0 1 2 0 2-2 2-4 10-10 13-11 3 0 10-9 9-12-1-2-3-1-6 2l-8 5-7 5-3 3c-2 0-1-4 4-9 4-5 6-11 4-13l-1 3c0 2-1 4-3 5-4 4-5 2-2-6 0-2 0-2-2-2s-6-4-6-5l3-3c3-1 4-2 5-4 1-3 1-3-3-3-3 0-3-3 0-4l13-12 15-18c4-6 9-9 13-9 3 0 3 0 3-4s3-10 4-10l1 4a441 441 0 0 0-1 33c-3 4-2 8 1 11s4 4 5 12v12a1165 1165 0 0 0-1 16v14l-2 13c-2 4-2 5-1 7v4c-4 3-1 20 3 23 2 2 1 9-1 9l-2-2c-1-2-2 0-2 4 0 5 0 5 4 5 3 0 4 1 4 3 0 3-2 5-6 5-3 0-6 3-6 6l-3 12v6l2 9c0 3 0 4 3 6l4 3c0 3-3 5-7 6-3 0-4 1-4 6v9c1 4 1 4-4 8l-3 5c1 0 3-1 3-3 2-3 4-3 5 0 0 2 2 3 3 3l4 4 4 5c3 2 4 5 1 7h-2zm-29-66c4-6 3-8 0-2l-4 5-1 1c0 4 3 2 5-4zm-3-2 2-7-2 2-2 2c-1 1-1 0-1-2v-4c-2-2-1-9 1-13l12-19c3-3 13-18 13-20 0-5-9 5-18 20-2 4-4 6-5 6-1-1 0-2 5-10l4-10 1-3v-2l-2 2-8 12c-4 4-4 4-2 6 1 1 1 1-1 3l-10 14c0 2 0 2 2-1l4-5c1-3 5-3 5 0l-4 8-3 9-3 5c-4 2-2 10 3 9l3 1c2 3 3 2 6-3zm-14-10v-3h-2c-2 2-1 5 0 4l2-1zm28-14h-2v3l2-3zm-1-5c3-3 3-4 2-4l-5 5c0 1 1 1 3-1zm-29-9c2-4 2-5-1-3-2 2-4 2-4 1 0-2 4-6 7-6l5-3c3-3 4-4 1-4l-1-1c0-1 2-3 6-3 3-1 6-2 8-5l5-3c1 0 7-8 6-9l-3 1-6 2c-2-1-3-1-3-5 0-3 0-4 2-5 4-2 21-20 21-22 0-3-1-3-4 0l-4 3-7 8-6 7-3 4c-1 2-3 4-6 5l-6 3c-5 4-7 1-2-3l2-3-5-1 3-2 7-2c4 0 4 0 10-8l8-9c2-1 3-4 1-4l-9 8c-1 2-1 2-2 1l-7-2c-6 0-6 0-7 3v4c2 1 2 1 1 4 0 1-1 3-3 3l-4 2c-3 3-6 4-6 1l-2-2-1 3-2 4c-2 1-2 2-1 5l1 4 2 5c0 3 0 4 2 3h3c2 1 0 3-3 3h-2c0 2 5 6 6 6 3 0 2 2-1 3-2 0-3 1-4 4-2 5 0 7 4 8 2 0 3-1 4-3zm2-18 1-1 1 1-1 1-1-1zm0-9c1-1 8-6 9-5 0 1-6 7-8 7l-1-2zm-15 13-1-1v2c0 1 1 1 1-1zm31 0c1-2-1-2-3-1v2l3-1zm26-12h-3l1 1 2-1zm-68-2v-1l-2 1 1 1 1-1zm58-15 5-6-12 11c0 2 2 1 7-5zm-43-5c4-2 6-4 4-6s-5-1-8 4l-2 3c0 1 3 1 6-1zm11-3h-1v2l1-2zm-17-1c0-2 2-4 3-5v-2c-2 1-7 9-5 9l2-2zm-9-3c2-4 1-5-1-2-2 4-3 5-1 5l2-3zm66 0c1-2-1-2-2-1v2l2-1zm-75-7v-2l-1 2c0 3 1 2 1 0zm55-4c5-2 16-13 16-15-1-3-6-2-9 1l-3 4-5 6-4 6 5-2zm18-8c3-1 4-2 4-5l-1-4c-1-1-1 0-1 1l-3 4c-2 1-3 4-3 5l4-1zm-22-11 4-6 5-5 5-5c2-5 8-10 8-7l-10 14c-1 1-2 6 0 6l5-5c5-5 7-4 3 1l-2 4h4c5 0 8-2 8-7 0-4-6-17-8-18-2 0-6 3-14 13a3163 3163 0 0 1-13 20l5-5zm-1-9 7-9c7-8 6-11-1-7-3 1-10 8-14 13-2 3-2 3 0 4l3 1c2 1 3 1 5-2zm-57 0v-1l-2 1 1 1 1-1zm55-17 3-4c3 0 6-3 15-14a148 148 0 0 1 9-11c0-4-9 0-14 6-1 3-5 8-9 11-6 7-10 15-10 18l-1 2-1 2c0 2 8-8 8-10zm-52-2c0-2-2-1-2 1v1l2-2zm76-10c2-1 3-4 3-5l-2-4a250 250 0 0 1-12 14l2 2c2 1 3 0 4-1l5-6zm-22-16c1-2 0-3-1-1v3l1-2zm6-8c2-3 1-4-2-4-4 1-5 3-3 4h5zm-20-24-2-1-1 1 2 1 1-1zm-13-18 5-2 5-2c2 0 2 0 1 2-1 1-1 1 1 1l6-4 4-3 2-3-11 1c-8 1-12 2-13 4l-13 18 6-6c3-4 6-6 7-6zm3 6h-1l1 2v-2zm-62-7c2-2 2-2 10-2 8 1 9 1 7-9-1-5-1-6 1-9 1-3 2-4 1-5-1 0-5 2-6 4s-4 3-4 0c0-2-3-1-8 4-6 6-7 10-5 14v4c0 3 1 2 4-1zm13-27v-1l-1 1v1l1-1zm-83-6 1-2-4 2v2l3-2zm216 328c-1-3 1-4 4-3h6c2 0 3 1 3 2 0 2-12 3-13 1zm30-1v-3h4c2 1 3 3 0 4-1 1-2 0-4-1zm267 1c-2-2 1-3 8-4h8c2 1-1 3-7 4h-9zm-282-7-1-4c-2-2 0-4 2-4 4 0 5 2 3 6-1 2-4 4-4 2zm452-3c-1-2 1-6 4-8 2 0 2-1 2-11 0-9 0-10 2-11h3v26l-2 1-3 2c-2 3-5 4-6 1zm-153-4 1-2c1-2 4-1 4 1 0 3-4 4-5 1zm-153 0c1-2 3-2 3-1l-2 2-1-1zm8-2c-3-4-2-20 1-20s4 2 4 10c0 10-2 13-5 10zm-84-3c-2-1-3-4-3-5s-1-4-3-5c-2-3-2-4-1-5 2-2 3-1 7 2 3 2 3 3 3 5-1 2-1 4 1 5 1 2 1 5-1 6l-3-3zm-62-2c-2-3 0-5 3-5 4 0 5 2 5 5-1 4-7 4-8 0zm-10 1v-15l1-3c0-2 1-3 4-3l8 1c4 1 4 1 6-1 2-1 15-3 16-2 2 1 0 3-4 3-3 1-4 1-4 3l-10 1c-11-1-12 0-11 8l-1 7c-1 2-4 3-5 1zm-36-1c-3-1-2-5 1-5 4 0 6 3 4 5h-5zm297-3c-2-2-2-3-1-6v-5a703 703 0 0 1-3-39c1-1 1-1-1-1-4 1-5-3-2-5s3-2 3-20c0-9 1-13 2-13v-5c-2-2 0-7 2-8 1 0 3-2 4-5 2-5 6-8 10-8 2 0 3 1 3 5 0 3 0 4-2 5l-3 3c0 3 3 2 8-2l5-5-1-6c-1-5-3-6-5-4l-4 2c-2-1-3-1-3-6l-2-3h-2c-2-2-3 0-3 7 0 8-3 14-6 14-2-1-3-17-1-27s2-13 0-14c-1-1-2-11 0-12v-26h-2c-4-1-4-3 0-6 3-2 4-3 2-3l-4 2c-4 4-7 4-9 2-1-1-3-2-4-1-4 1-3-2 1-9l5-10c2-4 4-7 6-7s3 2 0 4v3c1 1 1 0 2-2 2-4 4-4 8 0 2 2 3 4 2 5-2 4-3 9-2 11 0 3 2 4 2 1 0-1 2-3 3-1l1 20c0 18 0 20-2 24v6c1 2 1 2 3 0l4-7c1-4 2-5 4-5 3 0 3 0 3 2 0 4 0 5-2 7-2 3-5 13-4 14l1-1 3-4 5-7c1-3 3-4 4-4 3 0 3 3 0 6s-4 4-2 5l1-1 3-4c2-1 4-4 5-8 2-7 4-8 5-3 1 4 0 10-4 19-2 6-4 7-8 5-2-1-2-1-4 1-2 3-3 5-1 5l1 1c0 1 1 2 3 2l5 2 3 3c2 0 6-5 7-8 0-3 1-4 3-4 4 0 5 2 1 7-3 4-10 9-14 10l-3 4-4 4-5 5-3 4-5 4c-3 3-4 5-4 8a3216 3216 0 0 1-4 30 98 98 0 0 0 3 39l-1 8c-1 8-2 10-6 6zm2-79v-4h-1l-1 5c-1 2 0 2 1 2l1-3zm5-15-1-1h-1l-1 2c0 2 0 2 1 1l2-2zm4-13c2-2 2-3 1-3-2 0-6 5-6 8h2l3-5zm10-24 2-4c-1-1-6 5-6 7s1 1 4-3zm14-10c0-2-3 1-3 3-1 2-1 2 1 0l2-3zm-31-10 1-6v-5l-1 4-2 6c0 2 2 3 2 1zm-16-45v-4l-2 5 2-1zm30 194c0-2 3-3 14-4 10 0 10 0 10 2 0 1-1 2-7 2h-17zm33-1c-2 0-1-3 1-3 2-1 11 0 11 1-1 2-9 4-12 2zm20-2c-2-1-1-4 1-5 3-2 4-1 2 3-1 2-2 4-3 2zm-7-3-1-3c0-3 5-7 6-6 2 1 0 10-3 10l-2-1zm-339-5c-3-2-3-5 0-5s5 2 5 4c-1 2-2 2-5 1zm172-2-2-2c0-1 6-2 9 0 4 2 0 4-7 2zm115 0 6-3c2 0 2 2 1 3h-7zm16 0 2-2 3 2-3 1-2-1zm15-1v-2c2-2 3-1 3 1s0 2-3 1zm-338-1c0-2 3-3 7-3s5 1 4 3c-1 1-11 2-11 0zm101 0c-1-2 2-4 6-5 7-2 7 1 0 5h-6zm38-2c-3-1-5-3-5-4 0-3 2-4 4-1 3 3 10 5 16 4 3 0 4-1 5-3 1-6 2-8 4-8s2 0 2 6c-1 6-1 6-4 7l-11 2c-5 0-7 0-11-3zm-65 1 1-4 1-5c0-3 0-3 3-3 5 0 6 5 2 10-2 3-6 4-7 2zm95 0c0-2 1-4 3-4 1 0 3 3 2 4h-5zm-45-4c-2-1-2-6-1-8 3-4 3-17 1-20l-3-6c-2-6-5-8-11-7-7 0-10-1-10-4 0-2 1-3 5-1 3 1 6 2 11 1l13 1c10 2 23 2 26 0 5-2 9-1 13 3 7 7 12 6 12-3 0-4 0-6 2-8 3-2 5-1 5 3-2 6-2 10-1 11l2-1h8l6 1-6 2-5 1c-4 2-16 2-20 1l-6-4c-2-2-6-3-8-1 0 1-18 1-26-1h-6c-2 1 0 4 4 5 2 1 2 1 1 14 0 15-1 20-2 21h-4zm364-2-1-3c0-2 0-2 2-2 2 1 3 4 1 5h-2zm-154-1-1-4c0-5 3-8 7-5 2 1 3 2 3 4 0 3-1 4-2 5h-7zm-26-6v-3c1-2 2-2 10-2 7 0 8 1 8 2s-1 2-7 2l-9 1h-2zm52-2-4-1c-3 0-4 0-4-2 1-2 4-3 9-3 4 0 5 1 4 4 0 3-3 4-5 2zm123 0c-2-2 0-3 4-3 3 1 4 2 1 3h-5zm12 0 1-1 2 1-1 1-2-1zm7-4c0-2-2-2-5-1-3 2-5 0-2-2 3-3 14-3 15-1l-2 4c-2 2-6 3-6 0zm-15-1c-1-1-1-3 2-3l1 2c0 3-1 4-3 1zm-416 0-2-8v-10c1-2 1-3-5-3-6-2-7-2-7-4s29-1 30 1 1 3-4 8l-5 7c0 5-6 12-7 9zm-160-2c-3-1-5-2-5-4s4-3 6-1l4 1c3 0 3 1 1 3l-1 2-5-1zm398-2c-1-3 1-4 5-4 6 0 6 4 0 5l-5-1zm21-4c1-2 5-3 5-1 0 1-1 2-3 2l-2-1zm166-1c-2 0-1-3 1-5h3c2 1 2 2 0 4l-4 1zm-17-2c-2 0 0-2 2-2l2 1c-1 2-2 2-4 1zm-164-4-7-1c0-2 3-3 9-3 5 0 9 2 9 3-1 2-2 2-11 1zm173-3c-4-1-5-3-1-4 2 0 3-1 3-3 1-4 2-3 3 2 1 6 0 7-5 5zm-131-4c-1-2 1-5 3-4l2 3c-1 3-4 4-5 1zm-71 0 1-1 1 1-1 1-1-1zm85 0c-1-1 1-2 2-2 1 1 0 3-1 3l-1-1zm-43-2 1-1 1 1-1 2-1-2zm154 0c-2-1 0-4 2-4l1 2c0 3-1 3-3 2zm-444-2c0-2 4-4 7-3 4 2 2 4-3 5-3 0-4 0-4-2zm-34-3c-2-3-1-4 2-4l9 1c5 0 6 0 6 2s-1 2-8 2l-9-1zm-110-1c-3 0-3-3 0-5 2-2 3-3 16-6l10-3c2-2 4 0 4 3 0 1-1 2-3 2l-4 2c-2 2-3 3-6 3s-6 0-9 2c-5 3-5 3-8 2zm143-2-1-5c0-3 0-4 3-6 5-2 6-1 6 6l-2 6c-2 1-5 1-6-1zm297 0v-2h3l1-1c1-2 4-1 6 1 3 3 1 4-3 3h-4c-1 1-2 1-3-1zm158-4v-7l3-4c2 0 2 1 2 5 0 8-3 12-5 6zm-182 1 2-2c1 0 2-1 1-3v-7c2-5 3-2 3 6-1 6-1 6-3 7l-3-1zm53-4c0-1 2-2 7-1h8c1 2-2 3-8 3s-7 0-7-2zm28 0 3-1 3 1c0 1-1 2-3 2l-3-2zm-69-2c-1-3 0-5 2-5s3 2 1 5c-1 2-3 2-3 0zm19-2c-2-2-2-2 1-5 2-3 2-4 1-6-2-2 0-3 2-2l4 1c3 0 7 3 7 4l-4 1c-3 0-3 1-4 4-2 5-5 6-7 3zm-207-2v-9c2-2 2-2 5-1l3 3-6 9-2-2zm235 0 2-1 2 1-2 2-2-2zm-115-4-1-2c0-2 0-2 3-2 3 1 5 0 8-1 4-2 5-2 7-1h11c1 2-1 4-4 4l-3 1-6 1h-15zm228 0c0-2 3-3 4-2 2 0 2 0 1 2h-5zm-244-3c-2-2-2-3-1-6a7630 7630 0 0 1 6-8l1 3v10c1 3-3 4-6 1zm-323 0-1-3c0-2 1-2 2-2 2 0 2 1 2 3 0 3-1 4-3 2zm290-2c-1-2-2-3-7-3-8-1-8-2-4-6l2-3 3 3c2 2 2 2 3 1l1-6 1-5c3-2 4 0 4 9l1 10c2 3-2 2-4 0zm14 0-1-1c1-1 14-2 15-1 1 2-2 4-8 4l-6-2zm103 0c0-1 4-3 8-3 5 0 6 2 2 3h-10zm164-2 1-1 2 1-2 2-1-2zm-113 0c-2-1 0-3 4-3l4-2c2-2 6-3 6-1 0 4-11 8-14 6zm120-3-1-7c0-5 1-6 2-6 2 0 3 1 3 7l-1 7-3-1zm-341-2c0-1 1-2 3-2 5-3 7-7 7-14 0-4 0-6 2-8 2-3 4-2 4 4v17h-3l-6 2c-3 2-6 3-7 1zm-287-3c-1-2 0-5 2-5s3 2 2 5c0 2-3 2-4 0zm249 0-2-1c0-1 2-2 6-2 5 0 8 0 11-2s5-2 6 2c1 3-14 5-21 3zm214-2c-2-1 0-3 5-3l10-1c5-1 7 0 5 2s-19 4-20 2zm29 0c-2-1-1-4 1-5 4-3 9-4 9-2 1 1-2 5-5 5l-1 1c0 1-2 2-4 1zm-315-2c0-2 1-2 14-3l15-2c2 0 5 3 4 4l-12 1-16 2c-5 0-5 0-5-2zm442 0c0-2 1-2 2-2 4 1 4 4 1 4-2 0-3-1-3-2zm-394-1c-3-3 0-7 3-5l3 6c-1 2-5 1-6-1zm285-1c0-2 2-3 8-3 4 0 5 0 5 2s-1 2-7 2l-6-1zm-378-1 2-4 2-1c1 2 8 2 14-1 5-2 10-1 12 1 4 4 2 5-15 5h-15zm405-3c-1-1 0-2 1-2l1 1c0 2-1 2-2 1zm89-2v-13l6-1c3 0 4 1 6 3 3 3 4 7 2 9l-11 3-3-1zm-126-2c-1-2 1-5 2-5 2 0 3 2 2 4 0 2-3 3-4 1zm-21-1 1-2c1-2 8 0 8 1 1 2-8 2-9 1zm45-2-1-2 3-1 2 2c0 1-2 2-4 1zm14-2 3-2c3 0 3 0 3 2l-3 2c-3 0-3 0-3-2zm-326-2c-3-5 1-16 5-17 2 0 4 3 2 5l-1 7c0 6-4 9-6 5zm279-2-5-1c0-3 10-5 12-2 1 3-1 3-7 3zm-96-2c-3-2-3-3 0-3a3684 3684 0 0 1 25 0c0 1-1 2-9 2l-12 1h-4zm106 0c-1-2 3-5 6-5 2-1 2-1 2-4s3-6 6-5c2 1 1 10-2 10l-3 2c-3 2-8 3-9 2zm-160-2c-6-3-5-4 3-4l9-2 2-5c0-3 1-4 3-4s2 0 2 4-4 9-8 10a820 820 0 0 0-11 1zm26-1c-2-3 1-4 11-3l10 1c0 1-3 2-8 2l-10 2-3-2zm24-4-2-3c-1-1-1-1 1-3 3-3 5-2 5 2l-1 5c-2 1-2 1-3-1zm101-1c-2-1 0-3 2-3l4 1c0 1-2 3-4 3l-2-1zm37 0c-3 0-2-3 0-3 4 0 6 1 5 3h-5zm-208-1-3-3c-1-3-4-4-8-2-5 4-4 0 1-4 3-2 4-4 4-7s1-4 3-4 4 4 3 8l3 7 2 5h-5zm305 0c-1-1 0-2 2-2l1 1c0 2-2 2-3 1zm-155-2c-1-1 3-11 5-14s2-3 1-4c-3-2-2-3 0-4s4-3 4-5l3-5c2-1 3 2 1 5-1 4-1 4 2 3l26-1c2 2-2 3-13 3-12 0-13 0-18 6-3 3-6 9-8 14-1 3-2 4-3 2zm-178-3-4-1c-4 0-2-3 2-3s8 3 6 5c0 1-1 1-4-1zm186 0c-3-2 2-6 10-8 5-1 5 1-1 5-4 4-6 5-9 3zm42-1c-3 0-4-1-4-2 0-3 7-4 9-1 2 2 2 4 0 4l-5-1zm30 0c-2-1-1-3 1-3 3-1 5 0 5 1 0 2-3 3-6 2zm-279-1 1-2v-1l-3 1c-3 2-6 1-5-2 2-3 9-5 9-3l1-7c1-10 2-15 4-13 1 1 2 2 1 4l1 5 1 7c1 5 1 5-2 8-3 4-8 5-8 3zm351 0c-2-2 0-15 3-16 2-1 4 2 3 5l-1 5-2 5c-2 2-2 2-3 1zm-417-1c-3-2 0-4 4-4s4 0 4 2-1 2-4 3l-4-1zm289-2c-1-2 1-3 5-3l4 2c0 2-1 2-4 2l-5-1zm36-1 5-12c1-2 4-3 5-1 2 2 1 4-2 8l-3 4-2 2c-2 1-2 1-3-1zm-279 0-4-2 7-1c7 1 8 2 7 3h-10zm-19-1v-6c0-6 4-10 9-9 2 1 3 3 0 5l-1 5-1 5h-7zm-89-1c-5-2-2-4 10-5a533 533 0 0 0 22-1c4 3 8 2 10-1 2-4 4-6 6-6 3 0 2 4-3 9-3 4-4 4-7 3h-5a395 395 0 0 1-33 1zm411-6 1-2 1 1v1h-2zm-33-2c-2-1-1-2 3-2l4 1c0 2-6 3-7 1zm30-3h1v2l-1-2zm-367-4-2-5c0-3 0-4 2-7l4-6c0-2 1-3 3-3s2 4 0 11l-2 7c0 4-2 5-5 3zm331-1c-1-1 0-2 2-2l2 1c-1 2-3 2-4 1zm-121-4h-5c-2 1-19 0-21-1-1-2 3-3 10-3s7 0 11-4c3-3 3-3 4-2 2 1 2 2 1 5-1 4-1 4 5 4 4 0 5 1 2 2-2 1-4 1-7-1zm15 0 1-1 2 1-1 1-2-1zm210 0c-2-1-1-6 0-7 2-2 3-1 3 3 1 2 1 3-1 4h-2zm-367-3c0-2 0-2 2-2s2 1 2 2c0 2 0 3-2 3s-2 0-2-3zm193 2c1-2 19-3 20-2 2 2-1 3-10 3l-10-1zm-106-3c-7-1-9-2-7-4h4c6 1 15 2 18 1l5-4 4-3c2 0 2 0 1 4l-1 4-16 3-8-1zm154-1 1-2c1-2 5 1 4 2h-5zm9-2c0-3 1-4 2-4 2-1 3 0 3 3s0 4-3 4c-2 0-2-1-2-3zm13 2c-2-1-1-3 1-3s4 2 3 3h-4zm-52-3c0-1 2-4 4-4s2 3 1 4c-2 2-4 2-5 0zm-158-1c-3-2 0-3 7-3 6-1 7-1 10-4s3-3 5-2c2 3-1 6-7 8-8 2-13 2-15 1zm314-4c-2-1-1-4 1-5 3-2 4 0 3 4 0 3-2 4-4 1zm-332 0-8-2c-9 0-10-1-10-3h6l12 2c8 1 8 1 11-1l4-2c3 0 2 4-1 6h-14zm-292-7-1-2h-4c-6-2-3-10 3-9 2 0 3 1 3 3l2 5c2 1 2 2 1 3-2 2-3 2-4 0zm401-5c-1-5-1-6-3-8l-1-2c4-2 4-2 2-3-3-1-3-2 0-5 4-3 4-6-1-7l-6-1-3 1c-2 2-3 2-11 1l-10-2-9-2-13-2c-5 0-5 0-6 3-2 2-2 3-1 4s2 1 3-1l4-1c1 1 3 0 4-1 6-6 4 12-3 22-4 6-13 3-10-4 1-3 1-3-4-4-4 0-4 0-8 4-5 5-9 7-10 6s0-2 3-6l6-4c3 0 13-18 11-19l-17-1c-16-1-18-1-14-5 2-1 3-2 2-4l1-6c1-3 0-6-1-4s-5 2-5 1l1-3c1-1 1-2-2-4l-3-2h5a358 358 0 0 0 42 3 118 118 0 0 0 32 4c3-2 14-1 17 0l5 2c2 1 2 2 1 6v16h6c13-1 18-1 18 1 0 1 0 2-2 2-6 1-6 1-5 4 0 5-2 12-6 17l-3 6-5 5-1-7zm-59-8v-1c-2 1-3 3-1 3l1-2zm-5-7-2-1-2 1c0 2 3 2 4 0zm72-7-1-1-1 1 1 2 1-2zm-21-7 5-1 1-9v-9h-23c-2 1-3 2-5 7l-1 8 5 4c5 2 6 2 18 0zm-28-4c2-2 2-12 1-15-1-2-2-2-6-2l-9-2-5-1c-2 0-3 5-4 9l-1 6 3 4c4 2 19 4 21 1zm-30-6c3-3 5-12 4-14-1-1-18-2-21-1v10l-2 7c0 2 0 2 6 2 9 1 10 0 13-4zm117 45c-2-1 1-2 7-2s7 0 6 1c-1 2-12 3-13 1zm-198-1c-4-2-1-3 8-3l9-1c2-3 5-3 5 0l-1 4h-21zm219 0v-12c2-2 4-1 3 4 0 3 0 4 3 5 2 2 2 2 1 3h-7zm-100-2-1-3-1-3c0-7-3-7-8 0l-5 5c-3 0-3-2 1-7l4-8 2-7c1-2 2-2 6-2h7c4-1 4-1 7 1l4 2c2 0 1 4-3 12l-3 8c0 1-5 4-8 4l-2-2zm4-9c-1-2-3-2-3-1l2 2 1-1zm-5-8c2-1 2-2 2-3-1-2-6 0-7 3 0 2 2 3 5 0zm160 18c-1-2 0-3 3-3s5 2 3 3h-6zm-14-2c-1-2 2-3 4-1 2 1 1 2-1 3-2 0-3-1-3-2zm-285 0c-6-1-7-2-5-3h7c8 1 8 1 7 3h-9zm254-1c0-1 4-3 7-2v2c-2 2-7 2-7 0zm13 1c-2-2-3-7-1-8 1-2 3 0 3 4l1 3 1 1h-4zm-287-2h-8c-10 0-24-3-26-5-5-4-5-12 0-11 2 0 2 1 2 4l1 6 9 1 16 2c9 1 13-1 15-5l4-7c5-6 6-9 5-13 0-2-1-3-3-4l-2-2-2-1-1 1-6 5-11 10c-5 5-6 6-6 3 0-2 7-11 10-12l8-9 10-8c3-2 6-2 6 0l8 1 8-1-4-1c-2 0-3 0-3-2s0-2-3-1h-4c-1-1 0-2 2-5 4-3 4-3 4-7-1-3-1-4 1-5l3 1 4 1c2 0 2 1 1 6-2 3-2 8 0 9l20 6c3 0 3 0 4-5v-8c-2-3-1-7 1-9 4-2 5-1 4 3s0 7 2 10c1 2 2 4 1 8 0 5-1 6-3 7l-5-1-3-1h-3l-7-2-8-2c-3 0-3 0-1 2s2 2 0 5l-8 9-5 6-6 5c-4 3-6 6-7 8l-1 4c-2 2-12 6-13 4zm26-40c1-1-1-1-4-1-5 0-8 1-8 2l12-1zm38 36 3-3 4-5 6-6 7-6c4-5 7-6 8-4l1 1c1-1 12-2 17-1l2 3c1 2 1 3-1 6l-4 6-7 6c-6 8-9 6-9-4 0-7 0-7-2-7l-4 1-9 7c-8 7-14 10-12 6zm-123-2c-1-2 1-3 10-3s12 1 9 3h-19zm114-1 2-3 1-6-1-7c0-2-1-3-2-3l-4-2c-1-1-1-1 1-2 2 0 3-1 3-2 0-2-3-1-6 3l-19 19c-3 0 0-4 8-13 10-10 14-13 21-13 4 0 15 4 16 6 1 3-1 7-4 10l-8 9c-4 6-8 8-8 4zm362-1-2-5 1-5c3-1 5 2 5 5 0 4-2 6-4 5zm-175-4c-2-2 1-2 10-3a3943 3943 0 0 0 27 2c-1 1-37 3-37 1zm93 0v-2c2-2 4-2 17-2 10 0 14 1 15 2l-2 1c-4 1-29 2-30 1zm-23-1c-3 0-4-2-2-3 3-1 8 0 8 2s-1 2-6 1zm-17-2 2-1 2 1-2 2c-1 0-2 0-2-2zm80-1c-2-1-1-2 0-2l2 1-2 1zm-569-2-10-2h-9c-2 2-4 2-6 1-4-1-4-4 0-4l7-2 5-2-1-5c0-4 0-4 2-5l5 1 3-1c2-2 5-3 7-1s0 8-2 11l-2 3h16c2 2 2 4 0 4l-4 1c-2 2-4 2-11 1zm171-3c-1-3 0-5 2-9 2-5 2-5 0-7-1-2-1-2 1-5l2-2-4-1-5 1-7 5-7 6c0 2-4 4-6 5l-7 5c-3 2-6 3-6 0 0-2 3-5 7-7s10-6 17-13l5-4c3-1 5-8 3-9-3-2-5-1-7 4-2 6-3 7-5 7l-8 3-9 4-2 2c-1 3-3 4-6 4s-3 0 1-5l3-11 1-8c2-2-1-1-3 1-2 3-3 3-7 1l-3-1 2-2 4-3v-3c-2-4-1-4 5-4l9 3 8 1c7 0 19 2 22 4 2 2 2 2 3-4l1-7c1-3-2-4-11-5l-12-2-11-3c-9-2-11-3-10-5s3-1 15 3l21 4c25 2 25 2 21 5-2 2-1 3 1 3s2 1 2 4l1 6c1 0 2 2 1 3 0 3 1 4 4 2 2-2 3-2 8 0 9 3 9 6 1 6-5 0-5 0-6 2s-2 4-4 4l-6 6-8 10-6 7c-2 4-5 4-5-1zm12-28c3 0 3 0 2-1l-7-1c-6 0-7 1-7 2 1 2 6 3 9 1l3-1zm-3-5c0-1-5-4-6-3v2c1 2 6 3 6 1zm11-1c0-1-1-2-3-2-2-1-2-2-2-6v-6l-2 3c-3 5-3 7 1 10 4 2 6 2 6 1zm-56-7-1-1-1 1 1 1 1-1zm340 44h2l-2 1v-1zm-434-1 1-8c2-5 2-7 1-8-2-1 0-8 2-9s3 0 2 3c0 5 2 7 5 6 5-3 5-1 1 4l-3 4-3 3-2 3c-1 3-3 4-4 2zm476-2-4-1c-2 0-3-1-3-2 0-3 18-2 18 0l-2 2-4 1c-2 2-5 2-5 0zm49-3c-1-1 0-2 1-2l1 1c0 2-1 2-2 1zm12 0c0-1 2-3 4-2l1 2h-5zm32-1c-2-8 1-21 5-19v15c-2 6-4 8-5 4zm-171-2c-3-1-2-5 2-4l8 2c5 0 6 1 3 2h-13zm26-1c-2 0-1-3 1-3 2-2 6-1 6 0l-5 4-2-1zm22 0c0-1 6-3 8-2v2h-8zm44-1c1-2 4-3 4-1l-2 2-2-1zm-24-2v-2h16c1 2 1 2-7 3l-9-1zm-236-5c-3-1-1-2 4-2l6 1c0 2-1 2-4 2l-6-1zm169 0c-1-2 0-2 11-3 8 0 13 1 12 2l-12 1h-11zm75-2c-2-2-1-3 2-3l4 1c0 2-5 4-6 2zm-232-1c-1-2 2-7 4-7 1 0 2 0 2 2 0 4-4 8-6 5zm189 0 1-1 2 1-2 1-1-1zm18-1c0-1 4-3 7-2v2c-3 2-7 2-7 0zm-6 0 1-1 2 1-2 1-1-1zm80 0c-1-1 0-2 6-3 6 0 6 0 6 2l-6 2-6-1zm-578-4-12-3-6-1 1-5c0-8 1-9 3-9s2 1 3 5v5h9c9-1 9-1 11 2 1 3 1 3-1 5-3 2-7 3-8 1zm452-1c3-2 15-2 15 0l-9 2c-7 0-7 0-6-2zm39 1 1-1 1 1-1 1-1-1zm52 0-1-2 6-1c7 0 9 0 7 3h-12zm66-2c0-2 3-2 5-1 1 2 1 2-2 2l-3-1zm-198-2c-5-1-6-1-6-3s1-2 13-1h5l-2-1c-3 0-3-2-1-4 2-1 3-4 3-5v-3l-2 3-9 5c-2-1-1-2 2-4 3-1 11-9 11-10 0-2-3-1-7 2-3 3-8 4-8 2l3-3c4-1 13-11 13-14l-1-2-6 5c-4 6-8 8-8 5 0-2 16-18 18-18s4-3 4-6l-1-3-9 8c-8 8-12 11-12 7l4-4c3-2 3-3 1-3-5 2-4-1 7-12l15-12c4-3 3 0-3 5l-4 6 4-3c2-3 4-4 8-2l1 10-1 14c0 5 0 7-2 7l-1-1c-1-1-1 1-1 5-1 6-1 7 1 8 2 2 3 3 0 4v7c2 3 2 9 1 9-2 1-3 0-3-3 0-1-1-1-1 2-2 5-4 5-4 0l-2-8-2 1v4l2 5c0 1-12 2-20 1zm22-19v-3c-1-2-4 1-4 3 0 5 2 5 4 0zm1-11-1-2-2 2c0 2 2 2 3 0zm-1-10c1-4 1-5-2-3-2 2-1 7 1 7l1-4zm-4-18v-1l-2 1 1 1 1-1zm11-4h-2l-1 1 1 1 2-2zM78 234c0-1 0-2 2-2s2 0 2 2c-1 3-4 4-4 0zm563 0c0-1 1-2 4-1h4c1 1-1 3-5 3-3 0-3 0-3-2zm53 0-3-11c0-4 3-13 4-13 3 0 4 8 1 13-1 1-1 2 1 4 3 4 3 5 1 6-1 2-2 2-4 1zm-171-1-1-2c1-2 2-2 10-2 11 1 13 2 11 3-1 2-18 2-20 1zm37 0c-4-1-3-3 2-3 6-1 7 0 6 2-1 1-5 2-8 1zm35 0c-1-2 1-2 2-2 1 1 2 1 1 2h-3zm19-1c-2-1-1-2 4-2l5 1c-1 2-8 2-9 1zm-37-1c-1-1-1-1 1-2 3-1 8 0 8 1-1 2-7 2-9 1zm-224-2c-5-1-5-3-1-3s8 2 7 4c-1 1-1 1-6-1zm275 1v-2c2 0 4 1 3 2h-3zm-218-2-6-1c-6-1-7-3-3-5 2 0 3-2 3-3l-6-1c-6 1-7 0-2-2l3-2h-8c-4 1-4-1-1-2s4-4 2-5l-5 2c-3 1-5 2-6 1-1 0-1-1 5-5 3-2 2-4-2-2-6 2-7 2-7 1l3-4c5-2 5-3 3-5-2-3-1-11 1-12l4 2c2 2 3 4 3 7 0 6 1 9 5 11l2 3 1 2 1-1-1-2-1-2-2-2c-2-1-1-4 1-4 3 0 7 4 7 7l3 5c4 4 10 12 10 14l-3 1c-2 0-2 0-1 2l1 2h-4zm140 0c0-2 1-4 3-4l1 2c-1 3-3 4-4 2zm40 0v-2h2c2 1 0 3-2 2zm-389-8c-1-3-1-4 1-8l4-4c1 0 2 1 2 6l-2 8c-2 3-3 2-5-2zm125 3-10-3c-6-2-7-2-10-1-4 2-4 0 1-4 4-3 5-5 5-7 0-3-1-4-3-2s-3 1-3-2c-1-3-1-3 2-4h4c0 2 1 2 2 1 1-2 13-2 14 0h3c3-1 4-1 4 4v14c-3 1-7-5-7-10l-1-4-8 8h3c2-1 5 0 5 3 0 2 2 4 5 5l2 2h-8zm201-3c-2-1-1-2 2-2l2 1c-1 2-3 2-4 1zm18 0c-4 0-4-2 0-3 2 0 3-1 3-2 1-3 5-3 6 1 1 2 1 3-1 4l-3 1-5-1zm-493-1c-5 0-7-1-7-2s1-2 3-2l3-2c0-2 0-2-4-2-5 1-7 0-5-3 2-2 10-2 13 0l8 4c4 2 5 3 5 5s0 2-5 3l-11-1zm510 0c1-2 6-3 6-2 2 2 0 3-3 3l-3-1zm48-1v-1c2 0 2 1 1 2l-1-1zm5 1c0-1 1-2 9-3l7 1 1 1c-1 1-16 2-17 1zm-37-2c-2-1-1-2 1-2l2 1-3 1zm16 0c-3-1-3-3 1-3s6 2 4 3h-5zm8-4 2-2 2 2-2 2-2-2zm-29-1c-1-2 1-4 2-4 3 0 3 3 2 4-2 2-3 2-4 0zm-381-2c0-1 1-2 2 0l-1 1-1-1zm334 0c-1-2 1-2 8-3l8 1c0 3-14 4-16 2zm20-1v-2c2 0 5 1 4 2h-4zm73 0c-8 0-11-1-12-2-2-2 1-2 13-2 11 1 11 1 10-1 0-2 2-4 4-2 1 1 1 1-1 3l-1 2v1l-2 2-11-1zm-63-1c0-1 2-2 6-2l3 1c-1 2-9 2-9 1zm-202-1c-1 0-2-13 0-15l6-2c8-1 12-2 12-5 2-4 0-5-5-2l-5 2c-1-1 3-5 5-6l2-2c0-3-1-3-4 0-3 2-6 3-6 1l2-3c4-2 4-4 2-8l-2-6-2-5-1-3c2-3 12 0 12 4s3 9 7 13 4 6 0 6h-2l2 2c2 2 3 6 1 8l-5 3-4 4c0 4 1 4 5 2 5-2 8 0 3 2l-4 2c-3 0-4 2-4 5l-1 3-6 1-8-1zm18-35c0-2-5-8-6-7l5 8 1-1zm271 35c-1-2 2-4 3-2 1 1 0 3-1 3l-2-1zm-63-1 1-2c1-2 4 1 3 2h-4zm10 0c-2-2-1-3 4-3s7 1 5 2l-9 1zm66-1c-2-3 0-3 8-3 6 0 7 0 7 2l-3 1h-12zm-457-3c0-5 1-7 4-7 3 1 4 5 1 8s-5 2-5-1zm495 0 2-2 2 2-2 2c-2 0-2-1-2-2zm-400-1c-4-2-11-4-23-5-10-1-14-2-13-4l3-1c2 0 2-1 0-4-2-2-6-4-12-5a113 113 0 0 1-17-3c-3-1-7-2-9-4-4-2-4-2-6-1l-1 3c0 2-2 1-3-2-1-2-1-2-3-1-2 2-2 3-2 5 1 2 0 4-1 5l-1 4c0 3-5 2-6-1l1-3 1-5c0-4-4-7-8-5l-7 1h-5l4-2 8-3 8-1h9c1 1 2 0 4-2 4-4 8-3 9 3 1 3 8 6 18 7l7 1 10 1 9 3h6l8-4a331 331 0 0 0 51-22l9-3c7-3 10-3 10 1l2 5c1 1 1 2-2 6-4 5-6 5-12 4h-6c-2 1-2 1-1 6 1 4-1 19-3 21h-13a78 78 0 0 1-19-3l-5-1c-5-4-21-5-23-3-2 3-1 3 8 4 12 1 19 2 22 5 6 4 1 6-6 3zm21-10c-1-2-7-2-9 0l4 1 5-1zm-12-2 1-2-3-1c-3 0-4 1-3 3h5zm-20-5h-2c-1 1 0 1 1 1s2 0 1-1zm35-15c1-1 1-1-1-1l-3 1h4zm11-2v-1l-3 1 1 1 2-1zm21-5 1-3-5 4c0 3 1 2 4-1zm225 40c-2-1-1-4 1-4 3 0 3 2 2 3s-2 2-3 1zm26-3c0-1 0-2 2-2s2 0 2 2c-1 3-4 4-4 0zm-78-3c0-1 5-2 11-1 7 1 5 2-3 3-7 0-8 0-8-2zm35 1 1-2c1-2 1-2-3-2s-5 0-5-2c0-1 1-2 4-1 2 0 3-1 3-3v-6c-1-2-1-2-3-1-1 2-1 2-3 1v-4l4-1h2l-2-5c-2-5-3-6-5-6-4 0-5-2-3-5 2-2 4-1 7 1 2 2 2 2 4 1 2-2 5-3 5-1 0 1 1 1 3-1 2-3 2-4-2-5-3 0-3 0-4 2 0 2-3 3-4 0l-2-1c-3 1-6-2-6-5s3-8 5-8l3 2 2 2 1-2 2-2c2 0 2 2 1 4-1 1-1 1 1 1l4-2c1 0 2 0 2 2l-1 3v2c2 2 2 3 2 6-1 3 1 4 3 1l2-2 2 2-2 2-1 1 2 1c4 0 2 3-5 5l-5 2-3 1c-2 0-3 2-1 3v4c-1 2 0 3 1 5v13h-6zm81-5c-2 0-3-1-3-2 1-3 10-3 10 0l-1 2h-6zm-417-1-7-3c-6 0-6-3-1-2l16 2c1 1 1 2-1 3h-7zm15 0c-4-1-5-2-3-4h6c6 3 4 6-3 4zm350 0c-3-2 0-3 5-3 7 0 10 1 10 2s-2 2-7 2l-8-1zm19-1c0-1 4-3 7-2 4 2 2 4-3 4-3 0-4 0-4-2zm51 1 1-2c3-1 12 0 12 1 0 2-12 2-13 1zm39-3v-8l3-3c3 0 3 1 2 8-1 6-3 8-5 3zm-586 0 10-5 18-5c16-3 31-6 33-8h8c2 2-5 5-19 8l-12 3-9 2-11 2-6 1-7 3c-4 1-5 1-5-1zm515 0c-3-3-2-7 1-7s4 2 4 7c0 2-3 3-5 0zm62 0c-2-1-4-3-2-4 2 0 5 3 5 4h-3zm-208-1a343 343 0 0 1 28-26c5-4 6-1 1 3l-15 14-12 10-2-1zm68-1 2-1c3 1 4 3 1 3-2 0-3-1-3-2zm-24 0-2-2c0-1 1-2 6-1 6 0 7 1 5 2-2 2-6 2-9 1zm126-2c-2-1 0-2 4-2l3 1c-1 2-6 2-7 1zm-108-1c-1-2 1-2 2-2 1 1 2 1 1 2h-3zm-9-3 1-1s2 0 1 1l-1 1-1-1zm59-1c-4-1-1-3 3-3l5 1c0 2-5 3-8 2zm-110-1c0-3 9-14 16-21 5-5 7-6 7-4l2-1c3-3 3-4 3-14l1-11c3-2 5-1 4 2l1 4c2 2 2 4 1 5l-3 9c0 7-1 8-2 8l-4 2c-1 1-2 2-4 1a89 89 0 0 0-18 18c-1 3-4 4-4 2zm120 0 1-1 2 1-1 1-2-1zm83-3c0-3 2-5 5-4 4 2 1 7-3 7-2 0-2-1-2-3zm-580 0c-2-1-1-5 1-6s3 1 2 4-2 3-3 2zm554-1c0-2 2-2 13-2 8 0 9 0 9 2s-1 2-11 2c-9 0-11 0-11-2zm-307 0c-1-1 0-3 2-6 3-5 5-6 5-4l-1 2-1 2 1 1h2c1 1 1 1-2 3-3 3-4 4-6 2zm167 0c0-1 1-2 8-3 5 0 8 0 8 2s-2 2-7 2l-9-1zm22-1 3-1v1l-2 1-1-1zm-63-2 4-6 11-13c5-8 3-7-3 2-6 8-9 10-10 9-2-1-1-2 3-7l7-8 5-7 4-6-10 11c-3 5-5 6-8 4-2-2-1-4 1-10 3-5 3-9 1-12-1-1 0-9 1-10v-4c-2 0-3-2-3-5l3-8 3-10v-5l-2 5c-3 6-5 6-6-1 0-4 0-5 3-8l5-10 7-15a144 144 0 0 0 11-28l4-9v-3c-2-1-1-3 4-6l5-4h27a3394 3394 0 0 1 64-2l13-1c10 1 8 4-4 5l-8 2-20 1a453 453 0 0 0-47 1c-8-1-22 0-22 2s5 3 18 2l13-1 4-1c2 0 2 0 2 2-1 3-4 3-21 4-19 1-19 1-19 7a316 316 0 0 0-2 30h-3l-1-7v-7c-1 0-2 1-2 3l-3 5v4l-1 3c-2 3-1 4 4 3 5 0 7 1 4 2l-7 12c-5 11-7 16-3 10 2-3 5-4 5-2l-4 7-5 8v2l2-2 4-2c2 0 1 2-1 5-3 2-7 10-6 11l4-2 4-3 3-1 2-30c0-7 1-10 4-10l1 11-2 18v16c-3 3-3 6 0 6l3 1c1 1-1 3-3 3l-3 1-3 2c-2-1-3 0-2 4l-1 5-2 2-4 4-3 4 4-3 6-3c3 0 0 6-4 8-3 1-13 14-13 15 0 2-9 11-11 11l-1-1zm14-34 6-8c3-5 5-6 9-7 2-1 2-2 2-6l-1-4c-2 0-6 5-7 8l-4 6c-5 5-13 18-13 20s1 1 3-2l5-7zm2-14c4-6 4-7 3-7l-8 12c0 2 2 0 5-5zm-1-9v-1c-2 1-3 3-1 3l1-2zm4-8-1 1-1 2h1l1-3zm-2-10 5-11c3-6 7-16 6-17a308 308 0 0 0-11 28zm5-2v-1c-2 1-3 3-1 3l1-2zm-7-3-1-1-1 2h1l1-1zm5-21c0-2-2 0-2 2-1 2-1 2 0 0l2-2zm6-5-2 1-1 3 1-1 2-3zm7-31-1-1-1 1s0 2 1 1l1-1zm108 136-1-2c0-2 17-2 19 0v2h-18zm-105-3c0-2 1-2 10-3l7 1c0 2-1 3-10 3-6 1-7 1-7-1zm19 0c0-1 4-3 6-2l2 2h-8zm-431-1c-3-10-3-11 1-11 2 0 4 3 4 8 0 3 0 4-2 4l-3-1zm480-2c-2-1 0-2 3-2 5 0 7-1 8-4s1-3 3-3l2 1 1 3c1 1 2 2 5 2 4 0 6 2 4 3h-26zm96 0c-3 0-3-3 0-3l3-1h3l7 1c5 0 5 0 5-3 0-2-1-3-3-2-5 0-19-1-19-3l7-2c1 1 2 0 3-2 3-3 6-3 6 0s0 3 3 3c7 0 12 6 8 10-1 3-2 3-11 3l-12-1zm-12-1c0-1 4-3 6-2l1 2h-7zm-613-4 2-2c2 0 3 1 2 2-1 3-4 2-4 0zm471 0 2-1c3 0 3 0 2-3l1-4c1-2 1-2-2-2s-7-2-5-4h10c7 1 9 2 9 3l-2 1c-3 0-3 0-3 4v5h4l4 1c-1 2-20 2-20 0zm98-3c-1-2 1-3 9-3 7-1 9 0 7 2s-15 3-16 1zm41 0 2-2 2 2-2 1-2-1zm-56-1 1-1 1 1-1 1-1-1zm-518-4v-2l4-1c2 1 4-1 3-4 0-1-2-2-7-2-2-1-3-4 0-5 2-1 3-2 3-4 1-4 3-6 5-6l4 2-1 23c-1 1-8 1-11-1zm527-2v-5c2-3 2-4 1-6-2-3-1-7 2-7 4 0 5 4 3 7v4l1 5c0 4 0 4-3 4l-4-2zm-543 0-7-1-7-1c-1-2-2-2-5-1h-8c-3-2-7-2-10-2l-5-1v-3h15c2 1 3 1 6-1l7-3c4-1 4-1 5-4 0-4 3-5 10-7 4 0 4 0 3-3l4-7c5-5 6-5 12-2 3 2 5 9 4 10-2 2-11 4-13 3-3-1-3 1 0 5 1 2 1 3-1 9-2 9-4 11-10 9zm16-28v-2c-2-1-4 1-4 2h4zm517 23-6-2c-1-1-1-2 1-3h3l5 3 3 2c0 1-2 2-6 0zm89 1c0-2-7-3-13-2-9 1-14 0-14-2l1-1a240 240 0 0 1 22-1l4 1 3 2c3 0 4 1 3 2 0 2-6 2-6 1zM7 141c-1-3 0-5 1-7 2-2 2-2 5 0l8 3c3 1 5 3 5 4 1 3-1 3-10 3H9l-1 1-1-4zm574-1v-2c3-1 5 0 5 1 0 2-4 2-5 1zm44-1v-3c-1-1 2-5 3-5l4 2v5c-2 3-6 4-7 1zm76-2c-2-1-1-5 0-6 3-1 5 2 5 4-1 2-4 4-5 2zm-156-4h-10l-10-2c0-1 6-2 14-1 8 0 11 1 10 3h-4zm138-2c-2-3-1-5 3-5 3 0 3 0 3 3l-2 4c-2 1-2 0-4-2zm-90-1h-7c-7 0-10-1-9-3s22-2 23 0-5 5-7 3zm36-2-2-12c0-11 1-15 4-15s4 4 3 11v11c-1 6-2 8-5 5zm78-2c-1-1-2-2-5-2-6 0-17-2-17-4s5-2 9-1l5 2c1 0 7-5 6-6l-11-1c-9 0-12 0-12-2-1-2 1-2 14-2 9 0 11 0 12-2l4-1c2 0 3-1 3-2l-2-2c-2 0-4-2-2-3l2-4v-5c1-2 1-2-1-2-3 0-3 0-2-2l4-2 2-1 2-1c2 0 2 1 2 3v8l-1 5 3-2h4c1 1 0 2-3 5l-3 5 4 3c4 3 5 6 1 7l-3-2c-1-1-4-2-4 0l2 2c3 3 3 5 0 4l-5-1c-3 0-3 0-3 3 1 6-2 8-5 3zm5-10-2-1-1 1 2 1 1-1zm-166 10c-6 0-5-3 2-3 6 0 9 1 6 3l-3 1-5-1zm71-1c-2-2 0-7 3-7 2 0 3 0 4 2 1 5-4 9-7 5zm-92-4c0-3 0-4 2-4 3 0 3 3 0 6-2 2-2 2-2-2zm46 1-5-2v-3h5l15 1c11 0 12 1 13 2 0 2-1 2-5 2h-23zm32-1 1-1 2 1-2 2-1-2zm36-1c-3-2-2-5 0-6 1 0 2 0 2 2 0 1 1 2 3 2 4 0 7 1 7 2 0 2-9 2-12 0zm-26-9c0-1 2-3 4-2v2h-4zm32 0c-4-1-4-1-3-3 2-2 10-1 10 1s-3 3-7 2zm-113-1c-4 0-5-1-5-2l5-1c4 0 6-1 6-2 1-2 3-1 3 1l1 3-10 1zm16 0-1-2 6-1c6 0 8 1 3 3h-8zm30-2c0-1 2-2 5-2 5 0 6-1 3-2-3 0-4-1-1-4 2-3 4-3 6 0l2 2c2 0 2 1 2 3l1 1 2 2h-19zm26-1 2-1c2 0 2 2 0 3l-2-2zm-82-1h2l-2 1v-1zm96-1c-2-2-2-4-1-9l1-7 3-1 6-2c4-2 13-1 13 1 0 1-1 2-7 2l-8 2-1 3c0 14 0 13-3 13l-3-2zm-61 0c0-2 4-3 12-3 5 0 7 1 5 2l-9 2-8-1zm81-1v-4c1-2 2-3 9-3 5 0 6 1 6 2s-1 2-5 2l-7 3c-2 2-2 2-3 0zm87 1 2-3 1 2c0 2-1 3-3 1zm-46-1c-1-2 2-3 7-3 4 0 5 1 5 2 0 2-10 3-12 1zm25-7c-4-8-7-11-12-11l-6-1h-3c-2 1-9 1-9-1l9-1c8-1 9-2 11-4l2-4 2-4c2-4 1-5-10-6l-10-1c-1-1 2-2 10-2 7 0 8-1 11-3l2-3c0-2-5-3-12-4l-7-1c0-2 11-3 14-2 2 1 7-3 5-4l-12-3c-10-3-13-4-10-6l8 2h3c2-2 4-1 6 0 1 2 8 2 8 1l-2-2-1-3-1-1c-5 1-8-2-4-3l3-3c1-2 1-2-2-2-4 0-4-1 0-3l3-2-4-3c-4-4-4-6 0-6s4-2 1-3h-21c-14 0-18 0-19-2-2-2 0-3 5-3 3 1 6 0 9-1 4-1 6-2 9 0 1 1 4 1 11-1l13-1c3 0 3 1 4 5l-1 7-1 4c1 2 2 10 1 12v1l2 3 1 4v4l-1 11c0 8 0 8-3 9s-4 4-2 4 3 3 2 7l1 3 2 4c1 2 1 4-1 6-3 3-3 5 0 8 2 2 3 5 1 8-1 3-3 2-5-3zm-1-17c0-3-3-4-4-2-2 3-1 5 1 5s3-1 3-3zm-32 19c-2-1-1-2 3-4s24-1 26 1c1 1-2 3-5 3a157 157 0 0 0-24 0zm-146-1 2-1v1l-1 1-1-1zm23-2v-2c0-2-2-2 34-3h14l-3 2c-2 1-8 2-21 2a276 276 0 0 0-24 1zm-16-2c-2 0-1-4 1-5 1 0 3 1 3 4 0 1-2 2-4 1zm23-13c-4 0-5-2-2-3h23v2l-21 1zm-25-1c-5-1-2-3 6-3l8 1c0 2-9 4-14 2zm55 0 1-2c3-1 6 0 7 2h-8zm-60-8c-2-1-1-4 0-5 2-1 5 2 5 4l-2 2-3-1zm52-2c-2-1-1-2 1-3 2 0 3-1 3-2 1-2 3-3 6-1l7 2c5 0 5 0 5 2-1 2-5 2-8 0-4-1-9-1-9 1-1 2-4 2-5 1zm68 0c-3 0-4-1-4-2h27v1c-1 2-14 2-23 1zm-43-1c-1-2 1-3 3-3 3 0 4 1 3 2 0 2-5 2-6 1zm-66-3-1-3c1-2 5-3 6-1s3 2 10 2c10-1 12 0 11 2h-26zm16-11-12-1c-11 0-11 0-9-2l11-1c11 0 15 1 16 2 0 2-2 3-6 2zm31-3c-1-2 5-3 13-3l11-1c3 0 5 1 2 4h-26zm78 0v-3c1-1 5-2 5 0l5 1c3-1 4 0 4 1l-6 1h-8zm-91-2v-3c3-1 5 1 5 3-1 2-2 2-5 0zm71 0h2l-2 1v-1zm-121-8-1-2c1-1 14 0 15 1 2 1 1 2-6 2-5 1-7 0-8-1zm27-1 1-1 1 1-1 1-1-1zm14-1c-3-2 1-3 14-3l15 1c0 1-2 2-16 2h-13zm-10-1c1-2 6-3 6-1 0 1-1 2-3 2l-3-1zm53-1c0-1 3-2 13-2 6-1 7 0 7 1 0 2-3 3-13 3-5 0-7 0-7-2zm-11 0c0-2 2-4 5-4 2 0 2 2 1 3-2 2-5 2-6 1zm36 0c-1-2 1-3 4-4l5-1 2-1c2 1 1 5-1 6h-10zm16 0c-1-2 1-3 10-3 8-1 9 0 9 1l-2 2a527 527 0 0 0-17 0zm-115-6c-7 0-10-1-10-2l19-1c16 0 19 1 19 2l-12 1h-16zm33-2 4-2 4-3c2-1 6-1 4 1-1 3-13 6-12 4zm22-1c-1-2 0-2 9-2h9c0 3-16 4-18 2zm23 0c-2-2-1-4 4-4l8-2h21a1185 1185 0 0 1 15 2c-1 3-6 4-22 2-12-1-12-1-17 1-6 2-6 2-9 1zm66-3c-2-2 0-3 5-3 4 0 5 1 1 3h-6zm-13-2c-2-1-1-2 0-2l2 1-2 1zm-89-3c-12-1-14-2-12-3l15-1 16-2c1-2 4-1 5 0l-2 4c-2 3-7 3-22 2zm34-5c-1-1 3-2 11-2 7 0 9-1 10-2s4-2 4 0c1 1 0 4-2 5-3 1-22 1-23-1zm31 1c-1-2 1-3 5-3h8c5-2 12 0 13 2 0 2-1 2-12 2l-14-1zm38 0c0-2 3-2 5-2 4 1 3 3-1 3l-4-1zm-41-9c-2-1-1-3 2-4l13-1c3 1 2 4 0 4-4 1-14 2-15 1z"/>
</svg>
