<?xml version="1.0" encoding="utf-8"?>
<svg xmlns="http://www.w3.org/2000/svg" version="1.1" viewBox="0 0 670 577">
	<title>Sketch of a small stone church set on a steep hillside, with the steeple on the left and a small path to the right.</title>
	<path d="M54 576v-3l4-2 3-2-3-2-2-1v-5l2-1 2-1 2 2 1 3h2l2 1c1 2-1 10-2 11l-6 1h-4zm520-18-2-1v-2l1-2h9l2 3-1 1c-1 1-6 2-9 1zm-518-4-1-2 1-3 2-6v-2l4-4 4-6 3-6 4-10 1-3v-7l-1-7 2-1 4 1c2 1 3 2 4 1l1-1c-1-2 0-4 2-4h2l-1 9 2 1 3 4 2 2-1 2-1 1-4-2v2l1 2h4l3-1 2 3-1 3c-1 1-2 4-1 5s0 3-1 4l-1 2h-4l2 2 2 2-2 3-19 1-2 1-4 2h-3v8c0 2-3 6-5 6l-3-2zm21-27c2-4 3-8 1-10l-1-2-1 3-1 4-1 2-2 5v3h1l4-5zm7 0-1-3c-1 0-2 4-1 6s2 0 2-3zm7-3-1-3-1-1v9l1-1 1-4zm-7-11-1-8c-2-2-4-1-5 0l2 6 2 6v2h3zm472 41-3-3-1-3-5-1-6-1c-2-1-3-4-2-5v-2h3l2 1 5 1h5l3 2 4 4c1 2 1 5-1 6-1 2-1 2-4 1zm-482-8 2-2 2-2 1 2 1 2-1 2h-5zm554-4-6-1c-3 0-6-2-6-3 0-2-7-6-10-6l-2-1v-2h-40v-4h8c7 0 10-1 10-3l-2-2-3-1-1 2h-6l-9-1-11-1-2-1-1 2v1h5l1 2c2 3 3 7 1 7l-1 2-1 2-6 1-2-2-2-2v-6l3 1 2-1-2-1-4-1-3-1h-3v3l-3 4-2 1-2-1-4-3-3-3 1-2c1-2 3-4 6-4h2v-1l-1-2h-12l1 3v3c0 2 0 3-2 3h-2l-1-3-4-6-3-2v-5h4v-2l1-4 2-1-2-2-1-4 1-1 4-4 1-4h3l2-1-3-12c-2-4-3-8-1-9s4 1 6 7l2 8v2h3v-9l-1-9 3-2 1 1 1 7v8l1 2h2l2-1-2-2-1-1v-9h3l2 5 1 4 3-3-1-6v-15l11-6 1-11h5v3l-1 9v6l-5-1-3 1-3 2v7l1 8 1-2 1-2h2l5 2 4 3v2h-8l2 1 4 2h3l1 2v2h-2l-6-2-5-1c-3 0-2 2 2 3l3 2-1 1c-1 3-3 5-6 5h-2v-1c0-3-2-7-4-7l-1 1 2 1 1 2-1 2-2 3-1 2-5-1v4l-6-1 1-1v-2l-4-1-3 3-6 4-3 1h19c5 0 8 1 9 3l1 2-2 3-2 4h-2l-1-4v-3h-19v1l-3 4-2 4 1 1 4-3 3-3h11v3l-4 1-5 1-1 1h10l2 2 6 4h5l2-1v-4h-2c-2 0-4-3-2-4h9l2-3c0-2 2-3 4-3l1-1-4-4-1-1 1-2 1-3h3c3 0 7-1 19-6l12-4h2v3h8v3l-1 4-7 3-17 6 3 2 3 1 5-2 20-8 4 2 3 3-2 1-4 2-12 5-12 7-1 2 3 5v-1l3-1h2v2l2 3 3 1 3-1a134 134 0 0 1 9-1l8-3 7-1 1 1 1 1-1 1-13 4h-3v3h9l7-1 5-1v4l-5 2h-5v3h4l7 1h4l7 5-2 4h-3l-6-2zm-99-20h-2l1 1 1-1zm28-11-4-4-1 2-1 1 2 2 2 3h5zm8 2 1-1h-1l-2 1 1 1 1-1zm15-6v-2h-3v4h1l2-2zm-11-7 1-5 4-1 20-6v-1h-5l-11 3-9 2c-3 0-8 2-8 3l4 11v1l2-1 2-6zm-33-17 1-1h-3c-5 0-4 2 1 3l1-2zm109 60-1-3v-2l10 1 2 1 1 3-1 1h-5l-6-1zm-78-3v-1l2-2 2-2 2 1 14-1h8v5h-7l-13 1-7 1zm-41-2c-1-1-1-4 1-4s4 3 4 4l-2 2-3-2zm-413-5-1-2 3-6 2-5 2-12-2-2-2-2 1-6v-5h5v3l-1 4h1l2-2c0-2 4-4 6-3l1 1-3 6c-2 2-3 5-2 5l2 1 1-1 1 2-2 4-6 15-3 4-3 2-2-1zm306-10-3-4-2-4-1-1v-2l2-2 1-2-2-2-3-4-1-3-2-1-4-2-1-2v2l-2 2-1 2-4-2v-5l10-10h3l5 1 1 4v3l5 2 1 3-1 3-1 2h3v2l1 2 1 2-2 3-2 2h3l3-1 3 4 1 2 2-2 5-3 2-1 3 2-1 2-2 4-5 4-3 2-3-2-2-2-1 2-3 2-3-2zm-73-4-1-4 9-4 3 1-1 4-1 4-3 1-4 1c-1 0-2-1-2-3zm254-1 1-2-3-1-2-2-4-1h-3v-3l5-2 15-6 6-2h2v3l-5 2-11 5-5 2h3l9-3 5-2 8 2v2l-2 3-17 6h-2zm4-4h-2l1 1 1-1zm-504 2-2-4-1-4-1-3 3-2h2l1 4 2 5 1 2c1 1-1 4-2 4l-3-2zm355-2-3-2v-4l-1-4-1-2-1-3-1-2 2-2c2-3 6-5 9-5l3-1v5l-3 1-5 1-1 2h1l5-1 3-1 3 2v7l-4 3 2 4-1 2-3 2-4-2zm12 0c-1-2 1-4 3-4l2 2c1 1-1 4-3 4l-2-2zm14-6-1-1 4-4h1l2 3-2 3-2 1zm-116-3-1-3 3-4 3-3h5l1 2-3 5-2 4h-2l-4-1zm136-1c0-1 1-3 3-3 1 0 3 3 2 4s-4 1-5-1zm-8-2-2-2c0-2 2-3 5-4h4l1 2-3 3-3 3-2-2zm-388 0-1-5-1-3-2 1-4-1-8-3-6-1-4 4h-1c-4-2-2-6 5-16l8-13 5-7 5-1 3-1-2-1h-1l14-14 2-5 4-6 1-9 5-38v-3l8-5c4-2 7-5 7-6v-7l6 1v-1c0-2 5-7 6-7l7-2 5-2 2 2 2 1 1-2v-1h5l3-5-1-10h2l4 1 1 1v7h2l1-1v-11l3-3h10l1 3v2h2l3 1c0 2-2 6-4 6l-1 1h5l2-2-1-9c-2-17-2-23-1-25l2-3 3 1 1 1v-1l-2-3-3-1-1-6-1-8 1-29v-8l-3-3v-32l2-5-1-2-2-3 1-22a14412 14412 0 0 1-2-40l-4-1h-4v-4l4-3 4-5 2-3 3-4 3-6 3-5-2-3 3-3 3-3 5-4c4-3 3-4-1-1l-4 1v-3l3-4 2-1v-5l4-2v-3c1-2 2-5 4-6l2-4 1-2c2-1 4-6 7-12 0-2 2-3 2-3l3 3 2 4-5 8a99 99 0 0 0-8 18v2h1l5 2 7 2h3v-6l2-5 4-2h4l2 3 5 4 2 2v3l1 3 1 4 1 4v7l-1 2 2 4-1 9v8l-3 2h-4l-9-1-5-1-2-2-1-4 1-2 8 3 3-3-1-3-1-8-1-4-3-4-3-4-1 5v3h-4l1-6v-6l-2-1-3-1-6-2-5-1-2 6-2 6-7 5 1 1 4 3 2 2-1 2-1 7-1 10a319 319 0 0 0-3 52v3l2 2 1 1v34l2 1 3 2h1v-3l2-3h1l1 2 2 3 2-2 4-1c2 2 1 4-2 6l-4 2h-11l-1 2v16h-3v6l2 1 2 2-2 3-2 4 2 2 2 1-1 7v6l1 4 1 5-1 6-1 5 2 3v10l1 10v19h1c1 1 2 0 3-1l1-2h3l4-2 2-1 3 1v2l-1 2 2 1 3 1 1 3v2h-2l-3-1-3-1h-3v-2c0-2-2-3-2-1l-2 3-3 4-2 2-3-2v-3l-3 7h-6l-1-2v-2l2-1 4-2v-1l-2-2-4-2-3 4-1 3h-5l-1 2v1h2c3-1 6 0 6 2v2h-2l-5 1-2 2h1l2 3-1 2-4-2-5-3-2-1v-5h-3v2l1 2-2 1-3-1-1-2v3l1 5v2l-4 1v-4l-1 1c-2 1-5 1-5-1l3-3 3-2v-2l2-3 1-2h-4l-2 3-2 5-1 2h-4l-6 5-7 5-4 3-3 3h-3l-5 1-1 3 1 3 2 4v3l3 2 4 3 1 6v4h1l3-2 2-2h4l5 1 3 1 2 1v-2l2-5 2-4c0-2-2-1-5 1l-3 2h-2l-1-3-1-2 1-3c0-1 1-3 2-2l2 2 1 2 2-3h15v4l-2 1c-3 0-7 4-7 7v2l2-2c3-3 9-7 11-7l1 1 3 3 2 1 6-3 1 1 1 5v3h-3c-2 0-7 1-12 4l-6 1h-4l-5 6-8 6-3 2-2-2-3 2-7 3-8 4-5 3-1 1-6 4-10 6c-4 3-12 11-15 16l-3 3-2-1c0-2 3-7 7-11 3-4 12-11 19-15l9-6 5-4h-1c-2 0-6 2-13 8l-8 4-3 3-2 1h-2l-5 5-4 6-4 8-4 9 3-1 2-1 1 1 1 1 3-3 5-5 3-2-1-1-2-1 3-3c3-4 10-7 11-7 2 2 1 4-4 6l-4 3v1l4-2 4-1 2 2-7 4 3-1c2 0 7 2 7 4v1l-4 2-7 5-5 3c-2 0-1-3 3-6l4-3-16 11-1 3v1l6-5h1v5c-1 0-3 2-3 4l-3 4-1 3c0 4-1 8-3 8l-1-1zm0-19 1-3-2-1-1 1-1 3v2h1l2-2zm19-18h-2l1 1 1-1zm14-38-1-2-3 2-3 4v1l7-3zm19-8-2-1v2l2-1zm-21-3-1-2v2l1 2v-2zm16-3 2-4-2-1h-1l-2 3-1 4 1 1 3-3zm-21-2-1-1-1 3h1l1-2zm36-1-1-1-1 1 1 1 1-1zm-35-8v-4l-1 2v6l1-4zm18-1 2 1-2-2-3-2-2-1v6l3-2h2zm-7-16-1-2-1-1-1 1c-1 1-1 3 1 3l2-1zm12-12 5-4 5-3-10-2h-3l-1 1-1 2h1l2 3v2l-3 1c-2 0-3 1-3 2v1l3-1 5-2zm14-10-1-4-1-2h-2l-5 1h-3l1 1 4 1h3l1 3c2 2 3 3 3 0zm34-6-3-2 2 3 3 1-2-2zm-1-9-2-1-2 1 2 1 2-1zm20-12-1-8h-1v15l2-1zm-6-8 1-2-3-1-2-1v15l1-5 3-6zm5-10c0-3-1-4-2-2l-2 2h-2v-3l-1-5c-1-2-2 0-2 5v5l2 1 5 1h2zm0-22v-6c-1-2-8-5-8-4l1 1 1 4v2l5 1-1 8 1-1 1-5zm-7-28v-2h-3v4h3zm3-7-2-4c0-2-2-3-2-3l-1 2 1 3 2 3 2-1zm4-30v-4l-3 1-3 1v7l5-3zm-13-45v-2l-1 2v2l1-2zm6-9 1-1-1-16h-1l-1 6v6h-3v8l2-1 3-2zm-5-11-1-2v2l1 2v-2zm8-18-1-11-1 10v10l1 1 2 1-1-11zm-4 9c-1-2-3-2-3-1l2 2 1-1zm-26 338 1-4 1-2-2-2-2-4 1-3 2-1 1 2 3 3s3-2 4-5l3-5h4v2l-1 5-2 6 2 1c3 0 6 2 6 4l-2 3h-1l-3-1-4-2-4 2c-1 2-5 3-7 1zm-26-3-1-2 3-2 2-4v-2h-3l-1 4-2 4-2 1-7-1-1-4-1-7v-4h4l-1-5-1-8 2-3 3 1 1 4 1 4 1 1v-9l3 1h2l-1-9v-9h4l1 13v13l2 4 2-1 2-1 1 1-1 3-2 5-1 4h2l4-2 3-5 2-3-1-3-1-3 1-6v-6h5v10l1 9-7 15h-2c-2 1-6 0-7-2s-3 0-3 2-2 3-4 3l-2-1zm-3-13-1-3-1-2v8l1-1 1-2zm5-9-1-1-1 3v2l1-1 1-3zm-36 20-3-1-4-8 2-3 4-2 5-3 5-3 2-1v4l-2 1h2l2-1 1 4-3 1-3 2-3 2-3 1-1-1-2-1-1 1 2 4h2l4 1c1 2 1 5-1 5l-5-2zm3-12 1-1-2 1v1l1-1zm316 10v-1l-3 1c-3 1-6 1-6-1l-1-1 3-4 3-5-3 1-3 1-2-1-5-1h-2l-1-2v-1l3-4c4-2 11-5 15-5h2v2l-2 3-2 2v1l6-2 1 1 1 2-3 4c-2 1-2 3-2 4l1 1 3-2 4-1 1 1v2l-1 2 5-1 1 3-3 1-7 2h-2zm110-1v-2c2-2 9-5 17-7l4-1 2 2-1 1-9 3-8 4h-5zm-420-1-2-2 9-5 1 2v3h-2l-3 1-2 2zm353-2c-2 0-3-2-3-3-1-1 0-4 1-4l5 2 4 2v5h-2l-5-2zm-17-1-1-4v-3l2-1 2 1 4 1h2l1 3v2h-2l-8 1zm-17-11 2-2c2 0 2 3 0 4h-2zm112-1c-2-1-1-3 3-4l4-2v-7l8-1 1 1 4 2 2 2-1 2-1 1-4-1-1 1-5 3-5 3h-5zm22 0-1-2v-2l6-2 6-2 10-3 10-3 2 2v1l-6 2-7 3-5 2-14 5-1-1zm-28-6 3-4 1 3v2h-1l-3-1zm-71-7-3-1-1-4v-7l1-3h-1l-7 2-6 2-1-1-1-1 1-2 1-2 6-2 8-1h2v2l1 3 1 3v3h4l1 4h8l1 2-1 3-1 2h-5l-8-2zm27 0-4-2-1-1 2-11h3l1 4 2 4 2 1c3 1 5 4 3 6 0 1-4 1-8-1zm-36-1-3-4v-2l2-2 1 1 2 3 1 3c1 1 1 3-1 3l-2-2zm111 0c0-2 2-5 4-4l1 3v2h-2l-3-1zm7-2-1-3v-2h2l3 1c1 1 0 5-1 5l-3-1zm9-2v-3h-5l-4-5v-2l2-2h2l3 2 3 5 3 2 4 2v4h-8zm15 1-1-3 1-2 7 1 3-2 8-2 7-2 2-1h2l1 2v4l1 2-2 1-1 1-4-1-6-1-7 2c-4 2-9 2-11 1zm-120-7-3-9 1-3 2-1 7 3v2l-1 8v6h-2l-4-6zm-63 0c-1-2 0-4 3-5l4-1 6 1 7 1v5h-20zm215 0 2-3c2 0 3 2 2 4 0 1-3 1-4-1zm-84-1-2-2-1-3-1-3 1-2 1-1 2 1 1 2 3 4 2 2-1 1-2 2-3-1zm69-3v-1l3-4 3-3-3-2-1 1-3 2c-2 0-2-3-1-6l2-2 7 1 3 3 2 4-2 4-5 3-4 2zm-19-2v-3h7v2c0 2-2 3-5 3h-2zm40 0 1-3 4-1h3l-1 5-6 1zm-426-7h-1v-3l-1-5-1-1h-2l-5 2-4 1-2-1 1-2v-2h2l2-1 4-2h4l-1-8 2-4 3-5h3l4-1 3-1h1v3l-2 10-2 13v6l-3 1-3 1-2-1zm3-16-1-7v13h2zm371 14-3-1-2-2-1-2-1 1-3 1c-2-1-3-7-2-9l2-2 3 2 2 1v-1l2-1 2 2c0 3 2 2 2-1v-3h1l3 1 1 2-1 5-2 7h-3zm16 0 2-11 1-1 3 4h5v1l-1 4-1 3-2-1-2 1h-5zm-8-2-1-1 1-6v-6h4l1 4c0 3-1 9-3 10l-2-1zm-365-4-2-2 1-7h-1l-2-1v-3l2-5 2-3 1 2 1 2-1 4-1 4h2l1 2 2 3 3 1v2c0 2-2 4-4 4l-4-3zm314 1-2-3-2-3-2-1v-8l1-1 3 1c1 1 2 2 3 1l2 1 2 1 4 2 3 2 1-3v-3h4l1 3v3l-2 1-5 3-4 3h-2l-1-3-1-3-1 1 1 3c1 3 0 4-1 4l-2-1zm-200-2v-2l7-2-1-1-3-1-5-1-2-1-1-3-3-3-2-3-2-3-1-1v1l1 3 2 4 1 3-1 3-3 4c-4 0-6 0-7-2l-2-3-1 2-3 2c-1 0-2-1-2-3l-1-2 1-4 1-6v-6l5-1 1-4 2-4 4 3 5 3 4-2 2-2 3 1-1 9-7 2 4 1v5h2l3 1 3 1h2l-1-2v-2l3-2 5-2v15l1 1-1 2-5 3-5 1h-2v-2zm222-1c-1-3 0-7 2-7 1 0 3 5 2 7v2h-4zm-324-2-3-4-2-2v-10l3-3 3 1-1 5v6l5 2v3l-1 3-4 1zm7 0v-3h4v5h-4v-2zm10 0-1-3 1-2h8l1 2-1 3-4 2-4-2zm267-1-5-2h-2l-2-4-3-5h-14l-16-2h-2v-4l2-1 3-2 5-1h3v1l-1 3-2 1h28l3 4c1 3 3 6 5 7l3 3 2-1 2-1 1 1c0 2-4 6-6 6l-4-3zm-126-5c-1-2 1-4 3-4l3 1 1 2-1 1-3 2-3-2zm-12 0c0-1 2-4 4-4l1-1-1-4-1-3 2-4 2 1c2 1 4 7 4 11l-2 3c-3 2-8 2-9 1zm-109-2v-2l1-2 3-1 3 2 1 3-1 2h-6zm334 1v-3l3-1 3-1 1-1h-3l-4-2-1-1 2-1 5-2h3l4 2-1 6-2 2-6 3h-3zm17-1-1-3 1-2h5l2 2 2 2v1l-1 2h-7zm-364-1 1-1 1 1 1 2h-2l-1-2zm108-1-5-3-3-3v-2c0-4 3-10 6-12l4-1h1c0-1 5-4 8-4l4 2 3 5 1 3-3 3-3-1v-2l-1-4-1-1-3 1h-5v11l4 6v1l-1 2h-2l-4-1zm-2-10-1-1v2h1v-1zm202 10-1-2 2-3 2-4-7-3c-1 1-3 0-5-1l-3-1v-4l9 1v-1l-2-3c-1-1-3-1-3-3l3-14 2-2h1l1 2 1 2h4l-1 3-1 4-1 6v5h1l2-5c1-6 3-10 4-10l2 1-1 9-2 9 2 1 3 1 2 1v-6l-3 1v-7l1-1 3 1v6h1c3 0 5-3 5-6l1-3-8-2v-4l2-1h5l1-6 2-1 5 1 5 2 1 2v2l-4 1 1 3h2l4 1 1 3 2 3 2 2-4 6c-2 3-5 7-5 10l-1 4h-2l-5-2-2-1-4 1-6 2-2-3v-1h4v-1l-4-2-3-1-1 1-1 5v3h-3l-4-1zm28-10 1-1-2 1v1l1-1zm-6-3-1 1 1 1v-2zm6-6-1-2h-1v1l1 2 1-1zm6 0c0-2-1-1-2 0l1 1 1-1zm-35-12v-4l-1 2-1 4v3l1-1 1-4zm-379 27v-1l1-1 4-1h2l-1 4-5 1zm105-2v-1l2-2 2 1 1 3v1h-2l-3-2zm170-3-1-4v-2h3l4-1 2-1 2 1-3 4-4 4-3-1zm-266-3c-2-1-3-4-1-4 3 0 5 1 5 3l-1 2-3-1zm307-2v-2h10l1 1v1l-1 2h-9zm-237 0-3-1v-5h2l5 1h2v3l-2 2h-4zm276-1-1-3 1-1 1-1h3l4 2 1 2v1l-1 2h-7zm-408 0-1-2v-9h4v11l-1 1-2-1zm346 0 1-2c0-1 3-2 7-2h6v1l-1 2-7 1-5 1zm50-1-12-2h-8l-6-4-7 2-3-2-4-2-1 2v1h-5l-27 1-2-1 1 2v3h-6l-2-2-2-4v-2l-2-1h-5l-2-1-3-4c-1-2-2-4-1-5l2-3 2-1 6 6-5 3h29l5-10h4v5h1c3 1 2 4 0 4l-3 1 2 1 2 3v2l5-3 1 1 3 1h2v-2c-1-2 0-8 3-11l2-2 2 2-2 4-2 4 1 1h2l1-4 2-6c1-2 6-5 6-4v6c-1 5 0 12 1 12s2-4 1-6v-8l1-5h4v9l-1 10 3 2 2 2v-9l-1-10 3-2 2 3 1 9-1 7 9 2 6-2 2 2 2 4-3 2-5-1zm-58-8h3l-1-2-4-1-4 1-2 1-3-1c-3-1-14 0-14 1v1l5-1 7 1h13zm27-3-1-2v3c0 2 1 4 2 1l-1-2zm52 5-2-2v-6l-1-6 2-4 4-5 2-1 3 3v9l-2 2-1 3v8l-1 1-4-2zm4-13-1-1-1 2v2l1-1 1-2zm-15 11-1-3v-2l2-1 2 1c2 1 1 5-1 6l-2-1zm-365-3-1-2v-2h5v4l-2 1-2-1zm26 0v-1c2-1 3 0 2 1h-2zm224-3c-2-1-1-4 1-5h1l3 3-1 2h-4zm98-4 2-7c0-2 3-1 3 1v6l-1 4-4 1zm-365 2 2-3h1l2 1 1 3-4 1h-2zm36 1-1-3v-1h5l6 1 2 2v2h-11zm61 0-1-3c0-2 5-3 8-1h2l1 3v2h-4l-6-1zm13 0-1-3v-3h4v6l-1 1-2-1zm-123-4c-1-2 1-3 4-3h3v1c0 3-5 4-7 2zm130-1v-3l1-1 4 1 1-1 5-3 4-1 2 1 1 3-2 2-5 2-7 2h-3zm258 1-2-3v-2c1-1-1-2-1-3l-4-1-3-1v-2l1-3 1-1 4 2 1-2 2-3v-2h-2l-5 2-5 2-2 1-14 5-11 4-6 2-2-1v-1l2-3 7-3 6-2 5-1 14-4 3-2 4-3 6-1 5-1 1-1v-1h-20l-4 2-2-1-1-4v-2h10l3-3 5-3h2v6h8v-5h4v-3l1-3-2-2-1-3v-6l1-8 2 1h2v6l-1 5h5v2l-1 7-2 5-1 1c-2 0-2 0-1 1l1 5 1 4 2-1 1-2h8l-1 11-3 2-1-2-1-1h-2l-1 2v4l-1 3h-1l-2-6-1-4 1-2 1-3c0-1-4 0-7 2l-3 2v2l-1 5-1 3v3l1 4 3-1 1 4v3h-2l-4-1zm-368-1v-2c1-1 4 1 4 2h-4zm191 0-1-3v-2h2l3-1c1-2 8-4 9-3 2 0 3 4 2 5l-5 1c-2 0-4 2-5 3h-5zm88 0-1-3v-2h5v-2l1-1 2 1 1 2-4 1 1 5h-2l-3-1zm-224-3c-1-6 0-11 4-9l1 1v5l1 6h-5zm75 0c0-2 2-4 4-3h1l-1 4-3 1zm-65 0c-2-1-1-6 1-8l4-3 3 2 3 4 2 3h-1l-3 1h-2c-2 2-6 2-7 1zm184-4v-5l1-1 2-4 2-1h1c2 1 3 7 2 10l-1 4-1 2h-5zm23 2-1-3 1-1h3v3l-1 3-2-2zm-271 0-3-1v-4l3 1h6l2 1-1 3-2 1-5-1zm21-1-1-2h5l-1 2-1 2-2-2zm118 0-2-2v-7l1-1 5-1h4v7l3-3h1l2 2v1l1-1 1-1 5 2v5h-2l-3-2v-1l-4 4-5-3-2 1-2 2-3-2zm-161 0c0-2 2-3 3-2l1 2v1h-4zm37-1v-4l1-2h2l2 1c1 1-2 6-3 6l-2-1zm148-1 1-2v-1h4c3 1 5 3 4 4l-4 1h-4zm47 1-1-2v-2h2l2 1v2c0 2-2 2-3 1zm11-1-1-3c1-3 6-1 6 3l-2 2-3-2zm15 1-2-1v-4h6l4 3-1 1-3 2-4-1zm62 0-7-2-8-3c-1-1-2-2-1-3 0-1 3-2 5 0l6 2h4v-2l2-3 2-1 3 1 3 1h1l-1-2-2-2 2-1 3-1h2v-3l-1-3h4l1 3 3 2h1l1-2v-2l2-1c3 0 8 1 8 3l2 1 4-2 2-2h1l2 3v2h-6l-1 4-7 2-10 3-6 1h-6l-3 3c-1 3-4 5-5 4zm75-2v-9l2 1 1 1v8h-1l-2-1zm-340-2c0-2 1-4 3-3l1 2c0 2-3 2-4 1zm59 0c-2-2 0-3 3-3h3v2l-1 1-2 1-3-1zm167-1 1-3c1-1 4 0 4 1 0 2-2 4-3 4l-2-2zm-443 0-1-4c0-3 4-11 8-14l2-3 4-5 6-8c0-2 5-7 9-11l7-7 2 1h3l1-3v-2h4l1 2-2 5-2 3-2-1-3 1-6 8a152 152 0 0 1-20 24l-2 1 1 3 2 6v2l-3 1-9 1zm269-1c-1-2 0-3 2-3h2v2c-1 2-4 3-4 1zm-21-2 1-2 2-1v1l-2 2h-1zm84-4c-2-3-3-8-3-10v-3h5v4c2 6 2 9 0 10l-2-1zm-93-3v-3h4v5l-4 1zm37 2-2-1h-3l-1-2v-6h4l1 2v2h6l2-4 2-5v-1l-6 5h-5l-1-2-2-6-1-4h-4l-1 4-1 4 1 1 3 5 1 3-1 1-4-1-5-1-1 2v2h-5l-1-3-3-14-1-4-1-3 1-1 1-6 1-5v-2l-3 3-2 3v21l-5 1-2-1-1-3 2-2 1-2-5-6 1-2v-3l-6-1-7-1 1-3 1-1h4l6 1 2 1v-3c1-5 5-11 8-12h2l5 3-2-4 1-2c1-4 3-6 5-6h2v3l-1 4 5 3 4 4 1 1 2-1v2l1 3v2l4 3c3 1 5 2 6 1v-8l-3 2-3 2-1-3-1-2 2-3 4-3 2 2v2l2-3 2 3 2 2 1-4v-4h-5v-1l1-3 1-1h-1l-3 2-3 3-13 1-1-2-2-1v-7l-2-1c-2 0-3-4-3-7v-2h5l3 7h1c2 0 4-3 4-5v-2l-5-1v-7l1-2h5v3l1 6s2-1 2-3l2-2-1-3-1-3h7l1 1 2-1c2 0 4-4 4-7l2-5c3-3 5-9 5-12 0-2-2-1-3 2l-1 3h-1c-2 0-4-3-4-6l2-2 1-1v-3l-1-3 1-1 2-3v-2l-3 2-6 3-3 2 1 3v4l1-1 3-1h1v4l-5-1v1l-2 1h-2l-1-3-1-6v-3l2-2c2-1 3-3 3-5l3-4c1-1 2 0 3 1l3 2-4-8-2-2 1-2 1-4 4-1h2l-1-2v-2l1-3c1-2 1-4-1-2l-3 1h-2v-6l2-2 3-3-1-1-3-1v-1l5-5v-4l1-4-1-1-1-2v-1h3l4 1 2 1v4l2 8 2 3v-1l1-1 9 1v-2l-2-4-4-2-4-2-1-1 3-3 4 1 6 2 1 4 1 4 4 1h2l1-2 1-2 3 2 2 2h6v-7l-5-2-1 1-7 1-6-1v-4l10-1 4 2 2-1h10l2 1 4-2 6-1h2l1 2-1 3-4 2c-4 0-9 2-9 4l-1 3 2 1 3 2-2 3-2 1-3-3-2 2-6-1-9-1-11 2 1 3 2 4 2 3 1 1-1 3h-10l-3-1v10l5 6v3l1 5 2 6 2 8 2 4 6 3 5-4h3c3 0 6 2 4 4l-3 1-6 2-5 1-2 1c-1 1 1 5 4 8l4 5 2 2 6-6 1 2 2 3 2-3 1-2h6v6l3-1a66 66 0 0 1 8-1l-1-3-3-2-3-1h-2v-5h4l-1-4v-5l5-4h8l1 1v5h5l1 2 2 2 6-2 5-3v-2l3-3 2-1 4 2-1 5-2 1-2 1-1 1 5 1 1 5-3 1-3 2 2 3c0 2 2 3 4 3l2 1 3-2 5 3 2-1 4-1 1-1-1-2v-6h4l1 3 2 5c0 2 1 3 2 3h2c1-1-1-2-1-3-2-4-2-7-1-7 1-1 3 0 4 4l4 5 3 1-1-4c0-2-2-3-2-3 1-2 6-1 7 0l1 4 1 3 10 1 4-2-1-5 1-1 2-1 2 1 2 4 1 1 1 2 3 2h1l-1-6 3-1 3 3c4 3 9 6 10 4l-2-2-2-5v-3l5-3 5-3 1 3c0 2-3 5-5 5l-1 1c0 2 4 7 6 7h1l-1-4v-4h5l1 3c0 3 1 3 4 3l2 1 3 1h2l-2-5-3-4-2 1-2 1h-1v-6l6-5 1 2 2 2 4-4h2l4 3v1l-3 4-4 3 1 4 10-1 3 3v-1l1-3v-5h4l1 6 7 1 5-3 4 3v2c0 1-1 3-3 3l-4 5-2 5-1 14v44h-5l-2-7-2 1c-3 0-6-1-5-3l4-1 5-1-1-4v-3l-2 5h-8v-5h8l2-2 1-2-2-1c-2 0-3-1-3-2l3-5 3-3v-3l-2-5-2-2h-7v1c0 3-3 3-5 2l-1-4v-3l5 3v-2l1-2h2l4-2 1-1v-4l-2-4h-1v2l1 3 1 2c-1 1-5 1-6-1l-3-1-3-1v-3l5 1v-2l3-2 1-1v-1h-4l-17 2h-18l-25-2-29-1-21-1h-14v3l1 4-2 1-2 2v2l-8 3v4l3-1v3l1 5 1 3v2l1 2h-1c-2 2-1 3 1 3l3 1c2 2-1 4-4 4h-3v6l1 7-3 2-4 3-2-1v-6h-2s-2-1-2-3l-2-4-1-7-1-6h-1l1 1-1 4-2 2v4l1 3-3 5 1 3v3h-1c-2 2-4-1-4-5l-3-6-1-5 1-7 1-4h-2c-2 2-4 2-4-1v-1l4-1 5 1 1 1 5-5-4-3 4-7 8-2 5 3v-2l1-2-1-1v-2l5-1h4v-2l-1-3-2-2h-22a239 239 0 0 1-33-1l-2 1v4h1l5-2 6-1h2v2l-2 3-1 2-2-1c-2 0-7 2-9 4 0 1 2 4 4 4h2v3l2-1 7-1 5-1 1 2 2 2 1 2v2h-4v-3h-2l-6 2h-3l-3-3-3 1-1 5v4l1 1 2 1 1 1-1 2v5l2 2v2l-2 2-2 4v2h2l2 2-3 3c-2 1-3 3-1 4l1 4v3l-7 5-4-1-4-1-2 3-1 2c-2 1-4-1-4-3v-2h-2l-4 1-2 2-1 2-4-1v-10l-3 9v1l-5 2-5 1-2-1zm-17-11a63 63 0 0 0-4-24v-1l-2 2 1 10c1 9 2 14 4 14l1-1zm61-3-3-2 2 3 1-1zm-30-4-1-2-1 1-1 2h2l1-1zm8 0-1-1-1 1 2 1v-1zm-15-5-1-2v3c0 2 0 3 1 2v-3zm30-2v-2h-2v3c1 3 2 2 2-1zm8-2-1-3v4c0 3 0 4 1 3v-4zm-44 0 2-2h-6v2l1 2 3-2zm11 0-1-1-1 1 1 2 1-2zm14-4-1 1 1 1v-2zm13 0-2-2v1c0 2 2 3 2 1zm-7-2 1-1h-1l-2 1 1 1 1-1zm62-2-1-1v3c1 1 2 0 1-2zm-52-2-1-4-1-1v8l2-1zm-32-2-1-2v5l2-2zm8-2-1-1-1 1v2l1-1 1-1zm1-9-1-1-1 1 1 2 1-2zm20-3-1-1-2 2 1 4 1-1 1-4zm48 3-1-2v2l1 2v-2zm1-5v-1h-1l-2 2v2h1l2-3zm-90-4-1-3h-2l-4 1h-3v3l3 1 4 2 1 1 1-1 1-4zm20 2c0-2-1-4-3-4h-1l1 3c1 2 3 3 3 1zm24-4-2-1v4c1 1 2-1 2-3zm-37-3c1-7 0-12-2-12l-1 2v3l-2 1-2 1 2 3 2 1v3c0 3 1 4 2 4l1-6zm8-7-1-3-3 1-1 1 1 2 1 1v7l4-6-1-3zm26-9-1-2v4l1 1v-3zm-24-1v-1h-1l-2 2v1h1l2-2zm74-2-2-3-1-1v2l1 3c1 1 2 1 2-1zm8-3 2-3 4 1 3 1v-3l1-4c2-1 1-2-2-2h-3l-2 2c-4 6-6 8-6 10v2h1l2-4zm-9-4c1-1-1-8-2-8l-2 2-2 2-1 1 2 2 4 2 1-1zm-52-9-1-1-1 1 1 1 1-1zm46-2 1-3h-2l-2 1v2l1 3c1 0 2-1 2-3zm-67-35-2-2-1-1v1l1 2h2zm16-17 2-1-1-3-1-3h-2l-3-2-2-1-1 1 1 6 1 5 2-1 4-1zm-11-1-1-1c-1-1-1 0-1 1l1 1 1-1zm-4-10-1-1-1 1 1 1 1-1zm113 164-7-1-1-1-4 2-1-1c-2-1-15-2-18-1l-2 1-2-1v-3l2-1 12-1 12-1 1-3v-2h1c3 0 8 3 8 4v2l7 2 4-3 2 2h3l1-2 1-1 5 3 3 3-1 3h-26zm34-1-1-1 1-3 3-3h2l-7-3v-4l10 1v-1l-1-2h-10l-3-3-12-1v-4h12l1 2 2 3 2-1 3-1 4 2-1-3v-3l3-3v-2l-1-2-4 5-2-2-1 1-9 1h-8l-1-2c0-2 2-3 5-3l3-1 1-2 5 1-2-4-4-6-2-5v-1h2l5-2 2-2-1-2-3 3-6-3-11 1-1-2-1-2 1-1h16l4 3v-2l1-1h5l8 1h3v4l4 1-1 3v3h6v2l-1 1-5 1v3l9-1v-4h5v2l1 2 1 3v2h-16v1l2 2h7l1-1 4 3h8v4l-1 1-2-1-3-1v1l3 4 3 3-1 1-2 2-3-1-6-1-6-1-3-1v9l2 2 5 2h2l-1 2h-3c-2 1-5 0-7-1l-6-1-2 1 3 3v1l-2 1-3 2-2 2-2-1zm28-26 1-2h-3l-7-1h-4v3h2a71 71 0 0 0 10 2l1-2zm-25-21-1-3-2-1 1 3 1 3 1-2zm8 47 1-2c1-2 3 0 3 1 0 2-3 2-4 1zm17-2v-2l1-2 4-1h6l2 3-1 1-5 2a425 425 0 0 1-7-1zm-128 0-1-5v-3h2l3 1 1 2 2-1h3l2 3 2-2 2-3 2 2 3 2h4l2 1-3 4h-16l-3-4v2l-2 2-3-1zm144-4 1-4 1-2 2-1h4l1 4v4h-8zm-322-1c-1-1 0-4 2-5l2 1v5h-2l-2-1zm200-2-3-1v-2l1-2h12l8-3 2 2-7 7h-5l-8-1zm112-3v-2h5l1 1v1l-1 2h-5zm-5-2h-9v-4h3l9 3c-1 2-2 2-3 1zm-249-3v-2h8l1 2v2h-9zm387 1-1-3c0-3 4-8 6-9l5-2 5-2h3v4l-9 5v3c-1 3-4 5-6 5l-3-1zm-245-2 1-1c2 0 2 2 0 3h-1zm213 0v-12l1-2h4v2l-1 7-1 5-1 1-2-1zm10-6-1-5v-2l4-2 1 1 1 3 1 2 2-3 2-2h2l3 1v4l-1 2-2 1-4 1-4 2h-3zm-99 0v-2h4v4h-4zm58 1c-1 0-2-1-2-3l-2-2-1 2-1 2-2 1h-2v-2c-1-2 0-5 2-5l1-2-1-4-1-2 1-3 2-3h-4l-3 1-1-2 1-2 1-1h3l5 3 3 2 2 7 1 6 4 4v1l-1 2-2 1-3-1zm-321-3v-2h2c3 0 6 2 6 3v2h-8zm275 0-6-1h-2v-5l2 1 6 1c4 0 6 1 6 3l-6 1zm-117-3v-2l4-1h3l1 2v2l-4 1h-3zm171-3-1-4-1-4h5l1 4v4l-3 2zm-220 0-1-1 1-1c1 0 2 0 2 2l-1 1zm72-2-1-2v-2l2-1h2l2 2-1 2c-1 2-2 2-4 1zm83-3-2-1 1-1 4-1h3v1c1 2-1 4-3 4l-3-2zm-74-1v-2h4v4h-4zm12-1 1-2c2-1 4 0 4 2v2h-5zm74 0-2-3-1-1-2-2-2-1 1-2 1-2h4v6h4v3l-1 3c-1 1-1-1-2-1zm-107-1c-2-2 0-4 4-5h4l1 2c0 3-8 5-9 3zm-160-1-1-4v-2l3-1 1 1v6h-3zm108-1-1-2h-6v-2l-1-2h6l5-1v4l-1 4-1 1zm271 0-5-1-1-5 1-2 2-1 5 5 2-1 2-1 2 3-2 3-2 2zm-138 0-1-2v-2h3l3-1 1-1h2v-3l1-5 1-2 3 3v5l4 2v2l-1 2-4 1-8 1h-4zm97-1v-4l1-2h-2l-1-1v-6h5v6h7l1 2 2 2-4 1-5 2-2 1-2-1zm16-2v-2h2c2 0 3 2 2 4l-2 1h-2zm11 2-4-1v-8h4v2l3 2 2 1v2l-1 2h-4zm-86-1c-1-1 0-2 3-4l4-1 5 2v4h-6l-6-1zm-292-2v-2h9l1 1-1 1-6 2h-3zm177-5-11-1-1-1v-2l9-1h9v-2l1-2h3l1 3v2h6v4h-17zm140-1v-3l4-1 8-4 6-4h2l1 1-1 1v4l4 2 2 3-1 1-3 1-2 1-1-2-2-3-1-2-4 3c-2 2-6 3-8 3l-4 1zm-319-1s1-2 3-2l2-1h3l2 3v1l-10 1zm25 0 1-2 1-1 3 2-1 2-2 1-2-2zm-5 0-1-2v-1h4v2c-1 1-2 2-3 1zm231 0c-2-1-1-2 0-2l2 1c0 2-1 2-2 1zm121-7-2-5 2-5 3-2 4 1 8 4 3 3-1 3h-5l-2-2-2-2-3 1v2c1 3 0 5-2 5l-3-3zm-51 1-1-2 1-1c2-3 17-10 23-11l7-2 4-2 3-1 5 2 1-1 4-3 3-4 1-2 7-4c3-2 8-4 9-6 2-2 9-4 12-4l5 5-5 1-5 1-3 2-8 5-8 6-8 7-6 4-1 4-8 1-1-1v-1l2-3 3-3c-1 0-3 0-5 2l-6 2-13 4-1 1-4 2-4 2-2 1-1-1zm-295-1c0-2 2-4 4-3l1 2v2h-2l-3-1zm389 0c-1-2-3-9-2-10h5l1 2 2 4c0 2-3 5-4 5l-2-1zm-405-2-2-2h-5l-3-3 3-4 2 1 8 1h6l-1-3v-3h2c2 0 6 3 6 6l-1 3-4 1h-7v2l-2 3c-1 1-2-1-2-2zm198-1-1-2h2l2-1v1c1 2 0 3-1 3l-2-1zm194-1-6-1-5-1v-4l1-1 7-1h5v1l2 3 2 1v5h-2l-4-2zm-167 0h-6v-4l14 1 1 1v2l-2 1-7-1zm29 0-1-2v-2h7l1 1v2l-4 1h-3zm-61-1c1-2 3-2 3-1l-2 2-1-1zm-76-1-4-1v-3l13-1v2l-2 3-3 1-4-1zm13 0v-1l2-2 4-1 3-1c1-1 4 0 4 1 0 3-4 5-8 5l-5-1zm39-2-1-2 5-1 8-1 4 2 1 2-9 1-8 1zm75 0 1-1 2 1-2 2-1-2zm-278-2 1-1v2l-1-1zm421-8v-2c0-2 10-7 13-7h2v2l-1 2-5 3c-4 3-8 4-9 2zm-378-1c-1-2 1-4 3-4h2l2-5 2 1 2 3-2 4-3 2h-6zm-140-2-1-2 3-3 5-3h3l1 1 1 3c-1 2-7 6-10 6l-2-2zm125 1c-2-1-1-3 2-4l4-2 2-1h1c2 1 2 4 1 6-1 1-9 3-10 1zm27-1v-2h10c1 1-1 3-5 3l-5 1zm34-3-2-3-2 2c-2 1-4 2-5 1h-1v-9c-1 2-4 5-6 5h-1v-3l1-4 3-3 1-3 6-1 1 1v10l4 1-1-6v-6h1l6 3 1 3v2h-3v5l-1 6-2-1zm116-6 1-1c2 1 2 3 1 3l-2-2zm130-1-2-4-1-2-4 1-4 2-2-3-1-2-5-1v-4h2c3 0 6 3 5 4v2h1c3 0 3-2 2-4l-2-4v-3h-15v-1l-3-1h-2v-5h5l1-5h4v3c1 3 3 5 5 4l-1-3-1-6-1-3h5l5 11-1 5h2l3 2 4 8v2l6 2 1 3 1 3-1 1c-3 2-5 1-6-2zm116 2-1-2v-2l4-1 6-1v5c-2 1-8 2-9 1zm-568-2-2-2 3-6 6-2 9-3h3v1c0 2-2 5-6 6l-6 4-4 3-3-1zm260-2-2-3v-2h4l1 3-1 3-1 1zm-117-2-1-2 1-1h3l1 3v2h-1l-3-2zm420-1-1-3v-2l4-2 7-2c2 0 4 2 4 3s-2 3-5 4l-7 2h-2zm-517-2-1-3v-2l4-2 5-2c2 1 1 4-2 7-4 2-4 3-6 2zm125-1v-20l-7-1v-3h8v-10l-2-2-2-4c0-2 2-4 5-4l3-2 1-1h11v4h-4l-5 1-2 1 1 3 2 1 7-2 3 1 2 3v1h-8v1l1 4v3h3l4 1 1 1-2 2-11-1v-12l-3 1v16l7-1v4l-2 1-3 1-1 8-1 6-5 1zm193 0-2-1v-7l6-8h-3l-3-3v-4l1-2h3l2 8 4 1v6l7 1 1 5h-4l1 5h-2l-5-2-2-1-1 1-2 2-1-1zm-98-6c-1-1-1-4 1-4l2 1 1 2-3 3zm67-1v-1h2v1l-1 2-1-2zm-295-1v-1l10-10h2c2 0 3 1 3 2v2l-6 4-7 5-2-2zm124 1-1-3c0-1 3-2 5-1l1 2-2 2-2 1zm82-2c-1-3-1-6 1-7h1l1 1 1 5v4h-2s-2-1-2-3zm-218-1v-2h3v4h-3zm117 1-1-2v-2h7v5h-3l-3-1zm10 0-1-3v-2h4v5l-1 1-2-1zm202-1-3-2-1-4-1-3h5l2 5h2l2 1c1 1-1 4-2 4l-4-1zm48-1c-1-2 1-5 3-5 3-1 6-1 8 1v5h-5l-6-1zm-383-1c0-2 2-9 4-10l3-4 1-4 8-5v-12l4-2 11-4 10-4 3-1 1 1 1 3v1h-5v1l-1 2-6 1-8 3-4 2-1 11-4 4c-7 6-8 7-8 9l-2 5-2 4h-2l-3-1zm12-2 2-5 2-3 3-3 2-2 2 1 1 2-3 5-4 5-1 2h-5zm225-1-2-4-1-4v-2h5l1 2 1 3-3 4h1l1 1c0 3-3 2-3 0zm119-1-1-2 2-1h3l1 2v2l-3 1c-2 0-2-1-2-2zm-94-3c-1-1 1-4 3-3l2 3v2h-2c-2 0-3-1-3-2zm86-2c0-2 1-4 3-3 3 1 2 4 0 4l-2 1zm-71 0v-4h6v4l-3 1-3-1zm59 0c-1-2 0-6 2-6h2v6l-2 1-2-1zm-297-5-1-2 2-2 4-1 2 2-1 3-3 2-3-2zm317-1v-4l1-1 4-1 2 2v4l-1 3h-6zm-67 1-1-3v-2h5v5l-1 1-3-1zm-143-2-1-1 1-1 1-1 2 1c1 2 1 4-1 4l-2-2zm254 0h-2v-5l10-1v-3h-9l-1-1-1-3c0-2 1-3 4-2h1l-2-4-3-4-1-1v-5h6l1 2 2 3 2 4 2 5 2 4 1 2 4 4-2 3c-3 2-11 3-14 2zm-55-3-3-3v-3l-2-4-1-2 3-2h3l2 3 2 5 2 1 1-1 2-2v-2h3v6l-3 3-5 4-4-3zm35 0-1-3 2 1 3-2 3-1 3 1v4l-1 3h-8l-1-3zm-354-1 1-2 4-4 4-3h2l2 2c0 2-9 10-11 10h-2zm220 2c-2 0-4-4-4-7l1-2h1l3 3 3 4c0 2-2 3-4 2zm60-1-3-5-1-4 1-2 1-1 2 1 1 3 2 3 2 2v2l-2 3-3-2zm-39 0-5-2-5-2 2-4 3-3h2l1 5 6 2v2l-2 3-2-1zm-51-3 1-2 1-1 1 1c1 2 1 4-1 4l-2-2zm14 0c-1-1-2-5-1-9v-2h4l1 3v8l-1 1-3-1zm87-1-3-1-3-2-1-5v-3h4l1 7 2 1h6l-1 4-2 1-3-2zm-96-1-1-1 1-4h2c2 0 3 2 3 5v2h-2l-3-2zm55 0 1-2c1-1 4 1 4 2v2h-5zm-154-7-1-2 4-1h3v3l-2 1-4-1zm13-1 3-4 3-2 2 2 1 4-1 1-8 1zm194 0h2l-1 1-1-1zm-90-2-1-2h-8l-5-5v-8h4l2 8 15 5 1 4h-6zm-108 0-1-2v-2h3l1 5h-1l-2-1zm142-2-3-1-2-7 1-1 3-1h1l1 3 3 4 3 3v2h-2l-5-2zm11 0c-3-2-3-4-3-7v-1h4l1 3 2 3v4l-4-2zm-217-2v-2l9-4h1l2 2c0 2-6 6-10 6h-2zm181-1-1-4 2-2h1l3 4 1 4c-1 2-4 1-6-2zm9 1-2-1 1-4v-4l3-1 1 1 1 3v3l2 3v2h-2l-4-2zm37 1v-4l5 1 3 2c-1 2-7 2-8 1zm-58-5-1-2 1-1c1-2 4 0 4 2l-2 2-1 1zm138-2 1-3c1-1 6-2 8 0l2 2v2h-2l-5 1h-3l-1-2zm-347-1-1-2 1-3h3l4 1 1 3c-1 2-5 2-8 1zm105-1-1-2v-2l-5 2-2-1-1-3c0-1 3-2 4-1h8l1 1-3 7-1-1zm191 0-1-2v-1h5v2c-1 1-3 2-4 1zm21 0-7-2-3-7-4-2-7-2-4-2-1-1h-9v-5h14l1-3 1-3h1l3 2 3 2h1l-1-2-1-4 1-1h6l1 2 4 4 3 3-1 6-6 3 1 1 2 3v2l11 2v4l-1 1-8-1zm-296-1-1-3-1-2 2-1 1-1 3 1 2 1-1 3c-1 3-3 4-5 2zm310-1v-2l-6-3v-7h4l1 4 1 4 2 2c2 0 2 1 2 2l-2 2h-2zm-51-2-4-3-1-2v-3h4l1 2 3 3h5l2 1v2l-1 2-6 1zm-20-1-2-4 2-2h1l4 4 2-1h3l2 3-1 2h-5l-4 1-2-3zm106 2-1-4v-3h2c1-1 5 0 6 3l1 2-2 1-3 2-3-1zm-136-2-3-2v-3l2-4h1l1 2 1 3 6 1v2c0 2-2 3-5 3l-3-2zm18 1-5-3-2-2v-6l-4-1v-2l1-3h23l4 3v-1l7-2 6-1 1 3v2l-2 2h-12v-1l-2 1-2 1-8-1-8-1 1 4v3l4 1c3 0 6 2 4 4h-6zm-117-1 1-1 1 1-1 1-1-1zm-141-2-4-3v-7h1l6 4 4 3v4l-1 1-6-2zm355 1v-2l-2-4-2-2v-5h13l1 2v3h-4l-4 1v1l3 2v5h-2l-3-1zm-315-4-2-1v-5h4l4 2 1 1-2 2-3 2-2-1zm93-1v-1l1-1c2-2 7-1 8 0v3l-4 1h-4zm-31-1c0-2 1-3 3-3l3-2 3-1h2l1 2-1 3-5 2h-5zm15-1 1-1v2h-1zm47-1v-3h6v5h-6zm-109-2-2-1 1-2c2-2 6-4 9-4l2 1c2 2 0 4-4 5l-5 2zm277-1c0-1 2-4 4-4l2 2 1 2-2 1-3 1-2-2zm14-1 1-1v2l-1-1zm-365-2-5-3 1-3 1-1 14 4v5h-3l-8-2zm120-1-1-2h7l3 1-1 1v2h-7l-1-2zm65 0-1-2 2-2 3-1h2v5l-5 1zm-99-1v-1l1-2h4l1 2c-1 2-5 2-6 1zm-100-2-13-7-4-3c-12-6-17-9-17-12l2-2h2l2 2 5 2c4 2 10 5 10 7l1 2h2l4 2 4 2 4 1 3 2v5h-1l-4-1zm172-7 1-3 1-1 2 1 1 2-2 2-2 1-1-2zm37 0-1-4v-4l2-1h2v8c0 2-2 2-3 1zm-120-3a299 299 0 0 0-27-11l-5-1-5-1a6387 6387 0 0 0-30-18c1-1 4 0 8 1l10 3 6 3 4 3 3 2 3 2 1-2 3-1 4 3 4 4 7 2 10 4c1 2 8 3 15 4l8 1 1 3v1h-17l-3-2zm67-2v-3h4l4-2 4-1h2l1 1-1 4-1 3h-13zm37 0 1-2 2-1 2 1v2l-2 2h-2zm12-8v-2l5-2v-2l-1-2c-2 0-4-3-3-5l2-1h2v-6l2-8c0-2 5-1 7 1l2 4v3l-7 5 2 6-1 4-2 5-4 2h-4zm-247-6a1466 1466 0 0 0-18-13c0-2 3-2 5-2l8 5 9 5 3 2-1 4-2 1-4-2zm190-4v-2l6-1v2c0 2-5 2-6 1zm27-2-2-1 1-2 1-1 4 1 1 2-1 1-2 2zm9-4c1-2 4-3 5-1v2l-3 1h-2zm-37-1-3-2c0-2 2-5 3-5 2 0 7 5 7 6-1 2-4 2-7 1zm-214-3-5-1-5-2-1-2 2-2 6 1 7 2 1 2v1c-1 2-3 2-5 1zm268-4-1-2v-1h4v2c0 1-2 2-3 1zm-197-2-2-3 1-1h5l4 1v5h-3l-5-2zm-93-1-1-3v-2h3l4 1 2 3v2H6l-5-1zm69-1-1-1-5-1-5-1-1-3 1-1h3l5 2 3 2v-1l1-1 3 1 5 2 2 2-1 1-9 1zm257-2v-3l6-3h4v2l-1 3-5 1-4 1zm-36-1c0-1 2-3 4-2v2h-4zm-248-1c-2-1-1-3 0-3l2 1c0 2-1 3-2 2zm254-4v-3l3-1c2 0 3 2 3 4v2h-5zm-11-1-1-2v-2h2c2 0 4 2 3 4h-4zm55 0c-2-2 1-4 6-5h4v1l-1 3-5 2h-4zm316-2 1-1 2 1-2 1-1-1zm-423-9-1-3c0-1 4-2 4 0v3l-2 1zm55-2-1-2-5 2-3-3 1-3h6l-2-3v-6h1l2 2c2 2 7 13 6 14s-3 1-5-1zm45-1-5-2-8-1-14-1h-6l-3-3 2-3h9l13 1c7 1 17 5 21 7l2 3v1c-2 2-6 1-11-2zm29 1v-2l5-5h10l1-4 3-4c2 0 4-4 4-7l1-4 1-2h7l12 6 3-1 4-3 5-2 4-1 4-6h9v3l-1 2-7 4c-4 2-8 4-9 6s-4 2-6 3l-8 1h-6l-2-3-2-2-2 3c0 3-4 8-6 8l-2 2-2 4-3 3-6 1-9 1-2 1zM4 100l-4-1v-1l1-4 2-2 16 1 3 3-4 4H4zm22-4c-2-2-1-5 1-6h11v5l-6 1-5 1zm21-6-1-2 2-1 4-3 21-2 14-2h11l24 1 12 1 1 4-2 1c-3 1-25 0-34-1H82l-11 2-14 2-6 1-3 1zm147 1-5-1a255 255 0 0 1-45-6c-5-1-8-2-7-4l1-1h18l4 1c3 1 11 3 19 3s15 2 16 3l4 1h2l-1 4-2 1-4-1zm81-2-2-1v-1l4-2 3-1-4-10-4-10v-2h4l2 3 3 5c2 1 4 8 4 12v2h-2l-2 3-2 2h-4zm-34-7-1-2c1-2 8-4 9-3l1 2v2h-2c-5 2-6 2-7 1zm13-10v-3l1-1h3v5l-3 1zm187-1-2-4v-2l2-1h3l1 1 3-4h2l9-3 11-4 6-1 1 1 1 3-1 1-3 1-6 2-5 1-6 4-6 5-5 1-4 1zm-196-1 1-2 3-1h2v4l-5 1zm11-12 2-4 3-2 4 1v4l-3 1-5 2h-1zm11-5-4-6-2-6-7 1v-5l3-2 6-2h3l1 2 2 6 1 7 2 3-1 2-2 2-2-2zm229-8-1-2v-2l5-2 7-4 3-2 3 1v6l-6 3c-7 3-10 4-11 2zm26-16v-2h2l4-2 2-2 8-1v5c0 1-2 3-4 3l-8 2h-4zm30-4v-2c0-2 14-8 16-8h2v-2c0-2 5-11 8-12l2-1 1 1 1 3c0 2-6 12-7 12h-2l-2 2-17 9-2-2z"/>
</svg>
