<?xml version="1.0" encoding="utf-8"?>
<svg xmlns="http://www.w3.org/2000/svg" version="1.1" viewBox="0 0 1200 345">
	<title>Sketch of a river marsh with hills to either side. A village is on the hillside to the right, and forest to the left. Vague mountains are drawn in the distance.</title>
	<path d="M526.3 344.2c-2-.7-7.1-1.3-11.6-1.3-5.1 0-8.7-.5-10-1.4-1.7-1.3-1.6-1.5 1.5-3.1 2.8-1.5 3.2-2.1 2.8-4.4-.7-3.4 0-4.7 3.3-5.5 2.4-.6 5-4.5 7.9-12 1.2-3 3.2-3.5 5.1-1.2a3 3 0 0 0 3.1 1c1.3-.4 2.1 0 2.5 1.2.4 1 1.8 2.8 3.2 4 2.1 1.8 2.3 2.4 1.3 3.7-1 1.1-1.9 1.3-3.7.6-2.1-.8-2.4-.7-2.4 1.6 0 3.9-4.6 7.4-9.8 7.4-3.6 0-4.3.3-4 1.8.3 1.3 1.2 1.7 3.3 1.5l9.7-.4c6.5-.1 6.6-.2 6.5-2.7-.2-2 .3-2.6 1.8-2.6 1.2 0 2.1-1 2.5-2.5.4-1.8 1.8-2.8 5.5-4 4.8-1.7 5-1.9 4.7-5.2-.2-1.8-1-3.9-1.8-4.5-2.2-1.7-1.7-3.7.8-3 1.5.4 2.9-.3 4.9-2.4 1.5-1.7 3.7-3 5-3 2.7 0 6 2.2 6 3.9 0 1.4-.7 1.4-3.2 0-1.6-.8-2.5-.7-4 .7-1 1-1.9 2.4-1.9 3.2 0 1.3.3 1.3 2.3 0 2.6-1.6 11.2-1.2 12.5.6.4.6 1.4 2.8 2 4.9 1.2 3.2 1.1 4-.2 6-2 2.7-2 3.7-.1 3.7.8 0 2-1 2.6-2.1 1.1-2.1 1.3-2.1 2.5-.4 1.5 2 1 4.3-2 7.2-2.9 2.7-5.8 4.2-7.3 3.6-2-.7-1.5-2.2 1-3.2 2.2-.8 2.2-.9-.8-2a40.8 40.8 0 0 0-19.4.9c-3.4 1.8-2.4 3 2.7 3 5.2 0 7.8 1.2 6.8 3-.4.6-4.3 1-9.9 1.1-13.8.1-15.5.3-16.9 2-1.1 1.4-1.8 1.4-4.8.3zm17-8c0-.8-.5-1.2-1-.8-.6.3-.8 1-.5 1.5.9 1.4 1.5 1.1 1.5-.6zm-14-14.9c0-.8-.4-1.5-1-1.5-.5 0-1 .7-1 1.5s.5 1.5 1 1.5c.6 0 1-.6 1-1.5zm33 .5c0-.5-.4-1-1-1s-1 .5-1 1a1 1 0 0 0 2 0zm5-2.5c0-.8-.4-1.5-1-1.5-.5 0-1 .7-1 1.5 0 .9.5 1.5 1 1.5.6 0 1-.6 1-1.5zm31.8 19.8c-4.8-.2-8.8-.8-8.8-1.3l-.2-1.7c-.2-.4 2-.8 4.7-.9l11-.3 6-.2-4.2-1.9c-4.7-2-7.3-5.6-4.9-6.6.8-.3 2.4.4 3.5 1.5 2.2 2.2 2.6 2.3 14.4 4.3 6.2 1 7.7 1.6 7.7 3 0 2.2-3.6 3.4-5.6 1.8-1-1-2-1-3.7-.2a33.8 33.8 0 0 1-10.7 3l-9.2-.5zm-19.2-2.1c-1.1-1.9 1.6-7 4-7.6 4.7-1.2 2.4-4.7-8.4-12.6-3.3-2.5-6.1-5-6.1-5.7-.1-1.7 2.5-.6 8.9 3.8 4 2.9 5.7 3.6 6.7 2.8 1-.8 2-.8 4 0 1.6.6 4.4 1.2 6.3 1.3 2.8.3 3.6.8 3.8 2.6.5 3-5.3 10.8-9.1 12.4a10 10 0 0 0-4 2.5c-.9 1.5-5.3 1.8-6.1.5zm11-14.2c-.4-.5-1.1-1-1.6-1s-1 .5-1 1c0 .6.7 1 1.6 1 .8 0 1.3-.4 1-1zm45.4 12.5c0-.8.4-1.5 1-1.5.4 0 1 .7 1.4 1.5.3 1 0 1.5-.9 1.5-.8 0-1.5-.6-1.5-1.5zm10.4-1.2c-4.5-.4-7-2.3-6-4.8.7-1.7 6.2-2 7.2-.4.3.6 1.7 1.5 3.1 2s2.3 1.5 2.1 2.1c-.5 1.5-1.1 1.6-6.4 1.1zm-146-3.4c-1-1.6 1.1-3.1 3.5-2.4 3 1 2.7 3.5-.4 3.5-1.3 0-2.7-.5-3-1zm78-5.2c-.8-2.3.3-3.4 1.8-1.9 1 1 1 1.5 0 2.4-.8.9-1.3.8-1.8-.5zm-315.5-5.7c0-1 .7-2 1.5-2s1.5 1 1.5 2-.6 2-1.5 2-1.5-.9-1.5-2zm396.1 1c-3-.4-9.8-.8-15.2-.9a106 106 0 0 1-24-2.6c-3.4-.4-4.8-1-4.8-2.2 0-1.3 1-1.4 5.8-.8 9.1 1 30 2.4 38.8 2.5 8.9 0 14.4 1.4 14.4 3.6 0 1.6-5.3 1.7-15 .4zm-301.1-5c-3-2-7.2-4.2-9.3-4.8-4-1.1-6.6-3.5-6.6-6.4 0-2.2-1.8-3.2-3.4-2-1.3 1.2-41.2 3.6-42.7 2.7-.5-.3-1 .8-1 2.5 0 2-.5 3-1.5 3s-1.5-1.1-1.5-4.4c0-3.5-.4-4.6-1.9-5-2.3-.8-3.5-3.6-2.1-5 .6-.5 1-2 1-3.2 0-2.7 2.5-3.8 4.1-1.8.7.8 1.5 3.1 1.8 5.1.8 4.8 2.8 5.9 8.8 4.7 4.2-.8 5-1.4 6.7-4.7 1-2 3-4.5 4.5-5.4 3.7-2.4 6-5.4 6.1-8 0-2.6-1.7-3.1-2.6-.8-.3.8-1.1 1.5-1.8 1.5s-3.8 3-7 6.5c-4.4 5-6.2 6.4-7.7 6-1-.4-1.9-.2-1.9.4 0 .6-.6 1.1-1.5 1.1-1 0-1.5-1-1.5-3.4 0-2.5-.7-4-2.7-5.8-2.5-2.1-2.8-2.9-2.7-8.6.2-6 0-6.3-2-6-1.4.2-2.2 1.2-2.6 3.3-.3 2.1-1.1 3-2.7 3.3-2.7.4-3-1.6-.8-5.8 1.2-2.4 2.3-3 5.5-3.2 6.2-.5 5.3-2.3-1.2-2.6-6-.3-6.1-.5-5.8-5.5.1-1.9-.3-2.7-1.4-2.7-.9 0-1.6.8-1.6 1.8s-.6 2.5-1.4 3.1c-2 1.6-5.7-.3-5-2.5.9-2-.5-8.6-1.6-8-.5.4-.6 2.7-.3 5.2.5 3.7.4 4.5-.8 4.2-.7-.3-1.5-1.7-1.7-3.2-.4-3.6-2.2-3.4-2.2.4 0 2.6-.3 3-2.8 3-1.5 0-3.6-.6-4.7-1.3-1-.8-3.9-2-6.1-2.7-2.6-.8-4.4-2-4.7-3.2-.5-1.9-.7-2-3.1-.3-1.4 1-2.6 2.5-2.6 3.5 0 2.6-2 3.6-3.5 1.6-.7-.9-1.7-1.6-2.2-1.6-.6 0-1.4-.8-1.7-1.7-.5-1.3-1.6-1.5-5.9-1-3.5.3-6.1 0-8-1-1.7-.9-4.4-1.3-6-1-1.8.2-4.4-.2-6-1-1.5-.8-3.3-1-4-.7-1 .6-5.8 1.3-19.1 2.6-3.7.3-4.4-1.5-1.6-4.2 1.6-1.7 3.2-2.1 7.3-2 2.9.1 7.9-.5 11.1-1.3a22 22 0 0 1 7.2-1 40 40 0 0 0 13.4-5.7 23 23 0 0 1 4.3-2c3-1.1 3.7-4.4 1-5.9-2.5-1.4-.9-5.3 4.7-10.7 2.7-2.7 5.6-5.2 6.5-5.7 2.3-1.3 1.8-2.8-1-2.8-1.5 0-2.6.7-3 2-.3 1-1.8 3-3.3 4-2.2 1.8-3.4 2-7.3 1.5-4.4-.6-4.8-.5-6.5 2.2a37.7 37.7 0 0 1-9.7 10.3c-.6 0-1.6-.7-2.3-1.7-1.2-1.7-1.4-1.6-3.4.5-2.3 2.5-7 3-7 .8 0-.7 1.4-1.8 3-2.4 3-1 4-2.7 1.8-3.4-.7-.2-1.2-2.4-1.3-5.2 0-3.8.4-5.1 2.2-6.6 1.3-1 2.3-2.3 2.3-2.9 0-2-2.4-1.1-4.5 1.6-1.9 2.3-2.9 2.6-8.3 2.7-3.8 0-6.3.6-6.6 1.3-.3.8-1.4 1-3.3.4-2-.5-2.9-1.4-3.1-3.4-.4-3.3-1.7-3.4-3.7-.3a8.8 8.8 0 0 1-3 3c-1.4.5-8.2-2.2-11.7-4.6-1.3-1-2-.9-3.5.4-1 .8-3.4 1.5-5.3 1.4-3.7 0-4.3-1.4-2.6-6.3.5-1.7.3-2.3-.8-2.3-1 0-1.9 1.4-2.4 3.3-.6 2.3-1.5 3.3-3.2 3.6-2 .3-2.2 0-1.7-2.8.5-2.4.2-3.3-1.3-4.1-1.7-1-2.4-.4-5.2 3.5-2 3-3.5 4.2-4.2 3.6-.6-.7-.5-2 .2-3.6.7-1.5 1-3 .7-3.5-1-1.5-4.6.2-6.8 3.1-2.6 3.6-5.3 4-4.2.7 1.2-3.9 1.7-10.8.7-10.8-.5 0-1.8 1.6-2.8 3.5-2.3 4.4-3.9 4.5-3 .4.5-2.8.4-3-1-1.8-1.3 1-1.7 1-2.5-.2a9 9 0 0 1-1-3.6c0-1.5-.6-2.3-2.2-2.5-2-.3-2.2-1-2.3-4.8 0-5.7-1.1-9-3-9-1 0-1.5.8-1.4 2.2.4 4.7 0 6-1.8 5.6-1.2-.2-1.6-1.1-1.4-3 .4-3.6-2-3.8-3.6-.3-1.6 3.4-3.4 3.1-6.7-1-1.5-2-3.3-3.5-4-3.5-1.7 0-2.8 3.1-2 5.2.3.9.1 1.9-.5 2.3-.6.3-1 2.1-1 4 0 4-1.6 5.4-3.6 2.9-1.6-2.1-1.9-6-.5-6.8.4-.3 1.2-1.8 1.5-3.4a13 13 0 0 1 2.7-4.8c2-2.2 1.7-5.4-.5-5.4-.7 0-2.7 1.5-4.6 3.4-2.3 2.4-3.1 4-2.8 5.5 1 3.4-1.4 3.6-3.9.5-3-3.9-3-6.3.6-10.5 1.7-1.9 3-4.4 3-5.6 0-1.1.7-2.6 1.6-3.3.8-.7 1.5-1.9 1.5-2.7 0-1.8-3.7-1.7-4.8.2-1 1.8-7.7 3.6-10 2.8-.7-.3-1.6-1.9-2-3.5-.6-3.4-3.5-3.6-4-.3-.6 3-2 4-3.6 2.6-1.2-1-1.9-.8-3.5 1-1 1.1-2.5 1.8-3 1.4-1.8-1 .8-5.1 4.2-6.6 2.5-1.1 3.2-2.1 3.5-4.7.3-3.8 0-4-3.8-1.1-2.3 1.7-3.2 1.9-5 .9-2.2-1.2-2.2-1.3-.4-7.8.7-2.7-1.3-3-3.1-.6-.8 1-2 1.4-2.9 1-2-.8-2.2-6-.1-7.7.8-.6 1.5-2.7 1.5-4.6 0-2.7-.4-3.4-2-3.4-1.4 0-2 .7-2 2 0 1.7-.6 1.8-3.8 1.3-4.7-.7-5-.9-3-3 3.2-3.5 17.1-6 20.2-3.7a7 7 0 0 0 3 1.4c3.2 0 5-12.5 2-13.6-2-.8-1.8-2.3.3-4.6 1.7-1.9 1.6-2-1-4-1.5-1-2.7-2.8-2.7-3.8s-.7-2-1.5-2.3c-.9-.4-1.2-1.4-.8-2.7.5-2 .3-2.2-2.6-1.5-2.4.5-3.1.3-3.1-.9 0-.8 1-1.8 2.2-2.2 2.4-.7 10-6.4 9.5-7-.9-.9-7.3 2.3-9.8 4.8-1.5 1.6-3.5 2.8-4.4 2.8-1.5 0-1.7-.7-2-10.7 0-1.7-1-4.8-2-6.8-2-3.6-2-3.7-.1-5.1 2.6-2 3.6-1.8 4.3.6.5 2 2.7 2.7 3.6 1.2l1.1-4c.6-2.5.4-3.2-.8-3.2-.8 0-1.8 1-2.2 2-.4 1.3-1 1.8-1.5 1.3s-.3-2.6.5-4.8c1-3.2 2.3-4.6 6.2-6.8 2.7-1.5 5.4-2.7 6.1-2.7 2.5 0 1.1 1.5-3.4 4-7.2 3.8-6.6 5.6.5 2 7-3.5 7.5-3.6 8-2.1.2.5-1.5 1.8-3.8 2.7-2.2.8-4 2-4 2.5 0 1.2 1.7 1.1 4-.2 1.2-.6 2.8-1 3.7-.7 1 .1-1 2-5.2 4.7-4.8 3-6.4 4.6-5.4 5.2.9.5 4.3-.8 9.6-3.7 4.5-2.4 8.7-4.4 9.3-4.4 2.3 0 .7 2-3 4-3.1 1.6-4 2.5-3.6 3.9.8 2.4-8.3 8.3-10.7 7-1.7-1-8.7 2.5-8.7 4.2 0 1.6 2.9 2.2 4.4 1a4 4 0 0 1 3.5-.6c2.1.6 6.6-1.3 11.8-5.3 3.8-2.9 6-2 2.4.9-1.3 1-2.1 2.5-1.8 3.3.4 1-1 2.7-3.4 4.6a22.9 22.9 0 0 0-5.5 6.5c-1.5 3-1.5 3.6-.1 5 .8.8 1.7 2 1.9 2.7.2.8 1.1.4 2.6-1 1.8-1.9 2.5-2 4.7-1 3 1.3 4.4 0 4.4-3.8 0-1.2 1.2-3 2.6-3.8 3.4-2.2 3.4-5 0-4.2-7.1 1.8 2.3-6.3 10.2-8.8 4-1.3 2.5 1.8-1.8 3.6-2.5 1-4 2.2-3.7 3 .8 2.2 3.6 2 7.5-.6 4.2-3 5.3-3.2 5.3-1.3 0 .7-2 2.3-4.5 3.5-2.5 1.2-4.5 2.6-4.5 3.2 0 1.7 2.4 1.1 6-1.5 1.8-1.4 4-2.5 4.7-2.5 2.7 0 .7 2.2-4.3 4.9-5.9 3-6.7 4.1-3.8 5.1 1.6.6 2.7.1 4.8-2.1 1.5-1.6 3.2-2.6 3.8-2.3.7.4-.6 2.3-3.2 4.7-3.8 3.5-4.1 4.3-3.5 7 1 5 1 11.2 0 11.7-.6.3-1.4-1.5-1.9-4-1.8-10.1-1.7-10-3.3-5.5-1.7 4.9-1 8.5 2.2 11.6 3 2.8 3.2 6.6.5 11.7-2.5 4.6-2.5 5.5-.2 7.6 1.8 1.6 2 1.5 2.6-2.5.7-4.4 3.2-8.2 4.7-7.3.5.3.4 1.5-.2 2.6-.6 1-.9 2.5-.6 3.2.2.7-.2 2.3-.9 3.7-1.8 3.2-1.8 6 0 5.4 2-.9 4-5.4 3.7-8.7-.4-3.9 4.2-8.2 7-6.5 2.9 1.8 4.9.2 4.9-4.1 0-5.4 3-9.2 7.5-9.2a16 16 0 0 0 6.7-1.9c4.3-2.5 7.8-3.5 7.8-2.2 0 .5-2.1 2-4.7 3.3-5.7 2.9-10.3 9-8.6 11.7.6 1 1 5 .7 9.6-.3 5.6 0 7.6.8 7.3 2.3-.8 3.5-7.9 2.1-13.7-1.3-5.8-1-7 1.4-7 1.7 0 7.5-3.3 10.8-6 2.5-2.3 5.5-3.3 5.5-2 0 .5-3.2 3-7 5.6-3.9 2.5-7 5-7 5.4s1.2 1.4 2.7 2.2c2.5 1.2 2.7 1.8 2.5 5.5-.1 2.3 0 4.2.3 4.2s3.5-2 7-4.5c3.6-2.4 6.8-4.5 7.2-4.5.4 0 2-.9 3.3-2 1.4-1 3-2 3.7-2 2.6 0 0 2.7-5.5 5.9-12.5 7.2-14.2 8.3-14.2 9.3 0 .7.9.8 2.2.4 1.3-.4 3.6-1 5.3-1.3a19 19 0 0 0 8.5-4.3c.3-.4 2-1.5 3.8-2.4 6-3 3 .6-4.6 5.7-7.6 5-8.7 6.4-9.6 11.3-1 5.6-2.8 11-4.3 12.6a4 4 0 0 0-.9 3.7c.5 1.5.1 2.2-1.4 2.7-2.1.6-2.8 2.5-1 2.5 3.8 0 7-4.4 7.4-10 .3-4.3 4.4-9 10.6-12a180 180 0 0 0 13.3-8c7-4.8 10.3-6.2 9.5-4.1-.4 1-21.5 14-22.9 14-.5 0-1.3 1-2 2-1.4 2.8 1.2 3.8 4.3 1.6a9.5 9.5 0 0 1 4.5-1.5c1.3 0 4-1.1 6-2.4 7.6-4.7 23.4-12.9 24-12.3.8.8 1.4.4-10.5 7.2-16.6 9.6-17.2 10-17.2 10.7 0 1.2 4.7 2.8 6.2 2.2a12 12 0 0 0 3.3-3.6c1.3-2 5.7-5 13.4-9 6.2-3.4 11.1-5.5 10.9-4.7a40 40 0 0 1-9.5 6.3 130 130 0 0 0-9.9 5.8c-.4.4 0 1.5.8 2.5a10 10 0 0 1 2 3.8c.4 1.7.7 1.6 2.4-1.3 2.4-4 4.8-3.8 5.2.5.3 3 .6 3.2 2.8 2.7 1.4-.4 2.4-.2 2.4.5 0 1.6 2.5 1.3 4-.4 1-1.2 1-1.6-.4-2.1-3.2-1.3-1.5-2.4 3.4-2.4 3.7 0 5.2-.5 5.9-1.8.5-1 2.2-2.5 3.8-3.3l7.4-4.2c2.6-1.5 5.1-2.8 5.8-2.8 2.8 0 .5 2-7.4 6.5-8.1 4.5-11 7.5-6.2 6.2 1.2-.3 3-.6 4-.6.9 0 2.7-1.1 4-2.4 1.2-1.3 5.3-4.3 9-6.5 6.6-4 9.7-5 9.7-3.4 0 .8-11 7.2-14.7 8.6-3.3 1.2-2.8 2.3 1.5 3 6 1 6.3 1 15.2-4.3 4.7-2.8 9-5 9.8-5 2.8 0 .8 1.8-5.8 5.5-6.5 3.7-8.9 6.5-5.5 6.5.8 0 1.5-.5 1.5-1 0-2.2 3-.9 4.4 1.8 1.2 2.2 2.5 3 5.6 3.5 2.2.4 5.1.4 6.4 0 1.7-.3 3 .1 4.4 1.5 1 1 2.4 2 2.8 2.3.5.2 2.2 2.4 3.8 4.8 2.8 4.4 2.9 4.4 4.5 2.3 2.2-2.9 6.9-4 8.4-2A44.1 44.1 0 0 0 277 182c2.5.5 4.2 0 7.3-2 2.2-1.4 3.7-3 3.4-3.5-.7-1.2-7.5.1-9.5 1.8-2.3 2-4.2 1.8-3-.5 1.4-2.5.5-3.1-4.6-3.1-4.7 0-8.7-1.6-7.8-3 .3-.5 2-.5 3.8 0 1.8.6 5.1 1 7.4 1 3.6 0 4.6-.5 6-2.8 1-1.5 1.8-2.9 2-3 .4-.8 6.8 3.2 8.4 5.1 1.6 2 2.1 2 5 1 2.7-1 3.3-1 4.7.8 3 3.6 6.8 5 9.6 3.7 3-1.3 5.6-.5 5.7 1.9 0 1 1.5 2.5 3.7 3.5 2 1 5.2 3 7 4.7 1.8 1.7 5 3.5 7 4 18.8 4.8 19.8 5 24.4 2.5 2.7-1.4 4-1.4 12.7 0 5.7.9 17.2 1.5 28.2 1.6 31.2.1 39 .4 39.2 1.5.3 1-7.3 2-21.7 3l-22.5 1.5c-8.6.6-23 1-32 1l-19.6-.3c-1.6 0-6.7.4-11.2.8-7.4.7-8.3.6-8.3-1 0-1.3 1-1.6 5.7-1.3 3.8.2 5.8-.1 6-1 .6-1.4-12.4-1.4-13.4.1-1.5 2.5-.2 8 2.8 11.4 2 2.3 2.8 4.1 2.4 5.4-.9 2.7 3.4 4.6 7.2 3.1a47 47 0 0 1 19.7-2.8c6.5.6 9.7.1 9.7-1.4 0-.4-1-1-2-1.3-1.2-.3-2-1-2-1.7s.8-1 2.2-.7c1.2.4 5.3 1.2 9 1.8 6 1.1 7 1 8.7-.5 1.4-1.3 2.3-1.5 3.8-.7 1 .5 3 .8 4.1.4 2.4-.6 10.2 2.4 10.2 4 0 .5-1.2.7-2.8.3-5-1.2-5.7-1.1-6 .7-.3 1.2.2 1.7 1.6 1.7 1.1 0 3.5 1.6 5.3 3.5 2.9 3.1 3.9 3.5 8.2 3.5 3.8 0 5.6-.6 8-2.5 2.2-2 3.6-2.4 5.8-2 1.8.5 3.6.1 5-.9a9 9 0 0 1 8.3-1c2 .8 1 2.4-1.5 2.4-1.2 0-2.7 1.3-3.7 3-2 3.6-3.7 4.4-6.2 3-2.9-1.5-7-1.2-7 .5 0 1 1.4 1.5 4.6 1.7 5.2.4 7.5 2.8 2.6 2.8-1.6 0-4.1 1-5.5 2-1.7 1.3-4 2-6.9 2-6.2 0-11.8 1.1-11.8 2.3 0 .6 1.4.8 3.5.4 2.7-.4 3.7-.1 4.5 1.3 1.7 3.3 11.2 5.2 30 6.2 9.6.6 18.8 1 20.5 1 1.6 0 5.7.8 9 1.8 7.3 2.3 21 4.4 22.5 3.6.6-.4 2.6.3 4.6 1.5 2 1.3 4.6 2.4 5.7 2.6l10.6 1.4c9.4 1.2 14.1 3.1 14.1 5.8 0 3-6.2 8.2-9.7 8.2-1.8 0-3.5.4-3.8 1-1.2 1.9-3.5 1-4.1-1.6-.4-1.6 0-4 1-6 2-4.4 2-4.4-.4-4.4-1.5 0-2 .6-2 2.4 0 1.6-.7 2.7-2 3.1-1.7.5-2 1.2-1.6 3 .4 1.6 0 2.4-2 3.3-4.5 2-2.9 3.4 3.3 2.7 10.2-1.2 14.3-1.3 14.9-.4.3.5-.5 1.3-1.8 1.7a3.3 3.3 0 0 0-2.3 3.2c0 3-4.5 4.5-20 6.6-10.9 1.4-13.5 1.3-13.5-.5 0-1 2.9-1.5 12-2.6 6-.6 9-1.7 9-3 0-2.3-6.2-2.8-19.2-1.5-7 .7-21.2 1-33 .8-11.5-.2-20.8 0-20.8.4 0 1.1-3.9 4.8-5 4.8-.6 0-1-1.1-1-2.5 0-3.2-1.7-4-4.6-2.5-1.9 1-3 1-5 .1-3.1-1.4-4.8-.6-3.6 1.6 1 1.7.4 5.3-.8 5.3-1.4 0-5-6-4.4-7.5.4-1.2-.2-1.5-3-1.5-2.9 0-3.6-.4-3.6-1.9 0-1-1-2.6-2-3.6-1.1-1-2-2.4-2-3 0-2.5-8.3-3.6-9.6-1.4-.4.7-4 1-9.8.8h-11.7c-2.3.2-2.3.3-.5 1 1.1.5 4.4 1 7.2 1 6 0 8.4.8 8.4 2.6 0 .7 1 1.5 2.2 1.8 1.2.3 1.8 1 1.4 1.4-.8.8-3.4 1-22 1.2-13.9.3-11.7 3.2 3.3 4.5l13.8 1c5.6.5 10.3 1.2 10.3 1.7s-.6 1-1.3 1a445 445 0 0 1-26.8-1c-12.4-.7-13.6-.6-14.8 1-1.7 2.3-3.2 2.4-3.2.4 0-.8-.6-1.5-1.5-1.5-1.8 0-1.9-1.2-.2-2.9 1-1 .6-1.2-2.2-1-4.1.5-5.4 3.6-3.7 9 1 2.7 2 3.7 5.6 5.1 5 2 8.3 1.9 32.8-.8 7.8-1 15-1.4 15.7-1 4 1.5.3 2.4-14.2 3.6-16.1 1.3-26.2 3.4-12.3 2.5 27.6-1.7 29-1.7 29-.2 0 1.1-2.6 1.5-12.7 2-7 .4-15.4.7-18.6.7-5 0-5.8.3-5.5 1.8.3 1.3 1.4 1.7 4.4 1.7 3.3 0 4.6.6 6.7 3a16 16 0 0 1 2.7 3.7c0 .3 1 .8 2 1.1 2 .5 2.8 3.1 1.2 4.1-.4.3-3.2-1.2-6.2-3.3zm-43-17c0-.5-.4-1-1-1a1 1 0 0 0-1 1c0 .6.5 1 1 1 .6 0 1-.4 1-1zm12-.9c0-.5-.6-1.1-1.5-1.5-.8-.3-1.5-1.4-1.5-2.5s-.4-2.3-1-2.6c-1.7-1-4 1.5-4 4.6 0 2.7.3 2.9 4 2.9 2.2 0 4-.4 4-.9zm-20-8.1c0-.6-.6-1-1.5-1-.8 0-1.5.4-1.5 1 0 .5.7 1 1.5 1 .9 0 1.5-.5 1.5-1zm2.8-6.9c.4-1-.1-1.2-2-.8-3.6 1-5.8-2-6-8.2-.2-4.2-.6-5.1-2-5.1-1.2 0-1.8-.6-1.6-1.7.2-1 1.6-1.7 4.1-2l3.8-.4-.6 3.8c-.6 4.3.6 9.5 2.3 10 .9.3 1.2-1 1.2-4.1v-4.6l3.7.3c2.2 0 3.8-.3 4-1 .3-.9-.4-1.3-2-1.3a7 7 0 0 1-4.4-2c-1-1.1-2.3-2-3-2-2 0-1.5-1.8.7-3 2.8-1.5 5.1-1.3 6.6.7 1 1.5 1.3 1.5 2.8 0 .9-.8 2-1.7 2.6-1.9 1.5-.5 2.6-6.8 1.2-6.8-.7 0-1.2.4-1.2 1s-1 .7-2.5.4c-1.6-.4-2.5-.2-2.5.5 0 .8-2 1.1-6.2 1-6.2-.3-6.3-.3-7.8 3-.9 1.7-2 2.8-2.3 2.4-.5-.5-1.4 0-2.2 1-.7 1-1.5 1.4-1.9.8-.3-.5.1-1.5 1-2.1.8-.7 1.4-2 1.4-2.7 0-.8.7-1.7 1.5-2 2.3-.8 1.8-3.3-.6-3.3-1.6 0-2 .4-1.6 2 .4 1.5 0 2-1.5 2-1.1 0-2.2-.9-2.5-2-1-3.6-2.5-1.6-2.5 3 0 8 0 8.2 2 7.1 1.4-.8 2-.1 4 4.6 2.3 5.9 3 11.7 1.2 12.8-2.5 1.5-.4 2.3 5.7 2.2 4.7-.2 6.8-.6 7.1-1.6zm31-4.6c0-1.4-.3-2.5-.8-2.5-.4 0-1 1.1-1.2 2.5-.3 1.6 0 2.5.8 2.5.6 0 1.2-1.1 1.2-2.5zm-23.4 0c.7-1.8-.2-4.5-1.5-4.5-.5 0-.9 1.3-.9 3 0 3.1 1.4 4 2.4 1.5zm4.4-5c0-3-.4-5.2-.9-5s-.9 3-.9 6.1.4 5.3.9 5 .9-3 .9-6zm10.2 5c.6-.7.8-1.6.3-1.8-1.5-1-6.3.5-6.3 1.9 0 1.8 4.5 1.8 6 0zm3.7-1.8c-.3-.7-.5 0-.5 1.3 0 1.4.2 2 .5 1.2.3-.7.3-1.8 0-2.5zm136 .8c.8-2 13-2.2 13.7-.3.3.9 1.4.4 3.3-1.5 1.8-1.7 2.5-3 1.9-3.6a57 57 0 0 0-12.7-1.4c-9.7-.5-12-.3-14 1-1.5 1.2-5.7 1.9-13.8 2.4-12.3.8-21.4 2.5-20.5 4 .3.5 9.8.9 21 .9 17.4 0 20.6-.3 21.1-1.5zm-108.9-.1c4.1-1.1 2.3-2.4-3.3-2.4-4.7 0-5.6-.3-6.3-2.2l-.8-2.1-1.5 2a6.6 6.6 0 0 1-3.8 2.4c-1.3.2-2.6 1-2.8 1.6-.3 1 1.7 1.3 8 1.3 4.5 0 9.3-.3 10.5-.6zm47.3-1.7c3-.2 7-1 8.7-1.8 2.9-1.2 3.6-1.2 6.2.4 3.7 2.2 4.7 2.1 5.3-.2.4-1.2 1.6-2 3.3-2.3 1.6-.2 3-.8 3.2-1.5.5-1.6-8.5-2.8-10.2-1.3-1.6 1.3-5.6 1-5.7-.5 0-.6 1-1.6 2.5-2.3 1.5-.8 2.7-1.8 2.7-2.3 0-1.3-4.9-3.1-7-2.7-.8.2-2.7-.2-4.2-.9-1.4-.7-4.7-1.8-7.3-2.3-4.2-1-4.8-.9-6.4 1-1.5 1.8-2 2-8 .9-7.2-1.3-8.4-2.8-5.3-7 1.3-1.6 2.2-4.4 2.2-6.4v-3.6h-6.5c-5.9 0-6.5.3-6.5 2 0 1.2-.5 2-1 2-1.4 0-5.1-4.2-4.7-5.4.2-.6 4.6-1.3 9.7-1.6 13.6-.8 16-2 12.3-6.1-1.6-1.8-1.7-1.8-4 .3-1.8 1.7-2.6 2-3.5 1-.7-.6-2-1.2-3-1.2s-3.3-1.3-5-3c-3.4-3.2-4.8-3.6-6.6-1.8-1 1-1.9.7-4-.9-2.2-1.6-5.1-2.3-11.3-2.8a36 36 0 0 1-10.7-2c-3.4-2.2-6-1.8-8.2 1.5-2.2 3-1.2 5.2 1.4 3 2.1-1.7 9 3 10.5 7.2 2 5.7 2.5 6.1 7.2 7.3 5.1 1.3 6.9 1 6.9-1 0-.8.9-1.5 2-1.5 2.3 0 2.7 1.8.5 2.7a9 9 0 0 0-3.1 3.1c-1.6 2.4-1.6 2.7.1 4a11 11 0 0 0 5.2 1.3c4.1 0 4 2.3 0 2.8-1.6.2-2.7 1-2.7 1.7 0 1.5.9 1.8 4.7 1.5 3-.2 8.1 4.8 6.2 6-.8.5-2.7 1-4.2 1-3 0-3.7 1.4-1.2 2.4 1 .3 4.5.6 8 .6 5 0 6.5-.4 7.6-2 1.3-1.8 1.7-1.8 7.9-.5a57 57 0 0 0 9.5 1.4c4 0 7.4 2.5 5.9 4a12 12 0 0 1-5 1.8c-4 .6-5.4 1.7-5.4 4.1 0 1 .8 1.2 2.7.8a67 67 0 0 1 8.3-1zm-42.4-29.6c-.4-.6-.2-1.3.4-1.7 1.5-1 2.5.4 1.3 1.7-.8.7-1.3.7-1.7 0zm1.5-11.2c-1.3-1.1-2.1-2.3-1.8-2.7 1.2-1.1 6.1 1.2 6.5 3 .4 2.3-1.8 2.2-4.7-.3zM353 231c-2-4.2-1.7-4.9 1.2-3.3 1.4.7 2 2 2 4 0 4-1.2 3.8-3.2-.7zm-6.4 40.3c-.3-.8-1-1.5-1.5-1.5s-.8.7-.8 1.5.6 1.5 1.4 1.5c1 0 1.3-.6 1-1.5zm49.7 0c0-.8-.5-1.5-1-1.5-.6 0-1 .7-1 1.5s.4 1.5 1 1.5c.5 0 1-.7 1-1.5zm-55.2-1.7c.2-1.1-1-2.5-3-3.7a28.6 28.6 0 0 1-4.4-3c-1.3-1-10.9-2.4-11.8-1.5-.8.8 3.2 4.4 5 4.4.7 0 1 .6.7 1.4-.9 2.3 3.7 4.7 8.6 4.4 3.4-.2 4.6-.8 4.9-2zm169.7.2c.4-.6-.5-1-2-1-1.3 0-2.5.4-2.5 1s.9 1 2 1c1 0 2.2-.5 2.5-1zm-60.5-1.5c0-.8-.4-1.7-1-2-1.1-.7-2.3 1.2-1.5 2.5.9 1.5 2.5 1.2 2.5-.5zm8-1c0-1.6-1.4-2.8-2.3-1.9-.8.8.3 3.4 1.4 3.4.5 0 .9-.7.9-1.5zM477 265c.4-3-1.5-5.2-2.4-2.8-.8 2-3.4 2.2-3.4.2 0-.9-.7-1.5-1.5-1.5s-1.5.9-1.5 2c0 2.3-2.8 2.7-3.7.5-.6-1.7-2.9-2-3.8-.5-.4.5-.4 1.9 0 3 .6 1.9 1.4 2 8.3 1.8 7.2-.3 7.7-.5 8-2.7zm9.2-.1c0-3.2-1.7-4.1-2.6-1.5-.8 1.8.2 4.5 1.6 4.5.5 0 1-1.4 1-3zm8.7 1.4c2-2 1.7-2.2-2.7-2.6-3-.3-3.6 0-3.8 2-.3 1.8.1 2.2 2.3 2.2 1.4 0 3.3-.7 4.2-1.6zm-131.3-.6c3-1.3 3.3-2.7.8-3.5l-3.7-1.3c-1.1-.5-4-1.2-6.4-1.5s-6-1.5-8.2-2.6c-2.1-1-4.1-2-4.4-2-1.4 0-.3 2.5 2.3 5 2 2 3.5 2.7 5.2 2.4 1.6-.3 3.5.5 5.5 2.1 3.3 2.8 5.2 3.1 9 1.4zm118.1.1c.4-.6.4-2.3 0-3.7-.6-2.5-.8-2.6-2-1-.7 1-1 2.7-.8 3.8.6 2.2 1.8 2.6 2.8 1zm-193.6-.4c0-.2-.4-.7-1-1-.5-.4-1-.2-1 .4s.5 1 1 1c.6 0 1-.1 1-.4zm33-.5c0-.6-.4-1-1-1a1 1 0 0 0-1 1c0 .5.5 1 1 1 .6 0 1-.5 1-1zm190.1 0c0-.6-.4-1-1-1-.5 0-1.2.4-1.5 1-.3.5 0 1 1 1 .8 0 1.5-.5 1.5-1zm-70-3.4c0-.7-.3-1.6-.7-2-.9-.9-3.4 1.4-2.7 2.5.8 1.4 3.4 1 3.4-.5zm-14-2c-1.2-1.2-2.5-.2-1.5 1.3.3.6 1 .8 1.6.5.7-.5.7-1 0-1.7zm-57.3.8c-.3-.4-1.2-.4-2-.1-.7.3-.5.5.7.6 1 0 1.6-.2 1.3-.5zm65.7-2.2c-.9-3.6-1-3.8-2.9-2.3-2.5 2.1-2 5 1 5 2.2 0 2.4-.2 1.9-2.7zm-182.5-.3c0-.5-.4-1-1-1-.5 0-1 .8-1 1.6s.5 1.3 1 1c.6-.4 1-1 1-1.6zm84 .1c0-.5-.4-1.2-1-1.5-.5-.4-1 0-1 .9s.5 1.6 1 1.6c.6 0 1-.5 1-1zm87.2-.5c0-.6-.5-1.2-1-1.3-.6-.2-1.1.3-1.1 1.3 0 .9.5 1.5 1 1.3.6-.2 1.1-.8 1.1-1.3zm39.7 0c0-.6-.3-1-.8-1l-3.5.3c-1.4 0-2.5.6-2.5 1.2 0 1.4 6.4.8 6.8-.5zM327.7 256c0-1.8-2-1.5-2.4.4-.2 1 .2 1.5 1 1.2.7-.2 1.4-1 1.4-1.6zm34.5-.2c0-.5-.7-1-1.5-1-1.6 0-2 1.2-.9 2.4.8.8 2.4-.1 2.4-1.4zm58 .6c0-1.5-2.3-1.3-2.8.3-.3.8.2 1.2 1.2 1 1-.2 1.7-.8 1.6-1.3zm-139-1.5c0-.6-.5-1-1.1-1s-.8.4-.5 1c.4.5.9 1 1.1 1 .2 0 .4-.5.4-1zm5.7-.9c.2-.6-.3-1.1-1.2-1.1-.8 0-1.6.7-1.6 1.5 0 1.8 2.2 1.5 2.8-.4zm64.6-.6c-.3-.9-.7-1.5-1-1.5-.2 0-.3.6-.3 1.5s.4 1.5 1 1.5c.5 0 .6-.7.3-1.5zm89.7.5c0-1.2-2-2.4-2.7-1.7-.7.7.6 2.7 1.7 2.7.6 0 1-.5 1-1zm-103.8-1.5c.2-.6-1.2-1.2-3-1.4-3-.3-4.1.7-2.5 2.2 1 1 5.3.4 5.5-.8zm11.5-.5c2.7-2.3 2.8-3 .5-3-2.6 0-5.7 2.4-4.8 3.8 1 1.6 1.7 1.4 4.3-.8zm-90-1.8c.2-.8-.6-1.2-2.2-1.2-2.5 0-3.3 1-1.9 2.3 1 1 3.6.4 4-1.1zm144.8.3c1.8-1.3 1.8-1.5.3-2-2.6-1-5.3-.2-5.6 1.7-.5 2.2 2.6 2.4 5.3.3zm-167.1-.5c3.3-1.3 3.2-2.7-.2-3.4-1.9-.3-3.2 0-4 1.1-2.5 3.3-.8 4.2 4.2 2.3zm8.5 0c0-.6-.6-1-1.5-1s-1.5.4-1.5 1c0 .5.7 1 1.5 1s1.5-.5 1.5-1zm-19-3c0-.6-.4-1-1-1a1 1 0 0 0-1 1c0 .5.5 1 1 1 .6 0 1-.5 1-1zm117-.6c0-.9-.4-1.3-1-1s-.7 1.1-.4 1.6c.9 1.4 1.5 1.2 1.5-.6zm-33-.4c0-.6-.4-1-1-1a1 1 0 0 0-1 1c0 .5.5 1 1 1 .6 0 1-.5 1-1zm-62.5-1c.4-.6-.3-1-1.4-1-1 0-2.2.4-2.6 1-.3.5.3 1 1.4 1s2.3-.5 2.6-1zm27.4-3.6c2.3-2.1-.4-2.4-3.7-.4-4 2.4-4.3 4.4-.4 2.7 1.5-.6 3.3-1.7 4-2.3zm7 1.3c1.7-1.7 1.4-2.8-.9-2.8-1 0-2 .2-2 .5l-.6 2c-.7 1.9 1.7 2.1 3.4.3zm46 .3a2 2 0 0 0 .9-2.4c-.5-1.3-1.1-1.3-3.7-.4-1.7.7-3 1.8-3 2.5 0 1.4 3.8 1.7 5.8.3zm-75.9-2c0-.6-.9-1.5-2-2-1.5-.9-2-.8-2 .2 0 .8.3 1.7.7 2 1 1 3.3.9 3.3-.2zm11.8-3.6c4-3.3 2.4-3.5-2.3-.3-2.5 1.6-4.2 3.4-3.9 4 .4.6 1.3.4 2.3-.5l3.9-3.2zm23.2 3.5c0-.5-.2-1-.4-1s-.7.5-1 1c-.4.6-.2 1 .4 1 .6 0 1-.4 1-1zm18.2-3.2c-.9-.9-1.2-.6-1.2 1.2s.3 2.2 1.2 1.2c1-.9 1-1.4 0-2.4zm38.2-.3c1.8-.7 1-3.5-1-3.5-.7 0-1.3 1-1.3 2 0 2.2 0 2.3 2.3 1.5zm-102.9-2c.9-1 1.4-2 1.1-2.2-.7-.8-6.6 1.8-6.6 2.9 0 1.4 3.8 1 5.5-.8zm17.8-.7 3.7-2.5c.2-.2 0-.8-.6-1.3-2-2-10.2 2.9-8.8 5.1.9 1.4 2.2 1.1 5.7-1.3zm42.7-1.8c0-.5-1-1-2.4-1s-2.7.5-3 1c-.4.6.6 1 2.4 1 1.7 0 3-.4 3-1zm28-6c-.5-1-1.5-2-2-2-1.6 0-1 5.3.8 7.3 1.7 2 1.8 2 2-.6.2-1.4-.1-3.5-.7-4.6zm60 2.5c0-.8-.6-1.5-1.4-1.5-1.6 0-2 1.2-.9 2.4 1.2 1.1 2.4.7 2.4-.9zm-183-1c.7-.8 1-1.8.7-2.1-.7-.8-3.7 1.5-3.7 2.8 0 1.3 1.7 1 3-.7zm91.8 0c2.2-.6 3.2-2.5 1.4-2.5-3.3 0-7.2 1.5-7.2 2.7 0 1 .7 1.3 1.8 1l4-1.2zm23.3-.5c0-.5-.2-1-.5-1s-.7.5-1 1-.2 1 .4 1c.6 0 1-.4 1-1zm-66.3-2.2c.3-1.2-.3-1.8-1.7-1.8s-2 .7-2 2.1c0 2.6 3.2 2.3 3.7-.3zm59.8-.2c1.5-1.1 1.7-1.7.7-2.7-1-1-1.5-1-2.7 0-1.6 1.4-2.1 4.1-.7 4.1.4 0 1.6-.6 2.7-1.4zm-40.6-3c0-.9-.4-1.6-1-1.6-.5 0-1 .7-1 1.5s.5 1.5 1 1.5c.6 0 1-.6 1-1.5zm-13.2-4.5c.2-.6-.6-1-1.7-1-3 0-8 2.7-8 4.4 0 1 .8 1 4.6-.5 2.6-1 5-2.3 5.1-2.9zm104.8 3c.3-.6-.5-1-2-1s-2.4.4-2 1c.3.5 1.2 1 2 1s1.6-.5 2-1zm14.5-2c0-.6-.7-1-1.6-1-.8 0-1.3.4-1 1 .4.5 1.1 1 1.6 1 .6 0 1-.5 1-1zm-68.4-2.8c-1-1-1.9.5-1 1.9.6 1 .8 1 1.1 0 .3-.7.2-1.6-.1-2zm7.4 1.2c0-.9-.5-1.3-1-1-.6.4-1 1-1 1.6 0 .5.4 1 1 1 .5 0 1-.8 1-1.6zm-90.7-2c2.6-1 1.8-2.5-1.3-2.5-3 0-4.6 1.2-3.4 2.4.8.8 2.7.8 4.7 0zm21-1c.4-1 0-1.5-1.4-1.5-1 0-2 .7-2 1.5s.7 1.5 1.4 1.5c.8 0 1.7-.7 2-1.5zm-31.4-1c1-1.3.9-1.5-1.4-1.5-1.6 0-2.6.6-2.6 1.5 0 .8.6 1.5 1.4 1.5.8 0 2-.7 2.6-1.5zm-9.2-2.7c.5-1.8.7-3.5.5-3.8-.7-.8-3.3 3.3-3.3 5.2 0 3 2 2 2.8-1.4zm91.8 2.2c.3-.5 0-1-.5-1a1 1 0 0 0-1 1c0 .6.2 1 .4 1s.7-.4 1-1zm-60.6-1c0-.4-.4-1.1-1-1.5-.5-.3-1 .1-1 1 0 .8.5 1.5 1 1.5.6 0 1-.4 1-1zm48 .1c0-.5-.7-1.1-1.6-1.5a1.5 1.5 0 0 1-1-2c.3-.9.1-1.8-.4-2.1-1-.7-1.2 1-.3 4.3.5 2.1 3.3 3.2 3.3 1.3zm-97-3.6c.7-.8 1.8-1.5 2.4-1.5 1.5-.1 7.1-7.3 7.1-9 0-1-1.1-1.5-3.2-1.5-3 0-3.3.2-3.3 3 0 2.6-.7 3.8-3.5 5.6a14 14 0 0 0-4 3.7c-.6 1.7 3 1.5 4.5-.3zm-16-2.2c2.5-1.5 3.3-1.6 5-.5 2.7 1.7 4.3.6 3.6-2.3a4 4 0 0 1 1.2-4.1c1.6-1.7 1.7-1.7 2 0 .2 1 1.1 1.6 2 1.4 2.3-.4 2.7-2.7.6-3.5-1-.4-2.5-1.3-3.2-2-2.2-2.1-4.7-1.5-5.8 1.5-.6 1.6-3 4.1-5.7 5.8-6.6 4.2-6.4 7.4.2 3.7zm-30-1.8c2.2-2.4 2.2-2.5.4-2.5-2.3 0-4.4 1.8-4.4 3.7 0 2 1.4 1.6 4-1.2zm108 1.5c0-.5-.6-1-1.5-1-.8 0-1.5.5-1.5 1 0 .6.7 1 1.5 1 .9 0 1.5-.4 1.5-1zm-122.6-2.6c1.8-.7 2.2-3.4.5-3.4-1.7 0-4.9 2-4.9 3 0 1.1 2 1.3 4.4.4zm101.6-2.5c0-.5-.4-.9-1-.9-.5 0-1 .7-1 1.6 0 .8.5 1.2 1 1 .6-.4 1-1.1 1-1.7zm-25.2-5.2c1-2.4 1-2.7-.8-2.7-1.6 0-2 .7-2 3.7 0 3.9.9 3.6 2.8-1zm99.2 3.3c0-.5-.4-1-1-1a1 1 0 0 0-1 1c0 .6.5 1 1 1 .6 0 1-.4 1-1zm-43.5-2.4c.7.3 1.6 0 2-.5.4-.7-.6-1.1-3-1.1-2.3 0-3.5.5-3.5 1.4 0 1.9 2.4 2.7 2.8 1 .2-.7 1-1 1.7-.8zm109.4 1.9c-1.2-1.2-6.8-2.3-7.3-1.5-.5.8 1.5 1.3 6.4 1.9.8 0 1.2-.1.9-.4zm-195.4-1.5c.3-.6.1-1-.4-1-.6 0-1 .4-1 1s.1 1 .3 1c.3 0 .8-.4 1.1-1zm42-1.3c2.8-1.8 5.5-5.4 5.5-7.3 0-1.3-3.9-.1-6 1.7a9.1 9.1 0 0 1-4.8 2.3c-4.5.2-3.3 4.3 1.6 5.5l3.7-2.2zm78.5.2c0-1.8-.2-2-1.4-1-1.6 1.3-1.2 3.1.5 3.1.5 0 1-1 1-2.1zm34.5-1c-.7-1-4.4.8-4.4 2.1 0 .6 1 .5 2.4-.2 1.4-.6 2.3-1.5 2-2zm-96.8-1.3c-.3-.9-1-1.6-1.6-1.6-1.2 0-1.5 3.3-.4 4.3 1.1 1.1 2.6-1 2-2.7zm5.3-.9c0-1-.7-1.7-1.5-1.7-1.6 0-1.9 1.7-.8 4.5.5 1.3.8 1.4 1.4.3a7 7 0 0 0 1-3zm68.4 2.8c-.3-.8-.7-1.5-1-1.5-.2 0-.4.7-.4 1.5s.5 1.5 1 1.5.7-.7.4-1.5zm15.7.5c1.9-1 2.8-4 1.2-4-1.3 0-5.3 3-5.3 4 0 1.3 1.7 1.3 4.1 0zm-214.1-2.1c0-.6.9-2.2 2-3.6 2.2-2.8 1.7-5.1-.7-3.2a20 20 0 0 0-4.3 7.3c0 .3.7.6 1.5.6s1.5-.5 1.5-1.1zm35-.9c0-1 .9-2.4 2-3 2.7-1.4 2.5-2.2-1-6-3.6-3.8-5-3.8-5 0 0 2.3.5 3.3 2 3.7 2.4.6 2.6 2.1.5 3-.8.2-1.5 1.4-1.5 2.4s.7 1.9 1.5 1.9 1.5-.9 1.5-2zm23.8-.8c-.4-2-2.2-2-2.6.2-.2 1 .3 1.6 1.3 1.6s1.5-.7 1.3-1.8zm9.6-.3c3.6-2.9 2-4.7-2.3-2.8-3 1.3-3.8 2.8-2.4 4.2 1 1 1.9.8 4.7-1.4zM195 190c.2-2.8.2-2.8-1.3-1-1.8 2.4-2 5-.2 4.4.6-.3 1.3-1.8 1.5-3.4zm80.2 2.1c0-.8-.1-1.5-.4-1.5s-.6.7-1 1.5c-.2.8 0 1.5.5 1.5s1-.7 1-1.5zm9.6.4c.9-1.5-.2-2.3-2-1.5-1 .3-1.4 1-1 1.6.7 1.3 2.1 1.3 3 0zm27.1-1c-.3-.9-.5-.7-.6.5 0 1 .2 1.7.5 1.3.4-.3.4-1.2.1-1.9zm-64.7 0c0-.5-.5-1-1-1s-.8.5-.5 1c.4.6.8 1.1 1 1.1.3 0 .5-.5.5-1zm74.5-1c1.8-1.8 1.8-2-.1-2-1.1 0-2.9 1-3.9 2-1.7 2-1.7 2.1.2 2.1 1.1 0 2.9-1 3.8-2zm-182 0c.3-.5-.1-1.2-1-1.5-1.9-.8-3 0-2 1.5.8 1.4 2.2 1.4 3 0zm18.3-2.2c.3-1.3-.3-1.7-2.2-1.7-2.5 0-3.5 1.8-1.9 3.4 1.2 1.2 3.8.2 4.1-1.7zm95.2.4c0-2.3-1.5-3.6-2.5-2-.8 1.3.1 3.9 1.5 3.9.6 0 1-.9 1-2zm-67.5-1.1c.3-.6.1-1-.4-1-.6 0-1 .4-1 1 0 .5.1 1 .3 1 .3 0 .8-.5 1.1-1zm24.5 0c0-.6-.4-1-1-1-.4 0-1.1.4-1.5 1-.3.5.1 1 1 1 .8 0 1.5-.5 1.5-1zm92.8-1.3c-.4-2.8-4.4-3.8-8.1-2-3 1.6-4.8 1-2.8-1 2.4-2.3 1.3-4-2-3.3-5 1-5.6 2.2-2.6 5.3 2.3 2.5 3.5 2.8 9.3 3 6.2.1 6.5 0 6.2-2zm13 .4c-.1-.8-1-1.9-2-2.5-2-1.3-5 .1-5.6 2.6-.2 1.2.7 1.5 3.8 1.4 3 0 4-.5 3.8-1.5zm-34.8-.6c0-.8-.4-1.5-1-1.5-.5 0-1 .7-1 1.5s.5 1.5 1 1.5c.6 0 1-.7 1-1.5zM165 184.5c2.4-2.2 3-4.8 1.3-4.8-.5 0-1 .4-1 1s-1.1 1.5-2.5 2.2c-2.6 1.1-3.5 3.8-1.3 3.8.6 0 2.2-1 3.5-2.2zm50.2-1.7c1.3-2 1.3-2.4-.1-3.8-1.5-1.4-1.9-1.4-4.6.6a12.1 12.1 0 0 1-4 2c-2.7 0-.7-2 6.8-7.5 4.4-3.3 8-6.2 8-6.6 0-1-4.1-3.8-5.5-3.8-.6 0-1 1.1-1 2.6s-.8 3-1.9 3.7c-1 .7-2.7 1.8-3.7 2.7l-6.3 4.8c-7.3 5.4-5.7 7.8 5 7.6 4.8 0 6-.5 7.3-2.3zm22.1 1.3c0-1-.7-1.4-1.6-1.2-2.6.4-2.9 2.8-.5 2.8 1.3 0 2.1-.7 2.1-1.6zm-126.9-1c0-.4-.5-1-1-1.2-.6-.2-1.1.4-1.1 1.3s.5 1.5 1 1.3c.6-.2 1.1-.8 1.1-1.3zm84.7-3a32 32 0 0 1 6.3-4.4c.5 0 1-1 1-2s-.6-2-1.1-2a31 31 0 0 0-8.7 5.6c-.7.7-1.7 1.4-2.2 1.5-1.2.5-2.6 5.9-1.6 5.9.5 0 3.3-2 6.3-4.5zm35.4 1.8c.6-1.5 1-3.3 1-4-.2-.8.3-2.2 1.1-3 4.8-5.7 1.2-5.8-4.2-.2-2.1 2.2-4.3 4-4.8 4s-2 1-3.2 2.4c-2.6 2.8-1.8 3.4 4.7 3.5 3.7 0 4.4-.2 5.4-2.7zm37.3 1.8c.4-.6 0-1-1-1s-1.3.4-1 1c.4.5.8 1 1 1s.7-.5 1-1zm-114.9-2.5c1-2.2 1-2.5-.7-2.5-1.1 0-2-.7-2-1.8 0-1.6-.1-1.5-1.4.2-.8 1-1.5 2.4-1.4 3 0 .6.3.5.6-.2.8-2.1 2.3-1.3 2.3 1.3 0 3.2 1.2 3.2 2.6 0zm6.4-.6c0-.5-.7-1-1.5-1-1.6 0-2 1.3-.9 2.4.8.8 2.4-.1 2.4-1.4zM75 176.7c-.2-.8-1-.7-2.2.3-1.2.8-1.6 1.9-1.2 2.6.6 1 1.1 1 2.3-.2.8-.8 1.3-2 1.1-2.7zm20.2 2.5c0-.8-.7-1.5-1.5-1.5s-1.5.7-1.5 1.5.6 1.5 1.5 1.5 1.5-.7 1.5-1.5zm34 .5c0-.6-.5-1-1-1a1 1 0 0 0-1 1c0 .5.4 1 1 1 .5 0 1-.5 1-1zm50.4 0c.8-1.2-.4-4.1-1.5-3.5-1.2.8-1.2 4.5 0 4.5a2 2 0 0 0 1.5-1zm-70.3-2.7c2.4-2.1 2.4-5.3.1-5.3-3 0-5.5 2.6-4.7 5 .7 2.4 2.2 2.5 4.6.3zm17.5-4c-1-1.1-2.6 1-2.6 3.5v2.7l1.5-3c.8-1.5 1.3-3 1-3.3zm46.8 5c.9-.3 1.6-1.2 1.6-2 0-1.7-4.4-1.8-5.9 0-1.8 2.2.7 3.5 4.3 2zm49.6-3.4c0-1.5-3.9-2-6-.7-2.5 1.6-2.5 2 .3 3.4 1.7.7 2.6.6 4-.5 1-.8 1.7-1.8 1.7-2.2zm18.5-.2c.7-3 .6-4-.5-4.8-2.4-1.5-3.1-1-2.8 1.3.2 1.6-.5 2.8-2.4 4-4 2.5-3.5 4 1 3.6 3.4-.3 3.8-.6 4.7-4.1zm-98.2-.3c-.2-1.6-.3-4.6-.3-6.6 0-3.9-2-5.8-5.6-5.8-1.9 0-1.4 3 1.3 8.7.8 1.7 1.2 3.6.8 4.2-1 1.6.4 3.2 2.3 2.9 1.2-.3 1.6-1.3 1.5-3.4zm43.7 2.6c0-.6-.4-1-1-1a1 1 0 0 0-1 1c0 .5.5 1 1 1 .6 0 1-.5 1-1zm7.9-4.1c4-3 5-5.4 2.1-5.4-1.8 0-8.9 5.7-9 7.2 0 2.1 2.4 1.4 6.9-1.8zm-11.2.6c4.7-2 10-7 8-7.8-1.8-.7-12.7 6.2-12.7 8 0 1.6.3 1.6 4.7-.2zm100.8-1.4c0-1.8-2-1.4-2.3.4-.2 1 .1 1.5 1 1.3.7-.3 1.3-1 1.3-1.7zm-75.5-1.1c2-2 1.8-5-.4-5-1.2 0-3.6 4-3.6 6 0 1.6 1.9 1.1 4-1zm-29.8-1.2c5.3-2.8 9.8-6 9.8-7 0-.5-1.1-.8-2.5-.8s-2.5.3-2.5.8c0 1.3-10.4 6.3-10.8 5.2-.6-1.7-2.2-1.1-2.2.8 0 3.8 2.2 4 8.2 1zm-28.6-3.6c-1.2-1.1-1.8.7-1 3l.8 2.3.4-2.4c.2-1.3 0-2.6-.2-2.9zm13.4 4.2c0-1.3-2.1-4.4-3-4.4-1.1 0-1.4 3.3-.3 4.3.8.8 3.3.9 3.3.1zm67-1c.2-.3-.1-1-.7-1.5-1.6-1.6-4.7-.7-5.1 1.5-.3 1.6 0 1.7 2.5 1.1 1.5-.4 3-.9 3.2-1.1zm-29.4-5.2c-1-1-1.8.6-1 1.9.6 1 .9 1 1.2 0 .2-.7.1-1.5-.2-1.9zm-138.6.8c0-.6-.5-1-1-1-.6 0-1 .4-1 1s.4 1 1 1c.5 0 1-.5 1-1zm92-.5c0-.9-.5-1.5-1-1.5s-1 .6-1 1.5c0 .8.4 1.5 1 1.5s1-.7 1-1.5zm54.2-2.7c-1-1-4.4 0-3.7 1.2.3.4 1.4.5 2.6.2 1.2-.3 1.7-.9 1.1-1.4zm-88.2-.4c.7-.8 1-1.8.7-2-1-1.1-3.7.4-3.7 2 0 2 1.4 2 3 0zm12-1.6c0-.4-.7-.8-1.5-.8-.9 0-1.5.9-1.5 2 0 1.9.2 2 1.5 1 .8-.7 1.5-1.7 1.5-2.2zm67 2.2c0-.6-.2-1-.4-1-.3 0-.8.4-1.1 1-.3.5-.1 1 .4 1 .6 0 1.1-.5 1.1-1zm-88.4-5.8c1.6-3.6 1.5-3.7-1.2-5.9-1.5-1.2-3.2-2-3.6-1.7-1.2.7-1 3.8.4 5.2 1 1 .9 1.6-.7 2.8-1.7 1.2-1.8 1.6-.5 2.4 2.7 1.7 4 1 5.6-2.8zm-11.6-.7c0-.9-.5-1.5-1-1.5-.6 0-1 .6-1 1.5s.4 1.5 1 1.5c.5 0 1-.7 1-1.5zm17-.5c0-2.2-1.5-2.7-2.5-1-.8 1.1.2 3 1.5 3 .6 0 1-1 1-2zm-33.6-.2c3-1.4 3.3-2.4.7-3.1-2.3-.6-5.1 1-5.1 2.8 0 1.8 1 1.8 4.4.3zm10.6-1.4c0-.9-.5-1.3-1-1-.6.4-1 1.1-1 1.6s.4 1 1 1c.5 0 1-.7 1-1.6zM62.3 149c2-1.8 2.4-5 .9-8.8-1.5-3.9-3.9-3.2-4.2 1.2-.3 3.4-.7 3.8-4.3 4.8-4.4 1.2-5 2.6-1.3 3.6 4 1.2 7 .9 9-.8zm30.8-2.8c2.5-5.5 2.5-5.6 0-5.6-1 0-2 .7-2 1.5 0 .7-.4 1.6-1 1.8-1 .2-1 .9 0 2.5.7 1.5.8 2.3.1 2.3a1 1 0 0 0-1 1c0 2.3 2 .6 3.9-3.5zm9-.3c0-2-2.7-1.5-3.8.6-1.5 2.7.7 4.7 2.5 2.4.7-1 1.3-2.3 1.3-3zm-15 .7c0-.5-.4-1-1-1a1 1 0 0 0-1 1c0 .6.5 1 1 1 .6 0 1-.4 1-1zm-34.5-3c1.9 0 1.9 0-.2-1.5-1.2-.9-2.2-2.5-2.2-3.6 0-1.6-.4-1.8-2-.8-2.7 1.4-4.3.4-3-2 1.3-2.5 0-3.4-2.2-1.4-2.5 2.3-2.3 4.2.9 7.6 1.9 2 3.4 2.7 4.7 2.3a19 19 0 0 1 4-.5zm50.6-6.3c0-.4-.8-.7-1.8-.5-1 .2-1.8 1.4-2 3.4l-.3 3 2-2.6a9 9 0 0 0 2-3.3zm-4.8-2c2.4-.8 2.2-2.7-.2-2.7-2 0-4 2.8-4 5.2 0 1 .4 1 1.3-.2a8 8 0 0 1 3-2.2zm-22.2-3.2c0-1.7-1.6-2-2.5-.5-.8 1.4.3 3.2 1.5 2.5.5-.3 1-1.2 1-2zm-16.6-3.8c-.4-2-1-3.7-1.5-3.7-1 0-1.3 7.4-.3 8.4 1.5 1.4 2.5-1.3 1.8-4.7zm5.6 2.3c0-.5-.5-1-1.1-1-.6 0-.8.5-.4 1 .3.6.8 1 1 1 .3 0 .5-.4.5-1zm6-12.4-.6-2c-.9-2.2-2.4-2-2.4.4 0 1.1.6 2 1.5 2 .8 0 1.5-.2 1.5-.4zm.5-14.3c-.9-6-2.1-7.4-3-3.6-.7 3.3.8 8.3 2.6 8.3.7 0 .9-1.5.4-4.7zM492.5 316a2 2 0 0 1-1.2-1.7c0-1.5 9-2.9 10.3-1.7 1.7 1.7-6 4.6-9 3.4zm44.6-.7c-2-1.5-2.4-3.6-.6-3.5 1.8 0 4.8 2.4 4.8 3.8 0 1.5-2 1.4-4.3-.3zm-10-2.7c-2.7-1.5-2.1-3 1-2.7 1.5.2 2.7 1 2.7 1.7 0 1.9-1.6 2.3-3.8 1zm-293.4-5.9c-1-1-1.5-2.3-1-2.7a96 96 0 0 1 15.8-1l17.5-.3c1.7 0 2.6-.8 3.4-3a9 9 0 0 1 3-4.1c1.6-.8 2-1.8 1.5-4.2-.7-4.8.7-6.8 4.3-6 1.8.3 3.6 0 4.6-.7 1.1-1 1.8-1 2.7-.2.6.6.9 1.3.7 1.4l-3.7 2.6c-1.7 1.2-3.7 2.2-4.2 2.2s-1 1.7-1 3.9a9 9 0 0 0 2.5 6.6c1.4 1.5 2.4 2.9 2.2 3a14.5 14.5 0 0 1-7.2 2.5c-1.4 0-4.5.5-6.9 1.2-3.5 1-5.1.9-9-.5-5-1.7-17.2-1.4-18.3.5-1 1.5-5 .8-6.9-1.2zm41.3-7.3c.3-1.2-.1-1.5-1.2-1-1.9.6-2.2 3.7-.3 3 .7-.2 1.4-1.1 1.5-2zm326.7 6.8a6.3 6.3 0 0 0-4.6-2.7c-1.7-.1-3.3-.8-3.5-1.4-.6-1.9 4.7-2.6 7.1-1 1.5 1 3.8 1.2 7 .9 5-.6 5.3-1 3.2-3.9a6 6 0 0 1-1.5-2.6c-.1-1.5 4-.8 7.7 1.2a20 20 0 0 0 8.7 2c6.5 0 9 1.5 5.2 3a26 26 0 0 1-6.5 1c-5.8.1-12.2 1.6-13.5 3.3-.6.8-2.6 1.7-4.4 2-2.7.6-3.5.3-4.9-1.8zm-58.9-2.5-19.3-.9c-6.2 0-8.1-1.3-4-2.6a219 219 0 0 1 23.2-.5c33 .4 31 .3 31.4 2.3.3 1.4-.3 1.7-3 1.7l-9.4.4c-3.2.2-11.7 0-18.9-.4zm321.4 0c-2.2-1.3-2.3-3.6-.2-4.4 3-1.1 7.5-.6 8 1 1.4 3.4-3.8 5.7-7.8 3.3zm-28.3-1c-18.2-2.3-22.7-3-26-4.4-2-.9-6.5-1.6-9.9-1.6-7.1 0-11-1.6-11.4-4.8-.4-2.7.7-2.8 6.5 0 3.7 1.6 5.7 1.9 9.7 1.3a80 80 0 0 1 22.8.6c1.8.5 6.4.9 10.1.9 7 0 12 1.8 13.2 4.9.7 1.7.4 2-2.6 2.7a26.7 26.7 0 0 1-12.4.4zm6-3.9c-.6-1.1-7.2-2.1-9.1-1.4-1.3.5-1.3.7-.2 1.4 1.7 1.1 10 1.2 9.4 0zm-16-2c-.3-.6-2-1-3.6-1-1.8 0-2.8.3-2.4 1 .3.5 2 1 3.6 1 1.8 0 2.8-.5 2.4-1zm-427 1.8-3.1-2.7 3.5-.6c1.9-.3 7.2-.8 11.8-1.1 9.7-.8 11.2-1.2 10.5-3-.5-1.5 4.7-2 27.4-3 14.8-.8 17.3-.1 11.5 2.9a56.8 56.8 0 0 1-22.4 1.2c-3-.7-4-.5-5.6 1.2-1.7 1.6-4 2-14.1 2.7-6.7.4-12.1 1.1-12.1 1.6s3.8 1 8.5 1c6.8 0 8.5.2 8.5 1.4s-2 1.4-10.7 1.3c-10.1-.1-10.8-.2-13.7-2.9zm-135.7-4.3c0-6.2-1.2-9.7-3.5-10.6-1.2-.5-2.5-1.6-2.8-2.5-.5-1-1.4-1.4-3-1-2 .5-2.8.1-3.6-1.4-1-1.7-.7-2.7 1-5.1 2.7-3.6 3.9-3.8 4.7-1 .3 1.5 1 2 2.5 1.6 2.3-.6 6.7 1 6.7 2.4 0 .5-1 1-2.4 1-3.3 0-4 1.4-1.6 3.5 1.1 1 1.7 2.1 1.4 2.6-.3.5 0 .9.4.9 1.6 0 2.9 4.4 2.4 8.8-.5 5-2.2 5.7-2.2.8zm18.7 1.2c-1-3.4-.8-3.8 1.2-3.8 2.1 0 3.4 2.2 2.5 4.5-.9 2.3-3 1.8-3.7-.7zm-31.1-1c-.2-.7-.6-2.8-.8-4.6-.4-2.6 0-3.2 1.4-3.2 1.5 0 1.8.8 1.8 4 0 3.8-1.6 6.4-2.4 3.8zm8.2.6c-.4-.4-.8-2.5-.8-4.6 0-2.7.4-3.8 1.5-3.8 1 0 1.5.9 1.4 2.2-.1 3.6-1.3 7-2.1 6.2zm515.5-2.3c-1.5-1-.8-4.1.9-4.1 1.4 0 2.4 3 1.3 4-.5.5-1.5.5-2.2 0zm8.6.3c-1.1-1.1.2-2.4 1.8-1.8.8.4 1.2 1 1 1.5-.7 1-2 1.2-2.8.3zm-49-1.5c-2.7-1.6-2-3.4 2.7-7.6l4.4-4 .2-14.4a135.4 135.4 0 0 0-2.7-31.2c-.5-5-.4-5.8 1-5.8 1 0 1.9 1.2 2.2 2.8 1.5 6.7 2.1 6.8 3.3.2.8-5 3.2-6.7 3.2-2.3 0 1.6-.5 5.8-1.1 9.3-.6 3.6-1.2 10-1.4 14-.1 4.2-.6 9.8-1 12.6-.6 4.9-.6 5 4 9.9 5 5.5 5.4 6.8 2.4 9-1.3.8-1.7 1.6-1 2 1.6 1 1.3 4.6-.5 5.3-.9.3-2.6.1-3.8-.5-1.3-.5-3-.6-3.7-.2-2.8 1.5-6.5 1.9-8.2.9zM407.3 289c0-1.6.5-2 2.6-1.9 2.8.2 4.7 2.7 2 2.7-.8 0-2.2.3-3 .6-1.2.4-1.6 0-1.6-1.4zm194 .9c0-1.5 5-5.1 7-5.1 2.8 0 5-1 5-2.4 0-3-2-3.7-13-4.6-17.6-1.3-24.1-2.7-30-6.5-6.3-4-5.6-4.8 6.5-6.5 11.5-1.6 17.5-4.2 17.5-7.4 0-2.7 1.8-3.8 5-3 1.8.5 2.1.3 1.8-1.2-.6-3.3-6.7-2.3-10 1.7-2.5 3-3 3.1-4.3 1.7-2.5-2.4-.1-6.6 3.9-7 1.7-.2 3-.8 3-1.3-.4-1.5-7.1-2.4-11.3-1.5a47 47 0 0 1-16.7.7c-1.6-1.6 1.7-3 8.3-3.4 3.7-.3 8-1 9.5-1.5 3.3-1.3 8.7-7.9 6.5-7.9-1.6 0-5.9-6.4-5-7.4 1.8-1.8 6.4-.3 10 3.2 2.6 2.4 5.6 4.1 8.3 4.8 2.4.5 4.6 1.6 4.8 2.3.4 1-.2 1.3-2.1.8-1.9-.5-2.8-.2-3.5 1-.9 1.5-1 1.5-2.3-.5-1.8-2.9-3.7-2.7-4.9.3-.5 1.4-1.4 2.6-2 2.6s-1 .4-1 1c0 1.2 10 .2 11.8-1.3.8-.7 2.2-.6 4.2.2 1.6.7 3.3 1 3.8.7.5-.3 5.4-.1 10.8.4l13.1 1.3c3.7.3 4.8 1 3.8 2.7-.5.8-4.1 1-11.3.9-11.2-.3-23.2 1.7-24 4-.2.6.3 2.2 1.2 3.6a10 10 0 0 1 1.6 3.2c0 1.4-5.2 4-9.5 4.8a16 16 0 0 0-5.3 1.8c-.7.6-3.7 1.4-6.5 2l-8.5 1.3c-5.3 1-3.1 2.9 3.3 3 3.2.1 7.5.7 9.4 1.3a97 97 0 0 0 13 2c8.5.8 9.8 1.2 11.6 3.5 1.5 1.8 3 2.6 5.2 2.6 3.3 0 6.3 2.5 4.7 4-.5.5-4.5 1.5-8.9 2.1-4.4.6-9.2 1.8-10.7 2.5-3.2 1.6-3.8 1.7-3.8.5zm122.4-1.6c-.3-.9-.3-1.9 0-2.2 1-1 3.7.6 3.7 2.2 0 2-3 2-3.7 0zm71.3.8c-1-1-.8-4.3.3-4.3.4 0 1.4.7 2 1.5 1.8 2-.3 4.8-2.3 2.8zm-29.2-1.3c-2.7-1-3.7-7.2-2.8-18.4a28 28 0 0 0-1-12.5 28 28 0 0 1-1.6-5.8c0-2 2.7-1.6 4 .7.6 1 1.7 2 2.6 2 1.2 0 1.4-1.6 1.3-9.2a77.1 77.1 0 0 0-3-20.6c0-2.3 2-1.3 3.6 1.7.8 1.7 1.8 3 2.2 3 1.2 0 7-10.4 7.7-13.7.6-3 4-5.8 5.5-4.8.5.3-.1 3-1.4 5.8a49.3 49.3 0 0 0-3 9.7c-1 6.3-3.2 11-5 11-2.3 0-2.9 2-1 4 1 1.2 1.4 2.7 1 4.4-.5 1.7-.3 2.7.4 2.7.6 0 1-1 1-2.1 0-1.3.6-2 1.3-1.7.8.3 1.5 3 1.8 7.3a31 31 0 0 0 2.6 11c2.3 4.4 3.9 14.5 2.3 14.5-.5 0-1.2-.7-1.5-1.5-1.6-5.2-1.4-5-4-2-2 2.6-2.3 3.7-1.7 8.2.5 4.5.3 5.3-1 5.3-1.2 0-1.7-.8-1.7-2.4 0-3-2.7-5.6-3.6-3.3-.3.9-.3 2 0 2.7 1 1.4-.3 5-1.8 5-.6-.1-2-.5-3.2-1zm10.4-20.6c.4-6-1.6-15.7-3-15.2-1 .3-4.7 13.1-4.8 16.5 0 1.4 5 4.4 6.5 4 .5-.2 1.1-2.6 1.3-5.3zm6.6 19.3c-.5-1.4.6-3.2 9.5-14.9 2.3-3 2.6-5 1-7.8-1.3-2.6.4-3.4 2.5-1.1 2 2.2 2.4 7.4.7 9.4-.6.8-.9 2.7-.5 4.3.8 4.5-3 10.4-6.6 10.4a16 16 0 0 0-4.4.6c-1 .4-1.9 0-2.2-1zm20.8-.9a4.2 4.2 0 0 1-1.2-2.5c0-1.8 3-1.6 3.6.3.9 2.1-.9 3.7-2.4 2.2zm-120.9-1.2c-.8-2.2.3-3.3 1.9-1.8.9 1 .9 1.5 0 2.4-1 .9-1.4.7-1.9-.6zm146.4-.2c-1.9-1.9-.3-3.2 5-4.2l15.3-2.6c6.6-1.1 10-2.2 11-3.4 1.1-1.4 3-2 7.5-2 3.3 0 13.4-.5 22.5-1l19.5-1c1.7 0 6.4-.5 10.5-1 4.1-.7 8.6-1.3 9.9-1.4 3.4-.5 5.1 2.6 2.8 5-1.4 1.3-3.4 1.7-9.5 1.7a32 32 0 0 0-9 .8c-.7.5-2 .6-2.8.3-.9-.4-9.7-.6-19.6-.7-13.4 0-19.3.4-22.7 1.5l-8.9 2.6c-3.3.8-4.2 1.5-4.2 3.2 0 2 0 2-1.4.3-1.1-1.6-2.2-1.7-7.6-1.2a22 22 0 0 0-7.5 1.7c-1.6 1.3-9.8 2.4-10.8 1.4zM564.4 280c-7.2-.8-8.1-3.1-1.3-3.1 5.8 0 10.6 1.5 9.7 3a2 2 0 0 1-1.8.8l-6.6-.7zm-296-2c-2.7-1.7-.1-3.9 5.1-4.4 5.7-.6 7.1 0 6.1 2.6-.4 1.2-1.3 1.5-2.9 1.1-1.2-.3-2.6 0-3 .5-.7 1.3-3.5 1.4-5.3.2zm-24.2-1.6c0-.7.5-1.7 1-2 .6-.4 1 .3 1 1.4 0 1.2-.4 2-1 2-.5 0-1-.6-1-1.4zm423.7.6c-.3-.5-.1-1.3.5-1.6 1.5-1 2.5.3 1.2 1.6-.7.7-1.3.7-1.7 0zm86-3c-.3-.5.1-1.4 1-2.1 1.1-1 1.8-1 3 0s1.3 1.5.3 2.1c-1.8 1.1-3.6 1.1-4.3 0zm-72.6-1.1c0-.6.7-1 1.5-1 .9 0 1.5.4 1.5 1 0 .5-.6 1-1.5 1-.8 0-1.5-.5-1.5-1zm18.2-.2c-1.6-1.6-1.5-3.8.1-3.8 1.7 0 3.7 2 3.7 3.7 0 1.6-2.2 1.7-3.8 0zm149.9.2c0-.6 1.3-1 3-1s3.1.4 3.5 1c.3.6-.8 1-3 1-2 0-3.5-.5-3.5-1zm-176-4c-.7-1.2-1.7-2-2.4-2-2.7.4-3.5-.1-4-2.6-.5-3.2 1.2-4.3 3-1.8a4 4 0 0 0 3.8 1.6c2-.3 2.6.2 3 2.2 1.2 4.3-1.5 6.3-3.5 2.5zm51-.6c-10.1-2.7-12.7-5.3-7.6-7.6 1.4-.6 2.5-1.7 2.5-2.4 0-1.7-2.4-2.5-9.5-3.1-5.2-.5-6.2-.3-7.9 1.5-1 1.2-2.5 2.2-3.2 2.2-.7 0-1.9.9-2.6 2-1.3 1.8-1.6 1.8-3.8.3-1.4-1-4.4-1.7-7.4-1.8-4.6 0-5.2-.3-6.4-3l-1.4-2.8-1.7 2.2c-1.8 2.3-5.6 2-4.7-.5.7-1.8-1.4-3-2.4-1.5-.7 1.3-6-7-6-9.4 0-.7 1.7-2.3 3.8-3.6 2.6-1.7 3.8-3.3 4-5.3.4-2.8.4-2.8-1.6-.8-2.5 2.5-7.8 3.7-9.6 2.2-1-.8-5-1-13.8-.4-15.9 1-18 .8-21.6-1a16 16 0 0 0-6.9-1.7c-4 0-7.2-1.3-5.5-2.3.5-.3 7.7-1 16-1.3 13.1-.6 15.4-.4 17.6 1a10 10 0 0 0 4.1 1.6c1.3 0 1.4-.3.5-2-1-1.7-.8-2.5.4-3.9.9-1 1.6-2 1.6-2.4s-4.2-.7-9.2-.7c-5.1 0-10.9-.4-12.8-1s-18.3-1.3-36.3-1.6c-33.3-.5-41.2-1-40.6-2.9.4-.9 65.3-1 66.9 0 .5.3 14.5 1.4 27.3 2 4.2.2 8.2.7 8.8 1 2 1.3 11-.6 13-2.7 1.5-1.7 2.1-1.9 3.4-.8 1 .8 1.3 2.1.9 3.7s0 3 1.2 4.4c1.6 1.8 1.6 2 0 3.8-1.2 1.3-1.5 2.7-1 4.6.6 2.4 1 2.6 4.7 2.3 5-.3 6.4-2.8 1.7-2.8-2.4 0-3-.3-2.8-1.7.3-1.6 2.9-2.6 10.3-4 1.7-.3 3.8-1.2 4.8-2 1.5-1.4 2-1.4 3.5 0a14 14 0 0 0 5.6 2c4.3.7 7.2 2.6 5.9 3.9-.5.5-3.1.4-5.8 0a17 17 0 0 0-5.7-.5c-.4.2-.8 2.2-.8 4.3 0 2.6-.5 4-1.6 4.4-2.5 1-5.9.7-7.2-.6-1-1-1.6-.9-2.7.7-3.3 4.4-.8 9 5.5 10s28 1.4 28.6.5c1-1.7 4-.9 7.2 2 4.2 3.9 4 5.7-.3 7.5-4.8 2-4.3 3.2 1.5 3.8 2.9.3 6 1.3 7 2.3 4.2 3.7 1.6 4.4-8 1.9zm-30-11c0-.8-.5-1.4-1-1.4s-1 .6-1 1.5.4 1.5 1 1.5 1-.7 1-1.5zM690 256c-.3-1.8-6.2-3.7-8.6-2.7-1.5.5-1.4.8.4 2.3 2.9 2.3 8.7 2.7 8.2.4zm-12.8-9c0-1.4-1.2-2.2-2.1-1.6-1 .6-.2 2.4 1.2 2.4.5 0 1-.4 1-.9zm-10.6-20.8c-1-1.4-2.4-2.4-3.2-2.3-2.7.6-2.4 2.6.5 3.7 4.2 1.5 4.5 1.4 2.7-1.4zm-434.5 41.5c-1.3-.8-1.3-1 0-1.9 1.8-1.2 3.9.5 2.4 2-.6.5-1.5.5-2.4 0zm450.6-1c-.4-.6-.3-1.6.3-2.1 1.4-1.4 4.7-.6 4.7 1.2 0 1.8-4 2.6-5 1zm192.6-6.3c0-1.3 1-1.6 5.7-1.6 6.8 0 6.1 1.6-1 2.6-4 .5-4.7.4-4.7-1zm-700.2-1.6c-2.7-.7-4-3.5-1.8-4.3 2-.7 5.8 1 5.8 2.7 0 2-1 2.4-4 1.6zm713.8-1a7.6 7.6 0 0 0-5.5-2c-2 0-4.3-.5-5.1-1-1-.7.2-1 4.5-1 3.3-.1 8-.4 10.6-.7 3.3-.3 4.9 0 5.8 1.1.8.9 2.9 1.6 4.7 1.6 3.6 0 4.6 1.5 1.6 2.3-1 .3-4.6.8-8.2 1.2-5.8.6-6.7.4-8.4-1.4zm-66.6-2.5c0-.9-.4-1.6-.8-1.6l-8-.4c-8.3-.4-17.2-2.3-17.2-3.7 0-.7 1.6-.8 4.2-.4 2.3.3 8.9.9 14.5 1.2 10.8.6 13.7 1.9 11.3 4.9-.7.8-1.9 1.5-2.7 1.5-.7 0-1.3-.7-1.3-1.5zm13.5-3.1c-1-1.6-1.4-3-.8-3.6 1.4-1.4 9.8-1.3 13.4.2 2.2 1 3.4 1 3.6.3.2-.6 1-2 1.8-3 1.3-1.7 1.6-1.7 4.2-.3 1.5.8 2.9 2.2 3 3 1 4.5-8 7.8-11.8 4.4-1.9-1.7-2.2-1.7-5.5-.1-4.7 2.2-6 2.1-8-1zm44.5-2.3c0-1 5.7-2.1 10.7-2.1 5.2 0 3.8 1.6-2 2.3-7 .9-8.7.8-8.7-.2zm22.2.1c-5-.6-3.8-2.2 1.9-2.2 3.6 0 5 .3 4.6 1.2-.4 1.4-1.8 1.6-6.5 1zm15.2-.3c-.9-1.6 1.1-3.3 3-2.6.9.3 1.6 1.3 1.6 2.1 0 1.8-3.5 2.1-4.6.5zm-50.9-.9c-.4-.6 0-1.3.8-1.6 2.2-.8 6.2-.1 6.2 1 0 1.4-6.2 2-7 .6zm-425.6-5.6c-5-1.7-5.2-4.6-.5-7.3 2-1.2 4.5-2.2 5.7-2.2 1.2 0 3.6-.5 5.5-1.2 2.6-1 3.8-1 5.3 0a11 11 0 0 0 4.9 1.2c3.3 0 4.9 1.6 3.1 3.4-.8.8-2.4.6-6.2-.7-6.2-2.2-8-1.2-5.4 2.9 1 1.5 1.4 3 .9 3.4-1.6 1.5-9.8 1.8-13.3.5zm436.3.2c1-.8 1.8-2.6 1.8-4 0-3.9 2.6-4.4 5.5-1.2 1.4 1.4 2.5 3 2.5 3.5 0 1.1-5.7 3-9 3-2.3 0-2.4-.1-.8-1.3zm-225.3-2.6c0-1 .4-1.2 3.5-1.4 2.6-.2 1.7 1.8-1 2.2-1.4.1-2.5-.2-2.5-.8zm158.4-3.6c-3.2-3.2-2-5.1 4-6 4.6-.6 11.8.6 12.3 2s-8.8 6.5-11.6 6.5c-1.2 0-3.3-1.1-4.7-2.5zm24.3-1.1c-1.5-1.5-.4-2.4 2.9-2.4 2.4 0 3.5.5 3.5 1.5 0 1.6-5 2.2-6.4.9zm28.4-5c0-1 .7-1.4 2.6-1.2 4 .5 4.3 2.8.5 2.8-2.2 0-3.1-.4-3.1-1.5zm17.5.7c-.3-.5-.1-1.2.4-1.5a1.1 1.1 0 0 1 1.2 1.9c-.6.3-1.3.1-1.6-.4zm-314.5-4.4c-1.6-2-.4-2.7 4.5-2.7 4.8 0 9.4 1.5 9.4 3 0 1.6-12.6 1.3-13.9-.3zm429 .3c0-.5.4-1 1-1 .5 0 1.2.5 1.5 1 .3.6 0 1-1 1-.8 0-1.5-.4-1.5-1zM555 226c-2.8-.7-1.3-2.8 1.8-2.6 4 .3 5.7 1.1 5 2.3-.7 1-3.6 1.2-6.8.3zm470.6-2.2a17 17 0 0 1-3.2-3.5c0-.3 1.2-1.6 2.8-3 2.5-2.4 3.5-2.6 11.5-2.6 8.5 0 8.7 0 8.7 2.4a6 6 0 0 1-1.7 3.9 58.8 58.8 0 0 1-14.3 5.7c-.3 0-2-1.3-3.8-3zm-39.2-2.2c-4-2.8-4.8-3-9.5-2.5-6.2.7-9.7-1-7.9-4 1.3-2.1 3.4-2.2 14.4-.4 9.8 1.7 13.4 3.5 12.6 6.4a19 19 0 0 0-.6 2.9c0 1.8-5 .5-9-2.4zM507 223c-1.9-.3-2.7-1-2.7-2.2 0-3-9-3.4-11.2-.6-1.7 2-1.7 2-4.6-1-2.2-2.5-4-3.3-8.1-3.9-5.4-.7-7.8-3-5-4.7 3.3-2 17.3-4 29.9-4.3 6.4-.1 8 1.8 1.7 2.2-7.6.5-8.7 1-8.7 4v2.9l16 .2c9 0 16.6.4 17.1.7 2.2 1.4-.7 2.6-5 2.1-2.6-.3-6.4-.2-8.6.2l-4 .7 6 1c3.3.4 10.9.8 16.9.9 7.8 0 11 .4 11.3 1.3.3 1-3.7 1.2-18.9 1a356 356 0 0 1-22-.5zm497.4-.5c-1.3-.4-2-1.5-1.8-2.4.2-1.3 1.6-1.8 5.6-2 4.9-.2 5.2 0 5.2 2s-.6 2.5-3.4 2.8c-2 .2-4.4 0-5.6-.4zm-327.6-.9c-.4-.6-.2-1.6.4-2.2 1.3-1.2 4.2 0 4.9 2.2.5 1.5-4.4 1.5-5.3 0zm159.3.4c-3.2-.8-1.8-2.3 2.1-2.3 2.3 0 4.4.7 5.2 1.5 1 1.3.7 1.5-2.2 1.4-1.8 0-4.1-.3-5-.6zm-32.7-2.7c-1.5-1.8-.6-3.6 1.9-3.6 2.2 0 4.5 2.5 3.6 4-1 1.5-4.1 1.3-5.5-.4zm152.6-4c-2.2-3.4-2-5 .9-7 4.2-2.8 5.4-2.1 4.8 2.7-.3 2.3-.6 4.8-.9 5.5-.6 2-3 1.4-4.8-1.2zm-18.4-3c-1.3-2.9-4-3.4-4.9-1-.3.7-1 1.4-1.5 1.4-1.6 0-7-5.9-6.3-7 .3-.5 2.6-1 5-1s4.6-.4 5-1c1.2-1.9 5.2-1 6.9 1.5.9 1.4 3.4 3.4 5.6 4.5 2.2 1.1 4 2.5 4 3 0 1.3-4.7 1.3-5.5 0-1-1.5-4.5-1.2-4.5.5 0 2.4-2.6 1.8-3.8-1zm-186.8 0c-1.5-1.1-1.7-1.6-.7-2.9 1-1.2 1.8-1.2 5-.2 5 1.7 6.5 1 5.7-2.6-.8-3.8 1.8-4 4.2-.3 1.5 2.3 1.5 2.7.1 4a22.8 22.8 0 0 1-10.8 3.4c-.9 0-2.4-.6-3.5-1.4zm-413.3-.3c-5.2-.6-3.8-2.3 2-2.3 6 0 9.7.9 9.7 2.1 0 1-5.4 1-11.7.2zm-9.3-2.8c0-1 .7-1.5 1.8-1.3 2 .4 2 2.2-.2 2.6-1 .2-1.6-.3-1.6-1.3zm579.8-1.8c-1.2-.8-1.7-2.3-1.5-4.2.3-2.4 1-3 3.1-3.3 1.6-.2 2.8.2 2.8.8 0 .6 1.1 2.2 2.6 3.5 1.4 1.3 2.3 2.9 2 3.5-1 1.4-6.9 1.3-9-.3zm-370.5-.4c-4.2-.5-4.5-3.3-.3-3.3 4 0 8.3 1.8 7.6 3-.7 1-1.3 1-7.3.3zm10-.2c-1.1-.6-1-1 .3-1.4 2.6-1 3.5-.8 3.5.8 0 1.7-1.8 2-3.9.6zm-30.5-.7c-1.6-1.5.7-2.4 6.4-2.4 4.4 0 6 .4 5.6 1.3-.4 1.3-10.8 2.3-12 1.1zm204 0c-1.2-1.3-.7-2.4 1.6-3.4a31 31 0 0 0 3.7-2c1.2-1 2.5-.7 5.4 1 3.6 2.2 3.7 2.5 2 3.7-1.8 1.3-11.5 1.8-12.7.6zm168.6-3c-1.8-1-3.8-2.5-4.3-3.5-.6-1.2-2.1-1.9-4-1.9-3.7 0-4.7-1.7-1.6-3 3.2-1.6 10.8 1 12.2 3.9a5.6 5.6 0 0 0 2.7 2.7c2.3.7 2.3 3.4 0 3.4-1 0-3.2-.8-5-1.7zM536 199.7c-9.5-.8-8.5-2.6 1.4-2.6 5 0 8.3-.4 8.6-1.1.2-.7-5.2-1.5-16.5-2.3a141 141 0 0 1-29.3-3.5c-3.5-.9-9-1.6-12.1-1.6-6.6 0-8.2-1.5-4.8-4.1 2.3-1.7 4.4-1.9 28-1.6 16.5.1 25.3.5 25 1.2-.5 1-6.4 1.2-29 1.4-5.7 0-10 .4-9.6.8.7.8 12.9 1.7 37 2.8a123.1 123.1 0 0 1 23.6 2.7c4.1.3 4.9 2.4 2.2 5.8-1.7 2-2.9 2.3-9.8 2.5-4.4.2-11 0-14.7-.4zm-35.7-1c-2.5-1.6-.8-2 8.7-2.3 8-.3 11.5.3 10.2 1.6-1 1-17.6 1.6-19 .7zm-11-1c0-1.1 2.5-2.2 3.3-1.4 1.3 1.2.6 2.3-1.4 2.3-1 0-2-.4-2-.9zm478-2.2c0-2.2 2.2-4.9 4-4.9 3 0 3.6 2.1 1.1 4.2-2.5 2-5 2.4-5 .7zm-386.5-1.9c-1.1-1.8.5-3 4-3 4.9 0 6.8 1 5.4 2.6-1.3 1.6-8.5 1.9-9.4.4zm53.1.3c-1.6-1.6-.2-2.3 5.3-2.3 4 0 6.2.5 7 1.5 1.2 1.3.5 1.5-5.1 1.5-3.6 0-6.8-.3-7.2-.7zm-38.6-1.7c0-.8.5-1.6 1.2-1.9 1.7-.6 5 1.2 4.2 2.3-.9 1.6-5.4 1.2-5.4-.4zm-176-.7c-11.4-1-14-1.6-14-3 0-.8 3.7-1 11.7-.8 10 .3 12.1.1 14.2-1.4 3-2.1 5-2.2 7.9-.1 1.7 1.2 5 1.6 13.1 1.8 6 0 11.2.4 11.6.8 2 2-1.7 2.7-14.2 2.7-7.5 0-15.3.3-17.3.5s-7.9 0-13-.5zm253.4 0c-.4-.7.1-1.8 1.1-2.6 2.4-1.7 3.4-1.7 4.2.3 1 2.6-3.8 4.7-5.3 2.2zm187.6 0c0-.5-1-1.4-2.3-1.9-1.8-.6-2.5-1.8-2.9-4.7-.8-7 1.4-10 3.3-4.5 1 2.5 1.5 2.9 4.7 2.8 3.1 0 3.8.2 3.8 1.9.1 4.3-1.7 7.5-4.1 7.5-1.4 0-2.5-.5-2.5-1zm58.3 0c.2-.8 1.2-1.6 2.2-1.7 1.2-.3 1.6 0 1.4 1a3 3 0 0 1-2.3 1.6c-1.1.3-1.6 0-1.3-1zm-448.1-.5a2.4 2.4 0 0 1-1.3-2c0-1.2 1-1.4 4.3-1.2 3 .2 4.2.7 4.2 1.8 0 1.5-4.7 2.4-7.2 1.4zm213.5-2c-4.3-1.1-5.5-1.9-5-3 .3-1.1 1.3-1.3 3.6-.8 1.7.5 7.8 1 13.6 1.4 8.4.5 10.5.9 10.5 2.1 0 2-15 2.3-22.7.3zm65.7.7c-.8-1.3.6-1.7 8.3-2.4 4.8-.4 6.2-.3 6.2.8 0 .8-1.8 1.5-5.2 2-7.2.8-8.6.8-9.3-.4zm189.6.1c0-.4 2.2-2 5-3.4 5.6-3 7-1.5 2.3 2.2-2.6 2-7.3 2.9-7.3 1.2zM359 189c-2.1-.2-3.8-.8-3.8-1.4 0-.5 1.7-1 3.8-1 2 0 6.9-.2 10.7-.5 6.3-.6 6.8-.5 5.5.9-1.6 1.6-10.1 2.7-16.2 2zm566.9-.3c-.4-.6-.2-1 .4-1 .6 0 1 .4 1 1 0 .5-.1 1-.4 1-.2 0-.7-.5-1-1zm-542.7-1.5c0-1.6 1.7-2 4.4-.9 2.6 1 1.8 2.4-1.4 2.4-2 0-3-.5-3-1.5zm17.3.8c-1.8-.7-1.6-2.3.2-2.3.8 0 1.5.7 1.5 1.5s-.1 1.5-.2 1.4l-1.5-.6zm445.2-2.3c-1.8-3-4.7-4-5.9-2-.3.5-1.7 1-3 1-3.7 0-3-2.9 1-4.6 4.5-1.8 5.5-1.8 6.2.3.4 1 2 3 3.5 4.6 3.2 3 3.5 3.7 1.4 3.7-.8 0-2.2-1.4-3.2-3zm-28.4-.1a198 198 0 0 0-12.1-.8c-4 0-5.2-1-3.8-3.2.6-1 3-1.4 9.2-1.4 7.7 0 8.3-.2 8.3-2 0-3.1 5.2-3.1 8.6 0 3.3 2.8 4.8 7.5 2.5 7.5a69.4 69.4 0 0 1-12.7-.1zM547 183c-2.9-.8-2-2.2 1.9-2.9 4.8-1 26 .8 25.6 2a125 125 0 0 1-27.5 1zm442.4-.8a5 5 0 0 0-3.4-1.5c-3.6 0-12.5-5.8-13.2-8.5-1.7-6.7.8-8.4 12.9-8.7 6-.1 7.6-1 5.7-3.3-.7-.8-1-1.9-.6-2.4.3-.5-.1-1.5-1-2.1a4.8 4.8 0 0 1-1.4-3.4c0-2.1 0-2.1 1.5-.1 2.8 3.9 3.6 4.5 6.1 4.5 1.4 0 3.2-.7 4-1.5 2-2 3-2 5.8.8 1.8 1.8 2.9 2.1 5 1.5 1.6-.4 5.1-.4 8-.1 4.2.5 5.8 1.3 9 4.4 2 2 3.5 4.3 3.1 4.8-1.1 1.9-5.3 1.1-8.4-1.5-2.5-2-3.1-2.2-3.8-1-.6 1-3 1.5-8.8 1.7-8.7.2-10.6-1-6.4-4.3 2.2-1.7 2.3-1.8.4-1.8-1.1 0-3.4 1.5-5 3.4-1.7 2-3.6 3.5-4.3 3.6-1.5 0-1.7 10.6-.2 11.5 1.5 1 1.2 4.2-.6 4.9-2.3.9-3 .7-4.4-1zm18 .3a8.5 8.5 0 0 0-4.3-.4c-2.7.7-4.7-.3-4-2 .3-1 2.2-1.4 6.3-1.4 6.6 0 9 .6 9 2.5 0 1.7-4 2.4-7 1.3zm-99.6-1.2c-.8-2 .4-4.7 2.4-5.4 1.6-.5 1.5 3-.3 5.3-1.4 2-1.4 2-2.1.1zm-518.1-.9c-6.4-1.6-6.7-1.7-6-2.7.7-1.1 6.7-1.3 10.3-.4 1.4.4 2.2 1.3 2 2.2-.4 2-1.4 2.1-6.3 1zm305.2-.6c-1.6-.3-3.1-1.2-3.4-2-.3-1 .9-1.2 5-1 3.9.3 5.3.8 5.3 1.9 0 1.7-2.6 2.1-7 1.1zm-280.7-1.1c0-.6 1.6-1 3.6-1s3.3.4 3 1c-.4.5-2 1-3.7 1-1.6 0-2.9-.5-2.9-1zm20 0c-1.3-.8-1.2-1 .3-1 1 0 1.7.4 1.7 1 0 1.2-.1 1.2-2 0zm176.4-.6c-1-2.4 1-3.6 4-2.5 1.4.5 7.5.8 13.6.7 10.7-.4 14.2.4 11 2.5-.8.5-7.4.9-14.7.9-11.2 0-13.4-.3-13.9-1.6zm45 .8c-2.3-.7-1.4-2.3 2-3.6a39 39 0 0 1 12.9-.7c9.5.6 12 1.3 10.2 3-1 .9-23 2-25.2 1.3zm213-.8c-1.8-1.2-2.3-2.5-2.3-6 0-2.4-.4-4.5-1-4.6-3.1-.4-3.5-.1-3.5 3.2 0 2.5-.4 3.5-1.7 3.8-1.5.3-1.8-.4-1.8-4.6 0-2.7.7-5.7 1.5-6.8a12 12 0 0 0 1.5-6c0-6.5 1.7-7.9 9.4-8 3.8 0 7.2-.6 7.8-1.2.7-.7 2.3-1.2 3.5-1.2 3.2 0 3.8 3.2 2.7 13.3-.6 6.2-1.2 8.2-2.3 8.2-1.1 0-1.6-1.3-1.9-4.2a10 10 0 0 0-1.7-5.4c-.8-.6-1.5-1.8-1.5-2.5s-.5-1.6-1.1-2c-.8-.5-1 0-.5 1.7 1 3.7-1.2 10.1-4.2 12.5-2.3 1.9-2.5 2.5-1.6 5 1.4 4 3.9 3.7 4.3-.4.4-4 3.1-4.5 3.2-.5 0 1.5.4 3.4 1 4.3 1.9 3-5.8 4.2-9.8 1.4zm150.8.6c0-.6.4-1 1-1s1 .4 1 1-.5 1-1 1-1-.5-1-1zM517.9 177c-.3-.3-2.6-.5-5-.5-5.7.1-6.5-1-2.8-3.7 3.8-2.7 5.8-2.7 6.5 0 .4 1.7 1 2 2.8 1.3 3.2-1 11.9-.8 13.2.5.7.7.5 1.2-.4 1.5-2.6.8-13.7 1.5-14.3 1zm20.5-1.3c.2-.6.7-1.1 1.1-1 1.2 0 1 1.4-.3 1.8-.7.3-1-.1-.8-.8zm291.7-.1c-5-1.9-3.5-3.1 5-4.4 3.4-.6 4.4-.4 4.9 1 .3.9.2 2-.3 2.5-1.5 1.5-6.7 2-9.6.9zm-245.8-.9c-2.8-1.8.3-2.7 7.2-2 3.8.2 7 1 7 1.5.3 1.3-12.3 1.8-14.2.5zm61.6.3c-1.4-1.4-.5-2.3 2.4-2.3 2 0 3 .5 3 1.5 0 1.5-4 2.1-5.4.8zm315-.7c-1.9-1.4-1.9-1.5-.3-2.2 2.3-.8 5 .2 4.5 1.8-.6 1.8-2.1 2-4.3.4zm63 .5c-.3-.6-.1-1.2.4-1.6a1.1 1.1 0 0 1 1.2 2c-.5.3-1.2 0-1.6-.4zm-631-1.5c-.7-1.8 1.7-2.8 3.2-1.3 1.7 1.6 1.4 2.7-.8 2.7-1 0-2.1-.7-2.4-1.4zm7.3.5c-.5-.1-.7-.7-.4-1.2.7-1.3 19.4-1.2 19.4 0 0 .6-1.2 1.2-2.7 1.3-5.1.3-15.3.3-16.3 0zm27-.7c0-1.2.9-1.5 3.7-1.2 5.3.4 5.6 2.8.4 2.8-3 0-4-.4-4-1.6zm-45.5-.8c-2.3-1.7-1-2.5 3.3-1.9 1.8.3 3.2 1.1 3.2 1.9 0 1.8-4 1.8-6.5 0zm515.2-1c-1.1-1.6-1.5-4.9-1.4-12.5 0-9.6.2-10.3 2.6-12.2 2.6-2 9.3-2.7 9.3-1 0 .6-.4 1-.8 1.1-5.5.6-6.4 1.7-5.2 6.2 1.2 4.1 3.9 5.1 4 1.5.1-1.8.5-1.5 1.8 1.5 2 4.6 3.7 5 2.7.5a61 61 0 0 1-.3-21.8c1-11.7 2.3-15 5.7-15 1 0 2.6-.6 3.6-1.4 2.6-2 3.5-2 3.5.1 0 1-1.3 2.7-2.8 4l-2.7 2.1v17.9c-.1 16.6-.3 18.3-2.5 23.2-2.2 5-2.5 5.3-5.4 4.8-4-.8-4.1-1-2.6-4.7 1-2.6 1-3.3-.4-4.7-1.5-1.5-1.8-1.6-2.7-.2-.6.8-.8 3-.6 5 .8 7-2.7 10.4-5.8 5.7zm-553.7.4c0-1 2-1.3 12.7-1.5 4.6 0 6.3.2 6.3 1.2s-2.4 1.3-9.5 1.3c-5.7 0-9.5-.4-9.5-1zm27.5-1c-.3-.6.1-1.3 1-1.7 1.9-.7 3 .1 2 1.6-.8 1.4-2.2 1.4-3 0zm474.3.3c-.4-.4-.7-2.5-.7-4.8V162l-12.1-.7c-6.7-.3-17-.6-22.8-.6-11.8 0-15-.6-15-2.7 0-1 3.2-1.3 17.7-1.3 9.7 0 20.3.4 23.4.8 6.8.9 7.7.6 8.9-2.4.5-1.4 1.6-2.4 2.5-2.4 1.3 0 1.5 1 1.3 5.8 0 3.2.1 6.4.5 7 1.4 2.1 2.8 0 2.6-3.7-.2-5.5 0-6.1 1.5-5.5.9.3 1.5 1.8 1.5 3.2s.5 4.1 1 5.9c.8 2.8.6 3.4-1.5 4.7-2.4 1.6-7.6 2.1-8.8 1zm83.4-.3c0-1.5 4.2-4 6.7-4 2 0 4.3-2.6 4.3-5 0-.6-1.4-1-3.1-1-2.3 0-3.3.5-3.6 2-.3 1-1 1.7-1.5 1.4a1 1 0 0 1-.3-1.5c.3-.5-1-1-2.8-1-3.7 0-6.7-2.4-6.7-5.3 0-1 1.5-2.6 3.5-3.8 4.1-2.4 4.4-3.8.9-3.8-3.2 0-2.8-2.4.4-2.9 4.4-.6 7 4.2 3.7 6.9a4 4 0 0 0-1.5 3c0 1.7.8 2 6.5 2 5.2 0 6.9.4 8.6 2 1.5 1.6 2.8 2 4.6 1.5 3.8-1 11.3 3 11.3 6 0 4.1-3 4.8-14.5 3.5-7.5-.9-11-.9-12.4-.1-2.5 1.3-4.1 1.4-4.1.1zm86.7.3c-1-.9.2-2.3 1.9-2.3.7 0 1.4.7 1.4 1.5 0 1.5-2.1 2-3.3.8zm-564.8-1.7c-6.4-1.7-6.5-3.6-.2-3.6 5.8 0 8.1.7 8.1 2.5 0 1-2.5 2.8-3.3 2.4l-4.6-1.3zm-13.8-.3c-2.5-.5-3.2-3.3-.9-3.3 2.6 0 4.6 1.1 4.6 2.6 0 .7-.3 1.3-.7 1.2l-3-.5zm47.7-.8c0-1.2.7-1.6 2.3-1.3 1.2.1 2.2.7 2.2 1.3s-1 1.1-2.2 1.3c-1.6.2-2.3-.2-2.3-1.3zm-18-.5c0-.6.7-1 1.5-1 .9 0 1.5.4 1.5 1 0 .5-.6 1-1.5 1-.8 0-1.5-.5-1.5-1zm97.8-.7c-4.3-.5-4.8-1.9-1.3-3.5 1.8-.8 4-.8 8.5.2 6.3 1.4 8 3 3.3 2.8-1.5 0-3.6.1-4.7.4a22 22 0 0 1-5.8 0zm16.8-.2c-.3-.6-.1-1.3.4-1.6a1.1 1.1 0 0 1 1.1 2c-.5.2-1.2 0-1.5-.4zm9.2-.2c-1-.6-1.7-1.7-1.7-2.5 0-1.6 3.5-2 4.5-.4.3.5 2 1 3.6 1 4.2 0 3.2 2.4-1.2 2.7a10 10 0 0 1-5.2-.8zm11.5-.2c.6-1.9 3.8-2.1 3.8-.3 0 1-.9 1.6-2.1 1.6-1.2 0-2-.5-1.7-1.3zm-350.2-.7c-2.2-1.3-.3-3 3.4-3 2.2 0 4.3-.9 6-2.5 3.8-3.5 5.4-3.3 4.6.7-.6 2.8-1.2 3.3-4.7 4l-6 1.2c-1.1.2-2.6.1-3.3-.4zm44.9.1c0-.5 1.8-1.3 4-1.6 3.4-.6 4-1 3.4-2.6-.4-1.6 0-2 2-2 1.4 0 2.6.5 2.6 1 0 .6.9 1 2 1 2.2 0 3.6 1.9 2.3 3-1.3 1.3-16.3 2.4-16.3 1.2zm666.4-.4c-2.7-1.2-2.4-3.4.4-2.9 2.6.5 4 2 2.8 3-.5.6-1.9.5-3.2-.1zm-719.8-.4c-1.2-1.3-.6-2.3 1.4-2.3 1 0 2 .6 2 1.5 0 1.5-2.2 2-3.4.8zm646.2-1c-.3-1-.7-3.8-.8-6.3-.3-3.7 0-4.6 1.5-4.9 3-.5 4.4 1.6 2.2 3.2-1.5 1.1-1.6 1.6-.5 3.3 1 1.7 1 2.5-.3 4.3-1.4 2-1.6 2.1-2 .4zm-560 0c-1.3-1.3-.7-2.3 2.2-3.8 3.7-1.9 5-2 5-.2 0 2.4-5.7 5.6-7.2 4zm38.8-.3c-.4-.6-1.5-.8-2.5-.5-1.9.6-6-1.3-6-2.8 0-1.1 3.5-.9 6.4.4 1.9.9 3 .8 5.7-.5 3.4-1.7 7-2 13.2-1 3.6.6 3.7.7 1.4 1.9-1.3.6-4.6 1.5-7.3 1.8-2.7.3-6 .9-7.5 1.2-1.6.4-3 .2-3.4-.5zm-97.1-1.4c-.4-.9-.3-2 0-2.5.8-1.4 5.7.8 5.3 2.3-.6 1.7-4.7 1.9-5.3.2zm12.3.7c-1.4-1.3-.7-2.5 1.3-2.2 1.1.2 2 .8 2 1.4 0 1.2-2.4 1.8-3.3.8zm8.3-1.3c0-1.3 4.5-2.4 6.5-1.6.9.3 1.3 1 1 1.6-.8 1.3-7.5 1.3-7.5 0zm-50.4-.8c-.9-1.4 8.6-8.4 9.7-7.3.7.7.4 1.6-1 2.8-3 2.8-8.2 5.4-8.7 4.5zm111 .1c-1.3-1.3-.6-2.5 1.4-2.2 1.2.2 2 .8 2 1.4.1 1.2-2.3 1.8-3.3.8zm41-.2c-.3-.5-.1-1.3.5-1.7 1.5-1 2.5.4 1.2 1.7-.7.7-1.3.7-1.7 0zm7.9-.2c-1-1.5-.6-1.7 5.5-2 4.4-.4 5.5-.1 5.5 1 0 2-10 2.8-11 1zm-169.5-2.1c0-1.3 9.4-6.8 11.7-6.8 2.6 0 1 1.6-4.4 4.5-7.4 3.9-7.3 3.9-7.3 2.3zm22 .2c0-1 3.8-2.5 4.6-1.7.3.3.3 1-.1 1.6-.8 1.3-4.5 1.4-4.5.1zm467.3.3a2.2 2.2 0 0 1-1.2-2c0-1 1.8-1.3 8-1.3 8 0 10.6 1 7.1 3-2 1-11.5 1.2-13.9.3zm34-.7c-1.5-1.7-.5-2.6 2.4-2.6 2.8 0 4.2 1.9 2.3 3-2 1.3-3.5 1.2-4.8-.4zm14 .5c-5.8-1.1-3.4-2.6 5-3.1 8-.5 10 .2 8.3 3-.6 1-7.8 1.1-13.3 0zm189.5.2c-.7-.8.3-5.5 1.5-6.8 1.6-1.8 1-4.5-1-4.5-2.3 0-3.6-1.6-2.2-2.5 1.8-1.1 1.2-4.3-1-4.8-2.6-.7-2.5-2.4.2-3 1.6-.5 2-1.2 1.6-2.7-.8-3.1 1.4-7.2 3.8-6.8 1.8.2 2 1 2 7.4s.2 7.3 2.5 9.2c3.7 3.1 7.3 2.7 10.5-1 2.5-3 2.6-3.4 1-4.3-1-.6-2.5-1.8-3.4-2.8-.9-1-2.8-1.8-4.4-1.8-2.8 0-3.4-.6-4-4.5-.2-1.6.4-2 3.3-2.1 5.5-.3 5.6-.3 3.5-1.9-2.7-2-1.3-2.9 4.3-2.6 4 .2 5.6-.3 10-3.3 9.8-6.8 16.7-9.7 21.9-9.4l4.7.3.7-4c.7-4.5 3.9-7.5 8-7.5 2.4 0 2.8-.4 2.6-2.2-.3-3.2 3-3.6 4.4-.5 1.2 2.7 5.6 4.2 7.5 2.6.6-.5 3.7-1 7-1 9.3-.3 20.2 4.8 14.3 6.6a6 6 0 0 0-3 2.6c-.5 1-1.9 2-3 2s-3.1 1.4-4.6 3.1a183 183 0 0 1-8 8.4c-5.3 5.2-6 6.8-5.4 13.7.3 3.5-.3 3.4-4-.3-2.9-3-3.9-7.3-2-8.5.6-.3 1-1.7 1-3s.6-2.6 1.1-3c.7-.4.8-2.4.4-5.1-.7-4.5-.7-4.5 2.2-4.2 2.1.2 3 1 3.2 2.6.4 2.8 3.7 3 5.2.2 1.7-3.3.3-5.8-3.6-6.6-3.5-.6-10.1 0-11.2 1.1-.7.7-1.9 8.6-2.8 18.8-.4 3.7-1 6.7-1.4 6.7-2.1 0-4-3.8-3.4-7l.7-3.2-6.6.7c-7.2.7-10.2.2-11-2-.7-1.6 6.6-5.8 8-4.5.4.4 2.7 1 5.1 1.4 3.3.5 4.3.4 4-.6-.8-2.2-5.1-3.7-10.6-3.8-4.7 0-5.7.4-9.2 3.8l-4 3.7v11.1c0 10.6 0 11.2 2.5 13.5 1.5 1.4 2.4 3.2 2.3 4.4-.4 2.9-4.4 3.3-6 .6-.7-1.1-1.7-2-2.2-2-.5 0-1.4-.7-2-1.5-.9-1.1-2.4-1.3-6.9-.9-5.3.6-5.7.8-5.1 2.8.7 3-4.5 5.4-8.2 3.7-2.2-1-2.8-.8-4.7 1.1-3.4 3.5-5.4 4.8-6 4.1zm15.6-9.5c-1-1-1.5-1-2.4 0s-.7 1.2 1.2 1.2 2.1-.3 1.2-1.2zm5.9-15.5c1.1-1.4 1-1.5-.6-1.2-1 .2-2 .9-2.3 1.6-.6 1.8 1.3 1.5 2.9-.4zm5.6-4.6c-1.4-2.2-5.7-3.8-5.7-2 0 .8 4.8 4 6.3 4.1.5.1.2-.9-.6-2.1zm-573.1 28c-2-.7-4.3-1.8-5-2.5-1.6-1.6-6.5-1.6-7.2 0-.4.8-.8.9-1.1.3-1.6-3.1-2.7-3.7-8.1-4.5a73 73 0 0 1-11.4-2.8l-9.7-3.3-4.2-1.2-5.9 5.1c-5.6 4.9-8.2 6.3-8.2 4.3a28 28 0 0 1 9-8.1c3 0-.2-2.4-10.3-7.5a106 106 0 0 1-13.3-7.7c-1.1-1-2.8-1.9-3.6-1.9s-1.9-.6-2.2-1.5c-.7-2-2.6-1.9-2.6.1 0 1.2-.6 1.4-2.3.9-3.4-1-4-2-2.3-3.8.9-.8 1.6-2 1.6-2.6 0-1.9-2.6-1.2-5 1.4-2.2 2.3-5 3.4-5 2 0-.4.9-1.8 2-3.3 3-3.8.6-4-3.6-.2-4.3 3.7-6.7 3-3-.9 3-3 3.3-5.6 1-6.5-2.5-1-2.7-.7-2 1.8.4 1.8-.3 3.1-3.5 6-3.4 3.2-4.5 3.7-7 3.1-1.6-.3-3.1-1-3.4-1.4-.5-.9 4.8-6 8.1-7.9 1.5-.9 1.6-1.2.4-2.7a24 24 0 0 1-2.5-3.8c-1.2-2.5-3.4-3.1-5.5-1.7-1.4.9-1.4 1.1 0 2 1.2.8.7 1.7-2.8 5.1-5.3 5.2-4.8 6.3.8 2 2.2-1.9 4.3-3.1 4.5-2.8 2 1.8-6.6 8.4-9.4 7.1a16.5 16.5 0 0 0-4.6-1.3c-.6 0 1.2-2 3.8-4.5 4.4-3.8 4.8-4.5 3.8-6.4-1.6-3-2.5-2.8-7.3 1.6-2.7 2.4-4.3 3.3-4.6 2.5-.2-.8-2.3-1.3-5.2-1.3-2.6 0-6.5-.7-8.7-1.6-2.5-1.1-7-1.8-13-1.9-5.7 0-9.8-.6-10.7-1.4-1.2-1-2.4-1-5.8.2-8 2.6-9.9 2.9-9.9 1.3 0-1.4.8-1.8 6.3-3 1.5-.4 2.7-1.1 2.7-1.7s-.8-.8-1.9-.4c-1 .3-4.3 1-7.2 1.5-3 .4-6.6 1.3-8.2 2-1.5.5-3.9 1-5.2 1-4.3 0-2.6-1.6 3-2.9 3-.7 5.8-1.6 6-2.1.8-1.1-8.5-.2-14.5 1.5-5 1.4-7 1-7-1.1 0-1.2-.9-1.4-4.4-.9-5.7.9-8.1-.4-4-2.1l3-1.2-4.8-2c-2.6-1.2-4.8-2.6-4.8-3.2 0-1.6 4.2-1 8 1 2 1 4.8 2.4 6.3 3 1.5.7 2.7 1.8 2.7 2.5 0 2.4 2.3 2.9 3.7 1 1.1-1.6 2.9-2 9.6-2.1a35 35 0 0 1 9.3.6c.5.5 4 .8 7.6.8l6.7-.1-3-3.7c-8.1-10.2-19.9-14.3-53.4-19a83 83 0 0 1-16.2-5.8c-6.1-2.8-13.6-5.9-16.6-6.7-3-1-7.3-3-9.6-4.6a28.2 28.2 0 0 0-7.8-3.9l-7.5-1.9c-2-.5-5.3-1.8-7.1-2.9a30.8 30.8 0 0 0-11.3-2.7c-7.8-.8-10.6-1.6-13.2-4.2a6.8 6.8 0 0 0-4-1.4 25 25 0 0 1-7.2-1.8c-4-1.5-5.1-1.6-10-.4-7.5 1.7-24.7 2.5-25.6 1.1-1.3-2 1.4-3 11.4-3.8 5.6-.5 12.2-1.6 14.6-2.6 4-1.5 4.8-1.5 7.5-.2 1.7.9 5 1.9 7.3 2.2a31 31 0 0 1 8.7 3.3 31 31 0 0 0 12 3.3 23 23 0 0 1 10.4 3 40 40 0 0 0 10.4 4c4.2 1 9 2.8 10.7 4a95.8 95.8 0 0 0 18.1 8.3l11.3 4.6c4 1.8 8.6 3.3 10.1 3.5 1.6.2 5 1.1 7.5 2 2.6.9 5.7 1.6 7 1.6 1.1 0 6.4 1 11.6 2l13.5 2.9c5 1 17.4 9.3 19.7 13.1 1 1.6 2.6 3.1 3.8 3.5 1.1.3 2 1 2 1.4 0 1.1 7.6 4.2 17 6.7 10.5 3 11 3 11 .1 0-3 1.8-4.7 4.8-4.7 1.5 0 2.3-.6 2.3-1.9 0-2.6 2.2-4.2 6.9-4.8 3.7-.5 4-.4 5 2.3 1.8 5 2.6 5.7 7 6.8 3.3.8 4.9 1.9 6 4.1 1.3 2.3 2.5 3 5.1 3.3a11 11 0 0 1 5.5 2.2c1 1 4 2.4 6.5 3 2.6.5 5.3 2 6.5 3.4 1 1.3 2.9 2.7 4 3s4 2.4 6.5 4.6c2.5 2.2 5.3 4.3 6.2 4.6s4.6 2.3 8 4.3a66 66 0 0 0 14.3 5.9c7.3 1.9 11.6 3.2 17 5.3 1 .5 4 1 6.5 1.3 13.2 1.6 33.6 10.5 26 11.3-.9.1-3.2-.3-5.2-1zm-132.8-51.8c0-.6-.5-1-1-1-.6 0-1 .7-1 1.6s.4 1.3 1 1c.5-.4 1-1.1 1-1.6zm9.8-4.2c-.4-2.9-3.8-3.8-3.8-1 0 2.2.8 3.2 2.7 3.2.9 0 1.3-.8 1-2.2zm395.8 56.3c-1.5-2.5.9-3.3 8.1-2.8 7.7.5 9 1 8 2.7-1 1.4-15.3 1.4-16.1 0zm56.1.3c-1-1.2-.6-2.3.9-2.3.8 0 1.5.4 1.5.9 0 1.3-1.6 2.2-2.4 1.4zm-108.1-1.4c-2.8-.4-7.6-.8-10.7-.9-5.7 0-8.3-1.5-5.7-3.2 1.7-1 33 0 34.3 1.2.4.4.6 1.5.2 2.4-.6 1.7-8.8 2-18.1.5zm24.1.4a4 4 0 0 1-.6-2c0-1.2.9-1.4 4.2-.8 5.3.9 6.4 1.5 4.6 2.6-1.6 1-7.2 1.1-8.2.2zm-482.3-1.4c-.8-1.3-1.6-.8 9-7 5-2.9 9.8-5.9 10.7-6.7 1.7-1.4 3.8-1 3.8.8 0 .6-1.2 1.5-2.7 2.2a84 84 0 0 0-7.8 4.3c-11.6 7.2-12.3 7.5-13 6.4zm196.6.1c0-1.4 5.6-5 7.7-5 1.4 0 1 .7-1.7 3-3.5 3-6 3.8-6 2zm-10.8-1.6c.4-2.1 8.5-8 9.5-7 .8.8-7.3 8.6-9 8.6-.4 0-.7-.8-.5-1.6zm26.8.6c0-1.6 3.8-3.2 4.6-2 .7 1.2-1.2 3-3.4 3-.6 0-1.2-.5-1.2-1zm108.8.2c-1.6-.2-2.8-1-2.8-1.8 0-1.3 2-1.5 11.8-1.2 9.4.2 11.7.5 11.7 1.7s-1.8 1.5-9 1.6c-5 0-10.2 0-11.7-.3zm66.8-.2c-1.4-2.1.8-3 7-3 5.6 0 6.6.2 6.3 1.6-.3 1.4-1.7 1.8-6.5 2-3.6.3-6.5 0-6.8-.6zm-105-1.2-13.8-1.4c-5-.4-6.8-1-6.8-2 0-1.3 1.7-1.5 10.8-1 12.5.5 21.2 1.5 21.2 2.5 0 1.1-2.3 3-3.4 3-.6-.2-4.2-.6-8-1zm18.1.5c-2.5-.7-1.7-3.8 1.2-4.2 3.5-.5 7.1.7 7.1 2.4 0 .8-.8 1.5-1.9 1.5-1 0-2.5.1-3.2.3a7 7 0 0 1-3.2 0zm62.5-1c.4-2.2 6.3-3 8.4-1.3 2.2 1.9.7 3-4.2 3-3.8 0-4.5-.3-4.2-1.8zm404 1c-3.9-.7-4.7-2.1-1.7-2.9 3.4-.9 7.3.1 8 2 .6 1.6-1 1.8-6.3.8zm-601.2-1.6c0-.7.9-1.8 2-2.5s2-2.3 2-3.6c0-2.6 3.4-6.4 4.4-4.8.3.5.3 1.7 0 2.7-.6 1.4-.4 1.5 1.4.6 5.4-3 4.1-.1-2.2 4.7-5.5 4.3-7.6 5-7.6 2.9zm77.3-2c.2-.7 1-1.2 1.7-1.2s1.5.5 1.8 1.2c.2.8-.5 1.3-1.8 1.3s-2-.5-1.7-1.3zm-8.3-1.3c-.7-.8-1-1.8-.7-2 1.1-1.2 5.7.6 5.7 2 0 2-3.4 2-5 0zm598.9-.2c-2.6-.4-2.8-.7-2.5-4 .2-3 .9-3.9 4-5.5 3.6-1.8 4-1.9 6.3-.3 1.5 1 3.4 1.4 5 1 1.4-.4 2.5-.3 2.5.3 0 1.6-4.6 5.3-6.7 5.3-1.2 0-2.3.8-2.6 2-.3 1-1.1 1.9-1.9 1.8a31 31 0 0 1-4.1-.6zm-75.1-5.6c.7-6.6-.9-8.4-3.9-4.3-3.7 5.1-10.2 2-9.6-4.5.3-3 .7-3.4 4-3.7a11 11 0 0 1 6.4 1.4c2.5 1.7 2.6 1.7 4-.4 2-2.8 3.3-2.7 4.5.3 1 2.8 2 3.1 3.7 1.3 1.5-1.4 11-2 11.8-.8.3.6-.5 1.5-1.9 2.2-1.8.8-2.4 1.8-2.3 3.7.1 2-.3 2.6-1.6 2.5-1.3-.1-1.7.6-1.7 2.8 0 3.6-4 6-6.6 3.8-1.1-1-1.8-1-2.7-.1a5 5 0 0 1-3 1.2c-1.5 0-1.7-.7-1.1-5.4zm5.4-1.7c1.1-2 .5-6-1-6-1.1 0-2 2.6-2 5.6 0 3 1.5 3.2 3 .4zM134 146.8c0-.4 1.8-1.8 4-3 2-1.2 5.5-3.7 7.7-5.6 4-3.7 6.3-4.5 6.3-2.2 0 1.5-15 11.7-17.4 11.7-.3 0-.6-.4-.6-.9zm148-.6c0-.9.7-1.5 1.4-1.5.8 0 2-.8 2.8-1.7 1.2-1.5 1-1.6-1.4-1-3.9 1-3.6-1.4.4-3.8 3-1.8 3.2-1.8 4.5 0 2 2.8 1.7 4-2 6.8-4 3-5.6 3.3-5.6 1.2zm43 .5c0-1.6 2.2-3.7 4.9-4.5 1.5-.5 2.2-.3 2.2.7 0 1.2-1.2 2-6.3 4.6-.4.2-.7-.2-.7-.8zm-19.7-1.2c.5-1.7 3.5-3.4 4.4-2.6 1 1-1.5 3.8-3.3 3.8-.8 0-1.3-.6-1.1-1.2zm9.8-.8c1-2 4-2.9 4-1.3 0 1.3-2.3 3.3-3.8 3.3-1 0-1-.5-.2-2zm-16-1c0-.6.6-1 1.5-1s1.5.4 1.5 1-.7 1-1.5 1-1.5-.5-1.5-1zm652.2-.7c0-1.3.2-1.4 1.5-.4.8.7 1.5 1.5 1.5 1.7 0 .2-.7.4-1.5.4s-1.5-.8-1.5-1.7zm49.5.7c-.8-1.4.3-3 2-3 2.3 0 2.7 1.8.6 2.9-1.3.7-2.2.7-2.6 0zm40.1-4.5c-.3-.9.3-2 1.4-2.5 1-.6 2.5-1.8 3.4-2.6 2.3-2.3 8.6-3.2 8.6-1.2 0 .9-1.4 2-3 2.6-1.7.6-4.3 2-5.7 3.1-3 2.4-4 2.5-4.7.6zm-814.4-1.6c-.3-.5 0-1.2.7-1.4l7.8-2.5c7-2.2 10-2.6 10-1.2 0 .5-3.7 2-8.3 3.5-9.7 3-9.3 3-10.2 1.6zm779-.6c-.7-.3-1.2-1.6-1.2-3 0-2 .5-2.4 3-2.4 2 0 3-.5 3-1.5 0-3 2.8-1.4 3.2 2 .3 2.8 0 3.5-1.7 3.8l-3.5 1c-.8.3-2 .4-2.8 0zm-752.4-1.2c0-1.5.8-1.8 6-2.5 4.3-.6 8.1.5 6.7 2-1.2 1.1-12.7 1.6-12.7.5zm807.5-6.1c-1.7-.3-4.3-1.6-5.8-2.8-2.2-2-2.4-2.6-1.4-4.4.6-1.2 2-2.3 3-2.6 1-.3 1.9-1.3 1.9-2.2a7 7 0 0 1 1.5-3.6 9.3 9.3 0 0 0 1.5-3.7c0-1 .6-1.8 1.4-1.8s2-.8 2.8-1.8 2-2.1 3-2.5c2.3-.8 3.5 3.5 2 7-.7 1.3-1.2 3.5-1.2 5s-1 4.2-2 6.3c-1.1 2.2-2 4.6-2 5.4 0 2-1 2.4-4.7 1.7zm-829-1c-.4-.6.5-1.6 2.1-2.2a48 48 0 0 1 18.4-.9c0 1.3-3.8 2.3-9.6 2.6a49 49 0 0 0-7.6 1c-1.5.3-3 .2-3.3-.5zm-107.6-.9a40 40 0 0 1 10.4-7.2c2 0 0 3-3.7 5.3-4.5 2.8-6.7 3.4-6.7 1.9zm-75.9-2c-1.3-2.4.4-5.4 1.9-3.2 1.2 2 1.3 5 0 5-.5 0-1.4-.8-1.9-1.8zm874 .8c-1-.7-1-1 .5-1.5 1-.4 2.2-.3 2.8.3 1.3 1.3-1.4 2.3-3.2 1.2zm5.9-3.4c-3.2-4-3.5-6.6-.8-6.6 2 0 7 6.3 7 8.8 0 2.4-3.5 1.2-6.2-2.2zm-844 1.5c0-.6 1-1.5 2.3-2.2s4.5-3.5 7.4-6.4a43.9 43.9 0 0 1 15.6-10.5c2 0 .2 2-3.7 4.1-2.6 1.4-4.7 3.3-5 4.5-.3 1.2-2 3.2-3.8 4.3L90 123c-3.7 2.7-6 3.3-6 1.7zm139.6 0c-.8-1.3 1.6-2.7 7.2-4.1 5-1.3 7.6-.9 5.7 1-1.4 1.3-12.4 4-13 3zm858-5.6c.3-6.4 1.3-8.4 4.3-8.5 1.6 0 4.4-3.4 4.4-5.4 0-1.4-.6-1.6-3.5-1-3 .6-3.5.4-3.5-1.4 0-2.8 8.2-6 10.5-4.2 1 1 1.2 1.7.4 3.1-.5 1.1-.8 2.8-.4 3.8.3 1-.2 2.6-1 3.7-.8 1-1.5 2.8-1.5 4 0 2.7-2.3 8.8-3.9 10.8-.7.9-2.4 1.6-3.7 1.6-2.2 0-2.3-.2-2-6.5zm-329.3 2.8c-3.8-2-5.2-4.3-2.5-4.3 4 0 9.4 2.4 9.4 4.2 0 2.3-2.5 2.4-7 0zm-715.7-5a13 13 0 0 1-.6-5c0-2.4-.7-5.6-1.4-7.1-1.5-3-.5-6.6 1.2-4.7 3.6 4 4.4 20.4.8 16.8zm392.9-1.7c-.9-2.3-.3-2.6 6.8-4.2 8.3-1.7 10.8-1.7 10.8 0 0 1-2 2.1-5.2 3-9.9 2.8-11.7 3-12.4 1.2zm-248.5-2c0-.7 1.2-1.7 2.7-2 4.7-1.2 4.3 1.4-.4 2.9-1.6.5-2.3.2-2.3-.8zm9.5-1.6 1-1c.3 0 .5.5.5 1 0 .6-.4 1-1 1s-.8-.4-.5-1zm-100.5-1c-1.2-.8-1-1.5 2-4 2-1.6 4.2-3 5.1-3 1 0 2.8-.9 4.2-2 3.3-2.6 4.7-2.5 4.7.3 0 1.8-1 3-3.7 4.3-2.1 1-4.5 2.4-5.3 3-2.4 1.9-5.4 2.4-7 1.4zm360.7.1c-1-1.6.2-3 2.5-3 1.1 0 3-.6 4-1.1 1.1-.6 3.5-1 5.2-.7l3.2.3-4.5 2.1c-6 3-9.6 3.7-10.4 2.4zm-425-1.3c-.3-1.1.8-8.3 1.8-11.5.5-1.6 3.5-.5 3 1-1.7 5.8-1.6 6.7 1.2 7.8l2.8 1-2.5 1.5c-3.1 1.7-5.7 1.8-6.3.2zm151.2-.8c2.6-2.2 4.7-2.5 5.6-1 .8 1.2-2.7 3-5.7 3h-2.3zm530.6 1c-1.7-.6-3.4-1.7-3.7-2.5-.8-2 2.1-3.1 4.5-1.6a12 12 0 0 0 5.1 1.1c3.9 0 6.3 1.3 5.4 2.9-.8 1.3-6.8 1.3-11.3 0zm-555-1c-.3-.5 0-1.2.7-1.4l6.1-2.2c2.6-.9 5-1.4 5.4-1.1 1.1 1.1-.8 2.7-4.8 3.7l-5.3 1.6c-.8.3-1.7 0-2-.5zm316.1-3c-1-1.7 2.2-4.8 5.9-5.5 1.7-.4 5-1.8 7.5-3.1 5-2.8 11.1-3.3 11.1-.9 0 .9-1 2-2.4 2.5s-5.4 2.3-9 4c-8 3.7-12 4.7-13 3zm-448.2-1.5c-.4-.9-.2-2.8.5-4.2 1.5-3.4 0-5.1-4.7-5.5-3.4-.3-3.7-.6-4-3.8-.2-2-1.2-4.2-2.3-5-2.8-2.2-3.5-7.3-1.4-9.4a5 5 0 0 1 3.9-1.4c1.7.2 2.2 1.2 2.6 5 .3 2.5 1.2 5.3 1.9 6.2 1.7 2 4.7 2 5.4 0 1.3-3 9.7-.1 9.7 3.5 0 2.5-1.5 4.1-3.6 4.1-1.6 0-2.4.6-2.4 1.7 0 2.8-2.7 9.7-4 10.1-.5.2-1.3-.4-1.6-1.3zm63.6.1c0-.7.9-1.6 2-1.9 2.3-.6 2.6.3.8 2.1-1.6 1.6-2.8 1.5-2.8-.2zm61.2.2c.6-1.6 13.6-5.9 14.4-4.7.8 1.4.8 1.4-6 3.8s-9 2.6-8.4 1zm537.2.6c-2.4-1-1.2-3.1 2.3-3.7 4.4-.7 6.7 0 6.3 2.2-.3 1.6-6 2.6-8.6 1.5zm392.4-.4c-.8-1.3.4-3.2 1.6-2.5 1.2.8 1.2 3.5 0 3.5-.6 0-1.3-.4-1.6-1zm31-2.2c-5.7-3-6.5-6-1.9-7.2a6 6 0 0 1 4.9 1.1c3 2.1 3.1 3.5.8 5.6-1.4 1.2-2.3 1.3-3.8.5zm11 .3c-.2-.5.2-1.1 1-1.5.8-.3 1.5-1.2 1.5-2 0-1.8-1.5-2.1-2.5-.6-1.3 2.2-2.5.8-2.5-3 0-4.7 1.2-5.6 5-4 2.3 1 2.9 1.9 3.2 5.2.2 2.6-.1 4.6-1 5.4-1.5 1.6-3.8 1.8-4.6.5zm-453.4-1.1a3.4 3.4 0 0 1-2.2-3c0-1.4.4-1.9 1.2-1.3.7.4 3.3 1 5.8 1.3 3 .3 4.5 1 4.5 2 0 1.8-5.8 2.4-9.3 1zm-15-3.4c-4.1-1.5-5.6-3-4.9-5 .8-2 6.3-2.1 7.4-.2.4.7 1.7 1.5 2.8 1.7 1.1.3 2.1 1.4 2.3 2.7.2 1.8-.1 2.2-2 2a24 24 0 0 1-5.6-1.2zm476.9-1.2c-2.3-5.9-1.3-7.4 7.3-11.6 4.4-2.2 7.7-1.1 7.7 2.6 0 2.3-2.7 5.6-4.6 5.6-.5 0-2.5 1.3-4.4 3-4.3 3.6-4.8 3.7-6 .4zm-985.3.7c0-1.5 3.1-3 8-3.7 3.3-.5 4.1-.4 3.6.5-1.4 2.2-11.6 5-11.6 3.2zm449 .3c-.8-.8 0-2.4 1.3-2.4.5 0 1 .7 1 1.5 0 1.5-1.2 2-2.3.9zm-87.8-1.1c-6-1.1-4.7-4.2 1.6-3.5 2.5.3 3.4.9 3.2 2-.3 1.8-1.3 2-4.8 1.5zm11.4-.8c-.8-2 .3-4.5 2-4.5s3.1 3.4 2.1 5c-.9 1.5-3.4 1.2-4.1-.5zm10.9-.2c-1.8-.7-1.5-5 .4-5.7 2.2-.9 3.6.6 3.2 3.5-.4 2.4-1.5 3-3.6 2.2zm13.8-.8c-1.6-1.9-1-4.9 1.1-5.3 1.9-.4 3.2 2.7 2.3 5.2-.8 2-1.8 2-3.4.1zm520.5.4c-1-1.7 1.3-3.6 2.7-2.2 1.2 1.2.4 3.3-1.1 3.3-.5 0-1.2-.5-1.6-1zM662.6 94c-.3-.8-.1-2 .5-2.6 1.4-1.5 4.3-.2 3.6 1.6-.8 2.1-3.4 2.8-4 1zm-108.1-.4c-3.4-1.4-2.7-3 1.3-3 2.8 0 3.5.4 3.3 1.7-.4 2-1.7 2.4-4.6 1.3zm510-2.9c-2.5-2-3-3-2.1-3.6.8-.5 1.8-.1 2.6 1 1.2 1.7 1.4 1.6 2.3-.6l2-6.4c1.1-4.3 5.3-9.5 7.5-9.5.8 0 2 .7 2.6 1.5.7.8 2 1.5 2.7 1.5 2.2 0 1.1 3.3-1.5 4.5-1.8.8-2.1 1.5-1.6 3.8a13 13 0 0 1-.6 5.8c-1 2.2-1.9 2.9-4 2.9-1.6 0-3.2.4-3.5 1-1 1.6-2.8 1.1-6.4-1.9zm-881.4.9c0-.6.5-1 1-1 .6 0 1 .4 1 1s-.4 1-1 1a1 1 0 0 1-1-1zm381.3-.6c.5-2.1 2.3-2.3 2.7-.2.2 1.1-.3 1.8-1.3 1.8s-1.6-.7-1.4-1.6zm-397.8-.4c-.8-1.3 2-2.4 4.1-1.6 2 .7.9 2.6-1.6 2.6-1 0-2.1-.5-2.5-1zm404.2.2c-.3-.3-.5-1.3-.5-2.2 0-1.3 1.3-2 4.7-2.8 2.6-.6 7.4-2.1 10.7-3.5 3.2-1.4 6.5-2.3 7.2-2 2 .8 1.6 4-.7 5.3a61.7 61.7 0 0 1-21.4 5.2zm52.7-2c-4.4-2.8-6.3-6.5-4.3-8.5 1-1 1.6-.7 2.9.8a22 22 0 0 0 4.9 4c4 2.4 5.3 6.7 1.9 6.4-.6 0-3-1.3-5.4-2.7zM156.1 86a29 29 0 0 0-4.3-2c-2.4-.7-1.2-2.5 1.7-2.5 2.8 0 6.6 2.6 6.6 4.5 0 1.8-.6 1.8-4 0zm224.3-1.4c-3.5-2.1 2.7-6.1 9.4-6.1 6.4 0 4.7 3.6-2.3 4.7-2 .3-4.3 1-4.8 1.4-.6.4-1.6.4-2.3 0zM611 83.1c-.2-.2-2.9-.6-5.9-.7-4-.2-5.4-.7-5.4-1.8 0-.8.9-1.5 2-1.6a18 18 0 0 0 5.1-1.3c4.5-1.8 7.8-1.1 8.2 1.8.4 2.7-2.4 5.2-4 3.6zm488.4-2-2.3-2.5 3-3.8a47 47 0 0 0 6.2-9.7c0-.3-.7-.5-1.5-.5s-2.6 1.8-4 4c-2.5 4-5.8 5.3-6.8 2.6-.7-1.8 9.9-12.6 12.3-12.6 1.1 0 2.7-1.2 3.6-2.5 1-1.4 2.4-2.5 3.4-2.5a75 75 0 0 0 14-15.9c.3-.5 3.2-1.8 6.5-2.9 5.6-1.8 6.3-2.4 9.6-7.8 2.7-4.5 4.3-6 6.5-6.5a35 35 0 0 0 16.6-9.3c2.6-2.6 5.4-4.7 6.2-4.7s3.9-1.5 6.7-3.2c4.7-3 6-3.3 12.9-3.3h7.5v7c0 6.4-.1 7-2 6.9a13 13 0 0 1-3.6-.8c-1.1-.5-1.8 0-2.1 1.3-.3 1.1-2.1 2.7-4.1 3.5-2.6 1-3.8 2.3-4.2 4.3-1.2 5.5-1.6 6.3-4.4 9.3-2.3 2.5-3.4 3-5.8 2.4-4-.8-9.7 3-11.9 8-3.3 7.2-7.1 7.4-14.3.6-5-4.8-7-5.5-7-2.3 0 .8-.6 2.5-1.3 3.7a17 17 0 0 0-1.4 5.5c-.2 1.8-.8 4-1.4 4.7-1.8 2.2-4 1.7-4-.8 0-1.3-.5-2.9-1.1-3.5-2-2-3.9-.2-3.9 3.4 0 5.2-3.4 11.1-7.4 12.8-1.8.7-3.7 1.9-4 2.5-.5.7-1.9 1-3.7.6-2.4-.6-2.9-.4-2.9 1.3 0 1-.6 2.5-1.5 3.2-.8.6-1.7 2.7-2 4.6-1 4.8-3.4 5.9-6.4 2.8zm13.4-15.5c.4-.6.2-1-.4-1-.6 0-1 .4-1 1 0 .5.1 1 .4 1 .2 0 .7-.5 1-1zm56.5-37.2c0-2.4-2.3-2-2.8.5-.2 1 .3 1.6 1.3 1.6.9 0 1.5-.8 1.5-2zm5.3-1.5c.3-.3.4-1.2 0-2-.3-1-1-1-2.4-.3-1 .5-1.9 1.4-1.9 2 0 1 3.3 1.3 4.3.3zm11.7-16.4c0-.5-.6-1-1.5-1-.8 0-1.5.5-1.5 1 0 .6.7 1 1.5 1 .9 0 1.5-.4 1.5-1zM25.2 77.8a15 15 0 0 1-3.6-9.7c-.2-6.4-.2-6.3-2-4-1.4 1.9-1.5 1.9-2.8.2-1.3-1.7-1.5-1.6-2.8.4-1.8 2.7-4 2-9.3-2.7C-.1 57.7.9 56.1 7 58.2c2.4.8 4.6 1.3 4.9 1 .3-.4-1-3.6-2.7-7.4-4.6-9.8-4.5-9.7-6.9-10.7-2.8-1.3-3.2-7.6-.4-7.6 1 0 2.3 1 3 2 .8 1.3 2.4 2 4.5 2.1 8.9.3 11 3 9.7 12.4-1 6.7-.5 7.5 4.7 7.5 1.8 0 3.4.7 3.7 1.6.9 2.2 3.5 1.8 10-1.6 6.2-3 10.1-3.8 9.4-1.7-.2.6-1.6 1.5-3 1.9-1.5.3-5.2 2-8.2 3.8-6.3 3.7-7.3 5.9-5.7 12.5 2.5 9.7.6 11.2-4.8 3.8zM16 47.6c.2-1.5-.1-2.1-1-1.8-.8.2-1.5 1.4-1.7 2.7-.2 1.5.1 2.1 1 1.8.7-.2 1.5-1.4 1.7-2.7zm-4.4-2c.4-.6.2-1-.4-1s-1 .4-1 1 .1 1 .4 1 .7-.5 1-1zM397 78.8c-1.4-1.4-.5-4.4 1.6-5.2a109 109 0 0 1 13.8-2c18-1.9 19.9-2.2 20.5-3.2 1-1.5 4.6-1 6.6.7 3.2 3 10.3 2 20.7-3 2-.9 2.5-.8 3.3.7.5.9 1.5 1.7 2.2 1.7 1.4 0 5.7 4 5.7 5.3 0 1.2-3 .7-5.6-1-2.2-1.4-3-1.5-6.7-.3-8 2.5-41 3.9-43.5 1.8-.8-.7-1.9-.5-3.4.6a11 11 0 0 1-5.3 1.6c-1.7 0-4.2.7-5.5 1.5-3 1.6-3.5 1.7-4.4.8zm87.2-1.2c-1.7-1.5-2-2.3-1.2-3.1.9-.9 1.7-1 3.2-.1 1.1.6 3 1 4.1 1 1.4 0 2 .7 2 2 0 2.8-4.8 2.8-8 .2zm80.8-6c-.9-1.4.3-3.9 2.2-4.6 2-.8 4.3 2 3.5 4-.6 1.6-4.9 2-5.7.6zm-36-5.7c.7-.3 1.6-.3 2 0 .3.4-.3.6-1.4.6-1.2 0-1.4-.3-.6-.6zm7.8-.2c-.3-.5 1.2-1.4 3.4-2 3.1-.7 4-.6 4 .4 0 2.2-6.2 3.5-7.4 1.6zM31.4 43.8c-4.6-.4-6.2-3.2-2-3.4 8.8-.3 14 1.2 10.7 3.2-.8.5-2.1.8-3 .8l-5.7-.6zm12.2-1.3c-.4-.6 0-1.6.7-2 1.6-1 2.5.8 1 2.2-.6.7-1.2.6-1.7-.2zM1142 6.5c-.3-.6.1-1.3 1-1.6 2-.8 3 0 2 1.5-.8 1.4-2.2 1.4-3 .1zm18.8-2.7c1-.2 2.5-.2 3.5 0 1 .3.2.5-1.8.5s-2.7-.2-1.7-.5z"/>
</svg>
