<?xml version="1.0" encoding="utf-8"?>
<svg xmlns="http://www.w3.org/2000/svg" version="1.0" viewBox="0 0 1469 205">
	<title>Four bars of musical notation on the treble clef, in the key of C, and labeled with a tempo of Valorosissimo.</title>
	<path d="M0 57.093h1468.5M0 81.897h1468.5M0 106.7h1468.5M0 131.5h1468.5M0 156.31h1468.5" fill="none" stroke="#000" stroke-linejoin="bevel" stroke-width="2.6755"/>
	<path d="M1208.3 153.83c30.09 33.02 95.92 39.221 131.66 12.401-36.39 33.734-102.22 27.534-131.66-12.401" fill-rule="evenodd" stroke="#000" stroke-linecap="round" stroke-linejoin="round" stroke-width="1.74"/>
	<path d="M502.7 63.294c25.856-31.761 103.43-31.761 129.28 0-25.856-24.816-103.43-24.816-129.28 0" fill-rule="evenodd" stroke="#000" stroke-linecap="round" stroke-linejoin="round" stroke-width="1.4503"/>
	<path d="M430.45 55.729v101.94m363.86-101.94v101.94m363.39-101.94v101.94m240-101.94v101.94m13.7-101.94v101.94" stroke="#000" stroke-linejoin="bevel" stroke-width="4.46"/>
	<path d="M486.29 85.23v80.377M622.06 85.23v83.478m118.5-52.778V38.494M1223 128.33V47.794m131.7 92.936V57.093M188.02 103.52V29.185" stroke="#000" stroke-linejoin="bevel" stroke-width="2.73"/>
	<path d="M188.4 98.67c-1.7828-3.2865-5.5497-5.0691-10.123-5.0691-3.3639 0-7.038.99213-10.619 2.8833-6.5419 3.4725-10.51 9.3167-10.51 14.386 0 1.3797.29454 2.7748.99213 4.0615 1.7827 3.271 5.5497 4.9606 10.123 4.9606 3.364 0 7.0379-.88359 10.619-2.7749 6.5418-3.4724 10.51-9.3322 10.51-14.386 0-1.3952-.29457-2.7749-.99213-4.0615M516.17 73.821c-1.7828-3.2709-5.5497-5.0537-10.123-5.0537-3.3639 0-7.0379.99212-10.619 2.8678-6.5419 3.4725-10.51 9.3322-10.51 14.386 0 1.3952.2945 2.7904.9921 4.077 1.7828 3.2864 5.5497 4.9762 10.123 4.9762 3.364 0 7.0379-.89916 10.619-2.7749 6.5418-3.488 10.51-9.3477 10.51-14.417 0-1.3797-.2946-2.7748-.9921-4.0615m-4.2631 6.7434c-1.6897 1.6897-5.0691 3.767-8.6346 5.7667-3.5654 1.9843-7.1464 3.4724-9.5182 3.9685-.496.10852-.9921.20153-1.4882.20153-1.5967 0-2.7903-.58908-3.4724-1.8912-.31-.49607-.4961-1.0851-.4961-1.6897 0-1.0851.6821-2.3873 1.7828-3.4724 1.6897-1.6897 4.9606-3.767 8.5261-5.7512 3.5809-1.9842 7.1463-3.4724 9.5337-3.9685.4961-.10851.9921-.20152 1.4882-.20152 1.5811 0 2.8678.58907 3.5654 1.8757.2946.49606.4031 1.1006.4031 1.6897 0 1.1006-.6046 2.2788-1.6898 3.4724M651.95 73.867c-1.7828-3.2865-5.5497-5.0691-10.123-5.0691-3.3639 0-7.0379.99213-10.619 2.8833-6.5419 3.4725-10.51 9.3167-10.51 14.386 0 1.3797.2945 2.7748.9921 4.0615 1.7828 3.271 5.5497 4.9606 10.123 4.9606 3.364 0 7.0379-.88359 10.619-2.7749 6.5418-3.4724 10.51-9.3322 10.51-14.386 0-1.3952-.2946-2.7749-.9921-4.0615m88.99 37.2031c-1.7828-3.2865-5.5497-5.0691-10.123-5.0691-3.3639 0-7.0379.99213-10.619 2.8833-6.5419 3.4725-10.51 9.3167-10.51 14.386 0 1.3797.2945 2.7748.9921 4.0615 1.7828 3.271 5.5497 4.9606 10.123 4.9606 3.364 0 7.0379-.88359 10.619-2.7749 6.5418-3.4724 10.51-9.3322 10.51-14.386 0-1.3952-.2946-2.7749-.9921-4.0615"/>
	<path d="M870.49 140.73V57.093" stroke="#000" stroke-linejoin="bevel" stroke-width="2.73"/>
	<path d="M870.86 135.87c-1.7828-3.2865-5.5497-5.0691-10.123-5.0691-3.3639 0-7.038.99213-10.619 2.8833-6.5419 3.4725-10.51 9.3167-10.51 14.386 0 1.3797.29454 2.7748.99213 4.0615 1.7827 3.271 5.5497 4.9606 10.123 4.9606 3.364 0 7.0379-.88359 10.619-2.7749 6.5418-3.4724 10.51-9.3322 10.51-14.386 0-1.3952-.29456-2.7749-.99212-4.0615"/>
	<path d="M945.79 165.53V81.894" stroke="#000" stroke-linejoin="bevel" stroke-width="2.73"/>
	<path d="M946.17 160.68c-1.7828-3.2865-5.5497-5.0691-10.123-5.0691-3.3639 0-7.038.99213-10.619 2.8833-6.5419 3.4725-10.51 9.3167-10.51 14.386 0 1.3797.29454 2.7748.99213 4.0615 1.7827 3.271 5.5497 4.9606 10.123 4.9606 3.364 0 7.0379-.88359 10.619-2.7749 6.5418-3.4724 10.51-9.3322 10.51-14.386 0-1.3952-.2945-2.7749-.9921-4.0615M1223.4 123.47c-1.7827-3.2865-5.5496-5.0691-10.123-5.0691-3.3639 0-7.038.99213-10.619 2.8833-6.5418 3.4725-10.51 9.3167-10.51 14.386 0 1.3797.2945 2.7748.9921 4.0615 1.7827 3.271 5.5497 4.9606 10.123 4.9606 3.364 0 7.038-.88359 10.619-2.7749 6.5418-3.4724 10.51-9.3322 10.51-14.386 0-1.3952-.2946-2.7749-.9922-4.0615M1355.1 135.87c-1.7827-3.2865-5.5496-5.0691-10.123-5.0691-3.3639 0-7.038.99213-10.619 2.8833-6.5418 3.4725-10.51 9.3167-10.51 14.386 0 1.3797.2945 2.7748.9921 4.0615 1.7827 3.271 5.5497 4.9606 10.123 4.9606 3.364 0 7.038-.88359 10.619-2.7749 6.5418-3.4724 10.51-9.3322 10.51-14.386 0-1.3952-.2946-2.7749-.9922-4.0615M103.15 125.63c-1.2247-5.3792-3.8445-9.1772-4.6196-10.2-3.1624-4.2476-7.1464-7.0689-11.797-8.4176-3.0849-.86811-6.0613-.99213-8.464-.8061-1.0386-5.9682-2.0308-11.797-2.9299-17.207 5.4103-6.1232 9.0067-11.874 11.27-16.138 3.4415-6.5263 4.5731-11.068 4.6351-11.27 1.7052-5.1776 2.0617-12.82.96107-20.959-.99213-7.4874-3.0693-14.153-5.4102-17.377-1.0076-1.4108-2.0617-2.14-3.0849-2.14-1.2091 0-3.7049 1.2253-6.5728 3.9844-2.2787 2.1698-5.5187 6.0301-8.061 11.998-2.9764 7.0069-3.1934 16.417-2.8368 23.083.37204 7.2239 1.4726 12.867 1.4882 12.913.0155.093.27899 1.5812.71305 4.1235-.21698.23255-.46501.44963-.71305.69766-1.0232.99212-2.2013 2.1083-3.581 3.4879-.85263.85263-1.7982 1.7517-2.7904 2.7129-8.3711 8.0765-21.067 20.308-21.067 39.313 0 4.6661.89911 9.0532 2.6663 13.037 1.5657 3.5654 3.8445 6.8209 6.7589 9.6732 7.6735 7.503 18.184 10.681 25.175 10.526 2.9298-.0775 5.5498-.31004 7.9215-.75957 1.8137 9.5336 2.9453 16.51 2.9764 21.811.0465 6.4644-1.5967 10.417-5.4567 13.161-2.4183 1.7206-5.2087 2.6663-8.2781 2.8058-2.5733.12402-4.821-.34109-6.2317-.74409h-.0155s-.27908-.0931-.29456-.27909c-.0155-.18602.34099-.23245.34099-.23245h.0311c1.9068-.43406 5.4412-1.6587 7.7819-4.9297 1.7828-2.5113 2.6509-7.0998.82168-11.006-1.1007-2.3719-3.581-5.3017-9.1617-5.7512-2.4803-.2015-4.7281.31004-6.7123 1.5037-1.7982 1.0696-3.2864 2.6974-4.3251 4.6816-2.4338 4.6661-1.9842 10.355 1.1161 14.169 2.9453 3.5964 7.5184 5.8908 12.913 6.4643.85263.0931 1.6897.12402 2.5268.12402 4.4026 0 8.7586-1.1936 12.309-3.3794 3.6275-2.5578 5.7358-6.5108 6.4024-12.092.55807-4.6041.17044-10.479-1.2092-18.494-.35657-2.0773-.89906-5.0846-1.5502-8.8051 5.7047-1.9068 9.8283-5.4567 13.564-11.27 3.2709-5.6892 4.2011-11.751 2.7904-18.013m-33.949 26.012c-4.6041-1.2092-9.0066-3.6895-12.727-7.1774-1.3022-1.2091-3.1624-3.3639-4.6195-6.7279-1.3487-3.1469-2.0153-6.5573-1.9533-10.107.062-4.6661 1.3642-9.4562 3.8445-14.2 2.8989-5.5342 7.4255-11.022 13.44-16.308 1.4417-1.2711 2.8058-2.5423 4.077-3.8134.75957 4.232 1.5812 8.8826 2.4493 13.719-3.8134 1.2556-8.526 4.3871-11.611 9.9987-3.519 6.5109-3.3795 11.999-2.6509 15.456.93012 4.4181 3.4415 8.154 6.8674 10.231.93012.55807 5.0226 2.6663 6.8518 2.0928.37205-.10854.63566-.34109.77515-.66661.51154-1.1627-.51154-1.7982-2.0463-2.7439-.6046-.37205-1.2712-.7906-1.9842-1.3177-3.3019-2.4648-4.7436-6.8829-3.6739-11.239.57354-2.3718 1.8447-4.5266 3.6739-6.2163 1.6432-1.5347 3.6739-2.6199 6.0302-3.2554 2.0308 11.161 4.077 22.23 5.7047 30.523.12402.68209.26351 1.3486.38753 2.0152-4.3406.93012-8.65.83716-12.836-.26351m11.239-32.942c10.262-.46501 14.494 6.9139 15.378 11.704.46501 2.5268.46501 6.9294-1.0697 11.115-1.1626 3.1468-3.5965 7.1929-8.6966 9.2392-.062-.41857-.13949-.85263-.21698-1.2712-1.5347-8.7121-3.457-19.625-5.3947-30.787m-7.2705-70.394c1.7673-5.6892 4.4801-8.9137 6.4644-10.634 1.7362-1.5038 3.3639-2.2168 4.2785-2.2168.13949 0 .26351.031.35647.062.46511.13949.99213.69756 1.4572 1.5657 2.2943 4.2476 1.5502 10.913.21697 15.316-1.6122 5.3637-4.511 10.929-13.239 20.463-.17055-1.1007-.32552-2.1392-.48058-3.1159-1.2402-8.2161-.91465-15.44.94559-21.439M1231 10.712C1221.6833.589 1213.436 0 1208.29 0c-5.1621 0-13.301.58912-22.633 10.712-4.8521 5.3636-8.2315 15.967-8.2315 21.331 0 1.8912.403 3.1779 1.3951 3.1779 2.7749 0 1.3797-8.5416 9.7197-16.975 7.3326-7.3324 17.161-7.4409 19.548-7.4409h.3875c2.3873 0 12.216.10854 19.548 7.4409 8.3401 8.4331 6.9449 16.975 9.7197 16.975.9922 0 1.3952-1.1936 1.3952-3.1779 0-5.3637-3.2709-16.076-8.1385-21.331m-29.562 18.943c0 3.7825 3.0694 6.8519 6.8519 6.8519 3.767 0 6.8363-3.0694 6.8363-6.8519 0-3.767-3.0693-6.8364-6.8363-6.8364-3.7825 0-6.8519 3.0694-6.8519 6.8364"/>
	<path d="M1021.1 140.73V57.093m89.9 58.837V38.494" stroke="#000" stroke-linejoin="bevel" stroke-width="2.73"/>
	<path d="M1021.5 135.87c-1.7828-3.2865-5.5497-5.0691-10.123-5.0691-3.3639 0-7.0379.99213-10.619 2.8833-6.542 3.4725-10.51 9.3167-10.51 14.386 0 1.3797.2945 2.7748.9921 4.0615 1.7828 3.271 5.5497 4.9606 10.123 4.9606 3.364 0 7.0379-.88359 10.619-2.7749 6.5418-3.4724 10.51-9.3322 10.51-14.386 0-1.3952-.2946-2.7749-.9921-4.0615m89.9-24.7999c-1.7828-3.2865-5.5497-5.0691-10.123-5.0691-3.3639 0-7.0379.99213-10.619 2.8833-6.5419 3.4725-10.51 9.3167-10.51 14.386 0 1.3797.2945 2.7748.9921 4.0615 1.7828 3.271 5.5497 4.9606 10.123 4.9606 3.364 0 7.0379-.88359 10.619-2.7749 6.5418-3.4724 10.51-9.3322 10.51-14.386 0-1.3952-.2946-2.7749-.9921-4.0615"/>
	<path d="m1019.7 51.326 92.66-19.167v12.664L1019.7 63.99V51.326m92.7-.565-32.25 6.67v12.664l32.25-6.669V50.761" fill-rule="evenodd"/>
	<path d="M360.14 66.32v89.986" stroke="#000" stroke-linejoin="bevel" stroke-width="2.73"/>
	<path d="M360.51 61.465c-1.7828-3.2865-5.5497-5.0691-10.123-5.0691-3.3639 0-7.0379.99213-10.619 2.8833-6.5419 3.4725-10.51 9.3167-10.51 14.386 0 1.3797.2945 2.7748.9921 4.0615 1.7828 3.271 5.5497 4.9606 10.123 4.9606 3.364 0 7.0379-.88359 10.619-2.7749 6.5418-3.4724 10.51-9.3322 10.51-14.386 0-1.3952-.2946-2.7749-.9921-4.0615m-1.79 95.6051c0 .68209.31 1.2402 1.4572 1.2402 1.1471 0 1.3642-.51157 1.4727-1.2402 0 0 1.5502-10.541 5.3326-16.045 3.7981-5.5031 9.9523-8.6191 14.742-14.742 3.488-4.4336 4.7282-9.7508 4.8211-14.928.093-4.9297-.8681-9.7043-1.9377-13.502.341-2.0928.527-4.5111.527-7.3324 0-5.6272-2.5578-10.991-4.387-13.828-.4651-.7441-.9766-1.7982-2.0153-1.2556-1.0386.5425-.5735 1.7517-.248 2.6818 1.4572 3.9995 2.1237 9.0221 2.2013 11.502.1395 3.953-.1705 7.813-4.139 13.75-5.9373 8.8671-13.797 13.797-16.37 14.742-.6666.23255-1.4572.71304-1.4572.94559v38.011m23.315-51.063c.3411 4.7746.4031 9.5492-5.1931 16.354-3.767 4.5576-9.8283 9.0687-14.277 9.4252l-.1085.41857c.062-.34099.124-.63555.186-.86811.6511-2.5268 2.4803-5.9837 6.3558-9.8902 4.8831-4.8986 7.8285-8.0301 10.51-11.518.7905-1.0232 1.9222-2.7749 2.5267-3.922M623.18 169.11c0-.20152.8991-3.581.9921-3.8755.093-.40305 1.8913-6.0458 5.5497-11.704 2.6819-4.17 12.107-16.37 11.812-16.37 0 0 7.348-9.4252 7.8441-22.23v-2.2788c0-6.0613-.7906-14.587-4.2786-23.222-.3876-.99212-.7906-1.9842-1.8758-1.5812-1.1005.38753-.7905 1.5812-.496 2.6663 1.7827 6.9604 2.7748 14.091 2.7748 21.238 0 8.3401-2.9763 12.51-4.7591 15.58-6.5572 11.006-15.083 16.37-19.253 17.765-.4961.2015-.7906.58912-.7906 1.0852v22.431c0 .68208.5891 1.2867 1.2867 1.2867.496 0 1.1006-.40306 1.1936-.79061M153.79 196.6l-5.7512-14.623c-.2167-.58472-.3301-.98056-.3301-1.1972 0-.65048.6505-.90513 2.2441-.90513h.7639v-1.9521h-13.106v1.9521c2.1307 0 2.7154.43326 3.5451 2.4982l8.7966 22.232h3.1867l8.297-20.129c1.1501-2.8662 2.7818-4.3844 4.9879-4.6011v-1.9521h-10.673v1.9521c2.3479.0374 3.5077.82971 3.5077 2.4608 0 .43386-.1038.8297-.3205 1.3764l-5.1483 12.888m27.889-4.0538c0-2.3576-.4338-3.4793-1.6968-4.5257-1.339-1.0469-3.5831-1.631-6.4493-1.631-4.997 0-8.25 1.8477-8.25 4.6668 0 1.5653 1.2255 2.7154 2.9326 2.7154 1.6968 0 2.9695-1.0089 2.9695-2.3479 0-.43325-.1787-.94254-.5087-1.3764-.3301-.43386-.3301-.43386-.3301-.61307 0-.62213 1.1972-1.1592 2.649-1.1592 2.2067 0 3.0081.90513 3.0081 3.4413v1.876c-.1889.038-.9052.21662-2.2538.50928-2.2435.47127-3.0732.6879-4.6288 1.2352-3.3665 1.1218-4.8184 2.64-4.8184 5.0253 0 2.6774 2.0275 4.2426 5.5817 4.2426 3.1112 0 4.9879-.6885 6.911-2.5742.613 1.6316 1.9894 2.5742 3.8377 2.5742 2.0649 0 3.9784-1.4518 3.9784-3.0074 0-.36809-.1787-.58472-.5371-.58472-.2172 0-.4339.0754-.7259.25465-.3301.21662-.4339.25464-.6885.25464-.7917 0-.9806-.47187-.9806-2.6026v-6.3733m-5.6757 3.0074v2.0269c0 2.7818-1.2733 4.554-3.3376 4.554-1.4144 0-2.3195-.9709-2.3195-2.4891 0-1.9611 1.1314-3.0455 3.7334-3.6579l1.9237-.43386m18.592-18.178-8.6928.5467v1.8386h.6885c2.2157 0 2.3569.18887 2.3189 3.3755v17.66c-.037.50868-.075.72591-.2166.94254-.2547.33007-.9426.47127-2.5362.47127h-.1412v1.8483h11.295v-1.8483h-.2546c-2.1681-.0754-2.4608-.25464-2.4608-1.5556v-23.279m14.558 9.0139c-5.7609 0-10.032 3.9126-10.032 9.1641 0 5.2425 4.1678 9.0513 9.881 9.0513 5.7234 0 9.9564-3.8372 9.9564-9.0229 0-5.1387-4.3084-9.1925-9.8055-9.1925m-.076 1.8857c1.2636 0 2.4234.86711 2.8946 2.1307.4339 1.1972.7259 3.2247.7259 5.1478 0 4.5914-1.3009 7.1656-3.6579 7.1656-2.4233 0-3.6585-2.4233-3.6585-7.203 0-4.8183 1.2352-7.241 3.6959-7.241m19.97-1.339-8.0707.25464v1.8386h.5467c2.2441.0374 2.3479.18827 2.3099 3.5167v8.25c-.028.50868-.066.72591-.2167.94254-.245.33007-.9335.47127-2.4987.47127h-.1412v1.8483h12.097v-1.8483h-.8013c-2.4233-.0374-2.7154-.21663-2.7154-1.5556v-2.5362c.1509-5.3554 1.6685-8.6458 4.271-9.3343-.4713.65049-.6131 1.0469-.6131 1.6974 0 1.5556 1.1598 2.6774 2.7154 2.6774 1.7729 0 3.1119-1.3384 3.1119-3.1112 0-2.1023-1.6594-3.6579-3.979-3.6579-2.7908 0-4.7429 1.593-6.0155 4.9215v-4.3748m21.138-.5467c-5.7608 0-10.032 3.9126-10.032 9.1641 0 5.2425 4.1678 9.0513 9.881 9.0513 5.7234 0 9.9564-3.8372 9.9564-9.0229 0-5.1387-4.3084-9.1925-9.8056-9.1925m-.075 1.8857c1.2636 0 2.4233.86711 2.8946 2.1307.4339 1.1972.7259 3.2247.7259 5.1478 0 4.5914-1.301 7.1656-3.6579 7.1656-2.4234 0-3.6586-2.4233-3.6586-7.203 0-4.8183 1.2352-7.241 3.696-7.241m27.145-1.5182h-1.5557l-1.339.79169c-1.3764-.79169-2.7153-1.1592-4.4972-1.1592-4.0924 0-6.9864 2.4227-6.9864 5.864 0 1.377.5086 2.6496 1.5272 3.5831 1.0844 1.056 2.1307 1.5556 4.4876 2.0649l2.64.58411c1.8103.39645 2.5362 1.0089 2.5362 2.0933 0 1.3106-1.1972 2.1403-3.1112 2.1403-2.7909 0-4.8558-1.5556-6.5906-4.9969h-1.631l.1792 6.2605h1.5182l1.4138-.65049c1.377.80134 3.2247 1.2726 5.1104 1.2726 4.271 0 7.2694-2.5362 7.2694-6.1567 0-1.5182-.5377-2.7908-1.5557-3.696-.9431-.8297-1.6974-1.1598-4.309-1.8103l-3.2524-.79229c-1.7729-.47127-2.2441-.83876-2.2441-1.7722 0-1.2352 1.2255-2.1023 3.0358-2.1023 2.3195 0 4.0163 1.2255 5.7988 4.1956h1.6969l-.1412-5.7138m11.729.17922-8.5046.25464v1.8386h.5003c2.2151.0374 2.3189.18827 2.3189 3.4033v8.3634c-.037.50868-.075.72591-.2166.94254-.2167.33007-.9432.47127-2.4608.47127h-.1418v1.8483h11.324v-1.8483h-.2166c-2.2822-.0374-2.6026-.25464-2.6026-1.5556v-13.718m-2.932-9.5606c-1.7728 0-3.2247 1.4518-3.2247 3.1867 0 1.7728 1.4519 3.2247 3.1493 3.2247 1.8477 0 3.2621-1.4144 3.2621-3.2247 0-1.7348-1.4519-3.1867-3.1867-3.1867m22.581 9.3814h-1.5556l-1.339.79169c-1.3764-.79169-2.7154-1.1592-4.4973-1.1592-4.0924 0-6.9864 2.4227-6.9864 5.864 0 1.377.5087 2.6496 1.5273 3.5831 1.0843 1.056 2.1306 1.5556 4.4876 2.0649l2.64.58411c1.8102.39645 2.5361 1.0089 2.5361 2.0933 0 1.3106-1.1972 2.1403-3.1112 2.1403-2.7908 0-4.8557-1.5556-6.5906-4.9969h-1.631l.1792 6.2605h1.5182l1.4138-.65049c1.377.80134 3.2247 1.2726 5.1104 1.2726 4.271 0 7.2694-2.5362 7.2694-6.1567 0-1.5182-.5376-2.7908-1.5556-3.696-.9432-.8297-1.6974-1.1598-4.309-1.8103l-3.2525-.79229c-1.7728-.47127-2.2441-.83876-2.2441-1.7722 0-1.2352 1.2256-2.1023 3.0358-2.1023 2.3196 0 4.0164 1.2255 5.7989 4.1956h1.6968l-.1412-5.7138m18.103 0h-1.5556l-1.339.79169c-1.3764-.79169-2.7154-1.1592-4.4973-1.1592-4.0924 0-6.9864 2.4227-6.9864 5.864 0 1.377.5087 2.6496 1.5273 3.5831 1.0843 1.056 2.1306 1.5556 4.4876 2.0649l2.64.58411c1.8102.39645 2.5361 1.0089 2.5361 2.0933 0 1.3106-1.1971 2.1403-3.1112 2.1403-2.7908 0-4.8557-1.5556-6.5906-4.9969h-1.631l.1792 6.2605h1.5182l1.4138-.65049c1.377.80134 3.2247 1.2726 5.1104 1.2726 4.271 0 7.2694-2.5362 7.2694-6.1567 0-1.5182-.5376-2.7908-1.5556-3.696-.9432-.8297-1.6974-1.1598-4.309-1.8103l-3.2525-.79229c-1.7728-.47127-2.2441-.83876-2.2441-1.7722 0-1.2352 1.2256-2.1023 3.0358-2.1023 2.3196 0 4.0164 1.2255 5.7989 4.1956h1.6968l-.1412-5.7138m11.729.17922-8.5046.25464v1.8386h.5002c2.2152.0374 2.319.18827 2.319 3.4033v8.3634c-.038.50868-.076.72591-.2167.94254-.2166.33007-.9431.47127-2.4607.47127h-.1418v1.8483h11.324v-1.8483h-.2167c-2.2821-.0374-2.6025-.25464-2.6025-1.5556v-13.718m-2.932-9.5606c-1.7729 0-3.2247 1.4518-3.2247 3.1867 0 1.7728 1.4518 3.2247 3.1492 3.2247 1.8477 0 3.2621-1.4144 3.2621-3.2247 0-1.7348-1.4518-3.1867-3.1866-3.1867m15.66 9.5606-8.2499.25464v1.8386h.575c2.2441.0374 2.357.18827 2.3196 3.4033v8.3634c-.038.50868-.075.72591-.2167.94254-.2546.33007-.9431.47127-2.4987.47127h-.1792v1.8483h10.685v-1.8483c-2.1807-.0754-2.1807-.0754-2.1053-3.3659v-4.8461c0-2.6116 1.2636-4.2426 3.288-4.2426 1.4181 0 1.9913.94254 1.9913 3.3659v5.7228c.079 3.2904.036 3.2904-2.0576 3.3659v1.8483h9.8478v-1.8483c-2.1422-.0754-2.1723-.0754-2.106-3.3659v-4.8461c0-2.5742 1.3095-4.2426 3.3007-4.2426 1.3758 0 1.9913.98056 1.9913 3.2241v7.8541c0 .47127-.078.65048-.2172.90513-.2957.36748-.6879.47127-1.8887.47127v1.8483h10.644v-1.8483h-.1388c-2.3955-.0374-2.7154-.21663-2.7154-1.5556v-9.0133c0-2.97-2.4619-5.2516-5.648-5.2516-2.3593 0-3.9886.94254-5.7204 3.2621-.7965-2.0649-2.6792-3.2621-5.1049-3.2621-2.4318 0-4.3446 1.1218-5.7965 3.4033v-2.8566m37.174-.5467c-5.7566 0-10.029 3.9126-10.029 9.1641 0 5.2425 4.1636 9.0513 9.878 9.0513 5.7264 0 9.9564-3.8372 9.9564-9.0229 0-5.1387-4.3084-9.1925-9.8056-9.1925m-.072 1.8857c1.2612 0 2.4197.86711 2.8964 2.1307.4285 1.1972.7241 3.2247.7241 5.1478 0 4.5914-1.3034 7.1656-3.6567 7.1656-2.4257 0-3.6628-2.4233-3.6628-7.203 0-4.8183 1.2371-7.241 3.699-7.241"/>
	<path d="M271.11 128.33V32.292" stroke="#000" stroke-linejoin="bevel" stroke-width="2.73"/>
	<path d="M271.49 123.47c-1.7828-3.2865-5.5497-5.0691-10.123-5.0691-3.3639 0-7.0379.99213-10.619 2.8833-6.5419 3.4725-10.51 9.3167-10.51 14.386 0 1.3797.2945 2.7748.9921 4.0615 1.7828 3.271 5.5497 4.9606 10.123 4.9606 3.364 0 7.0379-.88359 10.619-2.7749 6.5418-3.4724 10.51-9.3322 10.51-14.386 0-1.3952-.2946-2.7749-.9921-4.0615m1.72-87.7069c-.093-.29453-.9921-3.767-.9921-3.9685-.093-.40305-.6976-.6976-1.1936-.6976-.6976 0-1.2867.60459-1.2867 1.2867v22.431c0 .49606.4031.88368.7906 1.0852 4.17 1.2867 12.805 6.7589 19.253 17.765 1.7828 3.0694 4.6662 7.2394 4.6662 15.58 0 7.1464-1.1007 14.68-2.8834 21.625-.2946 1.1007-.589 2.0928.496 2.4803 1.0852.4031 1.4882-.38752 1.8913-1.3796 3.5654-8.7431 4.4646-17.874 4.4646-24.013v-1.8913c-.4961-12.805-7.844-22.23-7.844-22.23.2945 0-9.1307-12.2-11.812-16.37-3.6585-5.6582-5.4568-11.301-5.5498-11.704M284.87 119.1c0 2.7438 2.2168 4.9606 4.9606 4.9606 2.7439 0 4.9607-2.2168 4.9607-4.9606s-2.2168-4.9606-4.9607-4.9606c-2.7438 0-4.9606 2.2168-4.9606 4.9606"/>
</svg>
