<?xml version="1.0" encoding="utf-8"?>
<svg xmlns="http://www.w3.org/2000/svg" version="1.1" viewBox="0 0 1141 758">
	<title>Sketch of a mountain shaped nearly like a triangle, with a ridge extending to the right and left along the top.</title>
	<path d="m170.03 756c-1.1002-1.1011-2.0003-2.6888-2.0003-3.5282 0-0.83944 1.2249-1.9924 2.7221-2.562l2.7221-1.0358 2.2787 1.0391c1.2533 0.57151 2.2787 1.6242 2.2787 2.3393 0 2.0236-2.9534 5.7496-4.5574 5.7496-0.79394 0-2.3437-0.90089-3.4438-2.002zm11.621-11.3-1.7634-1.2905 0.65906-2.6281 0.65907-2.6281 2.6634-1.0519c1.4649-0.57854 3.9011-1.3414 5.4138-1.6954l2.7504-0.64348v4.4212l-3.4005 3.4034c-1.8703 1.8718-3.8096 3.4034-4.3095 3.4034s-1.7025-0.58072-2.6724-1.2905zm14.418-12.457c-0.80603-0.31719-2.2297-1.5203-3.1638-2.6737l-1.6983-2.097 2.1504-2.5972 1.6026 2.5952 4.8222-4.7537c2.6522-2.6145 5.3428-4.7536 5.979-4.7536s1.3838 0.36762 1.6613 0.81692c0.27745 0.44931-0.0585 2.4559-0.74662 4.4591l-1.2511 3.6422-3.8326 3.0483c-2.1079 1.6766-3.8832 3.0127-3.9451 2.9693-0.0619-0.0434-0.772-0.33854-1.578-0.65575zm11.543-17.16-0.67872-1.0991 4.689-5.0171c2.579-2.7594 5.3026-5.0172 6.0524-5.0172 0.74985 0 1.3777-0.78828 1.3952-1.7517 0.0175-0.96345 2.2143-4.2133 4.8817-7.2219l4.8499-5.4702 2.6195 1.1945c1.4407 0.65698 2.6195 1.7734 2.6195 2.481 0 1.5165-9.4321 10.768-10.978 10.768h-1.0618l0.59198 2.3606 0.59199 2.3606-4.0399 3.2023c-2.2219 1.7613-5.573 3.4513-7.4469 3.7556l-3.407 0.55334zm23.632-28.153c-0.93706-1.653-2.5531-3.2796-3.5912-3.6145-3.0348-0.97913-34.937-0.52794-44.21 0.62526-4.6721 0.58105-8.9258 0.78977-9.4528 0.46379-0.52698-0.32596-8.1118-0.82563-16.855-1.1104l-15.897-0.51771-0.67518 1.0934c-0.37135 0.60135-1.0767 0.84502-1.5674 0.54149-0.49073-0.30354-10.474-0.61873-22.184-0.70042l-21.292-0.14853-2.0261 1.0997-2.0262 1.0997-1.6342-0.91534c-1.9596-1.0975-23.123-1.2966-34.32-0.32284-7.3896 0.64264-28.359 0.85023-33.005 0.32673-1.1002-0.12396-5.66 0.1221-10.133 0.54679l-8.1325 0.77217-2.1191-2.1208c-1.1655-1.1665-2.1191-2.7861-2.1191-3.5993 0-0.81312 1.0707-2.1805 2.3794-3.0387l2.3794-1.5603 24.746-1.5619 3.0005 1.0341c3.1276 1.0779 8.5507 1.1676 47.507 0.78591 12.927-0.12668 30.03 0.23938 38.006 0.81347 14.572 1.0488 21.162 0.74966 26.248-1.1915l2.7445-1.0475 4.7041 3.0848 13.406 0.0719c7.3735 0.0395 14.531 0.11909 15.907 0.17676 1.3752 0.0576 7.2261-0.15648 13.002-0.47588 16.5-0.91243 30.976-0.78595 37.473 0.32741l5.968 1.0227 0.82824-0.82893c0.45553-0.45591 1.0972-4.0402 1.426-7.9651l0.59778-7.1362 1.6074-1.4238c0.88406-0.78312 2.4791-1.5836 3.5445-1.779l1.9371-0.35512 0.84054-3.2465 0.84055-3.2465 4.9463-3.2436v-5.4654l2.0909-1.8938c1.15-1.0416 3.2189-2.3553 4.5976-2.9193l2.5067-1.0255 1.3883-3.9925c0.76355-2.1959 1.395-5.8396 1.4033-8.0971l0.0151-4.1046 10.813-8.6355-0.51358-1.3395c-1.0179-2.6547 0.85666-6.5634 4.9909-10.407l4.2127-3.9163 5.1544-0.025-0.45231-3.0844-0.45232-3.0844 1.3129-2.4552c1.5785-2.9518 6.856-6.3906 9.8077-6.3906h2.1323v-1.3789c0-0.7584-0.6751-1.9397-1.5002-2.625-0.82513-0.68536-1.5002-2.0271-1.5002-2.9816 0-0.95451 1.5547-3.7732 3.4548-6.2638l3.4548-4.5284 5.0923-1.2791v-4.3631c0-2.3997 0.69363-6.0246 1.5414-8.0552l1.5414-3.6921 5.9186-2.065v-6.5411l2.0632-2.6252c1.1348-1.4438 3.4976-2.9994 5.2508-3.4567l3.1876-0.83154 6e-3 -1.9335c3e-3 -1.0634 1.241-3.8389 2.7504-6.1678 1.5094-2.3289 2.7443-5.1742 2.7443-6.323 0-2.3459 3.9552-8.1867 8.1022-11.965 1.5107-1.3764 3.4642-4.6813 4.3411-7.3443 0.87688-2.663 3.0491-7.0694 4.8271-9.7919l3.2328-4.95 4.0006-1.083c2.2003-0.59568 4.4507-1.2053 5.0008-1.3547 0.55008-0.14939 2.1697-2.688 3.5991-5.6414 1.4294-2.9534 4.7852-9.7548 7.4572-15.114s4.878-10.99 4.9022-12.512l0.0441-2.7678 6.4741 0.62494 1.7439-3.8159c0.95917-2.0988 3.571-6.2934 5.8041-9.3214 2.2331-3.028 4.8081-6.695 5.7222-8.1488 0.91412-1.4539 2.6447-5.7331 3.8458-9.5094 1.201-3.7763 2.6792-7.4906 3.2848-8.254s2.9913-2.1989 5.3015-3.19l4.2004-1.802 1.0018-3.6314c0.55102-1.9973 2.3358-5.7419 3.9661-8.3214 1.6304-2.5795 3.2765-6.717 3.6582-9.1944s1.4915-5.8924 2.4662-7.5889c0.9747-1.6964 2.3321-4.8496 3.0165-7.0069 0.68438-2.1573 2.3196-5.8044 3.6338-8.1046s2.3894-5.3725 2.3894-6.8273v-2.6451l4.2507-5.1413c2.3379-2.8277 5.4583-6.189 6.9343-7.4695 1.476-1.2805 3.1998-3.8935 3.8307-5.8066 0.63085-1.9131 2.0111-3.9412 3.0672-4.5069l1.9202-1.0285v-2.3542c0-1.2948 2.0201-6.3464 4.489-11.226l4.489-8.8717 0.14955-5.0049 0.14956-5.0049 6.2252-11.418 4.2639-2.7026c2.3452-1.4864 5.1759-4.1796 6.2906-5.9847 1.1147-1.8051 2.7127-6.5746 3.5511-10.599 0.83837-4.0242 2.1798-8.0416 2.981-8.9277 2.606-2.882 8.0993-15.214 10.883-24.431 1.4965-4.9549 3.1597-10.19 3.6961-11.633 0.53634-1.4432 2.8417-4.5107 5.123-6.8168l4.1479-4.1928 1.4797-5.195c0.81381-2.8573 1.3918-7.3945 1.2844-10.083l-0.19529-4.8877 3.7511-4.1092c2.0631-2.26 6.9178-7.2677 10.788-11.128l7.0372-7.019 2.3234-6.5064c2.25-6.3007 9.1477-19.963 11.623-23.023 0.66823-0.82581 1.5119-2.7517 1.8748-4.2797 0.36292-1.528 1.4792-3.5982 2.4807-4.6005s3.1926-3.8061 4.8691-6.2307c1.6765-2.4246 4.2212-5.5004 5.6549-6.835 1.4336-1.3347 2.6066-2.9623 2.6066-3.6169 0-0.65459 2.2504-4.2412 5.0008-7.9702 2.7504-3.729 5.0008-7.3885 5.0008-8.1322s1.8003-2.4895 4.0006-3.8797l4.0006-2.5276v-2.4247c0-4.2651 1.822-7.4218 5.712-9.8965l3.7894-2.4107 2.2901-6.4947c1.2596-3.5721 3.3974-7.9968 4.7507-9.8327 1.3534-1.8359 2.4606-4.4062 2.4606-5.7118s-0.50193-3.3124-1.1154-4.4596l-1.1154-2.0859 7.3232 1.1894 0.8777-2.3105c0.89836-2.3648 2.8967-3.5845 5.8729-3.5845 0.92286 0 2.2504-0.91741 2.9501-2.0387 0.69967-1.1213 2.3832-2.4615 3.7411-2.9782l2.469-0.93949v-3.3369c0-1.8353 0.57464-4.1234 1.277-5.0847 1.579-2.1611 7.8287-3.6594 12.261-2.9395l3.318 0.53888 5.2221 5.4552 0.62557 3.9099c0.34407 2.1505 1.7362 5.5976 3.0936 7.6603l2.468 3.7503 7.6326 2.057 2.0539 2.6133c1.1297 1.4373 2.0539 3.3634 2.0539 4.2801 0 0.91674 0.48858 2.1558 1.0857 2.7534s1.246 4.4039 1.442 8.4583c0.19592 4.0544 0.76193 9.3987 1.2578 11.876l0.90155 4.5044 3.6574 5.3558c2.0116 2.9457 3.6574 5.9657 3.6574 6.7112 0 0.74547 1.074 2.5532 2.3867 4.0171 1.3127 1.4639 3.1493 3.5477 4.0812 4.6306 0.93197 1.0829 2.9113 6.0598 4.3985 11.06 1.4872 5 3.3637 9.4532 4.17 9.8959 0.80635 0.44275 3.7966 1.7624 6.645 2.9326l5.179 2.1276 2.651 4.0092c1.458 2.205 2.9058 5.581 3.2173 7.5022l0.56637 3.493 1.6053 0.57972c3.6836 1.3302 9.0212 6.5404 10.986 10.724 1.1575 2.4646 3.346 5.2483 4.8633 6.186 1.5173 0.93771 5.1216 3.9756 8.0095 6.751l5.2508 5.046v5.6936l10.425 11.033 1.7736 5.6849c0.9755 3.1267 1.7809 6.3606 1.7898 7.1864 9e-3 0.82582 2.716 4.3573 6.0157 7.8477 3.2997 3.4904 5.9994 6.7562 5.9994 7.2572 0 1.8117 2.8994 0.85478 4.8221-1.5916l1.9668-2.5025h8.1019l5.1497 4.5044 1.0829 6.0059c0.59557 3.3033 2.1826 8.2581 3.5266 11.011 3.6316 7.4376 8.8873 15.624 12.209 19.019 1.6165 1.6516 3.4359 3.9868 4.0431 5.1894 0.60717 1.2025 1.104 3.5448 1.104 5.205v3.0186l2.9353 4.3529c1.6144 2.3941 4.0718 5.4903 5.4607 6.8804 1.389 1.3902 3.431 4.6418 4.5378 7.226 1.1068 2.5842 3.1297 5.8168 4.4954 7.1836l2.483 2.4851h3.6449c2.0047 0 5.1798 0.72893 7.0557 1.6198s5.2069 3.8776 7.4022 6.6372c2.1954 2.7595 3.9916 5.5477 3.9916 6.196 0 1.2152 4.9959 5.2153 10.812 8.6565l3.3107 1.9589 1.5169 3.6337c0.8343 1.9985 2.4318 4.375 3.5499 5.2811 1.1179 0.90608 2.6129 3.3364 3.322 5.4008l1.2893 3.7534-0.5353 3.9936-0.5352 3.9936 4.1374 3.5443 4.1372 3.5443v1.924c0 1.0582 1.0127 2.9252 2.2503 4.1489 3.6136 3.5727 12.752 17.091 12.752 18.864 0 0.89275 0.9419 2.4762 2.093 3.5188 2.623 2.3758 4.036 4.9824 4.3746 8.0704 0.1449 1.32 1.0112 3.2272 1.9253 4.2381l1.6621 1.8381-0.2365 3.107-0.2366 3.107 2.2102 2.3546c1.2156 1.295 2.2101 3.0926 2.2101 3.9947 0 3.1207 2.1988 6.4432 6.8405 10.337 5.2829 4.4312 14.406 13.486 21.37 21.211l4.7073 5.2212h2.0409c1.1224 0 3.7845 1.5766 5.9155 3.5035l3.8747 3.5034h8.9161l4.9165 3.2532c2.7043 1.7893 5.7068 4.0415 6.6726 5.0049 0.9657 0.96345 2.3184 1.7599 3.0061 1.77 0.6876 0.01 3.213 1.3494 5.6119 2.9765l4.3618 2.9582 8.5109-0.37073 2.6032 2.9646c1.4318 1.6305 2.8994 4.5411 3.2613 6.468 0.728 3.8756 2.9894 7.0069 5.0604 7.0069 0.7399 0 1.3452 0.40518 1.3452 0.9004 0 0.49521 1.5753 3.2431 3.5006 6.1065l3.5005 5.2061 0.04 4.1536 0.04 4.1536 2.9605 5.5054c1.6284 3.028 2.9767 6.4063 2.9963 7.5074 0.02 1.1011 0.6789 3.1281 1.465 4.5044 0.7861 1.3764 1.4453 3.858 1.4648 5.5149l0.035 3.0124 1.9258 1.2037c1.0592 0.662 2.0719 2.2343 2.2504 3.494l0.3245 2.2903 2.3054 0.32708c1.268 0.1799 2.95-0.20823 3.7377-0.86251l1.4321-1.1896 2.4793 0.62276 2.4792 0.62277 10.57-8.0203 4.5007-0.18277c2.4754-0.10052 5.1758-0.14752 6.001-0.10445 0.8251 0.043 3.7505 0.93152 6.501 1.9743l5.0008 1.896 1.3048 2.7086c0.7176 1.4897 1.9108 2.7086 2.6516 2.7086s2.281 1.464 3.4229 3.2532c1.1419 1.7893 2.649 4.0655 3.3493 5.0584l1.2732 1.8052-1.7502 0.99726c-0.9627 0.54849-1.7503 1.6506-1.7503 2.449v1.4518h3.8658l0.6187-1.9509c0.3402-1.073 1.1641-1.7414 1.8307-1.4854 0.6666 0.256 1.8199 1.8402 2.5631 3.5205s2.4468 3.472 3.786 3.9815l2.4347 0.92649 1.435 3.437 1.4348 3.437 2.2673 0.67232c1.2471 0.36976 4.5177 1.6962 7.2682 2.9477 5.8845 2.6775 13.511 5.1183 18.721 5.9912 2.0451 0.34268 4.3679 1.2731 5.1617 2.0676l1.4434 1.4446-0.5556 2.2698c-0.3054 1.2484-0.9507 2.7787-1.4338 3.4007l-0.8783 1.1308-7.2285-1.9798c-3.9757-1.0889-9.0605-2.3573-11.3-2.8188-5.4282-1.1187-12.432-3.972-12.432-5.0649 0-0.48283-2.0488-1.3942-4.553-2.0253l-4.5529-1.1474 0.3023-2.1202 0.3023-2.1202 7.0011-1.1589-1.8247-0.80741-1.8246-0.80742-4.1763 1.3798c-2.297 0.75888-4.8514 1.2297-5.6765 1.0463-2.5686-0.57097-5.0008-3.3644-5.0008-5.7437v-2.2777l-2.2253-0.31986c-1.2239-0.17592-2.6895-1.2558-3.2568-2.3997-0.5674-1.1439-1.7588-2.8076-2.6476-3.6972l-1.616-1.6174 0.4884-2.5572 0.4885-2.5572-5.7447 1.1499-2.2953-3.107c-1.2623-1.7088-2.7531-2.8237-3.313-2.4774-0.5598 0.34627-0.7972 1.2048-0.5277 1.9078 0.6509 1.6976-1.2431 3.5039-2.9761 2.8384-0.758-0.29116-1.3783-1.4117-1.3783-2.4901 0-2.4576-1.7566-5.833-3.0356-5.833-1.5125 0-1.131 3.8208 0.6536 6.5466l1.6185 2.4723-1.241 1.4965c-0.6825 0.82305-1.8505 1.4965-2.5956 1.4965s-2.1011-1.1402-3.0135-2.5337c-0.9123-1.3935-1.9354-2.2544-2.2734-1.913-0.3381 0.34138-0.6146 1.8194-0.6146 3.2844v2.6638l-5.0008-0.26715c-2.7504-0.14692-6.0052-0.49128-7.2329-0.76523l-2.2322-0.4981-1.5441-2.9885c-0.8492-1.6436-2.254-2.9885-3.1215-2.9885s-4.5138-2.9827-8.1029-6.6282l-6.5256-6.6282 0.5432-5.2678c0.2989-2.8973 0.1458-5.6656-0.3399-6.1517-0.4858-0.48617-1.2554-2.677-1.7104-4.8684l-0.8271-3.9845-5.9124-1.0702 0.3337-1.9695c0.1834-1.0832 0.746-2.3974 1.2502-2.9205 0.5041-0.52302 0.9165-1.7617 0.9165-2.7527v-1.8018h-2.8337c-1.5587 0-3.13-0.2964-3.492-0.65864-0.3619-0.36226-0.1108-1.3185 0.558-2.1251l1.216-1.4664-7.9396-6.6713 1.2449-1.2459c1.7017-1.7032 1.5663-5.3384-0.2554-6.8514l-1.5002-1.2461-0.1151 1.3738c-0.063 0.75559-0.029 2.1979 0.076 3.2052l0.1915 1.8314-4.6265-0.65976-0.571-3.5375c-0.314-1.9456-0.9468-4.1461-1.4062-4.8899l-0.8351-1.3525-1.1791 2.2049-1.1791 2.2049-1.3013-1.5692c-0.7158-0.86307-1.9055-1.5692-2.6439-1.5692-0.7385 0-1.8502 0.94909-2.4705 2.1091l-1.1278 2.1091 6.5783 6.7927h4.2024l3.7036 3.7959 3.7035 3.7959v5.6084l1.8784 0.49161c1.0331 0.2704 2.3805 1.5947 2.9943 2.943l1.116 2.4514-1.7442 0.54818c-0.9592 0.3015-2.8581 0.99853-4.2196 1.5489l-2.4755 1.0008-1.7752-2.1941c-0.9763-1.2067-1.7752-3.6205-1.7752-5.3639 0-3.5416-2.3943-7.6192-4.4741-7.6192-0.748 0-1.5371 0.53149-1.7534 1.1811l-0.3934 1.1811-1.6904-0.64917-1.6902-0.64916v-5.8729l-2.9781-1.039c-1.6379-0.57147-3.931-1.9276-5.0958-3.0137l-2.1178-1.9746 0.6463-2.038c0.3554-1.1209 1.5234-2.3166 2.5955-2.6571l1.9491-0.61915v-2.2348c0-1.2291-0.5401-2.7754-1.2002-3.436s-2.2449-1.2012-3.5219-1.2012h-2.3219l-0.9094-2.2522c-0.5003-1.2387-1.16-3.434-1.4662-4.8784-0.3061-1.4444-1.4475-3.6966-2.5363-5.0049l-1.9798-2.3788-0.033 2.6936c-0.018 1.4815-0.4701 2.9639-1.004 3.2941-1.3384 0.82784-7.0304-2.2453-7.0304-3.7957 0-0.69297-1.2377-2.0048-2.7505-2.9152-1.5127-0.91036-4.0226-2.6958-5.5776-3.9676s-4.5099-2.9889-6.5666-3.8158l-3.7393-1.5034-8.1857-8.7248c-4.5022-4.7987-8.1858-9.1394-8.1858-9.646 0-0.50667-3.1505-3.5009-7.0011-6.6538s-7.0011-6.1368-7.0011-6.6309c0-0.49407-0.8716-2.8078-1.9371-5.1416-1.0653-2.3338-3.2658-8.5701-4.8898-13.858l-2.9529-9.6151-3.1113-4.2986c-1.7112-2.3642-3.1114-4.8585-3.1114-5.5428 0-0.6843-0.698-1.5123-1.5512-1.84-0.8531-0.32767-2.4394-2.6052-3.5249-5.0612-1.0855-2.456-3.2004-5.3474-4.6997-6.4254s-3.6122-3.6909-4.6951-5.8065c-1.0829-2.1156-2.9778-5.0985-4.2109-6.6287-1.233-1.5302-2.5131-4.4581-2.8445-6.5064-0.587-3.6277-2.428-8.2309-6.8237-17.062l-2.1547-4.329-5.37-3.8363c-2.9534-2.11-6.1142-4.9718-7.0239-6.3596-0.9096-1.3878-3.3495-4.3575-5.422-6.5993l-3.7681-4.076-2.21-6e-3c-1.2155-3e-3 -3.9572-0.49111-6.0928-1.0845l-3.8826-1.079-4.6186-4.3282c-2.5403-2.3805-5.9137-6.8931-7.4965-10.028l-2.8779-5.6998-4.3155-2.6088c-2.3735-1.4348-4.7213-3.5287-5.2173-4.653-2.2578-5.1175-4.2145-12.664-4.2145-16.254v-3.9316l-2.9081-2.1518c-1.5994-1.1835-3.542-3.4078-4.3167-4.9429-0.77474-1.5351-1.9029-3.692-2.5071-4.7931-1.8926-3.4492-6.2706-13.527-6.2706-14.435 0-1.5106-3.209-2.1731-7.4456-1.5372l-4.0978 0.61501-19.501-19.078 0.12472-2.8024c0.11603-2.6069-2.4829-10.624-4.7701-14.714-0.54678-0.97787-2.7506-2.764-4.8973-3.9692l-3.9031-2.1912-0.68465-4.7904c-0.37657-2.6347-1.4136-5.9037-2.3045-7.2645s-3.8496-4.0775-6.575-6.0371c-2.7253-1.9596-4.9552-4.0199-4.9552-4.5784 0-1.3627-14.733-15.813-16.122-15.813h-1.0946l0.61135 1.5945c1.4044 3.663 1.7054 6.2319 0.79594 6.7945-0.53301 0.32969-2.6996-1.5356-4.8146-4.145-2.115-2.6094-4.299-4.9307-4.8532-5.1583-0.55421-0.22764-2.1624-1.579-3.5736-3.003l-2.566-2.5891-1.3016-7.3499c-0.71588-4.0425-1.9256-8.5469-2.6883-10.01-0.76267-1.463-1.3894-3.6389-1.3928-4.8354-3e-3 -1.1965-1.0731-3.4487-2.3771-5.0049-1.304-1.5562-2.69-4.2935-3.0799-6.0827l-0.70903-3.2532h-3.4708c-3.9466 0-8.0107-1.8399-10.746-4.8652l-1.8692-2.0672 0.59494-1.5517c0.61759-1.6108 0.76503-15.061 0.24167-22.046-0.16499-2.2022-1.0611-5.7262-1.9913-7.8311l-1.6914-3.8272 1.2232-3.857h-1.4606c-0.80335 0-1.7338 0.71251-2.0677 1.5834-0.96552 2.5182-0.70511 8.3748 0.47008 10.573 0.59245 1.1079 0.82416 2.6743 0.51492 3.4808l-0.56226 1.4664-1.8348-0.98279c-1.0092-0.54053-2.4276-2.7804-3.1521-4.9775l-1.3173-3.9947 3.3421-8.3597-0.67637-2.1469c-0.372-1.1808-2.3529-4.0568-4.4019-6.391l-3.7255-4.2441-1.2679-4.7648c-0.69736-2.6206-1.8927-5.7782-2.6562-7.017-0.76357-1.2387-2.2028-2.2522-3.1982-2.2522h-1.8098l0.76134 5.6151 0.76135 5.6151 2.056 2.1903c2.7322 2.9107 5.8255 12.146 5.6937 16.999l-0.10573 3.8938-1.7023 1.0757c-0.93627 0.59165-2.0366 0.74113-2.4452 0.33217-0.40862-0.40897-0.87391-3.3874-1.034-6.6189-0.16007-3.2314-0.73633-7.0475-1.2806-8.4802l-0.98955-2.6049h-4.2641l0.60708 1.5015c0.33391 0.82582 0.88027 2.1772 1.2142 3.003l0.60709 1.5015h-1.9523c-1.0738 0-2.6384-0.78828-3.477-1.7517-0.83861-0.96345-1.9583-3.1031-2.4882-4.7547-0.52992-1.6516-1.7138-3.1486-2.6309-3.3266l-1.6674-0.32365v2.1068c0 1.1587 0.67511 2.3661 1.5002 2.683 1.9054 0.73178 1.9456 2.9797 0.0661 3.7015l-1.4341 0.5508-3.6328-2.8894c-1.998-1.5892-4.1656-2.6733-4.8168-2.4092-0.65124 0.26409-1.94 1.9973-2.864 3.8515l-1.6799 3.3713 3.9303 3.6394c2.1616 2.0017 3.9303 4.0859 3.9303 4.6315s-0.70759 1.2638-1.5724 1.596l-1.5724 0.6039-2.8878-2.1368c-1.5883-1.1752-3.3445-2.1368-3.9027-2.1368-1.6178 0-3.7906 5.0489-4.9625 11.532l-1.0821 5.9857-3.5118 3.2667-3.5118 3.2667-0.0703 2.2388c-0.0386 1.2313-0.3768 3.0119-0.75143 3.9569-0.37463 0.94498-2.7924 3.0582-5.3728 4.696l-4.6917 2.9779-1.2114 4.0465c-0.66625 2.2256-2.0424 4.7992-3.0582 5.7192l-1.8468 1.6728v6.5092l-1.7503-0.45703-1.7503-0.45704-7.2142 7.6079-1.2072 4.5172-1.2072 4.5172-3.9371 3.9168c-2.1654 2.1543-3.9371 4.5963-3.9371 5.4268 0 1.6134-3.6403 9.7787-5.3359 11.968-0.56126 0.72482-1.8587 3.803-2.8833 6.8403-1.0246 3.0374-2.9154 7.174-4.2018 9.1925-1.2864 2.0185-4.8704 6.8232-7.9644 10.677l-5.6255 7.0069 0.0383 3.003c0.07 5.4908-1.6374 12.148-4.0021 15.604-1.285 1.8781-4.4856 5.667-7.1123 8.4197l-4.7758 5.0049-1.9068 6.0059c-1.0488 3.3033-2.4649 8.4834-3.147 11.511-1.3953 6.1939-4.6443 15.014-7.1898 19.519-0.93326 1.6516-2.0132 4.0629-2.3998 5.3584-0.3866 1.2955-1.7979 3.9703-3.1361 5.944-1.3383 1.9737-2.9248 5.5425-3.5257 7.9306l-1.0924 4.3421-2.6252 1.9858c-6.9379 5.2481-9.4172 8.4682-10.572 13.731-0.38951 1.7749-1.1236 3.484-1.6314 3.7981s-0.92322 2.7701-0.92322 5.4578-0.41467 5.1433-0.92149 5.4568-2.9953 4.7319-5.53 9.8187c-5.8563 11.753-11.134 20.408-14.452 23.703-2.6773 2.6584-6.1012 9.1024-6.1012 11.483 0 0.73973-0.71183 1.9362-1.5818 2.6589-2.3297 1.935-6.7734 11.386-9.3817 19.952-1.2572 4.1291-3.1525 9.5344-4.2118 12.012-3.7683 8.8134-8.3484 17.224-9.6706 17.759-1.7452 0.70626-10.159 12.278-10.159 13.972 0 0.71566-0.39943 1.3012-0.88762 1.3012-0.4882 0-2.1438 3.0405-3.6792 6.7567s-3.7484 7.8828-4.9178 9.2591c-4.715 5.5493-24.521 33.449-24.521 34.542 0 0.42446-1.3502 2.9679-3.0005 5.6522-1.6502 2.6842-3.0005 5.9671-3.0005 7.2952v2.4148l-2.2504 1.8244c-1.2377 1.0034-2.8775 3.0416-3.6439 4.5292l-1.3936 2.7048-3.0063 1.0489c-1.6535 0.57688-4.5144 1.0489-6.3576 1.0489h-3.3513l0.0318 1.2512c0.0175 0.68817 0.69261 2.1256 1.5002 3.1943 0.80763 1.0687 1.4684 2.5508 1.4684 3.2937s-0.99091 2.6921-2.202 4.3316l-2.202 2.9809 1.0629 3.9855 1.0629 3.9855h-1.1612c-0.63869 0-1.5888-0.3991-2.1114-0.88691-0.52258-0.48779-3.538-1.1959-6.701-1.5735l-5.7509-0.6866 0.0278 0.82276c0.0153 0.45252 1.3558 2.1269 2.979 3.7208l2.9512 2.898 1.7139-4.6369 1.5553 2.5187-1.113 1.114c-0.61219 0.61269-1.1131 2.0948-1.1131 3.2937 0 1.1988-0.63984 2.7112-1.4219 3.3607l-1.4219 1.181-2.0332-1.2708c-1.1183-0.69894-2.3742-0.92954-2.7909-0.51244-0.41676 0.41711-0.19694 1.6571 0.48847 2.7556 0.68542 1.0984 0.97938 2.4293 0.65323 2.9574-0.80559 1.3046-4.4756 1.2227-4.4756-0.0998 0-0.58303-0.47939-0.76353-1.0653-0.40111l-1.0653 0.65894 1.6777 1.8553 1.6776 1.8553-2.8627 0.59725c-6.6112 1.3793-10.544 2.9684-11.425 4.6169-1.249 2.3358-1.2038 8.8942 0.0613 8.8942 0.55009 0 1.0002-1.551 1.0002-3.4467v-3.4467l4.4457-3.1165h9.5565v1.4363c0 0.78998-0.42582 2.5572-0.94627 3.9273l-0.94627 2.491-4.6085 0.65386-1.078 3.3378c-0.59289 1.8358-1.6554 3.695-2.3611 4.1315-1.6288 1.0075-4.6544 0.23461-6.1521-1.5716-0.63546-0.76633-1.9888-1.3933-3.0075-1.3933h-1.8522l-1.3831 2.7527c-0.7607 1.514-1.6624 4.2227-2.0037 6.0194l-0.62061 3.2667 5.9102-4.3732 5.1893 2.3664-0.3271 1.7407c-0.1799 0.95739-1.3371 2.1854-2.5716 2.7288-1.2345 0.54345-2.2445 1.7453-2.2445 2.6708s-0.27319 2.3952-0.60709 3.2661l-0.60708 1.5834h-4.7487l-1.1562-4.6106-6.2798-2.3723-0.74453 1.2057c-0.40948 0.66312-0.28584 1.7588 0.27477 2.4348l1.0193 1.2292-3.9053 3.3466 0.53839 2.136c0.29612 1.1748 0.98867 2.4331 1.539 2.7963 0.55035 0.36314 2.2236-0.24468 3.7184-1.3507l2.7177-2.011 2.1203 1.1357c1.1662 0.62461 2.1203 1.7408 2.1203 2.4805 0 0.73966-1.3778 1.916-3.0617 2.6141l-3.0617 1.2692-1.693 3.6069-1.693 3.6069-4.4929 0.63973v-7.1461h-1.3836c-0.76097 0-1.6383 0.97496-1.9497 2.1666l-0.56611 2.1666-1.5509-1.2882-1.5508-1.2882v4.4365l-4.0006 1.047v3.4092l6.501 2.8638 0.6392 4.5044h-1.5293c-2.2273 0-6.3207 4.8031-7.0029 8.2172l-0.58837 2.9443-3.5204-0.72133 0.17453-4.8667 0.17453-4.8666-1.355-1.3561-1.3549-1.3561-0.63964 4.5078-4.5007 0.63973v1.4977c0 0.82373 0.43204 2.3056 0.96009 3.2931s0.69619 3.423 0.37365 5.4123l-0.58646 3.6169-3.8437 1.221-1.4522-1.2062-1.4522-1.2062v1.145c0 0.62976-1.1252 1.6581-2.5004 2.2852-1.3752 0.62712-2.5004 1.5228-2.5004 1.9903s0.90014 1.6215 2.0003 2.5643 2.0003 2.2209 2.0003 2.8402-0.96083 1.5551-2.1352 2.0796l-2.1352 0.95353-2.2307 6.9072-8.5013 3.9521v1.8098c0 0.99538-0.65675 3.3829-1.4594 5.3056-0.8027 1.9227-1.1972 4.1799-0.87659 5.016l0.58286 1.5202 3.7535-3.3997 3.7446 3.3917 8.5884-2.9614 2.8987 1.5002c1.5943 0.82512 2.7084 2.0368 2.4759 2.6927l-0.42279 1.1925-7.4649-0.46169-1.4384 1.4396c-0.79109 0.79175-2.0224 1.2152-2.7362 0.94109l-1.2978-0.49844-1.2915 4.2947c-0.71034 2.3621-1.4464 4.8501-1.6358 5.529l-0.34429 1.2344-1.4573-0.55968c-0.80151-0.30782-2.5928 0.18497-3.9807 1.0951-1.3878 0.91011-3.5354 1.5074-4.7724 1.3273l-2.2491-0.32745-0.80523-3.1273c-0.44288-1.72-1.4821-3.6896-2.3095-4.3768l-1.5042-1.2494v5.5628c0 3.0596-0.41917 6.6056-0.9315 7.8802-1.3299 3.3085-7.6743 9.8248-9.5657 9.8248-0.87876 0-2.3644-1.3525-3.3015-3.0055zm-206.74-7.0043c0.33997-0.55054 0.1415-1.001-0.44105-1.001s-1.0592 0.45045-1.0592 1.001 0.19848 1.001 0.44105 1.001c0.24258 0 0.71922-0.45045 1.0592-1.001zm229.22-13.098c0.59666-0.59716 2.1494-0.93368 3.4505-0.74783l2.3657 0.33791 1.8168-2.8893 1.8168-2.8893-1.9-1.9016-1.9518 2.0967-1.9518 2.0967-1.8204-2.0132c-1.0012-1.1073-2.4258-2.0132-3.1657-2.0132h-1.3452v4.5044c0 2.4774 0.36005 4.5044 0.80012 4.5044s1.2883-0.48858 1.885-1.0857zm43.322-62.977c0-0.55054-0.47664-1.001-1.0592-1.001s-0.78102 0.45044-0.44105 1.001c0.33997 0.55055 0.81661 1.001 1.0592 1.001 0.24257 0 0.44105-0.45044 0.44105-1.001zm35.672-51.718c-0.36672-0.36702-0.96682-0.36702-1.3335 0-0.36672 0.36703-0.0667 0.66733 0.66677 0.66733 0.73344 0 1.0335-0.3003 0.66677-0.66733zm2.3337-6.3987v-1.9429h-1.4412c-0.79266 0-1.7316 0.47017-2.0864 1.0448-0.79811 1.2924 1.4227 4.1429 2.6408 3.3895 0.48776-0.3017 0.88683-1.4229 0.88683-2.4914zm450.07-329.32c0-0.51805-0.95525-0.94191-2.1228-0.94191h-2.1228l1.2359 1.4905c1.2492 1.5065 3.0096 1.1856 3.0096-0.54855zm-76.628-80.853-0.64151-3.2102-2.9483-2.4829c-1.6216-1.3656-3.5337-2.4829-4.2493-2.4829-1.7857 0-3.7834 2.5885-3.3788 4.3781 0.42114 1.8628 10.074 8.5207 11.097 7.6541 0.41943-0.35527 0.47393-2.0906 0.1211-3.8562zm-31.392-43.461c-6e-3 -1.8443-3.8034-7.7576-4.9823-7.7576-1.6298 0-1.1678 5.1786 0.64039 7.1783 1.8982 2.0992 4.3475 2.426 4.342 0.57931zm-40.516-58.558c-0.80305-6.0034-1.2038-7.2572-2.3197-7.2572-0.49258 0-1.1822 2.093-1.5326 4.651l-0.63696 4.651 1.1236 1.3549c0.61795 0.74522 1.7711 1.3549 2.5626 1.3549h1.439zm-370.54 638.96c0-2.7352 1.2304-4.5863 3.0484-4.5863 1.0089 0 2.1575 0.52339 2.5525 1.1631l0.71824 1.1631-2.2702 1.8399c-1.2486 1.0119-2.6705 1.8399-3.1596 1.8399s-0.88936-0.63883-0.88936-1.4196zm1.3565-22.187c0.34554-2.5231 0.91896-5.0582 1.2742-5.6336l0.64601-1.0461 11.726 1.2266v-1.9514c0-1.0733-0.90014-2.4336-2.0003-3.0228s-2.0003-1.8992-2.0003-2.9109c0-2.9629 3.6871-10.459 6.3982-13.008l2.5014-2.3519 1.5511 0.59571c0.85311 0.32765 1.5511 1.5107 1.5511 2.6291v2.0334h-4.1673l0.44828 1.2512c0.64649 1.8045-1.1015 4.7547-2.8172 4.7547-0.80578 0-1.465 0.49003-1.465 1.089v1.089l4.2507-0.70396c2.3379-0.38716 4.5301-0.86782 4.8716-1.0681 0.34152-0.20031 0.89433-1.7323 1.2285-3.4045l0.60756-3.0403 2.5221-0.9597c1.3872-0.52783 2.5221-1.4056 2.5221-1.9506 0-0.54502 1.3195-2.4951 2.9323-4.3334 1.6128-1.8384 3.2261-4.514 3.5852-5.9458 0.35908-1.4318 1.774-3.6574 3.1442-4.9458l2.4913-2.3424 5.8411 6.9975-0.24569 2.002-0.2457 2.002-2.5004 0.33501c-1.3752 0.18426-2.928 0.74731-3.4505 1.2512l-0.95015 0.91622 1.2002 1.2012c0.66011 0.66065 1.2002 1.8431 1.2002 2.6276v1.4264l-6.0009-1.2012-0.17107 1.2262c-0.0941 0.67441-0.20661 2.3523-0.25004 3.7287l-0.079 2.5025-6.501 0.62734v10.574l-1.829 1.6566c-1.0059 0.91115-2.6387 1.6566-3.6283 1.6566h-1.7994l1.2795-8.0079h-2.5122c-1.3817 0-2.5616 0.33784-2.6219 0.75074-0.0603 0.41291-0.23394 2.24-0.38587 4.0603l-0.27622 3.3095-3.729 2.8993-9.0014-0.43316v2.2451c0 2.3053-1.9329 4.1426-4.3866 4.1697l-1.3861 0.0153 0.62826-4.5874zm42.65-35.452c0-0.55055-0.45007-1.001-1.0002-1.001-0.55009 0-1.0002 0.45044-1.0002 1.001 0 0.55054 0.45007 1.001 1.0002 1.001 0.55008 0 1.0002-0.45044 1.0002-1.001zm5.0486-5.7659-2.1741-1.762-0.45911-3.9937-0.4591-3.9937 10.092-8.7138 4.8213 1.2111 0.67377 2.1246 0.67376 2.1246-1.3572 0.86069c-0.74647 0.47339-2.384 0.8676-3.639 0.87603l-2.2817 0.0153-0.62654 1.6341c-0.3446 0.89874-0.10543 2.4692 0.53147 3.4899 0.6369 1.0207 1.158 2.6727 1.158 3.6712 0 2.0692-1.8287 4.2177-3.5898 4.2177-0.65416 0-2.1678-0.79288-3.3635-1.762zm689.11-93.769-1.2762-1.5391 1.2016-4.7917 2.2488-0.58857 2.2489-0.58857 2.2414 2.7212c1.2328 1.4966 2.1347 3.3968 2.0044 4.2227l-0.2369 1.5015-7.1557 0.60172zm-47.31-44.688c-2.0731-1.2085-2.3117-5.2143-0.4048-6.7982 0.7401-0.61469 2.7356-1.3958 4.4344-1.7359l3.089-0.61829 0.6762 3.6078c0.372 1.9843 0.4159 4.2868 0.098 5.1168l-0.5786 1.509-2.7818-0.0304c-1.53-0.0167-3.5694-0.48957-4.5321-1.0507zm-227.26-361.24-0.59731-0.96727 6.0106-3.0367c3.3058-1.6702 6.8111-3.055 7.7894-3.0775 2.855-0.0655 14.626-4.4985 15.01-5.6531 0.19306-0.57967-3.3265-3.1392-7.8213-5.6879l-8.1723-4.634h-13.74v0.93583c0 0.5147 0.43074 2.0697 0.95719 3.4555 0.52646 1.3858 2.3267 3.2285 4.0006 4.0948 1.6739 0.86631 3.0434 2.014 3.0434 2.5504 0 0.53641-1.3036 0.97528-2.8969 0.97528h-2.8969l-3.1041-3.5383-3.1041-3.5383v-4.8891l-4.5007-2.8154-8.5013-0.65414c-8.5905-0.66101-14.842-1.8811-18.503-3.6114-1.1002-0.51993-3.7944-1.5146-5.9873-2.2104l-3.987-1.2651-0.33703-1.7517-0.33705-1.7517 3.3238 6e-3c1.8281 3e-3 4.4614 0.60036 5.8517 1.3266 3.7333 1.95 10.299 3.4298 20.976 4.7275 5.2258 0.63515 10.627 1.7334 12.002 2.4406l2.5004 1.2858 19.521 0.8924 2.2616 2.1264c2.6382 2.4806 14.865 8.2236 17.451 8.197 1.7244-0.0177 6.6192-2.9314 14.774-8.7946 2.2003-1.582 5.8009-3.9226 8.0012-5.2016 2.2004-1.2789 4.9008-3.0978 6.0009-4.042 1.1002-0.94422 3.8006-2.2836 6.0009-2.9765 2.2004-0.69287 5.6487-2.0886 7.663-3.1016 2.0143-1.013 8.0513-3.0106 13.416-4.439l9.7532-2.5972 15.175 1.325 4.2507 1.9993c2.3378 1.0996 4.2506 2.3544 4.2506 2.7884 0 0.43403-0.7112 1.3798-1.5804 2.1018l-1.5803 1.3127-3.1704-1.2936c-5.8479-2.3861-14.888-4.1916-19.473-3.8891l-4.5446 0.29985-0.82314 2.5025h3.0838c1.6961 0 3.0838 0.48568 3.0838 1.0793v1.0793l-16.503-0.48379-2.7504 1.1398c-1.5127 0.62689-2.7504 1.581-2.7504 2.1202 0 1.7166 7.1077 2.5523 21.003 2.4695l13.502-0.0806 6.49-1.6269c3.5696-0.89481 6.6399-2.0768 6.8231-2.6266 0.183-0.54982 2.3369-2.0014 4.7864-3.2257 2.4495-1.2243 5.1372-2.9289 5.9727-3.788 4.1433-4.2598 7.9991-9.0596 11.022-13.72 1.8376-2.8334 4.8196-6.0443 6.6269-7.1353l3.286-1.9837 12.656-1.3616 2.9142 2.4206 2.2837-1.2232c1.256-0.67275 4.0536-1.0785 6.2169-0.90162l3.9332 0.32157 0.3032 2.1275c0.1668 1.1701-0.3483 2.7797-1.1449 3.5768l-1.4482 1.4494-17.381 2.588-0.8765-0.87728c-0.4821-0.48251-2.8656-0.71896-5.2967-0.52545l-4.4201 0.35184-1.3705 2.6615c-0.7537 1.4638-2.7754 4.0128-4.4928 5.6644-4.4708 4.2999-12.128 10.613-16.298 13.437-1.9706 1.3346-3.8079 2.7222-4.0829 3.0836-0.9771 1.2838-18.564 12.536-22.287 14.259-2.0815 0.96345-4.6553 1.7517-5.7195 1.7517h-1.935l0.59535-1.5527c0.32744-0.85401 3.6023-3.0682 7.2773-4.9205 3.6751-1.8523 7.2269-4.0248 7.8928-4.8278l1.2106-1.46-4.5958 0.8593c-2.5278 0.47263-10.552 0.91627-17.832 0.98587l-13.236 0.12653-11.047-3.485-7.9176 5.8403c-4.3547 3.2122-8.508 6.4195-9.2296 7.1275-1.6147 1.5843-14.886 8.3135-16.396 8.3135-0.60252 0-3.3907 1.1226-6.196 2.4946-2.8053 1.372-7.7021 3.1716-10.882 3.9992-3.1798 0.82752-7.55 2.4076-9.7117 3.5113-4.2038 2.1464-8.5149 2.6186-9.49 1.0395zm-392.51-45.714c-1.1401-1.4506-2.0729-3.0568-2.0729-3.5693 0-2.456 2.6391-4.9801 11.202-10.713 5.1158-3.4253 12.452-8.6793 16.303-11.676 3.8506-2.9962 8.1263-5.688 9.5015-5.9817 1.3752-0.29367 4.1648-1.4176 6.1991-2.4977 2.0343-1.0801 4.752-1.9638 6.0395-1.9638 1.2874 0 4.1064-0.90089 6.2643-2.002l3.9235-2.002h16.615l9.7341 2.0386c5.3537 1.1212 10.747 2.4629 11.984 2.9815 1.2377 0.51863 2.2504 1.6283 2.2504 2.4659v1.5229h-4.7649c-2.6207 0-7.2275-0.90089-10.237-2.002l-5.4726-2.002h-15.413l-0.68661 1.1119-0.6866 1.1119 2.8779 2.3425c1.5829 1.2884 5.6909 3.7442 9.1289 5.4573 3.438 1.7131 6.251 3.4818 6.251 3.9304 0 0.44863-0.58601 1.3024-1.3022 1.8974l-1.3022 1.0816-2.4484-0.60317c-1.3466-0.33175-2.9615-1.0026-3.5886-1.4909-0.62715-0.48823-3.9831-2.0027-7.4576-3.3655l-6.3173-2.4778-3.5441 0.6376c-1.9493 0.35068-3.9942 0.95175-4.5443 1.3357-0.55009 0.38395-3.0471 1.4539-5.549 2.3776-2.5019 0.92371-6.7775 3.702-9.5015 6.174-2.7239 2.472-5.2902 4.4964-5.7028 4.4988-0.41256 2e-3 -0.75011-0.44612-0.75011-0.99666 0-1.9192-2.0742-0.97436-6.2733 2.8577-4.898 4.4699-15.982 12.157-17.529 12.157-0.58095 0-1.9891-1.1868-3.1292-2.6375zm77.606-1.0328c-0.36672-0.36702-0.66677-1.2138-0.66677-1.8817 0-1.2896 21.84-23.456 26.785-27.185 3.2039-2.4162 6.3678-3.8705 10.221-4.6981 1.3752-0.2954 4.6872-2.3536 7.36-4.5737 2.6728-2.2201 5.4462-4.0366 6.1632-4.0366 0.71694 0 3.3514-2.8722 5.8543-6.3826l4.5508-6.3826 4.0802-1.6339c2.2441-0.89866 7.0993-1.8476 10.789-2.1087 3.6901-0.26112 9.6347-0.93225 13.21-1.4914s8.3991-1.2994 10.719-1.6451l4.218-0.62843 6.7837 2.815c3.731 1.5482 7.3509 3.2407 8.0442 3.7611 0.6933 0.52039 3.226 1.3136 5.6282 1.7628 2.4022 0.44915 6.0598 1.966 8.1281 3.3707 2.0682 1.4047 5.4729 3.0155 7.5659 3.5796 2.093 0.56405 5.7443 1.9062 8.1141 2.9826 2.3698 1.0764 5.5605 1.9669 7.0905 1.979l2.7818 0.022 0.61443 1.6025 0.61442 1.6025-1.3959 0.88464c-0.76777 0.48655-3.248 0.89154-5.5117 0.89996l-4.1158 0.0153-2.3852-1.866c-1.3119-1.0263-5.0757-2.6453-8.3641-3.5977-3.2884-0.95243-7.1834-2.5901-8.6557-3.6394-1.4723-1.0492-2.9499-1.9077-3.2835-1.9077s-2.5145-0.8779-4.8464-1.9509-8.3381-3.1135-13.347-4.5345l-9.1074-2.5836-2.6444 1.0062c-1.4544 0.55344-2.6444 1.2214-2.6444 1.4844 0 0.26299 0.52231 1.6255 1.1607 3.0277 0.63838 1.4023 1.696 2.5496 2.3503 2.5496 0.65429 0 3.1303 1.4639 5.5022 3.2532 6.7838 5.1173 11.306 7.6672 13.681 7.7142 1.2052 0.0239 2.5006 0.54422 2.8786 1.1563 0.85463 1.384-1.341 2.8554-4.2913 2.8757-1.222 8e-3 -4.6143-1.0436-7.5385-2.3379l-5.3166-2.3532-1.736-2.6517c-0.95482-1.4584-2.2004-2.6517-2.768-2.6517-0.56758 0-3.8182-1.8936-7.2235-4.2081l-6.1916-4.2081-5.6495-0.40898c-3.1072-0.22494-7.164 0.0913-9.0151 0.70269l-3.3656 1.1117-4.391 5.5074c-2.415 3.0291-4.6744 5.5074-5.0208 5.5074-0.34641 0-2.1919 1.5026-4.1012 3.3391-4.3194 4.1548-11.976 8.6727-14.698 8.6727-1.127 0-4.5738 1.6401-7.6597 3.6446l-5.6106 3.6446-3.5042 5.2837c-1.9273 2.906-3.5042 5.7358-3.5042 6.2885 0 1.6846-5.066 7.1467-8.0707 8.7018-2.9651 1.5346-7.1277 1.9366-8.2652 0.7982zm-53.342-6.0059c0.36673-0.36702 0.96682-0.36702 1.3336 0 0.36672 0.36703 0.0667 0.66733-0.66677 0.66733-0.73345 0-1.0335-0.3003-0.66678-0.66733zm216.48-14.14c-4.2458-1.9819-7.9513-4.2077-8.2344-4.9462-0.28314-0.73848 0.15895-1.6014 0.98241-1.9177l1.4972-0.57501 7.2373 3.5065c3.9805 1.9286 8.5147 3.7995 10.076 4.1576l2.8387 0.65113-1.2109 1.4602c-0.666 0.80313-2.1684 1.4168-3.3388 1.3636-1.1703-0.0532-5.6017-1.7182-9.8475-3.7001zm-156.56 0.018-2.2504-0.36447v-1.9638c0-1.0801 0.63994-2.2096 1.4221-2.5099 1.8656-0.7165 5.579 1.3067 5.579 3.0396 0 0.74754-0.56259 1.54-1.2502 1.7611-0.6876 0.22108-2.2628 0.23793-3.5005 0.0374zm175.57-0.58889c-2.04-0.6351-4.2678-1.714-4.9508-2.3975s-2.1644-1.2612-3.2921-1.2838c-1.1277-0.0226-3.9631-1.773-6.301-3.8897-4.2001-3.8029-5.5357-7.0801-2.8853-7.0801 1.6158 0 6.4231 3.5918 8.8654 6.6241l1.7295 2.1471 12.92 1.3847 1.174 1.4157c0.64567 0.77864 0.91268 2.0971 0.59336 2.9299-0.31932 0.83282-1.3823 1.467-2.3622 1.4093-0.97991-0.0578-3.4507-0.62459-5.4907-1.2597zm-54.387-4.584c-1.6983-0.40634-3.6111-1.0625-4.2507-1.4581-1.6096-0.99559-1.4573-3.2768 0.26273-3.9374 0.7841-0.30114 3.1016-0.0844 5.15 0.48168l3.7244 1.0292 4.1015-1.0647c2.2558-0.58558 5.2155-1.1884 6.5772-1.3395l2.4757-0.27484 0.31882 1.5999 0.31881 1.5999-5.1783 2.1538c-2.848 1.1846-6.356 2.1077-7.7953 2.0513-1.4394-0.0564-4.0066-0.43492-5.7048-0.84125z" stroke-width="1.0006"/>
</svg>
