<?xml version="1.0" encoding="utf-8"?>
<svg xmlns="http://www.w3.org/2000/svg" version="1.1" viewBox="0 0 498 409">
	<title>Sketch of a stone cottage fading off to the left, with a stone arch bridge with 3 arches in the center. Steep hills are in the background.</title>
	<path d="m289.63 407.4c-4.4-0.66133-10.475-0.99812-13.5-0.74843-3.025 0.2497-6.85 0.0636-8.5-0.41366l-3-0.86765-0.33036-2.2651-0.33036-2.2652 1.684-1.8608c0.92623-1.0235 2.9563-2.1403 4.5113-2.4818 1.555-0.34153 3.3792-1.2861 4.0539-2.0991l1.2267-1.4781-0.93281-0.93281c-1.3962-1.3962-11.045-1.4374-18.179-0.0776-3.4633 0.6601-7.2883 0.93581-8.5 0.61268-7.0965-1.8925-10.287-3.0519-10.938-3.9756-1.2201-1.7304-0.85663-5.2213 0.67612-6.4933 0.79278-0.65795 4.7303-1.6512 8.75-2.2073 8.6744-1.2 25.714-5.6412 34.809-9.0729 3.575-1.3489 7.7351-2.7566 9.2446-3.1282l2.7446-0.67567 1.7276 2.0177c0.95019 1.1097 2.6626 2.0177 3.8054 2.0177s2.6262 0.54844 3.2965 1.2188l1.2188 1.2188-0.63668-3.1834c-0.35017-1.7509-0.33821-4.7743 0.0266-6.7188l0.66321-3.5354h1.8714c1.0292 0 2.0983 0.5625 2.3757 1.25l0.50439 1.25 0.0711-1.5c0.0391-0.825-1.0636-2.0264-2.4505-2.6698l-2.5217-1.1698-3.1711 4.8396h-2.385c-1.3117 0-2.385 0.41968-2.385 0.93261 0 1.3028-3.3865 2.24-5.3591 1.4831-0.90249-0.34632-1.6409-1.4264-1.6409-2.4002 0-0.97382-0.675-2.3308-1.5-3.0155l-1.5-1.2449v5.1988l-2.456 1.6092c-2.6177 1.7152-4.544 1.2395-4.544-1.1222 0-1.7693-1.6622-1.9078-2.2917-0.19098l-0.45833 1.25-1.2717-1.1967c-1.4732-1.3863-4.0465-13.962-3.2707-15.984l0.52348-1.3642-11.231 1.32v-3.1164l3-0.65891c1.65-0.3624 3-1.0034 3-1.4245 0-1.0568-3.4375-4.0755-4.6409-4.0755-0.54089 0-2.868-0.9105-5.1713-2.0233l-4.1878-2.0233v-1.9767c0-1.0872-0.57499-1.9767-1.2778-1.9767s-2.0743 0.93032-3.0479 2.0674c-0.97358 1.137-2.3111 1.8898-2.9722 1.6729-0.66115-0.21697-1.3359-1.5083-1.4994-2.8696l-0.29734-2.475 3.7965-3.4358 15.399-0.0605c8.4695-0.0333 16.299-0.0206 17.399 0.0283s3.9195-0.1878 6.2656-0.5259l4.2656-0.61474 3.3855 1.6065c1.862 0.88359 4.1012 1.6065 4.9759 1.6065 0.87471 0 2.1524 0.9 2.8394 2l1.249 2h2.637c2.7889 0 5.4461 2.278 4.4802 3.8409-0.31562 0.51068-1.971 1.1336-3.6787 1.3842l-3.1049 0.45569-0.91779-2.3917-21.595 0.47902-2.1509 1.1511c-1.183 0.63312-2.1509 1.4953-2.1509 1.9159 0 0.4206 2.7485 1.3324 6.1078 2.0263 3.3593 0.69385 6.9712 2.066 8.0265 3.0491l1.9188 1.7876-0.63353 1.6509c-0.34844 0.90802-0.9829 1.651-1.4099 1.651s-1.0117 0.9-1.2994 2l-0.52301 2 2.1564 0.0803c8.8193 0.32858 12.612 0.7479 15.656 1.7309 1.925 0.62158 4.85 1.5181 6.5 1.9923 1.65 0.4742 3.1388 1.5776 3.3084 2.4521l0.30846 1.5899-4.3719 0.65442 4.6883 3.3558c2.5786 1.8457 4.9435 3.1007 5.2553 2.7888 0.31184-0.31183-0.16398-2.8017-1.0574-5.5331-0.89339-2.7314-1.391-5.5614-1.1059-6.2888s2.2585-2.1582 4.3852-3.1794l3.8667-1.8567 4.1061 0.69373c2.2584 0.38155 4.3897 1.1526 4.7364 1.7135l0.63024 1.0198 0.74574-1.2066c0.41015-0.66364 2.2664-1.5656 4.125-2.0044l3.3793-0.79781-7.5-0.20472v-4h1.8c0.99 0 2.2917-0.49169 2.8926-1.0926l1.0926-1.0926 4.5719 2.4468 36.104-0.76152 0.34286 1.75 0.34287 1.75-26.647 0.28311 25.58 2.2284 0.70996 1.1265c0.85861 1.3624 8.1104 3.8694 14.015 4.8449l4.3046 0.71124-0.33943 1.6529-0.33943 1.6529-6.3663-0.30244c-3.5014-0.16634-7.6383-0.96024-9.193-1.7642l-2.8268-1.4618 0.60285 3.0142 0.60284 3.0142h-1.125c-0.61875 0-1.125 0.45-1.125 1s1.5199 1 3.3776 1h3.3776l1.2085 1.4562c0.66469 0.8009 0.88713 1.9762 0.49431 2.6118l-0.71423 1.1556-10.244-1.3139-1.2538-1.6511-1.2537-1.6512-1.1963 1.1963c-0.65794 0.65794-2.0062 1.1962-2.9962 1.1962h-1.8v-2.9286c0-1.6107 0.675-3.6036 1.5-4.4286s1.5-1.9822 1.5-2.5714c0-0.58929-1.0769-1.0714-2.393-1.0714h-2.393l-0.59955-1.5624-0.59954-1.5624-8.5149 1.2715-5.6341-2.1482-14.279 1.3271 6.4132 3.0372v4.6372h3.9619l1.2549 5h2.7005c1.4852 0 3.574-0.66069 4.6416-1.4682l1.9411-1.4682-5.5-0.0636v-3.8652l1.8389-0.58366c1.0114-0.32101 3.5236 0.12024 5.5826 0.98056l3.7437 1.5642-1.3326 1.6057c-0.73293 0.88312-1.1986 2.3967-1.0348 3.3634 0.16378 0.96679-0.17374 2.0492-0.75006 2.4054-0.57632 0.35618-1.0478 1.521-1.0478 2.5886s-0.47235 1.941-1.0497 1.941-2.3069-0.65017-3.8436-1.4448c-1.5367-0.79465-5.2268-1.7529-8.2003-2.1294-2.9735-0.37654-6.1288-1.3122-7.0118-2.0793l-1.6054-1.3947-3.2892 1.2622v-2.0718c0-2.2181 2.695-4.1606 4.75-3.4237 0.6875 0.24651 1.25 5e-3 1.25-0.5373 0-0.54203-1.4333-1.4852-3.1851-2.0958-1.7518-0.61068-3.8893-1.7446-4.75-2.5199-0.86071-0.77528-2.7533-1.7061-4.2058-2.0685l-2.6409-0.65893-1.4141 2.2881 1.598 1.7657c0.87888 0.97115 1.598 2.5178 1.598 3.437v1.6713h-1.941c-1.0675 0-2.2134 0.4407-2.5462 0.97933-0.33289 0.53864-0.11862 1.8886 0.47617 3l1.0814 2.0207h9.6847l1.2449 1.5c0.68469 0.825 1.8123 1.5 2.5058 1.5 0.69351 0 1.4909 0.87938 1.772 1.9542l0.51103 1.9542-4.3731 2.8653-2.9579-1.5395c-1.6268-0.8467-4.4204-2.6492-6.2079-4.0055l-3.25-2.4661v2.5597c0 1.4078-0.42742 2.8238-0.94983 3.1467-0.5224 0.32287-1.4382-0.32558-2.0352-1.441-0.59695-1.1154-1.5195-2.028-2.0502-2.028s-0.96482 0.9-0.96482 2v2l-3.5 0.1632 3.25 1.4213c1.7875 0.78171 3.25 1.935 3.25 2.5628v1.1415l-7.25-0.62165c-3.9875-0.3419-8.15-0.82243-9.25-1.0678s-2.2686-0.48061-2.597-0.52269c-0.32834-0.0421-1.6347-0.97656-2.903-2.0766s-3.3015-2-4.5182-2-3.4191-0.94937-4.8942-2.1097l-2.6821-2.1097-6.7028 1.6705c-3.6865 0.91879-8.9528 2.706-11.703 3.9716s-9.05 3.07-14 4.0096-10.35 2.0635-12 2.4974l-3 0.78885 1.5 0.50425c0.825 0.27734 2.8322 0.90776 4.4606 1.4009l2.9606 0.89668 8.3235-0.64722c4.5779-0.35596 9.9957-0.25879 12.039 0.21594s5.4034 0.87388 7.4659 0.887l3.75 0.0239v1.3508c0 0.74292-0.47619 2.7168-1.0582 4.3863l-1.0582 3.0356-4.4418 1.2436c-2.443 0.68399-4.4418 1.6351-4.4418 2.1137v0.87004h20.96l4.0202 1.6086c4.1921 1.6773 5.2756 3.8602 2.2702 4.5736-0.9625 0.22846-5.35-0.1257-9.75-0.78703zm26.5-30.309c0-0.4691-0.9-1.0883-2-1.3759l-2-0.52301-0.1681-3.8436-0.16811-3.8436-0.78452 7.5h-1.471c-0.80906 0-1.7445-0.71273-2.0788-1.5838l-0.60778-1.5838-0.84552 1.3338c-0.46504 0.73362-0.85242 1.6858-0.86084 2.1161-8e-3 0.43023 0.97392 1.1482 2.183 1.5954 3.0143 1.1151 8.8017 1.2522 8.8017 0.20853zm38.269-27.742c-0.67703-0.27392-2.027-0.29059-3-0.0371l-1.769 0.46104 3 0.0371c1.65 0.0204 2.4461-0.18706 1.769-0.46099zm-80.602-21.011c-0.36667-0.36666-0.66667-0.0667-0.66667 0.66667 0 0.73333 0.3 1.0333 0.66667 0.66667 0.36666-0.36667 0.36666-0.96667 0-1.3333zm45.333 78.202c0-1.8818 3.3878-3.7073 5.4276-2.9246 0.86484 0.33188 1.5724 1.4553 1.5724 2.4964v1.893h-7zm-184.33-1.2018c-0.36667-0.36666-0.66667-1.6609-0.66667-2.8762v-2.2095l5.75-0.62203c3.1625-0.34212 10.7-1.0351 16.75-1.5399 16.469-1.3742 35.873-4.0809 36.959-5.1554l0.95927-0.94891-2.2093-1.5474c-1.2151-0.85109-2.2093-2.1722-2.2093-2.9357 0-1.917 9.1125-10.447 11.191-10.475 0.93004-0.0128 1.9998-0.52278 2.3771-1.1334l0.68615-1.1102 3.3574 0.54483c1.8466 0.29966 4.8166 0.12636 6.5999-0.3851 1.7834-0.51147 4.0403-0.67673 5.0154-0.36724l1.7729 0.56271v3.8652l-1.75 6e-3c-0.9625 3e-3 -3.4375 0.47422-5.5 1.047l-3.75 1.0414v1.8306c0 1.0068-0.64431 2.3653-1.4318 3.0188l-1.4318 1.1883-3.6428-1.0058c-3.568-0.9856-6.4936-0.6221-6.4936 0.8064 0 0.39529 1.125 1.7756 2.5 3.0673s2.5 2.9241 2.5 3.6274c0 0.70332-1.4625 1.9497-3.25 2.7697-3.8394 1.7613-12.866 3.3921-42.099 7.6064-14.4 2.0759-20.848 2.466-21.984 1.3298zm211.95-12.49c-1.0379-0.60278-5.6496-1.1516-10.248-1.2196l-8.3613-0.12363-2e-3 -1.691c-9.5e-4 -0.93004-0.45907-1.9736-1.018-2.3191-1.5128-0.93514-0.15846-2.4899 2.1692-2.4899h2.0346l1.046-4h1.8244c1.0034 0 2.1025 0.45 2.4424 1s1.4915 1 2.559 1h1.941v3.7667l2.25 0.67187c1.2375 0.36953 3.9448 0.78931 6.0162 0.93285s4.2687 0.76343 4.8828 1.3775 0.84594 1.8218 0.51517 2.6838l-0.6014 1.5672-2.7814-0.0304c-1.5298-0.0167-3.6305-0.52359-4.6684-1.1264zm33.951-7.6123c-0.31033-0.31033-0.56423-1.6718-0.56423-3.0254v-2.4612l-4.2382 0.67772c-2.331 0.37274-4.5722 1.2745-4.9804 2.004l-0.74222 1.3263-20.039-5.172v-3.3472l5.5-1.0868 4.4296 2.8536h4.9762c2.7369 0 5.2543-0.45 5.5942-1l0.61803-1h13.649l0.49624 1.8976 0.49625 1.8976 9.4877 0.71132c5.2182 0.39123 10.042 1.0537 10.719 1.4722s1.0679 1.6069 0.86852 2.641l-0.36257 1.8802-12.672 0.14757c-6.9694 0.0812-12.925-0.10634-13.236-0.41667zm-216.14-2.5627-0.6071-1.5821-5.5765 1.1153-1.4477-2.3425 6.3059-12.809 8.102-2.1816 3.3406 1.5852c1.8373 0.87186 3.7042 1.5038 4.1486 1.4044 0.44445-0.0995 1.9886 0.30901 3.4314 0.90771l2.6233 1.0886 0.64576 2.5729 0.64576 2.5729h1.9095c2.1972 0 5.0524 2.5229 5.0524 4.4644 0 0.72687-0.62153 1.5601-1.3812 1.8516-1.416 0.54339-6.94-1.0852-9.6188-2.8358-0.825-0.53914-1.9915-1.8802-2.5922-2.9802s-2.3654-2.624-3.9214-3.3867l-2.8292-1.3867-1.4932 0.94189c-0.82126 0.51803-2.2027 2.0104-3.0699 3.3165l-1.5767 2.3746 2.4913-0.74375c1.3702-0.40907 3.1663-0.82745 3.9913-0.92974l1.5-0.18598 0.25905 2.5c0.14248 1.375-0.096 3.0414-0.52997 3.703-0.43396 0.66165-2.6805 1.5055-4.9924 1.8752l-4.2034 0.67215zm59.276-4.2998c-1.2816-1.2816-0.72788-3.2663 1.4868-5.3295l2.1886-2.039h17.645l4.2391-1.8816c5.6901-2.5257 9.5851-3.8641 13.489-4.6353 1.7875-0.35309 3.25-0.99768 3.25-1.4324s-2.7-1.3216-6-1.9709c-3.3-0.64923-6-1.6078-6-2.1301 0-0.52233-0.51966-0.94968-1.1548-0.94968s-3.3325-1.0125-5.9941-2.25l-4.8393-2.25 0.24407-2.4511 0.24408-2.4511 3-1.694c4.2156-2.3804 6.7805-2.996 8.357-2.0058l1.357 0.85233-1.3488 4.2497h-2.4326c-1.3379 0-2.4326 0.36665-2.4326 0.81479 0 1.0711 6.5731 4.1852 8.8339 4.1852 0.97134 0 2.1936 0.41477 2.7161 0.92172 0.5225 0.50694 2.5243 1.3229 4.4485 1.8132l3.4985 0.89145 0.363 1.9368c0.19965 1.0653 1.0128 2.3106 1.807 2.7676l1.444 0.83072-1.105 1.3314c-0.60774 0.73228-3.4452 1.8842-6.3054 2.5598-2.8603 0.67564-7.3728 2.2664-10.028 3.5349l-4.8274 2.3065-7.1726 0.68449c-3.9449 0.37646-8.2975 1.2461-9.6725 1.9325-3.4174 1.706-8.4453 2.7103-9.2982 1.8573zm-82.136-4.2956c-1.0063-1.112-2.6966-2.2969-3.7561-2.6332l-1.9264-0.61142 0.30829-2.1641 0.3083-2.1641 7.8998 0.26358 2.3104 2.8682c1.2708 1.5775 2.1895 3.5432 2.0416 4.3682l-0.26888 1.5-5.0872 0.59467zm55.434-9.0729c0-0.55-0.66153-1-1.4701-1-0.80854 0-2.496-1.4064-3.75-3.1253-1.254-1.7189-4.1875-3.9508-6.519-4.9598l-4.239-1.8344-6.06 3.4195-0.96564-1.5c-0.5311-0.825-0.97253-3.4266-0.98095-5.7814l-0.0153-4.2814 1.6238-0.62311 1.6238-0.6231 1.702 3.0413 5.0504-0.96545v4.2332h6.3711l4.6829 4.3993 2.8773-1.6997c1.5825-0.93482 4.0454-1.6997 5.473-1.6997h2.5957v3.2449l2.9031-2.4094 3.7984 1.2208c5.8715 1.8871 8.377 3.2219 9.3061 4.958l0.8528 1.5935-1.7866 2.8908-4.2869-2.1968c-2.3578-1.2083-5.4119-2.4201-6.7869-2.693l-2.5-0.49617-5.8836 7.8874h-1.8082c-0.99449 0-1.8082-0.45-1.8082-1zm101 0c0-0.55 0.45-1 1-1s1 0.45 1 1-0.45 1-1 1-1-0.45-1-1zm110.25-2.5844-3.25-1.4213v-9.6106l3.9764-2.9418c2.187-1.618 3.987-3.4659 4-4.1065l0.024-1.1647-6.25-0.4971c-3.4375-0.27341-7.7125-0.81288-9.5-1.1988l-3.25-0.70172v-1.8275c0-1.0051-0.45-2.1056-1-2.4455s-1-0.14148-1 0.44098-0.675 1.059-1.5 1.059-1.5-0.64844-1.5-1.441-0.45-1.7191-1-2.059l-1-0.61803v3.9832l4.1137 1.3057-0.64524 3.3291-8.4842-0.34298c-4.6663-0.18864-8.9305-0.76988-9.4759-1.2916l-0.99164-0.94866 2.9833-1.9542 9.5098 1.2265-0.61518-1.6031c-0.33835-0.88173-1.7177-1.8799-3.0653-2.2181-1.3476-0.33821-4.2228-0.37716-6.3895-0.0865-2.1667 0.29061-4.191 0.12122-4.4986-0.37643-0.30756-0.4977-1.6576-0.90487-3.0002-0.90487h-2.441v-7.7423l5.0339-0.66777c4.5133-0.59872 8.0303-0.36963 14.564 0.94867l2.0982 0.42333 2.1011-4.6114-3.4164-3.0511c-1.879-1.6781-3.66-2.657-3.9577-2.1752-0.29772 0.48172-1.9772 0.89011-3.7323 0.90753l-3.191 0.0317 2.7552 2.0555c1.5153 1.1305 2.5274 2.424 2.249 2.8744-0.57953 0.9377-3.942 0.35326-7.2961-1.2682l-2.2919-1.108-5.7683 1.1914c-3.1726 0.65526-6.9787 1.1914-8.4581 1.1914h-2.6898v-4l3.75-0.0435c5.8874-0.0684 12.53-1.62 13.691-3.1978 0.58259-0.79209 4.6282-3.3972 8.9902-5.7891 4.362-2.3919 7.3551-4.5408 6.6514-4.7754-0.70375-0.23459-2.2477 0.0634-3.4309 0.66211-1.1833 0.59874-4.544 2.0063-7.4682 3.128-2.9243 1.1216-8.258 3.4144-11.853 5.0951-3.5948 1.6807-7.121 2.8313-7.836 2.5569-0.71501-0.27437-2.1313 0.13092-3.1472 0.90065s-2.7514 1.4138-3.8566 1.4313-2.5825 0.94941-3.2829 2.0709l-1.2735 2.0391-3.7171-0.68338c-3.7375-0.68714-5.1734-1.8313-5.2018-4.1449l-0.0153-1.25 7.5-0.016 1.25-2.6916c0.6875-1.4804 1.25-3.2768 1.25-3.9922v-1.3002h5.227l-0.44031 3c-0.24217 1.65-0.0368 3 0.45633 3 0.49315 0 2.8588-1.35 5.257-3s4.7293-3.01 5.1802-3.0222c0.4509-0.0122 1.9448-0.90874 3.3198-1.9923l2.5-1.97-3.5 0.55566c-1.925 0.30561-4.3544 0.7275-5.3987 0.93753-1.0443 0.21003-3.2036 0.12089-4.7984-0.19807l-2.8997-0.57994-1.9088-3.7415c-1.0498-2.0578-1.628-4.0222-1.285-4.3653 1.132-1.132 3.1855-0.65096 5.0015 1.1717 0.98393 0.98754 2.9622 2.2986 4.3961 2.9134l2.6071 1.1179 4.7858-2.408v-8.9189l4.5216-0.64193 0.6142 3.071 0.61419 3.071 3.625-0.0997c1.9938-0.0548 4.7372-0.40959 6.0966-0.78837l2.4716-0.68869 0.87778-3.7116c0.48278-2.0414 1.3956-3.7047 2.0284-3.6963 0.63286 8e-3 1.7596 0.4012 2.5039 0.87283l1.3532 0.85751-2.0245 3.7828 2.5953 3.5492 7.7227-0.46786 2.8317-2.0534 2.8317-2.0534 1.2794 1.7497c0.70366 0.96231 1.0644 2.8741 0.8017 4.2485l-0.47768 2.4988h1.7122c0.94172 0 3.0761 0.97115 4.743 2.1581l3.0308 2.1581 1.6977-2.2507 1.6977-2.2507 2.4259 0.34259 2.4258 0.3426-0.3416 2c-0.1879 1.1-0.7504 2.15-1.25 2.3333-1.6645 0.61078-0.9387 2.861 2.0133 6.242l2.9217 3.3464 5.1566-2.7597v-2.272c0-1.2496 0.4784-2.5676 1.063-2.929 0.5847-0.36134 1.9347 0.13184 3 1.096l1.937 1.753v-1.1079c0-0.60932-1.8-2.5544-4-4.3224s-4-3.6501-4-4.1824-1.125-2.0106-2.5-3.2849l-2.5-2.3169v-5.6643l-2.9043-1.7156c-1.5973-0.94359-4.4098-1.7205-6.25-1.7264-1.8401-6e-3 -5.5547-0.68096-8.2546-1.5-2.6999-0.81905-5.2762-1.4892-5.725-1.4892s-0.54607 1.35-0.21607 3l0.6 3-1.375-0.0153c-0.75625-8e-3 -1.8768-0.34592-2.4902-0.75-1.7101-1.1266-2.5412-4.7634-1.7808-7.7928l0.68473-2.7282 20.211 1.2688 7 2.4876c3.85 1.3682 7.3375 2.4971 7.75 2.5087s0.75-0.87892 0.75-1.9789v-2h4.0429l1.1391-2.5 1.139-2.5h6.679v3.4l1.1157-1.1157 1.1158-1.1157-1.6158-2.3068c-0.8886-1.2687-1.6157-3.3304-1.6157-4.5814v-2.2746l3.6164-4.0029c1.989-2.2016 4.3948-4.0029 5.3463-4.0029 2.0546 0 7.8367-2.6894 10.25-4.7677l1.7127-1.4749 1.6515 0.63372 1.6514 0.63372-0.4755 2.4876-0.4756 2.4876h1.6614c0.9137 0 2.1346 0.47328 2.713 1.0517l1.0518 1.0517 4.75-1.1961 4.7501-1.1961 0.8829 1.3943c0.4856 0.76689 0.8898 1.743 0.8982 2.1691 0.018 0.9027-4.0149 2.611-8.926 3.781l-3.4413 0.81989-4.2538-1.9378c-2.3396-1.0658-5.6716-1.9378-7.4044-1.9378-3.7052 0-8.7344 2.7162-9.5009 5.1313-0.2965 0.93423-0.2471 2.8619 0.1097 4.2836l0.6488 2.585h1.9253c1.0589 0 3.2745-1.3802 4.9236-3.0672l2.9982-3.0672 1.7066 0.32865c0.9386 0.18076 1.8512 1.0798 2.028 1.998 0.3932 2.0418-4.3439 9.4193-6.6053 10.287l-1.6404 0.62948-2.469-3.3765-3.443 1.6338c-1.8937 0.89861-3.911 1.6338-4.4829 1.6338s-1.2983 0.4182-1.6142 0.92933l-0.5744 0.92933 11.031-1.1385v3.2303l2.3972-0.91141c1.3184-0.50127 2.6684-0.64013 3-0.30858 1.5483 1.5484 0.246 4.1157-3.579 7.0555l-4.1818 3.214h2.6818c1.475 0 2.6818 0.4132 2.6818 0.91821 0 2.0515-1.2967 4.0818-2.607 4.0818-0.7661 0-1.393 0.34015-1.393 0.75589s-1.4625 1.4282-3.25 2.25l-3.25 1.4941 5.5 0.63284v3.8403l-7.5 3.1698 2.7296 1.4498 2.7295 1.4498 4.0478-2.5279 1.7466 1.1017c0.9606 0.60593 1.7465 1.7241 1.7465 2.4848s-1.8 2.2673-4 3.348l-4 1.9648 2.25 0.3626c1.2375 0.19942 2.25 0.96959 2.25 1.7115s-1.4921 2.2711-3.3158 3.3982-4.0931 2.9082-5.0432 3.958l-1.7273 1.9087 1.5431 0.59217c0.8488 0.32569 1.5432 1.1519 1.5432 1.836s-1.2243 2.22-2.7206 3.4131l-2.7206 2.1693 2.7172 3.274-3.5394 3.9111-2.6861-1.9126-2.686-1.9126 0.4099 2.7929 0.4099 2.7929-3.8421 1.4944c-2.1132 0.82192-6.6498 2.0728-10.081 2.7798-3.4315 0.70695-6.7561 1.9084-7.388 2.6698l-1.149 1.3844 1.736 1.9182c0.9547 1.055 1.4403 2.3966 1.0789 2.9812-0.3613 0.58465-1.4179 1.0263-2.3479 0.98144-0.9301-0.0449-3.1535-0.72116-4.941-1.5029zm12.557-15.585c0.7187-1.0067 2.1-1.8304 3.0697-1.8304 0.9696 0 2.7411-1.125 3.9366-2.5 1.1956-1.375 2.8839-2.5 3.7518-2.5s2.2823-0.7043 3.1432-1.5651l1.5651-1.5651-12.243 1.3852-2.8852-1.1951c-1.5868-0.65729-3.3839-2.2896-3.9934-3.6275l-1.1083-2.4324h-3.9801l1.2494 3.2559-4.8122 3.6996-8 0.3229 6.25 1.0003c3.4375 0.55019 6.25 1.4426 6.25 1.9832v0.9829l1.459-1.2109 1.4591-1.2109 3.0409 0.6679c1.6726 0.36735 3.041 1.0918 3.041 1.6099s-1.0754 1.432-2.3897 2.0308c-1.3144 0.59886-2.8566 2.1135-3.4273 3.3659l-1.0375 2.2771 2.1773-0.55698c1.1974-0.30633 2.7652-1.3806 3.4839-2.3874zm-18.551-14.58c0.86136-0.9625 1.8776-3.8566 2.2582-6.4314l0.69212-4.6814-5.3214-6.9767-4.4425 1.5137c-2.4434 0.83255-4.4425 1.9739-4.4425 2.5364v1.0226l2.25-0.6876c1.2375-0.37818 3.2625-0.84104 4.5-1.0286l2.25-0.34097-6e-3 4.162c-3e-3 2.2891-0.69472 5.4824-1.5363 7.0962-0.84157 1.6138-1.3029 3.5263-1.0252 4.25 0.27769 0.72366 1.1243 1.3158 1.8813 1.3158s2.0812-0.7875 2.9425-1.75zm30.214-4.3862-0.647-2.9458 1.3384-1.6217 1.3385-1.6217-1.1047-0.37227-1.1046-0.37226 0.4962-2.5956 0.4961-2.5956-1.3915 0.46069c-0.7653 0.25337-2.0344 1.6007-2.8202 2.9941l-1.4286 2.5335 1.6786 3.5375c0.9233 1.9456 1.6787 4.2836 1.6787 5.1954v1.6579l1.0585-0.65421 1.0586-0.65422zm-57.803 0.46949c-0.36667-0.36666-0.96667-0.36666-1.3333 0-0.36666 0.36667-0.0667 0.66667 0.66667 0.66667 0.73333 0 1.0333-0.3 0.66667-0.66667zm4-1c-0.36667-0.36666-0.66667-0.0667-0.66667 0.66667 0 0.73333 0.3 1.0333 0.66667 0.66667 0.36666-0.36667 0.36666-0.96667 0-1.3333zm10.892-12.908 1.9411-1.5742-2.5 0.56057c-1.375 0.30831-2.8641 0.56671-3.309 0.57422-0.44496 8e-3 -0.5309 0.46365-0.19098 1.0136s0.95547 1 1.3679 1 1.6234-0.7084 2.691-1.5742zm6.9411-3.4258 0.61803-1h-2c-1.1 0-2.2781-0.45-2.618-1s-1.379-0.9478-2.309-0.884l-1.691 0.116 1.75 0.45733c0.9625 0.25152 1.75 1.0993 1.75 1.884v1.4267h1.941c1.0675 0 2.2191-0.45 2.559-1zm-10.833-0.66667c-0.36667-0.36666-0.96667-0.36666-1.3333 0-0.36666 0.36667-0.0667 0.66667 0.66667 0.66667 0.73333 0 1.0333-0.3 0.66667-0.66667zm56.333-3.3924c0-0.51754-0.6609-0.94098-1.4686-0.94098h-1.4686l0.5734 1.4943c0.3153 0.82184 0.9762 1.2453 1.4686 0.94098 0.4923-0.3043 0.8952-0.97672 0.8952-1.4943zm-65.177-2.8104 1.3229-0.83877-4.3681-0.59872c-2.4025-0.3293-5.0772-0.87082-5.9439-1.2034l-1.5758-0.60467-1.2455 3.2457 1.9735-0.62637c1.0854-0.34451 2.7701-0.16262 3.7437 0.4042 2.1615 1.2584 4.3336 1.3376 6.0931 0.222zm60.715-4.1923c0.3609-0.58393 1.7375-1.4728 3.059-1.9752 2.3579-0.89647 3.3505-2.9631 1.4231-2.9631-1.8235 0-9.0202 3.2115-9.0202 4.0252 0 0.7553 1.617 1.716 3.191 1.8958 0.38 0.0434 0.9862-0.39881 1.3471-0.98273zm2.9595-9.774c-0.7151-0.71516-3.4976 0.72697-3.4976 1.8128v1.0399l1.9545-1.2206c1.075-0.67134 1.7694-1.4058 1.5431-1.632zm10.248-0.84289c0.6896-0.64822 1.2539-1.4357 1.2539-1.75 0-0.89906-5.8231-0.66676-6.3928 0.25503-0.2809 0.45455-0.2525 1.814 0.063 3.0211l0.574 2.1946 1.6239-1.2711c0.8931-0.6991 2.1882-1.8014 2.8778-2.4496zm-19.11-1.0187c-0.4097-0.40967-1.1635-0.0829-1.6752 0.72619-1.5396 2.4346-1.0778 3.5165 0.7296 1.7091 0.9297-0.92977 1.3553-2.0257 0.9456-2.4353zm-274.65 71.679c-0.62946-1.1762-0.89895-2.7783-0.59886-3.5603l0.54562-1.4219h5.1895l-0.62672 6.4836-3.3651 0.63704zm69.777 1.4515c-0.38317-0.38316-0.24667-1.5375 0.30333-2.5652l1-1.8685h11.069l-0.6391 4.3921-5.5182 0.36915c-3.035 0.20304-5.8316 0.0557-6.2148-0.32752zm-83.112-5.2624c-0.91025-1.0058-1.6693-2.4683-1.6868-3.25-0.0548-2.4485-2.7392-5.1242-5.1528-5.136-1.2735-6e-3 -3.3279 0.317-4.5654 0.71834l-2.25 0.72971v-2.0096c0-1.1053 0.675-2.2687 1.5-2.5852 0.825-0.31658 1.4972-0.92722 1.4937-1.357-3e-3 -0.42976-1.3535-1.548-3-2.4849-1.6465-0.93692-2.9937-1.2744-2.9937-0.75s0.45 0.95349 1 0.95349 1 0.62393 1 1.3865v1.3865l-3.25 0.66096c-1.7875 0.36352-4.6226 0.90334-6.3003 1.1996l-3.0503 0.53864-1.2737-2.7954-1.2737-2.7954 1.8239-1.3341c1.0032-0.73375 2.8068-1.5809 4.0082-1.8826l2.1842-0.54846 1.0614-3.0446 1.0614-3.0446-2.1144-1.8338c-1.1629-1.0086-2.8484-2.024-3.7456-2.2565s-3.7462-0.97306-6.3312-1.6456c-2.585-0.67258-5.4336-2.0336-6.3304-3.0245l-1.6304-1.8016 0.66072-4.6649 10 0.70073 0.79969 1.3996c0.43983 0.7698 1.9233 1.3996 3.2965 1.3996h2.4968l1.7035 3.0099c0.93692 1.6554 2.3785 2.9536 3.2035 2.8848 0.825-0.0688 2.7375-0.0732 4.25-0.01l2.75 0.11528v12h8.7551l2.7449-3.3252-1.25-0.42071c-0.6875-0.2314-1.25-0.98908-1.25-1.6838 0-0.69466 0.66507-2.5962 1.4779-4.2256s1.6004-4.043 1.75-5.3636l0.27206-2.401-7.5-3.5958v-1.9921c0-1.0957 0.49307-1.9921 1.0957-1.9921s2.3525 0.74239 3.8885 1.6498l2.7928 1.6498 1.6341-0.62709c0.89879-0.34489 1.924-1.3824 2.2782-2.3055l0.64408-1.6784-4.3335-3.5091v-8.1794h1.0306c0.5668 0 2.4134 1.575 4.1036 3.5 1.6902 1.925 3.4004 3.5 3.8005 3.5 0.40009 0 1.3554-1.1733 2.1229-2.6074l1.3954-2.6074-2.1473-1.7388c-1.181-0.95633-2.2954-2.5792-2.4765-3.6063l-0.32916-1.8676 3.767-0.77056 4.2682 5.3528 5.3592-1.3451 0.6057-8.2925 3.5-0.6639v1.5733c0 0.86532 0.45 1.5733 1 1.5733s1 0.675 1 1.5v1.5l1.75 0.0136c0.9625 8e-3 2.7074 0.27058 3.8775 0.5846l2.1275 0.57094-0.46156-2.4145-0.46156-2.4145 2.6648-1.7461c1.4657-0.96034 3.3316-1.4902 4.1464-1.1775l1.4816 0.56854-0.64776 4.3195-0.64775 4.3195 11.064-1.2178 4.069-3.6824 1.474 1.2233 1.474 1.2233-2.3958 3.8364 1.0595 1.6797c0.58274 0.92384 1.7938 2.1429 2.6912 2.7089l1.6317 1.0292 1.9188-2.2124c1.0553-1.2168 2.6535-2.2124 3.5515-2.2124h1.6327v2.0352c0 1.1194-0.69553 3.0967-1.5456 4.3941l-1.5456 2.3589 1.3081 5.2118h7.7832v4.1291l-6.1102 5.1414 0.67838 1.6148c1.3252 3.1545 1.5097 9.1117 0.40875 13.2l-1.1168 4.1476-4.1801-0.73654c-4.3703-0.77004-21.476-1.7177-27.93-1.5474l-3.75 0.099v-1.3714c0-0.75424 1.0125-1.8596 2.25-2.4565l2.25-1.0851-2.1682-0.0677c-1.1925-0.0372-2.88 0.20546-3.75 0.53931l-1.5818 0.60698v5.0477l-3.75-0.61983c-2.0625-0.34091-5.2125-0.62479-7-0.63084l-3.25-0.011v-1.4167c0-0.77916 0.5625-1.6436 1.25-1.921l1.25-0.50439-2.1276-0.0789c-1.1702-0.0434-2.627-0.68079-3.2375-1.4164l-1.11-1.3374 2.2375-1.978c3.0467-2.6933 6.7914-4.9054 9.441-5.5771l2.2035-0.55858 3.593 2.6599 8.3972-1.1292 0.65476 2.6088 0.65475 2.6088 3.8379-2.054 12.245 1.3854-0.7228-2.8956c-0.39754-1.5926-1.8128-4.328-3.1449-6.0788-1.3322-1.7508-2.4221-3.5756-2.4221-4.0552 0-1.4857-9.6008-10.159-12.44-11.239-1.4795-0.5625-3.0149-1.0227-3.4121-1.0227-0.39715 0-0.78783 0.87264-0.86817 1.9392l-0.14607 1.9392 4.3665 0.66909-0.27221 1.2929-0.2722 1.2929 4.4951-0.63324 0.3032 1.5175 0.30321 1.5175-2.9328 1.7325c-1.6131 0.95286-3.4784 1.7325-4.1452 1.7325h-1.2123l0.51093-1.9538 0.51092-1.9538-4.8913 3.2049 1.0513 1.0513c1.6911 1.6911 1.2122 3.6514-0.89211 3.6514h-1.9435l-3.4436-5.8295-4.4442 2.912-1.6126-1.6126c-0.88695-0.88695-1.6126-2.3926-1.6126-3.3458 0-0.95324 1.5232-3.3961 3.3849-5.4286l3.3849-3.6954h2.0318c1.1175 0 2.2058 0.52191 2.4184 1.1598l0.3866 1.1598 3.641-2.0376-3.273-1.141c-1.8002-0.62754-4.9309-1.141-6.9571-1.141h-3.6841l-3.6742 3.6742c-2.0208 2.0208-4.9703 5.7333-6.5544 8.25l-2.8802 4.5758-0.0415 7.8431-0.0415 7.8431-1.5707 1.7356c-0.8639 0.9546-1.5707 2.2627-1.5707 2.9069v1.1713h-7.1667l0.33334 0.93992c0.18333 0.51696 1.8933 1.9872 3.7999 3.2673l3.4666 2.3274 0.88568 3.745c0.48712 2.0598 0.62878 4.4145 0.3148 5.2327-0.31398 0.81822-1.1902 1.4877-1.9473 1.4877s-2.1211-0.82293-3.0314-1.8287zm64-22.628-0.59215-1.5431h-2.5314c-1.3923 0-2.5314 0.45-2.5314 1s0.87344 1 1.941 1 2.2376 0.47994 2.6001 1.0665c0.94065 1.522 1.8206 0.31847 1.1138-1.5234zm-34.293-4.0431c0.31658-0.825 0.25222-1.484-0.14301-1.4646-0.39524 0.0195-1.8436 0.67854-3.2186 1.4646l-2.5 1.4291 5.286 0.0708 0.57561-1.5zm3.2295-19.242c-0.58764-0.58763-4.5911 3.0214-4.5911 4.1388 0 0.52365 1.1232-0.10314 2.4961-1.3928 1.3728-1.2897 2.3156-2.5254 2.0951-2.7459zm-6.5911 0.49733v-1l-1.5 1.2449c-0.825 0.68469-1.5 1.6949-1.5 2.2449v1l1.5-1.2449c0.825-0.68469 1.5-1.6949 1.5-2.2449zm1.6667-2.4218c-0.36667-0.36666-0.66667-0.0667-0.66667 0.66667 0 0.73333 0.3 1.0333 0.66667 0.66667 0.36666-0.36667 0.36666-0.96667 0-1.3333zm-4.4661 46.812-0.99506-2.8544-3.2278-0.64555c-1.7753-0.35505-5.0028-0.64555-7.1723-0.64555h-3.9446l0.6391-4.5 13-0.0202 4.3786-2.4852 0.63693 1.0306c0.35031 0.56681 0.74677 3.718 0.88103 7.0027l0.2441 5.9721h-3.445l-0.99507-2.8544zm47.184-6.5858c-0.30898-0.80521-0.27035-1.9356 0.0858-2.5119l0.64767-1.0479h10.945l0.59215 1.5431c0.32569 0.84872 0.42406 1.6862 0.21862 1.8611-0.20545 0.17489-2.9731 0.61083-6.1504 0.96876l-5.7768 0.65079zm96.865 0.69771-7.25-0.34511v-4.7233l8.25 0.5375c4.5375 0.29562 8.8125 0.98317 9.5 1.5279s1.25 1.6103 1.25 2.3679v1.3776l-2.25-0.1987c-1.2375-0.10928-5.5125-0.35399-9.5-0.54381zm87.177-0.58768c-0.33221-0.86572-0.31258-2.0456 0.0436-2.6219 0.74794-1.2102 5.4632-1.3773 7.2268-0.25618l1.1972 0.76108-0.74693 1.2086c-0.41081 0.6647-2.1801 1.4952-3.9318 1.8455l-3.1849 0.63698-0.60401-1.574zm-75.76-3.3365c-0.36667-0.36666-0.66667-1.4209-0.66667-2.3428v-1.6761l8.8848-4.5696 5.1152 0.97784v-3.0403c0-1.6722 0.5404-4.5348 1.2009-6.3613l1.2009-3.321h2.2991c1.2645 0 2.2991 0.36 2.2991 0.8s-0.54561 1.3456-1.2125 2.0125l-1.2125 1.2125-0.0375 6.1849-0.0375 6.1849-5 1.407c-2.75 0.77385-5.7814 1.81-6.7364 2.3027-2.0465 1.0556-5.1536 1.1723-6.0969 0.22901zm85.667 0c0.3667-0.36666 0.9667-0.36666 1.3334 0 0.3666 0.36667 0.067 0.66667-0.6667 0.66667-0.7333 0-1.0333-0.3-0.6667-0.66667zm-189.33-9.9562v-2.3772h9.0628l0.59215 1.5431c0.32569 0.84872 0.42406 1.6888 0.21862 1.8669-0.20545 0.1781-2.511 0.55342-5.1235 0.83404l-4.75 0.51022zm95.5-2.9175c-2.75-2.9908-5.15-4.9927-5.3333-4.4487-0.45695 1.3559-3.1667 1.255-3.1667-0.1179v-1.107l-3.2541 1.2487-1.2744-1.7429c-0.70094-0.9586-2.3313-1.7539-3.6229-1.7674l-2.3485-0.0245-0.65938-5.7749 4.1594 1.0877v-1.4064c0-0.77351-0.43588-1.4064-0.96862-1.4064-0.53273 0-0.74884-0.57272-0.48022-1.2727l0.48838-1.2727-3.0198-1.7838c-1.6609-0.9811-3.0198-2.2681-3.0198-2.86 0-1.4143-3.9494-4.8108-5.594-4.8108-0.70839 0-1.5661 0.45-1.906 1l-0.61803 1h1.559c2.119 0 1.9789 1.9274-0.19098 2.6268-6.6036 2.1284-12.094 5.0396-14.145 7.5-2.5846 3.1006-5.8224 3.7732-6.7336 1.3987l-0.56582-1.4745-6.1528 0.63828c-3.384 0.35105-7.629 1.4646-9.4332 2.4745s-3.4917 1.8362-3.75 1.8362-0.46958-1.1164-0.46958-2.481v-2.481l2.75-0.60257c1.5125-0.33142 3.425-0.84238 4.25-1.1355l1.5-0.5329-1.25-0.46691c-2.206-0.82398-1.3386-3.203 1.75-4.8002 1.65-0.85325 3-1.7691 3-2.0353 0-0.26617-2.2781 0.70725-5.0625 2.1632l-5.0625 2.6471-0.89585-0.89585c-0.49272-0.49272-0.57709-1.3752-0.18749-1.961 0.3896-0.58582 4.0019-2.831 8.0273-4.9893l7.3189-3.9242-2.3189-0.65266c-1.2754-0.35896-2.8705-0.69752-3.5447-0.75234-0.67416-0.0548-2.659 1.4753-4.4107 3.4003s-4.0126 3.5-5.0242 3.5h-1.8393v-1.461c0-1.7722 3.8685-5.539 5.6886-5.539 0.72129 0 1.3114-0.42883 1.3114-0.95295 0-1.6683-2.2886-6.047-3.1605-6.047-0.93378 0-1.157-3.3491-0.28158-4.2246 0.30685-0.30685 1.4822-0.31619 2.612-0.0207l2.0541 0.53716 1.4014 3.3541 1.4014 3.3541 3.2366-0.0318c1.7801-0.0175 4.0341-0.63691 5.0088-1.3765l1.7722-1.3447-1.0222-2.6886c-0.56222-1.4788-1.0222-3.5907-1.0222-4.6931v-2.0044l4.3818 0.6391 0.90207 3.4984c0.49614 1.9241 1.4227 3.8298 2.0591 4.2347 1.4062 0.89482 7.8918 0.99774 10.075 0.15988l1.5818-0.60699 0.0136-2.643c8e-3 -1.4536 0.29117-3.6791 0.63036-4.9455l0.61669-2.3025 2.1196 0.32621c1.1658 0.17942 2.0174 0.84736 1.8924 1.4843-0.125 0.63696-0.53005 3.0515-0.9001 5.3657l-0.67282 4.2076 7.1442-1.3403 0.637 1.0307c1.1094 1.795 2.2794 1.1219 2.9885-1.7193 0.66544-2.6664 3.2262-6.2658 4.4355-6.2347 0.32725 8e-3 1.1711 0.38086 1.8751 0.82764l1.2801 0.81232-1.524 2.9224c-0.83818 1.6073-1.5267 3.4788-1.5301 4.159-3e-3 0.68012 1.6656 1.9351 3.7088 2.7888 2.0432 0.85371 4.0774 2.0972 4.5203 2.7634l0.80536 1.2112 1.8259-2.1708c1.0042-1.194 2.6826-2.319 3.7297-2.5l1.9038-0.32916 0.32818 2.8718c0.1805 1.5795-0.157 3.357-0.75 3.95-1.1575 1.1575-1.464 4.9591-0.47917 5.9439 0.32945 0.32945 2.3838-0.33125 4.5651-1.4682l3.9661-2.0672 2.0551 2.0551-1.1278 2.1074c-0.62031 1.159-1.7604 2.1074-2.5336 2.1074-2.4994 0-2.6668 1.8877-0.43492 4.9064l2.1805 2.9492-0.61667 1.607c-0.33916 0.88386-0.15495 3.7599 0.40937 6.3912l1.026 4.7842-1.1066 2.9106c-1.0036 2.6396-2.6736 4.4788-3.9815 4.3847-0.275-0.0198-2.75-2.483-5.5-5.4738zm-46.5-19.785c0-1.9632 3.8275-5.0066 9.6828-7.6993 2.8506-1.3109 4.9643-2.737 4.6971-3.1693-0.72356-1.1708-10.406 3.9536-14.091 7.4579-1.7661 1.6793-2.977 3.4319-2.691 3.8948 0.80988 1.3104 2.4021 0.98951 2.4021-0.48414zm0.51549-8.4317c1.0915-0.69157-0.79521 0.0859-4.1926 1.7276-3.3974 1.6418-6.4926 3.4954-6.8781 4.1192s-0.14086 1.4803 0.5437 1.9034l1.2447 0.76925 3.6489-3.631c2.0069-1.9971 4.542-4.1969 5.6334-4.8884zm6.9097-4.3637c-0.64806-1.0486-2.4252-0.20682-2.4252 1.1487 0 0.50028 0.67242 0.65157 1.4943 0.3362s1.2407-0.98359 0.9309-1.4849zm-6.9252 0.1211 0.61803-1-6.618 0.1406 2 0.85943c1.1 0.47269 2.3109 0.89106 2.691 0.92971 0.38004 0.0387 0.9691-0.37971 1.309-0.92971zm-38.212 33.993-0.52487-2.0071-7.763-1.2414v-3.7444h12.755l2.4883 2.9982-2.486 6.0018h-3.9446zm114.27-2.9026c-0.30924-0.50036-0.30879-1.5703 1e-3 -2.3776l0.56328-1.4679 5.9528-0.67348c3.274-0.37041 6.4208-0.38424 6.9928-0.0307 1.9307 1.1932 0.355 2.7621-4.1172 4.0991-5.2178 1.56-8.6065 1.7225-9.3926 0.45056zm-190.01-3.8819c-0.29792-0.29791-0.54167-1.5219-0.54167-2.72 0-2.226 2.8067-5.4883 4.7218-5.4883 1.4282 0 2.4655 2.8926 1.5564 4.3402-0.40055 0.63787-0.60826 1.891-0.46156 2.7848l0.26672 1.625h-2.5c-1.375 0-2.7438-0.24375-3.0417-0.54167zm8.5373-3.7917 0.0789-1.9167 0.52522 1.3125c0.28887 0.72187 0.25335 1.5844-0.0789 1.9167-0.3323 0.33229-0.56864-0.25834-0.52522-1.3125zm22.544-0.95619c-1.0777-2.8084-0.6821-5.2239 0.95858-5.8535 0.86998-0.33385 1.7971-0.60699 2.0604-0.60699s0.33892 1.6527 0.16822 3.6727c-0.32983 3.903-2.1487 5.4939-3.1872 2.7878zm43.92 0.60862c-0.31644-0.512-0.23049-1.1248 0.19098-1.3617 0.42147-0.23697 1.9453-0.71195 3.3863-1.0555l2.62-0.62469 1.3421-8.3929-2.5411-2.1835c-1.3976-1.2009-2.5411-2.6936-2.5411-3.3171 0-1.1051 1.971-1.5688 5-1.1762 0.825 0.10691 2.2466 0.94773 3.1591 1.8685l1.6591 1.6741-1.0078 6.5c-0.55429 3.575-1.4685 7.0625-2.0315 7.75-1.1864 1.4486-8.3843 1.6973-9.2361 0.3191zm44.752-2.7425-0.64215-1.6734 3.4235-2.8601c1.883-1.573 5.1255-3.3706 7.2056-3.9945l3.7821-1.1344 2.1789 2.1789-10.35 5.2448 0.62083 1.9561 0.62084 1.9561h-6.1976zm11.705 0.51783c0-0.63558 1.1498-2.6631 2.5552-4.5056l2.5552-3.35 1.9448 1.0408c1.0696 0.57246 1.9448 1.892 1.9448 2.9324v1.8916l-3.1536 1.5732c-1.7345 0.86528-3.7595 1.5732-4.5 1.5732s-1.3464-0.52002-1.3464-1.1556zm-160.29-4.8518-0.55308-2.115 1.5583-0.59798c1.9251-0.73872 4.7864 0.95265 4.7864 2.8293v1.391l-5.2386 0.60762zm-11.708-4.9252v-1.9326l-1.75-0.51433c-0.9625-0.28288-4.5475-0.43321-7.9667-0.33406l-6.2167 0.18028-2.2284-2.2284 2.0809-4.3069c1.1445-2.3688 2.0809-4.4962 2.0809-4.7275s-1.2039-0.11842-2.6753 0.25089l-2.6753 0.67146-6.7029-3.6097 0.58076-3.0164 15.276-0.0916 4.2489-2.9542c2.3369-1.6248 7.2187-3.8876 10.848-5.0284l6.5996-2.0742 0.32332-1.6758 0.32333-1.6758h-2.5733c-1.4153 4e-5 -2.5733 0.45004-2.5733 1s-0.675 1-1.5 1h-1.5l-0.0782-4.5-1.4422 3.3205-1.4422 3.3205-1.0186-0.62954c-0.56032-0.34625-1.0187-1.2921-1.0187-2.1019s-0.59605-1.7011-1.3246-1.9806-3.4468 0.40142-6.0407 1.5133l-4.7161 2.0216 0.29068 2.7681 0.29069 2.7681-4.409 0.62717-5.7771-4.2712-8.157-0.2545c-4.4863-0.13998-8.157-0.0853-8.157 0.12157 0 0.20685 1.508 1.9288 3.351 3.8265 1.8431 1.8977 4.0449 3.4504 4.893 3.4504 1.5914 0 2.756 1.9957 2.756 4.7227v1.5592l-8.25-0.54349c-4.5375-0.29893-9.0792-0.87649-10.093-1.2835l-1.8426-0.73997 0.44134-3.007 0.44134-3.007-1.422-2.8505-1.422-2.8505h-6.8535v1.5c0 0.825 0.45 1.5 1 1.5s1 0.675 1 1.5v1.5h4v6.7367l-4.205 0.56401c-2.3127 0.3102-4.6481 0.29014-5.1897-0.0446-0.54159-0.33473-3.1519-0.68484-5.8006-0.77804l-4.8159-0.16945-1.1168 1.3457c-0.61426 0.74015-1.9913 1.3457-3.0601 1.3457-1.0688 0-2.9262-0.53332-4.1276-1.1852s-3.7223-1.441-5.6021-1.7536c-1.8798-0.31265-3.5947-1.0989-3.8108-1.7471-0.21609-0.64827 0.62787-1.725 1.8755-2.3927 2.7319-1.4621 7.721-1.4536 9.1902 0.0156 1.551 1.551 3.663 1.299 3.663-0.43703 0-0.825 0.40185-1.5 0.89301-1.5s1.1827-0.75489 1.5368-1.6775l0.64373-1.6775-2.6792-2.6792-9.4472-0.034c-5.1959-0.0187-12.138 0.4322-15.427 1.002l-5.9794 1.0361-2.7365-2.7365 2.2656-4.2334h2.2648c1.2456 0 2.8048 0.54 3.4648 1.2l1.2 1.2v-1.7c0-1.8884 2.6164-2.3506 3.2109-0.5673l0.37756 1.1327 2.2058-0.70008c1.2132-0.38505 2.2058-1.3448 2.2058-2.1327v-1.4326h-2.3089c-1.2699 0-3.0533-0.5625-3.9631-1.25l-1.6542-1.25 0.2131-8 0.21309-8 4.5-0.6391v2.384l1.5879-1.3178 1.5879-1.3178-4.3243-1.5997 0.6823-3.5095 11.684 0.0339c6.426 0.0186 11.941 0.29174 12.257 0.60688 0.31514 0.31513 0.28924 1.3124-0.0575 2.2161-0.34679 0.90371-1.4824 1.6431-2.5235 1.6431-1.0412 0-1.893 0.45-1.893 1 0 1.5586 4.6103 1.1744 6-0.5 0.68469-0.825 2.2148-1.5 3.4002-1.5 1.1854 0 2.9303 0.90514 3.8776 2.0114 1.8878 2.2048 2.3032 6.5115 0.72224 7.4886l-1 0.61803v14.981l4.75-0.07c2.6125-0.0385 9.09 0.11483 14.394 0.3407l9.6444 0.41067-0.14445-5.6398-0.14446-5.6398-1.25-0.12533c-0.6875-0.0689-2.15-0.18158-3.25-0.25033l-2-0.125v-4h7.1391l-0.6391-4.5-8.5-0.615v-2.885h-4.214l0.56332-1.468c0.30982-0.80739 0.11637-1.7442-0.42989-2.0818l-0.99321-0.61383 4.0369-3.6901c2.2203-2.0295 4.0369-4.0878 4.0369-4.5738s1.1499-2.3914 2.5554-4.234c1.4055-1.8427 2.2789-3.7976 1.941-4.3444-0.33792-0.54677-1.8253-1.001-3.3054-1.0094-1.48-8e-3 -3.319-0.41301-4.0867-0.89908l-1.3957-0.88376 1.3247-3.4522 8.2044 1.3119-0.61882-1.6126c-0.34034-0.88693-0.61881-2.2508-0.61881-3.0308v-1.4182h-7.9372l0.54097-1.4098c0.29754-0.77537 1.6334-1.6839 2.9686-2.019 1.3352-0.33512 2.4276-1.0507 2.4276-1.5902s-1.35-0.98095-3-0.98095h-3v-1.5c0-0.825 0.45-1.5 1-1.5s1-0.48575 1-1.0795v-1.0794l-6 1.3178v-3.1589h4.6667c2.5667 0 4.4792-0.18427 4.25-0.40948-0.22917-0.22522-6.7167-0.73114-14.417-1.1243-17.311-0.88383-18.643-0.91851-25.679-0.66824l-5.6786 0.20201-1.5 1.5c-0.825 0.825-1.7893 1.5-2.1429 1.5s-1.3581-0.71524-2.2323-1.5894l-1.5894-1.5894-4.3884 0.65808c-2.4136 0.36194-5.7162 0.36642-7.3392 0.01l-2.9508-0.64814v-3.8411l1.75-0.0638c2.5697-0.0937 7.0332-0.5738 13.25-1.4251 5.0165-0.68692 6.9431-1.7244 6.9847-3.7611 8e-3 -0.41254-0.65969-0.75004-1.4847-0.75004h-1.5v-2.5314c0-1.3923 0.5625-2.7401 1.25-2.9952 1.8265-0.67771 7.0543 0.93938 7.5161 2.325l0.39644 1.1893-5.6626 2.2507 1.2354 0.45928c0.67948 0.2526 2.693-0.57859 4.4744-1.8471l3.239-2.3064 4.5256-0.1786c2.4891-0.0982 5.2006-0.2229 6.0256-0.27706l1.5-0.0985-3-2.4304c-1.65-1.3367-4.73-2.7312-6.8444-3.0989l-3.8444-0.66848-1.3936-3.3352-1.3935-3.3352-7.324 1.1885-2.6662-3.6463 2.0812-2.5077 5.4424 0.56171 5.4424 0.56175v-1.6399c0-0.90194-0.1125-1.9147-0.25-2.2507s-2.374-0.68151-4.9701-0.76799l-4.7201-0.15724-3.0096-3.964 5.1384-4.5662-1.1172-2.9114-2.6008 0.98882c-1.4304 0.54384-3.7076 0.98881-5.0604 0.98881h-2.4596l-1.901 5h-5.099l-1.0017-2.6346-1.0017-2.6346-11.076 1.3018 0.31457-3.2663 0.31458-3.2663 2.5 0.23074c1.375 0.12691 7.5379-0.0284 13.695-0.34523l11.195-0.57597 0.60938-7.3095 7.5-0.62073v-8.9288l2.3414-0.89019c1.2878-0.4896 4.3602-1.1929 6.8275-1.5629l4.4862-0.67274 1.6208 2.4736 1.6208 2.4736-0.27731 10.61c-0.15252 5.8354-0.54235 10.875-0.86628 11.199-0.32394 0.32393 0.94912 2.2196 2.829 4.2127 1.8799 1.993 3.418 3.9644 3.418 4.3809s1.3424 2.0102 2.983 3.5417c1.6406 1.5315 3.7782 3.5989 4.75 4.5942 0.97186 0.99536 3.4545 3.4802 5.517 5.5219l3.75 3.7121v6.4562h1.2603c0.69316 0 3.1682 1.8518 5.5 4.1151l4.2397 4.1151v5.8127l-5.1633 2.3526 4.1633 1.5401 0.15152 2.7822c0.0833 1.5302 0.19584 7.2272 0.25 12.66l0.0985 9.8777 1.9836 1.1223c1.091 0.61727 3.9668 2.8098 6.3908 4.8723 2.424 2.0625 4.8135 3.75 5.3101 3.75s2.0562 1.0694 3.4658 2.3765l2.5629 2.3765-0.67397 2.1235c-0.37069 1.1679-1.2511 2.1235-1.9564 2.1235h-1.2824l0.4759 7.75c0.26175 4.2625 0.58386 7.8772 0.7158 8.0326 0.32412 0.38189 22.185-4.2996 31.508-6.7475 4.125-1.083 10.875-2.2058 15-2.4949s9.975-0.92712 13-1.4177c29.05-4.7109 41.149-6.2658 50.769-6.5245 6.198-0.16664 11.56-0.59438 11.917-0.95055 0.35617-0.35616 2.0778-0.64757 3.8259-0.64757h3.1783l1.6746-1.8504c0.921-1.0177 4.9282-2.9302 8.905-4.25 3.9767-1.3198 7.4565-2.6958 7.7327-3.0578s2.1963-0.976 4.2667-1.3644l3.7644-0.7062 6.0779 2.5176 1.1444-1.1444c0.62941-0.62941 3.025-1.1444 5.3235-1.1444h4.1792l5.8708-2.5797c3.229-1.4188 6.7708-2.9378 7.8708-3.3755s3.2587-1.3018 4.797-1.9203c3.2975-1.3257 9.703-1.4992 9.703-0.26276v0.86175l18.838-0.45997 3.5812-2.2133c1.9697-1.2173 3.5812-2.5899 3.5812-3.0502 0-1.2955 6.4926-5 8.7631-5h2.0271l9.528-9h2.1409c1.1775 0 2.5684-0.35814 3.0909-0.79586s2.75-1.4046 4.95-2.1486c2.2-0.74402 4.6951-2.1482 5.5446-3.1203 0.84952-0.97213 3.1492-2.0685 5.1104-2.4365l3.5658-0.66895 1.1957 3.116-3.3791 1.6035c-4.947 2.3475-14.999 12.28-17.505 17.298-1.1943 2.3908-2.0192 4.4992-1.833 4.6854s2.5801-2.6673 5.3198-6.341c2.7397-3.6738 5.8043-6.8346 6.8103-7.024 2.9218-0.55022 6.6709 0.74395 6.6709 2.3027 0 0.78758-4.5 5.954-10 11.481s-10 10.469-10 10.982-0.9 1.2182-2 1.5673c-3.5906 1.1396-2.1021 2.3222 2.25 1.7877l4.25-0.52199 5-4.9711-4.5 1.3402 0.017-1.3174c9e-3 -0.72457 3.1196-4.4183 6.9116-8.2083l6.8946-6.8909 1.6517 0.63383c0.90845 0.34861 1.3716 1.087 1.0293 1.6409-0.98092 1.5872 1.1125 1.1737 2.4956-0.49294 0.68469-0.825 2.0394-1.5 3.0106-1.5s5.7526-1.1554 10.626-2.5675c4.8729-1.4121 9.2082-3.1899 9.6339-3.9506 0.42573-0.76073 1.5516-2.1677 2.502-3.1266l1.7279-1.7434-3.3538 1.2692-2.3141-2.7883 1.809-3.0625c0.99497-1.6844 3.549-4.214 5.6757-5.6213 2.1267-1.4074 3.6494-2.7761 3.3838-3.0417s-2.7191 0.89313-5.4524 2.5749c-2.7332 1.6818-5.3697 3.0678-5.8589 3.08-0.48917 0.0122-2.0144 0.90222-3.3894 1.9778l-2.5 1.9555-7.4619 0.0444-0.64583-2.5732-0.64584-2.5732 1.1268-1.1268 1.1268-1.1267 1.2 1.2c1.379 1.379 4.9522 1.5894 6.35 0.37388 0.5225-0.45437 2.8913-1.4359 5.264-2.1812l4.314-1.3551 2.6522-4.5688c1.4587-2.5128 3.252-5.1856 3.9851-5.9394 0.7331-0.75379 1.596-2.6861 1.9176-4.294l0.5847-2.9235 4.2963-2.956c2.363-1.6258 4.762-2.956 5.3311-2.956 0.569 0 1.539-0.94241 2.1554-2.0942l1.1208-2.0942 1.9144 0.50062c1.0529 0.27534 1.9144 0.13875 1.9144-0.30354 0-0.4423 1.8424-2.8627 4.0943-5.3788l4.0944-4.5746 3.6556-0.63041c5.6177-0.96877 10.897-3.6711 12.341-6.317 0.7178-1.3157 3.0558-3.4973 5.1954-4.848l3.8902-2.4558 2.8153 0.56305 2.8152 0.56306 5.2995-1.8371c2.9147-1.0104 8.4495-3.0568 12.3-4.5477 3.85-1.4908 7.7807-2.9492 8.735-3.2408s2.4092-0.27149 3.2332 0.0447l1.498 0.57487-0.5901 1.5379c-0.3246 0.84582-1.1045 1.5395-1.7331 1.5416-0.6287 2e-3 -3.7823 1.3181-7.0081 2.9245-3.2258 1.6064-6.471 2.6882-7.2117 2.404-0.7406-0.28421-3.9514 0.69694-7.1349 2.1803-3.1836 1.4834-6.6883 3.0439-7.7883 3.4678-6.2193 2.3965-7.5 3.0661-7.5 3.9207 0 0.51914-1.575 1.4637-3.5 2.099s-3.5 1.5702-3.5 2.0776c0 0.50735-0.6485 0.92245-1.441 0.92245-0.7926 0-1.7664 0.52647-2.1641 1.1699l-0.723 1.1699 1.914-0.78339c1.0527-0.43087 2.7016-1.0098 3.6641-1.2866l1.75-0.50318-1e-4 1.3666c0 0.75165-1.575 2.6233-3.5 4.1593-1.9249 1.5359-3.4999 3.6187-3.4999 4.6284v1.8358l-5.7462 4.3716c-3.1604 2.4044-6.6202 5.1591-7.6885 6.1216-1.0684 0.9625-2.4629 1.75-3.0989 1.75-0.6361 0-1.839 0.7875-2.6733 1.75-0.8342 0.9625-2.8165 5.0679-4.405 9.1232l-2.8881 7.3732-3 1.837c-4.7471 2.9068-8.6085 6.1416-8.0262 6.7238 0.2937 0.29374 1.5448-0.39987 2.7801-1.5413 1.2353-1.1415 3.7509-2.9058 5.5901-3.9206l3.3441-1.8452 3.0455-7.25 3.0456-7.25h3.7208v1.4696c0 0.80827-0.9 3.072-2 5.0304s-1.9696 4.1096-1.9324 4.7804c0.037 0.67077 0.556 0.20708 1.1529-1.0304l1.0851-2.25h1.8472c1.0159 0 1.8472 0.52296 1.8472 1.1621s-1.1961 3.203-2.6579 5.6974l-2.6578 4.5352 1.1578 0.38594c2.1714 0.72379 1.1632 2.8961-2.5803 5.5596-2.0559 1.4628-3.2835 2.6597-2.7278 2.6597s2.6632-1.3625 4.6834-3.0277 4.2325-4.5746 4.9162-6.4653c1.2398-3.4285 3.2323-5.0169 4.9566-3.9512 0.5004 0.30925 0.869 1.3232 0.8192 2.2532-0.05 0.93004-1.3069 3.941-2.7935 6.691l-2.7028 5-2.5161 0.0983c-2.1626 0.0845-4.9041 1.5909-16.548 9.0929l-1.8488 1.1912 1.7651 0.0588c0.9708 0.0324 4.1572-1.2912 7.0809-2.9412 2.9236-1.65 6.6132-3 8.1991-3h2.8834l-1.5232 1.5233c-1.848 1.848-7.0815 4.8963-12.155 7.08-2.0625 0.88766-3.75 2.0151-3.75 2.5054 0 1.4062 3.2207 1.0314 6.5-0.75641 6.9451-3.7863 12.586-6.3522 13.964-6.3522h1.4735l-0.4858 1.25c-0.4594 1.1821-5.6184 4.5375-11.701 7.6105-1.5125 0.7641-2.75 1.7831-2.75 2.2644 0 0.48131-0.8735 0.8751-1.941 0.8751-1.0676 0-2.2012 0.42108-2.5193 0.93573l-0.5783 0.93573 2.9553-0.84757c3.4017-0.9756 17.093-7.9731 18.586-9.4993 0.5513-0.56354 1.9013-2.7607 3-4.8825 1.8754-3.622 5.0553-5.9621 6.7476-4.9657 0.985 0.57999 0.9729 4.3236-0.014 4.3236-0.4202 0-1.8587 1.7713-3.1967 3.9363-1.338 2.165-3.5818 4.5267-4.9861 5.2484-1.4043 0.72167-2.7783 1.5639-3.0533 1.8716-0.8453 0.94576-13.792 6.9384-15.187 7.0297-0.7222 0.0473 0.037 0.5009 1.687 1.0081l3 0.9221 4-1.704c2.2-0.93719 5.1945-2.5158 6.6544-3.508s3.5974-1.8041 4.75-1.8041h2.0956v1.5c0 0.825-0.675 1.5-1.5 1.5s-1.5073 0.3375-1.5162 0.75c-0.01 0.4125-3.0981 2.284-6.8649 4.1588l-6.8486 3.4088 0.4647 1.7771 0.4648 1.7771-7.4597 1.3994 2.9821 1.2539c1.6402 0.68965 4.121 1.0362 5.5128 0.77016 1.3918-0.26606 2.8209-0.014 3.1758 0.56025 0.3549 0.5742-0.1549 1.4657-1.1328 1.9811-0.9779 0.51542-6.8788 1.7473-13.113 2.7376l-11.335 1.8005-1.9014-1.1874c-1.0458-0.65308-2.9465-1.1874-4.2238-1.1874s-3.196 0.66069-4.2636 1.4682c-1.0676 0.8075-2.9536 1.4825-4.1911 1.5l-2.25 0.0318v-1.4167c0-0.77916 1.2375-1.8914 2.75-2.4716l2.75-1.0549-9.482 1.1675-8.2303-3.2931-1.2359 1.0257c-0.67973 0.56413-1.4587 0.80283-1.7311 0.53045s-3.8869-0.92525-8.0322-1.4508l-7.537-0.95559-7.2044-4.2507-8.9749 0.66972-0.11049-1c-0.0608-0.55 1.8094-1.559 4.156-2.2422 2.3466-0.68318 4.7201-1.6957 5.2744-2.25l1.0078-1.0078h-1.665c-0.91578 0-3.5933 0.63397-5.95 1.4088-2.3567 0.77485-5.7786 1.7174-7.6043 2.0947l-3.3193 0.68585 3.4108 3.769-1.5516 0.59542c-0.8534 0.32749-2.8272 0.44937-4.3861 0.27085l-2.8345-0.32457v-1.4863c0-0.81747-0.9-1.65-2-1.8501s-2.9-1.4448-4-2.7661l-2-2.4023-6 1.8138 6.5 2.6295v3.8171l-3.7874-0.60564c-2.0831-0.3331-7.8206-0.90867-12.75-1.279l-8.9626-0.67342-0.73469-1.0988c-1.2559-1.8782-0.84982-2.5976 1.4847-2.6302l2.25-0.0314 3.5934-4.9372h-3.0467c-1.6757-3e-5 -3.0467 0.44997-3.0467 0.99997s-0.92795 1-2.0621 1c-1.1342 0-4.2842 0.7268-7 1.6151l-4.9379 1.6151v3.4314l-5.25-0.0745c-2.8875-0.041-8.5888 0.14385-12.67 0.41067l-7.4195 0.48514-0.37138-1.1141c-0.20425-0.61277 0.63988-1.3786 1.8758-1.7018 1.236-0.32322 1.9633-0.8716 1.6162-1.2186-0.34703-0.34704-1.6221-0.31641-2.8334 0.0681l-2.2024 0.69902 0.65491 6.3923 0.65491 6.3923h-4.9229l-0.31642-2.6962-0.31642-2.6962-11.928-4.6077h-5.352c-2.9436 0-6.2224 0.46583-7.2862 1.0352l-1.9343 1.0352v5.9128l24-1.2905v3.5947c0 1.9771 0.45 3.8728 1 4.2127s1 1.4915 1 2.559v1.941h-8.2303l-6.7164-7.3326-3.7767 1.1162c-2.0772 0.61389-7.2859 1.4278-11.575 1.8086l-7.7982 0.69243 1.1768 5.3578-4.9285 2.2456-0.95354-1.194c-1.725-2.1599-2.3263-5.5863-1.3127-7.4802 1.0621-1.9846 7.1321-4.2137 11.474-4.2137h2.6277l-0.41941-2.25c-0.23068-1.2375-0.45286-2.6356-0.49373-3.107-0.0409-0.47134-0.7349-0.6035-1.5423-0.29367-0.80739 0.30982-1.7474 0.11111-2.089-0.44157l-0.62106-1.0049-1.2893 1.0701-1.2893 1.07-5.4865-2.086-2.7313 2.2667-1.7627-0.75538c-2.3969-1.0272-7.6075-0.51787-8.4411 0.82503l-0.67838 1.0929-2.7237-1.241c-1.4981-0.68256-3.0547-0.88198-3.4592-0.44314-0.40451 0.43883-1.0414 1.8104-1.4153 3.0479l-0.67979 2.25h6.8921l1.2426 3c0.68345 1.65 1.6639 3 2.1788 3h0.93618l-0.615 8.5-7.3301 0.6106-0.65233-2.0553c-0.35878-1.1304-1.028-2.0553-1.4871-2.0553-0.45914 0-1.3127-1.3709-1.8968-3.0465l-1.062-3.0465-2.2858 1.4341c-1.2572 0.78877-5.1743 1.7406-8.7048 2.1153l-6.419 0.68116-4.7978 2.4312c-2.6388 1.3372-5.3398 2.4312-6.0023 2.4312-0.66247 0-2.0107 0.72958-2.996 1.6213l-1.7915 1.6213-1.6011-0.6144-1.6011-0.61441 0.62774-6.4643 7.2441-4.0494-2.988-4.5h-5.7561v2.2332l-5-0.95581v2.7227h-2c-1.1 0-2-0.45-2-1 0-1.4391-5.5613-1.2343-6.7889 0.25-0.56858 0.6875-0.78671 2.5372-0.48473 4.1106l0.54906 2.8606 9.5146-1.2622 1.105 3.1697c1.3223 3.7931 1.4179 6.5599 0.25152 7.2807-0.83168 0.51401-5.9954-0.86651-9.2851-2.4824l-1.6386-0.80484-5.3614 1.4205c-2.9488 0.78129-6.0972 1.1899-6.9965 0.90796l-1.6351-0.51256-5.1007 6.0618h-8.1291v1.8c0 0.99-0.5325 2.3325-1.1833 2.9833-0.65084 0.65084-0.85137 1.5153-0.44563 1.921s1.0956 0.15866 1.533-0.54907l0.79528-1.2868 15.388-1.1638 0.99134-1.8523c0.54524-1.0188 1.6505-1.8524 2.4562-1.8524h1.4648v3.6826l17.5-0.1826-0.34507 2c-0.18979 1.1-0.52729 2.1875-0.75 2.4167-0.22271 0.22916-1.723 0.41666-3.334 0.41666h-2.9291l-0.67222 4.8877-0.67223 4.8877-7.2974-0.6086v-2.9804l5.9395-1.0288-2.8546-2.2454c-1.57-1.235-3.3042-2.2454-3.8537-2.2454s-2.8097 0.54247-5.0227 1.2055l-4.0236 1.2055-1.4644-2.2055-1.4644-2.2055h-2.378c-1.3079 0-2.3729 0.3375-2.3666 0.75 6e-3 0.4125 1.8147 1.614 4.0186 2.6699 2.2039 1.056 4.4859 2.4969 5.0711 3.202l1.064 1.2821-1.3 4.096h-3.8652zm-65.193-22.594c-0.30789-0.30789-0.86705 0.24711-1.2426 1.2333l-0.68278 1.7931 1.2426-1.2333c0.68342-0.67834 0.99067-1.4852 0.68278-1.7931zm-1.1402-6.1402c-0.36667-0.36666-0.66667-0.0667-0.66667 0.66667 0 0.73333 0.3 1.0333 0.66667 0.66667 0.36666-0.36667 0.36666-0.96667 0-1.3333zm46.795-9.5833c0.9726-1.5125 1.4972-2.75 1.1659-2.75-0.70554 0-5.6276 7.6116-5.6276 8.7026 0 0.74027 1.1111-0.74215 4.4617-5.9526zm83.331-1.8936 6.2929-2.048-1.1994-1.4452-1.1994-1.4452-5.8872 0.41794c-3.2379 0.22987-6.1675 0.69831-6.5102 1.041-0.34268 0.34268-2.8066 0.62305-5.4754 0.62305h-4.8524l0.65731 2.75c0.36152 1.5125 0.80983 3.0279 0.99625 3.3676 0.49179 0.89612 9.8798-0.88625 17.177-3.2613zm-129.98-4.8564c-0.13033-3.3-0.48395-6-0.78583-6s-1.1346 0.93784-1.8504 2.0841l-1.3015 2.0841 0.68661 3.1659c0.37765 1.7412 1.1926 3.4965 1.811 3.9006s1.2487 0.74158 1.4007 0.75c0.15201 8e-3 0.16975-2.6847 0.0394-5.9847zm-24.731-2.45c1.1067-1.1486 1.198-2.5529 0.16532-2.5422-1.33 0.0138-3.1527 5.0853-2.4495 6.8155l0.68147 1.6767 0.34371-2.5c0.18903-1.375 0.7556-2.9275 1.259-3.45zm391.64 1.8458c-0.3323-0.33229-1.1948-0.36781-1.9167-0.0789l-1.3125 0.52522 1.9167 0.0789c1.0541 0.0434 1.6448-0.19293 1.3125-0.52522zm-9.4792-2.0581c-0.6875-0.27741-1.8125-0.27741-2.5 0s-0.125 0.50439 1.25 0.50439 1.9375-0.22698 1.25-0.50439zm14.632-3.0877c-0.3257-2.0624 0.302-3.1735 2.1184-3.75 1.1-0.34913 2-1.0258 2-1.5036 0-0.47789-2.1716 0.11254-4.8257 1.3121l-4.8257 2.181 2.0757 1.1573c2.5266 1.4086 3.6144 1.5985 3.4573 0.60337zm-28.632-0.91228c-0.6875-0.27741-1.8125-0.27741-2.5 0s-0.125 0.50439 1.25 0.50439 1.9375-0.22698 1.25-0.50439zm-23.583-1.0044c-0.36667-0.36666-0.96667-0.36666-1.3333 0-0.36666 0.36667-0.0667 0.66667 0.66667 0.66667 0.73333 0 1.0333-0.3 0.66667-0.66667zm15.333-0.33333 2.5-0.80064-2.5-0.0294c-1.375-0.0162-3.4 0.35734-4.5 0.83003l-2 0.85943 2-0.0294c1.1-0.0162 3.125-0.38968 4.5-0.83003zm26.074-0.41097-1.171-1.411 1.0326-0.6382c0.5679-0.35101 3.3647-1.3307 6.2149-2.1772l5.1824-1.539-2.725-1.6842-2.0304 1.0866c-1.1167 0.59764-3.4759 1.4126-5.2426 1.8111l-3.2123 0.72448-0.56083-1.4615-0.56082-1.4615 3.9995-1.5711c2.1998-0.86409 3.9996-1.9528 3.9996-2.4194s-0.39-0.84831-0.8667-0.84831c-0.4766 0-3.1866 0.96414-6.0221 2.1425l-5.1555 2.1425 1.2583 3.9646-2.714 1.7197 2.0589 0.0153c1.1324 8e-3 2.9324 0.676 4 1.4835 2.4865 1.8807 4.0374 1.9552 2.515 0.12083zm-36.574-0.58903 2-0.85943-1.5-0.055c-0.825-0.0302-2.175 0.38124-3 0.9144-1.828 1.1813-0.24909 1.1813 2.5 0zm15.5-1.5c0-0.825-0.17686-1.5-0.39301-1.5-0.21616 0-0.65203 0.675-0.96862 1.5-0.31658 0.825-0.13972 1.5 0.39301 1.5 0.53274 0 0.96862-0.675 0.96862-1.5zm-135-0.5c0.825-0.53316 1.05-0.96937 0.5-0.96937s-1.675 0.43621-2.5 0.96937-1.05 0.96937-0.5 0.96937 1.675-0.43621 2.5-0.96937zm23.625 0c0.75625 0 1.375-0.48575 1.375-1.0795v-1.0794l-3.25 0.69422c-1.7875 0.38182-3.925 1.1225-4.75 1.646l-1.5 0.9518 3.375-0.56657c1.8562-0.31161 3.9938-0.56657 4.75-0.56657zm38.042 0.33333c-0.36667-0.36666-0.96667-0.36666-1.3333 0-0.36666 0.36667-0.0667 0.66667 0.66667 0.66667 0.73333 0 1.0333-0.3 0.66667-0.66667zm82.155-1.8333c1.0816-1.375 2.4018-2.5 2.9339-2.5h0.96741l-0.47294-2.474-0.47293-2.474 4.6116-1.2334c2.5364-0.67838 4.6116-1.5635 4.6116-1.967 0-1.6726-2.1783-1.864-5.2389-0.46041-1.7936 0.82256-4.1448 1.6335-5.2248 1.8022l-1.9638 0.30662-0.33673-1.6314-0.33674-1.6314 5.0505-1.8161c2.7778-0.99887 5.0505-2.3398 5.0505-2.9799v-1.1638l-6.75 2.3188c-3.7125 1.2754-7.5375 2.338-8.5 2.3613-0.9625 0.0233-1.75-0.40754-1.75-0.95754 0-1.154-3.6671-1.374-4.1667-0.25-0.40383 0.90862-7.4686 6.25-8.2666 6.25-0.3117 0-1.4159 0.84922-2.4539 1.8872s-2.7217 2.3542-3.7417 2.925-1.5972 1.2951-1.2828 1.6096c0.31446 0.31446 3.2357-1.4398 6.4917-3.8984 5.6522-4.2679 9.4199-5.6772 9.4199-3.5234 0 0.55 0.62686 1 1.393 1 0.76616 0 1.6755 0.73625 2.0208 1.6361l0.62784 1.6361 3.8838-3.5148 3.0745 1.1798v2.8089c0 1.5449-0.70052 3.809-1.5567 5.0314-2.1428 3.0593-0.055 2.8156 2.378-0.27749zm-366.82 0.5c0-0.55-0.64844-1-1.441-1s-1.7191 0.45-2.059 1l-0.61803 1h2.059c1.1325 0 2.059-0.45 2.059-1zm217.96-0.42795-1.4643-1.428-2.75 0.54453c-1.5125 0.29949-2.75 0.94206-2.75 1.428 0 0.48588 1.8964 0.88342 4.2143 0.88342h4.2143zm18.332 0.32433-1.1036-1.1036-1.8464 1.0732-1.8464 1.0732 5.9 0.0608-1.1036-1.1036zm-169.3-0.91108c0-1.3936-6.0619-4.977-8.4272-4.9816-1.06-2e-3 -3.1792-1.4662-4.7094-3.2537l-2.7822-3.25-0.0406 1.691c-0.0224 0.93004 0.40936 1.9691 0.95936 2.309s1 1.7165 1 3.059v2.441h-1.5314c-0.84227 0-1.7904-0.675-2.107-1.5-0.89774-2.3395-2.3616-1.7627-2.3616 0.93045v2.4304l2.25 0.43337c1.2375 0.23835 5.7375 0.49465 10 0.56955l7.75 0.13618zm239.47-0.81396c3.8328-0.98064 6.5328-2.0409 6-2.3562-0.53278-0.31528-4.1187 0.45965-7.9687 1.722-3.85 1.2624-6.55 2.3227-6 2.3562 0.55 0.0335 4.1359-0.74141 7.9687-1.722zm22.403 0.929c0.75454-0.47797 1.193-1.4056 0.97443-2.0614l-0.39746-1.1924-1.8794 2.0767c-1.9096 2.11-1.1929 2.7578 1.3024 1.1771zm-40.372-2.7137 3-1.3661-2.5 0.61333c-1.375 0.33732-3.85 1.228-5.5 1.9794l-3 1.3661 2.5-0.61333c1.375-0.33732 3.85-1.228 5.5-1.9794zm62-0.38668c0.99549-1.1 1.36-2 0.80998-2s-1.8145 0.9-2.81 2-1.36 2-0.80998 2 1.8145-0.9 2.81-2zm-87.929-1.7627c-0.63778-0.63778-7.5707 0.95107-7.5707 1.735 0 0.41238 1.7858 0.27312 3.9685-0.30947 2.1827-0.58259 3.8036-1.2241 3.6022-1.4256zm39.761 0.73086c0.64251-0.0175 2.0008-0.66255 3.0184-1.4335l1.8501-1.4017-1.4503-2.3466-0.625 0.98092c-0.34375 0.53951-2.2 1.9854-4.125 3.2132s-2.6757 1.9594-1.6682 1.6258c1.0075-0.33352 2.3575-0.62071 3-0.6382zm-49.53-1.5018 5.1643-1.5336 0.9726-1.8173 0.97261-1.8173-5.5979 1.8468c-3.0788 1.0157-6.0963 2.2502-6.7054 2.7434-0.60915 0.49313-2.0075 1.1178-3.1075 1.3882l-2 0.49161 2.5685 0.116c1.4127 0.0638 4.8924-0.57414 7.7328-1.4176zm33.183-0.0768 4.0248-1.6104 6.4908 1.2164 6-5.3045-2 0.74381c-1.1 0.40909-4.475 1.1134-7.5 1.5652s-6.4 1.1739-7.5 1.6048c-1.9903 0.77953-5.1425 3.3952-4.0917 3.3952 0.30316 0 2.3624-0.72469 4.576-1.6104zm50.599-1.8479c2.1541-1.9021 3.442-3.4771 2.862-3.5-0.58002-0.0229-2.7741 1.5334-4.8757 3.4584-2.1016 1.925-3.3895 3.5-2.862 3.5 0.52749 0 2.7216-1.5563 4.8757-3.4584zm-22.026 1.0401c1.0668-0.78003 1.6028-1.755 1.1911-2.1667-0.41164-0.41162-0.74843-0.22341-0.74843 0.41825 0 0.64167-0.9 1.1667-2 1.1667s-2 0.45-2 1 0.36399 1 0.80887 1 1.6817-0.63821 2.7484-1.4182zm-43.105-5.6344-1.5981-1.7659-3.0629 0.87844c-1.6846 0.48313-3.3018 1.1173-3.5938 1.4093-0.29197 0.29198 0.33165 0.54517 1.3858 0.56266 1.0542 0.0175 2.7798 0.68487 3.8346 1.4831l1.918 1.4512 1.3573-1.1264 1.3573-1.1264zm63.078-0.75037c-0.67194-0.67193-3.5303 1.8222-3.5303 3.0805 0 0.5679 0.90276 0.21556 2.0061-0.78298s1.7892-2.0324 1.5242-2.2975zm47.136 2.1364c-0.3667-0.36666-0.9667-0.36666-1.3334 0-0.3666 0.36668-0.067 0.66668 0.6667 0.66668 0.7333 0 1.0333-0.3 0.6667-0.66667zm-97.342-1.3333h2.075l-1.9914-1.9914-8.9086 2.9682 3.375-0.48842c1.8562-0.26863 4.3088-0.48842 5.45-0.48842zm14.175-2c0.78218-1.2656-0.54163-1.2656-2.5 0l-1.5 0.96937 1.691 0.0153c0.93004 8e-3 1.9691-0.43469 2.309-0.98469zm41.5-3.2092c0-1.2085-2.8054 0.25969-3.3857 1.7718l-0.54032 1.408 1.963-1.2259c1.0796-0.67425 1.963-1.5535 1.963-1.954zm-29.5 1.2092c0.33992-0.55 0.14148-1-0.44098-1s-1.059 0.45-1.059 1 0.19844 1 0.44098 1 0.7191-0.45 1.059-1zm43.027-2.3343c1.0849-0.73385 4.1015-1.9149 6.7035-2.6246s5.2446-1.9093 5.8724-2.6657c0.6278-0.75645 0.75752-1.3754 0.28827-1.3754s-4.7899 1.4082-9.6015 3.1294c-4.8116 1.7212-8.5062 3.5212-8.2102 4 0.77353 1.2516 2.6753 1.0734 4.9475-0.46364zm-34.527-1.7838c0-0.55-0.45-0.72189-1-0.38197s-1 1.068-1 1.618 0.45 0.72189 1 0.38197 1-1.068 1-1.618zm47.667 1.4514c-0.36667-0.36666-0.96667-0.36666-1.3333 0-0.36666 0.36667-0.0667 0.66667 0.66667 0.66667 0.73333 0 1.0333-0.3 0.66667-0.66667zm-61.648-1.8562 1.2639-1.5229-1.6414 0.62988c-0.90279 0.34643-1.6414 1.0317-1.6414 1.5229 0 0.49115 0.1699 0.89301 0.37756 0.89301 0.20765 0 0.9463-0.6853 1.6414-1.5229zm65.981 0.52289c0.825-0.53316 1.05-0.96937 0.5-0.96937s-1.675 0.43621-2.5 0.96937-1.05 0.96937-0.5 0.96937 1.675-0.43621 2.5-0.96937zm10.493-0.98855 0.611-0.98854-1.552 0.59553c-1.7324 0.66479-2.0494 1.3816-0.6109 1.3816 0.5175 0 1.2159-0.44485 1.5519-0.98855zm0.044-5.1231c4.3796-2.2614 8.9753-5.0398 10.213-6.1743 2.2324-2.0465 3.0274-4.7141 1.405-4.7141-0.4648 0-1.6595 0.9-2.655 2s-2.2482 2-2.7838 2-2.7171 1.575-4.8479 3.5c-2.1307 1.925-4.7359 3.5-5.7894 3.5-1.0534 0-2.5987 0.26224-3.434 0.58276l-1.5186 0.58276 0.54385 1.4172c0.29912 0.77948 0.62494 1.4172 0.72406 1.4172 0.0991 0 3.7635-1.8502 8.143-4.1116zm8.9628-0.36059 2-1.6246-3 1.4722c-1.65 0.80971-3.9 2.2033-5 3.0968l-2 1.6246 3-1.4722c1.65-0.80971 3.9-2.2033 5-3.0968zm-14.038-14.397c-0.59948-0.60397-3.4615 2.6276-3.4615 3.9084 0 0.65021 0.86126 0.11986 1.9139-1.1786 1.0527-1.2984 1.7491-2.5268 1.5476-2.7298zm9.1805-2.9505 1.6319-0.91327-6.277-0.92127-3.1981 3.5339 3.1056-0.39305c1.7081-0.21617 3.84-0.80401 4.7376-1.3063zm6.9694-12.865c3.2084-7.3804 4.4274-14.316 2.5164-14.316-0.4797 0-1.1691 1.857-1.5321 4.1268-0.3629 2.2697-1.2865 5.0214-2.0524 6.1148-0.7658 1.0934-1.1594 2.5954-0.8745 3.3377 0.2849 0.74233-0.4525 2.7126-1.6387 4.3784-1.1861 1.6658-1.8581 3.5117-1.4932 4.102 0.3648 0.59034 0.8934 0.8433 1.1746 0.56212 0.2812-0.28117 2.0361-4.019 3.8999-8.3063zm-349.64 6.6844c0.44617 0 1.0532-0.63061 1.349-1.4014l0.53775-1.4014-1.6808 0.27184c-2.4465 0.39568-3.4342-0.45883-2.2206-1.9212l1.0573-1.274-4.9926 0.9544-1.3498-3.5176 1.7626-1.2888c0.96944-0.70887 1.466-1.7688 1.1035-2.3554-0.36253-0.58659-2.181-1.0665-4.0411-1.0665s-3.7023-0.51827-4.0938-1.1517l-0.71179-1.1517 1.8298-1.338c1.0064-0.73588 1.6376-1.5248 1.4028-1.7532-0.51972-0.50543-2.974-0.8853-4.677-0.72388-0.6875 0.0652-1.25 1.0185-1.25 2.1185v2h-3.1667l0.41106 1.25 0.41105 1.25 8.3446 0.615v3.8835c0 2.1359-0.49985 4.1924-1.1108 4.57l-1.1108 0.6865-4.6694-5.755 0.5621 2.25 0.56209 2.25-2.3666-0.0354c-1.3016-0.0195-3.4263-0.62306-4.7215-1.3413-2.4953-1.3838-7.1452-1.0289-7.1452 0.54528 0 0.51449-1.35 1.406-3 1.9812-1.65 0.5752-3 1.4272-3 1.8933v0.84748l9.75-0.37654c5.3625-0.20709 12.675-0.021 16.25 0.41362 3.575 0.43459 7.0993 0.62864 7.8318 0.43123 0.73248-0.1974 1.6968-0.35892 2.143-0.35892zm-20.003-18.962 1.472-0.93089-1.472-0.47314c-0.80958-0.26023-3.8345-0.74994-6.722-1.0882l-5.25-0.6151v0.83445c0 0.45894 0.54 1.3744 1.2 2.0344 1.4149 1.4149 8.6582 1.5752 10.772 0.23848zm381.76-3.0385 2.5426-2h-1.4799c-0.8139 0-2.2943 0.9-3.2898 2s-1.4737 2-1.0627 2 1.8914-0.9 3.2898-2zm-382.41-7.25c-0.23712-0.4125-1.7449-0.75-3.3507-0.75h-2.9195l1.1256-2.4704 1.1256-2.4704-1.1076-1.3346-1.1076-1.3346 1.0974-19.89-0.83807 0.83427c-0.46094 0.45885-0.83807 2.7088-0.83807 5v4.1657l-4.5 0.6391v2.2304c0 1.2268 0.52093 2.7514 1.1576 3.3881l1.1576 1.1576-1.2321 1.4846c-0.67765 0.81652-2.6264 1.6231-4.3306 1.7924-1.7042 0.16929-3.2994 0.91893-3.5449 1.6659l-0.44637 1.3581 3.8694-0.61868c2.1281-0.34027 4.4935-0.21177 5.2563 0.28557l1.3869 0.90424-0.46057 2.4093c-0.25331 1.3251 0.0667 2.9018 0.71105 3.5038 1.9747 1.8446 4.8924 2.0048 6.5978 0.36212 0.89217-0.85935 1.4281-1.9 1.191-2.3125zm385.87-0.3479c1.6933-0.60362 3.3745-3.4064 2.0378-3.3971-0.3952 3e-3 -2.0686 1.1551-3.7186 2.5609-1.65 1.4058-2.325 2.3038-1.5 1.9957 0.825-0.30814 2.2564-0.8299 3.1808-1.1594zm-104.48 129.97c-1.4062-1.4062-0.64176-2.3679 1.8821-2.3679h2.5833l-0.4162 1.25c-0.48136 1.4457-3.0205 2.1467-4.0492 1.1179zm-109.05-1.8359c-0.30982-0.80739-0.21106-1.6857 0.21947-1.9518 0.43053-0.26608 1.7297-0.23615 2.8871 0.0665l2.1044 0.5503-0.5378 1.4015c-0.70884 1.8472-3.9565 1.801-4.6732-0.0665zm-10.463-6.282 0.33404-1.75 13.979-1.2488 1.2623 1.0071 1.2623 1.0071-1.1348 1.3673-1.1348 1.3673h-14.902zm104.49-3.6522c-0.29595-0.77123-0.26909-1.6712 0.0597-2 0.32877-0.32878 2.3228-0.59777 4.4311-0.59777h3.8333v1.393c0 0.76616-0.7118 1.6662-1.5818 2-2.7622 1.06-6.1854 0.65619-6.7423-0.79524zm-90.676-3.8978c0-0.715 0.5625-1.9012 1.25-2.636l1.25-1.336-2.5 0.71017c-1.375 0.39059-4.5717 0.95274-7.1038 1.2492l-4.6038 0.53906-0.53747-2.0553c-0.29561-1.1304-0.28641-2.3063 0.0204-2.6132 0.30685-0.30684 1.5867-0.5579 2.8442-0.5579 1.2575 0 3.4122-0.51299 4.7883-1.14l2.502-1.14 3.2951 1.3397c1.8123 0.73682 3.9014 2.176 4.6424 3.198l1.3474 1.8584 5.8052-1.275v3.8972l-3.75 0.61983c-2.0625 0.34091-4.9875 0.62479-6.5 0.63084l-2.75 0.011zm87.566-2.3875-0.64757-1.6875 1.5406-0.86215c0.84732-0.47418 1.5406-1.445 1.5406-2.1575 0-0.71243 0.91428-2.1227 2.0317-3.134 1.1174-1.0113 1.9162-2.5435 1.775-3.405-0.14122-0.86146 0.0768-2.0977 0.48458-2.7472 0.40774-0.6495 0.39651-1.3751-0.025-1.6126-0.42147-0.23741-4.1413-0.156-8.2663 0.1809l-7.5 0.61255-0.30847 2.1654c-0.16966 1.191-0.93541 2.406-1.7017 2.7001l-1.3932 0.53462-1.4853-2.9773-1.4853-2.9773 7.8342-4.9455 4.2699 0.0552c2.3484 0.0304 8.7634 0.60002 14.255 1.2658l9.9856 1.2106 0.60877 3.7452c0.33482 2.0599 0.88796 4.0244 1.2292 4.3656 0.34124 0.34124 0.17044 1.4613-0.37956 2.489l-1 1.8685h-2.4648c-1.3556 4e-5 -2.4648-0.4677-2.4648-1.0394v-1.0394l-2.7334 2.5533 3.2334 2.4619-2.1667 0.0318c-1.1917 0.0175-2.3167-0.3057-2.5-0.7182-0.18333-0.41249-2.1333-0.47635-4.3333-0.1419l-4 0.6081 3.0833 0.1419c1.6958 0.0781 3.3523 0.4109 3.6811 0.73968 0.32877 0.32877 0.35563 1.2288 0.0597 2l-0.53811 1.4022h-9.572zm60.463-1.2741c-1.2807-1.6711-2.9362-3.0383-3.6789-3.0383-1.4359 0-1.7416-1.817-0.74344-4.4182l0.60699-1.5818h2.834c1.5587 0 3.1121-0.45 3.452-1 0.95136-1.5393 5.2153-1.1842 5.857 0.48782 0.31401 0.8183 0.87013 3.7433 1.2358 6.5l0.66489 5.0122h-2.547c-1.4009 0-3.1783 0.24225-3.9499 0.53832l-1.4028 0.53833zm-200.28 0.15131-3.75-0.31036v-2.8793h3.941c2.1675 0 4.1628 0.35899 4.434 0.79775 1.0184 1.6478-1.0004 2.6919-4.625 2.3919zm110.75-8.2471c-1.65-1.0512-3.2339-2.8825-3.5198-4.0696l-0.51976-2.1583-9.4802 0.20315c-5.2141 0.11173-9.7796 0.51344-10.146 0.89269-0.36593 0.37925-0.81593 1.8146-1 3.1896l-0.33468 2.5h-3l-0.30677-3.6898-0.30678-3.6898 5.1826-3.3958 27.931-1.0045v1.6399c0 0.90193 0.9 2.5399 2 3.6399s2 2.6495 2 3.4433c0 0.79381-1.0001 2.1438-2.2225 3-1.2224 0.85618-2.4599 1.5238-2.75 1.4836-0.29012-0.0402-1.8775-0.93319-3.5275-1.9844zm58.078-0.48848c-0.35145-1.4003-0.41551-2.9076-0.14236-3.3496s4.8994-0.75877 10.281-0.70401l9.784 0.0996v3l-10.836 0.34838-0.88186 1.5758-0.88187 1.5758h-6.6838zm-268.58-0.45401v-2h1.893c1.0412 0 2.1377 0.63776 2.4369 1.4172l0.54384 1.4172-1.5186 0.58276c-2.5774 0.98905-3.3551 0.66057-3.3551-1.4172zm344.32 0.59758 0.6603-1.7207-1.7423 0.17669c-3.5822 0.36331-5.2422-0.0943-5.2422-1.4452 0-1.476 2.319-2.2899 8.8702-3.113 2.2152-0.27834 5.205-0.95366 6.6439-1.5007 1.4388-0.54706 3.2948-0.99465 4.1243-0.99465h1.5082l-0.6644 3.5-8.9822 2.339 4.191 0.0805c2.305 0.0443 4.4876 0.56042 4.8501 1.147s0.4424 1.2833 0.1774 1.5483c-0.2649 0.26494-3.7606 0.75661-7.7681 1.0926l-7.2865 0.61087 0.6603-1.7207zm4.405-2.2018c-0.3323-0.33229-1.1948-0.36781-1.9167-0.0789l-1.3125 0.52522 1.9167 0.0789c1.0541 0.0434 1.6448-0.19293 1.3125-0.52522zm-78.729-10.896v-1.5h4v3h-4zm88.25-0.62914-3.25-0.92804v-3.8066l3.25-2.2699c1.7875-1.2484 3.475-2.5166 3.75-2.8181s1.8419-1.3024 3.4821-2.2243l2.982-1.6761 0.8581-3.3239c0.4719-1.8282 1.3226-3.8864 1.8904-4.5739 0.5677-0.6875 1.6522-1.25 2.4098-1.25h1.3776v2.1713c0 1.1942 0.6647 2.9058 1.4772 3.8036l1.4772 1.6323-4.8092 3.5904c-2.6451 1.9747-6.7284 4.5695-9.0741 5.7662-2.3457 1.1967-3.999 2.4417-3.674 2.7667 0.655 0.65501 7.4252-2.3785 14.684-6.5796l2.5816-1.494 1.7318 0.66455c0.9524 0.36551 1.4761 1.0782 1.1636 1.5838-0.7144 1.156-14.368 8.6509-17.059 9.3638-1.1 0.29149-3.4625 0.11236-5.25-0.39807zm-148.06-3.6094c0.18414-0.95618 1.1171-1.8892 2.0733-2.0733l1.7385-0.33481v4.1466h-4.1466zm52.312 0.73852-0.61803-1h3.2361l-0.61803 1c-0.33992 0.55-0.78992 1-1 1s-0.66008-0.45-1-1zm133.17-1.6667c-0.3667-0.36666-0.6667-1.4013-0.6667-2.2991v-1.6324l3.6162-1.3077 3.6163-1.3076 2.3837 1.2758c1.3111 0.70165 2.3838 1.8025 2.3838 2.4462 0 0.64378-1.1462 1.6927-2.5471 2.331-2.7889 1.2708-7.7315 1.5486-8.7862 0.49385zm-418.43-12.244-1.5407-1.5407-5.1246-0.0787c-2.8185-0.0433-5.6157-0.3822-6.2159-0.75313l-1.0912-0.67443-0.71782-11.075-0.71782-11.075 5.566-5.1584 7.8133 0.60252c4.2973 0.33138 8.7095 1.0821 9.8048 1.6684l1.9915 1.0658v26.812l-1.074 0.66375c-0.59069 0.36506-2.4417 0.75844-4.1134 0.87418l-3.0394 0.21042zm2.7482-5.8396c-0.0106-0.9625-0.68413-4-1.4967-6.75l-1.4774-5 0.49671 4.8896c0.27319 2.6893 0.49671 5.7268 0.49671 6.75 0 1.0232 0.45 1.8604 1 1.8604s0.99132-0.7875 0.98071-1.75zm-7.2515 0.14583c-0.3323-0.33229-1.1948-0.36781-1.9167-0.0789l-1.3125 0.52522 1.9167 0.0789c1.0542 0.0434 1.6448-0.19293 1.3125-0.52522zm-3.7292-7.0139c0-0.825-0.45-1.2219-1-0.88197s-1 1.293-1 2.118 0.45 1.2219 1 0.88197 1-1.293 1-2.118zm2.25-5.0442c-0.6875-0.27741-1.8125-0.27741-2.5 0s-0.125 0.50439 1.25 0.50439 1.9375-0.22698 1.25-0.50439zm1.505-6.5877c-0.49642-1.5074-4.755-2.307-4.755-0.89288 0 0.87351 1.6746 1.6568 4.3333 2.0269 0.45834 0.0638 0.64809-0.4465 0.42167-1.134zm84.186 25c-0.0325-0.1375-0.18431-1.8744-0.33744-3.8599l-0.27841-3.6099 6.8722-7.7228 2.2654-0.0992c1.246-0.0545 3.5122-1.08 5.0362-2.2787 1.524-1.1987 3.3851-2.1795 4.136-2.1795 1.7102 0 1.792 2.6276 0.11514 3.7003-1.5483 0.99053-9.5506 9.8583-12.237 13.561-1.093 1.5063-2.7805 2.7387-3.75 2.7387s-1.7892-0.1125-1.8217-0.25zm44.059-1.05c0-2.0033 2.1553-3.7 4.7-3.7h2.3v1.3c0 2.0033-2.1553 3.7-4.7 3.7h-2.3zm-34-1.1971c0-0.82341 1.575-3.2405 3.5-5.3712s3.5-4.3098 3.5-4.8424c0-0.97137 4.2613-3.2893 6.047-3.2893 1.9084 0 0.88436 3.2628-1.8357 5.8488-1.5338 1.4582-3.8144 4.1137-5.0681 5.9012l-2.2794 3.25h-3.8638zm66-3.9296c0-0.78472 1.4625-2.1934 3.25-3.1303 8.0644-4.2271 10.745-5.4429 12.002-5.4429 0.74157 0 1.7822-0.4339 2.3125-0.96422s2.5328-1.0928 4.45-1.25l3.4858-0.28578v1.313c0 1.3179-2.4168 2.8861-8 5.1907-1.65 0.68109-5.1342 2.3089-7.7427 3.6173s-5.871 2.379-7.25 2.379h-2.5073zm-8.6433-3.086c-0.31927-0.83201-0.025-2.182 0.65383-3l1.2343-1.4873h6.7551v1.4268c0 0.78472-1.4191 2.1347-3.1536 3s-3.5486 1.5732-4.0314 1.5732-1.139-0.68073-1.4582-1.5127zm-102.36-4.7911v-2.3038l6.8619-6.6508 6.9711-0.42324 3.1602-2.6591c3.2923-2.7703 6.0067-3.4647 6.0067-1.5367v1.1224l1.4613-1.2128c0.8037-0.66701 1.7482-2.1846 2.0988-3.3724 0.35066-1.1878 3.3743-4.7472 6.7192-7.9097l6.0816-5.75h3.8196c2.1008 0 3.8196 0.45 3.8196 1v1h4.0136c2.2075 0 4.9349-0.5625 6.0609-1.25l2.0473-1.25 2.3782 3.0154 4.7792-0.69114-1.1797 4.6757 1.455-1.9475c0.80022-1.0712 1.2147-2.7045 0.92106-3.6297l-0.53388-1.6821 3.2044 0.65537c1.7624 0.36046 3.3849 1.1969 3.6056 1.8588 0.22063 0.66188-1.9485 3.6878-4.8203 6.7243l-5.2214 5.5209h1.645c0.90478 0 1.6451 0.65679 1.6451 1.4595s-1.2329 2.6027-2.7398 4-3.0308 2.5405-3.3865 2.5405c-0.3557 0-0.88926-1.4625-1.1857-3.25l-0.53898-3.25 2.9049-4.25c1.5977-2.3375 2.5766-4.2473 2.1755-4.244-0.40116 3e-3 -2.9205 2.4717-5.5986 5.4854-2.678 3.0137-5.2656 5.2344-5.75 4.935-0.48446-0.29941-0.88083-0.90904-0.88083-1.3547 0-0.44569 1.8383-3.1191 4.0851-5.941 2.2468-2.8218 3.5968-5.1306 3-5.1306-0.59679 0-1.1026 0.3375-1.124 0.75-0.0214 0.4125-2.4274 3.4065-5.3466 6.6534l-5.3076 5.9034-4.5273-4.5273 1.043-2.2891c1.1585-2.5427 0.50607-6.4904-1.0727-6.4904-1.4018 0-5.747 5.1904-5.7485 6.8666l-1e-3 1.3666-2-0.52301c-1.1-0.28766-2-0.11514-2 0.38337s0.45 0.90638 1 0.90638c2.1498 0 0.80284 2.5438-3.4384 6.4934-2.4411 2.2732-6.0406 4.625-7.999 5.226l-3.5607 1.0928-1.1332-1.8336-2.1569 1.5107c-1.1865 0.83089-2.9338 1.5107-3.883 1.5107-0.94929 0-2.9399 1.125-4.4235 2.5s-3.7568 2.5-5.0515 2.5h-2.354zm49.5-19.696c0.99549-1.1 1.585-2 1.31-2s-1.3145 0.9-2.31 2-1.585 2-1.31 2 1.3145-0.9 2.31-2zm15.5 17.452c0-1.8553 4.735-6.4522 6.646-6.4522 0.74469 0 1.354 0.86734 1.354 1.9274 0 2.0646-4.3791 6.0726-6.6349 6.0726-0.75083 0-1.3651-0.69649-1.3651-1.5478zm272.52 0.58205c-0.7306-1.1821 2.7237-8.1627 4.9559-10.015l1.6233-1.3472 3.0684 3.0685-3.3344 4.568c-3.2936 4.5121-5.1502 5.6078-6.3132 3.7261zm-181.52-2.6299c0-1.4276 0.93064-3.9026 2.0681-5.5l2.0681-2.9044h4.8638v4.1667l-3.5182 3.4166c-1.935 1.8792-3.96 3.4166-4.5 3.4166-0.54 0-0.98181-1.168-0.98181-2.5956zm-11.541 0.52873c-0.3645-0.58977 0.39569-3.1785 1.6893-5.7527 1.2936-2.5742 2.6895-4.8304 3.102-5.0137 0.4125-0.18334 0.75-0.92269 0.75-1.643 0-1.3573 2.1176-2.5237 4.5818-2.5237 0.78001 0 1.4182 0.49467 1.4182 1.0993 0 1.8593-7.2526 12.966-9.1191 13.964l-1.7595 0.94165zm89.208-2.5998c-1.0717-1.0717-0.70698-6.4068 0.84316-12.333 4.2087-16.091 6.6595-24.43 7.8842-26.828 0.75078-1.4698 1.6867-4.1652 2.0798-5.9898 0.3931-1.8247 1.3125-3.547 2.0431-3.8273 1.6419-0.63004 5.483 3.06 5.483 5.2673v1.6224l3.0848-2.5601 1.774 1.8152-1.3807 5.2804c-0.7594 2.9042-2.3026 6.4524-3.4294 7.8849s-2.0555 3.7812-2.0639 5.2196c-8e-3 1.4383-0.40811 3.2353-0.8882 3.9933-0.48009 0.75796-1.3732 1.0689-1.9847 0.69098-0.61149-0.37792-1.1583-1.6731-1.2152-2.8781l-0.10335-2.191-1.9463 7.3067-2.0241 0.52932c-1.1133 0.29113-1.7562 0.96278-1.4288 1.4926 0.32742 0.52978-0.0742 2.2476-0.89246 3.8173-0.81827 1.5697-1.7738 4.9916-2.1235 7.6041l-0.63576 4.75h-1.2045c-0.66248 0-1.5045-0.3-1.8712-0.66667zm13.94-30.915c-0.33385-0.86998-0.60699-2.085-0.60699-2.7v-1.1182l-1.0328 1.0328c-1.1758 1.1758-0.26472 4.3672 1.2468 4.3672h1zm4.3227-8.7272-0.0703-2.191-0.85943 2c-1.1828 2.7525-1.1828 3.731 0 3 0.55-0.33992 0.96837-1.604 0.92971-2.809zm-126.84 37.922-1.1511-1.387 3.1054-2.613c1.708-1.4372 3.535-2.613 4.06-2.613s1.2409 0.74591 1.5907 1.6576l0.63608 1.6576-2.7232 2.3424c-1.4978 1.2883-3.093 2.3424-3.545 2.3424-0.45198 0-1.3398-0.62415-1.9729-1.387zm160.37-0.67954c-0.36253-0.58659-0.43531-1.2904-0.16172-1.564 0.71399-0.71399 6.6202-0.78552 7.3171-0.0886 1.1976 1.1976-0.82484 2.7191-3.6142 2.7191-1.5851 0-3.1786-0.47994-3.5411-1.0665zm-35.459-10.874c0-0.51754 0.45-1.2191 1-1.559l1-0.61803v1.559c0 0.85746-0.45 1.559-1 1.559s-1-0.42344-1-0.94098zm-90.75-4.7662c-0.6875-1.4804-1.25-3.283-1.25-4.0058 0-0.72282 0.45-2.2081 1-3.3006s1.45-2.8803 2-3.9729 1-2.6177 1-3.3892 0.80656-2.3988 1.7924-3.6162l1.7923-2.2134 1.2701 1.5303 1.27 1.5303-2.5624 5.602c-1.4093 3.0811-2.5563 6.1511-2.5488 6.8224 7e-3 0.6712 1.6806-1.5921 3.7181-5.0296l3.7046-6.25h3.5638v3.31l3.8189-3.456 2.1203 3.6461 0.0304-1.75c0.0167-0.9625 0.42582-1.75 0.90909-1.75s1.4702-1.4625 2.1933-3.25c1.9972-4.9377 5.2795-9.7238 6.6781-9.7376 0.6875-7e-3 1.25 0.63197 1.25 1.4195 0 1.215-6.0328 13.603-9.5888 19.691-1.8091 3.0968-4.6444 5.8776-5.9929 5.8776-0.69943 0-1.434-0.7875-1.6325-1.75l-0.36077-1.75-5.6909 8.5-7.2342-0.016-1.25-2.6916zm10.557-6.8193c-0.30789-0.30789-0.86705 0.24711-1.2426 1.2333l-0.68278 1.7931 1.2426-1.2333c0.68342-0.67834 0.99067-1.4852 0.68278-1.7931zm6.3207-1.2235 1.3724-1.75-1.75 1.3724c-0.9625 0.75485-1.75 1.5424-1.75 1.75 0 0.82304 0.82119 0.29331 2.1276-1.3724zm-68.086 6.8284c-1.4378-2.6864-1.3039-6.338 0.3134-8.5498l1.3554-1.8536 3.218 1.2349-0.1838 9.1562-3.6611 1.9593-1.042-1.947zm-28.587-5.3665c-0.57451-0.66658-2.0836-2.6231-3.3536-4.3478l-2.309-3.1358 0.68175-2.148c0.8661-2.7288 4.4291-6.0804 6.4641-6.0804 0.85879-2e-5 2.8181-1.575 4.3541-3.5s3.3934-3.5 4.1276-3.5 1.8907 0.66968 2.57 1.4882l1.2351 1.4882-1.5746 0.60422c-0.86601 0.33232-1.8612 1.5072-2.2114 2.6108l-0.63688 2.0066-5.8024-0.8516v1.7678c0 0.97228-0.45 2.0459-1 2.3858-1.8806 1.1623-1.0029 2.2232 1.4513 1.7541l2.4513-0.46859-0.1226 4.3573c-0.0674 2.3965-0.55061 4.9198-1.0737 5.6073-1.1959 1.5717-3.8802 1.5522-5.2508-0.038zm175.54-1.9543c0-1.875 1.125-6.629 2.5-10.565s2.5-7.5886 2.5-8.1178c0-0.52924-1.35-1.7597-3-2.7344l-3-1.7722v-3.7966l12.5-12.499 7-3.5583c3.85-1.957 8.575-3.9608 10.5-4.4527s5.75-0.86463 8.5-0.8282l5 0.0662 1.5-1.6124c0.825-0.8868 3.075-2.2147 5-2.9509 1.925-0.73621 5.6573-2.5982 8.294-4.1376 2.6367-1.5395 5.6742-2.7991 6.75-2.7991h1.956v4.5822l-5.3499 2.7089c-2.9425 1.4899-5.8418 2.7089-6.4429 2.7089s-2.6724 0.93189-4.6028 2.0709c-1.9304 1.139-4.3186 1.9473-5.3072 1.7963-0.98852-0.15101-5.8256 1.6822-10.749 4.0738l-8.9518 4.3483-0.38154-1.1446c-0.6208-1.8624-2.2149-1.3048-2.2149 0.7748v1.9194l3.75-1.0123c2.0625-0.55678 4.1775-1.4205 4.7-1.9194 1.309-1.2499 5.7967-1.1471 5.3733 0.1231-0.18887 0.5666-4.9321 3.1723-10.541 5.7905-5.6084 2.6182-10.482 5.045-10.83 5.393s3.4578-0.68278 8.4572-2.2905c4.9994-1.6077 9.5398-2.9231 10.09-2.9231s0.99995 0.58181 0.99995 1.2929v1.2929l-5.75 1.8899c-3.1625 1.0394-6.2223 2.2379-6.7996 2.6632-0.57729 0.42533-2.9398 1.0756-5.25 1.445l-4.2004 0.67167v-1.0112c0-0.55615-0.94741-1.2589-2.1054-1.5617-3.8664-1.0111-1.8158-3.0308 7.1054-6.9983l3.5-1.5565-1.7821-0.064c-2.9069-0.10432-7.9889 2.4263-11.516 5.7343l-3.2977 3.0932 5.032 3.2971 4.7817-0.2233c2.6299-0.12282 5.3442-0.16524 6.0317-0.0943 1.4905 0.15388 1.7047 3.129 0.22525 3.129-0.56361 0-1.4492 1.1164-1.968 2.4809l-0.94323 2.4809-1.5004-0.57576c-0.82522-0.31666-1.4021-1.0956-1.282-1.7309l0.21838-1.1551-5.2461-0.60835-0.55992 2.3042c-0.30795 1.2673-1.8514 6.0996-3.43 10.739s-3.4087 8.6139-4.067 8.8333l-1.197 0.399zm-339.67 1.5477c-1.191-0.23226-2.4437-1.1475-2.7839-2.0339l-0.61842-1.6116 1.2839-0.81464c1.8304-1.1614 9.5463-1.0387 10.289 0.16369 0.34296 0.55492 0.33919 1.9049-8e-3 3l-0.63191 1.991-2.6826-0.13618c-1.4754-0.0749-3.6571-0.32621-4.8481-0.55847zm348.41-1.5256c-0.74864-1.9509 0.7825-10.708 2.1032-12.029l1.1511-1.1511 2.4086 2.4086-1.4543 5.6732c-1.4216 5.5457-3.2069 7.7082-4.2086 5.0979zm8.8885-4.2906c-0.31889-0.83101-0.31079-2.856 0.018-4.5l0.59782-2.9891h2.75v9h-1.393c-0.76616 0-1.6539-0.67992-1.9728-1.5109zm-155.11-0.4574c-0.32916-0.53259 0.0316-3.3812 0.80171-6.3302l1.4002-5.3619-1.221-1.6698c-0.67154-0.91838-1.5089-1.6698-1.8607-1.6698-0.35187 0-0.63976 0.675-0.63976 1.5 0 1.7999-2.975 2.0432-3.0576 0.25-0.0317-0.6875-0.23489-2.9344-0.45157-4.9931l-0.39396-3.7431 5.0014-1.2553 0.57136-2.8568c0.31425-1.5712 1.1674-3.3515 1.8958-3.956 0.72845-0.60455 2.3617-0.95214 3.6295-0.77242l2.305 0.32676-0.29589 2.8013c-0.16274 1.5407-1.1752 4.3669-2.25 6.2804s-1.9541 3.9154-1.9541 4.4487 0.6401 0.96958 1.4224 0.96958h1.4224l1.1562 3.5035c0.63594 1.9269 0.87344 4.7911 0.52778 6.3649-1.0981 4.9997-6.2692 8.9789-8.0094 6.1633zm-13.244-1.9763 0.50852-1.9446-4.2838-0.65825 0.38823-1.4763c0.21352-0.81194 0.73739-3.5013 1.1641-5.9763 0.42676-2.475 1.2982-5.85 1.9365-7.5l1.1606-3 1.2881 1.7534 1.2881 1.7535-3.1359 13.106 1.2052 1.9298c0.66285 1.0614 1.2052 2.3859 1.2052 2.9434s-0.72748 1.0136-1.6166 1.0136h-1.6166zm187.19-6.0069c-1.1191-0.45362-2.6367-1.5501-3.3724-2.4366-0.73575-0.88652-2.2951-1.6188-3.4653-1.6272-1.1702-8e-3 -2.6227-0.34592-3.2279-0.75-0.60516-0.40408-1.5863-1.6589-2.1802-2.7886l-1.0799-2.0539 1.5309-2.4771 3.4148 0.1144c1.8781 0.0629 4.9898-0.27833 6.9148-0.75834 1.925-0.48 4.2875-0.70439 5.25-0.49865 2.1052 0.45001 2.3608 3.2274 0.29705 3.2274-0.79912 0-2.5642 0.50631-3.9223 1.1251l-2.4694 1.1251 9.3446 4.7414 4 0.0178c2.2 0.01 4.9814 0.28104 6.1808 0.60272l2.1808 0.58488-1.0756 2.8029-8.143-0.0634c-4.4786-0.0349-9.0586-0.43452-10.178-0.88813zm-165.11-5.277c-0.89408-1.4466-0.79966-11.249 0.12272-12.742 0.35008-0.56644 1.285-1.0299 2.0775-1.0299h1.441v4.375c0 5.4954-0.99744 10.625-2.066 10.625-0.44879 0-1.1576-0.55281-1.5752-1.2285zm5.8907-2.0215c0.22891-0.6875 1.1664-1.3955 2.0833-1.5733l1.6671-0.32333v3.1466h-4.1667zm44 0.53172c-0.6875-0.24661-1.25-1.0647-1.25-1.818 0-2.1176 2.1334-6.301 3.4761-6.8162 0.66288-0.25437 1.7603-0.11946 2.4386 0.2998l1.2334 0.76228-1.472 3.5231c-0.80963 1.9377-1.8555 3.7423-2.3241 4.0102-0.46861 0.26792-1.4145 0.28535-2.102 0.0387zm-84.25-6.1634-3.5-0.61836-0.31326-2.202-0.31327-2.202 2.0633-1.2885c1.1348-0.7087 2.0633-1.8852 2.0633-2.6144v-1.3259l5.5 0.63284-0.29384 1.75c-0.16161 0.9625 0.0965 1.75 0.57364 1.75 0.47711 0 1.2843-1.6875 1.7938-3.75l0.92637-3.75 7-1.0277-1.75-0.70477c-0.9625-0.38762-1.75-1.3242-1.75-2.0812s0.88187-2.1745 1.9597-3.1499l1.9597-1.7735 2.4474 0.61425c1.3461 0.33785 3.2767 0.90741 4.2903 1.2657l1.8429 0.65145-1.25-1.3472c-0.6875-0.74095-1.25-2.3495-1.25-3.5746v-2.2274l5-3.933v-3.0346c0-1.6691 0.675-3.7096 1.5-4.5346s1.5-2.8822 1.5-4.5714v-3.0714h5.2617l-0.57702-3.5577c-0.31754-1.9567-0.32827-4.2067-0.0239-5 0.67231-1.752 3.4966-1.8852 5.1395-0.24234 0.66 0.66 1.2 2.0709 1.2 3.1353s1.0125 2.9523 2.25 4.1953c5.8955 5.9217 7.75 8.2674 7.75 9.8027 4e-5 0.91667-0.64282 1.6667-1.4285 1.6667-0.78572 0-2.1323-0.70369-2.9923-1.5638-0.86007-0.86006-2.0517-1.2622-2.648-0.89365l-1.0843 0.67011-4.0318-4.3276-2.1145 0.30744-2.1145 0.30743-1.789 5c-0.98395 2.75-1.7908 6.1768-1.793 7.6151-2e-3 1.4383-0.87196 3.7185-1.9328 5.0671-1.0608 1.3486-2.0733 4.1742-2.25 6.279l-0.32127 3.827-3 0.31226c-5.5407 0.57672-7.4423 1.4113-8.7247 3.8293-1.8848 3.5537-8.6701 10.59-10.066 10.438-0.66533-0.0724-2.7847-0.4099-4.7097-0.75zm120-0.9835c0-0.47583 0.9717-2.1005 2.1593-3.6103l2.1593-2.7452 3.7482 0.50274c2.0615 0.2765 4.1689 0.0821 4.683-0.43209l0.93482-0.93482 1.2801 1.5424 1.2801 1.5424-1.2449 1.5c-0.68469 0.825-2.0632 1.5-3.0634 1.5-1.0002 0-2.0966 0.45-2.4366 1-0.75517 1.2219-9.5 1.346-9.5 0.13486zm-76.505-6.1431c-0.37574-0.60796-0.40723-2.2048-0.07-3.5486l0.61322-2.4432h-1.019c-1.3158 0-1.332-4.6885-0.019-5.5 0.55-0.33992 1-1.059 1-1.598 0-0.53897-0.96815-0.078-2.1514 1.0244-1.1833 1.1024-2.5358 1.7668-3.0056 1.4765s0.34486-2.6373 1.8103-5.2154c1.4654-2.5782 3.2813-5.3599 4.0353-6.1816l1.371-1.4941 0.57265 2.1898 0.57266 2.1898 7.2785 0.60852 0.3046 1.6096c0.16753 0.88528-1.5162 4.3509-3.7417 7.7014-2.2255 3.3505-4.0463 6.5086-4.0463 7.018 0 0.50938-0.63494 1.4531-1.411 2.0972l-1.411 1.171-0.68318-1.1054zm2.8867-16.544 0.59553-1.5519-0.98854 0.61096c-0.5437 0.33602-0.98855 1.0344-0.98855 1.5519 0 1.4384 0.71677 1.1215 1.3816-0.61096zm98.778 8.3114-1.1322-1.1322 1.6413-1.8137 1.6413-1.8136h5.7528l0.6014 1.5672c0.33077 0.86197 0.20414 1.9275-0.28139 2.3678s-2.2797 1.0607-3.987 1.3786l-3.1042 0.57807zm-52.044-2.1205-1.1295-1.361 1.5024-3.5957c1.6597-3.9722 5.1522-7.6823 7.2317-7.6823 2.3544 0 2.5347 2.8336 0.37342 5.8689-1.1514 1.6169-2.0934 3.6421-2.0934 4.5003 0 0.85824-0.87042 2.0263-1.9343 2.5956s-2.1337 1.0352-2.3776 1.0352c-0.24382 0-0.95158-0.61244-1.5728-1.361zm-61.796-3.2495c-0.3399-0.88575-0.21328-3.2482 0.28138-5.25l0.89938-3.6395 9.5-0.35727v1.0738c0 0.59058-1.2375 3.0327-2.75 5.4268l-2.75 4.3531-4.5628 4e-3 -0.61799-1.6105zm239.64-5.3112c1.531-2.8606 7.8736-7.8213 13.603-10.639 2.7833-1.3689 7.3586-2.761 10.167-3.0937l5.1067-0.60481 1.0884-4.1621 5.0771 4.7697v4.535l-13.856-1.1617-6.3744 4.5486c-3.5059 2.5018-6.9683 5.2643-7.6942 6.139l-1.3199 1.5904h-6.8255zm-36.582-9.5419c-0.3425-0.89252-0.4546-1.7502-0.2491-1.906 2.068-1.568 7.8567-4.6305 8.7524-4.6305 0.6286 0 3.1613-0.94878 5.6283-2.1084s5.1621-1.8487 5.9891-1.5314c0.827 0.31735 1.5037 1.3813 1.5037 2.3643v1.7873l-2.75 1.1948c-8.9241 3.8772-12.167 5.1163-15.041 5.7475l-3.211 0.70524zm-131.83-0.46741c-0.31644-0.512-0.11799-1.2136 0.44098-1.559 1.1934-0.73755 3.0163 0.19857 3.0163 1.5489 0 1.2168-2.7066 1.2247-3.4573 0.0101zm27.457-2.2638c0-0.79457 1.1284-2.4258 2.5076-3.625l2.5076-2.1803h5.9848v4.0495l-2.75 1.048c-1.5125 0.57641-3.9875 1.2965-5.5 1.6002l-2.75 0.55224zm-78-10.649c0-4.045 3.269-13.156 4.7204-13.156 0.43529 0 1.389-1.35 2.1194-3l1.3279-3h1.9476c1.0712 0 2.213-0.69176 2.5375-1.5372l0.58989-1.5372-3.7252-4.1163 2.0193-1.6546c1.1106-0.91004 2.0966-2.7391 2.1912-4.0646 0.0946-1.3255 0.75699-2.7811 1.472-3.2347 0.71505-0.45356 2.3521-0.83155 3.638-0.83997l2.3379-0.0153-0.71008 4.25-0.71007 4.25 4.4351-3.9826 1.8149 2.2413c0.9982 1.2327 2.3053 2.2413 2.9046 2.2413s1.0897-0.62685 1.0897-1.393c0-0.76615 0.74008-1.677 1.6446-2.0241l1.6446-0.6311 3.7037 3.3518-2.3713 2.8572-4.4967-0.85961-0.65035 3.8494-0.65035 3.8494h-1.9618c-1.079 0-3.3026-0.69339-4.9415-1.5409-1.6388-0.84747-3.4165-1.2709-3.9503-0.94098s-0.97063 2.568-0.97063 4.9735v4.3736l-1.991 0.63194c-1.0951 0.34756-2.4159 0.36935-2.9352 0.0484l-0.94417-0.58353-0.31478 3.269-0.31477 3.269-5.172 0.60119-0.914 3.6888-0.91401 3.6888-1.75 0.33395-1.75 0.33394zm71-22.204c0-1.1264 1.2375-3.1372 2.75-4.4684l2.75-2.4204 6.5-0.0632v4.0628l-1.75 0.63134c-0.9625 0.34724-2.9445 1.4581-4.4044 2.4686-1.4599 1.0105-3.3724 1.8373-4.25 1.8373h-1.5956zm-82.25-2.0321c-0.9625-0.5606-1.75-1.4311-1.75-1.9344s0.95625-1.4269 2.125-2.0524l2.125-1.1373 2.375 1.2711c1.3062 0.69909 2.375 2.095 2.375 3.1021v1.831l-2.75-0.0304c-1.5125-0.0167-3.5375-0.48908-4.5-1.0497zm-9.9174-2.4207c-0.27543-0.27543-3.7254-0.54987-7.6667-0.60986-3.9412-0.06-7.1659-0.42363-7.1659-0.80809 0-0.38445 0.60347-1.5243 1.341-2.533l1.341-1.834 4.409 6e-3c5.6443 8e-3 12.751 1.2146 13.407 2.2762 0.27967 0.45251 0.23388 1.5384-0.10174 2.413-0.33563 0.8746-1.6121 1.5902-2.8366 1.5902s-2.4517-0.22535-2.7271-0.50078zm-27.535-5.1815c-1.2115-0.24442-2.4862-1.3375-2.8326-2.429l-0.6299-1.9846 1.2051-1.452c0.66278-0.79861 2.05-1.452 3.0826-1.452h1.8776v2.8128l4.1594-1.0877-0.65938 5.7749-2 0.13105c-1.1 0.0721-2.9912-0.0689-4.2027-0.31336zm99.369-0.98435c-1.3506-1.3506-0.59014-3.234 2.4221-5.9986 5.8464-5.3656 9.4206-9.0596 13.248-13.691l3.8365-4.6433h3.8269v1.4546c0 0.8-1.125 2.5795-2.5 3.9545-2.6792 2.6792-3.456 4.6292-1.048 2.6307l1.452-1.2051 4.0974 1.3004 2.9883-2.1278c3.3757-2.4037 8.0777-3.1109 8.7166-1.3111 0.23356 0.65797-1.5173 2.5861-3.8908 4.2847-2.3735 1.6986-5.1081 3.7478-6.0769 4.5537s-2.9338 1.4653-4.3666 1.4653h-2.6052l0.51847-1.9826 0.51848-1.9826-2.0224 1.0824c-1.1123 0.5953-3.2056 2.1298-4.6518 3.41-5.454 4.828-11.668 9.4539-12.713 9.4633-0.59584 5e-3 -1.3833-0.2903-1.75-0.65696zm-20.193-1.3766c-0.35461-0.57377 0.54174-2.5988 1.9919-4.5l2.6366-3.4568h3.8982v2.0478c0 2.2186-4.4849 6.9523-6.587 6.9523-0.71222 0-1.5851-0.46944-1.9397-1.0432zm-106.97-2.3569-9-2.2625v-3.8374l3.2663-0.31457c1.7965-0.17302 6.634 0.43465 10.75 1.3504l7.4837 1.665v1.6996c0 1.6525-1.842 4.1694-2.95 4.0308-0.3025-0.0378-4.6-1.0869-9.55-2.3313zm14.878 0.94322c-0.32568-0.84872-0.32036-2.2514 0.0118-3.117l0.60396-1.5739 1.7415 0.33539c0.95785 0.18447 1.8864 1.0874 2.0634 2.0064l0.32181 1.671-4.1503 2.2212-0.59216-1.5431zm-112.19-7.2564-2.3076-0.44092 0.61522-6.3458 12.455-0.59427 4.0701 2.1782-1.0245 1.9143c-0.56347 1.0528-2.7067 2.3814-4.7627 2.9524-3.8244 1.0621-5.0145 1.1063-9.0458 0.33605zm203.96-0.59923-1.0893-1.3125 1.7168-5.1344 1.7168-5.1344 2-0.80312c1.1-0.44172 4.7-0.80313 8-0.80313h6l0.6391 4.5h-1.0696c-0.58825 0-1.0696 1.35-1.0696 3v3h-2.2792c-1.2536 0-2.9279-0.9-3.7208-2s-2.0172-2-2.7208-2-1.2792 0.81515-1.2792 1.8114c0 1.8692-3.4315 6.1886-4.9165 6.1886-0.46123 0-1.3288-0.59063-1.9279-1.3125zm-122.41-0.84977c-1.5125-0.55241-2.75-1.5519-2.75-2.221 0-2.1364 2.3037-3.6167 5.6286-3.6167 3.1016 0 6.3714 2.1022 6.3714 4.0962 0 0.52433-1.1543 1.3922-2.5651 1.9286-1.4108 0.53638-2.8733 0.93972-3.25 0.8963-0.37669-0.0434-1.9224-0.53092-3.4349-1.0833zm-49.083-5.5044c-1.0866-1.0866-0.76018-4.8398 0.53333-6.1333 0.66-0.66 2.1225-1.2198 3.25-1.2439 1.1275-0.0241 3.7289-0.64315 5.7808-1.3756l3.7308-1.3317 2.0904 2.5188-7.5521 1.5651 2.9175 0.58362c1.6046 0.32099 3.0742 1.0547 3.2656 1.6305 0.19146 0.57576-1.7964 1.8155-4.4175 2.7549-4.983 1.786-8.4698 2.1607-9.5989 1.0316zm29.833 0.0117c-1.1-0.23262-2.9995-0.63573-4.2211-0.89581-1.2216-0.26008-2.7227-1.41-3.3357-2.5554l-1.1146-2.0825 4.52-4.8113h-3.1153c-1.7134 0-3.4249-0.50091-3.8033-1.1132l-0.68797-1.1132 12.707 1.4748 3.7346 4.1258c2.054 2.2692 3.7531 4.6401 3.7756 5.2688 0.0225 0.62865-0.67079 1.4162-1.5408 1.75-1.6881 0.64777-3.694 0.63387-6.9182-0.048zm8-7.3451-0.61803-1h3.2361l-0.61803 1c-0.33992 0.55-0.78992 1-1 1s-0.66008-0.45-1-1zm193.5-2c-1.1-1.1-2-2.8438-2-3.875s0.28125-3.2812 0.625-5l0.625-3.125h3.9089l-0.638 2.9048-0.638 2.9048 1.0585 0.65422c0.5822 0.35982 1.0586 0.2444 1.0586-0.25649 0-0.50088 1.2424-2.2149 2.7609-3.809 1.5185-1.5941 3.8746-4.4733 5.2359-6.3983 1.3612-1.925 3.35-4.5125 4.4194-5.75l1.9444-2.25h6.6393v3.8982l-3.7301 2.8009c-5.7666 4.33-7.4224 5.6929-8.6425 7.1135-0.62005 0.72195-2.3649 2.4838-3.8774 3.9153-1.5125 1.4315-2.75 2.9783-2.75 3.4374 0 0.45909 0.9 0.8347 2 0.8347h2v1.3834c0 1.3729-2.8906 2.5768-6.25 2.603-0.9625 8e-3 -2.65-0.88635-3.75-1.9864zm-43.984-0.48119-1.2293-1.4812 1.8568-4.5972c1.0212-2.5284 2.6679-5.0404 3.6592-5.582 0.99132-0.54168 2.5663-0.82948 3.5-0.63956l1.6976 0.34531 2.2409-4.5321c1.2325-2.4926 2.245-5.0825 2.25-5.7552 5e-3 -0.67274 1.0885-3.1477 2.4077-5.5s3.1532-4.4289 4.0755-4.6147c0.9223-0.18582 2.213 0.39534 2.8683 1.2915l1.1914 1.6294 2.2073-2.0564c2.6308-2.451 6.4748-4.0265 9.8239-4.0265h2.4349v4.4l1.2-1.2c0.66-0.66 2.235-1.2 3.5-1.2h2.3v1.4111c0 1.595-2.8317 4.0775-15.143 13.276l-5.6038 4.1868 0.44619 2.3341 0.44619 2.3341-3.157 3.9791c-1.7364 2.1885-3.7946 4.3392-4.5739 4.7794l-1.4169 0.80031-2.3636-2.5503c-1.3-1.4027-3.0626-2.5503-3.9171-2.5503-2.9041 0-4.788 1.2363-6.2798 4.1212-0.81878 1.5834-1.872 2.8788-2.3406 2.8788-0.46853 0-1.405-0.66653-2.0812-1.4812zm31.248-26.344-2.4403-0.32495-2.0042 1.8138c-1.1023 0.99758-2.4056 2.5637-2.8961 3.4803l-0.89192 1.6666 10.673-6.3107zm27.376-1.8689c-1.1952-1.1952-0.64571-3.3062 0.86052-3.3062 0.825 0 1.5 0.64844 1.5 1.441 0 1.6706-1.4273 2.7984-2.3605 1.8652zm-4.0571-18.622c-0.98993-0.72385-1.6384-2.0496-1.4411-2.9461 0.19731-0.89652 2.8061-4.5793 5.7972-8.1839l5.4385-6.5539h2.7282c1.5005 0 2.9261 0.5625 3.1679 1.25 0.62248 1.7694-0.7899 5.1648-3.474 8.3514-6.7395 8.0014-8.1089 9.3986-9.2116 9.3986-0.66291 0-2.0152-0.59225-3.0052-1.3161z"/>
</svg>
