<?xml version="1.0" encoding="utf-8"?>
<svg xmlns="http://www.w3.org/2000/svg" version="1.1" viewBox="0 0 364 1106">
	<title>Sketch of a stone window far taller than wide. Through the window is a view of a church steeple and small town, followed by a river and then a mountain in the distance.</title>
	<path d="M126.7 1104.9c-.4-.6-.9-5.5-1-10.9s-1-12.2-1.9-15.1c-.8-3-1.3-6.8-1.1-8.6l.4-3.2-2-.6c-2-.7-2.5-2-1-3l1-.5-1.1-5.8 1.6-2.3c.9-1.3 1.6-3.5 1.6-5 0-2.5 2.7-5.9 4.8-5.9.6 0 1.5 1.4 2 3l1.1 3-1 .6c-.4.3-.9 2-.9 3.9v3.3l1.5 1.2c1.7 1.4 2.1 6 .5 6h-1v5c0 2.9.7 6.3 1.4 7.8.8 1.5 1.7 7 2 12.2.4 5.3 1 11 1.3 12.8l.6 3.2h-4c-2.3 0-4.5-.5-4.8-1.1zm-38-4.8-2-.8 1.7-.8c1-.4 3.5-.3 5.5 0l3.8.8-2.5.8c-3.3 1-4.1 1-6.5 0zm-10.4-1-2.4-.6-1.8-7.2c-1-3.9-2.3-10.4-2.9-14.4l-1-7.4 1.4-7c.8-3.8 2-8.8 2.9-11l1.4-4.1-1.3-3.1-1.3-3.2.4-3.6.5-3.5-1.6-3.1a26 26 0 0 1-2-5.2c-.3-1.2-.8-5.1-1.1-8.7l-.6-6.5-4.1-6.5c-5-7.8-6.8-10-8.2-10-.6 0-1.6-.9-2.3-2-.6-1-1.8-1.7-2.5-1.4-.7.2-2.4-.7-3.7-2-1.3-1.5-3-2.6-3.6-2.6a34 34 0 0 1-9.3-4.5 35.4 35.4 0 0 1-10-12.2 119 119 0 0 1-7.4-23.8c-.4-3.3-1.2-13.2-1.7-22a455 455 0 0 0-2-23.5l-.9-7.5 1-1.7c1.2-2.4 1-3.8-.5-3.8h-1.4l.3-5.3.5-11 .3-5.7-3.7-2.7.7-3.4.6-3.5-3-1.8c-1.6-1-3-2.3-3-3 0-.6 1.5-2.3 3.3-3.8l3.2-2.7-1.2-1.3a5.8 5.8 0 0 1-1.3-3.5V837l2.5-1.6c1.4-1 3.2-1.4 4-1l1.6.5v6.8c0 3.7.6 11.7 1.4 17.8l1.5 12.3c0 .7.5 1 1 .7s1-.2 1 .4-.4 1-.9 1h-1l.4 34.3.4 34.3 1 3.5a62.7 62.7 0 0 0 11.4 24.1l4.8 6.7 3.2 1.2c1.8.7 4.7 2.4 6.5 3.7 1.7 1.3 3.8 2.3 4.5 2.3 2 0 16.8 15.2 16.8 17.2 0 1 .5 2 1.1 2.4.6.3 1.8 2 2.5 3.8a85 85 0 0 0 2.3 4.6c2.6 4.7 3.1 6.3 3.1 9.1 0 1.8.6 6 1.2 9.5l1.2 6.3-1.3 8.8c-.6 4.9-1.9 11-2.8 13.7l-1.5 4.8.5 8.4a68 68 0 0 0 5.2 23.4l2 2.8.7 1.2H82a25 25 0 0 1-3.7-.8zm-3.6-82c-1-1.6-2.6-.3-1.9 1.5l.6 1.6 1-1c.5-.6.7-1.5.3-2.1zm30.5 80v-3.1l1.5-.6c.9-.3 1.9-.3 2.2 0 1 1-1 5.9-2.5 6.4l-1.2.4v-3.1zm-.5-12.7-1.7-1.7.7-5.1c.8-5.3 1.2-13.4 1.3-25 .1-11.7.1-12.8.4-21l.2-8-1.3-5c-.8-2.8-2.4-6.5-3.6-8.1a35 35 0 0 1-4-7.9l-1.6-4.8-3-2.9a23 23 0 0 0-4.8-3.4c-1-.3-2.4-1.6-3-2.8l-1.3-2.3-7-2.2a94 94 0 0 1-29.3-15.3 29.7 29.7 0 0 0-5.6-3.9c-.4 0-1.3-1.3-2-3-.7-1.5-2.1-3.7-3.2-4.7s-3.3-4.6-5-8l-2.9-6.2v-5c0-2.6-.4-6.1-.9-7.7-.5-1.6-1.2-17.2-1.5-34.7-.4-17.5-1-32.8-1.5-34l-.9-2.3.8-1.5c1-2-.8-30.8-2.2-33.7l-1-2.2 1-1.3 1-1.2-.8-6-.9-6-3-2.5c-1.7-1.4-3-3.1-3-3.9a64 64 0 0 1 8.7-14l1.2-1.3V771l2.5-4.2-1.1-.4c-.7-.3-1-1.1-.7-1.9.3-.7 1.1-1.1 1.8-.8l1.3.5v-21.3l-.1-21.4 2-8L30 702c-.4-6.2-.5-12-.3-12.7.7-1.8 3.3-1.7 4 .1 1 2.5 2.4 1.7 2.4-1.2v-2.8l-4-2.5v-2.4c0-1.4.4-2.7 1-3l.9-.7.6 2.6c.4 1.4 1 2.5 1.6 2.5 1.4 0 1-3.8-.6-7a11 11 0 0 0-3.6-4l-2-1.1.5-1.7c.3-1 .1-3.2-.4-5l-1-3.3 1.2-7.5c1.2-7.3 2.4-9.3 3.5-5.4.3 1.1.9 2 1.4 2 .5 0 .9-1.2.9-2.7v-2.6l-6.3-5.3L31 636c1.6-2.9 2-12 .6-13.7l-.9-1.3.7-6.7a81 81 0 0 1 1.2-8.5c.6-2.2 2.4-2.4 2.4-.2v1.5l2-1.2-.5-19-1.2.5c-2.1.8-2.6-1.4-.8-3.4l1.7-2-5.2-2v-2.7c0-1.6.6-4.1 1.5-5.7l1.5-3-3.3-8.6 1.1-4.2c.6-2.4 1.2-5.4 1.4-6.8l.3-2.5 1.7.1c1 .1 1.8-.3 1.8-1 0-.5-1-2-2.2-3.3l-2.2-2.3 1.9-2 1.8-2-2.6-5 1.2-4.4c.7-2.5 1-5.2.7-6.1-.3-.9-.6-6.9-.7-13.4l-.1-12-2.8-5.4v-8.4a37 37 0 0 0-1-10.4l-1.1-2 3.2-1.2-.6-1.4c-.2-.7 0-2.5.5-3.9l1-2.5-2.4-8.7 3.5-5.4.4-15.7c.6-20 .7-53 .3-74.7-.2-9.3 0-19.9.4-23.5l1.2-10c.3-1.9.7-12.2 1-23a239 239 0 0 1 1.6-23.6l1-4.2-2.7-5.2.9-5.7c.5-3.1 1.4-6.3 2-7 1.3-1.6 4-6.6 6.3-11.3 1-2 2-3.7 2.5-4 .4-.3 1.5-2 2.5-4s3.3-5.2 5.2-7.3c1.9-2 4-5 4.5-6.5a83.7 83.7 0 0 1 19-19.2h1.5L86 196a106 106 0 0 1 21.2-20.2 5942.7 5942.7 0 0 0 18.6-10c4.4-2.3 9.4-5.5 11-7 1.7-1.4 4.9-3.2 7-4 2.3-.6 5.2-2 6.6-2.8a111 111 0 0 1 7.8-4.3c3-1.5 6-3.4 7-4.2 1-.9 3-2 4.6-2.7s6-3.3 10-6l7.3-5 14-14.3L219 97.3c2-2.2 4.5-5.6 5.5-7.5 1-2 3.3-4.9 5-6.5s4.1-4.6 5.3-6.5a124 124 0 0 1 14-16.9c.4-.2.8-1 .8-1.7a76 76 0 0 1 17.2-18l3.8-2.4h6.5l1.5-3.2 1.5-3.2 11-5.7 2.9 3-1.7 2.5c-1 1.4-2.1 2.6-2.7 2.6-.5 0-2.6 1.5-4.7 3.3l-3.8 3.4-7.4 1.3L254 59.4l-2.5 4.5a39.1 39.1 0 0 1-5.4 7.5 28 28 0 0 0-4.4 5.8c-.8 1.7-2.3 4-3.4 5.1-1 1.2-2.7 3.8-3.7 5.9a356.4 356.4 0 0 1-35.4 38.5c-10 9.9-19.6 17.6-24.3 19.6-1.8.8-3.8 2-4.5 3-.7.8-1.8 1.5-2.3 1.5-1.1 0-11.5 4.7-19.8 9l-15.1 7.7a197.2 197.2 0 0 0-24 14 55 55 0 0 0-8.5 6.9 623.6 623.6 0 0 0-28.4 31l-7.3 9.2a220 220 0 0 0-8.1 11l-3.7 5.2-1.1 5.5a57.3 57.3 0 0 1-5.8 16.8l-1.3 1.5-.5 13.9c-.3 7.6-.8 16-1.1 18.8-.8 6.6-1 44.3-1.3 148.6-.1 47 0 97.6.4 112.5.8 36.8.8 78.3 0 79.6-.3.6-.6 10.3-.5 21.7v20.7l-1.4 5-1.5 4.9v72c0 39.7.3 76.2.4 81.2.4 10.8 1.5 18.5 2.7 18.5h.9v-12.3L43 830c-.2-6.4-.2-12.9 0-14.5.5-9.3 1-35.8 1.5-82a2025.5 2025.5 0 0 1 2.8-88.6c-.3-3.1.1-98.7.4-103l.8-32.5c.3-15.4.8-35 1.2-43.5.4-8.6.6-24.5.5-35.5l-.1-20-3.1-10.7.5-14.2c.2-7.8.8-21.5 1.2-30.4l.7-16.3-2.5-4.6.5-18.5c.6-19.7 2.4-36 5.1-44.9 1-3 2.2-7.3 2.8-9.5.6-2.2 1.9-5.1 2.8-6.5 1-1.4 3-5 4.4-8a75.9 75.9 0 0 1 10-17 131 131 0 0 1 16.9-20.3c6.2-6.4 11.7-11.7 12-11.7 1.3 0 12.2-8.8 16.8-13.4 2.4-2.5 4.8-4.6 5.3-4.6s2.3-1.1 4-2.5a17 17 0 0 1 5.6-3.2c1.4-.3 7-2.6 12.2-5l12.5-5.8a144.9 144.9 0 0 0 26.6-14.5c.5 0 2.4-1.3 4.2-2.9a44 44 0 0 1 7.3-5c2.2-1 6.9-5 10.5-8.5 3.5-3.7 6.8-6.6 7.3-6.6 1 0 10.3-9.4 18-18.1l11.8-13c4-4 8-9 9-11a49 49 0 0 1 7.4-8.8 28 28 0 0 0 5.6-6.5c0-.7 2.3-3.6 5-6.5 2.8-3 5-5.7 5-6.2s2-1.7 4.3-2.8 5.8-3.5 7.7-5.5c1.9-2 4-3.6 4.7-3.6.8 0 3-1.5 5.1-3.3 2-1.8 4.9-3.9 6.3-4.6l7.5-4.2c6.4-3.7 14.3-7.5 17.5-8.4 4-1.1 8.7-3.4 9.8-4.8a54 54 0 0 1 11.9-18 5 5 0 0 1 3.4-.3l2 .7v1.8c0 2.3-4.4 10.2-7 12.5-1.1 1-2 2.5-2 3.2v1.3h4.8l2-3.2a26 26 0 0 0 2.7-6.3c.4-1.6 1.2-3.5 1.7-4.2s1.6-1.3 2.4-1.3h1.4v12.9l-2.5 3a10 10 0 0 0-2.5 5.4c0 1.4-.7 3-1.5 3.7l-1.5 1.3 1.1 4.4-1.3 1c-.7.7-2.2 1.3-3.3 1.5l-2 .4.3 5c.1 2.7.5 5.7.7 6.5.3.9-1 3.4-2.6 5.8l-3.1 4.2h-4l-.9 2.5a29 29 0 0 0-1 7.8c0 2.8-.6 8-1.3 11.7l-1.2 6.5h-3l.4-3 .7-13.1a65 65 0 0 1 1.4-12.8 17 17 0 0 0 1-5.2v-2.4h-1.4c-.8 0-2 .9-2.6 2-1.1 2.1-1.6 8.5-1.8 26.2l-.2 9.8h-1.5c-.8 0-1.5-.4-1.5-.8V78.3c0-5.5.2-12 .6-14.4l.7-4.3-4.8.7.2 3.5.2 6c.2 4.4-1 29.4-1.5 30.9l-.5 1.4-2.2-2.2.1-17.6c0-9.6-.2-17.5-.7-17.5-1.3 0-4.1 3.5-4.1 5.2 0 1-.5 2-1 2.3-.6.3-1 1.5-1 2.5v2h4.2l-2.5 3 .3 38.2-2.5-.9-.3-16.4-.2-16.4-2.1-1.8a7.4 7.4 0 0 0-3.1-1.7h-1l.6 2.3c.6 2.7-1.1 8.7-2.6 8.7-.5 0-1.2-.7-1.5-1.6l-.6-1.6-1.9 5.3c-1 3-1.8 5.6-1.8 6 0 .5.4.9 1 .9.5 0 1.8-1.4 2.9-3.1l1.9-3.1.6 1c1.2 2 2.2 14.8 1.8 24l-.4 9.2h-2.7v-5.3l-.2-8.7c0-2 .2-4.9.6-6.5l.6-3-3-4-1.1 4.5a158 158 0 0 1-4.8 13.2l-3.5 8.7.6 1.6c.4.9 1 1.4 1.5 1s2-3 3.2-6 2.8-5.5 3.3-5.5.6.6.3 1.4l-1.7 5.7c-.7 2.4-2.2 6.6-3.6 9.2a30.8 30.8 0 0 0-2.3 5.8c0 1.2 3.7 1.1 4.4 0l.6-1 6 1.1v-1c0-1.8 6.7-12 8.2-12.4 2-.8 3.8.2 3.8 2 0 1-1.4 3.1-3.1 4.7a42.7 42.7 0 0 0-5.5 6.7l-2.4 3.8h-7.1l-.5 1.4c-.3.8 0 2.5.9 3.8l1.5 2.3-2.2 10.4 1.2 2.5c.6 1.4 1.6 2.6 2.1 2.6h1v-5.6c0-6.6 1.9-13.4 3.8-14.1.8-.3 1.6-.4 1.8 0 .3.2-.2 2-1 4-1.7 4.1-2 8.7-.5 8.7.5 0 1-.8 1-1.8s.7-2.8 1.4-4.2l1.4-2.5.7 1.6c.3.8.1 2.8-.5 4.3-1.2 3.3-1.4 10.6-.1 10.6.5 0 1.2-2.5 1.5-5.5l.7-5.5 3.2-3.2.8 1.3.7 1.2-3 6.5 1.2 3.5 1.8-1.7a8 8 0 0 1 4.8-1.6h2.8l12.4-12.9 4.2 1.1v1.9c0 1-1 2.3-2 3-1.2.6-5 3.6-8.3 6.7l-6.2 5.6-.5 2.5-.5 2.6-3.5.6v-3.6l-2.1 2.7c-1.1 1.6-2.5 2.5-3 2.2-1.5-1-4.8.6-6 2.7l-1 2 .7 1.7c.4 1 .8 3.9.8 6.5l.1 4.8 4.5 4.3c2.5 2.3 5 5.1 5.7 6.2l1.2 1.9 1-1.4 1-1.5-1-1.8c-.5-1-1.6-1.8-2.3-1.8H318l.8-4.5-6-3.4.2-6 .1-6.2 1.2-1c.6-.5 2-.6 2.9-.3l1.7.7-.4 3.6c-.3 2-.8 4.3-1.2 5.3l-.7 1.6 4.1 1.3v7.4l1.4-2.6 3.1-7.2c1-2.6 2.2-4.7 2.6-4.7 1.7 0 1.7 1.8-.2 6-1 2.3-2.2 6-2.5 8.1l-.6 3.9h.9c1.5 0 3.3-2.3 3.3-4.3 0-2.5 2.8-7.7 4.2-7.7h1l-.6 2.2-1.3 5-.5 2.8h1.1c.7 0 1.6-1.1 2.1-2.5.6-1.4 1.7-2.5 2.5-2.5s1.5.6 1.5 1.3c0 2.3-2 8-3 8.7a29 29 0 0 0-2.5 8.6l-1.6 8 2.2 8.4h6v-2c0-1.1.4-2 1-2s1.4.9 1.7 2 .7 2 1 2 1.1-.8 1.8-1.7l1.3-1.8 2 2c1.2 1 2.2 2.4 2.2 3.1 0 .8-1.3 2.8-2.9 4.6l-2.9 3.2-9.3-7.6v1.7c0 1 .8 2.3 1.7 3l1.7 1.2-.9 2c-.4 1-.9 2.6-1 3.6-.1 1-1 2.6-1.8 3.6-1 1-1.7 2.5-1.7 3.3 0 .9.7 2.1 1.6 2.8l1.5 1.3 12.1-1.3-.3 2.3-.3 2.2-6.6 2 .3 2.5.2 2.5 2.6-.2 5-.5 2.5-.3.3 3.4c.2 1.9-.2 3.9-.8 4.4-.6.6-1 2-1 3v1.7h5.1l-.3 1.8-.4 1.7h-3c-4.3.1-9.5 1.5-9.5 2.6 0 1.7 3.1 2.2 5.6 1 2.4-1.4 5.5-.9 5.5.8 0 1.7-3.2 4.2-5 3.9-1.8-.4-5.3 3-4.4 4.4l.5 1 1.4-1.9 1.3-1.8.8.9c.5.4.9 2.5.9 4.5v3.6h3v-6l2-.3 2-.2 2.5 5.7-.4 5.4-.4 5.4-4.2 1.8-4-1.2c-2-.7-4.3-1-5-.6-.5.3-1 2.4-1 4.5v3.8l-3 1.2v2.8c0 1.6.5 3.7 1.3 4.6l1.3 1.8 3.9-.7.6-13.6 1.2.4c.6.2 1.3 1.8 1.5 3.5l.3 3.1 6.4.6-.3 3.7a24 24 0 0 0 1.1 8.1l1.6 4.4-.7 5-.7 4.8-3.7.7-.5-2c-.3-1.2-1-2.2-1.5-2.2h-1l.6 3.9.7 3.9-4.1 1v2.1c0 1.2-.5 2.1-1 2.1-.6 0-1-1.5-1-3.4s-.5-3.7-1-4l-1-.7v5.8c0 3.2.4 6.5.8 7.2l1 1.4 9.1.3 3.5 3.4-2 1.8-6.7-1c-3.7-.6-7-.8-7.3-.5-.3.3-.8 2.1-1.1 4.1l-.6 3.6 2.3 7c1.2 4 2 7.4 1.6 7.7-1 1-3.7-1.8-3.7-4 0-1.2-.7-3.5-1.5-5.2l-1.4-3v13.3c0 .7-1.6 1.5-3.5 1.8s-4 1.2-4.5 1.9c-.6.6-1 2.5-.8 4.1l.2 3h-2.3c-1.2 0-2.7.6-3.2 1.5-1.2 1.8-1.2 6-.1 7.8l.8 1.3 2.8-.7 2.7-.7 1.4-3.4c.8-1.8 1.4-4.6 1.4-6.1 0-3 1.6-5.3 3.8-5.3h1.3l-.6 3.8c-.4 2-1.3 5-2 6.7a15 15 0 0 0-1.5 5.2v2.4l1.8.1 4.7.3h3l-.3 5c-.1 2.8-.7 6.7-1.3 8.8l-1 3.8h-1.4c-.8 0-2.1-1.5-3-3.3a63 63 0 0 1-2.5-9.1l-1.2-5.9-1 1.1c-.7.7-2.2 1.2-3.5 1.2-1.3 0-3.3.4-4.4 1l-1.9 1v5.5l.8-1.3c.8-1.2 8.2-4.6 8.7-4 .2.1.8 3.2 1.4 6.7l1.1 6.5-1.8 1.8-1-1.9c-.5-1-1.3-3.6-1.7-5.6l-.7-3.7H327l-.6 3.7c-.4 2-.7 4.7-.7 6 0 1 1.8 4.4 3.9 7.2l3.9 5.2-1.8 7.9 1.1 4.5c.7 2.5 1.5 4.5 1.9 4.5s.5-3.8.2-8.4l-.4-8.4 2.5-1.5 2.3 2.9c2.5 3 3.1 5.8 1.4 6.9-.5.3-1 2-1 3.6 0 1.7-.6 4.3-1.4 5.7a33 33 0 0 0-2 4.5l-.5 1.8-2-1c-1-.6-2.1-1.9-2.5-2.8-.4-1-1-4.7-1.3-8.2l-.6-6.4-1.3 1.8-1.4 1.8-.1-1.4a109.3 109.3 0 0 0-.7-5.9c-.3-2.6-1.6 0-1.7 3.5l-.2 3.5 2.7 2.2V469l4 4-.6 8c-.3 4.5-.9 9.2-1.4 10.3l-.8 2.2-.6-1.5a32 32 0 0 1-1.3-5.5c-.5-2.1-1.4-4-2-4.3l-1.3-.4.4 8.1a42 42 0 0 0 .9 8.7c.3.3 1.5 0 2.6-.6l2-1 1 3.7c1.4 4.8 1.4 9.9 0 12.3-.5 1.1-1.6 2-2.4 2h-1.5v-11.2l-3.5.7.2 7.4.2 7.5 1.7 3.5 3.5 7.1c2.2 4.5 3.2 10 2.1 11.7l-.8 1.3-12.8.5-1.8-9.7 1-5.1 1-5.2-.8-6.5c-.4-3.6-.5-9.3-.2-12.7l.5-6.3-2.4-2.9 1-2c1.3-2.4 1.4-6.8.2-7.6-1.2-.7-1-10.4.2-14.3l1.1-3.3-2.2-1.5c-1.2-.8-2.2-2.2-2.2-3s.7-2.5 1.5-3.8l1.5-2.3-2-5.6c-1.1-3-1.7-6.3-1.4-7.1.3-.9 1.4-1.8 2.4-2.1 1-.4 2.3-1.3 3-2l1.2-1.4-1.3-3.8c-.7-2.1-1.7-4.3-2.1-5l-.8-1 1.5-1.3c.8-.7 1.5-1.7 1.5-2.2s-.8-.8-1.8-.8-2.1-.3-2.5-.6c-1-1 1.2-6.7 3.4-8.7l2.1-2-.7-5.1a140 140 0 0 1-.8-13.1l-.2-8-2.3-1c-1.2-.6-2.2-1.5-2.2-2.2s.7-1.7 1.5-2.4 1.5-1.9 1.5-2.7-.9-1.7-1.9-2l-1.9-.4V369l4-4 4-4.1-4-11.6-.1 2.1c0 1.2-.4 2.4-.8 2.8-.3.3-1.2.1-2-.5l-1.3-1.1v-7.8l4.2 2.2-.3-4.8-.3-4.9 1.3-2.4c1.5-2.6 1.8-10.1.6-12l-.7-1.2-1.4 1.2c-.7.6-1.8.8-2.4.5-.5-.4-1-2.3-1-4.3v-3.5l7.1-8-1-1.1a14 14 0 0 1-1.3-5.6l-.3-4.4-1.3-.4-1.2-.4v5.1H311c-.8 0-1.9-.8-2.4-1.8l-1-1.8 2-3c1-1.6 1.9-3.2 1.9-3.5 0-.4-.9-.5-2-.2l-1.8.5-1.2-2.1c-.6-1.2-1-4.2-.8-6.7l.3-4.6 4-2.1 4.4-2.4c.2-.2 0-1.3-.7-2.5a54.4 54.4 0 0 1-4.2-13.8c0-1-1.4-3.5-3-5.3-1.7-2-3-4.5-3-5.7v-2.3l-4.5-4.8a19.5 19.5 0 0 1-4.5-6.3 44 44 0 0 0-16.5-20.7c-2.5-1.3-4.8-2-5.1-1.7-1.2 1.2.6 6.8 3.2 9.8l2.5 3h5.4l3.8 3.9 3.9 3.9-.7 2.9-.6 2.8 3 3.3c1.7 1.8 3 4 3 4.8v1.4h-6l-.6-1.5c-.3-.8-1.1-1.5-1.9-1.5s-1.5-.6-1.8-1.4c-.3-.8 0-3 .5-5.1.5-2 .7-4 .4-4.3-.3-.3-1.1 0-1.8.6l-1.2 1.2h-5.8c-6.1 0-14.6-1.6-16.3-3.1-.5-.5-2-.9-3.2-.9s-4.3-.5-6.8-1.2l-4.6-1.2-4.4 5.3-11 1.3-2.5-2.6c-1.3-1.4-2.7-2.6-3.1-2.6-.4 0-2.2 1.3-3.9 3-1.7 1.5-5.3 3.9-7.9 5s-5.4 2.9-6.2 3.6a18 18 0 0 1-6.4 2.1l-5 .8-1.3 4.5-1.3 4.5-13.6 14.2-6.9.6c-3.8.4-7.1 1-7.4 1.2-.4.4 0 1.5.6 2.5a8.4 8.4 0 0 1 1.2 3.9c0 1 .7 2.5 1.6 3.2l1.7 1.4-.8-8.5h3.4l1 3.8c.7 2 1.1 5.1 1.1 6.8a35 35 0 0 1-7.6 17.7c-1.9 2-3.6 4.8-4 6.2-.7 2.7-.6 3.2 2.4 14.2l2 7.2-.8 4.1a19 19 0 0 0-.3 6c.3.9-.3 2.3-1.1 3s-1.6 1.8-1.6 2.5 1 2 2.2 2.8l2.3 1.5-1.2 2.5-1.2 2.6-7.2-1.1-5 2.6v2.8c0 1.6.4 2.8.8 2.8 1.4 0 2.9 4.5 3.1 9.3l.3 4.7h-1a7 7 0 0 0-1.9.3c-.4.1-.8-1.4-.8-3.4s-.4-4.5-.8-5.5l-.7-1.8-1 1.5c-.5.8-.9 3.6-.9 6.2v4.7H149l.6-9.6c.4-5.3 1.1-10.2 1.8-11 .6-.7.8-1.7.4-2.3s-1.5-1-2.7-1h-2l.3 12a55 55 0 0 1-.5 12.6c-.3.4-.6-.5-.6-2 0-1.3-.7-3.2-1.5-4s-1.5-2.8-1.5-4.5c0-1.6-.7-3.5-1.5-4.1l-1.5-1.3-.6 1.6c-.4 1-1 1.6-1.6 1.6h-.9l.2-6.5.1-6.5 5.3-2.7 8 .8 4.7-5-.7-1-.7-1.1-2.1.6c-1.2.4-4 1.5-6.2 2.6a20 20 0 0 1-7.5 1.8h-4.8c-.6 0-1.6 1.7-2.2 3.8l-1 3.8.2 13.2.2 13.2 7.6.2h9c.8 0 3 .1 5 .4l3.4.6-2.8 1.7 4.9 4.1-3.9 3 .3 14.3.2 14.3-1.2 5c-.7 2.7-2 6-3 7.3l-1.8 2.3.8 1.7 2.4 4.7 1.5 3 .1 9.7c0 5.4.2 10.1.3 10.6.2.4-1 2-2.5 3.2l-2.9 2.5 5.4 9.5-1.1 5a22 22 0 0 0-.5 7.5l.6 2.4-3.6 3.8c-2 2-3.6 4.3-3.6 5 0 .6 1 2.4 2.4 4l2.5 3 3-.5 3-.4v3.2h-1.7c-1 0-2.3.5-2.9 1l-1 1.1.8 3.7c.4 2 .6 6.8.3 10.7l-.4 7-2.5 2.2c-1.4 1.2-2.5 2.6-2.5 3 0 .5.8 2.7 2 5 1 2.1 2 6 2.3 8.4.3 2.4 0 7.2-.6 10.6l-1 6.3 1.1 2.2a35 35 0 0 1 1.5 9.8l.4 7.5-2.9 4.8a23.2 23.2 0 0 0-2.8 6.1c0 .8.6 1.6 1.3 2 1.7.5 3.7 7.6 4 13.2l.1 4.2-2.7 4a27.3 27.3 0 0 0-3 5.4l-.2 1.3h5l-.4 1.5c-.3.8-.6 6.6-.8 12.9l-.4 11.3-2.9 5.7-4.5.6.1 3.4c.2 3 1.2 4.5 3.8 5.4.5.2 1.1 5.1 1.4 11l.4 10.6-4.8 4.8 2.5 6 2.3.7 2.3.6-4.6 3.2.6 4.3 2-.3 3-.5c1.3-.2 1.7 3.5.6 5.2l-.9 1.3-4.2-2.2-.1 1.8v4l.2 2.2h-3.1v-5.5c0-5.5-1.4-13.1-3-17a19 19 0 0 1-1.2-4.5l-.3-2.5-4.5-1.5c-2.5-.8-4.9-1.9-5.2-2.4-.4-.5 0-1.9.7-3 .8-1.3 1.3-2.4 1-2.7-.2-.2-.7-5.2-1.1-11l-.7-10.6 2.4-1.6a9.6 9.6 0 0 1 4.5-1.7c3.2 0 6.8-1.8 8.2-4.1l1.3-2-2.3-2.8-.1-11-.1-11-6.9-1.2-9.5 2.4-.7 12.6c-1 18-1.7 42.3-1.7 66.4V730l2.3 7.1-.6 13.7-.7 15.2.6 19c.7 20.6.7 20 .2 40.5a766 766 0 0 0-.4 56c.3.4 1.5.1 2.7-.5 1.2-.6 4.2-1 6.8-.8l4.8.3.3 2.4c.2 1.3 1 3.1 1.9 4l1.6 1.5-.7 14.6c-.4 8-1 15.7-1.3 17.2l-.6 2.8h-2.7v-4.3l-1.5 1.2c-.8.7-1.6 2.2-1.7 3.4l-.3 2.2-5.3.6-1.6-1.6c-1-1-1.4-2-1.1-2.6.3-.5 1.6-.7 3-.3l2.3.6.6-2c.3-1 2-3.3 3.5-5l2.9-3 .6-5.4c.8-6.3.2-14.4-1-14.1-1 .2-2.5 8.3-2.8 14.3l-.1 3.5h-3l.1-4 1-13.2.9-9.2-4.4-.3c-2.4-.2-4.8 0-5.3.3l-1 .6.2 14.4V939l-.2 25.5 3.8 1a33 33 0 0 1 6 2.3c1.2.6 2.8 1.2 3.5 1.2 1.8 0 6.9 5.1 6.9 7 0 .9.3 2 .8 2.6 1.6 2 3 8.2 3.7 16.5.3 4.7 1 9.1 1.4 9.8l.8 1.3 1.5-1.6 1.6-1.5.8-9.3c.5-5.1.7-10.2.6-11.3s.2-3.8.7-6c1-4 2.4-24.2 2.6-38 0-3.9.6-10.2 1.3-14a342 342 0 0 0 3.2-34.3V886h-1c-.5 0-1 1-1 2.2 0 6.5-2.8 30-5 41.9-.6 3-1 12.3-1 20.6s-.3 16.5-.6 18.2l-.7 3.1h-2.9l.6-2.7 1.1-7.2.7-4.3-1.4.4c-.7.3-1.5 1.4-1.6 2.6l-.4 2.2h-3l.7-2.2c.4-1.3.7-3.3.6-4.5-.3-5.5-.3-7 0-10.3 0-2 .5-4 .9-4.5.7-1.1 2-6.1 4.5-17.5a201.3 201.3 0 0 0 5-30.6l.8-7.1-1.2-.7c-.6-.4-1.1-.4-1.2 0l-1.2 10.2-1.2 9.2h-1c-.6 0-1-1.5-.8-3.3.6-9.6 1.2-13.6 2.8-17.2 1-2.2 2-5.1 2.2-6.5l1.2-13 .8-10.5-.9-1-.8-1v1.5l-1 8-1.5 9.5a76.4 76.4 0 0 1-3.8 15 61 61 0 0 0-3.7 15.7c0 2.6-1.6 4.6-2.7 3.4-.8-.8 1.5-13 4-20.6 1-3.6 2.3-8.5 2.7-11l1.8-10.5c1.3-7.5 2-28.5 1.1-31.1l-.7-2-.7 2.8c-.4 1.5-.5 3.4-.2 4.2s0 4-.8 7.2a48 48 0 0 0-1.3 8.4c0 1.3-.5 5.4-1.1 9l-1.8 10.2c-.3 2.1-1 4-1.4 4.3-.5.3-1 1.4-1 2.4s-.7 2.5-1.6 3.2l-1.7 1.4.7-2.5 2.3-10.5 2.5-13c.5-2.8 1.2-7 1.4-9.5.3-2.5.7-5.2 1-6 1.1-2.5 1.6-8 .8-8-1 0-4.6 11-4.2 12.5.2.5-.4 2.5-1.3 4.5-2.5 5.7-4 10.9-3.4 11.9a39 39 0 0 1-2.5 15c-2.8 0-4.2-10.8-2-14.9l1.3-2.3-1.3-8.9-1.3-8.8h-4.6l-.8-1.8c-.4-1-.6-7.2-.4-14l.3-12.2h1.8c1 0 2.3.5 2.8 1.2l1 1.3-1 6c-.4 3.3-1.2 7.9-1.7 10.2l-.8 4.3 1 .6c.6.4 1.8-.4 2.8-1.7l1.8-2.4.7-7c.3-3.9.5-10.6.3-15l-.3-8h-6l-.3-11-.6-13.4c0-1.4.4-2.6 1.1-2.9l1.3-.4v4c0 2.2.4 4.3 1 4.7l1 .6v-2.3c0-1.3.5-3 1-3.8l1.1-1.5-.7 6c-.4 3.3-.8 8-.8 10.5l-.1 4.5h2.8l.8-2.8c.4-1.6 1-7 1.4-12l.6-9.3-4-3.6-3.6 1c-2 .6-4.3.8-5.1.5-2.5-1-1.6-3 1.6-3.7l3.1-.6-.5-4.8c-.3-2.6-.9-9.4-1.2-15l-.7-10.3h1c1.3 0 2.5 6.5 1.7 9l-.6 2h3.4l-.6-2.2c-.3-1.2-.1-2.7.5-3.4l1-1.2-.3-5.8-.3-5.8-4.5-.3c-2.4-.1-5-.7-5.5-1.3l-1-1 3.5-3.4 2 1.2c1.1.7 2.4 1 2.8.8.4-.2.7-5.2.7-11v-10.6h1c.7 0 1.5 1 1.8 2 .2 1.1.2 5.5 0 9.8l-.6 7.8 1.5 1.5c.8.9 1.8 3.3 2.1 5.5l1.3 6.4c.3 1.4.7 9.5 1 18l.7 24.8.3 9.3h1c.5 0 1-.9 1-1.8a190.5 190.5 0 0 0 2.9-13.2 723 723 0 0 1 4.5-21.3c.5-2.3 1.6-9.4 2.5-15.8a262.5 262.5 0 0 1 4.4-23.4c.7-2.7.8-5.2.4-5.7s-2.1-.9-3.8-1l-3-.4-.6-4.4 10.5.8.7 1.8.8 1.8v-2.2c0-1.2-.3-2.4-.9-2.8-1.5-.9-1.2-8.8.4-13.2.8-2 2-7.1 2.6-11.3s1.6-9.7 2.1-12.5c.5-2.7 1.4-8.8 1.9-13.5.5-4.7 1.6-10.5 2.4-13 .8-2.5 1.4-6 1.3-8l-.2-3.4 5.6-2.7-1-2c-.7-1-2-1.9-3-1.9s-2.1-.6-2.4-1.4l-.6-1.5 5.4-.6v-5l-3.5-.3c-1.9-.2-4-1-4.7-1.9l-1.2-1.6 1-1.8c1-2 4.4-2.5 5.4-.9 1.4 2.3 2.5-.4 2.5-6v-6h1c1 0 1.6 1.7 2.6 7.7l.6 4.2 9.4.6v3l-8.6.6v10l.2 7.5 1.9 2c1 1.1 2.3 3.3 2.9 4.9l1 2.8-3.9 1 3.1 4.7-1.2 3.8 2.8 2.4 1.3 10c.6 5.5 1 10.3.6 10.6-.4.4-.6-.8-.6-2.6s-.7-4-1.6-4.8l-1.5-1.5.3 5.8.3 6 7.6-.7 4-4.5c2.3-2.4 5-4.4 5.9-4.4 1 0 2.3-.7 3-1.5 1.8-2.2 9.8-5.5 13.1-5.5h3l3.7-3.3c3.7-3.3 8-5.4 16-8l4.3-1.3 10-9.5 7.8-3c4.2-1.7 8.5-3.8 9.4-4.6 1-.9 4-2 6.5-2.4l4.8-1 9.5-9.2.3-2.6.3-2.5 5-1.4-4.5-.2-.8-3.2-.9-3.3-3 .3c-1.8.2-3.5-.2-3.8-.7-.4-.6-.2-2 .4-3l1-2-3-.6a7.5 7.5 0 0 0-4 0l-1.1.7.6 2.4.6 2.3-1 .6-1 .6v-3.4c0-2-.6-4-1.4-4.5-.7-.6-2.3-.9-3.5-.5l-2.2.5.2 7.2v9.9l-.2 2.7H276c-.8 0-1.5.5-1.5 1v1.1l-7.5-.6.2-5.5.9-11 .6-5.3.9 1.4c.5.8.9 4.7.9 8.7v7.3l1-.6c.6-.3 1-2.4 1-4.6v-4l1.1.7 1 .6-.5 2.4-.6 2.3 2 1.2.2-3.8.3-7.5.2-3.8h-1.8c-1 0-2-.4-2.3-.8-.2-.4-2-.6-4-.4l-3.6.4.6 3.4.6 3.4h-1c-.5 0-1.2.9-1.5 2-.3 1.1-1.2 2-2.1 2h-1.6v-1.8c0-1 .4-3.3 1-5.2l1-3.4-1-1a63 63 0 0 0-13.2-1.3L235 591l-1.4-1.4c-.8-.8-1-1.9-.7-2.5s1.9-1.1 3.4-1.1 3.2-.4 3.7-1c.5-.4 4.3-1.8 8.5-3a38 38 0 0 0 9-3.6 6 6 0 0 1 3.2-1.4c2.2 0 10.8-7.9 10.8-10 0-1-.7-2.3-1.5-3-1.7-1.4-4.5-2-22.5-5a260 260 0 0 1-23.6-4.7 8 8 0 0 1-4.1-2l-1.2-1.4-7.7.6v4l7 3.5h5.5c6.7 0 21 2.3 26.6 4.3l4 1.4.6 3.2-8.6 4.4-29 1.6-2-2.4c-1-1.4-2.4-2.5-3.2-2.5h-1.4v5.6l-3.3 1.2c-1.9.7-4.2 1.2-5.2 1.2-2.1 0-8.5 4.6-8.5 6.1 0 .6 2 3.7 4.6 7l4.6 5.8 3.1 1c4.3 1.6 27.4 6.1 30.9 6.1 4.1 0 8 1.8 8.6 4 .2 1 1 2.1 1.9 2.4.7.3 1.4 1.3 1.4 2.1s-1 2.9-2.2 4.5l-2.2 3-4.6.5a58 58 0 0 0-8.2 2l-3.7 1.4-18.7-.3-6.8 3.2c-3.7 1.8-7.2 3-7.7 2.7-1.5-.9 0-3.6 2.6-4.5 1.3-.5 2.4-1.4 2.4-2s-1.6-1-3.6-1h-3.6l.4-1.2c.2-.7 2-1.6 3.8-2l3.5-.7 4.6.9c2.6.5 7.7.7 11.3.3l6.6-.6V615l-17 .8v-.8c0-.5.9-1.4 2-2l2-1-1.6-2.5-1.6-2.4-3.7-.8c-2-.4-4-.6-4.4-.5-.5.1-1.7-.2-2.8-.8l-2-1.1 1.3-2.1 11.3 1.1 2.6 3c1.5 1.6 3 3.6 3.6 4.5l.9 1.6 13.2-2.2a51 51 0 0 0 13.3-3.1v-1l-21.2 1.4-.6-2c-.3-1.2-1.2-2.1-2-2.1s-4.2-.9-7.6-2l-6.2-2-3.1-3c-1.7-1.5-4.2-3-5.5-3.2l-2.4-.3V591c0-.8-1.3-2.7-2.8-4.2a16 16 0 0 0-3.3-2.8c-.3 0-.2 1.8.1 4l.7 3.8-13.4 1.5-1-1c-1.5-1.6 0-4 3.5-5.4 1.7-.7 4.2-2.3 5.5-3.5 1.2-1.3 3.7-2.6 5.5-3a16 16 0 0 0 5.7-2.8c2.2-1.8 5.4-3.1 12.7-5.2.7-.2 1.3-1 1.3-1.6v-1.3l-4.8-.3c-8.7-.5-9.6-.7-10-2l-.4-1.1 6.7-1.7v-13.6l5.9-4.7 2.8 2.3 2.7-3.2c1.5-1.8 3.2-3.2 3.8-3.2.6 0 2.4 1.5 4 3.3s3.5 3.7 4.2 4.1l1.2.8 7-7.6 2.2 2.3-3.5 5.4 1.6 1.2a79.5 79.5 0 0 0 22.2 4c3.3.1 7.2.6 8.7 1l2.8.7v-6.3l9.5.6.3 4.6.3 4.7 2 1.7c1 1 2 2.9 2 4.2v2.3l-4.3 4.3c-2.4 2.3-6 5-8 6s-3.9 2.4-4.2 3.2l-.5 1.5h-4.3c-2.4 0-5 .4-5.8 1-.8.5-1.3 1-1 1.3.3.2 4.3.9 9 1.5l8.5 1 1.2-1.5c.7-.9 1-2 .7-2.4-.3-.5-1.4-.9-2.5-.9-1 0-1.9-.4-1.9-1s2.1-1.2 4.7-1.6l4.8-.7 8 2.1 3.5-1.9v-2.3c0-1.3.7-2.6 1.5-3 .8-.2 1.5-1.7 1.7-3.2s1-3 1.6-3.2l1.2-.4v9c0 5 .5 9.3 1 9.7 1.4.8 2.2-3 1.5-7l-.7-3.5h1.6c1 0 1.7.6 1.8 1.2.2 2.4-.3 8.3-.7 10l-.5 1.6 5 4.8c2.8 2.6 5 5.5 5 6.5s1 3.6 2.3 5.8l2.2 4.1-9.7 9.9 1.2 3.1-2.2 1.4a21 21 0 0 1-5.7 2.1c-2 .4-5.8 2-8.6 3.5a49.7 49.7 0 0 1-10 4l-9 2.2-4 1.2 1.7.4c1 .2 2.7-.2 3.8-.8 1.2-.6 2.4-1 2.7-.6 1.1 1.1-1 2.6-6 4-3 .9-6 2.3-6.7 3-.6.9-2.7 2-4.6 2.6-1.9.7-3.4 1.6-3.4 2 0 .6 1.2 1 2.6 1h2.6l-2.5 3h-9.4l-8 4a83.8 83.8 0 0 1-13 5.3l-5.2 1.3-7.7 8.3-12 5-.4 2.2c-.2 1.2.2 2.5.8 2.9 1.1.7 3 9.9 5 25 1.4 9.8 2.8 16 4.5 21 .9 2.3 1.6 5.3 1.6 6.6v2.3l7 1.4v2.7h-7.2l.7 1.8c1.1 3 2.3 10.3 3.5 21.2 1.1 11.2 2.7 20.3 4 23.6 2 5 3 9 5 23.5.6 3.5 1.3 7.2 1.6 8.2.3 1 1 1.8 1.6 1.8h1l-.3-7.3-.2-7.2h5.8l.4 3a11 11 0 0 0 1.8 4.7c.9 1 1.8 3.7 2 6l.6 4.5-1.2.7c-.7.4-1.5.5-1.8.2-.3-.4-1-2.5-1.3-4.9-.5-2.3-1.5-6-2.4-8.2l-1.7-4 .5 9.7c.3 5.4.3 9.8 0 9.8s-1-1.3-1.5-2.8l-1.1-2.7-.5 1.3c-.3.7 0 3.2.6 5.5l3.6 15.2c1.4 6 3 12.5 3.6 14.3.6 1.8 1.3 6.8 1.5 11 .2 4.2 1 10.2 2 13.2.9 3 2 7.6 2.5 10.2.4 2.5 1.4 5.7 2 7l1.3 2.2.7-2c1.1-3.1 2.1-13 2.6-26.3.2-6.8.9-13.2 1.4-14.2s1.3-4.9 1.6-8.4l.7-6.5-2.4-.1c-7.7-.3-9.5-.5-9.8-1.4-.5-1.4 7.5-2.7 12.4-2 7.4 1 9.5 1.6 9.5 2.5 0 .6-1.6 1-3.5 1h-3.5v9.2l3-2.5v5.3h4v3.2c.1 1.8 1 5.5 2 8.3l1.8 5 .7-2c.3-1.1 1.3-3.2 2-4.7.9-1.4 1.5-4.6 1.5-7 0-2.4-.7-6.3-1.6-8.8s-1.3-5.4-1-6.7l.6-2.3-3-1.5c-1.5-.8-3.1-2.3-3.4-3.3s-2-2.5-3.6-3.4l-3-1.7V830c0-1.1-.8-5-1.7-8.5L247 815l-1 .4c-.8.2-4 6-10.2 17.6l-.7 1.4 1.6 1 3.4 2.4 1.9 1.1-8.3.2-2.3-2.8.6-2.9c.4-1.6 1.2-3.3 1.8-3.8s2-2.9 3-5.2l1.8-4-1.7-5.7-1.8-5.7 1-1c.7-.7 1.7-.9 2.3-.5.6.4 1 2.4 1 4.6v3.9l1.6-.6a15 15 0 0 0 4-5c1.5-2.4 3.1-4.3 3.7-4.3h1l-1.2 4.8 2 .7a5 5 0 0 0 3 0c.5-.4 1-2 1-3.6v-3h3v6h1.6c1 0 3.2-1.6 5-3.5 2-2 4.6-4 6.1-4.3 1.5-.4 2.9-1.4 3.1-2.1l.5-1.3-6.3 1.2v-1c0-.4.4-1 1-1.4 1.4-1 4.3-10.5 3.6-12.2l-.6-1.7-1.4 1.9-1.3 1.8-1.1-.8-1.2-.7V778h1c.6 0 1-.7 1-1.5s-.8-1.6-1.7-1.7c-5.6-.4-18.5-.3-30.2.4-7.4.4-13.8.5-14.4.1l-1-.6 4.3-4.5-2.1-6.6-2.2-6.7-.9.6c-.5.3-.9 2-.8 3.8s-.1 4.7-.6 6.6c-.5 2-1 4.9-1 6.6s-.4 3.2-1 3.5l-1 .5-.3-5.3-.3-5.2 1.1-2.1 1.2-2.1-3.5-3.9 6.8-7 2.7 3.3a12 12 0 0 1 2.8 5.2c0 2.8 1.6 5 3 4.1 1.4-1 1.3-6.3-.2-6.8l-1.3-.5 1.7-1.9c.9-1 2-2.9 2.3-4.1l.7-2.3 5.9-1.2 1.4-3.1a70 70 0 0 0 2-5l.5-1.7h6.1l1-2.7a17 17 0 0 1 2.3-4.1l1.2-1.5.6 5.4c.3 3 .4 5.8.2 6.2-.3.4-2.6.7-5.3.7h-4.8l-.7 2.7c-.3 1.4-.5 2.7-.3 2.9l8.3 1.5c4.4.6 8.5 1.3 9.1 1.5l1.2.3-.9 4.3c-.4 2.4-.8 7-.9 10.2v5.8l3.5-.7.3-7.5c.2-4-.2-9.9-.8-12.8l-1.2-5.4 1.2-1.1c.6-.6 3-1.2 5.3-1.2h4.2l.5-4.4.5-4.4 10.8-.5 1.6-2.6-2-2.1-2-2.2 1.4-1c.7-.5 2.3-1.2 3.6-1.6l2.5-.6 5.8 3-.3 1.7-.4 1.7-5.5.7v1.8c0 1-.2 2.6-.6 3.5l-.6 1.5h-4c-2.1 0-4.8-.4-6-1l-2-1.1.3 5.3.3 5.3-3.3-.2c-1.8-.2-4 .2-4.7.8-.8.7-1.4 2.4-1.4 4s.5 4.1 1.1 5.9l1.2 3.2-1.1 2.2c-.6 1.2-1.4 3.6-1.7 5.4l-.7 3.2h2c1 0 2.7-.8 3.7-2l1.8-2 1.2 1c.7.6 3.4 1 6.1.8l5-.3v3l-8.3.6-1.6 3.5c-1 2-1.7 3.7-1.7 4s1 .5 2.4.5c1.3 0 2.9.6 3.5 1.3l1.1 1.4-1.8 2.4c-1 1.3-2.6 4-3.5 6l-1.8 3.8 1.1 2c.6 1.1 2 2.5 3 3l2 1.1v2.1c0 2.6 3.5 8.5 5.6 9.2.8.3 1.4 1.3 1.4 2.1 0 .9.7 1.6 1.5 1.6a3 3 0 0 1 2.2 1.3c.5.8 2 2 3.2 2.6l2.4 1.2-2.2 2.2-6.3-.2c-3.4 0-7 .3-7.7.8l-1.5 1-.4 6.5-.4 6.7 3.6 2.6-4.4 10.3 1 4c.6 2.2.8 4.5.5 5-.3.5-1.5 1-2.5 1h-2v5h1.5c.8 0 2.5-1.4 3.7-3l2.2-3h3.8l1.1-4.1 1.6.3c.9.2 1.8 1.1 2 2.1.2 1-.3 2.6-1 3.5a9 9 0 0 0-1.7 4.9l-.2 3.2 2 1c1 .6 2.9 1 4.1 1h2.2l-1.7-2.5-1.7-2.6 1.7-2c1-1 2.3-1.8 3-1.8h1.2l.6 4 .7 3.8-2.2 5.7.7 4.5c.4 2.5 1.1 5.3 1.7 6.3l1 1.9-2.2 2.2-1-1c-.5-.5-1.6-3.9-2.3-7.4l-1.2-6.5-5.8-.7.7 2.3 2.5 9.4c1 3.8 3 10.5 4.5 14.7s2.6 8.6 2.4 9.5c-.1 1 .3 2.8 1 4 .7 1.3 1 2.7.7 3.3-.3.5-1.3.6-2 .3l-1.5-.5V916c0-1.5-1.3-6.5-2.8-11.2-1.6-4.6-4-13-5.3-18.7L285 876h-7.6l.6 3.2c.4 1.8 1.6 4.5 2.6 6s2 3.6 2 4.6c0 1 .6 3.5 1.4 5.5.8 1.9 1.9 6.6 2.4 10.3.5 3.8 1.2 7.7 1.6 8.6l.8 1.8-1.9.1h-4.1l-2.3-.2v1.3c.1 2.1 1.7 8.8 3.8 16 1 3.7 1.7 7 1.4 7.3-.3.3-1.1.5-1.8.5-.8 0-1.4-.8-1.4-1.8s-1-4.5-2-7.7l-2.2-6v-10.6l-3.1 1.2-.8-1.3c-.5-.7-.9-5.2-.9-10V896l-2-3.6c-1.2-2-2.4-3.5-2.6-3.5s-.2 2.3.2 5.2l.7 5.3-.9-.8a26 26 0 0 1-2.2-7l-2.5-11.6-1.2-5.5-2.7-.9.7 5.4c1 8.7 3.4 20.8 4.4 22.7.4 1 1 4.3 1.4 7.5.7 7 3.9 19.7 5 19.7.4 0 .7-.7.7-1.6 0-2.4-2-10.7-3.3-13.2l-1-2.3 2.2-2.2.6 4c.4 2 1.4 5.8 2.2 8.3s2.3 7.9 3.3 12 2.6 9.7 3.4 12.5l1.6 5-2 1.9-1-1c-.9-1-3-8.9-4.6-18l-.6-3-4.4.8-1.2-5.4c-.7-3-2-10-3-15.8l-1.7-10.5-1.7.3-1.7.2-.7-3.7-.7-3.7 2.2-.7-2-3.2c-1-1.8-2.1-5.1-2.5-7.5l-.7-4.2h1.2c.6 0 1 1 1 2.4s.6 2.8 1.2 3.1c.5.4 1.2.5 1.4.3a20 20 0 0 0-1.2-5.9c-.8-3-1.8-7-2-9-.3-1.9-1-4-1.6-4.7l-1-1.3-.8 1.2c-.7 1.2.7 6.6 2.1 8.2 1.2 1.3 0 4.7-1.8 4.7h-1.5l.7 2.7 1 5.3c2.9 16.8 3.7 21 6 30l2.9 12.7 1.3 6.2-1.4 1.5c-.8.8-1.2 2.1-.9 3 .3.8 1.6 1.6 2.8 1.8l2.3.3v3.5l.4 7.6.2 4.2 6.7 4 .7 2.7.7 2.8-4.2 4.4c-2.4 2.3-5.2 4.6-6.2 4.9s-2.4.1-3-.5c-1.7-1.6-3-1.3-2.3.5l.6 1.7-1.6 1.8c-1 1-2.3 1.9-3 1.9-1.3 0-3.7-5.4-5.4-12-2.4-10-7.3-36.3-8.9-48-.4-3-1.2-6.4-1.8-7.5-.6-1.1-1.6-4.5-2.3-7.5l-2.2-8.9-1-3.3-1.1 1-1 1 1 4.4a68 68 0 0 1 2.9 16.5c-.3.3-1.2.3-2 0l-1.5-.6-.4-5.3a63 63 0 0 0-3.9-18.3c-.5-.5-.9-2.4-.9-4.2V884l-3-1.5c-1.6-.9-3-2.2-3-3 0-.8 1.3-2 2.8-2.7l2.7-1.3.3-6.4c.2-3.5 0-7.1-.3-8a26 26 0 0 1-1-5.6 114 114 0 0 0-3.1-19c-.3-.8-1-1.5-1.6-1.5h-1l.7 5.7a174 174 0 0 0 2.1 12.6c.8 3.8 1.2 7.2 1 7.5s-1.5-.3-2.5-1.4l-1.8-2-1.2-8c-.7-4.3-1.4-9.3-1.5-11s-1-5.6-2-8.8c-.9-3.2-1.4-6.2-1-6.7 1-1.7 2.3-1 4 2 .8 1.7 1.9 3 2.3 3h1l-1-3.7-1.8-8.7c-3.3-19-5.1-26.3-5.1-20.7 0 1.2-.4 2.2-.9 2.2-1.2 0-3.1-5.6-3.1-9.2 0-1.5-.4-4.7-1-7l-2.1-10.1-1.2-5.7 1.7-2 1.7-1.8-.7-4.1-.7-4.2h-2.7l-.1 4.8-.1 4.7-1-4-2.4-9.3c-.9-3-2.1-9.7-2.8-15l-1.2-9.7-1 .5c-1 .6-1 2 0 12.5 1 10.7 2.8 21 4 21.7l1 .7-2.7 3.2.7 8.7 3.6 45.3c.6 6.8 1.5 20.1 2 29.5 1 23.4 3.4 48 6 65A254 254 0 0 1 212 931l.6 13.6-2.9 2.4.4 6.7c.4 8.9 2 22 2.8 23.3.4.6.8 3.7 1 7 .2 3.3.8 6.7 1.3 7.7s1.3 4 1.6 6.5l.7 4.6-3.4 2.7c-3.5 2.8-13.7 7-14.7 6-1-1.1-.3-14.1.9-16.3.6-1.2 2-2.2 3-2.2h2l-.4-28.3c-.4-36.5-1.4-68.9-2.6-85.2a435 435 0 0 1-1-25v-12l-3.1-10-.4-15.5a341 341 0 0 0-2-38.5c-.4-1.4-1-2.3-1.4-2-.5.2-.8 15.6-.9 34.2v33.8l-1.6 10.5a152 152 0 0 0-1.5 16.8v6.3l-1.3-.4c-.6-.2-1.5-2-2-3.8l-.7-3.4 1-4.5c.4-2.5 1.2-7.7 1.6-11.5l1.2-11c.3-2.2.6-23.8.8-48l.4-44-1.5-4.6a62 62 0 0 1-2.1-11.2l-.6-6.8h-2.4v3.5c0 2-.4 3.5-1 3.5h-1l-.3-5.6c-.1-3.1 0-6.4.4-7.3.4-.8.6-5.5.5-10.3l-.2-8.8h1c.4 0 1.8 5.8 3 12.8l2.7 14c.2.7 1 1.2 1.6 1.2h1.1l-.6-6.7-2.1-20.8c-.8-7.8-1.5-17.4-1.5-21.5 0-4.1-.5-10.3-1-13.7-.6-3.5-1.2-10.8-1.3-16.4a43 43 0 0 0-.9-10.5c-1-.5-1.6 2-1.8 7a16 16 0 0 1-.7 4.9c-.6.9-1.8 21.5-2.9 46.2-.2 5.5-1 16.1-1.5 23.5a611 611 0 0 0-1.5 26 437.1 437.1 0 0 1-3 41.7 260 260 0 0 0-1 13.5c-.6 12.6-1.4 23.3-2.6 34l-1.2 9.6 4.4 4.3-1 2c-.7 1-1.8 2-2.6 2h-1.4l-.5 3.2c-.3 1.8-.8 11-1 20.3-.4 9.3-.8 18.6-1 20.5-1.1 13-1.7 21.1-2.2 32.6l-.5 13.2 3.4 2-.7 1c-.4.7-1.1 1-1.6.7-1-.6-2 1.8-2 4.6 0 1.1.5 3 1.2 4.2a9.7 9.7 0 0 1 1.3 3.7l1 5.6.6 4-3.2 2.7 1.2.8 1.3.7-2.6 3.2 4.7 3.9-4.8 1.8 4.5 1.2-.6 1c-.4.6 0 2.4 1 4.2l1.6 3-2.6 4c-1.5 2.1-3 4-3.5 4s-1.7-.8-2.6-1.7l-1.6-1.6.6-1.8c.3-1 .3-3 0-4.5l-.8-2.7-.8 1.4c-.5.7-.9 3.3-.9 5.7v4.4l1.4 1.6a12 12 0 0 1 2 3.7l.7 2.2-3.3 2-3.2 2-1.3-1c-.7-.6-1.3-2.1-1.3-3.4v-2.4h-4v3c0 1.7.4 3.8.9 4.8 1.6 3.1 3.1 10 2.5 11.6-.4.9-1.2 1.6-1.9 1.6h-1.2l.3 5.3.7 13.2.4 8-1.2 6c-1.8 8.1-4.4 17.7-5 18.3-1.4 1.4-2-1.6-2-9.1a36 36 0 0 0-.8-9.3 22 22 0 0 1-.4-7.2l.3-6 2.7-3.3-1.2-8.2-1.3-8.2 2.2-5.7-.6-3.5c-.4-1.8-2.2-5.2-4-7.4a16.8 16.8 0 0 1-3.4-5.2c0-1.8 1.2-3.3 3.7-4.6l2.3-1.2-.1-6.7a46 46 0 0 0-.8-9.2l-.7-2.5-5.7-2.7-2.3 1.2c-1.2.7-2.8 1-3.4.6-1.8-1.2-1.2-3.3 1.2-4l2.2-.6-2.8-2.5c-1.5-1.4-3.3-2.5-4-2.5a29 29 0 0 1-9.6-4.8c-.6-.8-12.6-3.5-23-5.2-3-.5-5.9-1.3-6.5-2-.6-.5-2-1-3.1-1a6 6 0 0 1-3.1-.8c-.5-.5-3.6-1.7-6.7-2.6l-5.8-1.8-7.8-8.5a48 48 0 0 1-8-10.6 83.3 83.3 0 0 1-6.8-29.7 880 880 0 0 0-1.4-23.3c0-.4-.4-.7-.8-.7-.5 0-1 6.2-1 13.7l-.2 13.8 3.1 25 3 6a81 81 0 0 0 6.3 10.1c1.7 2.3 4.7 5.2 6.6 6.5l7 4.5c2 1.2 7.5 3.4 12.3 4.8 4.8 1.4 9.8 3 11 3.7s4.8 1.8 8 2.5l6 1.4 5.4 3.6c3 2 7.6 6.2 10.3 9.4l4.9 5.9 3.5 15-.5 9.5-.6 9.4 2.4 2.3 2.4 2.3v5.6l-2.2 1.4c-1.2.7-3.5 1.7-5.1 2l-2.9.7-1.4-1.8c-1.5-2-1.8-5.4-.5-6.8.4-.6 1.4-4.1 2-8l1.3-7-.5-7c-.2-3.8-.8-8.3-1.2-10-.4-1.6-1.5-3.9-2.4-5-1-1.1-2.3-3.4-3-5-1.5-4-6-8.7-7.2-8l-1 .7 1.5 1.7c1.8 2 2.1 5.1.6 5.1-.5 0-1.4-.6-2-1.2l-3.4-4.4a32 32 0 0 0-8.3-6.1l-5.8-3.1-10.3-1.1A369 369 0 0 0 69 971c-.5 0-1.8-1.7-2.7-3.8l-1.8-3.7-4.7-.7-7.9-7.6c-4.4-4.2-8-8-8-8.6 0-.6-1.2-3.6-2.6-6.6a39 39 0 0 1-2.8-6.5c0-.6-1-2.2-1.9-3.7l-1.8-2.7 2.3-15.6-.5-22.5c-.3-12.4-1-29-1.6-37-1.4-19.3-1.4-18.8-1.1-32 .2-11-.3-21.7-1.6-36l-.5-6.3-.9.9c-.4.5-1 5.3-1.2 10.8-.3 5.6-1 14.1-1.7 19.1l-1.1 9.1.5 16c.5 14.6.8 25.9 2 78.4l.3 18.5 2.7 8.8a97.2 97.2 0 0 0 4.5 12.5 78.6 78.6 0 0 0 19.6 19.3c8.9 5 13.4 7 22.5 10a71.2 71.2 0 0 1 10.9 4.2c.7.6 3.3 3.7 5.7 6.9 2.5 3.2 4.5 6.7 4.5 7.8 0 1 .5 2.2 1 2.5a43 43 0 0 1 7 16.6c.5 2.8 1.2 5.4 1.4 5.8.9 1.3.7 36.2-.2 47.9a48 48 0 0 1-1.9 12.3l-1 1zm103.5-80.7.3-1.7-1.6-.6c-.9-.4-1.8-.4-2.2 0-.3.2-.2 1.4.2 2.6.7 2.4 2.8 2.2 3.3-.3zM164.3 970c0-.5-.5-1-1-1-.6 0-.8.5-.5 1 .3.6.8 1 1 1 .3 0 .5-.4.5-1zm99.2-2c0-1.6-.5-3.2-1-3.5l-1-.6v4.2l-2.5.9c-1.4.5-2.5 1.2-2.5 1.5 0 .3 1.6.5 3.5.5h3.5zm-5.3-2.7c-.3-.3-1.1-.2-1.8.2l-1.1.8 2.7 1.6.3-1c.2-.6.2-1.3-.1-1.6zm-188.4 0a1 1 0 0 0-1.3 0c-.4.4-.1.7.6.7.8 0 1-.3.7-.7zm186.7-4.2c0-1.1-.5-2.3-1-2.6-.6-.3-1-2.4-1-4.5s-.5-4.2-1.1-4.6l-1.2-.7.6 4c1 7.1 1.9 10.3 2.8 10.3.5 0 .9-.9.9-2zm4-9.4-1-1.1v2.5c0 3.3 1.4 4.7 1.8 1.9.2-1.2-.1-2.7-.7-3.3zm-107.5-.5c-.3-1-.5-.1-.5 1.8s.2 2.7.5 1.7c.2-1 .2-2.5 0-3.5zm99.6-6.5c-.2-1.2-1.5-1-2 .3-.2.7.2 1 .8.8.7-.2 1.2-.7 1.2-1zm-1.3-5.8.2-2.4-1.5 2c-.8 1-1.5 2.3-1.5 2.8s.5.7 1.2.5c.7-.3 1.4-1.6 1.6-2.9zm-42.8-10.6-1-1.8v5c0 2.9.2 5.5.6 6 1.2 1.1 1.5-7.3.4-9.2zm48.7 8c-.4-.3-.7 0-.7.7s.3 1 .7.7c.3-.4.3-1 0-1.4zm3.3-6.3c0-.6-.2-1-.4-1-.3 0-.8.4-1.1 1-.3.5-.2 1 .4 1 .6 0 1-.5 1-1zm-1-4.5c0-.8-.5-1.5-1-1.5-.6 0-1 .7-1 1.5s.4 1.5 1 1.5c.5 0 1-.7 1-1.5zm-51.1-5.8c0-3.4-.5-8-1.2-10.2l-1.2-4-.4 1.9a58 58 0 0 0 1.9 18.6c.5 0 .9-2.8.9-6.3zm49-3.3-1.3-3-.3 2.2a11 11 0 0 0 .8 5l1.2 2.9.4-2a11 11 0 0 0-.8-5zm24.6-18.2-.6-1.7-1.6 2.7 1.1 4.1 1.1 4.2.4-3.9c.1-2 0-4.6-.4-5.4zm-75.6 3.8c0-.6-.5-1-1-1-.7 0-.9.4-.5 1 .3.5.8 1 1 1 .3 0 .5-.5.5-1zm46.7-3.7c-.3-.3-.6 0-.6.7s.3 1 .6.7c.4-.4.4-1 0-1.4zm-19.7-8.3c0-.6-.4-1-1-1s-.8.4-.5 1 .9 1 1.1 1c.2 0 .4-.5.4-1zm19-1c0-.6-.4-1-1-1-.5 0-1 .7-1 1.5v1.6l1-.6c.6-.4 1-1 1-1.6zm25.5.4c.8-2 0-3.4-1.8-3.4s-4 2.7-3.1 4c1 1.5 4.2 1.2 5-.6zm-7.2-5.4 1.2-2 1.2 1c1.3 1 4.4.3 4.4-1 0-.5-.4-1.2-1-1.5-.6-.4-.7-1.1-.4-1.6.8-1.3-1.4-4-3.1-4-.8 0-1.5 1-1.8 2.3l-.4 2.3-.8-2.3-.7-2.3-1.7.3-1.6.4.2 4c.2 2.1.5 4.4.8 5.1.2.7.9 1.3 1.5 1.3s1.5-.9 2.2-2zm-39.6-.7c-.4-.4-.7 0-.7.7s.3 1 .7.6c.4-.3.4-1 0-1.3zm19.4-.8c0-.8-.5-1.7-1-2l-1-.6v2c0 1.2.4 2 1 2 .5 0 1-.6 1-1.4zm-87-4.8.6-4.7h-2.3l-.2 3.7c-.2 3.6.4 7 1.1 6.2.2-.2.6-2.6.9-5.2zm-121.8-3.4c-.3-.4-.6 0-.6.7s.3 1 .6.6c.4-.3.4-1 0-1.3zm211.8-1.3c0-.6-.2-1-.5-1-.2 0-.7.4-1 1-.4.5-.2 1 .4 1 .6 0 1-.5 1-1zm28-2c1.1-1.1 2-2.8 2-3.8s.6-2.4 1.2-3c.7-.7 1-1.5.5-1.9-1-1-7.7 6.6-7.7 8.7 0 1.1.5 2 1 2 .6 0 2-1 3-2zm-12.2-.3c-.3-.7.2-1.7 1-2.3l1.5-1.1-.6-1.7c-1-2.5-2.7-2-2.7.8 0 1.4-.4 2.7-1 3-1.5 1-1.2 2.6.6 2.6h1.6zm-105-2.3c0-.9-.4-1.3-1-1-.5.4-1 1.4-1 2.2s.5 1.2 1 .9c.6-.4 1-1.3 1-2.1zm100.9 2a1 1 0 0 0-1.4 0c-.3.3 0 .6.7.6s1-.3.7-.7zm8-18.2c0-3.1.4-8.8.8-12.6l.8-7-1 .7c-.9.5-1.6 4.2-4 19.6l-.4 3.4 1.3.8c.7.5 1.6.8 1.9.9.3 0 .6-2.6.6-5.8zm-107 0c0-1-.4-2.6-.9-3.7l-.8-2-.2 7.5h1c.6 0 1-.8 1-1.8zm-21.9-.5.6-4.7c.3-2.4 1-5.2 1.4-6.2.6-1 1-2.7 1-4 0-1.3.7-3.6 1.5-5.2s1.7-5.4 2-8.4a40 40 0 0 1 2-10.3c.2-2 .8-5.6 1.3-8.2.5-2.6.7-4.7.3-4.7-1.1 0-4.1 8.5-5.2 15a28 28 0 0 1-2 7.4l-.8.9-.6-2.4c-.3-1.4.2-5.1 1-8.4 1-3.3 1.8-7.3 1.8-8.8.1-1.5.5-2.7 1-2.7.3 0 .7-1 .7-2.2v-2.2l-2 1.9c-1.1 1-2 1.4-2 .9 0-.5-.7.2-1.4 1.7l-1.4 2.6-.6 17.4c-.4 9.5-1 19.7-1.3 22.6a23 23 0 0 0 0 6.8c.3.8 1 1.5 1.6 1.5.6 0 1.1-.1 1.1-.3zm16-2.2c0-.2-.4-.7-1-1s-1-.2-1 .4c0 .6.4 1 1 1s1-.1 1-.4zm-.5-8.4.6-5.3-1 .6c-.6.4-1.1 3-1.1 5.8s.2 5 .4 4.7c.3-.3.7-2.8 1-5.8zm7.3-2.9c.8-6.8.7-8.5-.4-9l-1.2-.3-.4 3.5c-.4 4 .2 11 1 10.2.3-.3.7-2.3 1-4.4zm98.4-.2c0-.6 1.6-2.8 3.5-4.9s3.5-4.3 3.5-4.9c0-.6.7-1.3 1.5-1.6s1.5-1.3 1.5-2.2.8-3.2 1.7-5l1.6-3.5-2.1-2.3c-1.2-1.2-2.2-2.8-2.2-3.4 0-.6-1.2-1.5-2.8-2l-2.8-1-5 4.4-.8 4.4-1.4 8.5-.7 4h-5l.3 2.5c.2 1.3.9 2.6 1.5 2.9.6.2 2 1.4 3.2 2.7 2 2.4 4.5 3.1 4.5 1.4zm2.4-12.4c-.3-.8-.4-2.5-.2-3.8l.3-2.3 3.5-.7v3c0 1.6-.7 3.5-1.5 4.2l-1.5 1.2zm-46.5 5.4c0-.6-.2-1-.4-1-.3 0-.7.4-1 1s-.2 1 .4 1c.5 0 1-.5 1-1zm53.8-1.2-.5-1.3-.1 1.9c0 1 .2 1.6.5 1.3.4-.3.4-1.2.1-2zm-114.5-7c.3-3 .6-7.2.6-9.5s.5-4.5 1-4.8c1.3-.9 1.3-6.2 0-7-.6-.4-1-1.5-1-2.4.2-.9.2-2.7.1-4-.2-3.9-1.8-1.5-2.4 3.6l-.5 4.7 1 2 1 1.8-2 1.3.3 7c0 3.8-.2 7.5-.8 8.2-.5.7-.7 2-.3 2.8 1.1 3 2.3 1.4 3-3.8zm-26.8-3.6-.4-1.7v3c0 1.6.1 2.4.4 1.7.3-.6.3-2 0-3zm123 .8c1-1.6 1.6-3.4 1.6-4v-1h-4c-2.2 0-4 .2-4 .5s.4 1.3 1 2.2a24 24 0 0 1 1.4 3.5c.3 1 1 1.8 1.5 1.8.6 0 1.7-1.4 2.6-3zm-100.6-3.5c0-.2-.5-.7-1-1-.6-.4-1-.2-1 .4 0 .6.4 1 1 1 .5 0 1-.1 1-.4zm12.6-3.8c.4-1.2.7-5.2.6-8.7 0-3.6.4-7.5 1-8.7l1-2-3.2-5.8.2 4c0 2.2-.2 5.8-.6 8-1 5.8-1.3 15.5-.4 15.5.4 0 1-1 1.4-2.3zm107.6-7.8c0-.5-.7-1-1.5-1-1.5 0-2 1.2-.8 2.4.8.8 2.3-.1 2.3-1.4zm-253.8-2.1-.5-1.3v1.9c-.1 1 .1 1.6.4 1.3s.4-1.2.1-2zm133.3-7.4c-1-1-2.8.6-2.1 1.7l.6 1 1-1c.7-.6.9-1.4.5-1.7zm-4.7-1.4c0-.6-.5-1-1-1s-.9.4-.5 1c.3.5.8 1 1 1 .3 0 .5-.5.5-1zM27 791c0-1.1-.4-2-1-2s-1 .9-1 2 .5 2 1 2 1-1 1-2zm130.3-3.1c0-.5-.5-1-1-1-.6 0-1 .8-1 1.6v1.6l1-.6c.5-.4 1-1 1-1.6zm8-15.1 1-12c0-1-.4-1.9-1-1.9h-1v4.5c0 2.4-.4 4.7-.8 5-.5.2-1 2.8-1 5.6-.2 2.8-.7 6-1.2 7-1.2 2.1-1.3 7.3-.3 8.3 1.3 1.3 3.2-6.2 4.3-16.5zm4.5 11.2c.3-.5 0-1.2-.5-1.5l-1-.7v1.6c0 1.8.6 2 1.5.6zm.5-7c0-.9.5-2.1 1.1-2.7.6-.6 1.2-3.7 1.3-6.9l.1-5.8-2.1-.7-1.2 7.8a116 116 0 0 0-1.2 9.6v1.8l1-.6c.6-.4 1-1.4 1-2.4zm25-6c0-2.2-.4-4.2-1-4.6l-1-.6v9.2h1c.6 0 1-1.8 1-4zm42.3-5.7-.3-5.1 2.2-1.4.1 2.8.4 5.3c.1 3.7 1.8 4.1 2 .5l.3-6.5.2-3.5h5.4c3 .1 5.8.4 6.1.8 1.3 1.2-.5 2.5-5 3.6l-4.5 1.2v8.1l1.7-.3 1.8-.4.5-3 .5-3h3l.6 6.7 4-.7.2-7.3.3-7.3-1.2-1a42 42 0 0 0-11-1.1l-10-.3-.6 12.5-3 1.6c-1.6.8-2.7 2-2.4 2.5.4.5 2.5.8 4.8.6l4.2-.3zm-205.5 2.1c0-.8-.7-1.5-1.5-1.5-1.7 0-2.8 1.5-1.9 2.4 1.2 1.2 3.4.7 3.4-.9zm127.3-.7c-1.3-1.3-2.6-.3-1.6 1.2.3.6 1.1.8 1.7.5l1-.7zm-17.7-6.4.8-7.6-2.3-2.2-1 1.5c-1 1.6-1.3 11.9-.3 14.4 1.2 3.2 2.2 1.3 2.8-6zm18.6-1.4v-1.5l-1 1.5c-.5.9-1 2.2-1 3v1.5l1-1.5c.5-.8 1-2.1 1-3zm12.2-3.6-1-2.9-.2 8 2.3-2.3-1-2.8zm-9.7-5.4c.3-.5.1-1-.4-1-.6 0-1.1.5-1.1 1s.2 1 .4 1c.3 0 .8-.4 1.1-1zm31.2-1.6c-.3-.4-.6 0-.6.6 0 .8.3 1 .6.7.4-.4.4-1 0-1.3zm11.9-1.1a168.4 168.4 0 0 0-6.7-31.3l-1-1.5.6 6.8c.6 6.8 4.3 26.4 5.2 28 .3.4 1 .7 1.6.7h1zM33 745.9a1 1 0 0 0-2 0 1 1 0 0 0 2 0zm139.2-2c0-.6-.4-.8-1-.5-.5.4-1 1.1-1 1.7 0 .5.5.7 1 .3.6-.3 1-1 1-1.6zm-9-4c0-.5-.5-1-1-1-.6 0-.8.5-.5 1 .3.6.8 1 1 1 .3 0 .5-.4.5-1zm10.5-1c-.3-1-.6-3.3-.7-5 0-1.6-.4-3-.8-3-.8 0-1 8-.3 9.3.2.4.9.7 1.5.7h1zm19.2-2.6a1 1 0 0 0-1.3 0c-.4.3 0 .6.7.6s1-.3.6-.6zM175.3 715l-.1-4.7-.9 2c-.4 1.1-.9 3.5-.9 5.3v3.4l1-.7c.5-.3.9-2.7.9-5.3zm-4-12.4v-3.2l-1 1.1-1.2 1.1.7 2.1c.4 1.2.9 2.1 1 2.1.3 0 .5-1.4.5-3.2zm24.7-1-1.8-14.5a41.2 41.2 0 0 0-2-11.3c-1 0-1 7.8 0 8.4.4.3.6 2.2.5 4.3-.2 2.1-.1 6.6.2 10l.6 6.3h3l-.5-3.2zm-22.5-6.7c.2-1.3-.2-2.6-.8-2.8l-1.1-.4-.6 2.8c-.3 1.6-.3 3.2 0 3.7l.5.8.9-.8c.4-.5 1-2 1-3.3zm1.2-7.2c.3-1.7.4-3.5 0-4-.9-1.5-2.6.2-2 2.2.2 1 0 2.2-.5 2.5a1 1 0 0 0-.3 1.5c1 1.8 2.2 1 2.8-2.2zm-34-.7a96 96 0 0 0-3.3-22.5c-.5-.5-1.8-.7-2.8-.5l-1.8.4v21.8l2.5.7c3.5 1 4.8 1 5.4.1zm35-8c.4-2.6.1-4-.8-3a12 12 0 0 0-1.1 3l-.7 2.8h1c.6 0 1.2-1.2 1.5-2.7zm-31-2.7c.3-.8 0-1.5-.5-1.5s-1 .7-1 1.5.2 1.5.5 1.5c.2 0 .6-.6 1-1.5zm-109-13.2c-1.3-1.3-1.8.7-1 3.9l.8 3.3.4-3.3c.2-1.9 0-3.6-.3-4zm141.3 0c-.4-.3-.7 0-.7.7 0 .8.3 1 .7.7.4-.4.4-1 0-1.3zm-142-4.7c0-.8-.4-1.7-1-2l-1-.7v2c0 1.2.5 2.1 1 2.1s1-.6 1-1.4zm146-15.3c-.1-1.4-.7-2.8-1.4-3l-1.3-.5v6.2h3zM37 638c0-1-.4-2-1-2s-1 1-1 2 .5 2 1 2 1-.9 1-2zm109-.7c-.4-.3-.7 0-.7.7s.3 1 .6.7c.4-.4.4-1 0-1.4zm37.4-4-1-1.8v2.1c0 2.3 1.2 4.1 1.7 2.5.2-.5 0-1.8-.7-2.8zM37.5 628c.8-1.3-.5-4.2-1.6-3.5-1.1.7-1.1 4.4 0 4.4a2 2 0 0 0 1.6-.9zm93.2-1.7 1.5-.6v-23.8h1c1.3 0 2.1 5.8 2 14l-.2 7.2 1 1a4 4 0 0 0 2.9.6l1.9-.3.3-4.8.3-4.7-1.6-2.2a11 11 0 0 1-1.6-5 19 19 0 0 0-.9-5.2l-1-2.4-4.6-.7-.5-13.5-.5-13.5 1.3-5.3 1.2-5.2-.2-8.5-.3-8.5 2-.5.5 8.5a38 38 0 0 0 1.8 10.7l1.3 2.3h8v-8.1l-1 .6c-.6.3-1 1.3-1 2s-.8 1.5-1.7 1.5H141l.7-2.8a311 311 0 0 0 1.8-8l1.1-5.3-3.5-3.5-3.5-3.6-8.7-1.9-1.8 1.8-.5 25.4-.8 42.8c-.2 9.6-.2 18 .1 18.8.6 1.4 2.2 1.7 4.8.7zm7.3-68.7c-.8-2 .4-11.7 1.4-11.7 1.1 0 1.1 11.7 0 12.4-.5.3-1.2 0-1.4-.7zm8.5 58c.6-5.8 0-10.7-1.4-10.7-.4 0-.8 3.6-.8 8s.3 8 .8 8 1.1-2.4 1.4-5.3zm-109.4-1.8c0-2-1.5-2.6-2.6-.8-.9 1.4.3 4.2 1.6 3.4.5-.3 1-1.5 1-2.6zm195 1.6a13 13 0 0 1 4.5-1.5c1.8 0 3.4-1.8 2.5-2.7-.5-.5-4.7.5-13.5 3.3-1.8.6-.5 2.4 1.8 2.4 1 0 3-.7 4.7-1.5zm11.8-5.4c.3-.4.2-1 0-1.4-.9-.8-3.4.3-3.4 1.4 0 1.2 2.7 1.2 3.4 0zm-100.6-4c0-1.2-2-2.5-2.7-1.8-.7.8.5 2.7 1.7 2.7.5 0 1-.4 1-1zm-4.5-9c.5-.5 2-1 3.4-1.3l2.5-.3 1.2-5.2 1.2-5.3h-1.2c-2 0-3.6 2.3-3.6 5.3v2.9l-2.5-.9.1-4.9c.6-13 .6-17.5 0-18-.3-.4-1-.3-1.6 0-.6.4-1 2.3-1 4.2v3.5l-1-.6c-.6-.3-1-2.2-1-4 0-2-.5-3.5-1-3.5h-1v9h1.4c1.7 0 2 2.5.5 3.5l-1 .6v14.7l1.3.5c1.9.8 2.3.8 3.3-.2zm145.7-9.7c0-.8-.5-1.4-1.2-1.4s-2.3-.3-3.5-.6l-2.3-.6v4l2.8.4c1.5.2 3 .2 3.5 0 .4-.2.7-1 .7-1.8zm4 .6c-.6-1.1-1.2-2-1.5-2s-.5.9-.5 2v2h3.1zm-13.2-1.7.4-2.3H273c-1.3 0-2.7.4-3 1-.4.4-.3 1.6 0 2.5l.7 1.6 4.2-.6zm-238.2-11v-5.5l-1.5 1.2c-.9.7-1.6 2-1.6 3 0 2.2 1.8 7 2.5 7 .3 0 .6-2.5.6-5.6zm107.4-2.8c-.3-2-.9-3.2-1.3-3s-1 2-1 3.6v2.9h2.7zm100.3-3.7 3.8-1-.4-1c-.5-1.7-9.1-3.5-23.1-4.9l-12.9-1.2-2.4-2c-1.3-1-2.4-2.8-2.4-4 0-1.2-.8-3.1-1.6-4.2l-1.5-2-1 1.5c-.5.8-1 2.6-1 4s-.3 4.1-.5 6.2l-.5 3.6 6.4 3.2 2.2-2c1.2-1.1 2.4-2 2.8-2s.7.7.7 1.5v1.6l3.4-.6 2.8 5.6 10.7-.6a109 109 0 0 0 14.5-1.7zm-208-2.5c-.4-.3-.7 0-.7.7s.3 1 .6.7c.4-.4.4-1 0-1.4zm.3-9.3v-2h-1.5c-.9 0-1.5.2-1.5.4l.6 2c.8 2.2 2.4 2 2.4-.4zm231.2-.8.3-2.2h-3.1v5.2l1.2-.5c.7-.2 1.4-1.3 1.6-2.5zm58.2-19.6-.1-2.1-.5 1.7c-.8 3.2-2.3.8-2.3-3.7s-1.5-6.9-2.4-3.8c-1.1 4.2-1.7 8.3-1.2 9.1.3.5 1.9.9 3.6.9h3zM145.2 535a11 11 0 0 0 2-4.5v-1.7l-3 1.6c-3.1 1.6-5.4 5-4.4 6.5 1 1.8 3.3 1 5.4-2zm-6.9-2.9.3-11 .1-8.2h-2.5v2.7c0 1.5-.4 3.4-.8 4.1l-1 1.4-.5-.9c-.3-.5-.3-3.7 0-7.1l.6-6.3 1.9-1 1.9-1 1 2.8 1.2 2.8.5-1.3c.2-.7.2-2.9-.2-4.8l-.6-3.4-5-.2-6.6-.2-1.5-.1v15.8c0 8.8.3 16.3.8 16.7.8.8 4 1.4 8.6 1.8l1.7.2.1-2.8zm5.8-5.8c.2-1 1-2.3 1.8-2.7 1.6-1 1.8-5.5.3-9.3l-1-2.7-2.3 2.2.3 12-1 .6c-1.4.9-1.2 2.7.3 2.2.7-.2 1.4-1.2 1.6-2.3zm-7-30.5a7 7 0 0 0 3.3-3.7l1-2.7-.6-17 2.6.3c1.5.1 3-.1 3.2-.6.3-.5-1.5-3-4.1-5.6a85.5 85.5 0 0 0-6.6-6l-1.9-1.3.3-21.8-2-3-.2 2v4.7l.3 2.8h-1.5c-.8 0-2 .6-2.6 1.4l-1.2 1.4 2 7.3-1.4 6.9-1.5 6.9 3.2 9.5-.5 6c-.3 3.3-.9 7.5-1.2 9.3-.4 1.8-.4 3.9-.1 4.7l.5 1.4 3.3-1 5.6-2zm-4-7.2-.5-10.4-.4-8 1.5-.7c.8-.3 2.1.1 3 .9l1.4 1.4-.5 8.3c-.3 4.6-.7 8.8-.9 9.5-.2.7-1 1.3-2 1.3h-1.5v-2.3zm12 7c.6-.6 1.2-1.8 1.2-2.6v-1.4l-2 1.8c-2.1 1.8-2.7 3.5-1.2 3.5.4 0 1.3-.6 2-1.2zm178.3-18.4c-.3-3-2.5-4.3-3.4-2-.9 2.3.2 4.7 2.1 4.7h1.6zm4.2-.8c0-1.5-1.8-3-2.6-2.2-.3.3-.3 1.5 0 2.6.8 2.2 2.6 2 2.6-.4zm-4-13.6a58 58 0 0 0-.7-9.5c-1-2.5-2.2-1.6-2.5 1.8-.3 3 .8 12.6 1.8 15.7.2.7.7 1 1 .7.4-.3.6-4.2.5-8.7zm-177.2-10.6a92 92 0 0 0 .4-15.5l-.6-6.7 1-.6c.6-.4 1-1.4 1-2.4v-1.6l-2.6 3.3-15.8-.3-.4 2-.4 2 2.5-2.4 2.1 1.2 2.6 1.4c.2.1.4 1.7.5 3.5v3.3h3l1-3.3.9-3.2h2.8l-.3 10.5a38 38 0 0 1-1 10.5c-.5 0-.9-2-1-4.3 0-2.3-.3-5.1-.8-6.2l-.7-2-.6 2c-.3 1-.6 3.8-.7 6 0 2.2-.4 4.8-.7 5.8l-.5 1.9 5.6 5.8.9-1c.5-.4 1.3-4.8 1.8-9.7zM129 438.6c-.3-.7-.5-.1-.5 1.3 0 1.3.2 1.9.5 1.2s.3-1.8 0-2.5zM339.6 420v-4h-1c-.5 0-1 1.5-1 3.3 0 3 .7 4.7 1.7 4.7.2 0 .3-1.8.3-4zm-195.3 2 1.8-1v-3c0-1.6-.5-2.7-1-2.4s-2-.2-3.4-1.1l-2.5-1.6v-7.2c0-4 0-9-.2-11.3l-.2-4h2.2c1.2 0 2.3-.4 2.2-1 0-.5-.5-1-1.2-1s-1.8-.4-2.6-.8l-1.3-.9.5-1.9.5-1.9h-5.2l-5.4 5.2.5 2 .5 1.8h1.8c3.3 0 3 1.8-.6 4-3.6 2.3-4.2 4.7-1 4.4l1.7-.2-.6 2.2-1.3 4.4-.5 2.2 2 4.4c2.3 4.7 6.6 8.5 11 9.6.3 0 1.2-.4 2.3-1zm-10.4-18c-.3-.4-.2-2.1.3-3.7l.9-3v3.8c.2 3.7-.2 4.6-1.2 3zm-2-14c-.3-.4-.1-1.4.4-2.2l1-1.5.9 1.5c1 1.5.5 3-1 3-.4 0-1-.3-1.3-.7zm18.4 31.9c0-.6-.2-1-.5-1-.2 0-.7.4-1 1s-.2 1 .4 1c.6 0 1-.5 1-1zm-4.7-11.5c-.3-.9-.9-1.5-1.3-1.5s-1.3.6-2 1.5l-1.3 1.5h5.2zm-.6-8.7-.6-1.3v1.9c0 1 .1 1.6.5 1.3.3-.4.3-1.2 0-2zm2-6.5c-.4-.4-.7 0-.7.6 0 .8.3 1 .6.7.4-.4.4-1 0-1.3zm4.3-9c0-.2-.7-.4-1.5-.4s-1.5.5-1.5 1 .7.7 1.5.4c.8-.3 1.5-.7 1.5-1zm183.9-6.2v-7.8l1.7-2.6c1-1.5 1.7-3.2 1.7-3.8 0-.6.7-1.8 1.5-2.6l1.5-1.5v-19.8l1.2-2.5c.6-1.4 1.5-2.3 2-2 .3.2.4 2.3.1 4.7l-.5 4.2 1-1c.6-.5 1.4-3 1.8-5.6l.7-4.7-6.5-1.4-.8 1.4a35.6 35.6 0 0 0-1.6 16.2 63 63 0 0 0 1.2 8.5l.7 2.3-1.9-.3c-1-.2-2.4 0-3.1.5-.7.4-1.3 1.6-1.3 2.7 0 1-1 2.8-2.2 3.9l-2.1 2-.5 6-.4 6 1.6 2.5c1 1.4 2.2 2.5 3 2.5h1.2zm-13.4-5.6c-.2-2-.6-3.6-.8-3.6s-.4 1.9-.4 4.1c0 2.2.4 3.8.8 3.6.5-.3.6-2.1.4-4.1zm6.6-8.8c.2-1-.1-1.8-.7-1.8s-1.5 1-2.1 2.1l-1.1 2.1 1.8-.3c1-.2 2-1.2 2.1-2.1zM143.3 353c0-.7-1-1.3-2-1.3h-2v2.4c0 1.3.3 2.6.7 3 .8.9 3.3-2.1 3.3-4zm15.7-7.5-.5-1.3-.1 2c0 1 .2 1.6.5 1.3.3-.4.4-1.2 0-2zm-18.3-2.7c.4-.6-.7-2.4-2.4-4.2a12 12 0 0 1-3-4c0-.4 1.3-1.7 3-2.9l3-2.1v-9.4l2 3-1.1 14 2 3 10.6-2.3 4.2 5.2 2-3.6-1.4-2.9c-.8-1.6-2-2.9-2.8-2.9-1.4 0-2.5-2.1-2.5-5 0-1.1-.5-2-1-2-.6 0-1 1.4-1 3v3h-1.6c-.9 0-2.4 1-3.5 2.3l-1.9 2.2v-15.7l-3.5-2.7 1.3-1c.8-.4 1.2-1.3.9-1.8-.3-.4.1-2.3 1-4l1.5-3.3-1.8-2c-1-1-2.8-2-4-2h-2.4v2c0 1-.5 2.2-1 2.5-.6.4-1 2-1 3.9 0 1.7-1 5.6-2 8.5l-2 5.3.6 13.7 1.3 1.6c1.4 1.7 5.6 2 6.5.6zm195.8-3.4.3-1.7-1.6.6c-1.8.8-2.2 3.8-.3 3.2.7-.2 1.4-1.2 1.6-2.1zm-3.5-4.8c-.2-.5-1.1-.9-2-.9h-1.4v1.9c0 1 .4 2.1.7 2.5 1 1 3.5-2.4 2.7-3.5zm-168.7-5v-4l-.9.6c-1.1.7-1 7.5.1 7.5.4 0 .8-1.8.8-4zm-4.1-1.6.6-9 .5-7.3h-6l1 2c.5 1 1 5 1 9v7h1.4c.8 0 1.5-.8 1.5-1.7zm-8-10c0-2.2-.5-4.7-1.3-5.8l-1.3-1.8-2.6 1.6.7 4.6 1 7v2.2l1.7-2a12 12 0 0 0 1.7-5.8zm171.6 5.5-1.2-1.2v1c0 .6.3 1.4.7 1.8.3.3.9.4 1.2.1.2-.3 0-1-.7-1.7zm18.8-13.2c0-.8-.8-2-1.9-2.5l-2-1-.6 1c-1 1.7.3 4 2.5 4h2zM135 305.2c-.4-.3-1.2-.3-2 0l-1.3.5h2c1 0 1.6-.1 1.3-.5zm26.5-3.7a211 211 0 0 0 6.2-6.5l2-2.2H168c-.9 0-3 1.5-4.7 3.2l-3.1 3.2V297c0-1.2.5-3 1.2-4l1.1-2-.8-1.8-.7-1.9-1.8 4c-3.2 7.6-4.3 11.3-3.7 12.9.3.9.9 1.6 1.1 1.6s2.5-2 4.8-4.3zm-3.2-1.7c0-.7.3-1 .7-.6.3.3.3 1 0 1.3-.4.4-.7 0-.7-.7zm-12.3-4.5c.2-1.6-.1-3.6-.7-4.5l-1-1.5-.9 1c-.5.6-1.2 2.7-1.6 4.8l-.7 3.9 4.7-.7zm8.7-2.7-.6-1-1.9 1.8c-1 1-1.6 2.1-1.3 2.6l.6 1 1.9-1.7c1-1 1.6-2.2 1.3-2.7zm-.8-10c1.5-2.8 1-5.8-1.1-5.8-1.5 0-2.5 2.2-2.5 5.6 0 1.4-.7 4-1.5 6s-1.2 4.1-.8 4.7l.6 1 2-4.3c1-2.5 2.6-5.7 3.3-7.1zm3.4 5.1c0-.5-.7-.9-1.5-.9h-1.5v4.3l1.5-1.3c.8-.7 1.5-1.6 1.5-2.1zm14-2c0-1.6-.4-2.9-1-2.9-1.2 0-2.4 4.6-1.5 6 1.1 1.8 2.5 0 2.5-3zm-23.7-3.7c.6-5.7 4.3-13.2 6.3-13.2h1.5l-.7-5-.7-5h1c.4 0 1.3-.4 2-.8l1.2-.8-2.7-7.9h-3.7l-.4 1.9-.3 1.8 1.9-1.1-.5 2.5c-.3 1.4-.7 2.3-1 2-.6-.6-4.2 3.8-4.2 5.2 0 .5-1 2.1-2.1 3.6l-2 2.6 3.2 3.3-.6 2.1a50 50 0 0 0-1.2 9.1l-.6 7 1.5-1.2 1.5-1.3.6-4.8zm165 3.8c0-2-1.7-3.6-2.7-2.6-.3.3-.3 1.7 0 3.1l.7 2.6 1-.6c.6-.3 1-1.4 1-2.5zM162.2 284c0-.9 0-4 .2-7 0-3-.3-5.8-.9-6.4-.6-.5-1.6-.7-2.2-.3l-1.2.8.6 3.6c.4 2 1 5.5 1.2 7.9.3 2.3 1 4 1.4 3.7s.9-1.3.9-2.3zm186.2-8.8c-.3-.3-1.2-.4-2 0l-1.2.5h1.9c1 0 1.6-.2 1.3-.5zm-5-3c.2-.8 0-2-.6-2.7l-1.2-1-1 1c-1.4 1.3-.6 4.3 1 4.3.6 0 1.4-.7 1.7-1.6zm-169-9 4.4-.6 2.3-2c1.2-1.2 2.2-2.6 2.2-3 0-.6-1.2-.2-2.6.7L178 260l-8.8-.6c-5-.4-8.9-.4-8.9 0 0 .5 1.2 1.9 2.8 3.1l2.7 2.3 2-.5c1.1-.3 4-.8 6.5-1.1zM173 253a7.8 7.8 0 0 1 2.3-3.8c1-1 2-2.6 2-3.5 0-2 3.6-7 5.1-7h1l-.5 3c-.4 1.7-2 5-3.7 7.5-3 4.5-3.7 6.5-2 6.5a12 12 0 0 0 3.8-2.7c4-3.7 5.2-4.6 8.5-6 1.5-.7 2.8-1.9 2.8-2.6 0-.8.9-2.6 2-4l2-2.5-3.1-.7c-1.7-.4-3.3-1.2-3.5-1.9l-.5-1.2h-10v1.6c0 1-1 2.7-2.5 4-1.3 1.3-2.5 3.2-2.5 4.1 0 1-.4 2-1 2.4-.5.3-1 2-1 3.5s-.4 3.2-1 3.5c-1.4.9-1.2 2.8.3 2.3.7-.3 1.4-1.4 1.5-2.5zm-9-2 .3-2.3-1.6-.6c-.9-.4-2.1-.2-2.7.4l-1 1 1.4 4.3 1.6-.3c1-.2 1.8-1.3 2-2.6zm5.5-1.9c1.4-4.8 4-10.7 6.3-14.5l2.2-3.5.7-11.9 2.8-2.2-.7-1.1a2.8 2.8 0 0 0-2.1-1.2c-1.4 0-1.9 1.5-1.5 5.5l.1 2-1-1.5a4 4 0 0 1-.5-3.2c.3-1 .3-1.8 0-1.8-.8 0-2.9 5-3.1 7.3-.1 1-1.2 2.6-2.5 3.7l-2.3 2 2.3 2.7-1 5.7a22 22 0 0 1-1.9 7c-.5.6-.9 2.8-.9 5v3.7l1.1-.4c.6-.2 1.5-1.6 2-3.3zm162-14.5c0-1.1-.5-3-1.2-4.2l-1.2-2.2V218a38 38 0 0 0-.9-10.9c-.4-.4-1.2-.2-1.9.4l-1.2 1.2 2.6 4.8-2.5 3.7-2.5 3.6 2.4 6.6c2.5 6.8 4 9.3 5.5 9.3.5 0 1-1 1-2zm-131.8-1.2 1.8-1.3-.8-2.5a17 17 0 0 1-.5-5.7c.3-3.8 3.8-9.6 7.7-12.8l2.7-2.2-1.4-3c-.8-1.8-2-3.2-2.6-3.2-1.6 0-9.3 11.9-9.3 14.3 0 1-2 4.2-4.5 7l-4.4 5 .6 1.5.6 1.5 1.7-2.1c1-1.2 2.5-2.2 3.4-2.2.8 0 1.6.2 1.6.4l-1 3c-.5 1.3-.6 2.7-.3 3 1 1 2.8.7 4.7-.7zm10-1.7.7-1h-3c-1.7 0-3.1.5-3.1 1s1 1 2.4 1 2.7-.4 3-1zm63.2-3.5c0-.5-1.8-1.1-4-1.3l-4-.2 2 1.5c2.1 1.7 6 1.7 6 0zm-60.5-1.5 1.9-1v-2.4c0-1.2-.3-2.6-.6-2.9-.4-.4-2 .5-3.6 1.8a12 12 0 0 1-3.9 2.5c-.5 0-1 .7-1 1.5v1.5h2.7c1.4 0 3.4-.5 4.5-1zm7-6.6v-6.4h-1.1c-.5 0-1 1-1.1 2.3a55 55 0 0 0-.1 11c.2.4.8.5 1.3.2.5-.4 1-3.5 1-7zm45 5.6c0-.5-1-1-2-1s-2 .5-2 1c0 .6.9 1 2 1s2-.4 2-1zm17.7.3c-.4-.3-1-.3-1.3 0s-.1.7.6.7 1-.3.7-.7zm-95-5.8c1.8-3 4-5.5 4.7-5.5.8 0 1.5-.4 1.5-1 0-.5-1-1-2-1h-2l-4 4c-2.3 2.2-4 4.8-4 5.8 0 1.9.8 3.2 1.9 3.2.3 0 2-2.5 3.9-5.5zm43.3 4c0-.5-1.2-1.1-2.5-1.3l-2.6-.3v3.2l2.6-.3c1.3-.2 2.5-.7 2.5-1.3zm7.8.4c-.2-.6-.8-1-1.4-1s-1 .4-1.3 1c-.2.6.4 1.1 1.3 1.1s1.5-.5 1.4-1zm21.2-2.4c0-.8-.5-1.5-1-1.5-.6 0-1 .7-1 1.5s.4 1.5 1 1.5c.5 0 1-.7 1-1.5zm-7-1v-1.6l-1 .6c-.6.4-.8 1-.5 1.6.9 1.4 1.5 1.1 1.5-.7zm67.1-1c0-.8-.7-1.5-1.6-1.5h-1.7l1.3 1.5c.7.8 1.4 1.5 1.6 1.5s.4-.7.4-1.5zm-54.6-.5c.3-.5-.4-1.8-1.5-3-2-2-4-2.6-4-1.2 0 1.2 3 5.2 4 5.2.5 0 1.1-.4 1.5-1zm-55.4-1a9.1 9.1 0 0 0 3.5-2.9c.6-.9 1.4-3.1 1.8-4.9l.7-3.2h-1.7c-.8 0-1.9.8-2.2 1.8-.4 1-2 3.3-3.5 5.3a21 21 0 0 0-2.8 4.3c0 1 1.6.7 4.2-.5zm20.8-1c0-2.8-1-5-2.1-4.4-.6.3-1.9-.2-3-1.2l-1.9-1.7v4.3h1.5c.9 0 2 1.1 2.7 2.5.6 1.4 1.5 2.5 2 2.5s.8-.9.8-2zm23-4.1v-4.2l-4.1 5.4.5 1.4c.3.8 1.3 1.5 2.1 1.5h1.6zm68.2.6c0-1.6-2.7-3.2-3.7-2.2-.3.4-.3 1.3 0 2.2.8 2 3.7 2 3.7 0zm-81.7-.5c-.3-.5-1.4-1-2.5-1-1 0-2.1.5-2.5 1l-.6 1h6.3zm29-3.2c-.8-3.8-2.1-5.8-3.8-5.8-.7 0-2.2-1.1-3.4-2.5l-2.2-2.5H257c-1.3 0-3.9-.3-5.8-.6l-3.3-.7 2.2 2.2c1.3 1.2 2.3 3 2.3 3.9v1.7H263l1.8 3.8c1 2 2.5 3.7 3.3 3.7h1.4zm-20.6-3.6c.1-1.8-.1-3.2-.7-3.2-1.1 0-2.1 2.4-2.1 5.2v2l1.2-.4c.7-.3 1.4-1.9 1.6-3.6zm-6.1 0 2.1-3-.5-2c-.3-1.2-1-2.2-1.4-2.2-.5 0-1.4 1-2 2.2l-1.2 2.2-1.3-1.8-1.4-1.9-1.5.6c-1.9.8-2 3.3-.3 4 .7.3.2.6-1 .6a10 10 0 0 1-4.4-1l-2-1 1.3-3.9h-4.2v4c0 2.1.5 4.2 1 4.5.5.3 1.9.1 3-.5l2-1 2.8 1.4c1.5.8 3.7 1.5 4.8 1.6h2l2.2-2.9zm89.4-1.2c0-1.1-.2-2-.4-2s-.6.9-.9 2c-.3 1.1 0 2 .4 2 .5 0 1-.9 1-2zm-112.2-.4c0-2.2-2.3-3.4-5.7-2.9l-3.1.5 3.2 3.8h5.6zm95.2.6c0-1-2.2-3.2-3.2-3.2-.5 0-.3.9.4 2 1.3 2 2.8 2.7 2.8 1.2zM299.1 187a1 1 0 0 0-1.3 0c-.4.4 0 .7.7.7s1-.3.6-.7zm-9-3c-.4-.3-.7 0-.7.7s.3 1 .7.7c.4-.4.4-1 0-1.4zm-1-3c-.4-.3-.7 0-.7.7s.3 1 .7.7c.4-.4.4-1 0-1.4zm-3.7-5.6c0-1.2-.7-3-1.5-4.1-.8-1.1-1.6-1.8-1.7-1.5l-1.5 2-1.2 1.5 1.5 2.2c.9 1.2 2.2 2.2 3 2.2h1.4zm18-.2c-.6-.8-2.2-1.5-3.4-1.5s-2.9-.7-3.5-1.5-1.9-1.5-2.6-1.5h-1.4l.6 1.5c.8 2.1 5.3 4.4 8.7 4.5h3zm-33.6-7 2-1.5-2.4-2.5c-1.2-1.3-2.7-2.2-3.1-2s-.9 1.9-.9 3.4c0 2.7.7 4.1 2 4a9 9 0 0 0 2.4-1.4zm-5.4-3.5c0-.6-.4-1-1-1s-1.2.4-1.5 1l-.6 1h1.5c.9 0 1.6-.5 1.6-1zm26.8-1.3a2 2 0 0 0-1.8-1.2 2 2 0 0 0-1.7 1.2l-.4 1.3h4.3zm-35.9-3.8c-.5-1-1.4-2-2-2-1.4 0-1.1 3.8.3 4.4 2.1.7 2.9-.3 1.7-2.4zm7.1.2c-.4-1.5-1.3-3.8-1.9-5-.6-1-1.2-3.7-1.2-5.8l-.1-3.8-.9 4.4c-.5 2.4-1 4.6-1.3 4.8-.8.8 2.2 6.1 4.1 7.2l2 1-.7-2.8zm18.5-1.4c.5-2 .6-4 .3-4.3-.3-.3-1.8.2-3.2 1.1l-2.6 1.7v6l4.5-.7zm6.1-1.5c-.7-.7-2.6.8-2.6 2v1l1.6-1.2c.8-.7 1.3-1.5 1-1.8zm8.6-.7c0-.5-.5-1.1-1-1.3-.7-.2-1.1.4-1.1 1.3s.4 1.5 1 1.3c.6-.2 1.1-.8 1.1-1.3zm-60.3-.8c0-1.5-2-3.7-3.2-3.7-1 0-1 3.4-.1 4.3 1.1 1.2 3.3.7 3.3-.6zm7-.7c0-1.1.9-4 2-6.3l3-7 1.1-2.9-2.7 2.1a22.7 22.7 0 0 0-3.9 3.9c-1.3 2-2.7 10.6-1.7 11.6 1.2 1.2 2.3.6 2.3-1.4zm10.8-5.8c.3-.7-.3-1.2-1.1-1.2-1 0-1.6.7-1.6 1.6 0 1.7 2.1 1.4 2.7-.4zm26.3-3.5v-2.2l-1.5 1.9c-.8 1-1.2 2.3-.9 2.7 1 1.5 2.4 0 2.4-2.4zm12-9.3c0-.8-.2-1.4-.6-1.4-.3 0-1.2.8-2 1.7-.7 1-1.3 3.6-1.3 5.8v4l2-4.4c1-2.4 2-5 2-5.7zm-66.5 5.1c.9-1.3 1.3-2.9 1-3.5-1-1.4-3.6-1.3-3.6.2 0 .7-.3 2.3-.6 3.5l-.6 2.3h1c.7 0 1.9-1.1 2.8-2.5zm46.3-5.6-.4-3.4-1.6 3.4c-.9 2-1.3 4.1-1 4.9l.5 1.3 2.9-2.8zm8 3.9-.6-1.3-.1 1.9c0 1 .2 1.6.5 1.3s.4-1.2.1-2zm-38.8-2.4c0-1.5-1.2-1.9-2.3-.8-1 .9.3 3.5 1.4 2.8.4-.3.9-1.2.9-2zm21.3-1-.5-1.5-1.4 1.2c-.8.6-1.4 1.8-1.4 2.5v1.5l4-2.1zm13.4 2c-.4-.5-.7-.2-.7.6 0 .7.3 1 .7.6.4-.3.4-1 0-1.3zm11.8-.3c.3-.5-.1-1.2-1-1.5l-1.5-.6v1.5c0 1.6 1.6 2 2.5.6zm-5.8-3.4c-.3-.7-.5-.1-.5 1.3 0 1.4.2 2 .5 1.2.3-.7.3-1.8 0-2.5zm-29.8-2c0-.3-.6-.4-1.4 0s-1.5 1.4-1.5 2.6v2l1.4-1.9c.8-1 1.5-2.2 1.5-2.6zm6.7 0a15 15 0 0 1 3.5-4.9c2.8-2.6 3.8-6.2 2-7.3-.5-.3-1.5 1-2 2.9s-2.2 4.5-3.5 5.7c-2.9 3-4.8 6.4-4 7.2 1 1 3.2-1.1 4-3.6zm19.4-.3v-2.5l-1 .6c-.5.3-1 1.5-1 2.5 0 1.1.5 2 1 2s1-1.2 1-2.6zm7-4.2c1.6-6 4-17.3 4-19 0-.7-.6-1.2-1.4-1.2h-1.4l-.6 4.7c-.4 2.6-1 6.4-1.5 8.3-.5 1.9-1.2 5.4-1.6 7.7l-.6 4.3h.8c.5 0 1.5-2.2 2.2-4.8zm-41-1.4c0-.5-.5-.8-1-.8-1.3 0-3.2 3.5-2.3 4.4.4.4 1.3-.1 2-1s1.3-2.2 1.3-2.6zm11.4-.4c1-1.4 1.6-3.5 1.4-4.7l-.4-2.2-2.2 4.2a32.4 32.4 0 0 0-2.2 4.7c0 .3.4.6.9.6.4 0 1.6-1.2 2.5-2.6zm22.3-1.6-.5-1.3-.1 1.9c0 1 .2 1.6.5 1.3.4-.3.4-1.2.1-2zm18.4-13c0-1-.4-1.8-.8-1.8-1.6 0-3.2 2.4-3.2 4.8v2.5l2-1.8c1-1 2-2.7 2-3.7zm-34.6-2.4c.6-2.2 2.1-5.5 3.3-7.4 1.2-2 2.2-4.4 2.2-5.4v-1.9l-1.5 1.3c-.8.7-1.5 1.6-1.5 2.2 0 .5-1 2.3-2.4 4a20.4 20.4 0 0 0-3.1 7.6l-.7 4.4 1.2-.4c.7-.2 1.8-2.2 2.5-4.4zm13.8-.7c-.5-2.8-1.7-3.5-2.8-1.7-.4.6.1 2 1.2 3 1 .9 1.9 1.7 2 1.6 0 0 0-1.4-.4-2.9zm22.8-4.4v-1.6l-1.5 1.3c-.9.7-1.5 1.4-1.5 1.6 0 .2.6.4 1.5.4s1.5-.8 1.5-1.7zm-9.7-6.6 1.3-7.5.6-3.2h-2l.5 2 .5 2h-2.3v3.4c0 1.9-.4 3.7-1 4s-1 1.8-1 3.3v2.5l1.4-1.1c.8-.6 1.7-3 2-5.4zm-8.7 3.6c-.4-.4-.7 0-.7.7s.3 1 .7.6c.4-.3.4-1 0-1.3zm18.2-12.8c1.8-5.2 3.2-9.9 3.2-10.5s-.5-1-1-1-1 .8-1 1.8-1 3.7-2 6c-1.1 2.2-2 5.2-2 6.5s-.7 3-1.5 3.7-1.5 2.1-1.5 3.2v2l1.3-1.1c.8-.7 2.8-5.4 4.5-10.6zm-15.9 6.1v-2.1l-1.5 2c-.8 1-1.5 2.5-1.5 3.3V99l1.5-1.2c.9-.7 1.5-2.2 1.5-3.4zm-8.4.6c.8-1 1.4-2.6 1.4-3.6v-2l-2 1.9c-1 1-2 2.6-2 3.6s.3 1.9.7 1.9c.3 0 1.2-.8 2-1.8zm4.4-11v-2.6l-1.4 2c-.9 1-1.5 2.7-1.6 3.7v2l1.5-1.3c.8-.7 1.5-2.4 1.5-3.8zm9.6-.7 1.7-3.5-1.4-3.5-1.4 4c-1.5 4-1.8 6.5-1 6.5.2 0 1.2-1.6 2.1-3.5zm22.5-9.6v-2.1l-1.3.4c-.7.2-1.4 1.2-1.5 2.1l-.4 1.7h3.2zm-19-1 1-2h-3v2c0 1.2.2 2 .4 2s1-.8 1.5-2zm-14-1c0-.5-.3-1-.5-1-.3 0-.7.5-1 1-.4.6-.2 1 .4 1s1-.4 1-1zm24.6-1.6c-.3-.4-.6 0-.6.7s.3 1 .6.6c.4-.3.4-1 0-1.3zm10.2-7.3c-.2-.8-1-1.5-1.8-1.5H308l-.3 4-.2 4 2-2.5c1.1-1.3 2-3 1.8-4zm-27.9.4v-1.6l-1 .7c-.5.3-1 1-1 1.5s.5 1 1 1 1-.7 1-1.6zm35.1-6v-2.4h-3v5h3zm-21-1.5c.6-1.2.9-2.3.6-2.6-.2-.3-1.4 0-2.6.6-2.3 1.3-2.8 4-.6 4 .8 0 2-.9 2.6-2zm30-4.2c0-1-.4-1.7-1-1.7-1.4 0-3.2 4-2.5 5.7l.6 1.6 1.4-2a7 7 0 0 0 1.5-3.6zm15.5 2.7 1.6-1.6v-4.9c0-8.4-3.3-7.2-4.4 1.6-.4 2.8-.4 5.4 0 5.8.4.4.8.7 1 .7 0 0 1-.7 1.8-1.6zM311 53l.6-1.7L310 50c-1-.7-2.7-1.2-3.9-1.2a8 8 0 0 0-4 1.6l-2 1.6 6.3-1.2.5 2c.3 1 1.2 2 2 2s1.8-.8 2.1-1.8zm3.5-5.2c0-1.1-.4-2-1-2a8 8 0 0 0-2.5.6l-1.6.6 1.8 1.3c1 .8 2.1 1.4 2.5 1.4.5 0 .8-.8.8-2zm5-1c0-1.3-1-1.3-3 0l-1.5 1h2.3c1.2 0 2.2-.5 2.2-1zM333 46c1.3-4.9 1.6-7.4 1-8.4l-.6-1-1.3 1.8c-1.6 2-2 9.4-.5 9.4.5 0 1.1-.8 1.4-1.8zm-25.8-3.7c1.6-.9 3.6-1.5 4.6-1.5 2 0 3.2-1.6 2.3-3l-.6-1-4.4 2.3c-2.4 1.2-4.6 2.7-5 3.4s-.3 1.3-.1 1.3l3.2-1.5zm20 .8a1 1 0 0 0-1.2 0c-.4.4-.1.7.6.7.8 0 1-.3.7-.7zm-7-3.8 1.6-2.4 5.3-.6.7-3.5h-1.4c-.8 0-2.4.9-3.6 2-1.1 1-2.4 2-2.8 2-1 0-4.4 3.1-4.4 4.1 0 .5.7.9 1.5.9s2.2-1.1 3-2.5zm14-6.6c.3-.6.3-2.2 0-3.6l-.7-2.5-1.4 1.2c-2.2 1.8-1.8 6 .6 6 .5 0 1.1-.5 1.5-1.1zm6.4-4.5c0-.8-.6-1.4-1.5-1.4-1.5 0-2 2-.8 3.3 1 .9 2.3-.2 2.3-2zm5.4-4 .6-1.5h-2c-2 0-3.4 1.6-2.5 3 .8 1.3 3.2.3 4-1.5zm-291.7 1046-1.3-3-.4-9.8c-.3-9-1.7-19-4.4-31.6-1.3-5.9-5-14.7-6.3-14.7-.5 0-2-2.4-3.3-5.3l-2.3-5.2-8.2-7.4c-7.8-7-15-16.5-15-19.7a9 9 0 0 0-1.5-3.7c-.7-1.3-1.6-5.6-2-9.7s-1.5-10.8-2.5-15a123 123 0 0 1-2.5-18.8l-.5-11.2 2-1.3L5 907h1.5c.8 0 2.1.7 3 1.6l1.5 1.5-.5 7.7a273 273 0 0 0 2.6 39.7l.9 8 2 4a195 195 0 0 0 4.4 7.8c1.2 2 7 8.6 13 14.5 5.9 6 11.4 12.4 12.3 14.3a139.5 139.5 0 0 1 7.3 16c.6 1.3 1.3 3.8 1.6 5.5.3 1.6 1 5.4 1.8 8.5l1.2 5.5v15.4l.1 15.4-1 .3c-.6.2-1.6-1-2.3-2.5zm123-46.2c0-.6 1-1.4 2-1.6 1-.3 2.2-1.4 2.6-2.5l.6-2 1.5.4c.8.1 1.5.7 1.5 1.3 0 .5-.9 1.5-2.1 2.1s-2.7 1.6-3.4 2.2c-1.4 1.5-2.7 1.5-2.7 0zm68.2-42.7c0-2.1-.5-4.3-1.1-5l-1.1-1-.4-9.4c-.1-5.1-.8-11.8-1.3-14.9l-2.6-13.5-1.4-8 1.6-1.6.7 1c.7 1.3 2.5 9.4 3.1 14.3.2 2 1.2 6.3 2 9.5 1 3.2 1.7 6.7 1.7 7.8a72 72 0 0 0 3.9 18.2c.6.7.9 2.3.7 3.5l-.3 2.4-5.5.6zM196 979c-1.9-1.1-2.4-4.5-.8-5.4.6-.4 1-1.6 1-2.8l1-27.8a344.8 344.8 0 0 0-2-64.2c0-1 .7-1.8 1.4-1.8h1.4l1.1 8.3 1.2 8.2v80.6l1 2c.6 1.1.8 2.4.5 3-.8 1.2-3.5 1.2-5.8-.1zm28.3-11v-1.2l-5 1.3v-2c0-2.2 1.6-3.6 2.5-2 .3.5 1 1 1.6 1 1.3 0 1.2-3.4-.2-4.7-.6-.7-1.7-7-2.4-14s-1.2-14.2-1.1-15.9l.1-3 4.8.6 2.7-3.6 1 1.5a17 17 0 0 1 1.1 8.6c0 .6.6 4.9 1.4 9.5l1.5 8.4-4.2 3.2 2.6 4.2-1.2 2.6c-.6 1.5-1.2 3.5-1.2 4.6v2h-2c-1 0-2-.5-2-1.2zm.6-33.2.6-3.8h-1.1c-1.6 0-3.3 4.9-2.5 7.3l.6 2 .8-1c.5-.4 1.2-2.4 1.6-4.5zM185.4 963a7 7 0 0 0-4.2-.4l-2.8.6-.5-2.4-1-5.7-.6-3.4 2.9-2.3.3-8 .3-8-1.7-.3-1.6-.3-.4 3.8-.3 3.8-1-.2-1-.3.1-4.7a287 287 0 0 1 2.5-31.6c.5-3 1.4-19.9 2-37.4.4-17.5 1.3-33.6 1.8-35.7.6-2.2 1-14.1 1.2-26.5 0-12.4.4-27 .8-32.4l.6-9.7h2v7.3l-.4 30.7-.2 23.5-1.3 8c-1.5 9-1.5 9-2 41.5a351.8 351.8 0 0 1-3 45.3l-.7 8.7h1.2c.7 0 2-.7 3-1.6l1.8-1.5 6.7 6.9-.7 10c-.3 5.5-1 11.5-1.3 13.2l-.7 3.2 4.2 1v1.8c0 1.9-2 4-3.5 4-.6 0-1.7-.4-2.5-.9zm-7.4-32.7a1 1 0 0 0-1.3 0c-.4.3-.1.6.6.6.8 0 1-.3.7-.6zm35.4 31.6c0-.7.3-1 .7-.6.3.3.3 1 0 1.3-.4.4-.7 0-.7-.7zm6-3c0-.7.3-1 .7-.6.3.3.3 1 0 1.3-.4.4-.7 0-.7-.7zm-85.8-1.4a33 33 0 0 1 0-7.9c1-9.5 3-21.4 3.8-22.2.4-.3 1.2.3 1.8 1.5l1.2 2-1.1 7.6c-.6 4.2-1 8.7-1 10v2.4h1.5c.8 0 1.5.7 1.5 1.6v1.5l-4.3-2 .3 3.3.4 3.3-1.8.3-1.8.4zm32-22.1c-.3-.9 0-2 .5-2.7.6-.5 1.8-.8 2.7-.4l1.6.6-1.3 2c-.7 1.1-1.6 2-2 2-.5 0-1.1-.7-1.5-1.5zM143.8 921c.3-.5.8-1 1-1 .3 0 .5.5.5 1 0 .6-.5 1-1.1 1s-.8-.4-.4-1zm6-2c-.4-.6-.3-1.6.2-2.1l1-1 .6.8c.3.5.2 1.5-.3 2.2l-.8 1.3zm16.8-1.6a1 1 0 0 1 1.4 0c.3.3 0 .6-.7.6s-1-.3-.7-.6zm-16-3.9c-.7-2 .4-6.5 1.7-6.5.5 0 1 1.8 1 4v4h-1c-.6 0-1.3-.6-1.7-1.5zm117.6-6.8c-.4-1-.7-2.3-.7-3v-1l1 1c.7.6 1 2 .8 3l-.4 1.8zm-263-15.2v-3l.5 1.8c.2 1 .2 2.3 0 3-.3.7-.5-.1-.5-1.8zm.5-4.2a63 63 0 0 1-1.2-10.8l-.7-10 1 1c.7.6 1.6 5.1 2.1 10l1 9-1.7 1.7zm124.2-17c-.3-.5-.6-4.2-.8-8.2l-.2-7.4 2.1-.8c1.2-.4 2.3-.5 2.6 0 .2.3 0 4-.4 8s-1.1 7.7-1.7 8.3l-1 1-.6-.9zm108.6-3.7c-.6-.8-1-2.7-.9-4.3l.3-2.8h3l.4 3.4c.1 1.9-.1 3.8-.6 4.3l-1 1zm3.3-33a7 7 0 0 1-.2-3.3l.4-1.8h4l.6 6.5h-2.1c-1.2 0-2.4-.6-2.7-1.4zm38.3-1.5c-.8-1.3.3-3.8 2-4.5 3.5-1.3 4.8 2.6 1.5 4.4-1 .5-2.2 1-2.5 1-.2 0-.7-.4-1-.9zM8 822l-2-2v-7.7l3.8-3.4.8 1.3c1.3 2 3 9 2.6 11-.2.9-1 1.9-1.8 2.2l-1.4.6zm205-9.7c-1-1-.7-4.3.4-4.3.5 0 1.4.9 2 2s1 2.1 1 2.4c0 .8-2.5.8-3.3 0zm15-12.7c-.2-.8-.2-1.7.2-2a74 74 0 0 1 12.4-.6h11.9v-3c0-1.6-.4-3-1-3-.4 0-1.4.7-2 1.5-.7.8-2.4 1.5-3.8 1.5h-2.4l-2.1-5c-1.2-2.7-2.7-5-3.4-5h-1.2l1 3.2c.4 1.8.8 3.9.8 4.5 0 2.3-2.6 1.4-3.8-1.2a21 21 0 0 1-1.2-7v-4.6l1.6-.6 1.5-.5 1.8 1.6c1 .9 2.5 1.6 3.3 1.6s2-.5 2.6-1.2l1.2-1.1.7 1.7.6 1.7-1.1 1.2c-1.6 1.5-1.4 6.4.1 7l1.3.5 3.9-6a22 22 0 0 1 4.6-5.8c1.4 0 1.7 2.4.7 5.3l-1 2.8.7 4.7.9 6.5.2 1.9-28.4.7zm37.5-4c0-.9-.9-2.5-2-3.5a22 22 0 0 1-3-4l-1.1-2.1 1.2-4c.7-2.2 1.6-4 2-4 .5 0 1.1 2.3 1.5 5l.7 5 1.9 1.1 2 1-.4 3.1c-.2 1.8-.9 3.3-1.6 3.6l-1.2.4zm-38.1-4.2c-.5-1.4-1-3.2-1-4 0-.8.6-1.4 1.4-1.4 1.4 0 3.6 4 3.6 6.5s-3 1.7-4-1zm71.6-2.9c.4-1.6 1.1-3.4 1.6-4l1-.9v2c0 1-.8 2.8-1.7 3.9l-1.6 2zm-96-7.7c-.3-.7-.7-4-1-7.4-.3-3.3-.9-6.9-1.3-7.9l-.7-1.8 2.9 1 .7 6.2c.3 3.4 1 7 1.3 8 .3 1 0 2.2-.5 2.6-.6.3-1.2 0-1.5-.7zm97.6-1.1c0-1.3.6-3.2 1.4-4.3.8-1 1.5-2.7 1.5-3.7s.5-1.7 1-1.7c1.4 0 2.3 1.8 1.2 2.4-.5.3-1.2 2.6-1.6 5l-.7 4.6h-2.8zm7.2-16.2c.6-1.4 1.5-2.5 2-2.5s.8.8.8 1.9c0 1-.7 2.2-1.6 2.5l-2 .6c-.2 0 .1-1.1.8-2.5zm4.8-4.5c0-.7.3-1 .6-.7.4.4.4 1 0 1.4-.3.3-.6 0-.6-.7zm-39.9-1.2c-1.4-1.4-1.6-3.8-.4-3.8a7 7 0 0 1 2.7 1.3l1.8 1.4-.7 1.1c-.4.7-1 1.2-1.5 1.2s-1.2-.5-1.9-1.2zm4.4-6c-.8-1.2-1.3-2.5-1-3 .3-.5 1.5-.6 2.5-.3l2 .7 1.5-1.3 1.5-1.2 2.4 2.5-1.1.5c-.7.2-2.2 1.3-3.4 2.3-1.3 1.1-2.4 2-2.6 2s-1-1-1.8-2.2zm-94.8-10.3c0-.8.5-1.5 1-1.5.6 0 1 .7 1 1.5s-.4 1.5-1 1.5c-.5 0-1-.7-1-1.5zm136.1-1.7-2-2 .6-7.7a60 60 0 0 1 1.8-10.8l1.2-3.2-1.2-2.6c-.7-1.4-1.2-3.4-1.2-4.4 0-1-1-3.5-2-5.6l-2-4 2-5.5a87.8 87.8 0 0 0 3.4-26.5v-8l-1.6-1.5c-.9-.9-1.8-3.4-2.1-5.7l-.5-4.2 1.2-1.8 1.3-1.8V637c.2-10 .9-16 2.3-19.1l1.1-2.6-1.3-6.5c-1.5-7.4-1.6-19.9-.3-30.1l.8-6.8-3.6-4 1-5.3c.7-2.9.9-7.2.6-9.5l-.6-4.1 1.5-.6c.8-.3 2.7-.6 4.3-.8l2.9-.2 1.8 8 3.7 15c1.1 3.9 2 8 2 9.3l.1 2.2h-11.1l.5 2 1.2 4.1.6 2 1.3-1.7c.7-1 1.6-1.6 1.9-1.3.2.2 1 5.2 1.6 11a83 83 0 0 0 2.7 14.8l1.6 4.4-1.4.9c-.8.4-2.7.8-4.3.8h-2.8l.5 12.6.6 12.5 2 2.6a9.1 9.1 0 0 1 2.1 4.4c0 1-.7 2.3-1.5 3l-1.5 1.2-1.8-1.6c-1-.9-2.4-1.6-3.1-1.6h-1.3l.5 3.2c.7 3.8 1.8 15.2 2.1 21.7l.2 4.5 6 3.2v3.9h-5l-.6 2.5c-.4 1.4-.2 3.4.4 4.5.5 1 1 5.9 1 10.7l.1 8.7 4.6 3.3-.3 1.6-.3 1.7h-7l-.3 5.4c-.2 3 0 6.5.6 8 .4 1.4.7 3.3.5 4.3-.2.9-1 1.9-1.9 2.2l-1.5.5-2-2zm8.6-135.1c-.4-5-.8-9.4-1-9.7-1-1-1.6 1.5-2.1 9.8l-.6 9.2h4.3zm-4.1-10.4c.8-.8-.3-3.4-1.4-3.4-.5 0-.9 1-.9 2 0 2 1 2.7 2.3 1.4zm7.5-17c-.2-1-1.5-2.3-3-2.8l-2.8-1-2.3 2.4 1.3 1.5c.7.8 2.6 1.5 4.2 1.5h3zm-1.8-8.4c0-1-.6-2-1.2-2-2.2 0-4 1.8-3.4 3 .4.5 1.6 1 2.7 1h2zm-5-6.5c0-1.4-.4-2.3-1-2-.4.3-.6 1.4-.3 2.5s.7 2 1 2c.1 0 .3-1.1.3-2.5zm-67.5 172.8c-.3-.5-.3-1.8 0-3l.6-2 5.4-2 1.2 1.9c.7 1 1.2 2.4 1.2 3v1.1l-2-.5-2-.5-1.1 1.4c-1.3 1.6-2.6 1.8-3.3.6zm-37.4-1.5c-1-1.7 2-2.7 8.5-2.9l8.4-.2c1.2 0 2.4.4 2.6 1.1l.4 1.2-2.3.6c-4.1 1-17 1.1-17.6.2zm25.7-2.2c-.6-.8-1.6-1.5-2.2-1.5-1.4 0-9.8-7-9.8-8.3 0-.5 1-2 2.3-3.3l4-4.4 1.7-2 3.3.6a19 19 0 0 1 6.4 3c1.8 1.3 4 2.4 4.9 2.4h1.6l-.4 1.2c-.2.7-2 1.4-4 1.6l-3.7.3v1.8c0 1-.7 2.4-1.5 3l-1.4 1.2 1 2.5.9 3c0 1-1.9.3-3-1.1zm0-9.5c0-1.2-5-3.4-5.7-2.6-.3.3 0 1.2.7 2 1.4 1.8 5 2.1 5 .6zm30.8 10.3c-1.4-1.3-.6-2.3 1.8-2.3h2.5l-.6 1.5c-.6 1.5-2.6 2-3.7.8zm-10.6-9.2c-1.4-.4-2.7-1.2-2.9-1.9l-.4-1.2h5.2v-3h2.4c1.3 0 2.9.6 3.5 1.4l1.2 1.4-2 2.1c-1.2 1.2-2.7 2-3.4 2-.6 0-2.3-.4-3.6-.8zm-36-.8a2.3 2.3 0 0 1-1.2-1.9c0-.8-.4-1.4-1-1.4s-1.9.5-3 1.2l-2 1.2-2.4-2.4 4-4a31 31 0 0 1 7.7-6l3.8-2.1 1-2.5.9-2.4h1.8c1 0 2.3.5 3 1 1.3 1.4 3.2.4 3.2-1.6V700h-2.1a7 7 0 0 1-4-1.6c-1.9-1.8-3.9-1.2-3.9 1.1 0 1.6-1 1.8-3.4.9l-1.6-.6v-2.4c0-1.3.4-2.4.8-2.4 1 0 4.2-6.5 4.2-8.6 0-.8-.4-1.4-1-1.4s-3 .5-5.5 1.2l-4.5 1.2-2-2 .9-1.3c.4-.7 3.2-1.7 6.2-2.2 3-.5 6.8-1.1 8.4-1.5s4.3-.1 5.8.5c1.5.5 2.7 1.7 2.7 2.5 0 1.5-1.5 2-5 1.6l-1.7-.1-.6 3.2c-.4 1.7-.7 3.5-.7 4 0 1.9 2.5.7 5.8-2.7l3.5-3.5 5 .6v4.2l-.2 5.2c0 .5-1 .7-2 .4l-2-.6-.7 1.7c-.3 1 0 3.5.7 5.7l1.3 4-2.1 1.9c-2.3 2.1-5.3 2.7-5.3 1 0-1.5-4.6-1.2-6 .4-.6.8-2.4 1.7-4 2-1.5.4-3 1.3-3.4 2.1-.3.8 0 2 .8 2.7 1.7 1.7 2.7 4.6 1.8 5.1-.4.2-1.2.2-2 0zm19.9-30.8c0-2-.4-3.5-.8-3.5s-1.3 1.2-2 2.7l-1.2 2.7 1.2.8c.7.4 1.6.8 2 .8.4 0 .8-1.6.8-3.5zM130.7 719a8.7 8.7 0 0 0-2-4l-1.5-1.3v-6.2c0-3.4.3-6.5.7-6.8.3-.4 1.2-.2 2 .4l1.3 1-1.3 11.9h1c.5 0 1.4-.5 2-1l1-1-.3 4.2-.3 5c0 .4-.5.8-1 .8s-1.2-1.3-1.6-3zm78.7 1c0-.6.7-1 1.5-1h1.6l-.6 1c-.4.5-1 1-1.6 1s-1-.5-1-1zm4-7c0-.6.7-1 1.5-1l2.2-.1c.4-.1 1 .4 1.1 1l.4 1H216c-1.4 0-2.6-.4-2.6-1zm57.5-1.5a5 5 0 0 1 0-3l.5-1.5 2.9.3c1.5.2 3.3.6 4 1 1.9 1.2 1.4 2.7-.9 2.7-1 0-2.9.4-4 1l-2 1-.5-1.5zm-16.3-1.9-2.2-2.3 1.6-1.4 1.7-1.3 1.4 1.9c1.5 2 1.9 5.5.5 5.5-.4 0-1.8-1-3-2.4zM211 709c-.8-1.3 1.4-2.2 5.7-2.4l3.3-.1v3l-8.3.6zm53.2-1.9c-.4-.5-.3-1.7 0-2.5l.6-1.6h-1c-.6 0-1.6.8-2.1 1.7l-1 1.8-2.3-2.3 1.6-3.1c1-1.7 2.2-3.1 2.9-3.1 2.2 0 5.7 3 5.7 4.9 0 1-.9 2.5-2 3.5l-1.8 1.7zm-114.6-9.9.3-1.7 5.2-2.8c3-1.6 5.7-2.6 6.2-2.3 2 1.2-.3 3.7-5.2 6.1a33.8 33.8 0 0 1-6 2.5c-.5 0-.7-.8-.5-1.8zm104-6.2v-4h8v7h-1.1c-.6 0-1.4-1-1.6-2-.3-1.1-1-2-1.3-2-.5 0-1.1 1.1-1.4 2.5s-1.1 2.5-1.7 2.5c-.5 0-1-1.8-1-4zm-39-1c.5-1.3 1.8-1.5 2-.3 0 .4-.5.9-1.2 1.1-.6.2-1-.1-.8-.8zm43-9.1v-2l1.7.3c1 .1 1.9 1 2 2l.4 1.8h-4.1zm-2.5-4c-1.1-.4-3.7-1-5.6-1.4-3.8-.6-7.9-3-6.9-4 .3-.3 3.9-.1 8 .4l7.3 1 .7 1.2c.8 1.3.2 4-.9 3.8a15 15 0 0 1-2.6-1zm20-2-.7-1-5.6 1.2-.7-1.2c-.4-.6-.2-1.6.4-2.2l1-1 9.6 1.8.3 1.7.4 1.8h-2c-1.2 0-2.4-.5-2.7-1zm-23.5-6-1.5-1 1.5-1c.8-.5 4.5-1 8.2-1h6.7l.7 1.2c.3.6 0 1.5-.7 2-2 1.2-13 1-15-.1zm-9-5c-.9-.5-2.8-1-4.3-1s-2.8-.4-2.8-.9c0-1.6 4.3-4 7.1-4 1.5 0 3.2.6 4 1.4l1.1 1.5-.6 2c-.4 1.1-1.2 2-1.9 2a6 6 0 0 1-2.7-1zm19-.9c-.8-.5-1.1-1.3-.7-1.7.8-.8 10.7-1.4 12-.7l.8.5-2.3 2.9H267a14 14 0 0 1-5.6-1zm6.1-7.6.4-2 4.8-.9c2.6-.5 4.7-1.2 4.7-1.7s.7-.8 1.6-.8c.9 0 1.4.5 1.2 1.2-.7 2-5.3 4.8-9.2 5.4l-3.8.7zM135 653.3c-.4-.4-.7-4.2-.7-8.6v-8l-4 1v-1.2c0-1.7 2.3-2.6 4-1.6 1.5 1 3 7.3 3 13.3 0 4.4-1 6.5-2.3 5zm4.3-11.8c0-5.8.4-10.5.9-10.5s.9 4.7 1 10.5V652h-1.9v-10.5zM256 650c-.3-.5-.1-1.2.5-1.5 1.2-.8 3 .2 3 1.5 0 1.2-2.7 1.2-3.5 0zm32.5-2a1 1 0 0 1 2 0 1 1 0 0 1-2 0zm-16-2c0-.6.7-1 1.5-1s1.5.4 1.5 1c0 .5-.7 1-1.5 1s-1.5-.5-1.5-1zM154 643.3c-.4-.4-.7-1-.7-1.4 0-1 9.9-6 11.9-6 1 0 2.2-.4 2.8-1 .6-.7 1.6-.9 2.3-.5l1.1.7-1.1 1.4a56.5 56.5 0 0 1-13.8 6.9c-1 .3-2.2.3-2.5-.1zm101.6-29.7c-.6-.7-.8-1.6-.5-2 1-1 4.4-.8 4.4.2 0 .5-.6 1.4-1.4 2l-1.4 1.2zm24.6-9.3c-1-1-.8-6.6.3-8.4l1-1.5v5.3c0 2.9-.1 5.2-.3 5.2s-.6-.3-1-.6zm-7.7-7v-1.5l1 .7c.6.3.8 1 .5 1.5-.9 1.4-1.5 1.1-1.5-.6zm-84.6-23.2c-.3-.6-.1-1.3.5-1.7 1.5-1 2.5.4 1.2 1.6l-1 1.1zm-17.3-31.8-.6-1.7 3.4-2.9c1.9-1.6 4.5-3.1 5.7-3.4 1.3-.4 2.8-.2 3.4.4l1 1-5.2 4.1c-3 2.3-5.7 4.1-6.2 4.1s-1.1-.7-1.5-1.6zm15.4-2c-1.1-1.1 1.5-3.4 3.9-3.4 1.2 0 2.5.7 2.8 1.4.3.8.2 1.7 0 2-.9.8-5.9.8-6.7 0zm26.3-7.4-1.2-.7.8-1.3.7-1.2 6.7 1 1.2-1.3c.6-.8 2-1.5 3-1.5 2 0 3.4 3 2.1 4.2a27.9 27.9 0 0 1-13.3.8zm-27.8-2.2-1-1.3 1.6-2.8 3.4 1.3-.3 1.7c-.2 1-.9 1.8-1.5 2-.6.2-1.6-.2-2.2-1zM233 523c-1.4-1.3-.3-2.2 2.9-2.2 1.9 0 3.7-.4 4-1 1-1.5 4.3-1.2 5 .5l.5 1.5-1.7.9c-1.9 1-9.9 1.2-10.7.3zm-28.6-5a15 15 0 0 1-2-3.6c0-1 8.8-.7 9.4.4.4.5 0 2-.6 3.5l-1.1 2.5h-1.8c-1 0-2.7-1.3-3.9-2.9zm-19.4 0c-.8-1.3.6-4 3.8-7l2.5-2.3 3.4 1.3-3.5 4.1c-1.9 2.3-4 4.4-4.5 4.6s-1.4-.1-1.7-.7zm60.6-3-1.6-1 2.3-3.6h4.8l.3 2.3c.2 1.2-.1 2.2-.7 2.2s-1.6.2-2.3.5c-.7.3-2 0-2.8-.5zm-25.6-3.1c-1-1.6 2.2-5.9 5-6.6 2.7-.7 5.5 0 5.5 1.4 0 .5-1.1 1.4-2.5 2-1.4.7-2.8 1.9-3.1 2.7-.7 1.7-4 2-5 .5zm38-1-1.2-1.1.8-3.2c.4-1.7 1-4 1.5-4.9l.7-1.7-3.7-2.2c-2-1.2-3.5-2.6-3.2-3.3.4-1.2 10.5-3.1 11.4-2.2.4.4.1 1.6-.5 2.9-.7 1.2-1.3 5.4-1.5 9.2l-.2 7-1.5.3c-.9.2-2-.2-2.7-.8zm-25-6.4c-.8-1.8.2-3.6 2-3.6.7 0 1.8-.7 2.5-1.5 1.4-1.7 3.8-1.9 6-.5l1.4.9-1.2 1.4c-.6.8-1 2.2-.6 3.1l.7 1.6h-10.3zm-5-7.6c-.4-.6-.3-1.6.2-2l1-1 6.4 1.3-.4 1.1c-.2.6-1.7 1.3-3.4 1.4l-3 .3zm-19.5-1.4c0-.7.7-1.6 1.6-2 2.3-.9 7.4-.7 7.4.3s-4.6 3.1-7 3.1h-2zm7.2-18.7a8.9 8.9 0 0 1-1.2-4.7v-3.4l1.2.5c.7.2 1.4 1.6 1.6 3l.3 2.7 4.4-.5v3l-2.5.3c-1.4.2-3-.3-3.8-1zm46.8-2.6V470c.3-3.9-2.2-9.7-4.5-10.6-.9-.3-1.4-1-1.2-1.7l.3-1 31.5.2 7.5-2 9 2.6.4 1.8.4 1.7-4.4-.8c-5.4-1-35-.5-36.3.7l-1 .8 2.5 3-.7 5-.7 5.1H264c-.8 0-1.5-.3-1.5-.7zm-39.6-2.4-.7-1.2 1.8-1.3c1-.8 3-1.4 4.2-1.4h2.3v1.5c0 .9-1.1 2-2.5 2.5-1.5.6-3 1-3.5 1s-1.2-.5-1.6-1.1zm20-.4c-.3-.8 0-2.2.7-3l1.2-1.5h3.4c2 0 4.4-.5 5.5-1l2-1.2 2 2-2.3 2.1a11.8 11.8 0 0 1-4.6 2.7l-4.8 1-2.5.5zm-63.8-.7-1.8-1.3 1.3-3.5h14l6.2-7.2 3 .6c3.3.7 7.7 4.2 7.7 6.2s-2.8 2.4-6.7.8l-3.8-1.6-.3 1.1a16 16 0 0 1-2.3 3.4l-1.8 2.2-1.8-1.7-1.7-1.7-1.7 1.5c-1 .8-3.2 1.7-5 2l-3.5.6zm36.8-12.2-1.6-2.5 1-1.8a15 15 0 0 1 2.9-3.4l1.8-1.6 11.9.2v3.5l.1 3.5-2.7.3-2.8.3-1-2.5c-.5-1.4-1.5-2.6-2.2-2.6-.7 0-2 .5-2.8 1l-1.5 1 1.2 3c.6 1.6.8 3.1.5 3.5-1.2 1.2-3.2.4-4.8-2zm-189 .8c-.3-.5-.9-4.3-1.3-8.4s-1.4-9-2.3-11l-1.6-3.5.3-32c.5-51.2.6-92.1.2-104.5-.2-6.4 0-16.7.6-23l1-11.5 2.3-5a135 135 0 0 1 9.3-18.4c1-1.3 1.8-3 1.8-3.9 0-.8 1.8-3.7 4-6.5s4-5.5 4-6.2c0-.6 1.4-2.5 3.1-4.1a56 56 0 0 0 6.7-8.5c2-3 7-8.8 11-13l12.6-13c5.2-5.5 7.2-7.2 16.2-13.3 2.7-2 7.2-5.6 10-8 2.7-2.6 5.6-4.7 6.6-4.7s2.4-.8 3.3-1.9c1-1 4.2-3 7.1-4.4 3-1.4 5.6-3 6-3.6.4-.6 1.5-1 2.4-1s2.6-1 3.6-2c1-1.2 2.4-2 3-2s3-1.4 5.1-3 4.5-3 5.2-3c.7 0 3-1.6 5-3.4 2-1.9 4.8-3.7 6-4.1s4.4-2.5 6.9-4.7c2.5-2.1 5-3.9 5.8-3.9.7 0 3-1.8 5.2-4 2.1-2.3 5.3-4.7 7-5.4l3-1.3 14-14.7c18.7-19.8 21.5-22.9 21.5-24.2 0-.7.9-2.2 2-3.5l1.9-2.4 1.3 1.3 1.3 1.2-2 3.7c-3 5.5-19.4 23.9-30 33.5a68.7 68.7 0 0 0-10.2 10.8c-.3 1-1.2 2-2 2s-1.5.3-1.5.8c0 1.4-8.3 10-11 11.6-4.6 2.5-15 7.5-15.7 7.5a75.6 75.6 0 0 0-15.3 7.3c-1.4.7-6 3.3-10 5.8l-9 5.2c-1.9.7-11.3 7.4-20.4 14.2a559 559 0 0 1-12 8.9c-3 2.1-7.2 6-9.3 8.5-2.2 2.5-7.3 8.1-11.4 12.3s-8.4 9.2-9.5 11.1c-1.2 1.9-4 5.7-6.4 8.5a22.6 22.6 0 0 0-4.2 6.4c0 .7-1 2.5-2 3.9-1.1 1.3-2 2.8-2 3.3s-1.8 3-4 5.7c-2.2 2.6-4 5.6-4 6.7s-1.2 3.7-2.6 5.7a42.7 42.7 0 0 0-4 8l-1.3 4-.7 21.6c-.4 11.8-.7 50.5-.6 86l.1 64.5 1 9.2 1.2 9.3-1 1.6c-.5 1-1.1 1.3-1.4.8zm229-9-.6-1.6 10.2-10.3.3-3.5.3-3.5 8.6-4.7 5.7 2.4 2.1-1.4 2.2-1.3 1.8 2.9-1 1.8c-1 1.8-2.2 2.1-6.9 1.9-1.4 0-4 .7-5.7 1.8-1.8 1.1-4 3.5-4.9 5.3a40.4 40.4 0 0 1-10.7 11.8c-.4 0-1-.7-1.4-1.6zm-60-2.5-.6-2-1.3 1.7c-.7 1-1.7 1.4-2.2 1.1l-1-.6.4-5.6.5-5.5h-5c-2.9 0-5.4-.4-5.7-1-.9-1.3 2.7-3 6.4-3h3v-1.3c0-.8 2.2-5.7 5-11s4.6-9.7 4.4-9.7c-.3 0-1.4.5-2.5 1l-2 1.2-2-2 2.6-2c1.4-1 2.6-2.4 2.6-3 0-1.1-2.4-2.2-4.7-2.2H192l.6 1.5c.9 2.3-1.2 2.8-4 1l-2.6-1.7-7.5 1.2-2.5-3 1.4-.4 5.4-1.6 4-1.2 5.3.6c2.8.3 6.1 1 7.3 1.6 1.1.7 2.2 1 2.4.8a86 86 0 0 0 3-16.8c0-2.5-.3-5-.8-5.7l-1-1.2 1.2-5.2c.6-2.8 3-8.3 5.3-12.3 4.5-7.6 10.2-13.6 13-13.6 1 0 2-.4 2.2-.9.3-.5 4.3-1 8.9-1.3l8.3-.4 3.2-2.4 3.1-2.3 10.4 1.2 4.5-3 7.4.2c4 0 9.5-.2 12.1-.6l4.8-.7 7.3 6 3.6-.6 3.5-.5-.8 1.9c-.4 1-1 2.6-1.2 3.5-.3 1-1.4 2-2.5 2.2-3.2.8-8-1-11-4.3-2.7-3-5.3-3.8-6.3-2.1-1 1.6.5 3.9 3 4.5 1.3.3 2.4 1.1 2.4 1.7v1.1l-3.2-.7c-1.8-.3-7.1-1-11.8-1.4-4.7-.4-9-1-9.7-1.4-.6-.4-1.9-.5-2.7-.1l-1.6.6v5.4l9 2.4v1.5c0 .8-.6 1.5-1.4 1.5s-2.8-.3-4.5-.6l-3.1-.7v-1.3c0-.8-.7-1.4-1.6-1.4s-2 1.1-2.4 2.5c-.6 1.4-1.6 2.5-2.4 2.5-1.7 0-2.8-2.4-2-4.4l.5-1.4-5.1 1v-4l-4.7-.6c-6.8-1-10.4-.8-10.4.5 0 .6.8 2.3 1.8 3.7l2.8 4.7c.6 1 2 2.1 2.9 2.3l1.7.4-.3-1.4c-.2-.7 0-2.6.5-4l.7-2.8h4v2c0 1-.5 2.1-1 2.5-1.6 1-1.2 3.6.7 5l1.7 1.3-1.7 2c-1 1-1.8 2.7-1.7 3.8a88 88 0 0 1-6.3 19.4c-1.7 4.1-3.8 10.2-4.7 13.5s-2 6.7-2.4 7.5c-.4.8-1.7 4.6-3 8.5l-2.4 7-3.5.7.7-3.3c.4-1.8 1.1-4 1.5-4.9 1.9-3.8 3-6.8 4-11 2-7.8 8-27.4 9.5-30.1l1.3-2.7-.9-1.3c-.4-.8-.8-3-.9-5v-3.6l-4.8-4.2-12.2-.5-2 2.2c-1.1 1.1-2 2.5-2 2.9 0 .4.8 1.3 1.8 1.9l1.7 1.1 1.3 5.9c.7 3.2 1.2 8.6 1 11.9l-.3 6h-4l-.1-6.5-.3-10.8-.1-4.2h-2.9l-.6 2.9-1.6 12.7-1.5 13.4a13 13 0 0 1-2.4 5.5c-1 1-2.3 4.3-2.9 7.2s-2.4 7.8-4.1 11l-3 6v4c0 4.9.8 7.5 2 6.7.6-.3.7-1 .4-1.5-.8-1.2 2.4-4.9 4.1-4.9.7 0 1.8-.7 2.5-1.5s2.1-1.5 3.2-1.5h2l-1.6 2.4-1.5 2.4 4.5 4.6c4.3 4.4 4.9 6.6 1.9 6.6-.8 0-3-2-5-4.5-2.1-2.5-4.3-4.5-5-4.5-.7 0-1.6.7-2 1.6a24 24 0 0 0-.5 6v4.4h-1.5c-.8 0-1.7-1-2-2zm31.6-91.2c0-.7-.6-2.2-1.3-3.1l-1.3-1.9-4.4 1.4v4.9h7zm24.5-8.8c-.7-1.2-3.4-1.2-3.4 0 0 1 2.1 2 3.2 1.4.5-.3.5-.9.2-1.4zm21.7-3-2.3-2h-9l.8 2.6 5 .6 6.4.7 1.5.1zM175.5 448l-1.4-.8.6-2a10 10 0 0 1 2.5-3.7l1.8-1.6 3.4 1.3-1.6 1.8c-1 1-1.5 2.5-1.2 3.3l.6 1.4-1.5.6-1.7.6-1.5-.9zm66.2-2-1.2-.7 1.5-2.2c.8-1.2 3.1-2.9 5-3.8l3.5-1.7 2 1.8c1 1 2 2.2 2 2.7s-1 .6-2.4.3l-2.4-.6-1.4 1.4c-2.3 2.3-5.4 3.6-6.6 2.8zm-81.1-.8a4 4 0 0 1-2.8-2.4l-.7-2 1.2-1.4c.7-.8 1.6-1.5 2.1-1.5s.9.7.9 1.5c0 2.2 2.3 1.9 3.8-.5.7-1 1.7-2 2.2-2 1.7 0 1.1 3.6-1 6.4a9.6 9.6 0 0 1-2.8 2.5l-3-.6zm7.7-.1c0-1.4 3.1-7.5 4.8-9.4.8-1 2.1-1.8 2.9-1.8 1.8 0 1.7 2.5-.2 4-.9.8-2.2 2.8-3 4.7l-1.4 3.3H170c-.9 0-1.6-.4-1.6-.8zm57.1-1a14.7 14.7 0 0 1 9.5-6.9l3.8-.8 2-6.9a67 67 0 0 1 3.3-9.7c.8-1.6 2.2-2.9 3-2.9.8 0 1.5.2 1.5.5s-.7 1.6-1.5 2.8c-.7 1.2-2.3 5-3.5 8.6l-2 6.4.6 2.3.6 2.4h-2.5c-1.4 0-4.6 1.1-7.2 2.5-4.8 2.5-7.6 3.2-7.6 1.7zm51.1-.5c0-2 3-5.7 4.5-5.7 2.4 0 2.6 1.7.4 4.4-2.1 2.7-4.9 3.5-4.9 1.3zm14.5.3c-.4-.7-.2-1.7.4-2.3l1.1-1 3.6.9c2 .5 3.7 1.4 3.8 2 0 .5-1.7 1-4 1.2l-4.2.3zm-79.6-5.8c0-1 .6-2.6 1.3-3.6l1.3-1.7 7.9.6.3 1.8.4 1.7h-2c-1 0-2.5.7-3.2 1.5s-2.3 1.5-3.6 1.5h-2.4zm15.4-2.6c-.3-.9-.2-3.3.3-5.3l1-3.8 5.3.4V425c0-1-.4-2.2-1-2.8l-1.1-1 2.5-4 4-5.8 1.5-2 2.5 2.5-2.2 3.9a16.9 16.9 0 0 0-2.2 6c0 1.2-.9 4.2-2 6.7l-2 4.4h-4v1.4c0 2.2-1.9 3-2.6 1.2zm4.3-6.3c-.4-.3-.7 0-.7.7s.3 1 .7.7c.4-.4.4-1 0-1.4zm13.7 6c-.3-.6.7-4 2-7.5s2.7-7 2.7-7.5c0-.6.7-1.6 1.5-2.4l1.6-1.3 1.6 2.6-3 5.5-2.9 5.5.4 2.1.4 2.2 2.3-4.7c1.2-2.7 2.7-4.8 3.2-4.8 1.4 0 1 2.3-.8 4.9l-1.6 2.3 1.4.9a6 6 0 0 0 1.9.9c1 0 2.7-1.6 3.9-3.7.6-1.3 1.6-2.3 2.1-2.3 1.3 0 1.2 3.3-.1 6.4l-1.1 2.4-15-.3zm-77.5-5.3-1.5-1 2.5-2.4 2.4 2.4-2 2zm70.8.3c-.4-.3-.7-1.1-.7-1.7v-1l1.2 1.2c.7.6 1 1.4.7 1.7-.3.3-.8.2-1.2-.2zm2.1-8.8c.3-1.4.9-2.5 1.4-2.5 1 0 1.1 1.2.2 3.4-1 2.5-2.1 1.9-1.6-.9zm-13.8-1.2c0-.5.7-2.6 1.4-4.8l1.4-4 1.6-.3c2-.4 2.1 1.1.4 3-.7.7-1.3 1.9-1.4 2.5l-.2 2.8c-.1.8-.9 1.5-1.7 1.5s-1.5-.3-1.5-.7zm-18-1.6c0-.7.4-1.7.8-2.3s1.4-3.4 2.2-6.5l1.3-5.7-1.4-9.2h1.5c.8 0 1.8.5 2.2 1.2 1 1.6 1.2 11.8.2 12.4-.4.3-.8 2.2-.8 4.3v3.8l-1.8 1.6c-1 1-2.4 1.7-3 1.7-.7 0-1.2-.6-1.2-1.3zm34.8-34-3.9-3.3.7-1.7a4 4 0 0 1 2.5-2.2c2-.7 3-3.4 2.7-7.4-.2-1.3.3-2.6 1-2.8l1.3-.5v2c0 1 .6 2.5 1.5 3.2s1.5 1.8 1.5 2.6-1.4 2.3-3 3.5c-1.7 1.3-3 2.8-3 3.4 0 .7 1 1.7 2.4 2.3l2.5 1.1-.6 1.6c-.3.8-.8 1.5-1.2 1.5a19 19 0 0 1-4.4-3.3zm107.6 2.4-2.5-.7-1.3-4c-.8-2.1-1.3-5.7-1.1-8l.3-4 1 .3c.5.1 1 2 1.2 4.2.2 2.2 1 5.2 1.7 6.7l1.4 2.7-.2-6.4-.1-6.4 3.5-.7v2.5c0 1.3.5 3.8 1 5.6 1.3 3.5.6 7.6-1.3 8.3-.7.3-2.3.2-3.6-.1zM282 366.2a14 14 0 0 1-4.8-2.6c-.7-1.2-.3-5.5.6-6.4.3-.3 1-.2 1.6.2.7.4 1 1.3.6 2l-.5 1.4 11.4 3.8.4 1.6.3 1.7-2.8-.1c-1.6 0-4.7-.8-6.8-1.6zm-145.9-.7c0-.9.8-1.6 1.6-1.6s1.4.5 1.2 1.2c-.6 1.8-2.8 2.1-2.8.4zM.7 359.2c-1.2-1.1-.8-5.3.7-7.6.8-1.2 3.3-8.1 5.5-15.4l4-13.2-.5-4.5-.7-4.6 3.6-18.7-3.6-5.4.7-6.1.6-6.2 3-3.2-.2-5-.2-5 3.7-7.4c2-4 3.7-8 3.7-9 0-.7.7-2.1 1.4-3 .8-.8 3.3-6.3 5.6-12a65.5 65.5 0 0 1 8-15.5c0-.5 1.7-2.9 3.8-5.4s4.7-6 5.9-7.6a124 124 0 0 1 10.3-11l14-13.7a50 50 0 0 1 8.9-7.3c1.8-.9 4.7-2.9 6.5-4.4a48 48 0 0 1 6.7-4.8c2-1 5.7-3.6 8.4-5.6a23 23 0 0 1 6.3-3.8c.8 0 2.2-.4 3.2-1s6-2.8 11.2-5a93.7 93.7 0 0 0 10.8-5.2c.7-.6 1.2-1.6 1.2-2.4V139l-7.8 4-9.3-.6-5.2-12.8 1-1.6c.6-.9 1.8-1.7 2.7-2 1 0 2.3.3 3 .9.8.6 2.3 3.4 3.2 6 1 2.8 2.3 5 2.8 5s2.8-.8 5-1.8a77 77 0 0 1 14.6-5.2 35 35 0 0 0 9.5-4.8c2.8-2 6.7-4.5 8.8-5.4 2-.9 4.5-2.9 5.5-4.3l5-6.5c1.9-2 3.3-4.2 3.3-4.7s1-1.8 2-2.8c2.4-2.1 10.5-15 11.5-18.2l.7-2.3h2.4c1.4 0 2.5.4 2.5.9s-.7 2.4-1.4 4.2l-1.4 3.4.5 3.2.5 3.1-4.3 6.4a63.5 63.5 0 0 1-7.9 9.5c-2 1.8-4.4 3.3-5.5 3.3-1 0-4.2 2.2-7.1 4.8-6.1 5.6-11.3 9.7-17.5 13.9a353.5 353.5 0 0 1-36.5 20.8c-3.2 2-6.3 3.5-6.8 3.5a24 24 0 0 0-5.8 4 21 21 0 0 1-6.2 4c-.7 0-3.3 1.9-5.8 4-2.5 2.2-5.1 4-6 4-.7 0-8.6 7.3-17.4 16.2-14.4 14.6-19.7 21-24.8 30.3a449.5 449.5 0 0 0-15.5 32c-2.1 5-4.2 9.5-4.6 10.1-1.5 2-2.7 14.8-2.8 31.5a155.5 155.5 0 0 1-7.2 50c-.7 3-2.7 7.5-4.4 10a19.8 19.8 0 0 1-4.1 4.7c-.6.2-1.3 0-1.7-.4zm178.5-250.1c.7-1.3.8-2.3.4-2.3a20 20 0 0 0-5.3 7.4c0 1.1 3.6-2.6 5-5.1zm131.4 222c0-1 .6-2.7 1.4-3.8l1.5-2v6.4l-3 1.1V331zm-3.8-62a12 12 0 0 1-1.2-3.8c0-.7.6-1.5 1.4-1.8l1.4-.5.6 1.5c.8 2.2.7 7.4-.2 7.4-.4 0-1.3-1.3-2-2.7zm29.4-41.8c-1.1-3-.6-6.6 2-11.5l2.5-5h1.5c.8 0 1.4.5 1.4 1s-1 3-2.5 5.6c-1.3 2.6-2.5 6-2.5 7.5 0 3.2-1.5 4.7-2.4 2.4zm15.8-.9-.6-1.6 1.9-1.4c1-.8 3.4-1.7 5.3-2l3.3-.7 2.1 2-1.2 1.5c-.7.8-2.4 1.6-4 1.9-1.4.3-3.4.8-4.4 1.2l-1.7.8zm-10.4-3.4c0-2.1 1.3-4.2 2.6-4.2h1.4l-.8 2.2c-.9 2.3-3.2 3.8-3.2 2zm3-29v-2l3.6-1.6c2-1 4.3-1.5 5.2-1.4.9.2 1.8 1 2 1.6l.4 1.3-4.3 2c-2.4 1-5 2-5.6 2-.7 0-1.3-1-1.3-2zm-23.6-8.6c.4-2.1 1.4-5 2.3-6.2.8-1.3 2.4-2.4 3.4-2.4s2 .3 2 .6c0 .4-1.2 2-2.6 3.6-1.4 1.7-2.5 3.6-2.5 4.3s-.7 2-1.7 2.7l-1.6 1.3zm-169.7-72.1c0-2.4 5.2-8.5 7.2-8.5h1.8v1.7c0 .9-1.2 3.1-2.6 5l-2.5 3.3h-4zM163.9 94c-.3-.5 0-1.7.8-2.7l1.3-1.8 1.2.7 1.1.7-1 2c-1.1 2-2.5 2.5-3.4 1zm67.9-28.7-.6-1.5 4.4-5.6c5.7-7.3 13.6-19 14.4-21.4.7-2.3 5.1-6 7.1-6s1.7 3.4-.6 5.5c-1.1 1-2 2.3-2 3 0 .6-1.4 3-3 5s-3 4.6-3 5.3a31 31 0 0 1-5.9 7.5 50 50 0 0 0-6.5 8c-.7 2.1-3.5 2.3-4.3.2zm67.4-40.2c-1.4-1.4-.5-6 1.9-9.5 1.3-2 2.5-4.4 2.5-5.2 0-.8 1-2.7 2.3-4.2l2.4-2.7 3.5 1.3-.6 5-.7 5-2.4 3.8c-1.3 2-3.1 4.5-4 5.4-1.6 1.8-3.7 2.3-4.9 1.1z"/>
</svg>
