<?xml version="1.0" encoding="utf-8"?>
<svg xmlns="http://www.w3.org/2000/svg" version="1.1" viewBox="0 0 390 365">
	<title>Sketch of a hillside. On the bottom left is a river, halfway up on a flat area is a tower. Another structure of some kind is on a further hillside behind and to the left.</title>
	<path d="m116.17 364.06c-1.2127-0.77072-1.2732-1.3332-0.31016-2.8863 1.4694-2.3696 0.78985-3.1486-2.7469-3.1486-1.4973 0-3.2849-0.67721-3.9724-1.5049-0.68757-0.8277-2.0244-1.5049-2.9708-1.5049s-3.3434-1.8059-5.3267-4.0131c-1.9833-2.2072-4.3281-4.0131-5.2106-4.0131s-2.0713-1.2262-2.6417-2.725c-0.77817-2.0448-1.248-2.384-1.8822-1.3587-1.1408 1.844-4.0605 0.59488-4.0605-1.7372 0-2.7904-0.71519-3.0684-5.0588-1.967-3.1519 0.79928-4.6758 0.66332-7.4832-0.66763-4.3219-2.049-4.8126-4.881-0.76377-4.408 2.3622 0.27596 2.8075-0.0764 3.0793-2.4364 0.35281-3.0633 3.197-3.8815 3.197-0.91967 0 2.7229 0.90304 3.1704 3.866 1.9161 4.2855-1.8143 5.044-3.0423 1.4061-2.2765-4.5752 0.96313-4.0628-0.68253 1.0042-3.2256 2.4355-1.2223 3.4982-2.1687 2.4752-2.2042-0.98598-0.0342-2.9788 0.71423-4.4286 1.6632-2.4308 1.5912-2.7165 1.5978-3.6717 0.085-0.95213-1.508-1.3649-1.512-5.1114-0.0487-2.2416 0.8755-5.9646 2.8689-8.2734 4.4297-5.1494 3.4813-8.1347 3.564-11.223 0.31091-3.0626-3.2257-2.3332-4.8476 3.0311-6.7399 10.212-3.6024 22.695-9.3304 26.102-11.977 4.3686-3.3941 4.2219-5.1503-0.85329-10.221-3.5689-3.5656-14.026-9.3394-15.054-8.3122-1.4086 1.4073 0.84997 3.6592 3.6701 3.6592 3.2342 0 7.061 2.9905 7.061 5.518 0 0.82769 0.69202 1.5049 1.5378 1.5049 1.8328 0 2.9594 2.4249 1.9126 4.117-0.54577 0.88225-1.0714 0.75645-1.9702-0.47149-1.1142-1.5223-1.3735-1.4496-2.8482 0.79896-0.99385 1.5154-1.2377 2.7113-0.62934 3.0869 1.9551 1.2072 0.94088 2.5013-1.9603 2.5013-4.1186 0-4.737-1.7034-1.7596-4.847 3.7874-3.9988 4.1444-8.7872 0.57072-7.6541-1.2978 0.41153-2.4414 0.17931-2.919-0.59272-0.61521-0.9945-1.6208-0.87148-4.6446 0.56822-5.1552 2.4545-10.727 3.7395-17.416 4.0164-3.0377 0.12573-6.201 0.48841-7.0295 0.80595-3.363 1.289-14.03 2.3143-14.912 1.4333-0.55858-0.55806-1.7579-0.0228-3.0475 1.3602-1.5822 1.6967-3.473 2.3605-7.3876 2.5935-2.8936 0.1722-6.6888 0.78383-8.4337 1.3592-5.4894 1.81-10.282-0.59669-8.8112-4.425 0.60494-1.575 4.7236-3.6473 7.249-3.6473 0.94496 0 3.8367-1.1267 6.426-2.5039 3.5884-1.9085 5.2712-2.2899 7.0769-1.604 1.7403 0.66104 2.9691 0.44761 4.6302-0.80417 2.2279-1.679 2.2369-1.7755 0.61094-6.5602-1.8215-5.3602-0.89855-7.1858 3.0422-6.017 5.5871 1.6571 6.5274 1.6642 6.5274 0.0491 0-0.89208-0.67784-1.6219-1.5063-1.6219-1.8094 0-1.9426-1.1694-0.318-2.7924 2.4951-2.4928-0.32148-2.3997-4.159 0.13744-4.7453 3.1374-4.5142 3.1048-6.993 0.98439-1.6142-1.3809-1.8532-2.5118-1.3779-6.5212 0.48432-4.0855 0.31143-4.8507-1.096-4.8507-0.91907 0-2.0811-1.0775-2.5823-2.3945-1.2839-3.3737-5.799-7.6382-8.0872-7.6382-4.2036 0-4.1954-5.7497 0.0103-7.2262 2.0264-0.71141 5.021 0.92681 5.021 2.7468 0 0.80829 0.6078 1.4696 1.3507 1.4696 1.9064 0 4.654 3.2872 5.5522 6.6429 0.56948 2.1274 1.3784 2.8508 3.2057 2.8668 1.5584 0.0137 2.8032 0.83933 3.4353 2.2788 1.499 3.4134 7.3259 2.4604 6.0037-0.982-1.045-2.7206 1.3742-2.9636 3.1128-0.31267 0.91316 1.3923 2.0619 2.2835 2.5528 1.9804 1.2074-0.7455 5.8458 4.6443 5.8855 6.8388 0.0395 2.1839 1.9369 2.2803 3.4766 0.17663 0.97625-1.3338 1.5834-1.3844 3.9096-0.32554 2.4822 1.1299 2.9147 1.024 4.3854-1.0738 2.1642-3.087 6.9807-7.6562 13.253-12.572 2.8159-2.2072 5.3794-4.8032 5.6966-5.7688 0.31721-0.96564 0.97813-1.7557 1.4687-1.7557 0.49056 0 2.418-1.0346 4.2832-2.2992 2.5621-1.737 3.1609-2.6641 2.449-3.7916-1.209-1.9149 1.5357-8.7348 3.8765-9.6323 0.92658-0.35523 2.564-0.0972 3.6388 0.57334 1.2262 0.76503 2.3924 0.87416 3.1306 0.29297 0.64712-0.50943 2.4193-1.15 3.9382-1.4234 2.1752-0.39158 2.7616-0.1132 2.7616 1.311 0 0.99452-0.45189 2.0872-1.0042 2.4283-0.55231 0.34103-1.0042 1.4697-1.0042 2.5082 0 2.6686-2.0832 3.6305-3.543 1.6359-0.97913-1.3378-1.7672-1.4764-3.8645-0.67974-1.449 0.5504-2.6346 1.6197-2.6346 2.3763 0 3.0624-3.6954 8.5442-9.8057 14.546-3.5506 3.4874-6.2156 6.5805-5.9222 6.8736 0.29333 0.29304 1.8056-0.67666 3.3606-2.1549 3.4031-3.235 5.7464-4.2468 10.855-4.6865 5.2512-0.45199 5.4898 1.332 0.64348 4.8123-2.19 1.5727-4.4449 3.6004-5.011 4.5061-0.86042 1.3764-0.66841 1.5596 1.1702 1.1161 1.2097-0.29178 3.1033-1.3346 4.2079-2.3173 2.4716-2.1989 9.54-3.7026 9.54-2.0295 0 0.63054-0.67784 1.358-1.5063 1.6166-0.82847 0.25858-2.2971 0.76575-3.2637 1.127-1.6689 0.62384-1.6683 0.67815 0.0122 1.0792 0.97331 0.23226 1.5115 0.8396 1.196 1.3496-1.57 2.5379 2.8178 0.44015 6.4544-3.0857 3.9834-3.8622 7.1494-5.17 7.1494-2.9532 0 1.2326-9.9453 10.979-11.203 10.979-0.4661 0-0.84746 0.50022-0.84746 1.1116s-2.3652 3.565-5.2559 6.5636c-6.1608 6.3906-7.4731 8.3771-5.5341 8.3771 0.74818 0 3.7079-2.4745 6.5772-5.4988 2.8693-3.0244 6.4596-5.7968 7.9785-6.161 1.5189-0.3642 3.5701-1.5015 4.5582-2.5273 0.98806-1.0258 2.2041-1.8651 2.7023-1.8651 1.9023 0 1.9005 1.8113-4e-3 3.5328-1.0911 0.98697-1.9842 2.5372-1.9842 3.4449 0 2.1712-1.9612 4.0582-4.2177 4.0582-2.4541 0-2.2756-1.5653 0.39131-3.4315 1.2094-0.84629 1.9934-1.744 1.7424-1.9948-0.25109-0.25085-1.5195 0.34499-2.8188 1.3241-3.2066 2.4165-2.1573 5.6511 2.1098 6.5038 2.6374 0.52698 3.6997 0.12382 6.2944-2.3887 1.7168-1.6625 3.6649-3.0227 4.329-3.0227 2.0295 0 1.3478 2.526-1.3031 4.8288-1.3808 1.1995-2.5105 2.8841-2.5105 3.7436 0 0.85951-1.4778 2.1796-3.2841 2.9336-1.8062 0.75398-4.1358 2.3111-5.1767 3.4602-1.0409 1.1491-2.7264 2.0894-3.7454 2.0894-1.9384 0-2.1941 1.5737-0.96833 5.96 0.64808 2.3192 1.1392 1.9837 9.2912-6.346 7.4728-7.6356 9.1559-8.8681 12.772-9.3527 5.6654-0.75919 5.3994 1.0498-0.60445 4.1103-2.6235 1.3373-6.0844 3.8147-7.691 5.5052-3.0742 3.2349-3.1633 3.0208 1.9168 4.6064 2.1184 0.66119 1.8723 3.2495-0.5021 5.2806-2.0882 1.7863-2.7833 6.2884-0.97083 6.2884 0.57068 0 3.1691-1.0668 5.7742-2.3708 6.7369-3.372 15.104-5.2354 16.617-3.7008 1.7092 1.7329-1.8337 4.0511-6.2984 4.1211-1.9656 0.0308-5.5298 0.84916-7.9204 1.8185-3.6958 1.4986-4.1204 1.9499-2.8361 3.0148 0.83074 0.6888 2.3348 1.112 3.3423 0.94048 1.2288-0.20921 1.9318 0.38787 2.1355 1.8138 0.2059 1.4416-1.2484 3.6785-4.5189 6.9508-4.5822 4.5848-4.3952 5.1684 0.95164 2.9692 3.5048-1.4415 1.7979 2.7147-2.7616 6.7244-5.3186 4.6772-6.0015 7.3603-1.6522 6.4913 3.7377-0.74684 7.1754 1.6421 7.1754 4.9864 0 2.4567 0.18992 2.5323 5.5245 2.2005 4.7509-0.29554 5.5243-0.0943 5.5232 1.4369-7.5e-4 0.98741-1.1488 2.2164-2.5773 2.759-3.2826 1.2469-11.524 1.241-13.491-0.01zm-3.4236-21.829c-0.69642-0.69576-2.6016 0.71789-2.6016 1.9304 0 0.66527 0.57619 0.58915 1.5306-0.20218 0.84182-0.69799 1.3238-1.4757 1.071-1.7282zm-13.808-8.4014c2.093-3.3483 0.5904-3.3049-1.8022 0.0521-1.2489 1.7523-1.6084 2.8407-0.8411 2.5466 0.73704-0.28256 1.9265-1.4519 2.6433-2.5986zm-4.3591-0.8862c0.34135-0.5518 0.14207-1.0033-0.44284-1.0033s-1.0635 0.45147-1.0635 1.0033 0.19927 1.0033 0.44283 1.0033 0.72213-0.45147 1.0635-1.0033zm15.063-2.0065c0.34136-0.5518 0.16874-1.0033-0.38357-1.0033-0.55232 0-1.2835 0.45147-1.6248 1.0033-0.34135 0.55179-0.16874 1.0033 0.38358 1.0033 0.55231 0 1.2835-0.45147 1.6248-1.0033zm-15.063-4.0131c0.34135-0.5518-0.0838-1.0033-0.94494-1.0033-0.86107 0-1.5656 0.45147-1.5656 1.0033s0.42522 1.0033 0.94494 1.0033c0.51971 0 1.2242-0.45147 1.5656-1.0033zm-8.107-4.5362c3.1647-2.392 0.9386-2.9154-2.6462-0.62215-2.6173 1.6744-2.8875 2.1117-1.2974 2.0998 1.1046-8e-3 2.8792-0.6732 3.9435-1.4776zm-5.4498-2.4866c0-0.5518-0.19927-1.0033-0.44283-1.0033s-0.72213 0.45147-1.0635 1.0033-0.14207 1.0033 0.44284 1.0033 1.0635-0.45147 1.0635-1.0033zm15.12-17.306c1.7616-2.1097 2.5744-4.7655 1.4584-4.7655-0.54776 0-6.5361 6.1111-6.5361 6.67 0 1.2804 3.521-0.0402 5.0777-1.9045zm-50.267-3.2606c0-0.82769-0.17761-1.5049-0.39467-1.5049-0.21707 0-0.65477 0.67721-0.97269 1.5049-0.31792 0.8277-0.14031 1.5049 0.39466 1.5049 0.53498 0 0.9727-0.67721 0.9727-1.5049zm38.16-5.0756c0-0.86027-0.45189-1.2851-1.0042-0.94406-0.55231 0.34103-1.0042 1.0449-1.0042 1.5641s0.4519 0.94405 1.0042 0.94405c0.55232 0 1.0042-0.70385 1.0042-1.5641zm-4.0168-2.1784c0-2.2622-2.9616-5.2869-5.1767-5.2869-1.3471 0-1.8528-0.74531-1.8528-2.7307v-2.7307l-4.7692 6.9536 2.1335 1.5026c3.4968 2.4628 8.1058 4.6762 8.9119 4.2799 0.41423-0.20368 0.75316-1.0982 0.75316-1.9878zm9.5059-2.9646c3.4995-1.6672 4.5178-3.6122 2.5328-4.8378-1.2339-0.76189-6.8843 3.5188-6.9621 5.2745-0.0714 1.6119 0.18197 1.5869 4.4293-0.43663zm-27.171-3.4628c-0.21396-0.35132 0.28386-1.1967 1.1062-1.8786 1.2158-1.008 1.4953-0.94659 1.4953 0.32875 0 3.5194 2.0475 2.4456 4.2991-2.2546 2.4432-5.1002 2.0481-5.4075-2.1572-1.678-2.1723 1.9265-2.4695 1.9649-3.4505 0.44604-0.95543-1.4794-1.3849-1.3289-3.9074 1.369-1.9331 2.0675-3.4699 2.8649-4.8343 2.5084-1.9655-0.5135-2.6456 0.31695-1.3333 1.628 0.84498 0.84419 9.3066 0.39227 8.7821-0.46903zm22.184-0.86613c0.34135-0.5518 0.16874-1.0033-0.38357-1.0033-0.55232 0-1.2835 0.45147-1.6248 1.0033s-0.16874 1.0033 0.38357 1.0033c0.55232 0 1.2835-0.45147 1.6248-1.0033zm-58.244-2.0065c0.34135-0.5518 0.16874-1.0033-0.38357-1.0033-0.55232 0-1.2835 0.45147-1.6248 1.0033s-0.16874 1.0033 0.38357 1.0033c0.55232 0 1.2835-0.45147 1.6248-1.0033zm50.921-3.2606c0.87828-0.68975 1.9285-2.3828 2.3338-3.7623l0.73695-2.5082-2.2349 1.9953c-4.2128 3.7612-4.9442 7.5016-0.8359 4.2751zm4.8123-0.75245c0-0.5518-0.19927-1.0033-0.44283-1.0033s-0.72213 0.45147-1.0635 1.0033c-0.34135 0.55179-0.14208 1.0033 0.44284 1.0033 0.58491 0 1.0635-0.45147 1.0635-1.0033zm-13.557-4.0131c0.34135-0.5518-0.33649-1.0033-1.5063-1.0033-1.1698 0-1.8477 0.45147-1.5063 1.0033s1.0192 1.0033 1.5063 1.0033c0.48712 0 1.165-0.45147 1.5063-1.0033zm15.565-3.0098c0-0.5518-0.42522-1.0033-0.94494-1.0033s-1.2242 0.45147-1.5656 1.0033c-0.34135 0.55179 0.0838 1.0033 0.94494 1.0033 0.86107 0 1.5656-0.45147 1.5656-1.0033zm-49.601 80.681c-0.83658-2.178-0.73971-7.7 0.15899-9.063 1.117-1.6939 4.9934-2.6267 5.7608-1.3862 0.37019 0.59841 0.084 1.7972-0.63608 2.664-1.106 1.3314-0.94636 1.8694 1.029 3.4675 1.286 1.0404 3.1919 1.8915 4.2353 1.8915 1.0434 0 1.8972 0.61584 1.8972 1.3685 0 0.86753-1.7056 1.6021-4.6591 2.0065-6.5631 0.89872-7.1016 0.83309-7.7861-0.94897zm-22.2-29.514c-1.0574-1.7093 0.48686-3.0098 3.574-3.0098 3.3762 0 3.868 1.4469 1.011 2.9745-2.4424 1.3059-3.7925 1.3163-4.585 0.0353zm9.54-2.0423c-1.2855-0.86051-1.1588-1.2994 0.86441-2.9944 2.88-2.4128 7.0008-2.5889 7.866-0.33617 1.2403 3.2292-5.2073 5.6889-8.7304 3.3306zm16.82-0.35758c-0.96655-0.73303-1.7574-1.9959-1.7574-2.8064 0-1.7595 9.3565-6.3714 10.941-5.393 0.60824 0.37557 2.111-0.0205 3.3395-0.88018 2.4326-1.7022 5.8036-2.0944 5.8036-0.67514 0 1.5045-4.8265 4.1401-6.4452 3.5195-0.84118-0.32248-2.7854 0.42205-4.3205 1.6545l-2.7911 2.2408 4.2541-0.64957c2.3397-0.35727 5.8362-1.4034 7.77-2.3246 3.5841-1.7076 5.8328-1.1971 3.7766 0.85721-1.493 1.4916-14.052 5.8625-16.727 5.8216-1.1476-0.0176-2.8774-0.63165-3.8439-1.3647zm27.862-4.6301c-0.34376-0.5557 0.10096-1.2887 0.98826-1.6288 1.9227-0.73713 2.9943 0.0751 2.07 1.5692-0.83388 1.348-2.2443 1.3755-3.0583 0.0597zm50.184-1.0468c-0.83634-1.352 2.0204-2.6947 6.8256-3.2082 5.2607-0.56214 7.1648 0.7533 4.2124 2.9101-1.8936 1.3833-10.227 1.6084-11.038 0.29804zm-51.183-3.9625c0.34135-0.5518 1.0725-1.0033 1.6248-1.0033 0.55232 0 0.72493 0.45147 0.38358 1.0033s-1.0725 1.0033-1.6248 1.0033-0.72493-0.45147-0.38358-1.0033zm65.274-15.049c-1.1458-1.8522 0.49158-3.086 2.5996-1.9589 1.0866 0.58097 1.7103 1.4851 1.3861 2.0092-0.77436 1.2518-3.1991 1.2212-3.9857-0.0504zm8.5358-4.4412c0-0.93066 0.8586-1.5785 2.0921-1.5785 2.4473 0 2.1014 2.3444-0.41795 2.8326-0.99091 0.192-1.6742-0.3198-1.6742-1.2541zm-7.0294-6.0932c0-1.1315 0.70478-1.5445 2.2595-1.3239 1.2427 0.17632 2.2595 0.77206 2.2595 1.3239s-1.0168 1.1475-2.2595 1.3239c-1.5547 0.22059-2.2595-0.19236-2.2595-1.3239zm-17.846-4.7028c0.62067-1.8603 2.7825-2.1688 2.7825-0.39712 0 0.87367-0.7155 1.5885-1.59 1.5885s-1.4111-0.53612-1.1925-1.1914zm-3.6798-8.7362c-0.67165-1.0857 2.2469-2.3527 3.5567-1.544 0.51148 0.31582 0.66999 0.99449 0.35222 1.5082-0.73567 1.1892-3.1815 1.2116-3.9089 0.0358zm7.8799-2.4826c-0.81507-2.122 2.5578-5.9757 6.7475-7.7096 3.7598-1.5559 5.1275-0.25805 2.0146 1.9118-1.3052 0.90973-3.6604 2.9774-5.2338 4.5948-2.5085 2.5785-2.943 2.7267-3.5283 1.203zm-24.514-8.6223c0-2.0744 6.7243-7.3659 8.2014-6.4538 1.3776 0.85059 0.98055 1.882-2.0147 5.2337-3.2349 3.62-6.1867 4.2021-6.1867 1.2201zm24.462-8.5699c-0.86028-2.2397 4.8552-8.0434 7.0809-7.1902 2.4806 0.95102 1.9282 2.2501-2.42 5.6907-3.4718 2.7471-4.1036 2.9504-4.6608 1.4995zm-15.424-2.3794c0-2.0665 2.6794-4.8033 3.7021-3.7815 0.87079 0.86998-1.3946 5.6652-2.6764 5.6652-0.56416 0-1.0257-0.84766-1.0257-1.8837zm9.3553-6.0415c-0.30615-1.1696-1.3669-2.1075-2.3837-2.1075-4.1081 0-3.3857-4.179 1.0389-6.01 1.5648-0.64756 3.9002-1.0275 5.1897-0.84431 3.0027 0.42657 3.658 3.4039 0.90738 4.1225-1.3907 0.36333-2.057 1.3611-2.057 3.0803 0 3.2484-1.969 4.5335-2.6952 1.759zm29.809 0.40069c0-0.8277 0.67784-1.5049 1.5063-1.5049s1.5063 0.67721 1.5063 1.5049c0 0.82769-0.67785 1.5049-1.5063 1.5049s-1.5063-0.67721-1.5063-1.5049zm7.0295-0.48252c0-1.2929 0.89367-2.2115 2.5573-2.6287 3.1324-0.78546 3.8509-0.17651 2.9899 2.5339-0.90198 2.8392-5.5472 2.9185-5.5472 0.0947zm-14.394 0.3153c-1.5245-1.523-0.52187-3.3442 1.841-3.3442 2.8035 0 3.4618 2.4304 0.92208 3.4041-1.9668 0.75403-1.948 0.75445-2.7631-0.0599zm23.432-3.2214c0-1.3837 2.2567-2.8177 5.2961-3.3651 3.427-0.61726 4.7026 1.0624 2.197 2.8928-2.0601 1.505-7.493 1.8474-7.493 0.47228zm10.683-0.62448c-0.83954-2.1858 0.25078-4.3439 2.5654-5.0778 2.9974-0.95046 4.4212 0.9615 3.0139 4.0473-1.2742 2.794-4.6617 3.4196-5.5793 1.0305zm-72.748-4.2639c0.28704-4.4691 0.49345-4.7866 3.3187-5.1051 3.7962-0.42791 5.5232-1.8352 5.5232-4.5009 0-2.0363 14.232-16.73 16.205-16.73 0.50407 0 1.3546-1.1513 1.8901-2.5584 0.53656-1.4099 2.246-3.0015 3.8082-3.5456 1.9653-0.68447 3.7378-2.6986 5.78-6.5676 2.4272-4.5988 3.652-5.8255 6.9622-6.9736 2.2093-0.76628 5.0727-1.4 6.3633-1.4083 1.5221-0.01 4.3254-2.0418 7.9795-5.7839 3.0982-3.1728 6.3572-6.2203 7.2422-6.7721 0.88504-0.5518 3.0325-1.901 4.7721-2.9983s3.6285-3.016 4.1976-4.2639c0.56909-1.2479 1.8929-2.2689 2.9417-2.2689 2.2501 0 3.6513-1.5614 4.5018-5.0163 0.85555-3.4756 6.3581-9.0933 8.2111-8.3829 2.0527 0.78698 1.8666 2.3357-0.59546 4.954-1.1473 1.2201-2.6435 4.4095-3.3248 7.0875-1.012 3.9778-1.6872 4.9296-3.6882 5.1994-2.7694 0.37334-5.4096 2.8776-9.425 8.9395-2.264 3.4179-3.4033 4.2197-6.3528 4.4704-2.7842 0.23675-3.9652 0.97761-5.2416 3.2882-2.1961 3.9757-9.6013 8.377-14.261 8.4761-3.9341 0.0837-6.8353 2.7896-6.8353 6.3753 0 2.0671-4.9809 8.7498-6.5274 8.7575-0.55231 3e-3 -2.3599 1.0922-4.0168 2.421l-3.0126 2.416 2.7616 0.6976c2.5682 0.64875 3.9989 3.4899 1.7574 3.4899-0.55231 0-1.0042 0.6772-1.0042 1.5049s-0.87711 1.5049-1.9491 1.5049c-1.072 0-2.2295 0.45313-2.5721 1.007-0.3426 0.55383-1.6829 0.74118-2.9784 0.41633-1.2955-0.32485-3.3336-0.0676-4.5291 0.5716-3.7926 2.0279-14.366 14.036-12.392 14.073 1.6596 0.031-2.2509 1.961-4.0035 1.9758-1.5373 0.013-1.7659-0.70793-1.5063-4.7502zm23.403-19.313c-0.34135-0.5518-1.0459-1.0033-1.5656-1.0033s-0.94494 0.45147-0.94494 1.0033 0.70451 1.0033 1.5656 1.0033 1.2863-0.45147 0.94494-1.0033zm18.076 20.065c-0.84828-1.3713 0.2995-3.0098 2.1084-3.0098 0.81824 0 2.7821-0.95612 4.3642-2.1247 3.1824-2.3506 6.0635-1.778 3.9365 0.78244-1.1086 1.3346-8.0952 5.3553-9.3056 5.3553-0.26558 0-0.76214-0.45147-1.1035-1.0033zm38.193-2.9568c-0.88294-1.4273 0.24301-3.0628 2.1086-3.0628 0.87983 0 1.3838 0.70486 1.196 1.6726-0.39116 2.015-2.3962 2.8585-3.3046 1.3902zm-41.038-2.7284c-1.2334-1.2323-0.69098-2.2728 2.8751-5.5148 1.9495-1.7724 4.8827-5.3951 6.5181-8.0505 2.8078-4.5589 5.1699-5.9858 6.4591-3.9017 0.97656 1.5786-3.5142 8.3772-8.8317 13.37-5.1903 4.8737-5.8548 5.2614-7.0206 4.0967zm-13.724-1.6647c0-2.0107 3.3435-4.6893 5.8533-4.6893 1.5222 0 2.1804 0.61526 2.1804 2.038 0 2.078-0.42697 2.3546-5.2721 3.4153-1.9587 0.42877-2.7616 0.20666-2.7616-0.76398zm59.586-1.2453c-0.89997-2.3431 0.95635-3.61 6.1459-4.1944 4.1652-0.46903 4.8018-0.88793 6.1126-4.0222 0.80475-1.9242 1.4668-4.2336 1.4713-5.1318 4e-3 -0.89827 2.4937-4.337 5.5316-7.6416 3.0379-3.3046 5.7757-6.8024 6.084-7.773 0.62276-1.9603 3.9952-3.1154 7.6051-2.6049 3.0003 0.4243 3.0947 3.2397 0.12271 3.6617-1.2314 0.17484-3.1198 1.5538-4.1963 3.0643-1.0766 1.5105-4.0344 4.9792-6.5729 7.7082-3.7021 3.9799-4.5678 5.5849-4.3743 8.1102 0.3296 4.3022-1.2921 5.8923-8.4844 8.3189-7.3828 2.4909-8.6562 2.5589-9.4453 0.50452zm-48.539-14.821c0-0.73912 1.1297-1.8581 2.5105-2.4867 1.3808-0.62853 2.5105-1.5884 2.5105-2.133 0-1.811 6.0634-7.2188 7.7315-6.8956 2.6823 0.51979 2.6632 2.7421-0.0323 3.766-1.3784 0.52358-2.7976 1.869-3.1536 2.9899-1.263 3.9755-9.5666 8.1065-9.5666 4.7593zm23.348-2.4006c-7.6052-0.68435-4.7046-3.7026 4.6951-4.8854 1.3396-0.16856 3.3731-1.3871 4.5189-2.7079s3.9126-2.9641 6.1485-3.6518c7.7015-2.3688 8.7139-4.1224 9.4466-16.363 0.11876-1.9839 4.0854-0.47416 5.2718 2.0065 0.74448 1.5567 2.3 2.8987 3.5695 3.0796 3.2716 0.46615 2.8007 3.4028-1.0041 6.2628-6.4111 4.8189-13.275 8.9673-14.838 8.9673-2.257 0-4.0005 2.0293-4.0005 4.6562 0 2.9455-1.4429 3.7398-3.9509 2.175-1.5973-0.99659-2.2836-1.0038-3.2543-0.034-0.67656 0.67594-1.4786 1.1501-1.7824 1.0537-0.30377-0.0964-2.4729-0.3481-4.8202-0.55933zm51.277-18.958c-0.77592-2.0201 3.3752-5.4971 6.1349-5.1386 3.2563 0.42298 2.8548 2.404-0.94066 4.6413-4.3381 2.5571-4.4007 2.5631-5.1942 0.49729zm7.3421-8.939c-0.6468-1.684 1.6385-3.0503 3.3423-1.9983 0.57877 0.35736 1.0523 1.3003 1.0523 2.0954 0 1.9356-3.6447 1.855-4.3946-0.0972zm-21.2-2.4495c-0.75065-1.2135 1.1961-5.0371 2.5646-5.0371 1.6537 0 2.2535 2.9303 0.92674 4.5275-1.436 1.7286-2.6294 1.9028-3.4913 0.5096zm-9.5528-1.024c0-0.5518 0.67784-1.0033 1.5063-1.0033s1.5063 0.45147 1.5063 1.0033-0.67784 1.0033-1.5063 1.0033-1.5063-0.45147-1.5063-1.0033zm35.252-0.91738c-1.945-1.2304-0.6127-4.099 1.9037-4.099s3.8487 2.8686 1.9037 4.099c-0.77088 0.48766-1.6275 0.88665-1.9037 0.88665s-1.1328-0.39899-1.9037-0.88665zm-32.239-3.1948c0-3.2051 5.6263-7.927 9.4454-7.927 1.7642 0 3.75-0.54177 4.4127-1.2039 0.82681-0.82604 1.5297-0.87955 2.2394-0.17049 0.70973 0.70906 0.12272 2.0766-1.8702 4.3571-2.323 2.6581-3.4506 3.2194-5.6315 2.8029-2.1702-0.41448-2.9489-0.0341-3.8142 1.8632-1.376 3.0172-4.7817 3.2154-4.7817 0.27832zm38.821-2.585c-0.36341-0.36308-0.66076-1.4878-0.66076-2.4995 0-2.168 2.5521-2.4788 3.3476-0.40777 0.60151 1.566-1.6216 3.9715-2.6868 2.9072zm3.5394-7.0978c0.1818-0.96565 1.3447-2.2014 2.5842-2.7461 1.2395-0.54469 2.2536-1.3172 2.2536-1.7166 0-1.2714 4.2863-4.7696 5.1731-4.222 1.7545 1.0833 0.7437 3.8217-2.6128 7.0784-3.7848 3.6724-7.9576 4.5783-7.398 1.6063zm-23.071-0.50164c-1.3818-1.6647 3.247-7.2017 5.3473-6.3965 2.1508 0.82457 1.8272 5.3841-0.46936 6.612-2.5389 1.3575-3.6115 1.3101-4.8779-0.21552zm-15.272-4.8325c0-1.7502 5.1697-7.9858 6.1295-7.3932 1.3013 0.80348-2.9015 8.4634-4.6436 8.4634-0.81725 0-1.4859-0.48159-1.4859-1.0702zm-27.759-0.90898c-2.997-1.2346-5.7073-5.2245-4.1867-6.1634 1.9728-1.2181 10.356 2.6384 10.356 4.7641 0 2.1247-2.8428 2.7695-6.1688 1.3993zm54.873-3.2055c0-1.873 5.179-4.848 8.4397-4.848 2.0588 0 2.6066-0.49035 2.6066-2.3333 0-2.953 3.5789-6.2811 7.687-7.1482 5.0166-1.0589 4.8563 0.96903-0.48861 6.1831-2.7081 2.6418-5.1106 5.4094-5.3389 6.1501-0.22827 0.74073-1.9827 1.4949-3.8988 1.6759s-4.7265 0.64338-6.2454 1.0275c-2.0312 0.51372-2.7616 0.3267-2.7616-0.70711zm24.101-4.7813c0-1.6457 0.6364-2.0732 3.0862-2.0732 2.3968 0 3.0118 0.39223 2.753 1.7557-0.201 1.0589-1.4258 1.8817-3.0863 2.0732-2.2155 0.25548-2.753-0.0873-2.753-1.7557zm-44.499-0.71458c-0.37972-0.37937-0.69039-1.9835-0.69039-3.5647 0-2.061 0.63966-3.1153 2.2595-3.7238 2.7426-1.0304 3.1254-0.26787 2.015 4.0133-0.85009 3.2776-2.2768 4.5813-3.5841 3.2753zm9.6858-5.2067c-0.32898-1.2568-1.365-2.1715-2.4597-2.1715-2.4803 0-2.3889-1.0961 0.61185-7.3358 1.7853-3.7124 3.5132-5.7024 6.0252-6.9395 2.9374-1.4466 3.5221-1.494 3.5221-0.28611 0 0.7966-0.90379 1.9316-2.0084 2.5222-2.0735 1.1087-2.7261 4.4548-1.0684 5.4783 0.51702 0.31923 1.5399-0.66993 2.273-2.1982 0.73313-1.5282 1.8541-2.7786 2.491-2.7786 2.077 0 2.4944-1.2677 1.1439-3.4748-1.1582-1.8931-1.0723-2.3493 0.68358-3.6282 1.1046-0.80457 2.8418-2.1635 3.8604-3.0198 2.7001-2.27 4.6754-1.0329 4.6754 2.9281 0 2.498-0.91651 4.3735-3.4473 7.0544-1.896 2.0085-3.8321 3.6518-4.3024 3.6518s-1.656 1.3544-2.6347 3.0098c-1.0063 1.7019-2.6277 3.0098-3.7312 3.0098-1.2397 0-1.9516 0.68711-1.9516 1.8837 0 1.036-0.70072 2.4647-1.5571 3.1748-1.3152 1.0905-1.6454 0.95374-2.1256-0.88043zm-22.767-2.2992c-3.6306-3.0983-5.1199-7.9362-2.4213-7.8656 1.9848 0.052 10.122 8.6538 9.3563 9.891-1.1386 1.8406-3.0638 1.2783-6.935-2.0253zm57.58-4.8887c0-0.5518 0.45189-1.0033 1.0042-1.0033 0.55231 0 1.0042 0.45147 1.0042 1.0033 0 0.55179-0.45189 1.0033-1.0042 1.0033-0.55232 0-1.0042-0.45147-1.0042-1.0033zm-129.37-1.6726c0.33266-1.7137 8.4785-5.0631 9.5966-3.946 0.33586 0.33555-0.44899 1.737-1.7441 3.1143-2.7979 2.9754-8.3835 3.567-7.8525 0.83164zm19.083-0.33834c-4.3234-1.9602-4.8732-4.0087-1.0759-4.0087 2.9631 0 7.9245 2.8427 7.9245 4.5405 0 1.9627-1.625 1.8366-6.8486-0.53178zm19.615 1.3881c-1.5901-1.5886-0.53777-2.497 2.5481-2.1998 1.795 0.17291 3.1648 0.76586 3.0438 1.3176-0.26481 1.2085-4.5834 1.8898-5.5919 0.88212zm96.191-3.3903c-0.34135-0.5518 0.33649-1.0033 1.5063-1.0033 1.1698 0 1.8477 0.45147 1.5063 1.0033s-1.0192 1.0033-1.5063 1.0033-1.165-0.45147-1.5063-1.0033zm-88.433-1.1045c-0.37578-0.60745 0.22033-2.0072 1.3247-3.1105 1.6526-1.6511 2.385-1.8045 4.1387-0.86677 2.664 1.4244 2.7615 3.0752 0.18161 3.0752-1.072 0-2.2284 0.45148-2.5698 1.0033-0.81739 1.3213-2.2238 1.275-3.0752-0.1012zm17.601-0.44295c-0.97819-1.1776-1.0059-1.8268-0.1158-2.716 1.4369-1.4355 4.8024 1.4228 3.7254 3.1639-0.93968 1.519-2.0948 1.3757-3.6096-0.44788zm-76.285-0.39565-2.5105-0.78517 2.936-1.1855c3.332-1.3454 8.9139-0.51108 8.3372 1.2461-0.46128 1.4055-5.3048 1.806-8.7627 0.72453zm39.834 0.27095c-1.4011-1.3998-0.58423-3.3442 1.405-3.3442 2.8098 0 6.1528 1.8853 5.426 3.0601-0.67052 1.0839-5.8162 1.2979-6.831 0.28408zm12.846-0.40116c-0.36406-0.58851-0.41022-1.3215-0.10257-1.6288 0.8261-0.82533 3.6586 0.46303 3.6586 1.6641 0 1.3617-2.7085 1.3348-3.556-0.0352zm-36.443-2.5769c0.24431-1.2674 1.6022-2.0502 4.3608-2.5138 7.585-1.2748 6.3697 1.9751-1.359 3.634-2.9126 0.62513-3.3097 0.47694-3.0018-1.1201zm24.322-3.5424c0.33732-0.73618 0.89709-2.147 1.2439-3.1352 0.88043-2.5085 2.8854-1.5505 2.8854 1.3787 0 1.7848-0.62575 2.513-2.3713 2.7598-1.6859 0.23834-2.194-0.0517-1.758-1.0033zm28.418-1.6442c-2.6317-2.7444-3.6236-6.2155-1.7761-6.2155 0.50726 0 1.8998 1.5802 3.0945 3.5114 1.1947 1.9313 2.5873 3.5114 3.0945 3.5114 0.50726 0 0.9223 0.45147 0.9223 1.0033 0 1.8958-2.6402 0.99981-5.3353-1.8106zm-70.985-1.7886c-8.6385-2.1519-11.263-2.344-27.778-2.0339-10.031 0.1884-18.796-2e-3 -19.477-0.42237-2.7334-1.6877-0.0466-3.7057 5.7472-4.3168 8.3933-0.88518 37.288 0.73823 38.727 2.1758 0.64604 0.64543 2.3847 1.1735 3.8638 1.1735 1.479 0 4.3114 0.67721 6.2943 1.5049 4.7196 1.9701 10.589 1.9158 12.839-0.11891 1.8652-1.6864 6.898-1.248 6.898 0.60079 0 1.3343-9.7004 4.0544-13.99 3.923-1.9709-0.0604-7.8765-1.1792-13.124-2.4862zm39.861-0.0522c-0.80229-0.80152 0.10463-2.3682 1.3709-2.3682 0.51972 0 0.94494 0.67721 0.94494 1.5049 0 1.5515-1.1849 1.9932-2.3158 0.86334zm89.682-3.2226c0-3.7644 1.9429-7.1615 5.2471-9.1741 1.8088-1.1018 3.8536-2.0049 4.544-2.007 2.285-7e-3 1.3027 2.8357-1.7239 4.9888-1.6386 1.1657-3.5591 3.3076-4.2679 4.7598-1.6202 3.3197-3.7992 4.1413-3.7992 1.4326zm-101.93-1.1612c-0.34441-0.55673-0.34062-1.9111 8e-3 -3.0098 0.58982-1.8566 2.5369-2.4658 6.6311-2.0745 1.2243 0.11701 1.7612-1.0964 2.2283-5.0369 0.67659-5.7074 1.0296-6.4434 2.6194-5.4618 1.3913 0.85906 1.3681 5.4116-0.0482 9.4706-0.82722 2.3707-1.8977 3.3631-4.1031 3.8038-1.6412 0.32793-3.2194 1.2092-3.5072 1.9585-0.6129 1.5957-2.9272 1.8073-3.8286 0.35zm111.22 0.27117c-1.7289-0.59141-1.5737-2.7623 0.30907-4.3234 2.8197-2.3379 4.5058-8.199 5.0186-17.445 0.68245-12.305 1.0049-13.509 4.84-18.059 3.1951-3.791 3.4497-3.8982 6.3787-2.6861 1.678 0.69438 4.3444 2.6114 5.9253 4.26 2.778 2.8968 2.8747 3.3409 2.8796 13.22l5e-3 10.223 4.5189 0.50163c2.4854 0.2759 4.406 0.84024 4.2679 1.2541-0.13807 0.41385-0.25105 1.1923-0.25105 1.73 0 0.53764-1.2883 1.6431-2.8629 2.4566-2.5299 1.307-3.1138 1.3035-5.0205-0.0308-2.0028-1.4015-2.338-1.3078-4.6709 1.3057-2.2751 2.5487-2.6351 2.6593-3.7982 1.1675-0.74126-0.95078-3.1531-1.7997-5.7005-2.0065-4.2156-0.34227-4.453-0.21603-5.2387 2.7858-0.86364 3.2992-4.462 6.3771-6.6002 5.6457zm9.7204-15.06c-0.0626-2.4448-0.16885-2.5305-0.93362-0.75245-1.1786 2.7403-1.1786 3.5114 0 3.5114 0.55232 0 0.97245-1.2416 0.93362-2.759zm11.117 0.33442c0-2.5971-1.4395-3.546-4.2679-2.8131-2.4421 0.63278-2.195 2.5388 0.5021 3.8733 3.3962 1.6805 3.7658 1.5764 3.7658-1.0602zm-4.0322-7.3573c-8e-3 -0.41385-0.43578-1.4166-0.94961-2.2283-1.157-1.8277-2.5143-0.68466-1.7011 1.4326 0.60059 1.5637 2.6792 2.1876 2.6507 0.79572zm5.0364-5.6518c0-4.701-0.28289-5.4749-2.1827-5.9712-2.9271-0.76475-3.8426-0.0437-3.8426 3.0264 0 2.1723 0.23399 2.3778 1.5063 1.3228 1.2717-1.0544 1.5063-0.85198 1.5063 1.3 0 3.1826 0.93919 5.7229 2.1158 5.7229 0.49322 0 0.89677-2.4304 0.89677-5.401zm-111.17 26.822c-0.6673-0.27062-1.5074-3.0891-1.8668-6.2634-0.58718-5.1851-0.94843-5.8825-3.5567-6.8661-3.4068-1.2847-3.9401-4.2789-0.7622-4.2789 1.1775 0 3.6125 0.90863 5.4111 2.0192l3.2702 2.0192 0.66235-2.6366c0.58585-2.332 1.0228-2.5646 3.7821-2.0132 4.9922 0.9975 6.0338 2.3929 5.2657 7.0538-1.0632 6.4517-1.9108 7.3619-3.9539 4.2466-2.3024-3.5106-3.5238-3.3674-3.5238 0.413 0 3.1985-1.5521 7.0151-2.7969 6.8777-0.3948-0.0436-1.2638-0.30063-1.9311-0.57127zm13.431-2.0249c-1.0544-1.0534-0.78157-4.1599 0.43109-4.9086 1.5625-0.96479 4.3149 2.1003 3.5872 3.9948-0.62109 1.617-2.8151 2.116-4.0183 0.91385zm112.31-5.3392c-0.76073-1.2297 4.5492-8.0377 6.2691-8.0377 1.5021-4e-5 1.6263 2.9074 0.2759 6.4559-0.6858 1.8021-1.7215 2.5735-3.4555 2.5735-1.3619 0-2.7522-0.44624-3.0896-0.99166zm29.82-8.5837c-1.921-1.3665-2.0942-1.8979-1.0346-3.1735 0.97134-1.1693 2.548-1.4006 6.6581-0.97683 4.3635 0.44994 5.2827 0.28798 4.8442-0.85353-0.72719-1.8933 1.2597-3.0018 2.7223-1.5188 0.88946 0.90185 0.74894 1.4932-0.5896 2.4812-0.96655 0.71343-1.7574 1.7851-1.7574 2.3814 0 2.688-7.7336 3.8719-10.843 1.66zm-21.292-0.89968c0-1.7485 1.6466-2.9092 2.9688-2.0928 1.3365 0.82526 0.13277 3.5385-1.5699 3.5385-0.76938 0-1.3989-0.65056-1.3989-1.4457zm8.2847 0.73765c-2.7187-0.52317-2.8266-1.1488-0.50211-2.9117 3.4036-2.5812 8.8333-0.9823 7.5967 2.2371-0.51971 1.353-2.5605 1.5471-7.0946 0.67461zm28.871-9.273c0-1.6125 4.4112-5.8071 6.5299-6.2093 2.351-0.44629 3.2026-4.7168 1.5542-7.7939-0.84438-1.5762-0.58614-3.0398 1.1934-6.7632 1.8051-3.7769 2.9582-4.9285 5.6211-5.6137 3.8475-0.98996 6.1898 0.33724 6.1898 3.5074 0 1.7496-0.47159 1.9385-3.581 1.4344-2.5377-0.41142-3.4641-0.23045-3.18 0.62119 0.22053 0.66095 1.035 1.2017 1.8098 1.2017 2.238 0 2.2679 3.2889 0.0425 4.6774-1.6863 1.0521-1.9279 1.9671-1.4464 5.4767 0.54135 3.9458 0.37878 4.3165-2.5587 5.8341-1.7252 0.89132-3.1368 1.2981-3.1368 0.904 0-0.39411-0.92139 0.2715-2.0475 1.4791-2.0346 2.1819-6.9903 3.0639-6.9903 1.2441zm22.762-25.802c-1.2713-1.2701-0.61842-4.8573 1.3389-7.3573 1.0801-1.3795 1.9738-3.0421 1.9861-3.6946 0.0122-0.65257 0.95201-1.4813 2.0883-1.8416 1.1363-0.36031 2.4894-1.7677 3.0069-3.1276 0.53125-1.396 2.273-2.9364 4.0003-3.538 2.4149-0.84107 3.6756-2.4231 5.9843-7.5103 2.2786-5.0206 3.583-6.6739 5.903-7.4819 1.8636-0.64905 3.597-2.3403 4.632-4.5195 2.2967-4.8354 7.4023-10.424 9.5234-10.424 0.97294 0 2.9596-0.93571 4.4149-2.0794 2.0425-1.6051 2.6459-2.9631 2.6459-5.9543 0-4.0113 1.6717-9.6927 2.5838-8.7815 0.28557 0.28531 5e-3 2.5574-0.62258 5.049-0.76411 3.0317-0.81518 5.1462-0.15439 6.3925 0.54307 1.0242 0.68022 3.6681 0.30475 5.8753-0.61169 3.5959-0.95785 3.9843-3.3301 3.7361-1.4561-0.15234-2.934 0.18627-3.2843 0.75245-0.35024 0.56618-1.5503 1.0294-2.6667 1.0294-1.4358 0-2.4918 1.1746-3.6078 4.0131-0.98577 2.5072-2.2235 4.0131-3.2985 4.0131-3.3666 0-6.5702 3.8124-8.9778 10.684-2.4784 7.0736-5.4363 10.842-7.7993 9.9358-0.77151-0.29578-1.7118 0.43929-2.2029 1.7221-0.47124 1.231-1.8125 3.0982-2.9805 4.1494-1.168 1.0512-2.1237 2.434-2.1237 3.0729 0 1.1299-5.1012 6.5535-6.1639 6.5535-0.29196 0-0.83211-0.30098-1.2003-0.66885z" stroke-width="1.0037"/>
</svg>
