<?xml version="1.0" encoding="utf-8"?>
<svg xmlns="http://www.w3.org/2000/svg" version="1.1" viewBox="0 0 526 787">
	<title>Sketch of a brick or stone wall with a peg sticking out. Hanging on the peg are boots and a walking stick. The words “Ex Voto” are carved into the wall on either side.</title>
	<path d="M161.8 785.7c-2-2.4-4.3-8.6-3.3-9.2 1.2-.8 4 .4 6.2 2.6 1 1 2.7 1.9 3.7 1.9 2.7 0 4.6 2.4 3 3.7-2.4 2-8.4 2.5-9.6 1zm51 .6c-4-1.6 1.3-8 5.7-6.8 1.4.3 4.1.6 5.9.5 2.6 0 3.2.4 3.2 2 0 3.5-9.6 6.4-14.7 4.3zm17.8-4.3c0-1.6.6-3.5 1.4-4.2.7-.8 1.9-2.4 2.5-3.6 2.4-4.5 4.8-1.7 3.7 4.3a6.4 6.4 0 0 1-3.5 5c-4 2-4 2-4-1.5zm-47.1-1.4c-4.3-3.9-6.6-11.7-4.9-16.2 1.5-3.9.3-6.9-3.2-8.2-2.8-1-3-1.4-2.4-4.5 1-4 1-6 .5-26.2-.2-10.9.1-17.7 1-21.3 1.2-5 3-7.2 3-3.6a4 4 0 0 0 1.6 2.8c1.9 1.3 3.7 17 3.3 28.2-.2 4.4.2 7.7 1 8.6.9 1 .9 2.1 0 4.7-1.2 3-1.1 3.4 1 5.1 1.3 1 2.8 1.7 3.3 1.4.5-.3.9-3.6.9-7.4 0-8.5 1-16 2.1-16 .5 0 1 3.9 1 8.7.1 8.7.1 8.7 1.4 4.8.8-2.2 1.4-7.7 1.4-12.3 0-7-.2-8.3-1.7-9.2-1.6-.8-1.8-1.6-1.1-5.8 1.3-7.8 1-18.1-.5-21a46 46 0 0 1-2.5-10.6c-1.3-9.5-1.3-9.7-.2-9.7.6 0 1.3 1.7 1.6 3.8l1.2 5.7c.5 1.9.7 1.8 1.6-.5 1.2-3.2 2.8-19 2.1-21.2-.3-1-1.2-1.8-2-1.8-1.4 0-1.5-1.4-1-10.2l1.6-30.8a450 450 0 0 1 1.4-21.5c.2-.5 0-5.5-.5-11-.9-10.7-.3-19.6 1.2-17.3.5.7.9 4.5.9 8.3 0 3.9.5 7.7 1 8.5 1.2 1.9 1.2 2.3 1.2-12.9 0-10.5-.3-12.6-1.7-13.3-1.5-.9-1.6-3.6-1.4-26.7.3-24.7.4-25.8 2.3-26.7 2.6-1.1 3.9-7 3.2-14.4-2.6-26.7-3.6-28.5-3.6-6.1 0 10-.4 16.1-1 16.1-.5 0-1 0-1-.2-.1-.2-.4-11.5-.6-25.2-.3-13.6-.9-25.6-1.4-26.6-2.8-5.2-2.3-40 .6-40 .8 0 1.4 1 1.5 2.3.1 2.1.1 2.1.9-.3a28 28 0 0 0-.6-11.9c-.3-1-1-.9-2.5.8-2.7 3-3.6 1.9-4.3-4.9a93 93 0 0 0-1.2-9.3c-.5-3.1-.3-4.2 1.4-5.7 1.8-1.7 1.9-2.3.9-5-1.6-4.3-3.7-3.9-3.7.8 0 3.9-2.7 8.8-3.6 6.6-.3-.7-1.3-1-2.2-.7-1.4.3-2-.7-3-5-1.5-6.4-1.5-8.7-.2-8.7.5 0 1 .9 1 2 0 1 .5 2.2 1 2.5 1.4.9.2-5.8-1.7-9.4-1.7-3.4-1.7-8.3.2-12.7.8-2 1.5-5.6 1.5-8 0-6.2 2.2-10 6.5-11.4 4.7-1.6 5.4-.8 1.6 2-3.4 2.3-3.9 4.6-1.7 7.5 1.3 1.8 1.5 1.7 3.3-2l2-3.8 1.1 3.2c.6 1.7 1.5 3.1 2 3.1s1.2 1 1.5 2.2c.6 2 .8 2 2.8.6a12 12 0 0 0 3.4-3.4c1.1-2 2.6-3.4 3.8-3.4.5 0 0 1.3-1 3-.9 1.6-1.4 3.2-1.1 3.5.9 1 9.5-3.2 10.1-4.8.3-.9-.3-2.7-1.4-4.1-1.8-2.3-2.7-2.6-9-2.6-3.8 0-6.9-.4-6.9-.8 0-.5-1.1-1.5-2.5-2.2-3.4-1.8-3.2-3.7.5-4.5 1.7-.4 3-1 3-1.6 0-1.4-4.8-1-5.7.5-.4.8-2.7 2.4-5 3.6-4.2 2.1-9.7 8-12.2 12.8-1.5 2.8-1.6 18.6-.5 48.7.5 12.7.6 26.4.2 30.5-1 9-.8 78.4.1 85.6a26 26 0 0 1-.1 8c-1.2 4.6-1.1 54.4.2 69.8.6 7.6.8 15.5.5 17.5-.3 2 .3 14.2 1.3 27.1 1.1 13 2 27.1 2.1 31.5s.6 10.1 1.1 12.7c.5 2.6 1.2 8.7 1.6 13.7.6 8 .5 9.2-1 9.8-1 .3-2.2.2-2.7-.3a63.6 63.6 0 0 1-4.2-20.4 58.4 58.4 0 0 1 .3-24c1.1-3.6 1.1-6.6 0-17-.6-6.8-1.6-18-2-25-.5-6.8-1.2-13.6-1.5-15a951 951 0 0 1-.6-84.5c1.5-13 1.7-95.9.2-99.7-.9-2.2-1.7-2.8-4.1-2.8-2 0-3-.5-3-1.5s1-1.5 3.5-1.5c1.9 0 3.5-.4 3.5-1 0-1.2-3.5-2-8.4-1.7-2.4.1-4.1-.3-4.4-1-.3-1 1.2-1.3 5.6-1.3 3.3 0 6.3-.4 6.6-1 .6-1-4.7-2.2-7.4-1.7-.9.1-1.8-.2-2-.8-.3-.6 1.6-1.1 4.7-1.3 5.2-.3 6.8-1.4 3.7-2.6-3.1-1.2-11.3-.6-12.8 1-1.9 1.8-5.7 1.9-5.7 0 0-1.7 3.6-3.4 9-4 8.6-1.1 6.5-3-3.3-3-8.1 0-10.2-1.8-3-2.6 3.1-.3 4.8-1 4.6-1.7-.2-1 1.4-1.2 6.3-.9l6.5.5v-4c0-2.8-.4-4-1.3-3.6a2 2 0 0 0-1.2 1.7c0 .8-1.6 1.8-3.5 2.3-3.9 1-21.3 2.7-22 2.2-1.1-1.2 1.7-2.5 5.5-2.5 4.8 0 5.4-.5 2.7-2.6-1.5-1.2-1-1.3 4.4-1.4 5.7 0 8.5-1.1 7-2.7a60 60 0 0 0-19.7 3.2c-20 7.7-30.7 7.1-42.3-2-5.6-4.6-5.7-4.7-5.7-9.8 0-5.7 1-8 3-7.5 1 .2 1.4-.6 1.3-2.8 0-3 .2-3.2 4-3.7 5.6-.8 6.4 0 2.5 2.7-3.7 2.4-4.8 6.6-2.6 9.3a66.9 66.9 0 0 0 14 9.3c1.3 0 1-1.7-.8-3.4-.8-.9-1.4-2.1-1.2-2.8.2-.6 1.6 0 3.2 1.7l2.8 2.8-.7-3.4-.7-3.4 3 3.3c2 2 4 3.2 5.6 3.2 2.2 0 2.5-.5 2.8-3.7.4-4.8 2.5-5.3 6.7-1.7 3 2.5 3.4 2.6 7.7 1.4 6.2-1.7 6.8-3.3 1-2.5-3 .5-4.6.4-4.6-.4 0-.6.7-1.1 1.5-1.1s1.5-.4 1.5-1-.6-1-1.4-1c-2.6 0-2.7-2-.2-3 1.6-.5 3-2.4 4.2-5.4 1.7-4.6 4.3-6.6 3-2.3a45 45 0 0 0-1.3 5c-1 5 2.3 2 3.7-3.3.7-2.8 1.7-5 2.3-5 1 0 .7-3-.7-6.2-1-2.3 1.2-2.4 3.6-.1 1.4 1.2 2.2 1.4 3 .5 1-.9.7-2-.7-4.6-2.2-4.2-1.3-5.7 1.8-2.9 1.3 1.1 2.8 1.8 3.5 1.6 1.8-.6 1.6 3.5-.2 7-1.8 3.4-2 5.7-.6 5.7 1.6 0 3.8-4 5.1-9.3 1.2-4.8 1.2-5-1.6-7.2-3.6-2.8-2.6-4.2 1.6-2.5 2.7 1.1 3.3 1 4 0 1.3-2.1 1.2-3.6-.5-5-2-1.7-1-3 2.5-3 3.2 0 4-1.4 1.5-2.4-2.2-.8-1.8-2.6.5-2.6 2.8 0 6.2-1.9 5.5-3-1-1.5-5.1-1.2-6.5.5-1.8 2-3 1.9-3-.5 0-1.2 1.5-3 3.9-4.4a25 25 0 0 0 6-5.4c2.2-3.1 6.4-5.4 12.9-7.2 5.5-1.4 4.5-3.3-1.4-2.4-4.6.7-5.9-.7-3.2-3.4 2.4-2.4-.7-1.1-3.3 1.4-2.5 2.4-3 2.5-4.9 1.1-1.7-1.2-2.8-1.3-5-.4-1.6.6-3.3.8-3.6.4-1.3-1.3 1.5-3.3 6.5-4.7 5.6-1.5 9-4.5 14.6-13 3.4-5 3.5-5.5 1.9-6.7-1.6-1.2-1.7-1.7-.5-4.6.7-1.8 1.9-6 2.6-9.2l2.9-12c1.7-6.2 2.2-14.5.9-14.5-.5 0-1.8 1.7-3.1 3.7l-2.3 3.8.5-4.8c.8-7-.9-5.7-3.4 2.5l-2.5 8.5c-.6 1.7-3 1.6-4.9-.2-.8-.8-1.7-1.5-2-1.5-1.2 0-3.7 6.3-5.1 13a29.6 29.6 0 0 0-.4 13.7c1.3 7.4.5 9.2-3.1 7.3-3.4-1.8-12.4-.4-15.8 2.5-2 1.7-3.6 2.2-5.6 1.8-2.7-.6-2.8-.4-2.6 3.3.3 6.3 0 7.2-2 7.9-1.8.6-3 4.8-3.6 12.5a40 40 0 0 1-1.5 7.6c-1.5 4.9 0 9.9 3.1 10.7 1 .3 2 1 2 1.7 0 .8-1 1-2.6.6-2-.5-2.7-.2-3.4 1.7a10 10 0 0 1-2.6 3.7 24 24 0 0 0-4.1 6.9c-1.9 4.2-2.7 5.2-3.6 4.3-1-1-.5-2.7 2-7.7 3.1-6.3 4.5-14.4 2.2-13-1.2.7-5 9-6.6 14-.6 1.9-2.2 3.6-4.9 5-2.5 1.3-4.1 2.8-4.3 4.3-.4 2.7.3 2.8 3.6.1 1.8-1.4 2.8-1.7 3-.9.3.7-.1 1.6-.8 2-1.2.8-1 2.4.6 6.4.6 1.6.5 1.7-1.4.7-1.1-.6-3-1.1-4-1.1s-2.4-1.1-3-2.5c-1.3-2.8-3.7-3.3-4.6-.9-.6 1.7 1.3 4.7 4.5 7.1 1.7 1.3 5 7.3 5 9.2 0 2.2-2.1 1-4-2.1-1.2-1.8-3-3.5-4.3-3.8-1.3-.3-2.5-1.8-3.1-3.5-1.2-3.5-2.3-4.5-5.5-4.5-1.3 0-4.4-.9-7-1.9a73 73 0 0 0-13.7-3.1c-10.7-1.5-14.2-4-13.1-9.2a86 86 0 0 1 9.3-22.9c2.3-2.5 2.6-2.6 12.5-2.2a64 64 0 0 0 29.3-4.5c12.5-5.5 13.3-7.6 2.3-6-8.3 1.2-17.8.3-17.8-1.8 0-1.1 2.2-1.4 11.3-1.4 15.2-.1 18.3-.9 23.7-5.9l4.4-4.1-1.1-6.3c-.8-4-.9-7.6-.3-10.2.7-2.9.6-5.4-.4-8.5l-1.3-4.5h-9.4c-9 0-9.4-.1-9.7-2.3-.3-2.2-.2-2.3 8-1.6l8.2.7-.7-3.8a24 24 0 0 0-3.2-7.7c-2.4-3.7-2.5-4.1-1-5.8 1-1 4.3-3 7.6-4.4 6.8-3 7.4-3.8 6-6.5-.7-1.3-.7-2.2-.1-2.6.5-.3 1.7.8 2.5 2.5.9 1.6 2 3 2.6 3 1.4 0 .2-4.2-1.6-5.6-2.2-1.8-1.7-2.4 1.9-2.4 2 0 4 .7 5.2 2a7 7 0 0 0 5.1 2c3 0 3.4-.3 3.4-3 0-3.9.9-6 2.6-6 1.6 0 1.8-1.6.4-2.5-.6-.4.2-2.8 2-5.8 2-3.8 3-7.1 3.4-12.4.8-9.1 2-15.6 4.1-21.3.9-2.5 1.8-8.5 2-13.3 0-4.8.7-9.3 1.4-10 1.4-1.8 6.5-31.2 5.7-33.3-.4-1-1.3-1.3-3-.8-2 .4-2.6.2-2.6-1 0-.8-1-3-2-5-1.6-2.6-2-4.8-1.8-8.8.3-4.7.6-5.5 3-6.6 1.6-.7 2.8-1.7 2.8-2.3 0-.5 1.6-2.5 3.5-4.4 4.4-4.4 8.3-4.6 16.5-1 5.3 2.4 6 3 7 7 1.3 4.7.8 7.5-2.2 11.6a11 11 0 0 0-2 5c0 7.5 8.4 18.9 14 18.9 3.5 0 6.2-2.3 6.2-5.1 0-3.7 2.9-2 3.6 2.1.3 2.3.5 4.3.3 4.5-.2.2-2.8.5-5.9.8-6.6.5-6.4 2.2.3 2.2 2.7 0 5.2.5 5.5 1 1 1.4 6.8 5.3 9.5 6.5l3.8 1.9c.8.5 3.6 2 6.2 3.1s4.5 2.6 4.2 3c-.9 1.5-15.2 1.2-16.1-.3-1-1.6-7.3-5-8-4.4a57 57 0 0 1-15-7.4c-.2-.5-2.7-1-5.4-1-5.5 0-9.5-2.6-8.6-5.7.8-2.5-1.7-12.5-3.1-13-1.6-.5-1.6 4.3-.2 10.8a335 335 0 0 1 6.1 32.7c1.2 5 2.7 5.6 16.6 7.5 5 .7 8.1 1.6 8 2.2-.6 1.3-11.5 1-17-.5-2.2-.6-4.2-.9-4.4-.7-.6.7 2.4 15 4.9 22.8 1.8 5.8 2.7 7.4 4 7.2 1.3-.2 2.3.9 3.4 3.4 1.4 3.5 1.4 3.9-.2 5-1.3 1-1.6 2.5-1.4 6.6.2 2.9 0 6.9-.5 8.8a12 12 0 0 0 1 7.4c1 2.7 1.4 5 .9 7.5-.4 2-.8 8.5-1 14.6 0 6-.6 10.9-1 10.7-2-.7-6.3-8.4-7-12.2-.4-2.4-1-3.8-1.7-3.4-1.6 1-.3 9.7 2 14.3 1.3 2.3 2.2 4.8 2.2 5.6s1 2 2.2 2.6c1.3.7 3 2.1 3.9 3.2 3.3 4.1 6.7-1.1 4-6.2-.5-1-1.3-5-1.6-8.7-.6-5.8-.5-6.7.7-5.6 1.4 1.4 1.5 1.7 1.7 5.7 0 1.3 1.4 3.9 3 5.7 2.9 3.2 2.9 3.2 11.7 3 8.4-.3 11.2-1.3 9.8-3.4-.2-.4-2.2-.8-4.3-.8-6.2 0-13-1.2-13-2.3 0-1.1 40.2-.4 43.2.8 4.3 1.7-.3 2.4-11.8 1.8-8.3-.4-12.4-.3-12.4.4 0 2.6 3.3 3.3 19 3.5 12.6.2 16.5.6 16.8 1.6.4 1.1-2.5 1.3-15.4 1.2-18.6-.3-19.7-.2-17 1 1.2.5 8 .9 15.1 1 11.9 0 17 .9 15.3 2.5-1.2 1.2-47.2-1-47.6-2.2-.2-.8 1.5-1.3 5.4-1.6 5.8-.3 5.8-.3-1.3-.5-8.6-.2-10.9 1.2-9.8 6.1 1 4.4 2.6 6.7 5.3 7.4 2.4.6 10-.1 10.9-1 1.3-1.4-1.3-2.7-5.3-2.7-2.4 0-4.4-.5-4.4-1 0-1.3-2-1 16-1.6 16.5-.6 30.7.4 30.3 2-.2.7-6.1 1-16.2.7-11.4-.2-16 0-16.6.8-.4.7-.4 1.5 0 1.9.3.4 7 .8 14.8 1 15.5.3 19.1.7 18.2 2.2-.4.6-6.5.8-16.2.4-12.5-.4-15.4-.3-15 .8.2 1 3 1.4 9.8 1.5 11.3.3 15 1 12.9 2.4a177 177 0 0 1-36.3.3c-3.1-.6-4.3 1.1-3.4 5 .8 3 2.7 3.7 7 2.9 3-.7 3-.7.7-1.3-1.4-.3-2.5-1.2-2.5-1.8 0-1 5.7-1.4 23.3-1.8 12.8-.3 24.2-.2 25.3.1 4.2 1.4.4 2.7-7.4 2.5-14-.3-17-.1-16.5 1.2.4 1 6.8 1.2 29.2 1 26.1-.4 28.7-.3 28.7 1.2 0 1.6-3.8 3.8-5.2 3-.9-.5-23.6-1.3-24.1-.8-.3.2.4 3 1.4 6 1.3 3.7 1.6 6 1 6.7-1.6 1.5-2.9 0-3.5-4.2-1.1-6.6-2-6.9-27.7-7.6-9-.2-19-.7-22.2-1l-5.6-.8-.6 4.4c-.3 2.4-.8 5.8-1.2 7.5-1 5.3 1.8 5.8 28.4 5 20.3-.7 23-.6 24.1.8 1.2 1.4 1.1 1.6-.5 1.6-13-.2-43.6.8-44.2 1.4-.4.4.3 1.6 1.6 2.7 2.1 1.7 4.2 2 17.6 2 17 0 26.3 1 23.3 2.4-1 .4-10.2.5-20.4.2-17.2-.6-18.4-.5-18.1 1 .3 1.6 2.3 1.8 22.6 1.8 20.2 0 22.5-.2 23.7-1.7 1.5-2.2 2.5-2.3 2.5-.3 0 .8.6 1.5 1.4 1.5 1 0 1.5-2 2-6.8.9-8.8 1.6-11.2 3.4-11.2 1.1 0 1.3.8.7 3.7-.3 2.1-.8 7.1-1 11.1s-.6 7.7-1 8c-.3.3-1.4 0-2.5-.6-2.3-1.4-50.6-1.7-51.4-.3-.3.4.3 1.6 1.4 2.6 1 1 2 2.9 2 4.2 0 2.6 1.5 3 5.4 1.2 2.3-1.1 2.4-1.3.8-2.5-1-.7-1.4-1.6-1-2 .4-.3 10.4-.7 22.2-.7 17.4 0 22 .3 23.8 1.5a12 12 0 0 0 10.1 1.8c4.2-1.2 33.8-1.9 34.4-.8.2.4-.6 1.4-1.9 2.2-1.8 1.3-3.7 1.4-8.9.8a34 34 0 0 0-9.4 0c-5.2 1.4-22 1.4-23.7 0-.9-.7-5.3-1.7-10-2.2-11.4-1.3-12-1.3-11.6.8.2 1.2 1.6 1.8 5.1 2.2 2.6.3 4.8 1 4.7 1.5 0 .6-7.2 1-19.5 1-16.3 0-19.8.3-20.5 1.5-2 3.2-3.5 3 33.7 3.4 9.5.1 12.6.7 11 2.2-.3.4-10.5.6-22.5.5-12-.1-23.1.1-24.6.5-1.5.3-3.3 1.9-4.2 3.5a20 20 0 0 1-3.6 4.9c-1.3 1.2-1.8 2.3-1.3 2.8.5.4 5.8.6 11.7.4 9.9-.3 10.8-.5 10.8-2.3 0-2.5 1.7-2.5 2.5.1.6 1.8 1.5 2 11 2 6.4 0 10.5.4 10.5 1 0 1-4.3 1.3-15.7 1.4-3.7 0-5.3.4-5.3 1.3 0 1.5.2 1.5 13.8 1.3 9-.1 10.2 0 10.2 1.5s-1.3 1.7-11.2 1.4c-12-.3-13.8 0-13.8 3.2 0 1.5.7 2 3.2 2 4.6 0 8 1 7.5 2.2-.3 1-19 1.3-20.5.3-.4-.2-7.7 0-16.2.5a61 61 0 0 1-16.5 0c-.5-.6-.7-1.2-.5-1.5.2-.2 9.2-.7 20-1 19.4-.7 21.5-1.1 20.3-4.3-.4-1-3.4-1.3-14-1.2-12.9.1-17.3-.4-12.2-1.5 1.3-.3 7.4-.7 13.6-.9 10.3-.3 13.4-.9 12.1-2.2-.2-.2-6.7-.5-14.3-.6h-13.8l-3.1 2.9c-3.8 3.6-6.8 5.2-9.7 5.2-1.1 0-4.5 1.1-7.4 2.5-6.7 3.2-6.4 1.7-6.6 37.4a488 488 0 0 1-.5 28.2c-.3.4 0 3 .7 6l1.2 5.1 16.8-.7c11.3-.5 16.9-.4 16.9.3 0 1.7-2 2-16.9 2.1-7.9.2-15 .5-15.8.8-1 .4-1.4 2.2-1.4 6v5.5l15.2-.3c10.6-.3 15.3 0 15.6.8.5 1.6-6.8 2.4-19.2 2.2-5.9 0-10.8 0-11 .2-.2.3-.9 10.5-1.5 23-.6 12.3-1.5 25.3-2 29-1 7.9-.2 49 1 50.6.6.6.7 3.6.3 6.7-.5 4.4-.4 5.6.7 5.7h9.2c4.2 0 7.7.2 7.7.7 0 .5-3.6 1.2-8.2 1.6-4.5.3-8.6 1-9.2 1.7-1.1 1.1-1.5 23.3-.4 26 .4 1.1 2 1.4 6.8 1.1 5.6-.3 6.1-.5 5.8-2.5-.2-1.8-1.1-2.3-4.7-2.7-6.5-.7-6.6-3 0-3 4.7 0 5-.1 4.8-2.2-.3-1.7-1.2-2.4-3.7-2.8-4.2-.6-4.6-2.4-.7-2.8a10 10 0 0 0 4.3-1.4c1-.8 1.7-.7 2.5 0 .6.7 2.2 1.2 3.5 1.2 3 0 2.4 2.3-.8 3-1.7.5-2.4 1.2-2.1 2.6.5 2.7 0 22.8-.5 23.4-.7.8-7.5 0-9.5-1-2.9-1.6-1-3.3 2.8-2.6 2.9.4 3.4.2 4-1.9.8-3.5-.3-4.5-5-4.5-6 0-8.7 3-8.7 9.8v5.1l9.3.5c10.6.5 21 2.6 20.4 4.1-.5 1.8-4.8 1.8-12.2 0-3.8-.8-9.3-1.4-12-1.3-4.3.3-5 .7-5.3 2.6-.4 2.6-.6 2.5 11 2.7 8 0 11 .7 9.6 2-.3.4-5 .8-10.3 1-5.4.3-10 .7-10.2 1-1.6 1.5 1.8 2.5 8.2 2.5 7.6 0 10.5.6 10.5 2.1 0 .5-4 1-9 1-10.1 0-9.4-.8-10.3 10.1-.6 6.6-.3 6.8 8 6.8 7.8 0 6.7 2.4-1.3 2.8-6.6.4-8.3 1.4-6.4 3.7.9 1.1 3.1 1.5 7.7 1.5 3.6 0 7.5.6 8.7 1.2 1.2.7 4.5 1.7 7.4 2.3 3 .6 5.4 1.5 5.6 2 .3 1.5-6.3 1.9-10.7.6-11-3.3-18.7-3.2-20 .3-.5 1.4.4 1.5 6.6 1.1 6.9-.4 11 .6 9.5 2.2-.5.4-3.4.6-6.6.5-3.1-.2-7 .2-8.5.8l-2.8 1 .5 17.8c.9 26.6 2 42 3.1 43.1.6.6 2.4 1.1 4 1.3 4.1.5 3.4 2.2-1.1 2.9-4.7.6-5.8 3-1.5 3 4 0 4 1.5.1 2.3-3 .6-4.2 2.7-1.5 2.7 2.2 0 1.9 1.7-.5 2.5-2 .6-2.8 3.5-1 3.5.6 0 1 .6 1 1.5 0 .8-.7 1.5-1.5 1.5s-1.5.3-1.6.7l-.3 3.1c-.2 1.3-1 2.8-2 3.3-.9.5-2.8 2-4.3 3.4s-3.3 2.3-4 2-2.7.1-4.3 1c-3.9 2-4 2-8.1-1.9zm4.2-17.3c1.6-4.3.8-6.8-2.1-6.8-2 0-2.5.4-2.2 2.5.8 7.4 2.4 9 4.3 4.3zm-8.1-12.3c0-.6-.5-1-1-1s-.9.4-.5 1c.3.5.8 1 1 1s.5-.5.5-1zm18.5-7.6c1.3-2 1.4-2.9.4-4-1.5-1.9-2.5-1-3.4 3.3-.8 4 .6 4.3 3 .7zM178 721c-.5-7.6-1.1-11.6-1.5-10-.9 3-.2 28.8.8 30.3 1.1 1.8 1.4-7 .6-20.3zm21.5-9.1c0-6-.4-10.8-.8-10.5-1.2.7-2.2 13.6-1.5 18 1.1 7 2.3 3.3 2.3-7.5zm-1.6-15.6c.4-1 1-6 1.2-11.3.6-10.1 1-14.6 2-27.7.4-5.5.3-8.3-.5-8.8-.7-.4-1.2.3-1.3 2.1-.5 8.8-.7 11.7-1.8 20.3-1.8 15-2.4 27-1.2 27 .5 0 1.3-.7 1.6-1.6zm6.2-4.1c-1-1-1.8.6-1 2.5.7 1.7.7 1.7 1.2 0 .2-1 .1-2.2-.2-2.5zm-.6-18.8c0-.8-.4-1.5-1-1.5s-1 .7-1 1.5c0 .9.5 1.5 1 1.5s1-.6 1-1.5zm2.4-26.7-.7-2.2-.9 2.4a6.8 6.8 0 0 0-.3 4c1 2.5 2.8-1.5 2-4.2zm-5.4-29.5c0-15.5-.4-26.3-1-26.3-1.5 0-2.3 10.8-1.7 23.5.4 8.1.2 12.7-.6 14-1 2-1 16.1 0 18 .4.4 1.2 0 2-1 1-1.4 1.3-7.7 1.3-28.2zm5 15.4c-.1-3.2-.3-3.7-1-2.2-1.2 2.9-1.2 7.8 0 7 .6-.3 1-2.5 1-4.8zm1-143.4c0-.7-.4-1.3-1-1.3s-1 1.5-1 3.3c.1 2.7.3 2.9 1 1.2.5-1 1-2.5 1-3.2zm2-20.2c0-1.6-.4-3.2-1-3.6-.6-.3-1 .8-1 3 0 2 .5 3.5 1 3.5s1-1.3 1-3zm-8-5.6c0-.8-.4-1.5-1-1.5s-1 1-1 2 .5 1.9 1 1.5c.6-.3 1-1.2 1-2zm-2.6-27.2c-.9-20.6-2.2-22.7-2.3-3.7 0 8.8.2 16.4.6 16.8 1.9 1.8 2.2-.5 1.7-13.1zm4.3 5.5c-.3-.8-.6-.5-.6.6 0 1 .2 1.7.5 1.3.3-.3.4-1.1 0-1.9zm7-1.4c-.3-.3-1.1-.4-1.9 0-.8.3-.5.5.6.5 1 0 1.7-.2 1.3-.5zm-9.7-44.8c0-2-.4-3.8-1-4-.6-.5-1 .9-1 3.4 0 2.2.5 4 1 4s1-1.5 1-3.4zm-5.9-6.7c-.7-4.4-.9-4.7-1-1.9 0 3.6.9 8.4 1.5 7.7.3-.2 0-2.8-.5-5.8zm8-3.4c0-1.4-.5-2.5-1-2.5-.6 0-1 1.1-1 2.5s.4 2.5 1 2.5c.5 0 1-1.1 1-2.5zm-17.1-13c0-1.4-.5-2.5-1-2.5-1.1 0-1.4 3.3-.3 4.3 1 1.1 1.3.8 1.3-1.8zm30.2-.4 2.3-2-2.5-.6c-1.4-.3-3.8-.1-5.3.5a23 23 0 0 1-6.8 1c-2.8 0-3.9.4-3.9 1.5 0 2.4 13 2.1 16.2-.4zm-19.2-1a1 1 0 0 0-2 0 1 1 0 0 0 2 0zm-26-5.5c0-3.1-.3-3.4-3.8-3.8-4-.5-8.7.7-7.8 2 .3.5 1.6.7 3 .5 2-.4 2.6 0 3.1 2 .6 2.4 3 3.9 4.7 3 .4-.2.8-2 .8-3.7zm-34 1.2c0-1.6-.4-1.9-1.2-1-.6.5-.8 1.5-.4 2.1 1 1.7 1.5 1.3 1.5-1zm55 1c0-.7-1.2-2.2-2.6-3.3-2.1-1.7-2.8-3.3-3.3-8-.5-4.6-1-6-2.4-6.3-1.5-.3-1.7.5-1.7 5.6 0 6.8.6 9.2 2.5 9.2.7 0 2.3.9 3.6 2 2.8 2.3 3.9 2.5 3.9.8zm8.1-.3c0-1.3-4.1-2-4.1-.6 0 1 2 2 3.3 1.7.5 0 .8-.6.8-1.1zm5-6.1c0-.8-1.1-1.4-2.6-1.4-2.6 0-3.5 2.5-1.2 3.3 1.8.6 3.7-.3 3.7-1.9zM233 360c4-4 3.9-5.5 0-4-1.9.7-5.4 5.5-5.4 7.4 0 1.4 2 .2 5.4-3.4zm-78.6 1.7c1.9-1.9 1.4-3-1.1-2.2-2.9.9-3 1-2.3 2.3.9 1.4 1.9 1.4 3.4 0zm54.7.2c-.3-.5-1-1-1.5-1s-1 .5-1 1 .7 1 1.6 1 1.3-.4 1-1zm-13.7-.6c3.6-1 2.7-3.4-1.4-3.4-3.4 0-3.5-.1-2.9-3 .5-2.3.3-3-1-3-1.9 0-2 3.5-.3 7.3 1.4 2.8 2 3 5.6 2zm-28-2c3.4-1 2.6-2.4-1.3-2.4-2.5 0-3.5.5-3.5 1.5 0 1.6 1.1 1.8 4.7.9zm56.2-1.4c0-.5-1.3-1-3-1s-3.1.5-3.5 1c-.3.6.9 1 3 1 2 0 3.5-.4 3.5-1zm-15.1-2.3c1.3-1.6.5-2.7-2-2.7-1.8 0-2.5 2-1.2 3.3 1 1 2 .8 3.2-.6zm8.2-.7c.5 0 1-.7 1-1.6 0-2.2-4.5-1.4-5 1-.2 1.4.1 1.7 1.4 1.3 1-.4 2.1-.7 2.6-.7zm-15-2.5c3.5-1.8 3.8-3.5.6-3.5-3 0-6.2 2.4-5.3 3.9 1 1.4 1.1 1.4 4.7-.4zm-31.1-1c0-.8-.4-1.5-1-1.5-.4 0-1 .7-1.4 1.5-.3 1 0 1.5.9 1.5.8 0 1.5-.7 1.5-1.5zm58.8.5c3.3 0 2.8-2-1.8-6.8-3.7-4-4.2-4.2-7.7-3.6a9.6 9.6 0 0 0-5.6 3c-1 1.3-2.7 2.4-3.7 2.4-2.3 0-3.4 2.9-1.4 3.7 1 .3 2.8 0 4.3-1 3.6-2 9.1-1.2 9.1 1.5 0 1.6.5 2 2.3 1.4 1.2-.3 3.3-.6 4.5-.6zm-72.2-5.4c1.2-4.9 1-6.6-.6-6.6-.9 0-4 8.4-4 10.8 0 .7.7 1.2 1.6 1 1.1-.2 2.2-2 3-5.2zm88.5 3.2c0-1.6-.3-1.9-1.2-1-.6.5-.8 1.5-.4 2.1 1 1.7 1.6 1.3 1.6-1.1zm-6.2-8.8c-1.2-1.6-2.6-3-3-3-1.8 0-.7 3.7 1.9 6.5 2.2 2.4 2.8 2.6 3 1.3.2-1-.6-3-1.9-4.8zm13.3-.5.3-3.7c0-.7-.7-1.4-1.7-1.6-1.4-.3-1.7.4-1.7 3.7 0 3 .4 4.1 1.5 4.1.9 0 1.5-1 1.6-2.5zm-24.2-6.7c0-1-.4-1.8-1-1.8-1.4 0-2.3 2.7-1.5 4.7.6 1.5.8 1.5 1.6.3.5-.8 1-2.3 1-3.2zM91.5 335c0-.5-1-1.1-2-1.4-2-.5-2.7.3-1.4 1.6 1 1 3.4.9 3.4-.2zm89-7.6c0-1.4 1-2.4 3.2-3.2 1.8-.7 3-1.7 2.7-2.5-.8-2.2-4-1.5-5.7 1.3l-3.9 6c-3 4.6-2.8 5.4.8 2.7 1.7-1.2 3-3.1 3-4.3zm-97.8 2.3c-1.5-1.5-2.7-.4-1.8 1.8.5 1.3 1 1.5 1.8.6.9-1 .9-1.5 0-2.4zm119-.8c1.5 0 1-2-.7-2.7-.9-.3-2 0-2.5.8-1.3 2.1-1 3.2.7 2.5.9-.3 2-.6 2.5-.6zm42-.5c3.8-2 4-4.5.2-4.5-3.3 0-5.2 1.6-5.2 4.2 0 2.2 1.2 2.3 5 .3zm-127-3.1c6.2-.2 12-2 13.2-4 2.2-3.8 3.6-9 3.3-12.6 0-2.1-.3-3.8-.6-3.8l-6.9 3c-3.5 1.7-7 2.9-7.9 2.6-2-.8-.7-2.3 3.4-3.7 4.6-1.5 10.3-4.8 10.3-6 0-1.3-.3-1.2-6.4 1.6-3 1.4-8.6 3-12.5 3.7-5 .8-7.2 1.7-7.6 2.9a10 10 0 0 1-2.5 3.4c-2.2 2-2.6 6.5-1 9.6.9 1.5 1.5 1.7 3 1 2.8-1.6 3.1-1.4 2.4 1.3-.5 2-.2 2.5 1.8 2.8 1.3.2 2.6-.1 3-.7.4-.5 2.7-1 5-1.1zm6.5-10.8c-.8-2 2-4.3 3.5-2.8 1.4 1.4.3 4.2-1.5 4.2-.8 0-1.7-.6-2-1.4zm-28.8 7.9c-1.5-2-6.5-2-7.3 0-.7 1.8 1.2 3.2 4.9 3.7 3.3.3 4.4-1.4 2.4-3.7zm138 2c.2-.9.3-1.8 0-2-.7-.8-6.8 1.6-6.8 2.6 0 1.6 6 1 6.7-.6zm11.2-3.5c1.2 0 2-.3 2-.7 0-1.4-3.3-4.3-5-4.3-1.6 0-4 3.8-4 6.7 0 1.4.3 1.4 2.5 0 1.4-1 3.4-1.7 4.5-1.7zm-146.4-6.5c1-2.9.9-3.7-.2-4.1a1.5 1.5 0 0 1-.8-2c.3-1-.2-1.4-1.5-1.4-1.2 0-2.4-.5-2.8-1-.4-.8-1.5-.3-3 1.1-1.8 1.7-2.4 3.3-2.4 6.3v4.1l4.8.3c4.8.2 4.9.2 6-3.3zm111.4-.5c0-.6-.5-1-1.2-1-2.1 0-4 1.7-3.4 2.9.8 1.3 4.6-.3 4.6-2zm9.9.7c.2-1.2-.4-1.7-1.8-1.7-1.1 0-2 .6-2 1.3 0 3.1 3.2 3.4 3.8.4zm15.7-1.7c.3-.6 0-1-.5-1s-1 .4-1 1 .1 1 .4 1 .7-.5 1-1zm-35-1.8c0-1.8-2-1.5-2.4.4-.3 1 .1 1.5 1 1.2.7-.3 1.3-1 1.3-1.6zm-5.6-8.2a9 9 0 0 0 3.6-1.7c2-1.2 2.2-1.8 1.2-2.4-1.9-1.2-2-1.2-7.2 2.2-5.2 3.5-7.4 7.3-5.5 9.5 1 1.1 1.7.6 4-3.1 1.6-2.5 3.3-4.5 4-4.5zm.8 6.2c.4-2.4-.7-2.9-2.6-1-1.8 1.8-1.5 4 .6 3.6 1-.2 1.8-1.3 2-2.6zm13.2-.2c0-.6-.6-1-1.4-1s-1.7.4-2 1 .2 1 1.4 1 2-.5 2-1zm-105.6-1c.3-.6-.3-1-1.5-1s-1.9.4-1.5 1 1 1 1.5 1 1.1-.5 1.5-1zm39.9-3.8c2-3.8 3.1-11.2 1.7-11.2-.6 0-1 .6-1 1.4s-1.6 2.7-3.6 4.2c-4 3.1-4.2 4-1.2 6.5 2.8 2.3 2.4 2.4 4-.9zm126.5-9.5c.2-.3-.8-1.2-2.3-2.2-2-1.3-3.8-1.6-8-1-3.5.4-5.4 1.1-5.4 2 0 .7.4 1.5 1 1.7 1.3.4 14.2 0 14.7-.5zm-59.2-2.5c1.7-1.6 1.7-1.7-.4-2-2.5-.4-5.5 1.5-4.6 3 .9 1.3 3.1 1 5-1zm6.4-5.7c0-.8-.7-1.1-2-.8-1 .3-2 1.1-2 1.8 0 .8.8 1.1 2 .8 1.1-.3 2-1.1 2-1.8zm31-3.7c5.7.3 7.2 0 6.9-1-.3-.8-2.9-1.5-7.4-1.8-8.2-.6-8.9-1-11.5-6.1-2.2-4.3-4-4.4-4-.3 0 3 1.5 6 4.4 9.2 1.7 1.8 2.3 2 3.1 1 .8-1 3.2-1.2 8.4-1zm-33.7-.8c1.4-1.1 3-2 3.5-2 1.5 0 4.5-3.8 3.8-4.9-.4-.7-1.4-.7-3 0-2 1-2.9.9-4 0-.9-.8-1.4-1.6-1.1-2 .2-.4-1-.5-2.6-.3-2 .3-3.8 1.6-5.4 4-1.4 2-2.5 4-2.5 4.4 0 1.3 3.4.8 5.5-.7 2.4-2 3.5-1.9 3.5 0 0 .8-.4 1.5-1 1.5s-1 .4-1 1c0 1.5 1.5 1.2 4.3-1zm16.7-.4c0-.3-.4-.8-1-1.1-.5-.3-1-.1-1 .4 0 .6.5 1.1 1 1.1s1-.2 1-.4zM172.1 264c2.8-.6 3-1 3.6-6.6.3-3.3.2-6.4-.2-6.9-.7-.8-4.6 1.8-9.3 6.1a13 13 0 0 0-3.6 8.3c0 1.6.3 1.7 3.2.8l6.3-1.7zm32.4-8.7c.3-1.6.1-1.7-1.3-.5-1.9 1.6-2.1 3.4-.3 2.8.7-.2 1.4-1.2 1.6-2.3zm8.1-13.2c0-2.8-1.1-6.2-2-6.2-.6 0-1 1.8-1 4 0 2.9.4 4 1.5 4 .8 0 1.5-.8 1.5-1.8zm8-4.3c0-1-.4-2-1-2s-1 1.2-1 2.6c0 1.5.5 2.3 1 2 .6-.4 1-1.5 1-2.6zm-75-6c0-1-.7-2-1.4-2-2 0-3 3.2-1.5 4.2 1.7 1 2.8.2 2.8-2.2zm68.7.9c-.3-.8-.5-.6-.6.6 0 1 .2 1.7.5 1.3.4-.3.4-1.2.1-1.9zm-57.7-5.8c-1.1-2-1.4-2.1-2.8-.6-1.5 1.4-1.5 1.7.3 3 2.5 1.9 4 .4 2.5-2.4zm63-1c0-3-3-5.7-5-4.5-2 1.2-1 6 1.3 7 3 1.5 3.7 1 3.7-2.5zm-51.6-.6.6-2.5 1.9 2.2c1.1 1.5 2 1.8 2.5 1 1-1.6-3-5.1-6-5.1-2 0-2.4.5-2.4 2.8 0 4.7 2.3 5.8 3.4 1.6zm42.1-7.4c-1.3-1.3-1.5-1-1.5 2.1 0 2 .3 3.9.8 4.3.4.4 1-.5 1.4-2 .6-2 .3-3.3-.7-4.4zm-32.5-2c0-2-.5-3-1.5-3s-1.5 1-1.5 3 .5 3 1.5 3 1.5-1 1.5-3zm13-.6c2.8-2 5-4 5-4.4s-1.1-1.5-2.5-2.4c-1.4-1-2.5-2-2.5-2.6s1.7-2.5 3.8-4.4c2.8-2.7 3.3-3.6 2-3.6-1 0-3 .7-4.3 1.6-2.2 1.4-2.5 1.5-2.5 0 0-.8.5-1.8 1-2.2 1.6-1-.3-2.6-2.2-1.9-.8.3-2.5 2.4-3.8 4.6-1.9 3.5-2.2 5-1.7 9.8.6 5.6 1.5 9 2.3 9 .2 0 2.6-1.5 5.4-3.5zm27.7.1c-.3-.8-1-1.5-1.6-1.5-1.5 0-1.3 2.7.2 3.3 1.7.6 2 0 1.4-1.8zm-17.8-9.9c1.4-1.6.5-2.6-2.6-2.6-1.6 0-2.3.6-2.3 2 0 2.3 3.1 2.7 4.9.6zm6.1-11.3c0-2-.3-2.4-1.1-1.6-.6.6-.9 1.9-.5 2.7.9 2.4 1.6 1.9 1.6-1.1zm-18.1-2.3c1.5-.8 4-7.4 4.1-10.5 0-1.1 1.1-4.4 2.5-7.4 2.2-4.8 2.5-6.6 2.4-16v-24.3c.1-8-.2-14-.8-14.3-1.1-.6-1.3.6-3.6 18-2 16.1-5.3 35-7 40.5-1.2 4-3.5 14.2-3.5 15.6 0 .6 3.7-.4 5.9-1.6zm22.1-4.6c0-.8-.4-1.3-1-1s-1 1.1-1 1.6c0 .6.5 1 1 1s1-.7 1-1.6zm-15-2.2c-.1-2.4-.2-2.5-1-.7-1.2 2.7-1.2 3.5 0 3.5.6 0 1-1.3 1-2.8zm12.6-4c-1-1-1.8.6-1 2 .6 1 .9 1 1.2 0 .2-.8.2-1.6-.2-2zm1.7-14.7c-.3-1.4-1-2.8-1.6-3.2-.6-.4-.8 0-.3 1.1.3 1 .6 2.4.6 3.2 0 .7.4 1.4.9 1.4s.6-1.2.4-2.5zm-4.8-19.5c-.4-2.7-1-5-1.6-5-1.2 0-1.1 2.5.3 7.1 1.5 5.2 2.2 4.2 1.3-2zm-4.1-6.5c.3-.8 0-1.7-.4-2-.6-.4-1 .3-1 1.4 0 2.4.6 2.7 1.4.6zm9-45.5c1.2 0 1.2-.7 0-3.8-1-3.3-1.6-3.7-4.5-3.7-2.4 0-3.5-.5-3.7-1.8-.2-1-1.5-2-2.9-2.4-2-.5-3 0-4.4 1.8-2.3 2.9-2.3 3.4-.1 7.8 1.3 2.6 2.8 4 6.2 5.1 4.5 1.6 4.5 1.6 6.4-.7 1-1.3 2.4-2.3 3-2.3zm-7.2 687.3c.5-2.6 3.8-2.9 3.8-.3 0 1.4-.6 2-2 2-1.5 0-2-.5-1.8-1.7zm33.6-27.9c-1.1-1-.9-7.2.3-7.9 1.6-1 4 2.7 3.7 5.5-.2 2.5-2.6 3.9-4 2.4zM213.6 744c0-.6 1.4-1 3-1s3 .4 3 1-1.3 1-3 1-3-.5-3-1zm22-2.5c-1.3-1.7-.5-3.5 1.6-3.5 1.6 0 2 3.5.6 4.4-.5.3-1.5-.1-2.1-1zm-20.7-3.7c.5-1.6 6.6-1.8 7-.3.1.5-1.5 1.1-3.6 1.3-2.9.2-3.8 0-3.4-1zm-2.3-7.4c-1.2-1.4-.8-1.5 4.1-1.3 6.4.4 7.3 2.2 1.3 2.7-2.8.2-4.5-.2-5.4-1.4zm31.8-.4c-2-1.1-5-2-6.7-2-3.2 0-4.9-1.6-3.3-3.2.7-.7 3-.6 6.7 0 7 1.4 11 3.2 11 5.2 0 2.2-3.5 2.2-7.7 0zm-91.2-5.6c-1-2.6 1.1-4.6 3.5-3.4 1.1.6 3.9 1 6.2.9 6-.4 8.7 0 8.7 1 0 .4-2 1-4.3 1.4-13.9 2-13.4 2-14.1.1zm56.8.4c-.3-.5.4-1.9 1.5-3 2.5-2.3 2.7-3.7.6-4.5-2.1-.8-1.8-3 .5-3.6 3.1-.8 10.2.4 9.7 1.6-.2.7-1.6 1.4-3.2 1.7-3.7.6-4.2 4.3-.7 4.8 2.4.3 3 2 1 2.6-3.5 1-8.8 1.3-9.4.4zm.6-16.3c0-1.3 1.4-1.5 7.1-1.5 5.2 0 7 .3 6.7 1.2-.3.8-2.9 1.4-7.1 1.5-5.5.3-6.7 0-6.7-1.2zm-1-5.5c0-.5 1.7-1 3.7-1.2 4.6-.4 5.4-2.4 1.4-3.3-4.5-1-2.7-2.6 3-2.6 4 0 5 .4 5 1.8 0 1 .2 2.8.6 4 .6 2.2.3 2.2-6.6 2.2-3.9 0-7-.4-7-.9zm.7-10.7c-1.6-1.6-.4-2.4 3.8-2.4 2.8 0 4.7-.5 5.2-1.4.7-1.1 1.2-1 3.2.5 1.2 1 2 2.4 1.7 3-.7 1-12.8 1.4-14 .3zM154.2 681c-3-.7-5.6-3.5-4.3-4.8.4-.4 2.2-.2 4 .5a24 24 0 0 0 6.8 1.1c4.2 0 5.3.9 3.7 2.7-1.1 1.4-5.2 1.6-10.2.5zm101-1.2c-1-1.5.4-3 3-3 2.4 0 5 2.3 3.8 3.4-1 1-6.1.8-6.8-.4zm13.5-.5c0-.8.7-1.5 1.5-1.5s1.5.4 1.5 1c0 .4-.7 1-1.5 1.4-1 .4-1.5 0-1.5-.9zm-18-8.5a1 1 0 0 1 2 0 1 1 0 0 1-2 0zm-37.4-8.6c-1.8-1.8-.2-2.4 5.8-2.2 3.6.2 6.7.8 6.8 1.3.3 1.2-11.5 2-12.6 1zm-25.8-.6-.3-4.3-1.6-15.5c-1.6-14.4-1.8-20.4-.5-20.7.6-.2 1.5 5 2.2 12.5.7 7 1.7 15.6 2.2 19.1 1 6.4.6 9.1-1 9.1-.5 0-1 0-1-.2zm65.6-2.1c-1-2.7 1-19 2.4-19.4 1-.4 1.2 1.7.8 9.9-.2 6.2-.8 10.4-1.5 10.6-.6.2-1.4-.3-1.7-1.1zm-37.8-4.3c-1.6-1.7-.4-2.4 4.4-2.4 3.6 0 5 .4 4.7 1.3-.5 1.3-7.9 2.3-9 1.1zM247 637c.7-2.4 18.7-4.5 19.5-2.3.5 1.4-2.5 2.2-12.1 3-6.5.5-7.8.4-7.4-.7zm60.3-1.3c-2.7-2-1.6-2.8 5.2-3a40 40 0 0 0 8.1-1.1c2.6-1 3.2 1.4.8 3.4-2.4 2-11.8 2.4-14 .7zm-158.6-2c-2.4-3-.7-3.8 8.7-4.2 7.2-.3 9.3 0 9.3 1 0 .8-2.4 1.7-6.3 2.5l-8.3 1.7c-1.2.3-2.7-.2-3.4-1zm127.8-.3c-.4-.4-.7-1.3-.7-2 0-1.6 4.6-1.8 5.6-.2 1.1 1.8-3.3 3.8-5 2.2zm20.7-11.9c-.3-1.3-.3-4.2 0-6.2.5-2 1-7.1 1.4-11.2.6-6.4 1-7.2 2-5.8 1 1.2 1.3 3.3.8 7l-1.2 12c-.6 7-1.9 8.7-3 4.2zm-107-12.6c-1-3.3-4.7-60.3-4-64.3 1.1-8 2.2-5.8 2.3 4.6 0 5.8.6 10.6 1.3 11.4.6.8 1.2 6.8 1.4 14.7.2 7.3.7 17.8 1 23.4.5 7 .4 10.3-.4 10.8-.6.4-1.3 0-1.5-.6zm182-10c-1-1-.8-1.5 1-2.5 2-1.1 2-1.3.4-2a4 4 0 0 0-3.6 1c-1.6 1.5-2 1.5-3 .2-2-2.3-.6-4.6 2.6-4.6 1.6 0 3.5-.4 4.3-1 2.4-1.4 5 .7 5 4.2 0 4.5-4.1 7.3-6.8 4.6zm-190-6.3a9.5 9.5 0 0 1 0-4.3c.2-1 0-5-.5-8.9s-1-17-1-29.4c0-12.4-.7-29.9-1.5-39-3-34-3.8-52.6-2.7-54.6 1-1.7 1-1.7 1.6.6.3 1.4 1 13.3 1.4 26.5.7 18.4 1.3 24.8 2.4 27 1.3 2.5 1.6 7.1 1.6 24.7 0 12 .3 30.3.7 40.8.5 13.7.4 19-.4 19-.6 0-1.3-1-1.7-2.4zm32.2.8c-1.2-1.2-.7-2.2 1.3-2.9 1.2-.3 1.8-1 1.6-1.4-.6-.9 15.1-2.4 26.5-2.6 4.9 0 8.6-.7 10.7-1.8 1.7-1 3.7-1.7 4.2-1.7 1.7 0 1.2 2-.7 2.7-1 .4-3 1.5-4.4 2.5-2 1.4-4.3 1.8-10.6 1.6-4.5 0-8.7.3-9.4 1s-4.5 1.2-8.4 1.5c-3.8.3-7.7.9-8.5 1.2-.9.3-1.9.3-2.3-.1zm60.4-.3c-6.2-.7-8-1.5-8-3.6 0-1.6 2.5-2 3.4-.6.3.5 5.3 1.3 11.1 1.7s10.5 1 10.5 1.4c0 .7-8 2.2-10.4 1.9l-6.6-.8zm37.5-1.1c-.7-1.2 2.8-2.6 8.6-3.3a40 40 0 0 0 7.3-1.6c7.2-2.8 7.6-.2.4 3.2-5.4 2.6-15 3.6-16.3 1.7zm37 0c-1-1.7.6-3 4-3 3 0 5.6 1.5 5.6 3.2 0 1.2-8.8 1-9.5-.2zm-9.5-3.3c-.8-1.7-.8-5.8 0-14.5.6-6.7 1-12.6.8-13.3-.1-.6.3-1.3.9-1.5 1.9-.7 2.4 5.3 1.4 15.4-.9 8.1-.8 10 .5 12 .9 1.2 1.3 2.7 1 3.3-1.1 1.7-3.5 1-4.6-1.4zM139 586c-.3-.5-.3-1.6 0-2.4.5-1.2 2.3-1.4 10.3-1 12 .6 13.4 1 10.7 3-2.2 1.5-20 2-21 .4zm122.6-5c0-.4.7-2.5 1.5-4.5.9-2 1.3-4.1 1-4.6-.8-1.3.4-7 1.5-7 1.2 0 1.8 8.1.8 11.8-.8 2.9-4.8 6.6-4.8 4.4zm-44.8-5.3c.4-1.4 9-2.3 11.6-1.3 2.9 1.1-.8 2.5-6.7 2.5-3.8 0-5.2-.3-5-1.2zm-3-7c-.8-1.5 0-1.7 8-2.4 5.1-.4 7.7-.3 8.2.5.4.6 0 1.3-.6 1.6-2.8.9-15 1.1-15.5.3zm1.4-8.4c-1.8-1.9 0-2.4 6.6-2.2 4 .2 7.2.8 7.2 1.3 0 1.2-12.7 2-13.8 1zm49.4-2.4c-1.2-2.2-.7-5 .8-5 1.2 0 2.1 6 1 6.6-.4.3-1.2-.5-1.8-1.6zm81-1c0-.6.5-.8 1-.5s1 .8 1 1c0 .3-.4.5-1 .5s-1-.4-1-1zm-29.7-6.2c-7-1-11.3-3.3-11.3-5.8s1.5-2.5 4.1 0c1.2 1 4.3 2 7.1 2.5 6.1.8 24.3.5 31.6-.4 5.8-.8 8.6 0 6.6 2-.6.7-5.3 1.3-10.5 1.6l-15.8.7a74 74 0 0 1-11.8-.6zm-99.4-1c0-.4.7-1.1 1.6-1.4 1.1-.5 1.2-1 .3-2-.9-1.1-.5-1.4 2-1.4 2 0 3 .5 2.9 1.3-.2.8 1.2 1.3 4 1.5 3.2.3 4.2 0 4.2-1.1 0-1.8-3-3-5.3-2-1.2.4-1.5.1-1.1-1 .8-2-2-2.9-7.2-2-2.8.3-4.4.2-4.4-.5 0-2 11-2.6 21-1.2.1 0-.3.7-1 1.6-2.6 3.1.4 3.9 15.3 4 7.9 0 16.5-.3 19.3-.7 3.5-.4 5.9-.2 7.8.8 3.4 1.7 14.6 2 17.5.5 1.6-.9 2.3-.8 3.2.3 2.8 3.4-11.2 5.7-18.9 3.2-4-1.3-8.7-1.6-23.3-1.5-10 .1-18.6.6-18.9 1-.8 1.1-19 1.8-19 .7zm-70.8-3.5c-9.3-.3-10.3-.5-10.3-2.2 0-1.1.4-2.2 1-2.5.4-.3 7 0 14.4.6 10 .9 13.7 1.6 13.7 2.5 0 .7-.7 1.3-1.4 1.3l-4.3.4c-1.6.2-7.5.1-13.1 0zM218 531l-4-.6 3.4-.7c4.8-1 16.2-1 16.2.1 0 2.1-6.7 2.6-15.6 1.2zm86.3-1.8c-.8-.8-.9-4.6 0-6.7 1-2.5 2.3-.8 2.3 3 0 3.2-1 5-2.3 3.7zm-87.1-6c-1-1.7 3.1-2.7 11.2-2.6 6.8.1 9.2.6 8 1.8a58 58 0 0 1-19.2.7zm5-7.2c-2.2-.3-4.2-1.2-4.5-2-.4-1.1.7-1.3 5.9-.7 6.8.7 7.5 1 6.5 2.6-.7 1-1.7 1.1-8 .1zm-34.1-1c-.3-.4-.1-2.2.3-4a40 40 0 0 0 0-12.3c-1.4-14.6-1.2-21.7.6-22.4.9-.4 1.8-.4 2-.1.8.7.7 25.1 0 33-.7 6.2-1.6 8-3 5.9zm116-3.4c-1-2.4.6-4.3 1.8-2.2.6 1.1.6 2-.1 2.8-.8.7-1.3.6-1.7-.6zm-36.5-2.1c-.7-.9-1-2.2-.6-3 1-3 6-1.1 5.4 2-.4 2.4-3.1 3-4.8 1zm-43-2.5c-1.3-.3-2.6-1.1-2.8-1.8-.2-.7 1.9-1.1 6.7-1.1 3.9 0 7 .4 7 1 0 .4-1.3.8-2.9.8s-3.2.5-3.6 1c-.6 1.1-.9 1.1-4.4.1zm89-5.5a158 158 0 0 0-16.7-2.1c-10.2-.7-13-1.5-12-3.2a51 51 0 0 1 14 .6c7.3.8 17.9 1.5 23.5 1.4 9.5 0 10.6-.2 14-2.6 4-2.9 4.8-2.8 3.8.2-.7 2.3-9.5 6-16 6.6-2.2.2-7-.2-10.6-1zm-73.1-2c-.4-.4-13-1.3-21.3-1.5-1.6 0-2.5-.5-2.2-1 1-1.6 40.6-1.1 40.6.4s-15.8 3.4-17.1 2zm125.2-.3c-2-.2-4.1-.6-5-.9-1.3-.4-1.3-.6 0-1.4 1.9-1.2 10-1.2 11.9 0 1.7 1 .6 3-1.7 2.9l-5.2-.6zm-231.3-1.8c0-2 .9-2.3 10.4-3 7.4-.5 8.8-.3 9.3 1 .3.9.4 1.8.2 2-.2.1-4.7.5-10.1.8-7.8.5-9.8.3-9.8-.8zm138.1 1.1c-.2-.2-.2-3.4 0-7 .4-8.9 2.6-8.5 2.6.4 0 5.5-1 8.2-2.6 6.6zm75.2-4.2c0-.8.5-1.4 1.2-1.1 1.8.6 2.1 2.7.4 2.7-.9 0-1.6-.7-1.6-1.6zm-133.2-3.8c0-2.2 3.1-2.7 15-2.4 6.8.2 10.5.7 10.8 1.5.3.8-2.3 1.1-9.4 1a93 93 0 0 0-13.1.7c-2.6.6-3.3.5-3.3-.8zm2.5-7.6c-.7-1.2 2-1.8 12.2-2.5 6.6-.5 9.3-.4 9.8.5.4.6.6 1.3.4 1.5-.9.7-22 1.2-22.4.5zm129.1-7.3c-.3-.8-.6-6-.7-11.6-.2-8.5 0-10 1.3-9.8 3 .5 3.8 20.5 1 22.3-.6.3-1.3-.1-1.6-1zm-122.8-.7c-10.3-.9-6.1-2.1 7.7-2.2 12.3-.1 17.1.5 13.5 1.6-2.4.8-15.2 1.2-21.2.6zm48.3-11.4c0-5.1.4-8.7 1.1-9.2 2-1.2 3 2 2.5 8.6l-.6 7.8c0 .7-.7 1.2-1.5 1.2-1.2 0-1.5-1.6-1.5-8.4zm-54.7-3.7c-.7-1.3 1.1-1.7 10.1-2.3a413 413 0 0 0 14-1.2c4.7-.5 5.7-.4 5.4.7-.3 1-2.8 1.6-7.4 2-14.2 1.4-21.5 1.6-22 .8zm-52.8-8.6c-1.2-1.2-.6-3.3.9-3.3.8 0 1.5.7 1.5 1.5 0 1.6-1.5 2.8-2.4 1.8zm118.5-2.5c-1.2-.4-2-1.3-1.7-2 .2-.9 3-1.3 8.6-1.4 7.6-.1 10.5.7 8.5 2.6a36.5 36.5 0 0 1-15.4.8zm-12.8-.4a2.5 2.5 0 0 1-1.2-2c0-1 .8-1.4 2.7-1.2 1.7.2 2.8 1 2.8 1.8 0 1.6-2.1 2.2-4.3 1.4zm61 0c-1.4-.4-2.1-1.1-2-2 .3-1.4 2.5-1.6 13.8-1.7 8.8 0 13.6.3 13.8 1 .2.6 0 1.4-.5 1.7-1.3.8-22 1.5-25 1zM220.7 447c0-1.3 2-1.8 4.8-1.3 1.8.4 2 .7 1 1.3-1.7 1.2-5.8 1.1-5.8 0zm33-1.6c0-1 1-1.5 2.6-1.5s2.5.6 2.5 1.5-1 1.5-2.5 1.5-2.5-.6-2.5-1.5zm52.2-.2c-2.2-1.5-2.3-2-1.7-8.6.8-7.7 1-8.2 2.7-7.2.8.5 1 2.5.6 6-.5 4-.3 5.6.9 6.5 3.3 2.8 1 5.8-2.5 3.3zm-73.6-.3c-.4-.5-4-1-8.1-1-13 0-8-1.7 6.7-2.3 9-.4 14.9-.2 16.1.4 3 1.6 1.3 2.3-4.6 2-3-.1-5.7.3-6.1.8-.8 1.4-3.2 1.4-4 .1zm-113-2c-5-4-2.4-7.3 2.7-3.7 2.6 1.9 3.3 2 7.5.8 7-1.9 16.7-2 16.7 0 0 1-1.7 1.6-7 2-4 .3-8.3 1-9.9 1.7-4 1.8-7 1.5-10-.9zm67-4.2c-.5-3.3-2-15.6-3.2-27.5-.6-6 0-10.3 1.5-10.3.6 0 4.2 34 4.1 39.3 0 3-1.9 1.9-2.4-1.5zm42.5-1.4c0-1.3-1-1.5-5.7-1.2-3.6.2-5.8-.1-6-.8-.6-1.5 6.2-2.3 20.1-2.5 13.5-.2 15.6 1.6 3.1 2.6-6.3.6-8.5 1.1-8.5 2.1 0 .8-.7 1.4-1.5 1.4s-1.5-.7-1.5-1.6zm-91-2.7c-1.3-1.5.2-4.2 1.7-3.3 1.4.9 1.5 3.3.3 4-.5.3-1.4 0-2-.7zm81-6.3c0-.8 1-1.4 2.7-1.5l17.4-.5c9-.3 15 0 15.3.5 1 1.5-4 2-20.7 2.5-12.1.3-14.8.1-14.8-1zm86.7-4c-.4-.4-.7-1.7-.7-3 0-1.2-.6-3-1.5-3.7-1.7-1.7-2-10.2-.5-11.2.6-.3 1.2 0 1.4.7 2 7 4.7 16.5 4.7 17 0 1-2.5 1-3.4.1zm-85-2.2c-4.4-.5-3.2-2.2 1.7-2.2 5.3 0 7.6-.7 7.6-2.6 0-1.4-.7-1.5-8.3-1.8-4.8-.1-5.4-2-.8-2.4 6.9-.7 26.2 1 25.8 2.2-.3.7-3 1.1-6.8 1.1-5 0-6.4.3-6.4 1.5 0 1.3 1.6 1.5 10.2 1.2 7.2-.3 10.3 0 10.3.7s-.6 1.4-1.3 1.6a326 326 0 0 1-32 .7zm-82.4-4.2c-.9-2.8 1.2-5.1 2.6-3 .5.8.8 2.2.7 3-.4 2.3-2.5 2.3-3.3 0zm2-10c-.4-.6-.2-1.6.3-2.2.7-.6 1.3-.6 1.7.2a2 2 0 0 1-.2 2.2c-.7.7-1.3.6-1.8-.2zm80.6-.4c0-1.4 1.7-1.6 11.8-1.8 15.8-.2 19.7.1 18.2 1.6-.2.2-7 .8-15.2 1.2-13.3.6-14.8.5-14.8-1zm-3.8-5.6c.3-.8 3.3-1.3 9.4-1.4 5-.2 13-.6 18-1 6.5-.6 8.7-.5 8 .3-1 1-3.5 1.3-24.4 2.7-8.9.5-11.3.4-11-.6zm4.2-4.3c-.3-.5-.4-1-.2-1.2.2-.2 6.2-.6 13.4-1l18-1c4.9-.6 11.4.9 10.2 2.2-.6.6-13 1.2-32.6 1.6a27 27 0 0 1-8.8-.6zm56 .6a2.2 2.2 0 0 1-1.3-1.8c0-2 24-2.6 24.8-.6.3.7-.1 1.7-.9 2.2a95 95 0 0 1-22.6.2zm33-2c.3-2 7.6-3.7 9.2-2.2 1.7 1.6-1.6 4-5.6 4-3.3 0-4-.4-3.7-1.8zm25-2.3c-1.2-.5-2.2-1.3-2.2-1.8 0-1.4 2.6-3.3 3.4-2.5.7.8 26.9.5 31.2-.3 3-.5 7.4 1.2 7.4 3 0 1.2-2.6 1.5-15.1 1.6-8.4 0-16.8.2-18.8.5s-4.6 0-5.9-.5zm-225.5-1c-3.1-.3-4.6-1-4.8-2.2-.3-1.5.9-1.6 12-1.2 11.1.4 16.5 1.6 12.8 2.8-2.5.8-15.2 1.2-20 .6zm157.3-1.2a63 63 0 0 1-1.4-3.9c-.5-1.4-3.6-1.7-22.2-2.3-21.9-.7-24.6-1-24.6-2.7 0-.6 3.7-.7 8.8-.4l25.7 1c9.3.3 17.2.8 17.5 1 .3.4 0 1-.9 1.5-1.1.7-1.2 1.4-.2 3.5 1.2 2.7.9 4.5-.9 4.5-.5 0-1.3-1-1.8-2.2zm-125 .5c-2-.7-1.5-2.3.7-2.3 1.2 0 2 .4 2 1 0 1.2-1.2 1.8-2.7 1.3zm84.9-2.2c0-.5.7-1 1.7-1.3 3-.8 34.3.4 34.3 1.3 0 .5-8.1 1-18 1s-18-.5-18-1zm116-4.2c0-1 .5-1.7 1-1.4s1 1.3 1 2-.4 1.5-1 1.5-1-1-1-2zm-12.5-12.2c-.9-2.3 1-7.2 2.7-7.2 1.8 0 1.3 5.4-.6 7.4-1.3 1.3-1.5 1.2-2-.2zm2.2-14c-.3-1.2-.8-4.1-1-6.5-.6-3.7-.4-4.3 1-4 2.3.4 3.7 5.1 3 9.4-.8 3.9-2.4 4.5-3 1.2zm-58.2-5.4c-14.5-.4-17.1-.8-14.1-2.5 1.8-1 31.3-.3 34.3.9 2.5 1 .2 2.3-3.5 2l-16.7-.4zm-144.3-4-1-2.5c-.3-.4.2-.5 1-.2 1.9.7 2.9 3.2 1.6 4-.5.3-1.3-.3-1.6-1.3zM90.6 344c-2.4-1.5.7-2.4 5.7-1.6 3.7.6 4.3 1 2.7 1.6-2.7 1-6.7 1-8.4 0zm106-6c1.1-2.2 2.9-3.6 3.6-2.9.5.6-3 4.8-4 4.8-.4 0-.2-.9.4-2zm170.2-5c0-1.1.5-2.3 1-2.6s1-3.3 1-6.5c0-5.4 1.2-8.2 2.8-6.6 1.3 1.4 1 10.3-.5 13.9-1.7 4-4.3 5-4.3 1.8zm-119.1-25.1c0-.6 1.7-1 3.7-1.1h36c1.3 0 2.3.5 2.3 1.1 0 .6-7.7 1-21 1s-21-.4-21-1zm-98.6-2.7a3 3 0 0 1 .8-3c1.1-1.2 1.5-1.2 2.6.1 1.5 1.9.7 4.6-1.3 4.6-.8 0-1.7-.8-2-1.7zm112.6-2c-18.7-.6-15.8-2.3 3.9-2.3 13.4 0 17.2.3 16.9 1.2-.5 1.4-3.5 1.6-20.8 1zm82.5-8.2c-3.7-1.7-5.4-3.6-5.4-6.2 0-1.5 1.9-1 5 1.3 2.7 2 4.2 2.1 16.7 2.2 11.5 0 13.8.3 13.8 1.6 0 3.3-23.2 4.2-30.1 1zm-192.3-1.7c-.7-1.8.6-4.6 2.4-5.2 1.5-.4 3.6 3.5 2.9 5.4-.8 2-4.6 1.8-5.3-.2zm185.8-9.2V272c0-10.6 1-14.8 2.5-12.3a71 71 0 0 1 .7 22.4c-1 2.6-3 3.8-3.2 2zm-180.8-2.7a5 5 0 0 1 0-3c.9-2.2 5-1.5 5.5.9.6 3.1-4.3 5-5.5 2.1zm8-8.7c.5-1.8 2.7-2.2 2.7-.4 0 .9-.7 1.6-1.6 1.6-.9 0-1.4-.5-1.2-1.2zm16.7-18.6a39 39 0 0 1 4-15.6c1.2-1.3.4 10.2-1 15.6-1.7 6.1-3 6.1-3 0zm116.3-.8c.3-1.5 1.3-2 4.4-2l8-.8c2.4-.3 4.6 0 5.3.6.7.8 1.5.8 2.4 0 .7-.5 4.3-1.2 8-1.5 5.2-.5 6.7-.3 7.1.8.9 2.2-1 2.8-9.7 3-4.5.1-12.1.6-17 1-8.3.7-8.8.6-8.5-1.1zm44.1.4c-3.4-1.2-4.3-3.4-1.6-4 3.4-.6 15.8.7 16.1 1.8.3 1-1.1 1.5-8.7 2.8-1.4.3-4 0-5.8-.6zm-54.7-.6c-.4-.4-11.8-1-25.2-1.3-19.8-.4-24.8-.8-26-2-1.3-1.4.3-1.5 14.3-1.5 8.7 0 17.4 0 19.3-.3 2-.2 5.9 0 8.8.4 5.2.8 5.2.7 5.2-1.9 0-1.6.6-2.6 1.5-2.6.8 0 1.5.6 1.5 1.4s1.1 2.8 2.5 4.4a15 15 0 0 1 2.5 3.6c0 .9-3.5.7-4.4-.2zm98.5-1.1a2 2 0 0 1 1-1.6c1.2-.8 4.1.5 3.5 1.6-.8 1.2-4.5 1.1-4.5 0zm-140.6-8c-15.4-.7-18.7-2.3-6.5-3.2l7.5-.5-6.2-.2c-4.1-.2-6.5-.7-7.4-1.8-1.2-1.4.9-1.5 21.7-1l23.7.6c.4 0 .7.7.7 1.6 0 .9 1 1.8 2 2.1 1.2.3 2 1 1.7 1.7-.4 1.3-15.2 1.5-37.2.6zm27.5-3.1c-2-1.3-18.3-1.3-17.5 0 .3.5 4.7 1 9.8 1 6.3 0 8.7-.3 7.7-1zm-19.7-.7c-.7-.2-2-.3-3 0s-.5.5 1.2.5c1.6 0 2.4-.2 1.8-.5zm31.7-3.4c-1.4-2.6-.9-6.4 1-6.4.7 0 1.8 1.2 2.3 2.8 1.6 4.9-1 7.8-3.3 3.6zm-43-2.7c-5.7-.4-8.2-1.2-7.5-2.3.4-.7 4-.8 10-.3 5.1.3 10.2.3 11.2-.2 1.2-.6-2.4-1-10.5-1.4-7.4-.3-12.2-.9-12-1.5.1-.6 3-1 6.3-1.2l7.8-.2c1 0 1.5-.6 1.2-1.1-.4-.6-4.1-1-8.4-1-4.7 0-8.2-.5-9-1.2-.6-.7-1.1-3.2-1.1-5.6 0-4 .1-4.4 2.2-4 1.2.4 3.2.3 4.2-.2 2.7-1 5.6-.1 5.6 1.6 0 .8 1.1 1.9 2.5 2.4s2.4 1.5 2.2 2.2c-.1.8 1.1 1.4 3.5 1.6 2.5.2 3.8.8 3.8 1.7 0 .8-.5 1.5-1 1.5s-1 .4-1 1 1.2 1 2.7 1c3.5 0 5.8 1.4 4.9 2.9-.5.7.8 1 4.2 1 5.6 0 9.3 2.6 5 3.5-2.2.5-19.3.4-26.8-.2zm.2-12.9c-.7-.3-1.8-.3-2.5 0s-.1.5 1.3.5 2-.2 1.2-.5zm43.4 3.4c-.2-.6-.7-4-1-7.5-.4-4.9-.3-6.2.8-6.2 1.8 0 3.6 7.4 3 11.7-.6 3.3-2.1 4.4-2.8 2zm-278-14.5c0-1 .7-2.2 1.5-2.5 3-1.2 34.3-2 36.2-1 1.6 1 1.7 1.2.4 1.7a194 194 0 0 1-23 2 94 94 0 0 0-10.8 1c-3.8.8-4.2.7-4.2-1.2zm64.3-1.4c-8.4-1.6-4.4-2.8 9.1-2.8 9.8 0 11.8.2 11.8 1.5 0 1.1-1.3 1.5-5.8 1.5a62 62 0 0 0-7.7.4c-1.1.2-4.5 0-7.4-.6zm24.6.5c-1.3-1.3-.7-2.3 1.4-2.3 1.1 0 1.9.5 1.7 1.2-.5 1.4-2.2 2-3.1 1.1zM55 208c-.3-.6-.1-1.3.4-1.6 1.5-.9 5.2.4 4.5 1.6-.7 1.2-4.2 1.2-5 0zm61.2.2c-.3-.5-.6-5.6-.6-11.3 0-10.8-.2-12.5-2.6-32-3.7-30-3.8-31.1-2.7-32.2 2.6-2.6 3.3.8 4.7 22.7.3 3.8 1 9.5 1.5 12.5 1 6.1 2.4 24.5 2.5 33.2 0 5.2-1.5 9.2-2.8 7.1zm140.5-.6c0-1.2 2-1.7 10.6-2.2 6.7-.5 11-.4 11.6.2 1.6 1.7 0 2-11.5 2.8-9.3.7-10.7.6-10.7-.8zm84 .3c-.7-.5-3.1-1.2-5.2-1.7-4.7-1-4.5-2.8.3-2.8h3.5l.1-18 .3-20.4c.2-4-.7-4.4-7.8-3.6-6.8.8-18.2.8-19 0-1.5-1.5 2.6-2.5 12.4-3 15.7-1 14.7-.2 13.9-10-.7-9.1.1-12 4.2-13.6 3.6-1.3 30.8-2.7 39-2 1.6.2 12.8 0 25-.4 31.4-1.2 62.5-1 63.8.4.6.6.8 1.4.4 1.8-.4.4-14.6.7-31.5.8a1537 1537 0 0 0-97.6 2.4c-.5.5-.4 2.3 0 4.2.9 3.1 1 3.2 1.7 1.1.4-1.2 2-2.5 3.4-3 2.4-.6 16.8-1 23.2-.5 1.4 0 22.6-.2 47-.7 28.1-.5 47-.5 51.1.1a188 188 0 0 0 19 1.4c17 .5 28.4 1.5 29.6 2.5.5.4 2.6 1 4.5 1.1 4 .4 5.3 3.1 2.3 4.7-1.3.7-3.3.5-6.8-.7a41.1 41.1 0 0 0-20.6-.2 6 6 0 0 1-5-.5c-1.7-1-4.4-1.2-9-.8-3.9.4-7 .2-7.3-.3-.6-1-27.8-.8-63.7.6-11.9.4-29.3.7-38.8.5l-17.2-.2v3.6l-.7 12.6a103 103 0 0 0 2.2 26.5c.2.2 22.8.5 50.2.6 27.4.1 50 .3 50.3.4.2 0-.1.6-.7 1.2-.9.9-14.9 1.2-51.3 1.3-46.2 0-50.2.2-51.8 1.8-1.4 1.4-1.4 1.8-.3 1.7 8-.2 97.5 1.2 97.9 1.5.2.2 0 1-.3 1.6-.6 1-7.6 1-29.4.4-33.2-.9-49.7-.8-63.8.1-8.5.6-10.3.5-11.7-.9-2.3-2.3-2.9-2-2.5 1.1l.3 2.8h10.5c23.8.3 47 1.7 47 3 0 1.7-12 2.3-21.8 1a43 43 0 0 0-13.5.3c-7 1.3-23.4 1.4-25.7.2zm6-13.3c.5-1.4.3-3.7-.6-6.2-1-2.6-1.5-8-1.4-15.3 0-6.2-.4-11.2-.8-11.2-1.2 0-2.2 19.2-1.4 27.7.4 5.2 1 7.3 2 7.3.7 0 1.7-1 2.2-2.3zm-3.2-45.5c-.3-1-.5-.4-.5 1.3 0 1.6.2 2.4.4 1.7.3-.6.3-2 0-3zm97.1 59.2c-1.7-1.8-.4-2.5 4-2.2 2.7.1 4.8.7 4.8 1.3 0 1.2-7.7 2-8.8.9zm15 0c-3-1-1.8-2.6 1.6-2.2 1.8.1 3.1.7 3 1.3-.2 1.1-2 1.5-4.5.8zM141 207.1c-2.9-.6-5-3-3.7-4.4.6-.6 2.1-.5 4.2.2 2.7 1 7.4.8 14.7-.3 4.4-.7 2.2 1.7-3.2 3.3-5.8 1.8-7.8 2-12 1.2zm150.6.1c-1.6-1.5-.7-2.4 2.5-2.4 1.8 0 6-.7 9.2-1.6 11.4-3 10.8-2.9 10.4-.8-.3 1.3-2 2.3-5.4 3.3-6 1.7-15.7 2.5-16.7 1.5zm-50.5-1.2c-1.2-.8-3-6.2-2-6.2.3 0 1.8 1 3.2 2.4 3.2 3 2.3 6-1.2 3.8zm-14.1-1.4c.5-1.5 2.7-1.8 2.8-.3 0 .5-.7 1.1-1.6 1.3-1 .2-1.5-.1-1.2-1zM10 202c-1.4-1.6-1.8-11-1.8-35 0-11.4-.4-18.3-1.4-22.2-.8-3.1-1.5-8.2-1.5-11.2 0-3.8-.5-5.9-1.6-6.8-4.2-3.5 6.8-4.3 57.5-4.1 21.1 0 38.7.3 39 .6 1.4 1.4-2 1.8-20.5 2.2-55.7 1.2-70.4 1.7-70.4 2.4 0 1.7 6.8 2 50.8 2.3 24.4.2 44.5.6 44.7.8 2.1 2.5 3 7 3.3 17.9a328 328 0 0 0 2 25c2.4 19.3 2.8 29 1.2 29.1-.8 0-23.6.2-50.8.2-41.3.2-49.6 0-50.5-1.2zm42-3.2c1.8-.7 3-.7 3.7 0 1.8 1.9 3.7 1.2 3.7-1.4 0-1.8-.6-2.5-2-2.5-2.6 0-3.6-1.9-1.4-2.7 2.3-.8 5.4-3.9 5.4-5.3 0-1.9 3.7-8.4 5.9-10.4 1.1-1 2-2.3 2-2.8s-2-4.2-4.4-8.3c-6-9.9-6-13.1.5-11.6 1.6.4 3.1 2 4.5 4.8 2.4 5.2 4 5.4 5.5.8 1.2-3.6 4.3-5.4 7.5-4.2 2.2 1 1.8 2.9-2 9.3-2 3.1-3.5 6-3.5 6.5s-1 .9-2.1 1.2c-2 .5-1.9.9 2.1 5.6a21 21 0 0 0 6.7 5.7c2.6.7 2.7.8 1.2 3.4-1.7 3.4-4.7 2.3-8.5-3-4-5.4-6.5-6.6-5.7-2.6.5 2.4-1.9 7-4.7 9.3-2 1.5-1.3 1.7 8 1.7 6.8 0 7.5.3 7.6 2 .3 5.5.3 5.6 3.6 5.5l10.8.1c11 .2 10.9.3 7.9-2.3-2.2-1.8-2.8-3.6-3.7-10.2a175 175 0 0 1-1.3-16.5 249 249 0 0 0-1.4-22.7c-.5-6.4-1-8.4-2.4-8.8-2.2-.6-51.8-1.2-67.8-.8l-13.2.4.4 6.7c.3 5.5.5 22.4.3 28.2-.1 3 1 9.6 2 12.3.6 1.6.9 3.2.6 3.7-.8 1.2.6 4 1.9 3.8.6-.1 2.3.1 3.9.5 2.3.6 2.6 1.1 2.1 3.2-.6 2.3-.4 2.4 5.3 2.7 8.8.4 18-.1 21-1.3zm-17-1.6c-.4-.3-.7-1.5-.7-2.5 0-1.5.8-1.8 4.8-1.7l4.7.2-4 .6-4 .7 3 1.2c1.5.7 3.6 1 4.6.7 1-.3 2-.1 2.4.4.7 1.2-9.7 1.6-10.8.4zm-2.1-11c-1.3-1.1-1.5-2.6-1-6.3a19 19 0 0 0-.5-8.1c-.6-1.8-1.4-6.3-1.7-9.9-.8-8.6.4-10 8.4-10 10 0 10.7 2.6 1 3.9-6.7.8-6 2.6.9 2.4 3.9-.2 6-.7 6.8-2 1.4-1.9 2.9-.4 2 2-.6 1.6-3.5 2.2-7.8 1.7-1.2-.1-1.7.3-1.5 1.1.5 1.4 1 1.5 5.3 1.8 1.8 0 2.5.7 2.5 2 0 2.3-1.7 3.8-5 4.2-1.7.3-2.6 1.1-2.8 2.7-.5 3.3 1 4.5 6.5 5.1 6.2.8 8.3 3.7 5.4 7.2-1.2 1.4-2 1.8-2 1 0-1-1-1.2-3.1-.9-1.7.2-3.3 0-3.6-.4-.7-1.1-5.4-1-5.4.1 0 .5 1 1.2 2 1.6 3.2 1 2.4 2.5-1.4 2.5-1.9 0-4.2-.7-5-1.6zm9.4-19.3c0-.5-.4-1.2-1-1.5-.5-.4-1 0-1 1 0 .8.5 1.5 1 1.5s1-.4 1-1zm33.3 30.8c-2-1.2-5.4-2.2-8.7-2.4-5.4-.3-5.4-.3-4.4 2s1.7 2.4 8.7 2.5H79zm32.4-4.6c-.2-1-.7-7.1-1-13.7-.8-14.5-1.6-19.9-2.6-17-1.1 3.3-.5 24.7.9 28.7 1.2 3.7 3.7 5.5 2.7 2zm-35.7-26.6c-1.3-1.4-2.3 0-1.5 2 .6 1.6.8 1.6 1.6.4.5-1 .5-1.9 0-2.4zm32.6-15.7c-.5-8.7-.9-10-3-10-1.9 0-1.9 1 0 5.5.9 2 1.3 4.6 1 5.7-.8 2.4.2 6.9 1.5 6.9.5 0 .7-3.4.5-8zm215.4 50.5c-.8-2 0-3.4 2-3.4.8 0 1.4 1 1.4 2.5 0 2.8-2.5 3.4-3.4.9zm164.6-.8c0-2.1 2-2.4 20.5-3 16-.3 18.5-.2 18.5 1.4 0 1.5-4.6 2-21.8 2.6-15.1.5-17.2.3-17.2-1zm-483-3.9c-1-6.4-.3-12.2 1.5-12.2 2 0 2.3 2.5 1.5 10.1-.8 7.4-2.1 8.3-3 2.1zm463 2.3c0-1.7.6-2 2.3-1.8 1.2.1 2.2 1 2.2 1.8s-1 1.6-2.2 1.8c-1.7.3-2.3-.2-2.3-1.8zm-8.3.3c-.8-.8.1-2.3 1.4-2.3.5 0 1 .7 1 1.5 0 1.5-1.2 2-2.4.8zm-300-4.2c-.6-1.1-1-5.9-1-10.6 0-7.3.2-8.6 1.5-8.3 1.2.2 1.6 2.4 2 10.5.5 10.2-.2 12.6-2.5 8.4zm335.2-1.2c-1.8-1.2 3.3-3 8.5-2.9 5.5 0 8.9 1 8.4 2.4-.4 1.3-14.9 1.7-16.9.5zm-27.5-1.7-1.4-4c-1.3-3.2-1.2-14 .1-14.8 3-1.8 4.3 4.7 2.6 13.4-.8 4.2-.8 4.3 1.5 4 2.3-.3 2.3-.4 2-11.2-.2-12.1.3-13.6 5.4-13.6 1.7 0 3.7-.7 4.4-1.4 1-1.2.3-1.5-4.2-1.8-2.9-.2-9-.2-13.5 0l-8.3.4v3c0 4.2-2.4 3-2.7-1.3-.2-1.9 0-4 .5-4.6 1.2-1.9 29.3-2.8 31.7-1 2.4 1.8 2.3 7.2-.1 9.9-1.5 1.6-2.6 1.9-6.2 1.4-3.7-.5-4.2-.4-3.7 1.1.3 1 1 6 1.6 11.2 1.3 10.6 1 11-5.3 11-2.8 0-4-.4-4.4-1.7zm-227-.3c-.3-.8-.7-4.8-1-9-.3-4-.9-8.9-1.2-10.7-.8-3.9.8-4.3 3-.9 1.9 2.8 2.4 19.3.7 21-.7.7-1.2.6-1.5-.4zm83.9-2.3c-.9-2.2 0-6 1.3-6.4.9-.3 1.3.9 1.3 3.7 0 4-1.5 5.5-2.6 2.7zm183-1.5c-3-1-6.5-2.7-7.8-4-2.6-2.5-4-10.3-2.6-14.1 2-5.2 13.8-13.5 18.3-12.9 2.9.5 3.2 3.2.4 3.7-1.1.3-3 1.4-4.1 2.6l-5.2 4.8c-3.2 3-4.8 7.4-3.7 10.7.8 2.6 10.7 8.1 13.3 7.4 2.4-.6 4 1.5 2 2.8-1.9 1.2-4.6 1-10.7-1zm-122.8-3c-.3-.6.6-2.3 2-4 3-3.5 3.1-5.1.4-5.1-3.1 0-2.3-2.7 2.7-9.1 5.4-6.9 8-7.6 8.6-2.4.4 4.2-1 7.9-4.7 12a47.9 47.9 0 0 0-4.3 5.7c-1.8 3-3.9 4.2-4.7 2.8zm8.8-13.1c1.9-3.2.8-4-1.8-1.4-1.6 1.6-2.1 4.4-.8 4.4.5 0 1.6-1.4 2.6-3zm128.3 12c-.3-1.1-1.5-2-2.6-2-2.1 0-2.3-.4-1-2.9.7-1.2.4-3-1-6-2.5-5.6-2.4-6.1.6-6.1s6.7 3.7 6 6.2c-1 2.7.4 6.3 1.8 4.9 1.9-1.9 3.7-1.2 3.7 1.3 0 1.4-1 3.3-2.6 4.5-3.3 2.6-4 2.6-4.9 0zm-142-.1c-.9-.6-2.4-2.7-3.2-4.7-1.7-4-9-16.8-11.2-19.3-1.5-1.9-.7-5 1.3-5 .7 0 2.5 1.7 4 3.6 1.8 2.3 3.5 3.5 5.2 3.5 2.2 0 2.4.3 2 3-.3 2.2 0 3.1 1.4 3.5 2.3.8 3.3 4.2 1.8 6-1 1.2-.8 2.2.5 5 1.9 4 1 6-1.7 4.4zm53.3-1.1v-2c0-.4-.6-.8-1.4-.8-1.9 0-2-2.6-.1-3.7a4.2 4.2 0 0 0 .8-6.7c-3-2.6-5.5-1-4.9 3 .7 4.3-1.9 4.7-2.8.5-.8-3.9 1.1-6.8 5.3-8.2 1.8-.6 3.6-1.7 3.9-2.5.8-2 2.8-1.7 6.1 1 3 2.5 4.5 6.7 3.5 9.3-.6 1.6-3 1.7-3.6 0-.3-.7-.6-.3-.6 1 0 1.1.7 2.4 1.7 2.8 1.5.6 1.3 1-1.3 3.1-4.6 3.8-6.5 4.7-6.6 3.2zm-12.6-1.8c-4.8-2.9-6-8.5-3.3-14.8 1.3-3 3.4-5.5 5.6-7 7.2-4.6 8.6-1.7 2.4 4.8-4.1 4.2-4.5 5.4-3.4 10.8.4 2.2 1.6 3.5 4 4.7 2 .9 3.2 2 2.9 2.5-1 1.6-4.8 1.1-8.2-1zm89.2-2.4c-.9-2.3 0-7 1.3-7.4.8-.2 1.3.6 1.3 2.3 0 1.4.5 3.5 1 4.5.9 1.7.7 2-1 2-1.1 0-2.3-.7-2.6-1.4zm-184-.3c-.3-.4-.6-2.6-.6-5 0-3.2.4-4.3 1.5-4.3 1 0 1.5 1.1 1.5 4.4 0 4.3-1 6.3-2.4 4.9zM457 169c-1.9-1.2-.4-3.1 2.4-3.1 1.3 0 2.7.5 3.1 1 .7 1.2-1.2 3-3 3a5 5 0 0 1-2.5-1zm-296.6-2.6c-.3-.3-8-.8-17-1.1-16.2-.6-19.4-1.2-17-3.6.9-1 5.7-1 21.6 0 13.7.8 21.4.8 23.1.2 5.5-2.1 7.7-.2 2.7 2.3-3 1.6-12.4 3.1-13.4 2.2zm359.4-1.4c-2-1.9-2.4-4.1-1-4.1 1 0 4.2 4.3 4.2 5.4 0 1-1.5.4-3.2-1.3zm-276.6.2c-1.1-.2-2.7-.7-3.5-1-2.8-.9 1.2-2.3 6.8-2.3 2.9 0 6.8-.7 8.8-1.5 3-1.3 3.4-1.7 2.4-3.4-1.6-3-1.4-3.1 4.2-3.1 3.8 0 4.9-.3 3.8-1-.8-.6-4-1-7.2-1-5.4 0-5.8-.2-6.4-2.6-.8-3.2.7-4.3 5.6-4.5l9.3-.4c4-.2 6 .1 6.4 1 .2.7 2.4 1.8 4.8 2.4 4.9 1.2 7.5 4.1 7.5 8.2 0 3.5 2.3 4.2 9.6 3.3 3.7-.4 6-.3 7 .6 2.4 2 .6 3-5.9 3-3.4 0-9.5.5-13.6 1-8.6 1-9.9.6-10.7-2.6-.8-3.3-3.6-3.1-11.5.5a32.6 32.6 0 0 1-17.4 3.4zM1.4 156.4c-1.5-1.8-2-18.3-.5-18.7.5-.2 1.3 2.8 1.6 6.7a94 94 0 0 0 1.3 9.6c.9 3-.6 4.5-2.4 2.4zm268.4-19.7c-1.4-3-1.7-4.6-1-5.3 1.5-1.5 5 3 5 6.6 0 4-1.5 3.6-4-1.3zm240.7 1.2c-.4-.7-.3-1.6.3-2.2.6-.7 1.2-.6 1.7.2.4.6.3 1.6-.3 2.2-.6.6-1.2.6-1.7-.2zm5.5-1c0-1.7.5-2 2.3-1.8 1.2.1 2.2 1 2.2 1.8s-1 1.6-2.2 1.8c-1.8.2-2.3-.2-2.3-1.8zm-331.6-.8c-.6-2.1 0-4.2 1.3-4.2.5 0 1 1.3 1 3 0 3.2-1.6 4-2.3 1.2zm295.3 1c-1.5-.2-2.7-1-2.7-1.8 0-1.7 6.6-2 9-.4 1.3.9 1.3 1 0 2-.9.5-2 .9-2.5.8l-3.8-.5zM491 136a1 1 0 0 1 2 0 1 1 0 0 1-2 0zm10-1c0-1.5.5-2 1.7-1.8 1 .2 1.8 1 1.8 1.8s-.8 1.6-1.8 1.8c-1.2.2-1.7-.3-1.7-1.8zm-373.5-6a70.8 70.8 0 0 1-21-3.8c-1.9-2.2.5-2.5 9.7-1.3 16.2 2 20 2.2 20.8 1 .4-.8-.1-2.1-1.3-3.2-2.2-2-2.9-5-1.2-5 .6 0 2.9 2 5.2 4.2 3.5 3.5 4.5 4 7.2 3.5 1.7-.3 8.6-.9 15.3-1.3 13.3-.7 21.8.1 21.1 2-.2.8-5.2 1.4-15.3 1.9-8.2.3-20.1 1-26.4 1.5-6.4.4-12.7.7-14 .5zm185.3-.4c-8.7-1.3-10-1.8-10-3.4 0-1.4 1-1.5 7.2-.8 4 .5 8.8.8 10.8.8l17.8-.3c8-.2 14.6 0 14.9.2 1.7 1.7-2.4 2.5-15.5 3.1-8 .4-15.9.8-17.2 1s-5-.1-8-.6zm-63.4-1.5c-1.8-1.7-.2-2.4 5-2.1 7.7.4 8.6 2.8 1 2.8-3 0-5.7-.3-6-.7zm21.8-.3c-1.1-1.9 0-2.2 10-3.3 7-.7 10-.7 10.8.2 2 2-.5 2.8-10.4 3.5-6.8.5-10 .3-10.4-.4zm23.3-6.6c-1-1 2-9 3.4-9 1.3 0 1.4 2.1.3 7.3-.5 2.1-2.4 3-3.7 1.7zm-61.7-8.7c-1.7-1.7-1.5-13.7.2-13.7 1.6 0 2.7 4.2 2.7 10 0 4.2-1 5.5-2.9 3.7zm-102.5-2.4c-.4-1.6-.4-7.1 0-11 .2-.8.9-1.3 1.7-1.3 2.9 0 3.2 13.2.4 13.8-1 .2-1.9-.5-2.1-1.5zm166-5c-.2-.6-.7-3.3-1.1-6.1l-.7-5.2h-9.1c-11-.2-16.9-1-17.4-2.8-.4-1 3.3-1.2 16-1.2 18 0 18.4-.1 19.6-6 .4-1.8 1.1-3.1 1.7-3.1 1.7 0 1.6 3.7 0 5.5-3 3-1.2 4.6 5.4 4.6h6l.3-4.3c.2-3 .7-4.3 2-4.5 1.5-.3 1.8.4 1.8 4.2 0 3.7.3 4.6 1.8 4.6 2.6 0 6 2.6 4.7 3.8-.9.8-18 .1-27-1-2.1-.3-2.2 0-1.2 9.6.2 2-1.8 3.3-2.7 1.8zm37.2-8c-1.2-1.1-.8-4.3.5-4.4l5.3.1 8.5.4c3.8 0 4.5.4 4.5 2 0 1.9-.8 2-9 2.3-5 .2-9.5 0-9.8-.4zM222 92.8c-1.4-2.3 1.5-2.9 17.6-4 9-.5 17-1.2 17.7-1.4.8-.3 1.3-2.2 1.3-4.4 0-4.2 1.6-6.3 3.1-4 1.3 2 1 9.3-.3 11-1.3 1.6-2.1 1.7-30.5 3.4-5.4.4-8.4.2-8.9-.6zm-110-1.1c-7.3-.7-10.2-2.2-7.6-3.9.9-.5 3.3-.6 5.5-.2 2.2.4 11.8.6 21.3.4 15.3-.3 17.3-.2 17.9 1.3.3 1 .4 1.9 0 2.2-.7.8-29.2 1-37 .2zm-23.6-2.4c0-1 .7-1.4 1.7-1.3 2.5.5 2.8 2.9.4 2.9-1.2 0-2.1-.7-2.1-1.6zm64-1c-1.4-3.9-1.1-7 1-9.6 2.9-3.5 4-1.4 3.2 5.6-.7 6.5-2.5 8.3-4.1 4zm13.3 2c-1.6-.8-1.6-3 .1-3.7 2-.8 4 .8 3.4 2.7-.7 1.6-1.3 1.8-3.5 1zm6.8-7.4c0-.6.4-1 1-1s1.2.4 1.5 1c.3.5 0 1-1 1-.8 0-1.5-.5-1.5-1zM256 60.5c-1-4.2 0-11.1 1.6-11.1 2.2 0 2.7 12 .6 12.8-1 .4-1.8-.1-2.2-1.7zm-6.7 0c-1.2-3.2-1.8-10.4-1-11 1.9-1.1 3.7 2.4 3.7 7.1 0 4.4-1.6 6.8-2.7 4zm-58.6-10.8a3.6 3.6 0 0 1 .9-5.8c2.4-1.4 12.6-1 12.2.5-.2.5-2.3 1-4.7 1-7 0-7.2 1.4-.3 2.9 1.5.3 2.7 1 2.7 1.6 0 1.4-9.3 1.2-10.8-.2zm21.1-.5c-2.5-1-1.1-2.3 2.5-2.3 4.9 0 8.4 1 7.7 2-.6 1-8 1.2-10.2.3zm-94.6-1.6c-.8-2.3.4-3.7 3-3.7 3.7 0 5.7 1.4 5 3.4-.8 1.9-7.3 2.2-8 .3zm186-.7c-1.1-.5-5.3-1-9.3-1-6.4 0-7.3-.3-7.3-2 0-3.5 11.5-4.2 19-1.1 5.4 2.2 6.8 5.1 2.4 5-1.6 0-3.7-.5-4.8-1zm-87-2.7c-1.3-1.3.6-2.3 4.4-2.3 2.9 0 4 .4 4 1.5 0 1-1.1 1.5-3.9 1.5-2 0-4.1-.3-4.5-.7zm50.8-.6c-1-1.6.9-2.7 4.5-2.7 3.5 0 6.1 1.3 6.1 3.2 0 1-10 .6-10.6-.5zm48.7-3.3c0-2.8 11-4.6 15-2.4 4.3 2.3 2.1 3.5-6.5 3.6-6.4.1-8.5-.2-8.5-1.2zM199.2 24.7c-2.9-14.6-2.9-15-1.4-16.5 1.4-1.3 1.8-.8 3.8 4.6 1.8 4.7 2 6.8 1.4 9.7-1 4.3-3 5.5-3.8 2.2zM158.6 6.3c-1.2-2.8-1.7-5.1-1.2-5.7.5-.5 3.1-.7 5.8-.5 4.2.2 4.9.6 4.8 2.3 0 2 .4 2 10.9 1.6 10.3-.4 10.9-.3 10.6 1.5-.3 1.6-2 2-11.4 3-6 .6-12.5 1.4-14.2 1.8-3.2.8-3.3.7-5.3-4zm85.6 3.4c-10.4-1.2-11.6-1.6-10.8-3.5.5-1.3 1.5-1.4 5.7-.8 2.8.4 9 1 13.6 1.4 7 .5 8.5.9 8.8 2.3.3 1.5-.4 1.7-5 1.6-3 0-8.5-.5-12.3-1zm21 .1c-1-1.5.1-2.3 2-1.6 1 .4 1.4 1.1 1 1.7-.8 1.3-2.2 1.2-3-.1zM131.6 7.5c-4.6-1-5.6-1.5-5.9-3.4-.4-3 2.3-4 6.2-2l5.9 2.6c1.8.7 2.5 1.6 2.1 2.6-.6 1.8-.9 1.8-8.3.2zm87.1-.5c-.6-.2-1-1-1-1.8 0-2.3 9.3-1.4 9.8.9.3 1.4-.4 1.7-3.7 1.5-2.2-.1-4.5-.4-5-.6z"/>
</svg>
