<?xml version="1.0" encoding="utf-8"?>
<svg xmlns="http://www.w3.org/2000/svg" version="1.1" viewBox="0 0 526 787">
	<title>Sketch of a brick or stone wall with a peg sticking out. Hanging on the peg are boots and a walking stick. The words “Ex Voto” are carved into the wall on either side.</title>
	<path d="m161.77 785.71c-2.0224-2.4343-4.2355-8.6185-3.2925-9.2006 1.2332-0.76133 4.0589 0.42252 6.2624 2.6237 1.0057 1.0046 2.6745 1.8266 3.7084 1.8266 2.6754 0 4.5286 2.4242 2.8882 3.7783-2.2981 1.8971-8.292 2.5061-9.5666 0.97201zm51.104 0.58807c-3.9823-1.6052 1.2529-7.9749 5.6274-6.8469 1.4479 0.37335 4.0968 0.64073 5.8864 0.59419 2.6006-0.0676 3.2539 0.31169 3.2539 1.8894 0 3.5891-9.6298 6.4343-14.768 4.3634zm17.771-4.2668c0-1.6109 0.60465-3.533 1.3437-4.2712 0.73903-0.73822 1.8812-2.3456 2.5382-3.5719 2.4055-4.4899 4.8145-1.6998 3.6922 4.2762-0.46582 2.4804-1.4973 3.9253-3.5645 4.9931-3.8812 2.0049-4.0096 1.9592-4.0096-1.4263zm-47.19-1.4185c-4.2296-3.8809-6.5709-11.693-4.8552-16.201 1.4702-3.8627 0.28649-6.9023-3.1997-8.2168-2.8121-1.0603-3.0056-1.4264-2.3506-4.4475 0.87403-4.0315 0.91204-6.1309 0.47615-26.295-0.23447-10.846 0.0728-17.694 0.95353-21.253 1.2313-4.9753 3.1021-7.1528 3.1021-3.6107 0 0.90197 0.70028 2.1515 1.5562 2.7766 1.8439 1.3468 3.6697 17.114 3.2677 28.22-0.1606 4.4375 0.19531 7.6794 0.9417 8.5777 0.93323 1.1233 0.92653 2.1689-0.0301 4.7052-1.125 2.9824-1.0287 3.4239 1.1269 5.1687 1.2963 1.0492 2.7606 1.6585 3.2539 1.354 0.49326-0.30455 0.89688-3.6148 0.89688-7.356 0-8.5265 1.0047-16.083 2.1385-16.083 0.47582 0 0.91235 3.938 0.97009 8.7511 0.10384 8.6555 0.11941 8.7074 1.4249 4.7506 0.72593-2.2003 1.3545-7.6976 1.3968-12.216 0.0657-7.0152-0.19352-8.3604-1.7737-9.2052-1.592-0.85109-1.7403-1.6598-1.0609-5.7859 1.2899-7.8338 1.041-18.143-0.51031-21.14-0.78071-1.5081-1.9071-6.2439-2.503-10.524-1.3184-9.4686-1.3206-9.6376-0.12771-9.6376 0.5257 0 1.2409 1.6877 1.5892 3.7505 0.34835 2.0628 0.88308 4.6432 1.1882 5.7343 0.51303 1.8342 0.62834 1.7965 1.5291-0.50007 1.2481-3.1822 2.8363-18.938 2.1407-21.236-0.29131-0.96262-1.2184-1.7502-2.0603-1.7502-1.3126 0-1.4458-1.4603-0.93495-10.251 0.32765-5.6382 1.0697-19.477 1.6489-30.754 0.57925-11.276 1.1937-20.953 1.3654-21.503 0.17173-0.55007-0.0596-5.5007-0.51402-11.001-0.88664-10.732-0.26029-19.678 1.2149-17.353 0.47137 0.74306 0.87085 4.5014 0.88771 8.3519 0.0168 3.8505 0.4674 7.676 1.0012 8.5011 1.1911 1.8411 1.1568 2.2258 1.1501-12.922-5e-3 -10.522-0.25925-12.564-1.665-13.349-1.4909-0.83347-1.6282-3.5438-1.3514-26.692 0.29445-24.626 0.39632-25.803 2.3061-26.656 2.5418-1.1344 3.8493-7.1023 3.1534-14.393-2.5501-26.719-3.5933-28.509-3.5933-6.1675 0 10.112-0.37502 16.169-1.0012 16.169-0.55066 0-1.0377-0.11251-1.0824-0.25003-0.0447-0.13752-0.28338-11.444-0.53054-25.125-0.24716-13.681-0.8681-25.656-1.3799-26.612-2.7935-5.2141-2.2893-40.025 0.57965-40.025 0.77656 0 1.4568 1.0126 1.5117 2.2503 0.0956 2.1558 0.1328 2.1453 0.8858-0.25003 0.73465-2.337 0.41459-8.716-0.59752-11.909-0.34054-1.0743-0.9411-0.87694-2.5363 0.83347-2.6852 2.8792-3.5594 1.8567-4.212-4.9266-0.29104-3.0254-0.83401-7.2183-1.2066-9.3177-0.55092-3.1041-0.29558-4.1724 1.367-5.7197 1.7759-1.6528 1.894-2.3009 0.899-4.9341-1.6341-4.3245-3.7101-3.8892-3.7101 0.77792 0 3.8663-2.6872 8.7336-3.6151 6.5481-0.26714-0.62919-1.2571-0.94248-2.1999-0.6962-1.3609 0.3555-1.97-0.65146-2.9556-4.8861-1.5029-6.4575-1.5664-8.7757-0.24019-8.7757 0.55066 0 1.0012 0.87355 1.0012 1.9412 0 1.0677 0.47927 2.2371 1.065 2.5988 1.382 0.85319 0.17374-5.8599-1.7004-9.4476-1.7784-3.4045-1.7267-8.2986 0.13474-12.749 0.82599-1.9748 1.5018-5.5831 1.5018-8.0186 0-6.1145 2.1918-9.9068 6.5575-11.346 4.7019-1.5501 5.3234-0.73697 1.5098 1.9756-3.3292 2.368-3.8292 4.6103-1.6822 7.5433 1.2968 1.7716 1.4966 1.6548 3.3534-1.9605l1.9744-3.8444 1.0999 3.1518c0.60495 1.7335 1.5213 3.1518 2.0364 3.1518s1.1906 0.97073 1.5012 2.1572c0.52293 1.9975 0.73124 2.0467 2.8148 0.66472 1.2376-0.82083 2.7255-2.3541 3.3066-3.4073 1.1567-2.0966 2.6116-3.376 3.8663-3.3998 0.44412-8e-3 0.0172 1.321-0.94858 2.9543-0.96584 1.6333-1.5056 3.2198-1.1995 3.5256 0.91707 0.91608 9.5149-3.1781 10.151-4.8337 0.32405-0.84359-0.31941-2.6877-1.4299-4.098-1.82-2.3112-2.7032-2.5642-8.9549-2.5642-3.8147 0-6.9357-0.37401-6.9357-0.83113 0-0.45711-1.1264-1.4333-2.503-2.1692-3.3681-1.8006-3.1571-3.6981 0.5006-4.5006 1.652-0.36245 3.0036-1.0733 3.0036-1.5797 0-1.4666-4.8238-1.0649-5.7072 0.47533-0.44036 0.76778-2.7279 2.3949-5.0833 3.6158-4.1002 2.1252-9.6549 7.9562-12.144 12.748-1.4687 2.8275-1.6158 18.676-0.45252 48.749 0.4894 12.652 0.55571 26.378 0.14736 30.504-0.88695 8.9607-0.74058 78.347 0.18051 85.569 0.35484 2.7821 0.28858 6.3825-0.14725 8.001-1.2356 4.5886-1.1201 54.379 0.16206 69.825 0.63346 7.6318 0.88022 15.508 0.54835 17.502-0.33188 1.9944 0.26473 14.203 1.3258 27.129 1.061 12.927 2.0121 27.103 2.1135 31.504s0.58179 10.099 1.0676 12.664c0.48581 2.5644 1.1916 8.7424 1.5684 13.729 0.60561 8.0139 0.48655 9.1423-1.0259 9.722-0.94106 0.36073-2.1273 0.24003-2.6361-0.26822-1.2844-1.283-2.9025-9.1113-4.2052-20.344-1.4391-12.41-1.3699-18.502 0.27237-23.971 1.1094-3.694 1.1218-6.64 0.0716-17.002-0.69867-6.8936-1.6546-18.16-2.1244-25.036-0.46974-6.8759-1.1181-13.627-1.4408-15.002-1.2924-5.5069-1.8173-74.488-0.64308-84.511 1.5296-13.057 1.7175-95.892 0.22634-99.763-0.83253-2.1609-1.7087-2.7504-4.088-2.7504-2.0244 0-3.0284-0.49733-3.0284-1.5002 0-1.0478 1.0568-1.5002 3.5042-1.5002 1.9273 0 3.5042-0.44148 3.5042-0.98107 0-1.277-3.5133-2.0013-8.4063-1.7331-2.388 0.13091-4.0706-0.271-4.3386-1.0363-0.31862-0.91017 1.2027-1.2502 5.5939-1.2502 3.3174 0 6.2959-0.42732 6.6191-0.94959 0.59738-0.96555-4.7396-2.2488-7.4777-1.798-0.82599 0.13599-1.7271-0.2028-2.0024-0.75287-0.2935-0.58637 1.674-1.1252 4.7557-1.3024 5.1868-0.2983 6.7594-1.4078 3.6726-2.5911-3.1196-1.1958-11.269-0.62674-12.791 0.89312-1.8601 1.8581-5.6496 1.9714-5.6496 0.169 0-1.7997 3.5773-3.4475 8.9203-4.1089 8.672-1.0735 6.5585-3.061-3.2552-3.061-8.1317 0-10.178-1.7427-2.9364-2.5003 3.0733-0.3215 4.6918-0.94361 4.5326-1.7422-0.18355-0.92074 1.4356-1.1343 6.2575-0.82544l6.5051 0.41672v-4.0085c0-2.7623-0.38908-3.879-1.2515-3.5918-0.68833 0.2292-1.2515 1.0358-1.2515 1.7926 0 0.75671-1.5769 1.7726-3.5042 2.2575-3.8393 0.96599-21.313 2.6946-21.876 2.1641-1.2278-1.157 1.6444-2.4637 5.4156-2.4637 4.8244 0 5.3996-0.55681 2.6942-2.6083-1.5178-1.1509-0.92303-1.3329 4.4463-1.3604 5.6087-0.0288 8.5012-1.1833 6.9205-2.7623-0.93561-0.93459-14.627 1.3151-19.627 3.225-20.034 7.6529-30.786 7.1287-42.301-2.0622-5.6793-4.5332-5.7567-4.6647-5.7416-9.7647 0.0169-5.7006 0.93703-7.933 3.08-7.4727 0.99768 0.21426 1.3706-0.61378 1.2751-2.8314-0.12665-2.941 0.11748-3.168 3.9597-3.6828 5.605-0.75099 6.3568 0.0658 2.4642 2.6772-3.6391 2.4414-4.818 6.6805-2.6068 9.3734 1.5174 1.848 12.721 9.2682 13.994 9.2682 1.3504 0 0.98164-1.7219-0.73628-3.4379-0.87023-0.86931-1.4104-2.0956-1.2003-2.7252 0.22078-0.66166 1.5705 0.0427 3.1988 1.6692l2.8168 2.8138-0.70997-3.4105-0.70998-3.4105 3.0418 3.2504c1.8598 1.9874 4.0128 3.2504 5.5408 3.2504 2.1639 0 2.5407-0.50178 2.8097-3.7422 0.39302-4.733 2.4756-5.2555 6.7217-1.6865 3.0292 2.5462 3.3785 2.6104 7.6683 1.4106 6.1662-1.7246 6.8462-3.3155 1.0457-2.4466-3.135 0.46962-4.6123 0.33422-4.6123-0.42277 0-0.61253 0.67581-1.1137 1.5018-1.1137s1.5018-0.45006 1.5018-1.0001-0.64922-1.0001-1.4427-1.0001c-2.5892 0-2.7425-1.9812-0.22728-2.9365 1.6158-0.61368 3.0522-2.4938 4.2011-5.4988 1.7514-4.581 4.3479-6.5865 2.9987-2.316-0.39103 1.2376-0.94611 3.4937-1.2335 5.0135-0.94448 4.9946 2.2422 2.0934 3.6264-3.3015 0.70026-2.7293 1.7346-4.9624 2.2986-4.9624 1.0251 0 0.70013-2.9514-0.68821-6.2508-0.95809-2.2769 1.1928-2.32 3.6777-0.0736 1.3965 1.2624 2.1387 1.3928 3.0047 0.5277 0.86601-0.86508 0.68552-2.0106-0.73066-4.6375-2.2595-4.1911-1.3214-5.6928 1.7899-2.8654 1.2368 1.124 2.8119 1.8383 3.5003 1.5875 1.7426-0.63509 1.5914 3.5366-0.25647 7.0758-1.7188 3.2921-1.934 5.6364-0.51751 5.6364 1.5586 0 3.7966-4.0969 5.1074-9.3493 1.1892-4.7653 1.1602-4.8885-1.6868-7.1613-3.5406-2.8264-2.5913-4.2296 1.6689-2.4669 2.6207 1.0844 3.2731 1.0656 4.0216-0.11541 1.2947-2.043 1.1265-3.4973-0.56671-4.9011-2.0611-1.7088-0.95852-3.0096 2.5511-3.0096 3.1159 0 3.9675-1.3941 1.4427-2.3619-2.2113-0.84762-1.8268-2.6387 0.56641-2.6387 2.8014 0 6.1343-1.8794 5.4097-3.0506-0.9122-1.4744-5.0895-1.1195-6.4768 0.55024-1.7287 2.0808-3.0036 1.8738-3.0036-0.48752 0-1.2222 1.5009-2.9342 3.8972-4.4453 2.1435-1.3516 4.8145-3.7444 5.9357-5.3173 2.2495-3.1558 6.4483-5.4915 12.973-7.217 5.5543-1.4688 4.511-3.3507-1.3692-2.4699-4.6122 0.69091-5.9131-0.67096-3.2152-3.366 2.441-2.4384-0.68737-1.1082-3.3206 1.412-2.516 2.4079-2.8971 2.4947-4.8746 1.1112-1.6962-1.1868-2.7524-1.272-5.0465-0.407-1.5957 0.60168-3.208 0.78762-3.5828 0.41321-1.2993-1.2979 1.5595-3.3552 6.5481-4.7121 5.5554-1.5112 8.8869-4.4772 14.578-12.979 3.4256-5.1174 3.5428-5.5424 1.8664-6.767-1.5902-1.1616-1.6417-1.6656-0.4636-4.5409 0.72885-1.7789 1.901-5.9346 2.6048-9.2351 0.7038-3.3004 2.0057-8.6831 2.893-11.962 1.6746-6.1868 2.1709-14.549 0.86253-14.532-0.413 5e-3 -1.788 1.6931-3.0555 3.7505l-2.3046 3.7407 0.53334-4.7506c0.79008-7.0374-0.93608-5.762-3.384 2.5003-1.1815 3.988-2.3376 7.8135-2.5691 8.5011-0.57262 1.7009-3.0194 1.5747-4.8461-0.25003-0.826-0.8251-1.7477-1.5002-2.0482-1.5002-1.2183 0-3.7004 6.3402-5.1186 13.075-1.218 5.7842-1.2903 8.3892-0.37778 13.624 1.2888 7.3927 0.4994 9.2363-3.125 7.2987-3.3475-1.7896-12.405-0.36489-15.795 2.4844-1.9995 1.6806-3.5562 2.1809-5.5824 1.794-2.7109-0.51767-2.8034-0.39983-2.6266 3.347 0.29833 6.3245 0.0827 7.2195-1.8898 7.8449-1.8876 0.59845-3.1189 4.839-3.6414 12.541-0.13063 1.9252-0.82217 5.3568-1.5368 7.6258-1.5321 4.8648-0.07 9.8507 3.1343 10.688 1.0562 0.27591 1.9204 1.0426 1.9204 1.7038 0 0.78495-0.87423 0.983-2.519 0.57063-2.0215-0.50682-2.693-0.17444-3.3999 1.6829-0.4845 1.273-1.6512 2.953-2.5926 3.7335-0.94143 0.78048-2.801 3.8795-4.1323 6.8866-1.8675 4.2183-2.692 5.1964-3.6086 4.2808-0.9166-0.91562-0.45378-2.6742 2.0256-7.6967 3.0943-6.2681 4.4399-14.348 2.1546-12.937-1.131 0.69822-5.066 9.0439-6.5536 13.899-0.59739 1.9498-2.2416 3.6283-4.903 5.0052-2.5677 1.3284-4.119 2.8772-4.3241 4.3173-0.3962 2.7811 0.28281 2.8135 3.6423 0.17376 1.7729-1.393 2.7668-1.6829 3.0332-0.88446 0.21796 0.65316-0.17378 1.5395-0.87052 1.9696-1.2187 0.7524-1.0765 2.3652 0.56036 6.3538 0.67335 1.6408 0.51339 1.7315-1.3224 0.7501-1.1486-0.61406-2.9468-1.1165-3.9959-1.1165-1.0631 0-2.4124-1.1068-3.048-2.5003-1.3003-2.8509-3.669-3.291-4.6046-0.85549-0.62271 1.621 1.3021 4.6135 4.5422 7.0619 1.6909 1.2777 4.8862 7.2919 4.8862 9.1967 0 2.1547-2.0635 1.0469-4.0073-2.1514-1.0865-1.7877-2.9612-3.4878-4.1662-3.7781-1.2966-0.3123-2.5888-1.741-3.166-3.5004-1.1414-3.4794-2.3216-4.4367-5.4954-4.4577-1.2746-8e-3 -4.4284-0.87078-7.0084-1.9164-2.5801-1.0456-8.7121-2.4541-13.627-3.13-10.731-1.4758-14.249-3.9336-13.192-9.2143 1.2228-6.1074 7.0238-20.304 9.3396-22.856 2.2981-2.5329 2.6068-2.5866 12.467-2.1718 12.002 0.50499 21.145-0.89555 29.356-4.4968 12.52-5.4911 13.325-7.6565 2.2343-6.0139-8.271 1.225-17.753 0.26656-17.753-1.7945 0-1.1503 2.1916-1.4367 11.264-1.4718 15.266-0.059 18.366-0.82018 23.7-5.8191l4.4272-4.1488-1.1377-6.2457c-0.74723-4.1022-0.82099-7.6315-0.2149-10.284 0.65157-2.851 0.5329-5.3498-0.40367-8.5011l-1.3265-4.4632-9.3936-0.0142c-8.9927-0.0136-9.4075-0.11092-9.7174-2.2798-0.32059-2.2431-0.24186-2.2588 7.9158-1.5792l8.2396 0.68642-0.61691-3.7975c-0.33929-2.0886-1.7945-5.5751-3.2338-7.7477-2.4329-3.6724-2.5024-4.0766-0.98844-5.7477 0.89567-0.98864 4.2927-2.9919 7.549-4.4516 6.7895-3.0437 7.4804-3.7872 6.0316-6.4914-0.66157-1.2348-0.69448-2.1798-0.0889-2.5537 0.5287-0.3264 1.6678 0.77143 2.5314 2.4396 0.86358 1.6682 2.0395 3.0331 2.6131 3.0331 1.38 0 0.11884-4.1722-1.6961-5.611-2.1985-1.7428-1.6709-2.3901 1.9483-2.3901 2.0775 0 4.037 0.75942 5.1612 2.0002 1.1241 1.2408 3.0837 2.0003 5.1612 2.0003 3.0328 0 3.349-0.27557 3.349-2.9186 0-3.9277 0.92468-6.0826 2.6101-6.0826 1.6036 0 1.8668-1.5907 0.41187-2.489-0.5733-0.35393 0.22347-2.7748 1.9122-5.8097 2.1231-3.8157 3.0573-7.1249 3.5036-12.411 0.76721-9.0873 2.0086-15.557 4.0864-21.296 0.89617-2.4753 1.7643-8.4333 1.9293-13.24 0.16491-4.8066 0.81425-9.3585 1.443-10.115 1.4369-1.7295 6.5356-31.154 5.7519-33.194-0.40388-1.0513-1.3429-1.3158-3.104-0.8743-1.8864 0.47295-2.525 0.24068-2.525-0.91838 0-0.8533-0.92579-3.1189-2.0573-5.0346-1.536-2.6004-1.98-4.8305-1.7521-8.7999 0.26837-4.6751 0.63752-5.4753 3.0585-6.6299 1.5143-0.72219 2.7533-1.7236 2.7533-2.2253 0-0.50172 1.5919-2.5024 3.5376-4.446 4.3995-4.3948 8.31-4.6184 16.507-0.94397 5.2435 2.3506 5.8885 2.9875 6.984 6.8961 1.3184 4.7039 0.76766 7.5659-2.2372 11.626-1.078 1.4565-1.9675 3.7155-1.9768 5.02-0.0531 7.492 8.4148 18.874 14.042 18.874 3.4702 0 6.1959-2.2313 6.1959-5.0721 0-3.7333 2.8118-2.0225 3.5156 2.1391 0.3784 2.2374 0.52437 4.2314 0.32436 4.4312-0.2 0.1998-2.8353 0.5612-5.8563 0.80312-6.645 0.53214-6.4119 2.1926 0.31111 2.216 2.6414 9e-3 5.1194 0.45925 5.5066 1.0001 0.98369 1.374 6.7298 5.327 9.4501 6.501 1.2469 0.53817 2.943 1.3978 3.769 1.9102 0.826 0.51247 3.6432 1.9045 6.2605 3.0934s4.5055 2.5709 4.196 3.0712c-0.88468 1.4299-15.223 1.1277-16.164-0.3407-1.0379-1.6205-7.2916-5.1008-7.9622-4.431-0.6086 0.60796-14.112-6.103-14.925-7.4177-0.30726-0.49663-2.7848-0.90296-5.5056-0.90296-5.4774 0-9.4771-2.719-8.5348-5.8019 0.75-2.4539-1.7037-12.462-3.1754-12.952-1.5134-0.50394-1.5946 4.2417-0.18399 10.753 2.9171 13.465 5.085 24.738 5.0966 26.503 7e-3 1.1001 0.48366 3.9076 1.0587 6.2388 1.2093 4.9026 2.6315 5.5443 16.583 7.4825 5.0047 0.69528 8.1319 1.572 7.9033 2.2157-0.46605 1.3122-11.392 0.98894-16.931-0.50096-2.1789-0.5861-4.1353-0.89218-4.3475-0.68019-0.66967 0.66897 2.3713 14.938 4.8482 22.749 1.8525 5.8418 2.7583 7.4344 4.0951 7.2002 1.1721-0.20536 2.2133 0.88703 3.2831 3.4447 1.4437 3.4514 1.4337 3.8425-0.12688 4.9824-1.2924 0.94401-1.6298 2.4969-1.4246 6.5566 0.14786 2.9258-0.0605 6.8948-0.46293 8.82-0.50367 2.4093-0.21987 4.72 0.91042 7.4126 1.1261 2.6828 1.4178 5.0399 0.92814 7.501-0.39273 1.9738-0.81913 8.5394-0.94755 14.59-0.12843 6.0508-0.63203 10.864-1.1191 10.696-1.8652-0.64419-6.2551-8.425-6.898-12.226-0.39547-2.3383-1.0964-3.7171-1.7003-3.3443-1.6019 0.98897-0.35488 9.6928 2.0487 14.299 1.1878 2.2765 2.1597 4.7845 2.1597 5.5733s0.99506 1.9662 2.2112 2.6164c1.2162 0.65019 2.9482 2.0912 3.8489 3.2024 3.3533 4.1367 6.7288-1.1313 3.9947-6.2344-0.5271-0.98385-1.2595-4.8923-1.6275-8.6854-0.56585-5.8322-0.45658-6.6959 0.70808-5.5964 1.4488 1.3677 1.552 1.7028 1.7526 5.6849 0.0688 1.3665 1.415 3.9266 2.9915 5.6891 2.8573 3.1944 2.8942 3.2037 11.74 2.9602 8.3043-0.22862 11.126-1.1891 9.7983-3.3351-0.2715-0.43882-2.2063-0.79785-4.2996-0.79785-6.2334 0-13.096-1.1998-13.096-2.2895 0-1.1284 40.257-0.36826 43.296 0.81753 4.2964 1.6764-0.30832 2.3766-11.803 1.7946-8.3112-0.42078-12.47-0.28715-12.47 0.40066 0 2.6255 3.3219 3.2373 19.012 3.5016 12.634 0.21281 16.468 0.58247 16.814 1.6213 0.36464 1.0953-2.5074 1.3079-15.436 1.1424-18.567-0.23761-19.647-0.1729-16.885 1.0124 1.1013 0.47275 7.8594 0.89806 15.018 0.94515 11.866 0.078 16.977 0.932 15.343 2.5637-1.2045 1.2032-47.193-0.92813-47.617-2.2068-0.26999-0.81373 1.4711-1.3147 5.4255-1.5611 5.7576-0.35876 5.7423-0.36495-1.3642-0.55195-8.6018-0.22633-10.849 1.1907-9.7583 6.1526 0.96681 4.3971 2.5763 6.6449 5.2418 7.3207 2.3915 0.60637 9.9712-0.0971 10.885-1.0102 1.3481-1.3466-1.234-2.651-5.248-2.651-2.4455 0-4.4463-0.45006-4.4463-1.0001 0-1.2591-1.9158-1.0644 16.019-1.6277 16.519-0.51884 30.704 0.47803 30.279 2.1278-0.16335 0.63326-6.0841 0.86707-16.141 0.6374-11.46-0.26173-16.086-0.0343-16.612 0.81663-0.40131 0.64865-0.4255 1.4832-0.0538 1.8546 0.37177 0.37136 7.0624 0.80499 14.868 0.96363 15.44 0.31378 19.1 0.76871 18.178 2.2592-0.37202 0.6013-6.5369 0.75892-16.163 0.41324-12.555-0.45089-15.478-0.30624-15.127 0.74882 0.30819 0.92879 3.1661 1.3798 9.8643 1.5566 11.356 0.29976 14.994 0.95815 12.882 2.331-1.9196 1.2479-30.347 1.493-36.242 0.31258-3.1511-0.631-4.341 1.1347-3.3697 5.0004 0.73971 2.9441 2.6673 3.7535 6.8857 2.8914 3.1243-0.6385 3.1514-0.68488 0.73994-1.2681-1.3766-0.33292-2.503-1.1622-2.503-1.8429 0-0.9332 5.7392-1.365 23.332-1.7554 12.833-0.28478 24.215-0.23773 25.295 0.10456 4.2491 1.3472 0.36161 2.6329-7.4365 2.4596-14.047-0.31224-16.866-0.0942-16.41 1.2692 0.3252 0.97292 6.7828 1.1683 29.118 0.8811 26.161-0.3364 28.7-0.22295 28.7 1.2824 0 1.5616-3.7886 3.7697-5.129 2.9893-0.92718-0.53981-23.674-1.3003-24.167-0.808-0.23286 0.2326 0.43325 2.9576 1.4802 6.0556 1.233 3.6482 1.5607 5.9753 0.93015 6.6051-1.5665 1.5648-2.8419 0.0745-3.5105-4.1019-1.0624-6.6368-2.0347-6.904-27.673-7.6046-9.0859-0.24826-19.06-0.75608-22.166-1.1285l-5.6459-0.67708-0.54698 4.379c-0.30084 2.4085-0.842 5.7703-1.2026 7.4707-1.1189 5.2766 1.7906 5.783 28.368 4.9369 20.254-0.64476 22.958-0.54692 24.138 0.87331 1.1376 1.3693 1.0591 1.5964-0.54588 1.5784-13.063-0.14616-43.575 0.83848-44.16 1.4251-0.42152 0.42259 0.29721 1.6297 1.5972 2.6825 2.0833 1.6872 4.1611 1.9246 17.521 2.0018 17.003 0.0983 26.329 1.0544 23.306 2.3893-1.025 0.45259-10.18 0.53974-20.344 0.19365-17.171-0.58468-18.457-0.50675-18.147 1.1004 0.30398 1.5779 2.2942 1.7297 22.677 1.7297 20.124 0 22.471-0.17388 23.625-1.7502 1.5721-2.1467 2.5628-2.2433 2.5628-0.25003 0 0.8251 0.61111 1.5002 1.358 1.5002 0.94494 0 1.5557-2.0535 2.0078-6.7509 0.85512-8.8848 1.5636-11.251 3.3683-11.251 1.186 0 1.3478 0.77441 0.78371 3.7505-0.39097 2.0628-0.85505 7.0527-1.0313 11.089s-0.60195 7.6194-0.94602 7.9632c-0.34406 0.3437-1.5001 0.0794-2.5689-0.58739-2.2969-1.4329-50.574-1.7574-51.447-0.34584-0.29485 0.47656 0.35437 1.6714 1.4427 2.6553 1.0883 0.98387 1.9788 2.8442 1.9788 4.1342 0 2.6169 1.561 2.959 5.442 1.1926 2.3316-1.0612 2.3951-1.2531 0.79958-2.4185-0.95316-0.69622-1.4096-1.589-1.0142-1.9839 0.39535-0.39492 10.391-0.72666 22.213-0.73721 17.371-0.0155 21.939 0.26693 23.809 1.472 3.4377 2.215 6.4858 2.7492 10.098 1.7698 4.1302-1.1199 33.736-1.8079 34.361-0.79845 0.25887 0.41842-0.58073 1.4489-1.8658 2.29-1.8491 1.2103-3.6998 1.3653-8.8719 0.74332-3.5945-0.43227-7.8327-0.43939-9.4182-0.0158-5.2289 1.3969-22.07 1.4239-23.741 0.038-0.84209-0.69813-5.2975-1.7019-9.901-2.2306-11.512-1.3222-12.079-1.2846-11.689 0.77376 0.244 1.2848 1.6013 1.8832 5.104 2.2503 2.6244 0.27504 4.7605 0.94784 4.747 1.4951-0.0154 0.62503-7.2983 0.99695-19.584 1.0001-16.293 4e-3 -19.718 0.2556-20.509 1.5052-2.0354 3.2164-3.4762 3.0708 33.727 3.4081 9.5085 0.0862 12.572 0.70359 11.047 2.2265-0.3491 0.34871-10.498 0.54938-22.554 0.44591-12.056-0.10345-23.124 0.11402-24.597 0.48328-1.5076 0.37797-3.3236 1.9188-4.1554 3.5256-0.81265 1.5698-2.4614 3.7698-3.664 4.889-1.2641 1.1764-1.7875 2.3489-1.2408 2.7794 0.52008 0.40951 5.7889 0.6031 11.709 0.43019 9.8678-0.28822 10.763-0.47538 10.763-2.2503 0-2.5355 1.6908-2.492 2.503 0.0643 0.58204 1.8319 1.5148 2.0003 11.081 2.0003 6.296 0 10.445 0.39729 10.445 1.0001 0 0.95688-4.3357 1.3333-15.769 1.3691-3.652 0.0114-5.2563 0.4155-5.2563 1.3239 0 1.5171 0.21527 1.5377 13.767 1.3181 8.9862-0.14563 10.262 0.0414 10.262 1.5043 0 1.48-1.285 1.6354-11.264 1.3618-11.954-0.32775-13.767 0.0913-13.767 3.1832 0 1.5206 0.70515 1.9442 3.2539 1.9549 4.508 0.0189 7.9068 1.0446 7.5002 2.2632-0.31813 0.95336-19.002 1.2765-20.594 0.35622-0.37013-0.21402-7.6406-6.6e-4 -16.157 0.47414-9.8473 0.54901-15.836 0.51072-16.453-0.10519-0.53321-0.53263-0.77424-1.1532-0.53561-1.3792 0.23861-0.2259 9.2019-0.69817 19.918-1.0495 19.446-0.63748 21.573-1.0845 20.348-4.275-0.41954-1.0921-3.359-1.3525-13.989-1.2389-12.88 0.13759-17.283-0.3904-12.195-1.4624 1.304-0.2747 7.4354-0.66763 13.625-0.87318 10.291-0.34175 13.423-0.91056 12.129-2.2032-0.26322-0.26295-6.698-0.52578-14.3-0.58407l-13.821-0.10599-3.138 2.9644c-3.795 3.5849-6.7956 5.2046-9.642 5.2046-1.1716 0-4.5237 1.1311-7.449 2.5135-6.6455 3.1404-6.3887 1.6734-6.5495 37.419-0.0679 15.087-0.32734 27.76-0.57662 28.163-0.24929 0.40292 0.0856 3.0643 0.74407 5.9141l1.1973 5.1815 16.828-0.71848c11.249-0.48027 16.828-0.38001 16.828 0.3025 0 1.6974-1.9132 1.9426-16.867 2.1616-7.9002 0.11574-14.996 0.45277-15.769 0.74899-0.96973 0.37172-1.405 2.2393-1.405 6.0287v5.4901l15.188-0.3376c10.601-0.23565 15.301 1e-3 15.562 0.78363 0.5378 1.6117-6.812 2.4884-19.204 2.2906-5.8509-0.0933-10.793-3e-3 -10.983 0.20058-0.18976 0.20367-0.8557 10.497-1.4798 22.873-0.62415 12.377-1.5166 25.428-1.9831 29.004-1.0375 7.9507-0.18139 49.067 1.0543 50.636 0.48946 0.62158 0.59233 3.6595 0.22861 6.7509-0.52111 4.429-0.36675 5.6357 0.72803 5.6914 0.76414 0.0389 4.881 0.0103 9.1486-0.0635s7.7593 0.27776 7.7593 0.78124c0 0.5035-3.6867 1.1994-8.1926 1.5465-4.5059 0.34709-8.6734 1.1127-9.2611 1.7013-1.13 1.1319-1.4931 23.299-0.42528 25.968 0.46512 1.1626 1.9942 1.4233 6.7942 1.1584 5.6876-0.31383 6.1688-0.51824 5.8861-2.5003-0.24904-1.7459-1.1543-2.2542-4.7356-2.6586-6.5104-0.73528-6.5795-3.0004-0.0915-3.0004 4.7775 0 5.1354-0.16644 4.8391-2.2503-0.23928-1.683-1.1502-2.3764-3.6132-2.7504-4.1972-0.63731-4.638-2.3963-0.7115-2.8388 1.652-0.18618 3.5859-0.81969 4.2975-1.4078 0.92424-0.76377 1.6251-0.73847 2.453 0.0885 0.63745 0.63677 2.2328 1.1578 3.5452 1.1578 3.0536 0 2.4226 2.2357-0.8585 3.0421-1.7152 0.42154-2.3256 1.1642-2.0777 2.5279 0.48282 2.6558 0.0698 22.826-0.4789 23.386-0.75223 0.76673-7.5585 0.0235-9.5539-1.0432-2.8614-1.5298-1.046-3.2059 2.7975-2.5828 2.9353 0.47582 3.4515 0.23756 3.9718-1.8332 0.88041-3.5042-0.21686-4.4941-4.9817-4.4941-6.0393 0-8.6256 2.9226-8.6256 9.7471v5.1176l9.2611 0.46962c10.642 0.53966 20.954 2.6241 20.457 4.1353-0.5824 1.7711-4.8472 1.7945-12.19 0.067-3.8864-0.91423-9.3074-1.521-12.047-1.3482-4.2886 0.27038-5.025 0.62666-5.3005 2.5643-0.3674 2.5841-0.63267 2.5197 11.021 2.6762 8.033 0.10785 10.977 0.75591 9.6148 2.1166-0.29854 0.29821-4.952 0.74617-10.341 0.99545-5.3891 0.24929-9.9957 0.65044-10.237 0.89144-1.5221 1.5205 1.8495 2.5715 8.2493 2.5715 7.6415 0 10.535 0.57884 10.535 2.1073 0 0.49121-4.0463 0.89313-8.9917 0.89313-10.198 0-9.4609-0.72189-10.389 10.175-0.56149 6.5947-0.28806 6.8271 8.032 6.8271 7.7838 0 6.7201 2.3955-1.2456 2.8053-6.6332 0.34121-8.3904 1.3344-6.4639 3.6532 0.91219 1.098 3.141 1.5426 7.7326 1.5426 3.5481 0 7.4351 0.53113 8.6379 1.1803 1.2028 0.64916 4.5747 1.6622 7.4932 2.2511 2.9184 0.58898 5.3964 1.5205 5.5066 2.0701 0.30119 1.5024-6.2863 1.8207-10.652 0.51483-10.923-3.2671-18.66-3.1243-20.002 0.3692-0.50675 1.3191 0.43655 1.4779 6.6241 1.1148 6.8544-0.40223 11.015 0.53361 9.4264 2.1203-0.401 0.40057-3.3269 0.62241-6.502 0.49296-3.1751-0.12944-7.0379 0.24507-8.584 0.83227l-2.8111 1.0676 0.57653 17.746c0.86409 26.597 1.9707 42.044 3.0896 43.127 0.55066 0.53288 2.3528 1.116 4.0048 1.2958 4.1094 0.44738 3.3964 2.2158-1.1401 2.8273-4.6689 0.62941-5.8118 3.0004-1.4464 3.0004 3.952 0 4.0076 1.5663 0.0834 2.3503-3.0666 0.61266-4.2212 2.6503-1.5018 2.6503 2.1895 0 1.8373 1.7591-0.5006 2.5003-2.0276 0.64283-2.8449 3.5004-1.0012 3.5004 0.55066 0 1.0012 0.67509 1.0012 1.5002 0 0.82511-0.67581 1.5002-1.5018 1.5002s-1.5394 0.33755-1.5852 0.7501c-0.0459 0.41255-0.19991 1.8175-0.34226 3.1221-0.14236 1.3046-1.0083 2.791-1.9243 3.3031-0.91599 0.51206-2.8727 2.0487-4.3483 3.4147-1.4756 1.366-3.3039 2.2456-4.0629 1.9547s-2.6808 0.14288-4.2706 0.96409c-3.8671 1.9976-3.9527 1.9781-8.1293-1.8542zm4.2084-17.34c1.614-4.2407 0.8309-6.8164-2.0726-6.8164-2.0774 0-2.4552 0.42512-2.2216 2.5003 0.83974 7.4626 2.4722 9.1034 4.2943 4.3161zm-8.0798-12.317c0-0.55006-0.47713-1.0001-1.0603-1.0001s-0.78184 0.45006-0.44151 1.0001c0.34032 0.55007 0.81746 1.0001 1.0603 1.0001s0.44151-0.45006 0.44151-1.0001zm18.474-7.5679c1.3472-2.0538 1.4388-2.8624 0.45793-4.0429-1.5181-1.8272-2.4984-0.85497-3.3874 3.3597-0.82881 3.9292 0.5842 4.2587 2.9295 0.68316zm-20.047-22.436c-0.44898-7.5084-1.0205-11.503-1.4309-10.001-0.85754 3.1375-0.19642 28.898 0.78009 30.396 1.1716 1.7978 1.4521-6.994 0.65083-20.395zm21.597-9.0602c0-6.0832-0.38397-10.823-0.85328-10.534-1.1364 0.70158-2.1802 13.634-1.4589 18.075 1.146 7.0546 2.3122 3.2514 2.3122-7.5409zm-1.5773-15.607c0.35161-0.91532 0.88891-5.9785 1.194-11.251 0.58818-10.166 0.90883-14.681 1.9676-27.706 0.45294-5.5715 0.30797-8.3347-0.46219-8.8101-0.71625-0.44219-1.1808 0.32338-1.2843 2.1166-0.50663 8.7767-0.76911 11.679-1.8367 20.312-1.8404 14.881-2.3946 27.003-1.2343 27.003 0.5591 0 1.3042-0.7489 1.6559-1.6642zm6.1712-4.0814c-1.0937-1.0925-1.8437 0.64494-1.0584 2.4521 0.74458 1.7136 0.79855 1.712 1.2134-0.0351 0.23879-1.0057 0.16906-2.0933-0.15495-2.417zm-0.5891-18.757c0-0.82511-0.45054-1.5002-1.0012-1.5002s-1.0012 0.67509-1.0012 1.5002c0 0.8251 0.45054 1.5002 1.0012 1.5002s1.0012-0.67509 1.0012-1.5002zm2.4224-26.757-0.70334-2.2137-0.89567 2.4186c-0.49261 1.3302-0.62381 3.1231-0.29157 3.9841 0.96913 2.5115 2.7593-1.4549 1.8906-4.189zm-5.426-29.441c0-15.515-0.38129-26.312-0.92915-26.312-1.5653 0-2.3883 10.799-1.789 23.471 0.38367 8.1111 0.20005 12.694-0.5624 14.038-1.1136 1.963-1.0926 16.084 0.0265 17.899 0.30579 0.49588 1.163 0.0723 1.905-0.94125 1.0503-1.4347 1.349-7.6699 1.349-28.155zm4.9356 15.384c-0.0547-3.2586-0.26188-3.7463-0.93082-2.1913-1.2166 2.8283-1.2166 7.752 0 7.0009 0.55066-0.33997 0.96953-2.5043 0.93082-4.8096zm1.0012-143.46c0.0387-0.68759-0.38017-1.2502-0.93083-1.2502s-0.96953 1.4627-0.93083 3.2504c0.059 2.7239 0.20975 2.9264 0.93083 1.2502 0.47326-1.1001 0.89213-2.5628 0.93083-3.2504zm2.0728-20.194c0-1.6178-0.45054-3.2195-1.0012-3.5595-0.59583-0.36784-1.0012 0.82306-1.0012 2.9414 0 1.9577 0.45054 3.5595 1.0012 3.5595s1.0012-1.3236 1.0012-2.9414zm-8.0096-5.6188c0-0.79264-0.45054-1.4412-1.0012-1.4412s-1.0012 0.92668-1.0012 2.0593 0.45054 1.7811 1.0012 1.4412c0.55066-0.33996 1.0012-1.2666 1.0012-2.0593zm-2.6501-27.194c-0.83609-20.548-2.1588-22.689-2.2656-3.6671-0.0497 8.847 0.21006 16.385 0.57717 16.752 1.8922 1.8901 2.2005-0.49985 1.6885-13.085zm4.3352 5.5632c-0.31961-0.79783-0.55685-0.56085-0.60489 0.60425-0.0435 1.0543 0.19315 1.645 0.52585 1.3127 0.33269-0.33233 0.36825-1.195 0.079-1.9169zm7.0545-1.4168c-0.3327-0.33233-1.1962-0.36786-1.919-0.0789-0.79869 0.31926-0.56146 0.55625 0.60489 0.60424 1.0554 0.0434 1.6468-0.19296 1.3141-0.52529zm-9.7409-44.843c0-1.8928-0.45054-3.7196-1.0012-4.0595-0.60465-0.3733-1.0012 0.98975-1.0012 3.4414 0 2.2327 0.45054 4.0595 1.0012 4.0595s1.0012-1.5486 1.0012-3.4414zm-5.8764-6.657c-0.7272-4.376-0.91761-4.7379-1.0013-1.9031-0.10674 3.6142 0.82906 8.3758 1.512 7.6935 0.21298-0.21275-0.0168-2.8184-0.51071-5.7904zm7.8788-3.4033c0-1.3752-0.45054-2.5003-1.0012-2.5003-0.55066 0-1.0012 1.1251-1.0012 2.5003 0 1.3752 0.45054 2.5003 1.0012 2.5003 0.55067 0 1.0012-1.1251 1.0012-2.5003zm-17.02-13.002c0-1.3752-0.45054-2.5003-1.0012-2.5003-1.1185 0-1.3723 3.2964-0.33373 4.3339 1.1037 1.1025 1.3349 0.78483 1.3349-1.8336zm30.175-0.41569 2.3636-1.9159-2.5421-0.63991c-1.3982-0.35194-3.7928-0.16488-5.3215 0.4157-1.5287 0.58057-4.5522 1.0556-6.719 1.0556-2.8344 0-3.9396 0.42085-3.9396 1.5002 0 2.4293 13.063 2.0932 16.159-0.41569zm-19.162-1.0845c0-0.55007-0.45054-1.0001-1.0012-1.0001s-1.0012 0.45006-1.0012 1.0001 0.45054 1.0001 1.0012 1.0001 1.0012-0.45006 1.0012-1.0001zm-26.031-5.4503c0-3.1014-0.25985-3.364-3.7545-3.7942-4.1047-0.50531-8.6966 0.72858-7.8434 2.1076 0.29532 0.47733 1.6533 0.65471 3.0177 0.39416 2.0108-0.38399 2.6022 0.01 3.1222 2.0793 0.5945 2.3661 2.9441 3.8278 4.7072 2.9283 0.41299-0.21073 0.7509-1.8825 0.7509-3.7151zm-34.041 1.2498c0-1.6156-0.29606-1.9045-1.1142-1.0873-0.61281 0.61215-0.8115 1.6023-0.44151 2.2003 1.0356 1.6739 1.5557 1.3018 1.5557-1.113zm55.066 0.98768c0-0.66691-1.1761-2.1494-2.6136-3.2943-2.0998-1.6725-2.7394-3.2504-3.2539-8.0265-0.49052-4.5539-1.0503-6.0232-2.3924-6.2802-1.5111-0.2893-1.7521 0.48887-1.7521 5.6568 0 6.7932 0.64499 9.1563 2.4992 9.1563 0.70607 0 2.3474 0.88514 3.6474 1.967 2.7442 2.2837 3.8654 2.5218 3.8654 0.82093zm8.1244-0.3126c-0.0468-1.2857-4.1196-1.9065-4.1196-0.62796 0 1.0534 1.9631 2.1118 3.329 1.7948 0.4543-0.10543 0.81004-0.6305 0.79056-1.1668zm4.8913-6.0828c0-0.81932-1.031-1.3932-2.503-1.3932-2.6003 0-3.5458 2.4703-1.2515 3.2698 1.8638 0.64942 3.7545-0.2956 3.7545-1.8766zm29.423-1.2781c3.8793-3.9685 3.8463-5.5348-0.0854-4.0497-1.8474 0.69781-5.3087 5.5132-5.3087 7.3855 0 1.4076 1.9152 0.22318 5.3942-3.3357zm-78.682 1.6852c1.9092-1.9072 1.3991-2.9958-1.0513-2.2434-2.8932 0.88837-3.0892 1.0914-2.2939 2.3769 0.85934 1.389 1.8611 1.349 3.3451-0.13349zm54.766 0.20003c-0.34033-0.55007-1.0427-1.0001-1.5609-1.0001s-0.94211 0.45006-0.94211 1.0001 0.7024 1.0001 1.5609 1.0001 1.2824-0.45005 0.94211-1.0001zm-13.767-0.63037c3.6948-0.98911 2.7544-3.3701-1.3311-3.3701-3.4611 0-3.5612-0.10271-2.924-3.0004 0.51571-2.3455 0.31453-3.0004-0.92165-3.0004-1.9307 0-2.0894 3.5091-0.32985 7.2938 1.3188 2.8367 1.8794 3.0482 5.5066 2.0772zm-28.034-2.0003c3.4449-0.92221 2.6804-2.37-1.2515-2.37-2.4474 0-3.5042 0.45244-3.5042 1.5002 0 1.6099 1.183 1.8262 4.7557 0.86982zm56.318-1.3699c0-0.55007-1.325-1.0001-2.9445-1.0001s-3.223 0.45006-3.5633 1.0001c-0.36824 0.59519 0.82394 1.0001 2.9445 1.0001 1.9598 0 3.5633-0.45005 3.5633-1.0001zm-15.149-2.3423c1.3227-1.592 0.50525-2.6583-2.038-2.6583-1.7937 0-2.4968 2.0065-1.1681 3.3338 1.0113 1.0102 1.9741 0.80743 3.206-0.67543zm8.2228-0.65807c0.50561 0 0.91931-0.70639 0.91931-1.5698 0-2.2817-4.3941-1.4063-4.847 0.96558-0.27289 1.4291 0.0531 1.737 1.3232 1.2502 0.92688-0.3553 2.0989-0.64599 2.6046-0.64599zm-15.05-2.526c3.5343-1.8257 3.8391-3.4748 0.64224-3.4748-2.9726 0-6.2138 2.3576-5.2912 3.8488 0.91033 1.4714 1.1072 1.4555 4.649-0.37403zm-31.087-0.97444c0-0.8251-0.40234-1.5002-0.89408-1.5002-0.49175 0-1.1534 0.67509-1.4704 1.5002-0.35104 0.91383-2e-3 1.5002 0.89409 1.5002 0.80871 0 1.4704-0.67508 1.4704-1.5002zm58.821 0.51372c3.2621-0.0198 2.7652-1.936-1.766-6.8096-3.7072-3.9873-4.2631-4.2484-7.7468-3.6385-2.2179 0.3883-4.5039 1.634-5.5886 3.0454-1.0096 1.3136-2.6509 2.3884-3.6474 2.3884-2.3863 0-3.4807 2.8893-1.3969 3.6881 0.87808 0.33659 2.7853-0.0779 4.2382-0.92102 3.6496-2.1179 9.1495-1.2381 9.1495 1.4636 0 1.5895 0.46538 1.8788 2.2527 1.4003 1.239-0.33168 3.2664-0.6092 4.5054-0.61671zm-72.208-5.4518c1.2392-4.8524 1.0842-6.5634-0.59458-6.5634-0.89456 0-4.0398 8.3718-4.0398 10.753 0 0.77004 0.75599 1.2499 1.687 1.0708 1.0825-0.20825 2.1386-2.0932 2.9474-5.2602zm88.477 3.2378c0-1.6156-0.29606-1.9045-1.1142-1.0873-0.6128 0.61214-0.81149 1.6023-0.4415 2.2003 1.0356 1.6739 1.5557 1.3018 1.5557-1.113zm-6.131-8.7546c-1.2403-1.6758-2.6209-3.047-3.068-3.047-1.7645 0-0.66735 3.6777 1.9329 6.4789 2.2223 2.3941 2.8072 2.6394 3.068 1.2865 0.17724-0.91934-0.69255-3.0427-1.9329-4.7185zm13.29-0.54663c0.0826-1.3752 0.19523-3.0567 0.2503-3.7368 0.0551-0.68006-0.68833-1.3882-1.652-1.5735-1.4371-0.27647-1.7521 0.39528-1.7521 3.7368 0 2.9544 0.41267 4.0738 1.5018 4.0738 0.8944 0 1.5625-1.0112 1.652-2.5003zm-24.194-6.7509c8e-3 -0.96262-0.44935-1.7502-1.0173-1.7502-1.4499 0-2.3117 2.6712-1.5236 4.7226 0.56673 1.4753 0.79519 1.5112 1.5936 0.25003 0.51261-0.80968 0.93892-2.2598 0.94735-3.2224zm-137.15 1.3668c0-0.48592-0.90108-1.1189-2.0024-1.4066-1.9681-0.51411-2.6475 0.31212-1.3349 1.6233 0.9713 0.97027 3.3373 0.81661 3.3373-0.21672zm89.107-7.5864c0-1.4221 0.99482-2.4681 3.1035-3.2631 1.7943-0.67654 2.9206-1.7183 2.6699-2.4696-0.72786-2.1812-4.0158-1.4498-5.6919 1.2662-0.8708 1.4111-2.5953 4.1114-3.8322 6.0008-3.0421 4.6466-2.8336 5.4215 0.74716 2.7769 1.673-1.2356 3.0036-3.1454 3.0036-4.3112zm-97.901 2.2858c-1.5294-1.5277-2.6578-0.40044-1.8096 1.8076 0.50084 1.3038 0.93504 1.4329 1.8257 0.5432 0.8907-0.88974 0.88685-1.4488-0.0161-2.3508zm119.01-0.81677c1.5407 0 1.0243-2.0228-0.68353-2.6774-0.88156-0.33793-2.001 0.0137-2.4877 0.78148-1.3582 2.1426-1.0828 3.1742 0.6682 2.503 0.87103-0.3339 1.9974-0.60707 2.503-0.60707zm42.018-0.52575c3.8172-1.9718 3.9014-4.4749 0.15052-4.4749-3.2198 0-5.2062 1.6027-5.2062 4.2005 0 2.1999 1.2019 2.2651 5.0557 0.27435zm-126.98-3.0956c6.1689-0.17402 11.977-1.9617 13.202-4.0633 2.1452-3.6819 3.5156-8.8722 3.3108-12.54-0.11575-2.0726-0.39209-3.7706-0.61409-3.7735-0.222-3e-3 -3.3201 1.3713-6.8847 3.0537-3.5646 1.6824-7.1284 2.8107-7.9197 2.5074-2.1194-0.81241-0.77318-2.2582 3.3764-3.6262 4.6283-1.5258 10.33-4.8592 10.33-6.0393 0-1.2699-0.29641-1.1962-6.3866 1.5865-2.9946 1.3683-8.6384 3.0349-12.542 3.7035-5.0123 0.85859-7.2524 1.7048-7.6261 2.881-0.29101 0.91591-1.4187 2.4695-2.5059 3.4524-2.1554 1.9485-2.5956 6.4545-0.9336 9.5566 0.82329 1.5367 1.4427 1.7337 2.9378 0.93438 2.7738-1.4829 3.1321-1.2779 2.4577 1.4064-0.49987 1.9895-0.19202 2.4806 1.733 2.765 1.2875 0.19017 2.6642-0.11088 3.0595-0.669 0.39524-0.55811 2.6479-1.0692 5.006-1.1357zm6.4564-10.807c-0.76345-1.9874 2.0674-4.2423 3.513-2.7983 1.3825 1.381 0.34675 4.2254-1.5386 4.2254-0.78435 0-1.6728-0.64218-1.9743-1.4271zm-28.741 7.8798c-1.5514-1.8673-6.5881-1.8846-7.3025-0.0251-0.72353 1.8835 1.1345 3.3175 4.8394 3.7351 3.3113 0.37321 4.4414-1.3289 2.4631-3.71zm137.86 2.0052c0.32608-0.84883 0.385-1.751 0.13093-2.0048-0.72538-0.7246-6.7938 1.6387-6.7938 2.6458 0 1.5848 6.0307 1.0046 6.6629-0.64104zm11.323-3.4573c1.1207 0 2.0376-0.30211 2.0376-0.67135 0-1.3994-3.3842-4.3293-5.0005-4.3293-1.7149 0-4.0103 3.8137-4.0103 6.6629 0 1.4114 0.2467 1.4067 2.4678-0.0471 1.3573-0.88838 3.3847-1.6152 4.5054-1.6152zm-146.39-6.5415c0.87914-2.8614 0.82625-3.6852-0.26338-4.1028-0.74985-0.28744-1.1183-1.1605-0.81888-1.94 0.36064-0.93879-0.14787-1.4174-1.5059-1.4174-1.1277 0-2.3498-0.4839-2.7158-1.0754-0.42567-0.68802-1.5288-0.26499-3.0627 1.1745-1.7706 1.6616-2.3963 3.3155-2.3931 6.326l4e-3 4.0762 4.8277 0.26961c4.7449 0.26496 4.8466 0.20815 5.9277-3.3106zm111.38-0.49459c0-0.53072-0.56317-0.95806-1.2515-0.94964-2.1152 0.0259-4.0489 1.7002-3.3214 2.876 0.79435 1.2839 4.5729-0.3078 4.5729-1.9263zm9.8351 0.70239c0.21827-1.1242-0.35246-1.6673-1.7521-1.6673-1.1417 0-2.0758 0.60008-2.0758 1.3335 0 3.0631 3.2431 3.346 3.8279 0.33384zm15.696-1.6673c0.34033-0.55007 0.14165-1.0001-0.44151-1.0001s-1.0603 0.45005-1.0603 1.0001 0.19868 1.0001 0.44151 1.0001 0.71996-0.45006 1.0603-1.0001zm-35.042-1.8336c0-1.8089-1.9596-1.4787-2.3483 0.39573-0.21625 1.0428 0.15907 1.5 1.0012 1.2196 0.74091-0.2467 1.3471-0.97362 1.3471-1.6154zm-5.4934-8.1677c0.58215 0 2.1958-0.74444 3.586-1.6543 1.9078-1.2487 2.206-1.858 1.2163-2.485-1.8965-1.2014-2.0099-1.1656-7.2279 2.287-5.1947 3.4372-7.3806 7.2067-5.4951 9.4762 0.92981 1.1192 1.686 0.52955 4.0043-3.122 1.5719-2.476 3.3343-4.5017 3.9165-4.5017zm0.80735 6.2406c0.35167-2.4622-0.7583-2.9023-2.6227-1.0399-1.7936 1.7917-1.4577 3.9959 0.55066 3.6136 0.96365-0.18347 1.8961-1.3416 2.072-2.5737zm13.196-0.23981c0-0.55007-0.64922-1.0001-1.4427-1.0001s-1.7212 0.45005-2.0615 1.0001 0.30889 1.0001 1.4427 1.0001 2.0615-0.45006 2.0615-1.0001zm-105.63-1.0001c0.34032-0.55007-0.33549-1.0001-1.5018-1.0001-1.1663 0-1.8421 0.45006-1.5018 1.0001s1.0161 1.0001 1.5018 1.0001c0.48567 0 1.1615-0.45005 1.5018-1.0001zm39.904-3.7505c1.9759-3.8566 3.1155-11.251 1.7339-11.251-0.59906 0-1.0892 0.65218-1.0892 1.4493s-1.5769 2.6508-3.5042 4.1192c-4.1112 3.1324-4.273 3.9715-1.2515 6.4895 2.8209 2.3507 2.4568 2.4222 4.111-0.80654zm126.48-9.5981c0.21045-0.21023-0.811-1.1635-2.2699-2.1184-2.0909-1.3686-3.7934-1.5938-8.0408-1.0636-3.5118 0.43831-5.3883 1.1409-5.3883 2.0174 0 0.73968 0.44545 1.4949 0.98989 1.6783 1.2915 0.43495 14.211-0.0162 14.709-0.51363zm-59.136-2.4034c1.6794-1.6695 1.6571-1.7653-0.48419-2.077-2.4747-0.36029-5.4318 1.5434-4.5675 2.9404 0.87725 1.4179 3.1471 1.03 5.0517-0.86342zm6.392-5.7737c0-0.79752-0.76437-1.0902-2.0024-0.76684-1.1013 0.2877-2.0024 1.1035-2.0024 1.813 0 0.79752 0.76437 1.0902 2.0024 0.76684 1.1013-0.2877 2.0024-1.1035 2.0024-1.813zm30.899-3.641c5.8112 0.26529 7.2776 0.0537 6.9298-1.0001-0.28866-0.87444-2.8375-1.5096-7.371-1.8367-8.2012-0.59181-8.8484-0.93568-11.488-6.1039-2.167-4.243-3.9521-4.366-3.9521-0.27211 0 2.9498 1.4402 5.9857 4.3546 9.1797 1.6689 1.829 2.3136 2.0351 3.1288 1.0001 0.72488-0.92021 3.1942-1.2046 8.3978-0.96699zm-33.63-0.83657c1.4001-1.1001 2.9679-2.0003 3.484-2.0003 1.5442 0 4.498-3.7946 3.8141-4.8999-0.42916-0.69364-1.4232-0.66644-3.072 0.084-1.8469 0.8406-2.806 0.804-3.958-0.15103-0.83623-0.69328-1.3239-1.5781-1.0837-1.9663 0.24019-0.38821-0.91168-0.50815-2.5597-0.26653-2.0455 0.2999-3.7762 1.5857-5.4537 4.0517-1.3515 1.9868-2.4573 3.958-2.4573 4.3804 0 1.2754 3.3749 0.80205 5.4477-0.76403 2.4764-1.871 3.5631-1.8613 3.5631 0.0318 0 0.8251-0.45054 1.5002-1.0012 1.5002s-1.0012 0.45006-1.0012 1.0001c0 1.5422 1.4841 1.1952 4.278-1.0001zm16.747-0.44104c0-0.24257-0.45054-0.71919-1.0012-1.0592-0.55066-0.33997-1.0012-0.1415-1.0012 0.44103 0 0.58254 0.45054 1.0592 1.0012 1.0592s1.0012-0.19847 1.0012-0.44104zm-57.569-17.44c2.831-0.65572 3.0375-1.0385 3.5927-6.6595 0.324-3.2801 0.23856-6.3642-0.18989-6.8536-0.71493-0.81662-4.6127 1.7698-9.2614 6.1457-2.1 1.9768-3.6528 5.48-3.6528 8.2411 0 1.6473 0.38035 1.7459 3.2539 0.84367 1.7896-0.56191 4.6055-1.3347 6.2575-1.7174zm32.404-8.6738c0.31646-1.6313 0.14771-1.7048-1.2515-0.54476-1.9136 1.5864-2.1518 3.4406-0.36578 2.8466 0.68832-0.22894 1.4161-1.2648 1.6173-2.3018zm8.1308-13.201c-0.0224-2.8757-1.1593-6.2508-2.1055-6.2508-0.48643 0-0.88443 1.8002-0.88443 4.0005 0 2.8892 0.41717 4.0005 1.5018 4.0005 0.82599 0 1.4957-0.7876 1.4881-1.7502zm8.0233-4.3096c0-1.0677-0.45054-1.9412-1.0012-1.9412s-1.0012 1.1517-1.0012 2.5593c0 1.4516 0.43336 2.2918 1.0012 1.9412 0.55066-0.33996 1.0012-1.4917 1.0012-2.5594zm-75.09-6.0008c0-1.0677-0.62761-1.9412-1.3947-1.9412-1.8829 0-2.9879 3.1492-1.4403 4.1046 1.6891 1.0428 2.835 0.16829 2.835-2.1634zm68.766 0.87163c-0.31961-0.79783-0.55685-0.56085-0.60489 0.60425-0.0435 1.0543 0.19315 1.645 0.52585 1.3127 0.33269-0.33234 0.36825-1.195 0.079-1.9169zm-57.757-5.8226c-1.0945-2.0429-1.3229-2.0932-2.8005-0.61722-1.4776 1.476-1.4492 1.7247 0.34804 3.0497 2.531 1.8659 3.9835 0.42519 2.4525-2.4325zm63.081-1.0146c0-2.9708-3.0533-5.6823-5.0267-4.464-1.9352 1.1948-1.0751 5.9697 1.2722 7.0625 2.9986 1.396 3.7545 0.87277 3.7545-2.5985zm-51.635-0.54285 0.64495-2.5669 1.8071 2.2292c1.1977 1.4775 2.042 1.8495 2.5037 1.1032 1.0247-1.6562-2.9852-5.1995-5.8842-5.1995-2.0809 0-2.503 0.47784-2.503 2.8337 0 4.6953 2.3755 5.8031 3.4315 1.6003zm42.1-7.3859c-1.3042-1.3028-1.4788-1.0584-1.4788 2.0709 0 1.9514 0.32817 3.8759 0.72928 4.2766 0.4011 0.40067 1.0666-0.53124 1.4788-2.0709 0.5221-1.9501 0.30084-3.2476-0.72928-4.2766zm-32.516-2.0487c0-2.0002-0.5006-3.0004-1.5018-3.0004-1.0012 0-1.5018 1.0001-1.5018 3.0004 0 2.0003 0.5006 3.0004 1.5018 3.0004 1.0012 0 1.5018-1.0001 1.5018-3.0004zm13.013-0.59388c2.7546-1.9768 5.0083-3.9503 5.0083-4.3856s-1.1264-1.5285-2.503-2.4296c-1.3766-0.90105-2.503-2.0496-2.503-2.5524s1.6895-2.5137 3.7545-4.4688c2.8365-2.6856 3.3175-3.5569 1.9672-3.5634-0.98303-5e-3 -2.8978 0.71817-4.2551 1.6066-2.2077 1.445-2.4678 1.4512-2.4678 0.059 0-0.85591 0.48979-1.8586 1.0884-2.2282 1.5586-0.96223-0.41099-2.6434-2.2645-1.9329-0.83101 0.31855-2.5419 2.4115-3.8019 4.6511-1.9244 3.4204-2.1953 4.9865-1.693 9.7876 0.57857 5.5296 1.4618 9.0507 2.2704 9.0507 0.21515 0 2.6449-1.6174 5.3995-3.5943zm27.69 0.13695c-0.32608-0.84882-1.0575-1.5433-1.6255-1.5433-1.4673 0-1.2842 2.7439 0.21888 3.2802 1.7009 0.6068 2.1119 0.0992 1.4066-1.7368zm-17.807-9.8864c1.4019-1.6874 0.47474-2.6583-2.5386-2.6583-1.6687 0-2.3361 0.5715-2.3361 2.0002 0 2.3254 3.1376 2.7489 4.8747 0.65808zm6.1385-11.359c0-2.0112-0.28942-2.4112-1.1341-1.5674-0.62378 0.62311-0.8632 1.8383-0.53203 2.7004 0.91653 2.3859 1.6662 1.8762 1.6662-1.1329zm-18.14-2.2849c1.5193-0.81554 4.0783-7.3515 4.1176-10.517 0.0137-1.1001 1.152-4.4189 2.5296-7.375 2.2233-4.7709 2.4868-6.5687 2.3454-16.002-0.0876-5.845-0.0786-16.78 0.02-24.301 0.10575-8.0639-0.22362-13.922-0.80284-14.28-1.0852-0.66994-1.3305 0.56916-3.5544 17.952-2.063 16.125-5.3371 34.992-7.0292 40.505-1.2121 3.9495-3.5154 14.183-3.5154 15.619 0 0.57344 3.7242-0.43929 5.8891-1.6014zm22.145-4.575c0-0.85757-0.45054-1.2811-1.0012-0.9411s-1.0012 1.0416-1.0012 1.5592c0 0.5176 0.45054 0.9411 1.0012 0.9411s1.0012-0.70165 1.0012-1.5592zm-15.088-2.1913c-0.0624-2.4372-0.16836-2.5226-0.93083-0.7501-1.1751 2.7317-1.1751 3.5004 0 3.5004 0.55066 0 0.96953-1.2377 0.93083-2.7504zm12.69-3.9797c-1.0177-1.0166-1.8575 0.51396-1.0224 1.8636 0.63079 1.0196 0.86662 1.0203 1.2058 4e-3 0.23187-0.69488 0.14939-1.5353-0.1833-1.8677zm1.6397-14.787c-0.26472-1.3833-0.95462-2.8073-1.5331-3.1644-0.66207-0.40874-0.80326-2e-3 -0.38105 1.0967 0.36891 0.96033 0.67074 2.3843 0.67074 3.1644 0 0.78011 0.38807 1.4184 0.86237 1.4184 0.47429 0 0.64577-1.1318 0.38105-2.5151zm-4.7388-19.424c-0.38353-2.7856-1.1056-5.0647-1.6046-5.0647-1.2293 0-1.1406 2.4905 0.25437 7.1413 1.553 5.1779 2.2099 4.1676 1.3502-2.0767zm-4.1645-6.5328c0.3102-0.80749 0.13313-1.7342-0.39348-2.0593-0.52661-0.32512-0.95748 0.33555-0.95748 1.4682 0 2.4149 0.55678 2.6585 1.351 0.59112zm9.1272-45.538c1.0663 0 1.0663-0.67508 1.5e-4 -3.7505-1.1506-3.3191-1.6822-3.7505-4.6211-3.7505-2.3652 0-3.4189-0.5035-3.6611-1.7495-0.18711-0.96225-1.4957-2.0392-2.9079-2.3933-1.9848-0.49762-2.9859-0.10045-4.4099 1.7495-2.2396 2.9096-2.2457 3.4665-0.0865 7.864 1.2726 2.5919 2.8446 3.8826 6.2094 5.0984 4.4436 1.6056 4.5306 1.5958 6.341-0.72009 1.0096-1.2914 2.4208-2.3481 3.136-2.3481zm-7.2862 687.35c0.50262-2.6071 3.8164-2.8978 3.8164-0.33484 0 1.4313-0.643 2.0736-2.0758 2.0736-1.4328 0-1.972-0.53859-1.7406-1.7387zm33.553-27.897c-1.1018-1.1006-0.82078-7.1775 0.36572-7.91 1.5637-0.96536 3.9643 2.6428 3.6814 5.5333-0.23598 2.4116-2.6142 3.8082-4.0471 2.3768zm-22.728-10.369c0-0.55007 1.3516-1.0001 3.0036-1.0001s3.0036 0.45005 3.0036 1.0001-1.3516 1.0001-3.0036 1.0001-3.0036-0.45006-3.0036-1.0001zm22.054-2.4675c-1.384-1.6658-0.57347-3.5332 1.5336-3.5332 1.563 0 2.0058 3.5348 0.55495 4.4305-0.48826 0.30145-1.4281-0.10233-2.0886-0.89729zm-20.824-3.7166c0.50976-1.5277 6.6583-1.8046 7.0306-0.3167 0.13767 0.55007-1.4868 1.1426-3.6099 1.3168-2.8449 0.23339-3.7446-0.0296-3.4208-1.0001zm-2.2377-7.3263c-1.2035-1.4486-0.79811-1.5774 4.0914-1.2997 6.3509 0.36068 7.2792 2.1729 1.3359 2.608-2.8217 0.20659-4.5059-0.19943-5.4272-1.3083zm31.799-0.46734c-2.063-1.1134-5.0775-2.0243-6.699-2.0243-3.2099 0-4.8756-1.5931-3.3055-3.1615 0.6499-0.64922 2.9397-0.62658 6.6909 0.0661 7.0498 1.3018 11.069 3.1571 11.069 5.1091 0 2.2631-3.573 2.268-7.7557 0.0106zm-91.23-5.5384c-1.0157-2.6439 1.1246-4.6877 3.5507-3.3907 1.0846 0.57981 3.8531 0.94404 6.1524 0.80939 5.9274-0.34711 8.6859-0.0407 8.6859 0.9647 0 0.47853-1.9148 1.1409-4.2551 1.472-13.927 1.9702-13.434 1.9652-14.134 0.1446zm56.847 0.37127c-0.34399-0.55598 0.32356-1.894 1.4835-2.9735 2.4873-2.3148 2.6772-3.7299 0.60707-4.5234-2.153-0.82531-1.8521-3.0373 0.49672-3.6508 3.0874-0.8065 10.142 0.40964 9.7208 1.6757-0.20389 0.61238-1.6852 1.3429-3.2917 1.6233-3.6616 0.63916-4.172 4.3133-0.6683 4.8103 2.4218 0.34359 3.0525 1.9985 1.0012 2.6269-3.4931 1.0701-8.7973 1.3036-9.3492 0.41149zm0.58873-16.314c0-1.2489 1.3623-1.5459 7.0918-1.5459 5.2266 0 6.9831 0.32881 6.6783 1.2502-0.26183 0.79151-2.8636 1.3586-7.0918 1.5459-5.4842 0.24285-6.6783 0.0193-6.6783-1.2502zm-1.0012-5.486c0-0.51687 1.6547-1.0794 3.6771-1.2502 4.609-0.38908 5.4484-2.407 1.3732-3.3011-4.5107-0.98967-2.6824-2.51 3.0184-2.51 4.0387 0 4.9494 0.32134 4.9606 1.7502 8e-3 0.96262 0.28534 2.7628 0.61738 4.0005 0.58466 2.1793 0.37899 2.2503-6.5215 2.2503-3.9188 0-7.1252-0.4229-7.1252-0.93975zm0.66747-10.728c-1.5868-1.5851-0.3718-2.3336 3.7882-2.3336 2.7996 0 4.7532-0.52654 5.2563-1.4167 0.66789-1.1818 1.1868-1.1035 3.1297 0.47212 1.281 1.0389 2.0428 2.3515 1.693 2.9169-0.69556 1.1242-12.788 1.4393-13.867 0.36131zm-56.127-11.203c-3.0224-0.65923-5.5801-3.499-4.3016-4.7761 0.40736-0.40692 2.2256-0.20348 4.0405 0.4521 1.8149 0.65557 4.8823 1.192 6.8164 1.192 4.1351 0 5.2597 0.80388 3.719 2.6583-1.152 1.3866-5.2274 1.5745-10.274 0.47376zm101.01-1.1318c-0.97905-1.5824 0.41042-3.0004 2.9401-3.0004 2.4382 0 5.0198 2.2166 3.8928 3.3424-1.029 1.0279-6.1437 0.77181-6.8328-0.34206zm13.516-0.53145c0-0.80784 0.67581-1.4688 1.5018-1.4688s1.5018 0.40191 1.5018 0.89312c0 0.49122-0.67581 1.1522-1.5018 1.4688-0.91481 0.35066-1.5018 2e-3 -1.5018-0.89313zm-18.022-8.4697c0-0.55007 0.45054-1.0001 1.0012-1.0001s1.0012 0.45006 1.0012 1.0001-0.45054 1.0001-1.0012 1.0001-1.0012-0.45005-1.0012-1.0001zm-37.336-8.6255c-1.8316-1.8296-0.18944-2.4437 5.8071-2.1716 3.5843 0.16265 6.6254 0.74579 6.7581 1.2959 0.27581 1.1435-11.477 1.9626-12.565 0.87574zm-25.808-0.62571c-0.0373-0.13752-0.19521-2.0503-0.35072-4.2505-0.1555-2.2003-0.86871-9.1762-1.5849-15.502-1.6348-14.44-1.7786-20.424-0.49941-20.786 0.58574-0.16553 1.5175 5.0221 2.2453 12.502 0.68426 7.0315 1.6657 15.645 2.1809 19.14 0.94117 6.3856 0.63056 9.1461-1.0291 9.1461-0.49174 0-0.92467-0.11251-0.96207-0.25003zm65.561-2.1134c-1.03-2.6812 0.96754-18.94 2.3844-19.408 1.0245-0.33832 1.2051 1.7402 0.85904 9.8855-0.26703 6.2851-0.87131 10.458-1.547 10.683-0.60985 0.20307-1.3732-0.31914-1.6964-1.1605zm-37.737-4.2487c-1.691-1.6891-0.41175-2.389 4.3665-2.389 3.5693 0 4.9674 0.36568 4.6809 1.2243-0.45135 1.3526-7.8995 2.3114-9.0474 1.1647zm31.509-18.472c0.77297-2.3164 18.791-4.4359 19.526-2.2969 0.50337 1.4642-2.437 2.1978-12.096 3.0177-6.5044 0.55214-7.8128 0.42523-7.4303-0.72081zm60.38-1.2518c-2.7829-2.0923-1.5898-2.8056 5.1767-3.095 3.2092-0.13726 6.8487-0.59989 8.0877-1.0281 2.6362-0.91104 3.2 1.4249 0.82006 3.398-2.3878 1.9796-11.773 2.4627-14.084 0.72506zm-158.61-2.07c-2.4331-2.9285-0.7009-3.7472 8.7051-4.1146 7.124-0.27821 9.2352-0.0615 9.2352 0.94777 0 0.81001-2.3836 1.7664-6.2575 2.5106-3.4416 0.66119-7.192 1.4238-8.3342 1.6946-1.1723 0.27797-2.6306-0.17428-3.3486-1.0384zm127.74-0.26461c-0.36711-0.36671-0.66747-1.2668-0.66747-2.0003 0-1.6136 4.6014-1.7964 5.5758-0.22156 1.1381 1.8395-3.2862 3.8422-4.9083 2.2218zm20.768-11.838c-0.34588-1.3767-0.32541-4.1895 0.0456-6.2508 0.37092-2.0613 0.98325-7.0845 1.3607-11.163 0.59357-6.413 0.86874-7.194 2.0364-5.7796 0.94667 1.1467 1.1726 3.213 0.75625 6.9149-0.3266 2.9038-0.87235 8.3175-1.2128 12.03-0.63484 6.9243-1.8716 8.6836-2.9861 4.2478zm-106.98-12.686c-1.0671-3.2874-4.7225-60.289-4.1226-64.286 1.1835-7.8836 2.2694-5.7894 2.3908 4.6109 0.068 5.8249 0.59373 10.661 1.2441 11.443 0.66595 0.80156 1.2677 6.7833 1.4724 14.636 0.19037 7.304 0.64625 17.836 1.0131 23.404 0.4639 7.0417 0.32622 10.334-0.45223 10.815-0.61554 0.38001-1.311 0.0998-1.5455-0.62261zm181.85-10.024c-0.94733-0.94632-0.71838-1.4751 1.0513-2.428 2.0562-1.1072 2.0993-1.2814 0.47297-1.9119-1.0922-0.42342-2.4991-0.0521-3.6109 0.95304-1.6201 1.4646-1.9606 1.4794-3.0783 0.13403-1.8572-2.2354-0.49781-4.5363 2.6903-4.5538 1.5316-8e-3 3.4362-0.42709 4.2326-0.93035 2.4091-1.5225 5.06 0.63646 5.06 4.121 0 4.5076-4.1283 7.3027-6.8178 4.616zm-189.99-6.219c-0.33554-1.3355-0.33587-3.2912-7.4e-4 -4.3459 0.33515-1.0548 0.1655-5.0439-0.37697-8.8648s-1.0202-17.055-1.0615-29.408c-0.0413-12.354-0.71026-29.887-1.4864-38.963-2.9025-33.939-3.8355-52.605-2.7282-54.581 0.99415-1.7745 1.0989-1.7363 1.6149 0.5885 0.30348 1.3674 0.94801 13.294 1.4323 26.503 0.67232 18.339 1.2457 24.723 2.4253 27.003 1.2529 2.4221 1.5452 7.0905 1.5467 24.707 1e-3 11.947 0.33096 30.286 0.73316 40.755 0.52652 13.704 0.42052 19.034-0.37856 19.034-0.61042 0-1.3844-1.0927-1.7199-2.4281zm32.308 0.79236c-1.218-1.2167-0.7617-2.2099 1.3183-2.8694 1.1093-0.35171 1.799-0.99167 1.5327-1.4222-0.54656-0.88341 15.122-2.4141 26.486-2.5875 4.9147-0.075 8.616-0.6971 10.713-1.8006 1.7623-0.92732 3.6771-1.686 4.2551-1.686 1.7173 0 1.1939 2.0115-0.70118 2.6944-0.96365 0.34729-2.9386 1.4516-4.3887 2.454-2.081 1.4385-4.3329 1.7865-10.686 1.6516-4.4274-0.094-8.6474 0.30162-9.3778 0.87927s-4.4818 1.3039-8.3365 1.6138c-3.8546 0.30992-7.7078 0.83508-8.5625 1.167-0.85476 0.33192-1.8685 0.28946-2.2527-0.0944zm60.375-0.272c-6.1532-0.68563-8.0096-1.5321-8.0096-3.652 0-1.5818 2.5521-1.9799 3.4446-0.53731 0.30756 0.49712 5.2901 1.226 11.072 1.6197s10.513 1.0509 10.513 1.4605c0 0.71541-8.1091 2.173-10.402 1.8697-0.61147-0.0809-3.5897-0.42315-6.6184-0.76061zm37.508-1.1519c-0.74283-1.2006 2.7676-2.5296 8.5469-3.2357 2.478-0.30273 5.7737-1.0354 7.3239-1.6281 7.2625-2.7769 7.6049-0.23724 0.43542 3.2296-5.3841 2.6035-15.104 3.5776-16.306 1.6342zm37.081 0.0593c-1.0852-1.7541 0.51966-3.0004 3.8637-3.0004 3.08 0 5.6478 1.4551 5.6478 3.2004 0 1.1663-8.7803 0.98165-9.5114-0.20002zm-9.633-3.3677c-0.7739-1.6967-0.76623-5.8014 0.027-14.485 0.60883-6.6646 0.99181-12.631 0.85107-13.259-0.14073-0.62803 0.24745-1.3282 0.86265-1.556 1.8793-0.6958 2.4094 5.2927 1.3617 15.385-0.84676 8.1571-0.76301 9.9616 0.55567 11.972 0.85398 1.302 1.2821 2.8045 0.9514 3.3391-1.0843 1.7526-3.5083 1.0186-4.6096-1.3957zm-200.56-2.5428c-0.30961-0.50043-0.30262-1.5875 0.0155-2.4157 0.47892-1.2467 2.2457-1.4204 10.266-1.0092 12.071 0.61887 13.378 0.97215 10.747 2.906-2.2119 1.6262-20.071 2.0668-21.028 0.51889zm122.59-4.9336c0-0.50226 0.69015-2.5632 1.5336-4.5798 0.84352-2.0166 1.2607-4.1078 0.92703-4.6471-0.78654-1.2713 0.45353-6.9325 1.5185-6.9325 1.2378 0 1.7927 8.0687 0.80729 11.74-0.78597 2.9282-4.7865 6.6221-4.7865 4.4196zm-44.809-5.408c0.4452-1.3509 8.9634-2.2722 11.614-1.2562 2.8614 1.0969-0.83569 2.4742-6.6863 2.491-3.8291 0.011-5.2232-0.33837-4.9277-1.2348zm-2.9122-7.016c-0.88855-1.4362 3e-3 -1.7048 7.8629-2.3685 5.1925-0.43846 7.7545-0.28126 8.2414 0.50566 0.38858 0.62806 0.11477 1.3343-0.60846 1.5695-2.7421 0.89156-14.982 1.1233-15.496 0.29335zm1.3731-8.3617c-1.862-1.86-0.1155-2.4382 6.5502-2.1684 3.9923 0.16162 7.2587 0.7439 7.2587 1.294 0 1.144-12.732 1.9502-13.809 0.8744zm49.325-2.4247c-1.181-2.2044-0.69117-4.9505 0.88301-4.9505 1.1598 0 2.0871 5.92 1.0296 6.5729-0.43122 0.26623-1.2919-0.46385-1.9126-1.6224zm81.124-1.009c0-0.58254 0.45054-0.781 1.0012-0.44104s1.0012 0.81658 1.0012 1.0592c0 0.24257-0.45054 0.44103-1.0012 0.44103s-1.0012-0.47662-1.0012-1.0592zm-29.833-6.1338c-6.867-1.0426-11.217-3.305-11.217-5.8344 0-2.4835 1.5018-2.5184 4.1054-0.0954 1.1106 1.0336 4.3055 2.1821 7.0999 2.5524 6.0555 0.80243 24.221 0.58285 31.58-0.38173 5.7822-0.75787 8.5364 0.0901 6.5942 2.0303-0.65148 0.65078-5.277 1.3378-10.504 1.5602-5.1371 0.21855-12.269 0.52705-15.848 0.68554-3.5793 0.1585-8.8942-0.0741-11.811-0.51693zm-99.322-0.95013c0-0.50649 0.68731-1.1844 1.5274-1.5064 1.1778-0.45147 1.2643-0.90207 0.37801-1.9689-0.93678-1.1275-0.57116-1.3834 1.9768-1.3834 1.967 0 3.0334 0.46357 2.8759 1.2502-0.16166 0.80744 1.2566 1.3591 4.0048 1.5577 3.24 0.23417 4.2551-0.048 4.2551-1.1828 0-1.773-3.0504-2.9283-5.3769-2.0365-1.1856 0.45445-1.4929 0.2141-1.0847-0.8484 0.79715-2.0751-2.0751-2.9343-7.2284-2.1624-2.7752 0.41573-4.3316 0.27073-4.3316-0.40354 0-1.9142 11.02-2.5604 20.898-1.2254 0.2051 0.0277-0.20383 0.74455-0.9087 1.593-2.6061 3.1368 0.39029 3.912 15.332 3.9662 7.8314 0.0284 16.492-0.24178 19.245-0.60048 3.5033-0.45642 5.8614-0.21761 7.8555 0.79556 3.3684 1.7114 14.515 1.9861 17.427 0.42939 1.575-0.84199 2.3171-0.75718 3.2552 0.37198 2.7645 3.3275-11.207 5.6456-18.893 3.1345-3.9712-1.2975-8.7007-1.5888-23.332-1.4373-10.093 0.10455-18.599 0.54459-18.901 0.97788-0.79351 1.1378-18.974 1.7883-18.974 0.6789zm-70.835-3.5717c-9.3012-0.32335-10.262-0.53529-10.262-2.263 0-1.0484 0.39404-2.1495 0.87564-2.4468 0.48161-0.29733 7.0144-0.0143 14.517 0.62897 9.9953 0.85695 13.642 1.5204 13.642 2.4818 0 0.72174-0.6195 1.3122-1.3767 1.3122-0.75715 0-2.672 0.1448-4.2551 0.32178s-7.4965 0.16124-13.141-0.035zm72.337-15.2-4.0048-0.62718 3.379-0.73108c4.746-1.0268 16.144-0.91242 16.144 0.16204 0 2.0784-6.6247 2.5891-15.519 1.1962zm86.243-1.7832c-0.80951-0.80865-0.82938-4.6509-0.0347-6.7195 0.96646-2.5158 2.3981-0.7769 2.3981 2.9128 0 3.3148-1.0931 5.0755-2.3634 3.8066zm-87.113-6.0955c-1.0222-1.6522 3.1621-2.5885 11.192-2.5042 6.8405 0.0718 9.2247 0.60344 8.0351 1.7917-1.1153 1.1141-18.578 1.7613-19.227 0.71252zm4.9534-7.1042c-2.1596-0.33449-4.1355-1.2412-4.3908-2.015-0.38087-1.1541 0.66962-1.2884 5.8478-0.74777 6.8514 0.71534 7.5118 0.97768 6.5155 2.5881-0.69794 1.1281-1.6782 1.1496-7.9725 0.17464zm-34.031-0.96584c-0.29187-0.47175-0.12738-2.2624 0.36553-3.9793 0.52773-1.8381 0.52696-6.9339-2e-3 -12.394-1.4149-14.608-1.2266-21.732 0.59263-22.429 0.84974-0.32573 1.7669-0.37053 2.0382-0.0996 0.72747 0.72669 0.59972 25.18-0.17245 33.009-0.6144 6.2296-1.4868 8.0513-2.822 5.8931zm116-3.4277c-0.9414-2.4506 0.6047-4.381 1.8-2.2474 0.63965 1.1418 0.6039 2.0871-0.10573 2.796-0.76204 0.76123-1.2521 0.60257-1.6943-0.54856zm-36.442-2.1598c-0.69928-0.84169-1.0099-2.2112-0.69024-3.0433 1.1347-2.9539 6.095-1.0591 5.4868 2.0959-0.46169 2.3948-3.1524 2.9263-4.7965 0.9474zm-43.024-2.4332c-1.3358-0.3729-2.5991-1.1884-2.8073-1.8123-0.25835-0.77421 1.8636-1.1343 6.6839-1.1343 3.8843 0 7.0624 0.41035 7.0624 0.91189 0 0.50153-1.325 0.91188-2.9445 0.91188s-3.223 0.45005-3.5633 1.0001c-0.68099 1.1007-0.90563 1.1069-4.4312 0.12276zm88.933-5.5763c-3.6343-0.75115-11.13-1.686-16.656-2.0774-10.146-0.71857-13.01-1.4788-11.961-3.1751 0.34703-0.56089 5.8472-0.33533 13.895 0.56981 7.3262 0.82401 17.948 1.4813 23.605 1.4606 9.4529-0.0345 10.582-0.24896 13.963-2.6522 4.0466-2.8761 4.7913-2.8376 3.8268 0.19806-0.73926 2.3267-9.5112 5.9696-15.95 6.6238-2.2633 0.22995-7.0885-0.19648-10.723-0.94764zm-73.093-1.9856c-0.38122-0.38082-12.886-1.2554-21.23-1.4847-1.6309-0.0448-2.5488-0.50333-2.185-1.0914 0.95999-1.5516 40.54-1.0417 40.54 0.5223 0 1.5071-15.778 3.3993-17.125 2.0538zm125.26-0.26041c-1.9273-0.2082-4.1674-0.61044-4.9779-0.89387-1.2975-0.45371-1.2975-0.62665 0-1.4463 1.8622-1.1764 10.034-1.2164 11.864-0.058 1.7407 1.1014 0.56255 3.1497-1.6892 2.9368-0.93116-0.088-3.2699-0.3304-5.1972-0.5386zm-231.28-1.8228c0-2.0476 0.84358-2.2882 10.322-2.9439 7.4024-0.51212 8.8297-0.36342 9.3433 0.97338 0.33337 0.86782 0.43782 1.7224 0.23214 1.8992-0.2057 0.17672-4.7668 0.5713-10.136 0.87684-7.8384 0.44608-9.7617 0.28738-9.7617-0.80548zm138.1 1.1293c-0.24092-0.23853-0.28587-3.4227-0.0999-7.0758 0.44952-8.8302 2.6655-8.442 2.6655 0.46695 0 5.5085-1.0209 8.1383-2.5656 6.6089zm75.153-4.1919c0-0.87095 0.53502-1.4054 1.1889-1.1876 1.8564 0.61815 2.1644 2.7712 0.3963 2.7712-0.87187 0-1.5852-0.71259-1.5852-1.5835zm-133.16-3.8186c0-2.2273 3.089-2.7216 14.937-2.3904 6.8618 0.19183 10.565 0.69319 10.821 1.4652 0.2815 0.84818-2.333 1.1511-9.4301 1.0926-5.4008-0.0445-11.284 0.25076-13.073 0.65616-2.5961 0.58809-3.2539 0.42161-3.2539-0.82351zm2.4811-7.6348c-0.74874-1.2102 1.9766-1.7772 12.154-2.5285 6.5909-0.48654 9.3325-0.34435 9.862 0.51145 0.40334 0.65192 0.5756 1.321 0.3828 1.4868-0.88215 0.75875-21.949 1.2574-22.399 0.53017zm129.09-7.3199c-0.31295-0.81469-0.64768-6.0303-0.74382-11.59-0.14714-8.5086 0.063-10.063 1.327-9.8199 2.9382 0.56565 3.7771 20.551 0.93629 22.305-0.52274 0.32272-1.2065-0.0798-1.5195-0.8945zm-122.83-0.63993c-10.319-0.90384-6.071-2.1389 7.7618-2.2565 12.312-0.10471 17.073 0.48073 13.426 1.6511-2.3996 0.77003-15.149 1.1344-21.188 0.60544zm48.327-11.448c0-5.1152 0.43868-8.7129 1.1131-9.1293 2.0497-1.2654 2.9889 2.0132 2.455 8.5702-0.29113 3.5754-0.53724 7.0634-0.54692 7.751-0.01 0.68759-0.69341 1.2502-1.5194 1.2502-1.2163 0-1.5018-1.6048-1.5018-8.442zm-54.651-3.6985c-0.78116-1.2626 1.0873-1.6888 10.098-2.3037 4.4053-0.30061 10.659-0.83891 13.898-1.1962 4.788-0.52826 5.8018-0.38912 5.4252 0.74454-0.30622 0.92167-2.8109 1.6139-7.3902 2.0423-14.177 1.3264-21.505 1.5636-22.031 0.71308zm-52.838-8.556c-1.1966-1.1953-0.64648-3.3066 0.86156-3.3066 0.82599 0 1.5018 0.64852 1.5018 1.4412 0 1.6709-1.429 2.7988-2.3634 1.8654zm118.51-2.4982c-1.1994-0.44322-1.9931-1.369-1.7637-2.0572 0.28332-0.85024 3.0421-1.2949 8.6056-1.3872 7.6822-0.1274 10.535 0.74706 8.5288 2.6145-1.2447 1.1587-12.794 1.7823-15.371 0.82995zm-12.776-0.45906c-0.68832-0.28377-1.2515-1.1834-1.2515-1.9992 0-1.0281 0.84493-1.3862 2.7533-1.1668 1.6265 0.18695 2.7533 0.9248 2.7533 1.803 0 1.559-2.1272 2.2404-4.2551 1.3631zm61.015-0.0372c-1.4134-0.28526-2.1913-1.0652-2.0024-2.0077 0.2591-1.2931 2.4757-1.5502 13.767-1.5971 8.813-0.0366 13.583 0.31777 13.819 1.0267 0.1987 0.59544-0.0641 1.3452-0.58399 1.6662-1.2317 0.76042-21.997 1.5179-25 0.91189zm-110.32-1.2289c0-1.28 1.9968-1.8073 4.81-1.2701 1.764 0.33685 2.0337 0.67582 1.039 1.3056-1.7982 1.1385-5.849 1.1139-5.849-0.0355zm33.04-1.5835c0-0.93345 0.94557-1.5002 2.503-1.5002s2.503 0.56674 2.503 1.5002-0.94557 1.5002-2.503 1.5002-2.503-0.56674-2.503-1.5002zm52.096-0.18939c-2.1455-1.5012-2.2527-2.0668-1.6402-8.6508 0.71686-7.7049 0.90653-8.2124 2.6637-7.1276 0.80931 0.49964 0.99237 2.4131 0.57236 5.9827-0.47108 4.004-0.26266 5.5423 0.87917 6.4889 3.3608 2.7862 1.0993 5.8076-2.475 3.3068zm-73.621-0.31067c-0.34033-0.55007-3.9712-1.0001-8.0687-1.0001-12.938 0-8.0628-1.6667 6.723-2.2984 9.0149-0.38514 14.876-0.22959 16.105 0.42741 2.9347 1.5689 1.3094 2.261-4.6611 1.9848-3.0173-0.13961-5.6815 0.22076-6.0514 0.81853-0.83312 1.3466-3.2308 1.3868-4.0468 0.0678zm-113-2.0728c-4.9202-3.8661-2.3694-7.2071 2.7607-3.6159 2.6244 1.8371 3.3279 1.9106 7.509 0.78423 7.0689-1.9043 16.628-1.9596 16.628-0.0961 0 1.137-1.6967 1.6365-7.0084 2.0632-3.8546 0.30964-8.2767 1.0972-9.8269 1.7502-4.0967 1.7257-7.0721 1.4638-10.062-0.88561zm67.018-4.178c-0.51487-3.2268-1.9236-15.578-3.1287-27.432-0.61773-6.0762-0.0299-10.322 1.4288-10.322 0.6238 0 4.2098 33.922 4.1499 39.255-0.0341 3.0407-1.9086 1.8929-2.45-1.5002zm42.478-1.3426c0-1.3096-1.0079-1.5318-5.6716-1.2502-3.5688 0.21548-5.8104-0.0714-6.0459-0.77374-0.48653-1.4508 6.2772-2.2828 20.185-2.4829 13.5-0.19419 15.599 1.583 3.0984 2.6231-6.2735 0.52202-8.5622 1.0818-8.5622 2.0944 0 0.76003-0.67581 1.3819-1.5018 1.3819s-1.5018-0.71667-1.5018-1.5926zm-90.939-2.7025c-1.2824-1.5436 0.13916-4.2508 1.7198-3.275 1.3327 0.82275 1.4684 3.2322 0.22538 3.9996-0.48826 0.30145-1.3636-0.0246-1.9451-0.72461zm80.927-6.3185c0-0.83038 1.106-1.416 2.7533-1.4577 1.5143-0.0384 9.3634-0.27764 17.442-0.53161 9.0424-0.28426 14.922-0.0846 15.296 0.51937 0.88229 1.426-4.0844 2.0161-20.724 2.4621-12.119 0.3248-14.768 0.14684-14.768-0.99209zm86.771-4.0549c-0.36711-0.36671-0.66747-1.6847-0.66747-2.929 0-1.2442-0.67581-2.9373-1.5018-3.7624-1.7038-1.7019-2.0786-10.17-0.49353-11.149 0.55455-0.34236 1.1819-0.0314 1.3942 0.69107 2.0437 6.9559 4.6116 16.464 4.6091 17.066-4e-3 0.92933-2.4329 0.98993-3.3405 0.0833zm-85.019-2.15c-4.4386-0.51017-3.1586-2.1838 1.6702-2.1838 5.3745 0 7.5909-0.7613 7.5909-2.6073 0-1.3649-0.65416-1.505-8.2399-1.7652-4.7908-0.16429-5.3699-2.0211-0.77089-2.4715 6.8181-0.66775 26.153 0.98159 25.733 2.1952-0.24324 0.70359-2.88 1.1484-6.8076 1.1484-5.0308 0-6.4106 0.32289-6.4106 1.5002 0 1.259 1.6501 1.4432 10.262 1.146 7.199-0.2485 10.262-0.0152 10.262 0.78149 0 0.62464-0.56318 1.3416-1.2515 1.5933-1.5189 0.5554-28.176 1.1073-32.038 0.66332zm-82.363-4.2297c-0.87847-2.7648 1.1636-5.117 2.5579-2.9464 0.52705 0.8205 0.84619 2.1296 0.70922 2.9091-0.40927 2.3291-2.5313 2.3533-3.2672 0.0373zm2.0169-9.9556c-0.39963-0.64593-0.27608-1.6245 0.27459-2.1745 0.66747-0.66675 1.2434-0.60866 1.7278 0.17428 0.39963 0.64594 0.27607 1.6245-0.27459 2.1745-0.66747 0.66676-1.2434 0.60866-1.7278-0.17428zm80.597-0.36556c0-1.4097 1.619-1.6599 11.764-1.8176 15.766-0.24513 19.712 0.10012 18.188 1.5913-0.22945 0.22452-7.0626 0.73511-15.185 1.1346-13.296 0.65403-14.768 0.56352-14.768-0.90829zm-3.8495-5.6006c0.27955-0.83772 3.3237-1.3182 9.3903-1.4821 4.9372-0.13341 13.032-0.59485 17.987-1.0254 6.5352-0.56776 8.7298-0.48078 7.9879 0.31663-1.0283 1.1053-3.4354 1.3724-24.387 2.7055-8.8734 0.56464-11.301 0.45084-10.979-0.51461zm4.1589-4.3517c-0.28047-0.44915-0.34917-0.97726-0.15264-1.1736 0.19651-0.19631 6.2113-0.62958 13.366-0.96284 7.1549-0.33325 15.288-0.83939 18.073-1.1248 4.8538-0.49725 11.405 0.96119 10.113 2.2515-0.57711 0.57647-12.9 1.197-32.539 1.6385-4.593 0.10326-8.5803-0.17974-8.8608-0.62888zm56.008 0.65433c-0.68833-0.27745-1.2515-1.1156-1.2515-1.8625 0-1.9848 24.053-2.5905 24.805-0.62463 0.28429 0.74311-0.11195 1.7488-0.88051 2.235-1.4567 0.92135-20.488 1.133-22.673 0.25214zm32.977-2.0728c0.37334-1.9365 7.6794-3.6886 9.2312-2.2138 1.7281 1.6423-1.5487 3.9488-5.6101 3.9488-3.2151 0-3.893-0.32481-3.6211-1.735zm25.093-2.2513c-1.239-0.52241-2.2527-1.3593-2.2527-1.8597 0-1.3936 2.5936-3.2312 3.4098-2.4159 0.72547 0.72468 26.884 0.44449 31.182-0.334 3.0863-0.55906 7.4587 1.1999 7.4587 3.0006 0 1.2056-2.6006 1.4692-15.171 1.5376-8.3442 0.0454-16.792 0.29383-18.773 0.55196-1.9807 0.25813-4.6149 0.0419-5.8539-0.4805zm-225.51-0.99067c-3.1427-0.36602-4.5924-1.0288-4.8151-2.2014-0.28789-1.5155 0.86948-1.6349 11.971-1.2344 11.17 0.40296 16.559 1.5854 12.776 2.8033-2.4162 0.77794-15.2 1.1836-19.932 0.63247zm157.24-1.2738c-0.49406-1.2377-1.1201-2.9702-1.3912-3.8502-0.42274-1.3722-3.5835-1.7025-22.21-2.3206-21.859-0.72549-24.517-1.0207-24.517-2.7232 0-0.54081 3.661-0.71184 8.7605-0.40926 4.8183 0.28588 16.392 0.76204 25.72 1.0581 9.3275 0.29609 17.199 0.77791 17.492 1.0707 0.29311 0.2928-0.10421 0.92572-0.88295 1.4065-1.154 0.71247-1.1926 1.3636-0.20859 3.521 1.2223 2.6798 0.85815 4.4972-0.9011 4.4972-0.52996 0-1.3678-1.0126-1.8618-2.2503zm-124.96 0.53179c-1.9757-0.70796-1.4578-2.282 0.7509-2.282 1.1013 0 2.0024 0.42349 2.0024 0.9411 0 1.2802-1.2389 1.8836-2.7533 1.3409zm84.852-2.1654c0-0.48591 0.78844-1.0884 1.7521-1.3388 3.039-0.78979 34.291 0.44427 34.291 1.3541 0 0.47754-8.1097 0.86825-18.022 0.86825s-18.022-0.39757-18.022-0.88349zm116.14-4.1762c0-1.1326 0.45054-1.7811 1.0012-1.4412s1.0012 1.2666 1.0012 2.0593-0.45054 1.4412-1.0012 1.4412-1.0012-0.92667-1.0012-2.0593zm-12.573-12.232c-0.87881-2.2877 0.92649-7.2114 2.6441-7.2114 1.8167 0 1.3722 5.4094-0.61036 7.4285-1.2133 1.2356-1.4869 1.2064-2.0337-0.21703zm2.1422-13.962c-0.25115-1.2377-0.72122-4.1981-1.0446-6.5788-0.50327-3.705-0.34402-4.2813 1.1055-4.0005 2.2606 0.43791 3.7167 5.1223 2.9166 9.3829-0.73589 3.9184-2.2978 4.546-2.9774 1.1965zm-58.152-5.4798c-14.495-0.328-17.123-0.7867-14.128-2.466 1.8507-1.0376 31.27-0.27118 34.31 0.89385 2.4879 0.95367 0.24162 2.3024-3.4709 2.084-2.0325-0.11955-9.5524-0.3499-16.711-0.51188zm-144.33-3.958c-0.35635-0.99749-0.82711-2.146-1.0461-2.5523-0.21902-0.40625 0.26615-0.48396 1.0782-0.1727 1.8702 0.71691 2.8493 3.1597 1.5804 3.9431-0.5305 0.32752-1.2561-0.22064-1.6124-1.2181zm-39.243-6.2045c-2.3976-1.5176 0.65003-2.37 5.6846-1.59 3.7297 0.57785 4.2764 0.89029 2.6822 1.5328-2.6906 1.0844-6.7006 1.1118-8.3668 0.0572zm105.95-6.0548c1.1386-2.1252 2.9124-3.5103 3.607-2.8165 0.52465 0.52409-3.0174 4.7611-3.9801 4.7611-0.36778 0-0.19987-0.87505 0.37312-1.9446zm170.23-4.9973c0-1.0677 0.45054-2.2194 1.0012-2.5593s1.0012-3.2653 1.0012-6.5008c0-5.3753 1.1732-8.1626 2.766-6.5714 1.3481 1.3466 1.0413 10.249-0.47622 13.822-1.687 3.9724-4.2922 5.0706-4.2922 1.8092zm-119.14-25.062c0-0.55007 1.6895-1.0468 3.7545-1.1038 3.1039-0.0857 27.88-0.0351 36.043 0.0736 1.239 0.0165 2.2527 0.48005 2.2527 1.0301 0 0.635-7.6759 1.0001-21.025 1.0001s-21.025-0.36512-21.025-1.0001zm-98.548-2.6779c-0.35448-0.92277-0.026-2.2955 0.72979-3.0506 1.1649-1.1637 1.5689-1.1386 2.6518 0.16483 1.5089 1.8162 0.71972 4.5635-1.311 4.5635-0.78435 0-1.7161-0.75499-2.0706-1.6778zm112.58-2.0493c-18.709-0.55862-15.787-2.2737 3.8729-2.2737 13.396 0 17.211 0.28237 16.892 1.2502-0.45785 1.3893-3.4972 1.5391-20.765 1.0235zm82.486-8.1795c-3.7117-1.6838-5.4083-3.6218-5.4083-6.1775 0-1.5214 1.9135-1.0438 5.0249 1.254 2.6694 1.9714 4.2165 2.1795 16.73 2.2503 11.484 0.0649 13.788 0.32588 13.788 1.5612 0 3.3674-23.27 4.2261-30.134 1.112zm-192.32-1.731c-0.67663-1.7614 0.6402-4.5143 2.4472-5.116 1.4415-0.47999 3.5672 3.4842 2.8581 5.3301-0.74881 1.9493-4.5329 1.7966-5.3053-0.21409zm185.82-9.1152c-0.0529-0.41255-0.0588-5.8974-0.0131-12.188 0.0769-10.589 0.94009-14.767 2.5222-12.21 1.2512 2.0223 1.8165 19.608 0.71996 22.398-0.9937 2.5283-3.0019 3.7722-3.2291 2.0002zm-180.76-2.7503c-0.31697-0.82511-0.30483-2.2068 0.0269-3.0705 0.82688-2.1525 5.0026-1.4251 5.4562 0.95044 0.60249 3.1554-4.3498 5.0703-5.4831 2.1201zm7.877-8.6886c0.61881-1.8545 2.7742-2.162 2.7742-0.39588 0 0.87094-0.71336 1.5835-1.5852 1.5835-0.87189 0-1.4069-0.53445-1.1889-1.1876zm16.791-18.637c0-4.5811 2.3738-13.69 4.0505-15.543 1.1681-1.2909 0.35405 10.165-1.1096 15.615-1.6392 6.1033-2.941 6.0715-2.941-0.0719zm116.3-0.80183c0.27305-1.421 1.3299-1.9215 4.3529-2.0612 2.1958-0.10152 5.8354-0.42064 8.0881-0.70916 2.3884-0.30589 4.5619-0.059 5.2139 0.59225 0.76782 0.767 1.5233 0.79708 2.412 0.096 0.71166-0.56144 4.2948-1.2868 7.9626-1.6118 5.2432-0.4647 6.7854-0.28704 7.215 0.83113 0.8421 2.1921-0.95212 2.7447-9.7583 3.0051-4.4716 0.13224-12.116 0.57658-16.988 0.9874-8.3338 0.70272-8.8369 0.63583-8.4977-1.1297zm44.138 0.41012c-3.4368-1.1364-4.3716-3.4186-1.6234-3.9637 3.339-0.66222 15.747 0.71722 16.1 1.7899 0.33317 1.0115-1.1329 1.4842-8.7196 2.8117-1.3766 0.24088-3.9672-0.0462-5.7569-0.63798zm-54.732-0.53655c-0.41285-0.41255-11.769-1.0092-25.237-1.3258-19.81-0.46576-24.771-0.86063-25.98-2.0675-1.3238-1.3223 0.30164-1.4842 14.307-1.4246 8.6903 0.037 17.377-0.0992 19.305-0.30263 1.9273-0.20345 5.8695-0.0282 8.7605 0.38934 5.2052 0.75185 5.2563 0.73358 5.2563-1.8804 0-1.6796 0.54622-2.6396 1.5018-2.6396 0.82599 0 1.5018 0.64056 1.5018 1.4235s1.1264 2.7606 2.503 4.3949c1.3766 1.6343 2.503 3.244 2.503 3.5772 0 0.86551-3.5263 0.75037-4.4217-0.14438zm98.535-1.1911c0-0.51761 0.40989-1.1942 0.91086-1.5034 1.2938-0.79874 4.1946 0.47447 3.5297 1.5492-0.73682 1.1909-4.4406 1.1527-4.4406-0.0458zm-140.67-8.0021c-15.389-0.61267-18.698-2.203-6.5078-3.1282l7.509-0.56991-6.1349-0.18018c-4.1791-0.12274-6.5508-0.68075-7.4394-1.7503-1.1811-1.4217 0.86652-1.5172 21.654-1.0107 12.627 0.30767 23.296 0.56416 23.709 0.56999 0.41299 6e-3 0.7509 0.72782 0.7509 1.6044 0 0.87661 0.9195 1.834 2.0433 2.1276 1.1238 0.29358 1.8755 1.039 1.6704 1.6566-0.42668 1.2846-15.271 1.5559-37.254 0.68071zm27.533-3.0583c-2.0374-1.3152-18.335-1.3152-17.521 0 0.34108 0.55129 4.7485 0.99326 9.8208 0.98482 6.311-0.0105 8.7302-0.3199 7.7002-0.98482zm-19.755-0.65602c-0.67784-0.27396-2.0295-0.29063-3.0036-0.0371-0.97414 0.25358-0.41954 0.47773 1.2324 0.49811 1.652 0.0204 2.449-0.18709 1.7712-0.46105zm31.741-3.3961c-1.426-2.6616-0.87076-6.4492 0.94541-6.4492 0.7801 0 1.8363 1.2525 2.3472 2.7833 1.6335 4.8953-1.0394 7.8714-3.2926 3.6659zm-43.024-2.7187c-5.6202-0.433-8.1379-1.2139-7.4577-2.3132 0.40939-0.66171 3.9454-0.78157 9.9872-0.33855 5.1444 0.37722 10.171 0.29032 11.171-0.19311 1.1976-0.57908-2.3687-1.0507-10.453-1.3824-7.442-0.3053-12.17-0.89696-12.014-1.5035 0.14107-0.55007 2.9597-1.0842 6.2637-1.187 3.304-0.1028 6.8222-0.21532 7.8184-0.25003 0.99616-0.0347 1.5327-0.5132 1.1924-1.0633-0.34032-0.55007-4.1064-1.0001-8.369-1.0001-4.6931 0-8.2242-0.47342-8.9517-1.2002-0.66079-0.66008-1.2014-3.1842-1.2014-5.6091 0-4.0576 0.1795-4.368 2.2527-3.8955 1.239 0.28241 3.1466 0.17585 4.2391-0.2368 2.6387-0.99665 5.5226-0.17067 5.5226 1.5818 0 0.77457 1.1296 1.8373 2.5103 2.3617s2.3944 1.5259 2.2527 2.2255c-0.16378 0.80869 1.1101 1.3852 3.4969 1.5825 2.456 0.20305 3.7545 0.80836 3.7545 1.7502 0 0.79189-0.45054 1.4398-1.0012 1.4398s-1.0012 0.45005-1.0012 1.0001 1.239 1.007 2.7533 1.0154c3.4188 0.019 5.7368 1.3994 4.8249 2.8733-0.46928 0.75848 0.88313 1.1119 4.2545 1.1119 5.6247 0 9.2527 2.49 5.0257 3.4493-2.2167 0.50306-19.307 0.3639-26.87-0.2188zm0.2503-12.894c-0.68833-0.27744-1.8147-0.27744-2.503 0-0.68833 0.27745-0.12515 0.50446 1.2515 0.50446s1.9398-0.22701 1.2515-0.50446zm43.355 3.4127c-0.21155-0.68759-0.64104-4.063-0.95443-7.501-0.44617-4.8947-0.27309-6.2508 0.79781-6.2508 1.7465 0 3.5874 7.46 2.9 11.751-0.52149 3.2552-2.0208 4.3485-2.7433 2.0003zm-277.89-14.517c0-1.1116 0.62619-2.2611 1.3915-2.5545 3.084-1.1822 34.356-1.9454 36.248-0.88469 1.5667 0.87837 1.6393 1.1632 0.40596 1.593-1.5852 0.55248-12.132 1.4387-23.028 1.935-3.5793 0.16304-8.4226 0.66448-10.763 1.1143-3.8724 0.74433-4.2551 0.63609-4.2551-1.2032zm64.179-1.4324c-8.3505-1.5487-4.3378-2.77 9.1586-2.7876 9.7963-0.0128 11.764 0.23562 11.764 1.4849 0 1.158-1.3132 1.5033-5.7569 1.5138-3.1663 8e-3 -6.658 0.18859-7.7593 0.40238-1.1013 0.2138-4.4342-0.0623-7.4065-0.61349zm24.615 0.55168c-1.3057-1.3043-0.68231-2.3545 1.3975-2.3545 1.1652 0 1.9109 0.52423 1.6895 1.1876-0.4877 1.4615-2.1594 2.0934-3.087 1.1668zm-41.194-1.2852c-0.31682-0.51206-0.11411-1.2162 0.45047-1.5648 1.4273-0.88119 5.1707 0.43217 4.4682 1.5676-0.74438 1.2032-4.1738 1.2011-4.9187-3e-3zm61.228 0.25031c-0.29094-0.47024-0.56682-5.5726-0.61305-11.339-0.0866-10.802-0.22598-12.511-2.6087-31.986-3.6646-29.954-3.7631-31.125-2.7069-32.18 2.6177-2.6148 3.3363 0.80835 4.7607 22.679 0.2508 3.8505 0.89052 9.4762 1.4216 12.502 1.0792 6.1479 2.4703 24.479 2.5199 33.205 0.0297 5.2356-1.5037 9.1718-2.7736 7.1193zm140.47-0.58675c0-1.2446 2.0334-1.6789 10.588-2.2614 6.7812-0.46171 10.952-0.3571 11.601 0.29094 1.6217 1.6199-0.0601 2.0301-11.448 2.7921-9.3166 0.62341-10.741 0.51442-10.741-0.82168zm84.101 0.25835c-0.82599-0.4379-3.2247-1.1776-5.3305-1.6438-4.6816-1.0364-4.4752-2.8478 0.32447-2.8478h3.5042l0.14726-18.002c0.081-9.9013 0.19535-19.055 0.25412-20.342 0.18538-4.0593-0.71717-4.4798-7.8006-3.6344-6.7384 0.80422-18.192 0.74674-19.035-0.0955-1.4457-1.4442 2.6805-2.4266 12.43-2.9596 15.771-0.86217 14.719-0.11509 13.925-9.889-0.74718-9.1988 0.13766-12.087 4.1721-13.62 3.6214-1.3754 30.792-2.7417 38.958-1.9591 1.652 0.15831 12.915-0.0729 25.03-0.51375 31.4-1.1428 62.512-0.95688 63.852 0.38146 0.60104 0.60039 0.76286 1.4212 0.35959 1.824-0.40325 0.40283-14.565 0.76688-31.471 0.80899-40.72 0.10144-96.611 1.5106-97.632 2.4615-0.44815 0.41732-0.41072 2.2827 0.0832 4.1453 0.82901 3.1262 0.95453 3.2137 1.6325 1.1386 0.40976-1.2542 1.9221-2.5701 3.421-2.9768 2.4142-0.65489 16.816-1.0031 23.211-0.56121 1.3766 0.0951 22.552-0.20845 47.056-0.67459 28.032-0.53325 46.967-0.4901 51.061 0.11636 3.5793 0.53012 12.14 1.1423 19.023 1.3604 17.021 0.53929 28.331 1.4928 29.539 2.4902 0.55287 0.45645 2.5766 0.97921 4.4972 1.1617 3.9612 0.37632 5.2854 3.0794 2.2925 4.6795-1.3013 0.6957-3.2904 0.47735-6.8185-0.7485-5.1355-1.7844-15.342-1.8674-20.566-0.1673-1.7168 0.55879-3.3773 0.38222-5.006-0.5323-1.7326-0.97285-4.3528-1.1947-9.0642-0.76754-3.8198 0.34634-6.8767 0.19737-7.2164-0.35167-0.63732-1.0301-27.789-0.77104-63.75 0.60826-11.839 0.45411-29.284 0.71502-38.765 0.57981l-17.239-0.24582-0.0438 3.6393c-0.024 2.0016-0.29809 7.6342-0.60897 12.517-0.49126 7.7157 0.93581 25.305 2.1516 26.52 0.23258 0.23233 22.841 0.51867 50.242 0.6363 27.4 0.11764 50.022 0.27175 50.269 0.34247 0.2478 0.0707-0.0693 0.64788-0.70469 1.2826-0.83941 0.83851-14.844 1.1803-51.226 1.2502-46.275 0.0889-50.203 0.22883-51.823 1.8464-1.4007 1.3992-1.4581 1.742-0.28608 1.7094 7.9315-0.22057 97.482 1.1087 97.826 1.4521 0.25096 0.2507 0.12507 0.99115-0.27974 1.6455-0.5596 0.90446-7.604 1.0014-29.385 0.4043-33.235-0.91108-49.678-0.89335-63.761 0.0688-8.5504 0.58416-10.326 0.44435-11.693-0.92049-2.2923-2.2898-2.9338-2.0052-2.5714 1.1411l0.3168 2.7504 10.513 0.0844c23.849 0.19142 47.056 1.6572 47.056 2.972 0 1.6929-12.035 2.2567-21.838 1.023-4.9988-0.62904-9.2859-0.5584-13.516 0.22272-6.963 1.2857-23.422 1.407-25.719 0.18947zm5.9053-13.243c0.53234-1.435 0.31367-3.6997-0.60356-6.2508-0.93147-2.5907-1.434-7.9655-1.4261-15.252 7e-3 -6.1883-0.34394-11.251-0.77927-11.251-1.1556 0-2.138 19.194-1.418 27.703 0.44493 5.2579 1.006 7.301 2.005 7.301 0.76293 0 1.7628-1.0126 2.2219-2.2503zm-3.2091-45.487c-0.25384-0.97309-0.47823-0.41908-0.49864 1.2311-0.0204 1.6502 0.18729 2.4464 0.46155 1.7692 0.27425-0.67711 0.29094-2.0273 0.0371-3.0004zm97.137 59.119c-1.7342-1.7323-0.37307-2.4684 4.0411-2.1855 2.6156 0.16766 4.7557 0.75489 4.7557 1.305 0 1.1639-7.7378 1.9384-8.7968 0.8805zm15.054-0.0593c-3.0502-0.81444-1.8915-2.4616 1.5018-2.1348 1.7896 0.17238 3.1651 0.76346 3.0565 1.3135-0.22892 1.1597-2.0571 1.4891-4.5583 0.82122zm-314.8-1.0175c-2.8455-0.55331-4.9639-3.0689-3.6715-4.3598 0.62841-0.62774 2.0985-0.57856 4.1594 0.13913 2.7727 0.96554 7.4605 0.88054 14.708-0.2667 4.48-0.70918 2.2189 1.6523-3.2002 3.3422-5.7335 1.788-7.7163 1.9773-11.995 1.1452zm150.6 0.10612c-1.5407-1.539-0.63879-2.4107 2.5098-2.4258 1.7896-9e-3 5.9572-0.70966 9.2611-1.5579 11.397-2.9262 10.746-2.875 10.35-0.81234-0.24835 1.2955-1.9249 2.3228-5.3559 3.2818-5.9827 1.6722-15.726 2.5523-16.765 1.5143zm-50.474-1.1854c-1.2224-0.77672-2.9655-6.2254-1.9916-6.2254 0.30666 0 1.748 1.1021 3.203 2.449 3.2136 2.975 2.2508 5.9764-1.2114 3.7764zm-14.128-1.3794c0.51965-1.5573 2.7596-1.83 2.838-0.34554 0.0291 0.55007-0.69861 1.1556-1.6171 1.3457-1.044 0.21602-1.5017-0.1589-1.2209-1.0001zm-216.81-2.7497c-1.3122-1.5796-1.7782-10.969-1.7392-35.044 0.0183-11.344-0.43219-18.214-1.4524-22.147-0.81344-3.1358-1.479-8.1692-1.479-11.185 0-3.7894-0.49124-5.8912-1.5898-6.8019-4.2292-3.5062 6.8103-4.3021 57.522-4.1475 21.126 0.0644 38.66 0.36529 38.963 0.66861 1.39 1.3886-1.9032 1.7315-20.466 2.1311-55.723 1.1996-70.425 1.7192-70.425 2.4885 0 1.6156 6.8073 1.9208 50.832 2.2795 24.378 0.1986 44.479 0.53935 44.668 0.75722 2.1464 2.469 3.0046 7.0556 3.3482 17.894 0.21806 6.8783 1.0997 18.132 1.9593 25.008 2.41 19.278 2.7991 28.981 1.1678 29.116-0.74484 0.062-23.582 0.17456-50.748 0.25003-41.303 0.11475-49.585-0.0928-50.561-1.2668zm42.005-3.1421c1.8629-0.7075 3.0334-0.70487 3.7474 8e-3 1.8385 1.837 3.6415 1.1126 3.6415-1.4626 0-1.8082-0.53791-2.5003-1.9433-2.5003-2.6521 0-3.6115-1.8626-1.374-2.6675 2.2543-0.81094 5.3198-3.8832 5.3198-5.3315 0-1.8856 3.7094-8.4287 5.9007-10.408 1.1599-1.0479 2.1089-2.2932 2.1089-2.7674s-2.0274-4.1984-4.5054-8.2761c-6.0269-9.9177-5.8878-13.146 0.5006-11.622 1.6701 0.39831 3.1693 1.9944 4.5054 4.7966 2.4524 5.1434 3.9911 5.359 5.5068 0.77128 1.182-3.5776 4.3765-5.3392 7.5066-4.1393 2.2722 0.87098 1.8472 2.8282-2.0002 9.2104-1.9273 3.1972-3.5042 6.1246-3.5042 6.5054s-0.9522 0.94102-2.116 1.245c-1.981 0.51748-1.8419 0.87745 2.1808 5.643 2.3632 2.7996 5.3429 5.3525 6.6214 5.6731 2.6513 0.66472 2.7005 0.79593 1.2882 3.4321-1.7852 3.3321-4.7255 2.2802-8.5706-3.0661-3.8828-5.3987-6.4354-6.5726-5.6772-2.6108 0.46034 2.4056-1.8938 7.0531-4.726 9.3299-1.8944 1.5229-1.2675 1.6583 7.9958 1.7266 6.7878 0.0501 7.5188 0.24751 7.6111 2.0556 0.27595 5.4082 0.33806 5.5006 3.6524 5.4376 1.7896-0.0341 6.633 4e-3 10.763 0.0841 11.034 0.21465 10.858 0.26539 7.8949-2.2763-2.1772-1.8675-2.7981-3.5918-3.6895-10.246-0.58946-4.4006-1.1666-11.827-1.2825-16.502-0.24066-9.7061-0.3445-11.422-1.3746-22.718-0.57768-6.3347-1.1272-8.3299-2.4002-8.7144-2.2837-0.68981-51.81-1.2766-67.877-0.80426l-13.162 0.38699 0.38991 6.6734c0.32284 5.5255 0.50142 22.393 0.29831 28.176-0.10651 3.0323 0.97247 9.5796 2.0328 12.335 0.5998 1.5588 0.86059 3.206 0.57953 3.6602-0.78509 1.2689 0.58161 4.0705 1.8621 3.8172 0.62567-0.12381 2.3826 0.10334 3.9043 0.50477 2.3183 0.61159 2.668 1.1229 2.1574 3.155-0.58711 2.3367-0.39595 2.4362 5.2429 2.7279 8.7892 0.45474 17.948-0.0876 20.99-1.243zm-16.974-1.6213c-0.36711-0.36671-0.66747-1.4918-0.66747-2.5003 0-1.5406 0.75991-1.8109 4.7557-1.6916l4.7557 0.14192-4.0048 0.67368-4.0048 0.67366 2.8855 1.2101c1.5871 0.66556 3.6892 0.95533 4.6715 0.64391 0.98223-0.31142 2.0757-0.0978 2.4298 0.47459 0.71534 1.1562-9.6785 1.5155-10.821 0.37406zm-2.1198-10.928c-1.2282-1.2269-1.4474-2.7082-0.95229-6.4364 0.3709-2.793 0.16438-6.2145-0.48794-8.0837-0.62206-1.7826-1.4085-6.2236-1.7477-9.869-0.79839-8.5811 0.42595-10.028 8.4663-10.007 9.9512 0.0268 10.657 2.6334 1.0448 3.8567-6.7455 0.8585-6.1597 2.6787 0.78068 2.4254 3.9136-0.1428 5.9434-0.70911 6.8164-1.9017 1.4465-1.9761 2.9004-0.47056 1.9456 2.0148-0.57142 1.4875-3.4198 2.0831-7.7661 1.624-1.158-0.12231-1.6946 0.30711-1.4184 1.135 0.45195 1.3544 0.85869 1.4858 5.2835 1.7068 1.7367 0.0867 2.503 0.69992 2.503 2.0028 0 2.3346-1.7464 3.8268-5.006 4.2772-1.7411 0.24059-2.605 1.0659-2.8381 2.7115-0.46118 3.256 1.0614 4.4519 6.48 5.0898 6.1817 0.72773 8.3755 3.6181 5.4288 7.1527-1.2072 1.4481-2.0089 1.8552-2.029 1.0303-0.0231-0.94652-0.96562-1.227-3.081-0.91685-1.6762 0.24575-3.2797 0.0718-3.5633-0.38655-0.70754-1.1436-5.4034-1.0573-5.4034 0.0993 0 0.51301 0.90108 1.2184 2.0024 1.5676 3.1797 1.0081 2.3261 2.5003-1.4303 2.5003-1.888 0-4.1506-0.71715-5.0281-1.5937zm9.462-19.35c0-0.51761-0.45054-1.2193-1.0012-1.5592-0.55066-0.33997-1.0012 0.0835-1.0012 0.9411 0 0.85757 0.45054 1.5592 1.0012 1.5592s1.0012-0.4235 1.0012-0.9411zm33.263 30.793c-1.9966-1.265-5.4063-2.2052-8.711-2.402-5.3868-0.32086-5.4216-0.30454-4.3516 2.0413 0.99425 2.1798 1.6756 2.3677 8.711 2.402l7.6324 0.0373zm32.451-4.5984c-0.27537-0.96262-0.76779-7.1509-1.0943-13.752-0.71438-14.443-1.5204-19.853-2.527-16.961-1.1391 3.2728-0.49187 24.71 0.86687 28.713 1.2414 3.6572 3.7494 5.4786 2.7544 2.0003zm-35.702-26.678c-1.3467-1.3452-2.3482 0.0173-1.5466 2.1041 0.57518 1.4973 0.81564 1.5431 1.5838 0.30152 0.54628-0.88294 0.53153-1.8375-0.0371-2.4056zm32.54-15.648c-0.48416-8.7484-0.84588-9.9303-3.0392-9.9303-1.8282 0-1.8117 0.87386 0.10324 5.452 0.85027 2.0328 1.2601 4.5956 0.9108 5.695-0.76897 2.4202 0.21986 6.8553 1.5284 6.8553 0.54939 0 0.75684-3.3713 0.49669-8.072zm215.39 50.487c-0.75991-1.9782 0.0622-3.4102 1.9576-3.4102 0.87143 0 1.4427 0.99008 1.4427 2.5003 0 2.7968-2.4261 3.446-3.4003 0.90988zm164.59-0.82191c0-2.1145 2.0563-2.4046 20.525-2.896 15.951-0.42439 18.522-0.24746 18.522 1.2746 0 1.5231-4.5815 2.0747-21.776 2.6219-15.168 0.4827-17.271 0.36089-17.271-1.0004zm-483.09-3.8384c-0.96986-6.4646-0.26016-12.252 1.5025-12.252 1.979 0 2.3571 2.4956 1.537 10.145-0.78562 7.3282-2.1176 8.2512-3.0395 2.1062zm463.07 2.2503c0-1.6466 0.51893-2.0658 2.2527-1.8198 1.239 0.17577 2.2527 0.99467 2.2527 1.8198 0 0.8251-1.0137 1.644-2.2527 1.8198-1.7338 0.24597-2.2527-0.17323-2.2527-1.8198zm-8.3161 0.36057c-0.79989-0.79904 0.10432-2.3608 1.3668-2.3608 0.51816 0 0.94211 0.67509 0.94211 1.5002 0 1.5466-1.1814 1.987-2.3089 0.86063zm-300.02-4.2953c-0.57003-1.064-1.0364-5.8226-1.0364-10.575 0-7.2413 0.24881-8.5878 1.5368-8.3168 1.2192 0.25653 1.641 2.4419 2.0412 10.575 0.49977 10.157-0.24674 12.6-2.5416 8.3168zm335.24-1.1471c-1.8805-1.161 3.2466-2.9225 8.4566-2.9055 5.4929 0.0179 8.8684 0.96757 8.4028 2.364-0.43752 1.3122-14.861 1.7754-16.859 0.54154zm-27.514-1.669c-0.30284-0.96262-0.96451-2.784-1.4704-4.0476-1.2777-3.1915-1.1549-13.942 0.16868-14.759 2.9986-1.8512 4.2333 4.6399 2.5466 13.388-0.80395 4.17-0.74663 4.3209 1.5193 4.0005 2.3273-0.32906 2.3515-0.45943 2.0751-11.197-0.31294-12.157 0.26152-13.64 5.2856-13.64 1.7925 0 3.7828-0.63043 4.423-1.401 0.96802-1.1652 0.27242-1.4652-4.1325-1.7828-2.913-0.21004-9.0134-0.19825-13.556 0.0262l-8.2599 0.40806v2.9583c0 4.1779-2.4336 3.0455-2.7643-1.2862-0.14372-1.8827 0.0929-3.9612 0.52594-4.6187 1.2396-1.8827 29.294-2.7396 31.718-0.96885 2.3973 1.7511 2.3272 7.1579-0.12803 9.868-1.4796 1.6332-2.6092 1.8928-6.1355 1.41-3.7872-0.51854-4.2561-0.37649-3.7894 1.1481 0.2929 0.95694 1.0383 5.9638 1.6564 11.126 1.2724 10.628 1.0571 11.075-5.3459 11.101-2.7372 0.0111-3.9385-0.46951-4.3366-1.7349zm-227.05-0.33282c-0.25079-0.77957-0.69935-4.7928-0.99681-8.9184-0.29745-4.1255-0.83915-8.9636-1.2038-10.751-0.79389-3.8923 0.81484-4.3614 3.0854-0.89975 1.8183 2.7721 2.3071 19.254 0.62094 20.938-0.73229 0.7315-1.1877 0.61997-1.5058-0.36871zm83.88-2.3448c-0.83639-2.1773-0.0423-5.8665 1.3621-6.3285 0.86417-0.28429 1.2515 0.85222 1.2515 3.6721 0 3.9802-1.514 5.519-2.6136 2.6564zm182.95-1.4626c-2.9623-0.96666-6.4128-2.7447-7.6677-3.9512-2.6446-2.5426-4.1018-10.371-2.6399-14.182 1.9841-5.1725 13.794-13.455 18.281-12.822 2.9163 0.41155 3.2271 3.1586 0.41839 3.699-1.0999 0.21159-2.9469 1.3429-4.1043 2.514-1.1575 1.1711-3.4894 3.3725-5.182 4.892-3.233 2.9023-4.8066 7.3564-3.7612 10.647 0.82566 2.5986 10.705 8.1252 13.309 7.445 2.4182-0.6317 4.0698 1.5098 2.1172 2.7452-1.9832 1.2548-4.652 1.0104-10.771-0.98627zm-122.74-3.0697c-0.29664-0.47947 0.59001-2.2125 1.9703-3.8512 3.0304-3.5975 3.1861-5.191 0.5073-5.191-3.1712 0-2.3906-2.6757 2.6507-9.0856 5.4279-6.9014 7.9459-7.6068 8.5548-2.3964 0.48585 4.1571-0.94127 7.8557-4.6232 11.982-1.4725 1.6502-3.4194 4.2239-4.3265 5.7194-1.7941 2.9579-3.8801 4.2019-4.7334 2.8227zm8.8262-13.043c1.8898-3.1958 0.84268-4.0402-1.7716-1.4288-1.645 1.6432-2.1406 4.4291-0.78798 4.4291 0.43194 0 1.5838-1.3502 2.5596-3.0004zm128.31 12.002c-0.34955-1.1001-1.5063-2.0002-2.5705-2.0002-2.185 0-2.3259-0.40186-1.005-2.8673 0.64565-1.2051 0.33961-3.0526-1.0012-6.0442-2.4838-5.5417-2.4357-6.0904 0.53291-6.0904 3.118 0 6.7561 3.7664 5.9844 6.1954-0.86112 2.7102 0.49286 6.2757 1.8633 4.9067 1.8751-1.8731 3.7051-1.2177 3.7051 1.3269 0 1.4315-1.0825 3.2783-2.638 4.5006-3.2856 2.5817-4.07 2.5934-4.871 0.0726zm-141.93-0.11734c-0.96894-0.5461-2.4537-2.6558-3.2995-4.6883-1.6879-4.0562-9.0325-16.754-11.165-19.303-1.5335-1.8329-0.74271-4.8952 1.2641-4.8952 0.73905 0 2.5465 1.5752 4.0165 3.5004 1.7956 2.3517 3.4925 3.5004 5.1706 3.5004 2.2036 0 2.4461 0.35197 2.0587 2.9885-0.32761 2.2298 0.0118 3.1315 1.337 3.5516 2.3173 0.73471 3.3711 4.165 1.844 6.003-0.94637 1.1391-0.83733 2.2114 0.51418 5.0565 1.8598 3.915 1.0665 5.8681-1.7408 4.2859zm53.205-1.0976c-0.0652-0.70694-0.0652-1.6229 0-2.0354s-0.55725-0.7501-1.3832-0.7501c-1.8791 0-1.9722-2.6265-0.13115-3.7008 2.42-1.4121 2.8246-4.8182 0.79069-6.6569-2.96-2.6758-5.5005-1.0968-4.8342 3.0047 0.69865 4.3006-1.8778 4.6998-2.8152 0.43616-0.83963-3.8187 1.0903-6.8003 5.2999-8.1881 1.8326-0.60417 3.574-1.7283 3.8696-2.498 0.79422-2.0675 2.8033-1.7106 6.135 1.0898 2.9077 2.444 4.4861 6.6048 3.4896 9.1988-0.64043 1.6672-2.9678 1.7078-3.6321 0.0634-0.27774-0.68759-0.54056-0.28568-0.58403 0.89312-0.0435 1.1788 0.7094 2.4511 1.6731 2.8274 1.5292 0.59708 1.37 0.99862-1.2515 3.1568-4.5719 3.7638-6.4864 4.6766-6.6264 3.1591zm-12.596-1.7435c-4.8047-2.9265-6.0415-8.4996-3.2796-14.778 1.3273-3.0173 3.3857-5.5916 5.6105-7.0162 7.193-4.6062 8.6224-1.7458 2.374 4.7506-4.0907 4.253-4.4657 5.4491-3.3911 10.816 0.44169 2.2061 1.5705 3.5186 4.028 4.6835 1.8779 0.89017 3.1521 2.0425 2.8314 2.5607-0.95352 1.5412-4.7493 1.0692-8.1732-1.0162zm89.2-2.4577c-0.86741-2.258-0.0103-6.8929 1.3576-7.3416 0.78967-0.25902 1.2515 0.56719 1.2515 2.2389 0 1.4572 0.46639 3.5199 1.0364 4.5839 0.86928 1.6225 0.70274 1.9345-1.0326 1.9345-1.138 0-2.3138-0.63707-2.6129-1.4157zm-183.98-0.27835c-0.35213-0.35177-0.64025-2.5898-0.64025-4.9735 0-3.1856 0.39792-4.3339 1.5018-4.3339 1.1095 0 1.5018 1.1603 1.5018 4.4416 0 4.2334-0.97889 6.2488-2.3634 4.8658zm134.64-9.2108c-1.9262-1.2187-0.48215-3.0969 2.381-3.0969 1.3117 0 2.6944 0.50037 3.0728 1.1119 0.68845 1.1128-1.1879 2.8579-3.0728 2.8579-0.55066 0-1.6221-0.39284-2.381-0.87299zm-296.6-2.5545c-0.32066-0.32032-7.9704-0.83328-16.999-1.1399-16.257-0.55209-19.49-1.2328-17.116-3.6041 0.93481-0.93381 5.766-0.93749 21.704-0.0165 13.631 0.78765 21.37 0.85503 23.092 0.20107 5.522-2.0972 7.7072-0.18284 2.7098 2.3739-3.0513 1.5611-12.476 3.0993-13.39 2.1856zm359.31-1.4358c-1.8661-1.8901-2.3336-4.1072-0.86605-4.1072 0.84537 0 4.12 4.3441 4.12 5.4655 0 1.0331-1.5189 0.3991-3.2539-1.3583zm-276.58 0.22946c-1.1013-0.2493-2.6656-0.67616-3.4761-0.94857-2.8298-0.95109 1.1756-2.3565 6.7622-2.3727 2.9086-8e-3 6.8739-0.67703 8.8116-1.4858 3.0582-1.2765 3.3843-1.7297 2.4708-3.4347-1.597-2.9808-1.4432-3.0947 4.204-3.1111 3.763-0.011 4.8296-0.29075 3.7545-0.98481-0.82599-0.53323-4.0838-0.9764-7.2396-0.98482-5.3429-0.0143-5.7829-0.1948-6.393-2.623-0.79091-3.1479 0.68903-4.3222 5.623-4.4617 1.9273-0.0545 6.1301-0.23144 9.3395-0.39318 4.0348-0.20333 5.9866 0.0998 6.3256 0.98233 0.26967 0.702 2.4616 1.7722 4.871 2.3782 4.8673 1.2243 7.4976 4.1212 7.4976 8.2576 0 3.4312 2.2457 4.2088 9.5293 3.2998 3.7895-0.47296 5.9658-0.30392 6.987 0.54271 2.4841 2.0594 0.68791 3.0011-5.8125 3.0472-3.4091 0.0241-9.5419 0.43054-13.628 0.90309-8.6157 0.9963-9.8926 0.69136-10.709-2.5575-0.80947-3.2217-3.619-3.0956-11.535 0.51786-6.311 2.881-13.521 4.3033-17.383 3.4291zm-241.77-8.8173c-1.4955-1.8-1.952-18.346-0.51714-18.744 0.55951-0.15528 1.2686 2.8107 1.6074 6.723 0.33341 3.8505 0.93309 8.1894 1.3326 9.6421 0.8419 3.0611-0.64407 4.5204-2.4229 2.3793zm268.43-19.74c-1.4589-2.9456-1.7711-4.5298-1.0348-5.2507 1.5365-1.5043 4.9172 3.0192 4.9172 6.5793 0 4.0823-1.4478 3.5869-3.8824-1.3287zm240.67 1.2179c-0.39963-0.64593-0.27608-1.6245 0.27458-2.1745 0.66747-0.66675 1.2434-0.60866 1.7278 0.17428 0.39963 0.64594 0.27607 1.6245-0.27459 2.1745-0.66747 0.66676-1.2434 0.60866-1.7278-0.17428zm5.5066-1.0001c0-1.6466 0.51893-2.0658 2.2527-1.8198 1.239 0.17577 2.2527 0.99468 2.2527 1.8198 0 0.82511-1.0137 1.644-2.2527 1.8198-1.7338 0.24597-2.2527-0.17323-2.2527-1.8198zm-331.62-0.75009c-0.56127-2.1617 0.0803-4.2505 1.3055-4.2505 0.50478 0 0.91777 1.3502 0.91777 3.0004 0 3.2517-1.4866 4.0876-2.2233 1.2502zm295.32 1.0339c-1.5292-0.23142-2.7533-1.0541-2.7533-1.8504 0-1.6844 6.612-1.9913 9.0108-0.41832 1.3349 0.87539 1.3349 1.0942 0 1.9696-0.826 0.54165-1.9524 0.92427-2.503 0.85028-0.55066-0.074-2.2402-0.32203-3.7545-0.55118zm11.264-1.2839c0-0.55007 0.45054-1.0001 1.0012-1.0001s1.0012 0.45005 1.0012 1.0001-0.45054 1.0001-1.0012 1.0001-1.0012-0.45006-1.0012-1.0001zm10.012-1.0001c0-1.5063 0.52277-2.0464 1.7521-1.8099 0.96365 0.18538 1.7521 0.99981 1.7521 1.8099 0 0.81004-0.78845 1.6245-1.7521 1.8099-1.2293 0.23649-1.7521-0.30352-1.7521-1.8099zm-373.45-5.7475c-10.933-1.078-20.193-2.7519-21.071-3.8094-1.8251-2.1968 0.53811-2.5287 9.7419-1.3685 16.182 2.0399 20.041 2.2176 20.82 0.95844 0.41772-0.67516-0.17524-2.0346-1.3741-3.1503-2.1966-2.0442-2.8407-4.8851-1.1077-4.8851 0.55066 0 2.848 1.8448 5.1051 4.0995 3.5524 3.5486 4.5279 4.0202 7.2587 3.5092 1.7352-0.32465 8.5994-0.88151 15.254-1.2375 13.306-0.71178 21.793 0.07 21.17 1.9501-0.26322 0.79389-5.2779 1.4035-15.328 1.8633-8.2154 0.3759-20.118 1.051-26.451 1.5002-6.3326 0.4492-12.64 0.70569-14.017 0.56997zm185.22-0.40147c-8.6603-1.314-10.012-1.7829-10.012-3.4728 0-1.3737 0.95821-1.4738 7.2587-0.75817 3.9923 0.45345 8.8356 0.79819 10.763 0.76607 1.9273-0.0321 9.9671-0.16482 17.866-0.29489 7.899-0.13008 14.59-9e-3 14.868 0.26902 1.6966 1.6948-2.3795 2.5032-15.458 3.0658-8.1252 0.34949-15.899 0.77607-17.276 0.94798s-4.981-0.0634-8.0096-0.52296zm-63.409-1.5187c-1.746-1.7442-0.18697-2.4081 5.0103-2.1335 7.7094 0.40726 8.6326 2.8003 1.0803 2.8003-2.9828 0-5.7235-0.30004-6.0906-0.66676zm21.852-0.34633c-1.1386-1.8403-3e-3 -2.2063 10.063-3.2426 6.9747-0.71806 9.9325-0.68166 10.747 0.13227 2.0083 2.0062-0.51299 2.8645-10.448 3.5568-6.7249 0.46859-9.8805 0.33264-10.363-0.44647zm23.322-6.5351c-1.0225-1.0214 1.9261-8.9539 3.3283-8.9539 1.3685 0 1.4655 2.0676 0.33996 7.2509-0.45271 2.0849-2.387 2.9829-3.6682 1.703zm-61.7-8.6938c-1.7265-1.7247-1.5383-13.762 0.21518-13.762 1.5253 0 2.6282 4.2244 2.6282 10.067 0 4.1649-1.0312 5.5048-2.8433 3.6946zm-102.57-2.4535c-0.39903-1.566-0.32846-7.1199 0.1405-11.058 0.0819-0.68759 0.80425-1.2502 1.6053-1.2502 2.8576 0 3.2237 13.246 0.3812 13.794-0.95097 0.18335-1.8643-0.45461-2.127-1.4858zm166.14-5.0622c-0.29276-0.47318-0.84264-3.1973-1.2219-6.0536l-0.68964-5.1932-9.1321-0.05764c-10.873-0.06863-16.824-0.99114-17.393-2.6963-0.3209-0.96165 3.3506-1.2465 16.065-1.2465 18.023 0 18.39-0.11329 19.607-6.0565 0.34275-1.6741 1.0737-3.0393 1.6244-3.0338 1.7189 0.01707 1.689 3.7598-0.0439 5.4909-2.9966 2.9934-1.0894 4.5995 5.4616 4.5995h5.981l0.30787-4.2419c0.22458-3.0943 0.78188-4.3317 2.06-4.5739 1.4617-0.27697 1.7521 0.42609 1.7521 4.2419 0 3.7461 0.32779 4.5739 1.811 4.5739 2.6474 0 5.9239 2.6539 4.6968 3.8043-0.83396 0.78178-17.95 0.11889-27.032-1.0469-2.059-0.2643-2.1112 0.15956-1.186 9.6366 0.19369 1.9839-1.7504 3.3347-2.667 1.8532zm37.063-7.9091c-1.151-1.1498-0.7346-4.3329 0.58014-4.4347 0.68833-0.0533 3.0537 0.01372 5.2563 0.14894 2.2026 0.13521 6.0322 0.29134 8.5102 0.34694 3.7897 0.08503 4.5054 0.41588 4.5054 2.0826 0 1.8097-0.78802 2.0051-9.0904 2.2542-4.9997 0.14997-9.3925-0.0291-9.7617-0.39795zm-111.34-3.3987c-1.4002-2.2631 1.4475-2.9008 17.578-3.9367 9.0755-0.58282 17.064-1.2578 17.752-1.5 0.71719-0.25232 1.2515-2.1365 1.2515-4.4132 0-4.1961 1.6317-6.285 3.1002-3.969 1.3079 2.0627 1.0819 9.2743-0.34691 11.07-1.2487 1.5691-2.0948 1.6627-30.461 3.37-5.431 0.32687-8.4164 0.11801-8.8735-0.62079zm-109.97-1.1191c-7.3481-0.72543-10.221-2.1855-7.6208-3.8728 0.84731-0.54983 3.226-0.64904 5.4982-0.22931 2.2026 0.40688 11.772 0.58664 21.264 0.39947 15.329-0.30225 17.33-0.15527 17.895 1.3142 0.34958 0.90999 0.39209 1.8978 0.0945 2.1951-0.82009 0.81921-29.29 0.96746-37.131 0.19335zm-23.648-2.3937c0-0.93136 0.68119-1.4416 1.6691-1.2502 2.5118 0.48661 2.8567 2.8237 0.4167 2.8237-1.2298 0-2.0858-0.64577-2.0858-1.5735zm64.083-0.91061c-1.5147-3.9796-1.2226-7.0324 0.92398-9.6566 2.8495-3.4835 4.0253-1.4648 3.2378 5.5592-0.72525 6.4688-2.5685 8.2836-4.1618 4.0975zm13.26 1.8218c-1.6584-0.66848-1.6005-2.9904 0.0908-3.6387 2.0067-0.76923 4.0414 0.87526 3.3404 2.6999-0.63169 1.6444-1.2565 1.8153-3.4312 0.93876zm6.7581-7.3387c0-0.55007 0.42395-1.0001 0.94211-1.0001s1.2206 0.45006 1.5609 1.0001c0.34033 0.55007-0.0836 1.0001-0.94211 1.0001-0.85849 0-1.5609-0.45006-1.5609-1.0001zm83.545-22.368c-1.0538-4.1943-0.083-11.136 1.5575-11.136 2.2215 0 2.7406 12.005 0.55536 12.842-1.0357 0.39701-1.724-0.15887-2.1128-1.7064zm-6.7488 0.03563c-1.2449-3.2407-1.8431-10.469-0.91387-11.042 1.7733-1.0948 3.5972 2.4508 3.656 7.1068 0.0558 4.4226-1.6271 6.8379-2.7421 3.9354zm-58.574-10.871c-1.8319-1.83-1.4355-4.6051 0.83095-5.8168 2.4638-1.3172 12.597-0.88876 12.208 0.5161-0.15237 0.55007-2.248 1.0001-4.6571 1.0001-7.088 0-7.244 1.4208-0.32223 2.9359 1.5143 0.33146 2.7533 1.0441 2.7533 1.5837 0 1.4052-9.3771 1.2152-10.813-0.21908zm21.075-0.46234c-2.5475-1.0268-1.136-2.3376 2.503-2.3244 4.865 0.01769 8.3829 0.97864 7.689 2.1003-0.5748 0.92904-8.036 1.0931-10.192 0.22406zm-94.609-1.5879c-0.8384-2.2774 0.37753-3.7507 3.0827-3.7352 3.5807 0.02054 5.6003 1.4299 4.8496 3.3842-0.74369 1.9359-7.243 2.2235-7.9323 0.35097zm185.97-0.7501c-1.1013-0.47275-5.2688-0.89117-9.2611-0.92983-6.4165-0.06214-7.2587-0.28884-7.2587-1.9539 0-3.5488 11.417-4.2591 19.023-1.1835 5.3201 2.1512 6.6955 5.1057 2.3261 4.9971-1.5547-0.03866-3.7278-0.45709-4.8291-0.92983zm-86.91-2.6398c-1.3345-1.3331 0.56799-2.3608 4.3704-2.3608 2.8398 0 3.9457 0.42046 3.9457 1.5002 0 1.0726-1.0939 1.5002-3.8379 1.5002-2.1109 0-4.126-0.2878-4.4782-0.63956zm50.713-0.6106c-0.98403-1.5879 0.92559-2.7503 4.5182-2.7503 3.5478 0 6.1484 1.375 6.1484 3.2509 0 1.0307-10.009 0.56099-10.667-0.50054zm48.712-3.2675c0-2.8068 11.056-4.6012 15.084-2.448 4.2587 2.2767 2.0889 3.4655-6.5736 3.6016-6.3412 0.09965-8.5102-0.19437-8.5102-1.1536zm-116.53-15.664c-2.9108-14.549-2.9428-14.922-1.4089-16.454 1.3392-1.3377 1.7537-0.83891 3.7628 4.5276 1.7852 4.7683 2.074 6.8078 1.3794 9.7416-1.0253 4.3306-3.0652 5.5246-3.7333 2.1852zm-40.677-18.367c-1.2099-2.8195-1.6856-5.1553-1.1575-5.6829 0.49318-0.49265 3.0996-0.756 5.7921-0.58521 4.204 0.26667 4.8869 0.60246 4.8356 2.3777-0.0577 1.9934 0.33014 2.0511 10.862 1.6177 10.28-0.4231 10.901-0.3389 10.562 1.4333-0.30996 1.623-1.8778 2.0363-11.362 2.9952-6.0516 0.61184-12.46 1.4542-14.24 1.8719-3.1366 0.73585-3.3012 0.61055-5.2915-4.0277zm85.621 3.4277c-10.367-1.2767-11.539-1.6559-10.829-3.5038 0.50797-1.3223 1.4982-1.4671 5.7216-0.83638 2.809 0.4195 8.9324 1.0312 13.607 1.3593 7.0155 0.49235 8.5585 0.90224 8.8339 2.3468 0.28632 1.5015-0.4236 1.7322-4.996 1.6237-2.9313-0.06958-8.4835-0.5149-12.338-0.9896zm20.984 0.049446c-0.92145-1.4893 0.1469-2.2991 2.0638-1.5643 0.88464 0.3391 1.328 1.0698 0.9853 1.6237-0.81155 1.3117-2.2178 1.2843-3.0491-0.059477zm-133.62-2.2802c-4.5261-0.9483-5.5637-1.5552-5.8271-3.4085-0.43344-3.0491 2.2992-3.9442 6.2082-2.0336 1.7178 0.83962 4.3533 2.0218 5.8568 2.627 1.8416 0.74136 2.5417 1.5998 2.1456 2.631-0.67068 1.7459-0.90412 1.751-8.3834 0.18402zm87.154-0.48697c-0.57785-0.18336-1.0506-0.99562-1.0506-1.805 0-2.294 9.3792-1.4628 9.8227 0.87052 0.27361 1.4395-0.35149 1.6932-3.6961 1.5002-2.214-0.12777-4.4982-0.38233-5.076-0.56569z" stroke-width="1.0007"/>
</svg>
