<?xml version="1.0" encoding="utf-8"?>
<svg xmlns="http://www.w3.org/2000/svg" version="1.1" viewBox="0 0 1375 199">
	<title>A two-dimensional line where the line starts flat on the left, then rises a moderate amount, and is labeled Box Hill. Then the line drops into a valley, and then remains flat through the center, labeled The Weald. Finally, the line rises again a great deal, and is labeled Chanctonbury, after which it drops off and ends.</title>
	<path d="m936 199-10-1h-6l-8-7h-3l-5-2-3-3-4 2-6 5-3 2-22-4-1-1-2-5-1-3-18-2-5-3-8-2-5-2-3-1-21-1-1 3-3 4h-4l-4-3-2-2-7-2-3 2-2 2-10-2-4 2c-4 2-10 2-24 3l-13 2-4 2-7-2-3 2c-1 2-5 3-8 3l-5 1-5-3-6-2-5-1-2-2-1 2h-9l-1-2-5 2c-2 1-5 2-6 1h-3l-1 1-6 2-5 1c-2 2-15 5-23 5-10 0-19-1-23-3l-3-1-10 1a356 356 0 0 0-25 4h-2l-6 4-3-1h-18l-10 1-4-2-7-3-4-1-9 4-3 6h-3l-7-2-6-2-12 2-10 2-14-1-5-4-8-4-10-1h-6l-2 1-2 1-6-3h-11l-3 5-3 4h-9l-5-4-9-1c-9 0-17-2-20-4-1-2-11-2-15-1l-3 1-22-3h-7l-10 2-3 2h-8l-13-1h-4l-1 1-3 1-3 1-13 1-11 1-9 2-13 1-5 1-4-2c-10-5-9-4-20-19l-5-7-1-1h-1v-3l1-2-6 1-2-3-9-10-5-6-3-4-1-3-6-5-5-6c-1-1-2-3-4-3l-7-1h-5l-3 2c-4 3-13 15-15 18l-4 5-4 3-7 3-14 4H23c-2 1-20 2-22 1l-1-2 12-1a443 443 0 0 1 54-1l7-1 11-3 7-5 6-7c2-4 11-15 15-18l3-2 14-1 2 2c1 1 4 3 5 6l7 6 4 2 1 3 4 6c5 5 9 10 10 13 2 4 4 5 6 3l4-1h2l1 5h-1l-2 1 1 2 1 1 3 4c2 1 3 4 4 6l5 6 9 7 7 3h4l4-1 6-1 9-1 14-2 16-3 4-2 14 3 6-1 8-2 6-1 7-1 3-1 2 1 2 1h36l2 2c3 2 10 3 16 4l5 1 3-2 4 2 7 4 2 1 2-2 2-3 3-3 3-2h7l9 1h4l12 1 9 1 4 2 6 3 8 2h6l3-2 12-2h8l3 2 5 3h2l2-6 11-5 13 5h14l16 1 3 1 2-2 2-2h5l10-2 14-2 9-2 3 1c5 2 14 3 25 3h9l6-2 7-2 6-2c7 0 14-2 17-3l2-2 4 2 4 1 5-2 3 1 6 1h4l5 4h3l8-2 5-3 8 2 4-4h11l19-3 9-2 9 1 4-1c4-1 11-1 14 1l1 2v2h5l1-4 2-4 11 1 17 2h8l3 3c4 2 10 4 18 4h4l5 5v6l6 3 8-2 6 3 2-2c1-2 4-4 7-5l6-2 3 2 3 2 4-1 7 6 4 1 8 2 5 2 3-2c5-2 13-3 19-3l5-1c1-2 5-2 10 0l5 1 4-3 10-3h5l3 1c4 2 14 2 16 1l1-1 4 2 4 2 3-2v-1h5l4 3 4 3 3-2 4-1c2 1 12-6 14-11 4-4 8-13 9-18l2-10 4-16 4-10 6-7 8-10c3-5 26-29 30-31l3-2h17l21 1a68 68 0 0 1 33 12l5 3 4 2 4 3c1 0 7 4 13 10a164 164 0 0 0 20 14l13 11 7 5 7 5c5 5 12 11 23 16l8 4 5 1 5 2 8 3a2481 2481 0 0 1 51 15l4 1v2l-1 1h-2l-11-2-9-1-2-2-3-1-19-6-24-7-7-1-2-2-6-4-10-6-28-22-13-10-10-7-6-5-8-6-13-9-7-3c-1-2-9-6-15-8l-13-3-8-1-7 1h-25l-2 2-3 2c-1 0-13 12-19 20l-11 13-5 7-4 9-3 8-1 8-2 13-5 12-3 7-16 14h-2l-5 1-4 2-5-3-4-3-4 1-3 2-4-2-4-2-7 2-6-1-11-1h-6l-9 5-10-3-4 1-11 2-10 1-7 1zm-789-59-1-1-1 1 1 1 1-1zm380 4-2-2-1-8v-7l5-4 2 1 3 2-1 3-1 1-1-2-1-1-2 2v2l5 5-4 1v2l1 2h5l4-1v4l-5 1-5 1-2-2zm87-3-1-1-1-7v-6l3-5h7l1 2v2l-6-2-1 4 4 3-2 2-1 2v1l1 2h3l4 1-8 3-2 1zm24-1-1-2v-6l2-7 4-1h3l2 3 2 3 3 6 3 4h4v1l-4 2h-3l-2-2-2-3-1-1-3 3-4 3-3-3zm7-5c1-4 0-8-2-8h-1l-1 3c0 4 1 8 2 7l2-2zm-133 6h-1v-12h-4l-1 4-1 7h-1c-1 0-2-1-2-3l-2-12-2-9 1-5h3l1 4 2 7 1 3 8 1 1 11 2 2v2h-5zm80-6-5-7c-1 0-4 4-4 8 0 3-2 5-3 3l-2-7v-6l-6-13v-2l3-1h2l1 3 2 5 1 5 2 5 2-2 5-1h2l1 3c1 1 2 3 3 2v-2c-1-2 2-10 5-13 2-3 11-8 14-8h2v2l1 2-5 1h-4l-3 2-5 6-2 3 1 7-1 9c0 2-1 3-2 3h-1l-4-7zm100 5c-2-2-2-6-1-10 2-3 5-5 8-5h2v-12h4l1 2 1 2-3 12 2 8h10l1 1v2h-3l-9 1h-9l-3 1-1-2zm8-4 1-2-1-3-3-3-2 2-1 3 1 3 2 3 3-3zm-221 2v-2h7v-3c0-4-5-14-6-14l-4-2-3-1-3 1h-8c-2-2 2-4 8-5l6-1 7 3 4-1 5-1 2 1c0 2-3 4-6 4h-2v1l2 4 2 12-3 4-1 2h-7zm194-1c0-2 1-3 3-3h1l-3-6-4-9v-4l1-1 4-3h2l1 1v3l-1 2-3-3v3l4 7 3 6-1 7-2 1-3 1-2-2zm617-68c-2-1-1-5 2-10l4-9 1-4-2-3-3-6c-2-3-3-6-1-8 1-1 3 1 5 6l2 4 2-4 2-5 1-1 1 2 1 1-1 2-3 10-4 13-3 8c0 2-2 5-3 5l-1-1zm-217-25v-2l5-1V31l-5-1 4-3V16l7-4 2 2 1 2-1 5-2 6-1 2v2l2-1 5 1 3 1v7h2l3 1v1l-3 1h-4l-3-4-2-4c-2 0-3 2-3 5v4h-2l-4 1-3 1-1 1zm-24-1-4-4-1-6 3-8c2-6 6-9 8-9 2 1 3 6 2 8 0 2-3 2-5 0l-1-1-1 2-1 6v6l1 1 2 1 4-2 6-1 1 2c0 2-6 6-9 6l-3 1zm231-1-1-3c1-2 0-4-2-4l-4 3-4 4h-1v-4l1-3-2-1c-1-2-2-4 0-6l1-2 2 2c2 0 3 1 3 2v2l3-1 2-1 5 2v6l2 3 1 3c-1 2-4 1-6-2zm-129 1-1-5v-4l2-3 4-2c2 0 4 2 4 5v1l-5-1v5l3 1 3 1-6 3-4-1zm105-1-1-1-5 1-2-3-1-5-1-4h4l1 4 1 4 1-3 3-4h1v2l1 4v3h4v1l-3 2-2 1-1-2zm-68 0c-1-1-3-5-3-8l1-3c2-2 7-2 8 0l2 1v7l-2 2c-2 2-4 2-6 1zm5-5c0-2-3-6-3-5v7h2l1-2zm38 4-3-5-1-6V18l1-2h2l4 1-1 5-2 2 2 14h3v-8l2 1 1 4v4l-2 2-3 2-3-2zm-116-1-2-5v-2h-3v7c-1 1-7-3-7-4l1-1h1l1-3 1-3h3l4 1 3 4 1 5 1 3h-1l-3-2zm16 0-1-4-1-3h-4v-2l1-3 2-2 3 2 3 3 2-1h3l1 1 2 4 1 4 1 1-1 1h-2l-3-3-1-4v-1h-2l-1 1v3l-1 4-2-1zm85 0-1-4c0-6-4-5-6 1v4h-3l-1-4v-3l-2-2-2-2c0-1 3-4 6-5l2-1-1 2-1 3 1 1 3-2 3-1 5 4-1 6h1l1 3v2h-2l-2-2zm-45 0-1-1v-6l-1-6h-6v-4h2l2 1 1-4 3-4 4-1h2v1l-2 2-1 3v2l2-2c3-1 6-2 6 0 1 1-3 5-5 5h-3v11l5 2-1 1h-7zm-958-4-2-2-2-21 5-6 3 1v29h-1c-1 1-2 0-3-1zm-15-2-2-7v-6l2-2 3-1 1 9v8l-1 1-3-2zm28 1-2-1-1-9V13l2-4 2-1h1l2 2-1 4-1 3 3 13 1 1 2 2c0 2-2 3-4 3l-4-1zm-102-3c2-4 2-7 1-9-1-1-2-3-4-3l-2-1c0-1 1-2 3-2l2-2 3 2 3 2 1-1 2-1h1l-1 9h6v1l-2 2-4 1h-3l-1 2-4 3h-1zm49 2v-6l1-3-2-9-1-9V4h2l3 1 2 7v8l3-1h2V9l4-3v1l2 14v13l-4-1-1-4-2-4-3 5-4 4h-2zM72 30l-4-2h-3l-1-3-3-11-1-7 1-3 1-3 9-1h11l2 1-1 10 5 4v3l-2 7c-2 3-4 4-9 5h-5zm10-4 2-3-4-5-3-4h-2l-3 1-2 1v-1l4-3 4-2V8l-1-3c-2-2-9-2-10 0v9l-2 10v2l3-1 4 1 6 2 4-2zm18 3-2-2-1-4v-4l5-5h2l5 2 4 5v3l-3 3-5 3-3 1zm9-5 1-2-3-5h-5v3l1 5 3 2h2zm90-11 1-3 1-1 1 1c1 2 1 4-1 4l-2-1z"/>
</svg>
