<?xml version="1.0" encoding="utf-8"?>
<svg xmlns="http://www.w3.org/2000/svg" version="1.1" viewBox="0 0 922 417">
	<title>Sketch of a winding mountain summit with a road, looking directly on it as it winds through the tops of mountains.</title>
	<path d="m328 415-1-3 12-12 8-5 3-3-3-2c-3-2-4-4-2-6 1-2 16-11 19-11v5c-2 2 0 2 2 1 3-3 9-6 9-5l1 3v3l-3 3c-1 2-6 5-10 7l-10 7a51 51 0 0 0-16 18l-1 2h-7zm30-32v-1l-1 1v1l1-1zm136-1v-3l4-2 8-7 5-5 2-5 2-6 3-1 2 1-2 6a2690 2690 0 0 0-5 11c0 2-7 9-11 11l-5 1-3-1zm-81-1 7-7 11-9 7-6 2-1 1 4-5 5a475 475 0 0 0-15 13l-5 1-2 1zm-19-7v-1l4-4 9-6 4-4 5-7 6-8 5-4 11-10 8-7v3c-1 3-5 8-12 14l-5 4-6 6-5 7-5 6c-3 4-14 12-16 12l-3-1zm204-3-5-5-8-9-6-6v-2l-4-9-4-7-3-9-2-11v-2h3l2 6 3 7 1 3 3 6 3 5 1 2 1 4v3l21 21v1c0 2-1 2-2 3l-4-1zm-223-8v-5l1-2 5-3 6-5 7-4 4-4 2-1 1 2c0 3-3 9-6 11l-2 3c0 2-3 5-5 5l-5 4-6 4h-1zm154 1-2-1-3-10 1-5 1-5-4-6v-14h3l1 5 2 10 2 4v12l4 7-1 2-1 2-3-1zm15-8-5-10-1-6 2-7-4-15 2-9 2-1 3-1 1 1-1 3v32l3 6 4 8v2l-4 1-2-4zm-77 0c-2-1-1-4 0-5 2-1 3-4 7-13l10-15 8-13 4-8h3l-1 3a59 59 0 0 1-12 23l-5 6c-4 6-9 17-9 19l-4 4-1-1zm-24-4c0-2 2-7 4-9l4-5 7-7 4-4 4-5 5-7 1-2 1-3 2-3 1-3 1-2h3l-1 3-9 19-9 10-12 15c-2 4-5 5-6 3zm194-11-6-10c-2-4-11-13-16-16l-4-2v-2c0-2 2-4 3-4 0 0 4 2 7 6s7 6 7 6l7 9 9 12 3 4c0 2-2 3-5 3h-2l-3-6zm-263 1h-2v-5l-1-5h-1v4h-4l-1-2v-2l2-4 4-6 3-1v-9l2-11v-4l-2 2-4 2-3 2-1 2h1l2 1-2 8-3 8v2l-1 2h-5l-2-3-1-4a43 43 0 0 1 7-18l-4-2-4-1-1-3v-8l-2 2-5 7-3 5h-5l2-4 2-5 3-6 4-5 4-2 5-3-4-3-3-2-2-4-1-4 1-1 8 5 7 6c2 0 6 3 6 5l-1 3-1 1 1 1 3 2h1v-4l3-19c2-4 4-8 4-12l1-2h2l1 6c1 6 2 9 2 4l1-5 2-1h7l9 1h2v2l1-1v-3c-1-1 0-1 1-2s1-4-1-5l-12 4-3 2-5-3v-7l-1-3 2-3c4-4 8-9 11-9l2-1-3-7-3-2-8-6-5-5-3 1-3 1h-3l-2-4-1 1-1 2v3l-1 1-4-1a720 720 0 0 0-7-4l3-1 6-2 3-2 4 1 8 2h4l1-3 4-5 3-1v-8l-5-3-3-2-2 2-3 2-3-2-4-3-3-1-2 3-5 3-3 3-2 3-4 1v-1l1-3 2-5 3-4 6-2 4-1 10 1 14 4 5 5 4 6 2 2v5l1 5 4-2 3-2 10 1 1 3 1 3-3-1-5-2h-2l-2 3-2 3h-6l-1 2-1 3 3 5 4 3-1 3-2 4-5 1h-4l-3 5v2l1 4v2l1-1c2-2 10-2 13 0l2 1 1 6-3 5 1 1h3l3-1v-5l-1-2 1-2 5-6 7-6c2-1 5-2 6-4l4-2h2v2c0 2-6 7-9 8l-2 2v2h3l6 2 4 2 2-2 2-4 2-1h1l2 2 2 1h3v13l1 1v13l3 1 2-3 4-7 4-5v-6c-2-6-2-10 0-15l2-5 3-1-1 5c-1 5-1 12 1 13l1 1 6-13 6-3v-3l1-2 4-2 5-3-2-3-2-2 2-2 2-3-1-1-1-3v-2h2l2-2h-3l-1 1-7-1-8-1 1 3 1 1-2 2c-3 2-8 2-9 1l-1-1-2 5-1 3-3 3c-2 1-4 2-5 1h-1l1-2 3-4 3-5 1-3h9l1-1-2-2-9-7-4-4 1-2 2-2 2 1 4 5 4 4h4l6-2c3-2 7-3 17-4h6l2-2 4-1h3v-2l1-2h-3l-3 1-3-3v1c0 2-3 5-4 5l-1-2v-1l-2 2-4 2c-1 0-4-3-4-5v-1h2l2-1-1-2-1-2-4 5-7-1-2 2-4 3-5-2-4-2v-2l3-3 3-3 1-2h-2l-4-2-3-1-1 2-4 4-2 3-3 6-3 5 1 2v3h5l1 1v4l-6-1-1-1-2-3-1-2v2l2 6 2 4-1 3c0 3-3 5-6 4-2-1-1-3 1-4l2-1v-1l-2-4-2-2v-5l-1-5-1 3-2 4h-1c-3 0-9-3-10-4 0-2 2-3 5-1l3 1 3-3 4-3 1 1v-12l3-1 1 1v9h3v-5l3-6 1-4v-2l-2 1-5 1-3 1v-8l-4 4v6l-2 8-3 2h-2l1-4v-11l-8-1-1 1-5 1h-3v2l-2 3-1 2-3-1-4-3-4-2-3-1 3-4 3-3v-5h-2l-5 2-4 1-3-2-6-5-3-4-7-4h-10v-2l3-1 4-2-4-1-4-2 2-3 1-2-13 1v-3l11-1v-5l2-1 2 4c3 4 4 7 2 7l-1 2 1 1c3 0 9 4 9 6l4 4 4 3 3 4 2 1h3l3-1-3-5-3-5-7-2-3-4-4-7-1-3-2-1c-3 0-5-2-5-4l-1-2 1-2 3-3 1-3h-8v-3l8-3 4 1 5 2 2 4v2l-7-2-4 8 1 1c2 2 6 2 8 1 2 0 3-2 4-3l3-3c3 0 10 2 12 4l4 2c2 0 8-5 8-8 0-2 3-4 7-5l3-1 1-6v-2l-6-1-4-3-3-5v-2l-7 1-5-5h-3l-4-1-1-2 2-2 2 1 5 1 4 2c4 2 9 2 11 1l4-2 3-1 3-4 4-4 2-2-2-2-2-1-1 1c0 2-3 2-3 0v-2l-2 1-4 1h-2l-1-2-1-2-4-2-4-4v-1l2 1 6 2 4 2 10-4 7 2 4-1 7-1 4 1 1 1v1h-4l-6 1-2 1 2 2 2 1-2 5h-8l1 7-2 4-2 4c1 1 4 0 8-3l2-1 4 5v-2l2-4 1-3h4v3l-1 2-2 4-2 4-2 1c-2 0-3 2-1 2s8-4 9-7l3-3h2v3l-1 4v6l3-1c3-2 6-2 8-1l2 2v1h-2l-2 1 6 3 1-1-1-2 5-2v-3a526 526 0 0 1 0-8l-5-2-5-4-1-2v-3c1-3 3-5 5-4h1l-2 6 1 2 8 4h3l6-5 9 1v1l-4 1h-4l-1 2-2 4-2 4v1l3-2c2-2 6-2 7-1l1 1-7 5v2l1 1h-2c-1 0-4 3-3 4l4-1 3-2 6 1v-2l1-3 1-7v-7h9l1 2c2 2 4 2 4 0l4-1h3l7 7v5l-1 4 2 1 4 3 1 2 2-3 4 1-2-2-2-3c0-2 4-1 6 2l3 3 3-2 9-2 5-2 7 1v4h-8v3l-1 4-4 1c-2 0-3 2-1 3l1 1-4 4-5 3-1 3-3 6-3 3 2 2 8-3v-4h4l-2-1-2-3h9l2-1 1-2-1-1-3-1v-3l1-2 10-2 1-1 2-2h2v2l1 4 1 3v-4l1-4 2 1h3v-1c1-2 9-6 12-6h3v4h-2l-3 1-3 2-1 4c-1 8-2 12-5 14l-2 2h-8l-2-1-2 1-1 1 1 3 1 2-2 1h-1l-1-1-2-2-2 2c-1 2-1 2-1-2l-2-2-2 1-1 2 2 1 2 3c0 2 3 4 7 4l5 1 11-4 2-3 1-5 2-5 3-3h8l4 2 4 2v-6l1-5h2c3-1 6-4 6-6l2-3 2-4 2-2 3 2 2 1-1 2v2h-5v7l-2 1-2 3c0 2-2 4-5 3l-1-1v4l2 1 4 1 4-3 6-4 4-2 1 2-2 3c-5 2-10 9-13 14l-2 5 2 2c2 2 2 4 2 5s-2 2-5 2c-1-1-2 0-3 1l-1 2 1 3 2 2 4-1h5l-1 4-6-1v1c0 2 3 3 7 3l5 2 1 1v-3h4c4 0 6 2 4 3l-12 1-10 1-2-2-1-2-1 3-2 2-1-1-3 1-4 2h-3l-1-3-2-4 2-5 2-3 6-1 1-4 4-5c2 0 3-1 3-2l-1-3-1-1 2-4 3-4v-2l-5-2h-3l-3 4-13-1-2 2-2 3 1 3 1 1h10v2l-2 2h-5l-4-1-1 3 3 3 3 4c-1 2-5 1-9-2l-5-4 2-1 2-2v-2h-2c-4 0-8 3-8 4l5 5c3 1 5 3 5 4l-3 3c-2 0-3 1-3 2v1h5v2l-2 2h-2v4l5 2v2l-1 2c-2 0-1 2 1 2l3 2 1 2v32l1 3 6 3 8 3c2-1 4-3 3-4v-2l-4 1-6-1-4-2v-6c2 0 1-2-1-5l-2-5v-2h4l2 3 2 5v1h9l10-1h2l-1-12-8-9-5 2v2l1 8 1 3v2l-5-1v-3l-1-3-1-5v-4l3-2c1-2 4-2 5-2h2l-1-3v-3l1-1h5l-1 2-2 3v1l3-1 3-1 5 2c6 1 12 5 11 7-1 1-3 1-5-1-2-3-8-4-12-3l-3 1 3 2 2 3 1 2 8 1 7 1 1-2 1-4 1-3 1-3 1-3v-3l2-2 5-3 4-2-3-3v-8h-9c-1-1 0-1 1-2l2-1-9-1-2-2-3-4-3-2-4-2 1-5 4-5 3-3 1 1h2l-3 3c-3 3-4 5-2 5l4-2 4-1-2 2c-2 2-3 5-1 6l1 3v2h4c5 0 6-1 4-2s-1-5 1-7c3-3 5-6 5-8l2-4 2-2 1 1 1 1-1 2-1 3-1 3 1 1 1 3-4 2h-3v4l2 1 19 4 3 1 1 1-1 3-1 2-2-1-4-3-2-1-3 2-3 4-1 2 2 4 1 4h6v1l-1 4v2h-3l-3-1-4-1h-5l-1 3-1 4 1 2h5v4l2-2 2-2h5l2 2 4 4 2 2c-1 2-4 2-7-1l-3-3-2 1-5 2-3 1-2-1-2-2h-3v7h3l5 2 1 2-1 2h9l3-2c1-2 4-2 6-2h3v6l2 3 2 6-2 5-2 7-1 6-3 5-3 3h-7l-11 12-8-1-1-1c0-1 0-2 5-3 3 0 8-4 8-6l3-3 3-3 4-1 6-2 1-1-3-4 1-4 2-5 1-3-4-7 1-1-1-2c-1 0-5 4-5 6v2l-4-1 1 2 2 2 1 2v2h-2l-1-1-3-1c-3 0-5-2-5-4s-5-6-7-6-5-4-5-7l-1-2-3-1-4 1h-1l1 2v5c0 1-3 5-7 8l-8 9v3h-2l-2 1-1 1 5 3 7 4h2l-1-2v-2h1l2 1 4-4 4-4h18c1 2 2 5 1 7l-1 1-2-1-3-1-4 3-3 3-5-1-1 1-2 2-4 2-2 3-5-4v5l7 4v3h-2l-5-1-3-1-1 2-2 4-2 3 3-2 5-1 2 1v2h-3l-4 3c-1 2 0 5 2 8l1 3 5-2v2c0 2-2 4-5 4l-3 1-1 3 1 2h4l7-1 3-1 1 2-2 1-4 2-4 2c-3 1-7 1-9-1l-2-2v-3l3-4 1-3c0-2-4-7-8-10l-4-2h-2l-1 1v3l1 5v2h-6v1l4 4c2 2 4 4 4 6l5 6 3 5-1 2-2 1-3-4-4-5-4-6-4-4v-5l-2-2-3-1-1-8v-9l-2 3-4 3-1 1 3 4 4 6 2 4 2 3 1 4-4 4-3-1v-4l-2-8c-2-4-4-6-11-12l-6-2c-6-1-7-1-7-3v-2l5 1 9 1 4 1 4-3 5-3h2v-2l-1-1-6 2-6 3-5-3-3-2-8 1-3-3-3-5 1-1 2 1v1l3-1 4 1 2 1 1-2 1-1-1-5c-1-5 0-12 1-14l1-3v-5l1-3-2-1h-1l1-2 3-3 4-2 7-5 6-7 1-3-1-2-6-3c-3-2-7-5-10-11l-4 1-4 2 1 3c1 4 1 9-1 9l-1-2-2-7-2-5-3-1-5-4-6-3-14-5-10-3h-8l-12-2-16-3a287 287 0 0 1-31-6l-4-2-9 2-1-1-1-1v1l-4 1h-3l-3-3v-4l1-5 4-4h3l12-1 13-2h3v2c-1 2-3 3-8 4l-4 2c-1 1 0 2 1 3l1 1 3-2c4-2 9-2 10-1l6 2 5 1 1-1 3-5 2-5 4-2h2v2l-1 3-1 3-2 7-1 5 7 1 3-1 1-3 3-4c2 0 5 2 9 6l5 2 3-1 5-3 3-3-3-1h-3l1-2 2-5 2-2 6-2 7-2h1l-1 3v3l4-1 6-3 2-5 3-4v-3l3-1 3-1 1-4 2-6 1-1-3 1-6 4-6 4h-4l-1-1-6 2v2l1 4v2l-1-1h-5l-3-1 2-2 2-3v-2l-3 2-15 3a588 588 0 0 0-40 5l-14 1v-3l-1-2h-8l-1 3h-18l-3 2-5 1-3 2-1 2-4-1-1 2-2 1h-2l-1 3-1 3 1 4 2 3 2-2c2-2 6-2 6 0l-2 3v3h8v2l-1 2-1 2 9 1h8l2 2 1 1 5 1 7 2 6 2 4 2 2-1 5-2h4l2 5h2l3 2v2l-3 5 13-1 1-1c2-3 8-2 8 1l1 4 2 2h1l1-1-2-2 1-2 1-3 3 1 4-1h5l1 2 3 4 1 2c0 1 3 3 5 3l7 5 6 4v17l-3 4c-3 4-12 14-14 14h-1l-6 6-7 6c-5 4-11 12-12 16l-3 8v4h-2l-2-1c-1-1 1-9 3-14l3-4 3-5 10-10a421 421 0 0 0 27-26h1v-12c-2-2-14 9-16 14l-1 4h-2c-2 0-5 0-7 2l-6 2-1 1-5 3-4 2-4 7-4 2-3 3-10 14c-1 1-3 3-3 6l-4 7-3 3v3l-2 5-1 3c0 2-8 13-9 13l-10 9-14 13-5 4-2 5-5 6-3 3v3l-1 2-3 1-4 1-1 1-1-2v-1l1-2 1-1-2-2-4-2h-2l-1-4-1-4 1-2 2-3 3-2h1v5l-1 5 1 1 2 2 2-1c4-1 8-4 8-6l-3-5-3-3h-4l-6-2-3-1-1 3-1 2-1 3-1 6-1 4h-5v-5l1-8 1-4-4-3-3-4v8l-2 3-2 8-1 6 1 1c2 1 2 5 1 5l-1 1v1l8-1v2l-1 3c-2 1-9 2-12 1zm62-41 2-2 1-1v-1h-4l-5 2h-3c-2 0-5 2-5 3l1 1 2-1c2-1 7-2 8-1v2l-6 3-6 3 1 3 1 1 6-5 7-7zm-72 9-1-1-1 2h1l1-1zm51-5-1 1h1v-1zm-10-5c1-1 0-2-1-2l-2-3 1-3 2-1-1-3v-3l3-3 7-5 5-3 3-1 5-3 3-3h4l5-1 2-1 1 1 2 1 2-5c2-5 2-8 1-8l-3 1-4 3-2 4-2 2-13 1-1-1v-1l-2 2c-3 3-8 6-10 5l-1-3c0-4-2-3-3 1l-3 6c-1 2-3 4-3 7s-2 4-2 5l-2 3c-2 3-3 7-2 10v1l5 1 6-1zm-16-5 3-7 3-9 3-6 4-4-2-3-2-2c1-1-1-6-2-6l-1 4-1 4-3 2-4-2v1l1 3 1 4-1 2-1-1-3-3-1-2v3l1 5v6l-2-1-2-3-1-3-1-1v3l1 6 2 6v3l3 2 4 2 1-3zm41-3 7-2-2-1-1-2-3 2a405 405 0 0 0-10 6l9-3zm-58 0-1-1c-1 0-2 1-1 2s2 1 2-1zm76-1v-2l-2 2-1 1 1 1 2-2zm7-4 1-1h-1l-2 1-1 2h1l2-2zm-19-3c2-1 2-3 1-3-2 0-4 2-4 3h3zm22-1-1 1h1v-1zm-10-1 1-2-2-3-3 2-3 4v1h6zm-26-1c2 0 4-2 5-3l2-2 4 2 2-2 4-1h3l1-2 2-3h-1c-2-2-7 0-10 2l-3 1-6 3-7 5c-2 2 0 2 4 0zm30-10 1-2c2-2 4-12 3-13l-4 8-4 7 1 4 2-1 1-3zm145-2v-9l-1-5c-1-2-3-2-2 1v17h2l1-4zm-215 1 1-1-2-3-1-3v2l-1 3-1 3h1l3-1zm231-7-1-3v-2h-2l-3-1-4-2-2-1v1l1 2 5 3 5 4h2l-1-1zm-179-4 3-5 2-4-2-2-4-2-2-2-5 3-5 10 2-1 3-3 3-3h1v11h1l3-2zm183-7v-1h-8l-1-2c0-2-3-2-4 0-1 1 2 4 5 4 5 1 7 0 8-1zm-35-3-5-1h-2l2 3h7zm-130-3v-2l-2 1-2 3c1 1 3 1 4-2zm149 2c1-1-2-6-4-7h-2v8h3l3-1zm17-3-1-3h-2l-2 1-2-2-2-1c0 2 7 8 8 7l1-2zm-44-6 1-7 2-3-2-2-5 5 1 4c0 6 1 7 2 7h1zm7-1-1-1-2 2-1 2 2-1 2-2zm4-4v-1h-1c-2 1-3 4-1 3l2-2zm26 2h-2l1 1 1-1zm-11-1-1-1-1 1 2 1v-1zm42-1-3-1-2 1v2h5zm-53-5v-2l-1 2v3l1-3zm-7-1h-2 2zm-6-8-1 1h1v-1zm42-2 1-2h-14v3l1-1 3 1 5 2h3zm-34-2-1-1v2c0 1 0 2 1 1v-2zm5-3c2-2 1-13-1-13l-2 2-4 5-2 3v1l6-2-1 6h1l3-2zm-188-4 2-3-1-5-2-7-1-3v2l-1 6-1 4-3 1v-5h-3v6l4 4 4 4 2-4zm108 3h-2l1 1 1-1zm6-2-1-1-1 1 1 1 1-1zm-3-10h-4 4zm-14-4 2-1-3-3v2l-2 1h-2l1 1 1 2 3-2zm14-1h-11l6 2 2-1 3-1zm4 1v-1l-1 1v1l1-1zm10-2-2-3v-2l-1 2v4l5 1-2-2zm57-19-1-5-1-2 2-2v-4l-1-2c-1 0-6-7-6-9l-1-1v4l1 1-2 4-2 5h-1l2 3 3 5 6 6 1-3zm32-4 1-4c-1-1-5 0-7 1l-2 3 5 2 3-2zm-196-2 4-4 2-3h-2l-3-2-1-2-1 3-1 4-1 2c-1 1 0 5 1 5l2-3zm143-1v-3h1l3-3 1-2-1-1c-2-2-3-5-1-5l3 2 2 1v-1l-1-3v-1l-7 1-1-2-1-3-11 1v4h3l3 1 2-1 3-2 1 1-1 3-1 3-4-1h-5c-1 0-2 4 0 4h1v-1l5 1v-1l3-1h2v4l-2 4-2-1-2-1v2c0 2 2 3 5 3h2zm7-1a1 1 0 1 0-2 2 1 1 0 0 0 2-2zm-26-6v-3l1-3h-1l-3 3-1 2 1 1c2 2 3 2 3 0zm-7-2c0-4 1-6 4-7h2v-3l1-2 3-4 1-3-5-1h-4l-6 6 3 2-2 3-4 5-1 2 3 2 4 1 1-1zm124-1 1-1h-2l-2 1 1 1 2-1zm-134 0v-2l-1-1v2c0 2 1 2 1 1zm-17-3-3-1-4-1-1-1v3l3 1h4l1-1zm8 1h-2 2zm6-1-1-1-1 1 1 1 1-1zm-110-1h-2 2zm64-8-4-1h-3l-7-4-1 2c-1 1-2 2-1 3v1l7-1 2 3 6-1 1 1v2l1-2-1-3zm28 2-2-1-1 1 1 1 2-1zm56-3 2-1v-3l-6-2-3 3-3 2 1 1h9zm-121 0-5-7-2 3-1 3 1 1h7zm8-2 2-1-1-2-3-2-1 6 3-1zm81-5 2-3h-1l-3 3-2 3h1l3-3zm-133-4c-2-2-3-3-4-2s1 1 3 3l3 2-2-3zm212 2c2-1 1-2-2-4l-3-1-2 1c-2 0-3 1-3 2v2h10zm-203-7v-5h-2c-2 0-6 3-6 4l6 7h2v-6zm184 0v-3l-2-2h-2l-2 2-1 2 6 2 1-1zm-113-8-1-1-2 1v1h1l2-1zm99 0v-2l-2-1h-2v4h1l3-1zm15-1-2-2-1-1v5h3zm-76-4-1-1-1 1 1 1 1-1zm-7-1 1-1-2 1c-1 1-2 1 0 1l1-1zm17-1 2-3-1-1-6 5h2l3-1zm-73 0h-2 2zm32-2h-2 2zm27-1-2-1-1 1 3 1v-1zm-24-1h-1l1 1v-1zm18-2h-4l-3 2v1l3-1 4-2zm47 3h-2 2zm-85-3-1-1v2l1 1v-2zm7 2h-2 2zm66-2c-1-1-4 1-4 1h2l2-1zm-10-2 2-2v-5l-1-7-3-2c-2 0-6 4-6 6l-2 1h-2v-7h-4l-2 1v13l4-3h6l3 1-5 2-2 2h4l4 1 2 1 2-2zm-57-2-4-1-3 1v1h8zm-10-5h-2l-1 1h1l2-1zm-25-5 1-3h-11v2l2 3 1 1h6zm10 2c3-1 4-2 2-4l-7 4 1 1 4-1zm-5-29-3-1-4 1v1h8zM115 331v-2l1 2-1 2v-2zm390-1 2-6c4-6 7-15 8-23l1-6h3v6c0 8-4 21-8 27l-3 4h-1l-2-2zm-52-18v-4l3-4 10-17c2-2 6-3 6-1l-6 8a55 55 0 0 0-6 10l-2 4c-2 4-4 5-5 4zm74-17-2-11v-12l1-2h3l1 11-1 12c0 3-2 3-2 2zm38-4-2-3-3-4-4-4c-2 0-7-5-9-11l-2-5v-6c0-7 2-15 4-14v16l3 9 6 4 7 7c3 3 6 10 5 12-1 1-4 1-5-1zm-236-7-1-1v-4l1-4 10-9-1-3-1-4c-2-1-1-8 0-12l1-3-5-2c-2 0-5-2-5-3l-1-1 1-5 3-2 5-2v4l-1 3 3 1c1 0 3 1 5 4l4 5-4 3-3 4v1l6 2v2l-2 3-1 1v9l-8 7v3c0 2-2 5-4 5l-2-2zm184-5c0-6 1-14 3-17l2-8 1-5h2v5l-2 10-1 6 1 14h-5zm124-4 1-6 6-10h4v1l-2 4-3 7-2 7-3 3h-1zm-269-10-5-3-2-2-1 1v2h-2l-2-1-7-9-1-3 2-2h2l4 6h6l5 3 5 4h1v2l-1 3-4-1zm6-16v-2c1-2 4-2 4 0l-2 4-2-2zm-14-6 1-3v-7l-1-2-2 2-4 3c-2 0-2-2 1-7l3-5 11-12 3-1c2 0 6 4 6 6l-3 3-2 3h3l3-1v2l-1 2h-2l2 2 1 5v4h-2l-2 2 1 2 1 2h-6l-4-1-6 3zm12-7h-2l1 1 1-1zm-1-11-2-1-1 1 1 1 2-1zm160 17c0-2 2-5 5-8 5-3 9-7 11-12 0-2 2-3 2-3l1-2 1-4 3-9 1-8-2-6-1-7 1-1h2l1 3 2 4v11l-2 15v3l-3 3-6 8c-3 4-12 14-14 14l-2-1zm-87-7v-4l1-3-2-1-1-2v-3l1-2h-8v-2l1-3v-2c-2 0-5 3-6 6l-1 3-5-1v-8l4-3 6-5c2-3 4-3 4-1l2 2 3 1v7l3 6 3 5v7l-2 2-2 2-1-1zm-127-6c-2-2-1-6 3-11l3-6 5-1v-5l-2 2-1 2-3-2 2-3 1-3 5-1 2 5-1 3v3l-5 5-5 6c0 2 5 2 10 2l4-1v-3l2-6 2-4 3-1 4-1 1 1-3 4-3 2-1 5 6-1 3-3 4-5v-3l-2-1c-1-2-2-2-4-2h-2l-1-2v-2l1-1 2-3-2-1h-3v-5h-2l-2-1c0-2-4-2-6 0l-1 4v3h-2l-2-2v-5l1-4 4-1 8-1 4 1 1 3 9 16 3 3v7l-2 3-5 5-1 3h-5l-6-1c-1-2-2-2-2 1l-1 1-5 1a2374 2374 0 0 1-13 1zm364-27-2-4-1-4 1-2 4-5 4-3 11-1 4-3 4-3 4 3 2 3-1 6h-5v-6l-1-2-2 4-2 4h-7l-4-1h-2l-4 6 2 2 1 5v3h-2l-4-2zm-311-8v-1l5-1 7-1-1 2-1 2-10 1zm41-1-1-3v-2h-5v-3l10-2 2 1 2 2c0 2-4 8-6 7h-2zm-101-7-1-2h-7v-2c0-1 3-2 7-2h3l2 2 2 4v2h-2l-4-2zm358 0 1-4 2-7 1-3-1-1-1-3v-2h3l1 4 1 4h6l7-8 1 1 1 1-1 2-4 6-5 5h-4l-2 3c-2 4-5 5-6 2zm-318-9-2-1v-4l4-2v-6h-2l-4 1c-2-1-4-5-3-7v-1l10 2 5 5v3c-1 4-4 11-6 11l-2-1zm-93-2-3-4c0-2 7-5 12-5l3-1v3l-1 2h-2l-3 2v2h4v1c0 1-2 3-5 3l-5-3zm388 1v-1h4v3h-4zm51-2-2-2v-2l7 1 8 1-1 2v2l-5-1-7-1zm-406-6-1-4-6 2-3-2-6-2-4-1v-3h5l6 1 5 1h4l7 6v5l-2 1-2 1-3-5zM1 170l-1-2 1-2 5-3 5-2 5-3 4-1 2-5 8-3 4 3v-2l5-4 7-5 4-3 2-2 4-4 5-7 2-3 1-2 2-2 3-1c1-2 5-2 6-1s-1 3-3 6l-12 17-1 2-7 4c-4 1-7 3-7 4v1l4-1h10v2l-1 2-8 1c-4 0-9 2-10 3l-6 2-3 1-1-3-3 3-6 5-7 3-11 3-2-1zm675 0c0-2 4-6 7-6h1v3l-1 3v1h-7zm-301-2-6-1-2 1-3-4-8-5-3-3 4-1 3-1v1l3 3 5 2 12 6 3 2h-1l-2 1-5-1zm257-2 1-1 8-1 8 1v2l-16 1zm-229-2c-2-1-1-3 0-3l2 2c0 2-1 2-2 1zm236-2h2-4zm56-2-1-3 1-6 1-6 2-2c2-3 8-5 10-4h1l-1-7v-7l-2-2-1-2h-8l-2-2-4-2-3 2-6 6-5 6v2l-2 3-3 1-1-1v-2l2-5 3-5c0-1-6-5-8-5-3 0-6 4-7 7v2h-4v-1c0-3 2-6 4-9l2-2h13l3 4 9-7 10 1 2 2 5 3h3l3-2 5-2 2-1-1-1-1-4v-2l3-2 7-2 4-1 2 3 2 5v1h-2l-3-2c-2-2-5-2-6 0v9l-4-2-4 4-3 3v4l1 6v2l3 1 4 1 3 2 3 1 1 2v3l-1 1h-2l-3-3-3-3h-2v4h-2l-5-1-2-1-5 5v2l-1 3-2 6v4l-3 1zm-348-9c-3-3-4-5-2-7 0-1 4 1 4 3l1 2c2 2 2 5 1 5l-4-3zm337 2-2-2h-2v-1l2-2 2-1 2 3 1 2-1 1-1 1zm-622-7-2-2 5-5 6-4v-3l-1-1 1-2 1-3h2l4-2 2-3h6v-1l1-3 1-2c-1-1-2 0-4 2l-3 2c-1 0-6-8-6-10l4-3 5-3 1-2-3-4 2-1 6-4 4-3 1-2 2-4c3-5 5-8 8-8 2 0 3 3 2 4l-2 1c-2 0-2 2 0 3h1v3l-1 7v5h9l2-2 4-2h3l2 3 4 4h3l-1-4-1-4c2-2 4 2 4 7l1 5-6-1c-5 0-7 0-4 2h1l-1 2c-1 2-2 2-3 2h-2l1 2v2h-2l-3 2-2 2 2 5 4 1 4 2c1 2 2 2 3 2h1v-5l-1-5 5-1v-4l4-2 2 2 12-1 1 2 1 3h-2l-2 1 1 3 2 5v2l-11-1-5 4-5-1-5 4c-2 3-5 5-7 5-3 2-8 2-9 0l-1-1 1-4 3-6 2-2h-2c-3 0-9-1-10-3l1-3v-4l-2 2-5 1h-2v-5l-1 3-6 7-4 5 5-1 4-3h6l1 2v2l-3 1-4 2-1 2v5l9 1v-3l-1-2h5v1l1 5 1 2-5 1H88l-4-3v-6h-1c-3 0-10 6-13 9l-5 3-3-1zm58-12 2-2-1-1c-2-1-5-1-6 1-1 3 0 4 1 4s3 0 4-2zm-22-22-1-1-1 1 1 1 1-1zm-8-13-2-1-2 1v1h2l2-1zm8 0 1-2c-1-1-4 1-4 2 0 2 1 2 3 0zm158 48c-2-1-3-4-1-5v-4h-13l-1-3 4-2 4 1 7 2 4 1 2 5-2 3-2 2h-2zm51-1-6-1h-3l-1-1c-1-3-3-4-7-5l-3-1-5 3-6 3-1-3v-2l5-2 10-2h5l4 3 8 3 5 3c2 4-1 4-5 2zm-104-3-3-4v-1l12-1-3-3-6-6c-2-1-3-4-3-5v-2h4l1 3 5 5 6 6 3 5-1 4h-2l-2 1-3-3c-2-2-4-2-2 1l2 2c0 2-4 1-8-2zm440 1-1-2 1-1c1-1 1-7-1-11v-4l6-6h4l4 1c0 2-4 5-7 5h-2v1l2 5 2 2-1 1-2 5-3 5-2-1zm-306-3-6-2-5-2-5-3-3-1v-4h7l2 2 7 3 4 1 3 2c2 2 3 6 1 5l-5-1zm21-7v-2h2l1 1-1 2-1 1zm-125-7c1-1 4-2 4 0l-2 1-2 1zm469 0c0-2 1-2 3-2v2h-3zm-483-2-1-2 2-2 3-2 4-3c1-1 4 1 4 3l-3 2c-2 0-4 1-4 3-1 1-4 2-5 1zm17-4v-3l4-2-1-1-11-1h-10v-3h9l16 1 2 1v2l-1 3-3 3-1 2h-4zm-74-3-8-1-1-1v-4l2-7c2-2 13-9 15-9l2 2 1 1-1 1-2 2-2 1c-1 0-6 5-6 7v1h23v4l-4 1-5 1-1-1-1 2v1h-3l-9-1zm12-4-2-1-1-1v2l1 1 2-1zm16 2-4-4-1-10h17l-1 2-1 1-10 1 7 9v2l-2 2-5-3zm487 0-1-3v-2l2 1h1v2c0 2-1 3-2 2zm84-1-1-1 5-5c3-2 5-5 5-6l1-3 2-2 17-2 3 2 4 4 2 5 2 3-3 1h-3l-1-2-2-4v-2l-6-1-9 8-8 2-3 2-3 2-2-1zm15-11c2 0 3-1 3-2h-5l-1 2 1 1 2-1zm-412 10c0-2-1-3-3-4l-4-3-1-2h-3l-6-2-3-2h-2l-2 1-2-2-2-3-2-2-1-2-2 1-4 1h-1v-5h8l5 2v2l3 2 8 2 5 1 4 4a867 867 0 0 0 10 10v2h-4zm292 0-2-2-1-1-3 1-2 1-9-1 2-2 7-2 5-1 8 5-1 1c0 1-2 2-4 1zm149-1h-3v-4l10-1 14-1 5 1 2-2 3-2 1 1 2 1h16a1203 1203 0 0 1 29-1l7-1 2 1 2 1 1-1 1-1 7 2 7 3h3l3-1v2l-1 3-4 1-8-2-5-3-8 1a1120 1120 0 0 1-81 3h-5zm-399-1c-3-1-6-4-6-5 0-2-4-3-11-4l-4-1-10 4-2-1-2-2c0-1 3-2 10-3l6-1 6 1 13 6c1 2 3 2 3 2l2 1h5l-1 2v1h-9zm-167-10-7-4-17 1-2-4-3 5h-5v-2l1-5 2-3h8l1 1c0 2 1 2 2 2V80l-1-1-2 1-6 3-7 3-4 2-5-2v-3h8l4-2 7-3 7-1 2-1v4l1 4 3 2c2 0 3 2 3 3 0 2 1 2 2 0l2-1h2v7l3 1a54 54 0 0 1 7 3l1-2v-2l2-1a11649 11649 0 0 0 9-6v-3l9-4h26v-2l2-3a284 284 0 0 0 8-8l5 1 3 2v1l-1 2-4-1-1 3-3 2-5 4c-3 3-5 4-7 2h-6l-8 1c-1 2-5 2-6 0s-2 0-2 4l-1 6h-1l-2 1-1-5v-4l-6 8-5 1-3 9h-1l-8-3zm-10-7-2-2c-1-1-3 1-3 3v1h2l3-2zm407 7-2-4h-3c-3-1-7-4-7-6l2-1h4l4-10v-2l3 1 5 1 1 3v2l-2 1h-3l-2-1-1 3-1 5 1 2 5 1 1 4v4h-4zm29 2-3-2v-1h6l6 1v2c0 1-5 2-9 0zm-12-3-1-4v-2l4-2 5-2 5-2 5-3 6-4 5-2-1 1 3-1v-5l-7 2v-2l1-1c2-2 12-4 17-4l9-1 4-1 5 1 6 3 5 2 7 2 6 2 4 1 6 3c3 0 6 2 6 3l1 1-2 3-4-2-3-2-1 1c-2 2-5 2-5 0l-5-2-5-1-2-5-10 1-5-7h-8l-7 6h-4l-2 3-2 2-3 2-6 3c-3 1-4 3-5 4v1h-10l-6 4v6h-5l-1-2zm38-26-1-1-1 1 2 1v-1zM550 99l-3-4 3-4 2-2 15 1 3 2 2 2v2l-2-1-7-2c-4-1-9 0-10 2l1 2v4l-4-2zm27-2 3-6c2-2 4-4 4-6l-1-2-6-3-5-3h-10l-10-1v-3h18l5 2 7 3 3 2 3 3 2 2h4v4h-2l-4 2-3 1 2 2 1 2-4 1-3 1-2 1h-2zm26-2v-4l5-2 2 1 8 1 5 1-2 4-1 3h-2l-5-3-3-3-2 1-1 3v2h-4zm-231 2 2-4 2-3-1-1-3-1c-3 0-2-2 1-4l3-2 4 4 3 5-1 2c-2 3-7 5-9 5h-1zm538-6-6-4-6 1-2-1-2-2-1 2-1 1-3-1-5-2-12-4c-2 1 0 2 4 4l3 2c0 2-4 1-8-1l-4-2-1 2v1h-2l-3-1-1-2-7 2-1-2c0-3-3-4-4-3l-1 1-6-4-6-6-4-2h-2l1-1 1-2-14-1a123 123 0 0 1-25-4l-1 2v1h-3l-5-1-10-1-24-2-20-3-14-2-6-3-4-2-3 1c-3 1-12 0-13-2l-2-1-5-2c-1-2-4-3-6-4h-16l-2 1-2-1-1-1 1-4h27l2 2 2 2 1-1 6-1 5-1h2l6 1h4v-4h6l2 2 3 2 2-1 7-2h3l7 7 9-1v1l1 1h16l-1 2-2 2 3 2 7 4 4 3h10a337 337 0 0 1 55 5h5l4-2 5-3 1-1h13l3 2 7 2 6 3 3 2v1l-1 2 16 1 16 1v4l-21-2-6 2-6 1 3 3 6 2 6 2 5 1 3 1 3 1 5 2 3 1v2c0 2-2 3-4 3l-8-3zm-26-15-2-1-2 2 3 2 2-2zm-38-1v-1l-1 1v1l1-1zm20-1h-1l1 1v-1zm-6 0h-4 4zm5-4c-1-1-1 0-1 1l-1 2 1-1 1-2zm15 0h-1l1 1v-1zm-31-2 1-1-5 1 1 1 2 1 1-2zm10 0-1-1-1 1 1 1 1-1zm9-3h-1l1 1v-1zm16 0-10-3-3-1v1l3 1 5 2 4 1h2zm-15-4h-4 4zm-113-3h-2 2zm-3-2h-2 2zm-13-3h-2 2zm-12-3h-2 2zm26 0h-2 2zm-61-4h-2 2zm23-4-1-1-1-1v2c0 1 2 2 2 0zM112 91l-2-2 2-1h3v2l-1 2-2-1zm646 0c-2-1-3-3-1-4 1-1 7 2 7 4v1h-2l-4-1zm99-1v-1c1-1 7 0 7 1 0 2-7 2-7 0zm-470-1 2-4 3-5v-1h-5l-6-1-1-3-2-3-2-1v-3l1-3-4-2-1 2-2 1-5-2-7-3-2-1v-2l2-1 8 3 5 3 2-1 2-1 5 2v7l2 1 3 3 1 2h3l5 1h2l3 8-2 1-5 3-4 1-1-1zm154-3-2-4-1-4v-2l3-3 5-3 3-1v1l-2 2-1 1 1 1c3 0 2 2-2 4l-3 1 1 4c1 2 2 4 1 5l-2 1h-1zm-5 1-1-1 1-1h2v2l-1 2zm-174-2 1-3 3-1 2 1 1 3-6 1zm121-3c-2-1-1-5 0-5l1-1V64l-2-1-4-1h-2l-5 5h-3c-5 1-6 0-6-1v-1l7-2 1-2 1-2c2-1 9-1 14 1l5 2 1 2 1 2c2 0 6-5 6-8v-2h-1a3520 3520 0 0 1-94-1l-4-2-3-2-8-7-6-6v-3l7-1 7-1v-7h3l4 7h4l1-5 1-6 3 1 3 1 5 4 4 3-1 5v4h3l-1-2v-2h11l11-1-3-2-2-1 10-1h9l1-2 2-2-4-3-4-3h-20l-2-2-5 2-3-1-8-2h-3l-1-3-3 2-6 3h-3v-2l1-2v-3l5-2 8-3 5-1 7-1 8-2c3-2 8-3 19-3l8-1 3 1 6 4 3 3h3c5 0 13 3 16 5l4 2a6941 6941 0 0 1 36 2h1l-1 3-1 4 4-2 4-2 3-2 4-2 3 1c0 1 2 2 5 2l4 1 5-1 7-1h1l-1-2v-2l5-2 4 4 5 4-2 2c-1 1-2 3 0 3l3-1 3-2 1-1 1-2 2 2 1 1 11-3 10-1h8l8 4 1 4 5 2 8 6 5 4 2 1 1 3v1h-7l-1-2-7-6-5-2h-2v-1c0-2-7-9-9-9l-1-1h-1l-6 1-22 3-1 1 1 2 2 6a133 133 0 0 0 2 8l1 1 3 2c1 3 5 7 5 6l1-3 2-2 4 1 6 3 2 4v3h7l12 1h6l1-1 2-1 3 1 23 2 8 1 1 2v1h-7l-7 1-1 1 4 3v4h-1l-3-2-1-2h-2c-2 0-4 1-5 3l-4 2-7 4-5 3-1-1 3-6 3-4c0-1-3-1-6 1l-3 2-5-2v-4h3c4-1 5-2 5-3l-7-1h-7l-7 2-1-1c0-2-4-2-5 0v1h-3l-5 1-1 1-8-2-1-4-1-4h-8l-2-2-2-3-3-2-2-1v-2l2-4 1-3-2-1h-2l-1-4h-7l-6-1-6-3-1-1-10 1-1-1c0-1-1-2-2-1l-1-1-1-1-6 3-2-1-5-2-2-2h-8l-1-2-1-2h-1l1 4h-5l-1 2-3 2-3-2-1-1v5l-6 1h4l5 2-2 2-3 3-4 2-8 3-5 2-4-1-1 2-1 2h-5a139 139 0 0 0-24 2h-2l2-1 2-2h-6l-8-1-1-1v1l1 3 1 2h23l2-1 4 2h47l2-5 1 1 3-1 3-2 6 1 3 2 2-3 4-2 2-1 3-1 3-2c2-2 6-4 9-4h2v2l-1 3-4 1-6 3-2 2 1 2v8c-1 1-4-3-4-5l-2-2-1-1-2 2-4 8-1 4h-5v-2l1-6 2-3-1-1c-2-1-7 0-8 2v4h1v7l-3 9-3 4h-3l-1-1 5-5-1-4v-3l1-2c2-1 2-4 1-4l-4 8-2 4-5 5-3 2-2-1v-2l3-3-2-7h-1l-3 3-2 2 2 3 1 4-2 1-2-1-2-2-2-4-1-2-1 1-2 1 2 2 3 1-1 1-3 1h-2v2l-5 5h-1zm28-20 1-2 1-2-2-1-2-2-6 2 3 3 3 3 1 1 1-2zm147 1h-1l1 1v-1zm-50-2-3-1-2-1v3h6zm6-9-3-1c-2 1-3 3-1 4l2 1 2-3v4l2-3-2-2zm-14 1h-3l3 1h2zm-9-1-1-1-1 1 1 1 1-1zm-170-1-8-1-1-1v1l1 2h15zm-11-2 3-2v-3l-1-3c-2 0-2 3-1 5l1 1-3 1-3-5h-6v2l-1 2-2-1h-2c-1 1 0 0 0 0l10 5 5-2zm-7-1v-1c1-1 3 0 3 1 0 2-2 2-3 0zm19-1-3-1-2-1v3h6zm0-4-1-1-2 1v1h1l2-1zm37-1c0-2-4-2-4-1l3 2 1-1zm-8-2-5-1h-6l1 1 6 1 5 1-1-2zm30 1v-2h-2l-5 2-2 1h9zm-75-5v-1l-1 2-1 3 1 2 1-2v-4zm11 2 1-2c-1-1-4 1-4 3s2 1 3-1zm19 2h-2 2zm63-5-2 1c-2 3-1 4 1 2l2-2zm-106 3h-2 2zm73-3h-2 2zm107-6-1-1-1 2v1h1l1-2zm18 0c0-2-2-2-3 0l1 1 2-1zm-22-3-4-2-10-1c-7 0-10 1-10 3l8 1 10 1h7zm7-4v-2l-1 2v2l1-2zm-62 0v-1c-1-1-3 0-3 1h3zm-7-2-3-1h-2v1l3 1 2-1zm-35-3 1-1-2 1h-4l-1 1 1 1h2l3-2zm-22 1h-2 2zm40-2-1-1c-2-1-4 0-4 1h5zm-48 0-3-1-2 1h5zm-6-2-2-2-1 2 1 1 2-1zm18 0-2-1-1 1 1 1 2-1zm10-1h-1l1 1v-1zm-16-2-2-2h-1l1 2 2 1v-1zm8-5V5l-1 1v1l1-1zM248 76c-2 0-3-1-3-2s4-2 6-1 14 2 19 1l3-1v3l-4 1c-5 1-17 0-21-1zm336-2 1-5 1-4-2-2-1-1-3 2-3 3h-4v-4l-6-1-1 2-3 1h-2v-2l2-3c2-2 8-2 15-1l10 2 8 1 2 2v1l-9 1-1 4-2 5-1 1zm-174-3c-6-6-9-8-17-12l-5-5-3-3h-14l-14-1-1-2 4-1 4-1 1-1 3 1h12l8 1 2 3 2 4 3 1 3 2 1 1c3 0 16 10 16 13 1 2 0 3-1 3l-4-3zm45 0v-2h5l1 4h-6zm-261-2 1-2 2-1h6l9-1 7-1 4-1-1-1h-4c-2 1-6 0-6-2l9-2h2l1-1c0-3 2-4 4-4h1l-1 4h3l4-1 3-1h12c1 2-3 3-8 4h-4v2l-1 2-1-2-1-2-5 5-5 1c-3 0-7 1-10 3l-5 2h-8l-8-1zm93-1c-2-2-1-4 0-4l3-3 2-4c0-2 2-3 5-4l3-1v2l1 1-6 7-7 6h-1zm-46-3 4-1h3l-2-1-2-2 4-1 8-1 10-1 5-1v3l-5 1-4 2-4 2h-3v1h-14zm31 0v-2l3-1h3v1l-2 3c-2 1-3 0-4-1zm-8 0c-1-1 0-3 1-3l2 2c0 1-2 2-3 1zm47-2-2-3c0-3 7-12 12-15l4-2 1 2c0 2-1 4-3 4h-2l-2 8h-4v4l1 4h-2l-3-2zm-33-4 4-5 3-4-7 1v-3h2l2-2v-2h3l3-1-2-2-4-2-1-2v5h-4l-1-1v-2l-2 1-4 1-3 1-1-2v-1h4l2-4h7l-1-1-2-2 1-1 2-1h-3l-3 1-3 1-1 1-4 1-6 2-2 1v-1l2-3 1-1-6 1h-7l-2-1 1-1v-2h4l8-2 5-2-5 1-7 1c-1 2-3 1-7 0l-2-2-4 1-7 1-2-1-2 4-2-1-1-2 2-2 2-1-2 1-7 1-5 2-2-2-4-1-2-1 1-2 1-1-3 1-8 1-5 1-3-3h4l6-2 5-2h3l-1-2-6 2h-8l-6 1-3 1-2-1-11-1h-8v-3l6-1 8-1c3-2 13-4 18-4l5 1 13 2a583 583 0 0 0 24 2l3 1h31l11-1h11l9 2 20 5 6 2h4l1-5h3l4 1c1 0 2 1 2 3v2l-7 5h2l2-1 4-1h3v2c0 1-2 3-4 3l-2 2v1l3-1h8l4-3-3 1-4-1-1-3-1-2 6-4h8l1 3 1 3 7 1v4l-1-1c-3 0-11 3-14 5l-2 2h-10l-3 2a201 201 0 0 0-4 3l5-2 4-1 4 1-1 1-9 4-7 2-1-1c-1-2 1-6 3-8l2-2-3-1h-3l1-5h-2l-5 2-5 2-4 1 13-1v2l-1 3-2 1-2-2v1c0 3-5 5-8 5l-2-1v-1l-4 5-1 2-5-1-7 1h-3v2l-2 4-3 2-3-1-1 2-2 1h-2zm19-13 5-3h4v-5l7-2h-7l-1 2-2 2-7 2-6 2-1 1 2 1 3 1 3-1zm16-5h-2 2zm-20-1h-2 2zm24 0h-4 4zm-20-1h-4 4zm14-7h1l-1-1c-1-1-4 0-4 1v1h1l3-1zm-13-2v-2l-6 4 6-2zm-30-2h-1l1 1v-1zm0-4h-2 2zm33-4-1-1-1 1 1 1 1-1zm-69-3 1-1h-2l-2 1h3zm-15 0h-4 4zm-28-3 2-1h-2l-4 1-3 1h2l5-1zm37 1h-4 4zM10 57v-2l2-1 12-5 5-2h33l13 1 3-2 8-3 5-1 18 3 1 2 1 1 8-1 4 4 8-2 13-2 5-2 4 2 5 4 2 2 7 1 1-1 2-2-3-3-3-3v-1l6 1 1-4v-4h4l2 1 1-3 1-4 2-1 2 4-1 3v3l3 3V33h5l3 3 3 4-2 2-1 2c0 1 2 2 3 0h5v-7c1-1 4-1 6 1l2 5v3l1-2v-2h2l3 2c1 1 6 3 10 3l5-1c2-1 4-2 5-1h1l-1 3v2h1c1 0 1 2-1 3s-5 1-5-1v-2h-5l-19-1-3-1-5 3-11-1-2 2-7 2h-5l-2 2-4 2c-4 0-11-3-13-6l-3-3-6 2c-4 2-10 3-14 3l-8 1-6-2c-4 0-8-2-10-3l-4-3H87l-7 4H70l-18-1-7-1-6 1-8 3-18 6-3 1zm171-9-1-2-1 2 1 1 1-1zm170 8v-2l3-1h4v2l1 1h-2l-4 1h-2v-1zm276-2v-2l4 1v3h-4zm-371 1v-5h-3l-5 1-1 1h-9v-5h2l2 1c0 2 3 2 5 0l6-1h5l1 2 2 2h8v4h-4l-1-1-1-1-2 1-5 1zm378-2-2-1 3-2 1 1v2l-1 1zm6-1c0-1 2-2 4-1 2 0 1 2-1 2l-3-1zm-76-4 2-4 2-2 1 1 2 2-1 3-1 2h-5zm-295-3c0-1 3-3 4-2l2 2v1h-3l-3-1zm-44-3-3-1 4-1 5 1c1 0 0 2-2 2l-4-1zm400-1-11-1h-10l-1-1v-2l18 1a276 276 0 0 1 22 2v1h-18zm-6-10-4-1h-1 14l1 1-5 1-5-1zm-399 0c-1-1 0-3 1-3h2l-1 2c0 1-1 2-2 1zm383-1c0-1 2-2 4-1v1c0 2-3 1-4 0zm-230 0c-2-2-1-5 0-7l1-1-6 4-1-1-1-3 4-3 3-1-1-1 1-2 1 1 1 2 5-3 9-3 7-2h4l1 2-2 5c-2 5-7 10-11 10l-2 1 1-3 1-4 3-2 2-2-1-1-4 2-4 1-1 3v3l-3 2-7 3zm224-1 1-1a1 1 0 0 1 0 2l-1-1z"/>
</svg>
