<?xml version="1.0" encoding="utf-8"?>
<svg xmlns="http://www.w3.org/2000/svg" version="1.1" viewBox="0 0 498 409">
	<title>Sketch of a stone cottage fading off to the left, with a stone arch bridge with 3 arches in the center. Steep hills are in the background.</title>
	<path d="M290 407h-14l-8-1-3-1-1-2v-2l2-2 4-3 4-2 1-1v-1h-19l-8 1-11-4c-1-2-1-6 1-7l8-2a210 210 0 0 0 44-12l3-1 2 2 4 2 3 1 1 1v-13h2l2 1 1 2v-2l-2-3-3-1-3 5h-2l-3 1c0 1-3 2-5 1l-2-2-1-3-2-1v5l-2 2c-3 1-5 1-5-2h-2l-1 2-1-2c-1-1-4-14-3-16v-1l-11 1v-3h3l3-2c0-1-3-4-5-4l-5-2-4-2v-2l-1-2-3 2-3 2-2-3v-3l4-3h33l6-1h4l4 1 5 2 2 2 2 2h2c3 0 6 2 5 4l-4 1-3 1-1-3-22 1-2 1-2 2 6 2 8 3 2 2v1l-2 2-1 2-1 2h2a60 60 0 0 1 23 4l3 2v2l-4 1 5 3 5 3-1-6c-1-3-2-5-1-6l4-3 4-2h4l5 2v1l1-1 4-2 4-1h-8v-4h2l3-1 1-1 4 2h37v3h-26l25 3 1 1c1 1 8 4 14 4l4 1v4l-7-1-9-2-3-1 1 3v3h-1l-1 1 4 1h3l1 1 1 3-1 1-10-1-2-2-1-1-1 1-3 1h-2v-3l2-4 1-3-2-1h-3v-2l-1-1-8 1-6-2-14 1 6 3v5h4l1 5h3l5-1 2-2h-6v-4h2c1-1 3 0 6 1l3 1-1 2-1 3-1 2-1 3-1 2-4-1-8-3-7-2-2-1-3 1v-2c0-2 3-4 5-3l1-1-3-2-5-2-4-2-3-1-1 2 2 2 1 3v2h-2l-2 1v3l1 2h10l1 2 3 1 1 2 1 2-4 3-3-2-7-4-3-2v2l-1 3-2-1-2-2-1 2v2h-3l3 2c2 0 3 2 3 2v1h-7l-9-1-3-1-3-2-4-2-5-2-3-2-7 1-11 4-14 4-12 3-3 1h1l5 2 3 1 8-1h12l7 1h4v1l-1 5-1 3-4 1-5 2v1h21l4 2c4 1 5 3 2 4l-9-1zm26-30-2-1-2-1v-7l-1 7h-1l-3-2v-1l-1 1-1 2 2 2h9zm38-28h-3l-1 1h3c1 0 2 0 1-1zm-80-21-1 1 1 1v-2zm45 79c0-2 4-4 6-3l1 2v2h-7zm-184-2-1-3v-2h6l17-2c16-1 36-4 37-5l1-1-3-2-2-2c0-2 9-11 11-11l3-1v-1h17v4h-2l-5 1-4 1v2l-1 3-2 1-3-1c-4-1-7 0-7 1l3 3c2 1 2 3 2 4 0 0-1 2-3 2a233 233 0 0 1-64 9zm212-12-10-1h-9v-2l-1-3c-1 0 0-2 2-2h2l1-4h2l3 1 2 1h2v4h2l6 1 5 2 1 2-1 2h-3l-4-1zm34-8-1-3v-2h-4l-5 2-1 2-20-5v-4l6-1 4 3h5l6-1v-1h14v2l1 2 9 1 11 1 1 3v2h-13l-13-1zm-216-2-1-2-6 1-1-2 6-13 8-2 4 1 4 2 3 1 3 1 1 2v3h2c2 0 5 3 5 4l-1 2c-2 1-7-1-10-3l-2-2-4-4-3-1-2 1-3 3-1 2h2l4-1h2v2l-1 4-5 2h-4zm59-5c-1-1-1-3 1-5l3-2h17l4-2 14-5 3-1-6-2-6-2-1-1-6-2-5-2v-3l1-2 3-2c4-2 6-3 8-2l1 1-1 4h-2l-3 1 9 4 3 1 4 2 4 1v2l2 2 1 1-1 1-6 3c-3 1-8 2-10 4l-5 2-7 1-10 2c-3 1-8 2-9 1zm-82-4-4-3h-2v-2l1-2h8l2 3 2 4v2h-5zm55-9-1-1-4-3c-1-2-4-4-7-5l-4-2-6 4-1-2-1-6v-4l2-1h1l2 3 5-1v4h7l4 4 3-1 6-2h2v3l3-2 4 1c6 2 8 3 9 5l1 2-2 3-4-3-7-2-2-1-6 8h-2l-2-1zm101 0 1-1 1 1-1 1-1-1zm110-3-3-1v-10l4-3 4-4v-1h-6l-10-2h-3v-2l-1-2h-1l-1 1-2-1-1-2-1-1v4l4 1v4l-9-1-9-1-1-1 3-2 9 1v-1l-4-3h-10l-3-1h-3v-8h5c5-1 8-1 15 1h2l2-5-3-3-4-2-4 1h-3l2 2 3 3c-1 1-4 0-8-1l-2-1-6 1-8 1h-3v-4h4c6 0 12-2 14-3 0-1 4-4 9-6 4-2 7-5 6-5l-3 1-8 3-12 5-7 3c-1-1-3 0-4 1l-3 1-4 2-1 2-4-1c-3 0-5-1-5-4v-1h8l1-3 1-4v-1h5v6l6-3 5-3 3-2 3-2-4 1-5 1-5-1h-3l-2-4-1-4c1-2 3-1 5 1l4 3 3 1 5-3v-8l4-1 1 3v3h4l6-1 3-1v-3l2-4 3 1 1 1-2 4 3 3h8l2-2 3-2 2 1v7h2l4 2 3 2 2-2 2-2h2l3 1-1 2-1 2c-2 0-1 3 2 6l3 3 5-2v-3l1-3 3 2 2 1v-1l-4-4-4-4-2-4-3-2v-6l-3-1-6-2-8-2-6-1v6h-1l-2-1c-2-1-3-5-2-8v-2l21 1 7 2 7 3 1-2v-2h4l1-2 1-3h7v3l1-1 1-1-1-2-2-5v-2l4-4 5-4 10-5 2-1h2l1 1v3l-1 2h2l3 1 1 1 5-1 4-1 1 1 1 2c0 1-4 3-9 4l-3 1-5-2-7-2c-4 0-9 3-9 5v7h2c1 0 4-1 5-3l3-3h2l2 2c0 2-4 10-7 10l-1 1-3-3-3 1-5 2-1 1-1 1 11-1v3l3-1h3c1 1 0 4-4 7l-4 3h2l3 1-2 4-2 1-3 2-3 2h5v4l-7 3 2 2 3 1 4-2 2 1 2 2-4 3-4 2 2 1 2 1-3 4-5 4-2 2h2l1 2-3 4-2 2 2 3-3 4-3-2-3-2 1 3v3l-4 1-10 3-7 3-1 1 2 2 1 3-3 1-5-2zm13-15 3-2 4-2 4-3 3-2 1-1-12 1-3-1-4-4-1-2h-4l1 3-4 4h-8l6 1 6 2v1l2-1 1-1h3l3 2-2 2-4 4-1 2 2-1 4-2zm-19-15 3-6v-5l-5-7-4 2-5 2v1h2l5-1 2-1v4l-1 7c-1 2-2 4-1 5l1 1 3-2zm31-4-1-3 1-2 2-1-1-1h-2l1-3v-2h-1l-3 3-1 3 1 3 2 5v2l1-1h1zm-58 0h-2l1 1 1-1zm4-1-1 1 1 1v-2zm11-13 2-1h-3l-3 1v1l1 1 3-2zm7-3v-1h-2l-2-1-3-1h-1l1 1 2 2v1h2l3-1zm-11-1h-2l1 1 1-1zm56-3-1-1h-2l1 1 1 1 1-1zm-65-3 1-1h-4l-6-2h-2l-1 3h12zm61-4c0-1 1-2 3-2 2-1 3-3 1-3l-9 4 3 2 2-1zm3-10c-1-1-4 1-4 2v1l2-1 2-2zm10-1 1-1h-6v5l2-1 3-3zm-19-1-2 1c-1 2-1 4 1 2l1-3zm-275 72v-5h5v6l-4 1zm70 1v-2l1-2h11v4l-6 1-6-1zm-83-5-2-3c0-3-3-5-5-5l-5 1h-2v-2l2-2 1-2-3-2-3-1 1 1 1 1v2h-3l-6 2h-3l-2-3-1-2 2-2 4-2h2l1-3 1-3-2-2-4-2-6-2-6-3-2-2 1-4h10v2l4 1h2l2 3 3 3h7v12h9l3-3-2-1-1-1 2-5 1-5 1-2-8-4v-2l1-2 4 2 3 1h2l2-3v-1l-4-4v-8h1l4 4 4 3 2-3 2-2-3-2-2-4v-1l3-1 5 5 5-1 1-8 3-1v1l1 2 1 2v1h2l4 1h2l-1-2v-3l3-1 4-2 1 1v4l-1 5 11-2 4-3 2 1 1 1-2 4 1 2 2 2 2 1 2-2 3-2h2v2l-1 4-2 3 1 5h8v4l-6 5 1 2v13l-1 4h-4l-28-2h-4v-1l2-3 3-1h-3l-3 1h-2v5h-4l-7-1h-3v-1l1-2 2-1h-2l-4-1-1-2 2-2c3-2 7-5 10-5l2-1 4 3 8-1 1 2v3l4-2 12 1v-3l-3-6-3-4c0-1-9-10-12-11l-4-1-1 2v2l5 1-1 1v1h5v3l-3 1-4 2h-1v-2l1-2-5 3 1 1c2 2 1 4-1 4h-2l-3-6-5 3-1-2-2-3 4-5 3-4h2l2 1 1 1 3-2-3-1-7-1h-4l-3 4-7 8-3 5v15l-1 2-2 3v1h-7v1l4 3 4 3v3l1 6-2 1-3-2zm64-22-1-2h-2l-3 1 2 1 3 1c1 2 1 0 1-1zm-35-4v-2l-3 2-2 1h5v-1zm4-20-5 4 3-1 2-3zm-7 1v-1l-1 1-2 2v1l2-1 1-2zm2-3-1 1 1 1v-2zm-5 47-1-3h-3l-7-1h-4l1-4 13-1 4-2 1 1 1 7v6h-4l-1-3zm48-6v-4h11l1 2v1l-6 1-6 1zm96 0h-7v-5l8 1 10 1 1 3v1h-2l-10-1zm88 0v-3h7l1 1-1 1-4 2h-3v-1zm-76-4-1-2v-2l9-4 5 1v-3l1-7 2-3h2l2 1-1 2-1 1v12l-5 2-7 2h-6zm85 0h2l-1 1-1-1zm-189-10v-2h9l1 2v1l-5 1-5 1zm96-3-6-4h-3v-1l-3 1-1-2-4-1h-2l-1-6 4 1v-2l-1-1v-3l-3-1-3-3c0-2-4-5-5-5l-2 1-1 1h2c2 0 2 2-1 3l-14 7c-2 3-6 4-6 2l-1-2-6 1a30 30 0 0 0-13 4l-1-2v-3l3-1 4-1h2l-2-1c-2-1-1-3 2-4l3-3-5 3-5 2-1-1v-2l8-5 7-3-2-1-4-1-4 4-5 3h-2v-1c0-2 4-6 6-6l1-1-3-6v-4h4l2 4 1 3h3l5-1 2-2-1-2-1-5v-2l5 1v3l2 4h12v-3l1-5v-2h3c1 0 2 1 1 2v5l-1 4 7-1 1 1c1 2 2 1 3-2 0-2 3-6 4-6l2 1 1 1-1 3-2 4 4 3 4 2 1 2 2-3 4-2h2v2l-1 4v6l4-1 4-2 2 2-1 2-2 2c-3 0-3 2-1 5l2 3v8l1 5-1 3-4 4-5-6zm-47-19c0-2 4-5 10-8l5-3c-1-1-11 4-15 7l-2 4h2zm1-9-5 2-6 4v2l1 1 4-4 6-5zm7-4c-1-1-3 0-3 1h2l1-1zm-7 0v-1h-6l2 1 2 1 2-1zm-39 34v-2l-8-1v-4h13l2 3-2 6h-4zm115-3v-4h13c2 1 1 2-4 4h-9zm-190-4-1-3c0-2 3-5 5-5 1 0 2 3 1 4v5h-2l-3-1zm8-4v-1l1 1v2l-1-2zm23-1c-1-2-1-5 1-5l2-1v4c0 4-2 5-3 2zm44 1v-1l3-1 3-1 1-8-2-3-3-3 5-1 3 2 2 2-1 6-2 8h-9zm44-3v-1l3-3 7-4 4-1 2 2-10 5 1 2v2h-6zm12 1 3-5 2-3 2 1 2 3v2l-3 1-5 2-1-1zm-160-5-1-2 2-1c2 0 5 1 5 3v2h-6zm-12-5v-2h-2l-8-1h-6l-2-2 2-4 2-5h-3l-2 1-7-3 1-3 15-1 4-3 11-5 7-2v-3h-2l-3 1-1 1h-2v-4l-1 3-2 3h-1l-1-3-1-2c-1-1-4 1-6 2l-5 2v3l1 3h-5l-6-4H75l3 4 5 3c2 0 3 2 3 5v1h-8l-10-2h-2v-3l1-3-2-3-1-3h-7v2l1 1 1 2v1h4v7h-9l-6-1h-5l-1 2-3 1-4-1-6-2-4-2 2-2c3-2 8-2 9 0h4l1-2 2-2v-1l-2-3H31l-15 1-6 1-3-3 2-4h2l4 1 1 1v-1c0-2 3-3 3-1l1 1h2l2-3v-1h-2l-4-1-2-1v-8l1-8 4-1v2l2-1 1-1-4-2 1-3h24v2l-3 2-2 1c0 2 5 1 6 0l4-2 3 2c2 2 3 7 1 8h-1v15h19l10 1v-11l-2-1h-5v-4h7v-4l-9-1v-3h-4v-4h-1l4-4 4-4 3-5 2-4-4-1-4-1-1-1 1-3 8 1v-2l-1-3v-1h-8l1-1c0-1 1-2 3-2l2-2-3-1h-3v-1l1-2 1-1v-1l-6 1v-3h9l-14-2H31l-1 2-2 1-3-2-1-1H9v-4h2l13-1c5-1 7-2 7-4l-1-1h-2v-3l1-3c2 0 7 1 8 3v1l-5 2 1 1 4-2 4-2 4-1h8l-3-2-7-4h-4l-1-4-2-3-7 1-3-3 2-3 6 1h5v-4h-5l-5-1-3-3 5-5-1-3-2 1-5 1h-3l-2 5h-5l-1-3-1-2-11 1v-3l1-3h2l14-1h11l1-7 7-1v-9l2-1 7-1 5-1 1 2 2 3v10l-1 12 3 4 3 4 3 4a181 181 0 0 1 10 10l4 4v6h1l6 4 4 4v6l-5 2 4 2v3l1 12v10l2 1 6 5 5 4 4 2 2 3v2l-2 2h-2l1 8 1 8a374 374 0 0 0 46-9l13-2a413 413 0 0 1 67-8h3l2-2 8-4 8-3 4-2h4l6 2 1-1 6-1h4l6-3 8-3 4-2h10v1l19-1 4-2 3-3 9-5h2l9-9h3l3-1 5-2 5-3 5-2 4-1 1 3-3 2c-5 2-15 12-18 17l-2 5 6-7 6-7 7 2-10 12-10 11-2 2c-3 1-2 2 2 1h5l5-5-5 1v-1c0-1 3-5 7-8l7-7h2l1 2c-1 2 1 1 2 0l3-2a79 79 0 0 0 20-7l3-3 2-1-4 1-2-3 2-3 5-6 4-3-6 3-5 3-4 2-2 2h-8v-3l-1-2 1-1 1-1 1 1h7l5-2 4-1 3-5 4-6 2-4v-3l5-3 5-3 2-2 1-2h4l4-5 4-5 4-1c6-1 11-3 12-6l6-5 3-2h3l3 1 5-2a453 453 0 0 0 25-8l1 1v1l-2 2-7 3c-3 2-7 3-7 2l-8 3a193 193 0 0 1-15 7l-3 2-4 2-1 1-2 1-1 1h2l3-2h2v1l-3 4-4 5v2l-6 4a177 177 0 0 0-10 8l-3 2-4 9-3 7-3 2c-5 3-9 6-8 7l2-2 6-4 3-1 3-8 3-7h4v1l-2 6-2 4 1-1 1-2h2l2 1-3 6-2 4 1 1c2 1 1 3-3 5l-2 3 4-3 5-6c2-4 4-6 5-4l1 2-3 7-2 5h-3c-2 0-5 1-17 9l-1 1h1c1 0 5-1 7-3l9-3h3l-2 2-12 7-4 2c0 2 3 1 7-1l14-6h1v1l-12 8-3 2-2 1-2 1-1 1 3-1 19-9 3-5c2-4 5-6 6-5v4l-3 4-5 5-3 2-15 7 2 1 3 1 4-2 6-3 5-2h2v2l-1 1-2 1-7 4-7 3 1 2v2l-7 1 3 2h5l4 1-2 2-13 3-11 1-2-1-4-1-4 1-5 2h-2v-1l3-3 3-1-10 1-8-3-1 1h-2l-8-1-8-1-7-4-9 1v-1l4-3 6-2 1-1h-2l-6 1-8 3h-3l3 4-1 1h-7v-2l-2-2-4-3-2-2-6 2 6 2v4h-4l-12-2h-9l-1-1c-1-2-1-3 1-3h3l3-5h-3l-3 1-2 1-7 2-5 1v4h-25l-1-1 2-1 2-2-3 1h-2l1 7v6h-5v-5l-12-5h-6l-7 1-2 1v6l24-1v3l1 5 1 2v2h-8l-7-7-4 1-11 2h-8l1 6-5 2-1-1c-1-2-2-6-1-8s7-4 12-4h2v-2l-1-3-1-1h-2l-1-1-1 1-2 1-5-2-3 2-2-1c-2-1-7 0-8 1l-1 1-2-1h-4l-1 3-1 2h7l1 3 2 3h1v9h-8v-2l-2-2-2-3-1-3-2 1-9 2-6 1-5 3-6 2-3 2-2 1h-1l-2-1 1-6 7-4-3-5h-6v2l-5-1v3h-2l-2-1h-7v7l10-1 1 3v7c-1 1-6 0-9-2l-2-1-5 2h-9l-5 6h-8v2l-1 3v2c1 1 1 0 1-1l1-1 15-1 1-2 3-2h1v4h18l-1 2v2h-7v5l-1 5h-7v-3l6-2-3-2-4-2-5 1-4 1-2-2-1-2h-2l-3 1 4 2 5 4 1 1-1 4h-4zm-65-23-1 2-1 2 1-2 1-2zm-1-6-1 1 1 1v-2zm47-9 1-3-6 9 5-6zm83-2 6-2-1-2-1-1h-6l-7 1-5 1h-5l1 3 1 3 17-3zm-130-5-1-6-2 2-1 2 1 3 2 4 1 1v-6zm-25-2v-3c-1 0-3 5-2 7l1 2v-3l1-3zm392 1h-2l-1 1h2l1-1zm-10-2h-2l1 1c1 0 2 0 1-1zm15-3c0-2 0-3 2-3l2-2-5 1-5 2 3 2h3zm-29-1h-2l1 1c1 0 2 0 1-1zm-23-1h-2l1 1 1-1zm15 0 3-1h-3l-4 1-2 1h2l4-1zm26 0-1-2h1l6-3 5-1-2-2-2 1-6 2-3 1v-2l-1-1 4-2 4-2-1-1-6 2-5 2 1 4-2 2h2l4 1 2 1zm-36-1 2-1h-2l-3 1h3zm15-1v-2l-1 2v1l1-1zm-135-1 1-1-3 1v1l2-1zm24 0 1-1v-1l-3 1-5 1-1 1h3l5-1zm38 0h-2l1 1 1-1zm82-1 3-3h1l-1-2v-3l5-1 4-2c0-2-2-2-5-1l-5 2-2 1-1-2v-2l5-2 5-3v-1l-7 3-8 2-2-1h-4l-8 6-3 2-3 3-2 1c1 1 3-1 7-3 5-5 9-6 9-4l2 1 2 2v1l4-3 3 1v3l-1 5c-3 3 0 3 2 0zm-367 0-1-1-2 1-1 1h2l2-1zm218 0-1-2-3 1-3 1 4 1h5zm18 0-1-1-2 1-1 1h6l-2-1zm-169-1c0-1-6-5-8-5l-5-3-3-3v1l1 3 1 3v2h-1l-3-1c0-3-2-2-2 0v3h2l10 1h8zm240-1 6-2c-1 0-5 0-8 2l-6 2 8-2zm22 1 1-2v-1l-2 2c-2 2-1 3 1 1zm-40-3 3-1-3 1-5 2-3 1 2-1 6-2zm62 0v-2l-2 2-1 2 3-2zm-88-2-8 2h4l4-2zm39 1 3-1 2-2-1-2-1 1-4 3-2 2 3-1zm-49-2 5-1 1-2 1-2-6 2-6 3-3 1-2 1h2l8-2zm33 0 4-1 7 1 6-5h-2l-8 2-7 2c-2 0-6 3-4 3l4-2zm51-1 3-4-5 4-3 3 5-3zm-22 1 1-3-1 1-2 1-2 1 1 1 3-1zm-43-6-2-2-3 1-4 1 2 1 4 2 1 1 2-1 1-1zm63-1-4 3 2-1 2-2zm47 2h-2l1 1 1-1zm-98-1h3l-2-2-9 3 3-1h5zm15-2h-3l-1 1h1l3-1zm41-3c0-1-3 0-3 2l-1 1 2-1 2-2zm-29 1-1-1-1 1 1 1 1-1zm43-2 6-3 6-3 1-1-10 3-8 4h5zm-35-2h-1l-1 1 1 1 1-2zm48 1h-2l1 1 1-1zm-62-2 1-1-1 1-2 1 1 1 1-2zm66 1 1-1-3 1v1l2-1zm11-1v-1l-1 1c-2 0-2 1-1 1l2-1zm0-5 10-6c2-2 3-5 1-5l-2 2-3 2-5 4-6 3-3 1h-2l1 2 1 1 8-4zm9 0 2-2-3 1-5 3-2 2 3-1 5-3zm-14-15-4 4 2-1 2-3zm9-3 1-1-6-1-3 4 3-1 5-1zm7-13c3-7 4-14 2-14l-1 4-2 6-1 4-2 4c-1 2-2 3-1 4l1 1 4-9zm-350 7 1-1 1-2h-2c-2 1-3 0-2-1l1-2-5 1-1-3 2-2 1-2-4-1-4-1-1-1 2-2 1-1-5-1-1 2v2h-3v1l1 2h8v4l-1 5h-1l-5-5 1 2v2h-2l-5-1c-2-2-7-1-7 0s-1 2-3 2l-3 2v1h10a127 127 0 0 1 24 0h2zm-20-19 2-1h-2l-7-1-5-1v1l1 2h11zm382-3 2-2h-1l-3 2-1 2 3-2zm-383-7-3-1h-3l1-2 1-3-1-1-1-2 1-19h-1v10h-5v2l1 4 1 1-1 1-4 2-4 2v1h9l1 1v2l1 4c2 2 5 2 6 0l1-2zm386-1c2 0 4-3 2-3l-3 3-2 2 3-2zM334 303c-2-1-1-2 2-2h2v1c-1 2-3 2-4 1zm-109-1v-2h5l-1 2h-4zm-11-7 1-1 14-2 1 1 1 1-1 2-1 1h-15zm105-3v-2l4-1h4v1l-1 2h-7zm-91-4 1-3 2-1h-3l-7 2h-5v-4l3-1 5-1 2-1 3 1 5 3 1 2 6-1v4h-4l-6 1h-3zm88-3-1-1 2-1 1-2 2-4 2-3v-4h-8l-7 1-1 2-1 2-2 1-1-3-2-3 8-5h4l15 1 10 2v3l1 5v2l-1 2h-2l-3-1v-1l-3 2 4 3h-3l-2-1h-4l-4 1h3l3 1v3h-10zm60-1-4-3v-6h3l4-1c1-2 5-1 5 0l2 7v5h-2l-4 1h-2zm-200 0h-4v-3h4l5 1c1 1-1 2-5 2zm111-8-4-4v-2h-10l-10 1-1 3v3h-3l-1-4v-4l5-3 28-1v1l2 4 2 3-2 3-3 2-3-2zm58-1v-3l10-1 10 1v3h-11l-1 1-1 2h-7zm-269 0v-2h2l2 1 1 2h-2c-2 1-3 1-3-1zm344 1 1-2h-2l-5-1c0-2 2-3 9-3l7-2 4-1h1v4l-9 2h4l5 1v2l-8 1h-7v-1zm5-3h-2l-1 1h2l1-1zm-79-10v-2h4v3h-4zm88-1-3-1v-4l3-2 4-3 4-2 3-2v-3l2-5 3-1h1v2l2 4 1 2-5 3-9 6c-2 1-4 2-3 3l14-7 3-1h2l1 2-17 9h-6zm-148-4 2-2h2v4h-4zm53 1-1-1h3v1l-1 1-1-1zm133-2-1-2v-2l4-1 3-1 3 1 2 3-2 2h-9zM53 245l-1-1-5-1h-7l-1-1v-11l-1-11 6-5h7l10 2 2 1v27l-1 1h-4l-3 1zm3-6-1-6-2-5 1 4v7l1 2 1-2zm-7 0h-2l-1 1h2l1-1zm-4-7h-1l-1 2 1 1 1-3zm2-5h-2l1 1c1 0 2 0 1-1zm2-6c-1-2-5-3-5-1l4 2 1-1zm84 25v-4l-1-4 7-7 3-1 5-2 4-2c1 0 2 3 0 4l-12 13-4 3h-2zm44-1c0-2 2-4 5-4h2v1c0 2-2 4-5 4h-2zm-34-1 4-6 3-5 6-3c2 0 1 3-2 6l-5 6-2 3h-4zm66-4 3-4 12-5 3-1 4-1h4v1l-8 5-8 4c-3 2-6 2-7 2h-3zm-9-4 1-3 1-1h7v1c0 1-1 3-3 3l-4 2-2-2zm-102-4v-3l7-6 7-1 3-2c3-3 6-4 6-2v1l2-1 2-3c0-2 3-5 6-8l7-6h3l4 1v1h4l6-1 2-1 3 3 4-1-1 5 2-2 1-4-1-2 3 1 4 2-5 6-5 6h1l2 1-3 4-3 3-1-3-1-3 3-5 2-4-5 5c-3 4-5 6-6 5l-1-1 4-6 3-5-1 1-5 6-6 6-4-4 1-3c1-2 0-6-1-6-2 0-6 5-6 7v1h-4l1 1c2 0 1 3-3 7l-8 5-4 1-1-2-2 1-4 2-4 3c-1 2-4 2-6 2h-2zm50-20 1-2-2 2-2 2 3-2zm15 17c0-1 5-6 7-6l1 2c0 2-4 6-6 6l-2-2zm273 1c-1-1 2-8 5-10l1-1 3 3-3 4c-3 5-5 6-6 4zm-182-3 2-5 2-3h5v4l-3 4-5 3-1-3zm-11 1c-1-1 0-3 1-6l3-5 1-1c0-2 2-3 5-3l1 1c0 2-7 13-9 14l-2 1zm89-3c-1-1-1-6 1-12a225 225 0 0 1 12-37c1 0 5 3 5 6v1l3-2 2 2-1 5-4 8-2 5-1 4-2 1-1-3v-2l-2 7h-2c-1 1-2 1-1 2l-1 4-2 7-1 5h-1l-2-1zm14-31-1-2v-1l-1 1c-1 1 0 4 1 4h1zm4-8v-2l-1 2v3l1-3zm-127 38-1-2 3-2 4-3 2 2v1l-2 3-4 2-2-1zm161-1-1-2h8c1 1-1 3-4 3l-3-1zm-36-11 1-1 1-1v1l-1 2-1-1zm-91-5-1-4 1-3 2-4 1-3 2-4 2-2 1 1 1 2-2 5-3 7 4-5 4-6h3v3l4-3 2 4v-2l1-2 2-3c2-5 5-10 7-10l1 1-9 20-6 6-2-2v-1l-6 8h-7l-2-3zm11-7-1 2-1 2 1-2 1-2zm6-1 2-1-2 1-2 2 2-2zm-68 7v-8l2-2 3 1v9l-4 2-1-2zm-28-5-4-5-2-3 1-2c0-3 4-6 6-6l4-3 5-4 2 1 1 2-1 1-2 2-1 2-6-1v2l-1 3c-2 1-1 2 2 1h2v4l-1 6h-5zm175-2 3-11 2-8-3-3-3-1v-4l13-13 7-3 10-5 9-1 5 1 1-2 5-3 8-4 7-3h2v5l-5 2-7 3-4 2-6 2-10 4-9 4-1-1c0-2-2-1-2 1v2l4-1 5-2h5l-11 6-10 5 8-2 10-3 1 1v2l-6 1-6 3-6 2h-4v-1l-2-1c-4-1-2-3 7-7l4-2h-2c-3 0-8 2-12 6l-3 3 5 3h11c1 0 2 3 0 3l-2 2-1 3-1-1-2-1 1-1-6-1v2l-4 11-4 9h-1zm-340 1-2-2-1-1 1-1h11v3l-1 2h-3l-5-1zm349-1c-1-2 1-11 2-12l1-1 3 2-2 6c-1 5-3 7-4 5zm9-5v-7h3v9h-1l-2-2zm-155 0v-6l2-6-1-1-2-2-1 2c0 1-3 2-3 0v-5l-1-4 5-1 1-3 2-4 3-1 3 1-1 2-2 7-2 4 2 1h1l1 4 1 6c-1 5-7 9-8 6zm-14-2 1-2-4-1v-1l1-6 2-7 1-3 2 1 1 2-3 13 1 2 1 3-1 1h-2zm188-6-4-2-3-2-3-1-3-3-1-2 2-2h3l7-1h5c2 0 3 3 1 3l-4 1-3 1 10 5h4l6 1h2l-1 3h-8l-10-1zm-166-5 1-13 2-1h1v4c0 6-1 11-2 11l-2-1zm6-2 2-2h2v3h-4zm44 0-1-2c0-2 2-6 4-6h2l1 1-1 3-3 4h-2zm-84-6h-3l-1-3v-2l2-1 2-3v-1l6 1-1 1 1 2 2-4 1-3 7-2h-2l-2-2 2-3 2-2h2l5 2h2l-2-1-1-4v-2l5-4v-3l2-4 1-5v-3h5v-9h5l1 3 2 5c6 5 8 8 8 9l-1 2-3-2h-4l-4-4h-2l-2 1-2 5-2 7-2 5-2 6v4l-3 1c-6 0-8 1-9 3-2 4-9 11-10 11l-5-1zm120-1 2-3 2-3h9l1-1 1 1 1 2-1 2-3 1-2 1h-10zm-76-6v-6h-1v-5l1-2-2 1-3 1 2-5 4-6 1-1 1 2v2l8 1v1l-4 8-4 7-1 2-2 1v-1zm3-17v-1l-1 1-1 1c0 2 1 1 2-1zm98 9-1-1 2-2 1-2h6l1 2v2l-4 1-4 1zm-52-2-1-2 2-3c1-4 5-8 7-8s2 3 0 6l-2 4-2 3-2 1-2-1zm-62-4 1-5 1-3 9-1v1l-3 6-2 4h-5l-1-2zm240-5a38 38 0 0 1 24-14h5l1-4 5 4v5l-14-1-6 4-8 6-1 2h-7zm-36-9-1-2 9-5 6-2 6-2 1 3v2l-3 1-15 5-3 1zm-132-1v-1c1-1 3 0 3 1h-3zm27-2 3-4 2-2h6v4l-3 1-5 2h-3zm-78-11c0-4 3-13 5-13l2-3 1-3h2l3-2v-1l-3-4 2-2 2-4 1-3 4-1h2v4l-1 5 4-4 2 2 3 2 1-1 2-2 1-1 4 3-2 3-5-1v4l-1 4h-2l-5-2h-4l-1 5v4l-2 1h-3l-1-1v7h-6v4l-1 3-2 1h-2zm71-22 3-5 3-2h6v4l-2 1-4 2-4 2h-2zm-82-2-2-2 2-2 2-1 3 1 2 3v2h-3l-4-1zm-10-2-8-1-7-1 1-2 2-2h4l14 2v2l-3 2h-3zm-28-6-2-2-1-2 1-2 3-1h2v3l4-1v6h-2l-5-1zm100-1c-2-1-1-3 2-6l13-13 4-5h4v1l-2 4c-3 3-4 5-1 3l1-1 4 1 3-2c4-2 8-3 9-1l-4 4-6 5-4 1h-3v-2l1-2-2 1-5 4-12 9-2-1zm-20-1c-1-1 0-3 2-5l2-3h4v2c0 2-4 7-6 7l-2-1zm-107-2-9-3v-3l3-1 11 2 7 1v2c0 2-2 4-3 4l-9-2zm15 1v-5h2l2 2v2l-4 2v-1zM68 81h-2l1-6 12-1 4 2-1 2-5 3h-9zm204 0-1-2 2-5 2-5 2-1h14v4h-1l-1 3v3h-2l-4-2-3-2-1 2c0 2-3 6-5 6l-2-1zm-122-1-3-2c0-3 2-4 6-4 3 0 6 2 6 4l-2 2-4 1-3-1zm-49-6v-6l4-1 5-1 4-2 2 3-7 1 3 1 3 2-5 2c-5 2-8 2-9 1zm30 0a3835 3835 0 0 1-8-3l-1-2 4-5h-3l-3-1-1-1 13 1 3 4 4 6-1 1h-7zm8-7-1-1h3v1l-1 1-1-1zm193-2-2-4 1-5v-3h4v3l-1 3h2l3-4 5-6 5-6 1-2h7v4l-4 3a57 57 0 0 0-12 11l-3 3 2 1h2v1c0 2-3 3-6 3l-4-2zm-44 0-1-2 2-5 3-5 4-1 2 1 2-5 2-6 3-5 4-5 2 1 2 2 2-2c2-2 6-4 10-4h2v4l1-1 4-1h2v1c0 2-3 4-15 14l-6 4 1 2v3l-3 4-4 4-2 1-2-2-4-3c-3 0-5 1-6 4l-3 3-2-1zm31-27h-2l-2 2-3 3-1 2 11-6zm28-2c-1-1-1-3 1-3l1 1c0 2-1 3-2 2zm-4-18-2-3 6-8 6-7h2l3 1c1 2 0 5-3 9l-9 9-3-1z"/>
</svg>
