<?xml version="1.0" encoding="utf-8"?>
<svg xmlns="http://www.w3.org/2000/svg" version="1.1" viewBox="0 0 797 275">
	<title>Sketch of a ruined castle on a hillside with a path on the left hand side. Mountains are in the distance.</title>
	<path d="M729.3 272.4c-.5-1.4-1.2-4.4-1.6-6.7a49 49 0 0 0-6-15 18 18 0 0 0-4-4.6c-1.4-1.1-2.4-2.5-2.2-3.2 1.4-4 12.2 13.3 14.7 23.6l1.7 6.2c1 3.2-1.3 3-2.6-.3zm23 .3c0-3 1-4 2.7-2.6 2.1 1.8 1.7 4.9-.6 4.9-1.5 0-2-.7-2-2.3zm-697.8-.5c-.8-1.4.2-2 4.4-2.4 2-.2 3.5.2 3.8 1 .2.6-.4 1.2-1.4 1.2-1 0-2.8.3-4 .6-1.2.3-2.4.1-2.8-.4zm401-3.7a57.5 57.5 0 0 0-19.6-3.6 130 130 0 0 1-18.5-2.5c-2.4-.8-6-1.4-8-1.4s-4.7-.7-5.8-1.5c-2-1.5-2-1.5 0-3 2.2-1.7 4.6-2 4.6-.5 0 .5-.7.7-1.5.4-.9-.4-1.5-.1-1.5.5s1 1.3 2.2 1.5c8 1.6 24 3.6 33.8 4.1 13.9.8 23.5 4.3 21.4 7.7-.7 1.1-1.2 1-7.2-1.7zm-384.6.7c0-.5 1.6-1.3 3.5-1.6 2-.4 4.7-1.8 6.1-3.1s5-3.2 7.8-4.1 5.5-2.3 6-3c.4-.8 1.4-1.4 2.1-1.4 1.8 0 11.2-4.4 13.4-6.3.9-.8 4-2 6.7-2.5 6-1.3 12.4-3.2 22.5-6.7 5.6-2 8.4-3.6 11.1-6.6 2-2.1 4.3-4 5-4 1.7 0-3-3.9-4.8-3.9-2.3 0-8.5-6.2-7.4-7.4.7-.7 1.6-.5 2.9.7 1 1 2.3 1.7 2.8 1.7.6 0 2 1.1 3.3 2.5 1.7 2 2.8 2.5 5 2 4-.9 13.7 1.8 22 6a52 52 0 0 0 8 3.5c.4 0 1.4.7 2.1 1.5 1 1.3.8 1.5-1.6 1.5a19 19 0 0 1-6.6-2c-2.1-1.1-5.2-2-6.9-2-2.5 0-3-.3-2.4-2 .6-2-1.8-3.1-9.3-4.4-2.8-.5-3.4-.2-4.5 2.1-2.5 5.6-6.9 8.7-18.5 13a86 86 0 0 1-13.5 4.3 56 56 0 0 0-19.9 7.9c-5.1 2.7-11.8 6-14.8 7.2-3 1.3-7.2 3.3-9.2 4.6-4 2.6-10.9 4.2-10.9 2.5zm173-5.6a20 20 0 0 1-7.8-4.4 18 18 0 0 0-5-3.7c-1.2-.4-2-1.3-2-2 0-2.6 3.7-1.6 7.5 2 2.4 2.2 5.9 4.1 9.7 5.3 9.5 2.8 7.3 5.5-2.4 2.8zm-196-.4c0-1.3 1.7-1.9 7.7-2.7 4.2-.6 15.9-3.6 20-5.2.7-.3 1.4 0 1.4.5 0 1.2-10 4.4-18.6 6l-8.2 1.8c-1.3.4-2.3.2-2.3-.4zm659.7-5.9c-3.4-1.6-4.3-3.3-1.8-3.3 2 0 6.6 2.1 6.6 3 0 1.7-1.7 1.8-4.8.3zm-6.3-.3a1 1 0 0 1 2 0c0 .5-.4 1-1 1s-1-.5-1-1zm35-1c0-.6.5-1 1-1 .6 0 1 .4 1 1 0 .5-.4 1-1 1a1 1 0 0 1-1-1zm-657.8-2c.3-.6 1-.8 1.5-.5 1.4.9 1.2 1.5-.6 1.5-.9 0-1.3-.5-1-1zm649.4-6a12.2 12.2 0 0 1-2.5-4.2c0-1.1 7.7 5.2 7.9 6.4.2 1.9-3 .5-5.4-2.3zm-515-2c-1.8-1.4-2.1-2.1-1.2-3 1-1 1.8-1 3.8.4 2.7 1.8 3.4 4.6 1.1 4.6-.7 0-2.4-.9-3.7-2zm161.2-1c-.9-1.7-.7-2 .8-2 1.9 0 4.2 1.8 4.2 3.2 0 1.7-4 .7-5-1.2zm-294.6 0c-.3-.5 1.3-1.5 3.7-2.2 3.8-1.1 4-1.3 1.6-1.6a9 9 0 0 0-4.7.7c-2.4 1.3-6.2 1.4-6.2.2 0-.4 3.5-1.6 7.8-2.6 7-1.7 11.9-3.8 18-7.6 1.2-.8 2.5-1 2.9-.6 1 .9-1.7 2.8-8.4 6.2-2.9 1.5-5.2 3-5.2 3.5 0 2-8.5 5.7-9.5 4zm17.5.1c0-1.3 4.8-3.2 5.5-2 .3.5-.6 1.3-2 1.9-3.2 1.2-3.5 1.2-3.5.1zm606.5-1c-2-1.3.2-2.2 3.8-1.5 1.7.4 3.3 1 3.6 1.5.7 1.1-5.6 1.1-7.4 0zm-8.2-1.1c0-.6 1.2-1 2.5-1s2.5.4 2.5 1c0 .5-1 1-2.5 1s-2.5-.5-2.5-1zM60 242c0-.6.7-1 1.5-1s1.5.4 1.5 1-.6 1-1.5 1-1.5-.5-1.5-1zm-27.5-2c.4-.6 1.5-1 2.6-1 1 0 2 .4 2 1s-1.2 1-2.6 1c-1.5 0-2.3-.5-2-1zm159-.2c-1-1.5 0-1.8 6.7-2.4 5.6-.5 10.4.6 9 1.9a44 44 0 0 1-15.7.5zM117 239c0-.8 2.7-2.3 12-6.3 3-1.3 4.6-2.5 3.7-2.6-2.4-.5-.3-4.2 2.3-4.2 2.8 0 3 1.2 1 4.6-1.4 2-3.4 3.5-6.3 4.3a46 46 0 0 0-8 3.2c-4 2.1-4.7 2.3-4.7 1zm540.8-1.3c-8.7-1.8-12-3.2-11-4.9.4-.5 1.6-.5 2.8 0 8 3 11.7 3.5 27.2 4 21 .7 23.7 2.6 3.6 2.6-9.3 0-16.7-.6-22.6-1.7zM53.4 237c.4-.6 1.6-1 2.9-1 2.1 0 20.5-3.6 24-4.6.9-.3 1.7-.1 1.7.5 0 1-3.5 2.2-15 4.5-8.7 1.8-14.5 2-13.6.6zm649.7-1.5a12 12 0 0 0-5.8-3.5c-4.5-1.3-10.6-6-7.7-6 1 0 1.7-.5 1.7-1 0-2 3.5-1 8 2.6 5.7 4.6 7 6.3 7 8.6 0 2.4-1.1 2.2-3.2-.7zm-317.6-.2c.3-.6 8-1.6 16.9-2.2l21.5-1.6c3-.3 5.4 0 5.8.5.9 1.4-.8 1.7-12.5 2.4l-21.5 1.2c-7.3.5-10.7.4-10.2-.3zm276.5-1c-1.6-1.5-.5-2.4 2.6-2.1 1.8.1 3.1.7 3 1.3-.3 1.2-4.6 1.9-5.6.9zm-651.6-1c-7.3-.5-9.5-1.2-9.5-3 0-1.2.8-1.4 3.8-.9 2 .3 7.7.8 12.6 1 8.2.5 10.7 1 9.6 2a71 71 0 0 1-16.5.9zm19.5-.1c0-.6 2.6-1.6 5.8-2.2 13-2.6 16.4-3.4 16.9-4.2.6-1 4.4-1.1 4.3 0 0 1.4-9.3 4.5-15.9 5.2a51 51 0 0 0-8.8 1.5c-1.4.4-2.3.3-2.3-.3zm321.7-1.4c-1-.7-4.6-1.7-7.9-2.3-3.2-.5-6.1-1.6-6.3-2.3-.6-1.6 10.3-.6 13.3 1.3a14 14 0 0 0 4.8 1.6c1.5.2 2.7.8 2.7 1.4 0 1.4-4.3 1.6-6.6.3zm86.6.2c0-.6.7-1 1.5-1s1.5.4 1.5 1c0 .5-.7 1-1.5 1s-1.5-.5-1.5-1zm18.5 0c-.4-.7-.5-1.3-.3-1.6.4-.4 26.6-3.2 40-4.3 12.7-1 11.9-2-1.1-1.4-7.6.4-11 .2-11-.5 0-.6.3-1.4.9-1.7.5-.3 10.3-.8 21.7-1 11.5-.3 23.9-.8 27.6-1.1 5.6-.5 6.7-.4 6.7.8 0 1.8-6 2.8-20.9 3.3-8 .3-10.8.8-12.3 2.2-1.5 1.3-4.8 1.8-15.6 2.4-7.5.5-18.3 1.5-24 2.3-12.1 1.9-11 1.8-11.7.5zm-10.7-.7c.7-.3 1.6-.3 2 0 .3.4-.3.6-1.4.6-1.2 0-1.4-.3-.6-.6zM275 229c0-1.3 1.5-1.7 10-3 4.2-.7 10-2 13-2.8 3.8-1.1 5.6-1.3 6.3-.5 1.3 1.2 1.6 1-7.7 3.5-5.6 1.5-17.7 3.7-20.3 3.7-.7 0-1.2-.4-1.2-1zm101.6-1.1c-.3-.7-.5-1.3-.3-1.5.2-.2 7.7-.7 16.6-1.1 14-.6 16.3-.5 16.3.7 0 1.3-2.3 1.5-13 1.6-7 0-14.3.4-15.9.7-1.8.4-3.2.2-3.7-.4zM62 227c-1.3-.8-1.3-1 0-1.4 2-.7 20.4-2.5 20.8-2.1 1.3 1.2-1.9 2.3-8.6 3-4.2.3-8.4.8-9.2 1s-2.2 0-3-.5zm48.6-.6c.7-1.7 4.3-3.9 5.2-3 .7.7-3.3 4.6-4.7 4.6-.6 0-.8-.7-.5-1.6zm128.5.8c0-1 8.2-3.2 9.3-2.5.6.3.1 1.2-.9 2-2 1.4-8.4 1.8-8.4.5zm69.8.2c-.4-.3-.2-1.9.4-3.5.8-2.4 1.7-3 5.4-3.5 5-.8 11.6.5 12.2 2.5.4 1-1 1.2-6.6.6-7-.7-7.2-.7-8.3 1.9-1.2 2.6-2 3.1-3.1 2zm102.4-1c1.5-1.5 4-1.7 20.3-1.8 12 0 18.5.2 18.3.9-.2.5-2.6 1-5.3 1-2.7 0-11.7.4-20 .9-14.2.8-14.9.7-13.3-1zm225.8.9c-3.3-.9-1.8-2.5 2-2.1 2 .1 3.7.7 3.7 1.3 0 1-3 1.5-5.7.8zm46.2-.4c-1.3-.4-3.8-.8-5.5-.9-1.6 0-3.9-.8-5-1.6-1.7-1.3-1.7-1.6-.5-2.4 1.9-1.2 1.7-1.3-5.5-3.8-6.6-2.4-12.4-2.1-9 .4 1.7 1.2 1.7 1.4.2 2-2.3.8-14.7-.6-14.7-1.7 0-.4 2.6-1 5.7-1.1 3.1-.2 5.8-.8 6-1.4.2-.5-2.5-1.6-6-2.3-17.7-3.8-20.9-5.2-18.9-8.8.8-1.3.7-2.2-.4-3.4-1-1.2-1.1-2.3-.4-4.8l2-6.1c1.2-4.3-.2-3.8-2.9 1a15.5 15.5 0 0 1-4.2 5c-1.6.9-1.9 1.7-1.4 4.2.7 2.9.6 3-1.6 2.3-1.3-.4-6.2-1.3-10.9-2-7-1.2-8.9-1.9-10.8-4-1.6-2-3.7-2.9-7.7-3.5-6.8-1.1-9.7-2.7-9.3-4.9.4-2 3.3-2.2 3.3-.1 0 1 2 1.8 6.5 2.7 4.7 1 7 2 8.5 3.8 2.5 3 3 3 3.8.3.4-1.5 0-2.2-1.4-2.6-2-.5-2.7-2.2-.9-2.2.6 0 1.5-1.2 2-2.7.9-2.1.7-3-.8-4.3a43.7 43.7 0 0 1-3.9-18.7c1-1 3.5 1.6 4 4 .3 1.9.5 1.8 1.6-1.1 1.6-4 3.5-4.3 2.9-.3-.3 1.7-.1 3 .3 3s1.2-3.8 1.9-8.6c1-7.5 1-9.4-.5-15-1.4-5.2-1.5-6.7-.5-8 1-1.1 1-2.6-.4-7.7-2-6.8-4-10.2-5.5-9.2-.6.3-1.1 1.6-1.1 2.7 0 1.6.3 1.8 1.3 1 2.8-2.4 4 3.5 4.2 21.3.2 9.4 0 16.4-.2 15.5-1.4-4.4-1.5-4.5-2.4-2.2-.5 1.2-1.3 2.2-1.9 2.2-1.3 0-1.3-.6.1-3.2 1.2-2.3 2.1-14.8 1-14.7-1.2 0-5.2 9.4-5.1 12.2 0 1.5-.4 2.7-.8 2.7-2.7 0-4.4 11.7-1.8 12.7.8.3 2 2.8 2.6 5.7l1.6 6.9c.3 1.1 0 1.8-1 1.8s-1.6-.9-1.6-2c0-1-1.1-2.5-2.4-3.4-2.2-1.4-2.5-2.5-2.8-9.4a53 53 0 0 0-2-12.3c-3-8-4.2-15.1-2.9-16 1-.5.9-.8-.2-1.2-2.1-.9-1-6.5 1.4-7 1-.4 1.9-1.1 1.9-1.7 0-.8-.8-1-2.1-.5-2 .6-2 .4-.9-1.7 1.5-2.6 2-9.9.9-9.9-1.6 0-2.4 2.6-3.4 10.5-1 7-1.3 8-3.2 8.3a13 13 0 0 0-4.9 3.3c-3.3 3.5-4.4 3.7-4.4.8 0-1.2 1.7-3.8 3.9-5.9 3.5-3.4 4-4.4 4.8-10.9.7-5.6.6-7.4-.4-8.2-.7-.6-1.3-1.7-1.3-2.4 0-.8-1-1.6-2-2-1.6-.5-2-1.5-2-5 0-5.6.7-7.5 3-7.5 1.2 0 2-.7 2-1.7 0-.9-.3-1.3-.7-1-1 1-3.3-1.3-3.3-3.2 0-1.9 4.5-5.4 6.2-4.9 1.5.5 1.8 8.8.5 10.6-.6.7-.7 1.6-.2 2 .4.4 1 .1 1.2-.5.2-.7.9-1.3 1.4-1.3 1.2 0 1.1 3.7-.1 4.5-1.2.8-1.4 10.5-.2 10.5.5 0 1.4-1.8 2-4 .7-2.3 2-4.3 2.8-4.7 1.1-.4 1.2-.8.2-2-3-3.5-4.3-11.4-1.8-9.8a41 41 0 0 1 6 12c0 .6.9 2.2 2 3.5 1.2 1.5 2 3.8 2 6.2 0 4.6 1 4.9 2.9.6 1.3-3 1.3-3.2-1.3-5.2-2.9-2.4-3.5-4.6-1.2-4.6 1.7 0 5.6 3.8 5.6 5.5 0 .6.9 1.8 2 2.8s2 2.7 2 4c.1 3.7 4.4 15.3 5.5 14.7.5-.2.9-2.1.7-4.1-.2-3 .2-3.7 2-4.2 3.2-.8 4 0 3.2 3.9-.7 3.7 1 4.9 2 1.3.2-1.2 1-1.8 1.6-1.4.6.4 1.7.2 2.5-.5 1.3-1 1.3-1.5 0-3.3-2-2.7-2-5.7 0-5.7 2.1 0 4.2 7.7 2.7 9.9-2.8 3.8-3.7 6.5-2.5 6.9.9.3.7 1.8-.8 5.4a24 24 0 0 0-1.8 6.7c.3 3.3-.1 4.1-2 4.1-2.4 0-4.3 5-3.4 9 .6 3.2 2.3 4.2 2.3 1.5 0-.8.6-1.8 1.4-2 1.5-.6 5.6-9.3 5.6-11.9 0-.9.4-1.6 1-1.6s1-2.2 1-4.9c0-5.3.7-8 2.1-8 .5 0 .9.8.9 2 0 1 .5 2 1 2 1.5 0 1.2-3.4-.5-5.6-1.6-2.1-2-8.5-.6-8.5.5 0 1.6 1.7 2.5 3.8l2.6 5.2c3.4 5.4 4.3 8.4 5.6 18.9a53.6 53.6 0 0 0 4.5 17.7c3.3 6.8 3.6 9.2 1.4 10-1.2.5-1 1.3 1 4 2.3 3 2.7 4.6 3.3 15.1.8 13.1.2 12.3 7.8 10.8 2.4-.5 4.5.2 9.7 3 3.6 2 7.1 4.3 7.8 5.1.6.8 2 1.5 2.9 1.5.9 0 2.5.6 3.6 1.4 2.5 1.9.8 3.5-2.6 2.5zm-40-16.9c0-.5-1.8-1.5-4-2.2-2.7-.8-3.7-1.5-3-2.2s3 0 7.1 2.2c6.7 3.4 8.8 4 7 1.8-.8-1-.8-2.2 0-4.4.6-1.8 1-4 .7-5-.2-1.3-.8-.8-2.5 2-2 3.5-4.3 5-4.3 2.9 0-.5-1-1.2-2.2-1.5-1.8-.5-2-.8-1-1.8 1.6-1.6 1.6-4.8 0-4.8-.8 0-2.2 1.4-3.3 3.2a19 19 0 0 1-3.4 4.5c-1.4 1-1.4 1.3-.1 2.6.8.8 3 2 5 2.5l3.8 1c.1.1.2-.3.2-.8zm-22.5-15.8 2.5-8.4c.5-1.4.6-3 .2-3.3a17 17 0 0 1-1.2-5.3c-.3-2.7-1-4.8-2-5-1-.4-1.1 0-.5 1.9 1 3 .7 8.9-.4 10.3-.5.6-1.6 3.3-2.4 6-.7 2.7-2 5.1-2.6 5.4-1.4.4-.8-3 1.5-9.1a41 41 0 0 0 1.3-12v-8.3l-1.4 4c-.8 2.2-1.5 5-1.5 6.2 0 1.3-.7 4.9-1.6 8-1 3.2-1.9 7.3-2.2 9.2-.3 2.2-.9 3.1-1.8 2.8-.7-.3-1.6-.2-1.9.3-.6 1 3 2.5 4.2 1.7.4-.2 1.7 0 2.8.4 4.4 1.8 5.4 1.2 7-4.8zm17.8-1c1-5.4-.4-6.2-2-1.2-1.7 6-1.7 7.5 0 6 .8-.6 1.7-2.7 2-4.7zm9.4 1.6c-.3-.8-.6-.6-.6.6 0 1 .2 1.6.5 1.3.3-.3.4-1.2 0-2zm-4-2.6c-1.1-1-2 .5-1.1 1.9.6 1 .9 1 1.2 0 .2-.7.1-1.5-.2-1.9zm-17.7-1.3c0-.5-.5-1-1-1s-1 .8-1 1.6.4 1.3 1 1 1-1 1-1.6zm9.4-5c.7-4-.8-2-1.8 2.6-.5 1.8-.4 2.6.2 2a12 12 0 0 0 1.6-4.5zm11.6 2.1c0-.5-.4-1.2-1-1.5s-1 0-1 .9.5 1.6 1 1.6 1-.5 1-1zm-16-6.2c0-1-.3-1.9-.6-1.9-1.5 0-3.4 3.2-3.4 5.7v2.9l2-2.4c1.1-1.3 2-3.2 2-4.3zm14-1c0-3.6-2.3-14.9-3-14.9-.4 0-1 1.7-1.4 3.8l-1.3 6.2c-.4 1.8-.3 2.2.7 1.6 1.5-1 3 1 3 4.3 0 1.2.5 2 1 1.7.6-.4 1-1.6 1-2.7zm-39.7-3.8c-1-1.2-2.2 1.8-1.6 4 .7 2.4.7 2.4 1.3-.6a9 9 0 0 0 .3-3.4zm23.6.5c1.3-2.2.9-4.6-.7-4.5-1 0-3.2 5.1-2.6 6 .9 1.6 2 1 3.3-1.5zm4.2-1.8c-.8-.9-1.1-.7-1.1.4 0 2 1.3 3.3 1.8 1.8.3-.6 0-1.6-.7-2.2zm-19-7.1c1-3.5 1-5 .2-5.8-1-.9-1.4-.4-1.8 1.7-.4 1.6-1 4-1.6 5.2-.5 1.3-1 3.5-1 5 0 2.7.1 2.7 1.6.6.8-1.2 2-4.2 2.7-6.7zm13 3.3c.5-1.1.9-4 .7-6.2l-.3-4.3-1.8 4c-2.8 6.2-1.7 12 1.3 6.5zm8.6-1.1c-.3-.8-.6-.6-.6.6 0 1 .2 1.6.5 1.3.3-.4.4-1.2 0-2zm-.7-5.6c0-2.2-.2-2.4-1-1.3-1.3 2-1.3 4 0 4 .6 0 1-1.2 1-2.7zm-2-8.3c0-2.2-.4-4-1-4s-1 2-1 4.6c0 2.8.4 4.3 1 4 .6-.4 1-2.5 1-4.6zm-14.2-.7c1.2-2.8 1.9-5.7 1.5-7-.9-3.6-2.2-2.6-1.6 1.1.4 3 .2 3.4-1.3 3.3-1.5-.1-2 .6-2.2 3.6-.4 5.1 1 4.7 3.6-1zm-24.8 2.2c0-.8-.5-1.5-1-1.5s-.7.7-.4 1.5c.3.9.8 1.5 1 1.5.2 0 .4-.6.4-1.5zm46.2-2.9c.3-1.3.1-3-.3-3.7-1-1.6-3.2 3.8-2.4 5.9.7 1.9 2.2.8 2.7-2.2zm-37.8-10.2c2-4 2.6-5.9 1.8-6.1-.7-.3-1.2-1.3-1.2-2.4 0-1-.5-1.9-1.1-1.9-.8 0-1 1.2-.5 3.5.5 2.8.2 4.3-1.9 7.3-2.8 4.1-3 5.2-1.3 5.2.7 0 2.6-2.5 4.2-5.6zm13.1 1c-.7-1.8-.8-1.8-1.5.1a13 13 0 0 0-1 3.5c0 1.2.3 1.2 1.6-.2 1-1 1.4-2.3 1-3.4zm23.5-1c0-2.9-1-3-3.3-.4-3 3.6-1.7 7.3 1.5 4.4 1-1 1.8-2.7 1.8-4zm-46.2.5c-1.2-5.4-.5-7.1 1.3-3.4.8 1.7 2 3 2.9 3 2.1 0 2.4-4.8.5-8.8a23.9 23.9 0 0 1-1-14.4c1.4-4.4-1.3-2.3-3.3 2.5-1.7 3.9-1.9 4.8-.7 5 1.9.5 1.9.5-.6 5.4-1.9 3.7-2 4.6-.9 8.7 1.3 4.8 1.9 6.1 2.4 6.1.2 0 0-1.8-.6-4.1zm29.8-6.6c-1.2-1.2-1.8.8-1 3.4l.8 2.8.4-2.8c.2-1.6 0-3.1-.2-3.4zm-9.6 2.2c0-.8-.5-1.5-1-1.5s-1 .7-1 1.5.4 1.5 1 1.5 1-.6 1-1.5zm-8.4-11.2c-1.1-1.1-1.9.6-1 2.4.7 1.7.7 1.7 1.1 0 .3-1 .2-2.1-.1-2.4zm-4.6-1.3c0-1-.5-2-1-2s-1 1-1 2c0 1.1.4 2 1 2s1-.9 1-2zm-6.6-9.6c1-2.4.7-7.2-.4-7.9-.6-.4-1 .8-1 2.9 0 1.9-.3 4.2-.6 5-.4 1-.2 1.6.4 1.6s1.2-.7 1.6-1.6zm-13.1-10.1c.6-3.4-.6-4.6-1.7-1.6-.6 1.4.1 6 .8 5.1.2-.1.6-1.8.9-3.5zM123 226.2c.1-1.7 2.8-4.3 3.5-3.2.4.6.1 1.7-.5 2.5-1.3 1.6-3 2-3 .7zm529.8 0c-5.5-.4-7-1-5.8-2.3 1.3-1.3 12.5 0 12 1.4-.4 1.3-1.1 1.4-6.2 1zm-193.4-1.5c.3-.7 2.1-1.2 4.3-1.2 2.2 0 4 .5 4.2 1.2.3.9-1 1.3-4.2 1.3s-4.6-.4-4.3-1.3zm-368-1.7c.4-.6 1.6-1 2.8-1 3 0 10.8-4 10.8-5.6 0-2.3-3-4.3-7.5-5-2.8-.4-4.5-1.2-4.5-2 0-1 .8-1.2 2.9-.8 2.5.5 3 .2 3.3-1.8l.4-2.3 1.1 2.6a9.1 9.1 0 0 0 4.2 4c6 2.6 3.2 9.3-4.8 11.7-4.8 1.4-9.5 1.5-8.6.2zm196.7-.3c0-1.5 2.8-2.7 6.2-2.7 1 0 1.8.6 1.8 1.5s-1 1.5-2.4 1.5-3.2.2-4 .6c-1 .4-1.6 0-1.6-1zm-244.7-.9c-.5-.7-.3-1.4.4-1.6 1.4-.5 1.5-3.2.1-3.2-.5 0-1-.7-1-1.6s.4-1.3.9-1c.8.5 2.2-20.5 2.5-37.9 0-5.6.6-9 1.3-9.3 1.6-.5 2.5 5.8 1.8 12.5A200.1 200.1 0 0 0 48 220c-.7 2.7-3.4 3.8-4.6 1.8zM252 219c-3-2.3-2-3.8 1.5-2.2 1.6.7 3.3.8 4.9.2 1.4-.6 5.8-.6 10.8 0 9 .9 11.8 1.6 11.8 3.2 0 .6-2.4.8-6.8.3-10-1-15.5-1.1-17.7-.3-1.3.5-2.9 0-4.5-1.2zm301.9 1.3c-1-1 .1-2.3 1.8-2.3.8 0 1.5.6 1.5 1.5 0 1.5-2.2 2-3.3.8zm12.3-1.6c0-1 1.4-1.7 3.7-2 5.7-1 14.3-.9 14.3.2 0 1.5-1 1.8-9.8 2.5-6.8.6-8.2.5-8.2-.7zm-389.7-.6c-.9-1.4.1-1.8 6.5-2.6 3-.3 6.8-1.3 8.4-2 1.5-.9 4.6-1.5 6.7-1.5s5.3-.8 6.9-1.7c2.4-1.4 3-1.5 4.4-.3 1.5 1.2 1.5 1.4-.6 2.6-1.3.7-3.3 1.3-4.4 1.3a14 14 0 0 0-4.8 1.6c-1.6.8-3.5 1.5-4.2 1.5s-1.5.5-1.7 1.2c-.4 1-1 1-3-.1-2.5-1.3-8-1.1-12 .4-1 .3-1.9.2-2.2-.4zm62.2-.2c-1-.6-1.7-1.6-1.7-2.3 0-.7-1.1-2.3-2.4-3.5-2.2-2-3-2.2-9.5-1.6-4.8.5-7.2.4-7.2-.3 0-1.2 8.4-3.2 13-3.2 3 0 7.5 3.7 8.6 7 .5 1.6 1.6 2 5 2 4.7 0 6 1.3 2.2 2.3-3.2 1-6 .8-8-.4zm-108.8-.6c-2-.2-4.4-.8-5.5-1.3a18 18 0 0 0-4.8-1.2c-1.5-.2-2.7-.8-2.5-1.3a1 1 0 0 1 1.3-.7c.5.2 3.2.5 6 .8 9.4.9 11.5 1.4 11.5 3 0 .7-.6 1.3-1.3 1.2l-4.7-.5zm297.2-.6c0-2 4.2-5.6 7.8-6.7 4.8-1.4 4 1-1.6 4.5-6.2 3.8-6.2 3.9-6.2 2.2zm183.3.1c-1.8-.5-3.2-1.6-3.2-2.4 0-1.7.9-1.8 4.7-.4 3 1.2 11.3.4 11.3-1.1 0-.5-.8-1-1.8-1s-4.2-.9-7.2-2a44 44 0 0 0-9.2-2c-3.5 0-5.8-1.3-4-2.3.3-.2 3.6 0 7.2.6l9 1.1c1.4.1 3.6.8 5 1.6s3.8 1.7 5.4 2c3.8.8 4.7 3 1.1 3-1.4 0-4.4 1-6.5 2-4.2 2.2-6.7 2.4-11.8 1zm-252.4-2c0-2.4 7.1-10.6 9.8-11.3 3.3-.8 9.7-4.9 13.7-8.7a12 12 0 0 1 3.6-2.8c.4 0 1.2-1.4 2-3 1.3-3.3 3.7-5.7 4.6-4.7.4.4-.2 2.2-1.2 4.1-1.5 2.8-1.6 3.8-.7 4.7 1.7 1.7 1.6 2.9-.8 9.3-1.6 4.2-2.6 5.6-4 5.6-3.1 0-3.5-2.9-.8-5.9 1.5-1.6 2.3-3.5 2-5-.3-2.2-.4-2.2-4.2 1.2-2.1 2-6.3 4.7-9.4 6.2-3.2 1.5-6.4 4-7.7 5.8-3.4 5-6.9 7.2-6.9 4.5zm21-3.2c0-.8.7-1.7 1.5-2 1-.4 1.5 0 1.5 1.4 0 1-.6 2-1.5 2-.8 0-1.5-.7-1.5-1.4zm21.6-.5c-.6-1 7.5-7.4 8.3-6.6.6.6-3.7 5.3-6 6.6-1 .5-2 .5-2.3 0zm13.5-1.5c0-1.6 2.7-4.2 3.6-3.4.7.8-1.5 4.8-2.7 4.8-.5 0-1-.7-1-1.4zM120 209c0-.6.4-1 1-1s1 .4 1 1-.5 1-1 1-1-.5-1-1zm72.5-.1c-1-1.5.1-2.3 2-1.6 1 .4 1.4 1.1 1 1.7-.8 1.3-2.2 1.2-3-.1zm-44.5-.8c0-1.6 3.2-2.2 7.7-1.6 6.3 1 5.3 2.5-1.7 2.5-3.3 0-6-.4-6-1zm36.7.2c-.8-.8.1-2.3 1.4-2.3.5 0 1 .6 1 1.5 0 1.5-1.3 2-2.4.8zm261.5-.2c0-2 6.1-4.8 12.9-6 4-.6 7.6-1 8-.6 1 1.1-1.7 2.5-6.5 3-2.7.4-6.3 1.6-8 2.6-3.3 2-6.4 2.5-6.4 1zm-272.7-1.3a21 21 0 0 0-7.2-.3c-5.4.7-5.5-.7-.4-3 2.8-1.2 4.4-1.5 5.7-.7l4.7 2c1.6.7 2.5 1.6 2.2 2.2-.7 1.1-1 1.1-5-.2zm-41-.9c-.6-1 .1-1.3 1.8-1 .4 0 1.5-.6 2.3-1.4.8-.9 2.4-1.5 3.4-1.5s2-.6 2.2-1.2c.2-.6 1-1 1.8-.7.9.3.1 1.2-2.1 2.6-5 3-8.7 4.4-9.4 3.2zm-55-1.4a14 14 0 0 0-5.2-1.5c-2.8 0-3.1-1.7-.4-2.5 2-.6 9.3 2.5 10.5 4.4 1 1.5-1.5 1.3-4.8-.4zm23.5-4.8c0-2.6.4-9 1-14.5l1.3-15.5.3-5.8h-2.9c-3.6 0-3.2-2.3.5-2.8 2.2-.2 2.7-1 3.3-4.2 1-5.6 2.5-5 2.5 1.1 0 4.6.1 5 2 4.4 1.4-.4 2-.1 2 .9 0 .8-1 1.6-2.3 1.8-2.7.4-3.3 3.6-4.6 23.7a58 58 0 0 1-2 14.4c-.8.9-1.1 0-1.1-3.5zm214.6 2.3c-.3-.5 1.6-2 4.2-3.2a46 46 0 0 0 8.6-5.6c2-1.8 4.2-3.2 4.7-3.2 3.7 0-3.6 7.8-10.4 11-4.4 2.2-6.2 2.4-7 1zm101.4-2.5c-1.4-3-.5-4.4 1.6-2.6 1.1 1 2.2.5 5.5-2.5 4.9-4.4 7-4.2 3.6.4-2 3-7.5 7.2-9 7.2-.4 0-1.1-1.2-1.7-2.5zm-362.8-1.8c-1.8-.6-3.3-1.4-3.3-1.9 0-1.4 3.3-1 7.5 1.1 3.4 1.6 3.7 1.9 1.5 1.9-1.3 0-4-.5-5.7-1zm94.8-2.2c0-.9.4-1.5 1-1.5.4 0 2-2.5 3.6-5.6 3-6.2 6.5-9.5 10.1-9.5 1.5 0 3.7-1.2 5.3-3 3-3.1 5-3.8 5-1.6 0 2.2-4.2 5.3-10 7.4-5 1.8-5.6 2.3-6.4 5.9-1.2 5.6-1.9 6.6-5.4 8-2.8 1.2-3.2 1.2-3.2-.1zm398.9.8c-3.2-3.2 3.7-9 11.8-10 5-.6 5.9-.4 8 1.6 1.8 1.7 3 2.1 5.4 1.6 1.6-.4 3.2-.2 3.5.3 1 1.5-5.1 3.5-9 2.8a45 45 0 0 0-9.5 0c-4.5.5-6 1-6.4 2.5-.6 1.8-2.5 2.5-3.8 1.2zm15.8-7.3c-.6-.6-2.1-.7-4-.1-3 .9-3 .9 1 1 2.6 0 3.6-.3 3-1zm-495-2.1-.3-9.5-3.7.4c-2.2.2-3.8-.1-3.8-.8 0-.6.8-1 1.8-1s3-.7 4.4-1.4c4.6-2.4 5.2-1 4.5 10-.9 13.1-2.5 14.4-2.9 2.3zm194.4 7.1c0-3.9 11-12.5 12.6-9.8.4.6-.1 1.6-1.1 2.2-1 .6-2.8 2-4 3.1-3.2 3.3-7.5 5.9-7.5 4.5zm197.6 0c-1-1.5.1-2.7 2.7-3.3l4-1.2c3.1-1.3 2 1.4-1.5 3.5-3.7 2.2-4.4 2.4-5.2 1zm-66.2-1.4c-.3-1 .1-2.6 1.2-3.8 1.8-2 1.8-2-.5-3.8-1.5-1.2-2.2-2.4-1.7-3.4.7-1.9 3.2-2.2 4.2-.6.4.6 1.9.8 3.7.4l3-.7-2.1 2.3a8 8 0 0 0-2.2 4.5c0 1.1-1 3.1-2.4 4.4-2.2 2.1-2.6 2.2-3.2.7zm-366-.5c-.3-.4-.2-5 .1-10 .6-8.5 1.6-11.2 3-7.7.3.9 1.4 1.5 2.4 1.5 2 0 3.3 1.4 2.3 2.3-.3.4-1.7.2-3-.3l-2.5-1 .3 6.8c.3 6.1.5 6.8 2.6 7 1.2.3 2 .8 1.7 1.3-.7 1.2-6.2 1.3-6.9.1zm-11.8-1.7c-1.4-.8-5.7-2.2-9.5-3.2-5.6-1.5-6.9-2.2-7.1-4-.4-2.7.5-2.8 3.6-.7 1.9 1.3 2.8 1.4 6 .3a28 28 0 0 0 6-3c2.6-2 6.2-2.5 6.2-1 0 .6-2 2-4.5 3.3-2.5 1.2-4.5 2.6-4.5 3 0 .6 2.3 1.9 5 3 5 2.1 6.5 3.9 3.3 3.8-1 0-3-.7-4.5-1.5zm457.5.1c0-1.7 3.5-3 5.1-2 .8.5.6 1.2-.7 2.1-2.4 1.8-4.4 1.7-4.4 0zM209 189.2a156 156 0 0 1 22.2-11.3c.4 0 2.4-1 4.4-2.5 3.3-2.2 4.3-2.4 10.4-1.8 4.7.4 8.6.1 13.4-1 3.6-1 9-1.7 11.9-1.7 2.9 0 9-.2 13.5-.5 5-.4 9.4-.2 11.3.4 2.2.8 3.8.8 5.8 0 1.5-.6 7.2-1.2 12.7-1.4 5.5 0 10.7-.5 11.6-.9 1-.4 2-.3 2.3.3 1 1.6-2.3 2.3-16 3.3-14.6 1.2-17 1.3-24 .9-7.8-.5-24.5 1-29.6 2.6-3.3 1-6.8 1.3-12 .8-7.3-.6-7.4-.5-12.3 3a22 22 0 0 1-6.5 3.6 40 40 0 0 0-8.5 3.5c-6.7 3.3-10.6 4.3-10.6 2.7zm379-.6c-1-.8-1.7-2-1.7-2.9 0-.8-.7-2-1.5-2.8-2-1.5-2-3 0-3 .8 0 1.2-.5.8-1.5-.3-.8-1.4-1.5-2.5-1.5-2.1 0-2.2-.3-.8-3 .8-1.5.8-2.5 0-3.4-.6-.7-1-2.8-.8-4.7.2-2.6-.1-3.3-1.3-3-.8.3-4.1.5-7.3.5-4.6.1-6.2.6-7 2-1 1.4-.8 2 .6 2.7 2.3 1.4 2.2 3-.1 3-1 0-2.2.8-2.4 1.9-.5 1.7-1.6 2-9.9 2.2-5.2.2-10.2.2-11.1 0-3.3-.7-1.8-2.2 2-2.2 7.8 0 16.3-1.2 16-2.4-.3-.6.4-2.5 1.4-4.3l1.7-3.2-4.4-.3c-5.3-.3-6.4-2.1-1.7-2.6 2.4-.2 3.2-.7 3-2-.1-1 .4-1.7 1.2-1.7.9 0 1.7 1 1.9 2.3.3 2.5 4.1 3.2 4.1.7 0-.8.7-1.5 1.5-1.5.9 0 1.5.7 1.5 1.5 0 1.1 1.2 1.5 4.5 1.5 5.2 0 6.1-1.5 5.7-9.1-.5-7.6 1.5-6.6 2.3 1.2.4 3.8 1.8 10 3.1 13.7 1.5 4.1 2.3 7.8 2 9.4-.6 2.3.4 8 2.1 12.4.7 1.8-.6 1.8-2.9 0zm-165.2-.5c-.4-.6.3-2 1.5-3 1.2-1.2 2-2.4 1.5-2.8-.3-.4 0-1.3.6-2.2 1-1.3.8-1.4-1.7-.9-2 .4-3.6 0-4.9-1-1.7-1.6-2-1.6-4.9 0-3.3 2-5.2 1.2-4.2-1.6 1.4-3.5 12.1-3.3 16.7.3 2.2 1.7 2.7 1.8 5 .6 3.6-1.9 6.2-2.3 6.5-1 .1.5-1 1.3-2.4 1.7-1.5.3-5 3-7.9 5.8-3 3-5.5 4.7-5.8 4.1zm11.4-.6c0-1 .4-1.6 1-1.4.6.2 1.1.8 1.1 1.4s-.5 1-1 1.3c-.7.2-1.1-.4-1.1-1.3zm-26.3-2.7c2.2-2.3 3.5-3 4.3-2.2 1.2 1.2-1.4 3.8-5 4.8-2.5.7-2.4.6.7-2.6zm39.3 2.2c0-.6 2.5-3 5.6-5.3 10.3-7.8 9.3-7.4 12.6-5.5 3.5 2 6 2.2 9.1.6a51 51 0 0 1 21.4.3c.7.6 1.3 2 1.3 3 0 1.8.5 2 3.3 1.5 1.7-.4 3.7-1.4 4.2-2.3l3-4.2c3.6-4.5 2.4-13-1.5-10.7-.4.3-1-.1-1.4-1-.5-1.5.4-1.9 3.8-1.5 1 .1 3-1 4.3-2.6l2.4-2.9-.5 2.5-1.2 4.8c-.4 1.6-.2 2.2.8 2.2 3.3 0 6.3-6 3.8-7.5-1.6-1-1.2-3.6.8-5 2-1.6 11.2-2 11.2-.6 0 1-3.5 2.1-7.3 2.1-2.2 0-2.7.4-2.5 1.8.3 1.3 1.3 1.7 3.6 1.6 2.2-.1 3.2.3 3.2 1.2 0 1-1 1.4-3 1.4-2.3 0-3 .5-3 2s.7 2 2.5 2c1.4 0 2.5.5 2.5 1 0 .6-1.6 1-3.5 1-2 0-3.5.5-3.5 1 0 .6 1.1 1 2.5 1 1.6 0 2.5.6 2.5 1.5 0 1-1 1.5-2.6 1.5-2.3 0-2.5.3-1.9 3 .7 3-.6 4.2-2 2-.6-.9-7.1-.8-7.9.2-.9 1-2.3 6.8-1.8 7.3 2 2 5.8-.5 6.1-4 .2-2 2.6-.8 3 1.6.1 1.8-.5 2.9-2.7 4.2-3.6 2.1-7 2.3-7.8.3-1-2.5-5-2.7-9.4-.4-4.7 2.4-6.7 1.6-3-1.2 3.4-2.6 1.5-2.4-4.5.6-5.8 2.8-6.6 3-5.9 1 .3-.8 2.2-2 4.2-2.7 4.4-1.4 8.2-3.7 8.2-5 0-1.5-18.6-.9-20.7.7-2.4 1.8-6.7 1.8-10.4 0-2.9-1.6-3-1.5-9.3 3.4-6.2 5-8.6 6-8.6 4zm69.8-14.8c.2-.9-.4-1.1-2-.8l-3 .5c-.5 0-.8.5-.8 1.1 0 1.5 5.3.7 5.8-.8zm-1-4c.2-.7-.5-1.3-1.7-1.3-2 0-2.7 1-1.4 2.4 1 1 2.6.3 3-1.2zm-218 16.7c0-.5.9-1.3 1.8-1.6 1-.3 3.2-1.2 4.8-2 16.9-7.4 19.8-8.3 24.4-8 5.2.2 6.6 2.2 2.2 3.3a75 75 0 0 0-10.1 4.5c-8 4.1-9 4.4-9 2.8 0-.6 3-2.5 6.7-4.2 7.7-3.5 7.8-3.6 7-4.3-.7-.8-11.1 3.3-13.9 5.4a44 44 0 0 1-13 5.1c-.5 0-.8-.4-.8-1zm44.1-.3c2.9-2.7 10.8-6.7 11.4-5.8.7 1.1-1.1 2.7-6 5.2-4.7 2.4-7.6 2.7-5.4.6zm199.3.2c-.7-.8-.8-1.6-.1-2.4 1-1.4-.2-1.8-8.3-3-4.1-.6-4.8-1-4.8-3 0-3 2.4-4.8 5.5-4 3.1.7 3.3 3.5.3 3.7-1.3 0 1.1.6 5.2 1.3 7.7 1.3 15.6 1 17.6-.6.7-.5 2.1-.1 3.7 1.1 1.4 1.2 4 2 6 2 3 0 3.6.4 4 2.8.3 1.5.4 3 .2 3.2-1 1-8.5-2.4-8.5-3.9 0-1.3-1.3-1.5-9.6-1.2-8 .2-9.3.5-7.8 1.6 1.8 1.3 1.2 3.5-1 3.5-.6 0-1.7-.5-2.4-1.1zM335.1 181c0-1 13.8-8 15.8-8 2.2 0 1.3 2-1.5 3.1-1.6.6-4.9 2.2-7.4 3.5-5 2.5-6.9 3-6.9 1.4zm107.6-1c-1.3-2.1 1.6-4.2 5.4-3.9 4.3.4 4.7 2.2.6 2.7a10 10 0 0 0-4.2 1.3c-.7.6-1.4.6-1.8-.1zm-362.2-3c-.3-.5 1.5-1.7 4-2.5 4.7-1.6 7.3-.5 2.7 1.1l-4.4 1.7c-1 .4-2 .2-2.3-.3zm317.9-.8c-2-.8-1.5-2.4.7-2.4 2.8 0 5.1 1.1 4.5 2.1-.6 1-3.1 1.1-5.2.3zm170.3-.4c-1-1.6 1.2-3.7 2.6-2.3.7.7.6 1.4-.4 2.2-1.1 1-1.7 1-2.2.1zm7.1-.9c-.3-.4.1-1.1 1-1.4 1.5-.6 2.8.6 1.8 1.7-1 1-2.1.8-2.8-.3zm-76.5-1.3c0-1.1-1.3-1.9-3.9-2.3-5.4-.9-6.7-1.4-5.6-2.3 1.2-1.1 15.4-.2 15.4 1 0 .4-1 .8-2 .8-1.2 0-2.4 1-3 2.3-.6 1.6-.9 1.8-1 .5zm-420.4-2.3c.7-.8 2.4-1.5 3.7-1.5s2.3-.3 2.3-.8c0-.8-7.8-3.2-10.5-3.2-3.8 0-19.3-8.8-17.9-10.2.3-.3 3 1 6.2 2.8 6 3.7 8.5 3.7 4 0-1.6-1.2-2.5-2.5-2.1-2.9 1.4-1.4 4-.6 5.8 2 5 6.8 4.6 6.5 13.4 6.8 6 .2 8.8.7 9.9 1.9 1.4 1.4 1.3 1.6-1.3 2.1-1.6.4-5.2 1.5-8 2.6-6 2.3-7.1 2.4-5.5.4zm345.8.6c-.6-1 .6-1.4 7.7-2.5 3.2-.6 3.8-1 3.8-3.1 0-2-.5-2.5-2.6-2.5-3 0-6.4-1.6-6.4-3 0-.5 1.8-1 4-1 2.8 0 4.3.6 5.1 2 .7 1 1.8 1.6 2.5 1.3 1-.4 1.3.5 1 3.7-.2 2.2-.6 4.4-1 4.7-1 1-13.5 1.4-14.1.4zm22.5 0c0-.6.4-1 1-1s.8.4.5 1c-.4.5-.8 1-1 1s-.5-.5-.5-1zm-269.5-.7c-2.7-2.7 1.2-5.6 10.3-7.9 4.9-1.2 7.2-2.4 9.3-4.7 3.8-4.4 5.6-2.5 2.2 2.4-2.4 3.7-3.2 4-12.3 5.4-2.7.4-5.2 1.6-6.5 3-1.3 1.4-2.6 2.2-3 1.8zm189 0c-2-2 .2-3 8.7-4.2 5-.6 10.5-1.2 12-1.2 4.6 0 2.6 2.3-2.3 2.8-2.5.2-6.7 1-9.4 1.8-5.4 1.6-7.9 1.8-9 .8zm-34.6-1.3c0-1.2 2.6-2 6.6-2 2.4 0 3.4.4 3.4 1.4 0 1.2-1.2 1.5-5 1.5-2.7 0-5-.4-5-.9zm206.9-.7c-1-.3-1.8-1.2-1.8-2 0-1 .7-1.3 1.8-1 5.9 1.8 7.2 1.8 7.8.2.4-.9 0-2.3-.6-3.1-1-1.2-1-2 0-4.1l1.1-2.6 2.5 2.7c2 2.1 2.3 3 1.4 4.1-2 2.4-.5 4.2 3 3.6 2.5-.3 3.2 0 2.8 1-.3 1-2.6 1.4-8.3 1.5-4.4 0-8.8 0-9.7-.3zm-134.9-2c-4.7-.8-5.3-1.2-4-2.9 1.5-1.7 11-2 11-.5 0 .6 1 1 2 1 2.8 0 3.4 1.7.8 2.4-2.4.6-5.7.6-9.8 0zm-111.6-2.8c-.5-1.1-1.2-1.2-3-.5-3.1 1.1-4.4.5-4.4-2.1 0-1.7-.8-2-6.5-2-3.5 0-6.7-.5-7-1-.6-.8 4.1-1 16.4-.5l17 .7-.5-3c-.5-2.5-.3-3.2.9-3.2 1.9 0 3 3 2 5.5-.5 1.6-.2 1.7 2.8 1.3 3.4-.5 7.3.7 6.5 2-.4.8-3.3.7-14.6-.2-3-.2-4.4-.2-3 .1 6.1 1.2 4.5 4.3-2.3 4.3-2.4 0-4-.5-4.3-1.4zm73.2.6c-.3-.5-2.1-1.2-4-1.6-5-1-5.5-2.6-.9-2.6 3.8 0 8.3 2.2 8.3 4.1 0 1.2-2.7 1.2-3.4 0zm83.9-.3c-.3-.4 0-1 .5-1.3a91 91 0 0 1 22 .7c0 1-.6 1-12.3 1.1-5.4.1-10-.2-10.2-.5zm38.8-.6c-1.7-.6-1.5-3.3.2-3.3 1.5 0 3 2.7 1.8 3.4-.4.2-1.3.2-2 0zm9.3 0c-4.8-1-5.1-1.3-3-2.9 1.6-1.2 1.8-1.7.7-3.4-1.7-2.8-1.6-3 2.7-3 4.2 0 6.3 1.6 3.6 2.7-1.3.5-1.5 1.4-1 4 .3 1.8.2 3.3-.2 3.2l-2.8-.5zM322.1 163c0-.5.4-1 1-1s1 .5 1 1a1 1 0 0 1-2 0zm153.3-.2c.3-.7 1-1.2 1.6-1.2l4.2.3c4.6.2 2.6 2.1-2.2 2.1-2.7 0-3.9-.4-3.6-1.2zm182.9-1c0-1 3.8-2.5 10.2-4.3a92 92 0 0 0 15.4-5.7c2.8-1.5 6.2-2.8 7.6-2.8 1.4 0 4-.5 5.8-1.1 2.5-.9 3.4-.9 4 .2.7 1 1.4 1 4 0 4.4-1.9 5.1-3.5 1.2-2.8-1.8.4-3.2.5-3.2.3 0-1 9.5-4.8 12.5-4.9 2.1 0 3.5-.6 3.5-1.3 0-1.4 4.1-4.6 4.9-3.9.2.3-.2 1.2-1 2.1-1.2 1.5-1.1 1.6 1.1 1 1.4-.5 4.2-1.6 6.3-2.6s3.7-1.4 3.7-1c0 .5-2.6 2-5.7 3.5a322 322 0 0 0-8.6 4c-1.6.9-3.6 1.5-4.6 1.5-1 0-2.6 1-3.7 2.2a17.2 17.2 0 0 1-12.2 4.8c-2.6 0-4.5.7-5.7 2-1.9 2.1-4.5 2.7-4.5 1 0-.4.8-1.3 1.8-1.9 1.6-1 1.5-1-.4-1-1.2 0-3.8 1.3-6 3-2 1.6-4.9 3.2-6.3 3.5-1.4.3-6.2 1.6-10.7 3-9.4 2.8-9.4 2.8-9.4 1.1zm-243.7-.4c-4.2-1-5-1.4-3.7-2.2 1.9-1.2 8-.1 8.6 1.4.6 1.5-.8 1.7-4.9.8zm125.3 0c-1.2-1.2-.7-2.4.8-2.4s1.7-.5 2-4.5c0-1.2.6-1.9 1.6-1.7 1 .1 2.2-.4 3-1.3 1.3-1.6 4-2 4-.6 0 .5 2.4 1.2 5.4 1.6 8.6 1 6.5 2.5-3.6 2.5-7.9 0-9 .2-8.5 1.6 1.2 3.1-2.6 7-4.7 4.8zM246.6 159c-.4-.6-3.1-1-6-1-3 0-5.7-.5-6.1-1.1s-2-1-3.5-.8c-1.6.2-3-.1-3.2-.7-.5-1.7 9-1.7 15.8 0 3.6 1 7 1.3 7.5 1 .6-.4 2.7-.3 4.8 0l3.6.8-3.5 1c-6.7 1.7-8.7 2-9.4.8zm197.8.2c-4.6-.8-2-2.3 4-2.3 3.5 0 5.8.4 5.2.9-1.2 1.1-6.3 1.9-9.2 1.4zm12.8-.2c0-.6 1.9-1 4.2-1 2.4 0 5.1 0 6.2-.2 1-.2 2 .2 2.3.9.3.9-1.3 1.2-6.2 1.2-3.6 0-6.5-.4-6.5-1zm-126.8-1.3c-1-1.6.5-2 6.1-2 3 0 5.8-.3 6.1-.8.4-.6-.2-1-1.3-1s-2.7-.6-3.8-1.4c-1.9-1.5-1.9-1.5 0-1.5 1.2 0 4.7.6 8 1.3l5.9 1.3-3.9 2.3a18.5 18.5 0 0 1-10.2 2.5c-3.5.1-6.6-.2-6.9-.7zm25.4.4c-5.6-.3-7.4-1.5-4-2.6 1-.3 4.6-.4 8-.3 5.2.2 6.5-.1 8.5-2 2-1.8 3.2-2.1 5.6-1.7 2.4.5 3.3.3 3.8-1 .3-.8 1.2-1.6 2-1.6 2.9 0 2.4 2.4-1.2 6-4.3 4.4-3.5 4.3-22.7 3.2zm75 .2c-.2-.3-.3-1.2 0-2 .4-1 .9-1.1 2-.3.7.6 1 1.6.8 2-.7 1-1.9 1.2-2.7.3zm45 0c-1-1.1.4-2.4 2.9-2.4 1.3 0 2.6.4 3 1 .9 1.5-4.4 2.8-5.8 1.4zm-83.7-1.9c0-.8.5-1.5 1-1.5s1 .7 1 1.5-.4 1.5-1 1.5-1-.6-1-1.5zm-210.1-1c-1.4-.7-3.2-1.4-4-1.4-.8 0-2.9-.8-4.5-1.7-3.3-1.7-11.3-3-24-4-8.3-.7-21.7-4.3-22.3-6.1-.7-2 2.8-2.1 8 0 2.9 1 8.6 2.4 12.8 2.8a150.3 150.3 0 0 1 38.3 8.6c2 .7 1.8 2.7-.4 3a8 8 0 0 1-4-1.2zm305.2.5c0-.5.7-1 1.5-1s1.5.5 1.5 1-.7 1-1.5 1-1.5-.4-1.5-1zm-437.7-1.2a5 5 0 0 1-.2-3.3c.8-2.1-1-6.5-2.8-6.5-.8 0-1.6 1.2-1.8 2.8-.2 2-1 2.8-2.5 3-1.8.3-2.3-.1-2.3-2 0-4 2.7-6.8 6.3-6.5 3.2.2 3.2.1 3.5-4.5.2-2.6.8-4.8 1.4-4.8.6 0 .9 1.3.6 3-.5 3.5.6 4 1.7.8l.8-2.3.4 2.2c.2 1.2-.3 3.3-1.2 4.7-.9 1.3-2 5.3-2.4 8.8-.5 4.3-1 5.8-1.5 4.6zm160 0c-2-1.2-1.9-4.4.2-5.2 2-.7 10.3 3.1 10.3 4.8 0 1.3-8.3 1.6-10.6.3zm195.9-.3c-1.8-1.2-2.6-1.3-4.1-.3-1.6 1-2.3.9-3.7-.6-1.3-1.2-2.6-1.5-4.4-1-5.6 1.4-10 1.6-10 .5 0-.6 1-1 2.5-1a13 13 0 0 0 5.2-1.4 42 42 0 0 1 15.7-.6c1.3.3 4.5.5 10.8.7 2.6.1 4.7.6 4.7 1.1 0 1.4-5.5 2.1-9 1.1-3.1-.9-6-.2-3.2.8.7.2 1.2.8 1.2 1.3 0 1.4-3.3 1-5.7-.6zm-156-.6c-.3-.6 0-1.6.6-2.2.8-.9 1.3-.8 2 .3 1 1.5.5 3-1 3-.4 0-1.1-.5-1.5-1zm15.1 0c-.4-.5-.4-1.2-.2-1.5.8-.8 11.8.9 11.8 1.8 0 1.2-10.8 1-11.6-.2zm170.7-.3c0-1.5-2.2-2-8-1.6-2.5 0-2.5 0-.6-1.4 2.7-2.1 7.5-2 11 .4 3.7 2.4 6.6 2.6 6.6.4 0-1.2.6-1.4 2.4-1 1.3.4 8.1.7 15 .7 11.1 0 12.6.3 12.6 1.7 0 1.6-2 1.8-19.5 2-17 .3-19.5.1-19.5-1.2zm-376.6-4.8c-.7-5.2.8-7.3 2.3-3.3 1.3 3.4 1 6.7-.6 7.2-.6.3-1.3-1.4-1.7-3.9zm222.5 3.1a945 945 0 0 0-16.3-1.4c-8.5-.7-12.3-2.5-5.3-2.5 2.7 0 3.3-.3 2.9-1.5-.4-1 0-1.5 1.4-1.5 1.1 0 2.2.9 2.5 2 .4 1.6 1.8 2 10.4 2.5 13.2.9 13.4.9 13.5 2 0 1.3-.5 1.3-9.1.4zm30.1 0c-13.8-1-13.4-2.6.5-2 8.5.3 11.5 0 11-.7-.4-.7-2.5-1.2-4.6-1.2-2.2 0-4.2-.4-4.5-1-1-1.5 4.1-2.2 7.9-1a49.8 49.8 0 0 0 18.5.6c2.6-1.6-1.1-3.6-6.6-3.6-3.4 0-5.2-.4-4.8-1 .8-1.3 10-1.3 12.6 0 1 .6 1.9 2 1.9 3 0 2.2 1.6 2.7 2.3.8.3-1 .9-1 2.6 0 2.8 1.6 3.1 1.6 3.1-.7 0-2 1.8-3 5.5-3 2.2 0 4.2-2 7.2-6.7.8-1.5 1.4-1.6 2.3-.7 1 1 .5 2.2-2.5 5.8-3 3.6-4.4 4.5-6.9 4.6-3 0-3 .1-.9 1.1 3.2 1.6 3 4-.2 3.2-1.4-.3-4 0-5.6.7-2.3 1-3.3 1-3.8 0-.5-.7-3.8-1-10-.9-5 .1-8.6.6-7.9 1 .7.4 2.6.8 4.2.8s2.6.4 2.2.8c-1 1-11.3 1-23.5 0zm-70.5-1.5c-1.2-1.3-.7-3.4.8-3.4.9 0 1.5 1 1.5 2 0 2-1 2.6-2.3 1.4zm299.5-2.3c0-1 8-8 9.2-8 1.9 0 .6 1.9-3.6 5.3-4.6 3.8-5.6 4.3-5.6 2.7zm-83.3-.8c-2.7-.7-2-2.3 1-2.4 2.7 0 2.7 0 .3-.7-4.4-1.3-3.6-3.2 1.3-3.2 5.5 0 6.6 1.4 3.6 4.6-2.3 2.4-2.9 2.6-6.2 1.7zm204.4-.8c0-1.6 6.5-4 8-3 1.7 1-.2 2.6-4.4 3.5-2.7.6-3.6.5-3.6-.5zm129-1a14.8 14.8 0 0 0-6.8-2c-1.2.2-2.1 0-2.1-.5s.6-1 1.5-1 1.5-.4 1.5-.9c0-1.2-2.6-2-6.5-2-3 0-6.8-1.3-14.2-4.6-1.7-.8-3.6-1.5-4.2-1.5-.5 0-1.6-.5-2.3-1.2a21.6 21.6 0 0 0-13.1-4.1c-3.2 0-4.8-.4-4.8-1.3 0-.7.5-1.5 1-1.9.6-.3 1 0 1 .5 0 .8 1 1 3 .5 2-.4 5 .4 11.7 3.5a76 76 0 0 0 24.7 8.5c4.6.5 6 1.1 6.4 2.5.3 1.1 1 1.7 1.9 1.3.7-.2 1.4 0 1.4.5 0 .6 1 1.3 2.4 1.6 2.8.7 5.6 4.7 3.4 4.6a26 26 0 0 1-6-2.5zM217 144c0-3.3 4-8.6 7-9.4 3.3-.8 3.1.8-.5 4.2a15 15 0 0 0-3.5 4.1c0 .4 1.6 1.1 3.5 1.5 5.2 1 4.3 2.5-1.5 2.5-4.8 0-5 0-5-2.9zm147.1 2.6 1.6-5c1.7-4.8 3.4-6.2 3.4-2.6 0 2.5-2.7 8-4 8-.5 0-1-.2-1-.4zm53.6-1c-1-.5-4.2-.6-7.1-.3-4.7.6-5.5.4-6.4-1.3-.6-1-1-2.2-1-2.5 0-1 5.5-.6 6.5.3 1.2 1.2 9 2 21.5 2.4 5.4.1 9.5.7 9.5 1.2 0 1.4-20.7 1.6-23 .3zm74 .3c-.4-.5 0-1.3 1-1.6 1.9-.7 3 0 2 1.6-.8 1.3-2.2 1.3-3 0zm-214.6-.7c-2-.2-4.2-.6-5-1-3-1 2.1-2 6.4-1.1 2.2.4 6.2.8 8.8.8 2.5 0 5 .5 5.3 1 .6 1-7.8 1.2-15.5.3zm23.6 0c-.3-.3-.6-1.4-.6-2.3 0-1.9-2.8-3-7.7-3-1.8 0-3.5-.4-3.8-1-1-1.6-14.9-1.2-17.1.5-2.5 1.9-4.5 2-3.9.2.4-.9-.3-1.7-1.7-2-2.1-.6-2.2-.8-.7-2 1.4-1 1.5-1.5.2-3.2-3-4-2-4.6 7.7-3.9 5 .4 9 .3 9-.1 0-.5-.8-1.6-1.6-2.6-1-1-1.3-2.3-.9-3 .5-.8 1.2-.6 2.4.9 2.1 2.7 6 3.9 6 1.8 0-.8-.4-1.8-1-2.1-1.2-.7-.3-6.2 1.3-8.2 1.5-1.9 3-.5 1.8 1.7-1.6 3-1.1 4.8.5 2a16 16 0 0 0 1.4-6.5c0-4 2.9-10 5.8-12.2 4.2-3.3 4.4 0 .3 5.2-2 2.5-3 5-3 7.2 0 1.8-1 5.5-2.4 8.1-3.2 6.4-4 10.1-2.5 11.8 1.7 2.1.3 3-2.7 1.6-1.8-.8-2.4-1.7-2-2.8.5-1.3.1-1.5-1.7-1a43 43 0 0 1-7.2.7c-2.8.1-4 .4-2.8.6 2.8.6 3 2.3.3 2.3-1.1 0-2 .4-2 1 0 .9 6.8 1.5 28 2.6 5.8.3 11 1 11.4 1.5.6.6.2 1-1.2 1-1.1 0-2.4.4-2.8 1-.4.7-2 .9-3.5.6-1.6-.4-3-.2-3 .4 0 .5.5 1 1 1 .6 0 1 .6 1 1.4 0 1.6-1.1 2-2.3.9zm144.7 0c-2-.7-1.5-3 .8-3.8 2.3-.7 4 .1 4 2 0 1-2.5 2.9-3.4 2.4l-1.4-.5zm78 0c.2-.5 4.4-4.7 9.4-9.5 8.3-8 11.4-10.2 11.4-8 0 1.5-18 18.2-19.6 18.2-.9 0-1.4-.3-1.2-.7zM310 143.9c0-.5.5-1 1-1s.8.5.5 1c-.4.6-.8 1-1 1s-.5-.4-.5-1zm223.1.2c0-1.7 12.4-13.5 12.9-12.2.2.7-1.3 2.9-3.3 4.8-2 1.9-4.4 4.5-5.2 5.8-1.5 2.3-4.4 3.3-4.4 1.6zm-218-1.1c0-.5.4-1 1-1s1-.6 1-1.5 1-1.5 2.4-1.5c3.8 0 4 1.7.4 3.4-3.6 1.9-4.8 2-4.8.6zm-58-1.4c0-1.8 5.4-2.2 6.5-.6.3.6.2 1-.2 1.1l-3.6.5c-2 .4-2.8 0-2.8-1zm417.2.4c0-.5 1-1 2-1s2 .5 2 1c0 .6-.9 1-2 1s-2-.4-2-1zm-199.4-.7c-.2-.4.6-3.1 2-6 1.8-4.3 2.8-5.4 5.2-6 2.6-.4 3.2-1.3 4.7-6.1 1-3.4 2.8-6.6 4.3-7.8 3.8-3.2 4.8-1.7 1.2 1.8-3.2 3.1-4.1 6-1.9 5.6 3.6-.7-1.1 6.1-5.7 8.3-1.9.9-3.1 2.4-3.3 3.9-.7 4.7-5 9-6.5 6.3zm14.3-1.6c0-2.5 1.7-4.7 3.6-4.7 1 0 1 .9.1 3.5-1.2 4-3.7 4.8-3.7 1.2zm-258.5-.5c-4.3-4.7-.3-8.8 6.9-7.2a9 9 0 0 0 5.7-.1c2.5-1.3 9-.7 9.5 1 .3.8-.6 1.2-2.9 1.2-14.4 0-21.8 1-17.7 2.4 5.9 2 6.9 2.6 6.3 3.5-1 1.7-6 1.2-7.8-.8zm9.8 1c-1-1 1-2.2 3.5-2.2 3.4 0 6 1 6 2 0 .9-8.7 1-9.5.1zm156.4.2c-1.2-1.1.2-2.4 2.7-2.4 1.4 0 2.7-.4 3-1 .4-.5 1.9-1 3.4-1 1.4 0 3.8-.7 5.2-1.5 3.1-1.8 4-1.8 4-.1 0 1.4-5.7 4.1-10.5 5-1.7.3-4 .8-5 1.2s-2.4.2-2.8-.2zm38.3-1.4c0-1 .6-2 1.5-2 .8 0 1.5.7 1.5 1.4 0 .8-.7 1.7-1.5 2-1 .4-1.5 0-1.5-1.4zm249.6 1c-.8-1.3 6-4.2 9.2-3.8 3.7.5 2.5 2.2-2.6 3.5-5.7 1.5-5.8 1.5-6.6.3zM115 137.5c-.8-1-.8-1.6 0-2 1.3-1 3 .2 3 2s-1.4 1.8-3 0zm311.2.5c0-.5.4-1.2 1-1.6.5-.3 1 .1 1 1 0 .8-.5 1.5-1 1.5s-1-.4-1-1zm94-.5c-1.4-1.8-.5-3.6 1.8-3.6.8 0 2.4-.7 3.4-1.6 3.5-3.2 3.1-.4-.4 3-3 3-3.7 3.4-4.7 2.2zm179.1 0c0-1.2 1-1.6 4.2-1.6 4.8 0 4.2 1.6-1 2.6-2.5.5-3.2.3-3.2-1zm-376.2-.1-5.4-1c-6.5-1-3-1.9 6.7-1.6 10.1.3 13 .8 12.2 2.2-.6.8-10 1.1-13.5.4zm19-2c0-1 1-1.5 3-1.5 3.2 0 4 1.4 1.4 2.4s-4.4.7-4.4-.9zm-240.7-2.2a19.6 19.6 0 0 1-7.9-5.2c-1.4-2-3.7-3.2-10.9-5.2-5-1.5-11.8-3.1-15-3.7-6.2-1.2-16-5.2-18.9-7.9-2-1.8-2.4-5.3-.7-5.3.6 0 2.5 1.2 4.2 2.6 4.7 4 9.5 6 19.2 8.3 12.7 3 16.4 4.2 17.7 5.8.6.7 1.6 1.3 2.1 1.3s2.5 1.4 4.4 3c1.9 1.7 4 3 4.9 3 2.8 0 9.5 3.3 9.5 4.6 0 1.9-1.3 1.7-8.6-1.3zm317.8 1.2c0-1 1-1.5 2.4-1.5 1.8 0 2.3.4 2 1.5-.4.8-1.5 1.5-2.5 1.5s-2-.7-2-1.5zm79-1.4c2.9-2.3 3.6-2.6 3.9-1.3.4 2-2.5 4.2-5.3 4.2-1.7 0-1.5-.4 1.5-2.9zm237.6-1.8c.6-2.8.6-2.9-3.2-2.5l-3.7.3 3.3-1.5c1.9-.9 3.8-1.3 4.3-1 1.2.8 1 6.2-.2 7-.8.5-1-.2-.5-2.3zm-406.2.7c-.4-.6-.4-1.4-.1-1.7.8-.8 3.6.5 3.6 1.7 0 1.3-2.7 1.3-3.5 0zm37.6-.2c0-2 7.9-7 10.3-6.6 3.2.5 2.6 3-1 4a10 10 0 0 0-4.4 2.3c-1.5 1.8-5 2-5 .3zm140-.6c0-1.2.7-2.5 1.6-2.8 2.4-1 2.6.1.5 2.7l-2 2.4v-2.3zm216.4 1.1c-1.2-.2-2.2-.9-2.2-1.4 0-1.4 6.2-.6 6.7.9.4 1.2-.3 1.3-4.5.5zM325.1 131c0-.6.5-.8 1-.5s1 .8 1 1c0 .3-.4.5-1 .5s-1-.5-1-1zm103 0c-1.2-.8-1-1.4 1.2-3.2 4.3-3.7 6.1-7.3 5.4-10.7-.5-2.4-.4-3 .9-3 .9 0 1.6.4 1.6 1 0 .5 1.3 1 3 1 3.7 0 3.7.9.3 4a19.7 19.7 0 0 0-4 5.6c-1.6 3.8-6.2 6.7-8.4 5.3zm63.1-.5c0-.8 2-2.8 4.6-4.3s8.2-5.5 12.7-9c7.8-6 9.7-7 9.7-5.4A44 44 0 0 1 505 124c-1 0-4.3 1.8-7.3 4-6 4.5-6.5 4.7-6.5 2.5zm27 .8c0-1.5 6-6.7 6.7-6 1 1-3 6.1-5 6.5-1 .2-1.7 0-1.7-.5zM241.6 130a51.9 51.9 0 0 1 13.2-14.2c2.4 0 1.2 2-5.1 8.5-6.6 6.7-7.2 7.1-8 5.7zm95-.1c-.6-1.1 1.4-2.6 4.4-3.4 3.4-.8 8.1.3 8.1 2 0 1-.8 1.3-3.2.8-1.8-.3-4.5-.2-6 .4-1.5.6-3 .7-3.2.2zm-42-2c-.3-.5-.1-1.2.4-1.5 1.3-.8 4.2.4 3.5 1.5-.7 1.2-3.1 1.2-3.9 0zm12.5-.5c0-.9.7-1.6 1.6-1.6s1.4.6 1.2 1.2c-.7 1.9-2.8 2.2-2.8.4zm5.2-1.8a5.6 5.6 0 0 1-1.2-3.4c0-2.6-2.6-4.4-6.3-4.4-1.8 0-2.7.7-3.1 2.5-.4 1.4-1.1 2.5-1.7 2.5-.7 0-.9-.8-.4-2.2l1.2-4.5c.5-2.4 2.7-3 3.8-1.3.3.6 2 1 3.5 1 1.9 0 3.3.7 4 2 1.5 2.8 2.5 2.5 4-1 .6-1.5 1.8-3 2.6-3.4 1.8-.7 1.8-.3-.6 4.5-1.2 2.2-1.8 4.4-1.5 5 .7 1-1.2 4-2.4 4-.4 0-1.2-.6-2-1.3zm72.6.6c-1.1-1 .2-2.4 2.4-2.4 1.2 0 1.8.5 1.6 1.3-.5 1.4-3 2.1-4 1.1zm130-.1c-.8-.7 2.2-4.3 3.5-4.3.4 0 .8.6.8 1.3 0 1.5-3.5 3.9-4.4 3zm238.5-.2c-.8-.6-1.2-1.3-.8-1.6.8-.9 4.8.4 4.8 1.6 0 1.2-2.1 1.2-4 0zm-449.9-2.2c-.8-1.3-.6-1.5 3.3-2.3 3.4-.8 4.2.1 2 2.2-1.4 1.5-4.4 1.6-5.3.1zm317 0c.6-2 2.8-2.2 2.8-.5 0 .9-.7 1.6-1.6 1.6-.9 0-1.4-.5-1.2-1.2zm-217.7-.6c-1.2-1.2-.6-3.3.9-3.3.8 0 1.5.7 1.5 1.5 0 1.6-1.5 2.8-2.4 1.8zm-79.7-3c0-2.7 8.9-2.2 9.8.6.3.9-1 1.1-4.7 1-3-.3-5-.9-5-1.6zm289.2.3c-.6-.8-.9-2-.5-2.5 1-1.6 3.5-1.3 3.5.4v2.2c.2 1.5-1.7 1.4-3-.1zm-336-1.8c.7-2 3.8-2.2 3.8-.4 0 1-.9 1.6-2.1 1.6-1.2 0-2-.5-1.7-1.2zm254.5.3c-.3-.4 1-2.8 2.9-5.3 1.8-2.4 3.5-5.5 3.8-6.9l.4-2.4 1.1 2.8c1 2.4.9 3.3-1.3 6.7-2.6 4.1-6 6.6-6.9 5.1zm-122.1-1c-.9-1.4.2-3 2-3 1.9 0 1.9 1.3 0 2.8-1 .8-1.6.9-2 .2zm87.5 0a1 1 0 0 1 2 0c0 .5-.4 1-1 1s-1-.5-1-1zm-235.1-2.5c0-1.6-.7-2.5-2.2-3-1.7-.4-2-1-1.4-3.3.4-1.5 2-4 3.5-5.3a29 29 0 0 0 5.1-8c1.3-3 3-6.3 3.8-7.3.8-1 2-3.8 2.7-6.5.9-3.5 1.7-4.8 3.3-5 1.9-.3 2 0 1.5 3.5-.3 2-2.5 6.7-4.9 10.3a53 53 0 0 0-6.5 13.6c-.5.3-1 2.7-1 5.4s-.2 5.6-.5 6.4c-1 2.5-3.4 2-3.4-.8zm80.1.8c0-1.1.3-1.4.6-.6.3.7.3 1.6 0 2-.4.3-.6-.3-.6-1.4zm158.5.6c.4-.5.1-1-.5-1-.8 0-1-1.3-.5-4.2.8-4.5 4-10.8 5.6-10.8 1.3 0 1.2 2.7-.1 3.5-.6.4-.9 1.4-.5 2.2.3.8-.4 2.6-1.5 4-2.5 3.2-2.5 4.3 0 4.3 2.4 0 2.7 1.5.4 2.4-2.3 1-3.6.7-2.9-.4zm-12.3-4c.2-1.8 1-3.5 1.7-3.8 1-.3 1.2.2.7 2.4-1.1 4.5-2.8 5.5-2.4 1.5zm-87.9-2.6c-.3-.8-.1-2.6.5-4 1-2 1.5-2.3 3.2-1.4 2.4 1.3 2.5 3.8.2 5.6-2.3 1.8-3.2 1.7-3.9-.2zm13.7 1.2 1.4-3.2c1-2 1.3-4.5.9-9-.5-4.6-.2-7 1-9.4 2-4 2-3.8-.5-4.2-1.2-.2-2.4-1-2.6-1.7-.4-1.1.5-1.3 4.9-.7 6 .8 8.1 2 5.2 3-2.1.7-4.3 7.4-4.3 13 0 4.6-3 12.6-4.6 12.6-.8 0-1.4-.2-1.4-.4zm-143.4-1.2c-.3-.3 0-2 .9-4a49 49 0 0 1 10-21.8c.7-.3 1.4-.2 1.4.2 0 1.6-3.4 10.8-5 13.7-1 1.6-2.3 4.7-3 6.7-1.1 3.7-3.2 6.3-4.3 5.2zm50.6 0c-2.8-1.2-1.1-3.1 3-3.7 5.2-.7 6.3 0 4.1 2.4-1.6 1.8-4.5 2.3-7.1 1.2zm24.7-.3c0-1.2 2.6-2.4 7.8-3.5 2.5-.6 3.2-.4 3.2.8 0 1.6-1.2 2.1-7.2 3.2-2.6.4-3.8.3-3.8-.5zm89.7 0c-.3-.4 0-1.7.8-2.7 1.1-1.5 1.7-1.6 2.7-.7 1 1 1 1.5 0 2.8-1.5 1.7-2.7 2-3.5.7zm-160.7-.8c0-.5.4-1.5 1-2.3 1.1-1.8 2.4-.6 1.6 1.5-.6 1.5-2.6 2.1-2.6.8zm103.2 0c-2.7-.3-4.1-.8-3.9-1.6.5-1.6 5.7-2 9-.8 3 1.2 3.7 3.2 1 3l-6-.6zm133.7-.9c-1.1-1 .4-3.4 2.1-3.4 1 0 2.3-.5 3-1.2 2.2-2.2 2.3 0 0 2.6-2.2 2.5-4 3.2-5.1 2zm-173.6-1.6a2 2 0 0 1 1.7-1.3 2 2 0 0 1 1.8 1.3c.2.7-.5 1.2-1.8 1.2s-2-.5-1.7-1.2zm146.4-3.8c-2-4.7-1.7-5.6 2.7-6.3l6.2-1.2c2.7-.5 2.8-.4 1.2.7-6.8 4.8-8 5.8-6.4 5.8.8 0 3.6-1.6 6.2-3.5 4.5-3.5 7.5-4.5 7.5-2.5 0 .6-1.5 2-3.5 3.1-1.9 1.2-3.5 2.5-3.5 3 0 1-6 4.9-7.5 4.9-.6 0-1.9-1.8-2.9-4zm-121.2 1c-.7-1.1 4.2-3.7 5.2-2.7.9.9-1.6 3.7-3.2 3.7-.7 0-1.6-.4-2-1zm163.6 0c0-.5.7-1 1.5-1s1.5-.4 1.5-1c0-.5-1-1-2.4-1-1.8 0-2.3-.4-2-1.5.5-1 1.7-1.3 5-.8 2.6.3 4.4.1 4.9-.6.9-1.4 8.2-1.4 9.1 0 1 1.5-1.6 3-3.4 2-1.7-1-6 .6-7.8 2.8-1.3 1.7-6.4 2.6-6.4 1.1zm35.5-1c-.3-.6-1.6-.8-2.8-.4-2.5.6-8-1.2-7.3-2.3 1.1-1.9 22.7.2 22.7 2.2 0 1.5-11.7 2-12.6.4zm-164.5-1.5c-1-1.3-1-1.9.4-3.4.9-1 1.8-2.7 2-3.7l1-3.4c.3-.9-.2-2-1.2-2.6-1.7-1-1.8-.9-1.4 1.7.5 3.6-2.3 4.1-3.2.6-1.1-4.1-.6-7 1.6-9.2l2.2-2.3 1.8 2.9c1.4 2.4 2.2 2.8 4.3 2.3 3-.8 3.2.7.3 4.6-1.1 1.6-1.9 3.7-1.6 4.8.6 2-2.1 8.4-3.8 9-.6.1-1.7-.4-2.4-1.3zm42 0c0-2 2-3 3-1.4.5.7.6 1.7.4 2.1-.9 1.4-3.4.9-3.4-.6zM279 101c0-1.7 4.7-9.4 7-11.4 2.8-2.6 3.4-.2.7 3-1.3 1.6-3 4.2-3.8 5.8-1.4 3-4 4.7-4 2.6zm74-.6c0-.8.5-1.2 1-.9s1 1 1 1.6-.4.9-1 .9-1-.7-1-1.6zm16-1.9c0-1.1 1.3-1.5 5-1.5s5 .4 5 1.5-1.2 1.5-5 1.5-5-.4-5-1.5zm17-.7c0-2.7 1.7-5.5 2.6-4.6 1 1-.5 6.8-1.6 6.8-.5 0-1-1-1-2.2zm88.1.2c0-1.1.7-2 1.5-2s1.5.9 1.5 2-.7 2-1.5 2-1.5-.9-1.5-2zm37-.6c0-1.7 4.8-2.6 7-1.4 3.2 1.7 2.4 2.5-2.5 2.5-2.7 0-4.5-.5-4.5-1.1zm43.7 1c-1-1-.8-3.4.3-3.4 1.2 0 2.2 2.8 1.2 3.4-.5.3-1.1.3-1.5 0zM302.5 97c.3-.5.8-1 1-1s.5.5.5 1c0 .6-.5 1-1 1-.6 0-.8-.4-.5-1zm42.1-.7c-.6-1.5.3-2.3 2.6-2.3 1 0 1.8-.6 1.8-1.4 0-1.8 5-3 6.4-1.7.7.8 0 1.3-2.2 1.7-1.7.4-3.2 1-3.2 1.4 0 1 10.3 1 11.5 0 2-1.6 11.5-1.6 11.5 0 0 .6-1.7 1-3.8 1s-4.2.5-4.8 1c-1.5 1.5-19.2 1.8-19.8.3zm203.6-.2c0-1.8 2.6-4.8 3.5-4 .6.7-1.9 5.9-2.8 5.9-.4 0-.7-.8-.7-1.9zm20.5-2.7c-1.9-4.9-1.4-6.7 1-4.3 1.8 1.8 3.2 8.9 1.7 8.9-.5 0-1.7-2-2.7-4.6zm-117-.6c-2-4-2-5.8.2-5.8 2.5 0 6.1 3 4.5 3.6-.8.4-1 1.5-.7 3 1 3.6-2.1 3-4-.8zm-17 1.6c-2.9-3 2.3-11.2 6.3-10 2.5.9 1.7 3.2-1.4 4-1.8.5-2.3 1.2-2.2 3.2.2 2.6-1.3 4.1-2.6 2.8zM376.6 93c.3-.6.8-1 1-1s.5.4.5 1-.5 1-1.1 1-.8-.4-.4-1zm148.5-3c-.7-1.7-1-3.3-.7-3.6 1.1-1.1 4.7 2.2 4.7 4.3 0 3.3-2.5 2.8-4-.7zm36 2.5a34 34 0 0 0-14.5-1.4c-.9.7-1.5.7-2 0-.3-.6-1.4-1.1-2.5-1.1s-2-.5-2-1c0-.6.9-1 1.9-1s2.3-.6 3-1.2c1-1 1.6-1 3 0a39.8 39.8 0 0 0 15.1 2.7c.5-.3 1.2-.1 1.5.4.6 1-2.8 3.4-3.6 2.6zM516.6 91c-.3-.6-.1-1 .5-1s1 .4 1 1c0 .5-.2 1-.4 1s-.7-.5-1-1zm-189.4-1.2c.6-1.5 2.8-1.8 2.9-.3 0 .5-.7 1.2-1.6 1.3-1 .3-1.5-.1-1.3-1zm7 .4c-1-.3-.9-.8.4-2.3 1.8-2 5-2.5 5.9-1 1 1.6-3.8 4.2-6.3 3.3zm26.3-.6c-2.3-1.6-2.3-1.6-7.5-1.6-2.4 0-3.8-.4-3.5-1a66 66 0 0 1 22.9.9c1.5.6 2.5 1.5 2.2 2.1-1 1.5-11.8 1.2-14-.4zm21.3.8c-1-1 .4-3.4 2-3.4.8 0 1.3.7 1 1.7-.3 1.8-2 2.7-3 1.7zM578.3 89c0-1.1.6-2 1.5-2 .8 0 1.5.9 1.5 2s-.7 2-1.5 2c-.9 0-1.5-.9-1.5-2zm-106.9-.3A9.1 9.1 0 0 1 470 85c-.2-2-1-2.6-3.8-3-4-.6-5.7-4-2-4 2.2 0 2.3 0 .5-2-1-1.1-1.5-2.3-1.2-2.6 1.2-1.2 3.8.6 4.8 3.3.5 1.5 2 3.3 3.4 4 2 .9 3 .7 5.9-1.3 3.8-2.6 4.6-2.9 4.6-1.6a14 14 0 0 1-3.8 3.7c-3.1 2.3-3.7 3.3-3.4 5.7.5 3-1.6 4-3.6 1.5zm63.3-1c-.2-.6 0-2.6.4-4.2.7-2.6 1.3-3 5.1-3.5l4.3-.5-3.3-3.2c-1.8-1.8-3-3.6-2.7-3.9 1-1 8.9.7 9.4 2.2.3.8 0 2-.6 2.8-1.5 1.9.1 2.8 3.3 2 2-.4 2.6-.1 3.1 1.5 1.1 3.4 6.1 2.4 7.6-1.5.5-1.3 1.7-2.4 2.7-2.4 2.3 0 6.6 5.6 5.9 7.6-.6 1.6-5.2 2-6.1.4-1.1-1.7-4-1.1-5.4 1.2-1.2 1.9-1.5 2-2.5.6-2.1-2.8-17.8-6-19-4-.4.6-.2 1.3.3 1.7 1.6 1 1.2 4.5-.5 4.5-.8 0-1.7-.6-2-1.3zM293.1 86c0-2.1 6.2-8 6.8-6.4.4 1.5-4 8.2-5.6 8.3-.6 0-1.2-.9-1.2-2zm84.3.2c1-1 2-1.4 2.3-1 1 1-.5 2.7-2.3 2.7-1.6 0-1.6-.1 0-1.7zm136.8.2c.7-.8 1.7-1.2 2.1-1 .5.4 1-.5 1-1.9s.7-3 1.7-3.5c1.5-.8 1.4-1-1-1.6-4-1-3.4-2.2 1.2-2 2.2.2 4 .5 4 .9v2c0 .8-.6 1.6-1.5 1.6-1 0-1.5 1-1.5 3.5 0 3.4-.1 3.5-3.6 3.5-3 0-3.4-.2-2.4-1.5zm-87-.4c-1.3-.9-1.2-1 .2-1.6 2.1-.8 4.8-.3 5 1 .3 1.3-3.4 1.7-5.2.6zm-118.4-1.5c-.3-.8-.2-1.8.3-2.1.6-.4 1-1.3 1-2 0-1.3-.4-1.3-2.5 0-2.9 2-3.4.6-.7-1.9 2.7-2.4 4.9-2 5.7 1 .4 2 0 3.2-1.3 4.6-1.7 1.7-2 1.8-2.5.4zM445.2 83c-2-5-1-6.6 3.9-7 6.2-.4 8.8 1.1 3 1.8l-4.4.6.3 3.7c.4 4.5-1 5-2.8.9zm50.6 2.2c-.4-.4-3.4-.7-6.8-.8-4 0-6.3-.4-6.6-1.3-.3-1 1.6-1.2 8.7-.8 5.1.3 9.3 0 9.7-.5.9-1.4 2.4-1 2.4.6 0 2.2-5.8 4.4-7.4 2.8zm-28.6-1.4c0-.5.4-.7 1-.4.5.3 1 .8 1 1s-.5.5-1 .5-1-.5-1-1zm-105.8-1c-.6-.6-.9-1.7-.6-2.5.4-1 .9-1 2.4-.1 2.2 1.3 2.6 3.7.6 3.7a4 4 0 0 1-2.4-1.1zm-16.8-1c-1-1.7.5-3.1 2.1-1.8.8.6 1.4 1.5 1.4 2 0 1.2-2.7 1.1-3.5-.1zm-53.5-1.4c0-.8.7-1.5 1.6-1.5 1.3 0 1.4.3.4 1.5-.7.8-1.4 1.5-1.6 1.5-.2 0-.4-.7-.4-1.5zm94.5-.5c-.7-1.2 2-2.4 3.5-1.5.6.3.8 1 .5 1.6-.8 1.2-3.2 1.2-4-.1zm139.6-1c0-1 .5-2 1-2 .6 0 1 .6 1 1.4s-.4 1.8-1 2c-.5.4-1-.2-1-1.3zm-237.1 0c0-.5.4-1.2 1-1.5s1 0 1 1c0 .8-.5 1.5-1 1.5s-1-.4-1-1zm207-1.8c-1.4-1.5-3-4.5-3.8-6.6-1.2-3.6-1.2-4 .5-5.3 2.4-1.7 3.4-1.7 3.4.2 0 .9 1.1 3.8 2.5 6.5s2.5 5.3 2.5 5.9c0 2.1-3 1.7-5.2-.7zm-123 1.2-8.2-1c-9.8-.9-7.4-2.6 2.6-1.8 8.7.6 10 1 9.1 2.5-.6.9-.8 1-3.5.3zm64.7-.1c-.4-.5-4.4-1-8.9-1.3-5.2-.3-8.2-1-8.5-1.8-.2-.6.4-1.2 1.3-1.2 1.3 0 1.5-.6 1-2.5-.7-3.1 1.6-3.8 9.5-2.7 4.4.5 5.5 1 5.8 2.7.2 1 1 2.6 2 3.2 1.4 1.2 1.4 1.5 0 2.8-.8.9-1.8 1.2-2.2.8zm-2.6-5.3c0-1.1-2.7-2-6.1-2-3.8 0-4 2.7-.2 3.2 3.4.4 6.3-.2 6.3-1.2zm74.6 5c-.4-.5-.2-1.8.3-2.8 1-1.6 1-1.6 1.7.1.8 2.1-1 4.5-2 2.8zm-36.6-1.5c0-.8-.8-1.5-1.7-1.5-1.4 0-1.2-.5.8-2.7 1.3-1.4 1.8-2.3 1.1-2-2.4 1.5-1.1-1 2.3-4.3a16 16 0 0 0 3.5-4.2c0-2-2.8-.3-7.7 4.7l-5.3 5.6-3-1.6c-1.7-.9-3-2.2-3-3 0-2.4 1.2-4.5 2.6-4.5.8 0 1.4-.4 1.4-1 0-.4 1.2-1.1 2.7-1.5 2-.5 3-.2 4.1 1.2 1.3 1.6 1.4 1.5.8-1.6l-.6-4.2c0-.4-.8-1-1.8-1-2.7 0-3.2-.8-2-3.6 1-1.9 1.7-2.3 3.5-1.9 1.6.5 2.3.2 2.3-.9 0-1-1-1.5-3.5-1.5-3.7 0-8.5 1.8-8.5 3.1 0 .5-.5.9-1 .9-.6 0-1-.9-1-2 0-2 1-2.5 7.7-3.5 3.5-.6 4.4-1.2 5-3.2.3-1.7 0-2.8-.8-3.4-2.5-1.5.4-3.4 3-2 1.8 1 2.1 1.8 1.6 4.1-.8 3.6.2 4 1.5.6 1.3-3.6 9-4.9 9-1.6 0 .5-.9 1-2 1-2.6 0-5.5 4.5-5.2 8.3.2 2.6 0 2.8-1.3 1.7-3-2.4-5.6 2-3.9 6.4.8 2 3.4 2 3.4 0s1.8-1.8 2.5.6c.5 1.4 1.9 2 5.6 2.6 7.3 1 6 3.1-1.7 2.5-1 0-3.2 1.2-4.7 2.7-2.5 2.6-2.7 3.2-1.6 5.5 1 2.3 1 3-.6 4.7-2.2 2.4-3.5 2.6-3.5.5zm2.3-3c.4-1 .1-1.2-.9-.9-1.5.7-2 2.4-.5 2.4.5 0 1.1-.7 1.4-1.5zM350.1 76c0-.6 1.1-1 2.5-1s2.5.4 2.5 1c0 .5-1.1 1-2.5 1s-2.5-.5-2.5-1zm51-.5c0-.8.7-1.5 1.6-1.5.8 0 1.5.7 1.5 1.5s-.7 1.5-1.5 1.5c-.9 0-1.5-.7-1.5-1.5zm129.6.5c-.4-.7-.2-1.6.3-2.2.7-.7 1.3-.6 1.7.2.4.6.3 1.6-.2 2.2-.7.6-1.3.6-1.8-.2zm22.2.4c-1-1 .3-2.4 2.4-2.4 1 0 2 .7 2 1.5 0 1.5-3.1 2-4.4.9zM456.7 75c-.7-1.2.2-3 1.5-3s1.3 2.7 0 3.4c-.5.4-1.2.2-1.5-.4zm30 0c-.3-.6.3-1 1.4-1s2.1.4 2.1 1c0 .5-.6 1-1.4 1s-1.8-.5-2-1zm-208.3-3c.3-1.5.1-3.5-.3-4.3-1.3-2 4.6-8 7.7-8 1.3 0 2.3-.5 2.2-1.2-.3-2.6.1-3.7 1.6-3.7 1 0 1.5-1 1.5-2.6 0-2 .4-2.5 1.7-2.2 2.2.4 2.1 5.7 0 7.3a6 6 0 0 0-1.9 3c-.2 1.4-1.3 2-3.6 2.3-2.8.3-3.2.7-3.2 3.2 0 1.7-.4 3-.9 3s-1.1 1.3-1.5 3c-.3 1.9-1.2 3-2.2 3-1.3 0-1.5-.6-1.1-2.8zm133 1.5c-1.7-1.6-1.5-5.7.1-5.7.8 0 1.6 1.3 1.9 3 .5 3.4-.3 4.5-2 2.7zM292.8 73c-2-.2-3.7-.8-3.7-1.3 0-1.2 10.8-1.4 29.4-.4 3.8.2 7.7 0 8.7-.5 1.9-1 8 .5 8 2 0 .8-33.2 1-42.4.2zm51.3 0a4 4 0 0 1 1-2c1-1.8 3.1-.6 2.4 1.3-.6 1.5-3.4 2.1-3.4.7zm22-.1c0-2.1 1.3-4.1 2.7-4.1 1 0 1.3.6 1 1.6-.4.8-.7 2-.7 2.5s-.6.9-1.5.9-1.5-.4-1.5-1zm12.6 0c-.3-.6-.1-1.3.4-1.6 1.8-1.1 1.1-3.5-1-3.5-1 0-2-.5-2-1 0-1.1 3-1.3 5.5-.4 1.8.7 2 4.5.3 6.2-1.4 1.4-2.4 1.5-3.2.3zm140.5-.1c0-.6.5-1 1-1s1-.7 1-1.5-.4-1.5-1-1.5c-.5 0-1.4-2-2.1-4.3s-1.8-5.1-2.6-6.2c-1.5-2.3-1.7-5.5-.4-5.5.5 0 1.4 1.2 2 2.7 1 2.8 1 2.8 1.2-1l.3-5.4c0-1-.4-1.8-1.1-2-.7-.3-1.3.2-1.3 1 0 1-.8 1.7-2 1.7-1.3 0-2 .6-2 2 0 1.2-.5 3-1 4.1-1.5 2.7-.4 7.3 1.6 6.5.8-.3 1.4 0 1.4 1s-.8 1.4-2.7 1.2c-2.6-.3-2.9-.8-3.7-6-.6-3.8-1.4-5.8-2.2-5.8-.8 0-1.4-1-1.4-2 0-1.4-1.2-2.6-3.5-3.7-3.6-1.8-4.6-3.3-2-3.3 2.6 0 6.5 2.2 7 4.1 1 2.9 2.2 2.2 4-2.1 2.2-5.7 2-7.2-1.5-10.6-2.6-2.4-3-3.5-2.5-6 .4-2.3 0-3.6-1.5-4.9-2.4-2.2-1.6-3.9 1.3-3 1.9.7 2 .6.6-.8-1-1-2.6-1.3-4.1-1-3.4.6-4.7-1.6-2.2-3.7 1.2-1 1.8-2.5 1.6-4-.3-2.1-.2-2.3 1.2-1.1.9.7 1.6 2 1.6 2.7s.8 1.4 1.7 1.4c1.3 0 1.4-.3.5-1.2-.6-.7-1.2-3-1.2-5 0-2.1-.4-3.8-1-3.8s-1 .4-1 1c0 1.5-3.6 1.2-5-.5-.8-1-.8-2 0-3.5 1.3-2.5 1.3-2.5 6.3-.3 7 3 11.5 16.3 5.6 16.3-2.4 0-2.4.7.2 2.8 2.2 1.8 3.9 7.5 3.9 13.4 0 2 .5 4 1 4.3s1 1.4 1 2.4c0 1.4.6 1.7 1.9 1.4 1.5-.4 2.2.4 3.4 4 .9 2.5 2.5 5.5 3.7 6.7 1.2 1.2 2 2.8 1.6 3.6-.6 1.7.6 4.4 3 6.8 2 2 1.2 3.3-2.5 4-3 .7-5.1 3.7-3.1 4.4.6.2.8.8.5 1.3-.8 1.2-5.5 1.1-5.5-.1zm4-11.5c0-.9-.6-1.2-1.5-.9-.8.3-1.2 1-1 1.5 1 1.4 2.5 1 2.5-.6zM442.7 71c.3-.6 1-.8 1.5-.5 1.4.9 1.2 1.5-.6 1.5-.8 0-1.3-.5-1-1zm-52-1c-1-1.4.8-3.4 2.4-2.9.8.3.7 1-.3 2.3-1 1.4-1.5 1.6-2.1.7zM332 68.5c0-1-1.2-1.6-3.7-1.7a368.6 368.6 0 0 1-13-.6c-5.7-.3-5.5-2.2.2-2.2 3.3 0 4.5-.4 4.5-1.5 0-.8.7-1.5 1.5-1.5s1.5.6 1.5 1.4c0 1.5 3 2.6 7.8 2.6 2.8 0 3.2.3 3.2 2.5 0 1.4-.4 2.5-1 2.5s-1-.7-1-1.5zm173.6-1c-2.6-1.8-1.8-2.4 2.3-1.8 1.8.3 3.2 1.1 3.2 1.9 0 1.8-3 1.8-5.5 0zM292 66.9c0-.6.4-.8 1-.4s1 .8 1 1-.5.5-1 .5-1-.5-1-1zm50.3.3c-1.8-.2-3.3-.8-3.3-1.3 0-1.2 6.7-1.2 7.5 0 .8 1.3-.4 1.7-4.2 1.3zm15-1.5c.4-1.2 8-1.9 10.6-1 2.5 1-1 2.3-6.2 2.3-3.4 0-4.7-.4-4.4-1.3zm42.5.7c-1.6-1.6.8-2.4 7.8-2.4 4 0 7.6.4 8 1 .3.6-.6 1-2.2 1s-5 .3-7.8.6-5.4.3-5.8-.2zm43-1c-1.5-1.5-.7-5.4 1-5.4 2.8 0 4.5 1.6 4.1 3.6-.3 1.9-3.8 3-5.1 1.8zm-94.8-2c0-.7.5-1.4 1-1.4s1 .7 1 1.5-.4 1.5-1 1.5-1-.7-1-1.5zm88.6.6c-1.1-1.8.5-3.2 2-2 .8.7 1.5 1.6 1.5 2.1 0 1.2-2.8 1.1-3.5-.1zm-140.2-1c-1-1.7.4-2.5 2-1.1.7.6 2 .9 2.9.5.8-.3 1.8 0 2.1.5.5.7-.6 1-2.8 1-2 0-3.8-.4-4.2-1zm12.2-1.7c-1-1.1-.7-2.3.9-2.3.8 0 1.5.4 1.5 1 0 1.2-1.6 2-2.4 1.3zm18.4-.4c0-.6.5-.8 1-.4s1 .8 1 1-.4.5-1 .5-1-.5-1-1zm8 .7c0-.2.7-1 1.5-1.6 1.2-1 1.5-1 1.5.4 0 .9-.7 1.6-1.5 1.6s-1.5-.2-1.5-.4zm69-.6c1.2-.8 9.1-.4 10 .5.3.2-2.2.4-5.4.4-3.6 0-5.4-.4-4.6-.9zm-37.8-1c-1.3-.9-1.3-1.1.1-1.6 2.3-1 6.4-.2 6.1 1-.3 1.3-4.4 1.7-6.2.5zm66-.1c0-.6-.7-1-1.5-1-1.7 0-2-1.6-.5-2.5.5-.4 0-1.8-1.2-3.5-1.9-2.5-2-3.7-1.5-9.4.7-6.2.6-6.4-1.8-7-3.4-.9-3.2-2.6.3-2.6 1.8 0 4.1 1.2 6.4 3.3 3.4 3 3.5 3.6 3 8-.3 3.1-.1 4.7.6 4.7s1.2.7 1.2 1.5c0 1.2-.6 1.4-2 1-1.4-.5-2-.2-2 .9 0 .8.4 1.7 1 2 1.6 1 1.2 5.6-.5 5.6-.9 0-1.5-.5-1.5-1zm-26.4-1c-10.7-1-13.7-1.7-13.7-3.2 0-.7 1.3-.9 3.8-.4 10.5 2 11 2 11.5-.3.5-2 .4-2-1.9-.5-2.7 1.9-3.2.5-.6-1.7 3.2-2.7 4.1-3 6.7-2.3 3.2.8 3.3 2.2 0 3.4-3.7 1.4-3 2.8 1.8 3.2 2.3.1 4.2.7 4 1.3-.2 1.3-1.2 1.4-11.6.4zm31.4 0c0-.5.4-1.1.9-1.4a12 12 0 0 0 1.6-4.3 25 25 0 0 1 1.7-5.7c1-1.8 1.2-1.6 2.3 1.8 1.5 4.4.3 7.6-2.8 7.6-1 0-1.7.7-1.7 1.5s-.5 1.5-1 1.5-1-.4-1-1zm-82-2c0-.6 1-1 2.4-1s2.5.4 2.5 1-1.1 1-2.5 1-2.5-.5-2.5-1zm-58-.9c-.7-.5 2.6-1 8.6-1.4 10-.5 12.3-.2 12.3 1.4a64 64 0 0 1-20.8 0zm82.5 0c-.4-.6-2.5-1.1-4.6-1.1-4 0-5.4-1.5-2.2-2.4 3-.8 9.7.8 9.7 2.3 0 1.8-2 2.6-3 1.1zm106.1-1.2c-1.4-1.1-2.6-2.5-2.6-3 0-1.4 4.4-1.1 5.8.3 1 1 1.7 1 3.3 0 1.6-1 2.4-1 4.2.2 1.2.9 3 1.6 4 1.6s1.7.7 1.7 1.5c0 1.7-2.5 2-3.5.5-.3-.6-1.7-1-3-1s-2.6.4-3 1c-1 1.6-4 1.1-6.9-1zm-152.2-1.7 2.8-2.7-5.3-.3c-2.9-.2-5.8.1-6.3.7-1.8 1.8-4.9 1.3-4.5-.6.6-3 6.4-3.6 18.6-1.7 3.7.5 4.4 2.3 1 2.4-2.3.1-2.3.1.1 1 1.7.7 2.1 1.4 1.5 2-.7.7-2 .7-3.7 0-2.2-.8-2.7-.7-2.7.5 0 .8-.9 1.5-2.1 1.5-2 0-2-.2.6-2.8zm27.2 1c-.4-.3-2.9-.9-5.5-1.2-4.7-.5-6.3-2.2-2.8-2.9 1-.2 3.8 0 6.2.3 3.5.6 4.4 1.1 4.4 2.6 0 2-1 2.6-2.3 1.3zm38.4-1.2c0-.6.4-1 1-1s.8.4.5 1c-.4.5-.9 1-1.1 1s-.4-.5-.4-1zm-100.4-1.7c-1.5-.3-2.7-.9-2.7-1.4 0-.6 2.5-.7 6.5-.3 4.3.4 6.5.3 6.5-.4 0-.6-.4-1.2-.8-1.4-.4-.2-1.8-1.8-3-3.6-1.3-1.8-2.8-3.2-3.3-3.2s-2.4 1.3-4 3c-4 4-5.5 2.8-2.7-2.1 2.3-4.1 6.3-5.4 7.4-2.4.4.8 1.2 1.5 2 1.5s1.4.6 1.4 1.5.6 1.5 1.4 1.5c1.8 0 4.6 3.8 4.6 6.2 0 1.5-.8 1.8-5.2 1.6-3 0-6.5-.3-8-.5zm116.4-1c-.9-.3-2.7-2-4.2-3.7-2.6-3-2.7-3-4.6-1.4-1 1-2.3 1.8-2.7 1.8-.5 0-1.7.7-2.7 1.6-1 1-2.2 1.4-2.5 1-.7-.6 3.6-5 5.8-6 1-.4 1-.5 0-.5-1.8-.1-4-3-4.1-5.3 0-1.1-1.3-1.9-4-2.3-2.2-.4-4-1-4-1.6 0-3.3 8.6-1 10 2.7.5 1.3 1.6 2.4 2.4 2.4 1.9 0 2-1.2.4-2.8-.9-.9-.7-1.3.7-1.8 1.1-.3 3-1.1 4.2-1.7 1.8-.8 2.6-.7 4.3.8 2.4 2.1 2.7 7.5.5 7.5-.9 0-1.5-.5-1.5-1 0-.6-1.4-1-3-1s-3 .5-3 1c0 .7.8 1 2 .7 1.4-.4 2.3 0 2.7 1.1 1.5 4 5.5 4.2 7.2.5.8-2 1.5-2.3 2.3-1.5.7.8.8 1.5 0 2.4-.5.7-1.3 2.7-1.7 4.5-.7 3.2-1.5 3.7-4.5 2.6zM404 48.7c.9-1 1.4-1 2.4 0 .9 1 .6 1.2-1.2 1.2s-2.2-.3-1.2-1.2zm-12.8-1.8c0-.6.6-1 1.5-1 .8 0 1.5.4 1.5 1 0 .5-.7 1-1.5 1-.9 0-1.5-.5-1.5-1zm98 .3c0-2.3 3.5-9.3 4.4-9 1.5.5.8 5.8-1.1 8-1.6 1.7-3.3 2.2-3.3 1zM423.8 46c-.7-1.2.4-5.2 1.5-5.2 1.2 0 1.1 4.7 0 5.4-.6.3-1.2.2-1.5-.2zm-27.6-1.6c-.8-1-.8-1.6 0-2.1 1.1-.7 4 1.1 4 2.6 0 1.4-2.7 1-4-.5zm50.5.4c.3-.6.8-1 1-1s.5.4.5 1c0 .5-.5 1-1 1-.7 0-.9-.5-.5-1zm-105-1c-1.1-1.7 7.6-6 12.4-6 5.2 0 3 2.3-3.5 4-3.3.8-6.1 1.8-6.3 2.2-.5 1-2 1-2.6-.1zm142.5 0c-1.2-.8-.9-1 1.3-1 1.5 0 2.7.4 2.7 1 0 1.2-2 1.2-4 0zM443 43c-.4-.5 0-1.6.8-2.3 1-.8 1.4-2.2 1-4-.4-1.6 0-3.2.7-4 .7-.8 1.3-3.7 1.4-6.4.1-6.1 2.7-12.5 5-12.5 1.3 0 1.5.6 1 3.3-.6 3-.4 3.5 1.9 4 3.4 1 3.2 2.7-.4 2.7-1.6 0-3.5.7-4.2 1.6-1.1 1.4-1 1.9.9 3.4 2.8 2.3 2.8 2.8-.3 4-2.8 1-4.5 4.1-2.7 4.7 1.8.6 1.4 3.3-.4 3.3a4 4 0 0 0-2.9 1.6c-.8 1-1.4 1.3-1.8.6zm17.4-2c-.7-1.4-.4-2.3 1.4-4 3-2.8 4.2-1.3 2.3 2.8-1.5 3.4-2.3 3.7-3.7 1.2zm45 .4c-.8-1-.9-1.6 0-2.1 1-.7 4 1.1 4 2.6 0 1.4-2.7 1-4-.5zm-149.2-6.6a1 1 0 0 1 2 0c0 .6-.4 1-1 1s-1-.5-1-1zm11.6 0a11 11 0 0 1 4.4-1.7c2.6-.5 3.2-.3 2.8.8-.2.8-2 1.5-4.3 1.7-2.8.2-3.6 0-3-.7zm109.2.3c-1-.3-1.6-1-1.4-1.7.2-.6-.5-3-1.5-5.3-2.3-5.3-1.6-9.3 1.7-9.3 1.2 0 2.7.5 3.3 1.2 1 1.2 1.7 8.7 1.4 13.5-.2 2.3-.4 2.4-3.5 1.6zm10.3-1.3a2 2 0 0 1 1-1.5c1.2-.8 4.1.5 3.4 1.6-.7 1.2-4.4 1.1-4.4 0zm12 0c0-1 2.6-2.1 3.4-1.3.3.3.3 1 0 1.4-.7 1.1-3.4 1.1-3.4 0zm-35.6-1.5c-1.8-1.4-1.8-1.5.6-1.5 1.4 0 3.5-.3 4.7-.7 1.7-.4 2.3-.1 2.3 1 0 2.7-4.5 3.5-7.6 1.2zm-66-1.4c-4.5-1-3.5-2.6 1.8-3 4.2-.2 4.8 0 4.8 1.8 0 2.2-1 2.4-6.5 1.2zm-8.5-1.7c0-1.8 2.2-1.5 2.8.4.2.6-.3 1.2-1.2 1.2-.8 0-1.6-.7-1.6-1.6zm110.1-.2c0-2.3 1.7-4.9 2.6-4 1 1-.4 5.8-1.6 5.8-.5 0-1-.8-1-1.8zM364 28.8c-1.8-1-2.4-3.5-1-4.1.4-.2 1.5-1.7 2.4-3.3 2-3.5 7-6.9 9.6-6.3 1.4.3 1.1 1-1.9 3.8-4.9 4.7-5.6 7-2.7 9.2l2.3 1.7h-3.5c-1.9 0-4.3-.5-5.2-1zm126.4-1c.6-6.2-1.6-8.5-2.7-3-.4 1.7-1 3.3-1.4 3.6-1.5 1-1.8-2.4-.7-7.6 1.3-5.6 3.7-8 3.7-3.5 0 2.2.4 2.6 3 2.6 1.7 0 3 .4 3 1 0 .5-.4 1-1 1-.4 0-1 1.6-1.2 3.6-.2 2-.9 3.9-1.6 4.1-.9.3-1.2-.3-1-1.9zm-25.1-2.4c0-1.7.5-2.6 1.2-2.3.7.2 1.3 1.3 1.3 2.3s-.6 2-1.3 2.2c-.7.3-1.2-.5-1.2-2.2zm-68 0c0-.9.6-1.5 1.3-1.5.8 0 1.7.6 2 1.5.4 1 0 1.5-1.4 1.5-1 0-2-.7-2-1.5zm-15-1c0-.8-1-2.4-2.3-3.5-1.8-1.8-2-2.3-.8-3 2.8-1.7 7.9 3.3 6.7 6.5-.8 2-3.7 1.9-3.7 0zm78.7-7.3c-3.9-.4-4.6-1.3-2.4-3 1.6-1.4 9 .5 8.4 2.1-.4 1.3-1.2 1.4-6 1zm32-5.9c-.8-.8 2.1-4.3 3.5-4.3.5 0 .8 1 .6 2.2-.3 2.2-2.7 3.5-4 2.1z"/>
</svg>
