<?xml version="1.0" encoding="utf-8"?>
<svg xmlns="http://www.w3.org/2000/svg" version="1.1" viewBox="0 0 784 421">
	<title>Sketch of a road with trees and bushes to either side, going straight into the distance. Four mountain slopes are in the background, high on the left and low on the right.</title>
	<path d="m562.3 416.9-3.8-3-2.3.6-2.4.6v-1.7c0-.8.6-1.6 1.4-1.6.7 0 1.6-.6 1.9-1.3l.5-1.4 5.4.5c2.9.3 6 1.1 7 2l1.6 1.4.7-1c.3-.7 0-2.2-1-3.4-1.7-2.5-2-6.3-.4-7.3l1-.7-.2-12.6-.2-12.6 5.3-.7v6.5c0 3.6.4 6.8 1 7 .4.4 1.3-.7 1.9-2.3l1-3h3.1v2c0 1-.4 2-1 2-.8 0-1 1-1 6.2a47 47 0 0 1-3 12.2 26.7 26.7 0 0 0-2 10.2l.1 2.1-5 1.1-5.5 1.1c-.2 0-2-1.3-4-3zm15.5 1v-2h3.2l-.4 1.6c-.1 1-.9 1.9-1.5 2l-1.3.5zM290.5 406c0-.4 3-4.1 6.8-8.2s7.3-8.7 8-10.2c.7-1.5 1-3.4.6-4.2-.3-.9-1.4-1.5-2.5-1.5-1 0-1.8-.4-1.8-.8s.7-1.9 1.5-3.2c.7-1.4 1.4-3.5 1.4-4.7a5 5 0 0 0-1.5-3.4l-1.6-1.3-1.7 1c-.9.6-2.3 2.4-3.2 4.1s-3.3 4.3-5.5 5.8a27.9 27.9 0 0 0-4.8 3.8l-.7 1.2.6-4c.4-2.2 1.2-5 1.9-6 .7-1.1 1-2.6.8-3.4l-.5-1.3-1.9 3c-1 1.8-2.3 3.2-2.9 3.2h-1v-10.2l-1 .7c-.7.4-2.5 3.5-4 6.8a48.2 48.2 0 0 1-10 15c-2 2.5-4 4.6-4.8 4.6h-1.3l.7-2.2c.4-1.2 3-4.7 5.8-7.8l5.1-5.5 1.8-5c1.7-4.7 1.6-8.4-.2-8.4-.4 0-1.8 2-3.1 4.5s-3.2 5-4.2 5.6l-1.8 1v-2c0-1 1-2.7 2.3-3.9 1.3-1.2 3.2-3.9 4.3-6 1-2.1 2.4-4.2 3-4.6 2-1.4 3.2-.7 3.8 2.3l.6 3 7-5.2-.6-1.4c-.7-1.7-2.5-1.9-4-.4l-1.1 1.1-2-2-2-2.2-1.6.6-1.7.7v-3.4l-1.7.3-1.7.4-.6 3c-.6 3-2.6 6-6.6 9.9a9.7 9.7 0 0 0-2.5 4c-.2 1.1-1.2 2.2-2.2 2.4l-1.7.3v-1.8c0-1 1-2.4 2-3.1 1.1-.7 2-2 2-2.7 0-.9.5-1.5 1-1.5s1.7-1.1 2.6-2.5l1.6-2.4-.7-2c-.3-1.2-1.3-2.1-2-2.1-.8 0-1.5-.3-1.5-.7 0-.3.8-1.2 1.7-1.8l1.6-1.2-1.6-.6-1.5-.6-2 5.9H258c-.9 0-1.6-.6-1.6-1.4 0-.7 1-2.1 2-3.1 2-1.9 2.7-4.5 1-4.5-2.2 0-4.2 1.4-5.5 4l-1.5 2.9-1.5-.6c-1.7-.6-2-4.3-.5-4.3.6 0 1-.8.8-1.8l-.3-1.7 1.2.2c.6.1 3-1.6 5.2-3.9s4.5-3.8 4.9-3.4c.4.4 0 1.3-1 2s-1.8 1.8-1.8 2.3c0 1.6 6 1 7-.7.5-.8 1.2-1.1 1.7-.7.4.4 0 2-.8 3.5-1.7 3-1.4 6.2.6 6.2.7 0 2.4-1.2 3.7-2.7l6.1-6.5c2.1-2.1 3.6-4.3 3.2-4.8-.3-.6-1.6-1-2.9-1-1.2 0-3.3-1-4.6-2-1.2-1-2.6-1.7-3.1-1.4-.5.3-1.2-.2-1.5-1-.3-1-1.4-1.6-2.3-1.6s-2.8 1.1-4.1 2.5l-2.4 2.5-.7-1.2-.8-1.3 1-1.2 1.2-1.3h-1.6c-.8 0-2.9 1-4.5 2.4-3.1 2.7-4.7 2.4-3.2-.4.5-1 3-2.5 5.5-3.5l4.7-1.8 5.4.5c3 .2 5.4 0 5.4-.4s-.4-.8-1-.8c-1.6 0-1.1-5 .8-8.1l1.7-3 3-.8c1.7-.5 3.4-.6 3.8-.4.4.2.7.8.7 1.3 0 .6-1 1-2.4 1h-2.5l-1.6 3c-.9 1.8-1.3 3.4-1 3.8.4.3 1 0 1.6-.8l1-1.5.7 1.2.8 1.3 2-1.5c2.4-1.8 5.4-2 5.4-.2 0 .7-1.5 2.8-3.5 4.7s-3.5 4-3.5 4.7c0 .7.2 1.3.4 1.3a61 61 0 0 0 6-5.8c3-3.1 5.9-5.3 6.3-5 .4.5.2 1.8-.5 3-1.6 2.5-.5 4 1.3 1.5.7-1 1.6-1.7 1.9-1.7 1.7 0 .2 2.2-4.9 7.3a24 24 0 0 0-5.5 7.2c0 .8-2 3.5-4.7 5.9l-4.6 4.3 5.8 5 3-1.5c1.7-.8 4.3-2.8 5.8-4.4 2.7-2.8 4.7-3.6 4.7-2 0 .5-.6 1.5-1.5 2.2-.8.7-1.5 1.6-1.5 2 0 .6 1 1 2.4 1h2.3l4.7-5 1 .8.8 1-1.3 2c-.7 1.1-1 2.4-.5 2.8.4.4 1.6.2 2.7-.4 1-.7 2.2-1.2 2.4-1.2.3 0 .6.9.6 2v2.1l1.1-.4c1.3-.4 4.1-12.5 3.3-13.9-.8-1.2.6-5 1.6-4.3.4.3 1.3-.3 2-1.3l1.1-1.7-.6 1.8-.6 2 2.2-.7c1.2-.3 3 0 4.2.5l2 1-.8-5.8c-.4-3.2-1-6-1.3-6.3-.3-.3-.7 0-1 .7-.7 2-2.2 1.5-2.2-.7 0-2.7-4.2-9-6-9.1-2-.2-2.3-.2-4.3.6l-1.7.7v-1.3c0-.6-.8-1.8-1.8-2.6l-1.8-1.4 1.3-.6c.7-.2 1.3-1.3 1.3-2.4 0-1 .4-2 .9-2s1.3 1.4 2 3l1 3h6.8l1.6 2c1 1 1.7 2.2 1.7 2.8 0 .6.6 1.3 1.5 1.6l1.5.6V312l2.2-1.4c1.3-.8 3.5-1.8 5-2.1l2.6-.7 1.1 2a9 9 0 0 1 1 3.1c0 .6-.6 1-1.4 1-.8 0-1.5.2-1.5.4s.7 1.8 1.6 3.5l1.5 3.2h3.6l.7-3.1c.3-1.8.6-4.3.6-5.8v-2.5l-2.6-2-2.5-2.1 2.5-11 6.5-6.5h6.9l.6 1.5.5 1.5-1.7.1a9 9 0 0 0-2.7.4l-2.3.3c-.6.1-1.2.9-1.2 1.7v1.5h-5.2l.6 2.4.6 2.5-1 .6c-1.3.8-1.3 4.5-.1 4.5.5 0 1.9-1.5 3-3.4l2.1-3.4 5-1 1 1.4 1.1 1.3-2.3 2.3c-1.2 1.2-3 2.3-3.8 2.3H341l-.6 8.5h1c.5 0 1.2-.5 1.6-1 1-1.8 2.5-1 2.5 1.2v2.3l2-2.5c1-1.4 2-2.3 2.2-2a29 29 0 0 1 3.3 8.8l.7 3.3 3.8-1.3v1.5c0 2 3 3 4.6 1.6l1.4-1.2v1.7c0 .8-.4 1.6-1 1.6-.5 0-1.4 1.8-2.1 4l-1.2 3.9 1.7 2.5a12 12 0 0 1 1.6 5.5c0 1.7.5 3 1 3 .6 0 1-.5 1-1.2s.5-3 1-5c.6-2 1.6-3.7 2.1-3.7h1l-.6 3.1-.7 3.1 1.3.8 1.3.8-2.2 4.8 1.4 1.9c.8 1 1.4 1.7 1.5 1.4l.5-7.4c.3-3.8.7-7.6 1-8.3s.8-1.2 1.5-1.2h1l-.5 1.8-.6 1.9 5.5-1-1 1.4c-1.6 1.9-3.6 7.9-2.7 7.8.4 0 1.5-1.6 2.5-3.5 1-2 1.7-5.5 1.7-7.9v-4.3l-6.2-.9-.5 1.3c-.3.8-.8 1.4-1.3 1.4-.4 0-1-1-1.3-2-.3-1.1-.9-2-1.4-2-.4 0-1.3 1-1.8 2.2-.5 1.3-1.8 2.4-2.8 2.6l-1.8.3 1.5-3c.9-1.6 2-3.1 2.7-3.3l1-.4-.6-2.4-.6-2.5-2.6-1.3c-1.5-.7-3.5-1.2-4.5-1.2h-1.8l-.6-3c-.4-1.7-1-3-1.5-3s-1.8-1.9-3-4.2l-2.1-4.2v-3.8c0-2-.4-4-.9-4.3-1.5-1-1-4 1-6l1.9-1.6.7 1.1.8 1.2-1.4.9-1.4.8 1.3 1.3c.6.6 1.2 2.2 1.2 3.4 0 1.2.7 2.7 1.6 3.5l1.6 1.3-.6 2.7c-.8 4 1 4.5 2 .6.3-1.8.6-3.7.5-4.4l-.2-1.2 3.8.6c2.1.3 4.3 1 5 1.5l1.1.9.7-3c.4-1.7 1-3.3 1.6-3.7l1-.5V308l-1.7.7c-.8.3-2 1.6-2.4 3-.5 1.2-1.6 2.3-2.5 2.3-.8 0-1.5.5-1.5 1s.7 1.8 1.4 2.6l1.5 1.4 3.6-1.3-1.2 1.3c-.7.8-1.3 2-1.3 2.7v1.3l2.5-.6 2.5-.6v1c0 .7-.4 1.2-1 1.2-.5 0-1 .9-1 2v2h1.4c.8 0 1.7-1.2 2-2.6l.7-2.5 5.2-2 1 1 1.1 1h-1.6c-.8 0-1.8.8-2.2 1.7l-.6 1.9 1.9-.2 1.8-.5 1.7 2.6 1.7 2.6 2.4-1.3-1.1 1.3c-.7.6-1 1.8-.7 2.5s-.6 3.6-2 6.4l-2.6 5 1 .6c.6.4.8 1.3.5 2-.3.8-.3 1.5 0 1.5s1.2-.7 2-1.5 2-1.5 2.5-1.5 1 .6 1 1.4c0 .8-1 2-2 2.6s-2 1.7-2 2.5c0 2.3-1.9 1.7-2.4-.8l-.4-2.2-1.4 3.2-1.3 3.3h-3.6l-1.6 3.7-1.7 3.8-.4-1.8c-.5-2-2.3-2.3-2.3-.3 0 1.8-1.6 2.9-3 2l-1.1-.6 1.5-1.7c.8-.9 1.8-3 2.1-4.6l.7-3-1.4 2c-.8 1-2 3.5-2.8 5.5-.7 1.9-2 4.2-2.7 5a6 6 0 0 0-1.3 3.3c0 1-.7 2-1.5 2.3-.8.3-1.5 1.4-1.5 2.5v1.9h1.5c.9 0 1.8-.7 2.1-1.5s1.2-1.5 2-1.5h1.4v2.7c0 3.4-3.2 14.3-4.2 14.3-1.1 0-1-2.8.3-5.2.5-1 .9-3 .6-4.1l-.3-2.2-1.2 2.7c-.6 1.5-1.8 2.8-2.6 2.8H356l-.7 3a43 43 0 0 0-.6 5.6c0 1.3-.5 2.3-1 2.3-.6 0-1-.4-1-1s-.5-1-1.1-1h-1.1l.5 2.1c.6 2.4 0 5-1.4 5-.5 0-1-2.3-1-5s-.4-5.2-1-5.6c-1.4-.9-2.3 2.4-1 4l1.1 1.3-1.5 3.6c-.9 2-2.1 3.6-2.9 3.6s-2.1 1-3 2c-1 1.1-2.3 1.8-2.8 1.5-.4-.3-.8-1.7-.8-3 0-1.4-.5-2.5-1-2.5-.6 0-1 1.2-1 2.5v2.5l-2 1a9 9 0 0 1-3.9 1h-2l.5-3.7c.3-2 1-5 1.4-6.5l.9-2.8h-6l-.6 1.8c-1.7 5.4-2.7 7.2-4 7.2h-1.5l.3-3.4c.3-3.8-.7-5.8-1.7-3.2-.4 1-1.3 1.6-2 1.6-.8 0-1.4-.3-1.4-.8s.6-1.5 1.5-2.2c.8-.6 1.5-1.5 1.5-2 0-.4-1-.5-2.3-.2s-3.9 2.4-5.9 4.7c-2 2.2-4 3.8-4.3 3.4-.8-.7 4.9-9.4 8.3-12.7 1.3-1.2 2-2.6 1.7-3-.4-.3-2 .8-3.5 2.6s-3.2 3.2-3.8 3.2c-.6 0-2.2 2-3.6 4.3-3.4 5.8-8.6 11.7-10.3 11.7-.7 0-1.4-.3-1.4-.8zm45-9.9c0-2.1-1.5-1.4-2.7 1.2l-1.2 2.5 2-1.2c1-.7 2-1.8 2-2.5zm7-3.1v-2.7l-1.4 2.5c-.8 1.4-1.5 3.2-1.5 4v1.3l1.5-1.3c.8-.6 1.5-2.4 1.5-3.8zm-9.5-2.5c-.3-1.5-1-2.6-1.6-2.6-.5 0-1.2.7-1.5 1.6l-.6 1.6 1.8 1.4c1 .7 2 1.2 2.2 1 .2-.2 0-1.6-.3-3zm-5.5-1.6c.6-1 1-2.1 1-2.4s-1.3.2-3 1c-1.6.8-3 2-3 2.4 0 .5 1 1 2 1 1.1 0 2.5-1 3-2zm16 0a1 1 0 0 0-2 0 1 1 0 0 0 2 0zm-23.1-2.3.3-1.7h-1.6c-.8 0-1.5.1-1.5.4l-.7 2-.6 1.8 1.9-.4c1-.2 2-1.2 2.2-2.1zm26.9-.4c-.4-.4-.7 0-.7.7s.3 1 .7.6c.3-.3.3-1 0-1.3zm1.3-5v-1.3l-5.2 2.3-1.6-2.6-.6 1-.6 1-3.3-1.1c-1.8-.6-3.7-1.5-4.4-1.9l-1.1-.7-2.1 6h1.7c1 0 2.2.4 2.7.9 1.8 1.7 6 1.5 10.2-.4 2.4-1.1 4.3-2.6 4.3-3.3zm-23.2-2.3-2.2-1.7.7-1.7c.8-2 2.7-2.2 2.7-.1v1.5h4v-5.2l-2 .7c-1.1.3-2 .2-2-.3s.7-1.8 1.6-3l1.6-2.4-2.2-2.3-2.2-2.4-7.2 1.2-4.6 5v-1.6c0-.8.6-2 1.5-2.7 1.6-1.4 2-4 .6-4s-6.1 5.9-6.1 7.6v1.6l3-1.2v3h3.8c2 0 4.3-.5 4.8-1.1l1.1-1-.4 6.7-.4 6.7 1.3.8 1.2.8 1.8-1.6 1.7-1.6zm-1.8-12.4c0-.2.7-.7 1.5-1l1.6-.6-.6 1c-.6 1-2.5 1.4-2.5.6zm-6.2 14.2.3-1.7-3 .8c-1.6.5-3.8 1.4-4.8 2l-1.8 1 9-.4zm-3.3-3.8.6-1H312c-1.4 0-2.5.4-2.5 1s.8 1 1.9 1 2.2-.5 2.6-1zm33.5-1.6v-1.6l-1 .7c-.6.3-1 1-1 1.5s.4 1 1 1c.5 0 1-.7 1-1.6zm-8.5-3.4-.7-1.2-1 1c-.6.5-.7 1.5-.3 2.2l.7 1.1 1-1c.6-.5.7-1.5.3-2.1zm-45.5.3 1.4-1.6-2 .4c-1 .2-2 1-2.2 1.6-.6 1.8 1.2 1.6 2.8-.4zm53-6.7-1.1-3.8-1.2.4c-.7.2-1.4 1.4-1.5 2.6l-.4 2.3-4.2-.6-.8-3.3-.9-3.2-1.4-.2-3.2-.2c-2.5-.2-2.7 2-.4 3.3l2.1 1.1-1 2c-.7 1.2-.9 2.4-.6 2.8.4.3 2.4.5 4.5.4l3.9-.1 1.8 2 1.8 2 1.8-1.9 1.8-1.8zm11.5 3 2-1.4-1.1-2.4-1-2.3-1.7 3.2c-1 1.7-1.7 3.4-1.7 3.7 0 1 1.6.6 3.5-.8zm-65-2.1c1-.8 3-1.5 4.1-1.5 1.2 0 2.5-.4 2.8-1l.5-.8H297l-3.5.2-2.1 2.3c-2.5 2.5-1.3 3 1.7.8zm60.5-1c0-1 .7-3 1.6-4.7l1.6-3.1.3-7.6c.1-4.2.6-8.6 1-9.9l.7-2.2h-2.6c-1.4 0-4-.9-5.9-2l-3.4-1.8-1.4.8-1.5.8-2.6-1.6 1-.7c.7-.3 1.2-1.8 1.2-3.1v-2.5l5 1.3v-1c0-.6.2-1.7.5-2.4l.5-1.3-3.2-1.5a12 12 0 0 1-4.6-3.2c-.7-1-1.8-1.8-2.3-1.8-.5 0-1 .9-1 2v2l4.3 1.6-1.6 1.6a6 6 0 0 0-1.6 3.6v2l-2 .5-2 .5v2.4a7 7 0 0 0 .6 3.1c.4.4 1.3.2 2-.5l1.4-1v2.5c0 1.5.4 2.7 1 2.7.5 0 1-.4 1-1 0-1.4 4.3-2 5.7-.8.8.6 1.2 1.7.9 2.4l-.5 1.4h1.4c2 0 2 2.4 0 4l-1.5 1.2-4-3.5 1-1.3 1-1.3-1-.6c-.6-.4-2 0-3.1 1l-2 1.9-1-1.5-2-3.2c-.5-1-1.9-1.7-3-1.7h-2l.7-3.8c.3-2 .8-4 1-4.5.3-.4 1-.5 1.6 0l1 .6-.6-2.6-.6-2.6 1-.6c2.2-1.4.7-2-5.3-2h-6.2l-.4 1.9-.3 1.9 3-.7c1.8-.3 3.2-.2 3.2.3 0 .4-1 1.4-2 2.2l-2.1 1.4-.2 4.4-.2 4.4 2.5.8v-6h1.5c.8 0 1.5.6 1.5 1.5s-.5 1.5-1 1.5h-1l1.3 2.2a7.6 7.6 0 0 1 1.1 3.5l-.3 2.1c-.2 1.4-7-2.1-7.1-3.6 0-.7-.4-1.2-.8-1.2s-1.9 1.6-3.2 3.7l-2.5 3.6-.4-2.1c-.1-1.2-.7-2.2-1.3-2.2h-1l.4 2.5c.3 1.4.1 2.8-.4 3-.4.3-.8 1.5-.8 2.6v2.1l2.4-1.6a10 10 0 0 1 3.6-1.6c.6 0 1.8-.7 2.7-1.6l1.6-1.6-1.4-1-1.4-1 2.5.7 2.9 1c.2.3-.2 1-.8 1.8-.6.8-.9 2.2-.5 3 .3 1 0 2.3-.6 3l-1.1 1.5 1 .7 1.2.7-3.4 3.8h1.7c2 0 6-4.1 7.6-8 .7-1.7 1.6-3 2.1-3h1l-1-2c-.7-1-1.1-2.2-1.1-2.5 0-.3.6-.5 1.5-.5 1.6 0 3 4.2 2 6l-.8 1.2 2.7 1.6 2.4-2c1.4-1 3-1.8 3.5-1.8.6 0 1.8.7 2.8 1.5l1.7 1.6-.5 2c-.6 2-2.3 2.6-2.3.9 0-1.6-4.6-1.2-6 .4-.6.8-.9 2-.5 2.6l.7 1 1.2-1.6 1.2-1.7 6.6 1.5-.5 1.9-.5 1.9h1.3c1.4 0 3 2.7 2.6 4.7-.1.7.3 1.3.9 1.3.5 0 1-.7 1-1.6zm-1.3-8.2c-1.3-1.3-.7-2.3 1.3-2.3h2v1.5c0 1.5-2.1 2-3.3.8zm-45.7 7.7c0-.6-.7-1-1.5-1s-1.5.4-1.5 1 .6 1 1.5 1 1.5-.5 1.5-1zm-13.4-4.3 4.3-4.2v-4l-3.4 3.4-4.6-4.4-.7 2.4c-.3 1.3-1.6 4.3-2.9 6.7l-2.3 4.4h5.3l4.3-4.3zm19-.2 1.9-1.4-1.1-1.8c-.6-1-1.7-2-2.4-2.2l-1.4-.4.7 1.6c.3.9.1 1.9-.4 2.2-.5.3-1-.3-1-1.3v-1.8l-6-.5.5 1c1.5 2.4 5.2 6 6.1 6 .6 0 2-.6 3-1.4zM337 356c-.4-.6-1.5-1-2.5-1s-2.2.4-2.5 1l-.6 1h6.2zm29.5-2c0-.6-.4-1-1-1-.5 0-1 .7-1 1.5v1.6l1-.6c.6-.4 1-1 1-1.6zm-46.6-.6 2-1.4h-1.6a4 4 0 0 0-2.8 1.5c-1.6 1.9-.1 1.9 2.4 0zm43.5-4.7c0-.5-.3-.6-.9-.2-.5.3-1 1.6-1 2.8l.1 2.2 1-2c.4-1.1.8-2.4.8-2.8zm14.7 1.2c.9-1.7 1.3-3.3 1-3.6-.2-.3-1.1.9-2 2.5-1.6 3.2-1.9 4.2-1.1 4.2.3 0 1.2-1.4 2-3.1zm-59.8-11c.7 0 1-.3.8-.8-.7-1.1-6.6-.1-6.6 1.1v1l2.2-.6c1.3-.3 2.9-.6 3.6-.6zm38.7-7 .7-3.1-1.1-1.1-1.1-1.1-.9 1c-1 1-.2 7.4 1 7.4.4 0 1-1.4 1.4-3.1zm-70.9-1.1c1.3-1.2 2.3-2.5 2.3-3 0-1.6-2.5-.8-4.7 1.6a10.5 10.5 0 0 0-2.3 3c0 1.3 2.5.5 4.7-1.6zm65.6-2.8c.2-1.6 0-2.7-.4-2.4-.4.3-.8 1.6-.8 3 0 1.3.2 2.4.4 2.4s.6-1.4.8-3zm-24.2-14c0-1.1-.2-2-.5-2s-1 .9-1.5 2l-1.1 2h3zm-41.7 89c-.7-.2-1.3-.8-1.3-1.3s1.2-1.4 2.7-2.2c1.5-.7 4.8-4 7.3-7.2s5.3-6.1 6-6.4c.9-.2 1.9-1 2.3-1.5l.7-1.1v1c0 1.1-10.3 13.5-14.1 17-1.3 1.2-3 2-3.6 1.7zm93.3-1.8a246 246 0 0 0 29.4-28.3c1.8-2.3 4.7-6.8 6.3-10a48 48 0 0 1 13.5-15.8l4-3 3.7-7.5c2.1-4 4.4-8 5.1-8.8.7-.8 1.6-2.6 2-4a16 16 0 0 1 2.4-5l2-2.3 2.2 1.4-1.9 2.7a190 190 0 0 0-7.1 13.4l-5.3 10.7-5.6 4.6-7.8 6.5c-1.1 1-2.9 3.6-3.9 5.7a109 109 0 0 1-14.8 21.6 65 65 0 0 1-8.2 7.2 96.4 96.4 0 0 0-7.5 6.2 21.5 21.5 0 0 1-5.2 3.8c-1 .3-1.8 1-1.8 1.5s-.8 1-1.7 1l-1.8-.1 2-1.5zm-23-.5c-1-1.5.1-2.3 2-1.6 1 .4 1.4 1 1 1.6-.8 1.3-2.2 1.3-3 0zm82-.7c2.3-7.3 3.2-9.3 4.3-9.3.7 0 1.3.3 1.3.7 0 .3-.8 2.8-1.8 5.5l-1.7 4.8h-2.8zm19.6-2.8c0-3 1.8-6.7 2.8-6 .4.2.6 2.2.4 4.5l-.4 4h-2.8zm-92.7-.9-.7-1.7 2.2-2.2.7 1.7.7 1.8-2.2 2.2zm199.4-2.4-1.8-4-4-.6c-2.1-.3-4.8-1.1-5.8-1.8l-1.9-1.2-1.9 1.7c-2 2-6.2 2.4-6.2.7 0-.5.7-1.3 1.5-1.6.8-.3 1.5-1.1 1.5-1.8s.7-1.6 1.6-2c.8-.3 3.3-.5 5.5-.5s3.9-.5 3.9-1a2 2 0 0 0-.9-1.5c-.5-.3-1.2-1.8-1.6-3.3-.3-1.5-2-4-3.7-5.5l-3-2.8.6-1.6c.3-.9.1-2.2-.4-2.9-.6-.7-2-1-3.3-.8-1.2.2-1.7.1-1-.2.7-.3 1.3-1 1.3-1.6 0-.5-1.2-2.1-2.6-3.6a24.7 24.7 0 0 1-4-6l-1.5-3.4-6.7 1.2-1.2-1.5a4.7 4.7 0 0 0-3.2-1.5c-1 0-1.8-.5-1.8-1.1v-1l13 1.3v-1c0-.5-.8-1.6-1.7-2.3a34 34 0 0 1-7.2-11.9l-1.2-3.4.8-.8.9-.8 3.1 6.9c1.8 3.8 3.6 7.2 4.2 7.5l1 .7-.3-4a13 13 0 0 0-1.4-5.4c-.6-.7-1.5-3.1-2.1-5.4l-1.2-4.2 1.3-4.5 1.2-4.6-1.6-1.3c-.9-.6-1.9-2.9-2.3-5l-.6-3.7 3 1.2v-2.4c0-1.3.6-3 1.2-3.5l1-1.1-1-1.8-1-1.8.6-8 .6-8 1.8-1.8c1-1 2.3-1.8 2.8-1.8 1 0 1.7 6.3 1.2 12.4l-.3 4.6h-3l.6 2.7c.4 1.6 1 9 1.2 16.7l.4 14 1.3.7 1.3.8-.2 4.7-.2 4.8-1 .4c-1.7.5-1.5 2.7.2 4.1.8.7 1.7 2.5 2 4.1l.7 3-1.5 1.5-1.6 1.6 4.1 5.2c2.3 2.8 4.5 5.3 5 5.5 1.2.4 1.1-1.5-.2-4l-1-2 1-4.5.9-4.5-1.5.6-1.4.5-.5-1.7c-.3-1-1-2.6-1.6-3.6l-1-1.8 4.2 1.3v-1.3a13 13 0 0 0-3-4.7c-1.7-1.9-3-3.8-3-4.2 0-.5 1-.8 2.2-.7l2.3.3.2-3.5.2-3.5-1 2.3-.9 2.3-1-.6c-.6-.4-1-2.6-1-4.9a45 45 0 0 0-.5-8.8c-.4-2.6-.4-5.5 0-6.5s.8-7.2.9-13.8l.2-12 1.1-2 1.2-2 .2 4c0 2.2.5 5.3.9 7l.7 3 .2-2.3v-2.3l1.8.3c1 .2 2 1 2.5 1.8.3.8.7 2.6.7 4v2.5l-2.2 1-2.2 1-.3 4.5-.2 4.5 2.5-3 3.5-4.2c.6-.7 1-3.2 1-5.5 0-2.4.3-6.7.6-9.6l.7-5.2h4l-.7 3.2c-1.5 7.6-1.8 10.8-1 12.5.3 1 .6 7 .4 13.3l-.2 11.5-2 2.5-2-.6-1.8-.6v1c0 .6-.3 1.7-.6 2.6l-.6 1.6h1.9a5 5 0 0 0 3-1.2l1.3-1.2 2.1 2-3 1.4-3.1 1.2v11l-2 .5c-1.1.3-2 .9-2 1.4 0 .4 1 1.3 2.2 2a16 16 0 0 1 2.7 1.5c.2.2.6 5.6.9 12.1l.4 11.8-1-1a7.5 7.5 0 0 1-1.5-3l-.5-2-.2 5.8 4.5 6.6h8.3l.6 1.8c.4.9.4 4 0 6.8l-.6 5 1.6 3.9c.9 2 1.6 4.2 1.6 4.7s-.6.8-1.3.8c-.8 0-2.2-1.7-3.1-3.8zm-.3-12.3c.7-2.4.1-3.8-1.4-3.8-.5 0-.9 1.3-.9 3 0 1.6.4 3 .9 3s1.1-1 1.4-2.2zm-16.6-60.5c-.4-.4-.7 0-.7.7s.3 1 .7.6c.3-.3.3-1 0-1.3zm5-5 1-2.8.2 2.7c0 1.5.5 2.8 1 2.8h1l.1-4.3c0-2.3.3-6.7.6-9.7l.6-5.5-1.4 2.5-3 5c-1.7 2.7-3.3 12-2 12 .4 0 1.3-1.3 1.9-2.8zm-5.1-2c-.4-.8-.9-1.4-1.2-1.1-.2.3-.2 1.3.2 2.2.3 1 .9 1.4 1.1 1.2.3-.3.2-1.3-.1-2.2zm-1.6-5.3c0-.6-.7-1-1.6-1h-1.5l.6 1c.3.5 1 1 1.5 1 .6 0 1-.5 1-1zm-9.4-3.7c-.3-.3-.6 0-.6.7s.3 1 .6.7c.4-.4.4-1 0-1.4zm9.8-8.2c.4-.6.2-1.3-.4-1.6l-1-.6v1.5c0 1.8.6 2 1.4.7zm-7.4-10c0-.5-.3-1.7-.6-2.5-.8-2-2.4-1-2.4 1.5v1.9h1.5c.8 0 1.5-.4 1.5-1zM413.4 396.3c-.7-.8 3.2-7.5 4.4-7.5.5 0 .2 1.3-.6 2.8-2.3 4.3-3.1 5.3-3.8 4.7zm192.7-.6c-.7-.7-1.3-2.5-1.3-4v-2.8l3-1.5c1.6-.9 4-1.5 5.2-1.4a11 11 0 0 0 4.1-.6l1.7-.8v2c0 1 .5 2.3 1 2.9l1.1 1-1.4 1.2-1.4 1.2-2.5-2c-1.4-1.2-3-2-3.6-2-.6 0-1.2 1.6-1.3 3.7l-.4 3.7-1.5.3c-.8.2-2-.3-2.7-1zm-329.6-.7c0-1.3 3.6-4.2 4.4-3.5.3.4-.1 1.5-1 2.5-1.8 2-3.4 2.4-3.4 1zm9 .5c0-.4 1.2-1.9 2.5-3.2 1.4-1.4 2.5-2.2 2.5-1.7 0 .5-1 2-2.5 3.2-1.3 1.3-2.5 2-2.5 1.7zm-16.9-3.4c8-8.8 10.7-12 11.7-13.8l1.1-2 2.5 2.5-2.8 4c-3.7 5.3-11 12-13.2 12H266zm200.5.4c-.9-2.3 0-7 1.4-7.4l1.2-.4v4c0 4.1-1.6 6.4-2.6 3.8zm-98.9-1.2c-.7-1.8 1.1-6.8 2.2-6 1 .6.3 6.3-.8 7-.4.3-1-.1-1.4-1zm5.4-2.8c0-1.3.6-3 1.4-3.6.8-.6 1.7-3.1 2-5.6.4-2.4 1.2-4.7 1.8-5l1-.7-.6 4.9c-.4 2.6-1.2 5-1.6 5.2-.5.1-1.2 1.8-1.6 3.7-.3 1.9-1 3.4-1.5 3.4s-.9-1-.9-2.3zm-93-.7c0-.7.2-1 .6-.6.4.3.4 1 0 1.3-.4.4-.7 0-.7-.7zm159-3v-4l3.3-4c1.8-2.1 3.6-4 4-4 1.5 0 .7 2.1-2.2 6.2l-3 4.1v2.9c0 1.6-.5 2.8-1 2.8h-1zm44.5 2.5c-.4-.8-.3-2.9 0-4.5l.6-3-1.2-2.5c-.6-1.3-.9-2.7-.6-3 .3-.3 1.2-.2 2 .1l1.6.6v7c0 3.7-.5 6.8-1 6.8s-1.1-.6-1.4-1.5zm104.2.2-.8-1.8 2.6-2.2c1.5-1.2 3-3.4 3.3-4.9l.6-2.7h-2c-1.1 0-2.7.6-3.5 1.5l-1.6 1.5-2.8-1.2-3.2-1.6c-.7-.5 5.9-6.2 7.2-6.2.6 0 0 1-1.1 2.3-1.2 1.2-2.2 2.8-2.2 3.5 0 .6.2 1.2.5 1.2l5.2-2.5c2.6-1.3 5.1-2.2 5.5-2 .5.4.8 1.4.8 2.5v2h9.3c5 0 10.6.3 12.2.5l3 .4 2.9-3.5c1.5-1.9 3.4-3.4 4.2-3.4.8 0 1.5.4 1.5.9s-2.3 3.3-5.1 6.2l-5 5.3-.6-1.2c-.3-.7-1.5-1.2-2.8-1.2s-2.5-.3-2.9-.7c-1-1-7-1.1-8.3-.2l-1.1.9-1.3-1.5c-.6-.9-1.6-1.5-2.1-1.5s-1.3 1-1.9 2.5c-.5 1.3-1.4 2.4-2 2.4-.5 0-1 .8-1 1.7v1.6l-2.3-.6-2.4-.6-1 2.2-1 2.2zm-302.8-.6c0-.5.5-2 1-3.5.6-1.4 1.7-2.5 2.6-2.5h1.6l-.7 2.2c-.8 2.7-2.4 4.7-3.6 4.7a.9.9 0 0 1-.9-.9zm6.8-4c2.9-5.5 6.8-9.8 8-8.7.3.4-.6 2-2 3.5-1.5 1.5-2.7 3.2-2.7 3.7 0 1-4.8 6.4-5.6 6.4-.3 0 .8-2.2 2.3-5zm71.2 4.5c-.3-.3-.3-1.9-.1-3.5l.4-3h3l-.6 2.2c-.3 1.2-.6 2.8-.6 3.5 0 1.3-1.2 1.7-2.1.8zm53.2-1c0-.8.4-1.7 1-2 .5-.4 1 0 1 .8 0 .9-.5 1.8-1 2.1-.6.4-1 0-1-.8zm44.6-8.6a42 42 0 0 1 1.5-10.4l.8-.9.7 1.7c.3 1 .3 3.3 0 5.4-.4 2-.6 5.4-.6 7.4v3.6l-1.5 1.3-1.6 1.3.7-9.4zm-89.6 4.1-1.2-2 1-1.8 1-1.7 1.2 2.8 1.3 2.7-2.2 2.2zm48 .7c0-.7.9-2.7 2-4.6a62 62 0 0 0 4-8.3c1.9-5 4.5-8.8 6.1-8.8.5 0 .9.6.9 1.5s-.4 1.5-.9 1.5c-1 0-4.5 7.7-5.6 12.1a13 13 0 0 1-3.6 5.3l-3 2.6v-1.3zM258 380c-.8-1.3 2-3.4 4-3l1.8.4-1.8 1.7c-1 1-2.1 1.8-2.6 1.8s-1.1-.4-1.4-1zm125.5-3a38 38 0 0 1 3.8-15.3c.7-.9 2.5-1.8 3.8-2.1l2.5-.5 1 1.9 1 1.8 1.5-.6c.8-.3 1.4-.3 1.4 0s-.4 1.8-1 3.3l-1 2.8-4-5-.8 1.3-.8 1.3-1.6-.6-1.5-.6-.8 4.4c-.5 2.3-.9 5.6-1 7.2 0 1.6-.5 3-1.2 3.3l-1.3.4v-3zm88.7 1.6a5 5 0 0 1 0-3.5l.7-1.7.4 1.7a9 9 0 0 1 0 3.5l-.4 1.8zm175.6.3c0-.6.7-1 1.5-1s1.5.4 1.5 1-.7 1-1.5 1-1.5-.5-1.5-1zm-69.3-6.3.4-6.2 2-3.3c1.1-1.8 2.4-3.2 2.8-3.2a2 2 0 0 1 1.5.9c.3.5-.4 1.6-1.6 2.4l-2.2 1.5.6 4.2c.6 4.6-.8 10-2.7 10h-1.2zm88.3 3.8v-1.5h4v3h-4zm-297.5-2.1c-1-1-1-9.4 0-9.4.5 0 1.4 1 2 2.3l1 2.2-1.1 2.8c-.7 1.6-1.5 2.5-2 2zm265.5-.4v-1h4.4c2.5 0 4.7.4 5 1l.7 1h-10.1zm23.8-3c-2-1.4-3.6-3-3.4-3.5.1-.6 1.2-1.2 2.4-1.4l2.2-.3v1.3c0 .7 1 2.2 2 3.4 1.2 1.2 1.8 2.5 1.3 2.7-.4.3-2.5-.7-4.5-2.1zm-269.4 1.3c-.3-.5-.2-1.5.3-2.2l.8-1.4.6 1c.3.4.1 1.4-.3 2.2l-.8 1.3zm-14-1c-.4-.4-.7-3-.7-6v-5.3h3v5.4c0 5.1-.9 7.3-2.3 5.9zm235.9-1c-1.1-3.2-4.6-6.3-7-6.3-1.3 0-2.4-.4-2.4-1 0-.4.7-1.3 1.4-2l1.4-1 5.9 1.1 1.3-1.6c.7-.8 2-1.5 2.8-1.5h1.5l-1.2 1.5-1.3 1.5.5 5.5.4 5.5h-1.3c-.8 0-1.7-.8-2-1.8zm6.7.7c0-1 7-2.4 7.7-1.6.3.3.4.7.2 1l-4.2.9c-2 .4-3.7.2-3.7-.3zm31 0c0-.5.4-2 1-3.5.5-1.4 1.4-2.5 2-2.5 1.4 0 1.3 4.3-.2 5.8-1.4 1.4-2.8 1.5-2.8.2zm-79.3-3.6-2.8-2.5V360c0-2.6-.3-5.9-.6-7.2l-.5-2.5 1.9 3.4 2 3.4.7-1.3c.4-.6.4-2.7 0-4.6l-.6-3.4h-3.2l.6-4.8c.3-2.6 0-7.3-.5-10.4l-1.2-5.7 1.8-2 1.7-2-1-.6c-1.2-.7-.5-3 2.4-7a26 26 0 0 0 3.3-7.7l1.2-4.6-1.6-3.1c-.8-1.7-2-3.3-2.5-3.7-1.4-.8-2.3 2.4-1 4 1.5 1.7 2 8 .6 8.5-.5.2-1.3-1.4-1.8-3.5l-1.4-6.6-.5-2.8 3-1.7a13 13 0 0 0 4.4-4l1.2-2.3-1.2-1.2a5.5 5.5 0 0 1-1.2-3.4c0-1.2.7-3.5 1.5-5 .8-1.6 1.5-3.6 1.5-4.5 0-.9.3-1.9.6-2.2.4-.3 1.5-.2 2.5.3l1.8 1 .5-.9c.4-.5 0-1.4-.9-2.1-1.8-1.5-2-3-.2-3s6.7 6.5 6.7 9c0 1.1-.7 2.3-1.5 2.6-.8.4-2.6 0-3.9-1L579 276l-3 4.6.5 2.4 1 3.9.5 1.5 2.7-6 .1 1.5c.5 3.2-.2 6.6-1.6 8-1.7 2-1.8 7.3-.1 10l1.2 2.2-2.2 1.5-2.3 1.5v2.4c0 1.3.4 2.4 1 2.4.5 0 1.2-1 1.5-2s1-2 1.4-2 1.3.5 2 1.2l1.1 1.2v-1.6c0-.8 1-2.3 2-3.3l2-1.9-.3-6.5c-.2-3.6-1-7.9-1.7-9.4l-1.3-2.8 1.2-1.1 1.1-1.2 1.6 1.5 1.5 1.5.4 5.8.4 5.8 3.6 2.6-.3 3.8c-.2 2.2-.7 4.3-1.3 4.8l-.9 1v-8.5l-.8.5c-.5.3-1.2 2-1.6 3.7a19 19 0 0 1-3 6.5 12.1 12.1 0 0 0-2.6 5.8c0 1.3-.5 2.8-1.1 3.2l-1.2.7.6-4.7c.2-2.5.1-4.6-.3-4.6s-1 1.4-1.5 3.2c-1.8 8.4-2.2 10.8-1.4 10.8.4 0 1-.5 1.4-1 .3-.5 1.2-.7 2-.4l1.3.5 1.8-4.6c1-2.5 2-4.5 2.6-4.5 1 0 1 2.7 0 3.4-.5.3-1 2-1 3.7 0 3.5-2 7.9-3.3 7.9-.5 0-.9-1-.9-2.2v-2.3l-1.3 1.5a38.6 38.6 0 0 0-3.7 13.7v1.6l1.8-1.7c1-.9 2.6-1.6 3.5-1.6h1.7v-2c0-1 .5-2.2 1-2.6 2.2-1.3 2.2.6.1 4-1.1 2-2 3.9-2 4.1 0 .3.5.5 1.3.5s1.6-1 2-2c.2-1.1 1-2 1.6-2h1l-1.4 3c-.9 1.5-1.6 4.2-1.6 5.9 0 1.6-.4 3.2-1 3.6l-1 .6v-5.6l-1 1.5c-.5.8-1 3-1 4.7 0 1.8-.4 3.3-.9 3.3s-1.2 1.3-1.6 3l-.7 3-1.6-.3-1.7-.2-.3 3.7-.3 3.8h-1.2c-.7 0-2.4-1.2-4-2.6zm5.2-10.4c0-.6-.2-1-.4-1-.3 0-.7.4-1 1-.4.5-.2 1 .4 1 .5 0 1-.5 1-1zm-1-7a1 1 0 0 0-2 0 1 1 0 0 0 2 0zm1.7-4.5a6.3 6.3 0 0 0-2-1.5c-.4 0 .1 1.5 1 3.4l1.8 3.4.3-2c.2-1-.3-2.5-1.1-3.3zm5.8-1.5c.4-.6.2-1-.4-1-.6 0-1 .4-1 1s.1 1 .4 1c.2 0 .7-.5 1-1zm-7.2-8.7c-.7-.3-1.3-1.6-1.3-3v-2.4l-1 .6c-.5.3-1 1.4-1 2.4 0 1.8 1.3 3 3.5 3 .6 0 .5-.3-.2-.6zm-2.3-14.3v-2H569l.5 2c.3 1 1 2 1.4 2 .5 0 1-1 1-2zm2.7-4.2-.5-1.3-.1 1.9c0 1 .2 1.6.5 1.3.4-.3.4-1.2.1-2zM473.9 358l.3-10.7 1 .2c.4.1.9 5 1 10.8l.2 10.5h-2.7zm61.4 9.3c-1.1-.8-3.7-1.5-5.7-1.5-4 0-5.8-1.4-3.2-2.4 2.5-1 8.2-.7 9 .4.3.6 1.5 1 2.7.8 3.1-.3 6.9 1.1 6.4 2.5-.2.6-2 1.3-3.8 1.5l-3.4.2zm52 .4-.7-1.1 2.1-2.2 2.1-2v1.6c0 2.3-1 4.8-2 4.8-.5 0-1.2-.5-1.5-1.1zm-207.7-2.3c0-1.4.5-2.8 1-3.1l1-.7v2.5c0 1.4-.4 2.8-1 3.2l-1 .6zm240.4-.9c-.5-1.2-1.1-3.5-1.5-5l-.7-2.8 2.4-.9c1.3-.5 5.8-1.1 10-1.4l7.6-.6.6 1c.4.6 1.7 1.5 3 2l2.4.9-.5 1.5c-.7 1.8-2.4 2.1-2.4.5 0-.6-.7-.9-1.5-.7-.8.1-2-.6-3-1.7l-1.4-2-1.6 2.2c-1 1.2-2.5 2.3-3.6 2.3s-2-.5-2-1-1.3-1-3-1H622l.6 4.5.6 4.5H622c-.7 0-1.6-1-2-2.3zM267.5 363c0-1 .7-2.2 1.6-2.5l1.6-.6-.3 2.1c-.2 1.2-1 2.4-1.6 2.6l-1.3.4zm198.2.9c0-.8.3-1 .7-.7.4.4.4 1 0 1.3-.4.4-.7 0-.7-.6zm20.7.3c-1-1-.8-7.3.3-7.3.5 0 1.1.3 1.4.7s.6 2 .8 3.7l.3 2.9-1 .3c-.6.2-1.4 0-1.8-.3zm161.7-1.5c.1-1.2.9-2.4 1.5-2.6l1.3-.4v5.2h-3.1zm-195.7-.5c-.3-.3 0-2.2.8-4 .8-2 1.5-5.8 1.5-8.5 0-5.3 2-10.2 4.5-11.2l1.5-.6v1.3c0 .6-.7 2-1.5 3.1l-1.5 2v4.8a19 19 0 0 1-1 6.5l-1.5 4.5c-.5 2.7-1.5 3.4-2.8 2.1zm-69.8-3.6c0-1.8 2.8-4.3 3.8-3.3.8.8-1 3.8-2.6 4.3-.6.3-1.2-.2-1.2-1zm12.5-2.2c-.7-2.7.2-4.9 1.6-4 1.3.8 1.2 6.5 0 6.5-.6 0-1.3-1.1-1.6-2.5zm39.6 1.4c0-1.7 2-5 7.4-12.4 2.8-3.9 6-8.7 6.9-10.8 1-2 1.7-4.8 1.7-6 0-1.2 1.4-4.7 3-7.7 1.7-3 3.8-7 4.6-8.8 1.4-3.2 3.9-5 5.1-3.9a35 35 0 0 1-4.5 9.4 69.1 69.1 0 0 0-5.7 11.8c-1.4 6.4-3.8 11-9.4 18.4-3.2 4.1-6 8.3-6.4 9.3-.7 2-2.7 2.4-2.7.7zm-45.9-3.6c.2-1 .9-1.8 1.5-2l1.2-.5-.5 2.1c-.7 2.4-2.6 2.8-2.2.4zm283.1.3a50 50 0 0 1 14.8-6.2c1.4 1.4-10 7.6-13.8 7.6h-2.4zm-266.2-.4c0-.7.4-2 .9-3s1.2-2.5 1.5-3.5 1-1.7 1.5-1.7c2 0 1.1 3.8-1.4 6.7-1.4 1.5-2.5 2.2-2.5 1.5zm246.7-4-1.6-3.6 1-1 1-1 1.7 3.7c1 2 2.2 3.7 2.8 3.7.6 0 .4.4-.4 1-.8.5-1.8 1-2.2 1-.4 0-1.5-1.7-2.3-3.7zm-61.8-2a16 16 0 0 1 0-5.2c.1-.2 1 .3 1.8 1.1l1.6 1.6-.7 3.6c-.4 2-1 3.7-1.5 3.7-.4 0-1-2.2-1.2-4.8zm-190 1c0-3.4 1.9-9.2 3-9.2.8 0-1.1 10.5-2.2 11.6-.4.4-.7-.7-.7-2.3zm243 2.1c-1.2-1.1-.8-4.1.5-4.8 1.7-.8-2.3 0-4.5 1l-1.7.7v-1.2c0-1.3 4.2-3 7.6-3h2.4v1.5c0 .8-.5 1.5-1 1.5-.7 0-1 1-.8 2.1.3 2.2-1.2 3.5-2.5 2.2zm18-3.1c-.8-1.2 1.5-2.2 5-2.2h2.7l-1 .9c-.5.5-2 1.2-3.5 1.6l-2.7.6zm-380-2.5c0-1.8 1.7-3.3 2.7-2.3.3.3-.1 1.4-1 2.3l-1.8 1.7zm21.2-1.5-2-1.8-.4-3.5-.3-3.4-2.5-.1c-8.1-.3-10-.5-10-1.4 0-.5 1-1.2 2.1-1.6 1.2-.4 3.8-2.4 5.6-4.5l3.4-3.7h6.9v1.4c0 .8-.7 1.7-1.5 2a4 4 0 0 0-2 2l-.5 1.4 5.1-3.4 1 1.4.8 1.4-2 2.1c-1.9 2-2.7 5.6-1.2 5.4h3.3l-1 2c-.6 1-1 2.9-1 4s-.4 2-.9 2-1.8-.7-2.9-1.7zm-3-15.7c.3-1.4.4-2.5.3-2.5l-2.5 2.5-2.4 2.5h4.1zm112.9 14c0-1.4.4-2.5 1-2.5.5 0 1 .8 1 2 0 1-.5 2.1-1 2.5l-1 .6zm211.7 1.5-3-.7 1.6-.8c2.2-.9 6-.3 6 1 0 .5-.3 1-.8 1-.5.2-2.2-.1-3.8-.5zm-238.7-3.8c0-1.8.4-3.2 1-3.2 1.1 0 1.1 1.7 0 4.5l-1 2V340zm4 1.5-.7-5-.6-3.7h1.1c.6 0 1.2.9 1.2 2s.5 2 1.3 2h1.3l-.4-3-.5-3h-2.9l.3-2.8.4-2.7h-2.6c-1.3 0-3-.4-3.7-.8a3.1 3.1 0 0 1-1.3-2.4v-1.5l7.3 1.3-.4-1.2c-.3-.7-1.3-1.4-2.2-1.5a6 6 0 0 1-2.3-.8c-.3-.2.5-.7 1.6-1.1l2.1-.7 1.5 1.2a4 4 0 0 1 1.3 2.8c-.3 3.5.2 6.2 1.2 6.2.5 0 1-1.6 1-3.5V320l1.5-1 1.6-.8-1-3.6a14 14 0 0 1-.4-5.7l.5-2h-1.2c-.6 0-1.5 1.1-2 2.5s-1.4 2.5-1.8 2.5-1.6-1.8-2.6-3.9l-1.7-3.9-3.7-.6-3.7-.6-1 1-1 1 1 1.8c.6 1 .8 3 .5 4.7l-.6 3-1-.5c-.5-.3-.8-1.8-.6-3.3l.3-2.7h-1.1c-1.6 0-1.3-3.1.6-5.2l1.8-2-1.3-1.9a8 8 0 0 1-1.2-3.2c0-1.6-4.1-5.7-5.8-5.7h-1.2v6.7l-1.5 1.3c-.8.7-1.8 1-2.2.6-.4-.4-.1-2.7.6-5.3l1.2-4.6-1.6-1.8-1.6-1.7-2 1.9c-1 1-2.3 1.9-2.9 1.9h-1l.6-2.5.6-2.5h-1.4a5 5 0 0 0-2.5 1l-1 1.2-.7-1c-.7-1.3 3.2-4.2 5.6-4.2.9 0 2 .6 2.2 1.2l.6 1.3.6-1.3c.3-.6 1.2-1.2 2-1.2s2.7 1.3 4.3 3a18 18 0 0 0 3.4 3c.3 0 1.9 1.3 3.5 3 1.6 1.5 3.5 4.2 4.2 5.9a12 12 0 0 0 3.7 4.6l2.5 1.6 1.8-1.5c1-.9 2.2-1.6 2.8-1.6s2.2 1 3.3 2.2l2.2 2.3-.6-4.4-.7-4.4 1.7-2.5 1.6-2.5-.5-6.8-.6-6.7 2.5-3.5 2.6.6 2.6.7.6-1.6c.3-.9.6-4.1.6-7.2v-5.7l3-3c1.6-1.5 3-3.4 3-4.2 0-.7.4-1.3 1-1.3.5 0 .9-1.6.8-3.6l-.2-3.6 2.9-1.8 1.2 1.7c.7 1 1.7 3.3 2.2 5.3s.8 8.9.5 15.5 0 14.7.6 17.9l1 5.9-1.7 5c-1 2.9-2.7 6.5-3.9 8.2a22 22 0 0 0-2.8 5.1 8 8 0 0 1-2 3.3l-1.4 1.2-.7-3.2-.7-3.1-1 .9c-1 1.1 0 7.3 1.4 7.3h.9l-.7 4.7c-.4 2.6-1 5.8-1.5 7l-.9 2.3h1.5c.8 0 1.5.6 1.5 1.5v1.5h-4.9l-.6 3c-.4 1.6-1.3 3-2 3s-1.9.6-2.5 1.5c-.7.8-2.1 1.5-3.2 1.5-1 0-2.4.9-3 2-1.5 2.2-3.8 2.7-3.9.7zm8.6-9.4c-.3-.4-.6 0-.6.7s.3 1 .6.6c.4-.3.4-1 0-1.3zm5.4-1.9v-1.5l-1 .6c-.6.3-1 1-1 1.5s.4 1 1 1c.5 0 1-.7 1-1.6zm-4.4-1c-.3-.5-.6-.2-.6.6 0 .7.3 1 .6.6.4-.3.4-1 0-1.3zm.8-8.2c1-6 1.6-7.2 3-7.2.8 0 1.6.8 1.9 1.7l.4 1.8.1-2.7c.1-1.5-.3-3-.8-3.3-.5-.3-1.2-2-1.6-3.6l-.6-3 1.7-2 1.8-2h-3.3l-.6 2.6c-.4 1.4-.4 3.6 0 5l.6 2.5-2.5-.6-2.5-.6v1.1c0 .7.4 2.1 1 3.2l1.1 2-1.6 4a23 23 0 0 0-1.5 5.5v1.6l1.4-1.1c.7-.7 1.7-2.9 2-5zm4.3-1-.5-1.7v3c0 1.6.1 2.4.4 1.7.3-.6.3-2 0-3zm-12.7-16.7c0-.8-.2-1.5-.4-1.5-.3 0-.7.7-1 1.5-.3.8-.2 1.5.4 1.5.5 0 1-.7 1-1.5zm21.2-1.9c1-2 1.3-5 2.2-24.3l.5-11.2 1.4-3.3 1.3-3.3-.4-4.2c-.2-2.4-.8-4.3-1.3-4.3s-1 2-1 4.3v4.2l-1.9-2.5c-2.2-2.8-3.7-2.2-2.1.9 1.6 2.9 1.3 8.9-.6 13.8l-1.6 4.3 1.6 4.3c1 2.3 1.7 4.5 1.7 4.9s-1.4 1-3 1.6l-3 1v4.5l4-3.6v1.4c0 .8.3 2.4.6 3.6l.6 2.3-2.6 1c-1.5.5-2.6 1.6-2.6 2.4 0 2.8 1.2 4.4 3.1 4.3 1.1 0 2.5-1 3-2zm-11.8-2.2c.3-.9.5-2.8.4-4.2v-2.7l-.5 1.7c-.3 1-.9 1.8-1.4 1.8-.5 0-1 1.1-1 2.5 0 2.8 1.5 3.3 2.5.9zm1.8-16.1 1.7-3.7-1.8-1.8-1.6 3c-1.7 3.3-2 6.2-.7 6.2.4 0 1.5-1.7 2.4-3.7zm208.5 58.7-.7-1h2.6c1.4 0 2.6.4 2.6 1 0 .5-1 1-2 1s-2.2-.5-2.5-1zm-358.4-1c-.3-.6.5-2.4 1.9-4l2.5-3 .6 1c.3.5-.4 2.3-1.6 4s-2.4 3-2.5 3l-.9-1zm153.7-1.5c0-1.4.4-2.5 1-2.5.5 0 1 1 1 2.5s-.5 2.5-1 2.5c-.6 0-1-1.2-1-2.5zm68 1.5a1 1 0 0 1 2 0 1 1 0 0 1-2 0zm117.6-6 .6-5.4-1.2-.7c-1.5-1-2.3-9.6-1.2-13.9.5-1.8 1.5-3.6 2.3-3.8l1.3-.5-.8 4.9c-1 5.8-.8 11.6.4 12.3.5.3 1 2.4 1 4.7v4.2l-1.5 1.8-1.4 1.9.5-5.5zm50.8 4.3c-.7-.3-1.2-1-1.2-1.5 0-1.3 4-.6 4.1.6 0 1.2-1.2 1.6-2.9.9zm-227-1.4c-1-1.5.4-2.5 1.7-1.2l1 1-1 .7c-.5.3-1.3.1-1.7-.5zm110.2-1-.6-1h3.2l-.6 1c-.4.6-.8 1-1 1-.2 0-.7-.4-1-1zm-115.6-1.6c0-.9 1.1-2.7 2.5-4a14 14 0 0 1 3-2.3c.3 0 .5.9.5 2v2h-1.4c-.8 0-1.6.9-2 2-.6 2.4-2.6 2.6-2.6.3zm177.6.7-.7-1.3 1.3-.8c.8-.4 1.5-.7 1.7-.4.3.2 0 1-.5 2l-1 1.7zm-107.1-1.1c-1-1.5.1-2.3 2-1.6 1 .4 1.4 1.1 1 1.7-.8 1.3-2.2 1.2-3-.1zm153.7.1c0-1.4 1.6-2.1 3.4-1.4 2.4 1 1.9 2.4-1 2.4-1.3 0-2.4-.5-2.4-1zm-173.4-1.2c-.3-.7.3-3 1.4-5 1-2 2.5-6.5 3.3-10 1.3-5.8 3.2-8.6 4.7-7 .4.4 1 2 1.4 3.4l.6 2.8h-3.3l.6 2 .7 2-2 3.2-4.5 6.6-2.5 3.3zm159.4.2a1 1 0 0 1 2 0 1 1 0 0 1-2 0zm-377.1-2.7c-.7-1.5-1.3-3.8-1.3-5.1v-2.4l-5.8 1.3-4-2.5-2 1.8c-2.3 2-5.7 1.8-5.7-.4 0-.8 1.1-2 2.5-2.8l2.5-1.3 15 1.1 2.8-2.5c1.5-1.3 2.7-2.9 2.7-3.4s2-2.2 4.4-3.6l4.4-2.6 5.2 1.3v-5l5.7-6 7.6-1.5 2 3.6 1.8-2.4c1-1.3 2-2.2 2.2-1.9.3.3.7 2 1 3.7l.7 3.3h-7.8l-1.5 1.5c-.8.8-2 1.5-2.5 1.5-.6 0-1.5-.8-2-1.7l-1-1.6-1.1 2.2c-.7 1.2-1 3-.6 3.7l.5 1.5 4.2-1.3-1.6 3a14 14 0 0 0-1.6 4.6c0 .9-.6 1.6-1.5 1.6h-1.5v-2c0-1.1-.4-2-.9-2s-1.1.7-1.5 1.6l-.6 1.7-2-1.8c-1-1-2-2.4-2-3.2 0-1.8-1.9-1.7-2.6.2-.3.8-1.5 1.5-2.5 1.5-1.1 0-1.8.3-1.5.8.3.4-.2 2.2-1.1 4l-1.6 3.3-1.8-.5c-1-.2-1.9-.1-1.9.3s.6 1.2 1.2 1.9l1.2 1.2H245l3.6 2.8-.6 2.6c-.4 1.4-1.2 2.6-1.8 2.6-.7 0-1.8-1.3-2.4-2.7zm31.4-30a1 1 0 0 0-1.3 0c-.4.4 0 .7.6.7.8 0 1-.3.7-.7zm145.2 32.1c-.4-.4-.7-1.7-.7-2.8v-2l1 1c.7.7 1 2 .8 2.9-.2.9-.7 1.3-1 .9zm206.7-1.6c.2-.7 1.7-1.5 3.2-1.7l2.8-.3-.4 1.3c-.3.8-1.7 1.5-3.3 1.7l-2.7.3zm-69.7-1.3c.4-.9.8-1.5 1-1.5.2 0 .4.6.4 1.5s-.4 1.5-1 1.5c-.5 0-.7-.7-.4-1.5zm-133.7-2v-1.6l1 .6c.6.3.8 1 .4 1.5-.8 1.4-1.4 1.2-1.4-.6zm191.2-1-1.3-1.5 1.6-.6c1.7-.7 5.7 1.1 5.7 2.6s-4.7 1.1-6-.5zm-15-.5c0-.6.6-1 1.4-1 .9 0 1.6.4 1.6 1 0 .5-.7 1-1.6 1-.8 0-1.5-.5-1.5-1zm-184.2-1.4c0-.2.6-.7 1.4-1 .9-.3 1.8-.1 2.1.4l.6 1h-2c-1.2 0-2.1-.2-2.1-.4zm10.2-1.8c.6-1.9 2.8-2.2 2.8-.4 0 .9-.7 1.6-1.6 1.6-.9 0-1.4-.6-1.2-1.2zm137-1.8c.5-1.1 1.2-2 1.5-2 .2 0 .4.6.4 1.4 0 .7-.7 1.6-1.5 2l-1.5.5zm-140.5-3.3a60 60 0 0 1 1.3-7.2l.9-4.5.7-7.2.6-5.7-1.1-4.8-1.2-4.9 2-4.8 2.1-4.9V270a38 38 0 0 1 4-18.6 12 12 0 0 0 2.6-5.3l.6-3.2 4.2.6c2.2.3 4.7.8 5.4 1 2 .6 1.4 2.4-.8 2.4h-2l.6 3.3 1 5.4c.5 2.8-.5 5.3-2.2 5.3h-1.4v2.5c0 1.4-.5 2.5-1 2.5-1.5 0-1.2-5.8.4-6.7l1.4-.8-.5-5.2c-.3-3-1-5.3-1.4-5.3-1.5 0-3.3 4.5-3.5 9a67 67 0 0 1-.9 8.3l-.7 3.7 1.7-.6 1.7-.7-.7 4.4a74 74 0 0 1-1.1 6.1c-.3 1 0 1.8.5 1.8.6 0 1.4-.8 2-1.8a47 47 0 0 0 2.2-8.2l1.3-6.5.9 3 .9 3-2.4 7-2.3 7-6.2.6v5.9h1.3a2 2 0 0 1 1.7 1.2c.2.7-.2 3-1 5.2a27 27 0 0 0-1.3 5.2c0 .8.7 1.4 1.5 1.4 1.7 0 3.5-3.9 3.5-7.6V293l3.8-1.7 4.2-2.1c.3-.2-.3-.8-1.3-1.3l-1.7-1v-5l4-1.1v-2a3 3 0 0 1 1.6-2.5c.8-.3 1.7-.4 1.9-.2.2.2-.2 2.1-.8 4.2l-1.2 3.7-2.5-1v2.4c0 1.4.5 2.6 1.1 2.8l1.1.4-1 3.7-1 3.7h1.9c2 0 2.6 1.5.8 2.6-.6.3-1.4.1-1.8-.5l-.8-1.2-1.7.7-1.8.7.7-2.2.6-2.1h-1c-.6 0-1.1 1.3-1.1 3v3.7c0 .4 1 1 2.2 1.3l2.3.6-8.8 1.5-3.6 4c-2 2.1-4 3.9-4.4 3.9-.4 0-.7-1-.8-2.3v-2.2l-1 2c-.4 1-.8 3.8-.9 6 0 4-1.8 7.5-3.8 7.5h-1l.5-4.3zm9.3-21.5v-3.7l-1.5 3.4a31 31 0 0 0-1.5 3.7c0 .2.7.4 1.5.4h1.5V297zm-3-13.8v-1.5l-1 .6c-.6.3-1 1-1 1.6 0 .5.4.9 1 .9.5 0 1-.7 1-1.6zm5-4.7c0-.8-.3-1.7-.7-2-.7-.8-3.3 1.1-3.3 2.4 0 .5.9.9 2 .9h2zm-247.4 37.3-.3-6h3.4l.6 2.2c.2 1.3.6 3.9.7 5.8l.3 3.5-2.2.3-2.2.3-.3-6zm427.6 4c0-.7 1.3-1.6 3-2.2 1.6-.5 3-1.4 3-2 0-.4-1-.8-2-.8s-2-.5-2-1v-1l4.5.1c2.5 0 4.7.5 5 .9.2.4-1.3 2.1-3.5 3.8-3.8 3.1-8 4.2-8 2.1zm-183.6-1.5-.5-1.5h1.4c.8 0 1.5.7 1.5 1.5s-.4 1.5-.9 1.5-1.1-.7-1.5-1.5zm224.6.5c0-.6.7-1 1.5-1s1.5.4 1.5 1-.7 1-1.5 1-1.5-.5-1.5-1zm7.6.3c-1.4-1.5 1-2.3 7-2.3h6.6l-.4 1.1-.4 1.2-6 .3a22 22 0 0 1-6.8-.3zm-247.3-1.3c.3-.6.8-1 1-1 .3 0 .5.4.5 1s-.5 1-1 1c-.7 0-.9-.5-.5-1zm105.5-1.3c-2-1.5-4-5-4-7.2 0-2.7 2.8-1.6 5 2 2.1 3.6 2.7 6.5 1.3 6.4-.4 0-1.4-.5-2.3-1.2zm130.9.6c-.4-.4-.7-1.6-.7-2.7v-2l1.5 2c.8 1 1.5 2.2 1.5 2.6 0 1-1.4 1-2.3.1zm-360-1.3c0-.5.8-1.4 1.7-2l1.8-1.1-1.3-.6c-.7-.2-1.2-1.7-1.2-3.2 0-1.5-.5-3.2-1-3.7l-1-1 1.7-1.7c1-.8 3.6-1.7 5.8-1.9l4-.3.3 3.7.3 3.8h-1c-.6 0-1.1-.9-1.1-2 0-1-.7-2-1.4-2.3-.8-.3-2 0-2.7.8l-1.2 1.5 1.3 3 1.3 3-2.7 5h-1.8c-1 0-1.8-.4-1.8-1zm143.1-.5c0-.8.5-1.5 1-1.5.6 0 1 .7 1 1.5s-.4 1.5-1 1.5c-.5 0-1-.7-1-1.5zm168.8.8c-1.2-1.2-.7-2.2 1.5-3.4l2-1.1 2.2 2.1-1.3 1.5c-1.4 1.7-3.3 2-4.4 1zm28.4-2.1c0-1.5 6.6-6.2 8.6-6.2 2.5 0 8.4 2.2 8.4 3.2 0 1.2-4.8 1-7-.4l-1.9-1.2-1.8 2.1c-1 1.2-2.8 2.4-4 2.8l-2.3.6zm-412.4-2.5c0-.9-1.2-2.5-2.8-3.6l-2.7-2 1.2-2 1.3-2.1h-4.8l-1.6-2.3-1.5-2.2-1 1.4-1 1.5-1.5-1.3c-1.8-1.5-2-3.9-.6-6.1l.9-1.5 2.8 3.8.5-2.2c.3-1.1 1-2.1 1.7-2.1.6 0 1.1 1 1.1 2.2v2.3l2.6 1.8c1.4 1 2.8 1.6 3.2 1.2s0-1.2-.9-1.8c-.8-.7-1.8-1.9-2-2.7s-.3-2.4.1-3.5l.8-2 1 2.8c.7 1.5 1.8 3 2.6 3.3.8.3 1.7 1.5 2 2.8a6 6 0 0 0 3 3.4c1.5.6 2.6 1.8 2.6 2.7 0 .8.2 1.5.4 1.5s2.4-1.1 4.8-2.5c2.3-1.4 5.3-2.5 6.6-2.5 1.2 0 3 .4 4 1l6.5 3c2.6 1 4.7 2.4 4.7 3v1.2l-2.6-.7-2.6-.6-1.3 1.1c-1.6 1.3-3.5.5-3.5-1.6V305h-1.8c-1 0-2.3-.5-3-1.2l-1.1-1.1-1 2.6c-1 2.8-2.5 3.4-3.6 1.7-1-1.7-3.2-1.1-3.8 1-.6 2.4-2.7 2.7-2.7.4 0-2-4-5.3-6.3-5.4-2.4 0-2.2 2.7.3 3.5 1 .3 2 1.3 2 2 0 .8.4 1.5 1 1.5.5 0 1 .5 1 1 0 .6-.5.8-1 .5-.6-.4-1.7-.1-2.6.5l-1.4 1.2zM181 311c-.3-.5-.3-1.6 0-2.4l.6-1.5-1.8-1.7-1.7-1.7 1.2-1.9c.6-1 1.2-2.5 1.2-3.3 0-.8-1.1-1.7-2.4-2-2.5-.6-4.1-3-3-4.7.2-.5 1.5-1 2.8-1s3-.8 4-1.8c.9-1 3.5-2.2 5.7-2.5l4-.6 4.2 2.9-4-.2a20 20 0 0 0-7 1.2l-3.1 1.2.1 7 .2 6.8 1.2.5a2 2 0 0 1 1.2 1.8c0 .7-.6 2.1-1.4 3l-1.4 1.9zm203.1-.1c.4-.6.9-1 1.1-1 .3 0 .5.4.5 1s-.5 1-1.1 1c-.6 0-.8-.5-.5-1zm52.8-1c-.6-1.1-1.2-2.3-1.2-2.6s.6-.4 1.4 0c.8.2 2.2-.2 3.3-1 1-.7 2.1-1.4 2.6-1.4 1.5 0 .6 2.6-1.7 4.7-1.3 1.3-2.5 2.3-2.8 2.3s-.9-1-1.6-2zm13.8.2c0-1 3-4.6 6.5-8l6.4-6.4 2.2 1.3-2.1 3a30.5 30.5 0 0 1-6 5.6c-2.1 1.5-4 3.6-4.3 4.5s-1 1.8-1.6 1.8-1-.8-1-1.8zm111.1-.6c0-.9.7-1.6 1.6-1.6.9 0 1.4.5 1.2 1.2-.6 1.8-2.8 2.1-2.8.4zm51.8-.2c-1.4-1.5-.7-2.4 1.8-2.4h2.6l-.4 1.2c-.5 1.5-3 2.2-4 1.2zm10 0c-1.2-1.2.3-2.4 3-2.4h2.4l-.4 1.2c-.4 1.4-4 2.2-5 1.2zm-363-2.4c0-.7.2-1 .6-.7.4.4.4 1 0 1.4-.4.3-.7 0-.7-.7zm344.2 0-1.5-1 1.5-1c.9-.5 2-1 2.7-1 2 0 2.8 2.1 1.2 3-.7.6-1.6 1-1.8 1-.3 0-1.2-.5-2-1zm-281-3c-.2-1.1-1-2-1.6-2.1l-3.1-.3-2-.1V299l.1-2.2H316c-.7 0-2.5.5-4 1-1.5.6-3 .8-3.2.5-.3-.2 0-1 .7-1.9 1.3-1.6 6.4-2.8 8.6-2 .8.3 1.5 1.5 1.5 2.5v1.9h5l1 2.6c.6 1.4 1 3 1 3.5s-.5.9-1.1.9c-.6 0-1.3-1-1.6-2zm157.2 1.3a2.2 2.2 0 0 1-1.3-1.9v-1.4h4v1.4c0 1.8-1 2.5-2.7 1.9zm-151.4-1.3c0-.7.3-1 .7-.7.3.4.3 1 0 1.4-.4.3-.7 0-.7-.7zm-78.8-2.2-2.2-2.1 1.5-2.9c.8-1.5 2.2-2.8 3-2.8h1.5l-2.2 4.2 1.6 1.8c1 1 1.4 2.3 1 3-.3.5-1 1-1.3 1-.4 0-1.7-1-2.9-2.2zm270.3 1.1-1-1 1-3 1.1-3 3.8-1.1c2.1-.6 4-.8 4.4-.5 1 .9-1.6 3.7-3.2 3.7-.8 0-1.4.3-1.4.7 0 .5-.8 1.8-1.8 3l-1.8 2.3zm-323.4-2.2.3-2.2 3.3-.6-.3 1.8-.4 2.5c0 .4-.8.8-1.7.8h-1.6zm29.4.5a31 31 0 0 1-1.2-6c-.3-2.8-1.3-5.7-2-6.3-.8-.6-1.4-1.7-1.4-2.4s-.6-2.4-1.3-3.8l-1.3-2.5-2.7 3.3-2.7 3.4-1.5-.6c-.8-.3-1.5-1.6-1.5-2.8V281l3-1 3.1-1.2-1.2-4h3.8l1.1 2.5c.6 1.4 1.6 2.5 2.1 2.5.6 0 1.3 1.6 1.7 3.5.3 2 1 3.5 1.4 3.5 1.1 0 1.7 2.2 2.6 9.2l.6 5.8h-1a2 2 0 0 1-1.6-.8zm59.8-2.8c-.4-1-1.7-2.7-3-4.1-2.3-2.5-4.3-2.4-4.3.3v1.6l-1.3-.5c-.7-.2-1.4-1.7-1.6-3.3a6.8 6.8 0 0 0-2.2-4.2c-1-.7-2-2-2-3v-1.7l-1.3 1.6c-.6 1-2.1 1.8-3.2 2l-2 .4-.3 2.3-.3 2.4-2.3-.6-2.4-.6-.5 1.5c-.3.8-1.5 1.5-2.6 1.5h-2v-1.5c0-.8.3-1.5.8-1.5.8 0 7.2-4.5 13.6-9.5a6.2 6.2 0 0 1 4-1.3l2 .3.4 2.5a8.4 8.4 0 0 0 2.2 4.3l2 1.7 4.7-1.2.6 2.5.6 2.5 5.2 1.3-.5 1.5a10 10 0 0 0-.6 3c0 2-3 1.8-3.7-.2zm69-2c.2-1.3.6-2.4 1-2.4s.6 1.1.5 2.5-.5 2.5-.9 2.5-.6-1.1-.5-2.5zm-158.1-2.8c-1.2-1.9-2-3.7-1.6-4 1-1 6.1-.7 6.8.4.3.6 0 1.3-1 1.6l-1.5.6 1 1.8c.5 1 1 2.1 1 2.4 0 .3-.6.6-1.3.6-.7 0-2.2-1.6-3.4-3.4zm46 2.7a1 1 0 0 1 1.4 0c.4.4 0 .7-.7.7s-1-.3-.6-.7zm52-.5c.6-1.9 2.8-2.2 2.8-.4 0 .9-.7 1.6-1.6 1.6-.9 0-1.4-.5-1.2-1.2zm155.6-2.4c-.3-.4.5-1.6 2-2.7 1.3-1 2.7-1.7 3-1.4.2.3-.1 1.4-.8 2.6-1.4 2-3 2.7-4.2 1.5zm-122.6-4a27 27 0 0 1-3.2-4c0-.2.9-.4 2-.4s2-.5 2-1-.9-1-2-1-2-.5-2-1c0-1.3 5.7-1.3 6.5 0a1 1 0 0 1-.3 1.4c-1 .6-.3 5.4 1 6.2 1 .7 1 3.4 0 3.4-.5 0-2.3-1.6-4-3.6zm-81 2a1 1 0 0 1 1.4 0c.4.3 0 .6-.7.6s-1-.3-.6-.7zm56.5-1.1-1.6-1.8 1.3-1.8a4 4 0 0 1 3-1.7h1.8l-.7 2.7c-.3 1.6-1 3.1-1.4 3.6-.4.4-1.5 0-2.4-1zm200.2-2.6a67.8 67.8 0 0 1-3.2-4.5l-.7-1.3 1.2-1.4c.7-.8 1.7-1.5 2.3-1.5 1.4 0 3.2 4 4 8.7l.6 3.3h-.9c-.5 0-2-1.5-3.3-3.3zm148.4.3c0-.6 1.1-1 2.5-1.2l3.7-.2c.6 0 1.3.5 1.6 1.1l.4 1.3h-8.2zm-412-2.5c-1.9-1.2-3-2.5-2.7-2.9 1.3-1.2 4.4-.6 6.3 1.4 1.1 1 2 2.4 2 3 0 1.6-2.2 1-5.7-1.5zm143.6-.5c-1.2-1.7-2.9-3-3.6-3-.8 0-1.2-.6-1-1.3.2-.6 1.6-1.3 3-1.5l2.8-.3v2c0 1.2.9 2.6 2 3.3 1 .7 2 1.8 2 2.5 0 2.3-3 1.3-5.2-1.7zm-66 .1c0-.4.8-2.2 1.6-3.9s2.2-3.3 3-3.6l1.5-.5v1.5c0 2.5-3 7.4-4.5 7.4-.8 0-1.5-.4-1.5-.9zm133.6-.6c-.8-2.1 1.5-7.5 3.2-7.5.8 0 1.4.4 1.4 1 0 .5.6 1 1.3 1h1.3l-.4-4c-.2-2.1-1-4.4-1.8-5l-1.4-1.2V265c0-2 .7-4.6 1.6-5.8l1.5-2.2h6.5l6.4.2v3l-6-1v2.7h6.9l.4 1.2.4 1.2 1.2-.8 1.2-.7-.8-1.2a10 10 0 0 1-.8-4.2v-3l-3.2.3c-3.4.2-5.4-1.5-3.1-2.9 2-1.3 6.2-1 7.6.3l1.2 1.2 1.5-2 1.4-1.9 2.7 2.6-1.8 1.3c-1.7 1.3-2.4 3.6-1.1 3.6.3 0 1.2-.7 1.8-1.7l1.3-1.6 1.6.6c1 .4 1.7 1.6 1.7 2.7 0 1-.5 2-1 2-.6 0-3 1.8-5.2 4l-4.2 4.1-1.8-.4-1.9-.5v2.4c0 1.3-.4 2.4-1 2.4s-1.2-1.6-1.5-3.5c-.4-2-1-3.5-1.5-3.5-.4 0-1 .7-1.4 1.6l-.6 1.6-2.8-1-.6 1.4-.6 1.8c0 .2 1.2.1 2.5-.2l2.5-.4v3.3c0 1.9-.3 3.9-.7 4.5a7 7 0 0 1-3 1.8c-1.2.4-3.5 2.2-5.2 4.1-1.6 2-3.5 3.5-4 3.5-.7 0-1.4-.7-1.7-1.5zm11.1-9.5c.4-.6.4-1 .1-1s-.7.4-1 1c-.4.5-.5 1-.2 1s.8-.5 1.1-1zm-.5-13.4c0-.8-.3-1.7-.8-2-.4-.2-1.4 0-2.2.5l-1.5.9 1.5 1c.9.5 1.9 1 2.3 1 .4 0 .7-.6.7-1.4zm-3 22.9v-1.5h4v3h-4zm88.6.6c-.3-.6-.3-1.5 0-2 .3-.6-.1-3.4-1-6.3l-1.5-5.1 1.5-1.7c.8-1 1.5-2.2 1.5-2.8 0-.6.9-1.3 2-1.7 1-.3 2-1.3 2.4-2.1 1.2-3 2.6-.2 2.6 5.2v5.5l-3.5-1 .3 4.7.4 4.7-2 1.8-2 1.8zm-250-4.3c-1-3.6-.8-4.8.8-4.8h1.5v4l3.2-1.3-.4 1.9-.3 1.9-2.2.3-2 .3zm-62.8.2c0-.7.3-1 .7-.7.3.4.3 1 0 1.4-.4.3-.7 0-.7-.7zm12-1.5-1-2.6 1.2-1.8c.7-1 2.9-2.4 4.9-3l3.7-1.1 1.3-5 3.4-1.7 3.4-1.6 1.6.7 1.7.6-.4 1.7-.3 1.8h-2.6c-3.1 0-7.9 3.4-7.9 5.6 0 2-2.3 3.1-4.4 2.3-.7-.3-1.7 0-2.1.6l-.7 1.2 2.5 1.6-.6 1.6c-.3.9-1 1.6-1.7 1.6s-1.5-1.1-2-2.5zm262 1.8c-1.3-1.2-.8-3.3.8-3.3h1.5v2c0 2-1.1 2.6-2.4 1.3zm-140.2-1.8c-1-1-1.7-2-1.7-2.5 0-.4-.9-1-2-1.3-1-.3-2-1-2-1.6 0-.6 1.1-1.6 2.5-2.3l2.5-1 1.4 1.1a9 9 0 0 1 2.2 4.3l.6 3-1 1-.9 1zm-16.5-2.7-3.3-2 .3-2.1c.2-1.1.8-2.2 1.3-2.3.6-.1 2.3 1.3 4 3.2l2.8 3.5-1.8 1.8zm-119-.8.6-2.2-2.7-2.7c-1.5-1.5-3.5-3-4.5-3.4-1-.4-2.2-1.8-2.7-3.2-.5-1.4-1.6-2.5-2.4-2.5-.8 0-2.6.4-4 1-1.4.5-2.8.6-3 .1-.3-.4.9-1.5 2.5-2.5l3-1.8 2.7.7c1.5.4 3.5 1.4 4.5 2.2 1 .9 1.7 2.4 1.7 3.5v1.8h3.8l4.5 7.3-1 1.5c-.5.9-1.5 1.8-2.3 2l-1.3.5zm107.8.5v-1.5l-2.7.6-2.8.7 1.3-1.4c.6-.7 1.2-1.6 1.2-2 0-.5-1.3-.6-3-.3l-3 .6v-.9c0-1.3 5.3-4 7.1-3.6 1.8.4 4 4.4 4 7.3 0 1.1-.5 2-1 2-.6 0-1-.7-1-1.5zm337.1 0a58 58 0 0 0-10-1.6l-12.6-1.5-3.2-.6v-1.3c0-1.7 4-3 4.9-1.8.3.5 6.5 1.7 13.6 2.7 7.2 1 13.4 2 13.8 2.3.4.2.7.8.7 1.4 0 .5-1.5.9-3.3.9-1.8 0-3.6-.2-3.9-.5zm-389.5-1.1c-.3-.4-.6-1.4-.6-2.3v-1.6l-7-2.2v1.3c0 .8-.7 1.4-1.6 1.4h-1.5v-6.2l-2-.5c-1-.3-2-1.2-2-2V262h-1.9c-1 0-2.2-.4-2.5-1l-.6-1 2.7-.6 2.7-.7 1.5 2.1c.7 1.2 2 2.2 2.8 2.2s1.6 1 1.9 2.3l.5 2.2 8.2.1 1.4 2c.8 1 1.3 2.8 1.1 3.8-.3 2-2 3-3 2zm31 0c-.3-.4-.6-1.7-.6-3 0-1.2-.7-2.7-1.5-3.4s-1.5-1.9-1.5-2.6c0-1.3.4-1.6 3.1-1.8.7 0 1.8 2 2.5 4.4a31 31 0 0 1 1.4 5.7c0 1.4-2.2 1.8-3.3.6zm191.6-.3a2 2 0 0 1 .9-1.5c1.3-.8 4.2.4 3.5 1.5-.7 1.2-4.4 1.2-4.4 0zm-13.3-.8c.7-.2 1.3-1.3 1.3-2.3V270l2-.6c2-.7 4 0 4 1.5 0 .6-1.7 1.7-3.7 2.5s-3.9 1.5-4.2 1.4c-.4 0 0-.3.6-.6zm-117.9-2.7c0-.7.7-1.9 1.5-2.6 1.6-1.3 4.7-1 5.2.5.2.5-.9 1.6-2.4 2.2a13 13 0 0 1-3.5 1.3c-.4 0-.8-.6-.8-1.4zm238.3-.2v-1.5l1.6.3c1 .2 1.9.9 2.1 1.5l.4 1.3h-4zm8.6 1c-1.1-1.2-.7-2.4.9-2.4.8 0 1.5.7 1.5 1.5 0 1.6-1.2 2-2.4.8zm-282.7-1.4c.2-.6.7-1.1 1-1 1.3 0 1 1.4-.2 1.8-.7.3-1 0-.8-.8zm103-2.3V265l1.3-.5c1.5-.6 2.9-4.7 1.5-4.7-.5 0-.9.5-.9 1s-.4 1-1 1c-.4 0-1.1-1.4-1.5-3l-.7-3.2 1.1-1c.6-.7 1.1-1.8 1.1-2.6 0-1.7 2.9-4.1 4.9-4.2h1.3l-.5 1.5c-.3.8-.1 2.8.5 4.6l1 3-1 1.2c-.7.6-1.2 2.3-1.2 3.7 0 1.5-.9 3.6-2 4.8-1 1.2-2 2.6-2 3.1s-.4 1.3-1 1.6l-1 .6zm4-14.3v-1.5l-1 .6c-.6.3-1 1-1 1.6 0 .5.4 1 1 1 .5 0 1-.8 1-1.7zm0 16.6a1 1 0 0 1 2 0 1 1 0 0 1-2 0zm187.6 0a1 1 0 0 1 .2-1.3c.5-.3 2.5-.8 4.5-1.2l3.8-.7v3l-3.1.6-4 .6c-.5 0-1-.4-1.4-1zm-327.8-2.4c-.5-1.4-1.5-2.6-2-2.6-.7 0-2 1-3 2.2l-1.7 2.1-1.2-.7-1.1-.7 1.6-2.4c1.6-2.6 7.5-5 9.9-4.1l1.4.5-.3 3.8c-.2 2-.9 3.9-1.5 4-.6.3-1.5-.7-2-2.1zm15 1.4c0-.5 1.1-1 2.5-1s2.5.5 2.5 1-1.1 1-2.5 1-2.5-.5-2.5-1zm191.5.3a1 1 0 0 1 1.3 0c.4.4.1.7-.6.7-.8 0-1-.3-.7-.7zm-141.6-2c.7-.3 1.5-.2 1.9.1.3.3-.3.6-1.3.5h-2zm124.7-1.4c-1-1.5.2-2.3 2-1.5 1 .3 1.4 1 1 1.6-.8 1.3-2.2 1.3-3 0zm102.7.1c-2-.4-6.2-1.5-9.4-2.4-3.1-.9-7.3-1.6-9.2-1.6-5.6 0-4-1.6 1.8-1.7 5.2-.2 8.8.6 15.8 3.3 1.9.8 5.3 1.3 7.5 1.1s4.2.3 4.5.8l.5 1-4 .2a36 36 0 0 1-7.5-.7zm-411.8-.8c-.4-.6 0-1.4.6-1.9a27 27 0 0 1 9.5-3.8l3.3-.7 3.4 1.2c1.9.6 3.7 1.8 4 2.7.4 1 .2 2.1-.4 2.7l-1.1 1.1-4.1-5.5-3.7.6c-2 .4-4.3 1.2-5.1 2-2.2 1.7-5.8 2.6-6.4 1.6zm450.1.1a1 1 0 0 1 1.4 0c.3.4 0 .7-.7.7s-1-.3-.7-.7zm-72.4-1.3c0-1.5 5-3.2 8-2.8l2.5.4-3.8 1.7c-2.2 1-4.5 1.7-5.3 1.7-.8 0-1.4-.5-1.4-1zM365 263.6c-.8-1.4 1.4-2.9 3.9-2.5 1.3.2 2.4 1 2.6 1.8l.3 1.5h-3.1c-1.8 0-3.4-.4-3.7-.8zm125.4-1.1c-2.7-2.7-3-4.6-.7-5.4.6-.2 1.5.5 1.8 1.5a8 8 0 0 0 2.3 3l1.6 1.2-1.2 1.2-1.2 1.1zM290 260.7c.4-1.8 1.2-3.9 1.7-4.5 1.4-1.8 3.8-1.6 3.8.2 0 .8-.4 1.5-.8 1.5s-1.3 1.4-2 3c-.8 1.7-1.8 3-2.4 3h-1zm331.5.5c-2-.8-3.7-2.1-3.7-2.9 0-.8.4-1.4 1-1.4s3.3.7 6 1.6l5 1.6v2.8h-2.3c-1.2 0-4-.8-6-1.7zm-56.8-.3c-.8-.5-1.2-1.2-.8-1.5 1-1 5.9.6 5.3 1.6-.8 1.2-2.6 1.1-4.5 0zm-8.8-2.6c-1.2-.8-2.2-2-2.2-2.5 0-1.3 2.2-1 4.5.6l2 1.5-2 2zm-48.2-1.4c-.6-1-2-2-3-2h-2v-1.5c0-.8.3-1.5.7-1.5a27.1 27.1 0 0 1 9.7 5.7l.5 1.3h-4.9zm-162-.4c.2-1 .8-1.7 1.3-1.6 1.5 0 1.2 2.3-.3 2.8l-1.4.4zm32.8-.2v-1.5l3.7.3c2 .2 3.9.9 4.1 1.6l.4 1.2h-8.2zm144.4-.1c.1-1 1.1-2 2.1-2.1l1.8-.4-1 2.1c-.7 1.2-1.7 2.1-2.2 2.1-.6 0-1-.8-.7-1.7zm24.8-.3c0-.5.9-1 2-1s2 .5 2 1-.9 1-2 1-2-.4-2-1zm-212.6-.9c-.3-.5 0-1.1.8-1.4 1.5-.6 2.6 0 2.6 1.5 0 1-2.7 1-3.4 0zm30.4 0c0-1.4 4.2-4.1 5.3-3.5l.9.6-1.8 2c-1.8 1.9-4.4 2.5-4.4.9zm174.7 0c-.3-.5 0-1.2.5-1.6 1.2-.7 3 .2 3 1.6 0 1.2-2.7 1.2-3.5 0zm-359.1-.7c-.4-.4-.7-2-.7-3.5 0-3 2.5-6.3 4.2-5.2l1 .6-1.6 1.2c-.9.7-1.4 1.4-1.2 1.7.3.2.2 1.7-.2 3.2-.4 1.5-1.1 2.4-1.5 2zm124.4-.3c0-.6.4-1.3 1-1.6l1-.6v1.5c0 .9-.5 1.6-1 1.6-.6 0-1-.4-1-1zm18.4-.2c-.3-.6-.2-1.5.4-2l1-1.1 1.1 2.1 1.2 2.1h-1.5c-.8 0-1.8-.5-2.2-1zm209.3.1c.3-.5.8-1 1.1-1s.2.5-.1 1-.8 1-1.1 1c-.3 0-.2-.4 0-1zM350.6 252c0-.5.7-1.4 1.4-2l1.4-1.2 2.7.7c1.5.4 2.3 1 1.9 1.4-1.3 1.2-7.4 2-7.4 1.1zm-104.4-.8c-.4-.3-.2-1.2.5-2 1.2-1.5 4.8-1.8 4.8-.3 0 .5-.8 1.4-1.9 2l-2.3 1c-.3 0-.7-.3-1.1-.7zm64.4-.3c0-.5 1.8-1.9 4-3l4-2 2.5.6 2.6.6-.7 2.2c-.4 1.1-.8 2.3-1 2.5-.1.1-.7 0-1.3-.3-.6-.4-.7-1.4-.4-2.2l.6-1.5-3.9 2a16.7 16.7 0 0 1-5.1 2.1c-.7 0-1.3-.4-1.3-1zm79.3-.5c-2.3-1.7-3-4.5-1.1-4.5.6 0 2.4 1 4 2 2.8 2 3 4 .5 4-.6 0-2.2-.7-3.4-1.5zm-98.7-.2c-.2-.5 0-1.8.5-3l.8-2.3 3 1.2-1.1 2.4c-1.2 2.4-2.3 3-3.2 1.7zm53.4-.3c0-.5.7-1 1.5-1s1.5.5 1.5 1-.7 1-1.5 1-1.5-.4-1.5-1zm250.3-2.4a27 27 0 0 1-6.8-5.3l-1.5-2.3 3.4-1.2 2.2 1.9a79 79 0 0 0 6.4 4.7 15 15 0 0 1 4.3 3.6c0 .5-.6 1-1.3 1.3-.7.3-3.7-1-6.7-2.7zm-292.7-.2-.6-2c0-.3 1-.4 2.2-.2l2.3.3.3 1.8.3 1.7h-2c-1 0-2.2-.7-2.5-1.6zm31.4-.8 1.9-2 3.2 1c1.8.5 3.4 1.5 3.7 2.2l.4 1.2-5.6-.3-5.5-.2zm142.1.4-1.5-1h1.8c1 0 1.7.5 1.7 1s0 1-.2 1l-1.8-1zm-285.6-1.7c-.4-.4.3-10.6.8-12 .3-.7 1-1.3 1.6-1.3h1l-.6 5-.7 5h3c1.7 0 3.8.3 4.7.6l1.6.6v-2.4c0-1.4.5-4 1-5.6l1.2-3.2 2.3-.6c2.5-.6 4.5.1 4.5 1.6 0 .5-1.2 1-2.8 1.2l-2.7.3-.3 4.5c-.2 2.5-.7 5-1.2 5.4-.5.5-3.6 1-7 1-3.3.1-6.2 0-6.4 0zm74.7-1-.6-1.6 5.5-4.7h11l-.6 1c-.4.6-2.5 1-4.9 1h-4.1l-2 3c-1.2 1.7-2.4 3-2.8 3-.5 0-1.1-.7-1.5-1.7zm205.4.6c-.9-1.4 1-3.3 2.5-2.4.6.3 1 1.3 1 2 0 1.8-2.5 2-3.5.4zm-46.2-.7-1.2-.7.8-1.3.8-1.3 7.5 1.4-.9.8c-1.3 1.3-5.7 2-7 1.1zm-60.8-1-.6-1 3.8-1.1c4.6-1.3 8-1.4 8.7-.2.3.5-1.1 1.1-3.2 1.4-2 .3-4.7.8-5.9 1.2l-2.1.7zm14-.2-.7-1h2.6c1.4 0 2.6.5 2.6 1 0 .6-1 1-2 1s-2.2-.4-2.5-1zm-158.7-2.5v-1.6l1 .6c.6.4.8 1 .5 1.6-.9 1.4-1.5 1.1-1.5-.6zm218.6-1-2.7-2.7-.8 1.4-.8 1.3-1.2-1.2c-1.6-1.6-.4-4.3 1.8-4.2 1 0 3.1 1.6 4.7 3.5 1.6 2 2.6 3.7 2.3 4-.3.4-1.8-.6-3.3-2zm-151.5.5c0-.5 1.3-1 3-1h3l-.5 1c-.4.6-1.7 1-3 1-1.4 0-2.5-.4-2.5-1zm102-.8c0-1.4 5.1-6.2 6.6-6.2 2.9 0 2.3 2-1.3 4.1-5 3.1-5.2 3.2-5.2 2.1zm72.9-1.9c-2-1.4-3.5-3-3.2-3.4.3-.5 1.5-.9 2.6-.9 2.4 0 7.2 4.7 6.3 6-.3.6-.9 1-1.3 1s-2.3-1.3-4.4-2.7zm-127.9.7c0-.5-.9-1-2-1s-2-.5-2-1.1v-1.1l7.9 1.2.6-1c.4-.5 1.1-1 1.7-1s0 1.1-1.3 2.5c-2.4 2.5-4.9 3.3-4.9 1.5zM232 237c-.4-.6-1.5-.8-2.6-.5l-1.9.6v-.9c0-2 2.6-2.9 6.8-2.4 2.3.2 4.2.8 4.2 1.3s-1.1 1.4-2.5 2l-3 1c-.2 0-.7-.6-1-1.1zm122.4.4c-1.3-1.2.3-2.4 3.4-2.4h3l-.4 1.3c-.5 1.3-5 2.2-6 1.1zm51.5-2.4c-1.3-1-2.1-2.4-1.8-2.9l.6-1 3.5 2.2c1.9 1.2 3.4 2.6 3.4 3 .1 1.4-3.4.6-5.7-1.3zm11.1 1.3a1 1 0 0 1 1.4 0c.3.4 0 .7-.7.7s-1-.3-.7-.7zm-96.2-2 .3-1.8 3.3-.3c1.7-.2 3.2.1 3.2.6 0 1-4.3 3.2-6.1 3.2-.6 0-.9-.8-.7-1.7zM217 234c.4-.6 1-.8 1.6-.4 1.4.8 1.1 1.4-.7 1.4h-1.5zm170.2-2c.3-.6 1-.8 1.5-.4 1.4.8 1.2 1.4-.6 1.4h-1.6zm31 0-.6-1h1.5c.9 0 1.6.5 1.6 1s-.4 1-1 1c-.5 0-1.2-.4-1.5-1zm33 .2a23.2 23.2 0 0 1-5.5-8c0-2.3 3-1 5.5 2.2 3.4 4.4 3.4 8.2 0 5.8zM301 230.8c-.3-.6-.1-1.6.5-2.2l1-1 1.2 1c1.2 1.2.4 3.3-1.1 3.3-.5 0-1.2-.5-1.6-1zm17 0c-.9-1.4.2-2.2 2.1-1.5.9.3 1.3 1 1 1.6-.8 1.3-2.2 1.3-3 0zm93-.3c-.2-.8-.2-2 .2-2.7l.8-1.2 1.3 1.9a7 7 0 0 1 1.4 2.6c0 .5-.7.8-1.5.8-.9 0-1.8-.6-2.1-1.4zm166.3.4-.6-1h3.3l-.7 1c-.3.6-.7 1-1 1s-.6-.4-1-1zm-265.7-1c0-.5.7-1 1.5-1s1.5.5 1.5 1-.7 1-1.5 1-1.5-.4-1.5-1zm-23-.7c0-1 5.8-4.3 7.6-4.3.7 0 1.4.5 1.4 1s-.9 1-2 1c-1 0-2.6.7-3.4 1.5-1.6 1.6-3.6 2-3.6.8zm91-1.3-1-2h1.3c1.5 0 3.8 2 3.8 3.2 0 .5-.7.8-1.5.8s-2-.9-2.5-2zm-187 .3a192.9 192.9 0 0 0 3.8-8.3c1-1.8 8.1-6.9 9.8-7 .7 0 1.3.7 1.3 1.5 0 .7-2 2.4-4.5 3.6l-4.5 2.3v2.1c0 1.2-1 3.1-2.3 4.3-2.3 2.2-4.3 3-3.5 1.5zm35-1.3c0-.5 1-2 2.3-3l2.4-2.1.6-6c.4-3.2 1.1-5.9 1.7-5.9 1 0 1.3 1.8 1 7.5l-.3 4-2.4 3.3c-2.4 3-5.4 4.3-5.4 2.2zm40.1.3-3.3-.4.4-1.2c.4-1.3 5.1-2.1 7.3-1.3l1.4.5-.6 1.6c-.3.8-.8 1.4-1.2 1.4l-4-.6zm122.3-.8c-.3-.9-.4-1.7-.2-2 .2 0 1.4.1 2.6.6 1.3.5 2.3 1.3 2.3 1.9 0 1.6-4 1.2-4.7-.5zm6.9.8c-.7-.2-2-2-2.7-3.9l-1.4-3.4h-5.3l.7-1c.3-.5 1.6-1 3-1h2.3l2.1 3.4c1.2 1.9 3 3.6 4.2 4l2 .5-.6 1c-.7 1.2-2.2 1.3-4.3.4zm173-2.2c-5.8-4.7-19-18-19-19.1 0-.5-.7-1-1.5-1-2 0-6.6-3.9-6.6-5.5 0-2.2 2.1-1.8 2.7.5l.5 2h5l7 7a331 331 0 0 0 13 12.2c5.4 4.7 6.4 6.8 3.5 6.8-.7 0-2.8-1.3-4.7-2.9zm-317.1.8c.5-1.6 3.6-1.9 4-.4.1.6-.8 1.2-2.1 1.4l-2.4.3zm31.8.1a1 1 0 0 1 2 0 1 1 0 0 1-2 0zm78.5-1-.6-1h3.3l-.7 1c-.3.6-.8 1-1 1-.2 0-.6-.4-1-1zm-152-.6c-.3-.4-.6-3-.6-5.6v-4.9l2.4-2.4c1.4-1.4 3.2-2.5 4-2.5.9 0 1.6.7 1.6 1.5v1.5h-4l-.6 2.5a6.8 6.8 0 0 0 0 3.5c.9 1.3-.3 7-1.3 7-.4 0-1-.3-1.4-.6zm142.6-1v-1.9l.6 1.3c.3.8.3 1.6 0 2-.4.3-.6-.3-.6-1.4zm29.5-.4c-.4-.5-1.5-1-2.6-1h-2v-1.5c0-.8.5-1.5 1.1-1.5a9 9 0 0 1 3.6 2l2.4 1.9-1 .6c-.5.3-1.2 0-1.5-.5zm-24.8-.7c.8-.3 1.6-.2 2 .1.3.3-.3.6-1.3.5h-2zm13.6 0a1 1 0 0 1 1.3 0c.4.4 0 .7-.7.7s-1-.3-.6-.6zm-68.4-1.3c0-.5.7-1 1.5-1h1.6l-.6 1c-.4.6-1 1-1.6 1a1 1 0 0 1-1-1zm132-.2a8 8 0 0 1-2.2-3l-.6-1.8h1.8c1 0 2.4.7 3.1 1.5s1.9 1.5 2.6 1.5c.8 0 1.4.7 1.4 1.5v1.5h-2.3c-1.3 0-3-.5-3.9-1.2zm-30.5-.8c-.3-.6-.4-1.4 0-1.7.8-.8 3.6.5 3.6 1.7 0 1.3-2.7 1.3-3.6 0zm-131.9-.6c-1-1-.8-6.2.2-6.8 1-.6 2.1 2.6 2.1 5.7 0 1.7-1 2.3-2.3 1zm62.7-.6c-.5-.7-1.3-2-1.6-3l-.6-1.8h1.4c.8 0 2 1 2.6 2.1l1 2.1-.8 1-1 1zm-52.2-2a9.3 9.3 0 0 1-2.1-3.2c0-.4 1.2-.6 2.7-.4l2.7.3.4 1.9c.2 1 0 2.2-.6 2.7l-.9 1zm16.9-.8c0-.5.6-1 1.5-1s1.5.5 1.5 1-.7 1-1.5 1-1.5-.4-1.5-1zm90.3-2-3.2-3.2-7.8 1.4-2.6-3.2a14 14 0 0 1-2.7-4c0-.4-1-1-2.2-1.3l-2.2-.6 2.4-2.5 9 8.8 8.6-.5 2.7 3c2.7 3 3.5 5.1 2 5.1-.5 0-2.3-1.4-4-3zm-134.7 1.4c-.4-.4-.4-2.2 0-4l.5-3.2-2.3-.3-2.4-.4-.6-4.6-3.3.3c-1.9.1-4-.3-4.9-1l-1.4-1.2-2.7 1a12 12 0 0 0-4.5 4l-1.9 3.2-.6-1c-1-1.6 1-5 3.4-5.7 1.1-.3 2-1 2-1.4 0-.4 1.2-1.3 2.6-2l2.7-1.1 3.4 3 7.8-.5.7 4.6 4.8 1.9v2.3c0 2.8-2.3 7-3.3 6zm95.4-.4-1.5-.9 1.1-1 1.1-1.2 1.2 1.5c1.5 1.7.1 2.9-2 1.6zm20-1c0-.6.5-.8 1-.5.6.4 1 .8 1 1s-.4.5-1 .5a1 1 0 0 1-1-1zm54.5-1.5-.6-2.5h-6.8v-2c0-1 .4-2 1-2 .5 0 1-.4 1-1s-1-1-2.4-1c-2.6 0-5.6-2.8-5.6-5.2 0-1-.9-2-2-2.2-1-.4-2-1.3-2.4-2-.6-1.7-7.9-4-11.6-3.7-1.4 0-4-.4-5.9-1l-3.3-1-1.4-3.4-1.4-3.2-7-1.3-3.1-3a16.5 16.5 0 0 0-5.8-3.6c-1.5-.3-4.7-1.9-7.3-3.5a20.4 20.4 0 0 0-6-2.9c-1.7 0-5.9-3.5-5.9-5 0-.5.5-1 1-1s4 2 7.8 4.3a57 57 0 0 0 11 5.6c2.3.6 5.5 2.3 7.1 3.7 1.6 1.3 4.5 3.1 6.3 3.9 1.8.7 4.8 3 6.5 5l3.2 3.5h3c1.6 0 3.7.3 4.6.6 3 1.2 1.5-1.3-2.4-4l-4-2.8v-5.3l-2-1.2c-1.1-.7-2-2-2-3v-1.8l-6-3.5-1-3.4-1.2-3.5-1.9-.6c-1-.3-2.1-1.4-2.5-2.5-.3-1.1-1.6-3-2.8-4.3a96.8 96.8 0 0 1-4.7-5.5 13 13 0 0 0-4.2-3.7c-2.2-.7-2.3-2.1-.2-2.1.9 0 3.2 1.8 5.3 4l6.4 6.8c1.5 1.4 2.7 3.1 2.7 3.7 0 .5 1.4 2.1 3 3.5 1.7 1.4 3 2.8 3 3.2s2 2.7 4.2 5.3 5 6.4 6 8.6l1.9 4 8 6-.8 3.5h5.5l1.7 2.5c.9 1.4 2.2 2.5 3 2.5h1.4l.6 3 .7 2.8 2.8.6 2.8.5 1.3 5.1h2c2 0 2.4.5 3.4 5.3l.6 2.7h-4zm-95 .5c-.3-.5-.1-1 .4-1 .6 0 1.1.5 1.1 1s-.2 1-.4 1c-.3 0-.8-.4-1.1-1zm11.5 0c0-1.1 4-3.3 4.7-2.6.9.8-1.7 3.6-3.3 3.6-.8 0-1.4-.4-1.4-1zm-75.3-1.2c-.2-.7-1.2-1.3-2-1.3-1 0-1.9-.4-2-1-.4-1.4 5.1-1.8 6.7-.5 1.6 1.3 1 4-1 4a2 2 0 0 1-1.7-1.2zm96.8-1.8c.4-.5 1.5-1 2.6-1 1 0 2 .5 2 1s-1.2 1-2.6 1h-2.6zm-46.5-1.9c0-1 .6-2.3 1.4-3l1.4-1.1.5 1.3c.2.7-.1 2-.8 3-.7 1-1.5 1.7-1.9 1.7-.3 0-.6-.8-.6-1.9zm6-2.6a1.5 1.5 0 0 1 3 0 1.5 1.5 0 0 1-3 0zm-25-1c0-.9.7-2.9 1.5-4.5l1.5-3h2c1 0 2.1.5 2.5 1 .3.6 0 1-.8 1-1.9 0-4.7 3.3-4.7 5.4 0 .9-.5 1.6-1 1.6-.6 0-1-.7-1-1.5zm48.3.3c.2-.7 1-1.3 1.7-1.3s1.5.6 1.8 1.3l.4 1.2h-4.4zm18.3-1.3a18 18 0 0 1-2.6-3.5l-1-2h-2.3c-1.3 0-2.6.3-3 .6-.3.4-2.6.7-5.1.8l-4.6.2-2.5-2.8c-1.4-1.5-3.2-2.8-4-2.8-.8 0-1.5-.6-1.5-1.4v-1.4l3.3.9c1.7.5 3.8 1.8 4.6 3 .7 1 2 2 2.8 2s3-1.2 5.2-2.6l3.8-2.5 1.7.6c.9.4 1.6 1 1.6 1.6 0 .6 1.3 2.3 2.8 3.8 4 4 5.2 5.7 4.5 6.4-1 1-2 .7-3.7-1zm-83.7-.5c0-.5.5-1 1.1-1 .6 0 .8.5.5 1s-.9 1-1.1 1c-.3 0-.5-.4-.5-1zm-52-1.4c0-.8.5-1.7 1-2 .6-.4 1-1.8 1-3.1 0-1.4.4-2.5.9-2.5s1.3.6 2 1.3l1 1.4-2.2 3.1c-1.2 1.8-2.5 3.2-3 3.2-.4 0-.7-.6-.7-1.4zm86 .4a1 1 0 0 1 2 0 1 1 0 0 1-2 0zm-6.7-2.2c.6-1.8 2.8-2.1 2.8-.4 0 1-.7 1.6-1.6 1.6s-1.4-.5-1.2-1.2zm-23.2-1.8c0-.7.3-1 .6-.6s.4 1 0 1.3c-.3.4-.6 0-.6-.7zm8-.5c0-1.6 2.6-3.1 3.7-2.1.7.7-1.6 3.6-2.9 3.6-.4 0-.8-.7-.8-1.5zm-101.1-2.2c0-2.3 2.8-6.5 4-5.8l.8.5-1 3.5c-.7 2-1.8 3.5-2.5 3.5s-1.3-.8-1.3-1.7zm352-3.2c-1.5-2.6-2.7-6.2-2.7-7.9s-.5-3.3-1-3.7c-.6-.3-1-.1-1 .5 0 1.7-2 1.2-2.7-.7-.3-1-1.6-4-2.8-6.8l-2.2-5.1-7.9-8.2a56.9 56.9 0 0 0-8.9-8.2c-.6 0-2.3-1.1-3.8-2.5l-2.8-2.4 1.1-2.2 1.2-2.1-.6-3.8-.6-3.8 1.2-.8 1.2-.7.4 1.2c.2.7 1.2 2 2.1 3s2 2.8 2.3 4.2l1.3 4.2.7 1.8h-3.4l-.5-2c-.6-2.2-2.3-2.8-2.3-.8 0 2 1.3 3.4 4 4.2 1.4.5 6.1 4.6 10.6 9.2l8.1 8.5 1.3 3.9 1.3 3.8 5 .6 1.8 7.4c1 4 2.5 8.1 3.3 9 .9 1 1.6 2.5 1.6 3.5 0 3.2-2.7 1.6-5.3-3.3zm-263.7 2.8c.5-1.6 2.7-1.9 2.8-.4 0 .6-.7 1.2-1.6 1.4l-1.7.3zm-93.3-2.9c0-.7.3-1 .6-.6.4.3.4 1 0 1.3-.3.4-.6 0-.6-.7zm18-.4-1.1-1.4 1-.7c1.2-.7 4 1.2 4 2.7 0 1.3-2.5 1-3.8-.6zm22.3.8a1 1 0 0 1 1.4 0c.3.3 0 .6-.7.6s-1-.3-.7-.6zm104-1.2c-.7-1-2.4-2.4-4-3a8 8 0 0 1-3.7-3.4c-.6-1.3-1.8-2.4-2.8-2.6l-1.7-.3v1.6c0 2.2-2.1 1.9-2.7-.5-.3-1-.9-2-1.3-2s-1 .7-1.4 1.5c-.6 1.7-3.6 2.1-3.6.5 0-.5-1.5-1-3.3-1-1.8 0-5-.9-7.1-1.9l-3.9-1.8 1.1-.7c.6-.3 3.2 0 5.7.9 2.5.8 5.7 1.5 7 1.5h2.5v-1.7c-.2-2.2-1.9-6.2-2-4.5 0 .7-.5 1.2-1 1.2-.6 0-1-1.3-1-3v-3h-3l-.6-3.4c-.3-1.9-.3-3.9 0-4.5 1-1.6 4.3-1.3 5 .5.3.9.6 3.1.6 5v3.2l4.3 1.1-.6 3-.6 3 3 1.6c1.8.8 4 1.5 5 1.5s2.2.7 2.8 1.5c.7.8 2.9 1.6 4.8 1.7l3.6.3 1.3 3.7 1.3 3.7-1.4 1.1-1.4 1.2-1-2zm-62.8-1.3c-.4-.5-.2-1.5.4-2.2l1.1-1v2.1c0 1.2-.2 2.2-.4 2.2s-.7-.5-1.1-1zm-79-2.6c.7-3.2.7-3.2.6-5.5l-.1-1.8h-3c-1.6 0-3.2-.4-3.5-.9-.3-.5.2-1.4 1.2-2 2.7-1.5.5-2.6-2.8-1.4l-3 1.2v-1c0-.5 1.5-1.6 3.3-2.3l3.2-1.4 3.5 1.9-.6 1.5-.6 1.5 1.5 1.2c.8.7 2 2.7 2.6 4.6l1.1 3.3-1 2c-.5 1-1.5 1.8-2 1.8h-1.1zm65 .7c-.4-.6-.2-1.6.3-2.1l1-1 .7 1.1c.4.7.3 1.7-.2 2.2l-1 1zm-53.5-1c0-.5-.7-1-1.5-1s-1.5-.4-1.5-1v-1.1l5.5.6.3 1.8.3 1.7h-1.5c-1 0-1.6-.4-1.6-1zm26-.5v-1.6l1 .6c.6.4 1 1 1 1.6 0 .5-.4 1-1 1-.5 0-1-.8-1-1.6zM209 186l-.6-1 2.8-2.5c1.5-1.4 3.4-2.5 4.2-2.5h1.3l-1.4 2.1c-.8 1.2-2.4 2.8-3.5 3.6l-2.1 1.4zm330.1-1.7a1 1 0 0 1 1.4 0c.3.3 0 .6-.7.6s-1-.3-.7-.6zM264 181.4l-.6-2.4-5 1.2.6-1.1a8 8 0 0 1 2.6-2.2l1.9-1 1.6 1.6c1.7 1.7 2.1 6.4.6 6.4-.6 0-1.3-1-1.7-2.5zm-91-1.4-.7-1.2 3.6-6.6-.7-1.6-.6-1.7h-6v-1c0-.6.9-1.4 2-1.7 1.1-.3 1.8-1 1.6-1.6l-.4-1.2-10.4.5.4-1.2c.2-.6 1.9-1.5 3.7-2l3.3-.9 5.9 2.4-.6 2.3-.5 2.2 4 1-.1 8.7-3.7 4.8-.7-1.2zm77.7-1.4a7.6 7.6 0 0 0-2-3.1c-.6-.4-.9-1.1-.6-1.6 1-1.5 3.3.1 4.4 3.1l1 2.9-1 .6c-.5.3-1.3-.5-1.8-1.9zm-15.4-1.3c-1-1-.8-4.4.3-4.4 1.5 0 2.4 3 1.3 4.1-.5.5-1.2.7-1.6.3zm-17.7-1.4c0-.7.3-1 .7-.6.3.3.3 1 0 1.3-.4.4-.7 0-.7-.7zm79.8-.6c-.3-.3-.1-1.6.4-2.8l1-2.3-1.6-2.6c-1-1.5-2.5-2.7-3.5-2.7-2 0-4.3-2.4-5.5-5.5l-.8-2-1 2.3c-.6 1.2-1.5 2.2-2 2.2-1.4 0-2-2.9-1-4.2.6-.7.8-2.5.5-4l-.5-2.7h-2.9c-1.6 0-2.9-.4-2.9-1 0-1.3 4-2 6.5-1l2.3.8.5 2.8c.4 1.6 2.1 4.5 4 6.5l3.3 3.7 4.2.6c2.3.4 4.5 1.2 4.9 1.8s0 1.4-1 2l-1.6.8v2.9c0 1.5-.6 3.3-1.4 4-.7.5-1.6.8-2 .4zm-18.6-3.6c-.6-.6-3.3-1.4-6-1.8l-4.7-.6 5-2 5.8.6c3.1.3 6 1 6.4 1.3 1 1-1.6 3.7-3.6 3.7-.9 0-2.2-.5-2.9-1.2zm-35.2-1.8c0-.5.9-1 2-1s2.2.5 2.5 1l.6 1h-2.5c-1.4 0-2.6-.4-2.6-1zm-14.5-1c.3-.5.8-1 1-1 .3 0 .5.5.5 1 0 .6-.5 1-1 1-.6 0-.8-.4-.5-1zm524.5.1c-.3-.5-.1-1.2.4-1.5 1.3-.8 6 .4 6 1.6 0 1.1-5.6 1.1-6.4 0zm-532-1.4c0-1.5 4.7-4 6-3.1 1.7 1 1 2.4-1 2.4-1 0-2.2.5-2.5 1-1 1.5-2.5 1.3-2.5-.3zm525 .3-.6-1h2c1.2 0 2 .5 2 1s-.6 1-1.4 1c-.8 0-1.7-.4-2-1zM214 165.4a68.3 68.3 0 0 0-3.9-4.4c-1-1-1.5-2.4-1.2-3 1-1.6 3.6-1.2 4.3.7.3 1 1.5 3 2.6 4.6l2 2.8-1.8 1.8zm566.6-2c-.9-1.3-2.3-2.5-3.1-2.5-1.8 0-2-1.6-.4-2.2l1.2-.3-1.2-2.2c-.6-1.2-2-2.4-3.1-2.8l-2.1-.6.6-4.2-3-1.7c-1.7-1-4.7-1.9-6.6-2.2-6.5-1-27.4-3.8-42-5.8-14-2-18.2-3-12.6-3 5.5 0 32.6 3.1 45 5.2l13 2 .8-1.3c1.3-2 1-4.6-.5-5.2-.8-.3-5.4-.8-10.3-1.2-9-.6-26.7-2.7-38.4-4.5a450.4 450.4 0 0 0-37.3-4.8l-8.7-.6.2-1c.2-.5 2.3-.8 4.8-.7 6 .3 26.7 3 41.5 5.3 12.5 2 47.6 5.2 48.4 4.4.7-.7-5-8.5-6.2-8.6a48 48 0 0 1-14-2l-1-.9 13.4 1.3V122c0-1.3-1.5-2.7-5.6-5l-3.1-2-2.4-9.4-2.2-1.9A24.5 24.5 0 0 0 733 98c-1.7 0-3-.4-3-1s1.4-1 3.2-1.2l3.2-.3.4-1.7.3-1.7-2.8-1.3c-1.5-.7-2.6-1.8-2.3-2.3.7-1.6 4-.7 6.4 1.7 1.2 1.3 3 4 4.1 6.1a19 19 0 0 0 4.6 5.7l2.6 2 1.3 4.5 1.3 4.7 2.4 1c1.3.7 3.1 2.4 4 4a9.8 9.8 0 0 0 3.7 3.9l2.3 1 5.3 10.6v8.5l3.6 4c2 2.2 4.5 6 5.5 8.3 1 2.3 2.6 4.5 3.4 4.8l1.5.6v3c0 1.7-.4 3-.9 3s-1.6-1-2.5-2.5zm-24.1-4.4-2-.8 1.7-.8c1-.3 3-.4 4.3 0l2.6.6-.6 1c-.7 1.1-3.2 1.1-6 0zm10 0-.6-1h2c1 0 2.3.4 2.6 1l.6 1h-2c-1 0-2.3-.5-2.6-1zm-27.3-1.7a7 7 0 0 1 3.5 0c1 .2.2.4-1.7.4-2 0-2.7-.2-1.8-.4zm-377.9-9.6-4.8-4.2-.4-8.5h-3.5v-2c0-1-.7-2.4-1.6-3a17.6 17.6 0 0 1-4.8-10.1 8.8 8.8 0 0 0-1.5-4.2c-.6-.6-1.1-2.2-1.1-3.4 0-1.3-.4-2.3-.9-2.3s-2-2.2-3.2-4.8a21.7 21.7 0 0 0-3.1-5c-.4-.2-1-2-1.4-4s-1-5.1-1.5-6.8l-1-3.1-5.8-2.6a28.2 28.2 0 0 1-7-4.1l-1.4-1.6h1c.7 0 3.2 1 5.6 2.3 2.4 1.3 5.3 2.6 6.5 3l2 .5 1.7 3.8c.9 2.1 1.8 5.2 2.1 6.9.7 3.8 2.1 7 5.6 12.2 1.5 2.3 2.8 4.8 2.8 5.7 0 .9.4 1.6.9 1.6s1.4 2.2 2.1 5a51 51 0 0 0 3.4 9.3l2.3 4.2h3.7l1.9 3.2 1.9 3.3h-1.6c-2.7 0-1.8 2.7 2 6.2a38 38 0 0 0 5 4c.8.5 1.4 1.3 1.4 1.8 0 2-2.7.8-7.3-3.3zm-90.2 1.7c-.3-1-.4-2-.1-2.4.3-.4-1.4-.8-3.7-.9-6.4-.1-11.7-.8-12.5-1.5-1-1-7.1-.7-7.8.4-.3.5-1.5 1-2.6 1-1 0-2.2.6-2.5 1.5-.9 2.1-2.4 1.8-2.4-.5a7 7 0 0 1 2-4l2-2h4.4c2.5 0 5.5.4 6.8.9 1.3.4 4.2 1 6.3 1.2l4 .4.7-3.6-3.5-3.9c-2-2-3.8-4.7-4.1-5.8-.8-2.3-3.2-3.6-4.1-2.2-1 1.7-2.5 1-2.5-1.1v-2.2l1.6.7c.9.3 2.6.6 4 .6h2.4l1.5 3c.8 1.5 1.5 3.8 1.5 5v2h5l1 2c.7 1.2 1 3 .7 4.1l-.5 2 5.8-1.3.6 1.6c1 2.3-.4 6.6-2 6.6-.7 0-1.6-.8-2-1.6zm472.3.5-1.9-.6 2.5-.5a14 14 0 0 1 5 .2l2.5.6-3.2.5c-1.7.3-4 .2-5-.2zm12.4.4c.7-.3 1.6-.3 1.9 0 .3.4-.3.6-1.3.6l-2-.1zm-46.4-3.3-.6-1h3.5c2 0 3.8.4 4.1 1l.7 1h-3.5c-2 0-3.8-.5-4.2-1zm-7-1-.6-1h4.2l-.6 1c-.3.5-1 1-1.5 1s-1.1-.5-1.5-1zm-349.3-5c-.3-.5 0-1.2.5-1.5l1-.7v1.6c0 1.8-.6 2-1.5.6zm-122.4-5-2.3-1.9 1-.6c1-.6 7 2.5 7 3.7.1 1.4-3.4.7-5.7-1.2zm458.7-1.1c-1.6-.4-2.3-.8-1.5-1a25 25 0 0 1 10 1.2l1.5.9-3.5-.3c-2 0-4.8-.5-6.5-.8zm-473-2c0-.5.7-1 1.6-1 .8 0 1.5.5 1.5 1s-.7 1-1.5 1c-.9 0-1.5-.4-1.5-1zm451.5-2c0-.5.7-1 1.5-1s1.5.5 1.5 1-.7 1-1.5 1-1.5-.4-1.5-1zm-18-1.1-2.4-.9 1-1c1.4-1.4 5.6-.8 6 .7.6 1.6-1.7 2.2-4.5 1.2zm10 .2c0-.6.4-1 1-1 .4 0 1.1.4 1.5 1l.6 1h-1.6c-.8 0-1.5-.5-1.5-1zm-154.5-8a21.6 21.6 0 0 1-2.7-4.8c0-.4-1.3-2-2.9-3.5-1.6-1.5-3.8-2.7-4.8-2.7a15 15 0 0 1-5.9-2.8 50 50 0 0 0-6.4-3.9A79.9 79.9 0 0 1 463 93.7c-1-1.2-4.5-3.3-7.8-4.6-7-2.8-12-5.7-15.5-8.8-1.4-1.3-3-2.3-3.7-2.3-.7 0-2-1.3-3.1-2.8-2-2.8-3.2-7.3-3.6-13 0-1.7-.7-3.7-1.4-4.4-1.5-1.5-1.6-2.8 0-2.8 1.2 0 5.5 4.3 7.5 7.5a82 82 0 0 1 7.3 16v1.4l4.2 2.2a31 31 0 0 1 5.6 3.5c.7.8 2.2 1.4 3.1 1.4 2.2 0 8.8 2.6 9.3 3.7.6 1.5 13.3 9.1 16.3 9.9 1.6.4 3.8 1.5 5 2.5 1 1 2.6 1.9 3.5 1.9a17 17 0 0 1 5.5 3c2.1 1.6 4.4 3 5 3 1.4 0 5.5 4.1 5.6 5.5 0 .5 1.3 2.5 3 4.4 1.6 1.9 2.6 3.8 2.3 4.2-1 1.8-3.2.7-5.7-3.1zm-67.2-50c-1.4-2.8-3-5-3.5-5-.6 0-1 1.4-1 3.2v3.2l2.7 2.2c1.5 1.2 3.1 2 3.5 1.7.4-.2-.4-2.6-1.7-5.4zm-196.3 51.5-1.9-1.4-1.2 1c-1.5 1.3-6.9.7-6.6-.6.1-.6 2.1-1.4 4.5-1.9l4.2-.8 1.9 1.1c1 .6 2.2.9 2.7.5 1.3-.7 1.3-5.4.1-5.4-.5 0-1.6-1.6-2.5-3.5s-2.3-3.5-3-3.5c-.8 0-2 .6-2.6 1.5-1.4 1.6-3 2-3 .5 0-1.7 3.1-4 5.4-4h2.2l2.5 2.7c1.3 1.5 3 3.8 3.7 5s1.2 3.8 1.2 5.6v3.5l-1.6.6c-2.4.9-3.8.7-6-.9zm10.6-2c0-.9.5-1.5 1-1.5.6 0 1 .6 1 1.5s-.4 1.5-1 1.5c-.5 0-1-.7-1-1.5zm483.5.5-3.5-.8 4.7-.1c2.5 0 5 .3 5.3.9l.6 1-1.8-.2c-1 0-3.4-.4-5.3-.8zm11.2-1.8c-1.8-.2-3.2-.8-3.2-1.4v-1l1.5.6c1 .3 3.2.6 5 .6s3.5.4 3.5 1c0 1-.7 1-6.8.2zM221 117.7l-4-3-2-1.7h2c1.1 0 2.7.9 3.5 2 .8 1 2.2 2 3.2 2s1.8.4 1.8 1c0 1.3-2 1.1-4.5-.3zm512 0a17 17 0 0 1-5.5-1.8l-1-1h1.7a49 49 0 0 1 13.2 3.2l1 .9-2.5-.1c-1.3-.1-4.5-.6-7-1.1zm-25.7-.4a1 1 0 0 1 1.3 0c.4.4 0 .7-.7.7s-1-.3-.6-.7zm-29.9-2.3-.6-1h5.2l-.6 1c-.3.5-1.2 1-2 1s-1.7-.5-2-1zm37-.5c-3.8-.6-8.6-1.7-10.5-2.3s-6.4-1.4-10-1.8-7.2-1-8-1.5l-1.5-.9h4.4c2.4 0 8 .8 12.5 1.9 4.5 1 11.4 2.4 15.4 3l7.2 1.3-.5.9c-.3.5-.9.8-1.3.7l-7.7-1.3zm-387.8-1.8c0-1.3-.7-3.2-1.5-4.3-.8-1-1.5-2.9-1.5-4 0-1.2-1-3-2-4l-2-1.7 1.8-2.2-1.4-2c-.8-1-1.4-2.7-1.4-3.6s-.7-3-1.5-4.6l-6.7-14.1-5.3-11.3-3-1.9c-1.7-1-4.6-2.1-6.5-2.5l-3.5-.8-3-3a52 52 0 0 1-4.4-5.6c-.9-1.3-3-3-4.6-3.7-1.7-.7-4.6-2.6-6.4-4.3l-3.3-3-2.2 2a12.6 12.6 0 0 1-4.5 2.6c-1.3.3-6.8.3-12.2 0l-9.8-.4-3.7-2.1a16 16 0 0 0-5-2.2c-.8 0-2 .8-2.7 1.9l-1.3 1.8-7 1.6c-3.9.8-9.5 2.2-12.5 3.1L204 46l-7.5-.5a122 122 0 0 1-9.8-1c-1.2-.3-2.3-1-2.3-1.5v-1l24.6.5 2.5-1.6c1.3-1 5-2 8.3-2.2l5.8-.6 8.9-5.2 2.2 1.2c1.3.7 2.6 1.7 3 2.2 1 1.5 12.4 2.7 19.3 2 3.3-.3 6.9-1.2 8-2a10 10 0 0 1 4.8-1.3h2.9l2.4 3a13 13 0 0 0 4.7 3.6c2.7.8 7.7 5.3 7.7 7 0 .7 1.4 2.4 3.1 3.8l3.1 2.6h6.5l1.6 1.7a75.5 75.5 0 0 1 8.8 13.3c0 .6.9 2.8 2 4.8a59 59 0 0 1 6.6 15.7c.2 1.6.8 3.1 1.4 3.3.5.2 1 1.4 1 2.7 0 1.3.4 2.6 1 3 .5.3 1 1.8 1 3.4v2.8l4 3.6v5.7h-3zm342.8.3-.6-1h4.2l-.6 1c-.3.5-1 1-1.5 1s-1.2-.5-1.5-1zM203 109c-.3-.5-.1-1.2.5-1.5 1.4-.9 5.1.4 4.4 1.5-.7 1.2-4.2 1.2-4.9 0zm23-2.2a17.3 17.3 0 0 1-5.5-5.8l-1-1.5-1.2 1.2c-.7.7-1.6 1.3-2 1.3-.5 0-.6-1.2-.2-2.6l.6-2.5-1.2.3c-.7.1-1.5-.3-1.7-1s0-1.2.6-1.2 1-1 1-2-.3-2-.7-2c-.4 0-1.8.7-3.1 1.6l-2.4 1.7-1.9-1.2-1.9-1.2-4 2.2-6.9-6.8c-3.7-3.8-7.5-7.5-8.4-8.2a66 66 0 0 0-12.9-4c-6.2-1.6-13.7-4-16.6-5.6l-5.3-2.7 2.4-2.8h-1c-.7 0-2.5-1.2-4.2-2.6l-3-2.6v-2.3c0-1.3-.5-2.7-1-3a35 35 0 0 1-5.8-14c-.3-2.2-1-4.5-1.5-5.2-.5-.6-2.8-1.4-5-1.8-2.2-.4-6-2-8.2-3.5l-4.1-2.8-19-2.3-1.5-1.3c-.9-.7-3.3-1.7-5.5-2s-6-2-8.6-3.4l-4.5-2.6H55.2l-1.4-2c-.7-1-1-2.5-.8-3.3l.6-1.6 1.2 1.7c1.4 1.8 7.3 4.2 8.2 3.3.9-1-3.3-6.1-6-7.6l-2.6-1.4-2.9 2.4-.7-1c-1-1.6-4.6-1.3-6.6.5-1 .9-1.5 2.2-1.2 3l.5 1.4h-1.3c-.8 0-3.6-.5-6.4-1l-5-.9L8.8 19l-4.5-.7C1.8 17.8-.1 17 0 16.5s3-1.1 6.5-1.3l6.2-.3 1.7-1.5c.9-.8 3.2-2 5.1-2.4 2-.6 4.5-1.9 5.8-3l2.3-2 11.2.5L42 4.2c1.7-1.3 5-2.7 7.3-3.3l4.2-.9L63 4.9l3 7.9 5.5-1c3-.5 6.8-.7 8.5-.4 1.8.2 5 1.6 7 3l3.7 2.5 5.7-1.1v3.7l4 1.3c2.1.6 4.5 1.2 5.1 1.2h1.2l-1.8-2c-1-1-2.6-2-3.6-2s-2.1-.4-2.4-1l-.7-1h7.3l2.7 2.9c1.5 1.6 3.7 3.4 4.9 4 1.2.6 3.4 1.1 4.8 1.1s5 1.3 7.9 2.9c2.8 1.5 7.8 3.4 11.1 4l7.3 1.7c.6.2 1.2 1.2 1.2 2.3s.5 2.3 1 2.6c.6.3 1 1.8 1 3.2s.8 3.8 1.7 5.4l1.7 2.9 3.6 1.1a21 21 0 0 1 6.3 4c1.6 1.6 3.3 2.9 3.8 2.9s1 .8 1 1.7c0 1 .6 3.1 1.4 4.7.9 1.6 1.3 3.1 1 3.5-1.2 1.1-4-1.7-4.7-4.8-.5-1.8-2.3-4.5-4-6.1a22.1 22.1 0 0 0-7-4.1l-3.7-1.2-1.9-3.6c-1-2-2.4-5.5-3.2-7.8-.7-2.4-1.7-4.3-2.2-4.3-.4 0-.8 1.1-.8 2.5 0 2.8 3 9.5 4.2 9.5.4 0 .8 1 .8 2.4 0 3.2 2.8 8.5 6.3 11.7 1.5 1.4 2.7 3 2.7 3.5 0 1 7 4.5 13.5 6.7a61 61 0 0 0 9.6 2.2c3 .4 6.6 1.2 8 1.7 1.3.5 5.7 4.3 9.8 8.5l7.4 7.6 1.6-1.1 3-1.9c.7-.4 3.5 0 6 .8l4.7 1.5.3 2.3.3 2.3 5.6 5.4c3 3 6.2 5.4 7 5.4 1.9 0 1 2.4-.9 2.8-.8.1-2.8-.8-4.4-2zm450.4.2-.6-1h2.3c1.3 0 3.2.5 4.3 1l2 .8-3.7.1c-2 0-4-.4-4.3-1zm57.2-.4c-5.2-1.2-5.4-2.9-.3-2 6.4 1 7.7 1.4 7.7 2.4 0 .5-.6 1-1.3.9a42 42 0 0 1-6-1.3zm11.7.7a1 1 0 0 1 1.3 0c.4.4.1.7-.6.7-.8 0-1-.3-.7-.7zm-31.9-3.3-2-.9h4c2.2 0 5 .4 6 .9l2 .8h-4c-2.2 0-4.9-.4-6-.8zm-23-3c.4-.6 1-.8 1.6-.5 1.4.9 1.1 1.5-.6 1.5h-1.6zm-20.7-2.7c.7-.3 1.6-.3 2 0 .3.4-.3.6-1.4.6h-1.9zM636 96c0-.8.3-1 .6-.7.4.4.4 1 0 1.3-.3.4-.6.1-.6-.6zm-14-1v-1h4.4c2.4 0 4.7.4 5 1l.7 1H622zm81-1.5a2060 2060 0 0 0-42.3-5.1 217.2 217.2 0 0 1-24.7-3.6c0-1.1 16.5.5 51.5 5l25.8 3.3c6 .7 10.7 1.6 10.7 2s-.7.8-1.7.8L703 93.5zm-93 .5c0-1.3 7-1.3 9 0l1.5 1h-10.6zm-21.6-4.1c-2.7-.5-12.9-1.8-22.5-3a1126.3 1126.3 0 0 1-35.5-4.5L516 80.8l-9.2-1 .5-1 .6-.9 8.2.6c4.5.4 10.2 1 12.7 1.5 2.4.6 10.1 1.7 17 2.5 15 1.8 23.6 3 39.8 5.2l12.2 1.7-1.2.8c-1.4.9-1.5.9-8.3-.3zm137.5-2.2c-1.8-1.5-4.3-8.9-3.6-10.8l.4-1.4 2.2 5c1.2 2.7 2.8 5.2 3.4 5.7l1.2.7-2 2zm-10.1-.4c-1.5-.3-2.8-1-2.8-1.5v-1l3.2.6c1.7.3 3.7.6 4.5.6.7 0 1.3.4 1.3 1 0 1-1.1 1-6.2.3zM697 84.4c-.8-.2-4-.5-6.9-.6l-5.4-.3-.5-1.4-.4-1.3 4 .6 8.2 1.2c2.2.3 4 1 4 1.5 0 .9-.3 1-3 .3zM668.2 81c-2.4-.3-4.6-1-5-1.3-.8-.9 5.4-1 9.6 0 1.7.3 3.1 1 3.1 1.4 0 1-1.5 1-7.7 0zm-16.6-1.7c-1-.3-1.7-1-1.7-1.5v-1l1.6.6c.8.3 2.9.6 4.5.6h3l-.6 1c-.6 1-3.6 1.1-6.8.3zm-73.8-2a1071 1071 0 0 0-32.4-3.8 292.3 292.3 0 0 1-23.4-3c-1.1-1 9-.5 26 1.5 9.5 1 20.7 2.4 24.8 3 4.1.5 9.8 1 12.7 1 2.8 0 5.9.3 6.7.6 2.4.9 1 2.4-2.2 2.3-1.5 0-7-.8-12.2-1.5zm-91.6-.3a256 256 0 0 0-30.2-4c-9.2-.6-12.5-1.3-11.2-2.4.2-.2 6.7 0 14.4.4 13.7.8 35 4.4 37 6.1l1 .9-3.5-.1c-2 0-5.3-.5-7.5-1zm144.2-.5-5-1.3h3.5c4.2-.2 8 .7 8 1.9 0 .5-.4.8-.8.8l-5.7-1.4zM620 74.3a6 6 0 0 1 3 0c.7.3-.1.5-1.8.5h-3zm75.1 0a1 1 0 0 1 1.4 0c.3.4 0 .7-.7.7s-1-.3-.7-.7zm9.5 0c.7-.3 1.8-.3 2.5 0s.1.5-1.3.5c-1.4 0-2-.2-1.2-.5zm14.5-.5c-1.2-1.1-9-2.4-33.3-5.4a100 100 0 0 1-15-2.5l-1.5-.8h2.5a494 494 0 0 1 32 3.9c3.6.5 8 1 9.8 1h3.4l-.7-2c-.3-1.1-.3-2 0-2 .4 0 2.2 1.6 4 3.6 3.4 3.5 3.8 5.4 1.2 5.4a4 4 0 0 1-2.4-1.2zM605.3 73l-.6-1h2.3c1.3.1 3.5.5 4.8 1l2.5.8h-4.2c-2.3.1-4.4-.3-4.8-.8zm56.6-2.1L645.4 69a688 688 0 0 1-18-2l-17-2c-8.2-.8-10.5-1.4-9.5-2.4.5-.5 14.2 1 48 5 12.4 1.4 23 3 23.4 3.5l1 .9-2.5-.1-9-1zm-160.7-3-3-.7h3.5c2 0 5.6.3 8 .7l4.5.8h-5a44 44 0 0 1-8-.7zm70 0a982 982 0 0 1-64.4-8l-1.6-1 6.5.6c3.6.3 13 1.4 21 2.5 8 1 20.7 2.4 28 3 7.5.6 16 1.7 19.1 2.4 6.3 1.6 4.3 1.7-8.5.4zm-121.3-2c.2-.7 1-1.6 1.8-2 18.6-8.8 25.5-13 33-20.2a53 53 0 0 1 9.9-7.8l2.6-1 30 .2 14.4-1.6c7.8-.9 14.7-1.3 15.2-1 .6.4.8 1 .4 1.6-.3.5-3.6 1-7.2 1-3.7 0-11 .6-16.2 1.3l-9.6 1.3-26.3-.5-3.4 1.2c-1.8.6-3.4 1.8-3.5 2.7l-.3 1.5 2.8 1.2 2.7 1.2-8.4-1-2.2 3c-1.3 1.6-2.8 3-3.5 3-.7 0-2.5 1-4 2.4l-2.9 2.4L478 56c1.6.6 3.6 1 4.5 1h1.6l-2.3 2.4-4.5-1.3c-2.5-.7-5.6-1-6.8-.7a13 13 0 0 0-4.6 2.8 52 52 0 0 1-15.5 7c-.5-.1-.7-.6-.5-1.3zm46.2.4a1 1 0 0 1 1.3 0c.4.4 0 .7-.7.7s-1-.3-.6-.7zm-354.5-2c-1.7-1-3.2-2.3-3.2-3V60l3.2 1.4 5 2c1 .3 1.8 1 1.8 1.6 0 1.4-3 1.1-6.8-.8zm332.1.7c0-.6 1.1-1 2.5-1s2.5.4 2.5 1-1.1 1-2.5 1-2.5-.5-2.5-1zm-9.2-.7c.7-.3 1.6-.2 2 0 .3.4-.3.7-1.4.6h-2zm241-1.3-3-.8 12.3-.2 1.2 2-3.8-.1c-2 0-5.1-.5-6.8-1zm-57.9-.7c-1-.2-1.7-.8-1.7-1.3 0-.9 4.3-.5 11 1l3.5.8h-5.5c-3 0-6.3-.2-7.3-.5zm-243-1.4c0-.5.5-.7 1-.4.6.3 1 .8 1 1s-.4.5-1 .5a1 1 0 0 1-1-1zm-5.7-2.7c-2.4-.9-4.3-2-4.3-2.5v-1l2.8.7a12 12 0 0 1 4.7 2.7c1 1 1.8 1.9 1.5 1.8-.3 0-2.4-.8-4.7-1.7zm260 .7c-4.1-1-7.1-1.4-24.3-3a52 52 0 0 1-12.8-2c0-1.2 7.6-1.1 15.9 0 25.3 3.7 31 4.4 34 4.3 1.7 0 3.4.4 3.7.9l.6.9-6.8-.1a60 60 0 0 1-10.3-1zm-171.7-1-2-.8h5c2.8 0 6.1.5 7.5.9l2.5.8h-5.5c-3 0-6.4-.3-7.5-.8zm87.6-.5a817 817 0 0 1-41.5-4.5l-4-.8 6 .4c23.3 1.9 35.3 2.4 40 1.9l5.6-.7-.3 1.3-.3 1.3 5 1.5h-3.5l-7-.4zm136.6-.4c-.3-.6-.1-1 .5-1 .5 0 1 .4 1 1s-.2 1-.4 1c-.3 0-.7-.5-1-1zm-8.2-.7a1 1 0 0 1 1.4 0c.3.4 0 .7-.7.7s-1-.3-.7-.7zm-320.6-1.8-2.5-1.4h1.5c2.8-.1 6 1.1 5.5 2-.4.5-1 .9-1.3.9a13 13 0 0 1-3.2-1.5zm37.6-.6c-1.7-.4-6.7-.7-11-.8-4.5-.1-12.5-1-18-2l-9.8-1.6.4-1c.2-.6.5-1 .8-.8s4.1.6 8.5 1.2 11 1 14.5 1.2c10 .2 15.7 1 17.6 2.3 1 .7 1.4 1.5.9 1.8-.5.2-2.3.1-4-.3zm-94.7-.7-1.7-.7 3.4-1.6c1.9-1 3.6-1.3 3.9-.9.5.9-2.2 4-3.4 4l-2.2-.8zm278.3-.2c-1.9-.5-8.2-1.4-14-2.1a67.2 67.2 0 0 1-12-2.1l-1.5-.9 9 .6a148 148 0 0 1 30 4.6l1 .9-4.5-.1c-2.5 0-6-.5-8-1zm100.9-.8-.5-1.9-4.7-1.3a15 15 0 0 1-5.2-2.1c-.3-.5-1.8-.9-3.5-.9H688v-3h1.8c1 0 4 1.1 6.6 2.5 2.7 1.4 5.6 2.5 6.3 2.5 2.1 0 6.3 3 6.3 4.6 0 .8-.8 1.4-1.9 1.4h-1.8zm-37.3-.3c-1-1.4-.2-2 1.4-1l1.3.8-1 .7c-.6.3-1.4.1-1.7-.5zM374 48a52.5 52.5 0 0 0-6.6-4.5c-1.5-.8-4.8-1.4-7.3-1.4s-4.5-.4-4.5-.9c0-1.2 4.3-1.9 6.6-1 1 .4 3 .8 4.4.8l2.5.1 5 4.1c2.8 2.3 5.2 4.5 5.3 5 .7 1.8-1.6.8-5.4-2.2zm114.2 2-.6-1h3.2l-.6 1c-.3.5-.8 1-1 1-.2 0-.6-.5-1-1zm184.3-1.2-4-2-10.3-1c-5.7-.7-10.3-1.4-10.3-1.8s2.9-.4 6.5-.2l6.5.4v-1c0-.5-.7-1.3-1.6-1.6-.9-.3-3.6-.6-6-.6-2.5 0-6-.7-7.7-1.6l-3-1.6h-5.1c-2.8 0-6.8-.6-9-1.4l-3.8-1.4-7.5.7c-4 .3-8.2 1.2-9.1 1.9l-1.8 1.3 3.3.7c1.8.3 3.2 1 3.2 1.5v1l-2.7-.7a63 63 0 0 1-4.2-1c-1.7-.5-13 2.8-13 3.8 0 .4-1 .8-2 .8s-2.1-.6-2.4-1.4a53.5 53.5 0 0 0-19-6.6c-1.3 0-3.9-.5-5.6-1.1l-3.3-1.1.9-.8c.9-.9 13.3 1 17.3 2.7l7.8 2.8 5.3 1.7 4.5-1.2a17 17 0 0 0 5-2.1c.3-.5 1.4-.9 2.4-.9s3.6-1 5.6-2.2l3.6-2.1 10.7 1.2c15.2 1.7 21.3 2.6 24.5 4a21 21 0 0 0 6.6 1.1h3.8l2.7 2.2c1.5 1.1 4.4 2.7 6.4 3.3l3.5 1.3 3.1-1c3.8-1 10.2-1 9.2 0-.4.4-2.6 1.2-5 1.8l-4.1 1 4.7 2.6 2.2-1c3.8-1.8 5-1.9 6.6-.2l1.6 1.6-13.1.3zm-356-.2c.8-1 2.2-1.5 3-1.3s2.5-.2 3.5-.9 2.3-1 3-.8c.7.3 5-.7 9.4-2.1l8.3-2.6 6.4.6-3.5 1.8c-2 .9-4.3 2.2-5.3 3l-1.8 1.2L338 45l-9 2-11.4 2.7-2.5.6zm16-.6c0-.6.8-1 1.6-1h1.6l-.6 1c-.4.5-1 1-1.6 1a1 1 0 0 1-1-1zm279-.5-2-1.4 1.7-.7c2-.8 10.4.4 11.1 1.6l.6.9-6.8-1.1-.7 1c-.4.7-1 1.2-1.4 1.2-.4 0-1.5-.7-2.6-1.5zm29.1.3 1.2-1.1 2.3 1 2.3 1.2-7 .1zm-11.5-.5c1.5-.2 3.8-.2 5 0 1.2.2 0 .4-2.7.4-2.8 0-3.8-.2-2.3-.4zm-112.5-1c.7-.3 1.5-.2 1.9 0 .3.4-.3.7-1.3.6h-2zm36.5 0a1 1 0 0 1 1.3 0c.4.4.1.7-.6.7-.8 0-1-.3-.7-.7zM529.8 44l-4.6-.7h5c2.8 0 6.2.3 7.6.7l2.5.8h-3c-1.7 0-5-.4-7.5-.8zm47.5-1-.6-1h3c1.6 0 3.3.5 3.6 1l.6 1h-3c-1.6 0-3.3-.5-3.6-1zm55 0c.4-.5.9-1 1.1-1 .3 0 .5.5.5 1s-.5 1-1.1 1c-.6 0-.8-.5-.5-1zm-120.8-.7c1.7-.2 4.9-.2 7 0 2 .2.6.4-3.3.4-3.8 0-5.5-.2-3.7-.4zm54.8-.3-.6-1h1.5c.9 0 1.6.5 1.6 1 0 .6-.4 1-1 1-.5 0-1.2-.4-1.5-1zm51-.1-3-.7h5.2c2.9-.1 5.5.3 5.9.8l.6 1-2.8-.2c-1.6-.1-4.2-.5-5.9-.9zM497 41.3c-.7-.2-1-.8-.8-1.3a30.4 30.4 0 0 1 11.5 1.5c.5.7-9.2.4-10.7-.2zm-452.4-31a1 1 0 0 1 1.4 0c.3.4 0 .7-.7.7s-1-.3-.7-.7z"/>
</svg>
