<?xml version="1.0" encoding="utf-8"?>
<svg xmlns="http://www.w3.org/2000/svg" version="1.1" viewBox="0 0 333 353">
	<title>Sketch of an even steeper gorge than the previous diagram, with no labels, but retaining the solid and dotted lines.</title>
	<path d="M146 352.2c-.2-.4-.7-1.9-1-3.3l-.7-2.6-3.9-1.8-3.9-1.7-4.3 2.3-2.7-1.3a11 11 0 0 1-4-4.3l-2.9-5.9c-.8-1.6-1.3-3.4-1.3-4 0-.8-1-2.2-2-3.2s-2-2.4-2-3.2c0-2-3-7.2-6.5-11.7-1.7-2-4.9-5-7.1-6.6a17.4 17.4 0 0 1-5.1-5.2L92.7 288a62.2 62.2 0 0 0-7-11.7l-2.4-2.1-5 1-6.9-4.3-.6-3.1a17 17 0 0 1-.6-4.3c0-.6.8.2 1.8 1.7s2.1 2.4 2.5 2c.3-.3.3-1.7 0-3.2a77 77 0 0 0-9.4-19.1c-5.3-6.9-12.6-24.6-20.6-50.1-4.1-13.5-6.2-17.4-19-36.4L20 150a244 244 0 0 0-14.5-19.6c-1.8-2-2-4.6-.3-5.2 2-.6 10.8 8.3 13.6 13.8 1.4 2.7 4 6.8 6 8.9 2 2.2 4.8 6.7 6.4 10.2s3.9 7.9 5.2 9.9a99.9 99.9 0 0 1 10.7 23.6c7.7 25.5 14.4 41.8 21.5 51.6 2 2.7 3.5 5.3 3.5 5.7s1.2 3.2 2.6 6.2a28 28 0 0 1 2.5 9.1c0 2 .4 4.5 1 5.6l1 2H87l1.5 1.7A39 39 0 0 1 92 280c1.3 2.6 2.6 5 3.1 5.3.5.2 1.8 3.4 3 7l2.2 6.6 5 3c2.7 1.8 6.2 5 7.7 7.1a84 84 0 0 1 12.7 24.2l.7 3.7 5.3 4.1 3.7-.6c2-.3 4.8-.1 6.2.4a12 12 0 0 1 4.8 4.6l2 3.6 3.3-.6 1-3.8c.6-2 1.6-4.2 2.2-4.8a11 11 0 0 1 4.4-1.8l3.3-.7.7-2.7a26 26 0 0 1 4.5-7.2c2-2.5 4-6 4.5-7.8.4-1.8 1.6-5.5 2.5-8.3 1-2.8 2.1-6.6 2.7-8.5a17 17 0 0 1 2.8-5.5c2.8-3.2 5.9-10 7.6-16.8.9-3.4 2.4-7.2 3.4-8.3s3.3-4.5 5.3-7.6a38 38 0 0 1 6-7.5c1.3-1 2.9-2.8 3.4-4a30 30 0 0 0 1.8-7.8l.7-6 2.7-3.3c1.4-1.8 4.4-4 6.5-4.9l3.9-1.5 11.8-12v-2c0-1.3.5-4 1.2-6.2l1.2-4 4.2-1.8c2.4-1 5-3 6-4.5l1.8-2.7.3-5c.1-2.9.7-6.5 1.2-8.2a68 68 0 0 0 1.7-10.1 36 36 0 0 1 1.8-9 46.3 46.3 0 0 0 4.6-15.6c0-2 .7-5.7 1.6-8.5l1.5-5-.6-2.8-.6-2.7h1c.5 0 1.2.5 1.4 1.2.3.7.5-.6.5-2.8v-4.1l2.5-4c1.4-2.1 2.8-5.3 3.2-7l.6-3 5.6-6c3.1-3.2 6.5-7.2 7.4-9 1-1.7 2.4-6.7 3-11l1.2-7.9 3.5-6.5c2-3.6 4.2-7.4 5.1-8.3s2.7-2.4 4.2-3c1.4-.7 3.2-2.6 4-4.3.9-1.6 3-4.5 4.8-6.3 1.8-1.9 3.2-4 3.2-4.8s1.6-2.9 3.6-4.8l3.5-3.5V32c0-1.4 1.3-4.1 3-6.2a25 25 0 0 0 4-8 64 64 0 0 1 5.6-16l1.3-2 .7 1.9.7 1.8-2.2 7.1-3.3 11.2c-.6 2.2-1.7 4.4-2.3 5-2.2 2-5.3 7-6 9.8-.3 1.6-2.3 4.6-4.3 6.7A70.2 70.2 0 0 0 303.5 57c0 1.3-4 4.9-6.2 5.7-2 .7-7.8 11.3-9.5 17.7-.7 2.5-1.3 5.8-1.3 7.5 0 1.7-1.3 5.7-3 9l-3 5.8-9.7 9.4-1.1 4c-.6 2-2.2 7-3.6 10.9a94 94 0 0 0-6.7 24.6 16 16 0 0 1-1 6c-1.5 2.8-6.6 26-7.5 34.7-.6 4.7-1.7 8-3.7 10.4-.8 1-3.1 2.5-5.3 3.6l-3.9 1.8-4 12.9-10 11-10.8 5.1-1.4 3.3a21 21 0 0 0-1.4 6.6c0 1.8-.8 5-1.7 7-1 2-3.6 5.7-5.8 8a53 53 0 0 0-11.5 17.4c0 1-1.2 4.7-2.5 8a57.4 57.4 0 0 0-2.5 6.7c0 .4-1.1 2.3-2.5 4.4-1.4 2-2.5 4.5-2.5 5.4a4 4 0 0 1-1.4 2.9c-.8.6-2 3.3-2.7 5.9-.7 2.6-1.6 5.1-2 5.7-.6.5-1 1.9-1 3s-1.4 4-3.2 6.1a30.1 30.1 0 0 0-6.1 10.6l-.5 1.7-7.5.7-1.4 4c-.7 2.1-2.3 5-3.5 6.2-2 2.2-5.3 3-6.1 1.5zm12.3-48.8v-2.5h1.4c1.6 0 3 2.7 2 4-.2.6-1.1 1-2 1h-1.4zm-7-7V294h3.2l-.4 2.1c-.1 1.2-.8 2.4-1.5 2.6l-1.3.4zm-5.6-1c-.8-1.9.2-4.5 1.6-4.5.5 0 1 1.3 1 3 0 3.1-1.6 4-2.6 1.5zm-3.7-9.2c-.4-.4-.7-1.3-.7-2v-1.5l1.7.3c1 .2 1.8 1 1.8 1.8 0 1.6-1.8 2.5-2.8 1.4zm-6.6-3.5c-.6-1.7-1.1-3.9-1-4.8v-1.6l2 2.4c2 2.4 2.6 7.2 1 7.2-.5 0-1.4-1.5-2-3.2zm-14-2c-1.6-1.7-1.5-3.9.4-3.9h1.5v2.5c0 1.4-.2 2.6-.3 2.6-.2 0-.9-.6-1.5-1.3zm7-6.4-3.5-1.5 2.3-2.3 2.5 1.1c1.4.7 2.6 1.9 2.6 2.7s-.1 1.5-.3 1.5a70 70 0 0 1-3.7-1.5zm-11.1-8.9c-.6-1.5-1-3.1-1-3.6 0-.6.6-1 1.4-1h1.5l.7 2.6.6 2.6-2.2 2.2zm-3.7-10c-.3-1-.1-2.3.5-3l1.2-1 1 1.4c.5.8.8 2 .6 2.4-.5 1.8-2.7 1.8-3.3.1zm-17.4-5.7c0-.5.9-1 2-1s2 .3 2 .5-.9.6-2 .9-2 .1-2-.4zm8-1.4v-1.5h4v3h-4zm-11.6-9.6c-.3-.6-.1-1.6.5-2.2l1-1.1 1.2 1c1.2 1.2.4 3.4-1.1 3.4-.5 0-1.2-.5-1.6-1.1zM90 231c-1-1-.8-4.3.3-4.3.5 0 1 1 1 2.5s-.2 2.5-.3 2.5-.7-.3-1-.7zm-7.7-10.4-1.1-2h1.3c1.5 0 3.8 2 3.8 3.2 0 .5-.7.8-1.5.8s-2-.9-2.5-2zm-9-5c-1.7-1-1.2-1.2 4.2-1.4 2 0 3.8.3 3.8.7s-.6.7-1.3.7c-.7 0-2.1.3-3.2.6a5 5 0 0 1-3.5-.5zm-12-5.9L60 209l1.1-.7c1.4-.9 5.1.2 5.1 1.5 0 1.2-3 1.2-4.8 0zm57-83.2c0-.8.3-1 .7-.7.4.4.4 1 0 1.3-.4.4-.7.1-.7-.6zm-3.5-4c-.8-1.4.4-3.2 1.6-2.5 1.2.8 1.2 3.5 0 3.5-.5 0-1.2-.5-1.6-1zm8.2-.8c-.3-.5.5-2 1.9-3.3l2.5-2.3 1.2 1.2 1.2 1.2-1 1.7c-1.3 2-5 2.9-5.8 1.5zm-17.5-4.4c-1.6-1.7-1.5-3.9.3-3.9 1.6 0 3.8 3.4 2.8 4.4-1 1-1.7.8-3-.5zm26.9-.9c0-.5 1-1.4 2.2-1.9l2.3-.8.8.8c.5.4.6 1.3.2 1.9-.8 1.4-5.5 1.4-5.5 0zM146 114c-1.3-1.3-.7-3.3 1.4-4.4 1.1-.6 2.3-.9 2.7-.5.6.6-1.8 5.5-2.8 5.5-.4 0-1-.3-1.3-.6zm-52.1-4c-.4-.4-.7-1.3-.7-2v-1.4h4v4h-1.3c-.8 0-1.7-.3-2-.6zm64.8-3.7c-.3-.9-.3-2 .1-2.6.4-.6 1.6-1 2.7-1h2l-.7 4.4-3.5.7zM83 102.9c-.4-.4-.7-1.6-.7-2.6v-2l4.5.7v4l-1.6.3c-.8.2-1.8 0-2.2-.4zm89-3.3c-.6-1 5.4-6 7.3-6 2.4 0 1 2.8-2.2 4.8-1.9 1.2-3.6 2.1-4 2.1s-.8-.4-1.1-1zm-98.7-5-1.3-.9.6-1.6c.3-.9 1-1.6 1.7-1.6 1.4 0 2.4 3 1.3 4l-.9 1zm111.3-1-1.3-.8 2.9-2.1 4.8-4c2-2 7.6-4.2 10.2-4.2.7 0 1.3.4 1.3 1 0 1.3-5.4 4-8.3 4h-2.4l-1 2.4c-.7 1.4-2 3-3 3.5l-2 1zM.7 90.9C-.6 89.6 0 88.5 2 88.5h2l-.3 1.2c-.5 1.5-2.2 2-3.1 1.2zM62.5 88c-.7-1.8.3-3.5 2-3.5 1.6 0 3 2.7 2 4-.8 1.5-3.4 1.2-4-.5zm-48-.5c-.8-1.3.3-3 2-3 2 0 3 2 1.4 3.1-1.8 1.1-2.6 1.1-3.4-.1zm13.2-.7c-.3-.3-.6-1.5-.6-2.5v-1.8h4v1.4c0 1.7-2.5 3.8-3.4 3zm12-3c-.3-.3-.6-1.5-.6-2.5v-1.8h4.1l-.3 2.2c-.3 2.2-2 3.3-3.1 2.1zm13-.9c-1.7-1.7-1.3-3.4.8-3.4.8 0 1.9.6 2.5 1.4l1.1 1.3-1.4 1.2-1.4 1.2zm161.7-6v-1.6l1.8.4c2.1.4 2 2.2-.2 2.6l-1.6.3zm10-5.3c0-.4 1-1.6 2-2.6l2-1.8 3.6 1.4-2.4 2c-2.4 2-5.1 2.5-5.1 1zm12.3-10.3c.6-1.7 3.6-3.4 4.4-2.6 1 1-1.5 3.8-3.3 3.8-.8 0-1.3-.6-1-1.2zM248.5 50v-1.6h4.2l-.4 1.3c-.3.7-1.2 1.4-2.1 1.6l-1.7.3zm12.7-10.2c-1-1 1.3-3.4 3-3.4h1.6l-.6 1.6-.7 2c0 .7-2.6.5-3.3-.2zM272 26l-.7-1.8 3.3-3.2 2.4 2.4-2.2 2.2-2.2 2.2zm8.2-14.5c-.3-.5 0-1.7.8-2.7l1.5-2 2.4 2.5-1.3 1.5c-1.4 1.7-2.6 2-3.4.7zm10-8.1c-.8-1.2.1-3 1.5-3 1.2 0 1.2 2.7 0 3.4-.5.3-1.2.1-1.6-.4z"/>
</svg>
