<svg xmlns="http://www.w3.org/2000/svg" version="1.2" viewBox="0 0 1728 195">
  <title>5 bars of musical notation on the treble clef, in the key of D, and labeled with a tempo of Vivace.</title>
  <path d="M.00002434 53.47h1727.5m-1727.5 24.804h1727.5m-1727.5 24.806h1727.5m-1727.5 24.8h1727.5m-1727.5 24.8h1727.5" fill="none" stroke="#000" stroke-linejoin="bevel" stroke-width="2.73"/>
  <path d="M384.27 52.106v101.94m468.17-101.94v101.94m258.26-99.94v101.94m468.1-103.94v101.94" fill="none" stroke="#000" stroke-linejoin="bevel" stroke-width="4.46"/>
  <path d="M262.8 28.667h49.598m211.332 0h49.598" fill="none" stroke="#000" stroke-linejoin="bevel" stroke-width="3.97"/>
  <path d="M302.35 25.493v89.985m147.27-65.182v89.918M563.28 25.493v105.95m113.66-56.344v47.567m113.66-72.37v63.595m873.5-38.792v86.885" fill="none" stroke="#000" stroke-linejoin="bevel" stroke-width="2.73"/>
  <path d="M302.73 20.637c-1.7828-3.2865-5.5497-5.0691-10.123-5.0691-3.3639 0-7.038.99213-10.619 2.8833-6.5419 3.4725-10.51 9.3167-10.51 14.386 0 1.3797.29454 2.7748.99213 4.0615 1.7827 3.271 5.5497 4.9606 10.123 4.9606 3.364 0 7.0379-.88359 10.619-2.7749 6.5418-3.4724 10.51-9.3322 10.51-14.386 0-1.3952-.29456-2.7749-.99212-4.0615M450 45.44c-1.7828-3.2865-5.5497-5.0691-10.123-5.0691-3.3639 0-7.038.99213-10.619 2.8833-6.5419 3.4725-10.51 9.3167-10.51 14.386 0 1.3797.29454 2.7748.99213 4.0615 1.7827 3.271 5.5497 4.9606 10.123 4.9606 3.364 0 7.0379-.88359 10.619-2.7749 6.5418-3.4724 10.51-9.3322 10.51-14.386 0-1.3952-.29456-2.7749-.99212-4.0615M563.66 20.637c-1.7828-3.2865-5.5497-5.0691-10.123-5.0691-3.3639 0-7.038.99213-10.619 2.8833-6.5419 3.4725-10.51 9.3167-10.51 14.386 0 1.3797.29454 2.7748.99213 4.0615 1.7827 3.271 5.5497 4.9606 10.123 4.9606 3.364 0 7.0379-.88359 10.619-2.7749 6.5418-3.4724 10.51-9.3322 10.51-14.386 0-1.3952-.29456-2.7749-.99212-4.0615M677.32 70.244c-1.7828-3.2865-5.5497-5.0691-10.123-5.0691-3.3639 0-7.0379.99213-10.619 2.8833-6.5419 3.4725-10.51 9.3167-10.51 14.386 0 1.3797.2945 2.7748.9921 4.0615 1.7828 3.271 5.5497 4.9606 10.123 4.9606 3.364 0 7.0379-.88359 10.619-2.7749 6.5418-3.4724 10.51-9.3322 10.51-14.386 0-1.3952-.2946-2.7749-.9921-4.0615M790.98 45.44c-1.7828-3.2865-5.5497-5.0691-10.123-5.0691-3.3639 0-7.0379.99213-10.619 2.8833-6.5419 3.4725-10.51 9.3167-10.51 14.386 0 1.3797.2945 2.7748.9921 4.0615 1.7828 3.271 5.5497 4.9606 10.123 4.9606 3.364 0 7.0379-.88359 10.619-2.7749 6.5418-3.4724 10.51-9.3322 10.51-14.386 0-1.3952-.2946-2.7749-.9921-4.0615M1664.5 70.244c-1.7828-3.2865-5.5497-5.0691-10.123-5.0691-3.3639 0-7.0379.99213-10.619 2.8833-6.5419 3.4725-10.51 9.3167-10.51 14.386 0 1.3797.2945 2.7748.9921 4.0615 1.7828 3.271 5.5497 4.9606 10.123 4.9606 3.364 0 7.0379-.88359 10.619-2.7749 6.5418-3.4724 10.51-9.3322 10.51-14.386 0-1.3952-.2946-2.7749-.9921-4.0615M82.704 122c-1.2247-5.3792-3.8445-9.1772-4.6196-10.2-3.1624-4.2476-7.1464-7.0689-11.797-8.4176-3.0849-.86811-6.0613-.99213-8.464-.8061-1.0386-5.9682-2.0308-11.797-2.9299-17.207 5.4103-6.1232 9.0067-11.874 11.27-16.138 3.4415-6.5263 4.5731-11.068 4.6351-11.27 1.7052-5.1776 2.0617-12.82.96107-20.959-.99213-7.4874-3.0693-14.153-5.4102-17.377-1.0076-1.4108-2.0617-2.14-3.0849-2.14-1.2091 0-3.7049 1.2253-6.5728 3.9844-2.2787 2.1698-5.5187 6.0301-8.061 11.998-2.9764 7.0069-3.1934 16.417-2.8368 23.083.37204 7.2239 1.4726 12.867 1.4882 12.913.0155.093.27899 1.5812.71305 4.1235-.21698.23255-.46501.44963-.71305.69766-1.0232.99212-2.2013 2.1083-3.581 3.4879-.85263.85263-1.7982 1.7517-2.7904 2.7129-8.3711 8.0765-21.067 20.308-21.067 39.313 0 4.6661.89911 9.0532 2.6663 13.037 1.5657 3.5654 3.8445 6.8209 6.7589 9.6732 7.6735 7.503 18.184 10.681 25.175 10.526 2.9298-.0775 5.5498-.31004 7.9215-.75957 1.8137 9.5336 2.9453 16.51 2.9764 21.811.0465 6.4644-1.5967 10.417-5.4567 13.161-2.4183 1.7206-5.2087 2.6663-8.2781 2.8058-2.5733.12402-4.821-.34109-6.2317-.74409h-.0155s-.27908-.0931-.29456-.27909c-.0155-.18602.34099-.23245.34099-.23245h.0311c1.9068-.43406 5.4412-1.6587 7.7819-4.9297 1.7828-2.5113 2.6509-7.0998.82168-11.006-1.1007-2.3719-3.581-5.3017-9.1617-5.7512-2.4803-.2015-4.7281.31004-6.7123 1.5037-1.7982 1.0696-3.2864 2.6974-4.3251 4.6816-2.4338 4.6661-1.9842 10.355 1.1161 14.169 2.9453 3.5964 7.5184 5.8908 12.913 6.4643.85263.0931 1.6897.12402 2.5268.12402 4.4026 0 8.7586-1.1936 12.309-3.3794 3.6275-2.5578 5.7358-6.5108 6.4024-12.092.55807-4.6041.17044-10.479-1.2092-18.494-.35657-2.0773-.89906-5.0846-1.5502-8.8051 5.7047-1.9068 9.8283-5.4567 13.564-11.27 3.2709-5.6892 4.2011-11.751 2.7904-18.013m-33.949 26.012c-4.6041-1.2092-9.0066-3.6895-12.727-7.1774-1.3022-1.2091-3.1624-3.3639-4.6195-6.7279-1.3487-3.1469-2.0153-6.5573-1.9533-10.107.062-4.6661 1.3642-9.4562 3.8445-14.2 2.8989-5.5342 7.4255-11.022 13.44-16.308 1.4417-1.2711 2.8058-2.5423 4.077-3.8134.75957 4.232 1.5812 8.8826 2.4493 13.719-3.8134 1.2556-8.526 4.3871-11.611 9.9987-3.519 6.5109-3.3795 11.999-2.6509 15.456.93012 4.4181 3.4415 8.154 6.8674 10.231.93012.55807 5.0226 2.6663 6.8518 2.0928.37205-.10854.63566-.34109.77515-.66661.51154-1.1627-.51154-1.7982-2.0463-2.7439-.6046-.37205-1.2712-.7906-1.9842-1.3177-3.3019-2.4648-4.7436-6.8829-3.6739-11.239.57354-2.3718 1.8447-4.5266 3.6739-6.2163 1.6432-1.5347 3.6739-2.6199 6.0302-3.2554 2.0308 11.161 4.077 22.23 5.7047 30.523.12402.68209.26351 1.3486.38753 2.0152-4.3406.93012-8.65.83716-12.836-.26351m11.239-32.942c10.262-.46501 14.494 6.9139 15.378 11.704.46501 2.5268.46501 6.9294-1.0697 11.115-1.1626 3.1468-3.5965 7.1929-8.6966 9.2392-.062-.41857-.13949-.85263-.21698-1.2712-1.5347-8.7121-3.457-19.625-5.3947-30.787m-7.2705-70.394c1.7673-5.6892 4.4801-8.9137 6.4644-10.634 1.7362-1.5038 3.3639-2.2168 4.2785-2.2168.13949 0 .26351.031.35647.062.46511.13949.99213.69756 1.4572 1.5657 2.2943 4.2476 1.5502 10.913.21697 15.316-1.6122 5.3637-4.511 10.929-13.239 20.463-.17055-1.1007-.32552-2.1392-.48058-3.1159-1.2402-8.2161-.91465-15.44.94559-21.439M156.04 80.164c.6046-.10844 1.1007-.80611 1.1007-1.3951v-5.8598c0-.79052-.6046-1.3796-1.3952-1.3796h-.2015l-3.2709.69757v-14.789h-2.7749v15.378l-8.8361 1.7828v-13.983h-2.7749v14.587l-3.8755.79062c-.58908.0931-1.0851.79063-1.0851 1.3797v5.9528-.18603c0 .7906.58907 1.3797 1.3952 1.3797h.29454l3.2709-.69758v16.37l-3.8755.80615c-.58908.093-1.0851.79053-1.0851 1.3796v5.7513c0 .8061.58907 1.3951 1.3952 1.3951h.29454l3.2709-.69756v14.789h2.7749v-15.378l8.8361-1.7827v13.983h2.7749v-14.587l3.767-.69756c.6046-.0931 1.1007-.79063 1.1007-1.3798v-5.8597c0-.7906-.6046-1.3797-1.3952-1.3797h-.2015l-3.2709.68209v-16.37l3.767-.68213m-15.378 19.533v-16.463l8.8361-1.7827v16.37l-8.8361 1.8757M131.24 42.959c.6046-.10844 1.1007-.80611 1.1007-1.3951v-5.8598c0-.79052-.6046-1.3796-1.3952-1.3796h-.2015l-3.2709.69757v-14.789h-2.7749v15.378l-8.8361 1.7828v-13.983h-2.7749v14.587l-3.8755.79062c-.58908.0931-1.0851.79063-1.0851 1.3796v5.9528-.18603c0 .7906.58907 1.3797 1.3952 1.3797h.29454l3.2709-.69758v16.37l-3.8755.80615c-.58908.093-1.0851.79053-1.0851 1.3796v5.7513c0 .8061.58907 1.3951 1.3952 1.3951h.29454l3.2709-.69756v14.789h2.7749v-15.378l8.8361-1.7827v13.983h2.7749v-14.587l3.767-.69756c.6046-.0931 1.1007-.79063 1.1007-1.3798v-5.8597c0-.7906-.6046-1.3797-1.3952-1.3797h-.2015l-3.2709.68209v-16.37l3.767-.68213m-15.378 19.533v-16.463l8.8361-1.7827v16.37l-8.8361 1.8757M214.18 85.311c-2.4803 1.5967-4.2631 4.4646-4.2631 7.6426 0 .40302 0 .79057.0931 1.1936.49606 4.0615 3.7825 7.2394 7.844 7.7355h1.0852c4.9606 0 8.9291-3.9685 8.9291-8.9291v-.58913c0-.403-.0931-1.1007-.18603-1.4882-.89916-4.2631-4.7746-13.394-21.641-13.394-21.625 0-24.106 17.951-24.106 24.4 0 11.812 1.4882 26.601 26.291 26.601 9.8283 0 17.471-5.7667 17.858-16.386 0-.49607-.29457-.7906-.79063-.7906h-1.2866c-.4031 0-.79062.40305-.79062.7906-.4031 8.2471-6.2628 13.208-14.99 13.208-8.6346 0-12.805-4.6662-12.805-13.394v-18.959c0-5.5498 2.1858-11.906 11.022-11.906 4.6662 0 6.7434 1.6897 7.844 3.3794.18603.38752.18603.69756-.10853.88358M435.85 31.403c1.5192 1.5192 3.9685 1.5192 5.4722 0 1.5192-1.5037 1.5192-3.953 0-5.4722-1.5037-1.5037-3.953-1.5037-5.4722 0-1.5037 1.5192-1.5037 3.9685 0 5.4722M549.51 6.6c1.5192 1.5192 3.9685 1.5192 5.4722 0 1.5192-1.5037 1.5192-3.953 0-5.4722-1.5037-1.5037-3.953-1.5037-5.4722 0-1.5037 1.5192-1.5037 3.9685 0 5.4722m113.66 37.205c1.5192 1.5192 3.9686 1.5192 5.4722 0 1.5192-1.5037 1.5192-3.953 0-5.4722-1.5036-1.5037-3.953-1.5037-5.4722 0-1.5036 1.5192-1.5036 3.9685 0 5.4722m113.66-12.402c1.5192 1.5192 3.9686 1.5192 5.4722 0 1.5192-1.5037 1.5192-3.953 0-5.4722-1.5036-1.5037-3.953-1.5037-5.4722 0-1.5036 1.5192-1.5036 3.9685 0 5.4722"/>
  <path d="m448.26 133.99 343.71-26.533v12.438l-343.71 26.534V133.99" fill-rule="evenodd"/>
  <path d="M303.47 115.88c0-.20152.89911-3.581.99212-3.8755.093-.40305 1.8912-6.0458 5.5497-11.704 2.6819-4.17 12.107-16.37 11.812-16.37 0 0 7.348-9.4252 7.844-22.23v-2.2788c0-6.0613-.79062-14.587-4.2785-23.222-.38763-.99212-.79063-1.9842-1.8758-1.5812-1.1006.38753-.79053 1.5812-.49607 2.6663 1.7828 6.9604 2.7749 14.091 2.7749 21.238 0 8.3401-2.9764 12.51-4.7591 15.58-6.5573 11.006-15.083 16.37-19.253 17.765-.49606.2015-.7906.58912-.7906 1.0852v22.431c0 .68208.58907 1.2867 1.2867 1.2867.49606 0 1.1006-.40306 1.1936-.79061"/>
  <path d="M997.47 28.667h49.59" fill="none" stroke="#000" stroke-linejoin="bevel" stroke-width="3.97"/>
  <path d="M1037 13.091v101.07" fill="none" stroke="#000" stroke-linejoin="bevel" stroke-width="2.73"/>
  <path d="M1037.4 8.236c-1.78-3.2865-5.55-5.0691-10.12-5.0691-3.36 0-7.04.99213-10.62 2.8833-6.54 3.4725-10.51 9.3167-10.51 14.386 0 1.3797.29 2.7749.99 4.0615 1.78 3.271 5.55 4.9607 10.12 4.9607 3.37 0 7.04-.8836 10.62-2.7749 6.55-3.4724 10.51-9.3322 10.51-14.386 0-1.3952-.29-2.7749-.99-4.0615m.7 106.324c0-.201.9-3.581.99-3.875.1-.403 1.89-6.046 5.55-11.704 2.68-4.17 12.11-16.37 11.81-16.37 0 0 7.35-9.4252 7.85-22.23v-2.2788c0-6.0613-.79-14.587-4.28-23.222-.39-.9921-.79-1.9843-1.88-1.5812-1.1.3876-.79 1.5812-.49 2.6664 1.78 6.9603 2.77 14.091 2.77 21.238 0 8.3401-2.97 12.51-4.76 15.58-6.55 11.006-15.08 16.37-19.25 17.765-.5.2015-.79.5891-.79 1.0852v22.431c0 .682.59 1.287 1.29 1.287.49 0 1.1-.403 1.19-.791"/>
  <path d="M1157.4 28.667h49.6" fill="none" stroke="#000" stroke-linejoin="bevel" stroke-width="3.97"/>
  <path d="M1196.9 25.493v89.985" fill="none" stroke="#000" stroke-linejoin="bevel" stroke-width="2.73"/>
  <path d="M1197.3 20.637c-1.78-3.2865-5.55-5.0691-10.12-5.0691-3.37 0-7.04.9921-10.62 2.8833-6.54 3.4724-10.51 9.3167-10.51 14.386 0 1.3797.29 2.7749.99 4.0616 1.78 3.2709 5.55 4.9606 10.12 4.9606 3.37 0 7.04-.8836 10.62-2.7749 6.54-3.4724 10.51-9.3322 10.51-14.386 0-1.3952-.29-2.7749-.99-4.0615m.7 95.243c0-.201.9-3.581.99-3.875.09-.403 1.89-6.046 5.55-11.704 2.68-4.1705 12.11-16.37 11.81-16.37 0 0 7.35-9.4252 7.85-22.23v-2.2788c0-6.0613-.79-14.587-4.28-23.222-.39-.9921-.79-1.9843-1.88-1.5812-1.1.3876-.79 1.5812-.49 2.6664 1.78 6.9603 2.77 14.091 2.77 21.238 0 8.3401-2.97 12.51-4.76 15.58-6.55 11.006-15.08 16.37-19.25 17.765-.5.2015-.79.5891-.79 1.0852v22.431c0 .682.59 1.287 1.29 1.287.49 0 1.1-.403 1.19-.791"/>
  <path d="M1299.6 37.894v89.986" fill="none" stroke="#000" stroke-linejoin="bevel" stroke-width="2.73"/>
  <path d="M1299.9 33.039c-1.78-3.2865-5.55-5.0691-10.12-5.0691-3.36 0-7.04.9921-10.62 2.8833-6.54 3.4724-10.51 9.3167-10.51 14.386 0 1.3797.3 2.7749.99 4.0615 1.79 3.271 5.55 4.9607 10.13 4.9607 3.36 0 7.03-.8836 10.61-2.7749 6.55-3.4724 10.52-9.3322 10.52-14.386 0-1.3952-.3-2.7749-1-4.0615m.8 95.241c0-.201.9-3.581.99-3.875.1-.403 1.89-6.046 5.55-11.704 2.68-4.17 12.11-16.37 11.82-16.37 0 0 7.34-9.4252 7.84-22.23v-2.2788c0-6.0613-.79-14.587-4.28-23.222-.39-.9921-.79-1.9843-1.87-1.5812-1.11.3876-.8 1.5812-.5 2.6664 1.78 6.9603 2.77 14.091 2.77 21.238 0 8.3401-2.97 12.51-4.76 15.58-6.55 11.006-15.08 16.37-19.25 17.765-.49.202-.79.59-.79 1.086v22.431c0 .682.59 1.287 1.29 1.287.49 0 1.1-.403 1.19-.791"/>
  <path d="M1402.2 99.902V31.109" fill="none" stroke="#000" stroke-linejoin="bevel" stroke-width="2.73"/>
  <path d="M1402.6 95.047c-1.78-3.2865-5.55-5.0691-10.12-5.0691-3.36 0-7.04.9921-10.62 2.8833-6.54 3.4724-10.51 9.3168-10.51 14.386 0 1.38.3 2.775.99 4.062 1.79 3.271 5.55 4.96 10.13 4.96 3.36 0 7.03-.883 10.62-2.775 6.54-3.472 10.51-9.332 10.51-14.386 0-1.3952-.3-2.7749-1-4.0615m1.7-60.4657c-.09-.2945-.99-3.7669-.99-3.9685-.09-.403-.7-.6976-1.19-.6976-.7 0-1.29.6046-1.29 1.2867v22.431c0 .4961.41.8837.79 1.0852 4.17 1.2867 12.81 6.7589 19.26 17.765 1.78 3.0695 4.66 7.2395 4.66 15.58 0 7.1464-1.1 14.681-2.88 21.625-.3 1.101-.59 2.093.49 2.481 1.09.403 1.49-.388 1.9-1.38 3.56-8.743 4.46-17.874 4.46-24.012v-1.8913c-.5-12.805-7.84-22.23-7.84-22.23.29 0-9.13-12.2-11.82-16.37-3.65-5.6582-5.45-11.301-5.55-11.704"/>
  <path d="M1504.8 87.5V16.266" fill="none" stroke="#000" stroke-linejoin="bevel" stroke-width="2.73"/>
  <path d="M1505.2 82.645c-1.79-3.2865-5.55-5.0691-10.13-5.0691-3.36 0-7.03.9921-10.62 2.8833-6.54 3.4724-10.51 9.3167-10.51 14.386 0 1.3797.3 2.7749 1 4.0615 1.78 3.2715 5.55 4.9605 10.12 4.9605 3.36 0 7.04-.883 10.62-2.775 6.54-3.4721 10.51-9.3319 10.51-14.386 0-1.3952-.3-2.7749-.99-4.0615m1.7-62.9067c-.1-.2945-1-3.7669-1-3.9685-.09-.403-.69-.6976-1.19-.6976-.7 0-1.29.6046-1.29 1.2867v22.431c0 .4961.41.8837.79 1.0852 4.17 1.2867 12.81 6.7589 19.26 17.765 1.78 3.0695 4.66 7.2395 4.66 15.58 0 7.1464-1.1 14.68-2.88 21.625-.29 1.1006-.59 2.0928.5 2.4803 1.08.4031 1.49-.3875 1.89-1.3797 3.56-8.7431 4.46-17.874 4.46-24.012v-1.8913c-.49-12.805-7.84-22.23-7.84-22.23.29 0-9.13-12.2-11.81-16.37-3.66-5.6583-5.46-11.301-5.55-11.704M122.51 184.38l-6.359-16.156c-.235-.64-.36-1.078-.36-1.328 0-.719.719-1 2.485-1h.828v-2.156h-14.469v2.156c2.359 0 3 .484 3.922 2.766l9.719 24.547h3.515l9.156-22.235c1.282-3.156 3.079-4.828 5.516-5.078v-2.156h-11.797v2.156c2.61.047 3.891.922 3.891 2.719 0 .484-.125.922-.36 1.531l-5.687 14.234m23.359-10.687-9.39.281v2.047h.562c2.438.031 2.547.203 2.547 3.75v9.25c-.031.547-.078.797-.234 1.031-.235.36-1.047.516-2.719.516h-.156v2.047h12.515v-2.047h-.25c-2.515-.031-2.875-.266-2.875-1.719v-15.156m-3.234-10.547c-1.969 0-3.563 1.594-3.563 3.516 0 1.953 1.594 3.562 3.485 3.562 2.031 0 3.594-1.562 3.594-3.562 0-1.922-1.594-3.516-3.516-3.516m21 23.875-4.281-9.359c-.203-.438-.328-.797-.328-1.047 0-.641.562-.922 2.093-.875v-2.047h-11.281v2.047c1.469.031 1.875.359 2.719 2.078l7.359 15.359h3.391l6.156-13.922c1.125-2.718 2.047-3.562 3.813-3.515v-2.047h-9.079v2.047c2.188-.047 3.079.39 3.079 1.562 0 .563-.079.797-.719 2.391l-2.922 7.328m30.359-7.125c0-2.594-.484-3.844-1.89-5-1.469-1.156-3.953-1.797-7.11-1.797-5.515 0-9.125 2.031-9.125 5.156 0 1.719 1.36 3 3.25 3 1.875 0 3.266-1.125 3.266-2.593 0-.485-.188-1.047-.547-1.532-.359-.468-.359-.468-.359-.671 0-.688 1.312-1.282 2.906-1.282 2.453 0 3.328 1 3.328 3.797v2.078c-.203.047-1 .25-2.484.563-2.485.515-3.391.765-5.11 1.359-3.718 1.235-5.328 2.922-5.328 5.563 0 2.953 2.235 4.672 6.156 4.672 3.438 0 5.532-.75 7.641-2.829.688 1.797 2.203 2.829 4.25 2.829 2.266 0 4.391-1.594 4.391-3.313 0-.406-.203-.641-.594-.641-.25 0-.484.079-.813.282-.359.234-.468.281-.75.281-.875 0-1.078-.516-1.078-2.875v-7.047m-6.281 3.328v2.235c0 3.078-1.406 5.031-3.687 5.031-1.547 0-2.547-1.078-2.547-2.75 0-2.156 1.234-3.36 4.109-4.047l2.125-.469m28.641 2.313c-.563 1.484-.922 2.125-1.516 2.922-.969 1.281-2.531 2.031-4.203 2.031-3.281 0-5.125-2.797-5.125-7.75 0-4.797 1.766-7.563 4.766-7.563 1.156 0 2.078.485 2.078 1.125 0 .157 0 .157-.438.719-.687.922-.812 1.234-.812 2 0 1.719 1.375 2.922 3.281 2.922 2.172 0 3.562-1.328 3.562-3.406 0-3.313-3.109-5.438-7.953-5.438-6.64 0-11.406 4.313-11.406 10.36 0 5.843 4.328 9.75 10.766 9.75 2.953 0 4.922-.797 6.672-2.719 1.171-1.188 1.812-2.391 2.406-4.281l-2.078-.672m24.593-2.047v-.641c0-5.953-3.671-9.75-9.562-9.75-3.234 0-5.875 1.031-7.875 3.078-1.797 1.875-2.875 4.516-2.875 7.157 0 2.875 1.234 5.718 3.234 7.437 1.844 1.563 4.516 2.438 7.563 2.438 4.672 0 7.765-2.079 9.515-6.36l-1.953-.797c-1.609 3.125-3.359 4.438-6 4.438-1.843 0-3.437-.875-4.437-2.391-.688-1.078-.969-2.328-1-4.609h13.39m-13.359-2.188c0-3.812 1.531-6.125 3.922-6.125 2.078 0 3.156 1.688 3.156 4.844 0 .953-.281 1.281-1.078 1.281h-6"/>
  <path d="M929.66 99.902v-68.94" fill="none" stroke="#000" stroke-linejoin="bevel" stroke-width="2.73"/>
  <path d="M930.04 95.047c-1.783-3.2865-5.55-5.0691-10.123-5.0691-3.364 0-7.038.9921-10.619 2.8833-6.542 3.4724-10.51 9.3168-10.51 14.386 0 1.38.295 2.775.992 4.062 1.783 3.271 5.55 4.96 10.123 4.96 3.364 0 7.038-.883 10.619-2.775 6.542-3.472 10.51-9.332 10.51-14.386 0-1.3952-.295-2.7749-.992-4.0615m13.38-4.3717c0 2.7439 2.217 4.9606 4.961 4.9606 2.743 0 4.96-2.2167 4.96-4.9606 0-2.7438-2.216-4.9606-4.96-4.9606s-4.961 2.2168-4.961 4.9606m734.48 0c0 2.7438 2.2168 4.9606 4.9606 4.9606 2.7439 0 4.9607-2.2168 4.9607-4.9606s-2.2168-4.9606-4.9607-4.9606c-2.7438 0-4.9606 2.2168-4.9606 4.9606"/>
</svg>