<?xml version="1.0" encoding="utf-8"?>
<svg xmlns="http://www.w3.org/2000/svg" version="1.1" viewBox="0 0 1141 758">
	<title>Sketch of a mountain shaped nearly like a triangle, with a ridge extending to the right and left along the top.</title>
	<path d="m170 756-2-4s1-2 3-2l2-1 3 1 2 2c0 2-3 6-5 6l-3-2zm12-11-2-2 1-2v-3l3-1 5-2h3v4l-3 4-5 3-2-1zm14-13-3-2-2-3 2-2 2 2 5-4c2-3 5-5 6-5l1 1v4l-2 4-3 3-4 3-2-1zm12-17-1-1 5-5c2-3 5-5 6-5l1-2 5-7 5-5 2 1c2 0 3 1 3 2 0 2-9 11-11 11h-1l1 2v3l-4 3-7 4h-4zm23-28-3-4a316 316 0 0 0-54 1l-17-1h-16v1H96l-3 1-2 1-1-1H56a318 318 0 0 1-44 0l-8 1-2-2-2-4 2-3 3-1 25-2 3 1 47 1 38 1c15 1 21 1 26-1l3-1 5 3h13a915 915 0 0 1 29 0h38l5 1 1-1 2-8v-7l2-1 3-2 2-1 1-3 1-3 5-3v-6l2-2 5-3 2-1 2-4 1-8v-4l11-8-1-2c-1-2 1-6 5-10l5-4h5l-1-3v-3l1-3c2-3 7-6 10-6h2v-2l-1-2-2-3 4-6 3-5 5-1v-5l2-8 1-3 6-2v-7l2-3 5-3 4-1v-2l2-6 3-6c0-3 4-8 8-12 2-2 4-5 4-8l5-9 4-5 4-1 5-2 3-5 8-16 5-12v-3l6 1 2-4 6-9 5-8 4-10 3-8 6-3 4-2 1-4 4-8 4-9 2-8 3-7 4-8c2-2 2-5 2-7v-3l4-5 7-7c2-1 3-4 4-6l3-4 2-1v-3l5-11 4-9v-10l7-11 4-3 6-6 4-11 3-9c2-2 8-15 11-24l3-12 5-6 5-5 1-5 1-10v-5l4-4 11-11 7-7 2-7c2-6 9-20 12-23l1-4 3-4 5-7 5-7 3-3 5-8 5-8 4-4 4-3v-2c0-4 2-8 6-10l4-2 2-7 5-10 2-5-1-5-1-2 7 1 1-2c1-2 3-4 6-4l3-2 4-3 2-1v-3l1-5c2-2 8-4 13-3l3 1 5 5 1 4 3 8 2 3 8 2 2 3 2 4 1 3 2 8 1 12 1 5 3 5 4 7 2 4 5 5 4 11 4 10 7 2 5 3 3 4 3 7v4h2c4 1 9 7 11 11l5 6 8 7 5 5v6l11 11 1 5 2 7 6 8 6 8c0 1 3 0 5-2l2-3h8l5 5 1 6 4 11c3 7 9 16 12 19l4 5 1 5v3l3 5 6 7 4 7c1 2 3 6 5 7l2 3h4l7 1 7 7 4 6 11 9 3 2 2 3 3 6 4 5 1 4-1 4v4l4 3 4 4v2l2 4a86 86 0 0 1 15 22l5 8 2 5 1 1v7l2 2 2 4c0 3 2 6 7 10l21 21 5 6h2l6 3 4 4h9l5 3 6 5 3 2 6 3 4 3 9-1 2 3 4 7c0 4 3 7 5 7l1 1 4 6 3 5v8l3 6 3 7 2 5 1 5v3l2 1 2 4 1 2 2 1 4-1 1-1h3l2 1 11-8h4l6-1 7 2 5 2 1 3 3 3 3 3 3 5 2 2-2 1-2 2v2h4l1-2 1-2 3 4 4 4 2 1 2 3 1 4h2l8 3 18 6 6 2 1 2-1 2-1 3-1 2-7-2-11-3c-6-1-13-4-13-5l-4-2-5-1v-3l1-2 7-1-2-1h-2l-4 1-6 1c-2-1-5-3-5-6v-2h-2l-3-3-3-3-2-2 1-3v-2l-5 1-3-3-3-3v2c0 2-2 4-3 3l-2-2c0-3-2-6-3-6s-1 4 1 6l1 3-1 1-2 2s-3-1-3-3l-3-2v6h-5l-8-1h-2l-1-3-3-3-9-7-6-6v-12l-2-5v-4l-6-1v-2l1-3 1-2v-2h-3l-3-1v-2l2-2-8-6 1-1c2-2 1-6 0-7l-2-2v7l-4-1-1-3-1-5-1-2-1 3-1 2-2-2-2-1-3 2-1 2 7 7h4l3 4 4 3v6h2l3 3 1 3h-2l-4 2-2 1-2-2-2-6c0-3-2-7-4-7l-2 1v1l-2-1h-2v-6l-3-1-5-3-2-2 1-2 2-3h2v-3l-1-3-4-1h-2l-1-3-1-4-3-5-2-3v3l-1 3c-1 1-7-2-7-4l-3-3-5-3-7-4-3-2-9-9-8-9-7-7-7-6-2-6-5-13-3-10-3-4-3-6-1-2c-1 0-3-2-4-5l-5-6c-2-1-3-4-4-6l-5-7-2-6-7-17-2-5-6-3-7-7-5-6-4-4h-2l-6-2-4-1-5-4-7-10-3-6-4-2-6-5-4-16v-4l-3-2-4-5-3-5-6-14c0-2-3-3-7-2l-4 1-20-19v-3c0-3-2-11-5-15l-4-4-4-2-1-5-2-7-7-6-5-5-16-16h-1l1 2v7l-5-4-4-6-4-3-3-2-1-7-2-10-2-5-2-5-3-6-1-4h-4c-3 0-8-1-10-5l-2-2v-1l1-22-2-8-2-4 1-4h-1l-2 2v10l1 4-1 1-2-1-3-5-1-4 3-8-1-2-4-6-4-5-1-4-3-7c0-2-2-3-3-3h-2l1 6 1 6 2 2c3 3 6 12 6 17v4l-2 1h-3l-1-7-1-8-1-3h-4v2l2 3v1h-2l-3-1-3-5-2-4h-2v2l2 3c2 1 2 3 0 4h-2l-3-3-5-2-3 4-2 3 4 4 4 4-1 2-2 1-3-3-4-2c-1 0-4 5-5 12l-1 6-3 3-4 3v3l-1 4-5 4-5 3-1 4-3 6-2 2v6h-2l-1-1-8 8-1 4-1 5-4 4-4 5-5 12-3 7a51 51 0 0 1-12 20l-6 7v3c0 5-2 12-4 16l-7 8-5 5-2 6-3 11c-1 7-4 15-7 20l-2 5-4 6-3 8-1 5-3 2c-7 5-9 8-10 13l-2 4-1 6-1 5-5 10c-6 12-12 20-15 24-3 2-6 9-6 11l-2 3c-2 2-6 11-9 20l-4 12c-4 8-8 17-10 17a50 50 0 0 0-11 16l-4 6-4 10a467 467 0 0 0-31 47v3l-2 1-4 5-1 3-3 1-7 1h-3v1l2 3 1 3-2 5-2 3 1 4 1 4h-1l-2-1-7-2h-6l3 4 3 3 2-5 1 3-1 1-1 3-1 4-2 1-2-1-3-1 1 3 1 3h-5l-1-1-1 1 2 2 1 2h-3c-6 2-10 3-11 5v9l1-4v-3l4-3h10v1l-1 4-1 3h-4l-2 4-2 4c-2 1-5 0-6-2l-3-1h-2l-1 3-2 6-1 3 6-5 5 3v2c0 1-1 2-3 2l-2 3-1 3v2h-5l-1-5-6-2-1 1v2l1 2-4 3 1 2 1 3 4-1 3-2 2 1 2 2-3 3-3 1-2 4-1 3-5 1v-7h-1l-2 2-1 2-1-1-2-1v4l-4 1v3l7 3v5h-1c-3 0-7 5-7 8l-1 3-3-1v-9l-1-2-2-1v4l-5 1v1l1 4v9l-4 1-2-1-1-1v1l-2 2-3 2 2 3 2 2-2 3h-2l-2 7-9 4v2l-1 5-1 5v2l4-3 4 3 8-3 3 2c2 0 3 2 3 2l-1 1h-7l-2 1-2 1h-2l-1 4-2 6v1l-1-1-4 1-5 2-2-1-1-3-2-4-2-1v5l-1 8c-1 3-8 10-9 10l-4-3zm-206-7-1-1-1 1v1l2-1zm229-13 3-1h3l1-2 2-3-2-2-2 2-2 2-1-2-4-2h-1v4l1 5 2-1zm43-63-1-1v1l1 1v-1zm36-52h-2l1 1 1-1zm2-6v-2h-1l-2 1c-1 1 1 4 2 3l1-2zm450-330-2-1h-2l1 2c1 1 3 1 3-1zm-77-80v-4l-3-2-4-3c-2 0-4 3-4 5 1 2 10 8 11 7v-3zm-31-44c0-2-4-8-5-8-2 0-1 6 1 8s4 2 4 0zm-40-58c-1-6-2-8-3-8l-1 5-1 5 1 1 3 1h1zM266 673c0-3 1-5 3-5l3 1v1l-2 2-3 2-1-1zm1-23 2-5v-1l12 1v-2l-2-3-2-3c0-3 4-10 6-13l3-2h1l2 3v2h-4v1c1 2-1 5-2 5l-2 1v1l4-1 5-1 1-3 1-3 3-1 2-2 3-4 4-6c0-2 1-4 3-5l2-3 6 7v4l-3 1-3 1-1 1 1 1 1 3v1l-6-1v7l-7 1v11l-2 1-3 2h-2l1-8h-2l-3 1v4l-1 3-3 3-9-1v3c0 2-2 4-5 4h-1v-5zm43-35-1-1-1 1 1 1 1-1zm5-6-2-2-1-4v-4l10-8 5 1 1 2v2l-1 1-4 1h-2l-1 1 1 4 1 4c0 2-2 4-4 4l-3-2zm689-94-1-1 1-5 2-1h3l2 3 2 4v1l-8 1zm-47-44c-2-2-2-6-1-7l5-2 3-1 1 4v5l-1 2h-3l-4-1zM730 109l-1-1 6-3 8-3 15-5-8-6-8-5h-14v1l1 4 4 4 3 2-3 1h-3l-3-3-3-4v-5l-4-2-9-1c-8-1-15-2-18-4l-6-2-4-1-1-2v-2h3l6 2c4 2 10 3 21 4l12 3 3 1 19 1 2 2c3 3 15 8 18 8l15-8 8-6 6-4 6-3 7-3 14-4 9-3 16 2 4 2 4 2-1 2-2 2-3-2c-6-2-15-4-20-3h-4l-1 2h3l3 1v1h-16l-3 1-3 2c0 2 7 3 21 3h14l6-2 7-3 5-3 6-4 11-13 6-7 4-2 12-2 3 3 2-2 7-1 4 1v2l-1 4-2 1-17 3-1-1-5-1h-5l-1 3-4 6a157 157 0 0 1-21 16c-1 2-18 13-22 15l-6 1h-2l1-1 7-5 8-5 1-1h-4l-18 1-13 1-12-4-7 6-10 7c-1 2-15 8-16 8l-6 3-11 4-10 3c-4 3-8 3-9 1zM337 64l-2-4c0-2 3-5 11-11a345 345 0 0 0 26-17l6-3 6-2 7-2 3-2h17l10 2 12 3 2 3v1h-5l-10-2-5-2h-16v1l-1 2 3 2c1 1 5 4 9 5l6 4-1 2-2 1h-2l-4-2-7-3-6-3-4 1-4 1-6 3c-2 1-7 3-9 6l-6 4-1-1c0-2-2-1-6 3-5 5-16 12-18 12l-3-2zm78-1-1-2c0-2 22-24 27-27 3-3 6-4 10-5 1 0 5-2 7-5l7-4 5-6 5-6 4-2 11-2 13-2 11-1 4-1 7 3 8 4 5 1c3 1 7 2 9 4l7 3 8 3 7 2h3l1 2v1l-1 1-6 1h-4l-2-2-8-3-9-4-3-2-5-2-14-4-9-3-2 1-3 2 1 3 3 2 5 4c7 5 11 7 14 7l3 1c1 2-2 3-5 3l-7-2-5-2-2-3-3-3-7-4-6-4-6-1-9 1-3 1-5 6-5 5-4 4c-4 4-12 8-15 8l-7 4-6 4-3 5-4 6c0 2-5 7-8 9-3 1-7 2-8 1zm-54-6h2-2zm217-14-8-5c-1-1 0-2 1-2l1-1 7 4 10 4h3l-1 2-3 1-10-3zm-157 0-2-1v-2l1-2c2-1 6 1 6 3l-1 1-4 1zm176-1-5-2-3-2-7-4c-4-3-5-7-3-7s7 4 9 7l2 2 13 1 1 2 1 3-3 1-5-1zm-55-5-4-1c-1-1-1-3 1-4h5l3 1 4-1 7-1h3v3l-5 2-8 2-6-1z"/>
</svg>
