<?xml version="1.0" encoding="utf-8"?>
<svg xmlns="http://www.w3.org/2000/svg" version="1.1" viewBox="0 0 640 634">
	<title>Sketch of a railroad bridge with a thin rail on either side, leading off into the mountains behind.</title>
	<path d="M286 632.6c-.7-.8-1.6-3.8-2.1-6.8-.5-2.9-1.5-6.8-2.1-8.6l-1.2-3.4.6-5.5a29 29 0 0 1 1.7-7.4l1-1.8-1-2.5c-.6-1.4-.7-2.8-.3-3l4.3-1.1 3.6-.7 1.8 2.7 1.8 2.8-1.2 7-1.7 9.7c-.3 1.4-.7 5.6-1 9.5l-.5 7 7.2-7.5c4-4.1 8-8.6 8.8-10l1.7-2.4.1-5c.1-2.9.5-7.4.9-10.2l.7-5.2-5.4-.5c-6.3-.7-21.7-1.2-27.4-.8-8 .5-11.7.2-12.8-.8a4.6 4.6 0 0 0-2.8-1.1c-1 0-2-.7-2.3-1.6l-.6-1.5 1.6-.6c1-.4 7.8-.3 15.3.1 7.5.4 21.3 1 30.6 1.2 9.4.2 17.4.8 18 1.3.4.5.5 1.7.2 2.6l-.7 1.7-3.8-.6c-2.1-.3-4.1-.3-4.5 0-.4.4.7 1.3 2.4 2l3 1.3 1 2.6c.5 1.4 1 4.2 1 6.1v3.5l-1.5 1.5c-.9.8-1.5 2.6-1.5 4 0 1.3-.7 2.7-1.5 3s-3.5 3.4-6 6.8a39 39 0 0 1-13.4 12.3c-1.3.7-4.3 1.3-6.7 1.3h-4.2zm53.2-15.9a48.8 48.8 0 0 1-3.3-11.2c0-.3.7-.5 1.5-.5h1.5v-2c0-1.2-.5-3-1-4.2l-1.1-2 .9-1.1c.5-.7 1.2-2.5 1.6-4l.6-2.7h3.8l2.6 3.4c1.4 1.9 2.6 4 2.6 4.8 0 .7-.7 3-1.4 5.3l-1.5 4 4.1 7-2.8 2.2a10.3 10.3 0 0 1-5 2.3c-1.2 0-2.6-.6-3.1-1.3zm-244.8-1.3c-1-1 5.3-8 6.8-7.7.7.2 1.4-.3 1.7-1 .3-.8 2.3-1.8 4.4-2.2 4.1-.7 7.3-3 7.3-5.2V598h5.6l6.7-4.5c3.7-2.5 7-4.5 7.6-4.5.5 0 1.6-.9 2.5-1.9l1.7-1.9-2-.5c-2-.5-7 1.3-9.9 3.6A65.3 65.3 0 0 1 113 594c-.6 0-1.4.9-1.7 2l-.5 2H109c-1 0-3 1-4.3 2.2-1.3 1.3-4 3.3-5.8 4.6l-3.4 2.3-1.8-.6c-1-.3-2-1.3-2.4-2.1-.3-.8 0-2.4.7-3.5.6-1 1.5-2 1.9-2s1.9-1.2 3.4-2.8l2.7-2.9 3.4 1 5.6-8.3 3.7 1.2-1.2-3.1h2c1 0 3.6-1 5.8-2 2.2-1.2 4.8-1.9 5.8-1.6l1.9.4-.6-2.6-.5-2.7 6.1-11.7 7.5-3.2 1.3-3c.7-1.8 1.5-5.4 1.7-8.1.2-2.8 1-5.7 1.8-6.6l1.3-1.5-2.5-6 .6-12.5c.4-6.8.5-14.7.2-17.5-.2-2.7-.5-8.5-.5-12.8l-.1-7.8 2.7-1.7-3.1-1.7-.6-12h-11.7c-6.4 0-12-.3-12.4-.7-1-1 1.5-3.8 3.5-3.8 1 0 2.4-.7 3-1.5.7-.8 1.7-1.2 2.2-.9.5.3 1.6 0 2.4-.6l1.4-1.2 4.4 1.1 1.2-1.6 1.2-1.6 1.3.8c.7.4 3.3.8 5.9.7 5 0 17.7-1.5 32.1-3.6 5.2-.8 13.8-2 19-2.6a148.3 148.3 0 0 0 23.6-4.6c7.8-1.7 11.3-2.6 21.4-6.2l8.4-3-1.4-.4c-.8-.3-3 0-4.8.8-1.8.8-4.9 1.4-6.7 1.4s-6 .7-9.1 1.6a627 627 0 0 1-34.4 7.5 361 361 0 0 1-38 3.9c-20.8 1.3-20.3 1.2-21.8 1.1-1.9-.2-1.5-4 .5-5 1-.4 5.5-1.2 10-1.6l8.4-.7 1.3 1.1 1.3 1.1 1.3-3.2 4.8 3.1 3.8-.6c2.2-.3 4.3-.9 4.9-1.3.6-.4 3-.8 5.4-.9 2.5-.1 4.9-.5 5.3-.8.5-.2 4.6-.9 9.1-1.4 7.5-.7 15.6-2.2 27.8-5a115 115 0 0 1 9.5-1.8c7-1.2 15.5-4 15.5-5.2 0-.5 1.5-1 3.4-1a20 20 0 0 0 6.7-1.3 15 15 0 0 1 6.4-1l3 .5 2-2c1-1.2 2.9-2.1 4.2-2.1h2.3l1.3-2c.6-1.1 1.8-2 2.6-2 .7 0 3.8-1.4 6.8-3 3-1.7 6-3 6.7-3 .8 0 2.1-1 3.1-2 1-1.1 2.7-2 3.6-2 1 0 2.1-.5 2.4-1 .4-.6 1.8-1 3-1h2.5l1-2c.6-1.1 1.8-2 2.5-2 .8 0 4-1.6 7.1-3.5 3.2-1.8 6.3-3.2 7-3 1.4.7 10.2-8.5 11.5-12a35 35 0 0 0 1-9.1v-6.5h2.2l-1.2-1.5-1.3-1.5 1.3-1.5c.8-.9 1.4-2.6 1.6-3.8 0-1.2.7-5.5 1.2-9.7 1.3-8.7 2.8-22.5 4-35.9l1-9.3 2.3-1.5-1.3-1c-1.3-1.1-4.2-1.1-6.8 0-.8.3-2.6.5-4 .4l-2.5-.2.3 1.4.3 1.4-3.8-.8a56 56 0 0 0-6.7-.9c-1.6 0-3.1-.6-3.3-1.2l-.4-1.2h4.2c2.3 0 4.6-.5 5.2-1 1.6-1.7 0-3.9-3.1-4.5-1.7-.3-4.5-.2-6.3.3l-3.3 1-2.8-2.4-.7 1c-.3.6-1.4 1.3-2.4 1.7l-1.8.7-1.8-1.9-1.8-1.8-1 1.4c-.4.7-2.3 1.8-4.1 2.3l-3.3.9v-1c0-.5 1.2-.9 2.6-.9h2.6l-.7-1c-.3-.5-2-1-3.6-1h-3l.7 2.1.6 2.1-10-1.3-1.8 1-3.8 1.6-2 .6 1.2 1c.6.6 3 1.2 5.4 1.3l4.3.1-.1 1c-.1.6-2.8 1.5-6 2.1l-5.9 1.2 2.5.2c4 .5 7.2 0 11.4-1.4l3.8-1.3-1.6-.6c-2.1-.8-2-2.7.2-2.7a6 6 0 0 0 3-1l1-1.2.7 1 .6 1.1 4.9-1.8 1.1 1.9 3.8-2.4 2.7 1.2c1.4.7 3 1 3.5.7s1.8-.1 3 .5l1.9 1-1 2.8h-11.4l-.4 1.1c-.1.6-1.7 1.1-3.5 1h-3.2l2-1.4c1-.8 1.6-1.7 1.3-2-.3-.4-1.4-.2-2.4.3s-2.5.7-3.3.4l-1.4-.5.7 1.7.6 1.6H291c-1 0-3.3.6-5.2 1.4-4 1.7-12.8 2-14.6.5l-1.3-1.1v6.2l-2.4.6c-3 .7-5.7.2-5.7-1 0-.6 1-1.3 2-1.6 2.3-.5 5.1-5 5.1-8.2v-2l-2 .7c-1 .3-5.1.8-9.1 1-4 .3-7.5.7-7.8 1-.3.3.7 1.6 2.2 2.8l2.8 2.2-.6 1.8c-.7 1.7-3 2.2-6 1.1-1.7-.7-2-3.4-.4-3.4h1.1l-1.2-1.5a4.8 4.8 0 0 0-3.1-1.5h-2V308l-6.8 1.6-.6-1.5-.5-1.4-1.2.7c-.6.4-4.4.6-8.5.5l-7.3-.2v2.9l-8 1.2-1 2c-.6 1.1-2 2-3 2s-2 .5-2 1-1.2 1.7-2.6 2.6l-2.5 1.7-2.5-2-6 1.5a66 66 0 0 1-10 1.6l-4.1.2-2.9 2.2c-1.5 1.2-3.4 2.2-4 2.2s-1.7-.5-2.1-1.1l-.7-1.2-2.8 3.8-.8-1.3-.9-1.4-5 4.4.5 1.8.5 1.9-4.9 3a20 20 0 0 1-7.4 3.1h-2.5l-1-2.9-1.2-3 3.5-3c2-1.7 3.3-3.4 3-3.6s-1.8.1-3.3 1c-1.6.8-3.7 1.7-4.7 2l-1.7.5v6l1.5.7c.8.3 1.5 1.2 1.5 2 0 1.7-2.7 1.8-3.5 0-.3-.6-.3.5 0 2.6l.6 3.7-3.3 4.2a19.2 19.2 0 0 1-5.6 5l-2.3.8.3 1.8.3 1.7h-5l.2-3c.4-7 1-10.1 2-12.8.7-1.5 1.3-3.5 1.3-4.4v-1.7l-1.3 1.2c-1.5 1.6-8.2 1.6-9.5 0-.5-.7-1.3-2.5-1.6-4l-.7-2.8h4.8l.7-1.7.6-1.7-2.2-1.7-2.2-1.6.6-3.8.7-3.8 2.7-2.9c3.2-3.3 7.7-5.7 10.8-5.9l2-.1 10-10.9-1.1-4-1.1-4.1 1-3.7c.8-3.4 2-6.7 3.8-10.1l.7-1.5h5.8l.3-2.5c.4-3.6 4.7-12 8.1-15.9l3-3.4 4.8 1 2.4-4.6c1.3-2.6 3-5 3.6-5.4.7-.5 2.2-2.6 3.3-4.8l2-4h6v-5.9l1.4.6 1.4.5 3.5-3c3.5-3.1 7-4 8.2-2.1.8 1.3 3.5 1.3 3.5 0 0-.6-.9-1-2-1-2.2 0-2.6-1.5-.7-2.7.7-.5 2.5-2.5 4-4.6s3.5-3.7 4.3-3.7 1.4-.4 1.4-.8c0-1.3 3.9-3.2 8-3.9l4-.6v1.3c0 1.6-2.5 3.6-7.2 5.6-2 .9-3.8 2-3.8 2.3 0 .4-1.5 2.4-3.5 4.4l-3.5 3.6v4.6l-4.5 2.2c-2.4 1.3-5.6 2.3-7 2.3s-2.5.4-2.5 1c0 .5-1.1 2-2.5 3.4l-2.5 2.5-2.8-1-.6 2a4.3 4.3 0 0 1-2.5 2.5l-1.7.6-3.3 10.1 2.9-.6 2.8-.6.7 1c.3.6-.1 2.2-1 3.5-1.7 2.6-6.7 5.6-9.2 5.6h-1.5l1.4-6h-1c-2.4 0-4.2 1.3-4.2 3.2 0 1-1.4 3.3-3 5l-3.1 3-.6 5.2-.6 5.1-2.1 2.2c-1.2 1.3-2.7 2.3-3.3 2.3-.7 0-1.7-.8-2.2-1.8l-1-1.7-.5 1.5c-1.1 3.4-1.3 8.6-.4 10.4l1 1.8-1.1 1.1c-.6.6-1.1 2-1.1 3s-2 4.2-4.6 7l-4.5 5.2-1 3.8-1 3.7h-1.4a3 3 0 0 1-2.2-1.4 6 6 0 0 0-3-2l-2.2-.7-.6 1c-.4.6-.2 1.1.3 1.1h1l-.6 2.1a6.3 6.3 0 0 1-2.4 3.2c-2 1.3-2.5 3.7-.8 3.7h1.1l-.3 3.2-.4 3.2 1.1.3c.6.2 1.6-.8 2.3-2.1.6-1.4 1.5-2.6 2-2.6s1.5.7 2.2 1.6l1.3 1.5 2-2a13 13 0 0 1 5.2-2.6 73 73 0 0 0 7.2-2.2c2.3-.8 4.7-1.3 5.4-1l1.3.3-4.4 4.4h1.9c1 0 2.4-.7 3.1-1.5 1.4-1.7 7.2-4.7 8.6-4.4h6.2l.5-2.2.6-2 1.8.2c1 .2 2.7 0 3.8-.4 1.1-.4 3.5-.8 5.3-1 1.7-.2 3.9-1 4.7-1.7l1.5-1.2 11.9 1.3 1.9-2 1.9-2 2 1.4c1 .8 2.2 1.5 2.6 1.5.4 0 .4-.6.1-1.4s0-2.3.5-3.4l1-2 8-1.2.5-3.2 1.2-6.5.7-3.3h1.6c1 0 2.2-.4 2.9-.8l1.2-.8-.6-2.2c-.3-1.2-1.2-2.2-2-2.2h-1.3l.6 1.4c.6 1.6-1.2 3.1-2 1.7l-.6-1-4.8 2.3-1.2 3.3c-.6 1.8-1.8 3.3-2.6 3.3s-1.5-.4-1.5-1c0-2.9-5.2 1.1-6.4 4.9-.4 1-2 2.7-3.6 3.5l-3 1.4-.6-1c-.5-.9 2.4-4.8 5.5-7.4l1.4-1-.7-1.2c-.3-.6-.2-2 .4-3.1l1-2 7.4-.6.2-1.7c.1-1 2.7-4.1 5.6-7.1 3-3 6.3-6.6 7.5-8l2.2-2.7 6.4 1.3 2-2.4c1-1.3 2.3-3.4 2.8-4.5l.8-2.2 5.1-1 1.5 2.2 1.5 2v-6.6l1.3.4c2 .6 2.1 4.3.3 5.7-.8.8-1.5 2.2-1.5 3.3v2l-6-1.4-1.1 2.9-2 4.5-1 1.8h1.5c2.6 0 2.9 2 .6 4.5a17.7 17.7 0 0 1-5.1 3.5c-1.6.7-3 1.6-3 2.1 0 1.5 3.3 1 5.1-.6l1.7-1.6 2.7.7c1.4.3 3.5 1.9 4.6 3.4 1 1.6 2 3.3 2 3.9 0 .6-.9 1.6-2 2.3l-1.8 1.2 1 2 1.8 3.6.7 1.5 10.7.6.8-1.5c.5-.9 1.5-1.6 2.2-1.6s2.3-.9 3.6-2l2.3-2h3.2c1.7 0 3.7.5 4.3 1.2l1.2 1.2v-2l9.2-.2.6 1.6.6 1.6 1.3-3.7 4-.4c2-.2 4.3-.8 4.8-1.3l.9-1-2.6-2.4c-1.5-1.3-2.8-2.2-3-2-.3.2-5.2.5-11 .7l-10.4.3-5.2 3.2a22.3 22.3 0 0 1-7.2 3.2h-2v-3l2.5-.6a11 11 0 0 0 5-3.7l2.6-3 12 .2c6.7.1 12.7.5 13.5.8l1.4.5v-5.4l1.8.5c1 .2 2.5.8 3.4 1.2l1.7.6-.2-1.8-.1-1.8 2.6.3c1.5.1 3-.2 3.3-.8l.7-1h19.8l.6 1c.3.5 1.2 1 2 1 1.9 0 5.5 3 5.5 4.7v1.2l-11.5-1.2-1.2-1.6-1.2-1.6-6.2 3.4-5-1.9-2.2 1.2a135 135 0 0 1-3.7 1.8c-.9.4-1.7 1.5-1.9 2.5l-.3 1.8 2-.5c2.1-.6 5.2.8 5.2 2.4v1l-2.7-.5a9.5 9.5 0 0 0-4 0 2 2 0 0 0-1.3 1.9v1.4l3-.4c1.6-.2 3.6-.9 4.4-1.5l1.4-1.2.6 1c.4.6 2.9 1.1 5.6 1.1h4.9l1.4-2.3-3.5.6c-4.3.7-9-.2-8.6-1.6l.4-1 18.4-.4 2-1.8 2-1.9 2.1 2.1-.9 3.4-.8 3.4-4.2 2 6 3.6 1.8-1.6c1-.9 3.3-1.7 5.2-1.9 2-.1 4-.6 4.6-1 .6-.3 1.4-.2 1.7.4l.6 1h6.3c3.4 0 6.7.5 7.3 1 .5.6 3.2 1.3 6 1.5 4.6.3 6.8 1 13.8 4a37.6 37.6 0 0 0 13.4 3.5c1.7 0 3.2.5 3.2 1s1.5 1 3.4 1 3.7.5 4 1c.4.6 1.5 1 2.4 1 1 0 2.8 1 4.2 2 1.4 1 3.2 2 4 2 .9 0 3.1 1.4 5 3 2 1.6 4 3 4.7 3 1 0 7.9 3.1 11.3 5.2l4 2c5.9 2.5 12.5 6.3 19 11 3.1 2 6 3.8 6.5 3.8s2.3 1 4 2.3c1.7 1.2 4.7 3.1 6.8 4.2 2 1 5.5 3.4 7.7 5.2s4.7 3.3 5.8 3.3c1 0 2.6.8 3.4 1.8 3.6 3.9 9.6 9.1 13.4 11.6 3.5 2.3 19 13.8 22.2 16.6a80.4 80.4 0 0 1 12.4 9c1 .9 3.2 2.7 5 4l4.8 4.3a62 62 0 0 1 12.3 11l8.8 9.3-.2 4.2c-.2 2.3-.6 4.5-1 4.9-.4.3-2 0-3.8-.6-1.6-.7-3.7-2.6-4.5-4.2-.8-1.5-2-2.8-2.6-2.8H558l.8 6.2c.4 3.5.6 8.8.5 11.8l-.4 12.5-.1 7 2 2.1v16.9l-4.5.7v-4.2h-6.6l-1.2-2-1.2-2-3.8.5a457 457 0 0 1-36.5 1c-.4-.3-.5-1.2-.2-2l.6-1.4 7.1-.1 21.8-.3 14.6-.2-.4-1.7-.5-1.8h1.6c1.8 0 3.2 1.8 3.2 4.4 0 1 .6 2.1 1.4 2.4l1.4.5-.7-1.9c-.4-1-1-3.8-1.3-6.1l-.6-4.4-1.1.4c-.7.2-1 1.2-1 2l.1 1.7-6.6.2h-23.6l-17-.3-1.3-1c-.7-.7-1.3-2-1.3-3s-.5-1.9-1-1.9c-2 0-2.1 2.7-.5 7.1 1 2.4 2.8 7.6 4.2 11.4l2.5 7h21.8c12 0 22.2-.3 22.6-.7.4-.4 1.6-.8 2.6-.8s2.8-.5 4-1.2l2.1-1.3.5 1.3a2 2 0 0 0 1.8 1.2c.8 0 1.9.9 2.4 2l1 1.9-1 .7c-.7.4-13.5.7-28.6.7-15 0-27.4.2-27.4.6l3.4 12a56.1 56.1 0 0 0 4.3 12c.6.3 1.4 2.2 1.7 4.1.4 2 1.1 4.4 1.6 5.5a53 53 0 0 1 2 8.3c.7 3.5 1.7 6.5 2.2 6.8.4.3.8 2.6.8 5v4.5h-2.4c-1.4 0-2.8-.6-3.2-1.2-.4-.7-.9-2.6-1-4.3-.7-5.8-1-8-1.6-9.6l-1.8-6.5c-.7-2.7-1.8-6.4-2.6-8.1a17 17 0 0 1-1.4-5.6c0-1.4-.6-3-1.4-3.7-.7-.6-1.6-3.2-2-5.8-.3-2.6-1.3-6-2.1-7.6-.8-1.6-1.5-3.6-1.5-4.5 0-1-.7-2.5-1.5-3.6l-1.5-2 .6-2 .5-2.2-1.5-1.3a4 4 0 0 1-1.6-2.8c0-1.8-8-22.3-9.5-24.2-.5-.7-2-3.9-3-7l-2.1-5.6-2.4-1.2c-1.4-.7-2.6-1-2.8-.9s.3 1.9 1.1 3.7c3.4 7.9 4 9.5 4.3 10.9.5 2.9 4.6 14.5 6.4 18.5 1 2.2 2 5.8 2.3 8 .5 4.3 3.2 14.7 4.7 18 1 2.5 1.8 9.2 3 27 .4 7.7.6 16.7.3 19.9l-.6 5.8-4.3 2-2.7-1c-1.5-.6-2.7-1.6-2.7-2.1 0-.6 1-1 2.1-1h2.1l-.7-2.8c-.4-1.5-1-4.4-1.2-6.5l-.5-3.8-3.2-.1a45 45 0 0 0-4.6 0l-12 .5c-5.6.3-10.7.9-11.2 1.4l-.9.8 13.6-.8-2.6 2.7-8.4-.1c-4.7 0-9-.5-9.5-.8l-1-.7.9-1.8c.5-1 2.2-2.3 3.8-2.8a113 113 0 0 1 26.7-3.2h8l1-1 1-1-2-5.6-5.6-.6-3.6 3.2-34.8-.4-2.7 1.1c-1.5.7-3 .8-3.2.4a663 663 0 0 0-71 1.4c-.9.3-1.7 1-1.7 1.4 0 1.4 8.1 2 23.5 1.9l15-.2.7 2 .7 1.8.2-3 7.8-2.1 3.4 1.9 3.8-1.1c6.6-2 15-1.2 15 1.5 0 .7-.5 1.4-1.2 1.5-.7 0-1.7.3-2.3.4-.5.1-3.6.3-6.7.3l-5.8.1v1.4c0 .8-.7 1.7-1.6 2-.9.4-5.2.6-9.6.6h-8l2.6-3.2-9 .7c-4.9.3-19 .6-31.2.5l-22.2-.1-.6 3.8a45 45 0 0 1-1.7 6.6c-.6 1.6-.9 3-.6 3.3s4 0 8.4-.6c4.4-.5 9.6-.7 11.6-.4 2 .3 4.2 1.2 4.8 1.9.6.7.8 2 .5 2.8-.3.9-1.6 1.8-2.8 2.1-3.6 1-7.5.7-8.3-.5l-.7-1.2 3.5 1.3 1.4-1.4c2-2 1.8-3.1-.2-1.4l-1.7 1.4-21.6-.2c-18-.2-54.7-1.1-60.2-1.5-4.2-.4-7.1.4-8.9 2.3l-2 2 .6 3.3.5 3.2-3.2 2.6-8.3-1-8.7 8.8v4l-1.8.6c-5.4 1.8-7.5 3-11.4 6.7a82 82 0 0 1-7.9 6.7 80.8 80.8 0 0 0-8 6.8l-4.6 4.5-4.4 1.3c-5.1 1.6-11.6 1.8-12.4.5-.3-.5.6-1.6 2-2.5a10 10 0 0 1 3.4-1.6c1 0 4.2-2.5 7.6-5.8.7-.7 1.8-1.2 2.4-1.2.6 0 1-.5 1-1.1v-1.1l-1.7.7a67.9 67.9 0 0 0-11 4.6 29.8 29.8 0 0 1-7 2.9c-.7 0-1.3-.4-1.3-1 0-1.3 5-5 7.7-5.7 1.3-.3 2.3-1 2.3-1.4 0-.5.9-1 2-1 1 0 2-.3 2.2-.8a63 63 0 0 1 8.9-6.3 1478.4 1478.4 0 0 0 17.4-11.2c1.7-1 4.1-2.9 5.4-4.2 1.2-1.4 2.8-2.4 3.4-2.4s2-.8 2.9-1.6l1.8-1.6-1.2-3.2 1.2.8 1.2.7 3.3-2.2a19 19 0 0 0 4.9-5l1.6-3h2.4c1.3 0 3.2-.8 4.2-2s2.4-2 3.2-2c.7 0 1.3-.6 1.3-1.5s.7-1.8 1.5-2c.8-.4 1.5-1.2 1.5-2 0-1.3 5.8-6.5 7.3-6.5.6 0 5.6-4.7 11.3-10.6l10.3-10.5.3-2.7.4-2.7 3.3.6.7-2c.3-1.2 1.6-3.2 2.8-4.5 20.7-22.7 22.6-25 22.7-26.7a4 4 0 0 0-1.4-2.8l-1.4-1.2-1.4 3c-.7 1.8-2 3.4-3 3.7-.9.3-3.7 3-6.3 6.2-5.8 7.2-9.6 11.2-10.7 11.2-.5 0-.8.7-.8 1.5s-.4 1.5-.8 1.5a75 75 0 0 0-9.1 8.2l-8.4 8 2.6 1.7-3.9 1.6c-2.1.9-7 4.2-11 7.4s-10 7.7-13.5 10.1a239 239 0 0 0-26 20.8c-3.1 2.9-6 5.3-6.4 5.3-.9 0-1.9.7-7.7 5.9-2.6 2.2-5 4-5.6 4.1-.4 0-2.4 1.4-4.3 3-2 1.6-3.8 3-4.3 3-.4 0-2 1.1-3.7 2.5-1.5 1.4-4.2 3.4-5.9 4.3s-4.4 2.8-6 4.2a73.4 73.4 0 0 1-5.2 4c-4.8 2.7-14.5 8-17 9-1.3.6-3.5.8-4.8.5l-2.3-.6.3-2.7.3-2.7 2.1-.3a9.6 9.6 0 0 0 4.5-2.8c1.2-1.3 3.1-2.4 4.2-2.4 2.5 0 7.7-3.8 7.7-5.6 0-.8 1.2-1.7 2.5-2l2.6-.7-1.2-1.3-1-1.4-1.7.8c-1 .5-8.2 1-16.2 1l-14.5.2-9.9-2.5-.3 1c-.2.7-2.4 4-4.9 7.3l-4.5 6.2-1.9-1c-1-.6-2.2-1-2.5-1-.3 0-.5 1-.5 2.4v2.5l-2.3 1.2c-1.2.7-3 2.3-4.1 3.6l-2 2.5-3-.6c-1.8-.2-2.6-.3-2 0 1.9.8.6 2.4-1.2 1.7a3 3 0 0 0-2.7.5c-.7.5-3.5 1.5-6.3 2.1l-7 1.7c-1.1.3-2.3.2-2.7-.2zm29.2-11.4 1.5-1H123c-1.3 0-2.5.4-2.9 1-.7 1.3 1.6 1.3 3.5 0zm62.7-21.1c.4-.7 0-1.5-.6-2a46 46 0 0 0-18 1.2l-1.5 1 17.5-1.3v1c0 1.5 1.7 1.5 2.6 0zm-36-1.1c4.3.1 9-.2 10.4-.8l2.5-1h-17c-5-.1-11 0-13.4.3-2.4.3-4.9 1-5.5 1.7l-1.3 1 8-.8c4.5-.5 11.7-.7 16.1-.5zm30.2-5.8c2.4 0 5.3.5 6.5 1.1 1.2.7 3.3 1.3 4.7 1.4l2.5.2 4.2-2.9a20 20 0 0 1 5.2-2.8c.5 0 1.1-.4 1.3-.8s1.9-1.8 3.8-3.2l3.4-2.4.4 1.2c.6 1.6 2.3 1.5 2.3-.2s4.8-5.5 13.6-10.6l6.7-3.9h-23.4c-13 0-28.2-.5-34-1a55 55 0 0 0-11.3-.4l-1 .6 1.8 1.3c1 .7 3.1 1.4 4.6 1.4 1.5 0 3 .4 3.4 1 1 1.4-1.2 4.7-3.7 5.6-3.3 1-19.8.4-21.9-1l-1.7-1-1.7 1.7c-1 .9-2 1.7-2.5 1.7s-2.7 1.5-5 3.5a17.8 17.8 0 0 1-5.5 3.5c-.7 0-1.6.7-2 1.5l-.5 1.6 2.8 2.9 1.7-3 4 1.4a83 83 0 0 0 14.7 2c6 .4 11 1.1 11.3 1.6.3.4 2.9.2 5.8-.6a46 46 0 0 1 9.5-1.4zm-15.8-19c0-.5-.9-1.2-2-1.5l-2-.7-2.7 1.6-2.8 1.5h4.7c2.7 0 4.8-.4 4.8-.9zm162-3v-2.8l-3.6 1-.6-2c-.3-1-.2-3.4.4-5.3l1-3.7c0-.1-1.8-.3-4-.3H316l-.3 7.5-.3 7.5 5 .3 5.6.6c.3 0 .6-1.1.7-2.7zm11-1.3c0-4.6.3-6.6 1.6-8.6l.8-1.3-2.8.3a10 10 0 0 0-4.2 1.2c-.6.5-1.2 2.3-1.2 4 0 1.7-.5 3.8-1 4.6l-.9 1.5 1 1.3c.7.7 2.4 1.3 3.9 1.3h2.8v-4.3zm-45.9 2.3h2.7l1.2-4a28 28 0 0 0 1.2-6.2c0-2.7-1.7-4.9-3.7-4.9a38 38 0 0 0-8.3 7c-3.9 3.7-7 7-7 7.4 0 .8 5 1.5 8.3 1a54 54 0 0 1 5.6-.3zm14.9-6.8.3-6.3h1.3c.7 0 1.6 1 1.9 2.1l.5 2.1 1.1-.6c.6-.4 1-1.8 1-3.1v-2.5h-9v1.3c-.5 3.6-.4 5.4.3 7l.8 1.6-2 5.3 3.5-.7zm5.8 5.2c-.4-.9-.6-2.5-.6-3.5s-.5-2-1-2c-.6 0-1 1.6-1 3.5v3.6h3.2zm-159.8-4c.5-1.3 1.5-2.5 2.3-2.5s1.8.6 2.5 1.2l1.2 1.2v-2.6c0-1.4.4-2.9.9-3.2.4-.3 1.6.3 2.5 1.4l1.7 1.9 3-1.7c1.6-1 2.9-2.2 2.9-3 0-.6.9-1.2 2-1.2a4 4 0 0 0 2.9-1.6c.5-1 3.3-2.5 6.2-3.4 3-.9 5.7-2.3 6-3 .5-.8 1-3.1 1.4-5.2l.6-3.8 2.8-1.4c1.5-.8 4.3-3.3 6.2-5.6l3.4-4.3 4.3-1.8c2.3-1 5.3-2.7 6.5-3.8 1.2-1.2 2.7-2 3.3-2 .7 0 1.8-.8 2.5-1.6.6-.8 2-1.5 3-1.5s3.2-1.3 4.7-2.8a25 25 0 0 1 8-4.7l5.3-1.9-.5-1.3-.5-1.3h1.5c.8 0 2.7-1.3 4.2-2.8 3-3 5.9-4.8 13.8-8.2l8.5-3.9 3.5-1.7v-4c-.3-10.3-1.6-30.7-2-31.5l-.6-1-3.2 1.8c-1.8 1-3.4 2-3.7 2.4-.3.3-2.7 1.4-5.5 2.4-2.7 1-6.4 2.7-8 3.6-1.7 1-5 2-7.5 2.4s-5.1 1.1-6 1.5a81.2 81.2 0 0 1-15.9 4.6c-2.3.4-4.4 1-4.7 1.5-.3.5-2.3.9-4.5.9s-5.9.9-8.2 2l-4.3 1.9-10.5.6a69.7 69.7 0 0 0-15.5 2c-13.8.4-18.2.6-19.2 1.3l-1.2.7 2.8 14.5-2.2 6.2 2.6 4.7-.7 9.8c-.4 5.4-1 10-1.2 10.5a97 97 0 0 0-.9 12l-.6 15c-.2 2.1 0 4.1.4 4.5.4.4.4 2.4 0 4.5l-.6 3.8h3.3zm.3-6.1c-.8-2.2-1-31.1-.1-53.9l.7-18.2c0-.2.7-.3 1.5-.3h1.4l.5 3.3c.3 1.7.4 17.2.2 34.2l-.3 31-1 2.8c-.7 1.5-1.4 2.7-1.7 2.7-.3 0-.9-.7-1.2-1.6zm96 2.3a18 18 0 0 1 4.2-2.7c.3 0 2-1.2 3.7-2.7l3-2.7-4.2-1.6-1.7.9c-1 .4-7.3.6-14.2.3l-16.5-.5h-4l-17.5 11.8 1.6.9c.8.5 4.8.6 8.7.4 4-.3 11-.3 15.7.1l8.5.7 4.7-1.2c2.5-.6 6.2-2.3 8-3.7zm-56.2.5c1-1.1 3.5-2.8 5.4-3.7 2-1 3.5-2 3.5-2.5 0-.4 1.4-1.1 3-1.5 1.7-.3 3-1 3-1.5s-.9-1.1-2-1.5l-2-.6-2.7 1.4a84.5 84.5 0 0 0-16.4 9.8c-1 .6-1.9 1.5-1.9 2.1v1.1l8.2-1zm136-2.7c-.7-1.3-1.9-2.5-2.6-2.5s-1.2.4-1 .8l1 2.5c.4 1 1.3 1.7 2.1 1.7h1.6zm8.1-7.5c0-.5-1.4-1-3-1h-3.1l.6 1c.3.6 1.7 1 3 1 1.4 0 2.5-.4 2.5-1zm9-1c0-.3-1.3-.6-2.9-.6l-3 .1 1 1.2c.6.6 1.9.9 3 .6 1-.3 2-.8 2-1.2zm-22.4 0c.3-.6-.9-1-2.6-1-1.6 0-3 .4-3 1s1.1.8 2.5.8 2.8-.4 3-.9zm3-1.6c-.3-.4-.6 0-.6.6 0 .8.3 1 .7.7.3-.4.3-1 0-1.3zm25 .6c.7-1.2-.6-1.2-2.6 0l-1.5 1h1.7c1 0 2-.4 2.3-1zm18.1-.4c-.2-.6-1.6-1-3.2-1s-3 .4-3.1 1l-.4 1h7zm-99.6-4a39 39 0 0 1 4.3-3.5l2-1.2-2.5.8c-1.3.4-3.6.7-5 .8l-2.5.1.3 1.2c.1.7-.6 1.3-1.5 1.3-1 0-3 .7-4.3 1.4l-2.5 1.5h9.4l2.3-2.3zm45-1.9c-1.2-.5-2.5-.7-2.9-.3-1 1 1.8 2.5 3.6 1.9l1.6-.6zm60.4 1.3.7-1-6.7.2 2 .8c1.1.5 2.4 1 2.7 1 .4 0 1-.4 1.3-1zm50-.5c4.4-.3 8.2-.7 8.4-1 .3-.2-.7-.7-2.2-1-1.4-.4-4.7-.4-7.4 0-2.6.4-13.2.7-23.5.6-10.3 0-19.3.2-20 .6l-1.2.8 10 .6c9.7.5 19.5.4 36-.6zm-207.6-.4c0-.5-3.3-1-7.3-1.3h-9c-1 .3-1.5.9-1.2 1.3.3.5 4.4 1 9 1h8.5v-1zm22.4-.7.6-1.6-2.2.6c-1.3.3-5.6.6-9.6.6h-7.2v2h17.8zm14.5-.3a29 29 0 0 0 7-.6c.2-.2-3.5-.5-8.2-.5-4.8 0-8.7.4-8.7.9 0 1.5 1.3 2.1 2.4 1.2.6-.4 4-.9 7.5-1zm44.7 1c.3-.6.1-1-.5-1s-1 .4-1 1 .2 1 .4 1 .7-.5 1-1zm42.3.2a30 30 0 0 0-6 0c-1.8.2-.6.4 2.7.4 3.3 0 4.8-.2 3.3-.4zm111.3-.7c-.5-.5-13-1-14.5-.5a73 73 0 0 0 14.5 1.2c.2-.2.2-.4 0-.7zm-240.6-3.2c-.3-.4-.6-.1-.6.6 0 .8.3 1 .6.7.4-.4.4-1 0-1.3zm7.4.2c0-.2-.4-.7-1-1-.5-.3-1.2-.1-1.5.4l-.6 1h1.5c.9 0 1.6-.2 1.6-.4zm107.6-.8 18.8.7a62 62 0 0 0 12.9-.5c4.3-1.2 47.7-1.5 89.1-.5 18.6.4 36.2.5 39.2.1l5.4-.7-1-5.7c-.5-3.1-1.4-6.2-1.9-6.9s-1.7-1.1-2.6-1.2a469 469 0 0 0-32.7.7l-16 .9-8-1.9-13 .6c-23.6 1-89.5.5-95.9-.8l-3.7-.8-.8 4.4-1 4.3-4.8-.5-1.3 2.8c-2.4 4.8-2.4 5-.5 5.6 1 .2 3.4.2 5.3-.2 2-.3 7.5-.5 12.5-.4zm-102-.4a1 1 0 0 0-1.3 0c-.3.3 0 .6.7.6s1-.3.7-.6zm-16.3-2.9 3.2-1.4 20.3 1.5 6.5-1.7 1.4 2.2 9-.3c4.8-.1 13.6.1 19.5.6l10.7.8 4.8-4.4c2.7-2.4 6.5-5.6 8.6-7.1 2-1.5 3.8-3.1 3.8-3.5s-10.7-.8-23.6-.8h-23.6l-1.5-2.4-3.7 4-1.6-1.4c-.9-.7-3.6-1.7-6.1-2-2.5-.5-4.8-1.3-5.2-2l-.8-1-4.1 4.2a19.5 19.5 0 0 1-5.1 4.2c-.6 0-2.2 1-3.7 2a63.8 63.8 0 0 1-14.1 8.6l-3.5 1.3h2.8a16 16 0 0 0 6-1.4zm30.7-13.5c0-.7.3-1 .7-.6.3.3.3 1 0 1.3-.4.4-.7 0-.7-.7zm110.1-2c-2.4-1.5-3.5-1.1-1.4.4 1 .8 2.1 1.2 2.4 1 .3-.3-.2-.9-1-1.4zm9.8-1.7 1.6-1.3H357l.1 2.8.1 2.7.5-1.5c.3-.8 1.3-2 2.1-2.7zm60 2.7h34.4V504c0-1 .5-2.3 1-2.9s1-1.5.6-2l-.6-1-7.3.4c-14.2.6-44.6.6-66-.1l-21.9-.8v1c0 .6 1 1.4 2 1.7l2 .7v1.9c0 1-.4 2-1 2s-1 .3-1 .7 5.3.7 11.8.5c6.5-.2 27.2-.3 46-.3zm-89-.6c-.4-.3-1.3-.3-2 0l-1.3.5h2c1 0 1.6-.1 1.2-.5zm12.2-.2c0-1.2-8.7-1.4-9.5-.2l-.6 1h5c2.8 0 5.1-.4 5.1-.8zm148.2-2v-2.9l-1.8-1.6c-1-1-2.1-1.4-2.5-1.1-.3.3-1.5 0-2.7-.6l-2.2-1.2-1.1 1.1a5 5 0 0 1-3 1.1h-1.7v6.9l3.7.4 7.5.6 3.8.1zm-165.2.4c.6-.8 1-2.2.8-3.1l-.3-1.6-5.9 6.1h2a5 5 0 0 0 3.4-1.4zm143.4.8c.3-.3-.2-1.4-1.2-2.3-1-1-2-2.3-2.2-2.8l-.3-1-6.6 1 .3 1c.2.6 1.7 2 3.3 2.9 3 1.7 5.7 2.2 6.7 1.2zm-165.2-4.1 3-3.1-.6-1.7-.6-1.6-5.8.6c-12.1 1.3-25.2 2-35.8 1.7l-11.1-.2-2.4 2.5c-1.3 1.4-2 2.8-1.7 3.2.4.3 4.2.5 8.4.3a252.7 252.7 0 0 1 38 1.3c.3.3 1.7.4 3 .3 1.4-.1 3.9-1.6 5.6-3.3zm169-.2c0-.4-.6-1.5-1.4-2.5l-1.3-1.9-.1 3.1v3.1l1.3-.5c.8-.3 1.5-1 1.5-1.3zm-132.5.3a1 1 0 0 0-1.4 0c-.3.3 0 .6.7.6.8 0 1-.3.7-.6zm4.3-.4c0-.5-.2-1-.4-1s-.7.5-1 1c-.4.6-.2 1 .4 1s1-.4 1-1zm9 0c0-.5-.8-1-1.7-1h-1.8l1.5 1 1.8 1c.1 0 .2-.4.2-1zm-20.9-2.3c-.6-.8-.8-1.6-.6-1.9.3-.3 2.8-.3 5.5 0l5 .5v-2l-12.4-.2-.8 1.2c-.9 1.4 1 3.7 3 3.7h1.5l-1.2-1.3zm-87.2-1.7c-.6-1-1.5-2-2-2h-1l1 2c.6 1.1 1.5 2 2 2h1zm175.2-1c0-.5-.2-1-.4-1-.3 0-.8.5-1.1 1s-.1 1 .4 1 1.1-.4 1.1-1zm-8.3-.6a1 1 0 0 0-1.4 0c-.3.3 0 .6.7.6s1-.3.7-.6zm1.7-2.2c.3-.5 9.4-1 20.3-1l36.1-.5 16.3-.2v1.3c0 .7.3 1.2.8 1.2s.5-2.1.2-4.7l-.5-4.8-14-.4-17.6-.3-44 .6c-22.3.3-42 .8-43.7 1l-3.2.7-2.5-2.7-3.3.4c-1.8.3-3.2.7-3 1 .6.9-12.3-.2-14.5-1.2l-1.6-.7-.6 2c-.2 1.1-2.1 3-4.2 4.2l-3.6 2.2 1 .6c.5.4 16.9.5 36.3.4l35.4-.3 3 1c4 1.1 6.3 1.2 6.9.2zm-160-2.2.5-1 23.7.1h35l7.3-6.7v-4.5l3-1c1.6-.6 3-1.5 3-2s-1.6-.9-3.5-.9h-3.5v2.4c0 1.4-.4 2.7-.8 3-.5.3-1.4 0-2.2-.4l-1.4-.9-3.5 2-.6-1c-.7-1.1 2.1-3.4 3.3-2.7.5.3 1.2 0 1.5-.9.4-.8.3-1.6-.1-1.6s-8-.3-16.7-.4-18.4.1-21.3.6l-5.3 1v1.5c0 .8.7 1.4 1.5 1.4s2.6-.4 4-1l2.5-1v3.1l2.1-.6c1.2-.4 7.3-.4 13.5 0l11.5.7v2.8l-6.8.1c-8.4.2-10.5 0-12-1.2l-1-1-.8 1.1-.6 1.1-1.4-1-1.3-1.2-1.1 1.9-17.7-1-3.5 1.6c-1.8.9-5.2 3.2-7.4 5l-4 3.5h1.7c1 .1 2-.3 2.3-.9zm102.5-11 4.5-.8 1.5 1.3 1.5 1.2 23-1.4 1.2 1 1.2.8 1.2-2 14.2.3c7.9.2 15 .6 16 1l1.8.8v-2.5l31.8 1.2.4-1.7a7 7 0 0 0 .1-3.2l-.3-1.5-12.7.2-39.6.5a238 238 0 0 0-26.7 1c0 .5-2 .6-4.3.4-2.3-.2-7 0-10.5.5l-6.3.9-3.7-2c-2-1-4-2.4-4.3-3l-.7-1-2.6 3.8c-1.5 2-2.7 4.1-2.7 4.4s.8.9 1.8 1.2c1.7.5 5.4 0 14.2-1.4zm114.5-.5c.3-.8.3-2.2 0-3l-.6-1.5-2.6.1a11 11 0 0 1-4.3-.5l-1.7-.7-.6 2.1c-.4 1.2-.5 2.4-.1 2.7.4.5 3.4 1.2 8.7 2.2.4 0 1-.6 1.2-1.4zm13-.9c1-1.6.8-6.4-.4-7.1-.5-.4-1.9.5-3 1.9l-2 2.5-1.3-.5c-.7-.3-1.9.2-2.6 1l-1.3 1.6 2.4 2.9 3.7-.6c2-.3 4-1 4.4-1.7zm-148.4-.7a13 13 0 0 0 3.9-5.2c1-2.3 3-5.4 4.4-7 1.5-1.4 2.6-3.5 2.6-4.5s1.2-3 2.6-4.3c3-2.8 5.9-7.8 5-8.7-1-.9-9.4 9-9 10.3.3.5-1.3 3-3.3 5.4-2.1 2.4-4 5.3-4.4 6.5l-.5 2.1-3.2-.5-2.1 2.9a14 14 0 0 0-2.1 3.5c0 1 4 .7 6.1-.5zm-61-8c.3-.7 2.8-1.8 5.7-2.5l5.2-1.4 3-3.5c1.8-2 4.2-3.8 5.5-4.1 1.3-.3 4.4-3 6.9-5.8s6.2-6 8.3-7.1a57.5 57.5 0 0 0 14.4-13.3l.3-5.5a17 17 0 0 0-.5-6c-.4-.6-.4-2 0-3.1a40 40 0 0 0 1.5-5.8l.7-3.7-2.2.6c-1.2.3-3.9 2.2-5.9 4.2-2 2-5 4.2-6.6 5a72.9 72.9 0 0 1-10.7 6 22.4 22.4 0 0 0-6.7 4.2c0 .5-.6.9-1.4.9-.7 0-3.5 1-6.2 2.3s-6.2 2.7-7.8 3l-2.8.8.6 1.7c1 2.5 1.6 28 .7 28.6-1.1.7-3.4-6.1-2.6-7.6l.7-1.1-1.1.7-1.2.7.2 6.5c.1 3.5.5 6.4 1 6.4.3 0 .8-.5 1-1.1zm275.8-1.9c0-1.4-.3-3-.8-3.7a41 41 0 0 1-1.4-11l-1-16.3a296 296 0 0 1-.4-11.5v-5l-10-9a154 154 0 0 0-21-17.5l-2.3-1.2.7 12.8.8 12.9 2.8 5.5-3.2 1.2-1.8-1.6-1.8-1.6-15.9-.6c-8.8-.4-16.3-.8-16.7-1-.4-.3-.7-1-.7-1.5v-.9l29.8.4 2.3-1.6 2.4-1.6-5.5-.7-7.3-1.2-1.9-.5.5-1.9.5-1.8-2.7-1c-1.4-.7-8-1.5-14.5-2l-11.9-.7-1.6 1.2-1.6 1.2 2 2.1 1.9 2.2 3-.2c1.7-.1 6.1-.2 9.8 0h6.8v2h-18l-.5 1c-.3.6.5 2 1.9 3.2a16 16 0 0 1 3.6 5c.6 1.5 2 3 2.8 3.4 1 .4 10.2.8 20.5.8l18.9.2 4.5 4.7c2.4 2.6 4.2 5.2 3.8 5.8-.3.5-2 1-3.5 1s-3 .4-3 1v1l9.3-1.3 1.3 1.7c.7 1 1 2.6.7 3.6-.3 1.1 0 2.7.7 3.5.7.8 1 2 .7 2.8-.5 1.5-6.3 3-7.8 2.1l-1-.6 1.2-1.4c.6-.8 1-1.4.8-1.5l-17.1-.6-16.8-.4v1.3c0 .7.7 2.4 1.6 3.6l1.6 2.3 16.2-.6a422 422 0 0 0 20.7-1.1l4.6-.5 1.2 2.6c.6 1.4 1.1 3.1 1.1 3.8 0 .7 1 1.8 2 2.5 2.1 1.3 2.8 4.2 1 4.2h-1l1.3 2 1.3 2 6-.5zM293.4 468a41 41 0 0 1 8.2-.7c4-.1 7.5.2 7.8.7.7 1 11.1 1.1 17.6 0l4.6-.7 3.1-3.2c1.7-1.7 2.8-3.4 2.3-3.6-.4-.3-9.5-.4-20.3-.2l-19.6.2-2.4 1.6a83 83 0 0 0-5.3 4.2l-3 2.5 3-.1c1.6 0 3.4-.4 4-.7zm72.5-.2c1-.4 8.1-.6 37.6-1.3 16-.4 30-.9 31.3-1.1 1.2-.3 3 0 4.2.7l2 1.2 5-2.7 1.3 1.1 1.4 1.2 31.5-.3.5-1c.3-.4-.4-1.9-1.5-3-1.2-1.3-2.1-2.7-2.1-3.2s.7-1.6 1.5-2.6l1.6-1.7-1.3-2.1c-1.3-2.1-2.8-2.8-2.8-1.3 0 .5-4.2.9-9.3.9-5 0-20.3.3-33.8.8-13.6.4-36.4.8-50.9.9H356l-.6 2c-.3 1-.3 2 0 2.2.2.3 2.2 0 4.3-.5l3.8-1 53.6-.2c29.5-.2 54.8 0 56.4.5 1.5.5 2.6 1.3 2.4 2l-.4 1.1-47 .2-60.8.3-13.8.2-2 2c-1 1.2-1.9 3-1.9 3.8v1.6l7.8-.2c4.3-.1 8-.3 8.2-.5zm169-1.4a12 12 0 0 0 2.2-3c0-.4-.6-1.3-1.4-2s-1.5-2-1.7-2.6l-.4-1-16-.4c-8.8-.1-17 0-18.2.2-1.3.3-2.3 1-2.3 1.8 0 1.9 4.7 6.8 5.8 6.1.6-.3 5.4-.8 10.7-1s10-.8 10.6-1.1c.5-.4 2.6-.1 4.5.5l3.6 1.2-.5 2c-.2 1-.1 1.8.3 1.8s1.7-1.1 2.9-2.5zm20-.2c-.4-.3-1-.3-1.4 0s0 .7.7.7 1-.3.6-.7zM340.1 457c.4 0 .7-.7.7-1.6v-1.6l-3.9.7c-2.1.3-10.7.7-19 .7s-15.1.5-15.1.9 1.2 1 2.7 1c2 .3 25.6.2 34.6 0zm-11.9-5.6c6-.3 11.3-.7 11.7-1 .4-.2 1 .1 1.2.8l.5 1.3 2.2-2.2c1.3-1.1 2-2.6 1.6-3.1l-.6-1-3 .8c-1.5.4-8 .7-14.2.5l-11.3-.4-3.4 1.2c-1.8.7-3.3 1.6-3.3 2.2 0 1.2 4.2 2.5 6.2 1.8.8-.2 6.4-.6 12.4-1zm70-1.2c20-.4 45.8-.7 57.5-.7H477v-1.8c0-1-.5-1.7-1-1.7-.6 0-1-.9-1-2s-1-3-2.3-4.5l-2.2-2.5-26.6-.3a1420.3 1420.3 0 0 0-76 1.5l-3.5.3-.7 3.3a14 14 0 0 1-2.7 5.6c-1.2 1.2-2.2 2.8-2.2 3.5v1.3l1.7-.6c1-.4 18-1 37.8-1.4zm41.8-3.1a4 4 0 0 0-3-.4l-1.6.5 4-2.7h6.8c3.7 0 6.7-.4 6.7-.8 0-.8-39.7-.3-67.8.9l-17.3.7V442l2.8-.1 5.3-.6c1.3-.2 23.3-.6 48.8-1l46.3-.5.1.8.3 3.5.2 2.7h-10.2c-5.5 0-12.3.2-15 .6l-5 .6-1.4-.9zm-119-5.3c0-.5-.7-.6-1.5-.3s-1.5 1.3-1.5 2.1v1.5l1.5-1.2c.8-.7 1.5-1.6 1.5-2.1zm207.2 2v-1h-11v-3.4h-12.7c-7 0-14.2.2-16 .3l-3.2.2 4.4 5H528zm-182.7-1.4 7.3-.5h1.3l-1.2-2.3c-.7-1.2-1.4-1.8-1.5-1.2l-.4 1h-8.2a36 36 0 0 1-9.5-.8l-1.3-.8v3h-2.4c-1.4 0-3.1-.6-3.9-1.3l-1.4-1.5-.2 6 7.7-.6 13.7-1zM482 441l-1.7-3.7c-2.5-5.8-7.5-15-8.8-16.3l-1.3-1.4v1.1a8 8 0 0 0 .9 2.8c1 1.8 2.6 5.7 5.5 12.7 1.6 3.8 3 5.5 5 5.6.4 0 .6-.4.4-.8zm21.4-5.3 13.8.2 2-1.1c1.1-.6 2-1.5 2-2 0-.4-1.3-1.3-3-2l-2.8-1.2h-16.7c-9 0-16.8.1-17.1.4-.3.3.2 2 1 3.8l1.7 3.2 2.7-.7c1.5-.4 8.9-.7 16.4-.6zm-132-.7c.8-1.2 19.8-1.7 60.8-1.6h37.6l-.4-2.8-.5-2.8-37.8.8v-1.4c0-1.6-1.2-1.6-5-.4l-2.5.8h3.4c2 .1 3.2.5 2.8.9-1.2 1.1-6.1 1-8.7-.4-1.4-.7-3.8-1.1-5.5-.8-1.6.2-11.3.7-21.5 1l-18.5.5-3-2-2.3 2.2c-2.2 2-3 4.8-1.6 6.1 1 1 2.1.9 2.7 0zm-12.6-3c.2-1 1.3-2.4 2.5-3l2.2-1.1h-13.7c-7.6 0-13.8.4-13.8.7 0 .7-3.1 2.6-6.2 3.8-1 .3-1.8 1-1.8 1.5v1l30.5-1 .3-2zm209.5-.1c0-.5-2.7-3.3-6-6.1s-6-4.8-6-4.2c0 1.1 10 11.2 11.2 11.2.4 0 .8-.4.8-1zm-286.8-3.6c1-.8 2.7-1.5 3.7-1.5s1.7-.4 1.7-.9 3.4-2.5 7.4-4.4a40.5 40.5 0 0 0 10.8-6.7c1.3 0 14.4-8.7 16-10.6l1.4-1.7-4.4 2.4-7.3 4c-1.6 1-3.8 2.4-4.7 3.3-1 .9-2.2 1.6-2.6 1.6A117.5 117.5 0 0 1 289 422c-5.8 3-10.7 5.9-11 6.6-.1.6 0 1.2.6 1.2.5 0 1.7-.7 2.8-1.5zm161.4-2.1c-.4-.4-1.2-.4-2-.1l-1.3.5 2 .1c1 0 1.6-.2 1.3-.5zm-62.3-1.8c2.7-.4 15.8-.8 29-1.1 13.2-.3 28.6-.8 34.3-1.1l10.2-.7.2 1.9v1.9l.5-1.8.5-1.7h3c1.5 0 2.9.2 2.9.5s-1 1-2.3 1.5l-2.3 1 4.6-.6c2.4-.4 4.6-.8 4.7-1 .2 0-.2-1.3-.8-2.6-.6-1.3-2.5-3-4.2-3.6-1.7-.6-3.3-1-3.7-.8-.8.5-38.5 1.7-64 2l-18.3.3-1.4 2.7a14 14 0 0 0-1.5 3.8c0 .5.8.7 1.8.4s4-.7 6.8-1zm-16.6-1.1c0-.8.8-1.5 1.7-1.5h1.6l-2.6-3.1-19 .3-.5-1-.3-1.1 3.4-.6c1.8-.4 7.5-.5 12.5-.4l9.3.4V412l-3.6-.7c-2-.4-7-.3-11.2.2l-7.8.9-2.4 3.7c-1.3 2-3 3.8-3.6 3.8-.6 0-2.1 1.1-3.3 2.5l-2.2 2.5h28v-1.5zm-33.3-2.2c-.4-.4-.7 0-.7.7s.3 1 .7.6c.3-.3.3-1 0-1.3zm8.8-6.6c.8-2.8.9-17.7 0-18.6-.4-.3-1.3.2-2 1.3l-1.5 2-.1 5.8c0 3.2-.2 7.1-.3 8.8v3h3.2zm65.6-.3 37.3-.9c9.8-.1 18-.5 18.4-.9.4-.3.2-1.2-.4-1.9-.6-.7-3.4-6-6.2-11.7a123.9 123.9 0 0 0-15.6-27.1l-3.1-5.3a395.3 395.3 0 0 0-37.6-38.7c-.4 0-2.7-1.3-5-2.9-4.1-2.7-15-8-16.4-8-.4 0 0 .7.7 1.6.7.9 3.3 2.5 5.6 3.5 6.1 2.7 20 12.6 25.3 17.9a244.1 244.1 0 0 1 24.2 27.8c1 .7 1.8 2 1.8 2.7 0 .8.4 1.5.8 1.5 1 0 3.8 4 4.6 6.7l.8 2.3h-1.4c-1.8 0-6.8-5.2-6.8-7.1 0-.8-1.4-2.8-3.1-4.5a88.3 88.3 0 0 1-6.2-7 341.7 341.7 0 0 0-37-35.4c-1.5-.8-3-1.2-3.3-.9-.4.4.7 2.4 2.4 4.5s3.4 5.4 3.7 7.3a72 72 0 0 0 2.2 7.8l1.6 4.3-.7 9.2c-.3 5.1-1 12-1.3 15.2l-.6 5.9 1.6-.7c1-.3 9-1 18-1.3l16.4-.6 1.2 3.3h-4.7a231.5 231.5 0 0 1-22 1l-11.1.1-1.6 2.5c-1 1.4-1.4 2.8-1.1 3 .3.4 0 1.8-.8 3.2-2.2 4.2-3.4 8.9-2.8 10l.7 1 13-1.2c7.1-.7 22.6-1.1 34.4-1l21.4.2 1 1c.6.6.8 1.5.4 1.9s-10.7.6-23 .5a474 474 0 0 0-32.7.6l-10.5 1-1.8-1-1.7-1v1.1c0 .6-.8 1-1.6 1h-1.7l1.3 5h-1.5c-1.8 0-3.9 3.7-3 5.2l.7 1 3.6-.5c2-.3 12.4-.8 23.2-1.2zm-21-5.6c0-.4.4-1 1-1.3 1.2-.8 53.3-1.4 62.8-.7l6.3.4-.3.9-.3.9-34.8.2c-19 .2-34.7 0-34.7-.4zm63.6-12.4-1.7-1.7 2.2-2.2 1.7 1.7 1.7 1.7-2.2 2.2zM387 395c0-.6.8-1.3 1.7-1.6 1-.3 6.5-.8 12.3-1.1 20.3-1.2 34.5-1.5 36-.6l1.3.9-1.3 3.3-1.2-.8a238 238 0 0 0-37 .3l-11.8.6zm4-5.7V388l6.2-.6a297 297 0 0 1 20.7-.8l14.4-.2.8 2.3-3.3.6c-1.8.2-11.3.7-21 1l-17.8.4zm50.6-2L439 384l1-.6c1.2-.7 6 4.3 6 6.2 0 2.2-1.7 1.4-4.4-2.2zm-48.4-13.7c.2-.7 2.2-1.7 4.4-2 2.1-.4 7.1-.8 11-.8h7.3l.6 1c.4.6.5 1.3.2 1.6-.3.3-5.8.8-12.3 1l-11.7.6.5-1.4zm5.3-6.7c.2-.7.5-1.7.5-2.2v-1h14v1l.2 1.8c.1.4-3.2 1-7.5 1.2l-7.7.5zm1-8c-.3-.2-.5-1-.5-1.8V356l4.4.1c4.1 0 7.6 1.2 6.6 2.2a29 29 0 0 1-10.5.8zm-68 52.7-.4-1.3-.1 1.9c0 1 .2 1.6.5 1.3.3-.3.4-1.2 0-2zm133.2-1.5c-.3-.4-.6 0-.6.7s.3 1 .6.6c.4-.3.4-1 0-1.3zm-117.4-4.3c2-2.2 3.6-4.6 3.6-5.5 0-.8.7-1.5 1.5-1.5.9 0 1.5-.4 1.5-1s1.7-3.2 3.7-6.1l3.6-5.3-.1-5c-.1-2.8-.6-5.5-1-5.9-.4-.4-2 .5-3.5 2l-2.6 2.8-.6 5-1 8.2-.6 3.3h-1.4c-.8 0-1.5-.5-1.5-1s.4-1 .8-1c1 0 .7-5.9-.2-6.8-1.1-1.1-4 1.3-4.7 3.9-.4 1.3-.7 5.1-.8 8.6 0 3.4-.5 6.4-1 6.8-1.3.7-1.4 2.5-.2 2.5.4 0 2.4-1.8 4.5-4zm162-2.1c-.2-3-.8-5.9-1.3-6.4s-.9-2.6-.9-4.7V389l2.5-.9-2.5-2a9 9 0 0 0-4.2-2.2c-1 0-3.8-2-6.4-4.5s-5-4.6-5.4-4.6h-.8l.8 3.3a61 61 0 0 1 1.2 15.5l-.2 3.3h-3v-2.4c0-1.3-.6-2.7-1.4-3-1.5-.5-2.8-5.5-4.7-17.5l-1.1-7.3-2.2-.9a30 30 0 0 1-5.4-3.6l-3.2-2.6v1.4c0 .8.5 3.6 1.2 6.4 1.4 5.3 1 11.6-.8 12.1l-1 .4-1.3-5.1c-.6-2.8-1.1-8-1.1-11.4v-6.3l-2-1.7c-1-1-2-1.3-2.4-.8-.3.5 0 2.8.5 5.2.5 2.4.7 5 .5 5.6s0 1.6.4 2c.5.6.7 2 .3 3.1l-.5 2.1-3.7.5c-2 .3-6.3.4-9.5.1l-5.8-.4.8 2.6h19.5l.9 1.4c.4.8.6 1.8.3 2.3-.2.4-4.3.8-8.9.8H450v1c0 .5 1 1.2 2.3 1.5 1.2.3 7.5.4 14 .2l11.8-.3v2.6h-18.8c-2.9-.1-5.2 0-5.2.3s1 2.5 2.4 4.9l2.3 4.3 2.3.3c1.2.2 2.7-.2 3.3-.8l1-1H486l.6 1c.4.6.5 1.3.3 1.5-.2.2-5.4.6-11.5.8-6 .2-11.8.8-12.7 1.3l-1.7 1 3.6 3.3 17.3.5c9.5.3 17.8.8 18.3 1.1s1.4 1.7 2 3l.8 2.3 2.3.4c1.3.3 2.8.4 3.3.3l1-.2zM462.8 390l-3.9-.4.4-1.2.4-1.1 9.5.3c5.1.2 9.6.5 9.8.7.2.2-.9.9-2.3 1.4l-2.8 1-4.2-2.2-.4 1.1c-.2.6-1 1-1.6 1l-5-.6zm-89.6 17.3c.4-.6.7-1.5.7-2.2V404l-11.8-2.1-9.5 2.4-.7 2-.7 2h21.3zm168-.4c0-.5-.8-1.2-1.7-1.5l-1.6-.7 1.2 1.5c.7.9 1.5 1.6 1.7 1.6s.4-.4.4-1zm-6.7-5.6c-.6-1.7-2.4-2.1-2.4-.6 0 .7.7 1.3 2.8 2 0 0 0-.6-.4-1.4zm-157-4.6c1.7-3.2 2-9 .5-9-.6 0-1 .5-1 1.1 0 .6-.5.8-1 .5-.5-.3-.7-1.3-.4-2l.6-1.5h5.9l-1.3-2-7.1.6c-4 .4-7.8 1.3-8.5 2-.7.6-1.3 1.9-1.3 2.7 0 .9-.4 1.8-1 2.2s-1 1.3-1 2.3c0 1-.9 2.2-2 3-1 .6-2 1.6-2 2 0 .5 4.1 1 9 1h9l1.6-2.9zm-13.6-2.4v-1.5h4c2.3 0 4 .4 4 .8 0 1-3.3 2.1-6.2 2.1h-1.8zm3-5.4c0-1.1 2.5-2.1 5.1-2.1 2.4 0 2.6 1.5.4 2.4-2.4.9-5.4.7-5.4-.3zm-25-4.1c.4 0 .8-6.2 1-13.7 0-7.6.4-14.1.6-14.6.3-.4.7-4.8 1-9.7.1-5 .6-9.5 1-10l.5-1h-4v5.5c0 10.3-2.3 35-3.4 37-.6 1-1 3-.8 4.1.1 1.2-.2 2.5-.8 2.8s-1 1-1 1.5.7 1.7 1.7 2.7l1.7 1.7.9-3.2c.5-1.7 1.2-3.1 1.6-3.1zm44.9-31c-.2-5.3-.6-9.8-1-10.1-.5-.4-1-2.3-1-4.3s-.5-4-1-4.2-1.7-2.5-3-5c-1.2-2.4-2.4-4.2-2.8-4-.3.2-.2 4.3.3 9.1l1 8.8-1.2 1.8c-.6 1-1.1 3.7-1.1 6 0 2.4-.7 6.8-1.5 9.8l-1.5 5.8c0 .2 2 .2 4.4.1 2.5-.1 4.8 0 5.2.4.3.3.3 1.1-.1 1.7l-.7 1.1-4.2-.5c-4.4-.6-7.4.5-6.2 2.3.4.6 2.5 1.2 4.6 1.2s4 .4 4 1c0 1.2-4.5 2.3-7.1 1.6l-2-.5-2 2c-1 1-2 2.3-2 2.8v1l14.6.6 4.5-19zm-38.9 25.5c.7-.8 1.7-3.2 2.2-5.3.5-2 1-11.2 1.2-20.3.2-9 0-14-.3-11s-1.1 6.4-1.7 7.5c-.6 1.1-1.2 5.3-1.3 9.4s-.6 8.4-1 9.6c-.6 1.3-1.2 4.4-1.5 7l-.5 4.6h.8c.5 0 1.4-.7 2.1-1.5zm19.3-7.1c1.4-1.4.8-2.5-1.2-2.5h-2l.1 11.6 1.2-4.2c.6-2.3 1.5-4.5 1.9-5zm134.9 5c-.7-.8-1.5-1.2-1.9-1-.3.4.1 1 1 1.6l1.8 1c.2 0-.2-.7-1-1.6zm-147.2-2.6c0-.5-.4-.7-1-.3s-1 1-1 1.6.5.7 1 .4 1-1.1 1-1.7zm140.7-2.9c-.3-.5-1-1-1.6-1s-.7.5-.4 1c.3.6 1 1 1.6 1s.7-.4.4-1zm-36.5-2h2l-.6-4.7-.9-8.5c-.2-2-.9-4.4-1.5-5.3a4.7 4.7 0 0 0-3.2-1.5h-2l1.3 10.9-1.1.6-1 .7-1-2.7c-.6-1.4-1-4.5-1-6.8a13 13 0 0 0-1.1-5.7l-1.1-1.5-.5 1.3c-.3.7-1.3 1.2-2.2 1.3h-1.7l1.8 1a4 4 0 0 1 1.7 3.1v2l-2.2-.6c-1.2-.4-5.1-1-8.7-1.3l-6.3-.5.6 1.1c.4.6 1.3 1.1 2 1.1s1.8 1.2 2.5 2.5l1 2.5H447v3l-8.5.1 4 3h9.6v3h-5.2c-2.9 0-4.9.3-4.4.7a40.8 40.8 0 0 0 16.6 1.2zm-5.5-2.9a1.1 1.1 0 0 1 1.9-1.1 1.1 1.1 0 0 1-1.9 1.1zm-81.7-6c1.1-3.7 2-7.4 2-8.1v-1.4l-.8 1a45.3 45.3 0 0 0-5.1 14.1v2.5l1-.6a26 26 0 0 0 3-7.5zm-14.8 4.4c0-.5-.5-1-1-1.3-.7-.2-1.2.4-1.2 1.3 0 1 .5 1.6 1.1 1.4.6-.2 1-.8 1-1.4zm4.3-10.2.7-8.8-.5-14.3-.5-13.3-1.2-1.4a5.2 5.2 0 0 0-3.6-1.5H354v6.5l2-3 1.5 2a9 9 0 0 1 1.4 5c0 1.6.2 7.4.6 12.8l.8 9.9-5.5-1.4.4 1.3c.3.8 1.4 1.4 2.4 1.4h2l-.2 6.3c-.2 3.4.1 6.2.6 6.2s1-3.4 1.5-7.7zm7.2-4.5-.5-1.3v2c-.1 1 .1 1.6.5 1.3s.3-1.2 0-2zm-236.3-2.2c.3-.8 0-2.4-.7-3.7l-1.2-2.3-.8 2.2c-1 2.4-.3 5.2 1.2 5.2.5 0 1.2-.6 1.5-1.4zM440 348c0-.4-.6-1.1-1.5-1.4s-1.5-1-1.5-1.5 1-1.2 2.2-1.5l2.2-.6-1.2-1.4a8.7 8.7 0 0 0-4.3-2l-3-.6-3.5-3.6c-2-2-5-4.1-6.7-4.7s-4-2-5.1-3c-1-1-3-1.8-4.2-1.8a5 5 0 0 1-3.4-1.4 8 8 0 0 0-3.3-2.1c-1.2-.4-4.5-1.7-7.3-3-6.3-3-13.5-5.5-15.4-5.4h-1.5l2 1.4a6 6 0 0 0 3.2 1.5c1.6 0 9.8 5.4 12.9 8.5a48 48 0 0 0 8.9 7 99.5 99.5 0 0 1 15.5 15.8c0 .4 3.4.7 7.5.7s7.5-.4 7.5-.9zm-11.4-2.5.6-1.6h7l-.4 1.3c-.2.7-2 1.4-4 1.5l-3.8.4zm18.4-1c0-.2-.6-.6-1.5-1-.8-.2-1.5 0-1.5.5s.7 1 1.5 1 1.5-.2 1.5-.5zm-75-15c1-2.4 1.2-3.9 1-8v-3l-6.6-2.1.3 9.5.4 11c0 .9.3 2.9.6 4.5l.6 3 1.3-6.5c.8-3.5 1.8-7.4 2.3-8.5zm-16.4 11.8c-.4-.4-.7-.1-.7.6 0 .8.3 1 .7.7.4-.4.4-1 0-1.3zm0-4.6c-.3-.7-.5-.1-.5 1.2 0 1.4.2 2 .5 1.3s.3-1.8 0-2.5zm-222.2.6c-.4-.4-.7-.1-.7.6 0 .8.3 1 .7.7.3-.4.3-1 0-1.3zm19.8-4.2c-.2-.2-.8 0-1.4.3-.6.4-.8 1.1-.5 1.7l.7 1 .8-1.3c.4-.7.6-1.5.4-1.7zm202.4-2.4-.5-1.3v2c-.1 1 .1 1.6.5 1.3.3-.4.3-1.2 0-2zm-6.4-7c.3-3 .5-7 .4-9.3l-.2-4-4.7-.7.6 4.9c1.4 11.6 1.9 14.3 2.6 14.3.5 0 1-2.3 1.3-5.2zm7.7.7c0-.1-.6-.5-1.5-.8l-1.5-.6v2.9l1.5-.6c.9-.3 1.5-.7 1.5-.9zm-236.6-5.2c-.4-.4-1.2 0-1.7.7-1.5 2.5-1 3.6.8 1.8.9-1 1.3-2 1-2.5zM359 313c0-1.3-2.5-2-4-1l-1.2.7 1.9.5c3 .8 3.3.8 3.3-.2zm21-.5c0-.3-.4-.7-1-1s-1-.2-1 .4.5 1 1 1 1-.2 1-.4zm-10.4-3.6c-.4-.5-1.3-1-2.2-1s-1.2.5-.8 1c.3.6 1.3 1 2 1 .9 0 1.3-.4 1-1zm-10.6-1c0-.5-.4-1-1-1s-.8.5-.5 1 .9 1 1.1 1c.3 0 .4-.4.4-1zm-5.7-1.6c-.7-.3-1.8-.3-2.5 0-.7.2-.1.5 1.2.5 1.4 0 2-.3 1.3-.5zm-90.7-2a1 1 0 0 0-1.3 0c-.4.3-.1.6.6.6.8 0 1-.3.7-.7zm-21.7-12.9c0-.8-.6-1.5-1.2-1.5-.7 0-2.4-.3-3.7-.7l-2.4-.6.5 1.4c.4 1.1 3.1 2.4 6 2.8.5 0 .8-.6.8-1.4zm-13.7-6.3c-.1-.5 1.1-1.2 2.7-1.6l3-.6v-3.2l-1.4 1.1c-.8.6-2.7 1.3-4.3 1.4l-3 .2.5 2.3.4 2.3 1.2-.4c.6-.3 1-.9.9-1.5zm4.4-11.8c-.7-.8-6.7 2.4-6.7 3.5 0 .5.8 1.1 1.7 1.3l1.8.4 1.9-2.4c1-1.3 1.6-2.5 1.3-2.8zm-78.1 3a1 1 0 0 0-1.4 0c-.3.3 0 .6.7.6s1-.3.7-.7zM87.6 614c0-.7.3-1 .7-.7.4.4.4 1 0 1.4-.4.3-.7 0-.7-.7zm470-83.5-.6-1.6-6.8.7a94 94 0 0 1-14.4-.1l-7.7-.7v-3.9h29v-1.3c0-1.6 3-2.6 7.9-2.6a12 12 0 0 0 5.2-1.3l2-1.3 1.8 1.2a5 5 0 0 1 2 2.6c.2.8-.5 2.3-1.4 3.2l-1.7 1.7-3.6-1-1.6 1.8c-.9 1-2.6 2-3.8 2.3l-4 1.2-1.7.8zm-39.9-19.4c-.4-.7-.4-1.6-.2-2 .7-1 9.1-1.9 27.2-2.8 7.1-.3 14.8-1.2 17-2 4.8-1.6 10-1.8 12.6-.3 1 .5 1.9 1.6 1.9 2.3s-.7 2-1.5 2.6l-1.5 1.2-10-2.4-1.4 1.1a32 32 0 0 1-9.7 1.6l-21 1-12.7.8zm.4-9c-1.3-.2-3-.8-3.5-1.3l-1-1 1.3-.7c.7-.4 9.4-.6 19.5-.5l18.2.4 1 1c.5.5.7 1 .5 1.3-.5.5-32.6 1.2-36 .8zM2 484.5l-2-1.4v-14.7l3.7-7.5c2-4.1 4-8.7 4.4-10.3.4-1.5 1-3 1.6-3.3.4-.3.8-1.5.8-2.6v-2.1l9-8.7 1.3-4.7c.7-2.7 1.8-5.2 2.5-5.6l1.3-.8-.6-2.3a17 17 0 0 1 1-7c1-2.7 3.7-8 6.2-12 2.4-3.9 4.4-7.6 4.4-8.2 0-.7.6-1.8 1.5-2.4.8-.7 1.5-2.1 1.5-3.2 0-1 .9-2.7 2-3.8 1-1.1 2-2.4 2-2.8a32 32 0 0 1 9.8-9.2c1.6 0 1.5 1.5-.3 3-.8.6-1.5 1.5-1.5 2s1.4.7 3.2.6l3.2-.1.4 1.7.3 1.8-3 1.7c-1.7 1-3.1 2.2-3.1 2.8 0 .6-.9 2-2 3.1l-1.8 2-2.6 18.6-1.3.5c-.8.3-2 0-2.9-.8l-1.5-1.2-1.1 1-1.2 1.2-1.3-1-1.3-1.1-.9 2.3a40 40 0 0 0-1.5 7.7c-.4 3-1.4 6.5-2.3 7.8l-1.6 2.4.7 2.5.6 2.5-3 5.7 1.6 2.2a8.2 8.2 0 0 1 1.2 4.8l-.3 2.8-1.8.3c-1 .2-2.5-.2-3.3-.8-.8-.7-1.4-2.3-1.4-3.7v-2.4l-1 .6c-.6.3-1 1.6-1 2.8 0 1.2-.9 3.5-1.9 5.2a26 26 0 0 0-2.5 5.8l-.7 2.8-2-1.2v2.6a11 11 0 0 1-1.6 5c-.9 1.4-2.4 2.5-3.5 2.5-1 0-1.9.5-1.9 1s.5 1 1.2 1h1l-.4 3.8c-.2 2 0 4.7.6 6l1 2.2-1.9 2c-1 1.1-2.3 2-3 2-.6 0-2-.6-3-1.4zm20.2-48.3a1 1 0 0 0-1.3 0c-.4.4 0 .7.7.7s1-.3.6-.7zm12-34a1 1 0 0 0-1.3 0c-.4.4 0 .7.7.7s1-.3.6-.7zm8.4-7.6c0-.5-.5-.6-1-.2-1.7 1-3 5.2-2.3 7l.6 1.7 1.3-3.9c.7-2.1 1.4-4.2 1.4-4.6zm1.6-9.4c-.3-.4-.6 0-.6.7s.3 1 .6.6c.4-.3.4-1 0-1.3zm4.4-3.8 1.2-1.5h-1.6c-.9 0-1.6.6-1.6 1.5 0 .8.2 1.5.4 1.5s.9-.7 1.6-1.5zM60.8 480c-.7-.2-1.2-1-1.2-1.8V477h4.2l-1.1-3 2.7.7c1.5.3 3 1.1 3.4 1.7.4.6.3 1.6-.3 2.2-1 1.3-5.8 2.3-7.7 1.6zm39.6-2.8c-.4-.4-.8-2-.8-3.5v-2.9l2.3-.4c1.2-.3 3.4-.4 4.8-.3l2.5.2-.3-1.2c-.3-1.6 2.4-1.7 3-.2.1.6 2.3 1.3 4.7 1.5 2.5.3 5.2.9 6 1.3s2.1.6 2.8.4l1.3-.5v3.2h-4.8c-2.6 0-6.8.6-9.2 1.1-7.2 1.7-11.5 2.1-12.3 1.3zm-56.2-34c-.3-.4-.6-3-.6-5.6v-4.9l1.6-2.4c.8-1.3 1.3-2.8 1-3.3-.3-.5.6-2 2-3.2 1.3-1.3 2.4-3.3 2.4-4.4 0-1 .7-2.8 1.6-3.7l1.6-1.8-2.7-7.3 1.8-3c1-1.6 1.7-4 1.7-5.4s.4-2.6 1-3c.5-.3 1-2.4 1-4.8v-4.2l7.7-9.3 1.4 1c2.1 1.3 3.6 1 4.3-.7l.6-1.6-3.5-1-1.3-3.9c-.6-2.1-1.2-4.8-1.2-5.8s1.1-2.7 2.5-3.6c1.4-.9 2.5-2 2.5-2.7v-1.1l-3 2.6-2.2-2.1 1.6-2.9c1.7-3.2 7.7-9.7 12.2-13.1l2.9-2.3 6.2.4 2.2-2a8.9 8.9 0 0 1 5.1-2.1 14 14 0 0 0 4.7-1c2-1 9.6-.9 11.3.2.6.4 1 1.5 1 2.6v2h-1.5c-.9 0-2.2.5-3 1.2l-5.4 4.2-4 3-.6 2.7c-.6 2.6-2.4 5.3-6.1 9.1-1 1-2.7 1.7-4 1.7s-2.7.8-3.2 1.6c-.4.9-1.9 2.1-3.1 2.8a12 12 0 0 0-4 4.2 13 13 0 0 1-2.3 3.3c-1.4.6-.8 2.7 1.2 3.9l1.9 1.2v4c0 2.3-.5 4.3-1 4.6-.5.3-.9 2-.9 3.7v3l-8.9-1.2-.6 1c-.3.5-1 1-1.6 1-1.7 0-1-2.7 1.6-5.4l2.5-2.7v-2.5c0-1.3-.4-2.4-.9-2.4-1.5 0-2.8 2.3-3.5 6.2-.4 2-1.1 3.8-1.6 3.8-1.4 0-1.2 4.3.1 5.7l1.1 1-1.3 4C60.9 407 60.6 416 62 417l1 .6-2.3 5 2.9 1.1v5.8c0 3.2-.6 7.3-1.3 9.2a10 10 0 0 1-2.9 4.5l-1.7 1-5.1-2.8-1.2 1.2c-1.3 1.3-6 1.6-7.2.5zm8.8-5.7 1.7-1.3-.6-12-5.4 10.5.6 2c.3 1.2.8 2 1.2 2 .4 0 1.5-.5 2.5-1.2zm7-1.3.6-1.5-1 .6c-.6.3-1 1-1 1.5 0 1.5.7 1.2 1.4-.6zM71.6 366c0-.5 1.3-1.4 2.8-2a28 28 0 0 0 6.7-5.2c2.1-2.2 4.4-4 5-4 .6 0 2.3-.5 3.8-1.2l2.7-1.3v-1.8c0-1 1.8-3.7 4-5.9l4-4-4.2.8c-2.3.4-5.3 1.4-6.7 2.3-1.3.9-4 1.7-5.9 1.8s-3.6.5-4 .7c-.2.3-.6 2.6-1 5-.2 2.6-.8 4.6-1.3 4.6s-.9 1.2-.9 2.6v2.6l-1-.7c-.6-.4-2.2.4-3.6 1.6-2.4 2.3-3.2 5-1.4 5 .6 0 1-.4 1-1zm.7-13.8a1 1 0 0 0-1.4 0c-.3.3 0 .6.7.6s1-.3.7-.6zm-42.7 86.7c0-.7.3-1 .6-.7.4.4.4 1 0 1.4-.3.3-.6 0-.6-.7zm136.2-1.8a9 9 0 0 1 1.4-4.6c.8-1 1.1-2.4.9-3.2l-.6-1.4 1.6-.6c1-.4 1.6-1.2 1.6-1.8a32 32 0 0 1 5.7-7l5.6-6 4.6-1.7c2.5-1 5-2.3 5.3-3l2-4.3 1.3-2.9 5.6-2 3-5.8 1 .6c.6.4.9 1.3.6 2l-.6 1.5h1.4c.7 0 1.8-.6 2.5-1.4l1.1-1.4-1.5-1.2c-.8-.7-1.5-1.8-1.5-2.5 0-1.6 3.7-4.8 7.2-6.3l2.8-1.2v-2.1c0-1.2 1-3.6 2.2-5.3a17 17 0 0 1 3-3.4l2.9-2.3c1.2-1 3.2-2 4.4-2 1.3 0 2.5.7 2.9 1.6.3.8 1 1.5 1.6 1.5h1l-.5-6.4 3.2-2.1c1.8-1.1 3.3-2.7 3.3-3.6 0-.8 2.3-3.1 5-5.2l4.9-3.7 2.5 2c1.3 1 3 2 3.5 2s1.1.8 1.1 1.8v1.8l-4 1.2c-2.2.7-4 1.6-4 2.1s-1.8 2-4 3.3l-4 2.4 1.1 1c.6.7.8 1.7.4 2.3l-.7 1.1-1.9-.6-1.9-.6v4.7l-4.4 4.7c-2.5 2.6-5.2 4.8-6.1 4.8h-1.7l.7-2.3c.3-1.2.9-3.4 1.1-4.7l.5-2.5-2 2.3a8.5 8.5 0 0 0-2.1 4.5c0 2-2.3 5-6.5 8.5-1 .7-1.5 2-1.3 3l.3 1.7 3.3-.4 3.2-.3v2c0 2.4-3.6 5.2-6.7 5.2H215l-3-4.4-4.8 4.4c-5.1 4.7-9.9 10-9 10 .3 0 2.8-1.4 5.6-3.2 2.8-1.7 5-3.7 5-4.5 0-1.6 2.3-1.7 3.9-.1l1.2 1.1-1.7 1.9c-.9 1-2.2 1.8-3 1.8-.6 0-1.8.9-2.6 2-.8 1-3 2.6-5.1 3.5s-5.4 3.1-7.3 5c-1.9 2-4 3.5-4.8 3.5s-1.6-.6-1.8-1.3l-.4-1.2-3.2 3.2 1.1 1.1 1.1 1.2-2 1.5c-1 .8-2.4 1.2-3 1-.6-.2-1.4.5-1.7 1.7-.3 1-1 1.7-1.5 1.4-1.2-.7-3.9 2.3-4.3 4.9l-.4 2-2.2.3c-1.3.2-2.3.7-2.3 1.3 0 .5-.6.9-1.5.9h-1.5zm18.4-20.2.7-1h-1.6c-.9 0-1.6.4-1.6 1s.5 1 1 1 1.2-.5 1.5-1zm378.2-14.1.3-3.4 5.6-1 1.4-2.5c2.6-4.7 3.4-7 3-8.4-1-2.2 2.3-11.8 5.5-16.5 3-4.3 3.4-5.8 3-9.3 0-.9.7-2 1.7-2.3l1.8-.7-1.4-.8-1.3-.8 3.8-6.9c2-3.8 5-8.7 6.6-11 1.5-2.3 2.8-4.6 2.8-5.1s1.8-2 4-3.1l4-2.3.6-3.8.7-3.9 4.4-5.3c2.4-3 4.3-5.7 4.3-6.1 0-.4 1.1-.8 2.4-.8h2.4l.6 4.6.6 4.6-1 1.9c-.6 1-1.4 2-1.9 2s-.6.8-.3 2l.5 2h-1.1c-.6 0-1.2.6-1.2 1.4 0 1.7-1.8 5.2-3.7 7.3l-1.3 1.4-3.1-2.5.7 3.6.7 3.7-1.7.6c-.8.4-1.6 1.3-1.6 2.2s-.8 2.2-1.7 3.1c-1 1-2.7 3.4-3.8 5.5-1 2.1-3 4.3-4.3 4.7l-2.3 1 1.3 6.5-2.2 2.7c-1.2 1.5-2.6 2.5-3 2.2-.6-.3-1 .3-1 1.4s-.6 2.4-1.4 2.9c-2.2 1.2-6.3 9.4-7 14-.4 2.3-1.9 5.8-3.2 7.8a15 15 0 0 0-2.4 5c0 1.8-3.7 4.3-7.9 5.1l-3.3.7zm32.8-58.7c0-2-1.8-.6-3.6 3l-1.6 3.2 2.6-2.4c1.4-1.3 2.6-3 2.6-3.8zm2.3-4.3.6-2-1.2.3c-1.4.5-2.2 3.7-.9 3.7.6 0 1.2-.9 1.5-2zm-63.7 46c-.3-1.2.2-4.3 1-7l1.7-5 4.8-3 1.4 1.1c.8.7 1.5 2 1.5 3v1.8l-4.5.7-.7 4.2c-.4 2.4-1 4.7-1.3 5.3-1.1 1.7-3.3 1-3.9-1.1zm-14.3-11.4-.5-1.5 2.2-3.3 5.1-6.5c1.6-1.8 2.9-4 2.9-4.8s.3-1.5.8-1.5 1.2-.9 1.4-2l.6-2h4.2v1.5a23 23 0 0 1-2.5 6.1c-1.4 2.6-2.3 5-2 5.4.2.5-1.4 2.9-3.7 5.4l-4 4.7h-2c-1 0-2.2-.7-2.5-1.5zm13-4.2c.2-1 1-3.2 1.5-4.8.6-1.7 1.3-4.2 1.6-5.7.3-1.4 1.2-2.9 2-3.2 2-.8 4.6.2 4.6 1.8 0 .8-1.5 4-3.3 7.2l-3.3 5.8-3.7.8zm-427.2-5.1c-.2-.4-.7-3-1.1-5.9l-.7-5.1 1.1-.7c.7-.4 1.6-1.8 2-3.1l1-2.4 2.5-.6 2.4-.6.4-2.2.3-2.1 3.2-.3c1.8-.1 3.3 0 3.3.3 0 1.1-2.4 5-4 6.4-.8.9-2.7 3.1-4.1 5l-2.6 3.5.9 8.6h-2c-1.2 0-2.3-.4-2.6-.8zm148.8-14.8c-.7-.7-1.3-1.8-1.3-2.2 0-.5 1.5-2.6 3.3-4.6l3.3-3.7h3c1.7 0 3.4-.3 3.8-.6.3-.4.2-1.2-.4-1.9l-1-1.2-7.2 3.6a36 36 0 0 0-8.1 5l-.8 1.2-4.2-5.3 1-1.6c.6-1 2.3-1.8 4-2 1.5-.2 3.3-.7 3.8-1.2.5-.6 2-1 3.2-1s2.3-.4 2.3-1v-1h10l1.3 4.5 1.7-4.5h5.7l1.9-2c1-1 2.6-2 3.6-2s1.9-.4 1.9-1 .8-1 2-1c1 0 2.1-.4 2.5-1s1.5-1 2.5-1h2v2a4 4 0 0 1-1.3 2.8c-.7.6-2.5 1.4-4 1.8-1.5.3-2.7 1-2.7 1.5 0 .4-1.3 1-2.9 1.4l-2.8.6-8.3 8.7-4.5.7c-2.5.4-4.8 1-5 1.5-.4.5.2 1.4 1.1 1.9l1.7 1-2.6 3.1h-7.3l-1.2-1.5zm286.6-16a6.5 6.5 0 0 1-1.5-2c0-.3.8-2.2 1.8-4.3s1.6-4.5 1.4-5.4c-.4-2 .8-2.3 2.5-.7l1 1.1.7-1.8c.3-1 1.8-2.7 3.3-3.6 1.5-1 2.2-1.7 1.6-1.8h-1.2l-.7-4.5-.7-4.5 1-1.2a16 16 0 0 0 1.6-5.6l.5-4.4 2.3-2.4c1.2-1.3 2.8-2.4 3.4-2.4.7 0 1.6 1 2 2.3.3 1.2.9 6.3 1 11.3l.5 9-3.6 4-6.5 7.2-3 3.3v4.9l-5.8 3zm15.7-21.4 1.4-2-.4-3.5c-.3-2-.8-3.6-1.2-3.6-.4 0-1 1.5-1.4 3.3-.3 1.8-.8 4.2-1.2 5.5l-.7 2.2h1.1c.6 0 1.7-.9 2.4-2zM241 331.6c-1.6-1.5-1.5-4.7 0-4.9l4.8-.3c2 0 5.2-.5 7.3-1 2-.4 4.5-.5 5.4-.2l1.6.7-1.8 2c-1 1-2.6 2-3.5 2s-3 .6-4.6 1.4-4 1.5-5.4 1.5c-1.4 0-3.1-.5-3.8-1.2zm208.6-.7a1.1 1.1 0 0 1 2-1.2 1.1 1.1 0 0 1-2 1.2zm5-4.6a38 38 0 0 1 2.1-5.7c.4-.7.7-2.7.5-4.4l-.3-3.1 8.7-4.4-4.5.5c-2.5.3-9.3.9-15.2 1.2l-10.6.7-4.1-4.1 1-4.2h4.4c2.4 0 4.6.5 5 1l.6 1h15.7l.7-1c.3-.5 1.4-1 2.4-1s3-1.1 4.5-2.5l2.8-2.6-.5-2-.5-2 1.9-1c1-.5 1.9-1.6 1.9-2.4V289l5.5-.6v-3l5.2-.6 1.7-4c1-2.3 2.2-7.8 2.7-12.3 1-9.2 3.5-18 5.5-19.7.8-.6 1.4-2.1 1.4-3.3 0-1.2-1.1-3.8-2.5-5.8s-2.5-4.5-2.5-5.5c0-2.1 2.4-6 5.3-8.5l2-1.8-.7-1.6a9 9 0 0 1 0-4l.6-2.5 5.7-2.8c3-1.5 6.5-2.6 7.6-2.4 1.1.2 3 1.6 4.3 3s2.2 2.2 2.2 1.6c0-.7 1.5-1.9 3.3-2.7 5-2.2 6.7-2.7 6.7-1.8 0 .4 1.7.7 3.7.5s4.3.2 5 .8l1.4 1.1v-1.2c0-.7 1.3-2.5 3-4l3-2.9-.5-1.3c-.3-.7-.2-1.8.2-2.3a67.1 67.1 0 0 1 16.3-11.3c2-.7 5.8-1.5 8.6-1.9l5-.6 2.2 2.8c1.2 1.5 2.2 3.8 2.2 5v2.4l-2.4 1.6a19 19 0 0 1-6.3 2.1c-2 .4-5.1 1.3-6.7 2L557 205l-2-1.9-4.4 4.4c-2.4 2.4-4.4 5-4.4 5.9 0 .8-1 2.4-2 3.5l-2 2h-5.9l-6.1-5.2v1.6c0 .9-.8 1.9-1.8 2.2-3.7 1.2-6.3 2.8-6.3 3.9 0 .7-1.6 2.9-3.6 5l-3.5 3.8.6 4.6c.4 2.5 1.4 5.3 2.2 6.2.7.9 1.7 3.8 2 6.6l.6 5-1.2 2.2-1.2 2.2-6.3 2.9a66.6 66.6 0 0 1-9.4 3.5l-3.2.7v-4.2l5-2.5c2.7-1.4 5.6-2.5 6.3-2.5.8 0 2.2-.9 3.2-2l1.7-1.9-1-4.3a128 128 0 0 0-2.7-9L510 233l1.6-5.3c.8-3 2-5.6 2.4-5.9.5-.3 1.2-1.6 1.6-2.8l.7-2.3-4.9 1.2-.6-1.6c-.3-.8-1.2-1.5-1.9-1.5a44 44 0 0 0-14.7 22.7v1.5l2-.5a7 7 0 0 1 3.5 0c.8.3 1.4 1.5 1.4 2.8 0 1.2-.8 3.3-1.8 4.6-2.3 3-8.2 19.1-8.2 22.4 0 1.4.5 2.5 1 2.5s1-1.4 1-3.1v-3.1l1.6.6c.9.3 2.2.6 3 .6h1.4v4l-6.5 6.5a37.6 37.6 0 0 0-6.5 7.4c0 .6.3 1.1.6 1.1s1.4-.5 2.5-1l1.9-1 1.7 2c1 1 2.3 2 3 2h1.1l.4 4c.2 2.3 0 4.4-.5 4.7-.4.3-1.2 1.6-1.7 3-.5 1.2-1.6 2.3-2.5 2.3h-1.5v-3.3c0-1.8.5-3.8 1.1-4.4s.8-1.6.5-2.2c-.4-.6-2.4-1-4.5-1h-3.7l-3.2 3.2a13.5 13.5 0 0 0-3.2 4.3c0 .6-1.6 2.5-3.5 4.4a50 50 0 0 0-6.3 7.5 74.1 74.1 0 0 1-5 6.5l-2.2 2.5v3.4c0 1.8-.8 4.6-1.7 6.2l-1.8 3h-4.3zm47.5-109.7c0-1.3-2.3-.5-2.8 1l-.4 1.2 1.6-.6c.9-.4 1.6-1 1.6-1.6zm60-22.8 1.6-1h-2.2c-1.2 0-2.5.4-2.8 1-.8 1.2 1.5 1.2 3.5 0zM265.7 329c-1.5-.2-2.8-1-2.8-1.7V326l5.2-.6c2.9-.3 5.7-1 6.2-1.6 1.4-1.4 4.4-1.4 5.2 0 1 1.5-1.2 3.6-4.3 4.3-5.8 1.3-6.8 1.4-9.5 1zm292-2.8c-.4-.9-.2-2.6.4-3.8l1.6-4c.3-1 1.3-1.7 2.2-1.7h1.6l-.6-1.5c-.7-1.8 1.3-5.5 3-5.5.6 0 1.7-.6 2.3-1.4l1.2-1.4-1.2-2.8-2.5-6c-.8-1.8-1.4-4-1.4-5.1 0-1.1-.8-2.7-1.8-3.6l-1.8-1.7-1.3 1.3-1.3 1.2-1.4-2c-1.6-2.2-1.9-5.5-.4-5.5h1v-8.5l3-3.9 1 1c.7.7 1.2 3.2 1.2 5.7 0 2.6.5 4.4 1 4.1.4-.2 1.6.4 2.7 1.5l2 2 1.2 6 1.3 6.1h4.7c2.7 0 5 .5 5.4 1 .3.6 1.5 1 2.6 1 1 0 2-.4 2-1s.6-1 1.4-1h1.5v1.8a5 5 0 0 1-1.8 3.3l-1.8 1.6-1.3 5.7-1.3 5.7-3.3-.6.3-7.3.4-7.2H578c-.9 0-2.3.8-3.2 1.7L573 303l.5 2.6c.3 1.4 0 3.6-.4 5l-1 2.3-3.7-1 .5 1.7c.2 1-.6 2.8-1.7 4.1a26.3 26.3 0 0 0-3.7 6.3l-1.5 3.7h-2c-1 0-2.2-.7-2.5-1.5zM285 321.7c-.6-1-1.8-2-2.7-2-.8 0-1.3-.5-1.1-1.2l.4-1.2 7-1.2c3.8-.7 8.8-1.3 11.1-1.3h4.3v1.3c0 1.6-3 2.6-8 2.6-2 0-4.6.3-5.9.7l-2.3.6 1.3.9 1.4.8-1.5 1c-.9.6-1.9 1-2.2 1-.4 0-1.2-.9-1.8-2zm18.6 1.2c-.8-1.3 5-6.2 7.3-6.2 1 0 3.9-1.1 6.3-2.5 2.4-1.3 5-2.5 6-2.5s2 .5 2.3 1l.6 1-2.5 1a20 20 0 0 0-5.7 4l-3.2 3h-3.3c-1.9 0-3.4.5-3.4 1 0 1.2-3.7 1.4-4.4.2zm-12.6-1c0-1.2 2.4-2.2 5-2.2h2v3h-3.5c-2 0-3.5-.4-3.5-.9zm-70.9-5-3.3-2.9 1.3-1a47.5 47.5 0 0 1 17-3l2.8 1.6c.8.6 2.3 1.2 3.3 1.5l1.8.6-1 1.9c-.6 1-1.8 2.2-2.7 2.5-1 .4-4.9.9-8.8 1.2l-7.1.5zm10.6-1.4c1.2-.6 2.2-1.5 2.2-2 0-1.1-1.7-1-2.5.2-.3.6-2 1-3.6 1h-2.9v3.2l2.2-.7c1.3-.3 3.3-1.1 4.6-1.7zm-91.3 1.3c-.3-.5.2-1 1.3-1.3l1.8-.5.6-2.9a14 14 0 0 1 3.2-5.6c1.4-1.6 2.3-3.3 2-3.8l-.6-1 3 1.2 2-5.2 2.7-1a46 46 0 0 1 8.6-1.7l5.8-.6v3.3H167c-1.6 0-4.3.7-6 1.6s-3.8 2.6-4.3 3.8c-.6 1.2-2.8 3.3-5 4.6l-3.8 2.4-.3 2c-.2 1-1 2.2-1.8 2.6l-3.7 1.8-2.2 1.2zm116.1-1.7-.6-2.4c0-.4 1.7-.6 3.8-.3s4 .8 4.1 1c.2.1-.1 1-.8 1.8-.7.8-2.3 1.5-3.6 1.5H256zm-87.7-6.7c0-2.2 3-5.7 5-5.7 1 0 3-1.3 4.4-3 4.8-5.8 6.4-2.6 2 4l-2.6 4h-1.8c-1 0-2.1.5-2.5 1-.9 1.5-4.5 1.2-4.5-.3zm255.6-2.8-1.2-1.2-7.3.2c-4 0-10.3.3-14 .4l-6.8.2-.1-1c-.1-.5 1.5-1.8 3.6-2.8l3.8-1.9 18.5-1 3.5 2c1.9 1.2 4.2 2.2 5.2 2.2h1.7l-.4 1.8-.3 1.7-2.5.3c-1.4.2-3-.2-3.7-.9zm-60.6-4.6-1.8-.4v-2c0-1 .4-1.9.8-1.9.5 0 2 .6 3.5 1.3 1.5.6 2.7 1.8 2.7 2.5 0 1.2-1.8 1.4-5.2.5zm-177-2.3c0-1.2 2.5-3 4.2-3 1 0 1.8.6 1.8 1.4v1.4l-3 .4c-1.6.3-3 .2-3-.2zm169.7-.1c-.4-.6-.3-1.5.3-2l1-1 2.3 2.9-1.5.5c-.8.4-1.8.2-2.1-.4zm-10.1-2.6a1 1 0 0 1 1.3 0c.4.4 0 .7-.7.7s-1-.3-.6-.7zm234.6-1c-1-.9-.9-6.3 0-6.3.5 0 1.6-1.3 2.5-3l1.7-3 8.8-4 4.9-7.5h5.5l.8-2.9c.4-1.6 1.3-3.2 2-3.4l1.1-.4V275l-2.4 4.7a28.8 28.8 0 0 1-4.7 6.8 30 30 0 0 1-5.8 3.8l-3.5 1.6-.9-.9-1-1 2.2-1.3c1.2-.7 2.1-1.8 2.1-2.5s.6-1.4 1.3-1.6l1.2-.5-1.2-.1c-1.2-.1-7 5.2-10.5 9.7-1.8 2.3-3 2.7-4.1 1.5zm-405-2.5a7.3 7.3 0 0 1-1.2-4v-3l2.8-2.7c1.5-1.5 3.3-4 4-5.6l1.3-2.8 8.5 1.2 1.2-2c.7-1 2.2-2 3.3-2s2-.4 2-1 1-1 2.1-1c1.2 0 3-.7 4.1-1.6l2-1.8 1.3 1.9c.8 1 1.1 2.3.8 2.9l-.6 1 2.8-.7c1.6-.4 4-2.2 5.5-3.9l5.6-6.7 3.2-3.5 8.4-2.6 1.4 1.1c.7.7 1.8.9 2.4.5l1-.6v4l-3.5 1c-1.9.5-4.4.7-5.5.4l-2-.5v1.1c0 .7.8 1 1.7.9l1.7-.3.4 1.7.3 1.8h-2c-1 0-2.3.5-2.6 1l-.7 1-1.2-1c-.7-.5-1.6-.7-2-.3-.3.3-.6 1.6-.6 2.8 0 1.1-.6 2.9-1.3 3.8l-1.2 1.7-10 1-6.6-2.4-6.8 7.4-2.8-1a9.6 9.6 0 0 0-4.8-.6c-2.6.7-8.6 9.4-8.6 12.4v2.2h-1.3c-.7 0-1.8-.5-2.5-1.2zm8.5.5c-1.2-1.2-.7-2.7 1.7-5.6l2.4-2.7 3 .2c1.7.1 3.7-.3 4.4-.9s3.7-1.6 6.7-2l5.3-1-.6 4.2-2 .3a7.8 7.8 0 0 0-6 5.8c-.6 2.5-3 3.3-3.8 1.2l-.4-1.3-2.7 1.3c-3 1.3-7 1.6-8 .5zm325.7-1a62 62 0 0 1 16.4-17.8l3.1-1.5 13 .9 2.3 2.1c1.2 1.2 2 2.6 1.7 3.1-.8 1.2-4.2 1.1-5-.1a8.1 8.1 0 0 0-2.5-2l-2-1-1.1 2.5-1.2 2.5H532c-1 0-2-.5-2.4-1-.3-.6 0-1.7.6-2.5 1.8-2.3.3-1.8-2.4.7a95.3 95.3 0 0 1-5.6 4.6l-3 2.4v5l-3.9-1-2.1 4.8h-4zm-84.9-12.6a8.5 8.5 0 0 1-1.3-3.2l-.4-2-12.5-6.6v-1.5c0-.8.8-1.4 1.7-1.4h1.7l-1.2-1.2c-.7-.7-1.2-2-1.2-3v-1.8h1.8c1 0 2.2-.3 2.5-.7a12 12 0 0 1 4.4-.6h3.7l.4 1.1c.2.7-.1 1.2-.7 1.2s-1 .4-1 1 .7 1 1.7 1c2 0 7.6 4.8 8.5 7.3l.7 1.7h5v2.2c0 1.3-.6 3-1.2 3.9a11.6 11.6 0 0 1-8.6 3.9c-1.6 0-3.4-.6-4-1.3zm2.1-6.7c-.5-2-2.3-3.9-2.3-2.5 0 .9 2 4.5 2.5 4.5.2 0 .1-1-.2-2zm-9.3-6c0-.6-.8-1-1.7-1h-1.8l1.5 1 1.8 1 .2-1zM371.7 277l-1.7-.4V271l1.5-.6c1-.3 2.6-.6 3.8-.6 1.3 0 2.8-.5 3.4-1.2.7-.6 3.1-1 5.5-1 2.3 0 4.7-.2 5.3-.6a21 21 0 0 0 4.5-7.1l1-2.4-1.6-1.9c-1-1-2.1-1.8-2.6-1.8-.4 0-.8 1-.8 2v2.1l-4.4-.6-1.9-5.7 5.1-5.1 3.9 1.8c2 1 4.8 2.7 6 3.8 1.3 1.1 2.3 3 2.3 4.3 0 1.2.4 2.5 1 2.9.5.3 1 1.3 1 2v1.5h-2.5c-2.8 0-8.5 3.7-8.5 5.5 0 1.6-3.3 4.5-5.1 4.5-.8 0-3.7 1.2-6.4 2.5s-5.5 2.4-6 2.4c-.6 0-1.8-.3-2.8-.6zm190.5-8.4v-3.1l2.7-2.7 8.1-8.4c3-3.2 5.7-5.5 6.3-5.2 1.5 1 1 4-.9 5.7l-5.5 5.2-3.7 3.6v2.4a6 6 0 0 1-1.6 4c-.9.9-2.4 1.6-3.5 1.6h-2zm-30.5.2c-.8-1.3.4-3.9 2-4.5.8-.3 1.4-1.4 1.4-2.4s1.4-3.4 3.1-5.5l3.1-3.7h2c1 0 2.2.7 2.5 1.6l.6 1.5-6.2 5.4-.3 3-.2 3-1.4-.3c-.8-.2-2.4.4-3.7 1.2l-2.4 1.6zm66 .2c-.6-.5-1.6-2.7-2.3-5l-1.3-4.3 1.6-3c.8-1.6 2-3.2 2.5-3.5.6-.4 1-2.2 1-4v-3.5l2.3-3.5 2.2-3.5 4-1.2a22 22 0 0 1 5.4-1.1c.8 0 2.1-.6 3-1.4l1.4-1.5 3.9 1-2.5-3 2.2-.5c1.2-.3 2.1-1 2.1-1.3 0-.4 2-1.3 4.6-2l4.5-1 2 1c1 .6 2 1.8 2 2.6 0 2.8-4.1 9-7 10.7-1.6 1-3.1 1.7-3.5 1.7s-.5-1-.5-2-.4-2-1-2c-.4 0-1.4.7-2.1 1.5l-1.3 1.6-1.8-.4a3 3 0 0 0-3 .9c-.6.8-2.9 1.7-5 2-2.1.4-4.4 1.3-5 2-.6.8-1.2 3.4-1.3 5.8v4.5l3.6 1-1 1.8a53 53 0 0 1-4.9 6l-3.8 4.3zm5-11.3.6-1-1.5.6c-1.8.7-2 1.4-.6 1.4.5 0 1.2-.5 1.5-1zm-259.8 9c0-.6-.9-1-2-1-1 0-2-.3-2.3-.8-.2-.4 0-2.2.5-4l1-3.4 4 .6c2.3.4 4.5.9 5 1.2 1.2.8 1 5.8-.4 7.2-1.4 1.4-5.8 1.6-5.8.2zm26-1.7-2-2.7 1.5-.6 1.6-.6-6-4.4.8-8.4-2-1.4c-1-.7-1.9-2-1.9-2.7 0-1.8-3-3.5-6.4-3.5h-2.6l-.6-1.6-.6-1.6-4.9 1.2-3.2-1.6-5.1-2.7-2-1-.4 1c-.2.7-1 1-1.8.6l-1.5-.6-2.2 2c-2.8 2.5-5.5 3.5-6.2 2.2l-.6-1-2 1.5a5.5 5.5 0 0 1-4 .9c-1-.3-2-1.3-2.1-2.2l-.4-1.6 3-2.8c1.5-1.5 3.6-2.7 4.5-2.7s2.7-1.4 4-3l2.2-3h3.9v1.4c0 .8-.8 2-1.7 2.5l-1.8 1 5-.5c2.8-.3 5.5-.8 6.2-1 .6-.1 2 .3 3 1l1.8 1.4 2.3-2c1.2-1.2 2.2-2.8 2.2-3.5s1-1.8 2.1-2.4a8.3 8.3 0 0 0 3.1-4 8 8 0 0 1 2.8-4l1.8-.9-.5 2.1-.6 2.2 1.2-.7c.6-.4 1.1-1.7 1.1-2.8v-2.1l4.7-4.3a30 30 0 0 1 7.2-5.2l6.2-2.2a31 31 0 0 1 6-1.6c1.3-.1 3.9-.6 5.6-1l3-.6 1.8-3c1-1.6 2.3-2.8 3-2.6l1 .4v7.7l-2.6.7c-1.5.4-3.3 1.3-4 1.9-5 4.2-6.4 5-8 5-2.9 0-6.6 2.9-7.3 5.6-.3 1.4-1 2.5-1.4 2.5-.5 0-1.4 1.3-2.1 2.9s-2 3.1-3.1 3.4l-2 .5v-1.3c0-2.3 3.4-7.9 6.6-10.7l3-2.8h-1.7c-.9 0-2.7 1.3-4 3l-4.6 5.6-2.3 2.5v7.6l-1.8 1.6c-2 1.8-6.2 2.3-6.2.7 0-.6-.6-1-1.5-1H354v1.9c0 1-.2 2.6-.6 3.5l-.6 1.6h3.5c2 0 5.9.5 8.7 1.1l5 1.2v2.3c0 1.3-.4 2.4-1 2.4-1.5 0-1.1 1.4 1 3.7 1.2 1.2 2 2.8 2 3.6 0 .8-.7 1.7-1.6 2l-1.6.7 1.3 1.5c.6.8 1.7 1.5 2.3 1.5.6 0 2.2 1.6 3.5 3.5l2.4 3.5-1.4 1.7c-1.6 2.2-4.1 4.2-5 4.3-.4 0-1.7-1.2-2.8-2.7zm66.4.7-.5-2.1-1.3.4c-1.5.7-4.5-2.8-4.5-5.2 0-2.5 5.3-8.1 7.7-8.1 1 0 3.2-1.3 4.6-2.8l2.7-2.8-1.1-4 5.6-2.7-1.3-.5c-.8-.2-1.8.1-2.2.9l-.9 1.3-.6-1.7-.7-1.7 2-2.7 3.1-5.4c.7-1.5 2.5-4 3.8-5.5l5-6 2.4-3.1v-7c0-3.7.7-8.6 1.5-10.8s1.4-4.6 1.4-5.4c0-.7 1.2-2.8 2.6-4.7 1.5-1.8 2.6-3.6 2.5-3.9-.3-2.4.2-3.4 2-3.8 1-.3 2-1.3 2-2.2 0-.8.6-1.6 1.5-1.6s1.5-.4 1.5-1c0-.5.3-.8.7-.7.5.1 1.9-.8 3.2-2 1.4-1.3 3.2-2.3 4-2.3 1 0 2.2.6 2.9 1.2s1.2 2.5 1.2 4v2.9l-2.3.9a14 14 0 0 0-4.8 4.7c-1.4 2.1-3.2 6.1-4 8.8s-1.9 6-2.6 7.1c-.7 1.2-1.6 4-2 6.5l-.5 4.5 2.5 2.5a10 10 0 0 1 2.7 4.5c.4 3.7 0 5.5-1.3 5.5-.7 0-2 1.6-2.6 3.5-.7 2-2 3.9-3 4.2-.9.3-2.6 1.5-3.9 2.6l-2.2 2-.6-1.7c-.4-.9-1-1.4-1.6-1s-.8 1.4-.8 2.4-1 2.5-2 3.2a22 22 0 0 0-4.7 5l-2.6 3.8 2.5 3-6.3-1.3v3.3h1.8c1 0 2.4.5 3 1.2l1.3 1.3 1-1.5a8 8 0 0 0 .3-4.2l-.6-2.8h1.1c.6 0 2.3 1 3.6 2.2l2.6 2.1v2.6c-.1 2.5-2 6-3.5 6-.4 0-1.4.8-2.2 1.6-.8.8-2.1 1.5-2.9 1.5-.7 0-2.2-1.1-3.3-2.5l-2-2.5H442v2.3c0 1.3-.4 2.7-.9 3.2-.5.6-1 2.1-1.2 3.5l-.4 2.5-3.6.7zm14.4-31.7a1 1 0 0 0-1.3 0c-.4.4 0 .7.6.7.8 0 1-.3.7-.7zm8.4-9.5c0-.5-.9-.8-1.8-.8h-1.9l-1.2 3.3c-.6 1.8-1.1 3.7-1.1 4.2 0 1.1 6-5.6 6-6.7zm8.8-.4c-.3-.3-.9.3-1.3 1.3l-.7 1.8 1.3-1.3c.7-.6 1-1.5.7-1.8zm3.2-6.7 2.5-1.2-6.7-.7.5-2c.2-1 0-1.8-.4-1.8a1 1 0 0 0-1 1c0 .5-1.5 2.5-3.4 4.5-2 2-3.5 3.8-3.5 4a65 65 0 0 0 12-3.8zm-2.8-14.3c.6-2.8-.7-4.3-1.6-1.9-1 2.4-.8 5.7.2 5 .5-.3 1.1-1.7 1.4-3zm5-13.5.6-2-1.4 1.1c-1.6 1.3-1.9 3-.6 3 .5 0 1.2-1 1.5-2.1zm2.4-12.6c-.3-.4-.6 0-.6.6 0 .8.3 1 .6.7.4-.4.4-1 0-1.3zm-275 88.4c-.8-.7-2.2-1.6-3.2-2l-1.8-.6v-4.7l8.1-9.2 10-1.4 3-3.8c1.6-2.1 3-4.2 3-4.7 0-1.1-9-4-11.2-3.5-1 .1-1.9 1.2-2.2 2.3l-.5 2-4-2.5-1.3 1.4a53.4 53.4 0 0 0-9.9 12.7c0 .7-1.1 2.5-2.5 4l-2.6 2.5-2.3-2.3 2.1-3.4-1.8-2c-1-1-1.6-2.2-1.3-2.7.3-.4 1.4-.8 2.4-.8s2.6-1.3 3.6-2.8c1-1.5 2.4-3.3 3.1-4 .7-.8 1.3-2 1.3-2.7 0-.7 1.5-1.8 3.3-2.5a50 50 0 0 1 9-1.7l5.8-.6v-1.2c0-2-2.6-3.6-4.4-3l-1.6.7v-1.2c0-1.4 8-9 9.5-9 .6 0 3-1.8 5.3-4l4.3-4h6.6l1.3-1.5c.7-.8 1-2.1.7-3-.3-.7.3-3.1 1.4-5.3 2.2-4.5 11.1-14.3 13-14.3h1.1l-1.2 3.1 1.5.6c.8.3 1.5 1 1.5 1.4 0 .4-.8 1-1.7 1.3-1 .3 0 .4 2.2.3l4-.1.3 1.6.3 1.7-4 2.2-1-1.8-1-1.7-1.1 1.1-1.2 1.2 2 .6c1 .3 2.2 1.5 2.5 2.6l.5 2-1.5 1.5c-.8.8-1.3 2-1 2.7.2.7 0 2.3-.4 3.6l-1 2.4-4.9-3.3v1c0 .6-.9 1-2 1h-2l-.7 2.8a8.4 8.4 0 0 1-2 4c-.6.7-2.4 1.3-4 1.3h-2.8l-1.1 1.7c-.6 1-1 3.3-.8 5.3.1 1.9-.3 4-.9 4.8l-1 1.3-1.4-2.3c-.7-1.3-1.3-3.5-1.3-5 0-1.4 1-3.9 2.1-5.5 1.2-1.5 1.6-2.3.8-1.6-.7.7-2 1.3-3 1.3H220l-.6 2.4-.6 2.5-3-1.1v1.3c0 .8-1 2.2-2 3.1-1.1 1-2 2.5-2 3.3v1.6l10-.5 2.4 2.4-2.2.6c-1.2.3-2.2 1-2.2 1.4 0 1.6 3.2 2 6.9.8l3.8-1.2 1.1-2.6c1.3-2.9 6-6 8-5.3l1.2.4v-4.1l3.3-1.4c1.7-.8 4.5-2.8 6.1-4.5 1.7-1.7 3.9-3.1 5-3.1h1.8l-.5-2-.5-2 4.7-5.2 4.8-5 7.3-.2.6-1.8c.3-1 .3-2.2 0-2.6-.7-1.2 1.4-9.6 2.5-10.3l1-.6-4.1-3.7-1.2 1.2c-1.5 1.4-4.8 1.5-4.8 0 0-.5-1.8.6-4 2.5l-4.1 3.4-7.2 1.4-1-1c-.5-.6-.7-1.8-.3-2.7l.6-1.7 4.1 1-1.1-1.3-1.2-1.4 2-2 2-2.2.6 1.7.7 1.8 5.8-5.6 2.7.5c1.6.3 3.6 0 4.6-.6l1.8-1.1 2 1.2 2 1.2 10-7h5.9l2-4.3c1.2-2.4 2.2-4.9 2.2-5.5 0-1.2 3-6 6-9.4 1-1 2.3-3 3-4.5a24 24 0 0 1 2-3.3l2.8-3.8c1.2-1.8 2-3.6 1.7-4.2-.8-1.2 3-5 5-5h1.6l-.6-1c-.4-.5 1.4-3 4-5.5l4.5-4.5h2c1.1 0 2-.4 2-1s1-1 2.3-1c1.3 0 2.8-.5 3.5-1.2l1.1-1.1 2.6 2 3.3-1.3c1.8-.8 3.2-2 3.2-2.9s.6-1.5 1.3-1.5c.7 0 2.6-1 4.2-2.4l3-2.3-.3-3.7-.2-3.6h1.5c.8 0 1.5-.7 1.5-1.5 0-2 3.3-9.5 4.3-9.5.4 0 .7-1 .7-2.2 0-2.7 4.2-8.9 8.1-11.9a25 25 0 0 0 5-5.6c1.2-1.8 2.8-3.3 3.5-3.3s1.5-.5 1.5-1 .8-1 1.9-1h1.9l1 2.8 1 2.8-1.4 4a61 61 0 0 0-1.4 4.2c0 .2-1.4 0-3-.3l-3-.7v1.1c0 .6.4 1 1 1 1.8 0 1 2.1-2.3 6.2l-3.2 4-1.8-.5c-1-.2-1.8 0-1.8.5s.5.9 1 .9 1 .7 1 1.5-.4 1.5-1 1.5-1 .7-1 1.6a8 8 0 0 1-1.9 4l-1.9 2.4-.5-1.2-.5-1.3-1 1.5c-.7.8-1.1 2-1.1 2.5s.4.3.9-.5l1-1.4.6 1.7.7 1.7-1.3 1.5c-.6.8-1.7 1.5-2.4 1.5h-1.2l.4 3 .4 2.9-2 1.3c-1.2.7-2.2 1.8-2.2 2.5 0 1.8-10 7.9-15.5 9.3a30.1 30.1 0 0 0-13.6 7.1c-.9 1-2.2 2-2.9 2a54 54 0 0 0-13.5 13.8c.4.3 1.2-.2 2-1.1 1.2-1.8 4.5-2.5 4.5-.9 0 .5-.7 1.4-1.5 2.1-.8.7-1.5 2-1.5 2.7 0 .8-.8 2.6-1.7 4.1-2.5 4-7.5 9.2-9 9.2-.6 0-1.5 1-1.9 2.2l-.7 2.1-1.7-2.8-.1 1.5v2.9c.3 1.9-2.9 5.1-5 5.1h-1.7L293 181l-1-.6c-.7-.4-1.1-1.3-1.1-2.1v-1.5H289c-1 0-3.2 1.5-4.9 3.3l-3.1 3.2-1.4 18-4.1 4.6h-3.8c-2.1 0-3.9.4-3.9.9s-1.3 2.3-3 4l-3 3 .3 3.2.2 3.2-6 1.6-1.8-1.8-1.3 1.4c-.8.7-1.4 2.3-1.4 3.4v2h2c1 0 2.1.5 2.5 1 .3.5.2 1.6 0 2.5l-.7 1.6h-6.8v-1.5c0-2.7-1.7-1.6-3.7 2.2l-2 3.8 1 2.2c.6 1.3 1.6 2.3 2.3 2.3 1.5 0 3 4.3 2 6-.4.5-2 1-3.6 1H242l-1.5-3.2c-.9-1.7-1.6-4.1-1.6-5.4V237l-3.2-1.2.6 1.5 1.2 2.8c.3.8-.3 2.2-1.2 3.1l-1.7 1.7-4.5-1.1-1.2 1.5c-.7.8-2 1.5-3 1.5-.9 0-2.2-.6-2.8-1.2l-1.2-1.2-2 2.1a7.7 7.7 0 0 0-2 4.2v2l-7.5 3.2-3.4-2-3.3 1.6-3.6 1.8c-.2.1 0 1 .3 1.8l.7 1.7h4.8v2.5c0 1.4-.5 2.5-1 2.5s-1.5.2-2.3.5c-.8.4-2.1 0-2.9-.8zm26.7-24.4c-.3-.4-.6 0-.6.7s.3 1 .6.6c.4-.3.4-1 0-1.3zm12.4-7.8v-1.5l-1.5.6c-.8.3-1.5 1-1.5 1.5s.7.9 1.5.9 1.5-.7 1.5-1.5zm2.7-3.2c-.4-.4-.7 0-.7.7s.3 1 .7.6c.3-.3.3-1 0-1.3zm-1.4-24.6 2.7-1.2v-8.5h-1c-.7 0-1.7.5-2.3 1.2a39.3 39.3 0 0 0-4.7 9.3c0 .9 2.6.5 5.3-.8zm66.9-45c.6-1.3 2-3 3-4s1.9-2.2 1.9-2.7-.7-1.1-1.5-1.4l-1.4-.6-.7 2.2c-.4 1.2-1.4 3.1-2.4 4.2s-2 2.6-2.4 3.3l-.7 1.2h1.5c.8 0 2-1 2.7-2.2zm21.9-33.3c1.4-1.6 1-1.8-1.4-.9-.9.4-1.6 1-1.6 1.5 0 1.4 1.6 1 3-.6zm6.3-3.2c-.7-.2-1.9-.2-2.5 0-.7.3-.2.6 1.2.6s2-.3 1.3-.6zm21.7-9.4c0-.5-.6-.9-1.5-.9-.8 0-1.5.7-1.5 1.5v1.4l1.5-.5c.9-.3 1.5-1 1.5-1.5zm9.7-18.6a1 1 0 0 0-1.3 0c-.4.4 0 .7.6.7.8 0 1-.3.7-.7zm2.2-3.8c-.4-.3-1 .2-1.3 1.2l-.7 1.8 1.3-1.2c.7-.7 1-1.5.7-1.8zm203.4 172.6v-2l2.4-1.6c1.4-.9 3-1.3 3.5-1 .6.4 1 1.6 1 2.6 0 2-2.6 4-5.3 4h-1.6zm10-.4v-1.6h4.2l-.5 1.2c-.2.7-1.1 1.4-2 1.6l-1.7.3zm-254.3-1.2-1.3-1.5 4.4-1.2-.3-1.6-.3-1.6h-2c-1.1-.1-3.2-.7-4.8-1.3l-2.7-1.2V253c0-1 .4-2.4.8-3 1.2-2 6.2-4.1 8.3-3.6 1 .3 1.9 1.3 1.9 2.2 0 .9.9 2.3 2 3l2 1.5v9.6l-2.6 1c-1.4.6-2.9 1-3.3 1-.5 0-1.4-.7-2.1-1.6zm-1.4-11.1c-1-1-1.9.5-1 1.8l.8 1.3.4-1.3c.2-.7.1-1.5-.2-1.8zm253.7 7.8v-2l1.3.4 1.3.5 4.8-5c2.6-2.8 5.2-5 5.7-5s1 .8 1 1.7c0 2.3-7.4 10.3-9.4 10.3-.9 0-2.3.3-3.1.6l-1.6.6zm-359.4-6.5c0-.7 1.8-2.6 4-4.1l4-2.8 3 1.2-1.2 2c-1.4 2.2-6 5-8.2 5-1 0-1.6-.5-1.6-1.3zm15 .4c0-.7.3-1 .7-.7s.3 1 0 1.4c-.4.3-.7 0-.7-.7zm302.3-8.5c0-.8.2-1.5.4-1.5s.7.7 1 1.5c.3.8.1 1.5-.4 1.5s-1-.7-1-1.5zm-333.8-1.8c-.9-.4-1.3-1.3-1-1.8.3-.5 1.4-1 2.4-1s2.1-.6 2.4-1.4c.3-.8 1.3-1.5 2.1-1.5h1.6v5.8l-3 .4c-1.6.2-3.7 0-4.5-.5zm337.8.4c0-1.3 2-2.5 7-4.6l6.7-2.7 2.1-1 2.4.8c1.3.4 3.6.6 5 .5 4.9-.5 4.8 3.3 0 6.1l-2.8 1.7-2.2-1.5-2.1-1.5-6.1 1.5c-3.4.9-7 1.6-8 1.6s-2-.4-2-.9zm-1.6-6.7c-.4-.8-.2-3 .3-4.7l1-3.2 1.9-.4c1-.2 3-1.4 4.5-2.7l2.5-2.4 4.5 1.2-.7 2.1a6.2 6.2 0 0 1-1.7 3c-.6.3-2 .7-2.9.7-2.2 0-5.8 3.8-5.8 6.2v1.8h-1.5c-.8 0-1.8-.7-2.1-1.6zm-287.2-2.5c-1-1.5.3-2.5 1.6-1.2l1 1-1 .7c-.5.3-1.3.1-1.6-.5zm281.5-11c-1-.6-1.5-1.5-1.1-2 .3-.5 1.4-1 2.5-1h2v1.5c0 .8-.4 1.7-.8 2s-1.6 0-2.6-.6zm97-8.9c-.3-.4-1.9-1-3.5-1.4l-3-.6v-4h2.3c1.3 0 2.9.6 3.5 1.3l1.2 1.4 5-1 1.5 1.3c.8.7 1.4 1.7 1.2 2.3-.5 1.3-7.5 1.9-8.2.7zm-382-3v-2h3.1l-.3 1.6c-.2 1-.9 1.9-1.6 2.1l-1.2.4zm2.8-8c.3-1.4 1.1-3 1.9-3.4.8-.4 1.8-1.9 2.3-3.2.5-1.4 1.6-2.4 2.4-2.4s1.7-.7 2-1.5c.6-1.7 4.6-2.1 4.6-.5 0 .5.6 1 1.4 1 1.5 0 2.9 2.4 1.9 3.4-.3.3-2 .6-3.8.6h-3.1l-2 2.3a16 16 0 0 0-2.6 3.8c-.4.9-1.7 1.8-3 2l-2.5.5zm-102.3 0a15 15 0 0 0-6-1.4c-.7.2-1.9-.2-2.6-1.1-.7-.8-1.8-1.5-2.4-1.5s-2.8-1.4-4.7-3c-1.9-1.6-3.8-3-4.3-3-2-.1-7.7-8-7.7-10.7 0-1 .8-3 1.6-4.2l1.6-2.2 9.9 10v4h3.2l-.6-1.5-.6-1.5h2.7c3.3 0 5.8 1.5 5 2.8-.4.5.7 2.2 2.3 3.8 1.6 1.5 3 2.3 3 1.6v-1.1h3.3c1.9 0 4.8.6 6.5 1.5 1.7.9 3.4 2.5 3.7 3.6l.7 2-1.4 1.3a11 11 0 0 1-4.8 1.8l-3.5.6zm-9-11.7a1 1 0 0 0-1.3 0c-.4.4 0 .7.7.7s1-.3.6-.7zm42.7 10.3-1.1-2.4h-5.4l-2.4-2.6c-1.3-1.4-2.4-3.5-2.4-4.6v-2h1.3c.8 0 2.2-1 3.2-2s2.7-2 3.7-2h1.8v6l5.5-.5 1.9 3.5c1 1.9 1.8 4.3 1.8 5.4 0 1-.7 2.2-1.4 2.7s-2.2.8-3.4.8h-2l-1.1-2.3zm222.2-6.4-5-4.7-.6-3.6c-.4-1.9-1-7.8-1.4-13.1s-1-10-1.3-10.3c-1-.9-2 9.1-1.3 12.4l.6 2.8-1.1.7c-.6.4-1.1 1.7-1.1 3 0 1.2-.9 3-1.9 4l-1.8 1.6-1.7-.6c-.9-.4-1.6-1.4-1.6-2.3 0-1 .7-3 1.5-4.6 1.6-3 3.6-14.7 2.7-15.6-.2-.2-1.2.7-2 2-1 1.4-3 3.8-4.6 5.3a30.3 30.3 0 0 0-4.8 6.3l-1.9 3.5 1.5.6c2.5 1 1.8 3.3-1.1 4l-2.7.6-1.6-1c-.8-.5-1.7-2.1-1.9-3.6-.1-1.5.1-2.7.6-2.7s1.4-1.6 2.2-3.7c.7-2 3-5.5 5.3-7.7 2.1-2.1 4.6-5 5.4-6.2l1.6-2.4h4.8v-2.2c0-1.3.7-3.1 1.5-4.2.8-1 1.5-3 1.5-4.2v-2.3l2-1c1.1-.7 2.9-1 4-.6l1.8.6.6 3.5.7 3.6-2.8 4.3.9 5.5 1.6 10.8c.4 2.9 1.3 5.8 2 6.4.6.7 1.2 2.3 1.2 3.5 0 1.3.4 2.3.8 2.3s2.7 1.7 5 3.6c2.3 2 4.2 4.4 4.2 5.4 0 2.1-3 5-5.3 5-1 0-3.9-2-6.5-4.7zm6.5-3c-.4-.3-.7 0-.7.8 0 .7.3 1 .7.6.3-.3.3-1 0-1.3zm181-.2c-.3-.6-1.4-1-2.3-1-1 0-2.4-1-3.1-2l-1.4-1.9-3 1.2 1-2.9 11.8.7 2 2 2 2-2.3.5c-1.2.3-2.2 1-2.2 1.5 0 1.2-1.7 1-2.5-.1zm-310.8-5.6v-2l.6 1.4c.3.7.3 1.5 0 1.9-.4.3-.6-.3-.6-1.3zm-61.2-3.2c-.6-2-2-4.7-3-5.8s-2-2.6-2.3-3.5c-.3-.8-1.7-3.3-3-5.5l-2.3-4-2-.3c-1.2-.1-2.6-1.3-3.3-2.5s-3.1-3.5-5.5-5a18.2 18.2 0 0 0-5.2-2.6c-2.1.4-3.4-.2-3.4-1.5 0-.8-1.1-2.6-2.6-4l-2.6-2.7-1.4 1.2-1.4 1.2-2.5-1.3c-1.4-.7-2.5-1.8-2.5-2.4 0-1.1-4.5-3.6-6.6-3.6-1.8 0-7.4-6.2-7.4-8.1 0-1-1.1-2.7-2.5-4l-2.5-2.4V122l-4.5-.7v-12l-3-.5-3-.5-1.2-2.5c-.7-1.4-1.8-2.5-2.5-2.6-3-.2-6.7-2.4-9.3-5.6a16.5 16.5 0 0 0-5-4.1l-2-.8 1.2 1.2c1.8 1.8 1.6 4.6-.4 5.3l-1.6.6-1.9-1.6c-1-1-1.8-2.4-1.8-3.1 0-.8-2-3.4-4.4-5.6-6.4-6.2-9-8-10.7-8.2-.8 0-2-.4-2.7-.9l-1.3-.7v2c0 1-.4 2.2-1 2.6-.5.3-2.5.3-4.5 0l-3.5-.7v-4.8H98c.7-.1-.8-1.1-3.3-2.3L90.1 74v-6.7l-3.8-2.2-.4 1.2c-.6 1.6-3.4 1.6-6.5.2a29.7 29.7 0 0 1-9.1-13l-.6-2.5 1.4-2.8a21 21 0 0 0 1.5-3.2c0-.3-1-.4-2-.4h-2V43c0-1.7 4.6-3.8 6.7-3 2 .7 3.6 5.5 3.4 9.8l-.2 3.7 6.1 3.1v2.6c0 1.4.4 2.3.9 2 .5-.3 1.1-1.9 1.4-3.4l.6-2.9 6.2 1 2 3.8-.6 4.3-.7 4.4 1.4.8c.7.5 1.3 1.6 1.3 2.4v1.5l6.5-.7.1 3.9c0 2 .3 3.1.7 2.3.8-2.1 4.3-5 6-5 2.5 0 10 5.2 11.2 7.7a7.2 7.2 0 0 0 3.5 3.3l2.4.9.3 2.3.4 2.3h9.6l2 3-.7-3.6-.6-3.5 1.7-1.4a14 14 0 0 1 6.6-1.6c2.6-.2 5.2-.5 5.7-.8.5-.3 2.3 0 4 .7l3.2 1.2-.5 2.8-4.6 1.1c-2.5.7-5.1 1-5.8.8-1.5-.5-5.1 2.6-5.1 4.5 0 .7-.6 1.3-1.2 1.3s-.9.3-.5.7c.4.3 1.5-.2 2.6-1.2l2-1.7 1.5.5a3 3 0 0 1 1.6 2.5v1.8l10 4.2v1.7c0 .8.7 2.6 1.6 4l1.5 2.4-.3 3.8-.3 3.8 1.5 1.8c.8 1 2 1.7 2.8 1.7 1.9 0 5.4-3.8 8.3-9 1.3-2.5 2.6-4.7 3-5a46 46 0 0 0 2.8-5.2c1.3-2.5 3-4.9 4-5.2 2.5-.8 7.5-4 8.8-5.6l1.2-1.5-1.2-.7-1-.7 1-2.3c.6-1.3 1.4-3 1.7-4 .7-2.4 5-5 8.7-5.3 3.5-.3 10.6-5.1 11.5-7.8l.6-1.7 6.4-1.6 1.7-3.4c1.8-3.6 1.6-5.2-.5-3.2a5 5 0 0 1-2.9 1.2c-1 0-3.6 1.8-5.8 4.1l-4.1 4.1-3.5-.5c-3.9-.7-10.2.8-12.5 2.9-1 .8-2.3 1.4-3 1.4-.8 0-2.3 1.4-3.2 3l-1.8 3.1-2.2-.3c-1.3-.1-2.9.1-3.6.6l-1.3.8-1.8-1.6c-1-.9-2.2-1.6-2.8-1.6-.6 0-1.3.9-1.6 2l-.5 2h-2.6c-1.4 0-2.6-.5-2.6-1 0-.7-.5-.9-1-.5s-1 2.6-1 5-.4 4.5-.8 4.5c-1.5 0-4.2-3.6-4.2-5.6a5 5 0 0 0-1-3l-1.1-1.1 4.1-3.6c2.3-2 5.8-4.3 7.7-5.2l3.4-1.7 2.8 1c3 1 8.1.5 8.1-1 0-.4 1.4-.8 3-.8h3l4-4h8v-1c0-.6 1.2-1 2.5-1s2.5.5 2.5 1v1.1l2-.6c1.2-.4 3.3-1.7 4.6-3 1.4-1.3 4.6-3.3 7-4.5l4.5-2 3.7 2 2.6-1.3c1.5-.7 3-2 3.2-3 .4-1 1.2-1.7 2-1.7s1.5-1 1.8-2.1l.5-2 2.1 1c1.2.7 2.7.8 3.4.5 3-1.8 10.7-6.8 10.7-7 0-.2-5.8 0-12.8.2l-12.8.7-5.5-1.3c-3-.7-5.9-1.6-6.4-2s-4-1-7.5-1.4c-10-1-13-1.5-14-2.2-.6-.3-1-.1-1 .4 0 1.4 9.8 4.1 17.5 4.9 3.6.3 6.7 1 7 1.4.9 1.4-3 2.7-8.6 3l-5.5.2-6.8-2.2c-3.8-1.2-7.7-2.1-8.7-2.1s-2.5-.7-3.3-1.5c-.9-.9-2-1.5-2.6-1.5s-1.5-.9-2-2l-1-1.8-3.8-.7a82.5 82.5 0 0 1-17.3-5.7c-.3-.4-1.9-.5-3.5-.3-1.7.2-4.2-.1-5.7-.7l-2.7-1L146 25l-4.6 2.3c-1 .3-1.7 1-1.7 1.5s-.9.9-2 .9h-1.9l-.6 2c-.4 1-1.3 2-2.1 2s-2.6.7-4 1.6l-2.5 1.6-4.7-2-2.1 1.4c-1.2.8-2.2 2-2.2 2.8 0 .7-1 2-2.4 3-2.7 1.7-6.6 2.1-6.6.7 0-.5-1.4-1.2-3.1-1.5l-3.2-.6-1.7 1.5c-.9.8-2.5 1.5-3.5 1.5s-3.3-.6-5.1-1.2l-3.3-1.2-4.7 2.1-5.5-4.7h-4c-2.2 0-5 .5-6.2 1.2s-3.1 1.3-4.2 1.3l-3 .4c-2.4.7-4.5 0-4.5-1.4 0-.9-.5-1.5-1-1.5s-2 .5-3.4 1.1L49.6 41l-5.3-3.5-2.4 1.2c-1.3.7-2.3 1.7-2.3 2.1 0 1.3-4.5 1-5.9-.3a5 5 0 0 1-1.2-3.1v-2l2-.4c1.1-.3 2-1 2-1.3 0-.4 2.5-1 5.6-1.4l5.5-.7 3 1.6c3.1 1.6 11.5 2 12.4.6l.6-1 3.7 1c2.1.4 5.9.8 8.4.8s6 .8 7.8 1.6l3.1 1.6 7.8-1.3.7 1c.3.7 1.4 1.2 2.4 1.2s3.3-.8 5-1.6l3.2-1.6 5 3.2 2-3.5c1.2-1.9 3-3.7 4-4 1-.4 2-1 2-1.6 0-.5.4-1 1-1 .5 0 2.8-1 5-2.4 2.1-1.4 4.5-2.5 5.3-2.5s2.5-1 3.8-2l2.5-1.9 14.9-2.9 13 .7 4.7 2c2.6 1.2 5.4 2 6.2 2 .8 0 2 .8 2.5 1.8l1 1.7 2.6-1.3c2.7-1.2 5-.7 4 1-.9 1.3 2.8 5.8 4.8 5.8 1 0 1.7-.4 1.7-1v-.9l29.6 1.2 4.5-1.6c2.4-.9 5.2-1.6 6-1.6 1 0 2.5-1 3.5-2 1-1.1 2.6-2 3.6-2s1.9-.5 1.9-1c0-.6.8-1 1.8-1s2.2-.4 2.7-1c.6-.4 3.3-1.3 6.2-2l5.2-1 3.5 1.5c2 .8 4 1.5 4.6 1.5s.9-.6.8-1.3l-.3-1.2 14-.3 4.6 4.2 4.7-1.3a21 21 0 0 0 6.2-2.6c.9-.7 5-2.1 9-3 4.2-1 8-2.2 8.5-2.7s1.8-.9 2.8-.9 3.5-.8 5.6-1.8c3.5-1.8 7.9-2.8 24.7-5.3l7-1 32 .8 2.2-2.8L397 0v1c.4 3.9-.5 7.7-2.7 11.2A59.2 59.2 0 0 1 380 26.3l-2.3 1.3-1-3.9-1.4 1.2a47 47 0 0 1-5.3 3.7l-4 2.4 3.9 5-2.1 2-2 1.9-2.4-.6c-1.2-.3-2.3-1.2-2.4-1.9 0-.7-.4-2.7-.8-4.5l-.6-3.3 4.7-4.4a57 57 0 0 1 9.4-6.7c2.6-1.3 4.8-2.7 5-3.2.2-.5 1.5-1.8 2.8-3 1.3-1 2.4-2.4 2.4-2.9s-2.9-.9-6.3-.8c-3.4 0-8.8-.1-12-.3l-5.7-.4-2.7 2.9c-1.5 1.6-3.3 2.9-4 2.9-.7 0-2 .7-3 1.6-.9 1-2.4 1.8-3.3 1.9-3 .2-6.1 1.6-6.1 2.7 0 1.7-3.3 3.7-6.3 3.7h-2.9l-4.3 3a16 16 0 0 1-6.9 3c-1.4 0-2.8.6-3.2 1.2l-.7 1.1-6.6-.7-8.6-.6c-1 0-2.2.5-2.6 1.1l-.7 1.1-10.3.4-1-1.5-.8-1.4-4.8 1.8c-2.7 1-7.2 3-10 4.2a35.1 35.1 0 0 1-6.2 2.4c-.5 0-2.7 1.5-4.8 3.4-2.2 2-4.5 3.5-5.3 3.5-.8 0-2.4 1-3.6 2.1l-2.2 2-7.3.7-4.4 4a26.8 26.8 0 0 1-6.6 4.8l-2.2.7.5 1.2c.3.7-.4 1.8-1.4 2.4s-2 1.6-2 2.2c0 1.5 3 1.2 3.7-.4.8-2.2 8.2-4.8 13.3-4.8h4.6l4.6 5.5-2.9 2.9-2.1-1.2c-1.2-.6-2.6-.8-3.1-.5-.6.3-1 1.5-1 2.5 0 1.1-.6 2-1.3 2s-1.8 1.4-2.6 3.2a39 39 0 0 1-4.4 7.1c-1.6 2.1-2.7 4-2.4 4.3.3.3 1.9-.4 3.5-1.6 1.6-1.3 3.5-2 4-1.6 1.6 1 1.5 4.5-.1 5.2-.7.2-1.4 1.4-1.5 2.6a4 4 0 0 1-1.4 3c-.7.4-2.4 1.1-3.8 1.5-1.3.3-3.4 1.6-4.5 2.7-1.1 1.2-2.5 3.4-3 5s-2.1 3.6-3.4 4.2-2.1 1.3-2 1.5c.2.2-.7 1.8-1.9 3.6a14.5 14.5 0 0 0-2.3 4c0 .4-1.3 1.6-3 2.5l-3 1.7v1.8c0 1-1.7 3.6-3.8 5.8-4.1 4.3-7.2 9.4-7.2 12 0 1.9 2.4 4.5 4 4.5.6 0 1-.4 1-1 0-.5.6-.7 1.4-.4l1.3.5 3.4-4.2 5.3-6.2c1-1 1.6-2.1 1.2-2.4-.3-.4 0-1.6.9-2.8a19 19 0 0 0 2-5.7l.7-3.6 2.2-.6c1.1-.3 2.7 0 3.4.6l1.3 1-1.5 2.4c-.8 1.3-1.5 3-1.5 3.9 0 .8-.6 1.5-1.3 1.6-.7 0-.2.5 1 1l2.4.9-1.1 2c-.6 1.1-1.5 2-2 2-1 0-5 8-5 10.3 0 1-1 2.1-2 2.7-2.6 1.4-5 6.3-4.3 9.4l.5 2.6 3.1-.6c1.7-.3 6.4-.7 10.4-.9l7.3-.4v4.2l1.3-1.1c.8-.6 1.7-.8 2-.5.4.4 2.7.6 5.2.5l4.4-.3 3 3.2c1.7 1.8 3 4 3 4.8 0 1-.7 2.7-1.7 4l-1.8 2.2-1.7-.6c-1-.4-1.7-1.4-1.7-2.3a7 7 0 0 0-1-3.1l-.9-1.5-1.9 1.7a7 7 0 0 1-4.3 1.7c-1.4 0-3 .6-3.7 1.2l-1.2 1.2V171c0-.6.5-1.2 1-1.2s.8-.4.4-1l-.6-1.1-5 4.6-.9-1.5-.9-1.5v2.8c0 1.5.4 2.7.8 2.7.5 0 1.5 1.4 2.1 3l1.3 3-2.4 7H223l-1.2-3.7zm4.5-20.4c-.7-1.2-3.4-1.1-3.4 0 0 .6.3 1.7.6 2.7l.7 1.7 1.3-1.8c.7-1 1-2.1.8-2.6zm-26-12.7c-.2-.3-1 0-1.7.7l-1.3 1.2 1.8-.6c1-.4 1.6-1 1.3-1.3zm-9.3-16c.6-1.2 1.5-2.2 2-2.2.4 0 2-1.8 3.3-4 1.4-2.2 4.2-5 6.3-6.4 5-3.2 8.3-6 8.3-7.4 0-.6.8-2.6 2-4.4 1-1.8 2-4.2 2-5.4v-2l13.6-14.4v-6.3l2.2-1.8c1.2-1 2.2-2.6 2.2-3.6s1.4-3.6 3.2-5.8c1.8-2.2 3.6-4.2 4-4.4.4-.1.8-.7.8-1.3v-1l-3.3.7c-1.8.4-4.8 2-6.7 3.6-2 1.6-4.3 2.9-5.3 2.9s-2.6-.6-3.7-1.2l-2-1.3-1 1.1c-.7.6-1.3 2.2-1.4 3.5s-.6 3.1-1 4a8 8 0 0 1-3.8 3l-3 1.2-1.9 4.9-3 1.1c-1.6.6-3 1.6-3 2.3 0 .6-2.4 3.7-5.4 6.8l-5.4 5.6h-4.2l-1 2.4c-.5 1.4-2.5 4.7-4.4 7.4-2 2.7-3.6 5.5-3.6 6s-.4 1.2-1 1.2c-1.2 0-6 10-6 12.5a5 5 0 0 0 1.6 3.2l1.5 1.6 8-1.3v1c0 .4 1.7.8 3.9.7l4-.2zm43.5-44.3c.8-1.4-1-1-3.2.5l-2 1.5 2.3-.6c1.3-.3 2.6-1 2.9-1.4zm-32-6.3 2.5-2.3-1.6-.6c-1.8-.7-4.6 0-4.6 1.3a7 7 0 0 1-.6 2.4l-.6 1.6h1.2c.6 0 2.3-1 3.7-2.4zM188.7 70c0-.2-.7-.4-1.5-.4s-1.5.4-1.5 1c0 .5.7.7 1.5.3.8-.3 1.5-.7 1.5-1zm-98.4-7a1 1 0 0 0-1.4 0c-.3.3 0 .6.7.6s1-.3.7-.7zm167-30c5.4-.8 11.9-2.4 14.3-3.5 2.5-1 6.3-2.2 8.4-2.6 4-.6 6.3-2.3 3.1-2.4l-18-.6-16.3-.5-3 3c-1.5 1.8-3.4 3.2-4 3.2-.7 0-5.4 1-10.4 2.2l-9.1 2.2 6 .7c7.1.7 15.4.2 29-1.7zm39.8-3.6c-1.3-1.3-9.3-2.9-9.3-1.8 0 .3 2 1.1 4.3 1.7 5.9 1.4 6.3 1.4 5 .1zm22.6-4.5c1.5-.3 3.6-1.4 4.7-2.4a34 34 0 0 1 12-6c.8 0 1.5-.4 1.5-.9s1.6-1.5 3.5-2.2c2-.7 3.5-1.6 3.5-2s.8-.9 1.8-.9 2.7-.7 3.8-1.5l2-1.6-14 1-.8 1.5c-.5 1-2 1.6-3.3 1.6-1.3 0-2.7.5-3 1-.4.6-1.4 1-2.4 1s-2.6 1-3.6 2c-1 1.2-2.5 2-3.4 2-.8 0-2.4.9-3.6 1.9-1.1 1-4.4 2.4-7.3 3l-5.2 1.3-3-.6c-3.4-.8-7 0-7 1.6 0 .5.7.8 1.7.5 1-.2 5.1-.1 9.3.3 4 .4 8 .6 8.8.4l4-1zm-50.2-5a1 1 0 0 0-1.4 0c-.3.4 0 .7.7.7.8 0 1-.3.7-.7zm31.4-2.3c-2-1.3-3-1.3-3 0 0 .5 1 1 2.2 1h2.3zm9.5-.2a21 21 0 0 0 8-3c1-1 2.5-1.8 3.3-1.8s1.2-.3.9-.7c-.4-.3-2.8.3-5.4 1.4-2.7 1.1-7 2.3-9.6 2.7-2.6.4-4.7 1.1-4.7 1.6s.3 1 .8 1l6.7-1.2zm78.6-3.8c0-.6-.2-1-.5-1s-.7.4-1 1c-.4.5-.2 1 .4 1s1-.5 1-1zm8.5 173.2c-.4-.7-.5-1.6-.1-1.9.9-.9 1.8.4 1.4 1.9l-.5 1.2zm-12.5-1.2c0-.5.4-1 1-1 .5 0 1 .5 1 1 0 .6-.5 1-1 1a1 1 0 0 1-1-1zm-210.3-3c0-.5-.8-1-1.8-1s-2.4-.9-3.2-2l-1.5-2-8.5-2.2v-7.8l-4-3.9c-2.2-2-4-4.6-4-5.7l-.1-1.9-6.4-4-.4-2.2c-.1-1.3-.6-2.3-1-2.3s-1.1-.9-1.4-2l-.5-2h1.4c.7 0 1.4-.4 1.4-1s-1.1-1-2.5-1h-2.4l-3.2-4.5-.8 1.4c-1.2 1.8-4.5 1-5-1.2-.2-1 .6-3.7 1.8-6l2-4.4 2.6-1.1c1.4-.7 3.5-1.2 4.6-1.2 1 0 2.9.5 4 1l1.9 1v2.8c0 1.6-.5 3.3-1.2 4l-1.1 1 6.3 6.4v6.7l4.4.6 2.4 3.5c1.2 2 3.7 5.1 5.5 7s3.8 4.8 4.5 6.3c.6 1.5 1.9 3 2.7 3.4.8.3 1.5 1.4 1.5 2.4v2h1.6c1 0 2.7 1 4 2.5 2.5 2.7 3 4.4 1.4 4.4-.5 0-1 1-1 2v2h-2c-1.1 0-2-.4-2-1zm-32.3-53.5c-.8-.8-4.7 3.1-4.7 4.7 0 .7 1.2 0 2.7-1.4 1.4-1.5 2.4-3 2-3.3zm369.8 52.1c-.7-.7-.8-1.6-.4-1.9 1.2-.6 5.3 1.1 5.3 2.3 0 1.5-3.6 1.3-5-.4zm-243-9.1-.6-1.6 2.8-3c1.5-1.5 3.4-2.9 4-2.9.7 0 2.3 1.4 3.5 3l2.1 3.1-5.3-1.3-1.2 1.5a7 7 0 0 1-3 2l-1.8.7zm173.2-6c-.3-.8-1.2-1.5-2-1.5h-1.3l.5-1.5c.7-1.8 3.5-2 5.2-.3l1.2 1.2v-1.6c0-.8.7-1.8 1.6-2.1l1.5-.6.5 1.4c.3.8.4 2.4.2 3.6l-.3 2.3-6.5.7zm-14-7.5c-.7-1.2 2-2.4 3.6-1.5.5.4 1 1 1 1.6 0 1.3-3.7 1.2-4.5 0zm-243.1-8c-.7-1 .8-2.2 1.8-1.3 1 1 .7 2.3-.3 2.3-.5 0-1.2-.4-1.5-1zm-62.7-23c0-1.1.6-3 1.3-4l1.2-2-1-1.7c-.6-1-2.6-2-4.3-2.5l-3.2-.9v-4.4l4.1-2.6 2.7 1.5c1.5.8 3.5 1.7 4.5 2 1 .3 2.1 1.5 2.6 2.7l.8 2.1-1.1 4.3c-.6 2.3-1.7 5-2.4 5.9-.8.9-2.3 1.6-3.3 1.6h-1.9zm264.4-7.2c0-.7.4-2 .9-2.7l.9-1.5-3.3-2.4 1.4-4.1c.8-2.3 1.9-4 2.5-3.8l1 .4.4 5.3c.1 3 0 6.4-.3 7.7-.3 1.3-1.3 2.3-2 2.3s-1.6-.6-1.5-1.2zm-272.8-11-1.7-1 1.6-1.8c1.8-2 4-1.7 4.9.4.2.7-.3 1.7-1.3 2.3l-1.7 1zM130.3 87c-1-1-.7-2.3.7-2.3.7 0 2.4-1.1 3.6-2.5l2.4-2.5h4.7v1.2c0 .7-2.1 2.5-4.6 4-2.5 1.6-5 2.8-5.4 2.8s-1-.3-1.4-.7zm13.4-7.7c0-.9.7-1.6 1.5-1.6 1 0 1.4.5 1.2 1.2-.6 1.8-2.7 2.1-2.7.4zm102-7.6c0-.8.4-1 .7-.7.4.4.4 1 0 1.3-.3.4-.6.1-.6-.6zM104.2 52.3a10 10 0 0 1 0-4.6l.6-2h2.5c1.4 0 2.3.4 2 .9-.3.4.1 1.4 1 2 1.7 1.6 2 5 .2 5-.7 0-2.3.4-3.5.7l-2.2.6zM370 31.7c0-1.1.5-2 1-2s1 .6 1 1.4c0 .8-.4 1.7-1 2l-1 .7zM86.6 29.2 83 28l-.4-2c-.2-1-.8-2.4-1.3-3a3 3 0 0 1-.5-2.8l.6-1.5h6l5.2 5.5-.3 2.9c-.2 1.6-.8 3-1.3 3.1-.6.2-2.6-.3-4.5-1zM285 19c-.7-.3-1-1-.7-1.4.7-1.3 6.4-1.2 6.4 0 0 .6-.4 1-.9 1s-1.5.2-2.2.5c-.8.2-2 .2-2.6-.1zm88.8-5.4c-.6-1.2-.9-2.4-.6-2.7s1.7-.2 3.1.1l2.6.7-1 2c-.7 1-1.6 2-2 2-.6 0-1.5-1-2.1-2.1z"/>
</svg>
