<?xml version="1.0" encoding="utf-8"?>
<svg xmlns="http://www.w3.org/2000/svg" version="1.1" viewBox="0 0 390 365">
	<title>Sketch of a hillside. On the bottom left is a river, halfway up on a flat area is a tower. Another structure of some kind is on a further hillside behind and to the left.</title>
	<path d="M116 364v-3c1-2 1-3-3-3l-4-1-3-2-5-4-5-4-3-3c-1-2-1-2-2-1-1 2-4 1-4-2s-1-3-5-2h-7c-5-3-5-5-1-5 2 0 3 0 3-2 0-3 3-4 3-1 0 2 1 3 4 2 4-2 5-3 1-3-4 1-4 0 1-3l3-2-5 2h-3c-1-2-2-2-5 0l-9 4c-5 4-8 4-11 0-3-3-2-4 3-6l26-12c5-4 4-5-1-11-3-3-14-9-15-8-1 2 1 4 4 4s7 3 7 5l2 2c1 0 3 2 1 4 0 1-1 1-2-1-1-1-1-1-2 1l-1 3c2 2 1 3-2 3-4 0-5-2-2-5 4-4 4-9 1-8h-8c-5 3-10 4-17 4l-7 1-15 2c-1-1-2 0-3 1-2 2-4 2-7 3l-9 1c-5 2-10-1-9-4 1-2 5-4 8-4l6-3c4-2 5-2 7-1l5-1c2-2 2-2 0-7s-1-7 3-6c6 2 7 2 7 0l-2-1c-1 0-2-1 0-3 3-2 0-2-4 0-5 3-5 3-7 1-2-1-2-2-2-6 1-4 1-5-1-5-1 0-2-1-2-3-1-3-6-7-8-7-4 0-4-6 0-8 2 0 5 1 5 3l1 2c2 0 5 3 6 6 0 2 1 3 3 3l3 2c2 4 8 3 6 0-1-3 2-3 3-1s2 2 3 2c1-1 6 5 6 7s2 2 3 0h4c3 1 3 1 5-1l13-13 6-6 1-1 4-3c3-1 3-2 3-3-1-2 1-9 4-10l3 1h3l4-2c3 0 3 0 3 2l-1 2-1 3c0 2-2 3-3 1h-4c-2 0-3 1-3 2 0 3-4 9-10 15l-6 6c1 1 2 0 4-2 3-3 5-4 11-4 5-1 5 1 0 4l-5 5c-1 1 0 1 1 1l5-2c2-3 9-4 9-2l-1 1-4 1v1l2 2 6-3c4-4 7-5 7-3l-11 11-1 1-5 6c-6 7-8 9-6 9l7-6 8-6 4-2 3-2c2 0 2 2 0 3l-2 4c0 2-2 4-4 4-3 0-2-2 0-4 2 0 2-1 2-2l-3 2c-3 2-2 5 2 6 3 1 4 0 7-2l4-3c2 0 1 2-1 5l-3 3c0 1-1 3-3 3l-5 4-4 2c-2 0-2 1-1 6 1 2 1 2 9-7 8-7 9-8 13-9 6-1 5 1-1 4l-7 6c-3 3-3 3 2 4 2 1 2 4-1 6-2 1-3 6-1 6l6-2c7-4 15-6 17-4 1 2-2 4-7 4l-8 2c-3 1-4 2-2 3l3 1c1 0 2 0 2 2l-5 7c-4 4-4 5 1 2 4-1 2 3-2 7-6 5-6 8-2 7s7 1 7 5c0 2 0 2 6 2l5 1-2 3h-14zm-3-22-3 2h2l1-2zm-14-8c2-4 1-3-2 0l-1 2 3-2zm-4-1-1-1-1 1 1 1 1-1zm15-2-1-1-1 1v1l2-1zm-15-4-1-1-2 1 1 1 2-1zm-9-5c4-2 1-3-2 0-3 1-3 2-1 2l3-2zm-5-2v-1l-1 1v1l1-1zm15-17 2-5-7 6c0 2 4 0 5-1zm-50-4-1-1v3l1-2zm38-5-1-1-1 2 1 1 1-2zm-4-2c0-2-3-5-5-5s-2-1-2-3v-3l-5 7 2 2 9 4 1-2zm10-3c3-2 4-3 2-5-1 0-7 4-7 6l5-1zm-28-3 1-2h2c0 4 2 3 4-2 3-5 2-6-2-2-2 2-2 2-3 1-1-2-2-2-4 1-2 2-4 3-5 2-2 0-3 1-1 2h8zm23-1-1-1-1 1v1l2-1zm-59-2v-1l-2 1c-1 1 0 1 1 1l1-1zm51-3 3-4v-3l-2 2c-4 4-5 8-1 5zm5-1v-1l-1 1v1l1-1zm-14-4c1-1 0-1-1-1l-2 1 2 1 1-1zm16-3-1-1-1 1v1l2-1zm-50 80 1-9 5-1v3c-1 1-1 2 1 3l4 2 2 1c0 1-2 2-5 2-6 1-7 1-8-1zm-22-29c-1-2 1-3 4-3s4 1 1 3h-5zm10-2c-2-1-1-1 1-3 3-3 7-3 8 0s-6 5-9 3zm17 0-2-3c0-2 9-7 11-6l3-1c3-1 6-2 6 0 0 1-5 4-7 3l-4 2-3 2h5l7-3c4-2 6-1 4 1-1 2-14 6-17 6l-3-1zm27-5 1-2c2 0 3 0 3 2h-4zm51-1c-1-2 2-3 6-3 6-1 8 0 5 3h-11zm-52-4 2-1v1l-1 1-1-1zm66-15c-1-2 0-3 2-2l2 2h-4zm8-5 2-1c3 0 2 2 0 3l-2-2zm-7-6 2-1 3 1-3 2-2-2zm-18-4c1-2 3-3 3-1l-1 2-2-1zm-3-9c-1-1 2-3 3-2l1 2h-4zm8-3c-1-2 2-6 6-7 4-2 5-1 2 2l-5 4c-2 3-3 3-3 1zm-25-8c0-2 7-8 8-7 2 1 1 2-2 6-3 3-6 4-6 1zm25-9c-1-2 4-8 7-7 2 1 2 2-3 6-3 2-4 3-4 1zm-16-2c0-2 3-5 4-4s-2 6-3 6l-1-2zm9-6-2-2c-4 0-3-5 1-6l5-1c3 0 4 3 1 4-1 0-2 1-2 3 0 3-2 5-3 2zm30 0a2 2 0 0 1 3 0 2 2 0 0 1-3 0zm7 0c0-2 1-3 3-3 3-1 4 0 3 3-1 2-6 2-6 0zm-14 0c-2-2-1-3 2-3s3 2 1 3h-3zm23-3c0-2 3-3 6-4 3 0 4 1 2 3s-8 2-8 1zm11-1c-1-2 0-4 3-5s4 1 3 4c-2 3-5 4-6 1zm-73-4c1-5 1-5 4-5 3-1 5-2 5-5 0-2 14-16 16-16l2-3 4-4c2 0 4-2 6-6 2-5 3-6 7-7l6-2c2 0 4-2 8-5l7-7a1431 1431 0 0 0 12-10c3 0 4-1 5-5 1-3 6-9 8-8s2 2-1 5l-3 7c-1 4-2 5-4 5-2 1-5 3-9 9-2 4-3 4-6 5-3 0-4 1-6 3-2 4-9 8-14 8-4 1-7 3-7 7 0 2-5 9-6 9l-4 2-3 2 2 1c3 1 4 4 2 4l-1 1-2 2-2 1h-3l-5 1c-4 2-14 14-12 14l-4 2c-2 0-2-1-2-5zm24-19-2-1-1 1 2 1 1-1zm18 20c-1-2 0-3 2-3l4-3c3-2 6-1 4 1-1 2-8 6-9 6l-1-1zm38-3c-1-2 0-3 2-3l1 1c0 2-2 3-3 2zm-41-3c-1-1-1-2 3-6l6-8c3-4 5-6 7-4 1 2-4 9-9 14s-6 5-7 4zm-14-2c0-2 4-4 6-4s2 0 2 2 0 2-5 3l-3-1zm60-1c-1-2 1-4 6-4 4-1 5-1 6-4l2-5 5-8 6-8c1-2 4-3 8-2 3 0 3 3 0 3l-4 3-7 8c-4 4-4 6-4 8 0 5-2 6-9 9-7 2-8 2-9 0zm-49-15c0-1 1-2 3-2l2-2c0-2 6-8 8-7 3 0 3 2 0 3l-3 3c-1 4-10 9-10 5zm24-2c-8-1-5-4 4-5 2 0 4-1 5-3s4-3 6-3c8-3 9-5 9-17 1-2 4 0 6 2 0 2 2 3 3 3 4 1 3 4-1 7-6 4-13 9-15 9s-4 2-4 4c0 3-1 4-4 2h-3l-2 1h-4zm51-19c-1-2 3-6 6-5 3 0 3 2-1 4-4 3-4 3-5 1zm7-9c0-2 2-3 4-2l1 2c0 2-4 2-5 0zm-21-3c-1-1 1-5 3-5 1 0 2 3 0 5-1 2-2 2-3 0zm-10-1 2-1 1 1-1 1-2-1zm36 0c-2-2-1-5 2-5s3 3 2 5h-4zm-33-4c0-3 6-8 10-8l4-1h3l-2 4c-3 3-4 4-6 3-2 0-3 0-4 2-1 3-5 3-5 0zm39-2v-3c0-2 2-2 3 0 1 1-2 4-3 3zm4-7 2-3 3-2c0-1 4-5 5-4 2 1 1 4-3 7-4 4-8 5-7 2zm-23-1c-2-2 3-7 5-6s2 5 0 6c-3 2-4 2-5 0zm-16-5c0-1 6-8 7-7s-3 8-5 8l-2-1zm-27-1c-3-1-6-5-4-6s10 3 10 5-3 3-6 1zm55-3c0-2 5-5 8-5 2 0 3 0 3-2 0-3 3-6 7-7 5-1 5 1 0 6l-5 6-4 2-7 1-2-1zm24-5c0-1 0-2 3-2 2 0 3 1 3 2l-4 2c-2 0-2 0-2-2zm-45 0v-4c0-2 0-3 2-4 3-1 3 0 2 4s-2 5-4 4zm10-6c0-1-1-2-3-2s-2-1 1-7c2-4 4-6 6-7h4l-2 2c-2 1-3 5-1 6l2-2 2-3c2 0 3-1 1-4-1-2-1-2 1-3l4-3c3-3 5-1 5 3 0 2-1 4-4 7l-4 3-3 3-3 3c-2 0-2 1-2 2l-2 3c-1 1-2 1-2-1zm-23-2c-4-3-5-8-2-8 2 0 10 9 9 10-1 2-3 2-7-2zm58-5a1 1 0 0 1 2 0 1 1 0 0 1-2 0zm-130-1c1-2 9-5 10-4l-2 3c-3 3-8 3-8 1zm19-1c-4-2-4-4-1-4s8 3 8 5-1 2-7-1zm20 2c-2-2-1-3 3-3l3 2c-1 1-5 2-6 1zm96-4 2-1 1 1-1 1-2-1zm-88-1 1-3c2-2 2-2 4-1 3 2 3 3 0 3l-2 1c-1 2-2 2-3 0zm17 0v-3c2-1 5 1 4 3s-2 2-4 0zm-76-1h-2l3-2c3-1 8 0 8 2h-9zm40 1c-1-2-1-4 1-4 3 0 6 2 6 3-1 1-6 2-7 1zm13-1v-1c1-1 3 0 3 1 0 2-2 2-3 0zm-37-2c1-2 2-2 5-3 7-1 6 2-2 4l-3-1zm25-4 1-3c1-3 3-2 3 1 0 2-1 3-3 3-1 0-2 0-1-1zm28-2c-3-2-4-6-2-6l3 4 3 3 1 1c0 2-2 1-5-2zm-71-1c-9-2-11-3-28-2l-19-1c-3-1 0-3 6-4a182 182 0 0 1 48 5c5 2 11 2 13 0s7-2 7 0-9 4-14 4l-13-2zm40 0c-1-1 0-3 1-3l1 2c0 1-1 2-2 1zm90-4c0-3 2-7 5-9l4-2c3 0 2 3-1 5l-5 5c-1 3-3 4-3 1zm-102-1v-3c0-2 2-2 6-2 2 0 2-1 3-5 0-6 1-6 2-5 2 1 2 5 0 9l-4 4c-2 0-3 1-3 2-1 1-3 2-4 0zm111 1c-2-1-2-3 0-5 3-2 5-8 5-17 1-13 1-14 5-18 3-4 4-4 6-3l6 4c3 3 3 4 3 13v11h5l4 1v2l-3 3h-5c-2-2-2-2-5 1-2 2-2 3-4 1l-5-2c-4 0-5 0-5 3-1 3-5 6-7 6zm10-16c0-2-1-2-1 0v3l1-3zm11 1c0-3-2-4-5-3-2 1-2 3 1 4 3 2 4 1 4-1zm-4-8-1-2c-1-2-3 0-2 2 1 1 3 2 3 0zm5-5c0-5-1-6-2-6-3-1-4 0-4 3 0 2 0 2 1 1 2-1 2-1 2 1 0 4 1 6 2 6l1-5zm-111 27c-1-1-2-3-2-7-1-5-1-6-4-7s-4-4-1-4l6 2 3 2 1-2c0-3 1-3 4-2 5 1 6 2 5 7-1 6-2 7-4 4-2-4-4-3-4 0l-2 7h-2zm13-2v-5c2-1 5 2 4 4-1 1-3 2-4 1zm112-6c0-1 5-8 7-8v7l-4 2-3-1zm30-8c-2-2-2-2-1-4l7-1h5c-1-2 1-3 2-2v3l-2 2c0 3-8 4-11 2zm-21-1c0-2 2-3 3-2 1 0 0 3-2 3l-1-1zm8 0c-3 0-3-1 0-2 3-3 8-1 7 2h-7zm29-9c0-1 4-6 7-6 2 0 3-5 1-8-1-1 0-3 1-7 2-3 3-4 6-5 4-1 6 0 6 3 0 2 0 2-3 2h-4l2 2c2 0 2 3 0 4-1 1-2 2-1 6 0 4 0 4-3 6h-3l-2 2c-2 2-7 3-7 1zm23-26c-1-1-1-4 1-7l2-4 2-1c1-1 3-2 3-4 1-1 2-3 4-3 3-1 4-3 6-8s4-6 6-7 4-2 5-5c2-4 7-10 9-10l5-2c2-2 2-3 2-6 0-4 2-10 3-9l-1 5v12c0 4-1 4-3 4l-3 1-3 1-3 4-4 4c-3 0-6 4-9 11-2 7-5 10-8 10l-2 1c0 2-2 3-3 4l-2 4-6 6-1-1z"/>
</svg>
