<?xml version="1.0" encoding="utf-8"?>
<svg xmlns="http://www.w3.org/2000/svg" version="1.1" viewBox="0 0 798 377">
	<title>Sketch showing a deep gorge, labeled Grimsel Pass. A glacier is marked with a dotted line, label, and arrow. The Rhone is labeled with an arrow pointing to the lowest point in the gorge. Along the top of the page is a dotted line going up and down and labeled Furka Pass.</title>
	<path d="m300.17 376.7c-0.53567-0.33157-1.7762-2.6298-2.7568-5.1072-0.98055-2.4774-2.484-5.0534-3.341-5.7245-0.85697-0.67108-2.7794-1.2345-4.2722-1.252l-2.714-0.0319-7.7067-8.2749-4.4332-0.77806c-2.4383-0.42793-8.0272-1.5599-12.42-2.5154l-7.9866-1.7373-3.67-2.4324c-2.0185-1.3378-7.131-3.2987-11.361-4.3575l-7.6913-1.925-2.7251-2.2611c-1.4988-1.2436-4.2267-3.3879-6.0619-4.7652-1.8352-1.3772-3.8794-3.0384-4.5426-3.6915s-4.1408-2.7469-7.7279-4.6529c-8.0181-4.2603-16.751-10.691-16.751-12.335 0-0.67161-0.85856-1.494-1.9079-1.8276-1.8421-0.58555-7.0191-6.8318-12.405-14.967l-2.5949-3.9196-9.5867-5.1857-1.2313-3.7642c-0.67719-2.0703-2.254-5.2245-3.5039-7.0094-1.25-1.7849-4.3996-5.6361-6.9991-8.5583l-4.7265-5.3131-1.0958-4.2022c-1.0759-4.1259-1.5971-5.2748-6.845-15.087l-2.6074-4.8752-3.579-2.2909c-1.9685-1.26-5.6748-4.1076-8.2363-6.328-2.5615-2.2204-5.9527-4.8036-7.5361-5.7403s-3.6362-2.9874-4.5619-4.5569-3.5744-4.1646-5.8859-5.7668c-2.3116-1.6022-5.2425-4.1229-6.5133-5.6014-3.0603-3.5608-5.5798-8.1443-7.1738-13.051-0.71586-2.2036-3.5487-7.0479-6.2952-10.765l-4.9936-6.7587-5.1144-3.1361c-2.8129-1.7249-7.5423-5.6697-10.51-8.7663l-5.3954-5.6302-5.5824-12.422-9.9212-5.0353-2.1815-3.5352c-1.1998-1.9443-2.7399-3.876-3.4223-4.2926-0.68248-0.41658-2.9292-3.2364-4.9926-6.2663-2.0635-3.0299-4.8278-7.0864-6.143-9.0146-7.3092-10.715-13.025-17.568-22.22-26.64-5.6378-5.5622-10.251-10.585-10.251-11.161 0-1.7193 3.1381-2.3941 4.7856-1.029 3.6405 3.0165 15.968 15.705 18.716 19.264 1.6501 2.1372 4.9037 6.0665 7.2303 8.7318 2.3265 2.6653 4.9773 6.306 5.8906 8.0905 1.85 3.6148 3.4988 5.7773 12.975 17.017 3.5994 4.2694 7.1042 7.7625 7.7884 7.7625 2.2407 0 6.4356 5.3835 9.4492 12.127l2.9576 6.6176 7.2411 5.4017c7.472 5.574 10.227 8.0494 15.611 14.028 3.1234 3.4681 7.3619 10.546 7.3619 12.293 0 0.50413 1.1967 3.3664 2.6594 6.3606l2.6594 5.444 6.6497 5.3811c3.6573 2.9596 7.262 6.5269 8.0103 7.9273s2.0092 2.5462 2.8019 2.5462c0.79273 0 3.5294 2.0388 6.0814 4.5308 7.7895 7.606 8.5663 8.2485 10.776 8.9124 1.1746 0.35292 3.3122 2.3421 4.7503 4.4205 1.438 2.0784 2.6146 4.1023 2.6146 4.4976s1.0775 2.3994 2.3945 4.4534c1.317 2.054 2.6899 5.4378 3.0509 7.5195 0.361 2.0817 1.5256 5.2605 2.5881 7.0641 1.0625 1.8036 3.9395 5.3778 6.3933 7.9428 2.4538 2.565 5.7245 7.3818 7.2681 10.704 1.5436 3.3223 3.3204 6.0453 3.9484 6.051 0.62805 6e-3 3.4807 2.1165 6.3392 4.6905 2.8585 2.574 6.5701 7.1164 8.248 10.094 1.6779 2.9777 4.0006 5.7909 5.1615 6.2517 1.1609 0.46075 3.7284 2.4373 5.7054 4.3923 1.977 1.955 5.9717 5.1567 8.877 7.1148l5.2824 3.5603 2.5029-2.0805 0.49198 1.8842c0.27058 1.0363 2.9132 3.5055 5.8725 5.4871 2.9593 1.9816 6.5108 4.6363 7.8922 5.8994 1.3814 1.2631 3.2262 2.8587 4.0994 3.5458 0.87327 0.68712 3.9121 1.6908 6.7529 2.2304 2.8408 0.5396 8.4215 2.5437 12.402 4.4535 6.5345 3.1356 14.078 5.3748 23.654 7.0211 1.8792 0.3231 4.9181 1.7344 6.7531 3.1362 1.835 1.4018 4.7978 3.0582 6.5839 3.6809 1.7861 0.62268 4.6564 1.9638 6.3783 2.9802l3.1309 1.8481 0.6253 3.1314c0.34392 1.7222 1.1278 3.7377 1.7419 4.4788 0.61412 0.74112 1.9411 1.3475 2.9489 1.3475h1.8324l1.3235-7.0656 1.818-0.97448c0.9999-0.53595 3.0044-0.97447 4.4545-0.97447h2.6365l9.3594-7.8407 4.5003-1.1593c6.0793-1.5661 12.333-4.6269 14.616-7.1537 2.7085-2.9975 6.7898-4.8799 10.585-4.8824l3.2999-2e-3 9.0964-4.7556c5.003-2.6156 10.184-5.657 11.514-6.7588s4.0883-4.3025 6.1305-7.1126c2.0422-2.8102 5.5144-6.3033 7.716-7.7625l4.0029-2.6532h7.1098l9.6446-4.8949 1.0635-2.811c0.58492-1.5461 1.3121-3.9646 1.616-5.3746 0.76636-3.5556 4.7273-9.2054 7.3836-10.532 1.2173-0.60782 3.0039-1.79 3.9702-2.627 0.96634-0.83703 5.3572-2.7667 9.7575-4.2881 7.2856-2.519 17.72-7.9198 21.506-11.131 0.82762-0.70206 4.6528-2.8716 8.5005-4.8213s8.1466-4.5879 9.5533-5.8628c1.4066-1.2749 3.592-4.4582 4.8563-7.0741l2.2988-4.7561 5.6443-3.7876c3.1044-2.0832 7.2194-4.3934 9.1445-5.1338 1.9251-0.74042 3.9277-1.7247 4.4503-2.1873 0.52253-0.46258 1.7953-0.84107 2.8283-0.84107 3.0684 0 16.073-6.7139 18.842-9.7282l2.5656-2.792 1.2165-6.0097c0.66914-3.3053 1.7052-7.2746 2.3024-8.8207l1.0859-2.811 4.683-2.3768c2.5758-1.3072 5.9166-3.9965 7.4241-5.9761 4.1419-5.4388 7.0322-8.081 10.342-9.4539 1.6479-0.68361 3.616-2.4032 4.3738-3.8212l1.3778-2.5783 8.5125-3.6546v-1.4271c0-0.78487 0.83075-2.4545 1.8461-3.7103l1.846-2.2833 10.809-3.3478 1.8813-3.4155c2.0447-3.7121 8.687-9.186 12.643-10.419 1.3625-0.42453 3.6022-1.5485 4.9773-2.4976s3.6276-1.9978 5.0056-2.3302c1.3779-0.33242 5.2031-2.5868 8.5005-5.0098 3.2973-2.423 7.3451-4.8705 8.9952-5.4389s5.7003-2.567 9.0005-4.4412l6.0004-3.4076 1.3712-2.8534c0.75414-1.5694 1.9949-5.5314 2.7573-8.8044 0.76235-3.2731 2.6842-7.8406 4.2708-10.15 1.5865-2.3096 3.6304-5.9919 4.542-8.1831 0.91156-2.1911 3.1281-5.5614 4.9256-7.4896 1.7974-1.9281 5.0382-5.9064 7.2015-8.8407l3.9334-5.3351 6.8055-3.4291c3.7429-1.886 7.6263-3.4291 8.6296-3.4291s4.2424-1.1088 7.198-2.464l5.3737-2.464 4.0597-4.2969c2.2328-2.3633 5.2484-5.9296 6.7013-7.925l2.6414-3.6281 7.297-2.3228c4.0133-1.2775 8.0224-2.9261 8.9089-3.6636 0.88655-0.73745 4.0905-1.7449 7.12-2.2387 8.0454-1.3114 13.769-2.9945 13.769-4.0486 0-0.50755 1.8433-1.4759 4.0961-2.1519l4.096-1.2291 0.95575-2.5671c0.52563-1.4119 2.682-4.37 4.7917-6.5736 7.2175-7.5385 20.082-20.03 23.525-22.843 3.1705-2.5902 8.2372-4.7018 11.282-4.7018 1.7562 0 1.567 3.1171-0.35622 5.8671l-1.6129 2.3063-4.5292-1.1385-3.8729 2.9394c-8.403 6.3774-9.3734 7.2479-9.3734 8.4088 0 0.66177-1.2376 2.39-2.7502 3.8406-1.5126 1.4506-4.2268 4.5933-6.0318 6.9839-6.9499 9.2053-8.4421 10.857-9.8081 10.857-0.77615 0-1.2987 0.55271-1.1612 1.2282l0.25001 1.2282-2.5001 0.29093c-1.3751 0.16001-4.3003 1.1405-6.5004 2.1789s-6.9254 2.4167-10.501 3.0629c-3.5752 0.64624-8.9755 2.2222-12.001 3.5022s-6.8542 2.8335-8.509 3.4522c-3.6139 1.3512-8.7136 5.9639-11.138 10.074l-1.7645 2.9918-7.0453 3.4611c-3.8749 1.9036-9.9706 4.4481-13.546 5.6544s-8.3667 3.6007-10.648 5.3209c-2.281 1.7202-5.378 5.0716-6.8821 7.4476s-4.2861 6.1798-6.1823 8.4529c-1.8961 2.2731-4.5284 6.2691-5.8494 8.8799s-3.9585 9.3405-5.8614 14.955c-1.9028 5.6143-4.3558 11.044-5.4512 12.066-1.0953 1.022-4.385 3.1614-7.3102 4.7541-12.162 6.6218-15.46 8.5893-18.146 10.826-1.5548 1.2947-3.2996 2.3539-3.8773 2.3539-0.57774 0-4.481 1.66-8.6738 3.6888s-9.536 5.2382-11.874 7.132l-4.2502 3.4431v1.8595c0 1.0227-1.1159 2.5918-2.4798 3.4869-1.364 0.89508-4.384 2.0559-6.711 2.5796-2.3271 0.52368-4.8114 1.4345-5.5206 2.024-0.70915 0.58949-1.2895 1.8395-1.2895 2.7778 0 1.9416-3.996 6.0616-5.8794 6.0616-0.68754 0-2.4111 1.3818-3.83 3.0708-1.4189 1.6889-4.2026 3.7388-6.1858 4.5553l-3.606 1.4845-3.5002 4.5448c-1.9251 2.4996-5.8748 6.0859-8.7769 7.9695l-5.2768 3.4246-1.0473 2.7499c-0.57603 1.5125-1.3151 5.0029-1.6424 7.7565l-0.59503 5.0066-5.4658 5.26c-3.0063 2.893-5.89 5.26-6.4086 5.26-1.3338 0-25.795 10.791-28.531 12.586-2.5856 1.6968-7.2603 8.6889-7.2603 10.859 0 1.9868-5.7374 6.5128-12.706 10.023-3.1872 1.6056-9.6202 5.4843-14.295 8.6194-4.6753 3.1351-9.6256 5.9592-11.001 6.2757-4.3251 0.99562-12.415 3.7842-14.589 5.0289-1.1484 0.65751-3.6799 2.221-5.6255 3.4743l-3.5374 2.2788-2.125 5.837c-1.1687 3.2103-2.125 6.5096-2.125 7.3317 0 0.82212-0.78755 2.1852-1.7501 3.029-2.8906 2.5341-11.433 5.8823-16.599 6.506l-4.8478 0.58533-3.3993 3.605c-1.8696 1.9827-5.9868 6.2438-9.1493 9.4689l-5.75 5.864-9.5043 4.5161c-5.2274 2.4839-11.754 4.8404-14.505 5.2368l-5.0003 0.72065-7.1259 6.8579-6.9377 2.2619c-3.8157 1.2441-7.2122 2.2554-7.5478 2.2474-0.33559-8e-3 -2.2795 1.5623-4.3198 3.4895-2.0403 1.9272-4.9159 3.7584-6.3903 4.0693-1.4744 0.31089-3.6932 0.77093-4.9308 1.0223l-2.2501 0.45703v2.8631c0 1.5747-0.56253 3.3086-1.2501 3.853-1.6238 1.2858-6.3458 2.1281-7.595 1.3549zm3.5052-16.873c-0.25175-0.41317-0.95407-2.605-1.5607-4.8707-0.60665-2.2657-2.2532-5.817-3.659-7.8918l-2.556-3.7723 0.56933-1.4859 0.56932-1.486 1.5924 1.3237c0.87584 0.72801 2.0419 2.469 2.5913 3.8689l0.99887 2.5452 0.78626-2.0409c0.43243-1.1225 1.1084-10.588 1.5021-21.034 0.39375-10.446 1.0061-23.62 1.3609-29.275l0.64498-10.282 2.0001 0.53239-0.28813 20.533c-0.15847 11.293-0.78098 25.394-1.3833 31.334-0.60236 5.9405-0.83614 11.06-0.51949 11.377 0.31664 0.31714 1.9087-0.37401 3.5378-1.5359 3.155-2.25 6.1536-2.7793 6.1536-1.0861 0 0.56452-1.0777 1.4368-2.3949 1.9384l-2.3949 0.91196-2.7228 5.5738c-2.5876 5.297-3.8005 6.5086-4.8278 4.8225zm-126-29.965c-0.36669-0.36726-0.66671-1.2991-0.66671-2.0707v-1.403l3.8907 1.2368-0.54308-3.3518-0.54307-3.3518 1.5499-1.2883 1.5499-1.2883 2.0481 0.65106c1.1265 0.35807 2.0481 1.3493 2.0481 2.2028v1.5517l-3.9339-1.0303 1.2056 8.8096h-2.9694c-1.6332 0-3.2695-0.30048-3.6361-0.66774zm117.01-6.0097c-1.1507-1.1525-0.72828-2.3371 0.83338-2.3371 0.82505 0 1.5001 0.67609 1.5001 1.5024 0 1.5641-1.1828 1.9872-2.3335 0.83468zm-127.6-5.7536-1.1711-1.4132 0.95838-0.59324c0.5271-0.32628 1.7464-0.29038 2.7095 0.0798l1.7511 0.673-1.1362-4.3517 3.439-4.2536 2.188 0.69554c1.2034 0.38256 2.1881 1.2991 2.1881 2.0367v1.3412l-4.0002-1.0477v8.2466h-2.8777c-1.5827 0-3.4047-0.63597-4.0488-1.4132zm123.52-2.4588c-0.4308-0.69813-0.51319-1.5398-0.1831-1.8704 0.89502-0.8964 1.8709 0.42198 1.3875 1.8745l-0.42111 1.2653zm-129.97-8.5374-0.59974-2.3933-5.5177-1.4841 8.5789-3.8556 1.9609 0.62334c1.0785 0.34283 1.9609 1.2914 1.9609 2.108 0 2.4512-2.9532 7.3949-4.4175 7.3949-0.75129 0-1.6359-1.077-1.9657-2.3933zm121.02-0.86198c-0.33166-1.2395-0.60916-2.5917-0.61667-3.0048-8e-3 -0.41317 0.64556-0.75121 1.4512-0.75121 1.4572 0 3.5354 2.9052 3.5354 4.9422 0 0.58711-0.84757 1.0675-1.8835 1.0675h-1.8835zm-15.431-5.9596c-0.66004-0.66107-1.2001-1.7879-1.2001-2.504 0-1.6337 2.2109-1.692 3.8002-0.10016 1.5894 1.5918 1.5312 3.8061-0.1 3.8061-0.71505 0-1.8401-0.54087-2.5002-1.2019zm6.5016-0.4328c-0.3857-0.3863-0.70128-1.3033-0.70128-2.0378v-1.3355h5.147l-0.33483 1.7413c-0.35059 1.8233-2.9067 2.8381-4.1108 1.632zm-118.71-4.375c-0.82505-0.53402-2.6627-0.97784-4.0836-0.98628-1.4209-8e-3 -2.8663-0.29857-3.2119-0.64475s0.92943-2.5336 2.8335-4.8608c1.9041-2.3273 3.4619-4.7484 3.4619-5.3803 0-2.2475 2.8394-1.0959 5.8968 2.3916l3.1038 3.5405v5.7257l-1.5819 0.60797c-2.2718 0.87315-4.6906 0.72481-6.4186-0.39365zm4.5596-3.101c0.37257-0.60375-0.0283-1.8045-0.89085-2.6684l-1.5682-1.5707-3.1252 2.5977 1.1348 1.3695c1.3662 1.6487 3.5187 1.7802 4.4495 0.2718zm101.45-0.9055c0-0.55089 0.42346-1.0016 0.94103-1.0016s1.2192 0.45073 1.5591 1.0016l0.61806 1.0016h-1.5591c-0.85751 0-1.5591-0.45073-1.5591-1.0016zm-49.699-2.2536c-0.51762-0.68861-1.0204-2.5247-1.1174-4.0802-0.0969-1.5555-0.85361-3.7968-1.6815-4.9805-0.82784-1.1838-1.5052-2.9535-1.5052-3.9327 0-0.9792 0.62328-1.7804 1.3851-1.7804 0.76178 0 2.1538 1.175 3.0933 2.6111l1.7082 2.6111 1.0748-1.0765c1.0683-1.07 2.1353-3.6181 5.9302-14.162 1.0905-3.0299 5.3619-12.495 9.4919-21.034 4.13-8.5388 8.1444-17.328 8.9208-19.532 0.77639-2.2036 1.8449-4.9079 2.3745-6.0097 0.5296-1.1018 2.2921-5.4212 3.9166-9.5987 1.6246-4.1775 3.8883-9.2619 5.0305-11.299 1.1422-2.0368 2.091-4.2529 2.1085-4.9247 0.0175-0.67186 0.69423-2.0988 1.5038-3.171l1.472-1.9494 1.1761 1.178 1.1761 1.178-1.0994 2.2739c-5.5979 11.578-11.008 24.096-13.969 32.322-1.3882 3.8562-2.913 7.4976-3.3885 8.0919-0.47545 0.59431-2.0295 4.2001-3.4534 8.0129-1.4239 3.8128-3.1505 7.8338-3.8367 8.9356s-2.3046 4.6493-3.5962 7.8835l-2.3484 5.8802 1.1652 1.8687c0.64086 1.0278 1.1652 2.3256 1.1652 2.8839 0 0.55836-1.2627 1.0152-2.806 1.0152h-2.806l-6.3368 15.205 10.137-1.3963-0.34994 1.8199-0.34994 1.8199-2.9941 0.62348c-1.6468 0.3429-4.4344 1.375-6.1947 2.2935-1.7603 0.91849-3.3928 1.67-3.6278 1.67-0.23497 0-0.85075-0.5634-1.3684-1.252zm40.407-0.37508c-0.38989-0.3905-0.70889-1.3409-0.70889-2.112v-1.402l5.5003 0.63386v1.5024c0 0.82633-0.91857 1.6341-2.0413 1.7951s-2.3603-0.0268-2.7502-0.41733zm-15.51-4.5829c-1.5234-1.5258-1.5497-4.4731-0.0483-5.4025l1.1518-0.71294 1.2086 1.6554c0.66473 0.9105 2.0816 1.6554 3.1485 1.6554 1.9717 0 4.34 1.749 4.34 3.2052 0 1.2743-8.4741 0.9279-9.8006-0.40064zm-5.8203-10.269c-0.30649-0.79996-0.27796-1.9071 0.0634-2.4603 0.96632-1.566 3.5568-0.0958 3.5568 2.0187v1.8961h-1.5315c-0.84232 0-1.7822-0.6545-2.0887-1.4544zm-108.35-9.2432c-1.1203-1.4265-2.0369-3.1699-2.0369-3.8742 0-0.70439 1.8895-2.6724 4.199-4.3735l4.199-3.0928 0.99938 1.0009 0.99939 1.001-6.7462 6.9712 1.7181 1.9015 1.7181 1.9015-3.0129 1.158zm77.498-3.2756c-0.3615-0.58583 0.0136-1.323 0.83347-1.6381 2.1181-0.81406 6.1365-0.10167 6.1365 1.0879 0 1.3807-6.1575 1.8668-6.97 0.55019zm12.916-0.13665c-0.36956-0.5989-0.19018-1.5714 0.39862-2.1611l1.0706-1.0722 1.5425 1.2821c0.84836 0.70517 1.5425 1.6777 1.5425 2.1611 0 1.2603-3.7536 1.0873-4.5541-0.20991zm148.81 0.38202-2.2501-0.43407v-10.928l2.6714-1.0172c1.4692-0.55948 3.3446-0.88637 4.1674-0.72642 0.8228 0.15995 1.6696 0.81317 1.8819 1.4516l0.38586 1.1608-3.0532 0.67163c-1.6792 0.3694-3.0532 1.0865-3.0532 1.5937 0 0.50711 1.3501 0.92203 3.0002 0.92203 1.6501 0 3.0002 0.45073 3.0002 1.0016 0 0.55088-1.1251 1.0016-2.5002 1.0016-1.3751 0-2.5001 0.43487-2.5001 0.96638s0.90005 1.4488 2.0001 2.0385c1.1001 0.58965 2.0001 1.507 2.0001 2.0385 0 0.97705-1.6457 1.0513-5.7503 0.25951zm-12.071-1.9414-0.98584-1.7643-1.5078 1.2533c-0.82931 0.68933-1.7277 0.89341-1.9963 0.45349-0.51847-0.84896-0.98536-4.9674-0.80035-7.06 0.16716-1.8906 2.5745-1.5026 4.6025 0.74189l1.8017 1.9939 2.5576-3.487 1.1151 2.926c0.61331 1.6093 0.97986 3.6375 0.81454 4.5073s-1.2714 1.7205-2.4579 1.8906l-2.1574 0.30923zm-18.98-1.5585c-0.66003-0.66107-1.2001-2.2386-1.2001-3.5057 0-2.7464 3.2758-6.3102 5.8004-6.3102 0.99006 0 2.3401 0.54088 3.0002 1.2019 0.66004 0.66107 1.2001 2.1536 1.2001 3.3168 0 2.6274-3.4786 6.499-5.8393 6.499-0.96863 0-2.3012-0.54087-2.9612-1.2019zm5.3003-3.8061c0-1.2854-0.56229-2.5248-1.2495-2.7543-1.5332-0.51185-2.6848 2.1796-1.8571 4.34 0.87977 2.2962 3.1066 1.1595 3.1066-1.5857zm-45.99 3.0254c-0.33294-0.53956-0.083-2.7271 0.55536-4.8611l1.1607-3.8801-1.1218-5.2387c-0.61697-2.8813-0.93423-5.5391-0.70501-5.9062 0.22921-0.36714 3.0452-0.66751 6.2577-0.66751h5.841l0.24674 8.9534 0.24675 8.9534 1.245 0.77064 1.245 0.77065-1.2692 1.2712-1.2692 1.2712-3.4452-2.1781v-8.7946l-4.5003-0.64014v2.2522c0 2.8149-2.1488 8.9049-3.1421 8.9049-0.40707 0-1.0126-0.44145-1.3455-0.98101zm8.9878-16.033c0-1.7831-3.2987-2.6194-4.7194-1.1965-1.4932 1.4955 0.0916 3.3457 2.5636 2.9929l2.1558-0.30768zm22.189 16.367c-0.37815-0.37874-0.68754-2.191-0.68754-4.0273v-3.3387h-3.0002v6.1766l-2.4964-0.83343-0.78822-5.426c-0.91706-6.3131-0.60608-11.436 0.69423-11.436 0.50039 0 1.4029 1.7603 2.0056 3.9118l1.0958 3.9118 1.8753 0.27567c1.0314 0.15161 2.2307 0.64494 2.665 1.0963 0.43435 0.45134 0.9268 2.8151 1.0943 5.2528l0.30462 4.4322-1.0375 0.34638c-0.57065 0.19052-1.3469 0.0366-1.7251-0.34222zm-127.03-5.029c-1.0347-1.0363-0.78523-6.3436 0.29817-6.3436 1.1869 0 3.0354 3.3148 3.0354 5.443 0 1.5778-2.0928 2.1432-3.3335 0.90053zm-86.637-2.2713c-0.56939-1.0656-1.0352-3.0199-1.0352-4.343v-2.4056l4.0818-3.67c2.245-2.0185 4.6504-3.67 5.3453-3.67 1.535 0 4.5738 3.2134 4.5738 4.8365 0 1.6899-1.9585 1.4455-2.6385-0.32927-0.75034-1.9584-3.3618-1.9478-3.3618 0.0136 0 0.8338 0.5455 2.3908 1.2122 3.4601 1.6022 2.5695 0.0179 4.0736-1.746 1.6576l-1.3703-1.8769-1.5481 0.595c-1.7603 0.67652-2.0319 2.2434-0.54808 3.1619 0.55004 0.34046 1.0001 1.4939 1.0001 2.5632v1.9441h-1.4649c-0.8057 0-1.9308-0.87183-2.5002-1.9374zm81.994-8.0328-1.1109-2.079 1.5863-0.6097c0.8725-0.33532 1.7492-0.44131 1.9482-0.23554 0.199 0.20579 0.51711 1.2288 0.70691 2.2735 0.1898 1.0446-0.18697 2.0862-0.83728 2.3145-0.6503 0.22834-1.6823-0.52035-2.2932-1.6638zm-93.111-7.1388-2.0815-2.0847 1.5815-1.7502c0.8698-0.96262 1.5815-2.4483 1.5815-3.3015 0-2.3563 2.5538-3.9819 5.6899-3.6218l2.8106 0.32278 0.31957 2.2536 0.31956 2.2536h-1.5696c-0.8633 0-1.5696-0.45073-1.5696-1.0016s-0.50891-1.0016-1.1309-1.0016h-1.1309l0.59832 3.6927 0.59831 3.6927-1.09 1.3154c-0.59947 0.72344-1.4849 1.3154-1.9675 1.3154-0.48269 0-1.8143-0.93813-2.9591-2.0847zm86.774 1.4378c-0.37815-0.37874-0.68754-1.3226-0.68754-2.0975v-1.4089l1.7501 0.33756c0.96256 0.18566 1.7501 0.96993 1.7501 1.7428 0 1.5814-1.7644 2.476-2.8127 1.4261zm-17.289-2.7586-0.66561-1.7372 2.2001-2.2036 1.3312 3.4745-1.1001 1.1018-1.1001 1.1018zm6.6004-0.10016v-1.5024h6.0004v3.0048h-6.0004zm-13.251-4.9c-0.96255-0.73182-1.7501-1.8443-1.7501-2.4722 0-1.791 3.5148-1.3358 5.3475 0.6925 2.6691 2.9539-0.19159 4.3691-3.5974 1.7797zm-12.565-4.6704-2.3144-0.92965 0.6233-1.0101c0.34282-0.55554 1.4068-1.0101 2.3644-1.0101 1.8057 0 4.1412 1.8076 4.1412 3.2052 0 1.0254-1.8735 0.92605-4.8145-0.25534zm-60.271-3.2002c-0.0447-0.13772-0.1717-1.4819-0.28227-2.9871-0.11056-1.5052-0.74903-3.2855-1.4188-3.9564l-1.2178-1.2197-1.2001 1.2019c-0.66004 0.66106-1.5601 1.2019-2.0001 1.2019s-0.80005-0.59177-0.80005-1.315c0-1.6171 5.1621-6.6979 6.8051-6.6979h1.1954v5.1123l3.0002 1.0475c1.6501 0.57613 3.0002 1.6009 3.0002 2.2773 0 1.5354-4.2164 5.5855-5.8148 5.5855-0.65209 0-1.2222-0.11268-1.2669-0.2504zm46.584-0.75121c-0.70157-1.1369 0.19875-3.0048 1.4483-3.0048 0.45664 0 1.8927 0.88646 3.1912 1.9699l2.3609 1.9699-3.1912 0.0334c-1.7551 0.0183-3.4693-0.41744-3.8092-0.96832zm181.08-7.5837c-0.86435-0.86568-1.5715-2.2462-1.5715-3.0678v-1.4938l-1.7501 0.17831c-0.96256 0.0981-2.1178 0.12639-2.5671 0.0629-0.44934-0.0634 0.84245-2.1436 2.8706-4.6226 2.0282-2.479 4.421-4.4929 5.3173-4.4754 2.1742 0.0425 5.1298 2.3646 5.1298 4.0302 0 0.73546-1.1937 2.5851-2.6526 4.1102l-2.6526 2.773 1.1438 1.3804c1.1056 1.3342 0.63324 2.6985-0.93417 2.6985-0.41907 0-1.4691-0.70828-2.3335-1.574zm4.4288-8.4422c0-0.55089-0.64848-1.0016-1.4411-1.0016-0.79258 0-1.7192 0.45073-2.0591 1.0016l-0.61807 1.0016h2.0591c1.1325 0 2.0591-0.45073 2.0591-1.0016zm-245.01 0.0568c0-2.0041 3.4584-5.0649 5.7229-5.0649 1.9293 0 1.5326 2.7494-0.72255 5.0081-1.1001 1.1018-2.6752 2.0032-3.5002 2.0032h-1.5001zm223.68-2.7278c-1.4213-1.4235-0.54475-4.2592 2.2392-7.2441l2.9059-3.1156 1.5944 0.61279c1.9323 0.74264 2.1142 2.4017 0.2633 2.4017-1.777 0-4.0895 4.4697-3.3334 6.4429l0.60152 1.57h-1.802c-0.99113 0-2.1021-0.30049-2.4688-0.66775zm-232.68-5.2828c0-1.0693 0.47378-2.2374 1.0529-2.5958 1.7412-1.0778 0.43272-2.9722-2.0529-2.9722-1.2779 0-2.4967-0.51367-2.7084-1.1415-0.21169-0.62782 1.2251-2.1381 3.1928-3.3561l3.5777-2.2146 2.4404 0.61344c1.3422 0.33741 2.9026 1.4784 3.4674 2.5355l1.0271 1.9221-3.4983 3.7151c-1.9241 2.0433-3.4983 4.1028-3.4983 4.5766 0 0.47384-0.67504 0.86151-1.5001 0.86151h-1.5001zm5.0753-8.3475c-0.1237-1.1976-1.4954-0.9657-1.9251 0.32553l-0.40002 1.2019 1.2001-0.40064c0.66004-0.22036 1.1663-0.72743 1.1251-1.1268zm14.395 7.2365c-0.95027-1.54 0.35137-2.5336 1.6349-1.248l1.0705 1.0722-1.0181 0.6302c-0.55995 0.34661-1.3193 0.14213-1.6874-0.45439zm-49.341-2.2952c-0.70176-0.84689-1.1309-2.762-0.95367-4.2558l0.32228-2.716 2.5208-1.8759c1.3864-1.0318 4.8834-2.25 7.771-2.7072 2.8876-0.45719 5.5777-1.1592 5.9779-1.56 0.40019-0.40082-0.50912-1.6311-2.0207-2.7339s-2.7483-2.7847-2.7483-3.7374c0-1.8982 4.1511-6.1742 7.8436-8.0796 1.2888-0.66505 3.395-0.94481 4.6803-0.6217 1.2854 0.32312 3.0436 1.2951 3.9071 2.16 0.86351 0.86485 1.57 2.8868 1.57 4.4932v2.9207l-3.7739 2.3861c-2.0756 1.3124-5.0211 4.1887-6.5456 6.3918-1.5244 2.2032-4.5625 5.4471-6.7513 7.2088-2.1888 1.7617-5.452 3.4424-7.2516 3.7349l-3.272 0.5318zm9.012-4.6547c1.644-1.6466 2.7069-3.4511 2.3619-4.0101l-0.62718-1.0164-2.6889 0.63901c-1.4789 0.35146-3.4764 1.3244-4.439 2.1622-0.96256 0.83772-1.7501 2.3547-1.7501 3.3711v1.848h2.077c1.1424 0 3.4222-1.3472 5.0662-2.9938zm13.49-14.115 3.3682-2.0849v-1.8144c0-1.6348-1.829-3.0303-3.9716-3.0303-0.44432 0-2.5013 1.5093-4.5711 3.354l-3.7633 3.354 0.71166 1.1533c0.39142 0.63432 1.6446 1.1533 2.7847 1.1533s3.5888-0.93821 5.4413-2.0849zm230.89 18.131c-0.76467-1.2392 0.68636-3.9923 3.401-6.4528 2.424-2.1971 4.1027-1.305 2.2989 1.2216-0.6694 0.93763-1.6549 2.7189-2.19 3.9584-1.0265 2.3777-2.4985 2.9115-3.5098 1.2727zm-12.314-5.2291c-1.8924-1.8954-1.4069-5.2655 1.0981-7.6226 1.264-1.1893 3.6855-2.4403 5.381-2.7799l3.0828-0.6175-1.0105 5.2943-2.0055-0.29222-2.0055-0.29224-1.1201 1.8115-1.1201 1.8115 1.7501 1.3038c0.96256 0.71708 1.7501 1.5921 1.7501 1.9446 0 1.1265-4.5553 0.68583-5.8004-0.56114zm-12.701-9.197c-2.2001-1.2645-4.1345-2.9895-4.2986-3.8332-0.36365-1.8696 5.2584-6.8017 7.7531-6.8017 0.99052 0 2.3857 0.70565 3.1003 1.5681l1.2994 1.5681-3.2588 5.5254 0.56912 2.1797c0.31301 1.1988 0.17911 2.1602-0.29756 2.1363-0.47668-0.0239-2.6668-1.0781-4.8669-2.3426zm2.5202-5.1503c0.69576-0.83965 0.98675-1.8053 0.64665-2.146-0.72634-0.72747-3.6669 1.5128-3.6669 2.7936 0 1.3797 1.6299 1.0302 3.0202-0.64765zm32.482 6.5347-0.61807-1.0016h1.5591c0.85751 0 1.5591 0.45073 1.5591 1.0016s-0.42347 1.0016-0.94104 1.0016-1.2192-0.45073-1.5591-1.0016zm-70.933-4.5788c-0.86434-0.86567-1.5715-2.4105-1.5715-3.433 0-2.4217 4.5984-6.0108 7.701-6.0108 2.8772 0 6.2998-1.6651 6.2998-3.0649 0-0.54515-1.1366-1.424-2.5258-1.953-1.3892-0.52899-2.7878-1.6456-3.108-2.4815-1.0096-2.6349 0.63252-6.7226 4.0927-10.188l3.3413-3.3465h4.6386l7.2062 7.3481-4.2392 4.4311c-2.3315 2.4371-4.772 5.8545-5.4233 7.5941-0.65129 1.7396-1.6848 4.2145-2.2966 5.4996-1.1916 2.503-8.3257 7.1787-10.953 7.1787-0.87494 0-2.298-0.70828-3.1623-1.574zm8.33-3.8292 2.2496-2.3984-1.0948-0.67769c-0.60214-0.37273-2.6611-0.15997-4.5755 0.47282l-3.4807 1.1505v3.8511h2.3258c1.2792 0 3.3382-1.0793 4.5755-2.3984zm10.052-15.079 2.301-2.4531-0.59517-1.5534-0.59516-1.5534h-6.3427l-1.3285 1.7528c-1.6895 2.2291-1.7584 4.9435-0.14206 5.5967 2.6416 1.0676 4.484 0.57558 6.7026-1.7897zm5.5863 14.534c-0.31894-0.51687 1.2871-3.6646 3.569-6.9949 2.2819-3.3304 4.7855-6.5843 5.5636-7.2311l1.4146-1.1759 1.0994 1.1011 1.0994 1.1011-3.1652 4.9401c-5.4592 8.5207-8.0444 10.749-9.5808 8.2596zm189.22-31.275c-1.5126-0.5533-2.7502-1.636-2.7502-2.4059s1.0628-1.667 2.3618-1.9936c3.4409-0.86496 8.9226-0.13531 9.3757 1.248 0.21494 0.65629-0.96562 1.8958-2.6235 2.7544-1.6579 0.85864-3.1492 1.5256-3.314 1.4821-0.16482-0.0435-1.5372-0.53178-3.0498-1.0851zm-25.502-5.3474-5.2503-2.3896v-1.4916c0-0.82039 0.84943-1.7616 1.8876-2.0916l1.8876-0.60004 4.7996 2.5559c2.6398 1.4058 5.0047 2.7613 5.2553 3.0124 0.54261 0.54347-1.7989 3.535-2.7019 3.452-0.34518-0.0317-2.9902-1.133-5.8779-2.4474zm43.007 0.72217c-0.28587-0.74614-0.12249-1.7201 0.36306-2.1644 0.48556-0.44427 2.7653-1.0431 5.0661-1.3308l4.1832-0.52305 0.59985 1.5656c0.32991 0.86108 0.24757 1.8948-0.18299 2.2971-0.43056 0.40235-2.7463 0.90715-5.1461 1.1218l-4.3633 0.39026zm20.113-3.7159c-0.32411-0.84594-0.0521-2.1863 0.60442-2.9786 1.3115-1.5827 9.2799-3.1234 10.916-2.1106 1.5358 0.95063 0.16257 3.5766-1.8703 3.5766-0.97404 0-3.4112 0.6864-5.416 1.5253l-3.645 1.5253zm21.636-6.4135c0-1.0428 0.71333-2.1702 1.5852-2.5053 0.87185-0.33507 4.0826-0.9032 7.1349-1.2625l5.5497-0.65329-0.4631 1.3915-0.46311 1.3915-4.35 0.74375c-2.3925 0.40906-4.8098 1.2043-5.3717 1.7671-1.6494 1.652-3.6219 1.1767-3.6219-0.87271zm-105.76-2.0994c-1.7876-1.0916-3.2502-2.6675-3.2502-3.5019v-1.5172h1.8001c0.99006 0 2.2276 0.41257 2.7502 0.9168 0.52253 0.50424 2.0751 1.0676 3.4502 1.252l2.5002 0.33522 0.31957 2.2536 0.31956 2.2536-2.3197-4e-3c-1.2758-2e-3 -3.7823-0.89689-5.5699-1.9885zm136.11-4.531c-0.31932-0.83336-0.025-2.1855 0.65384-3.0048 0.67894-0.81932 2.4596-1.4897 3.9571-1.4897s3.4614 0.81745 4.3642 1.8166l1.6414 1.8166-1.1864 1.1882c-0.65254 0.65355-2.9107 1.1883-5.018 1.1883h-3.8316zm22.645-3.4119c0-1.8698 4.0303-3.1953 8.7846-2.8889l4.7162 0.30389v3.0048l-13.501 0.59234zm-45.803-2.2846c-0.66003-0.66107-1.2001-1.5983-1.2001-2.0828v-0.88087l6.2506 1.375-0.82812-1.3591c-0.45546-0.74752-1.8618-2.1806-3.1253-3.1846-1.2634-1.004-2.2972-2.6943-2.2972-3.7561 0-1.0618 0.86666-2.7985 1.9259-3.8594l1.9259-1.9289 4.2455 1.112-0.3148 1.6233c-0.17314 0.89283-1.0912 1.6281-2.04 1.6339-0.94886 6e-3 -1.7581 0.23118-1.7983 0.50081-0.0402 0.26964 0.22911 1.279 0.59848 2.2431 0.36938 0.96406 1.2434 1.7528 1.9422 1.7528 1.8674 0 3.6375 2.523 2.9779 4.2446-0.31482 0.82154-1.6938 2.0055-3.0645 2.631s-2.831 1.1373-3.2452 1.1373c-0.41414 0-1.293-0.54088-1.9531-1.2019zm-135.46-1.463c-1.5126-0.79796-2.7502-2.1228-2.7502-2.944v-1.4932l3.7502 0.66768c2.0626 0.36723 4.1475 1.0334 4.633 1.4805 1.1944 1.0997-4e-3 3.9785-1.6015 3.8461-0.70481-0.0584-2.519-0.75913-4.0316-1.5571zm112.42 0.4214c-0.63807-0.63907-1.1601-1.7213-1.1601-2.4049 0-2.3089-1.9147-2.4484-4.0638-0.29597l-2.1366 2.1399-2.1495-2.1528 2.6257-5.3708c1.4442-2.954 3.2632-5.9007 4.0422-6.5482l1.4165-1.1774 1.1573 1.3966c1.3202 1.5933 3.1088 14.535 2.0954 15.163-0.36683 0.22707-1.189-0.11002-1.8271-0.7491zm-2.1602-8.7742c0-0.55089-0.19846-1.0016-0.44101-1.0016s-0.71914 0.45073-1.0591 1.0016-0.14149 1.0016 0.441 1.0016c0.5825 0 1.0591-0.45073 1.0591-1.0016zm100.5 9.0127-0.61923-1.0035 2.6254-0.99973c1.444-0.54986 4.3962-0.99974 6.5605-0.99974h3.9351v2.7544l-3.1252 0.62601c-4.6169 0.92482-8.6738 0.7615-9.3767-0.37748zm-89.81-0.63864c-1.0832-1.0849 0.31039-2.3626 2.6153-2.3977l2.1911-0.0333-2.0724-1.7359c-1.1398-0.95475-2.3276-2.7135-2.6396-3.9084l-0.56723-2.1724 2.8925-4.1361h4.8869v3.0048h-2.0001c-1.1001 0-2.0001 0.49834-2.0001 1.1074 0 0.60909 1.1234 2.4446 2.4966 4.079l2.4966 2.9716-2.0633 3.8613h-2.7983c-1.5391 0-3.0861-0.28823-3.4378-0.64051zm-30.05-1.0496c-0.34817-0.34873-0.35251-4.2892-0.01-8.7568l0.6234-8.1227-1.6299-1.3548c-0.89611-0.74516-1.6296-2.0927-1.6296-2.9945s0.95046-2.2342 2.1121-2.9608l2.1122-1.3211 9.8257 1.3535 2.8439 5.508-0.60877 2.4071c-0.33482 1.3239-1.0983 2.7382-1.6966 3.143-0.59828 0.40473-2.3365 0.74278-3.8627 0.75121l-2.7749 0.01534-1.0631 2.7544c-0.5847 1.515-1.3093 4.2303-1.6101 6.034-0.56234 3.3712-1.5185 4.6589-2.6316 3.5441zm8.9003-15.412c0.78812-1.2772-3.4543-6.1105-4.6914-5.3448-0.47007 0.29098-0.85469 1.1463-0.85469 1.9008 0 1.525 2.6587 4.5197 4.0126 4.5197 0.47829 0 1.1683-0.48409 1.5334-1.0758zm133.4 12.988-1.1279-2.1108 0.94656-0.94807c1.3315-1.3335 9.4839-3.6449 10.989-3.1158 0.68754 0.24166 1.2501 1.0779 1.2501 1.8583v1.419l-2.7502 0.0153c-1.5126 8e-3 -3.233 0.34648-3.8231 0.75121-0.59014 0.40473-1.3636 1.5246-1.7187 2.4887-0.35512 0.96406-1.0941 1.7528-1.642 1.7528-0.54794 0-1.5038-0.94984-2.1241-2.1108zm-163.56-1.3116c-0.6599-1.7223-4.3938-2.2187-4.3938-0.5841 0 0.55089-0.90005 1.0016-2.0001 1.0016s-2.0001-0.15336-2.0001-0.34083c0-0.18745 1.3852-3.1172 3.0782-6.5105l3.0782-6.1697h1.3868c0.76276 0 1.8208 0.81209 2.3512 1.8046 0.53038 0.99256 1.1088 3.9876 1.2853 6.6557l0.32093 4.851-1.2495 0.43895c-0.68725 0.24141-1.523-0.27464-1.8571-1.1468zm-14.433-1.6587-1.2244-2.2913-1.3019 1.7832c-0.71605 0.98078-1.7819 1.4861-2.3685 1.123l-1.0666-0.66022v-5.3907c0-2.9649 0.46973-5.6814 1.0439-6.0368 0.57413-0.35538 1.6101-0.17548 2.3022 0.39978 0.69207 0.57526 2.2474 0.78686 3.4564 0.47022 2.4036-0.62953 2.8888 0.56876 0.99737 2.4631l-1.2007 1.2026 1.3014 3.6045 1.3014 3.6045-2.0161 2.0193zm-78.369-1.1749c-2.1467-1.2418-3.8483-2.7085-3.7813-3.2594 0.067-0.55089 1.1953-1.1379 2.5072-1.3045 2.8233-0.35844 9.9242 3.5615 9.3913 5.1843-0.64786 1.9729-4.0885 1.7099-8.1172-0.6205zm60.748-0.30624-0.59543-1.5541-5.8576 1.2886 0.30545-5.3503 0.30546-5.3503 2.872-0.32871c1.5796-0.18079 3.3087 0.10864 3.8424 0.64318 0.53371 0.53454 1.1261 2.26 1.3164 3.8344 0.19028 1.5744 0.65131 4.102 1.0245 5.6169l0.67851 2.7544h-1.648c-0.90644 0-1.916-0.69935-2.2435-1.5541zm-1.3419-7.4604c0-0.55089-0.45002-1.0016-1.0001-1.0016-0.55003 0-1.0001 0.45073-1.0001 1.0016s0.45003 1.0016 1.0001 1.0016c0.55004 0 1.0001-0.45073 1.0001-1.0016zm-40.608 4.2569c1.5272-6.7048 2.5931-15.741 2.0565-17.434l-0.5854-1.8473-2.6828-0.01533c-1.4755-0.0084-3.354-0.44039-4.1745-0.95991l-1.4917-0.94457 2.4396-2.4434 6.982 0.18785c3.8401 0.10332 8.1523 0.63347 9.5826 1.1781l2.6006 0.99028-0.61922 1.0035c-0.34058 0.55192-2.1949 1.0035-4.1208 1.0035h-3.5016l0.31038 3.7561 0.31039 3.7561 6.6209 0.63673-0.31404 1.6333-0.31405 1.6333-6.8163 0.1032-0.75087 2.504c-0.41299 1.3772-1.0238 3.7435-1.3574 5.2585l-0.60656 2.7544h-4.1953zm19.665 1.3219-1.187-1.4325 0.31454-3.826 0.31454-3.826h3.0002l0.31039 3.7561 0.31038 3.7561h1.3327c1.5569 0 2.5468-2.1731 2.5468-5.5908v-2.4221h3.0002v2.5538c0 1.4046-0.6866 3.8836-1.5258 5.5089l-1.5258 2.9551h-2.852c-1.5686 0-3.3862-0.64464-4.0391-1.4325zm242.71 0.75253c-0.96256-0.25768-1.7501-1.1116-1.7501-1.8975v-1.429h7.1471l-0.33482 1.7413c-0.35062 1.8236-2.1116 2.375-5.0622 1.5851zm12.746-0.3287c-0.34232-0.55478 0.038-1.2626 0.84585-1.573 2.3752-0.91287 7.9701-0.02885 8.4154 1.3297l0.41033 1.252h-4.5246c-2.4886 0-4.8047-0.45391-5.147-1.0087zm-316.95-4.8941c-4.8202-1.6993-6.5845-3.362-4.7634-4.4893 1.2654-0.78325 13.559 1.5572 14.36 2.7337 1.1294 1.6596-0.27476 3.6554-2.5146 3.5743-1.1787-0.04267-4.3656-0.86112-7.082-1.8187zm-23.313-6.3637c-1.7876-0.57434-3.2502-1.6551-3.2502-2.4018v-1.3575h3.0659c1.6863 0 3.9364 0.46659 5.0003 1.0369s1.9344 1.6971 1.9344 2.504v1.4672l-1.7501-0.10225c-0.96256-0.05624-3.2127-0.57217-5.0003-1.1465zm-241.04-4.9374-1.1763-1.1781 1.0987-1.3259c1.2574-1.5175 4.463-1.7684 5.2983-0.4147 0.93514 1.5155-0.54641 4.0969-2.3514 4.0969-0.93122 0-2.2224-0.53015-2.8694-1.1781zm15.968 0.32705c-1.27-0.35825-2.2826-0.98942-2.2501-1.4026 0.0325-0.41317 0.059-1.2019 0.059-1.7528v-1.0016h10.001v1.8961c0 1.8453-1.9687 3.2141-4.332 3.0122-0.64255-0.05491-2.2074-0.39296-3.4774-0.75121zm14.868-2.5848-1.1871-1.4326 1.9671-1.0544c1.0819-0.57992 3.4246-1.1748 5.2061-1.3219l3.239-0.26747 0.442 1.2515c0.24309 0.68832-0.38298 1.51-1.3913 1.8259-1.0083 0.31595-2.6147 0.99228-3.5698 1.503-0.9551 0.51068-2.1376 0.9285-2.6277 0.9285s-1.4254-0.64466-2.0783-1.4326zm185.2 0.7257c-2.2902-0.44179-3.0458-2.6889-1.2731-3.7861 0.53734-0.33261 2.7875-0.11648 5.0003 0.4803l4.0233 1.0851v2.9276l-2.7502-0.1364c-1.5126-0.07502-3.7627-0.33173-5.0003-0.57047zm-168.99-4.0451c-0.30764-0.80295 0.0688-1.8582 0.83645-2.3451 0.7677-0.48685 2.8914-0.89209 4.7193-0.90053l3.3235-0.01533-0.66822 3.4752-7.6517 1.2457zm151.24-0.74838c-0.55003-0.18377-2.2774-0.61748-3.8385-0.96381l-2.8384-0.62969 1.2108-1.4612c1.4118-1.7037 5.2654-1.9073 8.032-0.4243 1.0639 0.57027 1.9344 1.6971 1.9344 2.504v1.4672l-1.7501-0.07908c-0.96255-0.04349-2.2001-0.22943-2.7502-0.4132zm-136.13-1.9638c-0.30649-0.79995-0.30396-1.8649 6e-3 -2.3666 0.82013-1.3291 8.9217-3.4249 11.708-3.0288 1.3128 0.18665 2.5182 1.0301 2.6786 1.8743l0.29166 1.535-6.446 1.7203c-3.5456 0.94615-6.7241 1.7203-7.0636 1.7203s-0.86805-0.65451-1.1746-1.4545zm113.14-5.602c-2.7436-0.97115-5.4337-2.4727-5.9779-3.3368l-0.98945-1.571 2.0026-2.0057 2.8447 1.4782c1.5646 0.81298 4.2541 1.8439 5.9766 2.291l3.1319 0.81282v1.8561c0 1.0209-0.45003 1.9427-1.0001 2.0487-0.55004 0.10591-3.2449-0.60202-5.9885-1.5732zm-93.517-0.88494c0-1.0624 0.73113-2.664 1.6247-3.559s2.5812-1.4906 3.7502-1.3236l2.1255 0.30371 0.2958 2.072 0.29581 2.072-2.593 1.1833c-1.4262 0.65081-3.2469 1.1833-4.046 1.1833h-1.453zm17.668-4.7458c-0.92958-0.93102-0.83454-4.1182 0.14079-4.722 0.44412-0.27491 3.1443-0.81031 6.0004-1.1898l5.1929-0.68992v3.0162l-4.9357 2.1266c-2.7146 1.1696-5.1148 2.1266-5.3336 2.1266s-0.698-0.30048-1.0647-0.66774zm52.836-5.7444-3.0002-2.4481 1.5634-0.61335c0.85987-0.33734 3.335-0.03205 5.5003 0.67844l3.9369 1.2918v2.9961l-5.0003 0.54321zm-36.502 0.43691-1.5001-0.96361 1.5001-1.4264c0.82505-0.78454 3.6377-1.7299 6.2504-2.1008l4.7503-0.67439v1.3229c0 0.72757-0.80232 1.8247-1.7829 2.4381-2.7785 1.7379-7.5636 2.4669-9.2177 1.4044zm17.715-3.6599c-1.6805-1.6831-0.3954-2.3842 4.3699-2.3842h5.0836l-0.41109 1.252-0.41107 1.252-3.9588 0.29754c-2.1773 0.16363-4.28-0.02414-4.6726-0.41734z" stroke-width="1.0008"/>
</svg>
