<?xml version="1.0" encoding="utf-8"?>
<svg xmlns="http://www.w3.org/2000/svg" version="1.1" viewBox="0 0 700 989">
	<title>Sketched elevation relief map showing the Moselle River slightly winding from the top left to bottom right. The towns of Toul, Épinal, and Remiremont are marked along the river. A dashed arrow goes through the map from top left to bottom right, captioned “To Rome” on the bottom right. A small perspective sketch of a road with a hill is also drawn on the bottom right, above the words Ballon d’Alsace.</title>
	<path d="m546.8 986.4-3-3.7a223.3 223.3 0 0 0-28.4-20.1c-2-1-2.2-2.5-.4-2.5 1.5 0 7 3.5 18.6 11.6 2.7 1.9 5.6 4 6.4 4.8 1 .8 1.6 1 1.6.7 0-1.7-14.2-12.8-21.8-17-4.4-2.6-6-4.3-3.6-4.2 2 0 13 7.3 21.7 14.4 2.9 2.3 3 1.3.2-2.2-2.5-3.2-3.1-3.6-9-6.6-2.3-1.3-4.3-2.7-4.3-3.3 0-1.4.6-1.2 4.6 1.1 4.1 2.5 5.9 2.8 3.9.7-.8-.8-2.1-1.9-3-2.4-1-.4-2.3-1.2-3-1.6-.8-.4-2-1-2.7-1.1-.7-.3-1.2-1-1.2-1.5 0-1.3 1.9-1.3 4.2 0 1 .5 2 1 2.4 1 1.2 0-1.3-2.2-4-3.5-1.4-.8-2.6-1.9-2.6-2.4 0-1.3 1.5-1.4 2.6-.3 1.8 1.8 1.8-.2 0-2a22 22 0 0 1-4.7-8.4c0-.4-1.3-2.7-2.9-4.9a46.3 46.3 0 0 1-6.2-12.1c0-.4-.3-.7-.7-.7-1.3 0-1.7 2-.7 3.8.4.9.7 2.3.6 3.3-.4 2.4-3.4 2.3-4.7-.3-1-2-3-2.6-3-.9 0 .6-.5 1-1.2 1-.6 0-2.4.9-3.8 1.8a9.9 9.9 0 0 1-3.8 1.8c-1.6 0-8.3-4.8-13.9-10-2.4-2.2-6-5-7.8-6.3-4.1-2.7-15.7-14-17.5-17-.8-1.3-4.4-5-8-8.3-10.5-9.3-20-20.6-24.2-28.6a32 32 0 0 0-6.8-6.2 383.9 383.9 0 0 1-18.4-14.3c-2.7-2.3-7.2-6.4-10-9.3a48.9 48.9 0 0 0-5.5-5.2 38 38 0 0 1-6.4-5.9l-4.5-5a20 20 0 0 1-3.4-4.2c0-.3-.7-1.4-1.6-2.4-1-1-2-2.6-2.2-3.5-.3-1-2.9-4-5.7-6.8a50.7 50.7 0 0 1-5.2-5.6c0-1.7-6.8-10-15.7-18.8L321 756a857.2 857.2 0 0 0-29.4-28.6 18 18 0 0 1-2.7-3.2c-1-1.6-3-4-4.2-5.4a91.5 91.5 0 0 1-8.6-11.5c-1-1.5-2.4-3.2-3-3.7-1.4-1-1.9-3.6-.7-3.6a48 48 0 0 0 9.8-6.1c1-.6 3-2 4.3-3.1l5-3.4a47 47 0 0 0 15.6-16 57 57 0 0 0 3.2-5.5c0-.2 1-1.8 2.4-3.6a14 14 0 0 0 2.5-4c0-.6.8-2 1.7-3 1-1.2 1.8-2.3 1.8-2.5a104.8 104.8 0 0 0 7.7-13.6c3.9-8 5.4-8.3 3.9-.8-.5 2.4-.4 2.5 1.6 3 3 .5 2.8 1.8-.3 1.8-1.6 0-2.4.3-2.4 1 0 1.1 1.5 1.8 3.9 1.8 1 0 1.7.3 1.7.7 0 .4-1.4.7-3.2.7-5 0-3.6 1.3 1.6 1.6 5.2.2 4.2.8-2.8 1.6-2.4.2-4 .7-4 1.2 0 .6 2 .8 7.5.6 10.5-.3 8.7 1.2-2.1 1.8-10.8.6-10.8 1.8 0 1.5 6-.1 8.2 0 8.4.7.2.6-.8.8-3.4.8-8.1 0-15.3.9-15.3 1.9 0 .7 1.9 1 8.7 1 5.4 0 8.8.2 8.8.6 0 .4-1.5.7-3.3.7-7.7 0-15 1-15 1.8s1.7.9 8.1.5c5.4-.2 8.1-.1 8.1.3 0 .5-3.2 1-7.9 1.2-9.1.6-10.3.9-10.3 2.2 0 1.2 1.2 1.2 10.5.3 4-.4 6.9-.3 7.3 0 .4.4.5.8.3 1-.1.2-4.2.5-9 .8a43 43 0 0 0-9.6 1.2c-2.2 1.8-.7 2 7.1 1.6 5.3-.3 8.1-.3 8.1.2 0 .4-3 .9-6.8 1.2l-8.6.5c-1.1.1-1.9.7-2 1.5-.2 1.2 0 1.3 4.7.9l10-1c4-.3 5-.2 4.7.6-.2.5-1.3 1-2.4 1-15.2 1-17.1 1.2-17.1 2.6 0 1 .4 1.2 2.8.8 3-.5 4 .7 1.4 1.5-3.4 1-1 1.8 5.8 1.7l10.3.1c5 .3 34.3-1.6 34.3-2.2 0-.3-.9-.9-2-1.3-1.6-.7-3.2-.7-6.8 0-6.5 1-39.5 1.8-39.5.8s3.8-1.4 11.9-1.5c16-.3 35.2-2 34.6-3-.4-.7-5.2-.4-19 .8-4.5.4-8.5.5-9.1.1-1.8-1 .2-1.7 5.7-2 2.7 0 6.7-.5 8.8-.9 2-.4 5.6-.7 7.8-.7 3.6 0 5.6-.8 4.6-1.8-.2-.2-3 0-6.2.4a110 110 0 0 1-21.9 1.4c-1-1 .6-1.2 12.2-2 6-.5 11.3-1.2 11.9-1.6.7-.4-.4-.5-3.8-.2-13.3 1-18.2 1.2-17.5.4.4-.5 4.5-1.1 9.1-1.5L362 668c1.5-.3 2.8 0 4 .7 1.6 1.1 1.7 1 1.7-.2 0-2.4-1.6-3-7.5-2.6L349 667c-3.7.5-6.2.5-6.6.1-1.1-1.1.8-1.6 11.6-2.6 17.4-1.6 15-1.8-9.2-.7-1.3 0-2.5-.3-2.7-.7-.2-.5 1.7-1 5.6-1.2 19.7-1.5 18-1.2 18-3 0-2.5-4-3.3-12.7-2.6-6 .5-9.3.2-8.3-.7a105 105 0 0 1 18.2-1.4c1 .3 1.4 0 1.4-.8 0-1-.5-1.2-4-.8-8 .8-12.3.8-12.6 0-.2-.6 2.3-1 7.5-1.3 4.2-.3 7.9-.8 8-1.1.4-.5-11.7-.3-14.6.2-.3.1-.7-.2-.9-.6-.2-.6 2.3-1 7.7-1.6l7.9-.7-9.1.1c-6.9.1-9.1 0-9.1-.7 0-.6 2.3-1 8.3-1.2 4.7-.2 8.7-.7 9.1-1.1.6-.6-1-.7-6-.4-5.6.3-7.4.1-9.4-.8-1.4-.7-2.3-1.6-2-2 0-.6-.3-1.3-.9-1.6-2-1.1.4-1.7 9.3-2 5-.3 8.7-.7 8.7-1.1 0-.5-2.8-.6-7.7-.4-6.6.4-7.8.2-8.7-.8-1.5-1.6-.3-2.6 3.5-3 1.9-.2 1.3-.3-2-.4-3.7-.1-4.7-.4-4.7-1.2 0-.6-.6-1-1.4-1-1.6 0-1.7-.6-.7-3 .5-1.5 1.3-1.9 4.2-2.3 2-.2 3.7-.8 3.9-1.1.2-.4 1.1-.6 2-.6 1 0 1.8-.5 2-1.4.2-.9 1.1-1.4 2.7-1.6 2.1-.3 2.2-.4.8-.9-2.5-.8-1.8-1.7 1.4-1.9h3l-3.4-.5c-4.3-.5-4.5-1.7-.3-2 1.8-.1 3.3-.5 3.3-.7 0-.3-2-.4-4.5-.3-3.9.3-4.6.1-4.6-.8 0-1 .8-1.2 4.2-1.2 2.3 0 4.4-.3 4.6-.7.4-.6-1.1-.7-5.2-.6-6.8.3-7.9-1-1.2-1.5s6.6-1.5-.2-1.3c-4.3.2-6 0-6.2-.6-.2-.5.3-.9 1-1 .7 0 0-.3-1.4-.5-3.7-.6-3.6-1.7.2-2.2 5.9-.6 1.6-1.5-5-1-4.4.3-6.2.3-6.2-.3 0-.5.4-1 .9-1l4.2-1.3a11 11 0 0 0 4.5-2.1c1-1.1 1-1.4 0-3-1.3-1.9-2.6-2.4-2.6-.9 0 1-3.3 4.7-4.2 4.7-1.4 0-.6-1.8 1.8-4.1 2.5-2.6 3.1-4.8 1.4-5.4-.9-.3-2 .1-6.9 3-.7.4-2.3 1.8-3.3 3-1.8 2-2.4 2.1-6.1 2.1-2.2 0-6.3.2-9 .5-4.6.4-4.8.3-3.8-.8.9-.9 3-1.3 9-1.6 4.3-.2 7.8-.7 7.8-1 0-.7-2.3-.7-10.2.1-6.2.7-8.8.1-6.2-1.2.7-.4 5-.9 9.5-1 4.5-.3 8.8-.8 9.5-1.3 1-.6-.1-.7-4.7-.3-3.3.2-7.3.5-9 .8-2.4.3-3 .2-3-.8 0-.8.7-1.1 2.4-1.1 1.2 0 2.9-.4 3.6-.7 1.2-.6 1-.6-.8-.4-1.3.2-2.5 0-3-.6-.6-.7.9-1 8.2-1.7l11.7-1.1c1.6-.1-1.3-.1-6.4 0-8 .3-9.3.2-9.3-.7 0-.8.8-1 3.1-1 1.8 0 3.2-.3 3.2-.6 0-.4-.7-.6-1.6-.6-3.2 0-1.8-1.4 1.6-1.6 2 0 3.5-.5 3.5-.8 0-.4-.5-.7-1.1-.7-2.5 0-.3-1.8 2.4-2 4-.3 3.7-1.4-.4-1.6-3.7-.3-4.6-1.5-1.3-1.9a14 14 0 0 0 3.2-.6c.6-.2 2.5-.5 4.2-.6 5-.2 11.2-1.2 11.6-1.8.2-.3 0-.6-.5-.7-3-.2-9.7.3-17.4 1.2l-9.3 1c-1.1 0-.4-1.2 1-2 1.4-.7 1.2-.8-1.5-.6-2.7 0-3.2 0-3.2-1.3 0-1.1.5-1.4 2.8-1.5 7.9-.3 24.1-1.7 26-2.3a131 131 0 0 0-24 .7c-1.8.3-3.2.2-3.5-.2-.6-1 .3-1.5 3.7-1.9 4-.5 4-1.8 0-1.5-2.3.1-3.1 0-3.5-1-.2-.5-.9-1-1.4-1-.6 0-1.1-.5-1.1-1 0-1 2.9-1.8 6-1.8 1 0 1.6-.3 1.3-.7-.2-.4-1.8-.7-3.5-.7-2.3 0-3.1-.3-3.1-1 0-.8.7-1.1 2.4-1.1 1.4 0 2.5-.4 2.5-.8 0-1-7.7-.4-9.9.8-1 .6-1.7.5-2.4 0-1.7-1.5.1-2.8 3.8-3a29 29 0 0 0 5.3-.6c1.2-.3-.7-.3-4.5-.1a34 34 0 0 0-7.9 1c-2 1-4.5-.7-2.6-1.9.4-.2 4-.8 7.8-1.1 4-.4 7.3-.8 7.5-1 .9-1-1.2-1-10-.3-8 .7-9.8.6-10.3-.1a4 4 0 0 1-.6-1.4c0-.2 3.6-.5 8-.5 8.6-.1 11.6-.6 11.6-1.6 0-1.3-1.8-1.4-11.2-.7-8.6.5-11.6.2-10.3-1 .4-.5 11.4-1.3 27-2 8.5-.4 9.9-.7 9-1.6-.6-.6-11.7-.4-23.8.5-10 .8-12 .6-10.6-.7.7-.8 15.1-2.1 22.5-2.1 3 0 5.2-.4 5.5-.9.4-.6-2.3-.6-10.6-.2-15.7.8-18 .8-18.3 0-.4-1 3.5-1.7 10.3-1.8 2.9 0 6.8-.3 8.7-.6 7-1 .4-1.5-11.5-.9-7.1.4-11.9.4-12.3 0-1.2-1.1 1.2-2 6.3-2 6.1 0 11-1 9.4-1.7-.7-.2-5.1-.2-9.9.2-7.8.6-10.7.3-9.5-1 .3-.2 3.4-.6 7-.8 3.6-.2 7-.6 7.6-1 .6-.4-2.2-.5-8-.2-7.7.3-9 .2-9.3-.8-.2-.6-1.2-1.4-2.1-1.7-3.4-1.3-1.6-2 5.2-2.2 3.7 0 7.8-.2 9-.5 3.8-.9-10-2-17.3-1.5-6.4.5-8.7.1-7.3-1.3.4-.4 4.5-.8 9.2-.9 4.9 0 8.4-.4 8.2-.8-.2-.3-4.7-.6-10-.5-13.8.3-16.2.2-16.2-.9 0-1 20.7-1.5 26.5-.6 2 .4 3.7.3 3.7 0 0-1-2.7-1.2-16.5-1.6l-13.5-.4c-.2 0 0-.6.2-1.3.3-1.1 0-1.3-1.9-1.2-1.2 0-2.3-.3-2.5-.7-.4-1.2 10.4-2 19-1.4 4 .3 6.7.2 6.7-.2 0-.8-20.4-1.8-25.7-1.3-3.8.4-6.9-.4-6.2-1.5.2-.4 2.4-.5 4.8-.3s5.2 0 6.1-.4c1.4-.6.7-.7-3.7-.7-6.3 0-7.9-.7-5.7-2.9 1.1-1 2.8-1.4 8.9-1.8 4.1-.3 7.3-.8 7.1-1.1-.2-.4-3.1-.4-6.5-.2-4.4.3-6.3.2-6.7-.4-.7-1.1 3-6.2 4.8-6.5 1-.2.8-.3-.8-.4-2.2-.1-3.2.8-6.1 5.6a62 62 0 0 1-7.5 10.4c-1.1 0-.6-2.3 1-4.5 1-1.2 5.1-7.2 9.3-13.4 8.5-12.6 9.3-13.6 10.6-13.6 1.4 0 1.1 2-.5 3.3a43.4 43.4 0 0 0-6.3 8.2c0 .2.4.4 1 .4 1 0 5-5.2 6.9-9 1.1-2.3 1.1-2.5 0-4.2-.8-1-1.6-2.6-1.9-3.5-.5-1.5-.5-1.5-2.3.7-1 1.3-2.2 2.4-2.5 2.6a45.1 45.1 0 0 1-4.8 7.3l-7 10a58.7 58.7 0 0 1-11.2 14c-.3-.3-.3-1 .2-2a228.4 228.4 0 0 1 12-17 40 40 0 0 1 3.2-4.3c1.6-1.8 4.3-5.7 4.3-6.1 0-.6 2-3.1 4.8-6l2.4-2.4-1.2-2.5a34.8 34.8 0 0 1-2.6-13.5c.1-2.6 0-3.4-1-3.4-1.3 0-1.3-.3.2-2.8 1.2-2 1.1-2.1-1-6.4-1.2-2.5-2.9-6-3.7-8-.8-1.9-2-4-2.6-4.7-1-1-1-1.7-.2-5.1.8-3.8.8-4-1-6.5a11 11 0 0 1-1.8-3.8c0-.6-.2-1.6-.4-2.2-.8-2-2.4.1-2 2.5.9 3.8-1.1 2-4.4-4.4-7.8-14.7-10-19.1-9.6-19.7.8-1.3 3.2-.5 3.8 1.4a131 131 0 0 0 5 11.2c2.5 5.4 3.2 6.5 4.4 6.3 1.1-.1 1.5-.8 1.7-2.9.2-3.2-.7-4.6-2.3-3.3-1.3 1.1-2 0-1.4-2.4.4-1.5.2-1.9-1-2.2-2.1-.6-1.9-1.8 1.3-7.3 3.2-5.4 3.5-6.7 1.4-5.6-1 .6-1.4.6-1.4-.1 0-1.1 3-5.8 5.3-8.3 1-1 2-3.1 2.4-4.9.9-4 .9-4.2 0-4.2-1 0-3 4.1-2.4 5 .3.5-1.9 4.4-3.2 5.5l-2.8 4c-2.3 3.6-3.5 4.6-3.5 3 0-.5 1.3-2.9 2.9-5.3 1.5-2.4 3-5.2 3-6.2.1-1 1-2.8 2-4 2.3-3.2 4-6.8 4-8.8 0-2.6-.8-1.9-4 3.3-1.7 2.7-3.4 4.8-3.7 4.5-1-.6-.8-2.1.4-3.1.6-.5 1.6-2 2.2-3.4.7-1.4 2-3.6 2.9-4.8 1.6-2.2 1.7-4.4.2-4.4-.4 0-1.2 1-1.8 2-.6 1.2-2 3.2-3 4.5a29.7 29.7 0 0 0-3.9 5.5c-2 3.4-3.8 5.3-4.5 4.6-.7-.7 3-6.7 7-11.7 2.5-3 5.4-7.7 5.4-8.7 0-1.8-2-1.3-3.3.8a158 158 0 0 1-9.3 12.8c-.3.2-1.3 1.7-2.4 3.4-1.7 2.7-3.2 3.3-3.2 1.3 0-.7 7-10.6 14-19.5 1-1.3 1.2-2 .7-2.4-1-.6-3 1.2-5.4 4.9a45.8 45.8 0 0 1-9.4 11.2c-1-.7-.7-1.6 2.7-6 9.2-11.8 10.5-14 8.4-14-.5 0-3 2.9-5.6 6.3a96.2 96.2 0 0 1-6.1 7.5c-1.3 1-1.4 1-1.8 0-.3-.6 0-1.6.7-2.2.7-.7 3-3.4 5.1-6.2l5.3-6.4c.7-.7 1.2-1.8 1-2.4-.4-2.5-2.8-.8-7.4 5.6-5.7 7.8-6.9 9-7.8 9-1.3 0-.7-1.2 2.6-5.8 8.3-11.3 8.6-11.9 7.9-12.6-.9-.9-3 1.5-6.3 7-4.9 8-7.7 11.1-7.7 8.3a4 4 0 0 1 1-2.4 290 290 0 0 0 10.2-15.1l-4-4.6c-4.8-5-5-5-9.3 1-1.6 2.2-3.2 4-3.5 4-1.5 0-1.2-1.3.7-3.6 5.8-6.6 7-10.1 3.5-10.1-1.6 0-4 2.7-7.6 8.2-.6 1-1.6 2-2 2-1.7 0-.9-2.5 1.7-5.5 6-7 6.6-7.8 6.2-9.6-.4-1.6-3.7-5.3-4.8-5.3-.2 0-2.7 2.8-5.5 6.2a63.7 63.7 0 0 1-5.6 6.3c-1.4.5-.5-2.9 1.1-4.6a93.7 93.7 0 0 0 8.8-10.8c0-.3-.7-.6-1.4-.6-.8 0-1.4.4-1.4.8 0 1-5.6 8.3-6.4 8.3-1.1 0-.7-1 2.2-5.4 1.9-2.7 2.8-4.8 2.5-5.5-.4-.9-1-.5-3 2a11 11 0 0 1-3 3.3c-1.1 0-.9-1.8.3-2.8.6-.4 1-1.2 1-1.6 0-.4.9-1.6 1.9-2.6 1.6-1.7 1.7-2.1 1-3.5l-1-1.7-1.4 1.8a76 76 0 0 0-3 3.8c-1.1 1.5-1.8 1.9-2.3 1.3-.6-.5 0-2 2.4-5.1 3-4 3.6-6.4 1.8-6.4-.3 0-1.5 1.4-2.6 3.2-1.8 2.9-3.7 4.1-3.7 2.4 0-.4 1.4-2.7 3.1-5 1.7-2.4 3.2-4.6 3.2-4.8 0-.2-.5-1-1-1.7-.8-1.2-1-1-3.4 2.2-3.3 4.4-5.2 6.1-5.8 5.2-.4-.8 1.9-4 6.5-9.4 2.1-2.5 3-5.6 1.7-6.4-.4-.2-1.6 1-2.8 2.6-3.2 4.4-5.5 6.8-6.4 6.8-1.2 0-.9-1.1 1.2-3.6a235.8 235.8 0 0 0 6-7.3c2.2-2.7 2.3-3 .4-6.7-1.7-3.4-1.6-3.5-8.7 5.3l-6.6 8c-.8 1-1.6 2.3-1.8 3-.3.8-1.1 1.3-2.1 1.3-1.6 0-1.7-.2-1.3-3 .3-2.5 0-3.4-1.5-5.4a9.6 9.6 0 0 1-1.8-3c0-.6-4.3-10.3-6-13.4-.8-1.3-.9-2.2-.4-2.7 1.4-1.4 3 0 4.8 4l2.1 4.5c.4.6 3.2-2.5 7-7.6 2-3 6.3-8.1 9.3-11.6 3.1-3.5 5.6-6.5 5.6-6.8 0-1.4-1.4-.2-4.8 3.8a661.6 661.6 0 0 1-13.2 15.3c-1.2 1.3-2.4 2.2-2.6 2-1-1 1.9-4.9 10.5-14.4 8.1-9 9.6-11.3 7.6-12-.6-.2-5.2 5-10.8 12-4.5 5.7-8.8 10-9.6 9.8-1.5-.6-1-1.4 3.5-6a67 67 0 0 0 6.1-6.9c1-1.3 3-4 4.7-6 3-3.7 3.7-5.2 2.2-5.2-.8 0-9.7 9-11.6 12a68 68 0 0 1-10 10.5c-1.2 0-.6-1.8 1.3-4 11.7-13.3 15.5-18 15.5-19 0-.5-.2-.9-.5-.8-.6.3-7.8 8.4-17.3 19.4a28.7 28.7 0 0 1-5.8 5.8c-1.6 0-1-2.6 1-3.9 1.6-1 1.7-1.3.6-2.3-.9-1-1.3-1-2.5-.3-1.2.8-1.4.7-1.4-.7 0-1 .4-2 .9-2.5.5-.6.6-1 0-1.6-.4-.5-1.4 0-3 1.8a12 12 0 0 1-3 2.4c-1.3 0-.2-2.7 2-4.9 2.2-2 3.2-4.2 2-4.2-.3 0-1.5 1-2.9 2.2-2.2 2-3.7 2.2-3.7.6 0-.3 1.2-1.7 2.6-3 1.9-1.7 2.4-2.7 2-3.6-.4-1.2-.7-1-3 1.3-2.5 2.3-4.4 3.3-4.4 2a17 17 0 0 1 2.9-3.4c2.1-2.2 2.8-3.3 2.4-4.2-.4-1.1-1-.6-4.4 3a18.3 18.3 0 0 1-4.8 4.4c-2 0-1.5-1.4 1.8-4.6 2-1.8 4.1-4.7 5-6.3.8-1.7 1.8-3 2.3-3 .5 0 2.8-2 5.2-4.2 2.4-2.3 4.7-4.3 5.2-4.5 1-.3 0-1.9-1.2-1.9-.5 0-5.4 4.7-11 10.4-9.5 9.6-12.1 11.7-11.3 8.7.2-.7 4.7-5.6 10-11 6.7-6.8 9.4-10 8.7-10-.7-.2-4.8 3.3-10.7 9.2a139 139 0 0 1-10 9.5c-1.8 0 .5-3 8.5-11.2 8.5-8.6 10.1-11 8-11.7-.4-.1-2.2 1-4 2.7-2.8 2.4-3.3 3.2-3 4.6.4 1.4.2 1.6-1.6 1.6-1.5 0-2.7.7-4.3 2.6a53.8 53.8 0 0 1-9.2 9.3c-1.4 0-.5-2.3 1.7-4.4 5.9-5.9 10.2-11.2 9.8-12-.2-.6-.6-1.1-.9-1.1-.7 0-6.3 5.1-6.3 5.8 0 1-7.2 8.2-8.2 8.2-1.9 0-.7-1.7 6-9 4-4.2 7.1-7.8 7.1-8 0-1.5-2.3.4-9.6 8-7.6 7.7-10 9.5-10 7.5 0-.4 4-4.7 8.7-9.5 4.9-4.9 8.8-9.4 8.8-10 0-3.6-1.8-2.4-13.8 9.5a107 107 0 0 1-13 11.8c-1.2-.8-.4-2 5.2-7.4 19.1-18.5 20-19.4 18.2-20.5a86 86 0 0 0-10.7 9.6 530.5 530.5 0 0 1-13.5 12.8 45.6 45.6 0 0 0-5.7 6.1c-2.5 3.4-4.5 4.3-4.5 2a76 76 0 0 1 11.6-12.4 188.2 188.2 0 0 0 19.9-20c0-1.4-2.3-.4-5.4 2.4a745 745 0 0 0-17 16.4 236.3 236.3 0 0 1-14.1 13.5c-1.7 0-.3-2.5 3-5.5 9.6-8.8 20.2-20 20.2-21.2 0-.9-3.3 2-11.3 9.5a224.6 224.6 0 0 1-15.7 14.4c-.2 0-.4-.6-.4-1.3 0-.7 1.5-2.7 3.4-4.3l9.3-8.7c3.2-3.1 7.8-7.3 10-9.2 4.8-4 9.2-8.6 9.2-9.6 0-.4-.4-.9-.8-1-1-.3-6.3 4.5-23.4 21.3-5.3 5.1-10 9.3-10.4 9.3-2.1 0 .4-2.9 13.6-15.7 8-7.6 14.4-14.2 14.4-14.5 0-2-3.7.7-13.4 9.9-5.8 5.6-11 10.4-11.4 10.6-.5.3-2.9 2.9-5.4 5.8-4.4 5.2-6.3 6.5-6.3 4.1 0-1.1 3.4-4.5 20.6-21.1 6.8-6.7 8.7-9 5.8-7.4-1.4.9-15.3 13.8-24.5 22.9a42.8 42.8 0 0 1-8.2 7.1c-.9-.5-.9-2.2 0-2.5a835 835 0 0 0 28.5-27c-.6-.7-8.5 3.7-10.8 5.9a644.1 644.1 0 0 1-16.2 14.7c-1 .9-2 1.6-2.3 1.6-.3 0-.6.3-.6.7 0 1-3.8 5-4.8 5-1.9 0-.5-2.3 4.1-6.6 2.7-2.6 5-4.8 5-5 0-.8-3 1-5.6 3.5-2.7 2.4-4.3 3-4.3 1.7 0-.8 2.8-3.6 6.1-6 1.5-1.1 4.6-3.7 6.8-5.7 6.7-6 21.2-13 28.1-13.8 2-.2 6-.7 8.8-1.2 5.7-.9 5.2-1 11.2 2.4 1.3.7 3.4 1.3 4.8 1.3a6 6 0 0 1 4.3 1.6c1 1 3.1 2 4.7 2.5a27.2 27.2 0 0 1 13.2 8.4c.9 1.5 3.3 3.8 5.4 5.2 2 1.4 5.6 4.1 7.9 6 2.3 2 5.2 4 6.5 4.6 1.2.7 2.9 2 3.6 2.9.7.9 1.6 1.6 2 1.6.4 0 1.3.6 2 1.2.6.7 3.4 2 6.1 2.7 5 1.5 5 1.5 7 5.5 2.3 4.5 2.5 7.7 1.5 20.1-.5 6-.4 7 .9 10 2 4.3 2.5 7.2 2.4 11.5-.1 2 .3 5.7 1 8 1.4 5.6 5.2 13.8 6.6 14.3 1.6.5 5.6 4.5 5.6 5.6 0 .5.6 1.3 1.4 1.7.8.4 1.4 1 1.4 1.4 0 .4 1 2.5 2.4 4.8 2.5 4.3 9 11.1 17.4 18.6 2.6 2.3 4.7 4.7 4.7 5.4 0 .7 1.1 2.1 2.5 3.2 3.9 3.1 5.8 7.6 7 16.6 1.3 9.2 1 13.9-1.5 18.5-1 1.8-2.2 5-2.7 7.2-.5 2.1-1.6 5.3-2.4 7-1.7 3.1-1.5 6.5.2 7.6 1.6 1 2.4 3.4 3 8.9.3 4 .8 5.9 2 7.3.8 1 1.9 3 2.4 4.3a67 67 0 0 0 3.3 6.3 886 886 0 0 1 3.5 6c.8 1.4 1.2 4 1.4 8.2.1 3.4.5 6.8 1 7.5 1 2 .8 3.5-.5 3.5-1 0-1.1.9-.8 6.3a19 19 0 0 0 1.2 7.4 21 21 0 0 1 2 5.5c1 3.6 1.6 4.5 3.6 5.7 1.2.8 3.7 2.6 5.4 4.2 1.7 1.5 3.2 2.5 3.5 2.3.2-.2-1-3.2-2.8-6.6-4.2-8.2-8.2-17.5-8.2-19 0-.7.8-2 1.8-2.9 1.2-1 1.7-2 1.4-2.7a79.4 79.4 0 0 1-1.2-23.8c.5-3.8.8-8.5.8-10.6 0-2.2.8-6 1.8-9.1a43 43 0 0 0-2-30c-2.6-6.1-7.3-15-9.6-18.5-.6-1-1.6-2.8-2-4.2-.6-1.3-2.3-4.2-4-6.3a37.1 37.1 0 0 1-4-7 20 20 0 0 0-2.2-4.2c-.5-.6-1.5-2.8-2.1-5a33 33 0 0 0-1.8-4.5c-.3-.4-.9-4-1.4-8a52.6 52.6 0 0 0-10.3-28.1 12 12 0 0 1-2.7-7.2c-.4-4.2-.7-4.8-4.1-8.4-3-3.1-3.8-4.5-4.2-7.1a79.1 79.1 0 0 0-9-19 34.7 34.7 0 0 0-7.3-11.1c-5-5.8-4.7-5.5-13.9-14.4-3.9-3.8-8-8.2-9-9.8-1.7-2.5-3.3-3.6-8.6-6.1-4.8-2.3-7-3.9-8.5-5.8a20 20 0 0 0-2.6-3 22 22 0 0 0-8.7-5.5c-2.3-.9-5.3-2.6-6.6-3.8-5-4.4-7-5.5-10-5.9-2.6-.3-3.1-.1-3.1.8 0 1.7-2.1 2.3-3.2 1-.5-.8-2.3-1.3-5-1.6-2.2-.2-6.8-1-10-1.8-9.4-2.2-14-4.5-14-6.9 0-.6-.9-2.7-1.8-4.6a16 16 0 0 1-1.7-7c0-4.3 1.6-7 8-12.9 2.1-2 3.7-4 3.5-4.2-.3-.2-1 .3-1.5 1.1-1.2 1.7-3 2-4.2.8-.6-.5-1.2-.5-2.4.3-2.3 1.7-3.9.5-4.9-3.7-.4-2-1.4-4-2.1-4.4-1.7-1-1.7-3.9 0-6.1a8 8 0 0 0 1.4-4.4c0-2.5.1-2.6 2.6-2.6a10 10 0 0 0 5.5-2.1c3.6-2.5 4-2.5 5.6-.7 1.4 1.5 4.2 1.9 5 .6.6-1 2.1.5 2.6 2.7.2 1.2 1.4 2.6 2.8 3.5 1.9 1.1 2.4 1.9 2 3-.3 1.6 1.1 2 1.7.4.5-1.2 1.7-1.7 5.9-2.5 5-1 8.4-2.5 9.7-4.4 1.3-2 4-4.2 6-5 1.5-.6 6.6-1 22.8-1.4 14.4-.4 14.7-.5 19.8-5.8 4.1-4.3 6.2-5.3 7.3-3.6.3.5-1.3 2.5-4.4 5.3-7.5 7.1-6.7 6.8-19.8 7-16.7.4-24.6 1.1-27.2 2.6-1.3.6-2.3 1.6-2.3 2 0 1.9-3.4 4-9.7 6-5.6 2-7 2.7-10.2 5.9-5.5 5.5-6.8 7.5-5.8 9.5.8 1.5 1 1.4 5.7-3.4 5.5-5.5 8.6-7.5 13.1-8 4.4-.7 9.6-3 13.2-6 1.7-1.4 3.8-2.8 4.6-3.1.7-.3 6.7-.7 13.3-.8 6.5-.2 12.7-.6 13.6-1 1-.4 2.9-.8 4.2-1 4.3-.4 8.8-3 10.8-6 1.8-2.8 4.2-3.7 4.8-2 .5 1.3-6.3 9-7.9 9-.7 0-1.5.3-1.7.6-.2.4-1.9 1-3.7 1.2a76 76 0 0 1-19.6 2.3c-11.7.1-14.3.7-18 4.2a27 27 0 0 1-12 5.3l-4.5.8a46 46 0 0 0-13 12.7c-.6 1.3-1.5 2.3-2 2.3-1.9 0-6 5.7-6 8.2 0 1.8 5.7 6.5 8.8 7.4 4.4 1.2 4.7.4 2.2-4.4l-2.3-4.2 1.6-1.3c.9-.8 1.6-2 1.6-2.9 0-2 3.3-9.7 5.1-11.7 1.6-1.8 5.3-2.1 8.6-.9 1.7.7 2.7.4 6.7-1.4 2.5-1.2 6.5-2.6 8.7-3.2a23 23 0 0 0 4.9-1.7c.4-.3 2.6-.6 4.9-.5 2.7 0 5-.4 6.4-1.1 3.2-1.7 11-2.7 14.7-1.9 2 .5 4.1.5 6 0 1.5-.3 3.5-.3 4.3 0 .8.3 2.1.3 2.9 0 2-.8 8-.8 8 0 0 1.2-2.7 2.1-7.3 2.3l-4.6.2-9.6 9.7-15.4 15.5c-7.6 7.5-7.9 10-.4 3.4 6.3-5.5 7.7-7 12.5-12.6 4.4-5.2 7.4-8 8.5-8 1.7 0 1 2-1 3.2a11 11 0 0 0-3.3 3.3c-.7 1.1-5.5 6.3-10.7 11.4-7 6.9-9.3 9.7-9 10.5.3 1 2.3-.6 9-7a335 335 0 0 0 13.7-14c5.5-6 7.6-8 8.6-8 2 0-.6 3-12.3 15a120.3 120.3 0 0 0-12.8 14.3c.4 2.1 1.9 1.4 5.9-2.9a178.9 178.9 0 0 0 20.8-23.2c2.5-3.4 4.5-4.5 5.1-2.9.3.8-.2 1.8-1.6 3-1.2 1-4.8 5-8.1 8.9a244 244 0 0 1-11.7 12.6c-5.4 5.3-6.7 7.4-4.8 7.4 1 0 10.7-10.2 25-26.2 6.9-7.8 9.9-10.3 9.9-8.4 0 .5-15.2 17.7-21.3 24a48 48 0 0 0-9.2 11c-1 3.2 2 1.7 6.3-3a337 337 0 0 1 8.4-9c5.6-5.7 8.9-9.4 10.3-11.6.6-1 2.4-3.1 4-4.8 2.2-2.3 3.1-2.9 3.8-2.3.7.6 1.3.5 2.2-.6 1.3-1.4 3.5-1.9 4.2-.8.3.6-1 2.1-8.8 10.5-2.3 2.5-5 5.6-5.9 7a29 29 0 0 1-3.9 4.7 80 80 0 0 0-5.7 6.3 56 56 0 0 1-5.3 5.7c-2.2 1.7-1.7 4 .7 3.6a187 187 0 0 0 25-26.3c3.7-4.7 6.2-7.2 7.1-7.2 2 0 1.7 1.1-.9 3.8a959.6 959.6 0 0 1-19.6 21.8c-7.8 8.4-10.4 12.3-8.4 12.3a89 89 0 0 0 13.3-14.4l7.6-8.9c.7-.6 3-3.2 5-5.7 3.7-4.5 5.2-5.5 6.1-4 .3.4-3 4.5-7.1 9a514.2 514.2 0 0 0-19.4 22c-3.7 4.3-4.7 5.9-4.5 7.4.3 2.5 1.3 2.6 3 .2l7.6-9c7.3-8.1 8.4-9.4 14.3-16.4 5-6 7.2-7.8 7.2-5.7 0 .7-1.5 2.9-3.4 4.8l-8.9 10.2c-3 3.7-8 9.4-11 12.7-3 3.3-5.4 6.5-5.4 7.1 0 2.2 2.6 1.2 5.2-2a216 216 0 0 1 9.8-10.4c3.9-3.9 8.9-9.2 11.2-11.8 2.2-2.6 4.5-4.8 5-4.8 1.8 0 1 2.6-1.6 5.1a549 549 0 0 0-22.6 23.5c-3.4 4-3.7 4.5-2.7 5.5s1.4.7 4.3-2.3l4.6-5.1 5.6-6.3c2.3-2.5 5.5-6.2 7.1-8.3 1.7-2.1 3.5-3.6 4.2-3.6 2.5 0 2.2.4-8.3 11.5l-6 7c-1.6 2-4.5 5.2-6.6 7.3-3 3-3.7 4-3.3 5.4.2 1 .6 1.7 1 1.7a38 38 0 0 0 5.2-5.4 662.6 662.6 0 0 1 10.2-12.1l2.2-2.8 2-2.7c.9-1.2 2-2.2 2.6-2.2 1.5 0 1.2 2.6-.5 3.8-.9.6-3.3 3.2-5.5 6-6 7.5-10.9 13.4-13.3 16-2.2 2.4-2.8 4.3-1.3 4.3.8 0 5.4-5.4 18.2-20.8a23 23 0 0 1 4.2-4.4c1.4 0 .4 2.7-2 5a81.3 81.3 0 0 0-6.2 7.2 156 156 0 0 1-7.3 8.8c-6 6.5-6.3 7-5 7 1 0 7.6-7.1 13-14 4.7-6 6.4-7.7 7.5-7.7 1.4 0 .3 2.1-2.3 4.5-1.6 1.4-2.7 2.8-2.5 3 .7.6 3-1 5.9-4.3 3-3.2 4-3.8 4.7-2.5.6.9-7.5 8.7-10.1 9.8-1.9.8-6.5 6.7-7.9 9.9-.6 1.6-6.4 5.5-8.1 5.5-1.9 0-3.8-2.6-5-6.4l-1.5-5.2c-.3-1.2-.6-2.8-.6-3.6 0-1-1.7-3-4.2-5.3-3.8-3.4-4.3-4.2-5-7.5-.3-2.1-1.1-4.5-1.7-5.4-1.3-2-10.1-6.5-12.6-6.5-1 0-1.9-.4-2.1-.8-.3-.4-2.2-1.5-4.4-2.4-2.8-1.3-4.5-1.6-6.4-1.3-2.3.3-2.9.1-4.2-1.5a7 7 0 0 1-1.5-2.8c0-.4-.7-1.5-1.6-2.3-1.3-1.2-2.7-1.5-9.6-1.8-6.3-.3-8.3-.2-9.4.6-.8.6-1.7.8-2.4.4-.7-.3-2.8-.8-4.8-1.1-3-.4-3.7-.3-3.7.5 0 1.8 1.6 2.6 6.7 3a41 41 0 0 1 17.8 5.7c1 1 4.3 3.3 7.4 5.3 3 2 5.7 3.8 5.8 4.2a32.2 32.2 0 0 1 7.3 5.7c3 2.9 7 6.2 9 7.3a154.7 154.7 0 0 1 27 27 22 22 0 0 1 7 9.3c3.5 6.9 7.5 13.8 13.4 23.1a55.6 55.6 0 0 1 5.7 10.5c.4.2.5 1 .3 1.7s.3 2.6 1.1 4.2c.8 1.5 1.5 3.3 1.5 4 0 1.5 1.7 4.7 5 9 1.5 2 2.7 4 2.7 4.6A161.3 161.3 0 0 1 255 310c.8 5.8 2.2 12.3 3 14.5a52 52 0 0 0 6.6 12.1c5 6.1 5.2 6.5 12.8 25.3 1.2 3 3 7.1 4 9 5.3 11.5 6.1 16.4 3.7 24.6a111 111 0 0 0-3.8 27c-.2 5.6-.6 11.1-.7 12.3a23 23 0 0 0 .2 5.6l.5 3.5h2.7c1.7 0 3 .4 3.3 1 6.2 12.3 6.6 13.7 4.1 16.1-1.7 1.8-1.7 1.9.6 4.6 5.7 6.7 7.7 9.2 9.3 11.5 1 1.4 2.1 2.8 2.6 3 .5.4.9 1.1.9 1.7 0 1 3.3 2.7 14 7.4 4.2 1.9 8.5 4.1 9.8 5.1.6.5 1.9 1.2 3 1.6 1 .5 1.9 1.2 1.9 1.6 0 .3 1.3 1.4 3 2.4a65.4 65.4 0 0 1 15.8 16.5c.3 0 1 .8 1.4 1.8.4 1 2 3.5 3.6 5.5s2.8 4 2.8 4.2c0 1.7 5.6 11.3 8.7 15.1 2.1 2.5 4.2 5.8 4.6 7.4a35 35 0 0 0 2.1 5.3 31 31 0 0 1 2.1 5.6c.5 1.7 2 5.8 3.4 9.1 2.3 5.5 2.5 6.5 2.5 13 0 10-1 19.9-2 22.8-3 7.4-4 16.6-2.1 20 .7 1.5 1 4.4 1 10.4a64 64 0 0 0 1.4 14.3 33 33 0 0 1 1 8 69.7 69.7 0 0 0 15.5 28.3c.2.7 1.9 2.4 3.7 3.8 1.8 1.3 4 3.3 5 4.4 1 1 3.2 3 5 4.4 2 1.3 3.5 2.7 3.5 3.2 0 1 2.4 3 6.7 5.6 2 1.1 4.4 3.2 5.2 4.5a14 14 0 0 0 4.2 3.8c4 2 6 5.7 5.8 10.7-.1 2.3-.7 5.3-1.3 6.7-.6 1.4-1.4 4.8-1.7 7.5-.7 5.7 0 7.6 3.4 8.3 3.7.7 4.7 3.8 5.3 16.5.1 2.8.6 4.3 2 6a33 33 0 0 1 2.9 4.4c.6 1.3 1.5 2.3 1.8 2.3.4 0 1.3 1 2 2.2a8.4 8.4 0 0 0 3.7 3l3.6 1.4c.8.4 1.5 0 2.4-1 .7-1 2.2-2.6 3.3-3.8 1.6-1.7 2-2.7 2-4.7-.3-4.3 3.9-12 9.3-17 5-4.8 5.1-1.8.1 3.4-4.9 5-7.8 11.1-7 15 .3 2 0 2.6-2.3 5a48.2 48.2 0 0 0-4.2 4.6 30 30 0 0 0-2.5 14c0 1.4-.2 3.9-.6 5.4-.8 2.9.3 13.4 1.6 15 1.9 2.5 2.6-2.3 1-6.3-.6-1.5-.9-4.7-.8-10 .3-10.6 2.5-17.6 7-22 4-4 4.3-4.4 5.6-10.3 1.2-5.8 6.5-14.7 9.2-15.4 2.5-.6 3.5-2.9 1.9-4-1.5-1.2-2-.3 5.3-8.7 4.4-5 5.3-7.2 1.8-4.5-1 .8-2.8 2.6-3.9 4a17.1 17.1 0 0 1-4.7 4c-3.2 1.6-6 4-7.2 6.2a89.5 89.5 0 0 0-11.3 20.5c-1.3 4-3.7 6.3-5.6 5.7-5.3-1.7-8.3-5.7-9.3-12.2-.3-1.8-1.2-4.3-2-5.6a49 49 0 0 1-4.8-12c-.8-2.5-2-6-2.8-7.7-1-2.8-1.2-4.3-.7-11.6.8-11.5 0-14-5.1-18.2l-8.7-7.5a47 47 0 0 0-7-5.4c-.5 0-2-1.8-3.4-4-2.8-4.3-5.4-7.2-6.4-7.2-.4 0-1.3-.8-2.1-1.8s-3-2.5-5-3.4c-4.2-2-5-3-6.3-7.8l-2.1-7a79 79 0 0 1-5-18.2c-.3-2.7-1-8-1.6-11.6a36 36 0 0 1-.8-7.8c.2-.7.5-3.2.6-5.6a33 33 0 0 1 2-9 51 51 0 0 0 2.5-9.5c.7-4.3.6-5.5-.6-9.8a28.3 28.3 0 0 1 1-20 32 32 0 0 0 2.5-8.6c0-5.5-5.7-16.9-10.5-20.9a11.2 11.2 0 0 1-4.2-6c-1-3.7-6-11.5-8.6-13.6-1-.8-3-3.3-4.3-5.5a23.8 23.8 0 0 0-3-4.4c-.6-.2-3.7-3.6-10.6-11.6-1.7-2-3.8-3.8-4.7-4-1-.2-2.6-1.3-3.7-2.3l-4.6-4-4.8-4c-1.2-1.1-2.6-2-3.3-2-.6 0-2.6-.9-4.3-2a122 122 0 0 0-4.5-2.6 6.3 6.3 0 0 1-2.1-2.3c-.5-.9-1.5-2.3-2.3-3.2-.9-.8-1.5-1.8-1.5-2.1 0-.3-1.3-2.7-3-5.4-2.7-4.7-2.8-5-2-8.2 1.8-8.3 2.3-9.6 5-12.5 1.5-1.7 2.8-3.4 2.9-4a82 82 0 0 0-.1-12.4c-.2 0-2.4 2.2-4.8 4.8-5 5.7-7.3 6.9-13.5 7.5-4.6.5-4.6.5-7.1-2a9.2 9.2 0 0 1-3-5.7c-.3-1.8-.8-3.2-1.1-3.2-1.2 0-2-2.7-3.5-11.6-2-12-2.2-28.3-.4-31.7.7-1.3 1.8-4.7 2.6-7.6a23 23 0 0 1 9-13.3c1-.7 3.4-3 5.3-5.1l9.2-10.2c3.3-3.4 5.9-6.4 5.9-6.8 0-.3.6-.6 1.4-.6.7 0 1.4.2 1.4.5 0 .4-.2.7-8.2 9.3-7 7.7-7.2 8-4 6.3 2.6-1.2 5.6-4.4 9.3-9.7 1-1.4 2-2.1 2.7-1.9.5.2 3.2-.1 5.8-.7 5-1.3 7-1 7 .7 0 .8-.7 1.1-2.6 1.1-4.6 0-10 .9-10 1.6 0 .4 2.3.5 6.3.2 5.3-.4 6.3-.3 6.3.5 0 1.3-7.6 2.3-12.5 1.6-2.6-.3-3-.2-2.3.5.6.6 3.2.9 7.8.9 4.2 0 7 .2 7 .7 0 .8-8.3 1.5-13.2 1-4-.4-5.5 0-4.7 1.4.5.7 2.6.8 9.2.5 5-.3 8.8-.2 9 .2.7 1-1.9 1.4-11.7 1.5-7.7.1-9.6.3-9.6 1.1 0 .7.8.9 3.3.6l11.3-.7c6-.3 7.8-.2 7.6.5-.2.6-3.5 1-11 1.4-16.3.8-17.7 2-1.9 1.4 11.2-.3 13.2-.2 13 .6-.3.8-3.2 1-13.4 1.4-7.2.3-13.6.8-14.3 1.2-1 .6.1.8 4.7.9l9.4-.1c2-.2 5.9-.3 8.8-.3h5.2v4.2l-15 .2c-8.3.1-15.6.4-16.1.6-2.3 1 3.5 1.4 16 1.1 13.7-.2 16.5 0 16 1.4-.2.7-4.4.9-16.3.9-12.1 0-16 .2-16.3.9-.2.6 3.4.8 16.6.8a71 71 0 0 1 16.9.8c0 1.2-1.4 1.4-17.9 1.5-10.4.1-16 .4-15.7.9.2.4 6.4.6 17 .5 13.6-.2 16.7 0 16.4.7-.2.7-4 1-17.8 1-14.5.2-17.7.5-18.4 1.3-.7.8-.7 1.1.2 1.5.7.2 9.2.2 19 0 15.1-.3 17.9-.2 17.9.7 0 .7-1.4 1-6.5 1-18.4.2-32.3.6-32.6 1-1 1 2 1.2 17.5.5a224 224 0 0 1 20.2-.3c2.7.4 3.1.7 3.1 2.2 0 1.7-.1 1.7-6 1.9-10.5.3-32.5 1.8-32.8 2.2-.2.2 6.2.1 14.3-.2 20.2-.8 22.4-.8 22.8 0 .4 1-9.6 1.6-27.2 1.9-10.6.2-13.4.4-13.4 1.1 0 .8 3.3 1 17.5.7 15.6-.3 19.3 0 18 1.2-.1.2-7.9.5-17.3.7-9.3.1-17.2.5-17.4.7-1.5 1.5 2 1.6 20 .8 7.4-.3 13.5-.4 13.5 0 0 .2-2 2.4-4.5 4.9a54 54 0 0 0-6.4 7.3 113.5 113.5 0 0 1-14.7 16.2c-3 2.5-8.3 8.3-8 8.6.2.2 1.3.1 2.6-.1 2.3-.5 9.7-8 20.3-20.7 2.5-3 5-5.4 5.6-5.4 1.4 0 .3 1.7-4.3 6.9-6.7 7.5-4.5 7.6 2.7 0 3.4-3.4 4.3-4 4.5-3 .1.8-1 2.4-3 4.3a16.5 16.5 0 0 0-3.2 3.7c0 1 3.6-1.2 5.8-3.6l2.2-2.3.7 2.3.6 2.4 1.2-3c.7-1.8 1.8-3.3 2.5-3.4 1-.2 1 0 .7 1-3.6 8.5-3.4 9.4 2.5 9.4 2.4 0 4.1-.2 3.8-.5-.5-.5-.8-.5-5.1-.8-1.6 0-2.3-.4-2.3-1.2 0-1 .5-1 2.2-.7 1.2.2 4.2.4 6.6.4 4 0 4.5.2 4.5 1.4 0 .8.4 1.4.8 1.4s.6.4.5.8c-.2.5-2.8.9-7.3 1-9 .1-9.4.2-9.4 1.1 0 .6 3 .7 10.4.5a72.2 72.2 0 0 1 17.8 1c4.2.3 5.4.2 5.4-.5 0-1.4-1.7-1.8-8.5-1.8-4 0-6.1-.2-5.8-.7.2-.4 3.2-.7 6.7-.7 3.7 0 6.2-.3 6.2-.7 0-.6-4.6-1.1-6.6-.7-1.5.3-6-.9-6-1.5 0-.4 2.2-.6 5.6-.5 3 .1 5.8 0 6.1-.3 1-1-1.4-1.9-4.8-1.9-1.8 0-3.5-.3-3.7-.7-.5-.8.5-.9 4.8-.7 2.5.1 2.7 0 2.3-1.5-2.3-8.5-.8-9 5-1.6 5.2 7 4.8 6.5 9.2 9.9a75.9 75.9 0 0 0 33.4 13.5c3.2 0 5.2 3.4 7 11.6.3 1.2.7 2.4 1 2.8.3.4.7 1.7 1 2.8a4384 4384 0 0 1 6.7 28c.7 3.5 2.2 9.2 3.2 12.7a137.6 137.6 0 0 1 3.7 15.3c.4 1.2 1 4 1.2 6 .2 2.2 1.5 7.8 2.8 12.7 1.2 4.8 2.8 11.9 3.5 15.7 1 6.3 1.8 10 3.8 18.6.3 1.4 1 5 1.8 8a54 54 0 0 0 1.7 7c.4.9.9 3.2 1.1 5.3.3 2.2.8 4.7 1.2 5.6.4 1 .8 3 .9 4.6a182 182 0 0 0 3.5 28c.3 2.8 1.3 7.3 2.2 10.2a465 465 0 0 1 7.6 29.7c.3 1.5 1 2.8 1.4 3 .5.2 2.8-1 5.2-2.5 2.3-1.6 4.9-2.9 5.8-2.9 2.7 0 7-1.4 12.8-4.2 3-1.5 7.2-3 9-3.5 2-.4 4.7-1.3 6-2 3.2-1.6 6.7-2.9 10-3.5a30 30 0 0 0 9.9-5.2c1.4-1.3 3.4-2.5 6.1-3.7a120.7 120.7 0 0 1 12-5c3-1 5.5-2 5.5-2.4 0-.3-.7-1-1.5-1.6-1.2-.9-1.6-.9-2.4 0-.8.8-1.6.6-5.2-.8-4.4-1.8-12.1-2.4-13-1-.8 1.4 3.2 4.8 6.8 5.6 4.3 1 4.6 2.5.4 1.8-6.4-1-8-1.5-10.8-3-1.7-1-3-2-3-2.3 0-.4-1.3-1.3-2.8-2.1-1.9-1-2.8-2-2.8-2.8 0-1.8 2-1.8 4.4 0 2.3 1.8 3.5 2 8.5.8 7-1.6 20.5.2 26.5 3.4 1.5.9 4.7 1 4.7.1 0-.7-6.7-3.2-10.5-4-1.3-.2-3.8-1-5.5-1.9a41.6 41.6 0 0 0-14.3-4l-6-1c-1-1 1-1 7.7-.4 5.6.6 8.2 1.2 11.6 2.8a39 39 0 0 0 7.9 2.8c3.9.7 9.4 3 11.2 4.5a16 16 0 0 0 5 1.8c2 .5 4.6 1.3 5.7 1.8 2.3 1.2 5.7 1.3 8.7.2 1.8-.7 2.5-.7 3.2 0 .7.6.6 1-.2 1.8a53 53 0 0 1-13 4.6c-.5 0-2 .8-3.5 1.8-1.4 1-3 1.7-3.5 1.7-1.8 0-1.6-1.3.3-2.3l4-2.1c1.1-.6 3-1.3 4.2-1.6 1.9-.4 2-.5.8-1.1-4-2.3-12.6-3.3-16.9-2l-5.5 1.4c-1.9.4-4.4 1.5-5.7 2.5a9.7 9.7 0 0 1-3 1.7c-1.1 0-6 5.5-7.8 9a16 16 0 0 1-4.5 5c-1.8 1.1-2.6 2.2-2.6 3.3 0 1-.4 1.6-1.1 1.6-.8 0-1 .5-.8 1.4.5 2-3.2 5.1-10.7 9-10.7 5.4-14.7 6.8-14.7 5 0-1-1.9-.8-2.8.4-.6.7-.6 1-.1 1 .4 0 .6.5.4 1-.6 1.4 7.4 2.1 8.5.7.4-.5 1.1-1 1.5-1 .5 0 1.1-.5 1.5-1.1.6-1 .8-.9 1.4 1.2.5 1.8.7 2 .7.8 0-1.7 1.5-2.2 1.5-.5 0 1.6 1 1.3 1.7-.5.4-.9 2.4-2.4 4.4-3.3 2-1 3.8-2.3 4-3 .5-2.2 1.7-1.3 2 1.4.2 2.4.3 2.3.4-.7 0-2.4.4-3.3 1.1-3.3.8 0 1 .7.7 3.6-.3 3.8 0 3.9.7.4.5-2.3 1.8-2 1.9.4 0 .8.4 0 .7-2 1.2-6.2 1.3-6.7 2-6.7.4 0 .7.8.7 1.7 0 .8.4 2 .9 2.5.5.4.9 2.3.9 4.1 0 2.8.2 3.3 1.3 3.3.7 0 1.5-.4 1.7-1 .2-.7 0-.8-.9-.5-1 .4-1 0-.7-3.2.2-2 .5-4 .7-4.6.1-.4-.3-1.7-.9-2.8-.7-1.3-1-2.5-.6-3.4.5-1.2.6-1.2 1.4 0 1 1.3 3 1.5 3.4.3.1-.4.6-.6 1-.3 1.2.7 1.1 1.8-.1 1.8-1.1 0-2.5 2.1-2.5 3.8 0 .5.6 1.1 1.3 1.3 1.1.3 1.3 1 1 4.1l-.1 3.8.7-3c.7-3 2-4 2-1.5 0 .7.3 1.4.7 1.4.4 0 .7-1.3.7-2.8 0-2 .5-3.3 1.7-4.6 1.7-1.8 2.5-1.7 2.5.6 0 1 .2 1.2 1 .5.6-.5 1.4-.7 1.8-.4 1 .7.9 3-.3 3.4-.7.3-1 1.4-1 3.6 0 2.8.2 3.3 1.7 3.9 2.3.9 3.8.9 3.8 0 0-.4-.4-.7-1-.7-.5 0-1-.4-1.2-1-.6-1.6.5-9 1.4-9.4.5-.2.8.4.8 1.5 0 1 .3 2 .7 2.2.4.2.7 1.2.7 2.1 0 2 1 2.9 2 1.6.3-.6.6 0 .8 1.6.4 2.3.5 2.4 3.9 2.9s6-.4 3.6-1.2l-2.3-.7c-1.2-.4-1.2-.2.1-9.1l.3-2.3c0-.5.4-.9.7-.9.4 0 .7 2 .7 4.2 0 2.4.4 4.3.7 4.3.4 0 .7-1.3.7-2.8 0-4.7 1.4-3.2 1.6 1.5l.2 6c0 1.7 4.2 4.8 4.9 3.7.5-.9-1.2-3.5-2.2-3.5-.4 0-1-.5-1.2-1.1-.6-1.5.3-8.7 1-8.9 2.2-.3 2.4 0 2.7 4.2.2 2.4.7 4.4 1 4.4.5 0 .8-.6.8-1.3.2-3.1.4-3.7 1-3.4.3.3.4 1.2.2 2.1a5 5 0 0 0 .5 3c.6 1.1.7 1 .7-1.2 0-2.5 1.4-4.6 2.4-3.7.2.3.5 2 .5 3.9 0 2.3.2 3.4.9 3.4 1.6 0 1.8-.8.7-2.7-1-2-1.3-7.2-.4-7.1.3 0 1.4 1.4 2.4 3.1 1.8 3 4 4.1 5.1 2.5 1-1.5 1.8-.7 1.8 1.7 0 1.4.3 2.5.7 2.5.4 0 .6-.4.5-.9-.3-1.4 4-2.2 6.2-1.1 2.7 1.2 2.9 3 .6 4-1.6.7-2.1.6-3.1-.3-1.5-1.3-2.1-1.3-2.1 0 0 .6-.5 1-1 1-.7 0-1.1-.2-1.1-.5 0-.6-4-2.2-5.5-2.2-.5 0-.8.3-.8.7 0 .4.9.7 2 .7 1.5 0 2.2.3 2.2 1 0 1.4-3 2-4.9 1-.8-.3-2.2-.5-3-.2-1 .3-1.8 0-2.6-1.1-2.5-3.3-5.7.4-4.6 5.1.5 1.8-1.8 6.8-3.1 6.8-.4 0-1.4.8-2.3 1.7-.9 1-2.3 1.8-3.2 1.8-.9 0-2.7.5-4.1 1-1.4.6-3.3 1-4.3 1-2.7 0-1.5-1.5 2-2.4 3.9-1 9.4-4.2 10.8-6.1.6-.9 1-2.7 1-4.2 0-2.2-.3-2.8-2-3.7-1.2-.5-4.2-1.3-6.9-1.7-5.2-.8-18.2-.3-21.5.7-1.7.6-2.3.5-3-.4-.4-.6-1.7-1-3.4-1-2.1.2-2.3.2-.8.5 3.5.5 2 1.4-3.4 1.9-5.8.5-6.6.3-6.6-2 0-.8-.3-2-.7-2.5-.5-.9-.7-.9-1.1.2-.3.6-1.2 1.2-2.1 1.2-1 0-1.7.3-1.7.7 0 .4.8.7 1.7.7 1 0 1.8.3 1.8.7s-1 .7-2.3.7c-1.2 0-2.7.3-3.2.6-1 .7 20.8 1.6 30.1 1.3 6-.1 8.8.9 9.5 3.5.7 2.8-.3 5-2.2 5-1 0-2 .6-2.4 1.3-.6 1-1.7 1.2-7.2 1.3-5.6 0-7.4.3-12.5 2.3l-12.5 4.8c-3.9 1.5-6.9 3-7.5 4-1.3 2-2.1 8.6-1.2 9.7 2 2.4 3.7 10.1 3.6 15.6a106.2 106.2 0 0 0 3.6 29.4c0 1.2.6 3 1.4 4.2.8 1.2 2.3 4 3.5 6.4 1.1 2.4 2.5 4.7 3.1 5.2.6.5 1.1 1.2 1.1 1.5 0 .4 1 2.8 2.3 5.3 2.7 5.5 3.6 6 14.5 7.1 17.8 1.8 31.6 2.3 72.2 2.6 23.3.2 43.7.5 45.2.7 1.8.3 4.4 0 7-.7a44.2 44.2 0 0 1 16.8-2.5c1.2.3 3.6.8 5.4 1 4 .6 5.9 1.9 5.2 3.6-.3.9-.9 1-2 .7-8.3-2.6-19.2-1.7-21.4 1.7-.4.6-.9 2.1-1.2 3.3-.4 2-.2 2.4 1.7 3.3 2.4 1.3 6.3 1.4 11.2.4 3.2-.7 9-.2 13.6 1.2 1.2.3 1.7 2.7.7 3.3-.3.2-3-.2-5.8-.7-6-1.2-5.2-1.2-14-.3-4.6.4-7.1.4-8.1-.2-.8-.4-6.3-1-12.3-1.2a67 67 0 0 1-18.9-2.8c-1 0-4.9-.7-8.7-1.6-8.1-2-21.4-2.8-21.4-1.4 0 .5.3 1 .7 1.3.4.2.7 1.7.7 3.2 0 2.3-.3 2.7-1.4 2.7-1 0-1.6-.7-2-2.6-.5-1.4-.8-3.2-.8-3.8 0-1.2-2-1.7-6-1.4l-39.5.1c-33 .1-38.4.3-41 1.2-4.4 1.7-7.4 4.3-8.8 7.6l-4.1 8.9c-4.9 10-5.4 16-1.7 18.6 1.8 1.1 4 1.2 29 1.2 52.5 0 128-1.4 138.3-2.5 3.9-.4 9-.9 11.4-1 2.5-.2 5.2-.8 6-1.4 1.9-1.2 6-.7 6.6.8.2.6-.2 1.8-.8 2.8-1 1.4-1.7 1.7-3.5 1.6-1.2-.1-2.1 0-2 .5 0 .4-1.3.7-2.9.7-4.9 0-11.3 1.1-12 2-1 1.2-5.7 2-6.3 1.1-.2-.4-1-.7-1.5-.7-.9 0-1 .2-.3 1 .6.7.3 1.6-1.4 4.2-2.5 3.7-5 5.6-8.6 6.6-5 1.4-6.6-1.4-1.7-3 1.5-.5 3.1-1.3 3.7-1.8 1-.9 1-1 0-1.6-.6-.3-1.6-.3-2.4.2-.8.4-2.2.7-3.1.7-1 0-2 .3-2.2.7-.3.4-1.2.7-2.2.7-1 0-1.7.3-1.7.7 0 .4-.9.7-2 .7a31 31 0 0 0-12.4 4.3 5 5 0 0 1-2.9 1.3c-.7 0-3.2.6-5.5 1.4-2.3.8-4.6 1.4-5.1 1.4a9 9 0 0 0-3.3 1.8 9.2 9.2 0 0 1-3.2 1.7c-2 0-8.8 4-8.5 4.9.3.7-.1.8-1.4.5-1.2-.3-2.3 0-3.5 1-1 .7-2.2 1.3-2.6 1.3a7 7 0 0 0-2.7 1.3 13 13 0 0 1-3.6 1.8c-1 .2-2.3 1.4-3.1 2.8a8 8 0 0 1-2.6 3c-.7.1-2.2 1.3-3.2 2.4-1.8 1.9-2.4 2-6.7 2-4.2 0-4.8.2-4.8 1.4 0 1.6-2.4 2.6-3.7 1.5-1.1-.9-2-.3-1.4 1 .2.7-.6.9-3.3.8-3.2 0-3.7.1-5 1.8-.9 1.2-2 2-3.1 2-1.9 0-4.2 1-5.7 2.5a4 4 0 0 1-2.5 1c-.8 0-2.8.8-4.3 1.7a55.3 55.3 0 0 1-8.1 4.3l-10 5a58.5 58.5 0 0 0-8.2 4.5c0 .2 1 2.3 2.3 4.6l3.1 5.5c2.4 4.2 8.6 17.8 9 19.4.5 2.9 1.6 2.3 1.8-1 .2-1.6.6-3 1-3.2.6-.2.8 1.8.6 6.8-.2 7.5.7 9.5 1.5 3.2.7-5.9 1.7-5.4 1.7 1 0 5.8.6 9.9 1.4 9.9.2 0 .5-3.4.5-7.5.1-9 1.4-17.3 2.6-16.9.4.2.7.7.6 1.1a74 74 0 0 0-1 19l.6 5.3.1-5.8c.2-9.6 1.6-19.8 2.7-19.8.8 0 1 .7.4 4a191 191 0 0 0-.4 17.6l.1 13.6 2.5 6.2c3.5 8.6 3.3 10.8-.7 6zm-4-19c-.8-.8-1.4.3-.8 1.2.5.8.6.8.9 0 .1-.4 0-1-.2-1.3zM664.2 850c0-.4-.2-.7-.4-.7-.1 0-.5.3-.7.7-.2.4-.1.7.3.7s.8-.3.8-.7zm-198.5-6.7c-.8-.8-3.5-1-5-.3-1.2.5-.8.6 2 .6 1.8 0 3.2 0 3-.3zm3.3-.3c.2-.4 0-.7-.7-.7-.6 0-1 .3-1 .7 0 .4.2.7.6.7.4 0 .9-.3 1-.7zm2.4 0c0-.4-.3-.7-.7-.7-.3 0-.7.3-.7.7 0 .4.4.7.7.7.4 0 .7-.3.7-.7zm-16.3-2.6c-.2-.2-.8-.2-1.3 0-.6.2-.4.4.4.4s1.2-.1 1-.4zm10.6 0c-1.5-.2-4-.2-5.6 0-1.7.1-.5.2 2.6.2 3 0 4.4 0 3-.2zm-8-2.7c0-.4-1.5-.8-3.4-.9-3.8-.2-3.8 1 0 1.5 2.7.3 3.2.2 3.4-.6zm17.6.4c-.2-.4-.9-.7-1.4-.7-.6 0-1 .3-1 .7 0 .4.6.7 1.4.7s1.2-.3 1-.7zm-8.9-.9c1-.9 1.1-4.2.4-5-.5-.5-3 4-3 5.3 0 .9 1.6.7 2.6-.3zm-2.3-4c1-1.7 1.5-3.4 1.3-3.8-.3-.3-1 .5-1.8 1.9-.7 1.3-1.6 2.7-2 3-1 .5-.9 2.5.1 2.2.5-.1 1.5-1.6 2.4-3.3zm-8.4 1.4c.2-.4-.5-.7-1.8-.7s-2 .3-1.7.7c.2.3 1 .7 1.7.7.8 0 1.5-.4 1.8-.7zm5.5-2.7 1.2-2.6-1.8 2c-1.8 2-2.3 3.3-1.2 3.3.3 0 1.1-1.2 1.8-2.7zm15.1.2c0-1.2-.3-1.2-2.6-.6-2.3.6-2 1.7.5 1.7 1.4 0 2.1-.4 2.1-1zm-26.6-.3c0-.7-2.1-1.6-2.6-1.2-.2.2-.1.7.1 1.1.6 1 2.5 1 2.5.1zm9-.6c1.4-2.4-1.6-4-3.4-1.8-.8 1-.8 1.3.4 2 1.7 1.4 2.2 1.3 3-.2zm12-3.3c.9-2.1 1-3.2.2-3.2-.7 0-2.3 3.1-2.3 4.3 0 1.3 1.2.6 2-1.1zm5.3 1c.3-.4.3-1 .1-1.1-.5-.6-3.3.4-3.3 1.2 0 .9 2.7.8 3.2 0zm-23.5-.6c0-.4-1-.7-2-.7-1.2 0-2.2.3-2.2.7 0 .3 1 .7 2.1.7 1.2 0 2.1-.4 2.1-.7zm3.5-3.8c0-1.5-1.5-4-2.3-4-.7 0-.5 3.5.3 5 .9 1.7 2 1.1 2-1zm5.5 1.5c1.2-1.2 1-2-.5-2-1.8 0-2.6-1.5-3-6.4-.5-4.4-1.7-7.1-2.8-6.5-1 .6-.2 5.4 1.6 10.2l1.7 4.7c.4 1 1.9 1.1 3 0zm-10.4-2.7c0-2-1.3-3-3.1-2.3-1.4.5-.7 1.6 1.1 1.6s1.3 1.8-.5 1.9c-2.3.2-2.5.2-2.1.8.2.4 1.3.5 2.5.3 1.8-.3 2.1-.6 2.1-2.3zm18.2.5c1.5-2.5 2-4.3.8-3.6-.7.4-2.9 4.4-2.9 5.4s.6.6 2-1.8zm7.7 1.2c0-.7-.5-1-1.5-.8-2.2.3-2.5 2-.3 2 1.2 0 1.8-.4 1.8-1.2zm-8.3-6.1c.8-1.7 1.4-3.5 1.2-4-.3-.7-.6-.6-1 .4a20 20 0 0 1-1.8 3.2c-1.3 2-1.7 4.5-.6 3.8.4-.2 1.3-1.8 2.2-3.4zm8 2.3c-.2-.3-1-.7-1.8-.7-.7 0-1.4.4-1.4.7 0 .4.9.7 1.8.7 1 0 1.6-.3 1.4-.7zm-27-2.8c-1.4-.9-4.7-.9-5.2 0-.3.5.8.7 2.9.7 2.4 0 3-.2 2.3-.7zm3.4-3c0-2 .1-4.6.4-5.9.7-3-.6-3-1.6-.2-.4 1.2-1 2.1-1.4 2.1-1.1 0-1-1 .6-4.2a13 13 0 0 0 1.4-3.9c0-2-1.5-.7-3.3 2.8l-1.8 3.3 2.3 4.9a16 16 0 0 0 3 4.8c.3 0 .5-1.6.4-3.6zM477 818c.2-.7-.3-.9-2-.7-1.3 0-2.4.6-2.6 1.1-.2.7.3.9 2 .7 1.3-.1 2.4-.6 2.6-1.1zm-9.8-2.7a26 26 0 0 0 2-7.5c.3-4 .3-4.2-.8-3-.6.8-1.4 2.5-1.8 3.9-.3 1.4-1.1 3.2-1.7 4-1.1 1.6-1 5.8.3 5.8.2 0 1.2-1.4 2-3.2zm-23.7.4c0-.4-.3-.7-.7-.7-.4 0-.7.5-.7 1.1 0 .6.3 1 .7.7.4-.2.7-.7.7-1.1zm4.1-1.4c-.6-1.7-1.1-2-2.8-2-1 0-2 .3-2 .7 0 .5.7.6 1.8.3 1.7-.4 1.8-.3 1.4 1.3-.3 1.5-.2 1.8 1 1.8s1.3-.2.6-2zm30.2 0c0-.9-3.5-.9-4.9 0-.7.5-.2.7 2 .7 1.6 0 3-.3 3-.7zm-37-1.4c0-.4-.4-.7-.8-.7-.3 0-.8.3-1 .7-.3.4 0 .7.6.7s1.1-.3 1.1-.7zm-3.6-1.7c1.1-2 .5-3-1-1.8-1.2 1-1.5 3.5-.5 3.5.3 0 1-.8 1.5-1.7zm35.5.6c-.2-.2-.8-.2-1.3 0-.6.2-.4.3.4.4.8 0 1.2-.2 1-.4zm4.7-1.8c.6-2.2-.4-3-3.4-2.4-2.8.6-3.4 2-.6 1.7 2.1-.2 3 1.2 1.2 1.7-1 .3-.7.4.5.4 1.4.1 2-.3 2.3-1.4zm-43.1 0c-.2-.3-.6-.7-1-.7-.3 0-.7.4-.9.8-.1.4.3.7 1 .7.6 0 1-.3.9-.7zm10.4-.2c-.4-1-4.9-1-5.2.1-.2.6.6.8 2.6.7 1.6 0 2.7-.4 2.6-.8zm21.3-3.7c1-2.2 2.2-5.3 2.7-6.8a37 37 0 0 1 1.8-4.6l2.8-5c1-1.9 1.7-4 1.7-5s-.8-.1-2.4 3.1c-2.6 5-3.9 6.4-3.9 4.1 0-.7 1.3-3.2 2.8-5.4 1.6-2.2 2.8-4.5 2.8-5.1 0-.8-.2-.8-.4-.1-.2.5-2 2.3-3.8 4-2.8 2.6-3.6 4-4.9 8.1-1.5 5.1-1.5 7.2 0 3.4.5-1.1 1.3-2 1.9-2 1.3 0 1.3-.2-1.5 5.4-2.3 4.5-3.3 10-2 10a13 13 0 0 0 2.4-4.1zm-30.9.5c0-.4-.3-.7-.7-.7-.5 0-.6.3-.4.7.3.4.6.7.8.7.2 0 .3-.3.3-.7zm8.4 0c0-.4-1.2-.7-2.8-.7-1.5 0-3 .3-3.2.7-.2.4.9.7 2.8.7 1.8 0 3.2-.3 3.2-.7zm14.7-5.7.2-8.1c0-2.4-2.4-5.8-4.2-5.8a36.1 36.1 0 0 1-11.1-12c-2-2.3-2.5-3.5-2.2-5a52 52 0 0 0-2.3-16.3c-.5-.6-1.7-1-2.8-1-2.6 0-3.7-2.6-4-9.2a24 24 0 0 1 1.6-10.2c1-2.8 1.7-6 1.7-7.2 0-2.3-3-6.4-4.6-6.4-.6 0-2.3-1.7-4-3.8-2.2-2.8-4-4.3-7-5.6a14.3 14.3 0 0 1-6-4.7 26.2 26.2 0 0 0-5-4.8c-1.5-1.1-3-2.5-3.3-3-.9-1.5-8.3-6.8-9.4-6.8-.6 0-1.6-1.5-2.3-3.3-.8-1.8-2.6-4.5-4.1-6.1a22.6 22.6 0 0 1-6.3-10l-2.2-7.6c-1.5-4.8-1.6-5.8-.7-6.4.8-.7.7-1.3-.4-3.9-1.2-2.5-1.4-4.6-1.5-12.2 0-8.2-.2-9.4-1.7-12.8-1-2.3-1.8-5-1.8-7 0-3 0-3-1.9-2.8-1.6.2-2 0-2.1-1.7a37 37 0 0 1 2.8-12.4c.7-1.3 1.5-1.8 2.9-1.8 3 0 3.5-1.8 3.4-11.6a49 49 0 0 0-4.3-22.4 40.6 40.6 0 0 1-3-8.1c-.4-2.3-1.4-5-2-6a8 8 0 0 1-1.4-2.5c0-.3-1-1.7-2-3a16 16 0 0 1-2.6-3.8c-.2-.7-2.1-3.4-4.2-6-2.4-3-3.8-5.3-3.8-6.5 0-3.8-16.3-24.7-21.2-27.3a265.8 265.8 0 0 0-10.3-5.2l-4.6-2.3c-1.1-.6-3.4-2-5-3.4a38.5 38.5 0 0 0-7.9-4.3c-5.9-2.5-7.2-3.5-9.7-7.8a38 38 0 0 0-8-11.2c-1-.8-2-1.9-2-2.3 0-1.1-4.2-5.5-5.4-5.5-.5 0-.9.3-.9.5 0 .3 1.8 4.2 4 8.6 3.8 7.8 4.2 8.3 11.4 14.9 4.1 3.7 8.7 7.2 10.1 7.9a50 50 0 0 1 12.6 9.8c.6.8 3.1 2.6 5.7 4 3 1.5 5.7 3.5 7.3 5.5a28 28 0 0 0 7 6.3 57.4 57.4 0 0 1 18.8 26.8c.6 2 2 5.4 3 7.5 1.2 2 2.1 4.3 2.1 5s.6 2.3 1.4 3.7a53 53 0 0 1 2.1 5 134 134 0 0 1 4.7 25.6c.4 6.9.3 7.7-1.4 12-2.8 7-2.5 9.8 1.6 17.9l3.5 6.8V643c0 7.2.4 13.4 1 16.9a46 46 0 0 1 1.1 8.4 45 45 0 0 0 6.1 17.8 78.7 78.7 0 0 0 16.2 16c.8.9 1.2.9 1.4.2.6-1.8 2-.7 4 3 1 2 2.6 4.6 3.6 5.6 1 1.1 1.7 2.3 1.7 2.7 0 .4 2.5 3.2 5.6 6.2 6.7 6.7 8.7 9.3 9.7 12.5l2.1 6.3c1 3 1.3 4.8 1 7.6-.2 2 0 4.4.3 5.3l4.6 9.6c4.7 9.6 5.3 11.7 3.7 12.3-1.6.6-1.4 5.6.3 9.2 1.3 2.8 5 6.5 6.4 6.5.7 0 .5-1.9-.5-4.5-.3-.7 0-1.1.6-1.1s2.1 1.9 3.4 4.3c1.6 2.9 3 4.6 4.5 5.3 1.7.8 2.5 1.9 3.4 4.9.7 2 1 4.4.8 5.1-.6 1.7.2 4.4 1 3.9.3-.2.6-3 .7-6.1zm-9.3 2c1-1.6 1.6-3.3 1.6-3.8 0-1.5-1.2-1-2.5 1a11 11 0 0 1-2.2 2.7c-1 .8-.4 3.9.8 3.4.4-.2 1.5-1.6 2.3-3.3zm26.1 2.3c1.6-.5 1.5-.5-.8-.6-1.5 0-2.7.2-2.7.6 0 .8 1 .8 3.5 0zm-39.2-2.2c-3.3-.4-5.4-.3-5.9.1-.5.5 1.3.7 5.2.6h6zm10.4-4.2c1.3-2 2.1-4 2-4.5-.8-2-2.5-1-4.6 2.6-1.6 2.8-1.9 3.8-1.2 4.5 1.2 1.5 1.4 1.3 3.8-2.6zm32.1 2.5c.2-.5-1-.7-3.2-.7-2.4 0-3.6.4-3.6 1 0 1.1 6.5.9 6.8-.3zm-42.9-1c-.2-.4-1.8-.7-3.5-.7s-3.1.3-3.1.7c0 .4 1.6.7 3.5.7 2.2 0 3.4-.3 3.1-.7zm18.3-2.7c-.6-1.2-1.4-2.2-1.8-2.2-.4 0 0 1.3.8 3 .9 1.6 1.7 2.6 1.8 2.1.2-.4-.2-1.8-.8-3zm-13.5.4c3.4-3.6 4.6-6.8 2.6-6.8-.9 0-4.9 5.6-4.9 6.8 0 1.2 1.2 1.2 2.3 0zm40.4-2c0-.8-5.7-.7-7 .1-.7.6-.3.7 1.8.6 2.3-.2 2.8 0 2.7 1-.1 1.2 0 1.2 1.2 0 .7-.6 1.3-1.4 1.3-1.7zm-47.7 1.1c.1-.1 0-.6-.3-1-.3-.6-.7-.6-1.2 0-.4.4-1.4.7-2 .7-.8 0-1.2.3-1 .7.4.6 3.7.3 4.5-.4zm5.2-3.8c2.1-3 2.1-5 0-4.9-2.1 0-4.7 5.8-3.2 7.2.8.9 1.2.5 3.2-2.3zm-10 .7c0-.4-.5-.7-1.1-.7-.6 0-.9.3-.7.7.3.4.8.7 1.1.7.4 0 .7-.3.7-.7zm54-1.4c0-.8-1.7-.8-4.3 0-1.4.5-1.3.6 1.3.6 1.6 0 3-.2 3-.6zm-.8-2.5c0-.2-.8-.3-1.7-.3-1 0-1.7.3-1.4.6.3.6 3.1.3 3.1-.3zm-46-2.1c1.4-2.9 1.5-4.5.3-4.5-1.5 0-3.2 3-2.8 5.1.5 2.5 1 2.4 2.5-.6zm-5.3.7c.1-.4-.7-.6-2.3-.4-1.8.2-2.3.5-1.6.9 1.2.8 3.6.5 3.9-.5zm53.8-1.6c.6-1.1-1.5-1.5-4.2-.7-1.3.3-2.5.8-2.5 1 0 .6 6.3.3 6.7-.3zm-55.2-1.3c-.7-.2-1.8-.2-2.4 0-.7.2-.2.3 1.2.3 1.3 0 1.9-.1 1.2-.3zm59-2.3c0-.8-5.8-.8-8.4 0-1.2.4-.2.6 3.4.6 3 0 5-.2 5-.6zm-54-1.8c1-2.2 1-5.2.1-5.2s-2.8 3.8-2.8 5.6c0 2 1.7 1.7 2.7-.4zm-9.2.7c-.2-.3-.8-.3-1.3 0-.6.1-.4.3.4.3.7 0 1.1-.1.9-.3zm3.7-.3c.8-.6.8-.7-.5-.7-.8 0-1.7.3-2 .7-.5.9 1.1.9 2.5 0zm51.1-1.6c0-.4-.4-.3-1 .2s-1 1.2-1 1.6c0 .3.4.3 1-.2s1-1.2 1-1.6zm11.5-.6c-.6-.5-2-.5-4.5 0l-3.8.6 4.5.1c3.3 0 4.3-.1 3.8-.7zm-28.3-3.8a91.1 91.1 0 0 1 10-19.5c1-1.6 2-3.4 2-4 0-.6.5-2 1.2-2.8a30 30 0 0 0 4.7-9.7c-.6-.5-3 2.6-5 6.4-2.5 4.8-13.8 24-15.8 26.8-2.7 3.8-2.6 4.6 1 5.2.2 0 1-1 1.9-2.4zm15.6.4c1.5 0 2.3-1.2 3.7-5.6a53.2 53.2 0 0 1 3.6-8.4c-.5 0-6.8 9.6-6.8 10.4 0 .3-.6 1-1.3 1.6-.7.5-1.5 1.7-1.8 2.7-.4 1.6-.3 1.6.6.5.5-.7 1.4-1.2 2-1.2zm11.8.7c2-.5 1.5-.6-2.5-.6-3.5-.1-5.4.2-6.3 1-1.3 1-1 1 2.5.6l6.3-1zm-63.5 0c-.3-.5-1.5-.7-2.8-.5-1.8.3-2.6 0-3-.7-.4-.6-1-.9-1.5-.6-.6.4-.6.7 0 1.5 1 1.2 8 1.4 7.3.2zm6.2-2.8c2.1-3.8 2.5-7 .8-7-.5 0-1 .3-1 .7 0 .5-.6 1.6-1.4 2.6-1.4 1.7-2 7.2-.9 7.2.3 0 1.4-1.6 2.5-3.5zm27-5.2c2.4-3.7 4.3-6.8 4.3-7a30 30 0 0 1 2.5-4.2c1.3-2.2 2.4-4.2 2.4-4.5 0-.4 1.1-2 2.5-3.7 1.3-1.7 2.4-3.6 2.4-4.1 0-1.6-3.3 1.9-4.8 5.1-1.9 3.8-5.5 8.2-6.8 8.2-.6 0-1 .4-.8.9 0 .5-1 2.5-2.6 4.6-5 6.7-5.4 7.4-4.6 9.4.4 1 .8 1.9 1 1.9.1 0 2.2-3 4.5-6.6zm40.4 4.5c.5-.8-14.7-.6-15.5.2-.3.2 3 .5 7.3.5s8-.3 8.2-.7zm-74.3-1.4c-.2-.4-2-.7-3.9-.7-2.6 0-3.4-.3-3.4-1 0-.9.8-1.1 3.2-1.1 2 0 3-.3 2.7-.7-.4-.8-3.3-1-5.7-.3-1.8.5-2.1 2.3-.8 3.6 1 1 8.6 1.2 8 .2zm5-4.6c2-4.6 2-5.2.4-5.2-1.7 0-4 4.8-3.3 7.3.2 1 .6 1.8.8 1.8.2 0 1.1-1.8 2-3.9zm73 2.8c.3-.2-2.8-.3-6.7-.2-6.8 0-8.7-.2-7.6-1.3a38 38 0 0 1 6.6-.7c6.2-.2 10-1.2 10-2.5 0-.5-1.9-.6-5.4-.3l-7.3.5c-1.3 0-2.7.7-4.1 2.2a10.6 10.6 0 0 0-2.1 2.9c0 .6 16 0 16.7-.6zm-22.4-5.8c1.3-1.7 2.2-3.2 2-3.4-.4-.4-6 7.5-6 8.5 0 .4.4.1.9-.6l3.1-4.5zm15.2-1.6c2.8 0 5.3-.1 5.5-.4.2-.3-2-.6-5-.7-2.8 0-5.5-.4-6-.9s1-.7 6-.7c5.7 0 6.9-.2 6.9-1.1 0-1-1-1-6.8-.9l-6.9.2-2.9 5.3c-1.6 2.9-3 5.5-3 6 0 .3 1.5-1.1 3.5-3.2l3.5-3.8zm-40.3 1.2c2-2.5 3.5-4.7 3.5-5 0-.1-.9-.3-2-.3-1.2 0-2.7.7-4.1 2.2-2 2-2.2 2.7-1.8 5 .2 1.4.5 2.6.6 2.6l3.8-4.5zm-35.2 1.9c-3.8-.3-4.4-1.4-1-1.8 2-.3 1.8-.3-.7-.4-2.1-.1-3 .1-3 .8 0 1.6.8 1.9 4.5 1.7h3.5zm7.5-4.8c1.3-2.4 1-4.9-.4-4.4-.5.2-1.5 1.1-2.2 2-1.1 1.5-1.2 2.2-.6 3.4 1.1 2 1.7 1.9 3.2-1zm-13-1.4c.8-.9.7-1-.2-1-.6 0-1.1.4-1.1 1s0 1 .2 1 .7-.4 1.2-1zm37.4-.9c1.3-1.4 1.8-2.4 1.5-3.5-.6-2.2-2-2-4.1 1-3.1 4-1 6.2 2.6 2.5zm-34 .8c-.2-.2-.8-.2-1.3 0-.6.2-.4.4.4.4.7 0 1.1-.1.9-.4zm69.6-1.8c0-.4-.5-.3-1 .2-.7.4-1.1 1.1-1.1 1.5 0 .4.4.3 1-.1.6-.5 1-1.2 1-1.6zm21.3 1.6c.3-.4 0-.7-.6-.7s-1.1.3-1.1.7c0 .3.3.7.6.7.4 0 .9-.4 1.1-.7zm-83.7-4.2c1.2-1.7 1.3-2.4.7-3.5-.6-1.2-1-1.3-2-.8a3.6 3.6 0 0 0-1.5 5c1 1.8 1 1.7 2.8-.7zm78.8 1c1.8-.8 1.3-1.5-1.6-2.3-4-1.2-9.6-1-10.6.2-.7.8-.7 1.1 0 1.4 2.4.8 10.6 1.2 12.2.6zm6.3-.3c.3-.4.1-.7-.3-.7s-.7.3-.7.7c0 .3.1.7.3.7.2 0 .5-.4.7-.7zm-92-.7c.7 0 1.3-.5 1.3-1.1 0-1.3-3.7-1.4-4.8-.1-1 1.1-.2 2 1.1 1.5.6-.2 1.6-.3 2.3-.3zm30.4-1.3c1.7-1.9 2.4-6.5 1-6.5-1.7 0-4.8 6.1-3.9 7.7.7 1 1 1 2.9-1.2zm-34.7-2c1.2-.2 2-.9 2-1.4 0-1.1.1-1.1-2.6-.2-2.3.8-3.1 2.1-2.4 4 .4 1 .6 1 .8-.4.1-1.1.8-1.7 2.2-2zm49 1.8c.8-.4 0-.6-3-.6-2.2 0-4 .3-4 .6 0 1 5.6 1 7 0zm39.8-3c-.1-.4-1.1-1.2-2.2-1.7-1.5-.8-2.1-.8-3-.1-1.4 1.2-1.2 2 1 2.2 3.8.6 4.5.5 4.2-.3zm-92.3-1.2c0-.3-.3-.7-.7-.7-.4 0-.7.4-.7.7 0 .4.3.7.7.7.4 0 .7-.3.7-.7zm12.5-.5c.4-.8.5-1.7 0-2.3-.5-.9-.8-.8-1.6.3-1 1.3-.8 3.2.3 3.2.4 0 1-.5 1.3-1.2zm34.5.2c0-.4-.5-.8-1.1-1-1.7-.3-3.3.5-2.8 1.4.6.9 3.9.6 3.9-.4zm8.2-.2c.4-1.3-4.4-1.1-5.5.2-.8 1-.6 1.1 2.1 1 1.7-.2 3.2-.7 3.4-1.2zm30.1-5.7c1.3-1.8 2.8-3.2 3.4-3.2 2.4 0 3.7-6.5 2-10.3-1.2-3-1.3-6.4-.3-8.3 1-1.8 0-1.8-3 0-1.5 1-1.9 1.4-1 1.4 1.7 0 1.5 1.6-.4 3.3a58.6 58.6 0 0 0-8.7 10.6c-.5.5-1.4 1.8-2.1 3-.9 1.4-1.8 2-3 2-1.4 0-2.1.7-3.4 3.2-.8 1.7-1.2 3.1-.8 3.1 1 0 6.3-3.5 6.3-4.1a45 45 0 0 1 4.9-5.6c2.7-2.8 5.7-6.3 6.8-7.9 1.2-1.8 2-2.5 2.5-2 .5.4-.1 2-1.9 4.5a21.7 21.7 0 0 0-2.5 4.6c0 1 1 .9 2-.3.6-.6 1.2-1 1.6-1 1 0 .7 1.8-.3 2.2a50 50 0 0 0-9 11c0 1.3 4.3-2.5 7-6.2zm-49 4.2c1.6-2 2-5.3 1-6-.8-.4-4.4 4.5-4.4 6 0 2.6 1.6 2.6 3.5 0zm-29.5-1.9c-.2-.2-.8-.2-1.3 0-.6.2-.4.4.4.4.7 0 1.1-.2.9-.4zm9.3-1.4c0-1.8-1.5-7.3-2.1-7.7-1-.5-5 6-4.6 7.2.3.9.7.8 1.9-.7 1.5-2 2.9-2.5 2.2-.8-.4 1 .9 3.1 2 3.1.3 0 .6-.5.6-1zm-11.6-.7c1.6-.6.6-1.7-1.7-1.7-3 0-6.3.8-6.3 1.5s6.3.9 8 .2zm84.1-.3c.3-.4.1-.7-.3-.7s-.7.3-.7.7c0 .4.1.7.3.7.2 0 .5-.3.7-.7zm-47-1.8c-.3-.7-.7-.8-1.1-.4-.9.8 0 2.4.8 1.9.4-.2.5-.9.2-1.5zm4.3 1.1c.2-.4.2-1 0-1.3-.6-1-2.5-.1-2.5 1 0 1.2 1.8 1.4 2.5.3zm52.2 0c0-.4-.3-.7-.7-.7-.4 0-.7.3-.7.7 0 .4.3.7.7.7.4 0 .7-.3.7-.7zm-62.4-3c2-2.8 2.5-5 1-5-1.3 0-6 5.9-5.6 7 .7 1.8 2.3 1.1 4.6-2zm25.8 2.2c1.2-1.2 1-2-.2-2-.6 0-1 .2-1 .3l-.5 1.4c-.5 1.3.5 1.5 1.7.3zm-3.5-1.1c.4-1.3-1-1-1.5.2-.3.7-.1 1 .4.9a2 2 0 0 0 1-1.1zm-48.4-2.1 2.4-3.7c1-1.4.2-4.9-1-4.9-.6 0-2.2 1.9-3.6 4.2-2.2 3.6-2.4 4.3-1.7 5.6 1.3 2 2.1 1.8 4-1.2zm-8.4 1.3c.9 0 1.6-.4 1.6-.8s-2-.7-4.6-.7c-3.3 0-4.5.3-4.5 1 0 .8 1.2 1 7.5.5zm76.8-7.3c2.6-3.3 4.5-6 4.3-6a41 41 0 0 0-9.4 11c-1.7 3.3.6 1 5.1-5zm-34.6 4.8c0-.7-.6-1-1.7-1s-1.8.3-1.8 1c0 .6.7 1 1.8 1 1 0 1.7-.4 1.7-1zm-52.1-2.3c-.8-.8-1.3.5-.8 1.7.6 1.2.6 1.2.9 0 .2-.7.1-1.5-.1-1.7zm42.7-1.3c3-3 4-5.2 2.2-5.2-1.1 0-3.5 2.6-5 5.4-2 4.1-1.3 4 2.8-.2zm29.8 3c0-.8-1.4-1.1-1.8-.5-.2.4 0 .7.7.7.6 0 1-.1 1-.3zm8-.5c.3-.4.4-1 .2-1.1-.6-.5-6.1.6-6.1 1.2 0 .9 5.4.8 6-.1zm-71.1-.7c0-.4-1.4-.7-3.2-.7-1.7 0-3.1.3-3.1.7 0 .4 1.4.7 3.1.7 1.8 0 3.2-.3 3.2-.7zm97.7 0c.3-.4 0-.7-.6-.7s-1.1.3-1.1.7c0 .4.3.7.6.7.4 0 .9-.3 1.1-.7zm-93.5-2c0-.7-.5-1.7-1-2.2-1-.7-1.1-.5-1.1 1.2 0 1.2.2 2.3.4 2.5.8.8 1.7-.1 1.7-1.5zm39.2 0c0-.5-.3-.8-.6-.8-.4 0-.9.3-1.1.7-.3.4 0 .7.6.7s1.1-.3 1.1-.7zm20.9-1.6c-.4-1-1.6-.8-1.8.4-.2.8.1 1 .9.7.6-.3 1-.8.9-1.1zm-67.6.3H404c-1.2.2-.2.3 2.3.3s3.5-.1 2.3-.3zm70.6-.2c0-.4-.2-.7-.4-.7-.1 0-.5.3-.7.7-.2.4 0 .7.3.7.4 0 .8-.3.8-.7zm2.8-.8c0-.3-.4-.5-.7-.2-.4.2-.7.7-.7 1.1 0 .4.3.5.7.3.3-.3.7-.8.7-1.2zm3.8.1c.3-.4 0-.7-.6-.7s-1.2.3-1.5.7c-.2.4 0 .7.6.7s1.3-.3 1.5-.7zm-72.3-2.4c.2-.5 0-1.3-.3-1.8-.5-.9-.7-.9-1.3 0-1 1.6-.9 3.5.3 3 .5-.1 1.1-.7 1.3-1.2zm6.8-1.2c0-1-2.1-1.5-3-.8-.4.5-.4 1.3.2 2.4.8 1.5 1 1.5 1.8.3a5 5 0 0 0 1-2zm26-3.3c0-.8-.5-1.5-1-1.5-1.2 0-3.3 3.7-3.3 6v1.8l2.1-2.4c1.2-1.3 2.1-3 2.1-4zm-38.3 4.8c-.2-.4-2.3-.7-4.5-.7-2.3 0-4.3.3-4.6.7-.3.5 1.4.7 4.6.7 3.1 0 4.8-.2 4.5-.7zm45.6 0c.3-.4.3-1 0-1.2-.5-.6-3.9.5-3.9 1.2 0 1 3.3 1 4 0zm27.8-4.7c1-1.3 0-1.1-1.3.2a2 2 0 0 0-.6 2.3c.5 1 .6 1 .9-.2a7 7 0 0 1 1-2.3zm-85 2c0-.5-.4-.8-1-.8s-1 .3-1 .7c0 .4.4.7 1 .7s1-.3 1-.7zm8-1c-.4-.3-2-.4-3.4 0-3.2.5-2 1.4 1.5 1 1.6-.1 2.2-.5 1.8-1zm6.8-.6c.6-1 .6-1.7 0-2.2-1-1-4 1.8-3.2 3 .8 1.2 2.4.8 3.2-.8zm40.6.2c0-.4-.3-1-.7-1.2-1-.6-3 .2-2.4 1.1.5.9 3.1 1 3.1 0zm2.8 0c0-.5-.3-.8-.6-.8-.4 0-.9.3-1.1.7-.3.4 0 .7.6.7s1.1-.3 1.1-.7zm-37.8-1c0-.6-.5-1.2-1-1.4-.8-.3-1.1 0-1.1 1 0 .7.5 1.3 1 1.3.6 0 1-.4 1-1zm-19-.5c1-.5.8-.7-.5-.7-.8 0-1.5.3-1.5.7 0 .9.7.9 2 0zm87.7-.7c0-1-.4-1.2-1-1-.7.3-1.1.9-1.1 1.4 0 .6.4 1 1 1s1-.6 1-1.4zm4.2-1.6c0-.4-.7-.1-1.4.5-.8.7-1.2 1.6-1 2 .5.7 2.4-1.3 2.4-2.5zm-80.6-2.5a6 6 0 0 0-1-2.6c-1-1.3-1-1.3-2.4.4-2.2 2.7-2.5 4.1-1 5.7 1.2 1.4 1.2 1.4 2.8-.4.9-1 1.6-2.4 1.6-3.1zm84.4 2.1c-1.5-.3-2.8 1-2 2 .3.6.8.4 1.8-.5 1.3-1.1 1.3-1.3.2-1.5zm-49.7 0c1-1.3 1.3-3.6.5-3.6-1.1 0-2.3 1.7-2.3 3.3 0 2 .6 2 1.8.4zm10-1.5c-.2-.5-.6-.5-1.6.2-.8.6-1 1.3-.7 1.9.4.6.7.6 1.5-.2.6-.6 1-1.4.8-1.9zm53 2.1c.3-.4.1-.7-.3-.7s-.7.3-.7.7c0 .4.1.7.3.7.2 0 .5-.3.7-.7zM391 720.7c.9-1 .8-1.1-.3-.9-.8.1-1.5.6-1.7 1.1-.4 1.3 1 1.1 2-.2zm9 .3c0-.8-5.2-2-6.5-1.6-.6.3-1.1.9-1.1 1.4 0 .7 1 1 3.8.8 2.1 0 3.9-.4 3.9-.6zm49.1.1c0-.4-.3-.7-.7-.7-.4 0-.7.3-.7.7 0 .4.3.7.7.7.4 0 .7-.3.7-.7zm-61.3-.7c-.2-.4-.7-.7-1.1-.7-.4 0-.5.3-.3.7.3.4.8.7 1.2.7.3 0 .5-.3.2-.7zm108.3-1.7c0-.6-.3-1.1-.7-1.1-.4 0-.7.5-.7 1 0 .6.3 1.1.7 1.1.4 0 .7-.5.7-1zm14-4.8c0-2.3.4-2.8 4.4-5.5a25 25 0 0 1 7.1-3.5c1.6-.3 6.5-1.8 11-3.3a156 156 0 0 1 12-3.6c2.2-.5 4.1-1.4 4.3-1.9.2-.5 1-1 1.7-1 1.6 0 4-1.7 3.2-2.2-.3-.2-1.6-.6-2.7-.8-2-.4-2.2-.3-2.1 1.1 0 .9-.3 1.6-.7 1.6-.4 0-.7-.7-.7-1.5v-1.6l-17.9.4a290 290 0 0 1-32.7-.1c-2.5-.3-4.4-.3-4.4 0 0 .2 1.7 3.3 3.8 6.8 2.1 3.5 3.9 6.5 3.9 6.7a62 62 0 0 0 3.8 5.8c2 3 4 6.3 4.3 7.2l.5 1.6.5-1.8c.3-1 .6-3 .6-4.4zm-105.5 1.9c1.8-3 1.9-3.3.8-4.4-1.1-1-1.3-1-2.6.6-1.8 2.3-2.9 5-2.4 6 .7 1.9 2.4 1 4.2-2.2zm100.6 2.5c0-.4-.3-.7-.7-.7-.5 0-.6.3-.4.7.3.4.6.7.8.7.2 0 .3-.3.3-.7zm-111.3-.7c.7 0 1.3-.4 1.3-.8 0-.5-1.6-.6-5.4-.3-4.3.4-5.2.4-5-.4.2-.5 1.8-1.2 3.7-1.4 5-.7 4.7-1.2-.4-.8-6.4.5-6.5.5-5 2.7 1 1.8 1.4 1.8 5.3 1.4l5.5-.4zm56.6-.7c0-.4-.7-.7-1.7-.7s-1.8.3-1.8.7c0 .4.8.7 1.8.7s1.7-.3 1.7-.7zm-8-3.8c-.6-1.4-1.7-1.2-2.8.5-.5 1-.5 1.4.3 1.9 1.4.9 3-.7 2.4-2.4zm-42 0c2.5-3.7 2.4-5.6 0-8.3-2.6-2.7-4.2-2.4-6.7 1-2.5 3.5-2.6 3.8-.6 4.5 1.2.4 2 0 3.4-1.7 1-1.2 2-2.2 2.3-2.2 1 0 .4 2-1 3.8-1 1.3-1.3 2.4-1 3.6.6 2.3 1.8 2.1 3.7-.7zm50 0c0-.6-.3-1.1-.6-1.1-1 0-1.5 1-1 1.6.8.8 1.6.5 1.6-.6zm-4.2-.4c0-.4-.3-.7-.7-.7-.4 0-.7.3-.7.7 0 .4.3.7.7.7.4 0 .7-.3.7-.7zm-59-.7c2.3 0 3.6-.3 3.3-.7-.5-.9-9.9-1-10.4-.1-.6 1 .5 1.6 2 1.2.8-.2 3-.4 5.1-.4zm52-.8c2.5-2.7 1.6-3.6-1.3-1.4-1 .7-1.5 1.7-1.2 2.1.7 1 .9 1 2.5-.7zm-2.5-3c1.4-2.2 1.4-3 0-3.5s-4.8 2.6-4.3 4c.7 1.7 3 1.4 4.3-.5zm10.6 1c.2-.4-.4-.7-1.4-.7-1 0-1.7.3-1.4.7.2.4.9.7 1.4.7a2 2 0 0 0 1.4-.7zm-61-.4c2-.8.3-1.7-3.5-1.7-3.5 0-5 .6-4 1.6.5.6 6 .6 7.5 0zm6.3-5c1.9-3 2-3.2.8-4.3-1.1-1.1-1.3-1-3.2 1.3-2.3 2.6-2.6 4.1-1.3 5.4 1.3 1.3 1.4 1.2 3.7-2.3zm-11.9 1.1c2.7-.5 2.6-.5-1-.4-2.5.1-3.9.5-4.1 1.1-.2.8 0 .9 1 .4.7-.3 2.6-.8 4.1-1zm51.9-.4c1.7-1.6 1.7-1.9.7-3-1-1-1.2-.9-3 .8-1 1.1-1.6 2.3-1.3 3 .6 1.5 1.5 1.4 3.6-.8zm12.2.1c0-.6-.6-1-1.7-1-1.8 0-2.4 1-.9 1.6 1.7.7 2.6.5 2.6-.6zm-56.8-4.2c2.2-3.2 2.3-4.5.4-4.5-1.6 0-4.5 5-3.7 6.5.3.6.7 1.2.9 1.2.2 0 1.2-1.5 2.4-3.2zm-8.3 1.9c1-.3 1.4-.7 1-.9-1.1-.6-8 .2-7.6.8.4.8 4 .8 6.6 0zm49.3-1c1.7-2.3 1.4-3.3-.9-3.3-2 0-4.2 2.6-3.3 4.1.8 1.3 3 .9 4.2-.8zm10.2-.2c0-.7-.6-1-1.9-1-1.8 0-1.9 0-.6 1 1.8 1.4 2.5 1.4 2.5 0zm4.2-.3c0-.4-.4-.7-1-.7s-1 .3-1 .7c0 .4.4.7 1 .7s1-.3 1-.7zm-69-1.2c2.7-.3 3.7-.6 3-1-1.3-.8-13.1 0-13.1.8 0 .7 2.7 1.3 4.5 1l5.5-.8zm10.6-3.5 1.7-3-2-2.3a40.5 40.5 0 0 1-3.5-4.6l-1.4-2.4-1.8 2.7c-2.1 3.1-2.2 3.5-.8 4 .8.3 1.3-.1 1.8-1.3.3-1 1-1.7 1.4-1.7 1 0 .8 1-.3 3.4-1.2 2.2-.8 5 .7 5 .5 0 1-.7 1.3-1.4.5-1.6 1.8-2 1.7-.6 0 .5-.4 1.5-1 2.3-1.2 1.5-1.4 3.4-.3 3 .4 0 1.5-1.5 2.5-3.1zm39.8 1.5c2.4-3.4 0-5-3.3-2.4-2 1.6-2.4 3.1-1 3.7 1.8.7 3 .4 4.3-1.3zm-51.6-1c2.4 0 4.4-.3 4.4-.7 0-.4-3.4-.6-8.6-.4-10.3.3-9.7.2-9.7 1 0 1 2 1.2 6 .7 2-.3 5.5-.5 7.9-.6zm66 .7c0-.4-.4-.7-1-.7s-1 .3-1 .7c0 .4.4.7 1 .7s1-.3 1-.7zm-19.1-3.3c1-1 1.6-1.9 1.5-2-4.9-3-5.2-3-5.8-1.1-.5 1.5.9 5 2 5 .3 0 1.4-.9 2.3-1.9zm15 .5c0-.9-1.3-.9-3.2 0-1.2.5-1 .6.8.6 1.3 0 2.3-.2 2.3-.6zm-62.2-1.2c1.8-.2 3-.7 2.9-1-.8-1.2-22.8-.3-22.8.9 0 .7 15.1.8 19.9.1zm-37-1.7c3-1.4 2-1.7-3.5-1-2.9.3-5 .9-4.9 1.2.6.9 6.3.7 8.3-.2zm30.3-1.8c4-.2 7.2-.6 7.2-.7 0-.2-.5-1.3-1.2-2.5l-1-2.2-10.7.5c-16.6.8-22.1 1.3-23.4 2.3-1 .8-.4.9 4.4.6 23.6-1.5 29.2-1.8 29.8-1.4 1.6 1-.5 1.6-7.6 2-11.3.7-15 1.2-14.4 2 .3.5 2.2.6 5 .3l11.9-.9zm-34.2-1c1.5 0 3-.3 3.2-.7.4-.6-.9-.7-5-.4-3 .3-5.7.7-5.9.9-.8.8 1.8 1.5 3.3.9 1-.4 3-.6 4.4-.6zm98.8.8c0-.4-2-.7-4.5-.7-2.6 0-4.6.3-4.6.7 0 .4 2 .7 4.6.7 2.5 0 4.5-.3 4.5-.7zm-15-.8c.5-.8-1.4-2.7-2.6-2.7-.7 0-1.4 2-1 2.8.6 1 3 .8 3.6-.1zm-89-2.4 4.2-.9H326c-4.1-.1-5.1 0-5.1 1 0 1.2.5 1.2 6 0zm50-1.7c1.5-3 2-5.7.8-5.7-.9 0-3.7 6.4-3.3 7.5.6 1.5 1 1.2 2.5-1.8zm48.2 1.6c.2-.4-1.5-.7-4-.7-3.9 0-4.2.1-3 1 1.4 1 6.6.8 7-.3zm70.3 0c0-.6-.7-1.2-1.4-1.5-2.5-.6-1.4-2.6 1.7-3l8.8-2c5-1.4 6.4-2.1 8.5-4.3a79.9 79.9 0 0 0 22.1-24c1-1 1.6-1.9 1.3-1.9-1.6 0-7.3 3.3-10.3 5.9a87.6 87.6 0 0 1-8.8 7.3 71 71 0 0 1-17.3 6.7c-6.4 1.5-7.8 2.9-2.5 2.3 2.6-.2 6.1-1.4 10-3.2a41 41 0 0 1 7.1-2.9 22 22 0 0 0 6-3.5c4.9-3.4 6.3-4.1 6.3-2.8 0 .5-1.5 1.8-9 7.6-3.5 2.6-10.2 5.7-11.7 5.3-1.5-.4-8.8 3.2-9.3 4.6-.3 1 2.2 1 4.6-.2a88.3 88.3 0 0 0 9.5-4.2c2.2-1.2 4.3-1.9 4.5-1.6.5.5.7.3-3.4 3.1a13.5 13.5 0 0 1-4.6 2.3c-.7 0-2.8.7-4.8 1.7-3.6 1.8-9 2.3-9.8 1-.3-.5 0-1.1.6-1.5a6 6 0 0 0 2-2c.7-1.4.6-1.5-1.3-1-1.5.3-2.4 0-3.5-1-1.9-1.8-6.4-2-8.3-.4-1 .8-1.1 1.2-.5 1.5.5.2.9.6.9 1a44 44 0 0 0 3.6 6.2c3.5 5.5 3.7 5.7 6.3 5.7 2 0 2.7-.3 2.7-1.2zm23.1-1.2c0-1-.2-1.2-.8-.6-.4.4-1.2.6-1.7.4-.6-.3-1 .1-1 1 0 1 .4 1.3 1.8 1 1.2-.2 1.7-.8 1.7-1.8zm-107.3.1c1.3-1.3 1-2-.8-1.8-.8.1-1.6.8-1.8 1.4-.2 1.4 1.3 1.7 2.6.4zm135.5.4c-.5-.2-1.2-.2-1.7 0s-.1.3.8.3c1 0 1.4-.1 1-.3zm-14.8-2.8c-.6-1.1-.7-1-.7.8 0 1.5.1 1.8.7 1.3.6-.6.6-1.2 0-2.1zm-110.8-.3c0-.8-2.6-.8-3 0-.3.3-.3.7 0 1 .5.5 3-.3 3-1zm125.7-.2c.9 2.2 1.5.3 1.3-3.8-.2-3.3-.5-4.2-1.3-3.9-.6.2-1 1.4-1 3.1 0 2-.3 2.7-1 2.7-1.3 0-2 1.3-1.4 2.7.4 1 .6 1 1.7-.4 1.1-1.3 1.4-1.3 1.7-.4zm-139.2-.1c.2-.6.2-1.3 0-1.5-.7-.7-3.3.5-3.3 1.6 0 1.3 2.7 1.2 3.3-.1zm8 .4c0-.4-.6-.7-1.2-.7s-.9.3-.6.7c.2.3.7.7 1 .7.4 0 .7-.4.7-.7zm-40.7-3c1.4-3 1.8-6.2.8-6.1-.7 0-3.7 6.3-3.6 7.8 0 2.2 1.3 1.4 2.8-1.7zm28.7 0c1.4-1.5 2-5.5.8-5.5-.8 0-5 4.8-5 5.6 0 .6 1.1 1.3 2.2 1.4.3 0 1.2-.6 2-1.5zm11.7.2c1 0 1.6-.4 1.6-.8 0-.8-6-.9-6.6 0-.6 1 .5 1.6 2 1.2.8-.3 2.2-.4 3-.4zm-13.8-6.1c1.8-2.5 2.2-3.5 1.6-4.4-.4-.6-1-1-1.3-1-1.1.1-4.7 6.5-4.2 7.6.6 1.7 1.4 1.2 3.9-2.2zm8.2 1.4c-.2-.2-1-.2-1.7 0-1 .4-1 .6-.2 1.2 1.1.6 2.7-.4 2-1.2zm6.5.8c0-.7-.6-1-1.7-1-1.9 0-3 1-1.6 1.6 1.8.7 3.3.4 3.3-.6zm-42.4-2.9c1.7-3.2 2.7-10.6 1.1-9a23.7 23.7 0 0 0-4.4 10.3c.4 2.8 1.2 2.4 3.3-1.3zm36.6-.7c-.6-.2-1.7-.2-2.4 0-.7.1-.1.3 1.2.3 1.4 0 2-.2 1.2-.3zm-11.5-3.5c2.4-3 3.1-4.6 2.8-6-.4-1.6-1-1.6-2.4 0-2.1 2.3-3.6 5.6-3.2 6.7.6 1.6 1.1 1.4 2.8-.7zm8.6.4c-.3-.4-.8-.7-1.2-.7-.4 0-.5.3-.2.7.2.4.7.7 1 .7.5 0 .6-.3.4-.7zm4.9 0c.2-.4-.3-.7-1-.7-.8 0-1.5.3-1.5.7 0 .4.5.7 1 .7a2 2 0 0 0 1.5-.7zm-40.4-3.8c1-1.8 2-3.2 2.3-3.2.3 0 .6-1.3.6-2.8 0-3.8-1.2-3.4-3.7 1.5-1.8 3.5-2.6 7.6-1.4 7.6.3 0 1.3-1.4 2.2-3.1zm128.8 1.4c1.4-.6 3.1-1 3.8-.7a5 5 0 0 0 3.2-.6c1.1-.6 3.5-1.8 5.5-2.6 6-2.7 1.6-2.4-5.2.3a41 41 0 0 1-7.9 2.6c-.9 0-2.6.4-3.7 1l-2.1 1h1.9c1 0 3-.4 4.5-1zm-92.6-.4c.2-.4-.5-.7-1.7-.7s-2.2.3-2.2.7c0 .4.8.7 1.7.7 1 0 2-.3 2.2-.7zm-10.3-4.7c.8-1.4 1.4-3 1.2-3.6-.4-.8-1-.5-2.9 1.6-2.3 2.5-2.9 4-2 4.8.8.8 2-.2 3.7-2.8zm11.3 2c0-.5-.3-.8-.7-.8-.4 0-.7.3-.7.7 0 .4.3.7.7.7.4 0 .7-.3.7-.7zm-38.9-5c.7-1.5 1.7-3.1 2.2-3.6 1.2-1 1.3-6.2.1-6.1-1.4 0-5.3 8.6-5 10.7.6 2.5 1.3 2.3 2.7-1zm25.4-1.4c2.3-2.8 2.6-4.1 1.3-4.6-1.4-.5-4.6 3-4.6 5.1 0 2.2 1.4 2 3.3-.5zm7.7.3c-.2-.2-.8-.3-1.3 0-.6.2-.4.3.4.4.7 0 1.2-.2 1-.4zm4.8-1c.7-2.2 0-2.3-1.8-.3-1.6 1.7-1.6 1.7-.2 1.7a2 2 0 0 0 2-1.4zm-39-5.8c1.6-3.4 2-6.8.6-6.8-1.3 0-3.8 5.6-3.5 7.9.4 2.7 1.2 2.4 3-1.1zm25 0c2-2.6 2.4-5.4 1-5.4s-4.2 4.1-4.2 6.2c0 3 .7 2.8 3.2-.8zm9.6 1.1H402c-.5.2 0 .4 1 .4.9 0 1.3-.2.8-.4zm2.2-2.3c.4 0 .4-.2 0-.7-.7-.7-6.6-.1-6.6.7 0 .3 1.3.5 3 .3l3.6-.3zm-3.9-4c.2 0-.7-.2-1.9-.2s-2.2.3-2.2.7c0 .6 3.3.3 4.1-.4zm-7-5.3c.1-1.8-1.1-1.5-3 .7-1.7 2-2.2 3.7-1.3 4.6.6.7 4.3-3.8 4.4-5.3zm11 4.2-.4-2.3c0-.3-.3-.2-.7.4-1 1.6-.8 3.5.4 3.5.9 0 1-.4.8-1.6zm-37.5-4c0-1.8-2-2.7-2.9-1.3a10 10 0 0 0-.6 3.7v2.8l1.7-2c1-1 1.8-2.5 1.8-3.3zm4.9-.5c0-2.4-.1-2.5-1.1-1.5-.8.7-1 1.7-.7 2.6.7 2.4 1.8 1.7 1.8-1.1zm-23.3 0c-.7-.2-1.8-.2-2.5 0s-.1.3 1.2.3c1.4 0 2-.1 1.3-.3zm5.6 0c-.7-.2-1.8-.2-2.5 0-.6.2 0 .3 1.3.3s1.9-.1 1.2-.3zm36.4-1.7c2.3-2.3 3-4.1 1.5-4.1-1 0-4.8 4.2-4.8 5.4 0 1.4.8 1 3.3-1.3zm9 1.4c.6-1-1-2-2.5-1.8-.6 0-1.1.7-1.3 1.4-.1.9.3 1.2 1.6 1.2 1 0 2-.4 2.2-.8zm3.8-2.6v-1.9l-1.3 2.1c-1.4 2.3-1.2 3.7.3 2.4.6-.4 1-1.6 1-2.6zm-39.5-3.2c-.3-1-.8-1.8-1.2-1.8-.4 0-.6.5-.4 1 .3.7.5 1.9.5 2.7 0 1 .2 1.3.8.7.4-.5.5-1.6.3-2.6zm6.6 1.5c1.5-1.8 1.6-2.5.7-4-.6-.9-1-.8-2.4.6-1.8 1.7-2.3 3.6-1.4 4.5.9.8 1.8.5 3.1-1zm29.8.2c.6 0 1-.3 1-.7 0-.8-3-1-5.4-.3-2.3.6-1 1.9 1.4 1.4a22 22 0 0 1 3-.4zm-10.4-2.1c.6-1.2 1.4-2.1 1.7-2.1.7 0 2.3-4.2 1.7-4.7-.2-.3-1 0-1.7.7-.7.6-1.6 1.2-2 1.2-.8 0-2 2.3-2.6 5-.6 2.7 1.2 2.6 2.9-.1zm-36.8.9c-.8-.2-2.4-.2-3.5 0-1 .1-.3.3 1.6.3 2 0 2.8-.1 2-.3zm45.5-2.3c.8 0 1.2-.3 1-.7-.6-.9-5.3-1-5.3-.1 0 1 1 1.5 2 1.2a8 8 0 0 1 2.3-.4zm3.9-1.6c-.2-.5-.4-.3-.4.5 0 .7.1 1.1.3.9.3-.2.3-.8 0-1.4zm-35.2-.5c.3-.8.8-1.4 1.1-1.4.4 0 .7-.8.7-1.8s-.4-1.7-.9-1.7c-1.1 0-3.9 4.3-3.5 5.4.5 1.4 2.1 1 2.6-.5zm-13.7-.5c.2-.1-1.4-.2-3.5-.2-3 .1-3.4.2-2 .7 1.5.4 4.7.2 5.5-.5zm5.1 0c-.4-.2-1.2-.2-1.7 0s-.1.4.9.4 1.3-.2.8-.4zm43-2c.5-.6 1-2.1 1-3.4-.2-2-.2-2-.5-.3-.1 1.1-.7 2-1.1 2l-3.3.2c-1.7 0-2.5.5-2.7 1.3-.2 1 .3 1.3 2.6 1.3a7 7 0 0 0 4-1.1zm-44.9-.3c2.1-.4.7-.6-5.6-.6-4.6 0-9 .2-9.8.6-1.8.8 11.6.8 15.4 0zm8.5-2.5c1-2 1.1-2.7.4-4.7-.4-1.3-.8-3-.8-3.6 0-1.3-.8-1.5-2-.3-.9.9-1.2 9.8-.4 10.6.9.9 1.4.5 2.8-2zm26.2-.2c1.8-1.8 3.4-5.7 2.3-5.7a6 6 0 0 0-2 1.4c-2.7 2.5-2.6.2 0-2.7 2.3-2.6 3.3-5 2-5-2 0-5.8 7.9-5.8 12 0 2.5 1 2.5 3.5 0zm9-2c.1-.6-.7-.8-2.6-.8-2 0-2.9.3-2.9 1 0 1.3 5 1 5.4-.2zm-43.7-.2c.3-.4-.2-.7-1-.7-.7 0-1.6.3-1.8.7-.2.4.2.7 1 .7s1.6-.3 1.8-.7zm43.8-2.9c1.4 0 1.3-.2-.7-.7-2.7-.7-4.2-.4-4.2.8 0 .5.6.7 1.6.4.9-.2 2.3-.5 3.3-.5zm0-3.8c0-1.1-.6-1.3-2.4-.6-1.7.6-1.3 1.7.7 1.7 1 0 1.7-.4 1.7-1zm3.5-1.5c0-.6-.3-.8-.7-.6-.4.2-.7 1-.7 1.5 0 .6.3.8.7.6.4-.2.7-.9.7-1.5zM366 611c3-4.7 5-10.5 4.4-12.2-.5-1.3-.6-1.3-1.6 0a43 43 0 0 0-2.7 4.8c-1 1.8-2.2 3.6-2.8 3.9-1 .5-1 1.3-.7 3.9.3 1.8.6 3.3.8 3.3l2.6-3.7zm37.6 1.1c.1-.1-.4-.2-1.1-.3l-3-.4c-1-.3-1.5-.1-1.5.8 0 1 .5 1 2.6.6 1.5-.2 2.8-.5 3-.7zm-7.6-4c.9-1.8 1.3-3.5 1-3.8-.8-.8-3.9 3.2-3.9 5.1 0 2.7 1.3 2 3-1.4zm6.5 1.2c2-.7 1.2-1.7-1.3-1.7-2.4 0-3 .6-2 1.7.6.6 1.9.6 3.3 0zm-38-6.9c1.5-2 2.7-4 2.7-4.2a7 7 0 0 1 1.4-2c1.4-1.4 2-6.3.8-7-.4-.3-3.4 3.6-8.3 11-1.4 2.3-1.6 3-1 4.4.4 1 1 1.6 1.3 1.6a16 16 0 0 0 3.1-3.8zm39.8 2.5c0-.6-2.4-1.4-4.4-1.4-.6 0-1.2.4-1.2 1 0 .8.8 1 2.8 1 1.6 0 2.8-.2 2.8-.6zm-49.7-1.8c0-.7-1.4-1-1.8-.4-.2.4 0 .7.7.7.6 0 1 0 1-.3zm44.9-5.5c.4-1 .6-2.1.3-2.4-.8-.8-5.3 4.2-5.3 6v1.6l2-1.6c1.2-.9 2.5-2.5 3-3.6zm7.6 2.7c0-.9-4.5-1.4-5.7-.6-1.2.7.4 1.4 3.3 1.4 1.3 0 2.4-.4 2.4-.8zm-44.7-5.3 4.8-7.3c1.4-2.2 1.7-4.3.8-5.8-.6-1-6 5.7-10 12a14 14 0 0 1-2.5 3.4c-.5.4-1 1-1 1.3 0 .8 2.8 2 4 1.8.3-.1 2.1-2.6 4-5.4zm-6.7-.9a122.6 122.6 0 0 1 9.4-13.4c0-.5.4-1.3 1-1.8 1.1-.9 1.5-5.3.5-5.9-.3-.1-2 2-3.7 4.7a77.4 77.4 0 0 1-6 8.1c-3.4 4-7.2 9.7-7.2 10.9 0 .5.2 1.1.4 1.4 1.3 1.2 3 0 5.6-4zm39.8 2c5.2-5.7 6-6.7 6-7.7 0-1.7-.8-1.3-5 2.6-2.6 2.4-4.1 4.3-4.1 5.3 0 2 1.2 2 3-.1zm11.9 0c-.3-.6-.9-1-1.5-.8a7 7 0 0 1-2.7.4c-3 0-1.8 1.3 1.3 1.6 3.6.2 3.5.3 2.9-1.2zm-56.4-6a43 43 0 0 1 4.5-5.7c1.3-1.3 3.6-4.6 5.3-7.4 1.6-2.8 3.2-5.2 3.6-5.5.9-.5.9-2.9 0-3.5-1.2-.7-2.8 1.1-7 7.4-4 5.8-5.6 7.3-5.6 5 0-.8 2-4 4.5-7a45.2 45.2 0 0 0 5.6-7.8c1.2-1 1-1.9-1-6.8-.6-1.7-1.4-3-1.8-3-.5 0-2.3 2.1-4.1 4.8-2.7 3.8-3.2 5.1-2.9 6.6.3 1 .7 1.9 1 1.9.8 0 5-6 5-7.2 0-1.3 1.9-2.1 2.5-1.1.4.6-5 9.5-9 14.7-1 1.4-2 3-2 3.4 0 .4-1 1.8-2.3 3-2.8 2.7-3.6 4.6-2.2 5.2.6.2 1 1.1 1 2.1 0 2 1.2 4.4 2.1 4.4.3 0 1.6-1.5 2.8-3.4zm-4.1-3.3c0-1 1.3-2.6 1.7-2.2.5.6-.3 2.7-1.1 2.7-.4 0-.6-.2-.6-.5zm60.6 6.1c1-.4.5-.6-2-.6-1.8 0-3.3.2-3.3.6 0 .9 3.3.9 5.3 0zm-14-2.2a55 55 0 0 1 5.3-4.5c3-2.3 4-3.6 4.3-5.3.2-1.3.2-2.5 0-2.7-.3-.4-8.6 8.5-8.6 9.3 0 .3-.8.9-1.7 1.2-1.1.4-1.8 1.2-1.8 2.1 0 1.8.8 1.8 2.5 0zm15-1.3c0-.4-1-.7-2.4-.7-1.3 0-2.6.3-2.8.7-.3.4.7.7 2.4.7 1.5 0 2.8-.3 2.8-.7zm-79.9-1.4 1.8-.5h-1.8c-1 0-2.5.2-3.5.5l-1.7.6h1.7c1 0 2.6-.3 3.5-.6zm4.8-.4c-.3-.2-.9-.3-1.4 0-.6.2-.4.3.4.4.8 0 1.2-.2 1-.4zm73.4-1.7c-.3-.4-1-.7-1.5-.7s-1 .3-1 .7c0 .4.7.7 1.5.7s1.2-.3 1-.7zM398 580c5.3-5.4 7-8.3 5.9-9.5-.3-.2-1 .1-1.3.9-.5.7-1.5 1.8-2.2 2.4a52 52 0 0 0-3.6 3.4c-1.2 1.3-2.5 2.3-2.9 2.3-.4 0-1.1 1-1.5 2.2-.9 2.5-1 4.1-.4 4.1.3 0 3-2.6 6-5.8zm11 2.5h-2.8c-1 .2-.4.3 1.2.3 1.5 0 2.2 0 1.6-.3zm-73-.7h-3.8c-1 .2-.2.3 2 .3 2 0 3-.1 1.9-.3zm8-.9c0-.4-.5-.7-1.1-.7-.6 0-1 .3-1 .7 0 .4.4.7 1 .7s1-.3 1-.7zm38.5-.7c0-.4-.3-.7-.7-.7-.5 0-.6.3-.4.7.3.4.6.7.8.7.2 0 .3-.3.3-.7zm25.4-.5h-1.8c-.4.2 0 .4 1 .4.9 0 1.3-.2.8-.4zm-71.7-.9c0-.3-.4-.5-1-.2-.6.2-1 .5-1 .6 0 .2.4.3 1 .3s1-.3 1-.7zm11.3-.7c0-.4-1.4-.7-3-.6-2.8 0-2.9.1-.9.6 3 .8 3.9.8 3.9 0zm61.3-1.4c.2-.4-.4-.7-1.3-.7-1 0-2 .3-2.2.7-.3.4.3.7 1.3.7s2-.3 2.2-.7zm-9.2-5.6c2.7-3.1 3.8-5.3 3.1-6.4-.5-.8-1.2-.3-3.4 2.2-1.5 1.7-3 4-3.4 5.3l-1.1 3.5c-.4 1 0 .8 1.3-.7l3.5-3.9zm-54 3.9c1.7-.3 3.4-.8 3.7-1.2.3-.5-.3-.7-2-.4l-5.3.9c-1.6.2-2.8.7-2.5 1.1.2.4.9.5 1.5.3l4.5-.7zm63.7-1.6c-.5-.2-1.3-.2-1.8 0-.4.2 0 .4 1 .4.9 0 1.3-.2.8-.4zm-74.6-5.4c.2-.2-.6-.4-1.8-.4-1.2 0-2.4.3-2.6.7-.4.7 3.7.4 4.4-.3zm72.3-.4c0-.4.6-.7 1.4-.7.7 0 1.5-.3 1.8-.7.6-1-2.7-.9-3.7.1s-1.1 2-.2 2c.4 0 .7-.3.7-.7zm-64.6-.4c-.3-.3-.9-.3-1.4 0-.5.1-.4.3.4.3s1.2 0 1-.3zm5.6-.8c-.7-.2-2-.2-2.8 0-.9.2-.3.3 1.2.3 1.6 0 2.3-.1 1.6-.3zm51.6-3.3c2.2-3.1 2.6-5.3 1-5.3-.4 0-1.1.4-1.7 1l-2.7 2.3c-1.6 1.3-1.7 1.6-1 3.6.6 1.2 1.2 2.1 1.4 2 .3 0 1.6-1.7 3-3.6zm-23.8-1c-.3-1.2-.8-2.2-1.2-2.2-.4 0-.4.5-.2 1.2l1 2.5c.5 2 .8.9.4-1.5zm35.4.6c0-.4-.1-.7-.3-.7-.1 0-.5.3-.7.7-.3.4-.1.7.3.7s.7-.3.7-.7zm-69.7-1.4c2.3-.5 1.6-.6-3.7-.6-3.5 0-6.5.3-6.5.7 0 .7 6.4.7 10.2 0zm65.6-1.3c-1.1-.4-2.9.4-2.9 1.2 0 .5.7.4 1.9 0 1-.5 1.4-1 1-1.2zm-53.7-.5a75 75 0 0 1 2.7-4.1c2.1-3.1 1.2-4.7-1-1.8l-2.7 3.6c-1.6 2-2 4.4-.6 4 .4-.2 1.2-1 1.6-1.7zm43.2-1.5c2.1-2 2.5-3.3 1.3-4.1-1.4-.9-5.4 3.8-4.5 5.3.6 1 1.1.9 3.2-1.2zm-70.2.5c0-.5-.7-.6-1.9-.3-2.7.7-2.8 1-.3 1 1.2 0 2.2-.3 2.2-.7zm21.4-.7c-.5-.9-5.9-.9-9.8 0-2.3.4-1.6.5 3.7.6 4.2 0 6.4-.2 6.1-.6zm61.3-.7c0-.9-1.2-.9-3.1 0-1.2.5-1 .6.8.6 1.3 0 2.3-.2 2.3-.6zm-67.4-1.8c3.1-.3 5.6-.8 5.4-1.1-.5-.7-14.5-.8-17-.2-.9.2-1.6 1-1.6 1.5 0 .8.7 1 3.7.6l9.5-.8zm12-3.5c3-4.3 3-4.3.4-10-1.2-2.7-1.6-3-3.3-2.7-2.2.5-2.3.3-1-1.6.6-1.2.6-1.6-.5-2.7-1.2-1.1-1.3-1.1-2 0-2.1 3.3-2.5 3.7-3.3 3-.6-.6-.3-1.4 1-2.9 2-2.3 2.2-3.9.8-5.1-.8-.7-1.2-.5-2 1.1-.9 2-3.4 3.2-3.4 1.7 0-.3.8-1.6 1.8-2.8l1.8-2-5-3.9-2.5 2.4c-2.9 2.8-5.3 6.8-4.5 7.3.3.2 2.2-1.4 4.2-3.6 3.5-4 5.6-4.8 3.1-1.2-3.3 4.6-3.9 6-3 6.6 4.1 2.4 10.6 8.3 10.3 9.3-.2.4 0 1.5.2 2.4.6 1.6.6 1.6 3.2-.8a12 12 0 0 1 3.1-2.5c1.2 0-1 4.2-3 5.9-1 1-1.6 1.9-1.2 2.1.3.3.7 1.2.7 2.2 0 2.6 1 2 4-2.2zm41.6.7c2-2.5 2-3.8 0-3.8-1.5 0-4.4 3.2-4.4 5 0 2 2.3 1.5 4.4-1.2zm-50.7-1.5a89.3 89.3 0 0 0-17.8.5 96.6 96.6 0 0 0 17.8-.5zm26.2-2c-.2-.6-.6-1-.8-1-.3 0-1-1-1.8-2.2-.7-1.2-1.4-2-1.6-1.8-.2.2.5 1.7 1.6 3.2 2 2.8 3.4 3.8 2.6 1.8zm21.4-1c2.4-2.2 2.6-2.8 1.4-4.1-.7-.7-1.4-.3-3.2 1.4-4.1 4-2.4 6.7 1.8 2.7zm9.2 1.4c0-.4-.5-.7-1-.7-.6 0-1 .3-1 .7 0 .4.4.7 1 .7.5 0 1-.3 1-.7zm1-2.8c.3-.4.2-.7-.2-.7-.5 0-.8.3-.8.7 0 .3.2.7.3.7.2 0 .5-.4.8-.7zm-59.4-1c.2-.2.2-.7 0-1.1-.9-1.3-18.7.2-18.7 1.6 0 .7 18 .2 18.7-.5zm45.8-1.3c2.4-2.6 2.6-3.9 1-4.5-1.5-.6-6.2 4.3-5.6 5.7.6 1.7 2.3 1.2 4.6-1.2zm10.9-.5c-.3-.4-1-.7-1.8-.7s-1.4.3-1.4.7c0 .3.8.7 1.8.7s1.6-.3 1.4-.7zm-68.7-1.4c.2-.4 2.4-.8 4.8-.8 4 0 4.2 0 2.5-1-1.5-.8-3.1-.8-8.8-.3-3.8.4-7 .9-7.2 1 0 .1 0 .6.2 1 .6 1 7.9 1 8.5 0zm54.4-2.6c3-3 3.3-3.8 1.5-3.7-2 0-6 3.8-5.4 5.1.6 1.6 1 1.5 4-1.4zM396 541c0-.4-.3-.7-.7-.7-.4 0-.7.3-.7.7 0 .3.3.7.7.7.4 0 .7-.4.7-.7zm.7-2.8c0-.4-1.1-.7-2.5-.7-1.5 0-2.3.2-2 .7.2.3 1.3.7 2.4.7 1.2 0 2.1-.4 2.1-.7zm-36-4.3c-1-2.3-1.6-3.2-1.7-2.4-.3 1.3 2 6 2.8 6 .2 0-.2-1.7-1-3.6zm22.5 2c1.6-1.5 2-3.4 1.1-4.3-.7-.7-5 3.8-4.6 4.9.5 1.4 1.6 1.2 3.5-.6zm11-.6c.3-.4-.6-.6-2.2-.6-2 0-2.4.1-1.6.6 1.4 1 3.3 1 3.9 0zm4 0c0-.3-.4-.7-.8-.7s-.6.4-.3.7c.2.4.5.7.7.7.2 0 .3-.3.3-.7zm-17-4.4c2-2 2.2-2.6 1.5-3.9-.4-.8-1-1.5-1.3-1.5-1 0-5 4.8-5 5.9 0 2.6 2 2.4 4.8-.5zm11.5 1.2c-.9-.2-2.5-.2-3.5 0-1 .1-.4.2 1.5.2 2 0 2.8 0 2-.2zm-58.5-6c2.2-2.5 2.6-4.8 1-4.8-1.2 0-7.2 7.3-7.2 8.5 0 1.9 1.7 2 2.8.4.6-.8 2.1-2.7 3.4-4.1zm62.5 2.9c0-.4-1.4-.7-3.5-.6-5.2.3-6 1.3-.9 1.3 2.6 0 4.4-.3 4.4-.7zm-18.6-3c1.6-2.1 1.8-2.7 1-4-.8-1.5-.8-1.5-3.6 1.3-1.8 1.8-2.7 3.2-2.4 4 .7 1.8 3.1 1.2 5-1.4zm-54.4-.1c.4-1 1-1.8 1.4-1.8.4 0 1.8-1.7 3.2-3.9l2.6-4-3.2-3.4-2 2.4c-4.2 5-8.2 10.3-8.2 11 0 .8 1.3 1.3 3.6 1.4 1.3 0 2-.5 2.6-1.7zm4.5-.4 3.2-4.1c.9-1.2 1.3-2.2 1-2.5-.6-.3-5.2 5-6.8 7.9-1 1.7 1 .8 2.6-1.3zm65.5 1c6.8-.7 5.2-2-2.2-1.9-3.4 0-6.3.3-6.5.5-.2.2-.2.9 0 1.5.4.9 1 1 2.4.8 1-.3 4-.7 6.3-1zm-19-5c2.8-3 3-3.3 1.8-4.1-.6-.5-1.5-1-1.9-1-2.5 0-6.2 6.7-4.3 7.9l1 .5c.1 0 1.6-1.4 3.3-3.2zm-54-3.4c2.6-3.3 4.4-6.3 4-6.6-.2-.3-1.3-.8-2.3-1-1.5-.4-2.1 0-4.5 3.3a549 549 0 0 1-4.7 6.2c-1.4 1.9-1.7 2.7-1.1 3.3 2 2 3.7.8 8.5-5.2zm70.3 4.2c2.8-.3 4.3-.7 4.1-1.2-.3-1 0-1-7.3-.2-3.2.3-5.8.8-5.8 1 0 1.1 1 1.6 2.8 1.2l6.2-.8zm-88.5-.7c2.2-.9-.3-1.3-6.6-1.1-3.5.1-6.4.5-6.4.9 0 .7 11.1.9 13 .2zm69.3-8.7a7 7 0 0 0-2.4-3.5l-2-1.4-2.5 2.6a14 14 0 0 0-2.5 3.2c0 1.3 2.1 1.2 3.6-.1.8-.8 1.8-1.5 2.1-1.5 1 0 .6 1.9-.8 3.2-1.7 1.5-1.8 2.3-.3 4 1.1 1.2 1.3 1.1 3.2-1.6 1.7-2.2 2-3.2 1.6-4.9zm-64.8 6.3c0-.4-.3-.7-.7-.7-.4 0-.6.3-.3.7.2.4.5.7.7.7.2 0 .3-.3.3-.7zm8-5.1c4-5.9 4.6-8.5 1.8-8-1.6.2-8.4 8.2-8.4 9.8 0 1.6 1.2 4 2 4 .3 0 2.4-2.6 4.6-5.8zm75.3 4.7c1.7-.3 2.2-.6 1.7-1.1-1-1-10.8.2-11.2 1.3-.3.7 4 .6 9.5-.2zm-85.4-2.7c0-1.4-1.5-4.6-2.2-4.6-.3 0-.8.6-1.2 1.2-.5 1-.3 1.7.8 2.8 1.7 1.9 2.6 2 2.6.6zm85-.8c2.2-.2 4-.7 4-1.1 0-.5-2.1-.6-6.5-.3l-8 .4c-2.3 0-2 1.3.3 1.6 2 .2 3 .2 10.2-.6zm6.8-1c0-.4-.3-.7-.7-.7-.4 0-.7.3-.7.7 0 .4.3.7.7.7.4 0 .7-.3.7-.7zm-49-.7c0-.4-.4-.7-.8-.7s-.5.3-.3.7c.2.4.6.7.8.7.1 0 .3-.3.3-.7zm-36.6-5.3c2-2.5 3.5-4.9 3.3-5.2a32 32 0 0 0-9-5.6c-1.7 0-4.2 3.3-3.7 5 1 3.7 1.7 4 4 1.1 2-2.5 3.4-3.3 3.4-2 0 .4-1 2.1-2.4 3.9-2.2 2.9-2.3 3.3-1.6 5.3.5 1.1 1.2 2.1 1.6 2.1.4 0 2.4-2 4.4-4.6zm78.8 3.5c4.4-.4 5.7-1 4-2a.8.8 0 0 0-1 .2c-.2.3-2 .4-4.2.3-6.3-.6-14.4.4-14.4 1.7 0 1.1 0 1.1 15.6-.2zm7.3-1.5c-.2-.7-.3-.3-.4.9 0 1.1.2 1.7.4 1.2a4 4 0 0 0 0-2.1zm-96-.3c.8-1.9-.3-4.8-2-4.8-.6 0-1.5.8-2 1.8-.8 1.5-.8 1.9.4 3.1 1.6 1.8 2.7 1.8 3.6-.1zm62-.6c.8-1.1 2-2 2.5-2s.9-.4.9-.7c0-1.2-6.6-6.2-11.6-8.9a62 62 0 0 1-6.5-3.9c-1.8-1.3-3.2-1-5 1-1 1.4.1 2.2 2.2 1.5 1.2-.4 1.4-.2 1 .7-.2.7 0 1.8.3 2.6.8 1.4.8 1.4 2.8-.5 2.3-2.2 3.4-1.8 2 .7-.7 1.4-.7 2 0 2.8 1.3 1.5 2.1 1.4 3.7-.6.8-1 1.8-1.8 2.4-1.8 1.3 0 1.2.5-.4 2.6-1.7 2.1-1.9 4.4-.4 4.4.6 0 1.5-.6 2-1.4 1-1.6 2.6-1.9 2.6-.5 0 .5-.7 1.3-1.4 1.7-.8.5-1.4 1.7-1.4 2.7 0 2.5 2.3 2.3 4.3-.4zm21-1c4.2-.3 7.8-.8 8-1.2.4-.6-20 0-20.7.6-.7.6 1.8 1.6 3.5 1.3 1-.2 5.1-.5 9.3-.8zM286 508c-7.4-.7-19-.7-16.8 0 1 .3 6.3.6 11.9.5 8.6 0 9.4 0 4.9-.5zm12.6-6c2-3 3.5-5.7 3.5-6.2s-.6-1.4-1.3-2c-1.3-1.2-1.4-1.1-4.2 2.4l-4.3 5.7-1.6 2 1.7 1.6c1 1 1.9 1.7 2.2 1.7a25 25 0 0 0 4-5.2zm97.7 4.9c.7-.3 1.1-1.3 1.1-2.5s.4-2.7.8-3.5c.4-.8.6-1.9.3-2.4-.7-1.9-2.2-.2-3.2 3.4l-1.2 4.5c-.4 1 .5 1.2 2.2.5zm-7.7-2.1c1.6-.2 3.3-.6 4-.8 1.8-.7-4.9-1.4-8.7-.8-2 .3-6.4.5-9.8.6-5.2 0-6 .2-5.6 1.1.3 1 1.5 1 8.9.7 4.6-.2 9.7-.6 11.2-.8zm-104.2-3.6c-1-1-1.3-1-2.2-.2-.6.5-1.6.7-2.1.5-.6-.3-1.1-.1-1.1.2 0 .4 1.5.7 3.3.7 3 0 3.2 0 2.1-1.2zm9.3-4.2c2.8-4 3.6-5.6 3-6.4-.3-.6-1-1.2-1.4-1.3-.8-.3-7.9 9-7.9 10.4 0 1 1.3 2.7 2.1 2.7.2 0 2.1-2.4 4.2-5.4zm-20.5 4.2c-.7-.2-1.8-.2-2.4 0-.7.2-.2.3 1.2.3 1.3 0 1.9-.1 1.2-.3zm60.4-.2c0-1-8.5-6.4-14.3-8.9a485 485 0 0 1-4-1.7c-.7-.3-1.3-.3-1.3 0 0 .7 8.5 6.2 10.5 6.8 1 .2 2.6 1.2 3.5 2 1.6 1.4 3 2 5.1 2.4.3 0 .5-.2.5-.6zm60.2-1c1.1-1.2.6-1.2-8.6-.8-15.1.7-20.7 1.2-20.7 2 0 .5 4.8.6 14 .3 12.2-.3 14.3-.5 15.3-1.5zm-116.2-1.1c0-.9-15.9-1-16.4 0-.3.3 3 .6 8 .6s8.4-.2 8.4-.6zm103.7-1.5 12.8-1.1c4.4-.4 4.8-.5 4.6-1.9-.3-1.8-3.8-2.4-5-.9-.6.8-3.4 1.1-11.3 1.5-23.6 1-27.1 1.5-21.2 3 2.5.7 7.9.6 20.1-.6zm-93-2.9c3.3-4.2 3.4-4.4 2.5-6.4-1-2.4-1.7-2.3-4 .4-3.5 4-4.7 6.7-3.6 8 1.4 1.6 2.4 1.2 5-2zm87-1a122 122 0 0 0 14.3-1c1.5-.7-5-1.5-9.2-1-2 .2-8.7.6-14.9.8-6.1.2-11.5.6-11.8.8-1.3.8 2 1.6 5.1 1.2 1.7-.2 9.1-.5 16.5-.8zm-91-4.8c3.8-5.2 4.2-5.8 3.3-6.7-1-1-2.4-.1-4.8 3-3.5 4.7-4 6-3.6 7.2.7 1.8 1.8 1 5.2-3.5zm58.8 3.7c.9-.7 1-1.4.7-2.6l-.5-1.6-1.8 1.8c-2.4 2.4-1.2 4.4 1.6 2.4zm35.7-2.6c5-.3 9.6-.3 10.2 0 1.6.8 9.1 1.2 9.6.5.9-1.5-1.4-1.9-10.3-2-10.4-.1-38.6.8-39.4 1.3-.3.1-.4.6-.1 1 .4.7 10.2.4 30-.8zm-38.6-1c1.3-1.9 1-3.2-.5-3.2-1 0-3.4 3.8-2.8 4.4.9.9 2 .4 3.3-1.3zm-62-1a26 26 0 0 1 3.3-4.3c3-3.5 3.1-3.9 2-4.7-1.1-.8-1.7-.4-5 3-3.6 4-4.2 5.1-3.2 6.1.6.7 3 .6 3 0zm29.3-1.2c-2-1-3.8-1.5-4.2-1.2-.9.5 4.1 2.9 6.2 2.9.8 0 0-.7-2-1.7zm28.3-.3 3-2-2-.8-2.2-.7c-1 0-4.5 4.2-4.1 4.9.7 1.2 2.3.8 5.3-1.4zm24.3 1a781 781 0 0 1 25.2-.6H398V483l-8.2.3c-6 .1-8 0-7.5-.6.4-.4 4-.8 8.2-1 4.1 0 7.5-.3 7.5-.6s-4-.5-8.7-.5c-4.9 0-8.8-.3-8.8-.6 0-.4 3.8-.9 8.4-1.2a29 29 0 0 0 8.4-1c0-.4-4.2-.7-9.4-.7-8.6 0-11.2-.5-8.6-1.7a1507.1 1507.1 0 0 1-42.7 1.7c-1.3 0-2.3.3-2.3.7 0 .8 13.4.6 33.9-.5 6.4-.3 8.8-.2 8.8.4 0 .4-.9.8-2 .9h-1.9l2 .4c3.2.5 1.8 2-2 2-11.6.4-29.5 1.9-30 2.5-.8.7 8.3.5 28.2-.6 6.6-.3 8-.2 7.7.6-.3.7-3 1-11.5 1.4-15.6.7-21.5 1.4-21.9 2.6-.2.7 0 .9.8.6.6-.3 6.7-.7 13.6-1zm-84-5.7c3-3.6 3.7-4.8 3.2-5.7-1.1-1.7-3.2-2.8-3.6-1.8a57 57 0 0 1-3.4 5.2c-2.8 4.2-3 4.6-2 5.7.7.7 1.4 1.3 1.6 1.2a37 37 0 0 0 4.2-4.6zm54.5 1.8c2-1.8 2-3 .5-4.2-1-.8-1.2-.7-2 .4l-2.1 2.7c-.6.6-1 1.5-1 1.9 0 1.2 3 .7 4.6-.8zm-29.5-2.6c-1.4-2.4-2.9-4.3-3.5-4.3-.6 0 1 2.8 2.6 4.7 2 2 2.2 2 .9-.4zm24.6-.3a10 10 0 0 0 2-3.2c.4-1.3.2-1.5-1.2-1.5a5 5 0 0 0-3.3 1.7c-1.3 1.3-1.4 1.9-.8 3.1 1 1.9 1.6 1.9 3.3-.1zm33.7-.3c4-.2 7.2-.6 7.2-.8 0-.3-3-.3-6.5 0-3.6.2-9.7.5-13.6.5-4 0-7.3.4-7.6.7-.3.6 3.7.6 20.5-.4zm-37-5.2c1.5-2 1.6-4.2.2-4.1-1 0-3.8 4.2-3.4 5.2.6 1.6 1.6 1.3 3.3-1zm42-.7c10.3-.5 21.2-1 24.3-1.3 5.3-.5 5.2-.5-3.7-.6-5.3-.1-9.4-.4-9.7-.8-.2-.5 2.7-.7 8.4-.7 5 0 9-.3 9.2-.7.5-.9 0-1-10.6-.8-8.5.2-11.4-.6-7.9-2 1.4-.6 1.2-.7-1.3-.7-1.7 0-3-.4-3-.7 0-.5 3.4-.7 8.8-.7a27 27 0 0 0 8.7-.7c0-1.6-60.6-.7-62.1 1-.4.3 8.4.3 20.7 0l21.2-.4-.5 1.6c-.3.9-.8 1.8-1.2 2-.3.3-9.3.9-19.8 1.4-10.6.5-19.3 1.1-19.3 1.5 0 .8 6.4.7 26.5-.5 9.8-.6 18-.9 18.4-.7 1.6 1-.4 1.8-4.4 1.8a699 699 0 0 0-32.6 1.8c-7.3.6-4.2 1.7 4 1.3l26-1.1zm31.3.8c.2-.5-1.8-.7-5.6-.7-3.2 0-6.1.3-6.3.7-.3.4 1.7.7 5.5.7 3.3 0 6.1-.3 6.4-.7zm-75.3-5.1c2-3.3 3.2-6.5 2.2-6-1.2.4-5.8 6-5.8 7s.7 2 1.4 2c.2 0 1.2-1.4 2.2-3zm23.4-2.1c.5-.5-.2-.6-2-.3-1.6.2-6 .4-9.8.4-3.7 0-6.7.3-6.5.7.5.8 17.4 0 18.3-.8zm-52.2.6c0-.2-.5-.7-1-1.2-1-.7-1-.7-.7.3.4 1 1.7 1.7 1.7.9zm27-3.1a37 37 0 0 1 3.9-4.7c2-2 2.7-4.8 1.4-5.6-.4-.2-1 0-1.2.6-.4.6-1.6 2.1-2.9 3.5a12.6 12.6 0 0 0-2.3 3c0 .4-.6 1.4-1.4 2.4-.7 1-1.3 2.1-1.4 2.6 0 1.7 2 .8 3.8-1.8zm44.1 2c1.8-.8-4.7-.8-11.9 0-4.7.4-4.6.4 2.8.5a51 51 0 0 0 9.1-.5zm26.1-.5c-.6-.2-1.7-.2-2.4 0-.7.1-.1.3 1.2.3 1.4 0 2-.1 1.2-.3zm-22.4-4.8c9.6 0 17.8-.2 18.1-.5.3-.3-3.4-.6-8.2-.6-10.3 0-13.8-1.1-7-2.3 1-.1.3-.3-1.5-.4-3.3 0-4.8-1.4-1.7-1.5.8 0 2.2-.3 3-.7 1-.4 0-.6-3-.6-4.7 0-5.4.5-3.3 2.8 1 1 1 1.4.2 1.6-1 .4-28.3 1.9-33.4 1.9-1.7 0-3 .3-3 .7 0 .6 3 .7 11 .2 6.1-.3 19-.6 28.8-.6zm-81.5-2.1a7 7 0 0 0-1.4-1.8c-.2 0 0 .8.5 1.8s1 1.7 1.4 1.7c.4 0 .1-.7-.5-1.7zm64.5-1.1c.8-.8-8.6-.9-15-.2-2.4.2-4 .7-3.5 1 1.1.7 17.6 0 18.5-.8zm3.2 0c0-.3-.5-.7-1.1-.7-.6 0-1 .4-.7.7.3.4.7.7 1.1.7.4 0 .7-.3.7-.7zm28 0c0-.3-1.3-.7-2.8-.7-1.8 0-2.7.3-2.5.7.3.4 1.6.7 2.9.7s2.4-.3 2.4-.7zm-24.2-.7c-.2-.3-.7-.7-1-.7-.4 0-.7.4-.7.7 0 .4.5.7 1 .7s1-.3.7-.7zm-34.5-4.3c4.2-4.8 6.3-8.5 6-10.2-.1-.7-1.6.8-3.8 4-2 3-4.4 6-5.4 7-1.8 1.6-2.5 3.5-1.3 3.5.3 0 2.3-2 4.5-4.3zm10.3 3c1.6-.6 1.5-.6-.8-.7-1.5 0-2.7.3-2.7.6 0 .8 1 .8 3.5 0zm45.6-.8c0-.3-1.3-.7-2.8-.7-1.8 0-2.7.3-2.5.7.3.4 1.6.7 2.9.7 1.3 0 2.4-.3 2.4-.7zm-14.4-2c2.6-.2 4.2-.8 4.5-1.4.2-.8-2.7-1-19.4-.6-19 .4-25.8 1.1-17.7 2 5.3.6 27.5.6 32.6 0zm10.5-4.3c-.7-1.1-44.1-1.3-45.2-.2-.3.3 9.8.6 22.5.6 12.6 0 22.9-.1 22.7-.4zm-20.1-2.8c17 0 19.2 0 18.4-1-.5-.6-1.3-1-1.8-1-.6 0-1-.7-1-1.5 0-2.2-2.6-2.4-20-1.5-8.8.5-16.6.7-17.1.7-.6-.1-1.2 0-1.3.5-.2.8 4.2.9 22 .1a64 64 0 0 1 14.3.2c.5.3.8.8.7 1-.3.2-26 1-34.5 1.1-2.6 0-3.4.3-3.4 1.2 0 .9.5 1 2.2.7 1.2-.3 10.9-.5 21.5-.5zm-51-7.8c2.8-3 5-5.7 4.7-6-.3-.2-.9 0-1.3.4-.5.4-1.6.8-2.4.8-1.8 0-8.7 6.7-8.7 8.4 0 1.4.7 2.2 1.7 2a35 35 0 0 0 6-5.6zm30.2-5.9c0-1.7-.2-1.6-3.4 2l-5.3 5.7c-1 1.1-1.8 2.4-1.6 3 .3.6 2-.7 5.3-4 3.7-3.6 5-5.3 5-6.7zm-22.5 9.5c.4-.8.5-1.4.2-1.4-.4 0-1.2.6-2 1.4-1 1.3-1 1.4 0 1.4.6 0 1.4-.6 1.8-1.4zm30.5-2c.3-.5-1.3-.8-4.2-.8-2.5 0-4.5.3-4.5.7 0 .4 1.8.7 4.1.7s4.4-.3 4.6-.7zm-13-7.3c0-.4-1.2.5-2.8 2-1.5 1.5-2.8 3.3-2.8 4 0 1 .8.4 2.8-2 1.6-1.7 2.8-3.5 2.8-4zm-28.6.8 2-2.6-1.4-2.7a12 12 0 0 1-1.4-3.9c0-.6-.2-1.2-.6-1.2-1 0-7.8 7.5-7.8 8.7 0 2.1 1.4 1.8 4.3-1 4.8-4.6 6-3.4 1.3 1.4-2.5 2.5-2.8 3.2-2.4 5l.4 2.1 1.8-1.6c1-.9 2.7-2.8 3.8-4.2zm16.7 2.6c2.7-4 1.8-4.1-1.6-.4-2.9 3.1-3 3.5-1.6 3.5.6 0 2-1.4 3.2-3.1zm-37-10.7c.2-4.8.1-8.6-.1-8.6-.8 0-1.2 3.9-1.3 13 0 11 1 7.5 1.5-4.4zm-11.3 7.5c0-1.1-.3-2.1-.7-2.1-.4 0-.7 1-.7 2.1 0 1.2.3 2.1.7 2.1.4 0 .7-1 .7-2zm38.1-2.7c.2-.4-.1-.9-.8-1.1-1.2-.5-1.2-.5 0-1.2.7-.4 1.7-.6 2.3-.3.5.2 2.1-.3 3.6-1l2.7-1.4-5.4.2c-3 0-5.6.4-5.8.6-.6.6 1.5 4.8 2.4 4.8.3 0 .8-.3 1-.6zm-39.6-2.5c.1-.7-.5-2-1.5-3.1a22 22 0 0 1-3-4.8c-1.3-2.9-2.4-3.9-2.4-2.2 0 .4.9 2.7 2 5l2.4 5.6c.6 1.6 2.1 1.2 2.5-.5zm28-4c2.9-3 3.6-4.2 3.6-6 0-3.2-1.2-3-5 1.3-2.6 2.8-3.4 4.2-3.4 6 0 1.3.2 2.3.5 2.3a25 25 0 0 0 4.2-3.7zm21.1-1.4c0-.8-11-.7-13 0-1.2.6-1.2.7-.1 1.1.7.3 2.6.4 4.2.1 1.6-.2 4-.1 5 .2 2.1.6 4 0 4-1.4zm4-3.6c-.3-1-6.8-1.3-14-.6-7.6.7-5.3 1.9 3.1 1.6 5-.2 7.6 0 8 .5.6 1 3.3-.4 3-1.5zm-23-8c0-1.3 0-2.3-.2-2.3-.8 0-8 8.2-8 9.1-.1 2.3 1 2 4.5-1.2 3-2.7 3.7-3.8 3.7-5.6zm10 4.7c-2.6-.8-5.5-.8-6 0-.3.4 1 .7 3.6.6 3.1 0 3.7-.2 2.3-.6zm10.6-.8a23 23 0 0 0-6.6 0c-1.1.5.4.7 5 .6h6.7zm-21.3-10.8-.2-2-1.8 2c-1 1.1-2.6 2.9-3.7 3.8a5.2 5.2 0 0 0-1.9 3.9v2.1l4-3.9c3.2-3.2 3.8-4.3 3.6-6zm30.6 7.3 1.4-1.5-2.8.4c-1.5.3-7 .6-12.3.8-10.1.5-14.2 1-13.7 1.7.2.3 6 .4 13.1.3 12-.2 12.9-.3 14.2-1.7zm-44-12.5c2-7.5 1.5-20.7-1-23.6-1-1.2-1-1.2-.6.8l1.2 9a28 28 0 0 1-1 14.5c-1 4-1.9 8.1-2 9-.2 4 .3 3.7 1.3-.6.5-2.5 1.5-6.6 2.2-9.1zm14.7-3c.6-2.2.3-2-4.4 2.8-4 3.9-5.2 5.6-5.2 7 0 1.8.4 1.6 4.5-2.8 2.4-2.6 4.7-5.8 5-7zm2.5 4.8c.3-.7 4-1 17-1.5 9.2-.3 17.4-.8 18.2-1 1.5-.7-28-.1-33.3.6-2.2.3-3.2.8-3.4 1.6-.2 1.5 1 1.7 1.5.3zm-9.3-1.7a54 54 0 0 1 5.6-6.5c5-5.3 5.6-6.2 5.6-8.7 0-1.5-.2-2.4-.6-2l-6.6 7.4c-4.3 4.8-6 7.4-6 8.6 0 1.1.3 1.8 1 1.8.5 0 1-.3 1-.6zM295 386c3-3.5 3.6-5.6.9-3.2-.8.7-1.7 1-2.1.8a1 1 0 0 0-1.2.4c-.7 1.2-1.6 5.5-1 5.5.2 0 1.7-1.5 3.4-3.5zm2.5-6.8c1-1 1.8-2.1 1.8-2.4 0-1-1.3-.5-2 .8l-1.9 2.4c-.6.6-.8 1.1-.4 1.1s1.6-.8 2.5-1.9zm3.8-.1c2.3-3.1 1.8-4-.6-1.2a13 13 0 0 0-2 2.8c0 1 1.2.3 2.6-1.6zm6-1.8c-1.3-1-2.4-.8-2.4.4 0 .3.9.6 2 .6 1.7 0 1.7 0 .4-1zm23.9 0c.4-.1-1.3-.3-3.9-.3-2.5 0-5 .2-5.5.6-.9.5 7.7.3 9.4-.3zm-53.3-9a148.1 148.1 0 0 0-14.2-28.9 47.3 47.3 0 0 1-9.6-20.8c-4.1-24.5-4.5-26-8.2-31.3-3.3-4.7-5-8.4-7.3-17a65 65 0 0 0-8.4-16.3 19.5 19.5 0 0 1-2.4-4c0-.3-1.2-2.6-2.8-5a28.9 28.9 0 0 1-2.8-4.9 58 58 0 0 0-8.3-12c-1-1-3.2-3.5-4.7-5.8a27.6 27.6 0 0 0-5.3-5.9c-1.4-1-3.4-2.8-4.3-4-4-4.6-8-8.2-14.1-12.3a80 80 0 0 1-10.2-8.2 39.2 39.2 0 0 0-7.7-6 49.8 49.8 0 0 1-11.1-8c-2.8-3.2-21-6.6-19-3.6.3.6 2.4 1.2 5.6 1.5 4.4.5 5.4 1 8.7 3.5 2 1.5 4 3.3 4.1 3.8.2.5 2.4 1.5 4.8 2.2 3.8 1.1 5 2 9.4 6.3 3.7 3.7 6.6 5.7 11.1 8 5.2 2.5 6.6 3.6 9 7 2.4 3 11.2 12.3 15.9 16.5a76 76 0 0 1 11.8 14.8c.6 1.5 1.9 3.9 3 5.3a12 12 0 0 1 2 3.2c0 .3.8 1.4 1.8 2.3a38.3 38.3 0 0 1 5.2 14c0 .6 1.4 2.6 3.1 4.4 3.9 4.2 5.4 7.2 5.4 11.1 0 2.6.4 3.6 2.3 5.8 4.5 5 9.6 18 9.6 24.4 0 7 7.7 27.8 12 32.4a54 54 0 0 1 4.7 7.6c6 11.4 9.8 19 10.5 21 1.1 3 1.5 2.2.4-1zm28.1 2.3c.8-1.4-.4-1.7-1.6-.5-1 1.1-1 1.2 0 1.2.6 0 1.4-.3 1.6-.7zM191 272l7.4-9.2c3.6-4.2 5.3-6.8 5-7.6-.4-1.2-.4-1.3-6.6 5.8-6.2 7-9.9 12-9.4 12.9.8 1.2 1.6.8 3.6-2zm3.5-11.2c8.4-10.5 11.7-15.6 9.5-14.8-.4 0-3.4 3.7-6.8 8l-8.5 10.4c-3.5 4-4 5.3-2.5 5.2.7 0 4.2-3.7 8.3-8.8zm-7 1.7c1.6-1.6 4.2-4.9 6-7.2 1.6-2.3 4.5-6 6.2-8 5.1-6.1 6.5-8.5 5-8.5-.3 0-3 3.1-6.2 6.9l-7.1 8.4c-.8.8-1.5 1.7-1.5 2 0 .2-1.4 2.1-3.2 4.2-4.7 5.6-4.1 7.4.8 2.2zm-10.2-22.3a268.5 268.5 0 0 1 8.6-10c3.7-4.2 4.5-6 2.5-6a27 27 0 0 0-7.3 7.3 47 47 0 0 1-4 4.6c-3 2.8-4.7 5.6-4.7 8 0 1.1.2 1.7.6 1.4l4.3-5.3zm4.4-13c2.2-2.8 4-5.2 4-5.5 0-1.4-2.5.7-8.6 7.3-5 5.3-6.8 7.8-6.8 9.1 0 1.7.3 1.5 3.7-2 2-2.2 5.5-6.2 7.7-9zm-6.7.7c6.4-6.6 7.9-8.7 6.2-8.7-.5 0-2.7 2-4.7 4.3l-6 6.8c-2.3 2.3-2.9 3.6-1.7 3.6.3 0 3.1-2.7 6.2-6zm-2.1-3.6c5.7-6 6.5-7.4 5-8.3-.7-.4-2.7 1.5-9 8.8-2.9 3.3-3.8 5.6-2.3 5.6.3 0 3-2.7 6.3-6.1zm-6.8.6c0-.4 1.9-2.7 4.2-5.1a22 22 0 0 0 4.2-5.3c0-1.3-.3-1.1-3 1.4l-5.3 5c-3 2.6-3.3 3.3-2.5 4.1.7.7 2.4.6 2.4-.1zm54.6-12.8c0-.4-.3-.5-.7-.3-.4.3-.7.8-.7 1.2 0 .4.3.5.7.2.4-.2.7-.7.7-1zm-62.8-7c2.7-2.3 3.5-4.8 1.3-4.8-1.8 0-6 4.5-5.5 5.9.6 1.5 1.2 1.4 4.2-1zm-66.5-3.3c-.4-.5-3.8 2.7-3.8 3.6 0 .4 1-.2 2-1.3 1.2-1 2-2.1 1.8-2.3zM155 199c0-.8-.3-.8-1.4.2-.8.7-1.4 1.8-1.4 2.4 0 .8.2.8 1.4-.3.7-.7 1.4-1.7 1.4-2.3zm-2.1-2.2c0-.6-1.7-1.4-2.9-1.4-.7 0-.9 2.3-.2 3 .6.5 3-.7 3-1.6zm-17-6c-.5-.5-4.8 3.3-4.8 4.4 0 .9.8.5 2.6-1.4 1.5-1.4 2.5-2.7 2.3-3zm61.1-17.7a87.2 87.2 0 0 0 11.2-14.3c0-.5-1 .4-2.3 2l-6.1 6.5c-4 4-9.1 10-9.1 10.8 0 1.6 2.4-.3 6.3-5zm-63.5 2.2c1.2-.8-1.3-2.3-6-3.4-3.9-1-5.6-1.9-8.6-4.5-3.5-3-3.8-3.5-3.9-6.1 0-3.4 1.4-7 3.8-10l1.8-2-1.4-1.9c-1.7-2-2-2-7 2.4-4.2 3.7-5.8 6.9-5.1 10.4.5 3 3.4 9.5 4.7 10.6.5.4 4 1.5 7.8 2.6 3.9 1 7.5 2 8 2.4 1 .6 4.5.2 5.9-.5zm39.2-16.9c12.4-12.7 22.1-23 22-23.1-.1-.1-1.3.1-2.7.5-1.8.5-4 2.4-8 6.7-3 3.3-5.8 6.5-6.1 7-.6 1-3.3 1.5-3.3.6 0-.3 1.8-2.4 4-4.8 6.9-7.3 8.9-10.1 7.6-10.6-1.1-.5-4.7 3.1-11.9 11.8-2 2.4-6.5 7.3-10.1 10.8-6 5.9-6.4 6.5-4.7 6.5 1.4 0 3.3-1.5 8-6.4 7.7-8 9.4-7.3 1.9 1-4.7 5-5.7 6.8-4 6.8.3 0 3.6-3 7.3-6.8zm-20-3.5c8.8-9 14.9-15.7 14.9-16.6 0-1.6-2.8.5-8.5 6.4-3.7 3.8-9.4 9.3-12.7 12.4a25 25 0 0 0-5.8 6c1.2 2 3.8.2 12-8.2zm5.9-.2c4-4.3 7.7-8.5 8.2-9.4.6-.9 2.5-3 4.2-4.5 2.3-2.2 2.7-2.9 1.7-2.9-1.8 0-1.9.1-8.8 8-3.3 4-8.3 9.2-11 11.9-2.7 2.6-4.7 5-4.5 5.4.7 1.2 3-.7 10.2-8.5zm-.9 6.5c6-6 22.6-24.2 23-25.5 1.1-2.7-7.3 5-14.3 13.4-2.7 3.3-6.7 7.7-8.9 9.8a25 25 0 0 0-4 4.4c0 1.2 1.7.4 4.2-2.1zm-9.6-8.8c6.1-5.9 11-11 11-11.2 0-1.6-3 .8-13.2 10.7-8 7.8-11.2 11.2-10.2 11.2a67 67 0 0 0 12.4-10.7zm-7.2 1.3a149 149 0 0 0 8-8c2.8-3 2.8-3.1.7-1.8-3 1.8-17 15.5-17 16.5s1.3-.1 8.3-6.7zm-2.8-2.5c5.6-5.6 5.7-5.6 3.9-6.3-4-1.5-5.5-1-7.7 3-3 5.3-3 5.5 1 1.4 3.3-3.6 5-4.5 5-3 0 .5-2.2 3-4.7 5.7-6.5 6.7-4.4 6 2.5-.8zm79.1-2.4c.5-.8-.7.2-2.6 2.3-2 2-3.6 4-3.6 4.5 0 .8 4.5-4.1 6.2-6.8zm-90.3-15.5c1.7-1.8 1-2.3-1.4-1-1.3.7-2 2.8-.8 2.8.3 0 1.3-.8 2.2-1.8zm452 848.7c-2-1.6-2.9-7.8-1.1-7.8.6 0 1.9-.8 2.7-1.7 2.2-2.3 3.8-2.7 6.5-1.5 2.5 1 4.2 3.4 3.5 5-.6 1.6-3.1 1.1-4-.8-.9-1.8-3-2.5-2.2-.7.2.6.6 1 1 1 .3 0 .6.9.6 1.8 0 2.2-.6 2.2-3 .3-2.6-2-3.1-1.3-1.2 1.4 2.6 3.4.5 5.7-2.7 3zm-4-11.1c-1.7-.7-1-3 1.6-4.5 2.7-1.7 2.6-3-.1-2-4.6 1.7-6.2-.2-2-2.5 3.8-2 3-3.9-1-2-2.3 1.2-4.6.8-4.1-.6.1-.5 1.2-1 2.3-1.4a9.3 9.3 0 0 0 3.9-2.8c2-2.5 4.6-2.4 3.9.2-.2.8 0 2.2.5 3a14 14 0 0 1 1.4 4.6c.4 3 .4 3.2-2.5 5.8l-3 2.6-1-.4zm-7.5-18c-1.6-1.2-1.7-4.6 0-5.8 1.4-1.1 6.9-2 8-1.4.4.3.7 1.4.7 2.6 0 4.2-5.4 7-8.7 4.6zm4.1-3c.6-1.5.2-1.8-1.2-1.3-1.4.6-1.6 2.4-.2 2.4.5 0 1.2-.5 1.4-1.1zm-34.6-6.2c0-1.7.3-2.5 1-2.5 1.1 0 1.4 1.8.6 3.8-.7 2-1.6 1.2-1.6-1.3zm25.9-.1c-.6-1.5-.5-2.2.4-3.2.7-.7 1.8-1.3 2.4-1.3 1.6 0 2.9-1.6 2.1-2.7-.3-.6-1.2-.8-2.6-.5a4 4 0 0 1-3.8-1c-2.3-1.8-1-3.3 1.9-2 1.6.8 2 .8 2.3-.1.2-.6 1.5-2.3 3-3.7 3.4-3.5 5.3-3.3 6.7.6 1.3 3.6 1.3 5.4-.2 6.3-.7.3-2 1.4-2.9 2.2-.9.9-2.7 2-4 2.7-1.5.7-2.7 1.9-3 2.9-.5 2.1-1.5 2-2.3-.2zm9.5-11.2c-.3-.9-.7-1-1.2-.5-.4.5-.6 1.4-.3 2 .3 1 .7 1 1.2.5a2 2 0 0 0 .3-2zm-20.2-4.6c-.5-1-1.3-2.4-1.6-3.4-.3-1-1.1-2.5-1.8-3.4-.7-1-1.3-2.8-1.3-4 0-2 .3-2.4 1.4-2.4.7 0 1.7-.7 2-1.4.5-.8 1.2-1.4 1.7-1.4a8 8 0 0 0 3-1.7c1.8-1.5 2-1.9 1.2-3.2-1.4-2.2-1.1-3.5.7-3.5 1.3 0 2.1.8 3.5 3.5 1 2 1.9 4.4 1.9 5.3 0 1.9-1.5 2.2-2.8.6-1-1.1-2.8-1.4-2.8-.4 0 .8-3.3 2.2-5.3 2.2h-1.7l1.2 3.2 1.2 3.1 1.3-1.7c1.6-2.2 4.6-2.4 6.3-.5 1.5 1.6 1.5 2.8 0 4.9-.8 1.2-1.6 1.6-3 1.3-2-.2-2-.1-2 1.9.3 2.7-1.6 3.2-3 1zm5.8-6.5c0-.6-.3-1.2-.7-1.4-.8-.5-1.6.8-1 1.7.6 1 1.7.8 1.7-.3zm-45.1-83.8c-.3-.6-.5-4.9-.6-9.5l-.2-8.4 1.7-.2c1-.2 2.1-.5 2.5-.9a12 12 0 0 1 3.2-1c3.2-.6 4.3.7 4.4 5.1 0 2 .6 4 1.4 5.3 1.7 2.5 1.2 7.3-1 9-1.9 1.6-6.8 1.7-7.4.2-.9-2.2.2-3 2.9-2.3 1.8.6 2.7.6 3.3 0 1.8-1.8-2.4-5.7-6.2-5.7-1.5 0-1.7.3-1.7 3.3 0 3.6-1.6 7-2.3 5zm8.1-12.4c1.4-.8 0-2.8-2.3-3.4-2.2-.5-3.2.2-3.8 2.7l-.6 2 3.1-.5c1.7-.3 3.3-.6 3.6-.8zm28.1 11.8a57 57 0 0 1-1.2-18c.3-1.7.8-2.5 1.7-2.5 1.8 0 2.5 2.7 1 3.8-.8.6-.9 1.3-.3 3.2.8 3 1 13.1.1 13.6-.3.2-.9.2-1.3-.1zm-19-2.3c-1.7-1.8-.2-7.6 2.2-8.6 1.5-.5 4 1.5 4 3.4 0 1 .3 1.9.7 2.1.3.3.7 1 .7 1.8 0 1-.5 1.4-2 1.4-1 0-2.5.2-3.3.4-.8.2-1.8 0-2.3-.5zm2.7-3.8c0-.6-.4-1-.8-.7-.3.3-.5.8-.3 1.1.6 1 1 .8 1-.4zm10.2 3.8a95.5 95.5 0 0 1-1.8-14.3c0-2.3.3-3.3 1-3.6 1.6-.6 2.4 1 2.5 4.4 0 1.7.3 4.5.7 6.3.7 3.6.1 7.3-1.3 7.8-.5.2-1-.1-1-.6zm15.4-.5c-1.4-1.6-1.5-6.3 0-8.4 1.3-1.8 4.6-2 5.9-.5.6.7.7 2.2.5 4.2-.6 5.2-3.8 7.5-6.4 4.7zm3.8-4.4c0-1.2-.4-2.3-1-2.5-1.6-.6-2 0-1.5 2.5.7 2.9 2.5 2.9 2.5 0zm14.2 5.1c-1.3-.2-1.6-.7-1.6-3 0-1.5-.3-2.7-.7-2.7-.4 0-.7.8-.7 1.9 0 1-.3 2.3-.6 2.9-1 1.5-2.2.2-2.2-2.3a12 12 0 0 0-1.1-4.5c-1.6-3.2.4-5.2 2.5-2.6.5.6 1.4 1 2.2.7 2.2-.7 3.4.9 3.4 4.3 0 1.7.3 3 .7 3 .8 0 1 2 .2 2.3-.3.2-1.3.2-2.1 0zm48.9-.8c-.4-.7-.8-2.5-.8-4s-.2-3.1-.6-3.7c-.9-1.4-2.6-.4-3.2 1.8-.5 2.3-3.6 6.6-4.6 6.6-1 0-.7-2.1.7-4.1.9-1.3 1.7-4.7 2.5-10 .7-4.4 1.3-8.2 1.5-8.5.8-1.3 3-.4 4.4 1.8 1.1 1.8 1.5 4 1.9 10.2.3 4.3.7 8 1 8.2.4.2.7 1 .7 1.7 0 1.8-2.6 1.8-3.5 0zm-1-13c.2-.5 0-1.7-.5-2.6l-1-1.6-.4 1.7-.6 2.7c0 1.2 2 1 2.5-.1zm-26 12.5c-1.4-1.4-1-3.9 1.4-7 2-2.6 1.6-5.1-1.2-8-2.2-2.1-2.3-4.2-.2-4.2 2 0 5.3 4.3 7.8 9.8 1.3 2.9.7 7-1.2 9-1.7 1.9-5 2-6.6.4zm5.6-3.3a8 8 0 0 0 .2-3c-.3-1.7-2-2-2-.4 0 .7-.3 1.6-.8 2-1 1-.2 3 1.1 3 .6 0 1.3-.7 1.5-1.6zm30.3 3.3c-.2-.3-.6-3.9-.9-8-.4-7.1.1-11.2 1.7-11.2.5 0 1.7 12.5 1.8 18.3 0 1-2 1.8-2.6.9zm46.1-.6c-.9-1-1-2-.7-5.8a26 26 0 0 1 1.1-6c1.3-2.4 6.6-2.4 6 0-.1 1-.7 1.2-2.1 1-2.9-.2-2.3 2.3.6 2.8 2.6.4 2.7 2 .1 3.3-2.4 1.2-1.8 2.4.9 1.8 2.4-.5 3.1.5 1.7 2.5-1.3 1.8-5.9 2-7.6.4zm-36.8-.2c-2.8-.8-2.6-2.2.3-2.2 1.3 0 2.5-.4 2.5-.7 0-.4-.8-.7-1.6-.7-2.1 0-3.3-1.3-3.3-3.5 0-3.8 3.5-6.3 5.5-4 1.1 1.4.4 2.6-1.4 2.6-2.2 0-1.2 1.7 1.2 2 4 .4 5 3 2.2 5.5-1.7 1.6-2.5 1.8-5.4 1zm47-.5c-1.3-1.5-.4-3.3 1.5-3 1.8.2 2.5 2.5 1.1 3.4-1.3.9-1.7.8-2.7-.4zm-32.7-.1a7.6 7.6 0 0 1-3-1c-2.2-2 .4-8.6 3.7-9.4 2.6-.7 3.3.1 3 3.7 0 3 0 3.3 2.2 4.3 1.2.6 2.1 1.4 2 1.8-.3.8-4.5 1-7.9.6zm1-5c-.3-1.4-1.6-1.3-1.9.2-.1.6.3 1 1 1s1-.4.9-1.2zm12.1 5c-1-.2-2-1.2-2.6-2.7-.9-2.1-.9-2.8 0-4.8 1.2-3 3.5-4.4 5-3.2 1 .9 1.3 2.9.5 3.7-.2.2-.8.1-1.3-.3-.6-.5-1-.5-1.4 0-.7 1.2 2 4.6 3.8 4.8 2 .3 2 2 0 2.5l-2 .4-2-.4zm-57.4-69.4c-1.6-.6-1-3 1-3.5 2.3-.5 3.7.7 2.6 2.4-.8 1.3-2.1 1.7-3.6 1.1zm-57-6.7c0-.5 1-1.5 2.2-2.2 1.1-.7 2-1.5 2-1.8 0-.4.3-1.1.5-1.7.2-.6-.5-2-1.8-3.3a9.9 9.9 0 0 1-2.1-2.9c0-1.1 2-.5 3.7 1.2 3 3.1 3 6.3-.1 10-1.5 1.7-4.3 2.1-4.3.7zm48.2-4.6c-.2-.3.1-1.6.7-2.8 1.6-3.2 0-8-3.3-10.6l-3.3-2.6c-1-1-8.2-3.8-9.6-3.8-.5 0-1.3-.4-1.8-1s-1.6-1-2.5-1c-2 0-3-1.3-1.4-1.9 1-.4 12.1 3.2 15.4 4.9 7.5 4 10.8 8.6 9.9 13.6-.7 4-3 7-4.1 5.2zm-54.8-8.6c-1.1-.3-3.6-.5-5.4-.6-2.5 0-3.3-.3-3.3-1.2 0-1 .6-1 4.5-.6 6.5.7 9 1.3 9.3 2.3.3 1-1.7 1-5 .1zm20.8-4.5c.2-5.2.2-5.3-1.8-6.3-1-.6-2-1-2.2-1-.2 0-.3 1.2-.3 2.7 0 2-.3 2.8-1 2.8-1.7 0-3.2-.8-3.2-1.6 0-.5-.6-1.2-1.4-1.7-1.4-.8-1.4-.7-1.4 3.7 0 5-1 6-1.7 1.8-.3-2.2-.7-2.8-2.3-3-2-.5-3.7 1-3.7 3.1 0 .7-.5 1.2-1 1.2-1 0-1.1-1-1.1-5.2v-5.3h-3a52 52 0 0 1-6.3-.6c-1.9-.3-3.5-.3-3.7 0-.4.6-3 0-3.6-.9-.2-.3 0-1 .4-1.6.5-.5.6-2 .2-4-.8-4.5 0-7.4 3.4-10.8 2-2 4-3.2 6.2-3.8 1.8-.4 3.9-1.2 4.6-1.7 1.8-1.1 8-1.9 8.5-1 .4.7-2.3 1.8-7 2.8-4.9 1-12.2 5.2-13 7.4-.4 1-.7 2.8-.7 4.2 0 1.9.3 2.5 1.4 2.8 1.5.4 1.8 1.3.7 2-1.2.7-.8 1.7.6 1.7.8 0 1.6.3 1.8.7.3.4 2 .7 3.7.6h3.3l-3.1-.5c-4.6-.6-3.9-1.8 1.2-2l4.4-.2v-4.7c0-5 .7-7.4 1.8-5.8.7 1.2.7 8.2 0 10.7-.2 1-1 2-1.5 2-.6 0-1 .2-1 .6 0 1.3 4 .7 5.8-.9 1.6-1.4 1.8-2 2-7.1.2-4.5.5-5.6 1.3-5.6.7 0 1 .5.8 1.7-.5 3.6-.1 11.5.6 12.2.9.9 3.2-.4 3-1.6-.1-.4.1-.8.5-.8s.7-1 .7-2.4c0-2.4 1.2-4 1.6-2.4 1 3.9 1.7 5 2.6 5.2l2.1.4c.8.2 1-.6 1.1-3.8 0-2.3.5-4.4 1-4.6.4-.3.6-1.6.5-3-.1-1.7.1-2.3.9-2.3s1 1 1 4.9c0 2.7-.2 5.6-.5 6.4-.5 1.4-.4 1.6 1.2 1.6 1 0 2 .5 2.3 1 .2.7 1.1 1.1 2 1.1 1 0 1.6.3 1.4.7-.3.4-1.8.7-3.4.7-2.3 0-2.7.2-1.7.8 1.4.8 1.6 2 .2 2-1.3 0-1.7 1.4-2.3 7.1-.3 4.2-.6 4.8-1.8 4.8-1.2 0-1.3-.4-1.1-5.2zm-13.8-6.7c.3-1.1.3-2.4 0-2.8-.5-.9-2.4-.9-2.4 0 0 .4-.5.7-1 .7-1.6 0-1.3 1.9.4 3.1 2.2 1.5 2.5 1.4 3-1zm4.6-1.1c0-.1-.5-.3-1-.3-.6 0-1.1.3-1.1.7 0 .4.5.5 1 .3.6-.2 1-.5 1-.7zm9.7-1.7c-.5-.3-1.2-.4-1.5-.2-.4.2-.2.7.3 1 .5.3 1.2.4 1.5.1.4-.2.2-.6-.3-1zM533.6 741a46 46 0 0 1-14.5-6.2c-1.4-2.2 0-2.5 2.8-.5 2.2 1.7 8.8 4 14 5.2 2 .4 3.7 1.1 3.7 1.5 0 1-1.3 1-6 0zm30.8-23.8c-.6-1.5-.1-3.4 1-3.7.5-.2.8.5.8 2.2 0 2.5-1.1 3.4-1.8 1.5zm-27-13.4c0-.7.8-1 2.1-1 2.4 0 3.4 1 1.8 1.7-2 .7-3.8.4-3.8-.7zm24.2-21.6c-.7-1.8.5-7.6 1.6-8 .7-.2.8.7.5 3.8-.5 4.5-1.4 6.1-2.1 4.2zm-45-3.4c.2-.5 1-1 2-1.1 1.4-.2 1.5-.1.7.8-1.1 1.4-3.1 1.5-2.7.3zm6.1-3.3c0-.9 2.1-2.4 2.6-2 .5.6-1 2.7-2 2.7a.6.6 0 0 1-.6-.7zm38.4-1.9c-.3-.3-.5-1.2-.5-2.1a7 7 0 0 0-.8-3 3 3 0 0 1-.4-2.4c.9-2.2 1.8-1.1 2.3 2.6.5 4 .3 5.8-.6 5zm-4-4.2c0-1.9.3-3 .7-2.7.4.2.7 1 .7 1.8s.3 2 .7 2.8c.6 1.1.5 1.3-.7 1.3s-1.4-.4-1.4-3.1zm15.7 1.1c-.2-.4-.2-1.3 0-2.1.4-1.1.7-1.3 1.5-.6.6.4 1 1.2 1 1.7 0 1.1-2 2-2.5 1zm-3-3.4c.2-1.9.6-3.2 1.2-3.4.8-.3 1 .2.6 2.3-.7 4-2 5-1.8 1zm-6.4-1.1c0-1.7.3-3.2.7-3.2.4 0 .7.8.7 1.7 0 1 .5 2 1 2.5 1.3 1 .8 2.1-1 2.1-1.2 0-1.4-.5-1.4-3.1zm-18 1c.3-1.2 2.5-1.3 2.7-.3.1.4-.5.8-1.4 1-1.2 0-1.6-.1-1.4-.8zm30.9-.3c-.2-.5-.2-1.3 0-1.8.7-1 2.5.5 2.5 1.9 0 1.3-2 1.2-2.5 0zm-27-1.7c0-1.4 1.3-2.6 2-2 .5.6-.5 3.3-1.3 3.3-.3 0-.6-.6-.6-1.3zm-206.5-4.9c-.6-.3-.7-.8-.4-1 1.2-.7 22-1.3 22-.6 0 .3-2.6.9-5.8 1.1l-10.3.8c-2.5.2-5 .1-5.5-.3zm144-4c-1.4-1.4 1.8-3 5.9-3 4 0 3.2 1.6-.8 1.9-1.7.1-3.5.5-3.9.9-.4.3-1 .4-1.2.1zM497 654c-.5-1.3 1-2.4 3.1-2.4 2.3 0 2 1.1-.5 2.4-2 1-2.2 1-2.6 0zm-21.8-2.6a14 14 0 0 1 3.8-2.6l3.4-1.7-2.3-.3a8 8 0 0 0-5 1.6c-3.6 2.3-4.4 2.3-3.8-.1.8-3.2 4.6-6.3 9-7.5 2.2-.5 4.2-1.2 4.4-1.3.2-.2-1-1.1-2.7-2a39 39 0 0 1-5.6-3.5c-2.3-2-2.7-2-5.6-1.4-4.6 1.1-8.7 1-9.7-.3-1.5-1.7 0-2.3 6.7-2.5 4.7-.2 6.7 0 7.5.7.8.7 2 .8 4 .5 2-.3 3 0 4.3.9 2 1.5 9 3 10.1 2.2.4-.4 1.8-.4 3.3 0a7 7 0 0 0 4.3 0c2.2-.8 7.6-1 8.4-.2.3.3 1.2.5 2 .5.9 0 1.6.4 1.6.7 0 .5-2.2.7-5.3.6-2.9 0-4.7 0-4 .3 3.3.9-1.3 5-6.4 5.6-2.3.2-3.6.1-4-.5-.7-1.2.2-1.7 3-1.5 2.2.1 3.1-.3 4.5-1.7l1.7-1.8-1.8.4c-9.5 2.4-11.2 3-11.2 3.4 0 .2-1.1 2-2.4 4-3.1 4.8-13.2 11-12.2 7.5zm8.2-7.4c.7-.5.7-.7-.2-1-1.3-.5-3.2 0-3.2 1 0 .8 2.1.8 3.4 0zm4.3-2.9c0-.4-.3-.7-.7-.7-.3 0-.8.3-1 .7-.3.4 0 .7.6.7s1.1-.3 1.1-.7zm2.8-4c0-.8-7.6-2.6-8.2-2-.6.6 4 2.4 6.3 2.5 1 0 2-.3 2-.6zm-159 1.2c0-.4.7-.7 1.7-.7s1.7.3 1.7.7c0 .4-.7.7-1.7.7s-1.8-.3-1.8-.7zm232.7-7c-.7-.4-.7-.7-.1-1 1-.7 4.2.1 4.2 1 0 .8-2.8.9-4.1 0zm-48-4c-1-.2-1.9-.8-1.9-1.4 0-.8.6-1 3-.6 3.4.6 4 .9 4 1.8 0 .7-1.4.7-5 .2zm-295.2-2a20 20 0 0 1-1.1-5c-.3-2.9-.2-3.9 1-5.3.8-1 2.1-1.8 3.1-1.8 2 0 2.2 1.2.5 2.5-1.2.8-1.2 1 0 1.8 1.3 1 1 3.4-.3 3.4s-.5 1.4 1.2 2c2.8 1.1 2 3.2-1.2 3.4-2 .2-2.8 0-3.2-1zm-16.2-.7c-.3-.7-.6-2.9-.7-4.8 0-2-.3-4.4-.5-5.4-1-4.5 1.7-8.2 5.9-8.2 2 0 4 2.6 4 5.8a29 29 0 0 0 2.3 10.1c.7 1.2 1.3 1.5 2.3 1.2 1.1-.4 1.4-.2 1.2.8-.2 1-1 1.4-2.8 1.5-3 .3-4.1-.9-4.7-4.6-.4-2-.8-2.6-2-2.8-1.3-.2-1.6.1-1.6 1.8 0 2.1-1.4 5.8-2.2 5.8-.3 0-.8-.6-1.2-1.2zm4.7-12.1c.2-.5-.1-.8-.6-.6a3 3 0 0 0-1.3 1.2c-.1.5.1.8.7.6.5-.1 1-.7 1.2-1.2zM507 624c-7.4-3.6-9.8-4.1-21-4-5.8 0-13.3.4-16.7.9-5.5.8-7.7.7-6.6-.4.7-.8 11.4-2.3 18.4-2.7 10-.5 19 .5 23.5 2.6l6 2.7c2.5 1 3.2 2.7 1.1 2.7-.6 0-2.8-.8-4.7-1.8zm-273.6-.2c-.4-.8-.7-2.7-.7-4.1 0-1.5-.4-3-.8-3.5-.9-1 0-3 1.2-3 .5 0 2.4.6 4.1 1.4 1.7.8 3.4 1.3 3.9 1 1.7-1 3.4.5 4.6 4.3 1.3 4.1 1.1 4.8-1 4.2-.9-.3-1.5-1.2-1.7-2.4-.2-2.2-2.2-2.6-2.4-.5l-.1 2.3c-.2 1.7-2.2.9-2.6-1-.8-3.7-1.1-4.4-1.8-4.4-.3 0-.5 1.4-.4 3.2.1 3.6-1 4.8-2.3 2.5zm17.1-.9c-.2-.4-.6-2.6-.8-4.9-.3-3.4-.2-4.1.7-4.1 1.4 0 1.9 1.5 1.9 6 0 3.5-.7 4.8-1.8 3zm12 .3c-.2-.2-.4-1.8-.4-3.5 0-2.6-.2-3.1-1.2-2.9-.8.1-1.3 1-1.5 2.3-.3 2.7-1.2 3.7-2.3 2.6-.6-.6-.6-1 0-1.9.9-.9.8-1.3-.5-2.7-1.7-1.8-1.9-3-.5-4.8 1.2-1.7 3.6-1.6 4 .1.3.7 1.2 1.4 2 1.6 1.5.2 1.8.7 2 3.2.1 2.4.4 3 1.5 3 1.7 0 1.8 1.8.2 2.3l-2 .8c-.4.2-1 .2-1.2 0zm9.5-.8c-1.3-2.4-1.2-8.4.3-10 1.6-1.8 5.4-1.9 5-.1 0 .7-.9 1.3-1.7 1.4-1.5.3-2.3 1.6-.9 1.6 1.1 0 .8 2.6-.4 3-1.9.8-.3 1.9 2.6 1.9 2.5 0 2.8.1 2.6 1.6-.2 1.3-.7 1.6-3.5 1.7-2.7.2-3.5 0-4-1.1zm13.5-1.2a9 9 0 0 1 0-3.5c.3-2 0-2.6-1-3.2a2.1 2.1 0 0 1-1.2-2.2c.3-2 1.6-2.3 3.3-.6.8.8 2 1.5 2.8 1.5.7 0 1.6.3 1.8.7.2.4 1 .5 1.8.3 2.1-.7 4.1.3 4.1 2 0 .8.7 2.1 1.5 3 1.6 1.7 1.3 3-.7 3-1 0-1.7-.8-2.4-2.9l-1-3-.9 3c-1.1 3.7-3 3.8-3.5.2-.5-3.6-2.5-3.4-2.3.1.1 2 0 2.7-.9 2.7-.5 0-1.2-.5-1.4-1.1zm18.1-.4c-1.3-1.3-1-4 .6-6.7 1.3-2.1 1.8-2.4 4-2.2 2.5.2 2.6.3 2.8 3.4.2 2.4-.1 3.5-1 4.4-1.9 1.6-5.3 2.2-6.4 1zm4.6-3.5c1-1 .3-2.7-1-2.7-1.2 0-1.9 1.2-1.4 2.5.5 1.2 1.3 1.3 2.4.2zm16.4 3.4c-.5-.4-.8-2.2-.8-3.9 0-4.1-1.6-3.6-2.4.8-.7 3.8-1.8 4-2.7.4a8 8 0 0 0-2-3.5c-1.4-1.2-1.8-3.4-.7-3.4.4 0 1.5.3 2.6.7 1.3.5 2.1.5 2.6 0 1.2-1.2 3.9-.8 4.6.6.4.8.8 2.3.8 3.4 0 1 .4 2.6 1 3.4 1 1.4 1 1.6 0 2-1.6.6-2 .5-3-.5zm20.9-1.6c-1.3-1.5-.3-3.3 1.6-3 1.8.2 2.5 2.6 1 3.5-1.2.8-1.6.7-2.6-.5zm-11.9-1.8c-.4-1.2-.7-3.1-.7-4.2s-.5-2.3-1.3-2.7c-1-.6-1-.9-.3-2 .5-.6 1.2-2 1.6-3l.8-1.7 1.1 1.5c.7.8 2 1.7 3.1 2 2.3.4 2 2.3-.4 2.6-3.4.5-1.8 6.9 1.8 6.9 1.2 0 2 .3 2 1 0 1.2-1.5 1.8-4.6 1.8-2 0-2.4-.4-3-2.2zm-97.1-117c-.3-.5.3-1.7 1.3-2.7 1-1 2.4-3.2 3.2-4.8a14 14 0 0 1 2.2-3.4c.4-.2 2.2-2.7 4.1-5.4 1.9-2.8 4.4-6.2 5.7-7.5 1.2-1.4 2.7-3.4 3.3-4.4 1-1.7 3-2.7 3-1.5 0 .9-1.8 3.6-4.1 6.3a64.2 64.2 0 0 0-7.6 10.3 17 17 0 0 1-3.3 4c-1 .8-2 2.1-2.2 3-.6 1.8-4 6.8-4.7 6.8-.2 0-.7-.3-1-.8zM235 494c-.3-.6 5-8.3 6.7-9.8a104.7 104.7 0 0 1 10-13.7c.7-.8 1.6-2.1 2-3 .6-1.7 2-2.1 2-.6 0 .5-1.3 2.6-2.8 4.7l-4.7 6.6c-1 1.6-3.2 4.4-4.8 6.3a79 79 0 0 0-4.4 6c-2 3.3-3.3 4.5-4 3.5zm-1-8.3c0-.4.7-1.6 1.6-2.7 1-1 2.5-3.2 3.5-4.8a207.9 207.9 0 0 1 7.7-10.8c.8-1.2 1.4-1.5 2-1 .5.5.4 1-.2 1.7a94.5 94.5 0 0 0-10.7 15.3c-1.4 2.3-4 3.9-4 2.3zm-7-4a85 85 0 0 1 10-13.3l2.2-2.8c.7-1 1.2-1.2 1.8-.6.6.6.2 1.5-1.6 3.5a59 59 0 0 0-4.1 5.2c-5.5 8.1-8.3 10.8-8.3 8zm-25.8-11c-.4-.5-.9-3.4-1.1-6.5l-1-9c-.3-3.5.7-6 1.9-4.1.3.6 1.2.8 2.4.4 2.5-.6 5 1.2 5.6 4 .2 1.2 1 2.6 1.6 3 1.4 1.1.7 2.5-1.4 2.5-1 0-2-.8-3-2.6-.7-1.4-1.8-2.6-2.4-2.6-1.1 0-1.2 1.7-.4 9 .6 5.8-.3 8.2-2.2 5.9zM184 463c-.5-1.5-1-6.3-1.5-12.3-.5-6.5-.8-6.2 5.6-6.7 3.1-.2 4.1 0 4.5.8.4 1.2-1.7 3-3.7 3-1.6 0-3.6 2.6-2.7 3.5.3.3 1.5.6 2.7.8 1.5.1 2.1.6 2.3 1.7.2 1.3-.2 1.6-2.1 1.8-1.8.1-2.4.5-2.6 1.8-.1 1.3.1 1.5 2.1 1.6 4.8 0 7 1.5 4.7 3.3-1.5 1.1-9 1.7-9.3.7zm80.7.4c-.8-.8-.6-1.5.6-2 .7-.2 1 .1 1 1 0 1.4-.7 1.9-1.6 1zm-13.3-3.6c-.2-.3-.5-4.4-.6-9.3l-.3-8.7 2.4-.3c3.4-.3 4.3 1 2 2.8-1.6 1.2-2 2-2 4.7.1 1.8.4 4.5.8 6 .4 1.4.6 3.2.3 4-.4 1.3-2 1.8-2.6.8zm-36.3-1.3c-.5-.5-1-2.4-1.2-4.1-.3-2.6-.1-3.2.8-3.2.7 0 1.2.6 1.2 1.7 0 .9.6 2.2 1.4 2.9.7.7 1.4 1.6 1.4 2.1 0 1.3-2.7 1.7-3.6.6zm22.6 0c-.7-1.3.2-5.5 1.4-7 1.7-2.2 5.5 0 5.5 3.1 0 1.2.4 1.5 2 1.5 2.5 0 3 1.7.8 2.8-2.2 1.2-9 1-9.7-.4zm4-3.1c0-1.7-1.6-1.5-1.9.3-.1.7.2 1.1.9 1.1.6 0 1-.6 1-1.4zm-12.5 1.8a11 11 0 0 1-.7-2.5c0-1.7-2.2-.5-2.6 1.4-.5 2.4-1.5 2.8-2 1l-1.2-2.8c-1.1-2.4-.4-3.2 3.2-3.4l3.4-.2 1.3 3c.8 1.9 1.8 3.1 2.5 3.1 1.8 0 .7 1.8-1.4 2-1.4.2-2-.1-2.5-1.6zm30.8.2c-.3-.9-.3-1.9 0-2.2 1-1.1 2.8.1 2.8 2 0 2.2-2 2.4-2.8.2zm-47.4-10.6c-.5-1.5.3-2.6 2-2.6 1 0 1.3.4 1.1 1.6-.2 1.8-2.5 2.5-3 1zm29-8c-.5-.7 1-3 5-8l4-5c.7-1.2 1.2-1.3 1.8-.7.6.6 0 1.8-2.4 4.9l-4.3 5.1c-.5.6-1.3 1.8-1.7 2.6-.9 1.7-1.9 2-2.5 1zm-6.5-2.3c-1-1.7 13.3-19.6 14.6-18.3.4.5-1 2.8-4.7 7.1a87 87 0 0 0-7.1 9.2c-1.9 3-2.1 3-2.8 2zm16.5 0c0-1 4.1-6.3 5-6.3 1.1 0 .6 1.5-1.2 3.8-2.2 2.6-3.8 3.6-3.8 2.5zm88-6c-1.2-1.4 0-1.7 5-1.6 3 .2 5.4.6 5.4 1 0 .8-9.6 1.3-10.3.6zm-106.2-3a67 67 0 0 1 12-15.5c1.5-.1.2 2.4-3.6 7a218 218 0 0 0-5.8 7c-1.5 2.1-2.6 2.7-2.6 1.4zm110.7-1.1c0-.9.8-1.1 4-1.1 5 0 4.8 1.7-.4 2-2.9.1-3.6 0-3.6-1zm-115-4.6A70 70 0 0 1 241 407c1.6 0 .8 1.4-5.2 8.7-5.1 6.3-6.5 7.6-6.5 6zm-2-6.5a46 46 0 0 1 11.6-13.8c1.9 0 .9 1.8-4.4 8-5.2 6.2-7.2 7.8-7.2 5.8zm60.5-42a22.6 22.6 0 0 1-3.7-6.5c-.9-2.3-2-5-2.7-6a32 32 0 0 1-2.4-4.9 40 40 0 0 0-4.2-9.8c-.7-1-1.3-2-1.3-2.5 0-.4-.6-1.9-1.4-3.3a28 28 0 0 1-2.1-6.1c-.5-2-1.6-4.6-2.5-6a47.8 47.8 0 0 1-6.3-22c-.4-4-.9-5.8-2.1-7.3-1.3-1.5-1.5-2.4-1.2-4.4.3-1.6 0-2.8-.7-3.6-.6-.7-1.2-3.2-1.4-5.8a22.2 22.2 0 0 0-5-13 8 8 0 0 1-2.2-3.6c-.2-1-1-3.2-1.7-4.8-.8-1.5-1.4-3.6-1.4-4.6 0-1.3-1.1-2.9-4.2-5.7-2.7-2.5-4.2-4.5-4.2-5.4 0-2.1-1.3-4.3-2.5-4.3-1.4 0-3.8-4-3.8-6.3 0-1-.9-2.6-2-3.8-3-2.8-5.3-8.4-4.7-11.3.2-1.3.7-2.4 1-2.4.3 0 1.5-2 2.7-4.4a25 25 0 0 1 4-6.1l4.1-4.1c4.3-4.7 8.9-7.3 8.9-5.1a69 69 0 0 1-7 6.7c-6 5.4-9.1 9.2-9.1 11.3 0 .3 4.4-4 9.8-9.5 7.5-7.7 10-9.9 10.6-9.3.7.7-1.5 3.2-9 10.9a233.6 233.6 0 0 0-11.1 11.5c-.6.9-1.6 1.6-2.1 1.6-1.2 0-1.4 1.8-.2 2.5.7.5 6.3-5 17.8-17.4 5.2-5.5 8-7.4 8-5.4 0 .4-2.3 3-5 5.8-2.9 2.8-8.5 8.5-12.5 12.7-6.4 6.6-7.1 7.6-6 8.3.6.4 1.4.4 1.7 0a809 809 0 0 1 15.4-16.8c5.5-6.2 7.8-7.7 7.8-5.5 0 .5-2.6 3.6-5.8 6.8-7 7.1-16.6 18.1-16.6 19 0 .3.6.5 1.3.5 1.1 0 14-12.9 18.3-18.4 1.7-2.1 2.7-2.4 3.2-.9.3.7-3.3 5-10.5 12.5-6 6.2-11 11.6-11 12 0 .2.6.7 1.2.9.7.3 2-.6 3.6-2.7a72.8 72.8 0 0 1 12.6-12.5c1.6 0 1 1.4-1.7 4.2a282 282 0 0 0-10 10.7c-1.4 1.8-1.5 2.2-.6 3 .8.9 2-.2 8.3-7.6 4.6-5.3 8-8.6 9-8.8 2.5-.3 1.7 1.3-3 6-5.6 5.5-13 14-13 15s1.4 1.5 2.3.5l7.8-8.6c3.9-4.3 7.4-7.8 7.8-8 2.4-.6 1.3 1.9-2.7 6-12.6 13.3-12.6 13.3-10.6 15 1 .8 1.4.6 3.3-1.5a54 54 0 0 0 4.3-5.2c3.4-4.5 7.5-8.8 8.6-8.8 1.8 0 .9 2.2-2.5 5.8-11.4 12.3-11.4 12.3-10 14.4.7 1.1 4.3-2.4 11.9-11.7 2.3-2.7 4.3-3.7 4.3-2 0 .7-3.6 5-11.5 13.5-4.2 4.5-4.5 5.1-2.9 5.7.7.3 1.8-.5 3-2l3.4-3.8 5.2-6c3.5-4.2 6.3-6 6.3-4 0 .7-11.7 14.1-15.1 17.3-1 .8-1.7 1.8-1.7 2.2 0 1.5 2.8.7 4-1 3.9-5.5 10.3-13 11.2-13 2.4 0 .2 3-9.8 13.7-2.6 2.8-3.4 4.9-1.7 4.5.5-.2 4-3.4 7.5-7.3 3.6-3.8 7-7 7.4-7.2 2.7-.7 1 2.1-5.4 8.7-7.8 8-8.6 9-8 10 1 1.5 2.3.5 6.7-5 6-7.3 8.1-9.6 9-9.6 1.8 0 .6 2.8-2.5 6a54.8 54.8 0 0 0-11.4 14.8c0 .9.3 1.6.6 1.6.4 0 2.8-2.4 5.5-5.4l6.5-7.2 1.8-1.8.2 1.6c.2 1.2-1.5 3.5-6.8 9.2-7 7.5-8 9.4-6 10.2.7.2 1 1.4 1 4.2 0 3.6.1 4 1.7 4 1.6 0 5.5-3.8 11.8-11.6 1.5-1.7 3.2-3.2 3.7-3.2 2.3 0 1.7 1.8-1.9 5.1a59.6 59.6 0 0 0-12.5 14.9c0 1.1.5.9 2.5-1.4 5.3-6 12.6-13 13.5-13 .5 0 1 .5 1.3 1 .2.6.8 1.1 1.3 1.1 2.3 0 1.6 1.7-2.2 5.4a97.3 97.3 0 0 0-15 18c.5.5 5.3-4.2 13-12.9 4.3-4.9 5.6-5.9 6.6-5.2 1.3.7.7 2-1.6 3.8-3.3 2.6-17.3 18-17.3 19.1 0 2.1 1 1.7 4-1.8l4.4-4.7c.7-.5 3.2-3.3 5.6-6 2.7-3.2 4.7-5 5.3-4.7.6.2 1 .6 1 .9 0 .3-4.2 4.9-9.4 10.2a55 55 0 0 0-9.1 10.7c.2.7.7.7 1.9-.3 1.5-1.3 7.4-7.4 12.6-13.2 2-2.3 2.7-2.7 3.5-2 .7.8.5 1.3-1 2.5a95.2 95.2 0 0 0-14.1 16.6c.3.4 4-3 8.2-7.7 4.2-4.6 8-8.4 8.3-8.4 2.1 0 .5 2.6-5 8.1a55.1 55.1 0 0 0-8.1 9.6c-1 1.9-1.5 3.4-1.3 3.4.3 0 2.6-2 5.2-4.4 13.3-12.4 15.3-13.8 15.9-11 .1.8-.6 1.7-2 2.4-1.3.7-3.3 2.2-4.5 3.4l-7.9 7.1c-6.2 5.4-6.6 6-5.7 7.4.4.8 2.6-1 9.2-7.6 4.7-4.7 9-8.6 9.4-8.6 2.2 0 1.3 1.8-3 5.8-9.5 8.9-13.6 13.2-13.6 14.6 0 2.1 2 2.5 3.3.7.6-.8 2-2.5 3.3-3.8 1.2-1.2 4-4.2 6-6.7 4.4-5.1 5-5.7 6-5.4 1.4.5.5 1.9-5 8-10 10.8-10.2 11.2-10 13.3.3 1.9.6 1.6 7.7-5.4 4-4 7.9-8.3 8.5-9.3 1.2-1.8 4-2.7 4-1.3 0 .8-9.3 11-15.2 16.6-2.6 2.5-3.6 4-3.3 4.7.3.7.7 1.2 1 1.2.3 0 4.3-4 8.8-8.8 7.3-7.7 10.2-10 10.2-8.2a42 42 0 0 1-4.6 5.4c-12.6 13.4-15 16.5-13 16.5.6 0 3-2.6 11.5-12.4 5.8-6.7 8.2-8.6 8.2-6.3 0 .5-.7 1.6-1.5 2.3-.9.7-4.4 4.6-7.9 8.7-3.4 4-6.9 8-7.6 8.6-1.4 1.4-1.6 2.3-.6 2.9.6.4 11.5-10.5 16-16 6-7.6 7.9-9 7.9-6 0 .9-.7 1.7-1.8 2-1 .4-1.7 1.2-1.7 1.7 0 1-6.5 8.4-14.2 16.2a27.5 27.5 0 0 0-4.8 5.8c0 2 1.5 4.4 3.5 5.4 2.7 1.4 2.8 1.4 2.8-.6 0-1.9 4-7 10.2-13.4 2.3-2.3 6-6.3 8.3-9 4.7-5.4 7.6-7.2 8.9-5.7.6.8.5 1.3-.7 2.3a15 15 0 0 0-2.9 3.8c-.7 1.4-2 2.8-2.8 3a61 61 0 0 0-16 16.2 40 40 0 0 1-5.3 7.5c-1.3.9-2.1.6-4.3-1.8zm-15.8-73.4c6.6-7.3 8-9.2 6.6-9.2-.2 0-2 1.7-3.8 3.7l-7.7 8c-2.5 2.5-4 4.6-3.8 5.1.3.4.8.7 1 .6a93 93 0 0 0 7.7-8.2zM233 373.6c-.4-1.4-3-7-6-13-2.3-4.9-2.4-6.1-.5-6.1 1.4 0 2 1 5.3 8.8l2.8 6.1c1 2 1.7 3.9 1.7 4.4 0 1.5-2.8 1.3-3.3-.2zm55.5-5.2c-.6-1.6.2-2.8 3.6-5.6 1.6-1.3 4.1-3.8 5.7-5.5l7.4-8.3c2.6-2.8 4.7-5.5 4.7-6 0-1 3-4 4-4 .5 0 .9.4.9.8 0 1.3-10.1 13.1-20.5 24-4.2 4.6-5.5 5.5-5.8 4.6zM219 344.2c-1.9-2.8-10-20.2-10-21.5 0-.8 1.3-1.9 2.5-1.9.2 0 1 1.5 1.8 3.4 3.3 7.7 4.3 9.9 6.7 14.7 2.3 4.6 2.6 7.2 1 7.2-.4 0-1.3-.9-2-2zm6.8-7.1a77 77 0 0 1 7.4-10.5c1-1.2 2.1-2.2 2.5-2.2 1.2 0 .5 1.7-1.7 4.7l-4.3 5.7c-1.9 2.6-4 3.8-4 2.3zm-2.8-4c0-1.3 8.3-13 9.3-13 1.3 0 .2 2.6-3.3 7.3-4.5 6-6 7.5-6 5.7zm-10.5-13.7c0-1.3 6-9.7 8.6-11.8 2.3-1.9 1.3 1.8-1.4 5a78.4 78.4 0 0 0-4.3 5.6c-2 3-3 3.4-3 1.2zm-8.7-5.7a173.5 173.5 0 0 0-6.4-13.6c-5.2-10.6-6.2-13.6-4.3-13.6 1.5 0 1.9.7 8.1 14.3 5.1 11 5.7 12.6 4.8 13.5-1 1-1.2.9-2.2-.6zm57.4-19.4c-.2-.4 1.3-2.5 3.3-4.8 2-2.3 5-5.8 6.5-7.8 2.5-3.3 4.3-4.3 5.5-3.1.2.2-1 2-3 4l-7 8c-3.7 4.3-4.6 4.9-5.3 3.7zm-.4-7.7c0-.8.9-2.1 2-3 1-1 3.1-3.2 4.7-5.2l3.2-3.8c.2-.2.8-1 1.2-2 1-2 3.6-2 3.6-.2 0 .8-.4 1.7-1 2-.5.3-3.5 3.5-6.7 7a46 46 0 0 1-6.3 6.5c-.4 0-.7-.6-.7-1.3zm-67.5-6.2c-.8-.7-.5-1.5.9-2.8.7-.7 3.2-3.7 5.6-6.8 3-3.7 4.6-5.2 5.1-4.8.5.5-.6 2.4-3.4 5.9a117 117 0 0 0-5.4 7c-1.2 2-2 2.4-2.8 1.5zM64.5 212.2c0-.4 2.9-3.4 6.4-6.8 5.7-5.6 8.3-9 7.3-9.9a64 64 0 0 0-8 7.5c-4.2 4.3-7.8 7.8-8 7.8-1.2 0-.3-2.1 1.8-4.3l5.8-6.3c2-2 5.2-5.3 7.2-7 3.1-3 4.4-4.8 3.3-4.8-.6 0-7 6-13.3 12.4a64.2 64.2 0 0 1-6.9 6.5c-.3 0-.5-.6-.5-1.4 0-.8 4-5.2 10.5-11.3 9.5-9 10.5-10.3 10.5-12.4v-2.4l-5 5.2a266.6 266.6 0 0 1-19 18c-.3 0-.5-.5-.5-1.2 0-.8 2.8-4 6.8-7.6a215.5 215.5 0 0 0 15-15.2c2.1-2 2.5-3.6 1.2-4.4-.4-.2-5.7 4.7-12.8 12C56.5 197 54 199 53 198.7c-1.1-.4-.5-1.3 4.6-6.5a337 337 0 0 1 11.8-11.7l4.5-4.8a20 20 0 0 0 3.3-4.2c0-1.7-2.7 0-8 5.2-8 7.9-16.3 15.5-17.1 15.8-.4.1-.9-.1-1.2-.5-.6-1 .9-2.7 7-8a91.4 91.4 0 0 0 16.5-16.7c0-2.7-1.8-1.9-7 3.4-17.6 17.6-20.3 20.1-21.2 19.3-.6-.6 2.1-3.8 12-13.7 11.9-12 13.8-14.5 11-14.5-1 0-17 15.6-21.2 20.9-2.6 3-4.4 3.8-4.4 1.8 0-.6 5-6.1 11-12.3l11.3-11.7c0-.4-.1-.8-.4-1-.6-.4-5.7 4.4-22 20.3-3.6 3.6-5.5 4.6-5.5 3 0-.5 5.7-6.4 12.7-13.3a77.3 77.3 0 0 0 12.2-13.2c-.3-.4-.7-.8-1-.8-.2 0-6 5.4-12.7 12A139.6 139.6 0 0 1 36 179.3c-1.8 0-.6-2 3.6-5.8l12.4-12c7.7-7.7 8.1-8.2 7.8-10.5-.3-3 .8-3.3 2-.4.5 1.2 1.1 2.1 1.5 2.1.3 0 1.5 1.4 2.6 3 1.2 1.8 3 3.4 3.9 3.6 2.5.6 5.8 3.6 6.3 5.8.3 1 1.5 3 2.7 4.3 2.9 3.4 3.8 5.9 4.4 12.3.4 4.5.2 6-1 9l-2.4 7.6c-1.2 3.9-6.2 10.5-8 10.5-.5 0-1.9 1-3.1 2-2.2 2.2-4.1 2.8-4.1 1.5zm-35.7-36.4c0-1.9 23-23.9 25-23.9 1.7 0 1 1.5-2 4l-12.1 11.6c-8.2 8.1-11 10.2-11 8.3zM21 172c0-.6 5-6.1 11.1-12.3 10.1-10.2 13.4-12.8 13.4-10.6 0 1-22.6 23.8-23.7 23.8-.5 0-.8-.4-.8-1zm-7.4-2c-.3-.3-.2-1 0-1.2l6.3-5.5c6.3-5.4 18.6-17.4 18.6-18 0-.2-1-.4-2.4-.4-2 0-3.7 1.3-14.8 12.3A148 148 0 0 1 8 169.4c-2.4 0-1.3-1.9 3.7-6.5 9.5-8.8 18.2-17.8 18-18.6-.5-1.2-1.8-1-3.8.8l-6 5c-2.2 2-6 5.6-8.3 8-5.3 5.6-8 7.6-9 6.6-.7-.8 5-6.5 16.2-16.3 5-4.4 6.2-6.3 4-6.3-.7 0-5.6 3.8-11 8.4C3.3 158 0 160.1 0 158.4a73 73 0 0 1 11.2-10.7c7.3-6.1 9.6-8.4 8.5-8.4-1.3 0-4.6 2.6-12 9.3-5.2 4.6-7.7 5.8-7.7 3.7 0-1 1-1.8 7.7-7.2 1.8-1.3 4.5-3.7 6.2-5.2 2.5-2.4 2.9-3 2.2-4.1-.6-1.1-.5-1.5.4-1.9.8-.3 2.3.7 4.8 3.2 3 3 4 3.6 6.2 3.6 1.4 0 2.9.5 3.4 1.1 1 1.2 1 1.2 14 .1 1.1-.1 1.8.3 2 1 .1 1-.3 1.3-1.7 1.3-1.5 0-3.6 1.7-9.8 7.9a190.8 190.8 0 0 1-20.7 18.7c-.3 0-.8-.3-1-.7zm37.7-20.7c-2.3-.3-3.1-1.7-1.5-2.7.5-.3.6-2 .3-5.1-.7-6.4-.7-6.6-.1-7.9.6-1.4-2-2.2-5.2-1.6-1.6.4-2.1.8-2.1 2.1 0 1-.4 1.7-1 1.7-1.4 0-1.6-5.8-.2-6.8a83 83 0 0 1 21.2-1c2 .8 2.4 3.6.8 4.9-.8.6-1.3.5-2.2-.6-1-1-1.8-1.2-3.5-1-3.9.8-4.2 1.5-3.2 8.1.4 3.2 1.1 6.6 1.5 7.5.3.9.4 2 .2 2.3-.4.6-.8.6-5 .1zm48.6-.7c-.3-.2-.5-1.2-.5-2 0-2.4 2-3 3.7-1.2 1.8 1.8 1.2 3.7-1 3.7-1 0-2-.2-2.2-.5zm-17-2c-.4-.8-1-1-2.4-.7-3.2.6-4.5-1-4.5-5.7 0-3.6.1-4 1.4-4 1.1 0 1.4.4 1.4 2.7 0 2.1.3 2.9 1.2 3 1 .3 1.2-.2 1.2-2.9 0-2.7.2-3.2 1.3-3.2 1 0 1.5.7 1.8 3.1.3 1.8 1 3.6 1.7 4 2 1.5 2.3 2.5 1.1 3.7-1.4 1.4-3.7 1.4-4.3 0zm11 .3c-.4-.5-.8-2.8-.8-5.4 0-2.5-.3-7.4-.8-10.8-1-7.4-.2-9.6 3-9.6 2.5 0 3.2 1.1 1.8 2.7-1.4 1.5-1.4 2.8-.1 10.9 1.6 9.3.1 15.3-3 12.2zm-31.3-.9c-1-.7-1.3-1.8-1.3-4.6 0-3.2.3-4 2-5.4 2.4-2 4.2-2 6.4.1 4.8 4.8-1.7 13.9-7 10zm4.5-5.8c-.3-1.5-1.6-1.4-1.9.1-.1.6.3 1.1 1 1.1s1-.5.9-1.2zM35.6 126a13 13 0 0 1-5.5-1.3 5 5 0 0 0-2.7-.8c-1 0-2.7-.4-4-.9-2.7-1-3-2.9-.3-3.2.9-.1 2.3-.9 3-1.6.9-.7 1.9-1.3 2.3-1.3.5 0 1.4-.7 2.1-1.4.7-.8 1.5-1.4 1.9-1.4.5 0 3-2 5.5-4.3.7-.7 3-2.4 5.3-4 2.3-1.5 4.7-3.5 5.5-4.3.7-.8 1.7-1.5 2.1-1.5.5 0 1.7-1 2.8-2a8.8 8.8 0 0 1 2.7-2.2 19 19 0 0 0 4.3-3c2-1.7 5-4 6.9-5.3 3.1-2.1 3.3-2.4 3.3-5.4 0-2.7.2-3 1.5-3 1.2 0 1.4.2 1 2-.4 1.7-.1 2.3 2.1 4 6.5 5 8 6.7 9.2 10.5 1 3.5 1.1 4.2 0 9.9a66 66 0 0 1-1.8 8c-1.3 3.3-5.8 5.7-12.6 6.7-4 .5-7.4 1.5-10 3a48.8 48.8 0 0 1-24.5 2.9zm16.5-8a256.6 256.6 0 0 0 16-12.8L76 99c2.2-1.7 4.3-3.2 4.7-3.2 2 0 0 2.3-6.4 7.4-3.9 3-8.2 6.6-9.5 7.9a11 11 0 0 1-3.2 2.3 53 53 0 0 0-9.5 7.5l-2.6 2.2h1.9c1 0 2.2-.4 2.7-1s1.1-1 1.5-1c.4 0 1.7-1 3-2.3 1.3-1.3 4-3.6 6.1-5.3 15.2-12 18.1-14.4 18.1-15.2 0-.5-.3-1.8-.8-3-.8-2.5-2.6-3-4.2-1.1s-14.4 12-18.7 14.6a267.9 267.9 0 0 1-13.2 9.8 32.3 32.3 0 0 0-5.8 4.7c0 .3 1 .6 2.2.6 1.6 0 4-1.5 10-6zM38 121.7c1.5-1.3 6-4.7 16-11.7l6.2-4.8a71.4 71.4 0 0 0 9.8-7.3 35 35 0 0 1 7-4.9c1.7 0 1-2.6-1.3-4.5-1.8-1.6-2.3-1.7-3.4-1L67.6 91a1264.7 1264.7 0 0 0-33 24.8c-5.4 4-6.9 5.4-5.7 5.4 1 0 4.9-2.6 9.4-6.2 7.7-6 10.7-8.2 24-17.7l9-6.4c2.3-1.8 3.7-2 3.7-.6 0 .3-3 2.7-6.5 5.4l-9.2 7-7.8 5.5c-9.6 6.7-11.9 8.3-15.2 11-1.8 1.6-3.3 3-3.3 3.4 0 1.2 3.3.7 5-.8zm30.8-6.7a83.8 83.8 0 0 0 14-11.7c0-.9-1.9-.5-2.8.6-.5.6-5.1 4.4-10.3 8.5-5.1 4-9.3 7.5-9.3 7.7 0 .6 6.7-3.4 8.4-5zm6-.3a51 51 0 0 1 5.4-3.9c1-.5 2-1.4 2-2 0-.9-.4-.8-2 .2a69 69 0 0 0-10.7 8c0 1.3 2.2.3 5.4-2.3zm3 .9c.1-.5-.2-.7-.9-.4-.6.2-1 .7-1 1.1 0 1 1.5.3 1.9-.7zm26-2a9.4 9.4 0 0 1-1.6-2.5c-.2-.6-1.6-1.8-3.2-2.6-3-1.5-5.7-4.5-5.7-6.2 0-.6-.5-2.5-1.1-4.3-1.3-3.7-1-6.4.7-5 .7.6 1 .5 1.4-.3.2-.6 1-1 1.9-1 .8 0 3.2-1.6 5.4-3.6 2.2-1.9 4.2-3.5 4.5-3.5 1.6 0 0 2.4-3.7 5.7-3.8 3.4-5 4.8-3.6 4.8.3 0 3-2 6-4.6 3.2-2.7 5.9-4.5 6.6-4.3 1.3.3 1.5 0-7 7.2a19 19 0 0 0-4.8 5c0 .8.7.6 2.7-.9a262 262 0 0 0 14.3-12c3.1-2.8 5.1-3.4 4.6-1.2-.2 1-11.6 10.4-16.5 13.6-2.7 1.7-3.7 2.7-3.7 4 0 .8.3 1.7.6 2 .7.3 8-5.4 19-14.8 5.6-4.8 7.8-6.3 8.5-5.8.8.5.4 1.2-2 3.3-6.1 5.4-9 7.8-14.5 11.9l-7.7 6-2.1 1.8h2.4c1.9 0 3.6-1 9-5.3 8.3-6.7 20.2-16.8 20.8-17.8.7-1 3.2-.8 3.2.3 0 .6-2 2.6-4.3 4.4l-7.7 6.4c-2 1.6-3.7 3-4 3-.3 0-1.9 1.2-3.5 2.8a19.2 19.2 0 0 1-3.5 2.8c-.3 0-1.7 1-3.2 2.3-2.5 2.2-3 4-1 4a91 91 0 0 0 14.1-11 407 407 0 0 1 8.5-6.9c2-1.5 5.2-4.3 7.2-6.1a15 15 0 0 1 4.7-3.4c2.2 0 .9 2.5-2.7 5.3-2 1.5-6.9 5.3-10.6 8.4l-11.4 9.1c-2.5 2-4.7 4-4.9 4.4-.8 2.3 2.9 0 12.6-7.7 18.6-15 19.7-16 20.7-17.4.5-.8 1.6-1.4 2.4-1.4.8 0 1.9-.5 2.3-1.1.6-.8 1.4-1 2.1-.7 1 .3 1.2 1 .9 3a31 31 0 0 1-4 11.5c-.8.7-1.4 2.1-1.4 3.1 0 2.4-2.2 6.6-4.7 8.8a42.6 42.6 0 0 1-27.8 5.5c-9.2-1.4-12-2-12.6-2.7-1.4-1.4-1.9-.7-1.4 2 .5 3.2.3 3.4-1.3 1.6zm23.2-5a117 117 0 0 1 5-4c13.4-10.1 21.6-17.3 21.6-19.1 0-1.5-1-1.4-2.7.3a938.2 938.2 0 0 1-27.6 22.3c-2 1.4-2.5 2.1-1.8 2.6 1.6 1 2.4.6 5.5-2.1zm9.7-2.5 8.7-6.7c2.2-1.7 4.2-3.8 4.4-4.7.3-1 .7-1.7 1-1.7.4 0 .7-.3.7-.8s-1.5.6-3.4 2.3a149 149 0 0 1-9.8 7.5 80 80 0 0 0-7.9 6.2l-1.6 1.7h1.6c1 0 3.7-1.7 6.3-3.8zm5 1.3a10 10 0 0 0 5.1-4c1.1-1.5 1.9-3 1.7-3.1-.2-.2-1.6.5-3 1.7l-5.9 4.2c-3.4 2.5-2.7 2.8 2.1 1.2zm-43-3.7c-.7-.7-1.3.4-.8 1.3.5.8.7.8.9 0 .2-.4.1-1-.1-1.3zm-2.2-2.3c.2-.3 0-.7-.3-.7-.4 0-.8.4-.8.7 0 .4.2.7.3.7.2 0 .5-.3.8-.7zM83.9 75c-.6-1.5-2.4-5-4-7.8-3-5.3-3.2-7.4-.6-7 1 .2 1.8 1.3 2.8 4 .7 2.1 2.1 5.4 3 7.2 1 1.9 1.8 4 1.8 4.8 0 2.3-1.8 1.6-3-1.2zm-13-25.6c-.3-.5-1.7-3.4-3-6.5-1.2-3-3.1-7.2-4.2-9.2-2.4-4.3-2.5-5.2-.6-5.2 1 0 2 1.2 3.4 4.4L71.2 43c2.3 5.2 2.6 7.3 1 7.3-.3 0-.8-.4-1.2-1zM57 19.1a40.1 40.1 0 0 1-4.9-8.6 4457 4457 0 0 0-3.8-7.7C47.3.9 48.2-.5 50 .2a52 52 0 0 1 6.9 12.6l1.7 4c1.1 2.7 1 4-.4 4-.3 0-1-.7-1.3-1.7z"/>
</svg>
