<?xml version="1.0" encoding="utf-8"?>
<svg xmlns="http://www.w3.org/2000/svg" version="1.1" viewBox="0 0 333 353">
	<title>Sketch of an even steeper gorge than the previous diagram, with no labels, but retaining the solid and dotted lines.</title>
	<path d="m146 352.23c-0.23191-0.41325-0.69976-1.9183-1.0397-3.3445l-0.61805-2.5931-3.9113-1.7633-3.9113-1.7633-4.2838 2.292-2.7002-1.2978c-1.4851-0.71377-3.3419-2.6502-4.1263-4.3032s-2.0408-4.2817-2.7922-5.8416-1.3661-3.406-1.3661-4.1024c0-0.69645-0.90188-2.0822-2.0042-3.0795s-2.0042-2.442-2.0042-3.2105c0-2.035-2.8585-7.2385-6.4178-11.683-1.7061-2.1303-4.9163-5.1246-7.1337-6.6541-2.2174-1.5295-4.5093-3.8439-5.093-5.1431-0.58375-1.2992-3.2166-6.645-5.8509-11.88-2.6342-5.2345-5.8275-10.477-7.0962-11.649l-2.3066-2.1317-5.0966 0.97402-6.8528-4.2341-0.62532-3.1258c-0.34393-1.7192-0.62235-3.6329-0.61873-4.2528 4e-3 -0.61987 0.82673 0.11634 1.8291 1.636 1.0024 1.5197 2.1185 2.4671 2.4804 2.1054 0.36183-0.36174 0.37894-1.8305 0.038-3.264-1.0394-4.3704-6.4492-15.422-9.367-19.136-5.3714-6.8373-12.648-24.544-20.584-50.091-4.1892-13.485-6.2521-17.42-19.081-36.4-1.0556-1.5618-3.4976-5.2388-5.4266-8.1713-4.0007-6.0817-12.278-17.268-14.524-19.629-1.8144-1.907-1.9721-4.604-0.30177-5.1606 1.9474-0.64897 10.768 8.3165 13.538 13.76 1.4019 2.755 4.1267 6.7651 6.0551 8.9113 1.9284 2.1462 4.7873 6.7267 6.353 10.179s3.9437 7.8927 5.2845 9.8678c3.6787 5.4194 8.092 15.239 10.623 23.637 7.7031 25.556 14.474 41.812 21.489 51.59 1.975 2.7532 3.591 5.3321 3.591 5.7308s1.1274 3.1888 2.5052 6.2004c1.3779 3.0115 2.5052 7.1119 2.5052 9.1119 0 2 0.4668 4.5084 1.0373 5.5742l1.0374 1.9378h7.6356l1.5041 1.7532c0.82724 0.96425 2.5144 3.8921 3.7493 6.5063 1.2349 2.6142 2.622 4.9859 3.0826 5.2704 0.46052 0.28453 1.8223 3.4764 3.0262 7.0931l2.1889 6.5758 4.972 3.0585c2.7346 1.6822 6.1814 4.8565 7.6596 7.0541 7.3901 10.987 11.867 19.463 12.741 24.123l0.6979 3.7191 5.276 4.149 3.6929-0.59037c2.0311-0.32468 4.8619-0.14602 6.2907 0.39705 1.4288 0.54308 3.5461 2.5942 4.7051 4.558l2.1073 3.5706 3.192-0.61454 1.0404-3.7072c0.57223-2.039 1.5585-4.2252 2.1917-4.8582 0.63321-0.63304 2.6296-1.4532 4.4363-1.8227l3.285-0.67166 0.72006-2.6917c0.39604-1.4804 2.3865-4.7248 4.4233-7.2098 2.0368-2.4849 4.0789-5.9947 4.5381-7.7995 0.45916-1.8048 1.5916-5.5355 2.5166-8.2905 0.92498-2.755 2.1366-6.5869 2.6926-8.5154 0.55597-1.9285 1.8079-4.408 2.7821-5.51 2.8172-3.1869 5.9176-10.006 7.6299-16.782 0.87006-3.4429 2.378-7.1615 3.351-8.2635s3.3548-4.5211 5.2929-7.598c1.9381-3.0769 4.633-6.4666 5.9886-7.5327 1.3556-1.066 2.9308-2.8313 3.5004-3.9229 0.56959-1.0915 1.3597-4.6536 1.7557-7.9156l0.72009-5.931 2.6524-3.3232c1.4588-1.8278 4.3924-4.0193 6.5191-4.87l3.8667-1.5467 11.827-11.935v-2.15c0-1.1825 0.53834-3.9463 1.1963-6.1419l1.1963-3.9919 4.2506-1.8215c2.3378-1.0018 5.034-3.0169 5.9916-4.4778l1.741-2.6563 0.30424-5.0847c0.16734-2.7966 0.73963-6.476 1.2718-8.1765 0.53214-1.7005 1.2749-6.2476 1.6506-10.105 0.37566-3.857 1.1712-7.9144 1.7678-9.0164 2.1972-4.0584 4.6158-12.121 4.6582-15.528 0.024-1.9285 0.72671-5.758 1.5617-8.5099l1.5181-5.0036-0.60648-2.7605-0.60647-2.7605h0.9982c0.54902 0 1.2116 0.56352 1.4724 1.2523 0.26081 0.68875 0.47172-0.59009 0.46868-2.8418l-6e-3 -4.0941 2.4923-3.947c1.3708-2.1708 2.7963-5.3308 3.1679-7.0221l0.67561-3.0752 5.6008-5.8741c3.0804-3.2308 6.4025-7.301 7.3823-9.0451 0.97983-1.744 2.3188-6.7148 2.9756-11.046l1.1941-7.8753 3.5037-6.5261c1.927-3.5893 4.2189-7.3307 5.093-8.3141s2.7434-2.3411 4.1542-3.0171c1.4107-0.67596 3.2431-2.5762 4.072-4.2228 0.82889-1.6466 2.9726-4.5067 4.7639-6.3557 1.7912-1.849 3.2568-3.9754 3.2568-4.7252s1.5783-2.9412 3.5073-4.8697l3.5073-3.5064v-2.4002c0-1.3201 1.3518-4.1007 3.004-6.1792 1.6522-2.0784 3.4483-5.6343 3.9914-7.9018 1.5743-6.5736 4.165-13.979 5.6211-16.067l1.343-1.9262 0.69217 1.8033 0.69216 1.8033-2.191 7.1356c-1.2045 3.9246-2.7042 8.9389-3.3322 11.143-0.62791 2.204-1.6453 4.4581-2.2609 5.0091-2.1966 1.9662-5.274 7.0594-5.9482 9.8443-0.37702 1.5574-2.3593 4.569-4.405 6.6925-5.839 6.061-11.235 12.643-11.235 13.703 0 1.2374-3.9848 4.8414-6.2255 5.6304-2.0402 0.71848-7.7565 11.361-9.5215 17.727-0.68745 2.4795-1.2603 5.8606-1.273 7.5136-0.0127 1.653-1.3493 5.6679-2.9702 8.922l-2.9471 5.9165-9.7949 9.3399-1.1068 3.9399c-0.60875 2.1669-2.222 7.0956-3.585 10.953-4.681 13.246-6.6679 20.586-6.6679 24.631 0 2.2286-0.45212 4.8966-1.0047 5.9289-1.5359 2.869-6.5995 26.13-7.5734 34.79-0.52368 4.6568-1.6753 7.909-3.6914 10.424-0.72326 0.90233-3.0798 2.4802-5.2368 3.5064l-3.9218 1.8657-4.1253 12.695-10.021 11.091-10.772 5.1191-1.3783 3.2978c-0.75806 1.8138-1.3901 4.7774-1.4046 6.5859-0.0144 1.8084-0.8036 4.9575-1.7537 6.998-0.95006 2.0404-3.5341 5.647-5.7422 8.0145-5.5096 5.9073-11.513 14.925-11.541 17.337-0.013 1.0972-1.1383 4.6999-2.5006 8.0059-1.3622 3.306-2.4789 6.329-2.4814 6.7178-3e-3 0.38878-1.132 2.3677-2.5099 4.3975-1.3779 2.0298-2.5052 4.4742-2.5052 5.4318 0 0.95765-0.6202 2.2558-1.3782 2.8847-0.75804 0.62893-1.9519 3.2763-2.653 5.8831-0.7011 2.6068-1.6592 5.1679-2.1291 5.6913-0.46989 0.52344-0.85435 1.9074-0.85435 3.0756s-1.4738 3.8956-3.2751 6.061c-3.1095 3.7381-4.9009 6.8625-6.098 10.636l-0.53597 1.6894-7.4382 0.62853-1.3662 3.9628c-0.75139 2.1795-2.3382 4.9971-3.5262 6.2614-2.1105 2.246-5.2807 3.0471-6.1224 1.5472zm12.328-48.839v-2.5045h1.3959c1.5665 0 2.9203 2.6988 2.0555 4.0977-0.30989 0.50128-1.2132 0.91141-2.0074 0.91141h-1.444zm-7.0146-6.9292v-2.588h3.1457l-0.32022 2.1756c-0.17612 1.1966-0.88389 2.3612-1.5728 2.588l-1.2526 0.41241zm-5.6502-1.0853c-0.71676-1.8673 0.22657-4.5082 1.6104-4.5082 0.56844 0 1.0335 1.3524 1.0335 3.0054 0 3.1459-1.6526 4.0852-2.6439 1.5027zm-3.6818-9.1624c-0.37892-0.37882-0.68893-1.3229-0.68893-2.098v-1.4092l1.7536 0.33763c0.96452 0.1857 1.7537 0.97012 1.7537 1.7432 0 1.5817-1.768 2.4765-2.8184 1.4264zm-6.6034-3.5098c-0.60507-1.7352-1.0851-3.8766-1.0668-4.7586l0.0334-1.6037 1.9708 2.3651c2.0044 2.4054 2.7124 7.1522 1.0668 7.1522-0.49724 0-1.3991-1.4197-2.0042-3.1549zm-13.927-2.0545c-1.672-1.6716-1.5034-3.8069 0.30062-3.8069h1.5031v2.5045c0 1.3775-0.13528 2.5045-0.30063 2.5045-0.16534 0-0.84175-0.54098-1.5031-1.2022zm6.8896-6.3759-3.432-1.4888 2.3001-2.2995 2.5324 1.1535c1.3928 0.63444 2.5324 1.8394 2.5324 2.6777s-0.11274 1.5066-0.25053 1.485c-0.13778-0.0215-1.7949-0.70917-3.6825-1.528zm-11.061-8.854c-0.57163-1.5031-1.0393-3.1544-1.0393-3.6695 0-0.51512 0.66783-0.93659 1.484-0.93659h1.484l0.64718 2.5779 0.64719 2.5779-2.1838 2.1832zm-3.6771-10.1c-0.34905-0.90935-0.10503-2.1828 0.54225-2.8299l1.1769-1.1766 0.94407 1.4944c0.51924 0.82189 0.81049 1.917 0.64721 2.4336-0.54031 1.7094-2.6651 1.7598-3.3104 0.0785zm-17.404-5.6197c0-0.49942 0.90189-0.90803 2.0042-0.90803s2.0042 0.17283 2.0042 0.38407c0 0.21123-0.90188 0.61984-2.0042 0.90802s-2.0042 0.11535-2.0042-0.38406zm8.0167-1.4089v-1.5027h4.0084v3.0054h-4.0084zm-11.578-9.6045c-0.37031-0.59902-0.17144-1.5908 0.44191-2.204l1.1152-1.1149 1.1152 1.1149c1.1563 1.156 0.43262 3.2931-1.1152 3.2931-0.48609 0-1.1868-0.4901-1.5571-1.0891zm-2.7853-7.5933c-1.0395-1.0392-0.78548-4.3412 0.33403-4.3412 0.55115 0 1.0021 1.127 1.0021 2.5045s-0.15031 2.5045-0.33403 2.5045-0.63466-0.30054-1.0021-0.66788zm-7.6827-10.352-1.0726-2.0036h1.338c1.4729 0 3.743 1.9443 3.743 3.2058 0 0.4408-0.66055 0.80145-1.4679 0.80145-0.80732 0-1.9506-0.90163-2.5405-2.0036zm-9.0188-4.9807c-1.671-1.1111-1.1855-1.2738 4.2577-1.426 2.0661-0.0578 3.7572 0.23304 3.7578 0.64629s-0.56246 0.75751-1.2514 0.76503c-0.68894 8e-3 -2.1545 0.23881-3.2568 0.51394-1.1023 0.27514-2.6806 0.0505-3.5073-0.49924zm-11.882-5.9294-1.3596-0.86125 1.118-0.6908c1.3879-0.85756 5.1085 0.24194 5.1085 1.5097 0 1.1669-3.0498 1.1934-4.8669 0.0424zm56.976-83.261c0-0.73466 0.30063-1.0352 0.66807-0.66788 0.36743 0.36734 0.36743 0.96843 0 1.3358-0.36744 0.36733-0.66807 0.0668-0.66807-0.66788zm-3.5073-4.0073c-0.81722-1.3219 0.381-3.1979 1.5724-2.4618 1.2172 0.75204 1.2092 3.4636-0.0101 3.4636-0.51863 0-1.2216-0.45082-1.5623-1.0018zm8.1422-0.7989c-0.3106-0.50242 0.5547-1.9648 1.9229-3.2498l2.4876-2.3363 1.2168 1.2165 1.2168 1.2165-1.0819 1.7256c-1.2077 1.9262-4.89 2.8386-5.7622 1.4276zm-17.462-4.4106c-1.6585-1.6581-1.5088-3.8069 0.26537-3.8069 1.6337 0 3.8302 3.3858 2.8393 4.3764-0.9305 0.93025-1.7559 0.77883-3.1046-0.56955zm26.856-0.83373c0-0.56876 1.0146-1.4233 2.2547-1.899l2.2547-0.86487 0.86467 0.80986c0.47556 0.44541 0.56169 1.2999 0.19138 1.899-0.85687 1.3861-5.5655 1.4326-5.5655 0.055zm13.695-2.6392c-1.2914-1.291-0.64664-3.2804 1.422-4.3871 1.1495-0.61503 2.3527-0.85561 2.6738-0.53464 0.67112 0.67094-1.7593 5.5896-2.7619 5.5896-0.36617 0-0.96638-0.30054-1.3338-0.66788zm-52.109-4.0073c-0.36744-0.36733-0.66807-1.269-0.66807-2.0036v-1.3358h4.0084v4.0073h-1.3361c-0.73488 0-1.6368-0.30055-2.0042-0.66788zm64.877-3.7183c-0.32274-0.84084-0.29476-2.0012 0.0621-2.5786 0.35699-0.57739 1.5557-1.0498 2.6638-1.0498h2.0147l-0.64044 4.4877-3.5134 0.66946zm-75.865-3.2598c-0.38649-0.38638-0.70271-1.5604-0.70271-2.6088v-1.9063l4.5094 0.64026v3.9798l-1.552 0.2988c-0.8536 0.16435-1.8682-0.0173-2.2547-0.4037zm89.025-3.3087c-0.63333-1.0245 5.452-6.0762 7.3194-6.0762 2.3598 0 1.0514 2.9079-2.217 4.9274-1.8563 1.1469-3.6334 2.0853-3.9492 2.0853s-0.83467-0.42144-1.1531-0.93652zm-98.65-5.015-1.3902-0.85899 0.61562-1.6038c0.33858-0.88211 1.0949-1.6038 1.6806-1.6038 1.4672 0 2.4711 2.9394 1.3773 4.0329l-0.893 0.89276zm111.25-0.99197-1.2831-0.79278 2.8402-2.1214c1.5621-1.1667 3.7421-2.9721 4.8444-4.012 1.9896-1.8768 7.5749-4.1631 10.17-4.1631 0.74448 0 1.3536 0.43924 1.3536 0.97609 0 1.3834-5.4576 4.033-8.3072 4.033h-2.3941l-1.1133 2.4427c-0.61231 1.3435-1.9491 2.8899-2.9706 3.4365l-1.8573 0.99373zm-183.81-2.7199c-1.3068-1.3065-0.68292-2.3584 1.3987-2.3584h2.0877l-0.39667 1.1897c-0.48813 1.464-2.1614 2.0969-3.0898 1.1688zm61.821-2.8114c-0.69807-1.8187 0.31587-3.5543 2.0764-3.5543 1.5191 0 2.846 2.7234 1.9964 4.0977-0.8759 1.4168-3.4523 1.0731-4.0727-0.54334zm-47.98-0.54888c-0.82731-1.3382 0.28447-3.0055 2.0042-3.0055 2.0442 0 2.9756 2.0924 1.381 3.1021-1.8106 1.1465-2.6311 1.1231-3.3852-0.09667zm13.186-0.67657c-0.36265-0.36256-0.65937-1.4857-0.65937-2.4959v-1.8367h4.0084v1.38c0 1.6991-2.4459 3.8554-3.349 2.9525zm12.055-2.9759c-0.37891-0.37882-0.68894-1.5152-0.68894-2.5254v-1.8367h4.1478l-0.32022 2.1756c-0.33255 2.2594-1.9433 3.3815-3.1386 2.1865zm12.936-0.90191c-1.7348-1.7344-1.3151-3.4602 0.84157-3.4602 0.72671 0 1.833 0.61642 2.4584 1.3698l1.1371 1.3698-1.4093 1.1693-1.4093 1.1693zm161.74-5.9647v-1.6496l1.7537 0.33763c2.1122 0.40667 1.9791 2.1846-0.19759 2.6377l-1.5561 0.32392zm10.021-5.3547c0-0.4656 0.88509-1.6473 1.9668-2.626l1.9669-1.7795 3.582 1.3937-2.3657 1.9292c-2.4473 1.9958-5.15 2.5639-5.15 1.0827zm12.252-10.352c0.54919-1.6471 3.5416-3.4005 4.3775-2.5649 0.95335 0.95309-1.5123 3.7456-3.3072 3.7456-0.80517 0-1.2868-0.53131-1.0703-1.1807zm11.798-11.269v-1.5762h4.1754l-0.41707 1.2523c-0.22938 0.68875-1.1688 1.398-2.0877 1.5762l-1.6706 0.32392zm12.702-10.25c-0.93155-0.9313 1.2776-3.3481 3.0605-3.3481h1.4876l-0.60826 1.5847c-0.33454 0.87156-0.60825 1.7732-0.60825 2.0036 0 0.67096-2.6083 0.48289-3.3316-0.24021zm10.749-13.761-0.6771-1.764 3.266-3.2651 2.4416 2.4409-2.1767 2.1761-2.1767 2.1761zm8.206-14.485c-0.29045-0.46983 0.10352-1.7096 0.87548-2.755l1.4036-1.9008 2.455 2.4196-1.2827 1.5452c-1.433 1.7261-2.6596 1.9717-3.4513 0.69096zm9.9398-8.1458c-0.73909-1.1955 0.19899-3.0218 1.5522-3.0218 1.2194 0 1.2272 2.7115 0.0101 3.4636-0.51307 0.31701-1.2161 0.1182-1.5623-0.44178z" stroke-width="1.002"/>
</svg>
