<?xml version="1.0" encoding="utf-8"?>
<svg xmlns="http://www.w3.org/2000/svg" version="1.1" viewBox="0 0 994 881">
	<title>Sketched elevation relief map of darkly shaded valleys, with shaded belts surrounding them. The edge of each valley has a letter, starting the top and going clockwise: A, B, F, E, D and C. All the valleys/shaded areas save for one (labeled E) intersect in the center of the map. The area to the north side and left is labeled “Bernese Alps,” and the south and left “Pennine Alps.” A dotted line ending in an arrow traverses the map from top left to bottom right, ending in an arrow.</title>
	<path d="M822.7 878.8a56.4 56.4 0 0 1-5-6.9 62 62 0 0 0-13-16.8c-2.6-2.4-6.6-5-8.8-6-2.2-1-6-2.2-8.5-2.5a40 40 0 0 1-12-2c-.5-.4-1-1.2-1-2v-1.1l29 .3v-.9c0-.5-1.8-3.8-4-7.4a64.5 64.5 0 0 1-4.6-8.7c-.9-3-8-17.3-10.8-22l-1-1.7 1.5-1.6 1.5-1.5 1.6.6c1.7.6 6 8.3 14 24.7l5.3 10.8 4-.6.9-9.3.9-9.3 3.2.7v15c0 8.2.5 17 1 19.4s2.2 7 4 10a128.5 128.5 0 0 1 8.1 15.3c.9 1.6 1.3 3.5 1 4.3-.8 2.2-5 1.7-7.3-.8zM774 785.7c-1.5-2.4-3-5.7-3.3-7.4l-.6-3 1-.7c.7-.4 2-.4 3-.1l2 .6 6 12.4-1 1.3a4 4 0 0 1-2.7 1.2H777l-2.8-4.3zm-11-21.5a32.6 32.6 0 0 1-5.7-10.8V752l2.7.3 2.7.3 2.3 4c1.2 2.2 2.3 5 2.3 6.2 0 1.2-.6 2.4-1.4 2.7-.8.3-2-.3-2.9-1.2zm-115.8-23.1c-2-.4-4.1-1-4.8-1.4-.6-.4-1.2-1.7-1.2-2.7v-2l9-2.4.1-9 .3-14.5.1-5.4 2.7-.7c3.4-1 11 .5 14.4 2.7 1.4.9 3.4 3.3 4.5 5.4 1 2.1 2.5 7 3.1 10.7l1.2 6.8-1.8 4.7c-1 2.5-2.7 5.4-3.8 6.4l-2 1.8-9.1.1c-5 0-10.8-.2-12.7-.5zm18.7-10.9 2.2-3.3-.6-5.2a22 22 0 0 0-2.3-7.7c-2-2.8-7.4-6.2-8.3-5.3a66 66 0 0 0-.7 13v12.5l7.5-.7zm83.6 9.6c-.5-.7-2-3.2-3.1-5.6-1.2-2.3-2-4.7-1.6-5.2.3-.5 1.4-1 2.4-1h1.9l3 5.3c1.6 2.9 2.7 5.8 2.4 6.5s-1.2 1.2-2.2 1.2a4 4 0 0 1-2.8-1.2zm-12-21.5c-1-1-2.6-3.4-3.6-5.4l-2-3.6.7-1.6c.3-1 1.5-1.7 2.6-1.7h2l2.6 4.5 2.6 4.5-.3 2.2c-.2 1.2-.9 2.4-1.5 2.6-.7.2-2-.5-3-1.5zm-113.9-21.6-.5-1.5 2.6-4.6a26 26 0 0 1 3.6-5.1c1.8-1.1.8-4-2.7-7.8l-3.6-3.9-1 1.4c-.4.7-2.5 4.8-4.5 9.1l-3.7 7.8-2.8 1.4-2.9 1.4-.6-1.5c-.3-.8.1-2.2 1-3.2.8-.9 2.6-3.7 4-6.2l5.7-9.6 3.2-5.2-1.1-2a23 23 0 0 0-5.7-5.3l-4.6-3.1-.9 1.4a173.4 173.4 0 0 1-11 22.4c-.6.8-1.8 1.4-2.5 1.4h-1.4v-2c0-1 .5-2.2 1.1-2.5.6-.4 1.7-2.2 2.5-4.1.8-1.9 3.2-6.3 5.4-9.9 2.2-3.6 4-6.7 4-7s-1.6-1.1-3.5-2c-2-1-3.5-2.1-3.5-2.6s-.6-.9-1.2-.9c-.7 0-3 3.7-5.2 8a31.1 31.1 0 0 1-5.8 9.1l-1.8 1-.6-1.5c-.6-1.5 3-9.5 6.6-15 1-1.7 2-3.7 2-4.4 0-.8-2-3.2-4.3-5.3a25.6 25.6 0 0 0-4.9-3.9c-.3 0-2.3 3-4.3 6.5-3.4 6.2-5.6 7.8-7 5.5-.4-.6 1.4-4.7 4-9.1 2.4-4.5 4.5-8.6 4.5-9.2 0-1.4-5-9.7-5.8-9.6-.4 0-2.5 3.9-4.7 8.6-2.2 4.7-4.8 9-5.8 9.5l-1.7 1-.6-1.6-.6-1.4 3-5.4 5.7-10.2 2.7-4.9-2.3-4.8c-1.2-2.7-2.6-4.9-3-4.9-.7 0-9 16.1-9 17.6 0 .5-1 2.2-2.2 3.7l-2.2 2.9-1.8-.7-1.8-.7 1.6-2.5c.9-1.3 3.7-6.3 6.2-11.1s5-9.3 5.6-10l1-1.3-2.5-2.5-2.5-2.5-5.3 10.8-5.3 10.8v3.8c.1 2-.1 3.7-.5 3.7s-1.8-2.7-3-6l-2.4-6-3.7-2.4c-2-1.3-4.5-3.3-5.6-4.6a12 12 0 0 0-4.3-3l-2.2-1v-3.7l-3.8-2.9c-7-5.3-10.4-8.8-12-12.4l-1.4-3.5.5-4.2.4-4.2 3.6-5.4c2-3 4.3-6 5.2-6.7.9-.7 2.5-3.1 3.6-5.3l2-3.9-.7-4.1c-.3-2.3-1.3-6.3-2.2-9L523 540l1.6-1.8c1-1 1.7-2.4 1.7-3a26 26 0 0 0-3.7-6.4 496 496 0 0 1-10.2-15c-1.7-2.5-3.1-5-3.1-5.7s-.5-1-1-1-1.9-2.2-3-4.8l-4.6-9.6c-1.3-2.7-2.1-5.4-1.8-6.2.3-.7-.4-3.1-1.6-5.4l-2-4 1.4-3.7c.9-2 4-6.5 7-10l5.6-6.2 11.1-3.5-.4-3a17 17 0 0 1 .8-6.5l1.2-3.7-.8-5-1.7-9-.8-4-5.6-2.7-1.7 1.6c-1 .9-2.7 1.6-3.8 1.6a5 5 0 0 0-2.9.9c-.5.5-6 3-12 5.8a89.5 89.5 0 0 1-15 5.7c-3.5.7-14.1 5.2-21.7 9.2a103 103 0 0 1-11.7 4.4l-9 3h-9l-10.8 5.4c-6 3-13.3 6.5-16.3 7.8-3 1.3-7.3 4.1-9.5 6.3s-6.3 5.8-9 8a36.7 36.7 0 0 0-10.6 11 69 69 0 0 1-6 8.5l-8.2 11a52.7 52.7 0 0 1-10 10.4c-1.4 1.4-3 3.7-3.3 5.3-.4 1.5-3.6 8.9-7.1 16.3l-6.5 13.5-12 11.8a225.2 225.2 0 0 1-29.4 25.2c-1.6 1-5.5 4-8.6 6.7-3 2.6-7.7 5.7-10.4 6.8-4.7 2-26 8.9-36 11.6-2.7.7-9.5 2-15 3l-9.9 1.5-17.4.4c-9.6.2-18.9.7-20.6 1-1.7.3-6 1.4-9.6 2.3l-6.5 1.7-7 6.6a222 222 0 0 1-12.6 10.7c-3.1 2.2-7.1 6-8.9 8.2l-3.2 4h-2c-1 0-1.8-.3-1.8-.7 0-.4 1.3-2.7 2.9-5.1 3-4.7 11.8-13.2 20-19.5l4.8-3.8-.4-1.9-.5-1.9 2-3c1.2-1.6 2.2-3.3 2.2-3.8s1.4-3 3-5.7l3.1-4.8-1.5.5c-.8.3-4.5 2.8-8.3 5.4a189 189 0 0 1-10.2 6.9l-3.4 2-9.3 18.3c-5 10.2-10 18.9-11 19.4l-1.8 1 .7-3.1a25 25 0 0 1 3-6.9A91.6 91.6 0 0 0 123 631c-.4 0-5.4 3.5-11 7.7l-10 7.7-4 8.2a28.3 28.3 0 0 1-5.5 8.8l-1.6.6-.5-1.9-.6-2-4.7 2.2-4.2-2.9c-2.3-1.6-6.3-4-9-5.4a37.4 37.4 0 0 1-6.4-4.3c-.9-1-3.1-2.3-5-3l-3.2-1.5-1-3-1.1-3.1 1.6-2a15 15 0 0 1 5.7-3.4l4-1.4 3-6c1.7-3.2 5.2-10.6 7.9-16.3l6.7-14.1c1-2 2-4.2 2-5s-.8-2-1.8-3.1l-1.7-1.9 1-1.7 1.1-1.6 10.4-.3 9.4-4.6a88.8 88.8 0 0 0 12.4-7.2c1.7-1.4 5.2-3.5 7.8-4.6 2.7-1.2 5.7-2.8 6.7-3.7 2.2-2 8-5.5 12.7-7.7 1.9-1 5.5-2 8-2.5a98 98 0 0 0 14-4.5l9.5-3.8 14.3-.8a141 141 0 0 0 32.2-4.7c1.4-.5 7.7-6.5 14.1-13.3l11.7-12.4.7-3.3a79.8 79.8 0 0 1 15.6-28.2 54 54 0 0 0 4.8-6.7l1.1-2.2 7.8-4c4.3-2.3 8.4-4 9.1-4h1.4l-1 12.4-3.2 8c-1.7 4.4-3.8 9.4-4.6 11a47 47 0 0 0-5 15.5c1.2 2 3.5 1 6.7-3 1.7-2.2 3.8-4 4.5-4 1.7 0 8.4-6.8 13.3-13.5 3.3-4.4 6.7-11 9.8-18.5a144 144 0 0 1 34.6-38.7c4-2 10-6.5 15.7-12l4.5-4.1 9-3.5c5-1.8 10.8-4 13-4.6s7.1-2.5 11-4c3.8-1.6 9-3.4 11.5-4 2.5-.8 6-2 7.7-3 1.8-.8 3.5-1.2 3.9-.8.4.3 2.5-.3 4.8-1.5l4.1-2.2 9.5-.2 9.5-.2 11.6-4.2 4.8.6 4.8.6 8.8-4.5 26-1.4 8.6-4 8.6-4.2 7.7-7.9a85.8 85.8 0 0 0 10.8-13l3-5.2-1.8-2.5c-1-1.3-2.3-2.3-3-2-.5.2-1.4 0-2-.3-3-2.1-7.3-12.6-7.3-17.6v-3l-4.3-4-4.2-4.1-1.8-5.2c-1-2.8-1.5-5.8-1.1-6.7l.6-1.5 1.8 1c1 .5 2.1 2 2.5 3.2s1.7 3.8 3 5.7 2.5 4.6 3 6c.4 1.4 1.8 3.9 3 5.5 2.8 3.8 8.5 15 8.5 16.8 0 .8 1 2.4 2.4 3.6l2.3 2.2 3.6-6.3c1.9-3.4 4-8.3 4.6-10.8a51 51 0 0 1 6.3-15.2c1.5-2.7 3.4-7.8 4.3-11.4l1.5-6.6 1.1-26 1.1-26-1.2-4c-.6-2.3-2.3-5.8-3.7-7.9a18 18 0 0 0-12.5-7.5c-1.8-.4-4.6-1.3-6.1-2-2.7-1.4-11.6-8.8-16.8-13.9a11 11 0 0 0-3.2-2.5c-.4 0-3.5-1.4-7-3.1l-6.2-3.2h-28l-8 2c-4.5 1-8.7 2.3-9.6 2.6-.8.4-8.4 1.5-17 2.6l-15.5 2-8-.6c-4.4-.3-10-.5-12.4-.5-4.2 0-11.5 1.8-13.6 3.3-.6.4-4.8 1.3-9.3 1.8l-8.3 1-3.9-2.3-1.3 1.7-1.3 1.8-18 4-11-.6v-1.4c0-.7.7-1.7 1.6-2.2.8-.4 4.2-1.1 7.4-1.6l6-.8 1.9-3.3c1-1.8 2-4.8 2.2-6.7.6-6.7 1.7-9.8 5-14.4 1.8-2.5 3.5-6.4 4-8.6s1.4-4.9 2.4-6c1-1 3.5-6 5.5-10.9l3.8-8.9-1.3-2.3-1.2-2.4 2-4.5-2.3-4a29.9 29.9 0 0 1-3-9.2l-.7-5.3h1c1.4 0 5.3 5.3 5.3 7 0 1.8 4.1 8.3 6.2 9.8 1 .7 1.8 2.3 1.8 3.5v2.1l1-1a92 92 0 0 0 5-11.3c4.3-10.7 10.3-21.1 12.1-21.1.6 0 1.9-1 2.9-2.2l1.8-2.2 1.7 1.4c.9.7 2.8 3.7 4.2 6.4l2.6 5.1 2.7-6.5h4v2c0 1.2-1.3 3.8-3 5.8a203 203 0 0 0-16.4 32.3c.6 1 8.2 0 12-1.6l3.4-1.4 1.7-3.5 1.6-3.5-2.1-5.1c-1.2-2.9-2-5.6-1.6-6.1 1-1.6 4.2-1 5.6 1.3l1.5 2.2 11.8-22.3 1.7-.4a3 3 0 0 1 2.9.8l1 1.4-6.8 10.8c-7 11-12.3 20.6-12.3 22.5v1l1.5-1.2c.8-.7 2.1-1 2.9-.7.8.3 2.4-.2 3.6-1 1.3-.9 3.6-1.9 5.3-2.2l3-.6 2.3-6.3a51.7 51.7 0 0 1 6.4-12.7c0-1.3 4.3-10 5.8-11.7.8-1 2.4-1.8 3.4-1.8s2.2.7 2.5 1.5c.3.9 0 2.3-.9 3.3a72 72 0 0 0-7.8 14.5c0 .4-1.3 2.8-3 5.2-1.6 2.4-3 5-3 5.8v1.4l7.5 2.3 4.5-3v-2.5c0-1.3.5-2.7 1-3 .6-.3 1.7-2 2.5-3.8.9-1.8 2.6-5 4-7.2a72 72 0 0 0 4-7.2 9.8 9.8 0 0 1 3.4-4.2l2-1.1.6 1c.3.4-1 4-3 7.7s-4.1 8.4-5 10.3a37 37 0 0 1-3.6 5.9 10 10 0 0 0-1.9 3.1c0 .7 7-.3 10-1.4.9-.4 2.3-2.6 3.3-5a32 32 0 0 1 4.7-7.6c1.6-1.8 3-4.1 3.2-5.3a5 5 0 0 1 2-3l1.8-1.2 1 1.1 1.1 1.1-3.3 6.4c-1.8 3.5-4.3 8-5.5 10a12.5 12.5 0 0 0-2.3 5.1v1.8l3.7 1.5c2 .8 4 1.5 4.5 1.5.4 0 1.6-1.5 2.6-3.4 5.2-10.2 9.6-18.2 10.4-19.3 1.2-1.4 3.9-.6 3.9 1.2 0 .7-3 6.5-6.7 13-3.6 6.4-6.4 11.8-6.2 12s2.5 1 5 1.8l4.7 1.5 1-1.1c.5-.7 1.4-2.8 2-4.7 1.5-4.6 6.8-15 8.9-17.2.9-1 2.4-1.8 3.4-1.8h1.9v2c0 1-1 3.9-2.1 6.2-2.5 5.1-2.4 5-7.3 12.4l-4 5.9 2.2 3.7a16 16 0 0 1 2.2 5.2c0 1.5 3.7 5.6 5 5.6a32 32 0 0 0 4.5-7.7c7.5-16 9-18.5 11.2-21l2.3-2.4 1 .7 1.1.6-.6 2.5c-.3 1.4-2 5-3.8 8-1.8 3-4.3 7.2-5.5 9.5a62 62 0 0 1-4.3 6.6 9 9 0 0 0-2 3.8c0 1.6 7.1 5.4 10 5.4h2.1l.7-1.7c.3-1 2-4 3.8-6.8s4.3-8 5.9-11.7l2.8-6.8h1.8c1 0 2.1.5 2.5 1 .7 1.2-2 7.5-3.6 8.5-.5.4-2.1 3.2-3.6 6.3a86.1 86.1 0 0 1-5.2 9.4c-1.3 2-2.2 4.2-2 4.9.3.6 2 1.7 4 2.3l3.6 1.3 5.1-10.3c2.9-5.7 6-11 6.7-11.8 1.8-1.7 4.5-1 4.5 1 0 .9-2 4.8-4.2 8.7a62.8 62.8 0 0 0-7.7 15l5.5 4.5c2.8 2.3 5.6 4.2 6.2 4.2.6 0 1.4-1 1.8-2.2s3-6.2 5.7-11c4.4-8 6.7-10.2 8-8 .7 1 0 2.1-7.2 14.7-2.9 5-4.8 9.1-4.3 9.3.5.1 2.5 1 4.4 2l3.5 1.9 4.3-9c2.4-4.8 4.8-9 5.3-9.4.5-.3 2 0 3.3.7l2.3 1.3-.2 5.7c-.1 3.1.3 6.8 1 8.1a42 42 0 0 1 1.7 4.3l.6 1.8 1.5-.6c.8-.3 2.2-.3 3 0 2 .8 6.5 7.6 9.8 14.7 1.4 3 3 8.2 3.7 11.4a332 332 0 0 0 2.1 9.8l1 4-1.1 6.5c-.6 3.6-1.3 10-1.5 14.2-.1 4.2-.8 9.4-1.5 11.4l-1.2 3.6.6 6 .7 5.9-3 6.2c-1.8 3.4-5.2 9-7.7 12.2-2.5 3.3-5.7 8.1-7.1 10.7-1.4 2.6-3.4 5-4.4 5.3-2.8 1-8.8 8.1-11 13.3l-4.1 8.7-2 4 .7 6 2.4.4c1.4.2 4.3-.2 6.5-.9 5-1.5 13.9-5.6 18.6-8.6l3.5-2.2 12.5-2.1 12.5-2.2 4-2.4c2.3-1.3 4.8-3 5.5-4a86.2 86.2 0 0 0 18.2-13.7c2-1.8 5.8-4.3 8.4-5.6a261.4 261.4 0 0 0 16.4-8.3l5.5-2.9 19.5-3.8 8.3-4.7a49 49 0 0 1 11.8-5.2c1.9-.2 6-1.6 9.2-3 3.1-1.3 9.7-3 14.5-3.9 4.8-.8 9.7-2.1 10.9-2.9s5-1.9 8.5-2.6a66 66 0 0 0 10.7-3l4.4-1.9h15l12.8-10.2v-2.2c0-1.3 1.4-4 3.1-6.2a38 38 0 0 0 5-8c1-2.2 5.2-7.5 9.4-11.7 4.2-4.2 8-7.7 8.5-7.7 1.8 0 1 3.6-1.2 6.6-1.2 1.6-4.5 5.5-7.5 8.6a27 27 0 0 0-5.3 7 18 18 0 0 1-3.3 6c-1.9 2.3-4 6-4.6 8.1l-1.3 3.8-4 3a28.6 28.6 0 0 0-6.3 6.2 99 99 0 0 0-9.5 19.5v1.4l1.7-.7c1-.3 3.1-.9 4.8-1.1l5.3-1 2.2-.4 4.4-8.8a321 321 0 0 1 9.4-17.2c6-9.8 20.2-37.6 20.2-39.3 0-1.8 3.8-6.3 4.6-5.4.4.3-1.9 6-5.1 12.7-3.2 6.6-5.6 12.2-5.3 12.5s2-1.4 3.8-3.7c1.8-2.4 5-6 7.2-8.3a50.4 50.4 0 0 0 10.8-13c0-.8 1.1-2.7 2.5-4.3 1.4-1.6 3-4.1 3.5-5.6.5-1.4 1.7-3 2.6-3.2.8-.4 4.4.3 8 1.5l6.5 2.1h13.8l1.6 1.6c.8.8 1.5 1.8 1.5 2 0 .2-2.2 4-5 8.1a600 600 0 0 0-27.8 54.3 209 209 0 0 1-7.6 14.8c-1.5 2.3-2.4 4.2-2.1 4.2s2.3-1.8 4.5-4l3.9-4 .7-3.2c1-4.5 6-14.7 8.5-17.4 1.3-1.3 2.8-2.4 3.4-2.4.6 0 3-1.9 5.3-4.2l4.1-4.3 4.1-8.7a76.6 76.6 0 0 0 4.7-12 19 19 0 0 1 2-5.5c1.6-2.6 5.1-3 6-.9.3.8-.2 3-1 4.8s-2.1 6.5-2.7 10.3l-1.2 7-4.1 5a57.7 57.7 0 0 1-10.9 9.2l-6.7 4.4-3 6.2c-1.6 3.4-3.4 8.2-4 10.6s-2.2 5.3-3.5 6.5a53 53 0 0 1-10.2 7.6l-3.1 1.8 1 5.3.9 5.3-1 4c-2.4 9.6-2.2 11.3 2.5 23.1 2.7 6.8 11.3 24.4 12.6 25.7a99.5 99.5 0 0 1 10 14.7 39.9 39.9 0 0 0 5.8 12c4.1 6.1 4.8 7.9 7.3 19.3.7 3.2 2 6.6 2.9 7.5a36 36 0 0 1 3.6 6l2 4 4.1 1.7c2.3.9 4.7 1.6 5.3 1.6 1.8 0 15.8 14.5 19.7 20.2a23 23 0 0 0 4.5 5.5c.7.5 3.6 3.7 6.5 7.1l5.2 6.3 1.6 4.7c.8 2.6 2.7 6 4.2 7.7 4.6 5 9 11.3 9 12.4 0 .6-.5 2-1.1 3l-1.2 2 2 2.3c2.4 2.5 4.3 8.6 4.4 13.3 0 1.7 1 4.8 2 7s2 5 2 6c0 1.2.9 3.9 2 6 1 2.2 2 4.6 2 5.3 0 .8 1 3.2 2.4 5.5 1.3 2.3 3 6.2 3.7 8.5l1.2 4.3-1.2 1.2-1.3 1.2-1.9-2.3c-1-1.3-2-3.2-2-4.2s-.3-2-.8-2.4c-.4-.3-2.1 3-3.7 7.1l-3 7.7-2.8 1.7c-1.6 1-4.7 2.1-6.8 2.5-2 .3-4 1-4.4 1.5-.3.5-1.5 1-2.7 1-1.2 0-4.3.9-6.7 2a24.7 24.7 0 0 1-7 2.1l-2.5.1-1.7 3.1c-1 1.7-2.8 5.4-4.1 8.1-1.4 2.8-4.1 7.5-6.1 10.5s-3.6 6.3-3.6 7.3v1.7h-3.6l-1.7-2.9c-1-1.6-1.8-3.7-1.8-4.7s-.9-3-2-4.4l-1.9-2.5v-6.4l-4.4-4-.9-9.8c-.5-5.4-1-12.2-1.1-15.3l-.2-5.5-2-3.5a30 30 0 0 1-2.5-9 49 49 0 0 0-2.6-10.1l-1.9-4.7-4.3-3.6c-2.4-2-5-3.6-5.6-3.6s-2-.9-3-2-2.6-2-3.5-2a26 26 0 0 1-13-5.4l-2.2-2.3-5.7 1.3-12.9 3.2-7.2 1.8-2.4 2.2a19.3 19.3 0 0 1-12.7 4.2c-2 0-5-.9-6.7-2l-3.2-2-.7-2.4-.6-2.4 3.3-6.6c1.8-3.6 4.3-7.3 5.6-8.1s2.3-2 2.3-2.5-2-1-4.3-1-6.7-.7-9.5-1.5l-5.2-1.6-8-7.6v-7.8l2.3-1.6 8.4-5.8 6.3-4.3v-5.7l-3.5-2.6-3.5-2.7-14.8-.7a252 252 0 0 0-30.2.2c-3 .2-6 .6-6.7 1-.6.4-2.4.2-4-.4-2.8-1-8.7-1.5-24.6-2l-7.8-.2-8.2-2.3c-12-3.3-24-7.3-25.4-8.5-.7-.6-6.6-1.5-13-2a69.5 69.5 0 0 1-13.6-2l-2-1-3.6.6c-2 .4-7.5 1-12.2 1.5l-8.5.7-11.8 5.6-6.5-.2a33 33 0 0 1-7.6-.8c-.6-.3.4 1 2.2 2.9 1.7 1.9 3.2 4.2 3.2 5.1v1.7h-2c-1 0-2.8-1-4-2.2l-2-2.2v-2.8c0-1.5-.4-2.8-1-2.8a20 20 0 0 1-4.4-5c-2-2.7-4.3-5-5-5-1.6 0-5.3-1.5-15.6-6.3l-6.5-3.1-13.5-.8-.7 1.8-.6 1.7 1.8 4.6c1 2.5 1.8 6.2 1.8 8.1 0 2-.6 5.7-1 8.4l-1 4.9.7 3.5.8 3.4 5 4.7 4.9 4.6 1.8 7.7 1.8 7.6-.8 2.9c-.4 1.5-1 6-1.2 10l-.5 7 1.6 3.8c.9 2 1.6 4.8 1.6 6 0 3.6 4.4 10.9 10.2 16.8A166 166 0 0 1 592 553c2.2 3.4 10.5 11 12 11 .6 0 1.7 1 2.6 2.3a82 82 0 0 0 6 7.2l4.7 5 5.4 13c3 7.2 5.8 14.4 6.1 16.1s2 4.4 3.6 6a47 47 0 0 1 6.4 9 83 83 0 0 0 7.4 10.6 20 20 0 0 1 4.1 5.6c0 1.7 7.9 8.2 10.8 8.8a74 74 0 0 1 9 3.2l6.4 2.6 2.4 2.9c1.3 1.6 2.4 3.9 2.4 5 0 1.3-2.2 5.4-5 9.2-2.7 3.9-5.9 8.6-7 10.5-1.1 2-4 6.2-6.3 9.5l-4.3 6-4.4.7c-5.7.9-16.5 0-18.6-1.6l-1.7-1.3 4.6-6.1-1.7-1.7c-1-1-2-1.4-2.4-1-.3.3-2 3.2-3.7 6.3l-3 5.7-1.7.3-1.8.4zm44.4-20.2c1.8-2.5 3.2-4.8 3.2-5s1.4-2.6 3-5 3-4.7 3-5c0-1.3-3.2-4.5-4.4-4.5-.6 0-2 1.7-3 3.8-1.2 2-3.5 5.4-5.3 7.4l-3.3 3.6 1.2 4.6c.7 2.6 1.5 4.6 1.8 4.6s2-2 3.8-4.5zm-6-10.9a22 22 0 0 0 3.2-5.4c0-.5.7-1.5 1.5-2.2.9-.7 1.5-1.6 1.5-2 0-1.1-8-4.7-12-5.4l-3.5-.6-2.2 3.6c-1.3 2-2.3 4.4-2.3 5.5v2l2.6 1.1c1.3.7 3.4 2.7 4.5 4.5 1.2 1.8 2.4 3.3 2.8 3.3.5 0 2.2-2 4-4.4zm-14.4-14.2a23 23 0 0 0 2.6-5.7c0-1.2-7-9.1-7.4-8.5l-3.4 5.6a31.7 31.7 0 0 0-3.2 6.2c0 1 7 7 8.2 7 .3 0 1.8-2 3.2-4.6zM637 639.5l3.1-5.8-3.4-6c-1.8-3.4-3.9-6.3-4.6-6.4l-1.3-.3-5 9.6-5 9.5 2.5 2c2.6 2 7.7 4 9.5 3.5a21 21 0 0 0 4.2-6zm-15-9.3a13 13 0 0 1 1.7-4.2c.7-.8 2-3.1 3.1-5.2l2-3.7-1.4-2.5a24 24 0 0 1-2-6c-.3-2-1-3.7-1.6-3.8-.5 0-3.8 5.2-7.2 11.7s-6.3 12.1-6.3 12.4c0 .4 1.7 2.4 3.7 4.5l3.7 3.9 1.8-2.3c1-1.2 2.1-3.4 2.5-4.8zM77.5 626c1.1-1 4.4-3 7.2-4.5L90 619l8.8-17.7 9.2-18.5c.6-1.3-2.4-.8-6 1-1.8.8-4.9 2.7-6.8 4l-3.4 2.3-8.9 18.1c-4.8 10-8.8 18.5-8.8 19 0 1.3 1.2 1 3.5-1.1zm534.8-10c2-3.9 4.4-8.6 5-10.4.8-1.7 2-4 2.7-4.8l1.5-1.7-5-13.7-2.8-.5-2.2 4.2c-1.2 2.4-4.6 9-7.7 14.6-3 5.7-5.5 10.7-5.5 11.3 0 1.5 7.4 8.6 8.8 8.4.8 0 3.1-3.4 5.2-7.3zm-454.7 3 5.3-2.1 3.3-1.3 2.4-4.6a114 114 0 0 1 4.6-8l2.3-3.4-3 .7c-1.6.4-4.6 1-6.7 1.3l-3.8.6-1.8 2.6a138 138 0 0 0-9.1 17.9c0 .2 1-.3 2.2-1.2a29 29 0 0 1 4.3-2.5zm397-9.3 4.6-10.3-.6-4.2c-.3-2.4-1-4.3-1.4-4.3-.7 0-2 2.5-7.2 12.5a65.5 65.5 0 0 1-3.9 6.7 9.7 9.7 0 0 0-1.8 4.4c0 2 2.7 5.4 4.4 5.4.6 0 3.3-4.6 5.8-10.2zm-452 2.5c2.1-1.7 6.4-4.4 9.4-6l5.5-3 3.7-7.4A296 296 0 0 0 128 582c4-6.6 8-14.4 7.8-15-.3-.8-11 4-16.3 7.4a23 23 0 0 0-5.6 6c-3.3 5-17.9 34.4-17.9 35.8v1l1.3-.9 5.2-4zm84-.3c1.4-2.8 4.6-8.2 7-12l4.5-7h-1.3a75 75 0 0 0-9.2 3l-8 2.8-3.7 7.1c-2 4-4 8.1-4.3 9.2l-.7 2H184zm12.8 2.3 4.7-.5 3.6-6.7 6.5-11.4c1.6-2.6 2.9-5.2 2.9-5.7 0-1.3-8-1.2-11.7 0l-3 1-1.5 3.3c-1.4 3-4 7.6-8.7 16-1.2 2-2.1 4.3-2.1 4.9v1l2.2-.6c1.3-.4 4.4-1 7-1.3zm20.9-3.8a70 70 0 0 0 4.4-7.4c.9-1.8 3.4-6.1 5.6-9.5l4-6-3.4-.4c-1.9-.1-4.6.2-6 .7l-2.6 1-6.1 12.2c-3.4 6.8-6.1 12.7-6.1 13.2s1.7.7 3.7.5l3.7-.3zm10.8 3.2 3.2-1.4 3.3-6.4a301 301 0 0 1 9.6-17.7l1.3-2.2-1-1-1.1-1.1-4 1-4 1.1-4.4 8.8c-2.3 4.8-5.5 10.9-7 13.5a27 27 0 0 0-2.9 5.8c0 1.3 3.2 1.2 7-.4zm317.6-16c4.2-8.5 7.6-16.1 7.6-17 0-.8-.9-2.5-2-3.8l-1.8-2.3-1.4 1.1c-.7.7-4.6 7.7-8.7 15.6l-7.3 14.4 2.1 4.2c1.2 2.3 2.5 4 3 3.7.5-.3 4.3-7.5 8.5-16zm55.5-3c4-7.6 7.1-14.4 7.1-15.2 0-1.8-4.9-7.5-6.4-7.5-1.1 0-3.7 4.4-13 22.4l-3.6 6.9.8 1 3.1 5 2.4 3.9 1.3-1.4c.7-.7 4.5-7.5 8.3-15zm315.4 10.6a438 438 0 0 1 6.6-11.8l4-7-1.6-7.7c-.9-4.3-2-7.7-2.4-7.5-.4.1-2.2 3.4-4 7.2s-4.9 9.9-7 13.4-3.7 6.8-3.7 7.3c0 1.6 4.2 10.8 4.9 10.8.4 0 1.8-2.1 3.2-4.7zm-667.4 1c2.2-2.3 18-29 18-30.5v-1l-1.8 1.3c-1 .8-4.8 3-8.6 5l-6.8 3.4-1.8 4a172 172 0 0 1-6 11.4 51 51 0 0 0-4 8.4v1l9.4-1.3zm16.2-6.1 3.8-1.9 5.6-10.9c3.1-6 7-12.9 8.5-15.4 1.5-2.4 2.4-4.6 1.9-4.8s-2.3.4-4 1.3c-1.6.8-3.6 1.5-4.4 1.5s-2 .8-3 1.8c-.8 1-3 4.7-5 8.2l-10.6 19.5-1.9 3.9-1.2 2.8 3.3-2c1.8-1.2 5-3 7-4zm267-2.5c1.4-2.3 5.5-10 9-17.2l6.5-13-.1-3.5-.4-7.7c0-2.4-.5-4.3-.9-4.3s-2 3.5-3.6 7.8a282.7 282.7 0 0 1-13.9 34l-3 5.3.6 1.4c.3.9 1.2 1.5 1.9 1.5s2.4-2 3.9-4.3zm-405.4-3c.6-.8 2.6-2 4.3-2.8a77 77 0 0 0 8-4.1l4.7-2.9 2.6-5.7c1.4-3.1 4.6-9.7 7.1-14.5a57 57 0 0 0 4.2-9.2c-.4-.4-3 .7-14.8 5.7a10 10 0 0 0-4.1 4.2l-8.3 15.8c-3.6 7-6.6 13.2-6.6 13.8 0 1.5 1.5 1.3 2.9-.4zm396.7-1.2a38 38 0 0 1 3.5-7.3c1.6-2.5 3.8-7 4.9-9.7a333 333 0 0 0 11.8-31c1.4-5.2 1-8.5-1-8.5-.6 0-1.7 1.3-2.3 2.8l-8.3 20.2a798.6 798.6 0 0 1-12.1 29.2l-1.3 3.7 1.3 1.6c.7.8 1.7 1.5 2 1.5.5 0 1.1-1.1 1.5-2.5zm67.7-12.1c3.2-6.5 5.9-12.1 5.9-12.6 0-.9-5-5.7-6-5.7-.3 0-2.3 3.4-4.5 7.7a84.4 84.4 0 0 1-5.2 9.4l-1.4 1.6 1.5 3.4c.8 1.8 1.7 4.6 2 6.2.4 1.6 1 2.6 1.2 2.3.4-.3 3.3-5.8 6.5-12.3zm320.3 5.5a96 96 0 0 0 10.8-21.8c0-1-.5-2.2-1-2.6-.6-.3-1-1.6-1-3v-2.3l-1.7-.6c-.9-.3-1.7-.5-1.9-.3l-5.2 10.2a69.7 69.7 0 0 0-8.2 21.6c0 2.9 1.9 6.1 3.3 5.7.6-.3 2.9-3.3 5-6.9zm-628 1.1 10.3-8.6c2.3-2 5.3-5.3 6.6-7.3l5.6-10a145 145 0 0 1 6-11l11-19.6a4619.6 4619.6 0 0 1 20.5-37l5.5-10c7.5-13 9-15.8 9-16.7 0-.5-.4-.8-.9-.6-.5.2-4.5 3.7-9 7.8l-8.2 7.5-3 5.1c-1.6 2.9-3 5.8-3 6.7a73 73 0 0 1-8.9 17.2 79.1 79.1 0 0 0-9.4 17.7c-.4 1.5-1.4 3-2.4 3.3a43.5 43.5 0 0 0-9.3 12c0 .9-8 12.4-9 13.1-.6.3-2 2.7-3.4 5.3a733.7 733.7 0 0 1-15.6 29.6c0 1.3 2 .2 7.5-4.5zm233.6-3c.7-1.8 2.3-4.7 3.5-6.5 1.3-1.8 2.6-4.8 3-6.6l.7-3.4-3.3 3.5c-1.7 2-4 5.3-5 7.5-2 4.3-2.5 8.5-1 8.5.4 0 1.4-1.4 2.1-3zm-361.7-5.6a52 52 0 0 1 7.9-4.2c2.2-1 4.8-2.1 5.6-2.7a23 23 0 0 0 4-6.5c1.3-3 3.7-7.6 5.2-10a22 22 0 0 0 2.8-6v-1.3l-5.7.7c-3.2.4-6.7 1.3-7.8 2-1.2.8-4.7 5.8-8 11.3l-7.2 12a35 35 0 0 0-2.3 4.8l-1 2.5h1.4c.7 0 3-1.1 5.1-2.6zm427.9-9.6 4.8-9.8-1.6-2.5c-1.7-2.5-4.4-3.4-4.4-1.3 0 .6-1.8 4.7-4 9.1l-4.2 8 .7 3.4.6 3.4 3.2-.6zm328.3-8.4 4.7-9.2-1-2.8a20 20 0 0 1-1.2-7c0-4-1.2-7.3-2.2-6.3-.3.3-2.8 5.3-5.6 11.3l-5 10.8.5 5.7 1 9 .6 3.4 1.7-2.9c1-1.6 3.9-7 6.5-12zm-727.6 9.2 3.5-.6 4.4-9a63 63 0 0 1 5.1-9.6c.5-.3.9-1.1.9-2V548h-9l-1 1.3a236 236 0 0 0-10.1 16.5c-1 1.8-2 4-2 4.8v1.5l2.3-.5 5.9-1zm390.1-4.6c1-2.1 2-4.6 2-5.4 0-.9-.6-1.6-1.3-1.6-1.6 0-5.1 3.7-6 6.3-.8 2.2 1 6 2.4 5.2a19 19 0 0 0 2.9-4.5zm-376.7 3c.3-.5 2.4-1 4.5-1h3.9l2.6-3.3c1.4-1.9 2.5-4 2.5-4.6a46 46 0 0 1 6.1-11.5c.5-.5 1-1.5 1-2.2v-1.2l-4.3 1c-2.4.6-5.4 1.2-6.7 1.3l-2.5.2-6.3 10.4c-3.4 5.7-6.3 10.8-6.3 11.2 0 1.1 4.8.9 5.5-.3zm115.7-8c2-2.5 4.5-6.1 5.5-8.1s4.2-6.4 7-9.7l5.2-6 1.7-5.8c.9-3.2 2.5-7.4 3.5-9.3 1-2 3.2-4.9 5-6.4s3-3.3 3-3.8 1.6-3 3.5-5.4 3.5-5 3.5-5.6a60 60 0 0 1 7.2-9.2 92.1 92.1 0 0 0 13.6-17.4l6.4-12a35 35 0 0 0 4.3-10c-.2-.7-1.1-1.3-2-1.3-1.9 0-15.2 10-16 12-.3.8-2 4.2-4 7.5a474 474 0 0 0-8.6 16c-2.8 5.5-5.5 10.5-6 11A1007 1007 0 0 0 328 536a137 137 0 0 1-5.9 10.2 71.3 71.3 0 0 1-6.8 12.3c-2.8 4.4-5 8.5-5 9 0 .6.6.3 1.2-.5l4.9-6zm653.1-2c0-1.4-.6-3.5-1.4-4.5l-1.5-2-1.6 2c-.8 1.1-1.7 3-2 4.1-.3 1.2.2 3.9 1 6l1.7 4 2-3.6a16 16 0 0 0 1.8-6zM226 565.7l4.5-1.4 6.6-12.9c3.6-7 9.1-17.2 12.2-22.4 3-5.2 7-12.2 8.5-15.5a881.3 881.3 0 0 1 22.9-40.7l1.5-2.8h-1.3c-.8 0-2.5 1.3-3.9 2.8-4.1 4.6-8.8 11-10 13.6-.6 1.3-2 2.7-3 3-1 .2-1.9 1.1-1.9 2 0 .8-1.3 3.6-2.9 6.1l-2.8 4.6-.7 5.4-.7 5.4-3 4.5a95 95 0 0 1-11 12.1 99.6 99.6 0 0 0-12.5 14.3 50 50 0 0 0-4.4 7.4c0 .4-2 4-4.5 7.8a79.5 79.5 0 0 0-4.5 7.5c0 1 6.6.5 11-.8zm16.5-3 4.8-1.3 1.8-3.4 5.9-11.5a529 529 0 0 1 12.5-23.6l2.6-4.7-1.5-1.2-1.5-1.2v-11.3l-2.3 4.1a72.5 72.5 0 0 0-4.2 9 36 36 0 0 1-3 6.4 385 385 0 0 0-17.5 31.9c0 .5-1 2-2 3.5-1.2 1.4-1.8 3-1.5 3.6l.8 1 5-1.3zm330.5-6a32 32 0 0 0 3.7-9.6l.6-4.3-1.5-2.4c-.9-1.3-2.4-2.4-3.4-2.4h-1.8l-3.2 6.4a42.4 42.4 0 0 0-3.1 7.5c0 1.6 4.3 10.1 5 10.1.5 0 2.1-2.3 3.7-5.2zm-309.7 0c2.4-2 5.4-7.1 19.4-33.2a453 453 0 0 1 6.6-12c4-6.7 4.9-8.5 4-8.5-.4 0-2.6 1.7-4.8 3.8a40 40 0 0 1-11 8.3l-2.2.8-3.7 7.3c-2 4-4 7.8-4.4 8.3-1.6 2.1-14 26.5-14 27.6v1l3.7-.7c2-.4 5-1.6 6.4-2.8zm270-1.1c0-1.2 1.5-5.3 6.1-16.9l2-4.8-.3-3.6c-.2-2-.9-3.8-1.5-4l-1.1-.4-1.2 3.5c-.6 2-2.5 6.2-4 9.5l-3 6 .6 6.5c.4 3.6 1 6.3 1.5 6 .5-.3.9-1 .9-1.8zm431.5-12c-.3-2.3-1-5.2-1.5-6.6l-1-2.4-3.3 6.2c-1.8 3.5-3.9 7-4.6 7.8l-1.2 1.4 7.8 7.1 4.4-9.6zm-382.2 8.3-1.1-1-1 1.9c-.7 1-.9 2.3-.5 2.6.4.4 1.3 0 2.2-.8l1.5-1.6zm320.8 3.2c0-.6 2.5-6.2 5.5-12.5l5.5-11.6-.6-1.6c-.9-2.2-8.7-9.4-9.4-8.6-.4.4-2.1 4.2-4 8.5l-3.3 7.7 2 2.1 1.8 2.1.3 5.7.2 7.4c0 1 .5 1.7 1 1.7s1-.4 1-1zm-628.3-5.5a71 71 0 0 1 10.3-11.2l10.2-10 2.6-5 6.2-11.4 16.8-31.5a638 638 0 0 1 16.4-30c2-3.2 3.6-6.2 3.6-6.7 0-1.5-4 1.2-5.2 3.5a10 10 0 0 1-1.9 2.7l-4.8 3.9a104 104 0 0 0-18.2 26.6c-1.9 3.9-4.7 8.6-6 10.5a288 288 0 0 0-17 30.5 381 381 0 0 1-10.6 19.1c-3 5-5.4 9.6-5.4 10.2v1.2l1.5-.6c.8-.3 1.5-1.1 1.5-1.8zm291.4-11.3 2-4.2-2-3.8a50 50 0 0 1-2.7-5.7l-.6-2-2.5 5.3c-1.3 3-2.4 6-2.4 7 0 .9 1 4 2.2 6.8l2.3 5.2.9-2.2 2.8-6.4zm390 2.2c1.5-2.8 3-7.3 3.4-10.1l.7-5.2-2.2-5.2-2.3-5.2-1.8 2.4a49 49 0 0 0-3.9 6l-2 3.9 1 1.8a39 39 0 0 1 1.6 9.5l.7 7.7 1.2-.3c.6-.2 2.2-2.6 3.7-5.3zm-421.2-14.3 2.3-5.3-1-3.5c-.4-2-1.3-3.6-1.8-3.7-.6-.1-2.3 2.9-3.8 6.6l-2.8 6.7 1.6 3.1 1.6 3.2.8-1c.5-.4 1.9-3.2 3.1-6.1zm364-1.1 3.4-7-2.2-3.4a16 16 0 0 0-5.6-5.1l-3.6-1.7-1.3 1a8 8 0 0 0-2 4 13 13 0 0 1-2 4.1c-.8.8-1.7 2.7-2 4.2l-.7 2.7 2.3 1.2c1.3.7 3.9 2.5 5.8 4 2 1.6 3.7 3 4 3a32 32 0 0 0 4-7zm-338-13.3c0-3.1-.4-5.9-.9-6.2s-1.8 2-3 5.2-2.9 7-3.7 8.5l-1.4 2.8 1.6 3.7 1.6 3.7 2.9-6 2.9-6v-5.7zm389.4 7.3 3.8-6.9v-2.8c0-3.2-3.5-11.4-4.8-11.4-1.1 0-8.2 14.1-8.2 16.4a34 34 0 0 0 4.8 11.6 33 33 0 0 0 4.4-6.9zm-126.1 1.6 1.7-2.1-.5-2.6-.6-2.5 3.8-3.4 3.7-3.4 4-8.6a170 170 0 0 1 6.9-13.2 20 20 0 0 0 2.8-6.3V477l-2.2 1.4c-1.3.8-4.2 1.7-6.6 2-4.3.7-8 2.3-9.4 4.1-.4.6-1.5 3-2.5 5.5s-2.2 4.9-2.7 5.3c-.6.4.8.5 3.2.1l4.2-.6v2c0 1.1-1.4 3.5-3 5.1-1.8 1.7-3.5 3.1-4 3.1s-1.1.8-1.4 1.8c-.3 1-1.7 3-3 4.4a14.9 14.9 0 0 0-3.1 6.2l-.7 3.6 1.3 1.6 1.3 1.6 2.5-.7a9 9 0 0 0 4.3-2.8zm-512.2-9.2a81.9 81.9 0 0 0 5.7-11 201.3 201.3 0 0 1 24.6-39c2.3-2.3 4.7-5.8 5.5-7.6.7-1.9 4.2-8.4 7.7-14.6s6.3-11.4 6.3-11.7c0-1-10 5.8-10 6.7 0 .4-1.9 3.3-4 6.3-3.8 5-6.4 9.5-14 24l-6.7 12c-2.3 3.8-5.2 9.2-6.5 12l-9.7 18.6c-4 7.5-7.2 14-7.2 14.3 0 .4.6.5 1.3.3.7-.2 3.8-4.9 7-10.3zm214.9 9.5c0-.6 1-3.4 2.4-6.3 4.3-9.4 6.6-15 6.5-16 0-.7-1-2.5-2.4-4l-2.3-3-1.2 3.7c-.7 2-2.7 6.8-4.6 10.6-1.9 3.9-3.4 8-3.4 9 0 3 2.1 7 3.6 7 .8 0 1.4-.5 1.4-1zm356.9-6.6 3.2-6.2-3.4-.6c-1.8-.3-4-1.3-4.6-2.1-.7-.8-1.7-1.5-2.3-1.5-1.5 0-6 12.6-5.3 14.5.5 1.4 3.7 2.4 7.1 2.2l2-.2zm-43 1 8-1.8 3.1-4.6c1.7-2.5 3.1-5.5 3.1-6.7v-2.2l-2.7 1.5c-1.5.8-3.4 1.4-4.1 1.4a28 28 0 0 0-10.2 7.2c0 .4-1.8 2-4 3.3-2.2 1.4-4 3-4 3.6 0 .6.6.9 1.3.6s5-1.3 9.4-2.3zm29.9-5.3 3.2-7-2.4-3-11.7-.6-.8 1.5c-1.3 2.4-5 10.6-5 11.1 0 .3 1.9.5 4.1.6h4.1l2.1 2.2c1.2 1.2 2.4 2.1 2.7 2s2-3 3.7-6.8zm-316.9-.3 5.4-12.6 2.9-6.3-2-4.5-2-4.5-.9 1.3a114.7 114.7 0 0 0-9.3 23.7c0 2.8 2 9.1 3 9.1.3 0 1.6-2.8 3-6.2zm-34 .7c0-1.6 2-6.4 6.7-16l2.4-5-.3-7.5c-.1-4.1 0-8.8.5-10.5.8-3.3-3.7 5.6-10.8 21.5l-4.7 10.4 2.4 4.3c1.3 2.4 2.7 4.3 3 4.3s.9-.7.9-1.5zm423.6-7.5 3.4-7-2.4-4.6c-1.3-2.6-2.3-5.3-2.3-6s-.4-1.5-1-1.8c-.4-.3-2.3 2.2-4 5.6l-3.2 6.1.5 2.6c.9 4.4 3.9 12.1 4.7 12.1a23 23 0 0 0 4.3-7zm-96.6-7.8a21 21 0 0 0 3.2-6.4c0-.9-.7-2.1-1.6-2.9l-1.6-1.3-1.4 2c-.8 1-1.8 3.3-2.3 5.1-.5 1.8-1.8 4.6-3 6.2-1.1 1.6-2 3.4-2 4v1.2l2.7-1.5c1.5-.7 4.2-3.6 6-6.4zm-575 1.9c1-2.2 2-4.6 1.9-5.3 0-1.6-5 6.3-5 8 0 .7.2 1.2.5 1.2s1.4-1.8 2.5-4zm240 1.9c0-.6 4-9.3 8.7-19.3a1584 1584 0 0 0 12.5-27l3.9-8.7v-9h2c1 0 2.4-.9 3-2 .5-1 1-3 1-4.4v-2.5l2.5-2.7c1.3-1.5 2.5-3.4 2.5-4.3 0-.9.7-2.6 1.5-3.9.9-1.2 1.3-3 1-4-.3-.9-2-2.5-3.7-3.5l-3.3-1.8-1.2 1.7-1.3 1.8 1.5 2.3c.8 1.2 1.5 2.5 1.5 2.8 0 .3-1.2.5-2.6.5h-2.5l-1.8 4.3-6 12.7-4.1 8.5v4c0 2.2-.5 5.6-1 7.5-.6 2-2.8 5.7-5 8.3s-5.2 7.4-6.6 10.5l-5.6 11.6a33.1 33.1 0 0 0-2.9 7.5c0 2.1 4 10.1 5.1 10.1.5 0 1-.5 1-1zm304.9-2c.6 0 2.3-2.2 3.7-5 1.5-2.7 2.3-5 1.8-5-.4 0-2.4 1.4-4.5 3.1l-3.8 3.1-3-1.2 2.6-3.2c1.5-1.8 5-4.8 7.6-6.6l5-3.3 2-3.7 4.5-7.7a20 20 0 0 0 2.4-5.1c0-.6-1.4-1.7-3.2-2.3-1.8-.7-4.5-1.9-6-2.7a13 13 0 0 0-3.4-1.4c-1 0-4.4 7.3-12.3 26a93.8 93.8 0 0 1-4.7 9.8c-.8 1.3-1.2 2.7-.9 3.2.9 1.4 6.6 3 9 2.5 1.1-.3 2.5-.5 3.2-.5zm118.3-9.4 3.2-7.5-.6-1.8c-.3-1-1.9-3.2-3.5-4.7l-3-2.8-1.4.5c-2 .8-7.6 10.6-7.6 13.2 0 1 1.9 3.9 4.2 6.2 2.3 2.4 4.5 4.3 4.8 4.3s2-3.3 3.9-7.4zm-382.8-1.1c1.5-3.6 2.7-7.8 2.7-9.4v-2.9l-1.5-.5-1.5-.6-3.5 7.3a46 46 0 0 0-3.5 8.4c0 1.2 2.7 4.2 3.9 4.2.4 0 2-3 3.4-6.5zm252.7-1c1.9-3.6 3.2-6.8 2.9-7a39 39 0 0 0-10.8 8.4c0 1 3 5.1 3.8 5.1.5 0 2.3-3 4.1-6.5zM547 477.3l2.5-5.7-.6-3.5c-1-5.3-1.6-7-2.5-7-.4 0-1.6 1.8-2.5 4.2s-2.4 5-3.3 6L539 473l.6 3.6c.6 3.7 2.2 6.4 3.8 6.4.6 0 2.1-2.5 3.5-5.7zm376.9-2.3 4-7.3-2.2-4.1c-1.3-2.2-4-5.3-6.3-6.9-2.2-1.5-4.3-2.5-4.8-2.2-.5.3-2 3.7-3.6 7.5-1.4 3.9-3 7.3-3.5 7.6-.5.3-1 1.4-1 2.5v2l2.3.8a26 26 0 0 1 5.7 4.5c2 2 3.9 3.5 4.4 3.3a33 33 0 0 0 5-7.7zm-415.3.6c1.6-3.2 2.6-6 2.3-6.4-.8-.8-4.5 2.9-6.2 6a13 13 0 0 0-1.4 4.9v2l1.3-.3c.7-.2 2.5-3 4-6.2zm329.7-4.1 3.3-2-.6-2.5c-.7-2.6-2.1-4.7-2.9-4a48.1 48.1 0 0 0-3.9 10.8c.5-.2 2.3-1.2 4-2.3zm-453-2.9a80 80 0 0 1 14-9.6 67 67 0 0 0 9.9-14.2l2-3.8H410a59 59 0 0 0-9.3 4l-8 4-1.4 3.2c-.7 1.8-3.3 6.5-5.7 10.5s-4.4 7.4-4.4 7.7c0 1.2 1.4.6 4-1.8zm523.2-8.7 4.3-10-1.9-2a14 14 0 0 0-5.1-2.8l-3.2-1-6.3 11 .6 2.7c.6 3.2 5.5 12.2 6.6 12.2.4 0 2.7-4.5 5-10zm-91.6.7 2.8-6.4-3.9-3.6c-2-2-4.4-3.5-5.1-3.6-.7 0-2.2 2-3.2 4.3a26 26 0 0 0-2 5.3 21 21 0 0 0 4.2 5.7l4.4 4.6 2.8-6.3zm72.2 2.7a92 92 0 0 0-2.1-8.3 86 86 0 0 1-2-7.2c-.3-1.5-.9-2.8-1.3-2.8s-2.2 3.5-4 7.8c-1.7 4.3-3.2 8.2-3.2 8.6s.6 1.3 1.3 2c2.7 2.4 5.3 3.5 8.6 3.6h3.4l-.7-3.7zM534.2 461c1.2-2.2 2-4.6 2-5.3 0-.7-.8.3-1.8 2.3-2.3 4.6-3.2 7-2.6 7a15 15 0 0 0 2.4-4zm9.8-3.6c1.3-3.3 3.1-6.7 3.9-7.6a7 7 0 0 0 1.3-4c0-2.8-2.2-11.5-3.1-12.4-1-1-2.9 5.5-3.4 11.5a29 29 0 0 1-1.1 6.3c-.3.5-.9 3.6-1.3 6.8l-.7 6 1-.3c.5-.2 2-3 3.4-6.3zm332.3-4.7 5.6-13.3a50.8 50.8 0 0 0 5.5-16.1c0-3.3-3.9-16.2-5-17-.6-.3-1.4.5-1.9 1.8l-2.2 5.7-1.4 3.4-1.1-1.4-1.1-1.4 2-6.5 2-6.6-6-12.9-1.3 3.3c-.6 1.8-1.5 3.2-2 3.2-1.7 0-1.5 4.6.2 9.3 1 2.6 1.8 5.6 1.8 6.5 0 1 .7 3 1.6 4.7a26 26 0 0 1 2.1 7.7l.6 4.8-1.7 2.5c-.9 1.4-2.2 2.5-2.8 2.5-.7 0-2.4 2.6-3.7 5.8a62 62 0 0 1-4.3 8.5c-1 1.5-2.2 4.3-2.5 6.2l-.5 3.5h7.2l1.8 2c1 1 2.2 1.9 2.8 2 .6 0 2.5-3.7 4.3-8.2zm-463.5.6c2.1-1.5 6.7-3.7 10.2-5l6.3-2.2 2.5-3.3c3.3-4.3 6.7-11 6-11.6-.5-.5-18.3 5.2-20.2 6.5-.5.4-2.8 3.6-4.9 7.2l-5.3 8.8-1.4 2.2h1.4c.9 0 3.3-1.2 5.4-2.6zm391.4-2.2a27 27 0 0 0 2.2-6c0-.9-1.2-3-2.6-4.8l-2.5-3.4h-4.6l-3.6 8.2c-2 4.5-3.6 8.2-3.5 8.3a52.7 52.7 0 0 0 9.8 2.4h2.5l2.3-4.7zm-54 .7a191 191 0 0 0 9.2-16.3c0-.3-2.7-.6-6-.6h-5.9l-4.6 8.4a65.5 65.5 0 0 0-4.5 9.5c0 1 4.6 2 8.4 1.7 1 0 2.6-1.3 3.5-2.7zm14.9.5c2-1.3 7-8.2 11.4-16.2l1.9-3.2-1.4-.6c-.8-.3-2.3-.1-3.3.4s-3.5 1.2-5.4 1.6c-2 .4-4.3 1.4-5.1 2.4-1.6 1.8-9.8 16.8-9.8 17.8s9.4-.8 11.7-2.2zm-32.6.7c.5 0 6.4-9.3 8.6-13.6l1-2H726l-3.8 7.4c-2 4.1-3.6 7.7-3.4 8 .2.4 3.2.5 6.7.4l7-.2zm53.6-2.3c1.2-1.8 3.5-6 5.1-9.3l3-6-3.1-1.7a15 15 0 0 0-5.5-1.7h-2.3l-1.1 2.7a96 96 0 0 1-4.5 8.2c-1.8 3-3.5 6.8-3.9 8.3l-.6 2.7h10.7l2.2-3.2zm-71.8-1c2-3.2 6.1-11 5.8-11.3-.1-.2-3-.4-6.2-.6l-6-.4-2.7 5.5a37 37 0 0 0-2.8 6.7c0 1.4 2 2 7 2.2l3.5.1zm183.3-2.3 2.1-4.6-2-2.2c-1.2-1.2-3-4.1-4.3-6.4-1.2-2.4-2.8-4.3-3.6-4.3-.7 0-2 1.7-2.9 3.7l-1.5 3.7 1.5.9c.8.4 1.5 1.3 1.5 1.9 0 .5 1.5 3.4 3.3 6.4s3.3 5.4 3.5 5.4c.1 0 1.2-2 2.4-4.5zm-37.5-.2c1.5-3.7 4.4-10.2 5-11.4.3-.4-2.2-1.5-5.4-2.4a67 67 0 0 1-9.5-3.6c-2-1-4.4-1.9-5.4-1.9s-3.1-.7-5-1.6l-3.5-1.7-1.4 2c-.7 1-1.7 3-2 4.3l-.7 2.5 2.7 2.3c1.4 1.2 3.5 2.2 4.5 2.2s2.2.5 2.5 1c1.2 2 3.2 1 4.8-2.5 1-2 2-3.5 2.5-3.5 2 0 2 1.5.2 5.1-1.1 2.1-2 4.3-2 4.9 0 1 8.9 8 10.3 8 .5 0 1.5-1.7 2.4-3.7zm-159.7-3c1.6-2.6 3-5 3-5.4 0-.3-3.3-.5-7.2-.3l-7.1.4-1.4 1.7c-.7 1-1.3 2.6-1.3 3.6v1.7h1.7c1 0 2.9.7 4.2 1.5 1.4.8 3.1 1.5 3.8 1.5.7 0 2.6-2.1 4.3-4.7zm-321-10c1-1 3-3.9 4.3-6.7 1.5-2.8 3.7-7 5.1-9.3l2.5-4.3H390c-1.2 0-12.1 4.6-18.7 8-.8.3-2.7 2.7-4 5.2l-5 9a91.2 91.2 0 0 1-4.2 7c-1 1.4-1.8 2.9-1.8 3.1a179 179 0 0 0 23.2-12zm65 9.7 3.6-1 4.7-9c2.5-5 4.4-9.4 4.1-9.7-.3-.3-2.5 0-4.8.6-4.3 1.3-9.8 5.2-9.8 7 0 .6-1.6 3.7-3.5 7-2 3.3-3.5 6.3-3.5 6.6 0 .7 1.5.4 9.1-1.5zm173.4-1.1c5-3.2 7.4-5.5 7.5-7.4v-1l-11.1.7-2.5 4a49.4 49.4 0 0 0-3 5.4l-.6 1.4h2.4a20 20 0 0 0 7.3-3.1zm-12.5.9 3.4-5 2.4-3.6-4.6-1.5c-2.5-.9-5-1.3-5.4-1-.4.2-1.3 2.2-2 4.5l-1.2 4 2.3 2c1.3 1 2.7 1.8 3.2 1.8s1.3-.5 1.9-1.2zm79-3.8c0-.3-2.4-1.4-5.4-2.4l-5.5-1.9-1.5 1.3c-.9.7-1.6 1.9-1.6 2.6 0 .8 1.3 1.6 2.8 2l5.7 1.3 3 .8 1.3-1.5c.7-.9 1.2-1.8 1.2-2.2zM464.7 435l6-3.1 3.3-5.3a25 25 0 0 0 3.2-6.6v-1.3l-5 .6c-2.8.4-6 1-7.3 1.5l-2.2.9-4.3 8.1a68 68 0 0 0-4.2 9.1v1l2.3-1a84 84 0 0 0 8.2-3.9zm172.5 1.3c1.2-2 2-3.8 1.7-4-.2-.3-2.5-.2-5 .2l-4.6.6-1.5 3-1.5 3.5c0 .2 2 .3 4.4.3h4.4zm12.2 1.6h2.5l1.7-3.5c1-2 1.7-3.7 1.7-4 0-.6-9.5-.4-10.6.3-1.3.8-4.4 6.6-4.4 8.1v1l3.3-1c1.7-.5 4.4-.9 5.8-.9zm18.6-.8a7 7 0 0 0 1.3-3.3v-1.7l-2.2-.6c-1.3-.3-3.7-.6-5.3-.6h-3.1l-1.7 3.6c-1 1.9-1.7 4-1.7 4.6v1l11.3-1.2zm-71.3-2 .7-1.6-1.8-1.3a6 6 0 0 0-3.8-1c-1.1 0-2.1 1-2.3 2l-.4 1.7h1.6c.9 0 1.6.5 1.6 1s.8 1 1.9 1a3 3 0 0 0 2.5-1.7zm-203.1-6.7a67 67 0 0 0 9.8-6.2 142 142 0 0 0 9.8-16.6c0-.3-3.5.8-7.8 2.4l-7.7 2.9-1.8 2.2c-1 1.2-3.4 5.1-5.5 8.7-2 3.7-4.2 7.2-5 8-1.2 1.3-1.7 3.1-.7 3.1.3 0 4.3-2 8.9-4.5zm135.9-.7a210 210 0 0 1 4.5-9.8l2.2-4.5-4.7-4.7-7 14.7.5 4.8c.3 2.6.9 4.7 1.4 4.7.4 0 1.8-2.3 3-5.2zm56.8 4c0-1.3-3-4.8-4-4.8-.5 0-1 .8-1.2 1.8-.4 1.8 1.8 4.1 4 4.2.6 0 1.2-.5 1.2-1.2zM483 429.6l5.2-2 .7-2a47 47 0 0 1 3.6-6.8c1.6-2.7 2.7-5.1 2.4-5.5-.3-.3-1.8.3-3.4 1.3a27 27 0 0 1-6.3 3l-3.4 1-2.7 5c-2.7 4.8-3.7 9-2 8.2l6-2.2zm348.7-3.2 2.2-4.6-2-1.4c-1-.7-2.7-1.4-3.6-1.4-1 0-2-.4-2.4-1-1.2-2-3.1-1-4.8 2.5-1 2-1.7 4.1-1.7 4.8 0 .7 2 2.2 4.3 3.4 2.3 1.2 4.6 2.2 5 2.2.4 0 1.7-2 3-4.5zm34.4 2.9c.4-1 1.4-2.7 2.4-3.8l1.9-2-2.5-7.8a56.5 56.5 0 0 0-3.3-9 52 52 0 0 1-3-7.5l-2-6.2-6.1-6.7a41 41 0 0 1-6-7.8c0-1.6-4.8-6.3-8.3-8a40.6 40.6 0 0 1-11.8-12c0-.6-1-1.6-2.1-2.3a58 58 0 0 0-20.3-8.3l-4-.7-5.8 1-5.8 1.2-1.7-1.6-1.8-1.5-6.1-.7-6.2-.7-5 2.4L748 345l-4 1c-2.3.5-10.7 1.5-18.6 2.3-8 .8-17.2 2.1-20.5 3a61 61 0 0 1-11.5 1.6H688l-7 3.1a142 142 0 0 0-9.7 4.6c-1.3.8-5.6 2.9-9.5 4.7-17.1 8.1-22.4 10.9-23.5 12.2-.7.8-2.4 1.4-3.9 1.4-1.4 0-4.5.7-6.8 1.5l-4.2 1.5-21.6-.5-3.8 2.3a16.6 16.6 0 0 1-5.3 2.2c-.8 0-3.2.9-5.3 2a135 135 0 0 1-28.6 5.7c-2.2.2-5.4 1.2-7.2 2l-3.1 1.7 1 2.2 1 2.3 4.7 2a43 43 0 0 0 10.3 2.4l5.8.6v-1c0-.4-.6-1.1-1.4-1.6-.7-.4-1.9-2.5-2.6-4.6l-1.2-3.9 1-1 1-1 2 .7c2.4.7 5.2 5.3 5.2 8.5v2h3c1.7 0 4.4.7 6 1.5 1.6.9 6.8 3 11.5 5l8.5 3.4 6.8.3c7 .2 19-1.5 25.2-3.5l3.5-1.2 46-.1 5.7-1.7c3-1 9.1-2.2 13.5-2.7l15.4-2a678 678 0 0 1 36.5-3.6c8-.6 28 .8 41 2.8l12 1.8 5 .8 6.2 4c3.4 2.1 7.6 4.5 9.5 5.1a26 26 0 0 1 11 6.7l1.8 2.3 4.8 1a59 59 0 0 1 10.2 3.5 46 46 0 0 0 6.3 2.6c.4 0 1-.8 1.4-1.7zM579 424.8c.5-2.4.8-4.9.9-5.6 0-.7.8-1.8 1.8-2.3 1-.5 1.7-1.9 1.7-3 0-1-.2-1.9-.4-1.9l-2-.6-1.6-.6v2c0 1.2-.5 2.4-1.1 2.8a24 24 0 0 0-4.9 11.2v2.2h4.8zm21.9-.4.6-2.7-1.3-.8c-2.3-1.5-4.7-1-5.8 1.2-.7 1.1-1 2.7-.6 3.5l.5 1.4h5.9zm15.8-.2c1-.8 1.7-2.1 1.7-3v-1.4l-2.2.5-6.3 1.3a16 16 0 0 0-5.2 1.7c-.7.5-1.3 1.5-1.3 2.2v1.2l11.5-1zm86.7 1.4a9 9 0 0 1 4.4-2l3.3-.6 1.4-2.7a48 48 0 0 1 3.2-5.4c1-1.5 1.8-3.4 1.8-4.3v-1.7l-1.2.7c-.6.4-3.6 1-6.7 1.3l-5.6.6-3.7 7-3.7 7 1.7.7c2.6 1 3.8 1 5-.6zm-151.5-.6c.3-.5 2-1 3.5-1h3l2.5-5.2c1.4-2.8 2.5-5.5 2.5-6s-1.6-.8-3.5-.8h-3.4l-1.6 2.2a8.5 8.5 0 0 0-1.5 3.6c0 .8-1 2.5-2 4a9.1 9.1 0 0 0-2 3.4c0 1.1 1.7 1 2.5-.2zm143.9-6 3.6-7.2-4.7.7c-2.6.4-6.3 1.3-8.2 2.1l-3.6 1.4-1.7 3.2c-1 1.7-1.6 3.3-1.4 3.5 1 1 8.2 3.2 10.3 3.3h2l3.7-7zm-200 5a23 23 0 0 1 6.6-3l6-2.2 3-5.6c1.6-3 3-5.9 3-6.3 0-.4-3.5 1-7.8 3.3l-7.8 4-2.7 4.6a27 27 0 0 0-2.7 5.5c0 1 1.7.9 2.4-.2zm134.7-1.6c1-1 2-2.6 2-3.7v-2l-2.3.7c-1.3.3-3.3.6-4.5.6h-2.2l-1.6 3a17 17 0 0 0-1.5 3.6c0 .4 1.8.4 4 .1 2.3-.3 5-1.3 6-2.3zm-60.1.5c0-.6 1.1-3.3 2.5-6s2.2-5.5 2-6c-.4-.5-2-.9-3.6-.9h-3l-.5 1.8c-.3 1-1.6 4-3 7l-2.4 5.2h8zm20.3-2.2.9-2.7-1.6-1.5c-.8-.8-2-1.5-2.5-1.5s-1.3 1-1.7 2.1l-.6 2.2 1.3 2.4c.7 1.3 1.7 2.2 2.3 2 .5-.2 1.4-1.5 1.9-3zm227.8-.6c1.1-2.2 2-4.4 2-4.8 0-.4-1.9-1.6-4.2-2.7l-4-1.9-1.7 1c-.8.5-2.5 3-3.8 5.4l-2.2 4.4 3.7 1.2c2 .6 4.7 1.2 6 1.2l2.2.1 2-4zm-67.3-.2a92.6 92.6 0 0 0 8.3-15.6c0-.3-1.5-.2-3.3.2-1.8.3-5.7 1-8.7 1.3l-5.4.7-3.8 7a67 67 0 0 0-3.8 8v1.1l7.5-.7a28 28 0 0 0 9.2-2zm-110.4 1a26 26 0 0 0 5.4-2.2c.7-.5 1.2-1.6 1.2-2.4v-1.6l-9.1 1.3-2 2.3a9.7 9.7 0 0 0-1.9 3c0 1 1.6.9 6.4-.5zm89.7-1.4c.5-1.3 2-4.2 3.4-6.4s2.6-4.5 2.6-5c0-1.4-5.5-1.4-10 0l-3.5.9-3 5.7-3.3 6.2c-.1.4 2.7.7 6.3.8l6.5.2 1-2.4zm-68.4-1.4a7 7 0 0 0 1.3-2.3c0-.4-2.3-.8-5.1-.8H653l-1.8 1.7c-1 .9-1.9 2.2-1.9 3v1.3l11.5-1.3zm15.1.5c.7-1.4.8-2.7.4-2.9-.3-.2-3-.1-6 .1l-5.3.4-1.2 3 1.4.9c.8.5 3.3.9 5.5.9h4.1l1.1-2.4zm127.5-3.2a46 46 0 0 0 2.8-5.5c0-.3-1.5-.9-3.2-1.2-1.8-.3-4-.8-5-1.2l-1.7-.7-.6 2.5c-.4 1.3-2 3.4-3.6 4.6-1.6 1.2-2.9 2.6-2.9 3.1 0 .6 1.8 1.3 4 1.6 2.2.4 4.3 1 4.6 1.6 1 1.7 2.9.2 5.6-4.8zm-386 2.3 7-2.4 2.6-4.9 4-7c.7-1.2 1.2-2.6.8-3-.3-.3-2 .2-3.6 1s-3.1 1.3-3.4 1.1c-.2-.2-2 0-4 .6l-3.6 1-2.5 4.2-4.6 8-2.3 3.7h1.4c.7 0 4.4-1 8.2-2.3zm349.5-.2a45.7 45.7 0 0 0 6.3-11.8c0-.4-2.5-.7-5.5-.7h-5.5l-2.5 5c-1.3 2.7-3 5.2-3.5 5.5-.6.4-1 1.2-1 2v1.2l5.2-.4c3-.2 5.8-.6 6.5-.8zm15.1-1h5.4l1.9-3.7c1-2 2.3-4 3-4.3 2.3-1.4-.6-2.5-7-2.5h-7l-3 5.4c-1.7 3-3.1 5.7-3.1 6s1 .4 2.2 0a28 28 0 0 1 7.6-.9zm-256.6-5c1.5-3 2.7-6.3 2.7-7.3s-.6-2.3-1.2-3a5.6 5.6 0 0 0-3.5-1.2h-2.2l-3.5 6.3c-2 3.4-3.6 6.9-3.8 7.7l-.3 1.4 3 .7c1.6.4 3.7.7 4.5.8l1.6.1zm-85.1-.2 4.2.4 5-2.5 3-5.6c1.6-3 2.6-5.9 2.2-6.3-.4-.4-2.7-.1-5.2.5a37 37 0 0 1-8.3 1.2h-3.9l-3.6 6c-2 3.2-3.7 6.3-3.7 6.9v1l3-1c1.7-.6 5-.9 7.3-.6zm21-4.7 5.7-1.6 2.6-5 2.5-5h-9.7l-2 2.3c-1.9 2-6.4 10-6.4 11.3 0 .3.4.3.8.1.4-.2 3.3-1.2 6.5-2zm80.2-7.3c2-4.3 4.6-9.5 5.7-11.5l2-3.8h-1.1c-.6 0-2.3.6-3.8 1.4l-2.7 1.4-3.8 7a36 36 0 0 0-3.7 8.9c0 1.9 1.7 4.3 3 4.3a36 36 0 0 0 4.4-7.7zm-58.2 2 2.8-.5 2.5-4.8c1.3-2.7 2.5-5.2 2.5-5.6 0-.6-2.6-.3-9.8 1.2l-3.3.7-2.8 4-3.6 5.5-.8 1.4 4.9-.7 7.6-1.1zm17.4-3.5c3.6-2.5 5.6-5.8 4.5-7.6l-.7-1.2-8.9 1.6-2.3 4a24.5 24.5 0 0 0-2.2 4.7c0 .4 1.4.7 3.1.7h3.2zm16.7-8.7c7.7-7 9.7-9 9.7-10.1v-1.3l-1.8 1.6c-1 .8-4.3 2.7-7.4 4l-5.7 2.5-2 4c-1.1 2.2-1.8 4.2-1.4 4.6.7.7 4.5-1.6 8.6-5.3zm349.3 2c.9-1.7 1.5-4.2 1.5-5.8v-2.8l-7.8-8.8-1.6 3.8c-.8 2-1.5 4.3-1.5 4.9a15 15 0 0 0 3 4.6c1.6 1.9 3 4.2 3 5.2s.4 1.8 1 1.8 1.6-1.3 2.4-3zM558 389h2.9l1.8-2.5c1-1.4 1.6-2.9 1.3-3.3-.3-.5-2.6-.8-5-.7-2.6.1-4.8.4-5 .6a30 30 0 0 0-2.6 7v1l2-1c1-.6 3.1-1.1 4.7-1.1zm18-4.5c1-1.4 1.4-2.8 1.2-3-.3-.3-2.5 0-4.8.7s-4.6 2.1-5.1 3l-1 1.8h8zm10.2-1.5c1.7-1 3.2-2.4 3.2-3 0-.5 1.8-5.1 4-10.2a42 42 0 0 0 3.5-9.6c-.2-.3-2 .3-4 1.2l-3.5 1.7-2 4c-2.2 4.2-2.6 7-1 7 2 0 1 2-1.6 3.1a10 10 0 0 0-4 4c-.8 1.5-1.4 3-1.4 3.3 0 1.2 3.7.4 6.8-1.5zm-46-3.3c1.8-1.5 4.2-6.2 4.2-8.4 0-1 1.5-4 3.4-6.8 2-2.7 5.7-9.3 8.4-14.5l7.5-14.4c1.5-2.7 2.7-5.7 2.7-6.7s1.3-3.8 3-6.2c1.6-2.5 3-5 3-5.5s.6-1.5 1.4-2l1.3-1.2.6-6.8c.4-3.8 1.8-10.3 3.2-14.6s2.5-8.4 2.4-9.4c0-1.7-4.2 6.2-8.8 16.8a190.6 190.6 0 0 1-10.3 21.2 36.4 36.4 0 0 0-3.8 8.3 115.7 115.7 0 0 1-16 32 95 95 0 0 0-11 20.2c0 .9 7.3-.7 8.8-2zm57-1a88 88 0 0 0 6.7-12.5l4.7-10.4-2.2-2.2-2 2a62 62 0 0 0-6 11.4c-2.3 5.2-4.6 10.5-5 11.8l-1 2.2h1.4c.7 0 2.2-1 3.3-2.2zm-20.8-1.2 3-1.5 2-4c1.2-2.2 1.8-4.4 1.5-5l-.5-.8-7.7 2-1.2 3.3c-.6 1.8-1.8 3.6-2.6 3.9-.8.3-1.5 1.2-1.5 2v1.6h2a14 14 0 0 0 5-1.5zM858 375l1.8-4-.6-2.3a49.7 49.7 0 0 0-4.8-12.8c-.4 0-1.9 3.1-3.3 7l-2.7 6.9 1.7 3.3c2.2 4.4 3.4 5.8 5 5.8.6 0 2-1.8 3-4zm-228.1-12.4a61.1 61.1 0 0 0 3.4-13.7c-1.5 0-3.7 4.3-8.2 15.7l-4.4 11.2 2 2 1.5-.8 1.5-.8zm-61 10.7c.8-2 1.5-4 1.5-4.5s-.9-.9-2-.9h-2l-1.3-2.6-1.4-2.6-5.5 11.3 1.2 1.4 1.2 1.5h6.8zm40.8-1.6c1.3-3 3.2-7.5 4.2-10.3a32 32 0 0 1 2.7-6c1.5-1.6.9-2.6-1.4-2.3l-2.2.3-4.8 10.8a47.2 47.2 0 0 0-4.3 11.7c.4.6 1.3 1 2 1h1.5zm9.5-1.8c1.3-3.6 3.4-8.9 4.8-11.8 1.3-2.9 2.4-5.5 2.4-5.8 0-.3-1-.4-2.1-.2l-2.1.3-5 11.3A48.1 48.1 0 0 0 613 376c.3.6 1.3.9 2.3.7l1.6-.3zm-61.6-2.8c2.1-4.2 3.8-8.3 3.8-9 0-.7 1.1-1.7 2.5-2.4l2.5-1.1.6-2.6c1.3-5.7 1.8-6.9 7-14.6 2.8-4.4 6.4-10.7 8-14l11-23.3a415.7 415.7 0 0 0 11.4-24.7l3-6v-3.9c0-2.2.6-5.4 1.2-7.3l1.2-3.3-1-1-1-1-8 16.2c-4.3 9-8.2 18.1-8.5 20.3-.9 5-2.8 10-5.7 14.8-1.3 2-2.6 5.7-3 8-.2 2.3-1.3 5.6-2.4 7.4-1 1.7-3.5 4-5.5 5l-3.7 2-3 6.9c-3 7.1-7.2 16.8-8.6 19.4-.4.9-1 3-1.5 4.7a21 21 0 0 1-3.6 6.9l-3 3.7v6.7h1.3c.7 0 3-3.5 5-7.8zm76.5 6.3 3-1.5 1.2-4c.7-2.3 1-4.4.7-4.7-.2-.3-1.7-.2-3 .1l-2.7.7-2 4.2c-2 4.6-2.3 6.7-1 6.7.4 0 2.2-.7 3.8-1.5zm11.3-6c.7-.8 2-1.5 3-1.5h1.8l2.6-4c1.5-2.2 2.6-4.4 2.6-5v-1.1l-2.2 1.6a9.3 9.3 0 0 1-4.5 1.5h-2.2l-1.5 2.3c-.8 1.2-1.7 3.4-2.1 5l-.7 2.7h1c.5 0 1.6-.7 2.2-1.5zm202.4-7.5c1-3 2.4-6 2.9-6.4 1.2-1.4 1-4.3-.5-6.9l-1.4-2.2-.6-8.6-.7-8.6 1.2-3.2c.6-1.8.8-3.5.5-3.8-.6-.5-6 10.3-10 19.9l-1.5 3.6 6.8 6.6v5.7l-1.5.6-1.6.6-5-4.7-1 1.4c-.4.8-.8 2.2-.9 3 0 1 1.6 3.3 3.5 5.4l3.4 3.8 2.2-.4 2.2-.3zm-186.8 1a46 46 0 0 1 7.6-5.6l5.7-3.4 1-2.8 1.7-4.4.7-1.8h-1.2c-2 0-12.9 8-15.4 11.3a20.7 20.7 0 0 0-3.2 6l-.7 2.7h1c.5 0 1.8-1 2.8-2zm-19.8-5c.6 0 2-1.9 3.1-4.2 2.3-5.1 5.1-12 5.1-12.3 0-.2-2 .8-4.3 2l-4.4 2.5-2.6 5.9a49.7 49.7 0 0 0-2.7 6.6c0 .4 1 .5 2.3.1 1.2-.3 2.8-.6 3.5-.6zm192-3.6c.3-.8 0-2.5-.6-3.7A28.5 28.5 0 0 0 822 337c-2.2-1-4.4-2-4.8-2-1 0-4.8 7.5-4.8 9.5v1.5h2.3c1.2 0 5.4 1.9 9.2 4s7.4 4 7.8 4c.4 0 1-.7 1.4-1.6zm-138-5.7a27 27 0 0 0 5.3-9.6c0-.6-1-1-2.2-1s-4.5.6-7.4 1.6l-5.2 1.6-2.1 4.4a34.8 34.8 0 0 0-2.2 5c0 .9 12.5-.8 13.9-2zm-42.3-.7c1-1 3.3-2.5 5.2-3.2l3.3-1.2 2.6-6.8c1.5-3.8 2.4-7.2 2-7.5-.8-.8-6.4 3.3-9 6.6-2.6 3.2-7.7 14.1-6.7 14.1.5 0 1.6-.9 2.6-2zm57-.4 3.6-1.5v-2c0-1.2.4-2 1-2 .5 0 1.8-1.9 3-4l2-4h-11.7l-1.6 1.7a47 47 0 0 0-5.7 12.3c0 1.4 5.7 1 9.5-.5zm18.4-3 7.3-1.1 2.6-4.8c1.4-2.6 2.3-5 2-5.3-.3-.3-4.2-.3-8.6.1l-8 .7-3 5.4c-1.8 3-3.1 5.9-3.1 6.5v1.1l1.7-.7c1-.4 5-1.2 9-1.9zm75.7 1.2 3 .1 3.5-6.4c1.9-3.5 3.2-6.6 3-6.8-.3-.2-3-.7-6-1.1l-5.5-.7-3.8 7.6c-2 4.1-3.7 7.8-3.7 8.1 0 .3 1.5.2 3.3-.2s4.6-.6 6.2-.6zm-31.9-8.3c2-4.1 3.5-7.7 3.3-8-.3-.2-3.1-.1-6.3.2l-5.8.6-3 6.1a39.4 39.4 0 0 0-2.8 7.3c0 .6.7 1 1.7.9.9-.1 3 0 4.7.4 1.7.4 3.4.5 3.8.3s2.4-3.7 4.4-7.8zm22.7.4 3.9-7.1-1.4-1.3c-1.6-1.6-6.8-2-12.4-1l-4 .7-3.2 6.7c-1.8 3.7-3.2 7-3.2 7.4 0 .3 3.5.8 7.7 1l8.3.5c.3 0 2.2-3 4.3-7zm-44.6 4.7h3.2l3-5.6c1.7-3.1 2.8-6 2.4-6.3-.8-.9-6.1-.9-10-.1l-3 .6-2.9 5.7-3.3 6.5-.4.9 3.9-.9a47 47 0 0 1 7-.8zm92.8-15.1c3-6.6 5.5-13 5.5-14.2 0-1.2.6-2.6 1.3-3 1.6-1 8.7-14.6 8.7-16.5a217.8 217.8 0 0 0 17-34.6c0-.5.7-1.5 1.5-2.1 1.5-1.3 4.8-10 3.8-10-.4 0-2 1.1-3.4 2.6l-2.9 2.7v2.4a18 18 0 0 1-3.1 7 78.6 78.6 0 0 1-7.8 9.4l-4.6 4.6-2.7 6.6c-1.5 3.7-2.8 7.3-2.8 8s-2 3.8-4.3 6.8l-4.4 5.3-6.1 12.8c-3.4 7-6.4 14.3-6.7 16.1l-.7 3.4 1.2.7a8 8 0 0 1 2.1 3.3l1 2.5 1-1c.5-.5 3.4-6.3 6.4-12.8zm-164.8 2 7.2-4 2-4c1-2.2 1.7-4.1 1.6-4.3-.2-.1-1.8.5-3.7 1.4-1.8 1-5 2.5-6.9 3.4l-3.5 1.8-2.8 5.2c-1.5 2.9-2.4 5-2 4.9s4.1-2.2 8-4.4zm-89-5.8 9-15.7 6.5-11.5.5-5.2c.3-3 .2-5.3-.2-5.3s-1.8 2.4-3 5.3-5.8 12.2-10 20.7a251 251 0 0 0-7.6 16.3c0 1.6 2.1-.5 4.7-4.6zm102.3-1.2c0-.8-.2-1.5-.4-1.5-.3 0-.7.7-1 1.5s-.2 1.5.4 1.5c.5 0 1-.7 1-1.5zm10-3.7 1.1-2 6.4 1.1 1.5-1.2c1.5-1.1 6-7.9 6-9 0-.2-2.7.9-6 2.5a30.8 30.8 0 0 1-8 2.8h-2l-2 3.3c-1.1 1.7-2 3.7-2 4.4v1.1l2-.5a5.7 5.7 0 0 0 3-2.5zm28.6-7a29 29 0 0 0 5.2-10.8c-.2-.5-3.2.1-6.8 1.3l-6.4 2.2-1.7 3c-1 1.7-1.8 3.5-1.9 4.2 0 .6.8 1.4 1.7 1.6 2.3.7 8.5-.2 10-1.4zm21 .5c-.3-.3-.6 0-.6.7s.3 1 .6.7c.4-.4.4-1 0-1.4zm-7.6-2.7c3-.8 6.7-1.8 8.2-2l2.8-.6 3-6.4 3-6.7c0-.2-4 .2-9 1l-9 1.4-1.5 3.6c-.8 2-2.7 5.6-4.2 8l-2.7 4.4 2-.6 7.4-2.1zm29.6-5.9 4.2-8.1c2.3-4.4 4-8.2 3.7-8.4-.3-.3-2.4 0-4.8.7l-6.6 2-2.3.6-8 14.8 6.8-.7 7-.9zm14 .7 2-.5 4.4-8.7 4.8-9.4c.2-.5-2.3-.8-5.6-.8h-6l-4 7.3a65 65 0 0 0-4.7 10l-.7 2.7h3.8a30 30 0 0 0 6-.6zM576.8 282l5.6-11.1.6-4.8c.3-2.6.2-6.5-.2-8.5l-.6-3.8-.9 1c-.7.7-2.4 3.8-9.2 16.6l-1.7 3.2v9.3c0 5 .1 9.2.4 9.2.2 0 3-5 6-11zm23-20.9c1.5-3.6 4-9.1 5.6-12.4l2.8-5.8-1.1-4.4-1.2-4.3-1.3 1c-.7.7-1.3 1.6-1.3 2.1s-1.6 3.6-3.5 6.8l-3.4 5.7-1.4 19.8 1-1c.5-.5 2.2-4 3.8-7.5zm-21.1-9.8 2.3-4.2-1.5-5.5c-.9-3-1.9-5.5-2.2-5.5s-2 2.3-3.4 5.1l-2.6 5v9.7l.1 9.7 2.5-5c1.4-2.7 3.5-7 4.8-9.3zm22-19 2.8-6.4-1-2.4c-.7-1.3-1.5-2.4-2-2.4s-1.5.8-2.3 1.8c-3 3.5-4.7 7.8-4.4 10.2l1 6.5.7 4 1.1-2.5 4-8.8zm-26.7 1.2 1.7-3.5-2-3.7c-1-2-2.6-3.8-3.5-4l-1.5-.3-3.5 7.4 2.7 3.8c1.4 2.2 3 3.9 3.5 3.9s1.7-1.6 2.6-3.6zm20.6-12.5c1.5-2.7 2.5-5.4 2.2-6-.4-.5-1.5-.9-2.6-.9s-2-.4-2-1c0-.5-.6-1-1.4-1s-2.3 1.6-3.2 3.5l-1.7 3.6 1.8 3.4c1 2 2.4 3.5 3 3.5.6 0 2.3-2.3 3.9-5zm-29 .9 1.5-3.2-4-3c-2.1-1.5-4-2.7-4.2-2.5l-2 3.7c-1 1.7-2.2 3.2-2.8 3.2h-1l.7-2.2 1.2-5 .5-2.7-6.3-3a24.2 24.2 0 0 0-6.8-2.7c-.4.3-1.5 2.1-2.6 4.2l-2 3.7 4.4 3.8c2.4 2.2 5.3 4 6.5 4 1.1 0 4.6 1 7.6 2.3 3 1.3 6 2.4 6.6 2.5.6 0 1.8-1.3 2.7-3.1zm20.4-11.3 1.7-3.5-1.2-3.3c-.7-1.9-1.2-4.5-1.2-6s-.3-2.7-.8-2.7c-.4 0-2.1 2.7-3.9 6l-3.2 6 2.4 2.5c1.4 1.3 2.5 2.9 2.5 3.5s.4 1 1 1 1.8-1.6 2.7-3.5zm-212.2 1 5-1.5 1.7-3.6c1-2 1.6-3.9 1.3-4.1-.3-.3-2.6.4-5 1.6a23.8 23.8 0 0 1-6.4 2.1c-1 0-2.5 1.2-3.5 2.5-1.9 2.6-1.6 4.5.7 4.5.7 0 3.5-.7 6.2-1.5zm164-5.5c1.4-2.3 2.3-4.5 2-5-.7-1-6.4-4-8-4-1 0-3.5 4.5-3.5 6.4 0 1.2 5 6.6 6.1 6.6.5 0 2-1.8 3.4-4zm-142.5 1.4 4.6-1.7 1.5-3.3 1.6-3.4-2.2-.1c-4.4-.3-10.2.2-12.7 1.2l-2.7 1-1.5 4-1.6 3.9h4.2c2.3 0 6.3-.7 8.8-1.6zm41.5-8.2c1.3-2.3 2.4-4.7 2.4-5.3v-1.1l-4.7.6-6.4 1.2c-.9.2-2.4 2.2-3.4 4.4s-2.3 4-2.9 4.1c-.6.1.7.5 3 .8 2.1.4 5.2.4 6.8.1l2.8-.5zm-17.3 3.6 2-3.5 1.8-3.3h-12.8l-2.7 2c-1.4 1.2-2.6 3-2.6 4.2v2l7-.5c4-.3 7.3-.7 7.3-.9zm29.8-.9c1.8-.9 6.6-9.5 5.8-10.3-.3-.3-3 0-6.1.6l-5.7 1.2-2.5 4.6c-1.4 2.6-2.3 5-2 5.3.8.8 8.2-.2 10.5-1.4zm9-2.4c0-.8-.7-1.5-1.6-1.5-.8 0-1.5.7-1.5 1.5s.7 1.5 1.5 1.5c.9 0 1.5-.7 1.5-1.5zm68.8-2.1 2.4-3.7-5.7-5.5-3.6-.6-3.5-.6-2.3 4.6a18.8 18.8 0 0 0-2 5 76 76 0 0 0 11.4 4.3c.5 0 2-1.6 3.3-3.5zm-58.7.4a42 42 0 0 0 6.8-10.3c0-.9-3.8-.6-4.4.4-.3.4-2.7 1.1-5.4 1.5-2.7.3-5.5 1.3-6.2 2L458 193l4.7 6h2c1.2 0 2.9-.5 3.7-1.1zm26.3-3c6.1-.2 11.9 0 12.9.2l1.8.5 2.5-4.7c1.4-2.6 2.2-5.2 1.9-5.8l-.7-1h-15.8l-2 4c-1.2 2.2-2.5 4-3 4-1.4 0-1.3-3.7 0-4.5.5-.3 1-1.3 1-2V184l-3.8.1c-2 0-5 .4-6.6.8l-3 .6-6 10.6 5-.6c2.6-.4 9.8-.7 15.8-.8zM406 184.1l2.2-1.2h7.8c4.3 0 13.3-.9 20-2l12.3-1.8L459 172l4.9-.5 12.8-1.1c4.4-.3 9-1 10.4-1.7 2.4-1.2 5.1-5.5 5.1-8.1V159h-4.6l-4.9-5.2-4.5.5c-2.4.3-5.6.9-7 1.3s-6 .7-10.3.6l-7.9-.3-6.4 2.2a26 26 0 0 0-7.5 3.5c-.6.8-2.6 1.4-4.4 1.4-1.9 0-3.6.4-3.9.8-.3.5-4 2.6-8.3 4.7-4.3 2.1-9.1 4.8-10.8 6s-5 2.8-7.2 3.4l-4.3 1.2v1.4c0 .8-.9 2-2 2.7-1.1.7-2 1.8-2 2.4v1.1l3.7-.7a25 25 0 0 0 6-1.8zm37-12.5c-1.9-1.6-4-7.3-3.2-8.6l.6-1.1 2 1c1.8 1 5 5.9 5 7.8 0 1.6-2.8 2.1-4.3.9zM408.8 153c1.3-2.5 4.4-8.9 6.8-14.3l4.5-9.8-6-11-2.1 3.3c-1.2 1.8-5.4 9.8-9.4 17.7l-7.3 14.4 1.8 1.7c2.4 2.2 4.2 3 7 2.7l2.4-.2zm317 543.2c-.6-.4-2.3-3-3.8-6s-2.4-6-2.1-6.8c1-2.7 3.4-1.3 6 3.3 1.4 2.6 2.9 5.6 3.2 6.9l.5 2.2-1.4.5c-.8.3-1.9.2-2.4-.1zM6 681.2c-1-1-2.8-3.5-4-5.7l-2-4v-4.2c0-4.4 2.4-16.2 4-20l1-2.3 12.9-6 2.5 1.2a12 12 0 0 1 4.3 3.7c1 1.4 2 4.3 2.4 6.3l.6 3.8-1.3 1.1c-.8.6-2 1-2.7.6s-1.7-1.8-2-3.4l-.6-3-2.6-1.7L16 646l-6.2 5.7-1 11.2-1.1 11.3 1.4.9c1.8 1.1 5 .1 6.7-2 .6-.9 2-3.4 3.1-5.7s2.4-4.4 3-4.8c1.8-1 4.1 1.3 4.1 4.1 0 1.3-.5 4.3-1 6.7l-1.1 4.2-3.5 2.4-3.5 2.4-9 .3zm793.4 1-6.5-.2-1.1-1.5-1.1-1.5.5-9.5.5-9.4-1.2-1.5-1.2-1.4 1-.6c.6-.4 1.1-2 1.1-3.7s.4-3.8 1-4.8l.9-1.7 18.2.2 2 1.8 2 1.7-.3 2.2-.3 2.2h-16.4l.2 2.7.2 2.8 4.7.6c2.6.4 5.3 1.3 6 2.1l1.2 1.5-1 1.7-1.1 1.6h-5c-2.6 0-5 .4-5 .8s-.3 2.2-.3 4v3.2h4.8c2.6.1 6 .5 7.5.9l2.7.7v1.7c0 1-.5 2.4-1.2 3s-2.3 1.1-3.7 1l-9-.5zm-86-11c-1.9-.4-8.5-13.7-7.6-15 1.3-2.1 3.5.2 7.1 7l3.6 7-.8.8c-.5.4-1.5.5-2.3.3zm-439-7.4-1.3-1.2v-10.8l-2.1-3.9-2.2-3.9h-2.3c-1.2 0-2.5-.4-2.8-1-1.2-1.7 2.8-6.2 7.1-8 2.4-1 6-2 8-2.2l3.6-.2 1.4 1.9c1.6 2.3 1.8 7.5.2 11-.6 1.4-2.2 3.2-3.5 4-1.3.9-2.4 2.1-2.3 2.8 0 .7.6 2.5 1.5 4s1.4 3.7 1.4 4.6c0 2.2-1.9 4.1-4 4.1-.8 0-2.1-.5-2.8-1.2zm3.7-20.2 1.2-1.5-1.3-4h-5.9v1.4c0 2.1 2.3 5.5 3.7 5.5.6 0 1.6-.6 2.3-1.4zm17 4.3c-2.2-3.4-4-6.5-4-6.8 0-.3 1-2 2-3.8l2-3.3h2c1 0 2.2.4 2.5.9s-.4 1.6-1.4 2.6c-1.1 1-1.7 2.2-1.4 2.8l.6 1 5.7-1.2.6 1c.4.6 0 1.8-1 2.8-.8 1-1.5 2.3-1.5 3 0 1.5 4.2 1.5 5.8 0l1.2-1.3 1.1 1.2 1.2 1.1-1.4 1.6c-1.6 2-6.3 4.5-8.4 4.5H299zm401.9-4.7c-.9-1-2.3-3.5-3.2-5.6l-1.5-3.8 1-1.3c.7-.8 1.8-1.1 2.5-.9 1.7.7 5.6 7.7 5.6 10.2 0 1.1-.7 2.2-1.4 2.5-.8.3-2.2-.2-3-1.1zm48-5.4c-3.3-.4-6.6-1.4-7.4-2l-1.3-1.4 1.8-4.9-1.3-4.3a22 22 0 0 0-2.5-5.8l-1.2-1.5-1 1a48.7 48.7 0 0 0-5.7 14.8c0 1.2-.4 2.5-1 2.8-.4.3-2.2-.6-4-2l-3-2.7-7.3-15-6.3-7.2a106.5 106.5 0 0 0-21-18.6 38 38 0 0 1-6.5-5.5 31 31 0 0 0-6.9-5.5c-1.6 0-1.3 2 1 4.7 1 1.4 2 3.7 2 5v2.5l-1.8-.4-1.7-.3-3.8-7.5-3.8-7.5-2.8-2c-1.6-1-4-3.4-5.5-5.2a40.5 40.5 0 0 0-9.1-6.7c-3.6-2-7.4-5-8.5-6.6a30.3 30.3 0 0 0-6.9-6 66 66 0 0 1-10.5-9.5l-5.7-6.4-3-6.4A89.5 89.5 0 0 0 604 516c-2-2.9-3.6-5.8-3.6-6.5 0-.7-1.1-2.7-2.5-4.3a94 94 0 0 1-11.7-17.1c-1.1-2.5-3-8-4-12.3l-1.9-7.8 1-4c1.2-4 2.9-6.3 6.3-8l2-1.1 3.1 1a24 24 0 0 1 6.4 4.3l3.2 3.1 3.8.2 4.5.4c.4 0 2 2.2 3.7 4.9l3 4.7 4.7 3a166 166 0 0 0 10.5 5.7 57.4 57.4 0 0 1 19.1 16.5l3 4.5 7.7 3.6c4.2 2 10.1 5.5 13.1 7.8s6.5 4.6 7.6 5.2a170 170 0 0 0 19.6 6.6c3.1.9 6.2 2.3 6.9 3.1.7.8 1.9 1.5 2.6 1.5s4 2.5 7.2 5.6 6.8 6.2 8.3 7c3.5 1.8 8.9 8 8.9 10.4 0 1 1 3.1 2.4 4.7l2.3 2.8 8 2.4c4.2 1.3 8.8 2.7 10 3.2l2.4 1 1.4 3.4c.8 1.9 1.5 5.5 1.5 8s.5 4.7 1 5c.6.4 2 2.8 3.1 5.3 4 8.8 4.4 9.7 8.1 16 2.1 3.4 3.8 6.9 3.8 7.7s-.4 1.7-1 2c-1.5 1-4.4-1-6-4-.7-1.4-1.8-2.4-2.3-2.2-1.5.5-6.7 10.7-6.7 13.2v2.3l3.5 4.2c2 2.3 3.5 4.6 3.5 5.1s-1 1.7-2 2.7l-2 1.7H759a142 142 0 0 1-14.2-.7zM725.2 627c.6-1 1-2.9 1-4s.8-3.6 1.8-5.6l1.7-3.6-1-1.6a5.4 5.4 0 0 0-2.2-2c-1.3-.5-6.2 8.7-6.2 11.6 0 2.5 2 7.1 3.1 7.1.4 0 1.3-.9 1.8-2zm-4.4-15 1.8-4-2.4-2a36.1 36.1 0 0 0-4.1-3.1l-1.8-1-1.5 3c-.8 1.6-1.5 3.5-1.5 4.2 0 .8 1.1 3 2.5 5.1l2.6 3.8 1.3-1c.7-.6 2-2.9 3-5zm46.1-5.7 1.4-3.2-2.3-5.2-2.3-5.2-1 1.4c-.6.7-2.2 3.5-3.4 6L757 605l2.2 4.4c1.2 2.4 2.2 5 2.2 5.7 0 1.6 3.7-4 5.6-8.7zm-56.8-3.6c.6-.6 1.2-1.8 1.2-2.6s-1.5-3.6-3.2-6.3a36.6 36.6 0 0 0-3.5-4.9c-.6 0-4.3 8-4.3 9.2 0 1.3 5.6 5.6 7.5 5.7.6 0 1.6-.4 2.3-1zm45.2-1.9c0-.6 1.4-4 3-7.5l3-6.4-1.4-3.2a25 25 0 0 1-1.8-7.2c-.2-2.2-.8-4-1.3-4.2-.6-.2-2 1.4-3.3 3.4-2.6 4.3-8.2 16-8.2 17.2 0 .5 1.7 2.6 3.7 4.8 3.8 4 6.3 5.2 6.3 3.1zm-56.8-7.6c2.6-3.1 4.8-8.5 4.8-12v-3.5l-2-.5c-1-.3-3-2.1-4-4l-2.2-3.6-2 3.4a99.7 99.7 0 0 0-4.6 8.3l-2.4 4.9 4.8 4.3a38 38 0 0 0 5.5 4.4c.3 0 1.2-.8 2-1.7zm46.7-9a36 36 0 0 0 4-8.5c0-.8.8-2.1 1.6-2.8.8-.7 1.5-1.8 1.5-2.6V569h-6.5l-2 4.3a26 26 0 0 1-3.2 5.8c-.8 1-1.8 3.1-2.3 5l-1 3.2 1 1.8c.6 1 1.4 2 1.9 2s2.7-3.1 5-6.9zm-57.5-8.7a54 54 0 0 0 4.6-9.8c0-2-6-10-7.3-9.5-.5.1-2.8 3.9-5.2 8.3l-5.7 10.3-1.4 2.2 1.8 1c1 .6 3 2.1 4.4 3.5a11 11 0 0 0 3.4 2.4c.4 0 2.9-3.8 5.4-8.4zm49.7 3.1a41 41 0 0 1 4-7.7c1.3-1.6 2-3.1 1.8-3.3a21.4 21.4 0 0 0-7.2-3.7c-.7 0-2 1.5-3 3.3l-4.3 8-2.8 4.7 3.8 4.1 5.8-.6zm-8.8-9.9c2-3.7 3.7-7.5 3.7-8.5 0-2-4.2-10.3-5.2-10.3s-2.4 2.3-5 8.7l-2.7 6 .8 3.5c1.1 4.7 3.3 9 4.1 8 .4-.3 2.3-3.7 4.3-7.4zm-56.4.5c1.2-2.6 3-6.1 4-7.8a44 44 0 0 0 5-9.5c0-.7-2.3-1.3-9.5-2.6l-3-.5-7.5 15.3.7 3.6c.3 2 1.4 4.3 2.3 5 .8.6 2.5 1.2 3.7 1.2h2.1zM653 558c-1.2-2.4-2.8-4.5-3.4-4.7s-1.5.5-1.8 1.5l-.6 1.9 3.8 4 3.7 4 .3-1.2c.2-.6-.7-3.1-2-5.5zm9-4.2c1.8-3.5 3.3-6.6 3.3-7a15 15 0 0 0-5.1-2.3l-5-1.7-1.5 1.9c-.8 1-1.7 2.6-2 3.7l-.7 1.8 2 1.8c1 1 2.5 3.2 3.2 4.9.7 1.7 1.6 3.1 2 3.1s2-2.8 3.8-6.2zm56.3 4c0-.7 1.1-3 2.5-5s2.5-4.3 2.5-5c0-1.5-6.3-7-9.3-8l-1.8-.7-2 3.2a16 16 0 0 0-2 4.7c0 .9 1 2 2 2.8 1.1.6 3 3 4 5.2 2 4 4 5.3 4 2.7zm-72.7-6.5 2.7-5.3a40 40 0 0 0 1.9-3.7l1-2.2-3.6-3.5c-2-2-3.8-3.6-4-3.6-.3 0 .6 2 2 4.4 1.4 2.4 2.3 4.6 2 5-1.6 1.5-3.5.4-5-2.9-1-2-2.1-3.5-2.6-3.5s-2 2.5-3.5 5.5L634 547l4 4c2 2.2 4.3 4 5 4s1.8-1.7 2.8-3.7zm-11-14.4 4.4-8.2-3-4.8c-1.6-2.7-3.3-5-3.8-5.4-.4-.3-2.5 2.8-4.5 6.8s-4.1 7.6-4.6 8.2c-.5.5-.9 1.9-.9 3v2.3l3.7 3c2 1.8 3.8 3.2 4 3.2s2.2-3.6 4.7-8.1zm71.7 3.6a15 15 0 0 0 1.8-4.9l-4-2.4c-2-1.2-4.3-2.2-5.1-2.2h-1.5l-2.1 4.2-2.1 4.3.8.8a33 33 0 0 0 8.8 4.7c.7 0 2.2-2 3.4-4.5zm-14.5-6.5 1.8-4-1-.9a24 24 0 0 0-9.8-3h-2.2l-1.9 4-1.8 4 1 1c.9.8 7.3 2.6 10.5 2.8l1.6.1zm-18.9-1.7c.4-1 1.5-3 2.5-4.4 1-1.5 1.8-3.3 1.8-4 0-.8-1.6-2.7-3.5-4.2l-3.5-2.9-1.4.6c-.8.3-2.3 2.2-3.3 4.3a78 78 0 0 1-3.3 6L661 530l1.1 1.1c1 1 6 2.6 9.1 2.8.7 0 1.6-.7 2-1.6zm-48.3-10.1 5-9.9-.8-1.1c-.4-.7-1.3-1.2-2.1-1.2s-1.5-.4-1.5-1c0-.5.5-1 1-1 .6 0 1-.6 1-1.5 0-.8-1-2-2-2.5-1.2-.6-2.2-1-2.3-.8-3 5.3-4.7 8.9-4.7 10 0 .7-.9 2.4-2 3.8-1 1.4-2 3.7-2 5.2 0 3.3 3 9.8 4.5 9.8.5 0 3.2-4.4 6-9.8zm36.6-1.4 3-6.1-1.5-1.7c-.8-.9-3-2.1-5-2.7l-3.4-1-.8 1c-.5.7-2 3.4-3.3 6l-2.5 4.7 1.1 1.8c1.3 2 5.2 4.2 7.6 4.2h1.7l3-6.2zm-45-11.9 4.5-9-3.2-3a15.4 15.4 0 0 0-4.1-2.9c-.5 0-1.8 2.4-3 5.3-1.3 2.9-2.7 6-3.3 7s-.9 2.4-.9 3.2c0 1.6 4.1 8.5 5 8.5.4 0 2.6-4 5-9zm31.4 3.7a22 22 0 0 0 2.6-5.6 34 34 0 0 0-7.8-10c-.4 0-1.7 1.9-2.9 4.1l-2.2 4 1.7 2.8a33 33 0 0 0 3 4 5 5 0 0 1 1.2 3.2c0 1 .4 2 1 2s2-2 3.4-4.5zm-40.3-14.7c1.7-3.3 2.8-6.7 2.5-7.5-.3-.8-1.6-1.4-3-1.4h-2.4l-2.4 4.3-2.4 4.3 1.5 3.2c.8 1.8 1.8 3.2 2.3 3.2a21 21 0 0 0 3.9-6zm29.8.6c1.4-3.1 1.5-5.5.2-5.5-.5 0-1.5-1.2-2.3-2.7-.7-1.4-1.8-2.8-2.5-3-.6-.2-1.9 1-2.7 2.6-.9 1.7-1.6 3.4-1.6 3.8 0 .5 1.4 1.6 3 2.5 1.7 1 3 2.4 3 3.3 0 2.3 1.6 1.8 2.9-1zm-37.2-7.6 2.2-5-2.2-3.7a43 43 0 0 1-3-5.7l-.8-2-1 1.6a54 54 0 0 0-2.4 6.2l-1.6 4.7 1.7 3.2c2 3.9 3.4 5.8 4.3 5.8.3 0 1.6-2.3 2.8-5zm26.3-1.8c.6-1 1-2.4 1-3 0-.5-1.6-1.9-3.6-3l-3.7-2.2-1.9 2 1.4 6.2 2.2 1c1.2.4 2.4.8 2.8.8.4 0 1.2-.8 1.8-1.8zm-15-6.9-.8-3.2 1-.6 1-.6-1.3-1.4c-.6-.8-1.5-1.4-2-1.4-.3 0-1.2 1.4-1.8 3.2a22 22 0 0 0-1 4c0 .4 1.2 1.4 2.7 2.2 1.5.8 2.8 1.3 3 1.2s-.2-1.6-.7-3.4zm-17.5-9.7 2.8-6.6-2.3-2.4c-1.3-1.4-2.7-2.5-3.2-2.5-.4 0-.8.6-.8 1.2 0 .7-1.2 2.2-2.7 3.4l-2.7 2.1 1.2 3 2.2 5.6c.5 1.5 1.3 2.7 1.8 2.7s2.2-3 3.7-6.5zm12.3 3.4c.6-1.8 1-3.6.6-4-.3-.5-1.3-.9-2.2-.9s-2.3-.5-3-1.2l-1.2-1.2v1.7c0 2 3.1 8.7 4 8.7.3 0 1.1-1.4 1.8-3.1zm9.2 2.1c0-.5-.5-1-1-1-.6 0-.8.5-.5 1 .4.6.8 1 1 1 .3 0 .5-.4.5-1zm-296 155-3.3-4h-4l.4-2.2.3-2.3 3.1-.3a10 10 0 0 0 5-2.2c.9-1.1 2.5-2 3.4-2 1 0 2.8 1 4.2 2.4 3 2.7 6 8 5 9-1.3 1.4-3.2.4-5.2-2.9L326 625h-1.8c-1.6 0-3 1.8-3 4 0 .4.9 1.8 2 3 1.1 1.3 1.9 2.8 1.7 3.4-.8 2.3-2.7 1.5-5.7-2.3zm646.2-1.8c-2.7-.7-7-4-7-5.5 0-.4.8-.5 1.9-.2l1.8.6.8-3.3c.5-1.8.8-4.6.7-6.3l-.3-12.3-.1-9.3 3.2-3.6 9.7-.2c5.2 0 11 .2 13 .5l3.3.6.5 2.2c.3 1.2.6 3.5.7 5.1l.3 3-6.4.6-2.2-4h-3.7c-2 0-5.4.2-7.5.6l-3.8.6.3 3.6.3 3.6 5.2.6c2.8.4 5.6 1 6.2 1.4.6.3 1.1 1.7 1.1 3v2.3l-3.1.6c-1.7.3-4.6.6-6.3.6h-3.2l.1 6.8c.1 3.8.5 7.4.9 8l.7 1.2-2.3-.1c-1.3 0-3.4-.4-4.8-.7zm-621.2-13.8c-1.2-1.5-2.1-3-2.1-3.6 0-.5-1.4-.8-3.2-.6l-3.1.3-1.1-1.7-1.1-1.8 2.3-3.5 6.3.3 1.5-2.4 1.6-2.4h5.6l3 4.7c1.7 2.6 2.8 5 2.6 5.5s-1.4.8-2.5.8h-2l-1.7-3c-1-1.6-2.2-2.8-2.7-2.6-1.4.4-1.9 5.7-.6 7 1.3 1.3 1.4 5.6.2 5.6-.6 0-1.9-1.2-3-2.6zm336.6-5.1a44.5 44.5 0 0 1-5.5-14.2v-1.5l2.8 2.8c3.4 3.2 9.6 15.1 8.7 16.6-1.4 2.2-3.5.8-6-3.7zm-321.2-16-3.5-4.6 2.2-2.6 1.8 1c2.6 1.3 6 6.3 6 8.8v2.1h-1.5c-.8 0-3-2-5-4.6zm13.8-9.7-2.2-2.4-2 .5-2 .5-1-2-1.1-2 1.6-1.6c.8-.9 2.3-1.6 3.3-1.6h1.7l1-3 1.2-3h5.9l2.3 2.5c1.3 1.4 3 2.5 3.7 2.5s1.3.9 1.3 2v1.9l-4.2 1.3-2.7-2.6c-1.5-1.4-3.2-2.6-3.9-2.6-1.8 0-1.4 3.2.8 6.5 1.1 1.7 2 3.6 2 4.3 0 2-3.5 1.4-5.7-1.2zm-25-4c-.2-.8-.2-2 .2-2.5 1-1.6 4.2-1.3 4.9.5.3.9.3 2 0 2.5-.9 1.4-4.4 1-5-.5zm46.2-16.2-5.2-4.5-2.3-2v-3.3c0-1.7.7-4.1 1.6-5.4 1.7-2.5 5.2-3 6-.7l.6 1.5-4.5 3.7.7 1.2.8 1.2 3.2-.3 3.1-.3-.2 3.3-.3 3.2h4.1l1.7-3 1.7-3h1.8c1 0 1.7.5 1.7 1s-.7 2.4-1.5 4c-1.5 2.9-6 6-8.7 6-.7 0-2.6-1.2-4.3-2.6zm29.1-17c-.3-.8-.6-2.4-.6-3.4s-2.1-4.2-4.8-7.2-5.6-7-6.5-9-1.7-5-1.7-6.7v-3l2-2c1.1-1.2 2.9-2 4-2 1 0 4.6 2 8 4.4 3.3 2.5 7 4.5 8 4.5s2.1.4 2.4.9-.1 1.8-1 3c-1.5 2.2-4.8 2.8-5.9 1.1-1-1.7-4.4-1-5.5 1l-1 2 2.2 3.8a32 32 0 0 1 4.8 12.5v1.7h-1.9a3 3 0 0 1-2.5-1.6zm-3.5-22.6 1.2-2.2-2.3-1.8a7.7 7.7 0 0 0-3.5-1.8 2 2 0 0 0-1.8 1.3c-.7 2.1 2.3 6.7 4.5 6.7.4 0 1.3-1 2-2.2zm16.5-14.5c-3-2.5-5.6-5.1-5.6-5.9 0-3.2 4-2.4 8.8 2l2.2 2 3-2.9 3-2.9 1.2 1.2 1.2 1.2-2 2.2a14.2 14.2 0 0 0-2.8 4.5c-.3 1.2-1.3 2.4-2 2.7l-1.5.5zm19.2-18c-1-1-3.7-2.5-6-3.4-2.3-.9-4.6-2.3-5.2-3.2l-1-1.6 3.4-7.1 2.7-1a10 10 0 0 1 5-.5 6 6 0 0 1 3.5 3l1.2 2.5-2.4 5.1 1.5 3c.9 1.5 1.5 3.3 1.5 3.9 0 1.6-2.3 1.2-4.2-.7zm-.3-10.3v-1.5l-2.3-.3c-1.3-.2-3 0-3.8.2l-1.6.6 1.3 1.6 1.3 1.5 2.6-.3 2.5-.3zm13.5-2.9v-1.9l2-.5c1.2-.3 2-1.2 2-2V475h-1.7c-1 0-3.4.4-5.4 1-2 .4-4 .5-4.5.1-.5-.3-1-1.4-1-2.3 0-1-.4-2.8-.7-4.1l-.6-2.4 2-2.7 2.2-2.7 5.2.6v6l-2.7.3-2.8.3.6 1 .6 1 9.6-1.3 1.6 2.3a9 9 0 0 1 1.7 4c0 2.5-4 7-6.1 7h-2zm-290.7-88.5c-.9-2.3.4-8.2 2.1-9.6.8-.7 1.5-2 1.5-3s-.6-2.4-1.3-3.2c-1.3-1.3-6.7-9.4-10.6-16l-2.2-3.6 1.1-.7c.6-.4 2.4-.2 3.9.5l2.8 1.1 6.5-6h2.8c1.6 0 3.5.2 4.4.5.9.3 1.8 2.1 2.2 4l.6 3.4h5.8l4 4v7.5l-2 3.2-1.9 3.2-4.1 2.1c-5 2.5-13 9.7-13 11.6 0 2-2 2.7-2.6 1zm15.2-16.6c1.8-1.2 3.6-3 4-4 .3-1 0-2.8-.5-3.9-.6-1-2-2.2-3.1-2.6-2.8-.9-7.5.3-9.2 2.3l-1.5 1.7 3.8 8.5h1.6c.9 0 3-1 4.9-2zm-10.8-11.7c1-1 2.7-2.2 3.6-2.8l1.7-1-.6-1.7-.7-1.8h-2.2c-1.2 0-3.3 1-4.5 2.4l-2.3 2.4.7 2.1c.3 1.2 1 2.1 1.6 2.1.5 0 1.7-.8 2.7-1.7zm161.6 7-2-2-.7-4.3-.7-4.3 3.4-8.9-1.2-3.3-1.2-3.3 1-4.2c1-4.2 2.4-6 4.9-6 1.6 0 10.2 7.9 10.2 9.5 0 1.4 4.2 5.5 5.8 5.5 1.8 0 2.5 2 1.2 3.5-.7.9-2.4 1.5-3.8 1.5s-3.5-.9-4.7-2l-2-2-3.8 3.5-3.7 3.4v3.5c0 2 .4 4.6 1 6l.9 2.4-1.3 1.8-1.3 1.7zm7.8-22.3c1.6 0 1-2.6-1.2-5.4l-2.2-2.7-.8.8c-.5.5-.6 2.6-.2 4.6l.6 3.8 1.4-.5c.8-.3 1.9-.6 2.4-.6zm-134 20c-.6-1-1.2-2.8-1.2-3.7 0-1-.9-3.3-2-5-1-1.9-2-4.4-2-5.7 0-2.6 2.9-5.6 5.3-5.6.9 0 2 .5 2.3 1.2l.8 1.2-2.2 1.4c-1.2.8-2.2 2-2.2 2.8v1.4h6v1.4c0 .8-.4 1.8-1 2.1-1.3.8-1.3 5.2 0 6 2 1.2 4.9-.6 6-3.6l1-3 1.3.3c.7.3 1.4 1.4 1.5 2.5l.3 2-5.2 6.3h-7.4l-1.2-2zm22.4-12.7.6-3.9-2.5-1.1c-1.4-.7-3.3-2.6-4.2-4.4l-1.6-3.1 1-1c.5-.6 3-1.2 5.4-1.5l4.4-.5 2.2 1.1c1.2.7 2.1 1.9 2.1 2.8 0 .9 1.6 3.5 3.5 5.9s3.5 4.7 3.5 5.2c0 1.3-2 2-4.1 1.4l-1.7-.4-.7-3-.6-2.9-1.2.4c-.6.2-1.6 2.1-2.2 4.3l-1.1 4-3.4.6zm4-9.3v-1.5l-5.6-.6v1.5c0 .8.6 1.7 1.3 2 2.1.8 4.2.2 4.2-1.4zm17.2 2.5c-.3-.4-.3-2.3 0-4.3l.4-3.7-3-3c-1.8-1.5-3.2-3.4-3.2-4.1 0-1.7 3.3-2.6 6.7-1.8 1.6.4 4.3 1.8 6.1 3 1.8 1.4 3.2 2.1 3.2 1.7a8 8 0 0 0-1.5-2.7 9 9 0 0 1-1.4-4.7v-2.7l1.5-.6c1-.3 2-.3 2.6 0l1 .6-.7 3-.6 2.9 1.9 3.2c1 1.8 2.2 4.2 2.5 5.4l.6 2.2-1.4 1.2-1.4 1.1-2.5-1.6c-1.4-.9-3.3-2.7-4.1-4.1s-2.2-2.5-2.8-2.5h-1.1v11.3l-1.1.4c-.6.2-1.3 0-1.7-.2zm113-10.1a24 24 0 0 1-3.5-8.1c.6-3.3 2.7-2.2 6.8 3.7 2.4 3.3 4.7 6 5.2 6s2.3-.7 4-1.6l3-1.6.9 1.3.8 1.3-1 1.2a18.9 18.9 0 0 1-10 4.4h-2.4zm-86.6-.3-1.5-1v-3.3a14 14 0 0 0-2-6c-.9-1.5-1.6-3.4-1.6-4.1 0-2.3 4-6.7 6-6.7 1.1 0 2.3.7 2.6 1.5l.6 1.5-4.6 3.7.8 1.2.8 1.3 1.9-.5c1-.3 2.1 0 2.5.5.3.5-.4 2-1.6 3.3-2.2 2.3-2 4.5.3 4.5.6 0 2.3-1 3.7-2 5.6-4.4 6.9-.9 1.4 3.9-3.5 3.1-6.7 3.9-9.3 2.2zm112.7-2.8c-.8-1-1.8-3-2.1-4.4a25 25 0 0 0-3.6-6.3c-1.6-2-2.8-4.3-2.5-5 .6-1.6 7.6-5.6 9.8-5.6 3 0 6.7 2.4 7.2 4.6l.6 2.3-2.3 3.3-2.4 3.3v9l-1.5.3c-.9.1-2.3-.5-3.2-1.5zm3.3-12.8 1.2-1.6-1.1-1.1-1.2-1.2-1.6 1.6c-.9.9-1.3 2.1-1 2.7s1.1 1.1 1.6 1.1c.4 0 1.4-.7 2-1.5zm-92.7 7.1c-.8-2 1.2-4.6 3.5-4.6 1.8 0 4-1.8 4-3.3v-1l-5.4.8-5.4.6-1-1.8a24 24 0 0 1-1.6-5.4l-.7-3.6 2.7-2.2c1.5-1.1 4-2.1 5.6-2.1h2.9v1.8c0 1-.6 2.3-1.2 3a5 5 0 0 1-3.1 1.2H310l.7 3.5 12 1 .3 2.2c.3 2.3-1.9 7.3-4 9-.7.7-2.6 1.5-4 1.8l-2.8.7zm105.2-1.5c-.7-1.1.4-4.3 1.9-5.3a10 10 0 0 1 4.4-.8h3.3l-.4-1.2c-.3-.7-1.5-1.4-2.9-1.4l-4-.3-1.7-.1-1.9-5.5.8-2a9.3 9.3 0 0 1 2.3-3.4c.8-.7 2.5-1.1 3.8-1l2.3.4.3 1.8.4 1.7-2.6 1c-1.4.5-2.6 1.4-2.6 2v1l7.7-1.2 1.7 1.7a6 6 0 0 1 1.6 3.5c0 1-.4 3-1 4.5l-1 2.6-3.4 1.5c-4 1.6-8.2 1.9-9 .5zm-77.6-12.8v-3L332 305l.4-2.6.3-2.7L343 294l1.7 1.6 1.6 1.7-2.6 2.3c-1.5 1.3-3.4 2.3-4.2 2.3s-1.4.7-1.4 1.5v1.6l9.7-1.3.7 1.1c1.1 1.7-1.3 4.1-4 4.1h-2.4v1.8c0 1 .3 2.1.6 2.5.3.3 2.4-.1 4.6-1l4-1.6.9 1c.5.5.7 1.7.4 2.5-.4.8-1.6 2-2.8 2.6a28 28 0 0 1-6.5 1.7l-4.2.7zm167.3-26.8a37.7 37.7 0 0 1-3.2-8V280h3.8l3.6 6.5a35 35 0 0 1 3.6 8v1.5h-4.6zm-9.5-18.3c-1.5-1.5-2.7-3.2-2.7-3.7a33 33 0 0 0-2.8-6.2l-2.7-5.2 2.6-2.6 2.4 3c1.3 1.7 3.7 5.7 5.4 9l3.1 5.9-1.3 1.3-1.3 1.3zm-16.7-30a18 18 0 0 1-3-7V232h1.5c1.8 0 7.4 8.7 7.4 11.8v2.2h-1.4c-.9 0-2.9-2.1-4.5-4.7zm-9.7-19.5c-.5-.6-1.8-2.9-2.9-5l-1.9-3.7 1.1-1.1c.7-.6 1.7-.8 2.3-.4 1.7 1 5.3 9.3 4.6 10.5-.9 1.4-2.1 1.3-3.2-.2zm407.6-14c-3.6-.7-7.2-1.8-8-2.5l-1.2-1.3 1.9-1.5c1-.8 2.7-1.4 3.6-1.4h1.7l.5-3.2a81 81 0 0 0 0-12.3l-.5-9-1.5-1.2-1.5-1.2.6-1.6.6-1.6 4.8.2h5.8c.5-.2 3.3-.3 6.2-.2l5.3.1 2 2 2 2-.7 4.3-.6 4.4 3.7 4 3.6 4v3.2c0 1.7-.7 4.7-1.5 6.6l-1.4 3.5-6.6 4-6-.1c-3.3-.1-9-.7-12.8-1.3zm19.2-5.1c.6-.8 1.4-3 1.7-4.8l.5-3.3-3.4-2.3c-1.8-1.2-4.7-2.2-6.3-2.2s-3.5-.4-4-1l-1-1-.6 14 2.8.6c1.6.3 3.3.7 3.9 1 2.4.7 5.3.3 6.4-1zm-6.1-23 .3-3-1.7-1.3c-1-.7-2.6-1.3-3.6-1.3h-1.8l-.6 2.4a9 9 0 0 0 .5 4.6l1.2 2.1 5.4-.6zm-563.5-4.8a47 47 0 0 1-3.2-7.5l-1.8-5.1-3.5-.6c-2-.3-5.2 0-7.3.6l-3.7 1-1.2 3c-.7 1.6-2 4-3.1 5.3l-2 2.5h-2.3c-1.3 0-2.6-.6-2.8-1.3-.4-1 5.6-13.8 15.8-33.7l2.3-4.5h5.5l.7 1.5c.4.8 2.7 7.6 5 15a222 222 0 0 0 6.3 17.9l2 4.3-1 1.7c-.6.9-1.7 1.7-2.6 2l-1.6.2zm-8.2-23a10 10 0 0 0-1.5-3.2l-.8-1-1.6 1.4c-.8.7-1.5 2-1.5 3.1v1.9h6.1zm222.2 12.1c-1-1.5.3-2.5 1.6-1.2l1 1-1 .7c-.5.3-1.3.1-1.6-.5zM402.6 97.8a43 43 0 0 1-6.4-14c0-1 .5-1.8 1-1.8 2.7 0 5 2.4 8.4 8.4a28 28 0 0 1 3.6 9v2.6h-4zm-14.1-26.5a36.2 36.2 0 0 1-6.9-15c.3-.7 1.2-1.3 2-1.3 1 0 2.6 1.1 3.8 2.5a33 33 0 0 1 4.1 7l2 4.5-1.3 1.5c-1.3 1.6-1.7 1.7-3.7.8zm-14.6-27.7c-3.1-2.4-10.3-18.8-9.1-20.7l.5-1 2.7 2c1.5 1 4 4.6 5.7 7.8 1.6 3.2 3.3 6 3.8 6.4 1.2.8.5 6.2-.8 6.5-.5.2-1.8-.3-2.8-1zm-11.7-26.1c0-.6-1.3-1.8-3-2.7l-3-1.7-.6-2.8a8.4 8.4 0 0 0-1.9-3.8 15 15 0 0 1-3.5-6c0-.3 1.8-.5 4-.5h3.8l2.6 3 2.5 3 .6 4.4.7 4.4-1 1.8c-.6 1-1.1 1.4-1.2.9z"/>
</svg>
