<?xml version="1.0" encoding="utf-8"?>
<svg xmlns="http://www.w3.org/2000/svg" version="1.1" viewBox="0 0 1000 460">
	<title>Sketch of the view of the city of Toul and fort of Saint Michel, with a wall going off to the distance in the right, with a town on a hillside sloping down into the distance on the right and left.</title>
	<path d="m524 459-5-1-4-1v-1l3-1 6-4c5-4 7-4 16-9l8-4-1-2-1-1 2-2 4-1 1 6v5l-1-2-1-1-4 2-4 2-6 3-5 2v3l-1 2-2 1-3 3c0 2-1 2-2 1zm6-7v-1l-1 1v1l1-1zm308-3 2-5a657 657 0 0 0 11-18h1v2l-4 11-3 9c0 1-3 4-5 4h-2v-3zm-210 1 4-4 18-13a927 927 0 0 0 45-32c2 0 0 1-6 5l-15 12-10 9v4l-4-2-4 4-9 7-5 4-3 2-1 3-4 1h-6zm-138-5-1-1h1l7-4 6-4v-4l2-1h9v-2c0-2 2-3 3-2l3 1a105 105 0 0 0 21-10 403 403 0 0 0 29-15l16-7c2 0 3-1 3-2l2-3 2-2 6 3v4l1 4 1 1 3-1 5-1h3l-2 1-5 2h-3l-3 3-4 4 9-3 11-5 10-5 10-5 5-3 4-2c1 1-2 4-7 6l-5 2-3 1-8 5a208 208 0 0 1-23 11c-1 1-2 2-3 1h-2l-3 5-3 1-5 3-4 3c-2 0-8 2-9 4 0 1-14 5-15 4l2-4c1-5 5-9 7-9l11-5 5-3 7-3 5-1 5-2 2-1v-3l-2-4-1-2-4 2a428 428 0 0 1-31 15 812 812 0 0 0-67 35l-3-2zm76-19 2-2c-1-1-8 2-8 3s4 1 6-1zm10-5h-4l2 1 2-1zm2-4c4-2 5-3 3-3s-8 2-9 4l1 1 5-2zm13-7-1-1-1 1c-1 1 0 1 1 1l1-1zm-60 32c0-2 2-3 6-4l3-1 3-1h2l-1 1-10 5-3 1zm31-5-3-2 1-1h12l5-2 10-7 12-7 6-3-1-1v-2l4 5-1 1-6 2-9 4a96 96 0 0 1-25 15l-5-2zm239-2c-2-1-1-5 1-7l5-7c5-10 13-21 15-21l1 1-5 11a7429 7429 0 0 1-17 23zm-328-1v-5c1 0 2 4 1 5h-1zm-54-4c0-2 5-5 12-7a294 294 0 0 0 19-8 226 226 0 0 1 24-8c6-4 11-5 13-5l4-2 4-1 7-3a149 149 0 0 1 17-7l6-3 12-4c3-2 8-3 10-2h3v-2c0-2 2-2 3 0l3 1 1-1h-1l-1-2v-1l6-2a258 258 0 0 0 31-11l6-2c25-12 40-18 42-17l2 1v-3h2l2-1 2-1h1l3-1 3-2c1-1 4-3 7-2l5-2 9-4 6-3 7-2 16-7 13-5 9-4 8-3 3-1a472 472 0 0 1 43-17h2l-2 1a1372 1372 0 0 0-64 27l-14 6a717 717 0 0 1-90 37l-3 1a289 289 0 0 0-32 14l-8 3-2 1-3 1-5 2-5 2-7 3-18 6a750 750 0 0 1-78 29l-13 5-5 2-3 2-2 2-10 1zm488-2-1-3v-14l1-13-1-2-1-1 1-3c1-4 3-19 2-21l1-2a821 821 0 0 1 4-35l-2 3v-5l3-14c3-15 6-40 6-54v-7h4l1-9 5-5 1 3v2l3-4h-1l-1-1v-3l1-4 1-3c1-4 3-4 3-2v2h7l1 6c1 6 0 11-1 11l-2-3-1-4-1-1-4 2v7l-7 1-1 1 1 3 1 1-2 2-3 5v4l2 1c2 0 3 1 3 2l-2 1-2 1-1 11 1 1 1 2-1 2-3 7v5l4 4h-2l-2 2-1 9-1 7 1 1 4 1h2v1l-4 1-3 1v15l-2 1-1 3 1 1h2l-1 4h-4l1 2v16l1 17 1 3h-2c-2 1-2 4 0 4h2v2l-2 3-3 18c-2 10-3 14-5 14l-2-3zm17-169c-1-1-1 1-1 2l1 2 1-2-1-2zm18-21 1-3h-3l-1 1v5h3zm-80 190 1-3c1-1 3 2 2 3-1 2-3 2-3 0zm-183 0 4-4 5-4 4-4 12-7c2 0 1 2-1 4a183 183 0 0 1-19 13c-4 3-5 3-5 2zm-229-3c1-1 3-2 3 0l-2 2-1-2zm428-1-3-5v-2l1-1 9 6c0 2-2 4-4 4l-3-2zm-95-2 3-7 7-9 4-4 2 1-3 6c-1 3-5 7-8 10l-4 6-1-3zm-261 1 1-1v1l-1 1v-1zm336-8c-1-1 0-3 6-16l4-9-2-2-1-3c0-2 3-2 3 0l2 2 1-3 1-2h4l-1 3-1 5-4 7-5 10-3 6c-1 2-3 3-4 2zm-197-1 7-4 7-3 1 1-7 4-7 3-1-1zm-3-5 10-5 1 1-5 3-5 3-1-2zm48-3 3-3c1-1 2-1 1-2s2-2 4-4c5-4 8-6 8-3 0 1-13 14-15 14h-1zm-258-3 4-5 4-4h3l7-2 5-2 15-6 15-5 5-2h4l2-1 5-2a3720 3720 0 0 0 28-9l2-2 1-2h17l4-2 4-1 2-2 1-2 4-1h5c1 1 4 0 7-2l5-2 1-1 1-1h3l21-8 4-3-2-2-1-2 3-1h2v5l1 1-7 4a417 417 0 0 1-51 20l-16 7-9 4h-4l-4 1-4 2-8 3-7 3-6 1-3 2v-2l1-3-5 1c-5 1-15 4-25 9l-8 3-12 5-3 1-4 1-7 5v-1zm76-26v-2l-9 4 9-2zm4-3-1 1h1v-1zm24-8c1-1-1-1-3-1l-3 2v1l3-1 3-1zm-94 35 1-1 11-4a160 160 0 0 0 21-8l-3 3-2 1h2l4-1 2-1-1-2-1-1 5-2 9-2h3l1 1-2 2-6 4-10 4-6 2-3-2-7 2-10 4-5 2-3 1zm103-1 9-5 10-5h2l3-2c0-1 3-3 5-3l5-3 7-3 10-3c2-2 5-2 7-2h4l-1 1-3 1-8 2-6 3-8 3-10 4-3 2-1 2-4 1-8 4-6 3h-4zm53-3 3-1-1 2c-3 1-4 1-2-1zm75-2h2l-1 1-1-1zm11 0 12-11 5-4 3-2 6-4c2-3 5-4 5-4l14-11 6-4h2l-12 10a835 835 0 0 0-41 30zm-84-2 3-1h1l-1 1h-3zm-15-3 7-4 7-3 11-4c9-2 13-5 12-6l-7-1h-5l3-2 4-2 3 1-1-1v-1l6-3a1424 1424 0 0 0 90-44v-2l5 1 3-2 16-9 6-4 5-2c4 0 13-5 14-7l4-2 19-9c11-7 39-21 41-21s23-13 23-14l-1-7-1-6h-4v9c0 2-5 7-7 7l-3 1v1l-3-2-2 1-2 1 2 2-1 1a1408 1408 0 0 1-125 48c-5 1-12 3-20 7-9 5-12 6-14 6l-4 1a308 308 0 0 1-49 18h-2l4-4h3l4-2 5-2h5l1-2 5-2 7-2 4-2h3l2-2h-1c-2-2-6-2-6 0l-10 3-6 2-5 2h-3l-1 4-2-1h-3l1-2 2-1 7-4-2-1h-2v-4l-4 1-1-5-8 2v-1l4-2 4-1 3-3 2-4 2 3-1 1-1 2c0 1 3 1 5-1 1-2 5-3 5-1l2 1h2l-1 1-5 2-5 1-3 1-1 1 2 2 4 3 3 2 2-1-2-3-1-2 1-1h2l1 1v-3l6 1-1-2v-1l3-3 2 2 4-3h3l4-1 3-2 8-1 8-2 3-1v-2l-3 3-1-1v-1l2-1 2-1 1-1h2v-2l-3-1-2-2 2-2h2-6l-1 5h-2l-8 1-6 1 2-2 2-2 2 1 2 1 3-2-1-1-4-1-2-1h3l4-2h3l2 1 2-3-1-1h-3l-6 1-4-1v1l-4 1c-7 0-8 1-10 2h-2l-1-1 2-1v-1l-1-1-1 2-7 3-5 1h-4c-4-1-6-2-2-2h3v-2l1-2 2 1 2 2 1-1 12-3 3-1v-3l-2-2-6 1-10 2h-3v1l-1 1-7-2h3l4-1 12-2 10-1 1 1 3 4 2 1 13-3 5 3 2-1 5-1h2v-5l2 2c2 2 4 2 5 1l1-1 6 1 1-2-9-5-3 1-5 1-2 1v-1l13-4 3 1 4 3c3 2 9 2 10 1l1-1-3-1a9978 9978 0 0 0-10-4h-2l5-3 2 2 4 2 2 1 3-3 4 2-4 3 1 1h2l4-1 3-1c1-1-1-1-2-2-2 0-3-1-2-2v-1h-5v-2l3-1 2-1 3 5 2-1 4 1 2 1v-2l3-1h2l1-3 1-2 4-1 7-1h2l-1 3 6-1 7-1 7-2 7-1 1-1h-7v-1c1-2 5-2 8 0l2 1 3-2 11-2 3-1h4v-1l-1-4-1-2 2 2 4 3 3 1 1-1 8-3 6-2 6 2h1l4-1h2l1-2 1-3v-4l1-3 4-1 7 2v3l1 3 3 2 4 1 1 2-1 2c0 2-13 12-18 14l-5 2-3 2-3 1-6 3a421 421 0 0 0-42 22l-10 5-2 1-1 2-2-1h-3l-1 1 1 1 1 1-5 2-1 1v2l-2-1-4 2-6 4-3 2 1 3 1 1 3-2 3-2 4-3 6-3 7-4 17-9h1l-1 1-9 6a700 700 0 0 0-57 33l-16 10-19 11-14 8-7 5-4 3-6 3c-6 4-23 12-25 12h-1l-1-5-1-4-4 1a182 182 0 0 0-27 11l-4 1-5 2-3 1zm56-13a509 509 0 0 1 44-25l12-8 6-4v-4l-1-3h3v2l1 3 2 1 6-5 8-4 2-3 1-3h-4l-3 1v-2l-1-1a111 111 0 0 0-18 10c-1-1-37 18-37 19s1 2 3 2 2 1 2 2l-1 2-1 1-2-2-2-3-1 1-1 2v2l-6 2-8 3-3 2h-1l1-2 8-4 4-2 2-2-1-1c-1-1-10 2-17 6l-11 5-6 3c-1 2 2 3 6 2l7-2 4-1c2 0 0 2-6 4l-5 3 4 8 2-1 8-4zm29-26c1-2 11-7 11-6 1 1-1 2-6 5l-6 3 1-2zm13-7 4-2 4-2-8 5v-1zm28-16 3-1-1 1-3 2 1-2zm24-7 7-4-1-3c0-2-1-3-2-3l-5 2-8 4c-3 2-4 4-2 4h2v2l1 3 8-5zm0-6c1-2 2-2 3-2 0 1-3 4-5 4l2-2zm-94 3c-1-1-3-2-3 0l1 2 2-2zm23-1 1-2c-1-1-4 0-4 2l1 2 2-2zm-10-4 7-1 5-1 5-1-2 2-2 2c0 1 3 1 7-1l4-2h-2l-2-2c0-1 7-4 16-6l9-3 3-1h2l2-1 6 1v-2l1-1h8l1-2 1-1-1-1-6 1-9 2-14 4a98 98 0 0 1-15 5l-6 2c-3 0-5 1-5 2l-4 1h-6l-4 2h-2c-1 1 0 4 1 4l2-2zm36-15-2-1-1 1 1 1 2-1zm4-1 4-2 4-1v-1l-6 1-5 2c0 2 2 2 3 1zm-2-5c3 0 5-1 5-2h4c2 0 10-3 12-5l1-1-3-2-4 3c-4 2-8 4-12 4l-5 2-4 2 2 1 4-2zm15 0h-4l2 1 2-1zm29-1a940 940 0 0 1 20-10c-1 0-16 5-18 7l-4 1-3 1v1l1 2 4-2zm-24 0c1-2-1-2-3 0l-2 1h3l2-1zm-37-1h-4l2 1 2-1zm51-3h-3l-4 1-2 1 3 1 3-1 3-2zm-32 0 1-1c-1-2-4-2-5 0l-1 2h2l3-1zm-12-2c1-2 0-3-2-2l-1 2h3zm19 0 1-1h-2l-2 1 1 1 2-1zm6-1v-2c-2-1-4 0-4 2h4zm27 0-2-1-1 1 1 1 2-1zm-44-1c1-1 0-1-1-2h-2l-2 3h2l3-1zm52-2 10-2 6-1 1-1-1-1-11 1-10 2v2l1 2 4-2zm-42 0c1-2-2-2-5-1l-4 1 5 1 4-1zm4-1 1-1h-2l-1 1 1 1 1-1zm23-1v-1h-1l-1 2 1 1 1-2zm46-1 9-4 3-1 6-3 10-4 4-3h-7l2-2 5-3c3-1 4-2 2-2l-7 3-6 3h2l2 2-6 3-2 1-2 1-3 1c-1 1-2 2-3 1s-3 1-6 2l-8 3-6 3-4 2h4l11-3zm-60 1 1-2h-4l-2 1v1h5zm52-5 1-2-2 1-2 1c0 2 1 2 3 0zm-36 0h-2l1 1 1-1zm19-1 1-1c-1-2-2-2-3 0v2l2-1zm12-1-3-1-2 1 2 1 3-1zm17-2c3 0 5-1 5-2h1l10-5c-1-1-6 1-11 3l-11 3h-3l4-3-1-1h-3c-1 1 0 5 1 5l-1 1-2 2 3-1 8-2zm-38-3-2-1-1 1 2 1h2zm7 0-1-2c-2-1-1-2 0-2l2-1 1-1h-3l-4 1 1 1 1 3v2h1l2-1zm9-3 4-1c0-1-10 0-12 2l-1 1h3l6-2zm20 1v-1l-1 1v1l1-1zm19-6 2-1h-1l-8 1-7 2c-2 0-2 1-2 3l1 1 6-3 9-3zm19 2 4-2-1-1c-1 0-6 1-8 3l-1 2 6-2zm-42-1h-2l1 1 1-1zm52-4v-1l-2 1-2 2 1 1 2-1 1-2zm-6-2-1-1-1 1 1 1 1-1zm3-2h-2l1 1 1-1zm4-1-1-1-1 1 1 1 1-1zm6-1 1-1h-3v1l1 1 1-1zm-10-1 2-1c0-2-5-2-7 0l-2 2 3-1h4zm15-1-1-1-1 1 1 1 1-1zm21-1c1-2 0-3-2-3l-2 4c1 1 3 1 4-1zm-62 142c0-2 2-2 4 0l2 1h-3l-3-1zm-121-1v-2l2-2 4-3 8-6c8-6 11-9 17-12 4-3 7-2 3 1l-31 23c0 2-2 2-3 1zm-58-2 1-1v1h-1zm6-1 1-1c1 0 1 1-1 2l-1 1zm97 1 6-6 3-1-1 1c-1 3-6 7-7 7l-1-1zm11-9 3-3 6-4 2-2-1 4-5 3-5 2zm128-4c0-3 2-6 3-6s3-2 4-5 4-4 4-5h2l1 1v2l-3 3-2 4-8 8-1-2zm-362-4-1-1 3-1c3 1 7-1 7-2l-1-1c-1 1-4-1-3-2l5-1h4l3 4-5-1v1l-4 3-5 2-2 1zm2-5h2l-1 1-1-1zm17-2-1-3c1-2 4-2 4 0l-1 1-1 1 1 1 2 2h-1l-3-2zm-32-2 2-2-1-3h1l3-1 1-1-1 2-2 2h4l4-1 4-2 11-3c2 0 2 2 0 3l-7 3-20 5c-1 0-1-1 1-2zm39 1 1-1 1 1-1 1-1-1zm-1-3-2-1v-7l-2 1-2 2-1-1-1-2 6-1h7l6-1h4v-2l-2-3-2-3 2-2c1-2 5-2 5 0l-3 2-3 1 2 1 4 2c1 1 3 2 2 3l-5 2-9 2-4 1v4h8l1 1v2l-4-1h-7zm227 0 6-6 9-7 6-5 1 1 1 1-5 4-6 4-10 8h-2zm-203-2-2-1v-1c1-3 3-3 4 0l1 3-3-1zm6-1v-3l2-1 2 1 1-3 8-2-1-2v-2l5 3 2-2 4-1h3l2-2 3 4h-3l-4 1-5 2-6 2-5 1-1 3v2l-1-2-2-1-2 2-1 2-1-2zm316-5 2-6 2-4 1-3c1-1 1 0 2 1l2 2-3 6-5 7-1 1zm-383-2 1-2c1-1 3 0 3 2h-4zm6-1 4-2c5-2 6-4 4-5l-1-1c1 0 2 0 3 2l3 3-10 3-3 1zm63-1c0-2 5-4 7-3l1 1-1 1-4 1-3 1zm-44-1 1-1 1 1-1 1-1-1zm242 0c-1-2 4-6 11-9 7-4 18-11 25-18 2-3 5-4 5-4l-6 7-11 10-11 7-7 4-3 3-2 1zm-279-2v-2h5l9-2 6-1c0 2-12 5-13 4l-4 1-3 2v-2zm42 0 5-2h3v-3l-6 1c-4 0-7 1-7 2h-5l1-1 2-2 1-2h15l1 1 2 2 2 1c1 1-1 3-4 3l-7 1-5 1zm-218-1-1-3 1-1h8l2-3 4-2h2l-1 2-2 2h5v-4l-1-4h2l3 2 2 2h-2 4c4-2 12-3 22-3h9l1-1-1-3-6-3-4-2-7 1-11 1h-3l5-2 9-1h5v-2l-1-2-38 1v-2l1-1 11-2h6l-2 1h12l12-1 2-1 1 2 6-1 7-1 14-2 4-1 8-1 10-1 11-1a271 271 0 0 0 37-3c14-2 30-4 32-6l13-1h11l1-2 1-1h5l7 1h1l5-1h16l9-1 10-1h9l9-4 14 1 2-1 9-2 18-4 2-2v-8l3-3 6-4 4-1v-2c0-2 3-2 4 1l2 3 2-2 2-1 1 1c0 1 5 6 7 6l1-1 2-1h3v-4h2c2 0 6-4 4-5h-1c-3 3-4 1-1-3l1-2-3 1-2 1v-2c0-1 4-3 7-3l2 1-1 2v3h2l-1 5 5-2v2l-2 1-3 1-2 1 4 3-1 1-1 1-4-5-2 1-1 3c0 2-1 2-4 2l-2 1-2 1h-2l-7-7-4 3-4-4-2 5-2 6-1 2-2-1c-1-2-4-1-4 1v2l4-1-2 1-3 3-4 1c-7 3-16 5-19 5h-3v1l1 3 2 3 1 1-7 2-9 1-2 1v-1l4-2 3-1-3-2h-4l10-1v1c-1 1 0 1 2 1h2l-2-4-3-2-13 2v5l-1 1-1-3-2-3-8 1a10925 10925 0 0 1-54 6l-3 1 6 5h-2l-6-3-4-2h-9l-10 2v1l2 1 5 3 2 3 11-1a74 74 0 0 0 21-5l10-2 4-1h12l-1 1 1 2 1 1-2 1-1 3v2h8v-2l1-2-2-2h-3v-5l3-3 4 3 4 2 1-1-2-2-3-3 6 2 5 3 1-2 1-1 5 1 3 1-3 1-10 2-7 1-1 1v2l1 1 1 1 16-1 1-2 1-2 3 2 2 1 3 1h1l-5 1a299 299 0 0 1-34 4l-5 1c-5 2-8 3-9 2h-3c-5 2-11 4-16 4l-5 1h-3l-2-1v2l1 3 1 2 2-1h2l4 4-1 1h-4l-2-1-5 4v2l-1 2-1-3v-2h-5l5-3v-8h-1l-7 1-8 1-2 1v4h3c1 1 4 0 7-1l6-1c1 1-4 3-8 4l-9 2-7 2h-3v-3h-2l-2-1c0-2 3-2 5 0h6l1-3v-2l-10-1v-5h-3l-5 1-9 2-8 2-1 2 1 2h3l3-1 12-2c0 2-5 4-12 4l-11 2-2 2h-21l-3 2c-4 2-17 3-27 3h-6l-2-3-5 1-8 1-3 1-1 1-3-3-2 1-3 1-1 3c-1 1-27 4-41 3h-13l-1-1zm24-2-3-1-9 1h14-2zm11 0h-4l2 1 2-1zm16-2h-4l2 1 2-1zm-18-2 1-1h-3l-5 1-2 1h5l4-1zm69-3 7-1 6-2 5-1h2l2-5-2-2-1 1-20 5-10 3-6 2c-2 0-3 1-1 2s14 0 18-2zm-29-6 9-1h7l1-1-1-2-1-1 1-1 1-1-4-3-4-4-1-2-6 1a1345 1345 0 0 0-19 2l-9 1v2s3 3 7 4l7 4v1l2 2c1 2 7 1 10-1zm68 1h2v-5h-7l-9 2-2 2v2h3l13-1zm-44-3-2-1-1 1 1 1 2-1zm15-5 10-1v-2c0-3-3-6-5-6l-2-2-1-2-15 2-16 2c-2 1 2 3 5 4h2l4 7h4l14-2zm75-1 2-3v-1h-4l-7 2-3 3v2l5-1 7-2zm-41-3 15-3c1-1-1-3-3-5l-4-5-7 1a685 685 0 0 1-30 3l5 6 5 6 3-1 16-2zm58 1 8-1 1-2-1-3-1-1-5 1-9 2-4 1v2c0 2 1 3 2 3l9-2zm19-3 4-1 1-2 1-3-11 1-2 1v5h2l5-1zm21-4 2-3v-2l-6 1-7 1-2 3v3l5-1 8-2zm-61 0 4-2-4-4-3-4-11 1-11 2 4 5 4 4 7-1 10-1zm51-7h-2l1 1 1-1zm12 0c1-1-2-2-4-2l-1 2h5zm-35-10h-4l2 1 2-1zm116-22 2-1-1-3-3 1c-2 2-3 5-1 5l3-2zm-56 71 1-2h2v1l-3 1zm17 0 2-2c3-2 8-3 8-2l-2 2c-2 3-7 3-8 2zm311-1v-2l1 1-1 2v-1zm-351 0 2-3 3-2 3 2-3 2-4 2-1-1zm29-3-3-1h-3l4-4 1 1 2 2h2c-1-1 1-4 2-4l1 1-1 2-1 1-2 3-1 1-1-2zm24 1h2l-2 1-2-1zm-243-1 1-1 2 1-2 1-1-1zm205 0 6-1v1h-6zm-131-2v-1l5-1 1 2 6-1 11-2 7-1 3 1v-5h1l2 1 2 3 2 1-6 1c-7 2-9 2-23 3l-11 1zm169 1 6-3 2 1-3 1-3 1h-2zm-55-1 3-2h3v1l-2 1h-3l-1 1zm40-1 3-2 1 1-2 1-3 2h-2l3-2zm-56 0c-2-1-1-2 1-2h3v1c-1 1-3 2-4 1zm-43-1 2-1h2l-1 1-2 1-1-1zm71-1 2-2 2 3h-6l2-1zm-65-1h3-5zm24 0 2-1 3-1-1-5-4 1v-3h8v2l1 4 1 2-10 1zm47 0 4-3 4-1v-3l1-2 1 2 2 2 7-3c3-2 9-2 12-3h5l-2 3 2 3 4 3 8-2 10-5 5-3h2l2 1-2 2-1 1-4-1v2l-1 2h-4l-5 2-14 3h-2l-1-7h-3l-20 5-7 2-3 1v-1zm-26-1 2-1 1 1-2 1h-1zm83-1 1-1 2 1-2 1-1-1zm-308-3-1-2c1-1 1 0 2 2l1 3h-1l-1-3zm217 0-1-1 7-3 6 1v-1l-1-2h-1l3-3 3-3v2l-1 5v4l-1 1h-9l-4 1zm22 0v-1l6-1h7c1 1-2 2-8 3l-5 1zm215-1 2-2 5-3 9-7c10-6 24-17 24-19l1-2h2l2 1-1 1-4 4c-3 4-5 6-25 19l-11 8h-4zm-155-3v-3l1 1 2 2v2h-3zm-311-1-1-1 2-3 14 1 1 1v1l-6 1-7 1-2 1zm228 0-1-2 2-1 2-1 1-1 4 2h-5l-1 2c0 2-1 2-2 1zm25-1v-6l3 3c2 2 3 3 2 4s-4 1-5-1zm32-3c0-3 1-5 4-6h2l-1-3h1c2 0 3 3 2 5l-4 1h-2v5l-2 1zm15 2-1-4v-2h3v2l1 2 2 1 2-3 3 2-1 1-5 1-4 1v-1zm282-1 1-7 2-7c0-1 3-3 3-1l-1 9-2 8h-1l-2-2zm-318-1-1-3 3-1h3l1 2v1l-5 3zm55 0h2l-1 1-1-1zm258-1-2-6-1-4v-2l3 4c2 4 3 10 1 10l-1-2zm-302 0v-1l2-1 5-1h2l-1 1-2 1-4 1-1 1zm37-2 2-1h1c1 1 2 1 1 2l-3 1h-3zm-40-2 1-1 1 1-1 1-1-1zm43-3v-1l2-1c1 0 3-2 3-4l3-2 1 1-3 4-4 4-2-1zm-18-2-2-2 3 1 4 1 1 1c0 1-5 1-6-1zm382 0c-2-1-8-9-8-11l-4-6c-4-3-5-6-3-6 1 0 18 19 19 22l2 3h-2l-4-2zm-374 0 2-3 10-2-2 3-3 2h-7zm42-1h2l-2 1-2-1zm-58-1v-2l4-1 3-1v2l-2 1-3 1-1 1zm54 0-1-1v-2l-6-1-6 1v-2l1-2h-4l-5 1h-11c0-1 3-2 7-2l11-2 4-1 1 1-2 3 2 1c4 2 28 1 38-2 4-2 6-2 5 0l-4 1-4 2-1 1h-6l-11 1-6 1v1l-1 2-1-1zm-18-2c-1-2 0-3 2-2 1 0 2 1 1 2h-3zm-26-1 1-1 1 1-1 1-1-1zm4-2-1-1-3 1v-2h5l1 2c0 2-2 2-2 0zm350 0 1-1 1 1 1 1h-2l-1-1zm8-1 1-1 2 3h-5zm-314-3 3-1 3-1c1-2 3-1 3 1v2h-8l-3 1 2-2zm-12-1 2-1 4-1 1-1-2 2c-2 2-5 2-5 1zm-34-3-1-2 3-1h2l-1 3h2c2 0 4-2 5-5 1-2 3-1 3 1v2h7l1-4h4l-1 1v2h1c2 0 2 2 0 2h-3l-8 1-10 2-4-2zm55-1-3-2h3l2 1 1 1 5-2v1l-2 2-3 1-3-2zm-11 1 2-1h3l-1 1-2 1-2-1zm211-5v-6l4-5 6-4c2 0 2 2-2 7l-3 8v2h-2l-3-2zm36 0-1-1 5-20h1l2 1-5 20-1 2zm-721-2-1-7v-7l6-7 9-8 9-5 6-3h13v4h-5l-8 3-4 1c-1 0-3 0-5 2-5 3-13 11-14 14l-1 2 4 3-4 4-5 4zm785-7-7-9-5-7-8-11c1-1 6 3 10 8 15 20 17 24 15 24l-5-5zm-434 2v-1l-7 1v-4l3-2 4-2 4-1h3l1-3c1-2 6-5 9-5h2l-3 2-1 6v6l-5 4v-4l2-3v-1h-3l-5 1-2 2 1 5h-1l-2-1zm13-11-1-1-1 1 1 1 1-1zm-251 3-14-14h-2l2-2 3 2c4 2 5 3 10 9l6 5 2 1v1c-1 2-4 2-7-2zm260-1c0-2 2-5 4-4l-3 7-1-3zm128 2h2l-1 1-1-1zm-111-2v-3c1-2 5-4 8-3l2 1 2-3 3-3 2-2 1-2 7-2 1 2 3 2 2 1v2h-2l-4-2-1-2-7 2-2 5-3 5h-1l-3-1-2-1v2l-2 3-3 1-1-2zm118 1h2-2zm4-4 1-1 1 1-1 1-1-1zm-85-3-1-1 2-6 3-1c2-1 5-2 6-4l2-2h2l2 2v2h-3l-2 1-4 3c-2 1-4 3-4 5l-1 3-2-2zm80 1-4-1-4-2c0-1 8-8 10-8l1 1 1 2 4-3 7-3h2l-1 1-2 1-4 1-2 1 2 2v2l-2 1-3 1v2l4-2 1 2 1 2h-11zm-130-5 1-3-4-2v-9h-3l2-3 2-2 5 1 6 2c0 1-3 2-6 1l-5-1v2l1 4 1 4 2 1 4-4c4-3 8-4 8-2v1l-6 2-1 2-2 3-2 3-2 3h-1zm-27 0 1-4 6-4 5-2 1 1 3 1 3 2 1 2c0 1-4 1-6-1l-3-1c-1 0-3 1-5 4l-5 4-1-2zm189-1c0-1 5-7 7-6h1l-2 3-4 4-2 1zm-11 0 2-4 4-3 1 1-2 3-4 4-1-1zm-334-4c-3-2-4-3-2-3l1-3v-2l-5-5 2-2 1 2 3 5 2 5 1-1 1-2-2-3-1-4 4-1h5l3-4 6 1h1c1-1 6-1 7 1l1 1h-3l-5 1v1l-5-3-2 2-4 2-4 1 1 3 2 5 1 2-2 2-3 2-4-3zm253 1-1-5v-5l-2 1h-5l-2-1v-1l3-1c3 0 4-2 2-3-2 0 0-2 3-3l3-1-2-1 1-1 7-3 6-1 2 2-2 3c-1 3-8 9-10 9h-1l-1 6 1 2 2 3-1 1-3-1zm9-18c0-2-3-2-4 0l-2 2 3-1 3-1zm64 18 3-1-1 2c-3 1-4 1-2-1zm48-3 1-2 3-3c1-2 3-2 3-2l4 3-2 3-2 2h-2l-3 1c-1 1-2 1-2-2zm-98-1 2-4 3-4 3-3h1l-2 2-3 7-3 4-1 1zm5 2 4-7 5-6v-4l2-1 6-4 4-3-4 5-4 4c1 1 2 0 3-1l9-4c2 0 1 2-3 4l-7 5-4 3c-1 0-4 2-6 5l-5 4zm-54-2-2-2 2-4 4-3 3-2c1-3 4-5 6-5l2 1v2h-5v6h-2l-2 2-2 1h-2v1l1 2 2 2c0 1-4 1-5-1zm-252-2-2-2v-2c0-2 1-3 2-3l1-1-1 1v4l1 3h2l2-2h1l-1 3-2 2-3-3zm369 2v-1l5-5 6-5v4l3-1 4-5c2-4 4-6 4-3l-2 3-1 3 2 1h3l2-3 3-4h-2l-2-1c0-1 2-2 5-2l6-1 2-3 3-3c1 0 1 2-1 4l-1 2 2 1h2l2-4c1-3 3-5 4-5l4-2h3l-4 10h-1v-7c-1-1-4 3-4 4l-2 4-1 3h-13l-2 4-4 5-2 1-5-3-2 1-3 3-4 2-5 2-3 2zm-452-3-6-2h-8a717 717 0 0 0-21-1l9-3 6-2 3-1 2 1 8 2c8 2 16 6 16 8l-1 1-8-3zm505 1 2-6 3-5 2 3-2 4-4 5c-1 1-1 0-1-1zm-404-1c-1-1 0-4 1-3l1 2 1 3h-1l-2-2zm215 0-1-1-5 1v-1l2-2h3l2 1 5 2 2 1-4 1h-4zm103-1-3-4c1 0 3 0 5 2l3 2 4-2 5 2h-3l-4 2-2 1-5-3zm-274 0 1-1 2-3 1-2h1l1 4v4h-6zm237 1c-2-1-1-5 1-7l3-2-1-5v-5l1-4 1-4-5-3h-12a647 647 0 0 0-93-3h-11l-9-3h-24c-25 0-39-1-40-2 0-1 1-2 4-2l3-1 12-10h5v-2l-2-2-4-1-4-1h-3l-3 5 1 6-1-1-2-2-2-3-1-1-1 3-1 4-2-2v-2l-3 2 1 1c2 2 1 3-1 2l-2-2-9 3v2l-2 4-2 1v2l1 1h14l20 1 24 1 30 2 30 1 2-1 1 2v2l-17-1a1153 1153 0 0 0-62-4l-39-1h-9v-2l2-3 2-3c0-1 1-3 13-15l5-7-1-4v-1h-3l-5 3c-1 1-2 2-3 1h-1l2-6h2l8-3 7-3 3-1c1-2 6-2 10 0l3 1 1-1 2-1 3-2 1-4 1-3 8-2 1 2c1 2 0 3-1 3l-3-1-2-1v4l7-1 2-3 6-5 4-3 3 2c2 0 3 1 3 2l-5 1-5 1-3 4-4 9-2 4-1-5v-4h-6l-2 1v4l1 3 5 6h3l3 1-1 3-1 3-1-1-1-2-1-2-1 1-1 2-1-2-1-3c-2 0-7 3-7 5v2h4l-1 4h4l-2 2-2 2 1 2 7 4 4 2 6-2 1 1 3 1 3 1 6 2 4 1v-4h8v1l-3 1-2 1 1 1a601 601 0 0 0 32 1l4 1 4-4-1-1-4-1h-4l1-3 1-3 4-2c1-2 3-2 4-2l-4 4-2 2v1l3 1 4 2v2l-1 2-2 2h7l6-1 3-2c7-7 13-11 14-11 3 1 2 3-3 6l-8 5-3 2 2 1 9-4 7-4c2 0-3 4-5 5l-2 2v1l7-1v1l4 1h7l4 1 6-6 8-5-5 5-5 5h5l8-8v2l-2 2-1 2v1l4 2h6v-8h1l1 3 1 4 2 1 5 2h2l-1-2c-2-3 0-5 1-2l4 4 2 3-1 5-1 6 1 1 1 1 1-2 2-2v-5l-1-6-1-3c1-1 3 1 4 6l1 7 1 2-2 1h-2l-2 6-5 7-1 3c0 3-1 3-2 2zm-143-38v-1l-5-2c-8-1-13-2-13-4l-1-1-3 2c-3 1-5 2-6 1h-2l4-2 4-2-2-1-7 4-5 5 3 1h33zm-52-12 2-3h-1l-3 2-2 3c0 1 1 1 4-2zm10-6 4-2 3-1-3-3-2-2v-3l-2-3-1-2-2 2-1 3 1 2 1 1-2 3 1 1c1 2 1 4-1 4l-1 1v2l2-2 3-1zm18-5 2-5c0-2 2-3 2-3l2-1-4-3h-2l-3 1v2h1l2 1-2 1h-1l1 7h-1l-3-3-1-2v-8h-6v3l1 6 1 3 4 2 5 2 2-3zm-255 59 1-1 1 1-1 1-1-1zm345-2 1-3 3-2 4-2 2-2h8v-4h3l5 1h1l-3 2 3 2 4 2v1l-2-1c-3-1-4 1-1 3l2 1s-3 0-5-2l-5-2-3 1-8 1h-5v1l1 1h2l-2 2-3 2-2-2zm-178-1 2-1 2-1-1 2c0 2-3 2-3 0zm6 1c0-2 2-3 5-3l3-1 2-1h3v1c0 2-4 3-7 3l-4 1h-2zm350 0h2l-1 1-1-1zm19 0 1-3 3-2 1 1-1 2-3 3-1-1zm-403-2-2-2-4 1-2-2-2-4v-1l4 2 2 2 5-1v4l1 2-2-1zm348 0 4-6 4-3h2l3 1 3 1v-2l-2-1-1-2 2-3v-2h-2l-2 2v-2l1-2 2-2v-2l-4 1v-1l3-2 3-1 2 2-1 1-1 1 1 3v7h1l2 1-3 4-3 3-1-1-3-1-6 4-4 4zm-39-1a527 527 0 0 0 0 2h-2zm31-1c1-1 9-7 10-6l-1 2-4 3c-3 3-6 4-5 1zm-477 0 1-2 1 1v1h-2zm537-1 2-4 2 1-2 3-2 2v-2zm-249 0h-2l-2-4-1-6 2-2 1-1-1 4v4h9l1 2-1 3h-6zm174 0-2-1v-1h4l3 1c0 1-2 2-5 1zm-350-2c1-1 7-2 8 0l1 1h-9v-1zm226 1v-1l3-2 6-1 1 1-4 2-5 2-1-1zm-101-2-1-1 6-3 10 1v2l-10-1-1 2-2 2-2-2zm25-1 1-3 1 1 1 2 1-2 1-2h1v4h-2l-2 2-1 1-1-3zm-266-3-1-16v-11h1l2 2 1 2v14l1 14h-3zm275 4v-4c1 0 2 1 1 3l-1 1zm-123-1h2l-1 1-1-1zm40-1-1-1-2 1-1 1-3-2 2-2 2-1-2-3-1 2-2 2-1-2v-2l-6-2v1c0 2-2 3-3 2l2-3c2-2 2-4-1-4h-1v4l-2-1v-14h-21v1l-2 3-1 1-1-1 1-3 1-3v-2l-1 1-3 4-2 3-1-2v-4l1-3 4 1 14 1 11 1v-2l1-3 2-2-2-2-1-1v-4h2l5-4 5-4 2-2c-1-2 0-2 2-1l2 2v6l-3 3v-3l-1-2-1 1-4 4-3 3 1 3 2 6 1 4-2 3-2 3-1-1 1-3c1-2 0-6-1-6l-1 1-1 2c-1 2-2 5-1 8 1 2 4 2 4 0h1v6l6 1 2 2 2 2 2-4-3-2 1-2 3-1 2 8v5c1 1 0 4-1 4l-1-2zm-16-38-1-1v4l1-1v-2zm42 38-4-3-13-3-2-1 3-3 4 1 5 2 4 2h4l1 5h6v-4l7-1 2 2h-5c-3 0-2 2 0 2l3 1v1h-13l-2-1zm336 1v-10h1c1 0 3 7 2 9 0 2-2 2-3 1zm52 0-5-1-1-1h9c9 0 14 0 13 2h-16zm63 0-5-1 1-1v-1h25l11 1 1 1v1h-33zm-543-2-2-2h-8l-2-6-8 2-1-1-3-1-4-1 3-4 2-3h-1l-3 1h-3l-4 1c-2 2-4 1-2-1v-2c-1-1 1-6 2-5v4l5 2 6-5h9v5h-3c-3 0-5 1-5 3l2 3 5 1h4l3 3 1 2 6-1 2 2c3 4 2 6-1 3zm136 0 1-1 1 1-1 2-1-2zm175 1 1-2 2-2-1-4 3-2 6-2 2-1-7 6h6l-4 3-5 3c-2 2-3 2-3 1zm143 0c-2-2-1-2 3-2 6 0 13 1 12 2h-15zm-468-1 1-1v1h-1zm190 0v-7l1 3 1 3-1 1h-1zm161 0c-2-1 4-5 7-5l2 1-2 1-1 2-1 2h-2l-3-1zm192 0 2-1 2 1 1 1h-3l-2-1zm-347-1v-4l2 2 1 2h-3zm174 0 3-4 2-3 1 1-2 4c-3 3-4 3-4 2zm36-1 2-2 2-3-1-1-3 1-3 2v-2l1-2 1-7c0-6-1-8-3-5l-1 2-3-1 1-2v-1l-2 1-2 1-1-2-1-1-4 4-3 4-4-5-4-4-2 1v2h3v2l-1 4v2l-1-2c-1-2-2-3-7-3h-2l1-5v-5l-3 3-1 6-1 6-1 1-5-1-1-3c0-2-1-3-2-3l-2 5v1h-2l-2 2-2 2c-3 2-1 3 2 1l4-1h1l-4 5h-6l-1-3-1-3 3-1h2c1-1-1-2-2-2l-4-2h2l3-1h1l-1-3v-3c1-1 8-1 10 1l2 1 2-1 4-4 2-3h10l1-3 2-2 1 4 1 3 4 2h2l-1 1-1 2v2l2-2 3-1 3-8 4-3 4-3v3l1 2 2-2 1-3 5 2v-1l1-1 4 2 2-2-2-3c-2-1-4-3-4-5l-2-2c-1 1-10-3-11-4-2-2 0-3 3-2l3 2 1-1 1-3-1-2h-3c-6-1-10-6-10-14l-1-5h1l2 2 1 3h1l-1 5h4v4h5l1 2 1 2 2-2 2-1c1 1 0 3-1 4-2 3-2 6 0 6s7 5 7 8l3 3 1 3v2l1-1 2-2c1-3 2-4 3-2l-2 6-3 6v1l4-5 5-4 1 1-2 4-2 3 1 1 3-3c1-3 6-7 8-7h2v-8c1-2-2-3-3-1l-3 2c-2 0-1-3 0-4l2-2 9 2-1-3-1-3-1-1-4 3-2-2 1-1 2-2 7 1 4 1 1 4-3 3-5 4h-2l3 3 2-2c2-2 6-2 8 0 1 2 6 5 8 5h1v3l-2 4-9 13-2 2c-1 0 2-7 5-11l2-4v-2l-2 2-2 3-4 5-3 4v-5l-2 2-3 3-2 2-1 3-1-1c-2 0-2-1-1-6l1-3-8 1-5-1c-6-2-7-2-11-1l-3 1-2 2-1 2 1 1v3c0 3 1 7 3 6l1 1c0 1-4 8-6 8l-1-1zm-43-15 1-1-1-2h-2c-1 1-2 5 0 5l2-2zm83-11v-2l-2 2-2 4-1 3 2-3 3-4zm-73 4c0-2-2-1-2 1h1l1-1zm80-7v-2l-2 2-2 4-1 3 2-3 3-4zm-17 2 2-3v-1l-3 2c-3 3-3 5-1 5l2-3zm5 1v-1h-1l-1 2 1 1 1-2zm-42-2v-1l-1 1v1l1-1zm6 0v-1l-1 1v1l1-1zm40-6 3-4-2-2-3 6c-3 8-3 8 2 0zm5 1v-1l-2 2-1 2v1l1-1 2-3zm6-1 1-1h-1l-1 1-1 2 2-2zm-2-4-1-1c-2 0-2 3-1 3l2-2zm-425 37 3-5c1-1 6 0 6 1l-2 1h-2l-1 4h-2l-2-1zm143-3v-3h1l1 4-1 3-1-4zm8 2 1-2v3l-1-1zm5-1c0-2 0-3 1-2v3c-1 1-1 1-1-1zm229 1 2-3 2-2v2l-2 3-2 1zm70 0v-1h3l5-2 1-2 3 1 9 1 5 1-19 2-7 1zm-353-1h-6v-2c1-1 5-2 11-1l4 1v1l-2 1h-7zm174 0v-1l2-1c3-1 5 0 4 2h-6zm163 0v-2a52 52 0 0 1 14 0l-9 2-4 1zm-419-1 2-1s2 0 1 1l-2 1-1-1zm109-1v-3l2-2v3l-1 4-1-2zm5 0v-1h1v2c-1 1-1 1-1-1zm-52 0-4-2-3-1-2 1v-2l1-1c3-1 6 0 7 2l3 2h5l3 1h-10zm40-1 1-2v3l-1-1zm3-1 1-2 1 2-1 2-1 1zm215 2 1-3c2-2 2-4 1-3-2 1-1-2 0-3l2-1 1 3 1 2-3 3c-2 3-3 3-3 2zm-93-2-2-4v-1h10l4 4-1 1-6 1-5 1zm8-2 1-1h-7v1l3 1 3-1zm174 2-1-2-2 1-1 2-2-1-3-1c0-1 4-3 7-3h2v-3c-1-3 1-8 4-11l2-4 2-2 2-1 1 2 2 1h3v-7l9-3h1c3 1 3 5 3 16v7l-2 1-8 1h-6v2h12a718 718 0 0 1 5 3l-26 3-3 1-1-2zm10-6 2-4-3 1-5 2-2-1v5h7zm-5-7 3-4 1-2-7 8v2l1-1 2-3zm14 0-1 1h1v-1zm3-5 2 1 3-1-1-1-5-2h-3l-1 2v3l3-3zm5-7c0-2-2-3-4-2l-1 1 1 1c1 2 4 2 4 0zm53 25 4-2 3-1v-3h2l2 1c0 2-7 7-9 7h-2zm-526-1v-2l3-1h5l3 1 1-2 3-1 4 1 2 2 4-4 8 1 2-2-2-2h1l2 2 2 2 1-1c2-2 5-2 5 0l-2 1-2 1-1 2 3 2-2-1-3-1-1-2-2 2-1 2-6-3-2 1-4 2h-3l-1-1-2-2-3 2-2 2-1-1c-1-2-4-2-5 0l-2 2h-2zm134 0 1-1 1 1-1 1-1-1zm252 0-1-2v-1l3 1c2 0 3 1 3 2h-5zm-491-1v-2l7-6v-6l-4 1v-1l1-2v-2l-4 1-2 2 2-2 1-3 1-5 2-3-1-6c0-4-1-7-2-7l-1-1v-6l2-5 2 1 1 2-2 2-1 2 1 1 1 3v2h4v1l-1 2c-2 1-1 6 0 8l2 2 6-3h5l5 1c0 1 5 2 6 1l-1-1-2-1h4l1 2 1 2v-6l-10-1-9-2-5 5-2-2 4-4h4l3-1 1-1 1 1v2l10-1 2 1 2 1 2-4 2-3h2l2 2 3 3h2l1 1 2-3 2-5 1-2c1-1 4 1 4 3l-2 3-1 3h3c-1 1 1 3 2 4l4 3 2-1v4l-1 3h9v1l-3 2c-2 1-6 0-7-2h-2l-1 1 1 5-1 1c-2 1-1 3 2 3l4-1-1-2-2-2 20 2 1-2-4-2v-3l-2-1-2-2v-1h-4l-1-2c0-2 0-4 2-4l1 2v2l3 1 4 4c2 4 6 6 9 7l3 1 3-5h9v-7h3l7-1h4l-1-1v-1l2-1h3l4-1h3c1 0 2 1 2 3l-1 2-2-2-1-1-3 3-3 5v2l-5-3-8 1v4h3l-1 1v3l-2 8h-1l1-4v-3l-2-2-2-2h-5l-2-1h-1v2l1 2-3 3-4-1-7-1h-8l-6-1-1 1-1 1v6l-2-1c-1-3-4-3-3-1v2l-2-1-2-3-6-1h-4l-2-2c-2-1-1-3 1-3h2l-1 4h1l4-1 3-1v-4l1-5 2-3-2-2-6-4-3-1h-9v-2c0-3-2-1-3 3l-1 4 10 1h9v2h-15l-5 1v1l2 2 2 3 1 3h3l-1 1v3l-2 1-2-2-1-4-1-3-1 2-4 2-2 2v2l-1-1h-2v-7l-1-1-7-1h-5l1-1 7-1h6v-1l-1-2h-5l-9-1-4 1v4l1 10 1 6-2 2-1 2c0 3-6 4-8 2zm35-22-1-2-1 1v1l-2-1-2-1v3l1 3 5-2v-2zm-29 1 1-4v-2l-1 1c-2 0-3 7-1 7l1-2zm414 21 3-4 2-2h5l-2 1-3 2-3 3-2 1zm178 0h-4v-2l-1-2 2-1h9l2 1-1 2v3l-2-1h-5zm4-2-1-2-2 2-2 1h6l-1-1zm-654-1-3-3 1-4 4-9 1-5v-1h4v9l-3 3-3 5 2 2 2 4-1 2-4-3zm764 2h-6v-2l-4-1h-2v3l-7-1h-10l1-3-2-1-2-1c0-1 4-2 5 0l2 1 7-1 24-1h17l3 1 3 3v1h-3l-5 1-2 2-7-1h-12zm-548-2c-1-3 0-5 2-7l3-2 1-2v-1h-4v-3l3-7 1-3 4-2 3-1 1 1c0 1-1 2-3 2-3 1-4 4-2 5s6-1 6-3l1-2 1-5v-3l4-1 11-1c1 1 0 3-1 6l-2 6-1-1-1-3 1-3 1-1h-1l-3 1 1 5 1 5-2 2-1-2-1-6v-3h-1l-2 1-1 4-1 4v2l-1 1 1 1 3-1c3-2 4 0 1 3l-3 3-4-2 1-3v-3l-2 1-1 1-4-2-1 1v4l1 3h2l6 1h3l2 2c1 2 1 5-1 5l-3-2-2-3h-10l-1 1-1 3c0 4 0 6-2 6l-2-2zm178 1v-1h15v2h-15zm282-1-3-2-4 1-6 1h-2v-2l10-2h4l1-3 1-3h-8l-13-1-4-1h1l4-1 3-1c1-1 0-2-1-3l-2-4-2-3-1-1v-3l-2-5-2-3 1-2v-3h-2l-3-2c-1-2 1-6 4-8l3-1 2 2-3 2-2 3v2h5l-1 6h1l1-1 2-1h2v2l-2 3-2 1 1 4v3h4l3 2-3 2h-1v2h7l2-3 3-3c1 0 2-1 2-3v-10h5l-1 2v3l1 2 5 8c-1 1-2 0-3-1l-4-2v2l1 4 2 4 2 4 1 3-2 1-2 4 1 3 2 3c0 1-4 1-6-1zm2-15-3-5-2-2-3 2-1 2h-7v4h2l14 1v-2zm28 16h-7l-1-2-1-2 3-4h14l1 1 2 2c2 0 7 4 6 5h-17zm-1-5h-2l1 1 1-1zm-553 2-2-3 1-2 3-3 1-2h4l-3 4-3 3 1 2 1 2h-1l-2-1zm-55 0-1-2v-2l1 2v2zm538-1v-11l-1-10h2l10 5-1 3-2 1h2l1 2h-6l1-3v-3h-4v3l1 5 1 1-1 4c0 4-2 6-3 3zm-164-2-1-4 1-2-3-4-1 2v2c0 3-2 2-4-1l-1-2 1-2v-4l1-3-2-2c-2-2-7-9-6-10l3-1h3l2 2 2 5v2l-6-8v4l2 2 4 3 5 3 2 3 2-2 5-3 2-2 2 1 3 3v2l-8-1-3 3-4 5 1 1 4-2 2-3 10-1 1 1v1h-8l-3 3-3 4v2l2-1c3 0 2 2-2 4l-4 2zm-2-16-2-1v2l1 2 2-2zm-301 11 2-7 1-1v2l-1 7-1 5h-1zm-116 4c0-2 2-2 2-1l-1 1-1 1zm588 0 1-1 2-2 1-1 3 1 2 1-1 1c0 2-8 2-8 1zm-179-3v-3l2 5c-1 1-1-1-2-2zm-46 0 6-4 4-4-2-1-1-3-3-4-5-4-3-1v-2c0-2 3-7 4-6v3l-2 3h2l10 11 2 3c0 3-6 8-10 9l-3 1 1-1zm-7-2 3-2 2-1v1c1 1-1 2-3 3l-2 1zm-419 0c-2-1 0-2 3-2s4 1 1 2h-4zm761 0-2-2 1-1 11 2-1 1h-9zm-299-3v-1l-8-2-2-3-1-5 1-4 7-2-3 3c-2 1-2 3-2 4 0 2 1 2 2 0l2-1h1l-2 2-1 3 2 1h6v5l1 2h-1l-2-2zm-274-1c-1-1 0-2 1-3l2-3 2 2-3 2-2 2zm15-1-1-2 1 1c2 1 2 3 1 3l-1-2zm-163-1-1-2-14 1v-1c0-2 3-2 8-2h6l1-2 1-5v-5l-2-2-1-2-1-7-1-10c-1-3-2 0-2 5v4l-3 1-4 1-2-1-2 5-5-1v-8h1l1 3 1 3 2-2 1-1 4 1v-2l-2-8v-7l2-2h2v-5c0-5 1-7 4-7h1v5l-1 6 1 2c1 2 2 2 3 2v-8l1-4h3l-1-5 1-5 3 1 2 1v1l-1 3-1 2 1 1 1 5v20l1 16-3 8-3 8-1 1zm6-18-1-4-1-3 2-9-1-2-3-5v-2l2-2v-3c-1-4-3-6-3-3l-2 9v8h3l-1 14 2 3 2 2 1-3zm-6-14-1 1h1v-1zm-6-6 1-5-1-1h-2l-1 4c-1 4-1 7 1 7l2-5zm-4-4-1-2-1 2v3l1 2 1-2v-3zm16 1-1-1-1 2v2l1-1 1-2zm-12-12-1-1-1 1v2l1-1 1-1zm80 53c-2-1-1-2 0-2l2 1c0 2-1 2-2 1zm82-1 2-3c-1-1 1-4 3-3l1 1-3 5-6 1zm-350-1 1-5v-3l2-1 3-3 1-2h2l3-2 1-2-2 1h-3l3-3h10l2 1 6-9-2-1-2-1h3l3 2 1 2h-1l-1 1 1 3 1 5-1 1-1 1-1-3-2-3-1 1-1 3 2 4 1 2-1-1h-6v-3l-1-3h-5v10l-1 5-6 1-2-2-2-2-1 2v3l-2 2-1 1zm10-10-1-1-1 2v2l1-1 1-2zm251 11 1-1 1 1-1 1-1-1zm-119-2-3-3-1-2h-8l-3 2-2 3-4-3-5 3h-12v-7l2 1 6 1c7 0 14-2 15-3l1-1 17 5 2 3 1 2h-2l-4-1zm450-3 1-5 1-2-6-5v-11h3v9l6 7-1 3c-1 5-1 6-3 6h-1zm-502-3-1-3h8v5l-5 1zm601 1-1-5v-3h3v10l-2-2zm-56-3c-2-3-3-6-1-5l1 1v-4l-3 2-1-3c-1-2-6-5-8-5l-6-4-6-4h-2v-7l1-6 3-3 6-3 3-1v-1l2-4-1 5-1 4h-5l-2 10 2 2h10l1 2 2 1-2 2-2-2c-3-2-8-2-9 0 0 1 4 4 7 4h3v1c0 2 6 8 8 8h1v-7l3-3c4-3 10-7 11-6l2 1-1 2v2h1l2-2 1-2h-1c-2 0-1-2 1-3l6-3 3-3-1-2v-1h1c2 0 4 3 3 5 0 2-5 5-7 6l-2 1v7l-1-2v-2h-3l1 3-1 3-3-1-1-2-3 2 1 5-3 3-4 3-3 3-1 4 1 2 3-3 3-3 2 1c0 1-6 6-8 6l-3-4zm6-9v-1l-1 1v1l1-1zm1-5 5-5 2-3h-2c-3 0-6 2-6 5l-2 3c-1 1-2 3 0 3l3-3zm-29-13v-3l-1-2-1 3v4h3zm-255 29c0-1 1-3 5-5l3-1h8l-3 1-5 2h-2l-1 4h-2l-3-1zm168-1-4-5-2-2v-6c-1-3 0-7 1-9l1-3h3l5 1c3 2 5 5 4 6l-4-2-5-3-1 2-1 4-1 1 1 10h2l3 1v1l4-2 3-1c2 0 0 4-2 6l-3 3-4-2zm-49-1v-5l-1-4 2-3 10-14 2-2v3l2 3 1 2-3 3-2-2-1-1-2 2-1 3c-2 0-5 5-5 7s3 2 4 0l2-1 3-1h3l-3 9-2-2-1-1-2 3c-2 3-5 4-6 1zm29 0-1-1 2-1h4l1 1-1 1-3 2-2-2zm-406 0 1-1 1 1-1 1-1-1zm441-1-1-2v-1l5 1 1-2c1-1 5-4 6-3s-1 4-4 6l-5 3-2-2zm-44-1-1-3 4-8-2-5 1-3 2-4v-2l5-4 5-3c2 1 1 4-3 6l-3 2v2l-2 3-1 2v5c0 6-1 13-3 13l-2-1zm371-4 1-8 2-10v-9l1-1 2-6 1-3h-1l-2 4-1 5h-3v-5l2-6 2-4v-2h-3l-1 3c-1 1-2 3-3 2-2 0-1-4 1-6l2-4-2-1h-1v-2l1-4 2-2-2-2-1-2-1-3-1-3 1-2-2-3-2-7 1-5 1-3-3-2V85l-1-4-1 2-1 2h-2v-4l-2-16-1-4-2-3h-1v16l1 4 2 5-1 2-2 2-2 3v4l2 3 2 3-2 4-2 3-1 5-2 10-2 6 4 5-2 5-1 15 2 5 1 4h3l2 1c1 1-1 5-3 5l-2 2-1 4c0 1 2 1 3-1l2-1v3l-1 2h-13l2-2 2-3c0-1 1-4 3-5l3-4-2-2-4-3-1-2 2-7-3-4 1-3 1-3c1-1 1-4-1-8l-1-3 3-6 1-9v-9l2-2 2-2-2-3-2-4 3-7 3-5-3-8 1-7 1-11 1-2h4l5 11v9l5 1 2 10a949 949 0 0 1 5 28v7l1 1 2 4v4l4 2 1 12 3 2-1 7v7l-4 7 2 6-4 12v5l1 6h-5zm-3-79-1-1-1 1c-1 1 0 1 1 1l1-1zm-660 81c-1-3 0-9 2-12l4-3h2v7l2 1 2 4c0 4 0 4-1 3l-1-2v5c-1 0-2-1-3-7l-1-4h-2l-2 1v10h-1l-1-3zm528-1-1-4-2-3-2-3v-6l-2-2-3-1-3-1-4-2h-3l-3-5-2-6v-2h3l-1 4h4v1l1 2 2 2 1 2 1-1 1-1 1 2v2h1l2-2 2-2h1v7l1 3h5l3 5-3 4h2l1 3v3h2l2 1-1 2-3 2-3-4zm0-12-1-1-1 1 1 1 1-1zm-33 14c-4-1-9-6-10-9l-2-4-10-4v-2l-2-2-2-1 2-3 2-2 1 2v2l3 1 2 2c0 2 2 2 5 2h2l-1 3 4 3v2l-1 3h5l1 3h6v3l-2 1h-3zm148-2-2-3 2-1 2-2 2 1c1 2-1 8-2 8l-2-3zm-774-1-2-4c0-2-7-5-10-5l-6 1-2 2-1-1-2-4v-4h-7l-2 3-5-2-1 2-1 4v3l-3-2 4-8 4-1 7-1 3-1 1 2 3 3c0 2 2 3 2 3l5-2 3-2 3 2 6 6 5 5h3l6 2v1l-5-1-1 1c-1 1-4 1-7-2zm318 1h2l-1 1-1-1zm274-3-4-4 1-3 1-3 2 2c1 1 3 2 3 4s2 2 4 2l2 2c0 1-1 2-3 2l-2 2zm12 2 1-1 1 1-1 1-1-1zm123-2-5-2c-7-1-9-2-10-3l-1-2 2-9h5l-1 2-1 5v2l4 2 2-2 2-2s2 1 2 3l2 3h3l4 1 1 1-1 1-3 2-5-2zm-637-2-2-3-1 1-3 2h-1l1-7-1-1-1-2-6 7h-6l-1-2-2-1 2-3 4-4 3-1 3 2a811 811 0 0 1 6 4l2 3h1v-4l-1-3 1-1 4-1h2l1 17h-1l-4-3zm3-4v-1h-1l-1 2c1 1 2 1 2-1zm-17-2 2-2-3-1h-3v1l2 3 2-1zm16-4c-1-1-1 1-1 2l1 2 1-2-1-2zm228 11 1-1 1 1-1 1-1-1zm145-4v-5l1-2 2-2h11v2l-1 1h-7l-4 3v4l-1 4h-1zm68 3 1-2c1 0 2 2 1 3s-2 1-2-1zm256 1c-1-2 1-11 3-15l1-3 2 3-1 2-1 6c0 6-2 9-4 7zm-633-2-3-3 4-2 1 1 2 2c2 1 3 2 2 3l-1 1-5-2zm295 1h2l-2 1-2-1zm46-1v-2l-6-3v-6l2-2c3-3 6-4 6-2l-1 1c-2 1-1 6 0 8l2 3-1 2-1 3-1-2zm31 0v-2l-4 1v-1l3-1 3-1-4-4-4-6 4-5 4-6c0-2 4-6 5-6 1 1-3 9-6 12l-3 5v2l3 3 4 4-3 4-2 3v-2zm-520 0c-2-1-1-6 0-8l2-2h4l9-1 3-1 3 3 3 3h2l-1-4-1-5c-1-1 0-2 2-2l3 1-1 4-1 2 1 1c2 2 4 1 3-1v-1l3 1 2 1 2-2 4-2 1 2v2l7 1 1-2c0-3 2-3 2 0l-1 2-3 1-10 1h-6l-2 2-2 2-9-5-3-3-2 2-3 1h-4l-3 1v2c0 2-2 5-4 5l-1-1zm40-9v-1l-1 1v1l1-1zm100 9 1-1 1 1-1 1-1-1zm392-3-3-5h2l4 5 3 4h-1l-5-4zm136-4-1-2c0-2-3-6-6-7l-3-2v-9l1-3 2-5 1-1-2-5 2-1 1-2h-2l-2 2-1-2-2-2h-2l-1-4v-4h-2l-2 1-1 1-2-2 4-4h6l1-5 2-5 1-2v-1l-4 1-3-3-2-2 3-3 3-6 2-2 1-1v6l1 2-4 2v1l1 1 10-1v1l3 1h2v1c0 2 3 2 3 0v-1l4 2v1l-1 2h-17l3 4 4 3 2 1c1 1 4 1 6-1l2-2 2 3 4-1v3l-2 4-1 1-8-1-9-1-2-1-2-1-1 1-2 3-1 2c1 1 2 0 2-1 2-2 5-3 5-1l2 1h2l-1 1v2l6-2-1 2-2 4v1l2-2 3-1v5h-2l-1-1-1 1 1 1 4 3 2 3 5-4 3 1 1-3 1-2-2-1-1-2v-2l3 1c4 1 10 4 9 6l-4 1h-5l-1 1 1 1 2 2 2 1v1h-17l-2 3c-2 2-4 2-4-1l2-2 2-2v-2l-2 1c-1 0-2 0-5 7l-2 5 2 2 2 5 4 5 4 3-2 3-4 3-2-2zm3-4c-1-1-1 0-1 2l1 1 1-1-1-2zm-8-12c0-1-2-1-2 1h1l1-1zm2-8 1-4c1-1 1-2-1-2-2 1-5 6-4 8 1 1 3 0 4-2zm-113 22-4-6c-4-3-9-5-11-4h-1l2-2c4-1 8 0 9 1l3 4 3 3 5-5 3 1-3 4-4 5-1 1-1-2zm-496-2v-3l-7-1-12-1-5-1 6-1 10 1h5l1-1-3-3c-3-3-4-4-2-4s7 5 9 7l1 3-1 3-1 3-1 1zm-122 1c-4-1-2-2 2-2s5 1 2 2l-1 1-3-1zm764-1v-6h6l1 3h-1l-1 3v2h-2l-3-2zm-695-6v-7l-1-1 4-5 2 2-2 4h1c2 0 2 1 0 2l-1 2v2h2l2 1-2 1-1 1-2 2h-1l-1-4zm-86 1v-2h11l-2 1-6 2-2 1zm100 0 1-4 2-4v-1h15v-2l-3-3-3-2-1-1 4-2 7-1h1l-2 2-2 3c0 2 3 6 5 6h1v1l-19-1-1 2-4 9-1-2zm112 1 4-3c1 2 1 2-2 3h-2zm348-1-1-4v-3l3-3 4-3c1 0 1 1-1 2l-2 2-1 3v8l-2-2zm23 0v-1h3l-1 1-1 1-1-1zm-569-2-2-1c-2-1 0-1 3-1l6-1 4 2-4 1h-7zm521-1c0-1 2-3 5-4h2l1 1v2l-1 1h-7zm99-1-2-6-2-5-2-1h4v-16l1-2 1-1 1 1 1 7 1 7 1 1-1 3-1 4 1-1 2-1 2 3 2 3-3 3-4 3-2-2zm52 0-3-4v-3l2-1c2-2 4-1 2 1l-1 1 5 5 3-2v2c0 1-3 3-5 3l-3-2zm-659-1-2-1 6-1 1 1 1 1 2 1 1 1h-3l-6-2zm21 0-1-1 7 1v-1l-1-1-1-1 1-1 2 2 1 2-1 1c-2 1-6 1-7-1zm-11-1-2-3h4l5-2 3-1 2 1-5 1v2l-1 3h-2l-4-1zm461-5v-6l-1 1c-1 0-2 1-2 3l-1 7h-1v-13l7-3 1 1c2 1 4 1 4-1l1-3h2v5l1-2 2-1 1 5v5c-1 1-2 0-2-2l-1-2h-3l-4-1-1-1-1 2v4l1 3 3-7 1 2v7h-2l-2 1-2 2h-1zm20 4 1-7 2-9 1-4h5l4 1-1 2h-7v2l1 5c0 4-2 8-3 9l-2 2-1-1zm19-4 1-5 2-3h-3l-1-3v-7l-1-4h-1v9l-1-1-1-5-1-4 2-2 4-1h2v16h4l7-8 9-2v2c-1 1-2 2-5 2l-3 1-1 2-1 3-3 11 1 2h-1c-2 0-3-3-2-5v-3l-2 1-2 3c0 2-1 3-2 3l-1 1zm190 1-1-1h-2l-4-2c-2-2-3-6-2-9l1-3-1-1-1-3v-3l4-2 5-2c2 0 1 2-1 4l-2 2v3l-2 5-1 4 3 1h2l-1 1v2h2l4-3 2-2v2l-1 2h1l2 1v6h-7zm4-2-2-1-1 1 1 1 2-1zm-734 1-2-3h6l-1 1v2h8v2h-9l-2-2zm60 1 1-1 2 1-2 1-1-1zm514-1 2-6 1-3 6-2v1l-3 2-2 2-1 8h-3v-2zm-558 0h6-6zm10 0 2-1 9 1-13 1 2-1zm47-1-1-4-1-3v-2h-2l-1-1v-1l6 1 5 1v1l-1 1-5-1v4l2-1 2 1c0 1 3 1 4-1l2-2h4l1 3c0 3-2 4-2 0l-1-2-6 6-3-3-1 3-1 2zm484 1 1-1v1l-1 1v-1zm92-1c-2-2-1-5 1-4 2 0 2 6 1 6l-2-2zm23-2-3-3 5 1 5 2c2 1 0 3-3 3h-2zm-16 1-1-4-3-4-2-5-1-2 3-1 1 3 1 3 3-1 3-1-1 2-1 6c0 4-2 5-2 4zm-648-1c3-2 5-2 4 0l-3 1h-3zm37-1-1-1-10 1v-1l5-1h5l1 2c2 2 2 2 0 0zm638-1-1-4 1-1 5 1 1 2c0 2-2 5-3 5l-3-3zm9 2 1-1 1 1-1 1-1-1zm-674-1h8-8zm513-2-1-2 2-2 4-1-2 4-2 4-1-3zm319 1v-12h4v10l-3 4-1-2zm-788-2 2-8c2 1 1 7 0 8l-1 1zm523-6 1-6-8-2-1 2-1-4h-4l1 4v3l-1-2-2-2-1 3-1 3-2-2v-3l3-5 14-4h3l1 2 1 2 7-2v2l-4 1-4 1-1 1 2 3-1 7h4l-5 5h-1zm1-11v-1h-6c0 2 2 4 4 3l2-2zM35 147c0-2 3-5 5-5h2l-4 4-3 3zm21 0 1-1 1 1-1 2-1-2zm668 0-2-2v-2l1-4 1-3-1 1-2 1-1 2h-1l1-4 1-3 1-3v-2l1 1 2 4 1 4 1 4 1 4 1-1 1-3 1-2 1 4v3l-2 1-3 2-3-2zm-697-2v-2l1-1h2l-2 6-1-3zm17 1 1-2 3-1 3 1-1 1-3 1c-2 2-3 2-3 0zm643 0v-1l2-1 2-3-2-4-1-4 2-6 2-5c0-2-3-2-4 0v4l1 2-2-1-2-2c0-2 3-8 5-9l1-1 3 4 2-2 3-1h1l-1 4 5 3 1 4v4h-2l-3-4-4-3h-1l-2 4-2 6 2 1c2 0 2 2 1 3l-1 1 1 3 3 2h2v1l-3 2-1 1-1-1c0-2-4-2-4 0 0 1-2 1-3-1zm-668-2-1-2h2c1 0 2 1 2 3v2h-1c-1 0-2-1-2-3zm601 1v-2l2-2 4-1-5 7-1-2zm115-1c0-2 1-4 2-2 1 1 0 5-1 5l-1-3zm32 2 1-1h2l-1 1-1 1-1-1zm-56-1v-9l3-1h2v1l-1 4-2 4-1 2zm-82-2c0-1 2-4 4-4s2 1-1 3l-2 3-1-2zm-547-3v-3h-1l-4 2-3 3-10-1v-9l5-1v1l-2 2-2 1v6l9-1 5-5 5 2v3l-1 4-1-4zm564 0-1-2 1-2 3-2h2v-6h2c1 1 3 0 4-1l5-2 4-2 2-5v-4h-11v11l-1-1c-1-1-2-3-1-5v-4l1-2 6-3 6-2 4-3 2-1h1l5 3 4 1 2 2 1 3-1 2-4 2h-4l1-3 1-4-4-2v3l-1 4-1-3v-3h-3v9l2 1 2 2v2h-2l-3 2-1 2h-3l-3 1-2 2h-3l-5 1-1 3 1 1-4 1 1 4v3h-1l-3-3zm37-30c-1-1-3 0-2 2h2l1-1zm19 31v-2l1-1 2-2c0-3 2-7 3-7h1l-1 4c0 5-3 10-4 10l-2-2zm52 0 1-1 1 1-1 1-1-1zm-118-6v-4l-2-2-1-1-4 4-3-4-1 1-2 2-1-2v-2l2-1h8l5 1 1-1v-5l2-2 3-4h-2c-2 0-10-6-16-10l-3-3-8-2-4-3-8-7-4-3-1-1-7-4-6-4c-2 0-11-5-12-7l-2-3c1-1-2-3-4-2a43 43 0 0 1-19-10l-12-8-14-9-18-11-16-9-9-5-2-2-6-1-9-3-10-1a332 332 0 0 0-50 3l-25 14-8 5-5 2-12 8-7 3-6 4-11 9-4 3h-1v-3l-1 3v4l-4 1-2-2-1-2-3 3 2 1 2 2-3 2-4 1-3-2-2 2-2 3v1l1-1 3-1h1l-4 2-6 2-2 1v1l3-2v2l-4 4-5 3-6 3-5 4-5 2c-11 8-14 11-14 12l-3 4-5 4-1 2h-3c-3 0-10 2-17 6l-5 2-4-2-5-2-3-1-9-7-8-5h-3a616 616 0 0 1-33-35l-30-30h-6l-8 1c-10 3-23 4-35 5h-9l-6-2-13-3c-7 0-18-2-17-3a331 331 0 0 1 39-3l6-1 4 1h6l16-1 18-1 6-1 1 4 2 3 5 2 4 3v2l2 3 4 4 4 2h2l-2 3 2 2 3 2 2 1 13 14a486 486 0 0 0 24 22v2h2l3 2 5 4 6 2 1 1 3 2 3 1 4 2 6-2 10-5 11-7 9-6 8-6 25-18a250 250 0 0 1 35-23l12-9 15-10 6-4 16-11 12-7 6-2a205 205 0 0 1 63-4c8 1 15 3 23 7l3 2 3 2a189 189 0 0 1 24 14 884 884 0 0 1 40 29h-2l4 2 2-2 4 3 6 4c3 0 7 3 9 6 1 3 3 5 5 5h1l-1-2 3 2 6 4 4 2c3 3 5 4 18 10l8 5c5 5 10 8 12 8l3 1 5 2 6 4 4 3 3 3 2 3-1 1-2 2-1-2-2-2c-1 0-3 3-2 6l-2 3-3 3v2l3-2v1l-1 2-1 3v3h-2l-2-3zm1-26h-2l1 1 1-1zm-22-12-1-1-1 1 2 1v-1zM280 85v-1l-1 1v1l1-1zM73 42l-1 1h1v-1zm279-8 2-2-2 2-2 2v1l2-3zm-225 1-1-1-1 1 1 1 1-1zm251-15-1-1-1 1c-1 1 0 1 1 1l1-1zM71 135c0-2 3-4 4-3l1 1-2 2-3 2v-2zm661-4-4-4-2-3-6-6v-1l1-3 3-2 5 3 3 4-2 4 2 4 2-2 1-2c0-2 4-2 4-1l-1 4c-2 3-2 6 0 6l1-2 2-2h1l-1 2c-1 3-3 5-5 5l-4-4zm-3-12v-2l-1 1-2 2v1l1-1 2-1zm-3-3-2-1h-1v1l2 1 1-1zm85 17c0-2 2-1 3 0l-2 2-1-2zm-801 0 1-2h9a2256 2256 0 0 0-10 2zm43-1 4-1h2v3h-8l2-2zm-15 0h2l-1 1-1-1zm9-2-1-3v-1h3v2c0 2-1 3-2 2zm12-4v-3h1l2 1 3 1 2 1c0 1-3 2-4 0l-1-1-1 1c-2 2-3 2-2 0zm-54-1c0-2 2-4 3-4s1 4-1 4H5zm11-2 1-2c1 0 2 2 1 3s-2 1-2-1zm14 1 1-2c1-1 2 0 1 2l-1 1zm18 0-2-2v-1l3 1-2-2-1-2h1c2 0 3 2 3 4l-1 2zm697-2v-3l-3-1-3-3 1-3 2-1v-7l-1-7-2 1-2 2-1-1-1-2-1 2-2 2h-1v-3l2-4 2-1 1 3 2-1 6-2h5l7-7V70l-3 1-3-1 3-3 3-4 1-3 2-2-1 5v4l1 1c1 1 2-2 1-4l1-2h1v3l1 4 1-3v-3l2-1h13l1 2v3l5 1 3 1v-4l-6-3v-2l-1-3-2-1-7-1-5-1-1-2-1 1c0 2 2 3 7 4h4-16l2-4 2-3 16 1 1 2 5 5 4 2v2l1 2 1 1-1 2-1 2-1 2h-5v6l-1 3v2l4-1v1l-1 3-1 1-4-5v-5l1-6h-24v7l1 8v-5l1-3 3-3-1 4-1 7 3-1 3-3 5-6 1 4v4h3v-9l1 4 1 5 2 2-2 1h-1v1l4 2 4 1v1l2 3 2 2 1 2c2 0 2 2 0 4l-1 1-2-2-5-1h-3l-9-8 1-2V77l-3 4 1 3v2l-2 1h-3l-2-1-3 3-5 5-2 8v5l2-1c1-2 3-1 3 1s-2 3-6 3h-2l-1-10h-2l-1 1v15l2-2 2-1 1 1-1 3v4h2c2 0 5 1 5 3h-6l-2-1-1 1c-1 2-2 1-2-2zm24-56-1-2h-1v5l1-1 1-2zm7 0-1-2c-1-1-3 1-3 3 1 1 4 1 4-1zM38 122l1-2h1v1l-1 2-1-1zm16 0 2-1 2 1-2 1-2-1zm607-2c-2-1-1-3 0-3h2v5l-2-2zm215 1c-1-2 1-6 3-7h1l2 2-2 3-2 3-2-1zm-854-3-14-2-7-1-1-1 1-2 1-1 3 1c5 3 27 5 35 3l3-1-1 2-2 3-2-1H22zm694-3 2-6 1-3 1-3 2-4 1-3 2-1h4l-1 3-2 4-2 2-2 1 1 1c1 2 0 4-2 4-1 0-2 1-2 6l-2 2-1 1zm111 3 2-5h2l1 1v3c-1 2-4 2-5 1zm-14-2-4-3 2-5 4-4h1v2l-1 4v1l3 1 6 1h2v1c0 2-4 4-7 4l-6-2zm-10-1c-2-2-4-5-3-6v-4l-1-3 1-2 3-2s2 0 3 2l1 1-1 1-2 2 1 4 1 6 1 2c0 1-3 1-4-1zm-752-2-2-5 1-1 2 1 2 4 2 3-1 1-4-3zm639-3-3-3v-7l13-2 3 2 5 1h5l2 1v3l-2 5-1 3-3-3-8 2-8 2-3-4zm7-2v-4l4 2 3 2h9v-4l-6-1-9-1-3 1-2 3-2 4 3 1h3v-3zm-6-5-1 1h1v-1zm-669 5-2-1h21-7l-8 1h-4zm805-2-1-2-2-2-6-4-7-6-3-1v-6l5-5-1-3v-2l1 1 2 1 7-7 1 3v2l-2 1-1 2-3 3-2 1 2 3-1 1-1 2 3 1c3 0 4 2 1 2-3 1-2 3 1 3l3 2 2 2c2 0 6 4 6 7l-1 2-3-1zm-32-18-3-2v-3c-1-5 1-13 2-14l3-6 2-4 3 1 2 1-2 2-2 4v3h3l1-5h2l2 1-2 4-3 2-4 1-3 2 1 3 2 8 1 3-3 1zm-31-9c0-2 2-5 4-5l-1 1-2 4-1 2zm50-9v-8l3-3h3v-9h-7v-2l1-3v-6h10v1l-1 3v2l4-1 4 3v10h-7v3l-1 3-4 4-3 5-2-2zm12-18v-2c0-2-3 0-3 1 0 2 2 2 3 1zm-6-8-1-1-1 1 1 1 1-1zm33 7c-2-1-1-6 0-9l1-4-3-3-3-1-10 1-7 7-1-1-1-3c1-2 10-8 15-10l7-1 3 1-1 5 4 3 10-5v-7l2-2 5-1 5 1 2 2 2-4 3-4 1-2c0-2-4-4-7-4h-3l-2 4-3 4-1-3v-3l5-5h3l6 2 3 2 3 7 3 1 3 3v8l-3 2h-3l2-3 2-3-1-2c0-2-3-3-6-3h-2l-2 3-2 9-1 6h-4l1-5 2-7v-2l-7-2-2 2-1 3 2 1c2 0 2 2 1 3l-6 3-5 3 1 1c3 1 2 3-2 3l-4 1-1 5v3h-3zm-17-5v-5h3v9h-1l-2 1zm32-9h2l-1 1-1-1zm45-14-2-4-1-2-2 6-2-1v-4l1-4-1-2-4-1-3 1c-2 2-5 4-6 3l-1-1 6-5 12-2 2 2-2 1v6l4-6 1 3c2 2 2 8 1 11l-2 2h-1z"/>
</svg>
