<?xml version="1.0" encoding="utf-8"?>
<svg xmlns="http://www.w3.org/2000/svg" version="1.1" viewBox="0 0 620 535">
	<title>Sketch of a wall of rectangular stone ending in a foundation along the ground but fading on the top and sides. A large horseshoe-shaped window is in the center, stretching from the foundation to about two-thirds of the way up the sketch.</title>
	<path d="M401.3 534.4c-8.8-.4-47.4-.7-85.7-.8-38.3 0-70.2-.3-70.9-.7-.6-.4-1-1.2-.8-1.8l.4-1.1 188.6-.7 4.2 2.3-1.7 1.6-1.6 1.7h-8.3c-4.5.2-15.4-.1-24.2-.5zm63.6-2.5c0-1.7 3-2.8 5.3-2 1 .4 1.7 1.3 1.7 2v1.5h-7zM144 525.6a38 38 0 0 1-6.3-.8l-1.3-.4 2.2-4 24.7.4 29 .5h4.2v1.5a3 3 0 0 1-1.2 2.2c-.7.5-11.4.9-23.8.9s-24.8-.2-27.5-.3zm196 0a1 1 0 0 1 1.3 0c.4.5 0 .8-.6.8-.8 0-1-.3-.7-.7zm30.7-.2c0-.6 1.1-1 2.5-1s2.5.4 2.5 1c0 .5-1.1 1-2.5 1s-2.5-.5-2.5-1zm-159.2-.7c-2.4-.2-6-.6-7.7-.9l-3.3-.5v-3h5.3a3001 3001 0 0 1 64.8.4c3 0 17-.3 31-.8 14-.4 35.5-.9 47.7-1 12.1-.2 23.4-.6 25-1 1.6-.2 9-.8 16.5-1l13.7-.6 1.2 3.1-2.6 1c-1.4.5-6.4.9-11.2.8-4.8 0-12.7.5-17.6 1.2l-9 1.2-19-.5a715 715 0 0 0-39.7.3c-23.4 1-88.3 1.9-95 1.3zm239-2c-.5-.4-.8-1.4-.8-2.4v-1.7l2.7-.5a69 69 0 0 1 11.8.2c5 .4 14 .5 20 .2 6.1-.3 14.7-.6 19-.6h8v2.8l-3 .9c-3.6 1-56.9 2-57.8 1zm73.3-2.8c0-.8 1-1.7 2.3-2 1.2-.2 5-.7 8.4-1l6.2-.5 1.6 1.6c.8.8 1.3 2 1 2.4-.3.5-4.8 1-10 1h-9.5zm-398.7-5.2c-.3-.4-.6-1.4-.6-2.4v-1.7l16.7-.6 38.3-1.2 26.5-1c2.8-.2 25.3-.6 50-.9 24.8-.3 47.5-.8 50.4-1.1l5.4-.6 4 3.6-1.2-4.2 1.8-2 1.7-2.1 2.3.9c1.2.5 2.2 1.5 2.2 2.4 0 .8-.8 1.9-1.7 2.5l-1.8 1 9.5-.5c5.3-.3 24.9-.7 43.6-.9 18.7-.2 34.9-.5 36-.7l2-.4.3 2.3.3 2.2h-9.2a10055.2 10055.2 0 0 1-131 1.3c-41 .3-76.8.8-79.6 1-2.7.3-12.6.8-22 1.2a842.6 842.6 0 0 0-41.6 2.5c-.9 0-2-.2-2.3-.6zm295.7-5.2c-1.9-.3-3.6-1.2-3.8-1.8-.2-.6.7-1.4 2-1.7a864 864 0 0 1 62.3 0c1.4.3 2.5 1 2.5 1.3 0 .5-1.3 1.1-2.8 1.4-4 1-56.2 1.6-60.2.8zm72.4-1.6c-.3-.8-.3-2 .1-2.6l.8-1.2 9.8.5c5.5.2 10.3.8 10.7 1.2.4.4-.2 1.3-1.2 2.1l-2 1.4h-17.7zm54.6.8-10.2-.9-8.8-.6v-2.9l10.8-.1 16-.2c2.9 0 5.7.4 6.3 1 .5.5.7 1.7.4 2.6l-.6 1.6-6.2-.1-7.7-.4zm-30.3-1a3 3 0 0 1-.7-1.9v-1.2h4.7c2.5-.1 5 0 5.5.4l1 .5-1.3 1.4-1.1 1.4h-3.8c-2 0-4-.3-4.3-.6zm-351-1.8c-.6-.8-1-2-.8-2.8l.5-1.3h29.4a2923.7 2923.7 0 0 0 79.8-1.6h17l16.2.1v1.4c0 .8-.6 1.7-1.3 2s-11 .5-22.8.6c-11.8 0-27.5.3-35 .5-7.4.3-28 .7-46 1-17.9.3-33.2.8-34.1 1.1-.9.3-2.2-.2-2.9-1zm-86-1.2a65 65 0 0 1-6.1-1.4l-3.6-1-2.9-6.5-3.4-.5c-1.9-.2-3.6-1-3.8-1.5-.2-.6 1-1.8 2.5-2.7l2.8-1.6 14.5-.1c8-.1 17.8-.4 22-.6 7.5-.5 27.1-1 76-2 29.3-.5 79-1.7 89-2a645.2 645.2 0 0 1 78-.7c6 .4 16 .4 22.7 0a680 680 0 0 1 27.2-.7h15.2l.6-1 .6-1 4.9 1.9 6.7-.6c7-.6 14.3-.9 52.9-1.9 12-.3 24-1 26.5-1.4 2.5-.5 18.5-1 35.5-1 17-.2 36.3-.4 42.8-.6l11.8-.3 3.4-2.1a14 14 0 0 1 11.3-1.4c1.3.3 2.3 1.2 2.3 1.9s-.7 2-1.6 2.6a47 47 0 0 0-5 4.7 48 48 0 0 1-6 5l-3 1.6H565a614 614 0 0 0-31.5.6l-2 .4-.3-2-.3-2.2 5.4-.7c3-.4 6-.4 7 0l1.7.6v-3.4l-32.7.7c-18 .4-33 1-33.2 1.1-.3.3 4 .5 9.5.6l12.9.2 3 .1v1.5c0 .8.7 1.6 1.6 1.8l1.7.3-.2-1.8-.1-1.8 20 .4v2.6l-1.8-.3c-1-.1-2.5.2-3.2.9l-1.4 1.1-6-1.3-1.7 1.6c-.8.8-2.5 1.5-3.7 1.5-1.2 0-3.2.3-4.5.7l-2.2.6v-3.3l-2 1c-1 .6-3 1-4.4 1H494l-2-3.5-1.3 3.5h-3c-1.5 0-2.8-.3-2.8-.8s.5-1.3 1.2-2l1.2-1.2H477l-.6-1.5c-.6-1.6-3.6-2-3.6-.5 0 1.4-3.4 1.3-4.7 0l-1.1-1.1-22.4 1c-19.7 1-86 2.6-91.4 2.3l-29-.8-27-.6-34.5 2.5 1.1 2.7H255c-4.8 0-10.5.3-12.6.7l-3.8.6 2.3 2.7-1.4.5c-.7.3-14.2.7-29.9 1-15.6.2-39 1.2-52 2-13 1-30.5 2-39 2.5s-16.2 1.1-17 1.4c-2.2.7-18 1.4-21 1zm4.9-8.5-1.1-2-2.2.5c-1.2.3-3.5.6-5 .6-4.6 0-2.2 1.4 3.6 2.1l5.5.8c.2 0-.2-.8-.8-2zm9.3 1.5a5 5 0 0 0-3 0l-1.8.4h3c1.7 0 2.5-.1 1.8-.4zm38 0a14 14 0 0 0-5 0c-1.5.2-.5.3 2.3.4 2.7 0 4-.2 2.7-.5zm12.5-1a17 17 0 0 0-5.5 0c-1.5.2-.2.3 2.8.3s4.2-.1 2.7-.4zm36.6-2a5 5 0 0 0-3 0l-1.8.4h3c1.7 0 2.5-.1 1.8-.4zm15.9-1.1c.7-.7.8-1.3.3-1.3s-.3-.5.5-1l1.5-1-5 .5c-7.8 1-9.5 1.5-9.5 2.9v1.2h11l1.2-1.3zm-101.5 0a11 11 0 0 0-4 0l-2.3.5h4c2.2 0 3.3-.2 2.3-.4zm37.8-.3 8-.1-3-1c-1.6-.4-3.9-.6-5-.4-1.1.3-9 .7-17.4 1-8.5.2-15.7.7-16 1.1-.4.4 5.2.4 12.4 0 7.1-.3 16.6-.6 21-.6zm101.3.4c-.3-.3-1.2-.3-2 0l-1.2.5h1.9c1 .1 1.6-.1 1.3-.5zm-79-2a20 20 0 0 0-6 0c-1.8.1-.6.3 2.7.3 3.3 0 4.8-.2 3.3-.4zm11 0c-1.6-.3-4-.3-5.6 0-1.5.1-.2.3 2.8.3s4.3-.2 2.8-.4zm34.9-1a1 1 0 0 0-1.3 0c-.4.3-.1.6.6.6.8 0 1-.3.7-.6zm6 0c-.3-.3-1.1-.3-1.9 0l-1.3.5h2c1 .1 1.6-.1 1.3-.5zm14 0a1 1 0 0 0-1.3 0c-.4.3 0 .6.6.6.8 0 1-.3.7-.6zm16.6-1a5 5 0 0 0-3 0l-1.7.4h3c1.6 0 2.4-.1 1.7-.4zm11 0c-.7-.3-1.8-.3-2.5 0-.7.2-.1.5 1.3.5s2-.3 1.2-.5zm7.3-.4c.8-1.2-.6-1.2-2.5 0l-1.5 1h1.7c.9 0 2-.4 2.3-1zm3.1-.6a1 1 0 0 0-1.3 0c-.4.3 0 .6.7.6s1-.3.6-.6zm329.2-5.3 4-.8-11.5-.2c-15.1-.1-34.1 1-33.5 2 .6 1 35.7.2 41-1zM330.7 502c0-.9.8-1.6 1.8-1.7l39-1.3 24.3-.7v4l-10.3.4c-5.6.2-20.2.5-32.5.6l-22.3.2zm83.1-2c0-1 1.3-2.1 2.8-2.7l2.7-1 46.1-.3c25.4-.1 46.6-.5 47.1-.8.6-.4 11.3-.7 24-.8l23-.2.3 1.5.3 1.6-1.8.5c-3.3 1-34.3 1.8-79 2.2l-45 .4-7.8-.6-6.9-.5-1 1c-.7.7-2 1.1-3 1.1h-1.8zm-169.1-4.2v-1.4l2.7-.2 12.8-.3 12.8-.3 2.8-.2-.6-1c-.3-.4.4-1.4 1.6-2l2.2-1.2 1.2 1.6c.7.9 1.7 1.6 2.3 1.6.6 0 1.6 1 2.2 2l1 2-.8.4c-.5.3-9.7.5-20.5.5h-19.7zM287 494c-.3-.8-1.3-1.6-2-1.6-.9 0-1.4-.5-1.1-1.2l.4-1.3 10.3-.6 2.2 1.6c1.3.8 3.4 1.5 4.7 1.5s3-.7 3.6-1.6l1.2-1.7 2 .8c1 .5 2.4.8 3 .7.7-.1 1.4.1 1.7.6.2.4 10.3.6 22.3.4 12-.2 29.5-.3 38.9-.3h17l.3 1c.2.5-.5 1.2-1.5 1.5-1 .3-24.4.8-52 1.2l-50.4.7-.6-1.7zm107.7-1c0-.8.3-1.6.8-1.9.4-.2 13.9-.7 30-1.1l29.3-.7v1.5c0 .8-.4 1.7-.8 2-.5.3-14 .8-30 1.2l-29.3.6zm64.7-.3c-1.1-1-.7-2.3.9-2.3.8 0 1.5.5 1.5 1 0 1.2-1.6 2.1-2.4 1.3zm4 0c-.3-.3-.1-1.2.5-2l1.1-1.3h3.8c4.1 0 6.1 1.7 3.8 3.1-1.6 1-8.2 1.2-9.2.3zm12.4-1.3c0-.5.9-1 2-1 1 0 2 .5 2 1 0 .6-1 1-2 1-1.1 0-2-.4-2-1zm-392.2-9.7-1-2.8.2-7 .5-8.2c0-.7 1.2-1.3 2.6-1.3h2.4l.5 1.8c.3 1 .4 5.8.3 10.7l-.4 9-4 .6zm-21.2-5.1c0-1.2.4-2.3 1-2.6 1.5-1 4.1.6 3.8 2.3-.2.9-1.3 1.8-2.5 2l-2.3.3zm31.5-1.2a25 25 0 0 1 0-7.4l.8-5.5 1.5-.6c.9-.3 2-.1 2.5.4l1 1-.7 7-.8 7.1h-3.6zm114.1-3a14 14 0 0 1-1.3-6.3l.3-3.2 2.8-.3c1.5-.2 2.8 0 2.9.5l.4 5.6.3 4.7-3.8 2zm273.4 1.5c-.9-.9-2.3-4-3.2-7.1l-1.6-5.6 1-1c.5-.5 2-.8 3.2-.6l2.3.3 1.3 6.5c.8 3.6 1.2 7 1 7.8s-1 1.2-1.5 1.2-1.7-.7-2.5-1.5zm-237.1-.8c-.3-.8-.3-1.8 0-2 .3-.4 1.5-.7 2.5-.7h2l-.4 1.8c-.4 2.2-3.4 2.8-4.1.9zm127.6.2-2.2-.8v-6.1l1.5-.6c.8-.3 2.2 0 3 .6 1.5 1.3 2 6.6.7 7.3-.4.3-1.7.1-3-.4zm8.5-.5c-1-1-.9-4.2.3-4.9a5 5 0 0 1 3 0l2.1.7-.3 2.2-.3 2.1-2 .3c-1.2.2-2.4 0-2.8-.4zm9.7-.8c-.3-.8-.3-2 0-2.5.4-.6 1.6-1 2.7-1h2v5h-2.1c-1.1 0-2.3-.7-2.6-1.5zm-157.5-3.1v-3.5l3.3-1.3 1.2 1.7c.6.9 1 2.7.7 4.1l-.5 2.5h-4.7zm115.7 1.4c-.8-3 .4-7.9 1.9-7.9.7 0 1.5.7 1.9 1.6.3.9.6 3.1.6 5v3.4H349zm12 1.5c-.3-.4-.6-2.9-.6-5.6v-4.8l1.5-.6c.8-.3 2.2 0 3 .6l1.5 1.3v3.3c0 1.8-.3 4-.6 4.8-.6 1.6-3.5 2.2-4.8 1zm130.9-.8c-.3-.7-.4-3.3-.2-5.7l.3-4.4 4.5-.6v2.4c0 4.5-1.2 8.6-2.7 9.1l-1.4.6zm22 0a7 7 0 0 1-.2-3.3l.3-1.8 4.1-.6 2.3 4.9-1.2 1.1c-1.5 1.6-4.7 1.4-5.3-.3zm8 0c-.7-1.8.2-4.6 1.4-4.6a7 7 0 0 1 2.7 1.4l1.8 1.3-.6 1.7c-.8 2-4.6 2.1-5.3.1zm-298.4-4.3.3-4.8h5l-.2 2.9c-.2 2.8-2.8 6.6-4.5 6.6-.5 0-.8-2.1-.6-4.7zm279.3 3c-.7-.2-1.3-1.5-1.3-2.9v-2.4h6l1 2c.5 1 1 2.4 1 3 0 .5-1.2 1-2.7 1-1.6-.1-3.4-.4-4-.6zM335.8 468c-.6-.8-1-2.7-.9-4.3l.4-2.8 3.8-.7 2.5 3.3-.8 2.7c-.4 1.5-1.4 2.9-2.2 3-.8.2-2-.4-2.8-1.2zm235.9-.2c-1-1-.9-10.9.2-13.8l1-2.6h5v4.8a31 31 0 0 1-1.3 8.2c-1.3 3.4-3.4 4.9-5 3.4zm22.9-2.3c-1-1-1.6-2.8-1.4-3.7.1-1 1-2 2-2.2 1-.2 2.6.6 3.7 1.7l2 2-.6 2-.5 2.1H598c-1 0-2.5-.8-3.4-2zm-298.9 0a1 1 0 0 1 2 0c0 .5-.4 1-1 1s-1-.5-1-1zm288 .2-1.8-.5.3-3.1.3-3.2h5l.3 2.6.3 2.6-1.3 1c-.7.5-2.1.8-3.1.6zm24.3-2.8c-.7-.8-1-2.1-.7-3l.6-1.5h5.9l.4 1.8a5 5 0 0 1 0 3c-.5 1.7-4.7 1.5-6.2-.3zm-331.3-2.6c0-.7.8-1.7 1.8-2.5l1.7-1.2-45-.2a3375.7 3375.7 0 0 0-71.1.4c-4.9-.1-38.5-1-65.2-2l-13-.4-5 1a80 80 0 0 1-22.8 1.6 16 16 0 0 1-6-2l-1.7-1.1 1.3-3.4 24.3 1 9-2a1210 1210 0 0 0 23-5.6c4-1 8.9-2.4 11-3.3a69 69 0 0 1 8-2.2c2.3-.5 6.8-1.5 10-2.5a1223.7 1223.7 0 0 1 26-7 75 75 0 0 0 10.5-3.8l4.6-2.1-4-.4c-2-.2-5.8.1-8.1.7a37 37 0 0 1-7.3 1 77 77 0 0 1-11.3-1.8c-4.6-1-11.3-2.2-15-2.6l-6.5-.6-12.1 3H95.9l-1.2 1.3c-1.6 1.6-16.1 6.5-24.6 8.3a175 175 0 0 0-13 3.3 100 100 0 0 1-17.2 4.2h-1.6l.4-1.6.3-1.6 4-1.4c2.2-.7 4.9-1.4 5.9-1.4s4.4-.9 7.5-1.9c3-1 7.9-2.4 10.6-3 8.3-2 18.5-5.3 18.5-6 0-.3-10.4-.6-23.2-.6H39l-5 1.2c-2.8.6-6.3.9-7.8.6a8.8 8.8 0 0 1-4.5-2.8l-1.8-2.2-4.4-.7-7-1-2.5-.1v2.1c0 1.2-.3 2.5-.7 2.9-.4.3-1.5.2-2.6-.4l-2-1-.5-3.3a11 11 0 0 1 0-4.5c.6-1.8 3.2-2.4 5.2-1.4l1.8 1 4.8-3.4h19l3.5 1.6c2 1 4.8 2.1 6.5 2.7l3 1 16.9-.6 3.7-5.1v-5.8l.1-5.8-3-7.2-3 .4c-4 .6-12.9-1.5-13.6-3.2-.2-.7-.3-1.5 0-1.8.3-.3 2.6 0 5.2.5 2.6.6 5.7 1 7 1 1.1 0 4.3-1 7-2.3l4.7-2.4 15.7.3 1.4-3.4c.8-1.9 1.4-5 1.4-6.8 0-1.9-.9-5.5-2-8.1l-2.2-4.8-6.6.7c-3.7.4-8.4 1.1-10.5 1.7l-3.9 1-6.6-.7a31 31 0 0 1-8.3-1.6l-1.7-.8-8.1 1a30 30 0 0 1-9.1.4c-1.6-1 0-3.5 2.3-3.5a7 7 0 0 0 3.9-1.6l1.8-1.7H50l6 3.2 11-1.4-.2-6.5-.6-11-.5-4.5h-10c-5.5 0-10.4-.3-10.8-.8-1.3-1.3 1.4-3 6.3-3.8 2.7-.5 13.4-1 23.8-1.1 10.5-.2 19.7-.7 20.4-1.2l1.4-.9-.8-11.6-.9-16.8v-5.3l-1.3-.5a8 8 0 0 0-3.8.5c-1.4.6-5.7 1-9.4 1h-6.8l-15.6-5-4.3.6c-2.5.3-5.5 1.5-6.8 2.5a8.9 8.9 0 0 1-3.5 1.9c-.6 0-1.1-1.1-1.1-2.5v-2.5l3-1.5c1.7-.9 6.5-1.8 10.8-2.2l7.8-.6 2.9 1.5 2.8 1.5 2.3-1.1c1.2-.6 3-2.2 3.8-3.6l1.5-2.5-2-10 .6-7.3c.3-4 1.1-8.5 1.8-9.8l1-2.5-2-1.5c-1.3-.9-2.3-2.1-2.3-2.9s.7-1.6 1.6-2c.9-.3 7.2-.5 14-.5h12.3l2.7-2.7v-12a77 77 0 0 0-.6-12.7 23 23 0 0 0-7 1 95 95 0 0 1-13 2l-6.4.6-2.2 3-4-.7a22 22 0 0 1-6-2l-2.2-1.5 1-4 22.4 1.2 6.4-3.3 10.8-.4c6-.2 13.6-.7 17-1.1l6.2-.7-.5-1c-1-1.4 1.6-3.8 4.2-3.8 1.3 0 2.4.5 2.4 1s-1 1.6-2.2 2.5L129 210h1.5c.8 0 2.4.3 3.6.6l2.1.6 4.1-4.4.8-7.6c.5-4.2.8-8.3.6-9.2l-.5-4.5-.3-3h-7.4c-4.2.1-10 .7-13.2 1.4l-5.6 1.4-6.5-3.2a32.7 32.7 0 0 0-8.9-3 40 40 0 0 0-8.9 2c-3.5 1-7.5 2-8.7 2h-2.3v-5l3.3-.5c13.7-2 21.8-2.4 25.3-1.2l2 .7 1.7-4c1-2.3 1.8-4.8 1.8-5.6s-.6-3.5-1.2-6l-1.2-4.5-6.9-3.2-2.6.5c-1.5.3-4.2.2-6.2-.2l-3.5-.7-7.6 1.9-7.9-2.4v-2c0-1 .7-2.2 1.6-2.5.8-.4 3.6-.1 6.2.6l4.6 1.1 7.7-3.4 2.2 1c1.2.7 6.8 1.4 12.5 1.7l10.2.6.5-.9c.3-.5-2.2-1.4-5.5-2l-6-1.2v-3.2l7.6.6c4.2.4 8.4 1.1 9.5 1.7a41.4 41.4 0 0 0 19.2-.4l5.8-1.4.6.9a2 2 0 0 1 0 1.9c-.4.5-2.8 1.6-5.4 2.5L143 150l5-.6c2.7-.3 6.1-.7 7.5-1 1.4-.3 3.9-1.6 5.5-3l2.8-2.4-.9-4.8-.9-4.7-5.5-.6v-2.7l5.3-.7a69 69 0 0 0 12.7-2l-1.5-4a16 16 0 0 1-1.3-7.3l.3-3.5-12-2.8-7 .9a38 38 0 0 1-10 .2l-3-.7-6 1.2a28 28 0 0 1-7.6.8l-1.6-.5v-2.2l.2-2.1 5-.3c2.7 0 8.2-.5 12.2-.8l7.3-.6-1.5-2.9-1.5-2.8V88.3l-2.9-2.4-1 2.1-1.2 2h-14a62 62 0 0 1-14-.7c0-1.7 2.5-3.2 5.1-3.2 1.5 0 4-.7 5.7-1.5l3-1.5 22.5-1.3.8 1.3.8 1.3 4.4.2c2.3 0 6.8.4 9.8.8 3 .4 8.9.3 13 0l7.5-.8.4-2c.4-2.1 7.5-14.9 9.9-17.7l1.3-1.6-6.2-5.3h-3.2c-1.7 0-6.1-.6-9.7-1.3l-6.6-1.3-1.2 1.3c-.7.7-2 1.3-2.7 1.3h-1.5v-5l-2.6 1a29 29 0 0 1-13.2.4c-1.2-.3-2.2-1.2-2.2-1.9s.7-1.5 1.6-1.9c.8-.3 4.1-.6 7.2-.6h5.7V39.2l-5.5-.6-8.3-1.2-2.7-.5V33h3.8c2.2 0 6 .7 8.7 1.5l4.8 1.4 3.8-2 15.5 1.3 7.3-8-.4-4.3a13 13 0 0 0-1.2-5c-.4-.3-4-.4-7.8 0l-7 .6-5.7-2.8c-3.2-1.5-5.8-3.4-5.8-4.1 0-1.7 4.1-2.8 6.7-2 1 .4 2.8 1.6 4 2.7l2.2 2 4.3-.7 8.1-1.2 3.8-.6 4.2 3.7-.6 9-.7 9 9 2.7v5l-5.7-.6c-6-.6-16.2-.8-22.3-.3l-3.5.2-.3 3.7-.3 3.6 1.6 1.6c.9.8 3.3 2 5.3 2.6 2 .6 6.4 1.2 9.7 1.4l6 .4-3.9-.6c-2.2-.4-4-1.2-4.3-1.8-.5-1.6 3.5-2.4 8-1.7l4 .6.5 1.5c.3.8-.1 1.8-.9 2.3l-1.4 1h1.7c1 0 2.6 1.2 3.8 2.8l2 2.9 12.8-.4c7-.2 17-.6 22.3-1 16-1 26-.6 32.1 1.2 1 .3 2.4-.2 3.3-1.1l1.6-1.6v-9.8l-4.8-5.5-8.4.6-11-4.5-7.1 1.3c-4 .8-8.7 1.3-10.5 1.3-1.9 0-4.2-.8-5.2-1.7s-3.6-2-6-2.4c-2.2-.4-4.1-1.1-4.1-1.7v-1l11.1-.6 2.9 2c1.6 1.2 3.6 2.1 4.6 2.1s2.8-.8 4.1-2c1.4-1 3.1-1.6 3.8-1.4 2.3 1 2.8-1.4 1.1-4.8l-1.6-3.2 1.5-1.4c.8-.8 2-1.2 2.9-1 .8.4 1.7 2 2 3.6l.6 3 8.2 6.5 11.1-1 7.5 2.6 9.7-.3c5.3-.2 10-.5 10.2-.9.3-.3.8-2.5 1.1-4.8.3-2.4 1-5 1.6-5.6l1-1.3h-3.2l.4-1.2 1-4 .5-2.5-6.2-.8c-14.3-1.7-35-.7-41.4 2a37 37 0 0 1-8.1 2 74 74 0 0 0-7 1.1l-2.3.6-2.3-1.4a21 21 0 0 0-6.2-2.2c-2.2-.4-4.6-1.2-5.2-1.7-.7-.6-4.5-1.1-8.5-1.3l-7.2-.2-.4-1.2-.4-1.2h6.8l2.3-5-1.5-2.7a13 13 0 0 1-1.4-4c0-1.6 3.4-1.7 6-.3 1 .6 2.4 2.9 3.1 5.1l1.2 4 3.1 2.4a28 28 0 0 0 6.5 3.4 31.2 31.2 0 0 0 16.2 0 84 84 0 0 1 17.1-3.3c1-.1 2-.5 2.5-1 .3-.3-.3-2-1.5-3.6s-2.2-3.6-2.2-4.5.7-1.5 1.6-1.5h1.5l-1.2-2 2.5 1.2c2.6 1.1 5.6 5.8 5.6 8.5 0 .7.1 1.3.3 1.4.6.2 19.8 2 23.7 2.3 2.5.2 5.3.6 6.2 1l1.6.7.7-1c.4-.6 1.8-1 3-1h2.5v3.7l-5.6 1-3.2 8 1.4.6c1.7.7 1.9 3.8.3 5.4-.6.6-.9 1.7-.6 2.5l.5 1.4 19.9.9c23.2 1 38.4.7 40.1-.8l1.2-1-1.2-11.8h4.8l3.4 9.5 4.6 3 10.5.7c5.8.4 12.5 1.1 15 1.6l4.4.7.4 1.4.5 1.4-7-.6-14.7-1.3-7.9-.6.7 1c.4.7 2.5 1.2 4.6 1.2 3.9 0 6.3 1.6 3.8 2.5a56 56 0 0 1-16.6.8l-5.3-.6.4-1c.2-.7 1.9-1.4 3.8-1.7l3.4-.6-2.3-.7c-1.2-.5-2.6-.5-3.2-.2-.5.3-8.6.6-18 .6h-17l-2.5 1.1c-1.4.6-2.5 1.7-2.5 2.4s.6 1.5 1.4 1.8l1.4.5.7 4.4.6 4.4 4.4 2.7 57 .1 9-2.2 3 .8a123 123 0 0 0 27 1l2-.8V45h-1c-2.8 0-20-2-22-2.6-1.5-.3-2.4-1-2.2-1.7l.3-1 7 .2c3.8 0 11.3 1 16.5 1.8l9.7 1.6 6.8-3.5 18-1.3-.2-1.9c0-1 .7-3.3 1.7-5.2l2-3.3-2-1.1a7 7 0 0 0-3.3-1c-.7.2-4.3.2-8 .1h-7l.5-1.3.4-1.3 5.7-.8c3.1-.5 6.4-.6 7.4-.1 1 .4 2.4.6 3.2.5.8-.2 3.9 0 6.8.4l5.3.7v1.5c0 .8-.9 1.7-2 2l-2 .5-1.3 8.8 2.3 2.7 11.7.9a488 488 0 0 0 28 1.3l1.3.1v5l-3.7-.5c-2.1-.2-11.5-1.2-21-2-9.4-.9-18.4-2-20-2.4a9.4 9.4 0 0 0-4.8 0c-1.1.3-5.3.7-9.3.7h-7.3l-3.5 2.1c-2 1.2-4.7 2.1-6 2.1h-2.6l.6 2.3c1.3 4.3 2.7 6.4 5.9 8.3l3.2 2 9 .6 14.5 1.1c3 .3 9.3-.1 14-.9l8.5-1.3 11.5 1.2V63h-6l-1 2.3c-.4 1.3-1.5 3-2.4 3.7l-1.6 1.3.5 2 .6 1.8-4.9 8.8 1.3.5c.8.3 3 0 5-.5l3.6-1 3.7 1.2 5 1.6c.6.1 1.2 1.2 1.2 2.2v2l-2.7.5c-3 .6-20.8 1-33.1.7l-7.4-.1-5.3 1.5c-3 .9-5.6 2.2-5.9 3-.3.9.2 2.8 1 4.4l1.7 2.8-3.2 6.4h7.7l1.5-1.5c.9-.9 2.6-1.5 4-1.5 1.3 0 4.7.7 7.5 1.6l5.1 1.7 17.8-1c9.8-.6 20.2-.8 23-.6l5.3.5v-2c0-1.2.4-2.4 1-2.7s.6-2.3.3-4.5l-.5-4 1.6-.6a8 8 0 0 1 4 0l2.4.5.5 2.8c.3 1.5.1 3.3-.4 4-.6.6-.7 1.7-.4 2.2l.7 1.1 13.5-.3 2.6 1.7c1.4 1 2.8 2.6 3.1 3.8.6 2.5-.9 4.8-3.1 4.8-.8 0-3-1-5-2.1l-3.3-2.1-8.7 2.8-40.8-.6-8.3 2.2-.6 3.3a12 12 0 0 0 .3 5.7l1 2.5 2.8 1.1c3.9 1.6 21 5 25.8 5.3 4.3.3 13.5-2 13.5-3.3 0-1.4 3.3-.9 4.4.7 1.3 1.7 8.6 3 10.4 1.7.7-.4 1.6-3 2.1-5.5s1.4-5.4 2.1-6.2 2.5-1.5 4-1.5h2.8l.6 1.6c1 2.7.7 5.7-.9 7.4l-1.5 1.7 1.4 1.2a17 17 0 0 0 6.6 1.5c2.9.3 6.5 1 8.1 1.8l3 1.3v6.5h-8.2l-4.4-2.6-4.3-2.5-6.4-.1c-9.5-.1-39 1.8-41.3 2.8a14 14 0 0 0-3 1.8c-.6.6-1.1 3.2-1.3 5.8l-.3 4.7 8.4 4.3 25.4-1 3.4-2c1.9-1.2 5.2-2.2 7.4-2.3 2.2-.1 7.8.1 12.4.6l8.3.7 1.6 4.3-1 3.5c-1.4 5.3-6.8 9.7-9 7.4-.4-.4.3-2.4 1.4-4.6l2-4-.8-.9c-.5-.5-3.6-1.2-6.9-1.7-6.1-.8-11.9-.2-13.6 1.6l-1 1 1.7 5.8 3.6 12.7c1 3.7 1.7 7.1 1.4 7.6-.3.6-.1 1.3.5 1.6.5.4 5.5.4 11 0l9.9-.7-1.5-1.5c-.8-.8-1.4-1.8-1.4-2.2 0-.5.6-1.4 1.5-2 .8-.8 1.5-2.2 1.5-3.2v-1.9h5v2c0 1.2-.7 2.3-1.5 2.7-.9.3-1.3 1-1 1.5.4.5 0 1.6-.6 2.4l-1.2 1.4h3.2l.6 2.5c.4 1.3.4 2.8.1 3.3-.3.4-5.1 1-10.8 1l-13.9.6c-1.9.1-7.3 0-11.9-.5l-8.4-.8-3 1.4c-1.6.9-4.6 1.5-6.6 1.5s-4.7-.7-6-1.6c-1.2-.9-2.4-1.4-2.7-1.1-.2.2.2 2 1 3.9.8 2 2 7.4 2.7 12.2l1.2 8.7-1 2.3-1.1 2.4 24.8 1.4.8 1.2c.5.6 1.2 2 1.5 3.2l.5 2.1-12.2.3c-6.6 0-13.1.4-14.3.7-1.3.3-2.3 1-2.3 1.4 0 .5-2.8.9-6.2.8h-6.1l-3.3 4.2-3.7.6c-2 .4-3.7.3-3.7-.1 0-.5.9-1.6 2-2.5l2-1.7-1.3-2.7c-.7-1.4-1.6-2.6-2-2.6-.4 0-1 .7-1.3 1.7l-1.5 3.8a32 32 0 0 0-1.2 8.1l-.3 6.1 1.8 1.2c1 .6 1.8 1.6 1.8 2.3v1.3L489 248l-1.5 2.4 1.4.9c1.8 1.1 5.6 1.1 6.3 0 .3-.5 1.8-.9 3.3-1a44 44 0 0 1 15.2 4.3l3.2 1.7 25-.6 2 3.4 5.2-.6c2.9-.3 6.5-1.2 8-2l2.9-1.4 4 1.2-.3 3.2-.3 3.2-6 .3c-3.4.1-6.7.5-7.6.9a26 26 0 0 1-7.8 1.4l-2.4.1.7 3.2c.3 1.7.9 5.7 1.2 8.8.3 3.2 1 5.8 1.5 5.8.4 0 .8-.8.8-1.7v-1.7l1.3 1.3 1.2 1.2-3.8 2.8 2.7 3.2 6.6-.5 10.8-1.1 4.3-.7v2a16 16 0 0 1-1 4.6l-1 2.6h-1.8c-1 0-2.3-.5-3-1.1l-1-1.1-8.6 1.2a46 46 0 0 1-10.3.6c-1-.3-4.8-.8-8.3-1.1s-6.7-.8-7-1c-.4-.2-2 .3-4 1l-3.2 1.5.8 2.2c.8 2.4.6 14-.3 17l-.5 1.7 5.4 3.5 8.1.4a91 91 0 0 0 19 0c7.4-1 11-1.9 13.1-3.4 2.5-1.7 6.2-1.8 6.8-.1.3.7.1 2.2-.3 3.4l-.9 2.3-2.8.6a14 14 0 0 0-3.7 1.4c-1.3 1-15.4 2.2-25.6 2.4-4.1 0-9.7-.5-12.5-1a126 126 0 0 0-13.2-2l-8.2-.6.6 3.8c.3 2.2 1 4.8 1.3 6l.8 2 .7-2.8.7-2.8h2.4c1.3 0 2.4.4 2.4.9 0 .4-.7 2.2-1.6 4l-1.5 3.1h-1.9c-1 0-2-.5-2.3-1.2l-.5-1.3-.7 2a18 18 0 0 1-1.6 3.8l-.9 2.1c0 .8 8.3.5 10.8-.5 1.4-.5 3.8-.7 5.4-.3l2.8.6v2.9l2.8-.8c2.4-.7 23.2-.7 41.3 0l6.5.2.3 2.4.3 2.4-2.6 1.8-19.6-.7c-10.7-.3-20.6-.6-22-.5a12 12 0 0 0-4.8 1.7l-2.4 1.6.7 4.7c1 6.4 1 9-.3 13.7-.6 2.2-.7 4.3-.3 4.7.4.5 2.6 1.1 4.7 1.5l4 .6-2.5-3 1.7-2.6 2.2.7 2.2.7-1 3.9h4.8v1.6c0 .8-.9 1.8-2 2s-2 1-2 1.5.4.8.8.8 2.3-.7 4.2-1.4l3.5-1.2 6.6 3 4.4-2.8 9.6-.2c5.2 0 10.4-.4 11.6-.8l2-.7 3.2 4c3.2 4 4 6.2 2.2 6.2-.6 0-2.6-.9-4.4-1.9l-3.4-1.8-17.2.3-1.5 1.3c-1.9 1.6-3.6 7.4-3.5 12 0 2 .6 4.3 1.2 5.2l1.2 1.6 13.4 1.3.6-.9c.3-.4 4.7-1.1 9.8-1.5 5-.4 10.2-1 11.3-1.2l2-.5 6.5 6.3v4.6l-1.8.6c-1 .3-11.7.3-23.8 0a403 403 0 0 0-36-.3c-2.7.2-10.2 0-16.5-.5l-11.5-.7-25.8 1.9-7.1-.9c-4-.5-11.2-1-16.1-1.2l-9-.3-7 2.8-6.6-.6-15-1.6c-8.3-1-14-.6-14 1 0 1-14.6 2.4-22 2-3.6-.3-17-.4-30-.3-13 .2-31.6.3-41.4.3h-18l-4 2a46 46 0 0 0-8.7 5c-1 1-6.9 4-7.9 4-.6 0-1.1-.9-1.1-1.9 0-1 .8-2.2 1.8-2.5 1-.3 4.2-2 7.2-3.6l5.5-3-8 .2c-4.4 0-10.3-.2-13-.6l-5.1-.8-4.5 1.7c-9 3.4-16.8 7.5-18.6 9.7-2.3 2.8-6.8 5.8-8.8 5.8-1.5 0-3 .6-13.3 5-2.9 1.3-5.5 2.1-5.8 1.8-.9-.9.6-3.6 2.4-4.1.9-.3 4.5-2.2 8-4.1 3.5-2 7-3.6 7.6-3.6.7 0 1.9-.7 2.6-1.5.7-.8 2-1.5 3.1-1.5s3-1 4.4-2.4a24 24 0 0 1 7-4.2c2.5-1 4.3-2 4-2.2s-5.6-.1-12 .3l-11.6.7 2 2.4-.8 1.2c-1 1.5-5.7 4.2-7.5 4.2-.6 0-3 1-5.1 2-2.3 1-4.8 2-5.8 2-1.7 0-2.8.4-7.5 2.8-1.2.7-3.3 1.2-4.6 1.2-1.2 0-2.7.4-3.2.9a23 23 0 0 1-5.8 2.1l-4.8 1.3-1-1c-.6-.7-.8-1.5-.5-2 .3-.6 3.1-1.5 6.3-2.2a109 109 0 0 0 31.7-11.8l2.8-2.3h-3.1c-1.8 0-4 .4-5 1s-3.5 1.1-5.5 1.4-5 .9-6.8 1.4c-1.8.6-5.5 1.3-8.2 1.7-2.7.4-5.6 1-6.5 1.6-1.7 1-13.1 4.6-22.6 7.3-9.8 2.7-16.9 4.8-19.5 5.7-1.4.5-6.8 1.8-12 3s-13 3-17.2 4.4-8.7 2.5-9.9 2.5c-1.1 0-1.8.4-1.5 1l.6.8h21.7c12 0 25.1.2 29.2.6l7.4.6 1.2-1c.6-.5 2.7-1 4.5-1.2l3.4-.3 2.3-2.1c1.3-1.2 3.5-2.5 5-2.8s4.7-1.7 7.4-3l4.9-2.4 2.3 2.8-5 2a81.7 81.7 0 0 0-6.5 3c-1 .6-2.2 1-2.7 1s-2.2.5-3.8 1l-2.8 1.1 1.6 1 1.6.8 10.4-.8c5.7-.5 11.5-1.2 12.7-1.6l2.2-.7v4.2h1.8c1 0 5.4-.4 10-1l8.2-.9 2-2c1.1-1.2 2.7-2 3.4-2 1.7 0 15-6 15.7-7.1.3-.4 3.4-2.2 7-3.9 3.4-1.7 7.4-3.1 8.7-3.1h2.3v1.2c0 .7-1.7 2-3.8 3-2 1-6.6 3.2-10.2 5.2-3.6 1.9-9.9 5-14 6.8l-7.3 3.3 11.8 1.4 3.7-2.5c2-1.3 4.2-2.4 4.8-2.4s1-.4 1-1c0-.5.5-1 1-1 1.5 0 12.2-5 14-6.6.8-.6 4-2 7-2.8 3.2-1 6.6-2.3 7.6-3.1 2.2-1.7 6-2 6.9-.5.3.5-.5 1.6-1.8 2.4-1.2.9-4.8 2.4-7.7 3.5-3 1-10.2 4.3-16 7.3l-10.5 5.3 9.6.6 4.7-2.1 6.4-3c1-.6 3.3-1 5.2-1 2 0 3.8-.4 4.1-1 .3-.5 1.3-1 2.2-1s5.5-1.8 10.2-4l10.6-5c6.5-2.5 13.6-5.8 17.5-8 2.5-1.5 5.8-3 7.2-3.3l2.7-.7.7 1.1.8 1.2-2 1.4c-1 .8-3 1.7-4.4 2-1.3.3-4 1.6-6 2.8a207 207 0 0 1-16.5 8c-7.2 3.1-16 7.1-19.8 9l-6.9 3.2 6.4-.5a31 31 0 0 0 9-1.8c1.5-.8 3.6-1.4 4.6-1.4 2.5 0 12-3.8 15.4-6.2 1.5-1 3.4-1.8 4.2-1.8s1.6-.4 1.6-1 .9-1 2-1c1 0 3-.9 4.3-2 1.4-1.1 3-2 3.7-2s1-.3 1-.8c0-.4 2.2-1.5 4.8-2.6l8.8-3.6c2.2-1 5.4-2 7.2-2.5 1.8-.3 3.5-1 3.8-1.6.3-.5 2-1 3.5-1h3v2.6l-12.8 5.4c-7 3-17.5 7.7-23.3 10.4l-17 7.8-6.5 2.8 21.5.1 3.8-1.7c2-1 4-2 4.3-2.3l5.3-3.8a22 22 0 0 1 6.1-3.2c.7 0 2.6-.7 4.2-1.5s3.6-1.5 4.4-1.5c.9 0 4-1.5 7-3.3l8.5-4.7c1.6-.8 4.8-2.6 7-4 5.4-3.5 11.1-6 13.5-6h2v1.6c0 .9-.9 1.8-1.9 2a75 75 0 0 0-8.3 4c-3.5 2-11.5 6-17.8 9a281.3 281.3 0 0 0-29.5 14.8l-2 1.5h15l5-3.9a24 24 0 0 1 6.1-4 111 111 0 0 1 18.8-9.5l9.1-4a87 87 0 0 1 9-3.6c2.2-.6 4.5-1.5 5-2 .6-.3 3.2-.9 5.8-1.2l4.8-.5-.3 1.5-.3 1.5-7 2.4a78.8 78.8 0 0 0-8.7 3.4A195.8 195.8 0 0 0 361 444a38 38 0 0 0-9.7 5.9c-.3.8-1.5 1.4-2.5 1.4s-2.3.5-2.7 1l-.6 1.1 22-.8 5.8-3.1 8.4-4.2a52 52 0 0 0 7-4c2.5-1.6 7.9-4.8 12-7.1a8969.2 8969.2 0 0 0 17.8-10c2-1.2 4.9-3.2 6.3-4.5 2.7-2.6 5.4-3.1 6.5-1.3.8 1.2-2.3 4.9-4.2 4.9-.8 0-1.4.4-1.4 1 0 .5-.5 1-1.1 1-.7 0-2.6 1-4.3 2.4s-5.3 3.5-8 5a326.7 326.7 0 0 0-32.1 18.6c.6 0 4.7-.4 9.3-1 4.5-.5 9.5-1.6 11-2.3 4.6-2.4 27.3-13.2 34.2-16.3 6.8-3 19.8-9.5 26.4-13.3 4-2.3 7.7-2.5 8.4-.5l.4 1.2-8.8 4.2a774 774 0 0 1-50 23c-2.4 1-4.7 2-5.3 2-.5 0-1.3.5-1.7 1.2l-.7 1.1 6.1-.6c6.7-.7 17.2-4.5 24.4-8.9a22 22 0 0 1 5.8-2.8c1.6 0 17-6.9 19-8.5a94 94 0 0 1 8-4c3.7-1.5 8.6-4 11.1-5.6 2.5-1.6 6.1-3 8-3.1l3.4-.3.4 1.6.3 1.7-3.3.7c-1.8.4-3.8 1-4.3 1.5A532.4 532.4 0 0 1 435 445c-5 2.1-9 4-9 4l8.7-.6 8.6-.7 3.8-2.6a19 19 0 0 1 4.8-2.7 469.8 469.8 0 0 0 37.9-18.5 14 14 0 0 0 3.9-1.9c1.4-1.1 7.2-3.4 10.9-4.3l2.2-.5v3.2l-11.2 5.5c-6 3-11.6 5.5-12.3 5.5-.7 0-2 .9-3 2-1 1-3 2.2-4.7 2.5a7.4 7.4 0 0 0-4.1 2.6c-.7 1-2.1 1.9-3.2 1.9-1 0-5.1 1.2-9 2.8l-7 2.7 8.5.6 10.4-5c5.6-2.8 10.8-5.1 11.4-5.1s1.2-.5 1.2-1c0-.6.8-1 1.7-1 1 0 3.2-.9 4.8-1.8l10.1-5.3 10.5-5.6c3.9-2.4 10-3.8 12.5-3l1.6.7-1.1 1.4c-.7.8-2.6 1.8-4.3 2.1-1.7.4-6.3 2.6-10.2 4.9a200 200 0 0 1-30.1 14.4l-8.5 3.5c-2.2.8 8 .8 17.8 0l8.2-.6 2.6-2.4c1.4-1.3 4.9-3.5 7.7-5 2.9-1.4 7.2-4 9.7-5.8s7.3-4.6 10.8-6.3a54 54 0 0 0 10-6.2l3.7-3 3.5.2c1.8.2 3.5.7 3.7 1.3.4 1-16.2 11.2-25.2 15.4a25.6 25.6 0 0 0-5.5 3 48 48 0 0 1-10.7 6.8c-1.8 1-3.3 2-3.3 2.5v.9l3.8-.7a14 14 0 0 0 5.3-2c.9-.8 2.1-1.4 2.8-1.4.7 0 3.1-1 5.4-2.4 2.3-1.3 5.3-2.7 6.7-3.1a51 51 0 0 0 8.4-4.6c3.2-2.2 6.1-4 6.6-4 .4 0 5-1.7 10.2-3.8 5.1-2.2 9.7-3.7 10.1-3.5.4.3.8 1 .7 1.7 0 .7-8 5.1-17.7 9.9a1281 1281 0 0 1-23.3 11.2l-5.5 2.4 3.3.1c3.9.1 9.2-2 11.1-4.2.8-1 2.1-1.7 3-1.7 1 0 6.5-2.3 12.2-5.1a548 548 0 0 0 31.7-16.1c1.4-1.2 6.3-.7 6.5.7.1 1-15.7 9.4-27 14.3-2.9 1.3-5.3 2.8-5.3 3.3 0 1.1 3.3 1.2 4.6 0 .5-.4 2.5-1.4 4.5-2s7.6-3.4 12.7-5.8c5-2.4 9.9-4.3 10.7-4.3.8 0 1.7-.4 2-1 .4-.5 3.2-1.6 6.3-2.5l5.6-1.7 4 1.8-5.4 1.8c-3 1-14.4 6.2-25.4 11.6l-20 10h8l4-2.5c2.2-1.3 4.7-2.4 5.7-2.5 1 0 1.8-.4 1.8-1 0-.5 4-2.8 8.7-5l10.8-5.2a31 31 0 0 1 11.9-4.8c1.4 0 2.7.4 3 .9.8 1.2-.4 4-1.6 4-1 0-10.2 4-19.7 8.3-2.4 1-5 2.6-5.8 3.4-.8.8-2.3 1.4-3.2 1.4s-2.6.7-3.7 1.5l-2 1.5 12-1.3 2-1.7a38 38 0 0 1 8-4 68 68 0 0 0 9.6-4.5c2-1.2 4.5-2.5 5.7-2.9l2.1-.7.6 1c.9 1.4-.4 4.1-2 4.1-.8 0-3.7 1.4-6.5 3.2a63.9 63.9 0 0 1-8.8 4.5l-3.6 1.3 11.2-.4a62 62 0 0 0 13.3-1.6l2-1 2 1 2 1v5.9l-8.8-.6c-4.8-.3-24.2 0-43.2.8-19 .7-48.5 1.3-65.6 1.5-38.2.2-58 .9-66.6 2.3a367 367 0 0 1-28 1.6 1098.8 1098.8 0 0 1-101.7 1.6l-16-.4-5.8 2.7a43.3 43.3 0 0 1-6.7 2.6c-.5 0-.9-.5-.9-1.1zm268.3-16 2-1-3-3-9.4 5.1h4.2c2.4 0 5.1-.5 6.2-1zm-512-25c-.3-.5-2-1-3.8-.9H26l1.5 1c.8.5 2.5 1 3.8 1h2.3zm163.6-4.9c0-1.6.6-5 1.2-7.5l1.3-4.6 3 .6v3a39 39 0 0 1-1 6.2l-.7 3.3h3c1.7 0 3.4-.4 3.7-.9.5-1-1.7-8.4-4.2-14-.8-1.9-3-5-5-7l-3.5-3.4-4.6.8c-2.6.5-7 .7-9.7.6a372 372 0 0 0-37.8.2c-3 .8-3.7 2.7-1.1 2.7h1.6l-.6 1.5-1.2 3-.6 1.5h2.4l-.5 2c-.3 1-.1 2 .4 2s.9.4.9 1c0 1.2-4 7-5.5 8.2-.6.4-.6.8-.2.8.5 0 2.1-1.4 3.7-3s3.5-3 4.4-3c1 0 2 .7 2.2 1.5.3.8 1.5 1.5 2.6 1.5h2l-.6 2.5-.7 2.6 5-3.3 4.6 2.6 13 .6 17.8.8 4.7.2zm-4.5-8.7c-1.7-2.6-2-8-.4-8.9 1.8-1 3.7 1.8 4.4 6.7l.6 4.5h-1.5c-.9 0-2.2-1-3-2.3zm-47 9.1 2-1.5-2.5 1.2c-3 1.4-3.6 1.9-2.4 1.9.6 0 1.9-.7 3-1.6zm-43.3-1.6 2.7-1 3.4 1.6c2 .9 5.2 1.6 7.4 1.6h4l9.5-6.3-.4-9.3-.3-9.4-3.4-3.3h-7.3a240 240 0 0 0-33 2.7l-1.7.7-5-2.2c-2.9-1.2-5.7-2-6.5-1.6l-1.4.5.4 24.1 2.7 3.3 12.2-1.3 2.5 1c2.7 1 9.9.5 14.2-1.1zm380-4.2 4.6-1.3 1.2-2.4a13 13 0 0 0 1.3-5c0-1.4-.7-3.4-1.6-4.5-.9-1-1.3-1.3-.9-.6.4.7.4 2.4 0 3.7l-.5 2.3-5.6 2.6a33 33 0 0 1-7 2.6c-3 0-1.2-2.7 3.5-5.5l4.9-2.8.6-2.9.5-2.8h2.9l.4-4 .3-4.2-2.5-2-5 1.2 1 2c.5 1 1 2.8 1 3.9v2H479c-2 0-6.2-3.3-6.2-4.8 0-.5 1.2-1.4 2.7-1.9l2.7-.9h-13.4l-2-1.8c-1.1-1-2-2.6-2-3.5a5 5 0 0 1 1.2-3c.7-.9-.3-.1-2.2 1.7l-3.6 3.2-11 2.3-27-1.3-3 3.1-3 3.1 1.8 1.3 1.7 1.3v2.9c0 1.6-.3 3.4-.7 4s-1.5 1.3-2.3 1.6l-1.5.6 3.5.2v5.2l-4.8-1 .5 1.4c.3.8 1.3 1.4 2.3 1.4 1 0 2.6.3 3.5.6l1.7.6-.7-3.5-.7-3.5 2.4-5.1 2.3-5.1h1.7c1 0 2 .4 2.4 1 .3.6 0 2.4-.6 4l-1.2 3 .6 2.4a8.1 8.1 0 0 0 3 4.1l2.5 1.6 6.6-.7-3.9-2c-2.1-1-4.3-2.7-4.9-3.5-.5-1-.7-2.4-.4-3.3.4-.9 1.6-1.6 2.7-1.6h2v4l4 2c2.2 1.1 4 2.5 4 3.1v1.1l17-1.4.7 1.8c.4 1 1.2 2.2 1.8 2.6.6.4 4.6.7 8.9.7 4.3-.1 8 .1 8.4.5l.7.6 4.6-1.4zm-22.6-6.3-.7-1.6 1.9-1.4c1-.7 3-1.3 4.6-1.3 1.5 0 3-.4 3.3-1 .3-.4 1.8-1 3.3-1.3a25 25 0 0 0 4.5-1.2l1.8-.7v4.2l-6.4 3c-3.6 1.6-7.6 3-9 3h-2.7zm-22.9-14.3-.6-1h1.6c.8 0 1.5.4 1.5 1 0 .5-.4 1-.9 1s-1.2-.5-1.6-1zm103.8 15.5 2-6.6 1-2.6-1.3-2.7-1.2-2.6-3-.2h-4.7c-.8 0-5.5-.9-10.5-2-5-1.2-11-2.2-13.5-2.4-2.5-.2-6.9.4-9.7 1.3l-5.3 1.6-.5 1.8c-.8 2.4.5 6.9 1.9 6.9.7 0 2.7-1.6 4.6-3.5 2-2 4-3.5 4.7-3.5 1.5 0 1.8 3.6.4 4.1-.5.2-1.2 1.8-1.5 3.5l-.7 3.2 2 .7c1.2.3 2.1 1.3 2.1 2v1.5h-3.8l-3.7.2 4.2.8c2.4.5 5 1.3 6 1.9l1.8 1 27.6-.4zm-7.6-1.4a6 6 0 0 1 .4-4c1.1-2.2 3.5-2.8 4.4-1.3.3.5.2 2.2-.2 3.8-.5 1.6-1.5 3-2.4 3.2l-1.6.3zM518.2 392l-5.3-1v-4l10.5 1.4 1.2 1.6c1.2 1.5.9 3.4-.5 3.1l-6-1.1zm-109.7 8.6c-.4-.4-.7 0-.7.7s.3 1 .7.6c.3-.3.3-1 0-1.3zm-272.3-5c-.3-.4-.6 0-.6.7s.3 1 .6.6c.4-.3.4-1 0-1.3zm3.7-10.3h2.5l.7-2 .6-1.9-1.6-3.3a158 158 0 0 0-3.6-6.8c-1-2-2-5-2-6.7v-3.1l-1.9-.5c-1-.3-4.7-.2-8.2.2l-6.2.7-9.7-1c-9.5-.9-15-.5-17.8 1.2l-1.4.9.7 4.1.7 4.2h3.8v1.3c0 .8-.6 2-1.4 2.6-.7.6-1.6 2-1.9 3.2l-.5 2 1.8-1.6c1-1 2.4-1.4 3-1 .6.3.9 1.4.6 2.4l-.6 1.8 1.8.5c1 .2 5 0 8.8-.4 3.8-.5 9.9-.6 13.5-.3 6.6.7 12 2.7 12 4.5v1l2-1c1-.6 3-1 4.3-1zm45.8.3c1.9-1 4.4-2.7 5.7-4l2.2-2.4-.9-3.7a60 60 0 0 0-2.5-7.5l-1.6-3.8-2.7.1c-1.6 0-5.3.5-8.3.9l-5.5.8-10.8-4.8-4.2.6c-2.3.3-4.6 1-5.1 1.3-.5.4-2 2.1-3.3 4-1.2 1.8-2 3.6-1.7 3.9.3.3 1.4-.2 2.5-1.2 2-1.8 4-1.4 4 .8 0 .7-1 2.4-2.4 3.7-1.4 1.2-2.5 3-2.5 3.9v1.6l2.3-2.6a13 13 0 0 1 4-3.2l1.8-.7 1.1 3-4.4 3.8 5.7.7-.3 2.2c-.2 1.3-.1 2.3.1 2.3l3.8-1.5 3.4-1.4 2 1.4a10 10 0 0 0 5 1.5c1.6 0 3.7.4 4.5 1a7 7 0 0 0 3.1 1c.9 0 3.1-.8 5-1.7zm-2.1-9.6-.4-6-.4-4.8h1.8c1 0 2 .8 2.4 1.6.3.9.6 3.6.6 6v4.5h-2c-1 0-2-.6-2-1.3zm315.5 5.3c3-1 6.8-2.2 8.5-2.5l3.3-.7v-3.3c0-1.8.6-4.5 1.4-6.1l1.4-3-.8-5.2c-.5-2.8-1.6-6.8-2.5-8.7-1-2-2.5-3.8-3.6-4s-3.3-.3-5.1.2-7.7.7-13 .4l-9.7-.4-2.6 2c-1.5 1.2-4 2.4-5.6 2.8l-3 .6v1.7a131 131 0 0 1-1 10.6l-.4 2h1.4c.8 0 1.8 1.2 2.2 2.6.3 1.3.7 1.9.8 1.2 0-1.4 3-1.7 3-.4 0 .5 1 1.2 2 1.4 1.2.3 2 1.3 2 2.2v1.6h-4v3.7l4.3-1c2.4-.4 6.2-.6 8.5-.2l4.3.6 1 2c.6 1 1.2 1.9 1.5 1.9l5.7-2zm-16-7.2c-3.4-1-5.7-4-4.8-6.4.7-2 3.5-1.8 4.2.1.4 1 2.7 2.5 5 3.5l4.5 2-.6 1c-.8 1.2-3.8 1.1-8.3-.2zm-14-10 .3-3.4h3v6l-3.7.7zm38.1-3.5c-.8-2 1.1-3.8 3.1-3 2.3.8 2 3.3-.5 4l-2 .5zm-1.7-6c-1.1-1.2-.7-2.4.9-2.4.8 0 1.5.5 1.5 1 0 1.2-1.6 2.1-2.4 1.3zm22.3 28.3c-.2-.2-2.2-.7-4.4-1l-4-.7 1.5 1a9 9 0 0 0 4.4 1c1.6 0 2.8-.1 2.5-.3zm-72.3-9.2c3.7-4.6 6.2-10 5.9-12.6-.2-1.3-.8-3.7-1.3-5.4l-1-3-12 .2-8.8 3.6-8.2.5c-4.6.3-8.3 1-8.3 1.4s-1.3.8-3 .8h-3v2c0 1 .7 2.3 1.6 2.8l1.5.9.4 3.7.3 3.8-1.5.6-1.6.6-1.3-1.9-1.4-1.8v4.1l1.8.8c3.2 1.3 24.5 3 31 2.4l6.5-.5 2.4-3zm-32-4c-.4-.5-.7-1.4-.7-2.1v-1.3h4.2l-.4 1.6c-.3 1.9-2 2.8-3 1.7zm25.3-3.7c0-.7-.3-2.3-.6-3.5l-.6-2.3h4.2v7h-1.5c-.8 0-1.5-.5-1.5-1.2zm6.9-3.4-1.4-2.9-2.3-.3-2.3-.3.4-1.2c.5-1.6 5.2-2 7.8-.7l2 1.2-.2 3c-.2 1.8-.9 3.4-1.5 3.6-.7.2-1.8-.9-2.5-2.4zm17.8 11a1 1 0 0 0-1.3 0c-.4.4 0 .7.7.7s1-.3.6-.7zm-327.4-8.3c.3-.6.4-1 .1-1-.3 0-.8.4-1.1 1-.4.5-.4 1-.1 1 .2 0 .7-.5 1-1zm40.3-7.5 1-2.4-1.4-6.3-2.4-9.5-1-3-4-1.3c-2.2-.6-4.6-2-5.3-3.1l-1.2-2h-4.6a32 32 0 0 1-9-1.5c-2.2-.8-5.4-1.5-6.9-1.5s-4.5 1-6.8 2c-2.3 1.1-5 2-6 2s-3 1.2-4.5 2.5a28.7 28.7 0 0 0-4.6 7.8l-2.2 5.2 6.7-7.8 1.2.7c.6.4 1.2 1.2 1.2 1.7s-2 3.5-4.5 6.5-4.5 6-4.5 6.5c0 2.2 2.2.6 6-4.6 2.3-3 4.8-5.5 5.5-5.5 2.3 0 2.8 2 1 4l-1.6 1.8 5-1v1.7c0 1-1 2.6-2.2 3.6l-2.2 1.9h2.8c1.5 0 3.6-.4 4.6-1l1.9-1 10.6 3.3 5.6-.7c3-.3 6.9-.2 8.5.3l3 .9 2.3-.9 2.3-.8 1.7 1.9c1 1 2 2 2.3 2 .3 0 1-1 1.7-2.4zm-26.2-4.5c-2.7-.3-5.1-1-5.3-1.7l-.4-1.1 14.6-1 2.5 2-1.1 1.4c-1.2 1.4-2 1.4-10.3.4zm20-6.3-1.7-1.3.6-8h3v2c.1 1.1.5 3 1 4.4l.7 2.3-.9 1-.9.8zm-59.6 4.8c0-2.4.4-4.7.8-5s1.2-2.2 1.6-4.2l.7-3.7-2.8-2.4a15.8 15.8 0 0 0-5-3 18 18 0 0 0-6.8.6c-2.4.6-6.6 1.1-9.3 1.1-2.6 0-7.3-.6-10.2-1.4l-5.5-1.4-3.5.6c-2 .3-4.2 1-5 1.6-.7.6-1.7 2.1-2.2 3.5l-1 2.4 2.2 2.5-1.3 5.2h1c.7 0 1.6-.9 2.2-2 .6-1 2-2 3-2h2v3.9l-6.2 4.4 2.6 1.6 2-1.4c2.3-1.6 5.6-2 5.6-.5v1l7-1.2 1.8 1.5c1 .9 3.3 1.7 5.2 2l12.3.5 8.8.3zm16.3 2 .6-1.5-1.5.6c-1.6.6-2 2.3-.5 2.3.5 0 1.1-.6 1.4-1.4zm300.7-3.7 3.7-2.2h10.5a160.3 160.3 0 0 1 15.7.5l3.2-.2.7-2.2a11 11 0 0 1 2.5-4l1.8-1.7-.8-3.5c-.4-1.9-.6-3.7-.3-4 .2-.2 0-.7-.7-1l-1-.7v6.2l-1.6.6a3 3 0 0 1-2.6-.4c-.6-.6-1.2-3.1-1.4-5.6l-.4-4.5 4.4-1.1 1.7 2.4-.4-1.5-.4-1.5-2.4.4c-3.8.6-12.4.4-26.7-.4l-13.3-.7v1.1c0 .6-1 1.1-2.3 1.1-1.3 0-3 .8-3.8 1.8-1.6 2-3.9 6-3.9 6.7 0 .3 1 .5 2 .5h2v2a7 7 0 0 1-2 4c-1 1.1-2 2.8-2 3.7 0 .9 1.3 2.7 2.8 4l2.7 2.3h8.5l3.8-2.1zm-12.8-6.4v-1.5h4v3h-4zm35.8-4.2a52 52 0 0 0-3.2-5.5l-1.8-2.8 1.6-.6a5 5 0 0 1 3.2 0c.8.3 1.8 2 2.1 3.6a8.6 8.6 0 0 0 2 4.1c.7.7 1.4 1.8 1.4 2.6v1.3H462l-1.4-2.7zm35.2.2 2-3.6V332a14 14 0 0 0-.7-5.2 13 13 0 0 0-3.1-2.3l-2.4-1.4-3.6 1.5a39 39 0 0 1-5.3 2l-1.7.6.4 5.3c.2 3 .9 5.5 1.4 5.7.6.1 1 .9 1 1.6v1.3l3.8 1c2 .6 4.3 1 5 1.1.6 0 2-1.5 3.2-3.4zm-313.5-10.1a1 1 0 0 0-1.4 0c-.3.3 0 .6.7.6s1-.3.7-.6zm-47.5-2c1-.6 3.8-6.5 3.8-8 0-.8-1-3.3-2-5.7l-2-4.3.4-5.3.5-5.2-1.2-.3-6.8-1.4-5.6-1-7.6-5.2H111c-3.6 0-7.6 2.4-7.6 4.6 0 .8-.6 2.5-1.4 3.7l-1.5 2.2 1.4 6.5 2 11.7.7 5.1 6.2 1.2c3.5.7 7 1.6 7.7 2.1l1.5 1 7-.7a53 53 0 0 0 7.7-1zm43.2-5.4 2-1.9v-7.2l.1-7.1-5.1-4-9.1 2.4-5.3-1.6c-3-.9-6.8-1.6-8.5-1.6H149l-2.3 3c-1.2 1.7-3 3-3.9 3h-1.7l1.7 1c1 .7 1.8 1.8 1.8 2.6s.4 1.4 1 1.4 1-.4 1-1c0-1.3 3.7-1.3 4.5 0 .4.6 0 1.8-.6 2.6l-1.3 1.6 3.9-.7-.4 3 3.5 2.3c2 1.2 3.9 2.2 4.3 2.2.5 0 2.2.7 3.7 1.5l2.9 1.5 9-1.2zm-32.8.4a1 1 0 0 0-1.3 0c-.4.3 0 .6.7.6s1-.3.6-.6zm6-1.9c.9-.8 1.1-1.5.6-1.5s-1.5.7-2.2 1.5c-.7.8-1 1.5-.6 1.5s1.4-.7 2.2-1.5zm335.2-1.8 2-1.1 11-.4c6-.2 11.3-.8 11.6-1.3.9-1.4-.9-12.8-2.7-17.6l-1.6-4.3-2.4-.6c-2.6-.7-6.8-.2-15.2 1.6l-5.4 1.1-24-.6.7 8.5a99 99 0 0 0 1 10.1c.3.9 1.7 2.2 3.2 3 1.5.8 3.2 2 3.8 2.6.5.7 3 1.4 5.5 1.5a22 22 0 0 0 12.5-2.5zm-22.9-14.4c-.3-.3-.6-1.4-.6-2.5v-1.8h1.9c1 0 2.2.5 2.6 1s0 1.8-.6 2.6c-1.3 1.5-2.2 1.8-3.3.7zm-32.7 15.8c0-.5-.5-1-1.1-1.3l-1.1-.4 1.4-8.5 2.2.3 2.1.3-.2 3.4c-.2 2-.8 4-1.3 4.7l-1 1.1 6.2.7c8.9 1 13.6.8 14.4-.4 1-1.6 1.5-22.3.7-23.6l-.8-1.2-8.2.8c-4.5.4-8.9 1.3-9.7 2a8 8 0 0 0-2.1 3.1c-.7 2.1-3 2.6-3.8.7l-.4-1.3-1.4 1.3-1.3 1.2 1.2 1.2c1.5 1.5 1.6 5.8.2 9.5a10 10 0 0 0-.5 5l.6 2.3h2c1 0 2-.4 2-.9zm-259.5-25.2 1.8-3 2.8-.6c1.5-.3 3.2-1.3 3.6-2.2.5-.9 1-3.8 1.4-6.4l.5-4.8-5-2 .7-1c.3-.5.2-1-.4-1s-2.3-1-3.9-2.4l-2.9-2.4-15 .1-2-1a9.8 9.8 0 0 0-3.8-1.2 5 5 0 0 1-3.1-1.5l-1.4-1.4-7.5 1.1-1.6 2c-1 1.2-2.1 1.8-2.7 1.4-.5-.3-1.8.2-2.9 1.2a29 29 0 0 0-6.3 12.2c0 1 .3 2.1.8 2.4 1.4.9 3.1-1 6-6.5l2.7-5.4 4.5-.7v1.8c0 1-1 2.8-2.1 4a20 20 0 0 0-3.4 6l-1.3 3.9-4.4.7.4 2.1.3 2.2 4.5.6V291c0-2.7 3.1-9 4.8-9.6l1.2-.4v2.6c0 1.3-.5 2.8-1 3.1-.6.3-1 1.4-1 2.3v1.6l3.4-3.8c3.6-3.9 6.2-4.3 5.9-1-.1 1 .5 2.3 1.3 2.7.7.4 1.4 1.4 1.4 2 0 .7-1 2-2.1 3s-1.8 2.2-1.4 2.5 2-1 3.8-3c1.8-2.1 3.7-3.8 4.4-3.8 1.8 0 1.6 3-.4 5.2l-1.6 1.8h1.6c1 0 2.6-.6 3.8-1.2l2-1.3 1.2 1.6c1.3 1.8 3.6 2.6 7.9 2.8l2.7.1zm-.3-11c-.3-.6 0-1.8 1-2.7l1.6-1.6 1.1 1.1c.7.6.9 1.9.6 2.7-.7 1.8-3.3 2.1-4.3.5zm9.3 13.4a1 1 0 0 0-1.4 0c-.3.4 0 .7.7.7s1-.3.7-.7zm-39.4-6.4c-.5-.5-1.4-.4-2.2 0l-1.3.8 2.6 4.3.8-2.2c.5-1.2.5-2.5 0-3zm304.1.2c3.7-.4 7-1 7.4-1.3a114.5 114.5 0 0 0-2.7-25.1c.1-.5-.6-2.3-1.6-4l-2-3.6a35.1 35.1 0 0 0-13.2 5.3l-3.1 2.3 3 1.2v4.9l4 1v2.5c0 3.6-1 5.7-2.6 5.7h-1.4l-.1-3.3-.1-3.2-.7 4c-.8 4.5-2.7 8.5-4 8.5-1.1 0-1-8 0-9.5.5-.6.4-1.7 0-2.5l-1-1.5-.8.8c-.4.5-.8 4.3-.8 8.6v7.8l3 3.5 5-.7 11.7-1.4zm-13-3.7-.9-1.6 1.1-2.4c.6-1.3 1.7-2.4 2.4-2.4h1.2v8h-1.4c-.8 0-1.9-.7-2.4-1.6zm57.4 1.6a58 58 0 0 1 11.5-.8c15.8.3 21 0 25.4-1.2l4.5-1.2 3.4-8.9-1.1-5.2a62 62 0 0 1-1.4-7.7l-.3-2.5-11 .6-10-3.1a42.3 42.3 0 0 0-11.5-2.5c-.8.3-6.2 1-12 1.5l-10.5 1-.4 1c-.1.5-1.4 1-2.7 1h-2.4v3.5c0 1.9.8 6 1.9 9.2 1 3.2 2.2 7.7 2.6 10l.6 4.3-2.6 1a16 16 0 0 1-4.6 1h-2v-2c0-1.1.5-2 1-2 1.3 0 1.4-5.5 0-7.8a79 79 0 0 1-2.3-7.6l-1.4-5.9 1-3.4c.4-1.8.6-3.8.2-4.3-.3-.6-3-1-6-1s-5.5.2-5.5.4l1.7 6.8c.9 3.4 2.4 10.8 3.3 16.3l1.6 10 2.5.7c3 1 21 .1 26.5-1.2zm-13.5-11.6c0-.9.5-1.4 1.2-1.2 1.8.6 2.1 2.8.4 2.8-1 0-1.6-.7-1.6-1.6zM123.5 286c0-.5-.4-.5-1-.2-.5.3-1 1.4-1 2.3v1.7l1-1.5c.6-.8 1-1.9 1-2.3zm-29.7 1 8 .3a42 42 0 0 0 9.8-1.7l6.5-1.8.3-3.5a15 15 0 0 1 2.2-6.1c1.1-1.5 2-3.2 2-3.8 0-.6 2.7-4 6.1-7.6l6.2-6.6 11.8 1.4-.6-8.8-2.5-.4c-1.4-.1-3-.7-3.5-1.2-1.4-1.4-8.3-1.1-14.3.5l-5.2 1.4-6-.4a26 26 0 0 1-7.1-1 34 34 0 0 0-8.6.1l-7.6.7-2 2.4c-1.2 1.3-2.9 2.4-3.8 2.4-1 0-2.1.8-2.6 1.7-.4 1-.8 7.7-.8 14.9v13l-2.5 3 2.4 2.6 3.5-.8c2-.4 5.7-.7 8.3-.6zm334.4-20.6c-.2-.3-.9 0-1.5.6l-1.1 1.1 1.6 2.6.7-2c.4-1 .5-2.1.3-2.3zm-245.6 1a36 36 0 0 0 1.9-8l.8-6.1-1.3-1.8c-.7-1-1.4-3.4-1.6-5.2l-.3-3.4-3.2-1c-1.8-.6-4-1.8-5-2.6-4-3.4-7.4-5-10.3-5h-3l-.7 1.7c-.3 1-1.8 3.1-3.4 4.8l-2.7 3-.3 8a163 163 0 0 0 0 9.3c0 .7 1.7 2 3.6 2.7l3.5 1.5L171 264l3.5 2.5c2 1.4 4.3 2.6 5.2 2.6 1 0 2.2-.8 2.8-1.9zm-3.5-16.4c-.4-.9-.3-2.2 0-2.8l.8-1.2 1 1.7 1 1.8-2.2 2.1zm-22.5-4.6c0-2.3 3.5-6.8 4.2-5.5.3.5.1 2.3-.4 4.1l-.9 3.3h-3zm279 8.7c2.6-.6 5.4-1.7 6.1-2.4l1.4-1.2-1.4-3.1c-.7-1.7-1.7-3.1-2-3.1-.5 0-1.1-1.9-1.5-4.2l-.7-4.2-3.3-3.5c-1.9-2-3.4-4-3.4-4.6 0-.6 1.6-3.6 3.5-6.6 2-3 3.5-5.7 3.5-6 0-.4-1.1-1-2.5-1.4l-2.6-.6-8.9 5.6-1.3 5a57 57 0 0 0-.2 21.5l.7 5.5 2.7 2.2a10 10 0 0 0 4 2.2c.7 0 3.4-.4 6-1zm44.8-2c.4-.6.7-5.1.5-10l-.1-9 1-1.4c.7-.7 1-2.6.9-4.1l-.3-2.8-12.7-.4-4.2-2a45.6 45.6 0 0 0-6.9-2.7l-2.7-.7v5.3h-3.3a11 11 0 0 1-4.4-.8 10 10 0 0 1-2.3-3l-1.2-2.3-2 1.4c-1.1.8-2.7 2.7-3.4 4.1l-1.4 2.7 4.6 5 1.8-2.1c1-1.1 2.7-2 3.7-2h1.8v3.8l-3.2 2.5c-1.7 1.4-2.9 2.9-2.5 3.3.4.4 1.6 0 2.6-1l1.9-1.7 1.6.6c1 .4 1.6 1.2 1.6 1.8 0 .7-1 2-2.4 3l-2.5 2 1 1.7c.5 1 1.7 2.6 2.6 3.5l1.7 1.7-1.8 1.4-1.9 1.3 1.6.6c.8.3 3.4.1 5.8-.5l4.2-1.2 6.6.7c3.7.4 7.6 1.1 8.7 1.5 2.8 1.2 4.3 1.1 5-.1zm-349.3-10.8h12.8l1.4-2c.8-1.1 2-2 3-2 .7 0 3-1.8 5-4l3.6-4h2.2c1.3 0 2.7-.6 3.2-1.3.6-.7 1.3-2.6 1.7-4.2s1.9-4.5 3.2-6.3c1.4-1.8 2-3.3 1.5-3.3s-1.1.5-1.1 1c0 1.8-6.4 2-20.5 1-7.7-.6-17.5-1.2-21.7-1.4l-7.7-.4-4.8 3.7-1.2 6.6-1.2 6.7.6 3.5.7 3.5 1.6.5c1 .3 2.8 1.1 4.2 2a7 7 0 0 0 4 .8c.8-.2 5-.4 9.5-.4zm56.8-4 2.3-.8 1.3-4.4a47 47 0 0 1 3.1-7.8c3.3-6.2 6-12.7 6-13.9 0-.6.5-1.2 1-1.2.6 0 1-.9 1-2s-.4-2-.9-2-1.2 1-1.6 2c-.3 1.1-1.2 2-2 2h-1.3l-.6-3.7-1.2-5.5-.5-1.8H190c-4.4 0-9.5 1.7-9.5 3.1 0 .4.6 1 1.3 1.2l1.2.5-5.9 10.7.2 2.8c.2 1.6-.2 3.7-.8 4.8-1.2 2.2-5 2.7-5 .7 0-1.5-3 3.3-3 5 0 .6 1.5 1.9 3.4 2.8a34 34 0 0 1 7.3 5c2 1.9 4.3 3.4 5 3.4.7 0 2.3-.3 3.6-.8zm-.6-11.7c-.4-.4-.7-1.5-.7-2.5v-1.8h2c1.1 0 2 .3 2 .8 0 .4-.6 1.6-1.3 2.5-.7 1-1.6 1.4-2 1zm-7.7-12.2v-3l1.5-.5c2.3-.9 2.9 1.2 1 3.9-.8 1.3-1.7 2.4-2 2.4-.3 0-.5-1.3-.5-2.8zm328.8 6.7c.5-.5 1-4 1-7.8v-6.8l-3.8-4.3 2.7-5-2-2c-1-1-3.4-2.1-5.3-2.3l-3.4-.4-.9-1.6c-.5-.9-3.1-2.3-5.8-3l-5-1.6-7.8.6c-4.2.3-12 .6-17.2.6h-9.6l-10-4.4-10.5 1.4.6 2.1c.4 1.2 1 2.3 1.6 2.5s.8 1 .8 2v1.8l6-.9v1.4c0 .7-1.4 2.5-3.2 4-1.8 1.5-3 3-2.5 3.4.3.4 1.8 0 3.3-1 1.4-1 3.2-1.5 4-1.2l1.4.6-2 5.5 4.3 3.5h-1.7c-.8 0-1.6.5-1.6 1 0 .6 1 1 2 1 1.1 0 2 .4 2 .8 0 1.6 4.3 3.3 11.1 4.3 3.9.5 8.3 1.6 9.8 2.3 1.4.8 6.4 1.7 11 2l8.4.7 3.8-4.4 3.7 1.3a19 19 0 0 1 6 3.7l2.4 2.4 2.7-.7a10 10 0 0 0 3.7-1.5zm-86.9-7c-1.4-.9 0-4.1 1.6-3.6.7.3 1 1.2 1 2.2l-.4 1.7 7.2-7.1-3.3-5-.2-4.9-.2-4.9-2.2-2.3c-1.2-1.3-2.2-3.1-2.2-4s-.3-2-.7-2.1c-.4-.2-2-2.6-3.3-5.3-2.5-5-8-11.6-9.6-11.6-1.5 0-7.4 4-7.4 5 0 .4 1.8 0 4-1.1l4.2-2 1.4 1.2c2.8 2.3 2.2 2.6-8.6 4.3a9 9 0 0 0-2.8 1l-1.3.8.6 2.8.6 2.7-3.2 1.4c-1.8.7-2.7 1.5-2.1 1.7.6.2 2.1-.3 3.4-1.1 1.3-.8 3.8-1.8 5.6-2.2l3.4-.7-2 3.9-5.6 1.9c-5.3 1.8-6.6 3.3-3.6 4.2l1.3.5-.6-1-.7-1 4.5-1.2c2.4-.6 4.9-1 5.4-1 .6 0 1.1.4 1.1 1 0 1-3 2.5-7.2 3.4-1.6.3-2.8 1-2.8 1.6v1l8.3-1.4-.5 1.4c-.2.8-1.5 1.6-2.8 2l-2.3.5 3.5 3.5c5.1 5.2 8.8 10.4 8.8 12.5 0 1 1 2.8 2 4l2.2 2.3 6.5-4.4zm-18.7-35.2c0-.8 1.2-1.9 2.6-2.5 1.4-.7 3-1.2 3.5-1.2s1 .7 1 1.4c0 .8-1.5 2-3.2 2.5l-3.5 1.1c-.2 0-.4-.6-.4-1.3zm-238.4 33.4c1.8 0 9.3-7.8 12-12.6l2.4-3.8-1.2-2.1a10 10 0 0 0-4.1-3.5l-3-1.3.6-8.2-4-1c-6-1.3-12-1.2-14.7.3-2.4 1.2-4.8 6-4.8 9.3 0 .9 1.1 2.3 2.5 3.2 1.3 1 2.8 1.6 3.2 1.6.4 0 1 1 1.3 2.2.3 1.3 1.2 2.3 2 2.3 1.8 0 3.3 2.2 2.5 3.5-.8 1.4-3.7 1.2-5.6-.2a9.4 9.4 0 0 1-2.3-3.2l-.7-1.9-2.2 2.2 1.6 2.5 1.6 2.5-5.4.6-.3 2.2-.3 2.2 2.1 1.2a32.4 32.4 0 0 0 16.8 2zm-10-1.7c-2-.6-3.1-3-1.7-4 .5-.3 2.3 0 4 .7 4.5 1.8 2.6 4.6-2.3 3.3zm59-15.1c3.2-3.2 7-7 8.7-8.5 4-3.5 7.6-8.3 7.6-10 0-.8-.5-1.9-1.1-2.5s-1.3-3.6-1.5-6.7a18 18 0 0 0-1.5-7.1l-1.1-1.4-1.7.9a88.3 88.3 0 0 1-20.2 6.7l-10.2 2-2.8.5v1.4c0 .8-.9 2-2 2.7-1 .6-2 1.8-2 2.5s-.4 1.2-.8 1.2c-1.3 0-3.2 4.8-3.2 8 0 1.7 1 4.6 2.3 6.5l2.2 3.5 2.5-.1c1.4 0 3.9-.4 5.5-.9l3-.7-4.5-1.5v-3.8h1.5c.8 0 2 .8 2.7 1.8.7 1 2 2.1 3 2.5l1.6.6-.5 2.4-.4 2.4 1.6 1.7a6 6 0 0 0 3.7 1.6h2zm-28.8-7.7c0-1.9.4-3.7 1-4l1-.7-.6-2.8-.6-2.9 2.1-2c1.2-1.2 2.6-2.2 3.1-2.2 1.5 0 1.2 3-.5 4.7l-1.6 1.5.6 1.9c.4 1 .1 3.7-.5 5.9l-1 4h-3zm12-4.6V181l1.3.4a2 2 0 0 1 1.2 1.7 2 2 0 0 1-1.2 1.8l-1.3.4zm332.3 3.5c3.6-.8 8-1.4 9.8-1.4h3.2v-2.8c0-1.5-.7-4.6-1.5-6.8a28 28 0 0 1-1.5-7.7v-4l-4.2-4.2-15.6 1.4-.6-1c-.4-.7-2.6-1.2-5-1.2-4.9 0-11.8-1.8-12.8-3.3l-.7-1-2.6 1.1a16 16 0 0 1-6 1.2c-1.9 0-3.6.4-4 .9-.2.5-1.7.6-3.3.4l-2.7-.5 1.2 1.3c1.6 1.7 1.6 6.1 0 7.7l-1.1 1.2h1.2c.6 0 1.2-.4 1.2-1 0-1.7 5.6-3.9 11.1-4.2l5.4-.3v4l-5.3.7a17 17 0 0 0-6.8 1.9 15 15 0 0 0-3 4.7l-1.4 3.4 3.2 4.8h2.1c1.2 0 4.7 1 7.7 2l5.5 2h16.4l.6 1c.3.6 1.2 1 1.8 1 .7 0 4.1-.7 7.7-1.5zm-32.8-7.1c-.7-.3-1.2-1.9-1.2-3.5v-2.9h1.3c.7 0 2.4 1 3.9 2.1l2.6 2.2-.5 1.3c-.5 1.4-3.6 1.8-6 .8zm15.2-2.8c-.3-.8-.3-2 0-2.5l.7-1 2.2.8c1.2.5 2.2 1.5 2.2 2.2 0 .8-1 1.6-2.3 1.7l-2.2.4-.6-1.6zm-332.7 8.4c0-.5-.4-1-1-1a1 1 0 0 0-1 1c0 .6.5 1 1 1 .6 0 1-.4 1-1zm292.5-3.6 8.8-.7-3-3.3.4-8.2.3-8.2-5.2-5.8-15.1-1.2-12 1.1a299 299 0 0 1-19 1.4c-3.9 0-7.5.4-8 .7-.6.4-1.2 2.1-1.3 3.9l-.2 3.2 3.6-1v5.2l1.8-.3c1-.2 2.6 0 3.5.3l1.6.6-2.5 2c-1.3 1-2.2 2-1.9 2.4.4.3 1.8.1 3.2-.4l2.6-1 .7 1c1 1.7-.4 4-2.6 4h-2l3.4 4.5 11.6-3 15.5 4.3 3.5-.4 12.3-1zM459 164.2l-1.3-.8 1.2-.8c.7-.4 1.7-.3 2.2.3l1 1-.9.5c-.5.3-1.4.2-2.2-.2zm-335.3 15.5 4.5-1.4-8-.7-.4-1.7-.3-1.8h11.4l-.5 2-.6 2.1 6.4-.6v-3.5c.1-6 .4-7 2-7 .7 0 2-1.2 2.7-2.7s2.6-3.4 4.2-4.2l3-1.4 1.5 1c.9.6 1.7 2.2 1.9 3.7.2 1.4.7 2.6 1.2 2.6l5.9-1.2 5-1.1 2 1.8c1.2 1 2 2.4 2 3 0 .7-.6 1.8-1.4 2.5-.8.7-1.5 1.7-1.5 2.3v1l2.2-.7c1.3-.4 3-.8 3.9-.9s2.9-1.5 4.6-3.2l3-3 5.7-1.7a19 19 0 0 1 6.6-1.3c.4.3 4 0 7.8-.4l7-.9 1.8-1.6 4-3 2-1.6-4 .2c-2.3 0-6.5-.4-9.4-1.1l-5.4-1.3-7.6.6-13.3 1.2-5.7.6-1.4-8.1-2.6 1.8-2.7 2-8.2 1.1c-4.6.7-9.5 1-11 .5a77 77 0 0 0-12.2-.6h-9.4l-3 2.5.7 3c.4 1.7.8 5 1 7.1l.2 4-2 4.5-2.4 5.2c-.3.5 1 1.1 3.7 1.7.3 0 2.6-.5 5-1.3zm58.8-20.3c.7-.3 1.6-.2 2 .1.3.3-.3.6-1.4.5h-1.9zm207.3 19.1 3.3-1.6 1.3-3.2c.8-1.8 2-3.8 3-4.5.8-.7 1.5-1.7 1.5-2.2 0-.4-1.2-1.4-2.7-2a18 18 0 0 1-5.1-4.9l-2.4-3.5h-2.1l-7.8-.9-5.5-.7-6 2.5 2.3.4c1.3.2 2.3.8 2.3 1.3s-1.6 2-3.6 3c-3.6 2.2-4.2 4-.6 2 1.1-.6 2.5-1 3.1-1s1 .8 1 2v2h-2c-1 0-2 .4-2 1 0 .5.9 1 1.9 1h1.8l1.3 2.4a11 11 0 0 0 5 3.9c2 .8 4.5 2.2 5.6 3 1 .9 2.2 1.6 2.6 1.6.3 0 2-.7 3.8-1.6zm-206.1-6.1 2.5-2.3h-1.7c-2 0-4.3 3.2-5.2 7l-.6 2.5 1.2-2.5a19 19 0 0 1 3.8-4.7zm58.5.8c.3-.5 1.8-1.2 3.3-1.5A66 66 0 0 0 257 167c1-.5 2.4-.9 3.2-.9a41 41 0 0 0 13-3.3l1.6-1.2-2-4.2c-1.1-2.3-2-4.7-2-5.2 0-.6-.5-1.1-1-1.1s-1-1.2-1-2.8v-2.8l-6-3.5v-4.2l-1.9 1.6c-1 1-2.1 1.7-2.5 1.7s-3 1.6-6 3.5l-5.1 3.5h4.5v1.5c0 .9-1.3 2-2.8 2.8a21 21 0 0 0-5.4 4c-1.5 1.5-3.4 2.7-4.2 2.7s-1.6.6-1.6 1.4-1 1.6-2 1.9l-2 .5v-2.3a8 8 0 0 1 2.1-4.5c1.2-1 2.6-2 3-2a18 18 0 0 0 4.7-2.6c2-1.5 2.8-2.3 1.7-2a41 41 0 0 1-4.8 1.3c-1.5.3-2.7.9-2.7 1.3s-1.4 1-3 1.3l-2.9.6.5 3.8.8 8.6.3 4.8 1.9 1.4c2 1.6 6 2 6.8.6zm-1-5c-.3-.6 0-1 .5-1 .6 0 1 .4 1 1 0 .5-.1 1-.4 1-.2 0-.7-.5-1-1zm12-3.3c-.2-.7-.5-3.5-.7-6.3l-.2-5 3.5-.6v1.6a9 9 0 0 0 1.6 4c.9 1.4 1.3 3.1 1 4a7 7 0 0 1-2.6 2.5l-2 1.1zm-93.4 6.3c1.3-1 2.2-2.1 1.9-2.4-.8-.8-7 2.1-7 3.3 0 1.6 2.5 1.2 5.1-.9zm-12.1-5.2v-3l-1 .6c-.6.4-1 2-1 3.6v3l1-.6c.5-.3 1-2 1-3.6zm262.7-3.1 1-5 .6-3.8-4.3.1a34 34 0 0 0-7.1.8l-2.9.6 3 2.9c3 2.8 6.8 5.3 8.5 5.5.4 0 1-.4 1.2-1.1zm-44.6-2.8c.8-.5 1.3-1.1 1-1.4-.3-.3-1.5 0-2.5.9-2.1 1.6-.8 2 1.5.5zm-77-1 1.5-1h-1.6c-1 0-3.2-.3-5-.7l-3.4-.6 1.4 1.6c1.5 1.9 4.8 2.2 7 .7zm67-1.4a7.4 7.4 0 0 1 2-3c.5-.4 1.2-2.8 1.6-5.4a56 56 0 0 1 2.5-9.6l1.9-4.8-1.5-1.5c-1.6-1.6-1-3.3 1-3.3.7 0 1.6-.9 1.8-2l.5-1.9-3.3-3-10.5 1.2c-5.7.6-13.8 1-17.8 1l-7.4-.1-14.1-4.6-9.1 1.3c-5 .7-12.3 1.5-16.1 1.7-3.9.2-8 .6-9.3.9-1.2.3-2.2 1-2.2 1.5s.9 1 2 1c1 0 2 .3 2 .6 0 .4-.8 1.3-1.8 2l-1.7 1.3h3.5v2c0 1.1-1 3.6-2.1 5.5l-2.1 3.6h1.1c.6 0 2-.6 3-1.2l2-1.3 1.3 1.3 1.3 1.3-3.8 3c-2 1.7-3.5 3.5-3.2 4 .3.4 1.4.5 2.6.2l2.1-.6-1.1 2.2c-.7 1.1-1.6 2.1-2.2 2.1s-1 .5-1 1v1l6.3-3.2 2.7 1.2a13 13 0 0 1 4.5 3.5l1.9 2.5h2a71 71 0 0 0 9.7-1.6l7.5-1.6 11.5.7c6.4.3 14.5 1.2 18 2s8 1.4 9.8 1.4l3.3.1 1-2.4zm-26.4-4-3-1.2 1.3-.8c.6-.4 3-.5 5.2 0l4 .6-.3 1.2c-.6 1.6-3.8 1.8-7.2.3zm-22.6-.5c0-1.2 3-2.3 4.1-1.5 1.8 1 .9 2.4-1.6 2.4-1.4 0-2.5-.4-2.5-.9zm-11.3-2.3c-2.6-1.1-4.7-2.4-4.7-3 0-1.2 3.8-1 6.3.4 1.2.6 3.5 1.4 5.1 1.8 1.6.3 3.1 1.1 3.4 1.8l.4 1.2h-3c-1.5 0-5-1-7.6-2.2zm59.4-3.3c0-.8.6-1.5 1.5-1.5.8 0 1.5.7 1.5 1.5s-.7 1.5-1.5 1.5c-.9 0-1.5-.7-1.5-1.5zm-6-10.5v-5h1.4c.8 0 1.7.4 2 1l.7 1 1.5-1.5c.8-.8 2-1.5 2.5-1.5 1.4 0 2.1 2.7 1.4 5.6l-.6 2.6-4.7-1.2-.5 2c-.3 1.1-1.3 2-2.2 2h-1.6zm-33.9-.2-1.3-1.6 1.3-.5c.7-.2-.8-.7-3.4-1.1l-4.8-.7v-3h6c3.3 0 6 .5 6 .9s-.4 1.2-.9 1.7c-.5.6-1 2-1.2 3.4l-.4 2.4zm17-2.1c-.7-.8-.9-1.7-.5-2 .4-.4 2.4-.7 4.5-.7h3.8v1.4c0 2.6-6 3.6-7.8 1.3zm-8.5-4.4-2.8-.5.6-3.3 4 .3c4.7.4 7.8 1.9 7 3.2-.6 1-3.5 1-8.8.3zm13.9-.2c-.7-1 2.2-2.4 3.5-1.6.5.4 1 1 1 1.5 0 1.2-3.8 1.3-4.5.1zm-48-2-.7-1.1 1.3-.5a64 64 0 0 1 19.5-2.5h9.2l.6 1c.4.5 0 1.2-.8 1.6-.8.3-5.6.6-10.8.8-5.2.2-11.3.6-13.5 1l-4.1.8-.7-1.1zm78 26.4 2-1.6-2.5 1.2c-3.1 1.4-3.7 2-2.4 2 .5 0 1.9-.8 3-1.6zm-139.2-4.1c3.9-.9 9-2.4 11.3-3.5 2.3-1 6-3.4 8-5.4 2.2-2 4.7-3.5 5.6-3.5s1.7-.4 1.7-.9 1.6-1.6 3.5-2.6c2-1 3.5-1.8 3.3-2s-5.5.2-11.8.7c-6.4.4-13.4.5-15.6.2-2.2-.3-6.8-1.4-10.2-2.6l-6.3-2-1.7 1.7-1.7 1.8-9.5-.9-15.6-.9h-6v-3l16-.6 3.3-1.5c1.9-.9 3.1-1.8 2.8-2.1-.3-.4-2.6.2-5 1.1-2.6 1-5.3 1.5-6.1 1.2l-1.5-.5.6-1.6c.4-.8 1.5-1.5 2.5-1.5s3.5-.8 5.4-1.7l3.6-1.7.9 1.3c.4.7 1.2 1 1.8.7.5-.3 1.5 0 2.2.9l1.2 1.4-5 5 1 .7c.5.3 2 .3 3.5 0l2.6-.7-.7-7.2-.7-7.2-5.4-4.5-4 .5-10.4 1.6-6.4 1.2 3.3 1.8 8.3-2.3.8.9c.5.4.5 1.3.1 1.8-1 1.6-10.2 3.3-14.7 2.7l-4-.5 1 1.4 1.2 1.4-.6 6-.6 6-8 1-.3 1.8-.4 1.7 8.2-1.3v4.3H178c-.9 0-2.9 1-4.5 2l-3 2.1.7 2.3.8 4.2.3 2 2-.2c1 0 4.7-.6 8.3-1.3l6.6-1 5.4.9a60 60 0 0 1 8.5 2l3 .9 7.5-.5a130 130 0 0 0 14.5-2zm-29-1.8-3-1.3 2.2-1.1a10 10 0 0 1 3.6-1.2c2 0 3 2.6 1.4 3.8l-1.2 1zm27.6-5-2.1-2.3 1.3-3.3h2.5c1.4 0 3 .8 3.8 1.7l1.3 1.8-1 1.6c-.4 1-1.4 2-2.2 2.2l-1.4.6zm-40-1.3c.3-.9 1-1.8 1.7-2l1.2-.5v4.2h-3.1zm308.8 8.5 1.6-1.6-.1-7.1-.2-7.1h2.5c1.4 0 2.7.4 3 1 .4.5 1.2 1 1.8 1h1l-3.5-4H498c-1.9 0-5-.5-6.8-1.2l-3.3-1.2-2.3 1.2a19 19 0 0 1-6.2 1.4l-4 .3-1 2.2-1 2.3-9.1-1.2-2.4 2.9 1.7 6-.8 1.4c-.5.7-.6 1.7-.3 2.1.2.4 2.8.8 5.7.8 2.8 0 7 .7 9.2 1.5l4 1.5 12.5-.6zm-55.2 0c5-.5 10.7-1.4 12.8-2l3.7-.9v-1.9c0-2.4-2-7-3-7-.5 0-2.3-1.3-4-3s-4.2-3.2-5.7-3.5c-1.5-.3-4.1-1-5.8-1.6a17 17 0 0 0-4.9-1 9 9 0 0 1-3.8-1l-2-1-2.4 2-7-1-3.7 4h3c1.8 0 3.9.4 4.7.7.9.3 1.6 1.3 1.6 2.1v1.6l-4.2-.7c-2.3-.4-4.6-1.2-5-1.9l-.8-1.2v2.5h-7.3l-4-3.5-30.2.4-3.5 4.6 1.7 1.3c1 .7 3.7 1.8 6 2.5 2.4.6 5.2 2 6.3 3 1 .9 2.1 1.7 2.5 1.7s2.2 1 4.2 2.4l3.8 2.4 4-.3 11-1 7-.6 5 3h5.5c3 0 9.6-.5 14.5-1zm-73-5-1.5-2.2v7.8l3.2-3.2zm-92.1-10.8c.3-.6.1-1-.4-1-.6 0-1.3.4-1.6 1-.4.5-.2 1 .4 1 .5 0 1.2-.5 1.6-1zm185.3-.7c-.4-.3-.7 0-.7.7s.3 1 .7.7c.4-.4.4-1 0-1.4zM272.2 130c1.7-1.7 2.3-2.8 1.5-2.3-2.4 1.3-5 3.7-5 4.6 0 .5.1.9.3.9s1.6-1.4 3.2-3.2zm183.3 1.5a1 1 0 0 0-1.3 0c-.4.4-.1.7.6.7.8 0 1-.3.7-.7zm-197.2-2.2 3.2-.1.4-2.7.3-2.7 3-1.7c1.7-1 4.5-2 6.3-2.4l3-.7.7-1.9c.3-1 1.2-2 2-2s1.9.9 2.4 1.9l1 1.8 14.4-1.5 3.4 1.8 5.4-.9a53 53 0 0 0 7.2-1.5c1-.4 1.7-1.3 1.7-2s-2-2-4.5-3c-2.4-1-4.7-2.5-5-3.3l-.5-1.3 4.5-2-3.5.5-8.3 1.1-4.7.7v-1.6c0-.9.6-1.7 1.2-1.7 1.9-.1 4.8-.5 9.9-1.3l4.6-.7 5.8 2.3 35 .6 7.7-2-.6-1.5c-.3-.8-.8-4-1.2-7.2l-.6-5.6-3.1-2.7-3.2-2.8h-8.5V87l-3 2.2c-1.6 1.2-3 2.8-3 3.4 0 .6-.8 2-1.8 2.8l-1.9 1.7-18.6.5-.4-1.3-.5-1.2h-8.8v-2.2c0-1.2.7-3 1.7-4L303 87l-10.9-.2h-12.8c-1 .1-2.4-.3-3-.8l-1.3-1-4.8.5a70 70 0 0 0-8.8 1.5l-4 1 .7 2.5c.3 1.4.9 4.6 1.2 7.2.3 2.6.8 5 1.2 5.5s6.2.8 13 1a78 78 0 0 1 13.3.8c.6.4.8 1.3.5 1.9l-.7 1h-13.7l1 3.8-11.4.6-16.6 1.3-5.2.7v-3l11.7-1.3c6.5-.7 13-1.3 14.5-1.2 1.5 0 3-.4 3.3-.9l.6-1h-22.3l-4 2.2h-9.7c-5.3 0-10.6.4-11.7.9l-2 .8 13.5-.3v1c.1.5-1.3 1.3-3.1 1.8a13 13 0 0 0-4.3 1.8c-1.6 1.5-4.4 1-4.7-.8l-.4-1.7-1.7 1.8c-1 1-2 2.8-2.4 4.2l-.6 2.5 1.9 2c1 1.2 3.1 2.8 4.7 3.6 1.6.8 5 1.9 7.5 2.3 2.6.4 9 .6 14.2.5l12.6-.4zm32.9-16.2c-.4-.6-.5-1.2-.4-1.4a30 30 0 0 1 5-1l4.7-.6.6 1c.4.5-.2 1.5-1.3 2-2.6 1.4-7.8 1.4-8.6 0zM273 102.4a1 1 0 0 1 1.3 0c.4.4.1.7-.6.7-.8 0-1-.3-.7-.7zm140.2 17.7c-.3-3.6-1.1-7-1.6-7.8a4.1 4.1 0 0 0-3-1.2c-1 0-1.8-.6-1.8-1.4v-1.4l6.7-1.8c3.8-1 7.5-2.4 8.4-3 1.9-1.7 4.5-1.8 5.5-.3l.6 1 4.8-1.2 7.4 2.6c4 1.3 7.7 2.5 8.2 2.4.5 0 2.2-1 3.7-2.4l2.8-2.4-1.8-3a65 65 0 0 0-4.6-6.1l-2.8-3.3-4.2-.8c-2.3-.5-6.2-.8-8.7-.8h-4.5l2 .9c1.1.4 3.9.9 6.2.9 2.3 0 4.9.3 5.7.7 1 .3 1.6 1.2 1.6 2V95h-2c-1 0-4-.5-6.7-1-2.6-.6-7.7-1.2-11.2-1.4a19 19 0 0 1-7.5-1.6l-1.1-1.2 3.6-2.6-10.4-1.5-.9 1.6-.8 1.5-4-1-4.8 3-3.2-.8a17 17 0 0 1-4.4-1.9c-2.3-1.8-6.5-2-18.1-1.1l-12 1-.7 1.2c-.5.7-.6 2.6-.2 4.2 1 4.7 3.7 8.8 7.1 10.7l3.1 1.8 11.7.6v2l-15.6.6-2.9-2c-3-2.2-5.6-2.7-6.5-1.3-.3.5-3.2 1.5-6.6 2.2l-6.1 1.3-5-1.2a50 50 0 0 0-9.3-1.1h-4.2l-8.3 4 .2 2.7.3 2.7 2.4.8 7.9 2.3 5.3 1.6 9.2-1c5-.6 12.7-1 17.1-1h8l2.3 1.5c1.2.8 2.3 2.3 2.3 3.3v1.9l7.3 3.4 6.6-.5c3.6-.4 10.6-.3 15.6.1l9 .8 3.6-3-.7-6.6zm-39.4 3c0-.7.3-1 .6-.7s.4 1 0 1.4c-.3.3-.6 0-.6-.7zm7.6.3c-.3-.3-.6-1-.6-1.3s3.6-1 8-1.4l9.2-.9c.6-.1 1.2.3 1.4.9l.4 1-3.9 1.2c-4.2 1.3-13.4 1.6-14.5.5zm17.4-13.9c-2-.7-4.8-1.3-6.4-1.4h-2.8l.4-1.3c.2-.7 2-1.4 4-1.5l3.6-.3 3.7 1.8c3.7 1.8 4.8 3.6 2.3 4-.7 0-2.9-.5-4.8-1.3zm-15.7-1.9c-.6-1.8.5-3.8 1.7-3 1.3.8 1.2 4.5 0 4.5-.6 0-1.3-.7-1.7-1.5zm42.4-10.2c-1.2-1.2.4-2.3 3.4-2.3h3v3h-3c-1.5 0-3-.3-3.4-.7zm-48.2-1.3c-.3-.5.2-1.1 1.2-1.4 2.4-.7 18.3-1.8 24.4-1.8 2.7 0 5.8.3 7 .7 1 .3 1.9 1.1 1.9 1.8v1.2l-33.9.5-.6-1zM363 91.4l.4-1.8 9.5-.6c5.2-.3 9.9-.1 10.4.3l1 .8-1 .8c-.5.5-5.4 1.2-10.8 1.6l-9.8.7zM478.5 126l2.4-2.3V114l-2.1.7-2 .7-4-3.6-5.2.3-6.8.3c-.8 0-5.8-.4-11-1a56.7 56.7 0 0 1-13.2-2.8l-3.6-1.7-7.2 1c-4 .7-7.7 1.7-8 2.4-.5.7-.4 2 0 3 .6 1 1 3.5 1 5.6 0 2 .4 4.3.8 5l.7 1 8.3.2c4.6 0 9.2.5 10.2 1 1 .6 4.5 1.1 7.7 1.2 3.2 0 7.2.4 8.8.8s7 .6 12 .4l8.8-.2 2.4-2.2zm-208.7.5 1.3-1.6-1.9.3c-1 .2-2 1-2.3 1.6-.6 1.8 1.3 1.6 2.9-.3zM182 112.3c-.3-.3-1 0-1.8.7l-1.2 1.2 1.8-.7c1-.4 1.5-1 1.2-1.2zm4.5-4.6a298 298 0 0 0 14.3-1.1l6.8-.8 4.8 2.6 3.8-.7c2.1-.4 9-1 15.3-1.3 6.4-.3 12-1 12.5-1.4.5-.5 2.7-1 4.8-1h3.8v-1.4c0-.8-.5-1.7-1-2-.6-.4-1-2.6-1-5s-.5-4.7-1-5a815.4 815.4 0 0 0-50.6-1.9 88 88 0 0 0-12.5 1.8c-4.7 1-11.8 2-15.8 2.3l-7.2.5v-1.6c0-1-.5-1.6-1-1.6s-1 .6-1 1.4V93l-8.5.6v4.2l.1 4.3 1.8 1.9 1.7 1.9 4.7.5c2.6.3 6.7 1 9.2 1.5 2.5.5 5.4.8 6.5.5 1-.2 5.4-.6 9.5-.7zm-17.3-10.3c-1.5-.3-2.7-.8-2.7-1.3 0-1.2 2.7-2 6.5-2 3.7 0 5.6 1.7 3.4 3-1.4 1-2.4 1-7.2.3zm31.5-2 .3-1.8 18.5-.6v2.8l-6.7.6c-3.7.4-8 .7-9.6.7h-2.8l.3-1.8zm115.4-2a7.8 7.8 0 0 1-3-1.4c-1.4-1.4-2.5-1.1-1.9.6l.6 1.5 6.3-.3zm10.5-1.3c0-.6-1.1-1-2.5-1h-2.6l.6 1c.4.5 1.5 1 2.6 1s2-.5 2-1zm-167.9-2.7c-.7-.3-1.8-.3-2.5 0s-.1.5 1.3.5c1.3 0 2-.2 1.2-.5zm8.5 0c-.3-.3-1.2-.3-2 0l-1.2.5h1.9c1 .1 1.6-.1 1.3-.4zm291.6-1 3.4-1.7 25.4-.1-.8-1.4c-.9-1.6-.2-5.1 1-5.1 1.4 0 2.2-6 1.5-10.7l-.7-4.4-4.7.5c-2.5.2-9 0-14.2-.5-5.2-.5-15.6-1.2-23-1.4-7.4-.2-17.1-.6-21.5-.9l-8-.4-2.8 4.2a26 26 0 0 0-3.2 7.2c-.3 1.6-.2 4.2.3 5.9l.8 3 3.5.6a262 262 0 0 0 25.9 3.8 46 46 0 0 1 11.4 2c.6.6 1.3 1 1.7 1s2.2-.7 4-1.6zm-8.7-3a1 1 0 0 1 1.3 0c.4.4 0 .7-.7.7s-1-.3-.6-.7zm31-2a1 1 0 0 1 1.3 0c.4.4 0 .7-.7.7s-1-.3-.6-.7zm-62.4-6.6a8 8 0 0 1 1.6-3.5c.8-1.2 1.3-2.2 1-2.2s-1.5.5-2.6 1.2l-2 1.2-2-2.1 2-2.6a11 11 0 0 1 5-3.3c1.8-.3 3.4-.3 3.8 0 .4.4-.4 1.6-1.8 2.7l-2.5 2 2-.7c1.1-.4 3-1 4.3-1.2l2.2-.5V69c0 .6-1.8 3-4 5.2-4 4-7 5.1-7 2.7zm63-3.7c-.8-.6-3.2-1-5.3-1h-3.8l.3-1.8.4-1.8 3.5.3 6.2.9 2.8.5v2c0 2-1.7 2.4-4 .9zm-31-3v-2h6.2l-.6 1.5-.6 2c0 .3-1.1.5-2.5.5h-2.5zm10.5 0c-.7-1.3 2-2.5 3.5-1.6.6.4 1 1 1 1.6 0 1.3-3.7 1.2-4.5 0zm-38.8 18.4c-.3-.4-1.2-.4-1.9-.1l-1.3.5h2c1 .1 1.6-.1 1.2-.4zM320 87.2c.8-1.2-3.4-2.2-6.3-1.5l-2.3.6 1.4.9c1.7 1.1 6.5 1.1 7.2 0zm11.1-1.1.6-1h-5.2l.6 1c.4.5 1.3 1 2 1s1.7-.5 2-1zM194 84.5c.3-.9.6-2.8.5-4.3v-2.6l-1.4 3a18 18 0 0 0-1.5 4.2c0 1.8 1.7 1.6 2.4-.3zm15.2-.7a9.5 9.5 0 0 1-1.6-4.9c0-3 2.3-5.8 4.6-5.8.8 0 1.4.6 1.4 1.5 0 .8-.5 2.4-1.2 3.4l-1.2 2 2 1.5c1 .8 3 1.5 4.2 1.5 1.3 0 3.3.7 4.5 1.5l2.2 1.4 32-.4 8.5-3.6 7.3-.1c4 0 12.1.4 18.1 1.1l10.8 1.3 1.3-1 1.2-1-.4-5.9-.4-5.8 4.1-3.7 1.6.6c.8.3 1.5 1.5 1.5 2.6 0 3.5 2.1 6.7 5.6 8.4l3.5 1.7h10.8l.7-2.4 1.5 1c.8.4 5.3.9 10 .9h8.6l5.8 5.5 6-.6a366 366 0 0 1 35.5-.2l6.5.3.1-5.8c.1-3.1.7-6.3 1.3-7l1.2-1.4-1.3-2.7c-.7-1.4-1.8-2.8-2.5-3.1l-1.3-.5 1 1.9a9 9 0 0 1 1 3.5V71h-4.1l-.5-2-.5-1.9-14-1.4.5-1.1c.5-1.5 3.8-2.1 4.6-.8l.6 1 3.9-2.9h-10.5c-5.7 0-15.4-.2-21.5-.5-6-.2-14 0-17.5.2l-6.6.6-1 2a6 6 0 0 1-3.4 3c-4 1-17.3 2.4-19.3 2l-1.8-.5 1-2.6-2.6-.6a725.7 725.7 0 0 0-84.4-1.4l-14.5.4-7.5 4.6v6.2c0 3.4.3 7.2.6 8.4l.6 2.3h5l-1.6-2.3zm79.1-10.4a4 4 0 0 1-.6-2V70h3c1.5 0 3.6.7 4.4 1.5.9.9 1.6 1.8 1.6 2 0 .7-7.6.5-8.4-.2zM239.1 70c-.4-.6-.5-1.3-.2-1.5.2-.3 2.2-.6 4.3-.7l3.9-.3.7 3.6h-4c-2.2 0-4.3-.5-4.7-1.1zm37.6-1.5c0-.8.6-1.5 1.5-1.5.8 0 1.5.7 1.5 1.5 0 .9-.7 1.6-1.5 1.6-.9 0-1.5-.7-1.5-1.6zm82.2-1.7.3-2.3h19.9l.4 1.3.4 1.2-2.3.4c-1.3.3-6 .8-10.7 1l-8.3.6zm-19.2-.2V65H358l-.4 1.3-.4 1.2-17.4.6zm70-3.5c0-.5-.4-1.2-1-1.6l-1-.6v1.6c0 .8.5 1.5 1 1.5.6 0 1-.4 1-.9zm86.9.3c-.3-.3-1.2-.3-2 0l-1.2.5h1.9c1 .1 1.6-.1 1.3-.5zm-172.7-.9 1.3-.5-.1-6.4-.1-6.4-2.2-3a11.3 11.3 0 0 1-2-4.6V40h-7.5a65 65 0 0 0-22.2 4.1c-1.1.6-2.5 1-3 .9-.5-.1-2.4.1-4.2.5l-3.3.8 1.5 1.7a6 6 0 0 1 1.6 3.3c0 1-1 3.3-2 5.2l-2 4c0 .3 4.6.6 10.2.7 5.7 0 13.4.4 17.3.8a56 56 0 0 0 16.7.5zM287.2 56l-.6-1h1.5c.9 0 1.6.5 1.6 1 0 .6-.4 1-1 1-.5 0-1.2-.4-1.5-1zm4.5-10c0-.5.5-1 1-1 .6 0 .8.5.5 1-.4.6-.8 1-1 1s-.5-.4-.5-1zm43.5 15a13 13 0 0 0-3.8-.9h-1.8l.6 1c.4.5 2 1 3.8.9l3.2-.1zm-54.9-17.6c-.3-.4-.6-.1-.6.6 0 .8.3 1 .6.7.4-.4.4-1 0-1.3zm-112-2a1 1 0 0 0-1.4 0c-.4.3 0 .6.7.6s1-.3.6-.6zm-11 407.2c-.4-.3-.7-1-.7-1.3 0-.4 2.6-1.8 5.7-3a42 42 0 0 0 6.7-3.2c1.3-1 5.6-1 5.6 0 0 1.4-3.5 4.2-5.2 4.2-.8 0-1.8.3-2.2.7-.6.7-7.5 3.3-8.7 3.3-.3 0-.9-.3-1.3-.7zm45.6-3.6c-.9-1.4 2.8-3.8 5.2-3.5 1 .2 2.1 1 2.3 2l.3 1.6-3.6.4c-2 .2-3.9 0-4.2-.5zm-123.2-2 .3-2.2 6-1.3 12.5-2.8c3.6-1 9.2-2.2 12.5-3 3.3-.7 11.9-3.1 19-5.5a132 132 0 0 1 15.5-4.3l2.5-.1.3 1.5.3 1.5-6.3 2.3c-3.4 1.3-9.2 3-12.8 3.7-3.5.7-11.2 2.7-17 4.4-5.8 1.7-12 3.4-14 3.7-2 .3-6 1.5-9 2.5-3.1 1-6.6 2-7.9 2h-2.2zm-23.2-1.5v-2l3-.7c1.7-.4 3.4-.4 3.8 0 .3.3.1 1.4-.4 2.3-.6 1-2.3 1.8-3.8 2l-2.6.3zm157.9 1.2c-1.2-1.2.2-2.4 2.9-2.4h2.5l-.4 1.3c-.5 1.4-4 2.2-5 1.1zm6.7-2.4-.6-1 3.5-1.5c4.1-1.7 6.6-2 6.6-.5 0 1.1-5.2 4-7.4 4-.8 0-1.7-.5-2-1zm-156.6-1c0-1.4 3.5-3 6.4-3h2.6v2.8l-3.1.6c-4.4.8-6 .8-6-.4zm216.5.3a1 1 0 0 1 1.3 0c.4.4.1.7-.6.7-.8 0-1-.3-.7-.7zm-264.4-3.8.4-1.8 10.5-3.3c18.8-5.7 26.7-7.7 28.4-7 .9.3 1.6 1 1.6 1.6s-1 1.4-2.3 1.9a74 74 0 0 1-14 4.1 9 9 0 0 0-3.5.9 70.6 70.6 0 0 1-16.6 4.7l-4.9.7zm60-.2c.3-1 1-1.8 1.9-1.8.8 0 1.6.8 1.8 1.8l.4 1.7h-4.3zm10-1.8v-1.5l3.5-1.5c8.5-3.5 21.7-7.6 23.7-7.3l2.2.3.3 1.7.4 1.8H114c-1.4 0-4 .6-5.8 1.4-3.8 1.7-19.2 6.6-20.7 6.6-.6 0-1-.7-1-1.5zm150 .5c0-.6 1.3-1.5 2.8-2s4-1.8 5.7-2.6c1.5-.8 3.4-1.4 4-1.4s3-1.2 5.2-2.8c5.6-4 8.9-5.5 11-5l1.9.3v3.8l-6 2.2-12.8 5.4c-6.7 3.1-11.8 4-11.8 2zm52-4c0-.6 1.7-1.8 3.7-2.6l3.7-1.5 2 2-3.1 1.5c-3.6 1.8-6.2 2-6.2.5zM429 426c.5-1.5 3.7-1.8 4-.3.2.5-.8 1.1-2 1.3l-2.4.4zm-127.3-1.6c0-1 .5-2.3 1-2.8.6-.6 2.4-.9 4-.6l3 .4v1.3c0 .7-1.4 1.8-3.1 2.4-1.8.6-3.6 1-4 1s-.9-.7-.9-1.7zm134.6.8c-.8-1.4.3-3 2-3h1.5v4h-1.4c-.8 0-1.7-.5-2-1zm100.6-67V356l5.5.6v3l-5.5.7zm-14.3-1.7c-.4-.3-.2-1.5.4-2.5l1-2 5.4.6.3 2.3.3 2.2h-3.4c-1.8 0-3.7-.2-4-.6zm10.6-40-2.1-.5-1.3-5.2 1-1c1.3-1.2 5.1.1 5.1 1.9 0 .8.5 1.4 1 1.4s1 1 1 2v2l-1.2-.1a53 53 0 0 1-3.5-.6zm-1.2-17.7c-.6-.8-.8-1.7-.4-2 .3-.4 2-.7 3.8-.7s3.5.3 3.8.7c1.1 1-1.4 3.3-3.8 3.3-1.2 0-2.8-.6-3.4-1.3zm29-26.3V270l4.4.7.3 2.2.4 2.3h-5.2zm-17.4 0c-.4-.4-.7-1.3-.7-2v-1.4h2.5c1.4 0 2.5.3 2.5.8 0 1-2.1 3.2-3 3.2-.4 0-1-.3-1.3-.7zM57.7 250l-2.2-.9v-4l2.6-1a30.8 30.8 0 0 1 13.8-.4l1.5.5-.6 1.5c-.6 1.6-5.5 4-9.8 4.7-1.7.2-4 0-5.3-.4zm454.9 0c-3.6-1-5.7-2.8-5.7-4.6 0-1.8 3.4-1.7 5 .2l1.2 1.5 7.5-1.2.6.9c.9 1.4-.6 3-3.3 3.6a12 12 0 0 1-5.3-.3zm-427-38.4-1.2-1.4 4.3-1.4 1.2 1.2 1.1 1.1-1.5 1c-.8.5-1.8 1-2.1 1-.4 0-1.2-.7-1.8-1.5zm10.1-1.7.5-1.4 7.5-.6-.8 2.6-7.6.7zm10-1.1c.3-.7 1.7-1.4 3.2-1.6l2.6-.3v3.1h-6.1zm13.2-9.5c.4-2.6 1-5.1 1.6-5.6.5-.5 1.7-.6 2.6-.3l1.7.7-.7 4.2c-.7 4.2-1.8 5.7-4.4 5.7h-1.4l.6-4.7zm13.6-1.7v-4.4l-5.3-3.9.8-1.2.8-1.3 3.8.6 3.8.6.4-1.2.4-1.3 1.7 1.4 1.8 1.5-.6 5.1-3.5-.6v9.1h-4zm-26.5-10-3-1.4-5.5.5c-3 .2-6.6.7-8 1-1.4.2-3.2 0-4-.5l-1.5-1 1.1-1.1c.7-.6 2.5-1.4 4-1.7a53 53 0 0 1 19.3 1c1.4.7 2.8 2 3 3l.3 1.7h-1.3c-.8 0-2.7-.8-4.4-1.5zm453.4-5.5c-1-1.5.4-3 2.6-3h2v4h-2c-1 0-2.2-.4-2.6-1zm-41-32.9-5-.6-.3-1.6-.3-1.7 19.6.5v3.8l-4.5.1a78 78 0 0 1-9.5-.5zm-366.2-9c-.9-1-1.6-2.3-1.6-3s1-1.1 2.4-1.1h2.5l1 2c2.1 3.8-1.3 5.5-4.3 2.2zm-25-2.8c-.4-.3-.7-1.3-.7-2V134l4.5.6.7 3.5h-2c-1 0-2.1-.3-2.5-.7zm19.9-5.5-8.5-2-4.5-1-22 2.4-2.8-1c-1.5-.7-2.8-1.8-2.8-2.7v-1.5l2.3-.1h5.7c2 .1 5.4-.2 7.7-.7l4.2-1 6.3.8c10.6 1.3 19.2 3 20.6 4.2.7.6 1.3 1.7 1.3 2.4v1.4l-1.8-.1-5.7-1zm334.7-27.6c-1.8-.7-3-2.4-2.3-3.4.7-1.1 5.4-1 5.4 0 0 .6.2 1.7.6 2.6l.6 1.6-1.4-.1c-.7 0-2-.3-2.9-.7zm35.5-28.7c-.3-.8-.3-2 0-2.5.4-.6 1.6-1 2.6-1h2v5h-2c-1.2 0-2.3-.7-2.6-1.5zm-16.4-1.2v-1.8l3.4-2.3c1.8-1.3 5-2.6 7-3 2-.2 3.6-.9 3.6-1.3s-1-1-2-1.2c-1.1-.3-2-1.3-2-2.2V61h2.4c1.3 0 3.7.3 5.5.7l3 .6v2c0 1-1 2.9-2.2 4.1a17 17 0 0 1-6.7 3.7 17 17 0 0 0-5 2.1c-.4.5-2 1.1-3.8 1.5l-3.2.6v-1.9zm-23-15.4c0-.6.4-.8 1-.5s1 .9 1 1.1-.5.4-1 .4-1-.4-1-1zm-244.5-3.2-5.8-1v-3l23.6 1.5.7 1.1.7 1.1-1.7.7c-2.4 1-10.7.8-17.5-.4zm213.4-4.2V48l2.5-1.6a8.2 8.2 0 0 1 4.7-1.3l2.3.3-2 2.1a12.2 12.2 0 0 0-2.9 4.8l-.6 2.6h-4zm14 1V50h5v5h-5zm-125.6-.7c-.4-.6-.1-2.1.6-3.4L337 46l8.4-3.2 7.8.6.3 1.8.4 1.7h-4.5a25 25 0 0 0-7.1 1l-2.6 1v4h-2c-1 0-2.2-.5-2.5-1zm84.2-.8c-.3-.4.1-1.1 1-1.5 2.5-1 3.4-.7 3.4 1V52h-2c-1 0-2.1-.4-2.4-.9zM404 46.4c-.7-.3-1.2-1-1.2-1.5v-1l4.2.3c2.4.2 4.3.8 4.3 1.3 0 1.1-5.3 1.7-7.3.9zm-135-1a1 1 0 0 1 1.3 0c.4.3.1.6-.6.6-.8 0-1-.3-.7-.6zm-61.7-7c-1-1 .2-2.4 1.9-2.4.8 0 1.4.7 1.4 1.5 0 1.5-2.1 2-3.3.9zm235.8-13a2.4 2.4 0 0 1-1.3-2v-1.5l6.5.6v3l-2 .2c-1 .1-2.5 0-3.2-.3zM416.9 24a16 16 0 0 1-6.4-1.9c-.6-.6-2.2-1-3.5-1h-2.5l1.2-7.5-2.1-2.6.6-2.4.6-2.3 3-.7c1.8-.3 4.3-.3 5.6 0l2.4.6v3.5c0 1.9-.7 4.7-1.5 6.4l-1.6 3 5 1.8 14-1.2 3 1.3c1.7.7 3.1 1.7 3.1 2.2v1l-5.2-.2c-3 0-6.4.1-7.8.4-1.4.2-5 0-7.9-.4zm-8.4-10.7a1 1 0 0 0-1.4 0c-.4.4 0 .7.7.7s1-.3.7-.7zm92 10-1.8-.5.4-2.1.3-2.2 6.5-.6V24H504c-1 0-2.5-.3-3.5-.6zM333.8 20c-11-.6-18-2.4-18.8-4.8l-.5-1.3 6 .7c3.2.4 6.6 1.1 7.5 1.6 1 .5 2.6 1 3.6 1h2l.7-3.3c.4-1.8.7-5.7.6-8.5l-.1-5.3h2.3c1.3 0 2.9.5 3.5 1.2.7.7 1.2 3.2 1.2 5.7v4.5l-5.5 5.8 27.7-1-.7 4-9.5.2a468 468 0 0 1-20-.5zm53-.5-3.4-1.3-11.3 1-.7-1-.7-1 5.7-2.3 7.2.5c4 .2 7.8.9 8.5 1.5.7.6 3.6 1.2 6.3 1.4 2.7.2 5 .8 5 1.3v1l-13 .3zm-143.8-7c-.3-.8-.3-2.1 0-3l.5-1.3 2 .5c1.2.3 2.1.7 2.1 1 0 .2-.4 1.3-1 2.4-.6 1-1.5 2-2 2-.6 0-1.3-.8-1.6-1.6z"/>
</svg>
