<?xml version="1.0" encoding="utf-8"?>
<svg xmlns="http://www.w3.org/2000/svg" version="1.1" viewBox="0 0 749 1114">
	<title>Sketched elevation relief map showing a mountain range from the top left to bottom center, labeled “Main Crest and Peaks of Apennines.” Smaller hills and valleys jut out from the range, and a dotted path along the right, from top to bottom, goes through several labeled towns, Tornoyo, Calestaro, Tizzano, and Sillano. “Serchio” labels the river at the bottom right of the map.</title>
	<path d="M696.5 1110.7c-2.4-2.4-3.5-4.3-3.3-5.8.4-3 4.7-5.9 9.5-6.5 3.4-.5 4.5-.2 7.6 2.6 4.3 3.8 4.6 5.9 1.4 9.6-1.7 2-3.5 2.8-7 3.2-4.3.5-4.9.3-8.2-3.1zm10-2.2c1.9-2 1.9-2.9 0-4.4-2-1.7-6.5-.5-6.5 1.8 0 3.8 3.7 5.3 6.4 2.6zm-23.5-13c-1.8-2.2-.8-4.7 2.3-5.6 1.5-.4 4.3-2 6.3-3.8 4.2-3.7 5.2-3.8 6.4-.5 1.2 3 0 6-3 7-1 .3-2.2 1.4-2.5 2.5-.5 1.5-1.6 2-4.4 2-2.2 0-4.4-.7-5-1.5zm18.6-13.6c-2.2-3.2 0-7.2 2.9-5.1 2.2 1.6 3.5 4 3 5.6-1 2.3-4.1 2-5.9-.5zm-25.6-.4c0-.8.7-1.8 1.5-2.1s1.5-1.2 1.5-2c0-1-1-1.2-4-.8-3.2.6-4 .4-4-.9 0-.8.6-2 1.2-2.4a73.1 73.1 0 0 1 13.5-5.3c2.2 0 1.4 3-1.3 4.7-3 2-1.7 4.1 1.6 2.3 2.2-1.2 5-.7 5 .9 0 1.3-10.6 7.1-13 7.1-1.1 0-2-.6-2-1.5zm-13.2-19.2c-3-3.4-2.9-6.3.2-9.4 2.3-2.3 3.7-2.9 7.3-2.9 5 0 10 3 9 5.6-.7 1.8-2.7 1.8-4.3 0-1.6-2-4.9-2-7.1 0-1.3 1.2-1.6 2.5-1.2 5 .6 3.9-1.3 4.7-4 1.7zm24.8-8.5c-.8-1.8-2.2-5.8-3.1-8.8a73.3 73.3 0 0 0-7-15.8c-1.3-2.3-3-6.6-3.9-9.5s-2.7-6.8-4-8.6c-1.5-2-2.6-4-2.6-4.6s-1.4-2.4-3-3.9c-2.5-2.1-3-3.4-3-7 0-3.1-.6-4.8-2.1-6.2a29.2 29.2 0 0 1-7-14c-.5-2.6-1.9-6-3-7.5-2.3-3.3-2.3-3.9-.4-7.6 2-3.7 1.9-5.8-.4-10.7a81 81 0 0 1-3.6-10.6l-3-11c-.9-2.5-1.5-6.2-1.5-8.2a11 11 0 0 0-2-6.2 29 29 0 0 1-3.6-7.9c-.9-2.9-2.2-6-3-6.8-.7-.8-1.2-4-1.3-7.4 0-4.5-.5-6.4-2-8-1.2-1.2-2.1-3-2.1-4.1 0-2.3-3.3-12.3-5-15.5-.9-1.6-.9-2.5-.1-3.3.7-.7 1.8.7 3.6 4.9a125 125 0 0 0 4 8.6c.8 1.4 1.2 3.4.9 4.2-.4 1 .2 2.3 1.5 3.4 1.7 1.3 2.3 3.2 2.7 8.1a18 18 0 0 0 2.4 8.9c1 1.3 2.2 4 2.6 6s1.7 5 3 6.6c1.8 2 2.4 4 2.4 7.5 0 2.6.5 5.2 1 5.8 1 1 2 4.4 4.9 17.6.4 2 1.3 4.3 1.8 5 2 2.3 2.4 7.4 1.2 12.2-1 4-1 4.9.5 6.4a40 40 0 0 1 4 10.1c1.7 6 3.3 9.3 5.6 11.6 2.4 2.5 3.3 4.4 3.5 7.4.1 2.3 1 5 2 6.2a99.7 99.7 0 0 1 12.5 23 34 34 0 0 0 3.1 6.1c4.2 7 9.2 21.5 8.4 24.5-.8 3.3-3.4 2.9-5-1zm-35-9.4c-.9-2.3-.8-2.4 1.9-3.4 2.9-1 3.3-3 .7-3a7 7 0 0 1-3.7-1.4c-1.7-1.2-1.6-1.5 2.6-3.3 2.4-1 5-2.7 5.8-3.6.7-1 2.1-1.7 3-1.7 1.9 0 5.4 3.5 6.4 6.2.7 2.1-2.8 6.8-5.2 6.8-1 0-2.8 1.1-4.1 2.5-2.7 2.8-6.5 3.3-7.4 1zm12.9-9.4c0-2.2-4-1.9-4.3.3-.3 1.5.1 1.8 2 1.5 1.2-.1 2.3-1 2.3-1.8zm25.2-7.7c-4.6-8.7-9-17-10.2-18.8-.7-1.1-1.6-4-2-6.3-.4-2.5-1.8-5.6-3.5-7.4a17 17 0 0 1-3.4-6.1c-.4-1.7-2-5.9-3.6-9.2a66.3 66.3 0 0 1-4.4-13.7c-.8-4.2-2.2-9.1-3.1-10.9-1-1.7-2.3-5.6-3-8.6-.9-3-2.8-8-4.4-11.1s-3.6-9.8-4.6-14.8a73 73 0 0 0-3.3-12c-1.3-2.3-1.6-6.2-1.7-18 0-12-.3-15.6-1.7-18.2-.9-1.8-2-4.6-2.3-6.3-.6-2.6-1-3-4.2-3-4.4 0-8.7-3-11-7.7-1-2-3.6-9.1-5.8-15.7a50.5 50.5 0 0 0-5.2-12.3c-.8-.3-.8 1 .2 4.9.8 3 1.6 11.3 2 18.7.7 16.4 2 26.3 4 30.3a10 10 0 0 1 1.3 5.6c-.3 2.5-.8 2.8-4.8 3-5.6.5-14.4-1.4-16-3.4-.7-.8-5.6-4-10.9-7a135.4 135.4 0 0 1-20.6-14.7c-2-1.6-3.5-3.5-3.5-4.3 0-2.2 4-1.6 7.2 1.1 1.6 1.4 3.6 2.5 4.3 2.5.8 0 2 1 2.9 2.2.8 1.2 3.5 3.3 6 4.7 16.5 9.5 22 12.3 25 12.8l3.5.6-.5-5.4a175.6 175.6 0 0 1-2.9-26.8 96 96 0 0 0-2-18.6 59 59 0 0 1-2-10.6c-.7-8 .4-10.7 3.8-9.4a143 143 0 0 1 14.2 27.7c2 5.3 3 6 9.5 5 4.1-.6 4.5-1 4.8-3.7.4-4-2.3-10.1-9-20.2-4-6-5.7-8-6.5-7.2-2.1 2.1-3-.1-3.6-8.8-.3-5.9-1-9-2-9.8-2.2-1.6-3.7-5-3.7-8.5 0-4.4-2.5-8.7-5.5-9.4-4-1-3.2-3.6 1-3.6h3.6l-.6-6.8c-.8-8.6-.8-13 0-22l.7-7.4-2.8.3c-2 .3-3 1.1-3.7 3.4-.5 1.6-2 4.4-3.3 6-3.3 4.5-3.7 7.4-2 13.6a64 64 0 0 1 1.1 16.9c-.2 9.7-.7 12.7-3 19-3.4 9-3.5 10.7-4 34.9-.4 21.6-.9 23.1-7 23.1-3.2 0-6.3-2-13.2-8.5-1.7-1.6-4.4-4-6-5.2-2.6-2-2.6-2.2-1-2.9a4 4 0 0 1 3.6.5l4.8 3.2c1.8 1.2 3.3 2.6 3.3 3.2 0 .6 1.2 2.4 2.7 4 3 3 7.7 3.7 8.7 1.1.3-.8.6-8.8.6-17.7 0-16.6 2-32.7 4.2-35.4 1.3-1.7 2.5-8.3 3.4-19.4.5-7 .4-7.8-1.9-10.5-1.3-1.6-3-5.1-3.6-7.9-1.2-4.6-1.1-5 1.2-7 3.2-2.8 7.8-9.2 10.4-14.5 1.6-3.5 2-5.6 1.6-9.3-.5-4-.3-4.8 1.2-5.4 1.3-.5 2.5.1 4 2 1.9 2.4 2.4 4.9 3.2 14.5a36 36 0 0 1 0 12.3c-.6.4-.7 4.1-.3 9 .3 4.6.8 12.2.9 16.9.1 4.7.8 9.4 1.4 10.5 1.1 1.8 1.2 1.7 1.3-1.1 0-1.8.7-3.7 1.5-4.4 1.6-1.4 2-14.7.3-15.6-1.5-1-.9-6.4 1.2-10.4 1.4-2.8 2-6.3 2.3-11.8.2-7.8.2-7.8-5-16.6a58.6 58.6 0 0 1-5.3-10.1c0-1.3-2.8-4.2-3.4-3.5-.2.3-.8 1.8-1.3 3.4-.6 1.9-1.7 3-2.7 3-1.9-.3-2 0-2 8.6-.2 8.2-3.4 14.3-7 13.4a4 4 0 0 0-3.8 1c-2.2 2-3 13-1.8 23.7a65 65 0 0 1 0 16.3c-.5 4-1.2 11-1.5 15.6s-1.3 11.4-2 15c-.8 3.6-1.7 8.7-2 11.5-1.3 10.1-8.7 12.8-15.4 5.6-2-2.1-5.2-4.5-7.1-5.3-4.6-2-7-4.6-5-5.8.9-.5 2.3-.2 4 .9 1.3 1 4 2.3 5.7 3 1.8.7 3.5 2.2 3.8 3.2.3 1 1.8 2.8 3.2 3.9 2.3 1.8 2.9 1.9 4.7.7 1.6-1 2.3-3 2.8-7.3.3-3.3 1.1-8 1.7-10.4 1.7-6.7 4.4-30.4 4.5-39.5 0-4.4-.2-12.3-.5-17.4-.8-11.2.2-15.6 3.9-17.5 5.9-3.1 7.4-6 8.3-15.3.4-4.8.6-9 .3-9.5-1-1.5-2.3-11-1.8-12.3.3-.8 2.4-2.2 4.7-3 4-1.7 4.2-1.7 6 .5a9.7 9.7 0 0 1 1.7 5c0 3 6 15 11.8 23.8 3.5 5 3.6 5.5 3.5 14-.1 6.5-.7 9.9-2.4 13.6-1.8 4-2 5.5-1.1 8a73 73 0 0 1 1.7 12c1 13 1 13.3 5 19 1.9 2.8 3.5 5.5 3.5 6s.9 2 2 3.5a62 62 0 0 1 6.5 16c.7 2.3 2 5 2.7 6 3.4 4 9 14.5 9 16.7 0 2.8 2.4 4.4 6.3 4.4 2.4 0 2.6-.3 2-2.7a15 15 0 0 0-2.4-5.3 2641.6 2641.6 0 0 0-15.4-25.5l-5.3-10-5-9.5-3.5-7.5c-2-4.6-2-5.6-1-12.5a107 107 0 0 0 1.1-11.3c0-3.7 3-11 5-12.2 1.5-1 1.2-3.7-.9-8.1-1-2.2-2.7-6.4-3.7-9.4-2.7-8-6.8-15.6-8.2-15.3-.6.1-.9-.4-.6-1.1.3-.8-.7-2.8-2.1-4.5-2.1-2.5-2.5-3.7-2-6.6.5-2.6.1-4.4-1.6-7.5-1.2-2.2-2.7-4-3.3-4-.5 0-1.8-.8-2.8-1.8-1.5-1.3-2.3-1.4-3.6-.5l-4.8 2.8a23 23 0 0 0-5.4 3.9c-1.8 2-2 2.7-1 4.5.6 1.2.9 3 .5 4s.1 3.6 1 5.9c3.3 9.5-1.6 23.3-9.1 25.6-1.2.3-3.4 2.5-4.9 4.7-3 4.4-2.8 7 .3 10.7 2.8 3.1 3.5 11.6 1.5 17.2a83 83 0 0 0-2.4 15.5c-1.2 16.8-2.7 22.8-6.3 25.7-3.7 3-10.7 1.9-15.4-2.5-4-3.8-3-4.6 7-5 7.5-.2 9.3-.5 9.3-1.7s-2-1.6-11.3-1.8c-9-.2-11.2-.6-11.2-1.7 0-1.3 2-1.5 11.3-1.5 7.5 0 11.7-.4 12.5-1.2.7-.8 1.2-4.5 1.2-9.8 0-5.4.7-11.2 2-15.6 2.2-8 1.7-11.5-2.6-19.2a18.9 18.9 0 0 1-2.4-6.3c0-1.8-.6-1.9-12.4-1.3-12.5.7-16.8.2-15-1.7.6-.5 7.8-1 16-1.2l15-.2 2-3a10 10 0 0 1 5-3.7c2.5-.7 3.6-1.8 5.2-5.6 2.9-7 3.4-11.3 1.7-14.6-.8-1.5-1.4-4.8-1.3-7.3 0-2.7-.5-5-1.2-5.4-1.4-.8-14.3-1.6-43.7-2.6l-19.2-.6-.7 2.6c-.7 3 .3 9.5 1.8 11.3.5.7 1.6 1 2.4.7.8-.3 4.2 0 7.7.6 3.4.6 16 1.2 28.1 1.3 17.6.2 22 .5 22.4 1.6.4 1.2-4.7 1.3-31.9.8-37.4-.6-33.6.9-34-13.3a35 35 0 0 1 1.4-12.9 27 27 0 0 0 1.7-8c0-5-3.5-12.3-6.3-13a63.7 63.7 0 0 0-29 0c-3.1 1.2-6 1.4-9.2 1-3.7-.6-5-.4-6.5 1-2.2 2-2.6 4.6-.9 6.2.8.9.3 1.6-1.8 2.7-1.6.8-3.5 2.2-4.2 3-1.6 2-4 12-4 17.2-.1 4.6-2.1 8.2-4 7-.8-.5-1.1-2.6-1-5.4l.3-4.7-5.3.4c-4.7.3-5.2.1-5-1.5.3-1.5 1.6-2 5.9-2.4 5.8-.5 6.9-1.5 8.5-8.3l.7-2.8-8.3.3c-7.6.3-8.4.5-8.4 2.3 0 1.7.8 2.1 5 2.5 6 .7 7.4 3 1.7 3-4.6 0-7.6 2.3-6.7 5 .7 2.2-.4 5-2 5-.6 0-1.1-1.5-1.2-3.7 0-2-.3-6.7-.6-10.4l-.5-6.5 10.6-.3c10.6-.2 14.7-1.2 14-3.4-.3-.8-4.1-1.4-10.8-1.7-7.7-.3-10.5-.8-10.8-1.9-.4-1.1 1-1.3 7.4-.8 9 .6 17.6-.3 18.1-1.9.4-1.3-3.6-2-16.2-3l-9-.6-1.3 2.7c-.7 1.5-1 3.6-.7 4.6.4 1.3.1 2-.8 2-3.3 0-3.6-6.9-.6-13.8 2.5-5.7 2.8-15.2.6-20.5-1.1-2.7-2.2-3.7-4.7-4.1-1.8-.4-5.7-3-9.3-6.2l-6.2-5.6-5.5.6c-3 .4-5.8 1-6.2 1.4-2.2 2-.4 23.5 2.2 26.6 1 1.2 1 1.9.1 2.8-.8.9-1.6.6-3.3-1-3.1-3.2-4.9-16.6-3.3-25.5l.7-3.6-7.4-.6c-22.8-1.7-23.4-1.7-25 .1-.8 1-1.8 3-2.2 4.6-.6 2.4-1 2.6-2.6 1.7-2.1-1.1-2.7-5.4-1-6.5.5-.3 1-3.3 1-6.6s.5-7 1.2-8.2a17 17 0 0 0 1.4-6.2c0-2.2.3-6.5.5-9.5.3-4.9 0-6.1-2.9-10.2-3.6-5.3-5.2-6.2-8.7-4.8-2 .7-2.7.6-3.7-1-2-3-6.3-2.5-15.6 2-9.6 4.7-13 4.9-20 1.4a16 16 0 0 1-7.9-7.3 79 79 0 0 1-12.1-26.2c-1.4-5-3.9-7.1-13.7-11.9-5.5-2.6-11.1-5.1-12.5-5.5-1.4-.5-3.5-1.7-4.7-2.8s-3.9-2.2-6-2.4c-5.6-.8-7.3 1.2-7.3 8.5 0 6.3-2 14.3-3.8 15-.7.1-1.3-.3-1.4-1a141.6 141.6 0 0 0-.7-5.5c0-.6-3-1.4-6.4-1.8-10.5-1-12.7-1.7-12.7-3.3 0-1.2.8-1.4 3.7-.9 2.1.4 6.8 1 10.5 1.3 6.4.6 6.8.5 6.8-1.4 0-2.5-1.2-3-10.5-3.7-9-.8-11.5-1.4-11.5-2.6 0-1.2 6.8-1.2 14.5 0 4.9.8 6.2.7 7.4-.5 2.5-2.4.2-3.3-10-4-14-1-17-3.4-4.4-3.4 9.6 0 18.2 0 23-.2 2.3 0 6.1.8 9 2.1 6 2.7 14.5 4 28 4 5.5 0 15.2.5 21.5 1 25.5 2.2 30.6 2.4 29.4 1-.7-.6-5-1.7-9.8-2.4-6.1-1-9.4-2-10.9-3.4a13.3 13.3 0 0 0-5-2.7 8.6 8.6 0 0 1-3.8-2c-1.5-1.9-2.9-1.8-4.3 0-1 1.3-2.5 1.3-10.1.5-17.9-2-71.8-5-77-4.2-2.5.4-4.4 4.8-3.5 8.2.4 1.4 1 5.1 1.3 8.3.6 4.7.4 5.7-.8 5.7-2.2 0-3.2-2.7-4-11.2-.6-6.7-.4-8.4 1.4-12 2.1-4.5 2.6-12.4.9-14.5-.6-.7-2.9-1.8-5.2-2.4a28 28 0 0 1-7.4-3.5c-1.8-1.4-5-2.8-7-3.1-2.1-.4-7.6-3.2-12.9-6.7a296.3 296.3 0 0 0-28.3-17.5 119.2 119.2 0 0 1-12.5-7.5c-8-5.2-9.8-5.8-12.3-4-1.1.8-3.2 4.5-4.7 8.3s-3.2 7.1-3.8 7.4a53 53 0 0 1-18.4-3c-.7-2 2.6-2.3 8.9-.8 4.2 1 6.7 1.1 8 .4 2.3-1.2 2.3-2.1-.2-4.4-1.6-1.4-3.8-1.8-10.2-1.9-7.6 0-8.3-.3-8.3-2 0-1.5.6-2 2-1.8l9 1c3.8.5 7.7 1.2 8.7 1.6 1.1.5 2 .1 2.7-1.3 1-1.6.8-2.2-.7-3-2-1-8.8-2-15.5-2-2 0-3.7-.5-3.7-1s7.2-.6 16-.5c15.1.3 16.1.4 19.2 2.7 2.4 1.8 5.7 2.7 12.3 3.6 5 .7 11.4 1.6 14.4 2.2 3 .5 5.9.6 6.3.1.4-.4-.5-2-2.1-3.6-2.4-2.3-4.8-3.2-13.3-4.8l-15.3-2.9a1057.4 1057.4 0 0 1-30-5c-9.2-1.6-10.5-1-10.5 4 0 2.8-.4 4.1-1.4 4.1-1.7 0-2.5-3.6-1.6-7 .4-1.4.2-3.1-.4-3.9a62 62 0 0 1-3.8-8 37 37 0 0 1-.8-26.1c3.4-9.6 2.7-12-6.2-21.5-2.5-2.8-8.4-9.5-13-15-6.3-7.5-9.3-10.3-11.9-11-1.9-.6-5-2-7-3.3-2-1.2-5-2.3-6.5-2.3-1.6 0-4-.7-5.4-1.4-3.6-2.1-5.2-1.9-10.1 1.4-3 2-4.7 2.6-5.4 2-.7-.7-.5-1.3.5-2 2-1.1.6-2.4-4.3-3.9-4.3-1.4-5.3-3.7-1-2.4 1.6.4 6.5.8 11 .8 5.2 0 8.7.5 9.4 1.3.7.7 3 1.3 5 1.3 2.1 0 4.7.8 6.2 2 1.4 1 3.5 2 4.7 2 2.2 0 7.6 1.2 24.5 5.6 4.9 1.2 9 2.1 9.3 2 .8-1-2.4-4.5-6.2-7-4-2.6-10-7-16.2-12-4.2-3.5-6.3-4.2-19.7-6.6-6.3-1.2-17-3.7-23.8-5.6s-12.7-3.5-13.1-3.5c-1.3 0-1 3.7.6 5a81 81 0 0 0 23.3 7c17.3 3.6 37.7 9 39.3 10.6 2.2 2.2 0 2-10-1.1a97.5 97.5 0 0 0-11.4-3c-3.2-.3-22.2-5-27.6-6.7-2-.6-6.4-1.2-10-1.2-6.3 0-6.4 0-7.8-3.6a29 29 0 0 1-1-12.2c.5-8.8.6-8.9 4.7-13 4.1-4.2 4.2-4.3 3.5-9.8-.5-5.1-1.2-8-3.7-15.5a94.8 94.8 0 0 0-6.8-16.5c-.9-1.4-2-3.6-2.4-4.9s-2.2-4-4-6c-5-5.6-5.7-9.6-1.1-6.6a136 136 0 0 0 25.6 9l4.5.8-3.5-4a57 57 0 0 0-23.3-12c-4.7-1.4-6.3-3.3-3-3.3 1 0 5.2 1.3 9.3 3 4.1 1.6 8 3 8.8 3 4 0-7.7-9.4-13.7-11-2.2-.6-4.3-1.5-4.6-2-1-1.5 2.4-2.5 3.8-1.1a4 4 0 0 0 2.4 1c.8 0 .2-1.8-1.7-5.4-1.7-3-3-6.9-3-8.5s-.5-3-1-3c-1.4 0-12-10-12-11.2 0-.6 1.3-2.3 2.9-3.8l2.8-3 14.7.5c17 .4 23.2 1.2 26.3 3 1.2.8 3.2 1.5 4.3 1.5 1.7 0 2-.5 1.5-2-.7-2.3-1-2.4 9.5 2.3 7 3.1 23.4 7.7 24.3 6.7.5-.5.7-2 .3-3.3-.6-2.5-1.2-2.8-16.6-7.3-7-2-15.3-5-16.9-6-.1-.2 0-.8.4-1.4.5-.8 1.3-.7 2.9.3 2.1 1.4 5.2 2.4 21.5 6.7 9 2.4 8.3 2.4 8-.1-.4-2.1-5-4-16.4-6.9-9.2-2.3-14.5-4.2-14.5-5.2 0-1.3 6.2-.5 11.5 1.4 5.7 2.1 11.5 3 11.5 1.9 0-1.5-8.3-6.1-10.8-6.1-1.2 0-2.2-.5-2.2-1s1.5-1 3.4-1c5.1 0 19.3 10.8 20 15.3 1.4 7.5 2.2 22.2 2 35.7-.2 8 .1 15.9.6 17.5l1.4 5.6c.3 1.4 2 4.3 3.7 6.5 1.7 2.1 3.7 5.5 4.5 7.4a28 28 0 0 0 5.4 7.3c3.6 3.3 4.5 3.7 9.4 3.7 3 0 9.1-1 13.7-2.4 4.6-1.3 10.9-3 13.9-3.6s6-1.6 6.5-2c.6-.5 4.7-2.7 9.1-4.9a135 135 0 0 0 28.4-20.1c8.4-7.4 16-12.5 20.7-14 2.1-.7 5.1-2.5 6.8-4 3.3-3.1 20.4-10.4 33.6-14.3a6767.4 6767.4 0 0 0 27.5-8.2c12.1-3.6 14.2-4.5 19.4-8.5 2.2-1.8 6.7-3.6 12.5-5 5-1.2 11.8-3.5 15.3-5 8.3-4 19.3-6 39-7.3 17-1.1 23.4-.5 24 2.4.2 1.1-1.6 2-7.5 3.8A88.9 88.9 0 0 0 366 200a61.3 61.3 0 0 1-11.5 4 272.4 272.4 0 0 0-41.2 13.9c-1.5.8-4.4 1.8-6.3 2.2-2 .4-4.4 1.3-5.5 2a37 37 0 0 1-7.5 2.8c-3 .8-8 2.5-11 3.7-3 1.2-9.1 3.2-13.5 4.5a84.8 84.8 0 0 0-19.7 7.5 61 61 0 0 1-10 4 71 71 0 0 0-10.3 4c-3.3 1.6-9.2 4-13 5.2-3.9 1.4-8.9 3.4-11.1 4.6a59.7 59.7 0 0 0-18.1 20c-2.1 3.6-7.8 10.6-12.6 15.6-7 7.2-9.8 11-13.3 18.2-3.3 6.6-5.3 9.3-7.3 10.2-3.2 1.5-4.7 4.1-5.6 9.8-.6 3.8-.3 4.3 4 8.7a58 58 0 0 1 13.8 20.8 45 45 0 0 0 11.7 8.2c16.2 7.4 14.3 7 24 5.9a52 52 0 0 0 10.9-2c1-.7 4-1.1 6.3-1.1 3.6 0 5.6-1 12.2-5.5 4.4-3 8.4-5.6 9-5.6.6 0 2.9-1.3 5-3s4.5-3 5.2-3a90.4 90.4 0 0 1 26.3-12.4c2.3-.3 8.9-2.8 14.4-5.5a180 180 0 0 1 35.7-13.4c3.4-1.7 20-6.2 28.4-7.7 3.7-.7 8.7-2.3 11-3.6a77 77 0 0 1 25.6-8.5c4.1-.4 9.5-1.3 12-1.8s9.4-1.7 15.5-2.6c6-1 12.5-2.3 14.4-3a28 28 0 0 1 8.7-1.5c4.3 0 5.6.4 6.8 2.2 3.1 4.4.6 5.8-19.3 11a405.6 405.6 0 0 1-49.1 13.8c-6.9 1.6-15.9 4-20 5.5s-9.5 3-12 3.5c-17 3.2-19.2 4-35.5 11.5-3.9 1.8-10.8 4.7-15.5 6.5-9.3 3.6-22 10.6-22 12.1 0 .5-.5 1-1 1s-3.5 1.5-6.3 3.3-7 4-9 4.6c-2.5.8-5.2 3-8.2 6.8-2.5 3-6.7 7.2-9.3 9.3a132.4 132.4 0 0 0-16.8 17.9c-1.8 2.6-2.3 11.1-.9 14.5a98 98 0 0 1 3 8.9c2.8 9.2 5.7 12.1 15 15.3 7 2.4 9.4 2.7 20.6 2.6 13.5 0 18-.9 27.7-5.3 3.4-1.6 8-3.2 10-3.5 3.6-.6 4-.4 7.3 3.7 6.7 8.7 9.2 10.6 15.6 12.4 7.9 2.2 12.5 1.7 23.3-2.6 8.9-3.5 13.3-6 26.4-14.8a69.8 69.8 0 0 1 27.1-12.6 280 280 0 0 0 25-6.5c8.1-2.4 25.1-6 28.4-6 3.6 0 7.1 2.3 7 4.6 0 1.8-3.5 5-8.4 7.5a270.2 270.2 0 0 1-29.4 11.9 102.9 102.9 0 0 0-24.4 11c-.4 0-2.5 1.3-4.5 3a80 80 0 0 1-9.9 6c-4.8 2.5-6.6 4-7.8 6.9-.9 2-2.3 4.8-3.2 6.2-1.6 2.5-1.6 2.8.8 5.7 2 2.4 4 3.4 10.5 5l8 2.1 10-2.5c6.4-1.6 14.6-4.8 23.3-9 13.9-6.9 19.3-8.4 23-6.5 4.4 2.4 1 7.7-7.9 12.1-5.8 2.9-7.9 4.8-9.5 8.6a45 45 0 0 1-4.9 7.8c-2.9 3.8-3.6 5.7-3.6 9.2 0 3.3.5 4.6 2 5.4 1 .6 2.7 2.5 3.6 4.3 2.3 4.6 8.3 11.7 9.8 11.7.7 0 3.3 1.6 5.8 3.5 8.3 6.6 26.6 9.5 41.8 6.8 10.7-2 15.3-3 20-4.7 5.7-2 6-2 6 .2 0 2-2.3 8.9-3.3 9.9-.4.4-.7 2.3-.7 4.3 0 3 .8 4.4 4.7 8.2 4.2 4 5.8 4.8 12.5 6.4 4.2 1 8.7 1.5 10 1.2l10.7-2.7c8.5-2.2 11.1-2.2 11.1.2 0 1.2-3.7 9-8.3 17.3-2.4 4.3-2.2 5.8 2.3 12.4 3.5 5 4.6 6 8.5 7 3.5.9 4.8 1.8 5.6 3.8 1.8 4.6 2.2 11 1 14.2-2.1 5-.5 10.6 4.4 15.9 2.4 2.5 4.9 6.2 5.5 8.1a20 20 0 0 0 6 7.6c2.8 2.2 5 4.8 5 5.8 0 1.9 1 2 8.5 1.7 5.5-.2 12.2-2.7 14.4-5.3 1.7-2.1 5-2.2 7.8-.2 2.4 1.7 4.8 8.6 4 11.5a4 4 0 0 0 .5 3.1c.7 1.2 1.1 1 2.1-.5 3.4-5.2 5-6.7 6-5.7.8.8.7 1.5-.1 2.3-1.6 1.6-1.5 3.8.2 3.8 1.8 0 22-9.4 25.5-12 5.3-3.7 23.2-12 26-12 1 0 3-.9 4.3-2 2.9-2.2 12-6 14.6-6 2.7 0 7.6 4.4 7 6.2-.5 1.2-2 1.4-7.5 1-7-.4-13 1-11.8 2.9.4.6 2.9 1 5.9.7 2.8-.2 5.2.1 5.3.7.2.6-3.2 1-8.5 1-4.8.1-10.5.5-12.7 1-5.2 1-12.5 4.2-12.5 5.7 0 1 5.1.9 28.7-.8 6-.5 8.3-.3 8.3.5 0 1.7-1 1.9-20.4 3-11.8.6-18.6.6-19.8 0-1.4-.8-2.5-.5-4.5 1a9.4 9.4 0 0 1-4.2 2.1 33 33 0 0 0-12.1 6.3c0 .8 17.8.1 32.9-1.3 4.6-.4 9.8-.4 11.5.1 1.7.5 5.7 1 9 1 4.2 0 5.6.2 5.3 1.2-.2.8-1.6 1-3.8.8-6.1-.8-11.2-.6-11.6.5-.6 1.9 4.6 3.4 11.7 3.4 3.9 0 7.2.5 7.6 1.1 1.2 2-1.1 2.8-6 1.8-5.8-1.3-9.3-.6-10.1 2.2-1 3.1.4 3.9 7.6 4.3l8.1.5c1 0 1.8.6 1.8 1.1 0 .7-3.5.8-10 .4-10.8-.7-11.7-.3-8.5 4.3 1 1.5 3 2.2 7.7 2.7 10.5 1.2 12.8 1.7 12.8 3.3 0 1.2-.6 1.4-2.3.8a42 42 0 0 0-15.9-1.7c-.6.6 0 2.1 1.6 4 2.3 2.6 3.3 3 10.3 3.6 4.2.3 8.1 1 8.7 1.6 1.5 1.5-1.7 2.2-4.8 1-4.3-1.6-12.6-1.3-12.6.5 0 .8.8 1.9 1.8 2.4a57 57 0 0 1 11.2 23c0 .9.9 2.4 2 3.6 2.4 2.6 7 14.9 7 18.7a16 16 0 0 1-1.6 6c-1.3 2.5-1.5 4.8-1 10.3.6 6.2.4 7.3-1.2 8.7-1.6 1.3-1.8 2.6-1.4 6.8.4 4 0 5.6-1.3 7.1-1.4 1.6-1.6 2.3-.7 3.2 1.6 1.6 1.5 9.4-.2 12-.7 1.3-1.6 4.5-2 7.2s-1.3 6-2.1 7.2a9.4 9.4 0 0 0-1.5 4.2c0 2.4-4.5 3.5-8.8 2.2-1.7-.4-10.4-.9-19.4-1-9 0-18-.3-20-.7-4.6-.7-5.5.8-2.9 4.6a12 12 0 0 1 2.1 3.9c0 1.2 29 2.7 37.6 1.9 5.9-.6 8.8.3 6.4 1.8-.6.3-9.8.6-20.6.6s-19.4.3-19.2.7c.3.4 1 2.2 1.7 4 .7 1.7 1.8 3.2 2.4 3.3h20a76 76 0 0 1 18.7.7c0 1.8-3.2 2.2-19.6 2.2-17.3 0-17 0-15.8 4.7.5 2 1.3 2.2 11 2.5a50 50 0 0 1 11 1.1c1.2 1.1-1.8 2.8-3.6 2-3.6-1.4-12.5-1.4-14.5 0-2 1.5-1.9 1.6 1.5 3 3.5 1.4 6.8 2 26.7 5.2a61 61 0 0 1 15 4 21 21 0 0 0 7.5 2.5c1.4 0 6.8 1.1 12 2.5a79.3 79.3 0 0 0 12 2.5c5.7 0 5.8.2 5.8 13 0 11.3-1 16.5-3.4 18.2-1 .7-2.1.6-15.1-1.3-7-1-22-5.1-41.5-11.4a89.3 89.3 0 0 0-15-3.7l-4.3-.3-.5 4.5c-.6 6.4-.5 9.6.6 16.6 1 6.8 1.7 8.3 6 13.7a20 20 0 0 1 3.7 7 13 13 0 0 0 1.8 4.5c.6.9.7 1.7 0 2.3-1.3 1.4-5.3-2.6-5.3-5.4a16 16 0 0 0-3-6.6c-4.2-5.6-7-12.4-7-16.6a16 16 0 0 0-1.2-6c-1-2-1-3 0-4.5 3.2-5.1.4-13-4.6-13-1.7 0-2.2.8-2.8 4.7-1.4 9.5.5 22.8 4.6 31.8 1 2.2 2 5.2 2.3 6.5a62 62 0 0 0 1.3 5c.6 2 .5 2.2-1.3 1.2-1.3-.7-3.3-4.7-5.9-11.9a55.2 55.2 0 0 1-4.2-21.3c-.2-6-.8-11-1.5-11.9-1-1-1-1.5 0-1.8 1.8-.6 1.6-4-.3-4.7-4.6-1.8-4.7-1.5-4.1 13.7.4 11.1 1 15.4 2.6 19.5 1.2 2.9 2.1 7 2.1 9.3 0 2.2.4 4.8 1 5.7 2.4 4.6 7 15.3 8 19 .5 2.2 1.8 5 2.9 6.4 1 1.3 2 3.7 2.4 5.4a958.1 958.1 0 0 0 3.4 17c.3 2.2 1.4 5.3 2.5 7 1 1.6 1.8 4 1.8 5.1 0 1.2 1.8 4.3 4 7 2.6 3.1 4 5.9 4 7.7 0 2.3 7.3 17.8 10 21.2.5.5 1.1 2.7 1.5 4.7.6 3 .4 3.8-.8 3.8-.9 0-2.2-1.2-3-2.8zm53.7-134.6c1.4-7.1 2.6-17 2-17.8-.3-.6-1.3-1-2.2-1a426 426 0 0 1-38.7-9.6c-4.4-1.4-10.5-2.8-13.5-3s-8.4-1.4-12-2.4c-15.1-4.1-22.2-5.3-23-4-.5.7-1.7 1-2.9.7-2.8-.7-3 3-.1 3.8 1.1.4 2 1.2 2 1.8 0 1.6-4.1 5.7-5.7 5.7-2.3 0-1.5 5 1 6a44 44 0 0 0 13.2 3.2c1-.1 3.3.4 5 1.2 3.1 1.5 22.6 7.1 30.5 8.8 2.5.5 7.9 2 12 3.4 8.5 2.7 21.4 5.2 27.7 5.3 3.7.1 4.3-.2 4.7-2.1zm-10.8-5.7c-1.6-1.7-1.6-2.4-.7-5.4 1.3-3.7 2.7-4.7 6.7-4.7 3.3 0 4.8 3.5 3.7 8-.8 3.1-1.3 3.6-4.4 3.8a7 7 0 0 1-5.3-1.7zm6.4-3.7c0-3-2.4-2.7-2.8.5-.2 1.4.2 2.1 1.2 2.1s1.6-.9 1.6-2.6zm-18.5-.4c-.7-2-.8-2-2.6-.4-1.7 1.6-2 1.6-2.5 0-.3-.8 0-3.5.7-5.8 1-3.2 2-4.4 3.6-4.6 1.7-.2 2.3.2 2.3 1.7 0 2.5 1 5.1 2 5.1.4 0 1.3-1.3 2-3s1.6-3 2.1-3c1.4 0 1 3.2-1 7.8-2.2 4.7-5.5 5.8-6.6 2.2zm-14.6-2.8c-1.5-2.4-3.9-2.8-5.7-1-.9.9-1.5 1-2.3.1-.8-.7-.1-2.4 2.3-6 2.8-3.8 4-4.8 6.4-4.8 2.9 0 2.9.1 2.7 5.2 0 3-.6 6-1.1 7-.9 1.5-1.1 1.5-2.3-.5zm-18.2-2c-2.7-1.2-3.5-2-3-3.2.3-.8.8-3.1 1-5.2.5-4 2.5-6.4 4.3-5.3.7.4.9 2.3.5 5-.5 3.1-.3 4.5 1 5.5 1.6 1.3 2 3.6.7 4.4-.4.2-2.4-.3-4.5-1.2zm-15.2-5.7c-2.6-.8-3.9-1.7-3.6-2.6.2-.8.7-3.2 1-5.4.5-3.2 1-4 3-4.3 2.5-.4 2.5.3.6 6.3-.5 1.6 0 2.3 2.5 3.2 1.8.7 3 1.8 2.8 2.5-.6 1.7-1.7 1.8-6.3.3zm-12-5.7c-1-2.6.4-8.8 2-8.8 2.9 0 3.2 4.9.6 8.2-1.8 2.1-2 2.2-2.6.6zm-9.5-4.8c0-.5-.7-1-1.5-1s-1.9-.8-2.4-1.9c-.8-1.4-.6-2.5 1-4.5 1.2-1.5 2-2.8 1.8-3-.9-.5-7.6-2.6-8.5-2.6-.5 0-.9 2.5-.8 5.6 0 4.8.4 5.7 2.5 6.9 2.9 1.6 7.9 2 7.9.5zm-1-16c0-.6-1.6-3.6-3.5-6.6-2-3-3.5-5.8-3.5-6.3s-1-2-2-3.4-2.7-5-3.6-7.9a84.7 84.7 0 0 0-9-19.3 94.4 94.4 0 0 1-4-7.8c-1-2.4-3.4-2.2-3.4.4 0 3.8 4 16 6.6 19.8a3638 3638 0 0 1 8.5 12.8c1.6 2.3 2.9 4.6 2.9 5 0 2.1 4.4 11.9 5.8 13 2 1.6 5.2 1.7 5.2.3zm-77.6-32.6c2.5-1 .8-2.4-3-2.4-3.2 0-4.2.8-2.7 2.3.8.9 3.6.9 5.7 0zm118-1.4-.9-5.3-.6-3.7h-24c-13.9 0-24 .4-24 1 0 1.6 3.6 7 5 7.6 2.4 1 18.2 2 32 2 10.6-.1 12.6-.4 12.4-1.6zm-3.9-19.4c0-4.1-.3-7.7-.6-8-.5-.5-20-1.3-43.7-1.8-9.5-.2-11.7.6-10.5 3.8.7 2 6.6 2.5 30.6 2.6 12.5 0 22.7.4 22.7.8 0 1.2-19.2 2.2-35 1.8-14.2-.3-14.5-.3-14.8 1.8-.2 1.3.6 3 2 4.3 2 2 3.2 2 25.8 2h23.6v-7.3zm-4.5-16.1v-4.5l-19.3-.2c-10.5 0-21-.2-23.2-.3-6.7-.3-7.5.2-7.5 4.5v3.9l6.2.3c3.5.2 14.7.5 25 .6l18.8.2zm-2.5-8.2c0-.6-1.7-3-3.8-5.2l-3.8-4.1-9.2-.1c-25.4-.3-28.1-.1-28.9 1.8-.3 1-.7 3-.7 4.5-.1 3.4 1 3.7 15.4 4 21.6.6 31 .3 31-.9zm-8.5-12.6c0-.5-1-2.2-2-3.8l-2.1-3h-26.7L640 752c-.6 1.7-1.1 3.5-1.1 4 0 .4 7.4.7 16.5.6 9.7 0 16.5-.4 16.5-1zm-5-10.3c0-.7-1.2-2-2.8-3s-3-2.4-3.5-3.1c-1-1.6-21.2-2-23.6-.4-1.2.7-1.2 1.3.2 3.5 2.1 3.2 3.6 3.5 16.7 3.8l11.7.3c.7 0 1.3-.4 1.3-1.1zm26.4-10.7c1.4-4-.8-10-5.7-15.7-6.5-7.5-14-16.8-16.7-20.9-5.5-8-14-13.5-18.4-11.8-2.5.9-1.9 4.2 1.1 6.8 4.6 4 12.5 13.8 18.6 23 3.1 4.8 6.6 9.3 7.6 10.1a47 47 0 0 1 6.2 6.6c4.4 5.6 5.9 6 7.3 1.9zm-35.8-1.9c-1.1-5.6-1.8-5.9-14.2-5.9-6.3 0-11.4.3-11.4.5l1 2.8a70 70 0 0 1 1.4 4c.5 1.5 2 1.8 12.2 1.8h11.6zm-46 0c-.2-.8-.5-.6-.5.6 0 1 .2 1.6.5 1.3.3-.4.4-1.2 0-2zm37.6-8.8c2.3 0 2.2-2 0-4.7-1.6-1.8-3.2-2.1-12-2.6-5.7-.2-10.2 0-10.2.4 0 2.5 3.2 6.7 5.2 7 2 .3 10.3.2 17 0zm-44.4-18.6c-1.6-1.7-2.6 1.5-1.7 5.9l1 5.1c0 .6.5-1.4.9-4.5.4-3 .3-6-.2-6.5zm42.2 9c0-.3-.7-1.8-1.5-3.4-1.3-2.5-2-2.8-8.2-3.4-10.6-1-14-.8-15.4 1-2.3 2.7.1 4.8 6.7 5.4 8.3.8 18.4 1 18.4.4zm-5-11.9c0-1.3-.7-2.6-1.6-3a67 67 0 0 0-19.4.2 6 6 0 0 0 1.2 2.5c1.3 1.6 4.8 2.3 14.5 2.6 5 .1 5.3 0 5.3-2.3zm-45.8-4.4c1.8-1.6 5.5-4.1 8.3-5.7s5.7-3.5 6.7-4.2c2-1.8 3.8-.9 3.8 2.1 0 5 1.8 5.8 12.8 6 5.6 0 10.2-.2 10.2-.5 0-.4-.9-1.7-1.9-3-1.5-1.9-3-2.4-7.6-2.6-6.1-.2-10.5-2.3-10.5-5 0-2.4 5-14.6 6.4-15.5 2.2-1.5 2.8-.7 2.2 2.5l-.6 3.2 5 .3c4.5.3 5.2 0 10.1-4.4 6.3-5.6 10.3-7.4 16.6-7.4 4.6 0 19.5-3.8 21-5.3.4-.4-2.5-.5-6.3-.1s-14.3 1-23.4 1.5c-9 .5-18.6 1.2-21.2 1.5-3.8.5-5.4.2-8.3-1.6a15 15 0 0 0-6.8-2c-7.8.5-23 0-22.3-.7.4-.5 6.7-1 14-1.3l13-.5.4-3 .3-3-8 .6c-4.4.3-8.7 1.1-9.5 1.8-1.2 1-4.3 1.1-13.1.6a48.8 48.8 0 0 1-12-1.6c-.7-1 .6-1.2 4.2-1 1.3.2 2.6-.4 3-1.3.8-2.3-6.3-8.6-9.8-8.6-3.4 0-6-1-6-2.1 0-.5 1.4-.9 3-.9 4.4 0 4-2-2.2-9.2l-5.3-6.3-7.2-.9c-4-.5-7.5-.6-7.8-.3s.4 1.6 1.6 3c1.7 2 3.5 2.6 8.6 3.2 8.8 1 9.1 2.5.5 2.5-3.8 0-7.2.4-7.5.9-1 1.5 3.4 6.1 5.9 6.1 3.4 0 4 1.6 1.5 5-3.8 5.3-2.3 6.4 7.5 5.7 4.7-.3 8.5-.4 8.5-.2l-1 3c-.9 2.3-1.4 2.5-7 2.5-4.6 0-6 .3-6 1.5s1.5 1.4 8.4 1.2c8-.2 8.5 0 12.4 3 5.8 4.7 8.3 5.4 16.6 4.7 5-.5 7.5-.3 8 .5.4.6 2 1.1 3.6 1.1 3.5 0 3.6.4 1 3.7-1.3 1.6-1.8 3.4-1.4 4.8.5 2 0 2.3-4.2 2.9-2.6.3-7 .6-9.7.6-2.7 0-6.7.5-8.9 1.2-3 .9-5.3.9-10.1 0-8-1.7-15.3-2.1-29.7-2h-14.3c-3-.1-3.5 1.4-1.3 4.3 1.2 1.7 3.4 1.9 27.7 2.3a1483.4 1483.4 0 0 1 37.6 1c2.4.1 4.3.7 4.3 1.2 0 .7-12 1-33.8.8l-33.7-.3v2.5c0 2 .5 2.6 3 2.9 1.6.2 3.6.8 4.4 1.5 1 .8 10 1.2 28.8 1.5 20 .2 27.3.6 27 1.5-.4 1.3-19.7 1.4-47.8.3l-17.7-.7-.5 2.2c-.4 1.2-.4 2.5-.2 2.7.5.5 31.1 1.6 53.2 2 9.9.1 10.3 0 13.5-2.7zm8.8-15.6c.6-.8 2-1.8 3-2 1-.4 2.9-2.3 4-4.2 1.8-2.8 2-4.3 1.5-8-.6-4.3-.6-4.5 1.7-4.2 1.7.2 2.2.9 2 2.5-.2 1.7.3 2.2 2.2 2.5l2.4.3-2.4 5c-2 4-3.4 5.5-7.2 7.3-5.6 2.7-9.1 3-7.2.8zm-2-3.5c0-1 4-2.2 5.2-1.5.4.3.6 1 .2 1.5-.7 1.2-5.4 1.2-5.4 0zm28.5-11.1c-.7-1.2-1.2-1 5.2-1.5 3-.2 5.5 0 5.8.6.4.5.2 1-.2 1-6.3.7-10.4.6-10.8-.1zm-11.3-1.6c-2-.8-1.4-2.4.8-2.4 1.1 0 2 .7 2 1.5 0 1.6-.6 1.7-2.8.9zm12 17.4a17 17 0 0 0 0-5c-.6-1.2-7.7-.9-9 .4-.7.7-1.2 2.7-1.2 4.5 0 3.4 1 4 6.6 4.2 3 .1 3.2 0 3.6-4.1zm-71-14.2c-3.8-4-5.2-6.8-5.2-10.2v-2.8l-3 3c-3.9 3.6-3.8 6 0 7.3 6.6 2.3 2 3.1-14.2 2.6-12.8-.5-16-.3-15.6.7.5 1.6 9 2.3 27.5 2.4H564l-2.9-3zm-69.2 1c1.4-.9 4.2-1.5 6.2-1.5 2.4 0 4-.7 4.7-1.8.8-1.6 3.2-1.8 21.4-2 20.2-.4 20.5-.4 22.7-2.8 1.3-1.4 2-2.8 1.6-3.2a493.9 493.9 0 0 1-56.1 2.3c-21 .3-39 .6-40.2 1-2 .4-4.1 4-3 5 .2.2 6.4 1 13.8 1.5s15.2 1.4 17.4 1.9c6 1.2 8.7 1 11.5-.5zm-1-4.6c0-.5 1-1 2-1s1.8.5 1.5 1c-.3.6-1.3 1-2 1s-1.5-.4-1.5-1zm26 3c-2-1.3-5-1.3-5 0 0 .6 1.5 1 3.2 1 2.5 0 3-.2 1.8-1zm169-1.5c0-1.4-.5-2.5-1-2.5s-1 .4-1 1l-.6 2.4c-.4 1 0 1.6 1 1.6s1.6-.9 1.6-2.5zm-106 0c0-.7-6.5-3.5-8-3.5-1.9 0-1 2 1.2 3 2.6 1 6.8 1.3 6.8.5zm-53-9.2c5.8-.3 9.6-.8 8.5-1-3.9-.8-4.9-1.3-4-2.3.6-.5 5-.5 11 0 8.2.8 10.2.7 12.2-.5 5-3.3.7-5.4-6.2-3-5.9 2-10.4 2-11.2 0a1.8 1.8 0 0 0-2.2-1c-.9.3-19.4.6-41.1.7-21.7 0-40.3.6-41.3 1-1.2.7-1.7 1.8-1.5 3.6l.3 2.7 20.5.5c21.6.6 37.6.4 55-.7zm4.6-10.5c.3-.4-.1-1.9-1-3.3l-1.7-2.6-79.4.6-.3 2.3c-.3 1.6.3 2.5 2 3.1 2.6 1.1 79.3 1 80.4-.1zm85-1.3c-.4-1.3-4.6-2-4.6-.7 0 1.4 1 2 3.1 2 1-.2 1.8-.7 1.6-1.3zm-60.6-7c0-1-.5-1.3-1-1s-1 1-1 1.6.4.9 1 .9 1-.7 1-1.6zm-34.5-.7c.3-.3-2.2-1.7-5.5-3.1l-6-2.7h-37.6c-20.7-.1-37.8 0-38 .3-.6.6 4.4 4 8 5.4 2.2.8 13.7 1 40.9.8 20.8-.1 38-.5 38.2-.7zm-18.5-8.8c0-.3-2.6-1.3-5.8-2.4-7.2-2.3-18.2-6.4-20.4-7.7-2.2-1.1-24.1-1.3-53.3-.3-22.7.7-41.8-.1-41.3-1.7.2-.6 18-1.2 43.3-1.5 23.6-.3 43-.7 43.3-1 .3-.2-.8-.8-2.4-1.4a25 25 0 0 1-4.4-2c-4.3-2.9-7.3-3-44.4-2.5-38 .6-38.1.6-37.8 2.7.1 1.1-.5 3.2-1.4 4.5-.8 1.3-1.4 3.8-1.2 5.6.3 2.8.7 3.2 4.3 3.9 2.2.4 12.8.7 23.5.7 13.6 0 20.4.3 22.5 1.2 3.6 1.6 75.5 3.4 75.5 2zm197 .6c0-1.1-2-1.5-2.5-.6-.3.5 0 1 1 1 .8 0 1.5-.2 1.5-.4zm-138.4-13.7c1.3-2.2-2.6-4.3-10.8-5.5-4.6-.6-8.6-1-9-.6-1 1 2.6 5 5.4 6.1 3.2 1.3 13.5 1.3 14.4 0zm-54.9-10.2c-.3-.8-3.2-3-6.4-4.8a131.5 131.5 0 0 1-21.3-16.5 47 47 0 0 0-9.9-5.6c-8.8-4-25-12.8-33.5-18-2.7-1.6-5.5-2.8-6.2-2.6-2.7.6 19.5 21.8 22.8 21.8 1 0 5.7 3.8 10.4 8.5 5.4 5.3 9.4 8.5 10.7 8.5A87 87 0 0 1 502 611c2 .7 5.4-2.6 4.7-4.5zm56 2c2.1-2 1.5-4.5-1-4.5a81 81 0 0 1-10-1.6 81.9 81.9 0 0 0-13-1.6c-5.1 0-8.8-1.3-7.5-2.6.7-.7 19.8 1.2 26.3 2.6 4.5 1 5.7.4 4.9-2.7-.7-2.5-3.4-4-4.4-2.3-.6 1-18-.3-34.3-2.5-1.5-.2-2.7 0-2.7.5 0 1 9.5 9 10.8 9 .6 0 2.2 1.2 3.6 2.6 1.4 1.5 3 2.4 3.9 2.1.8-.3 5 0 9.3.8 10.3 1.7 12.7 1.7 14.2.3zM453 605.9c.6 0-2.1-1.7-7.6-4.6-4.1-2.1-2.4-2.1-64.2-1.4-2 0-1.5 5.8.5 6.3 1.3.3 63.2 0 71.3-.3zm-14-10.3c0-.7-2-2.4-4.6-4-4.4-2.6-4.9-2.7-29.2-3.7-30-1.2-30.2-1.2-30.2-.2a21 21 0 0 0 3.8 5l3.8 4.1h28.2c21.1 0 28.2-.3 28.2-1.2zm113-3c0-3.6-4.5-5.3-17-6.2-4.7-.4-12.6-1.3-17.5-2a49 49 0 0 0-9.5-1c-.2.3.8 1.7 2.2 3.1 2.7 2.7 10.9 4.5 27.3 6 3.8.3 7.2.8 7.4 1 1.1 1 7 .3 7-.9zm-214.7-7.2c-.3-1.3-10.3-2-10.3-.6 0 .5 1 1.1 2.2 1.4 3.7.7 8.3.3 8-.8zm85.6-.3c0-.4-2.9-2.6-6.4-4.9l-6.3-4-31.4-.7a1680.5 1680.5 0 0 1-54.8-2c-2 0-3.5-.6-3.5-1.1 0-.6 3.7-1 9.5-.8l73.4 1.7c3.7.1 4.4-1.9 1.4-3.8-1.8-1.1-7.4-1.6-23.8-2.2-11.8-.3-21.8-.8-22-1-1.1-.6-45-.7-45.7 0-.4.3.3 1.8 1.5 3.3a35 35 0 0 1 4 7c2.4 4.9 5.3 6.8 8.1 5.3 1.3-.6 5.2-.8 10.4-.4 7.3.6 9 .4 13.3-1.6 4-1.7 6-2 10.1-1.5 3 .3 5.6 1 5.9 1.6 1.7 2.8 8 4 25.2 4.5 9.7.4 17.9.8 18.1 1 .8.7 13.1.4 13-.4zm123.1-1.6c0-2.6-4.8-6.6-7.9-6.6-1.6 0-7.2-.7-12.3-1.5a523.8 523.8 0 0 0-33.1-4.1c-4.9-.6-4.6.9 1 5.1 3.5 2.8 5 3.2 16.3 4.4l21 2.6c11.8 1.7 15 1.8 15 .1zm-1-10.7c.7-1.2.8-2.5.3-3-.8-.8-13-2.3-33.8-4a58.7 58.7 0 0 1-13-2c-1.4-1.5 14.5-1.1 28 .6 18.3 2.2 20.8 2 24-1.6 4-4.9 3.4-6.3-2.3-5.5-5.3.8-8.1 2.6-4 2.6 1.5 0 3 .4 3.3.9 1 1.5-2.9 2.1-7.9 1.2-2.6-.5-5.6-.7-6.6-.4a10 10 0 0 1-5-1.2c-2-1-4-1.4-5.3-.9-1.2.4-2.6.6-3 .5l-14.6-1.7c-7.5-.8-16.3-1.9-19.6-2.4-7.4-1.3-17.5-1.3-17.5-.2 0 1.5 2.4 2.9 6 3.5 7.4 1.2 10 2 10 2.8 0 .5-.5.9-1 .9s-1 .6-1 1.4c0 3 3.4 3.8 29 6.6a1058.4 1058.4 0 0 1 31.2 3.8c1 .1 2.2-.8 2.9-2zm-147.7-11.2a37.2 37.2 0 0 0-11.6-11.8l-13.2-.4c-6.6-.3-19.9-.9-29.5-1.5-30.7-1.8-38-2-38-1.1a14 14 0 0 0 2.9 4l2.8 3.3 14.4.8c8 .5 26 1 40.3 1.2 21.1.2 26 .5 26.4 1.7.4 1.2-4 1.3-29.4.7-16.5-.4-35-1-41.2-1.3-10.5-.5-11.2-.5-11.2 1.3 0 1 .4 2.3.8 2.9.4.6 8.8 1.1 20.7 1.3a1424 1424 0 0 1 55.7 2l11.6.1zm114.7-6.8c0-2.6-9.3-4.4-42-8a83 83 0 0 0-20.6-.7c-.3.3 1.1 1.5 3.3 2.5 2.5 1.3 8.1 2.4 16.8 3.3l23.5 2.5c13.7 1.6 19 1.7 19 .4zm-7-8.8c0-3.2-2-4-15-5a3976.1 3976.1 0 0 1-53-5 49 49 0 0 0-9.3-.4c-1.7 1 2.6 4 7 5.2a234 234 0 0 0 22.7 2.6c10 .8 21 1.9 24.6 2.4 7.1 1.1 12.3 1.6 18.8 1.9 3.5.1 4.2-.2 4.2-1.7zm-133-.5c-3.9-3.5-11.5-5.4-24.5-6a245 245 0 0 1-18.5-1.6c-7.8-1.3-40-2.3-40-1.4 0 .5 2 2 4.3 3.3 5.1 3 19.6 4.9 39.2 5.1 7.2 0 17 .5 22 .9 15.9 1.3 19.1 1.2 17.5-.3zm134.7-10.6c2.6-4.5 1.8-5.3-3.7-3.8-2 .5-4.7 1.2-6.3 1.4-4.7 1-4 2.3 1.2 2.3 2.8 0 5.1.5 5.1 1 0 1.4-9.3 1.3-10.7 0-1.3-1.3-11.8-.8-11.8.5 0 1.5 5 2.3 15 2.4l9 .1 2.2-3.9zm-47.7-1c-.8-.6-2.5-1-3.7-1-1.3 0-4-.7-6-1.5-6.9-2.7-40.3-6.6-40.3-4.7 0 .3 2 1.7 4.3 3 4.1 2.3 12.2 3.4 32.2 4.5 13.7.7 15 .6 13.5-.4zm-20-8c0-.6-1.2-1.7-2.8-2.5a34.6 34.6 0 0 1-9.4-9.9c-1.6-2-14.1-4.6-23.6-4.6h-6.3l.3 3.2c.3 3.2.4 3.2 6.8 4 3.6.5 10.3 1.1 15 1.5 5.8.5 8.5 1.2 8.8 2.1.5 1.5-3.3 1.4-21-.5-4.1-.4-5.8-.3-5.8.6 0 2 6.6 4 13.2 4 3.5.1 10.1.7 14.8 1.5l9.2 1.4c.5.1.8-.3.8-.8zm-121.5-3c1.9-3.1-16.3-5.8-55.4-8.3-24.6-1.5-28.3-1.5-28.8 0-.8 2.3 5.3 3.6 21.2 4.3 8.8.4 22 1.3 29.5 2l23 1.9 9.7.9.8-.8zm-20.5-8.5c0-.9-6.1-3.7-11-5.2-3.7-1-41.9-4.2-52.8-4.4-1.8 0-1.5 2.8.6 4 1 .4 8 1.3 15.7 2a805 805 0 0 1 41 3.6c1.6.5 6.5.5 6.5 0zm57.5-4.6c1.7-2.7-6.3-8-12-8-2 0-5.3-.8-7.3-1.9-2-1-6.5-2.7-9.7-3.6-3.3-1-9.7-3.4-14.3-5.6-8.1-3.8-12.2-4.8-12.2-3 0 1.6 10.6 8.2 23 14.4a50 50 0 0 0 19.4 6.8c4.4.5 8.1 1.2 8.4 1.4 1 1 4 .6 4.7-.5zm66.4-3.5c-2.9-2.9-22.9-5.9-24.3-3.7-1.4 2.4 1.6 3.5 10.5 4a66.4 66.4 0 0 1 12.8 1.2c2.3 0 2.4-.1 1-1.5zM276 503.9c0-.5-2.3-2-5.2-3.2a51.5 51.5 0 0 1-8.3-5 68 68 0 0 0-27.5-11.4c-3.6-.4-8.3-1-10.5-1.6a254 254 0 0 0-21-2.5 268 268 0 0 1-19.3-2c-4.4-1.3-2 1.1 5.3 5.2 8 4.5 8.3 4.5 34 5.8 10 .5 28 2.3 30.8 3.1 1 .3 1.4 1 1.1 1.6-.6 1-8.8.6-21.4-1.2-3.6-.4-12.3-1.1-19.4-1.4-11.4-.6-12.7-.4-11.6.9.6.8 2.8 1.7 4.8 2a127.6 127.6 0 0 0 41.6 8.4l16.6 1.5c7.4.7 10 .6 10-.2zm143.7-4.8c.3-.8-1.6-1.4-5.4-1.7a227 227 0 0 1-15.2-2c-9.3-1.6-12.3-1.4-10.3.5a122 122 0 0 0 27.1 4.5c2 0 3.6-.7 3.8-1.3zm2.8-7.6a44 44 0 0 0 7-11.4c.5-2 0-2.2-5.7-2.7-6.2-.7-13.8.6-13.8 2.3 0 .5 3.4 1.2 7.5 1.6 4.2.3 7.7 1 8 1.4 1 1.6-8.1 1.8-16.1.4a40 40 0 0 0-13.1-.6c-3.3.6-6.2.4-9.3-.5-5.8-1.8-21.4-4.3-30.7-5-6.2-.5-7.3-.3-7.3 1 0 2.6 2 3.2 13 3.9a557 557 0 0 1 23.5 2.2c15.5 1.8 20.8 2.3 29.8 3.2 5 .4 6.7 1 6.7 2.1 0 1.7-1.6 1.6-25.5-1.2-37.5-4.5-40.5-4.7-40.5-3.6 0 .6 1.4 2 3.1 3.2 2.6 1.8 4.8 2.3 12.3 2.5 16.3.6 27 1.5 30.3 2.5 2.5.8 11.4 2.3 16.8 2.8.6 0 2.4-1.8 4-4.1zm-210-13.7c-.3-.5-2.4-1.2-4.8-1.6a29 29 0 0 1-6.8-2c-1.5-.8-6.6-2.1-11.5-3s-10.2-2-11.9-2.5c-1.6-.4-6.1-1-10-1.4-6.6-.6-6.9-.6-5 1 5.2 4.2 16 7 37 9.2 11.5 1.3 13.7 1.3 13 .3zm156.6-5.3c-.7-3.3-.8-3.3-7.6-3.9l-13.5-1.3c-6-.7-6.4-.6-4.5.9l3.9 3.1c1 1 5.2 2 9.5 2.6 4.1.5 7.7 1.1 8 1.4.2.2 1.4.4 2.6.4 2 0 2.2-.3 1.6-3.2zm66.7.4c.3-1-1-1.2-5.4-1-3.6.2-5.9.8-6.2 1.6-.3 1 1 1.2 5.4 1 3.6-.2 5.9-.8 6.2-1.6zm7-3c1-.7.8-1-1-1.5-3.5-1-7.8-.8-7.8.2 0 .8 1.4 1.3 6.5 2 .5 0 1.6-.3 2.3-.8zm4.2-3.7c0-.8-.7-1.5-1.5-1.5-1.6 0-2 1.2-.8 2.3 1.1 1.2 2.3.8 2.3-.8zm-119.5-.4c.5 0 .2-.6-.7-1.1a71 71 0 0 0-20.8-1.6c0 2.2 12.9 3.8 21.5 2.7zm43.5-1.5c0-1.7-.6-1.8-27-4.1-41.3-3.7-49-4.4-59-5.5-5.8-.6-13.2-1.6-16.5-2.1a262 262 0 0 0-14-2 268 268 0 0 1-26.3-3.5c-4.4-1.3-2 1.3 3 3.3 6 2.4 18.3 4.3 27.8 4.5 3.6 0 8.7.4 11.5 1s11.5 1.5 19.5 2.3l27 3c6.9.8 18.1 2 25 2.5a262 262 0 0 1 14 1.4c.8.2 4.5.4 8.2.5 5.3 0 6.8-.2 6.8-1.3zm-151-3.6c1.2-.7.9-1.1-1.5-2.2a61.8 61.8 0 0 1-21.5-17.3c-2-2.7-7-8.3-10.9-12.4-4-4.1-7.1-8.2-7.1-9.3 0-2.5-6.2-8.8-8.7-8.8-1 0-2.7-.6-3.8-1.4a15 15 0 0 0-5.3-1.8c-2.7-.4-3.2-.2-3.2 1.6 0 3 15.2 19.5 21 22.8 2.8 1.6 5 3.2 5 3.7 0 1.8 20.3 20.6 25 23 5 2.8 8.8 3.5 11 2.1zm154.5-2c.4-.6.5-1.3.2-1.6s-6.6-1-14.1-1.9a59 59 0 0 0-19-.3c-2.8.6-5.5 1.5-6 1.9-.4.4 4.5 1 11 1.4 6.6.3 12.8.7 13.9 1 5 .7 13.4.4 14-.6zm-119.5-2c-2-1.3-8-1.3-8 0 0 .6 2.1 1 4.7 1 3.5 0 4.4-.3 3.3-1zm-82-1.2c0-2-4.3-5.8-6.7-5.8-1.3 0-5.6-.9-9.6-2s-14.9-2.8-24.2-4-18-2.3-19.4-2.7c-1.9-.5-2.2-.2-2 1.3.7 3.4 8.5 6.3 21.4 7.9 6.6.8 13.8 2 16 2.6s8.3 1.7 13.5 2.4l10.2 1.4c.5 0 .8-.4.8-1zm145-1.6c-2-1-4.6-2.5-6-3.4-4.3-2.8-26.3-4-42-2.1-6 .7-6.9 1-4.5 1.5 7.2 1.6 25.3 3.5 40.5 4.4 4.6.3 8.6.7 8.9 1s1.8.4 3.5.3h3.1l-3.5-1.7zm63-1c0-1.2-26.1-3.2-28-2.2-1 .6-.5 1 2 1.4 8 1.4 26 1.9 26 .8zm10.1-5.1c1.3-1 2.1-2.2 1.8-2.5-.3-.3-5.8-.8-12.3-1.2-9.8-.5-12.6-.3-16.3 1.1-2.5 1-4 2.1-3.6 2.6s5.5 1 11.3 1.2c5.8.1 12 .4 13.6.5 2 .1 4.1-.6 5.5-1.7zm-148.4-1.3c-.2-.7-2-1.5-3.8-1.9-4.7-.7-7.2-2.2-10.1-6.1a24.6 24.6 0 0 0-15.2-6.8c-2.1 0-2 .3 2.4 6.2 3.8 5.1 5.6 6 18.5 8.3 9 1.7 8.7 1.7 8.2.3zm-78.2-.7c1-1.7-5.5-5.6-9.3-5.7a242 242 0 0 1-27.7-4.1c-19.8-3.8-22-3.9-20-.6 1.6 2.4 8.6 4.2 23.5 5.9 7.4.8 17.5 2.3 22.5 3.3 11.2 2.4 10.3 2.3 11 1.2zm141-3.6c-.9-1.5-2.5-2.5-3.9-2.5-3.3 0-12.9 4.1-11.9 5.1s16.7 1.6 17.1.6c.2-.4-.3-1.9-1.2-3.2zm96-.7c2.7-1.2 3.2-2.6 1.2-3.3-2.8-1-26.4-1.1-28.5-.2-4.2 2-1.7 3.2 7.4 3.8 15.6 1 17.2 1 19.8-.3zm-246-3.7c1-1.7-3-5-8.5-7a91 91 0 0 0-16.5-3.6l-17-2.5c-6.5-1-8.8-.2-7 2.7 1.5 2.3 7.2 4 19.4 6a490.2 490.2 0 0 1 28.3 5.2c.4 0 1-.3 1.2-.8zm260.1-3.3 4.9-2.3-7-.6c-11.5-1-26.5-1-28.6.1-3.7 2-1.8 3 5.8 3 4.3 0 9.6.5 11.8 1 6.4 1.3 8 1.1 13.1-1.2zm-191-6.5c-.5-2-1.9-6.4-3.3-9.7l-2.5-6.1-8-2a30 30 0 0 0-8.4-1.2c-.3.3 0 2.1.6 4 1.2 3.9 3.5 5 12.2 6.2 7.5 1 5.8 2.8-1.8 2l-6.6-.8.7 3.4c1 4.5 1.2 4.9 3.8 5 1.2 0 4.2.6 6.7 1.3 7.2 2.1 7.3 2 6.5-2zm208 1.3c9-3.2 15.8-6.7 14.6-7.5-1.6-1-21-1.4-25.6-.6-6.7 1.3-3.7 2.5 5.5 2.3 6.7-.2 9.3 0 9.6 1 .4.9-3.5 1.2-16.9 1.1-9.5 0-19.2.3-21.6.7-8.4 1.3-4 2.4 10.2 2.4 8.6 0 14.7.4 15 1 1 1.4 4.7 1.2 9.2-.4zm-285.2-3c-1.2-3.2-9.2-8.6-12.6-8.6-1.8 0-6.9-1-11.2-2-12.5-3.2-16.6-2.5-16.6 2.7 0 1.5.7 2.4 2.2 2.8l9.1 2c3.7.9 8.7 1.5 11 1.6s7.1.8 10.7 1.8c7 1.9 8.2 1.8 7.4-.4zm305.6-7.5c0-.4-2.8-1.1-6.2-1.5-8.6-.9-12.8-.8-12.8.3 0 .6 3.5 1.2 7.7 1.3l9.5.6c1 .1 1.8-.2 1.8-.7zm-318.2-7c-1.8-3.3-2.9-4.1-5.1-4.1a12 12 0 0 1-4.6-1c-1-.5-4.8-1.2-8.5-1.6-6.2-.7-6.6-.6-6.6 1.3 0 1.1.6 2.6 1.5 3.3a153 153 0 0 0 25.3 6.4c.2-.1-.7-2-2-4.3zm317.7 2.9c.3-.6-.3-1-1.5-1s-1.9.4-1.5 1 1 1 1.5 1 1.1-.5 1.5-1zm-231.7-8.4c.5-2.2-1.4-3.6-4.9-3.6-1.4 0-3.4-.7-4.5-1.6-1.8-1.4-1.8-1.5 1-1 7.5 1.3 11.8 1 13.2-1 .8-1 1.4-2 1.4-2.4 0-.4-5-2-11.3-3.5-6.2-1.5-13-3.3-15.2-4-3.9-1.2-17-4.2-28.5-6.5-3-.6-6.5-1.3-7.8-1.7-4.7-1.2-2 1.5 5 5 4.6 2.3 11 4.4 17.2 5.6 6.9 1.4 10.6 2.7 12.5 4.3l3 2.6c.3.1 0 .6-.8 1-.7.5-1.1 2-1 3.2.3 1.9 1.5 2.6 6.9 4 8.3 2.3 13.3 2.2 13.8-.4zM131 404c0-1-4.5-7.7-8.6-12.8a23.5 23.5 0 0 1-3.7-6.5c-1-4.3-8.2-10.6-13.5-12l-8.7-2.5a48.2 48.2 0 0 0-15.2-3.1c-.4.3.4 1.7 1.7 3 2.3 2.6 7.4 4.5 17 6.6 7.5 1.6 12 3.2 12 4.3 0 1-1.6.8-13.3-1.8a36 36 0 0 0-8.3-1.3c-.2.2 1 2 2.8 4 3.3 3.6 4.7 4.1 21.1 8.3 4.2 1 6.5 2 5.9 2.7s-4.3 0-9.7-1.2a56 56 0 0 0-9.6-1.8c-.5.1 1.4 2.6 4.2 5.5 4.8 5 7.3 6.2 17.4 8.6 3.2.7 8.5.7 8.5 0zm102.3-13.5c.6-1 .9-2 .5-2.3-.6-.6-15.5-3.8-28.8-6l-12.5-2.4c-2.2-.6-7.8-1.7-12.5-2.7a191 191 0 0 1-15.2-3.6 102 102 0 0 0-10.5-2.5l-3.8-.6 3.3 3.2c2.6 2.6 5 3.6 11.5 5a1016 1016 0 0 1 45.2 10.6c14 3.7 21.1 4 22.8 1.3zm-90.3-4.9c0-3.3-15-17-18.8-17-2.4 0-.8 3.3 2.3 5 1.6 1 4.2 4 5.7 6.6 2.6 5 5.7 7.4 9 7.5 1.1 0 1.8-.8 1.8-2zm97-.9c2-1.3 1.1-1.9-5-3a239 239 0 0 0-35.5-3c-.2.3 4 1.2 9.3 1.9 5.3.7 13.7 2 18.7 3 11.1 2.3 10.7 2.2 12.5 1.1zm5.9-6.4 2.2-2.4-2.3-.6a157 157 0 0 0-30.8.3c-1.7 1.1.5 1.7 9.5 2.5 3.3.3 8.2 1 11 1.4 7.6 1.4 8 1.3 10.4-1.2zm-65.5-4.7c-.3-.6-2.5-1.9-4.8-2.9a56 56 0 0 1-7.8-4.2 51 51 0 0 0-13.5-4.8 299 299 0 0 1-12.5-3c-4.3-1.4-4.6.9-.6 4.5 2.7 2.5 5.3 3.6 11.4 5 4.3.9 12.2 2.7 17.4 4 11.8 2.8 11.2 2.7 10.4 1.4zm73-3c2-1.2 3.4-2.5 3-2.8a56 56 0 0 0-22.2.6c-6.1 2.9-4 4 7.5 4.2 6.6 0 8.8-.3 11.8-2zm14.1-6.9c5.8-3.6 4.8-4.4-7.3-4.9-8.9-.4-9.4-.3-13.4 2.5l-4.2 2.9 8.6.5c4.8.2 9 .8 9.4 1.2 1.2 1.2 2 1 6.9-2.2zm-106.7-7.2c-1.2-1.8-4.6-3.3-14.7-6.2a72 72 0 0 0-13.8-3.3c-.8.8.5 5.3 2 6.9.8.8 5 2.1 9.3 3 18.3 4 20 4 17.2-.4zm117.3 0c2.3-1 3.9-2.2 3.6-2.4a93 93 0 0 0-22.5-.3c-4.3 1.6-2.3 2.9 4.5 2.9 3.7 0 7.5.4 8.3 1 2 1.2 1.4 1.3 6.1-1.1zm13.5-7.4c1.8-.8 3.7-1.5 4.3-1.5.7 0 1-.4.6-1-1-1.7-23-.3-26.7 1.8l-3.3 1.8 6 .5c8.2.6 15.4 0 19.1-1.6zm-135.6.6a12 12 0 0 0-2.8-4c-2-2.3-5.5-4-13.2-6.5a41.3 41.3 0 0 0-11.2-2.8c-1 1 1.8 7.2 3.4 7.7l6.8 1.9 10.5 3c6.3 1.8 6.5 1.9 6.5.7zm150.7-6.3c1.8-.6 3.3-1.5 3.3-1.8 0-.4-4.2-1-9.2-1.2-7.5-.4-9.7-.2-11.7 1.1-2.5 1.6-2.4 1.7 5.4 2.2 4.4.3 8.2.7 8.4.8.3 0 2-.4 3.8-1zM75 343c0-1-6.7-6.5-9.8-8.1-1.2-.7-6.1-2-11-3s-12.6-3-17.3-4.2c-9.5-2.5-12.2-2.2-11.7 1.3.4 3 8.7 6 29.8 10.4 9 2 16.7 3.7 16.9 4 .7.6 3 .4 3-.4zm245.7-6.4c5.1-1.6 3.9-2.5-4-3.1a25 25 0 0 0-13 1.5c-4 1.4-5.4 2.3-4.5 2.9 1.6 1 17 0 21.5-1.3zm-175.7-.7c0-3.2-2.4-5-9-7.1-8.4-2.6-11-2.6-11-.1 0 2.3 2 3.6 11 6.7 8 2.8 9 2.8 9 .5zm-44.2-5.6c-.3-2.8-1.1-3.5-8.8-7.2a56.8 56.8 0 0 0-10.3-4.3c-2.7-.1-2.1 3.6 1 5.6 1.3 1 4 3.3 5.7 5 4 4.1 9.6 6.6 11.4 5 .7-.5 1.2-2.4 1-4zm243.2-.5c10.2-2.5 7.3-3.4-8.8-2.8-12.8.5-20.8 2-19.7 3.8 1 1.7 20.4 1 28.5-1zm-282 .1c0-2.2-8-7-14.5-8.5l-11.3-2.9c-4.7-1.2-9.2 0-9.2 2.6 0 1.2 6 3.2 15 5l9 2.5c7 2.2 11 2.6 11 1.3zm83.5-3.2c1.1-1.8-.5-2.7-9.5-5.3l-10.3-3.2c-1.6-.6-1.8-.3-1.5 2.1.3 2.6.9 3 8.3 5 9.3 2.6 12.1 2.9 13 1.4zm221-3c1.5-.6.8-.9-2.5-1-2.5 0-7.5-.4-11-1-6.8-1-12-.2-12.8 1.8-.7 2.1 21.1 2.3 26.3.2zM153.2 320c2.8-2.6 2.1-4.2-2.5-5.4l-7.2-2-12.5-3.4c-5.2-1.3-14-3.8-19.5-5.5s-10.5-3-11-3c-2 0 5.7 4 11 5.8a19 19 0 0 1 8.3 5c2.1 2.6 4.9 4 13.2 6.6 11.8 3.8 17.4 4.3 20.2 1.9zm232.8-1.5c9.5-2 7.8-2.9-5.4-2.9a53 53 0 0 0-17.7 1.8c-2.7 1-5 2-5 2.2 0 1 22.5 0 28-1.1zm-333 0a12 12 0 0 0-2.5-4.4c-1.9-2.5-3.8-3.5-9-4.8-8.4-2.2-8.5-2.2-8.5 1.3s1.7 4.7 11 7c8.2 2.2 9 2.3 9 .9zm351-4.4c3.9-1 7-2 7-2.5 0-1.3-30-1.7-34-.4l-3.4 1.1 4.4.6c2.5.3 7.3.3 10.7 0 5.2-.5 6.3-.3 6.9 1 .7 2 0 2 8.4.2zm-245-3.9c1.8-3.4.7-5.2-3.4-6-5.3-1-4.6-2.8.8-2 4.4.6 8.6 0 8.6-1.5 0-.6-6-2.2-32-8.2-7.5-1.7-16.2-2-17.5-.7-.3.3 2 1 5.2 1.8 13.1 2.9 25.3 6.4 25.3 7.2 0 1.3-1.6 1-14.5-2.3a340 340 0 0 0-29.5-6.3 212 212 0 0 1-11.3-2.2c-1.6-.4-2.7-.2-2.7.4 0 3.1 12.1 7.9 38.5 15l18 5c10 2.8 12.9 2.8 14.5-.2zm266.5-2.5 5-1.8-16.3.2c-9 .2-16.5.5-16.8.8-.3.3 3 .8 7.3 1.2 4.3.3 8.7.8 9.8 1 4 .6 6.1.3 11-1.4zM46.8 304c-.3-3.4-.6-3.7-6.7-6-5.7-2.1-10.1-3-10.1-2 0 .2.6 2 1.4 3.8 1.2 2.8 2.4 3.7 7.8 5.5l7.1 2.3c.4 0 .7-1.6.5-3.6zm398-2c1.2-.8 2.2-1.9 2.2-2.4 0-1.5-4.4-2.2-7-1l-2.5 1 2.7-.5c2.1-.4 2.8-.1 2.8 1 0 1.3-1 1.5-5.8 1-3.7-.3-7.4 0-10.2 1-4.2 1.3-4.3 1.4-.8.9 2-.3 4.5 0 5.5.5 2.2 1.4 10 .5 13-1.5zm-273.2-8.9c5.6-5.2 5.4-5.6-4-7.5-3.4-.6-8-1.7-10.5-2.5-3.7-1-4.9-1-8 .2-4.7 2-3.3 2.7 10.1 4.9 7.5 1.2 10.8 2.1 10.8 3 0 .8-.3 1.4-.8 1.4-1.5 0-18-3-24.8-4.6-7.1-1.5-13.5-1-13.5 1.1 0 .6 2 1.4 4.3 1.8a577.6 577.6 0 0 1 31 6.6c.3 0 2.7-2 5.4-4.4zm-126.8.9c-.3-2.2-1.2-2.9-6.3-4.5-8.2-2.5-9.5-2.4-9.5.6 0 2 .5 2.5 2.2 2.6 1.3 0 4.3.9 6.8 2 6.2 2.5 7.2 2.4 6.8-.7zm61.7-5.9c-5-4.2-9-6.4-15-8.5-8.5-3-9.8-2.7-9 1.3a10 10 0 0 0 2 4.5 97 97 0 0 0 23 5.1c1.7.1 1.5-.3-1-2.4zm-60.5-3c0-3-1.8-4-11.7-6.6-8.2-2.1-10-1.7-9 2.3.4 1.5 1.4 2.4 2.9 2.4 1.3.1 4.1 1 6.3 2.2 2.2 1 5.7 2 7.7 2.1 3.4.1 3.8-.1 3.8-2.3zm135.4-3.8c2-3 3.6-6 3.6-6.5 0-.7-1.9-1.2-4.8-1.2-2.6 0-6.3-.3-8.3-.6-2.7-.5-4-.1-5.4 1.3-1.8 1.7-1.7 1.8 4 3 8.3 1.9 9 2.2 7.8 3.4-.8.8-3.6.4-9.3-1.1-6.6-1.8-8.6-2-10.7-1-1.4.6-2.4 1.3-2.1 1.6.3.2 4.3 1.3 8.9 2.5s9 2.4 9.9 2.9c2.4 1.5 2.7 1.3 6.4-4.3zm-84.4-4c0-4-9.8-9.7-16.5-9.7-2.9 0-2.9 0-1.4 3.4 1.2 2.6 3 3.5 11.4 6 6.5 1.8 6.5 1.8 6.5.3zM42.8 274c-.3-4 1.2-3.3-16-8a35 35 0 0 1-7.4-2.6c-1.5-1.4-2.2.5-1.3 3.2 1.6 4.5 4 6 13 8.6 11.8 3.3 12 3.3 11.7-1.2zm146.2-5c0-1.8-10.2-2-13.3-.1-2 1-1.5 1.3 4.3 1.7 7.5.6 9 .3 9-1.6zm-99-2.8c0-3.9-2.2-6.7-6.6-8.6-2.5-1.1-5-1.8-5.4-1.5-.4.2-.5 2-.1 3.7.5 2.6 1.6 3.8 5.1 5.5 5.3 2.6 7 2.8 7 .9zm104.4-2.7c3.6-2.8 2.6-3.7-3.6-3.1-8.8.8-12.1 3.7-5 4.5l4.8.5c.6.1 2.3-.7 3.8-1.9zm8.6-7c3.5-1.8 2-2.8-3.3-2.3-7.5.8-9.7 1.3-9.7 2.4 0 1.3 10.6 1.3 13 0zm-116-4.3c0-3.1-.4-3.5-5.3-5.4-6.1-2.3-8-1.5-5.7 2.6 1.5 2.6 7.1 6.2 9.7 6.2.8 0 1.3-1.3 1.3-3.4zm131.3-1.6c.8-.7-2.2-1-9.6-1-12 0-15.6 1.7-5 2.3 8.5.5 13.3 0 14.6-1.3zm8.6-3.6c.2-.2.1-.7-.2-1-.9-.9-6.7.6-6.7 1.8 0 .9 5.8.2 6.9-.8zm-11-.4c0-1.3-8-1.3-10 0-1 .7.2 1 4.3 1 3.2 0 5.8-.5 5.8-1zm-128-2.8c0-2.8-1.2-4-7.3-6.8-6.4-2.9-8.2-2.4-7 2 .4 2 1.8 3 5.7 4.5 6.5 2.5 8.7 2.6 8.7.3zm137-1.2c0-.6-2.4-1-5.4-1s-5.5.4-5.5 1c0 .5 2.5 1 5.5 1s5.5-.5 5.5-1zm14-.7c2.8-.9 5-2 5-2.5 0-1.1-2.7-1-3.4.2-.4.5-2.8 1-5.5 1-4.6 0-6.8 1-5.3 2.4 1 1 3.7.7 9.2-1zm-15-3.2c1-.7 1-1-.3-1.4-1-.4-2.3-.4-3.2 0-1.3.5-1.3.7-.3 1.4.8.5 1.6.9 1.9.9s1-.4 1.8-.9zm19-3c1.6-1-3.8-2-11.2-2-4.2 0-6.4 1.2-3.7 2 2.4.8 13.6.8 14.9 0zm10.6-.1c.3-.6-.7-1-2.5-1s-2.9.4-2.5 1c.3.5 1.4 1 2.5 1s2.1-.5 2.5-1zm-166.5-2c0-2.3-3-4.5-9.7-7-6.3-2.3-7.8-1.8-5.8 2 1 2 3 3.5 6.7 4.9 6.8 2.6 8.8 2.6 8.8.1zm182.7-3c8.7-2 6-3-6.5-2.3-6.4.3-13.3 0-15.2-.4-2.6-.7-4.6-.6-7.8.6-8 3-5.3 3.7 12.3 3.5a108 108 0 0 0 17.2-1.4zm-182.2-6c0-2.2-1.1-2.9-11.8-6.4-6.4-2.2-12-3.7-12.4-3.3-1 1 2.7 4.7 6.7 6.4 6.5 3 15.5 6 16.5 5.9.5-.2 1-1.4 1-2.7zm178.3.9c6-.8 9-.8 11.3 0 3.3 1.1 10.9-.1 10.9-1.8 0-1.4-24.2-2.3-29.6-1.1-7.1 1.5-8.4 2-8.4 3 0 1.3 5.8 1.2 15.8-.1zm38.7-6.8 7-3 6-2.6c4.1-1.4-.9-2.3-10.9-1.9-12.4.5-16.6 1.2-16.6 2.5 0 .7 3 1 8.1.7 5.4-.2 8.3 0 8.6.8.2.8-4.5 1.3-16 1.6-16.4.4-23.2 1.7-15.2 2.9 6.6.9 25.8.3 29-1zm26.7-10.6c6-1.7.9-2.5-14.6-2.1-15.4.3-18.6.7-18.6 2.4 0 1 29.7.7 33.2-.3zm18-5.5c1.6-1.4-26-2-31.5-.8-5.2 1.3-5.2 1.3 8 1.8 7.2.2 13.4.8 13.7 1.1.7.7 8.6-1 9.9-2.1zm17-5.2c3-1 6.5-2.4 8-3 1.5-.6 2.8-1.4 2.8-2 0-1-14-1-22.5.2-5.5.7-5.1.8 4 .7 5.5 0 10.1.3 10.3.8.4 1.5-6.2 2-22.3 1.8-13.8-.2-20.5.6-16.5 2 2.6 1 8.2 1.4 19.8 1.4 8.9 0 12.4-.4 16.5-1.9zM641 1020.1c-3.5-5-2.8-6.6 4.7-10.6 3.7-2 7.3-3.3 8-3 1.7.6 6.3 10.8 5.3 11.8-1.3 1.4-3-.1-4.6-4-1.7-3.8-5-4.7-4.2-1l1.2 4c1.1 2.5-2 2.3-3.7-.3-1.4-2.2-3.7-2.7-3.7-.7a4 4 0 0 0 1.1 2.4c1.2 1.3.5 4.3-1 4.3-.6 0-2-1.3-3-2.9zm-6.5-16.8c-2.6-.7-5.5-3.3-5.5-4.9 0-1.8 3-4.6 4-3.9.6.3 1 2 1 3.6 0 4.8 2.4 2.9 2.8-2.2.4-5.7 1.5-7 6.7-7 4.7 0 6.8 1.8 6.3 5-.6 3.7-2 3-4.5-1.8-.1-.1-1 0-2 .3-1.6.5-2 1.6-2 5.2 0 5.8-1.5 7-6.8 5.7zm6-27c-.8-2-1.5-4-1.5-4.5s-.9-2.6-1.9-4.6c-1.4-2.7-2-7-2.4-15.7a116 116 0 0 0-5.2-31.2c-.7-1.7-3.5-5.8-6.1-9.2-4.2-5.5-5.4-6.4-10.4-7.8-3-.8-7.7-2.4-10.4-3.5a15.6 15.6 0 0 0-7-1.5c-4 1-11-1.7-19.1-7.6-7.7-5.7-9.6-8-7.8-9.1 1.4-.9 8.6 2.8 12.3 6.3 5.3 4.9 7.7 5.7 18 6.3 5.9.3 10.6 1 12.5 2 1.6 1 4.7 2.4 6.8 3.4 4.6 2 13.3 10.3 14.1 13.6 2 7.6 3 10.4 4.1 11.8 1.7 2 2.7 11.2 3 24.5 0 9.3.5 12 2.7 17.5 1.4 3.6 2.9 8 3.2 9.7.6 2.9.5 3.3-1.3 3.3-1.5 0-2.6-1.1-3.6-3.6zm-43.8-10.6c-1.7-1.2-4.3-9.6-6.7-21.5-1.5-7.2-2.9-8.7-10.7-11.6-7.3-2.8-20-9.2-20.9-10.7-.3-.6-.2-1.5.3-2 .5-.6 3.4.4 7.3 2.5 3.6 2 8 4.2 10 5.1 15.7 7.3 17.3 8.8 18.5 17.9a98 98 0 0 0 3.1 12.5c2.5 7.5 2.2 10.1-1 7.8zm18.8 0a94.7 94.7 0 0 1-6-21c-1-8.5-4.5-16.6-8.6-20-2-1.5-6.2-3.4-9.5-4.3-3.2-.8-7-2.4-8.4-3.5a71.6 71.6 0 0 0-9.3-5.4c-7.3-3.6-9.7-5.3-9.7-6.7 0-1.4 2.6-1 3.9.5a38 38 0 0 0 7.8 4.6 55 55 0 0 1 8.8 5c2 1.7 8.8 4 12 4 .9 0 3.5 1.5 5.6 3.2 5 3.9 9.7 13.9 11 22.9.4 3.5 2 9.4 3.3 13 1.5 3.5 2.4 7 2.1 7.7-.6 1.6-2.5 1.6-3 0zm-12-2c-.3-.7-.4-2.8-.3-4.7.3-8.5-3-21.5-6.1-24a37 37 0 0 1-3.1-4.3c-1.9-2.8-3.4-3.9-6-4.3-2-.4-7.1-2.3-11.5-4.4-4.4-2.2-9.5-4.4-11.3-5-1.8-.8-3.2-2-3.2-2.7 0-2.3.2-2.3 14.5 5 3.9 2 9 3.9 11.5 4.3 4.6.7 6 1.8 12.2 10.1 5 6.7 8.2 21.5 6.1 29-.6 2.5-2.1 3-2.8 1zm16.5-7.2a25 25 0 0 1-1-7.4 53 53 0 0 0-7.4-22.5 18.4 18.4 0 0 1-2.7-5c0-2.1-3.7-5.6-6.5-6.2-1.6-.3-3.8-1-5-1.5l-8.8-4a98.6 98.6 0 0 0-10.8-4c-5.2-1.4-10.8-4.8-10.8-6.6 0-2 2.3-1.7 5.3.6 3.5 2.9 22.7 10.8 31.4 13 1.9.5 4 1.4 4.8 2a99.8 99.8 0 0 1 12.4 25.2 22 22 0 0 1 2 10.7c0 7.5-1.3 10-3 5.7zm6.6-6.8c-.3-1.2-.6-4.2-.6-6.6 0-2.3-1.3-8.4-3-13.5s-3.4-11.2-4-13.7c-1.5-6-5.1-8.2-14.5-9-3.9-.4-9.8-1.4-13-2.3a71.5 71.5 0 0 1-21.3-10.5c-.4-1.3 3.4-1.6 4.1-.4.8 1.3 14.8 7.8 19.7 9.2a52 52 0 0 0 10.5 1.5c6.6.2 13.7 3.2 15.5 6.6.6 1.1 2.4 6.2 4 11.3 1.5 5 3.5 11 4.4 13.2 2 5.2 2.1 16.5.2 16.5-.8 0-1.7-1-2-2.3zm55.7-31.6c-3.8-3.3-4.2-4.2-4.7-9.7-1.9-19.8-1.9-18.7 0-18.3 1 .2 2 1.3 2.2 2.3a62.3 62.3 0 0 1 1.9 12.4c.2 4.2 1 8 1.7 8.6 2.3 2 4.8 6.8 4 7.6-.6.4-2.8-.9-5.1-2.9zM597 874a19 19 0 0 0-5.1-3.6c-1.2-.4-4.3-2.5-7-4.8-2.6-2.3-5.8-5-7.1-5.9l-2.3-1.7h2.8c2 0 4.2 1.2 7.6 4.4a20 20 0 0 0 6.1 4.5 22 22 0 0 1 6.3 4.2c3.9 3.3 5 3.8 5.8 2.7.5-.7.7-2.5.4-3.9-2.5-11.5-3.6-20-3.8-28.5-.2-10.2.7-17.5 2.2-17.5 1.3 0 2.1 5.8 1.2 8.3a182 182 0 0 0 3.4 37.4c1.5 7.3-4.6 9.8-10.5 4.4zm30.1-36.7c-1.1-1.4-2.8-4.8-3.7-7.7s-3.2-6.9-5-9c-1.9-2-3.7-5-4-6.4-3.7-16.1-6-22.6-7.5-20.3-.5.8-1 4.2-1 7.5 0 5.9-1.2 13-2.3 14.2-1.7 1.7-1.8-1.9-.3-14a208 208 0 0 0 1.7-15.8c0-1.5.6-3.2 1.4-3.8 2-1.8 4.6 2.3 4.6 7.5 0 2.4 1.2 7.2 3 11.2 1.7 4 3 8.9 3 11.2 0 3.6.4 4.3 3.5 6.1 1.9 1.2 3.5 2.6 3.5 3.2 0 .6.7 1.9 1.7 3 1 1 2.3 4 3 6.5a831 831 0 0 0 1.9 7c.8 3-1 2.8-3.5-.4zm-392.6-29.5c-2.2-.4-6.8-.8-10.3-.9-4.8 0-6.2-.3-6.2-1.5s1.7-1.5 9.5-1.5c10.2 0 18.5 1.6 18.5 3.7 0 1.5-5.1 1.6-11.5.2zm-40.9-.6-27.6-1.4c-27.4-1.2-34-2-31-4 1.4-1 8-.8 44 .8 9 .4 19.8.6 24 .5 9-.4 12.8.4 11 2a79 79 0 0 1-20.4 2.1zm-123-4.1c-2.1-2.4-2-4.7.4-10 2-4.7 2.6-9.7 1-10.7-1.1-.7-4 2.2-4 4 0 1.9-4.4 4-6.5 3.1-2.2-.8-2-5.3.6-8.8 1.7-2.4 2.6-2.8 5.7-2.6 3.5.3 3.7.1 4-3 .3-3.5 5-9.2 7.6-9.2 3.7 0 3.2 6-1 10.8-2.7 3.2-3 5.2-1.3 7 1.8 1.7 1.1 17.3-.9 19.4-2 2.3-3.5 2.3-5.6 0zm4.4-5.8c0-1.6-1.6-1.9-2.5-.4-.8 1.3.4 3.2 1.5 2.4.6-.3 1-1.2 1-2zm178.5 2.6c-1.3-2 .7-3.2 4.2-2.5 4.6.8 4-1.6-.6-2.8-6.8-1.7-5.8-11.2 1.2-10.5 4.1.4 5.2 3.8 1.2 3.8-4.2 0-3 3.4 1.5 4 7 1 4.2 9-3.1 9-2.1 0-4-.5-4.4-1zm-19.6-3.2c-1.5-2.7-1-10.2.6-12.6 1.7-2.4 5.3-2.9 8.5-1.2 3 1.6 2.3 3-1.3 2.8-1.8-.1-3.9.1-4.5.6-1.8 1-.4 2.7 2.1 2.5 4.5-.3 5.7.1 5.7 2s-.5 2-4 1.5c-4.6-.8-5.7 1.2-1.3 2.2 5.3 1.1 6.3 1.5 6.3 2.5 0 .5-.6 1-1.3 1-8.8.4-10 .3-10.8-1.3zm-11.3-.6c-1.5-1.5-1.8-1.5-2.7-.2-1.5 2.3-4-1.5-4-6 0-6.3 3.4-7.3 5.4-1.8 1 2.8 2.8 2.1 2-.7-.4-1.8-.1-2.5 1-2.5 1.8 0 4.1 8 3.2 10.9-.8 2.5-2.5 2.7-4.8.3zm-28.8-1c-.9-1-2.1-2.7-2.7-4-1.7-3.2-3-2.8-3.3 1-.6 5.8-2.3 3.5-2.6-3.5-.3-6.1-.1-6.7 1.6-6.7 1.2 0 3 1.5 4.3 3.7l2.4 3.8.3-3.8c.2-2.4.7-3.7 1.5-3.5 1.4.5 4.1 11.2 3.3 13.3-.8 2-3 1.9-4.8-.3zm12.8 0a18 18 0 0 1-1.1-9.2c1-3.1 3.5-2.5 3.5.9 0 1.5.3 4.2.6 6 .5 2.4.3 3-1 3-.8 0-1.7-.3-2-.7zm-55.1-1.2c-.4-.6-1.9-1-3.3-.8-2.5.3-2.8 0-3.6-5-.7-4.2-.6-5.6.8-7.7 1.8-2.8 4.1-3.2 6.8-1.1 2.5 1.9 2.2 2.6-1.2 2.6-2 0-3 .5-3 1.5s1 1.5 3.5 1.5 3.5.4 3.5 1.5c0 1-1 1.5-3 1.5-3.9 0-3.8 1 0 3.2 1.7 1 2.8 2.2 2.5 2.8-.8 1.3-2.2 1.3-3 0zm13.3.4c-.3-.5-.3-1.8.1-3 .4-1 .6-3.8.3-6-.3-2.6 0-4.4.7-4.9 1.4-.8 5 2.1 5 4 0 .7 1 2.3 2.1 3.6l2 2.4-.6-4.2c-.7-5 0-7 2.2-5.3 2 1.8 1.9 12.6-.2 13.4-1.8.7-5.4-1-5.4-2.5 0-1.6-2.1-1-4 1.2-1 1.2-2 1.8-2.2 1.3zm386.2-.4c0-1.8 2.3-2.2 13.1-2 11.2 0 14.2.5 11.8 2-1.8 1.1-25 1-25 0zm-424.5-1.3c-1-3.5-1.3-9.2-.5-10.8.5-1 2.4-2.2 4.1-2.8 2.6-1 3.7-.8 5.6.4 3.8 2.5 2.7 6.4-2.5 9.3-2.3 1.3-4.2 3-4.2 3.8 0 1.7-2 1.9-2.5.1zm6.5-8.1c0-.8-.7-1.7-1.5-2-1-.4-1.5 0-1.5 1.4 0 1 .6 2 1.5 2 .8 0 1.5-.6 1.5-1.4zm-22.3 7.3c-1-.6-1.7-1.8-1.7-2.8s-.7-2.4-1.4-3c-1.1-1-2-.6-4.6 1.5-1.7 1.4-3.3 2.4-3.6 2.2-1-1 4.2-16.2 5.9-17.2 2.6-1.6 5.3 2.1 6.2 8.6a47 47 0 0 0 1.5 7.4c1 2.8 0 4.5-2.3 3.3zm-3.2-12a2 2 0 0 0-1.3-1.7c-.7-.2-1.2.5-1.2 1.8s.5 2 1.2 1.7a2 2 0 0 0 1.3-1.7zm444 5.1c-.4-.6-.6-1.3-.4-1.5 1-.8 26.9-1.5 26.9-.7 0 .5-3 1.2-6.8 1.5l-12.8 1.3c-4.3.4-6.4.3-6.9-.6zm-.5-10c0-1.7 28-3.1 28.7-1.4.2.7-2.9 1.3-8.8 1.7-12.8 1-20 .8-20-.2zm-7-8.8c0-1.5 1.4-1.8 13.7-2l17.3-.6c1.9 0 3.7.3 4 .9.5 1-5.4 1.7-24.8 2.9-9.3.5-10.2.4-10.2-1.2zm-332.3-4.9c-1.5-.8-2.7-2-2.7-2.9 0-1.9 1.9-1.9 2.6 0 .6 1.6 3.4 2.2 3.4.7 0-.4-1-1.6-2-2.6-3-2.7-2.6-6.3.5-7.1 3.2-.8 4.2 0 2.4 2.1-1.4 1.7-1.2 2 3.3 4.5 3.2 1.9 1.8 4.2-4.2 6.6a9 9 0 0 1-3.3-1.3zm-18-4.8c-.8-7.7 3.6-18 7.6-17.4 1.9.3 2.1 1 2 4.3a11 11 0 0 1-2.8 6.6c-2.9 3-2.4 4.2 1.1 3.3 2-.5 2.3-.3 1.7 1.2-.4 1 0 2 1 2.6 1 .5 1.7 1.4 1.7 2 0 1.4-3.2 1-5-.7-1.6-1.4-2-1.4-3.3 0-2.4 2.4-3.5 1.9-4-2zm6.7-11.1c1-2.9.6-3.9-.9-1.9-.8 1-1.5 2.3-1.5 2.7 0 1.4 1.8.8 2.4-.8zm-30.2 12.5c-1.2-.5-2.2-1.3-2.2-2 0-1.1 1.9-4.7 3.9-7.2 2-2.4 5-2.3 5 .3 0 1-.6 2-1.4 2s-1.5.8-1.5 2-.7 2-1.8 2c-2.9 0 .8 2 3.8 2 2 0 2.2.2 1 1-1.8 1.1-3.8 1.1-6.8 0zm11.5 0c-3-1.8-1.6-8 1.9-8 1 0 4.6 5 6.2 8.3.5 1.1-6 .9-8-.3zm361.7 0c-.3-.6-.4-1.3-.2-1.5 1-1 31.8-1.6 31.8-.6 0 2-30.4 4-31.6 2.1zm-413.6-2.7c-2.6-.2-5.2-1-5.8-1.7-1.7-2-.4-5.2 3-7.2 1.7-1 3-2.5 3-3.5 0-3 1.1-4.8 3-4.8 2.8 0 3.2 1.5 1.3 5.3-1.5 3.3-1.5 3.9 0 7.6.8 2.2 1.2 4.2.8 4.3h-5.3zm.2-3.7c0-.9-.7-1.5-1.5-1.5-1.6 0-2.8 1.4-1.8 2.3 1.2 1.2 3.3.7 3.3-.8zm26 2c0-.9.4-1.5.9-1.5 1.7 0 2-3.2.6-6-2.2-4.2-2-5 2-6.6 3.8-1.6 8.3-1.9 10.3-.6 1 .7 1 1.5-.2 4.5-1.3 3-2 3.7-4.6 3.7-2.5 0-3 .3-3 2.4 0 1.3-.3 3.1-.6 4-.8 2-5.4 2-5.4 0zm10.8-11c.3-1.3-.2-1.6-2.4-1.4-3.2.4-4.4 2.5-1.7 3.1 2.7.7 3.7.3 4.1-1.7zm-56.1 10.8c-1.4-2.3-2.4-8.2-1.6-9.5.7-1 1.2-1.1 2.8 0a9 9 0 0 0 4 1.2c2.5 0 4.3 2.3 4 5-.5 3-2.2 3.5-3.4.8-1.3-2.7-2.9-2.9-3.4-.3-.4 2.4-1.7 4-2.4 2.8zm-17.5-1.9c-4.2-3-2-11.4 3-11.4 3.1 0 6.6 4.2 7 8.7l.6 4.3h-4.2c-2.3 0-5.2-.7-6.4-1.6zm4.8-3.9c0-2.4-1.6-4.3-2.7-3.2-.9.9.6 5.7 1.7 5.7.5 0 1-1.1 1-2.5zm448-11.9c1.2-1.2 5.3-1.6 21.2-2.2a82 82 0 0 1 19.8.4c0 1.7-2.6 2-15.7 2-7 0-16 .4-19.8.7-6.3.6-6.9.5-5.5-.9zm-314.7-2.7c-.7-.7-1-3.4-.6-7 .5-5 .3-5.8-1.7-7.2-4-2.8-2-4.3 4.8-4 5.3.4 6.2.7 6.2 2.3 0 1.2-.7 2-1.9 2-1.5 0-1.8.8-1.8 5.9 0 7.3-2.2 10.8-5 8zm-19-1c-1.3-.5-2.3-1.3-2.3-1.9 0-1.7 1.9-2.2 4-1 1.8.9 2.4.9 3-.2 1.1-1.7.1-3.3-4-6-4.5-3.1-4.7-6.5-.5-9 2-1.2 4-1.5 6.3-1 4 .8 4.2 2.4.3 3.2l-4.8 1.4c-1.8.7-1.8.7.1 2.1 1 .8 3 1.4 4.3 1.4 2.7 0 3.8 2 3 5.3-1.3 5-5.3 7.4-9.5 5.7zm-24.7-2.7c-.4-.4-3.3-.7-6.5-.7h-5.6l.3-7c.2-4 .6-7.4.8-7.8.3-.4 2-1 4-1.3 3-.6 3.7-.3 6.4 2.6 1.7 1.8 3 3.3 2.8 3.4l-2.7 1.5-2.3 1.2 3.2 3.4c1.8 1.8 2.9 3.8 2.5 4.4-.8 1.2-1.9 1.4-3 .3zm-4.6-11.7c0-.2-.5-.7-1-1s-1-.2-1 .4.4 1 1 1 1-.2 1-.4zm11.5 5.2c0-4.8.5-8 1.4-9.1 3-3.7 10.9-.7 8.4 3.2-.6.9-1.8 1.5-2.7 1.3-2.3-.4-2 1.6.4 2.3 2.4.8 1.7 2.5-1 2.5-2.8 0-2.5 2 .5 3 3 1.2 3.3 3 .6 3-1 0-3.2.3-4.7.6l-3 .6v-7.4zm336.7 5.6a2 2 0 0 1-1.2-1.7c0-1 6.4-1.2 28-1 25.6.2 30.2.5 28.9 1.7-.7.7-54.3 1.6-55.7 1zm-39.6-1.9c-1-2.8-.7-5.7 1.9-12.9 1.4-4 2.2-8 1.8-9.3-.6-2.4 1-3 3.6-1.3 1.3.8 1.2 1.8-.9 7.2a39.4 39.4 0 0 0-2.5 11.8c0 4.2-.4 5.6-1.7 5.8a2 2 0 0 1-2.2-1.3zm-338.8-.5c-3-1.7-3-5.6-.2-10 2.4-3.6 3-4 6.3-3.8 2.8.3 3.6.8 3.9 2.6.4 2.6-2.6 4.3-3.8 2.2-1-1.6-4-.5-4 1.4 0 .8.7 1.7 1.6 2 .9.4 1.3 1.3 1 2-.3 1 .4 1.7 2.1 2.1 2.1.5 2.4.9 1.2 1.6-1.8 1.2-6 1.1-8 0zm325.2-1.3c0-2 3.6-14 5.1-17.3 3.1-6.5 9.4-11 10.6-7.6.3.7-.3 1.2-1.1 1.2-2.4 0-4.8 4.4-8.1 14.5-2.1 6.3-3.5 9.1-4.8 9.4-1 .1-1.7 0-1.7-.2zm-384-2.6c-1-2-1.7-2.1-4.7-1.6l-3.5.7.7-3.3c1.2-5.6 3.6-9.9 5.5-9.9 2.4 0 2.6.4 4.1 7.8 1 4.6 1 6.5.2 7.4-.8.8-1.4.5-2.3-1.1zm23.6.4c-1.2-3.2-.7-11.2 1-12.5 1.2-1 1.8-.9 3.7.9 2.9 2.7 3.7 2.7 3.7.1 0-2.3 2.5-2.6 3.4-.4 1 2.7.7 11.3-.5 12-.6.4-2.3-.5-3.8-2-3.4-3.2-3.9-3.2-4.3.1-.4 3.1-2.3 4.2-3.2 1.8zm394.7 0c-2.9-2-3.3-5.7-1.5-12.5 1.4-5.2 1.4-6.6.2-10.7a94 94 0 0 1-1.8-8.5c-.5-4.7-2.3-5.3-11.2-4-3.6.6-7.8 1-9.4.9-3.3-.2-4.2 1.2-9 12.6-2.8 6.6-6.6 10.8-6.6 7.2 0-1 .6-2.9 1.4-4.3s2.7-5.6 4.2-9.2c4-9.7 4.3-9.9 13.2-9.8a79 79 0 0 0 11.3-.7c5.3-1 7.6.1 8.9 4 .6 2 1.6 3.5 2 3.5 1.3 0 1.2 3.4 0 4.6-.6.6-.4 2 .6 3.9 1.2 2.4 1.3 3.7.3 7.5-2.3 9.3-2.3 10.7 0 11.3 1.4.4 1.8 1 1.4 2.6-.8 3-1.6 3.3-4 1.6zm-407.4-.7c-.3-2.3.3-11.3.7-12 .3-.4 1.2-.4 2 0 1.3.4 1.5 1.5 1 5.4-.4 2.7-1 5.5-1.3 6.4-.6 1.8-2.3 2-2.4.2zm-43-1-1.3-7c-1-5.6-1-7 .1-8 1-.8 2.1-.4 4.6 2 3.9 3.8 4.6 3.9 8 1.1 4-3 5.7-1.2 5.4 6-.2 4.3-.6 5.6-1.7 5.6-1 0-1.6-1-1.8-3-.5-5-1-5.9-2.7-4.4-.9.7-2.7 1-4.4.6-2.7-.5-3-.3-3.5 3.4-.4 2.2-1 4-1.6 4s-1-.2-1.1-.3zm503-9.2c-.4-.3-8.4-.7-18-.9a62.6 62.6 0 0 1-17.6-1.3c-.8-2.4 8.2-3 21.3-1.4a298 298 0 0 0 23.9 1.3c19.3.3 21.6 2.1 3.2 2.5-6.8.2-12.6 0-12.9-.2zm-140.2-3.2c-.4-.4 0-1.7.7-2.8 1.6-2.6 2.5-9.9 1.2-10.6-.5-.2-1.4 1.3-2 3.5-1.6 5.6-3.6 5.8-3.6.4 0-5.5 3.2-9.9 7.5-10.2l3-.2-.1 7c-.1 9.4-3.6 16-6.7 12.9zM104 702.8c0-2.6 3.3-2.3 3.8.3.2 1.2-.3 1.7-1.7 1.7-1.5 0-2.1-.6-2.1-2zm596-2c-.8-.4-1.1-1.2-.8-1.5 1-1 7.8.4 7.8 1.6 0 1.2-5 1.2-7 0zm-629-6c-20.5-1-29.1-2-29.7-3.6-.3-.7 2.6-4.3 6.4-8 7.6-7.4 7.5-7.4-1.9-8.8l-4.6-.7-.7-6.2c-1.2-12.6-1-14.4 1.4-17.8l2.4-3.2-2.1-1.6c-2.6-2-2-5.6 1.2-8.4 4.3-3.7 10.6-10 10.6-10.8 0-1-4-1.9-9.8-1.9-3.9 0-5.2-.4-5.2-1.4 0-.8.4-1.7 1-2s8.6 0 18.2 1c18 1.6 24.9 2 46.2 3.2 17.3 1 17.7 1.5 7.8 11.5-4 4-7.2 7.6-7.2 8.1s3.4.6 7.5.3l7.6-.7 1.4 3.4a12 12 0 0 0 2.5 4.1c2.4 1.5-.2 26.4-2.9 27.3-1.3.5-13.5 13-14 14.4-.2.7 2.3 1 7.5.7 4.7-.2 8.1 0 8.4.6.6 1.2-31.6 1.5-52 .5zm38.7-8.3c3.5-3.3 6.3-6.4 6.3-6.9 0-.4-2-.8-4.3-.8-4 0-4.8.5-11.1 7l-7 6.9 4 .3c5 .4 4.7.6 12.1-6.5zm-32.2-.1c3.7-3.3 6.5-6.6 6.5-7.7 0-1.7-.8-1.9-7-1.9h-7l-6 6.3c-3.2 3.4-6 6.7-6 7.2-.2 1.5 4 2.5 8.7 2.1 3.6-.3 5.4-1.3 10.8-6zm16.2 2.6c2.6-2.2 6-5.3 7.6-7l2.9-3-6.5-.7c-3.6-.4-7.3-.4-8.3 0-2.6 1-12.6 12.4-11.9 13.6.3.5 3 1 6 1 4.7 0 5.9-.5 10.2-4zm-34-5.3c3.5-3.4 6.1-6.4 6-6.6s-2.1-.6-4.1-.7c-3.3-.3-4.2.2-8.9 5.1-7.4 7.8-7.6 8.3-3 8.3 3.3 0 4.6-.8 10-6.1zm41.8-19c2.5-.8 4.5-1.6 4.5-2 0-2-4.6-2.7-19.5-3.4-13.6-.6-16.6-.5-19.9.9-4.5 1.9-5 2-4.1.6.3-.5.1-1-.4-1s-1.1.8-1.1 1.9c0 1.3 1.1 2.1 4.2 2.9a152 152 0 0 0 36.3 0zm.5-20.9c0-.6 2.5-3.7 5.5-7s5.5-6.4 5.5-6.9c0-2.2-7.2-2.8-10.6-.8-3 1.7-16.4 14-16.4 15 0 .3 3.6.7 8 .7 4.7 0 8-.4 8-1zm-31-7.7c4.7-4.2 8.6-8 8.8-8.5.2-.4-2-.8-5-.8-5.3 0-5.4 0-13.5 8a42.6 42.6 0 0 0-7.5 8.5c.3.3 2.4.5 4.6.5 3.7 0 5-.8 12.6-7.7zm13.9 4.3c6-4.5 12.6-11.4 11.7-12.3a24 24 0 0 0-7.1-1.1c-5.5-.4-6.5-.2-6.5 1.2 0 .8-1.2 2.3-2.8 3.3A58.7 58.7 0 0 0 68 643c0 .4 2.7.8 6.1.8 5.4 0 6.7-.4 10.8-3.4zm-34 1.2c0-.6 3.4-4.2 7.3-8 6-5.5 7-7 5.8-7.8-2.6-1.7-3.4-1.2-11.3 6.2-7.9 7.3-9 9.3-6 10.1 3.2.8 4.3.7 4.3-.5zm387 49.8c0-1.4-.3-2.7-.8-3s-1.6-3-2.6-5.8a38 38 0 0 1-1-16.4c.7-12 .5-12.4-4.7-12.4-2 0-2 .4-1.5 5.9 1 8.6-2.8 24.5-6.3 26.6-.8.5-.8 1 0 2.1 1 1.1 1 1.4 0 1.4-.7 0-1.8.7-2.4 1.5-.7 1-1.6 1.2-2.5.6-1.8-1.1-.8-5 2.2-8.7 1.4-1.7 2.7-4.9 3-7.8.4-2.7 1.2-5.5 1.8-6.3.8-1 1-4.3.6-10.7-.5-7.6-.4-9.6.8-10.6 1.9-1.6 4.9-.5 4.1 1.5-.4 1.1.2 1.5 2.2 1.5 1.6 0 3.6.6 4.5 1.3 2.3 1.7 3.9 9.5 2.4 12.2a32 32 0 0 0-.5 16.5c.5 2 1.8 4.2 2.8 5 1.3 1.1 1.6 2.4 1.3 4.8-.6 3.8-3.3 4.5-3.3.8zM627.4 648c-2.3-1.6-3.3-6.3-2.7-12.3.4-3.3.4-6 0-6s-2 .8-3.4 1.8a63 63 0 0 1-14.4 8.2 14 14 0 0 0-4.4 2c-1.2 2.1-4.9.8-10.2-3.8-3.2-2.7-7-5.6-8.5-6.5-1.6-1-2.7-2.7-2.7-4a12 12 0 0 0-1.5-4.7 15 15 0 0 1-1.5-6.3c0-2.1-.4-4.6-1-5.5-.5-1.2 0-4.2 1.6-9.2 3.7-11.7 1.2-14.6-13.3-15.5-7.3-.4-8.8-2-8.4-9.2.1-3 7.5-7.3 12.5-7.3 4.6 0 10.3-3 18-9a24 24 0 0 1 9.5-5.5c2-.4 5.3-1.8 7.4-3.2 3.4-2.2 3.8-2.9 3.3-5.2-1.2-5-1.1-5.6 1.1-6 1.3-.1 2.3.2 2.3.8 0 1.8 3.6 1.2 5.4-.9 1-1 5.7-3.8 10.4-6.1a83 83 0 0 0 23.2-16.4 54 54 0 0 1 9.6-7.2c1.7-.7 5.1-3.2 7.5-5.6 4.6-4.5 8.9-7.8 10.1-7.8.5 0 .8.8.8 1.8 0 1.8-1.6 3.1-17.5 14.7-4.6 3.3-11.5 8.7-15.5 12-3.9 3.3-10.8 8-15.2 10.3-8.6 4.4-13.5 8.3-14.8 11.9a48.2 48.2 0 0 1-18.1 9.8c-1.4.4-5.3 2.8-8.5 5.4-7.9 6.2-12.9 8.8-19 9.6-7 1-9.6 3-9.2 6.9l.3 3.2 7.5.6c9.7.8 12.6 2 14.7 6.3 1.4 3 1.5 4.2.4 9.3-.7 3.2-1.7 6.5-2.1 7.4-1.1 2.1 0 11 1.5 12.9.8.8 1.5 3 1.7 5 .2 2.4 1 3.8 2.6 4.6 1.3.6 4.4 3 7 5.4 3.9 3.5 5.2 4 7.7 3.7a53 53 0 0 0 18.3-9.2c3.6-3 4.7-3.3 6.4-2.4 1.8 1 1.9 1.7 1.3 7-1 8 .6 11.9 4.6 11.9 3.2 0 3.8-2 1.3-4-2.8-2.4-3.2-5.3-1.7-14.4 1.4-9.3.8-12.2-2.2-10l-10 7.2c-9.8 7-12.1 8.2-17.1 8.2-3.9 0-8.4-3.6-8.4-6.7 0-1-.7-3.2-1.6-4.8-1-1.7-2.3-5.7-3-9-1.3-5-1.3-6 0-8 .8-1.2 1.8-4 2.2-6.1a22 22 0 0 1 2-6 23 23 0 0 0 1.9-6.2c.5-3.4.4-4.2-.8-4.2-.8 0-2.5-.9-3.8-2-2-1.6-2.2-2.1-1.2-4.4a14 14 0 0 1 5-4.5 19 19 0 0 0 5.2-3.6 138 138 0 0 1 17.5-12 33 33 0 0 0 5.8-5.2c1.7-1.9 5.5-4.6 8.4-6 3-1.3 5.6-2.9 5.9-3.3s3.3-2.5 6.7-4.5c3.5-2 8.8-5.6 11.8-8a114 114 0 0 1 21.9-15c1.1 1.1-25 22-32 25.6a67.7 67.7 0 0 0-7.4 4.4 47 47 0 0 1-6.6 3.8c-5 2.3-14.4 12-13.6 14 1 2.8 3.6 1.8 9.2-3.4 5.4-5.1 8.8-7.4 15.5-10.4 8-3.6 10.8-5.2 16.2-9.3 3-2.3 6-4.3 6.5-4.3s2-1.1 3.4-2.6c1.3-1.4 4-3.4 5.9-4.3 2-1 4.3-2.8 5.4-4 2-2 4.6-2.8 4.6-1.2 0 1.1-6.7 7-10.6 9.4-4.3 2.6-12.5 8.2-15.9 11a41.6 41.6 0 0 1-9 5.5l-8.7 4.3c-9 4.4-18.8 14.5-18.8 19.4 0 2.5 1.7 1.9 7.8-2.8 5.8-4.4 23.7-15.6 25-15.6a130 130 0 0 0 19.2-14.5c2.6-2.4 6-5 7.7-6 3.4-1.7 8.3-7 8.3-9 0-1.7 8.3-8.6 10.4-8.6 3 0 1.6 3.9-3.7 9.7a72.2 72.2 0 0 1-14.2 13.5c-2.8 2-6.8 5.6-9 7.9s-5.6 5-7.6 6-4.2 2.6-5 3.5c-.7.9-3.4 2.7-6 4s-6 3.6-7.8 5-6 4.2-9.3 6l-6 3.2 2.8 1.4c4 1.9 3.8 4.4-.1 4.1a6 6 0 0 1-4.2-1.8c-1-1.4-1.3-1.3-3.2.7a98.8 98.8 0 0 0-11 22.9c-.1.6-1 2.8-2.1 5-2 3.7-2 4-.3 4 2.6 0 13-10.5 17.5-17.5 6-9.3 7-10.5 9-10.5 1 0 1.8-.7 1.8-1.5 0-2 1.6-2.8 4-2 2.3.7 2.7 3.3.6 4-2.1.9-2.1 14 0 17.3l1.7 2.6.8-2.2c.5-1.3 1.7-2.2 2.9-2.2 1.7 0 2-.7 2-4.6 0-11.3 8-24.3 18.6-30.5 2.8-1.6 11.5-9.2 19.3-17a120 120 0 0 1 15.6-14c.7 0 3.1-2 5.3-4.6 4-4.7 7.2-5.5 7.2-1.7 0 2-22.4 24.4-26.7 26.7-1.5.8-4.8 3.6-7.2 6a60.1 60.1 0 0 1-9 7.6c-8 5.2-8.8 5.8-13.5 12.1-4.5 6-4.6 6.4-4.6 13.4 0 7.8-3 18.2-5.8 20.3-2.3 1.8-5.2 1.6-5.9-.5a24 24 0 0 0-4.1-5.4c-3.5-3.7-3.5-3.8-2.8-10.3.8-8.3-.5-8.5-5.7-1-4.3 6.5-4.6 7.7-1.4 7 3.5-1 11.7 8 11.7 12.9 0 3 .3 3.3 2 2.9 1.6-.4 2 0 2 1.9 0 1.3-.6 3-1.3 3.8s.3.3 2.1-1c5-3.4 8.2-9.4 11.2-20.5 3.2-12.1 8-20 15-24.5 2.5-1.6 6-4.6 7.7-6.5 3-3.5 5.3-4.5 5.3-2.5 0 2.2-5.2 7.8-11 12-5.2 3.8-12 12.2-12 14.7 0 .4-1.2 5.3-2.7 10.7-2.6 9.1-3.3 10.5-8.3 16a62 62 0 0 1-9.2 8.2c-7.3 4.6-9.1 2.5-6-7 2.7-7.9 2.7-8.2-.4-12.8-4.3-6.2-5.3-6-15.1 3.9a75 75 0 0 1-13.6 11.1c-4.5 2.2-5 2.3-7.3.7-1.4-.9-3-2.8-3.6-4.3-.5-1.5-1.4-3.5-1.9-4.4s-1.2-3.5-1.5-5.7c-.5-3.3 0-5.1 4-12.8 3.4-6.6 4.6-10 4.6-13.3 0-4.1.4-4.9 6.1-10.4 6-5.9 6.1-6 4.6-8.6-2-3.2-5-3.8-6.9-1.3-.7 1-4.6 4.1-8.6 6.8-7 4.7-9 7.5-5.4 7.5 1 0 2.6.8 3.5 1.8 1.6 1.7 1.5 2.3-.8 8.8a42.2 42.2 0 0 0-2.5 9.9c0 1.6-.9 4.3-1.9 5.8-2 3-1.7 5.5 1.4 11.7.7 1.4 1.5 3.8 2 5.5 2.5 10.9 9 10.1 25.4-3 13.9-11 15.3-9.2 11.5 13.7-.5 3-.3 3.9 1 4.4 1.2.5 2.2.1 2.8-1 .7-1.2 1.7-1.6 3.3-1.2 1.6.4 3 0 4.2-1.2 1-1 5-4 8.9-6.5 4.6-3 8.3-6.5 10.8-10 8-11.4 9.7-13.6 13.6-17a18 18 0 0 1 5-3.7c2 0 1 2.9-1.7 5a30.7 30.7 0 0 0-5.3 6c-6.4 9.6-17.6 21.4-22.2 23.3a38 38 0 0 0-7.6 5c-2.3 2-5.1 3.9-6.2 4.2-1.8.6-3 3.5-1.4 3.5 1 0 6.4-3.4 6.4-4.1a101.4 101.4 0 0 0 16.6-9.7c14.3-9.6 15.9-10.4 18.7-10 1.9.2 1.5.7-2.6 3.5-2.7 1.8-5 3.3-5.3 3.3s-5.2 3-10.9 6.7c-17.2 11.3-23.6 14.6-28.5 15-2.5.2-5 0-5.7-.4zm15.7-21.8c0-.8-.5-1.5-1-1.5s-1 .7-1 1.5.4 1.5 1 1.5 1-.7 1-1.5zm-31.4-4.8a87.3 87.3 0 0 0 17-16.1l1.6-3-4.4 3.7c-2.4 2-6.2 5.6-8.6 8.1-5 5.4-8.4 6-12.6 2.1-1.4-1.3-2.6-2.8-2.6-3.3s2-2.9 4.4-5.4c3.1-3.1 4.6-5.6 5.1-8.4.4-2.2 1.5-5.1 2.6-6.6 1-1.5 2.1-4.6 2.5-6.8.4-2.3 1.7-5.5 3-7 3-3.6 3-4.8-.2-5.6-2.2-.6-3.3 0-6.6 3.2-3.2 3.3-4 4.9-4.4 8.9-.3 2.6-1.2 5.7-2 6.9-.6 1.1-2.7 5.8-4.5 10.3l-3.2 8.3 1.8 4.3c3 7 6.5 9 11.1 6.4zm0-38.6c-.5-.7-.5-1.5-.2-1.9.9-.9 1.9.5 1.4 2-.4 1-.6 1-1.2 0zM326.8 619a29 29 0 0 1-3.3-5.4c-3.1-6.9-9.9-11.8-16-11.8-3.8 0-11.5-4.3-16-9a22 22 0 0 0-4.6-4c-.4 0-1.2 1.2-1.8 2.7-1 2.6-1.1 2.6-.7-1 .4-3.3.1-4-2-5-2-.9-2.8-.7-4.7 1-4 3.7-6.5.6-2.7-3.5 4-4.3 10.8-1.8 19.4 7 5.2 5.3 9.7 7.8 14.1 7.8 6.7 0 15.1 6.5 19.5 15 3.2 6.2 2.4 10.4-1.2 6.2zm24.7-7.2a14 14 0 0 1 0-5.4c1-4.8-1.4-5.8-14.2-6.2-9.8-.3-10.6-.5-14.1-3.3a33 33 0 0 0-9-4.5c-3-.9-6.8-2.5-8.5-3.6a42.7 42.7 0 0 1-15.8-21.6c-2-8.4-4.4-12-8.9-13.8a19 19 0 0 0-6.1-1.6c-3 0-1.8-2.5 1.3-2.9 3.1-.3 9.4 2.7 12.4 6 1.2 1.3 3 5.6 4.2 9.5a53 53 0 0 0 13.3 21c1.3 1.1 4.9 2.9 7.9 3.8 3 1 7.1 2.9 9.2 4.2 4.4 3 10.8 4.7 15.2 3.8 3.8-.7 14.3 1.8 16.3 3.9 1.1 1 1.3 2.8.8 7-.8 5.8-2.8 7.7-4 3.7zm-64.2-3c-2.1-.9-4-4.6-2.9-5.8.4-.3 2 .8 3.7 2.5 3.2 3.2 2.9 4.6-.8 3.2zM648.7 592c-1.4-1.3-.7-5.3.8-5.3 1 0 1.5 1 1.5 3 0 2.8-1 3.7-2.3 2.3zM264 564.8c0-.5.6-2.9 1.4-5.3.8-2.3 1.7-5.6 2-7.2 1-4.3 4.2-8.4 5.6-7 1.1 1.2.3 4.5-1.1 4.5-.5 0-1 1.3-1 2.8 0 5.3-3 13.2-5 13.2-1 0-2-.5-2-1zm-26-13.6c-2-2.3-.7-2.8 5.4-2 3.9.5 5.6 1.1 5.6 2.1 0 2-9.3 2-11 0zm290.4-6.2c-5.4-.8-6.4-1.4-6.4-3.3 0-3.5 1.7-5.6 8.7-10.9l11.8-9c2.7-2.3 6.6-5 8.5-6 9-4.7 13-6.8 19.8-9.9 8.7-4 19-12.9 17.9-15.6-.5-1.2-1.3-1.5-3-1a155 155 0 0 0-20.7 10.3 55 55 0 0 1-12.5 5.3c-5.4 1-20 6-30.3 10.3-3.5 1.4-9.3 3.3-13 4.1s-9.2 2.4-12.2 3.4-9 2.2-13.1 2.5c-6.5.6-8.3.4-12.2-1.2a43.7 43.7 0 0 0-9.7-2.8c-7.5-1-11.1-4.5-11.8-11.3-.3-3.4 0-6.7 1.1-9.4 1.6-4.5 2-9.3 1.6-24.6-.2-4.5.3-5.8 2.8-9 1.7-2 6-5.3 9.5-7.2 8.5-4.5 9.8-5.7 9.8-8.7 0-2.5 0-2.5-7.3-1.8a112.8 112.8 0 0 0-42.5 12.3c-8.3 4.7-28.7 11-31.8 9.8-.8-.3-2-1.7-2.6-3-1.6-3.5.9-6.9 7.5-10.2 2.8-1.5 9.2-5 14.2-7.9a438 438 0 0 1 41-20 24 24 0 0 0 6-3.5c1.1-1 6.3-4 11.5-6.4a56.7 56.7 0 0 0 11.3-6.4c2.1-2.3 3.9-8.9 3.1-11.4-.8-2.6-2.8-2.8-12.1-1.3-4.9.8-13.8 1.8-19.8 2.1-6.9.4-15.1 1.7-22 3.4a253.5 253.5 0 0 1-22.5 4.7 56 56 0 0 0-22.4 8.7c-1.7 1.3-5.1 3-7.6 4-3 1-6.9 4-11.9 9-4.8 5-10 9-15 11.8-7 3.8-8.4 4.2-17.5 4.9-12.6.9-15.8 0-19.7-5.4-3.4-4.7-3.4-4.5-4.9-10.5-.9-3.4-1.5-4.2-3.4-4.2a6 6 0 0 0-4 1.9c-2 2.2-8.7 4.1-14.7 4.1-2.3 0-5.8.4-7.8 1a128.4 128.4 0 0 1-25.8 4.6c-10.7.7-14.8-.7-18.5-6.3a41.5 41.5 0 0 1-4.5-21.2 27 27 0 0 1 8.4-14.8c5.3-4 20.3-19 24.3-24.4a53 53 0 0 1 15-13c1.6-.8 5.3-2.8 8.2-4.6 2.9-1.7 6.9-3.4 8.8-3.8a250.5 250.5 0 0 0 32-11.2c2.2-1.2 5.8-1.9 10.1-2a26 26 0 0 0 13-3.1c3.5-1.7 8.8-3.6 12-4.2a50 50 0 0 0 9.5-3c2-1 7.4-2.4 11.8-3 4.4-.6 10-1.5 12.5-2s9.6-1.2 15.9-1.6c9.2-.4 13.3-1.1 21.5-3.9 5.5-1.8 12.6-3.6 15.6-4 12.6-1.5 20-3 30.5-6 6-1.9 14.6-4.1 19-5s11.4-3 15.5-4.6c4.1-1.6 9.5-3.4 12-4a100 100 0 0 0 27.7-14.8 93.4 93.4 0 0 1 12-7.6c3.7-1.2 20.5-10.7 23.2-13.2 1.4-1.3 3.7-2.6 5.3-3 1.5-.3 3-1 3.3-1.5.4-.5 2.3-1.8 4.4-2.8 4-2.1 9.7-9.3 8.6-11-1-1.8-4-1.2-8 1.5a79 79 0 0 1-13.7 6 256 256 0 0 0-19.6 8 2121 2121 0 0 1-18 8.2c-5.1 2.3-8.1 4.3-8 5.2.1 2.7-.2 2.9-3.8 1.9-2.6-.8-4.9-.6-8.7.5-2.9.8-8.8 2-13.2 2.6s-10.3 1.8-13 2.5c-2.8.8-9.5 2.2-15 3s-13.8 2.6-18.5 3.8a88 88 0 0 1-21.5 2.4c-8 0-15.3.8-19 1.7-3.2 1-7.1 1.6-8.6 1.6s-5.5.9-9 2c-3.5 1-9.6 2.3-13.4 3-11.1 1.9-25 5.7-33.8 9.4a143 143 0 0 1-30.7 9.5c-3.6.5-10.5 2.1-15.3 3.6a392 392 0 0 0-49.2 20.5 230.8 230.8 0 0 1-40 19.5c-3.8 1.8-11 5.3-16 7.5l-9 4.2-19.6-1.4-2.5-3.6a23 23 0 0 0-6-5.7c-1.9-1.2-6-4.5-9-7.4-6-5.8-6.4-7.3-3.9-15.5.8-2.7 1.5-6.8 1.5-9.1 0-2.7.9-5.9 2.5-8.6 1.3-2.4 2.5-5.7 2.5-7.4 0-1.7.7-4 1.5-5.2a29 29 0 0 0 2.8-5.5 34.3 34.3 0 0 1 12.2-14.9c5.8-3.2 7.3-4.7 8-8.2A45 45 0 0 1 206 262c6.2-5.6 19.7-10.1 38-12.9 5.4-.8 10.6-1.9 11.6-2.5 6-3.4 15.5-6.3 22.3-6.7a46 46 0 0 0 17-4.8 250 250 0 0 1 20-7.5 181 181 0 0 0 15.7-5.6c2.9-1.3 9.4-3.2 14.5-4.3 24-5 46.5-11.7 59.3-17.6a53 53 0 0 1 19.5-6c3-.4 6.6-1 8-1.5a124 124 0 0 1 27-4c15-1.2 26-3 36.5-6 14-3.9 16-4.9 17.8-8.6 1-2 1.7-4.5 1.7-5.8s.5-2.8 1.1-3.4c1.8-1.8.3-4-3.3-5-3.8-1-13.7.1-18.8 2a231.7 231.7 0 0 1-46.5 12.7c-15 2.9-33.3 3.8-38 2-5.3-2-21.2-1.2-33.2 1.5a108 108 0 0 1-17.5 2.6c-3.5 0-8.8.5-11.8 1s-8.2 1-11.4 1c-4-.1-9.3 1-17 3.4-6.1 1.9-13.1 4-15.6 4.6-2.5.6-5.6 1.8-7 2.6a301 301 0 0 1-26 11.9c-8.5 3.6-18 8-21.2 9.5-8.7 4.4-33.6 12-56.6 17.2-5.3 1.2-11 6.4-18.9 17.4a82.5 82.5 0 0 1-25.4 25.2 73.6 73.6 0 0 1-31.3 7.8c-5.3-.9-10.9-4-14-7.7-2.7-3.1-2.7-3.5-2-11.4.3-4.6 0-15.5-.6-24.5-1.6-19.9-1-23 8.4-49.5 3-8.4 4.2-10.5 7.8-13.7 2.4-2 5.3-4 6.6-4.3 1.3-.3 4.1-2 6.4-3.6s4.5-3 5-3c.4 0 3.2-1 6-2.5 5.2-2.5 17-5.4 21.6-5.4a13 13 0 0 0 5-1.4 126 126 0 0 1 23.7-7.7 49 49 0 0 0 16.5-6.4c.8-.7 3-1.8 5-2.6 2-.7 4.2-1.9 5-2.5.8-.7 2.8-1.6 4.5-2a42 42 0 0 0 15.2-10.3 154.4 154.4 0 0 0 17.4-17c9.3-9.9 11-12.6 18.7-29.5 1.2-2.6 2.2-5.2 2.2-5.8 0-2.3-6.7-10.2-10.1-12a80 80 0 0 0-12.5-4c-6.9-1.8-9.5-3-11.7-5.2-2.4-2.6-3.6-5.7-2.2-5.7.3 0 2.9 1.3 5.8 3 2.8 1.6 7.4 3.4 10.2 4s7.7 2.2 11 3.6c5 2 6.6 3.3 8.4 6.4 1.2 2.2 3 4.5 4.2 5 1 .6 1.9 2.1 1.9 3.5 0 2-4.1 11.5-8.5 19.5a46 46 0 0 0-2.5 5.5c-1.7 4.7-38.4 41.5-41.3 41.5-.5 0-7.3 3.1-15 7A77.3 77.3 0 0 1 193 151a34 34 0 0 0-9.5 2.8 50.9 50.9 0 0 1-9.1 3.3 115.6 115.6 0 0 1-20 5c-8.6 1.6-22.6 7.1-24 9.5-.4.6-2.8 2-5.4 3.1a27 27 0 0 0-6.4 3.7 114.5 114.5 0 0 0-15.7 38.5c-.7 2-.8 7.6-.1 18.7.5 8.7.7 20.1.4 25.4-.7 11.3.2 13.4 7.3 16.7 10.6 4.8 31.3-.5 43.4-11 2-1.7 3.8-3 4.2-3 .3 0 2.6-3 5-6.3 8.3-11.6 19.5-24.3 22.9-26 3.7-1.8 24.4-7.8 27.1-7.8 3.3 0 20.3-5.4 27.3-8.6l13.5-6.2 22.5-10 19-8.6c1.6-.8 5.2-2 8-2.7s7.2-2 10-3c9.4-3.5 17-4.8 31.5-5.4a152 152 0 0 0 36.4-5c5-1.7 16-1.7 37 0 14.5 1.3 41.3-3.5 65.9-11.6 18.6-6.2 24.7-7.1 31.4-4.7 2.1.7 3.6 2 4 3.5a30 30 0 0 1-4.8 15.7c-2.4 3-11 7-17 8-2.4.5-5.2 1.2-6.1 1.7a30 30 0 0 1-7.5 1.5c-3.2.3-7.4 1-9.3 1.5-2 .5-8.8 1.4-15.4 1.9-20.4 1.6-45.7 7.1-56 12.2-7.6 3.8-23.3 8.7-39.1 12.2a446.3 446.3 0 0 0-23.4 5.6 77 77 0 0 0-12.1 4 44 44 0 0 1-7.7 3c-7.3 1.8-18.8 6-26.3 9.6-6 2.9-9.2 3.8-16 4.3-8 .7-12.3 2-23.6 7.2-2.3 1-6.3 2.1-9 2.4A88.4 88.4 0 0 0 217 259c-7.8 3-11.5 6.7-16.7 16.9-3.7 7.1-5.4 9.3-8.3 10.8a34.3 34.3 0 0 0-13 14l-2.2 5.5c-.5 1.1-1.3 4-2 6.5a29 29 0 0 1-2.7 7 46 46 0 0 0-3 11.5l-1.9 12c-.4 2.7.2 3.6 4.9 7.6 2.9 2.5 7 5.6 9 7 2 1.3 4.4 4 5.3 5.8l1.6 3.4 10.7-.5c9.5-.4 11.5-.8 17-3.6 3.3-1.7 6.6-3.1 7.2-3.1.6 0 2.7-1 4.8-2.4s6.6-3.3 10.2-4.6c7.5-2.7 30.6-14.4 33.5-17.1 1.8-1.6 5-3 19.9-8.6l7-3a198 198 0 0 1 48-14.2c.6-.5 3.8-1.7 7-2.6a100.6 100.6 0 0 0 17-6.4 137 137 0 0 1 27.6-7.6c3-.4 8.4-1.4 12-2.3 17.1-4 25.6-5.5 39-6.3a197 197 0 0 0 21.5-2.4 184 184 0 0 1 17-3.1 213 213 0 0 0 15.4-3c3-1 9.4-2.3 14.3-3 14.9-2.5 20.7-4.4 21.4-7.2 1.1-4.4-.5-4.7-14.8-2.3a509.5 509.5 0 0 0-52 11.1 124.3 124.3 0 0 1-39.7 6c-13.9 0-25.5 1.4-39.6 5-9.5 2.4-30.3 9.3-35.9 12-12.9 6-16.4 7-27.6 8.9-24.9 4.1-29.4 5.5-47.5 14-6 3-15.2 7.2-20.3 9.6-5.1 2.5-10.9 6-12.8 7.8-4 4-30.4 17.2-38.2 19.3-10.2 2.6-17.6 1.2-23.4-4.6-3.5-3.5-3.8-4.3-3.8-9.2 0-3.3-.6-6.3-1.5-7.4-.8-1-1.5-4-1.5-6.5 0-4 .8-5.8 6.7-14.5a53.7 53.7 0 0 1 9.1-11c1.3-.7 3.4-2.8 4.6-4.6 2.7-3.8 15.3-15.3 19-17.2 1.4-.8 4.5-3.6 7-6.3a46 46 0 0 1 18.6-11.4c2-.7 6-2.6 9-4.1 3-1.6 8-3.7 11-4.8 3-1 8.4-3.2 12-4.9 3.6-1.7 8.5-3.5 11-4.2s6.3-2 8.5-3 7.8-2.8 12.5-4 13.9-4.8 20.5-7.8 14.2-5.9 17-6.4l10.5-2 11-2c3-.5 9.8-2.6 15-4.8s14.4-5.1 20.5-6.5c6-1.5 15.7-4.1 21.5-6a99 99 0 0 1 32-5c11.3-.6 23.3-2.6 29.6-4.9a126 126 0 0 1 19.4-5.6c17-3.9 16-3.6 30.3-8.6 3.7-1.3 9.8-3 13.5-3.5 3.7-.7 9.6-2.7 13.2-4.5 3.6-1.8 8.3-3.7 10.5-4.3s7.5-3.6 11.8-6.7c8.5-6 16.7-10.3 25-13 13.5-4.5 30.4-15.6 34.4-22.6 2.7-4.8 2.8-6.2.7-9.7-1.5-2.6-1.4-3 2-10.6 3.7-8 4.5-13.3 2.4-15.4-1.7-1.7-5.3-1.5-6.9.4-1.9 2.3-5.7 4-12.4 5.4a72.7 72.7 0 0 0-23.5 11.4 65 65 0 0 0-17.9 33c-1.6 6.6-7 15.5-11.9 19.4-2.1 1.7-8.4 5.6-13.9 8.7-10.9 6-16 7-22.8 4.1-5.7-2.4-7-7-3.5-14 5.4-11.3-.8-17.3-12.7-12.3a135 135 0 0 1-33.3 7.7 95 95 0 0 0-20 4.8 203 203 0 0 1-19.5 5.8 357 357 0 0 0-13 3 35.5 35.5 0 0 1-19.9-.2 55.2 55.2 0 0 0-18.1-1 110 110 0 0 0-31.4 5.3c-5.3 1.5-11 2.4-15.6 2.4a246 246 0 0 0-41.3 4c-4 1-8.7 2.9-10.5 4.2-3.1 2.4-9.9 5-16.4 6.3-1.8.3-3.5 1-3.8 1.5s-5.4 3.2-11.3 6l-20.2 9.8a130.4 130.4 0 0 1-31 11.2 87 87 0 0 0-13 3.9 51.7 51.7 0 0 1-10.6 3c-12.7 2-13.8 2.5-21 11-3.8 4.3-8.6 10-10.7 12.7-2.1 2.7-7 7.5-11 10.7-16.2 13-34.3 17.4-41.2 10l-2.4-3 .5-16.5c.8-25 2-33.1 7.8-54.3 2-7.2 2.5-8.2 7.4-12.4 4-3.3 7.8-5.4 14.7-7.8a93.6 93.6 0 0 0 14.3-6.2 87.7 87.7 0 0 1 28.8-8.4c12-1.4 27.2-6 37-11.3a86.8 86.8 0 0 0 18-11.9c3.8-3.2 8.9-7.4 11.1-9.4 2.3-1.9 7.2-6.4 11-10 3.6-3.6 7.8-7.1 9.3-7.7 6.3-2.8 10.6-6.8 17-15.7a192 192 0 0 0 7.8-11.5c1.7-3.4 2.4-9.2 1.7-14.5-.6-4.5-1.3-5.7-7-11.3-4.2-4.2-8-6.9-11.6-8.2-4-1.6-5.4-2.7-5.6-4.3-.4-2.8.4-2.8 6.4 0 13 6.2 20.6 13.8 22.4 22.2 1.5 7.4 0 15-4.3 21-11.8 16.4-17.5 22.2-25.2 25.7-2.2 1-7.4 5.1-11.6 9.1a215.6 215.6 0 0 1-30.4 25.4 138.5 138.5 0 0 1-35.5 14l-17 3.2a63.4 63.4 0 0 0-22.2 7.8 32 32 0 0 1-8 3.4 58 58 0 0 0-20.5 10.2 25.4 25.4 0 0 0-5.6 11.3 108.7 108.7 0 0 0-6.6 39.8c0 6.3-.4 13.7-1 16.3-1.3 5.4-.7 10.2 1.4 13.1 2 2.6 8 3.5 14 2a59.3 59.3 0 0 0 20.2-10.1c.3-.8 1.8-2 3.3-2.8 3-1.5 11.8-10.3 13.5-13.5.5-1 4-5.2 7.8-9.4 7.5-8.3 13.8-11.6 22-11.6 2.3 0 6.5-1.1 9.5-2.5s6.2-2.5 7.2-2.5a114 114 0 0 0 34.8-11.6 140 140 0 0 1 12-5.4c.9 0 18.5-9 23.2-11.8 2-1.1 6-2.6 9-3.2 3-.6 7-2.2 9-3.5 7.8-5.3 25-8.4 47.3-8.5 7.6 0 12.7-.8 23.5-3.4a331 331 0 0 1 25.9-5.2c11.8-1.7 12.4-1.7 19 .1 10.7 3 19.2 2.5 37.8-2.4 8.8-2.2 20-5.5 25-7.2 6.4-2.1 10-2.8 12.6-2.4 2.4.4 5.7-.1 10-1.6 3.5-1.2 8.8-2.5 11.8-3s7.2-1.9 9.5-3a21.2 21.2 0 0 1 17-1c4.5 2.3 5.7 8.6 2.7 14.5-2.3 4.7-2.6 7.7-1 10.6 1.5 3 3.5 2.3 6.6-2.3 1.6-2.3 3.7-4.4 4.7-4.6 2-.4 2-.7 0 7.4-.9 3.3.5 3.2 6.9-.8 8.2-5.2 9-5.7 11.7-6.8a39.3 39.3 0 0 0 13.1-13.3c1.1-2 2.3-6.1 2.6-9 .3-2.8 1.9-7.6 3.5-10.6s2.8-6.2 2.8-7.1a68 68 0 0 1 12.9-16c5.3-5 17-10.8 24.4-12A35 35 0 0 0 640 89c2-1.2 5.1-2.5 7.1-3 3-.5 4.1-.2 6 1.6 1.8 2 2 3 1.5 7.3-.3 2.8-1.7 7.4-3 10.2-3.2 6.3-3.3 7.5-1.7 10.4 1.8 3.3.7 7.7-3 11.8a15 15 0 0 0-3 4.3c0 .5-.7 1.2-1.7 1.5s-4 2.6-6.7 5-5.5 4.5-6.1 4.5c-.6 0-1.9 1-2.9 2a20 20 0 0 1-6.4 3.7c-2.5 1-5 2-5.6 2.5a69.5 69.5 0 0 0-21.4 8.8c-10.2 7-15.2 10-18.2 10.6-1.9.4-6 2-9.4 3.7a73.8 73.8 0 0 1-17.8 6.2c-1.9.4-3.1 1.7-4.2 4-2 4.8-4.2 4.7-3.6-.2.3-1.8-1.9-1.5-9.5 1.4-3.8 1.4-11 3.4-16 4.4a185 185 0 0 0-26.4 7 178 178 0 0 1-36 6c-12.3 1.2-21 2.7-26 4.3a280 280 0 0 1-15 4.2c-11.7 2.8-24 6.6-30.5 9.6a50 50 0 0 1-12 3.4 52 52 0 0 0-8.5 1.7 48 48 0 0 1-9.8 1.8c-5 .6-9.7 2-15.5 4.8-12 5.6-15.2 6.9-25.7 9.8-5.2 1.5-11 3.4-13 4.4-2 1-5 2-7 2.5-2 .4-7.9 2.7-13.2 5.1a98.7 98.7 0 0 1-10.7 4.4c-1 0-17.2 7.4-27 12.3a33.7 33.7 0 0 0-9.5 7 24.5 24.5 0 0 1-6 5.4 85.2 85.2 0 0 0-20 18.6c-.8 2-2.8 4-4.3 4.6a53.7 53.7 0 0 0-15 22c-.3 2.4 0 5 1 7 1 1.6 1.7 5.1 1.7 7.6 0 5.5 2.1 9.2 6.4 11a23.4 23.4 0 0 0 16.8 1c8-2 30.5-13.5 36.6-18.6 4-3.5 18.9-11.3 35.7-18.9l10.4-4.7a150 150 0 0 1 36.6-8.9c6.4-.7 17.1-4.3 27.9-9.3 3.6-1.7 7-3 7.6-3 .6 0 5.6-1.6 11.3-3.5 20.7-7 34.7-9.5 58.2-10.3 15.5-.5 18.2-.8 32.5-4.5 22.5-5.7 40.8-9.7 54-11.7 22-3.4 24.2-3.9 32-7.4 2.5-1 5.8-3 7.5-4.2s4.1-2.6 5.5-3 3.6-1.8 5-3a79 79 0 0 1 19.6-10.5c.8 0 3.3-1 5.5-2 2.2-1.2 4.5-2 5.1-1.8 2 .7-5.6 5.5-11.4 7.3-3.2 1-6.3 2.4-7 3.1s-1.5 1.4-2 1.4-3.6 1.7-6.7 3.7c-3 2.1-11.1 6.5-17.8 9.8-8.6 4.3-12.2 6.5-12.3 7.8 0 1 .6 2 1.3 2.3 1 .4 22.7-9 29-12.7a175.7 175.7 0 0 0 24-10c10.4-5.3 14.4-6 17-3 2.5 2.7 2 4.1-3 9.8-3.4 3.7-6.8 6-11.7 8.3a75.5 75.5 0 0 0-12 6.8c-10.8 8-12.4 9.1-15.2 9.8-4.3 1-7.6 2.9-14.9 8.4a99.2 99.2 0 0 1-14 8.5c-7.6 3.7-8.5 4.7-8.5 9.6 0 4 1.6 3.7 9.1-1.4 3.5-2.4 11.8-7.3 18.4-10.9a375.6 375.6 0 0 0 32.9-19.1 42 42 0 0 1 7.9-4.7c.6 0 1.7-.6 2.6-1.4a134 134 0 0 1 17.5-9.6c.3 0 .6.6.6 1.3 0 .6-3 2.8-6.7 4.7s-8.9 4.9-11.4 6.5l-7.5 4.7-13 7.9c-5.4 3.4-15 8.8-21.3 12a161 161 0 0 0-14.5 8.3 84.8 84.8 0 0 1-31.3 12.7c-4.6 1-10 2.6-12 3.4-7.4 2.8-24 6.8-31.8 7.6-4.4.4-11.5 1.9-15.7 3.3-7.8 2.6-17.4 4.7-30.8 6.7-8.6 1.3-28.5 5.2-34.5 6.8-2.2.5-9 1.7-15 2.6-10 1.4-15 2.8-36.5 9.6a630 630 0 0 1-18.5 5.1c-11.4 3-29.5 10.4-31 12.8a35 35 0 0 1-7.8 4.6c-6.2 3-7.7 4.2-10.4 8.7a89.2 89.2 0 0 1-5.2 7.8 211 211 0 0 0-6.8 9.4 44 44 0 0 1-12.8 12.6c-9.6 6.7-10.2 8.3-5.1 14.4 4.2 5.2 6.4 5.7 19.4 4.4a103.6 103.6 0 0 0 40.7-13.7c2.7-1.2 6.7-3.4 8.7-4.8 6-4 6.7-3 6.5 8.9-.3 15.7 2.7 19.4 15.8 19.1 9-.1 13.3-2 16.6-7.4 10-16.4 11.7-18.1 22.4-22.3a78 78 0 0 0 10-4.7c3.3-2 13.3-7.6 22.9-12.6 3.3-1.8 6.9-3.3 7.9-3.3s3.1-.7 4.7-1.6c1.7-.8 6.4-2 10.6-2.4 4.2-.6 10-2.1 13-3.5 2.9-1.4 6.5-2.5 8-2.6a60 60 0 0 0 9.4-1.5 250 250 0 0 1 15-2.8c4.7-.8 9.9-2 11.5-2.8a87 87 0 0 1 20.5-5.4c18.8-3.8 29.7-9.3 17-8.7-10 .6-26.4 4.2-35 7.8-8 3.3-19.4 5.7-23 4.7-1-.2-4.2.3-7.2 1.2-3 .9-9.5 2.3-14.4 3.2a123 123 0 0 0-22 4.7c-2.1.8-6 1.7-8.4 2.1-2.5.4-5.4 1.4-6.6 2a54 54 0 0 1-9 3.4 66.7 66.7 0 0 0-13 5.8 59 59 0 0 1-11 5.1A36.5 36.5 0 0 0 360 410a159 159 0 0 0-12.7 20 17.4 17.4 0 0 1-6 6.2c-3.5 1.7-11.5 2-14.3.5-2.6-1.4-3.5-8.4-2-15.2.6-3 1.3-8 1.5-10.9.2-3 .8-6.9 1.4-8.7.5-1.8.8-3.2.6-3.2l-8.4 4a316 316 0 0 0-31.1 16.8c-17.2 10-18.7 10.5-28 9.4-6.3-.8-8.6-1.6-11.4-3.8-5.1-4-4.5-6 3.6-10.3C260 411 267 405.2 267 403c0-.6 1-3.1 2.3-5.5s2.7-5.7 3-7.3c1-3.7 7.6-10 14.2-13.3a112 112 0 0 0 8-4.8c1.6-1.2 9.5-4.3 17.5-6.8l22.5-7.2c11.5-3.9 29-8 44-10.5a1468 1468 0 0 0 18-3.1 234.3 234.3 0 0 0 35.2-7.6c9.2-2.6 19.6-5 24.9-5.5 5-.5 12.2-1.6 16-2.4 3.8-.9 10.7-2.2 15.4-3 8.4-1.4 18-3.7 19.7-4.8.5-.3 4-1 7.9-1.7 4.4-.7 7.7-1.8 9-3.1 1.7-1.6 3-1.9 5.2-1.4 3.2.7 7.3-1 12.8-5.3 16.1-12.7 19.4-14.7 19.3-12 0 1.6-21.1 16.4-28.3 19.9-5.1 2.5-6.7 5.1-3.3 5.8 2.8.5 23.7-10.4 32.3-16.9 4.3-3.2 9.8-6.9 12.3-8.2s5-2.8 5.6-3.5c.5-.6 3.5-2.1 6.5-3.3a69.4 69.4 0 0 0 19.5-11.1c7-6.7 25-16.9 29.8-16.9 5.5 0 5.4 1.8-.5 4.5-3 1.4-6.4 3.3-7.8 4.4-1.4 1-5.9 3.8-10 6.2s-8.5 5.2-9.8 6.3a50.6 50.6 0 0 1-6.7 4.6c-12 6.9-32.7 19.7-38 23.7a70 70 0 0 1-23.6 11.9c-15.4 5-17.2 5.7-15.5 6.7 1 .5 1.6 2.2 1.6 4.8 0 6.7 6.4 10.6 11.5 7 1.8-1.3 23.9-8.8 28-9.5a192 192 0 0 0 34.5-17.6 222.7 222.7 0 0 1 27-16l10-5a74.2 74.2 0 0 0 19.8-12.5c6.2-5.3 14.2-9 17.6-8.1 1.4.4 2.6 1.2 2.6 2 0 1.6-5.8 5.7-12.5 9a164 164 0 0 0-13.5 8c-4.7 3.3-14.7 8.8-22.4 12.3a219 219 0 0 0-24 13.3 98 98 0 0 1-13.4 7.9c-1.8.6-5.3 2.4-7.7 4a114 114 0 0 1-33 12.8 86 86 0 0 0-15.7 5 22 22 0 0 1-7 2.4 80 80 0 0 0-17.8 3.5c-2 .7-8 2.3-13.5 3.5a273 273 0 0 0-16 4c-3.3 1-9.8 2.3-14.5 3s-10 2.1-11.9 3.1c-2 1.2-8 2.5-15.5 3.5s-17.6 3.2-26.6 6c-8 2.3-17.4 4.8-21 5.5-11.6 2-18.8 6.7-30 19.4-6.4 7.1-6.6 8.5-.5 2.9 6.6-6 9.8-8.2 14.5-9.5a62 62 0 0 0 10.1-4.6c6.5-3.8 19.5-8.8 28.4-11l12.5-3.4c3.6-1 10.6-2.6 15.5-3.4 5-.9 11.5-2.3 14.5-3.1s7.4-1.6 10-1.6c8.5 0 22.8-3.2 26.5-6a125 125 0 0 1 25.8-5.9c4.5-.5 10.4-2 13.2-3a52.6 52.6 0 0 1 21.6-6.3c5.5-.3 9.6-1.3 14.5-3.5 3.8-1.6 8.4-3.3 10.1-3.6a21 21 0 0 0 10.9-5.7 63 63 0 0 1 13-8.9 38 38 0 0 0 5.2-3.2c2.6-1.8 6.7-4 9.2-4.7 2.5-.8 5.4-2.2 6.5-3.2 3-2.5 16.4-8.8 17-7.9.6 1-1.3 2.6-6 4.8-2.2 1-5.8 3-8 4.5s-5.9 3.3-8.2 4.1a148 148 0 0 0-25.4 15 34.8 34.8 0 0 1-14.5 8A98.9 98.9 0 0 0 567 348c-2 1-7.3 2.1-13.2 2.6-10.2.9-18.8 3.7-18.8 6.1 0 .8.4 2 .9 2.7 1.2 2 12.2 0 21.6-3.8a70 70 0 0 1 11.5-3.5c5.5-1 16-5.7 22-10.1 2.6-1.9 7-4.6 10-6 3-1.5 7-4 8.7-5.5s4.7-3.3 6.6-4c2-.6 7.3-3.3 11.8-6 7.6-4.6 11.9-6.1 11.9-4.2 0 .4-1.7 1.6-3.8 2.7s-5.7 3.3-8.2 5-6.5 4-9 5-5.9 3-7.6 4.1c-1.7 1.3-6.2 4-10 6-3.7 2-9 5.2-11.6 7-5.6 4-9.2 5.6-20.8 9a253 253 0 0 0-14.1 4.4 112 112 0 0 1-16.5 3.6 101 101 0 0 0-17 4c-3.2 1.2-10 3-14.8 4-4.9.8-11.8 2.7-15.5 4-6.6 2.6-21.5 5.9-34.6 7.6-3.9.6-8.8 1.9-11 2.9a40 40 0 0 1-16.6 4c-2.5 0-5 .4-5.5.8-.5.5-4.5 2.1-9 3.6s-8.6 3.4-9.4 4.1c-.9.8-4.3 2.6-7.5 4.1a119 119 0 0 0-12.1 6.5 65.6 65.6 0 0 1-10 5.2c-8.5 3-13.2 7.6-18.3 17.4-5 9.7-12.3 13.1-25.8 12-5.8-.4-7-.9-10-4-4.2-4.1-5.7-10.3-4.7-19 .4-3.1.4-5.7.1-5.7s-2.4 1-4.8 2.4a47.7 47.7 0 0 1-7 3.1 34 34 0 0 0-6.3 3.2 85.3 85.3 0 0 1-40.7 10.6c-11.1.2-13.2-.7-17.4-7.8-4.2-7.2-2.3-10.8 8.2-16.5 5.4-2.8 6.8-4.3 11-10.8 2.5-4.2 5.8-9 7.3-10.6 1.5-1.7 4-5.3 5.4-7.9 2.3-4 4-5.3 10.4-8.6l15.3-7.7a85.6 85.6 0 0 1 28-10.4c1.7 0 4.5-.7 6.4-1.5 8.1-3.4 35-10.7 46.5-12.6 6.9-1.1 14.3-2.7 16.5-3.4 2.2-.8 12.5-2.8 23-4.5 28.9-4.7 33.4-5.7 40.9-8.5a41 41 0 0 1 10.5-2.6c6.4 0 19.4-2.7 28.3-5.8 4.7-1.6 13-4 18.4-5.2 5.6-1.3 10.5-3 11.5-4.1 2-2 2.6-7.9.9-7.9-.6 0-5.6 1.8-11.3 4a97.5 97.5 0 0 1-24 7c-1.4 0-7.2 1.6-12.9 3.5-10.4 3.4-16 4.7-29.8 6.5a85 85 0 0 0-21.2 5 39.8 39.8 0 0 1-11.5 2c-3.2.1-9 .5-12.8 1l-17 2c-6.3.7-12 2-15.5 3.5-3 1.4-8.1 3.1-11.2 4-3.1.7-6.7 2-8 2.9a61.7 61.7 0 0 1-18.3 4.6c-3.3.6-12.3 3.4-20 6.1s-15.8 5.5-18 6a114.9 114.9 0 0 0-25.5 14c-1.1 1-4 4.6-6.3 7.7-2.3 3.2-8 9.3-12.7 13.7-16.2 15.1-16.8 15.8-18.6 21.4-1.3 4.3-1.4 6.1-.6 9 .6 2 1.3 5.3 1.7 7.2.4 2.4 1.8 4.7 4.7 7.3l4 3.7 9.2-.6c5-.3 12-1.4 15.6-2.4a87 87 0 0 1 21.6-4c3 0 6.3-1 10.4-3 8.5-4.5 10-4 12 3.9 1.2 4.5 2.7 7.6 5.2 10.3l3.6 4 10.5-.6c14.5-.9 20.4-3.6 31-14.5a51 51 0 0 1 14-11c3.4-1.6 7.7-4.1 9.6-5.5a64.5 64.5 0 0 1 25.4-8 66 66 0 0 0 11-2c7.3-2.3 18-4.5 24.2-5 15.5-1.4 27-2.8 28.6-3.7 1-.5 3.6-1 5.8-1 4.9 0 7 2.7 7 8.4 0 7-3.2 11-12.4 15.6-4.6 2.3-8.7 4-9.3 4s-2.8 1.6-5 3.5a81.3 81.3 0 0 1-15.4 8 289.1 289.1 0 0 0-35.3 17.6l-11.4 6.5c-5.4 2.7-8 6-6.3 7.7 2 2 22.3-4.2 31.7-9.7 7.9-4.6 27-10.3 38.6-11.5 5.8-.6 11.4-.8 12.3-.4 3.2 1.2 3.6 3.8 1.3 7.8-1.7 3-4 4.8-10.2 8-6.7 3.5-8.3 4.8-9.9 8.1-1 2.2-1.8 5.4-1.6 7a75 75 0 0 1-2.3 24.6 14.4 14.4 0 0 0-.6 9.2c1.1 5.2 2.4 6.2 8.4 7.2 4.1.7 7 1.7 11.8 4.2 1.5.9 3.5 1.2 4.5.9.9-.4 5-1 9-1.6 4.1-.5 10.9-2 15-3.5 4-1.3 8.2-2.5 9.2-2.5 1.6 0 11-3.7 15.4-6.2a44 44 0 0 1 7.8-2.4 48 48 0 0 0 8.6-2.8c1.5-.8 4.5-1.7 6.7-2.1 5.1-1 13.2-4.5 18.7-8.2 5-3.5 16.8-8.3 20.2-8.3 3.3 0 4.8 2.2 4 5.7a49 49 0 0 1-14.9 15.3 156 156 0 0 0-25.5 12.9 105 105 0 0 0-19.3 14.8c-2 1.8-4.2 3.3-4.8 3.3s-1 .9-1 1.9c0 1.5 1.1 2 6 2.5 3.1.3 7.3.2 9.2-.3s5.6-1.2 8.3-1.4c3.1-.2 5.7-1.1 7-2.4a34.6 34.6 0 0 1 19.6-7c7.5-.5 7.7-.5 11.3 2.7 2 1.8 3.7 4.1 3.7 5.1s.4 2 .8 2c1.5 0 7.2-8 7.2-10 0-1.2.8-2.4 1.7-2.7 3.6-1.1 19.8-9.6 21.8-11.3 2-1.8 14.3-10 15-10 .2 0 3.4-2.1 7.2-4.7s8.8-5.5 11.3-6.5a35 35 0 0 0 8.7-6c2.7-2.7 4.7-4 5.7-3.5 1.7.6 2.2 2.6.6 2.6-.5 0-2.7 1.8-4.8 4a27 27 0 0 1-9.1 5.7c-2.9 1-7.3 3.4-10 5.4-2.5 2-7.5 5.3-11.1 7.4-3.6 2.2-8.8 5.6-11.5 7.6s-7.7 5-11 6.8c-5.2 2.5-6.4 3.6-7.8 7-1.1 3-2.1 4.1-3.7 4.1-1.1 0-2.3.7-2.7 1.6-.7 2-8.4 6.4-11 6.4-2.9 0-3.3-.8-2-3.7 1-2.2.8-2.8-1.7-4.9-3.8-3.2-8.4-3-17 .8l-11.1 4.9a84.3 84.3 0 0 1-29 3.2zM341.1 433.6c1.7-.9 3.3-3.9 2.5-4.7-.3-.2-2 .5-3.8 1.6-6.9 4.2-11.6.2-10.4-8.8.5-3.6.4-4.2-.6-3.2-2 1.9-1.7 15 .2 16.3 1.6 1 9.4.3 12.1-1.2zm-63.4-11.2c4.5-2.3 12.6-6.8 18-10 14.1-8 31.4-16.7 33.6-16.7 2.4 0 3.2 2.4 1.9 5.7a45 45 0 0 0-1.7 6.1c-1 5 1.6 3.7 3.1-1.5a25 25 0 0 1 6.8-12.2l3-3.3-5.4.6a51.9 51.9 0 0 0-18 4.1 18 18 0 0 1-4 2.4c-2.4 1-3.8 1.8-9 5.2-1.4.9-3.6 2-4.9 2.4-1.3.4-4.9 2.6-8 4.9-3 2.3-7.4 5.3-9.6 6.8-6.1 4-19.5 6.8-19.5 4a27 27 0 0 1 3.3-4.3c3.9-4.5 4.3-5.4 9.3-18.3 2-5.4 4.6-10.9 5.6-12.1a90 90 0 0 1 24.5-12.5 276 276 0 0 0 33.4-10.3 95 95 0 0 1 20.5-4.1c7.6-1 18-2.8 22.9-4.1 26.5-7.5 42.3-10.7 48-10 3.7.4 7 0 12.5-1.6 4.1-1.2 13.1-3.3 20-4.6s15-3.2 18-4.3c3-1 9.5-2.2 14.4-2.6 14.4-1 27.6-5.5 27.6-9.1 0-1.4-.9-1.6-5.8-1a80 80 0 0 0-12.5 2.7c-7 2.1-35.6 7.4-48.5 9-6.9.8-12.4 2.2-36.7 9a124 124 0 0 1-16.5 3.5c-3.6.3-8 1-10 1.5s-9.8 1.9-17.5 3a179.1 179.1 0 0 0-37.5 8.5l-25.5 8.2c-11 3.5-16.7 6-21.3 9a34 34 0 0 1-7.6 4.3c-2.8 0-8.5 7.8-12 16.5a31.3 31.3 0 0 1-6.8 11.8c-4.7 4-13.3 9.7-14.7 9.7-2.3 0-.6 3.4 2.8 5.7 2.6 1.8 4.8 2.3 9.5 2.3 5.3 0 7.3-.6 14.3-4.3zM434 341.6c0-.5.7-1 1.5-1s1.5.5 1.5 1-.7 1-1.5 1-1.5-.4-1.5-1zm-95 80.9c1.1-4 5.8-9.5 27.1-31.5a44.4 44.4 0 0 1 26.1-13.4 138 138 0 0 0 25.3-7c2.7-1 7-2 9.5-2.3 16.6-2.2 25.2-3.8 29.4-5.6 2.7-1.2 7.2-2.3 10-2.6 2.8-.3 7.1-1 9.6-1.4l9.5-2a182 182 0 0 0 34-9.5c5-1.2 5.7-2.4 3.3-5.6a7.2 7.2 0 0 1-1.5-6.5c.7-4.3 1.8-4.3-14.3.4-5.8 1.7-13.2 3.2-16.5 3.5s-9.4 1.4-13.5 2.5c-4.1 1-11 2.8-15.3 3.7s-8 2.1-8.3 2.6c-.3.5-2.2.9-4.2.9s-6.2.6-9.2 1.4c-3.3 1-7.6 1.3-11 1-4.5-.5-8.6.2-23 4a230.5 230.5 0 0 1-37.5 8.5c-14.4 1.7-20.8 3-33 7a342 342 0 0 1-21 6 62.5 62.5 0 0 0-23 9.6c-6.3 4-7.4 5.7-12 17-3.4 8.6-4.1 11.5-3 11.5 1.1 0 6.4-4.3 13.3-10.7 3.6-3.5 8-6.5 9.5-6.9a171 171 0 0 0 13.4-4.6c16.1-6 32.5-8.5 35.8-5.2 1.4 1.4 1.2 2-2.8 6.7-6.2 7.5-7.3 9.6-8.1 15.2-.4 2.7-1.2 7-1.8 9.6-1.9 7.8 1 11.1 3.1 3.7zm12.5-4.7c2-4.7 1.8-6-.6-3.1a29.8 29.8 0 0 0-5.4 10c-.6 2.4-.6 2.4 2-.5a31 31 0 0 0 4-6.4zm-8.5 3.9a1 1 0 0 0-2 0c0 .6.4 1 1 1s1-.5 1-1zM547.7 534c-.4-.4-.7-1.7-.7-3 0-2.3 2.6-4.4 7.8-6.2 1.8-.6 4.5-2 6-3s6.5-3.8 11-6.2a78.6 78.6 0 0 0 15-10.3c3.7-3.3 8.8-7.3 11.3-8.8 3.9-2.4 5-3.8 6.3-8 2-6.1.9-9.4-3.1-8.6-3.5.7-9.3-1-9.3-2.8 0-2.1 3.3-2.7 7-1.1 3.2 1.3 3.5 1.3 4.5-.7 1.4-3 5.7-4.3 9-2.9 3.5 1.6 3.5 7 0 10.2-1.4 1.3-2.5 3.2-2.5 4.2 0 2 1.5 2.4 2.5.8.4-.6 2.8-2 5.4-3.3 4.3-2.1 9.4-5.8 22-16 2.5-2 9.2-6 14.8-8.7a67.5 67.5 0 0 0 10.8-6c1-1.5 4.5-1.2 4.5.4s-7 6-11 7c-3 .6-23 13.8-29.8 19.5a52.3 52.3 0 0 1-8.7 5.8 182.7 182.7 0 0 0-32 21.2 85.3 85.3 0 0 1-14.4 10.3c-3.6 1.8-9 4.8-11.8 6.6-2.9 1.8-5.8 3.2-6.6 3.2s-2.2.7-3.3 1.6c-1.8 1.5-1.5 1.5 3.1 1 2.7-.4 6.3-1.3 8-2s4.6-1.7 6.5-2 4.5-1.4 5.7-2.1c1.1-.8 4.3-2 7-2.6 2.6-.7 6.4-2.2 8.3-3.3s5.4-3 7.8-3.9c5-2 13.5-8 20.4-14.3 3.6-3.3 5.5-4.4 8-4.4 1.8 0 4.7-.8 6.5-1.7l11-6c4.4-2.2 8.5-4.8 9.2-5.6a84 84 0 0 1 15.7-8.7c.2 0 .4.7.4 1.5 0 .9-1.2 2-2.7 2.6-1.5.6-5.9 3.2-9.8 5.8a126.4 126.4 0 0 1-30.3 15c-2.8.8-5.2 1.7-5.2 2.2 0 .8-10.2 9-17.5 14.2-1.8 1.4-2.5 2.7-2.5 5.2 0 1.9-.5 3.7-1 4-1.5 1-4-1.3-4-3.6 0-2.4-1.1-2.3-6 .2-2.2 1-8.8 3.6-14.7 5.6l-17.7 6c-7 2.4-9.8 2.8-11 1.7zm-348.3-4.8c-.4-1 .6-3.7 2.6-6.8 3.6-5.9 3.6-5.7-3-13.6-3.1-3.8-4.6-4.6-14.6-7.8a137 137 0 0 1-12-4.2 67 67 0 0 1-5.3-6.4 27.3 27.3 0 0 0-5.1-5.8c-.5 0-1.7-1.5-2.8-3.3a7.4 7.4 0 0 0-5.2-4c-4.5-1-6.8.7-8 5.6-1.7 6-4.8 10.7-7.2 10.7-2 0-2 0 0-2.8 1.2-1.6 3-5.4 4.2-8.5 1.2-3.2 3-6.2 4.2-6.8 3.3-1.8 11-.5 12.8 2.1a59 59 0 0 0 5.7 6.3 18 18 0 0 1 4.3 5.2c0 .5 1 2.2 2.3 3.7 2.1 2.6 4 3.4 21 8 2.4.7 4.9 2.5 7.4 5.7l5.5 6.6c2.3 2.5 2.3 5 0 8.4a19.1 19.1 0 0 0-2.6 4.8 8.3 8.3 0 0 1-2.1 3.4c-1.2 1-1.6.8-2.1-.5zm-27-1.6c-.3-.6.3-1.3 1.4-1.6 6.3-1.7 1.3-14.8-7-18.7-2.7-1.2-4.8-2.5-4.8-3 0-.9-5.2-.9-6.6.1-.5.4-1.6 2.1-2.3 3.9-1.7 4.3-5.8 8-7.2 6.6-.7-.7-.3-1.8 1.6-3.7 1.4-1.4 3-3.9 3.6-5.4 1.7-5 10-7 13.7-3.4 1 1 3.4 2.5 5.4 3.4 2 1 4 2.7 4.3 3.9.4 1.2 1.8 3.8 3.2 5.8 2.6 3.8 2.7 8.8.2 11.7-1.4 1.7-4.5 1.9-5.4.4zm-14.9-3-6-2.5c-5.1-2-3-3.6 3.3-2.5 4.7.9 7.9 3.2 6.8 5-.8 1.2-1.4 1.2-4.1 0zm310-7c-5.2-1.1-5.4-1.5-5.1-9.3.3-7.2.5-8.4 3.1-14.3a85.8 85.8 0 0 1 19.2-17.4c.4 0 5.3-2.2 10.8-4.9 5.5-2.7 12-5.7 14.5-6.7 2.7-1 7-4.2 10.5-7.8 9.2-9.3 9.4-9.5 21.6-12.5l11.4-2.9-.3-3c-.3-2.8 0-3.2 2.1-3.2 1.4 0 3 .7 3.7 1.5 1.8 2.2 4.5 1.8 9.2-1.3 5.8-3.9 5.8-3.9 11-5a70 70 0 0 0 21.3-13.3c1.6-1.5 9.7-6 18-9.9 8.1-4 16-8 17.6-9 3.2-2.4 3.9-2.5 3.9-.6 0 1.6-2.8 3.2-22 12.6a113 113 0 0 0-18.5 10.8A74.4 74.4 0 0 1 579 434c-2.5.9-7 3-10 4.6-5.6 3.2-17.3 7.1-27 9.2-6.6 1.4-10.7 3.9-18.5 11.4a35.3 35.3 0 0 1-17 10.4 51 51 0 0 0-9.4 4.5 39 39 0 0 1-7.5 3.8 20 20 0 0 0-6 3.3 97.3 97.3 0 0 1-7.9 5.9c-7 4.8-10 10.4-10.4 19.6-.1 3.5.2 7 .8 7.7 2 2.3 11 1.6 20.9-1.7a62 62 0 0 1 12.8-3c2 0 8-1.6 13.2-3.6a126 126 0 0 1 25.7-8.4c4 0 16.3-6.5 22.8-12a59 59 0 0 1 11.2-7.6c4.4-2 5.3-2.8 5.3-4.9 0-4.3-3.6-3-15.6 5.8l-6 4.1-8.5 5.7a68.2 68.2 0 0 1-24.4 9.4 112 112 0 0 0-23.5 7 50 50 0 0 1-11 3c-2.9.3-6.3 1.3-7.4 2-6.7 4.8-13.2-2.5-11.2-12.7.7-3.7 7-9 17.3-14.3 3.2-1.6 7.4-4 9.4-5.2 2-1.3 5.8-2.5 8.5-2.9 8.6-1 23.4-8.5 23.4-11.8 0-2.6 7.1-9.5 10.8-10.5 16.4-4.4 20-5.7 22.4-7.9 1.9-1.7 3.3-2.3 5-1.9 2.6.7 10.8-2.3 16.8-6.1 2-1.2 4-2.2 4.5-2.2a18 18 0 0 0 5-4c4.1-4.3 20-13.4 36-20.5 10.3-4.7 11.5-5 11.5-3.7 0 .4-2.7 2.1-6 3.7a34 34 0 0 0-7.2 4.2c-.6.7-2 1.3-3.2 1.3a14 14 0 0 0-5.6 2.2c-2 1.2-6.9 3.8-11 5.9s-10 5.9-13.2 8.6a101 101 0 0 1-24.8 14c-4.2 1.9-11 4-25.2 7.9-6.8 1.8-10.4 4.4-12.3 9-2 5-15.4 12.7-25.3 14.6a95.9 95.9 0 0 0-33 17.6c-1.5 2-1.6 7.1-.2 10.8 1.1 3 .7 3 13 0 3.6-1 8.5-2.3 11-3.2s7.4-2.4 11-3.4a39 39 0 0 0 12-4.3 56 56 0 0 0-16.1 3.8c-1.4.8-4.6 1.7-7 2a91 91 0 0 0-7.7 1.7c-3.8 1.2-8.2.4-8.2-1.4 0-2.4 10.3-13.5 15.5-16.9 1.7-1 4.8-1.9 7.1-1.9 4.1 0 6.7-1.1 26.8-11.9a39 39 0 0 0 9.3-7c3.9-4.6 9.8-7.7 18.5-9.7 3.4-.8 7-2 7.8-2.8s4.4-2.3 8-3.6a177.1 177.1 0 0 0 13.5-5 79 79 0 0 0 19.1-11.1 46 46 0 0 1 10.7-7.2c3-2.1 5.2-3.3 18.8-10.6 3.5-1.9 9.8-5.7 13.9-8.6a103 103 0 0 1 26.2-13.5c4.3 0 1 3.2-8.5 8.3-5.6 3-13.4 7.9-17.2 10.7-3.9 3-9 6.1-11.2 7.2a161 161 0 0 0-22.5 13 129 129 0 0 1-22 14c-4.5 2.3-10.4 5.4-13 6.9a36 36 0 0 1-7 3.4c-1.2.4-3 1.3-3.8 2s-5.1 2-9.5 3a33 33 0 0 0-18.8 9.2c-6.7 5.9-31.8 18.3-36.9 18.3-4.6 0-12.8 4-14.6 7-2 3.2-.8 3.6 4 1.2a57.6 57.6 0 0 1 17-5.2c3 0 17.4-4.3 23-6.8a91 91 0 0 0 19.5-14.3 43.6 43.6 0 0 1 20.3-10.4c5.4-.8 20.8-5.8 26.4-8.7 5-2.6 12.7-8.2 18.6-13.8 2.5-2.3 6.7-5.3 9.5-6.7a86 86 0 0 0 9-5.5c4.1-2.9 5.6-3.8 15.7-9.2 2.9-1.6 6.6-4 8.3-5.1a55 55 0 0 1 18-8.5c1.7 0 2.5.5 2.5 1.8s-2.4 3-8.3 5.8c-10.8 5.3-18.7 10.4-18.7 12 0 .8-2.4 3-5.3 4.8s-6 4.2-6.8 5.1a210.6 210.6 0 0 1-23.7 18.7 320.7 320.7 0 0 0-18.3 10.3c-6.6 4-11 6-16.7 7.6-4.9 1.4-5.2 2.1-1.7 3.8 3.8 1.7 4.5 1.5 13.6-3.3a205.6 205.6 0 0 0 38.3-24.7c2.3-2 6.6-5.2 9.7-7.3 3.2-2 6.3-4.3 7-5.1 1.2-1.6 3.9-2 3.9-.7 0 1-7.8 7.5-11 9.2-1.4.7-4.1 2.7-6 4.4-3.5 3-9.7 7.6-16.5 12.3-1.8 1.2-8.4 5-14.6 8.4l-15.5 8.4a88 88 0 0 1-12.5 4.9c-8.7 2.6-21 9.9-22.8 13.5-1.2 2.2-17 9.1-21 9.1-3.5 0-9 1.8-21.6 7-5.5 2.2-12.4 4.3-15.5 4.6s-9.9 2-15.2 3.5c-9.9 3-12 3.3-17.4 2zm67-25c3.6-1.2 6.8-2.6 7.1-3.2.5-.7 0-.9-1.2-.5-2.4.6-11.2 3.7-14 4.8-4.4 1.8 1.8.9 8.1-1.2zM558 479c13.4-9.3 14.5-10.1 13.8-10.8-.9-.9-10 4-12.2 6.4a29 29 0 0 1-5.5 4.3c-4.4 2.6-8.1 5.9-8.1 7 0 1.4.3 1.2 12-7zm36-16.5c7.2-3 14.6-7.5 13.7-8.4a60 60 0 0 0-15.1 5.6c-2.3 1-7 2.6-10.4 3.5-3.4 1-6.2 2.2-6.2 2.8 0 1.7 10-.2 18-3.5zm23.2-12.7c2.4-1 6.5-3.6 9-5.7l9.7-7.8c2.8-2.2 5-4.1 4.7-4.4-.6-.5-11.6 6.6-11.6 7.6 0 .4-2.6 2.2-5.8 4-5.6 3.1-12.4 8.2-11 8.2.3 0 2.6-.8 5-1.9zm33.2-25.3c1.4-.6 2.6-1.5 2.6-2s-1.4-.2-3 .7c-4.5 2.3-4.1 3.4.4 1.3zm-50.4 81c0-3.3 3.6-6.6 5.3-5 .9 1 .8 1.9-.4 4-2 3.6-5 4.2-5 1zM67.3 444.3c-.6-1-.5-4 0-8.2.8-4.8.7-7.1-.1-8.5a9 9 0 0 1-1.2-4.4c0-3.9-1.8-3-2.6 1.2-.9 5-3.3 8.8-4.7 7.4-.7-.7-.7-1.4 0-2.3.6-.7 1.4-3.6 1.8-6.5a20 20 0 0 1 2-7c2-2.6 4.8-.6 5.8 4.3l1.8 7c2.3 7.6 0 22-2.8 17zm410-8.5c-2.9-1.3-3.6-2.8-2.9-5.6.9-3.4 5.4-5.5 26-12.1a47 47 0 0 0 9-4.4c2.3-1.5 7-4 10.6-5.5 7.7-3.4 12-7 12-10.2 0-1.9-1-2.8-4.4-4.3-5.8-2.5-8.6-6.2-8.6-11.5 0-5.5 2.8-9.1 8.3-10.7 2.3-.6 5-2 5.8-3.2 1.8-2.2 3.9-1.5 3.9 1.4 0 1 .4 2 1 2a14 14 0 0 1 4 2.6c5.4 4.6 3.8 12.6-3.7 18.7-2.5 2-3 4.7-1 4.7.7 0 3.1-1.5 5.3-3.4a37.8 37.8 0 0 1 13.6-7.6c1.4 0 14-8 16.5-10.6 2.1-2.1 11.8-9.5 15.3-11.6a23 23 0 0 1 5.8-2.3 27 27 0 0 0 8-4.7c2.5-2.2 8-5.8 12.2-8 4.1-2.2 11.3-6.2 16-9 8.8-5 11-5.8 11-3.6 0 .7-2.8 2.8-6.3 4.7s-6.9 4-7.7 4.6c-.8.7-5.3 3.2-10 5.5s-10 5.7-12 7.5c-4 3.7-8.2 6-12.6 6.9-1.8.4-4.2 1.8-5.5 3.2s-3.5 3.1-5 3.9c-1.3.7-3.3 2.1-4.4 3.2a91.4 91.4 0 0 1-21.2 13 79.2 79.2 0 0 0-19.5 12.8 78 78 0 0 1-11 6.2c-5.1 2.4-11.8 6-14.8 7.9a92 92 0 0 1-22 8.9c-8.2 2.4-10.8 3.6-11.4 5.2-1 2.6.3 3.3 6.3 3.3a46 46 0 0 0 19.6-6c1.5-1.2 18.4-7.7 23.2-9 4.4-1.1 5-1.9 5.5-8.5.4-4.5 3.2-4 3.6.7.2 2.5.8 3.8 1.8 3.8 1.7 0 22.1-10.8 23-12.1.8-1.4 12.4-6.5 19-8.4a56 56 0 0 0 12.4-6 473.9 473.9 0 0 1 19.8-12.3c2-1.2 6.1-3.1 9-4.3s8.7-4 12.8-6.5 8-4.4 8.9-4.4c2.2 0 1.8 2.7-.5 3.5-1.1.3-4 2.2-6.6 4a47 47 0 0 1-12.3 6 51.9 51.9 0 0 0-12 5.5 102 102 0 0 1-9 5.7 48.2 48.2 0 0 0-6.6 4.3c-2.9 2.5-10 6-16 7.7-6 1.7-24.1 10.7-27 13.4a23 23 0 0 1-6.4 3.4c-6.4 2.2-7.2 3-6 6.6 1.4 3.7.6 5.9-2.1 5.9-1.5 0-2.2-.8-2.7-3-.3-1.7-1-3.3-1.5-3.6-1.7-1-15.2 3.7-27.8 9.8-11 5.3-13.4 6-19.5 6.4-3.9.2-8 0-9.2-.5zm61-48.9c1.6-2.7 1.7-3.7.7-6.7-1-2.8-1.9-3.7-4.8-4.5-5-1.4-6.4-1.3-9 .5-3.6 2.6-3 7.6 1.4 11.4 4.8 4.2 9 4 11.7-.7zm-10-.9c-1.4-.5-1.7-4.1-.7-6.8 1.3-3.4 10.4-.7 10.4 3.1 0 3-5.9 5.3-9.8 3.7zM87 427.5c-.1-4-.2-9.2-.1-11.6 0-2.3-.6-5.9-1.4-7.9-.9-2-1.3-3.8-1-4.1.2-.3-.2-2-1-4-.9-1.9-1.5-4.3-1.5-5.4 0-3.2-3.7-9.3-7.2-12-2.4-1.8-5-2.7-9.3-3.1a52 52 0 0 1-8.2-1.3c-1.8-.5-3 0-5.5 3-3 3.4-6.8 4.8-6.8 2.5 0-.6 1.9-2.9 4.2-5.1 3.7-3.6 4.5-4 7.7-3.4 2 .4 5.6.8 8 1 5.7.2 11.3 2.7 13.5 5.7C83.1 388.5 85 392 85 394c0 1.2.6 4 1.4 6.2a50.7 50.7 0 0 1 3.3 17.7c-.4 1.3-.2 4.1.3 6.3 1 4.3.2 9.7-1.7 10.3-.8.3-1.2-2-1.3-7zm459 4.6c-3.6-3-4-5.4-.7-5.4 2.7 0 6.7 3.8 6.7 6.3 0 2.4-2.4 2-6-.9zm-469.5-4.2a90.5 90.5 0 0 0-5.4-23.1l-3.8-10.6c-1-3.4-3-4.2-5.7-2.2-1.6 1.1-1.9 2.6-1.8 9 0 5.4-.3 7.8-1.3 8.7-2.4 2-2.7-1.2-1.7-14.7.2-2.3 5.8-8.3 7.8-8.3 1.9 0 6.4 5.9 6.4 8.3a41 41 0 0 0 3.9 13c.5.7 1.4 4.1 2 7.7l2.2 10.8c.5 2.4.7 4.8.3 5.3-1.2 2-2.3.6-3-3.9zm484.2-3.3c-1-.6-1.7-1.6-1.7-2.2 0-2 5.2-7 11-10.7 3-1.9 7.1-5.1 9-7.2s4.4-3.8 5.4-3.8 3.7-1 6.1-2l6.7-3c2.2-.8 4-2 9.6-6.8 1.5-1.3 7.6-4.8 13.7-8s13.3-7.3 16-9.4c4.9-3.6 8.5-4.9 8.5-3 0 2-13.3 10.3-26.3 16.6-4.3 2-9.5 5.2-11.5 7a53 53 0 0 1-17.8 10c-2.8.9-6.2 2.8-7.5 4.2s-5.1 4.3-8.4 6.4c-9.3 6-10.5 7-10.5 8.7 0 1.3.9 1.5 5.7.9 7.2-.9 12-3 23.4-10.5 5-3.4 12.6-7.5 16.7-9.1 4.2-1.7 9.9-4.8 12.6-7 2.8-2 6.6-4.5 8.3-5.4 1.8-1 7-4.2 11.4-7.2 6.1-4.2 8.4-5.3 9.3-4.4 1.4 1.5 1 1.8-18.9 14-3.1 1.9-7.2 4.6-9 6-1.9 1.5-6 3.6-9.2 4.8a85.6 85.6 0 0 0-11.8 5.8l-10.5 6.2a89 89 0 0 0-7.2 4.5 54.2 54.2 0 0 1-18.8 5.7c-1.4 0-3.3-.5-4.3-1zm165.8-63.9c-.3-.6-1.7-.8-3-.5-2 .5-2.5.2-3-1.8a21 21 0 0 1-.3-5.9c.3-3.2.5-3.4 5.3-4 2.7-.4 5.3-.4 5.8 0 .4.5.6 3.5.5 6.8-.3 5.1-.6 5.9-2.5 6.2-1.2.1-2.4-.2-2.8-.8zm8-1.3c-3.2-4.5-.7-11.8 4-11.8 5.3 0 7.4 8.4 2.8 12-3.3 2.6-4.8 2.6-6.8-.2zm-53.5-.2c-4-1.5-4.7-2.7-2.6-4.5 2-1.6 2-3.5 0-5-2.3-2-1.7-3 2-3 3.8 0 4.8 1.5 4 5.8-.6 2.6-.3 3 2.7 3.5 2.7.6 3.7.3 5.1-1.4 2.2-2.7 2.3-4 .2-4-2.7 0-1.1-3.4 1.8-3.8 2.9-.3 5.4 2.8 4.4 5.4-.3.8.4 2.3 1.6 3.5 2 1.8 2 2.1.6 3.6-1.4 1.4-2.2 1.4-6.7.3-4-1-5.4-1-6.3-.1-1.4 1.4-2.2 1.3-6.8-.3zm30.8-.8c-1.4-2-1.8-2.1-4-.9-4 2-5 .8-3.3-4 2-5.4 3.2-6.9 6-6.9 3 0 4.2 2.2 4.6 8.5.4 5.5-1 6.9-3.3 3.3zM654 354c0-4.7-.8-6-4.3-7.3-1.5-.5-2.7-1.5-2.7-2 0-1.8 4.3-2 10.5-.7 6.6 1.4 8.2 3.5 4 5.4a6.7 6.7 0 0 0-3.3 4.5c-.5 1.8-1.6 3.4-2.5 3.6-1.4.2-1.7-.5-1.7-3.5zm14.7 3c-1.3-1.3-.7-9 .8-10.3 2-1.7 2.7.3 2.3 6-.3 4-1.6 5.8-3.1 4.3zM197 346c-1.7-1.4-3.1-3-3.1-3.6 0-.6 1.6-4.2 3.5-7.9a46 46 0 0 0 3.5-7.8c0-1.9 11.9-26 12.8-26 .9 0 14.8-10.3 25.3-18.6 6-4.8 8-5.7 18.1-8.6 3.8-1 9.6-3.2 13-4.8 6.4-3 26.6-10 34.8-12.1 2.5-.7 5.2-1.8 6-2.5s3-2 5-3a41 41 0 0 0 6.9-4c1.8-1.4 4.3-2.5 5.5-2.5 3.7 0 20.4-4.9 25.5-7.5a57.1 57.1 0 0 1 28-7.4 71.2 71.2 0 0 0 24.6-5c2.2-.5 6.4-1.9 9.5-3 4-1.6 7.8-2.1 14.5-2.1 5 0 11.9-.5 15.5-1s12.5-1.5 19.8-2c13.7-1 31.8-4.9 38.2-8l8.2-4.3c2.5-1.4 6.1-3 8-3.7l8.3-3.3 11.8-4.3c4-1.4 8.7-4 11.5-6.4 2.7-2.2 5.5-4 6.3-4s3.6-1.5 6-3.3c2.4-1.7 5.7-3.7 7.4-4.4a144 144 0 0 1 21.6-7.4 35 35 0 0 0 9.7-4c2.7-1.6 6-3 7.3-3 3.7-.1 8.4-2.2 11.5-5a30 30 0 0 1 6-3.8c1.7-.7 4-2.6 5.3-4.3a22 22 0 0 1 5-4.7c1.6-1 6.8-5.5 11.7-10 5-4.8 9-8 9.2-7.2.6 1.9-25.4 26.3-31.3 29.3-1.7.8-3.9 2.5-4.9 3.6s-4.2 2.8-7 3.7c-2.8 1-8.3 3.2-12.2 5-4 2-8.4 3.5-10 3.5s-5.9 1-9.4 2.3a152.6 152.6 0 0 0-30.4 16.2c-.5 1.4-5.3 3.9-12.4 6.5-2.2.8-3.4 2-3.8 3.8-1 4.8-1.4 5.3-3.2 5-1.1-.3-1.6-1.1-1.4-2.6.2-1.2-.2-2.2-.7-2.2-2 0-16.6 6.2-22.8 9.6-7.5 4.2-27.1 8.7-44.8 10.4a510 510 0 0 0-18.5 2c-3.6.5-10.6 1-15.5 1-8.2 0-10.3.4-23.3 5-13.4 4.7-15 5-24 5a54.2 54.2 0 0 0-26.4 5.7c-10.6 5-14 6.2-23.2 8.3a44 44 0 0 0-15.2 6c-.8 0-2.6 1-4.1 2.4a28.6 28.6 0 0 1-8.4 4l-12 3.7c-7 2.1-14.5 5-25.4 10-1.1.5-6 2-10.9 3.4-10.6 3-13 4.3-17.9 9-2 2-4.1 3.5-4.6 3.5-.8 0-7 4.6-11.1 8.4-.8.7-3 2.1-4.7 3.1a27 27 0 0 0-7.2 9 74.9 74.9 0 0 0-6.7 14.3 380.2 380.2 0 0 0-5.8 13.5c-2.1 5-2 5.9 1 8 5.2 3.9 15.8-2 34.9-19.2 2.2-2 6-4.6 8.4-5.6 4-1.8 8.4-4 23.5-11.6 3.8-2 8.4-3.3 13-3.9 3.9-.4 9.8-1.8 13-3 3.4-1 11.2-3 17.6-4 14-2.5 13.7-2.4 23-6.7 4.1-2 13.3-5.4 20.5-7.8 7.2-2.3 15-5.2 17.2-6.4 2.3-1.1 5-2 5.8-2s3.3-1 5.4-2c6.2-3.2 20-5 37.7-5a90 90 0 0 0 26-2.5 224 224 0 0 1 27.9-4.1c12.7-1.1 21.3-2.5 29.5-4.7l17-4.4c6.7-1.8 12-4.2 12-5.5 0-1.5-3-1-12 2.1a151 151 0 0 1-44.5 5.5c-4.5-.4-8.2 0-14.5 1.5a217 217 0 0 1-18.5 3.6 478.6 478.6 0 0 1-43.2 3.5c-6-.3-23 3.8-28.7 7a24 24 0 0 1-8.4 3 79 79 0 0 0-26 9.3c-10.5 5.8-10.7 6-16.7 8.5-5.2 2.1-18.7 4.6-33.7 6.1a54.1 54.1 0 0 0-26.8 8.5c-3.6 2.3-10.7 6.3-15.8 8.8a52.1 52.1 0 0 0-14.1 9.6 35.7 35.7 0 0 1-8.2 6.5 37 37 0 0 0-7.9 5.6c-7.3 6.8-8.7 3.8-4.4-9.6 3-9.4 8-16.6 15.3-21.9 5.5-3.9 10-7.8 17-14.3 7.6-7.2 10.4-8.5 28.7-13 19.7-5 37.3-11.2 42.2-15a49.8 49.8 0 0 1 21.5-9.3c8.4-1 16.6-3.5 20-6 3.7-2.7 15.8-4.8 31.7-5.3 8.8-.3 15-1 17.9-2 2.4-.9 5.4-1.6 6.6-1.6s5.2-1.4 8.8-3c6.6-3.2 6.6-3.2 26.9-3.5 24.6-.4 32.3-1.2 36.4-3.7a51 51 0 0 1 12-3.5c9-1.6 14.4-3.6 14.4-5.3 0-1.4 5-3.8 12.8-6.2 3.7-1.1 7.1-2.4 7.7-2.8a41.5 41.5 0 0 0 13-7.6 99.8 99.8 0 0 1 15.2-9.6c4.6-2.1 12-6 16.6-8.6a163 163 0 0 1 33.7-14.3c3.6-1.2 8.3-3.5 10.6-5s6.5-4 9.5-5.3 6.2-3.3 7.3-4.5c1-1.2 2.5-2.2 3.3-2.2 2.6 0 20.5-18.3 26-26.8 3-4.5 6-8 6.7-7.9.6.2 1.2 2.2 1.4 4.3.3 3.8 0 4.3-8.6 12.5l-10.7 10a83 83 0 0 1-27.6 20.5 22 22 0 0 0-5.3 3.3c-.3.5-3.6 2.1-7.4 3.7-13 5.2-18.8 7.8-28.6 12.6-5.4 2.7-10.3 4.9-10.9 4.9s-2.6 1.2-4.5 2.6a41 41 0 0 1-8.6 4.6c-2.8 1-6 2.7-7.1 3.7-1.1 1-5.8 4.3-10.5 7.4s-9.5 6.5-10.7 7.7c-1.7 1.6-2.9 2-5.1 1.5-3.4-.7-12.6 3-17.2 6.9-1.8 1.4-5.8 3-10.2 4-4 .9-9.6 2.7-12.4 4-5.6 2.6-11.7 3.2-41 4.2-15.4.5-18.5.9-22 2.7a37 37 0 0 1-7.4 2.8c-17 3.6-25 4.9-30.8 5-9.9 0-24 2.3-29.2 4.6-4 1.8-8.7 3.1-27 7.4-2.5.6-5.3 1.8-6.4 2.7a121.9 121.9 0 0 1-29.1 14.2c-3.9 1.3-10.8 3.8-15.5 5.6s-10.4 3.2-12.8 3.2c-6.6.1-14.4 4.3-22.2 12a67.9 67.9 0 0 1-10.8 8.7 43 43 0 0 0-16.8 16.3c-1.4 3-2.2 5.7-2 6.3.8 1.1 8.7-4.3 13-9 1.9-2 7.5-5.4 14.2-8.6 6.2-3 11.5-5.8 11.8-6.3.3-.6 4.6-3 9.5-5.5 8-4 9.7-4.5 18.7-5.2 5.4-.4 11.4-1.3 13.3-2.1a19 19 0 0 1 6.5-1.4 46 46 0 0 0 15.1-3.8c1-.7 3.9-1.8 6.2-2.7a94.6 94.6 0 0 0 17.5-7.4c5.6-3.1 16.5-7 19.6-7 1 0 4-1.2 6.7-2.5a92 92 0 0 1 33.7-7.6c7.9-.6 16.7-1.5 19.7-2s8-1 11.1-1 7.3-.6 9.1-1.4c1.9-.8 6.8-1.7 10.9-2 4.1-.5 10-1.4 13-2.2 3.4-.9 10.1-1.4 17.5-1.4 25.3.2 39.5-2.9 39.5-8.6 0-3.7 2.5-9.1 4.9-10.4 1.4-.7 2-2 2-4.1 0-2.4.5-3 1.8-2.7 1 .1 2 1.4 2.3 2.7.4 1.7 1.7 2.8 4.5 3.8 2.1.7 4.2 1.9 4.6 2.5.6 1 1.8.3 4.1-2 1.9-1.8 3.9-3.2 4.5-3.2s1.6-.7 2.3-1.6a35 35 0 0 1 14.8-7 71 71 0 0 0 23.2-11.5c2.5-2 6.3-4.5 8.5-5.6l14.1-7.6a68 68 0 0 1 11.7-5.7c2.3 0 3 1.6 1.2 3.1a56 56 0 0 1-15.6 10.4 28 28 0 0 0-6.6 3.5 9.5 9.5 0 0 1-3.8 2c-.6 0-2.3 1.2-3.6 2.6a104 104 0 0 1-29.7 13.8c-2.9 1-7.8 3.3-11 5.3a124 124 0 0 0-19 15.4c-.2.4.8 1.1 2.2 1.5 1.8.4 3.5 0 5.8-1.8 4-3 6.6-4.4 9.8-5.8 1.4-.6 3.4-2 4.5-3a56 56 0 0 1 15.5-8c4.1-1.8 10-4.8 13.1-6.7 6.2-3.8 16.8-6.8 18.4-5.2 1.3 1.3-.5 2.3-7 3.8-2.9.6-7.9 2.7-11 4.6a57.3 57.3 0 0 1-9.9 4.9 545 545 0 0 1-7.9 3.4 87 87 0 0 0-10.5 5.8l-9.7 6.2c-6 3.8-8.5 6.3-8.5 8.4 0 2.2-2.7 2.4-5.2.2-1.6-1.5-2.4-1.5-10 1a179.8 179.8 0 0 1-46.3 10.1c-14.4 1-24.5 2.5-31.4 4.6a102 102 0 0 1-27 2.5c-11.4.3-23 1-26.1 1.6-5.1 1-17.5 5.2-24.5 8.3-3.7 1.6-14.7 5.5-24 8.5-3.9 1.3-10 3.8-13.6 5.6a69 69 0 0 1-25.4 6.5c-4.4.6-10 2-12.5 3s-7.9 2.5-12 3c-6.5.8-10 2.1-25 9.6a119.5 119.5 0 0 0-22 12.9c-12 11-26 19.4-32.8 19.4-1.8 0-4.3-1-6.1-2.5zm332-111.6c0-1 3-.6 6.2.8 1.2.5 1.8.2 1.8-.8 0-1.5-2.9-2.7-6.7-2.7-2.4 0-4.3 2.6-4.3 5.7 0 1.7.1 1.7 1.5-.2a7 7 0 0 0 1.5-2.8zm139.6 102c-.7-2 1.6-3.8 3.3-2.7 1.7 1 .7 4-1.3 4-.8 0-1.7-.6-2-1.4zm-100.6-42c0-1.1 6.4-4.7 8.2-4.7 2.6 0 2.1 2-.8 3-4 1.6-7.4 2.3-7.4 1.6zm-32.5-9.4c.9-5 2.2-7.3 4.1-7.3 1.3 0 1.5.8.9 4.8-.9 5.8-1.1 6.2-3.7 6.2-1.8 0-2-.4-1.3-3.7zm48.2 1c1.2-1 4.3-3.1 7-4.7l11.6-7.4c7.7-5 25.9-14.3 26.6-13.6.7.7-5 5.2-7.4 6-3.2.9-11.7 5.5-16 8.7a45 45 0 0 1-7.1 4.2 29 29 0 0 0-6.6 4.4c-2 1.7-5.1 3.4-7 3.7l-3.3.6zM119 263.2c-.8-1-1.2-6.2-1.2-15.3 0-20.5 1-30 3.6-35.8a51.1 51.1 0 0 0 5.5-14.3c0-4.7 3.3-9.9 9.1-14 9.3-6.7 37.7-15.7 57.6-18.3 4-.5 8.6-1.6 10.2-2.4 1.6-.9 4-1.6 5-1.6 4 0 20.3-5.4 24-8l8-5.3c3.1-2 8-6 11-8.7 5.4-5 22.4-14.6 28.6-16.3a112 112 0 0 1 10.9-1.7c4.3-.5 8.3-1.3 9-2s2.1-1 3.5-1c7.5 0 31.4-9.7 44.7-18.2a38 38 0 0 0 16-27.3c.5-6.1.3-7.5-1.7-11a54.3 54.3 0 0 0-16.6-14.5c-2.3 0-10.7-4.8-13.2-7.4-1.3-1.4-3-2.6-3.6-2.6s-3.3-.9-5.8-2c-4.3-1.8-5.9-4.1-3.7-5.5 1.5-1 15.2 5.3 18.6 8.4 2.8 2.7 4.2 3.5 12.6 7.5 2 1 6.6 4.4 10.1 7.6 8.4 7.7 10.4 12.5 8.9 21.2-.6 3.4-2.1 7.8-3.4 9.7-1.2 2-3 4.9-3.7 6.4a49.7 49.7 0 0 1-13 12.7 35.3 35.3 0 0 1-13.4 7.6 23 23 0 0 0-6.2 3.1 174.2 174.2 0 0 1-39.4 10.3c-10.9.3-29.7 9.6-39.6 19.6a81 81 0 0 1-31.4 17.4c-7.9 1.7-15.4 3.8-19 5.4-2 .8-6.5 1.8-10 2.2a138 138 0 0 0-34.2 8.7c-12.8 4.4-16.6 6.2-20.8 9.7a19.4 19.4 0 0 0-5.5 6.4l-.9 4.7a46.5 46.5 0 0 1-5.8 14.2c-1.5 2.2-2.2 5.3-2.8 12.6-1 13.2-.6 35 .7 36.4 1.3 1.2 10.8-.9 12.4-2.8.7-1 .5-1.1-1-.7-1.2.3-2.1.1-2.1-.4 0-.6-1-1.5-2.4-2-1.4-.7-3-3-4-5.8-1.8-4.4-1.8-5-.1-10.8 2.7-10 2.9-12.5 1-15.3-2.2-3.4-1.2-6 3.4-8.4 4.5-2.3 7-7.6 7-14.8.1-6.8.8-8.7 4.4-10.8 5-3 23.7-8.3 38.2-10.9a58 58 0 0 0 11.1-2.8c1.6-.8 6.5-2.2 10.9-3.2s11.3-3 15.5-4.6 8.3-3 9.2-3c3 0 17-4 21.3-6.2 2.2-1.1 6.2-4.4 9-7.2 3.6-3.8 6.4-5.7 10.4-7 3-1 6.8-2.8 8.5-4a104.3 104.3 0 0 1 32-10.6c1.5-.5 8-1.2 14.3-1.5a64 64 0 0 0 15.1-2 310 310 0 0 1 39.7-7.5 73.9 73.9 0 0 0 25.5-6.7c3-1.7 7.6-3.8 10.3-4.8 8.4-3.1 12.4-9.8 13.2-22 .2-4.3.7-8 1-8.5.2-.4.5-5 .6-10.1 0-8.2-.3-10.2-2.6-15.4-4-9-5.2-11.8-6-14-.6-2.3-9.5-5.5-21-7.6-3.3-.6-7.8-2.2-10.1-3.5a17.3 17.3 0 0 0-6.5-2.4c-3.8 0-15.6-4.1-17.9-6.2-3-2.8-2.7-6.6.6-7.5 2-.5 3.1-.1 4.3 1.3 2.1 2.6 9.2 5.4 13.9 5.4 2.5 0 5.4 1 8.5 3 2.6 1.6 5.7 3 7 3a97 97 0 0 1 13.7 3.9l11.5 3.9 5.7 11.1c6.7 13.2 8.1 21.2 5.5 31.3-1 3.6-1.3 8-1 11.6.4 4.5 0 7.5-1.8 12.8a40.6 40.6 0 0 1-3.6 8.5 64.9 64.9 0 0 1-18.2 9.5c-2.5.8-6.8 2.5-9.5 4s-6.6 2.4-8.6 2.4-6.7.7-10.5 1.5c-3.9.8-9 1.5-11.3 1.5-3.6 0-9 1.1-24.2 5-11.9 3-17.7 4-27.5 4.4a90 90 0 0 0-25.5 4.8c-2 .6-5.6 2.3-8 3.9s-7.4 3.8-11 5a30 30 0 0 0-15.2 8.6c-5.4 5-13.5 9.1-22.8 11.7l-19.6 5.8c-7.1 2.1-14.2 3.9-15.8 3.9-1.5 0-4 .7-5.7 1.5-1.7.9-7.4 2.5-12.7 3.6-5.4 1.1-13.3 3.2-17.7 4.5l-12.9 3.8c-7.3 2.2-8.2 3.4-9 12.6-.8 10-1.7 12-6.7 14.8-3.3 1.9-3.8 2.6-2.9 3.7.7.8 1 2.8.6 4.7-2.4 14-2.8 18.2-1.7 20.5 1.6 3.6 6 2.8 7.4-1.2 1.5-4.5 6.5-11.5 9.3-12.8 1.4-.6 3.7-3.5 5.5-7.1a66.5 66.5 0 0 1 11.4-16.9c.7-.4 3-1 5.1-1.2a37 37 0 0 0 8.4-2.4c2.4-1.1 9-3.2 14.7-4.7 5.7-1.5 13-4 16.4-5.6 4-1.8 7.7-2.8 10.7-2.9 2.6 0 5.6-.5 6.8-1.2l8.9-5.2c12.5-7.6 17-9.7 25.2-12.2 8-2.3 11.3-4 19.8-10.2a41 41 0 0 1 16.1-7.2c1.3 0 6-.9 10.3-2 7.1-1.8 8.9-2 16.1-1 10.7 1.5 12.2 1.2 25.2-5 5.6-2.6 7.4-3 10.8-2.5 5.2 1 31-1.2 37.4-3 2.7-.8 6.8-1.5 9.1-1.5s6.1-.6 8.5-1.5c5.9-2 8.3-1.9 11 1 3.4 3.7 8.2 5 13.6 3.6 3.4-.9 5.9-2.5 10.2-7 5.5-5.7 5.9-6 13.5-7.2 7.3-1.2 8-1.5 10.5-5a14 14 0 0 1 7.1-5.3c7.3-2.6 12.6-2 23.4 2.4 5.4 2.2 11.2 4 12.8 4 3.2 0 7.9-4 7.9-7 0-3.4 6.6-9.6 13-11.9 3.6-1.3 6.4-3 7-4.4.7-1.2 2.3-3.4 3.7-4.8 2-2.2 2.3-3 1.4-4.7-.6-1.1-1.1-3-1.1-4.3s-1-3.3-2.1-4.5c-2.6-2.8-1.8-4.4 2.2-4.4a16 16 0 0 0 6-1.6c5.3-2.7 15-.2 16.6 4.4 1.4 4 2.3 4.2 6.3 2.2 2.2-1.1 5.1-2 6.7-2 1.5 0 4.6-.8 6.8-1.6s7.1-2.4 11-3.5c3.8-1.1 8.8-3.1 11.1-4.5 2.3-1.3 5.4-2.4 6.8-2.4s4.6-.8 7.3-1.8c8-3.1 21.2-5.7 22.4-4.4 2 2 .1 4-4.5 4.6-2.5.4-4.8 1.1-5.2 1.7-.3.5-2.5.9-4.8.9-2.6 0-8.7 1.6-15.2 4.1A444 444 0 0 1 579 91.5c-2.5.7-6.4 2-8.7 3.1a47 47 0 0 1-8.5 2.8c-6.7 1.3-9.6 2.8-11.5 5.8-3 4.6-7.6 8.2-12.7 9.9-5.4 1.8-7.6 4-11 10.5-3 5.6-8 9.2-12.1 8.6-3.3-.5-13.4-3.5-20.5-6.2-6.8-2.5-16.3.3-21.2 6.4-2 2.3-3.7 3-9.8 4.2-6.7 1.2-8 1.8-12.5 6-7.3 6.6-8.2 7.1-12.8 8-5.6 1-12.5-.6-16-3.9-2.7-2.5-3-2.5-7.5-1.2-2.6.7-7.2 1.7-10.2 2s-7.6 1.2-10 1.8c-6.2 1.6-26 3.4-35 3.3-6 0-8 .3-11.6 2.4a32 32 0 0 1-22.2 4.3c-7-1-16-.3-24.2 2l-8.5 2.5a31 31 0 0 0-10 5.2 95.9 95.9 0 0 1-26.3 12.7c-3 .8-7 3-11.3 6.5a37.6 37.6 0 0 1-12.3 6.9c-3 .9-5.9 2-6.2 2.5-.3.5-2.4 1-4.7 1-2.3 0-6.7 1-9.7 2s-7.8 2.7-10.5 3.4-9.8 3-15.5 5c-5.8 2-12.7 4.3-15.4 5-5 1.6-12.5 8.4-12.6 11.6 0 2.7-5.5 10.4-9.6 13.7a30.6 30.6 0 0 0-6.7 8.6c-1.5 3-3.4 6-4.3 6.7-2.1 1.8-1.8 3.2.5 2 3.8-2 19-18.2 24.2-25.6a35 35 0 0 1 9.4-10 65.7 65.7 0 0 1 17.5-6.4c.8 0 4.3-1.4 7.8-3A116 116 0 0 1 224 204a16 16 0 0 0 6-2c2-1.6 32-16.2 37.2-18 2.3-.8 6.2-2.8 8.7-4.4 2.5-1.6 5.9-3.4 7.4-4s5.6-2.7 9-4.6c3.5-2.1 9.5-4.4 14.5-5.6a33 33 0 0 1 16.4-.9 44 44 0 0 0 19.6-1c1.3-.6 5.3-1.6 9-2.4l12-3c3-.8 9-1.7 13.5-2 4.5-.4 12.2-1.3 17-2.2 10-1.8 18.5-1.4 22.4 1.2 2.1 1.4 4 1.6 10.7 1.1 9.9-.7 20.7-4 43.7-13.5a132 132 0 0 1 15-5.2c3-.7 7-2 8.8-2.7 2.6-1.2 5-1.3 10-.8 3.6.5 8.3.8 10.5.7 5-.2 13-4 18-8.5 3.9-3.5 10.7-6.2 14-5.5 1 .2 2.8 1.5 3.9 3l2 2.7-2.2 5c-2.4 5.6-2.6 8.3-1 11.3 1 1.9 1.6 2 7.7 1.3 13.3-1.4 17.2-4.6 17.2-14.1 0-3.2.4-7.1 1-8.8l1.4-5.6c1-5 13.2-20.6 19-24.2a79.7 79.7 0 0 1 26.9-9.8c2.7 0 6.4-1 9.3-2.4 6.1-3 19.4-4.6 19.4-2.3 0 1-1.8 1.6-6.4 2-3.6.4-8.9 1.8-11.8 3.1s-8.5 2.8-12.4 3.4a52 52 0 0 0-21.7 7.8 18.2 18.2 0 0 1-4.6 2.9 22 22 0 0 0-5.7 6.5 26 26 0 0 1-4.7 6c-.4 0-.7.6-.7 1.3 0 .7-.6 2.3-1.3 3.7-2 3.7-3.6 10.7-4 17.7-.8 9.3-4.3 13-14.3 15.1-3.2.7-4 1.3-4.7 4-.8 3.3-1.4 3.7-4 2.7-.9-.4-1.3-1.5-1-3 .4-2 0-2.5-2.4-3a14 14 0 0 1-4-1.7c-2.3-1.7-2.6-7.5-.9-12.9 3.6-11-1.2-12-13.9-2.4-9.8 7.3-11.6 7.7-29 7.4a44 44 0 0 0-21 3.5c-6 2-11.5 4.1-12 4.6-1.2.8-17.9 7-27.1 10a121 121 0 0 1-13.8 3.1c-7.2 1.3-8 1.2-14.1-1a26.8 26.8 0 0 0-13.3-1.8c-11 .9-31.4 3.5-36.2 4.7-2.5.7-7.5 1.8-11 2.5a289 289 0 0 0-12.5 3 39.9 39.9 0 0 1-16.5 1.2c-16.7-1-27.1 1.4-37 8.4-1.5 1-3.9 2.1-5.4 2.5-1.5.4-4.9 2.2-7.5 4s-6.4 3.7-8.6 4.4a235.1 235.1 0 0 0-35.1 16.8c-2 1.5-6.7 3-13 4.2-10.7 2-15 3.4-26.3 8-4 1.7-7.8 3-8.2 3-.5 0-3.4 1-6.5 2.2a30.5 30.5 0 0 0-16.1 13.8c-2 3-5.6 7.4-8.1 9.6-2.5 2.2-7.3 6.7-10.6 10a32.8 32.8 0 0 1-12 8.3c-6.7 2.5-11.9 2.8-13.5.8zM555 90.6c0-5 5.5-6.1 9-1.7 2.1 2.5 3.4 1.7 2.5-1.4-1.2-3.8-10.6-6.5-13.3-3.8-1.8 1.8-1.6 8.8.3 8.8.8 0 1.5-.9 1.5-2zm98.2 137.7c-.5-.7-1.2-4.5-1.6-8.5-.6-7.2-.6-7.4 1.6-7 1.9.2 2.3 1 2.3 3.8.1 6.2.4 7 2.9 7.6 2.5.6 4 2.9 3 4.5-.8 1.3-7 1-8.2-.4zm74.2-1.8c-4-4.4-1-13 4.5-13 4.2 0 7 2.7 7 6.5 0 7-7.2 11.2-11.5 6.5zm5.4-4.6c-.4-3.4-2.8-4.4-2.8-1 0 2.5.7 3.7 2.2 3.7.5 0 .8-1.2.6-2.7zm-88.8 3.2c-2.7-2.9-4.3-3.1-6-1-1.7 2-3 1-3-2.3 0-2.8 4.3-10.2 5.9-10.2 2.2 0 5.3 4 6 7.5l1.6 6.2c1 3.1-1.5 3-4.5-.2zm23.2 1.7c-2.3-.2-3.2-.8-3.2-2.1l-.6-6.3c-.5-3.4-.3-4.8 1-6.1 2-2.1 4.6-2.2 7.1-.3 2.1 1.6 2.2 1.5-3.4 3.2-1 .3-.7 1 1 2.4l2.4 2-2.3.6c-3 .8-2.8 2.2.3 3.4 2.4.9 3.3 2.5 1.7 3.2-.4.2-2.2.2-4 0zm11-.4c-2.2-2.2-1.5-4 1.3-3.2 3.3.8 3.1 0-.7-3.5-3.2-2.8-3.2-2.9-1.5-5.6 2.1-3.1 4.2-2.8 4 .6-.1 1.7.6 2.8 2 3.4 2.5 1.1 3.5 5.8 1.6 8-1.4 1.8-5 2-6.7.3zm34.6.4c-.5-3.2-.3-11 .3-11.8.8-1 7.5-1.2 8.3-.3.1.2.6 3 .9 6.3l.6 5.8-3.5-.5c-1.9-.3-3.7-.2-4 .3-.7 1.2-2.4 1.3-2.6.2zm-94.7-2.5a9 9 0 0 1-2.1-4.3c0-3 6.2-8.7 9.1-8.3 3.7.6 3.1 4-.9 5-5 1.4-3.8 5.3 1.8 6 1.4.2 2.6 1.2 2.8 2.1.5 3-7.8 2.5-10.7-.5zm88.4.3c-.4-.6-1.9-1-3.4-.8-2.4.3-2.6 0-2.3-2.7.9-10 5.7-11.4 7.5-2 .3 1.6.8 3.8 1.2 4.7.8 2-2 2.6-3 .8zm-13.5-4c0-3-.6-4.3-2-5.3-3.5-2.1-2-4.7 3-4.7 3.5 0 4.4 2.5 2.8 8.2-1.8 6.5-3.8 7.5-3.8 1.9zm-156.6-82c-3.5-1.4-3.5-3.6.1-7.4 5.8-6.2 11.8-4.3 7.8 2.5-2.4 4.1-5.3 5.9-8 4.8zm4.4-5.6c.4-1.6.2-1.7-1.2-.6-2 1.6-2.2 3.5-.4 2.9.7-.2 1.4-1.3 1.6-2.3zm18.7 1.7c-1-1.8 1.6-7.2 3.6-7.2s2.6 3.1 1.3 6.5c-.7 1.6-4 2.1-4.9.7zm3.7-15.4c-2.1-2-1.2-7.8 1.3-7.8 2.6 0 3.8 2.8 2.5 6-1.4 3.3-2 3.6-3.8 1.8zM561 106c-1.5-1.7-.7-4.5 1.2-4.5 2 0 3.8 2.1 3.8 4.2 0 2.2-3.3 2.4-5 .3zm-28-24.8c-4.5-1-5.5-1.6-5.5-3.2 0-1.7.7-2 5-2.3 4.2-.2 5.6.1 7.9 2.2 2.8 2.4 2.8 2.4.8 3.5l-2.4 1-5.8-1.2zM510.2 73c-3.2-1.4-4.4-4.7-2.2-6 1.8-1.1 8 .5 10.1 2.6 1.6 1.6 1.8 2.3.8 3.5-1.5 1.8-4.5 1.7-8.7 0zm53-10c-2.6-1.9-2.8-4.8-.7-9.8 1.7-4.3 2.8-5 6-4.3 5.6 1.4 7.3 7.5 3.2 12-3 3.2-5.8 4-8.5 2zm6.2-3.7c1.1-1.6 1.2-2.5.4-3.5-2.3-2.8-4.8-.8-4.8 3.8 0 2.6 2.5 2.4 4.4-.3zM546.8 63c-.3-.3-.3-2.7 0-5.4.4-4.6.3-4.9-2.5-5.6-3.4-.8-5.5-2.4-4.8-3.6.5-.8 16.2-.3 19.2.6 2 .7.2 3.5-2.2 3.5-2.9 0-3.8 1-2.4 2.7.9 1 .8 1.8-.3 3a12 12 0 0 0-2.1 3.5c-.6 1.7-3.7 2.5-5 1.3zm32.2-6.5c0-6.8 0-7.1 2.7-8 1.9-.8 3.4-.8 5.1 0 2 .9 2.3 1.6 1.9 4.5-.4 2.5 0 4 1.3 5.9a11 11 0 0 1 2 3c0 1-4.9.7-5.5-.4-1-1.5-4.2-1.2-4.9.5-1.4 3.7-2.6 1-2.6-5.5zm6-3c0-.6-.5-1-1-1s-.9.4-.5 1c.3.5.8 1 1 1s.5-.5.5-1zm-85.7 6.4c-1.5-2.3-1.5-3-.3-5.2 3.7-6.4 8.4-5 7.3 2.2-1 6.2-4 7.5-7 3zm99.3-2.2c-.3-.5-.8-3.2-1.2-6-.7-5-.6-5.2 1.7-5.2 1.4 0 3.5 1.2 5.2 3.2L607 53l-.3-5c-.3-4 0-5 1.2-5 1.6 0 4.3 10.7 3.4 13.7-.7 2.2-4.7 2.4-6.4.3-.7-.8-1.7-1.5-2.2-1.5-.4 0-.8.7-.8 1.5 0 1.6-2.5 2-3.4.7zm20.2-3.5c-.9-.6-1.8-3.3-2.2-5.8-.6-5.1 1.2-8 5-8 3 0 6.4 4.2 6.4 7.8 0 4.7-6 8.6-9.2 6zM625 50c0-2.1-1.9-5.4-3-5.4-.6 0-1 1.6-1 3.5 0 2.8.4 3.5 2 3.5 1.1 0 2-.7 2-1.6zm11.2.4a33 33 0 0 1-4.7-12c.9-1.3 2.6-1 4.6.8 1.7 1.5 1.9 1.5 3-1 .7-1.4 2-2.6 3-2.6 2.3 0 2.4 1.7.3 4-.9 1-1.9 4-2.2 6.6-.8 4.9-2.2 6.4-4 4.2zm13.2-4.3c-2.1-3.2-1.5-10.7 1.1-13.6 2.7-3 6.8-2.5 9.9 1.2 5.2 6.2 2 14.9-5.5 14.9-3 0-4.2-.5-5.5-2.5zm8.8-3.8c1.7-5-3.4-8.1-5.3-3.1-1.1 3 .4 6.7 2.8 6.2.9-.2 2-1.6 2.5-3.1zm-158 1.6c-1.7-.7-1.5-6.4.3-9 1.6-2.4 4.9-3 6-1.3.9 1.5-.6 7.9-2.2 9.5-1.5 1.6-2 1.7-4 .8zm2.5-17.6c-2.3-1.6-1.3-7.9 1.7-10.7 1.9-1.7 2.5-1.8 4-.7s1.6 1.8.5 6.2c-1.6 6.3-3 7.6-6.2 5.2zM505.5 8c-2-2-2-7 0-7.8 1.8-.7 6 1.8 6.9 4 .5 1.4-2.6 5.4-4.4 5.4-.5 0-1.6-.7-2.5-1.6z"/>
</svg>
