<?xml version="1.0" encoding="utf-8"?>
<svg xmlns="http://www.w3.org/2000/svg" version="1.1" viewBox="0 0 1169 1134">
	<title>Sketch of a valley with a fence to the left, trees in the center, and rolling hills in the distance.</title>
	<path d="m635 1132 4-2c4 0 4 2 1 3-5 2-6 1-5-1zm112-5 4-3c1 1-4 6-6 6l2-3zm-99-1c0-1 9-11 12-12h3l-2 5-6 4c-4 4-7 5-7 3zm106-6c0-2 1-2 4-1v2c-2 2-4 1-4-1zm32-3c-2-4-1-8 2-8 1 0 2 1 2 3 2 6-1 9-4 5zm-26 0v-4l3-6 4-7c5-4 8-10 9-14s9-15 12-16c5-2 8-9 8-17l1-5 1-2 3-4c8-9 9-10 10-17 0-6 1-8 3-6 1 1-1 15-2 18l-6 7c-4 4-5 5-6 12l-2 9c-2 4-8 10-10 10-3 0-11 12-11 16l-7 14-3 6-3 4c-2 2-3 3-4 2zm78 0c-1-2 2-10 6-16 3-3 3-5 3-10 0-7 3-16 6-16 2 0 3 4 1 5s-4 8-3 12c0 3 0 5-4 11l-5 11c-1 4-3 5-4 3zm-326-8c-2-1-1-2 3-2l3 1c-1 2-5 2-6 1zm152 0v-5l1-1c0-2 4-4 9-4 4 0 5 0 11-6l8-8c2-2 2-2 3-1 2 1 2 1 0 4l-5 5-4 3c-1 4-3 5-11 6-7 1-8 2-9 5-2 3-2 3-3 2zm-142-3 2-2c2 0 2 3 0 4-2 0-2 0-2-2zm5-3c0-3 5-8 6-6l-2 5-1 1-1 2-2-2zm10-8 3-5c2-2 3-2 6-2h6c2-2 4-1 3 1l-6 2c-3 1-7 2-8 4-4 3-5 3-4 0zm20-8c2-2 9-4 10-3 2 2 0 3-6 4-5 0-5 0-4-1zm376-3v-17c2-1 4 1 4 6 1 7 0 11-2 11h-2zm-507-2a1241 1241 0 0 0 29-4l-5 3c-8 2-22 2-24 1zm63 0a1810 1810 0 0 0 18-4c0 2-15 5-18 4zm83 0 2-2 3-5c1-3 2-3 5-3l3 1h3l7-1 7-2 3-2 3-2c3-2 5-3 6-1l-4 6-5 2-8 2-8 2c-2 1-4 2-5 1l-6 2c-3 3-6 4-6 2zm12-6-1-1v1l1 1v-1zm118 3 7-13 4-6c0-3 6-9 10-11 3-1 4-3 5-5l6-9c10-12 9-11 14-20l3-4 1-1 1-3 3-7c1-9 3-8 2 1 0 6 0 8-2 10l-3 3-1 2-4 5-3 6-4 5-5 6-5 7c-1 3-3 6-5 7-5 4-9 7-9 9l-10 16c-2 2-5 3-5 2zm-192-4c0-1 4-3 7-3s3 2 0 2l-5 2-2-1zm344-2-1-4c-1-5 1-11 7-17 4-5 5-10 2-12-2-3-4-9-4-13l-1-2v-5l2-2c2 0 2 1 2 6l3 10c2 2 3 5 3 10v7l-4 5c-4 5-6 9-6 15 0 3-2 4-3 2zm-332-2 9-1-8 2c-2 0-2 0-1-1zm-26-3 8-4c2 0 1 2-3 3l-5 1zm37 0 2-1 2 1-2 1-2-1zm459 0-1-3-1-2-3-10c0-3-1-5-3-6-4-2-6-5-7-11 0-4 0-6-2-7-1 0-3-2-4-5l-5-7c-3-2-4-3-4-5s-1-3-4-5c-7-5-10-7-12-6l-2-1-5-2-7-5c-2-3-3-4-6-5-4 0-10-4-10-5l2-1 5 1 5 3 5 3 4 3c2 3 4 3 9 4 5 0 7 1 9 3 1 2 4 3 5 3 2 1 7 8 7 10l2 2c2 1 6 7 6 9l2 3c2 1 3 3 3 5 0 8 2 12 6 11 1 0 3 2 5 7l4 19h-3zm-453-1 6-4-2 3c-3 2-4 2-4 1zm-26-4c-3 0-2-2 1-2l7-2 4-1c0 2-3 4-6 4l-2 1h-4zm104 0 1-3 8-8 7-6 4-2 5-2 5-4c5-5 17-13 19-11 2 1-2 4-7 6l-7 6-8 5-6 3-5 3-3 3-11 10h-2zm-71-1c0-1 3-3 5-3 4 0 4 2 1 2l-4 1h-2zm388-5-1-3-1-3c-1 0-2-2-1-6l-1-6c-1 0-2-1-2-3 0-6-3-14-6-18-4-4-7-9-7-13l-1-5c-1-2-1-2 1-2s2 1 4 5c1 5 3 9 6 12 4 4 7 12 7 20l3 13 2 9c0 3-2 2-3 0zm-402-2 2-2h1l-1 2h-2zm6-3 1-2 1 1-1 2-1-1zm-197-2c-5-1-5-3 1-3a276 276 0 0 0 51-5c0 2-10 5-21 6a279 279 0 0 0-26 3l-5-1zm201 0c-2-1-1-2 3-3l6-3 6-1 9-2c3-2 5-2 8-1 5 1 6 0 15-7l9-7 8-8c0-3 2-6 5-8l2-4 3-4 4-5 3-2c1 0 7-5 7-7l4-3 4-3h-6l-4 1-5 1-12 5-3 2-5 3-6 3-2 2-3 2-3 2-5 3-5 3c-1-1-2 0-3 2l-3 1c-1-1 2-5 5-5l2-1c1 0 2-3 5-4l7-5 2-2 4-2a109 109 0 0 1 27-13l4-1 3-1 5-1 5-1 9-2 12-3a138 138 0 0 0 29-6c7-2 8-3 11-7 4-5 6-11 4-13l-2-9a136 136 0 0 0-1-10c0-2 1-3 2-3 2 0 2 0 2 4-1 2-1 5 1 8 3 8 3 17-2 24-2 3-2 3 0 3 4 0 9-2 12-5 7-5 10-17 7-21-2-2-2-4 0-6l2-4c0-3 0-3 4-3l13 1 6 2 3 1-3 2c-2 2-2 2-7 0-7-2-11-2-13 0l-1 12-1 11-5 5c-7 7-7 7-15 8l-7 1c-2 1-20 6-37 8l-11 3-8 2c-2 0-3 1-4 3l-5 4-7 6-5 4-2 2-5 7-6 7-2 3-1 2c0 3-8 12-11 12l-7 7c-7 7-6 7-22 9l-17 3c-7 3-9 3-10 2zm163-1 2-2c3 0 2 2 0 3l-2-1zm-300-11v-2c1-2 14-3 19-2 4 2 2 3-2 3h-4l-2 1v-1h-3c-6 2-7 2-8 1zm26-4c0-1 8-2 11-1 2 0 2 0 1 1h-12zm18 0v-1l1 1v1l-1-1zm4 0c-1-1 2-4 4-4l1-1 8-2 13-2h14c0 1-1 2-3 2l-8 1-9 1-13 3-7 2zm-144-5c-5-1-3-2 3-3 7-1 8-1 8 1 0 1-8 3-11 2zm13-3 2-1 1 1-1 1-2-1zm346 0c0-1 4-5 5-4 1 0 13-11 13-13 1-2 7-5 19-8l9-6a131 131 0 0 0 26-37c3-3 5-4 5-1l-1 2-10 15-9 14-2 3c1 0 7-5 13-12l12-11c2 0 1 3-2 6l-7 8c-7 7-13 12-16 12l-8 4-7 4-2 1-4 2-6 2-3 1c-2 0-6 3-6 6-1 3-12 12-14 11l-2 1h-3zm-434-2-4-1c-3 0-4-1-4-2h10c4 1 7-1 7-3l4-1h6c1-1 3 0 4 1l10 1 7 1-7 1-8 3h-25zm21-4v-1c-1-1-4 0-3 1h3zm242 4c-1-1 1-2 5-2h5c1-1 4 0 4 1l-3 1-7 1-4-1zm15-3c1-2 6-3 16-4l11-1 5-1c1 2-2 3-12 5l-20 1zm-174-1c0-1-6-3-7-2s-2 0-1-2c0-2 0-2-1-1-3 1-9 0-9-2l3-2 4-2h1v2l3 2c3 2 9 2 26 1l7 1c0 2-3 4-5 2-1-1-2-1-2 1l-4 1h-8c-1 2-7 3-7 1zm-103-2-4-1-6-1c-4 0-5 0-5-2h12l7 2 2 1c0 2-2 2-6 1zm25-2c0-1 6-2 9-1l-1 1h-8zm42-1h-6c-5 0-7-2-4-4h18c10 1 12 2 3 3a149 149 0 0 0-11 1zm95-4c-1-1 2-2 18-2h15l-1 1a353 353 0 0 0-32 1zm435-6c0-4 0-5 2-5l1 5-1 6c-2 0-2-1-2-6zm-503 4c0-1 1-2 6-2h4l-2 2h-8zm102-1c0-2 6-5 7-3 2 1 0 3-4 4l-3-1zm114-1 6-3 5-3h3c2 1 1 3-1 3l-2 2-2 1-6 1c-4 0-4 0-3-1zm-105-2 10-1h16c4-1 4-1 3 1l-15 1-14-1zm37-1c0-2 18-4 20-2l-1 1-19 1zm-100-4v-3l1-1c0-2-5-4-8-2l-7-1h-5l-20 2-6 1h-16l16-3 22-2c2-1 7-2 9-1h7c5-1 5-1 8 1 2 2 3 3 3 5 0 3-2 5-4 4zm387-1c-1-1 0-3 1-3 3 0 8-5 14-12 8-12 10-16 10-23l-1-6-1-2-2-4c-2-2-2-4 0-4 4 0 8 9 8 19 0 5 0 7-4 12-5 8-15 19-16 19l-3 2c-2 2-6 3-6 2zm68-2-2-5-1-3-2 1c0 3-3 8-4 7-1 0-1-4 1-9 2-3 2-5 1-6l-1-3-2-3c-1-1-5-11-5-14 0-2 3-6 4-6l4-1 4-1 1 5v3l1 15 1 12 2 10-2-2zm-4-33-1-4h-4c-2 1-2 6 0 10 5 9 5 9 5 2v-8zm-443 32-3-1 15-1 19-1h6c2 1 4 1 22-1 14-2 32-3 30-1l-17 2-20 2h-15l-9 1h-28zm603-1-1-3-1-2c0-3-2-6-5-7-2-2-3-5-1-5l6 4c4 3 4 3 4 8l-1 6-1-1zm-720 0-7-1-32-1-33-2c-5-3-5-5 0-5h7c1-1 4 0 5 1l14 1 29 3h52c0 2-5 3-16 3l-14 1h-5zm36-4 5-1h5l-6 1h-4zm452-5c0-5 1-6 2-2 1 3 1 6-1 7l-1-5zm-440 3 2-1 1 1-1 1-2-1zm-36-3c-1-1 3-2 4-1v1h-4zm132-3 23-4c4 2 2 3-4 3-11 2-19 2-19 1zm32-1c-2-2 4-3 20-4 11-1 15 0 14 2l-15 1a180 180 0 0 0-19 1zm-120-1c-4 0-4-2 0-2 7 1 10 0 10-2 1-2 2-2 5-2h10c9-1 7 1-3 2l-9 2c-2 2-7 3-13 2zm575-1-3-1c-2 0-3-1-13-10-13-12-19-17-21-17l-5-3-4-2c-2 0-6-5-5-6s9 1 9 2l3 1c6 0 12 2 15 6l5 3c2 0 9 4 10 6s4 4 7 5c7 4 12 8 12 10 1 4-3 3-5 0-1-2-4-5-9-7l-9-6-4-3-6-3-6-3 13 11 7 6 7 6c6 5 8 7 4 7l-2-2zm-30-29-7-3c-2 2-1 3 2 3l4 1 1-1zm-584 28c0-2 2-2 3 0 1 1 1 1-1 1l-2-1zm6 0 1-1 1 1-2 1v-1zm22 0h-10l-8-2c0-1 19 0 22 2l3 1h-4l-3-1zm195-2c0-1 3-2 14-3l11-1 12-1 18-2c7 0 9 0 7 3 0 2-2 2-8 2l-19 1c-20 2-35 2-35 1zm-111-3-29-1-10-1c0-2 2-2 9-2h12l22 1 20 1-1 1-23 1zm-119-2-5-1c-5 0-6-1-3-3 3-1 9-1 9 1h6l13-1h9l20 3c5 2 3 2-8 1-17-2-25-2-28-1-4 2-13 3-13 1zm-17-8-7-4h-23c-3 1-11 0-19-1l-23-6v-3l9-1 10 2c5 3 12 4 32 4 10 1 11 1 12-1s4-3 6-1l13 1 12 2c2 2 0 3-9 3-12-1-13 0-9 3l3 4c-1 2-2 1-7-2zm302 1 1-1 1 1-1 1-1-1zm-261-7c-7-1-9-1-7-3l26 1v1c-1 1-12 2-19 1zm27 0c-6 0-8-1-5-2s3-3-1-3l-20-4c0-1 7-2 9-1l7 2 5 1 4 1c9 0 22 3 22 5v1h-21zm32 0c-7-1-9-1-7-3h3c3 2 3 2 3 0 1-2 1-2 11-2h36l87-1c13 0 29 0 54-2l33-1a457 457 0 0 0 88-7c4 0 11-4 11-6l1-3 1-2c0-2-1-2-3 0l-4 2-1 1c0 2-13 6-17 5-2-1 2-5 6-5l9-3 5-2-1-4-1-7c-2-4-1-7 2-9l3-4c0-1 8-3 9-2 2 1 0 3-2 3l-3 1-3 2-1 1-1 3c-2 2-2 2-1 6l1 3 2-2c2-6 10-12 18-15l2-1c-4 0-4-2 0-3h7c4 1 5 3 1 4l-4 2-5 1c-3 0-13 8-15 12-1 3-1 3 1 6 3 4 4 6 2 7-2 0-2 1-1 3 0 3 0 3-4 6-7 4-25 7-44 7l-13 1-17 1a2267 2267 0 0 0-51 2 1288 1288 0 0 0-54 2 1253 1253 0 0 0-143 3zm320-34c-1-1-2 1-1 2h1v-2zm240 28-5-3-5-2c-3-2-6-3-15-4l-3-3 6-1c6 0 12 2 12 3l6 3c7 3 13 7 12 9-1 3-3 2-8-2zm-441-3c-1-2 1-3 10-3l9 1c2 2 1 3-2 3h-10l-7-1zm-22 0h-12l-7-1 1-1c2-2 35-2 36-1l-1 2c-1 1-12 2-17 1zm363-5c-5-4-6-7-3-7 2 0 12 9 12 10 0 3-3 2-9-3zm-647 2-13-2c-7 0-12-1-22-5-3-1 0-2 4-1l14 2c12 1 29 5 29 6-1 2-7 2-12 0zm382 1c0-2 1-3 2-2l-1 3-1-1zm-196-2c-2-1 0-1 11-2 12-1 17 0 15 2h-26zm524-2c-2-3-2-7 0-8 3 0 4 2 5 6 0 5-3 6-5 2zm-613 1c-2 0-3-2-1-3 1-1 9 0 9 2 0 1-4 2-8 1zm277-5c0-2 3-3 10-3 7-1 9-1 9 2 0 1-3 2-12 2-5 1-7 0-7-1zm-236 0c-7-1-9-1-9-3l11-1c9 1 19 0 27-1l11 1h9c9-2 33-1 34 1l-19 1-14 1c-6 2-9 2-14 1l-12-1c-14 2-18 2-24 1zm-38-2c-6-3-6-4 0-4 6 1 9 3 9 4-1 2-4 2-9 0zm-33-2c-1-3-1-3-5 0-6 3-11 2-6-2 2-2 1-3-2-3l-3-1 2-4c2-3 3-3 6-2l3 3 3 2c2 0 8 5 8 7s-2 3-4 3l-2-3zm158 1 5-2c6-2 23-1 24 0l1 1a173 173 0 0 1-30 1zm171 0c-1-2 0-2 19-2a312 312 0 0 0 25-1v2a374 374 0 0 1-44 1zm47 0 1-1c1-1 9 0 9 1h-10zm-177-1c-6-2-2-3 10-3s15 1 5 2a901 901 0 0 0-15 1zm31 0c-12 0-10-3 4-3 9-1 23 0 24 2l-1 1h-27zm317 0v-3c3 0 5 1 5 2-1 2-3 2-5 1zm54-5c-3-5-3-5-1-5s8 6 8 7c0 2-2 4-3 4l-4-6zm-319 4-13-1-15-1c-1-2 2-3 6-3 12 0 22 1 23 2h12c10 1 12 1 11 3h-24zm115-1c-8-1-7-2 2-3 8 0 10-1 17-8 5-5 7-6 7-4 0 4-12 14-17 15h-9zm-430-1-19-2c-12 0-17 0-19-2l-4-1c-3 0-6-3-4-4 3-1 10 0 9 2l9 1 12 1h8c4-2 4-2 7 0h9l5 1-3 3-4 1h-6zm615-2c-2-3-2-3-1-4 2 0 6 3 6 5s-2 1-5-1zm-543-1-7-2-4-2-2-2 6-1 13 2c5 2 6 3 6 5s0 2-3 2l-9-2zm22 1-8-3c1-2 12-1 16 0 3 1 3 3-1 3h-7zm133 0c0-1 4-6 6-6l2-1 21-1c14-1 18 0 16 2l-15 1c-16 0-18 0-22 3-3 2-7 3-8 2zm-48-2c-2 0-3-1-3-2s2-2 18-2c19 0 23 1 24 3 0 2 0 2-3 1a161 161 0 0 0-36 0zm423-1-1-2-5-8v-3l4 3 7 6 3 4h-8zm-270-1 2-1 1 1-2 1-1-1zm254-2-3-3-2 2c-3 3-8 3-9 0-1-2-2-2-4-2-3 0-4 0-4-2-1-2-1-2-2-1-2 1-3 0-3-3l-1-3c-2-1 0-8 3-10 1-2 2 0 1 5 0 5 1 9 4 9l1-5v-4c3 0 4 2 4 6-1 2 0 3 1 3l1 2 2 2 3 2 1-2c1-4 8-2 12 3s-1 5-5 1zm-588-1c-4-2-2-3 10-5l12 3-8 2h-14zm339-1c-6-2-9-2-14-1-6 1-13 2-14 0l-8-1c-7-1-9-3-7-5 2-1 8 0 19 2 5 2 9 1 11-1h6l4 1 9 2c6 1 16 2 19 1 2-1 2-1 2 1s-1 2-4 2h-11l-12-1zm-367 0c-5-2-8-3-6-4 1-1 19 1 19 3s-5 3-13 1zm192 0c-4 0-4-4 0-3l14 1c0 3-4 3-14 2zm250 0c-1-3 1-4 6-3 3 1 6 0 12-1a102 102 0 0 0 24-10c3-2 7-4 9-3 2 0-1 4-3 4l-3 2-4 2-8 3-8 3-3 1-18 3-4-1zm134 0-1-6-2-6-2-2c0-2-1-2-4-2s-3 0-4-3l1-4c2-1 4-1 4 2l2 1 2 1c0 1 1 2 3 1 2 0 3-5 2-7v-3c2-2 3 0 3 3l2 6 2 3-3 3c-2 3-3 4-2 6 1 6 1 7-1 8l-2-1zm-456-1c-4-2-3-3 4-5l10-1c3 2 4 3 1 4l-4 2h-11zm22-1c-1-2-1-3 1-3s5 3 4 4c-1 2-5 1-5-1zm-79-1-2-3 7-1c8 1 10 2 9 4s-11 2-14 0zm161-1-1-2-1-1-4-3-6-7c-4-3-4-4-5-12l-2-10c-1-2-1-3 1-4 2-2 2-3 2-5s0-2 2-2c3 1 4 5 1 5-2 0-3 3-1 4l1 3 1 3c2 1 2-1 2-12l1-13c1-2 2-1 3 2 0 1 0 2 1 1l2-1c3 0 3 4 0 4-1 1-2 1-1 2l-1 3c-1 1-2 2-1 4 0 2 1 1 3-3 5-8 9-6 5 1-2 6-2 7 0 7l3-1 1-6c0-6 1-9 4-9 2 0 2 2 1 3l-1 7c1 6 1 6 2 1l3-4c1 1 1 5-1 9-1 3-2 3-4 2-3 0-3 0-3 3l-2 6-2 3h1l4-2 4-1 1-1 4-1 4-1 3-4 2-6 1-3 2-4 2-4c-1-3 1-12 2-13 1 0 2-3 2-8 0-8 2-15 3-15 2 0 1 16 0 19-2 2-2 7-1 15 1 7 1 13-1 13l-2-3-1-2-2 3-2 4-1 2v6h12c2 0 3-1 4-3l2-3 2-4c2-4 5-5 6-3l-6 15c-2 2-3 3-6 3h-11l-2 4c0 5-1 7-3 7l-1-4c-1-7-3-8-8-5l-8 2c-4-1-4-1-5 2l1 4c2 1 1 12-1 13h-4zm0-11v4c0 1 1 1 1-1l-1-3zm-4-3-2-3c-2-1-2-1-2 1l1 3 3-1zm-4-7-1-1c-2 0-2 1-1 2s2 1 2-1zm-2-7c-2-1-2 1-1 3v2l1-2v-3zm45-18h-1l1 2v-2zm269 46c-2-3 5-9 9-9s5 2 1 3c-3 1-4 3-4 4l-1 2-2 1-3-1zm-441-1c-3-2-2-3 1-3s4 0 4 2c1 2 0 2-1 2l-4-1zm314 0v-2a4822 4822 0 0 1 38-2c-1 2-13 4-28 4h-10zm147 0c0-2 7-6 9-6 3 1 2 3-1 4l-4 2h-4zm-392-2-6-1-10-1-9-1-7-1 2-2c2-1 2-2 2-5l1-4 4-2c3-2 3-2 2-4-1-3-1-6 1-6l1 2 1 6-1 5c-2-1-5 1-5 3v3c-1 2 10 4 19 4 6 0 7 0 8-3v-9l-1-2c0-2-5-7-7-7l-2-1c0-1 1-2 3-1l2-1-1-1v-8l1-5c1-2 6-3 7-1 0 2 3 2 7 0h4v7l2 2 1-3 3-4 5-4c3-2 4-3 6-2s2 2 1 4c-1 7-4 15-5 16l-2 3-1 2-1 3-4 7-6 8c-3 4-7 6-11 6-3 0-4 0-4-2zm11-7 2-4 1-3v-5c-1-2 1-3 1-3l1-3c0-3 0-3-2-2-2 2-2 2-3 1-2-1-2-1-2 4l-2 10-2 8c0 2 0 2 2 1l4-4zm-7-20-2-6-2-2c-2-1-1 3 3 11 2 5 2 5 3 3 1-1 0-3-2-6zm23-6 1-6c-2 0-3 1-3 6-1 7 0 6 2 0zm-15 0-1-2-1 2 1 3 1-3zm0-5-1-1-1 2v1l2-2zm112 38c-1-1 0-4 2-7l2-8 2-2 6-6-3-1c-2 0-3-1-3-2l-1 1c0 2-2 4-4 5-4 3-5 2-3-3 2-3 2-5 2-15l2-13c3-2 3-1 3 7v9l1-1 2-1c2 0 1 3-1 6s0 5 3 2a617 617 0 0 1 14-15l1 4c0 5 1 5 4 3 4-1 4-1 4 1-1 3 1 7 3 5h3c1 2 3 1 3-1 0-3-4-7-6-7l-2-4c0-2 4-1 7 1 3 3 7 8 7 11l-2 3c-2 2-2 2-4 1l-4-1-3 1c-1 0-3 1-3 3-1 2-1 3 1 6 3 5 3 6 0 6-2 0-6-3-6-5s-2-1-2 1l-2 2c-2 0-2 0 0-5 2-4 2-7-1-5-4 1-5 9-3 11 3 2 1 5-1 5s-3-1-3-4c0-6-2-6-2 0-1 4-2 5-3 5l-1-3c1-4 0-5-2-4l-4 12c-1 3-3 4-3 2zm20-27c5-3 5-5 1-5l-5 4c-2 5-1 5 4 1zm-217 26c0-2 0-2-2-2l-2-2c0-2 7-2 7 0 1 2 0 3-3 4-1 1-1 1 0 0zm29-2c-1-2-2-2-4-2h-5l-2-1c-1 1-4-1-4-2l-2-4c-3-2-3-3-2-5l1-4c3-4-3-5-23-5h-18l-1 3c-1 1-2 3-1 4h1c1-2 5-3 5-1 1 0 0 2-2 3-3 3-8 5-11 3h-3c-2 2-4-1-4-4 1-3 0-2-3 3-3 4-3 4-7 4l-7-1c-3 0-3 0-3-4 1-4 1-4-2-4-5-2-10-7-10-11 0-2 3-3 4-1l13 1h13v-11l-8 1h-12c-4 0-7-1-6-3 1-1 2-2 5-2l6-3c2-3 5-4 7-2l-1 2c-2 1-1 2 2 2l3 1c2 1 5 0 8-2 1-1 9-2 11-1l-1 7c-2 6-2 11-1 11l1-3 2-3 1-4 2-5 2-2c-1-2 2-3 9-4 14 0 18-1 19-3 2-3 2-3-3-2a628 628 0 0 1-21 3h-51c-5-2-11-1-12 0l2 5c4 4 4 6-2 7-4 0-6-1-4-4v-3c-1-2-6-3-8-1-1 1-6 0-8-3l-1-2c-1 0-2 4-1 5l-1 2c-2 1-2 9-1 11l7 1 6 1c1 1-1 2-3 3l-7 4-6 3c-5 0-5 0-8-4l-4-4c0-2 4-1 6 1s8 3 9 2c0-1-1-3-4-5s-3-3-3-6v-3l-1 3-1 3-10 2-11-1-3-2-3-2-11-1c-9-1-14-2-12-4h10l6 2 8 1h3c2-1 5 0 6 2s1 2 0 0l-1-7 1-4c2 0 3-3 2-8l1-3c2-2 5 2 6 8 0 5 3 5 4 1 1-7 6-8 6-2 0 5 1 7 3 3l1-3c0-2 6-6 9-6l1-2c0-2-3-3-5-1l-4 1c-6-1-6-2-5-4s2-2 11-2l11 1c2 1 17 2 19 1l1-6v-4h4c3 0 4 0 4-2l-1-1-1-2 1-1 1-9c-2-20-2-18 1-18 2 1 3 0 7-3 3-3 6-5 7-4l2-5 1-8c1-4-6-1-12 4-4 5-5 6-5 9l-1 4c-1 0-2-4-1-13l-1-8-2 1-2 1c-2 0-2 1-1 6 1 3 2 9 2 21 0 25 0 25-2 25s-2-2-2-27l-1-19c-1-4-2-5-3-5-2 0-2 0-1 1l2 4v3l-4-5 1 4a277 277 0 0 1 0 43l-1 3-11 1-12 1c-2 2-3 1-3-4l1-7v-11a1377 1377 0 0 1 2-42l12 3h10v-2l-1-6c0-3 0-3-4-3h-4l-8-1h-9c-3-1-5-4-5-7 1-1 0-2-1-3l-1-5-1-5-1-10-1-10-1-2v-2l-2-11c0-2-5-4-6-2v12c1 2 1 2-1 2l-2-3v-13c0-2 0-3 2-4 4 0 6 0 7 4a600 600 0 0 0 4 16l1 1 2 6c0 3 2 4 11 6 12 1 19 5 20 9l2 9c0 8 3 21 5 23h17l9 2c2 0 4 1 6 4l3 3v12a878 878 0 0 1 1 20l2 1v14c-1 3-1 4 5 4 4 0 5-1 5-3l-1-4c-2-2-4-10-4-15l-2-5c-2-1-3-7-2-14 1-6 0-10-2-14v-3c3-1 2-2-1-1-3 0-3 0-3-2l2-3 2-1c1-1 7 0 7 1l1 1v-3c0-1-1-2-3-1-2 0-3-1-3-10 1-5 0-8-1-10l-1-4-1-3v-1l3-3c0-3 2-6 3-5l1-2c0-1-2-1-2 1l-3 1c-2-1-5 2-5 4l2 5v2c-2 0-2 0 0 4l2 8 1 8c0 3 0 3-2 2h-25c-2 0 0 3 4 4l5 1 7 1 5 3c0 2-1 2-8 0l-12-2c-6-1-11-3-11-5l3-1c3 0 3 0 3-5v-21c0-10 0-12-2-14l-2-4v37l-1 1a198 198 0 0 1-3-37c-3-2-5-1-4 3l-6 1c-5 0-7 0-7-2l-5-1-5-1-3-1c-1-1 0-1 3-1s4 0 3-1c0-1 2-3 8-5l11-5c4-2 8-3 8-1l-8 5-9 5h-3c-3 0-4 1-1 2 1 1 3 0 6-2 6-2 12-3 14 0 2 1 2 1 6-3 3-3 4-4 5-3h1l1 1-1 2c-1-1-5 2-4 3h-1c-2 0-3 1-1 5 2 2 3 2 5-2l3-2c2 0 3-2 1-2l-6-26c-1-6-1-7 1-11 2-3 1-5-1-4-1 1-15-3-20-5l-4-3c-1-1-4-3-7-3l-9-5-5-4-5-6c-3-4-3-4-8-4l-8 4c-2 3-5 4-8 5l-7 2c-5 3-13 6-18 6l-4 2c-3 2-7 4-7 2 0-1 8-7 10-7l3-1 2-1c3 1 8-2 8-3s2-2 7-3l9-3c3-6 15-8 21-4l3 1 6-1c6-1 13 1 19 4l12 1 9 1 3 1c2 0 2 0 1-4v-11l-1-8-2 1c-3 2-28 3-38 2s-9-2 3-3a120 120 0 0 0 35-3h3v-5c-1-5 1-9 4-9 2 0 5-2 3-3-2-2-4-10-2-12v-4c-2-4-1-7 2-8 3 0 3 0 3 5l1 4h2c3 0 3-4 2-6-1-1-2-4-2-10-1-6-1-8-3-10-2-3-3-7-1-11v-4l-2-11c-1-10 0-11 4-10 2 1 6 11 6 15l1 4c2 2 1-6-1-10l-1-5v-1l-1-2-3-5c-3-4-4-6-1-8v-4l-1-11v-10l-1 4-2 2c-2 1-2 0-2-4-1-5 0-10 3-13 1-2 1-2-1-4-3-2-3-3-3-18l2-17c2-2 3-6 1-7v-1c2-3 2-12 1-15l-3-6c0-3 0-4 2-5 3-1 7-10 6-12v-8c1-4 2-8 1-9l1-2 1-24c0-29 1-34 3-34s2 1 1 7c0 6 0 7 2 10l2 7 2 7c2 5 2 6 1 11v6l3 13c0 10 1 12 3 12 1-1 2-3 1-9s0-24 1-24l2 2c0 3 2 2 2-1 0-2-1-2-3-2v-7c0-2 1-1 4 2l4 6c0 4 1 8 3 8l1-3c-1-3 3-4 4-1v25l-1 2h-1l1 1 1 2c-1 4-3 3-6-2-2-3-2-5-1-8l1-6c1-1 1-4-1-6l-2-5-2-5-1 6v8l-1 3v1l2 3 2 7c2 3 2 5 2 12l1 7c1-2 3 0 3 2 0 3 4 9 6 9 1 0 2 0 1-1l-6-13 1-3 2-4 2-6 3-7 2-3 1-17c0-12 0-15 2-15l1 2 2 4c2 2 4 13 1 16l-1 4c1 3 0 6-2 8-4 4-5 6-7 12-2 7-2 11-1 14 2 5 3 3 3-4 0-9 1-11 3-11 2-1 2 0 2 7l1 14-1 8-3 9-1 7-1 13-2 7-1 11 2 3c3 0 3 0 3 9 0 3 1 4 2 5 2 0 3-10 2-21l1-9c2-2 2-3-1-13l1-3c3 0 4-3 4-8-1-4-1-5 3-8 5-4 6-7 6-18 1-8 1-9-1-9-1 0-2-1-2-3-2-6-2-14-1-16v-19l2-5 1-6v-6c-2-4-5-7-4-4v4c-1 1-2 3-2 11 0 3-2 3-2-1s-1-7-2-6l-1 3c0 2 0 2 1 1h1c-1 2-3 2-3 0l-1-4v-2l1-4v-1c-2 2-3 2-3-2 0-3 0-3-1-1 0 4-3 2-3-2 0-6-3-5-3 1-1 9-4 9-5 1l-2-6-1-5c-2-11-4-17-5-18-1-2-2-11-1-12v-1h-3c-1 1-2 15-1 17l2 20 1 10 2 4c1 5-2 4-4-1l-4-28-2-8-2-5-2-6-2-6c-1-3-2-4-2-2v17c0 5 0 5 3 3 2-1 4-1 4 2l-1 2h-2l1 11 2 12c2 3 1 6 0 5-2 0-4-8-4-13l-2-2c-2 0-4-8-3-12l-2-6c-1-4-1-12 1-20v-7c-2-3-1-5 1-3v-7l1-3c-1-1 0-3 1-4l2-3c-2-2-3-27-1-39v-21c-1-9 0-11 3-9s4 0 3-5c-4-11-5-20-3-28 0-5 1-5 4-2 2 2 2 2 1-12l1-21 1-5c-1-4-1-5 1-7 4-4 6-3 5 4v4l1 4 1 2 3 13 2 8 2 8a428 428 0 0 0 3 6l1-5 2-3c1 0 3 9 3 15 0 5 1 7 2 8 2 2 4 14 4 26l1 8v12c2 1 4 7 4 11 0 5 4 19 5 21v15c1 1 2 3 1 4l4 6c6 7 6 8 7 17l1 13c2 4 2 6 2 14-1 9 0 12 2 9 1-2 2 0 1 2l2 7 2 11 3 11 2 10c0 5 1 9 4 15v14l1 7 2 8 3 6 2 6 2 8c0 9 1 10 3 8 3-3 3-1 2 7l1 14c0 4-1 11-3 14l1 2c3 3 3 11 0 17l-3 7-1 13c-1 9-1 10 1 12 4 3 6 12 6 20v12c-1 4-1 7 2 15v10c-1 3-2 4-4 4l-3 2c0 2 0 2 3 1 2 0 3 0 4 4 3 6 3 11 2 13s-2 4-1 7c0 4 0 5-2 6-3 1-5 3-5 5l-1 2-2 6c-2 7-3 9-5 5 0-2-2-3-2-3-2 0-2 0-1-4l3-3 1-3 2-4v-4c-2-1-2-1-3 2l-3 5-2 6-3 3c-2 2-2-2 0-6l7-12 1-5 2-5c2-2 3-8 2-10s-4-3-4-1v2l-2 7-4 12c-3 6-4 8-5 17-1 7-1 8-6 11l-3 3-3 4c-2 2-2 2-1 5s1 4-1 4c0-1-1-1 0 0l2 1 1 1c1 1 1 1 3-1 3-3 6-3 6 0l-2 7-2 7c1 2 0 9-2 10l-1 2-2 4-3 5-3 4c-2 2-3 4-1 4v2c0 2 0 2 2 1 3-1 3-2 3-4-1-3 0-5 3-5 2 1 5-1 5-4l2-5 4-6 2-4 8-15 2-11c1-8 2-9 3-7 2 3 3 2 3-2-1-5 0-8 2-8 2-1 2-1 2-6-1-5-1-6 1-6h2c2 2 3 1 3-3l3-6c2-2 2-2 3-1l-1 4-1 2v1l-2 6-2 4v10c2 6 1 10-3 12l-3 1 2 2c2 1 2 2 1 6v11c3 9 3 27 0 32l-3 3-1 5c0 2 0 6-2 9-2 4-4 6-10 7-4 1-3 3 1 4 7 0 4 2-4 3h-10c-2-2-5-1-4 0l1 2c1 0 2 1 1 2 0 2-1 3-3 3l-3 1h15l5 2c2 0 4 1 4 3 1 3 2 2 3-1 0-4 2-7 4-6s3 7 1 8l-1 5c1 6 0 8-3 8l-3 2-4 2-9 1h-5l5 1 7 1c2 1 2 2 1 4 0 4 3 10 5 9 2 0 6 4 6 8v3l1-3c1-3 2-3 4-2l3 1c1 2 5-1 6-3l1-2c1 1 4-2 4-4h-3c-2 0-2 0-2-6v-13c0-2-1-2-3-1l-2 2c1 2-1 11-2 12l-1 2c0 2-2 4-3 2-1-1-1-3 2-17 0-2 0-4-2-6-2-3-3-5-1-5 1 0 5-3 5-6 1-1 1-2-1-3v-3l2-7 4-7 3-4 2-6-1-3c-2-1-1-4 2-7l3-3v-14c0-15-1-20-2-12l-3 4c-2 0-2-4 0-7l2-7c1-7 2-9 4-7l3 13 2 13v6l-2 6-2 8c-3 6-3 6-1 8 2 1 2 9 1 16-1 4-4 7-7 7-2 0-2 1-2 3l-3 6c-2 4-2 4 0 6l2 1 3-3c-1-2 0-4 1-4 2 0 3 4 2 11l1 5 3-1-1-2c0-2 1-4 4-4 3-1 4-5 2-5h-3l-2-5-2-5 2-5 5-6 3-10a81 81 0 0 0 0-17l-1-5-1-6 1-6 2-6c3-5 2-9-1-8-2 0-3 3-1 3s0 7-1 9c-2 2-2 1-2-6l1-9 1-2-1-2c-2 0-4-5-2-7l1-7c0-6 4-12 7-10l1-3-1-5c-2-1-1-3 1-5 3-2 3-3 4-14l1-3v-13c-2-1-6 5-6 8 0 12-6 30-8 27v-5l3-10c0-5 0-5-2-5s-4-3-4-6l-1-3-1-4v-3l-2 8c-1 5 0 7 1 9 1 3 1 3 2 1s3-3 3-1l-1 4a72 72 0 0 0-5 14h-1v-5c1-1 0-7-2-10l-1-9 1-9-1-2-1 1c1 1-1 5-3 5-1 1-1 1-1-2l1-5 2-4v-3l6-10c2 0 2-4 0-9-1-4-1-4 1-7l2-15v-23l-1 1v2c-4 4-9 23-10 36l-1 9c-2 0-2-9-1-16a734 734 0 0 0 4-18l2-5 2-5 2-8c0-5 2-6 3-2l1 1 2-1 1-5c0-4 0-4-2-2-1 3-3 4-3 1 0-2 3-8 5-9 3-1 4 18 2 20l-2 6-1 10v9c1 5 1 5 1 2l3-3c2 0 1 2-1 7l-2 5-1 4-1 8-1 8c-1 2-1 2 1 1l5-9 2-7c2-3 3-9 4-14l2-11c0-2 2-3 2 0l-3 16c0 2 0 2 2 2l4-1c2-1 3-2 5-6l2-6-2-3c-3-3-3-5-2-10s1-5-1-10c-3-5-3-5-2-8l1-10 1-7c2 0 2 1 2 10v12c3 6 3 9 2 12v7l2 4 2-5 3-7 1-2v-9l1-6c1-4 1-4-1-3-2 2-2 2-3 1s-1-1 1-3l2-3h2c2 1 2 1 2-3l-1-6-2-6c0-4 0-4-2-3l-3-1v-25c-1-2-1-1-2 5-1 4-3 7-6 8s-3-1-1-4c2-2 2-3 2-9l2-14c3-11 4-22 3-27l-1-3-1 3-2 14c-1 10-2 14-4 11a78 78 0 0 1 6-32c1-2 1-3-1-4l-1-5v-5c-2 0-4-7-3-11v-14c1-9 1-10-1-7l-1 6-1 4v3l-2 8c-2 4-2 5-1 12v22l-1-3a6844 6844 0 0 0-5-44c-2-1-1-10 0-13h2l1 1 1-2 1-5c3-3 3-5 0-8-2-3-3-6-1-9 1-3 0-6-2-7-2 0-2-1-2-5 1-7-1-11-3-5l-1 2-1-2v-4l2-6c0-4 0-5-2-6-1-1-2 0-5 6s-4 10-5 20c-2 13-2 14 0 17 2 2 2 5 3 12l1 11c1 3 0 17-1 18l-1 17 2-3c1-6 8-4 10 3 2 4 4 13 3 16 0 4-2 1-4-6-1-7-2-10-4-13l-2-2-1 4c-2 4-2 15 0 29 1 10 1 13-1 19-1 7-1 9 1 10 3 3 3 4-1 9-3 4-3 5-2 8 0 2 0 4-2 5v3c2 0 2 7 1 8l-1 4c2 5-1 19-6 34-3 8-3 4-1-5 3-14 3-17 1-20s-3-17-1-19l2-4 2-3 1-5 1-4 1-2 2-3c2-2 2-2-1-5-3-4-5-7-6-19-1-10 0-20 2-23v-50c2-4 1-15-3-20-2-4-2-7-2-13-1-7-1-10-4-16s-3-7-2-14l-1-7c-3 0-6-4-7-9 0-3 0-4 2-5s2-1 2 1h1l1-3c0-1 0-2-2-1l-2-1c-1-2 0-26 1-30v-5c-2-1-2-3-2-7l-2-8c-3-3-3-5-3-10l1-2 1 3 6 12 2 7 2 4 2 1-1-6a205 205 0 0 1-1-13l-2-7-1-8-1-10a353 353 0 0 0 0-20l1-2c0-2 0-2 1 0v23c0 3 0 4 2 4s3 6 2 11v8l1 6 3 13 1 11-2-4-3-4-5 22c-1 5 0 7 2 5 1-3 2 1 1 11 0 10 0 12 2 13l1 8c0 7 0 7 1 6l2-3c0-2 3-4 4-3l-2 7v8l1 10c0 5 0 7 1 6l1-1c-1-1 1-19 2-22l4-12 2-6c1-1 1-2-1-2-2-1-3-2-4-5v-6l2-7 1 7c0 8 0 8 2 8l3 1h1l-3-4c-2-2-2-2-1-7l2-10c1-7 3-8 3-1l3 9c2 4 2 6 2 11-2 14-2 17 0 19l1 6 3 9c2 3 3 8 3 10l1 9v9c0 6 2 7 3 2l1-4 1-2c0-3 5-9 6-8v2c-4 2-5 11-5 31 0 13 0 15 2 18l2 6 1 6 2 12 1 11c1 2 1 3-1 4l-1 4v5c-2 2-2 5 0 5 1-1 1 0 1 1l2 8 1 12c0 5 0 7 2 8 4 5 6 28 3 34-2 4-3 12-2 13l2 7c2 5 2 6 1 11-1 4-2 27 0 29v10l1 11c5 5 5 9 2 21l-1 10-1 12c-1 7-2 9-3 10l-2 3h1c2-1 2 0 4 2l2 9 1 4 1-3 2-10 2-8v-11c0-8 0-10 2-12l4-3 4-1c4-2 3-3 3 21 0 12-1 17-2 17-1 1-2-3-1-15 0-13-1-15-2-15-3 0-5 4-4 10l-1 10-1 6c0 5-5 18-7 20-3 2-4 9-4 20l-1 13c-1 2-1 2 1 1 3 0 3 0 3 5s3 14 3 9l2-6 2-5 2-4 2-6 2-7 2-3 3-8c4-7 5-15 3-15-1 0-2 1-2 4-1 5-4 8-5 6l2-8 3-9 2-5 1-14a70 70 0 0 1 1-14v-9l-1-4c-2-1-3-1-3 1l-1 2c-3 0-2-4 0-10l2-8 3-3v-1l-1-2-1-3c-1-1-1-2 1-5l1-6v-3c1-1 0-8-1-8v-8h-1l-1 1v5c-2 5-3 21-2 23 2 2-2 14-4 14l-1-4 2-16a90 90 0 0 1 5-31l-1-2v-2c2-3 2-5 0-4-4 1-7 9-8 20 0 5-1 7-2 7-2 0-1-14 1-21l3-14 2-14 1-21 2-16c1 0 2 8 1 15v8c1 3 1 3 2-3l1-7c2-5 2-9 1-12v-4c2-1 1-5-1-5-2-1-3 1 0 2v2c-2 2-2 2-3 0v-3l-1-2-2-2c-1-3-1-3-1-1l-1 3-2 5c-1 4-2 5-3 2v-15c0-3 1-4 3-4s3-1 1-3l-1-11c-1-10-1-13-3-11v17l-2-6-2-4v-6l3-5c1-1 2-2 1-6l1-8c1-2 1-5-1-5s-2 1-2 3c0 4-1 5-2 3-1-1 1-10 3-12l2-6 1-5 1 13v16l3 20 2 12 1 4v3l1 2c0 3 0 3 1 2s2-3 1-9l1-7 2 13c0 4 1 6 2 6l1 12c0 9-1 16-2 17v3l1 5v9a180 180 0 0 0-1 9v11c-1 9 0 21 2 25v23l2 10 1 8 2 16 1 16 4 8v13l-1 31c1 14 0 15-1 17-2 1-2 1-1 6l2 11c0 5 0 7-2 10l-3 5-1 4c-2 4-3 17-2 16l2-6c0-7 2-11 5-11s3 2 0 4c-2 1-2 3-2 6 0 5-4 13-6 15l-2 2-1 3c-2 2-5 18-5 24-1 17 0 24 1 24 3-1 5 1 6 8l1 9c-2-1-2 0-2 3 0 4-2 8-5 7v-4c1-4 0-8-1-11-2-3-3-3-2 0 0 2-2 9-4 9l2-28-1-7-1-8c0-7-2-9-5-9l-3-2-4-6c-3-4-4-5-2-6l1-10c-1-10 0-19 3-19v9l-1 12 3 4 2 2v-2l4-12c1-1 0-10-1-10l-2 2c0 2 0 2-1 1-1-2 0-12 1-15l1-3c0-2 1-3 2-3 2 0 2 1 1 6l1 6 2-2 2-3 1-4 2-4 2-4 4-11 2-5v-4l-2 3c-3 3-3 3-3-1 1-3 1-3-1-1l-4 2c-4 0-4-2-1-4l6-6c3-4 3-5 5-3 0 2 2 1 2-1l1-1 1-6v-8l-1-2-1 2-1 3-1 5c-1 3-5 10-9 12l-5 8-3 6c-1 2-3 5-2 6l-1 2c-2 1-2 2-1 4v7c0 3-1 4-2 4l-1-5c1-7-1-9-3-5l-1 4-2 13-2 8c-1 7-2 9-3 9l-1-5 1-5 1-3c0-6 2-14 3-15v-7l-1-6v5c-3 16-11 34-15 34s-5-4-4-11l2-8 1-4 1-2 2-5c2-10 2-13 1-13l-7 15-2 5c-1 1-2 3-2 7l-1 6v3a601 601 0 0 1 6 10c2 2 3 9 4 15l1 11 1 8-1 6c0 2-2 4-3 3l-1-4-1-4v12l2 10v6l-2-1c-2-1-3-3-4-9l-1-9c-1-1-2-9-2-20-1-22-2-31-3-31l-2 5c0 3 0 4-1 3-3-1-3 2-1 6 2 3 2 5 2 9-1 3 0 5 1 8 2 3 2 5 1 13l1 11c3 3 3 10 1 12-1 2-5 3-5 1l1-3v-5l-1-4-1 3-4 3c-2 0-1-5 2-8s3-4 3-9c0-9-1-16-3-16s-3 4-4 15a218 218 0 0 1 1 19c1 7 0 13-1 15-3 2-7 0-7-4 0-1 0-2 1-1l1-2v-7l-1-6c0-3-1-5-2-5l-2-1c-1-2-1-2-2-1l-1 2-1 5c-2 4-2 7 0 13l-1 3-1 3c0 2 1 2 7 3h10c2-1 17 1 20 2l3 1v-21c-1-6 0-9 2-9 2-1 4 1 4 9l2 9c1 3 0 9-3 11v2l1 3h-4c-5-1-8 0-10 1-2 3 0 3 10 2h19c2 1 0 2-9 3-14 2-15 2-15 4l-4 2-5 1h-3l1 3h4l5-1 4-2c0-2 4-2 6-1 1 1 1 1 3-1 4-3 3 2-1 6-1 1-1 1-3-1h-4l-3 1-2 2-12 1-11-1c-3-2-7-2-11-1a688 688 0 0 1-74 0c-3 0-5 3-4 5 0 2 0 2-3 2l-6 1c-3 1-7 9-5 10 1 1 9 2 20 2h19l1-3c0-4 2-8 4-11 2-2 3-2 6-1h5l1 1h2c5 0 6 2 5 8 0 2 0 3 4 3h10c4 0 4-3 1-4s-4-5-2-7c2-1 6 2 7 5 0 2 1 3 3 3l3 2 2 4v2c-1 1-6 0-6-1h-18c-3-1-4-1-3 3l-2 5c-2 2-2 4-2 7l-1 4c-3 1-2 2 2 4 4 3 4 4 0 4l-4-2zm-2-14 1-4 2-4 2-4c1-1 0-2-1-3-2-3-4-2-4 3l-2 8-1 6c0 2 2 1 3-2zm-81-7 1 2 1 1c2-1 1-4-1-6h-13c-1 1 2 3 4 2 2 0 2 0 2 3v3l2-2 4-3zm75-2 1-5c2-2 2-3 0-6-1-2-2-3-4-3l-2 1 1 12v3c-1 0-1 1 1 2s2 1 3-4zm-61-13 2-7-3 1c-2 1-3 2-3 5 0 9 2 9 4 1zm-85-3-1-2-3-2-3-1 6 7 1-2zm3 1v-1l-2 1 1 1 1-1zm180-11c3-3-1-6-6-5-2 0-2 1-2 3 0 4 4 5 8 2zm-44-1c3 0 5-2 5-4h-4l-3 1c-3-2-7-2-7-1 0 2 5 6 6 5l3-1zm25 1 1-3c1-3 1-3-3-3h-3c-1-1-6 1-7 4v2h12zm46 0-5-3-4-2h-7l-7 1h5c5 0 6 0 8 2s10 4 10 2zm-20-1h-2v1l2-1zm-154-5h17l17 2 11 1 1-3c0-4 0-4-4-5h-12l-10-1c-2-2-1-3 6-3 7-1 10-3 10-7 0-3 0-3-5-2l-9 2c-4 0-4 1-4 2l-2 5c-1 3-1 3-8 3-9 0-14 1-17 4l-6 3h-3 1l2 1 3 1 12-3zm182 0h-1l-2 1h2l1-1zm-115-3c4-4 8-6 8-4 0 1 1 2 3 2s2-1 2-4c0-5-2-5-5-2l-4 3v-5c0-5-1-7-4-5l-2 1-12-2c-12 0-12 0-13 2-2 7-2 7 1 8 2 2 3 2 6 0s3-2 4-1l1 2 5 1c6 1 7 2 6 4h-5l-4-2c-4 0-4 0-4 2l2 2c1 0 2 0 1 1l6 1c5-1 6-1 8-4zm48-2a1913 1913 0 0 1 23 0c3 2 19 1 21-1 3-3 4-2 4 0-1 2 1 3 7 3 3 0 4 0 5-3 0-1 1-2 3-2l2-2-1-2a291 291 0 0 0-43 0c-3 2-6 2-16 2-11 0-13 1-13 2 0 2 2 5 3 4l5-1zm-15-2 4-3h-8l-10-1-3 1c0 3 1 4 7 5l5 1 5-3zm31-8 4-2 2-1-1-1c-3 0-5 1-5 3 0 1-2 1-2-1l-2-1-1 1c0 2-4 2-5 1 0-2-8-2-8 0-1 2 0 2 13 3l5-2zm-31-1h-2v1l2-1zm6-1v-1l-2 1v2l2-2zm-20 0v-1l-1 1v1l1-1zm24 0-1-1-1 1 2 1v-1zm38-2-1-3c-1-2-2 0-2 3h3zm-113-2 9-1v-3l-4-13v-10l-5 4-8 6c-2 1-2 3-2 9l1 9 9-1zm34-4c-2-2-2 0-1 3 1 2 1 2 2 0l-1-3zm70 4-1-1-1 1 1 1 1-1zm-76-2-2-1 2 3v-2zm-61 0v-11l-1-13-1-21c-1-4-2-4-5-4l-3-1-3-3-5-1v4l1 6v3c-1 1 0 8 1 8l1-2 2-2 3-2h5l-2 3-4 2-4 3c-2 2-2 11-1 13v10c0 2 1 2 3 1 2 0 2 0 2 2 0 1-1 2-3 2s-4 2-4 3h18zm-9-8 1-1 4-2c2-2 3-2 0 1-2 3-4 3-5 2zm-2-15c0-2 5-3 6-2 2 1 0 3-3 3-2 1-3 1-3-1zm143 23h-3l3 1c2 0 2 0 0-1zm-24-2v-5l-1-4-1-3 1-15c-2-10-3-5-2 9l-1 15c-1 2-1 3 1 3l1 1h1l1-1zm38-4-1-7c-1-1-1-1-1 1l-1 5c0 3 0 6 2 6l1-5zm-120-14 5-4 4-2c3 0 4-1 3-6l-2-4-5 5-7 6c-1 0-2 1-2 4 0 4 0 4 4 1zm30-3c-1-1-1 0-1 1 0 2 0 3 1 2v-3zm89 0-1-2v4c1 1 1 1 1-2zm17-8c0-3-1-5-2-5v3l1 5c0 2 0 3 1 2v-5zm-34 3-1-2-1 1 1 1h1zm-21-14-1-1c-1 1-1 0 0 0l-1-2v-2l-3-1c-4 0-4 1 0 4l3 5 1-1 1-2zm119-7c0-5-2-6-2-3a30352 30352 0 0 0-1 12c2 1 3-3 3-9zm-132 8-1-1v-3c0-2 0-3-2-3-2-1-4 1-2 2l2 3 1 2h2zm72-6c2-2 2-2 0-7-1-4-3-6-3-4a998 998 0 0 0 0 13l3-2zm-87 1-1-1-1 1 1 1 1-1zm-53-3 3-3-7-1v7l4-3zm31 2-1-1-1 1 1 1 1-1zm15 0-3-1c-2-1-4 0-4 1h7zm14 0-3-1c-2 0-2 0-1 1h4zm33-3c-3-1-6-2-4 0l5 2-1-2zm66-3c0-8-1-8-1-1l1 6v-5zm-82-1c2 0 1-2-1-4h-1c1 1 0 2-2 2h-5l1 1c2 2 4 2 8 1zm13 0c2 0 1-1-1-5l-2-4-1 3c-1 5-1 7 1 7l3-1zm-57-1c0-2-1-3-3-2v2h3zm14-2c0-3-4-5-6-3-3 2-2 4 2 4l4 1v-2zm6 0-3-1c-1 1 1 3 3 3v-2zm5 1v-1l-1-1v-2c0-2 0-2-2 0s-2 2-1 3c2 2 4 2 4 1zm143-1c2-2 3-8 5-21 0-4 2-8 3-10l2-4 1-5 1-4 1-2v-8c-1-6-3-6-3 0l-1 5-1 2-1 4-2 3-1 4-3 6c-2 3-3 12-1 12 2 2 1 4-1 4-1 0-2 1-2 7 0 8 1 9 3 7zm-138-5h-1v2l-1 2c1 1 2 1 2-1v-3zm-27 2c-1-2-2-2-4-1-1 1-1 1 1 2 3 2 4 1 3-1zm43-1-1-1-1 2h1l1-1zm32-7c-3-2-3-1-1 4l1 3 1-2-1-5zm-44 1-2-4-1-2-2-2c-2 0-1 3 2 6l1 3 1 3c2 2 2 0 1-4zm-96-4v-3l-1-5c0-3-2-4-5-1-4 4-7 6-9 6s-2 0 1-3l7-5c4-2 5-4 5-5l1-3v-1l-5-1h-9c-5-3-9-2-10 0l1 2v2c-1 1 1 4 1 6l2 6v2c1 2 3 2 9 3h12zm-20-13 1-1v2l-1-1zm101 12h-1l1 2v-2zm-40-1c1-1 1-2-1-3l-1-4c0-4-1-4-7 1l-6 5c-2 2-2 2 6 2l9-1zm153-3 2-5 3-4c2-2 5-16 4-20l1-6c2-2 2-3 1-5l-1-2v2l-2 2c-1 0-3 5-3 9s-2 13-4 16l-1 4-1 3-2 4-1 3 1 2 3-3zm-97 0-1-1-1 1 1 1 1-1zm-70-3 6-5 2-1-2-1c-3-1-4-1-5 1l-4 3c-2 1-3 6-1 6l4-3zm81-1-2-1 1 2 1 2v-3zm68 2 1-5c0-5 2-10 6-15 3-3 4-6 4-8l2-5c3-4 5-9 6-13l4-13c2-6 2-7 1-7l-3-2c-2-2-3-1-4 5-2 8-4 9-4 3l3-11 3-8 1-3 1-3 2-4c1-3 2-15 0-18-1-2-2-3-1-5l1-3 2 3 2 4c0 3 2 2 2-1l1-11 1-9c2-1 3-21 1-21-1-1-1 0-1 2l-1 6a955 955 0 0 0-7 20c-3 6-6 17-6 20 1 1 1 1 1-1l1-2c2 0 2 5 1 8v6l-1 2-1 3-2 4c-3 2-3 1-2-3l2-4 1-3c1-1 0-5-1-5l-2 4-10 33v8c1 10 0 30-2 35-1 5-5 10-7 12-1 1-1 1 1 3 2 3 2 3 4 2zm-86-5h-2v3h2v-3zm6 2h-1c0 1 1 2 2 1l-1-1zm17-1c0-2-2-1-3 1h1l2-1zm-88-5h-4l1 2c1 2 2 2 3 0v-2zm75-2c0-2-1-3-3-2-1 0-2 0-1 3 2 3 3 2 4-1zm4 0h-1v1c0 1 1 1 1-1zm-49 0-2-1-1 1 1 1 2-1zm21-1c0-2-3-4-6-2s-5 2-5 1v-1c-1-1-1 0-1 1 0 2 0 3 6 3 5 0 6-1 6-2zm-38-9-16-3-1 5v4l7 1 8 1 1-3 1-5zm53 6-1-1v-1c1 0 1-2-1-2l-1 3c0 2 0 3 1 2l2-1zm33 1c0-2-3-3-4-2v2h4zm-67-1v-2c-1-3-3-1-2 1 0 2 1 2 2 1zm28-1c-3-2-6-3-6-1h1l3 1c3 3 5 2 2 0zm44-1c-2-2-3-2-3 0 0 1 4 3 5 2l-2-2zm37 0c0-2-2-4-3-3l2 5 1-2zm-79-1-1-1-1 1 1 1 1-1zm24-3 2-6c3-3 3-5 2-6v-2c2-1 2-2 1-2-2-2-5 2-5 5l-1 7c-2 4-2 6 1 6v-2zm-47 0c-2-1-2-2-1-2v-3c-2-2-2-2-2 1l3 5v-1zm55-2c-1-1-2 1-1 2h1v-2zm15 0-1-1-1 1 1 1 1-1zm-61-1-2-1-1 1 1 1 2-1zm-4-4-1-2-1 3c1 3 2 3 2-1zm38 1-1-4v-3l-2 2-4 3v-5l-1-1c-1-1-2 0-2 5 0 4 0 5 1 4 1-2 1-2 2-1 3 3 6 3 7 0zm37-2c0-2 0-3-1-2l-1 1-1 3c-1 2 0 3 1 3s2-2 2-5zm-108 1 5-5c3-3 3-3 2-4l-2-3-1-2c-2-1-2 0-2 4 0 3-1 5-2 5-2 0-2-1-2-5l-2-8c-1-3-2-1 0 5 1 5 0 8-3 8-2 0-7 4-6 5l11 3c1 0 2-1 2-3zm99-2c2-4 3-6 1-6l-2 2-1 3-1 5 3-4zm-7-4v-2c-1 2-2 5-1 6 0 4 1 3 1-4zm-63 3v-2c-2-2-2-2-2 0-2 3-1 4 2 2zm-4-6c-1-1 0-2 1-3 1-2 1-4-1-3l-1 2-1 2v5l1 2 1-2v-3zm20 2-2-1c0 1 2 4 3 3l-1-2zm12 0v-4l-1 4c-1 4 1 4 1 0zm-15-4c2-1 1-2 0-4l-3-2 1 3a7640 7640 0 0 1 1 6l1-3zm63 1 2-3 3-2 2-2c1 0 2-1 2-3s0-2-2-2l-2 1-1 2-3 4-3 4c0 1-1 2-2 1v1c2 3 5 2 4-1zm59 0 2-4c3-4 4-17 1-17l-5 15-2 7 1 2 3-3zm-98 1 1-5 2-8c2-2 2-4 1-5s-1-2 1-5l1-4 2 2c1 2 2 2 2 1l-2-3v-2h-1l-2 2-2 2c-2 2-4 11-3 12s-1 7-2 7l-1 3c0 4 1 5 3 3zm-18-5c-1-2-1-2 2-1 2 1 3 0 5-2 2-3 2-8 0-9l-1 4c0 4 0 5-3 5l-4-2-2-1 1 3v3l1 1-1 2v1c1 2 2-2 2-4zm-29 0 1-4 1 1h1v-6l-2-4-2-3v3l1 5c1 1 0 2-2 3l-2 5c0 5 3 5 4 0zm73-4c0-2-3-1-3 1l-2 3 2-1 3-3zm-35 1h-1c0 2 1 3 2 2l-1-2zm41 2-1-1-1 1 1 1 1-1zm-34-5-1-1v1l1 2v-2zm-49 0v-5l-1-4c-2 0-2 2-1 6 0 4 1 5 2 3zm189-3c-1-1-1 0-1 1 0 2 0 3 1 2v-3zm-110 0 1-3c2-1 0-3-1-1-1 1-2 2-1 3l-1 1-1 1 1 1 2-2zm115-3h-1l1 2v-2zm-104-1h-3l2 1c2 0 2 0 1-1zm7-2c2-2 2-5 1-7-1-1-1-1-2 1l-2 5c-2 3-2 4-1 4l4-3zm86-6 2-3 1-3 1-4c6-13 7-15 7-25l-1-8-1-2c-1-2-1-2-3-1-3 0-4-2-2-4 1-1 2-6 2-18l-1-11-2-4-1-3v6a298 298 0 0 1 1 35v5l-1 4-1 6v3l1 15c0 4-3 12-5 14-1 2-2 4-1 5 0 2 0 2 2-1l2-6zm-197-1c-2-3-2-3-2-1l1 2v5c0 3 0 3 1 1v-7zm98 3 1-1 1-3v-4l-2 4-2 5v2l2-3zm-108 0 1-4 1-5v-3l-2 3c-2 4-3 10-1 11 1 2 2 1 1-2zm72-1-2 2h1l1-2zm-15-4v-3c-1-1-1-1-1 1 0 3 0 4 1 2zm22-1 6-6 1-2 2-4c0-2 0-2-1-1-2 2-3 1-3-1l-1-3-1 3c-1 2-1 2 1 4v5l-1 3-2-3c-2-4-2-3-3 3-1 3-1 4 2 2zm38-1v-1h-2l-1 1h3zm61-2 1-4 1-3-1-17-2 1c-1 2-2 7-1 16v9l2-2zm-109 0 1-4 3-3 1-2h-2l-3 2c-2 0-3 3-2 6 0 2 2 3 2 1zm-55-4c0-3-2-4-3-1 0 2 1 5 3 5v-4zm28 2h-2c-2 1-1 2 1 2s2 0 1-2zm72-5c0-1-2 1-2 3l1-1 1-2zm-72-5c-1-4-2-2-1 3 0 2 0 3 1 2v-5zm118-10-1-6-2-3v6c-1 7-3 10-4 9v-12c2-3 1-6-1-4-1 2-3 14-2 15v2l1 1c2 0 2 1 2 3v4l7-15zm-161 12v-10c-1-1-1-1-1 1v2l-1 4 1 4 1-1zm122 0-1-2c-1-1-1 0-1 1l1 1h1zm-126-17c2-2-1-3-12-4-7-1-12-1-15-3-5-2-13-3-16-2-4 1-3 3 0 5l6 4c2 3 4 4 6 4 1 0 5 1 7 3l12 5 8 3c2 1 2 1 3-6l1-9zm44 12c1-5 1-8-1-9l-1 1v10c1 2 2 1 2-2zm80 0c-1-1-1-1 0 0l1 2-1-2zm-109-5c0-2 0-3-2-2-2 0-2 0-1-2l4-2c2-1 2-1 0-4l-6-13-1-4v1l-1 2v-6c0-4 0-5-1-4l-1 6c1 10 2 11 4 14l3 4-2 4c-1 3-2 4-1 6l2 2v3c0 3 3-2 3-5zm59 2-2-5c0-4-1-5-2-3-1 1 0 6 1 9 2 3 3 2 3-1zm-7-2-2-1-1 3c0 2 0 2 1 1l2-3zm12 1-1-1v2l1-1zm5-2-1-1-2 1 2 2 1-2zm-55-6h-1c0 2 1 3 2 3l-1-3zm6-2-2-2 1 2 1 3c0 2 0 2 1 1l-1-4zm49 4-1-2-1 1 1 1h1zm46-8-3-2c-1 0-1 4 1 7 1 2 1 2 2 0v-5zm-82 4-1-3v-1c1-2-1-3-3-2v3l2 2 1 3 1-2zm16 0v-4c-2 0-2-1-2-4 1-3 1-4-1-4s-3-2-4-3c-1-2-1-2-1 0l1 2 3 11 2 2 2 1v-1zm11-2h-4c-1 2 1 3 3 2l1-2zm9-1-1-2v-4l1-4 1-2v-2c-1-3-1-2-3 5-1 5-1 10 1 10l1-1zm-58-7v-7c1-1 0-3-1-3s-2 1-1 4c0 3 0 4-3 6s-4 5-2 4l2 2c1 1 1 1 2-2l3-4zm143 1 2-7v-9c-3-6-2-14 0-14 1 0 2 2 2 5l1 6c1 1 1 1 1-1l1-3 1-2 3-7 2-6v-10l-1-12-1-3-1 4-7 11v1c1 1-2 12-3 14l-1 2-1 5c-2 1-2 6-3 16l-1 3-1 5c0 3 0 4 2 4l2 2c-1 2 0 2 1 0l2-4zm-92 3v-1l-2 1 1 1 1-1zm-3 0-1-3c-1-3-5-4-5-2l2 2 2 1c0 2 2 3 2 2zm22-2 2-3 5-13c0-4 1-7 5-15l2-5 2-6 2-13c0-11 1-14 3-14s5 4 3 4c-2 1-3 12-1 12l1-1 3-1 2-1c1-1-1-12-2-11-3 1-4-14-1-20 1-4 1-15-1-17s-3-2-3 1l-1 3-1 11-1 11c-2 1-3-2-3-6l-1-4c-1-1-2 5-2 11 1 4 1 4-2 5l-4 4c-2 2-2 3 0 8v8l-1 7c0 5-1 12-3 17l-1 3-2 4-2 11-1 10c-1 2-1 2 1 1l2-1zm-48-5c-1-2-1-2-1 1v2l1-3zm31-5c2-3 3-11 2-11s-2-3-1-5v-3c-1-3 0-14 2-16l1-3 1-2v-2c-4-3-5-7-4-11v-5c-1-2-1-7 1-11l-1-2-4 13c0 6-3 10-6 10s-2 1 0 4l2 4 1 3c1 1-1 7-2 7l-1 1 1 2c4 0 5 4 5 15-1 16-1 15-2 14-3-2-3 0 0 3l2 4 1-3 2-6zm-61 0 1-5v-1l-1-2v-2l-1-4-1-3-1-3c1-2 0-3-1-5-2-1-2-1-3 1l1 4c1 2 2 4 2 11 0 9 1 12 3 12l1-3zm24-1c0-2 1-3 2-2l3 2c2 2 2 2 2-1l-2-2h-1c1-1 0-1-1-1l-1-1c1-2 0-6-2-11v-3c2-4 0-18-3-18v24l1 3v4l1 5c0 6 1 6 1 1zm13-2c0-5 0-6-1-3v4c1 3 1 2 1-1zm6-6 2-3 1-2 1-3v-3l-1 3c-1 2-1 2-4 2-4 0-5 0-6-3-2-4-4-10-3-11l-1-3-1-14-1-5-3-6-4-5c-2 0-1 2 1 5l2 4 1 2 2 25 2 7 1 6c0 2 0 2 2 1v-2l-1-2 2 1 2 3 3 4 3-1zm66-3c0-1 0-2-2-2s-2 0-2 2l1 2c0 2 2 0 3-2zm-90-1-1-1v1l1 2v-2zm56 0 2-3c-3-1-2-6 0-7 2 0 2-1 2-4l2-5v-10c1-3 1-7-1-8-1-1-2-9 0-10l1-2 3-4c3-1 4-1 4-7l-2-7-1-3c-1-3 1-14 3-16 2-1 2-4 2-8 0-6 1-8 4-8 2 0 3 1 1 3l-1 5-2 8c-4 6-5 11-4 14 0 2 2 2 2-1l1-3 2-4 2-4 2-8 1-6 1-21-1-6c-1 0-2 1-2 4l-2 3c-1 0 0-14 3-18l1-19 1-20c1-1 1-2-1-5-1-3-1-3-2-1 0 3-5 9-6 8l-1-4c2-7 2-18 1-18s-2 2-3 9c0 6-2 8-3 7v2c2 2 2 5 2 10 0 6 1 8 3 3 2-3 3-1 3 4l1 7v9l-1 9c-1 3-3 5-4 3v-2l1-9c1-5 0-7-1-7-3-2-4-1-5 3-2 4-4 6-6 3v-35l1-14c1-3 0-8-2-8s-4 6-3 12c0 4 0 4-2 6-3 3-4 7-2 10 1 3 0 7-2 7-1 1-2 2-2 7s0 5 2 5c2-1 2-1 3 3s-1 5-5 2c-2-1-3-3-4-12a424 424 0 0 0 0-11c2 0 4-1 4-3-1-5 0-8 2-10s2-4 3-7a109 109 0 0 1 3-26l1-5 1-3c0-3 1-6 3-6l-1 15c-1 4-1 5 1 7l2 3 2-3v-6c-1-4 1-8 4-9 3 0 3-2 0-6l-3-4c-1-3-1-3-3-2-1 0-3 0-4-2-2-1-2-1-3 1l-2 3c-1 0-3 12-2 15s1 4-1 7l-1 6c1 5-3 15-6 15s-3 2-4 8l-1 8c-2 3-2 21 0 25v8l-2 7-3 6c-1 2-2 2-8 4l-5 3h-5c-4-1-5 0-5 4l-1 3-1 5-1 7v4c2 1 3-1 4-8 1-5 2-7 3-7l2-3c0-2 2-3 4-1l2 7 3 4 3 4 3 4 1 2v1l1-2-1-6c-2-7-1-16 2-21l3-5c0-2 2-1 3 1l1 6 1 3-2-2c-1-1-2-2-3-1-2 2-4 8-3 12v9l2-3 3-3-1 10c0 10 0 11 2 14l2 7c0 3 1 4 2 1l2-2-1 11v6l1-1h5l-1 4c-3 3-3 8-2 10 2 1 2 1 2-3l2-6 3-10 3-10c1-1 2-6 1-10v-2l1-1c1-11 4-19 8-19 3 0 2 1-1 7l-2 10-1 4-1 5-2 9-2 9-2 10c-2 2-2 3-1 5 2 3 1 4-2 4s-3 1-5 4l-1 6c0 2 5 7 6 7 4 0 7 8 4 11l-1 5-2 6-2 10 4-2zm-9-81 1-4 2-6c2-6 2-6 0-8s-3-10-1-10l2 2c1 2 2 3 3 1 1-1-2-4-5-6-2-1-2-1-3 3l-3 12-1 10c-2 0-3-14-2-17l1-8c-1-7 0-9 2-6 1 2 1 2 2-2 2-5 2-14 1-20-1-4 0-4 3-1 2 3 3 13 3 23 0 3 1 5 2 5 2 0 2-1 2-9v-9c2-1 4 4 4 9 0 9-2 23-4 25v3c1 1-1 6-3 8l-3 5c0 4-3 4-3 0zm26-32 1-2c2 0 2 2 0 3-1 1-1 1-1-1zm-12-122 1-1 1 1v1l-2-1zm21 234h-1l1 2v-2zm-59-8 1-3c1 0 3 1 3 3 2 4 3 1 1-3-1-3-2-4-5-4s-3 0-3-3l-1-3v4l1 4 1 4 1 2 1 1 1 2-1-4zm-27 0c1-7 0-12-1-17l-1-8v-1l-1-2c1-1 0-2-1-2l-1-2-1-2-2-9-1-2-1-4c-1-4-3-7-4-6v3l3 9c0 5 2 8 2 9l5 11 1 2v3c-1 0-2 1-1 3l-1 4-1 2h2c2-1 2 0 2 8 0 3 2 4 2 1zm94-2c0-4-1-7-3-7-1 0-2 5-1 6l1 3c0 4 2 2 3-2zm29-5 3-6c2-2 3-7 4-9l3-12 2-11c0-3 0-3-3-3-2 0-3 1-5 3l-2 5-1 3-1 10-1 15-2 10v3l1-3 2-5zm-68 0 1-5c1-1 0-5-1-5l-2 3-1 5c-1 4-1 6 2 5l1-3zm62-1-1-2-1 1 1 2 1-1zm-131-1c0-2-2-7-4-8s-2 2 0 5c2 4 3 5 4 3zm45-10c0-3 0-3-2-2h-3c-2 0-1 3 1 8l1 3 1-3 2-6zm105 6v-2c-3 0-4 2-3 3 0 3 2 2 3-1zm-24-4 1-3-1 1-1-1c-1-3-2-2-1 2 0 5 1 5 2 1zm26-4 2-4 2-6v-2l1-4 1-4 1 1c3 2 5-2 3-6-1-3 0-19 2-21v-8c-1 0-4 2-4 4l-4 13c-2 1-4 7-4 12l-2 11-5 20 3-3 4-3zm-20 0v-6l-1 11 1-5zm-114-4-3-2-1 1v1h1l2 1c2 2 2 2 1-1zm24 1-1-7v-10l-1-3c-1-1-2-2-1-3l-1-1v20l-1 3c1 2 2 3 4 3s2 0 1-2zm-9-12-2-2v2c2 2 3 2 2 0zm19 1-1-1c-3 2-1-7 3-10h2l1-1v-13l-1-4c0-3-1-5-2-5s-2 1-2 3l-1 2c-1 0-2 1-1 2l-1 1v3l-1 3c-3 2-4 12-2 14l1 2 2 3c2 2 2 2 3 1zm-37-9 1-3-1 3-1 3c0 1 1 1 1-3zm6 1h-1l1 2v-2zm-2-5c0-3-4-9-4-6l1 3c2 1 2 2 1 3v3l1 1 1-4zm8-4-2-7v9c0 7 2 5 2-2zm6 0-1-2v4c1 1 1 1 1-2zm12-4c-2-2-1-3 0-2s2 1 1-1c0-4-3-4-3-1 0 4 1 6 2 5v-1zm-25-4-3 1v3c1 1 2 1 2-1l1-3zm-5-2v-6l-1-4c-1-1-1 0-1 1 0 2 0 3-3 3-4 0-5 1-3 2l2 3c0 2 0 2 1 1l2-1-1 2v3c1 1 2 1 2-1l2-3zm24-3v-4l2-8 2-5 2-3 1-1v-2c-1-2-1-2-1 0-1 3-6 2-11-1l-3-3v3c0 2 0 3 2 3v3l1 1-1 1-1 3 1 13c-2 0 0 4 2 6 3 2 4-1 4-6zm-17-7v-8c-2 0-4 5-2 11 0 3 0 3 1 1l1-4zm74 4-1-1-1 1 1 2 1-2zm-100-3-1-1v1l1 2v-2zm194-2c-1-4 0-14 2-15v-8c2-3 1-5-1-2l-3 11-2 10c0 3 1 5 3 5l1 1 1 1-1-3zm-141-4c0-3-1-5-2-5l-1 1c1 1 0 3-1 4-1 2-1 3 1 4 2 3 3 1 3-4zm-42 2v-2c0-1-3 1-2 2h2zm6-1-1-2v2l1 2v-2zm-2-6h-2v1c2 1 3 0 2-1zm6-5-1 1-1 2h1l1-3zm-8-1c0-4-1-6-3-6l-4-2c-2-1-2-1-2 1l2 4c2 1 3 2 3 4 0 3 0 3 2 2l2-3zm9-2v-3l-1-3c-2-1-2-1-2 2s1 6 3 6v-2zm-7-8-2-2 1 2c2 3 2 3 1 0zm9-5v-5c-1-2-1-2 1-3 3 0 4-2 2-5 0-2-2-2-2 0l-2 2c-2 0-3 4-2 6v1l1 2c2 0 2 0 0 3v4c1 2 2 0 2-5zm-12-7c-1-3 0-4 3-4s4-3 2-3l-1-3-2-4c-2-3-1-7 2-7 3 1 2-1-1-3-3-3-5-9-4-12l-1-3c-2 2-2 8-1 9l1 3 1 3 1 4c0 2 0 2-1 1l-2-1c-1 1-2-1-4-6 0-3 0-3-2-2l-1 3c0 2 4 7 6 7 3 0 5 10 2 14v3l1 4c0 3 0 3 1 1v-4zm111-2v-1l-2 1c-1 1 0 1 1 1l1-1zm2-3v-1l-1 1v2l1-2zm-18-5-2-2c-1 0-2 2 0 3 1 2 2 1 2-1zm-85-1v-4c-1-2-1-2-1 3-1 3 0 4 1 1zm-25-4c-1-1-1 0-1 1 0 2 0 3 1 2v-3zm47-4c1-6 1-6-1-8l-2-4v-2l-1-3v-4c-3-1-3 4-1 12 1 3 0 5-3 5-2-1-2 0-3 2 0 2 0 3 4 6 5 4 6 4 7-4zm-16 0 1-6c1-2 0-5-2-3v13l1-4zm-26 0c-1-1-1 0-1 1s0 2 1 1v-2zm20-4c-1-1-2 1-1 2h1v-2zm1-4 1-5-1-2-1-3-1-2v13c0 2 2 1 2-1zm83-1c1-2 0-8-1-9l-1 5c0 6 1 8 2 4zm-73-3c0-1-1-2-2-1-3 0-4-2-2-4 2-1 2-2 0-3l-2-3h6l1-2c1 0 4-10 4-16l1-7v-3c-1 0-1-2 1-4 1-3 1-3-1-7-3-4-6-5-5-1l-1 7c-2 10-2 12 0 18v11l-1 2-1-2c-1-2-2-3-4-3-3 0-3 0-2 4l1 6v3c0 2 3 6 6 6l1-1zm51-1 1-9 2-11-1-4c-2 0-4 5-4 17-1 9-1 11 2 7zm-85-2c-1-2-3-4-3-2l3 4v-2zm16-8 3 1c1 1 1 0 1-1l1-5c1-3 1-4-3-4-3 0-4 0-5 5v5c1-1 2-2 3-1zm0-3 1-2h2l-2 2h-1zm113-14-1-9-1-3c-1-1-1-1-2 1-2 4-1 21 0 23l1 3 1 3c1 1 2-7 2-18zm-123 16c0-2 0-2-1-1v3l1-2zm154 0h-1l1 1h1l-1-1zm-161-8a1197 1197 0 0 0-1-7c-1 0-2 7-1 9 1 5 3 3 2-2zm11 3v-3l1-3 1-4 1-1c1 0 0-8-2-10l-2-2v14c1 2 1 2-1 1-2 0-3 1-2 6 0 4 2 5 4 2zm22-5h-2v-3a317 317 0 0 0 0-31h-4v-2c0-2 1-3 2-2l-1-2-2-3h-1v1l-1 2-1 2c2 1 2 3 1 3v6l1 4 2 4 1 3v9h-1l-1-2v12l2 1c4 1 4 1 5-2zm-16-3c0-2 0-2-1-1v4l1-3zm31-8 1-7v-4c-2 1-3 12-2 13 1 2 1 1 1-2zm41-3c1-3 0-6-2-6-1 0-2 4-1 7 0 3 3 1 3-1zm-66-4-1-1v1l2 2-1-2zm-3-5c0-4-2-6-4-6s-2-1-3-5c0-5-2-12-4-13l1 20c3 6 4 7 8 7 3 0 3 0 2-3zm-5-1c-2-1-1-2 2-1v1h-2zm85-1-1-2v6c0 2 2-1 1-4zm-52-3h-1v1c0 1 1 1 1-1zm45 0 1-8c0-5-1-7-2-7l-1 3-1 3c-2 2-1 10 1 10l2-1zm-89-4-1-4c-1-1-1-2-2-1v3c1 2 3 3 3 2zm18-5-3-1v1h3zm-5-10v-8l-2-8c-1-1-1-2 1-2 1-1 1-1-1-4-2-4-3-5-1-5 1 1 0-5-2-7l-2-5c-1-4-3-4-3 0l2 14a71 71 0 0 0 2 18l4 7v2l1 1 1-3zm8 0v-1h-2l-1 2h1l2-1zm6-8-3-3c-2-1-3 0-1 1l-2 1c-2 1-3 1-3 3 1 2 1 2 3 2l3 2c2 1 3 1 3-1v-5zm-5 3 1-2 1 1-1 2-1-1zm44-2h-1l1 2v-2zm2-7c1-3 2-7 4-9 3-3 2-9-1-9-4 0-3-10 2-20 2-3 2-6 1-8l-1-9c0-13-2-21-4-13l-2 4-1 9a6623 6623 0 0 1-1 29c-1 5-2 8-1 13v6l-1 6c0 3 0 4 2 3l3-2zm57-4-1-6-1 6c0 4 0 6 1 5l1-5zm-40-5c1-3-1-7-3-7s-2-1-2-13c0-10-1-12-4-6-2 5-2 7-1 7 1 1 2 2 2 5l1 6 3 6c1 4 3 6 4 2zm59-8-2-1c-1 0-2 1-1 3 0 2 0 2 2 0l1-2zm-93-11c-1-1-1-1-1 2l1 6c0 2 1 2 1-2l-1-6zm-43-6h-1c0 1 1 2 2 1l-1-1zm49-11 2-4c3-4 10-29 11-38 1-12-1-14-3-2 0 6-1 11-2 11l-2 1 1-7 1-12c0-5 0-7-2-9-4-3-5-14-4-22l-1-6-1-6-1-5-1-4-2-7-1-3v3c0 3 0 3-1 2l-1-11-1-10c-2-1-4 5-4 10 0 6-1 12-3 11l-1-12c-1-6-2-12-3-9-2 5-3 11-2 14v18l-1 6-2 10c0 6-1 9-3 5v-7c0-3-1-4-2-5-2-1-2-1-4 1v4l1 5c0 2 1 4 3 5 4 1 4 1 3 6l1 7c2 2 2 5 0 5-1 0-2 3 0 3l2 5 1 6 1 3c-1 1 1 14 2 16h1c0-2 1-2 2-2l1 4 1 4 2-3 2-5c2-2 3-3 2-4v-3c1-2 0-4-3-4l-3-3-2-4-1-7-1-8-1-3-1-1-2-3-1-3c1 1 2 0 3-3 2-4 2-4 0-6-2-3-2-12 1-17 2-2 3-3 5-3 2 1 3 0 3-1l1-1 1 3c0 2 2 3 2 0h1c0 2-2 3-3 2s-2 0-1 3c0 3-1 4-3 6l-2 2v-4l1-5c1-2 1-2-1-1-2 2-3 3-3 9l1 3c2 0 2 1 2 3l1 1 2 1h1c1-2 6 0 6 2l-1 3c-1 1-1 1-2-1 0-3-1-3-3 0l-2 3v8c-1 2 0 17 1 19l2 2v-3c-1-3 1-5 2-2l2 5 1 7v4l1 2v6l1 9 1 7v2c-3 2-3 4 0 4l2-2zm-1-22-1-7c-1-4-1-6 1-8 1-2 1-4-2-4l-2-2c-1-9 0-15 2-15l1 6 1 5 1-4c1-4 3-6 4-5l-1 7v6l-2 10 2 3c2 0 2 1 2 2v6h-6zm-7-40c0-4 2-4 2-1l-1 3-1-2zm3-19 1-5c2-3 2 2 1 6-3 4-3 4-2-1zm-3-1c-1-1 0-9 1-8l1 3c0 4-1 7-2 5zm-1-19 2-4c2-1 3 0 1 3-1 2-3 3-3 1zm5 94-1-1-1 2h1l1-1zm-3-4v-3l1-2 1-6-1 1-2 3c-2 2-3 4-2 6 0 2 1 2 3 1zm-28-33v-1c-2-1-1-4 2-7 2-2 2-3 1-6l-2-10-1-8c-2-2-2-5-1-12 1-4 0-9-2-13l-2-7c0-6 1-7 2-1 1 4 2 6 3 4 2-2 4-1 5 2l3 3 1-4 1-6v-4c-1-2 0-4 1-7l1-10 1-8c1 0 1-2-1-2-1-1-1-1 0 0h-1c-1-1-2-1-3 1v4c2 5 2 7-1 6-2 0-4 4-2 9 1 4 0 7-3 5l-1-3v-2l-1-2v-3l-2-6c0-2 0-3 2-4 3 0 5-4 4-6v-6l-2-8c-2-3-3-13-3-17l-1-3v-1c1-1 1-2-1-2-2-1-3 1-3 4l4 18 1 19-2-3-3-4v15l1 10c1 4 1 5-1 5s-3 3-3 10l4 27-2 3c-3 3-3 12 0 20l2 7 1 3 1 3c0 2 0 2 1 0l2-2zm114-6c-2-6-4-7-4-1 0 4 0 5 2 5l2 3h1l-1-7zm-108-16-1-1-1 1 2 1v-1zm14-1a385 385 0 0 1-1-5c-1 0-2 5-1 6 0 1 2 1 2-1zm-10-24 1-2c1-1 1-1-1-3l-3-2 1 3a566 566 0 0 1 2 4zm-7-3-1-2-1 1 1 1h1zm24-50-1-11-1-3-4-7-2 6-2 2-1 9c0 6 1 10 2 11l2 4 2 3c1 2 2 2 3-1l2-13zm-15-5-1-2v2l1 2v-2zm-4-8 1-6 2-5 1-5v-6l-1-6c0-4-1-6-2-7l-2-6c0-7-1-11-2-12-2-2-3 0-1 1v4c-3 3-3 12 0 15 3 2 3 13 1 13l-1-2c1-1 0-3-1-4s-1-1-2 1v2l1 6 1 10c2 4 2 5 1 7v2l2 2c0 4 1 1 2-4zm6-5v1c0 1 0 2 1 1l-1-2zm8-10-1-2-1 1 1 1h1zm116 735c-4 0-5-1-5-2l5-1c4 0 5 0 6-2 2-2 2-6 0-8h-1c0 3-3 2-4 0-2-3-1-8 1-8l3 2 1 2c2 0 0-6-1-8-3-2-3-5-1-10l3-5h-2c-2 0-3 0-3-2 0-3 0-3 3-3l3-2 2-2v9l-1 9v3c1 2 2 6 2 14 1 14 0 15-11 14zm171-1 1-1 1 1-1 1-1-1zm100 0c-2-1 10-10 15-10l3-2c3-2 10-2 13 0 4 3 4 4 0 4h-5c-2 1-3 1-5-1h-4l-4 3-8 4c-2 2-4 3-5 2zm185-2 8-12 3-4 4-5c2-4 3-4 4-3 0 2-5 15-8 16l-4 6-5 5c-2 0-2 0-2-3zm-470 1 2-5 6-12c0-2 1-2 2-2 2 0 1 6-2 11l-2 7c0 2-1 2-3 2l-3-1zm-107-3c-1-1-2-2-5-2s-4-2-1-4c3-1 7 0 9 4s-1 6-3 2zm371-1 3-4h8l-2 1-4 3c-4 4-6 4-5 0zm-167 1c0-2 5-6 6-5 2 0 1 3-1 4-2 2-5 3-5 1zm-158-1 3-4 3-4c0-2 1-2 2-2l1 5c0 4-1 5-2 3l-2 1c-2 2-4 3-5 1zm154 0 1-2 1 2-1 1-1-1zm79-2h2l-2 1v-1zm29 0c-1-1-1-5 1-5 1-1 2 0 3 1 2 1 3 1 8-1l4-2-2-2c-2-3-2-3 0-3 2-1 6 3 6 5l-2 3-6 3c-6 2-9 3-12 1zm205-1-1-5c0-4 0-5 3-7 5-4 6-5 6-7s-1-3-3-3-3-2-2-6c1-5 1-8-2-8v3c1 2 1 2-2 5-4 4-4 4-2 4 2 1 3 4 1 8v3c2 2-1 2-4 0-4-3-4-9 0-14 2-3 2-4 1-5-1-2 0-5 3-8v-11l-3-3c-3-2-9-3-13-2-3 2-4 2-5 0-4-2-4-2-23 13l-7 4-9 7-3 3-7 6-5 4 2 3c3 3 4 3 8-2 2-2 4-4 6-4l10-8a491052 491052 0 0 1 28-24l1 1-13 13-11 9-8 8 5-1c6 0 10-3 9-6l2-1h2c-2-1-2-3 2-6l10-9c6-6 9-8 9-5 0 2-8 9-11 10-1 1-2 2-1 4 0 2-1 3-5 8-7 6-9 7-17 8-10 2-15 4-16 7l-1 2-1 2c-1 2-1 2-6 1l-4-1-3-4-2-3-2 2c-2 2-4 2-6 1v-2c2-2 1-3-1-3l-3 3c-1 2-3 3-4 1-1-3 1-7 2-7l2-1 1-1 8-7 8-7 1-1-2-1-4-2c-1-1-1-1-5 1l-8 6c-4 4-4 5-4 10s-1 6-3 6-2 0-2-2c2-3 2-4 0-4l-1 2c0 2 0 4-2 5-1 1-1 1 5 3l-2 1-6 2h-2c-1-1-1-1 1-3 3-2 2-3-3-1-5 1-10 1-14-2-3-3-4-2-7 1l-8 2-6 1h-3c-2-2-5-2-8-1-1 2-2 2-3 0-2-2-6-2-6 1 1 2-1 5-3 5s-3-1-5-4c-1-3-2-3-2-1l-2 3c-4 2-4-3 0-8 4-7 4-7 1-5l-5 4c-1 3-7 7-8 6l-3 2h-4v5c-1 2-6 0-6-3s5-7 8-7c1 1 2 0 3-1l3-3c4-1 5-2 4-4v-2c1-2 1-3-1-3s-3 3-1 4c1 1 0 2-2 2-4 1-6 0-4-3v-3l-2-2-1-1v-1h2v-1h-3l-2 1c1 2-5 3-6 2 0-2-9-1-10 1l1 1c2 0 2 1 1 4 0 6-2 10-4 10l-2-3c0-3-1-3-4 2-2 3-6 4-6 1l3-4c2-1 2-2 2-3l3-2c2 0 3-1 0-2-1-1-1-2 1-5l2-4-3-1c-3-1-3-1-3 1 0 5-1 7-3 7l-3-1c-1-3-2-1-1 3 0 2 0 3-2 3-5 0-5-11 1-16 2-1 2-2 1-7 0-4-1-6-2-5l-1 5c0 5 0 5-3 5-2 0-3 1-3 4-1 7-4 10-6 6v-5c2-3 1-10 0-7-2 3-8 0-11-5l-1-2-1 3-3 4c-2 0-3-3-1-5l1-2c-1-2 1-4 3-4l6 4 5 3v-4l1-4 1-5c-1-3-1-4 1-6s3-1 3 3v3l4-3c4-3 6-4 6-1l2 2 1-2c-1-3-2-11-1-13 1-3-2-7-6-7l-3-1v4c0 3 0 4-3 4l-11 5c0 1-1 2-3 2l-14 8c-2 3-6 6-8 6s-1-2 2-3l3-2c0-2 13-11 14-10l3-2 4-2 2-2 4-2c2 0 6-4 6-6l-2-1-1-5 1-6v-3c0-2 0-4 2-5v-3l-3-16v-4l-2 2-24 24-9 9h5l4 1c0 2-1 2-4 2l-5-1c-1-1-4 0-5 2-1 3-5 5-5 3s19-21 24-25c3-1 7-5 9-8s4-6 6-6c2-1 3-4 1-6l-1-8c0-6 0-8 2-13 3-6 4-8 2-9-2 0 3-6 6-6 2 0 3 1 4 5v6c-1 1-2 0-2-4-1-5-3-3-4 3l-3 8-1 5 1 7c0 2 0 2 1 1 2-4 5-6 6-5 2 0 1 3-1 3v6c1 2 0 3-1 5v5c1 8 1 8 3 7 2 0 2 0 2 4a136 136 0 0 0 1 15c0 8 2 6 2-3l1-8 2-3 3-4c5-4 6-2 5 11v14c1 1 3-2 2-5l3-4 4-2c2 1 1 4-1 5l-2 4-1 4c-2 1-2 21 0 25v5l-1 8-1 4c-2 2 1 4 4 4h4c1 1 6-1 6-4 0-2 0-2-3-1-4 2-6 0-4-5 1-3 1-3-1-5v-2l2-4 1-4v-8l1-2c1 0 3 5 2 6v5l-1 2-1 4c-1 1-1 2 1 3 1 1 2 1 3-1l2-4c0-3 2-5 4-5l2-1c0-1 1-2 3-2l5-3 4-2-6 5c-6 5-9 7-8 9l3-2 11-5c0 1-5 5-8 5l-2 2-2 2c-6 1-9 7-5 11 3 3 3 5-1 8-2 2-2 2 0 2h3c1 2 4-1 4-5l2-4c1-1 1-2 1 4 1 4 1 6 3 5v-8l-1-4c0-2 0-3-1-2-3 2-5 2-5 0l2-2 3-2c3-3 15-10 17-10l4-2 4-2 2-1c0-2 3-1 3 1l1 3c0 2 0 2-1 1 0-2-3-1-7 1-11 6-12 6-12 5l-2 1-3 2c-2 1-3 4-1 8 4 10 4 10 0 13-4 4-5 5-2 5l1-1 1-1c1 1 2 0 2-1 2-2 3-1 3 3l1 4c3 0 6-3 5-5v-8c-2-1-2-7-1-8 2-2 2-3 0-5-1-2-1-5 1-5l2 2c0 2 5 3 5 2l10-6c1 0 2-1 2-3 0-3 0-4-1-3v-3c0-1 1-2 2-1l-1-2c-2-2-2-1-3-17 0-3-1-5-2-5-2-1-7-13-8-18l-1-10-1-8c0-2 0-3-2-3l-3-3c-1-4-3-5-6-2l-3 2-16 16-1 1c-3 0-2-2 4-8 8-9 14-14 17-15 1-1 2-2 1-4l1-4v-1l-1 1-1 1-4 3-8 7-4 4c0 2-6 7-7 6l2-3 2-4c0-1 9-10 11-10l5-4 5-5-2-2c-3-2-3-2-6 0-2 0-4 2-4 3-1 2-2 3-4 3l-7 5 1 1h1l-1 2-2 1-1 3-2 3-2 5-1 6-1 5-2 5c0 8-3 13-4 9-1-2 1-12 2-17l2-7 3-6c2-3 3-5 2-6 0-3 0-3-3 2-2 5-5 8-8 7-2 0-1-1 3-6 3-3 4-4 4-10l1-9c1-1 2 0 2 6l1 7 1-3c3-4 3-18 1-20l-1-3-1-2-1 3-1 2-1-9c0-8 0-12-2-19l1-4c3-2 2-4 0-3-2 0-3 0-3-3v-5c0-2 0-2-1-1-2 0-2-1-2-7 1-10 4-10 5 0l1 3c2 2 5 7 6 13 2 5 2 5 0 8-2 4-2 11 0 12l1 3 1 3c2 1 3 5 4 10v12c1 1 2 1 3-1l6-3 4-3c2-3 3-2 6 1 4 4 6 7 7 12 0 2 1 6 3 8l2 9 2 9 1 10 1 3 1-2 2-2v16l3-1c1 0 2-2 2-7 0-4 0-6 2-6s2 11 0 14c-2 1-2 11 0 14 1 2 1 2 1-4 0-5 0-6 2-9 4-4 4-10 2-9-3 0-2-2 0-3l2-4 2-5c2-1 2-2 1-6v-7c0-2 0-2 1 0 1 1 2 1 6-3a299 299 0 0 1 22-19c4-4 7-7 8-6 1 0-15 17-26 25-6 5-8 7-8 9l1 3 1-1 6-5a197 197 0 0 0 14-12l6-5c4-3 6-2 2 1-3 4-26 23-27 23s-4 3-4 7l-2 4c0 3 1 2 7-3l30-26 1-3c1-5 3-4 3 2l1 5 3 5c1 3 1 3 1-5l-2-11c-2-3-4-4-5-2h-2l1-2c2-2 2-2 1-6v-8c1-5 0-6-2-2a263 263 0 0 1-30 26l18-19c15-14 14-13 14-19-1-4-2-5-3-5-2 0-7 4-7 6l-1 1h-1l-18 18-4 5-1 2c-1 1 0 1 1 1l14-12c15-15 19-18 19-15a239 239 0 0 1-33 32c1 2 0 10-1 12-1 1-1 1-2-1l-1-13c-1-9 0-11 1-11l1 2v3l1-3c1-3 0-5-2-4-1 2-2-1-1-3 2-1 3-7 1-7l-1 2h-1c-1-1 1-3 1-6l1-6c-2 0-2-6-1-7 2-1 2-11 0-13l-1-4-3-5c-2-4-3-6-2-7l1-3 3-10c2-9 3-16 1-19-2-1-2-9-1-25l-1-7-1-4-1 4-1 5v1l-2 5c-1 1-2 3-1 4 2 2 4 32 2 32s-2-2-2-13c0-10-1-14-3-19-1-2-1-2 1-4l3-4v-12l-1-7c0-4 0-6-2-7s-3-5-1-5c1 0 2-4 1-6l-2-3c-1 0-2 5-1 6l-2 3-3 3-1 2v-6l-2-8-1-7-2-5c-2-3-4-11-3-13l-1-4v-3c1-3 0-7-3-12l-1-4c0-2-5-6-6-5h-2c-1-2-3 1-1 3 1 1 1 2-1 3-2 2-3 2-4-3s-3-4-2 2v20c1 18 1 18 3 18l1 1 1 1-2-4c-1-5-1-6 2-4h2l1-3c0-2 2-4 3-3 2 0 1 3-1 4v8l1 6c0 5 1 6 3 1 2-4 2-4 5-4s3 0 5 5l1 11v10c-2 0-3-5-3-9 1-2 0-6-1-10l-2-6-2 3c0 2-1 3-2 3l-1 2-2 1c-3 0-3 0-3 7l2 14c2 6 2 7 0 8v1c3 0 4 5 2 8l-1 5v3l-1 6-1 5-2 6c0 6-2 8-2 3l-1-4-1 3v9l1 9 2 5v-2l2-1 1 1c-1 1 0 2 1 3 1 2 3 14 2 18v7c3 5 2 9-1 7-3-3-2 12 1 19 2 5 1 7-2 3-3-3-4-8-4-17 0-6 0-7 2-7s2 0 1-7a388 388 0 0 1-8-25c-1-2-2-4-2-10l1-9v-4c-1-3-1-4 1-6l2-2-1-3c-1-4-1-22 1-29 1-5 0-6-2-3l-2 5v3l-2-2-1-2-9 3-6 1c-6 0-7 1-8 3s2 13 3 17l2 7c0 4 2 11 3 11s2 12 1 16c0 3-1 4-2 4l-1-7-1-10-1-3-1 2c-2 4-3 3-2-2 1-4 0-8-1-5s-3 2-5 0c-1-2-2-1-3 4-2 7-1 11 2 15s5 10 3 10l-3-3-6-10c-6-8-7-12-6-15 1-2 1-4-1-9-3-8-3-9-5-7-1 2 0 7 1 7l1 3c0 2 0 2-3 1-3-2-3-1-2 8a73 73 0 0 1 1 24c1 2 2 8 1 9-1 2-3 0-4-7v-20l-2-7c0-3-1-4-3-2-3 3-16 5-16 2l4-2c4 0 5 0 11-3 7-4 9-9 8-27 0-3-1-6-3-7-2-4-2-4-2-17 1-14 1-15 5-19 2-2 3-4 0-12-1-7-2-6 2-11 2-4 3-5 2-7s0-7 2-7c1 0 2 1 3 8l2 6 1 3 5 11 4 11 4 12 1 11 1 11h3l3-1c6 0 11-1 13-3l4-2 3-1 2-2-2-3c-3-4-5-16-2-20v-4l-2-5-1-7v-12l-5 3-21 10c-2 0-1-2 1-3 8-6 17-11 20-11l7-4v-5c-1-5-1-10 1-13l2-9 1-8v-9c-2-2-1-6 2-9 3-2 4-3 4 0l3 3 3 1v12c0 10 1 14 3 16l1 2c-1 1 0 3 1 4l4 6 3 4 7-6 4-3 6-3 7-7c3-2 5-5 5-6 0-2 7-9 9-9s3-2 4-4c1-5 3-7 8-10 4-2 12-3 14-1 0 1 4 2 9 2l11 3c2 2 3 2 3 1h3l3 1c2 0 8 3 9 5l3 1 7 6 8 7 3 2 3 2 2 1 4 1 8 6 8 6c2 0 2 0 2-5l-3-8c-2-2-2-3-1-6l1-4v-18c-2-3-1-5 0-12 1-6 2-8 3-8l1-9 1-11 4-3c3-2 4-2 4 4l2 8 2 13 2 12c2 6 1 8-1 8l-2-3-2-4v6l1 2c1 2 2 7 0 10v2c2 2-1 16-4 16v4c2 2 2 11 0 13v5h-3v-4l-2-3c-1-1-1 0-1 2l1 6 2 6c0 3 0 5-2 6l-2 3c1 2 1 2-1 2-1-1-2 0-2 1 0 3 2 7 3 7 2 0 3 2 2 7s-1 10 1 15c0 2 0 3-2 5s-2 2-1 4l1 6 2 5c2 2 3 1 3-3l-1-4 1-21c4-2 4-1 4 12-1 24 0 42 2 48 2 3 2 3 3 1l1-7c0-5 1-8 3-8l-1 15-2 7c-1 6-2 8-3 7l-1-5-1-6-1-2-1-5c-1-2-2-3-3-2v4l1 6 1 5c1 1 1 1-1 2-1 0-2 1-2 3-1 2-2 3-4 3s-2 0-2-6v-9l1 1 2 1c2 0 2 0 1-2v-2l1-3c0-2 0-2-3 1l-4 2v-1c0-2-1-6-3-6v9l2 8c1 5 2 7 4 9l3 2c2 0 1 5 0 6l-2 4c0 2 0 2 1 0l1-2 1-1 2-2 1-4c-2-7-2-7-1-8 2-1 4 1 6 6 1 5 1 8-3 13-3 3-3 4-3 8 1 4 0 10-2 10l-2-3c-1-2-1-3-2-2s0 2 1 3l1 4 2 3 2 4c2 7 8 15 8 10l1-7v-9l1-2v-3l-1-3v-13c-1-2 1-8 3-8s5 7 3 9c-1 2 0 7 1 7l8 8 2 4c2 2 3 6 1 6s-2 2-2 4l-1 3-1 3-2 19c-2 19-2 36 1 50l-1 2-2 16-2 6 1 4c2 4 2 4 2 2 1-4 3-2 3 3l1 7 3 4 1-5 1-7 2 5 1 8c1 2 1 2 3 0l1-3v-3c2-2 3-18 2-24-1-4-1-5 2-10l2-6c-1-2 1-4 2-4 2 1 2 3 0 11v13l-1 10-2 7c0 3 0 3 4-3l10-11 1 2v10c2 3 1 5-3 5-3 0-3 0-2-4l-1-4-7 10-1 2c-2 0-7 5-7 7l-2 3-2 6-2 4c-3 0-4-3-3-6 1-4 0-6-2-5-1 1-1 1-1-3 1-4-1-9-2-9l-1-2c0-4-3-4-4 0s1 10 3 12l3 6v8l-3 11c0 7 0 8 3 11 2 4 2 4 0 6l-2 1-1 2-2 2v3c1 4-4 11-5 8zm-139-20v-6c0-5 0-5-2-5s-2 1 0 5l-1 2h-3c-1 1-3 3-3 6l4 1c3 0 4 0 5-3zm-25 0c2-1 0-4-2-4-3 0-5 2-5 4 1 2 5 2 7 0zm-11 0-1-1v1l1 1v-1zm21-1-1-1-1 1 1 1 1-1zm33-1 2-3c0-1-3-4-5-3v7l3-1zm13 0-1-1s-2 0-1 1l1 1 1-1zm33-3a226 226 0 0 1 19-15l9-8a163 163 0 0 0 14-10c2-1 2-2 1-4-2-4-5-4-9 1l-6 3-4 3-4 3-5 4-5 4-5 3-18 16c-3 2-3 2-1 3 3 2 10 0 14-3zm-72-1v-1c-2 1-2 3-1 3l1-2zm-7-1c2-2 2-2 1-4s0-9 1-9c1 1 2 2 2 5l1 5c1 2 1 2 3-1 2-5 5-6 8-2 2 2 4 3 5 2h4l4-2 4-2c3 0 4-1 6-3 1-2 3-4 12-8l6-3c3-1 3-1 4 1 0 1-4 5-6 5l-5 2c-2 2-3 2-5 2l-4 3c-4 4-5 8-3 10 3 1 10-3 17-9l8-7 3-2c2-1 2-3 2-6s0-4-1-3c0 3-2 5-4 3-2-1 0-6 2-6 2-1 3-2 4-8 0-4 1-6 4-9s3-3 2-9c-1-7 0-20 2-21l1 11c0 11 1 17 3 13 0-2 0-2 1 0 1 1 1 2-1 3l-3 3-2 3c-2 1-2 3 1 3l1-1 2-2c1-1 1 0 1 3l-2 6c0 2 0 2 1 1l2-2 2-4 2-6 1-4 1-3 1-2c2-1 3 2 1 4l-1 6-3 7-1 4-1 4-1 3-1 3c-2 1-3 4-1 5 0 1 3-1 5-4l14-10 9-4 5-2-4-4-6-3-4-2c-1-3 9-1 12 2 1 2 3 3 6 4 3 0 5 1 8 4l4 4h9c8 0 8 0 12 4 5 6 8 5 5-1-2-4-2-15-1-15 2-2 1-5-3-11l-4-7-2-4c-3-3-4-6-4-9l-2-7-2-5-2-3c-3-2-5-14-4-18 1-2 2-2 3-1 3 1 5 6 3 7h-1l-1-1-1 4c0 3 0 3 3 3 1 0 2 0 1-2h1l3 2 1 2 2 1-2-3-5-13c-4-11-4-12-4-23 1-10 0-11-1-8l-1 11 1 9-2-3c-2-2-2-4-2-11 0-8 0-9-2-12-3-5-3-9 0-12v-7c-2-5-2-9 2-13l2-2v-3l1-7-2-5-2-12-1-6-3-10 3-5c4-4 4-6 1-12-1-3-2-6-1-14l1-12 1-7c0-4-1-6-3-7-3-3-4-11-2-16l3-4c1 1 4-7 4-10l1-3c1 0 2-2 2-8v-8l-3 1h-6l-7 2c-4 2-8 6-7 7 0 1-6 3-10 3l-5 1-13 3h-4c-2-1-3 0-9 6s-15 13-18 13l-1 1-3 2-10 6-8 4-5 1-9 3-8 2h-3c-2-1 1-4 4-4l2-1 8-2c6-1 19-6 19-8l1-1 5-3 7-4 21-16c4-3 4-3 14-4l11-3 5-1 6-2 6-4 8-4 1-3c-2-2-7-6-10-6l-6-2-6-4-8-7c-5-5-5-5-10-5l-6-1h-17c-1-1-3 1-4 1-2 1-5 2-9 1l-6 1-7 2c-5 0-6 0-7-2l-1-2-1 3c-1 2-3 3-3 2l-3 3-5 6a961 961 0 0 0-18 14l-11 7c-4 2-4 4 2 10l5 7 1 5v6c-1 2-1 3 3 7 4 5 6 8 5 11-1 2 3 16 5 19 2 2 4 14 3 15-1 0-1 19 1 20l2 7c1 5 0 8-3 14-1 2 0 3 1 5 2 2 2 4 3 16l-1 35c-1 1 0 6 1 6v3c-1 2-1 5 1 5l11-11-4-2v2c3 1 2 1-3 2-2 0-3-1-3-2 0-3 4-6 7-7 2 0 5-1 7-3 4-3 6-4 12-5 5 0 6-1 5-7a2728 2728 0 0 1 1-17l1-12c0-7 1-10 2-11v-8c2-1 2-3 1-9l1-7 1 4c1 6 3 7 3 1 0-4 0-5-3-6-2-3-2-3 0-5s2-9 0-7l-1-1v-1l1-4 1-6c1-1 0-2-1-3-1-2-1-2 1-6 2-3 3-4 2-7 0-2 0-4 2-5 2-2 4 0 4 5l2 5c2 2 3 2 2 13l1 12c1 0 3-2 4-5 1-4 3-4 3 0a507 507 0 0 0 0 24v11h1c0-2 5-6 6-6s2 1 2 3c1 2 2 5 4 6 6 6 8 15 4 18-2 1-2 2-1 4s0 11-2 12l-1-5-1-5v-11l2 1c0 3 2 1 2-1 0-3-3-6-5-6l-3-5-3-4-1 1v5l-1 6c-1 3-1 4-4 4-3 1-3 1-3-3 1-3 3-6 3-2l1-1c1-3 1-4-1-5-2-2-4-12-3-16v-14 3c0 2-1 1-3-1-3-3-4-5-3-16 0-9 0-11-2-13-1-3-2-3-4-1-2 1-2 1-1 4l3 3v15l-1 3-1 1c-2 0-2-1 0 6 2 6 2 9-1 13l-2 4v7c1 3 1 6-1 6-3-1-3 3-3 12 1 6 1 7-1 9-2 1-2 1 0 9v11l-1 16c1 12 2 18 4 18l6 12 3 6c2 5 2 5 1 6-2 2-3 5-1 14 0 4 1 5 2 5 2 1 2 1 0 4v5c2 3 2 5 1 13-2 9-3 8-3-2v-6l-1 2c2 0 1 2 0 2-2 0-2 1-2 5l-1 5-1 2v2c2-1 3 13 2 14s-1 1-2-1l-2-4c-2-3-2-5-3-16a73 73 0 0 1 2-20c1-4 0-7-1-9-2-3-2-8-1-8l2 3c0 3 2 5 3 2l-1-4c-1-4-1-4-4-3-1 0-2 0-1-1l-1-2c-1-1-2 0-3 1l-1 1-9 7c-3 4-7 7-8 7l-5 5-8 7c-4 2-7 3-7 1s9-10 15-14l7-6 4-4 8-5 5-6-2-2-2-2-2 2c-3 4-12 14-14 14l-7 6-7 6c-2 0-8 6-8 9l-1 6c-1 1-1 1 0 0 2-2 3-2 3 0 0 0-1 2-3 2l-2 3v1l-1 5-1 6v8l1 5 1 7c2 1 2 1 1-4v-22c1-1 2 0 2 8v8l5-3 6-2 3-1 8-1c7 0 7 0 10 2 2 3 3 3 5 3 3-1 4 0 7 2 4 3 3 5-1 3l-8-1c-4 0-5-1-6-3s-1-2-7-1l-7 1-6 1c-6 0-9 3-9 8l1 5c1 1 3-1 5-3l6-3 2-1c2-3 13-8 14-6l-6 4-8 5-5 3-2 2-5 2c-2 0-2 1-2 5 0 6-2 7-3 3l-3-4-1-3c0-4 0-4-2 0v7l-1 4c-2 0-2 3-2 7-1 6-1 6 1 6l4-1zm17-9 3-3 3-2 1-1 4-2 5-3 4-2 5-4 5-2h7l-8 4-3 2-3 2-11 6-11 6-1-1zm-5-4c-1-1 3-4 5-4l4-3 11-8 2-2c3-2 13-7 14-6 1 0-5 6-7 6l-3 2-6 5-4 3-3 1-4 3c-3 3-8 5-9 3zm79-31 4-2c3-1 3 0 3 1l-4 2-3-1zm-11-12c-1-3 0-9 2-9l1 5-1 5-2-1zm10-3-2-6-2-5-1-4c-2-2-2-14 0-16 1-2 2-1 2 3 0 2 1 4 2 3 1 0 2 2 3 11l1 13-1 4c-1 0-2-1-2-3zm-2-19h-1l1 2v-2zm-62 9 14-15h2c0 2-13 16-15 16l-1-1zm80-8c0-2 1-3 11-12 4-5 8-8 9-8 1 1-1 5-11 14-6 7-9 8-9 6zm-31-4c0-3 3-2 4 0 0 1 0 2-2 2l-2-2zm19-4c-1-2 1-5 7-9l5-5 12-10c2 0 1 4-1 5l-8 7c-14 14-14 14-15 12zm-18-1 1-2 1-6c0-6 1-8 3-7v6l-1 8c-2 2-4 3-4 1zm-5-5c-2-3-1-4 2-8 3-5 3-5 3-11-1-6 0-10 1-9l1 2 2 2v-6c0-3-2-13-4-16-1-1-1-1-1 2v4l-1 2-1 3-2-3-2-2-1-5c1-6 0-21-1-21l-1 3-1 2v-12l-4-1-1-1c0-3 2-4 4-1 1 1 1 1 1-3l1-8c0-3 0-3-1-2-2 1-2 2-2 4 1 2 0 3-1 4v-1l-1-4c-2-3-3 14-1 17 3 5 5 20 3 20-1 0-2-2-2-7s-1-8-3-9c-1 0-2 8 0 10v5l1 3v2l1 3c2 1 2 1 2-1l1-3 2 4c0 2-1 2-2 2l-2 1-1 1c-2 0-2-1-2-4l-1-5-2-6v-14c2-7 2-18 1-20v-3c1-1 1-2-1-7l-1-7h1l5 13 1 1c1 0 2-1 1-2l2-4c2-3 3-2 3 3l1 3c2 0 3-2 3-5 0-2 0-2 1 0 3 3 4 9 4 18 0 6 0 10 2 13l2 11 1 12 1 11v7c1 1 0 1-1 2l-2 1h1c2 0 3 3 2 6l-3 2c-2 1-4 5-5 10 0 4-1 5-3 2zm3-49c0-2 2-2 2-1v-11c-1-7-1-8-3-6h-2l1-1v-3l-1-6c0-4-2-8-3-6s0 11 1 11l2 18c0 4 1 6 2 6l1-1zm0-36-2-2c-1 0-2 0-2 2s1 2 2 2l2-2zm17 87-1-5-1-7v-3l1-6v-5h3c3 1 4 1 9-4l9-8 7-6c3-3 8-6 9-5 2 0 0 2-6 6l-6 6-5 4-13 11c-4 4-4 5-4 16l-1 5-1 1zm-27-10v-2l3 2h-3zm31-1c-1-1 7-8 17-17l9-9 5-5c2 0 1 4-2 5l-6 7c-4 5-6 7-13 12l-6 6c-1 2-3 3-4 1zm-29-5c-2-3-3-6-1-6l4 7c0 2-1 1-3-1zm28-13v-18l-4-7-1-7-2-7c0-4 1-5 3-4l2 6 1 5 1 4 1 3 7-6 8-7 5-4c3-3 5-4 5-3v3l-3 2-9 8-10 9c-2 1-2 1-1 3s2 15 1 16l-1 2c0 2-1 3-3 2zm-7-4v-4l2-4 1-3 1 6c0 7-2 9-4 5zm-16-1v-2h1v2h-1zm31-5c0-2 20-20 21-20 2 0 0 3-8 10-9 9-13 12-13 10zm-2-7 2-3 2-3 1-2 4-3 4-2v-1c0-1 2-4 4-4l2-2c1-2 4-3 4-1s-8 11-10 11l-2 2-4 2-4 4c-1 3-3 4-3 2zm-6-18c1-1 0-6-1-11-1-10-1-13 1-8 1 3 2 3 4 2 8-1 24-2 26 0 2 1 0 2-4 2-3 0-4 0-7 3l-6 4-6 5-6 6-1-3zm7-6 7-6c2 0 3-2 3-2h-15v5c0 7 1 7 5 3zm14-63-6-3-5-4-6-1-12-3c-8-1-11-2-7-4h13l7 1 4 1 4 2 2 2c0 2 4 6 8 6l3 3h-5zm-48-3c1-4 2-5 3-3l-1 4c-2 2-2 2-2-1zm-18-14c-2-3-6-6-12-9-3-2-4-2-7-1l-5 4c-3 3-8 5-8 3l-3-2c-3-1-2-2 3-3l5-1 1-1 4-2c3-2 6-2 14 0 5 1 12 8 12 12-1 3-3 4-4 0zm-15-5c-2-1-2-1-1-2 3-1 6 0 6 2h-5zm-10 243h-1l1 2v-2zm-33-4 2-9c0-6 2-11 4-13 2-3 1-5-2-3l-5 3c-3 1-3 1-1 3 1 2 1 4-2 4-2 0-2 1-2 3l-1 4-1 1v2l-2 4v3l1-3c1-2 1-3 4-2v3c0 3 1 5 3 5l2-5zm132-2c2-2 0-3-2 0l-1 2 3-2zm-180-2-1-2c-1-2-2-2-3 0-2 1-2 1 0 3 3 1 4 1 4-1zm-14-8c2-5 3-11 3-21-1-12-1-16-3-16l-2 4-1 33c0 4 1 4 3 0zm52 0-1-3-1 3 1 2 1-2zm181-5c0-2-2-1-2 0-1 1 0 2 1 1l1-1zm-248-1 1-2 1-4c0-3 1-3 3 0 1 2 2 2 2-1 0-4 0-4-3-4-6 1-9 3-9 6 0 4 2 7 4 7l1-2zm160-1 1-4v-12h-2v18l1-2zm-68-1-2-2c-1-1-1-1 0 0 0 2 2 3 2 2zm169-7c-1-2-3-2-3-1l2 2 1-1zm-177-20c-1-1-1-1-1 2l1 2v-4zm-68-8c-1-1-3 1-3 3h2l1-3zm226-6 2-6c1-3 2-5 1-11a310 310 0 0 1 3-56l-4-6-2 23-2 6-3 4-1 2-1-6c1-5 1-6-1-7-3-2-6-8-6-12l-1-6v-4c1-3 4 2 4 8l3 8 2 4 1 1 1-1-1-2c-1 0-2-4-2-12l-4-7-3-4-1 3c-3 6-2 24 0 24v-6l2 5c1 4 1 5-1 7v2c2-2 4 1 4 4s0 3-1 2l1 4c1 5 3 6 2 1l1-3a271 271 0 0 0 4 18c1-1 2 0 3 3 2 5 1 13-2 18-2 3-2 4 0 6l1 4 1-3v-5zm-13-81c-1-1-1-1 0 0l1 2-1-2zm-229 81-1-1-1 1 1 1 1-1zm240-11-1-7c-1-3-6-7-8-7l-2-2c-1-2-1-2-1 0-1 2-1 3 1 5 2 1 2 3 3 9 1 10 2 12 6 9 2-1 2-2 2-7zm-95 6-1-1-1 1 1 1 1-1zm124-3-1 1v2l1-3zm-34-24h-1l1 2v-2zm6-43c3-7 2-11-1-6l-2 9c0 4 0 6 1 5l2-8zm8-8 1-7v-5l-1-6-2-5c-2-2-2-2-1 4 0 6-1 8-2 2-2-8-3-10-4-10-2 0-1 12 1 15 2 2 3 6 4 9 1 7 4 10 4 3zm-25-1-1-4-2-3c0-2-3-1-4 1-2 4-1 8 2 9h3c1 2 2 0 2-3zm-107 2c1-2 0-2-2 0l-1 1 3-1zm110-5h-1l1 2v-2zm13-1-1-3v3l1 3v-3zm-22-17c0-2 0-2-1 0v3c2 2 2 1 1-3zm-191-10-1-2-1 2 1 2c1 0 2-1 1-2zm69-8-1-7c-2 0-3 7-2 10 2 5 3 3 3-3zm126-8-2-1v1c2 2 3 2 2 0zm-213-29c0-22 0-22-2-23-3-1-3-2-3-6 0-7 1-8 4-4s4 13 4 25c0 6 0 7 2 8 2 2 3 2 5 1 3-1 3-2 2-6 0-3-2-3-2 0-1 3-3 2-2 0a359 359 0 0 0-1-28c0-14-2-22-4-19l1 4 1 5c-1 3-3 3-4 0l-1-4-1-3v-4c-1-2-1-2 2-4 2-3 3-5 1-3-2 1-2 1-2-2 0-2 0-2-1-1-1 2-2 1-1-2 0-5-1-6-2-5-1 0-2 1-1 3 0 4-2 4-3 0v-9c0-5 0-5-2-4s-2 2-1 7l1 8c0 2-1 4-2 2-1-3-4-1-4 2l-1 2c-2 1 1 6 2 6 3 0 2 3 0 5-2 1-2 3-2 7 1 6 1 6 2 0 1-10 3-6 3 6l1 14 1 5v4l2 3 1 3 1 3 1 3 1 5 1 6 1 3 1 2c1 0 2-4 1-15zm-11-25 1-4c1-1 1-1 1 1l-1 3h-1zm1-7v-2c1-2 2 0 1 2h-1zm0-7 1-1h1l-1 2-1-1zm0-5v-4h2c1 2 0 6-1 6l-1-2zm1-11c0-2-3-4-4-3l-1-1 2-1c1 1 2 0 3-1 1-5 4 0 3 5 0 3-3 4-3 1zm226 56-2-3c-3-3-4-1-1 1 1 2 3 3 3 2zm3-4-1-12-2-4c0-2 0-2-2-2s-2 0-2 3l2 4c1 2 1 6-1 7v2l1 2 2 1 1 1 1 1 1-3zm-178-6-1-1v1l1 1v-1zm2-7 1-2 2-5v-3l-2-1 1-2 1-2-2-1-1 4-1 5-1 5c0 3 0 5 1 4l1-2zm166-7c0-8-1-10-2-4-1 4 0 11 1 11l1-7zm-74-1c-1-2-2-1-1 2 0 2 0 2 1 1v-3zm-93-18v-3c1-3 0-14-2-13l-1-2 1-2c2 0 4-3 3-4l-3 1c-3 2-5 6-3 7v3c-1 1 0 3 1 7l4 7v-1zm170-2h-1l1 2v-2zm-2-18-2-1v3h2v-2zm-4-3-1-5c-1-1-1-1-1 1v5l1 2 1 2v-5zm-138 2-1-3c-1-1-1 0-1 2l1 3 1-2zm-1-10c0-4-2-9-4-10s-2-1-1 3l2 7c1 3 3 3 3 0zm-23 0h-1l1 2v-2zm-56-12v-1c-1-1-2 0-2 1s2 2 2 0zm227-28-1-1h-1l1 1h1zm-174-8c-1-1-1 0-1 2 0 1 0 2 1 1v-3zm177 2 1-1a1151 1151 0 0 1-2-25c0-3-1-4-2-4-2 0-2 0-2-3 1-1 0-3-1-5s-1-2-1 3l2 7 1 4c-2 7-2 8-1 8l3 4 1 4-2 5v2c2 2 3 3 3 1zm-4-5-2-2h-3v4h3l2-2zm-101-10-1-2-2-1-2-1 2 3 3 1zm12-2-3-1-1 1 2 1 2-1zm-10-8h-2v1l2-1zm104-21c-1-4-3-5-3-1 0 2 2 6 3 5v-4zm-1-13c-2-4-2-4-1-1l1 5c2 2 2 0 0-4zM533 901c-1-1 1-2 3-1l1 1h-4zm-295-1c-2-1-1-4 0-4l3-2c1-2 1-2 3 0 2 1 2 2-1 4-4 3-4 3-5 2zm17-1c-2-1-3-4-1-4 1-1 7 2 7 3-1 2-4 2-6 1zm64 0c-2-1-1-6 1-7 2 0 2 1 2 3 0 4-1 5-3 4zm184-1c-3-1-3-4 0-6 2-2 4-2 4 0 0 5 8 1 9-4 1-4 4-4 8 0 3 2 8 4 12 2 4-1 11 0 11 2 0 1-5 3-8 3-1-1-2 0-2 1-1 3-8 2-7 0 0-2-1-2-3-2l-3-1c-1-1-4 0-9 4-4 2-8 2-12 1zm-326-4c-2-2-1-8 0-9 3-1 5 2 5 6 0 3 0 4-2 4l-3-1zm566 0c1-2 4-4 5-2l1 2h-6zm-30-1v-4h10c5-2 11-1 14 1s2 4-1 4l-4-2-2-2-5 2c-6 2-10 3-12 1zm105-1 3-6 3-6 1-2 1-2 2-5 4-7c2-4 4-5 4-3l-1 5-3 6a294 294 0 0 1-9 19c-2 3-5 4-5 1zm-28-1-2-2c0-4 6-4 7 0 0 3-3 5-5 2zm-242 0v-5l2-7c0-4 1-4 3-4s2-1 0 8-2 10-5 8zm232-2c-1-2 0-5 2-5 1 0 2 3 1 5h-3zm87-1c-1-1 2-7 11-20l6-10 3-4c2-3 3-3 4-2l-2 6a4837 4837 0 0 0-15 25c-4 6-6 7-7 5zm-747-4v-2c1-2 9 0 10 2 0 1-8 2-10 0zm44 0c0-2 3-4 5-3l2 2c0 2-1 2-4 2l-3-1zm-60-1-1-2 6-1c6 1 7 2 6 3h-11zm408 0c0-2 5-8 7-8s1 3-3 6l-4 2zm44 0 5-4c3 0 2 2 0 3-3 2-5 3-5 1zm-303-1-2-2c0-2 1-2 4-2l5-1c1-2 7-1 9 1 1 1 2 2 1 3h-4c-3-2-3-2-6 0s-3 2-7 1zm481 0h-3c-3-1-4-4-1-4s8-3 8-4c0-2 7-11 11-15l2-3 3-2c3-2 4 1 1 5-3 3-3 3-1 5v3h-3c-1-1-10 9-12 13-2 3-4 4-5 2zm52-2-2-5-1-4c-2-2-2-5 0-8l1-8c1-7 2-7 7-3l3 6 1 3 1 2 1 1v-5l1-6 2-5c0-2 3-4 5-2l1-2v-3c1-1 2-2 1-3 0-2 0-2 2-2s3-1 3-2c1-2 3-3 3-1l-2 4-3 5c0 2-1 3-2 3l-1 2-3 4c-2 2-3 4-3 7l-3 11c-1 1-6-2-6-4l-4-12c-2 0 0 18 1 20l2 6c1 4 1 4-1 4l-4-3zm-612-1c-4-2-4-3-1-4 2 0 8 4 7 5 0 1-2 1-6-1zm688-2c-1-1 1-5 7-14a157 157 0 0 0 9-15l3-5 3-5c1-2 1-2 3-1 2 2 1 4-1 8a285 285 0 0 0-20 30c-1 3-3 4-4 2zm-330-1v-1l1 1v1l-1-1zm315 0c-1-1 0-4 2-7l4-6 4-6 3-6 4-5 5-9c2-4 5-7 6-5l-1 3-8 14-3 5-2 3-3 6-4 6c-2 5-6 9-7 7zm-35-3 2-3 12-21c1-4 3-5 3-2l-4 11-2 4-3 4-3 6c-1 2-5 3-5 1zm24 0 3-7 1-2 2-6a152 152 0 0 0 13-20l3-5 1-1 3-4c3-4 5-6 6-3 0 1-4 9-6 10l-1 2-1 1-3 5-4 6-5 8-5 8-2 4-1 2-1 2-1 1-2-1zm-35-1 2-5 4-7 2-4 2-3c0-3 2-5 4-5 3 0 3 4-1 7l-3 5-1 3-2 5c-2 4-6 6-7 4zm-643-2c-2-2-2-2 4-2 4 0 5 0 5 2-1 2-7 3-9 0zm228-2c0-2 1-4 3-4s2 1 2 2c-1 3-4 4-5 2zm61 0-1-13-1-14-1-6-1-4-1-4c1-4 1-4 3-3s4 9 3 10v2c2 2 3 14 2 16v3l1 5-1 6c0 2-2 4-3 2zm9-6c0-2 1-3 2-3l1 2c-1 3-3 4-3 1zm455 1c-2-1-1-4 1-5 2-2 8-10 8-12l1-1 5-8 5-9 2-3 2-4 1-2 3-5a705 705 0 0 0 18-26c3 0 3 1-1 7l-3 4-3 5-8 13a128139 128139 0 0 1-21 36c-5 10-8 13-10 10zm-498-3-20-1-17-1 10-4 11 1 13 1h7l-1-3-2-2-1-3c-1-1-2-14 0-15 1 0 2 4 2 12 1 5 3 3 3-3l1-3c2-1 3 2 2 7v12c0 2 0 3-2 3l-6-1zm53 0v-2h3v2h-3zm398-1 1-3 7-13a531 531 0 0 1 16-28c3-2 4 1 1 6l-2 5c0 1-4 9-10 16l-4 7c-6 11-9 15-9 10zm-391 0v-5l1-7c0-2 0-3 2-3l1 3-2 7c0 5-1 7-2 5zm-18-2c-1-2-1-3 1-3v-15l2-7c0-4 0-5-2-6s-2-2-2-8c0-5 0-6 2-6s2 1 2 4l2 7c1 3 1 11-1 15-1 3-1 3 1 5v15l-5-1zm12-2v-3l1-5c0-4 1-5 3-3l-3 12-1-1zm21-2c0-3 2-5 3-3 2 1 0 6-1 6s-2-1-2-3zm-55-1-1-11a224910 224910 0 0 1-3-12c-1 1-1 1-1-1v-2l-4-2c-2-2-2-2-3-14l-1-15v-20c2-1 2 1 2 5l1 6 2 12v10l3-2 2-1-1 3-1 5c-1 1 0 2 3 1l1 2c-1 2 0 7 2 8a145 145 0 0 1 1 26c0 2-2 4-2 2zm-7-31c1-2 0-7-1-7l-1 4c0 4 1 5 2 3zm-326 27 1-2 6-1 6 1c4 0 5 0 3-1-4-2-2-3 4-3s8 1 3 3c-2 1-2 1 1 1 6-1 6 2 0 2h-24zm392-5 3-2 4-3c2-2 6-4 7-3l3-2 11-5c3-1 3-1 3 1 0 1-1 2-4 2l-7 3-6 3-3 2-2 1-4 2c-1 2-5 3-5 1zm347 0 5-9 3-3c3-7 6-11 7-10 2 0-1 6-7 14-4 7-8 10-8 8zm-333-1c1-2 4-4 5-3s-2 4-4 4l-1-1zm319 0 2-4 1-5 1-2 3-7 5-11 3-5c0-2 3-6 4-6l1 8c-1 7-1 8 1 7l1-2 2-1c2 0 2 0-2 6-3 7-5 7-5 0 0-9-3-7-4 2l-3 6-4 8c-3 6-6 9-6 6zm-352-1c0-1 5-5 6-4s-2 5-4 5l-2-1zm432-2c-1-1 1-5 3-8l4-7 3-5 3-5 1-1 1-1 2-4a68 68 0 0 0 9-16l2-3c1-4 3-5 5-4l1 1-3 7-1 2-1 1-3 5-3 4-3 5-4 6-3 5-3 5c-2 2-2 4-2 5l-1 1-2 3c-1 4-5 6-5 4zm10-1c-1-1 3-8 4-9l2-4 2-3 3-5c5-9 8-13 10-13s1 2-1 6c-2 1-3 4-3 5l-2 3-1 2-6 10-3 5c-2 3-5 5-5 3zm-770-1-13-1-8-2h-15l-14-1c-1-2-1-2 9-2l12-1c1-3 3-2 4 0 3 3 4 1 2-2s-1-7 1-7c1 0 4 6 4 9l2 3c4 1 5-1 4-5v-10l-1-8-1-7-2-8c-2-1-3-1-12 6-5 4-6 4-6 1l3-3 4-3 4-2c6-2 8-7 3-9-3 0-7 1-9 3l-5 3-5 4-4 2-3 2-3 2-1 1-6 2c-1-1 0-3 3-5l6-3 2-2 5-3 6-3 2-2c1-1 1-1-4-1a38 38 0 0 0-7 1l-4 3c-3 3-11 7-12 6s3-5 7-7c4-1 5-2 2-3-2-1-3-3-1-5h7c4 0 5 0 6-2 1-3 6-4 13-3 4 0 6 0 7 2 4 4 11 4 9 0-1-2 5-6 7-5s1 5-2 7c-3 3-3 5 0 5 2 0 2 1 2 3l1 2 1 7c0 5 0 6-2 8l-2 4c2 3 2 13 1 13l-1 7c-1 5 0 6 2 6s2 0 1-5c0-4 2-10 4-8l1 9c0 7 0 8-2 8l-2-1zm324-2-1-3-2-5-3-5c-2-2-3-25-1-28l1-5 3-8a1010 1010 0 0 0 8-16v7l-1 3-4 6-2 6-1 5c-1 2-1 2 1 2 3 0 3 0-1 4-2 2-3 3-2 4 0 2 2 3 2 1l1-1 4-3 5-3 3-2 3-2c1 0 21-19 21-21l-6 2-7 2-2 2c0 1-15 17-17 17-3 0 1-5 10-12 3-3 4-7 1-5h-3l-5 6c-3 6-6 6-3 0 1-5 6-9 7-8l3-1 3-1 2-1 3-2 15-5h4v4a1394 1394 0 0 0-42 48l1 4 1 6c2 3 3 10 2 10l-1-2zm-1-27c5-4 10-9 8-9l-4 3-6 4-3 4c0 2 1 1 5-2zm12 28 3-4a107 107 0 0 0 12-8l5-3c4-3 4-5 1-5l-3-1-2-1c-2-1-4 0-5 2-3 2-2 4 1 2 2-1 2-1 2 1l-2 1-3 1-4 4c-3 1-6 3-7 5l-4 2c-2-1 6-9 7-9 2 0 6-3 6-4 0-2-6 1-9 3-3 3-6 4-7 2-1 0 0-2 2-3l3-3 5-1 8-4 8-4 5-1c1 0 5 3 5 5l2 2 1 2c0 2-4 5-5 4l-3 2-7 5-6 4-8 5-1-1zm-105-2c-2-6-2-12 0-17v-20c2-1 4-1 4 1 2 3 2 17 1 19l-1 9v9c-2 2-4 1-4-1zm13-2c-2-3-2-9-1-14v-3l-1-6c0-4 0-5 2-6s2-1 3 1c1 3 2 23 1 28 0 4-3 4-4 0zm190 0 4-3c3-1 3-1 1-3l-5-2c-4 0-5-1-7-3-4-3-5-4-5-1l-3 3c-1 1-1 0-1-4l1-4c3 0 8 1 9 3l6 2c5 1 10 5 10 8l-4 4c-6 2-6 2-6 0zm-21 0c0-2 10-9 12-9s1 2-4 6c-6 4-9 5-8 3zm32-2h1v2l-1-2zm224 0 1-3 1-2v-3a666 666 0 0 0 15-26c1 0 2 5 0 7-1 1-3 6-4 14-1 7-4 11-5 10l1-8c2-3 3-8 2-7-2 1-5 8-5 10l-1 3-2 3-1 3-2-1zm-289-4c0-2 0-3 2-3s2 1 1 3h-3zm32-2 2-1 1 1-1 1-2-1zm-108-4 1-3c1-1 0-2-1-3l-2-2 2-4c3-3 3-4 3-9 1-7-2-16-4-16s-1-4 1-9c3-5 5-4 3 1-1 3-1 4 2 8 3 6 4 19 1 23l-1 6-1 5-1 1c1 5-1 7-3 2zm104 0c-1-1-1-2 1-2l3-2c2 0 1 2-1 4h-3zm-476-1c-12 0-14 0-12-2h39l9-1c4-2 4-2 3 1v3h-14l-25-1zm338 0-1-14-1-10c-1-2-1-2-1 0 0 4-1 7-2 6v-12l4-15 4-12c2 0 1 11-2 18v11a89 89 0 0 1 0 28h-1zm24-2c-1-2-1-2 1-2l2 1c0 3-2 3-3 1zm340 0v-6c1-5 3-5 3 0 0 6-1 8-3 8v-2zm-267-1c0-2 1-3 3-2s1 4-1 4l-2-2zm-455-2c-3-3-4-5-2-5l3 2 3 3 2 2c-2 2-2 1-6-2zm62-1 1-1h1c0 2-1 2-2 1zm315-1c-2-6-2-22-1-22l1-2-1-3v-2c0-1 3-1 2 1l1 1 1 1v2l1 3c0 2 0 2-1 1l-2-1c-1 1 1 16 2 17 3 3 6-3 5-11a184 184 0 0 1-1-42l1-11c2-3 2-7 2-11v-6c2 1 2 9 0 25v23c0 12 0 13 2 15l3 4c1 2 0 5-1 5-2 0-3 0-4 4l-1 5v3c2 0 1 2-1 2-1 1-3 0-4-1l-3-1 1 1 1 1c0 2-3 1-3-1zm13-18h-1l1 2v-2zm104 17v-2c1-1 3 1 3 3 0 1-2 1-3-1zm262 0-1-7c-1-1 0-2 1-3h3v7c0 4-3 7-3 3zm-367-5 1-3c1-2 1-2 2-1l-1 4h-2zm-76-4v-7c2 0 1-8-1-9-3-1-3-6-2-11 2-5 3-6 6-2 2 2 2 3 1 5v9c2 9-1 19-4 15zm410 0c-1-1 0-5 1-10l2-10c-2-1-4-9-2-9v-8c0-6 0-8 2-12l3-5v5l-2 12c1 6 1 6 2 3s3-4 3-2l-2 7v15l-5 12c0 2-2 3-2 2zm184 0 3-5 2-4c0-4 6-5 7-2l-4 6c-5 5-8 7-8 5zm-412-2c-2-3-1-7 1-7l1 5c0 4-1 5-2 2zm297-4c-1-3 0-10 2-11 2-2 3 0 1 6-1 7-2 8-3 5zm11 0-1-3c0-2 1-3 2-3 2 0 3 2 1 5 0 2-1 2-2 1zm-302-4c-1-1 22-24 24-24l1 2c0 2-22 23-24 23l-1-1zm218-1-1-6-1-11c-2-8-2-9-1-9 2 0 3 5 4 12 1 6 0 16-1 14zm-262-1v-1h1c0 2-1 2-1 1zm13-4-2-9-1-9c-1-1 1-3 2-1l3 22-2-3zm83 3v-31c1-7 3-8 3-2l-1 7v20l-1 6h-1zm183-2 1-3h2l-1 3h-2zm-336-11c0-8 0-9 2-9l1 4c-1 2 0 3 1 4v4l-1 3-2 3-1-9zm-30 5c-2-1-3-4-3-7l-1-6v-5l1-5c-1-2 0-4 1-5 1 0 2-2 1-3l1-2 1-7v-10c-2-5-2-18 0-22 2-2 2-5 1-13l1-10 1-7c0-5 1-16 3-20v-15l1-1c1 0 2-6 1-7-1-2-3-1-4 4l-2 4c-2 0-1-4 2-9 2-4 2-7 3-13a178 178 0 0 1 4-35v10l-1 18v12c-2 3-2 4 0 6v16l-3 14-1 15 4-10 3-3 3-3 2 2 1 2-1 6c-1 6-2 9-4 8l1-5v-4c-1-1-4 4-4 6l-2 4-3 6-1 3-1 9c1 8 1 9-1 10-2 2-2 4-2 11s1 10 2 11v16l-1 7v3l-1 3-2 2a414 414 0 0 1 0 9l2 12-2-2zm408 1c-2-2 0-15 2-18v-7l-3-3c-1-1-4-8-3-9l-1-5c-2-4-2-11-1-12l1-6c-1-7 1-13 5-14 2-1 2-1 2-4l-1-8-2-11-3-32-1-8-1-15c-1-19-4-34-6-37-2-2-3-5-1-6l2 1c1 1 1 1 1-4v-20c0-4-3-4-3 0l1 12c0 6-1 10-3 9l-1-12v-13l1-2-6-1-21-5c-3-2-3 0-2 3 2 5 3 18 1 18l-2-2-2-13-1-4-2-3v-4l-1-2c1-1 5 0 6 2l1 2h3l14 4 13 2c3 2 3 0 2-9-2-10-2-15 1-16l2-1 2-1 1 3-3 4v7l1 8 1 10c1 2 1 2 2 0 1-1 2-4 2-11 1-8 1-9 3-11l3-2v12l-1-1v-3c-1-1-2 0-2 2v11c0 7 0 8-2 8l-2 1v3l-1 4-1 5 1 9 1 5c0-2 3-3 5-1s1 5-1 6-3 6 0 8l1 8 2 11 1 6c-1 1 0 2 1 3l2 5 2 8c2 4 2 7 2 13l-1 8c-1 0-2-4-2-9-1-8-1-10-3-12-1-1-2-3-1-6l-1-6-2-2v5c2 1-1 7-2 7l-1 2 1 1 1 1c-1 1 1 5 3 6 3 3 6 22 4 23-1 1-3-5-3-9l-3-11c-2-3-3 0-2 5l2 11 2 11 2 11 2 11 2 5-1 4-3-2c-1-4-2-4-5 0-2 3-2 4-1 9l-1 7c-1 2-1 7 1 9l1 6 1 4 1 3c0 2 0 2 2 1 1-1 2-2 3-1v9l2 3 2-2 4-3v4c-1 6-1 13 1 14l1 3c0 2 0 2-3 1l-4-1-1-8c0-6 0-7-2-7l-2 1-1 3v8c-2 6-3 8-4 6zm-2-154v-4l-1-2-1 2v7c1 1 2-2 2-3zm-1-18c0-2-2-1-2 1 0 1 1 2 2 1v-2zM432 771l3-18v-2c-1-1 1-5 3-5l1 3-1 3-1 2c1 1 0 5-1 8l-1 12c0 5 0 6-2 6l-1-9zm169 8c-1-2 0-29 1-30 1-2 2 0 2 6l-1 25-2-1zm192-3v-7c0-5 0-8 3-12l3-5c2 0 2 2 0 6l-2 7c0 6-3 14-4 11zm-331-2 3-10 3-9c2-14 3-14 5-19 1-2 3-6 5-7 4-5 8-20 6-23l-2 3-3 5c-3 0-2-2 0-5l2-4 1-3 4-11c0-2 0-2-2 0l-2 4-1 2-1 1-8 17v-8a231 231 0 0 0 10-24v-7c0-5 0-5-1-3l-2 2-1 2-2 9-3 10h-3a58 58 0 0 1 5-16l8-16 2 14c1 3 1 4 3 4s2 0 2 6l-2 9v10c0 7-2 15-6 21a74 74 0 0 0-11 24l-2 9-2 7-4 7-1-1zm-12-11 1-14 1-10c2-2 2-3 1-5l-2-3-2-4c-2-2-1-10 2-14l2-4 2-3v7l-3 6v6l2 4c0 2 1 3 2 3l1 5c0 3 0 4-2 4l-1 7c0 11-1 19-3 20-2 0-2 0-1-5zm-347 1c-4-2-5-4-2-5h4l12 1c10 0 10 0 10-2-2-4-2-8-2-16s0-8-3-9h-6l-2-1h-8l-12-1c-9-1-12-2-12-7 0-2 2-3 7-1l9 1 7 2h5c5 0 18 3 20 6l1 6 2 7c2 3 2 9 0 13-1 4-1 4-4 3l-2 1c0 1-5 3-10 3h-8c-1 1-4 0-6-1zm772 1c-2-2 1-12 4-13 2 0 2 0 2 6l-2 7c0 1-3 2-4 0zm-419-1 2-4 2-6 2-4 2-4 5-14c2 0 0 9-3 12v3l-1 2-2 5c-1 6-3 10-6 10h-1zm15-1 2-2c3-1 5-7 2-9v-3l4-11 1-2 1 2 2 1v3l-1 4-1 4-1 4-3 6c0 3-2 5-2 3h-4zm123-1c-2-5-2-8-3-16l-1-10c1-1 3 4 3 7l1 8c2 10 2 12 1 12l-1-1zm193-1v-20l-1-2-1 3c0 3-2 1-2-3 0-8-1-9-3-11-3-2-4-5-2-6l1-3 2-2 1 3v5l2 3 1 2 2-9c-2-3-2-8 0-13 2-8 1-27-2-34-1-5-2-10-1-12 1-3 2-1 2 4l2 5c2 3 3 22 2 34a271 271 0 0 0-1 16l1 5-1 4c0 1 0 2-1 1l-2 1 2 1 1 4v3l1 2c0 2 0 2 1 1l1-4 1-3v-4l1-5c2-1 0 18-1 20l-3 8c-1 7-2 8-3 6zm70-4c1-6 4-10 5-9v6l-1 4c0 3-1 4-3 4s-2 0-1-5zm-322 2-1-6-4-21c-2-1-2-9 0-10l1 3 2 8c3 13 4 30 2 26zm-62-2c0-2 0-2 1-1v2c-1 1-1 1-1-1zm-367-1 3-2 2-1 9-5c1 1-1 4-3 5l-6 3c-4 3-7 3-5 0zm-14 0 5-4a432 432 0 0 0 19-14l2 2-1 1-6 4-5 4-6 4c-4 4-6 5-8 3zm448-3 1-7c0-9 4-12 4-3-1 6-3 14-5 14v-4zm263-1c-1-1 0-4 1-7l2-12c-2-18-1-24 0-27 2-2 3-10 2-18-1-7 0-10 3-13l3-6c0-4-1-5-2-3v-1l-1-2c-2-1-6-8-6-12l-1-6c-2-2-2-3 1-3l2 2 1 9 5 7c3 4 4 6 4 9l-1 4-1 1-2 3-2 14c0 10 0 13-2 18s-2 6-1 11c2 7 1 27-1 30-1 3-3 4-4 2zm-192-3c-1-3-1-15 1-15v15h-1zm-166-1 2-2c1-1 1-1 0 0 0 2-2 3-2 2zm-26-4 1-1c1 1 0 3-1 3v-2zm18-1-1-3-2-5c-3-3-3-6 0-9 2-2 2-2 1-5-2-6-1-9 3-13 3-3 4-4 3-5-2-2-1-5 1-6s2-1 2 1l1 2c1-1 2-3 2-7v-6h-3c-2 1-3 0-3-1s1-2 3-2c5-3 9-22 4-22l-1-3-2-4c-2-1-1-3 2-6 4-4 5-4 4 0s0 9 1 11c2 2 1 13 0 14v5l-1 8c-2 1-2 3-1 5 1 3 0 4-2 8a62 62 0 0 0-5 10c-1 2-2 2-3 2h-1v8c0 5 0 7-2 8-2 2-2 2-1 4l3 9c1 4-1 5-2 2zm360-1v-13l1-7c2 1 2 19 0 21-1 1-1 1-1-1zm-704 0c-2-1 1-3 5-6l6-2c2 0 1 3-1 4l-4 2c-2 2-6 3-6 2zm328-2c0-2 2-4 3-4 2 0 1 3-1 4h-2zm174-3-4-9c-3-8-5-19-3-18l2 6 3 9 3 8 1 3 1 2c0 2-3 1-3-1zm242 0c-2-6 0-21 2-21 1 0 2 18 1 21s-3 2-3 0zm-235 0c-1-1 0-3 1-2v3l-1-1zm-120-1c-1-2 1-6 3-6l1 2-1 4h-3zm30-12c0-9 1-12 2-14v-7l-1-7c2-2 3 0 4 7 1 4 1 7-1 10l-1 6c1 4 0 18-2 18l-1-13zm84 1-1-6 2-29h2v8l1 13 1 6-2-1-1-1 1 10v4l-3-4zm5 1c-2-5-2-8-1-8 2 0 4 6 3 9-1 1-1 1-2-1zm-57-6c-3-4-3-18-1-18l2 9v9h-1zm-423-4-1-4c-2 0-2-1-2-6-1-4 1-4 5 0 4 3 4 3 3 7-1 6-3 8-5 3zm28 2 2-1 6-2a173 173 0 0 1 10-7c1-2 4-1 4 1-1 2-13 9-18 10l-4-1zm-41-1c-5-1-8-2-8-4l18 1 1 3h-11zm39-1 6-5 4-2 6-4c3-2 4-3 3-4-3-2-8-1-14 4-5 3-8 2-4-1l4-2 2-1c1-2-1-3-4-3l-2-1 2-2 3-1c1-2 12 1 15 5l9 4c4 0 6 1 6 2 0 2 0 2-5 1l-7-1h-4l-9 6-2 1-1 1-4 2c-1 2-4 3-4 1zm38-2 2-2 1 1c1 0-1 3-3 3v-2zm605 0 1-2 1-4c0-4 2-8 3-8l1 2v2c2 0 1-6 0-7-2-2-2-9 0-17l1-18c-1-10 0-14 2-11v28c-1 6-2 12-1 14 0 3 0 3 4 3h3l-1 1-2 4-3 6-1 4-2 2c-2 1-2 1-2-1l1-3v-2l-2 4c-1 5-3 7-3 3zm-699 0c-1-1-3-2-7-1-6 0-8-1-6-3h7c4 1 8 1 8-1l1-1v6h-3zm437-4-1-7c0-5 0-7 2-8l1-4c0-4 3-8 5-6v5l-1 5-2 1c-2 1-2 2-2 8s-1 8-2 6zm-8-4v-5c1-3 1-3 1-1 2 3 2 4 1 7 0 3-2 3-2-1zm-422 0c0-2 6-4 8-3 1 1 1 1-1 2l-3 1h-4zm234-4c0-5 2-8 4-7v4l-1 4c-1 5-3 4-3-1zm252 2c-1-1-1-7 1-13 1-5 2-2 2 3l1 6c2 0 1 3 0 3l-2 1h-2zm-131-1-1-6c1 0 2 1 2 4 1 3 0 4-1 2zm-343-1c-1-1 3-4 5-4 1 1 1 1-1 3-1 2-4 3-4 1zm9-3 2-2 2-2 3-1c4-1 2-2-3-3l-9-3-4-2-1-1c1-2 5-1 7 1s3 2 8 2c4 0 7 1 10 3l7 3c3 2 4 4 1 4-2 0-8-4-8-5 0-2-2-1-4 1l-5 3c-2 0-3 1-3 2h-3zm745-1c-2-2 0-15 2-15s3 10 2 14c-1 2-2 3-4 1zm-782-2c-1-1 1-3 7-3 5-1 6 0 2 2s-9 2-9 1zm357-2 2-4v5l-2-1zm146-8v-3l-1-15h1a203 203 0 0 0 4 9c0-4 0-7-2-12-1-5-1-8 2-9 1-1 1 0 1 2v5c2 5 2 15 1 16l-1 5c-1 3-4 4-5 2zm-484-1 1-2h4c0 2-4 3-5 2zm-24-3-2-3h3l8 1c4 0 6 1 7 2H77zm251-4a623 623 0 0 0 4-26c1-3 5-5 6-3 1 1 2 12 1 15 0 3-2 2-2-2l-2-3c-1 0-2 1-2 7 0 11-1 16-3 17-2 0-2 0-2-5zm269 1-1-9-1-12c-1-7 0-11 3-11v5l1 18-1 8-1 1zm171-3c-3-6-4-12-3-23 0-3 0-4 1-3l1 8c0 6 0 7 2 6 2 0 2 0 2 3l1 5v4c-2 4-3 4-4 0zm-698-4c-2-2-2-3-1-3 3 0 7 4 5 5l-4-2zm398 1 1-2 1-4 1-3 2-7c0-6 0-6-2-5-2 0-2 0-1-1 2-2 2-2 1-3-2 0-2-1 0-5v-7l1-2c1 1 2-5 2-17 0-9 1-10 2-10s2 2 1 10l-1 16c-1 4-1 5 1 9l1 8-2 5c-2 11-2 14-4 16-2 4-4 5-4 2zm459-2c0-3-1-4-3-2-1 2-6 0-6-2l-1-2c-4 0-4-12 0-20v-3c-2-3 1-10 5-10h9v-8c1-7 1-8 3-8l2-2 4-2c4-2 6-5 7-11l1-39 4-16 2-2c1 0 1 2-1 18v16l-1 18c-1 9-1 11-4 16l-7 6c-3 0-6 5-6 11s-1 7-9 6l-4 1 1 2-1 13-1 6c-1 5-1 5 2 5 4 0 5-2 4-5 0-3 0-3 3-3h2v6c-1 8-3 13-5 13v-2zm-57-3c-2-2-3-15-1-17 3-3 4-1 4 8 1 10 0 12-3 9zm-818-2-4-3-4-1-8-2c-3-1-8-5-8-7l-2-5c-1-3-6-5-9-3-2 0-5-1-5-3 0-1 4-2 6 0h2c1-2 6 0 8 3l2 3 1 3c0 3 2 4 10 6 7 2 9 2 13 6 2 2 4 3 7 3l5 2c1 1 0 1-5 1s-6 0-9-3zm720-6c-1-1 0-3 1-3l1 2c0 2-1 3-2 1zm5-2v-1l-1-3h-2c-2 0-2 0-1-1 2-1 2-2 1-2v-4c1 0 2-1 2-3l2-3v6c0 8 1 10 3 4 2-5 3-6 4-4v3l-2 4c0 3-6 7-6 4zm-679-3h2c1 1 0 1-1 1l-1-1zm390-5c0-2 4-6 7-7 5-1 13-2 14 0l-10 4-5 2c-3 2-6 3-6 1zm304-7 1-5 2 6-1 4c-1 0-2-2-2-5zm-351 3 2-3 1-7 1-7c1 0 1-4-1-11l1-3c2 0 3 5 2 15 0 9-2 17-5 17l-1-1zm40 0 1-2 8-7c3-5 7-6 16-8 5 0 5 0 5 2-1 2-8 4-10 3-2-2-12 5-12 9 0 0-1 2-3 2-3 2-4 2-5 1zM6 644v-1c0-1-1-2-3-2-2-1-3-1-3-3 0-3 5-2 9 1 3 3 1 6-3 5zm472 0 1-8c2-8 3-20 1-22v-2c2 0 2-1 1-4l-1-5-1-10 1-9 3 1c1 1 1 1 3-1 3-3 10-6 12-6l2-1 3-1 5-1c3-2 4 0 1 3-2 2-5 3-9 4l-7 3-6 3c-3 0-4 1-4 3v6a151 151 0 0 1-2 44c0 3-2 5-3 3zm75 0 1-2c1-2 3-2 6-2h5l2 1c3 2 3 3-2 3l-8 1-4-1zm44 0-1-9v-9c-1-3 0-19 1-20l1 8 1 10v11l-1 9h-1zm172-1v-4l1-5c0-3 1-4 2-5 2 0 2 0 1 6 0 5-3 10-4 8zm-717-1c-1-2 2-2 10-2 5 0 8 1 9 2 0 1-18 2-19 0zm20 0c1-2 4-2 4 0l-2 1-2-1zm379-3 1-5c1-1 1 1 1 4 0 6-2 7-2 1zm-372 2c1-2 2-2 11-3 6 0 10 0 8 2l-11 1h-8zm722-3c-1-2-2-4-2-9v-10l1-6v-4l-1-4-1-2v-2l-2-3c-1-1-2-3-2-8l-1-9c-1-1 0-6 1-6s3 9 3 14l2 7c2 3 3 7 3 16l2 7v10l-2 4v1l1 2 1 3v1c0 1-2 0-3-2zm-18 0-2-25 1-3 1-2c1 0 2 3 2 12v19l-2-1zm-23-4c-3-5-3-22 0-22l1 8v13c1 5 1 5-1 1zm-642 0c-7-1 6-5 16-5 8 0 13 1 13 3h-3c-4-1-16 0-17 1-2 1-7 2-9 1zm673 1a607 607 0 0 1-2-34l-1-3 3 2c3 3 3 4 2 16l-1 17-1 2zm301-1 1-1 1-4c0-2 2-2 4 0l-2 4c-3 2-4 3-4 1zm-624-3a523 523 0 0 0 2-18l-4 9-1 3v-10c1-4 2-7 1-8l1-1c1-1 1 0 1 1l2 4c2 2 2 3 2 6l-1 9-1 6c-2 2-3 1-2-1zm134-9v-12c-1-3 0-2 2 1v18c-1 5-2 2-2-7zm-148 7c0-2 2-4 5-5 1-1 1-1 1 1-2 4-6 7-6 4zm-3-3a452 452 0 0 1 0-25c2 1 2 0 3-2v-5l1-2c3 0 3 5 1 9l-2 10-1 9v5c-1 4-2 4-2 1zm392-1-1-13-1-12c-1-1-1-5 1-6 2 0 4 13 3 24 0 7-1 9-2 7zm-385-8 1-7 1-2 1-4c2-3 2-23 0-25v-17c2-1 2 1 2 7l1 10c2 6 1 26-1 29l-2 4-1 4-1 3-1 4v-6zm419-1v-7c0-3 0-3-2-5s-3-3-3-6 0-4-3-5c-2-1-2-2-4-12l-3-2c-4 0-5-4-5-16 0-6 1-10 2-11 1 0 2 3 2 13 0 7 0 8 3 9 2 1 3 3 4 7s4 9 5 8l2-5c2-7 4-11 6-11s2 1 3 8l1 17c1 6 0 11-2 12l-1-3-1 5c1 7 0 9-1 9s-2-1-3-5zm5-18-1 2 1 2v-4zm-5-5c-1-2-2 2-1 4 0 2 0 2 1 0v-4zm1-5h-1l1 2v-2zm-109 28c-1-3-1-18 1-18v18h-1zm128-3v-5l-1-16c-1-13-1-15-4-21l-4-11a558 558 0 0 1-3-70v-4c0-2-1-3-3-5l-4-5c-2-5-3-18-3-28l-1-8-2-13v-16c-1-3 0-4 3-8 4-5 4-6 2-17v-4c3 0 4-2 2-3-1-2-2-17-1-21v-4c-1-1 0-9 2-11l1-4c0-2 1-3 2-3s2 7 1 15l1 2h2l1-6 1-4v4a781 781 0 0 1 3 59c2 2 1 6-3 11-4 3-4 3-4 1 0-4 0-5 2-7l1-23c0-22 0-28-3-26h-2l-2-1c-2 0 0 16 1 17l1 3 2 3v2c-1 1-1 1-2-1-2-1-2-1-2 5-1 21 2 34 6 33 2 0 2 0 2 8 1 18 1 20 3 23 3 6 5 26 2 29l-1 6c0 3 0 5-2 9s-2 5-1 16a1861 1861 0 0 1 4 50l3 7 2 7 1 11v12l1 4c2 4 1 10-2 11-2 0-2 0-2-3zm-8-135 2-5 1-2-1-3a182 182 0 0 0-1-11c0-3-3-2-4 2a62 62 0 0 0 1 24l2-5zm-5 0-2-3h-1l1 3 1 1 1-1zm-2-14c-1-7-3-12-4-10v12l2 4c2 5 3 2 2-6zm2-20v-15c1-3 1-3-1-5-3-2-3-3-3-6v-4l-2-6c0-5 0-5-2-3v36c1 5 6 14 7 14l1-11zm3 4c0-2-1-1-1 1l1 2v-3zm0-8c0-4 0-4-1 0v3l1-3zm-1-84-1-1v2l1 2v-3zm-3-2v-3c1-1 0-6-1-6s-2 7-1 9c2 3 2 3 2 0zM442 612v-2l4 3c0 2-3 1-4-1zm646-1-2-3-1-8-2-6-2-7-4-8-3-5-1-3-1-7c-1-5-1-6 2-8 4-4 4-7 1-7-1-1-2-2-2-5l1-7v-8c0-4-2-10-5-13-3-2-2-24 2-24 1 0 2 3 1 5-2 4 0 12 7 27l1 4 1 3c1 3 1 7-1 6l-1-3-1-3h-2l1 2 1 6c-1 4-1 5 1 7 3 4 3 7-1 10l-3 6c0 3 2 10 4 13l2 4 2 2 2 5 1 5 1 6 2 9c2 5 2 7 1 7l-2-2zm-661-5c-1-4-2-18-1-20v-2c-2-1-2-14 0-18a4706 4706 0 0 1 4-15l-1-5-4-7-2-4-2-7-3-12v-6l-1-3v-7l1-3c1 0 2-1 2-3l2-2c2 0 2 1 1 4l-1 4v12c-2 1 1 17 5 23 2 5 4 6 5 2v-2l1-8c0-7 0-7-2-10-4-3-4-8-2-12v-3l-1-7c0-7 2-9 7-7h2v-6c-1-4-1-6-4-8-3-3-4-1-3 5l1 5c-3 0-5-9-3-12v-2c-2-1-2-9-1-11 2-1 2-3 1-5l3-9 1-4c0-5 1-7 2-4l1 6c0 4 0 5-2 6-2 0-2 2-1 7v6c-3 1-2 5 2 7 4 3 6 10 7 22l1 12c2 1 2 4 0 4v3c2 4 2 17 0 23-1 4-1 4-2 2l-2-4v-3c4-5 2-17-2-19-2-1-1-3 1-3l2-2-2-13-3 1c-3 0-3 1-3 4l1 5v4c-2 3-1 7 2 10 2 3 2 5 2 12s0 9 2 11l5 8-2 1c-2 0-3 2-1 2l3 6c1 4 1 6-1 9v6l1 4 2 6 5 12c1 4 1 8-1 7l-2-9-1-1-1 7c-1 8-2 11-3 11s-1-14 1-19v-5l-1-4-1-2-1-3-3-3-2 11c-1 4-2 5-4 5-1 0-2 1-2 6-1 6 0 12 1 12v4l-3-3zm4-23 2-2 2-12 1-3 2-4c2-3 3-7 1-7-1-1-2-7-1-9v-1c-2 2-2 2-2-1l-1-6c-1-1-1-1-2 3-1 5 0 6 1 4 1-1 1 0 1 2l-1 4v2l-6 15-1 8c0 8 1 9 4 7zm609 25c-2-2-3-11-2-16 0-2 1-4 3-5 2-2 2-3 1-8l-2-9c0-3 0-3-1-2l-4 1c-2-1-7-8-6-9l-1-2-1-6c-2-13-2-17-4-22-1-5-2-8-1-11l-1-5c-1-2-3-9-3-14-1-3 2-8 4-8l1-3v-6c1-2 0-4-1-5l-1-9-1-15c-2-7-2-8 0-13l3-6c2-1 2-2 0-8s-3-13-4-29c-1-7-1-7 2-9l4-1c2 1 2-4 0-9-2-4-2-8-2-16v-22c0-5 0-5 3-5l4 2h1c2 0 0-6-3-11l-2-6-2-8c-2-6-2-12-1-15v-18c1-2 4-2 3 1v1c2 0 1-4 0-7l-1-4 1-12 1-14 1-5c-1-1 1-9 2-10l1-7c-1-5 0-7 1-10l3-6 1-11v-41l3-5 1-4c0-2 0-2 1-1v4l-1 2v2l1 4c3 1 3 1 4-3l2-5c2-2 2 1 0 5-2 3-2 6 0 14l-1 4c-1 1-3-3-3-7l-2-6-3-2v5l2 10c2 3 3 5 3 10l-1 8v2l1 9c1 7 1 8-1 11-2 5-6 22-6 29l-1 6-1 9-1 11-1 12c1 3 0 3-1 3-2 0-2 1 0 3 1 1 2 6 0 7h-2v5l2 15c0 8 0 9 2 11 2 1 3 7 3 15l2 5 3 5 2 6c3 5 3 12 1 13-2 0-2 1-1 2 2 3 2 33 1 35l1 7v7l-2 2 6 13v4c0 2 0 4 2 5 2 3 4 11 4 17 0 3 0 4 2 5 2 2 1 5-2 5l-4-3v-16c-2-1-4-5-4-7l-2-4c-2-2-3-3-2-5l-1-11-2-13-1-8c0-2 0-6 2-10v-1c-2 0-2-1-2-7 0-7 0-8-2-8-3-2-4-4-2-6s2-2 1-7l-1-6-2-3-3-12-2-2c-2-2-2-2-2 2v5l1 3 1 4-1 3c-1 1-1 13 1 18l1 7 1 4 1 6 2 7c2 2 2 5-1 5-1 0-2 0-1-1 0-1-3-10-5-10h-2c-2 0-2 1-1 9l1 10 1 6 1 6 3 10c2 6 2 7 1 8s-2 0-3-2c-1-4-3-5-3-2l-1 5v8c2 8 2 15 1 17s0 3 2 8c3 7 4 10 1 12v3l1 4 2 3c2 2 2 6-1 6l-2-3-1-2-1-2c0-2-1-3-3-2-1 2-1 9 1 12s4 10 2 11v7a114 114 0 0 1 3 6l1 11a51 51 0 0 0 3 16c1 5 6 8 6 4 1-7 6 1 7 12 0 8 1 10 3 13l2 3c-1 2-3 2-3 1-1-3-4-2-4 1-2 4 0 13 1 15l2 2c0 2-4 1-6-1zm0-248-2-4v3l2 1zm-13-75-1 1 1 1v-2zm5-26-1-4-2-2v3l1 3c-1 1 1 2 2 0zm0-18h-1l1 2v-2zm4-26-2 3v7c0 2 1 2 1-3l1-7zm4-33-1-4-1 3 1 4 1-3zM471 605l-2-3-2-1 4-2c1 0 2-3 2-10 1-6 1-8 3-6v9l-1 6-1 5c-1 0-2 1-2 3-1 1-1 1-1-1zm307 1c-1-3-3-8-2-10s4-1 4 1l1 6c0 4-1 5-3 3zm275 0v-18c2 0 2 1 2 11v8l-2-1zm-290-2-1-5c0-4 1-6 3-9l3-4-1-7v-7l1-3c0-2 6-7 8-7 2 1 1 4-1 4s-2 0-3 4l-1 11c0 5 0 6-3 9s-4 5-4 12l-1 2zm24-9-1-3-1-6v-6c2-2 3 2 4 10 0 6 0 7-2 5zm-37-4 2-5v6l-2-1zm8-3c2-8 2-22 0-26v-5c1-1 4 2 3 4-1 1 0 3 1 5 1 5 1 16-1 20l-1 4-1 2-1-4zm170-4 1-11 1-6 2-8v-6l1-3c2-2 4-12 3-13l-2 1c0 2-2 1-2-2 0-4 2-10 5-15l2-8v-4l-2 3c-2 1-3 3-3 5-1 2-4 3-4 0 0-2 8-12 9-11 3 1 2 11-1 21-2 3-2 5-1 5 2 1 3 10 2 20l-3 10-1 5-2 10c-1 9-3 15-5 15v-8zm-473 5c-2-4-3-25-2-29s2-1 2 8a389 389 0 0 0 1 22l-1-1zm297-7c-2-3-2-4-1-10v-15l3 3c2 3 3 7 1 7l-1-2-1-2c-1 0-1 3 1 4 1 1 2 7 0 7v11l-2-3zm1-12h-1l1 2v-2zm296 14 2-5c1 0 2 3 1 5l-1 1-2-1zm-569-2-1-12c0-15 0-19-2-20v-4l1 1v-3c0-7-3-16-4-16v7c1 11 0 13-1 14l-1-9-3-14c-2-4-4-20-2-21v-4l-1-10c0-6 0-9-2-12l-2-6-1-1v-6c2-6 1-15-1-17l-1-7v-19l-2 2c-1 3-3 4-3 3l1-11 2-12v-3l-2 2c-2 2-4 1-2-1v-21c-1-2-4 7-4 15a826 826 0 0 0-2 10c-2 0-2-2-1-8l1-9 1-13a1695 1695 0 0 0-3-24l-2 7-1-4c1-8-1-21-4-23l-1-4c1-3 0-6-1-9-1-2-2-6-1-8l-2-6-1-5-1-2-1 2-1 5c-2 1-2 2 0 8l2 8-1 8-2 13-1 6c-2 0-2-17 0-21v-4l-1-7-1-6c-1 0-2-11-1-13 3-4 4-8 3-13v-6l2 2c0 3 4 11 5 13l1 4 2 4c2 1 2 2 2 7l2 10 1 7 1 4 1 7 2 6c3 3 4 9 4 20 0 12 0 12 3 11 2 0 3 1 4 7 0 7 1 12 2 12l1 4a433 433 0 0 0 6 53c1 1 3 5 3 9s2 7 3 9c1 5 1 12-1 18-1 4-2 6-1 8l2 15c1 11 2 13 3 14 3 1 5 8 6 24 2 17 2 34 1 35h-2zm-6-57-2-1c-1 0-1 1 1 2s2 1 1-1zm-4-47-1-4-1-7c-1-7-2-8-3-4l-2 5c0 2 0 3 2 5l2 5c0 2 2 3 3 0zm2 92 1-7v-8l2-4c1 0 2 1 2 5l-1 7-1 5c1 5-2 7-3 2zm519 2-1-3-1-2-1-18c2-2 2-1 3 6l2 11 2 6c-1 1-3 2-4 0zm-418-5c-1 0-2-1-1-2v-4c0-3 1-4 2-4l1 2 1 2 3 2v1l-3-1c0-1-1-1-1 1v3h-2zm305 0-1-9c-1-7-1-8-3-10-2-1-2-2-1-7v-7c-2-2-2-3-1-8v-13l-1 1-2 1c-2 0-4-5-3-11l-1-8c-2-6-5-15-5-22 0-6-3-16-5-19l-1-6c3 0 8 14 9 26a50 50 0 0 0 5 21l1 6c0 6 0 6 2 5h2c1 1 3 18 3 30l1 7c2 0 4 22 2 23h-1zm203-3-2-6c0-3 2-2 3 1l3 5c1 4 2 4-1 4l-3-4zm-634-2c-1-1 0-4 3-9l2-7v-18c0-2 2-2 3 0v8c3 5-5 31-8 26zm320-3v-5l2-14 1-1c-1-2 2-5 3-5l1 3-1 2-1 3-1 5c-2 3-2 10-1 10l1 2c1 3-2 3-4 0zm-421-4 4-8c1 0 1 3-1 6-1 3-3 4-3 2zm432-1c-2-4-1-14 0-15s0-2-1-5l-3-4-1-5c-1-4-4-8-6-8s-3-2-4-7v-13c2 1 4 7 4 11 0 3 1 4 2 5 2 1 5 4 6 7l3 8c2 5 3 10 2 22 0 6-1 8-2 4zm-20 0v-2l1-4v-3 10l-1-1zm216 0-1-2c0-3-4-7-6-7l-1 1c-1 2-3 0-3-2 0-3 3-5 5-3 3 1 7 6 8 10 1 2 0 4-2 3zm-403-6-1-2c0-2 0-2 2-1 1 2 1 4-1 3zm427 0v-11l2-6a313 313 0 0 1 0-13v-2h2v2c2 3 1 15-1 20l-1 8c0 3-1 4-2 2zm-184-6c-1-4-3-18-2-24 0-2 0-6 2-8v-10l-2-13-2-7v-2l1-4 2-4 1-3-1-3-2-4c0-1 0-2-1-1 0 3-1 2-3-1-2-4-1-8 1-10l3-2 1-3 1-3 1-5 2-21 1-9 3-16 4-17c0-7 3-12 5-10l2 10 1 1c2-2 3 0 1 4l-1 4v4l-1 1v6h1l1-3c-1-1 4-10 5-9l2 7 2 7 1 3v3l1 1 2-2 1 4c0 6-1 8-2 8s-2 1-1 2c0 2 0 2-1 1-2-2-2-1-1 9l1 12 5-17c1-10 2-8 2 3a284 284 0 0 0 4 53 2168 2168 0 0 0-2 11l-2-14c-2-1-2-4-2-16l1-11v-7c-1-3-1-3-2-2l-2 6c0 2 0 3-2 3-1 0-2-1-2-7v-9c-1-2-1-2-2 0l-1 5c0 6-1 3-1-5-1-9-3-14-3-7 0 3 0 4-1 3l-2-1v-10c1-2 0-9-1-10s-1 0-1 9l-1 5-1 2c1 1 1 1-1 1h-1l1 2-1 1v1c0 3-1 7-2 6l-1-4c1-4 0-4-3 1-2 4-3 14-1 17l-1 4v2c2 1 0 4-2 4-2-1-3 0-1 2l2 3c0 6 1 9 3 9 3-2 4 2 3 14-1 4-1 5 1 8l2 5 1 2 1 5v14l-1 1c0-2-2-4-3-3l-1-3-2-3c-1-1-1-1-1 6l1 10c0 2 0 3 1 2h2l-1 2-2 2-3 1c-2 0-2 1-1 2l1 4 1 5c1 4-2 4-4 0zm3-24-1 1c-1 1-1 1 0 0l1-1zm5-18v-5c0-2 0-3-1-2l-2-2v-19c-1-1-2 0-3 2-2 3-2 4-1 11 0 9 1 10 2 9l2 1v3l1 4 1 3c2 2 3-1 1-5zm-1-84c0-4-1-6-1-2l-1 3c-2 1-1 3 1 3 1 0 2-1 1-4zm5-1c-1 0-4 1-3 2h2l1-2zm-2-2h-1l-1 1 1 1 1-2zm19-4v-2l-2-3c-1-2-1-3-2-2v4c1 4 2 5 4 3zm-20-3-2-4c-1-1-1 0-1 3 0 5 2 5 3 1zm13 0-1-2c-3-1-3-1-2 3 0 3 2 2 3-1zm-3-1h1v2l-1-2zm-7-8v-11c-1-2-2-1-3 3s-1 5 1 10l2 3v-5zm6 1c-2-2-4-2-4-1l2 2c1 0 2 1 1 2h1c2-1 2-2 0-3zm6-1c0-2 0-2-1 0-2 2-2 3 0 3l1-3zm0-7c0-1-2-1-3 1l2 1 1-2zM380 524l3-4c3-4 5-11 5-18 0-5 2-9 5-9l-1 7-1 8c-1 7-1 8-4 12l-5 5-2-1zm607-6c0-8 0-8 2-8 2 1 2 2 1 5l-1 4c1 3 0 6-1 6-2 0-2-1-1-7zm-163 5v-3h2l-1 3h-1zm-370-5c-1-24 0-30 1-30 2 1 3 9 2 18l-1 11-1 6-1-5zm493-1-1-6-1-5c-1-2 0-15 2-15l1 8v11l2 6c1 3 1 4-1 4l-2-3zm33-11 1-13 1 11v11l-2 4v-13zm-534 6c1-7 4-8 4-1 0 4 0 5-2 5s-2-1-2-4zm553 2-2-31c-1-14-1-16-3-20l-3-5-1-1-2-2-2-1 1-4c2 0 9 8 9 10l1 3a588 588 0 0 0 1 51zm-71-4 2-7c2-5 4-25 3-26l-2 4c0 3-2 5-3 7l-2 3-1 1c-2 0-2-4 0-5l1-2c-1-3 3-10 5-10 2-1 2-1 0-6l-1-8c0-4 3-8 5-8l1-5-1-7c0-3-2-3-2 1-1 5-3 4-2-2l1-11c0-6 0-6-1-5l-2 5-1 4-2 7c0 5-1 8-2 7l-1-12-2-13-1-4c0-4 0-6-1-3s-3 2-3-3l-1-5-1-3c1-2 1-3-1-4v-23c0-6 1-8 3-8l1 5 1 9 1 9 3 11 3 17 1 12 2-8c-1-1 0-1 1-1l1-1c-1-1 0-6 1-6 2 0 4 6 4 12l1 7 2 6c3 6 1 14-2 17-2 3-2 7 0 11l-3 33-2 7c-1 5-3 5-3 1zm-9-104v3h1l-1-3zm-76 104v-21h1l2 4c2 3 2 16-1 17h-2zm-496-2v-11l1-10 1-5c2-4 2-5 1-12-2-8-2-8-2-3v7l-2 9c-1 0-2-3-1-6v-5c-1-1 0-10 2-12 1-2 2-8 0-13l-1-7v-3l-2 3-1 7-1 6c-1 1-1-1-1-6 0-7 0-9 2-11l3-3c2 0 4 8 5 23l2 17a68 68 0 0 1-2 31v2c2 2 1 3-1 3l-3-1zm613-5 1-5v-3l2-4 3-1 4 9c0 2-2 1-2-1-2-6-5-2-5 5l-1 4c-1 0-2-1-2-4zm163 3v-3l1-12 2-11v-6l1-11v-13l1-4v-1l1-4c-1-2-2-4-5-5-4-2-5-4-2-5s7 2 9 7c2 3 2 5 1 8l-1 11a407 407 0 0 1-5 49h-3zm-270-2 1-4v4h-1zm-19-7c-1-9-2-14 0-15l1 6 2 10c1 7-1 6-3-1zm154-3-3-12c-2-3-2-7 0-7l3 5 3 14-1 4c-1 0-2-1-2-4zm177 0v-5l1-7c0-6 2-8 3-5l-1 5v10l-1 3-2-1zm-207-5c-1-6 0-12 2-14 3-3 4-3 2 0-2 2-2 4 0 13 0 4-3 5-4 1zm-538 0 1-2c2-2 2-3 1-3l-2-2c0-3 1-2 3 1 3 4 3 8 0 8l-3-2zm549-3c-1-2-2-3-3-2v-1l-1-3-1-1c-1-1 0-1 1-1 1 1 2 0 3-2v-7c-2-3-2-6 0-6l1 1v3c2 3 4 9 2 9-1 0-2 3 0 5 1 3 2 7 0 8l-2-3zm-517-1v-7l-1-8-2-8a334 334 0 0 0-2-6v7c0 6-1 10-3 6 0-4 2-25 4-27 1-2 1-11-1-12-1-1-3 3-3 6l-1 1-2-2 1-2 2-3 2-5h3l2 20 1 21c2 8 4 18 3 20 0 2-3 1-3-1zm495-1c-2-2-1-17 0-18 2-3 3-2 3 3l-1 10c0 6-1 8-2 5zm32-3c0-4-2-12-4-15-3-5-5-25-3-25l2 12c0 5 2 11 4 11l1-2 1-9c0-7-1-13-3-16l-1-7-4-8-3-6v-11c-1-5 1-8 2-3l2 4 1 6 2 7 2 5 1 7 1 5c1 0 3 13 3 20l-2 9c-2 3-2 4 0 11v7c-1 2-2 1-2-2zm-7 1 1-1 1 1-1 1-1-1zm-554-4-3-6c-1-3-2-4-3-3-2 2-5-2-4-6l-1-6-2-3c-1-2 1-6 2-5v1l4 7c2 0 2-4 2-18l-1-13-1 4-1 5v1c0 2-4 7-5 7-2 0-1-4 1-7l1-3 1-5v-15l-1-5c-1-2-3-1-2 1l-1 3-1 7-1 5c-2 1-2-4 0-11l1-17a57 57 0 0 1 2-17c0-4 1-7 3-6l-1 13c-1 12-1 13 5 28v3l4 7c2 1 3 8 2 8l-2 8-1 13c-1 9 0 12 2 14l2 4 1 4c3 4 2 5-2 3zm652-2-2-12c-1-8-1-9 2-12l2-5c0-2 4-7 5-7l1 2v19c-1 1-1 1-2-1l-4-4-1 5c3 13 2 23-1 15zm-610 0c-1-1 0-1 1-1l1 1-1 1-1-1zm381-2c0-3 0-3 1-1v4l-1-3zm313 2 2-2 1 1c-1 2-3 2-3 1zm-322-3v-13l1 3 1 12-2-2zm123-2 2-8 1-6 1-5c1-4 1-5-1-8v-15l-1-9v-24l1-6c0-2 4-3 5-1l-1 4c-2 9-3 12-2 21l1 10 2-19c0-10 1-13 4-11l1 2-3 15-3 20c-1 4-2 7-1 9l1 11 1 10c1 1 0 9-2 10l-1-3c0-5-2-4-3 1 0 5-2 6-2 2zm211 1v-7l-1-2c0-3 3 0 3 4 1 4 0 7-2 5zm-345-6-1-9v-16c-1-9 0-9 1 1 3 12 2 28 0 24zm-435-1-3-5c-2-4-3-7-3-12l-1-9-2-4v-5c-1-2 0-9 1-10l1-5a17141 17141 0 0 0 3-24l3-7 2-7c2-2 2-3 1-5-2-5 0-7 2-2 2 3 3 2 2-3 0-2 0-3 1-2l1 4v6c-1 2-1 2-2 1-2-2-3-1-3 2l-2 17c0 3-2 3-2 0 1-3 0-4-1-1v11l-1 11-2 4-1 3c-1 1 0 10 2 16l1 10 3 9c2 3 3 9 0 7zm430-4 1-1 1 1-1 1-1-1zm349-1-1-7c1 0 3 3 3 5 1 3-1 4-2 2zm-745-5c-2-3-1-11 0-11 3 0 5-4 4-5v-19c0-6-1-8-4-12-2-4-4-6-5-5-1 0-2-8 0-8v-2l1-2v-5c-1-3 0-16 1-18v-4c0-2 0-2 2-2 2 1 2 1 1-5l-2-8c-2-3-3-7-1-7l2 3 2 4c2 1 2 2 2 9v23l-1-7-1-6c-2 0-3 5-2 11l1 19 4 10 1 2 1 3 1 5 1 4c1 1 0 6-1 6-2 0-2 5-1 7l1 4 1 4c2 1 1 3-2 3l-3 1c-2 0-1 6 1 7v2c0 2-3 1-4-1zm738-7a405 405 0 0 0 0-11c2 0 4 16 1 17l-1-6zm-7-3h1v2l-1-2zm-319-2 1-3c1-1 1-1 1 1v3c0 2-2 1-2-1zm319-2v-3l1-5 1-3c2-1 1-19 0-23l-2-3v3l-2 10c0 8-2 12-4 12-3 0-3-2-1-4 2-1 2-2 2-7l1-6 1-11 1-6c1-1 2-2 1-3l1-3 2-12v-24c3 0 3 5 3 19-1 12-2 19-4 22-1 1-1 6 1 5l1 1v2l4 14c0 10-3 26-5 26-1 1-2 0-2-1zm-323-5c-1-4 0-5 1-3v7l-1-4zm245 2c-1-2 1-4 2-2 1 1 1 3-1 3l-1-1zm-687-5 1-3 1 3-1 3-1-3zm15 1v-3c1-1 2 1 2 2v1l1 1c0 2-2 1-3-1zm39-6c-1-2-1-4 1-4l1 4c0 4-1 4-2 0zm628 2c-3-2-5-17-3-22 1-4 3-4 5 0l2 4c1 1 2 5 0 5l-2-2c-2-2-2-2-1 3 0 4 1 6 3 8l2 4h-6zm-750-2v-8c1-6 0-8-1-10l-2-2-1-2-1-3c-2-1-2-3-1-12 0-9 0-11-2-15-3-8-4-16-2-23 2-10 4-14 7-17 5-6 5-3 1 5-2 4-2 7-2 11 0 6 0 6-2 5-2 0-2 0-2 3l1 5c3 2 6 22 4 28v5c3 3 7 15 7 20 0 4-3 12-4 10zm83 0v-1h1v1h-1zm31-6c0-4 2-5 2-1l1 3v-3l2-5 1-4c1-2 1-2 2-1 2 3 2 7 1 7l-4 4-3 4c-2 0-2-1-2-4zm8 0 1-1 1 1-1 1-1-1zm-25-7v-10c1-1 2 1 3 7 0 4-1 6-3 3zm17 1 1-1v2l-1-1zm18-3c0-3 0-4 2-4l1 4c-1 5-3 5-3 0zm625 2v-15c2-2 3 2 3 9 0 6-1 8-3 6zm-644-8a695 695 0 0 0-2-19c1 1 3 9 4 20 1 6-1 6-2-1zm-35 2c0-4 0-6 2-5v7l-2-2zm733-2-1-7c1-6 1-11-1-13l-1-4-2-3c-3 0-3 0-2-5 0-4 0-4-1-3l-4 1c-2 0-2 0-2-4s1-5 2-5l1 3v2l1-1 2-1c1 0 3 2 5 8 5 10 5 12 6 25 0 8-1 11-2 11l-1-4zm-884-3 2-2 1 1c-1 2-3 2-3 1zm125-1 1-6c0-2 1-3 2-2s2-5 2-13c0-6-1-8-3-10l-2-2 2-2 2-2-2-4c-2-5-2-7-1-9l2-18 1-5v-4h-1c0 3-2 2-2-1v-4l-1-4c0-2 0-2-2 0-2 1-3 2-3 7-1 7-5 17-6 16v-2l2-6v-5l1-12c0-10 0-11-3-14-4-4-6-13-5-19l-1-7c-2-2-2-5-1-5 2-1 5 7 5 11-1 2 0 6 1 6 3 0 1-14-2-18l-2-4-1-3c-3-2-2-4 0-4 1 0 3 2 5 6 4 8 4 10 5 21l2 17c1 5 2 6 3 6 3 0 5 5 5 11l1 4 3 1c1 2 3 14 2 15l4 5 1-4c-1-4 0-5 1-5s2 13 0 18v4l1 2v2c3 1 2 3 0 3l-2-1c1-1 0-3-1-3l-2-7-2-4-2-6v-4l-1 4c-2 11-2 13 0 15 2 1 3 4 1 4v6c1 13 1 26-1 29-3 7-4 7-5 8l-1-2zm-11-114c-1-1-1-1 0 0l1 2-1-2zm34 113c-1-1 0-9 1-10l1 2 1 2 1 4c0 2-1 3-2 3l-2-1zm42 0v-1h1c0 2-1 2-1 1zm0-6 2-1 1 1-1 1-2-1zm2-3c-1-3 0-6 1-6v-18l1-3 2-2 1 2-2 14-2 12-1 1zm-44-9 1-6 1 6v3c1 2 1 4-1 4l-1-7zm31 0c-1-1 0-1 1-1l1 1-1 1-1-1zm-23-3v-10l-1-8c-1-2 1-6 3-6v12c0 10-1 17-2 12zm27-4 1-6c1-1 3 2 2 5l-1 4c-1 5-2 3-2-3zm638 2 1-3 1-3 1-3 1-6 2-6c3-2 3-1 3 5 0 8-4 18-7 18l-2-2zm-145 0c-1-1 0-3 1-4l1-7c-1-3-1-4 1-4s2 2 2 7c1 6-4 12-5 8zm-14-8a716 716 0 0 1 0-20c0-6-1-11-2-11l-2-2-1-3v-2h1l1 2 3 4 6 15 2 6 2 4c1 4-1 4-3 0-3-5-4-6-4-1 0 11-1 14-3 14v-6zm-474 3 1-1c1-1 1 0 0 0 0 2-1 3-1 1zm-20-5a400 400 0 0 0-2-34c0-3 0-5 1-4 2 1 4 38 2 39-1 1-1 1-1-1zm21 0-1-2c1-1 2 1 2 2h-1zm-7-1 2-2 1 2-1 1-2-1zm636-3c-2-5-4-16-2-16l1-3c0-2 1-3 2-3s2 6 0 8c-2 1 0 7 2 10 3 4 3 5 0 6-2 1-2 1-3-2zm-765-3v-5c-1-7 1-13 4-16s4-6 2-8v-6l1-2v-3l-1-3-1-3c-1 0-2-1-2-3l-1-6c-2-3-2-14-1-15 2-1 3 2 2 5l1 4c2 1 2 2 3-4l3-14h1v6c0 3-2 11-4 13l-1 5c0 4 3 14 4 14 3 0 3 2 1 8l-1 9c0 3-3 7-4 7-2-1-3 4-3 12l-1 8c-1 0-2-1-2-3zm130 2 1-2 2-8 1-7 1-3 1-2v7c-2 1-2 14-1 15h-5zm-37-4 2-4 2-13c0-13 1-22 3-23v-2l-1-14 1-14c3-2 6 0 7 3l1 5 1 14a21427 21427 0 0 0 2 38l-1 3-1-3-2-14v-4l1-10c-1-12-4-29-5-29l-1 1a220 220 0 0 1 0 38c-1 0-2 1-2 3a93 93 0 0 1-5 28c-1 0-2-1-2-3zm511-1v-8l1-1c1 2 0 10-1 9zm-9-2 2-4c2-1 2-1 2 1s-3 5-4 5v-2zm186-4a89 89 0 0 0-2-20c-1-4 2-3 3 0l2 5v6l1 8c0 6 0 7-2 7-1 0-2-1-2-6zm50 4c-2-6-3-16-3-20l-2-8c-2-4-2-5 0-7l1-5 1-3 1 7v6l1 8 3 18-1 5c-1 1-1 1-1-1zm19-6 1-1v-9c2-3 2-15 0-20s-5-7-6-5l-1 1c-2 0-2-5 0-11v-3l-2 1-1 1c-2 0-2-4 0-7l1-4v-13l-1-6-1-3-1-5c0-3 1-4 2-4l1 4c0 4 0 5 2 6l2 1v-5l-1-8v-9l1-7c-2-1-4-5-4-9-1-6 1-7 2-1l3 5c3 3 4 13 2 15-1 1-2 2-1 6 2 6 1 16 0 17-1 0-2 3-1 12 0 23 0 22 2 22l3 2c2 3 3 14 3 22v8l1 6-2-2c-1-1-2-1-1 1 0 2-1 3-2 3s-2 0-1-1zm-78-3-1-3c0-4 2-4 3 0 0 2-1 5-2 3zm-168-3 1-1v1l-1 1v-1zm-608-11c0-9 1-15 3-13 1 0 1 16-1 20-1 4-1 2-2-7zm121 5c-1-3 0-4 2-2v3c-1 1-2 0-2-1zm638-1-1-3c0-4 3-3 3 1 0 3-1 4-2 2zm-620 0 2-1h1l-1 1h-2zm447-7v-2l2-3 1-5-1-4c-3-2-2-5 3-7l7-1c3 0 3 0 3 5 1 6 0 9-1 9l-2-4c0-4-2-6-3-5v1c3 1 3 3 0 4-2 1-2 1-1-1l-1-2-1 6-4 11-2-2zm5 0 1-2c1-1 1-1 1 1 0 3-1 4-2 1zm221-9c-2-3-2-7-1-7l2 2 1 3v-3l2-6c0-4 0-4 2-7l-1-7-1-13-2-9-2-3-1-3v-3c2-3 1-9-1-13l-2-11 1-7 1-6v-4c2 0 2 2 1 13l1 12 3 16 2 12c2 3 4 24 2 30l-1 8c0 7-3 10-6 6zm-779-6c1-2 3-2 3 0l-2 1-1-1zm727-4c-3-14-6-33-4-33 1 0 2 2 3 8l3 16c4 13 4 13 1 13l-3-4zm65 1c0-1 1-2 2-1l1 1-1 1-2-1zm-791-1v-12c-2-6-2-16-1-16l1 4 2 5 1 7v7c1 3-1 6-3 5zm794-3c0-2 2-3 3-2 1 2 1 4-1 4l-2-2zm-791-19v-15c-1-2-1-3 1-4l2-4 2-6c2-2 2-4 1-5l-1 1-1 3c-1 0-2-3-2-12-1-5-1-9-3-12-2-4-3-9-1-9 2-1 1-19-2-22l-2-11c0-7-1-10-2-12-2-1-2-2-2-4 1-2 0-5-1-7l-1-4-1 2-2 10-1 5-2 14-2 11v5l2 3-1 2-1-2-1-3-1-6a761 761 0 0 0 2-22c1-1 2-2 2-6l1-7c2-2 2-8 0-10-3-3-3-2-5 1l-1 6c1 3 0 6-1 5l-1-1c1-1-1-4-2-4l-2 6-1 7c-2 5-3 18-2 20l2 9v14c-1 4 0 7 1 12 2 5 2 7 1 10l-1 13c0 6-1 9-2 10-1 2-1 3 1 6 2 4 3 13 1 13l-1-4-1-5c-2-1-4-9-4-11l2-2c2 0 2-1 2-6l-1-7c-4-9-4-12-1-12 1-1 2 0 2 1 1 2 1 2 2 1 1 0 1-2-1-5l-3-8v-5c2-1 2-2 1-9l-3-10v-4l-1-3 2-15c3-13 3-13 1-18l-2-7-2-5-3-4-2-5c-2-2-3-4-3-15l1-14c1-2 4 0 4 2-2 6-2 19-1 19l1-2 2-2 1-4 1-6v-16c-1-3-3-3-3 0l-1 2c-2 0-2-2 0-8 1-4 1-4-1-8l-2-4-1-3c-2-4-2-5 1-6l3-4 4-6 3-3v2c0 3 0 3 2 3 3 0 4 1 5 8l2 8c3 7 2 16-2 17-2 0-2 1 0 4l1 5v4l2 9c0 9 1 12 2 8l1-6 1-5v-2c-2-2-2-4-1-6 0-1 1-2 3-1 3 1 4 5 3 10l2 6c2 4 3 16 1 18-1 2 0 11 1 12 1 0 2-1 2-3 3-7 5-1 5 12l1 21 1-6c1-8 3-9 3-1l3 9v13c-2 4-3 26-2 27l1 2c0 2 0 2 1 1v-10a697 697 0 0 0 4-9c2 0 2 0 1 6l1 5 1 2 3 9c2 4 2 7 3 15a559 559 0 0 0 0 28c-1-1-2-3-2-10l-2-11v-3c2-6 0-16-3-17-2 0-2 0-2 3v5c2 0-1 12-4 20v11c1 5 1 6-1 6l-3 2h-1zm6-37v-1h-1c0 2 1 2 1 1zm-33-97a212 212 0 0 0 0-21c0-10-2-15-3-10l-2 3c-2 0-2 1-2 4l-1 3c-1 0-3 10-2 15l1 4 1-9c1-10 3-16 4-16s1 12-1 15v9a679 679 0 0 1 2 8l2 1 1 1v-7zm8-2c2 0 3-3 1-3l-1-3c0-3 0-3 2-3 3 1 4-1 2-5l-1-5-1-1-1 2-2 6c-4 7-4 15-2 14l3-2zm-11-36c0-2-2-2-2 1l1 1c1 0 2-1 1-2zm3-17c1-1 0-10-1-9l-1 6c0 5 1 7 2 3zm-6-6v-2l-1 2v1l1-1zm-6-6c-1-1-1-1-1 1s1 4 2 2l-1-3zm9-10c-1-1-2 1-1 3h1v-3zm-5 0h-1l1 2v-2zm763 209-1-7-2-9c-2-2-2-2-1 0v11l-1-1-2-4c-2-4-2-7 0-10 2-2 2-2 1-4-3-7-4-19-2-19l5 9a132 132 0 0 0 7 34c0 2-2 3-4 0zm41 1v-15c1-3 2-3 2-1 2 4 1 16 0 16h-2zm-818-2c-2-3-2-8-1-13 2-7 2-9 1-11-3-2-3-7-2-12 1-4 1-6-1-10-2-7-2-10 0-11l1 4c2 8 3 8 3 1 0-5 0-6-2-7-2 0-3-2-3-2 0-3 3-2 5 1l2 3v-9l1-13c1-3 2-5 1-7-2-6-1-12 2-15 2-3 2-5-1-8-2-2-3-13-1-17 1-3 4-3 3 0-1 9-1 12 1 15s3 7 0 9l-1 14-1 12v22c-2 0-2 1-2 2l1 3v8l-1-3c-1-5-3-4-4 2v13c3 5 3 11 2 17-2 4-2 6-1 6l2 4c1 3 1 3-1 3l-3-1zm806-10c-1-7 0-21 2-21l1 13-1 14c-1 0-2-2-2-6zm-781 0-1-6 1-2c2 1 2 11 1 11l-1-3zm761-5-5-19c0-5 2-3 5 8 3 9 4 11 3 12s-2 1-3-1zm53-12v-24c2-2 3 19 1 25l-1 3zm16 0v-4c1-1 1-1 1 1 1 3 0 5-1 3zm-2-9-1-11v-9l-1-1 1-1c1 0 3 5 3 9l1 8-1 6-2-1zm-50-5-1-8v-9l-1-13c0-14 2-12 2 2l2 16v15l-2-3zm-31 2v-3l2-9c0-18 2-33 3-34l1 14a117 117 0 0 1 0 25h5l2 2c0 2-3 4-4 2-1-1-6 0-6 2 0 1-1 2-3 1zm-7-8v-10l-1-14v-5c1 0 3 6 3 10 0 3 0 3 2 1 2-1 2-1 2 2s0 4-2 5c-1 1-2 2-2 7l-1 6-1-2zm4-8h1v2l-1-2zm-742-3-2-4-2-8 5 13c-1 1-1 0-1-1zm788-8-1-11-1-9v-6l1 6 3 14c1 7 1 15-1 15l-1-9zm-784 7v-5l1-2v3c1 5 1 6-1 4zm790-7-1-3 2 2v3l-1-2zm26-6 1-5c1-5 2-6 3-2l-3 9c-1 0-2-1-1-2zm-8-1v-5c1-1 1 0 1 2 0 4 0 5-1 3zm-816-2v-4c1-2 2 0 1 3 0 2-1 2-1 1zm786-8-1-17c1-3 2-2 3 1 0 4-1 18-2 16zm38-3-2-3v-6l5 10c0 2-3 1-3-1zm-18-7v-3c2-3 2-2 1 2l-1 1zm-44-1c-1-5 2-20 3-21h3v6l-2 8-2 7c0 1-2 2-2 0zm46-7v-4l-1-8a274 274 0 0 1-2-11c-1-5 2-3 3 1l2 5 1 8c1 6 0 8-1 10-1 1-2 1-2-1zm-17-1c-1-2 0-4 1-4 3 0 4 2 4 3-1 2-5 3-5 1zm-789-3 2-2 1 2-1 1-2-1zm794-6 1-2 1-6 1-5v14c-1 2-3 1-3-1zm-807-4-1-10 3 10c0 2-2 1-2 0zm795-5c-2-4-3-10-2-10 1-1 3 2 3 5l1 3 1 3c0 3-1 3-3-1zm-779 1 1-1h1l-1 2-1-1zm747-5c-2-1-1-15 1-21l4-13c2-8 2-8 2-1 0 6 0 8-2 11-2 2-2 6-3 14 0 10-1 12-2 10zm46-4v-11l-1-10c-3-6-4-11-4-20l-2-9c-1 0-2 1-2 3l-1 4v9c1 7 0 10-2 8-2-1-1-19 1-21l1-2 2-4 1-5 1-2c2 1 2 3 4 17 2 11 3 17 5 21l1 11-1 10c0 2-1 3-2 3-2 0-2 0-1-2zm-59-12c-2-2-3-14-3-22v-13l1-13c0-14 1-18 4-12l2 3c2-1 2-4 1-14 0-4 0-5 2-7l2-3-2-6-3-7-1-4v-4c1-2 0-4-1-6V21l2-4 1-3c0-2 4-3 4-1v20c0 2 0 2 2 0l1-3 1-2c1-1 2-4 1-7 0-4-1-6-3-8l-3-4-2-4c-1-2-1-2 1-4 2-1 6-1 7 1v2l-1 5c0 3 0 3 1 2 2-1 3 0 5 3 2 2 3 6 4 15l2 7c1 2 1 3-1 3-1 0-4-8-4-12 0-3-1-4-2-4-2 0-2 0-2 2v4l-2 5c-1 2-2 4-4 4l-1 2 1 2c-1 1 0 2 1 3h1l1-1 1 8v13h-1l-1-1-1 4-1 5-1 11c1 8 1 9-1 10s-2 7 1 9c1 1 2 3 1 4l2 2 1 5c0 5-2 5-3 0-2-5-3-5-3 1 0 4-1 5-2 6l-1-9c1-9-1-19-3-19l1 16v9l-1 16c1 12 1 16-1 13zm11-94c-1-4-3-5-3-1l2 4 1-3zm-4-21-1-6c0-5 0-5-1-2-1 6-1 12 2 8zm34 84v-4c1-2 2-16 0-17l-1-4-1-7v-5c1-3 1-3-2-6-2-3-3-3-4-2-2 1-2 1-2-3l-1-12-3-5c-2-2-3-8-1-8 3 0 6 7 7 18v5l2 1c2 0 3 1 6 4 2 4 3 5 3 18 1 21 1 24-1 26-1 2-2 2-2 1zm-27-27V79c-1 0-2-3-1-7 0-4 2-5 2-1l1 10-1 8h-1z"/>
</svg>
