<?xml version="1.0" encoding="utf-8"?>
<svg xmlns="http://www.w3.org/2000/svg" version="1.1" viewBox="0 0 545 595">
	<title>Sketch of a knife with a oval wooden handle and curved blade ending in a point.</title>
	<path d="M54.6 592.9c-1.4-1.6-1.9-3.7-2-8.3a405 405 0 0 0-5.4-41.4c-1.5-6.3-3.2-31.3-3-43 .2-11.6 1.1-10.7-11.5-12.3-8.7-1-8.5-1-20.2-12.6a26.2 26.2 0 0 1-6.8-9.3 33 33 0 0 0-2.3-6.3C.9 454.7-.2 449 0 442l.2-13c0-3.6.6-8.3 1.4-10.5A76 76 0 0 0 4 407.2c1-6.2 2-8.8 7.6-18a186 186 0 0 1 11-16.3c2.5-3 5.4-7.1 6.4-9 1-2 3-4.2 4.5-5 1.4-.8 2.6-2.2 2.6-3.2s2-3.9 4.5-6.4c2.5-2.6 4.5-5 4.5-5.4 0-.5 2.4-3.7 5.3-7.3 2.9-3.6 7.3-9.3 9.7-12.8 2.5-3.5 5-6.8 5.6-7.4l7.4-9c5-6.3 20-23.5 23.1-26.6a24 24 0 0 0 2-3.3 30 30 0 0 1 4-5.6 913 913 0 0 0 10.4-11.6c8.5-9.6 9.5-10.6 24.8-26.5 5.6-5.8 12.5-13.5 15.5-17.2 2.9-3.6 8.9-10.3 13.3-14.7a390 390 0 0 0 13.1-14c3-3.4 6-6.4 7-6.7a20 20 0 0 0 5.5-5.2c3.2-4.1 3.6-5.2 3-8.5-.5-3.3-.2-4.1 2.4-6.8 5.1-5.1 11.4-3.2 13.7 4.2.4 1 1 1.8 1.5 1.6.4-.1 3.4-3.4 6.5-7.3 7.8-9.5 16.3-18.3 35.1-36.1 17.1-16.3 25.2-23.4 26.3-23.4.4 0 3-2.2 5.8-5 2.8-2.7 7-6.2 9.1-7.7a472 472 0 0 0 9.6-7.1c3.2-2.4 7.7-5.5 10.2-7 7.3-4.5 25-16.4 27-18.3 1.2-1 9.5-5.5 18.6-9.9a690 690 0 0 0 19-9.5 95.4 95.4 0 0 1 19.4-8.6c.8 0 2-.6 2.7-1.5.7-.8 2-1.5 2.9-1.5a4 4 0 0 0 2.6-.9 65.6 65.6 0 0 1 18.3-6.8c2 .4-2 2.4-13.1 6.4-6.4 2.3-17.8 7.9-29.3 14.2l-17 9c-11.9 6.3-19.5 11.6-13.2 9.2 1.5-.5 4-1.7 5.8-2.6 1.7-.9 3.8-1.4 4.7-1.2 1.1.3-.2 1.3-3.5 2.7-3 1.3-5.3 2.7-5.3 3.2s-.5.9-1 .9c-2.6 0-33 21.2-47 32.8l-8.1 6.5a378.7 378.7 0 0 0-20.6 17.4c-1.6 1.3-10 9.2-18.4 17.6s-17.8 17.3-20.6 19.8a99.5 99.5 0 0 0-10 10.8A246.3 246.3 0 0 1 212 183c-2.6 1.6-4.6.8-4.7-2v-2.8l-2 2.5c-4.6 5.7-4.5 5.9 2.1 5.3 5.5-.5 6.7-.2 13.3 3 4 2 9 5.3 11 7.2 3.2 3 4.6 3.5 8.2 3.5 3 0 4.7-.5 5.7-1.8 1-1.5 2.2-1.8 5-1.4l3.8.5-.4 5.6c-.4 4-.3 5 .4 3.2.4-1.4.9-4.4 1-6.6s.6-4.9 1.4-6c2.3-3.1 2.5.4.5 10-1 4.9-1.7 9-1.5 9.3.8.8 3.7-8.3 5-15.7 1.5-8.2 2.1-10 3.8-10 .6 0 .8 1.2.3 3-.4 2.2-.3 3 .4 2.5 1.2-.7 3-4.5 5.7-12a97 97 0 0 1 10-17.4c.2-.2.9 0 1.5.3.8.5.7 1.2-.3 2.4a71.3 71.3 0 0 0-9 17.4c.6.8 2.3-1.2 8.8-10.8 2.6-3.8 6.3-8.7 8.1-10.7s3.4-4.1 3.4-4.5a45 45 0 0 1 11.6-12c.4.4-1.6 3.4-4.4 6.6a45 45 0 0 0-5.2 6.6c0 .4-2 3-4.3 5.9-7.6 9-18 25.7-16 25.6.4 0 3-3.5 5.8-7.7a438 438 0 0 1 25-33.8c4.3-5.2 5.3-7 4.1-7.3-.8-.2-1.6-1-1.6-1.7 0-1.9 17.1-17.5 19.2-17.5 1 0 1.9-1 2-2.2.3-1.6 1.2-2.5 3-2.8 2.6-.5 17.2-13.4 31.4-27.8 2.8-2.9 5.6-5.2 6-5.2s2.7-1.5 5-3.4a55 55 0 0 1 6.5-4.6c1.4-.7 3.4-2 4.5-3a49 49 0 0 1 6.7-4.3c2.6-1.5 6.6-4 9-5.7 2.3-1.7 4.5-3 5-3a350 350 0 0 0 25.4-14c4.7-3.8 42.2-21 45.7-21 .6 0 2.2-1 3.6-2 1.4-1.1 4-2.5 5.7-3l12.5-4.4c10.3-3.7 10.7-5.3 1-4.2-6.4.8-7.9-.4-2.9-2.5a14 14 0 0 1 6.8-.6c9.3 1.5 15.3 1.6 15.3.2 0-.8.5-1.6 1.2-1.8.7-.3.5-.7-.5-1-1.2-.5-1.7-.2-1.7.8 0 1.2-1 1.5-4.3 1.2-3.4-.2-4.2-.6-4-2 .3-1.5-.5-1.8-5.7-1.8-3.5 0-6 .5-6 1 0 2-6.3 4.8-12.2 5.5-7.2.8-9 1.3-9 3 0 .6-4 2.4-9.2 3.9-13.2 3.9-13.7 4-13.7 2.8 0-.6 1-1.4 2.4-1.7s3-1.3 3.6-2c.7-.8 2-1.5 3-1.5s2-.6 2.3-1.5c.4-.8 1.1-1.5 1.7-1.5.6 0 .8.5.4 1.1-.4.7 0 1 1.2.7 1-.2 1.8-1 1.6-1.6-.1-.6.8-1.2 2-1.2 1.3 0 3.6-.6 5.2-1.3 2.7-1.2 2.8-1.3 1.2-3-1.3-1.3-2.2-1.4-4.4-.6a9 9 0 0 1-4.8.5 98.5 98.5 0 0 0-25 4.8c-6.1 2.3-18.8 4.6-17.3 3.1A188.6 188.6 0 0 1 531.5 2.7c2.7.6 6.2 1 7.7 1 3-.1 5.8 3 5.8 6.7 0 2.6.8 2.4-14 2.6-9.9.1-13.1.6-22.6 3.4a156.5 156.5 0 0 0-26 10.1 181.5 181.5 0 0 0-36 17 248 248 0 0 1-13.5 7.2 109.1 109.1 0 0 0-16.6 9.7 84.5 84.5 0 0 0-14 9A106 106 0 0 1 390 77a84 84 0 0 0-10.8 6.7c-.6 1-9.7 8.1-14 11-7 4.7-49 45.2-56 54-2.3 2.9-6.2 7.5-8.8 10.5a110 110 0 0 0-13.2 19.5c-.6 1.4-2.1 3.7-3.4 5s-4 5.2-6 8.5-4.4 7.2-5.5 8.6a77 77 0 0 0-8.7 14.5c0 .6-1.4 3-3.2 5.5-4.3 6-5.9 10.1-5.9 15.7a52 52 0 0 1-6.5 25.8 105.7 105.7 0 0 1-10.5 16.9c0 .2-3 5.1-6.5 10.8a77.6 77.6 0 0 0-6.5 11.6c0 .7-3 5.6-6.5 11-8.7 13-8 11.8-13 19.7-2.4 3.9-6 9-7.8 11.5-1.8 2.5-5 7-6.9 10a439 439 0 0 1-28 40c-.7.7-13.9 17.9-19.8 25.9-2.5 3.4-7.6 9.8-11.1 14-3.6 4.3-8 9.5-9.6 11.6a96.5 96.5 0 0 1-8 9C84 485.4 82.1 486.9 72 488c-7.8 1-9.3 1.6-8 3.3.6.6 1.3 8.8 1.6 18.1a238.8 238.8 0 0 0 4.7 43 499 499 0 0 0 3.2 20.2c1.3 6.5-.9 13.8-5.7 19-2.7 2.8-4 3.4-7.3 3.4-2.7 0-4.5-.6-5.9-2.1zm8.9-3.7a27 27 0 0 0 2.8-9.3c1.2-7.8 1.2-8.5-2.5-38-2.2-18-3.7-45-2.7-48.6l1-3-5.2.4c-8.5.7-8-.7-7.4 18 .2 9.3 1.1 20.5 2 25.3a283 283 0 0 1 2.8 19.5c.7 6 2 13.7 3.1 17 1.5 4.6 1.9 7.5 1.4 12.3-.4 3.4-.4 6.7 0 7.2.9 1.5 3 1.2 4.7-.8zm14.8-107a17 17 0 0 0-5.2-3.3 48.7 48.7 0 0 1-8-4.8c-2.7-2.2-2.9-2.2-2.9-.5 0 2.3 4.6 5.9 9.9 7.8 4.3 1.6 6.2 1.8 6.2.8zm4.6-6c.4-1.5.7-3.6.6-4.5-.1-2 1.7-3.5 2-1.6l.3 2.3.4 2.4c.2 3 1.3.1 2-5.3.9-6.4-.1-7.1-4-3a41.8 41.8 0 0 1-6.6 5.2c-2.4 1.5-4.3 3-4.3 3.5 0 1.5 4.3.7 5.6-1 1.2-1.6 1.3-1.4 1.3 1.5 0 4 1.8 4.2 2.7.5zm-39.3-9-.7-17c-.2-6.5-.7-7.1-11-14.8a35 35 0 0 1-5.9-6.5 120 120 0 0 0-6-7.8 31 31 0 0 1-4.3-6.8c-1.8-4.3-3.6-4.4-3.4-.2.1 1.8-.6 6-1.5 9.2-1.5 5.4-2.2 13-1 9.8.3-.6 1.2-1.2 2-1.2 1 0 1.4 1.7 1.4 7.5 0 4.1.4 7.5.8 7.5s.8-2.5.7-5.5c-.2-6.1.9-9 2.4-6.5.5.8.7 4 .5 7.2-.4 4.4 0 7.4 1.6 12 1.1 3.3 1.8 6.3 1.6 6.6-1 1-3.6-.8-3.6-2.6 0-2.8-2.4-7-4.2-7.5-1.8-.5-3.8-6.4-3.8-11 0-2.5-.3-2.8-1.5-1.7-1.8 1.5-2 4-.4 4 .8 0 1 1.7.6 5.6a17 17 0 0 0 1.7 10.8 32 32 0 0 0 29.8 19.5l4.8.1zm-17.4 4.1c0-.8.5-1.4 1.2-1.2 1.8.7 2.1 2.8.4 2.8-.9 0-1.6-.7-1.6-1.6zm-12-6.4c-1.5-2.8-.5-3.9 1.7-1.7 1.2 1.3 1.4 2 .6 2.8-.8.8-1.5.5-2.3-1zm10.7-1.7c-1.2-1.1-.8-2.3.8-2.3.8 0 1.5.7 1.5 1.5 0 1.6-1.2 2-2.3.8zm-10.5-4.5c-1.4-1.4-1.6-4.8-.3-4.8.9 0 2.5 5 1.8 5.6-.2.2-.9-.2-1.5-.8zm-1.2-32.3c0-.8.6-1.5 1.5-1.5s1.5.7 1.5 1.5-.7 1.5-1.5 1.5-1.5-.7-1.5-1.5zm53.2 39.2c6-3.6 6.2-4 4.4-5.3-1-.8-2.8-1.4-3.8-1.4-2.6 0-15.7-7.3-15.8-8.7 0-2 1.6-1.6 6 1.2a67.2 67.2 0 0 0 17 6.5c2 0 11-9.3 12.5-13.2 2.1-5.2 1.5-5.9-1-1.2a21 21 0 0 1-4.7 5.8c-2.4 1.7-3.2 1.9-5.8.9-1.7-.7-3.8-1-4.6-.6-1.3.5-1.2 1 .8 2.4 1.3 1 2 2 1.8 2.3-1 1-10.7-2.4-14.3-5.1a55 55 0 0 0-11.6-7.3c-.4 0-.4 2.1 0 4.7.5 2.7.8 10 .9 16.5 0 8 .4 11.8 1.2 12 .7.3 3.3-1 5.9-2.6l11-7zm27.4-1c.5-4 .4-5.7-.4-5.7-.6 0-1.1 1.5-1.2 3.3 0 1.7-.2 4.7-.4 6.6-.5 5.7 1.3 2 2-4.1zm-21.6 4c0-1.8-.2-1.9-1-.7-1.2 2-1.2 3 0 3 .6 0 1-1 1-2.2zm26.6-5.7a2 2 0 0 0-1.3-1.7c-.7-.3-1.2.4-1.2 1.7s.5 2 1.2 1.8a2 2 0 0 0 1.3-1.8zm2.2-4.7c-.3-1-.5-.4-.5 1.2 0 1.7.2 2.5.5 1.8.2-.7.3-2 0-3zM88.6 455l1.3-5.7c.5-2.2.4-2.6-.6-1.8-.6.6-1.5 2.7-2 4.5-.4 1.9-1.1 4.2-1.5 5.2-.6 1.3-.4 1.6.8 1.2.8-.4 1.7-1.9 2-3.4zm19.7-5v-4.6l-2 2.4a9.8 9.8 0 0 0-2 6.4c0 4 0 4 2 2.2 1.5-1.3 2-3 2-6.4zm-14.1-.5a76 76 0 0 1 1.7-6c.3-.9.2-1.6-.3-1.6s-1.7 2.4-2.6 5.3c-2 6.2-2 6.7-.8 6.7.5 0 1.4-2 2-4.4zm18.4.7c.3-.5.8-2.8 1.2-5.3.6-4 .5-4.3-.8-3-1.6 1.7-3 9-1.7 9 .5 0 1.1-.3 1.3-.7zm-44.3-2.5c1-1.8 1-2-.4-1.5-.8.3-1.7 0-2-.6-.2-1-.7-1-1.8 0-.9.7-1.8 1-2.2.6-.4-.3-.7-.2-.7.4 0 .9 3.5 3 5.3 3.2.4 0 1.2-.9 1.8-2zm45.9-18.5c-1.1-1.3-1.4-1.2-2.1.8-1.1 3-5.8 7.6-5.9 5.8 0-.8-1 .6-2 3l-2.1 4.6-1-3-1.1-3-1.3 4.5c-.8 2.5-1.4 5.2-1.4 6 0 .8 4-2.7 9-7.9 7.6-7.8 8.9-9.6 7.9-10.8zM81 443.3c3.2-7.4 3.7-8 6.7-7.7 2.5.2 3.6-.5 6.4-4.2 1.8-2.5 4.1-4.5 5.1-4.5a49 49 0 0 0 12.7-13.7c.3-.7 1.3-1.5 2.4-1.8a5 5 0 0 0 2.5-2.8c1-3.2 3.4-5.7 5-5.1.6.3 2.7-1.4 4.6-3.7 1.8-2.3 5.7-6.6 8.6-9.7 2.9-3 5.3-6 5.3-6.9 0-.7.3-1.3.8-1.3s2.4-2.2 4.2-4.8c1.9-2.6 3.7-4.9 4.2-5 .4-.3 4.8-5.4 9.7-11.6a320.5 320.5 0 0 1 22-26.7c.9-.8 3.4-4.3 5.5-7.8 2.2-3.5 5.4-8.3 7.3-10.8 1.8-2.4 3.4-5.1 3.4-6s1.4-3.3 3.2-5.4c5.6-6.3 6.7-7.9 8.1-11.3.8-1.9 1.1-4 .7-4.8-1-2 1.6-8 3.5-8 .8 0 1.5.5 1.5 1s.7 1 1.6 1c1 0 1.3-.5.9-1.8-.6-1.9 3.8-12.1 5.1-12.1.4 0 1.2.7 1.9 1.6 1 1.5 1.4 1.3 3.2-1.7a365 365 0 0 0 12.1-24c1.8-3.8 2-5.6 1.4-12.1-.8-8.2-1.6-10.3-2.7-7-.9 2.9-2.3 2.7-3-.3-.4-1.4-1-2.5-1.4-2.5-.4 0-3.3-2.5-6.5-5.5-3.1-3-6.5-5.6-7.6-5.6-1.1 0-2-.6-2-1.5 0-1.9 3.3-1.9 7 0 1.7 1 3.4 1.4 3.8 1.2 1.2-.8 5.9 3.6 7.8 7.4 1.4 2.6 1.9 3 2.2 1.7.2-1-.3-3-1.2-4.3-2-3-2-4.5 0-4.5.8 0 2.2 1.5 3 3.3s1.4 2.5 1.4 1.6c0-.8-1-3.1-2.3-5a39.5 39.5 0 0 1-3.1-5.4c-.5-1.2-1-1.5-1.3-.7-.7 1.9-1.6 1.6-5.8-2.3-2.7-2.5-3.5-3.8-2.7-4.3.9-.6.5-1.4-1.2-3-2-2-2.7-2.1-4.4-1-1.6 1-2.9 1-6 0-5.4-1.6-17.6 0-21.4 2.8a18 18 0 0 1-6 2.7c-2 .4-4.8 2.5-7.8 5.7l-6.8 7.4-2.3 2.3 2.8 1a61 61 0 0 0 12 4.5c6.6 2.1 9.1 4 7.6 5.5-.8.8-1.8.8-4-.3a31 31 0 0 0-6.4-2.2c-1.9-.5-5.5-1.9-8-3.2-5-2.6-7-3-7-1 0 .6 1.9 1.9 4.2 2.7 2.3.8 4.4 2 4.6 2.7.6 1.8-5 1.6-7.3-.2a7.7 7.7 0 0 0-3.6-1.5c-2.6 0-28.5 25.9-52.6 52.6a375 375 0 0 0-24.4 29.3c0 .4-4.1 5.4-9.1 11.2a404.5 404.5 0 0 0-31.7 41.3c-2.8 4.5-8.6 13-12.7 18.8-4.2 6-7.6 11.6-7.6 12.7s-.5 3.2-1.2 4.6c-.9 2-.9 3 0 3.7.7.7.8 1.8.2 2.8a13 13 0 0 0 0 6c.4 2.5.6 6 .3 8-.5 3-.3 3.4.8 2.3 2.4-2.3 3.9-1.5 3.2 1.8-.4 2.2-.2 3 .9 3 .8 0 2.4 1 3.6 2.2 2 2.2 2.2 2.6 2.2 4.8 0 .5 1.1 1 2.4 1 2.9 0 3.7-3 2.2-7.3-.8-2-.7-3.3.2-4.7a8.4 8.4 0 0 0 1.2-3.8c0-3 4.5-6.2 8.3-6 3.9.4 4.5 2.3 2.3 7-.8 1.8-1.4 4.8-1.4 6.6.1 2.5-.6 4-3 6.2-5.5 5-3.9 9.8 5.1 15.5 2.5 1.6 3 1.6 4.5.2 2.5-2.2 10.3-3.3 11.3-1.6.6 1 1.4.7 3-1.4 2-2.5 4.8-3.5 6.3-2 .3.3 0 2.1-.9 4-.8 2-1.4 4-1.4 4.5 0 2 2.5 0 3.8-2.8zm2.2-14.3c0-1.4 2.8-3.3 3.9-2.7 1.6 1 0 3.6-2 3.6-1 0-2-.4-2-.9zm10-9.6c0-.8 1-2 2-2.5a25 25 0 0 0 5.6-6.6c2.2-3.5 4.2-5.4 5.4-5.4 3.4 0 3.1 1.7-1 6.7-7.2 8.2-12 11.4-12 7.8zm-30-3.9c0-1.8 3.2-4.6 5.3-4.6 2.2 0 2.1 2.3-.2 4.3-2.2 2-5.2 2.2-5.2.3zM77.8 403c-1-1.4 5.4-9.1 7.5-9.1 3 0 2.3 3.2-1.4 6.8-3.3 3.2-5.2 3.9-6.1 2.3zm35.4-4.4c0-3.1 1.5-5.1 3.4-4.4 1.2.5 1.3 1 .3 3.6-1.3 3.6-3.7 4-3.7.8zm-76.7-2.2c-.3-.8.4-2.7 1.5-4.1a11 11 0 0 0 2.1-6.1c0-4 1.3-6.8 4.6-10.3l6-6.7c2.2-2.7 4.1-4 5-3.7 1.8.7.7 2.7-7 12-4.3 5.3-5 6.7-4.8 10 .2 3.1-.3 4.5-2.8 7.1-3.5 3.7-3.8 3.8-4.6 1.8zm59.2-8.8c-.3-.7 3.6-5.6 9.3-11.3 5.4-5.5 11.5-11.9 13.5-14.2 4.1-4.6 5.7-5.3 5.7-2.5 0 1.9 4.7-3 12.2-12.5 2.4-3 5-5.3 6-5.3s1.9-.3 1.9-.7 2-3 4.5-5.8a29 29 0 0 0 4.5-5.7c0-.4.7-.8 1.5-.8s1.5.5 1.5 1c0 2.1-12.4 17-14.5 17.6-1.2.3-3 1.8-4.1 3.2-4.8 6.6-20.2 22.8-21 22-.7-.7 1.3-5 2.9-6 .6-.3.8-1 .5-1.3-.4-.3-2.8 2.2-5.5 5.7-9.5 12.3-17.8 19.6-19 16.6zm28-24.8c.4-.5.2-1-.4-1s-1 .5-1 1 .1 1 .4 1c.2 0 .7-.4 1-1zm-.5 21.6c0-.8.4-1.6.8-2 1.3-.7 3.6 1.1 2.8 2.3-1 1.7-3.6 1.4-3.6-.3zm-47-3.8a17 17 0 0 1 3.9-5.5c2.1-2.3 4-4.7 4.3-5.4.2-.6 1.1-1 2-.7 1.6.3 1.6.6 0 3.7-3 6.5-10.2 12-10.2 7.9zm50-2.2c0-.7.4-1.5.9-1.7.4-.2 4.3-5 8.5-10.6a99.3 99.3 0 0 1 9-11c4-2.2 17.1-15.2 18.8-18.4 1-2 2.2-3.8 2.7-4a41 41 0 0 0 5-6.6 33 33 0 0 1 6-7.2 10 10 0 0 0 3.2-3.8c.8-1.5 3-5 5-7.8 3.3-4.5 4.8-7.2 9.1-16 .8-1.5 2-3 2.7-3.3 2-.6 1.4 3-1.8 9.2-1.6 3.2-3 6.7-3 7.8s-.6 1.8-1.3 1.8c-1.5 0-9.7 11.3-9.7 13.4 0 .7-1 2.3-2.3 3.5a26.3 26.3 0 0 0-4.2 5.6c-1 1.9-2.9 3.8-4.1 4.4-1.3.6-3.6 3-5.1 5.3a61 61 0 0 1-7.7 8.8l-8.3 7.8-4.7 4a148 148 0 0 0-14.7 19.4c0 .5-.9.9-2 .9s-2-.7-2-1.5zm19-8.1c0-1.6 2.3-4.5 3.6-4.5 1.8 0 1.8 1 0 3.3-1.2 1.6-3.5 2.4-3.5 1.2zm-56-6.2c5.6-7.2 17.8-21.2 25-28.5 6.4-6.5 8.7-9.5 9-12 .4-2.5 1-3.4 3-3.6 2-.3 2.2 0 1.7 2.2-1.5 5.9-3 8-13 17.9a277.5 277.5 0 0 0-16.6 18c-4.1 5.1-7 7.7-8.3 7.7-1.8 0-1.9-.2-.7-1.7zm-35-4c0-1.5.9-4.3 2-6.2a106 106 0 0 1 16.7-20c2 0 1.5 1.3-2 6a140.8 140.8 0 0 0-13.8 21.6c0 .8-.6 1.3-1.5 1.3-1 0-1.5-1-1.5-2.7zm104.1-7.9c0-.7 4-6.5 5.5-7.9.6-.5 2.4-2.7 4-4.8 1.5-2 3-3.6 3.2-3.3.7.7-2.5 7.8-4 9.1-.7.6-2.3 2.5-3.6 4.3-2 2.8-5.1 4.4-5.1 2.6zm-78.1-2.4c0-3.3 12.8-22 15-22 1.8 0 1 3.2-1.8 6.8l-5.9 7.7c-1.6 2.2-3.5 5-4.2 6.3-1.2 2.3-3.1 3-3.1 1.2zm-1.9-19.6a3 3 0 0 1 2.2-2.2c1.4-.3 1.8.2 1.5 1.5a3 3 0 0 1-2.2 2.2c-1.3.2-1.7-.2-1.5-1.5zm5.5-7c-1-1.2-.7-2.1 2-5.3 2.5-3 5.4-4.1 5.4-2 0 1.2-5.2 8-6.1 8-.3 0-.9-.4-1.3-.7zm74-3.3c-.9-1.5 1.3-5 3-5 2 0 1.9 2.3-.4 4.3-1.2 1.1-2.1 1.4-2.6.7zm-50-5.9c-1-1.6 2.8-6.9 13.4-18.3 8.9-9.6 11-11.3 11-8.7 0 1.3-1.5 3-13 15.8l-8.3 9.4c-1.5 2-2.6 2.6-3 1.8zm21.5-1a19 19 0 0 1 4-4c4.6-3.9 6.5-2.4 2.4 1.9-2.6 2.7-6.5 4-6.4 2.2zm38-1.1c0-1.8 3.5-7 4.8-7 1.6 0 1.5 1.4-.3 5-1.4 2.7-4.5 4-4.5 2zm-28-1.5c0-.8.5-1.6 1.2-2 1-.3 1-.6 0-1.4-1-.6-1.2-1.7-.8-3.1.9-2.6 4.6-6.2 5.6-5.6.5.3 2.5-1.9 4.6-4.7 5-7 5-7.1 6.3-6.4.7.5.6 1.7-.6 4A171.6 171.6 0 0 1 143 311c-1.7 1.3-3.5 1-3.5-.6zm-43.5-3.3c-1.3-1.3-.4-2.7 8.1-11.6 15.4-16.2 19.2-19.7 21.4-19.7 1.7 0 1.9.3 1 2-.7 1.1-2.6 3-4.4 4.2-1.7 1.1-7.4 7-12.7 13-9.2 11-12 13.3-13.2 12.1zm81.5-15.2c0-1 .7-2.4 1.5-3 1.2-1 1.6-1 2.1.3.7 1.6-1 4.6-2.7 4.6-.5 0-.9-.8-.9-1.9zm-17-12.9c0-2 6.3-11.3 7.3-11 2.9 1-2.2 11.8-5.5 11.8-1 0-1.8-.3-1.8-.8zm-22.2-2c.6-1 2.4-3 4.2-4.7 1.7-1.7 3.8-4.3 4.6-5.8.8-1.5 2.3-2.7 3.3-2.7s2.6-1 3.6-2c1-1.2 1.3-2 .6-2-2.3 0-1-4 2.4-7 4-3.3 7.2-4 8.2-1.4.4 1.1-.5 2.7-2.8 4.8a78.7 78.7 0 0 0-7.9 8.9 32.1 32.1 0 0 1-7 7.2 20 20 0 0 0-4.8 3.9c-2.6 3-5.9 3.7-4.4.8zm46.2-1.6c0-.7 1-2.1 2-3s2.3-2.8 2.6-4c1-3 7.4-12.6 8.5-12.6 1.5 0 1.2 1.6-1 6a18 18 0 0 0-2 6c0 1.3-1.7 3.8-3.6 5.6-3.7 3.5-6.5 4.4-6.5 2zm19-.7c0-.7 1-2.6 2-4.3s2.6-5.5 3.5-8.4c1-3 2.3-5.2 3.2-5.2.7 0 1.4.3 1.4.7 0 1.4-6 15.6-7.2 17-1.3 1.6-2.8 1.7-2.8.2zm12.6-5.9c.2-6 .9-8 2.1-6.7 1.5 1.4.9 9.6-.8 11.3-1.5 1.5-1.6 1.1-1.3-4.6zm-85.6.7a93 93 0 0 1 19.4-19.7c2 0 2 2.6 0 3.8a82.5 82.5 0 0 0-14.2 14.4c-1.7 2.9-5.2 3.8-5.2 1.5zm39-6.5c0-1.3 3-5.2 4-5.2 1.4 0 1.2 3.4-.2 4.8-1.3 1.3-3.8 1.6-3.8.4zm55.1 0c-4-1.3-3.2-5.1 1.1-5 1.7 0 2.6.4 2 .7-.5.3-1 1.5-1.2 2.7-.3 1.3-1 1.9-1.9 1.6zm-5-6c0-2.3-16.4-18.6-20.2-20-1.2-.5-1-2.2.2-2.2 4.3 0 22 16.5 22 20.5 0 1.4-.5 2.5-1 2.5s-1-.4-1-.8zm2.8-5a77 77 0 0 0-18.6-17.4c-3.7-2-5-3.3-4.2-3.9.7-.4 2.3-.4 3.6.1a58.2 58.2 0 0 1 20.1 17c2.4 2.6 4.3 5.2 4.3 5.8 0 2.6-2.1 2-5.2-1.5zm-35.6-21.3c-5.4-3.2-6.7-5-3.5-5 2.2 0 12.3 5.8 12.3 7 0 1.9-3.5 1-8.8-2zm17.7-4.6c-1.7-.5-4-4.4-4-7 0-.7.7-1.7 1.6-2 .8-.3 1.5-1.4 1.5-2.4 0-3 3.3-2.7 6.7.7 3.4 3.4 3.4 4.4.3 9.1-1.5 2.2-2.7 2.5-6.1 1.6zm-22-19.3c0-1.4 6.5-6 8.4-6 2.6 0 2 1.7-1.4 3.6-1.6 1-3 2.1-3 2.6s-.9.7-2 .7-2-.4-2-.9zm12-7.4c0-2.2 5.5-3.7 13.8-3.7 7 0 11.3 1.1 11.3 2.8 0 .4-4.6.8-10.3.8-5.6 0-11.3.3-12.5.8-1.7.6-2.2.4-2.2-.7zm-73 241.6c2.4-2.1 3.4-4 3.9-7 .3-2.7.1-4.1-.6-4.1-.6 0-1.2.9-1.2 2s-.2 2.6-.6 3.5c-.5 1.3-.8 1.4-1.5.3-1.1-1.9-3.5.7-4.3 5-.9 4 0 4 4.3.3zm-85.6-10.5c-7.2-7-7.4-7.1-7.4-5.8 0 1.9 12.3 14.3 13.2 13.4.6-.6-1.6-3.4-5.8-7.6zm74.7-4.6c0-1.3-.1-1.3-1 0-.5.8-1 2.2-1 3 0 1.3.2 1.3 1 0a6 6 0 0 0 1-3zm11.4-6.2c1-6.3 0-5.7-2 1-1 3.4-2 6.2-2.5 6.2s-.9.8-.9 1.7c0 3.1 4.8-4.6 5.4-8.9zm10.7 7.2c0-1.1-.5-2-1-2s-1 .9-1 2 .4 2 1 2 1-1 1-2zm5-5.8c2.2-2 3.7-7.2 2.1-7.2-.6 0-1.5 1.4-2 3.2-.5 2.2-1.4 3.2-2.5 3.1-1.7-.1-2.2.8-1 2 1 1 1.2.9 3.3-1zm-115.7-5.7c-3-3.8-3.5-4.2-3.5-2.3 0 1.6 5 7.1 5.7 6.4.3-.3-.7-2-2.2-4zm96 2.9c.4-1 .2-1.4-.6-1.2-1.5.5-2.3 2.8-1 2.8.6 0 1.3-.7 1.6-1.6zm11.2-2.5c1.3-1.4 2-3.7 2-6.8 0-2.5.5-5.6.9-6.9.4-1.3.3-2.2-.3-2.2s-1.6 1.9-2.2 4.2l-2.4 9c-1.5 5.2-1 6 2 2.7zM11.2 406c0-2.1 3.4-8.3 10-17.9L32 372.5l7-10 4.7-6.7c5.8-8.1 7.4-10.2 15-20 11-14 43.2-52.9 49.3-59.5l18.3-20c9-10 19.7-21.2 23.6-25 3.9-4 8.6-9.3 10.5-12 3.5-5.2 4.2-6 15.7-18.4a237 237 0 0 0 8.3-9.5l1.5-2.2-3 2a112 112 0 0 0-19 19 488 488 0 0 1-21 22.7l-13.1 14.4c-4.6 5-9.6 10.6-11.2 12.6-1.6 2-8 9.3-14.2 16.2A315.3 315.3 0 0 0 86 297.9c-8.7 9.6-15.5 18-20.6 25.3a752.8 752.8 0 0 0-33.7 46.1l-11 15.6a87.3 87.3 0 0 0-12.4 25.9c0 1.2 3-3.3 3-4.7zm40.8 4.2c-.4-.4-1.2-.4-2-.1-.8.3-.5.6.6.6 1 0 1.7-.2 1.4-.5zm74.3-2.4a1 1 0 0 0-2 0 1 1 0 0 0 2 0zm9.7-.5c1-1 1.4-3 1.2-6.2l-.3-4.6-1.6 6.1c-.9 3.4-1.4 6.2-1.2 6.2.2 0 1-.7 1.9-1.5zm11.7-.7c.8-3-.2-3.7-2-1.4-1.7 2.5-1.7 3.6 0 3.6.8 0 1.7-1 2-2.2zM22 401.9c.2-.7-.1-1-.9-.8-.7.2-1.5 1-1.7 1.7-.3.8 0 1.1.8.9.8-.3 1.5-1 1.8-1.8zm130.4-3.3c0-.4-.5-.7-1-.7s-1 1-1 2.2c0 1.8.2 2 1 .8.5-.9 1-1.9 1-2.3zm-9.6-10.2c.7-2.7.7-2.9-.8-1.5-1 1-1.6 3.5-1.7 7-.2 7.5.2 8.4 1 2.5.4-2.8 1-6.4 1.5-8zm5.1-1.2c.7-5.3.2-9.3-.8-6.3-.9 2.7-3.7 14.8-3.7 15.6 0 .5.9-.3 2-1.6 1-1.4 2.2-4.9 2.5-7.7zm8.1 5.4c-.2-.7-.5-.1-.5 1.3 0 1.3.3 2 .5 1.2.3-.7.3-1.8 0-2.5zm3-5c-.3-.7-.5-.5-.5.7 0 1 .2 1.6.5 1.3.3-.3.4-1.2 0-2zm-2.7-10.8c1.3-6.3 1.4-8.2 0-7.4-.5.3-1 1.6-1 2.9a19 19 0 0 1-1.3 5.7c-.8 1.8-1.7 4.5-2 5.9l-.7 2.5 2-2.3a20 20 0 0 0 3-7.3zm8 4.6c0-.9 0-1.5-.3-1.5-.2 0-.7.6-1 1.5-.3.8-.1 1.5.4 1.5s1-.7 1-1.5zm7-9.4c0-3-.2-3.3-.9-1.6-1.2 2.8-1.2 6.7 0 6 .6-.4 1-2.3 1-4.4zm-7.4-.9c2.4-3.1 3.4-5.4 3-6.7l-.6-4.6v-2.5l-1.1 2.3c-.6 1.2-1.5 2.2-1.9 2.2-.4 0-.5 1.8-.2 4s0 4-.6 4.5c-.7.4-1.1-.6-1.1-3.1 0-2.6-.3-3.4-1-2.4-1.2 2.4-2.1 11-1 11 .5 0 2.5-2 4.5-4.7zm11.5-4.7c0-.9.5-1.6 1-1.6s.8-.4.5-1c-.5-.7-1.1-.7-2 .1-1.7 1.4-2 4-.5 4 .6 0 1-.7 1-1.5zm5.3-4.4a6 6 0 0 0-.4-3.3c-.6-1-.9-.3-.9 1.9 0 3.6.5 4.2 1.3 1.4zm-9.9-6.2c.6-4.1.6-4.3-.9-2.5a12 12 0 0 0-1.5 6c0 5 1.5 3 2.4-3.5zm14.5.5c.6-1.4 1.1-3.7 1.1-5 0-1.8.6-2.5 2-2.5 1 0 2.8-1.4 4-3.3 2.2-3.7 2.6-5.7 1-5.7-.5 0-1 .7-1 1.5 0 .9-.6 1.5-1.4 1.5-2 0-5.6 4.9-5.6 7.6 0 1.3-.7 3-1.5 3.8-1.6 1.6-2 4.6-.6 4.6.4 0 1.3-1.1 2-2.5zm-9.9-4.7c0-4.4-1.7-4.2-2 .2-.3 3.5-.1 4 1 4 .6 0 1-1.8 1-4.2zm4.5-7.4c.8-4.4 0-5.6-1.5-2-1.2 3.4-1.3 5.6-.1 5.6.5 0 1.2-1.6 1.6-3.6zm7.5-11.1c0-.7-.4-1.3-1-1.3s-1 1.5-1 3.3c.2 2.7.3 3 1 1.2.5-1 1-2.5 1-3.2zm10.6 1.1c-.4-1.2-1-1.4-1.7-.6-.6.6-.8 1.9-.5 2.8.5 1.3 1 1.5 1.8.7.6-.6.8-2 .4-2.9zm-6-5c.6-2.2 0-4.4-1-3.3-1 1.2-1.5 6-.6 6 .5 0 1.3-1.2 1.6-2.6zm12.5-5.4c0-1.8-.5-2.8-1-2.5-.6.4-1 1.7-1 3 0 1.4.4 2.5 1 2.5s1-1.4 1-3zm-9.4-2.2c-.3-.8-.5-.5-.6.6 0 1 .2 1.7.5 1.4.4-.4.4-1.2.1-2zm4.8-1.7a1 1 0 0 0-.3-1.5c-.5-.3-1.2.1-1.5 1-.6 1.5.9 2 1.8.5zm8.5.2c0-.4-.4-1.5-1-2.3-.7-1.2-1-1-1 .8 0 1.2.5 2.2 1 2.2s1-.3 1-.7zm-5-8.3c1-1.6.8-2-.4-2-.9 0-1.6.9-1.6 2s.3 2 .5 2c.3 0 1-.9 1.6-2zm4-4.3c0-1.8-.2-2-1-.7-1.2 2-1.2 4.3 0 3.5.6-.3 1-1.6 1-2.8zm4-8c0-.4-.4-.7-1-.7s-1 1.2-.9 2.8c0 2.4.2 2.5 1 .7.4-1 .9-2.3.9-2.7zm16-17.7c0-1.3-2.8-2.5-3.7-1.6-.4.4 0 1.1.8 1.6 2 1.3 3 1.2 3 0zM247 235c.4-2 .3-3.2-.4-3.2-.6 0-1 .4-1 .8l-.7 4.3c-.8 4.4 1.1 2.7 2-1.9zm-4.8-16.5c-.3-.7-.5-.1-.5 1.3 0 1.3.2 1.9.5 1.2s.3-1.8 0-2.5zm18.3-4.9c0-1.4-1.1-1-2.6.9-2.2 3-1.6 5.1.7 2.4a9 9 0 0 0 2-3.3zm-5.6 1.7c.3-.9.1-1.5-.4-1.5s-1 .6-1 1.5.2 1.5.4 1.5.7-.7 1-1.5zm-10-3.3c-.7-3-2-5-3-4-.6.6 2.3 6.8 3.2 6.8.2 0 .2-1.3-.2-2.8zm6.3-7c-.2-1-.5-.4-.5 1.2 0 1.7.2 2.5.5 1.8s.3-2 0-3zm22-11.5c.7-1.5 1-2.8.5-2.8-1.4 0-3 2.3-4.7 6.6l-1.5 4 2-2.6c1.2-1.3 2.8-3.7 3.6-5.2zm-7.7 3.2c0-.5-.4-1-1-1s-1 .7-1 1.6.5 1.3 1 1 1-1.1 1-1.6zm-79-1.6c0-1.3-.3-1.4-1.6-.4-.8.7-1.5 1.5-1.5 1.7 0 .2.7.3 1.5.3s1.5-.7 1.5-1.6zm3.4-4.4c.4-.5.2-1-.4-1s-1 .5-1 1 .1 1 .4 1c.2 0 .7-.4 1-1zm21.8-.1c7.2 0 6.8-1.4-.6-2.2-4.3-.5-6.4-.2-9.8 1.3l-4.4 2 4.5-.6c2.5-.3 7.2-.5 10.3-.5zm-16.6-6.6c-.5-.4-1.5.1-2.2 1.2-2.3 3-1.7 4.2.7 1.8 1.2-1.2 1.9-2.6 1.5-3zm8-9.8c.7-4.2-1.1-9.4-2.8-7.7-.7.7-.7 1.6 0 2.9.5 1 .7 3.3.4 5-.7 4.6 1.5 4.3 2.3-.2zm112-37.2c-.7-.7-2.6.7-2.6 1.9 0 .6.6.6 1.5-.2.9-.7 1.4-1.5 1.1-1.7zm-44.6-23c2-2.1 2.6-3.1 1.5-2.5-2.7 1.4-6.7 6.2-5.3 6.2.2 0 2-1.6 3.8-3.6zm45-35.3c.8-.5 1-1 .4-1s-2.2.9-3.5 2c-1.9 1.6-2 1.9-.4 1a23 23 0 0 0 3.5-2zm6.5-4c.8-1.3-.5-1.3-2.5 0-1.3.8-1.2 1 .2 1 1 0 2-.5 2.3-1zm169-70c0-.6-.7-1-1.5-1-.7 0-1.7.4-2 1-.4.5.3 1 1.4 1s2-.5 2-1zM285.6 158.8c0-3 13.3-18.2 16-18.2 1.9 0 1 1.5-3.6 6a85 85 0 0 0-7.7 8.8c-2.9 4-4.7 5.3-4.7 3.4zm67-94.7a24 24 0 0 1 3.8-2.7c2.1-1.2 6.3-4 9.3-6.4 5.5-4.2 17-9.9 17.8-9 .7.7-1.8 3.5-3.2 3.5-.6 0-4.1 2.3-7.8 5a66 66 0 0 1-11.4 7.6c-3.1 2-8.4 3.4-8.4 2zm18.1-18.4a23 23 0 0 1 7-4c4.8-2 7-2.6 7-1.7 0 .7-2.8 2.4-6.2 3.9-6.8 2.9-7.8 3.1-7.8 1.8zm21.6-3c-.7-1.1 4-4.3 4.8-3.4 1.2 1 .7 2-1.8 3-1.4.7-2.7.8-3 .3zm19-4.2c-.3-.4 3-2.5 7.4-4.6 5.2-2.3 8-4.3 8-5.3.1-1.8 20.9-12.1 24.4-12 2.2 0 2.2 0-.1 1a25 25 0 0 0-5.4 3.4 11.8 11.8 0 0 1-4 2.5c-2.1 0-10.8 4.4-10.8 5.5 0 2.1-18.5 11.2-19.5 9.5zm-14.7-6.3c1.9-2.3 5.3-2.9 5-.8-.2 1-1.5 1.8-3.3 2-2.5.3-2.8 0-1.7-1.2zm18-.3c.7-.3 1.6-.3 1.9 0 .3.4-.3.6-1.3.6-1.2 0-1.4-.3-.6-.6zm-3.2-5.2c-.8-1.2 1.2-2 8.6-3.6 6.5-1.4 7.4-.7 2.4 1.7-4.6 2.2-10.3 3.2-11 2zm42.9-4c.7-1.2 5.5-2 6-1.1.3.4-.2 1-1 1.3-2.4 1-5.7.8-5-.2zm16.6-5c0-.7.8-1.2 2-1.2s4.2-.9 7-2c5.8-2.3 6-2.3 6-1 0 1-6.4 3.6-11.4 4.6-2.4.4-3.6.3-3.6-.5zm-31.6-2.6c3.8-1.7 8-2.3 8.3-1.1.1.5-1 1-2.5 1-1.5.1-4.1.5-5.8.9l-3 .6z"/>
</svg>
