<?xml version="1.0" encoding="utf-8"?>
<svg xmlns="http://www.w3.org/2000/svg" version="1.1" viewBox="0 0 1399 99">
	<title>A two-dimensional line where the line starts flat on the left, then rises a very small amount, and is labeled Box Hill. Then the line drops a very small amount and goes up and down in small amounts through the center, labeled The Weald. Finally, the line rises again a very small amount, and is labeled Chanctonbury, after which it barely drops back down and ends.</title>
	<path d="m1323 98-1-1-24 1-9-2-14-1-9-2-11-5-6-3h-4c-3 0-11-3-15-6l-4-2-5-2-7-2-3-1-8 4-20 10a130 130 0 0 1-39 1l-28-4-11-1-34 1-7 3-17 1-44-1a327 327 0 0 0-76 3h-7l-6-2-34-1-13 3-12-2h-11a68 68 0 0 0-19 4l-11 2-9 2-4-1-29-2a537 537 0 0 1-57-5c-12 0-22-1-33-3-8-2-11-2-36-2l-22-2-35-4h-9l-5 2-10 2-11 1a315 315 0 0 1-65 1l-5 1-1-1-2-1-5 1c-5 1-10 2-34 3l-16 1-7-1-30-6h-24l-13 2-14 2-6 2h-13l-19-1a4274 4274 0 0 0-131 1 90 90 0 0 1-38-2 112 112 0 0 1-38-9l-12-4-10-2-9-2-5-1-4 1-10 4-11 5c-6 3-28 7-31 6-2-1-1-3 4-5 2-1 5-2 6-1l10-1 8-1 26-13h3l9 2 7 2a116 116 0 0 1 33 10l5 2 9 1a191 191 0 0 1 23 4l6 1 12-1a570 570 0 0 1 67-1h44l31 1 20 1 9-2 14-3 4-1 4 2 15-3h20l10 3 13 2 11 2 8 2 4-1 8-1 9-1 20-2 16-2 16 1a352 352 0 0 0 69-4l8-2h12a377 377 0 0 1 42 5l23 1h18l8 1 12 2 7 1 2 2h12l15 1 28 2 33 2 9 1 4-1 10-2 13-2 19-3h11l11 2 5-1 4-2h14l20 1 16 2h9l8-3h13l23-2h10l24 4 13-1h34l11-4 16-1a3402 3402 0 0 0 31 1c13 1 27 3 31 5l3 1 7-1 12-1h5l2-1 5-2h3l6-4 12-6 5-2 4 1 4 2 6 2 6 4 4 2 3 1c0 1 3 2 7 2l7 2 9 4 7 3 9 1 13 1 7 1 1 1 1-1 2-1 2 1 2 1 1-1h10l2-1 1-1 2 1 2 1 2-1 2-1 1 1 3 1h2l-1-1v-1h2l4 1 2 2 2-2 2-1 2 1 2 2 8-1 13-2 15-1 11-1 2 2-4 3-34 1-2 1-24 1h-10v1h-2zm49-39-1-2 3-6 3-7-3-5-2-7 1-3 2-1 1 2 2 5 2 2 2-2 2-5c1-2 3-3 4-1l-1 4-4 8-2 4v4l1 3-2-1h-2l-1 2-1 4v1l4-1v1l-4 2h-3zm-830-3c-2-2-1-5 1-5l2 2 1 2v-3l-2-6-2-3-4-3-10-5 1 2c2 0 1 3-1 3s-4-2-4-4 5-6 7-6l4 2 4 2 1 1 2 3h2l4-2 6-3h2v1l-5 4-4 2v2l2 7v5l-2 1-3 2-2-1zm42-4-2-4 3-5h2l4 1 1 1v1l-3 2-3 1 3 1 2 1-2 2c-3 1-1 2 2 1h4v1c0 1-3 2-7 2h-3zm92 4-1-5-1-6v-3l5-5h5v3l-3 1-3 1v1l2 3c2 0 3 2 1 4l-1 2v2h6v2l-1 1h-8zm36-1-3-2-2 1c-1 2-4 1-5-1l-1-4 2-5c1-1 3-4 5-4l2-1 5 5v3l-1 3 2 3c2 2 2 4 0 4l-4-2zm-2-7-1-4-1-1-3 5v2l1 1 3-1zm67 8-2-2-1-2c-1-1-3 0-5 1l-5 2c-2 0-3-3-2-6l3-6 4-2 3 1 2 1V30l2-1 3-2 1 1v6l-1 11v6l1 1 4 1 3 1 1 1v2h-5l-6-1zm-7-6 1-3v-2h-2c-2 0-3 2-3 5h4zm-207 3-1-11-1-9 4-1v4l1 6 1 3h5l1 1-1 3v3h1l1 2v1h-6l1-4v-3h-1l-2 4-2 3-1-2zm82 1-7-26v-3h1c2 0 4 4 5 8l2 5 1 3 6-2 2 2 2 2 4-7 3-7 3-2 6-2h3v2l1 1-2 2h-6l-2 2-5 10-3 6v3l1 3-3 1-2-4c-2-4-4-7-6-7h-1v5l-1 5-1 1-1-1zm95 0-1-2v-2h4l-1-3-2-6V28h4v4l1 7 2 8 1 6-2 1h-6zm576-11-3-6-2-6V13l1-1 2-1 1 1h2l-1 3-1 9v5l1 4 2 5 1 1 1-1 2-1v-7c0-2 3-1 3 1 1 2 0 7-2 10-2 2-5 3-7 2zm-48-2c-2-2-3-6-1-9l3-3 2-1 3 2 3 1v3l1 3-5 6h-3l-3-2zm7-4c1-1-3-6-4-5v5h4zm20 5-2-1v-3c0-4-1-6-3-4l-1 4-1 4h-3v-5l-2-5c-2-2-1-4 1-5h1l2 2 2 2 2-1 3-1 2 1v3l1 4 2 2 2 1-2 2-2 1-2-1zm39-3-2-6v-3l1-1 2-1 1 2 1 4 1 3 1 2 1-1 3-4v-3h2l1 1-1 5c-1 3-5 6-8 6h-1zm25 2-1-2 1-3v-4l-6 3-1-1v-8l1-3 1 1 4 3 3 2 1 3v6l1 2h3v1l-3 2h-3zm-104 0-2-2-1-7v-7h-3l-2-1 2-3 2-1v-8h3v7l4 1 5 1c1 1-1 3-3 3l-3 1-2 2 2 5 2 7c1 1 0 3-2 3l-2-1zm-28-4-1-3 1-4c1-4 3-7 5-7s5 3 5 6v2h-2l-2-1-2-1h-1v2l1 4 4 1 3 1-1 3h-9zm-15 0v-5l-1-3h-4v3c0 3-1 5-2 5h-1l-1-4v-4l-3-3-2-2v-1l2-2 4 2 2 2 5-2 2 2 2 2v7h2l2 1-1 1c-2 2-5 3-6 1zM110 36l-2-2-5 1-1-2-2-1V12l1-2h4v6l-1 9v6l3-1 1-5c0-8 1-14 2-15l2-1 4 2v8l-4 9v2l1 3h8l3-1 2 2-2 1-7 2h-5zm3-20v-2l-1 1-1 2v2h1l1-3zm1068 18-3-1c-2 1-6 0-7-2l-1-3 1-3c1-3 3-4 4-5l3 1 4 1 2 1v8l3 1c2 0 3 1 3 2 0 2-7 3-9 0zm-2-6-2-3h-2v3l2 2h2v-2zM90 32v-9l3-2v4l1 6v2l-3 1zm1033-1-3-7v-3l2-5 2-5 3 1h9v4l-12 1v1l1 7 2 4 3 1 3 1c1 1-2 3-5 3l-5-3zm24 1-2-10-1-10 1-2 2-1 2 6v5l6-1 3 4 2 7 1 3h-5v-4c-1-5-3-7-4-7h-1v10l-1 1-3-1zM81 26l-1-5-5-1v4l-1 6-2 1-2-1 2-10-1-7-1-6 2-2 1 1 2 6v5h5v-4c0-5 1-8 2-8h1l1 14v13h-3zm-36 4 1-4 1-3-3-4v-1l1-2 3 2 5 1h1v1l2 5 2 4h-4l-3-2-2 2c-2 2-3 3-4 1zm-14-4-2-3v-2l4-7h6l1 3 1 4-2 4c-1 2-6 3-8 1zm6-3c1-2 0-5-2-5l-2 1c-1 2 1 5 2 5l2-1zM5 25c-2-1-1-3 0-4l2-2v-4L4 3 3 2l6-1 6-1-2 1-3 2v1l9-1 1 2v7l2 1 3 4-2 4-1 3-8 2-2-1-2-2-2 2-2 1-1-1zm16-6v-2l-4-1-4-2 2-2 2-2c0-2-3-3-5-2l-2 1v13h8l3-1z"/>
</svg>
