<?xml version="1.0" encoding="utf-8"?>
<svg xmlns="http://www.w3.org/2000/svg" version="1.1" viewBox="0 0 1159 1081">
	<title>Sketched elevation relief map with shaded sections of high mountains and very high mountains. It is bisected northwest to southeast by a line labeled “To Rome,” and several points of interest and towns are called out and labeled along the path.</title>
	<path d="M881.4 1080.8c-.7-.3-1.9-1.7-2.7-3.3l-1.5-2.8-3.1.9c-1.8.5-3.6.6-4 .3-2-1.1-.7-4.2 3.1-7.9l4-3.9-1.6-.9a92.6 92.6 0 0 0-19.2-5.2l-5.2-.7-1 2.7-1 2.6-1-.6c-.6-.4-1-1.8-.8-3.3l.3-2.7-2.9.2c-1.6.1-4.6 1.4-6.7 2.8a18 18 0 0 1-4.9 2.5c-.5 0-1-.8-1-1.9v-1.9l2.8-1.7a52 52 0 0 0 6.8-6l4-4.3 4.2-1.1c2.2-.6 4.4-1.6 4.8-2.2s-1.8-3.7-4.6-7l-5.3-6 1.1-1.1 1.1-1.1 4.7 4.6a29 29 0 0 0 5.4 4.7c1.4 0 2.2-3.4 2.6-11.5l.4-8-1 2.2c-.5 1.3-1.4 2.3-2 2.3-1.4 0-1.3-4.3.2-5.8.7-.7 2.2-1.2 3.4-1.2h2.3l.6 2c.7 2.1 2.5 2.8 2.5.9 0-1 8.1-20.7 9.9-23.9l.8-1.4-6.6-3.4a579 579 0 0 1-10.1-5.3c-2-1-5-2-6.9-2h-3.4l-3.4 2.6c-3 2.4-6.3 7.1-6.3 9.3 0 .5 1.4 1.5 3 2.2 1.7.7 3 1.7 2.7 2.3-.2.6-2 1-4.3 1.1h-3.9l-2.6 5.4-2.7 5.3 9.8 9.2v1.8c0 1-.5 1.9-1 1.9-.7 0-2.8-1.8-4.7-4s-4.2-4-5-4c-1.4 0-1.7.6-6.3 13-1.6 4.1-5.8 14.7-9.5 23.5l-7.9 19.2c-1.3 3.5-3.4 6.3-4.7 6.3-1.7 0-.9-3 2.5-9.2 3.6-6.5 11.8-25.4 13-29.8 1.2-4.3 8.6-22 13.2-31.5 2.3-4.6 3-7.5 2-7.5-.3 0-2.5 1.9-4.8 4.2-2.4 2.4-6 6.9-8.1 10s-4.3 6-5 6.5a43 43 0 0 0-9.4 13.2c-.3 1.4-1.4 4.4-2.3 6.6a186 186 0 0 0-7 16.9c0 .3-1.1 3-2.4 5.8-4 8.5-5.6 13-5.6 15s-2.3 3.4-3.9 2.4l-1-.6 4.6-9.8a231.6 231.6 0 0 0 11.7-28c-.5-.7-6.8 4.9-7.6 6.7a52 52 0 0 1-4.3 6.1c-2 2.5-5 6.8-7 9.7l-3.5 5.1-3.4 1.2a11 11 0 0 0-5 3.6c-1 1.3-2.3 2.4-3.2 2.4-.8 0-1.7-.7-2.1-1.6l-.6-1.7 6.3-5.7h5l1.7-2.7c1.7-2.7 8.4-11.3 11-14 .7-.8 1.3-1.9 1.3-2.5s2.6-3.7 5.8-7.1c3.3-3.4 6.1-6.9 6.4-7.7a88 88 0 0 1 12.6-16.2c1.5-1.3 4.3-4.9 6.2-8s3.7-5.8 4.1-5.8c.4 0 3.2-2.4 6.2-5.3 3-3 6.2-6.7 7-8.3.9-1.7 3.6-5 6.1-7.2l4.6-4.2h2.2a36 36 0 0 1 16.8 6l6.6 4 5.4 1a60 60 0 0 1 8.5 2l6.6 1.4 3.6.6 1.3-3c.7-1.7 1.6-3 2.1-3s.9-.9.9-2c0-1-1.3-3.2-3-4.9l-3-3-6.8-2.5a39.2 39.2 0 0 0-10.4-2.6h-3.8l-1.6-2.5-1.6-2.5 1.1-3.2c.6-1.8 1.7-4 2.5-4.8.7-.8 2.4-4.2 3.7-7.4l2.4-5.8 5.5-4.2c3-2.3 6.5-5.8 7.8-7.6l2.3-3.5-.6-3c-.3-1.7-1-4-1.7-5.2l-1-2.1 1-1.8 1-1.7-1.7-3.1c-.9-1.7-2.2-3.6-3-4.2-1.4-1.2-2.1-5.6-2.3-14.5l-.1-4.5 3.4-6.7-.6-4.1c-.4-2.3-1.7-5.5-3-7.2l-2.2-3-9.4-2.7-2.4 1-2.4 1.1-4.7 9.6a41.7 41.7 0 0 1-5.6 9.5c-1 0-7.8 7-7.8 8 0 .5.7 1 1.6 1.4l1.5.6-.6 1c-.4.7-1.4 1-2.2.6l-1.6-.6-4.6 3.7a541.1 541.1 0 0 0-28.3 26.8 142 142 0 0 0-7.6 8.6 147 147 0 0 1-21.2 21.2 174 174 0 0 0-13 11.5 80.8 80.8 0 0 1-10 8.8 25 25 0 0 0-5.5 5.5c-2.2 2.7-4.7 5-5.6 5-.8 0-5.1 3.8-9.5 8.5-4.3 4.7-10 9.9-12.4 11.4-2.5 1.6-7.9 6.1-12 10s-9.2 8.4-11.2 9.8l-3.6 2.5-4.7-.7v-2.9l5.7-1.5 7.2-6.9a118 118 0 0 1 13.2-11l6-4 3.4-6.9c1.9-3.7 4.6-9.7 6.1-13.3l2.8-6.5 1.5-.3 1.5-.4-2.4 5.9c-1.3 3.2-3 7.1-4 8.8-.8 1.6-1.5 3.6-1.5 4.4 0 .8 3.9-2.4 8.6-7l8.5-8.4 3-6.5c4.3-9.1 10.9-25.8 10.9-27.5v-1.4l-4 1v-1.8c0-2.5 2.7-6.3 4.6-6.3.8 0 1.4.4 1.4 1 0 .5.7.6 1.5.3l1.5-.6v5.6l4.3 4.6-.7 1.6-.6 1.7-2.6-1.7c-1.4-1-2.8-1.4-3.2-1.1-.3.3-1.1 2-1.7 3.8-5.1 14-7 18.5-8.2 20.5l-1.5 2.3h1c.7 0 4.2-3 7.8-6.8l6.7-6.7 3.3-6.4c1.9-3.5 3.4-7 3.4-7.8 0-.9.6-2.7 1.4-4.2a647 647 0 0 0 13.7-35.7c1.3-4.5 7-19.3 10.4-27.5 1.3-3 3.7-9.3 5.3-14 1.7-4.7 5.2-13.7 8-20a408.4 408.4 0 0 0 9.2-22.5c.4-.6 1.7-4 3-7.5 1.2-3.6 3.7-9.7 5.5-13.5s5.7-12.6 8.5-19.5c2.8-7 6-14.3 7-16.5 1-2.2 2.8-6.4 3.9-9.4l2-5.3-1.7-1.5-6.2-4.7c-2.5-1.8-6-5.4-7.8-8.1l-3.3-5 .3-2.5.3-2.6 3-.3c1.7-.2 3.4-.7 4-1.2.5-.5 2-1 3.5-1h2.7l6 3.9a99 99 0 0 1 9.3 6.8 35 35 0 0 0 10.5 6.4h2.5l-.5 2.2-.6 2.3 3.1 3.3c1.7 1.9 3.4 3 3.8 2.7.4-.4 1.4-2.6 2.3-4.9l1.7-4.1 1.6-.4c.9-.1 1.6.2 1.6.8 0 .6-1.1 3.4-2.5 6.2a30.3 30.3 0 0 0-2.5 6.4c0 .7.7 1.8 1.6 2.5.8.7 2.4 3 3.5 5.1 1 2.1 2.5 3.9 3.2 3.9.7 0 2.4-2.8 3.9-6.3l3.2-8c.3-1 1.2-1.7 2-1.7 1.8 0 2 1.2.7 3.7l-4 8.9-3.3 7 5.2 8.4 3.3-1.3 3.2-1.4 2.6-5c1.4-2.7 4-8.5 5.9-12.7l3.4-7.6h1.3c1.7 0 1.7 3 0 5.5a306 306 0 0 0-12.7 27.5l-1.3 3.6 3.5 5c2 2.7 4.1 5 4.9 5.2l1.4.2 4.8-12.3 6.8-16.6c1.1-2.4 1.8-4.6 1.5-4.8-.2-.3-1.3 0-2.4.6a9 9 0 0 1-3.1 1c-1.6 0-1.3-3.5.3-4.9l1.5-1.2 3.7.3 3.7.4 1.1 1.7 1.1 1.8-1 .7a155 155 0 0 0-9.8 20.3l-4.2 9.4-2.7 5.9 1.7 3.6c.9 2 2.6 4.8 3.8 6.3l2.2 2.7 1.1-.7c.6-.4 3.2-6.3 5.9-13.2A212 212 0 0 1 955 775c1.5-3 4.2-3.7 4.2-1a8 8 0 0 1-1.4 3.8 452.8 452.8 0 0 0-16.2 34.9 16 16 0 0 0-1.4 6v3l2 2.5c1.2 1.3 2.2 2.2 2.4 2s1.3-2.6 2.4-5.4c1.9-4.8 4.2-7.1 4.2-4.2 0 .8-1.1 4-2.5 7l-2.5 5.7 2.6 5.7 4.4 9.8a79.8 79.8 0 0 1 6.5 21.3c-.3.8.3 4.8 1.4 9 1 4.3 2.2 12.3 2.6 18l.7 10.2-2.7 1c-3.8 1.5-8.7 1.3-11.1-.4a8.4 8.4 0 0 1-2.8-4.6c-.3-1.7-2-7-3.8-11.5l-3.3-8.4h-4l-4.9 11.2c-2.6 6.2-5.7 12.5-6.8 14.1-1.1 1.6-2 4-2 5.5 0 2.8-1.4 6-3.3 7.6a58 58 0 0 0-4.5 8.5 83.4 83.4 0 0 1-5.6 11c-1.2 2-2.5 5.2-2.8 7.2l-.6 3.6-2.5 1c-1.4.7-2.5 1.9-2.5 2.7s-.4 1.5-.9 1.7c-.5.2-2 2.6-3.3 5.3-1.2 2.7-2.9 5.1-3.5 5.3-.7.2-1.3 0-1.3-.6s1.4-3.4 3.2-6.3c1.8-3 5.5-9.8 8.4-15.3l8.4-16.2c1.8-3.5 3.5-8.3 3.7-10.8l.6-4.5 1.8-.6c1-.3 2-1.5 2.4-2.6.4-1.1 2-4 3.6-6.4a21 21 0 0 0 2.9-5.3c0-.5.9-2.7 2-4.8l5.9-12.5 4-8.5-1.6-8.8-1.6-8.7-1.2 1.3c-1 1.2-2.9 5.3-6.8 15.3-1.1 2.7-4.5 9.5-10 20a19.2 19.2 0 0 1-3.8 5.3c-1 .7-2.3 3-3 5-.6 2-2.7 7-4.6 11-2 4-3.3 7.8-3 8.6.3.8 0 2-.7 2.6-.8.6-1.6 2.3-2 3.8a40 40 0 0 1-1.8 6.7l-1.3 4-14.2 14-7.6 15.3.6 1.6.6 1.6 3.8.6c2 .3 6.7 1.2 10.2 2 3.5.9 6.7 1.2 7.2.8.4-.5 2.9-5 5.5-10.1l4.7-9.3 1.1 1 1 1.1-1.9 3.3a62.5 62.5 0 0 0-7.5 16.2c0 1 1 3.4 2 5.2 1.1 1.8 2 4.9 2 6.8v3.5l-6.7 7.5-4 10c-5 12.4-14 33.2-15.5 36.3-1.3 2.5-2.8 3-2.8.8 0-1.2 1.3-4.3 7-17.1 6-13.3 12-28.5 12-30.3v-2.1l-4.7-.7c-2.7-.4-6.3-.8-8.2-.8l-3.4-.1-.5 1.4-.5 1.4 5.5-1.4 6.9 2.3-.4 1.1-.4 1.2-13.1-.2-2 4.6c-1.2 2.5-4 8.8-6.1 14l-4 9.4 1.9 2.4c1 1.3 2.6 5.7 3.5 9.8.9 4.1 2 7.7 2.6 8 .5.4.9 1.3.9 2 0 2.1 4.8 9.5 6.5 10.2l1.4.5 4.4-4.3a90 90 0 0 0 7.3-8.3l2.8-3.9 4.4-1.8c2.4-1 5.1-1.9 6-1.9h1.7l.1-2.3c.1-1.2 1.9-6.3 4-11.2 6-14.5 6.1-14.9 6.9-17.5a8504.6 8504.6 0 0 0 11.5-30.5l3.5-8.5 3.3-8 1.6-3.5.4 1.7c.4 2-2 9.5-5.8 17.3-3.2 6.6-15.5 39-19 50a92.3 92.3 0 0 1-3.7 9.8l-1.4 2.7h4.6l11.4-9 2.7-5.8 2.8-5.7.4 1.7c.2 1 .7 1.8 1.2 1.8 1.5 0 2.8-2.6 4.5-8.9 1.7-6.8 1.4-9.9-.5-3.5a34 34 0 0 1-2.5 6.4l-1.4 2.5v-1.8c0-1 1.4-5 3.3-9l3.3-7.3 2.2-16.7c1.1-9.3 2.7-18 3.5-19.6l1.4-2.7-.4-12-.5-12 1.2-8.3 1.2-8.3 2-2.5 2-2.5 11.2 1.3 1.3 1.6c1.5 2 1.6 9.3.2 16l-1 4.7 1.4 6.6 1.4 6.5-1.3 2.5-1.2 2.5.4 3.6.5 3.6-1.6 3-1.6 3.2V983l-1.5 2.8c-.8 1.6-1.5 4.8-1.5 7.2 0 4.4-4 18-6.5 22.6a15 15 0 0 0-1.5 6.2v3.5l-3 3c-1.7 1.7-3 3.4-3 3.8s-1.2 2.2-2.6 4c-1.4 1.9-3 3.4-3.7 3.4-.7 0-3.7 2.6-6.7 5.7l-5.5 5.6-5.7 2.7a62 62 0 0 0-11.6 8l-5.9 5h-6l-5.8 6.8a69 69 0 0 1-6.9 7.3c-.6.4-1.7.5-2.4.2zm-13.7-33.3c-1-1-2.3-2-2.8-2-.6 0 0 1.1 1.3 2.5 2.7 3 4.2 2.5 1.5-.5zm-7.5-6.5c0-.8-.4-1.5-.9-1.5s-1.1.7-1.5 1.5l-.5 1.5h1.4c.8 0 1.5-.7 1.5-1.5zm86.5-67.5c.3-.5 0-1.2-.5-1.5l-1-.7v1.6c0 1.8.6 2 1.5.6zm-150.7-24 6.8-6.8 3.8-7.9c3.8-7.7 8.4-18.5 15.2-35.2 1.9-4.7 3.4-9.7 3.4-11.4s.9-4.5 2-6.6a722 722 0 0 0 15.5-33.4l1.8-4.8-1.2-1.4-1.3-1.5.6-1.9c.4-1 1.8-2.4 3.2-3l2.5-1.2 2.6-5.8c1.4-3.1 3.8-9 5.3-13.2l7.5-18.5c2.6-6 6-14.9 7.7-19.5l3-8.5-3.3-5.8c-1.8-3.2-3.6-5.7-4-5.7s-3 6-5.9 13.2-5.8 14.2-6.5 15.3c-.7 1-1.6 3.6-2 5.5s-1.1 4.1-1.5 5c-.4.8-1.5 3-2.3 5l-6 13.5c-2.5 5.5-5.9 13.8-7.7 18.5-1.8 4.7-3.7 9-4.2 9.4-1.2 1.5-1 2.6.7 2.6h1.5v4l-8.2 7.8-2.2 6.5c-1.3 3.5-3 7.9-4 9.7-.9 1.8-1.6 4-1.6 5 0 .9-.4 2-1 2.6-.4.5-1.8 3.8-3 7.4-1.1 3.6-3 8.3-4 10.5a102 102 0 0 0-3.5 9.5c-1 3-2.7 7.8-4 10.5a518 518 0 0 0-14.5 37.3c0 .1.5.3 1 .3.6 0 4.1-3.1 7.8-7zm40.4-45c2.6-4.2 4.8-8 4.8-8.7 0-1 5-12.7 7.2-16.8.5-1 1.6-3.6 2.3-5.7l1.4-3.8-1.5-1.1c-.8-.7-1.4-2-1.4-3 0-.9 1.4-4.4 3-7.8a61.8 61.8 0 0 0 4.4-10.5 521 521 0 0 0 4.6-11.1l3.2-8-1.6-.8c-.9-.5-1.6-1.4-1.6-2 0-1.8 3.1-4.8 5-4.8h1.6l5.4-13.3a1803.5 1803.5 0 0 1 9.3-22.9l.6-1.7-3-4.5a22.3 22.3 0 0 0-3.3-4.6c-.6 0-4.6 8.9-4.6 10.1 0 .5-1.3 3.7-2.9 7.2a181 181 0 0 0-5.4 13.2c-2.6 7.3-4.6 12-7.8 19.2a3316.7 3316.7 0 0 0-24.9 59.1c0 .7-.8 3.2-1.9 5.5l-5.1 12.7a619 619 0 0 1-8.1 19.4 129 129 0 0 0-4.9 11.8c0 .5 4.6-3.8 10.2-9.4l10.2-10.3zm67.9 5.2a182 182 0 0 0 4.5-10.6 92.8 92.8 0 0 1 11-21c.9-.5 2.8-3.6 4.3-7 6.3-14 8.3-18.3 9.7-20.9.8-1.4 1.4-4.6 1.4-7v-4.6l-2.7-2.2-1.1 1.3c-.7.7-2.3 4-3.8 7.3l-7.4 16.4c-.4.8-1.6 1.6-2.7 1.8-1.2.2-2.4 1-2.7 2s-1.5 3-2.4 4.7c-1 1.7-5.4 10-9.7 18.5a93.6 93.6 0 0 0-7.6 17.5c.4 3.3 4 10.5 5 10.5.6 0 2.5-3 4.2-6.7zm-53-16.4a84.3 84.3 0 0 0 14.9-20 43 43 0 0 1 3-7.3c4.7-10.4 6-13.9 5.5-14.4-.3-.3-.5 0-.5.6 0 .7-.5 1.2-1.1 1.2H872l.5-2.7c.9-4.3 4.5-12.3 5.6-12.3h1l-.4 4.7c-.2 2.7-.5 5.5-.8 6.3-2 6.5-3.7 12.4-3.5 12.6.2.1 2.3.4 4.8.6l4.5.3 8.8-17.6-1.3-2.5-1.3-2.4 1.5-1.3c2-1.6 11.2-22.4 10.5-24-.2-.7-2.4-1.8-4.7-2.5l-4.2-1.3-1.4 1.2c-.8.6-1.4 1.5-1.4 2a126.4 126.4 0 0 1-10.3 21.9h-1l.7-3.1c.3-1.8 2.9-7.9 5.6-13.7 4.7-9.7 5.6-13.3 2.8-10.4-.7.6-1.8 1.2-2.5 1.2-2.2 0-1.4-3.7 1.1-5.7l2.4-1.8.4-5.7.3-5.7-4.8-5-1.9 3.7c-1 2-2.7 6-3.8 8.7l-4.4 11.9a48.7 48.7 0 0 0-2.6 8.4c0 .8-.7 2.3-1.6 3.3-1.6 1.8-5.3 10.1-11.5 25.9a159 159 0 0 1-4.4 10.3l-1.5 2.9 2.2 1.7 2.1 1.8-1.6 2.9a555.5 555.5 0 0 1-14.7 33.8c0 2 2.7-.3 10.1-8.5zm63.3-33.4 3.2-6h3.6l2.2-5.5 4.5-9.8 2.1-4.2-.6-2.4a19 19 0 0 0-4.5-6.2l-3.9-3.8-1 1c-.5.5-3.2 5.5-6 11a71.6 71.6 0 0 1-6 10.9c-.5.3-1.5.3-2 0l-1-.7 2-3.1c2.1-3.3 11-20.3 11-21.1 0-.3-2-1.5-4.3-2.7-2.4-1.1-5.2-2-6.2-1.8-1 .2-2.1 1-2.6 1.9l-4.8 10.3c-2.3 4.9-4 10-4 11.5s-2.2 7.5-4.7 13.4l-4.7 10.7 3.3 4c1.8 2.3 3.7 4 4.4 3.8.6-.2 2.8-4.6 5-9.8 2.2-5.2 4.1-9.6 4.3-9.8.2-.3 1 .2 1.8 1l1.5 1.5-1.7 2c-1 1-2.6 4-3.6 6.4-1 2.5-3 6.8-4.3 9.5l-2.4 5v3.8a20 20 0 0 1-2 7.7 18 18 0 0 0-2 6c0 1 .5 3.2 1.1 4.7l1.1 2.8 9-18 12.2-24zm-90.8 211.7c-.4-.5.5-3.8 2-7.3 1.4-3.5 3-6.7 3.4-7.3s2.7-5.5 5-11l7-16.5 5.6-13.5c1.4-3.9 4.6-11.3 7-16.5a230 230 0 0 0 4.8-11.3c.6-2 2.6-2.4 2.6-.5 0 .7-.9 3-2 5-1.1 2.1-3.2 6.8-4.7 10.5-1.4 3.8-3 7.3-3.4 7.8a86 86 0 0 0-4 9.5 222 222 0 0 1-5.9 14.5 435.3 435.3 0 0 0-13.6 32.7 8.3 8.3 0 0 1-2 3.8l-1.2 1.1zm70.4-33.7c0-1.7 6.6-18 8-20 1.2-1.4 7-16.7 7-18.2 0-.7-.7-1.2-1.5-1.2s-1.5-.7-1.5-1.5v-1.6l5.6-1.1 2.9-7.7c1.6-4.2 3.2-8 3.6-8.6.8-1.2 7.5-18 8.4-21.3.4-1.3 1-2 1.6-1.7l1 .6-.7 2.2c-1.2 4.3-5.6 15.3-10 25.3a99 99 0 0 0-4.4 11.2c0 .6 1 1.2 2 1.4 3.2.5 2.4 2.2-1.2 2.8l-3.2.5-.7 3c-.7 3-7.1 18.6-12.3 29.8a40.8 40.8 0 0 0-2.6 6.7c0 .6-.4 1-1 1s-1-.7-1-1.6zm-553-8.4c0-.6.7-2.2 1.6-3.5l1.6-2.4-1-4.8-1-4.7 1-1.8c.4-1 1.4-1.8 2-1.8.8 0 2.7.8 4.4 1.9l3 1.8 5.8-5 1.8 2.2 1.7 2.2-.6 4.4-.6 4.5 1.3 1.4c.6.8.9 2 .5 2.5-.9 1.5-4 1.3-5.4-.3l-1.2-1.4 1.1-4.7c.6-2.6.8-5 .5-5.3-.2-.3-1.4.7-2.6 2.2l-2.1 2.7-2.4-1.6a13 13 0 0 0-2.9-1.5c-.3 0-.2 1.8.1 4l.7 4-1.3 3-1.2 3h-2.4c-1.3 0-2.4-.5-2.4-1zm32.7-2.3-1.9-1.3-.5-6.5-.5-6.5 3.2-2.6 3.2.6a15 15 0 0 1 5.2 2l1.8 1.5.5 4.3.5 4.3-1.8 2.2a9.6 9.6 0 0 1-4.9 2.9l-3 .5zm7.1-7.3.3-3-1.5-1.4c-.9-.7-2.3-1-3-.7l-1.6.6v3.4c0 1.8.3 3.7.7 4 .4.5 1.6.6 2.8.5l2-.3zm29.9 7c-.9-1-1-12.7 0-14.8.2-.9 1.3-1.6 2.3-1.6 1 0 3.2 1.3 5 3 1.8 1.6 3.6 3 4.1 3 .5 0 .9-.8.9-1.9 0-2.3 3-5.1 5.7-5.1 2.1 0 3.8 2.4 2.8 4-.3.5-1.2.7-2 .4-.7-.3-1.7 0-2.1.8-.5.7-1.1 3.5-1.4 6.3l-.5 5h-4l-2-4c-1.2-2.2-3-4.2-4-4.4l-1.8-.3.7 1.7c.7 2-1 8.5-2.3 8.5-.4 0-1-.3-1.4-.7zm-18-2.7a23 23 0 0 1-1.8-11.5c0-.7.8-1.2 1.6-1.2h1.5l.5 2.7c1.2 5.7 2 7.8 3.4 7.8.8 0 1.9-.8 2.4-1.7l1.1-1.7-1.4-2.6-1.4-2.6 1-1 1.1-1 3.3 3.2v7.5l-2.3 2.2a8.5 8.5 0 0 1-4.9 2.2h-2.6zm105-1.7c-.6-1.7-1.5-3-2-3-.4 0-1.2 1.1-1.7 2.5l-1 2.6-1-.6-1-.6v-7c0-3.7.4-7 1-7.4 1.7-1 5 1.4 6.4 4.8l1.4 3.2.5-1.5 1.1-4.2c.3-1.4 1.3-2.9 2.3-3.2l1.7-.7 3.1 3.2-1.7 1.3c-1 .7-2.2 3.4-2.9 6.2-1.3 5.1-2.5 7.4-4.1 7.4-.5 0-1.5-1.4-2.1-3zm17.9 1-1.8-1.9.7-2c.3-1.2 1.2-2.1 1.8-2.1s2 .9 3 2l1.7 2h6v-4h-1.8c-1 0-3.2-1-5-2l-3.3-2 .6-7.3 5.4-4 5.2 2.3-.3 2.7c-.2 1.4-.9 2.8-1.6 3l-1.2.5v-3.4l-3.5.7-.6 4.4 2.8.6 5.3 1.3 2.5.7.3 4 .3 4-1.7 1.2-1.8 1.3h-11.3l-1.7-2zm-69-.2c-.3-.7-.7-3.1-.8-5.3l-.3-4-6-1v-4l3 .3c1.6.2 5.4.4 8.2.4h5.3v1.3c0 .8-1.3 2.1-3 3l-2.9 1.5-.3 4.2-.3 4.1-1.3.4c-.6.3-1.4-.1-1.7-.9zm13.8.1-1-1 1.8-6.2a71 71 0 0 1 2.7-7.7c.5-.8 1.6-1.5 2.7-1.5h1.8l2 5.7c1.2 3.1 2.7 6.3 3.3 7a4 4 0 0 1 1.3 2.5c0 2-3.8 1.5-5.2-.7-.7-1.1-2-2-3-2h-2l-.9 2.5c-.5 1.4-1.3 2.5-1.8 2.5-.4 0-1.3-.5-1.8-1zm7.6-9.4c0-.2-.5-.7-1-1-.6-.4-1-.2-1 .4 0 .6.4 1 1 1 .5 0 1-.1 1-.4zm13.5 9.2c-.3-1.1-1.2-6.7-1.8-11.2l-.2-2h4l1.2 4.7c.6 2.6.9 5.6.6 6.7-.6 2.3-3.2 3.6-3.8 1.8zM220 1011.8c-1-.3-2-1.6-2.3-2.9l-.6-2.4 1.2-1.5 1.1-1.4-.6-6.8-.7-6.8 2-5 27.3-.3c15-.2 30.8-.5 35-.8l7.6-.5 1 1.3c.6.7 1 4.4 1 8.3 0 3.9.6 8.7 1.4 10.8l1.3 3.8-1 1.7-1.1 1.7-11.2.3c-6 .2-11.1 0-11.1-.3 0-.4.5-1.5 1-2.6.6-1 1.6-2 2.3-2 1.4 0 3.7-2.4 9.5-10 2.3-3 4.2-6.4 4.2-7.3v-1.8l-1.7.4a33 33 0 0 0-7.7 9.5l-6.1 9.2h-1.6c-1 0-1.9 1-2.2 2l-.5 1.9-8.3.5a401 401 0 0 1-39.2 1zm11.6-12.1c4-4.8 7-9.7 6.1-10.5-.3-.3-1.3-.3-2.2 0a47.2 47.2 0 0 0-11.2 17.6l.1 2.2 1.7-2.5c1-1.3 3.4-4.4 5.5-6.8zm5 6.5a82 82 0 0 0 11.7-16.7c0-.6-1.4-1-3-1h-3l-3.7 6.1a107 107 0 0 1-6 9 10.4 10.4 0 0 0-2.3 3.8c0 1.9 3.8 1.2 6.3-1.2zm12.4-4.3c2-3 5-7 6.5-8.7 1.4-1.7 2.4-3.5 2.2-4-.3-.4-1.5-.7-2.8-.7h-2.3l-3.3 5.2a146 146 0 0 1-6.2 9 21 21 0 0 0-2.8 4.2c0 .3 1.1.6 2.4.6h2.5zm11.2 1.7a51 51 0 0 0 9.1-15.4c0-1-3.8-.9-6 .3-1 .5-3.2 2.9-4.8 5.2l-5.5 8.2c-1.5 2.1-2.7 4.2-2.7 4.7s1.4.9 3.2.9h3.1zm28 2.1c.4-1 .7-2.2.5-2.7l-.8-3.8-.7-2.8-1 .6c-1.3.8-5.9 8.2-5.9 9.5 0 .5 1.6 1 3.5 1h3.4zm-19.9-.1a17 17 0 0 1 3.4-4.7c4-4.4 8.3-12 7.4-13-1-1-4.7.5-7 2.9a38.8 38.8 0 0 0-4.4 6.7 77.8 77.8 0 0 1-4 6.7l-1.6 2.3h3c1.8 0 3.2-.4 3.2-1zM228.9 991c-.3-1-1.4-1-4.7-.7-1.2.2-1.4 5.5-.3 6.6 1 .9 5.4-4.5 5-6zm492.7 18.1c-.3-.7 1.5-5.3 4-10.2a80.5 80.5 0 0 0 5-12.2c.8-3.5 3-5.2 4.7-3.5l1 1-2.8 5.4a67 67 0 0 0-4.2 9.6c-.8 2.4-2 4.8-2.8 5.4-.7.6-1.3 2.2-1.3 3.5v2.4h-1.5c-.9 0-1.8-.6-2-1.4zm290.2-3.7-2.7-2.1.3-7.2.3-7.1h3l.7 4.9c.4 2.7 1.3 5.5 2 6.3l1.5 1.4 1.3-1.6 1.2-1.5-1-4.3-1.1-4.2.9-.9c.5-.5 1.6-.6 2.4-.3 1.8.7 2.2 4.2.6 5.2l-1 .6.6 2c.3 1.1.3 3.5 0 5.3l-.6 3.3-2.6 1.1-2.8 1.2c-.2 0-1.5-1-3-2.1zm30.9 0c-.4-.5-.4-2.2 0-3.8l.6-2.9-2-.5c-1.2-.3-2.1-1.2-2.1-2 0-1 1-2.2 2-2.8l2.2-1 1.8 1.6 1.8 1.6 4-2.1.8 1.2.7 1.1-3.1 2.7-3.2 2.6v5.4h-1.4c-.8 0-1.8-.5-2.1-1zm28.7.2c-.7-.5-1.6-2.6-1.9-4.8l-.5-4 1.7-1.6a6 6 0 0 1 3.6-1.7c1 0 2.2.7 2.6 1.5l.6 1.6-1.8 1.3-1.8 1.3.6 1.6.6 1.7h2.5c2.5 0 4.3 1.5 2.9 2.3-.5.2-2.4.7-4.3 1s-4 .3-4.8-.2zm37.6-.4-1.6-1.2-.5-5.7-.5-5.6 4.9-4.7 1.7 1.1a5 5 0 0 1 2 2.7l.4 1.7h-2.6c-1.4 0-2.6.4-2.6 1 0 .5 1.4 1 3 1h3v1c0 .7-.9 1.4-2 1.7-1 .2-2.1 1.1-2.4 2l-.6 1.4 1.6.5c.8.4 2 .1 2.7-.5 1.7-1.7 3.7-1.4 3.7.6v1.8l-2.7 1.2c-1.5.7-3.4 1.3-4.3 1.3-.9 0-2.3-.6-3.2-1.3zm28.9-.8-2.6-2 .6-3 .6-3h-1.1c-1.5 0-3.2 3.4-3.2 6.5v2.6h-1.9c-2 0-3-1.9-3-5.6 0-1.3-1-3.3-2-4.4s-2-2.4-2-3c0-1.2 4-4 5.7-4 .7 0 1.7 1.1 2.2 2.5l1 2.6 2-1.2 2.1-1 2.5 1.5 2.4 1.6v6h5l.6 1.5c.4.8 0 2.2-.6 3-.7.8-2.2 1.5-3.5 1.5s-3.4-1-4.8-2zm-768 .4c-1.2-1.2.4-2.3 3.4-2.3h3l1-2.6.9-3c0-.3-1-.4-2.4-.4a9 9 0 0 1-4.7-1.9l-2.3-1.9.1-3.6c0-2 .7-4.4 1.3-5.2l1.2-1.4h6.6l1.3 1.6 1.4 1.7v8.5l-.2 8.5-1.8 1.3c-2 1.4-7.7 1.9-8.8.7zm7.3-13.1c0-1-.6-2.7-1.3-3.7l-1.4-1.8-1.1.7c-1.5 1-1.5 3.9 0 5.4 1.8 1.8 3.8 1.4 3.8-.6zm650.7 13.1c-.4-.4-.7-3.2-.7-6.2 0-3.1-.4-6.3-1-7a4 4 0 0 1-.3-2.8c.7-1.7 3.7-1.7 5 0 1 1.1 1.8 8.4 1.5 14l-.2 2.7h-1.8c-1 0-2.2-.3-2.5-.7zm66.2-1.4-2-2 .3-2.6.3-2.6-2.4-.9-.3 4.4-.3 4.3h-3l-.1-3.5c-.1-2-.7-5.5-1.4-8l-1.2-4.5 3.2-7.5h6.2l-.4 5.2-.3 5.3 2.1 2.1 2.2 2.1-.5 2.6-.5 2.5 2.1 1.1c1.2.6 2.1 1.8 2.1 2.6v1.5h-2c-1.1 0-3-1-4-2zm-3.6-15.1c.7-2.4.1-3.8-1.4-3.8-.5 0-.9 1.3-.9 3s.4 3 .9 3 1.1-1 1.4-2.2zm-32 15.5-1.3-.5v-8.8h4v2.9c0 1.5.7 3.4 1.5 4 .8.8 1.5 1.7 1.5 2.2 0 1-3.6 1-5.7.2zm96 0c-.7-.3-1.3-1.5-1.3-2.8v-2.3l1.7-.7 1.8-.6 1.3 1.8c.7 1 1.1 2.4 1 3.2-.3 1.6-2.5 2.3-4.5 1.4zm-380.3-3.6-2.5-1.3-.3-3.8-.3-3.8 3.1-4.8h6.7l2.7 2.6 2.6 2.6v6.7l-1.7 1a40 40 0 0 1-4.8 1.5l-3 .6zm45.7-.8c-1-.6-2.5-1-3.5-.9-3 .3-4.2 0-4.2-1 0-.6 1.2-1.6 2.8-2.1l2.7-1.1-6.8-5.7.6-1.6c.4-.8 1-1.5 1.6-1.5.5 0 3.3 2.2 6.1 5l5.1 5-.3 2.2c-.2 1.1-.7 2.3-1.3 2.4s-1.8-.1-2.8-.7zm146.8.3c-2.2-.2-4.6-.5-5.4-.8l-1.4-.5 1.8-2c1-1 2.5-2 3.4-2 2.9 0 9.1 2.1 9.1 3 0 1.6-3.3 2.6-7.5 2.3zm16.9-.7c-.3-.8-.3-1.8 0-2.4 1-1.6 4.5-2 6.3-.5l1.8 1.4-2 1.5c-1 .8-2.7 1.5-3.7 1.5s-2.1-.7-2.4-1.5zm-658.7-.1c-.4-.4-.7-1.6-.7-2.6v-1.8h4.2l-.5-2.3-1.8-6.3c-.7-2.3-1-5-.5-6l.6-1.7 2 1.7c1 1 2 2.7 2.2 4l.3 2 3.8.4 3.7.3v-2c0-3 1-5.1 2.6-5.1h1.4v10.9l2.1 2 2.2 2-.6 1.5c-.4.9-1.3 1.6-2 1.6-1.6 0-3.5-2-5.2-5.4l-1-2.1h-4.8l-1.1 4.5-1.1 4.5-2.5.3c-1.4.1-2.9 0-3.3-.4zm534.6-1c-.3-.8-.3-1.8 0-2 .3-.4 2-.7 3.8-.8 1.7 0 3.4.4 3.6 1 .2.5-1.3 1.5-3.2 2.1l-3.6 1.1-.6-1.4zm-65.2-.3-1.4-1 .7-1.6.6-1.7 2.3.4 2.2.3v2c0 2.2-2.2 3-4.4 1.6zm-395.9-.8-2.2-.5.6-5 .7-5-1.4.4c-.8.2-1.8 2.3-2.3 4.6-.6 2.3-1.3 4.2-1.7 4.2-1.6 0-2.7-3-3.3-8.5l-1.2-10.4-.6-4.3 4.7.7.5 4.5.5 4.5 3 .3c1.7.2 3.8 1 4.8 2l1.7 1.5v7.4l4.2 1.1-.4 1.4c-.5 1.4-3.8 1.8-7.6 1zm-41.5-1a21 21 0 0 1-.7-7v-6.5l3.5.7.3 6.7.3 6.8h-1.4c-.7 0-1.7-.3-2-.7zm702-9a2.2 2.2 0 0 1 .8-3.7c1.7-.6 4.8 2 4 3.5-.7 1-3.8 1.2-4.8.2zm-471-4.6-1.4-2.2-16.4.3-.6-1.5c-.3-1-.1-3 .5-4.6l1.1-3-3-4.7 4.6-8.5 3-1.4a64 64 0 0 1 7.7-3.1 24 24 0 0 0 6-2.9c1.2-1.1 2.1-3.4 7-17.2 3-8.4 5.1-12 6.5-10.6.8.8-1.7 8.3-6.3 18.4-1.8 4-3 7.2-2.6 7.2 1.3 0 2.9-1.4 8.5-7.8l5.6-6.3V931l-.1-3.2 5-10.5a292.2 292.2 0 0 0 14.2-33.6v-1.4h-8.7l-4.2 12.3-4.6 13.5-.5 1.3-2-1-2-1.1 2.9-5.2a102 102 0 0 0 8-22c-.2-.3-2.6-1.8-5.3-3.6a25.8 25.8 0 0 1-6.7-6.2c-1-1.6-2.5-3-3.2-3h-1.4l-2.2 6.3-3.8 11-1.7 4.7H590c-1 0-1.8-.2-1.8-.6 0-.3 2.1-5.8 4.7-12.2a89 89 0 0 0 4.6-13.2c0-.8-.7-2.8-1.3-4.5l-1.2-3-.8 2.5c-.4 1.4-2 5.7-3.5 9.5-1.5 3.9-3.2 8.5-3.7 10.3l-1.1 3.2H584c-1 0-1.8-.5-1.8-1 0-.6 1.1-3.4 2.4-6.3a253 253 0 0 0 6.2-15.2 79 79 0 0 1 4.9-11.5 18 18 0 0 0 1.9-6.5l.6-5-2-3.4c-1.2-1.8-2.3-3.2-2.5-3-.1.2-1.9 4.9-3.8 10.4-2 5.5-5 13.8-7 18.5l-3.5 8.5-3.2.7v-2c0-1.2.5-2.4 1-2.7.6-.3 1.8-2.3 2.6-4.3 2.1-4.8 9.2-24.6 10.6-29.6l1.1-4-2.2-1.8c-1.3-1-2.7-1.6-3.1-1.3-.4.3-1.6 3-2.5 6.2a240 240 0 0 1-10.7 30c-1.6 3.5-3.4 6.3-4 6.3-2 0-1.8-3.2.7-7.7 2.7-4.8 6.1-13.8 8.5-22.3.7-2.5 1.8-5.7 2.6-7.2a12 12 0 0 0 1.4-4.2v-1.6h-6l-1.9 2a82.6 82.6 0 0 0-8.1 21.1c0 .8-.6 2.5-1.3 3.9-.7 1.4-2 4.6-3 7.2-1.8 4.6-4 6.7-5.2 4.8-.4-.6.5-3.4 2-6.3 3.5-7.2 10.4-26.7 9.5-26.7-.4 0-2 1.7-3.5 3.7a63 63 0 0 1-6.5 7.3l-3.8 3.5-4.6 14.7-4.7 14.6-1.4.6c-.8.3-1.7.1-2-.4-.3-.6 1-5 3-10s3.5-9.5 3.5-10 .7-2.5 1.6-4.1a9.5 9.5 0 0 0 1.2-4.6l-.3-1.5-2.7 2.1a9.6 9.6 0 0 1-4 2.1c-.9 0-2.1.7-2.8 1.5-1.1 1.3-5 13-7 21.4-.5 1.9-1.5 4-2.4 5l-1.5 1.5-.7-1.8c-.4-1-.2-2.7.4-3.9s2.2-5.7 3.5-10l2.5-7.8-2.5-1c-2.4-.9-7.3-1.3-7.3-.5l-2 8a51 51 0 0 1-3.4 10.2c-1.7 2.5-4.6 3.3-4.6 1.2a53 53 0 0 1 2.7-8.3 49 49 0 0 0 2.8-11c0-2.2-.7-5.9-1.7-8.1l-1.8-4.2.7-3.3c.3-1.9 1-4.3 1.6-5.4.6-1.1 3.7-5.3 7-9.3l5.8-7.4 3-8.9a79 79 0 0 0 3-10.4v-1.5l-3.3.6-4.4.9c-.6.2-2.4 3.8-3.9 8.1-3.4 10-7.5 20-11.8 29.5l-5.2 11.7a18 18 0 0 1-3 5.2l-1.2 1-1.3-1.5-1.2-1.4 6.5-12.4c7-13.3 15.7-34.1 15.7-37.4 0-1.2-.6-2.6-1.4-3.3a5 5 0 0 0-3.1-.9l-1.7.4-3.8 11.5c-4 12.4-9.4 24-11 24-.6 0-1.3-.7-1.6-1.6l-.6-1.5 2.9-4.7a93.5 93.5 0 0 0 11.3-30v-1.2h-2.7c-1.6 0-3.9.6-5.2 1.4L507 791l-2.5 6.9-4.3 12.9a89 89 0 0 1-3 8.7c-1.3 2.8-3.4 3.6-4.5 1.8-.4-.6 1.4-6.1 3.9-12.3l5.7-15 1.3-3.6-2.5-2c-1.3-1-2.7-1.7-3.1-1.5-1.1.7-4.6 9-6.4 15.2-.9 3-2.5 7-3.6 8.8-1 1.9-2.6 3.4-3.4 3.4h-1.4v-2.1c0-1.2 1-3.5 2.3-5.2 1.2-1.7 3.5-6.8 5-11.2l3-8-.2-4.8v-4.9l5-4.7c2.7-2.7 5-5.4 5-6 0-.6.4-2 .9-2.9a58 58 0 0 0 4.5-12.2 40 40 0 0 0-11.2 9.2 136 136 0 0 0-6.3 16.1c0 .8-6.9 17.4-10.3 25-1.2 2.5-2.7 4.7-3.4 4.7-.7 0-1.3-.7-1.3-1.5s2.4-6.7 5.4-13.2c3-6.5 6-13.9 6.6-16.3.7-2.5 2-6 2.8-7.7.9-1.8 1.3-3.6 1-4-.4-.3-2.3.7-4.2 2.3l-3.5 2.9-4.4 13.6a282.3 282.3 0 0 1-10.1 27.1c-.3 1-1.2 1.8-2 1.8-1 0-2-.8-2.3-1.7-.3-.8 0-2.5.7-3.7 4-6.4 12-25.8 12-29.3V776l-2 2.4a117.9 117.9 0 0 0-13.9 25 13 13 0 0 0-2.2 4.4l-.4 2-4.5.6V809c0-.9.9-3.5 2-5.8 1-2.4 2.6-6.3 3.4-8.8l1.6-4.5 5.6-6.5c3-3.6 6.7-8.2 8-10.3 1.3-2 4.3-5 6.7-6.4 2.3-1.4 4.4-3 4.5-3.5.2-.5 1.7-1.6 3.4-2.4a145 145 0 0 0 22.4-17.2c4-3.7 8-6 17.4-10.2 2.5-1 5.6-2.6 7-3.4a51 51 0 0 1 14.5-4.9l5-1 4-3.1a178.6 178.6 0 0 0 21-20c1.9-2 4.1-5.2 5-6.9.8-1.7 1.5-4.3 1.5-5.8 0-3.3 3.2-10.5 6.3-14.1a18.9 18.9 0 0 1 13.6-5.9c2 0 5.6 1 8 2 2.2 1.1 4.1 2.4 4.1 2.8 0 .5 1.7 1.4 3.8 2.2a32 32 0 0 1 7.9 4.7l4.2 3.4 7.8-1c4.3-.5 10.8-1 14.5-1 3.7 0 7.2-.2 7.7-.5.4-.3 1.6.4 2.6 1.4 1 1.1 2.8 2 4 2 1.2 0 3.4 1 4.8 2 1.4 1.1 3 2 3.7 2 .6 0 3 1.3 5.3 2.9 2.3 1.6 5.2 3.2 6.4 3.5 1.2.4 4.2 3 6.6 5.7l4.5 5 1 5.2 1 5.1-6.3 16-3.6 3.6c-2 2-4.1 4.6-4.8 5.8l-1.2 2.3 1.3 2.6c.7 1.5 1.8 2.9 2.4 3 .6.2 4.2-1.9 8-4.7 3.8-2.8 7.1-5.4 7.4-5.8.3-.4 3.3-3.1 6.8-6 3.5-2.8 7.4-5.4 8.8-5.8a30 30 0 0 1 7.5-.1l5 .5 7.9 7.6 1.6 5c1 2.8 3 7.6 4.6 10.8l2.9 5.9-1.1 4.2-1.2 4.3-9 9.3v2.7c0 1.4.5 3.1 1 3.7l1.2 1.1 3.2-1.7 5.8-3.2 2.5-1.4 3.5.6c5.2.9 13.7 6 16.8 10.1 1.5 2 4.6 5.7 7 8.2 2.3 2.4 4.2 4.9 4.2 5.4s1.4 2.9 3 5.3c1.7 2.5 3 4.7 3 5l3 6.7c1.7 3.5 3 6.9 3 7.5 0 .7.3 1.2.7 1.2.4 0 2.6-1 5-2.1l4.3-2.1 7.7-13.3.7-12.1.7-12.2-3.2-7.4a63 63 0 0 0-4.5-8.9 142.4 142.4 0 0 0-16.4-25 185 185 0 0 1-8.3-12 98.8 98.8 0 0 0-10.7-13l-12.4-13-4.4-4.7-8-3.4-8.2-3.4-5.2-6.6c-2.9-3.7-7-7.8-9.3-9.2a33 33 0 0 0-17.9-4.7H706l-6.7-4.2-.7-2.6a61.4 61.4 0 0 1 2-26.8c.3-.4 1.3-.4 2.2 0l1.5.5v3.9c0 2-.7 4.7-1.5 5.8-1.5 2-2 9.4-.7 9.4.7 0 4.3-10.6 10.2-30.5 1-3.3 2.6-9.4 3.5-13.5 2.5-11.5 5.6-23.1 7.4-27.3.8-2 2-3.6 2.6-3.4 1.3.5.9 4-1 8-1.4 3.4-4 11.6-4.8 15.7-1.4 7-7.7 29.1-12.3 43.2l-3.5 10.7 1 4 1.2 4.1h1.3c.7 0 2-1.5 2.8-3.2 2.1-4.5 14-45.7 16.4-57.2a22 22 0 0 1 2.3-7l1.2-1.1.8 1.4.9 1.3-1.5 3.7c-.9 2-2.1 6-2.8 9-.7 3.1-4 15-7.5 26.6a576 576 0 0 0-6.7 23.8l-.5 2.7h1.9c1 0 2.7-.6 3.6-1.2 1-.7 2.6-4 3.7-7.3a153.9 153.9 0 0 1 4.6-12l.8-2 .3 2a36 36 0 0 1-2.1 10 62.5 62.5 0 0 0-2.6 9.4v1.7l2.9 1c1.6.7 3.3.9 3.9.5s1.5-2.4 2.2-4.6l2-6a636 636 0 0 0 12.6-37.3c.2-.7 1-1.2 1.9-1.2h1.5v1.7c0 1-2.3 8-5.1 15.8l-8.6 24.4-3.5 10.3 3.3 3.4c1.8 1.9 3.7 3.4 4.1 3.4s.8-.8.8-1.8.5-2.3 1-2.9c.7-.6 1.5-2.6 2-4.4.5-1.9 3.6-11.4 7-21.2a257 257 0 0 0 6.6-21.7l.7-4h1.1c.7 0 1.7.5 2.3 1l1 1.2-.8 2.6c-.5 1.5-1.5 7.4-2.3 13.2-.9 5.8-1.4 8-1.1 4.7.2-3.1 0-5.7-.4-5.7s-1.6 3-2.8 6.8c-3.5 11-9.8 28.5-11.7 32-1 1.9-1.5 4-1.2 4.8.6 1.7 8.6 6.8 9.4 6 .3-.3 2.5-6.3 4.8-13.3 2.4-7 4.4-14 4.4-15.6 0-1.5.7-3.8 1.5-5l1.5-2.3.6-9 .7-8.9 1.3-1.9 1.3-1.9-1.2-1.8-1-1.7 1.3-1.7 1.3-1.6.9 1.3c.4.7.8 2.3.8 3.5v2.3h3v2a87 87 0 0 1-3.5 12.7c-2 5.9-3.4 11.1-3.3 11.7 0 .6-.2 3-.6 5.1-.5 2.2-1.5 4.6-2.4 5.3-1.7 1.3-8.1 20-7.5 21.8.5 1.3 6.3 4.8 7 4.1a200.8 200.8 0 0 0 12-41.3l-.4-2.3 1.9-1.7c1-1 1.8-2.6 1.8-3.6 0-2.5 3.8-9.8 5-9.8.6 0 1 .9 1 2 0 1-2 8-4.3 15.2a780.7 780.7 0 0 0-13.7 43.8c0 1.8 6 9.1 7 8.5.4-.2 1.3-2.8 2-5.7 1.7-7.5 10-33.1 11.2-34.3l.9-1 .8 1.4.9 1.4-3.9 10.9a199 199 0 0 0-8.9 30.7c0 2.3 4 5.6 5.2 4.3.5-.4 2.9-6.8 5.4-14.2 5.9-17.4 6.5-19 7.5-19 1.7 0 .9 5-2.2 12.5l-3 7.7.6 4 .7 3.8-1.6.7c-2 .7-4.6 5.4-4.6 8 0 2.4 4.7 7.7 6.3 7 .7-.2 3.4-6 6-12.7l4.9-12.3-.6-2c-.5-2 1-5.6 2.8-7 1.5-1 6.6-.9 6.6.1 0 .5-1 1.8-2.3 2.9l-2.3 2-4.3 12.4c-2.3 6.8-5.1 14.3-6.2 16.7-1 2.3-1.9 5.1-1.9 6.2 0 1.9 4 9 5.1 9 .3 0 1.4-1.9 2.4-4.2l4-9.3c1.3-2.7 3.5-9 5-14l3-10.2c.3-.7 1-1.3 1.5-1.3s1 1.3 1 2.9c0 3.1-6 20.9-11 32l-3.1 7.3 2.7 4 2.8 4 1.8-2.2c1-1.2 1.8-2.8 1.8-3.5a80 80 0 0 1 4-11.3c2.2-5.5 4-10.8 4-12a5 5 0 0 1 1.5-3.2l1.5-1.2.5 1.5a56 56 0 0 1-3.9 13.3 539 539 0 0 1-6.5 16.8l-2 4.8 1.4 3c.9 1.5 2 2.9 2.4 2.9 1 0 6.5-12.8 10.5-24.9a67.5 67.5 0 0 1 4.5-11.4l1-1 .6 1.5.7 1.6-3.7 9.8-7 18.5a51.3 51.3 0 0 0-3.5 11.4c0 1.5 1 4.3 2.2 6.2l2.1 3.5 1-1.6a354 354 0 0 0 9.9-26.1 83.3 83.3 0 0 1 4.8-12l1-.9.5 1.5c.5 1.4-2.4 10.3-10.5 31.4l-4.3 11-.3 5.5c-.1 3-.7 10-1.2 15.6l-.9 10.2-2.5 3a17.7 17.7 0 0 0-3.3 6.4c-.4 1.8-1 3.7-1.3 4.3-.4.5-2.5 5.5-4.8 11-4.5 11.1-13.5 31.8-16.4 38l-4.6 11a56 56 0 0 1-3.4 8c-.4.6-1 2.6-1.5 4.5s-1.1 4-1.6 4.6c-.5.6-2 4-3.3 7.5a376 376 0 0 1-9.6 22.5l-5 12c-3.2 8.6-5.4 12.4-6.5 11.3a32 32 0 0 1 3-9.6c1.9-5 3.5-10.3 3.5-12v-2.9l-2.4-2.3-2.5-2.3-1.4 3.5-2.2 5.8c-1.2 4-7.4 19-10 24.5a98 98 0 0 0-4.5 11.7l-2 6.7-2 1.1-2 1v-1c0-1.3 3.4-9.9 8.2-20.5a151 151 0 0 0 7.8-19c.7-2.2 2.4-6.3 3.7-9l2.5-4.9-.6-2.9-.6-3 1.9-.4c1-.3 2.6-2 3.5-4 .9-1.9 1.6-3.9 1.6-4.5s1.1-3.3 2.4-6.2c1.4-2.8 4.2-9.4 6.4-14.7 2.1-5.2 6.4-15.1 9.5-22 13.1-29.8 15.9-36.4 16.4-39.7l.6-3.4-2.3-5c-1.3-2.7-2.6-5-3-5-.3 0-2.1 3.8-4 8.3A319 319 0 0 1 781 840a815 815 0 0 0-18.6 43.5 370.3 370.3 0 0 1-11 25.3 1152.9 1152.9 0 0 0-20.5 47.3c-2.7 6-5.5 11.8-6.4 12.7l-1.5 1.8-1-.8-.8-1 4-7.3c2-4.1 4.6-9.7 5.6-12.4 1-2.8 2.4-6 3.1-7 .7-1.1 2.6-5.6 4.3-9.8a242 242 0 0 1 6.1-13.8l3-6-2.6-3.5c-1.4-1.9-3-3.5-3.4-3.5-1 0-3.3 5-5 10.5-.7 2.2-4.6 10.9-8.6 19.2a388.1 388.1 0 0 0-10 21.9l-2.5 5.8-1.1-1.2-1.1-1 2.6-5.4 8.2-17.7a494 494 0 0 1 7.4-16c1-2 2.2-4.7 2.6-6a85 85 0 0 1 3.2-8l2.4-5.4-1-1c-.6-.6-1-1.8-1-2.8v-1.7l2.1-.3 2.2-.4 2.7-5.1a53.7 53.7 0 0 0 6.4-17.2c-1-1-7.8 3.2-9.4 6a24 24 0 0 1-4.9 5.4c-5.2 4.2-12.2 16-18.2 30.4a1410.8 1410.8 0 0 1-24 56c0 .5-.9 1.5-2 2l-2 1.2-.6-1.5c-.3-.8.6-3.2 1.9-5.3a225 225 0 0 0 13.7-29.6 414 414 0 0 1 7.2-16.2l1-2-1-.3c-1.8-.6-1.4-3 .6-3.5l1.7-.5 5.9-11.7 5.9-11.6-3.6-4h-5.2l-1.8 4.8a392 392 0 0 1-11.9 28.1c-2.6 5.7-4.8 10.7-4.8 11.1 0 .8-5 12-13 29.6l-4.1 9.5c-1.3 3-2.7 6-3.2 6.7-1.3 1.7-3.7 1.6-3.7-.2 0-.8 4.5-10.6 9.9-21.8a611.7 611.7 0 0 0 19.5-43.1c4.9-10.4 6.2-13.7 7.6-18.2.7-2.2 1.6-4.4 2.1-5 1.5-1.5 1-3.5-1-3.5-.9 0-3.6 1-6 2l-4.2 2.1-1.3 3.2a752 752 0 0 1-17.6 39.7 471 471 0 0 0-17.5 39c-1 3.2-2.4 5-4 5-2.3 0-2.4-2.7-.4-5.4 1.1-1.4 2.8-4.8 3.8-7.5s2.2-5.5 2.8-6.2a59 59 0 0 0 6.3-14 4 4 0 0 1 1-2.4 381.2 381.2 0 0 0 22.7-48.1c.9-1.7 1.3-3.9 1-4.7l-.6-1.7h-9l-1.6 2.5-1.6 2.4 2 3.7-5.5 12.4c-3 7-6.6 14.6-8 17-3.7 6.6-11.5 23-17 35.6-2.7 6-5.7 12.4-6.7 14.2-2 3.5-4.7 4.4-4.7 1.5 0-1 .8-2.9 1.7-4.2 2.3-3.3 10-18.3 12.5-24.5 1.1-2.8 6.7-14.5 12.4-26a254.7 254.7 0 0 0 11-24l.5-3-3.6 7a61 61 0 0 1-6 9.4 35.6 35.6 0 0 0-4.4 7.2 32.8 32.8 0 0 1-5.6 8l-3.5 3.3v2.2c0 2.8-3.2 10.2-14.2 33.1a47.3 47.3 0 0 1-5.8 10.3c-1.5 0-2.2-2-1.6-4.4.3-1.3 1.7-4 3-6 4.4-6.3 10.7-18.6 13.2-25.5l2.4-6.7-2 2.4c-1 1.3-2 3-2 3.7 0 1.2-2 3.8-12.2 16.2l-5.2 6.3H636c-1 0-1.8-.4-1.8-.8a52 52 0 0 1 6.1-7.2 77 77 0 0 0 7.2-8.6l1-2-1.8 1.5c-1 .9-3.7 3.2-5.8 5.3-2.2 2-4.8 3.8-5.8 3.8s-3 1.2-4.8 2.7l-3 2.7v2.4c0 2.6-2.6 5-5.1 5.1-.9 0-3.6 2-6 4.6l-4.4 4.5h-5l-6.5 4.5a26.7 26.7 0 0 1-8.6 4.5h-2.2zm63-40.4a1 1 0 0 0-1.4 0c-.3.3 0 .6.7.6s1-.3.7-.6zM770 921.2c1.6-3.5 4-9 5.1-12.3 2.3-6.5 4.6-12.3 6.6-17l5.2-13a292 292 0 0 1 5.5-13c.8-1.6 3-6.4 4.7-10.5 1.7-4.1 4-9 5-11 2.7-5 7.3-18 6.6-18.8-.3-.3-1.4.2-2.4 1.1a6 6 0 0 1-3.4 1.7h-1.6l-2.2 4.7-6 12.8c-2.1 4.4-4.6 10.3-5.6 13-1 2.8-4.2 10.2-7.2 16.5-3 6.3-6.7 14.9-8.4 19l-7 16.9-4.2 9.3 1.9 3.4c1 1.9 2.4 3.4 3.1 3.4s2.6-2.8 4.3-6.2zm-151.9-3.7c0-1.7 2.5-5 14.1-19.4l3.1-3.8-.5-2.2c-1.1-4.4-3.2-9.7-3.9-9.7-.3 0-1.2 1.7-1.8 3.8-.7 2-2.7 7.1-4.5 11.2s-4.6 10.7-6 14.5a188 188 0 0 1-4.2 10l-1.4 3 2.6-2.8c1.4-1.5 2.5-3.6 2.5-4.6zM751 902.2a2427.3 2427.3 0 0 1 15.7-36.8c3.5-8 6.6-15.6 7-17 .4-1.4 2.7-6.3 5-11a205.3 205.3 0 0 0 11.5-26c0-.5-1.1-2.8-2.5-5a19.8 19.8 0 0 1-2.5-5c0-.4-1.9-2.7-4.2-5-2.2-2.2-5-4-6-4s-2.2.9-2.8 2l-1 2 .7 1.2c.4.7 1 3 1.4 5.3l.6 4 .6-1.5 1.9-4.5 1.2-3 .4 2.3c.5 3-4 20.2-7.9 29.4a106 106 0 0 0-7.4 22.3c-.1 1.7-3.3 10-7 18.5l-9.7 22.7-3 7.2 2.3 3c1.3 1.7 2.7 3 3 3 .4.1 1.6-1.8 2.7-4.1zm-26.4-18.3c-.4-.8-1-1.5-1.5-1.5s-.9-.4-.9-1c0-1.5 3.3-1.2 5.8.6l2.2 1.5.6-1.5c.7-1.9-1.8-7.6-5.5-12.5a123 123 0 0 0-8.3-9.5 110 110 0 0 1-10.5-13.5 136 136 0 0 0-11.8-15c-3.9-4.2-8.3-9.1-9.8-11L682 817l-7.8 2.6-3.4-.6c-2-.3-3.8-.3-4 0-1 .9 5.9 9.9 14.6 19.3 4.3 4.7 8.4 9.6 9 11 1.2 2.7 1 2.5 19.3 22.3 7 7.5 13.3 13.7 14 13.7h1.3l-.5-1.5zm-11.8-15c-.9-1-1.6-2-1.6-2.6 0-1.3 2.4-1.1 3.8.3 1.4 1.4 1.6 3.8.3 3.8-.5 0-1.7-.7-2.5-1.6zm-16.5-21.5a19 19 0 0 1-4-6.6l.4-1.6 2.7 2.1a26 26 0 0 1 4.9 5.7l2.2 3.5-1 1-1 1zM679 825.8c-1.5-1.3-2.7-3-2.7-3.5 0-1.8 2.7-.9 5.3 1.9 1.5 1.5 2.7 3.1 2.7 3.5 0 1.5-2.7.6-5.3-1.9zm81.3 26.3c0-1.3.9-5 2-8.2l2-6.1c0-.1-1 .1-2.3.7a13 13 0 0 0-5.7 9c0 2.7 1.8 6.9 3 6.9.5 0 1-1 1-2.3zm8-23.8c1-2.4 2-6 2.5-7.7l.7-3.4-3.5 2.3c-2 1.3-4 3-4.5 4l-1 1.6 1 4.2c.6 2.3 1.5 4 2 3.8.6-.1 1.9-2.3 2.8-4.8zm-89.4-16c1.3-1.2 2.4-2.8 2.4-3.3 0-.6-2-1.9-4.2-2.8l-4.3-1.7-5.9 1.4a25 25 0 0 0-6.8 2.3c-.6.5-.8 1.8-.6 2.7l.3 1.8 4 1.3c2.2.7 6 1.1 8.3 1l4.3-.4zm92.8-2c-.9-1.5-2.4 0-2.4 2.4v2.2l1.5-2c.8-1 1.2-2.2.9-2.7zM543 807.5l4-3.7.7-3.8.7-3.7-1.2-1.5c-.7-.9-2-1.5-3-1.5-1.1 0-2.3.8-2.8 1.7-.5 1-1.5 4.3-2.3 7.3-.7 3-1.6 6-2 6.4-1.3 1.5-1 2.6.5 2.6.7 0 3.2-1.7 5.4-3.8zm196-1.2c.9-1.1 2.1-2 2.8-2 .6 0 1.7-1.3 2.3-2.8 2-4.3 6.3-17.4 5.9-17.8-.2-.2-2.1 0-4.2.2l-3.8.7-3.5 7.6c-1.9 4.2-4 9.3-4.6 11.3-.7 2-1.5 3.8-1.9 3.8-2 0-1.4-3 2.8-12.7l4.7-10.8.2-4.5.3-5.7a30 30 0 0 1 5.2-6.3l5-5.2v-3.9c0-2.1-.5-5-1.2-6.4-2.6-5.8-2.7-5.6-22 45.6l-2.2 5.6 1.7 2.6 1.7 2.7h9zm-75.7-3c1.3 0 3-.4 3.8-1l1.3-.8-4.2-5.7c-2.3-3.2-6.5-8.3-9.2-11.4-11-12.5-13-15-18.5-21.6-3.2-3.9-6.2-7.5-6.8-8-1.5-1.4-17-18-21.7-23.3l-3.6-4.1-1.9 1.4-1.8 1.4h-9.8l3.9 3.8c2.1 2 6.7 7.3 10.2 11.6 3.5 4.3 7.4 8.2 8.8 8.7l2.4.9v4.6l6.1 6.4a119 119 0 0 1 9 10.7c1.6 2.3 3.2 4.3 3.7 4.5.5.2 2.3 2.4 4 4.9l8.2 10.5a35 35 0 0 1 6.2 9.3l1.2 1.1 3.1-2c1.8-1 4.3-2 5.6-2zm-5.6-5c-.3-.6-.3-1.5 0-2l.7-1.1 1.4 1.1c.7.7 1.1 1.6.8 2-.7 1.3-2.1 1.2-2.9 0zm-13-14.5a20.7 20.7 0 0 1-3.5-4.6c0-.5.4-1 .9-1.4 1.1-.7 5.8 3 7.2 5.7l1 2-2 2zm-18-21.2c-1.8-2-3.6-4.5-3.8-5.5l-.5-1.8h1.3c.7 0 3 1.8 5 4.1 3.5 4.2 4.5 6.9 2.5 6.9-.6 0-2.6-1.7-4.5-3.7zm-20-23.1-2.5-3.8 1.2-.3c.6-.3 2.4 1 4 2.7 1.5 1.8 2.8 3.6 2.8 4.2 0 .5-.7 1-1.5 1s-2.6-1.7-4-3.8zM757 790.9l3.2.6 2-4.7 2-4.9c0-.2-1.3-.8-3-1.5-1.6-.7-3.7-1-4.5-.7-1.7.7-6 9.2-7 14.2l-.7 3 2.3-3.3 2.4-3.3zm13.7 0 1.7-4.7-1.8-1.4c-1-.7-2.4-1.4-3-1.4-.7 0-1.9 1.8-2.8 4a28 28 0 0 0-1.6 4.8c0 .5 1 1.4 2.3 2l2.8 1.1c.4 0 1.4-2 2.4-4.5zm-43-2.5.6-2.5-1.5 2a7 7 0 0 0-1.6 3.4v1.5l.9-1c.5-.5 1.2-2 1.5-3.4zm7.5-18.8a223 223 0 0 1 4.6-12.7c1.3-3.3 2.7-8.7 3-12.2l.5-6.2-1-.6-1-.6-2.1 4.8-2.1 4.7.6 3.2.6 3.2-4.4 3-2.4 8.3a89.3 89.3 0 0 0-2.9 14.9l-.5 6.5 2.5-4.8c1.3-2.6 3.4-7.8 4.6-11.5zm-225.4-3.7c1-.8 3.5-2 5.4-2.5l3.5-1 2.3-5.8c3.6-9.3 5.6-16.2 4.8-17-1-1-6.6 2.5-10.1 6.3l-3 3.2-2.6 7.4-3.4 9.1-.7 1.8h.9a8 8 0 0 0 2.9-1.5zm158 .7a121.4 121.4 0 0 0 8.4-23.5c0-.7.7-2.6 1.5-4.2.9-1.5 1.3-3 1-3.3-.2-.2-2 .2-4 .9-3.6 1.3-7.5 5.4-7.5 7.8 0 .7-1.4 4.6-3 8.7a39 39 0 0 0-3 11v3.4h2.7c1.6 0 3.3-.4 4-.8zm22-6.2 2.2-6.4-2.1-4.3c-1.2-2.4-2.5-4.4-2.9-4.4s-.8.5-.8 1c0 .6-1.3 4-3 7.5a79 79 0 0 0-3.6 9c-.3 1.3-.3 3 .1 3.6l.7 1 7.1-.5 2.3-6.5zm-12.1-.8a612 612 0 0 0 13-33c1.5-4 4-10.3 5.7-13.9l3-6.5-2.8-3a27 27 0 0 0-7.2-5l-4.3-2-1.4 1c-.7.7-1.5 2.4-1.8 4-.3 1.4-1 4.4-1.7 6.6l-1.7 6.5-.4 2.5 2 2.3c1.3 1.3 2.6 2 3 1.8.4-.3 2-4.3 3.6-9 1.5-4.8 3.2-8.9 3.7-9.2.5-.3 1.2-.3 1.5 0 .7.7-1.2 7-4 13.6l-2 4.5.2 5.6.1 5.6-3.4 4.4-3.4 4.4-2.7 9c-1.5 5-3 10-3.6 11.4-1.3 3.2-1.1 5.2.4 5.2h1.3l2.9-6.8zm18.5 5 2.9-1.6 1.6-4 3.3-8c.8-2 1.3-4 1-4.2-.3-.3-2.4.7-4.7 2.2l-4 2.9-2 4c-1 2.2-2.2 5.4-2.6 7.2l-.7 3.3h1.2c.7 0 2.5-.8 4-1.7zm-165.5-6.5c1.9-1.3 3.9-3.1 4.5-4.2a217 217 0 0 0 4.5-12 42 42 0 0 0 3-10.4c-.3-.3-1.8.2-3.3 1l-5.7 3.4-3 1.6-4 10.7a189 189 0 0 0-4.3 12l-.4 1.4 2.7-.6c1.4-.4 4.2-1.7 6-3zm131.3-5.8a35 35 0 0 0 2-7.7l-.3-1.3-10.7 9.8.7 1.4c1.6 2.8 3.9 4.9 5 4.6.5-.2 2-3.3 3.3-6.8zm45.5 3.2a63 63 0 0 1 5.1-6.7c3.3-3.5 6-12.5 3.8-12.5-1 0-6.2 5.4-6.2 6.3a47 47 0 0 1-2.5 6.2c-1.4 3-3 6.6-3.5 8l-1 2.6h.9c.5 0 2-1.8 3.4-4zm25-2.9c.4-2 2.3-6.9 4.2-10.8l3.4-7-2.2-1.7a8.2 8.2 0 0 0-3.4-1.7c-.7 0-1.9 1.2-2.7 2.7-.8 1.5-2.2 5.4-3 8.5l-1.7 5.8 1.7 4.4c.9 2.5 2 4.3 2.4 4 .4-.2 1-2.1 1.4-4.2zM545 747.2c2-3.4 4.9-7.4 6.4-8.8l2.6-2.6.7-3.7.7-3.8h-2c-3.4 0-5.2 1.1-6.7 4-.8 1.5-3 6.8-4.8 11.9l-3.5 9.2h1.5c.7 0 3-2.8 5-6.2zm180.7-2.6 2.5-8 1.8-5.4-1.3-.5c-.8-.3-2.2-.4-3.2-.2l-1.8.4-2.2 4.7a52.6 52.6 0 0 0-2.9 7.2l-.6 2.5 2.3 1c1.3.5 3 1 3.6 1 .7 0 1.5-1.2 1.8-2.7zm-163.4-9.8a24 24 0 0 1 10.4-5.5c.8 0 1.5-.5 1.5-1V727l-3.2.6c-3.7.8-9 4.2-10.7 6.8-1.4 2.3.1 2.4 2 .3zm132.6-2.7c3-3.3 6.3-12.5 6.3-17.1v-4.1l-1.3 1.5a48 48 0 0 0-4.2 9c-1.6 4-3.2 7.9-3.7 8.4-1 1.2-1 4.5 0 4.5.5 0 1.8-1 2.9-2.2zm-133.3-2.7c1.2-1 4-3 6.5-4.2l4.3-2.4 1.9-5c1-2.6 1.7-5 1.5-5.2-.2-.2-3.2 2.1-6.6 5.2-3.4 3-6.6 5.5-7 5.5-.4 0-1.5 1.6-2.4 3.4a27 27 0 0 0-1.6 4c0 1.2 1.4.6 3.4-1.3zm121.3-.7c-.4-.4-.7-.1-.7.6 0 .8.3 1 .7.7.3-.4.3-1 0-1.3zm-100 0a1 1 0 0 0-1.4 0c-.3.3 0 .6.7.6s1-.3.7-.6zm11-3.1c.6-.5 2.8-5.3 4.8-10.8l3.6-10-.2-5.8-.3-5.7 7.2-7.5 4.2-11.9-.9-.9c-.5-.5-2.1-.7-3.7-.5l-2.8.3-3.4 8.5c-5.2 13-10.2 27.3-10.2 29 0 .9-1.1 3.8-2.5 6.5a26 26 0 0 0-2.5 7.3v2.2h2.7c1.6 0 3.3-.3 4-.7zm10-1.4c.6-.5 1.4-3.2 1.8-5.9.7-5 0-9-1.5-9a91.5 91.5 0 0 0-6 16.3c0 1 4 0 5.7-1.4zm-18.2-5.5.6-3.6-1.2-2.9c-.6-1.6-1.8-2.9-2.6-2.9h-1.4l-2.4 5.3c-1.4 2.9-2.5 6-2.5 7v1.6l3.2.3c1.8.2 3.8 0 4.4-.4.7-.5 1.5-2.5 1.9-4.4zm68.8-14.1a269.8 269.8 0 0 0 5.3-17.7l.6-1.6h-2.8c-1.6 0-3.4.4-4.1.8a45 45 0 0 0-4.7 11.1c-1.9 5.8-4 10.8-4.8 11.2l-1.3.8 3 3c1.6 1.8 3.4 3.1 4 3.1h1.3zm6.5 8.7c1-1.1 3-5.3 4.2-9.3 1.2-4 2.7-8.2 3.1-9.5.5-1.2.9-3.3.9-4.5 0-2.8-2.5-6-4.2-5.4-.7.2-3.4 7-6 14.8a283 283 0 0 0-4.8 15.2c0 .4 1.1.7 2.5.7a7 7 0 0 0 4.3-2zm17-8.2c1.7-5.1 3.3-10 3.7-10.8l.6-1.6-4.1-1.8c-2.3-1-4.3-1.6-4.6-1.3a154.5 154.5 0 0 0-8 23.6c.3.4 2.5.9 5 1l4.5.1zm-83.3-11.3c2.6-7.7 5.4-15.3 6.2-16.8.8-1.6 1.2-3.1 1-3.4-.3-.3-1.7.3-3 1.4-2.9 2-6.7 8.2-6.7 10.7 0 3-4 13-6 15.1-1.1 1.2-2 2.6-2 3.2 0 .5 1 2 2.1 3.2 1.2 1.3 2.5 2 2.9 1.5.4-.5 2.8-7.2 5.5-14.9zm51.5 2.8c2-5.6 3.2-10.3 3-10.6s-2-.2-4 0l-3.5.5-2.2 5.8a71.1 71.1 0 0 0-2.9 8.7l-.6 3 2.8 2.2c1.5 1.2 3 1.8 3.4 1.4.3-.4 2.1-5.4 4-11zm-10.4-1.3a23 23 0 0 0 1.3-6c0-.8-2.4-3.2-5.4-5.2-3-2.1-5.8-3.8-6.4-3.8-.6 0-1.7 2.3-2.6 5.2l-1.5 5.2 1.7 1.8 1.7 1.9 1-1c1.5-1.6 2.6-1.3 2.6.6 0 2 4 6.5 5.3 6 .6-.1 1.6-2.3 2.3-4.7zm-16.2-7.7 1.1-5.3.6-3.5-2.4-2.3-2.4-2.3-4.5 10.4 1.3 2.4 1.2 2.3h4.6zM796.9 972c-2.6-3-4.7-5.9-4.7-6.5 0-.6.9-1 2-1h1.8l4.1 4.6c4 4.6 5.3 8.4 2.8 8.4a25 25 0 0 1-6-5.5zm-438.5 3.7c-1.4-.5-1.6-3.8-.3-4.7 1.6-1 4.1.6 4.1 2.5s-1.7 3-3.8 2.2zm550.8-.5c0-.7 1.4-4.3 3.1-7.8a169 169 0 0 0 4-8.7c.5-1.2 1.4-2.2 2-2.2h1.1l-.5 1.7c-.3 1-2.1 5.4-4 9.8-3.4 7.5-5.7 10.4-5.7 7.2zm164.2-7.8c-1.2-.5-2.3-1.4-2.4-2.2a360 360 0 0 1-1-11.6l-.3-3.4 3.2-2 2.6.6 2.7.7v3h-3c-1.7 0-3 .4-3 1s1 2 2.2 3l2.3 2-1.4.8c-.7.5-1.1 1.7-1 2.8l.4 1.9h3.6c2 0 4.1.5 4.9 1l1.3.8-1.8 1.3c-2.1 1.5-6 1.7-9.3.3zM752 965.2c-.6-1.7 1.2-5 2.3-4.2.6.3 1 1.7 1 3v2.5h-1.4c-.8 0-1.6-.6-1.9-1.3zm337-.4c-.4-.4-.7-1.5-.7-2.6v-1.9l2.3.3 2.2.4.3 2.2.3 2.3h-1.9c-1 0-2.2-.3-2.5-.7zm-51.2-3-1.7-1.7.6-3a12 12 0 0 1 2.3-4.8c.9-1 2.4-1.8 3.4-1.8s2.3.8 2.9 1.9c1.4 2.6 1.3 8.4-.2 9.9-1.7 1.7-5.4 1.4-7.3-.5zm6.3-4c.1-1-.2-2.5-.8-3.3l-1-1.5-.8 1.3c-1.2 1.7-.2 6.3 1.2 5.9.6-.2 1.2-1.3 1.4-2.3zm8.8 4.1c-1-2.6-.7-11.3.4-12 .5-.3 2 .6 3.4 2 1.3 1.4 2.6 2.6 3 2.6.3 0 .6-.6.6-1.2s.8-1.7 1.7-2.4l1.8-1.3 1.7 1c1 .5 1.8 1.4 1.8 1.9s-.9 1-2 1h-2l-.1 1.7-.3 3.7-.1 2-1.7.4-1.7.3-1.2-2.3-1.3-2.3-.6 2.9c-.3 1.6-1 3-1.6 3.3-.6.2-1.4-.4-1.8-1.3zm-40.3-3.4-1.5-3.9-2.3 1a8 8 0 0 0-3.4 3.5c-.6 1.3-1.7 2.4-2.5 2.4h-1.5l.1-4.9.1-4.8-1.5-3c-.8-1.6-1.3-3.5-1-4.1.2-.7 1.2-1.2 2.3-1.2 1 0 1.9-.5 1.9-1s1.2-1.6 2.7-2.1l2.8-1 1.7 2.1 1.8 2.2v6.9l6.2 9-.6 1.4c-.3.8-1.3 1.5-2.1 1.5h-1.7zM1009 947l-.3-3-1.9-.4c-1-.2-2.2.1-2.8.6l-1 1 1.2 4.2 1.1 4.3 4-3.6zm18.7 13.4c-.4-.6-1.3-.8-2-.6-.8.3-1.8 0-2.3-.6a38.6 38.6 0 0 1-3.2-13.2v-2.5l1.4.6c.8.3 1.8 1.8 2.1 3.4l.6 2.8 2.7.3 2.7.4.3 3c.2 1.6 1 3.7 1.8 4.5.8 1 1.1 2 .7 2.3-1 1-4.1.8-4.8-.4zm-.5-6c0-.5-.4-1-1-1s-1 .5-1 1 .5 1 1 1 1-.4 1-1zm-701.3 2.4c-.4-.4-.7-2.3-.7-4.3s-.4-5.2-1-7.2l-.8-3.7 1.1-1c1.5-1.6 6-1.4 8.3.3l1.9 1.4 3.8-2.1 3.8-2.2 1.7 1c.9.6 2.2 3.3 3 6 .7 2.7 1.4 5.9 1.5 7l.2 2h-3.9l-1-5-1.1-5-1.8-.4-1.7-.3-1 2.6c-.5 1.4-1.3 2.6-1.8 2.6s-1.7-.7-2.8-1.5c-1-.8-2.5-1.5-3.1-1.5h-1.3l1.3 12h-2c-1 0-2.3-.3-2.6-.7zm31.8-3.7a17 17 0 0 1-2-5.8l-.6-3.3 1.3-2.5 1.4-2.5h5.7l1.9 2.5c1 1.4 2.1 4.1 2.4 6l.6 3.7-2.3 2.1a8.2 8.2 0 0 1-4.6 2.2h-2.3zm7.5-3.5c0-.5-.5-2.3-1.1-4-1.2-3.4-3.3-4.1-4.3-1.6a8 8 0 0 0 0 4l.6 2.5h2.4c1.3 0 2.4-.4 2.4-.9zm97.3 4.7a25 25 0 0 1-2.2-7.3c-.6-3.2-1.1-6.5-1.1-7.2v-1.3h5l1.7 2c1 1 2 2 2.5 2 .4 0 .8-.7.8-1.5v-1.5h3.7l.6 6.7c.3 3.7.3 7 .1 7.4-.9 1.4-4.1-.4-5.8-3.2-1-1.6-2.1-3-2.6-3h-1l1 2.7 1 2.7-1.3 1.4-1.4 1.4zm-83.8-2.2-2.5-2.6v-9.1l1.5-.6c.9-.3 1.9-.3 2.2 0 .4.4.6 2.4.5 4.5l-.3 3.9 1.4 1.1c.8.7 2.1 1 3 .6.9-.3 1.7-1.4 2-2.3s-.3-3-1-4.8c-1.2-3-1-4.3.8-4.3 1.3 0 3.9 5.6 3.9 8.3 0 1.3-.8 3.4-1.8 4.5s-3 2.4-4.4 2.7l-2.7.7zm72-5.1c0-4.2.6-7.7 1-7.8.6 0 1.6 1 2.3 2.5l1.3 2.7-.8 4.7-.8 4.8-3.1.6zm32 6-2-1.4 2.4-2.5 2.6 1.2c2.7 1.2 5.8.5 5.2-1.2-.2-.6-1.9-1.4-3.7-1.8-1.9-.4-4-1.5-4.7-2.5-1.6-2.2-1.7-5.6-.1-7.1 1.5-1.6 8.5-1.6 9.4-.1l.7 1.2-1.8 1.3-1.9 1.4-3.8-1.2 1.1 2c.7 1.2 1.8 2.2 2.6 2.2 2.6 0 6.5 2.2 7 4.2l.7 1.9-1.8 2-1.7 1.9h-4.2c-2.3 0-5-.7-6-1.5zm-86.7-.3c-.2-.4-.3-3.7-.3-7.2V939l2.7-.4 2.8-.3 1.1 2.6c.7 1.4 1.6 2.6 2 2.6.5 0 .9-1.1.9-2.4v-2.4l1.6-.6c.8-.4 2-.6 2.5-.6 1.3 0 1.1 3.3-.2 4.7-.6.6-1.2 3.2-1.3 5.9l-.1 4.8-1.8.4-1.7.3-1.5-3.6c-.9-2-2-3.5-2.5-3.5s-1 1.5-1 3.5v3.5h-1.4c-.8 0-1.6-.4-1.8-.8zm46-1.1c-.7-1.2-2-2.1-2.7-2.1-.8 0-2 .7-2.7 1.7l-1.3 1.8-2.3-2.3 1.3-6.2 1.2-6.2 1.5-.6a4 4 0 0 1 3 .4c1 .6 2.5 3.9 3.5 7.3l1.8 6.3-2 2zm-1.8-7.6c0-.2-.5-.7-1-1-.6-.4-1-.2-1 .4 0 .6.4 1 1 1 .5 0 1-.1 1-.4zm-18 5-1.2-1.5.6-3.5.7-3.5H417l.4-1.8c.2-1 .9-1.7 1.6-1.6l4.4.2c1.8.1 4 .6 4.8 1.1l1.4 1-1.7 1.8a7 7 0 0 0-1.7 3.9c0 1-.6 2.8-1.3 3.8l-1.3 1.7zm614.5-3-1.6-2.4.6-3.6c.4-2 1.1-3.8 1.7-4.1l.9-.6-.7-6-.7-5.8 1.3-1.5c.7-.9 1.6-1.3 2.1-1l1 .6-1.3 6.8 1.6.5 3.2 1 1.6.6-1.3 1.5-1.3 1.6.3 5.4.2 5.3-2 2c-1.2 1.2-2.5 2.2-3 2.2-.6 0-1.8-1.1-2.6-2.5zm3.8-5.8-1-3.2-.8 2.7a8.7 8.7 0 0 0 0 4.4l.6 1.7 2.2-2.3zm-129.7 6.4c-.3-.5 1-2.9 2.8-5.3 4-5 13.6-22.9 13.6-25 0-.9.9-2.4 2-3.4s2-2.4 2-3.1c0-.8.4-1.4 1-1.4.5 0 1 1.8 1 4v4l-3.8 1.1-.7 2.7a11 11 0 0 1-2 4.2c-.6.9-3 4.7-5.2 8.5a60 60 0 0 1-9.5 14.5c-.4 0-1-.3-1.2-.8zm200.4-4.9c-1.4-.2-3-.9-3.7-1.5-.7-.5-1.3-2.3-1.3-3.8 0-1.6-.5-4-1.2-5.4l-1.1-2.5 1.8-2 1.8-2h6.5l.6 1.5c.3.9.6 2 .6 2.6v1l-7.5-1.3 2.5 2.6 2.4 2.6-1.2 2-1.3 2.1 7-.6 1.3 1.3 1.3 1.3-2 1.4c-2 1.5-2.2 1.5-6.5.7zm-22.4-4.5c-.3-1.2-.7-3.2-.8-4.3-.2-1-1-2-1.8-2s-2.1 1.5-3 3.3c-.7 1.8-2 3.3-2.7 3.3-.7 0-2-1.6-2.7-3.5-.8-1.9-2.4-3.9-3.5-4.5-1.2-.6-2.1-2-2.1-3v-2h5V922c0-2.8 1.7-4.3 3.2-2.8.5.6 1.2 2.9 1.5 5.1s.8 4.1 1.2 4.1c.3 0 1.2-.4 2-.9l1.5-1-.5-9 3.4-1.4 2.5 3.5-.8 3c-.5 1.7-.6 4.4-.3 6l.6 3.1 1.7-2.2 1.7-2.3 3.8.8.3 2.2a6.3 6.3 0 0 0 2.4 3.7l2 1.4-.5 1.6c-.4.8-1.3 1.6-2 1.6a9 9 0 0 1-4-2l-2.4-2-1.1 2.5c-.7 1.3-1.8 2.5-2.7 2.5s-1.7-1-2-2.3zm-65.6-2.7a9 9 0 0 1-1-3.4c0-2 4.9-7.7 6.6-7.7.8 0 2.6 1.1 4 2.5l2.4 2.5v2.3c0 1.4-.8 3.2-1.8 4.1l-1.9 1.7h-7.2zm8.7-2.7c.7-1.7-.6-4.5-2.5-5.1-1.5-.5-3.3 3.2-2.6 5.2.8 2 4.3 2 5 0zm-582.2.6-.6-1h1.5c.9 0 1.6.5 1.6 1 0 .6-.4 1-1 1-.5 0-1.2-.4-1.5-1zM349.2 931c0-.8.6-1.5 1.3-1.5.6 0 3.3-1.3 6-3l4.7-3v-7.6l-6-4.4v-4.7l-4.5-3 1.1-1.3c2-2 4.8-.6 6.9 3.3 1.1 2 2.3 3.7 2.6 3.7.4 0 1-1.7 1.3-3.8.3-2.2 1.3-4.5 2.1-5.2l1.6-1.3 1.1 1.1 1.1 1.2-1.1 2.6c-.7 1.4-1.2 5.8-1.2 9.8v7.3l-3 4.2c-1.7 2.3-3.8 4.2-4.8 4.2s-2.6.7-3.6 1.5a7.7 7.7 0 0 1-3.8 1.4h-1.8zm506.3-3.1c-.3-.8.1-2.2 1-3l1.5-1.6 3 .7c3 .6 5 2.2 4 3-.2.3-2.3.9-4.6 1.4l-4.3 1zm-424-.4c-2.2-.8-3-3-1.7-4.2.3-.4 1.7-.2 3 .3l2.4.9 5-2v-2.7c0-1.6-.5-3.4-1.2-4-.7-.7-2.7-1.3-4.4-1.3h-3.3l-.5-1.7-1.1-5-.7-3.4 1.7-1.9c1-1 3-2.2 4.7-2.5l3-.7 1 1.1c1.7 1.7 4.7 14 4.8 19.3v4.7l-3.4 2a11 11 0 0 1-5.2 2c-1 0-3-.4-4.1-.9zm5.7-18.4a3 3 0 0 0-1-2.1c-1.5-.9-3.4 1-2.6 2.5 1 1.5 3.6 1.3 3.6-.4zm344.6 17.6c-.3-.4.6-3.2 2-6.2 2.6-5.6 6.9-16 14.4-35.5a525.9 525.9 0 0 1 10-24.5l4-9.5c1-2.2 2.5-6 3.3-8.5l4.7-12.5a1504.6 1504.6 0 0 0 20-53.5l2-5.5c.5-1.1 1.4-3.8 2-6a77 77 0 0 1 3-8c1-2.2 2-4.8 2.3-5.8.7-2 2.7-2.3 2.7-.4 0 .8-.7 3.4-1.6 5.8l-7 19.4c-8 23-9.8 27.8-16.5 44.5a3455.8 3455.8 0 0 0-11.1 28 51 51 0 0 0-2.3 6 52 52 0 0 1-2 5.5 565.7 565.7 0 0 0-13.9 33.8c-1.3 2.9-3 7-3.6 9-.7 2.2-3 7.7-5.1 12.4a50 50 0 0 0-3.9 10.4v2h-1.4c-.8 0-1.7-.4-2-.9zm92.7-3.7c-.3-.9-.1-2 .5-2.6l1-1 3 .6c1.8.4 3.5 1.2 3.8 1.7.9 1.4-1.5 2.8-4.9 2.8h-2.8l-.6-1.5zm188.7.3a14 14 0 0 1 3-4.7c3-3.5 3.9-7.4 2-8.6a17 17 0 0 1-3.2-5.1l-2-4.5 1-1.1 1.2-1.1 2 1.8c1 1 2.2 2.6 2.5 3.7.4 1 1 1.8 1.3 1.8.4 0 1.5-1.3 2.4-3 1-1.6 2.1-3 2.7-3h1l-1.4 4.8-2.4 8.7-1 4-3.7 3.8c-2 2-4 3.7-4.5 3.7s-.9-.5-.9-1.2zm-838.5-4.5c-2.2-.2-4.4-.8-4.8-1.2-.5-.5-1.3-6-1.8-12.1l-.9-11.3 1.9-2.2 13.8.3 13.8.4 10-1.3a94 94 0 0 1 11.5-1c.8.1 2 1 2.8 2l1.3 1.6-.6 20.8-3.4 1.5c-1.8.7-4 1.1-4.7.8-.8-.3-7.8 0-15.6.5a832 832 0 0 0-16.8 1.2 35 35 0 0 1-6.5 0zm92.3-2.5-1.6-1.3-.6-6.6-.6-6.6 1.5-1.2 1.5-1.3 5 1.3v1.8c0 1-.7 2.2-1.5 2.5l-1.5.6 2.1 2.1 2.2 2.2-1.7 1c-.9.4-1.6 1.3-1.6 1.8s1.1 1 2.5 1 2.5.4 2.5 1c0 1-3.3 3-5.2 3a6 6 0 0 1-3-1.3zm16.7.3c-.3-.5-.3-2.1 0-3.5l.7-2.6-1.4-2.2c-.8-1.3-1.7-3.3-2-4.5l-.6-2.3 2.1-1.4c1.2-.8 3.3-1.7 4.7-2l2.6-.7 5.4 4.3v3.2c0 1.7 1 4.6 2 6.4 1.1 1.8 2 3.8 2 4.3 0 .6-1 1-2.2.8l-2.3-.4-1.3-2.7-1.3-2.7-1.5.6c-.8.3-2.1 1.9-3 3.5-1.5 3-2.8 3.6-3.9 1.9zm7-11.6v-2l-2.2-.3c-1.3-.2-2.3.1-2.3.7 0 2.3 1.4 4.2 2.9 4l1.6-.4zm67 11a6.5 6.5 0 0 1-1.5-4v-2.5h-1.5c-.8 0-1.5.7-1.5 1.5 0 1.7-3.5 5.5-5 5.5-.5 0-1.4-.8-2-2l-1-1.9 4-3.7-1.5-3.7c-.8-2-1.5-5-1.5-6.7v-3.1l1.6.3 1.7.3 1.7 4.5 1.8 4.5h3.7l.3-3.7c.2-2 .7-3.8 1.2-3.8s1.5 1 2 2.2l1.2 2.2-1.1 10 1.5 1.8c1.7 1.8 1.1 3.8-1 3.8-.8 0-2.2-.7-3-1.5zm41.1.4c-.2-.8-1-5.2-1.6-9.9l-1.7-11.6-.5-3.1 1-.7c.6-.3 1.8.1 2.6 1 1.5 1.5 2.1 4.6 1.8 8.8l-.2 1.9 4.5-1.2 2.2 2.1a7.4 7.4 0 0 1 2.3 4.6c0 1.3.7 3.6 1.5 5.2.8 1.5 1.1 3 .8 3.4-1 1-3.6.8-5.3-.3l-1.4-1v-4c0-2.2-.5-4-1-4-.6-.1-1.3 2-1.6 4.6l-.5 4.7-1.2.4c-.7.2-1.5-.2-1.7-1zm-29.4-1c-.7-.7-1.2-3.2-1.2-5.5s-.4-5.4-1-6.8l-1-2.6 3.3-1.3 1.4 1.9c.7 1 1.3 3.8 1.3 6.2v4.4l1.5 1.5c.8.8 1.3 2 1 2.4-.8 1.3-3.9 1.2-5.3-.3zm-121.7-5c-1.3-3-3-6.1-3.7-7l-1.2-1.8 1-1.1 1.2-1.2 2 .7c1.2.3 2.4 1.5 2.7 2.6.7 2.2 3.5 2.7 3.5.6 0-.8.8-2.1 1.9-3l1.8-1.7 2 .7c3.6 1.4 4 4.3.3 4.3-1 0-2.2.5-2.5 1-.4.7-1 3.3-1.3 5.8l-.7 4.7-4.5.7zm645 2.1c-.8-1.2 2-2.4 3.5-1.5.6.4.8 1.1.5 1.6-.8 1.2-3.2 1.2-4 0zm46.2-4.9a61 61 0 0 1-6.4-8.2l-1.6-2.6.6-1.7.7-1.7 2 1.1c1.1.6 3 2.7 4.3 4.6 1.2 1.9 2.5 3.4 3 3.4.3 0 1.1-1.7 1.7-3.9l1-4 3.1-2.5c1.7-1.4 3.7-2.6 4.5-2.6 2 0 5.6 3.9 4.9 5.1-.4.5-2.2.9-4.2.7l-3.5-.3-2 2.6-2 2.6v6.2c0 3.3-.2 6.3-.6 6.5-.4.2-2.9-2.2-5.5-5.3zm25.6 4.4-2.3-1.6-1.7 1-1.8.9-2.2-.8a5.2 5.2 0 0 1-2.8-2.8l-.6-2 1.6-3.1 1.6-3h2c1 0 2 .4 2 1 0 .7-.8 1.7-1.6 2.4l-1.6 1 .7 1.9c.4 1 1.2 1.6 1.8 1.4.6-.3 1.3-1.9 1.4-3.7l.3-3.2 2.2.3 2.1.3.7 3.4c.4 2 1.4 3.8 2.3 4.3l1.5.9-.5 1.5c-.3.8-1.1 1.4-1.8 1.4s-2.1-.7-3.3-1.5zm35-.7c-.4-.7-.8-3.5-.9-6.3l-.1-5 1.5-1.7c.8-1 2.3-1.8 3.2-1.8 1.7 0 4 1.9 4 3.2 0 .5-1.3.8-3 .8-3 0-4 1.3-2 2.5l1 .7-.6 2.3-.6 2.3 2.2.7c1.2.4 2 1.2 1.7 1.9-.2.6-1.5 1.3-3 1.4l-2.5.4zm-22.8-.7c-.3-.5.4-1.5 1.5-2 1.1-.6 2-1.7 2-2.4s-1-2.4-2-3.8a19.5 19.5 0 0 1-3-4.7l-1-2.3 1-2c.6-1 1.7-1.9 2.5-1.9h1.5v2.5c0 1.4 1 4 2 5.8s2 4.4 2 6v2.6l-2.2 1.6c-1.2.8-2.6 1.5-3 1.5s-1-.4-1.3-1zm8.9-.3c-.4-.6-.3-1.3.2-1.5.5-.1 1.6-.7 2.4-1.2l1.5-1-6.4-9 2.3-5.1 1.5.3c.9.1 1.7 1.2 1.7 2.2 0 1.1.9 3.7 1.7 5.6l1.6 3.7-2 7.2h-1.9c-1 0-2.2-.5-2.6-1.2zm-74-.4c.3-.4 1-.4 1.3 0s0 .6-.7.6-1-.3-.7-.6zm-365.8-8.3c-.4-.5.4-2.7 1.8-4.8 1.3-2 3.6-7.5 5-12 1.6-4.5 3.3-8.6 3.8-9l1.1-.6-.7 4.3c-.8 5.4-4 15-6.4 19.2-1 1.7-2.3 3.4-2.9 3.6-.6.2-1.4-.1-1.7-.7zm-181.6-9.1c-.6-1.2-.9-2.8-.6-3.6.3-.7 1.4-1.4 2.5-1.4 2.4 0 4.4 3.2 3.5 5.5-.3.8-1.4 1.5-2.5 1.5-1 0-2.3-1-3-2zm9.2-86.2-3.2-2-1.1-4.2-1.1-4.1 1.1-5.8 1.2-5.8-.7-8.2-.6-8.3 2-3.6a46 46 0 0 1 7.3-8.5c3-2.7 7.3-7 9.8-9.8l9.6-10c2.8-2.8 8.6-9 13-14 7.4-8.1 10.6-11 18.7-15.8 1.7-1 4.4-3.2 6.1-4.8 1.8-1.6 3.6-3 4-3 .6 0 4.2-2.8 8.1-6.4l7.2-6.4 3.7-1 3.8-1 2-2.6c1.2-1.5 4.6-4.4 7.7-6.5 5.6-3.9 18.2-16 18.2-17.6 0-.4-2-3.2-4.2-6-2.4-3-5-5.5-5.8-5.8-.8-.2-3.3.5-5.5 1.6-8 4-17.2 11-26.5 20.5-5.2 5.4-13.1 13-17.5 17a102 102 0 0 0-10.5 10.8 31.2 31.2 0 0 1-7 6.4 149.7 149.7 0 0 0-33.4 28.7c-8.6 12.7-15.7 21-27.1 31.5-2.1 1.9-6.5 2.6-6.5 1 0-.5 2-2.4 4.6-4.3a66.6 66.6 0 0 0 17.2-16.9 63 63 0 0 1 5.2-7.6l2.7-3 .7-4.4c.4-2.4 1.1-4.9 1.6-5.5a288 288 0 0 0 10.5-31.3c-.2-.2-1.6 1-3.2 2.8l-2.8 3.1-8.5 1.2v2.8c0 1.5-.8 5.2-1.9 8-1 3-3.8 11.7-6 19.4l-5.7 18.3-1.6 4.3h-1.4c-1.6 0-1.8-2.4-.4-5 .6-1.1 3.8-11 7.1-22.3 3.4-11.1 6.5-21 7-22l1-1.8h-1.1c-.7 0-3.6 1.6-6.6 3.6l-5.4 3.6v2.4c0 1.3-.6 4-1.4 6.2-.8 2-2 6-2.6 8.7-.6 2.8-2.3 9.2-3.8 14.3l-2.6 9.2h-1.3c-.6 0-1.4-.4-1.7-.8-.3-.5.5-4.3 1.8-8.3a573 573 0 0 0 5.7-19.2l3.2-11.8-5-5-1.7 6.8c-1 3.8-2.4 8.9-3.2 11.3-.8 2.5-1.4 6.1-1.4 8 0 2-.4 4-.9 4.6-.4.5-1.3 2.7-1.9 5-1.8 6.8-3.8 11.6-5.3 12.5-.8.5-1.7 1-2.1 1-1.6 0-.7-5 2.3-12.2a105 105 0 0 0 4.5-13.9 140 140 0 0 1 8-24.5l1.2-1-1-4.8c-1.1-4.8-2.8-6.4-2.8-2.6 0 1-.6 3-1.4 4.2a44 44 0 0 0-3.1 9.2 90 90 0 0 1-5 14c-1.9 4-3.9 8.3-4.4 9.9l-1 2.8-1-.7c-.6-.3-1-1.6-1-2.8a38 38 0 0 1 3.4-9.5c2-4 3.5-8.1 3.5-9s.4-2.2.8-2.7c.5-.5 1.6-3.4 2.5-6.5 5.3-18.2 6.9-23 9.2-27.5 1.5-2.7 3.5-7.5 4.5-10.5a1240.2 1240.2 0 0 1 12.2-34.3l2-5.7h3l-.7 3.2c-.4 1.8-1.5 5.3-2.5 7.8a1100.5 1100.5 0 0 0-19 52.6l5.4-5 5.4-5.2 2.5-5.4a324 324 0 0 0 12-31.7l2.6-8.2-1.4-3.4c-.7-1.9-2-3.8-2.7-4.4a24 24 0 0 0-4.4-2.2l-3.2-1.3-8 2.2-5.3 16.3A667.7 667.7 0 0 1 385 685c-.5.7-1.2 1.2-1.8 1.2s-.9-.5-.9-1.2c0-1.1 9.6-25.2 12-30.3.6-1.1 2.1-5.6 3.4-10l4.7-15.3 2.2-7.3-3.3-3.4c-1.9-2-3.7-3.5-4-3.5-.7 0-3 6.8-5.5 16-1 3.6-2.5 8.7-3.5 11.5-10.6 29.6-14.6 40-16.1 41.9l-1.8 2.1v-1.3c0-.7 2.4-7.7 5.5-15.5a362.6 362.6 0 0 0 16.4-49.5l2.9-8.7-1-.6a22 22 0 0 0-9.6-1.5c-.3.2-1.8 5-3.3 10.8-2.7 9.8-5.8 19.7-8.1 26.3a586.4 586.4 0 0 1-12.3 32.2c-.3.4-1 .2-1.7-.4l-1-1 2-4.4 4.6-11.4 4.5-11.5c2.4-5.8 7.2-21 10.5-33.3l2.7-9.8-1.4-1.7c-3.2-4.3-6.7-7.4-7.6-6.9-.5.4-1.2 2.6-1.6 4.9a134 134 0 0 1-2.7 11.3l-3.7 12.5c-.8 3-2.7 8.6-4.2 12.5a235.2 235.2 0 0 0-7.2 22 68 68 0 0 0-1.7 6.5c-.4 2-1.3 4.6-2 5.9l-1.3 2.3-1-1-1.2-1.2 2.8-7.7a162 162 0 0 0 3.7-11.3c.5-2 2.3-7.1 4-11.5 3.8-9.6 7-20 11-35.9l3.1-11.9-2-3.7a16.6 16.6 0 0 1-2.2-5.4c0-1.9-1.9-3.2-3-2-.5.5-3 7.6-5.4 15.9-2.5 8.2-6 18.6-7.7 23-1.7 4.4-5 15.2-7.5 24-2.4 8.7-4.8 16.3-5.4 16.9l-1 1-.6-1.7c-.3-1 .1-3.5 1-5.7.9-2.3 2.7-8 4-12.8a527 527 0 0 1 8.6-26.2 550 550 0 0 0 9-27.8l2.7-10.3-1.8-2a31 31 0 0 1-3.6-6c-1.9-4-4.1-5.8-4.7-3.7l-4.6 18.8a198.5 198.5 0 0 1-9.6 33.1c-.8 1.5-1.4 3.4-1.4 4.3 0 1.3-1 4-4.2 11.1-.5 1.1-1.4 4.2-2.1 7-.7 2.6-1.9 5-2.6 5.3l-1.4.5.6-3.6c.3-2 3.7-12.2 7.5-22.9 6.6-18.2 9-26.2 12.7-42.1.9-3.7 2.3-8.6 3-10.9l1.5-4.1-3.7-4.1c-2-2.3-4.3-4.5-5-5l-1.5-.9-.8.9c-.5.5-2.5 7.2-4.5 14.9a520.7 520.7 0 0 1-13 45 134 134 0 0 1-5.5 14.9l-1 1-.6-1.8-.6-1.6 3.3-8.3c1.7-4.5 4-10 5-12.2.9-2.2 2-5.8 2.4-8 .6-3.6 7.6-29.2 11-40.5l1.4-4.5-1.9-2a27 27 0 0 0-5-3.9l-3-1.8-1 2.8c-.7 1.6-2 6.2-3 10.4-4 14.9-4.7 17.4-11.8 40.5l-4 13-3.5.7.8-1.9a379.5 379.5 0 0 0 13.5-43.8c2.1-8.3 4.4-16.6 5-18.5l1-3.4-1.7-2-1.7-1.8-3.6.7c-1.9.3-4 1-4.7 1.6-1.4 1.2-2.8 5.4-7.8 23.9a702.7 702.7 0 0 1-10.7 36c-.8 2.4-2 4.5-2.6 4.7l-1.2.4v-1.9c0-1 1.5-6.2 3.4-11.3 1.9-5.2 5.3-16 7.6-24 2.2-8 5-17.3 6-20.7l1.8-6.3H308c-1.2 0-4.4.7-7 1.4l-5 1.2-4.7 15.3c-2.6 8.4-5.3 16.5-6 18s-2 5.8-3 9.7l-1.7 7h-1.4c-.8 0-1.4-.5-1.4-1 .1-2 2.7-10 5-15.5 1.3-3 3.3-9.1 4.6-13.5 1.2-4.4 3-10.7 4.2-14l2-6-1.3-.4a13 13 0 0 1-3.6-3l-2.3-2.4-1 2.4a116 116 0 0 0-2.6 8.8 210.9 210.9 0 0 1-9.9 30.6c-3 4.1-2.7.2.7-9.3 3.7-10 6.2-18 9.3-29l1.7-6.4-5.1-5.1-1.6.6c-.8.3-1.8 1.8-2.1 3.3a190 190 0 0 1-4.4 16.3l-3.6 11.6c-1 3.3-2.1 6.3-2.4 6.7-.3.4-1.2.3-2-.2l-1.3-.8 1.5-2.9c.8-1.5 2.2-5.3 3.1-8.3s2.2-6.5 2.6-7.6c1.2-2.6 4-12.5 4-14 0-1.4-4.3-2.5-5.7-1.6a16 16 0 0 0-2.3 5.4c-.7 2.6-1.7 5-2.3 5.4l-1 .7.8-4c.4-2.1.8-5 .9-6.4l.1-2.5-5.2-.6-1.6 5.2a32 32 0 0 0-1.7 6.8c0 1-.8 4.3-1.9 7.5l-1.8 5.9-3.6 2 .6-2.4 3-10.4c1.4-4.4 2.8-9.4 3.2-11.2l.7-3.3h-1c-.6 0-2 1.6-3 3.5l-2 3.5-5 1.2-4.2 14.9h-2.8l1-4c.6-2.3.8-4.4.6-4.6-.3-.3-2.4.4-4.7 1.6l-4 2.1-3.3-1.9c-1.8-1-3-2.3-2.8-2.8.3-.5 1.9-1 3.5-1h3l5.4-3.8c3-2 6-3.7 6.6-3.7s2.5-1.4 3.9-3.2l4.2-5.1 1.6-1.9 5.7.7c7 1 16.3 1 21.8 0l4.2-.7 1.5 2.9a40 40 0 0 0 5 6.6l3.5 3.7 2.8-.3 14-2.2 11.2-1.8 4.3 1.9a30 30 0 0 1 6.4 3.6c1.1 1 2.5 1.8 3.1 1.8s1.6.7 2.4 1.6a14 14 0 0 0 4.3 3c1.7.7 5.8 4 9.2 7.2l6 6 2.7 5.4c1.5 3 3.8 6.6 5.3 8 1.4 1.3 4 5 5.6 8.4a24 24 0 0 0 4 6.3c.6.3 3.1 2.5 5.7 5.1s6 5.5 7.8 6.4a14 14 0 0 0 5.6 1.7h2.5l10 10.4 2.7-1.2c1.4-.7 4-1.2 5.6-1.2s4.7.9 6.9 2l3.8 2 2.4 4.2 2.4 4.3 9.3-.6 2.3 4.3-.5 3.2c-1 6.3-2 9.2-4.4 12.9a15 15 0 0 1-4.8 4.9c-1.4.6-2.5 1.5-2.5 2 0 .4-2.7 3.4-6 6.6l-5.8 6-3.6 7c-2 4-4 7.2-4.5 7.2s-2.3 1.3-4 3l-3 2.8v3.7c0 2 .6 5.1 1.4 7l1.4 3.5h1.6c.9 0 4.2-1.8 7.4-4l5.9-4.2 9.7-1 7-6.6c3.9-3.6 9-7.4 11.4-8.4 2.4-1.1 7.8-5 12-8.6 4.2-3.6 8.4-7.5 9.4-8.6 1-1 4.5-5.4 7.8-9.7l6.1-7.8 2.2-.5a14 14 0 0 0 5-3.3 57 57 0 0 0 9-18.3l1.4-3.6-1.5-3.6-1.4-3.7-10.5.1-3.2-1.6c-1.7-1-3.6-2.5-4.2-3.6-.5-1-1-3.2-1-4.8v-2.8l2.5-3.4a14 14 0 0 0 2.5-4.5c0-.7-1.3-2.5-3-4-1.6-1.6-3-3.3-3-3.7 0-1.6 2.5-.8 5 1.7l2.8 2.6 2.2-3 2.1-3.1-2-7-2-7.1 2.5-4.7 2.4-4.8-1-5.9-1.2-6 2.6-20 5.4-5.6.7-6.2.7-6.3 3.5-7.2 3.5-7.3 2.1-1.2a23 23 0 0 0 5-4c1.6-1.5 3.3-2.8 3.9-2.8 1.2 0 7.3-4.4 12.2-9 2-1.9 4.9-5.2 6.2-7.2 1.4-2.1 2.8-3.8 3.2-3.8.4 0 1.4.5 2.2 1l1.5 1-1.3 3.2c-2 4.9-8.1 25-10.8 35.3A3009.6 3009.6 0 0 1 498.2 604v1.3l1.5-.6c.8-.3 2.7.2 4.1 1.1s2.7 1.6 2.9 1.4a1049.6 1049.6 0 0 0 22.5-73.4c2.9-10.4 6.7-24 8.6-30a171 171 0 0 0 4.4-16.3c.5-3 1.2-5.8 1.6-6.3s1-.7 1.4-.4c1.3.8 0 8-3.2 18.5l-4.9 16c-2.3 7.6-4.4 15-8.8 31.5a762 762 0 0 1-14 45.7c-2.8 8.6-5 16.5-5 17.6s.8 3.1 1.8 4.4l1.9 2.3 1.4-3c.9-1.6 2.3-5.6 3.3-9 1-3.2 2.2-6.4 2.5-7 .4-.5 2-5.2 3.5-10.4a1251.5 1251.5 0 0 0 27-83l6.1-19.8a168 168 0 0 0 6.6-27.7c.2-1.6 1-3.4 2-4l1.8-1 .9 1 1 .9-3.4 11.5c-1.8 6.3-5 17-7.3 23.5-2.2 6.6-5 15.6-6.2 20-1.3 4.4-2.7 8.5-3.2 9s-.8 1.8-.8 2.9a671 671 0 0 1-17 53.2 993 993 0 0 0-10 29 568.6 568.6 0 0 1-12 33.3c0 .2.7.1 1.5-.2l1.5-.5v2c0 1-1.5 3.6-3.4 5.6a27.8 27.8 0 0 0-6.6 13v1.3l5.3-4c2.8-2.2 5.8-4 6.5-4h1.2v-2.8c0-1.5 6-20 13.1-41.2a4903.7 4903.7 0 0 0 22.8-68c2.5-7.4 16.4-50.2 19.3-59.8.5-1.8 1.3-3.5 1.8-3.8 2.5-1.5 1.6 3-3.3 17.8l-16.7 50.2a2821.3 2821.3 0 0 1-22 65 182 182 0 0 1-3.5 10.8l-.7 1.8h1.5c.9 0 1.9-.5 2.2-1 .4-.6 2.2-1.9 4.2-2.9l3.6-1.8 4.3-13c4-11.9 9-26.2 14.4-40.8a374.4 374.4 0 0 1 9-27.5 912.8 912.8 0 0 0 15-45.8l1-4.3h1.5c.9 0 1.5.3 1.5.6 0 1-6 19.3-13.7 42a1503 1503 0 0 0-8.3 25c-1 3.3-3.7 11.1-6 17.5l-6.5 18.6a392.1 392.1 0 0 0-13.1 39.4c-1.5 4.7-3.1 9-3.6 9.7-.6.7-1.4 1-1.9.7-.5-.3.5-4 2-8.5l3-8h-1c-.6 0-2 1.3-3.2 2.7a15.9 15.9 0 0 1-5.4 4c-1.8.8-3.3 2-3.3 2.7 0 .6 1.7 3.1 3.8 5.5l3.7 4.3 11-3.8 1.8-4.9 2.7-8c.5-1.6 1.8-5.4 3-8.4 1-3 2-6 2-6.8 0-.7-.9-1.2-2-1.2h-2v-3.9l8-6.6 2.6-7 5.4-15.5a1205 1205 0 0 1 7-20c6.1-17 15-43.6 17-51l1.6-6.4 2.7-1-.6 3.8a266 266 0 0 1-9.6 31.5c-3 8-3.7 10-10.6 30-2.4 7-6 16.5-8 21.4l-3.5 8.8.6 2.5.6 2.5-1.7 2a225.5 225.5 0 0 0-12.4 34.7v1.2h7.5l1.9-4.2a634 634 0 0 0 9.6-27.8c4.2-13 8.2-24.9 8.8-26.5 1.6-4.1 15-43.9 16.8-49.8l1.5-4.8h1.4c.8 0 1.4.4 1.4.8s-1.3 4.6-3 9.2l-7.4 21.6c-2.4 7.1-5.3 15.3-6.5 18.2l-2 5.2 1 .6c.6.4 2.7-.5 4.8-2a16 16 0 0 1 5-2.5c.6 0 1.1.6 1.1 1.4 0 2-9 9.3-12 9.7l-2.4.4-2.2 6.5a461.4 461.4 0 0 1-13 39c-.6 2-1 3.8-.7 4.2.6 1 10.5 1 12 0 .7-.4 1.7-2 2.3-3.7 2.7-7 8.4-22.9 12.5-35a518 518 0 0 1 14-37c3.3-7.6 11.7-33.2 13-39.8l.6-2.8h1.5c.8 0 1.7.7 2 1.5.4.8-1.2 6.1-3.4 11.8-4.8 12.3-9.3 26-8.9 26.4.2.2 3.1-.9 6.5-2.4l6-2.7 1.2-4.5c.6-2.5 1.5-5 2-5.5.4-.6 1-2.7 1.4-4.8l.7-3.8h1.5c.8 0 1.4.5 1.4 1.1 0 1.3-9 29.3-12 38-3.1 8.2-15.7 44.4-18.7 53.3-1.4 4.2-2.3 8-2 8.3.4.4 2.6.3 5 0l4.4-.7 2-5.2c1.2-2.9 3.8-10 5.8-15.7 2-5.8 5.7-16 8.2-22.5l8.4-23c2.1-6 4.3-11.2 4.9-11.4.5-.2 1 .3 1 1 0 2.4-3.6 13-10 29.4-6.7 17-16 43.1-16.3 45.3l-.2 1.4 7.7 3 1.4-1.3c.7-.8 2.7-5.5 4.4-10.4 4.9-14.1 11-30.8 12-33a163 163 0 0 0 4.5-12.5 1029.3 1029.3 0 0 1 8.6-26l1.4-4.5 3.8-.8-.6 1.9-3.6 10.4c-1.6 4.7-4.3 12-5.7 16.5-1.3 4.4-3.4 10.2-4.5 13-6.1 15-15.9 43.1-15.9 45.7v1.5l3.1.7 4 .6c.5 0 1.6-1.6 2.4-3.6l1.5-3.7-1-1.3-1.2-1.4.6-2.3a6.5 6.5 0 0 1 2.8-3.6l2.3-1.2 3.4-9.7 5.1-15.7 6.5-19.5c2.6-7.5 5-15.6 5.4-18l.6-4.6 4.5-.6v1.4a209.8 209.8 0 0 0-6.7 18.5c-5.9 17-6.2 17.9-11.8 35.7l-3.8 12 1.2.4c1.8.6 1.3 3-1 4.2-2.1 1.2-5.9 8.8-5.9 12 0 1.9 1.9 3 5.1 3h2l2-4.8a134 134 0 0 0 3.6-9.2c2.4-7.4 11.8-33.3 13.3-36.5.5-1.1 2.3-6.8 4-12.5 3.3-11.2 6.9-21 8.2-22.5l.8-1v2.8c0 1.5-1.1 5.4-2.5 8.8-1.3 3.4-4.3 12.2-6.6 19.7-2.2 7.5-4.5 14.2-5 14.9-.6.6-4 9.6-7.5 20l-6.7 19.8c0 .5 1.5 1.1 3.5 1.3l3.7.3 1.6-3c.9-1.7 3-7.5 5-12.9a448 448 0 0 1 4-11.5l.7-1.7H657c-1.4 0-2.8-.5-3.2-1-1-1.7 1.4-4.8 4.8-6l3.2-1 4.2-12.8a859.2 859.2 0 0 0 8.3-25.7c.4-1.1 1.6-4.6 2.5-7.8 1-3.2 2-6 2.5-6.3 2.2-1.3 1.7 2.2-1.9 12.7a585 585 0 0 0-5.6 17.4 175 175 0 0 1-3.8 11c-1 2.7-2 7-2.1 9.4l-.2 4.3-1.6 1.2c-1 .7-2 2.5-2.4 4.1a15 15 0 0 1-1.4 4 32 32 0 0 0-2 6.4c-.7 3-2.3 8-3.6 11.2a42.2 42.2 0 0 0-2.4 7v1l10.5-1.2 1.3-1.6c.6-1 2.1-4.2 3.2-7.3l3-7.5c.5-1.1 2.5-7 4.5-13.3l3.5-11.3-.6-2.5-.6-2.5 2.5-3.2a160 160 0 0 0 11.7-31.7c0-1 .7-2.5 1.4-3.6l1.5-2 .6 1.8.7 1.7-5.2 14.5c-2.8 8-4.9 15-4.5 15.5.3.6 1.3 1 2 1h1.5v3.7l-7 2.5-4.5 14.7a1546 1546 0 0 1-9.2 29.1l-.6 2.4 1.7-.6c1-.4 3-.7 4.7-.7h3v-2a9 9 0 0 1 .9-3.8c1.7-3 5-12.2 10.6-30.2a2929.3 2929.3 0 0 0 9-28.5l3.2-9.3c.8-2.3 2-4.2 2.5-4.2h1l-.6 2.7c-.2 1.5-1.8 6.6-3.4 11.3a844 844 0 0 0-8.7 26c-3 9.6-7 21.7-8.7 26.8a38.4 38.4 0 0 0-2.6 9.9c.4.3 2.7-.8 5.1-2.3l4.6-2.9 1.9-4.5c2.8-6.7 9.8-29 14.5-46l1.5-5.5-1.4-.8c-.8-.5-1.5-1.4-1.5-2.1 0-.7 1.6-2.8 3.5-4.6 2-2 3.5-4 3.5-4.7s.3-1.3.8-1.3c.4 0 2 1.3 3.5 2.8l2.7 2.8-7.8 6.3-.7 3.3c-.8 4-2.3 9-4.3 14.3-.8 2.2-3 9.1-4.7 15.5l-4.8 16.2-1.5 4.8h4.4l3.3 3.4 3.3 3.3-.4 2.8c-.1 1.6-.9 3-1.5 3.2l-1.3.5V636c0-2.7-2.2-6.6-4.2-7.2l-1.8-.6-6.2 4.1c-3.5 2.3-8 4.6-10.1 5.2s-11.4 1.4-20.5 1.8l-16.7.7-3-.9c-1.6-.4-6-1-9.5-1.3-3.6-.3-7.6-.9-9-1.3a20 20 0 0 0-14.5 2.7 10 10 0 0 1-4.6 2.2h-1.9v-1.6c0-2.4 2-5.4 3.5-5.4.9 0 1.5-.5 1.5-1.1V632l-4.2 1c-2.4.4-8.8.7-14.4.5l-10-.3-3 1.2a70 70 0 0 1-14.4 1.4l-11.5.3-7.5 2.4c-4.1 1.3-7.5 2.9-7.5 3.5 0 .6 2.2 3.6 5 6.6l4.8 5.6 4-2.1 7.6.6a70.5 70.5 0 0 1 19 4.2l1.3.4-.6 1.8-.6 1.9 2.6 5.7 2.6 5.7-1.2 8.4-3.5 3.9-3.6 3.8 1.2 3.7-1.1.7c-.7.3-2.2 0-3.5-.6l-2.4-1.3-8.3 5a259.5 259.5 0 0 0-21 13.8c-2 1.4-5.6 4.9-8 7.9a53 53 0 0 1-18.8 14.3 78.7 78.7 0 0 0-18.5 13.1c-3.3 3-8.3 7-11.2 8.9-3 2-7.5 5.8-10 8.6-2.7 2.8-6.1 6.3-7.7 7.7-6.2 5.4-11.6 11.6-11.6 13.2 0 2-2.8 3.9-6 3.9h-2l.2 1.2c0 .7-.1 3.8-.6 7l-.7 5.7-3.7 2.9c-2 1.6-5.3 3.1-7.3 3.4l-3.5.6zm11.1-5.8 3.5-3 .4-5.6.5-5.6 6.5-6.6a400.7 400.7 0 0 1 30.3-28c2.8-1.9 6.8-5 9-7 7.5-6.9 16-13 20-14.3 2.2-.8 5.8-2.8 8-4.5 2.2-1.7 4.8-3.4 5.7-3.7.9-.4 3.5-3.1 5.7-6.1a43 43 0 0 1 7.3-7.8l5.8-4.5a74.7 74.7 0 0 1 21.8-13.1l4.4-2.6-.6-1.8-1.2-3.9-.6-2h1.4c.8 0 2.3 1 3.3 2s2.5 2 3.4 2h1.6l5.8-9-1.9-4.3a62 62 0 0 0-3.1-6.3 21 21 0 0 0-5-4.7l-3.8-2.5-16.1-1-11.2 11c-6.1 6-11.7 10.8-12.3 10.8s-3.6 2.3-6.5 5-6 5-7 5c-2 0-5.4 2.5-11.4 8a70.8 70.8 0 0 1-8.2 6.6c-2 1.3-4 2.8-4.3 3.4-.3.5-3.7 3-7.6 5.5a83.5 83.5 0 0 0-13.2 11.3 775 775 0 0 1-13.5 14.2 230 230 0 0 0-10.5 11.4 270 270 0 0 1-11 12l-7.8 8 .7 2.6c.4 1.4.8 8.5.9 15.7v13l1.4 1.7c.7 1 2.4 1.7 3.7 1.7h2.3l3.4-3zm115.2-132.6c-2.1-3-3.5-5.8-3.1-6.2 1.2-1.2 6 2.5 8.3 6.4 1.1 2.1 2 4.2 1.7 4.6-1.2 1.8-3.4.3-7-4.8zm-103.2 38.9a299 299 0 0 0 10-26.6c.4-1.5.5-2.8.3-2.8-.6 0-6.8 3.4-10 5.6-2.3 1.5-3 2.5-6.4 11-1.9 4.7-6.4 19.5-7.8 26l-.7 3 6.6-6.7c3.6-3.6 7.2-8 8-9.5zm13.8-8.5 8.2-6.2-1.8-1.3-1.9-1.4 2.2-3.9a18 18 0 0 0 2.2-5.2c0-.8 2-6 4.5-11.7a122 122 0 0 0 4.5-11.3c0-.4-2.7 2-6 5.4a46.5 46.5 0 0 0-14 21.7 566.7 566.7 0 0 1-7 19.7c0 .2.2.3.5.3s4.1-2.7 8.6-6.1zm23.2-22.2 1.7-2-1-1-.9-1.2 4-8.8-1-1c-.6-.6-1-1.9-1-2.8v-1.8l2.6-1.3 2.6-1.3 2-5.9c1-3.2 1.6-6 1.3-6.4-.3-.3-1.4.2-2.3 1a13 13 0 0 1-3.4 2c-.9.4-3 2.4-4.8 4.6l-3.1 4 1 .7.9.6-1.9 5.2c-1 2.9-3.2 8.5-5 12.6-1.6 4-3 7.9-3 8.5s-1 3-2.1 5.1l-2.1 4 6.8-6.4a227 227 0 0 0 8.7-8.4zm8.7-8 4.5-4.4 2.8-8.5c1.5-4.6 2.7-9.3 2.7-10.4s1.3-4.5 3-7.5c1.5-3 3.6-8 4.6-11.1l1.8-5.8-1.9-2c-1-1.1-2.1-2-2.5-2-.4 0-1.3 1.9-2 4.2-.7 2.4-2.1 5.9-3 7.8a47 47 0 0 0-2.9 8.8c-.6 2.9-2 7-3 9.2-1.2 2.2-2 5.4-2 7.2v3.2l-2 2c-2 2.3-6.4 13.6-5.3 13.6.4 0 2.7-2 5.2-4.4zM429 651.5c5.6-5.9 9.3-12.5 9.3-16.8v-2.4l-4-1.3-4.5 3-3 9.3a74.7 74.7 0 0 1-3.7 10.4c-.9 1-1 3.5-.2 3.5.3 0 3-2.6 6-5.7zm94-8.3c1.9-1 3.3-2.7 3.3-3.5 0-2.5-1.9-5.5-3.4-5.5h-1.4l-1.6 4.7c-.9 2.6-1.6 5-1.6 5.5s.4.8.8.8 2.2-.9 4-2zm60.5-14.5 4.7-.6 2-5.4 5.5-15.7a4137 4137 0 0 1 18.1-52l.7-1.8h-1c-.5 0-3 1.5-5.5 3.5a19.3 19.3 0 0 1-6 3.5h-1.5l-2.6 5.6a64 64 0 0 0-3.2 8.3 383.2 383.2 0 0 0-10 27 254 254 0 0 0-9.4 28.3c0 .5.8.7 1.8.4 1-.2 3.8-.7 6.4-1zm-88.1-25.2 1-2.7-2.3-1.8a9.8 9.8 0 0 0-3-1.8c-.5 0-1.3 1.1-1.8 2.5s-1.4 2.5-2 2.5H486l.6-2.3 1.2-4.5.6-2.2h-1c-.5 0-1.7 1.2-2.7 2.6l-1.8 2.7 1 2.6c1 2.8 4.5 5 8 5h2.4l1-2.6zm8.1-23.8a1613 1613 0 0 1 16.1-49 261.3 261.3 0 0 0 6.8-22 2139.9 2139.9 0 0 0 9.7-33.4c.3-.9-1.7.3-4.6 2.7l-5.1 4.4-1.6 5.6c-.8 3.1-3.2 11-5.2 17.6-2 6.6-4.9 17-6.5 23-1.6 6.1-4 13.5-5.5 16.5a104 104 0 0 0-4.9 13c-7 24-9.5 32.4-9.9 33-.2.5.5 1.6 1.5 2.6 1.1 1 2 2.7 2.1 3.9v2l1.6-3.4c.8-2 3.3-9.4 5.5-16.5zm-11.7 6.4c1-3 0-3.4-1.3-.4l-1.1 2.5h.9c.5 0 1.2-1 1.5-2.1zm4.7-15.7a183 183 0 0 1 8-24.8c1-1.7 2.9-7.3 4.3-12.5 1.5-5.2 4-13.7 5.7-19 3.8-11.6 7.9-27.3 7.3-27.8-.2-.2-1-.2-1.9.1-2 .8-5.3 8.5-7.7 17.7a366 366 0 0 1-11.7 35.2 92.9 92.9 0 0 0-5 16.7c-.6 3.3-1.7 7.2-2.4 8.7l-1.4 2.6 1 4.4c.6 2.5 1.3 4.5 1.6 4.5.3 0 1.3-2.6 2.2-5.8zm2.1-33.5c2-5.6 4.4-13 5.3-16.2 1-3.3 2.1-6.7 2.6-7.6.5-.8 2-5 3.2-9.5l3-9.7.8-1.8H512c-.8 0-2 .7-2.7 1.6a52.5 52.5 0 0 0-6.5 17.4c-1 7-2.3 10.5-5 13l-2.3 2.2-.6 6.7-1.2 10.4-.6 3.8h1c.5 0 2.6-4.7 4.5-10.3zm606.2 247c-.8-2-1.5-4.2-1.5-5 0-.7.7-2 1.5-2.6l1.5-1.3 1.6 1.3 1.5 1.3-.3 4.5-.3 4.5-1.2.4-1.3.5zm-14.8-1.3c-.4-.4-.7-1.5-.7-2.5v-1.8l2.9.6 2.9.6.6-1 .6-1-8.5-4.8-.6-5.3 2.5-1.7c2.6-1.6 5.6-1.4 5.6.5 0 .5-1 1.2-2 1.6-1.2.3-2 1-1.8 1.5.2.5 1.9 2 3.8 3.2l3.5 2.3.3 2.2a8 8 0 0 1-.8 4.2l-1 2h-3.4c-1.8 0-3.6-.2-4-.6zm-18-3c-.4-.4-.7-1.3-.7-2v-1.3h3c1.7 0 3-.5 3-1s-1.1-1.5-2.5-2c-1.4-.6-2.8-1.7-3.1-2.6-.4-.8-.2-2.6.5-4l1-2.4 5.3-1.3.9 1.3c.4.8.6 1.7.3 2.2-.3.4-1.4.8-2.4.8-1.1 0-2 .5-2 1.2s1.4 2 3 3l3 1.7v5.1l-2.5 1c-3 1.1-5.9 1.3-6.8.3zm-14-2.6c-.6-1.4-1.5-2.5-2-2.5s-1.2.9-1.5 2c-.3 1-1.1 2-1.9 2s-1.4-.4-1.3-.8c0-.4.6-3.4 1.4-6.6.8-3.3 2-6.6 2.9-7.4s2.1-1.2 3-1l1.5.7.6 4.8 1.1 8 .5 3.3h-1.6c-.8 0-2-1.1-2.7-2.5zm-23.1.8c-.4-.3-.7-3.7-.7-7.4v-6.8l1.1-.7c.6-.4 1.5 0 2 .7s.8 4.3.7 7.8l-.3 6.4-1 .4a2 2 0 0 1-1.8-.4zm4.3-10.4c0-.5 1.1-1.5 2.4-2l2.5-1.2-.6-1.4c-.3-.8-1.7-2-3-2.4l-2.6-1 1-1c.6-.6 2.1-1 3.4-.8l2.3.4 1.5 2.6 1.5 2.7-2.3 5.2h-3c-1.7 0-3-.5-3-1zm-87.7-10.7c-.7-.2-1.3-1.5-1.3-2.8v-2.4l2.5-.6c1.4-.4 3.2-.4 4 0 .8.2 1.5 1.2 1.5 2 0 1.7-4.9 4.5-6.7 3.8zm157.9-4.2c-1.9-.5-3.7-1.2-4.2-1.7-.4-.5-.5-4-.1-7.8l.6-7h4v11.5h1.7c.9 0 2.4.2 3.2.6l1.6.6v4.8l-1.7-.1c-1-.1-3.3-.5-5.1-1zm-22.1-3.5a17 17 0 0 1-1.6-6.7l-.4-5.3 1.5-2.4 1.5-2.3 7.4.7.4 2.3.3 2.4-2-.5c-3.2-.8-3.7 1.1-.7 2.2 1.4.6 2.5 1.7 2.5 2.5v1.6h-3c-1.6 0-3 .4-3 1 0 .5.9 1 2 1 2.8 0 5 1 5 2.5 0 1.3-3 2.4-6.6 2.4-1.2 0-2.7-.6-3.3-1.4zm-17-1.5v-2h2c2.4 0 2.6-2 .2-2a7 7 0 0 1-3.6-1.5l-1.8-1.4.3-2.3.3-2.3 2.7-1.5 2.7-1.5 1.3 1.3 1.3 1.3-4.7 3.2 3.4 1.6 3.3 1.6.3 2.1.3 2.2-2.2 1.6c-1.3.8-3.1 1.6-4.1 1.6h-1.8zm-77 .1-2.6-.7-1.3-2.8-1.4-2.8.7-3.4c.3-2 1.6-4.4 2.8-5.5 1.1-1 3.3-2 4.8-2s3.2.7 4 1.6l1.2 1.5-1.2 1.4-1.3 1.5-5.8-1.2v2.4c0 1.3.7 3.4 1.6 4.6l1.5 2.3h6l-.3-1.3c-.3-.7-2-1.5-3.8-1.7-1.8-.3-3.5-1.1-3.8-1.8l-.4-1.4 10.7.7.3 3 .3 3.1-1.4 1.2c-2 1.6-7.5 2.3-10.7 1.3zm-29.8-.9c-1.5-.5-1.7-2.9-.2-3.8 1-.6 4 1.2 4 2.6 0 1-2.3 1.8-3.8 1.2zm95.4 0c-.4-.3-.7-2.5-.7-5v-4.2h-1a1 1 0 0 0-1 1v1.1l-8-1.3v1.4c0 .7.6 1.9 1.2 2.6l1.2 1.2-1.1 1c-.6.7-1.8 1-2.6.7-1.6-.7-4.2-9-3.2-10.7.8-1.3 5-1.4 7.5 0l1.8.9 6-2.3 1.6 1.3 1.6 1.3v4.3c0 6.2-1.3 8.8-3.3 6.8zm-33.9-3-.3-2.7-2.2-.4c-1.3-.1-2.3-.7-2.3-1.3 0-.5.4-1.8 1-2.7l.9-1.8-.8-1.3c-1.5-2.3-3 0-3 4.4v4.3l-1.5 1.2c-.8.7-2 1-2.5.6-.6-.4-1-3-1-6v-5.2l2.2-2.2a8 8 0 0 1 4.5-2.1 6 6 0 0 1 3.6 1.5c1 .9 1.6 2.6 1.6 3.9 0 1.3.7 2.9 1.5 3.6l1.5 1.2v7.8h-2.8zm11.2-4.2v-6h4v4.4a24 24 0 0 1-.6 6c-.3.8-1.2 1.6-2 1.6h-1.4zm-66.5 2.9c-.4-.6-.2-1.6.3-2.1 1.3-1.3 3.2-.2 3.2 1.7 0 1.7-2.6 2-3.5.4zM752.6 737c-.3-.9 0-2.2.6-3 1.4-1.7 4.6-2 5.4-.7.5.8-1.5 3-4.1 4.6l-1.3.7zm14.6-12.6c0-1.1.7-2.3 1.5-2.6.9-.3 2.2 0 3 .7l1.5 1.2-1.1 1.4c-.6.7-2 1.3-3 1.3h-1.9zm52.4-43.4a5 5 0 0 1 0-3.1l.6-1.6 2.3.3 2.2.3v5l-4.5.7zm14-10.2c-.7-1.7 1-6.4 2.4-6.4.5 0 1.7.7 2.8 1.5l2 1.4-1.1 1.7c-.6 1-2 2.1-3.3 2.6l-2.3.8zm-395.4-1.2c0-1 .8-2.6 1.8-3.4 1-1 4.2-2 7.2-2.6l5.4-1 1.9-2.6 1.9-2.6 3.9-.6 4-.6v-2.9c0-1.5.3-3 .8-3.3 1.3-.8 4.1-10.6 4.1-14.1 0-1.5 1-4.3 2-6.1l2.2-3.4-2.6-4.2a60 60 0 0 1-7.6-16.9v-2l-12.3-7.8-4.4 1.7-3.5-.7c-1.9-.5-4.6-1.6-6.1-2.6l-2.7-1.8-3.2 1.4a27 27 0 0 1-8.2 1.3h-5l-7-2.6a87.6 87.6 0 0 0-14.3-3.8c-4-.7-7.3-1.6-7.3-2.1s-.6-1-1.3-1c-.7 0-2.9-1.3-4.9-3l-3.6-3-1.4-6.4-9.2-9a260 260 0 0 1-12.6-13.2 75 75 0 0 1-7.1-11l-3.6-6.8-3-2c-1.7-1.2-4-4-5.3-6.2l-2.2-4.2-3.8-2.5-3.7-2.5-.7-2.8a14 14 0 0 0-3-5.2c-1.1-1.3-3.5-3-5.3-3.7a21 21 0 0 1-6-4c-1.5-1.3-3.5-2.7-4.3-3s-2.5-2-3.9-4a27 27 0 0 0-6.6-6.2l-4.4-2.7-3.1-7 1-5a63 63 0 0 1 3.4-11c1.4-3.4 2.6-7.5 2.6-9.2 0-1.7.9-4.2 2-5.6 1-1.4 2.4-4.4 2.9-6.6.5-2.2 1.7-5.1 2.7-6.4l9.5-11.2c2-2.3 4.4-5.6 5.3-7.4 1-1.7 1.7-5.1 1.8-7.5l.2-4.2-2-4-1.9-4-7.6-5-3.6-7.2c-2-4-4-7.3-4.4-7.3s-2-1.7-3.3-3.8l-2.6-3.7v-9.5l-1.2.5c-.7.2-1.8.1-2.3-.3a92 92 0 0 1-10.5-14.9 42 42 0 0 0-6.3-7.4c-6.5-7-12-14-11.2-14.8.3-.2 1.5-.5 2.7-.6h2.3l-.2-4.3a14 14 0 0 0-1.6-6.4 25 25 0 0 1-2.6-6.5c-.6-2.2-2-5.1-3.2-6.5l-5-5.8c-1.5-2-3.1-3.1-3.5-2.8-.4.4.3 1.8 1.5 3.1l2.2 2.4-3 7.2h-4l-1.5 2.8c-.8 1.5-3 4.2-5 6.1l-3.4 3.4-1.1-.7c-.6-.4-1-1.8-1-3v-2.5l2.2-1.2a10 10 0 0 0 3-2.3c1-1.6.9-5.4-.3-6-.5-.4-2 0-3.2.9-1.2.8-3 1.5-4 1.5s-2.1-.7-2.5-1.6l-.6-1.6 2.4-1.9a9 9 0 0 1 4-1.9c1 0 3.4-1.5 5.6-3.5 2-1.9 4.6-3.7 5.6-4 1-.3 1.7-1.1 1.7-1.8 0-.6-2.5-2.9-5.5-5a32.2 32.2 0 0 1-10.5-11.2 56 56 0 0 1-4.5-7c-1.5-2.7-3.8-6.4-5-8.1s-4-4.2-5.9-5.3a36.2 36.2 0 0 1-7.4-7.4 163 163 0 0 0-21.8-22.5c-1.8-1.2-3.7-2.2-4.4-2.2s.2 1.6 2 3.5c1.6 2 3 4 3 4.6s-.8.9-1.8.7-4.4-3.2-7.5-6.7l-5.7-6.4v-5.7l-3.2-5c-1.8-2.7-4-5-4.8-5-.9 0-4.3-2.6-7.8-5.6l-6.2-5.7v-4.7h3.8l4.4 6.5c2.4 3.5 4.9 6.5 5.5 6.5h1.2l-1.5-3.8a32 32 0 0 0-3.5-6.1 10 10 0 0 1-1.9-5.2v-2.8l2-.6c1.1-.4 2.5-.4 3 0 .7.4 1 1.5.7 2.5a5 5 0 0 0 .9 3.7c.7 1 2.1 4.2 3 7.2a60.7 60.7 0 0 0 11.4 19l3.4 4.2 4.6 2a38.9 38.9 0 0 1 14 12.1c0 .5 1.5 2.3 3.3 4.2a48 48 0 0 1 5 6l1.8 2.5 9.2-4.9h7l5.6 4 1 3.8c.6 2 1.1 4.5 1.1 5.4 0 1-1.6 3.6-3.6 5.8l-3.6 4 .6 1.3 2.4 3.8c6.8 10.2 9 13 10.7 13.7 3.8 1.8 8.6 6.4 10.6 10.3 1 2.1 3.9 6 6.2 8.7s5 6.4 5.6 8.3l3.8 8.9 2.5 5.4-.6 3a259 259 0 0 0-1.2 6.2l-.5 3 5.6 5c6 5.4 13 12.3 17 16.7 1.3 1.5 3.2 4.1 4.2 5.7l1.7 3-2.1 6.9 1.5 3c.8 1.8 1.9 3.2 2.3 3.2s1-1 1-2c0-1.1.3-2 .8-2s3.1 2.7 5.8 6c2.6 3.4 6.7 8.3 9 10.8 2.4 2.6 4.3 5.3 4.3 6 0 .7-.9 1.6-2 2l-2 .8 4.9 4.6-.6 1.4-.5 1.3 2.4 1a48.4 48.4 0 0 0 15.3 2.1c1.7 0 3.6-.7 4.3-1.2.7-.6 1.2-2 1.2-3.2a8 8 0 0 1 1.8-4.3c1-1.2 3-2.9 4.6-3.7l3-1.5 3 .6c1.7.3 4 1.3 5 2.2 2.7 2.4 4.6 6.6 4.6 10.3 0 1.8-.7 4.3-1.5 5.6l-1.6 2.2 2.6 2.4c1.4 1.3 5.3 3.4 8.6 4.6l6.1 2.3.7 1.7a25 25 0 0 0 8.8 7.8c1.2.7 3.7 1.2 5.5 1.2s4.3.6 5.3 1.3c1.1.8 3.2 1.7 4.7 2l2.8.7 3.9 5.3a126 126 0 0 0 5.9 7.3 30 30 0 0 0 8.1 4.4l6.2 2.3 1.4 2.6a26 26 0 0 0 10 9.4 44 44 0 0 1 7.7 5.9c2.5 2.4 5.2 4.8 6 5.3l8.7 5.8c4 2.6 7.1 5.4 7.1 6.2s1 2 2 2.5l2 1 2.6-.6a36.9 36.9 0 0 0 13.4-4.2c.8-.5 2.4-2.5 3.5-4.5l2-3.7 3.7-1.1c4-1.2 7.2-.6 6.6 1.3-.2.7-1.6 1.5-3 2-1.5.3-4.9 3-7.5 5.7l-4.8 5.1-13.8 3.5-.2 14c-.1 7.7-.6 16.6-1.2 19.7-.5 3.1-1.4 6.3-2 7.1l-1.3 1.5 1.6 3.9 1.6 3.8-1.1 9.8 2 3.7-1.2 2.5c-.7 1.4-1.6 2.6-2 2.6-.9 0-1.1-3.7-1-13V546l-1.4-2.3c-1.7-2.6-2-6.5-.5-7.9 1.3-1.3 3-16.3 3-26.2v-8.3l-1.7-2.8a50.7 50.7 0 0 0-11.7-13.2 69 69 0 0 1-15.8-11.8c-.7-1-3.1-2.8-5.3-4a32.6 32.6 0 0 1-12-11.4l-.6-1.7-11-3.5-5.5-5.9c-3-3.2-5.4-6.2-5.4-6.6 0-1.4-9.4-5.8-13.8-6.5-2.4-.4-5.6-1.3-7-2s-4.6-3.5-7-6l-4-4.4-5.4-2.5a29.8 29.8 0 0 1-12.2-9.8l-1.5-2.2-7.8-.2a70 70 0 0 0-10 .2l-2.4.5 1.6 2.4c3.5 5.4.4 6-4 .9l-3-3.6-7.2-1.1-.6 3.8a24 24 0 0 1-2.1 6.4c-.8 1.4-2 3.5-2.5 4.7-.6 1.2-2.2 3.2-3.6 4.5-1.3 1.2-2.5 2.6-2.5 3.1 0 .6-2 3-4.4 5.3l-4.5 4.3-.7 3.8c-.4 2-1.8 5.8-3 8.2a20.4 20.4 0 0 0-2.4 7.6c0 1.8-1.3 5.9-3 9.1-1.6 3.3-3 7.4-3 9.1v3.2l3.7 2.8c2 1.6 5.3 4.4 7.3 6.4a51.5 51.5 0 0 0 15 11l3 1.2 4.6 7c2.5 3.7 5.1 7 5.8 7.3.7.3 3 2.9 5.2 5.7 2.1 2.9 5.8 7.1 8.2 9.5s4.2 5 4.2 6c0 2.4 3.5 8.1 7.4 11.8 1.7 1.7 4.4 4.8 6 6.9 1.5 2 5 5.3 7.8 7.3l5 3.6 3.2 6.5 3.1 6.5 9 5.5 9 1.6c5 .8 11.3 2.5 14 3.6l4.7 2.2 3.7-.5c2-.3 5.5-1.1 7.8-1.8l4.3-1.3 2.5 2.3 2.5 2.4 12.5-.1 4.5 3a99 99 0 0 1 6.8 5.1l2.2 2v2.8c0 2.8 4.5 12.2 8 16.6 1.1 1.4 2 3.5 2 4.7 0 1.1-1 3.2-2 4.6l-2 2.5v4c0 2.3-.6 5-1.5 6-.8 1.1-1.4 3-1.5 4.2 0 1.2-.4 2.4-.9 2.7-.5.3-1.2 2.3-1.6 4.3-.4 2.1-1.2 4.1-1.8 4.5-.6.4-2.3.4-3.9.1l-2.8-.5v1c0 .5-1.3 2.4-2.9 4.1l-2.9 3.1h-6.7l-2.5 2a9.2 9.2 0 0 1-4.2 2h-1.8zM365.5 405c1-2.6-.6-6.8-3.5-9.2-1.6-1.4-3.7-2.5-4.7-2.5s-3 1-4.4 2.4c-2.8 2.6-3.5 6.1-1.4 6.9 1.8.6 3.7-.3 3.7-2 0-.7.7-1.6 1.6-2l1.5-.6 2 1.8c1 1 2 2.6 2 3.5 0 2.9 2.3 4.1 3.2 1.7zm-46-15.5a8 8 0 0 0-2.4-3.2c-1-.8-3.1-3.3-4.8-5.4s-3-3.4-3-2.8c0 .6.3 1.3.8 1.6s1.1 2 1.5 3.6 1.2 3.7 1.9 4.4a17 17 0 0 0 6 3.6c.3 0 .4-.8 0-1.8zm-68.3-93.2c.5-1 1-2.2 1-2.5 0-1-3.8-.6-4.5.5-.8 1.3.1 4 1.4 4 .6 0 1.5-1 2-2zM234 247.9c.7-.7 1.2-2.2 1.2-3.4v-2.3l-5.5-4.3-3.9.5c-2 .3-4.3 1-5 1.6l-1 1.1 1.7 1.7 1.7 1.7 5-4.7 3 2.5v3.4c0 1.9.4 3.4.8 3.4s1.4-.5 2-1.2zm825.4 412.6c-1.2-1-3-3.7-3.8-5.8l-1.7-3.9-1.3 3c-1.4 3.5-4 6.2-5 5.2-.4-.4-.2-1.8.5-3.2.6-1.4 1.1-3.5 1.1-4.5 0-1.1-.5-2.8-1.1-3.9-.7-1-1-2.6-.6-3.5a3 3 0 0 1 2.5-1.6c2 0 4.5 2.4 5.5 5.3.4 1 1.1 1.7 1.7 1.7.6 0 1.6-1.4 2.2-3 .6-1.7 1.3-2.8 1.7-2.5s.7 3.2.7 6.3c0 3.2.6 7.2 1.2 9l1 3.2h-1.2c-.7 0-2.2-.8-3.4-1.8zm7-2a8.3 8.3 0 0 1-1.7-3.3l-.6-2.5 1.6-1.3 1.6-1.4 2 1.8c1 1 2 2.6 2 3.6 0 2.1-3.2 4.1-4.8 3zm-216.2-3.1c0-2.3 2.8-5.3 4.4-4.8 1.6.6 2 3.6.6 5.3-.7.8-2 1.4-3.1 1.4h-1.9zm187.3 0c-.3-1.2-.8-2-1.2-2-.4 0-1.2.5-1.9 1.1l-1.2 1.2-.9-1c-.4-.5-1.1-3.4-1.5-6.6l-.6-5.6 1.7-1.7 1.6-1.6 2.6.6c1.4.4 3.2 1.2 4 2 .7.7 1.3 2.3 1.2 3.6l-.2 7.2v4.7h-1.6c-.8 0-1.7-.9-2-2zm-.3-9c-.6-1.2-1.5-2-2-2-.6 0-1 .8-1 2v2h4zm-133.6 9.1-4.1-.3-1.3-14.4 2.6-2.2c1.4-1.3 3.1-2.3 3.8-2.3.8 0 1.9.6 2.5 1.4l1.2 1.4-3 1c-3.5 1.2-4.1 3.2-1.2 3.2 3.1 0 3.5 1.9.7 3.2-1.4.6-2.6 1.7-2.6 2.4 0 1.4 2.8 2.7 4 1.9 1.4-.8 5 1.4 5 3 0 .7-.8 1.4-1.7 1.6-1 .3-3.6.3-5.9.1zm-30.8-3.6c-.9-1.9-1.6-3.7-1.6-4 0-.5-.9-2-2-3.3a9.8 9.8 0 0 1-2-5v-2.4l2.2.3c1.3.2 2.8 1.4 3.4 2.6.7 1.3 1.7 2.9 2.3 3.5l1.1 1.1 4.4-4.7 2.2 2.7c1.3 1.4 2.5 2.3 2.7 1.9.3-.5.8-2.7 1.2-5 .4-2.4 1.4-5.2 2.4-6.4l1.6-2 1.8.7a3 3 0 0 1 1.7 2.5c0 1-.4 2-1 2-1.7 0-3.3 4.3-4 10.4l-.5 6-4.4.6-1.3-2c-.7-1.2-1.8-2-2.5-2s-1.3.7-1.3 1.7c0 2-1.8 4.2-3.6 4.2-.6 0-1.9-1.5-2.8-3.4zm82.2 2c-.2-.6-.4-4.3-.3-8.2v-7l1.4-1.7 1.4-1.7h3.1c3.4 0 5.6 1.5 5.6 3.7v1.3h-3.5c-2 0-3.5.4-3.5.9s1.6 1.2 3.6 1.6l3.5.6-.3 1.7-.3 1.7-3.2.3c-1.8.2-3.3.8-3.3 1.3s.7 1 1.4 1c2 0 5 3 4 4-.5.3-2.8.9-5 1.2l-4.3.5-.3-1.1zm37.6-.1-.6-1.6 1.7-1.9 1.7-1.9-.5-3.3-.9-5.3-.3-2 3.5-.6 1 2.4a7.7 7.7 0 0 0 1.9 3.1c.5.4 1.3-.3 1.6-1.4.4-1 1-2 1.5-2 .4 0 1.3.7 2 1.5l1.2 1.4-.7 2-.6 2 1.5 3c.8 1.5 1.2 3.1.9 3.5-.3.3-1.7.6-3 .6h-2.3l-1.1-2.7-1.1-2.8-1.1 2.5c-1.2 2.5-3.5 5-5 5-.4 0-1-.7-1.3-1.5zm21.2-.6c-1.4-1.1-2.6-3-2.6-4s.7-3.5 1.5-5.4l1.4-3.5h2.5c3.8 0 7.4 2 8 4.4 1 3.9.6 6.6-1.4 8.6-1 1.1-3 2-4.4 2a10 10 0 0 1-5-2zm7.2-2.7 1.3-.9-1.2-2.6-1.2-2.7h-4.7v1.7c0 1.6 2.7 5.3 4 5.3l1.8-.8zm-38.8 1.4c-.5-1.4-1.8-3-3-3.6l-2-1v5h-3.7l-1-6.7-1-6.6 1.9-1.8c1-1 3-2.1 4.5-2.5l2.6-.7 1.9 2.3c1 1.2 1.8 3.6 1.8 5.2s.9 4.7 2 7c1 2.2 1.7 4.5 1.4 5-.3.4-1.4.8-2.5.8h-2zm-2-10.7v-1.9h-1.4c-1.7 0-3 3.5-2 5l.6 1.1 1.4-1.2c.8-.6 1.4-2 1.4-3zm-59.4 10.5a14 14 0 0 1 0-5.3l.6-3.7-2.6-1.7c-1.4-1-2.6-2.4-2.6-3.2s1-2 2-2.5l2-1 3.6.6c2 .4 3.8 1.3 4.1 2 .3.8-.2 2.3-1 3.3l-1.7 1.8v11.3h-1.9c-1 0-2.2-.7-2.5-1.6zm17.9.6c-.4-.6-.4-3.3 0-6l.7-4.8-4.7-.7-.6-3.5 2.6-1c1.5-.5 4.2-1 6.1-1h3.5l.6 1.7.6 1.6-4.4 3.7.1 3.7c.1 2.1.2 4.6.1 5.6v1.7h-2c-1.1 0-2.3-.5-2.6-1zm-355.9-1.8c-.3-.5.1-1.8 1-3l1.4-2 3.5-.6c2-.4 4-.4 4.5-.1 1.5 1 0 3.5-3 5-3.2 1.7-6.6 2-7.4.7zm276.4-1.6c0-.9.5-1.6 1-1.6.6 0 1 .4 1 1 0 .5-.4 1.2-1 1.5l-1 .6zm-131-5.6a101 101 0 0 1 4.6-16.6c1.3-3 3.3-9.6 5.8-19.2l1-4.2h2.9l-.7 4.2c-.4 2.3-1 4.7-1.5 5.2-.4.6-1.6 4.2-2.6 8.1a81 81 0 0 1-2.6 8.5 92 92 0 0 0-3 8.3c-1 3.7-2.5 6.7-3 6.7s-.9-.4-.9-1zm-24.6-20.6c.4-1 3-9.3 5.7-18.4a1206 1206 0 0 1 11.1-35.3c.6-1.5 1.7-2.7 2.4-2.7h1.4v2.1c0 1.2-.6 3-1.4 3.8-.7.9-3.6 8.8-6.4 17.6l-7.9 25-2.8 8.9-1.4.4-1.4.5zM470.2 572a99.2 99.2 0 0 1-10.2-14.1l-2.7-4.1 1.1-.4c1.4-.5 7.8 6.6 11.4 12.6 1.4 2.4 3 4.3 3.5 4.3 1.2 0 1.2 2.7 0 3.4-.5.4-2-.4-3.1-1.7zm382.5-5.4-2.5-2.6v-8.3l2.5-4.7c1.4-2.5 2.5-5.6 2.5-6.8v-2l-1 .6c-.5.3-1 1.4-1 2.4 0 2.3-3.1 5-5.8 5h-2.1l-2-3.8 2.2-5.1 2.2-5.2 5.5.8v-3.8c0-3.9 1.5-5.8 3.2-4a19 19 0 0 1 1.7 6.5l.8 5.6 1.6 1.9c1.9 2 2.3 5.2.7 5.2h-1V566l-1.6 1.6c-.8.9-2 1.6-2.5 1.6s-2-1.2-3.4-2.7zm4.3-9.7.3-3.6h-1c-1.6 0-3.3 3.8-2.6 6 .4 1.2 1.2 1.9 1.8 1.7.7-.2 1.4-2 1.5-4zm-6.4-12.2c.3-.9.6-2.6.6-3.8v-2.1l-1.5 1.9c-1.6 2.1-2 5.6-.6 5.6.5 0 1.2-.8 1.5-1.6zm-433.2 20.5a34.9 34.9 0 0 0-9.5-2.6 106 106 0 0 1-7.3-.9c-1.2-.2-4.3-2.2-7-4.4s-5.8-4-7-4c-1.2 0-4-1.7-6.5-3.8-2.4-2-6-5-7.9-6.4a23 23 0 0 1-5.7-7 52 52 0 0 0-7-9.5 31.7 31.7 0 0 0-8.5-6.7l-3.7-1.5-2-4c-1.2-2.2-3-5.1-4.3-6.5a78.2 78.2 0 0 1-13.8-18.8 43.4 43.4 0 0 0-4.9-8.2 18.5 18.5 0 0 1-3-5.2c-1.9-4.7-4-16.2-4-20.8v-4.2l7.3-6.5c4.1-3.6 8-7.8 8.7-9.3.6-1.5 3.1-4.4 5.4-6.3 2.4-1.9 4.8-4.8 5.5-6.4l1.2-2.8 5.5-2.3 5.3 2.4 5-2.6 2.2 1.7 7 4.7c2.7 1.7 4.8 3.4 4.8 4 0 .4 1.4 2.1 3 3.8l3.2 3.1h2.6c1.5 0 4.2.9 6 2l3.1 2 2.2 4.2c1.2 2.4 3.2 5.4 4.4 6.8a37 37 0 0 1 6.2 14c.4 1.4 1.7 4.2 3 6.2l2.3 3.7 8.5 3.8 4 7.2 11.5 5 2 3.4c1.1 1.8 2.3 4.7 2.6 6.5l.6 3.2h1.4c.8 0 1.4.5 1.4 1 0 .6 1.5 2.7 3.3 4.8a41 41 0 0 1 8.4 13.2l1.3 3.5V545l-3 2.5v8.8l-2.2 2.2a20.8 20.8 0 0 0-3.3 4.2 9.1 9.1 0 0 1-3.5 3.3l-2.5 1.2h-18l-4.3-2zm7.8-3c0-1.2 1.1-6.3 2.4-11.3 1.4-5 3-12.9 3.7-17.4l1.3-8.3-1.7-1.7-1.8-1.8-1 1.5a8 8 0 0 0-.9 3.5 44 44 0 0 1-1.6 7.6 760.5 760.5 0 0 0-6.3 23.6c-.5 1.7-.6 3.6-.2 4.1.7 1 3 2 4.9 2.2h1.2zm8.6 1.3c1-.7 2.7-5.5 5.5-16.2 1.5-5.7 4-18 5-25.5l1-6.9-2.7-4-2.7-4.1-.7 2c-1.3 3.5-3 16.3-2.4 18l.7 1.5-1.7 1.9-1.7 1.8-3 14.6c-1.8 8-2.9 15.3-2.5 16.1.6 1.6 3.3 2 5.2.8zm7.4-1c0-.5 1.6-2.8 3.6-5l3.6-4.3-.7-4.2c-.8-5-3-9.5-3.8-8.1a278 278 0 0 0-5.7 21.8c0 .3.7.6 1.5.6s1.5-.4 1.5-.9zm-23.3-9.7a235 235 0 0 0 7.4-27.7l1.2-6.7-1.7-2.7-1.8-2.7-.8.9c-1.4 1.5-8.7 26.7-10.5 35.8l-1.6 8.9 1.3.8c.7.5 2 .7 2.8.6l1.5-.2zm-10.3 4.2c1.9-9.3 4.5-19.3 8.2-31.5l4.4-14.3-.6-2.5-.6-2.5h1c.5 0 1.5-2.8 2.2-6.2.6-3.5 1.4-7.2 1.7-8.4l.5-2.1-3.3-1.7-3.4-1.6a924.4 924.4 0 0 1-17 67.8c-.3.7-1 1.3-1.6 1.3H398l.5-2.3c.2-1.2 2-7.6 3.7-14.2l6.5-24.5 3.3-12.5-2.4-4.8c-1.3-2.6-2.8-4.8-3.3-4.8-1 0-1.4 1-3.2 9.5l-1.3 5.9 1.2.4c1.8.6 1.5 2-.7 2.5l-1.9.5-.7 4.4c-.4 2.4-1.8 8.2-3.1 12.8a302 302 0 0 0-3.8 14l-2 7.3-.8 1.7 3.1 1.8c1.7 1 3.1 2.1 3.1 2.6 0 1 6 3.6 8.7 3.6h2.3l.4-2.2zm-17.9-13.5 4-13.9a69 69 0 0 0 2.5-10c0-1 1.2-6.1 2.5-11.4 1.4-5.2 3-11.8 3.6-14.8l1-5.2-2.4-3-2.5-3-1 1.3c-1.6 2-12.2 42.3-12.2 46.6 0 1-1.3 4.5-3 7.7l-2.9 5.9 1.2 1.5c1.9 2.6 4 4 5.9 4h1.8zm-10.5-3.7c0-1.3.4-2.7 1-3 .4-.3 1.8-5 3-10.3 1.2-5.4 3.8-15.6 5.7-22.8 5.8-21.2 7.1-26.6 8.7-34.9l1.6-7.9-1.7-4.9-1.8-4.8-2.9.5-.7 3.5c-.4 2-1 6.1-1.2 9.4s-1 6.3-1.6 7c-.6.5-1 2-1 3a79 79 0 0 1-3 11.6 472 472 0 0 0-5 17.5c-2 7.6-3.2 12-6.3 22.5-.7 2.5-2 5.1-3 6l-1.8 1.5 1.7 2.5c1.9 3 5.3 6 7 6h1.3zm71.3-5.8c-.2-9.7-1-14.8-2.3-14.8-.5 0-1.1 1-1.4 2.3l-1.4 7.7-1 5.5 2.6 3.8c1.3 2 2.8 3.8 3 3.8.4 0 .6-3.8.5-8.3zm-76.8-16.3c1.5-5 3.1-11 3.6-13.5 1.3-6.1 4.7-17.8 6.5-21.8l1.4-3.2V467l-2.4-2.9c-1.3-1.5-2.6-3.4-2.9-4.1s-.7-1-1-.7-1.4 4.9-2.2 10a358 358 0 0 1-9 41.4 87.8 87.8 0 0 0-3 11.9l-.6 4.8 4.5 4 1.2-2.4c.7-1.2 2.4-6.3 4-11.3zM364 514c1.3-4 3.5-12.4 5-18.8 3.2-14.6 3-13.3 5.3-27.9l2-12.4-4.1-4.5 1-.7c.6-.3 2-.4 3 0l2 .6 1.3-12.4-3.8-3.3a26 26 0 0 0-4-3c-.2 0-1 4.6-1.9 10.1-.8 5.5-2.4 13.4-3.5 17.5-2 7.8-5 23-5 25.4 0 .8-.7 3-1.5 5-.9 2-2 3.5-2.4 3.2-.4-.3 0-4.5 1.1-9.3a1254.3 1254.3 0 0 0 6.3-30.2l1.5-7.4-3.2-4.8a23.7 23.7 0 0 0-3.9-4.9c-.3 0-1 2.4-1.7 5.3l-2.7 10.7c-.7 3-2.4 12.3-3.6 20.5a137 137 0 0 1-5 24c-.3 1.6-1 3-1.6 3.3l-1.3.4v-2.5c0-1.3.9-5.3 2-8.8 1-3.5 2.1-9.3 2.5-12.9.4-3.6 1.3-9.6 2.1-13.5l3.8-19 2.5-12-2-3.1c-1-1.7-1.9-3.9-1.9-4.8s-.3-1.6-.8-1.6c-.4 0-1.6 4-2.6 8.7-1 4.9-2.6 11.3-3.6 14.3s-2.3 8.7-3 12.5l-3 15.5-2.6 12.3-.6 3.7H333l.6-3.7 2-9.3 2-10c.4-2.5 2.2-10.8 4-18.5a401.3 401.3 0 0 0 5.2-24l.6-2-1.7 1.4a40.1 40.1 0 0 0-8.1 18.3c-.9 4-2.3 9.3-3.1 11.8a199 199 0 0 0-4 13.8 75 75 0 0 1-3 10.3l-.6 1.1-.9-.9-.9-.9 1.4-6.4c.8-3.6 2.6-10 4.1-14.5 2.6-8 5.7-20.6 5.2-21.1a39 39 0 0 0-4.9 6l-4.6 6.1-1.7 10a46.7 46.7 0 0 1-2.7 11.2l-1 1.2.7 3.1c.4 1.7 2.1 5 3.8 7.3 1.8 2.3 4.6 7 6.2 10.5s3.3 6.2 3.7 6.2a52 52 0 0 1 6.7 7.5c3.4 4 6.1 8.1 6.1 9s1.4 2.4 3.1 3.3l6.3 3.8c1.7 1.2 3.3 2 3.5 1.8.3-.2 1.5-3.6 2.8-7.6zm-11.3-3c1.6-10.4 1.9-11.8 3.3-13l1.5-1.1-.7 7.4c-.4 4-1.2 8.2-1.7 9.2s-1.4 1.7-2 1.7h-1zm82.6 4.7c0-1.6.4-4.4 1-6.2l.8-3.2-1-3.5c-.6-2-1.4-3.6-1.8-3.6-1 0-2.9 6.3-3.6 12.3l-.7 5.8 1.8 2 1.9 2 .8-1.3c.4-.7.8-2.6.8-4.3zm-6.4-7.2a93 93 0 0 1 2.2-9l1.6-5.3-1.6-1.6c-1-1-2.3-1.4-3.1-1l-1.5.5-1 5.1c-.7 2.8-1.2 6.8-1.2 8.9 0 3.5 1.4 6.1 3.2 6.1.4 0 1-1.6 1.4-3.7zm-14.5-17.3c.4-1.4.8-4.4.8-6.7l.1-4.2-2-1.1c-1.2-.6-2.7-.9-3.5-.6-.7.3-1.6 2.3-2 4.6l-.7 4.1 2.4 3.5c1.3 1.9 2.7 3.3 3.3 3.1.5-.2 1.3-1.4 1.6-2.7zm-8.7-11.4c.4-1.8.2-4.4-.3-5.7-1-3-3.7-5.3-5-4.5-.4.3-1 2.3-1.3 4.4l-.5 3.7 2 2.8c1 1.5 2.4 2.7 3.2 2.7h1.3zm-84-21.3c.4-2.7 1-5.6 1.3-6.6l.5-1.9-1.8.4c-1 .2-2.1 1.6-2.7 3.1-1 3-.1 9.7 1.2 9.7.5 0 1.2-2.1 1.6-4.7zm67 2.1c.3-.8.6-2.8.7-4.2 0-1.5.6-4 1.3-5.7l1.3-3-1.5-3.1c-1.6-3.5-5.2-6-7.5-5.1l-1.4.5-.5 7.3-.5 7.2 2.6 3.8c1.4 2.1 3.1 3.9 3.8 3.9.6 0 1.4-.7 1.7-1.6zm-21-22.8c.2-.7.8-3.4 1.1-5.8l.7-4.5-3-2.2a12.8 12.8 0 0 0-4-2.1c-.4 0-1.4 1.2-2 2.6l-1.3 2.7 3.3 5.3c1.8 3 3.5 5.4 4 5.4.3 0 .8-.6 1.1-1.4zm-10.4-13.6c0-.6-.7-1-1.5-1H354l.6 1c.4.5 1 1 1.6 1 .5 0 1-.5 1-1zm-98.6 137.6c.9-4.5 2.6-8.5 3.8-8.5.4 0 .8 0 .8.2l-1.3 5.7c-.7 3-2 5.6-2.6 5.9l-1.4.4zm465.6-5c0-1 .7-2.7 1.6-4l1.6-2.5h5.9l.6 1.6.7 1.7-2.8 2.3a9.8 9.8 0 0 1-5.1 2.4h-2.5zm70-6.3-1.1-2.7.6-6.8.7-6.9 3.3.7-.3 3.5-.4 3.5 1.2-1.2c.7-.7 1.8-2.2 2.4-3.4.6-1.3 1.7-2.5 2.4-2.7.7-.2 1.5.3 1.9 1.2l.6 1.7-4.6 6.2 1.3.5c2.2.7 5 4.1 5 6.1 0 1-.5 2.2-1 2.6s-2.2-.4-3.6-1.6l-2.4-2.3-1.6 2.2c-.8 1.2-2 2.2-2.5 2.2s-1.4-1.3-2-2.8zm-8.8.6c-.6-.7-1.2-1.8-1.2-2.4 0-.7-.6-1.7-1.3-2.3l-1.4-1.1-1.8 2c-1 1-2.4 2-3.1 2-1.6 0-1.9-3.2-.5-4.6.6-.5 2-4 3.4-8 1.3-3.8 2.8-6.9 3.3-6.8 1.3.3 5.2 12.2 5.6 17.3l.3 4.4-1 .3c-.6.2-1.6-.2-2.3-.8zm-1.2-11.4v-1.6l-1 .7c-.6.3-.8 1-.4 1.5.8 1.4 1.4 1.2 1.4-.6zm29.6 10.4c-.2-.8-.7-4.4-1-8l-.6-6.8 5-3.3 2.6.7 2.5.6-.3 1.7-.3 1.8h-5l-.3 1.7-.3 1.8h2c1.2 0 2.1.4 2.1 1 0 .5-.9 1.4-2 2-1 .5-2 1.5-2 2s1 1 2.3 1c1.2 0 2.9.4 3.7 1l1.5.9-1 .9c-.5.5-2.7 1.2-4.7 1.6l-3.8.7zm-57.1-1.9c-.4-.5-.3-2.8 0-5l.7-4.2-1.8-4-1.8-4 1-1.6c1.4-2 4.8-2.2 5-.2l1 7.3.6 5.7 3.6.7c2 .3 4.5 1 5.5 1.5l1.7 1-1 1.9c-.6 1-2 2-3 2s-3-.5-4.3-1.1l-2.4-1.1-4.2 2.2-.6-1zm212-.6-2.9-1.6-5.4 2-1.3-.8-1.4-.9 1-1.8c.7-1 3.1-2.8 5.6-4a15 15 0 0 0 4.7-3.3l.4-1h-10l-.5-1.3c-.3-.8-.3-1.7 0-2 .4-.4 3-.6 6-.6h5.2l1.5 1.5c1 .9 1.6 2 1.6 2.4 0 .4-1 2-2 3.4-1.2 1.5-1.8 3-1.5 3.6.4.6 1.7 1 3.1 1h2.5l.6 1.7.6 1.6-1.4.8c-.8.5-1.8 1-2.4.9a15 15 0 0 1-4-1.6zm-230.1-.8c-.3-.8-.3-2 0-2.5l.7-1 3.8 2-.5 1.5c-.8 1.9-3.3 1.9-4 0zm148.4.4-1.8-1v-5l7 1.3v-4.1l-5.5-.6.3-2 .5-4 .2-2h-4v16l-1.7.3-1.7.3v-5.3c.2-3-.1-7.2-.5-9.5l-.8-4.2 2.2-1.2c1.2-.6 3.8-1.2 5.8-1.2h3.5l.8 1.4c.5.7.9 2.3.9 3.5 0 1.1.9 3.2 1.9 4.5 1 1.3 2.1 3.3 2.5 4.5l.7 2.1-3.4 3.7a14 14 0 0 1-4.3 3.5 8 8 0 0 1-2.6-1zm92.2-1.9-1-2 2-1a9 9 0 0 1 3.3-1c2 0 3 2.9 1.6 4.6-.6.7-2 1.4-3 1.4s-2.3-1-2.9-2zm-76.3.3c-.4-.4-.4-2.8 0-5.3l.5-4.6-1.6-1.4c-.9-.7-1.6-2-1.6-2.8V530l2.8.7c1.5.4 4.4 1 6.5 1.2l3.8.6-.3 1.6c-.2.8-1.4 1.8-2.8 2.2l-2.5.5-.3 2c-.5 3-2.3 7.5-3.1 7.5-.4 0-1-.3-1.4-.7zm15-.9-1.7-1.6v-9.8h1l1.8-.3c.4-.1 1 1.8 1.5 4.3 1.3 7.3 1.3 8.2 0 8.7-.5.2-1.8-.4-2.7-1.3zm32 1c-.4-.4-.4-2.4 0-4.4l.5-3.6-1.6-1.4-1.6-1.3v9.3h-2.8L943 538l-1.4-6.2 1-.8c.6-.3 1.5-.2 2 .3s2.5 1 4.3 1h3.3l.6 2.3c.8 3.4 0 11-1.1 11.4-.6.1-1.4 0-1.8-.4zm-20.2-1.5c-.4-.6-.4-2.1 0-3.4l.5-2.3-1.5-.6c-.8-.3-1.5-1.4-1.5-2.5s.8-2.6 1.8-3.5c1-.9 3-1.6 4.5-1.6h2.7v2c0 1.1-.6 2.2-1.3 2.5l-1.4.6.8 4.2.9 5c0 1-4.8.8-5.5-.4zM630 532.6c-1.2-1.2 1.4-4.3 6.9-8.4 3-2.2 5.9-3.8 6.4-3.4 2 1.2.8 3.4-4.3 7.9-5.1 4.3-7.5 5.4-9 4zm289.7-4.9c-.4-.8-.4-1.8 0-2.1 1-1 3.6.5 3.6 2.1 0 2-2.9 2-3.6 0zM292 510.6c-1.3-1.3-.7-4.5 1.4-7.3l2.2-3-1.3-3.4-2.8 2.7c-1.5 1.4-3.6 2.6-4.6 2.6-2.5 0-5.7-1.9-5-3 .3-.5 1.6-1 3-1h2.3l7-6.1 3.6.7-.1 4.7-.2 4.7h1.2c.6 0 2.2-.7 3.4-1.6 1.3-.8 3-1.3 3.7-1l1.5.6-.6 1.5c-.3.8-1 1.5-1.6 1.5-.5 0-3 1.8-5.5 4s-5.1 4-5.8 4-1.5-.3-1.8-.6zm363-.2c-.3-.4 0-1.9.7-3.2a8 8 0 0 1 3.9-3.4l2.7-1 1.3 1.3 1.2 1.2-3.5 3c-3.5 3-5.4 3.6-6.4 2.1zm384-9.9c-.2-.4-.7-4-1.1-7.8l-.7-7-2.1-1.6-2-1.6.7-1.3.8-1.2 4.4.6c2.4.3 5.3 1 6.4 1.6s2 1.8 2 2.6v1.4h-6.3l.4 7.2.3 7.1-1.1.4c-.7.3-1.4 0-1.7-.4zm-351.4-2c-1.6-.6-1.6-3.5 0-5 1.4-1.5 4.4-1.6 5.2-.3.8 1.2-1 4.6-2.7 5.3-.7.2-1.8.2-2.5 0zm253.2-2.3c-.8-1.6-2-3-2.5-3s-1 1-1 2v2h-1.4c-.7 0-1.6-1-2-2.2s-.6-4.4-.6-6.9v-4.6l1.5-1.2c.8-.7 2.7-1 4.2-.9l2.8.3.7 8 2.9 3.9c1.5 2.2 2.6 4.3 2.3 4.8-.3.5-1.6.8-3 .8h-2.3zm-2.1-9.5.6-1.5h-1.5c-.8 0-1.5.7-1.5 1.5 0 .9.4 1.5 1 1.5.4 0 1-.6 1.4-1.5zm36 9-3.4-3.6v-8l2.5-2.4c1.3-1.4 3.3-2.5 4.4-2.5 1 0 3 1 4.3 2l2.3 2-3.5 2.7-5-.9-.6 1.7-.7 1.7 1.7 3.4 1.6 3.4h2c3 0 3.4-1.8.6-3.1-1.4-.7-2.6-1.5-2.6-2 0-1 6.6-2.2 8.5-1.5l1.5.6v4.9l-3 2.5c-1.7 1.5-4 2.6-5.2 2.6h-2zm23.8-5.5-.2-9 9.5.5.5 2.5a32 32 0 0 0 2.4 6.2l1.9 3.6-.7 1.9-.7 1.8-1.4-1.9c-.8-1-1.6-2.3-1.7-2.9l-.4-1-2.6 1.7a8 8 0 0 0-3 3.7c-.4 1-1.3 2-2 2h-1.5zm6.8-2.5v-2.5h-1.4c-.8 0-1.7.4-2 1-.9 1.3.5 4 2 4h1.4zm12.4 10c-.3-.8-.3-3 0-5l.7-3.5 1.9 1a7 7 0 0 0 2.5 1c.3 0 .5-.6.5-1.5v-1.5h-4v-2.9c0-1.5.7-3.4 1.6-4.2l1.6-1.3 1.9 2.5c1 1.3 2.7 5.3 4 8.8l2 6.4-1 1.1-1.1 1-1.5-2.2c-.9-1.2-2.1-2.2-2.8-2.2-.7 0-1.8 1-2.4 2-.7 1.1-1.8 2-2.3 2s-1.3-.6-1.6-1.5zm-130.4-2c-.5-1.4-1-3.1-1-3.8 0-.6-.5-.1-1 1.2l-1 2.3-2.5-.9.3-10.5 1.4-1.4 1.5-1.4 1.6.6 1.7.6v2.2c0 3.4 1.2 6.7 2.1 6 .5-.2 1-1.3 1-2.3 0-2.4 2.5-4.5 4.5-3.7l1.5.6-1.4 2.8-3 6.5-1.6 3.7h-1.6c-.8 0-2-1.1-2.5-2.5zm158.4 1c-.4-.9-.1-2.1.5-2.7l1.1-1.2 1.6 1.6c1 1 1.4 2.1 1 2.7-1 1.7-3.5 1.4-4.2-.4zM855.9 495c-1-3.5-.8-10.6.3-11.2 1.5-1 3.2 3.2 3.4 8.3l.1 4.6-3.2.6zm10.6 1-1.3-1.2v-11.3l3.5-3.1 5.5 1v2.8h-2c-1 0-2 .5-2 1 0 .6.7 1 1.5 1 2.5 0 1.7 2-1 2.6-1.4.4-2.4 1.2-2.2 1.8s1.5 1.3 2.8 1.5c1.3.1 2.9.7 3.4 1.2l1 1-1 .8c-.5.5-2.3 1.2-4 1.6l-3 .6zm35.5 0-2.8-1v-1.5c0-.9.7-2.4 1.6-3.3l1.6-1.8-2.7-4.2 1.5-1 1.4-.8 3.8 2-1.2 6.7 2 1.1c1.2.7 2 1.7 1.8 2.3-.6 1.7-4 2.5-7 1.5zm14.3-.2-1.2-1.5.7-5.8c.4-3.2 1.1-6.3 1.7-7l1-1.3 2.6.7c2.8.7 4.3 2.2 3.5 3.5-.3.5-1.6.6-3 .2l-2.4-.6v1.1c0 .7 1.2 1.6 2.5 2.1 1.4.6 2.5 1.5 2.5 2 0 .6-1 1.5-2.2 2l-2.3.9h1.7c.8.1 2 .7 2.7 1.5l1 1.3-1.1 1.2c-1.6 1.6-6.3 1.4-7.7-.3zm-244.4-.2c-1.5-1.5-.5-3.5 2-4.4l2.6-1 1 1 1 1-1.8 2c-1.8 2-3.6 2.6-4.8 1.4zm144 0c-.4-.4-.7-1.3-.7-2.1V492l6.2 1.3-.3-1.8-.4-1.9-2.5-.3a7.6 7.6 0 0 1-3.3-1.1l-.8-.8 1.3-2.1c.7-1.1 1-2.4.6-2.8-.4-.3-1.4-.4-2.2 0l-1.6.6v12.2l-1.2-.4c-.7-.2-1.8-1.5-2.5-2.8-1.4-2.7-1.7-9.8-.5-11.6.8-1.1 6.6-3.4 9-3.4.7 0 2 1.5 2.7 3.3a18 18 0 0 0 3.4 5.2l2.1 1.8v3.2c0 1.7-.5 3.7-1.2 4.3-1.3 1.3-7 1.7-8.1.6zm19-1a30 30 0 0 1 0-11.8c.3-1 1.9-2.3 3.5-3.1l2.8-1.5 2 1 2 1v2.4c0 1.2.7 3.1 1.5 4.2s1.5 3.6 1.5 5.8v3.8l-3.5-.7-.6-5.3-5.9 2.3v1.8c0 2.2-2.5 2.3-3.4.1zm7-10.1.5-1.3h-4.2v3.2l1.7-.3c1-.2 1.8-1 2-1.6zm-148.4 6c-1.9-.7-1.5-4.7.6-6.6 1-1 2.5-1.7 3.5-1.7h1.6v1.8c0 2.4-4.2 7.1-5.7 6.5zm-423.8-3.3c-.4-.6 0-1.7.6-2.6l1.3-1.5-1.8-3c-1-1.7-1.5-3.3-1.1-3.7a35 35 0 0 1 8.7-1.7l8-1 1.3 1.2c1.5 1.5 2.9 8 2 9.4-.9 1.4-3 .6-3-1.2l-.3-3.1c-.1-1-.9-1.8-1.7-1.8h-1.5l.2 3.3c.2 3.7-.8 6-2.2 5.2-.6-.3-1-1.6-1-3 0-2.3-2.2-5-3.3-3.8-.4.4-.7 1.8-.7 3.3 0 2.8-1.6 5-3.6 5-.7 0-1.6-.4-2-1zm417-4c-.9-1.5.4-5 2-5 2 0 5.7-4.6 5.4-6.6-.2-1 0-2.4.5-3.1.4-.7 2-1.3 3.5-1.3h2.7l3-3c1.5-1.6 3.6-3 4.6-3 1 0 2.1.7 2.6 1.6l1 1.7-4.4 7a81 81 0 0 1-5.8 8.6c-.8.7-1.9 1-2.5.7-.6-.4-1-1.7-1-2.8v-2.2l-4.4 4.2a18.6 18.6 0 0 1-5.4 4.2c-.6 0-1.4-.4-1.8-1zm14.3-10 .5-1.2-1.3.4c-.8.2-1.6 1-1.8 1.8l-.4 1.3 1.3-.5c.7-.2 1.5-1 1.7-1.7zm-29.4 6.5c-.3-.8-.3-2.2 0-3l.6-1.6 8.5.6v3l-8.6 2.4-.5-1.4zm12.1-3.5c-.3-.5 0-1.8.5-3l1-2h6v1.7c0 3-6 5.8-7.5 3.3zm242.8-4.5-2.2-1.5.6-1.5c.3-.8 1.4-1.5 2.4-1.5h2v-9.7a6 6 0 0 1 1-3.8l1.2-1.5h6.6l2 3.4a15 15 0 0 1 2.1 6.5c0 1.8-.6 4.5-1.5 6.1-.8 1.6-2.3 3.1-3.2 3.4l-5.3 1.1-3.5.6zm11.7-8.5c0-.9-.6-2.4-1.3-3.4l-1.4-1.9-1.1.7c-1.6 1-1.5 6.9 0 8.5l1.3 1.2 1.3-1.7a7 7 0 0 0 1.2-3.4zM507 471l1.2-1.2 2.4 2.4h-4.8zm251.4-1c-1.4-1.4-1.6-4.4-.2-5.3 1.5-1 1.2-4-.5-5.5-.8-.7-1.5-2-1.5-3 0-2.4 3.2-5 6.2-5h2.6l7.4 8.3-.5 3.4c-.3 2-1.3 4.6-2.2 6l-1.5 2.3h-4.3c-2.4 0-4.8-.5-5.5-1.2zm9.2-4.4 1.6-1.5-1-1.9c-1.3-2.4-3.9-5-5-5-1.4 0-1.2 7.4.2 8.8.7.7 1.5 1.2 2 1.2s1.4-.7 2.2-1.6zm95.4 3.7c-.7-1.2-2-2-3-2-.8 0-1.8.6-2.1 1.4-.8 2-3.7 2-3.7 0 0-.8.7-3 1.5-5l3-7 1.6-3.6 4.4.6.7 5.5c.5 3 .9 6.8 1 8.4l.3 2.9-1.2.4c-.6.3-1.8-.5-2.5-1.6zm-.8-8c0-.6-.4-1-1-1s-1 .4-1 1c0 .5.5 1 1 1s1-.5 1-1zm16.5 9.2c-1.6-.3-3.3-1-3.7-1.6-.3-.6-.5-3.3-.2-6.1s.4-5.6.4-6.3c0-.7.7-1.3 1.5-1.3h1.5v11h2.8a8 8 0 0 1 4.1 1l1.4.8-.6 1.6c-.6 1.6-1.5 1.7-7.2.9zm18.2-.3c-2-.4-4.2-1-4.7-1.6a22 22 0 0 1-1.1-7.4l-.4-6.5h3l.3 4.5c.2 2.5.8 5 1.4 5.7.6.7 2.1 1.3 3.5 1.3h2.4l.6 1.6c.3.8.2 1.9-.3 2.3s-2.6.5-4.7.1zm-119-1.3-1.8-1.3-.6-4.2-.6-4.3 2.9-3 2.8-2.9h2.2c1.2 0 2.7.6 3.3 1.4l1.2 1.4-1.5 1.5c-.8.8-1.2 1.8-.9 2.1.4.3 1.4.6 2.4.6s2.2.7 2.9 1.5l1.2 1.4-1.1 2c-1.3 2.4-6 5.1-8.8 5.1-1 0-2.7-.6-3.7-1.3zm4.4-5.8c-1.2-1.1-2.5-1.8-2.8-1.5-.9.9 1.8 3.6 3.5 3.6h1.6zm128.2 6c-.6-.8-1.3-4.2-1.7-7.6l-.7-6.3h1a3 3 0 0 1 1.4.3c.2.1 1.2-.6 2.1-1.5 1-1 2.3-1.8 3-1.8a7 7 0 0 1 3.2 1.5l2 1.5-4 3.1-4.8-1.2.4 1.3c.3.7 1.5 1.5 2.8 1.8 1.3.3 2.6 1.1 2.8 1.8l.4 1.2-6.7 1.4 8 2.3v2.8l-4 .3-4.2.3zm-189-5.6c-.5-3.2-1.6-7.2-2.4-9l-1.3-3.2 5.8-6h2.2c1.3 0 3 .6 3.9 1.5.8.8 1.5 2.7 1.5 4.1 0 1.5 1.4 5.5 3 9s3 6.7 3 7.3c0 1.6-1.9 2.1-4 1l-2-1v-2.4c0-1.3-.7-3-1.5-3.6l-1.6-1.3-1 1c-.6.7-1.4 2.6-1.8 4.4s-1 3.4-1.7 3.6l-1 .4zm4.7-8.7.6-2 .6-1.6H726c-1.8 0-4 2.4-3.1 3.4.7.7 3.3.9 3.3.2zm70.8 13.8c-.4-.4-.8-4-.8-7.9v-7l1.2-1.3c1.5-1.5 7.5-1.6 8.4 0l.7 1-4.8 3.8h5.5v2.9l-3.2.3c-1.8.2-3.3.7-3.3 1.3s1.8 1.3 4 1.8c2.2.4 4.4 1.1 4.8 1.6l.8.8-1.3 1c-1.6 1.4-11 2.7-12 1.7zm41.1-1-1.3-1.6.2-4c0-2.2.8-5 1.6-6.3a8.3 8.3 0 0 1 3.7-3l2.2-.7 2 2 2 2-.6 1.6-.6 1.6h-6v1.4c0 3 1.2 4.6 3.4 4.6 1.2 0 2.5.3 2.8.7 1.4 1.3-1.6 3.3-4.8 3.3h-3.2zm-92.9-1.4-1-2 .8-3.2.8-3.3h2.8l.8 3.5c.4 2 .5 4.3.2 5.3s-1.1 1.7-2 1.7c-.7 0-1.8-.9-2.4-2zm-476.5-1c-.3-.5-.3-1.5 0-2l.7-1 5.9.6c3.3.4 6 .4 6 0s-1.3-1.7-2.8-3l-2.8-2.4 1.8-2c1-1 1.7-2.1 1.7-2.5 0-.3-1.8-1.2-4-1.8-2.2-.7-4.5-1.8-5.2-2.6l-1.1-1.4 2.2-2.2 6.7 3c3.6 1.5 6.9 3.4 7.2 4.1.2.7-.3 2.2-1.3 3.3l-1.8 2 3.8 7-1.5 1c-.8.5-4.5.9-8.2.9h-6.7zm280.5-6.5c0-1.7 2.4-3 4-2 1.5 1 0 3.5-2 3.5h-2zm197-7V450l1 .6c.6.3 1 1 1 1.6s-.4 1-1 1c-.5 0-1-.8-1-1.6zm-463-8.6c-6.1-1.1-12-3.9-12-5.7V436l2.8.5c1.5.2 4.4 1.2 6.5 2l3.8 1.8 1.3-3.4-2.7-2.3c-1.5-1.3-2.7-2.8-2.7-3.4 0-.6 1.1-1.5 2.5-2 2.8-1 3.4-3 .9-3-1 0-3.2-1-5-2.1l-3.5-2.2 1.9-1.9 4.8 1.6a88 88 0 0 0 7.7 2.1l2.8.6-.3 2.7-.3 2.7-4.6 2 .6 2.5c1.4 5.2 1.7 8.8.9 9.2-.5.3-3 .1-5.4-.3zm13.3-29.6-1.3-.5v-7.8h-2.7l-1.3 8.1-3.5-.7.3-3.7.3-3.7h-3.8l-1.1 2.5c-.6 1.4-1.8 2.5-2.7 2.5h-1.5v-6c0-3.2.5-6.2 1-6.5.6-.4 2.2.3 3.7 1.4l2.6 2H299l2.3 3-1.2 4.3c-.7 2.3-1.5 4.6-1.8 5s-1.1.3-1.8 0zm77-19.5c-.7-.7-1.3-2.6-1.3-4.4 0-1.7-.5-4.6-1.1-6.4L370 380l1-1c.5-.5 1.6-.6 2.5-.3l1.6.7.7 6 .7 6 7.7-1.4.6 1.6c.4 1 .5 1.8.3 2-.2.2-2.6.7-5.4 1l-5 .7zm25.8-1.2a7.5 7.5 0 0 0-2.1-3.2l-1.2-.7-2.3 2.9-2.3 2.9-1.1-1-1-1.1 1-3 2.2-8.4 1.2-5.5 4.4-.7 1.5 2.9c.8 1.5 1.7 5 2.1 7.8a21 21 0 0 0 1.7 6.2c.6.6.7 1.7.3 2.2-1.1 1.9-3.5 1.2-4.4-1.3zm-1-9.1c0-.9-.8-1.5-1.6-1.5-1.5 0-2 1.2-.8 2.3 1.1 1.2 2.3.7 2.3-.8zm11.5 10.2a84 84 0 0 1-1-8.9l-.7-7.7 1-.6c1.9-1.1 5 1.4 5.6 4.5.4 1.6 1.2 3 1.8 3 .7 0 1.9-1.5 2.7-3.3s2.3-3.4 3.3-3.6l1.7-.3v1.6c0 1-1 3-2.2 4.7l-2.3 3v8.4h-1.4c-1.4 0-2.2-1.2-3.7-5l-.8-2-.3 3.1-.4 3.2-1.5.6-1.5.5zm24 0a9.8 9.8 0 0 1-2.8-2.1c-1.2-1.7-1-11.3.4-14 .6-1.5 2-2.8 3-3.2 2.1-.7 5.4 1 6.2 3.2.4.9.1 2.3-.5 3l-1.2 1.5-4.5-1.1-.6 2.6a9.9 9.9 0 0 0 0 4.5c1 3 7.4 3.8 7.4.9 0-.5-1-1-2.2-1.2-1.1-.2-2.3-.8-2.5-1.3l-.3-1 11.3-2.7 1.4 1.4 1.4 1.5-2.5 1.6c-1.4 1-2.6 2.4-2.6 3.3v1.5l-3.5 1.4c-1.9.8-4 1.5-4.7 1.5-.7 0-2.2-.6-3.3-1.2zm20-8-1.2-9-.6-3.7h1.7c1 0 3.2 1.6 5 3.5l3.3 3.6-.2-3.8v-3.8h4l-.3 3a32 32 0 0 0 .8 7.8l1.2 4.9-1.6 1.5-1.5 1.5-1.8-2a25 25 0 0 1-3-3.8l-1.2-2-.7 3.8-.7 3.8h-2.5zm18.8 2 1.3-5 .6-2.7h2.3c1.3 0 2.4-.5 2.4-1v-1l-5 1.2v-8l1.5-1.2c.8-.7 2-1 2.8-.8 1.6.7 4.4 8.9 5.3 15.5l.6 5.3h-1.6c-.9 0-2-1.1-2.6-2.5-.5-1.4-1.3-2.5-1.8-2.5s-1.4 1.1-2 2.5-1.9 2.5-2.8 2.5H472zm17.6-1.3c-.5-1.4-1-5.5-1-9V371l3.5.7.3 5.8.3 5.8 1.5.5c.8.3 2.2 0 3-.7l1.6-1.3-.6-4.1c-.4-2.3-.4-5 0-5.9.7-1.9 3-2.2 4-.5.4.6.8 3.4 1 6.2l.2 5.1-1.3 2.7c-.8 1.4-2.1 3-3 3.3-1 .3-3.2.6-5 .6h-3.5zm-217.7-2.1c-.7-.3-1.3-1.8-1.3-3.3v-2.9l3.6-2.2c2-1.2 3.3-2.7 3.1-3.3l-.4-1.1-5.8.5-4-3 1.5-1c.8-.6 2.3-1 3.3-1s3.3-1.2 5.1-2.5a12 12 0 0 1 5.5-2.5c1.2 0 3.3.7 4.6 1.6l2.5 1.6v2c0 2.7-3.8 7.8-5.8 7.8-1.6 0-6.7 4.4-9.5 8.1-.6 1-1.7 1.4-2.4 1.2zm12.5-16.7.4-1.8-1.8.3a3 3 0 0 0-2.2 2.2l-.4 1.8 1.9-.3a3 3 0 0 0 2.1-2.2zm-25.8-9.1c-.5-1.5-1-3-1-3.5 0-.4-.7-1.4-1.5-2-.8-.7-1.5-1.9-1.5-2.6 0-1.5 10-6.3 14.6-7.1l3-.5 1.1 1.3c.6.7 1.4 3 1.8 5.1l.7 3.8h-3.1l-.7-2.5c-.3-1.4-1.2-3-1.9-3.6l-1.3-1-.6.9c-.3.5 0 2.5.9 4.4l1.4 3.4-1.5 2.4-1.7-.6c-.8-.3-1.7-1.8-1.9-3.3l-.3-2.6-1.8-.4-1.8-.3.8 2.8c.4 1.6.7 4 .8 5.3v2.5l-3.5.7-1-2.6zm1.3-23.7-3.3-2-7 2.3-5.1-3.3.3-1.5c.2-.9 2.3-2.7 4.8-4a47 47 0 0 0 6.2-4l1.7-1.6 1.6.6c.8.3 1.5 1.2 1.5 2s-1.1 2.2-2.5 3c-1.4 1-2.5 2-2.5 2.4 0 .4 2.2 1.4 4.8 2.2l4.7 1.5v2c0 1-.4 2-1 2.1-.5.2-2.4-.6-4.2-1.7zm-15.2-15.8c-.7-.4-1.1-1.4-.9-2.1.2-.7 2.9-2.1 5.9-3.1 3-1 6.2-1.8 7.2-1.8h1.7v1.4c0 1.5-5.6 4.8-10 5.9-1.4.3-3.1.2-3.9-.3zM180 307.3c-1.5-.9-3.2-2.6-4-3.9-.6-1.2-1.5-2.3-2-2.3-.8 0-7-6.4-10.3-10.8-1-1.4-5-5.8-8.5-9.6l-12.4-13.8a28.5 28.5 0 0 0-7.2-6.8c-.8 0-1.4.2-1.4.4s1.5 2.8 3.3 5.7c4 6.8 10.3 15 15.6 20.9a23 23 0 0 1 4.1 5.2c0 .5-.8.8-1.7.8h-1.8l-4.6-5.7-7.3-8.8a13.4 13.4 0 0 1-2.6-3.8c0-.4-1.2-2.6-2.7-5-4.5-6.9-6-10-5.5-12 .2-.9 1-1.7 1.9-1.7s2.7 1 4.2 2.3c1.4 1.2 8 7.8 14.5 14.7 25.2 26.4 31 32.2 31.4 31.2.4-1.2-2.1-6.3-4-8.3-.8-.8-3.9-4.7-7-8.9-3-4.1-9.5-12-14.3-17.5a923.2 923.2 0 0 1-26.3-31c-6.5-8.5-10.2-13-14.5-17.5-2.9-3-7.9-9.5-11.2-14.3a114 114 0 0 0-9-12.1 460 460 0 0 1-11-13.6 565.8 565.8 0 0 0-13.2-16.4 31.3 31.3 0 0 1-5.3-7.3c0-.7-.8-1.8-1.9-2.5-2.8-2-8.7-10.2-10.1-14-.7-2-1-4.3-.7-5.2l.7-1.7h8.3l4.3 2.8c2.4 1.5 4.6 3.6 5 4.6.3 1 3 4.7 6 8.2 3 3.5 5.4 6.7 5.4 7s1.6 2.6 3.5 5l7.1 9c2 2.8 6.7 8 10.2 11.7a133 133 0 0 1 12.6 16 338 338 0 0 0 9.2 13.3c6.9 9 21 27.8 22.3 29.8.8 1.2 2.7 3.6 4.2 5.2s4.1 5.2 6 8a109 109 0 0 0 5 7l6 7.5 4.3 5.4.4-1.3c.3-.7-.5-2.6-1.7-4.1s-2-3.5-2-4.2 3-4.1 6.6-7.5c3.7-3.5 7.1-6.3 7.5-6.3.4 0 1.5 1.2 2.5 2.6.9 1.4 2.7 3 4 3.5 1.3.5 2.3 1.5 2.3 2.4v1.5h-1.8c-1 0-2.7-.9-3.7-2-1-1-2.3-2-3-2-.6 0-1.6.5-2.3 1.2l-1.1 1.2 2.4 3.2c1.4 1.8 2.5 4.2 2.5 5.2s-.6 2.2-1.4 2.5-1.7.3-2 0c-.3-.3-.6-1.4-.6-2.4s-1-2.8-2-4l-2.1-2-1.5 1.2a5 5 0 0 0-1.4 3.4c0 1.2 1 3 2 4l2 1.8v3.7c0 3.3-1.4 6-3 6-.7 0-5.6-6-18-22a1061 1061 0 0 0-15-19.1c-9.3-11.6-25-32.4-26.6-35a52 52 0 0 0-9-10c-1.6-1.4-6-6.4-9.6-11l-12-15a359.6 359.6 0 0 1-15.5-20.4c-8-10.5-9.7-12.6-11-12.6h-1.3v4.6l5.5 6.8c3 3.8 5.5 7.2 5.5 7.6 0 .3 1.8 2.6 4 5.1a410 410 0 0 1 21 26.4c.8 1.3 3.3 4.3 5.5 6.8s5.5 6.5 7.3 9a970.9 970.9 0 0 0 24 30.8 10 10 0 0 1 2.2 3.3c0 .4 1.7 2.6 3.8 5s5 6 6.7 8.2a360 360 0 0 0 16.5 19.5l7.6 8.5c7 8 14.3 17.4 17.8 22.8 1 1.6 1.6 3.8 1.4 5l-.3 2.2-2.5.2c-1.4.1-3.7-.5-5.2-1.5zm49-29.8c-1.8-2.6-4.7-6.5-6.5-8.6a19.4 19.4 0 0 1-3.3-4.8c0-.5.5-1.2 1-1.5l1-.7 3.8 4 7.6 8.6 3.8 4.7-.6 1.5c-1 2.7-3.6 1.5-6.9-3.2zm-19-24.6a177 177 0 0 0-7.7-9.6c-3.3-4-5.8-7.8-5.5-8.3.3-.5 1.1-.9 1.9-.9 1.7 0 16.7 18 16.2 19.4-.7 2-3.4 1.7-4.9-.6zm39.3.7a19 19 0 0 1-1.5-5.5l-1.3-7.8-.5-3.2 1.6-2.5 1.7-2.5h6.6l2.6 2a10 10 0 0 1 3.2 5l.7 3.1 4.8 2.2v6.4l-2 1.7-1.9 1.8-13.2.3zm12.4-3.9 1.9-1.3-2.1-1.2c-2.6-1.3-9.3-1.5-9.3-.1 0 1 4.8 3.9 6.6 4 .6 0 1.9-.6 2.9-1.4zm-5.8-9.2.6-1.6-1.4-.9c-.8-.5-1.7-.9-2.2-.9-.4 0-1 .7-1.4 1.6l-.6 1.6 1.4.9a6 6 0 0 0 2.2.9c.4 0 1-.7 1.4-1.6zm-90.7 11.1v-2.5l4.8-2.2c2.6-1.3 4.7-2.7 4.7-3.3 0-.5-1.5-1.1-3.4-1.3-2-.2-4-1-4.6-1.9l-1.1-1.6-2.2 1.2c-1.1.6-3 1.1-4.1 1.1h-2v-1.5c0-.8.4-1.5 1-1.5s3.4-2.3 6-5.1l4.8-5.2 1.7.7 1.6.6-.3 5.1-.4 5.2 7 2.4.3 2 .3 1.9-4.2 2.4a46 46 0 0 0-6 4.3c-1 1-2.3 1.7-2.9 1.7s-1-1.1-1-2.5zm141.2.6c-1-1-2.3-2.6-3-3.5-.6-.8-1.8-1.3-2.6-1-.8.3-1.6 1.4-1.9 2.5-.3 1-1 2-1.6 2s-1.4-.9-2-1.8c-.4-1-1.1-4.1-1.5-7l-.6-5 1.2-1c.7-.6 3-1.3 5-1.6l3.8-.6v1.5c0 .7 1 2 2 2.6l2 1.3.7 3.7c.3 2 1.2 4.3 2 5 .7.5 1.3 1.6 1.3 2.3 0 .7-.7 1.6-1.5 1.9l-1.5.6zm-4.4-12 .4-1.1h-2.1c-2 0-2.7 1-1.4 2.4 1 .9 2.6.2 3-1.2zm16 9.3c-1.5-2-3-5-3.3-6.6l-.7-3 5.6-5.8h2.8c1.5 0 2.8.4 2.8 1 0 .5-.4 1-1 1-.5 0-1 .6-1 1.4 0 .8-1 1.8-2 2.1l-2.2.7.7 2.6c.4 1.5 1.1 3.3 1.7 4 .6.6 2.2 1.2 3.5 1.2h2.4l-.6-1c-.3-.5-1.7-1-3-1h-2.5v-1.3c0-.8 1.1-2 2.5-2.7l2.5-1.3 2.5 1.1 2.5 1.2v6l-2.2 1.4c-1.3.8-3.6 1.7-5.3 2l-3 .6zm-43.6 0c-1.7-1.3-3.6-4-4.2-5.9l-1.1-3.4 1.1-2.1 1.2-2.1 3.3.7-.2 2.4-.3 2.5 2.4 3 2.4 3 3.3-2.8-.6-1.9a12 12 0 0 1 0-5l.7-3 4 4 .6 4.6.5 4.7-1.8 2-1.8 2h-6.5l-3-2.6zm119.7-.3c-1.2-1.7-2.9-3.1-3.6-3.1-.7 0-1.6.7-2 1.5-.2.8-1.1 1.5-1.9 1.5-.7 0-1.7-.8-2.2-1.7a30 30 0 0 1-1.7-7l-.7-5.2 2.6-2.6c2.5-2.4 6-3.2 8.2-1.7 2 1.3 3.8 5.6 4.4 10.2l.5 4.5 5.6 2.7-.3 1.6-.3 1.7-6.3.6-2.3-3zm-1.9-10c0-1.5-2.8-3.3-4-2.6l-1 .7 1 1.4c1.4 1.5 4 1.9 4 .5zm-55 11c-.5-.1-1-1.1-1-2.2v-2l5.9-2-.6-1.7c-.3-1-1.3-2.5-2-3.4-.9-1-1.3-2.4-1-3.3l.7-1.5h4c2.3 0 5.4.6 6.9 1.4 2.6 1.4 5.1 5.3 5.1 7.9 0 .7-1 2.5-2.4 4.2l-2.3 3h-6.2c-3.3 0-6.5-.1-7-.3zm13-7c0-.9-.4-2.3-1-3l-.9-1.6-2.3 2.4.6 2.5.6 2.5 1.5-.5c.8-.4 1.5-1.4 1.5-2.3zm12.5 5c-.8-1.7-1.5-4.3-1.5-6 0-3.6 2.9-9 5.3-9.7a7 7 0 0 1 3.5 0c2.5.8 6.2 7.7 6.2 11.4v3l-2.6 2.1-2.7 2.1h-6.6l-1.6-3zm9.5-3.5 1.2-1.5-1.2-2.1-1.1-2.1-4.4.6-.3 1.8c-.5 2.8.5 4.7 2.7 4.7 1 0 2.4-.6 3-1.4zm33.6 4.2a76 76 0 0 1-1-8.2l-.5-7 1-1.3 1.2-1.3H418l.6 1.5.5 1.5-1.9 1c-1 .5-3.2 1-5 1h-3v3h11v4l-2.2.4a87 87 0 0 1-4.3.8c-1 .2-2.6 1.6-3.3 3-1.3 2.9-4 3.7-4.6 1.6zm-258-24.8-2.9-3 .1-3v-3.2l4.6-4.8h3.6c2 0 4.6.7 5.8 1.5l2.2 1.6v7.4l-5.9 6.5h-4.7l-2.9-3zm7.1-2.2 2.3-2.2V214l-3-1.2-2.5 2.3c-1.4 1.3-2.5 3-2.5 3.7 0 1.7 1.8 5.3 2.7 5.3.4 0 1.7-1 3-2.2zm-21.6-13.7c-.6-1-1-2.8-1-3.8s.6-3 1.3-4.5l1.4-2.7-4.8-3.2-2 1c-1.1.7-2.5.9-3 .6-2-1.3-.9-3.5 3.3-6.4 2.3-1.6 5-3.8 6.1-5 1-1.2 2.3-2.1 2.8-2.1a26 26 0 0 1 9.4 6.8l1.4 2-1.8 5-6.2 2v2c0 1-.6 2.5-1.4 3.1-.8.7-1.6 2.4-1.8 3.8-.1 1.5-.8 2.8-1.5 3-.6.2-1.6-.5-2.2-1.6zm9-16.3 1.1-2-1.3-1c-.8-.4-1.9-.8-2.5-.8-.6 0-1.7.6-2.4 1.5L136 191l1.2 1.5c.7.8 1.9 1.5 2.6 1.5s1.9-1 2.5-2.2zm6-18-5.1-6.8c-2.2-3-4-6.2-3.7-7 .5-3 3.5-1.5 7.8 4 5 6.2 7 9.6 6.1 10.4-1 1-4 .6-5.1-.7zM99.5 160l-3.3-3v-6.8l3-2a12 12 0 0 1 5.8-2.1h2.9l1.6 1.8c1 1 2 3.2 2.3 5l.7 3.1-2.5 5.9-2.1.6a19 19 0 0 1-3.7.5c-.8 0-3-1.3-4.7-3zm8.3-2c.3-.6.3-2.6 0-4.5l-.7-3.4h-1.4c-.8 0-2.2 1-3 2.4L101 155l1.3 4h2.4c1.3 0 2.7-.4 3-1zm19.1-10.7a90.8 90.8 0 0 1-13.7-18c0-.7.6-1.5 1.3-1.8l1.4-.5 4.7 4.8c7.1 7.3 12.7 14.6 12.4 16.2-.5 2.6-3.1 2.2-6-.7zm-43-6.5c-.2-.7 1.6-3.2 4-5.6s4.3-4.8 4.3-5.5c0-.6-.5-2.8-1-4.8l-1-3.7-5.5-.7-.3-1.7-.3-1.8 3.4-1.3 6.6 3.6.9 2.6 2.3 7.1 1.4 4.5 3.2 2c1.8 1.1 3.3 2.6 3.3 3.3 0 2.3-3.9 1.3-7.4-1.8l-3.4-3-.7 2c-.7 2.2-6 6-8.2 6-.6 0-1.3-.5-1.5-1.2zm17.7-24a127 127 0 0 1-10-9.3l-6.9-7-21-14-10.5-4.3c-5.8-2.4-11-4.8-11.5-5.2-.5-.4-3.2-1-6-1.4l-8.2-1.2-3.3-.5v-2.7l16.5-.8L58 74.3 57 77h1.6c.9 0 1.6-.6 1.6-1.4v-1.4l4 1-2.1 2.7 5.2 3.4-2.6 1.7h1.5a6 6 0 0 0 3-1l1.5-1-2.5-4h1.5c.8 0 1.5-.3 1.5-.6 0-1.3-2.4-9-3-9.9-.5-.6-1.1-4-1.5-7.5-.4-3.6-1.4-8.7-2.3-11.4L63 42.7l1.2-2 1.2-1.9-.6-2.9c-.4-1.6-1-3-1.5-3-1.5 0-2-3.6-1-6.4l1-2.7 2.5.9-.3 2.6c-.2 1.5.4 3.7 1.2 4.9l1.6 2.2v8c0 7.3 1.5 14.4 3.3 16.3.4.3.7 1.4.7 2.3 0 1.6 4.9 11.9 8.8 18.5A47 47 0 0 0 91 93.3c1.8 1.6 3.3 3.3 3.3 3.8 0 1.4 9.4 15.1 11.4 16.8 1.9 1.6 2.2 5.2.4 5-.7 0-2.7-1-4.4-2.2zM80.2 88c0-.5-.4-1-1-1-.5 0-1 .5-1 1s.5 1 1 1c.6 0 1-.4 1-1zm-5.5-4.6 1.7-.7L75 82c-2-1.3-2.8-1-2.8.6 0 .8.2 1.5.4 1.5l2.1-.6zm4.2-1a1 1 0 0 0-1.4 0c-.3.3 0 .6.7.6s1-.3.7-.6zm-2-3a1 1 0 0 0-1.4 0c-.3.3 0 .6.7.6s1-.3.7-.6zm-76.5-7 .3-1.9 15.8-.6 1 1c.6.6.9 1.3.6 1.5-.2.2-4.4.7-9.2 1.1l-8.9.8zm56.6-8a28 28 0 0 1-5.6-6L51 57h5l4 4.3c2.3 2.3 4 5 4.1 6 0 1-.4 1.7-1 1.7-.5 0-3.3-2-6.2-4.7zm-20.7-23a40 40 0 0 1-6-6.7l-5.7-8-2.7-3.8 3.2-3.2 3.3 4.8c1.8 2.7 5.7 7.6 8.6 11 2.8 3.5 5.2 6.8 5.2 7.4 0 1.9-2.7 1.2-5.9-1.5zM66 16.8A44.2 44.2 0 0 1 69.8 1l1-1 3.4 2.5-1 3-2.4 7.5-1.4 4.5-1.5.3c-.8.1-1.7-.3-2-1z"/>
</svg>
