<?xml version="1.0" encoding="utf-8"?>
<svg xmlns="http://www.w3.org/2000/svg" version="1.1" viewBox="0 0 702 857">
	<title>Sketch of a road with walls to either side, leading down into a large city in the distance.</title>
	<path d="M243.2 855.4c-1.1-3 .5-6 3.1-6 3.8 0 5.2 2 3.8 5-1.3 2.9-5.9 3.6-6.9 1zm-3.8-23.2c-2.8-4-6.3-9.3-8.2-12.7-1.8-3 .3-4.8 2.3-2 12 16.2 11.8 15.9 10 17.4-1.1.9-2 .4-4-2.7zm38.5-5a47.5 47.5 0 0 0-17.8-15.3c-5.8-3.8-7.7-6-5-6a88 88 0 0 1 29.3 22.3c3.2 3.1 3.7 4 2.5 4.8-2.8 1.7-4 1-9-5.8zm-98.5 4c-1.7-1.7-.1-8.3 2-8.3 2 0 2 7.6 0 8.4-.7.3-1.6.2-2 0zm22.6-1c.4-2.1 3.4-2.4 3.4-.3 0 .8-.9 1.7-1.9 1.9-1.3.2-1.7-.2-1.5-1.5zm168-.7c-8.1-2.2-10.9-4.2-11.6-8.2-.4-2.2-.3-3.8.4-4.3.6-.3 5.5.8 11 2.6 5.3 1.8 10.5 3 11.5 2.7 1.6-.5 1.7-.3.7 1.5-1.1 2.3-6.4 3-7.5 1.1-.4-.5-1.8-.9-3.3-.8-2.1 0-2.3.2-.7.6 1 .2 2.4.8 3 1.3.5.5 1.7 1 2.8 1 1.2 0 1.7.5 1.5 1.7-.4 2.2-2.2 2.4-7.8.8zm-171.2-8.2a46.7 46.7 0 0 1-.2-19.4c.6-3.6.8-11.5.5-17.7-.5-9.9-.3-11.3 1.1-11.9 1-.3 2-.3 2.4 0 .3.4.7 6.2.9 13 .3 12.2-.7 19.3-3.3 25.5-1.2 2.8-1.2 3.5.1 4.8 1.7 1.7 2.1 8.3.5 8.3-.5 0-1.5-1.1-2-2.6zm-18.5-2.5c-1-2.6-.1-5.3 1.8-5.7 2.2-.4 2.3 2.6.3 5.4-1.3 1.8-1.5 1.8-2 .3zm162.8-2.4a14 14 0 0 0-3.6-2.5c-.4 0-2.3-1-4.3-2.5-2-1.3-4.9-2.5-6.2-2.5-2.9 0-6.5-2.1-10.6-6.2-2.4-2.4-3.5-2.8-8.8-2.8-3.3 0-9.2-.9-13.1-2L287 795c-1.3-.4-2.6-1.3-2.9-2-.6-1.7 5.7-1 16.3 2 3.8 1 9.3 1.8 12.1 1.8 4.6 0 5.8.5 10 4 2.8 2.3 6 4 7.3 4 3.7 0 19.2 9.8 19.2 12.1 0 2-3.3 1.6-6-.6zm19.4-7.4a49 49 0 0 1-18-8c-1.4-2.3 2.6-2 8.6.5a245 245 0 0 0 13.7 5.1c4 1.4 7.1 3 7 3.6-.7 1.8-1.9 1.7-11.3-1.2zm-180.7-.8c0-.5 1-4.5 2-8.8 2.2-8.4 3.9-11.1 6.4-10.1 1.3.5 1.3 1.1-.3 5.3-1 2.7-2.5 6.9-3.2 9.3-.9 2.8-2 4.6-3.1 4.9-1 .1-1.8-.1-1.8-.6zm64.4-7c-2-2-5.1-6.7-7.1-10.3-2-3.5-4.7-7.6-6-9-2.1-2.3-3-6-1.6-7.3.4-.3 2.5 2.2 4.8 5.6a626.4 626.4 0 0 0 11 16.2l4.2 6.3c2.9 4-1.4 2.8-5.3-1.5zm226.4 2.7a108.3 108.3 0 0 1-23.6-4.2c-19-6.6-34.4-10-41-9.4-6.4.7-11.4-.3-11.8-2.5-.2-1.4 1.2-1.5 10.5-1.3 6 .2 12.4.8 14.3 1.3l13 3.5 17 4.4c11.6 3.2 16.8 4.1 26 4.8 4.7.4 8.7.8 9 1 .1.2 0 1-.3 1.9-.6 1.7-1 1.7-13.1.5zm-138.2-6-6.5-1.8c-10.5-2.8-23-8.9-34.8-16.9a44.2 44.2 0 0 0-8.8-4.9c-1.7-.4-2.7-1.5-3-3.5-.4-1.6-1-3.1-1.5-3.4a2 2 0 0 1-.9-1.5c0-1.3 4.7-1.2 5.5 0 .4.6 1.5 1 2.6 1 2.8 0 2.4 1.9-.6 2.6-3.1.8-2.3 2.2 2.4 4.2 2 .8 5.6 2.8 8 4.5 6.3 4.3 18.4 10.1 26.6 12.8 12.8 4 17 5.7 17.3 6.8.5 1.3-1.8 1.3-6.3.1zm61-1c-.9-1.5.2-2.3 2.1-1.6.9.4 1.3 1 1 1.6-.8 1.3-2.2 1.3-3 0zm153.4-3.6c-1.3-1.3-.7-2.4 1.3-2.4 1.1 0 2 .7 2 1.5 0 1.6-2 2.1-3.3.9zM370 790.8c-2.3-2.5-2.5-4-.8-5.7 2.1-2 4.8-1.4 4.8 1.3 0 1.5.8 3 2 3.5 2.9 1.6 2.4 3-1 3-1.7 0-3.8-.8-5-2.1zm-257.2.1c0-.5.7-1 1.5-1s1.5.5 1.5 1-.7 1-1.5 1-1.5-.4-1.5-1zm160.4-2a22 22 0 0 0-8.6-3c-3.5 0-5.7-1.4-5.7-3.8 0-1 .6-1.2 2.2-.7 1.3.4 4.3 1 6.8 1.5 4.4.7 14 6.3 14 8.1 0 1.8-3.5 1-8.7-2zm-168.4 1c0-.6.4-.8 1-.5.5.4 1 .9 1 1.1s-.5.4-1 .4c-.6 0-1-.4-1-1zm471.3-1.7c0-1.6 1.2-3.9 3.2-5.9 2-2 2.9-3.8 2.5-4.8-.5-1.2-1-1.4-2.3-.7-3.4 1.8-10-2.3-8.7-5.4.4-1 1.4-1.2 3-.8 2.5.6 2.6.5 2-2.8a10 10 0 0 0-2.6-5c-1.7-1.4-1.8-2.3-1.1-10 .4-4.6.5-8.7.3-9.2s-4-.7-8.1-.6c-11.5.4-14.2.1-14.2-1.4 0-1 2.4-1.5 9.3-1.9 10.6-.5 14.2-1.8 13.2-4.9a37 37 0 0 1-.6-7.7c0-3-.4-12.4-1-20.6-.9-14.7-.8-15 1.4-17.3 1.9-2 2.2-3.4 2-8.9 0-3.6-.7-7.2-1.4-8-2-2.4-1.8-24.3.2-27.4 1.2-1.8 1.4-3.1.7-5-.5-1.3-.9-5.1-.8-8.4l.1-9c0-4-.9-14.2-1.7-18.3-.7-3.6 1.4-16 2.8-16.9.5-.3 1.2.4 1.5 1.6.7 2.6 1.8 2.6 3.8-.1 1-1.6 1.2-2.6.4-3.5-.8-1-.8-1.8.1-2.8.9-1 1-2 .3-2.8a87.5 87.5 0 0 1-2.4-26c.1-6.9.4-7.7 2-7.7 1 0 3 .8 4.2 1.8 2 1.6 2.6 1.7 3.6.6 2.2-2.1 1.6-3-2.7-4.3-3.2-1-4.8-1-7.5 0s-3.7 1-4.7 0a5 5 0 0 0-3-1.1c-1.2 0-1.8-.8-1.8-2.5 0-2.4 0-2.5-6.7-1.9a193 193 0 0 0-21 3c-2.7.5-3.2 1-3.8 4.7-1 4.9-1 19.4 0 28.9.5 5.7.4 6.8-1 6.8-.8 0-1.5-.2-1.5-.3l-1-6.2a91.6 91.6 0 0 1-1-28.7c1-3 1-4.1.1-5.2-.8-1-1-4-.5-10.3.5-6.7.2-10.4-1-15.1-2-7.5-1.3-15.4 1.7-19.5 1.8-2.4 1.9-3 .7-5.2-1.2-2.3-1.1-2.7.5-3.9 2-1.4 1.3-3.6-1-3.6s-2.5-3-.3-4.5c1.9-1.3 2-1.7.7-3.1a26 26 0 0 1-2-9.8l-1-10c-.3-1.6.2-2 3.2-2 2 0 4 .3 4.7.7.8.5 1 4.7.7 13.8-.4 14.4.2 17 4.7 19 4.3 1.7 3.4 4.5-1.4 4l-3.7-.3-.6 10.8c-.9 16.4-.5 33.7.7 34.5.6.4 2 .3 3.2-.1 2.3-.8 19.3-3 26.6-3.3 4.2-.2 4.5-.4 5.3-3.7.5-2 .8-9.7.7-17.3 0-8 .4-14.5 1-15.7 1-2 1.3-2 3.5-.5 2.4 1.6 2.4 1.6 1.9-1.8-.4-2.3 0-3.7 1-4.6.8-.7 1.3-2 1-2.7-.8-2-2.1-1.8-2.9.6-.8 2.5-2.7 2.5-5-.1-2-2-1.9-2.1 1.3-4.8 4-3.2 4.1-4.9.6-5.3-3.5-.4-5.2-5-5.2-13.8 0-8.2 1.4-11.6 5.8-13.8a7.7 7.7 0 0 0 4.4-5c1.3-4.5-.4-6.2-3.3-3.3-1.1 1.1-2.5 2-3 2s-.7-8.9-.4-21c.5-20.7.5-21 3-23.7 1.8-2 3.3-2.6 5.4-2.4 4 .4 3.9-2 0-3.5-2.5-1-3-1.7-3-4.3 0-1.6-.5-3-1-3-.6 0-1 1-1 2.3 0 3.7-2.2 5.6-8 7-3.1.8-8.1 2.4-11.3 3.6a34.2 34.2 0 0 1-8.8 2c-1.7 0-4.6.7-6.5 1.5-10.3 4.3-20 2-15-3.5 1.2-1.2 1.3-2.3.6-4.1-.9-2.4-.6-24.1.4-28.5.3-1.2 0-2.5-.5-2.8-.5-.4-1-1.5-1-2.6 0-2.7 3.2-2.5 6 .5 1.6 1.8 2 2.8 1.2 4.2-.5 1-1.2 9.4-1.5 18.6-.5 14.5-.4 16.8.9 16.8.8 0 2.6-1.1 3.9-2.4a22 22 0 0 1 7.2-4c5.5-1.8 19.8-4.6 23.6-4.6 2 0 3-1 4.8-4.7 2.1-4.3 2.1-4.7.6-7.4-2.1-3.5-2.3-16.7-.3-19.5.8-1 2.7-1.9 4.3-1.9 2.4 0 2.8-.5 3-3.3.3-2.7-.1-3.5-2.2-4.2-2.7-1-3.3-3.8-1-4.7 2.2-.8 1.9-4-.5-4.8-1.3-.5-2-1.5-2-3.5 0-3.5 1.3-4.5 3.9-3 1.6 1 2.4.9 5-1 1.7-1.2 3.1-2.6 3.1-3.1 0-1.6 2.6-1 4.3.8.8 1 2.3 3.9 3.2 6.5 1 2.6 2.6 5.4 3.7 6.4 1.8 1.6 1.9 1.6 1.9-.6 0-2.8 1.7-2.3 4.4 1.3 1.7 2.3 1.8 3 .7 4.7-1 1.7-.9 2.5.9 4.7 2.3 3 7.9 6.7 8.7 5.8.3-.3 0-2.3-.7-4.4-1.8-5.4-1-7.4 3.3-9.5 3.3-1.6 3.7-2 2.2-2.9a7 7 0 0 0-4.1-.3c-2.8.7-2.5 1.4-8-15.6-3.8-11.7-4-16.8-1-16.8 1 0 1.6 2.1 2.2 7.1.5 4.2 1.4 7.4 2.1 7.6.7.3 1.3-.4 1.3-1.6 0-3.4 1.1-5.1 3.5-5.1 3.6 0 4.7-2.3 3.8-7.2-1-5-2.6-5.6-3.3-1.3-.7 3.7-3.4 4-3.9.5a6 6 0 0 0-1.6-3.6c-2.4-1.8-4.8-12.2-4-17.1.5-4 .4-4.5-1.5-5-1.1-.3-2-1.4-2-2.4 0-2.1 3.1-4.2 5.2-3.4 1.9.7 5 8 5.5 12.7.3 3.2 0 3.8-1.7 3.8s-2 .6-2 3.4c0 4.6 1.6 5.4 4.8 2.2 2.2-2.2 2.5-3.3 2.3-7.6-.3-5-.3-5.1 2.5-4.8 2.3.2 3-.2 3.2-1.8.1-1.2-.4-2.7-1.3-3.4-1.1-1-1.5-3.2-1.5-8 0-4.7-.5-7.2-1.5-8-.8-.6-1.7-2.5-2-4.2s-1.3-4.1-2-5.6a28 28 0 0 1-1.1-18.6c1.5-5.3 1.5-6-.3-13.4-1.5-6.4-1.7-9-1-15.7.6-4.4 1-9.6 1.2-11.5s.6-4.1 1-4.9c1.7-2.6 2.6 1 2.7 10.4 0 12.1 1.1 16.4 5 19.7 3 2.5 3.3 3.3 4.6 12.8a103 103 0 0 1 1 11.3c-.3.6-.7 2.5-1 4-.6 2.1-1 2.7-1.8 1.9s-1.6 0-3 2.5c-2.2 4.5-2.3 5.6-.3 7.3.8.7 1.5 2.9 1.5 5 0 3.2.4 4 1.8 4 2.9 0 4-2 3.5-6-.6-4.5 1-8 3.7-8 2.3 0 2.6-1.6.5-2.4-2.6-1-2-11 1.1-17.5l2.6-5.5-2.2-1.8c-1.8-1.5-2.1-2.4-1.5-4.6.4-1.5.9-5 1-7.7s1.3-8.9 2.4-13.5a62 62 0 0 0 1.6-8.8c-.1-.2-1 .4-1.8 1.2-2 2-3.6 2-6.1 0-1.7-1.2-1.8-1.9-.8-5.2 2.6-9 3-12 1.5-13.5-1.2-1.2-1-2.4 2.1-8.8 3.5-7.2 4.3-10 2.8-9.8-2.5.4-3.4-.3-3-2.4 1-4 3.4-9.8 4.6-11 2-2 1.3-3-1.7-2.2-2.4.5-3.2.2-4-1.4-1.6-3-1.3-6 .8-8.7 1-1.4 1.7-3.3 1.4-4.4-.3-1.2.2-2.2 1.6-3 2.9-1.5 5-7.2 5.8-15 .6-5.8.4-6.3-1.1-5.7l-2.2.7a23 23 0 0 0-.4 5.9c0 7-.7 9.1-2.6 8.4-1-.4-1.4-2.5-1.4-8.3 0-7.2.2-8 2.5-9.4 2.7-1.8 2.7-2.7.4-12.6-2-8-2-22.8-.2-24.6 1.6-1.6 5.3-2 5.3-.5 0 .5 2.2 3.4 5 6.4l5 5.4.3 17.2a72 72 0 0 0 1.6 18.3c.6.7 1.1 3 1.1 5.4 0 3 .5 4.6 1.6 5.2 1 .5 1.8 2 2 3.3l1.4 9.5c.6 4.3.7 8.7.2 11-.8 3.6 0 25.2 1.1 31.9 1 5.1 2.9 57.4 2.2 58.4-1 1.6-3.3 1.3-4.4-.7-.8-1.3-1-.6-.5 2.8.4 2.4 1.3 5.2 2.2 6.2 2.3 2.7.9 4.9-2.8 4.1-1.8-.3-3-.2-3 .4 0 1.4 2.6 2.4 4.4 1.7 1.6-.6 8 2.8 11.9 6.4 2.5 2.4 2.7 3.1 2.7 10.4 0 8-1.4 13.2-4.3 15.6-3.5 2.9-1.2 11.1 3.6 13.3 2.5 1 3.6 2.5 5.2 7 1.1 3.2 3.4 7.3 5 9 4 4.4 6.7 9.3 6 11.1-.3.8-1.8 2-3.3 2.7-2.5 1.2-2.9 1-6.5-3.3-3.9-4.6-6.7-6-6.7-3.2 0 .8.4 1.7.9 2 1.4.8 1.9 6.5.7 7.5-.6.5-3 1.4-5.5 2-3.7 1-4.6 1-5.2-.2-.5-.8-2-1.8-3.4-2.2-2.5-.6-2.6-.8-2-5.2.6-3.7.3-5.5-1.3-8.7-4.8-9.8-4.7-9.3-2.5-13.9 3.1-6.5 3.6-11.5 1.2-12.8-2.6-1.4-5.7.4-6.5 3.8-.9 4.3-6.4 18.4-8.5 21.8-1 1.7-2.8 4.2-4 5.5-4.5 5.2-7.4 17-4.2 17a48 48 0 0 0 8.8-4c6.8-3.6 10.5-4.3 10.5-2 0 1.7-3.7 4.2-9.1 6.2-8.4 3-8.9 3.1-11.5 1.7-3.4-1.8-5 .5-2.8 3.9 1.2 1.9 1.4 4 .9 10.7-.7 7.8-.6 8.3 1.4 9.4 2.2 1.2 2.8 4.5 1 5.6-1.3.8-1.2 3.5.2 3.5.6 0 1.3-1 1.6-2 .4-1.7 1-2 3.8-1.5 2 .4 4.4 0 6.1-.8 3.9-2 14.2-4 17.9-3.6 4 .5 4.2 2.3.8 5.7-2.9 3-10.9 5.3-22.6 6.7a13 13 0 0 0-6.9 2.6c-1.8 1.9-1.8 2.2-.4 3.8 2.1 2.3 2 4-.3 4s-2.9 5-2.1 18.1c.4 7 .8 8.5 2.2 8.8 1 .2 1.8-.1 1.8-.7s3.2-2 7-3.3c7.8-2.5 9-2 9 3.3 0 2.2-.8 3-5.3 4.8-3 1.2-6.9 2-9.2 1.8-3.3-.2-4 0-4 1.5l.3 11.8.2 10h3.2c1.7 0 4-.8 5-1.7 2.2-2 4.8-1.1 4.1 1.6-.8 2.9-2.5 4-7.4 4.9-5.3.9-5.9 2.4-5.2 13.7a28 28 0 0 0 2.4 11.3c2 3.4 2 3.5 0 5.6-1.8 1.9-2.1 3.5-2.1 11.4 0 10.6.7 12.5 5 14 3.6 1.3 3.8 4.5.3 5-3.7.5-5 3.2-5.7 11.9l-.7 8.2 3.7 1.5c4.3 1.8 4 3.6-.7 4.9-2.8.7-3.6.5-4.4-.9-2.3-3.9-4.7-6.4-5.6-5.9-1.4.9-1 4 .6 5.5.8.6 1.5 2 1.5 3.1 0 1 1 2.3 2.4 2.8 3 1.2 3.8 5.2 3.5 19.5l-.3 11h3.4c2.5 0 3.5.6 3.8 1.8.4 1.9-2.7 3-8.7 3.2-3.6 0-3.6.1-4 4.6-.2 4 0 4.3 1.1 2.6 1.1-1.5 1.6-1.6 2.5-.5a71 71 0 0 1 1.5 24.4c-.5 1-.7 2.5-.5 3.2.6 1.6 3.5 1.6 5 0 1-.8 1.6-.8 2.3-.1 1.7 1.7 0 4.2-4 6l-3.9 1.9.5 6.5.8 10.1c.2 2 0 6.1-.6 9-.5 3.7-.5 6 .3 7.5 1.6 3 .4 5.7-2.1 4.9-3-1-3.5 1.6-1.6 7.1 1 3 1.6 8 1.6 13.6 0 8-.2 8.9-1.8 8.6-1.3-.3-1.9-1.8-2.4-6.4-.8-7-1.7-11-3.4-14.2-1.2-2.3-1.2-2.3-1.9 1.2a23 23 0 0 0 0 7c.4 2 .4 6 0 9-.6 4.6-1 5.6-2.6 5.6-2.6 0-2.4 1 .7 3.5 3.3 2.6 2.4 4.6-1.7 3.8-1.9-.4-3-.2-3 .6 0 1.8 3 5.8 5.6 7.5 2.5 1.6 2.5 1.6 2.2-1.7-.2-2.7.2-3.3 2-3.6a6.8 6.8 0 0 0 3.8-2.2c1.8-2 4-2.5 4.8-1.2.2.4.8 2.7 1.2 5 .6 4 .5 4.3-2 5.2-2.1.9-2.5 1.6-2.5 5.1 0 3.9.2 4.2 4 5.7 2.2.8 4 2 4 2.7 0 2-1.5 3.3-4 3.7-2.4.3-2.6.8-3.2 7.9l-1.2 11.3-.4 3.7 4.2-.6c2.9-.4 4.6-.2 5 .5 1 1.7-2.2 5-5.8 5.9-2.9.7-3.1 1.1-3.1 5.2 0 4.3-.1 4.5-3.2 4.5-4.1 0-5 1-3 3.4 1.7 1.7 1.7 2.1.2 5-.8 1.6-1.5 3.9-1.5 5 0 1.4-.7 2-2 2-3.9 0-4-13.2-.2-17.3l2.3-2.4-3.2-1.6c-4.2-2.1-5-2-5 .2 0 1-.6 2.4-1.3 3-.8.7-2.2 5-3.2 9.7-1 4.6-2.4 9-3 9.6-1.4 1-1.8 1-6.4-1.6-2.2-1.3-2.8-1.3-4.8 0a10 10 0 0 1-4.7 1.5c-1.4 0-2.6.5-2.6 1.2s-.3 2.3-.6 3.5c-.5 1.7 0 2.4 2 3.2 1.5.6 2.6 1.4 2.6 1.8 0 1.3-8.7 5.3-11.5 5.3-2 0-2.5-.5-2.5-2.8zm22.7-19.4c-.3-.8-.5-.6-.6.6 0 1 .2 1.6.6 1.3s.3-1.2 0-2zm.4-16.7c0-1.2-2.6-2.2-3.5-1.4-1.2 1.2-.5 2.2 1.5 2.2 1 0 2-.4 2-.8zm-11-2.2c0-.5-.5-1-1-1a1 1 0 0 0 0 2c.5 0 1-.4 1-1zm-4.6-4c0-1.6-7.2-8.6-8-7.7-.3.2.5 2.6 1.6 5.2 1.7 3.7 2.5 4.6 4.3 4.4 1.2-.2 2.1-1 2.1-2zm39.5-5c.6-1.8.8-3.6.5-4-.8-1.4-5.2 1.1-5.8 3.3-1.2 4.8 3.6 5.3 5.3.6zm-3.4-9a2 2 0 0 0-1.3-1.7c-.7-.3-1.2.5-1.2 1.7s.5 2 1.2 1.8a2 2 0 0 0 1.3-1.8zm-42-5.2c0-2.9-.5-5.3-1-5.3-1.3 0-2 5.9-1.1 9.2 1 4 2.3 1.7 2.2-3.9zm30.1-.2c-.7-1.9-3.6-2-3.6-.3 0 .8.5 1.9 1.2 2.5 1.5 1.6 3.3 0 2.4-2.2zm11.4-4.5c0-.5-.7-1.6-1.6-2.5s-2-1.6-2.5-1.6c-1 0-1.3 3.4-.3 4.4 1 1 4.4.8 4.4-.3zm6-5c-1.5-2.9-2.5-2-1.6 1.5.5 1.9 1 2.4 1.7 1.7s.7-1.7-.1-3.2zm-17-3.6c0-1.5-1.2-2-2.3-.9-1 1 .3 3.5 1.4 2.9.5-.3.9-1.2.9-2zm-27.7-25.6c.6-5.2.3-6.9-1.4-6.9-.5 0-1 2.7-1 6 0 7.4 1.5 8 2.4 1zm27.7.5c0-.7-1-1.8-2-2.3-1.7-1-2-.7-2.6 1.4a8.3 8.3 0 0 0 0 4.2c.5 1.5.8 1.5 2.6-.2 1-1 2-2.4 2-3zm-8 1.2c0-.8-1-2-2-2.5-2.7-1.4-4 .8-1.5 2.6 2.4 1.7 3.5 1.7 3.5-.1zm-9.6-5.7c1.7-.8 2.5-2 2.5-3.5 0-2-.5-2.4-3.3-2.4-3 0-3.5.4-4 3.1-.4 1.8-.4 4.3 0 5.7.6 2.6.7 2.6 1.5.4a7 7 0 0 1 3.3-3.3zm25.4-.7c1.5-1 .6-3.7-2-6.3-2.6-2.6-3.8-2.3-3.8 1 0 5.6 2.1 7.6 5.8 5.3zm-8.3-8.6c1.6-3.3 1.2-6.7-.6-4.9-1 1-2.4 8.3-1.6 8.3.3 0 1.3-1.5 2.2-3.4zm-27.2 0c.2-.7.1-3-.4-5-1.3-6.1-2.7-6.2-3.6-.2-.4 2-.3 4.3 0 5.1.7 2 3.2 2 4 .2zm9.6-5c0-.9-.4-1.6-1-1.6-.5 0-1 .7-1 1.5s.5 1.5 1 1.5c.6 0 1-.6 1-1.5zm19.1-16.9c-.7-.7-1 .4-1 4 0 6.5 1.4 8 1.8 1.8.1-2.6-.2-5.2-.8-5.8zm17.7-17.3c-.2-13.4-.6-18.8-1.4-19-.8-.3-1.3 1.1-1.5 4.3-.4 5.2-2.4 7-3.2 2.7-.2-1.6-.4 2.2-.3 8.3a61 61 0 0 1-.6 12c-1 1-.9 8.4.2 8.4.5 0 1-1 1.3-2.3.5-3.5 3.2-2.8 3.6 1 .2 1.8.7 3.3 1.2 3.3s.8-8 .7-18.7zm-10.7 14.6c0-1.1-.7-2.3-1.6-2.6-2.2-.9-2.7 0-1.3 3 1.3 2.9 2.9 2.6 2.9-.4zm-10.7-.9c4.7 1.3 6.4.4 4-2.1a7 7 0 0 0-4.8-2 17 17 0 0 1-7-2c-4.6-2.3-6.9-1.1-3.3 1.7 1.3 1 2.7 2.7 3 3.6.6 1.4 1.1 1.6 2.6.8 1.2-.6 3-.6 5.5 0zm-18.7-4.6c.8-2-1.3-4.2-2.7-2.8-1.1 1.1-.3 4.4 1.2 4.4.5 0 1.2-.8 1.5-1.6zm29-4c-.6-1.4-1.5-1.6-5-1.1-4.3.6-4.5.4-5.5-2.4-1.4-4-3.1-3.8-3.1.3 0 4.7 1 5.8 6.6 6.6 5.4.9 8.1-.4 7-3.4zm-17.6-4.5c0-.6-1-2.3-2-3.7-1.1-1.4-2-3.4-2-4.4s-.5-1.8-1-1.8c-1.5 0-1.3 8.3.1 9.8 1.5 1.5 4.9 1.5 4.9 0zm-19.2-2.6c-.5-3.5-2.9-4.4-2.9-1.1 0 2.5.8 3.8 2.3 3.8.5 0 .7-1.3.6-2.7zm9.6-1.6-1-5.7c-.9-2.5-2.4.9-2.4 5 0 3.9.5 5 2.6 5 1 0 1.2-1.1.8-4.3zm20.2-4c-.3-.7-.5-.5-.6.7 0 1 .2 1.6.6 1.3.3-.4.3-1.2 0-2zm-14.2-7.3c.6-2.7 0-4.4-1.5-4.4-.5 0-1 1.5-1 3.5 0 4 1.5 4.6 2.5 1zm-11.2-6.2c-.3-1.8-.9-3.2-1.4-3.2-1 0-1.2 7.3-.2 8.3 1.2 1.2 2.1-1.7 1.6-5.1zm42.8-2.5c0-2-3-5.7-4.5-5.7-.7 0-1.8-.7-2.5-1.5-1.5-1.8-4-2-4-.4 0 1.7 7.8 8.9 9.6 8.9.7 0 1.4-.6 1.4-1.3zm-36-11.5c0-3.7.3-4.3 2.5-4.9 3.2-.8 4.2.2 4.6 4.7.3 2.7.8 3.5 2.4 3.5 1.5 0 2-.8 2.3-3.3.2-2.9.6-3.2 3.3-3.2 1.6 0 4 .6 5.3 1.5 2.3 1.5 2.4 1.5 2.8-3.3.4-5 .1-6.4-1-4.7-.4.6-5.7 1-12.2 1-9.6 0-11.9-.3-13.5-1.8-2.7-2.5-5.5-2.3-4.8.3a6.9 6.9 0 0 0 2.3 3.3c2.4 1.6 4 5.8 4 10.5 0 2.7.2 3.3 1 2.2.5-.9 1-3.5 1-5.8zm32.1-10c-.1-4.3-.5-8.5-.8-9.5-.8-2.8-2.3-2-2.3 1 0 1.6-.5 5.5-1.2 8.6-1 5-1 5.9.7 7.7 2.9 3.2 4 .9 3.6-7.8zm-24.1-4.2a1 1 0 0 0-2 0c0 .5.4 1 1 1 .5 0 1-.5 1-1zm-9-2.1c0-.5-.7-1-1.6-1-1.5 0-2 1.2-.8 2.4.8.8 2.3-.1 2.3-1.4zm17.3-22c.4-3.6.3-7 0-7.4-1-.8-3.2 13.3-2.5 15.3.8 2.4 1.8-.8 2.5-8zm14.7-2.4c0-2-1.1-4.5-2-4.5-1.2 0-2.3 3.7-1.5 5 .9 1.5 3.5 1.2 3.5-.5zm-23.2-11c-1.2-2.7-3.5-4-4.4-2.5-1 1.5 1.5 5 3.6 5 1.7 0 1.8-.4.8-2.5zm18.1.5c1.2-.7 1.2-1.2.2-2.4s-1.9-1.3-3.8-.6c-3.3 1.3-6.1-.3-6.5-3.7-.5-3.8-2.5-4-4.3-.5-2.2 4.3-2 5.2 1.2 4.6 2-.4 3.5 0 5.2 1.5 2.5 2.2 5.6 2.6 8 1.1zm8-4.5c0-.2-.4-.7-1-1-.5-.4-1-.2-1 .4s.5 1 1 1c.6 0 1-.1 1-.4zm4 0c0-.2-.4-.7-1-1-.5-.4-1-.2-1 .4s.5 1 1 1c.6 0 1-.1 1-.4zm-37-5c0-1.3-.2-3-.6-4-1-2.9-2.4-1.6-2.4 2.5 0 2.8.5 4 1.5 4s1.5-1 1.5-2.5zm23.9-.2c-.4-3.5-2.5-4.1-3-1-.6 2.9-.2 3.7 1.9 3.7 1 0 1.3-1 1-2.7zm-30.6-1.5c.6-.8.8-2.3.4-3.3-.5-1.4-1-1.4-2.9-.4-2.8 1.5-3.7 2.8-3 4.6.6 1.8 4.2 1.2 5.5-.9zm15.8-.8a1 1 0 0 0-2 0c0 .6.4 1 1 1s1-.5 1-1zm6-13.7c-.8-1.6-1-1.5-1 1.1 0 2.2.3 2.7 1 1.9.9-.8.9-1.7 0-3zm-5.6-.6c.9-3.2 2.4-20 1.9-21.3-1.1-3-2.2-1.3-2.7 4.6-.4 3.3-1 8.7-1.2 12-.5 4.1-.3 6 .5 6 .6 0 1.3-.6 1.5-1.3zm-11.5-2c0-1.6-.3-1.8-1-1-.7.6-.9 1.6-.5 2.2 1 1.6 1.5 1.3 1.5-1.1zm33.3-7.5c.8-1.6 1.9-2.2 3.7-2l2.6.3-.3-11c-.3-8.6-.7-11.4-2-12.9-1.2-1.2-1.8-4.1-2-9.3-.3-5-.8-7.3-1.6-7-.8.2-1.1 5.4-1.1 16.7 0 10.2-.5 17.2-1.1 18.5a19 19 0 0 0-.6 8.5c.4 3.6.7 5.1 1 3.5.1-1.7.8-4 1.4-5.3zm-28-6.7c.3-9.4-.3-10.7-3.8-8-1.9 1.4-1.9 1.5-.2 2.8 1.4 1 1.7 3 1.7 8.7 0 10.4 1.8 7.6 2.2-3.5zm23.4-2c.6-1.6-.5-11-1.2-10.3-.2.2-.6 2.1-.9 4.2s-.6 4-.9 4.2c-.2.2-1.5-.6-3-1.7-2.8-2.2-6.1-2.3-6.1 0 0 .6 1.7 1.8 3.8 2.6 2 .7 4 1.5 4.4 1.9 1.1 1 3.3.6 4-1zm-10.6-10.6c1.3-2.4.7-3.4-1.5-2.6-1.7.6-2.2 4.7-.6 4.7.6 0 1.5-1 2.1-2.1zm4.7-10.7c-.2-6.5-.8-12.5-1.2-13.5-1.2-3-3-1.4-2.8 2.4 1.4 21.4 1.6 22.9 3 22.9 1.3 0 1.4-1.8 1-11.8zm-19 5c-.9-4.8-2.8-6.7-2.8-2.5 0 3.8 1 6.3 2.3 6.3.6 0 .8-1.5.4-3.7zm36.4-16.5c-.4-1.7-1.2-3.3-1.8-3.5-1.8-.6-2.5 3-.9 4.7a6 6 0 0 1 1.6 3.1c0 1.2.2 1.2.8.1.5-.7.6-2.7.3-4.4zm-1.5-10.1c-.8-4.5-.8-17.4 0-22.4.4-3 .3-4.2-.5-4.2-.7 0-1.5.7-1.8 1.5-.3 1-1.5 2-2.6 2.4-1.4.5-2 1.7-2.2 4.5-.2 2.4-1 4.4-2.1 5.3-1.9 1.4-1.9 1.4 0 2.8 4 2.7 4.6 3.6 4 5.8-.6 2.6 3.1 9 4.7 8 .6-.3.8-2 .5-3.7zm-6.8-11.3c.7-.3 1.6-.3 1.9 0 .3.4-.3.6-1.3.6-1.2 0-1.4-.3-.6-.6zm-19-4.4c-.2-.6-.8-1-1.3-1s-1.2.4-1.4 1c-.2.6.4 1 1.4 1 .9 0 1.5-.4 1.3-1zm-12-2.2c.7-.9.2-2.1-1.9-4.4l-2.8-3.2-.7 3c-1 4.5 2.7 7.8 5.3 4.6zm18.2-8.7a1 1 0 0 0-2 0c0 .6.4 1 1 1s1-.5 1-1zm19.5-7.1c1-3-.5-15.1-2-17.3-1.1-1.5-1.8-1.6-3.4-.7-2.4 1.3-2.9 4-.8 4 1 0 1.6 2.1 2 7 .3 4 .8 7.5 1.2 8 1 1.7 2.3 1.2 3-1zm-15.5-5.4c0-.9-.7-1.5-1.5-1.5-1.6 0-2 1.1-.9 2.3 1.2 1.1 2.4.7 2.4-.8zm-25.6-9.5c.6-5.6.5-6.2-.8-5.2-1.8 1.5-2.7 8-1.4 10.5 1.2 2.5 1.4 2.1 2.2-5.3zm54 2c.4-.6 0-1-.9-1-.8 0-1.5.4-1.5 1s.4 1 1 1c.4 0 1.1-.5 1.5-1zm-37.4-2.5c0-.9-.2-1.5-.4-1.5-.3 0-.7.6-1 1.5-.3.8-.1 1.5.4 1.5s1-.7 1-1.5zm19.7-4.9c2-.4 2.8-1.6 1-1.6-.8 0-2-.7-2.7-1.5-2-2.4-5-2-5 .8 0 3 1 4 3.4 3.2a50 50 0 0 1 3.3-.9zm-32.2-7.4c-.8-.9-2.6 1-2.5 2.6 0 1.5.2 1.4 1.5-.3.8-1 1.2-2 1-2.3zm34.5-8.2c0-9.9-.5-12-2.8-12-1.2 0-1.4.8-.8 4.7 1 7.6.7 10.6-1.4 12-2.6 2-1.5 4.3 2 4.3h3zm-10.5-1.6c.4-3.6.5-8 .2-9.7-.6-4.1 1.5-15 3-15.5.7-.2 1.5.4 1.8 1.4l2 4.5c.8 1.5 1.5 3.3 1.5 4.2 0 1.6 2.6 3 3.3 1.9.3-.4-.2-2.5-1-4.7a42 42 0 0 1-1.1-14c.2-8.7 0-10-1.4-10.3-1.4-.3-1.8.6-2 4.9-.3 4.8-.6 5.4-3.8 7.1-4.4 2.5-9.2 7.7-8.4 9.2l2.7 3.3c1.6 1.8 1.8 2.6.8 3.5-.6.6-1.1 3.5-1.1 6.4 0 4.3-.4 5.5-2 6.4-3.7 2-1.5 8 3 8 1.5 0 2-1.1 2.5-6.6zm-14.1.7c.7-1.2-2.1-3.5-3.4-2.7-.5.3-.7 1.3-.4 2 .6 1.7 3 2 3.8.7zm-8.8-3.3c-1-4.4-4.1-6.4-5.3-3.3-.8 2 2.2 6.5 4.3 6.5 1.3 0 1.5-.7 1-3.2zm-8.2-1c-.3-.4-1-.6-1.5-.3a1.1 1.1 0 0 0 1.1 2c.5-.4.7-1.1.4-1.6zm21.7-2.6c-.3-4-2.1-7-2.1-3.6s1.2 8.5 1.8 7.8c.3-.3.5-2.2.3-4.2zm-4.1-10.7c0-1.4-.5-2.5-1-2.5-1.2 0-1.4 3.3-.4 4.3 1.1 1.1 1.4.8 1.4-1.8zm0-17.5a1 1 0 0 0-2 0c0 .6.4 1 1 1s1-.5 1-1zm-1.7-6.6c-.8-2-1.3-1.8-1.3.6 0 1.2.4 1.8 1 1.5s.6-1.3.3-2zm-12.4-1c0-.8-.4-1.4-1-1.4-.5 0-1 .6-1 1.5 0 .8.5 1.5 1 1.5.6 0 1-.7 1-1.5zm33.4-13.3c1.3-1.3 1.5-2.9 1-6.2-1.2-8.7-5.3-7-5.3 2.2 0 6.3 1.2 7.5 4.3 4zm8.9-16.7c-.1-2.2-1-7-2-10.5s-2-7.1-2-8c-.2-4.6-1.6-10-2.6-9.6-2 .6-1.8 6.9.7 19 1.9 9.6 2 12 1 12.4-1.8.7-1.7 2.3.4 5.2l1.7 2.5 1.4-3.5c.8-1.9 1.4-5.3 1.4-7.5zm36.8 7c0-.8-.4-1.4-1-1.4s-1 .9-1 2c0 1.2.5 1.8 1 1.5.6-.4 1-1.3 1-2.1zm-33.5-22.2c-.3-.3-1-.1-1.6.4-.7.7-.6 2 .3 4l1.3 2.8.3-3.3c.2-1.8 0-3.6-.3-4zm7.3 2.8c1.8-2.4 2-3.5 1.2-5-1.1-2 .7-7.1 3-8.5.5-.4 1-1.6 1-2.7 0-1.2.8-2.2 2-2.5 2.3-.6 2.7-3.3.5-3.3-2.4 0-2.8-2-1.5-8 .9-4.1 2.1-6.8 4-8.7 3.7-3.5 3.7-4.2.2-5.4-1.6-.6-3.6-2.3-4.6-4-2.1-3.6-2.7-3.6-6.4-.4-5.9 4.9-6 22.1-.1 24 2.5.8 2.4 3.1-.1 4.5-1.6.8-2 2-2 5.7 0 2.6 0 7.6-.3 11-.2 3.5-.1 6.3.2 6.3.4 0 1.7-1.4 3-3zm25.7-11.7c-1.6-6.3-4-7.3-3.1-1.3.7 4.5 2.3 7.3 3.6 6.5.4-.3.2-2.6-.5-5.2zm-34-7.9c1.6-3.2 1.6-3.7.2-5.1-2-2-3.5-1-4.3 3.1-1.2 6.3 1.5 7.5 4.2 2zm-2.5-10.2c0-2.5-.1-2.5-1.7-1-.9.9-1.3 2.3-1 3.3 1 2.3 2.7.8 2.7-2.3zm25-1.2c0-1-.4-2.2-1-2.5-1-.7-3 2.5-3 5 0 1.2.4 1.3 2 .5 1.1-.6 2-2 2-3zm10-1.8c0-.7-.7-1.2-1.5-1.2-1 0-1.5 1-1.5 3.7v3.8l1.5-2.5c.8-1.4 1.4-3.1 1.5-3.8zm-9-14.2a1 1 0 0 0-2 0c0 .5.4 1 1 1 .5 0 1-.5 1-1zm-5-5a1 1 0 0 0-2 0c0 .5.4 1 1 1 .5 0 1-.5 1-1zm-.7-5.4c4.7-1.1 4.8-1.2 4.2-4.1a38 38 0 0 1-.5-8c.1-6-1.1-5.3-4 2-1.3 3.5-2.4 5-4 5.3-1 .2-2.7 1.6-3.5 3.1-1.6 3-1 4.5 1.4 3.5l6.4-1.8zm-24.3-6.7c0-6.1-1.7-12.3-3.1-11.4-.9.6-.4 12 .7 17.4.9 4.1 2.3.3 2.4-6zm17-3a1 1 0 0 0-2 0c0 .6.4 1 1 1 .5 0 1-.4 1-1zm1-16.6c.9-3.9.9-4.9-.4-6.1-1.2-1.3-1.6-1.2-2.5.5a25 25 0 0 0-1.7 6.1c-.6 3.7-.5 4.2 1.3 4.2 1.6 0 2.3-1 3.2-4.7zm8.4-.9c1.8-1.7 2.1-5 .7-5.9-1.5-.9-4.1 2.4-4.1 5 0 2.8 1.2 3.1 3.4.9zm8.6-8.4c0-2.5-1-5-2-5-1.3 0-2 5.4-.8 6.7 1.3 1.6 2.8.7 2.8-1.7zm-12.5-6.8a73 73 0 0 1 2.7-7.5c2.1-4.7 2.1-4.8.3-8.5l-1.9-3.7-1.6 8.5c-.9 4.6-2.1 9.4-2.8 10.6-1.2 2.2-.7 3.4 1.4 3.4.8 0 1.6-1.3 2-2.8zm-8-25c2.9-3 3-4.5 1-6.7-2.3-2.2-4.2-1.9-6.2 1-1.6 2.5-1.6 2.7 0 3.6 1 .6 1.7 2.3 1.8 4.2 0 1.7.3 2.6.6 1.9a19 19 0 0 1 2.9-4zm16.5-7.7c0-1.4-.5-2.5-1-2.5-.6 0-1 1-1 2.5 0 1.3.4 2.5 1 2.5.5 0 1-1.2 1-2.5zm-1-8.9c-1.2-3.3-4-3.5-4-.3 0 2.7 4.3 6.4 4.8 4.2.1-.6-.2-2.4-.7-3.9zm-12-2.3c0-1.8-1.7-1.7-2.4.3-1 2.7-.7 3.7.9 2.4.8-.7 1.5-1.9 1.5-2.7zm6-5.9c0-2.1-.4-3.3-1-3-1.7 1-1.1 6.6.7 6.6.1 0 .3-1.6.3-3.6zm-10.3-.6c-.4-.8-.6-.6-.6.6 0 1 .2 1.6.5 1.3.3-.3.4-1.2 0-2zm16.7-7.3c.7-3.8 0-6-1.5-5-1.2.7-1.2 8.5 0 8.5.5 0 1.2-1.6 1.5-3.5zM650 142c.8-3.4 1.1-6.5.8-6.9-.3-.3-1.7 0-3 .5-1.8.9-2.5 2.2-3 6.2-.8 5.7-.2 7.3 2.2 6.9 1.2-.3 2.1-2.3 3-6.7zm2.9-15.4c-.3-.7-.5-.1-.5 1.3 0 1.3.2 2 .5 1.2.2-.7.2-1.8 0-2.5zm-5.5-4.3c.4-5.2-.6-7.8-2.2-5.4-1.6 2.4-1.3 10 .4 10 1 0 1.5-1.5 1.8-4.6zm.1-18.2c1-5.9.8-8.2-.7-8.2-2.7 0-4.9 10.3-2.4 11.3 2.3 1 2.5.7 3.1-3zM645 83.3c-.4-3.4-2.8-4.4-2.8-1 0 2.5.7 3.7 2.2 3.7.5 0 .8-1.2.6-2.7zm-2.8-9.3c0-.6-.2-1-.5-1-.2 0-.7.4-1 1-.4.5-.2 1 .4 1s1-.5 1-1zM120.8 788.7c0-1.3 7.9-6.8 9.8-6.8 2.5 0 1 2.8-3 5.4-4.3 2.9-6.8 3.4-6.8 1.4zm359.8.3c-10.2-2-17.6-4.4-17.6-5.8 0-.9.7-1.2 1.8-.9 4 1.2 18.7 3.6 22 3.6 2.7 0 3.3.4 3 1.8-.3 2-3.3 2.4-9.2 1.3zm27-4.6c-1.6-2.6-1.7-3-.1-5.5.8-1.5 1.6-4.3 1.6-6.2 0-2.3.8-4.4 2.6-6.3 2-2.2 2.4-3.3 1.9-5.9-1.6-7 .4-21 3-21 .5 0 1 3 1.1 7 0 3.8.4 9.1.8 11.8.8 5.7-1.4 13.4-4.5 16.2-1.8 1.7-2.8 7.4-1.2 7.4 2 0 7.3-4.1 7.3-5.6 0-1.3.7-1.5 3.7-1 2.1.4 5.5 1.4 7.5 2.3 5.3 2.3 7.1 1.3 6.3-3.5-.5-2.8-.2-4.1 1-5.1 2.3-2 2.8-.9 3.2 7.8.4 6.5.2 8-1.1 8.5-1 .4-2.2-.3-3.2-1.8-1.1-1.8-2-2.2-3.2-1.6-6.6 3.3-7.2 3.4-9.6 2.1-2-1-2.8-1-5.3.3-1.6.8-4.5 1.8-6.4 2.1-3.2.6-3.8.4-5.4-2zm-320.2-1c-1.8-2.8-2-6-.5-7 1.7-1 2.8.6 3.5 5.3.8 4.8-.5 5.6-3 1.8zm165.4 2c-.2-.2-3-.6-6.3-1-4.2-.3-6.7-1.2-8.8-3a23 23 0 0 0-13.3-5.9c-8.6-1.2-20-3.7-20.9-4.5-2.3-2.3 1-2.7 9.1-1a97 97 0 0 0 12.7 2c3.8 0 14.6 4.4 14.6 5.9s5.3 3 10.4 3c4 0 5.8.5 7 1.9 1 1 1.7 2.1 1.7 2.5 0 .7-5.4 1-6.2.2zm-238-1.5c-1-.6-1.2-1.2-.5-1.7 9.5-8 12.4-10.1 13-9.2.7 1-1 3.8-3.3 5.3a57 57 0 0 0-4.6 3.7c-2.3 2-3.7 2.5-4.7 2zm26-1.3c0-1.6 7.1-8.7 8.8-8.7 2 0 1.3 1.9-2.4 6-3.6 4-6.4 5.2-6.4 2.7zm297.7 0c-3.3-.8-9.4-1.7-13.5-2-7.6-.8-18-2.3-21.3-3.3-1-.3-1.7-1.2-1.7-2 0-1.2.8-1.5 3.2-1l15.3 2c15.8 2.2 29 5 28.8 6.2-.3 1.5-4.2 1.5-10.8 0zm107.8.2c-2-2.1-1.4-3.6 2-4.2 3.6-.8 5.2.3 4.6 3-.4 2.2-4.7 3-6.6 1.2zm-464-1.2a16 16 0 0 0-5.6-2C64 777 58 774.4 60 772.2c.5-.5 10.7 1.4 19.9 3.7 4.5 1.2 8.4 4.2 7.4 5.8-1 1.5-2.7 1.4-5-.2zm473.9-3.5c-1-3-1-4.3 0-6.3 2.8-5.6 6.6-7.9 5.5-3.3-.5 2-.2 2.6 2.1 3.5 4.1 1.6 6.3 4 6.3 6.7 0 2.3-.2 2.4-3.9 1.8-2.4-.4-4.1-.3-4.5.4-1.5 2.4-4.3 1-5.5-2.8zm-419.4-.3c0-1.4 8-8.8 9.7-8.8 2.2 0 1.4 1.2-3.4 5.7-4.8 4.3-6.3 5.1-6.3 3.1zm112.6-1.2c-2-1.6-2.7-2.9-2.2-4 .3-1 1-1.7 1.4-1.7 1.6 0 6.5 5.9 5.8 7-1 1.5-1.7 1.3-5-1.3zm237.6-1.7c-.9-1.6-.7-3.2.6-7 2-5.6 1.5-8-2-8-2.5 0-5.4 3.6-8.4 10.4-.6 1.5-1.7 2.6-2.4 2.4-2-.7-2-3.6 0-6.2 1.1-1.4 2.3-4.1 2.7-6 .6-3.2 1-3.6 3.8-3.6 4.2 0 11.8-2.9 11.8-4.5 0-.7-1.4-1.6-3.1-2-2.4-.5-3.6-.2-5.3 1.3-3.7 3.4-6.3 4.3-9 3.3-3.6-1.4-4.8-4.3-4.9-11.9 0-10 0-10.2 2.2-10.2 1 0 2.2-.4 2.5-1a3 3 0 0 1 2.2-1c1.1 0 1.5 1 1.3 3.8a63 63 0 0 0 0 5c0 1.8 3 1.6 3.7-.3.9-2.2 2-1.8 2.8 1 .3 1.5 1.8 3.1 3.3 3.8 1.5.7 3 1.7 3.5 2.2.4.6.7-2 .7-5.6 0-4.7-.4-7-1.4-7.9-.9-.7-1.5-2.8-1.5-5 0-2.4.5-4 1.5-4.3.8-.3 1.5-1.6 1.5-3 0-3.8 4-6.4 5.2-3.4.3.8-.1 4.8-1 9.1-1 5.5-1.2 8-.5 8.8.8.8 1.7-.2 3.2-3.5 1.1-2.5 2-5 2-5.6 0-2 2.2-1.1 5.3 2 2.8 2.8 3 3.4 2.6 9-.3 3.3-1.1 6.6-2 7.7-1.7 1.8-3 8.5-1.7 7.6.5-.2.9-1.2.9-2.2 0-.9.7-2.5 1.5-3.6 2.3-3 4-.7 2.6 3.6a91 91 0 0 0-1.7 7.7c-.7 4.6-2 5.7-5.9 4.7-1.8-.4-2.7-1.6-3.5-4.6-.6-2.2-1.7-4-2.5-4-2.1 0-4.5 4.7-4.5 8.8 0 2.1-.7 4.7-1.5 5.8a9 9 0 0 0-1.5 4.6c0 3.5-1.6 4.5-3 1.8zm-7.5-21.9c.3-.5.1-1.2-.4-1.5-.6-.4-1 0-1 .9 0 1.7.5 2 1.4.6zm20.6-7c0-.6-.5-1-1-1-.6 0-1 .4-1 1s.4 1 1 1c.5 0 1-.5 1-1zM90.2 773.3c-2.7-.7-10.4-2-17-3-13-1.8-26-5.4-25.4-7 .5-1 .3-1.1 8.4 1 3.3.8 14.3 2.9 24.5 4.6 21.1 3.5 22.3 3.7 21.5 5-.8 1.2-5.8 1-12-.6zm295.6 1c-.3-.2-3.8-1.3-7.8-2.3-6.8-1.6-10.5-4-8.8-5.7.6-.6 13.4 2.6 18.6 4.7 1.3.5 2.1 1.4 2 2.1-.5 1.3-3 2.2-4 1.3zm116.7-.9c-1-2.3.4-6.8 1.9-6.3 1.6.5 1.5 7 0 7.5-.8.2-1.6-.3-2-1.2zm45 .6c-1.6-1-2.5-8.7-1.4-11.6.5-1.4 1.6-2.6 2.5-2.6 1.2 0 1.5 1.4 1.5 7 0 6.9-.6 8.5-2.6 7.2zm-443.7-2.6c0-.8.8-1.7 1.8-2 2.6-.8 7.2-5.1 7.2-6.7 0-.8-.5-.6-1.3.4s-2.6 1.6-4.7 1.6c-2 0-4.6.2-5.8.6-2.7 1-3-.5-.6-4a5 5 0 0 1 4.5-2.5c1.9 0 2.9-.5 2.9-1.5s-1.2-1.5-4.6-1.5a18 18 0 0 1-6.6-1c-1.1-.6-3.9-1.3-6.2-1.4-2.3-.2-5.6-.7-7.4-1-2.7-.7-3.3-.5-3.3 1 0 1.4-.6 1.5-4.2 1a116 116 0 0 1-11.3-3 78.7 78.7 0 0 0-13-3l-9-1a572 572 0 0 1-19.1-3 3.9 3.9 0 0 1-2.7-2.5c-.4-1.5-1.4-2-3.4-2-2.8 0-5.3-1.6-5.3-3.3 0-1.2 3.6-1 9.9.7 3.1.8 8.8 2 12.6 2.5l12.3 1.9c3.7.6 5.2.5 5-.2-.4-1-5.4-2.6-20.7-6.6-2.9-.8-4-1.5-3.4-2.2 1-1 4-.2 17.3 4.1l8.3 2.5c1.5.3 2.6 1 2.3 1.4s1.8.8 4.7.6c7-.2 7-.2 6.5-2.7-.3-2.5-3.9-3.7-12.8-4.1-7.4-.5-25.2-4.9-25.8-6.4-.6-2 5.4-1.5 16.2 1.3 10 2.6 16.7 2.9 17.3.8.3-.6-1.7-1.3-4.9-1.8-4.5-.5-25.1-5.2-38-8.6-3.6-1-4.8-2.2-3-3.3.4-.3 6.2 1 12.7 2.8 15.4 4.3 24 6.2 25.4 5.8.6-.3 1.1-1.8 1.1-3.4 0-3.2 1.6-6.9 2.9-6.9.4 0 .6 2.5.3 5.4-.4 5-.2 5.6 2.2 7.2 2 1.3 3.2 1.4 5.6.6l3-1v4.6c0 2.6.4 5.2.8 5.9s4.7 1.7 9.5 2.4 8.7 1.6 8.7 2c0 1.4-8.6 2.2-10.8 1-1.1-.6-3-1-4.1-1-3.3 0-2.6 3.6 1 5.5 3 1.5 3.2 1.5 2.6 0-.4-1 0-1.6.7-1.6 1.7 0 4.9 3.5 4 4.4-.4.3 0 .6 1 .6.9 0 1.6-.4 1.6-1s1.2-1.5 2.5-2.1c1.4-.7 2.5-2 2.5-3 0-2 1-2.2 8.3-1.9 3.6.2 4.8-.1 4.8-1.2 0-1.6-4.1-2.8-10-2.8-2 0-7.2-1-11.6-2.3l-8-2.4 4.3-.7c3.4-.6 4.8-.4 6.1.8 2.3 2.1 9.5 2.2 11.2 0 .7-.8 2.1-1.3 3.1-1 1.2.3 1.9 0 1.9-1 0-1.5 2.3-1.7 5.3-.5 1.7.7 1.8.9.3 2.3-.9 1-2.5 1.4-4 1.1-1.3-.2-2.7 0-3 .6-1 1.6 4.7 4.1 9.3 4.1 5.4 0 6 1.7 1 2.7-2.2.5-4.1 1.3-4.2 1.8-.4 1.7 6.5 1.9 7.7.3 1.8-2.5 7.3-3.1 11.1-1.3 2 .9 3.5 2 3.5 2.6 0 1.5 2.7 1 3.3-.6.4-.8 1.8-1.5 3.2-1.5 5 0 2-2.3-3.3-2.5-2.8 0-6.2-.9-7.7-1.8-2-1.4-3.3-1.5-6-.8-4.6 1.3-4.6-.3 0-3 4.1-2.4 4-4.3-.1-4.6-7.2-.5-11.9-3.4-7.4-4.6 2.6-.6 1.7-2.7-1.2-2.7-3.2 0-7.8 3-7.8 5 0 2.2-2.2 2.7-9.3 2.2-5.7-.4-6.4-2.2-.8-2.2 2.6 0 5.3-.8 7.8-2.5 2-1.4 5-2.9 6.5-3.2 4.3-.8 3.3-2.3-1.6-2.3-3.4 0-4.7-.4-5.9-2.2-1.2-1.8-1.7-2-3-1-.8.7-1.7 1-2.1.6-1.2-1.2-.7-2.2 1.4-2.9 2-.6 2-.6-.3-2.4-1.8-1.5-3.3-1.8-7.3-1.4-2.8.3-5.5 1.3-6.2 2.2-1 1.1-1.6 1.2-2.4.4-.8-.7-.6-2 .6-4.6 1.8-3.7 1.4-5.7-1-5.7-.7 0-1.6 2-2.1 4.8-.7 3.7-1.3 4.8-3 5a4 4 0 0 1-3.3-1.2 4.5 4.5 0 0 0-3-1.6c-1.3 0-2-1-2.3-3.2-.7-4-.4-4.4 2.7-3 3.2 1.5 4 0 2-3.2-1-1.6-2.6-2.6-4-2.6s-3.4-.9-4.5-2c-4.2-4.1-7-1.9-7 5.7 0 6.5-3 8.4-3 2 0-3-.3-2.8-3 2.8-2.1 4.3-2.8 6.9-2.4 8.9.5 2.4.3 2.8-1.2 2.5-1.5-.3-2-1.4-2.2-5.5-.2-3-1-5.7-1.7-6.4-.8-.7-1.5-2-1.5-3 0-1.7 4.6-13.5 7.2-18.3.6-1.2.6-2.3 0-2.8-1.2-1.2-4.2 0-4.2 1.8 0 .8-.9 3.2-2 5.3-1.1 2.2-2 5.1-2 6.5 0 1.6-.6 2.5-1.5 2.5-.8 0-1.5-.4-1.5-1 0-3.5-3.2 1.4-5.4 8.4-.8 2.5-3.2 1.5-2.9-1.2.4-3-1.1-2.7-2.5.3-1.1 2.5-2.3 3.1-3.5 2-.3-.4.3-2.5 1.4-4.8 1-2.3 1.9-5.4 1.9-6.9 0-1.6.8-3 2-3.7 3.3-1.8 8.4-13 7.4-16.3-1.3-4.2-1.2-10.9.1-11.4 1.1-.4 1.4-2.6 1.2-9.4l-.2-8.8h-6.8c-8.3 0-10.1-1.2-9.2-5.8.4-2.5.2-3.4-.8-3.4-2.5 0-4-2.5-2.3-4 1.2-.9 2-.8 3.8.5 2.5 1.7 5.8 2 5.8.6a2 2 0 0 0-.9-1.5 60.2 60.2 0 0 1-1.3-20.6c.6-3.9 1-4.5 3.2-4.5h2.5l-.3 13c-.2 7.2-.6 13.9-.9 14.9-.4 1.4 0 1.7 1.3 1.5 1.7-.3 2-1.6 2.2-11.2.2-8 .6-10.7 1.5-10.4 1.4.5 1 18.6-.4 22.5-.8 2-1.3 2.3-4.5 1.7-5-1-3.6 1.1 1.7 2.6 2.9.8 4.4.8 5.3 0 1-.8 1.7-.7 2.5.3s.9 1.7.1 2.1c-2 1.3-1 3.4 1.7 3.7 3 .4 3.9 2.4 2.9 6.5-.5 1.8-1.1 2.3-2.5 1.9-2.5-.8-3.3.6-2.5 4 .5 2.1 1.1 2.5 3 2.2 1.5-.3 2.4 0 2.4.8 0 1.8 1.5 2.6 3.4 1.8 1.3-.4 1.4-1 .6-2-.8-.8-.9-3-.2-7.2.9-6 .1-10.2-1.8-10.2-1.8 0-1-1.7 1-2.2 1.4-.4 2-1.4 2-3.4.3-7.4 2-11.6 2.1-5.3.2 7 .4 7.4 2.7 7.8 2.5.3 3-2 .8-3.7-1.5-1.3-1-9.8.5-11.6.5-.5 1-2 1-3.4s.6-3.3 1.5-4.3c1.8-2 1.3-4.9-1-4.9-1.5 0-3.6 4.9-3.6 8.4 0 2.1 0 2.1-1.5.2-2.2-3-2-7.6.5-8.3 4.2-1 .6-6.3-4.4-6.3A10 10 0 0 1 37 607c-1.3-1-4.5-2.3-7-2.6-2.7-.4-5.4-1.5-6.3-2.6-.8-1-2.6-2.5-4-3.2-1.4-.6-2.7-2.2-2.8-3.5-.5-3 1.7-8.2 3.4-8.2 1.8 0 1.8-1.6 0-2.3-1.8-.6-3.4-13.3-1.9-14.8 1.4-1.3 3 1 3.5 4.6.2 2.2.9 3.1 2.5 3.4 1.8.2 2.2-.3 2.5-3 .2-1.9.7-3.2 1.3-3 .6.1.8 3.6.5 9-.8 15.2-.7 17.6 1 18 1.3.2 1.6-1 1.4-7.6-.2-11.1.6-18.3 2.2-18.3 1 0 1.1 1.8.7 7.5-.4 5.3-.3 7.5.6 7.5.6 0 1.1-1.2 1.1-2.7 0-3 1.5-6 2.3-4.6.3.5.1 4.5-.4 8.8-.9 7.1-.8 8.2.9 10.4a10 10 0 0 0 3 2.9c1.5.5 2-11.4.8-23.1l-1-10-8-7.8c-6.7-6.5-8.6-7.8-11.2-7.8-3.7 0-6.6-2.4-5.7-4.7.4-1 1.3-1.3 2.7-1 1.1.4 3.3.6 4.9.6 1.7 0 3 .7 3.4 1.8 1.7 4.7 21.1 19.1 21.4 16l.3-2.4c0-.6 1.4-2.1 2.9-3.3 2.3-1.8 2.7-2 2.7-.6 0 .9-.7 1.9-1.5 2.2-2.3.9-1.8 2.1 1 2.1 1.4 0 3-.6 3.6-1.4 1.6-1.9.5-14.4-1.5-18.5-.9-1.8-1.6-3.8-1.6-4.5 0-1.5-2.6-1.8-3.4-.4-.4.5.1 1.3 1 1.9 1 .5 1.4 1.4 1 2-1 1.6-2.6 1.4-2.6-.3 0-.9-.6-1.5-1.4-1.5-.7 0-1.9.6-2.6 1.5-2 2.3-2.7 1.7-2.2-1.5.6-4.2-1-3.8-5.7 1.2-3 3.2-4.3 4-5.1 3.1-1.7-1.7-.3-3.7 6-8.3 5.4-4.1 7-4.3 7-1 0 2.5 1.5 3.3 3 1.5 1.7-2 .9-4.9-1.8-6-1.2-.6-2.5-2-2.8-3.3-.3-1.2-1.3-2.4-2.3-2.7-3.6-1.2-8.1-6.4-8.1-9.4 0-2-.8-3.6-2-4.5-1.2-.7-3.4-3.1-5-5.3a24 24 0 0 0-6.7-5.9c-2.4-1.2-4-2.8-4.1-4.2-.4-2.9.8-2.8 5.4.3 2 1.3 4 2.5 4.4 2.5.4 0 0-3-.8-6.6-1.5-7-1-9 2.1-7.9 1.4.5 1.7 2 1.7 7.3 0 8.7 1.4 14.3 4 16.4 2 1.6 2.4 1.6 5.2.2l3-1.6-.7-7.7c-.7-8-2.1-11.4-3.6-9-.5.8-.9 3-.9 5.1 0 3.6-1.2 4.9-2.5 2.7-1.3-2.1-1-8.2.6-9.3 1.2-.9 1.5-2.6 1.1-7.7-.4-6.1-.7-6.8-3.4-8.4-1.6-1-3.8-3.6-4.9-5.9-1-2.3-3.5-6.3-5.5-9-5.5-7.4-1.7-9.2 5.5-2.5 3 2.8 3.2 3.3 1.7 4.4-.9.6-1.6 1.5-1.6 1.9 0 .4 3 4.2 6.7 8.4 5.1 5.9 6.3 7.7 5 8-1.3.2-1.7 1.2-1.5 4.2.4 4.7 1.3 5 3.6 1 1-1.7 2.2-2.9 2.7-2.7.6.2 1.8-.3 2.8-1.2 1.7-1.5 1.8-1.3 1.6 2.4-.1 2.2 0 4.6.5 5.3 1 1.5 4.6 1.5 4.6 0 0-.6.7-.8 1.5-.5s1.7.1 2-.4c.5-.7 1.2-.6 2.2.2 1.2 1 1.7 1 2.4-.2.5-.8.6-2.1.2-3-.3-.8-.7-6-.9-11.4a264 264 0 0 0-.3-10.5c0-.3-1 .5-2.1 1.8-1.6 1.9-2 3.9-2 9.3 0 7.5-1.5 12.2-3 9.7a41 41 0 0 1 .5-15.1c.4-2.2 0-2.7-1.5-2.7-1.7 0-2 .6-2 4.4 0 7.4-3.2 7-5.9-.7-1.1-3.4-1-4.4 1.3-10.2 1.5-3.5 2.4-7 2-7.9s0-1.7.5-2.1c.7-.4 1.1.5 1.1 2.4 0 2 .5 3 1.5 3 1.1 0 1.5-1.2 1.5-4.9v-5l-3.7.4-4.5.5c-.4 0-.5 1-.3 2 .5 2.5-.5 6.2-1.5 5.6-.4-.3-.5-1.6-.3-2.9.6-2.8-1.5-4.6-2.8-2.5-.5.7-.9 2.6-.9 4.1 0 1.5-.4 2.8-1 2.8-.5 0-1-4.6-.9-11 0-6.4.5-10.8 1-10.5.5.3 1 2.8 1 5.5 0 5.2 1.5 7.3 3.4 4.7.7-1 2-1.4 3.3-1 2 .4 2.2 0 2.2-2.6 0-3.2-1.3-4.1-2.6-2-.5.8-1.4-.2-2.5-2.7-2.3-5.2-2.3-7.2 0-8.4 3.2-1.7 4.1-1.2 4.1 1.9 0 4 1.7 4.8 3.2 1.5 1-2.3 1-2.9-.6-4-1.2-.9-1.6-2-1-3.5a8 8 0 0 0-.4-4.3 68 68 0 0 1-3-8.1c-2.2-6.5-4.6-8.3-6-4.5-.7 2-1 2-1.5.6a2.7 2.7 0 0 0-2.4-1.7c-1.3 0-1-.4 1-1.5 3-1.7 3.2-2.7 1.6-7.3-1.2-3.4-2.9-3.3-3 .2 0 3.1-1.3 4.8-3.2 4-1.2-.4-1.7-1.7-1.7-4.5 0-2.6-.5-4.1-1.6-4.5-1-.4-1.3-1.4-1-3.2.5-2.4 1-18.7.7-21.9-.1-1.5-4.1-1.7-4.1-.2 0 .5-1 1-2 1-1.1 0-2 .6-2 1.4 0 2 1.7 2.9 2.3 1.3.3-.7.6-.3.6.9s.4 3.5.7 5.2c.4 2 .2 3.2-.5 3.2-.6 0-1.1-1.6-1.1-3.6 0-2.8-.5-3.7-2.5-4.4-2.4-1-2.5-1.2-2.7-13.8-.2-7 .1-14.4.6-16.4a12 12 0 0 0-.7-8c-2-5.3-2.3-13.2-.5-12.6.7.2 1.4 2 1.6 3.8.2 2 .8 3.9 1.3 4.4s.9 4 .9 7.8c0 7.4 1.1 8.4 5.7 5.3 1.2-.9 2.8-1.3 3.7-1 1.7.7 7.6-1.5 7.6-2.8 0-.5-1-2.1-2.2-3.8l-2.1-2.9-2.5 2.5c-1.6 1.6-2.9 2.2-3.5 1.6-1.3-1.3.1-5.1 1.9-5.1 1.9 0 1.8-1.7-.1-2.4-2.6-1-1.8-6.2 1.5-9.4 2.7-2.8 2.8-3.1 1.2-4.5-1.1-1-2.5-1.2-4.2-.7-5.7 1.7-7.6.7-4.5-2.4.8-.8 1.5-2.3 1.5-3.2 0-1.3-.6-1.6-2.9-1.1-2.6.5-3 .3-3.6-2.6-.4-1.8-.8-5.4-.8-8s-.4-4.7-.9-4.7-.8-2.2-.8-4.9a20 20 0 0 0-2.5-9.5c-2.9-5.4-3.1-7.9-1-9.6.7-.6 1.5-2.2 1.7-3.4a2.8 2.8 0 0 1 2.4-2.4c1.2-.2 3-1.2 4-2.3 1-1 2.7-2 4-2 1.2 0 2.4-.6 2.8-1.4.3-.9 1.6-1.5 2.8-1.5 2 0 2.8 1.2 5.8 8.7 1.9 4.8 3.7 9.2 4.1 9.8s1.6 3.7 2.8 7A1993 1993 0 0 0 58.2 325c2.4 5.8 3.4 8.5 7 19a171 171 0 0 0 4.3 11c7.5 16.4 8.3 19 6.2 19-.6 0-1.3-1.4-1.6-3-.7-3.4-1.9-4.6-2.9-3-.3.5.6 4.3 2 8.4a52 52 0 0 1 2.5 9c0 1 1 3.5 2 5.8 1.1 2.3 2 4.6 2 5.2 0 .6 1 2.6 2.2 4.6 1.2 1.9 3.5 7 5 11.4s3.7 9.6 4.8 11.8c1.1 2 2 4.6 2 5.5 0 1 1 2.9 2 4.3 2.5 3 2.9 6.9.6 5-.9-.7-1.6-1.7-1.6-2.3s-1.3-4-3-7.6a62.1 62.1 0 0 1-3.6-9.3 9.6 9.6 0 0 0-2.5-4.5c-2-1.8-5-7.9-7.5-15.3-2-5.6-3-7-4-4.6-.7 1.8 1 5.7 3.7 9 1 1.2 2 3.2 2.2 4.6 1 4.6 7 19.4 8.9 21.8 1 1.4 1.8 3.4 1.8 4.6 0 1.2.9 3 1.9 4 1 .8 2.4 3.5 3.1 5.8.7 2.3 1.8 5 2.5 5.8s1.6 2.6 2 4c1.6 5.7 4 8.9 6.4 8.7 2.2-.2 2.3-.5 1.6-4.7-.3-2.5-1.1-5.2-1.7-5.9-1.2-1.4-5.6-13-6.5-16.9-.3-1.3 0-2.2.6-2.2 2 0 1.3-4-.8-5-1.1-.6-2-2-2-3s-1.2-3.2-2.5-4.8c-2.7-3.2-5-8.2-4.1-9 .3-.3.8.2 1.1 1.1 1 2.5 2.4 2 2.4-.8 0-1.3.5-2.7 1-3 .6-.4 1-1.7 1-3 0-1.7-.6-2.5-2.2-2.7-1.2-.2-2.1-.7-2-1l.2-4.5c0-2.6.4-3.4 1.5-3 .8.3 1.6-.3 1.9-1.4.2-1 1-2 1.6-2 1.4 0 1.4 3.3 0 4.8-1.7 1.6-.4 4.3 2 4.3 1.3 0 2.6-1 3.3-2.6 1.3-3 4-2.8 4.7.3.3 1.2 2.7 4.4 5.3 7.1 3.2 3.3 4.8 5.7 4.8 7.5 0 2.8 3 6.7 5.4 6.7 1.5 0 2.9 2.6 2 4-1.2 2-3.6.7-7-4-2-2.8-4-5-4.5-5s-1-.9-1-1.8c0-2.4-1.8-4.2-4.3-4.2-1.4 0-1.7.5-1.4 2 .3 1 0 2-.6 2.3-.6.3.1.5 1.7.6 2.9 0 2.9.1 2.2 4.6a14 14 0 0 1-2.7 6.6c-1.4 1.4-1.8 2.7-1.3 4.2 1.7 5.4 1.6 7.2-.4 9-2 1.8-2 1.8.1 8a302 302 0 0 0 7.5 18.7 11657.8 11657.8 0 0 1 8 18.2c.2.4-.8 1.3-2.2 2-2.2 1-2.5 1.6-2 3.7.9 4 6.9 16.5 9.1 19.1.8.9 1.4 2.1 1.4 2.8 0 .7 1.6 4.5 3.5 8.6 1.9 4 3.5 8.6 3.5 10.2v2.8l1.5-2.2c1.2-1.7 1.3-2.7.5-4.3-.6-1.1-1-2.8-.8-3.8.6-2.6 2.7 1.8 3.4 7.2.5 3.9.4 4.4-1.5 5-2.5.6-2.8 2.5-.6 3.3 1 .3 2.2-.2 3-1.3 1.4-1.8 1.4-1.8 1.5 0 0 2.4-1.8 5.7-4.8 8.5-2 1.8-2.3 2.8-1.7 5 1.7 6.5 1.9 78.1.2 79.8-.4.3-.3 1.3.2 2.2.5 1 .6 6 .2 11.2-1.4 17.5.4 20.9 6.8 13 3.3-4.2 5-5.1 5-2.7 0 .8-1.7 2.6-3.8 4-5.7 4-7.7 6.4-6.4 7.8.9.8.6 1.6-1 3-1.8 1.4-2 2-1.1 3.5.8 1.4.7 2.6-.2 5a9 9 0 0 0-.5 6.2c.5 1.6.6 3.3.3 3.6-1.7 1.7 3.5.2 5.5-1.6 1.2-1.2 2.6-2 3-1.6.8 1-1.7 3.7-3.3 3.7-.8 0-1.4.4-1.4.9s-1.1 1.3-2.5 2c-2 .9-2.5 1.8-2.5 5 0 3.6.3 4 3 4.7 3.7.8 6.4-1 3-2-3-1-2.4-2.3 1.5-2.7 2.5-.3 4 .1 5.8 1.7 2 1.9 3.2 2.1 7 1.7 5-.6 8.2 1 7.2 3.5-.9 2.5.5 5.2 2.6 5.2 1.1 0 1.7-.4 1.4-1-1.1-1.8.5-3 2.6-2 2.4 1.4 2.4 3.9 0 7a8.2 8.2 0 0 0-2 4.3c-.1 2.4 4.1 2.3 6.4-.3 1.5-1.6 1.6-2.4.7-4.5-1-2-.9-2.6.3-3 2.5-1 3.7.6 3.3 4.6-.4 4.7 1.1 5.3 3.3 1.3 1.8-3.3 6.2-4 6.7-1.1.2 1-.2 1.7-1 1.7-1.5 0-2 .5-8.8 8.3-4.5 5-6.2 5.3-5.8 1 .5-4.3-2.4-3.9-4.4.6-1 2-1.8 4.4-1.8 5.2 0 .8-1.8 2.7-4 4.1-2.2 1.6-4 3.7-4.2 5-.3 2.4-11.9 11.8-14.5 11.8-2.6 0-1.3-1.8 2.2-3 2-.6 3.5-1.6 3.5-2.3 0-.6.3-2.2.6-3.4.5-2 .2-2.3-2-2.3-1.9 0-2.6.6-2.6 1.9 0 1.2-1.8 2.7-5.5 4.5-5.8 2.8-6.9 4.5-3.5 5.4 3.3.8 2.4 4-1.3 4.8-1.7.4-5 2.2-7.3 4a44 44 0 0 1-8.5 5.3 34 34 0 0 0-7.9 5c-3.6 3.4-6 4-6 1.7zm21-13.8c2.6-1.8 5-3.8 5.3-4.4.7-1.6-7.3-.5-9.4 1.3-.9.7-2.7 1.3-4 1.3a9 9 0 0 0-4.5 1.5c-1.8 1.3-1.8 1.4-.2 2 1 .5 2.4.5 3.2.2.8-.3 1.8-.1 2.1.4 1 1.5 2.2 1.1 7.4-2.3zM74 752.3c1.3-1.4-1.8-3.4-5.2-3.3h-3.7l3.5 2c4 2.1 4.4 2.2 5.4 1.3zm40.5-1c-1-.9-2.1-1.3-2.8-.9-1.6 1-.3 2.5 2.2 2.5 2 0 2 0 .6-1.6zm-8-1.1c.2-.8-.6-1.3-2.1-1.3-1.4 0-4.4-.6-6.6-1.4-4.6-1.6-9.2-.7-9.2 1.9 0 2.4 17 3.2 17.8.8zM66 746.7c1.2-.9 1.4-1.7.8-2.7-.8-1.2-1.4-1.2-3.3-.2-1.7 1-4.5 1-11.8.2-20-2.2-22-2.3-22-1.3 0 .5 4.2 1.5 9.3 2.2l13.7 2c7 1.2 11.5 1.2 13.3-.2zm55.8-1.3c0-1.5-3.5-2-6.5-.8-2.9 1-1.6 2.3 2.5 2.3 2.9 0 4-.4 4-1.5zm19-7c0-1.5-4.3-1.2-4.8.4-.3.9.4 1.2 2.2 1 1.5-.2 2.6-.8 2.6-1.4zm-8.2-.3c.8-.5 1.2-2.1 1-3.8l-.3-2.9 9.4-.2c5.2-.1 9.6-.4 9.9-.7.3-.3-.2-1.4-1.1-2.4-1-1-1.4-2.1-1-2.5 1.2-1.2 4.4-.7 5 .8.6 1.7 4.3 2.1 4.3.5 0-.6-1-1.4-2.2-1.8l-2.1-.8 4.2-4.3-2-.6c-1.2-.4-2.6-.2-3.2.4-.6.7-2 1.1-3 1.1s-2.1.9-2.4 2c-.3 1.2-1.1 1.7-2.4 1.3-2.4-.6-2.4-1.1.3-4 2.1-2.2 2.1-2.3 0-2.3a5 5 0 0 0-3.3 1.6c-1.1 1.4-1.3 1.4-2.1 0-.6-1-2.3-1.6-4.2-1.6-1.8 0-4.1-.6-5.2-1.4-1-.8-2.7-1.5-3.7-1.5s-1.7-.7-1.7-1.4c0-2.2 1.2-2.7 3-1.2 1.8 1.7 11 3.3 11 2 0-.6-1.9-1.7-4.1-2.7-3.6-1.5-4-2-3.5-4.2.3-1.3.1-2.7-.5-3-1.3-.9-8 3.5-8 5.1 0 2.7-3.1 4.3-8.4 4.3-4.6 0-5.5-.3-7.5-3-1.6-2-2.7-2.6-3.5-2-.7.6-2.4-.4-5-3.1-3.9-3.9-4-4-2.1-5.4 1.7-1.3 2.1-1.2 3.7.1 1 1 1.5 2.3 1.2 3-.4 1 .2 1.4 2 1.4 2.2 0 2.8-.6 3.8-4 1.1-3.7 1.4-4 2.2-2.2.5 1.1 2 2.5 3.3 3.1 3.6 1.7 2.4 3.9-2.9 5.5-1 .3-1.7 1.3-1.7 2.1 0 2.6 4.9 1.8 9-1.5 2-1.6 4.7-3 5.9-3 2.1 0 2.9-2.3 1-3.5-1.8-1.1-1-2.5 1.8-2.5h2.8l.2-13.5c.2-10.8 0-13.5-1.1-13.5-1 0-1.6 3-2.3 12.3-.7 9.8-1.1 12.2-2.3 12.2-1.2 0-1.5-1.6-1.5-8.6 0-4.8-.3-9-.6-9.3-.4-.3-1.4.6-2.4 2-1.4 2.2-1.5 2.9-.3 4.3 3 3.5-1.2 12.6-4.3 9.5-.6-.6-1.3-3.6-1.6-6.7-.5-4.5-1-5.7-2.4-5.7-3 0-4.5 2.8-3.3 6 1 2.4.8 3.1-1 4.7-1.2 1-3.4 2.4-4.9 3-2.6 1.2-2.7 1.1-2.7-1.2 0-1.5-.6-2.5-1.5-2.5s-1.5.7-1.5 1.6c0 2.5-3.2 6.4-5.2 6.4-2.8 0-2.3 2 1.6 5.5 2 1.8 3.6 4.2 3.6 5.4 0 1.7.5 2.1 3 2.1 1.6 0 3 .4 3 .8s1.5 1.6 3.5 2.7c1.9 1 3.5 2.5 3.5 3.2s.6 1.3 1.4 1.3c1 0 1.3-.5 1-1.5-.4-.8-.2-1.5.5-1.5.6 0 1 .7 1 1.6 0 2 6.4 5 8.7 4 2-.8 2-.8-3.3-4.3-1.6-1-1.4-1 1.4-.6 2.2.4 3.3.2 3.3-.6 0-.7.8-1 1.7-.9 1 .2 1.8 1.2 1.8 2.3 0 1.6.8 2 4.8 2.1 6 .2 7.5 1.4 1.8 1.4-3 0-4.1.4-4.1 1.6 0 1.4 1 1.5 8 1 4.8-.4 8-.2 8 .4 0 1.4-3.7 2.3-7 1.5-3.3-.7-8.6 1.8-7.5 3.6.3.5-1 1-3 1-3 0-3.6.3-3.1 1.5.3.9-.1 1.8-1 2-.8.4-1.4 1.3-1.4 2 0 1.6 7.5 2 9.8.6zM117 700.7c.5-1.5 6.8-2.3 6.8-1 0 1.2-2.5 2.2-5.2 2.2-1.2 0-1.8-.5-1.6-1.2zm30.2 34.3c.3-.5 0-1-.7-1.3-1.8-.6-4.8.3-4.1 1.4.7 1.1 4.1 1.1 4.8 0zm-22.2-6c3-1.7 1.2-3-3.2-2.3-3 .4-4.4.2-5.8-1-2-2-5.1-1.2-5.1 1 0 1.1.7 1.4 2.5 1.1 1.4-.3 3 .1 3.6.9 1.3 1.6 5.2 1.8 8 .3zm40-6.3c0-1.7-2.8-3-3.6-1.6a2 2 0 0 0 0 2c1 1.4 3.5 1.2 3.5-.4zm-4.7-6.7c3.6-2.9 3.4-4.4-.6-3.6-3.6.8-5.8 2.3-5.8 4.3s3.4 1.6 6.4-.7zm-10-.8c.3-.5-.1-1.7-.9-2.8-1-1.4-1.8-1.6-3.1-.8-2.7 1.7-2.8 3.2-.2 3.7l3 .6c.4.1 1-.2 1.2-.7zm-58.7-7.7c.2-1.4-.9-2.8-3.8-4.6-2.3-1.5-3.6-3-3-3.3 1.8-1.1 1.2-4.7-.8-5.2-2.6-.7-4.6-5.1-3.1-7 1.3-1.5 1.5-9.1.4-18.1-.6-5.7-.5-6.4 1.5-8 2.7-2.2 1.8-5.3-1.6-5.3-1.3 0-2.4.5-2.4 1.1 0 .6-1 .4-2.2-.5-3-2.1-4-2-2.8.4 1.4 2.7 1.3 4-.5 4s-1.9 1.2-.2 2.9c1 1 1 1.6 0 3.1-2.4 3.9 1 6.7 4.1 3.5 1.3-1.3 1.5-1 1.5 3.3v6.2c.3 3-1.1 8.6-2.5 10.2-.8.8-1.1 2.3-.8 3.2.5 1.3.2 1.5-1.2 1-1-.4-2.4-1-3-1.6-2-1.5-9.8-.5-10.2 1.4-.2 1 .6 2 2 2.4 1.3.4 3.6 1.6 5.1 2.7 2.1 1.4 3.1 1.7 4.1.8.8-.6 2.7-.8 4.5-.4 2.5.5 3.1.3 3.1-1 0-1 .5-1.5 1-1.2.6.4 1 1.6 1 2.7 0 2.7 6 10 8 9.6.8-.1 1.7-1.2 1.8-2.3zm-15.8-44c0-2.3.3-2.5 1.5-1.5.9.7 1.5 2 1.5 2.7 0 .7-.6 1.3-1.5 1.3-1 0-1.5-1-1.5-2.6zm79.3 43.4c-1.5-1.6-2.6-.4-1.8 1.8.5 1.3 1 1.4 1.8.5 1-.9 1-1.4 0-2.3zm-15.2.1c0-1.3-.7-2-2-2-2.7 0-3.4 1.7-1.3 3 2.6 1.5 3.3 1.3 3.3-1zm19.3-3.4c.3-.8-.1-1.7-1-2-2-.8-2.7 0-2 1.9.8 2 2.3 2 3 .1zm-113-4.8c.7-2.8-1-4.9-2.4-2.7s-1.2 5 .4 5c.8 0 1.6-1 2-2.3zm45.2-5.3c1.8-5.1 1.8-5.5-.4-5.5-2 0-3.2-1.8-3.2-5.2 0-2 0-2-2.5.2-3.2 3-3.1 3.7.5 4.5 3.6.8 4.6 3.2 2.4 5.7-1.7 1.9-1.2 5.3.7 4.6.7-.2 1.8-2.1 2.5-4.3zm-40.2-5 1.2-7c.5-2.5 1.2-3.5 2.5-3.5 1 0 2.2-.7 2.7-1.7 1.1-2.1 1-9-.3-11.7-.5-1.3-.3-2.9.8-4.8 2-3.4 2-4.6.7-8.2-.8-2.2-1.3-2.5-2.9-1.6-1.4.7-1.9 2-1.8 4.6 0 2.3-.5 4.1-1.4 4.8-.9.6-1.9 1.8-2.2 2.6-.4.9-.4.2-.1-1.5.3-2.1 0-3.5-1-4.4-2.1-1.7-3 .7-2.2 5.4.8 4-.7 7.5-3 7.5-1.7 0-1.8 1.4 0 2.9 1.7 1.5 5.4.3 6.1-2 .7-2.1 2.8-2.4 4.3-.6 1.1 1.4-.9 6.9-3.5 9.6-.7.7-1.3 2-1.3 2.8s-.7 2.2-1.5 3c-.9.9-1.4 2.3-1 3 .3.9.5 2.1.5 3 0 3 2.8 1.2 3.4-2.2zm6.6 2.1a3 3 0 0 0-1-2.1c-1.5-.9-3.4 1-2.5 2.5 1 1.5 3.5 1.3 3.5-.4zm47.4-1c-.7-2-4.3-2-4.3-.1 0 .8.7 1.6 1.7 1.8 2.4.5 3.3 0 2.6-1.8zm-39.5-.6c2.4-2.3 2-4.9-.5-2.8-1.2 1-1.6.8-2-1-.8-2.9-2.5-2.3-3.7 1.3-.7 2-.6 3 .4 3.6 2.1 1.4 3.3 1.1 5.8-1.1zm7.1 0c0-1-.6-2-1.5-2-.8 0-1.5 1-1.5 2s.7 2 1.5 2c.9 0 1.5-.8 1.5-2zm-37.6-2c3.1-3.7 3.3-6 .6-7.7-2-1.2-2.2-1-4.1 3.3-3.2 7.3-1.1 9.9 3.5 4.4zm64.4-4.5c-.4-2 0-2.5 1.4-2.5 2.8 0 3.3-2.4 1.4-8-1.7-5.2-1.4-7 1-7 .8 0 1.5-.4 1.5-1s-.8-1-1.6-1-1.4-.5-1.2-1.2c.2-.7 1.4-1.3 2.5-1.3 3.7 0 3.4-1.2-.4-1.8-2.1-.3-4.3-.1-5 .5-1.6 1.3-1.8 5.5-.3 6.4.6.4.8 1.9.4 3.6-.3 1.6-.1 3.5.4 4.2.8 1 .6 2.4-.9 5.2-2.4 4.7-2.5 6.4-.3 6.4 1.2 0 1.5-.6 1.1-2.5zm-8-.6c-.4-.8-.6-.6-.7.6 0 1 .2 1.6.5 1.3.4-.4.4-1.2.1-2zm-26.6-4c.5-1.9 1.4-4 2-4.7 1.5-2 0-4.4-2.5-4-1.7.2-2.4 1-2.6 3.4-.2 1.8-.9 3.7-1.6 4.3-2 1.7-.8 5.2 1.7 4.8 1.5-.2 2.4-1.4 3-3.8zm6.5.4c-.4-5.3-2.8-5.6-2.8-.4 0 3 .4 4 1.6 4 1.2 0 1.5-.8 1.2-3.6zm-28.3.6c1-1.5-.1-2.3-2-1.6-.9.4-1.3 1-1 1.6.8 1.4 2.2 1.3 3 0zm70-.5c.9-.9 1.6-2 1.6-2.5s.6-1 1.4-1c.7 0 1.5-1.3 1.8-2.9.4-2.7.2-2.8-1.7-1.8-1.1.7-2.6 1-3.3 1-.7-.2-1.5.5-1.8 1.5s-1 2.5-1.5 3.5c-2 3.8.4 5.3 3.5 2.2zm-66-2.3c-.8-.8-2.5 1-1.9 2 .4.7 1 .6 1.5-.3.4-.7.6-1.5.4-1.7zm46.5-.7c4.8-1.4 4.9-4.4.2-4.5-2.3 0-2.4-.2-.9-1 2-1.2 2.4-4 .6-4-.6 0-1.7.8-2.3 1.7-.8 1-2 1.4-3 1-1.3-.5-1.6-1.3-1-3.7.4-2.1.2-3-.8-3-1.8 0-1 8.3 1 9.4 1 .6 1.3 1.8.7 4.5-.6 3.5-.6 3.5 1.2 2 1-.9 3-2 4.3-2.4zm-57.6 0c.8-2.1.8-7 0-7.8-1.4-1.3-3.4 1.7-3.4 4.8 0 4.5 2.1 6.3 3.4 3zm88.4-1.6c-.6-1.9-2.7-2.2-2.7-.4 0 .8.7 1.5 1.6 1.5.8 0 1.4-.5 1.1-1.1zm-10-6c.2-1-.5-1.8-1.9-2.2-2.9-.7-3.8 0-3.1 2.4.6 2.5 4.6 2.3 5-.2zm17.4-2.3c1-2 1.2-4 .7-4.7a19 19 0 0 1-.8-6c0-4.8-1.3-7.1-2.4-4.3-.3.8-1.5 1.4-2.6 1.4s-2 .7-2 1.5c0 .9.8 1.5 1.9 1.5 2.2 0 3.5 5.2 2.5 10.5-.8 4.5.6 4.5 2.7 0zm-65-1.1c1-2 1-3.3 0-5.8-.6-1.8-1.2-4-1.2-5s-.5-1.6-1.2-1.4c-.7.2-1.2 3.1-1.4 7.6-.2 5.7 0 7.1 1.2 7.1.8 0 2-1.1 2.6-2.5zm57.9-4.5c0-1.8-.4-2.8-1-2.5-.6.4-1 1.8-1 3.1s.4 2.4 1 2.4 1-1.3 1-3zm-8 1c1.1-.6 2-1.7 2-2.5 0-.7.7-3 1.6-4.8 1-2.1 1.4-4.2.9-5.3-.7-1.6-.9-1.5-1.7.9-.7 1.9-2 3-4.2 3.5-2.4.7-3.2 1.5-3.5 3.6-.1 1.5.3 3.4 1 4.2 1.3 1.7 1.5 1.7 4 .4zm-21-5.2c0-3.8-1.6-5.2-2.7-2.5-1.3 2.7-.7 4.7 1.2 4.7.8 0 1.4-1 1.4-2.2zm11.5.2c.3-.5.1-1-.5-1s-1 .5-1 1 .2 1 .4 1 .7-.4 1-1zm-17-3.5c.7-2.8-.7-5.1-2.5-4-.6.4-1 2-1 3.6 0 3.7 2.6 4 3.6.4zm12-1c2.8-6.7 1-11-2.4-5.4-1.8 3-2 3-2.6 1-.7-2-2.6-2.9-2.6-1.1 0 .5-.2 1.6-.6 2.5-.4 1 0 1.5 1.4 1.5 1.3 0 2.3 1 2.7 2.5.8 3.5 2.4 3.2 4.1-1zm-52.6 0c0-1.9-2-2.9-3.2-1.6-.8.8-.7 1.5.2 2.6 1.4 1.7 3 1.2 3-1zm34 1.1c0-.2-.4-.7-1-1s-1-.2-1 .4c0 .6.5 1 1 1s1-.2 1-.4zm-4.1-3.4c1.4-1 3.5-2.1 4.5-2.5 1.6-.6 1.8-1.4 1.4-5.9-.4-3.6 0-5.9 1-7.5.8-1.2 1.2-3 .9-3.8-.6-1.4-1-1.4-3.5 0-3.9 2-4.8 4.5-2.3 6.5 2.4 2 1.6 4.3-2.8 8.5-1.7 1.6-3 3.7-3 4.7 0 2.3.5 2.3 3.8 0zm35.5-1.9c.6-3.2.1-4.3-1.9-4.3-1 0-1.4 1.2-1.4 3.5 0 4.3 2.5 4.9 3.3.8zm-42.2-2c2.2-1.8 2.4-5.3.5-5.3-1.7 0-3.2 1.8-4 4.8-.6 2.7 1 3 3.5.6zm18-3c.5-4.3-.4-7.3-1.8-5.9-.5.4-1 3-1 5.8-.2 6.2 1.9 6.2 2.7 0zm-32-1.3c.8-2.2 1.3-2.8 1.9-1.8 1.4 2.2 6-3.6 6-7.6 0-3.5 2.2-6.5 3.4-4.6.4.6.4 2 0 3-.5 1.6-.1 2 1.4 2 1 0 2.2-.6 2.5-1.5.9-2.2-.4-7.5-1.8-7.5-.7 0-2.3-.9-3.6-2-1.6-1.3-2.7-1.7-3.4-1-.5.6-1.7 1-2.5 1-.9 0-2.2 1-2.8 2-.7 1.1-2 2-2.7 2-1.4 0-2.6 6.1-2.6 13.5 0 6.4 2.4 7.7 4.2 2.5zm-.6-4.7c-.2-.2 0-1.5.6-2.9 1.3-2.6 5.8-3.4 5.8-1 0 1.5-5.4 4.8-6.4 4zm5-10.8c.4-.8.8-1.5 1-1.5.2 0 .4.7.4 1.5 0 .9-.4 1.5-1 1.5-.5 0-.7-.6-.3-1.5zm1.4-3.5c0-.5.5-1 1-1s1 .5 1 1c0 .6-.4 1-1 1s-1-.4-1-1zm54.9 19.4c-.5-2.5-2.8-2.9-2.8-.4 0 1.2.6 2 1.5 2 1 0 1.5-.6 1.3-1.6zm3.9 1c-.3-.3-1.2-.3-2 0-.7.3-.5.5.7.6 1 0 1.6-.2 1.3-.6zm7-3c-.3-1-.5-.5-.5 1.1 0 1.7.2 2.5.4 1.8.3-.7.3-2 0-3zm-30.7.5c0-.8.4-.8 1.4 0 1.1 1 1.6.9 2.5-.7 1.3-2.6 1.4-6.2 0-6.2-.5 0-1.4 1.2-2 2.6-.7 2-1.4 2.4-3.4 1.9-2.7-.7-3.3.4-1.3 2.3 1.5 1.6 2.8 1.6 2.8.1zm-27.5-2.3c-.3-2-1.6-3.2-1.6-1.4 0 1.3.9 2.8 1.6 2.8.1 0 .2-.6 0-1.4zm26-2.5c.2-.5 0-1.2-.6-1.6-.6-.4-.8-1.4-.4-2.3.3-1 1-4.1 1.4-7.2l1.6-8.3c.6-2.4.5-2.8-1.2-2.5-1.5.3-2 1.7-2.6 6.9-1.1 9-1.4 14.3-1 15.2.5 1 2 1 2.7-.2zm10.9-2.8a3 3 0 0 1 1.8-.8c1.7 0 3.9-7.4 2.7-9.5-.5-1-1-2.8-1-4 0-1.5-.5-2-1.7-1.7-1.8.3-2 2-1.2 10.2.4 3 .1 4-1 4-.7 0-1.6.6-1.8 1.3-.4 1.4 1 1.7 2.2.5zm12.6-2.8c0-.8-.5-1.5-1-1.5s-1 1-1 2.1.4 1.8 1 1.4 1-1.2 1-2zm5.5 1.5c.3-.5.1-1-.5-1s-1 .5-1 1 .2 1 .4 1 .7-.4 1-1zm-21.5-4 .6-5.2c.5-3 .3-3.8-1-3.8-2 0-4 3.6-3.1 6 .3 1.1.1 2.8-.5 3.9s-.7 2.1-.4 2.5c1 .9 4.4-1.7 4.4-3.3zm-13.2-3.3c.1-1.4-.1-2.7-.7-2.7-1.6 0-3.4 3-2.8 4.6 1 2.4 3.1 1.2 3.5-1.9zm-37.5-.2c.3-.8.1-1.5-.4-1.5s-1 .7-1 1.5c0 .9.2 1.5.4 1.5s.7-.6 1-1.5zm29.7.8.5-5.5c.2-3.2 0-5.1-1.1-6.1-1-1-1.1-1.8-.5-2.1 1.4-.9 1.3-11.5 0-11.5-1.6 0-2.7 4-2.4 9a16 16 0 0 1-.6 6c-.9 1.7 2 11 3.3 11 .4 0 .8-.4.8-.8zm-8-5.3c0-2.8-.5-4-1.5-4-1.8 0-3 3.4-2 6 1.1 3.7 3.4 2.4 3.4-2zm53 3c0-.5-.2-1-.5-1s-.7.5-1 1c-.4.6-.2 1 .4 1 .6 0 1-.4 1-1zm-69-3c0-1.3-.7-2-2-2-1.4 0-2 .7-2 2 0 1.4.6 2 2 2 1.3 0 2-.6 2-2zm71-4.3c-.7-.7-1-.3-1 1.5 0 3.3 1.4 4.7 1.8 1.8.2-1.2-.1-2.7-.7-3.3zM93 609.7c-1.9-1.9-3.6 3.5-2 6.4 1.2 2.3 1.2 2.3 2.2-1.5.6-2.6.5-4.2-.2-4.9zm-22.6 2.5c-1-1-1.8.6-1 2.5.7 1.7.8 1.7 1.2 0 .2-1 .1-2.2-.2-2.5zm-2.6-.4c0-.5-.6-.8-1.5-.8-.8 0-1.5.9-1.5 2 0 1.8.3 2 1.5 1 .9-.7 1.5-1.7 1.5-2.2zm57.8 1.5c.4-1.3-2.5-2.6-3.9-1.8-.6.4-.5 1.2.3 2 1.3 1.6 3 1.5 3.6-.2zm-62.4-2.5c1-4.7.8-5.8-.8-5.8-1.2 0-1.2-.5.2-3 1.9-3.3 5.6-4.1 6.6-1.5.9 2.3 2.6.8 2.6-2.2 0-1.3-.4-2.2-.9-1.9-.5.3-1.2.2-1.5-.4s-.1-1.2.4-1.5c1.3-.8 1.4-6.5.1-6.5-.4 0-1-1.3-1.3-2.9-.3-2.5-.1-2.7 2-2.3 1.3.2 2.6 1 3 1.8.5 1.4 5 1.8 6.8.6 2.6-1.7 2.2-11.2-.5-11.2-.5 0-1.5 1.5-2.2 3.5-1.4 3.8-1.7 4-5.3 2.3-2.1-1-2.9-.9-4.4.5-1 .9-2.1 1.7-2.4 1.7-.3 0-4.2-2.5-8.6-5.5s-8.5-5.5-9-5.5c-1.7 0-2 2.7-2.3 18.5-.2 18-.3 17.4 1.7 17.4 1.5 0 2.8 1 6.2 4.2 2 1.9 4 2.7 6.8 2.8 1.7 0 2.3-.7 2.8-3zm-7.9-8.3c0-3.7.5-6.4 1-6.3 1.3.3 1.3 12 0 12.4-.6.2-1-2.3-1-6.1zm-6.4-9.5c0-5.3-.1-10.2-.3-11-.2-.9.2-1.7.7-1.8 2-.6 2.7 10.9 1.1 16.7l-1.5 5.5zm14 .7c0-.7.4-2 1-2.7.7-1.2.9-1 1 1.2 0 1.5-.5 2.8-1 2.8-.6 0-1-.6-1-1.3zm-7-3.7c0-1.8 1.6-3.7 2.4-2.9.7.7-.7 4.9-1.6 4.9-.5 0-.9-1-.9-2zm33 22.4c0-.8-.5-1.4-1-1.4s-1 .6-1 1.4.4 1.5 1 1.5 1-.6 1-1.5zm17.8-.2c-.4-2.1-2.2-2-2.7.2-.2.9.4 1.5 1.4 1.5 1 0 1.5-.6 1.3-1.7zm-29.9-2.7c0-1.6-.5-2.5-1.5-2.5-1.5 0-2 3-.8 4.3 1.4 1.3 2.3.6 2.3-1.8zm24.9-.8c-.2-1.2-1.1-2.4-2.1-2.6-2.2-.4-3.5 2.7-1.6 4 2.5 1.5 4 1 3.7-1.4zm26.8-3c-.2-.7-.5-.1-.5 1.3 0 1.3.3 1.9.5 1.2.3-.7.3-1.8 0-2.5zm-57 .8c.3-.9 1.4-1.5 2.4-1.5 1.4 0 2-.8 2-2.6 0-1.7.7-2.8 2.4-3.4 3.6-1.4 3.6-6.6 0-8.2-1.3-.7-2.7-1-3-.6-.3.3-.8 3-1.2 6-.4 4.6-1 5.7-2.9 6.6-1.4.6-2.4 2-2.4 3.1 0 2.4 1.8 2.7 2.7.6zm17.9.4c.4-.7 1-.7 1.8 0 .9.6 1.6.4 2.4-1 1.6-2.5-.2-7.6-3-8.3a7.7 7.7 0 0 0-2.3-.4 55 55 0 0 0-1 5.5c-.4 3.4-.3 5.3.4 5.3.6 0 1.3-.5 1.7-1.1zm33.5-3.4c0-3.4-.4-4.5-1.5-4.5s-1.5 1-1.5 3.8c0 2 .3 4.1.6 4.5 1.6 1.6 2.4.3 2.4-3.8zm-7.6 1.5c.3-.5.1-1.2-.4-1.5-.6-.4-1 0-1 .9 0 1.7.6 2 1.4.6zm-13.6-1.4c.7-.8 1-4.6.7-10.2-.2-5.5 0-9.5.7-10.2.7-1 .7-2-.1-3.8-1.7-3.8-1.4-4.6 1.5-3.8 2.5.6 2.6.5 2-2.8-.4-1.8-1-7.6-1.3-12.8-.5-8.2-1-10-3.2-12.8-3.3-4.1-4.1-4-4.1.2 0 1.9-.5 3.7-1 4-.6.4-1 1.9-1 3.4s-.6 3.3-1.3 4c-1 1-1 1.4.2 2.2 2 1.1 2.8.2 3.2-3.5.2-1.6.9-3 1.5-3.3 1.4-.4 2.7 5.8 1.4 7.1-1.3 1.3-1.4 6.3-.1 7 1 .7.2 4.7-.9 4.7-.3 0-1.2-.6-2-1.3-1-1-1.2-.7-.6 1.8.3 1.6.8 5.7 1 9l.5 7.5c0 .8 0 4.2-.3 7.5s0 6.3.1 6.7c.6 1.1 1.9.9 3.1-.6zm14.2-9.3c0-3.1-2.2-6-3.8-5-.5.3-1 2.6-1 5 0 3.5.3 4.6 1.6 4.9 2.2.4 3.1-1 3.2-4.9zM35 596.8c.4-1.2.2-3-.3-3.8-.8-1.3-1-1.2-1 .6 0 1.2-.3 2.9-.6 3.8-.3.8-.2 1.6.4 1.6s1.2-1 1.5-2.2zm95.5 1.6c-.3-.3-.2-2 .3-3.5.5-1.6.4-3.2 0-3.5-1.1-.6-1.6.2-2.5 4.3-.6 2.7-.4 3.3 1 3.3 1 0 1.6-.3 1.2-.6zM86.7 597c0-1.3-2.9-3.5-3.6-2.8-1 1 .5 3.7 2.1 3.7.9 0 1.5-.4 1.5-1zm49-.6c0-.2-.4-.7-1-1-.5-.4-1-.2-1 .4 0 .6.5 1 1 1s1-.1 1-.4zm-109.3-10c.3-5.1.1-7.5-.6-7.5-.6 0-1.1.5-1.2 1.2 0 1.5-.9 11.5-1 12.5-.4 2.5.2 3.6 1.2 2.5a23 23 0 0 0 1.6-8.7zm67.8 7c1.5-1.6 2.2-3.2 1.9-4.2-.6-1.5-.8-1.4-2 .2-.7 1-1.4 2.2-1.4 2.7s-.6.7-1.5.4c-1.5-.6-2 1.4-.8 2.7 1 1 1 1 3.8-1.9zm32 .2c.3-1.2.6-3.6.6-5.2s.5-4.3 1.1-6c.7-1.8.9-4.5.5-6-.6-2.4-1-2.7-3.4-2-4 .9-4.2 1.4-4.4 9.1-.2 5.3.2 7.7 1.5 9.7 2.1 3.2 3.3 3.4 4 .4zm-2.8-9.4c-1-1-.8-6.2.3-6.8.5-.3 1 1 1.3 3 .4 3.5-.3 5-1.6 3.8zM87.7 590c0-.5.8-.9 1.8-.8 1.4.1 1.8-.7 1.8-3.8.2-5.7.4-6.4 1.5-3.7 1.4 3.6 2.4 1.9 2.8-4.6.3-6 .2-6-2.3-5.5-2.1.4-2.5 1-2.3 3.1.2 1.8-.2 2.7-1.3 2.7-.8 0-1.5-.7-1.5-1.5 0-.9-.4-2.1-.8-2.8-.4-.7-.5-1.7-.1-2.3.8-1.4-.5-7-1.6-6.4-.4.2-.8 4.4-.7 9.2s-.3 10.7-.7 13c-.7 3.9-.6 4.3 1.4 4.3 1.1 0 2-.4 2-1zm0-7.7c0-.9.5-1.3 1-1 .6.4.8 1.1.5 1.6-.9 1.4-1.5 1.1-1.5-.6zm28-2.8c-.4-8.1-.1-9.4 2.2-10 1.8-.4 2-1 1.5-3.6-.4-2-.2-3 .4-2.5 1 .6 1.3-3.5.4-6-.4-.8-1.3-1.5-2.1-1.5-1.1 0-1.3.7-.8 3 .6 2.8.5 3-2.3 2.3-2.9-.5-3-.4-3.5 4.4-.7 5.8.1 16 1.4 18.5 1.6 3.1 3 .7 2.8-4.6zm-40.1-5.2c-.6-2.8-2.9-3-2.9-.2 0 1.3.3 2.7.7 3.1 1 1 2.6-1 2.2-3zm-6.2-.4c1.5-1.2 2-2.1 1.3-2.6-.6-.3-.8-1.4-.4-2.3.4-1 .6-2.7.6-3.9 0-1.2.3-2.2.9-2.2 1 0 .6-11.2-.6-14.3-1.3-3.3-5.7-1.2-6.8 3-.6 2.8 2 4.4 3.4 2.1.9-1.3 1-1.1 1.3 2.3 0 .6-.7 1.3-1.7 1.4-2.6.4-2.5.1-2.7 8.5-.3 11.4 0 11.7 4.7 8zm64-1.8c-1.1-1-1.7.4-1 2.4.8 1.8.8 1.8 1.2 0 .2-1 0-2-.2-2.4zm-52-.8c.3-.9.2-4.8-.3-8.8-.9-7-.9-7.1-3.9-7.1-2 0-3 .5-3.3 1.8-.3 1.5 0 1.8 1.7 1.4 1.8-.5 2.1-.1 2.1 2.3 0 1.6-.3 2.9-.7 2.8-2.1-.3-3.3.3-3.3 1.8 0 1.3.3 1.4 1.5.4 1.3-1 1.6-.6 2.1 2.9.7 4.1 3 5.5 4.1 2.5zm-24.9-1.6c1.7-1.8 1.5-2.8-.6-2.8-1.8 0-4.2 1.7-4.2 3.2 0 1.2 3.5.9 4.8-.4zm70.9-5.4c-.8-2.2-3.6-.5-3.6 2.1 0 1.3.8 2.8 1.7 3.3 1.5.9 1.8.6 2.1-1.5.2-1.4 0-3.1-.2-4zM97.8 567c0-2.4-1.9-3.6-3.2-2.3-.7.7-.7 1.7.1 3.2 1.3 2.4 3 1.9 3-1zm-35-1.1c0-1-.5-2-1-2-.6 0-1 1.2-1 2.6 0 1.5.4 2.3 1 2 .5-.4 1-1.5 1-2.6zm65.2-9.7c.2-3.4.7-4.7 1.8-4.7.8 0 1.6-1 1.8-2.3.2-1.4-.2-2.2-1.1-2.2-1 0-2-1.9-2.8-4.5-2-6.6-3.3-5.6-2.6 2 .5 5 .3 6.5-.7 6.5-.7 0-1.8-1.5-2.3-3.3-.6-2.3-1.6-3.3-3.2-3.6a4.4 4.4 0 0 1-3-2.5 9.8 9.8 0 0 0-2.4-3.5 13 13 0 0 1-2.8-4.2c-.6-1.6-1.6-3-2.2-3-1.5 0 0 4.9 2.4 7.2 1.8 1.8 2 2.8 1.4 9-.5 6-.4 7 1.1 7.5 1 .4 1.9.3 2-.2 1.3-3.4 2.2-3.8 4.8-2.1 1.5 1 2.6 2.6 2.6 4 0 2.5 1.7 4.7 3.6 4.7.8 0 1.4-1.8 1.6-4.8zm-38-3.5c1-3.4 1.6-9 1.5-12.2-.2-5.5-.4-6-3.4-7.8-3.6-2-5.3-5.6-3.3-6.8.8-.5 1-1.7.5-3.6-.4-1.6-1-4.1-1.2-5.7-.5-2.1-1.1-2.7-2.7-2.5-2 .3-2.2 1-2.1 6 0 5.8 1.2 9.1 5.2 14.4l3 4c.7.8.8 4.4.4 8.6-.1.7-.8.4-1.7-.7-1.1-1.4-1.7-1.6-2.1-.7-.3.7-1 1-1.5.7-1.9-1.2-4.9.7-4.9 3.1 0 2 .6 2.5 2.5 2.5 1.7 0 2.6-.6 2.6-1.8 0-1 .3-1.2.6-.6.2.6 1.4.9 2.5.6 1.5-.4 2-.2 1.4.6-.4.6-1.6 1.2-2.6 1.2s-2 .5-2 1.1c0 1.3 4 5.9 5 5.9.4 0 1.5-2.9 2.4-6.3zm19.8-4.7c0-1.7-.5-3-1-3-1.2 0-1.8 2-1.3 4.2.8 2.8 2.3 2 2.3-1.2zm-13.6-1c-.3-.6-1-1-1.5-1s-1 .4-1 1 .7 1 1.6 1c.9 0 1.3-.5 1-1zm-34.5-3a1 1 0 0 0-2 0c0 .5.5 1 1 1 .6 0 1-.5 1-1zm44.7-.5c.3-.8-.2-2.2-1-3-1-1-1.6-2-1.6-2.5s-1-1-2.3-1.2c-2-.3-2.3-1-2.6-5.6-.1-2.9-.7-5.2-1.2-5.2s-1 .5-1 1c0 .7-1 1-2.5.7-1.5-.3-2.5 0-2.5.7 0 2 6.1 11 9.4 13.8 3.6 3 4.5 3.3 5.3 1.3zm-30-9.2c-1.1-13.3-1.7-15.6-3.8-15-1 .2-1.9.1-1.9-.3 0-1.2-2.7-2-4.3-1.5-1.2.5-3.7 9.9-4 15.4-.2 3.3 2.1 3.8 2.8.6l1.1-5.3.6-2.7 1.4 3.3c1 2.5 1.1 3.7.2 5-.8 1.5-.8 2.7.2 5 1.3 3.1 3.1 4 6.4 3.3 1.7-.4 1.8-1.1 1.3-7.8zm-5.9-2.9c-.7-.7.4-7.4 1.2-7.4 1.4 0 1.7 6.9.4 7.4-.6.2-1.4.2-1.6 0zm-3.8 9c0-.8-.6-1.4-1.5-1.4-1.5 0-2 1.1-.8 2.3 1.1 1.1 2.3.7 2.3-.8zm-8-2c0-2.5-1.3-3.3-2.5-1.4-.8 1.3.1 4 1.5 4 .6 0 1-1.2 1-2.5zm61.9-2.5c-.5-4.9-2.8-5-2.8-.2 0 2.2.3 4.2.6 4.6 1.3 1.3 2.5-1.1 2.2-4.4zm12.5-2.7c-.3-1.2-1.2-2.2-2-2.2-1.7 0-1.8 5.2-.1 8.3 1.1 2.1 1.1 2.1 2-.8.4-1.6.5-4 .1-5.3zm-77.4-2.4c0-1-.7-1.8-1.5-1.8-1 0-1.5.9-1.5 2.4 0 1.8.4 2.3 1.5 2a3 3 0 0 0 1.5-2.6zm49.6.2c.6-3.2-.1-7-1.5-7-1 0-2 3.5-2 7.2 0 3.8 2.6 3.6 3.5-.2zm7.7-4.8c.4-2.7 0-4.1-1.1-5-1.3-1.1-1.4-1.5-.3-2.2 1.8-1 .6-3.1-1.4-2.4-1 .4-1.3 1.3-1 2.4.4 1 .2 2-.4 2.4-1 .6-.7 3.3.5 7.3.9 2.8 3.3 1.2 3.7-2.5zm17.3.6c0-1.3.5-3 1-3.8.6-1 .4-1.2-1-.7-.9.4-2.3.7-3.1.7-1.7 0-1.8 1-.4 4.5 1.2 3.1 3.5 2.7 3.5-.7zm-69.2-1.6c.5-1.7.6-4 .2-5-.6-1.6-.9-1.5-2.6.8l-2 2.5v-2.3c0-1.3-.8-4.7-1.9-7.7-1-3-1.6-5.7-1.3-6 1.3-1.3 2.2-.3 2.2 2.4 0 4.4 3.5 7.2 8 6.5 5.3-.9 6-1.2 6-3 0-.9-1.2-1.7-3-2-2.2-.5-3-1.3-3.2-3.3-.2-2.3-.7-2.6-3.5-2.4-3.1.2-3.3 0-3.3-3.1 0-4.5-2.6-5.6-4.2-1.9-1.2 2.6-1.3 2.5-1.6-2.5-.2-3.8-.7-5.2-1.8-5.2-2 0-3.4 4.2-3.6 11.3 0 4.9-.6 6.8-2.5 9-1.3 1.6-2.2 3.5-1.9 4.3.3.7-.2 1.7-1.2 2.3-2.2 1.2-.3 3.4 2.5 2.9 1.3-.3 1.8-1.2 1.7-3.6-.2-4.1 1.8-4.2 3.3-.2 1.4 3.7 3.3 3.8 3.3.2 0-2.1.3-2.4 1-1.2.5.8.7 2.2.4 3.2-.6 1.9 5.3 8 7 7.4.6-.2 1.5-1.7 2-3.4zm30.8-2.5c.4-3.7 2-4 3-.6l.6 2.4.5-2.5c.4-1.4.9-4.3 1.1-6.4.3-2.1 1.4-4.5 2.4-5.2 1.7-1.2 1.7-1.3-.2-2-2.5-1-5.8 2.9-5 6 .6 2.4-1 4.3-2 2.6-1.5-2.4-3.6-1-3.6 2.4 0 6.5 2.7 9.2 3.2 3.3zm32.9-2.7c0-2.1-1.6-3.6-2.4-2.2-.8 1.2.5 5.2 1.5 4.6.5-.3.9-1.4.9-2.4zm-18.2-1.5c.6-3-2-10.5-3.6-10.5-1.2 0-1.4 1-1 5.4.3 3 .9 6 1.3 6.6 1 1.5 2.9.6 3.3-1.5zm-26.5-9.6c.4-2 .3-4.6 0-5.5-.6-1.6-.8-1.6-2 .2-.8 1-2.2 1.8-3.2 1.8-2.2 0-2.8 4.8-.7 6.8 2.5 2.6 5.2 1 6-3.3zm9.4-1.2c.7.2 1.2 0 1.2-.6 0-.5-.4-1.1-1-1.3-.6-.2-1.4-2-1.8-3.8-1.1-5.3-3.2-5-3.2.4 0 2.5-.4 4.6-1 4.6-.5 0-1 .6-1 1.5 0 1.3.4 1.3 2.8.1 1.5-.7 3.3-1.2 4-1zm30.3.8c0-.8-.5-1.7-1-2-.6-.4-1 .3-1 1.4s.4 2 1 2 1-.6 1-1.4zm-4-5.9c.8-2.8.9-4.1 0-5-1.6-1.6-2.3-.2-2.8 5.6-.5 6 .7 5.7 2.8-.6zm-45.2 2.5c1.7-1.1.8-2.7-1.9-3.4-1.4-.4-2 0-2 1.2 0 2.9 1.5 3.7 4 2.2zm29.5-1c.9-1 2-3.2 2.3-5 .5-2.5.2-3.5-1.8-5.1a12 12 0 0 0-3-2c-.7 0-2.9 12-2.3 13.1 1 1.4 3 1 4.8-1zm-23.4-13.6c1.6-3.4.7-10.6-1.5-12.1-3.9-2.7-4.5-3.6-4-5.5.5-1.5.2-2-1.5-2-1.6 0-2 .5-1.6 1.6.3.9 0 3.1-.8 5-1 2.5-1.2 4.2-.5 6 1.2 3.3 4.1 2.9 5-.6l.6-2.4.5 2.5c.7 3 .4 7.6-.6 11.2-.5 1.8-.4 3.3.4 4.3.7.8 1 2 .7 2.8-.3.8-.2 1.8.2 2.1s1-1.9 1.4-5.1c.4-3.2 1.2-6.7 1.7-7.8zm34.9 7.9c.7-2.8.8-5.2.3-6.1-1.2-2.2-1.9-.7-2.7 5.5-.9 6.4.7 6.8 2.4.6zm-17.9-.5c0-1.9-.5-3-1.4-3-2 0-3 3.8-1.5 5.6 1.6 2 3 .9 3-2.6zm-25 .1a6 6 0 0 1 1.7-3.6c1.6-1.6 1.5-1.8-.7-3.5-3.3-2.4-4.3-1.2-3.4 4.4.6 4.6 2.4 6.5 2.4 2.7zm-5.5-4.4c-.8-4-1.7-4.3-5.3-2.3l-2.4 1.3 3.3 3.2c4 3.6 5.3 2.9 4.4-2.2zm43.8-2.1c.2-2.2.6-4.7.8-5.5.3-.9-.2-1.5-1-1.5-1 0-1.5 1.6-1.8 6.5-.4 7 1.2 7.5 2 .5zm-12.7-6.6c.2-4.1.8-10 1.3-13 1-6.3-1-19.3-2.3-15.4-1.3 3.6-2.3 5-3.7 5-.7 0-1.5.7-1.7 1.7-.4 2 2.4 2.5 3.1.5.4-1 .8-1 1.8 0s1 1.6-.5 3.2c-1 1.1-2.2 1.8-2.6 1.5-.4-.2-1 .3-1.3 1.1-.4.9 0 1.8.9 2.1 1.6.6 2 4 .4 4.9-1.4.9-1.2 2.5.5 2.5 2.1 0 2.5 1.2 1 3.3-1 1.5-1.7 1.6-3.4.7-1.8-1-2-.8-2 1 0 1.3-1.2 2.4-3.3 3.4l-3.3 1.4h3.3c2 .1 3.5.8 3.9 1.7.8 2 2.3 1.8 2.4-.3 0-1.2.5-.9 1.6 1.1 2.2 4.1 3.3 2.2 3.9-6.4zm8.4 1.6c1.3-3.3 1.6-8.8.7-10.3-1.4-2.3-2.6-.2-2.6 4.3 0 2.4-.5 4.6-1 5-1.6 1-1.2 3.5.5 3.5.8 0 2-1.2 2.4-2.5zm9 1c0-.9-.4-1.5-1-1.5-.5 0-1 .6-1 1.5 0 .8.5 1.5 1 1.5.6 0 1-.7 1-1.5zm5-3.8c0-.8-.4-1.8-1-2.3-.5-.6-1.2-3.3-1.6-6-1-7.9-4.3-10.5-4.3-3.5 0 3-.6 4.3-2 5-1.1.6-1.7 1.7-1.4 2.6.4 1 1 1.2 2.4.4 2.5-1.3 4.7-.3 5.4 2.6.6 2.6 2.6 3.4 2.6 1.2zm-31.5-4.5c-.4-1-.7-3.4-.6-5.5.2-3.9-.6-4.6-2.7-2.5-1.2 1.2-1.6 8-.5 9 .4.5 1.5.8 2.6.8 1.5 0 1.8-.5 1.2-1.8zm-18.5-10.7c0-.9-.4-1.5-1-1.5s-1 .6-1 1.5.5 1.5 1 1.5 1-.7 1-1.5zm10.8-5.2-.3-4.8-1.8 3.7c-1.4 3-1.5 4.1-.5 5.7 1.9 3 3 1 2.6-4.6zm6.3.2c-.7-2-1.6-3.5-2.1-3.5-1.4 0-1.2 6.4.2 7.8 2.1 2 3.2-.4 1.9-4.3zm-13 2.2c-1.3-1.3-2.6-.3-1.6 1.2.4.6 1.1.8 1.7.5.7-.5.7-1 0-1.7zM54.5 458c-.2-1.5-1-2.7-2-2.9-1.4-.2-1.8.4-1.8 3.1 0 1.9.3 3.7.7 4 1.2 1.3 3.4-1.6 3.1-4.2zm5.4-.2c-1.5-1.6-2.6-.4-1.8 1.8.5 1.3 1 1.4 1.9.5.8-.9.8-1.4 0-2.3zm7-3.7c-.3-2.8 0-3.1 2.3-3.1 1.4 0 2.5-.5 2.5-1.2 0-.6-1-.8-2.6-.4-1.9.5-2.5.3-2.1-.6.2-.8 1.1-1.3 2-1.3 1 0 1.7-.4 1.7-.8V445c0-.6-.6-1-1.3-1-1.8 0-2.9-5.4-2-9.7.4-2.6 1-3.3 2.9-3.3 2 0 2.3-.6 2.3-3.3 0-1.8.2-4.5.6-6 .6-2.2.4-2.7-.9-2.7-1.1 0-1.6.9-1.6 3.3 0 2-.7 4-2 5.2-2 1.7-2 1.7-2-2.4 0-2.9-.4-4.1-1.4-4.1-1 0-1.3 1.7-1 8.2 0 4.5-.2 10.5-.6 13.3-.7 4-.5 5.2.8 6.2 1.4 1 1.4 1.3-.1 1.8-2 .8-2.1 2.7-.6 5.6 1.6 2.9 3.5 1.7 3.1-2zm22.1.8c.4-1.5.2-2-1-1.7-2.2.4-3 3.8-1 3.8.9 0 1.8-1 2-2.1zm-8-4c.4-5.2-.4-6.5-2.7-4-1 1.1-2.2 1.8-2.7 1.5s-.9 0-.9.5c0 .6.5 1 1 1 .6 0 1 .9 1 1.9 0 4.9 3.7 4.1 4.2-.9zm5.7-5.2c0-3.4-1-7.5-2.7-11.7-3.6-8.4-5.3-9-5.3-1.6 0 3.2.5 5.6 1 5.6.7 0 .9.4.5 1-1.1 1.8-4 .6-4-1.8 0-3.3-2-2.2-2.1 1.3-.2 5.4.4 6.5 3.3 5.4 3.8-1.5 5.3-1.1 5.3 1.1 0 2.6 1.8 6 3 6 .6 0 1-2.4 1-5.3zm-25.5.3c.8-3.6 0-5-2.5-5-1.4 0-2 .6-2 2.4 0 5.8 3.4 7.8 4.5 2.6zm.7-13.4c.2-3 0-6.7-.3-8.3-.4-1.5-.7-2-.8-1 0 .9-.5 1.7-1 1.7s-1.4 2.3-2.1 5.2c-.7 2.9-2 5.8-2.9 6.5-1.3 1-.9 1.2 2.6 1.2h4.1zm42.7-9.8c-.4-2.3-3.3-4.7-4.5-3.6-1 1 1.7 5.8 3.4 5.8.9 0 1.3-.9 1-2.2zm-47.7-2c-1-1-1.2-.7-1.2 1.2 0 1.8.3 2 1.2 1.2 1-1 1-1.5 0-2.4zm21.5-.3c-.3-.8-1-1.5-1.6-1.5-1.2 0-1.4 3.2-.4 4.3 1.1 1.1 2.7-1 2-2.8zm23.2-4.5c2-2.7 2.8-5 1.7-5-.2 0-1.6.4-3 1-2 .7-2.6 1.6-2.6 4 0 3.7 1 3.8 3.9 0zM71 413.8c.6-.8.7-2.4.3-3.5-.7-1.7-.8-1.7-2.3.4-.8 1.2-2.1 2.3-2.9 2.3-.8 0-1.4.7-1.4 1.5 0 2.1 5 1.6 6.3-.7zm-16.3-.3a1.5 1.5 0 0 0-3 0 1.5 1.5 0 0 0 3 0zm6-3c0-1.7-.2-1.8-1-.5a8 8 0 0 0-1 3.5c0 1.6.2 1.7 1 .5.6-.9 1-2.4 1-3.5zm5.2-8.6c-1.5-2.5-1.5-3 .4-3 2.5 0 1.2-3.4-1.4-3.8-1.3-.2-3.7.8-5.7 2.3-2.2 1.7-3.6 2.2-4 1.5-1.4-2.2-2.4.6-1.8 4.9.6 4.7.6 4.7 8 2.6 2-.6 2.3-.3 2.3 1.8 0 4.3 1.5 4.1 2.4-.3.7-2.9.6-4.7-.2-6zm-16 .3-.5-9c-.3-6.6-1.2-5.8-2.5 2.2-1.2 8.1-1 10.2 1.6 10.9l1.7.5-.3-4.6zm56.9 2.3c0-.8-.5-1.7-1-2-1.2-.7-2.4 1.1-1.5 2.5.9 1.4 2.5 1.2 2.5-.5zm-62-10.7c-.4-4.2-.8-4.9-2.5-4.2-1.5.5-3 7.9-2 9.5.4.6 1.4.4 2.8-.5 1.6-1 2-2.2 1.8-4.8zm14.8-7.3a21 21 0 0 0-5.2-7.2c-3.2-3-4-4.4-3-4.8.8-.3 1.2-1 .8-1.5-.8-1.3-5.5.9-5.5 2.5 0 1.5 5 7 7 7.6 1.3.4 1.3 1.3.4 6-.7 3-1 5.7-.7 6.2.3.4 2-.7 3.8-2.5 2.8-2.9 3.1-3.7 2.4-6.3zm7.1 3c0-1-1.9-1.5-2.5-.6-.3.6.1 1 1 1s1.5-.1 1.5-.4zm-29.2-3.4c.3-1.7-.2-2.1-2.2-2.1-3 0-3 .2-1.4 3 1.6 2.4 3.2 2 3.6-.9zM73 383c-.6-1-1.2-2.7-1.2-3.7s-1.2-5.3-2.8-9.7c-2-5.7-3.4-8.3-5-9-1.4-.7-3-3.3-4.8-8.2-3.4-9.3-2.6-11.6 1.4-3.8 1.6 3.3 4 7 5.1 8.5l2 2.5-1.2-4.5a337.2 337.2 0 0 0-11-31.3 1202 1202 0 0 0-7-17.7 635 635 0 0 1-10.2-26.3c-.9-2.6-2-4.7-2.4-4.7-.8 0 .5 8.8 1.6 12a1299 1299 0 0 0 6.7 17.4c1.5 3.8 3.3 7.7 4.1 8.6a6 6 0 0 1 1.5 3c0 .8.7 2.7 1.5 4.2.8 1.6 1.2 3.5.8 4.4-.3.9-.2 1.9.3 2.2.5.4 1.7 2.4 2.7 4.4 3 6.5 2 7.5-2.8 3a20 20 0 0 1-4.9-8.7c-1-3.3-3.1-9.4-4.7-13.4s-2.9-8.8-3-10.5c0-3.6-.7-5.1-2.9-5.8-1-.4-1.5-2-1.6-5.6a15 15 0 0 0-1.2-6.4c-.5-.8-2-4.3-3.2-7.8-2.8-8-3.2-8.6-5.4-6.1-2.2 2.4-1.4 5.4 1.7 6.8 1.6.7 3 3 4.5 7 2.7 7.4 2.7 8 0 5.7-2-2-2-2-1.3.4l.9 3.7a6 6 0 0 0 1.2 2.6c.5.8 1.5 2.5 2 3.9a48 48 0 0 1 4.4 10.8c0 .6 1.4 4 3 7.5 1.7 3.6 3 6.8 3 7.2 0 .8 2.2 5.9 6.6 15.2a44 44 0 0 1 3.4 8.7c0 .8 1.6 5.4 3.5 10 2.8 6.8 3.4 9.3 3 12.4-.7 3.8-.6 4 2 3.4 3.6-.7 6.5 2.8 6.5 7.8 0 4.6 2.1 7 3.5 4a4 4 0 0 0-.3-4.1zm-29-2.1c-1-1.5-1-2.3-.2-3.4 1.6-1.8.9-6-1-6-1 0-1.4.8-1.1 2.6.3 2.4.3 2.4-1.7.6-1.2-1-2.5-1.5-3.1-1.2-.7.5-1.1-1.5-1.1-5.9 0-5-.3-6.5-1.5-6.5-2.4 0-3.2 2.8-2.3 7.8.5 2.6.9 5.8.8 7.3 0 2.1.6 2.7 3.2 3.4 1.8.4 3.6.7 4 .6.5 0 .8.9.8 2.2s.6 2.8 1.2 3.5c2 2 3.6-2.4 2-5zm4.8 3.2c0-.6-.4-1-1-1a1 1 0 0 0-1 1c0 .5.5 1 1 1 .6 0 1-.5 1-1zm-17-5.5c0-.2-.5-.7-1-1-.6-.4-1-.2-1 .4 0 .6.4 1 1 1 .5 0 1-.1 1-.4zm8.3-9.8c.3-.8 2.3-2 4.6-2.7 2.3-.8 4.1-2 4.1-2.6 0-1.6-4-6.3-4-4.8 0 .7-.9 1-2 .6-1.1-.2-2 0-2 .6 0 .7 1 1.2 2 1.2 1.1 0 2 .3 2 .8 0 1.5-2.4 3.2-4.6 3.2-2.2 0-3.9 2.4-2.8 4 .8 1.4 2.1 1.2 2.7-.3zM22 353.6c-.2-4.7-.7-8.5-1.2-8.5-1.3 0-1.8 2.7-2 10.2 0 5.9.2 6.8 1.7 6.8 1.6 0 1.8-1 1.5-8.5zm4.9 7.4c1.3-.7 1.9-2 1.9-4.4 0-2.8-.4-3.5-2.3-3.7-1.6-.3-.9-.8 3-2.1 2.8-1 5.9-1.7 6.7-1.7 1 0 1.6-1 1.6-2.3 0-1.3.4-2.8 1-3.3.5-.6.6-1.5 0-2.4-.7-1.2-1.1-1.2-2.4-.1-.9.7-2.3 1-3.2.7-1-.4-3.4.1-5.5 1l-3.9 1.9v8.7c0 4.8.2 8.8.6 8.8s1.4-.5 2.5-1zm9.4-3.2c1.7-5.6 1.6-6.7-.8-6.7-3 0-6.5 2.4-4.9 3.4.7.4 1.2 1.6 1.2 2.6 0 2.2 3.8 2.8 4.5.7zm8.6-2.7c1 0 2-.5 2-1s-.8-1-1.6-1c-1 0-1.5-1.1-1.5-4 0-4.2-1.6-6.2-3-4s-1.2 9.9.3 11.4c1 1.1 1.3 1.1 1.5 0 .2-.8 1.2-1.4 2.3-1.4zm6-3c-.7-1.1-1-2.5-.6-3 .3-.4-.2-1.4-1-2-2-1.7-3 1-1.5 3.9.6 1.2.9 2.5.6 3-.8 1.1 1.6 2 2.8 1 .4-.4.3-1.7-.3-2.9zm-7.2-22.6c-.7-1.7-1.3-2.4-1.6-1.6-.3.7.1 2.7.8 4.5.9 2 1.5 2.6 1.7 1.6.2-.9-.2-3-.9-4.5zm-5.3-8c-.7-1.8-2.6-2-2.6-.1 0 1.8 2.4 4 2.8 2.7.2-.6.1-1.8-.2-2.6zm-17.6-23.7c0-1.8-1.8-4.3-2.5-3.5-.4.3-.2 1.5.4 2.7 1.3 2.3 2.1 2.7 2 .8zm8.6-14.2c-.4-1.5-1-2.4-1.6-2-.6.3-.5 1.5.2 3 1.4 3 2.3 2.4 1.4-1zm-8.4-18c-.4-2.2.2-2.8 4.2-4.5 4.7-2 5.8-3.6 3-4.7-1-.4-2.5.4-4.1 2a16.5 16.5 0 0 1-5 3.7c-2.4 1-2.4 1-.6 3.4 2.3 3.2 3.1 3.2 2.5 0zM463 769c0-1.9 5-7.6 5.8-6.7.2.2-.4 2.2-1.3 4.5-1.9 4.2-4.5 5.5-4.5 2.2zm-309.6 0c-.6-1 7.6-17.4 10.2-20.4.8-1 2.3-1.8 3.2-1.8 1 0 3.4-2.4 5.5-5.4 3.7-5.4 6.5-7.3 8.5-6 1.9 1.1 1 3.4-1.9 4.9-1.6.8-3.8 3-5 5-1.1 2-3 4-4.3 4.4-3.3 1.3-5 3.7-8.8 11.6-3.8 8-5.9 10.2-7.4 7.6zm139.8.1c-3.3-.6-3-3.3.5-3.2 3.4 0 5.7 1.4 4.8 2.8-.7 1.2-1.3 1.2-5.3.4zm234.6 0c-1-.8.4-3.3 1.9-3.3 1.8 0 1.8 2.7 0 3.4-.8.3-1.7.3-2 0zM243 767.5c-2.8-2-2.9-4.5-.3-4.5 1.3 0 2.3 1 2.7 2.6.8 3.3.2 3.7-2.4 1.9zm-44.3-1.3c0-1 .4-2.2 1-2.7s1.3-2.8 2-5c3-9.7 4.3-12.5 6.2-12.5 2.3 0 2.3 1.6 0 8.3-1 2.9-2.4 7.2-3 9.5-1 3.5-1.7 4.2-3.7 4.2-1.7 0-2.5-.5-2.5-1.8zm-121-1.7c-25-4.6-29.6-5.6-30.5-6.5-2-2 .6-2 9 0s25.4 5 28.3 5c.7 0 1.1-.5 1-1.1-.5-1.2-1.3-1.5-8.9-2.8a135 135 0 0 1-23.5-5.6c-5.1-2.2-2.7-3.2 2.8-1.1 5 1.8 12.7 3.7 25.4 6.2 8.2 1.6 9.2 2 9 3.8 0 1.4.5 2.2 1.8 2.4a7 7 0 0 1 3 1.3c1.5 1.4-3.6 1-17.5-1.6zM361 766c-1.4-.3-2.7-1.5-2.9-2.5-.3-1.5.1-1.7 3-1 3.6.7 5.9 2.1 5.9 3.6 0 1-2.4 1-6 0zm-16.6-2c-1-1.6.5-3 3-3 2.4 0 5 2.2 3.9 3.3-1 1-6.2.8-6.9-.4zm81.6-1c0-1.3 1.5-3 3.8-4.4 5.5-3.4 7-3.8 8-2 .7 1.2 1.3 1.3 3 .5 2.7-1.5 10-1.5 10.4 0 .2.5 1.5.1 3-1.1 2.2-1.7 3.2-2 4.8-1 2.2 1.1 2.7 4.8 1 8-1.6 3-3.3 2.4-2.6-1 .4-2.3.2-3-.9-3-.8 0-1.5.3-1.5.8 0 1.5-4 5.2-5.1 4.6-.6-.4-.7-1.8-.4-3.2.5-2.1.4-2.4-.7-1.5-2 1.7-11.4 2.7-12.2 1.4-1.2-2-4.5-1.3-6.2 1.3-2 3-4.4 3.3-4.4.6zm-333.6-1.7c-1.9-2-.4-3.4 3.3-3.4 4 0 4 0 2.3 2-1.7 2-4.3 2.6-5.6 1.4zm235-.8c-2-1.4-2-1.4 0-3.5l1.9-2.1 2.3 2.5c1.3 1.3 2.3 3 2.3 3.5 0 1.5-4.3 1.3-6.5-.4zm-63.3-3.7c-4.3-3-5-4.2-3.2-5.4 1.2-.7 9 5.4 9 7.2 0 2-1 1.6-5.8-1.8zm48.3 2c-4.7-1.8-8.8-4.3-9.3-5.8-.3-1 .1-1.2 1.4-.8a3469.7 3469.7 0 0 1 14.4 4.5c1.3.4 2.4 1.2 2.5 1.7 0 1.5-5.4 1.6-9 .3zm153.9-2c-2.3-2.8-3-4.9-1.4-4.9 1.3 0 4.3 5 4 6.4-.2.8-1.2.3-2.6-1.4zm-438.6 0-5.3-1.4c-2.6-.5-4.6-2.9-3.4-4.1.3-.3 3.7.2 7.6 1 3.8 1 8.6 1.6 10.5 1.6 3 0 5.6 1.5 4.5 2.5-1 .9-11.7 1.2-14 .5zm59.3-.6c1-.2 2.3-.2 3 0 .7.4-.1.6-1.8.5-1.6 0-2.2-.2-1.2-.5zm148.5-.9c-.7-.8.2-2.4 1.4-2.4.5 0 1 .7 1 1.5 0 1.6-1.2 2-2.4.9zm203.5-1.8 3-5.9a27 27 0 0 0 3-8c0-1.5.6-3.7 1.2-5.1 1-2.2.9-3-.4-4.3-1.5-1.5-1.8-1.4-2.8 1.3l-3 7.2a22 22 0 0 0-2 6.2c0 2.9-1.7 3.3-3.4 1-1.7-2.6-4.5-2-5.3 1-.7 2.7-2 2.6-2.7-.3-.4-2-1.4-2.5-4.3-2.9-4.2-.5-6.2 1.1-6.3 5 0 2.5-1.9 3-4 1-1-1-1.3-1-1.7 0-1 2.6-3.3 1.1-4.4-2.8-1.2-4-3.5-5.2-4.6-2.4-.3.9 0 2 .6 2.7.6.6 1 2 1 3 0 3.1-4 1.8-5.3-1.8a20 20 0 0 0-3.9-5.7c-2.1-2.1-2.7-3.6-2.7-7.1 0-3-.5-4.6-1.5-5-3.5-1.3-5 10-1.8 13.5 1.1 1.3 1.3 2.2.6 3-1.6 1.5-5.3-.7-5.3-3.2 0-2.6-1.4-2.5-3.2.2-1.8 2.7-4.8 1.9-4.8-1.3 0-1.2-.8-3-1.7-4-1.3-1.5-1.4-2.2-.4-3.1 1-1 1.6-.8 3 1 1 1.2 2.4 2.2 3 2.2 1.3 0 1.3-.3 0-3.2-.9-2-.5-3.4 2.3-8.8 3.3-6.6 6-8.3 6.6-4.2.4 3.1 2 2.8 2.4-.5.4-3.5 3.2-3.7 3.6-.3.3 2.8 4.2 5.2 6.3 4 1-.6.6-1.5-1.4-3.4s-2.7-3.4-2.7-6.5c0-4.4 1.3-5.2 3.2-2 1.7 2.6 2.5 2.5 4.1-.7.9-1.7 1.7-2.2 2.1-1.5.4.6 0 2-.8 3.3-1.2 1.6-1.2 2.5-.3 4 1 1.4.8 3.3-.6 8.5-1 3.6-1.5 6.8-1.3 7 1 1 5.5-3.3 6.1-5.6a159.7 159.7 0 0 0 8.5-23 193 193 0 0 1 7.8-21.2c2.3-4.7 4.8-11 5.6-14 4.8-17.2 10.4-33 12.6-35.3 1.3-1.4 2-4.3 2.6-9.4.6-6.4 1-7.5 3.5-9.4 2-1.4 3.2-3.5 3.9-6.7 2.3-10 4.8-18.7 5.8-20.6.6-1 .9-3.1.6-4.5-.6-3.3 1.1-5.9 2.8-4.2.9.9 1 2.1 0 5-.5 2-1.5 6.7-2 10.2l-1.7 10c-.3 2-.1 4.8.4 6.3.6 1.5.7 2.9.3 3.1-.5.4-.8 32.4-.2 39.1.1 1.9-2.3 4.5-4.2 4.5-.4 0-.8-.8-.8-1.9 0-2.9-1-5-2.5-5-1.8 0-2.5 2.2-1.8 6.1.2 1.9 0 5.2-.4 7.4-1 4.1-.6 10.4.6 10.4.4 0 .7-3 .8-6.5 0-3.6.3-6.7.5-6.9l3-1c2-.4 2.8-.1 3.2 1.2.8 2.9 1 31.5.1 35-.7 3.1-1 3.4-3.6 2.9-3.3-.7-3.5.3-2 8.3.6 3 .6 5 0 5.8-.7.7-.8 3-.4 5.9l.7 4.6 1.9-3c1.4-2.5 1.8-4.7 1.5-9.7-.2-3.6 0-6.6.4-6.6 1.4 0 1.6 2.3 1.4 12.5-.5 21.1-.2 24.8 1.7 22.8 1.4-1.3 3.8-29.9 4-48.3.2-9 .6-18.3 1.1-20.5s1.1-8.4 1.4-13.8c.4-6.2 1-9.4 1.5-8.6 1.1 1.9.2 55.6-1.1 63.9a414 414 0 0 0-2 15c-1.6 14.2-2 16.5-3.8 17.8-2.7 2.2-5.2 1.5-5.2-1.3 0-1.4-.4-3.5-1-4.5-1.6-3-4.7-.8-7 4.9a13.8 13.8 0 0 1-5 6.3c-1.6 1-3 1.6-3 1.4zM404 740c0-1-.5-2.2-1-2.6-.6-.3-1 .5-1 2 0 1.4.4 2.5 1 2.5.5 0 1-.8 1-1.9zm-5-.5c0-.2-.5-.7-1-1-.6-.4-1-.2-1 .4 0 .6.4 1 1 1s1-.2 1-.4zm-16.4-8.3c-1-1-1.9.5-1 1.9.6 1 .8 1 1.2 0 .2-.7.1-1.6-.2-1.9zm12.7-1.3c.3-1 0-2.2-.4-2.5s-1 .6-1 2c0 3 .7 3.3 1.4.5zm56.6-2.4c.2-1.1-.2-1.6-1-1.3-.8.2-1.5 1.2-1.7 2.2-.2 1.1.1 1.6 1 1.3.7-.2 1.5-1.2 1.7-2.2zM447 723c0-2.4 0-2.5-1.4-.6-.9 1-1.5 2.8-1.5 3.8 0 1.6.2 1.7 1.4.6.8-.6 1.5-2.4 1.5-3.8zm1.4-8.4c-1-1.7-2.4-.6-2.4 2 0 2.5 0 2.5 1.4.7.8-1 1.2-2.3 1-2.7zm1.2-7.8c.9-3-.4-3.9-2.2-1.5-1.8 2.4-1.8 3.5 0 3.5.8 0 1.8-.9 2.2-2zm1.4-15.5c0-.8-.4-1.5-1-1.5-1.2 0-2 1.6-1.3 2.4 1.1 1.1 2.3.7 2.3-.9zm0-7.5c0-1-.4-2.1-1-2.5-1.3-.8-2.4 2-1.6 4.1.8 2 2.6 1 2.6-1.6zm1-37c0-.5-.4-1-1-1-.5 0-1 .7-1 1.6 0 .9.5 1.3 1 1 .6-.4 1-1.1 1-1.6zm.7-7.1c-.3-.8-.5-.6-.6.6 0 1 .2 1.6.5 1.3.4-.4.4-1.2.1-2zm2.3-7.1v-4.3l-1.9 3c-2 3-1.8 5.5.5 5.5 1 0 1.4-1.2 1.4-4.2zm-35.6 118.8c-.7-2 .3-3.6 2.3-3.6 1 0 1.3.6 1 1.6a8 8 0 0 0-.7 2.5c0 1.5-2 1-2.6-.5zm44.1-2.6c-.3-1.2-.4-2.4-.1-2.6.8-.9 2.6.6 2.6 2.1 0 2.4-1.8 2.7-2.5.5zm-102.2-.4a7.3 7.3 0 0 1-2.6-3.4c-.4-1.5 0-1.7 2-1.4 1.5.3 2.8-.1 3.7-1.3 1.3-1.8 3.6-1.3 3.6.9 0 .6 1 2 2.2 3.1l2.3 2-2.5.6c-4.1 1.2-6.5 1-8.7-.5zm159.3.4c-.4-.6-.2-2.3.4-3.8a155 155 0 0 0 2-21.7c.6-10.8 1.7-21.3 2.6-24.5 1.2-4.5 1.3-6.3.3-10.2-.9-3.5-.9-5.6 0-8.5.6-2 1.3-10.5 1.7-18.8a220 220 0 0 1 3.8-37c1.3-1.4 2.7.9 2.7 4.5 0 2 .7 5.1 1.5 6.7 2 3.8 1.9 6-.5 9-2.8 3.6-3.6 12.2-3.2 32l.2 6.3h3.8c4 0 8.2-2.2 8.2-4.5 0-1 1.3-1.3 5.3-1 8 .3 12 3.2 7.8 5.5-3 1.6-4.8 1.3-7.1-1.2l-2.1-2.3-2.7 3.2c-2 2.4-3.8 3.3-7.5 3.8-4.4.6-5 1-6.4 4.4a37.8 37.8 0 0 0 1.2 21.7c1.4 2.2 1.3 2.4-.8 3.6-3 1.5-3.7 2.8-3.7 6.3 0 1.6-.5 4.4-1.2 6.1-1 2.7-.9 4.2.4 8.1 1.5 4.6 1.7 4.8 5 4.6 7.3-.5 7.2 3-.2 4.1-2.1.4-5.5 1.6-7.4 2.7-2.3 1.4-3.7 1.7-4.1 1zM286 745c-1.5-2.5-1.5-4 0-4 1.7.1 5.8 3.6 5.8 5 0 1.8-4.5 1.1-5.8-1zm-31.9-2.2a53 53 0 0 0-5-7.4 24.4 24.4 0 0 1-3.3-4.7c0-1.6 2.9-.4 4.3 1.7a33 33 0 0 0 3 3.9c1.8 1.7 5.7 8 5.7 9 0 2-3.2.3-4.7-2.5zm95.4 2c-1-.5-3.4-.7-5.3-.4-3 .4-3.9 0-7.4-3.5-4.3-4.4-4.8-6-2.5-7.9a4 4 0 0 0 1.5-2.9c0-.9.8-2.3 1.8-3.2s2.3-2.4 3-3.5c1-1.6 1.3-1.7 2.2-.4.5.9.8 2.9.5 4.6-.8 4 3 11.2 7 13.4 3.2 1.8 4.7 5 2.4 5-.8 0-2.2-.5-3.2-1.1zm-7.4-8.5c-.3-2.4-1-4.3-1.4-4.3-1.6 0-1.2 7.2.5 8.2 1.5 1 1.6.8 1-4zM207.2 743c-.4-.6-.2-1.6.3-2.1.7-.7 1.3-.6 1.7.1.4.7.3 1.7-.2 2.2-.7.7-1.3.6-1.8-.2zm24 0c-.4-.6-.4-1.3-.1-1.6.7-.7 2.7.5 2.7 1.7 0 1.3-1.8 1.2-2.6-.1zm98.2-2.4c-1.4-1.9-3.6-3.7-4.8-4.1s-2.8-1.4-3.4-2.2c-.9-1.3-1.5-1.3-4.8-.2-3.4 1.3-3.9 1.2-5-.3-1.6-2.2-3.2-2.3-4-.3-.6 1.8-4.7 2-6.4.3-1.7-1.6-1.5-3.8.3-3.8 2.6 0 1.7-1.7-2-3.8-2-1.2-3.5-2.5-3.5-3 0-1.7 6.2-2.6 7.4-1 .6.7 2.1 1.2 3.4 1 2.4-.3 2.9.8 1.1 2.5-1.5 1.5 1.5 4.3 4 3.7 1-.3 2.2 0 2.6.5 1.2 2 3.5 1.2 4.6-1.5 1.1-3 2.6-2.2 3 1.6.5 3 4.6 4.2 5.5 1.6.4-.9 1.3-1.6 2-1.6 1.6 0 1.8 1 .5 3-.7 1-.2 2.1 1.5 3.9 2.5 2.4 3.2 5.6 1.5 6.6-.4.3-2-1-3.5-3zm27 .6c-.8-1.4.5-4.3 1.8-3.9 1.5.5 1.5 4 0 4.5-.6.2-1.4 0-1.8-.6zm9.5-5.2c0-3.1 2.7-9 4.5-9.6 2.3-.9 2.5-.2 1 3.2a55 55 0 0 0-2.5 5.7c-1.2 3.2-3 3.6-3 .7zm-139.4-4.5c-1.5-3-2.8-5.9-2.8-6.4 0-2.2 3.1-1 4.1 1.6.6 1.4 2 3.9 3 5.5 2 2.8 2 4.9-.4 4.8-.6 0-2.4-2.5-3.9-5.5zm44.9-.4a42.3 42.3 0 0 0-8.7-6c-6.2-3.3-8-5-5.5-5a46 46 0 0 1 12.6 5.9c.3.3 2.2 2 4.2 3.5 2.1 1.5 3.8 3.2 3.8 3.7 0 1.9-3.8.7-6.4-2zm-191.6-3.4c-1.4-1.7-.5-2.7 2.6-2.7 1.7 0 2.3.5 2 1.8-.4 2.2-3 2.7-4.6 1zm-69-.3c-1.9-.8-1.5-3.4.5-3.3 2.6 0 4.7 1.5 3.9 2.8-.8 1.2-2.2 1.3-4.4.5zm195-1.3c-1.5-2.7-1.3-5 .3-5 1.5 0 4 5.3 2.9 6.4-1 1-2.2.6-3.2-1.4zm-135-2-2.3-2 4.2-1c4.6-1.3 6.4-.5 5.8 2.6-.5 2.5-4.8 2.8-7.7.4zm20.8 1c-2.3-.8-2.3-.9.8-1 1.8 0 3.2.4 3.2 1 0 1-.4 1-4 0zm-27.5-1c-.3-.6.1-1.4 1-1.7 2-.7 3 0 2 1.6-.8 1.3-2.2 1.3-3 0zm174 .3c-1.7-.7-1.7-3.4 0-3.4 1.4 0 3.7 2 3.7 3.2 0 1-1.8 1-3.8.2zm-157-1.1c-1-1-.5-6.1.7-6.9 1.3-.8 3.8 2.3 3.8 4.7 0 1.7-3.3 3.3-4.4 2.2zm236.2-2.4c4.5-9 5-9.9 7-9.9 3.5 0 5.7 3.3 5.3 7.7-.3 4.7-3.3 5.5-3.3 1 0-4-2-4.5-2.8-.8-.3 1.6-1.4 3.1-2.4 3.4l-3.6 1.3c-1.8.7-1.8.6-.2-2.7zm-24.8.5c-.4-.3-.2-1.5.4-2.6.6-1 1-2 .7-2.1a37.5 37.5 0 0 0-9.6-3.7c-1 0-3.2-.9-5-2-1.9-1.1-4.2-1.8-5-1.5s-3.3 0-5.2-.5c-14-4.3-20.3-4.7-25.2-1.6-1.5 1-2.8.6-7.1-1.6a39 39 0 0 0-10.5-3.4c-3.7-.4-5.3-1-5.3-2.1 0-1.2.8-1.4 3.8-.8l7.3 1.2 3.6.6 1.6-6.3c1.2-4.5 1.3-6.9.6-8.2-1.4-2.7 1.6-7.4 3.8-5.7 1 1 1.3 2.6.8 7.3a28 28 0 0 1-1.7 8.3c-1.8 3.9-.3 5.7 4.4 5 2.2-.2 4.8-1.2 5.8-2 2.2-2 3-2 3-.2 0 2 3.2 3.4 5.6 2.5 3-1.2 2.9-1.2 7 2 2 1.7 4.4 3 5.2 3 .7 0 1.9-1.3 2.4-3 1-3 2.9-4 2.9-1.7 0 .7 1.5 2.7 3.4 4.6 2.6 2.5 4 3.1 5.6 2.6 1.5-.4 2.6 0 3.5 1.2 1.1 1.6 1.8 1.7 4.4.7 2.6-1 3.1-1 3.6.7.3 1 1.6 2 2.8 2.1 3 .4 2.6 2-1 3.7-1.5.8-3.2 2-3.6 2.8-.9 1.4-2 1.7-3 .7zm-49.4-5.5c-3.7-1-5-2.6-3.5-4 1-1.2 11.2 2.8 11.2 4.3 0 1-3.6 1-7.7-.3zM540 715c0-.5.7-1 1.5-1s1.5.5 1.5 1-.7 1-1.5 1-1.5-.4-1.5-1zm12.6.2c-.3-.5-2.1-1.2-4-1.6-4-.7-5.4-2.2-3.7-3.9.8-.8 2.2-.7 5.3.2l6.3 1.6c4.9.8 8.5 1.8 8.5 2.5 0 1.6-11.5 2.6-12.4 1.2zm-521.4-1c-1-1.6.5-4.3 2.3-4 2.1.5 2 4.2 0 4.6-1 .2-2 0-2.3-.6zm193-2.1c-2-2.3-1.3-5 1.4-5 1.6 0 4.1 3.6 4.1 6 0 1.7-3.6 1-5.4-1zm-14-1.1c-1-1.6.4-2.5 1.6-1.3.8.8.8 1.3 0 1.7-.5.4-1.2.2-1.6-.4zm-201-1.3c-1-.6-1.7-2.5-1.6-4.2v-10.2c-.2-5.8.2-7.4 1.4-7.9 1.6-.6 6.6 3.7 6.6 5.7 0 .6.4.8 1 .5 2-1.4 2 1.8-.5 6.5a24 24 0 0 0-2.5 7.4c0 2.8-2.2 3.9-4.5 2.2zm44.8-3c.8-3.8 1-4 3.4-3.2 1.4.4 1.8 1.3 1.4 3.4-.3 2.3-.9 2.9-2.9 2.9-2.2 0-2.4-.3-1.9-3zm324.5 2.7c-1.3-1.4-.6-3.6 4.5-13.7a196 196 0 0 0 8-17.7c1.7-4.6 3.3-7.6 4.4-7.8 1.3-.2 1.4.2.5 3l-2.3 7.8c-.7 2.5-3.3 8.8-5.8 14l-5.6 12.3c-1 2.7-2.2 3.4-3.5 2zm155.5-5.2c0-4.2 2.4-7.6 3.2-4.4.6 2.7-.6 7.5-2 8-.8.3-1.2-.8-1.2-3.6zm-224.4-.7c-.7-.7 1.6-7.2 3-8.7 2-2 2.5 0 1.2 4.7-1.1 4-2.7 5.5-4.2 4zm28.9-.1c-1.2-1.2-.7-2.4.8-2.4.9 0 1.5.7 1.5 1.5 0 1.6-1.1 2-2.3.9zm52.4-.4c0-.6 1.7-3.8 3.7-7.2 2.1-3.5 5-8.4 6.3-11 1.5-3 3.2-4.8 4.2-4.8 2.3 0 2.2 1.2-.2 6.6a38.5 38.5 0 0 0-2.7 8.9c-.3 2.4-1.3 5.1-2.2 5.9-2 1.7-9.1 3-9.1 1.6zM268 700c.2-1.9.8-3.6 1.5-3.8 1.8-.6 1.6 3-.2 5.3-1.5 1.8-1.5 1.7-1.3-1.5zm-68.6 1.3a79 79 0 0 0-9.2-1c-11-.6-12.6-1.3-9.6-4.2 2.5-2.5 4.3-2.8 3.5-.7-.8 2 2.4 2 5 0 1.8-1.3 1.7-1.4-.8-2l-2.7-.7 2.8-1.9 4.6-3.1c1.5-1 2-1 2.7.2.8 1.3 1.3 1.3 3.1.2 1.5-.9 2.5-1 3.2-.3.7.7-.6 2-3.8 4a23.8 23.8 0 0 1-5.7 3.1c-1.8 0-.6 2.1 1.6 3 2 .8 3 .3 6.7-3 2.3-2.2 4.6-4 5.1-4s.8 1.3.8 2.8c0 1.5.4 2.3.8 1.7a6 6 0 0 1 2.5-1.7c.9-.4 2-1.8 2.2-3.2l1-5c.7-3.2 4.1-5.2 6.1-3.5 2 1.6 1.8 2.6-.6 3.2-1.2.4-2 1.4-2 2.7a17 17 0 0 1-1.6 5.7c-1.5 3.2-1.5 3.5 0 5.3 1.7 1.8 1.7 1.9 0 2.4-2 .7-15 .7-15.7 0zm-32.7-2.4c0-.5.7-1 1.6-1s2.6-.9 3.8-2c3-3 9.7-7.2 10.4-6.5.3.3.4.7.1.8-5.2 3.7-7.9 6.1-8.4 7.7-.5 1.5-1.5 2-4 2-2 0-3.5-.4-3.5-1zm119.6-3c.3-.5 1-.7 1.6-.4 1.4.8 1 1.4-.7 1.4-.8 0-1.2-.4-.9-1zm-136-.9c-.8-1.1.8-2.3 1.8-1.4.9 1 .7 2.3-.4 2.3a2 2 0 0 1-1.5-.9zm142.5-4c0-.5 1.8-1.7 4-2.8 4.3-2.2 5.5-1 2.2 2-2 1.8-6.2 2.4-6.2.8zm-277.2-2c0-.9.5-2.2 1.2-2.9 1.6-1.5 5.8-1.5 5.8 0-.1 3.8-7 6.6-7 3zm153.1 1.5c0-.8 8.2-4.8 8.7-4.2.7.7-5.3 4.6-7.1 4.6-.9 0-1.6-.2-1.6-.4zm100.8-.2c-1.3-1.2-.7-3.4.8-3.4.8 0 1.5 1 1.5 2 0 2-1 2.6-2.3 1.4zM162.4 689c-.7-1 7.5-6.7 17-11.6 3.8-2 7.3-4.2 7.9-4.7 1.5-1.4 2.5-1 2.5 1 0 1-.8 1.8-2 1.9-1.3 0-3 .8-3.8 1.6a44 44 0 0 1-6.7 4 60.6 60.6 0 0 0-8.9 5.5c-4 3.3-5.1 3.7-6 2.3zm21.4-.5a67 67 0 0 1 12-8.7c.6 0 1 .7 1 1.4s-2.6 2.8-5.9 4.5c-5.6 3-7 3.6-7 2.8zm447-.6c-.8-1.1.8-2.3 1.7-1.4 1 1 .8 2.3-.3 2.3a2 2 0 0 1-1.5-.9zm-407.6-3.6c-.8-2.2.6-4.5 3.4-5.6 2-.7 2.3-.5 2.3 1.6 0 1.7.6 2.5 2.2 2.7 4 .6 2.4 2.3-2.5 2.6-3.7.3-5 0-5.4-1.3zm266.4.5c-.4-.5 0-2.4.8-4.2 2-4.6 2.8-12.3 1.5-15.2-.8-1.8-.8-3.7 0-7.2 1-3.6 1-5.7 0-9.3-.8-3.4-.8-5.3 0-6.6 1-1.8 1-1.8 2 .8 3 7.5 3.2 33 .5 39-1.6 3.6-3.6 4.8-4.8 2.7zm-337.8-1.5c1.2-1.5 3-1.1 3 .6 0 .5-1 1-2.1 1-1.8 0-2-.3-1-1.6zm27 1c0-.2 2-1.6 4.5-3 2.5-1.5 4.5-3 4.5-3.6s.7-.9 1.5-.9c2.8 0 1.6 1.7-3.5 4.9-4.8 3-7 3.8-7 2.7zM316 682c0-1.1.5-2 1-2 .6 0 1 .6 1 1.4s-.4 1.7-1 2c-.5.4-1-.3-1-1.4zm-46-.8a50 50 0 0 1 3.5-17c1 .5 1 4.4 0 13.5-.5 3.6-1.1 5.2-2 5.2-.9 0-1.5-.7-1.5-1.7zm23 .5c0-1.6 3.9-6.2 4.6-5.5.8.8-2.4 6.7-3.6 6.7-.6 0-1-.5-1-1.2zM140.8 680c0-1 7.3-6 8.7-6 .4 0-1 1.5-3.1 3.4-3.9 3.6-5.6 4.3-5.6 2.6zm5 0c0-.6.6-1 1.4-1s2.2-.3 3-.7c1.2-.4 1.5-.2 1 1-.7 1.8-5.4 2.3-5.4.6zm87.3-1.8 1.3-3.5c.6-1.5.3-1.7-2.4-1.1-3.8.7-4.1-.3-.6-1.7 2-.7 2.5-1.6 2.5-4.4 0-2.5-.5-3.6-2-4-1.3-.5-2-1.6-2-3.1 0-2.8-1.2-3.2-3-1-.7.9-2.1 1.5-3.2 1.5-2.5 0-6.8 3-6.8 4.6 0 2.4 1.7 2.5 5.4.3 2-1.1 3.7-2 3.9-1.7l1.4 2.5c1 2 .7 2.4-5 5.8-5.3 3.1-6.6 3.5-8.6 2.6a7 7 0 0 0-4.3-.5c-1.4.4-1.9 0-1.9-1.4a5 5 0 0 0-1.5-3.2c-1.4-1.2-1.4-1.5.7-3.1 1.3-1 2.9-1.8 3.5-1.8 2.2 0 10.8-5.4 13.6-8.4 2-2.2 2.1-4.3.7-10.4-1-4.4.4-9.1 3.1-10.8 1.6-1 2.4.3 1.2 1.8-1.7 2.1-2.2 11.8-.6 12.4.8.3 1.4 1 1.4 1.7 0 2 3.3 8 5.7 10.4 1.9 1.8 2.3 3.4 2.3 8.3 0 3.3-.5 7-1 8-1.4 2.5-4.5 2.6-3.8.2zm-19.5-9.1c.6-1.6-3.3-1.5-4.6.2-.6.7-.9 1.6-.5 2 .8.8 4.7-.8 5.1-2.2zM9.8 675.5c-1.7-2-3.1-4-3.1-4.5S5 669.4 3 668.5c-2.4-1.2-3.4-2.2-3-3.4l1.6-7.2c1.5-6.7 2.3-8.5 4.1-8.5 1 0 1.6 2.4 2 9.4.9 11.3 2.3 13.6 8 12.6 4.1-.7 8 .1 8 1.6 0 .5-.7 1-1.5 1s-1.6 1-1.8 2.2c-.2 1.8-1 2.3-3.9 2.5-3 .3-4-.2-6.8-3.2zm210.7 2c.3-.9.9-1.6 1.2-1.6.4 0 1.8-.2 3.2-.6l2.5-.5-2.4 2c-2.8 2.5-5.3 2.8-4.5.6zm96.2-3.8c-.7-5.7 4.3-33.8 6-33.8 2 0 1.7 3.8-1.9 27-1.4 9.6-1.8 11-2.8 11-.5 0-1-1.9-1.3-4.2zm-144.8 1.5a53 53 0 0 1 13-8.3c2.4 0 0 2.7-5.1 5.8-5.3 3.1-8 4-8 2.5zm179-.3a1 1 0 0 1 2 0 1 1 0 0 1-2 0zm58.1-3.2c0-3.5 1.7-5.5 3.2-4 .9.9.9 1.8 0 3.7-1.4 3.1-3.2 3.3-3.2.3zm-242.8-.3.6-2c0-.7 3.6-.5 4.4.2.8.8-2.4 3.3-4.2 3.3-.9 0-1.1-.6-.8-1.5zm-26.9-.5c.4-.5 1-1 1.6-1s.8.5.4 1-1 1-1.6 1-.7-.4-.4-1zm400.3-1c-.8-2.6.3-6 2-6 2 0 2 5.4.1 7-1.1 1-1.5.7-2-1zm-381.8-.5c0-.8.4-1.5.9-1.5a18 18 0 0 0 4.6-3c4.2-3.3 5.5-3.7 5.5-1.6 0 1.7-2.5 3.8-7.2 6-3.3 1.4-3.8 1.4-3.8.1zm137.1-1.9c0-2.2 2.6-4.3 3.8-3 .8.7-1.6 5.4-2.7 5.4-.6 0-1-1-1-2.4zm-150 1a147 147 0 0 1 18.8-13.6c2.7 0 .5 2.3-8 8-8.1 5.4-10.9 6.8-10.9 5.7zm203-4.4c0-2.4 1.3-6.4 3.1-10.1 2.6-5.1 3.3-6 4.5-5 2 1.7 1.8 4.2-.5 7-1.1 1.2-2 2.4-2 2.6 0 .2 1.4 1.6 3.1 3.2 3.3 3 3.2 5.1-.1 5.1-1 0-2.2-.9-2.5-2-.8-2.3-2.7-1.6-2.3.8.1 1-.5 1.8-1.5 2-1.4.3-1.7-.3-1.7-3.6zm152.7 3c-.6-1.1 5.1-9 7.7-10.5 3.5-2.2 3 .4-1 5-2.4 2.5-4.2 5-4.2 5.5 0 1.1-1.7 1-2.5 0zM12 661.3c.4-7.3 2.2-7.5 2.5-.2.2 4.5-.1 5.7-1.3 5.7s-1.4-1.1-1.2-5.5zm230 4.2c0-6 7.4-12.4 10.9-9.3 1.7 1.5 8.1 1.1 8.1-.5 0-1.5 3.2-1 4.6.9 1 1.3 1.6 1.5 2.4.6.9-.8.5-1.8-1.7-3.7a12.3 12.3 0 0 0-3.8-2.7c-.5 0 .3-.5 2-1 4.1-1.3 5.9.7 6 6.7 0 3.9-.4 4.9-1.8 5.2-1 .2-2.7-.5-3.8-1.5-1.9-1.7-2-1.6-3.5.5-1.2 1.7-2.5 2.1-6.8 2.1-3.8 0-6 .6-7.9 2-3 2.4-4.7 2.6-4.7.7zm-222.5-.3c-.9-.9-.9-6.7 0-8.8 1-2.9 2.3-.5 2.3 4.5 0 4.6-.7 5.9-2.3 4.3zm4.5-4.4c.2-3.3.8-5.5 1.6-5.7 1-.4 1.2.8 1 4.8-.2 3.2-.8 5.4-1.6 5.7-1 .3-1.2-.8-1-4.8zm390.1.4c0-2.4 2.3-4.8 4.1-4.2.7.3.2 1.6-1.4 3.4-2.4 2.7-2.6 2.8-2.7.8zM211 661c0-.5.7-1 1.5-1 .9 0 1.3.5 1 1-.4.6-1 1-1.6 1a1 1 0 0 1-1-1zm188.3-3c.1-1.3.9-2.5 1.6-2.7 1-.3 1.3.2 1 1.8-.2 1.3-.9 2.5-1.6 2.7-1 .3-1.3-.3-1-1.8zm-125.1-7c.5-6.3 1.2-8 2.9-6.3 1.7 1.7 0 12.3-1.8 12.3-1.3 0-1.5-1-1.1-6zm-63.6 1.4c-1.4-1.9-1.6-2.8-.7-3.3 2.9-1.8 10.2 2.3 8.6 4.9-1.3 2-6 1-8-1.6zm-71.1-.2c-.6-1 4.1-6.2 5.6-6.2 1.6 0 .7 1.7-2 4.4-1.8 1.7-3.2 2.4-3.6 1.8zm113 0c4.3-3.6 8.5-6 8.4-5 0 1.4-6.3 5.8-8.2 5.8-.7 0-.7-.3-.2-.8zm166.3-.8c-1.2-1.2-.8-4.9.8-7a11 11 0 0 0 1.5-5.7c0-4.5 1.5-7.7 3.6-7.7 1.7 0 1.9 2.2.2 3.8-1 1-1 2 0 4.6 1.1 3 1 3.9-1 7.7-2.3 4.3-3.8 5.6-5.1 4.3zM242.9 650a31 31 0 0 1 10.3-4.2c.5 0-.5 1.2-2.1 2.5-2.8 2.4-8.2 3.5-8.2 1.7zm-1.3-2.8c-1.5-1.5-.6-5 1.5-6.1a29.4 29.4 0 0 1 13.3-1.6c1.6.6 2 4.3.5 4.3a1 1 0 0 1-1-1c0-.5-.9-1.4-2-2-1.5-.8-2.3-.5-3.9 1.1-1.2 1.3-2.2 1.7-2.6 1-1-1.7-3.5-1.2-3.5.7 0 2.3-1.5 4.5-2.3 3.6zm25.9-.2c-.5-.7-.5-1.6-.2-1.9.9-.9 1.9.4 1.4 1.9-.4 1-.6 1-1.2 0zm198.9-9.4c1.7-27.7 2-31.3 3-32 .6-.3 1.4-.4 1.7-.2 1 .6 1 10.4 0 17.4a845 845 0 0 0-2.2 15.8c-1.6 12.7-3.3 12-2.5-1zM481 646c0-.6.9-2.5 2-4.3 1-1.8 2-5 2-7 0-5.2 2-8.7 7.4-13.2 3.9-3.1 4.7-3.4 5.2-2 .5 1.1-.7 2.9-3.5 5.7-2.3 2.2-4.4 5-4.6 6.1l-1 5.9c-.8 5-7.5 12.8-7.5 8.8zm57 0c0-1.6 6.9-4 11.2-4 2.1 0 5.2-.7 6.8-1.6 3.3-1.7 6-1 6 1.4 0 1.2-1.4 2-4.2 2.9-6 1.6-19.8 2.5-19.8 1.2zm-275-3.6c.4-2.2 2.2-2.3 2.6-.2.2 1-.3 1.7-1.3 1.7s-1.5-.6-1.3-1.5zm-75.7-1c-1.9-1.9-2-3-.5-4s5.4 3 4.5 4.4c-1 1.6-2.2 1.4-4-.4zm26.7.9c-1.9-.8-1.5-2.5 1.2-5.6 4-4.6 8.2-2.7 5.5 2.4-1.9 3.6-3.7 4.4-6.7 3.2zm5.5-4c-.4-.3-1.2-.3-2 0-.7.3-.5.5.7.6 1 0 1.6-.2 1.3-.6zm13.8 3.7c-.7-1.2.3-2.3 5.3-5.7 1.3-1 2-2.3 1.7-3.1-.4-1 0-1.3 1-.9s2 .6 2.5.6c2.2 0 .8 3.2-1.8 4.1-1.5.6-4 2.2-5.4 3.6-1.8 1.7-2.8 2.1-3.3 1.4zm121.6.3c0-.5.7-2 1.5-3.4 2-3.4 1.9-3.6-1.5-4.8-2-.7-3.5-2.2-4.4-4.5a12 12 0 0 0-2.6-4.1c-1.4-1-1.4-7.9.1-9.4 2.2-2.1 2.9-1.2 2.2 2.8-.5 3.4-.2 4.4 2.7 8 1.8 2.2 3.9 4 4.6 4 1.9 0 6-5.9 7.2-10.3 1.1-4 3.6-6.7 9.2-9.8l5.2-3c1.3-1 2.2-1 4.3.1 2.4 1.4 2.8 1.2 6.7-2.8 4.8-5 7.4-4.3 3.7 1-3 4.2-4.7 5.5-8.2 6.2a5 5 0 0 0-3.7 3.1c-.6 1.6-1.8 2.5-3 2.5-1.7 0-2 .5-1.4 2.6.6 2.7-1 5.4-3.2 5.4-.8 0-3.6 1-6.3 2.2-4.5 2-5 2.6-7.3 8.2-1.4 3.8-3 6.3-4.1 6.5-1 .1-1.7 0-1.7-.5zm20.7-25.5a5.6 5.6 0 0 0-2-2.3c-1.4-.8-2-.7-2.7.4-1.3 2-.4 3 2.6 3 1.5 0 2.4-.4 2.1-1.1zm-174.3 20.9c.3-2.3 1-5.8 1.6-7.6 1-3.3.9-4-2.1-10.1-.4-.8-2.2-1.8-3.9-2.3-3.2-.8-4.3-3.2-2-4 1-.3 1-1 .2-2.8-.7-1.4-1.5-4.6-1.8-7.2-.3-2.6-.8-5.9-1.2-7.3-.4-1.8-.2-2.5.9-2.5 1 0 1.7 1.5 2.1 4.3 1.3 7.9 2.6 11.2 5.6 14.6 1.7 1.8 3 4.1 3 5.1 0 2.7 4.2 9 6 9 .9 0 2.7 1 4 2 2 1.5 2.3 2.2 1.3 3.2-1 1-1.6.8-3.2-.6-2.8-2.5-4.7-1.4-6.2 3.6-2.2 7.7-5.3 9.6-4.3 2.6zM38 636.9c0-2.4.2-3.4.4-2.2s.3 3.3 0 4.5c-.2 1.2-.4.2-.4-2.3zm236.9 3.2c0-.5.8-1.6 1.8-2.5 2.3-2 8.2-3.4 8.2-1.8 0 .6-.6 1.2-1.2 1.2-.7 0-2.4.9-3.8 2-2.6 2-5 2.5-5 1.1zm108.2-2.5c-.7-.9-1-3.4-.7-6.3l.5-6.1c0-.7.8-1.3 1.6-1.3 1.2 0 1.5 1.2 1.4 5.4-.1 3 0 5.8.4 6.4.4.5 0 1.5-.7 2.1-1 .9-1.6.8-2.5-.2zM255 636c-1.7-.9-3.2-2.3-3.2-3.3s-.7-1.8-1.5-1.8-1.5-.4-1.5-1 .3-1 .7-.7l5.5 2.6c2.6 1.2 4.8 2.9 4.8 3.6 0 2.1-1.2 2.3-4.7.6zm154 .6c-.7-.9-.4-2.4 1.1-5.4 1.2-2.4 2.5-4.3 3-4.3 1.3 0 .9 5-.7 8-1.8 3.5-1.9 3.5-3.3 1.7zm-377-3c.3-1.1.6-3.6.6-5.4 0-1.8.5-3.3 1-3.3.6 0 1 1.1 1 2.4 0 4-1.2 8.6-2.2 8.6-.6 0-.8-1-.4-2.2zm163.7.3c0-.6.5-.8 1-.5.6.4 1 .9 1 1.1s-.4.4-1 .4a1 1 0 0 1-1-1zm91.1 0c0-1.1 1.2-1.6 14.5-6.5l14-5.1c8-3 10.8-6.9 6.3-8.9a5.5 5.5 0 0 1-2.6-2.3c-.3-1 .3-1.2 2.6-.7 2.5.5 3.3.3 4.2-1.4.6-1.1 1.5-2 2-2 1.3 0 1.3 2.9 0 9.9l-1.5 10.3c-.7 5.8-2.5 6.3-2.5.7 0-4.4-.5-4.7-4.6-2.5-7 3.6-13 5.8-17.3 6-2.5.2-6.3 1-8.3 2-4.3 1.8-6.8 2-6.8.5zm-23.5-1.8c.5-.6 2.8-1.5 5-2 2.2-.6 6.2-1.8 8.8-2.8 4-1.4 5-1.4 5.7-.3.5.7.6 1.7.4 2.1s0 .8.7.8 1 .3.7.6c-.3.3-1.7 0-3.1-.7-2.2-1-3-.8-5.3.6-3 2-14.6 3.5-13 1.7zm-73.6-3.2c-1-.6-1.1-1.2-.5-1.9.7-.6 1.6-.6 2.5 0 1 .6 1.2 1.2.5 1.9-.6.6-1.5.6-2.5 0zm27.5 0c-.7-1.1.3-1.5 6-2.5 6.4-1 12.5-1.3 13-.5.3.5-.9 1.5-2.7 2.3-2.3 1.2-3.7 1.3-5 .6-1.4-.7-2.3-.7-3 0-1.4 1.4-7.4 1.5-8.3.1zm-36-2c-.4-.6-.2-1.6.3-2.2 1.4-1.3 4.5-.2 4 1.5-.6 1.7-3.4 2.1-4.3.7zm104.6.1c0-1 2.6-2.1 3.4-1.4.3.4.3 1 0 1.5-.7 1.1-3.4 1-3.4 0zm-247.1-3.4c-1.6-4-1.3-6.1.7-8 2.6-2.3 3.4-2 2.6.9-.3 1.4 0 3.1.7 4 1 1.3.9 2-.9 3.7l-2.1 2.1zm223-.7c0-.6.8-1.3 1.6-1.6 3-1.1 1.5-3.3-2.5-4-5.7-.9-5-2.4 1-2.4 2.8 0 4.9-.3 4.6-.8-.6-.9-7.4-2.3-10.9-2.3-2.4 0-2.2-1.3.7-3.2 2-1.4 2.5-1.4 3-.1.8 2.3 3.5 1.8 2.9-.6-.6-2 2-2.9 3.2-1 .3.6 1.5 1 2.6 1 1 0 2.4 1.1 3 2.5a6 6 0 0 0 4 3c1.5.4 3 1.3 3.3 2.1.3.8 1.5 1.4 2.6 1.4 2.4 0 3.5 2.2 2.5 4.8-.6 1.5-1 1.3-3.3-1.3-3.5-4-5.1-4.5-9.1-2.9-3.7 1.6-3.7 3.6 0 4.5 2.2.5 2.1.6-1 1.3-4.8 1-8.1.8-8.1-.4zm-49-1.5c.7-.8 1.9-1.5 2.6-1.5.8 0 1.1.7.8 1.5-.3.9-1.5 1.5-2.6 1.5-1.7 0-1.8-.2-.8-1.5zm42.1.6c-.8-.5-2.6-.7-4.1-.4-1.5.3-3 0-3.4-.6-.3-.6-1.9-1-3.4-1-3.3 0-5.1-1.7-5.1-4.7 0-3.3 1.8-3.8 3.1-1 1.5 3.4 7.6 4.8 9.4 2.3 1.7-2.3 3.8-2.1 3.2.3-.3 1.2 0 2.4 1 3 .8.4 1.4 1.3 1.2 1.9-.3.7-1 .7-1.9.2zm160.6-.2c-1-2.4 5.9-21.3 7.9-21.7 2.2-.4 2 1-1.2 10.4-3.2 9.6-5.7 13.8-6.7 11.3zm-242.1-.8c-.3-.5-.3-1.6 0-2.5.5-1.2 1-1.4 2-.5.8.7 1.4 1.8 1.4 2.6 0 1.5-2.6 1.8-3.4.4zm131 0c-.3-.6.6-1.5 2-2 3.4-1.3 3.5-1.3 3.5.3 0 2.2-4.3 3.5-5.5 1.6zm-83-2.7c-1-2.7.6-3.3 6.7-2.7 6.8.7 7.7 2.3 1.3 2.3-2.4 0-4.7.5-5 1-1 1.5-2.3 1.2-3-.6zm310 .4a42 42 0 0 1-1.6-11.5c-.6-11.7.3-13.8 4.8-10.9 2.4 1.6 2.5 2.1 2.5 11.6 0 8.8-.2 10-2 11-2.4 1.3-2.6 1.3-3.8-.2zm-245-2L283 615c-2.4-1.1-2.4-2.8-.1-4 1.8-1 2-1 1.8.6-.2 1.5.7 2 4.9 2.8 5.3 1 8 2.5 4.7 2.6-1 0-2.8.2-3.9.4-1.1.3-3 0-4-.6zm209-6.3c-.9-2.3.3-13.5 1.5-14.7 1.5-1.5 4.2.9 4.2 3.5 0 1.1-.8 2.6-1.7 3.2-1.5 1.1-1.5 1.7-.4 4.5 1.2 2.7 1.2 3.4 0 4.1-2 1.3-3 1.1-3.6-.6zm-265.8 0c-.4-.5-.7-1.8-.7-3.1 0-1.7-.6-2.4-2-2.4a4 4 0 0 1-2.8-1.3c-1-1.8-12.7-2.9-14.2-1.4-1 1.1-1.5 4.7-.6 4.7.2 0 1.6-.5 3-1.2 2.2-1 2.9-.9 3.6.3 1.7 2.7 1 3-7 3-6.5 0-8-.4-8-1.6 0-.8.5-1.5 1.1-1.5s3-1.6 5-3.7l3.8-3.7 10.6.2c12.7 0 14.7 1.2 14.3 7.7-.3 3.5-.7 4-2.9 4.3-1.4.2-2.8 0-3.2-.4zm.7-7.4c.3-.4-.2-1.1-1.1-1.5-2-.7-2.8-.1-1.9 1.4.8 1.3 2.2 1.4 3 .1zm-48.2 6.3c-1.7-.7-1.6-3.4.1-3.4.8 0 2.5 1 3.8 2l2.3 2h-2.5a15 15 0 0 1-3.7-.6zm91.5 0c-1.4-1.4-.7-2.5 1.3-2.2 1.1.2 2 .8 2 1.3.1 1.3-2.3 1.9-3.3 1zm-29.7-1.8c0-1.6 3.7-4.1 4.8-3 .9.8-1.3 3.9-3.2 4.3-1 .2-1.6-.4-1.6-1.3zm43-.3 1.6-2.1c.2-.2.7 0 1.3.3 1.6 1 0 3.5-2.1 3.5-1.8 0-1.9-.2-.7-1.7zm16-2.2c0-.6-1.1-1.3-2.5-1.6-1.3-.4-2.7-1.5-3-2.4a4 4 0 0 0-2.5-2.4c-1.3-.3-2-1.3-2-3 0-2.1.4-2.5 2.7-2.3 2.5.1 2.8-.3 3.3-3.4.4-3 .9-3.5 3.3-3.5 1.6 0 3.2-.6 3.6-1.3 1.2-1.9 1.9.4 1.5 4.8-.8 12-1.6 16-3 16-.8 0-1.4-.4-1.4-1zm1-5.4c0-.8.3-2.8.6-4.5 1-4.6-2.5-4.3-4.7.4-1.5 3.2-1.5 3.5 0 4.4 2.3 1.4 4.1 1.3 4.1-.3zm22.1 3c-.7-.9-.9-2.6-.5-4 .8-3.3 2.4-4.5 2.4-1.8 0 2.1 2.6 3.6 3.6 2 .3-.5 2.2-1.6 4.2-2.4 2-.9 4.6-2.4 5.8-3.5s10-6 19.5-10.9a367 367 0 0 0 36.3-20c.6-.6 2.2-1 3.5-1 1.4 0 2.6-.8 2.8-1.9.3-1 3.2-3 7.2-4.6 3.7-1.6 8-3.8 9.7-5a147 147 0 0 1 7.9-5c4.2-2.4 5.1-2.6 7.1-1.5 2.8 1.4 4.5.6 4-1.8-.4-1.4 2-3 11-7.3a69 69 0 0 0 16-9.2c4.8-2.3 6.6-5.4 6.5-11.2v-3l-4.3 4.9c-4.1 4.6-4.6 5-8.7 4.7-5.3-.3-9.2 1.2-10.5 4.1-1.6 3.7-18.7 14.7-38.8 25-6 3.2-9.4 3.1-3.7 0a66 66 0 0 0 7.4-5c2.2-1.8 6.3-4.4 9.1-5.7 2.8-1.4 7.5-4.3 10.5-6.5s6.7-4.5 8.3-5.2a8.8 8.8 0 0 0 4.2-4.5c1.5-3.5 3.7-4.8 9.7-5.8 2-.4 6-2.2 8.8-4.1 3.5-2.4 5.8-3.4 7-3 1.9.6 2 .2 2-5.1.1-18 1.2-41.5 2.2-46.1 1-4.2 1.6-5.3 3.1-5.3 2 0 2 .5 1.3 9.8a522.4 522.4 0 0 0-2.4 33.4c-.5 9.7-1.3 18.2-1.7 19s-.9 9.3-1 19c0 9.7-.3 18-.7 18.4-1.7 1.7-2.6-1.5-3.2-11-.3-5.4-.8-10.1-1-10.4-.8-.7-6.6 2-9.5 4.4-1.4 1.2-8.2 5.1-15 8.7-7 3.6-14.6 7.7-17 9.1-2.6 1.5-10.7 5.6-18.1 9.3s-19.1 9.2-26 12.6c-7 3.3-13.9 7-15.5 8.2s-6.2 4-10 6c-3.9 2.2-8.4 4.9-10 6s-6.9 3.5-11.6 5l-9.6 3.1c-.6.3-1.6-.1-2.3-1zM263 602c0-1.7 1.2-4 2-4 .6 0 1 1 1 2.4 0 1.6-.6 2.5-1.5 2.5-.8 0-1.5-.4-1.5-.9zm207.5-1.5c-.3-.9-.4-3-.1-4.8a27 27 0 0 0-1-8.4 19 19 0 0 1-.3-9.7c.5-2.4.8-6.2.6-8.5-.4-4 1.5-8.4 3-7 .4.5.7 3.4.7 6.6-.2 8.5-.1 17.9 0 25.7.2 4.7-.1 7-1 7.3-.7.2-1.5-.3-1.9-1.2zM246 596.6c0-2.5 2.5-3.9 4-2.1 1.4 1.7 1.3 2-1.8 2.9-1.6.5-2.2.3-2.2-.8zm-66.9-1.3c-1.7-1.3-2.6-1.4-3.4-.5-1.7 1.6-3.8 1.4-3.8-.4 0-.9 1-1.5 2.5-1.5 1.4 0 2.5-.5 2.5-1 0-1.2 2.8-1 6.3.5 1.4.6 1.7.2 1.7-2.5 0-4.3 2.6-7.3 5.1-5.9 1.2.6 2 2.1 2 3.7 0 2-.4 2.4-1.3 1.4-1-.9-1.6-.2-3.2 3-2.3 4.8-4.8 5.7-8.4 3.2zm54.5 1c-1.2-1.3-.7-2.4 1.2-2.4 1 0 2.5.7 3.1 1.5 1.1 1.3 1 1.5-1.2 1.5-1.3 0-2.7-.3-3-.6zm-28.7-1.3c-5-.5-5.5-.8-5.8-3.2-.2-2.2.4-3 3.8-4.7 2.3-1.2 4.6-1.9 5.2-1.5.7.4-.5 1.5-2.6 2.5-4.4 2.3-3.8 3.8 1.5 3.8 3.2 0 4-.3 4-1.9 0-1 .4-2.2 1-2.6.5-.3 1 .3 1 1.3s.6 2.7 1.4 3.8c2.8 3.7 2.4 3.8-9.5 2.5zm17-.5c0-.6.6-2 1.4-3 1.6-2.3 5-1.4 4.5 1.1-.4 2-5.9 3.8-5.9 2zm91.3-2.7c.2-1.8.8-3.2 1.3-3.1 1.5.4 1.2 5.5-.3 6-1 .3-1.2-.5-1-2.9zm16.2 1.6.6-2.4c0-1.4 7.6-6 9.8-6 3.3 0 2.7 1.6-1.5 4.3a28 28 0 0 0-5.2 4c-1.7 2.1-4.5 2.2-3.7 0zm-65.7-.8c-3-1.2-3.7-3.7-1-3.7 1 0 2.8.7 3.8 1.5 2.7 2 .8 3.5-2.8 2.2zm17.7-.7c-.3-.6-.3-2.1 0-3.4.4-1.6-.3-3.4-2.4-6a18 18 0 0 1-3-4.7c0-1.2 2.4-1 3.6.2.6.6 2.8 1.1 4.9 1.3 2.3.1 4.3.9 4.9 1.9 1.3 2.2 0 3.4-1.9 1.8-1.2-1-1.6-.8-2.5 1.4-.6 1.5-1 4-1 5.6 0 3-1.3 3.9-2.6 1.9zm152.7-.4c0-2 2.7-3 9.8-4 4.3-.6 5.2-.5 5.2.8 0 1.6-4 3-11.2 4.3-3.1.5-3.8.3-3.8-1zm99.8-.2c-1-1-.9-5.1.2-5.8 1.3-.8 3.3 2 3 4-.4 2-2.1 2.9-3.2 1.8zm5.8-1.4c-1.1-1.7 1.5-3 5.5-2.7 2.3.2 3.5.7 3.5 1.7 0 2-8 2.7-9 1zm-377.7-.8c-4.4-.6-6.4-2.4-3.9-3.4.7-.3 3.7-.3 6.6 0 4.2.4 5.2.8 5 2.1-.4 1.9-1.7 2-7.7 1.3zm342.9.2c-.4-.4-.7-2-.7-3.8a26 26 0 0 0-3-8.8c-1.8-3.4-2.5-6-2-6.3 1.4-.8 4 1.4 5 4.3.5 1.2 1.3 2.2 1.8 2.2s2.7-2.2 4.8-5c3.6-4.7 6.4-6.4 6.4-3.8 0 .7-1 2.4-2.4 3.8a41.5 41.5 0 0 0-5.1 9.5c-3.2 7.8-3.9 8.9-4.8 7.9zm-267.4-1c-1.7-.3-3.5-1-4.2-1.5-.6-.5-4-1-7.5-1-6.1 0-9.9-1-9.9-2.7 0-1.4 13.6 0 18.2 2 4.7 1.8 10.9 2.5 10.9 1.1 0-.4-1.3-1.7-2.8-2.9s-2.5-2.4-2.2-2.7 4.2-.8 8.7-1.1c7.2-.7 8.3-.6 8.3.8 0 1-.9 1.6-2 1.6-1.2 0-3.1.6-4.3 1.2-2 1-2 1.2-.2 2.5 1 .7 1.6 1.5 1.4 1.8-.8.8-11.2 1.4-14.4.9zm85-2.4c-.3-.5-.1-1 .5-1s1 .5 1 1-.2 1-.4 1-.7-.4-1-1zm-148-2.5c-1.3-1.3-3.3-2.5-4.5-2.5-1.4 0-2-.6-2-2 0-1.6.6-2 3.3-2 2.8 0 3.8.6 5.5 3.4 3.6 5.8 2 7.8-2.3 3.1zm153.5 1c0-.9.5-1.5 1.1-1.3.6.2 1 .8 1 1.3s-.4 1.2-1 1.4c-.6.1-1-.4-1-1.4zm125.1.5a1 1 0 0 1 2 0c0 .6-.4 1-1 1a1 1 0 0 1-1-1zm108.3-.6c.4-2.1 5.6-4 7-2.5 2 2 0 4.1-3.7 4.1-2.9 0-3.6-.3-3.3-1.6zm-215.9-1.9c1.7-1.4 5.3-3.6 8-5 2.8-1.4 6.4-3.3 8-4.4a28 28 0 0 1 6-2.6c2.8-.6 2.6-.3-1.8 3a46.2 46.2 0 0 1-7 4.2c-1.2.3-3.8 1.7-5.9 3-2 1.3-4.4 2.3-5.2 2.3-.9 0-1.6.5-1.6 1 0 .6-.7 1-1.7 1-1.3 0-1-.6 1.2-2.5zm228.5 1.4c-1.5-.8-1.8-2.2-1.6-7.2 0-3.4-.2-10.5-.6-15.8-1-10.4-.2-16.7 1.6-13.6.5 1 1 4 1 6.8 0 2.7.4 5.2 1 5.5s.8 5.2.8 11 .5 10.6 1 11c1.5.8 1.3 3.4-.2 3.4a8 8 0 0 1-3-1zm-309-2.9c0-.5.5-1 1-1s2.4-1.4 4-3.2c2.4-2.5 3.2-3 4-1.9.5 1-.2 2.3-2.5 4.3-3.3 2.8-6.5 3.8-6.5 1.8zm26.3-1.2c-3.2-1.5-3-4 .2-3.2 2 .5 3.1 0 5.5-2.5 2.5-2.7 3.2-3 5-2 2.3 1.2 3.7 3.6 2.6 4.7-.3.3-1.2-.2-2-1.2-1-1.6-1.5-1.6-3.4-.4a4.9 4.9 0 0 0-2.2 3.6c0 2.5-2 2.8-5.7 1zm-70.1-1c-2-2-1.5-4 1-3.6 1.4.2 2.2 1 2.2 2.3 0 2.3-1.6 3-3.2 1.4zm12.8.2c0-.6.4-.8 1-.5.5.4 1 .9 1 1.1s-.5.4-1 .4-1-.4-1-1zm75.4-.5c-1.3-3.4.4-4.7 5.4-4 2.6.4 5.5.9 6.5 1.2 3 .8.9 2.3-3.3 2.3-2.1 0-4.1.5-4.5 1-1 1.6-3.5 1.2-4.1-.5zm-121.7-2c-.3-.4-.2-1.7.4-3 .9-1.8.8-3.1 0-5.1-1.9-4 .2-5.4 2.2-1.5 1 1.7 1.6 3.7 1.6 4.5 0 1.9-3.3 6-4.2 5.1zm15.2-1c0-1.8 2.4-3 4-2 .8.5.5 1.2-.7 2.1-2.3 1.8-3.3 1.8-3.3 0zm27 0c0-1.4.3-1.5 1.6-.5.8.7 1.5 1.5 1.5 1.7 0 .2-.7.3-1.5.3s-1.6-.7-1.6-1.6zm29.5-.5c-1-1.7 1.3-3.6 2.7-2.2 1.1 1.1.4 3.2-1.1 3.2-.5 0-1.2-.4-1.6-1zm-96.3-2.7c.3-2.4 0-2.7-4.1-3.4-8.4-1.5-7.6-4.3 1-3.7l4.4.3.3 4.8c.2 3-.1 4.7-.8 4.7-.6 0-1-1.2-.8-2.7zm49.2 1.6c2-.8 3.1-.8 4 0 .7.8 0 1.1-3 1-3.8 0-3.8 0-1-1zm114.5-2c-1-.5-1.8-1.6-1.8-2.3s-.7-1.9-1.5-2.6c-.8-.6-1.5-1.6-1.5-2 0-1.4 3.8-1.1 4.3.2.5 1.7 9 1.1 10.3-.7 1.3-1.7 5.4-2 5.4-.3s-4 4.8-6.1 4.8c-1 0-2.4 1-3.1 2-1.4 2.2-3.3 2.5-6 1zm20.7-.9a2 2 0 0 1 0-2c1-1.5 3.5-1.2 3.5.4 0 1.7-2.7 3-3.5 1.6zm-42.5-1c0-1 3-1 7.5 0 2.6.7 2.3.8-2.2 1-3 0-5.3-.4-5.3-1zm-83.8-2.2c-1.4-.7-2.5-2.3-2.9-4.7-.3-2-1.3-4.3-2.2-5.3-1.8-2.1-1-3.2 1.8-2.3 1.3.4 2 1.5 2 3 0 2 .8 2.7 3.3 3.3 2.7.7 3.3 1.4 3.6 4 .3 3.6-1.3 4.1-5.6 2zm150.9.4c0-1.1 10.8-7.7 14.1-8.6 4.7-1.3 7-3 8.5-6.2 2.4-5.1 1.6-6.8-3.6-7.1-4-.3-5 .1-8.1 3-2 1.9-3.9 4-4.1 4.7-.5 1.7-2.8.5-2.8-1.4 0-1.6 10.2-9.3 13.2-10a19 19 0 0 1 7.3.8c4.8 1.2 5 1.4 5.6 5.5.5 4 .3 4.4-2.3 5.7a170 170 0 0 1-27.5 14.4c-.2 0-.3-.4-.3-.8zm-198-1.4c-3.1-1.5-2.2-3.3 1.6-3 2.8.3 3.3 0 4.7-3.4l1.6-3.7 4 4-3.4 3.7c-3.5 3.8-4.8 4.2-8.5 2.4zm31.3-1c-.4-1-1.7-1.8-3.2-1.8-4.2 0-2-2.3 2.5-2.6 5-.4 5.7.4 3.2 3.7-1.6 2.2-2 2.2-2.5.7zm33.6-.8c0-.5.4-1 1-1s.8.5.5 1c-.4.6-.9 1-1.1 1s-.4-.4-.4-1zm12.2.4c-1.2-.3-2.2-1-2.2-1.7 0-.8 2.4-1.2 7.5-1.2 5.3 0 7.5.4 7.5 1.3 0 .7-1.3 1.2-3.3 1.3-1.8 0-4.1.1-5.2.3-1.1.2-3 .2-4.3 0zm58.3-1.2a12 12 0 0 1 4.4-1.7c2.6-.5 3.3-.4 3 .7-.3.7-2.3 1.5-4.5 1.7-2.5.2-3.5 0-2.9-.7zM270 563c0-.5.4-1 1-1s1 .5 1 1a1 1 0 0 1-2 0zm76.7.4c-.7-.8 2.2-4.4 3.5-4.4 1.1 0 4.8 3.3 4.8 4.3s-7.4 1-8.3 0zm12.7-.9c-.8-2 .9-3.7 3-2.9 2.2.9 2 2.1-.4 3.5-1.6.8-2.1.7-2.6-.6zm139.4.7c-.3-.5-.9-2.7-1.2-5-.9-5.1 1.4-9.2 5-9.2 3.2 0 3.3 2.3.5 5.8-1.5 2-1.8 3.4-1.3 5.9.4 2.6.3 3.3-1 3.3-.8 0-1.8-.3-2-.8zm-215.1-.8c-1.7-1.7-.3-2.4 4-2.2 6.2.4 7.1 2.8 1 2.8-2.4 0-4.7-.3-5-.6zm-237.4-1.7c-1.8-1.3-1.8-1.5 0-4.3 1.1-1.6 2.5-3.7 3-4.8 1.1-2 5.5-4.1 5.5-2.7 0 .5-1.1 2-2.5 3.5a8.8 8.8 0 0 0-2.5 6.2c0 3.8-.6 4.2-3.5 2zm147.6.3c-1.2-.7-.9-1 1.3-1 1.5 0 2.7.5 2.7 1 0 1.3-2 1.3-4 0zm324 .4c-1-.9 4.3-7.4 5.9-7.4 2 0 1.7 1.5-1.2 5-2.6 3-3.6 3.6-4.7 2.4zM171.3 558c.3-.5 1-.7 1.6-.4 1.4.8 1 1.4-.7 1.4-.8 0-1.2-.4-.9-1zm165.7-1.4c-1-1.1-1-2.3-.3-4.5 1.3-3.7.9-4-4.6-4h-4.4l.5 4c.4 3 .2 4-.9 4-1.8 0-2-8.4-.1-9.8 5-4.1 16-1 14.7 4.2l-.4 4c-.2 3.4-2.5 4.5-4.5 2.1zm-28.1-1.1c0-1.3-.7-1.5-3-1-2.4.6-3 .4-3-1a6 6 0 0 0-1.5-3.4c-1.6-1.8-2-3.6-1.7-9.3.3-6.4 4.2-4.8 8.8 3.8 1.5 2.8 2.6 12.4 1.4 12.4-.6 0-1-.7-1-1.5zm-111.6-.3c-2-2 6.6-3 9.5-1.2.8.6 1.3 1 1 1.2-1.4.4-10 .5-10.5 0zM242 554c0-2.5 2.3-2.1 2.8.4.2 1-.3 1.6-1.3 1.6-.9 0-1.5-.8-1.5-2zm-60.1-1c0-1.6-.5-2-2.2-1.8-2 .3-2.3 0-2-3.4.2-3.2 0-3.8-1.8-3.8-1.6 0-2-.6-2-3.4 0-2.4-.6-3.8-2-4.5-2.8-1.6-6.1-1.3-7.6.7-1.2 1.6-1.4 1.5-2.4-1.3-1.1-2.8-.8-11.4.5-13.5.3-.5 1.4-1 2.4-1s2.3-1.1 3-2.5c.8-1.9 1.7-2.5 3.4-2.3 2 .3 2.2.8 1.9 5.3a16 16 0 0 0 2.3 10c1.7 3.1 2.4 5.7 2 7.2-.4 1.8-.1 2.3 1.4 2.3 1 0 2.4.8 3.2 1.6 1 1.3 1 1.8-.2 2.6-1 .7-1 1.2-.3 1.5.6.2 2 1 3 1.8 1.6 1.1 1.7 1.7.6 4-1.4 3-3.2 3.4-3.2.5zm48.3 1.4a5 5 0 0 1 3 0c.7.3-.1.5-1.8.4-1.6 0-2.2-.2-1.2-.4zm136.4-1c-1.1-.7-2.5-1.2-3.2-1-1.2.5-2.7-2-1.9-3.3.3-.4.6-3.5.7-6.8l.1-6.1 2.9 2.1c2.4 1.8 2.9 2.8 2.9 6.8 0 3 .5 5.2 1.5 6 1.8 1.5 2 4 .2 4-.7-.1-2.1-.8-3.2-1.6zM41.7 553c0-.5.5-1 1-1s.8.5.5 1c-.3.6-.8 1-1 1s-.5-.4-.5-1zm119.6-.5-1-3c-.2-.8-1.4-1.5-2.5-1.5s-2-.6-2-1.5c0-1.5 3.6-2 5.7-.7 1.2.8 3.3 5.5 3.3 7.3 0 1.5-3 1-3.5-.6zm93.6-1.4c0-1.2.6-2 1.5-2 1 0 1.5.6 1.3 1.6-.5 2.5-2.8 2.9-2.8.4zm-219.2 0c0-1 4-4 5.4-4 .5 0-.1 1-1.4 2.4-2.4 2.6-4 3.2-4 1.6zm182.1 0c0-.6.7-1 1.6-1 .9 0 1.3.4 1 1-.4.5-1.1 1-1.6 1s-1-.5-1-1zm135.6-.1c-.4-.6-.3-4.3 0-8.2.5-3.8.8-9.2.8-11.9 0-5.2 1-6 4.3-3.4 1 .8 3 1.5 4.2 1.5 1.4 0 2.3.7 2.3 1.7 0 1.1-.7 1.5-2.5 1.1-1.3-.2-3-.1-3.6.3-.7.4-1.7 5-2.3 10.3-1 9.1-1.7 11-3.2 8.6zm-80-1c-.4-.5-2.3-.7-4.5-.3-3.8.6-4 .4-5.5-3.2-.8-2-1.5-4.1-1.5-4.6 0-2 4-.7 5.9 1.9 1.9 2.5 2.2 2.6 3.1 1 1.6-2.6 2.8-2.1 4.5 1.9l1.5 4c0 .8-3 .3-3.5-.7zm-104.6-2c0-.5.7-.6 1.5-.3s1.5.7 1.5 1-.7.3-1.5.3-1.5-.4-1.5-1zm22-4.5c0-1.5 3.5-2 6.4-.8 3 1 1.7 2.3-2.4 2.3-2.9 0-4-.4-4-1.5zm15 .7c0-1.3 3-7 4.1-7.7 2-1.3 2 2.6 0 5.5-2.1 3-4 4-4 2.2zm29.5-.2c-.4-.6-.4-1.3-.1-1.6.8-.9 8.7.7 8.7 1.7 0 1.3-7.8 1.2-8.6-.1zm12.7-1.7c.2-1 1.4-1.9 2.6-2 2.5-.4 3 .7 1 2.5-1.7 1.8-4 1.5-3.6-.5zm-26.7-.4a47 47 0 0 1-1-10.7l-.4-10.3c0-.3-1-.9-2.3-1.2-1.7-.4-2-.9-1-1.7 1.7-1.8 8.6.1 9 2.5.3 1 .1 6.5-.2 12.2-.6 7.7-1.1 10.3-2.1 10.3a3 3 0 0 1-2-1zm63.6-.4c0-1.8 2.4-3 4.1-1.9.9.5.7 1.1-.6 2.1-2.5 1.8-3.5 1.7-3.5-.2zm-29.4-1.1c-1.1-1.2-.7-2.4.9-2.4.8 0 1.5.5 1.5 1 0 1.2-1.6 2.1-2.4 1.4zM30 536.2c-1-2.2-1.6-14.5-.7-17.2 1-3.5 2.5-1.3 2.5 3.9 0 4 .3 4.8 1.7 4.7 1.4-.1 1.8.6 1.8 3.3 0 4.4-1.1 7-3 7-.8 0-1.8-.7-2.3-1.7zm-7-.5a54 54 0 0 1-1.4-20.3c.5-1.6 1.5-3 2.3-3.2 1.1-.3 1.4 1.8 1.3 11.7 0 6.6-.3 12.2-.6 12.5-.3.3-1 0-1.5-.7zm273-4.3c0-1 .5-1.4 1.2-1.2 1.9.6 2.2 2.7.4 2.7-.9 0-1.6-.7-1.6-1.5zm-86.5-3.3c-.8-1.3 1.1-6.2 2.5-6.2s.8 6.3-.7 6.8c-.7.2-1.4 0-1.8-.6zm286.2-5.4a53 53 0 0 1-.4-18.4c1.2-7 2.7-9.7 4.7-8.5 1 .7 1 2-.4 7.6-1.4 5.7-1.5 7.4-.4 10.5 1 3.2 1 4.2-.5 6.9-1.7 3.4-2.4 3.8-3 1.9zm-341-2.9c-2.2-1.2-2.4-3.9-.3-3.9 1.6 0 3 2.3 2.3 4-.2.6-1 .6-2 0zM130 509.3c-3.1-7-2.2-8 1.3-1.3 1.5 2.9 2.4 5.6 1.9 6-.5.4-1.9-1.6-3.2-4.7zm19.9 2.6c0-.6.4-.8 1-.5s1 .9 1 1.1-.5.4-1 .4-1-.4-1-1zm-9.8-2.7c-3.3-1.7-4.4-4.3-1.7-4.3 2.6 0 7.5 3 7.5 4.6 0 1.8-1.6 1.8-5.8-.3zm-14.8-11.3c-.3-.6-.4-1.3-.1-1.6.7-.7 2.7.5 2.7 1.7 0 1.3-1.8 1.2-2.6-.1zm379.6-8.6c-.4-.4 1.3-2.5 3.8-4.8 2.8-2.6 4.5-5 4.5-6.5 0-2 .3-2.2 4.2-1.5l5 1c1.5 1-.5 3.4-3.6 4.4-1.8.6-4.8 2.7-6.6 4.6-3.2 3.2-5.9 4.3-7.3 2.8zm47.5-.5c-1.8-1.8.5-3.9 4.3-3.9 1.8 0 5-.7 7-1.5 3-1.2 4.4-1.4 6.2-.6 3.6 1.7 3 4.1-1 4.1-1.9 0-5.6.7-8.3 1.5-6 1.8-6.7 1.9-8.2.4zm-54.7-.9c-.4-.5-.3-1.5 0-2 .4-.7.7-4.2.6-8-.2-5.2.1-6.8 1.3-7.3 1.2-.4 1.6.1 1.6 2.1 0 1.5.3 4.4.6 6.4a12 12 0 0 1-1 6.8c-1.8 3.3-2.2 3.6-3.1 2zm11-12.1c-.8-2.3 1-8.1 2.7-9.2 2.7-1.7 3.2 0 1.6 5-1.5 4.8-3.4 6.6-4.3 4.2zm130.6-1.9a1 1 0 0 1 2 0c0 .6-.5 1-1 1a1 1 0 0 1-1-1zM37 467.4c-1.6-3.4-1.5-5.5.2-5.5 1.5 0 4 5.7 3 7.2s-2 1-3.2-1.7zm465.2-7.8c0-1.3 1.7-4.7 3.7-7.5s4.6-6.5 5.5-8.2c1-1.7 2.2-2.8 2.8-2.5 1.2.8-1 6.3-4.3 10.8a26.3 26.3 0 0 0-3.4 6.2c-1.3 3.9-4.3 4.7-4.3 1.2zm-400.4-9.2c-.7-.8-1-1.8-.7-2 .3-.4 1.1.3 1.7 1.5 1.3 2.4.8 2.7-1 .5zm380-1.9c-1-1.8-1.6-3.9-1.2-4.4.3-.6 3-2.7 5.9-4.6 2.8-2 7.3-5.7 9.8-8.3l10.4-10.5c5.7-5.8 8-7 9.1-4.3.4 1.2 1 1.3 2.5.5 2-1 2.6-4.4 1-5.4-1.4-.8-.2-3.6 1.5-3.6.9 0 1.4 1.1 1.4 2.8 0 1.6.5 3.3 1 3.9 1.8 1.8-1.8 9.2-5.4 11-3 1.5-6.6 5-6.6 6.6 0 1 7.6-2.8 10.9-5.4 2.8-2.2 4-2.4 4-.5 0 2-16.2 12.6-19.1 12.6-.8 0-3 1.2-4.8 2.5a16.1 16.1 0 0 1-4.2 2.5c-1.5 0-.9-2 1.2-3.7 3.4-2.9 2-6-2.1-4.7-2.4.7-4.3 4.8-4 9 0 2.5-.6 3.3-3.9 5.2-2.2 1.2-4.3 2.2-4.8 2.2s-1.6-1.5-2.6-3.4zm26.2-21.8c1.6-1.6 1.5-2.8-.2-2.1-1.6.6-3 3.3-1.8 3.3.4 0 1.3-.5 2-1.2zm6-5c1.4-1.4 1.5-2.8.2-2.8-.5 0-1.4 1-2 2-1.2 2.3-.1 2.7 1.8.8zm17.3 29.3c-1.1-.7-1.1-1.8-.1-6 .9-3.7 1-5.9 0-8.2a46 46 0 0 1-1-11c0-8.7 1.5-12.8 6.2-16.7l2.9-2.3-.6 10.8c-.5 11.7-.6 14-.4 24.8.1 6.9 0 7-2.8 8.2-1.6.7-3.5.8-4.2.4zm13-3.8c.3-1.1 2.8-2.4 8-4 14.3-4.3 18.2-1.8 4.3 3-9.5 3.2-12.7 3.5-12.2 1zM29 444.8c-.7-.8-1-3.2-.5-7.2.5-5 .3-6.2-1.1-7.2-1.3-1-1.8-3.2-2.2-9.1-.5-8.6-.9-10.4-2.2-10.4-.5 0-.7 3.5-.4 7.7.4 6.2.2 7.5-1 7.1-2.4-.8-4.4-29.7-2-30.5.8-.3 1.2 1 1.2 4.6 0 2.8.4 5.3.9 5.6 1 .6 2.1-1.7 2.1-4.5 0-2.7 2.5-2.4 4.8.5 1.1 1.4 2.5 2.5 3.1 2.5s1.1.7 1.1 1.6c0 2.1 4.3 8.4 5.8 8.4.7 0 1.8 1.2 2.4 2.6 1 2 .8 3.6-.6 8.2-1.7 5.3-2 5.6-2.8 3.2-.5-1.3-.8-4.7-.6-7.4 0-2.7-.2-5-.7-5.2-2-.7-3.5 5.7-4 17.2-.5 12-1.2 14.4-3.3 12.3zm-.2-24.9c0-.5-.5-1-1-1s-.8.5-.5 1c.3.6.8 1 1 1s.5-.4.5-1zm2-6c0-1-.7-2-1.5-2-1.5 0-2 2.2-.8 3.4 1.2 1.3 2.3.6 2.3-1.4zm624-3c-.3-.5-.1-1 .4-1 .6 0 1.1.5 1.1 1s-.2 1-.4 1c-.3 0-.8-.4-1.1-1zM85.4 399.7c-2.9-5.8-7.7-18.7-7.7-20.5 0-.2.4-.1 1 .2.4.3 2.2 4.2 4 8.8a193 193 0 0 0 6.6 16c.7 1.5 1 2.7.5 2.7s-2.5-3.2-4.4-7.2zM543 361.4c0-1.6 15.3-9.4 18.5-9.4 3.4 0 .7 2.6-7 6.7-8.6 4.5-11.5 5.2-11.5 2.7zm90.8-3c-.8-.8.3-3.4 1.4-3.4.5 0 .9.9.9 2 0 1.9-1 2.6-2.3 1.4zm-93.8-5c0-1.6 2.7-4.3 4.3-4.4 1.4 0 .7 2.6-1.1 4.3-2.3 2-3.2 2-3.2 0zm14-13.3c0-2 5-6.1 7.5-6.1 2.3 0 1.8 2-1.2 5.1-3 3.3-6.3 3.8-6.3 1zm10.7-8.9c-1-1.6 4-8.7 6.3-9 2.1-.4 2.3-.2 1.7 3-1 4.5-6.4 8.7-8 6zm18-12c-.4-.3-.7-1.6-.7-2.9 0-2.1-.3-2.3-5.2-2-4.3.1-5.3-.2-5.6-1.6-.2-1.4.4-1.7 2.8-1.7 3.3 0 7-3 7-5.6 0-1.3-.6-1.5-3-1-1.6.4-3 .5-3 .3s1.6-2.1 3.4-4.2c2.3-2.6 4-3.6 5-3.2 1.2.4 1.6 0 1.6-1.9a9 9 0 0 1 1.3-4.4c1-1.7 1-2.3-.5-3.7-2.2-2.2-4.8-1-4.8 2.1 0 1.6-.5 2.6-1.5 2.6s-1.5-1.1-1.5-3.5c0-2-.2-3.5-.4-3.5a38 38 0 0 0-14.2 4.5c-4.1 3.1-6.2 2-4.4-2.5 1.7-4.1 5.2-6.4 8.8-5.7 3.3.6 12.2-2.1 12.2-3.8 0-4.1 6.7-3.4 9 1 .8 1.4 2.9 3.3 4.7 4.4 2.4 1.4 3.5 3 4.4 6.2.6 2.4 1.8 5.8 2.5 7.6 3.5 8.2-.2 17.4-8.8 21.8-2.8 1.5-8 2-9.1.8zm3.3-12.7c0-.8-.4-1.7-1-2-.5-.4-1 .5-1 2 0 1.4.5 2.3 1 2 .6-.4 1-1.3 1-2zm-26.6 5c-3.3-2.7-4.9-6.5-3.9-9.6 1-3 3.3-2.3 4.9 1.3a26 26 0 0 0 4 6.4 18 18 0 0 1 2.6 3.7c0 1.6-4.8.4-7.6-1.8zm129.5-3.3c-2.7-.6-2.5-6.2.2-6.2 2.6 0 4.3 3.2 2.7 5.1-.6.9-2 1.3-3 1.1zm-6.8-23.9a36 36 0 0 1-1.4-8.7c0-4.5.2-5.2 2.7-6.6 3.7-2.1 6.2-.5 6.2 4 0 2.8-.4 3.5-2.2 3.8-2 .2-2.2.7-1.6 3a12 12 0 0 0 2 4.2c2.1 2.5 1.6 4-1.6 4-2.5 0-3.1-.6-4.1-3.7zm-117-7.3c-1.3-.8-1.2-1 .7-1 1.2 0 2.2.4 2.2 1 0 1.2-1 1.2-3 0zm38.1-4c-1-.6-1.1-2-.5-5.7.4-2.6.6-5.6.5-6.5-.1-1 .2-2 .7-2.2 1.8-1.2 4 3 4.6 9.1.6 6 .6 6.3-1.6 6.2-1.3 0-3-.4-3.7-.8zm79.3-11.6c-.4-1.4-1.7-3-3-3.5-2.2-.8-2.2-1-.8-3.9 2.6-5.2 5.4-3.7 7.8 4.3 1.5 4.9 1.3 5.7-1.5 5.7-1.1 0-2.1-1-2.5-2.6zm7.8-4.6c.2-4 .7-5.3 1.8-5.3 1.2 0 1.5 1.2 1.5 5 0 4-.3 5-1.8 5.3-1.6.3-1.8-.3-1.5-5zm-89.8-2.9c-1-1.7.4-5.7 2.2-6.4 2-.7 6.4 3 6.4 5.6 0 1.5-.8 1.9-4 1.9-2.2 0-4.2-.5-4.6-1.1zm73.6-10.4c0-4.6 5.7-9.9 7.9-7.2 1.4 1.7 2.4 6.3 1.7 7.6-.5.6-1.5.7-3.3 0-1.8-.7-3-.7-3.7 0-1.4 1.5-2.6 1.3-2.6-.4zm-72.6-2.8c-.9-2.4 0-15 1-15.4 2.7-.8 3.4 1.3 2.7 8.6-.6 7-2.4 10.2-3.7 6.8zm89.9-8c-1.8-2.2-3.3-11-2-12.5 2.3-2.8 5.4 2.7 6 10.7.2 2.8-2.3 4-4 1.8zm-14.3-6.3c0-1.8 2.2-1.5 2.8.4.2.6-.3 1.2-1.2 1.2-.9 0-1.6-.8-1.6-1.6zm-74.5-7.7c-2.7-8.8-2.5-18.7.4-18.7 1.8 0 2.4 2.4 2.7 11.1.2 7.2 0 8.9-1.2 8.9-.9 0-1.7-.6-1.9-1.3zm79-.7c-1-1.1-2.4-2-3-2-2.3 0-2.7-2-1-4.7 1.6-2.5 1.6-3-.6-9.7-2.4-7.6-2.6-11-1.7-27.3.7-10.7 1-12.3 3.3-12.3 1.6 0 2.2 2.5 2.4 12 .3 8.3.5 9 3 9 3 0 4.7 3 7.6 12.5l3.8 12.6c1.3 4.2.5 6.9-2.1 6.9-1.5 0-2.3-1.6-4-7.3a215.6 215.6 0 0 1-4.7-19.5c-.2-.2-1.4 0-2.8.3-3.8 1-4 3.5-1.2 10.6 5.8 14.1 6.4 24.8 1 18.9zm-56.5-7.5c0-3.2.4-4.5 1.4-4.5 1.8 0 2.7 3.6 1.5 6.6-1.4 3.8-3 2.7-3-2.1zm-2.1-14.2c-.9-1-1.4-4.4-1.4-9.7 0-7 .2-8.1 1.8-8.5 1.5-.3 1.8.4 1.6 5-.1 3 .1 7.5.6 10.1.7 5-.2 6-2.6 3.1zm-20-5.3c-1.5-3-1.6-14.1 0-18 1.2-2.9 1.2-4-.5-8.7-1.6-4.7-1.7-6.1-.6-10 1-3.6.9-5.5-.4-10.7a23.1 23.1 0 0 1-.3-13.3c1.3-6.5 1.5-6.8 4-6.7 2.3.2 2.8-.3 3.4-2.7 1-5 4.2-10.7 5-8.9.2.8.4 2.6.2 4-.2 2.1.1 2.4 2.5 2.1 2.2-.2 3 .3 3.9 2.5l1.1 2.9 1.1-2.5c2-4.2 2.7-5 4.2-4.4 2 .8 1.9 3.8-.1 5.4-1.2 1-1.4 2.3-1 4.9 2 12.2 1.4 19.8-1.7 18.8-.9-.3-1.1-2.7-.9-8.4.4-9-.9-11.5-4.4-9-1.4 1-2.4 1.2-4.2.4-1.8-.8-2.6-.7-3.5.4a20 20 0 0 1-4 3.2c-3.4 2.1-3.6 5.8-.6 12.7 2.2 5 3.9 5.7 3.9 1.4 0-1.3.4-2.4 1-2.4a6 6 0 0 0 1.6-.3c.4-.1.8 3 1 7 .3 7.8.2 8-6 7.3-2-.2-2 .4.4 12.8 1 5.6 1 6.4-.6 8.2-1.4 1.6-1.6 3-1.1 8 .5 4.8.3 6-.8 6-.8 0-2-1-2.5-2zm92.3-5.2c-.6-.7-1.2-1.8-1.2-2.4 0-.6-.8-2.2-1.8-3.6-1.3-1.7-1.9-4.3-2-9.3-.2-8 .4-10.5 2.4-10.5 1.8 0 1.8-.3-.7-5.8-2.7-6-4-25.2-1.7-25.2 1.8 0 3.8 2 3.8 3.8 0 .8 1.1 3 2.5 4.7 2.9 3.8 3.3 7.6 1 9.5-1.8 1.5-1.2 5.4 1.2 8.2 1.3 1.4 1.4 2 .3 3.2-.7.9-1.8 1.6-2.6 1.6-2 0-.7 10.5 1.8 15 2.4 4.1 2.8 9.7.8 11-2 1.2-2.3 1.2-3.8-.2zm-83.6-5.6c-.8-6.8 1-13.5 3.8-14 1.6-.4 1.7.1 1.2 4-.4 2.3-1 6.8-1.3 10-.8 7.7-2.9 7.7-3.7 0zm10-11.8c-.8-2 .3-8.4 1.4-8.4 1.3 0 1.7 1.1 2.1 5.4.3 3.1 0 4.1-1.3 4.3a2 2 0 0 1-2.2-1.3zm54-9.8c-2.2-1.5-3.3-12-1.7-15.9 1.3-3.3 5.5-3.8 7-.8 1.7 3 1.4 8-.4 8-1.1 0-1.5 1.2-1.5 4.5 0 5-.9 6-3.4 4.2zm-59.7-6.9-.4-5.6c-.4-4.5-.2-5.2 1.3-5 2.4.5 3 10.9.7 10.9-.8 0-1.6-.2-1.6-.3zm62.6-14.4c-1.3-1.3-1.6-3-1.2-7.3.2-3 0-6.9-.5-8.5-2.4-8-1.7-14.5 1.7-14.5 2.5 0 2.5-1.7 0-7.2-2.4-5.2-2.4-5.5-1-13.3.7-4.4 1.1-8.4.8-8.8s.5-2 1.7-3.2a15 15 0 0 0 2.8-7.2c.5-3.2 1.3-5 2.3-5.1 1.3-.3 1.7 1 2.2 6.9.7 8 .5 8.9-2.3 8.9-1.6 0-1.9 1.1-2.5 9.5-.6 7.5-.4 10.1.8 12.7 4.5 9.6 4.1 15.8-1 15.8-2.3 0-2.5.2-1.8 2.7a94 94 0 0 1 1.7 19c-.6 1.7-1.7 1.6-3.7-.4zm18.4-7.4c-4.4-2.5-8.4-21-4.7-21.7 2-.4 6.8 8.7 6.8 12.8 0 1.4.5 3 1.1 3.6 1.3 1.3.9 5.6-.6 6-.5.2-1.7-.1-2.6-.7zm-85.6-22.4c-.5-1.3.4-3.3 5-12a22 22 0 0 0 1.2-7c.2-6.8 1.2-9.5 3.4-9.5s3 2.5 2 6c-.4 1.3-.8 4.2-.8 6.3a31 31 0 0 1-6.5 14.9c-2.3 3-3.4 3.5-4.3 1.3zm85.4-1.3c-.8-1-2.1-4.2-2.9-7.2-1.1-4.4-1.9-5.6-3.8-6-1.8-.5-2.6-1.6-3.2-4-1.3-6.4 1-8.2 3.7-3 1.1 2 2.3 3 4 3 1.5 0 2.7.5 3 1.2.8 3.4 3.8 13.4 4.2 14.4.3.7-.4 1.7-1.5 2.3-1.5.8-2.3.6-3.5-.7zM625.4 96c-.2-9 0-10 1.6-10 1.8 0 4.2 6.4 4.2 11.5 0 2.3-3.6 8.5-5 8.5a52 52 0 0 1-.8-10zm70-17.2c-1.4-1.5-1.5-7.7-.2-9.8 1.5-2.3 2.8-.2 3.6 5.7.5 4.2.4 5.3-.7 5.3a5 5 0 0 1-2.7-1.2zm-71.8-9c-.8-2.5 2.1-10.4 4.1-11.2.8-.3 1.5-1.7 1.5-3.2 0-5.7 4.7-8.8 7-4.5 1.5 2.8 1.2 7.6-.5 9-.8.7-1.5 2.5-1.5 4 0 6.4-8.9 11.3-10.6 6zm60.8-17c-1.3-1.4-1.6-4.1-.5-5.2 1.8-1.8 3.3-8.9 3.3-15.6 0-10 1.4-12.5 6.6-12.5 3.7 0 4 .1 4.2 3.2.3 2.7 0 3.4-2.2 4.2a6 6 0 0 0-3.3 3.8c-.9 3.3-.8 11.3.2 16.4.5 2.6.3 4-1 5.2-2 2-5.6 2.2-7.3.5zm9-42a25.5 25.5 0 0 1-4.2-9.3c0-2 4.4-2 8.1.2 3.5 2 3.7 4 .9 7.6-2.4 3-3.3 3.2-4.7 1.4z"/>
</svg>
