<?xml version="1.0" encoding="utf-8"?>
<svg xmlns="http://www.w3.org/2000/svg" version="1.1" viewBox="0 0 1159 574">
	<title>Sketch of a view of rolling hills with a small structure in standing up in the low center. A large hill rises from the plain further in the distance.</title>
	<path d="M637 571.5c-2.7-3.5-2.3-5.5 1.3-6.5a13 13 0 0 0 4.7-2.4c2.9-2.6 15.2-6.4 17.2-5.3 1 .5 1.8 1.4 1.8 1.9s.9 1 2 1c3.4 0 3 1.6-1.5 6.5-4.2 4.6-4.5 4.7-8.7 4-3.3-.4-5.3-.1-8.5 1.4-5.4 2.6-5.7 2.6-8.3-.6zm78.2-.4c-2.5-1-3-3.4-.8-4.3 1.9-.7 10.9 1.7 11.3 3 .7 2.1-6.4 3-10.5 1.3zm-174.2-1c-4.3-.3-7.7-1.3-10-2.7-2-1.2-4.3-2.2-5.3-2.2s-2.6-.6-3.6-1.2c-1.6-1-2.4-.7-5.2 1.6-2.5 2-3.9 2.6-5.8 2-6.5-1.5-8.4-1.6-12.2 0-3.2 1.2-4.5 1.4-5.5.5-3.2-2.7-.9-7 3.8-7a40 40 0 0 0 9.5-2.5 60 60 0 0 1 14.4-3.1c7.2-.6 7.7-.5 8.9 1.6.6 1.2 3.5 3.3 6.3 4.7l7.7 3.8c1.8 1 4.1 1.1 8.5.5 3.3-.4 10.3-.8 15.5-.9 5.3 0 10-.4 10.5-.9a92 92 0 0 1 16.8-.4c13.9.4 15.7.7 15.5 2.1-.3 1.4-3 1.9-15.3 3a471 471 0 0 1-54.5 1zm125.2-.2c-1.2-.6-2.2-1.7-2.2-2.5 0-1.1 1-1.3 5.2-.7 6.2.8 6.8 1 6.8 3 0 1.8-6.3 1.9-9.8.2zm27-1.5c-7.2-.2-9.2-.6-9.2-1.8 0-1.4.9-1.7 7.9-2.9 3-.5 15.9 1 17 2 1 1-2.4 3.4-4.3 3.3a198 198 0 0 0-11.4-.6zm-381.7-7.2c-.7-1.2 1.6-2.4 4-1.9.9.2 1.6.8 1.6 1.4 0 1.3-4.8 1.8-5.6.5zm22 0c-.8-1.3 2-2.5 3.5-1.6.5.4.8 1.1.4 1.6-.7 1.3-3.1 1.2-4 0zm236.2.2c-11.2-.5-7.7-2.2 4.5-2.3 6.4 0 14-.6 17.3-1.4 8-2 18.5-2 18.5-.2 0 2.2-24.7 4.5-40.3 3.9zm-215-1c-.4-.3-.7-1.4-.7-2.5 0-1-.9-2.2-2-2.4-2.7-.8-1.4-3.2 2.7-4.9 4.6-1.9 5-1.8 6.3.5 2 3.7-3.7 12-6.3 9.4zm46.9-4.6c-2.6-1.8-1.3-4 1.5-2.6 1.4.8 7.3.7 20.2 0l19.6-1.4c.8 0 1.7.6 1.8 1.4.3 1.4-1.2 1.8-10 2.4-23.9 1.6-31.1 1.7-33.1.2zm217-.6c-.9-1.3 2.3-2.9 11.3-5.7 9-2.8 10.4-2.9 12.5-.8 2 2 1.2 3.9-2 5.3-3 1.4-9.4 1.5-9.4.1s-5.1-1.1-8 .5c-3 1.8-3.7 1.8-4.5.6zm-276.7-1.8V551c.1-1.4-1-1.6-8-1.4a27 27 0 0 1-8.5-.6c-1-1.5 4.6-2.9 12-2.9 5.2 0 8.1-.5 10.8-2 3-1.6 3.8-1.7 4.8-.5.9 1.1.7 1.6-1 2.5-1.2.7-2 1.8-1.6 2.6.3.8-.7 2.2-2.4 3.4-2.8 2-6 2.7-6.1 1.3zm32.2-1.2c-2.7-1.6-.2-2.6 6.3-2.5 7 .2 9 1 6.6 2.5a24 24 0 0 1-12.9 0zm34.9-10c-2-.5-12.7-1-24-1.4-20.9-.6-23.5-1.1-21.4-4.4 1.7-2.7 7.8-2.8 12.7-.2 4 2 5 2.2 17.8 1.6a47 47 0 0 1 14.6.4c.5.6 7 1.2 14.4 1.4 16.2.4 14.9.3 14.9 1.8 0 1.4-23 2-29 .7zm68.5.2c-7-.4-10.3-1.6-7.2-2.8 2-.8 22.4 1.2 24.5 2.5 1.7 1-2 1-17.3.3zm116-.3a324.5 324.5 0 0 0-51-2.6c-10.4.3-20.1 0-23-.5l-10-1.9c-7.8-1.4-14.5-3.3-14.5-4.2 0-1.2 40.6 0 50.8 1.4 6.4 1 9.5 1 12.8 0 8-2.1 23.2-1.1 17.1 1.1-1 .4-1 .8 0 1.7.7.8 4.5 1.4 9.8 1.6 8.3.2 8.6.1 8.3-2-.2-1.6-1.3-2.2-4.8-2.8-7.4-1.1-10.5-2.3-10.8-4.1-.3-1.3.4-1.7 3.6-1.7 2.3 0 4.5.7 5.2 1.5 1.5 1.9 13.8 2.1 18.6.3 2.3-.8 4.5-.9 7.1-.2 2.7.7 6 .6 11.3-.4 8.2-1.4 50.5-2 63-.7 13 1.3 7.1 2.7-13 3-10.7.3-26 1-34 1.5s-16.4 1-18.7 1c-2.3 0-4.4.4-4.8 1-.3.4-4.6 1.4-9.7 2.1-7.4 1-8.7 1.4-6.7 2.2 1.3.5 5.8.8 9.9.7 9.5-.3 10.6-.2 9.4 1a99 99 0 0 1-26 1zm52-12c-.4-.5-1.5-1-2.5-1s-2.2.5-2.5 1c-.4.6.7 1 2.5 1s2.9-.4 2.5-1zm9.2 9.1c-2.6-.4-5.3-1.3-6-2-1-1-.8-1.2 1.1-.6 1.3.4 10 .9 19.5 1 20.4.4 19 .3 18.2 1.5-.7 1.1-25 1.2-32.8.1zm-193.5-2.3c-1.8-1.7-1.5-4.6.6-5.7 2.9-1.5 4.6.2 3.5 3.5-1 3.2-2.4 4-4.1 2.2zm293.3.4c-6.7-.3-9.3-1.7-5-2.7a65 65 0 0 1 21 1.6c.5.6.5 1 0 1-2.3.4-10.5.4-16 .1zm-407-1c-.3-.3-5-.7-10-.7-10.1 0-12.8-1.4-5.3-2.8 7.1-1.3 19.7.6 20.5 3.1.5 1.3-3.9 1.7-5.1.5zm94.5-1.6c0-2 4.8-5.6 7.7-5.6 3.4 0 4.1 3 1.3 5.2-2.7 2.2-9 2.5-9 .4zm46-2.6-4.4-1.9c-2.4-1-2.7-1.5-2.2-3.9l1.8-8c1.2-5.4 3.8-7.3 3.8-2.7 0 3 1.4 4 3 2 3.4-4 4.1 1.3 1 7.7-1.8 3.8-1.8 4.2-.3 5.3 1.3 1 1.3 1.3.2 1.7-.8.3-2 .2-3-.2zm-162-2.5a9 9 0 0 1 1.6-4c2.2-3.3 1-3.2-9.3 1-5.5 2.4-9 3.3-9.6 2.7-.6-.6 0-1.5 1.4-2.5a77 77 0 0 1 21.6-6.7c3 0 3.3.3 3.3 3 0 2.4-.8 3.5-4 5.5-4.6 3-5 3-5 1zm210.3 0c.2-.5 2.6-1.3 5.3-1.6 6.1-.8 25.8.2 24.7 1.2a127 127 0 0 1-30 .4zm202.5-2.6c-7.6-.8-13.1-3.2-12.4-5.4.2-.5 2-.9 3.9-.7 2 .2 3.8-.2 4.2-.8.3-.5 1.5-1 2.5-1 2.4 0 3.7-2 2-3-2-1.2-.4-2.7 4.6-4 5.2-1.2 9.6-.6 11.5 1.6 1 1.2.7 1.4-1.4 1.4-1.4 0-2.9.5-3.2 1-.3.6-1.7 1-3 1-1.5 0-2.6.8-3 2-.3 1.1-1.3 2-2 2-2.6 0-1.6 2 1.3 2.6 7.5 1.7 8.6 2.1 9 3.2.4 1.4-2.1 1.4-14 .1zm-458.3-1a93 93 0 0 0-15.4-1.4c-6.8-.2-12.6-.7-13-1-.3-.4.3-1.3 1.4-2.2 1.5-1 3.5-1.3 7.5-1 5.4.6 5.8.5 12.3-4a40 40 0 0 0 6.7-5.4c0-.4-1-1-2.3-1.4-2.1-.7-2-.8.8-1.5 7.2-1.8 13.9-.2 8 2-1.6.6-2.5 1.7-2.5 3.1 0 2.2.1 2.2 7 .7.8-.2 1.5.4 1.5 1.1 0 1-1.8 2-4.5 2.6-10.3 2.7-11.3 5.4-2.2 6.3 5 .5 7.9-1.1 5.1-2.8-.7-.5-1-1.2-.6-1.6.9-1 4.7 2.5 4.7 4.3a2 2 0 0 1-1.3 1.8c-3.4 1-10.5 1.3-13.2.4zm-49-.5-3.8-.8c-2.7-.6-3.7-3-1.5-3.8.7-.3 3 0 5.3.3 2.2.4 5.8.5 8.1.2 4-.5 6.7 1 4.8 2.7-.9.8-11 1.9-13 1.4zm349.5-.7c0-1 1.7-1.6 4.7-2 5.9-.9 6.5-.2 1.8 1.8-4.6 1.9-6.5 2-6.5.2zm63.3.3c-2.8-1.1-4.2-5.9-2.1-7.4.8-.6 1.7-1.9 2-2.8.6-1.4 2-1.8 6.8-1.8 5.6 0 7.5 1 4.8 2.6-.6.4-2.8.7-5 .6-3.4-.2-3.8 0-3.8 2.2 0 1.3 1 3 2.2 3.8 4 2.7.2 4.9-5 2.8zm-297.8-3c-.8-1.2 1.7-2.3 4.1-1.8 1 .2 2 .9 2.1 1.6.6 1.5-5.3 1.7-6.2.2zm132.2.4a37 37 0 0 1-.8-14.3c.5-.8 1.6-1.1 2.5-.8 1.3.5 1.4 1.8 1 7.4-.6 6.5-1.6 9.4-2.7 7.7zm142-.4c-2-1.3-2.3-5-.3-5 .7 0 1.9.7 2.6 1.5.6.8 2.8 1.5 4.8 1.7 2 .2 3.7.8 3.7 1.3 0 1.4-8.6 1.7-10.7.5zm95 .4c-1.3-1.3-.7-2.4 1.4-2.4 1.1 0 1.9.5 1.7 1.2-.5 1.5-2.2 2.1-3.1 1.2zM810 519c-2.3-.9-2.3-1-.8-2.6 1.5-1.5 2.3-1.6 6.3-.5 4.3 1.2 4.7 1.1 7.6-1.3 3.3-2.8 5.7-3.1 9.6-1.1a55 55 0 0 0 25.5 1.1c4.3-1.7 13.5-2 19.2-.4 2.1.6 6.8 1.4 10.4 1.8 3.8.3 6.6 1.1 6.9 1.9.5 1.7-8 1.6-18.3-.3-10.6-2-15-1.9-17 .2-1.5 1.5-3.5 1.7-12.4 1.5-6.6-.2-12.3-.9-15.2-1.9-4.5-1.5-4.7-1.5-6.8.6-1.6 1.6-3.3 2.1-7.3 2a28 28 0 0 1-7.7-1zm-279.1-.8a54 54 0 0 0-10.8-2c-8-1-9.8-1-12.4.4-3.3 1.6-6.8 2-6.8.7a21 21 0 0 1 5.9-4c6.8-3.7 13.5-4.2 23.6-1.6 10 2.6 15.5 3.4 17.8 2.5a117 117 0 0 1 9.9-2.7c6.2-1.4 8.2-1.5 10.3-.6a67 67 0 0 0 12.6 2.4c5.4.6 9.9 1.5 9.9 2 0 .7-2.9.8-7.7.3-4.3-.4-8.2-.7-8.8-.6-3.5.5-13.5.9-11.5.5 4.6-1 4.6-2.4-.1-2.4-5 0-6.4.7-4.8 2.6.8 1 0 1.4-3.3 1.8-8.6 1-22.4 1.4-23.8.7zm-4.3-4.7c-.3-.3-1.2-.4-1.9 0-.8.2-.5.5.6.5 1 0 1.7-.2 1.3-.5zm418.8 4.6c-.3-.5-1.7-1-3-1s-2.6-.4-3-1c-.3-.5-3-.7-6.5-.3-6.5.6-14.5-1-17.2-3.4-1.2-1.1-2.8-1.4-5.5-1-2 .4-6.5 0-9.8-.8a64 64 0 0 0-10-1.5c-6.9 0-28.5-6.5-28.5-8.5 0-1-8.6-3.5-11.8-3.5-.8 0-4.7-1.6-8.8-3.6-7.2-3.5-8-3.6-20.7-4a65 65 0 0 1-17-2 54 54 0 0 0-17-1.5c-12.9 0-13.4 0-21.7 3.5-4.7 2-11.2 5-14.4 6.6-5.3 2.6-6.3 2.8-8 1.6-1.2-.7-3.6-1.6-5.3-2l-6.4-1.2c-1.9-.4-3.3-1.4-3.6-2.5-.6-2.3-2.3-2.5-2.3-.4 0 1.7-1.6 2-2.5.5a57 57 0 0 1 .4-21.4c1.4-1.7 7.6-2.2 8.5-.8.3.5.2 4.6-.2 9.1s-.4 8.4 0 8.7c.4.3.8-.2.8-1s1.1-2.2 2.5-2.8a6.6 6.6 0 0 0 3.3-4.2c1.2-4.4 4-4.7 4.4-.5l.3 3.3 21.8-.3c12 0 23-.6 24.3-1.2a20.4 20.4 0 0 1 16.2 1.7c4.1 2.3 5.8 2.6 16.7 2.8 8.8.1 13 .6 15.5 1.9a487 487 0 0 0 30 11c8.1 2.8 13.2 3.6 15.7 2.4 1.8-.8 3.7-.5 9.3 1.7 5.2 2 8 2.6 10.5 2.2 2.7-.5 3.6-.3 4.4 1.2.8 1.5 2.6 2 9.3 2.6 20.2 1.6 24.7 2.3 26.3 4a7 7 0 0 0 4.3 1.6c3.6 0 5.6 1.5 4.9 3.4-.7 1.8-5.2 2.2-6.2.6zm-198-29.2c3.5-1.6 3.1-2.8-1-2.8-3.3 0-4.6 1.5-2.8 3.3.8.9.8.9 3.8-.5zm19.8 26.5c-2.8-.5-3-2.4-.5-4.6 2.5-2.3 4-2.1 4.7.4.7 2 1.2 2.1 15.3 1.8 12.4-.3 14.7-.2 15 1.1.2 1.3-2.1 1.5-16 1.7-9 0-17.3-.1-18.5-.4zM408.5 514c-2.2-.5-9.8-1.1-17-1.3l-14.2-.5c-.7 0-1.3-.6-1.3-1.2 0-.7 4.7-.9 15.8-.5 43.8 1.7 48.2 1.8 48.2.7 0-.5-.5-2.2-1.2-3.6-1.4-3-4-2.8-8.9.7-2.1 1.6-3.2 1.9-4 1-2.1-2 0-6 5.8-10.3l6.8-5.1c.5-.5-10.8-.8-25.3-.7-14.5 0-26.6-.1-26.9-.4-1-1.1 1-2.9 2.7-2.4 1 .2 2.4 0 3.1-.4 1-.7.8-.9-.8-.9-2.7 0-5.3-1-5.3-2a93.8 93.8 0 0 1 29.8 1.5c15.4 1 25.8 2.1 27 2.8.7.5 3.2-.3 6.2-2 5.2-3 8-2.4 4.1.8-3.2 2.6-2 3.4 2.4 1.8 2.8-1 4-1 5.5-.1 1.5 1 4.2 1 11.6.1a46 46 0 0 1 11.3-.3c.9.4 6.5 1 12.5 1.3 13.7.7 15.2 2.5 3 3.5-5.4.4-9.2.2-10.5-.5-1.4-.7-8.4-.9-21.3-.5-16 .4-19.8.8-22.4 2.3-3.8 2.1-4 3.3-.9 3.3 2.6 0 12.8 5.2 14.7 7.5.8 1 3.1 1.5 6.6 1.5 3.9 0 5.4.4 5.4 1.4 0 1-3 1.5-12.7 2a375.7 375.7 0 0 1-49.8.5zm43.4-4.5c.8-.7-1.2-2.4-3-2.4-1.2 0-1.9.7-1.9 2 0 1.8.4 2 2.3 1.4 1.2-.3 2.4-.8 2.6-1zm255.8 5c-1.9-1.9-.4-3 3.8-3 4.7 0 5.3.4 3.3 2.4-1.3 1.3-6 1.6-7.1.5zM325 513c0-.5.5-.7 1-.4.6.3 1 .8 1 1s-.4.5-1 .5a1 1 0 0 1-1-1zm282-.8c-2.3-.7-2.5-1.2-2.3-5.4.2-3.5 0-4.7-1-4.7-.9 0-1.7.6-2 1.4-.3.7-2.6 1.6-5.2 1.8-2.9.4-5.1 1.3-6 2.4-1 1.5-1.6 1.6-2.6.7-1-1-.8-1.8.6-3.9 3.2-4.9 1.8-5.2-28.2-6-15-.4-27.3-1-27.3-1.6 0-.5 13.2-.8 29.8-.7 25.4.1 30 .4 31.5 1.7 1.4 1.3 3.9 1.5 11.8 1.4 5.5-.2 11.1-.7 12.5-1.2 3.4-1.3 11.4-1.3 11.4 0 0 .6-.7 1.3-1.5 1.6-2.4 1-1.7 2.4 1.2 2.4 2.6 0 2.6 0 1 1.7-1.7 1.7-2 1.7-8.2-.5-3.5-1.2-6.8-2.2-7.3-2.2s-2 1.8-3 4c-2.5 4.7-1 5.6 2.6 1.5 2.5-2.8 3.7-3.1 4.5-1.2.7 1.8 0 2.8-4 5.5-3.3 2.3-4.2 2.5-8.3 1.3zm-235.3-3.8c-1.4-1.3-.6-4.4 1.2-5 1.1-.5 3-2.4 4.3-4.3 2.6-3.8 4-4 9.8-2 5.5 2 6.5 2.6 6.9 4.5.2 1.5-.1 1.7-2 1a39 39 0 0 0-6.5-1c-3.9-.4-4.2-.2-4.7 2.3-.4 2-1.5 3.1-4 4-3.9 1.4-4.1 1.4-5 .5zm371.3-2.7c0-1 2.8-1.3 4.1-.5 1 .6.7.9-1.3.9-1.6 0-2.8-.2-2.8-.4zm-335.8-3.2c.5-2.7 8-5 11.4-3.5 3.4 1.5 2.3 2.7-2.8 3.4-2.4.3-5.4.9-6.7 1.3-1.9.6-2.2.4-2-1.2zm-106.5-2c-1.4-1.4-.6-2.4 1.8-2.4 2.8 0 3.4 1.5 1 2.4-2 .7-2 .7-2.8 0zm408.3-.8c0-.8.4-1.7.9-2 1-.6.7-19-.3-22.3-1-3 1-4 3.5-1.8 1.6 1.5 2 3.1 2 9.2 0 5.6.3 7.5 1.4 8 2.4.8 1.8 3.8-1.4 7.2-3 3.3-6 4-6 1.7zM289.8 498c-1.5-2.4-3.1-2.6-4.8-.5-.8 1-2 1.3-3.4.9a76 76 0 0 0-10.5-1.3c-5.8-.4-8.6-1-8.9-2-.3-1 1.4-1.3 9-1l9.3.3 5-4.7c5.6-5.2 5.4-6.2-1.8-9.2-4.2-1.7-4.4-1.5-2 2 1.4 2.3 1.4 2.7-.2 5-1.3 2.1-2 2.4-3 1.4-1-.7-1.3-2-.9-3.4.4-1.8 0-2.7-1.6-3.5-1.2-.7-2.8-2.7-3.6-4.6-1.8-4.3-3.7-4.4-11.1-.4-3.3 1.8-6 2.6-6.5 2.1-1.4-1.3 6.8-6.9 11.3-7.7 2.2-.3 5.2-1.2 6.8-2 2.5-1.3 3.8-1 15.1 2.6a86 86 0 0 0 16.3 4c2.3 0 3.6.4 3.2 1-.8 1.2-11.8 1.3-13 0-1.2-1-12-4.2-15.5-4.4-3.8-.2-3.1 2.7.9 3.5a20 20 0 0 1 12.9 7.6c2.4 3.7 2 5.6-1.8 6.8-1.8.5-1.7.8.5 4.2 2.4 3.4 2.5 5.3.4 5.3-.5 0-1.4-.9-2.1-2zm358.2 1.3c-.8-.3-2.3-1.3-3.3-2.1-1.2-1-3.3-1.5-6.4-1.3-5.8.3-12.3-.8-12.3-2 0-1.3 16-1.1 24 .2 7.2 1.3 9.2 2.3 8.3 4.5-.5 1.4-7.1 1.9-10.3.7zm111.3-1.2c-1.3-2-.8-3.1 1.5-3.1.7 0 4.6-1.6 8.5-3.5 3.9-2 7.3-3.3 7.5-3 1.2 1.1-1 3.5-5 5.3-2.4 1-5.1 2.9-6.2 4-2.3 2.7-4.7 2.8-6.3.3zm-443.5-1c-1.4-.5-5.4-1.2-8.7-1.6-6-.7-8.9-2.4-7.6-4.5.9-1.4 2.6-1.3 4.4.4 1 .8 5.2 1.8 10.1 2.3 6.5.6 8.5 1.1 8.5 2.3 0 1.8-2.9 2.2-6.7 1zm-69.3-5.7c-12.3-2.4-20-4.9-20-6.4 0-2 3.9-2.5 6.7-.7A53.8 53.8 0 0 0 255 489c3.8 0 7.2.5 7.5 1 .4.6.5 1.3.3 1.4-1.3 1.1-10.5 1.1-16.3 0zm77.3-.1c-4.3-.2-7.8-.5-7.8-.7l1.5-3.9c1.7-4.2 4.4-5.6 5.2-2.7.6 2.1 5.8 3.6 9.4 2.7a119.5 119.5 0 0 0 26 1.4c13-.2 19 0 19.4.9.4.6.5 1.3.4 1.4-.7.5-46 1.2-54.2.9zm274.7-1.9c-.5-.8-3-1.8-5.2-2.1-2.5-.3-4.3-1.1-4.3-1.8 0-2 6-2.4 11-.8 5 1.7 18.5 1.2 20.4-.7.8-.9.2-1-2.5-.5s-4.4.2-6.3-1c-1.8-1.3-3.6-1.5-6.4-1-3 .4-4.9.1-7.7-1.4s-4.3-1.8-6.2-1c-1.3.5-2.8.9-3.4.9-1.6 0-1-2 1.1-3 2.3-1.3 24.5.3 26.4 1.8.6.5 4.8 1.3 9.4 1.7l8.2.7v2.9c0 3.2-1.2 3.5-5 1.4-3.5-2-5-1.8-4.7.6.2 2-.3 2.2-7.4 2.4-4.1.1-8.5.7-9.6 1.4-3 1.6-6.6 1.4-7.8-.5zm-332-1.3c-.7-1.3 6.6-5.5 7.7-4.3 1 1-1.8 3.7-4.9 4.6-1.2.4-2.4.2-2.7-.3zm395.5.2a23 23 0 0 1-6.7-1.5c-1.6-.8-3.3-.8-6.9.2-4.1 1.2-5 1.1-8-.5-4.9-2.6-4.6-6 .4-4.6 3.2.9 6.5-.3 10.9-4 3.5-3 8.2-4.4 11.3-3.4 3 1 8 8.3 8 11.6 0 2.4-.4 2.9-2.2 2.7l-6.8-.5zm-188-2.7c0-4.4 1-5.7 3.1-4.3 2.2 1.3 2.5 3.7.7 5.5-2 2-3.8 1.4-3.8-1.2zm-214.3.7c-2-2 2-7.3 5.4-7.3 3.3 0 3.6 3 .5 5.6-2.7 2.4-4.7 3-6 1.7zM98.5 484c-2.7-1-6.2-2-7.7-2-3 0-4.5-1.4-2.6-2.5.6-.4 5-.7 9.7-.7 6.8 0 8.7.4 9.8 1.8 1.5 2.2 0 5.5-2.5 5.4-1 0-4-1-6.7-2zm331 1.2c-.7-1.2 1.2-2.4 2.5-1.6 1.1.7.4 2.5-1 2.5-.5 0-1.1-.4-1.4-1zm117.4-.7c-.6-.8-3-1.4-5.3-1.4-5.1 0-8.6-1-8.6-2.3 0-.6 3.7-.8 9.8-.6 6 .2 9.7 0 9.7-.6s-1.6-.9-3.6-.7c-2.3.2-4-.3-4.8-1.3a4.8 4.8 0 0 0-3.3-1.5c-1.1 0-2.2-.9-2.5-2-.5-2.1-3-3.4-3.8-2-.9 1.4-8.8 2.2-11.7 1-2.6-.9-2.8-1.4-2.8-6.5s.2-5.5 2.4-5.5c2.2 0 5.6 2.7 5.6 4.5 0 .5 1.3 1 2.8 1l23.5 1.7c1.6.2 1.8-1.2 2.2-18.1.6-20.4 1.3-24.5 5-28.8a37 37 0 0 0 4.1-5.7 27 27 0 0 1 4.7-5.8c2.8-2.5 3.7-2.8 7.2-2.3 2.2.3 5 1.3 6.4 2.1 2.7 1.7 8.2 1 10.1-1.2 1.6-2 4.4-1.9 6 0 3.7 4.5-6 7.4-18.2 5.4-3.7-.6-7.1-.8-7.7-.4-.6.3-.1 2.3 1.2 5 1.8 3.6 2.6 4.4 4.2 4 9.7-2.4 18.5-1.2 18.5 2.5 0 1.8-.8 2-9.2 2.2l-9.3.3.1 4c0 2.2.9 7.6 1.8 11.9 2 9.6 2.1 22.4.2 25-1 1.3-1.2 2.7-.5 5 1.6 5.4 1.1 8.3-1.4 9.4-2.7 1.3-3.6.8-6-3-1-1.5-2.4-2.7-3.2-2.7-2 0-2 4.9 0 5.6.8.3 1.5 1.2 1.5 1.9 0 1.5-2.8 1-7-1.2-3.2-1.7-5.5-1.7-7.2 0-2 2-9.5 2.8-10.9 1zM530 470c0-.6-.4-1-1-1s-1 .4-1 1c0 .5.5 1 1 1s1-.5 1-1zm163.5 14.4c-16.6-4-23.5-6.9-23.5-9.7 0-2.7 5.2-2.2 12 1.3a20 20 0 0 0 10.4 2.8c2.7 0 5.5.5 7 1.5 1.4 1 3.5 1.7 4.7 1.7 1.4 0 2 .5 1.7 1.7-.4 2.3-4.6 2.5-12.3.7zm-488.7-3.1c-4.3-.3-5.8-.8-5.8-1.9 0-2 1-2.2 11.2-2.7 6.3-.4 8.8-.2 9.1.7 1.3 3.2-3.8 4.6-14.5 3.9zm229.4-1.5c.2-1.3 1-2.3 1.8-2.3 2.2 0 1.9 3.9-.3 4.3-1.4.3-1.8-.2-1.5-2zm53.8 0c0-2.2 2.3-4.3 7.4-7.3 2.7-1.6 4.4-3.1 3.7-3.3-.7-.3-3.7 1.2-6.7 3.2-4.7 3.1-5.7 3.4-7.4 2.3-2.6-1.6-2.5-3.1.2-5 1.2-.8 1.8-1.9 1.4-2.6-1.2-2-3.3-1.3-4 1.4a4.3 4.3 0 0 1-3.3 3.1c-3.2.8-18-2.7-23.8-5.6-2.1-1.1-4.9-2-6.1-2-2.6 0-3.8-2.4-2-4 .9-.7 2.4-.7 4.7 0 1.9.5 5.7 1 8.6 1s5.4.4 5.8.9c.3.5 2.1 1.4 4 2 3 1 4.2 1 7.8-.7 11.4-5.3 13.9-6.2 16.1-6.2 1.4 0 2.8-.5 3.2-1.2.8-1.3 9-.6 10.6 1 1.5 1.4 0 3.2-2.6 3.2-1.2 0-3.2 1-4.4 2.5-1.2 1.3-1.8 2.5-1.2 2.5.5 0 1.2-.5 1.5-1 1.3-2.2 3.5-1 3.5 2 0 2.1-.9 3.5-3.5 5.5a13.8 13.8 0 0 0-4 4.3c-.5 1.8-5.8 5.2-8 5.2-.9 0-1.5-.6-1.5-1.3zm-372.5-1.5c-1.6-1.6-1.6-1.8.1-3 3-2.2 8.6-3.3 12.5-2.4 3.7.8 10 .3 10-.8 0-.4-1-1.4-2-2.4-2.9-2.4-1.8-4.1 4.1-6.2 5-1.8 5.1-2 3-3.3-3-2-2.8-5 .3-6.4 1.4-.7 2.5-1.5 2.5-2s-1.2 0-2.7.7c-1.6.8-3.8 1.4-5.1 1.4-4.3 0-2-3.1 6-8 9.5-5.6 9.8-5.9 7-6.6-2.7-.7-2.9-3-.2-3.7 1.1-.2 2-1.2 2-2 0-1.3-.6-1.6-2.3-1.1-1.6.4-2.9-.1-4.1-1.5-2.2-2.4-3.6-2.7-3.6-.6 0 2-3.6 2-4.4 0a27 27 0 0 1-.6-6c0-3.4.5-4.8 2.3-6.2a12 12 0 0 0 3.4-4.8c.6-1.9 1.8-3.1 3.1-3.3 2.1-.3 2.2 0 2.2 7.5 0 7.1.2 7.6 1.5 5.9.8-1 1.5-2.8 1.5-3.7 0-2.4 3-3.9 5.6-2.9 2 .8 2 1.4 1.8 11.7-.2 6-.6 12.2-1 13.8l-.5 3 1.6-2.7c1.7-3 2.7-3.4 4.3-1.5 1.3 1.5.6 15.2-.9 17.9-1.5 2.8-1 3.9 1.5 3.9 3.6 0 4.6 3.8 1.6 6.2a15 15 0 0 1-4.9 2.4l-4.9 1.4c-1.3.6-4.3 1-6.7 1a16 16 0 0 0-7.7 2c-2.9 1.7-4.3 2-11.4 1.4-6.6-.6-8.5-.4-10.6 1-2.4 1.6-2.7 1.5-4.3 0zm39-12.3c-.3-.6-1.6-1-2.8-1-1.8 0-2 .2-.7 1 2 1.2 4.3 1.2 3.5 0zM363 478c0-.5 1-1.6 2.2-2.4 1.2-.9 2-1.9 1.6-2.2-1.1-1-15.2 1.6-17 3.2-1.7 1.6-4.8 1.3-4.8-.5 0-.5.9-2 1.9-3.2 1.6-2 2.8-2.4 8-2.4 4.4 0 6.5-.5 7.1-1.5 1.7-2.6 1.1-3.9-2-4.5-1.7-.4-3-1.2-2.7-1.9.6-2 6.6-2 18.5 0 10.6 1.7 11.5 1.7 14.5 0a40 40 0 0 1 8.5-2.7c3.3-.7 5.8-1.9 6.5-3 .7-1 1.7-2 2.4-2 1.3 0 3.7 6.6 2.9 8a54 54 0 0 1-7.8 5.1c-4 2.4-9 5.6-11 7.2-2.4 1.8-4.5 2.7-5.5 2.3-1.4-.5-1.3-.9.6-3 1.2-1.2 4.2-3.3 6.7-4.6 4.6-2.4 6-4.5 2.2-3.4-1.3.3-4.5 1.8-7.2 3.1-5 2.6-8 2.6-7-.1.8-2-1-2-2.6 0-1 1.2-1 1.5.4 1.5 2.3 0 2 1-1 4.2-3 3-5 3.5-5.6 1.5-.4-1-1.4-.8-4.2.5-4.1 2-5.6 2.2-5.6.8zm14-10.4c.8-1 .7-1.5-.6-2-3.8-1.5-7.4 0-5.9 2.4 1 1.4 5 1.2 6.4-.4zm248 8.7c-.6-1.5-1.2-5-1.3-7.7-.1-4 .2-5.1 1.4-5.4 2-.4 2.9 2.4 2.9 9.5 0 5.9-1.5 7.7-3 3.6zm-394.7-3c-.3-1-1.5-2.8-2.6-4-1.4-1.7-2-3.6-1.9-7.5 0-6.7 1.4-10.3 4.7-12.4 2.1-1.4 2.8-1.5 4.1-.3 1.5 1.2 1.6 1 1-2a7 7 0 0 1 1-5.9c1.3-2 1.7-4.7 1.7-11.2 0-9.8.7-12 4.4-12 2.3 0 2.5.2 1.8 2.7-1.3 4.8-1.3 12.7.1 14.9a9 9 0 0 1 .7 5.7c-.4 2.8-.2 3.6.9 3.6 2.8 0 3.8-2.4 3.8-9.2 0-7.4 1.1-10.8 3.7-10.8 1.3 0 1.5.8 1 4.7-.4 2.5-.7 6.7-.7 9.3 0 4.8-.6 6-6.2 11-2.3 2-3 2.1-4.3 1-1.2-1-1.8-1-3 0-.8.7-1.5 2-1.5 2.7 0 .8-1 1.8-2.4 2.3a6 6 0 0 0-3.1 3.2c-.4 1.3-1.4 3-2.1 4-1.2 1.3-1 1.7 1.1 2.7 2.7 1.2 3.2 4 1.5 7.2-1.3 2.4-2.9 2.5-3.7.2zm177 0c.9-1 4.7-3.4 8.6-5.3 3.9-2 7.2-4.1 7.5-4.8.6-1.3-8 2.7-12.5 5.9-2.9 2-5.9 2.5-5.9 1 0-.6 2.4-2.4 5.3-4.2 6-3.7 7.2-5 5.2-6.2-.8-.5-1.5-1.5-1.5-2.2 0-5.1 14-2.7 19.4 3.4a7 7 0 0 0 4.5 2c3.9.1 5 1.2 4.9 5-.1 3.6-2.3 7-4.5 7-2.1 0-1.5-3.7 1-5.4 2-1.5 2-1.5-2.2-1.5-3.1 0-5.3.7-7.7 2.5-3 2.3-6.4 3.3-6.4 1.8 0-.4 1-1.7 2.2-3 3-3.2 1.6-4-2.4-1.5a51.9 51.9 0 0 1-15.1 7.2c-1.8 0-1.9-.2-.4-1.8zM180 472.1c0-1 .7-2.4 1.5-3.1 2.1-1.8 1.9-4.3-.6-5.9-1.3-.8-1.8-1.9-1.5-2.8.4-.9.1-2.2-.5-3-.7-.8-.9-2.7-.5-4.9.5-2.5.3-3.6-.7-4-1.7-.7-4.3-8.1-3.3-9.2.4-.4 2-.8 3.7-.9 2.4-.1 3 .3 3.5 2.5 1 4.6 1.4 5.3 2.4 4.6 1.5-.9 1.2-5.1-.5-6.8a5.2 5.2 0 0 1-1.5-3c0-2.7-2.2-6.6-4.6-8.2-3-1.9-3-5-.3-6.5 2.4-1.3 5-.6 5 1.4a9 9 0 0 0 1.9 3.9c1.1 1.4 2.5 5.8 3.3 10.5 1.5 8.4 2.3 10.6 3.7 9.8 1-.6.2-9.2-1-12-.5-1.2-1-4.1-1.3-6.6l-1.6-10.5c-.9-4.3-1-6.8-.2-8.8 1.3-3.4 3.9-3.5 4.7-.1 1.3 5.1 4.1.8 4.3-6.7.1-3.9 3.1-7.6 5.2-6.4 1.6 1 .5 7.2-2.6 14-1.4 3.3-2 5.5-1.2 5.3.6-.3 1.4-1.3 1.7-2.4 1.7-6.2 7-11.3 7-6.6 0 2-5 16.4-7.5 21-1 1.9-1.4 4-1 5 .6 1.4 1.1.9 2.5-2.3a37 37 0 0 0 2-5.1c.1-2.8 4.2-10.4 5.6-10.4 2.1 0 1.7 4-1 9.6-1.3 2.7-2.6 6-3 7.4-.3 1.4.2 1 1.2-1.2 1.6-3.5 3.9-5.5 5-4.3.3.3-.5 3.6-1.7 7.3a52.5 52.5 0 0 0-2.5 15.3c-.7 3.3-.5 3.7 1.6 4.3 1.3.3 4 .6 6.2.6h3.9l-.6 4a14 14 0 0 1-1.7 5.6c-1.8 2.1-6.7 1.8-8-.5-.9-1.7-.6-2 2.3-2.2 4.4-.5 3.6-2.3-1.2-2.6-3.8-.3-5.9 1.1-6 4 0 .4-.2 2.5-.6 4.7-.7 4.3-2.6 5.6-5.6 4-1.6-.8-1.8-1.7-1.3-4.4.7-3.7-.5-5-3.6-4-1.4.4-2 1.5-2 3.5 0 1.6-.8 3.4-1.8 4.2a8 8 0 0 0-2.5 3c-.9 2.4-4.7 2.3-4.7-.1zm19.5-21.2c.3-.5.2-1-.4-1a1 1 0 0 0-1 1c0 .6.1 1 .4 1 .2 0 .7-.4 1-1zm-1.8-12.2c-.3-.7-.5-.1-.5 1.2 0 1.4.2 2 .5 1.3.2-.7.2-1.8 0-2.5zm115 31.2c-2.8-4-.5-5.8 5-4.3 2.8.7 3 2.5.5 4.7-2.4 2.2-3.8 2.1-5.6-.4zm-17.2-1c-.6-.9 8.1-7 12-8.3 2-.8 2-.8 0-1.9-2.2-1.2-7-1.3-21.5-.3a50 50 0 0 0-23 6c-3.3 2.5-7 4-8 3-.6-.7 1.2-2.2 5-4.3 3.2-1.8 6.2-4.1 6.5-5.2.4-1 1-2 1.3-2l3-.4a9.8 9.8 0 0 0 4.5-2.2c1.5-1.4 4.8-2.4 10.7-3.2 14-2 15.4-2 16.5.6 1.3 3 3.5 2.9 3.5-.2 0-3.9 3.7-5.7 10.7-5.4 5.2.3 6 .6 7.1 3.1 1.1 2.4 2 2.7 5.6 2.7 2.5 0 4.9-.5 5.5-1.3.7-.9 4.4-1.7 9.6-2.1 8.2-.7 8.6-.6 11.6 1.9 1.7 1.4 3.7 2.5 4.4 2.5 2 0 2.5 2.7.7 4.3-2.9 2.5-5.2 2.8-8.4 1.1-2.6-1.3-5.7-1.5-18-1.2-11.2.4-15.1.8-15.8 1.8-.4.8-3.2 2.4-6.2 3.5-4 1.6-5.4 2.8-5.6 4.4-.2 1.3-.9 2.4-1.5 2.6-3.1 1-9.8 1.3-10.2.5zm19.5-13c0-.6-.6-1.7-1.4-2.5-1.4-1.4-3.6-2-3.6-.9 0 .3.5 1.5 1 2.5 1.1 2 4 2.7 4 .9zm7.5 13c-.8-1.2 2-2.4 3.5-1.5.6.4.8 1.1.5 1.6-.8 1.3-3.2 1.2-4 0zm-245-2c-.3-.5 0-1.8.5-3 1-1.9 1-2-1-.8-1.5 1-2.2 1-3.2.1-2.5-2.5 6.3-8.8 11.3-8 3.5.4 3.3 2-1 7.6-4.2 5.2-5.5 6-6.6 4.2zm526.1.2c-.7-1 4.2-3.4 5.5-2.6 1.7 1 3-.6 1.9-2.5-1.3-2.5.7-7 3-7 3.4 0 3.5 7.4.2 11.2-1.6 1.9-9.6 2.5-10.6 1zm-332.3-1.9c-.7-.2-1.3-.8-1.3-1.3 0-1.4 5-3.1 6.8-2.5 3 1.2-2.4 4.9-5.5 3.8zm241.3-3c-.4-.8-.2-2 .4-2.6 1.3-1.3 4.6 1.7 3.6 3.3-1 1.6-3.3 1.3-4-.6zm-405.3-.4c-2.2-3-3.5-8-3-11.6 2-13.6 2-14.3.4-14.3-1 0-2 1.2-2.3 2.5a4.3 4.3 0 0 1-3 3.2c-1.8.4-2.4 1.2-2.4 3.3 0 3.3-2.5 4.8-3.9 2.3-.5-1-1.2-4.8-1.6-8.6-.6-5.4-.4-7 .8-8.5 2.4-2.7 3.2-10.5 1.3-12.1-2-1.6-1.8-1.8-4.6 4-3.9 7.8-7.6 10.2-9.9 6.2-.9-1.6-1-1.6-2.8 0-2.1 1.9-4 2.2-6.2.8-1-.7-1.1-1.5-.1-4.6 1-3 1-4-.2-5.1-1.3-1.3-1.8-.9-4.3 3-4.2 6.7-9.3 8-6.1 1.5 2.3-4.5 2-5.6-.7-3a9.6 9.6 0 0 1-3 2.1c-1 0-.8-3.5.3-4.6.6-.6 2-3 3.3-5.4 1.2-2.5 3.2-5 4.5-5.5 1.6-.7 2.2-1.8 2.2-4.3 0-4.9-2.8-3.8-5 1.9-1.9 5.2-5.6 10.5-7.8 11.4-.8.3-2.2-.1-3.1-1-1-.8-2.6-1.2-3.8-.9-1.5.4-2.6-.1-3.8-2-1.4-2.1-1.5-2.9-.3-5.2.7-1.5 2.3-3.4 3.6-4.2 2-1.4 2.2-1.3 2.2 1a6 6 0 0 1-1.2 3.6c-.7.7-.8 1.2-.2 1.2s1.8-1.6 2.8-3.5c1.8-3.2 1.8-3.6.2-6-.9-1.3-1.6-3-1.6-3.6s-1-2.2-2.2-3.5c-2-2-2.4-2.1-4-.7-2.1 2-4.8 1-4.8-1.6 0-3-1.5-3.3-3-.6-1.4 2.6-3.4 3.2-4.5 1.5-.3-.6-1.7-1-3-1s-2.7.4-3 1c-.3.5-1.8 1-3.4 1-1.7 0-3.8 1-5.6 3-1.6 1.6-3.4 3-4.1 3-1.7 0-2.3-2.2-1.2-4.4.7-1.4.5-2.3-1.1-3.7-2.4-2.2-2.5-3.6-1-7.6.8-2.3.6-3.6-1.2-7.5-1.2-2.6-3-4.9-4-5.2-2.3-.5-2.6-4.4-.4-5.3.8-.3 3 0 4.9.6 2.8 1 3.8 2.1 5.6 6.4 3 7.2 4.6 8.7 8.1 8 2.4-.5 3-.2 3 1.4a5 5 0 0 1-1.2 3c-.6.6-1 1.7-.7 2.4.3.7 1.6 0 3.5-2 2.7-3 3.3-3.2 5.3-2.1 1.9 1 2.5.8 4.4-1 3.2-3 5.6-2.6 7 1 .8 2.2 1.6 3 2.9 2.6 1-.2 3.3 0 5.2.5 3.7 1 4 1.5 5 9.9.9 7 .9 8.4 0 10.5-.5 1.6-.3 1.5 1.4-.5 1.1-1.4 1.8-3.2 1.5-4-1.9-4.6-1.6-6 1.8-8 1.8-1 4.1-2 5.1-2 2.5 0 7.4 5 8.3 8.4.9 3.5-1.3 8.6-3.7 8.6-1 0-2.3.9-2.9 2-1.4 2.6-1.3 3 .9 3 2.3 0 8.1-5.2 8.1-7.3 0-2.5 2.6-4 4-2.2 1.5 1.8 7 2 7 .3a15 15 0 0 1 2.6-4.5c4.8-6.3 10.2-3.3 9 5.1-.3 2.8 0 4.7 1 6 .8 1.1 1.4 2.8 1.4 3.7s.8 2.3 1.7 3a14 14 0 0 1 3 4.5c.6 1.8 2.4 4.5 3.7 6.1 2.4 2.8 2.5 3.3 1.5 9.4-1.7 11.5-1.6 13.8.8 13.6 2.4-.2 3.8 5.6 2 9.1-1.4 3-3.9 4-5.4 2zm-8-26c5.2-2.8 6.1-6.5 2.7-10.9-1.7-2.1-2.1-2.2-3-1-.5.8-1 2.4-1 3.4s-.9 3-2 4.4c-3.6 4.5-1.8 6.8 3.3 4zM79 421.5c0-.8-.2-1.5-.4-1.5s-.6.7-1 1.5c-.3.8 0 1.5.4 1.5.6 0 1-.7 1-1.5zm8-3.4a16 16 0 0 1 3.6-5c2.2-1.9 3.4-6 1.7-6-1.6 0-5.3 4.5-5.3 6.5 0 1.3-.4 2.6-1 3-.5.2-1.4 1.4-2 2.5-.8 1.5-.7 2 .4 2 .7 0 1.9-1.4 2.6-3zm-6-6.8c0-1.4-.2-1.4-2 .2-1 1-2 2.2-2 2.7s1 .4 2-.2c1.1-.6 2-1.8 2-2.7zm204.7 51.1c-.8-.8.1-2.3 1.4-2.3.5 0 1 .6 1 1.5 0 1.5-1.3 2-2.4.8zm335.4-11.6-2.2-13c-1.2-6-.3-8.8 2.7-8.8 1.7 0 2 1.5 3.5 14.7 1.3 11.4 1 14.4-1.4 14.4-1 0-1.7-2.4-2.6-7.3zm-19.7 5.5c-.6-.4-1.4-3.3-1.8-6.4-.8-6.3-1.7-7.5-6-8-3.2-.4-4.2-2.3-2.6-4.9.7-1 2.8-1.5 7.6-1.5 6.5 0 6.8.1 8.6 3.3 1.5 2.7 1.7 4.5 1.2 10.8-.7 7.2-.8 7.5-3.3 7.4a9 9 0 0 1-3.7-.7zM62.1 453c-1.2-1.1-2-2.4-2-2.9 0-1.3 3-3.9 6.4-5.3l3-1.3-3.6-.3c-2.5-.3-4.6-1.4-7-3.8-3.2-3.4-3.2-3.4-1.3-5.5 2-2.3 6.6-5 8.4-5 1.6 0 1.2 2.2-.7 3.7-1.6 1.3-1.5 1.4 1.2 1 1.7-.3 3.8-.8 4.8-1.2 3-1.2 2 2.4-1.3 4-1.7 1-2.8 2-2.5 2.5.6 1 3.5.7 11.2-1a14 14 0 0 1 5.8-.3c1.5.5 1.4.7-.1 2.5-1 1-2.3 1.8-3 1.8s-2.4.6-3.7 1.3l-2.5 1.4c-.2.1.1 1.1.8 2.3.7 1.4 2 2 4 2 2.3 0 3 .5 3 2 0 1.4-1 2-5.2 2.4l-9.4 1.3c-3.4.4-4.6.2-6.3-1.6zm337.9-1.3a15 15 0 0 1-2-5.4c0-2.3 3.9-5.4 6.9-5.4 3.5 0 4.1 2.2 2.3 8.3-2 6.8-4.1 7.5-7.2 2.5zm-34.5.2c-1.7-1.8-1.7-2 0-2.6 2.3-.9 0-2.3-3.8-2.3-2.4 0-2.8-.4-2.5-2.3.1-1.3-.4-3.7-1.1-5.6-1.7-4-.4-9.2 2.7-10.8 1.2-.6 3-1.9 4.2-2.9 1.7-1.5 2.2-1.6 3.6-.4 1.3 1 1.5 2.5 1 7.3a32 32 0 0 1-1.8 8c-.8 1.6-.4 2.5 2.6 5.5l3.6 3.6 10.4-.3c9-.2 10.5 0 11 1.5 1 2.8-.8 3.6-6.5 2.9-7.3-1-14.7-1-18.5-.3-2.4.5-3.6.2-5-1.3zm-2.2-16.5c-.6-2.8-2.3-2.4-2.3.6 0 1 .6 2 1.4 2 .9 0 1.2-.9.9-2.6zm-92.7 14.8a10 10 0 0 1-8.8-7.5c-1-3.7-1-4 1.3-5.9a11 11 0 0 1 9.4-2.5c3.5 1 3.1 3.5-.7 5.1-2.6 1-3 1.5-1.6 2 .9.4 1.9 1.7 2.2 3a4 4 0 0 0 2.6 2.8c1.1.3 2 1.3 2 2.2 0 1.5-.8 1.7-6.4.8zm-51-4.5c-2.2-3.3-3.1-10.4-1.6-12.3 1.6-2 2.4-1.3 5 4 2.4 4.9 2.1 8.9-.5 9.9-.9.3-2-.3-3-1.6zm162.3-.8c-1.5-1.5-2.8-2-4.6-1.5-1.3.3-3.2.4-4.2 0-1.6-.4-1.7-2-1.4-15.6.2-8.4.9-16 1.4-17.1 1.5-2.9 4.2-1.8 5.2 2.2.5 1.9 1.6 4 2.4 4.5 2.5 1.9 1.2 5-2 4.8-2.6-.1-2.7 0-2.7 4.8 0 5.1.8 6 3 3.4.8-.9 2.5-1.4 4-1.3 2.2.3 2.5.7 2.3 3.8-.1 3 .3 3.8 2.7 5.2 2.8 1.6 2.9 1.8 1.5 4.4-2.4 4.8-4.5 5.4-7.6 2.4zm-263.4-1c-.3-.5.3-2.3 1.5-4 2.4-3.3 2-7.4-1-9-1.4-.7-2.1-.4-3.2 1.2-.9 1.3-2 1.9-2.6 1.4-1-.5-.8-1.5.7-3.9 1.2-2 1.7-4.3 1.4-6.3-.6-4 .7-4.9 7.2-4.9 4.4 0 5-.2 5.5-2.5.3-1.4 1.3-2.5 2-2.5 1.2 0 1.6 1.8 1.8 8.2.3 7.4.5 8.4 2.7 10.2 3.3 2.5 3.2 4.7-.2 6.4a263 263 0 0 0-7.5 4c-5 3-7.3 3.4-8.3 1.7zm11-10c1-1.4-.6-6-2-6s-2.9 4.6-2 6c.4.6 1.2 1 2 1s1.7-.4 2-1zm100.2 9.4c-.4-.4-.7-3.9-.7-7.8 0-4.8-.6-8.4-2-11.3-1.7-3.8-1.7-4.4-.4-5.8 3-3 3.9-2 6 6a41 41 0 0 1 1 17.3c-.7 2.2-2.6 3-4 1.6zM30 433.9c-2-1.2-6-2.7-9-3.3-5-1-5.5-1.3-5.2-3.5.1-1.4.4-2.5.5-2.6.1-.2 4.1-.6 9-1 7.6-.6 8.7-.5 8.7 1 0 1-1.1 1.8-3 2.2-1.6.3-3 1-3 1.5 0 .8 2.2.5 7.2-.8 1-.3 2.8.2 4 1s3.7 1.6 5.4 1.6 3.7.7 4.4 1.5c1 1.2.7 1.6-1.7 2l-5.7 1.6a12.5 12.5 0 0 1-11.6-1.2zm576.5-7c-.4-.6-.2-1.6.4-2.2 1.9-1.8 1.2-3.6-2-5.2-2.5-1.4-3-2-2.7-4.8.5-5.3 3.8-4.8 8.7 1.4 4.2 5.3 5 8.6 3 10.7-1.6 1.5-6.5 1.6-7.4.1zm140.6-5.3c-1.8-2.1-1-8 1.2-8.4 2.3-.5 4 4 2.7 7.3-1 2.9-2.2 3.2-4 1zm23.5.7c-1-1-.6-2.3.9-2.3.7 0 1.6.4 2 1 .6 1-2 2.2-2.9 1.3zm35.3 0c-4.4-.4-4.7-.6-5.2-3.6-.2-1.8 0-3.5.7-4 1.3-1 12.6 0 14.1 1.3a66 66 0 0 0 20.3 2.2c6.2-.1 7.3.1 7 1.5-.2 1.3-2.4 1.6-13.5 1.9-7.3.1-14.5.4-16 .7s-4.9.2-7.4 0zM738 420c0-2.6 2.2-3.5 4.9-2 2.8 1.5 1.6 4-2 4-2.2 0-2.9-.4-2.9-2zm42 1.1c0-2.8 1.5-4 4.5-4 3.5 0 5-1.8 3.4-4.2-2.6-4 .5-5.2 5.2-1.8 3 2 4 6.1 1.9 7.4-.6.4-3.5 1-6.5 1.2-3 .3-5.8 1-6 1.5-.8 1.1-2.5 1-2.5-.1zm-50.5-1.2c-.4-.6-.3-1.5.3-2 1.5-1.5 4.6-.6 5 1.4.3 1.3-.3 1.7-2.2 1.7-1.3 0-2.8-.5-3.1-1zm32.5.1c0-.5-1.8-1-4-1-3.4 0-4-.3-3.8-1.7.2-1.3 1.6-2 4.6-2.4 2.3-.3 4.8-1 5.4-1.7s2-1.2 3-1.2 2.7-.5 3.8-1.2c1.6-1 2.3-1 3.6.4 2.6 2.5 1 4.5-4 5.2-3.2.5-4.7 1.3-5.1 2.7-.6 2-3.5 2.7-3.5 1zm17-10.5c0-1 1-1.5 2.5-1.5s2.5.6 2.5 1.5-1 1.5-2.5 1.5-2.5-.6-2.5-1.5zm-298-4c-1.7-2-.3-3.5 3.5-3.5 4.3 0 6.5.9 6.5 2.5 0 2.7-7.9 3.5-10 1zm-294-3c-1.7-2-.9-13.4 1-14.6 2.4-1.5 3-1 4.6 2.8 1.4 3.1 1.4 4.3.3 7.7-1.8 5.6-3.6 6.8-5.9 4.1zm326-3.4c0-3.5 7.8-8 9.4-5.3.3.4-.9 2.2-2.5 4-3.4 3.6-6.9 4.3-6.9 1.3zm-11-3.1c0-1.5.7-2 2.5-2s2.5.5 2.5 2-.7 2-2.5 2-2.5-.5-2.5-2zm32.3.3c-4-.8-2.7-3.3 1.5-3.3 4.3 0 5.3.6 4.5 2.6-.5 1.4-1.7 1.5-6 .7zm295.8-7.7c-.7-.8-1.5-3.1-1.8-5.2-.6-3.6-.5-3.7 1.8-3l6 1.5c2 .5 4.3 1.2 5.3 1.8 1 .5 4 .8 6.5.6 4.3-.4 4.5-.3 2.7 1-2 1.7-10.2 2-11.2.6-1-1.6-3.6-1-3 .6.3.8-.3 1.9-1.4 2.5-2.5 1.3-3.5 1.3-5-.4zm-12.8-1.1c-1.2-.9-2.8-1.4-3.5-1.3-2.8.6-1.8-4.7 1.6-8.5 3-3.3 3.7-3.7 6.5-3.1 4.1.8 5 2.7 4.4 9.1-.5 5.2-.6 5.3-3.7 5.3-1.7 0-4.1-.7-5.3-1.5zm-238.7-.8c-3-2.2-1-3.7 4.7-3.7 9.3 0 10.5 3.1 1.7 4.4-3.1.4-5.1.2-6.4-.7zM351 385.3c-1.3-.3-2.6-1.4-2.8-2.5-.5-1.7-1.2-2-3.8-1.5-3.8.6-6-.5-5.2-2.7.5-1.2 2-1.6 5.8-1.6 4.3 0 5.6-.5 7.6-2.6 2-2.3 3-2.5 6.1-2 7.9 1.4 9.7 3.1 8 7.5-.7 2-1.2 2.3-4.9 1.7-2.4-.4-3.8-.3-3.5.3.8 1.1-2 4.1-3.7 4l-3.6-.6zm8-8.8c0-1-2-1.5-2.6-.5-.3.5.1 1 1 1 .8 0 1.5-.2 1.5-.5zm171.4 8.4c-1-1.7.6-2.6 5.7-3.3 3.5-.6 5-.3 6.2 1 1 .8 1.4 2 1 2.5-.7 1.3-12.1 1.1-13-.2zm-134.2-1c-3-1.2-5-5.5-3.4-7.2.9-.9 2-.7 4.9.8 5.8 3 7.4 4.6 6 6.1-1.2 1.6-4.2 1.7-7.5.3zm170.7-.4c0-.8.7-1.5 1.5-1.5s1.5.7 1.5 1.5-.7 1.5-1.5 1.5-1.5-.7-1.5-1.5zm-186.4-.5c-.4-.5.2-1.3 1.1-1.9 2.9-1.6.7-2.5-6-2.6-5.9 0-6.2-.1-6.5-2.6-.4-4 2.2-5.6 6.1-4l8.1 3c4.8 1.7 6.4 3.5 6.5 7.3.1 1.4-.7 1.8-4.3 1.8-2.5 0-4.7-.4-5-1zm33.8-1.6c-1-2.7 1.6-3.4 11.1-3.2 8.3.3 9 .4 9 2.3 0 1.8-.7 2-9.8 2.3-8.2.2-9.8 0-10.3-1.4zm138.6 0c0-1 .7-1.4 1.7-1.2 2.5.4 2.8 2.8.4 2.8-1.2 0-2-.7-2-1.6zm8-1c0-.8.5-1.4 1-1.2.7.2 1.2.8 1.2 1.3s-.5 1-1.1 1.3c-.6.2-1-.4-1-1.3zm-286-2.1c-4.3-2.3-6.6-5.6-4.8-7.1 1-.8 2.4-.5 5.3 1 2.2 1.1 6 2.3 8.5 2.7 3.6.5 4.5 1 4.5 2.6 0 1.7-.7 2-5 2.3-3.3.1-6.2-.4-8.4-1.5zm129.3.1a3 3 0 0 1 .5-2.6c1.6-1.6 4.2-.2 4.2 2.1 0 2.5-3.7 2.9-4.7.5zM206.5 377c-1-1.4-.2-2 3.7-3 3-.7 2.9-.7-1.9-.8-5.2-.1-7.7-1.6-5.2-3.2a29 29 0 0 1 8.6-1h7.3l1.5 3.7c.8 2 1.2 4 1 4.5-.8 1.3-14.2 1.1-15-.2zm27.9-.4c-1-2.7.7-3.8 5.3-3.3 5 .6 5.8 1 5 3.2-.8 2.1-9.5 2.2-10.3.1zm18.3.8c-1.5-1.5-.5-3.3 1.8-3.3 1.6 0 2.5-.6 2.5-1.6 0-1.3-.6-1.5-2.7-1-9.9 2.5-12.6 1.1-12.7-6.2 0-3.6.3-4.8 1.6-5 1.3-.3 1.9.6 2.4 3.5.9 4.7 2.2 5.6 5.2 3.7 1.6-1.1 2.7-1.2 4.1-.5 1.1.6 2.9 1 4 1 1.6 0 2.1.7 2.1 2.6 0 1.3.5 2.5 1 2.5s1-.4 1-1c0-1.3 3.2-2.2 4.3-1.2.5.6.6 2.4.2 4-.7 3.2-.7 3.2-7.4 3.2-3.7 0-7-.3-7.4-.7zm-27.3-1.4c-3.3-1.2-3.8-2.7-2.3-7.1l1.3-4 10.6.8v-5.1c0-5.5 1.2-7.5 4.5-7.5 4.2 0 6.1 4.3 2.5 5.5-1.5.4-2 1.5-2 4.3 0 4.5-1.3 6.7-3.4 5.9-.8-.4-1.8-.2-2.1.3-.3.5-1.7 1-3 1-2 0-2.5.5-2.5 3 0 3.4-.8 4-3.6 3zm626.6-4c0-.5.5-1 1-1s1 .5 1 1c0 .6-.4 1-1 1s-1-.4-1-1zm-431.3-2c-2-1.2-2.2-4.9-.3-7.5 1.3-1.7 1.8-1.8 3.6-.6 1.2.7 2.3 1.2 2.3 1 1.6-3.2 2.8-4.3 4.8-4.3 1.7 0 2.5.6 2.7 2.1.4 2.8 7 4 8.8 1.5 2-2.6 4.6-.6 4.2 3.1-.3 2.8-.7 3.2-2.8 3.1-11-.7-14.8-.5-18 1-2.5 1-4 1.2-5.3.5zm29-.5c-1.8-1.7-1.3-4 .9-4.8 2-.8 9.4 2.3 9.4 3.9 0 2.7-7.9 3.5-10.4 1zm216-.1c-2-1.9-.5-3.3 3.4-3.3 4.5 0 8.3 1.5 7.4 3-.7 1-9.8 1.3-10.8.3zm22.8-.3c-.3-.5 0-1.2.5-1.5 1.2-.8 3 .2 3 1.5 0 1.2-2.7 1.3-3.5 0zm35.2-1.8c-6.4-.3-8-.7-9-2.3-.6-1-2-2-2.8-2-1.4 0-2.9-1.8-2.9-3.6 0-.9 7 .7 9.1 2 1.5.9 2.4.9 3.9 0 1.5-1 2.2-1 3.4.2 1 1 3.4 1.5 7 1.5 3.5 0 5.8.5 6.6 1.4 1.8 2.2.3 3.6-3.8 3.4l-11.5-.6zm-78.7-3.5c0-2.2 3-5.7 4.8-5.7 1 0 2.6 1 3.6 2 1.8 2.2 1.8 2.2 4 .2 4.7-4.3 9.5-5.4 13.1-2.9 1.1.8 3.3 1.4 4.8 1.4 1.6 0 3.4.5 4 1.1 2.6 2.7-3.7 4.2-10.7 2.7-3-.6-5.3-.4-9.4 1-4.5 1.6-5.7 1.6-7.5.5-1.5-1-2.2-1-2.5-.2-.5 1.6-4.2 1.5-4.2-.1zm47.6.4c-4-.6-6-2.8-3.4-3.6.7-.2 5-.6 9.6-.9 7.5-.4 8.2-.3 8.2 1.4 0 1-.3 2-.7 2.3-1.6 1-10 1.4-13.7.8zm-10.6-2.6c0-.9.9-1.5 2-1.5 2.5 0 2.2 2.3-.3 2.8-1 .2-1.7-.3-1.7-1.3zm-242-12.2c0-.5-3.6-.9-8-1-9 0-12.3-1.8-11.8-6.3.3-2.2.7-2.5 3.3-2.2 1.7.1 3.5.9 4 1.6 1.8 2.3 7 .7 8.4-2.6 1.3-3 1.5-3 6.7-2.4 5.8.7 6 .6 4.2-2.4-1.6-2.7-.4-3.6 2.8-2.2 1.5.7 3.5 1 4.6.6 1-.4 3.3-.1 4.9.6 2.4 1 3 1.8 3 4.6 0 3-.4 3.4-2.3 3.2-1.6-.3-2.3-1-2.2-2.6 0-2.1 0-2.2-1.8-.6-1 1-1.8 2.5-1.8 3.6 0 1.8.5 1.9 7.1 1.2 6.7-.6 7-.6 6.1 1.2-.8 1.3-3.6 2.3-10.4 3.7-13 2.5-16.8 3-16.8 2zm8.8-4.6c2.2-2.1 1.3-3.3-2.5-3.2-7.9.2-11.3 3-4.5 3.7l4.8.6c.5 0 1.5-.4 2.2-1zm181.4 1.1c-3.2-1.1-2.2-3.4 1.4-3.4 1.9 0 3 .6 3.2 1.7.4 2-1.6 2.8-4.6 1.7zm-242.4-1.4c-1.6-.8-2.9-2-3-2.5l-.2-1.7c0-.5-1-2-2.3-3.6-2.1-2.7-2.1-2.7-2.5-.5-.2 1.6-1 2.3-2.3 2.3-1 0-2.3.8-2.7 1.8-1 2.6-2.6 2.1-4.3-1.5l-3.7-7.1c-3-5.8-1-6.6 4-1.5 2.3 2.3 4.2 4.7 4.2 5.3 0 .6.9-.4 2-2.2 1-1.8 2.5-3.3 3-3.3 1.8 0 7 4.3 7 5.8 0 1.4 3.8 5.1 5.3 5.2.4 0 .3-.9-.3-2s-1-2.6-.7-3.3c.2-.6-.3-2-1.1-3-2.4-2.7-.3-3.6 5-2.3 3.6.8 4.8 1.6 4.8 3 0 1-.4 1.5-.8 1.3-.4-.3-1.4-.1-2.2.3-1.2.8-1.2 1 .3 1.6 2 .8 2.2 3 .3 3.8-.8.3-1.2 1.3-1 2.4.4 1.4 0 2.1-1.8 2.6-3.2.9-4 .8-7-1zm22.4.5c-3.3-1.3-2.1-3.5 1.8-3.3 4 .2 6.2 2 4 3.4-1.8 1.1-2.8 1.1-5.8-.1zm234.3 0c-1.4-2.3 1.8-4.2 6.3-3.7 5.1.6 7.5 2.3 5.2 3.8-2 1.3-10.7 1.2-11.5-.1zM402 343.6c-1.2-1.5-.5-2.7 1.6-2.7 1.5 0 1.8 2.6.4 3.5-.5.3-1.4 0-2-.8zm218.4.3c.4-.5.8-1 1-1 .3 0 .5.5.5 1s-.5 1-1 1-.8-.4-.5-1zM473 342.6c0-1 1.1-2 3-2.3 3.5-.7 3.9-2 .8-3-1.4-.4-2.5 0-3.3 1-1.1 1.5-1.5 1.5-4.9.1-4-1.6-4-3.5 0-3.5 1.2 0 3.4-.4 4.8-1 1.9-.6 4-.4 8.2 1 4.4 1.4 6.1 1.6 7.5.8 2.4-1.5 9.3.2 9.7 2.4.5 2.5-6.6 4.8-16.8 5.5-8 .6-9 .5-9-1zm32-1.5c-1.2-2.5-.3-5.2 1.9-5.1 2.8 0 4.3 1.6 4 4a3 3 0 0 1-5.8 1zm-193-.1c-1.6-1-.6-4 1.5-4 .8 0 1.5.8 1.5 1.9 0 2.4-1.1 3.2-3 2zm18.8 0c-1.4-.5-3.7-1.8-5-3-2.4-2.3-2.5-2.3-8.5-2h-4.2l.6-5.7c.6-6.4 3-9.6 6.8-9.1 2 .2 3.6 4.7 1.6 4.7-.5 0-1.2.9-1.5 1.9-.7 2 .2 5.1 1.4 5.1 1.5 0 8-6.9 7-7.5-1.5-1-1.2-3.2.6-3.9 1-.3 2.8.1 4.2 1 2 1.3 2.3 2.2 1.8 4.5-.3 1.6-.1 3 .4 3 .6 0 1-.6 1-1.3 0-.7.7-2.1 1.5-3.1 1.7-2.3 6.5-1.6 6.5 1 0 .8.5 1.2 1 .8.6-.3 1-1.4 1-2.5 0-1 .5-2.1 1-2.5 2-1.3 3.8 1.7 5 8.2 1.3 7.6.7 9-4.7 10-4 .7-6.8-1-4.3-2.7a4 4 0 0 1 2.8-.5c.7.3 1.2-.3 1.2-1.5 0-1-.4-2-1-2-.5 0-1.3-1.1-1.6-2.6-.6-2.2-.8-2.4-1.6-1-.5.9-.8 2.2-.7 2.9.4 2-3.5 7.7-5.3 7.7-.9 0-2.2.2-3 .5a9 9 0 0 1-4-.4zm2.2-5.4c0-1.7-3.8-5.2-4.7-4.3-1 1 1.5 5.6 3.2 5.6.8 0 1.5-.6 1.5-1.3zm5-.2c0-.8-.4-1.5-1-1.5s-1 .7-1 1.5c0 .9.5 1.5 1 1.5s1-.6 1-1.5zm20.6 4c-2-2-2-4.5-.2-7 1.5-2 3.6-1.2 3.6 1.5 0 1 .5 2.2 1 2.5.6.4 1 1.5 1 2.6 0 2.4-3.2 2.6-5.4.4zm9.2.9c.7-.3 1.6-.3 2 0 .3.4-.3.6-1.4.6-1.1 0-1.4-.3-.6-.6zm-69.1-1c-2.4-2.4 2.7-5.3 9-5.4 2.7 0 3 2.6.6 3.9-2.6 1.3-8.8 2.3-9.6 1.5zm18.9-.2c-.3-.6-.1-1.3.5-1.7 1.5-1 2.5.4 1.2 1.6-.7.8-1.3.8-1.7.1zm95-1c-.3-.2-2.2-.7-4.3-1-2.7-.5-4.2-1.5-5.2-3.4-2.2-3.9-.4-5.5 3.7-3.4 1.7 1 4 1.6 5 1.6 2 0 5.2 3 5.2 4.8 0 1.1-3.6 2.3-4.4 1.5zm16-1c-.4-.6-.2-1.3.4-1.7 1.2-.7 3 .2 3 1.6 0 1.2-2.7 1.2-3.4 0zm-14.5-6.6c-6.6-6.6-3.4-10 5.4-5.9 3.7 1.8 4.6 4 2 5-1 .4-1.3 1.3-.9 3 1 3.6-1.5 2.8-6.5-2.1zm-125 1c0-4 11-6.3 11.7-2.5.2 1-1.1 1.9-4.3 2.7-6 1.6-7.5 1.6-7.5-.2zm139.2-1.3c-.9-2.3.9-3.3 5.5-3.2 7.1.2 10.7 1.2 11 3.2.3 1.6-.5 1.7-7.8 1.5-5.3-.2-8.4-.7-8.7-1.5zm-47.6-2c-1.2-1.2-.7-6.3.6-6.3 3.3 0 5 5.3 2.1 6.4-2 .8-2 .8-2.7 0zm19 .1c-1.1-1.2 2.4-4.4 5-4.4 4.6 0 3.4 3.2-1.7 4.5-1.4.4-2.9.3-3.3 0zm-45.1-1.3c-.3-.5.1-1.6 1-2.5 3-3 8-1.2 5.4 2-1.4 1.6-5.6 2-6.4.5zm18.6-.3a5.7 5.7 0 0 1-1.2-3.5c0-2.8-2-3-3.8-.3-.6 1.1-2.1 2-3.3 2-1.6 0-1.9-.4-1.3-2.2.9-2.8 4.4-5.7 7-5.7 1 0 3 .8 4.2 1.8 1.8 1.3 2.3 2.5 2 5.1-.3 3.7-1.7 4.7-3.6 2.8zm14.8-2.2c0-2.2 3.3-3.6 8.4-3.6 3.9 0 4.6.3 4.6 2 0 1.4-.9 2-3.7 2.3-7 1-9.3.8-9.3-.7zm92.4-.6a42.2 42.2 0 0 0-18.6-.6c-1.2.8-2 .8-2.8 0-1.8-1.8 0-4.3 4.3-5.4a28 28 0 0 0 5.8-2.3c1.4-.9 2.2-.8 3 0 .8.8 2.4 1.3 3.6 1.3 1.3 0 2.3.4 2.3.9s1.2.6 2.7.3c2-.3 3 .1 4.4 2a9 9 0 0 1 1.9 3.6c0 1.5-5.2 1.7-6.6.2zm196.8-6.2c-1.5-1.4-1.6-5.4-.2-6.3 1.4-.8 9 2.7 9 4.2 0 .6-1.4 1.6-3.1 2.2-4 1.4-4.2 1.4-5.7 0zm-82.7-1c-.2-.7-.3-2.9-.2-4.8.2-3.4.3-3.5 3.7-3.1 3.5.3 6 1.6 6 3.2 0 1-7 6-8.2 6-.5 0-1-.6-1.3-1.3zm26 .2c-.4-.6-.1-1.7.5-2.5 1.8-2.1 13.3-2 15 0 1.2 1.4 1.1 1.8 0 2.6-2 1.2-14.7 1.2-15.5-.1zm38 .3c-4.7-1-4.8-1.2-2.3-3.6 1.4-1.3 2.7-3 3-3.8.4-1.2.9-1.2 3 0 1.6.8 4 1.1 5.6.8 3.9-.8 6 .6 4.3 2.7-.7 1-2.1 1.6-3 1.6s-2.4.7-3 1.5c-1.3 1.5-3.6 1.7-7.6.8zM639 315c0-1.8.5-2 3.8-1.8 2.5.2 3.7.8 3.7 1.8s-1.2 1.6-3.7 1.8c-3.3.3-3.8 0-3.8-1.8zm-58.3-.6c-2-2-.4-3.4 3.8-3.4 3.8 0 4.5.3 4.5 2s-.7 2-3.8 2c-2.1 0-4.2-.3-4.5-.6zm111.5-2.6c-1.8-1.8-1.4-2.8.8-2.8 1.1 0 2 .7 2 1.5 0 2-1.5 2.7-2.8 1.3zm-384.4-1.5c-2-.5-3.2-3.3-2-4.6 1.5-1.4 4.6-.4 5 1.7.5 2.2-.7 3.4-3 2.9zm158.5-1c-1.7-.6-1.6-3 0-3.6.8-.3 2-.1 2.8.4 1.2.7 1.2 1 0 2.3-1 .7-2.2 1.2-2.8 1zM448 307c-1.4-2.7-1.2-6.1.3-6.1 1.4 0 3.7 4 3.7 6.6 0 2-2.7 1.7-4-.5zm13-.1c0-1.2.5-1.8 1-1.5.6.3 1 1.3 1 2 0 .9-.4 1.5-1 1.5-.5 0-1-1-1-2zm-261.5 0c-1.3-2.2.9-2.9 8.8-2.7 6.5.2 8.2.5 8.2 1.7s-1.7 1.6-8.2 1.8c-4.8.2-8.4-.1-8.8-.8zm22.8-1c-.3-1.3-1.7-2.2-3.9-2.6-2-.3-3.4-1.2-3.4-2 0-1.4-2.3-1.9-6.9-1.5-1.3.1-3 0-3.9-.4-1.3-.5-1.2-.8.3-2.5 2.3-2.5 11.2-2.9 12.1-.5a30 30 0 0 0 9.7 6.7c2.1 1 2.2 3.4.1 4.2-2.6 1-3.6.7-4.1-1.4zm267.2-.2c-6.6-2.3-6.8-5-.5-4.6 2.2 0 4.6-.4 5.6-1.3 1.2-1 4.3-1.4 9.6-1.4 7 0 8.2.2 9.4 2 1.3 1.7 1.4 1.8 1.4.2 0-1 .5-2.7 1-3.8 1.1-2 1.2-2 4.4-.1 4.8 2.8 8.2 3.4 9.6 1.7 1.6-2 5-2 5.6 0 .4 1 1.4 1.3 3 1 1.7-.5 2.7 0 4 2 1.5 2.3 1.5 2.8.3 3.6-1 .6-2 .2-3.6-1.6s-2.3-2.1-2.3-1c0 2.4-3.7 3.9-6.8 2.6-2-.8-4-.7-7.8.3-4.6 1.2-5.4 1.2-8.9-.5-2.2-1.1-4.3-1.5-4.9-1-.6.4-3.2.7-5.9.4-3.2-.2-5.5.2-7 1.2-2.4 1.7-2.2 1.7-6.2.3zm-201-2.5c-2.2-1-4.8-2.6-5.7-3.6-1.6-1.8-2.1-1.9-4.2-.7-4.7 2.5-12.9-1.1-9.7-4.3 1.7-1.7 15 .6 19.6 3.4 1.6 1 3.7 1.9 4.6 1.9 2.5 0 4.1 2.4 2.7 3.8-1.5 1.5-2.4 1.5-7.3-.5zm265.8 0a2.2 2.2 0 0 1-1.3-1.9c0-1.6-2.6-1.9-3.5-.4-1 1.6-4.5 1.2-5.2-.6-.4-1 .1-2.2 1.3-3.1 1-.8 1.8-2 1.7-2.7-.4-1.7 9.2-11.6 11.1-11.6 1 0 2 1.6 2.7 4 1 3.1 1.5 3.7 2.6 2.9 1-.9 2-.4 4.3 2 1.7 1.9 3 4 3 4.7 0 2.7 3.8 1.5 4.9-1.6 1.2-3.6 2.9-3.9 3.7-.7.7 3.2 4.1 5.2 6 3.7 1-1 2.2-1 4.6 0 2.1.7 3.5.7 4.2 0 1.8-1.8 7.4-1.2 8.6 1 1.3 2.3 1.4 2.2-7.7 4-6 1.2-14.7.7-15.7-1-.3-.3-2.7-.5-5.4-.2-3.4.3-5.9 0-8.2-1.3-3.3-1.7-3.4-1.7-5.2.9-1.9 2.5-3.8 3-6.5 2zm440.7-.9c0-.8.5-1.2 1-.9.6.3 1 1 1 1.6 0 .5-.4 1-1 1s-1-.8-1-1.7zm-812-.3c-2-1.4.3-3.8 4.1-4.3 3.7-.6 5.2 1.8 2.4 3.8-2.2 1.6-4.4 1.8-6.4.5zm11.7-1.7c-2.2-3-1.6-5.4 1.3-5.4 2.3 0 4.6 4 3.7 6.4-.9 2.3-3 2-5-1zm60.9 1.9c-6-.5-10.7-4.2-8.6-6.8 1.8-2.1 4.1-1.9 4.7.5.4 1.6 1.4 2 4.4 2 4.6 0 5.6-2.7 1.3-3.2-2.3-.3-2.5-.5-1.2-1.5s2.1-.7 5.1 2.2c2 2 4 3.5 4.7 3.5.5 0 1 .9 1 2 0 2.1 0 2.1-11.4 1.3zm-128.1-1.4c-.4-.6-2-.8-4-.5-2.4.5-3.6.2-5-1.3-2.7-3.1-1-4.3 5.4-3.6 5.5.7 9.9 3.5 8.6 5.6-.8 1.3-4.2 1.1-5-.2zm115.5-.4c0-.8.7-1.5 1.5-1.5s1.5.7 1.5 1.5-.7 1.5-1.5 1.5-1.5-.7-1.5-1.5zm-5.7-2.2c-4.3-.4-5.4-1.8-3-4.1 1.3-1.4 6.6-1.6 8.6-.3 1.5 1 1.2 4.4-.4 4.6-.5 0-2.9 0-5.2-.2zm545.3-1.2c-1.7-1.9-1.6-2 .6-3.4 1.4-.9 4.4-1.3 7.8-1.1 4.5.2 5.5.5 5.5 2 0 1-1.3 2.2-3.5 3-5 1.8-8.4 1.7-10.4-.5zm18 0c-1.8-2-1.8-2 1-3.2 4-1.5 16 .9 16 3.1 0 1.2-1.7 1.6-7.6 1.8-6.6.2-7.8 0-9.4-1.7zm-36.6-2c0-3.6 1.7-5.2 5.3-5.2 2 0 3 .6 3.4 1.9a4 4 0 0 0 2.4 2.4c1 .3 2 1 2 1.6 0 1.4-.7 1.4-5 .1-2.8-.8-3.7-.7-4.3.5-1.5 2.6-3.8 1.8-3.8-1.3zm-53.2-1.2c-.7-1.1-1.7-2-2.3-2-2 0-5.8-4.8-5.1-6.5.8-2.1 3-1.9 5.1.5 1.7 1.8 2.8 2 11.2 1.6 9.3-.5 9.3-.5 9.3 1.9 0 1.3.5 2.7 1 3 1.4.9 1.3 2.2-.2 2.2l-6 .8c-4.5.7-4.7.6-5.3-1.9-.9-3.3-3.2-3.4-4.5-.1-1.1 3-1.6 3-3.2.5zm14-4.2c-.4-.8-.6-.6-.7.6 0 1 .2 1.7.5 1.3s.4-1.2.1-1.9zm8 5.6c-1-1 .1-2.4 1.8-2.4.8 0 1.4.7 1.4 1.5 0 1.5-2 2-3.3.9zm5.5-2.1c-3.4-.7-4.6-2.8-2.7-4.7.8-.9 2.1-1.6 2.8-1.6s2-1 3-2c1-1.3 2.6-2 4-1.8 3 .4 3 5.5-.2 8.5-2.3 2.3-2.7 2.4-6.8 1.6zm5.7-4.3c0-.6-.7-1-1.5-1s-1.3.4-1 1 1 1 1.6 1c.5 0 1-.5 1-1zm10.1 3.6c-.8-1-.8-1.6-.1-2 1.4-1 3 .2 3 2s-1.4 1.8-2.9 0zm-80-3c0-2.1 3.8-4.1 5.2-2.8.5.6.7 1.8.4 2.6-.8 2-5.7 2.1-5.7.1zm-311.6-.6c-1.4-2.3 1.4-3.1 12.7-4 12.5-1 18.1-.3 18.6 2.2.3 1.3-.9 1.5-8 1.4-4.5 0-11.5.3-15.4.7-5 .6-7.4.5-7.9-.3zm76.6 0c-2.4-.2-4.6-1-4.8-1.7-.2-.6 1.3-2.4 3.3-4l3.6-2.7 1.8 2.3c1.5 2.1 2.2 2.3 6.4 1.7 3.7-.6 4.6-.4 4.6.7 0 1.3-8.2 5-10 4.5l-4.9-.7zm27.6.3c-.4-.4-.7-1.5-.7-2.5 0-1.4.6-1.9 2.2-1.6 1.2.1 2.3.8 2.6 1.5.4 1.3-3.2 3.6-4.1 2.6zm219 0c-1.4-1.3-.6-2.4 1.5-2.1 2.7.4 3.7 2.8 1 2.8-1 0-2.1-.3-2.5-.7zm9.3-.3c0-.6.5-1 1-1 .7 0 .9.4.5 1s-.8 1-1 1-.5-.5-.5-1zm84.5-3c-1.7-2-2-2-3.1-.5-1 1.3-2.1 1.5-5.8 1-6.5-1-6.2-3.5.4-3.5 4.8 0 5-.1 3.8-2-1.8-2.8-.5-3.3 4.4-1.7 5 1.7 6.8 3.9 5.2 6.4-1.5 2.5-2.8 2.6-5 .2zm13.5-1c0-1.7.6-2 2.8-1.8 1.6.2 2.8 1 3 2 .3 1.4-.3 1.8-2.7 1.8-2.4 0-3-.4-3-2zM147.3 282c-5.4-.3-8-2-6.9-4.8.5-1.3 1.7-1.5 7.1-.9 6.4.7 6.5.7 6.5-1.7 0-1.4 1.3-3.7 3-5.3 2.9-2.8 2.9-2.8 13.2-2.2 13.3.8 19 1.6 20.7 3 .8.7 4.8 1.2 9 1.2 6.5 0 7.6.2 8 1.8.1 1-.5 2.7-1.5 3.9-1.6 1.7-2.6 1.9-6.4 1.3l-10.2-1.2c-3.2-.3-5.8-1-5.8-1.5s-.7-.8-1.5-.5c-.8.3-1.9-.2-2.4-1-.8-1.6-1.2-1.6-3.6-.3-2.3 1.2-3 1.2-5.8-.2-3.8-1.9-9.5-1.7-10.8.3a8 8 0 0 0-.9 3.5c0 4-3.3 5.2-11.7 4.6zm62.7-.7c0-1 .9-2 1.9-2.2 1.3-.3 1.7-1.1 1.4-2.5-.8-3 1.3-3.8 11-3.8 7.1 0 8.9.3 9.4 1.6 1 2.4-1.3 3.2-8 2.7-3.4-.3-7.3 0-8.7.5-2 .9-1 1 5.3 1.1 6.2 0 7.7.4 7.7 1.6 0 1-1 1.5-3.8 1.5-2.2 0-6.7.3-10 .6-5.5.6-6.2.5-6.2-1zm541.3-1.2c-.9-2.3 2.6-4.5 6.7-4.1 5.3.4 4.5 2.9-1.3 4.4-4.2 1-4.9 1-5.4-.3zm-619.6-1.7c-.7-1.8 1.2-3.6 3-3 2 .9 1.6 4.4-.6 4.4-1 0-2.1-.6-2.4-1.4zm34 0c-2.6-2-1.3-3.6 2.8-3.6 3.9 0 5.3 1.4 3.5 3.5-1.5 1.8-4 1.8-6.3 0zm374.3-1.6c-1-.7-1.2-1.2-.3-2 1.4-1.5 5.6-.3 5 1.3-.5 1.6-2.8 2-4.7.7zm19.2-.8c.3-1.3 1.3-1.7 4.6-1.6 2.3 0 4.5.3 4.8.7 1.5 1.4-1 2.7-5.2 2.7-3.8 0-4.5-.3-4.2-1.8zm15.2.3c-.3-.8-.3-1.9 0-2.4.6-.8-2.4-1.4-12.9-2.4-1-.1-2-.9-2-1.7 0-1.2 1.5-1.5 7-1.5 3.9 0 8.4.4 10 .8 2.6.7 2.7 1 1.3 1.8-1.3.7-1.6 1.7-1.1 4 .6 3-1.2 4.2-2.3 1.4zm-332-1.7c-1-1.7 2.6-3.9 5.5-3.2 3.3.8 4.5 1.9 3.7 3.3-1 1.4-8.3 1.4-9.2 0zm363.2 0c-4.9-.4-9.1-1-9.4-1.3s-.1-1.2.2-2c.5-1.5 1.7-1.6 7.9-1 13 1 14.9 1.5 14.5 3.3-.4 2-1.9 2.2-13.2 1zm268.9-2.9c-1-1.5-.4-1.8 3.5-2.1 2.6-.3 3.5.1 3.8 1.4.3 1.4-.3 1.8-3.1 1.8-2 0-3.9-.5-4.2-1zm-52.2-1.2c-.8-1.4-.1-1.6 9.7-2.5 14.5-1.5 33-.3 33 2 0 1.5-41.8 1.9-42.7.5zm-184.7-5.7c-.3-.4-.3-1.6 0-2.4.9-2.2 19.5-2.4 21.3-.2.9 1 .9 1.6.1 2a76 76 0 0 1-21.4.6zm42.1-1.7c-1.5-1.5 1-2.3 7.4-2.3 5.5 0 7 .3 7 1.5s-1.5 1.5-7 1.5a26 26 0 0 1-7.4-.7zM346.2 261c-2.1-.7-1.3-4.2 1-4.6a120 120 0 0 1 27-1.8c2 2-.2 3-8 3.6a118 118 0 0 0-13.3 2c-3 .6-6 1-6.7.8zm447.8 0c-.5-.2-1-1-1-1.8 0-1.6 3.4-2 17-1.5 9.6.3 10.6.6 8.9 2.7-1 1.2-3.5 1.4-12.5 1.2-6.3-.2-11.8-.5-12.4-.7zm-128.7-2c-1.9-.2-3.3-1-3.3-1.7 0-1.9 11.8-2.6 13.3-.8.5.7.8 1.5.5 1.8-.8.8-7 1.3-10.5.8zm226.5-.8c-1.1-1.1.2-2.4 2.4-2.4 1.1 0 1.8.5 1.6 1.2-.5 1.4-3 2.2-4 1.2zM456.6 257c-.9-1.4.3-1.9 6-2.3 3.9-.3 5 0 5 1.2 0 1-1.5 1.5-5.2 1.8-2.9.1-5.5-.2-5.8-.7zm401 0c-1.7-.4-3-1.2-3-2 0-2 21.8-2.6 23.4-.6 1 1.1 1 1.5-.1 1.9-2.6.8-17.4 1.3-20.4.7zm-37-1.5c.3-.9 1.4-1.7 2.3-1.7l7.8-.5c3.4-.2 6.5 0 6.8.5 1 1.5-1 2-9.5 2.7-7.2.6-8 .5-7.4-1zm-343-.5c-.3-.5 1.2-1.8 3.4-3l4-1.9v2.9c0 2.6-.3 2.9-3.4 2.9-2 0-3.7-.4-4-1zm-76.2-1.3c-1-1.6.7-2.4 7.3-3.7 6.2-1.2 11.3-.8 11.3 1 0 1.4-4 2.5-11.2 3.1-4 .3-7 .1-7.4-.4zm26.6-1.8c-1.2-.8-1.2-1.3.6-3.7 2.2-3 6.9-4.3 8.7-2.5.7.8.1 1.4-1.9 2.3l-2.9 1.1 2.4.7c1.4.3 2.7 1.2 2.9 1.8.5 1.5-7.5 1.7-9.8.3zm22.7-.7c-1.4-1.4-.6-3.3 1.2-3.3 3.6 0 5.3 1 4 2.6-1.2 1.4-4 1.8-5.2.7zm-30.1-4.3c-.4-.5-.1-1.2.5-1.6 1.4-.9 6 .3 6 1.6 0 1.2-5.8 1.3-6.5 0zm251.7-.8a2 2 0 0 1-1.3-1.7c0-1 2.7-1.3 11.5-1.3 6.4 0 11.8.4 12.1.9.3.5 0 1-.8 1.3a138 138 0 0 1-21.5.8zm-176.1-3c.5-2.3 9.3-2.6 9.3-.3 0 1.1-1.3 1.6-4.8 1.9-4.2.2-4.8 0-4.5-1.5zm34.6 1.2c-.7-.7-5-1.3-10.1-1.4-4.3 0-4.8-2.3-.6-2.9a9 9 0 0 0 4-1.8c1.6-1.4 5-1 5 .8 0 .4 1 .8 2.5.8 2.8 0 4.4 2.8 2.3 4.1-1.6 1-2.3 1.2-3.1.4zm7.6-1.9a7 7 0 0 1-.2-3.2c.3-1.6 1.5-1.8 11.3-1.6 6 0 11.4.2 11.8.2.4 0 .7.7.7 1.5 0 1-1.9 1.6-6.7 2-3.7.4-7.8 1-9 1.6-3.5 1.4-7.3 1.2-7.9-.5zm-52.5-2c-1.2-1.3-2.6-1.5-7.2-.8-6.3 1-7.2.8-8.6-3-1.2-3.2.5-4.2 4.2-2.3 2.3 1.2 7.8 2 18.5 2.8 3.4.3 4 1.5 2 3.5-1.7 1.7-7 1.5-8.9-.3zm-245.9-1c-1.9-2.4.2-3.5 6.3-3.5 3.4 0 4.7.3 4.7 1.4 0 1.8-.6 2.2-5.6 3-3.1.5-4.3.3-5.4-1zm331-.4c0-1 .6-2.6 1.4-3.6 1.2-1.7 1.7-1.7 5.7-.5 2.9 1 4.5 2.1 4.8 3.3.3 1.7-.1 1.9-3.7 1.3-2.4-.4-4.3-.2-4.7.3-1 1.7-3.5 1.2-3.5-.8zm-297.6-.6c-.9-2.3.3-3.3 4.7-4 2.2-.4 5-1.8 6.2-3 1.8-2 3.4-2.5 8-2.7 3.1-.1 6 0 6.4.5 1.3 1.3 3.6.6 6.5-1.9 3.2-2.6 5.3-3.1 6.4-1.4.9 1.4-1.4 4-3.6 4-1 0-2.3.6-2.8 1.5-1.2 2.2-11.5 5.4-17.2 5.4a34 34 0 0 0-9 1.5c-5.1 1.9-5 1.9-5.6 0zm313.6 0c0-1 .7-1.6 1.8-1.4 2 .4 2 2.2-.2 2.7-1 .2-1.6-.4-1.6-1.4zm-83-.4c-2-.7-8-5.2-8-6.1 0-1.2 9-2.2 10.8-1.2 1 .6 1.1 1 .4 1.6a2 2 0 0 0-1.2 1.7c0 .7 2 .8 5.6.4 4.5-.6 5.6-.5 5.2.6-.5 1.4-10.5 3.8-12.8 3zm57.2-2.4c-1.8-1.8-1.4-2.8 1.3-2.8 1.9 0 2.5.6 2.5 2 0 2.3-2 2.7-3.8.8zm39.4-.3c-1.6-.8-4.6-1.8-6.7-2a16 16 0 0 1-5.6-2c-3.5-2.6 1.5-3 8.6-.6 3.6 1.1 6.8 1.8 7 1.5.4-.4 0-.8-.6-1-1.2-.5-1.9-4.4-.7-4.4a30.8 30.8 0 0 0 11.5 4l11 2 4.4.7-2.8 1.2c-4.7 2-22.7 2.3-26.1.6zm-440.2-1c-1-2.4.5-3.1 6.8-3.8 4.4-.4 5.8-.2 6.2 1 .7 1.6-1.7 2.7-8.1 3.8-3.5.6-4.4.4-4.9-1zm173.1-1c-13.6-2.5-18-3.8-18-5.5 0-1.7-.6-1.7 20.5.8 12.5 1.4 15.6 2.1 15.8 3.4.6 3-5.6 3.5-18.3 1.2zm297.2-.2a15 15 0 0 0-6-3.1c-5.3-1.6-7.8-3.8-5.4-4.7.9-.3 2.9 0 4.5 1 1.7.8 4.9 1.8 7.1 2.1 5 .8 7 2.7 5.1 5-1.6 2-3.3 1.8-5.3-.3zm16.7 1c-1.2-.2-3-1.2-4-2.3-.9-1-2.5-2-3.4-2-2.9 0-5-1-5-2.6 0-1.8 2.2-1.7 9 .2a73 73 0 0 0 16.3 2.8c4.3.2 3.3 2-2 3.3-5 1.2-7.3 1.3-11 .6zm-269-1.4c-1-1.6 4-5.6 9-7a28 28 0 0 0 9.5-7c6-6 14.5-11.9 17-11.9 1 0 3.7-1 6.1-2.3 5.2-2.7 13-4.3 13-2.6 0 .5-2.1 2-4.7 3-8.3 3.5-11.3 5.2-11.3 6.6 0 2 1.7 1.6 5.8-1.2 2-1.4 4.5-2.5 5.5-2.5 2.3 0 7.7-4 7.7-5.7 0-.7-.4-1.3-1-1.3-2.3 0-.6-3.1 3.9-7.2 6.5-5.9 10-7.7 11.1-5.8.7 1.1 1.2 1.1 2.4.1 1.4-1.2 1.8-1.1 6.5 1.6.2.1-.1.9-.8 1.7-.8 1-.8 1.6 0 2 .6.5.3 1.6-1 3.2-1 1.4-1.7 3.2-1.3 4.1.4 1.3 1 1.1 2.5-1 2-2.9 4.7-3.6 4.7-1.3 0 .7-1.2 3-2.7 5l-4.4 5.8c-1.7 2.3-1.7 2.3-3.1.4-1-1.3-1.7-1.5-2.2-.7-.4.6-1.1 1.1-1.6 1.1-1.5 0-1.1-2.7.7-4.5 2.7-2.7.6-2.8-2.3 0a12 12 0 0 1-3.6 2.5c-1.3 0-9.7 8.3-9.2 9.1.2.4 1.3.5 2.4.2 1.6-.4 2 0 2 1.7 0 2.1 0 2.1 3 .4 2.4-1.4 3.3-1.5 4.2-.6 1 1 1 1.5 0 2.4-2.2 2.3-1.2 3 1.5.9 3-2.4 5.3-2.7 5.3-.6 0 1.7 2.6 2 3.5.5 1-1.5 3.5-1.1 3.5.5 0 1.2.7 1.4 2.8.9 3.5-1 10-1 10.8-.1 1.6 1.6-.6 3.7-3.9 3.7-1.8 0-3.6.3-4 .7-.4.4-3.7.8-7.4 1-3.7.2-8.2.8-10 1.3-2.6.7-3.5.6-4-.5-.3-1-1.4-1.2-3.5-.8-2 .4-3.3.2-3.9-.8-.7-1.1-1.2-1-2.6.9-2 2.4-6 2.5-8.7.3-1.2-1-1.9-1-3 0-.9.6-2.6.9-4 .5-1.6-.4-3.8 0-5.7 1-3 1.6-3.3 1.6-4.5-.1-1.3-1.8-1.6-1.8-6.9 0-4.5 1.5-6.1 1.7-9.1.8-2.8-1-4.2-.9-6.3.2-4.4 2.2-6.8 2.7-7.6 1.4zm54.1-7.9c.4-.5.2-1-.3-1-.6 0-1.3.5-1.7 1s-.1 1 .4 1c.6 0 1.3-.4 1.6-1zm-19.1-1.7c1.7-1 4-2.5 5.1-3.4A75 75 0 0 1 432 212a88 88 0 0 0 16.5-12.2c1-1.2 3.4-3 5.2-4.2 3.6-2.2 3.6-3.9 0-3.9-2.5 0-11.9 7.4-13.3 10.5-1 2.2-9.9 8.6-15.3 11-1.8.9-3.9 2.1-4.5 2.9a33 33 0 0 1-7.8 4.1c-3.7 1.6-6.8 3.2-6.8 3.7 0 1.4 4 1 7.4-1zm7.1-.3c.4-.5 0-1-.9-1s-1.6.5-1.6 1c0 .6.5 1 1 1s1.2-.4 1.5-1zm8-1c1-1 1.4-2 1-2-1.2.1-4.5 2.6-4.5 3.4 0 1.3 1.8.6 3.5-1.4zm-26.5-2.5c.8-.8.9-1.5.3-1.5-.6 0-1.3.7-1.6 1.5-.3.9-.4 1.5-.3 1.5s1-.6 1.6-1.5zm88 11c0-.8.4-1.5.9-1.5s3-1.6 5.7-3.6a74.7 74.7 0 0 1 15-9c7.4-4.3 12.3-5 11-1.8-.4 1 .5 1.4 3.6 1.4 3 0 4.1-.4 4.5-1.7 1-3.9 9.9-7 27-9.8 3.6-.5 4.3-.4 4.3 1 0 2.5-8.6 5.8-13.5 5.1-5.5-.7-10.5 1.2-10.5 4 0 3-3.7 4.3-12.3 4.6-4.7.2-7-.2-7.6-1-.6-1-1.4-.7-3.4 1.2a9 9 0 0 1-4.4 2.7 9 9 0 0 0-4.3 2c-1.3 1-3 2-3.5 2s-2.7 1.3-4.9 3c-4.2 3.2-7.6 3.8-7.6 1.4zm186.5 0c-13.4-1.6-16.9-2.6-17.3-5-.3-1.2 0-1.6 1.1-1.2 2.2.8 11.7 2.4 22.8 3.8 9 1 9.7 1 13.4-1 4.6-2.7 6.8-2 6.4 1.7-.4 2.7-.5 2.7-7.9 2.9-4 0-12.4-.5-18.5-1.2zm35.8.9c-2.2-1-1.4-3.4 1.2-3.4 2.9 0 4.4 1.9 2.4 3.1-1.5 1-1.8 1-3.6.3zM198.6 229c-1.5-1.6-.3-4.2 2.4-5.1 3.9-1.4 4-2.5.2-1.7-2.2.5-3 .2-3.6-1-.8-2.3.4-3.5 5.1-5.1 5.1-1.8 7-1.7 7.8.4.6 1.5.8 1.5 1.9.2 2.2-2.9 14.4-5.5 17.3-3.7.6.4 4-.2 7.4-1.1a31 31 0 0 1 12.6-1.2c6.8.6 7.9 1.2 7 3.5-.5 1.1-2.2 1.5-7 1.5-3.8 0-7 .6-8.3 1.5-1.2.8-4 1.8-6.3 2.1-3.7.6-4.2.5-4.7-1.5-.5-1.6-1-1.8-1.9-1-.7.5-2 .7-2.8.4-1.7-.7-5.7 1-5.7 2.5 0 .6 1.4.7 3 .4 6.3-1.3 2.3 4-4.3 5.6a50 50 0 0 0-6.7 2.2c-2.6 1.2-12.5 2-13.4 1zm547.1.1a4 4 0 0 1-.7-2c0-1 2.5-1.4 10.5-1.4 8.7 0 10.5.3 10.5 1.5 0 .9-1 1.6-2.2 1.6l-9.8.5a27 27 0 0 1-8.3-.2zm-555.3-2c-.5-1-1.9-1.4-5.5-1.2-2.7 0-5.1-.1-5.5-.4-1.4-1.5.7-3.8 3.4-3.8a7 7 0 0 0 4.6-1.8c1.6-1.8 1.6-2-.8-2.4-1.5-.3-2.7 0-3 1-.4 1-1.8 1.2-4.8 1-3.6-.2-4.3-.6-4.6-2.7-.3-2.2-.2-2.3 4.2-1.6 3.8.5 4.6.4 4.6-1 0-1 1-1.5 4-1.5 4 0 6.6 2 5.7 4.5-.3.8-.1 1.5.5 1.5.7 0 .9 1.3.5 3.5-.3 2 0 3.6.6 3.8 1.5.5 0 2.7-1.9 2.7-.8 0-1.7-.7-2-1.5zm367.6-.9c0-1.2.8-1.5 3.3-1.3 1.8.2 3.2.8 3.2 1.3 0 .6-1.4 1.2-3.2 1.3-2.5.3-3.3 0-3.3-1.3zm18.5-.6c-1-1.5 1-3.3 3-2.5.8.3 1.5 1.3 1.5 2.1 0 1.8-3.5 2.1-4.5.4zm250.3.5c-1.7-1.6.9-2.4 7.9-2.4 5.6 0 7.4.4 7.1 1.3-.4 1.3-13.8 2.4-15 1.1zM489 223c.7-1.3.7-1.8-.2-1.8-4 .1-6.8-.4-6.8-1.3 0-.5 1.9-1.9 4.1-3l4.1-2.1-.7 2.1c-.6 2.2-.6 2.2 2.2.4l6-4c3-2.4 5.3-3 5.3-1.6 0 .5-2.7 2.6-6 4.8-8 5.3-5.9 5.6 3.6.5 4.2-2.2 8.3-4 9-4 2.9 0 1.3 2-2.8 3.8a104 104 0 0 0-9.6 5c-6.1 3.7-9.8 4.2-8.2 1.2zm363.2-.4c-3-3.2-2.7-3.7 1.8-3.7 3.7 0 6.7 2 4.2 2.8-.6.2-1.2 1-1.2 1.8 0 2.2-2.3 1.7-4.8-.9zm15.3.8-4.1-1.5s-.4-.6-.7-1.5c-.9-2.3 4-1.9 6.3.5 1.1 1.1 2.7 2 3.5 2s1.5.5 1.5 1c0 1.4-1.7 1.2-6.5-.5zm-703-1.5c-1.6-1.8-1.7-2.2-.4-3 2.6-1.7 6.9.6 7 3.8 0 2-4.6 1.4-6.6-.8zm-82.6-2.2c-.3-2-.8-2.2-4.9-2-9.9.8-12.3.7-12.7-.4-.7-2.3 2.8-4.4 7.4-4.4 2.8 0 6.1-.9 9.1-2.5 3.8-2 6.1-2.5 12.2-2.5 4.2 0 8.2.4 9 1 .8.5 2.3.4 3.7-.3 3-1.3 6.4 1.3 4.5 3.6a33 33 0 0 1-16.6 7c-2.6.1-4.7.8-5 1.5-.3.7-1.8 1.2-3.5 1.2-2.3 0-3-.5-3.2-2.2zm5.6-5.8c.8-1.2-.5-1.2-2.5 0-1.3.9-1.2 1 .2 1 1 0 2-.4 2.3-1zm600.2 7.2c-.8-1.2 2.2-5.2 3.9-5.2.8 0 2.9-.9 4.7-2a17 17 0 0 1 4-2c1 0 1 4.2 0 5.5-1.9 2.5-11.6 5.4-12.6 3.7zm146.9-1.1c-.3-.5-.1-1.2.4-1.6 1.2-.7 3 .2 3 1.6 0 1.2-2.7 1.2-3.4 0zM267 218.5c-2.8-.8-4.6-1.8-4.8-3-.3-1.5.4-1.6 7.5-1 7.7.6 11.2 2 9.9 4.2-.9 1.4-6.7 1.3-12.6-.2zm17.4-.1c-.9-2.4.5-3.6 4.2-3.6 4.2 0 4.7 2.6.9 4-3.5 1.4-4.4 1.3-5-.4zm37.2.5c-.7-1 1.9-3.3 2.8-2.4.3.4.6 1.3.6 2 0 1.5-2.5 1.8-3.4.4zm-18-.9c-1-.2-1.5-1-1.4-2 .3-1.3 1.5-1.7 4.9-1.8 4.8 0 8.7 1.3 7.3 2.6-1 1-8 1.7-10.7 1.2zm172.6-.4a5 5 0 0 1-1.2-2.9c0-2 7.3-9.6 7.8-8.1.2.5 1.2.8 2.3.5 1.1-.3 2 0 2 .7s.5.6 1.5-.4c1.7-1.7 4.4-2.1 4.4-.6 0 .5-1.8 2.4-4 4.2a268 268 0 0 0-6.7 5.6c-2.9 2.5-4.3 2.8-6 1zm5.6-3.6c.3-.7-.2-1-1.2-.6-.8.4-1.6 1-1.6 1.6 0 1.3 2.3.5 2.8-1zm292.2 4a60 60 0 0 0-8.7-2.7c-4.3-1-7.2-2.2-7-2.9.5-1.3 3.5-1.1 10.7.9l8.3 2c3.3.7 3.7 3.5.5 3.5-1.2 0-3-.4-3.8-.9zm40.7-2.3c-1-.6-3.8-1.4-6.3-1.7-2.4-.4-4.5-1.1-4.6-1.7-.5-2 7.3-1.6 11.6.5a23 23 0 0 0 5.5 2c.6 0 1.1.5 1.1 1 0 1.3-5 1.3-7.3-.1zm-352-.6c-.3-.3 2.1-3 5.5-6.2 5.2-4.8 6.1-6.3 7-10.5 1-5.5 3.4-10 4.9-9 .5.3.4 1.9-.5 3.9-.8 1.9-1.2 4.3-.9 5.4.9 3.2-6.8 12.6-12.8 15.7-1.4.7-2.9 1-3.2.7zm201.9-.2c-1-1.6 5.9-6 9.2-6 4 0 8.2 3.3 6.5 5-1 1.1-1.7 1.1-3.3.1-2.6-1.6-5.2-1.5-7.5.3-2.3 1.7-4.1 2-5 .6zM491 213.8c0-1.3 2-3.1 5.5-5.2 1.9-1 2-1 .4 1.2-2 3.2-5.9 5.7-5.9 4zm99-.5c-1.5-1.9-.5-4.6 1.5-3.9 1.7.7 2.1 4 .6 4.9-.4.3-1.4-.2-2-1zm206.5.4c-.4-.6-.3-1.4.2-2 1.2-1.1 3.8.6 3 2-1 1.4-2.3 1.4-3.2 0zm135 .2c-.3-.7-.5-1.4-.3-1.6a98 98 0 0 1 18.6-1.7c.7.2 1.2 1 1.2 1.8 0 1-1.5 1.4-5.7 1.4a78 78 0 0 0-9.4.6c-2.3.4-3.9.2-4.3-.5zm-817.1-2.7c-1-2.6 1.8-4.2 8.1-4.6 5.1-.2 6 0 6.3 1.5.7 3.3-1.6 4.7-8 4.7-4.4 0-6-.4-6.4-1.6zm247.1-.4c-.3-.5.1-1 1-1 .8 0 1.5.5 1.5 1 0 .6-.4 1-.9 1s-1.2-.4-1.6-1zm96.1.2c-.3-.5.3-1.7 1.4-2.6 1-1 3-4.2 4.5-7.2 1.4-3 3.3-5.8 4.3-6.1s2.4-1.5 3.1-2.6c1.3-1.7 1.5-1.8 2.3-.3 1.3 2.3-3.2 11.1-5.7 11.1-1 0-2 .7-2.3 1.5-.5 1.8-5.2 7-6.3 7-.4 0-1-.4-1.3-.8zm229.9-.2c-1-1.7.4-7.7 2-8.3 2-.8 2.5.3 1.8 5.1-.5 4-2.3 5.5-3.8 3.2zm95.2 0c-1.5-.5-3.5-1.4-4.3-2-2.3-2 .6-3.2 3.3-1.4 1.3.8 3.6 1.4 5.2 1.4 3.6 0 6.1.9 6.1 2.1 0 1.1-6.5 1-10.3-.1zm51 .4c-1.4-1.5-.7-4.5 1-4.2 1 .2 1.8 1.2 1.8 2.2 0 2-1.6 3.2-2.8 2zm-234.7-2c-1-1.1-1-2-.3-3.2 1.7-2.7 3.8-2 3.8 1.2 0 3.4-1.6 4.4-3.5 2zm131.2.5c.2-.5.8-1 1.3-1s1.2.5 1.4 1c.2.6-.4 1.1-1.4 1.1s-1.5-.5-1.3-1zm-595.5-.5c-.4-.4-.7-2.2-.7-4 0-4.4 3.6-6.9 8.7-6a9 9 0 0 0 5.4-.7c1.4-.9 2.2-.9 3 0 1.8 1.8.4 4-2.9 4.6-1.6.4-3.3 1.4-3.6 2.4-1 3-8 5.5-9.9 3.7zm471.8-.8c-.9-2.2.2-3.3 1.8-1.8.9 1 .9 1.5 0 2.4-1 .9-1.3.7-1.8-.6zM170.8 206a9.4 9.4 0 0 0-4-2c-2.3 0-4.3-3-3-4.2 1.5-1.6 4.5-.7 5.8 1.8.8 1.6 1.4 1.9 2.7 1.2 2.3-1.3 7 .7 6.6 2.9-.5 2.5-5 2.7-8 .3zm543.8 0c-.7-1.2 1.1-2.4 2.5-1.6 1 .7.3 2.5-1 2.5-.5 0-1.2-.4-1.5-1zm33-2.2a10.9 10.9 0 0 0-6.6-1.7c-4.5.4-4.9-2.4-.5-3.3 5-1 15.6 5.6 11 6.7-.5.2-2.3-.6-4-1.7zm-115.1-.2c-.8-2 1.2-5.7 3-5.7 2.2 0 1.5 6.4-.7 6.8-1 .2-2-.3-2.3-1.1zm68.5-.2c0-1.4 3-3.5 5-3.5s1 2.7-1.5 3.9c-3.2 1.4-3.5 1.4-3.5-.4zm-320.2-.1c-1.3-1.2.6-3.3 3.8-4.4 3.4-1.1 5.4-.7 5.4 1s-8 4.6-9.2 3.4zm14.8-.3c-.8-1.3 2.2-3.4 4-2.7 1.4.5 1.4 1 .4 2.1-1.3 1.7-3.5 2-4.4.6zm111.4 0c0-.6-.8-1-1.9-1-1 0-2.2-.5-2.5-1-.3-.5-2-1.2-3.6-1.6-1.6-.4-3-1-3-1.5 0-1.6-4.3-1.9-5.5-.3-1.9 2.6-3.4.7-2.4-2.9 1.4-5 .2-4.6-2 .7-2.8 6.5-4.8 4.9-2.8-2 1.1-3.9 2.2-5.4 4.8-6.8 5.3-3 7.5-5.3 6.2-7-.7-.8-.8-1.8-.3-2.7.8-1.2 1-1.2 1.6.3.5 1.4 1 1.5 2 .6 2.1-1.7 3-.3 1.6 2.6-.6 1.4-.7 2.5-.2 2.5s1.5 1.7 2.3 3.7c1.4 3.3 1.7 3.5 2.3 1.8 2.8-7.5 3.5-8.8 4.6-7.8.8.8.6 2.5-.6 6.2-1 2.8-1.5 5.9-1.3 6.8.5 2.1.6 1.8 3.2-7 1.6-5.2 3.5-8.4 3.5-5.8 0 .6.5 1 1 1 .6 0 1-1.1 1-2.7 0-2 1-3.5 3.6-5.5 4.1-3.4 4.9-2.5 4 5-.4 4.3-1 5.3-6.5 10.5-3.3 3.2-6 6-6 6.3 0 .3.8 1.3 1.8 2.4 1.7 1.6 2.1 1.7 4.6.4 1.5-.8 3-1.2 3.2-1 1 1-1 3-5 4.8-4.6 2-7.7 2.4-7.7 1zm-5.3-8.8c-.3-.3-1-.2-1.7.2-.9.6-.8 1 .2 1.6 1.3.8 2.6-.7 1.5-1.8zm-6.2-4c.8-.2 1.5-1.7 1.5-3 0-2.6 0-2.6-2-.8-1 1-2 2.4-2 3.2 0 1.5.3 1.5 2.5.7zm-153.3 11.6c-1.3-.5-2.1-1.5-2-2.1.7-1.8 7-2.1 9.2-.5 4 3-1.5 5-7.2 2.6zm301.8-.3c0-.8.5-1.8 1-2s1-2 1-3.5c0-3.5.8-4.3 3.2-3 2.4 1.3 2.3 3.4-.2 7-2.2 3-5 3.9-5 1.5zm236.4-.2c-1-2.6 1-3.4 5-2.3 2.2.6 5 .8 6.5.4 2.9-.8 15.3-.7 16 0 .3.3 0 1-.7 1.8-.8.8-5.5 1.2-13.7 1.4-10.3.1-12.7-.1-13.1-1.3zm-727.2-.8c.2-1 .8-1.7 1.3-1.6 1.5 0 1.3 2.3-.3 2.8-.8.3-1.2-.2-1-1.2zm467.8-1c0-3.3 2.5-5.3 4.5-3.6 2.3 1.8 1.9 3.5-1 4.8-3.4 1.6-3.5 1.6-3.5-1.2zm195 .5-6.9-3a24 24 0 0 0-7.5-1.8c-3.7-.3-5.8-1.1-7.8-3-2.1-2-4.3-2.9-8.5-3.4-5.4-.6-14.8-2.7-23.8-5.2-2.2-.6-5.5-2.7-7.6-4.8-2-2-4.4-3.9-5.5-4-2.3-.5-2.4-3.8-.2-5.3 2-1.2 6.8.9 6.8 3 0 2.6 2.4 6.4 4 6.4 1 0 2 .4 2.6 1 1.3 1.1 16.4 4.7 24.1 5.5 4.8.6 6.9 1.4 9.3 3.6a9.2 9.2 0 0 0 7 2.9c5 0 20 6.3 20.8 8.8.5 1.5-1 1.4-6.8-.7zm94.6 1c-.3-.5-.1-1.2.4-1.6 1.4-.8 5 .4 5 1.6 0 1.2-4.7 1.2-5.4 0zm-369.8-3c-2.4-2.9-4-6.4-3.4-7.9 1-2.3 2.3-1.6 4.5 2.1 1.2 2 3.3 4 4.7 4.5 1.4.6 2.3 1.5 2 2-1 1.6-6.1 1.1-7.8-.7zm-237.8-.2c0-1.2 2.6-2.1 6.1-2.1 2 0 3 .5 3 1.5 0 1.1-1.2 1.5-4.6 1.5-2.4 0-4.5-.4-4.5-.9zm71-2.7c-1-1.1-.7-1.4 1.4-1.4 2.8 0 3.6 1.4 1.2 2.3-.8.3-2 0-2.6-.9zm14.9 0c-2-.6-3.2-3-1.9-3.9 1.8-1 6.2.7 5.8 2.3-.3 1.7-1.5 2.2-4 1.5zm196.2-1.5c0-.6 1.5-2.7 3.4-4.6 4.4-4.4 8-4.3 8 .2 0 2.7-.3 3-3.4 3.3-2 .2-4 .8-4.5 1.3-1.3 1.3-3.5 1.1-3.5-.2zm-342.5-.8c-.3-.5-.3-1.6 0-2.4.5-1.3-.4-1.4-5.5-1-5 .5-6 .3-6-1 0-2 1.6-2.4 11.4-2.6a93 93 0 0 0 11.8-1c2.6-.6 4-.5 4.7.4 1.4 1.6 0 2.2-7.9 3-3.6.5-6 1.2-6 1.9.4 3.3-1.1 5-2.5 2.7zm13.2 0c-2.6-1-.7-2.7 3.7-3.4 4.6-.7 7.1.4 6.2 2.7-.6 1.7-6.5 2.1-9.9.8zm387 .2c-.5-.3-.8-3-.8-6 0-4.8.3-5.5 2.6-6.5 2-1 3-1 4.4 0 1.5.8 2.6.7 5.6-.8 2-1 4.5-2.7 5.5-3.6 1-1 2.6-1.4 3.4-1 1.7.6 2.2 3.6.6 3.6-.5 0-1.9 1-3 2.1-1 1.2-2.3 1.8-2.9 1.5-1-.6-3.3 1.6-3 3 .6 3.7-2.6 4.8-3.7 1.4-.3-1.1-1-2-1.5-2-1.4 0-5 5.1-5 7.1s-1 2.5-2.3 1.2zm33.4-1c-.8-1.6 0-6.3 1.2-6.3 2.4 0 3.6 1.6 3.6 4.6 0 2.7-.4 3.4-2 3.4-1 0-2.3-.8-2.8-1.7zm-376.5-.6c-1.7-1.2-1.7-1.4-.2-2.7 2-1.7 7-.2 7 2 0 2-4.5 2.5-6.8.7zm71.6-.3c-1.5-1-1.5-1.3-.3-1.8 3.9-1.3 7-1 7 .8 0 1.9-4.6 2.6-6.7 1zm-88.6 0c-1.3-1.4-.6-3.5 1-3.2 1 .2 1.8 1 1.8 1.7 0 1.6-1.7 2.5-2.8 1.5zm319.8-.4c-1-1.6.5-3 3.1-3 3 0 3.2 1.5.5 3-2.4 1.2-2.8 1.3-3.6 0zm58.3-2c-.2-1.7-.1-3.3.3-3.5 1.1-.7 3.1 2.2 2.8 4.1-.6 3-2.6 2.6-3-.6zm-323.8 0c0-1.3.5-2 1.3-1.8.7.3 1.2 1 1.2 1.8s-.5 1.5-1.2 1.7c-.8.3-1.3-.4-1.3-1.7zm133 0c.6-1.1 1.8-2 2.6-2 1 0 1.4-.6 1-1.8-.4-1.2 1.1-3.6 5-7.8 5-5.5 6.7-8.4 4.6-8.4-1 0-8 7.4-14.5 15-3.6 4.3-3.9 4.4-5.2 2.6-2-2.7-1.9-3.1 1.2-5.5 1.4-1.2 2.2-2.1 1.7-2.1-1 0-5.6 3-6.5 4.3-1 1.4-8.8 2.6-9.5 1.4-.8-1.2 4.5-5.7 6.7-5.7.8 0 2.3-1 3.2-2s2.9-2 4.2-2c1.4 0 2.5-.5 2.5-1 0-.6-.4-1-1-1-1.8 0-1-2.2 3.5-9 5.1-7.7 6.2-10 4.6-10-.6 0-1-.7-1-1.5 0-1 .9-1.5 2.4-1.5 1.4 0 2.5-.5 2.5-1 0-.6.9-1 2-1 1.4 0 1.8-.8 1.7-3.8 0-2 1-5.9 2-8.5 1.8-3.9 2.7-4.8 4.8-4.8 1.4 0 2.9.7 3.2 1.5.4 1.2 1 1.3 2.6.4a36 36 0 0 1 9.7-1.6c7.5-.4 13.6-2 19.1-4.8 2.6-1.4 3-1.4 3.5 0 .4.8.3 2 0 2.5-1 1.6-11.4 6-16 7-3.4.5-4 1-3.8 2.7.2 1.4-.3 2.3-1.7 2.6-1.8.5-1.7 1 2 5 5.3 5.7 7.7 11.9 6 15.5-1 2.4-1.4 2.5-2.4 1.2-.6-.9-2-1.8-2.8-2.2-1.3-.5-1.6-1.5-1.1-5 .6-5-.9-4.3-2.7 1.4-.6 2-2 4.5-3 5.7-2.2 2.3-5 2-5-.5 0-1.4-.4-1.3-2.6.1-1.4 1-3.4 1.4-4.4 1-2.2-.6-3.8 3-2.2 5 1.4 1.6-1 5.2-7.2 10.6-3.6 3.2-4.5 4.5-3.7 5.5.9 1 .3 1.8-2.3 3.4-4.2 2.6-5 2.6-3.7.1zm13.5-24.7c2-2.5 3.5-5 3.5-5.4 0-1.7-5 1.8-5.8 4l-1.7 4.3c-1.2 3 .3 2 4-2.9zm-9-1.1c-.6-.7-3.4 2.8-3.4 4.3 0 .5 1-.1 2-1.4 1.1-1.3 1.8-2.7 1.5-3zm23.2-4.4c-.3-.8-.5-.6-.6.6 0 1 .2 1.6.5 1.3.4-.3.4-1.2.1-2zM494 154c0-1.5-.1-1.5-1-.2-1.2 2-1.2 3.3 0 2.5.6-.4 1-1.4 1-2.3zm8-1.3c1-2.2 1-3.6.3-5.2l-1.6-3.7c-.3-.9-.5.3-.5 2.5s-.3 5.5-.7 7.4c-.9 4 .7 3.5 2.6-1zm-12-11c0-.5-.4-1-1-1a1 1 0 0 0 0 2c.6 0 1-.4 1-1zm91 47.1c0-.6.5-1 1.1-1 .6 0 .8.4.4 1-.3.5-.8 1-1 1s-.5-.5-.5-1zm-224.8-.9a3.6 3.6 0 0 1-1.3-1.9c-.3-.9 1.9-1.4 7.6-1.7 8-.4 12 .5 10 2.3a45 45 0 0 1-16.3 1.3zm260.8-.7c0-.8.5-1.2 1-.9.6.4.8 1 .5 1.6-.9 1.4-1.5 1.1-1.5-.7zm12 .2c0-.9.5-1.6 1-1.6s1 .4 1 1c0 .5-.4 1.2-1 1.5-.5.3-1 0-1-1zm6.8-.2c-1-1 .3-3.4 2-3.4.8 0 1.3.7 1 1.7-.3 1.8-2 2.7-3 1.7zm-105.6-1.8c.2-1 .8-1.7 1.3-1.7 1.5.1 1.3 2.4-.3 2.9-.8.3-1.2-.2-1-1.2zm-125.5-.3c-1.6-1.6-.5-3.3 2.3-3.3 2 0 3 .5 3 1.4 0 2-3.8 3.4-5.3 2zm283.5-1.9c.2-1.5 1-3 1.7-3.2 1-.3 1.2.4 1 2.4-.2 1.5-1 3-1.7 3.2-1 .3-1.2-.4-1-2.4zm-500.9.5c-1.8-1.9-.2-4 3.1-4 1.7 0 4.3-.6 5.6-1.4 3-1.7 8.6-2 9.6-.5 1 1.6-1.5 4-4.3 4-1.3 0-3 .7-3.9 1.5-1.8 1.7-8.5 2-10 .4zm414 0c.5-1.6 6.6-1.9 7-.4.1.5-1.5 1.1-3.6 1.3-2.9.2-3.8 0-3.4-1zm25.2 0c-.4-.6-.2-1.5.3-2 .7-.8 1.3-.7 1.7 0 .4.7.3 1.7-.2 2.3-.7.6-1.3.6-1.8-.2zm-388.3-1.1c-2.3-2.3-1-2.8 7.3-2.8 6.5 0 8.6-.4 9.3-1.5.7-1.2 3.3-1.5 13.4-1.7 12.2 0 16 .5 14.2 2.2-.5.5-6.2 1.1-12.6 1.5-7 .4-13 1.2-14.5 2-3.4 1.8-15.4 2-17 .3zm307.4-.4c-1.9-1.9-2-4.4-.3-4.4 2 0 5.7 3 5.7 4.5 0 2-3.4 1.9-5.4 0zm125.7 0c-1.8-.8-1.6-6 .2-6.8 1.2-.4 1.5.3 1.5 3.4 0 2.2 0 4-.2 4l-1.5-.7zm-379.3-4c0-.7.4-1.6.8-1.9 1.3-.8 3.6 1 2.8 2.3-1 1.6-3.6 1.3-3.6-.4zm603.3.3c.5-1.6 8.6-1.8 9-.3.1.5-2 1.1-4.6 1.3-3.7.2-4.7 0-4.4-1zm22.3.4c-1.5-1.5 0-2 6.5-2.1 3.9 0 13.2-.8 20.7-1.6 9.2-1 14-1.2 14.6-.5 2.3 2.2-1.6 3-17.9 3.5-9.3.3-18.4.7-20.1 1-1.7.2-3.4 0-3.8-.3zm-59.1-1.3c-1-1.7 1.3-3.6 2.7-2.2 1.1 1.2.4 3.3-1.1 3.3-.5 0-1.2-.5-1.6-1.1zm49.6 0c0-.5 1-1 2.5-1s2.5.5 2.5 1c0 .6-1.2 1-2.5 1s-2.5-.4-2.5-1zm-224-1.3c-.5-.7-1.3-2.7-1.7-4.5-.3-1.7-1-3.1-1.5-3.1a.9.9 0 0 1-.8-.9c0-.8 9.4 2 10.6 3.2.4.4-.1 1-1 1.3-1 .3-1.6 1.7-1.6 3 0 2.6-2.1 3.2-4 1zm142-.5c-1.8-.3-3.6-1.1-3.8-1.8-.2-.8 3.4-1 14-.7 13.7.3 18.3 1.4 11.7 2.8-3.8.7-17.1.6-21.9-.3zm-495.5-1c-1-1.6.3-1.9 17-2.9 13.6-.9 18-.5 16.1 1.4-.8.9-3.3 1.1-19.8 2-9 .5-12.8.3-13.3-.5zm346-1.2c-1-1.5 0-2.3 2-1.5.9.3 1.3 1 1 1.6-.9 1.3-2.3 1.3-3 0zm16.9-1c-1.9-2-1.9-2.1 0-3.5 2.4-1.8 3.6-1 3.6 2.6 0 3.5-1 3.8-3.6.9zm-305 0-3.9-.4 2.8-1.3a37 37 0 0 1 10.7-1.2c7.2 0 8 .2 8 2 0 1.7-.7 1.9-6.8 1.7-3.7-.1-8.5-.4-10.7-.7zm320-.4c-.8-2 .3-6.5 1.6-6.5s1.2 6.7 0 7.5c-.6.3-1.3 0-1.7-1zm-281-.5c-1.4-2.4 14.7-4.8 16.6-2.4.8.9.5 1.5-1 2.3-2.4 1.4-14.7 1.4-15.5 0zm286.6-4.2c-2-4.5-1.8-6.7.5-4.8.7.6 2.3.8 3.4.5 1.8-.6 2-.2 2 2.3 0 7.3-3.1 8.3-6 2zm72.4 1.2c-.7-1.3 2-2.5 3.5-1.5.6.3.8 1 .5 1.5-.8 1.3-3.2 1.2-4 0zm140.1.1c-.7-1.3-.2-1.4 3.7-1.1 1.6 0 10-.9 18.9-2 11.6-1.7 16.3-2 17.1-1.2s.7 1.2-.3 1.5a41 41 0 0 1-12.4 2.7c-1.7 0-8.3.2-14.7.6-8.1.4-11.8.3-12.3-.5zm-404.2-5c-5.9-4.8-7.8-7.3-6.6-8.5 1-1 1.6-.7 5.2 2.4 2 1.6 4 3 4.7 3 1.3 0 6.3 5.6 6.3 7 0 2.2-3.9.6-9.6-4zM736 168c-.8-.2-3.7-1.5-6.5-2.8l-9.6-4.4a18 18 0 0 1-5.4-3.2c-.4-.6-1.8-.8-3.5-.4-2.2.5-3.1.2-3.5-1-.5-1.1-1-1.2-2.5-.3-2.4 1.5-3.3.6-3.3-3.2 0-3.8 1-4.8 3.3-3.3 1.4.9 2.1.8 3.3-.4 1.8-1.8 6.7-1 6.7 1 0 3.3 14 12.2 23 14.6 2.4.7 4 1.7 4 2.6 0 1.5-2.8 1.8-6 .8zm-218.4-1c-.3-.4-.5-1.4-.5-2.4 0-1.2.5-1.6 2-1.2 1 .3 2 1 2 1.8 0 1.4-2.5 2.7-3.5 1.7zm-224-1.3c-1.1-1.7.4-3 3.6-3 2.3 0 3 .4 2.7 1.7-.4 2-5.3 3-6.3 1.3zm389.6-.7a3 3 0 0 1 2.2-2.2c1.3-.2 1.7.2 1.5 1.5a3 3 0 0 1-2.2 2.2c-1.3.3-1.7-.2-1.5-1.5zm326.5-.1c-3-1.3-2-2.7 2.1-2.8 2-.1 5.6-.5 8-.9 4.3-.7 6.2.4 3.8 2.4a25.6 25.6 0 0 1-13.9 1.3zm-183.2-1.3c-.5-.8-2.6-1-6.7-.6-4.5.5-5.8.4-5.5-.6.8-2.4 15.5-1.6 15 .8-.2 1.5-2 1.7-2.8.4zm-133.3-1.5c.5-2.2 2.3-2.3 2.7-.2.2 1.1-.3 1.8-1.3 1.8s-1.6-.7-1.4-1.6zM566.7 161c-.3-.4-.6-1.5-.6-2.6 0-2.6 2.4-1.7 2.8 1.1.3 2.1-.8 2.9-2.2 1.5zm5-1.6a33 33 0 0 1-.6-6.5c0-5.5 2.4-5.9 3.3-.5l1.3 6.5c.5 2.3.3 2.8-1.4 2.8-1.2 0-2.2-.9-2.6-2.3zm268.2.5c-.8-1-.3-1.2 2.3-1.2 5.1 0 33.1-1 35.3-1.3 1-.1 2 .3 2.3 1 .8 2.2-38.1 3.8-40 1.5zm-201.3-1.2c-.4-.6-.2-1 .4-1 .6 0 1 .4 1 1 0 .5-.1 1-.4 1-.2 0-.7-.5-1-1zm249-1c-.4-.6-.6-1.3-.4-1.5l13.6-.9c11.3-.5 13.3-.3 13.3.9 0 1-1.3 1.5-4.8 1.5-2.6 0-8.4.3-12.8.6-5.9.5-8.4.3-8.9-.6zm-280.8-.7c-1.1-1-.9-4.3.3-4.3 1.5 0 2.4 3 1.3 4-.5.6-1.3.7-1.6.3zm189.9-.2c-3-.4-5.2-1.2-5.4-2-.4-1.1.3-1.3 3.4-.8 2.1.4 6.5.6 9.6.7 4.5 0 5.8.3 5.8 1.5 0 1.6-3.7 1.7-13.4.6zm120.6-.9c.2-1.4 1.8-1.9 8.8-2.4 7.7-.7 11.7 0 9.2 1.5-1 .7-13.4 2.6-16.5 2.6-1.3 0-1.8-.5-1.5-1.7zm-233-1.5c-2.2-2.3-3-5.7-1.5-5.7 1.1 0 7.3 6 7.3 7 0 1.8-3.7 1-5.9-1.3zm-123-3.2c-.7-3.5-.7-5 .3-6.3 2-2.6 3.3-.6 3.6 5.3.2 3.8 0 5-1.2 5.2-1.1.3-1.9-1-2.6-4.2zm225.3 3.5c-.3-.5-.1-1.2.5-1.5s1 0 1 1c0 1.7-.6 2-1.5.5zm239 0c-1.3-2.2.7-2.8 8.4-2.6 8.3.2 9.8.6 8.6 2.5-.8 1.4-16.2 1.4-17 0zm-434.4-1.4c-2-2.3-4.1-8.5-4.1-11.7 0-4 2.2-3.5 3 .8.4 1.6 1.6 4.4 2.8 6 1.2 1.7 2.2 3.8 2.2 4.7 0 2-2.4 2-3.9.2zm75.1-.9c-3.5-2.5-4.3-5.7-1.4-5.7 2.3 0 7.5 4.6 7 6.2-.7 2-2.2 1.9-5.6-.5zm-206.2.2c0-.6.4-.8 1-.4.5.3 1 .8 1 1 0 .3-.5.5-1 .5-.6 0-1-.5-1-1.1zm188.3-.4c-.3-.8-.2-1.9.1-2.4 1-1.6 3.6-.1 3.6 2 0 2.2-2.8 2.5-3.7.4zm-322.4-.6c-2.1-1.3.6-3.7 4.8-4.2 2-.3 4.8-.8 6-1.2 1.7-.6 2.3-.4 2.3.8a3 3 0 0 1-1.1 2.2c-2.4 1.5-10.8 3.2-12 2.4zm513.6.1c-1-1.6.6-1.8 16.9-2 16 0 19.6.3 19.6 2 0 1.3-35.7 1.3-36.5 0zm-221.5-1.5c0-1 .4-1.5 1-1.3.6.1 1.1.7 1.1 1.3s-.5 1-1 1.3c-.7.2-1.1-.4-1.1-1.3zm-19-1c-1-1.2-1-2-.2-2.8.8-.8 1.3-.7 1.7.6 1 2.6 0 4.1-1.5 2.2zm26.5-1c-1-1.7-1.3-3.1-.8-4.1.8-1.3 1.5-1 4.6 1.7 4.4 3.9 4.6 4.9.8 4.9a5 5 0 0 1-4.6-2.6zm-174.2 0c-1-2.8 1-3.7 6.3-2.8 3.2.5 4.9 1.3 4.9 2.3 0 2.2-10.3 2.7-11.2.4zm435.7.7c0-1 18-2.6 18.8-1.7 1.3 1.2-1.7 1.9-9.9 2.3-5.4.2-9 0-9-.6zm-136.3-1c-4.7-.5-4.5-2.5.3-3.4 2-.3 4.3-1 5.2-1.3 1.2-.5 2-.2 2.4.9.7 1.8-1.3 4.7-3 4.4l-5-.6zm185.6 0c-3-.3-5.1-2.6-3.5-3.6a120 120 0 0 0 31.8-.2c4.5-.7 6.4.6 4.3 3.1-1 1.2-4 1.4-15.3 1.3-7.8 0-15.6-.3-17.3-.6zm-141.7-1c-1.8-.4-2.1-1.8-.6-2.8 1.7-1 20.5-1.4 22-.4 2.8 1.7-.6 2.8-10.1 3.1-5.3.2-10.4.2-11.3 0zm-414.6-1.3c-13.6-1.4-20-3.2-20-5.6 0-2.4 2.5-2.6 9.1-.8 3.5.9 10.4 1.7 15.4 1.9 7.3.1 9 .5 9.3 1.8.3 1.5-1.5 2.4-5.8 3.2-.9.1-4.5-.1-8-.5zm59.5-.2c-3.2-1.8-1.4-2.8 4.2-2.5 4.5.2 5.8.6 6 2 .4 1.4-.3 1.7-4.2 1.5-2.5 0-5.2-.6-6-1zm100.5-.7c0-1 .5-2.2 1-2.6 1.5-.9 3 1.4 2.3 3.2-.8 2-3.3 1.6-3.3-.6zm243 .5c0-.9.4-1.5 1-1.5s1 .6 1 1.5c0 .8-.5 1.5-1 1.5s-1-.7-1-1.5zm-366-1.4c0-2 5-6.2 7.4-6.2 2.3 0 4.6 1.2 4.6 2.4 0 1.1-8.7 5.7-11 5.7-.5 0-1-.9-1-1.9zm-74-.7c0-1.9 7.3-5.4 11.3-5.4 4.5 0 2.9 2.9-2.8 5-6.1 2.4-8.5 2.5-8.5.4zm191.5.6c-.3-.5.3-2.8 1.4-5 3.2-6.2 2.8-7.6-3-9.7-5-1.8-6.5-4.4-3.4-6.1.8-.5 3.7-3 6.3-5.4 3-3 6.5-5.1 9.9-6.2 6.5-2.1 6.5-2.1 6 .6-.1 1.5-1.4 2.6-4.3 3.7-6 2.2-7.4 3.7-7.4 8 0 3 .5 4.2 2.5 5.4 1.3 1 2.5 2.5 2.5 3.5s.5 2.3 1.1 2.9c1.6 1.6.3 4.3-2 4.3-1.1 0-2.5-.8-3-1.8-1-1.6-1-1.6-1.6.2-2.1 6.4-3.5 8-5 5.6zm-130-.8c-.9-1.6 1.2-3.3 4.8-4 2.8-.4 3.7-.2 3.7 1 0 2.4-7.2 5-8.4 3zm203.3-.5a21 21 0 0 1-3.3-4.1c-1.4-2.3-1.5-3.4-.7-5.3 2-4.2 5.2-2.5 5.2 2.7 0 1.1.5 2.9 1.2 4 1.6 2.5-.1 4.5-2.4 2.7zm294.2-.9a14 14 0 0 0-5-.7c-4.9.3-7.5-.1-6.5-1.1s4.8-1.4 22.6-2.6c7.4-.5 8.7-.3 9.3 1 1 3-.4 3.6-8.4 3.5-4.3-.1-8.2 0-8.7.3s-2 .1-3.3-.4zm-373.5-2c-1-3.8-.3-7 1.7-8.2 4.2-2.7 4.8 3.6.9 8.5l-2 2.4zm402.8.6a3 3 0 0 1 .4-2.6c1.7-1.7 4.7-.5 5.1 2 .3 1.7-.2 2.2-2.3 2.2-1.4 0-2.9-.7-3.2-1.6zm-720.8-1.4c-.7-1 .6-2 3.5-2.6 1-.2 2.8-1 3.9-1.7 1.8-1.3 1.6-1.4-2.7-2.6a336 336 0 0 1-6-1.7c-.8-.3-1.2-1-1-1.7 1.2-3.2 14 .4 15.3 4.2.4 1.3 2.5 1.5 13.2 1.3 7-.1 16.3-.7 20.7-1.3 6.3-.9 8-.9 8.7.2 1.6 2.7-1.8 4-12.7 5a89 89 0 0 1-19.4-.2c-7.1-.9-9.2-.8-13 .5-4.8 1.7-9.6 2-10.5.6zm478.6-5.1c-3.8-5.8-6.1-13.3-4.6-14.8.8-.9 4.5 3.6 4.5 5.5a19 19 0 0 0 3.5 6c3.6 4.8 4.6 9.4 2 9.4-.8 0-3.3-2.8-5.4-6.1zm152 4.4c.5-2.3 12.5-7 14-5.6 1 1 .3 1.6-2.7 2.7a79 79 0 0 0-6.8 3c-3.6 2-4.9 2-4.4 0zm157.3.8c-.2-.3-.4-1.3-.4-2.2 0-1.5 1.4-1.8 9.7-2.3a493.6 493.6 0 0 1 17.3-.9c2-.2 2.5.2 2.5 1.7 0 1.7-.8 2-4.5 2.2l-14.3 1c-5.4.5-10 .7-10.3.5zm-707.4-.8c-6.3-1-7-1.4-7-3.5 0-2 .4-2 8.2-1.7a86 86 0 0 0 15.6-1c5.6-1 7.6-1.1 8.5-.2 2.1 2.2-2.6 4.7-10 5.5l-9.8 1c-1.7.2-4.2.1-5.5 0zm665.5-.4c-.4-.6-.3-1.6.3-2.1.6-.7 1.2-.6 1.7.1.4.7.3 1.7-.3 2.2-.7.7-1.2.6-1.7-.2zm-682.9-2.4c-.7-2 1.7-3.8 3.2-2.4.8.9.8 1.6 0 2.5-1.4 1.7-2.5 1.7-3.2 0zm56.4 0c-2-.7-3.7-2-3.9-3-.3-1.6.2-1.7 3.5-1.1 2.1.3 6.1 1 8.9 1.3 3.4.5 5 1.2 5 2.2 0 2-8.7 2.4-13.5.7zm738.2.4a3.3 3.3 0 0 1-2.2-3c0-1.5.6-2 3-2 2.5 0 3 .4 3 2.5 0 3-.9 3.6-3.8 2.5zm-24.6-1.7c-1.3-2.2 1.3-3.4 7-3 4.4.2 5.9.6 5.9 1.7 0 1.2-1.5 1.6-6.2 1.8-3.4.2-6.4 0-6.7-.5zm-370.4-7.5c-2.8-3.6-2.4-8.2.9-9 1-.4 1.9-1.3 1.9-2 0-2 2-2.7 4.8-1.7 2 .8 2.3 1.5 2 5.2-.3 3.5-.7 4.3-2.5 4.5a3.7 3.7 0 0 0-2.8 2.3c-.7 2.2-2.8 2.5-4.3.7zm-484.8-1.6a53 53 0 0 0-13-4.2c-1.5 0-4.4-2.7-4.4-4 0-1.4 5.5-1.2 9.2.4 1.8.8 5.2 2 7.6 2.7 4.7 1.4 7.2 4.3 4.6 5.3-2.1.8-2.8.8-4-.2zm381.6-7.7c-1.3-3.4-1.3-9.2 0-10 1.6-1 6 4.5 6 7.5 0 5-4.4 6.9-6 2.5zm86.6.7c-.5-.7-.5-1.6-.2-1.9.9-.9 1.9.4 1.4 1.9-.4 1-.6 1-1.2 0zm-92-.9c-1.1-1-.7-2.3.9-2.3.8 0 1.5.5 1.5 1 0 1.2-1.6 2.1-2.4 1.3zm97.5-1.7c-3.2-1.2-6-4.6-6-7.3-.1-1.8 2.4-1.6 3.9.2.7.9 1.8 1.4 2.4 1.3 2-.5 6.9 4 6.2 5.7-.6 1.8-1.8 1.8-6.5 0zm138.9-.6c0-.8 1.2-1.2 7.2-2.4 2.2-.5 2.4 2 .2 2.8-2.5 1-7.4.7-7.4-.4zm-179-4c-.6-1-1-2.8-1-4 0-1.8-.7-2-5.8-2-7.8-.2-10.7-1.1-10.7-3.5 0-1.6.6-2 3-1.7l9.2.9c3.4.2 6.6 1 7.2 1.7.6.7 1.4 3.4 1.7 6 .5 3.8.4 4.6-1 4.6-.8 0-2-.8-2.6-2zm-56.9.1c-1-.6-1-1-.2-1.6 1.4-.8 2.4 0 2 1.4-.3.6-1 .7-1.8.2zm32-1.3a4 4 0 0 0-4-2.3c-2.9 0-3.7-2.3-1.1-3.5l4.7-2.4c4-2 4.6-1.2 4 5.5-.3 4.9-1.8 6-3.6 2.7zm-454.1-3.6c-3-2.5-7.3-4.7-13.1-6.6-10.4-3.4-11.4-4-10.6-6 .5-1.4 1.5-1.6 5.4-1 2.6.3 5.2 1 5.8 1.4a26 26 0 0 0 5 2c6 2 15.3 9 15.4 11.8.1 3.3-2.7 2.8-8-1.6zm434 2c0-1.2 1.5-3.3 3.4-4.7 2.8-2.2 3.8-2.4 5.5-1.5 4.2 2.2 1.3 6.3-5.2 7.4-3.3.6-3.7.5-3.7-1.3zm56 .5c-2-.8-3.7-2.2-3.9-3.1-.3-1.6.2-1.7 3.5-1 2.1.3 7.3.6 11.4.5 5.2 0 8.2.4 9.5 1.3 1 .8 1.7 1.7 1.4 2a61.3 61.3 0 0 1-22 .3zm190.5-2.6c-1-1.6 4-4.2 12.2-6.2 4.3-1 9.4-2.5 11.3-3.4 1.9-.8 7-2 11.5-2.9 4.4-.8 9.1-1.9 10.5-2.4 2.7-1 5-.6 5 .9 0 1.3-5.5 4-8.2 3.9-1.3 0-5.2.9-8.8 2-6.5 2-31.9 9-32.5 9-.2 0-.7-.4-1-1zM225.2 102c.3-1.1 1.3-1.8 2.9-1.8 3.5 0 3.2 3-.4 3.3-2.3.3-2.7 0-2.5-1.5zm214 .7c-2.3-1.4-.4-4 2.8-4 1.6 0 3.2-.4 3.6-1 1-1.8 4.7-1.2 4.3.7-.4 2.1-8.9 5.5-10.8 4.3zm-197.1-4c0-.6.4-.8 1-.5.5.4 1 .8 1 1s-.5.5-1 .5a1 1 0 0 1-1-1zm6.4-.1c-.9-1.4 1.7-3.1 3-2 .9 1 0 3.1-1.4 3.1-.5 0-1.2-.5-1.6-1.1zm11-.6c-1.5-1.5-1.5-1.7.2-3 2.2-1.6 6-1.7 7-.1.4.6-.3 2-1.6 3-2.8 2.2-3.4 2.3-5.6.1zm-90.4-2.7c0-.9.4-1.6 1-1.6.5 0 1 .4 1 1 0 .5-.5 1.2-1 1.5-.6.3-1 0-1-1zm-56.9-.8c-1.5-1.6-1.4-3.5.3-4.1 1.7-.7 2.6.1 2.6 2.4s-1.4 3.1-2.9 1.7zM459.1 93c0-.8.4-1.2 1-.9s1 1 1 1.6c0 .5-.5 1-1 1s-1-.8-1-1.7zm423.4.5c-1-1.7.7-2.7 5.6-3 4-.4 4.5-.2 4.8 1.9.3 2 0 2.2-4.7 2.2-2.8 0-5.3-.5-5.7-1zM276.4 92c-.9-2.3.3-3 9-4.7 9.8-2.1 13.7-2.2 13.7-.2 0 1.9-2.3 2.8-11.7 5-8.9 1.9-10.2 1.9-11 0zm192.1.6c-1-1.6.4-2.6 1.7-1.3.7.7.7 1.3 0 1.7-.5.4-1.3.2-1.7-.4zM7.5 91C6 89.9 5 87 5.7 85.3c.6-1.6 8.6-3.5 14.4-3.4l13-.2c9.8-.3 14 .8 14 3.5 0 2-3.6 3.7-6.6 2.9a8.4 8.4 0 0 0-4.8.4 25.6 25.6 0 0 1-14.3 2.7 21 21 0 0 0-10.3 0c-1.4.3-3 .2-3.6-.2zM306 89.8c0-2.4 1.5-3.5 3.7-2.7 1.4.6 1.4.9-.2 2.6-2.3 2.5-3.5 2.5-3.5 0zm594.4.8c-.4-.7.1-1.8 1.1-2.6 1.6-1.1 2.1-1.1 3.3.1.8.8 1.1 1.9.7 2.5-.9 1.5-4.2 1.4-5.1 0zM424 89.3c0-.8.3-1.7.8-2 1.3-.8 3.5 1 2.7 2.3-1 1.6-3.5 1.4-3.5-.3zm16.4.3c-1-1.6 1.1-3.3 3.1-2.5 1.4.5 1.5 1 .5 2.1-1.5 1.8-2.7 2-3.6.4zm38 0c-1-1.5 1.5-3.9 4.2-3.9 2.5 0 3.1 1.9 1.2 3.8-1.5 1.5-4.5 1.6-5.4.2zm90.2.4c-.3-.3-.6-1-.6-1.4 0-.9 9.6-6.9 11-6.9 2.2 0 .7 2.8-3.2 5.8-4.2 3.2-5.9 3.8-7.2 2.5zm281.9-.3c-.4-.5 0-1 1-1 .9 0 1.3.5 1 1-.4.6-.8 1-1 1-.2 0-.7-.4-1-1zM85 87.8c-4.6-3.4-19.2-5-24.8-2.8-4.4 1.7-6.2 1.3-6.2-1.4 0-3 4.3-5 13-6.2 6.8-.9 8.2-.8 9.7.5a14 14 0 0 0 5.6 2.2c2.2.4 4.6 1.1 5.5 1.6s2.5 1.1 3.4 1.4c4.1 1.3 2.8 6.6-1.6 6.6a10 10 0 0 1-4.6-1.9zm312.5 1.3-4.3-1c-1.4-.3-2.2-1.2-2.2-2.5 0-1.9.4-2 4.2-1.3 2.4.4 6.9.7 10 .6 4.3 0 6 .4 6.5 1.4.3.8.3 1.6.1 1.8-.6.7-12.3 1.4-14.3 1zm19-.5c-1.1-1.7 1.2-3.6 2.6-2.2 1.1 1.2.4 3.3-1.1 3.3-.5 0-1.2-.5-1.6-1zM361 84.3a29 29 0 0 0-7.4-2c-6.5-1-7.5-1.5-7.5-3.7 0-2.3-.2-2.3 8-.5 14.4 3.3 17.7 4.6 16.4 6.7-.8 1.4-6.6 1-9.5-.5zm723.7.7c-.9-.9-.8-6.3.1-6.3.4 0 1.6 1.1 2.5 2.5 1.7 2.3 1.7 2.5 0 3.4-1.1.6-2.2.7-2.6.4zm-769.1-3.3c-.8-1.2.2-3 1.5-3 .5 0 1 .9 1 2 0 2.1-1.5 2.7-2.5 1zm171.1.3c-.3-.3-.6-1.9-.6-3.4 0-1.8.6-2.8 2-3.2 1.2-.3 1.8-1 1.4-2-.7-1.8 2-4.1 4.1-3.3 2.4.9 1.3 3.9-1.5 4.6-1.4.4-2.4 1.3-2.2 2 .8 3.5-1.4 7.1-3.2 5.3zm-161.6-2.3c0-.6.4-1 1-1a1 1 0 0 1 0 2 1 1 0 0 1-1-1zm5.3-.8c-1.8-1.1.1-3.6 2.1-2.9 1 .4 1.6 1.2 1.3 1.9-.5 1.5-2 2-3.4 1zm234-.7c-.4-1 .2-2.5 1.5-3.7 1.8-1.9 2.6-2 7.3-1.2 8.8 1.5 7.2 4.3-3.4 5.8-3.9.6-4.9.4-5.4-1zm23.1-4.6c-1-1.7 1.3-3.6 2.7-2.2 1.1 1.2.4 3.3-1.1 3.3-.5 0-1.2-.5-1.6-1.1zm4.8-2.7c.5-2.6 3.8-2.9 3.8-.3 0 1.4-.7 2-2.1 2-1.4 0-2-.5-1.7-1.7zm-96-2.8c.4-2.1 2.2-2.3 2.6-.2.2 1.1-.3 1.8-1.3 1.8s-1.5-.7-1.4-1.6zm86-1.7c-1-1.2-1.1-2.1-.4-3.4 1-1.7 1-1.7 1.7-.1.3.9.5 2.4.3 3.4-.3 1.5-.4 1.6-1.7 0zm20.3.3a2 2 0 0 1 .2-2.2c.7-.7 1.3-.6 1.8.2.4.6.2 1.6-.3 2.2-.7.6-1.3.6-1.7-.2zm-97.5-5c0-1.1.4-2 .9-2 1 0 2.1 2.6 1.3 3.4-1.2 1.2-2.2.5-2.2-1.4zM287.7 61c-3.6-1-4.7-1.8-4.4-3.1.3-1.4 1.2-1.7 4.8-1.4 4.7.4 7 1.6 7 3.7 0 2-2.2 2.3-7.4.8zm281.4-.8c0-1 .6-1.5 1.7-1.3 2.1.4 2 2.1-.2 2.6-.9.2-1.5-.4-1.5-1.3zm-13.9-1c.5-2.3 2.3-2.4 2.7-.3.2 1.1-.3 1.8-1.3 1.8s-1.5-.7-1.4-1.6zm8.9.5c0-.6.4-1 1-1s1 .4 1 1c0 .5-.5 1-1 1s-1-.5-1-1zm46.7.3c-1.5-1.4-.7-3.3 1.3-3.3 1.4 0 2 .5 1.8 1.6-.4 1.9-2 2.8-3.1 1.7zm-101.2-1.2c-1-1.8 4-6 8-6.7a19 19 0 0 1 8.9.8 23 23 0 0 0 8.1 1.1c2.1-.3 3.5 0 4.4 1.1 2.2 2.7 0 3.7-8 3.6l-11-.2c-2 0-4.8.3-6.6.7-1.9.4-3.4.2-3.8-.4zm36.5-.6c0-1 .6-1.5 1.7-1.3 2.1.4 2 2.1-.2 2.6-.9.2-1.5-.4-1.5-1.3zm155.1-.7c.5-3.2 2.9-3.5 2.9-.4 0 1.7-.6 2.6-1.6 2.6s-1.5-.8-1.3-2.2zm-432.6-3.3c-10.6-5.6-6.2-9 4.8-3.7 6 2.8 8.4 5.1 7 6.6-1.4 1.3-6.2.1-11.8-2.9zm443 1.5c-.9-2.7 0-3.8 3.6-4.6 2.1-.4 3.5-.2 4.6.8 1.3 1.3 1 1.8-2 3.6-4.3 2.7-5.4 2.7-6.2.2zm-552.2-.5c-1.6-4.3 2.9-7 7.6-4.6 3 1.6 2.5 3.7-1 5-4.3 1.4-5.9 1.4-6.6-.4zm783.6.3c-3-1.1-2.4-3.8.8-4 1.5 0 7.5-.6 13.3-1.3 10.6-1.3 12.7-1 11.6 1.9-.4 1.2-2 1.6-6.4 1.6-3.1 0-7 .6-8.5 1.4a14.3 14.3 0 0 1-10.8.4zm-213-2.3c0-1.8 7.1-5 14.6-6.5 5.9-1.3 7-1 6.2 1.3-.6 1.5-9.2 4.7-12.6 4.7-1.1 0-2.3.4-2.6 1-1 1.5-5.5 1.2-5.5-.5zm-556.6-2c-.3-.9-.1-2.2.5-2.8.8-.8 1.3-.6 1.7.7.4 1 .2 2.2-.4 2.8-.8.8-1.3.6-1.8-.6zM186 50c-1.4-1.7-.5-2.7 4.3-4.8 3.3-1.3 3.8-1.3 5 0 1.5 2 .2 3.3-4.6 5-2.9 1-3.7 1-4.7-.2zm33.6.1c-1.6-.7-4.4-1.4-6-1.4-3.5 0-5.8-2-4.6-3.8.6-1 2.2-1 7.2-.2 3.6.6 8 1.1 10 1a93 93 0 0 0 18-1.4c2.3-1 4.6 1.9 3 3.7-2.7 3.3-21.8 4.8-27.6 2.1zM622 48.7c0-1.1.7-2 1.5-2s1.5.9 1.5 2-.6 2-1.5 2-1.5-1-1.5-2zm25 .5c-7.3-2-11.7-4.2-12.9-6.4-1.6-3 .6-3.8 4-1.3 1.8 1.4 4.4 2.2 7 2.2 6.3 0 11 3 8.8 5.7-1.3 1.5-1 1.5-6.9-.2zm342.3-.2c-.7-.3-1.3-1.3-1.3-2.3 0-1.4 1.3-2.1 5.1-3 7-1.4 8-1.3 8 .8 0 2.6-8.6 5.9-11.8 4.5zM199 44.7c0-.6.5-1 1-1a1 1 0 0 1 0 2 1 1 0 0 1-1-1zM478.5 42c-2.2-.8-5.3-1.6-6.9-1.8-3.5-.5-6-2.8-5.3-4.9.5-1.2 1.5-1.2 7.4.4l9.7 2.4c2.1.5 2.7 1.1 2.5 2.8-.4 2.8-2.2 3-7.4 1.1zm481.6.7a50 50 0 0 0-8.5-2.6c-7.7-1.8-10.7-3.7-8.9-5.5.8-.8 2.5-.7 6 .5l10.6 3.2c4.3 1.2 5.7 2 5.5 3.2-.3 2-2.7 2.5-4.7 1.2zm-195.6-1.1c-1-1.5 2.1-4 5-4 1.2 0 3-.6 4-1.3 3.2-2.1 22.4-8.4 29.5-9.6a29 29 0 0 0 9-3c3.8-2.6 5.8-3 7-1.7 1.8 2.3-2.1 4.6-15.1 8.7L785 37a149 149 0 0 1-18.1 5.4c-.9.2-2-.1-2.4-.8zm258.1.2c-.3-.5-.3-1.6 0-2.3.7-2 8.7-6 13.4-6.6 3.7-.5 4.2-.3 3.9 1.3-.2 1-2 2.3-4.3 3.1-2.2.8-4.6 2-5.5 2.8-2.1 1.9-6.7 3-7.5 1.7zm-106.3-3.2c-2.5-1-3-2.5-1-3.2 1.7-.7 8.8.6 8.8 1.5v1.8c0 1.2-4.7 1.2-7.8 0zm15.2 0c-.3-.6-.1-1.7.6-2.5.9-1 1.6-1.1 3.1-.4 1.6.9 1.7 1.4.8 2.5-1.4 1.7-3.6 1.9-4.5.4zM344.7 38c-.4-.4-.7-1.5-.7-2.5 0-1.5.8-1.9 3.6-1.9 2 0 4.5-.4 5.6-1a10 10 0 0 1 5.4-.5c2.7.5 3.4 1.1 3.4 3s-.6 2.4-3.7 3c-5 .7-12.8.7-13.6-.1zm110-.4c-2.3-1.4-2.1-3.7.4-4.5 3-1 5.8 1.8 4 4-1.5 1.8-2 1.9-4.3.5zm451 .4c-1.4-1.4-.6-3.3 1.4-3.3 1.4 0 2 .5 1.8 1.6-.4 1.9-2.1 2.8-3.2 1.7zm-535-1c-1.4-1.4-.6-4.4 1.2-4.4 2.6 0 3.2 1 2 3.2-1 2-2 2.3-3.2 1.2zm515.3-.3c-2.5-1.4-22-5.9-31.2-7.2-7.4-1-8.8-1.5-8.8-3 0-2.1 3.3-2.5 7.6-.8 1.5.6 5.3 1.2 8.4 1.5 3 .2 10 1.6 15.6 3 5.4 1.3 10.7 2.4 11.6 2.4.9 0 2.2.8 2.9 1.6 1 1.3 1 1.8-.1 2.5a5.7 5.7 0 0 1-6 0zM424.5 36c-6.7-.5-8.5-1.1-8.5-3.3 0-1.7.7-2 6.3-2 6.1 0 8.7 1.1 8.7 3.6 0 1.6-1.6 2-6.5 1.7zm719-.3c-1.6-.4-5-.8-7.5-.8-2.5-.1-7-.8-10.1-1.6-3-.8-9.4-2-14-2.6l-23.4-3.5c-2.7-.4-5.3-1.2-5.6-1.7-.4-.6-2 0-3.8 1.3-2.6 2-3.5 2.2-5 1.2a9 9 0 0 0-4.2-1.3c-2.7 0-12.6 2.9-16 4.7-2.7 1.3-5.9 1-5.9-.7 0-3.4 9.3-7.3 22.5-9.4 8.6-1.4 9.2-1.4 12.3.5 3 1.7 5.3 2 22.4 2h19l1.1 3c1.1 2.8 1.4 3 5.7 2.4a164 164 0 0 1 27.4-1.4c1.6 1.4.1 5.4-2.4 6.6-3.6 1.6-9 2.2-12.5 1.3zM380 34.2c0-.8.5-1.7 1-2 1.4-.9 4.2 1.3 3.5 2.6-1 1.4-4.5 1-4.5-.6zm7.2-.8c-1.5-1.5-1.5-3.4 0-4.4 1.6-1 12-1 14 0 1.8.7 2.6 4.6 1 4.7-5.8.8-14 .6-15-.3zm140.7-.6c-1.3-1-4.6-2.9-7.4-4.2-9.5-4.4-14.5-10-9.1-10 2.6 0 8.2 2.6 9.2 4.2.4.5 2.5 1.8 4.8 2.8 5 2.1 8 5.4 7.3 7.5-.8 2-1.9 2-4.8-.3zM410 32.1c0-1 .7-1.5 1.7-1.3 2.5.5 2.8 2.8.4 2.8-1.2 0-2-.6-2-1.5zm80.5.5c-.4-.7-2-.9-4-.5-4 .7-5.4-.8-3-3.4 1-1.2 1.3-2 .6-2.5-2.1-1.3-1-2.3 5.7-4.9 6.8-2.7 15.2-3.6 15.2-1.6 0 .5-1 2.5-2.2 4.4-2.5 4-5.8 4.7-5.8 1.5 0-1.7-.4-1.9-2.7-1.3-1.5.3-3.5 1-4.3 1.4-1.2.7-1 .9.6 1 3 0 5.1 2.6 3.8 4.7-1.3 2.1-3 2.6-3.9 1.2zM471 29.8c0-2.4 3.2-4.4 6.2-4 4.7.7 3 4.4-2.4 5.4-3.4.6-3.8.5-3.8-1.4zm272.5-3.1c-1.6-1-6.1-2.4-10-3-6.5-1.1-10.5-3.1-10.5-5.3 0-3 24.9 4 27.2 7.6 2 3-2.3 3.5-6.7.7zm-67.9-1.4c3-5.2 17-10.7 27.7-10.7 4 0 4.7.3 4.7 2 0 2.7-.7 3-8.4 3.1-5 .2-7.5.8-10 2.4-3 2.1-5.3 3-12 4.2-2.3.5-2.7.3-2-1zm154-1.3c-1.6-1.7-.5-3.5 2.2-3.2 3.6.4 4.5 3.8 1 3.8-1.4 0-2.7-.3-3.1-.6zm-4-2.3c-.7-1.1.9-2.3 1.8-1.4 1 1 .8 2.3-.3 2.3a2 2 0 0 1-1.5-.9zm331-19c-.9-1.4.3-3.3 1.5-2.5 1.2.7 1.2 3.4 0 3.4-.5 0-1.2-.4-1.6-1z"/>
</svg>
