<?xml version="1.0" encoding="utf-8"?>
<svg xmlns="http://www.w3.org/2000/svg" version="1.1" viewBox="0 0 1196 595">
	<title>Sketch of a town and castle grouped together on a hillside, with all the buildings apparently touching, surrounded by a wall.</title>
	<path d="m1035 592-7-2c-5 0-7-1-7-5 0-3 1-3 4-1l7 2 5 1 5 3 3 3c0 3-7 3-10-1zm20 2v-4c3 0 7 2 7 3 0 2-5 2-7 1zm130-10a670 670 0 0 0-19-6c-1-2-3-3-5-3-4 0-6-3-4-5 1-2 4-3 6 0 2 2 2 2 4 1 3-3 6-3 13 0 3 2 7 3 10 3 5 1 6 3 6 6l-1 3c-4 1-7 2-10 1zm-179-2c-3-3-2-4 3-4l9 3c0 3-9 4-12 1zm-12-6 1-2c1-2 4-1 4 1 0 3-4 4-5 1zm-18-7-10-5c-7-2-14-8-14-10 0-3 3-2 7 2l9 5c8 2 16 6 16 8s-2 2-8 0zm169-4-8-2c-4 0-5 0-5-2s1-2 5-3c5 0 8 0 13 3 4 2 4 6 1 6l-6-2zm-21-4-1-4c0-2-4-7-7-9-2-2-2-3-1-4 2-1 2-1 6 1s7 8 7 14l-1 4-3-2zm-940-7c-1-2 0-3 13-9 16-8 21-10 24-10 4 0 3 3 0 3-3 1-17 7-27 13-7 4-9 5-10 3zm-9-4c0-2 15-10 16-9 1 2-11 10-14 10l-2-1zm235-2c-2-2-2-4 0-4l4 4c0 2-1 2-4 0zm-129-2v-2c0-1 2-2 3 0 1 1-2 3-3 2zm-62-2c0-1 5-4 11-6 6-1 20-9 20-10 0-3-4-2-6 1l-9 5-5 1 3-3 5-2c2-2 5-7 5-10 0-1 4-6 6-6l3-4 3-3h-3c-5 0 0-5 7-6 2 0 4-1 5-3l4-2c2-1 2-1 2-3 0-3 6-7 13-10l5-2a192 192 0 0 1 27-20l5-6 5-6 3-1c3 0 4-1 2-3v-4c3-3 6 0 6 6 0 2 0 2 1 0 0-3 1-3 5 0 3 2 9 3 13 1l6-2c3-1 4-1 4 1 0 3 3 2 6 0 2-2 3-2 4-1h7l14-3c7 0 8-1 8-2l-2-3-1-2c-1-3-4-4-5-2-2 2-10 4-10 2s8-7 11-7l6 3c1 2 3 3 4 2s1-2-1-2c-2-1-2-2-2-4 0-4-2-7-5-6-2 1-3 0-4-1-1-2-5 0-6 3l-4 4c-3 0-3 0-3 3v3l-1 3c0 1-1 2-2 1v-6c-2-5-2-8 2-9 4 0 11-6 10-7h-3c-2 1-3 0-4-1-3-2-6-1-4 2 1 3 1 3-2 3-1-1-3 0-3 1-1 2-2 0-2-5 0-4-2-4-3 1-1 6-10 11-9 5l-1-2-1 4-2 2c-3 0-9 6-11 11-3 5-6 7-6 3l1-3 2-3c1-3 2-4 6-6 3-2 4-5 2-5s-7 4-8 6c-2 4-3 4-4 0l-3-4c-3-1-3-3 0-3 2 0 7-5 7-8 0-2 1-3 3-3l7-7c4-4 5-5 3-5-4 0-3-2 0-4h5c2 1 4 0 3-3 0-3 0-3 2-3s3-1 3-2c0-2-1-2-5-2l-5 1 2 3c2 1-10 2-19 1h-9l-1 4c0 6-1 7-5 6l-5 1c-1 1-2 2-3 1-2-1-1-3 2-5 3-1 4-1 3-3l-1-4c0-2 1-3 4-3 6-1 5-3-2-3-5 0-5 0-5 2 0 3-1 3-10 2-3 0-5-1-5-3l-1-3h11l11-1c3-1 2-3-1-5-2-2-3-3-1-6v-4l-1-4-2-5c-2-5-2-6 1-6s6 3 6 6l1 2c1 0 2-1 2-3l2-7c3-7 7-17 6-19l2-5c2-1 2-4 2-9 1-8 2-11 5-12 2 0 3-1 4-3 1-3 0-6-2-5-3 1-6-2-9-7-3-6-3-7 1-7 2 0 3 0 3 3 1 4 3 6 4 3 1-1-5-9-9-12l-2-4c0-2-2-2-3-1l1 5c2 4 2 4 0 10-2 7-4 9-11 9l-6 1h-4l-6-2-4-2c0-2 1-2 14-1l12 1-1-4c0-2-3-3-3-1l-2 2-1-10c0-9 0-10 2-11l4-1 2-1-7-7-8-11-2-4-3 2-2 2-12 9a40295 40295 0 0 0-42 29l-1-3c2-4-1-6-6-4-3 2-2 3 1 3s3 1 3 5l-1 7c-1 2-1 2 1 3 3 1 3 1 3 6s0 5-5 7c-3 2-4 2-3 3s0 2-2 3l-2 2c0 2 6 1 9 0 2-2 5-1 5 2 0 2-2 3-7 3l-4 1-12 7c-2 0-1-2 2-3s4-4 1-4c-2 0-8 3-11 6l-5 3v2c2 2 3 4 3 12l1 10 6 2 33 9 6 3c3 2 3 2 4 1 1-2 1-2 4-1 1 1 5 2 9 1 6 0 8 1 10 2 1 2 4 2 10 3 10 1 11 2 1 3-9 0-10 1-10 13-1 9-1 9 1 9s2 0 3-2c1-3 3-4 3-2 1 2 2 2 5 2 4-1 4 0 4 2s0 2-3 3l-5-1-3 3c-3 4-3 6-3 9s0 3-2 3c-1 0-2 1-2 3 1 3-7 9-9 7s-1-5 1-8l3-4 2-2c2 0 3-1 3-2l1-3c1-1 1-2-1-2s-2-1-2-16v-15h-6v9c1 10 1 10-2 10s-3 1-1 3c2 0 2 2 1 5 0 5 0 5 2 4h2l1 3-7-2c-1-1-2-2-4-1-2 2-6 0-6-4l1-4c1-2 1-2 2-1h2l-2-2a420 420 0 0 1-19 0c0 5 1 5 4 3l3-3 3 2c3 2 4 5 2 6h-2c-2-2-3-1-2 1l3 2c4 0 3 1-1 4-3 2-5 3-6 2s-6 2-7 4l2 2c3 1 3 1 5-2 3-2 6-3 6-1l-3 3c-2 3-2 3-7 3-5-1-5-1-7 2l-4 5-3 4-2 4c-2 2-3 3-7 2-3 0-5 1-6 3-3 2-6 3-6 0l3-4c3-2 4-2 10-1 1 1 2-1 4-4l6-8 5-6c1-3 10-10 12-10s1-3-1-3h-8v5c-2 3-7 5-8 4h-8c-2-2-2-4 1-4l3-2 2-1 2-1 4-3 4-4c0-1-2 0-10 6-5 3-7 4-12 2l-5-3v-1l1-2c0-2-3-1-9 2s-7 3-5 0c1-2 1-2-1-2s-2-2 0-2l1-2c-1 0-16 6-17 8h-2l-15 7-6 4c-6 4-6 4-7 2l2-4 31-15c5-1 6-2 6-3l2-5c3-3 1-5-2-2-2 2-5 2-3-1l3-1c2 0 4-2 4-3l-9 2-8 3 8-4c5-2-2-6-8-5l-5 4c-2 2-5 2-5 0s-5-3-7-2l-3 2-3 3-6 4-7 7-7 6c-2 3-5 4-5 2l8-7 5-5 5-5 4-3c0-2-8-2-14-1l-7 1 1-2c2-1 13-3 14-2 2 0 8-5 8-7h-9l-6-1h-3c-1 1-5 1-6-1s6-3 9-2c2 2 4 2 10 0l12-3c6-1 10-2 12 0s12 0 13-2l4-4 3-2 1-3c1-3-1-4-3-1-3 3-11 4-12 1s-4-3-5 0c-2 2-2 2-4 1h-12l-5 1c-2 2 0 3 3 2l4 1-4 2c-5 1-10-1-9-4 1-2 0-2-2-2l-4-1 1 2 3 3h-3l-5-2-10-1-7 2 2 1c3-1 5 1 4 2s-4 1-8-1l-8-2c-5 0-12 2-12 4 0 1 5 1 5-1l2-1c1 0 2 0 1 1v4l-1 3-1-1c0-2-2-3-4-3v3c0 3 0 4 2 4 3 0 4 2 1 2-2 0-3 1-3 2 0 2 0 2 5 1 5 0 5 0 3 1l-5 2c-2 0-3 0-1 1 2 2 2 2-1 3-2 1-3 2-4 1s-2-1-2 2l-3 3c-4 0-6 2-6 4l-1 5c-2 3 0 4 2 1l3-2-1-1c-3-1-3-1-1-3 2-1 2-1 5 2 2 2 2 3 4 2l6-1 4-2 6-3 6-4c0-2-2-1-5 1-3 1-5 0-2-1l2-4c0-2 1-3 4-2 6 0 11 1 11 2l-2 2-2 2c1 1 12 0 14-1l4-3c2-1 2-1 2 1l-2 2-1 1-9 6-1-1c-1-1-2 0-5 1l-6 3-5 2c-2 2-5 2-2 0l1-3c0-2-6 0-9 3-3 2-3 2-5 1l-2-1c-2 1-6 10-8 17-2 5-4 10-6 11-2 2-3-1 0-4 4-7 6-13 4-13v-3c1-3 1-5-2-4l-1 5-1 6-2 5c0 2-1 2-1 1l-4-1c-3 1-3 1 1-3 4-2 5-4 5-6-1-5-3-4-5 2-2 4-5 7-5 4l1-4c3-4 2-5-1-3-2 2-4 7-4 11l-1 6c-3 4-13 14-15 13-2 0-2-2 1-3 5-4 10-9 10-11l-2-1h-6l-8 2v2c1 2 1 2-2 3-2 0-4 1-5 3s-2 2-7 1l-5 1-4 4c-3 3-4 3-6 2-3-1-3-3 0-4s2-3-1-4l-3-1 3-2c2-3 9-6 12-6 4 0 14-3 16-6l4-2c2 0 2-3 0-4-1 0-7 2-8 4l-5 2-9 3c-4 2-9 3-9 1l3-2 5-2 13-3 2-1 5-3 5-3 2-4v-4l-1 2c0 2-3 3-4 1-1-1 6-7 7-7 1 1 2 0 3-1 2 0 2-1 1-2l-3 1-3 1-3 1-5 1-6 3c0 2-1 2-5 2l-6 1-21 6c-3-1 2-4 9-6l12-4c8-2 12-3 13-5h-7l-14 5-1-2-2-1-2-1c0-1 2-2 6-2l10-2 8-2 6-2c2-2 5-3 13-4 7-1 13-4 13-6s3-6 13-16c5-6 8-7 8-5l3 1c2 0 3 0 3-3 0-2 0-2 4-2 3 1 4 0 7-2l4-2c1 1 3 0 4-2 3-2 6-3 6-1l-8 7-1 2c1 1 5-1 9-4 2-3 5-4 5-2l-3 2c-1 1-2 2-1 3l5-3 4-5 4-5c3-3 4-3 6-3 3 1 4 0 4-5l2-4c3-3-2-7-6-5-3 1-4 1-3-2 1-2 4-2 11-1 9 2 9 2 7 5l-2 3-2 2-1 2c0 2-13 13-15 13l-6 6c0 2 4 1 6-2 3-3 6-4 6-2l-2 2c-2 1-3 3-1 3s12-10 12-12 6-7 8-7l-2 3c-3 2-4 4-4 5l-3 4c-4 5-3 6 2 2l6-4s2-1 2-3l4-6 3-3c0-2 5-6 7-6l5-3 5-2c2 0 5-4 5-6 0-3-4-4-11-2h-7c-2-2-2 0-1 5 0 5 0 6-2 6l-1-12c0-2-1-3-3-2-3 0-3 0-3-2l2-3c2-2 2-4 0-4l-1 1-2 4c-2 1-2 3-2 5s1 2 4 2 3 0 3 3c0 2-1 3-3 3l-4 1c-2 1-2 0-3-2-1-3-2-3-4-3-5 2-7 1-4-2 1-2 2-3 1-4 0-2 0-2 2-2 2 1 3 1 3-1l-2-4c-3-3-2-5 1-5 2 0 5-4 8-9l2-6c0-5 11-11 20-12 4 0 5-1 5-3 1-3 4-3 12 1l7 3c2 0 2 1 1 3l-2 1-4 1h-5l1-2c2-1 2-4 0-4s-7 11-7 13l-1 3c-2 2 0 2 2 1 4-4 11-7 14-6 2 0 3 0 3-2l7-6 12-9 5-4 5-3 8-7 4-4c2-4 6-6 22-11 12-3 17-5 20-7 5-5 8-4 13 5 2 5 5 7 5 5 0-3 2-3 4-2h4v-7c0-4-1-4-3 0-1 2-1 2-3 1s-1-2 0-6l4-6c3 0 3 0 2 3v3c1 1 3 0 3-3 1-4 5-6 10-6 3 1 4 0 5-1l4-2c1 0 2-1 2-3 0-3 1-4 6-5l7-4 3-2 2-2 1-3c1-1 2-3 2-8l1-7c2 0 2-2 0-4l-1-8-1-6c-2 0-1-3 0-6 2-3 2-3 0-5-1-2-1-2 1-3 3-1 3-2 2-7v-5c1-2 0-8-2-11-2-1-1-5 0-8 1-1 2-3 1-4V86l2-3 6-4 5-4c3-1 3-1 3-4 0-4 1-5 4-6l4-1 10-9a377 377 0 0 0 14-12c0-2 3-5 7-7l10-7 10-6 3-1c1-1 3-2 10-2 17-2 16-2 19 2l2 6c-1 2 0 2 3 2l5-1h5l3 3c0 1-14 2-24 1l-15-1-5-1v11h4c5 1 5 3 0 4l-4 2-3 3c-2 0-6 5-6 8l-3 3-2 2-5 3c-4 3-5 5-3 5s16-11 18-15c3-4 3-4 7-3l4 1c1 0-6 6-8 5l-3 4-1 6c1 2-1 5-7 8l-9 7-7 4-5 3c-1 2-1 2 1 2 1 0 4-1 5-3l4-2 7-5c6-4 10-5 12-3s3 1 3-3 0-4 2-4l1 2v8c-1 7-1 7 1 8 3 0 4 1 1 3-3 1-2 6 1 7s3 3 0 4c-3 0-3 0-3 2l1 4 2 3c3 0 4 2 1 3-2 0-3 3-3 6 0 1 1 3 3 3 5 2 4 4-1 3-4 0-4 1-1 4 2 2 2 3 1 6 0 4 0 4 2 5 4 1 4 3 0 3-3 0-4 1-2 2v4l1 4c2 0 2 2 0 2-3 1-3 3 0 4 1 2 1 2-1 4l-1 8 3 8v3h-4c-1-1-3 2-2 3l6 1h5l1-4c1-3 2-6 1-7 0-2 4-3 8-3 2 1 3 1 5-2s2-4 0-6c-1-2-1-2 4-5 3-2 5-4 5-6 2-6 3-7 6-7s7-4 7-6-4-1-6 2c-3 2-4 0-2-2l2-3c-1-1 1-2 4-3l5-2 4-2c7-1 7-1 6-4l-2-5 1-4c2-1 2-2 1-4v-7c-1-3 0-4 2-4 6-2 6-3 6-6 0-4 1-6 4-6l3-2 2-1 5-4c6-8 9-10 16-6 2 2 5 2 7 2 4 0 4 0 4-2 1-4 1-5 3-7 2-3 5-3 8 0s1 5-3 5c-3 0-4 1-1 4v3l-3 2-2 1c-2 2-3 1-3-1 0-3-3-3-4 0l-4 4c-4 1-6 4-3 6 2 1 2 1 6-2s6-4 6-2c0 4-2 6-5 6s-6 2-6 6c-1 2-2 3-4 2h-3l3 2c2 3 2 3 0 4v2c1 2 6 2 9-1 3-2 2-3-1-3-4 0-4-1 2-5 7-6 16-5 11 0-2 2-2 3-1 6 0 5-2 12-4 12-3 0-3-2-2-3 2-2 2-6 1-7l-2 2c-1 3-8 8-10 7-3-1-7 3-6 6l-1 4c-2 0-3 2-3 3h5c2 0 3 0 5 2 1 1 2 2 5 1 2 0 3-1 3-3l2-4c4-3 5-2 4 5-1 11 0 10-5 11-5 0-6 0-6 4 0 1-1 3-3 3s-9 7-9 8l3 1c3-1 4 0 2 3-2 2-2 9 0 9 1 0 2-1 2-3 0-3 3-7 5-7l3-4 5-6c2 0 4-2 5-4l3-3 2 3 2 5c0 2-1 2-5 2s-8 2-6 4h3c4-2 4-1 1 4s-3 4-5 3h-2c-1 2-2 2-3 1-3-2-5-1-5 1-1 1 0 2 1 3s1 1-1 3c-3 2-3 2-1 5l2 5c1 4 3 4 6-1 4-4 5-8 3-9s1-3 4-3c2 0 3-1 5-5s6-8 9-8c1 0 4 4 3 5h-1c-2-1-5 3-5 5l-3 3c-3 1-8 6-9 9l-1 2-1 1-5 7c-4 5-5 6-4 7 2 2 1 3-3 4s-5 1-9 9c-4 9-2 8-18 8-9 1-10 1-9 2l18 1 17 1c-1 1-6 2-16 2-14 0-19 0-26-3-2 0-2 0-1 2l1 4 3 7 3 5c0 2-3 2-7-1l-5-3v-5c1-4 0-5-1-4l-2 1c0 2-2 2-6 2-6 0-6 0-5 1a336 336 0 0 1 15 13c0 2 1 3 5 3 5 1 5 1 7-1 5-6 8-7 14-7 5 1 5 1 5 5v4c-3 1 0 3 4 2 4 0 4 0 8 4l4 4c0 2-4 1-7-2-4-4-5-3-2 1 2 4 1 5-5 6-3 0-4 0-6-2-3-3-4-5-2-9 2-1 2-2 1-3l-2 1-6 1-5 1 6 7c4 2 2 3-5 3-8-1-10-3-3-3l4-1-3-2-3-3c0-2-4-3-9-3h-4l2 3c1 2 2 4 4 4 2 2 2 2 0 3-1 1-9 0-12-1-2 0-1-2 2-2 4 0 4 0 2-3-1-2-1-3 1-6s2-6 0-6l-4-2-5-4-7-4c-4-3-7-3-7 1 0 1 1 2 4 2l5 2 1 1 6 3c4 2 5 4 5 6s-1 2-5 2-4 0-4 2l2 6v3h-5c-6 0-9-1-7-2l6-1h4l-3-3c-4-3-4-4-2-7l2-3c0-2-3-1-4 1-1 3-1 3-7 2-5 0-6 0-4 4 2 2 2 2 0 2l-5-4c-3-3-3-3-7-3-6 1-6 2-5 6s1 4-2 3l-2-4c0-4-1-5-7-5-5-1-6-1-6-3l-1-3v7c1 3 0 3-3 1l-5-2h-6c-4-2-9 0-9 2s0 2 3 1c2 0 3 0 6 3l5 4 4 3c1 2 5 4 7 5 2 0 5 2 6 4l4 3 5 3 7 5c6 4 14 11 14 13s7 4 18 5h12l-4-2c-3 0-11-4-11-5l16-1c12 1 15 1 19 3l8 2h7c5 2 41 2 43 1 0-1 3 0 5 2l11 3h9v5l-1-1h-5l1 2 4 9 4 7v-11l3 5c1 4 6 8 6 6v-6c-2-3-2-6 0-6l2 4c2 7 2 7 4 7 3 0 3-1 2-6v-5c1-1 3 1 3 6 1 4 3 5 3 1 0-3 2-4 3 0 1 3 4 5 6 3l1-3c1-3 1-3-1-3-3 0-3-1-1-3v-2l-15-1h-14l1-2-1-4v-3c2-1 1-4-3-7l-3-4c0-2 16-8 19-7 1 1-11 5-13 5l-2 1c0 2 3 2 8 0l8-1c1 0 5-1 6-3l6-2 8-4c2-2-17-2-20-1l-21 6-3 3-3 4c-3 2-4 4-2 5 2 0 3 3 1 3l-6-4c0-2 3-5 5-5s1-3-2-4l-5-2c-1-2-2-2-7-2l-6 2 6 5c2 1 0 3-5 4s-8 0-8-2l-5-1-5-1c0-1 4-2 9-2 2 1 3 0 4-1l4-4 4-3c0-1-4-2-9-2-4 1-4 1-4 3 0 3-1 3-4 3l-6-2h-5l-6 1c-2 1-3 1-3-1l2-2 4-2c3-2 3-2 7 0l5 1 5-2c5-1 5-3 1-3-3 0-11-6-11-7 0-2 3-1 8 1 7 4 7 4 11 0l6-4 6-2c1-2 3-3 5-3 3 0 5-1 5-3s-2-1-6 0c-11 7-24 10-23 7l2-2 9-2-10-1-10-2c-1-1-1-1 1-1 4 0 6-1 6-4 0-2 2-4 6-5 5-1 9 2 9 6 0 5 2 6 9 3 6-3 7-5 4-7l-4-4c-2-4-2-4-1-5l2-1 5-6 5-6c3 0 2 0-3 7l-5 8c0 2 2 1 5-4 4-5 7-7 7-5l-2 4c-2 3-2 4 1 2 4-2 3 0 0 5l-4 6c0 3 2 6 4 6v-1c-2-1-1-3 1-7 2-2 3-2 3-1l-1 2c-2 2-1 5 1 6l4 1v-18a968 968 0 0 1 0-56c1-3 1-6-2-23a64 64 0 0 1-1-14l1-7c2-2 2-7 0-8l-4 1h-3c-1-1-1-2 2-4 2-2 3-4 3-7s1-5 3-3h5c0-2-2-3-3-3-3 1-4-3-3-11l-1-14-2-16v-9l3-2c5-3 6-7 4-9-2-1-2-1-3 1-1 3-4 2-5-1 0-2 1-4 4-6 2-1 7 0 7 2h7l5-2 5-2 3-1c3 0 5-2 3-3-1-2-5 0-6 2-1 1-2 2-5 1l-6-2h-11c-4-2-4-2-5-10 0-6 0-8 2-9v-3c-1-3-1-3 1-5 3-3 6-2 8 3l2 5c1 1 2 3 2 7l1 7c2 0 4-2 4-5 0-2 2-2 7-1 3 1 3 1 3-2l1-5c2-2 2-4 1-13 0-12 0-13 4-12 3 1 5 7 4 11l2 9c2 6 3 14 1 17l-2 3-1 1-4 3 2 2c2 1 3 2 3 5l-1 5v14c2 4 3 17 1 19l-2 6c-1 3-1 4 1 3 2 0 3 1 4 3 1 3 1 3 9 3l8 1 11 1h9l1-4v-7c1-2-2-10-3-10-4 0 4-8 8-8 2-1 3-3 1-6l-8-3-8-3c-1-3 19 2 21 5s1 7-2 8c-2 1-2 2-2 7v6c1 3 0 6-2 10-3 6-3 7 5 8h12V89c-1-8 1-13 4-13 2 0 2 1 3 11v14c1 3 1 4-1 6l-2 4c-1 3-2 3-30 0-22-3-28-4-28-2 0 1 16 4 40 6 13 1 16 2 16 4-1 2 2 5 4 4l2-2c1-3 4-4 6-1 1 2 0 4-3 6-5 2-13 0-15-4 0-2-2-3-8-4l-5 1 4 1c2 0 3 1 3 2 0 2-1 2-11 0a374 374 0 0 0-44-6l2-3c2-2 2-2 1-3-1-2-3 0-3 2 1 0 0 2-3 3l-4 4c0 1-1 2-2 1-2 0-21 9-21 11l1 2c2 0 14-5 18-8 1-2 3-2 3-1 2 1 2 1 4-2 2-6 7 1 7 11l1 8c1 4 0 7-3 6-2 0-2 0-2 2 0 3-2 8-4 9l-1 2c0 2 2 1 5-3l5-3c2 2 3 10 2 16a481 481 0 0 0-2 17c-2 0-2-1-2-9 0-9-1-12-3-8l-1 11-1 11v5l3-3 2-3 2 3c3 2 3 3 3 6-1 4-1 4-3 4-3 0-5 3-5 6 0 2 2 3 3 0l2-1c2 0 3 4 4 14a438 438 0 0 0 0 23v6l2 6a323 323 0 0 0 1 15l8 2c8 1 10 3 8 5h-4c-3-2-3-2-5 0l-3 3c-1 0-1 1 1 2 2 0 3 2 5 5 1 3 2 4 4 4l6 2c4 3 7 2 10-4l3-5-3-1c-2-1-2-1-1-2l3-1 5-4 5-6c3-3 2-4-1-3l-2-1-3-1c-7 0-8-1-4-3 3-1 3-2 3-5-1-3-1-4-3-4s-3-1-3-2l4-1 5 2 1 5c0 6 2 6 6 1s4-5 0-5c-2 0-3-1-1-3l2-5c0-3 1-4 2-4 3 0 4-3 2-4h-7c-6 1-9 0-5-2l3-4c1-3 4-4 4-1 0 2 0 3 5 3 3 0 4 0 7-5 2-3 4-6 3-7s1-2 2-3c2-3 5-2 8 2 2 3 5 5 10 8l14 11c9 8 17 14 20 13a550 550 0 0 1 104 3l1 3c-1 1-9 3-11 2l-35-1a552 552 0 0 1-54-1c-2 0-3 0-3 4l1 8v5l-1 8c1 5-1 15-2 18l-13 6-1-1 9-13c2-2 2-2 1-5v-12c0-8 0-8-2-8-1 0-2 1-2 4l-2 6-5 7-7 9c-6 6-8 10-7 11l10-10 11-12v6c1 2 1 2-2 5a1205 1205 0 0 0-20 20l-3 2-2 2-4 1-9 3a256 256 0 0 0-31 15c0 2 5 0 13-4l13-5c6-2 7-2 12-1l7 1c3 2 2-2-1-3-2-2-3-4-1-4l18 9 6 3 7 5 5 3c4 1 6 2 6 4s-1 2-4 0l-5-1c-3 0-3 0-3 2 0 3 2 4 8 4 3-1 3 0 3 3l2 6v6l-2 17c0 14 0 14-3 14-2 0-2 0-2 4v5c-1 1-1 2 1 2 2 1 2 1 1 2-3 2-3 5 0 10 2 3 2 3 8 3s8 1 4 2l-7 1h-9c-3 1-4 1-5-1 0-1 0-2 2-3 1-1 2-2 1-5l-3-5v-5l2-4 1-3-1-20c-1-1-2-17-1-24 0-2 0-3-5-4l-10-3-5-1-4-4c-5-3-9-7-9-9 0-1-5-4-8-4-2 0-6 1-15 6l-16 6-12 5 1 3c1 1 2 3 1 12l-1 12a239 239 0 0 0-3 47c0 30 0 32 2 33 5 2 3 5-4 5l-5-1 3-1c3 1 4 1 4-1l-3-3c-2-1-3-2-4-5 0-2-1-3-2-2-1 0-2 4 0 7v2c-1 1-4 0-4-2l-3-2c-5-3-5-7-1-7 3 0 5-2 4-5 0-2-1-2-1-1-2 2-8 5-13 5l-9 3-7 3-6 2-4 2v6c0 5 0 5-2 5-1 0-2 0-2-3-1-18-1-18-11-17l-12 1c-5 2-5 2-6 0l-3-2c-2 0-2-3 1-4 2-1 0-2-7-3l-6-2 4-1c4 0 4 0 4-2 0-1 0-2-5-2-6 0-6 0-6 2 0 3-1 4-4 3l-3-1 3-3c4-4 11-6 13-3l4 1c4-1 6 0 4 2-3 4 3 13 6 11 2 0 2-1 0-4-2-2-2-2 0-5s2-3 1-5c-3-1-3-3 0-4l3-3c2-3 2-6 0-4l-5 1-4 3c0 1-2 2-8 2h-10l-11-1c-8 0-9 0-12-3l-6-2c-3 0-5-2-3-2h15l-2 2c-4 2-1 3 6 2 6 0 7-1 7-2-1-2 1-3 6-3l6-1h4l4 2 2 1 4 1c2 0 3-1 4-3v-4c0-2-3-3-4-1h-21a2482 2482 0 0 0-56 2c0 3-3 4-8 4-4-1-5 0-5 1l7 2c6 0 7 0 8-2 2-3 3-3 9-3l8-1 3 1c0 2-4 3-11 3-4-1-5 0-5 1 0 2 1 2 11 2 13 0 16 1 7 2l-6 2c1 2 7 2 10 1h5c3 2 11 3 14 1h1c1 3 0 4-3 4-4 0-4 3 1 5 3 1 3 2 1 2l-3 1h-1l5 1 17 5-9 1c-8-1-11-1-15-4l-5-2-3 2c-2 2-10 4-15 4l-13-1c-12-4-21-5-23-2s-3 2-4-1a575 575 0 0 1-34-5c-4 0-10 3-10 6 0 4 1 5 5 4 4 0 4 0 0 4a640 640 0 0 0-11 12c-2 0-2-2 0-3l8-11h-1c-3 0-15 13-17 19-2 3-4 4-5 3-2-1 1-5 8-13l7-8c2-2-1-1-6 3-14 11-15 12-17 10s-2-2 0-4c1-2 1-2 1 1-1 2 0 3 2 0l3-2 2-2-3-1-5-1-2 2-5 5c-4 3-4 4-1 4l2-1 1-1c2 0-5 7-7 7-3 1-4 0-2-2l1-1-2 1c-1 1-13 7-15 6-2 0-1-2 4-4l7-3 6-4c5-3 8-7 3-5l-4 1c1-2 1-2-1-2l-7 3c-5 5-7 6-7 4-1-1-3 0-8 3-8 4-8 5-8 2l1-1 7-4 8-4c2 1 3 0 4-1 3-3 7-5 10-5 2 0 5-1 8-4l7-3c1 0 7-6 8-9 2-2-3 0-6 3l-4 2-6 3c-3 3-5 4-5 2l2-2c4-1 3-3-1-5-5-2-5-2-8 2-2 2-4 3-5 2l-4 1-4 1h-5l-5 2a68 68 0 0 0-20 5c-2 0-3 2-3 3l-3 2-6 2c-1 1-1 1-2-2-2-2-10-8-13-8l1 3 4 5 4 4 3 4 3 2 6-1c4 0 5 0 7 2l4 3c2 0 1 2-1 2l-2 2c0 1 14 0 19-2s6-3 6-1l-4 3-4 3c0 2 1 2 6-1l7-2c3 0 11 9 11 12v3l10 1c10 0 14 1 14 5 0 1 4 3 7 3s13 10 13 12c0 3-3 2-8-3-3-3-5-4-7-4-1 1-2 0-3-1l-4-1-3-4v-4l-10 1c-8 0-9 0-11-2l-3-2v-3c1-3 1-3-2-4l-3-3c0-3-5-3-9 0-4 2-9 3-11 1l-5-2c-5 0-10-2-10-4v-3c0-3-2-4-7-3-6 1-6 1-11-3-3-3-4-5-4-7s0-2-3-2l-8 2c-5 0-8 2-8 4l2 1c3 0 2 2 0 2h-3l-1-1-1 1-2 5c-4 4-3 5 1 2 3-2 8-3 6-1l-4 2c-2 0-2 2-2 2 1 2 5 1 9-2s5-3 5 1l1 2c1 1 1 2-1 3s-3 10-1 10l2 1c0 1-1 2-4 2-5 0-7-2-4-5l2-3c0-2-3-1-5 3s-4 4-6 0l-2-4-11 1c-12 2-27 2-25-1 2-2 0-2-5 1-5 2-6 4-3 4 3 1 4 3 1 3-5 2-9 8-15 20l-5 12a98 98 0 0 1-35 18l-3-1zm38-25c4-7 4-10 1-7l-1 2-3 7-2 6 5-8zm-6 0 4-6c2-2 0-2-3 0-4 3-7 10-4 10l3-4zm14-15h-2l-1 1c0 1 2 1 3-1zm33-19c-1-2-4-2-7-1s-2 2 2 3c4 2 6 1 5-2zm9 1c2 0 3-3 1-3-2-1-6 1-6 2 0 2 1 2 5 1zm20 0 3-2c3-1 4-3 2-3-3 0-8 3-8 5h3zm-6-3v-2c0-1-2 0-2 2h2zm-5-2c1-2 1-2-1-2-1 0-3 2-2 3s2 1 3-1zm-4-6c1-3 1-4-2-3-1 1-2 6 0 6l2-3zm-8-1-2-2c-1 0-3 2-2 3s3 1 4-1zm16-2 1-4c-2 0-4 2-5 5 0 4 1 4 4-1zm-4-5c1-2 0-2-2-2l-1 2h3zm12-5c5-4 6-6 3-6-2 0-12 7-12 8 1 2 3 1 9-2zm12-8c-3-3-5-4-5-2 0 3 3 5 6 5h2zm21 0c2-1 2-3 0-3-3 0-5 1-5 3h5zm-31-3-1-1-2 1 1 1 2-1zm117-4 7-5 5-4c4-4 4-4 3-8-1-5-2-6-4-3v4l1 3c-1 2-4 1-4-1l-3-2-4-1c-1-1-5-1-5 1 0 1 3 4 5 4l3 2c1 1 1 2-3 4l-4 3h-3l1 1 1 1c0 2-1 2-3 1l-4 1c-3 3-3 4 1 4 2 0 5-1 10-5zm193 4v-2h-2l-1 2h3zm0-8-2-1-3 1v1c4 1 5 1 5-1zm-227-3c4-3 4-3 7-2 4 1 5 0 3-3-1-2-2-3-3-2l-3-1c-1-2-5-1-7 3s-3 8-1 8l4-3zm145 0c6-2 5-4-4-3-9 0-16 1-16 3 0 3 15 2 20 0zm62 0-1-1-1 1 1 2 1-2zm11 1-2-1-1 1 1 1 2-1zm38 0c4-1 3-2-2-3-4 0-6 1-4 2 1 2 3 2 6 1zm14-2c0-2-1-3-2-3l-1 3 1 3c1 0 2-1 2-3zm-68-1c0-2-1-3-3-1l2 4 1-3zm-572 0 7-3c6-2 9-4 8-5l-2-1-7 1c-4 1-7 2-7 4l-2 3-1 2c0 1 2 1 4-1zm491 0c7-4 13-5 22-4 11 0 14 0 8-3l-29-2c-37 0-34 0-36-6v-4h6l6 1c1 1-1 1-6 1l-3 1c0 2 3 3 8 4 6 0 9-1 5-4l-2-3c0-2-1-2-3-2l-5-2h-4l-4 1c-3 0-6 2-3 3 1 0 1 3-1 3s-4-1-4-4c0-2-2-3-13-3h-8v4c0 5 0 5 4 6 8 2 10 1 10-2l-1-3c-2-1 1-2 4-2 2 1 3 1 2 2l-1 4c0 2 0 2 4 2 5 0 6 1 3 2h-21c-2-1-2-1-4 2l-2 3 20 1 7 1 10 2c7 1 9 0 14-1 7-2 11-2 12 0l-3 1c-2 0-3 2 0 2 3 1 4 1 8-1zm-63-18c-2-1-1-2 2-2l2 1c0 2-2 2-4 1zm174 19c1-1 0-1-1-1l-1 1 1 1 1-1zm14-1-2-2c-2 0-4 1-3 3 1 1 5 1 5-1zm-220-4 3-5c-1-3-7-3-10 0a580 580 0 0 1-3 4l2 3c0 3 4 2 8-2zm131 4-2-1h-1l1 1h2zm81-2c1-2-1-3-3-1v2c2 1 3 1 3-1zm-21 0v-2h-2c-1 1-1 3 1 3l1-1zm10-1c0-1-1-2-2-1l1 2 1-1zm26-1v-2l-2-1-3 4c1 1 3 1 5-1zm11 1-1-1-1 1 1 1 1-1zm11-1-1-2-1 2 1 2 1-2zm-68 0c1-1 0-1-1-2-1 0-3 0-2 2h3zm39-3-2-1-3 2 2 1 3-2zm25-1c2-1 2-1 1-2-3-1-9 0-8 1l5 3 2-2zm-257-1v-3h-6l-3 3h7l2 1v-1zm213-2c-2-1-4 0-3 3h3v-3zm-20-2c0-2-2-3-3-1 0 2 1 5 2 4l1-3zm10 2c1-1-1-3-2-2-2 1-1 4 0 4l2-2zm37 1 3-2 2-1c2-1 3-4 1-4l-5 2c-1 2-4 3-5 3s-2 1 0 2h4zm-583-3 1-1-1-1c-1 1-2 0-3-2-2-2-5-3-4 0 1 4 1 4-1 4l-2 2c0 1 1 1 5-1l5-1zm561 1h-2l-1 1c1 1 3 1 3-1zm-575-1v-2l-3 3c0 1 1 1 3-1zm471 1c2-2-3-3-12-3-8-1-10 0-6 3h18zm115 0c1-1-1-2-2-2-1 1 0 3 1 3l1-1zm-206-3 4-4c0-2-3-1-5 1l-4 3c-1 0-2 1 0 2 1 1 1 1 5-2zm235-6h-3l1-2c2-2 2-4 1-4l-4 2c-2 3-2 3-1 4 2 2 2 2 0 4l-3 2c-2 0-1 2 1 2 2 1 10-7 8-8zm-265 3 4-5-13 9c0 2 5 0 9-4zm205 3-2-1c-1 0-2 1 0 2 1 1 2 1 2-1zm-180-4 4-5c-1 0-5 2-7 5-7 6-4 6 3 0zm196 3c1-1-2-2-5-2s-5 2-1 3c1 1 5 0 6-1zm45 1 2-1c0-2-3-1-4 0-1 2 0 2 2 1zm-87-1c1-1-5-3-10-3-3 0-4 0-4 2s1 2 7 2l7-1zm63-7v-13c-1 0-2 1-2 8l-2 9c0 4 0 4 2 4s2-1 2-8zm-31 6v-2c-2-1-4 1-4 2h4zm24-1c2-3 1-5-1-3l-2 2a38 38 0 0 0-1-4l-3-1-2 1 1-4c2-5 2-5 0-4l-2 3-1 2-1 3c0 3 1 4 4 5 6 2 6 2 8 0zm-211-6c3-3 4-5 3-5-1-1-3 0-7 5l-6 7 10-7zm-85 4c2-2 2-4 0-2l-3 1-2 1c0 3 3 2 5 0zm102 1h-2c-1 1-1 1 1 1s2 0 1-1zm211-1c1-3 1-5-1-5l-3 5c1 2 3 2 4 0zm-48-2-2-1-2 1c-1 1 1 1 2 1l2-1zm-220-1h-4l2 1 2-1zm231-1c1-1-1-2-3-3-3-1-3-1-2-3l2-8c0-5 0-7 2-8 2-2 4-9 5-17l3-8 1-11 2-11 2-7 1-5c1-1 0-2-2-2h-7c-2 0-2 0-2 3 0 4-1 6-3 6-3 0-3-2-2-5 2-4 0-5-5-4l-8 2-4 1c-2 3-3 2-4 0-1-3-3-5-4-4l1 4c2 4 2 8 2 36l2 38 2 6 4-1 9 1h8zm-18-13c-2-1-2-6 0-7 2-3 6 3 4 7-1 2-2 2-4 0zm11-13c-1-2 0-12 1-14 2-2 5 0 5 4 1 2 1 3-1 5l-2 3c0 3-1 4-3 2zm-12-15v-6c3-3 6 3 4 8-1 3-3 2-4-2zm16-11v-11h2c2 2 2 3 2 7-1 4-2 6-4 4zm-13-9c-2-1-1-7 0-8 1-2 3-2 5-2 3 0 3 1 4 4 0 4-2 7-5 7l-4-1zm23 59 2-7 2-6c2-1 5-9 5-12-1-6-2-4-5 4l-8 20-1 3c2 2 4 1 5-2zm-391 0-1-1-2 1c0 2 3 2 3 0zm177 0c2-1 2-2 0-2-2 1-4 4-2 4l2-2zm48 0-2-1c-1 0-2 0-1 1 0 2 2 2 3 0zm26 0-1-1-17-1c0 1 1 3 3 3 1 1 14 0 15-1zm23 0c1-2 1-2-10-2-7 0-9 1-9 2 0 2 1 2 9 2s10 0 10-2zm131 0v-6a105 105 0 0 0-1-28c-1 0-2 2-2 6 0 12 0 14-2 14-3 1-3 4 0 4 2 0 2 0 1 3v6c1 2 4 3 4 1zm-185-1c-1-2-3-2-3-1l1 2 2-1zm202-2c3-3 4-6 1-5h-1c0-3-2-4-4-2v10l4-3zm-319 0-1-1-1 1 1 2 1-2zm12 1-1-1-1 1 1 1 1-1zm10-2c-1-1-1 1-1 2h2l-1-2zm12 0 8-6 4-3 2-1c-1-3-4-2-8 2l-9 7-4 3c0 2 2 1 7-2zm295 0c2-3 3-5 1-5s-7 5-6 7 3 1 5-2zm-286-2-3 1-3 3 3-2c2 0 3-2 3-2zm30 1c4-2 5-2 4-3-2-1-3-1-7 2-5 5-4 5 3 1zm13 0-3-1c-4 0-6 1-2 2 2 1 5 1 5-1zm23 1c2-1 4-5 4-6h-1l-3 2c-2 0-3 2-3 3 0 2 1 3 3 1zm-382-1-2-2-2 2 2 1 2-1zm9 0-1-3c-1-1-1-1-1 1l1 3 1-1zm280-2c0-1-2-2-3 0 0 1 1 3 2 2l1-2zm88 0c0-1-4-2-6-1l-2 2c0 2 7 1 8-1zm22 0-1-1c-2 0-4 2-4 3 1 1 5-1 5-2zm49-1-1-5c0-2-1-2-1 1l-2 5c-2 0-3-12-1-13 3-1 8 2 8 4l1 4c2 2 2 2 0 5l-1 3h9l-1-3 1-6c1-4 6-4 10 0 2 2 2 3 1 5-2 3 0 4 6 4 4-1 4-1 5-3 0-3-1-8-2-6l-1 3c-1 5-3 4-3-2 0-5 0-5 3-5s5 3 7 8c0 3 2 5 6 5 3 0 3 0 2-4-1-7-1-9 2-10 2 0 3-2 4-5 1-5 1-5-1-7l-1-5c1-3 0-6-2-6l-2-2c1-2 5-1 7 0 2 3 3 2 3 0l1-6 2-10 6-28 2-8v-5l-3-1c-6-2-31-3-32-2 0 1 0 2 2 3 4 3 5 8 2 10h-7l-1 4c0 3-3 3-4-1 0-1 0-3 2-5l2-5c0-3 1-3-19-5h-29c-2 1-2 3-2 11-1 9-1 9-3 9-1 0-2 0-2-3-1-6-3-10-7-10-3-1-4-3 0-3 3 0 6-2 4-2l-7-2-8 1c-2 2-3 2-7 2-4-1-4-1-4 1l1 2 1 4c0 3 1 4 3 2l3-1c2 1 2 1 0 3l-3 2c-1 1-2 2-1 3 0 2 1 3 3 2 2 0 2 0 2 4v13a512 512 0 0 0 3 52c1 7 1 7 19 7h14l6 1c5-1 5-1 5-4zm-21-1-1-6-1-6c-2-2-1-4 2-3 2 1 4 6 4 12 0 5-2 7-4 3zm-9-8c-1-4-1-6 1-6 1 0 4 7 3 9 0 2-2 1-4-3zm8-11c-1-1-2-3-2-7l-1-6-1 4c0 3 0 3-2 3-1 0-2 0-2-5v-5h4c4 0 5 1 7 9 1 7 0 9-3 7zm53-4-3-2c-2-1-3-1-3-4l1-4 3 2h1c1-2 1-3-1-4l-1-2c2-2 5 0 7 5s2 7 1 10c-2 3-4 2-5-1zm13 1c-1-3-1-8 1-8s2 1 2 4l-1 5-2-1zm-29-3-1-5c0-4-2-5-3-1-1 5-1 5-2 4l-2-5v-4l4-1c6-1 7 0 8 9 0 5 0 6-2 6 0 0-2-1-2-3zm-19 0-3-2c-2 0-3-2-3-4-1-2-1-3 2-5l5-2c3 0 3 1 4 6 1 6 0 7-2 8s-2 1-3-1zm1-8-2-1c-2 0-3 2-1 3 1 1 3-1 3-2zm-21-11-1-4c-1-1-1-2-4-2-2 0-3 0-3-5s1-7 6-7c3 0 5 4 6 12l-1 7-3-1zm38-2-1-2-2-3c-3-2-4-3-4-7s2-5 6-5c3 1 5 4 5 11l-2 7-2-1zm0-12-2-1c-1 0-2 2 0 3 0 1 2 0 2-2zm-20 9v-6l-1-6c-2 0-2 1-2 3-1 4-2 4-4 0-1-4 0-5 6-6 4 0 5 0 6 3 2 4 2 9 0 11s-4 2-5 1zm57 0-3-1h-2c-1-1 1-10 2-11 2-1 7 2 8 5 1 4-3 10-5 7zm1-5-2-1-1 1 1 2 2-2zm-25 2c-5-5-5-8 1-8 4-1 4 0 6 4v5c-2 3-4 2-7-1zm-34-20c-1-1-3-7-3-11l-2-4c-2-1-1-3 3-4 4 0 5 1 7 6 2 6-2 16-5 13zm22-1c-2-1-4-6-4-7l-2-4-1-4c1-1 7-2 7 0l2 7c3 7 2 10-2 8zm36-3c-4-2-4-3-4-7s3-8 7-8c3 0 3 1 3 3l1 5c4 8 0 11-7 7zm-17-1c1-2 2-2 3 0l-2 2-1-2zm-14 81-5-7v4c0 4 0 4 2 4l3-1zm48-4v-4l-2 4c-2 4-3 2-1-4l3-4c1 0 4-2 4-4l-2-1c-2-1-2-2-2-5 0-4-2-3-3 3l-3 8-1 4v-3l1-3 1-2c0-2-1-3-2-1l-4 2v4l2 3 1 2v1c-1 3 1 5 4 5 3-1 3-1 4-5zm-15 1c0-3-1-4-3-2l2 5 1-3zm-199 0 3-2 8-6c0-2-4-1-7 2l-6 6c-2 1-2 2-1 2l3-2zm23 0 5-2c2 0 2 0 1-2-2-2-4-1-8 3-3 3-2 4 2 1zm17 0-4-2c-3 0-3 0-2 2 1 1 2 2 3 1l3-1zm24-1-3-1-2 1 2 2 3-2zm193-6 2-9c4-8 4-10 1-7-2 2-4 5-4 8l-5 15 3-2 3-5zm-163 4-1-2-3 3c1 1 4 0 4-1zm-383 0-2-1-2 1 2 1 2-1zm347-1s-1-2-3-2l-3 2-3 2 4-1 5-1zm-67 0-1-1-1 1 1 1 1-1zm90-1c3-3 3-6 1-6h-1c0 1-4 2-5 0s-3-1-3 2l1 1h2l-2 2-1 2c0 2 6 1 8-1zm220 1v-5c-1 0-4 3-4 5h4zm-455-1 4-4c3-2 3-2 1-5-2-2-2-2-6 0s-13 8-12 9l9-5c2-2 5-1 5 0l-2 3c-2 1-3 3-1 3l2-1zm25 0c2-2 1-6 0-8l-2-3v3c0 2-1 3-3 4l-2 4 3 1 4-1zm178-1v-1c-1-1-9 0-10 2-1 1-1 1 4 1l6-2zm-13 0c3-2 2-3-1-3-4 0-6-1-6-3s-4-2-7-1c-3 3-3 4 1 4 3-1 4 0 6 2s4 2 7 1zm253-2c-1-3-3-4-3-1-1 2 0 4 2 4l1-3zm-603 0 5-2c0-1-2-1-9 1-2 0-3 1-3 2s1 1 7-1zm377-1-2-1-2 2 1 1 3-2zm36 0-1-2-1 2 1 2 1-2zm-236-1 2-4c2-1 3-4 1-4-1 0-4 3-5 6 0 2 0 2-2 0l-1-3c0-2 0-2-2-1l-1 4c0 2 1 3 3 3 4 1 5 1 5-1zm225-1-2-1c-1 0-2 2 0 3 0 1 2 0 2-2zm-95 1v-2l-1-2-1-2v4c0 3 1 4 2 2zm310-4c-1-1-4 0-5 2s1 3 3 1l2-3zm-404-2v-2l-4 2c-3 5-3 7 1 4l3-4zm1 4-1-1-1 1 1 2 1-2zm120-1c1-2 0-3-3-3-1 1-2 0-2-1h-5c-4 0-6 2-6 3 1 1 4 1 6-1s5-1 3 1v2l7-1zm44 0c0-2 0-2-1-1v3l1-2zm6-1c0-3 0-3-2-2l-1 3c1 3 3 2 3-1zm133 1-1-3-1 2 1 3 1-2zm-505 0c5-2 2-2-2-1l-3 2 5-1zm184-1c-1-1-3-1-4 1l2 1c2 0 3 0 2-2zm-41 0 3-2 3-3 3-3c-1-1-2-1-3 1-3 2-6 3-7 2-2-2-3-1-3 1l-2 3-1 1h7zm236-2c3-2 3-4 0-3s-4 2-4 4c0 3 1 2 4-1zm211-1c1-3 1-4-2-3l-1 4c0 4 2 3 3-1zm-536 2v-2l-4 2h4zm82-3-1-3c-1 0-4 4-3 5 1 2 3 0 4-2zm56 2-1-1-1 1 1 1 1-1zm408-2c-1-2-2 0-1 2h1v-2zm-413 1c0-1-1-2-2-1l-2 1h4zm89 0c-1-2-10-3-10-1 0 1 1 2 6 2l4-1zm113-2v-3c-2-1-3-1-4 1-1 1 0 5 1 5l3-3zm-126 1-3-3-3-3-2 2c-3 4-3 5 3 5l5-1zm37 0c4-1 3-3-1-5-5-3-6-3-7 0-1 4 0 5 3 5l3 1 2-1zm-116-4h-2l-2 3c1 1 4-1 4-3zm49 3-4-1-3 1 4 1c3 0 4 0 3-1zm275-9 2-11v-4l-2 4-4 17c0 6 1 3 4-6zm87 7-1-2-1 3c0 1 0 2 1 1l1-2zm-563 0-2-1-1 1c0 2 2 2 3 0zm142 1c1-2 1-4-1-4s-4 5-2 5l3-1zm22-1 2-3h-3l-3 1c-1-2-4-1-4 1s0 2 2 1l2 1c0 1 2 1 4-1zm-95-2c4 2 4 2 8 1l7-3c2 0 3-1 4-3l1-3h-6l-10 1h-4l1-1c1-1-1-1-4-1h-5l-1 5c-2 7-2 7 2 5s4-2 7-1zm234 2-2-1-1 1 1 1 2-1zm179-5c2-7 3-16 1-16l-3 10-1 12 3-6zm-384 3c0-2-3-3-4-1 0 2 1 3 2 3l2-2zm32 1v-2l-1 1c0 2 0 2 1 1zm121 0-4-1-5-1c-2-1-10 0-10 1s3 2 12 2l7-1zm74-6 8-5c1 0 4-6 3-7l1-1 1-1 2-3c1 0 2-1 2-3l-1-1c-11 6-14 9-13 11l3-1c3-2 4-2 4-1l-4 4-8 5-8 6-4 3c2 2 7 0 14-6zm229 5-2-2-1 2 1 2 2-2zm19 1-1-1-1 1 1 1 1-1zm-352-1-2-1-1 1 2 1 1-1zm33-2c0-4-1-4 20-18 9-7 11-9 12-13l-1-3-6 4a841 841 0 0 1-23 16v2c2 2 2 2-2 6-4 3-4 4-3 6 2 4 4 4 3 0zm8-15 4-3 5-4 1 1-4 4c-4 3-7 4-6 2zm88 16c2-2 2-3 0-3s-5 3-5 4 4 1 5-1zm-350-1-2-2-1 2c0 2 2 2 3 0zm117 1h-3l1 1 2-1zm31 0v-1l-1 1v1l1-1zm189-1-1-1-1 2 1 1 1-2zm-61 0-2-1c-2-1-5-1-4 1h6zm38-3 6-3v-2h-4c-4 2-9 6-9 8s1 1 7-3zm244 2-1-1-1 2 1 1 1-2zm-463-3c4-4 5-7 2-8-1-1-1 0-2 2l-3 5c-2 2-3 5-2 5l5-4zm40 3-2-1-2 1 2 1 2-1zm112-2 4-5c2-2 2-3-2-2-2 2-7 7-7 9s3 1 5-2zm97 1c3-2 2-3 0-3s-3 1-3 3 1 3 3 0zm-197 0 2-3c0-2-4-1-6 1-2 3 1 4 4 2zm5 0-1-1-1 1 1 1 1-1zm79-1v-2l-3 3c0 2 3 1 3-1zm7 0c0-2-2-1-2 0l1 2 1-2zm22 1-1-1-1 1 1 1 1-1zm310-3c-1-1-2 1-2 3h2v-3zm-345 1v-2l-3 3c1 1 3 1 3-1zm83-2c4-2 5-4 4-4-2-1-5 0-10 2a1121 1121 0 0 1-5 0c2 0 1-2-2-3-1 0-4 0-6 2-3 1-5 2-8 1-3 0-4 0-6 2l-3 2h9l9-1 3-1c1 0 2 0 1 1-1 2 1 3 5 3 3 0 5-1 9-4zm225 2h-1v2l1-2zm-394-1c-2-5-2-5 2-5 7 1 3-1-4-3l-21-4c-2 0-1 4 0 5l3-1c1-2 13 1 13 3l2 1c3 0 3 1 2 4-1 2-1 2 1 2 3 0 3 0 2-2zm19 1-1-1-1 1 1 1 1-1zm385-2c1-1 0-2-1-3h-2l-1 3c0 2 3 2 4 0zm-411 0h-2v1l2-1zm137-1c1-2 1-2-3-1-6 0-6 3-1 3 3 0 4-1 4-2zm86-1c5-4 6-7 3-7-2 0-6 4-8 7-2 4-1 4 5 0zm219 1-1-1-1 2c1 1 2 1 2-1zm-447-1-2-1-2 2 1 1 3-2zm115-7c0-1-1-1-4 2l-3 6c1 1 1 1 5-2 2-3 3-4 2-6zm-89 7-3-1c-2 0-2 0 1 1a3989 3989 0 0 1 2 0zm383-6c0-4 0-5-2-2l-1 6c0 3 0 3 1 2l2-6zm-422 4-1-1-1 2h2v-1zm121-4c0-2-2-1-4 1-2 4-1 6 2 3l2-4zm113 3c2-2 2-4-1-2-2 1-3 4-1 4l2-2zm-74 0c1-2 0-2-2-2l-2 2h4zm93 0v-1l-1 1v1l1-1zm-144-1h-3l1 1 2-1zm102 0h-2s-1 1 1 1l1-1zm246 0-1-2-1 1 1 2 1-1zm-465-2c2-3-1-5-3-2-1 2-1 4 1 4l2-2zm437-6c1-7 0-23-1-26l-1-2c-1 1-2 33-1 35 1 3 2-1 3-7zm-324 5c1-2 1-2-1-2l-1 2c0 2 1 3 2 0zm84 0c2 0 3-2 3-2 0-2 2-4 5-4 1 0 1 1-1 3l-3 4 8-4 3-2-5 5-1 1h8c4-2 10-7 9-8-1-2-4-1-6 0l-2 2c-2-1-2-3 1-4l2-1h-9c-4 0-6 0-8 2l-4 3-3 1c-1 2-8 3-8 2l1-1 2-1 2-2 3-2 6-3c2-2 4-4 3-5l-2-1c-2 1-2 1 0-2 5-5 3-6-3-1l-16 10-8 5-5 3-1 1c0 3 4 2 8 0l3-1c0 2 0 2 3 2h5l2 1c1 1 4 1 8-1zm-15-5 1-1 3-3c4-3 6-3 3 0l-4 3-1 1-1 1-1-1zm11-8h2l-2 1v-1zm68 11-2-2-2 3c1 2 4 1 4-1zm-118-2-1-1-2 2 1 2 2-3zm109 1c0-3-2-2-3 0l1 2 2-2zm-247 0-2-1-1 1 2 1 1-1zm150-2 9-7c4-3 6-6 5-7l-4 2-4 3-12 9c0 2 1 3 2 3l4-3zm86-1 2-4c1-3 0-4-2-3l-1 3c1 1 0 2-2 4-3 1-3 4 0 4l3-4zm209 2-1-1-1 1 1 2 1-2zm-309-7c-1-1-6 5-6 7l3-2 3-5zm324 5c0-2 0-2-2-1-1 2-1 4 1 4l1-3zm101 1-2-2c-1-1-1 0-1 2s2 2 3 0zm-191-6c1-8 2-13 0-14-1-1-2 3-3 13-1 6-1 9 1 7l2-6zm-392 4-4-2c-2-2-2-2-3-1v3c1 1 7 2 8 1l-1-1zm148 1v-1l-1 1v1l1-1zm-3-2-2-1-1 1c0 2 2 2 3 0zm130 1c1 0 2-1 2-3 0-3 0-3-2-2l-2 4c0 2 0 2 2 1zm-296-1-3-1-3 1 3 1 3-1zm188-1v-4c2 1 6-4 6-6 0-3-2-3-7 1-5 3-5 5-2 6 2 0 2 1 0 2l-1 2c1 1 2 1 4-1zm280 1-1-1-1 1 1 1 1-1zm-180-3h-4c-1 2 1 3 2 2l2-2zm200 1-1-1-1 1 1 2 1-2zm-70-2c-1-2-1-2-2-1l-1 2c1 3 3 1 3-1zm-414-1c0-2-1-3-2-2-2 0-3 3-3 4l3 1c1 0 2-1 2-3zm5 2v-5l-1-6c0-3-3-4-4-1-1 1-1 2 1 4 3 3 3 5 2 6s-2 3 0 3l2-1zm148-1c2-3 1-5-1-3s-3 5-1 5l2-2zm15-2v-1l-1 1v2l1-2zm92 0c5-2 10-8 7-8-2 0-12 7-12 9l5-1zm-94-3v-3c0-1-1-1-3 1-3 4-3 6 0 5l3-3zm10 1v-3c-1-2-1-2-3 3 0 2 2 2 3 0zm77 0 1-4v-1l-1 1-3 2c-3 1-3 4 1 4l2-2zm20 0c0-3-3-3-3 0-1 2-1 2 1 2l2-2zm20-1 1-4c1-4-2-4-4 0-2 5-2 7 1 6l2-2zm-97 0 3-2 1-1 3-1c2-2 4-3 3-1l1 3c3 0 7-4 6-6l2-4c2-2 2-2 3-1 2 2 3 2 12-4 5-4 6-5 6-7v-3l-3 2-4 2c-1 1-8 5-11 5-2 1-2 1-2-1h-4l-4 2c-1-1-9 4-10 6-1 3 3 4 5 0l3-2 4-1c1 0 2 0 1 1 0 1-11 9-16 11l-3 3 4-1zm-36-2c0-2 0-2-2-1l-1 3h1l2-2zm61 2c2-1 3-2 3-4l4-3 13-8 10-6c1 0 4-3 3-5-1-3-1-3-6 0a777 777 0 0 1-25 18l-2 3-2 3-1 2v1l3-1zm22-1-2-2-1 2c0 2 2 2 3 0zm236-1-2-2c-2 0-2 0-2 2 0 3 0 3 2 2l2-2zm99 2c0-1-5-4-6-3s3 4 5 4l1-1zm-561-3 3-4c0-2-3-1-5 2l-2 3-1 1c0 2 2 1 5-2zm572 0c-1-2-4-4-5-2-2 1 0 4 2 4s3-1 3-2zm-78-1c2-2 1-3-1-3l-4 2h-2c-2-2-5-3-7-1s-1 3 1 3c2 1 11 0 13-1zm-325-1c3-2 4-3 2-5v-3c1-2 6-4 8-2l3 1c2 0 4-4 2-5-1-1-1-2 3-4l1 2c-1 2-1 2 2 1 2-1 2-2 0-3-1-1-1-1 1-3s2-2 1-3c-2-1 0-3 7-8 6-4 6-4 6-8l-1-3c-2 0-3 2-1 3 1 1 0 2-1 3h-4c-1-1-3 0-7 3-6 3-8 7-4 5 1 0 2 0 2 2s0 4-3 6l-5 3v-3h-2l-3 1c-1-1-1-1 2-2 2-1 4-4 2-4l-6 4-9 4c-2 0-1-3 2-4l4-4 3-2a114 114 0 0 0 25-18c3 0 17-9 22-13 3-3 4-6 2-6s-5 2-5 4-1 3-3 2c-1-1-5 0-6 3-1 2-9 5-10 3l-4-1c-4 0-5 0-23 13-8 5-10 7-10 9 0 3 1 3 9-3 11-8 25-16 26-16 1 1-3 4-17 14-6 3-12 8-14 10l-4 3v15c1 1 5-1 12-5l5-3v1l-3 1-5 5c-7 5-9 7-9 9 0 4 2 4 7 1zm1-16 1-1v1l-1 1v-1zm3-3h2l-2 1v-1zm20-14 1-1 1 1-1 1-1-1zm65 34c2 0 2-2 0-2l-2 1c0 2 0 2 2 1zm-80-1v-4l-2-4v3c-1 5 1 8 2 5zm-21-2c2-1 2-3 1-4s-4 4-4 5 2 1 3-1zm83-2 10-7c7-4 9-7 5-7l-5 1h-3l-4 1-2 1-3 1-5 4c-5 2-6 4-4 5l4-2 4-2-2 2-4 5c1 2 4 2 9-2zm2-9 2-1v1l-1 1-1-1zm4 11 3-1c2 1 3 0 4-4 1-3-1-3-5 1l-4 3-1 1h3zm310-2c-1-2-4-3-4-1 0 1 3 3 5 3 1 0 1-1-1-2zm-404 0c2-1 3-4 1-4l-4 4h3zm123-1-2-1-2 1v1c1 2 4 1 4-1zm-279-1c0-2-1-3-3-2-2 2-2 3 1 3l2-1zm19-1c4 0 1-2-3-1-6 0-7 1-7 2 1 1 3 1 10-1zm248 1-1-1-1 1 1 1 1-1zm6 0c1-2 0-3-2-2l-1 2h3zm-120-5c0-1-3 0-4 2s1 3 3 1l1-3zm316 3 1-3c0-2 2-3 5-4l8-4c6-5 9-7 13-8l4-2c0-2-35-1-38 1l-1 21c1 1 6 0 8-1zm-460-5c1-2 0-3-3-1-5 2-5 3-1 3l4-2zm21-3 11-7c0-1-2-1-16 3-8 3-10 4-11 6-2 5 3 4 16-2zm243 0c1-3 0-3-1-3l-4 7c0 2 4-1 5-4zm-123 2c1-3 1-4-1-3l-2 3c0 2 1 2 3 0zm11-2-2-2c-1 0-3 3-2 5 1 1 4-1 4-3zm328 1c1-1 0-1-2-1l-2 1 2 1 2-1zm-86-3c2-2 3-9 0-9-1 0-2 1-3 7 0 4 0 5 3 2zm13-1-2-1-1 1c-1 1 0 2 1 2s3-1 2-2zm-259-2c3-3 2-5-1-2-2 2-3 5-1 5l2-3zm58-1 1-3 2-3c2-2 2-2 3 0 1 1 2 1 5-1l7-4c3-2 3-5 0-4l-2-2c-2-2-3-1-7 2l-7 4c-4 3-7 6-6 7l1 4c0 2 1 3 3 0zm12-13 2-1v1l-1 1-1-1zm-203 12 6-4c6-7 10-12 9-13s-8 7-10 11c-2 3-4 5-5 3-1-1-1-2 1-3 2-3 3-6 1-5l-5 6c-2 4-3 5-4 4-1-2-3-1-2 1a2586 2586 0 0 1 8 0zm497 1c2-2-1-4-5-3l-3 1h2l2 1c0 2 3 3 4 1zm15-1c0-1-2-1-3 1l1 1 2-2zm-299-3c2-2 4-7 2-7s-4 2-4 4-1 3-3 4c-2 0-3 1-2 2s3 0 7-3zm11 2-2-1c-1 0-2 1-1 2 2 1 3 1 3-1zm23-1-2 2h1l1-2zm271 1-1-1-1 1 1 1 1-1zm-129-3c-1-2-2-2-3 0l1 2 2-2zm93 0c0-2-2-3-4-1s-1 3 1 3l3-2zm25 1-2-1-2 1 2 1 2-1zm-263-2c2-2 2-3 0-3l-3 4c1 1 1 1 3-1zm-226-3 5-8c4-5 5-6 2-6l-3 3a151 151 0 0 1-10 14l2 1c2 0 3-1 4-4zm113 3v-1l-1 1v1l1-1zm98-1c0-2-1-2-2-2-3 1-3 4 0 4l2-2zm-252-1 1-4c0-3 4-8 5-8l-1 5c-2 2-2 3-1 5 2 2 4 1 5-1l2-4c2-1 2-4 1-4l-2-2 5-4 5-3c0-1-10 2-12 4-2 1-4 1-4-2 0-2-1-2-2-1l-5 1-12 7 3 1c3 1 4 1 7-1s6-3 6-1l-9 5-3 3c0 3 8 6 11 4zm47 0-1-1-1 1 1 1 1-1zm213-5h-2c-2 1-3 4-1 5 0 1 3-3 3-5zm-12-1c3-5 2-5-1-3s-6 6-5 8c1 1 5-2 6-5zm217 3a12588 12588 0 0 1 44-2c0-1-6-3-10-3l-9-3c-5-3-6-3-10-3l-5 2c-2 2-16 4-24 4-7 0-8 0-8-2l7-1c9 0 23-3 25-5 1-2 1-3-2-5-4-2-7-2-16 1l-8 2-18 4c-3 1-4 1-5-1l-2-1 1 2c1 0 3 6 2 8-1 4 1 5 6 4l32-1zm-32-6 1-2c1-2 4-1 4 1s-4 2-5 1zm97 2v-5c-1-2-4 8-4 9 1 3 4 1 4-4zm-122 3h-4l-3 1c1 1 6 0 7-1zm-387-4-1-1-1 3h1l1-2zm248 0c-1-2-4-3-5-1-1 1 2 4 5 4 2 0 2 0 0-3zm120 2c2-2 0-2-11-2-26 0-31 0-30 1l4 1h37zm134-3-2-5-2-2v4l1 6c1 2 3 0 3-3zm-363 2c1-2 1-4-1-4l-1 1-1 2c-1 2 1 2 3 1zm61-2 6-3 1-2c0-2-3-1-10 4-3 2-4 4-2 4l5-3zm65 2c3 0 2-1-2-4-2-1-3-2-4-1-3 3-1 6 3 5h3zm52 0-2-1-2 1 2 1 2-1zm7 0-3-1c-3 0-3 0-2 1h5zm-290-3-2-2c-1 0-3 3-2 4 1 2 3 0 4-2zm200 1 5-1c3 0 4-2 1-5-1-2-2-2-4 0s-5 6-5 8c0 0 2 0 3-2zm-12-1c2-3 2-5 1-6l-5 7c0 2 2 1 4-1zm-203-5c2 1 3 0 5-2l4-2c2 0 2-2 1-3l-4 2-6 2c-3 0-6 2-8 6l-1 3 3-3c2-3 3-3 6-3zm-54 0 9-6 7-3 3-2 2-2 3-3c2-1 3-2 3-4l1-3c2-2-1-1-3 1l-5 2-3 2c-1 2-2 3-4 2l-3 3-4 3-5 5-5 6-3 3c0 2 4 0 7-4zm33 4-1-1-1 1c-1 1 0 1 1 1l1-1zm150 0-2-2-2 2 2 1 2-1zm349-1h-2c-2 0-1 2 1 2 1 0 2-1 1-2zm27 1-1-1-1 1 1 1 1-1zm-37-1 1-3h-1c-2 1-3 4-1 4l1-1zm-233-1c0-2-4-4-6-4s3 5 5 5l1-1zm55 0c3-1 0-2-4-1-3 0-4 0-3 1h7zm230-6c3-3 4-6 3-7l3-5 6-10c0-1-3 0-5 3l-8 8 4-7 5-7c0-2 0-2-4 1l-3 5-3 4c-2 2-2 3-1 5v4c-2 3-2 4 2 1 5-3 5-1-1 5l-4 6c0 2 1 0 6-6zm-306 2 2-1c2 0 1-3-2-5-3-1-4-1-2 1 1 1 0 4-2 4-1 0-2 3-1 4 0 1 4-1 5-3zm296 3-1-1-1 1 1 1 1-1zm-327-3 1-3 1-1 1-2c0-3-2-3-11 5l-3 2 3 1c4 1 7 1 8-2zm-44-1c11-6 19-13 19-16l-4 1-16 10c-4 2-6 4-5 6 1 1 2 1 6-1zm-21-1c0-2-4-4-5-3s3 5 4 5l1-2zm76 1 1-2c-1-1-4 1-4 2h3zm44 0c0-1-5-6-7-6l-4-3-5-2c-3 0-2 2 3 4l7 4c3 4 6 5 6 3zm110-2c-1-1-3-1-3 1l3 1c2 0 2 0 0-2zm131 1-2-1-1 1 1 1 2-1zm-254-1-2-1-1 1 2 1 1-1zm265-1-1-2-1-3c-1-3-3-2-3 0l1 3 1 2c0 1 0 2 1 1l2-1zm-364 0-1-2h-2l-1 2h4zm-159-1-1-1-1 1 1 1 1-1zm27-1c1-1 0-1-1-1l-2 1 1 1 2-1zm141-1c1-1 0-1-1-1l-2 1c-1 1 0 2 1 1l2-1zm69 0c1-1 1-1-1-1l-3 2c0 1 2 1 4-1zm15-1-2-2-2 1c1 2 4 3 4 1zm204 0 6-2c2 0-4-3-7-3-3-1-3 0-4 1l-2 4c-1 1-1 1 1 1l6-1zm52-1c0-1-3-3-5-3l1 4c3 1 4 1 4-1zm21 0h-1l1 2v-2zm-303-2 1-3-4 4c0 2 2 1 3-1zm181 0h5a269 269 0 0 1 30-8c1-1-5-4-10-5-3-1-9 1-13 4-2 2-9 5-17 6-7 1-7 1-5 3 1 2 2 2 4 1l6-1zm-172-1-2-1-2 2 1 1 3-2zm276-1c-1-1-1-1-1 1s0 2 1 1v-2zm-351 0c0-1-3-3-4-1l-1 2c1 1 4 1 5-1zm-174 0h-2c-1 1-1 1 1 1s2 0 1-1zm47-1v-1l-1 1v1l1-1zm180-5c5-3 6-6 4-7s-3 0-3 2l-6 5c-6 3-7 4-5 5s5-1 10-5zm184 2c5-3 6-4 4-4-3 0-12 5-12 7 0 1 3 1 8-3zm67 2c1-1-1-3-3-3v2c1 2 3 2 3 1zm52-3c-1-2-3 0-3 1 0 2 3 3 4 1l-1-2zm13-1c-1-2-3-1-3 2s0 3 2 2l1-4zm-348 3h-2v1l2-1zm45-1c1-1 0-1-1-2-1 0-3 1-3 3l4-1zm-185-1c2-1 2-1-1-1l-5 1c0 2 4 2 6 0zm17-1v-1c-1-1-6 1-6 2l6-1zm95 1c1-2-1-2-2-1v2l2-1zm12 0c3-2 2-3 0-2l-5 2h5zm20 0 1-2c-1-1-4 1-4 2h3zm210-4 10-6c3-2-5 0-11 4-5 3-8 4-12 3-2-1-2-1-2 1 0 4 6 4 15-2zm157 0 4-6c2-1 2-2 1-3h-2l-8 11c0 3 2 2 5-2zm-348 0 7-7c3-3 6-4 8-2h1c0-3-5-4-10-3-5 0-6 2-4 4 3 2 2 3-1 4-5 1-9 4-8 6 1 1 1 1 7-2zm41 1-8-3 2 3c2 2 5 2 6 0zm-11 0c0-1-3-3-4-2s1 3 2 3l2-1zm-92-2-1-1-1 1 1 2c1 0 2-1 1-2zm35 0 9-5a56 56 0 0 0-16 6c0 1 2 1 7-1zm337 1-2-2h-1l1 2h2zm5-2c-1-1-1-1-1 1s0 2 1 1v-2zm-467 0c1-1 0-1-3-1s-5 0-6 2c-2 1-1 1 3 1l6-2zm371-2 2-1a1226 1226 0 0 1 4-2c0-1-6-2-8 0l-4 1c-4 0-5 3-2 4 2 1 5 0 8-2zm30 2c0-2-2-1-2 0l1 1 1-1zm76-2-1-1-2 2 1 2 2-3zm-459 0c3-1 4-4 2-4-1-1-9 1-9 2s2 4 4 4l3-2zm501-3c3-5 4-6 1-7-6-2-10-4-15-9-11-10-18-14-18-12l2 2 2 2c0 2 7 8 9 8l1 1c0 3 6 8 10 9 5 1 6 3 4 6l-1 3c0 2 2 1 5-3zm-392 0 11-5c6-3 7-4 6-5l-4 1-5 3-7 3c-2 2-5 3-7 3l-2 2h3l5-2zm-13 1-2-1-2 1 2 1 2-1zm68-1-2-1c-2 0-4-1-5-3l-4-2c-1 2 7 8 10 8l1-2zm-181 0h-2s-1 1 1 1c1 0 2 0 1-1zm83 0c0-2-11-13-13-13-1 0-1 1 1 2l6 7c3 5 6 6 6 4zm266-2h-4c-3 2-3 3 1 2l3-2zm11 2c2-2 2-2-1-4-4-2-6-3-8-1-1 1-1 1 2 1 3-1 4 1 2 3v1h5zm110 0-4-7c-1 1 0 3 1 4 1 4 3 5 3 3zm-181-2c1-1-2-6-4-6s-2 1-1 3c2 3 4 5 5 3zm207-2c2-2 2-2 1-3-1-2-5 1-5 4s1 2 4-1zm-372 0 10-4 7-3c1 0 4-1 5-3l6-3c1 0 2-1 2-7v-7h-5c-4 0-6 1-4 3 3 2 2 3-1 7-3 3-6 4-10 2l-2-5c0-4-2-5-2-2l-3 2c-3-1-7 1-8 4 0 1-1 2-4 2-4 0-4 0-5-4 0-4-1-4-3-4l-5 1c-3 0-3 2-1 4 1 1 2 1 4-1 2-1 3-1 3 1v3h-9c-8-1-9-1-10 1l-3 2-7 6c0 2 3 1 6-1l3-4c0-2 2-1 6 3 5 5 7 5 6 1 0-3 0-3 3-3h5l4-1 6 1c5 0 6 2 2 4l-5-1c-3-1-10-1-10 1l5 5c2 2 8 2 14 0zm-13-2 5-1 6 1-6 1-5-1zm16-6c-3-3-4-4-2-4s6 3 6 5c0 1-1 1-4-1zm-2-9h3c1 1 0 1-2 1l-1-1zm277 15-1-4-1 1-1 4 1 3 2-4zm58 2v-2h-3l-1 3c0 2 3 1 4-1zm-455 0c1-1-1-2-2-2-1 1-1 3 1 3l1-1zm21 0c4-2 8-6 8-7l-2 1-3 2-7 4h4zm122 0-1-1-1 1 1 1 1-1zm11-7v-3h-8c-2 0-2 2 1 2l-1 2-2 3c1 1 8-2 10-4zm334 1-2-2-3-2c0-2-1-2-2-1-3 1-3 3 0 3l2 2 1 3c1 1 4-1 4-3zm-325 2-2-1v1h2zm-158-1-1-1-1 1 1 1 1-1zm319-3c-1-4-5-4-7-1-1 2-1 3 2 4 4 1 5 0 5-3zm-302 1v-1l-2 1 1 1 1-1zm436-2v-3c1-3 1-4-2-2-2 2-2 5 0 6l2 1v-2zm-438-1c2-1 2-1 0-4-2-2-5-2-5 0s-1 3-2 3c-7 3 0 3 7 1zm363 1h-2v1l2-1zm82-2h-1l-1 2h2v-2zm-430 1c3 0 11-10 8-10-1 0-5 2-7 5l-6 4-5 2 5-1h5zm41-2c3-3 4-5 2-5l-2 1h-3c-1-3-3-3-4-1-1 3 0 5 1 7 2 1 2 1 6-2zm200 1c2-1 2-1 1-2-1-2-6 0-6 3 0 1 3 1 5-1zm-37-2h-2l-1 1c1 1 3 1 3-1zm-65-1c0-2-2-3-4-2s-1 4 2 4l2-2zm-160 0-1-1-2 1 1 1 2-1zm149-1-2-2-2-2c0-2 0-2-1-1-2 2-1 4 0 5 2 2 4 2 5 0zm32-1v-5c1-2 0-2-3-3-5-3-7-1-2 3 4 3 4 4 0 4-2-1-3-1-3 1s1 2 4 2 4 0 4-2zm10 0-1-1c-1 1 0 3 1 3v-2zm141-2h-1c-1 1-2 2-1 3 0 1 2 0 2-3zm131 1c0-2 0-2-1-1v3l1-2zm-449 1c3-2 4-4 2-4s-6 2-6 4h4zm345-1-2-1-1 1c0 2 2 2 3 0zm12 0c1-1 0-3-1-3l-1 2c0 2 1 2 2 1zm77 0-1-1-1 1 1 1 1-1zm-328-1c1-1-1-5-2-5-2 0-3 3-1 4 1 2 2 2 3 1zm78-4c3-3 4-6 2-6l-7 8c-2 3 2 2 5-2zm184 3v-7l-3 3c-2 4 0 6 3 4zm-338-3-2-1-2-2c-1-2-2-2-4-2-3 1-2 3 1 3l3 2c2 2 4 3 4 0zm26 1c1-2 0-4-1-4v5l1-1zm138 0-1-1-1 1 1 1 1-1zm237-1v-2l-1 1c0 2 1 2 1 1zm-417-1h-2v1l2-1zm50 0 3-4c3-2 4-5 5-8 1-5-1-6-3 0l-4 5-1 2-2 2-1 2 1 2 2-1zm64-2-2-1c-2 0-3 2-1 3s4-1 3-2zm15 1h7c2 1 6 0 6-2 0-1-7-2-15-2-7 1-8 1-7 3s3 2 9 1zm41-6 6-6c1 1 0 4-2 4-2 1-2 3 0 3s7-5 6-6l1-4 5-4 7-4c7-6 15-6 15-1 0 2-3 4-4 2 0-2-4-1-4 0l-2 2-2 2c0 2 1 2 3 0 4-3 3 0-1 5-5 5-5 7-2 7l4-2c1-3 8-11 8-10l-3 5c-5 8-4 10 3 3 2-3 4-4 6-4l6-2h6c3-1 3-1 3-4l2-6 2-4c-1-1-2 0-3 2-2 3-4 4-6 1-1-1-1-2 1-4s3-5 1-5l-2 1c-1 2-2 1-2-1 0-1-1-1-2 2l-4 3c-4 0-7-6-4-8 3-1-1-4-5-3-1 1-2 2-1 3l-3 3-3 3c-1 2-1 3-4 2l-3 1c1 2-6 3-11 2-4-2-6 0-4 3 0 2-3 2-5 0-1-1-1-1-1 2 0 4-1 5-7 12l-7 8c0 2 2 0 6-4 2-3 5-5 6-5l-3 5c-4 4-5 8-3 8l6-7zm176 6-1-1-1 1 1 1 1-1zm-5-4c0-2-2-3-2-1v4l2-3zm96 1-2-1-1 1 1 1 2-1zm-341-3c2-1 3-2 2-3l-9 5c1 2 5 1 7-2zm56 1v-6c0-4 1-5 4-6l3-3 2-4c2-1 3-5 1-5l-4-3c-2-2-2-2-1-4 1-3 4-3 4 0-1 3 1 3 3 0 3-2 3-3 1-5-2-4-3-4-6-1l-4 2c-1-1-3 0-3 1l-4 1c-3 0-10 5-9 7l4 1c4 1 4 3 0 5-3 2-5 6-2 5s4 0 3 1c-2 2-2 8-1 8l4 3 5 4v-1zm37-1-2-1-1-3c0-4-3-2-5 2 0 2 0 2 2 2h3l2 2c1 0 2-1 1-2zm-70 0 2-1-4-1c-4 0-5 1-3 2h5zm237 0c1-2 0-10-2-10-2-1-4 6-2 9 1 2 2 2 4 1zm-274-2-2-1-3-3c-2-3-3-3-3 0-1 2-4 3-4 0 0-1-2-2-3 0-1 1-1 2 1 2l2 2c0 2 1 2 6 1l6-1zm28 0-2-1-1 1 1 2 2-2zm19 1h-2c-1 1-1 1 1 1s2 0 1-1zm30-1c4-5 5-6 4-7-1-2-4 0-6 4l-2 4c0 2 2 1 4-1zm-110-2c0-2 0-2-4-2-5 1-5 2-3 3s6 1 7-1zm380 1-1-1-1 1 1 1 1-1zm-340-2-1-2-1 2 1 2 1-2zm256 0-1-1-1 1 1 1 1-1zm-301-3-2-1-1 1 2 1 1-1zm148 0-2-1-2 1 3 1 1-1zm143 0v-2c1-1 1-1-1-1h-1l-1 2 1 2 2-1zm-207-1 2-2c0-2-4-1-4 1s0 2 2 1zm-56-1v-3l-1-2-2 2c-2 1-2 2-2 3h5zm276 0v-1l-1 1v1l1-1zm-230-3 1-3c-2 0-5 4-5 5 1 2 3 1 4-2zm124 1 4-7 7-9c6-6 5-8-3-4-4 2-6 5-3 6l-1 4c-1 2-2 2-4 2l-3 1 1 1c2 0 2 2 0 4h-7c-2 3-1 4 3 4l6-2zm-106-1c0-3-2-2-3 0l1 2 2-2zm-70-2c0-2 3-5 6-6 2-1 3-4 1-4l-4 2-4 2-2 1-1 4 1 3 3-2zm14 0c1-2 1-3-1-3l-1 2c0 3 1 4 2 1zm275 0c0-2-2-3-3-1l2 3 1-2zm-267-3h-2l-1 2c1 1 3 0 3-2zm25-1 3-6c2-3 2-4 1-6l-1-5c0-3-1-2-4 1l-3 3 3 2c2 1 3 5 1 5l-1-1-3-1-2 1-2 1-2 1c0 2 2 2 4 1l2-1c2 1 2 1 0 3-2 4 0 5 4 2zm-15-1h-1v2l1-2zm30 1 3-1c2 0 5-2 4-4l1-4c2-3 0-7-3-7-2 0-3 0-2-3l1-7 1-5c-1-1-4 2-6 6-1 4-2 4-5 0-1-2-4-2-10 1-8 5-9 6-9 9 0 5 1 5 3 1 2-3 6-6 8-6l3-2c1-2 2-2 4-1l1 5c-1 1 0 1 2 1l8 4v4h-2l-4-3c-3-1-3-1-4 1l1 2c2 1 2 6 1 7v3l4-1zm41 0-1-1-1 1 1 1 1-1zm-91-1-1-1-1 1 1 1 1-1zm255 0-1-1-1 1 1 1 1-1zm-240-1v-2l-1 1c0 2 0 2 1 1zm253-4h-1l-1 2h2v-2zm-104 1 1-4c0-4-3-4-4 0l-1 4h4zm-141-3v-2c-2 0-5 2-5 3 0 3 3 2 5-1zm71 1 4-6 4-8c3-4 3-5 1-6-2 0-2-1-1-2 1-2 1-3-1-3s-3 3-3 7c1 3 0 4-4 10l-6 6c-2 1 0 4 2 4l4-2zm19 0-2-4c-2-4-2-4-4-2h-3c-3-1-3 3 0 4l4 2c1 2 5 1 5 0zm151-1-1-3-1 3 1 3 1-3zm-105-6c0-2-4-4-6-3-3 0-4 6-1 6l3 1h3l1-4zm-41 3 5-5 4-3-1-2c-2 0-2-3 0-5l2-3-5 1c-4 0-6 1-6 4s-1 3-4 1-5 0-5 4c0 2 1 2 3 2s2 1 3 3c0 6 2 7 4 3zm-106-3v-4l-2 3c-1 2-2 2-4 2-3-1-4 0-6 1s-2 1 4 2h5zm243 1c-1-1-3 1-3 2h2l1-2zm-113-8c1-7 1-7-1-6s-2 2-2 5c0 4 2 8 3 7v-6zm33 3c-1-3-4-4-5-1-1 2-1 2-1-1s-2-4-3-1c-1 1-1 2 1 4s3 3 5 2l3-3zm-110 1c3-3 3-3 1-5v-7c-1-2-2-1-2 2l-2 6-2 4c1 2 2 2 5 0zm86-1v-3c-1 0-4 2-4 4s2 1 4-1zm31-1-2-1c-2 0-3 1-1 3 1 1 3 0 3-2zm-110 1 2-1c2-1 3-2 4-5l2-6c1-2 2-9 1-11-2-3-3-1-3 3s-1 5-5 2c-3-2-5-1-5 2 0 2 1 2 4 2s3 0 0 4c-1 2-3 11-1 11l1-1zm190-1h1l2 1c2-1 2-1 1-2l-2-3c0-2-1-1-4 1l-2 4c1 1 3 1 4-1zm-167-1-1-1-1 1 1 1 1-1zm-35-2 1-6 2-7 1-4c-2 0-6 5-6 7 1 2 0 3-1 5-2 4 0 8 3 5zm104-1 4-5c3-2 4-4 3-5l-1-5c-1-7-6-8-9-3-3 6-3 7 1 7 5 0 5 2 1 5-2 1-4 5-3 7s4 1 4-1zm-15-1c2-2 2-4-1-4l-2 4c0 2 1 2 3 0zm-131-1-1-1-1 1 1 1 1-1zm119-2c1-2 1-3-1-2-1 1-2 4 0 4l1-2zm126-1-1-1c-1 0-2 1-1 2s2 1 2-1zm-221-1-1-1-1 1 1 1 1-1zm70-1c4-2 7-6 7-9-2-3-9 0-9 5-1 2-1 2-3 2l-2 2c0 2 1 2 7 0zm139 2-2-2h-1l1 2h2zm-214-3c2-5 0-6-2-1v3l2-2zm117 0 1-7 1-5c2-1 1-2-1-2s-3 2-4 4c-2 4-2 4-1 8 2 4 3 5 4 2zm114-5h-4c-1 2 1 3 3 2l1-2zm-16-1-1-2-1 2 1 2 1-2zm-108-4c0-2-1-3-2-3-2 0-2 2-1 5 1 4 3 3 3-2zm-136 0-1-2-1 2 1 2 1-2zm37 0 1-2c-1-1-4 1-4 2 0 2 1 2 3 0zm207-3c-2-1-2 1-2 2h2v-2zm11-3-1-4c-1 0-3 7-2 9 0 2 3-1 3-5zm-197 4-1-1-1 1 1 1 1-1zm68-1c0-2-1-2-3-2s-3 2-1 3c1 2 4 1 4-1zm133 1v-1l-1 1v1l1-1zm-237-1v-1l-1 1v1l1-1zm40-1-1-1-1 1 1 2 1-2zm9-1c2 0 2-1 1-3v-5c0-2-1-2-3-2s-2 0-1 1c1 2 1 6-1 7l-2 3c0 1 1 2 2 1l4-2zm-26 1v-1l-1 1v1l1-1zm9-4c3-4 4-6 1-6h-1l-2 3-1 2-2 2c-1 0-2 3 0 3l5-4zm62 1 7-2c4-1 4-1 4-4 0-2 0-3 2-5l2-4 2-5c3-5 3-6-3-6-3 0-4 0-5 2-2 3-1 5 1 6 3 0 4 1 1 3l-1 3c0 1-7 9-9 9l-1-3c0-4-1-5-3-4l-1 4c0 2-1 3-3 4s-3 2-1 3c1 1 5 1 8-1zm16 1c4-1 3-3-1-3-2 0-3 0-3 2s1 2 4 1zm23-3 4-3c3 0 9-7 11-12 2-6 2-6-1-6s-5 2-5 6l-1 4-4 3c-2 1-4 2-5 1-2 0-7 4-7 7 0 2 2 4 4 4l4-4zm95 1-1-1-1 1s0 2 1 1l1-1zm-216-3v-6c1-2 1-2-1-2s-2 0-2 5c1 7 3 10 3 3zm109 3v-3h-3l-1 3h4zm-80-3-1-1c-1 0-2 1-1 2s2 1 2-1zm-22-1v-2c0-2-1-2-2 0-3 2-1 4 2 2zm96-3c1-3 0-4-2-4l-1 3c0 5 2 5 3 1zm115 1-2-1-2 1c0 2 3 2 4 0zm-191-2-1-1-1 1 1 2 1-2zm197 1c0-2-1-3-3-2-2 2-1 3 1 3l2-1zm-246-4c0-2 0-3-2-3-1 0-3 2-2 5 1 2 3 1 4-2zm13 2-1-1-1 1 1 1 1-1zm20-2 6-5c5-2 6-4 3-4-1 0-1-1 1-2 3-1 4-3 2-3l-4 1c-2 2-3 2-3 1 0-2-3-3-4-2v5c-2 1-1 3 1 3l-3 2-4 4c0 3 2 2 5 0zm8-1h-2v2c1 1 3-1 2-2zm15-1-2-1v2c2 1 3 0 2-1zm78-1c0-2 4-4 7-3 2 0 2 1 0 2l-1 3c1 1 4 1 6-1s2-2 0-7-4-7-4-4c0 2-2 4-3 4l-1-2c1-3-2-12-4-14l-3 1v3c2 1 2 2 2 3l1 1c1 1 1 6-1 7l-1 4-1 3v2c2 1 3 0 3-2zm108 0 3-2 4-4c2-3 3-4 1-4v-3c1-3-5-4-8-1s-3 4 1 3c3 0 4 0 3 1l-3 3c-2 1-3 3-1 3l-1 1c-3 2-4 4-2 5 1 2 2 1 3-2zm-225 0 4-1 4-1 2-1 2-2c0-2-2-3-4-1s-6 2-7 1c-1-2-6-1-6 0l1 2v1l2 3 2-1zm33-2 3-1c2 0 4-4 4-8-1-1-1-1-3 2l-3 4c-3 0-5 2-5 4 0 3 3 2 4-1zm75 0h-3c0 2 2 3 3 2v-2zm-119 0-1-2-1 2 1 2 1-2zm-15-1c0-2-2-1-2 0l1 2 1-2zm235-1-1-1-1 1c0 1 0 2 1 1l1-1zm11-4c0-4 0-4-2-4s-6 3-4 4l2 3c1 3 3 2 4-3zm-236 1v-2c-1-2 0-5 3-8 1-2 1-2-1-2s-7 6-7 8l1 3c0 2 1 2 4 1zm24-2c0-2-2-3-4-1s-1 4 1 4 2-1 3-3zm-33-4-1-2-2 3 1 3 2-4zm26 1 5-3-3-1-2-2-5 4c-4 4-4 4-2 4l7-2zm-8-4 2-3-3 2c-3 2-4 5-2 5l3-4zm32 3-1-1-2 1c-1 1 0 1 1 1l2-1zm-6-1 1-3c0-2 0-2-2-1-3 1-4 3-3 4h4zm21-3-1-4c-3 1-2 8 1 8v-4zm180 2c5-1 6-2 6-4l-4-1c-5 1-12 4-12 6l10-1zm-88-5-1-2-2 4c1 1 2 0 3-2zm102-1-1-2c-2 0-3 2-3 4 1 2 3 1 4-2zm-230 0c2 0 3-3 1-3l-9 4 8-1zm21 0v-1l-2 1c-1 1 0 1 1 1l1-1zm-48-2-1-1-1 1 1 2 1-2zm43 0 5-4 4-3 1-1c2 1 7-4 6-5s-6 0-6 2l-3 1c-2 1-11 6-12 8l2 4 3-2zm109-1-2-1-1 2c0 1 0 2 1 1l2-2zm-88-1c1-3-1-8-2-8-2 1-2 5-1 8 1 2 2 2 3 0zm170-2c3-4 3-4-1-4-3 0-3 0-2 1 2 2 2 2 0 2l-3 3c0 2 0 2 2 1l4-3zm-234 1 3-1 2-3-5-1-4 1v-4l2-4 1-3 4-4c3-1 5-3 5-4 2-4 4-7 7-7l5-2 4-2c1 0 2-1 1-2-1-3-3-4-4-1l-3 4c-2 1-2 1-3-1s-4-3-7-1l-6 1c-3 0-4 1-4 4v7c0 3 0 4-3 5-4 1-4 2-1 4 2 2 2 2 1 3-1 0-4 6-4 9l2 1c2-1 3 0 4 1h3zm1-25c0-2 0-3 2-4l4-1c2 1 1 4-1 4l-2 2-2 2-1-3zm17 23c0-1-2-2-3 0 0 1 1 3 2 2l1-2zm8 0-1-3c1-2-1-3-4-1v3c2 3 5 4 6 3l-1-2zm134 0-2-1-1 1 1 1 2-1zm-12-3 6-4c2-3 3-3 2-5-2-2 0-7 3-9s4-4 2-6l-3 2-4 4-2 4c0 2-2 5-5 8-4 5-5 6-3 7 1 1 1 1 4-1zm-103-3 6-3 3-3c1-2-6 0-8 2l-4 3-3 3c0 2 2 1 6-2zm92-1v-4c-1-1-3 1-4 4-1 5 2 5 4 0zm107 2c2 0 2-1 1-1l-3 1v2l2-2zm-228-2c7-3 9-5 9-9 0-1-1-1-3 2l-5 3c-3 0-8 3-8 5s0 2 7-1zm218-3 5-2c3-1 6-5 4-6-1-1-6 0-8 3l-5 2c-3 0-4 1-4 3s0 2 3 2l5-2zm-57-1h-1l1 2v-2zm-173-1-1-1-1 1s0 2 1 1l1-1zm244 1h-3c-1 1-1 1 1 1l2-1zm-207-2c0-2 0-2-2-1-1 1-1 3 1 3l1-2zm217-2c0-2 0-3-2-3l-1 1-3 4-2 2h4c3-1 3-1 4-4zm-247 1-1-1v3l1-2zm134 0c0-2-2-1-2 0v1l2-1zm-111-1 2-3c-1-1-8 3-8 4 1 2 4 1 6-1zm193-4c-1-1-1 0-1 1 0 2 0 3 1 2v-3zm-203-2 4-3c1 0 3-4 2-5s-17 9-15 11c1 2 6 0 9-3zm22 2-2-5c-2-2-3-2-5-2v2c4 1 4 1 3 2v3c1 2 3 2 4 0zm104-2 3-4 7-10 2-3c0-2-3-1-4 1l-2 2-5 4c-2 3-3 4-5 4-4 0-4 3-1 3 3 1 3 2 0 3-4 1-4 3-1 3l6-3zm105 1c2-2 2-3 1-3-1-2-6 0-7 3-1 2-1 2 1 2l5-2zm-20-4c0-1 0-2-2-2v-2c1-3 1-4-2-2l-1 5c0 4 0 4 2 4s3-1 3-3zm-182 1h-2v1l2-1zm8-7c0-4-2-5-4-3s-4 2-4 0 0-2-3 0c-2 3-3 4-1 4l2 2c1 1 1 1 4-1h1c-1 2 1 3 3 2l2-4zm189-5 2-9c2-3 0-6-4-6-2 0-2 0-2 2l2 12c0 12 2 13 2 1zm-84 2 1-3c-1-1-5 2-5 4s3 1 4-1zm68-1c4-1 5-2 5-3 0-2-1-2-3-2h-2l1-1 3-2c1-2 1-2-3-2-3 0-4 0-3-2l-1-2c-2 0-2 3-1 6 1 4 0 6-2 5-2 0-3 3-1 4l1 1 6-2zm-169-2c0-2-1-2-1-1-2 1-1 4 1 3v-2zm-59 0c1-2 2-2 5-2 4 0 5 0 5-2l2-3c2-1 2-4-1-4l-5 2-3 2-1-2c-2-3-2-3-4-1l-2 4c-1 2-1 2 2 1 4 0 4 0 3 2l-3 2-1 1c0 3 3 2 3 0zm34-2 3-2 2-1c0-1-1-1-5 1-4 1-5 3-4 4 0 2 2 1 4-2zm19 2v-1l-1 1v1l1-1zm-63-1-1-1-1 1c-1 1 0 1 1 1l1-1zm38-6c1-1 0-1-1-1-2 0-5 2-5 3 0 2 0 2 3 0l3-2zm-3-5c0-3 1-4 7-9 8-5 10-7 9-9l-13 9c-2 3-4 3-6 3-3-1-6 0-6 3l2 2 4 2c2 3 3 2 3-1zm9-2-1-1c-2 0-2 2-2 4h2c1-1 2-2 1-3zm13 1h-2v2c1 1 3-1 2-2zm-42 0-1-1-1 1 1 1 1-1zm229-1c4-2 5-4 3-4l-1 1-2 1-3-1 1-1 1-2-2-1c-2 1-2 0 1-3 4-4 3-5-1-2l-6 3c-3 0-4 3-1 4l2 1v2l2 2c0 2 1 2 6 0zm-220-1c0-1-3-3-4-2s1 3 2 3l2-1zm38-1-1-2-1 2 1 2 1-2zm-45-2c-1-2-4-2-4-1l2 2 2-1zm235 0c3-2 2-3-1-3s-4 2-2 3h3zm-226-6 1-4c-1 0-7 5-7 7 0 3 4 1 6-3zm15-3c7-7 7-8 1-3l-9 8c1 2 2 1 8-5zm214-2-2-1-1 1 1 1 2-1zm-222-2-1-1-2 1c-1 1 0 1 1 1l2-1zm26-2c2-2 2-4 0-4s-5 2-4 4 2 2 4 0zm200-2c1-1-1-3-3-3v2c1 2 3 2 3 1zm-211-9c3-2 3-3 1-3s-7 4-7 5c0 3 2 2 6-2zm9 2v-1l-1 1v2l1-2zm10 0v-6c0-9-4-9-5 0l2 6h3zm168-10c-1-6-1-7-3-7s-2 0-1 6c0 6 1 8 3 8l1-7zm14 3-1-1-1 2 1 1 1-2zm11-1c1-3-1-5-2-3v5l2-2zm-202-3 1-3-4 4c0 2 2 1 3-1zm35-5c0-2-2-3-6-4-5 0-8 2-6 4 1 1 8 3 10 2l2-2zm-21-2-2-2c-1 0-2 2 0 3 1 2 2 1 2-1zm607 518c-2-2-1-4 3-6 3-2 4-2 13-1s10 1 13-1c3-3 5-3 8 0 2 2 3 4 2 6s-2 2-3 1c-1-2-5-2-25-1l-5 2h-6zm-783-2 1-3 2-3c0-3-4-3-6 0h-2c-1-1-1-2 1-4 2-1 3-4 3-5 0-2 7-10 9-10l3-2 4-1c3 1 4 1 7-2 5-4 15-8 16-7v2l-6 4-7 4-2 1-6 2h-4v4c0 4-1 5-3 8l-3 6c0 3-1 4-3 5s-3 2-4 1zm10-21-2-1-6 7c1 1 8-4 8-6zm121 19c0-3 10-6 11-3 1 1-6 5-9 5l-2-2zm326-2c-1-1 0-2 3-4l8-6 14-7 4-3c2-8 8-14 11-13 3 2 7 0 10-4 3-2 4-4 4-6-1-1 0-3 1-4 2-1 3-3 3-8 1-8 2-11 6-15 2-3 3-4 2-5-2-1-2-1 3-3l7-2c4 0 8-3 8-6l3-3 3-4 3-4c3-1 2-3-2-3-3 0-2-2 1-3 4 0 4-2 1-2l-5-2v-2l3-1c2 0 3-2 3-10 1-6 1-7-1-7-1 0-3 5-1 6 1 2 0 4-2 4-2-1-4-20-2-24l2-3 1-7c0-6 0-7-2-9l-5-8c-4-8-6-10-9-10l-3-1c0-2 3-3 10-4 5 0 6 0 7 2l4 3c4 1 5 2 5 6l1 6c1 2 1 10-1 11-1 1 0 11 1 13v2a141 141 0 0 0 1 40c-1 2-1 3 1 4 3 2 3 2 5 0s3-3 2-5c0-2 0-2 2-2 4 0 10 3 12 5 2 3 4 4 5 1h4c4 1 4 2 1 3l-2 2c1 2 7 2 19 0 9 0 14 1 20 6 3 3 4 3 9 2l10 1h15c3 2-5 4-16 4l-11 1 1 3c2 4 2 4 0 4s-5-3-5-5c0-1-8-8-12-10l-10-1h-9v3l2 5c0 2 0 2-2 2-2-1-3 0-5 3s-4 3-4-1l-1-2-1-2 1-1 2-3c1-1 0-2-1-3l-3 2-2 3c0 1-3 4-4 3l1-3c2-3 3-8 1-6-2 4-10 10-11 9-1 0 8-10 10-10s1-3-2-4h-3l-5 8-6 5 2-5c3-4 4-8 2-10-1-1-2 0-6 4l-7 5-3 1h-1l-3 2c-2 2-3 3-5 2l-9 3-8 4c-3 0-2 3 0 4s2 2 1 5c0 5 0 5 2 4l2-1 3-2 6-5c3-3 6-4 6-2s-5 7-6 7l-6 3-6 3c-3 0-3 1-4 8 0 4-1 6-2 6l-2 2 7 4 9-11 6-3c3-4 7-4 5-1l-11 10-3 4-5 7c-3 3-3 3-4 2-2-2-4-1-5 3-1 6-4 12-7 14l-5 4-4 3c-3-1-2-4 2-7 5-3 11-12 11-15l1-4v-2c-1-1-2-2-1-4 0-4-1-4-5 0-5 5-8 7-13 8-5 0-5 0-8 6-2 6-3 7-10 10l-12 9c-7 6-11 8-12 4zm68-66-1-1-1 1 1 2 1-2zm69-15-1-1-1 1 1 2 1-2zm-45-55c-1-1-1 0-1 1s0 2 1 1v-2zm4-25h-1l1 2v-2zm-5-7c-1-5-4-9-6-9s-2 0-1 2l3 3 1 3c0 3 1 5 2 5l1-4zM133 537c-1-2 2-6 9-10 7-6 10-8 12-8 3 0 2 2-4 6-11 7-12 8-13 11-1 2-3 3-4 1zm641-1c0-2 7-9 11-12l4-3 3-4a664 664 0 0 0 9-7l-4 6c-3 6-9 12-11 12l-5 5c-3 5-7 7-7 3zm-511-1 3-4 3-7c1-5 5-8 12-10l11-6 5-4 4-2c2-2 2-3 2-5-1-3 1-3 3 1l3 3c4 2 2 3-6 4-4 1-4 3 1 4 4 1 6 2 5 4l-11-3c-1-2-3-1-7 2l-8 4c-7 2-10 5-10 9 0 3-2 5-5 9-4 3-4 3-5 1zm827-2-5-6-3-5c-4-3-4-6 0-7 2-1 3-2 3-4l1-6-2-3c-3-1-4-7-1-7 1 0 3 1 4 4l3 5 3 2c2 2 4 14 4 19-1 3 0 4 1 5 3 3 3 3-1 5-3 1-3 0-7-2zm1-17c0-2 0-2-1-1v2c1 2 1 1 1-1zm-883 18c0-2 3-2 4-1 1 2 1 2-2 2l-2-1zm835-1h2l-2 1v-1zm-607-1c0-1 5-5 13-9 6-3 11-4 11-2 0 1-8 6-15 9-6 3-8 3-9 2zm-336-3-2-1 4-5 3 3 3 4c0 1-4 1-8-1zm82-3c-2-1-1-3 2-3l5-2 4-1c1 0 4-1 5-3 3-3 5-3 9-3l12-3 8-2 7-3c5-3 11-4 12-2l-4 1-7 3c-4 4-25 10-27 10-2-1-11 2-12 4s-13 5-14 4zm245-2c-1-1-1-1 1-1l2 1c1 1 0 2-1 2l-2-2zm-326-4c-1-1 2-4 3-4 2 0 3 2 2 3-2 2-4 2-5 1zm430 0c0-2 2-4 4-4l4-2 7-2 7-2c4-3 8-3 8 0l-7 4c-20 7-23 8-23 6zm-56-2c0-1 4-3 13-4 6-1 7-2 8-4s3-3 7-4l7-2 9-5c14-5 25-11 31-17l9-5c4 0 3 1-15 14-3 3-8 6-11 6-9 4-13 6-13 8s-1 2-4 4c-6 2-8 2-11 1h-3l-1 3v2a682 682 0 0 0-26 3zm42-13c1-1 0-1-1-1l-1 1 1 1 1-1zm532 10c-5-4-10-6-15-6-4 0-7-2-5-3h13l8 4 5 3c2 0 4 2 4 4-2 2-6 1-10-2zm-892-1c0-1 11-7 16-8 3 0 5 2 2 2l-8 4c-7 3-10 4-10 2zm241-1 3-4 3 1c1 1 1 2-1 3-2 2-4 2-5 0zm124 1c-2-1-1-2 1-2 3 0 4 3 1 3l-2-1zm59-3 1-1 1 1-1 1-1-1zm-47-1c-1-2 1-2 2-2 1 1 2 1 1 2h-3zm35-2-1-2 14-2 6 1-2 2c-6 1-16 2-17 1zm-68-5-1-1 8-3c3 0 2 2-1 3l-4 1h-2zm-160-1c-2-1-1-3 1-3l2 2c0 1-1 2-3 1zm11-1c-5-1-7-3-3-5l3-2 1-1c2 0 2 1 1 3-2 2 3 3 9 2 7-2 7-2 7 0s-6 5-10 5l-8-2zm-171 0c0-2 5-6 7-6s1 2-2 4c-3 3-5 4-5 2zm867 0c-2-1-2-4 0-4 3 0 8 2 8 4h-8zm-925-2c-1-2 17-13 19-12 2 2 1 2-5 5l-5 4-7 4-2-1zm95-4-1-1 4-1c5 0 12-2 16-5 5-4 16-7 17-4 1 1-2 3-5 3l-9 3c-6 4-16 7-19 7l-3-2zm859 0-2-3-5-1-7-1c-2-1-2-1 0-2l6-1c2 0 3-1 1-1l-3-1-4-1c-3 0-4-1-3-7 0-6 2-6 5-1 2 4 4 5 6 4 1 0 8 4 8 6v5c2 4 1 5-2 4zm-734-4c-3-1-3-2-1-6 3-4 5-4 5 0-1 2-1 3 1 3 1 0 2 0 2 2-1 2-4 2-7 1zm135 0-3-2c0-1 2-2 11-1h11l7-4 11-6 8-4c4-2 7-2 7 0l-4 2-21 12c-6 3-7 3-15 4l-12-1zm-313-1-10-1h-10c1-2 5-3 14-3 10 0 17-3 20-9 3-5 13-10 19-10l6 1c1 1 6 3 10 3l4-2c3-3 15-6 22-6s9 1 9 5c0 3-2 3-4 1h-10l-6 2-7 2-3 3c-2 3-5 4-6 1l-4-2-7-3-4-2-3 2-6 2-8 6c-6 6-15 11-16 10zm23-2c-1-2 5-7 9-8l7-2c2 0 2 0 2 2 0 3-2 5-5 3-2-2-6 0-8 3-3 3-4 4-5 2zm859-2c-1-2 2-3 5-3 5 1 5 3-1 4l-4-1zm-356-1c-2-4 2-9 6-9 3 0 7-2 11-4 3-2 11-4 22-6 7-1 9-3 3-4l-2-2c0-1-4-2-15-2-9 0-17-2-17-4h2l36 1c9 0 10 2 2 3s-7 2 3 3l7 1-3 2-4 1c-4 3-15 6-20 6s-15 4-22 9c-7 6-8 6-9 5zm-229-1c-1-2 1-4 4-4l9-4 10-3c2 0 11-7 17-13l5-3 5-7c3-7 5-8 7-4l1 3c0 2-12 13-17 16l-10 7-7 4a154 154 0 0 0-18 7c-3 2-5 2-6 1zm-34-1c0-1 8-9 10-9l1 2-1 4-3 3h-7zm-170-3c0-1 2-2 6-2l11-3c7-2 12-3 12-1l-3 1-12 4-9 2c-5 1-5 1-5-1zm317 0c0-2 2-2 11-2 8 0 9 0 12-3 4-3 7-4 9-3h5l4 1c1 1 0 2-2 2l-11 3c-9 3-28 4-28 2zm179 0h-5c-5 1-8 1-6-1l21-9 2 1c-1 1-1 2-8 4-2 2-3 2-2 3l10-4 10-4c4 0 1 2-7 6-12 6-14 6-15 4zm-302 0c1-2 8-5 9-3l-2 2c-4 2-7 2-7 1zm270 0c-1-1 2-3 3-3 2 1 1 4-1 4l-2-1zm-152-5c-2-4-2-4-1-6 2-1 5-1 5 1l2-1c3-3 9-5 14-5 3 0 4 0 4-2 0-4 1-5 6-7 7-3 8-1 2 4l-3 3 3-1h2c2 0 2 1-1 3-3 1-4 3-4 4 0 2-5 6-7 6s-1-3 1-4c2 0 2 0 1-1l-3 1-8 4-8 4c0 2-3 0-5-3zm14-4c5-2 6-4 3-4s-9 4-9 5 2 1 6-1zm347 5c-3-4 0-6 4-1 3 3 3 4 0 4-2 0-3-1-4-3zm-196-1v-3a293 293 0 0 1 18-3c1 1 0 2-8 4l-8 3c-2 2-3 1-2-1zm44 1c-2-1-1-2 2-4 4-2 8-3 8-1l-5 3c-5 3-4 3-5 2zm-314-1 12-6 6-6 5-4c6-5 9-8 8-10 0-2 0-3 2-4 5-2 7-1 7 2 0 2-2 3-5 6l-11 10c-7 6-12 10-14 10l-4 1c-4 2-5 2-6 1zm496 0c-2 0-5-1-6-3l-5-2-2-2h42c1 2 1 2-1 4-2 3-3 3-13 3h-15zm22-4h-2c-1 1 0 1 1 1l1-1zm32 3-5-1c-2 0-3-1-3-2s2-2 10-3l11-1c9-1 11 0 4 4-3 2-6 3-7 2l-4 1c-1 2-3 2-6 0zm-122-2c-2-3 0-5 3-2 3 2 3 5 0 5-1 0-3-1-3-3zm-652 0 1-1 1 1-1 1-1-1zm206 0c1-2 6-4 7-3s-3 4-5 4l-2-1zm222-1 1-1c1 0 2 0 1 1l-1 1-1-1zm31-1-3-1c-2 0-4-3-4-4 2-2 4-1 6 1 1 2 2 3 4 3s3 1 0 2c-2 1-2 1-3-1zm183 1c0-2 2-6 4-6s1 6-1 7l-3-1zm156 0c-1 0-1-4 1-4l6-1c5 0 7-2 1-2l-20-3 1-4c2-4 1-13-2-16-2-3-2-5 1-5s3-2 1-4v-8h-5c-8-1-8-2-6-5l4-3c2 0 2-2 0-4s-2-2-1-3c2-3 4-2 5 0s1 2 2 1c1-3-1-8-3-8l-6-1h-6c-1 2-6 3-8 2l-2-4v-3h7l7-1c2-2 5-1 6 1l1 2 1-2 1-2 1-3c0-2-4-2-6-1h-4l-7-1h-5c0-2 5-4 14-5h7l5 5c4 5 5 9 2 11v17a452 452 0 0 0 6 43c3 1 5-1 3-1l-1-2c1-3 5-2 6 1 0 2 1 2 4 1 4 0 8 2 9 5s1 3-2 4l-4 2c-2 1-12 2-14 1zm-503-1c-1-2 2-5 7-5 6 0 8 2 3 3l-5 2h-5zm-267-3c-2-2 0-3 4-3l12-2c11-1 17-2 18-1 1 2-31 7-34 6zm443-1c-2-1-1-2 2-3 3-2 5 0 3 2-3 2-4 2-5 1zm-325-1c1-2 15-13 17-13 3 0 2 2-5 7-9 7-13 8-12 6zm397-1c-1-1 0-2 7-3l8-2 15-4c4 0 1 3-4 4l-6 3-11 3-9-1zm-11-3 1-1 1 2-1 1-1-2zm-12-3c-3-1 2-2 14-2l14 1-14 2-14-1zm218-1c-11-1-14-2-14-4l3-1 24 2c18 0 20 0 20 2l-13 1h-20zm42-1c1-2 3-2 3-1l-2 2-1-1zm-237-4c-1-1-1-1 1-2h6c0 1 0 2-3 2h-4zm-75-2c0-2 2-2 5-2 3 1 3 4-2 4-2 0-3-1-3-2zm26 0v-2l7 3c0 1-6 1-7-1zm31 1c-2-1-1-2 1-2 3-1 6 1 5 2h-6zm-747-4c-2-1-1-4 1-4l5-2h4c2 2 2 3 0 3l-4 3c-2 2-4 2-6 0zm10 1 1-1 1 1-1 1-1-1zm731-2 1-1 2 1-2 2-1-2zm-410-2 2-2 5-4c2-2 3-3 4-2l-4 5c-5 4-7 5-7 3zm354-1c-3-1-2-3 3-3l3 1c0 2-3 3-6 2zm25-1c-2-1 0-2 6-2 4-1 5 0 5 1l-5 2-6-1zm17 0c1-1 4-2 11-2l10-1v-2l-4-1c-4-1-5-3-2-3a385 385 0 0 1 46 1l-5 1c-10 0-13 2-8 5 2 0 3 1 2 2h-50zm41-4c1-2 0-2-8-2l-8 1c0 3 1 3 9 3 5 0 7 0 7-2zm355 3-9-2c-4 0-11-5-15-11-3-4-11-9-21-12l-9-3c-5-3-15-5-17-3l-4 1-9 3c-14 4-16 1-3-4l12-5c7-3 20 0 41 10l15 10c7 7 6 7 19 4a17820 17820 0 0 0 33-8c9 0 13 1 11 5 0 3-2 4-7 4l-6-2c-1-1-1-1-12 1l-12 2c-7 1-8 1-6 4 1 1 5 3 13 4l3 2c-1 2-10 2-17 0zm-421 0c-2-1-1-2 1-2l3 1c0 2-3 2-4 1zm-470-1c-4-1-2-9 4-9 2-1 2-1 2-3 0-3 2-3 4 0 1 1 2 2 3 1 4-3 8-7 8-11 0-2 1-4 3-5 4-3 7-2 3 1-3 3-4 10-1 10 2 0 2 3 1 6 0 2-1 2-2 0-4-2-4-1-6 3s-3 5-9 6a2370 2370 0 0 0-10 1zm98 0c0-1 7-10 9-10s1 1-4 6c-2 3-4 5-5 4zm14 0c0-1 5-7 8-8s5 2 4 5c-1 2-2 2-6 2l-3 1h-3zm454-1c-1-2 0-2 5-3 7 0 11 0 9 2l-7 1h-7zm-711-3 4-4c2 0 12-8 12-10 1-4 15-9 16-6l-5 2c-3 1-5 3-6 5l-10 9c-9 5-9 5-11 4zm609-1c-2-2 1-2 17-2 13 0 17 1 18 2l-17 1-18-1zm-481-3 2-4c0-2 3-1 3 0 0 3-2 7-4 7l-1-3zm460-2c0-4 1-4 3-4l32-3 5-1v-5l-1-6-2 5c-1 5-2 5-3 0-2-5 0-7 6-7 5 0 6 0 9 4 5 4 5 4 1-2-2-4-4-5-6-5l-3 1c-1 3-2 2-2-1 0-6 12-5 15 2l2 9 2 7c2 3 3 3 9 3 6-1 9 0 4 2-2 1-15 0-42-1a108 108 0 0 0-17 1l-1 2c-1 3-2 3-6 3h-5zm-412 2c-2-2-1-8 2-8l1 4c-1 4-2 6-3 4zm534 0-2-2c0-2 2-3 5-1 4 2 2 4-3 3zm-805-1c-1-2 1-4 3-3 1 1 0 4-1 4l-2-1zm82-1c-1-1 0-2 2-3 1-1 1-1 1 1 0 3-1 3-3 2zm218-3 2-4 2-3c1-2 2-3 3-1 1 4-5 11-7 8zm554-1c0-2 4-6 6-6s1 3-1 5c-2 3-5 4-5 1zm43 0 3-3 4-4c1-4 2-7 4-7s2 2 0 6c-3 7-11 13-11 8zm-587-4-1-8c0-5 0-5 3-8s5-3 5 0l1 3c3 2 1 9-2 10l-2 3c0 1-2 3-4 3v-3zm6-10c0-4-2-4-3 1l1 3c1 0 2-1 2-4zm437 10c-10-12-12-17-10-22l3-3c1 0 13 11 13 13l3 7 2 5-3-1c-2-2-4-2-4 0 0 3-2 3-4 1zm4-5-2-1-1 1 1 1 2-1zm60 5 1-1 1 2-1 1-1-2zm-129 0 1-1 1 1-1 1-1-1zm-550-2 1-2 3-4 11-11 11-4 7 1c0 1-3 2-7 2-2 0-12 6-16 10l-3 4c0 2-4 6-6 6l-1-2zm185-2c-1-3-2-9 0-11 1-2 4-1 3 1l1 3c1 2 0 9-1 9l-3-2zm701 0c1-2 6-4 7-2v2h-7zm-996-2 3-2c3-1 4-1 4 1l-1 1-4 1-2-1zm532-1 1-2 2 2-2 2-1-2zm-514-1 3-1v1l-3 2v-2zm642 0 4-5c3-4 4-6 4-9l3-6c1-1 5-1 6 1 1 1-1 6-5 9l-5 7c-4 5-7 6-7 3zm299-1 2-2c2 0 2 3 0 4-2 0-2 0-2-2zm10 1c-2-1-1-3 1-3s4 2 2 3h-3zm-136-1 6-5 3-2c1-3 6-3 7 0 0 1-4 5-7 5l-3 1c-1 2-6 2-6 1zm-858-1c0-1 2-3 4-2v2h-4zm880-1 2-1c2 0 2 2 0 3l-2-2zm-842 0h2l-1 1c-1 0-2 0-1-1zm929-1c-3-2-5-9-3-9s5 5 5 8c0 2-1 2-2 1zm-968-2 3-3c2-2 4-2 8-2h5l-2 3c-1 1-3 2-7 2h-7zm814 0-1-2-2-2c-2 0-2 0-1-2v-8c1-2 3-1 3 2l2 3c2 4 1 12-1 9zm-484-3c2-4 1-6-3-6-5-1-3-4 1-3h7l2 1-3 5-4 6c-2 0-2 0 0-3zm646-2c-2-3-2-4-1-5 2-1 6 5 6 6-1 2-3 2-5-1zm-116 0c-2-2-1-5 2-9l4-7c1-2 6-7 7-6l-6 12-4 9c0 2-1 2-3 1zm48 0v-3c3-2 4-1 4 1s-2 3-4 2zm-22-4 2-1 1 1c-1 2-3 2-3 0zm-131 0h2l-2 1v-1zm96-2c0-2-1-3-3-3-4 0-4-3 1-3 2 0 3-1 5-4 3-4 5-4 6 0 0 2 0 3-2 4s-3 3-3 5c-1 3-4 4-4 1zm-695 0 6-4c5-3 7-4 10-4 7 1 7 2 3 5-4 5-6 5-3 1l2-4-1 1h-5c-1-1-1-1-2 1-2 3-10 6-10 4zm-55-1 4-5 5-3 1-1 1 3-1 3-6 2-4 1zm637 0c-1-2-3-9-2-12 0-5 5-1 5 4v2l1-2c1-3 4-2 5 1 0 3-3 6-5 5h-1c0 2-2 3-3 2zm54-2-1-8c0-3 1-5 2-5s2 1 2 6c1 6 1 10-1 10-1 0-2-1-2-3zm100 2 1-2c1-2 4 1 3 2h-4zm-562-2 1-1v1l-1 1v-1zm545-3c0-5 3-12 5-14l5-2 5-5 3-4-2-4-4-6c-2 0 0-2 3-2s3 0 3-3c0-4 0-4 2-4l2 6-1 8c-1 1-1 2 1 2s2 1 2 3c0 4 3 4 7-1 8-9 12-12 13-12l2-2 3-2 3-2 3-1 3-1 9-1c6-1 8-1 9 1 2 2 0 3-9 3s-10 1-10 4c0 2 0 2-2 3l-5 2c-1 1-3 2-4 1-1 0-2 0-3 2l-4 3-3 3-3 4c-2 0-3 1-3 2l-5 1c-7-1-10 2-10 6 1 3 0 4-4 5-2 1-7 5-7 7l-4 4v-4zm10-11-1-1c-2 1-2 3-1 3l2-2zm21 14c-1-3 4-12 6-9 1 0 1 2-1 5-2 4-4 5-5 4zm-177-2c-2-2-1-10 1-10 1 0 2 2 2 6 0 6-1 7-3 4zm-10-2-2-3-1 2c-1 3-1 3-6 3s-5 0-6-3c-2-4-1-9 1-9s3 1 3 3c0 5 1 7 3 7v-4l1-5c2-1 2-1 3 1 1 3 3 4 4 1 1-4 4 0 4 6 0 4-2 4-4 1zm260-2v-3c1-1 4-2 5 0l-3 4-2-1zm-174-2c-3-2-2-3 5-4l5 1-4 3h-6zm41-1c0-2 1-3 3-3s3 2 1 4-4 1-4-1zm93 0c-2-1-1-4 1-6 5-4 7-1 3 4-2 3-3 3-4 2zM9 384c-1-2 0-5 3-7l3-3 2-2v5l-3 4-2 1c0 2-2 3-3 2zm970-4c-1-3-1-4 1-5 3-2 4 0 3 4 0 5-3 5-4 1zm-107-1c0-1 2-3 7-4 3-1 5-2 6-5 3-5 7-8 10-6l1 3-2 1-4 2c-1 5-3 8-5 8h-6c-5 2-7 2-7 1zm138-2-3-4-2-2c-2 0-3-1-4-3 0-2 0-2-1-1s-3 2-7 2l-7 1h-4v-3l5-1c2 0 10-9 10-11l3-1c3 0 4 1 7 5s4 4 6 4c4-1 5 1 3 4v7c0 5 0 6-2 6l-4-3zm-965 1 8-9c1 0 1 2-1 4l-2 4c-1 2-3 2-5 1zm772 0c-2-2 0-3 4-2 5 0 6-2 2-3s-5-3-2-3l3 1c2 0 4 6 4 6-1 1-10 2-11 1zm98-1c1-2 6-3 8-3 2 1 0 3-4 3h-4zm-786-1c-3-1-1-2 3-2 5 0 7 1 4 2h-7zm735-1c-1-3 9-7 11-4 0 2-2 4-5 4l-3 1c0 1-2 1-3-1zm-140-2c-3-3-3-8-1-9 2 0 6 5 6 8-1 3-3 3-5 1zm79 0v-7c3-8 7-12 11-10 1 1 1 1-1 3l-3 2 3 1c7 0 10 1 10 2 0 2-2 2-7 2-8 0-10 1-10 5 0 3-1 4-3 2zm151 0c-1-1 1-8 3-10l9-4c8-3 9-5 7-8l-2-3c0-2 4-1 4 1l3 3c3 3 2 5-1 6-6 3-5 8 1 10 2 1 2 2 0 4-1 2-1 2-3 0l-2-4c0-1-4-3-7-3s-5 1-7 5-4 5-5 3zm-890-2 1-1c1 0 5-9 4-12 0-3 0-4 5-8l7-5c2 1 1 3-2 4-2 2-3 3-3 5l-2 4-2 4-4 7c-4 4-4 5-4 2zm673 0c-1-2 0-5 3-5s5 2 4 5c-1 2-6 3-7 0zm194 1 4-2 1 1c0 1-1 2-3 2l-2-1zm-788-2 4-2c2 0 3-1 2-2 0-1 1-2 2 0l6 1c6 0 7 0 5 2h-11l-5 2-3-1zm-127-2 4-4h5c1 1 1 1-1 3-3 2-8 3-8 1zm23 0c-1-1 0-6 2-9 4-5 6-3 3 4-3 6-3 7-5 5zm89 0 2-1c2 0 3 0 2 1l-2 1-2-1zm635-1 1-2c1 0 4 2 3 3s-4 1-4-1zm-575-1 8-2c6 0 7 0 6 1l-8 2-6-1zm111-2-2-4c0-2-2-4-4-4l-2-2 6-2c5 0 5 0 8 3 3 4 4 8 1 10-3 3-5 2-7-1zm-246 1c0-2 7-10 9-10l2 1v2l-5 4c-4 4-6 5-6 3zm212-2-3-6c-2-3-4-3-11-2-5 2-4-1 1-3 8-4 19-2 15 2-2 2-1 5 0 6l4-3c4-4 5-1 3 3-3 6-5 6-9 3zm494-1c-2-2-3-7-1-8 3-1 7 5 5 8-1 2-2 2-4 0zm-733-1c-1-2 6-9 8-8s1 3-3 7c-2 3-4 4-5 1zm74 0c0-2 3-5 3-4 1 1-1 5-2 5l-1-1zm6-3 3-3c4-2 6-4 4-4l-4 2c-2 1-3 2-4 1-1-2 2-4 7-6 3-1 7-1 12 1 4 2 4 3 0 3-3-1-7 0-8 3 0 1-1 2-3 2h-5l-2 1zm615-2v-4c1-3 0-4-1-4-2 1-4-1-4-2h9c1 2 2 8 1 10 0 2-5 3-5 0zm18 1-2-6c-2-4-2-4 0-5 4-2 8 2 6 8-1 4-2 5-4 3zm275-2-1-5c-1-4-4-4-4 0 0 2 0 3-2 3l-2-2c-1-1-5-2-7 0s-15 5-15 3 2-3 6-4c5 0 6-2 2-2l-2-2c0-3 1-3 5-5 3-2 6-2 8-2 3 1 5 0 7-1h4l3 2c5 0 7 3 2 5-2 1-2 1-1 3 1 6 0 10-3 7zm-8-11c0-1-2-1-3 1l1 1 2-2zm-122 10c-2-1 1-3 5-3s4 2 0 3h-5zm-837-3c0-2-3-3-8-3-3 0-4-1-2-3h6c4 1 5 1 8-1s8-3 8-1l-5 3c-3 2-5 3-5 5s-2 3-2 0zm182 1 1-1 2 1-2 1-1-1zm566 0c-2-1-1-6 0-7 2-2 6-1 7 1 3 4-4 9-7 6zm128-1a1419 1419 0 0 0-3-4l-3-1c0-2 3-3 8-3 3 0 4-1 4-5 0-2-3-2-4 0 0 3-2 2-2 0l-2-3c-2-2-3-5-2-8 1-2 1-2-2-5s-7-11-6-12l5 1c3 1 5 2 7 6l5 9 3 5 4 5c5 5 5 8 1 8-2 0-2 1-2 2 0 2-1 2-4 1h-4l1 3-1 3-3-2zm-27-1c-2-1-1-2 1-2l2 1c0 2-2 2-3 1zm-764-2c0-1 4-4 5-3v3c-2 2-5 3-5 0zm691-1c-1-2 1-5 2-5 5 0 6 3 4 6-2 1-6 1-6-1zm-722-4c1-4 2-7 4-7v6l2 1 11-2c0 1-8 5-10 4l-3 1c-3 3-4 2-4-3zm745 2c-1-3 1-3 27-3l15-1c0-1-10-2-18-1-9 1-27 0-27-1l11-2c22-1 13-2-28-2a819 819 0 0 1-50-3c2-2 3-2 5-2l45 2c55 0 59 0 60 2l7 4-1-3c-4-2-2-3 5-3s8 1 4 5c-4 2-4 3 0 5 7 2 2 3-26 3h-29zm-776-1 2-3c4-2 4-4 0-4l-3 1c0 2-4 5-5 4v-2l1-2c0-2 3-4 7-4 3 0 4 1 6 4 1 1 0 2-1 4-2 2-7 4-7 2zm79-1c0-2 1-3 3-3s3 2 1 4-4 1-4-1zm760-1v-2c1-1 8-2 9-1 2 1 1 3-2 4-5 1-6 1-7-1zm63 1-1-3c0-2 0-2 2-2 3 1 4 3 3 5h-4zm-735-2c-8-1-6-3 2-2l7 1-3 2-6-1zm44-1-2-4c-2-4 0-6 5-6h5v4l-1 6c-1 3-6 2-7 0zm23-2c-2-5-1-8 3-8s5 2 4 6c-1 5-5 7-7 2zm-215-1 4-2h4c3-1 3-1 2-5 0-4 0-4 4-7l6-3c0 1-3 4-5 4l-1 1c1 2 1 2 2 1l2-1-2 2-1 3h1c1-2 5-1 5 0 0 2 3 3 3 1v-4c1-5 4-10 8-10 2 0 3 0 3 2 0 3 1 4 5 1l8-2-3 2c-2 1-3 2-3 4 0 3-1 4-3 5-4 2-4 1-2-2l3-3v-1h-2l-6 2-5-1 1 4c0 3-1 4-4 6s-4 2-8 1l-5 1c0 2 0 2-6 2l-5-1zm31-17-1-1-1 2c1 1 2 1 2-1zm135 18 1-2 1-4c0-3 1-4 3-3s4 7 3 8-7 2-8 1zm651 0 1-1 1 1-1 1-1-1zm-781-1c-2-2-1-4 4-7 7-5 8-4 5 2-1 3-5 6-7 6l-2-1zm200-3c-1-4 0-6 2-6s2 1 2 5 0 4-2 5c-1 0-2-1-2-4zm645 2-2-4-9-11c-10-10-13-16-13-18 1-2 3-1 7 3 18 21 19 23 18 27l-1 3zm-816-2c0-2 3-4 4-3v3c-1 2-4 3-4 0zm853 0-2-4c-4-4-10-16-9-17 1-2 4-1 6 2l4 7 4 7 2 4c0 1 0 2-2 2l-3-1zm-929-4c0-2 4-4 9-4 4 0 6 1 3 4h-7c-3 2-5 2-5 0zm102 0 4-2c2 0 2 1-1 2-5 3-6 2-3 0zm704-2c-1-2 2-3 4-2l1 2h-5zm-12-2-4-1-5-1c0-2 0-2 5-3 4 0 5 0 7 2l3 4c0 1-5 1-6-1zm-105 0c-1-2 2-3 5-2 4 0 5 1 5 2h-10zm29 0c-6-1-6-1-4-4l3-2 6 6-2 1-3-1zm-702-1c-2-1-2-4 1-7 1-2 3-3 5-3 4 0 5 1 1 3l-2 2c0 2-4 6-5 5zm718 0c-2-1-1-2 4-2 6 1 7 3 1 3l-5-1zm11-1v-2c2-1 4-1 4 1 0 1-2 2-4 1zm12-1c0-2 2-2 4-1 1 2 1 2-1 2l-3-1zm-557-4 1-2v-9c-1-1 0-5 2-5l1 3 1 3c2 0 1 7-1 9s-4 2-4 1zm482 0-2-2c0-1 7-2 8-1 2 2-3 5-6 3zm14 0 4-3c5-1 7-3 4-3l-4-1c-2-1 1-3 7-3 5-1 7-2 3-3l-2-1c1-1 3-2 7-2 7 0 13-2 12-4h-7c-5 0-6 0-6-2s3-2 13-2h8l-1-5c0-12-2-18-6-18l-1-2c0-3 4-3 7 0 5 4 6 7 6 17 0 9 0 9 2 9 3 0 5 2 5 3h-4c-6-1-13 1-14 3 0 2-1 2-8 3l-5 2c0 2 3 2 12 2 6 0 12 1 11 3-1 1-16 0-21-1-4 0-4 0-4 2l1 4c2 1-1 2-4 1-2-1-4 0-7 1h-8zm30 0-3-1c-2 1-4-1-4-2h7c3 0 7 1 7 3h-7zm16 0c-4-1-2-3 3-3 4 0 5 0 5-2l-3-6-2-3h2c5 0 6 0 6 5 1 4 1 4 4 5 3 0 5 1 5 2l-8 1-7 1h-5zm-676-1 1-1c2-1 3 0 2 1h-3zm708 0c-2-1-1-2 2-2 4 0 5 3 1 3l-3-1zm-712-2 1-1 1 1-1 1-1-1zm129-2c1-3 0-6-1-6l-1 2c0 4-3 3-4-1-1-3-1-4 2-6 4-3 7-4 9-1 1 2 0 12-1 14l-3 1-1-3zm18 2 2-1 1 1-2 1-1-1zm8-2-4-2c-2 1-3-1-3-4 1-2 4-3 5-1l1 1c2-1 1-4-1-5l-2-2c1-2 8-1 9 0l-1 11c0 1 1 2 3 2 4 1 4 3-1 3l-6-3zm-2-4h-2v1l2-1zm23 5h-2c-2 2-5 0-5-3s3-4 5-1 3 2 2-2l-3-3c-2 0-3-1-2-2 0-1 7-2 9 0 4 3 2 13-2 13l-2-2zm549 1c-3-1-2-4 1-3 2 0 4 2 2 3h-3zm-739-3-1-12c1 0 3 2 3 4s4 4 7 4c2 0 2-1 1-3v-1l7 2-2 2-4 2-4 2h-7zm34-1-5-3-3-2c-3-1-2-5 1-5 2 0 3 0 5 4 2 3 3 4 5 4l2 1c0 3-1 3-5 1zm-55-1c-2-2-1-6 2-6 2 0 2 0 2 4-1 4-2 5-4 2zm866-1c-6 0-6-2-1-5l4-2v-10l1-9-3-2c-5-2-4-4 2-3 3 0 4 2 6 8v10c-1 3-1 4 1 6l1 3 2 2 1 2h-14zm21-3 2-1 3 1c0 1-1 2-3 2-1 0-2 0-2-2zm-828 0 1-1 1 1-1 1-1-1zm-48-1-4-2c0-2 0-2 4-2 6 2 7 5 0 4zm722-1c0-2 4-3 5-2 2 3 1 4-2 4-2 0-3-1-3-2zm9 0v-2c1-1 4 1 4 2-1 2-3 2-4 0zm-39 0 1-1c8-1 12 0 13 1l-7 1-7-1zm72-3-11-1c-8 1-10 0-13-2-4-3-5-3-7 0-2 1-4 2-11 2-9 0-11-1-9-3l7-1c9-1 10-1 8-9l-2-8c0-4-2-5-4-1l-4 3c-2 0-1-5 1-7 2-3 4-3 7-3 5 0 5 0 7 4 2 2 3 6 4 10 0 7 1 8 4 8l5 2 7 2h6v-3l-2-11-1-10-2-3c0-2 4-1 7 2 5 5 6 14 3 22 0 3 4 4 15 5 7 0 10 1 10 2 0 2-23 2-25 0zm-783-1h2l-2 1v-1zm817-2c-1-1-1-2 3-2 3-1 4-3 2-3-4 0-5-8-2-10s2-11-1-13c-2-1 1-6 4-7h4c1 2 3 2 5 1 4 0 5 2 2 4-2 2-6 2-8 1l-3-1c-1 1 0 6 1 7 3 1 3 7 1 8s-3 8-1 10l6 2 5 3-1 1c-11 1-16 1-17-1zm74 1-2-8c-1-9-3-13-8-18s-5-8 0-8c2 0 4 0 4-2l5-5 3-4 1-1c2 1 5 11 6 19 0 5 0 5-1 4l-2-3-1-2c-1-1-2-1-3 1-1 1 0 2 1 5 2 4 2 5 1 12a204 204 0 0 1-1 10h-3zm1-35h-1l-1 1 2-1zm-52 34c-2-1-1-3 1-3 3 0 4-2 1-5-3-2-3-2-2-6 0-4 0-4-2-4-1 1-2 0-3-2-2-4-1-5 1-5 4 0 8 4 10 9v14c0 3 0 3-2 3l-4-1zm-655-2-1-3c0-2-1-2-5-3-7-2-5-4 5-3l10 1c2 1 1 2-2 2l-4 3c-1 3-3 4-3 3zm676-2c-2-3-2-4-1-12 0-1 0-2-2-3-4-1-4-3-1-4s7 3 9 8v8c-2 6-2 6-5 3zm-69-3c0-3 2-5 3-3v3c-1 4-3 4-3 0zm-350-1c-2-2-3-3-3-5l-1-2a635 635 0 0 0-28-1c-1-1 0-4 2-5 3-1 4-3 2-5l-5 1c-6 2-14 0-14-4 0-2 0-2 3-2s4 1 5 2l2 2 3-2h7c3 2 10 2 13 0 4-1 5-1 7 1h9c3 3 11 2 13 0 2-3 8-2 12 2l3 3c0 1-3 1-7-1-5-2-5-2-9 0-3 1-5 2-7 1l-9-1-8-1c-3-1-13 1-14 3-2 2 0 3 7 3l5-1c0-3 1-3 4-1s9 3 12 1c1-1 2 0 4 1 2 2 2 2 1 4s-1 3 1 4h15c1 2 1 2-10 3a1367 1367 0 0 0-15 0zm6-7-4-1h-3l6 7 1-3v-3zm353 7-1-4c-1-1-2-2-1-3l-1-4v-2l1-5 2-5c0-2 0-2-3-1-2 2-3 3-3 6s-1 3-2 3c-4 0-4-5-1-8 2-2 3-4 3-7s0-3-3-4l-3-3-4-4c-4-2-4-2 0-6 3-2 3-2 6-1s4 3 1 6l-1 3 3-2 4-2c2 0 2 0 2 3-1 4 0 5 3 3h2l4 2c2 0 3 1 2 3v5c1 3 2 4 4 4 3 0 3 3-1 5s-10 10-9 12l2-2 5-4c2 0 1 3 0 4-3 2-2 4 0 4l2 2c0 2-3 3-4 1-2-2-3-1-5 1-1 3-4 2-4 0zm9-20c-1-1-4 2-4 3l2-1 2-2zm-20-25c0-2 0-2-1-1l-2 2c0 1 1 2 2 1l1-2zm-368 45c-4-2-5-4-3-5l9 4c0 2-2 2-6 1zm-354-4-15-3c-14-1-18-2-24-6-9-5-10-6-29-4-19 1-18 1-32-4l-13-2a736 736 0 0 1-34 0c-2 1-4 2-5 1l-5 1H2c-3-2-2-3 1-4l5-1 5-1 5-1h29c2-1 4-1 5 1l4 1c1-1 5 0 8 1a142 142 0 0 0 12 3c2 1 12 1 32-1 8 0 8 0 12 3 8 5 16 7 31 9a85 85 0 0 1 22 6l1 1c0 3-4 3-9 0zm517 2c-1-2 1-6 3-6s3 2 2 5c-1 2-3 3-5 1zm-189-3c-3-4-4-6-2-10 0-2 2-2 2 0l4 4c5 2 6 4 3 5l-2 2c1 3-3 2-5-1zm12 2 1-1c1 0 2 0 1 1l-1 1-1-1zm-207-2c-6-2-6-3-6-11l1-8 3-2c1-2 2-2 4-1 5 1 7 2 7 5l2 3c4 1 4 5 0 5-1 0-2 1-2 3-1 4-3 7-4 7l-5-1zm1-6-2-3h-2v3c1 3 4 2 4 0zm2-13-1-1-1 1c-1 1 0 1 1 1l1-1zm180 18 1-1 2 1-2 1-1-1zm159-1 6-2-7 3 1-1zm-163-4 2-2 2 2-2 2-2-2zm5-7c-3-1-3-1-2-2h4l3 3c0 1-1 1-5-1zm-256 0c-1-2 2-5 4-6h13c0 2-7 4-10 4l-4 1c0 2-2 2-3 1zm718-3-4-1-2-2c0-3 6-4 10-2h8c6-1 11-1 11 1s-2 3-7 4h-16zm-479-1-1-2c1-1 5 0 5 2h-4zm218-1c-1-2 2-3 5-3 4 1 4 4 0 4l-5-1zm-231-3c-2-1-2-2-2-3v-4c-2-1-1-3 1-3s2 1 3 4c0 2 1 3 2 3l4 1c1-1 3 1 2 2h-10zm21 0-6-3c-1-1-1-1 4-1l11 1c4 0 6 1 3 3h-12zm222-4 1-1 1 1v1l-2-1zm218-2v-2c1-2 4-1 4 1s-3 3-4 1zm9-5 1-1 1 1-1 1-1-1zm59-3c-3-1-4-3-2-4l6 3c0 3-1 3-4 1zm-430-1c-2-1-1-2 1-2s3-1 3-3c-1-3 2-4 3-1 1 2 2 3 4 3s3-1 1-3l-1-2v-4c-1-4 1-7 3-6s2 2 1 6l1 5c1-1 28-2 29-1 0 1-2 2-13 2-10 0-11 1-15 4-5 3-5 3-9 2h-8zm386 0v-2c2-1 3 1 1 2h-1zm11 0 2-2 2 2-2 1-2-1zm-150-1c-4-1-4-2-2-3l11 1c0 2-7 3-9 2zm102-2-7-6c-3-3-7-4-9-1l-6 2h-5c-4 0-6-2-4-5s1-4-6-3c-2 0-15-6-14-7 1-2 4-1 9 1 5 3 8 3 8-1 0-2-2-4-4-4-5 0-8-5-4-7l3-2c0-2 1-2 2-2l5 1c2 0 3 1 3 2 2 3 23 24 29 27 3 2 7 8 4 8l-4-3zm-26-19v-2c-2 0-3 0-4 2l-2 2 3-1 3-1zm-101 19-11-10c0-2 2-1 7 3l8 6 2 2c0 2-3 1-6-1zm42 1c-2-1-1-2 2-2l3 1c0 2-4 3-5 1zm12 0c-1-1 1-3 3-2l1 2h-4zm-150-1c-2-1 0-2 3-2 5 0 7 1 6 2h-9zm13-1 3-1 3 1c0 1-1 2-3 2s-3-1-3-2zm14 1c-2-1-1-2 1-2l2 1c0 2-2 2-3 1zm223-2c-2-1-1-2 1-2 3 0 4 3 1 3l-2-1zm45-3 1-1 1 1-1 2-1-2zm-195 0c0-1 2-2 10-2 10-1 13-1 13 1-1 1-5 2-12 2l-11-1zm33-2v-2c2-1 5 1 5 2-1 2-2 2-5 0zm11 1-1-1c0-2 5-1 5 0 1 2-3 2-4 1zm146-4-7-6-6-8c-3-7-8-12-11-10l-11 1c-15 2-15 2-16 0 0-2 1-3 13-4h10l1-6c1-6 2-7 4-7 4 0 7 3 7 7-1 3 0 4 5 11l6 9c2 4 4 5 9 3h6c2 1 2 1 0 3s-4 4-4 6c-2 4-3 5-6 1zm-25 1 2-1 2 1-2 1-2-1zm-417-2c0-2 1-3 3-3s3 2 2 4c-1 1-4 1-5-1zm10 1 1-3h3l1 3h-5zm41 0c-3 0-4-1-4-2l2-1c3 1 13 2 15 1 2 0 5-6 4-7-1-2-2-1-4 1-2 3-4 4-4 2l2-3c2-3 3-5 0-5 0 0-2 1-2 3-2 4-6 6-9 5h-4l-3-1 8-10v-5c-1 0-6 5-7 9-2 4-5 4-6 2-2-2-2-3 0-6 2-4 2-4 0-4s-5 5-4 7c0 2-1 2-3 2s-2 0-1-4l4-8c5-5 6-5 6-2l2 2c1 0 3-1 4-5l3-4 1-8c0-6 0-7 2-8l4-1c1 0 1 1-1 3-3 4-2 5 4 6l4 1-4 5c-6 8-6 9-6 10l6-2c4-2 4-2 6-1l7 2 7 1 4 1c2 0 7 3 6 4s-8 0-13-3c-3-2-5-1-7 2-2 2-1 3 2 2 2-2 3-1 3 2-1 3-1 3-3 2l-2-1c-2 2-1 3 2 3 4 0 4 1 1 5l-3 6c-1 2-1 2-8 3l-11-1zm11-20c3-3 4-6 2-6s-4 2-6 5c-4 5-1 6 4 1zm5 1-1-1-1 2c0 1 0 2 1 1l1-2zm-17-7v-1l-1 1v1l1-1zm6-8 1-4-1 1-2 3c-2 3-3 4-1 3l3-3zm-35 33c-2-1-1-2 2-2s4 3 1 3l-3-1zm283 0c-3-1-5-4-3-5 2 0 7 2 8 4 0 1-2 2-5 1zm-230-1 3-4c3-4 5-7 3-8s-1-2 0-2c3 0 2 6-1 10-4 5-4 5-5 4zm187 0c-2-1-1-2 3-2l5-2c3-1 3-1 5 1l2 2-15 1zm133 0c-5 0-7-1-5-2 1-2 10-1 11 0 2 1-2 2-6 2zm-152-1v-2c1-1 12 1 12 2h-12zm45 0c0-1 2-3 4-2l1 2h-5zm120-3c-1-1-1-2 1-2l1 1-2 1zm-250-1c-1-2 1-3 5-3 5 1 6 2 4 3h-9zm15 0c0-1 2-2 5-2 2 1 0 3-2 3l-3-1zm80 0-3-2-1-2c0-1 1-2 4-2l7-1c2 0 3-1 3-2 0-2 1-1 3 0 2 2 3 3 6 3 2 0 1 2-1 2l-4 2h-4c-3-2-5-1-5 1 1 2-1 2-5 1zm62-1 2-1c3 1 4 3 1 3-2 0-3-1-3-2zm-38-2c-2-4-1-5 4-4 4 0 4 0 4-2l1-3 25 1c5 0 8-1 8-3 0-4 1-5 4-6 3 0 8 2 8 5h-3c-4 0-4 0-4 3s-1 3-6 4h-12l-8 1c0 3-2 2-3 0 0-2-1-2-3-2s-3 1-3 3c0 4-1 5-6 5-5 1-5 1-6-2zm-33 1h4c1 1 1 1-1 1l-3-1zm-63-2c-1-2 1-3 9-3l9 1-2 2h-16zm34-7c-6-6-7-9-3-7l13 2a335 335 0 0 1 17 1l-2-3c-2 0-3-3 0-3s5 2 5 5v2l11-1c16-1 18-1 18 1 0 1-1 2-4 2h-9l-7 1c-4 0-5 0-6 2v2l-9 1-13 1c-5 0-5 0-11-6zm27 1c0-1-3-2-8-2l-10-1c-4-1-6 0-4 2s22 2 22 1zm130 3-5-2c-2-1-1-2 3-2s11 2 11 3l-4 2-5-1zm11-1 2-1 3 1-3 2c-1 0-2 0-2-2zm12-1 2-1 1 1-1 1-2-1zm-44-7c-4-2-3-4 2-4s9 1 9 2c0 3-5 4-11 2zm16 0c-2-1-1-3 2-3l6-1 4 1v2c-1 1-10 2-12 1zm-162-1-2-20c0-2 2-3 4-2l1 12c0 9-1 11-3 10zm-44-1c-8 0-10 0-10-2l4-1 5-1h14c3 1 2 5 0 5l-13-1zm25-1c-1-2 0-3 2-3s3 2 1 3h-3zm66-2c-3-3-2-5 2-5s5 1 4 5c0 2-3 2-6 0zm86-1c-1-3-1-7 1-8 2-2 4 1 5 6 0 4 0 4-2 4l-4-2zm-250 0c0-2 1-4 4-6h5l-2 1-3 3c-1 3-4 4-4 2zm-15-1 3-3 3-2 2-2h4c2 2 1 5-2 5l-5 1c-3 2-5 2-5 1zm170-2c-3-6 0-7 3-1 2 4 2 4 0 4-1 0-3-1-3-3zm-8-1 1-2 1 2-1 2-1-2zm-56-2c0-2 1-3 3-2 1 1 1 4-1 4l-2-2zm8-2c-2-1-1-3 1-3l2 2c0 1-2 2-3 1zm167-1 1-1 2 1-2 1-1-1zm-123-5c1-4 4-7 6-7s8 5 8 7c0 3-2 3-5 0l-3-2-2 2c-2 4-4 4-4 0zm-10 1-3-2c0-2 1-2 4-2 5 0 9 2 6 4h-7zm-54-3-2-10-1-6h-4c-3 0-4-1-5-2-1-2 1-3 5-2 3 0 4-1 5-3 5-6 7 0 7 16 0 8-1 9-2 10l-3-3zm-105-5c0-3 1-5 3-6 2-2 3-2 4-1s1 1-1 3c-2 1-3 4-3 5l-2 4-1-5zm9-3 1-4 3-4c1-5 4-7 7-6 2 1 3 4 0 4l-5 6c-3 6-6 8-6 4zm132-2c-3-11-2-20 1-20s3 2 2 12c0 7-1 10-2 10l-1-2zm11 0c-1-2 1-5 4-7 4-1 4-1 1-5-2-3-3-9-1-10l3 4 3 5c2 1 2 2 1 4 0 2 0 3 2 4l3 3c0 3-4 2-7 0l-2-3-2 3c-2 3-4 4-5 2zm-32-2v-2l5 1c0 2-4 3-5 1zm-1-10c-2 0-3-3-1-3 3-1 6 0 6 2-1 1-2 2-5 1zm31-14c-4-3-4-6 0-6 3 0 5 2 5 6 0 3-1 3-5 0zm-138 1c-1-2 0-5 2-7l2-4c1-5 3-5 4 0l-1 4-2 3c0 4-3 6-5 4zm-124-1c1-2 11-2 11-1l-6 2-5-1zm253 0 1-1 1 1v1l-2-1zm-19-3c1-2 3-2 6-1 4 1 3 3-2 3-3 0-4 0-4-2zm-220-1 3-1 3 1v-10c2-2 0-4-3-4-3-1-4-3-1-4l4-2v-5c-1 0-3-6-2-7l3 1c3 3 4 3 6 3h3c2 1 2 2 2 5-1 3 0 3 2 4s3 3 0 3l-2 2c0 1-3 1-4-1-2-2-3 0-2 4 1 2 0 3-1 4-1 0-2 2-2 5v3l-4 1c-4 0-5 0-5-2zm13-22-1-1-1 2c1 1 2 1 2-1zm180 23c-8-2-6-4 4-4 9 1 10 1 11-2l2-2c3 0 3 7 0 8h-17zm44-3-1-7c-1-8 0-10 3-10 1 0 2 1 2 7v9c0 2-4 3-4 1zm-141-3c-2-2-1-7 2-9s3-1 2 4c0 5-1 6-4 5zm12-2c-3-2 1-10 4-10 2 0 2 2 0 4l-1 4c-1 2-2 4-3 2zm119-2-5-2-2-3h4l6 2 2 1c0 1-3 3-5 2zm-22-4v-2c4-2 14 0 11 2h-11zm-5-2h2l-2 1v-1zm-107-9c0-3 6-9 9-8 2 2 1 4-2 5l-3 3c-2 4-4 4-4 0zm27-10-3-4-1-3v-2c2-2 1-4-2-5-5-1-6-1-6-3s0-2 3-2l5 1c2 0 2-1 1-4l-1-5-3-2v-2h4c5 2 7 9 3 13-3 2-1 4 2 2 5-3 5-1 1 5l-4 4 3-1c3 0 5 2 4 7 0 5-3 5-6 1zm-116-4 3-1c4 0 3 2 0 3-2 0-3 0-3-2zm-15-13c-3-2 0-3 10-3 12 0 14 1 10 3h-20zm104-3v-4l4-2c2-2 3-2 4-1 1 2 1 2-2 5s-4 4-6 2zm107-3-1-8v-6h6v8c0 7 0 7-2 8l-3-2zm-177-1c-1-2 0-4 2-4 1 0 3 4 2 5-1 2-3 1-4-1zm-16-2-10-1c-10-1-11-2-2-3 7 0 14 1 15 3l-3 1zm184-1c-1-15-1-16 1-16s2 4 1 12c0 6-2 8-2 4zm-174-2c0-2 1-4 3-3 1 1 1 5-1 5l-2-2zm8-2c-2-3-3-9-3-14l-1-5c-1 0-3 3-3 5 1 3 0 10-1 10-1-1-2-3-2-8l-1-10v-5l4-2 3-2c3 0 5 1 5 2l2 4a694 694 0 0 1 1 25c0 2-3 2-4 0zm18 0c0-1 0-2 2-2 3-1 4 0 4 1 0 2-5 3-6 1zm-61-4 1-1 1 1-1 1-1-1zm7 0c0-1 1-2 9-2 7-1 9 0 4 2h-13zm49-7c-3 0-2-3 0-3 3-1 11 1 9 3h-9zm-55-2c-1-1-1-1 1-1 2-1 8 0 6 1-4 2-6 2-7 0zm10 1v-2c3-1 8 0 8 2h-8zm207 0-1-2 4-1c6 0 8 1 7 2 0 2-7 2-10 1zm-138-2-1-7c0-4 0-5 2-5l3 4c2 6-1 13-4 8zm-57 0 1-1 2 1-2 1-1-1zm181-2c-2-2 1-6 3-5s1 5-1 5h-2zm49-1c-3-3-3-7 0-17v-2c0-2 2-1 3 1 0 2 1 3 2 3 1 1 1 8-1 15 0 2-2 3-4 0zm-260-2 1-3 2 1 1 2c3 1 1 3-2 3-2 0-2-1-2-3zm106 2 2-3v4l-2-1zm114-4c-2-1-1-3 1-3l1 2c0 1-1 2-2 1zm-209-1-2-2h7c4 2 1 4-5 2zm11-1c1-3 4-4 4-1 0 2 0 3-2 3s-2 0-2-2zm37-6c-2-1 1-3 6-3 3 0 4 0 4 2l-5 2-5-1zm-36-3c-1-2 2-4 5-4l3-2c0-1 2-2 3 0 2 2-2 5-7 6h-4zm29-2c-1-2 1-3 3-2 1 2 1 3-1 3l-2-1zm35 1-1-7-1-8-17-2-16-1-3-2-2-1c1-2 6-2 13-1 4 1 9 2 16 1h9l3 3c5 6 5 19 1 19l-2-1zm152-3-16-1c-14-1-20-2-20-4l6-1 14 1a201 201 0 0 1 29 2c1 0 4 1 4 3l-8 1-9-1zm-169-3-4-1-8-2-8-1 4-1 8-1h4l5 3c3 0 4 1 4 2-1 1-2 2-5 1zm-39-4-1-2h7c6 0 7 0 8-2l3-1v3l-3 1c-1 2-11 2-14 1zm223-4-2-8-1-3c-1 0-2 2-2 5 0 5-1 8-4 8h-12l-14-1c-8 0-12-1-12-3l6-1 4-1c-2-1-3-2-3-9 0-4 0-6 2-8l2-5c1-4 8-1 8 4 0 2-1 5-3 6-3 5-3 6 1 6 3-1 3-1 3 1 0 3 3 5 6 4l5 1 2 2c2-1 4-8 4-11l2-4v-5c0-5 1-7 5-7 3 0 4 2 6 14 1 5 1 7 3 8 3 3 4 4 1 6l-2 3c0 4-2 3-5-2zm-28-3c1-2-2-4-3-2-1 1-1 3 1 3l2-1zm-206 5c-2-1 0-3 4-4 4 0 6 1 4 3-2 1-6 2-8 1z"/>
</svg>
