<?xml version="1.0" encoding="utf-8"?>
<svg xmlns="http://www.w3.org/2000/svg" version="1.1" viewBox="0 0 730 1791">
	<title>Sketch of a steep descent of a mountainside, at about a sixty degree angle, with trees and/or bushes about halfway up the slope, and a small figure near the top. A dotted line with an arrow on the end extends from the figure out and down at about a forty-five degree angle.</title>
	<path d="m166 1790-2-1-1-4-4-7-6-7-6-7-2-7c0-6-3-15-5-19l-8-11-7-11-3-4-1-14-1-14 1-5 2-5h1v13l4-15-2-1-1-3 1-3 2-1 2 1h3v3l-2 4-2 4a192 192 0 0 1-3 19l3 9 2 4v2l2 1 3 2 5 4 6 6 5 9 1 13-1 9 2 3 5 5c3 2 8 9 9 13l2 5 1 10h-5zm-2-19c-2-3-7-8-9-8l-3-3-2-2v-12l-1-12-2-4c-1-3-4-6-6-7l-10-9-5-6v1c0 3 6 13 11 18l6 7 4 19 3 8 6 7 6 7 2 3 1-2-1-5zm32 13-2-2-1-11v-10l-2-2-2-4c0-2-5-6-8-6l-3-2-2-8-2-8-1-4 2-5 1-4v-3l1-1 1 2 2 1c1-1 0-8-1-8l-2 2v2l-2-1-3-2-1-1v2l-1 2-4-2-5-4-1-2-1-4 1-10v-5l-2-2-3-2h-1l-1 3-1 3-1-2v-3h-3v7h3l3 1-1 2-2 2 2 3v3h-4l-4-1v-7l1-5 1-6 1-2 2 1h3l2-3 5-3 3 1 3 1 2-1v-3l1-4 2-4v-3l6-3 2 1 2 3v2h-2l-3-1c-1-2-2-1-2 1l1 3c2 2 2 5 1 5l-3-1-2-1-1 2-1 1 3 2 2 3-4 1h-2v2l1 3 1 2h-2c-1 0-2 0-3-5v-3h-6l5 9 1 4v3l1 1 2 3-3 2-2 3v1h3l9 2h3v-4h-3l-3-1-1-1 1-6 2-8 1-2h4l-1-2v-10l2-2 2-2 1 1 3 2v1h-5l-1 2v3c0 2 6 9 7 9l4 3 3 2 3-1 1-2h4l3 1 1 1v2l-8-1-3 5-3-2-3-3-2-3-1 1h-2l-2-1-1-2-6 1v2l1 3 1 1-1 3-2 2 1 1 3 1 2 1 1 4 1 8 1 3h1l2-1-1-2-1-6v-5l5-3h2l1 2-3 1-2 1 2 2 2 2-2 3-2 1 2 2 1 3h-2l-4 3-3 3v7l-4 3 1 3 2-1 5-1 1-1 1 1 1 1-3 2-5 1c-1 0-2 3 0 4h1l1-1 2-2 2 4 3 3 1-2c1-9 2-14 4-17l2-2-2-3-2-3c-2 0-1-1 1-2l2-1 1-4 2-5 1-2h3l3 1v-3l4-6 3-5 1-4 2-3-3-3v-3l1-2h-1c-2-2-1-6 1-10l3-4 3-1 5-2 2-1 1 3 2 2h2v-4l-1-4 3-1 3-2 2-1 1 1 1 3-3 2-2 2 1 2 2 2-1 2-1 1h-6l-6-1-3-1h-3v2l-2 3-2 3 1 1 2 1-1 3v3l4-1c2 0 3-3 4-4l1-3h2l4 2 1 1-1 1h-5l-1 3v3h-3c-3 0-4 1-2 3l1 2v2h-5v8h-2l-3 2-2 3 1 6h-11l-1 2 1 3v7l4 1-4 4v1l3 4 2 2h-2l-4-2-3-2v4l1 3-2 1-1 3v2l2 1h2l-1 3c0 2 1 6 3 6l1-3 2-6 3-2 1 1 2 2-2 1-3 1v6h2l2 1v1c-1 2-5 3-7 1l-2-1h-1v6l4 4-1 1-1 4-2 2-1 1v4l3 6 2 3h-1l-4-1zm-2-32h-1l1 1v-1zm-2-2-1-2-1 2 1 1 1-1zm-9-5-1-2-1 2 1 1h2zm-5-18c0-2-2-2-3-1s1 3 2 3l1-2zm-9-20v2-2zm-19-14-1-1-1 1-2 1 2 4 3-4zm51 85c-2-2-1-7 1-8l1 1 2 4c1 1 2 2 1 3-1 2-4 1-5 0zm-20-6-1-2-3-5-3-4 3-3h-1l-2-1v1l-1 1-6-4-5-5v-22l-3-6c-2-5-6-8-9-8l-4-2-2-2 1-1 2-2c1 0 5 3 8 7l7 6 1 5 2 4-1 17 1 3 4 4 4 1 2-1 4 5 4 5-1 1-1 1 1 3c2 3 2 5 1 5l-2-1zm5 0c-1-3 0-6 1-6l2 5c0 3-2 3-3 1zm-17-5-4-5c-1-1-4-3-5-6l-3-4-1-9v-8l1 1 1 8 2 9 7 8 7 8-2 1-3-3zm2-21-1-7-1-6 1-1v1l2 7 2 5-1 1-1 2zm-30-42-4-5-2-4 2-3c0-2 1-3 2-3v3h-1v2l4 7 3 4-1 1-3-2zm15-15h1c1 1 0 1-1 1h-2l2-1zm-16-10-2-7v-5l-7-6v-6l1-8v-8l4-4 4-3 2 4 2 3-2 1-3-1h-2l-1 2v2h2l2 1v3l-2 1-2 1 2 3 1 3-3 1h-2v2l3 3 4 4 2 4c3 3 3 6 0 5l-1-1v2l1 2 1 2h-4zm55 0-1-3 1-6 1-6h3l4-2h5l-2 2-4 2h-2l-1 2v4l1 3h-2l-1 1v4l-2-1zm-39-9-2-2-1-5v-6l1-1 3-2h1l-3 2 2 2 2 2-1 3-1 2 3 2 3 2-1 1-3 1-3-1zm-12-8-1-2v-8l1-9 2-3 1-3h4l-1-4-1-4 5-6-2-2-2-3v-2l2-9 3-6h2c2-1 10 1 12 3l1 1-3 1h-2l1 7-1 1-3-1-1-1v-4l1-5h-1c-2 0-4 1-4 3l-2 4-2 4 1 3 1 2 11 1 1 2c0 2-1 3-3 1l-3-1-1 1v3l-1 4-1-1-4-1h-1v1l3 6 3 4-2 1-3-1-2-1 1 3v3l-2-2c-2-3-4-2-2 1l1 2-1 1-1 2 1 3 2 2-5 3v7l-2-1zm61-5-1-6v-4l5-1 5-2v3l-2 1-4 1-1 1v2l1 4c0 2-1 2-3 1zm-41-3-2-3c0-2 2-4 4-4l2-2 4-3 3-1v-2l-1-5v-4l3-4 3-5h7l-1-3c-1-4 0-8 1-9l2-3 4-3 2-1v-2l1-6 3-7 1-4 6-1v1l-2 3-3 2 1 6-2 1c-1 2-2 5 0 6s1 2-3 4l-6 4-2 3v4l2 5c2 1 2 3 1 3l-2-1-2-1v2l-1 3-2-1-2-2-3 3-3 5 1 3 2 4 1 3-2 1h-2v4h-2l-1-1-1-1-2 1-1 4v2h-2l-2 2-1 1zm25 0c0-1 3-5 5-5l2 1-5 5-2-1zm42-11-5-4-1 2-1 3h-1l-1-2-1-4c1-2 5-3 8-1l4 1 1-2v-2h-2l-2-1v-1h2l2 1v-2l2-2c2 0 3-1 3-2l1-3 1-1 6 2v3h-2l-4 2-3 2h-1v7l1 6-2 1h-1zm-41-4 1-3v-9l1-2h2l3-2 5-2 2-1 2-3 2-9 1-4 2-3 3-2 5 1 1 2v2h-4l-3-1-1 2-1 2 1 3 1 3-4 5v6l-4-1h-4l-2 3-1 2h-4v2l1 3 2 3-2 3-3 1-2-1zm-47-6-2-1 2-1 2-1 1 2-1 2-2-1zm83-12 1-5 2-2 3-3c2 1 3 0 3-2l1-4 2-1 2 1 3 1 2-1 5-2c3 0 7 2 7 4v2l-1 1-3-1-5-1h-2l1 3 1 3-2 1-2-2c-2-3-3-4-5-4h-1v4l1 5 1 2-1 1-1 2-2-2c-2-4-4-6-5-5h-1v3l1 3-1 1-1 2v2h-3zm-54-15-1-3-2-4-1-3v-3l3-2 3-2v-3l1-3-2-8-2-9a48 48 0 0 0-7-23c-2-3-16-9-19-9l-5-1-2-1-3-6-3-9v-3l1-1 4-5 2-4-2-4-4-8-4-5-2-3-6-3-4-3-7-1-13-4-7-3-7-3-7-3c-2 0-15-10-17-12l-4-3-2-1v-2l1-2h1l-1-3-2-4c-2-1-2-3 0-3l3-2v-1l-4-8-5-8-3-3-8-9-7-7v-2l2-2 5-2c2 0 20 17 20 19l-1 1-6-3-13-11 6 6a10300 10300 0 0 1 15 16l2 3v20l2 1 2 2v-4l-1-3 1-7 2-4-1-5-1-5 1-1 1 2 2 4c0 2 2 4 4 3l1-1-2-1-1-1 1-3 1-3-2-2-2-4 2-2 2-1v-5l1-7 3-4 3-1-1-4v-3l4-1 4 1 1 1-3 3-3 9v3h-7l2 8-4 3 2 4 3 7v3l-4 3-6 6-1 3 1 2 4 1h2v-1l1-3 2-2 2 1 7-1 5-1 1-2 2-3 1 1 4-1 2-1v5l-1 2-4-1-1 3-1 4c0 3-2 3-3 1l-1-2h-5v3l1 2h-1c-2 0-2 5 0 7l1 2-2 1h-2v-1l-1-8v-7h-4l-1 5-1 4h-3l-3-1v1l3 4 10 6 10 4c4 2 13 4 17 4l4 1 4 1 2 1 1-5 1-6 1-6-1-5 3-2 4 3 1-2c1-2 3-12 2-13s-5 2-8 6l-3 4h-4l1 3 1 6 1 3-3 1-2 1v6h-1l-3-3-1-3 2-2 3-2 2-1-2-3-1-3v-2l3-3 9-7 2-4 2-3 2-1v-7l3-1 3-3 3-3 4-2v-3l3-5 3-6 3-7 7-8c1 1 0 2-1 4l-1 3 1 3 1 3-1 2-1 3v2h-3v-2l-1-2-1-1v2l-3 5-3 7-1 5h-6v6h-5l-1 5v5l1 2 1 2 2-2 3-3 4-6 6-8 3-4h2l2 1 1-5 1-5 3-4 3-3 2 1h2v-2c0-4 4-13 6-13l2-3 2-3 1-1 2 1 1 1-6 6v2l-2 5-2 11-1 8-2 1c-1 0-2-2-1-6l-1-3-4 1c-2 1-2 3-2 3l2 1h2v3h-5v4h2l4-1c2-1 2 1-1 4l-2 3-4-2-2 1-2 1v3l-2 12-2 1-1-3-2-3-1-2-4 4v13h-2l-3-6 1-1-5-1-1 2-2 5-1 5-1 6c2 0 4-2 4-4v-2l2-1 3 1 2 4v2l-6 2-1 2-1 2h-3v-2l-2-3-1-1-1-2-1-1-2 5-2 10v5l3 1c4 0 13 6 20 12l5 4 1 5 3 5 1-1 2-3 3-2-1-4-1-3 3-6 2-6 2-1 4-1c3 0 2 3-1 4l-2 1v3l1 6a8724 8724 0 0 1-2 19v1l2 5 3 5-3 2 1 4-1 2-1 1 1 2 1 1h2l2-1 2 3 2 2h2v-3l2-3h1v7h-2l-2 1h-1l1 2c1 1 7 9 9 14l3 5-1 9 2 1h1v-8l1-2 2-3h2c3 0 8 4 7 5l-4-1-3-1-1 2-1 1 2 4-1 2-1 1 1 2c1 1 0 3-2 3-1 0-2 1-2 3l-1 2 1 2 3 1 2-2 1-2 3-1 5-2 2-2v8h-8v2l-3 3h-5l-2-1-2 1-2 1h-2l-1 3v5l-1 2h3c3 0 5 2 4 3l-7 2-5 1v2c2 3 2 9 1 9h-2zm10-32 2-2-1-3-1-10v-7l-3-5-2-5-7-8-11-9-3-2-9 1-3-2v-3l2-7 2-4v-12l-3-4-2-5-7-5a84 84 0 0 0-40-17h-3l3 2 12 4 11 3 7 4c4 2 6 4 14 13l3 5v8l-3 5-2 9v3l5 4 9 5c5 1 7 3 12 7 6 4 9 11 11 26l1 6c0 4 1 7 2 7l4-2zm-30-54a2 2 0 0 0-3 0 2 2 0 0 0 3 0zm9-6 1-4-1-1-1-5-2-4h-1v6l3 3-1 2-1 5c0 2 1 1 3-2zm-8 1-1-1h-1l1 1h1zm3-3v-2l-1 1-1 1c1 2 2 1 2 0zm-2-10-2-4h-2l1 3 2 5 1 1 1-1-1-4zm6-10v-3h-2l-1 1 2 4 1-2zm1-8-1-3c-1 0-2 3-1 4l1 1 1-2zm-70-20-8-4h-2l3 2 4 2h3zm-12-5-1-1-1 1 1 1h2zm-14-9-2-1 1 2c2 1 2 0 1-1zm86-29-1-2-1 2 1 1 1-1zm1-8v-1l-1 1v1l1-1zm68 179-1-2 3-4 4-4 3-3 2-4h4v4l-5 5-6 7-2 2-2-1zm-10-12 3-4 4-3 3-4 4-6 2-1 1 1 1 1-1 3c-2 3-9 11-11 11l-2 2-2 1-2-1zm-4-16-1-3 1-7 2-5h2l3-4c1-2 3-4 5-4l2-2 2 1 2 3v1h-3l-3 1-1 3v4l-4 1h-3l-1 3v6l1 3h-2l-2-1zm-7-16-3-4v-5a5181 5181 0 0 1 4-12l5-2 4 2 5 4 3 3v5h-4v-2l-1-3h-3l-1 1-1-1v-2c1-2-2-4-4-4l-1 1v4l1 3-2 2-2 1v3l3 3 1 2-1 1-1 1-2-1zm-15-12-3-2-2-2-1-1 2-3c1-2 2-3 3-2v5h5v6c-1 2-3 1-4-1zm59-5-1-2 1-5 1-7 1-4 1-2h8l2 2 2 2-1 1h-9l2 3 3 1-1 2-3 1-3 1 1 3c1 1 2 3 1 4 0 2-4 1-5 0zm-28-6-2-5 1-6c1-7 3-13 5-14h7v-1l-3-4-3-2v-2c0-3 3-8 7-13l5-5-2-2-2-5 2-5 2-6 1-3 5-1 2 2 2 4v3h4v-4l1-5 4-2h3l2 4-1 1h-4l-2-1v6h9l1 1v-2l-1-7-1-6-1-4v-3l2-3 4-3 2-1 2 2 4 2c1 0 1-2-1-5l-1-2v-5c1-5 3-8 6-8h1l-1-4v-3l1-3 2-3-2-3-2-2 1-2 2-3 3-1-1-2-1-2 1-3v-7l2-3 3-3 1-4 2-7 5-1h2l1-3 2-3 1-1 8 2v-1l-2-3-1-5v-3l5-6h6v2c1 1 0 4-1 4l-2-1-1-1-1 2-2 3 1 4c2 3 3 10 2 10h-4l-6-2h-1v3l1 3c1 1 1 4-1 6l-2 2-3-4-4-4h-1v9l2 1 1 3-2 3-2 1-1-1-2-1h-1l1 2 1 2-1 1-2 3 2 2h2l-4 4 1 1v2h-5v2l1 1c2 0 6 5 6 7v1h-6v2l1 3 1 2-1 3-2 3-4 1v2l1 4v1l3-1 5 1 2 1v2l-1 2h-9v9l-1 1-3-1c-2 0-5-1-6-3l-2-2-2 2-1 2v2l1 3 10 5v3l-2-1h-6v2l1 6 1 4h-4l-6-1-2-1-1 2v1l5 5v7h-5v-2l-2-3-2-1 1-2v-3h-2l-4-2-2-2h-8l-1 2v2l7 4h7v2l-1 2h-6v9l-9-1v5h7v2l-3 2-3 1h-2l2 2 2 1-1 4-1 4h-3l-3 1-1 3-4 6-2 4 1 4 2 5 2 3v1h-5l-3-5zm11-35-1-1-1 1 1 1 1-1zm12-34a1 1 0 0 0-2 0 1 1 0 0 0 2 0zm-56 62-2-3v-2l2-4 4-5 3-2v-8l1-8 3-2 2 2-1 2-2 10v7l-8 6 1 4c0 3-1 4-3 3zm11 0 2-6 2-5-1-4v-4l1-4 4-4 2-1 2 2-2 2-2 3-1 6c0 9-3 16-5 16l-2-1zm43 0-2-1v-3l3-13 2-3h10v-2l-2-3-1-4v-3l6-5 8 1v4l-3-1c-4 0-7 2-7 3l2 4 2 2-1 3-3 4-1 2-4-1h-4l-3 3 2 2 1 4-2 1h-1v4l1 3h-1l-2-1zm-67-4-1-2 2-1 1-1 1 2-1 2-1 1zm-44-4-1-1 3-2 1 1-1 2-1 1zm131-3-1-4c0-3 3-6 6-6l5-2 3-2-2-4-2-3v-2l3-5 3-1v-10l2-2 4-2h3l1-2v-7l-1-2c0-3 3-9 4-9l4-1h3v1l2 5 2 4-1 1c-2 1-4-1-5-4l-3-3h-1v8h1l2 3v2h-2l-2 2c0 1 3 8 5 9l1 3v2h-6l-2-3c-3-4-6-5-6-3v3l-1 6v3l-3 1-2 1 3 4c3 3 4 6 1 6h-2l-4 5-2 5h-3l-1-1-2-2c-2 0-1 2 0 4 2 2 2 4-1 4l-3-2zm-89 0v-6l4-3 1 1 1 1-2 2-1 3c0 2-2 3-3 2zm-41-3-1-2h1c1-1 5 0 5 1l-2 1-2 1-1-1zm177-2-1-4 2-5 3-3v-5c0-8 0-16 2-17l1-2 4 1h3v-4l-1-4 2-4 2-4h4c4 0 5-1 3-2l-1-5v-4l1-3 2-2h6l1-2c1-3 2-4 4-5h3l-1-4v-3l4-6 3 1c3 0 5 2 5 3l-4 1h-3v3l2 7v4h-2l-1 1-2-1-4-2-2 3-1 3h-4c-2 0-3 4-3 6l4 4 3 2v4h-4l-3-1-1 2-2 2-2-2-1-2-2 1 1 5-1 1-2 1 2 2v6l2 2 2 3-2 1-2 1-2-2-5-3h-3v6l1 7 1 5 1 4-1 1-4 1-2 1 1 4v4h-5zm-133-9-2-3 1-3 2-4 1-1 8 1 1-4 2-6v-1l8-1v2l-3 3h-2l-1 5-3 7-2 3 2 1h1l-2 2c-1 2-2 2-3 2l-1-5-1-3-2-1-2 1 1 4c2 2 1 4 0 4l-3-3zm-24-18v-3h-2c-2 0-3-3-2-5l5-10 2-1-2-2-1-2v-8l1-3 3-2h2v4l-2 5-1 2 1 3 1 3h5l1 2c1 3 1 5-1 5l-1-1c0-2-3-2-4 0v1l-2-1h-1v2l2 4 3 3-2 1-1 1 1 2 1 2-3 1h-2l-1-3zm1-6-1-1h-1l1 1h1zm-24-8 2-4c1-2 3 0 3 2 0 3-2 6-4 6h-2zm9 2c-1-1 1-3 2-3h2v2c-1 2-3 3-4 1zm30-2-2-2v-15l1-1h6l-2 3-2 5v2l1 2 3 1 2-1v2l1 1-2 3-3 2-3-2zm42-4 1-3 5-7 6-8c2-1 6-1 8 1l1 1-1 1h-4l-3 1-4 6c-6 10-7 11-8 11l-1-3zm-108 1c-1-1 0-4 1-11 2-5 4-8 7-8l2-1 2-1-2-13 2-3 2-3h3l2 1 1-4 1-3 3-1 3 1-2 2-2 2v4l1 4h-2l-3 2-1 1-2-2-1-3-1 4v3h1l2-1v2l-3 7-2 5h-3l-4 1v12l-2 2c-1 1-2 2-3 1zm76-2-1-3v-3h2l3-1-2-3-1-3h-5v-2l1-3 4 1 3 1 1-1c1-1 4 0 4 2l-2 1-2 4v2l1 2 2 2-4 3c-1 1-3 2-4 1zm17 0-1-11v-10l3-3 3-5v-2h5l5 4 5 4-2 2-1 1-2-1-4-3-2-2h-1l1 7-6-1v1l1 3 2 2-2 3-1 3 1 3 1 3-1 2-2 1-2-1zm-85-3v-7l2-1 2-1v1l-1 3-1 3-2 2zm197-1-1-3v-2l-6 1v-3l1-3v-1l5 2 4 2 2 3 1 4h-6zm-214-1c-1 0-2-1-2-3l-1-2 2-2 1-2 6 1v8h-6zm78-16-1-2 2-5 1-3h8l2-2 3-2 2 2c1 2-2 8-4 8l-2-1-1-1-3 1h-2v2l-2 3-1 1-2-1zm150 0-1-3v-3l-2-1-2-1v-9l2-1 5-3 3-1 2 2 3 5v2l-1 1h-1l-3-6h-5l-1 2-1 4 2 2 4 5 2 3-1 2c-1 1-4 2-5 0zm-16-4-2-4 3-5 3-3 4 1 1 6h-2l-1-1-2-1h-1v5l1 4h-1l-3-2zm-251 0 1-2c2 0 3 1 2 2h-3zm28-2-1-2v-2h2c2 0 4 3 3 4h-4zm133 0-2-1v-10l2-1 2-4v-3l3-3 3-5 3-5 3-3h1l2 2-2 2h-2l-1 5v4l-2 2-2 4-3 4-2 3v5l-1 5-2-1zm83-8-1-9v-7l-1-4 2-1 4-1 3-1 1-1c2 0 4 4 4 7v1h-3l-5-1-3-1 1 3 2 4v2l4 4-2 2-2 5-1 3h-3zm-62 3-1-2v-3l2-5 2-1-1-5v-12l2-1h2l-1 6v6h6v-1l2-8 2-7 2-5 1-4 2-1h3l2 2 1 2h-5v3l1 4h-3v2l-2 5-1 4-1 5-1 2h-5l-2 3-2 5-1 3v3h-4zm-134-4 1-4 5-2h3v-2l2-3 1-5v-2h4l2 5-6 6v2l1 2h-1l-3 2-1 2-2-1-1-1-1 2-3 1h-1zm-18-2 3-2-1-3-1-4 3-5 6-6 1-2 2 1 1 1-2 3-1 4v1l1 2h-5l-3 1 1 3 2 4-2 3-5 2h-3l3-3zm100-2-1-2 1-2c0-2 1-3 2-3 2 0 5 3 5 5s-2 3-5 3l-2-1zm147-2c0-2 3-7 5-7l4 3 1 2-2 3-4-3v2c-1 1-3 2-4 0zm-266-7-2-7-2-5 3-5h4v-8l3-2 4-2h3l-1-2v-2l4-1v1c0 3-4 8-6 9l-2 1v9l-4 1c-3 1-4 3-2 5l1 6v4l-1 1h-1zm291 2v-6l2-6 1-4 2-1 2-1v-3c0-5 3-12 5-13h8l1 2-1 1h-7v5l-1 6-1 2h1c2 0 3 2 2 3l-4 2h-3v5c-1 6-2 9-4 9l-3-1zm-225-3-1-2 1-3 4-5c2 0 3-2 3-3 0-2 3-5 5-5h2v2l-2 3-2 3v2l-1 4c-1 1-1 0-2-1l-1-1-1 3v4h-2l-3-1zm59 1-1-2 1-8-2-2-2-2-2-1h2l4-2c2-3 5-4 6-2 1 1 0 2-1 2l-1 4 1 3 2 1-2 5-1 5h-1l-3-1zm22-2-2-4 2-4c2 0 4-3 4-5l2-3h2l2 1c0 2-2 7-4 8l-2 5-1 3-3-1zm-92-4-1-2 2-2h2v-5l4-2 1 1 2 3v1l-3 1h-3v3l-1 3-3-1zm213-1c-2-1-1-6 0-9l2-2 3 1 6 1h3l1 1v2l-3 1-2 1-3-1-3-1-1 1 2 2 2 2v2h-3l-4-1zm-225-3-2-5-1-2 1-3 2-3 5-2 7-3 3 2 1 2-2 2-1 1-3-1-2-1-2 1-3 1h-1v2l1 4 1 4-1 4h-3zm-7 0v-1 3-2zm204-3c-2-1-1-4 1-5l2-5c0-2 3-9 5-9l2-2 1-2-1-2-1-4c1-2 6-5 9-5 2 0 3-1 1-2l-1-3 3-7 2-5h3l2-1-3-4-3-3v-4l2-6 3-1h1v2l1 3h1l-2 2-1 1 1 4 2 4h3l-1-3v-10l1-2 4-2 5 2 2 2v2l-1 1-3-1-4-2-1 3 2 5 1 3-1 2v6h-3l-3-1v2l-1 3-2-1c-2-2-3-1-2 1l1 1-5 4 2 2 1 4 1 3c1 1 1 3-1 4h-1l-3-2-3-2-3 1-2 1 2 3 2 2-1 4-3 6-4 2-2 1 2 3 2 2-2 2-5 2-3 1h-1zm-207-1c-3-3 0-6 2-4l2 3c0 1-3 2-4 1zm67-4v-5l1-7 1-4 2-1v1c1 2-1 16-2 17l-2-1zm34 0v-5h2l4 1 1 1-2 2c-2 2-3 3-5 1zm-53-1 1-5v-11h1l1-3c0-2 5-7 7-7s1 3-2 5l-2 2 1 7h-4v5l1 5 1 2c0 1-4 2-5 0zm75-3 1-2 2-2 1 1v3c0 1-3 2-4 0zm133 0-1-1v-4l-1-5h-1l1-4 2-5 3-2h2v-3l1-3 1-3 2-4 3-2v-5l7-7h2l3 2-3 2-3 2v4l1 3-7 4 1 2v3l-2 1c-2 0-3 3-1 5v3h-8l-1 2 2 1 1 1v9l1 3-1 1-2 1-2-1zm-111-1-1-6v-5l1-2 2-4 2-4 2-3-1-2-1-5v-3l1-1c3-2 6-2 6 0l-1 2h-1l1 6v5l-3 8-3 7 1 3 1 2-1 2c-2 1-4 2-5 0zm-116-1 1-2c1 0 8-6 8-8l1-4 2-3-2-1-1-2-3 4-3 5c-2 0-1-3 1-6l3-5 1-3h8l2-3 4-4h5l-3 3-5 6-1 2-6-1 1 4 1 4-2 3-4 7-2 5h-6zm86 0v-3h5l1-2 1-3-5-4v-2l3-2 1-1 2-6c0-3 2-7 3-8l2-4v-2l2-1 5-1h3l1 2v3l-4 1-3-1v1l-2 4-2 3 1 3 1 2-1 1-2 1-2 1v14l-2 3c-2 2-6 3-8 1zm-12-3-1-1 1-6 2-7 1-1 4 1 3 1 1 1v2h-4v8h-2l-3 2-1 1zm-151-6-3-5c0-1 1-2 3-2h2l2 3 2 5-2 2-1 1zm65 0 1-3 3-6 6-8 2-2 2 2-3 4-4 6-2 3-1 2c0 3-1 5-3 5h-1zm141-3 1-4 1-4 3-1h2v-4l1-6v-2l4-3 4-3-2-2-1-2v-2c2-4 6-10 9-12l3-1v-3l2-3c2 0 3 4 2 6l-3 3-2 2v7h-2c-3 0-5 1-5 3v2l4 2 3 3v2h-3l-5 1-3 4-1 3h-1v5l1 4h-6v5l-2 1-3 1h-1zm-87-2v-2h3c1 1-2 3-3 2zm11-1-2-1c-2 0-3-1-1-2l4-1 4-1-1 6h-1l-3-1zm-114-3c-2-3-2-7 0-9l4-1h2v-10h4v6l1 7-3 1h-5v4l1 4h-1l-3-2zm-29-3 1-6v-3l2-1 3-2-1-3-1-1 2-2 3-1 1-2 2-5 4-2h2v2c1 2-1 7-3 7s-5 5-5 8v3l-5 2v3l1 2-2 2-3 2h-2zm57 2-1-2 8-9 3-2 2-2v-15l1-1 3-1c2 0 5 4 5 6l-1 2-2-1h-3l1 2v8l-1 5-3 1-4 2-1 2c-2 4-5 6-7 5zm72-3c2-4 4-5 5-3 1 1-4 7-6 7h-1zm45 1v-4l2-1 3-2 1 1-2 5-1 4h-3zm-157 1v-3c0-2 2-6 6-11l3-5v-2l5-1v2l1 1-3 4-4 8-2 3s-2 1-2 3c-1 2-2 3-4 1zm104-3 1-3 2-1 1-3 1-2h2l2 1-3 4-2 5h-4zm24-1-1-5v-3l1-2h5l2 2 2 1 2-2 6-5 5-5 2-1 3-2 2-1 1 1 2 3-5 3c-9 5-11 6-12 8-2 3-6 6-9 6l-3 2c0 1-2 2-3 0zm-48-6c-1-1 0-3 3-5l5-2c2 0 1 3-2 6-3 2-4 3-6 1zm242-7 1-2 1-1v3l-1 1zm-223-1c0-3 4-7 6-7l2 1c0 2-5 7-7 7l-1-1zm-74-3-3-1v-7l1-1 2-2 2 2 3 4 1 3c1 1 0 4-2 4l-4-2zm2-3-1-2-1 2 1 1 1-1zm107 4v-6l3-3c4-2 6-6 7-11l4-4 6-2c3 0 5 2 4 4v1l-7-1-3 3v4l1 3-3 1-4 3v2h-4v7h-2l-2-1zm63-2-2-1 4-3 2 1 2 3v2h-3l-3-2zm-15 0v-1l2-2 4-2h2v2c0 3-6 6-8 3zm-58-6v-5c0-2 8-11 9-11l3-3 3-3h1v-4l-1-4 2-2 2-3h4l5 1v4l-1 4h-5v3l1 4-4 1h-3l-1 3v3h-6v2l-2 3-2 2 1 2 1 2-1 2-3 2-2 1zm80 3-2-1v-6l-1-8v-2l2-2 3-2c2 0 5 3 5 5l-2 3-2 2-1 6-1 6zm-229-4c-1-2 0-5 1-7l1-1 1 1c2 2 2 6 0 8l-1 1-2-2zm112-2-1-6v-5l2-1 2-1v1l1 6 1 5-2 1-1 1-2-1zm219-1v-11l-1-2 7-7v-3l2-5 5-3 3-2v-2l-2-6-1-4 6-5v-3l1-2 1-3 1-4 2-3-4-3-3-1-1-4-1-7v-4l-2-2-2-3c0-3 4-7 6-7h2v3l-3 1-2 1 2 3 2 3v2l1-1h2l-1-4v-3l2-3-1-3-1-4 2-3 9-12 3-1h2l3 1 2 4 2 3h3l3 1 3 4 3 3v-1l-1-2-1-3 3-3 2-1h3l3 1 3-2 3-3h3l5 1 1 1-1 2c-1 1-2 3-4 3l-3 1v5l1 5h-5v-2l-1-4-1-2-2-1-4-1c-2-2-3 0-1 2l3 5 1 3-1 1-6 1-5 1v-6l-2-2c-1-1-2-2-1-3l-1-1h-2v5l-2 1-2 1c-1 2 0 4 2 4l2 1v6l-2 1c-2-1-6-7-6-10l2-5 2-3-1-3-4-3-2-1-2 2 1 2 1 2-1 1h-4l-2 1-1 2-1 3 5 4-1 2-3 1-2 1v1l4-1h4l3 3-1 2-1 1-2-2-2-1-1 1-1 1 1 1 1 3v1l-8 1v3l1 5 1 1 4-2 5-3 4 2 2 1-1 2v1l-9-1v1c-1 2 1 4 3 4l4 1c2 2 3 4 1 5l-3-1c-3-1-7-1-7 2l-1 1 2 1h2l-1 5h-4l1 3v3h-6v7h3l5-1h2l1 1v2l-9 1-1 2v1l1 1 2 2-4 1h-3l-3 2-3 2v2l2 4 1 2-1 3h-7l1 2v13h-2l-3-1zm74-110v-2h-2c-2 0-3 1-1 2 1 2 3 1 3 0zM50 1330l-5-2-1-3v-1h11l1-1 1-5v-3l6-6 2 2-1 4-4 7-2 4v2l1 3h-2l-7-1zm16 0c-1-2 1-8 4-10l2-4v-2l3-1 5-2 2 2 1 2-7 2-2 3-2 4-2 3-2 4-2-1zm159-1c-2-1-1-3 1-5l4-5 1-2-2-3-2-3 2-2 2-5 2-3 4-2 5-2-1-3-1-1 1-2 2-4 2-4 3-4 5-6 6-6v-8l7-7 9-11 4-4 1-4c0-4 2-9 5-9l2-1v-3l2-8 1-5 2-3 3-2 4 2-1 2c0 1-1 2-3 2l-2 1v5l3 2 2 2v1l-1 1-3-1h-3v4l1 6 1 3h-3l-1-2-2-3-3 3-1 3 2 3 3 3c0 2-2 3-6 3h-3v4l-1 4v3h-4l-4-1v1l2 2 4 3v2h-10l-2 2-1 3 2 3 1 1-1 1-2 1-3 2-5 4-4 3 2 3 1 4-5 3-4 3 3 2 3 1v2l-1 4-2-2-1-1-2 2-2 2-4 1c-4 0-6 2-6 5v1h2l6 2 4 2-1 4h-4l-5 1-1 3v3h-4v2l-1 3h-2l-2-1zm25-43v-2l-2 1-1 1 1 1 2-1zm118 42-1-2 3-5 2-4h3l2 1 1 1v2h-2l-4 1v4l-2 3-2-1zm-291-1c-1-1 5-7 7-7h2v4l-3 1-2 2h-4zm29 0c-2-2-2-5 0-7l2-4v-2h1l3 3 1 2-2 2-1 4c0 2-3 3-4 2zm48-1c0-2 7-10 11-13 7-4 8-1 1 4l-6 7-3 4h-3v-2zm-124 0c-1-3 0-5 2-6h2v6c-1 2-3 1-4 0zm282-1-3-3-2-7v-5l3-6 5-9 2-3-1-2-1-3c0-3 2-7 3-7 2 0 5-3 5-6l2-4 2-3h7l2-2c2-3 6-4 8-4 2 1 1 3-1 3l-3 2-1 1 1 2 1 4v2l1-1 2-2c0-1 2-3 4-3l6-2h4v-1c0-1-4-4-10-6l-4-3 2-7 1-5 3-2c1 0 3-2 3-4l4-4 2-1 2 1 2 1v4l-1 4-3-2-2-2-1 3v3h-3l-2 1 2 2 1 2-3 1h-3v2l2 3 3 2 3-2c2-2 4-2 7-2l1 2v1h-6v1l2 3 2 2 2 5 1 3-1 1-1 1-3-1-6-2-4 1-2 4-1 2-6 1v2l-1 4v1l2 2 1 2-1 1-1 1-3-1-2-1v-3l1-6 1-3-1-1-1-3v-2h-4l-4-1-1 1-1 3 3 3 3 4c0 2-3 2-5 1l-1-2-7 3v4h2l5 1 1 3 1 2v1l-9-1v1l2 5 3 4v1l-10-1v2l1 1c3 1 1 3-2 3l-2 1 1 2 2 2-1 2-1 2 4 2 3 4c0 2-3 2-7 0zm-224 0 4-7c2 0 2 3 0 6-1 2-3 3-4 1zm53-5-1-1 1-3 3-4 3-1 2 1-1 2-1 4-2 2h-4zm-106-2c-1-1 1-4 2-5 2 0 4 4 3 6s-4 2-5-1zm297-1c-3-3-4-6-4-9v-4l4-5h6v2l-1 3h-5c-2 2-1 4 1 4l2 1v3l1 5 1 2h-2l-3-2zm-55 0 1-2 2-2 2 2-1 2c-1 1-4 2-4 0zm10 0 2-4 2-3-1-3-3 1h-3v-2c0-2 2-4 4-4l2-1 2-2s2 1 2 3l2 3v3l-3 7-3 3h-1l-2-1zm-24-1h-3l-3-1-1-2v-2l3-2 2-1 3 3c3 3 3 5 2 5h-3zm78 0-2-3 1-4 2-1v-7l3-2 4 2-1-4v-5l2-6 4-2 3-1 2 2v5h-6v3h1v4l-1 4 1 1v3l-6-2-1 1c-2 2-4 8-3 11l-1 2-2-1zm-190-1c-1-1 0-3 1-3h2v2c0 2-1 3-3 1zm-38-1 1-4 2-4 1-2h2l2 3 1 3-3 5h-5zm100-1v-2l2-3 2-4 2-5 3-6v-3l4-2 5-2v-11l1-4 2-1 3-1-1-2-2-1-2-1v-2c0-3 5-10 7-10l3-1 1-1-2-2-3-2 2-3c0-2 1-3 2-3l1-2 5-4 4-2 2-5 4-5h1l-1-3v-4l2-2 2-4 1-2 1-1-1-2-1-2 1-4 3-10 3-8 2-4 1-2h8l4 2 2 2-7 1-6-1v5l-1 2-1 4-2 5v3h2l4 1 1 3v2h-7l1 2-2 3-1 3-3 4-2 3 3 2c3 1 4 3 2 5h-1l1 2v1h-4c-2 1-4 1-3 2v3l-3 1-3 2v1h1l2 2-2 1-2-1-3-2-2 2-3 4-1 2 3 1h3l1 2c1 1 2 2 1 3v1l-3-1h-2v6l-2 1h-1l-4-3-2 3-1 3v3l3 3 3 2-2 2-4 2-1 2 1 5 1 4-2 2-3 2-4 2-3 2v2l1 2-4 4c-3 4-4 6-2 6l2 1v2l-4 2-5 2-1-1zm54-109h-2l1 1 1-1zm105 109c-1-1 0-6 1-7l4-1h2v2l-2 2h-2v5h-1l-2-1zm-331-5-1-4 2-2 2-1 1 1 2 2-1 5-1 4h-3zm65 2v-2l1-1c1-2 4-2 5-1l1 1-2 1-1 3c0 2-3 1-4-1zm45-1-2-2 2-2 1-4v-3l3-3 4-4-1-1c-2 0-2-3-1-5 1-3 8-9 10-9l2 1 1 1-3 3-5 3c-2 0-2 3 0 4l2 3 1 2-6 5v5h-5v4l-1 3-2-1zm15-1-1-2 2-2 3-2 4 2-4 4-3 2zm-9-2v-1 2-1zm107-1-1-4 2-6 2-3h2l2-1 3-2c3 0 8 4 8 6v1h-3l-2-1-1-1-3 3-1 3h-4v6h-1l-3-1zm-230-1v-4l-1-6-1-2 1-1 3-1h2v-3l-1-3 5-3-1-4-1-4h2l4 2v2l2-2c2-2 4-1 4 1v2l-3 1-2 1-2 4-1 8v3l-3 1h-2v9h-2l-3-1zm58-1v-2h5v1c0 2-2 3-4 3l-1-2zm-12 0-2-1 2-5 2-5 2-2 2-1v-2l1-5 1-3h2l3-1-1-2 1-7c1-5 3-8 4-7l1 1-1 5-2 9-1 4h2c2 0 3 2 2 4l-1 1-1-1-2-2h-2l-1 3-1 5-2 3h-1c-2 0-3 2-3 6l-2 3-1 1-1-1zm17-5v-6l2-1h2l-1 3v3h1l2-2 1-2-1-1c-2-2-2-5 1-7 1-2 4-2 4-1l-2 2-1 2 2 2 1 3-1 2c-2 4-6 8-8 8h-1l-1-5zm29 4v-3l-2-6-1-3-1 2v2h-2l-3-1 1 4 1 4h-2c-3 0-4-5-2-9s6-8 8-8h2l1 3 2 2c2 0 3-4 3-9v-5h2c4-2 7 1 3 3l-2 1 3 1h3v8l3 1 2 2-2 2-1 2-2-2c-1 0-2-1-2-3l-2-3-1-1-1 1-1 1 2 4-1 3-2 2h-1v6h-2l-3-1zm4-10-1-1v2c0 2 1 4 2 2l-1-3zm43 8v-3l5-1 4-1v3l-1 3h-7zm31 0c-1-1 0-6 1-9l2-5v-2l2-2 5-2h2v5l-2 1h-2v2l-2 5-2 5c-1 3-2 4-4 2zm-6-3a1 1 0 0 1 2-1 1 1 0 0 1-2 1zm93-4v-2h4v4h-4zm-99-6v-2c1-1 2 1 2 2l-1 1zm105-1 2-10 3-2h1l-1 3-1 7v3h-2l-2-1zm-22-1c-2-2-1-5 0-6h2l2 2 1 4h-5zm-82-4c-1-3 1-9 4-11 2-2 2-5 1-5-2 0-1-3 0-7l2-4c0-2 2-3 5-3h3v-2c0-3 3-8 6-8l3 2 1 2-4 3-1 6-1 7h-4v-5l-3 2-3 2v4l6 4v3h-5l-1 2-2 1h-2v3l1 3-1 2-3 1-2-2zm-75 0c-1-1 0-4 1-5l2-1v-11l2-2 3-3h4l6 1h3v4l-3 1-2 1-1 3-2 2-2-1-1-2-2 1-2 1 1 3c2 2 1 4-1 4l-2 3c-1 2-2 3-4 1zm13-16v-2h-2l-1 2c0 2 3 1 3 0zm13 14-1-3-2-3-1-2 1-3 2-3 2-1 1 1 1 1-2 2-1 1 1 2 4 4h2v2l-1 3h-2l-4-1zm30 0-1-2v-11l2-1 2-1 1 1 2 1-2 3-1 2v4l1 4h-4zm111-4-2-2-1 1-4 1h-4v-2l2-5 3-2 5 2 5 5 1 2-3 3zm-231-1-4-4-1-1 1-2 4-1h3l2-4h2c2 0 5 3 5 5v2l-7 2v6h-2l-3-3zm45 0v-2l3-1c5-1 7-2 7-4l1-2 5 1v3h-4v1c1 2-1 4-5 4l-4 1-2 1h-1v-2zm190-5-3-5 2-1h2l3 3 3 3v2l-2 1-5-3zm16 1 4-6 5-4h1l2 3v2l-5 3-6 4-1-2zm-225-5 1-6 1-7v-3l2-1 4-4c1-1 3-4 3-7l2-4 4-3 4-4-1-1 1-3 2-6 3-5 2-3 1-3 2-1 2 1 2 2-1 1-4 2-2 3v7l-3 3-2 5 1 1-3 3-4 5-3 7-2 8v4h-2l-3-2-1-1v13h-5l-1-1zm69-2-2-4 1-2 1-1 3 2c2 0 4 2 5 3l2 2-1 2-4 1-5-3zm33 0-1-1-2-3-2-2 6-2v-2c-1-1 1-4 3-8l3-7h2l3 2 2 1 2-1 2-1c1 1 0 2-1 4l-3 3-3-1-3-1-2 9c-1 8-3 11-4 11l-2-1zm-83-3 3-5 3-5 4-4c1 0 1 3-2 9l-5 6-3 1v-2zm-37-3c0-1 0-4 2-6l2-4h2l3 1-1 6-1 4h-6zm238 0-1-2-1-6v-4l3-3h3l5 1c1 1 1 5-1 4h-3l-3-1v5l3 3-1 2-2 2-2-1zm-163-1v-4l-1-4-2 1-1 2v3l1 2h-2l-3-3-1-2 1-2c0-2 1-4 3-5l3-2 2 1 2 1h3l2 3v2l-2 1h-2l1 2 2 2-1 2c0 1-3 2-5 0zm39-3 2-1 1 1-2 1h-1zm-24-2-1-5v-3l2-1 6-2 5 2 3 1-2 2-2 1-2-1-1-1-4 1 1 8h-4zm-38 0 2-3 2-4 1-2h1l2 2c1 1 0 3-1 5l-2 3h-2l-3-1zm210-1c-2-1-1-5 1-9l6-7 2-2-1-3v-5l9-9h2v3l-1 4-4 1-2 1 1 4v5l-5 5-4 5v4l-1 4h-1l-2-1zm-151-6-1-1v-6l3-2 3-2-1-7v-6h-4v-6l3-2 1 1 2 2h2l4-1 2-1 1 2v5c0 1-4 2-4 0l-1-1h-1v4l1 7 1 2-3 3-2 5c0 2-2 5-3 5l-3-1zm-105-2-2-2 1-3 1-3 2-2 4-4c1-3 3-4 4-1v4l-7 13-3-2zm52-3-2-1 6-11h1l1 1v3l-2 5-1 2c0 1-2 2-3 1zm15-2-2-4s1-2 3-2l4-3 2-1 2-1 4 5 5 5h-2l-4 2-3 1h-1l1-2 1-3h-3l-1 3-1 3h-3zm175 2-2-4v-5l2-2 2-2h1l1 1v5c0 4-1 8-3 8l-1-1zm-93-1-2-2 2-3 2-5v-2l3-3 5-2 2-4c0-3 2-5 3-6l3-6 1-3 4-2c2-2 4-3 5-2l1 2c0 2-3 6-9 12l-3 3v3l-1 3 3 1h2l-2 2-2 2-7-1v2l-2 4c-2 0-3 2-4 4l-2 4-2-1zm-22-2c-1-2-2-4-1-7l1-4 4-4c3-2 5-5 5-6l5-12 5-1h3v-6c0-1 2-7 4-8l4-1h3v-2c0-3 8-15 13-21l5-4v5l-3 3c-1 0-3 2-3 4l-3 4-2 5-3 6-2 1 1 4 1 3-2 1-1 1-2-1-1-3-2 1-2 2v8l-2 2-4 1h-5v2l-1 4-1 4v2l-2 1-2 2-2 3-2 2-1 5-3 5-2-1zm-28-3-4-1-1-1v-5l3-1c1-1 3-2 4-1l1 2v1h-4v4l2-2 3-2 1 1 1 2-2 2-2 2-2-1zm197 0-1-2 2-6 3-7-1-7-2-5 2-10 1-10 4-7c4-7 5-10 3-11l-1-1v-24l1-2 2-4 5-7 7-8 9-16 2-10 3-11c0-5 3-13 5-17l2-4 3-4 3-4 1-4 2-4 3-7 3-9 1-4 4-5 5-8 1-5 2-6 4-7 3-4 2-5v-10l-1-7 1-2 1-3-4-7 1-4 1-3 7-7 7-9 3-8 5-14 4-7 1-8 2-10v-11h1l1-6v-4l-4-6v-5l1-6-3-2 1-6 2-12 1-7-1-2-2-3v-10l4-5 5-8 5-8 6-9 2-10 2-7 2-9 1-14 1-7 9-12v-7l3-4 2-4 3-5c2-2 3-5 3-7l5-8 2-4-1-3-2-6-1-4 3-5 2-7-2-4-2-2v-4c-1-5 1-17 3-22l1-3v-9l2-3a19 19 0 0 1 13-4h4l4-5 7-9 2-3 2-9 1-11c0-2 3-11 6-16l2-6 2-7 4-11 3-11 2-2 1-8 1-12-1-5 2-4 3-5 4-5 7-9 4-4 1-6 1-9 1-11v-7l2-2 2-4 3-4 3-5 4-5 4-4v-3l-1-4-1-8-2-5 5-5 6-7 2-13v-10l-1-5-2-5 1-5 1-4-2-3-2-4 2-2 2-1v-7l3-3 3-3 3-5c3-4 5-5 5-2 0 2-2 5-7 11l-3 4h2l7-2 4-2v-8l1-3-2-3-2-2 1-5v-4l2-1 3 2 2 1v7l5 1 1-2 1-1v-4l-1-4 2-3 1-4 1-4c2-2 3-7 5-16l1-12v-8l3-4 3-5 3-4 3-3 1-6 3-8 5-4 5-5c1-1 3-5 3-8l1-4 2-2 6-2 3-1v-17l5-8 4-11 1-5 7-13c2 0 3 3 1 5l-3 9c-1 7-5 16-7 18l-2 1v17l-2 4-3 4-7 2-1 4-1 5-6 9-3 2-5 2-1 5-1 5-3 5-3 5-3 6-3 3v8c-1 11-1 14-3 19l-2 5-2 7-3 5v10l-3 5-4 7c0 2-9 11-16 15l-7 4 1 5a282 282 0 0 0 2 21l1 9-1 3-2 8-2 6-3 3-4 4-2 1 2 2 1 2 1 16-2 7-6 2v3l-5 8-5 5v3l1 7 1 4-2 4-2 3v10l-1 3-7 8-5 6s-1 3-4 5l-3 3 1 3 1 4-1 7-1 11v5l-6 7v8l-3 8-4 11-2 6c-2 4-3 8-5 22l-2 11-8 11-5 5-4 3-7 1c-5 0-8 1-9 2l-1 1 1 2 2 4-2 6-3 6v4c0 5 2 13 4 15l1 2v4l-3 7-1 1v6l1 7 1 3-1 3-4 6-4 7-3 6-2 4-2 4-2 2v10l-4 4-4 4-1 5-2 13-3 15-2 9c0 3-5 14-9 17l-4 6c-2 7-5 12-8 13l-2 1v4l3 6 2 3v7l-3 11-1 5 1 3 1 2-1 10 4 5 1 7 1 9c1 1-1 2-2 3l-1 2-1 9-1 9-1 3-3 7-4 7-3 4v8l-3 5-11 12-4 2c-1 2 0 9 2 12l1 3v9l1 7-2 6-4 9c-3 3-6 9-6 13l-1 3-5 6-4 7-2 1v3l-3 9c-3 5-4 8-5 16l-5 7-7 9-2 5v5l-2 10a176 176 0 0 0-6 18 91 91 0 0 1-9 15l-6 7-5 7 1 2h4l4 1 2 1h1v-9l1-1 6-3 6-2v-3l1-4 4-2h2l2 3 3 2 2-3v-3l3-1 3 1 2 1v-2l2-2 4 3 2 3h6l1 3 1 4 2 1 3 1 3 1h3l4 3 5 4 2 3 2-3 4-2 3 2 1 1-1 2-2 2 1 3 1 2-2 3-2 3h-3l-1-5-1-4-4-3-5-4-4 3c-1 2-3 2-3 2l-5-3-4-4v-7h-5l-2-3c-2-4-5-5-5-2l2 4 1 2-1 1h-2l-3-2-2-4-1-1-1 2v2h-2l-2 1 1 2 1 3h-5l-1-5v-3l-6 6 2 3 1 4 4 1 4 2v4l-10 1v7l2 3 4 2 6 2 4 2v2l2 5 3 10 1 7-1 4c-1 3-2 6-4 7-2 3-4 8-4 13l-1 4h-1l-2-1-1-2v-11l2-2 4-5 2-4v-6l-4-18-4-1-3-1 1 6 2 8 1 2-1 4v5h-4v-5l-1-13-1-7-3-5-3-4v-2l1-2-3-3-1-4 2-1h2v-3c0-4-2-6-3-6l-3 4-2 3v7l2 4 2 4 2 3c2 2 2 4-1 4l-1 2 1 5 2 6-2 6-1 2 3 4v6l-2 10c0 3-2 6-4 5v-7l1-6v-6l-2-1-2-2 2-6 2-4v-5l-2-11v-5l-4-4-5-4-3-1-4-1h-4l1 3v7l1 7 1 7v3l-4 7-5 8v15l1 15-3 7-4 8h-2zm82-99c-1-2-2-1-2 1h3zm-329 97v-10l3-2 6-2 3-1-1 4 2 2 2 1h-4l-6 1-2 1v2c0 3 0 4-2 4h-1zm-31-5-1-3 3-2 1 1 2 4v2h-4zm69-2-1-2 1-1c2-1 2-4 0-4-1 0-3 2-3 5l-1 2h-4v-2l1-6 2-5h2l3 2 2 1 1-2v-2l2-1 4-1h2v4l-3 1-3 1 1 4 1 3-2 3-3 2-2-2zm-79-4-1-1 3-3 5-2 2 2-1 4-1 2h-6zm248-2c-2 0-4-1-5-3l-1-2 5-5v-10l5-3 7-2h2v1l-2 6-1 4-1-1h-3l-2-1 1 5 1 6c1 1 1 5-1 5l-2 1-3-1zm-233-2-1-2 2-5c3-4 6-5 6-2l-2 1h-1v4l-1 4h-3zm36-2c-2 0-1-4 1-5 4-3 11-2 11 1 0 2-2 2-4 1l-2-1-3 2c-1 2-2 3-3 2zm217-2v-4l2-3 3-2 1 1 1 1-1 2-3 5c0 2-2 3-2 3l-1-3zm-157-2-2-3c0-2 2-2 4-1s2 5 1 5c-1 1-2 0-3-1zm-104-1-1-2 3-5 2-4 2-1h2v2l1 1-1 1c-1 1-3 3-3 6l-3 4-2-2zm94 0v-2l1-2h5v1c0 2-2 4-4 4l-2-1zm-11-3-1-2 2-1 2-5v-2l1-1 3 1 1 1-1 1-2 2v8h-4l-1-2zm-37-4v-2l2-1h2l2-4 4-4 1-1 3 1 3 2-1 1-1 1h-2l-2-1-1 3c0 1-1 4-3 5l-2 2h-5zm21-2 4-6 1-1v-6l1-8 5-5 3-2v-2c0-2 3-8 5-8l3-5 1-3v-11l7-3 1-3 2-6 1-3 6-1 3-3 2-6-2-4-2-3 2-2 2-4 3-4 4-4h2l3 1 2 1h1v-5h1l4-4 2-3 3-1 4 1 4 2 2 1 1 1v2l-2 1h-1l-3-1-3-2-2 1-4 2-2 1 1 6v6h-2l-3-2-1-3h-7l-2 2-1 3-2 3-2 2 1 1 3-1 3-1 1 1 2 3 1 1 2 1 3-5h2l2 1-2 4-2 3h-6l-1 2v6h4v-2l1-3h4v2l-3 4-2 3-6 1-1 6-2 1-3 2-2 1h-2v-2c0-2 2-4 5-5l2-3 2-3 2-2-4-1-3-1-2 2-2 2 2 2 1 2-2 1h-2l-1-2-2-2-1 2 1 2-2 1-1 4 1 5 2 2-2 1h-4l-3-1v5c0 8-1 11-3 13l-2 3-5-1-1 2 1 6 1 4-1 1-1 1-2-1-1-1-3 1-3 3 1 2 2 4 1 2 2-3 1-4 10-4v-3l1-3 5-4 6-3h2v-2l3-5 3-4-3-3 2-2 5-3 3-1 1-2 1-3 3-1 3-1 1 2 1 2c0 1-1 2-3 2l-4 1-1 1 1 2 1 2-1 1-4 3-3 2v3l-1 2c-2 0-6 5-6 7v2l-5 1-6 2-1 5-1 4 9-1v1l-2 4-1 4c0 3-1 5-3 5h-2v-1l1-4v-5h-5l-6-1-3 6-4 5-2-1-2-1-3 3v2l1 2h-6l-1-2zm52-81 2-3-2-1-2 1c-2 0-2 6 0 6l2-3zm-15 81 1-3 2-5 3-7 3-2 2 2-2 3-1 5-2 5-2 4h-4zm117-1-1-4v-2h4v2l1 2 1 2v2h-2l-3-2zm-192 0-1-3 2-5 3-4 2-2 2 2 1 1-1 4-2 3s-2 1-2 3l-2 2-2-1zm134-3-2-3-1-4 2-5c3-3 6-4 7-2l-1 6-2 7v3h-2l-1-2zm11 0v-1 2-1zm52 0-2-1 1-2 3-2h2v3l-2 3-2-1zm30-2-3-2 3-3 3 2 3 3-2 1-1 1-3-2zm-251-2 5-9c2 0 4 2 4 4l-2 3-3 2-2 1h-2zm185-1v-2h3v4h-3zm41-2-1-2 3-4 4-5 2-1 1 1c1 1 0 4-2 4-1 0-3 3-3 6v3h-3zm31 0-4-3-1-1 2-5 2-4 5-2 1 1 1 2-3 2-3 4 2 1h2v5h-4zm-203-1-2-2 2-3 2-5c0-2 2-3 4-2v1l-1 6-1 5c-1 2-3 1-4 0zm136-2v-3h1c2 0 4 3 3 4l-2 1h-2zm20-3-1-1 1-2c0-2 2-3 2-3h2v7h-2l-2-1zm-165-1c-2-2-2-6 0-6l2-1 1 3c1 3 0 5-1 5l-2-1zm53-2-1-1 2-2 4-1 2 1v4h-6zm-90-2-2-2 2-3 1-2h2l2-1-2-2c-2-2-2-6 0-6 2-1 7 1 8 2l1 2-1 1-2 1-2-2-1-2v4l2 6 2 4-2 1-3-2-1-2v5h-3zm120 0-1-1 1-3c1-5 2-10 4-12 0-1 2-3 4-3l4-2v-2l6-12v-3l2-1 3-1h2l2-3 3-4h3l3-5 4-5c4-3 4 1 0 7l-4 6-2 4-2 3h-1v-2l-1-3-1 3v2l-2 1-2 1 1 2 1 2-1 1-1 1-2-1-1-3-2-1h-1v2c1 3-1 6-3 6h-1v4l1 3-9 6-1 4-1 6v2l-4 2-1-1zm33-2-1-4c1-2 8-7 9-6 2 1 1 3-2 4l-2 2 1 2 1 1-1 2-2 1-3-2zm46-2 3-4c2-2 6-2 7 0v1l-4 2-5 2-1-1zm-16-2c-1-2 2-4 4-4h3v2c0 1-3 3-5 3l-2-1zm-128-1c-1-1 2-3 4-3h2v2l-3 2-3-1zm-16-3-1-2 2-4 3-5c2 0 5 1 6 3v2h-6v3l-1 4c-1 1-2 0-3-1zm153-1-1-4 1-8 3-2 3-4v-1l4 1c4 0 6 3 6 5l-1 2h-10v14h-3zm-288 1s0-19 2-31v-8l3-4 3-4h1l4 2 1 1-1 3a595 595 0 0 1-1 19c0-2 3-4 5-7l7-8 8-8 1-1 2 1 1 1-3 4c-1 3-5 7-9 11l-10 11-5 5h2l9-4 6-2h9l9 1c1 2-1 3-9 4l-14 3-5 1-7 6-7 5-2-1zm317-2-2-2 1-5 2-6 1-2-3-2-2-2 2-3 1-1h-4l-1-3-1-2 1-4 1-4 4-3 3-2 4 1 5 3-2 2-1 1-4-3-3 1v10l6-1v1l2 2c2 0 3 3 3 6l-4 3-6 3 1 3 1 2-1 2-1 1 2 1 2 1c0 1-3 4-5 4l-2-2zm9-21v-2h-6v1l1 2 3 1h2zm-217 20-1-4c-2-3-1-6 1-6l2 1c0 2 3 1 4 0l3-6 1-4 3-1h2v1c0 2-6 12-11 16l-3 4zm49-1-1-3 3-1h2v2l-2 2h-2zm101-2-2-5-1-4 1-3 2-3h9l1 2 2 2-1 1-1 2-2-1-4-1h-2v2l1 4c2 2 2 5-1 5l-2-1zm94-1 1-3 2-3h2l2 1-2 3c-1 3-3 4-5 2zm69-4v-1l1-1 4-1h2l1-2 1-3 1 1 3-1 2-2-1-2c-1-2 0-5 1-5l5 7c0 1-7 7-10 8l-5 2-3 2-2-2zm-263-1v-4l3-2 1-1 2 1 1 1-2 4-3 3-2-2zm188 0-3-1v-4l2-1 4-2 2-1 1 1 2 2v2h-6l1 2 1 1-1 1-1 1zm-203-3c-1-1 1-2 2-1l1 1h-3zm0-5 1-5 2-5c-1-3 0-4 1-4l2 4 2 5c0 2-4 6-6 6l-2-1zm153-3-1-2 1-10 2-3 4-5c1-2 2-3 3-2h1l-1 4-2 6-2 3v8l-1 1-2 1zm126-1-1-1 1-3 4-4 5-2h3l3 4h-1l-4-1c-2-1-4 0-4 2l-4 7-2-2zm-75-3-1-4v-2l2-1 4-2h4l-1 3-1 4h-2l-3 2-1 1zm-135-2c-2 0-2-4 0-6l2-3v-1h2l2 1-2 2-1 1v3l1 2-1 1h-3zm116-2c-1-1 2-7 6-10l4-1c2 1 1 3-1 4l-4 2-1 4c-1 2-4 3-4 1zm-56-2h-1v-8l1-1 4-6 3-5h5l6 1v7l-3-2-4-3h-2v3l1 2-3 3-3 2 2 2 1 2-1 2c-1 2-3 2-6 1zm-156-1v-5l1-3 2-1 3-2 2-1 1 1 1 1-2 1-2 3-1 3-1 2v2h-2l-2-1zm35-2-2-2c0-1 2-3 4-3s4 2 4 5h-6zm81-3v-4l4-3 6-7 4-4h1v5l-7 6v5l-2 1h-2v5h-4zm231 0-2-1v-3l1-4 3-1 3 1 2 2-1 1-1 1-2-1-2-1v1l1 3 1 1-1 2zm-108-2-2-4 3-5 3-5 1-1 2-1 1-1h1l-1 1v2l-2 4-3 2v3l1 3-1 1-2 2zm118-3-2-1v-5l2-6 4-1h3l1-2c1-3 6-8 8-8h2v2l-2 5-5 3h-3v4h-3l-3-1 2 4 1 4-2 2-2 2zm-319-1c-2 0-1-4 1-7 2-1 4-4 4-6l2-3h1l2 1c0 3-3 9-4 10l-1 3-1 3h-1l-3-1zm168 0c-1-1 0-4 3-6l2-2 1 1 3 1 2 1v1h-5l-1 3-3 2-2-1zm122-1-1-3c0-3 2-5 5-6l2-3 2-3 4-2h3v-6l6-3 3 1h3l2-2 1-2h6l1-2 1-2-1-1-2-3 3-3 2-3h4c4 0 6 1 6 4v1h-5l-1 2-3 2-2 1 1 3 1 2-1 3-1 2-10-1 1 3 2 3-2 1-1 2-3-4-4-3-1 3-3 4-2 1 1 4v4h-1c-2 0-4-3-3-5v-1h-1c-2 0-3 3-3 7v3h-1l-2-2-2-1-1 1v2l-1 3-2-1zm-108-2c-1-2 3-4 5-4l2 1v3h-7zm-30-2 4-4c2 0 3 2 2 4-2 1-5 2-6 0zm-270-2-1-3v-2l7-8 10-12 4-4h2l3 1c1 2-5 10-9 12l-4 3-2 4c-1 3-5 8-7 9h-3zm298-3-1-4v-4l-1-1-2-1-3 3-5 4v2h-2l-3-2-1-2 3-2 2-2 4-8 4 3 3 3 3-2 4-3 2 1 2 2v2h-6v12h-1l-2-1zm-210-1-2-2 1-2 3-4 2-1 1 1 3 3v3l-3 1-3 2zm3-4v2-2zm90 4 1-2 3-4 1-3h2l2 1-2 5-3 4h-2l-2-1zm161 0-2-2-2-1v-2a155 155 0 0 0 7-16l1-6v-3l2-3 3-5c0-1 3-4 4-3v8c0 1-1 3-3 3l-2 1v2l-6 21-2 2 2 1 2 2-2 1h-2zm-123-1-1-2v-3l1-3 4-5 6-7 2-5 2-3 2-1 1 1c2 1 3 2 6 8l1 4-1 1h-9l-2 3-2 2c-1-1-6 3-6 5l2 2 1 3c-1 2-6 1-7 0zm16-20v-4l-1 1v4l1-1zm26 17c-1-2 0-3 4-9l1-4h-10l-1 3-1 2h-6v-15l4-2h7l1 5 1 4h7v1l2 5 1 3-4 4-5 4-1-1zm-4-17c0-2-1-3-2-3h-2c-1 1 0 4 1 5h2l1-2zm68 14 4-3 3-2 1 1 1 2-4 2-4 2-1-2zm-198 0c-1-1 0-4 1-7l3-3 4-1 4-2 2-1-1-2-1-3 3-5 3-4 1-2h2l2 1v4h-4l-1 3-1 5-2 7-2 5h-4l-4-1-1 3c-1 3-2 5-4 3zm148-4-1-2v-1h4v2c-1 2-2 3-3 1zm-180-2c-1-1 0-3 3-7 1-3 4-5 5-5l2-1v2l1 1-2 3-5 5c-1 3-2 4-4 2zm184-4-1-2 1-3c2-3 6-4 7-2l1 1-2 2-2 3-2 3-1 1zm-63 1v-1 2-1zm56-1v-3l-1-2-2 1c-2 0-4-2-3-4l3-1h2l-1-1-4-2-5-1-2-3v-2l5-2 2 1 6 4 3 3v2l1 4 2 1-1 3c-2 2-3 3-5 2zm58-1 1-2 2-4 2-3v-12l2-4 1-3-1-5 1-2 2-5 2-7 3-6v-3l1-1h2v-4l1-11 4-5 5-10 3-6-1-3v-3l3-2-2-3 3-2c2-2 6-7 11-17l5-7 2-3 1-2 2 1c1 1-1 6-3 8l-3 7-3 6-1 1v11l-2 3-1 3-4-1h-4l1 4v4l-3 5v4l1 4-4 3-5 5-2 1v14l-4 6-4 9-1 4c-2 3-4 14-3 16l-1 7-7 12-2-2zm28-76-1-1-2 1v1h1l2-1zm14-25c0-3 0-6-2-6l-3 3-1 2 2 2 2 1 2-2zm-79 101-2-1v-3l2-1 2 2 2 2c0 1-2 2-4 1zm-126-2v-14l2-2 5-3 4-2 2-5 2-4 4-1v-4c0-10 1-14 2-17l2-4 6-1h7v-3l2-3 2-1v2c1 2-1 7-2 7s-2 1-2 3l-1 2h-2l-4-2h-3v2l-1 3-1 1 3 2 3 1v3l-7 4v2l1 5 1 3-5 2-4-2v4l7 4v2l-1 2h-4l1 2v2l-6 1-3-1-3-2-2-1 1 3 1 2-1 1-2 2v3l1 3h-2l-3-1zm16-16-2-3-2 2v3h4zm122 14 1-5 1-4-1-1-3-2-3-6-1-4 2-2 2-3h8l1-4 3-4 3-2 1-2h3l4-1 3-2 5-1 2-2 1 1 2 1c-1 2-2 2-7 4l-3 1v4l1 4h-1c-2 0-4-2-4-4v-2l-3 1-1 4-2 4-2-1-2-2-1 2v5l1 2-1 1-5-1c-1-1-3-2-4-1h-1v3c1 4 3 7 4 7l2-1c0-2 3-3 5-2l2 1-3 3-4 3h-1v10h-2l-2-2zm-114-3c-1-2 2-5 4-6h3l3 2 2 3-1 1h-5l-1-1-1 1-2 1-2-1zm29-3-3-3v-2l5-6 7-7 3-1 3 1 2 3-3 1h-4v5l-4 2-3 2 1 3v2l-1 1-3-1zm-194-3c-1-2 0-6 3-8l4-2h3v2c0 2-6 9-8 9l-2-1zm77-2 1-4 1-4v-4h2l2-1c1 1 0 4-1 9l-3 7h-2zm194 1v-1h4l1 1v2h-5zm-63-3v-5l2-1 4-1 2 2 1 1-3 1h-2v5h-2l-2-2zm-32-2h-2v-1l3-3 2-1v-3l-2-2 2-2c0-2 2-4 4-5l4-1h1l2 1-2 2-3 2-2 3v11h-2l-5-1zm68-2 1-1v2l-1-1zm46-1v-1l1-1 1-1 2 2v2c-1 2-3 1-4-1zm-194 0c0-1 6-12 8-13l3-1 2 3v2h-2l-5 5-5 5-1-1zm25-1c-2 0-3-1-1-2h7l-1 1c0 2-2 2-5 1zm-110-4c0-2 5-10 8-11h2l1 1-1 3-4 6-3 3h-3zm318 0v-3l2-6 3-9 2-7 1-4c0-2 5-7 7-7 1 0 6-9 6-14l5-16 4-10 2-6 3-1v3l-2 7-2 5-2 6-3 6-1 13-2 2-2 4-4 4c-4 3-7 10-7 14l-1 6c-3 4-6 12-6 14s-2 1-3-1zm-84 0v-10l-3 1-1 1-2-1-1-1-2 2-2 2h-1l-1-2 2-4 3-3h12v-1c1-2 4-2 4-1 1 2-2 8-3 8h-1v4l1 4-4 2-1-1zm-120-3-1-2v-5l1-4 5-7 1-5 2-7 5-4 5-5 2-4h2l2 1-2 5-6 7c-3 1-6 4-6 6l-1 3v4l1 4h-1l-4 1-1 8-1 6-1 1h-1zm100-1-3-4 2-1 1-1 3 3c2 2 2 5 0 6l-3-3zm-141-4c0-2 2-4 4-4h2v2c0 2-2 3-5 3l-1-1zm25-4v-2l1-1 2 1v2h-3zm78-4v-2h2c2 1 2 2-1 3h-1zm34 0v-2l2-2 2-5 4-7 4-5v-2l1-5 5-9 3-8 5-3 4-7 3-6 2-1 3 1 1 1-3 2-2 5-3 5-3 4-3 2-2 1-1 4-3 6-2 4a80 80 0 0 1-13 25l-3 4zm-198-1c-1-2 2-7 5-7l2-1v-2c0-2 1-4 8-12l3-3c0-2 2-6 4-7l2-1 1 1 2 3-3 5a2149 2149 0 0 0-15 16h-1v1c1 2-4 8-6 8l-2-1zm88-1c1-2 3-2 3-1l-2 2-1-1zm72-3v-8l1-1c2 0 7 3 7 5v1l-5-1v2c0 2-2 3-3 2zm-84-6-1-2 3-2v-8l2-2 6-8 5-7 3-1 1 1 1 1-8 11 1 7h-3l-3-1v1l-1 5v4l-2 1-3 2-1-2zm16 1v-3l1-1 2 1 1 2-2 1-1 1zm136 0c0-1 4-8 7-9l2-4 1-3 4-1v2c0 2-4 10-7 13-2 3-5 4-7 2zm34-7 1-6 2-6v-4l3-3 4-3 2 1-3 5-2 4-4 16h-3v-4zm-90 2v-6h-3c-2 1-4 0-4-1s3-4 5-4h3v1l2 6 2 4-2 1-3-1zm8-6-1-2v-1h2l2 1v1c0 2-2 3-3 1zm-24-5-1-1 3-3 4-4 2-2 1 1v3c0 3-4 7-7 7l-2-1zm73 1c-1-1 1-5 4-10l4-10 1-3 1-2 1 1 2 1-1 2-5 12-4 9h-3zm-56-3 2-2h2v3h-4zm17-1-5-2-3-2 2-2 3-3 3-2 2-1-1-3v-3h1l4 1 3 1-1 2-1 5-1 2h-3l-2 1 2 2 2 3v2h-1l-4-1zm-25-9c2-5 3-7 5-7h1v2l-2 4-3 2h-1v-1zm-136-2c0-2 3-5 5-6l2-1 1 2 1 1-3 3-4 3h-2v-2zm173-1 1-2v-1l2 1v2h-3zm-102-6c-1-2 2-7 3-7l2 2c1 2-1 6-3 6l-2-1zm29 0-1-1 7-12h4v2l-8 12-2-1zm70-2-1-2v-1h2l2 1 1 1v2h-1l-3-1zm-30-1c0-2 4-8 6-9 2 0 5 2 5 3l-3 2-3 3v2h-5zm72-4 1-2 1-1 1 1c1 1 0 3-1 3l-2-1zm-198-4 1-4c2-4 8-10 10-10l2 2 1 1-4 5-4 6h-6zm123 0-2-1 1-2 4-2h2v2l-2 3-2 1-1-1zm-27-7v-1 2-1zm79-3 5-15 4-5 2-1 1 1 1 1-2 2-4 10-3 8h-1l-3-1zm-47-2c-2 0-2-4 0-6l3-1c2 1 2 5 1 7h-4zm117-2v-2l5-2 1 1 1 1-2 2-3 2h-2zm48 0 2-6c2-2 3-6 3-8l3-4 2-1 1 1 1 1-2 2-2 6c-1 4-5 10-6 10l-2-1zm-96-2 3-7c3-6 6-9 7-7 2 1 1 3-3 9-3 6-6 7-7 5zm-70-6 1-4 1-2h2l3 2-5 5-2-1zm123 0 1-5 2-4h1l3 2v2l-1 1-2 3-2 2-2-1zm-199-1v-2c1-1 2 1 2 2l-1 1zm49-2v-2l5-1-1 6h-4zm-80 0-1-2 3-4 5-5c2-1 4 0 4 2 0 1-2 4-5 6l-4 4zm84-8-1-1 1-3 2-6 2-5 1-5 2-4 2-2h2v2l-2 6-1 5-6 14-2-1zm29-1c0-2 4-6 6-6l1 1-1 3-1 3h-5zm54-2v-1l1-2 3-2 2 2 1 1-2 2-3 2-2-2zm67 1c-2-1-1-6 0-9l3-3 2-1-1-1v-2l8-3v-5l3-3 4-2v-3c0-6 3-14 6-21l4-8 5-13 5-11 2-3 1-1 2 1 1 2-1 3a266 266 0 0 1-10 23l-4 9-4 8v6c-1 6-3 11-6 14l-1 4-1 3-3-1-1-1-1 1-4 4-4 1v8l-1 5h-2l-2-1zm50-1c0-1 1-2 3-2l1 2h-4zm-19-5 1-3 1-6v-6l4-4 6-5 1-1-1-1v-7l2-1v6l1 2 1 4-4 3-4 3-2 8-2 8-3 2h-1zm-147-1c-1-1 0-3 3-6l4-9 3-7 2-1 1 1 1 1-1 4-3 6-2 4c0 2-5 8-6 8l-2-1zm-104-1c0-2 2-4 3-4h2v2l-1 3h-4zm270-1-1-1c0-2 6-8 9-9l3-2 1-5 1-13v-8l5-11v-4l-2-5-2-2 2-4 1-4v-19l1-1h2l1 4 2 9 1 6-2 4-2 3 1 5 2 8v4l-1 1-2 4-1 3-1 6-3 18-1 4-4 2-6 5-3 3-1-1zm-265-8c-1-1 0-3 3-7l3-4v-1l6 1v1l-4 6c-3 5-6 6-8 4zm158 0 3-10a6576 6576 0 0 0 6-11l2 1 1 2-1 2-1 4v3l-4 3-3 5c0 1-2 2-3 1zm-107-1c-1-1 1-3 2-3h2v4h-2l-2-1zm23-11v-1l4-4 4-6 1-4 4-7 2-5 4 2-1 2-1 4-4 6-3 6-8 9-2-2zm-20-1 1-4 2-4 2-6 2-2 1 1 2 1-2 3-3 8-2 5h-3zm-40-7v-2c0-2 2-3 4-3l1 2v3h-2l-2 1-1-1zm166-2v-2c2-1 3-3 8-13 2-4 5-6 7-6 1 0 1 3-1 5l-6 9-4 8h-2l-2-1zm-136-5 1-4 2-2 2-7 2-7 7-3 1-3c2-4 4-6 5-5s-1 7-3 10l-4 3-3 2-1 4-2 7-2 4c-1 2-4 3-5 1zm77-2 3-5 4-6 2-4h1l2 1c1 2-2 9-5 12s-6 4-7 2zm-97-3v-2l3-4 5-4c3 0 3 3 1 6-3 4-5 7-7 7h-2v-3zm38-3-1-2 2-2 2-3 1 1h2l-2 4-3 4-1-2zm199-2 1-1v2l-1-1zm-87-4 1-5 2-4h2l3 1c0 2-5 10-7 10h-1zm-40-7 1-2 1-1v3l-1 1zm-94-3-1-1c0-2 7-10 8-10l2 2 1 1-3 3-2 3c0 1-4 3-5 2zm96-6v-3h4l1 3-1 2h-4zm48 1-1-2 2-3 1-3h4v2l-2 5-3 2zm83-2v-2l2 1-2 1zm-176-1c-1-2 1-7 6-16 3-3 5-9 6-12l3-7 3-2h2v2l-2 4-2 7-6 11-5 11-1 3h-2l-2-1zm-16-1 2-7 2-1 1 1 1 1-2 3c-1 4-3 5-4 3zm-11-2v-3l3-3 2-4c0-1 2-4 4-4s2 2 0 4l-5 10v2h-4zm75-3v-1l3-3c3-3 5-3 5 0l-3 3-3 2-2-1zm-14-5c-1-3 0-5 5-17l2-8 4-4 5-7c1-4 4-9 5-9h3l1 1-1 3-2 6v2l-5 5-7 9a46 46 0 0 0-6 20c-1 3-3 2-4-1zm24-4c0-2 1-6 3-7 1-1 4 0 4 1 0 2-4 7-5 7l-2-1zm-90-3-1-1 3-3 3-4v-2l4-3c2-2 4-4 5-3l1 2v2l1-3 2-2-1-3v-3l1-2 4-2 3 2v1l-1 1-2 1-1 4-2 7-2 3-2-2-2-2-2 3-9 11-2-2zm13-2v-1l1-2 2-1 1 1 1 1-1 2-2 2-2-2zm182-2-1-1 1-7h-2l-2-2 2-3 2-1-1-8v-9l4-4 4-5 3-4 3-5c0-3 8-15 12-18l4-3 3-4 2-4 2-3 5-9 4-8 1-2v-11l2-5 4-8 3-3h2l1 1-2 3-3 6-2 4v12l-3 4-3 7-3 8c-4 9-13 21-15 22-2 0-8 9-10 14-1 4-5 10-9 16l-3 3-1 13c0 12 0 15-2 15l-2-1zm26-2-2-5-1-4 2-5 3-7 1-3 1-4 3-9 2-6h1l3 2-1 4-2 7c-1 6-3 10-6 16l-3 6 1 4 1 3-1 1-1 1-1-1zm-99-1 1-4 3-8 3-9 2-7c2-7 3-12 6-16l11-12c2-1 4-6 6-13l1-4 5-1-1 5-2 7-2 7-1 3-10 5-3 5-4 10-4 13-4 14-2 5h-5zm-19-13 1-3 3-12c3-16 5-24 9-30l3-5 2-6 2-7 1-4 4-1 1 1-1 2a92 92 0 0 0-3 9l-1 4-6 12-2 7a178 178 0 0 1-8 32c-1 2-4 3-5 1zm-52-3v-1l3-3 1 1 1 1-2 1-2 2zm-26-9v-1l2-3c3-3 7-4 7-2s-6 8-7 8l-2-2zm64-16 3-12 1-3 3-6 3-3 1-5 3-10 2-4-1-5v-5l2-3 1-2v-12l3-4 4-5 2-3c0-3 2-9 5-12a281 281 0 0 0 13-16l2-2 1 1 2 1-2 3-5 6-3 4-4 6-4 7-3 6-5 6-1 3 1 3 1 2-2 5-3 13v8l-2 3-3 6-3 8c-4 5-7 14-7 17v3l-4 2zm-48-5 6-6 1 2c0 3-5 7-7 4zm16 0 1-2 3-5 5-8 3-5h2l2 1-1 3-2 3-3 3-4 6-1 4h-5zm-26-6 1-1 2-5 2-4c1 0 4-4 5-10l4-10 2-5 2-5c2-3 4-4 5-2 1 1 0 4-2 7l-6 16-2 6-6 9-3 5h-1l-3-1zm-5-5c0-2 1-3 3-2 1 0 1 3-1 3l-2-1zm179-5-1-1 1-5 2-9 2-7 3-4 7-6 3-5 3-9c1-4 7-12 9-12h1v2l-7 15-2 6v4l-12 9-1 3-3 14-2 4-2 2zm34 0v-1l2-2 3-2 5-9c2-5 6-9 7-10l2-2h2l1 1-2 3-7 12-4 8-3 1-4 2-2-1zm-184-2 7-10 2-2 1 1h2l-2 3c-3 5-7 9-9 9l-1-1zm20-8v-2l2-1h2l-1 2v2l-3-1zm94 0c-1-2 1-10 3-13l1-5 2-3 1-2 3 3-2 7-7 14-1-1zm-102-11-1-2c0-2 3-5 6-5h2v5l-3 1-3 2zm64-5v-2l2-1 2-1 1 1 1 1-1 2-3 2h-2zm-55-5 1-4 4-4 3-1 2 2-3 4-5 4-2-1zm100-16c0-1 1-4 3-5l2-1 1 1 1 1-1 3-1 3h-4zm-87-3c0-2 5-6 6-5v5l-4 1h-2zm52 0-1-3v-1l5-1v2l-1 3-2 1zm-42-11v-1l2-4 5-4 2 1 1 1-3 4-4 5-3-2zm-11-1c-1-1 2-10 5-14l11-22a81 81 0 0 1 11-21l3-6 2-3 2-2 3 1-1 3-3 8-3 5-5 6-4 6-1 4c0 4-3 10-8 18l-5 9c-2 7-3 9-5 9l-2-1zm64-6h-1l1-3 2-3h4v2c-1 3-4 5-6 4zm87-5 1-2 2-1h2v6h-5zm-129-6v-2l7-1v1c0 2-4 5-6 5h-1zm10-10 1-4c0-2 6-5 8-5l1 2c0 2-6 9-8 9h-2zm16-6 1-2 1 1-1 2h-1zm50-4 4-8c3-4 6-6 7-4l-3 8-2 3c0 2-3 5-4 5h-2zm-54-7 1-5 1-2 2-1h2l1 5-1 2-3 2h-2zm87-6c-1-1 0-10 2-13l3-2h1v6l-2 8c-1 2-3 3-4 1zm-77-5-1-3v-2l8-8 4 1 1 2v2l-2 2-2 3-2 2c-2 2-5 3-6 1zm57 0 1-2 1 2-1 1-1-1zm4-7 1-4 1-3h3l2 1c0 2-3 6-5 6h-2zm-51-10 3-3 3-2c2 0 2 3 1 5-1 1-6 2-7 0zm79-8-1-1 2-13 2-3c3-5 11-20 11-24 1-5 3-7 4-6h1v6l-1 7-2 2-3 8-3 5-3 3-2 3-1 7-1 7-3-1zm-71-2 1-2 5-4 4-3 1 1 1 1-5 8h-3l-4-1zm-11-3c-1-1 0-4 2-8l3-7c0-2 4-7 6-7h2v2l-3 8-4 9-2 4h-2l-2-1zm23-11 1-1v2l-1-1zm7-7c-1-1 0-3 1-4l1-2h5v2c0 2-3 5-6 5l-1-1zm-18-8-1-1 2-4c1-3 3-5 4-5 2-1 5 0 5 1l-3 4-3 4c0 1-3 2-4 1zm25-6v-1l4-5h2l3 2c0 1-4 6-7 6l-2-2zm-14-6 5-7 3-2v3c0 4-3 7-6 7l-2-1zm25-6 5-7 5-5 3 2-3 4c-1 3-3 5-5 6l-3 2h-2zm53-2 2-4 3-10 3-6h3l-1 3-4 12-2 4-2 2-2-1zm-69-4-1-3c0-3 4-10 6-11l3-1 1 1-2 4-3 6-2 4h-2zm36-18-1-3 2-2h5c1 1 0 3-1 4-1 2-4 3-5 1zm-26-3 3-9 4-7 3-1h2v2l-4 7-3 7-2 1-2 1-1-1zm38-14-2-1 7-8-1-11 1-1 2-1h4l6 1 2 1c0 2-6 8-8 8h-2v8l-4 3-3 3-2-2zm10-15-1-1v1l1 2v-2zm13-15v-7l5-1h3l1 1-3 5c-2 3-5 4-6 2zm15-19c0-3 0-4 3-8l3-3 6 1-1 1c0 4-6 10-10 10l-1-1zm17-21c-1-1-1-3 1-5l4-2 3 2v1l-2 3c-2 2-5 3-6 1zm16-19-1-2c0-2 5-7 8-7h2v2c0 2-5 8-6 8l-3-1zm13-20-1-3c0-1 4-4 6-4l4 1v1l-3 3-4 3-2-1zm17-21c-2-1-1-4 1-6l4-2 3 2v1l-3 3-4 3-1-1zm13-20v-3l3-2 4-2 1 2c0 2-4 7-6 7h-2zm13-18c-1-1-1-4 1-6l4-2 3 2v1l-2 3c-2 3-5 4-6 2zm14-21c-1-2 2-8 4-8 5-2 6 2 1 6l-4 3-1-1zM17 359l-3-2 1-3c1-3 7-9 8-9 2 0 13-9 15-13l3-4h9l9-10h3l9-4 9-4 3-1 4-5 5-10 5-8 5-6a2210 2210 0 0 0 14-25c0-2 2-4 4-5 2 0 4-2 5-3 3-2 13-6 17-6l4-2c2-2 7-4 10-4s11 4 11 5l3 2 5 2 5 3 5 2 1-1 2-3 3-3h3l3-7 5-9 3-6 3-6 3-6 3-3 4-3 1-8 1-5 3-1 6-5c5-5 9-8 11-8 3 0 9-4 11-8l6-6 3-5 1-4 11-11 5-3 4-3h5l2 2c1 1 3 3 5 3l9 1h6l6 3 5 2h5l5-1 1 1v1l-9 3-3-1-7-2-4-2h-17l-6-3-6 2-10 6-4 6v3l-5 5-6 7c-1 2-7 6-13 8l-7 5-8 6-3 3v4l1 4-2 3-3 4-4 2-4 10-5 10-4 7a59 59 0 0 1-16 17l-8 8-9 7c-3 0-2-2 5-9l7-8-3-3c-6-1-13-5-17-8l-4-2-3 1-7 4-7 5-3 1-2 3c-1 3-3 5-5 6l-8 2h-6l-6 14c0 3-6 19-9 23l-3 5-3 2-4 2-4 5-3 6-2 2a67 67 0 0 0-14 19v2l-3 1-4 4-3 3h-1v-4l4-5 4-5 5-8c10-12 11-13 10-14l-6 4-10 6-6 5-7 7-2 1-3-1-2-1-3 4-2 5-2 2-3 7-2 5-2 1-3-1-4-1-4-1 2 2v3l-3-1zm82-64 3-7v-2l-2 1-3 6c-4 7-2 8 2 2zm29-39 4-5 2-3-2-1c-1 0-5 2-9 6l-3 2 1 1 2 1 5-1zm483 97-1-1 2-3 4-2h2v2l-3 4-3 2-1-2zm10-14c-1-1 2-7 3-7h3l1 1v1l-2 2-1 2c-1 2-3 3-4 1zM357 211l2-2h3l3-4 3-4 6-3 5-4 2-2 1-3h5l10-4 6-3 7-7c8-8 13-14 15-19l6-6 6-3 7-3 7-3 2-3 6-7 3-3 3-1c2 0 5-1 6-3l5-2 2-1 3-8 3-10c0-3 4-8 9-12l5-4h5v-3l2-2 11 2v3h-2l-3 1v1h2c3 0 15 5 20 8l5 3 2 4 1 3 3 2 4 2h9l2 3 1 2-1 1-1 1-3-2-5-2c-4 0-8-2-9-4l-2-2-3-3-1-2-6-4-13-5-9-4-2-2-3 2-6 4-3 3-3 4-2 6-3 7-2 6-5 5-10 7c-3 1-6 3-7 5-4 5-12 11-18 13l-9 5-7 9-8 10-6 6-15 9-5 3h-8l-1 3-3 3c-2 0-5 3-9 6-3 4-7 7-8 7h-7zm-62-14v-11l1-8h-1l-3 2-6 3-3 1-2-1-2-1-2 1-3 3c-2 2-3 4-3 8l-3 4-3 1v-1l1-3 2-5c0-3 4-8 7-9l3-2-2-5-1-2 1-1 3 1 3 4 1 3h2l6-3 3-2h5l14 4 3 2 5 3 6 4 4 2-3 2h-3l-6-4-6-4-4-2-6-3h-4l-1 4v9l2 6v3h-4zm60-17-4-2-4-2-2-2 2-2 1-2-2-3-2-3v-9h-7v-4l3-1 4 1 7 2 10-2 9-1c4 0 6-2 6-4l-2-2-5-5-2-3h-14l-1-2v-2h-6l-9 1-4 2-4-1-7-2-4-2h-2l-6 3-5 3h-6l-7-1v-2l1-1h11l11-6h4l10 2 6 1 4-1 9-1h5l1 2 1 1h4l9 2 5 2 1 3 4 5 2 3v4l-1 3 3 4 7 8 4 5h-4l-3-2-8-9-5-7c-2 0-2 2 0 5l2 6v2l-3 1-1-4-3-5-1-1-8 1-10 2-2 1v2l3 5 2 5-1 2 5 3 5 3v1l-1 2-5-2zm74-43 3-5 3-5c0-2 3-6 5-6l3 1v1l-3 3-3 5c0 2-4 8-6 8h-2zm20-27 1-4c2-3 8-7 10-6l2 2v2l-4 2-5 4c0 1-4 2-4 0zm21-19c-2-1-1-5 3-10l4-5 2 1 2 2-10 13-1-1zm104-9-7-1-3-3c0-1-3-3-6-3l-6-2-5 1-9 2-6 1-2-1-2 2-6 3h-4v-1l2-3 6-2 7-2 6-1 9-2 7-1 4 2 8 4 4 4h9l9 1v2h-15zm-107-8h2l-1 1-1-1zm14-4-1-3 11-3 2 1v2c0 2-6 5-9 5h-3zm28 1 3-5c3-2 5-6 6-8l1-4c0-2-3-1-9 3l-6 4-1-1c-2-2 0-4 6-8l16-11 5-5 5-6 2-5 5-3 4-4c0-2 3-4 6-4l3 2 1 1-2 3c-2 4-6 6-8 6s-5 4-7 8l-1 5-8 4-5 10-5 11-4 4c-4 4-6 5-7 3zm12-21-1 1 1 1v-2zm136-15-14-5-6-3v-3l-3-7-2-4-6-3-12-5-3-1-1-2V0h2l6 2 10 4 5 1 2 3 3 3 7-1h14l6-1 1 1 1 2-2 1-21 1h-5l1 3 1 4c1 3 7 6 15 8l8 2 1 2v2l-1 1zm17-19-4-4v-1h3l11 3 1 1-2 2-3 1-6-2z"/>
</svg>
