<?xml version="1.0" encoding="utf-8"?>
<svg xmlns="http://www.w3.org/2000/svg" version="1.1" viewBox="0 0 545 595">
	<title>Sketch of a knife with a oval wooden handle and curved blade ending in a point.</title>
	<path d="m54.639 592.89c-1.4025-1.5481-1.9401-3.735-2.0293-8.2553-0.13101-6.6356-3.7674-34.484-5.4072-41.409-1.4918-6.3003-3.251-31.333-3.0181-42.945 0.23503-11.719 1.1298-10.754-11.455-12.348-8.6854-1.1002-8.4906-0.97829-20.2-12.64-3.8162-3.8006-6.4193-7.3238-6.8463-9.266-0.37889-1.7235-1.4046-4.567-2.2793-6.3188-2.4672-4.9412-3.5632-10.707-3.3854-17.808 0.089538-3.5773 0.15975-9.431 0.15592-13.008-0.004006-3.5773 0.63491-8.3053 1.4194-10.507 0.78451-2.2014 1.9096-7.2553 2.5002-11.231 0.91805-6.1797 2.0241-8.7926 7.6243-18.011 3.6028-5.9307 8.5642-13.26 11.025-16.287 2.4612-3.0269 5.3294-7.0942 6.3739-9.0383 1.0444-1.9441 3.0666-4.1591 4.4936-4.9221 1.4271-0.76304 2.5946-2.1946 2.5946-3.1811s2.0281-3.8787 4.507-6.4269c2.4788-2.5482 4.507-4.9848 4.507-5.4147 0-0.42986 2.3662-3.705 5.2581-7.2781 2.892-3.5731 7.2862-9.3334 9.7651-12.801 2.4788-3.4672 4.9677-6.7925 5.5309-7.3894 0.56318-0.59694 3.9199-4.6876 7.4593-9.0904 5.0063-6.2275 19.992-23.454 23.067-26.517 0.27631-0.27517 1.1568-1.7678 1.9567-3.3169 0.79986-1.5491 2.6019-4.0418 4.0046-5.5393 1.4026-1.4975 6.1058-6.732 10.451-11.632 8.4888-9.5721 9.4391-10.589 24.792-26.541 5.5617-5.7787 12.515-13.494 15.452-17.146 2.9366-3.6516 8.92-10.275 13.296-14.718 4.3764-4.4436 10.315-10.787 13.196-14.097 2.8812-3.3096 6.0344-6.2698 7.0071-6.5782 0.97271-0.30844 3.4169-2.6747 5.4316-5.2583 3.2103-4.1168 3.5844-5.1629 3.0263-8.4629-0.55571-3.2862-0.25314-4.1487 2.3773-6.7767 5.1357-5.1311 11.383-3.2513 13.728 4.1308 0.34487 1.0856 1.0006 1.8365 1.4572 1.6686 0.45658-0.16788 3.399-3.4572 6.5386-7.3097 7.7668-9.5301 16.261-18.278 35.098-36.145 17.131-16.249 25.164-23.393 26.305-23.393 0.39332 0 3.0089-2.2206 5.8125-4.9348 2.8035-2.7141 6.8906-6.2038 9.0823-7.7549 2.1918-1.5511 6.5276-4.743 9.6352-7.0931 3.1076-2.3501 7.6579-5.5021 10.112-7.0045 7.2933-4.4652 24.959-16.404 27.118-18.327 1.1017-0.98122 9.4396-5.4211 18.529-9.8663 9.089-4.4452 17.652-8.7382 19.029-9.5399 5.8404-3.4 17.502-8.5264 19.397-8.5264 0.76483 0 1.9517-0.67543 2.6374-1.501 0.68575-0.82552 2.0029-1.501 2.927-1.501 0.92409 0 2.1083-0.42212 2.6316-0.93804 1.6921-1.6682 16.557-7.1998 18.296-6.808 1.8918 0.42638-2.1049 2.3705-13.156 6.3995-6.418 2.3399-17.813 7.8836-29.227 14.219-2.7542 1.5288-10.416 5.6128-17.026 9.0754-11.895 6.2311-19.519 11.49-13.264 9.1487 1.5186-0.56832 4.1403-1.7459 5.8261-2.6169 1.6858-0.87096 3.8235-1.3979 4.7505-1.1711 1.0755 0.26323-0.21738 1.2387-3.5726 2.6954-2.892 1.2556-5.2581 2.6732-5.2581 3.1502 0 0.47698-0.47318 0.86723-1.0515 0.86723-2.5667 0-32.951 21.221-47.023 32.842-3.5805 2.9568-7.2016 5.8954-8.0468 6.5302-2.5704 1.9303-13.35 11.031-15.59 13.162-1.1571 1.1007-3.4106 3.0113-5.0077 4.2457-1.5971 1.2345-9.8896 9.1327-18.428 17.552s-17.792 17.315-20.563 19.77c-2.7717 2.4543-7.2786 7.3141-10.015 10.799-9.7922 12.47-15.759 19.691-16.868 20.415-2.5669 1.6732-4.633 0.79187-4.6555-1.986l-0.0222-2.7518-2.0093 2.5016c-4.5684 5.6876-4.4986 5.8632 2.0928 5.2661 5.4671-0.49529 6.6753-0.21611 13.254 3.0626 3.9812 1.9842 8.9538 5.1996 11.05 7.1455 3.1427 2.9171 4.5712 3.5379 8.1406 3.5379 3.087 0 4.7233-0.54107 5.7032-1.8859 1.0615-1.4568 2.2276-1.7735 5.1258-1.3919l3.7517 0.49394-0.48153 5.6447c-0.34182 4.0071-0.22433 4.919 0.40502 3.1431 0.48759-1.3759 0.93146-4.3292 0.98636-6.563s0.7034-4.8861 1.4411-5.894c2.3361-3.1919 2.5213 0.28983 0.52531 9.8761-1.0222 4.9095-1.6914 9.0933-1.4872 9.2974 0.81874 0.818 3.7088-8.2218 4.9939-15.62 1.4406-8.2944 2.1188-10.108 3.7793-10.108 0.62362 0 0.75404 1.219 0.33457 3.1271-0.46869 2.132-0.34318 2.9145 0.3944 2.4591 1.202-0.74223 2.997-4.5639 5.6788-12.09 1.3638-3.8277 6.9215-13.412 10.068-17.361 0.1535-0.1927 0.78913-0.0354 1.4125 0.3495 0.81255 0.50173 0.72503 1.1675-0.30917 2.3516-2.4886 2.8495-9.7344 16.799-9.0705 17.462 0.74089 0.74022 2.3931-1.2674 8.8941-10.807 2.6253-3.8524 6.2877-8.6943 8.1386-10.76s3.3661-4.0917 3.3671-4.5029c4e-3 -1.4971 10.822-12.734 11.567-12.014 0.42134 0.40785-1.5585 3.4117-4.3996 6.6753-2.8412 3.2636-5.1657 6.2352-5.1657 6.6036 0 0.36845-1.9585 2.9932-4.3523 5.8327-7.5494 8.9552-17.979 25.725-15.949 25.646 0.42433-0.0166 3.0212-3.5063 5.7708-7.7549 5.7526-8.8887 16.647-23.592 25.001-33.741 4.3196-5.2481 5.3621-7.0856 4.1577-7.328-0.88417-0.17795-1.6076-0.92922-1.6076-1.6695 0-1.899 17.099-17.519 19.178-17.519 1.0147 0 1.8462-0.91705 2.0355-2.245 0.21847-1.5325 1.1822-2.4058 3.0368-2.7518 2.506-0.46745 17.075-13.393 31.306-27.774 2.8591-2.8893 5.5665-5.2533 6.0164-5.2533s2.6672-1.506 4.9273-3.3467c2.2601-1.8407 5.2361-3.9232 6.6132-4.6279 1.3771-0.70468 3.4052-2.0688 4.507-3.0313 1.1017-0.96255 4.1072-2.9032 6.6788-4.3125 2.5716-1.4093 6.5828-3.9427 8.9138-5.6296 2.3309-1.687 4.6034-3.0673 5.0499-3.0673 0.83116 0 23.62-12.543 25.429-13.996 4.695-3.7715 42.184-21.026 45.683-21.026 0.59034 0 2.2106-0.8938 3.6007-1.9862 1.39-1.0924 3.94-2.425 5.6665-2.9613 1.7265-0.53629 7.3793-2.4988 12.562-4.3611 10.296-3.6999 10.697-5.3135 1.0401-4.1938-6.5151 0.75548-7.9412-0.44273-2.9737-2.4985 1.7193-0.71149 4.5822-0.97278 6.7604-0.61699 9.345 1.5264 15.296 1.5922 15.296 0.16914 0-0.76777 0.54058-1.576 1.2013-1.796 0.75139-0.25023 0.56384-0.64445-0.50077-1.0526-1.1435-0.43841-1.7021-0.15143-1.7021 0.87453 0 1.1777-0.97374 1.4567-4.2566 1.2194-3.4085-0.2464-4.1979-0.65658-3.9623-2.0588 0.25326-1.507-0.54955-1.7511-5.7589-1.7511-3.4262 0-6.0532 0.44064-6.0532 1.0153 0 1.9776-6.2185 4.7536-12.15 5.4241-7.1718 0.81066-8.8821 1.3837-8.8821 2.9758 0 0.65783-4.1689 2.4303-9.2643 3.9388-13.213 3.9118-13.771 4.025-13.771 2.7918 0-0.60402 1.1082-1.3761 2.4628-1.7158s2.9872-1.2488 3.628-2.0203c0.64089-0.77153 1.9632-1.4028 2.9386-1.4028s2.0327-0.67543 2.3498-1.501c0.31707-0.82553 1.0679-1.501 1.6686-1.501 0.60065 0 0.78677 0.49357 0.4136 1.0968-0.42471 0.68658 0.0214 0.94505 1.1928 0.69105 1.0292-0.22318 1.7586-0.9419 1.6209-1.5971-0.13772-0.65526 0.76367-1.2117 2.0031-1.2365 1.2394-0.02482 3.559-0.602 5.1547-1.2826 2.7175-1.1591 2.7946-1.344 1.2181-2.9191-1.337-1.3358-2.2346-1.4722-4.3645-0.66316-1.4747 0.56017-3.6718 0.77012-4.8824 0.46655-2.4988-0.62659-19.1 2.5734-25.011 4.8208-6.064 2.3059-18.76 4.615-17.288 3.1443 0.50197-0.50152 15.921-5.4719 26.527-8.5511 20.989-6.0937 56.944-7.4476 76.986-2.8988 2.7542 0.62511 6.2181 1.0837 7.6975 1.0192 3.0595-0.13352 5.8234 3.0138 5.8234 6.6314 0 2.6358 0.84826 2.4757-14.022 2.6468-9.8738 0.11359-13.09 0.6013-22.535 3.4169-6.0594 1.8064-13.27 4.3722-16.025 5.7018-2.7542 1.3296-7.2612 3.2962-10.015 4.3704-19.687 7.6779-21.167 8.3763-36.056 17.011-3.856 2.2362-9.9154 5.4717-13.466 7.19-3.5501 1.7183-8.2824 4.3436-10.516 5.834-2.2338 1.4904-4.9629 3.2363-6.0646 3.8798-9.8052 5.7273-12.281 7.3107-14.022 8.968-1.1017 1.0489-6.606 4.4877-12.232 7.6417-5.6258 3.154-10.504 6.1789-10.839 6.722-0.61532 0.9947-9.7003 8.1089-14.064 11.013-6.9405 4.6192-48.991 45.19-56.008 54.037-2.2034 2.778-6.1102 7.466-8.6818 10.418-4.8064 5.5168-11.185 14.925-13.199 19.469-0.62601 1.4122-2.1784 3.6934-3.4498 5.0693s-3.9489 5.2033-5.9499 8.5054c-2.0011 3.3021-4.4936 7.1295-5.5389 8.5054-3.3524 4.4125-8.751 13.404-8.751 14.576 0 0.62393-1.4026 3.0688-3.1168 5.4332-4.3268 5.9676-5.8961 10.15-5.9029 15.732-0.0114 9.3799-1.8643 16.651-6.574 25.799-2.5503 4.9532-5.944 10.668-7.5416 12.699-1.5976 2.0315-2.9048 3.9162-2.9048 4.1881s-2.9244 5.1389-6.4986 10.816c-3.5742 5.6766-6.5038 10.89-6.51 11.585-6e-3 0.69502-2.9554 5.6482-6.5536 11.007-8.7052 12.965-7.9495 11.812-12.945 19.75-2.4245 3.8525-5.9214 9.0308-7.7709 11.507-1.8495 2.4766-4.9705 6.9794-6.9356 10.006-13.03 20.071-25.381 37.745-27.969 40.025-0.74572 0.65694-13.911 17.79-19.826 25.803-2.5543 3.4596-7.5737 9.7756-11.154 14.036-3.5805 4.2599-7.8621 9.4854-9.5147 11.612-1.6526 2.1268-5.2581 6.1993-8.0124 9.0499-29.893 30.938-31.695 32.388-41.861 33.663-7.7938 0.97775-9.22 1.5625-7.8972 3.2377 0.50453 0.63894 1.1828 8.8166 1.5073 18.173 0.32448 9.356 1.0451 19.487 1.6014 22.514 0.55627 3.0269 1.9636 12.258 3.1275 20.513 1.1639 8.2553 2.5882 17.311 3.1651 20.124 1.3306 6.4877-0.87251 13.84-5.6699 18.922-2.6808 2.84-4.0187 3.4806-7.2687 3.4806-2.7771 0-4.5608-0.63767-5.891-2.106zm8.8557-3.6477c0.85769-0.96312 2.1039-5.165 2.7693-9.3376 1.2482-7.8267 1.2039-8.5174-2.4319-37.942-2.2211-17.976-3.7371-45.112-2.7163-48.623l0.89944-3.0941-5.1429 0.41771c-8.4972 0.69016-7.9317-0.68554-7.4166 18.041 0.25513 9.2756 1.189 20.543 2.0932 25.253 0.89788 4.678 2.1502 13.459 2.783 19.512 0.63277 6.0538 2.0309 13.709 3.1069 17.011 1.4933 4.5827 1.812 7.4944 1.3463 12.301-0.33561 3.4635-0.3437 6.7281-0.01803 7.2546 0.91868 1.4851 3.011 1.1338 4.7276-0.79376zm14.76-107.07c-9e-3 -0.41276-2.3447-1.8762-5.1915-3.2521-2.8468-1.3759-6.4453-3.5548-7.9968-4.842-2.6179-2.172-2.8209-2.2036-2.8209-0.43834 0 2.2298 4.578 5.8576 9.8222 7.7835 4.2877 1.5746 6.209 1.8072 6.187 0.74885zm4.6866-6.0038c0.38666-1.5135 0.64927-3.5309 0.58358-4.4832-0.13922-2.0182 1.6821-3.5256 1.9087-1.5797 0.08393 0.72042 0.25727 1.7601 0.38524 2.3105 0.12799 0.55035 0.28469 1.6386 0.34823 2.4182 0.23439 2.8761 1.2865 0.10801 2.0247-5.327 0.86744-6.3864-0.10927-7.1395-3.9551-3.0495-1.3173 1.4009-4.3246 3.7649-6.6828 5.2533-2.3583 1.4884-4.2886 3.044-4.2896 3.4567-4e-3 1.4827 4.3124 0.71352 5.6148-1.0006 1.1939-1.5713 1.3338-1.4171 1.3624 1.501 0.03886 3.9651 1.7343 4.2793 2.6998 0.50032zm-39.347-9.0057c-0.31237-5.9163-0.63791-13.513-0.72343-16.881-0.16609-6.5423-0.66271-7.2142-10.997-14.878-1.476-1.0946-4.1175-4.0214-5.8701-6.5042-1.7526-2.4827-4.4568-5.9942-6.0094-7.8033-1.5525-1.8091-3.4749-4.8486-4.2719-6.7543-1.8255-4.3651-3.602-4.4765-3.3962-0.2129 0.08633 1.7886-0.58999 5.9358-1.5029 9.216-1.4876 5.345-2.2582 12.92-0.99657 9.7961 0.27784-0.68793 1.1437-1.2508 1.924-1.2508 1.098 0 1.4189 1.6972 1.4189 7.5048 0 4.1276 0.39081 7.5048 0.86847 7.5048s0.782-2.4651 0.67631-5.4781c-0.21497-6.1286 0.83818-8.9968 2.4077-6.5572 0.52134 0.81031 0.71527 4.0854 0.43094 7.278-0.38718 4.3474 0.01392 7.3374 1.5979 11.91 1.1631 3.358 1.8901 6.3299 1.6153 6.6044-1.0348 1.0338-3.5905-0.75934-3.5905-2.5192 0-2.8646-2.3304-7.0875-4.1776-7.5701-1.7904-0.46779-3.82-6.3219-3.8292-11.045-0.00501-2.4412-0.23194-2.6866-1.5079-1.6286-1.769 1.4668-1.9974 4.0026-0.36066 4.0026 0.78776 0 0.96192 1.74 0.56184 5.6129-0.46795 4.5299-0.13891 6.6054 1.7053 10.757 5.4466 12.261 16.201 19.305 29.865 19.564l4.7296 0.0895zm-17.404 4.1693c0-0.87139 0.5352-1.4061 1.1893-1.1883 1.8571 0.61847 2.1651 2.7726 0.39644 2.7726-0.87218 0-1.5858-0.71295-1.5858-1.5843zm-12.007-6.399c-1.517-2.8319-0.45372-3.8942 1.722-1.7204 1.2394 1.2383 1.3903 1.9798 0.56971 2.7996-0.8206 0.81986-1.4275 0.53404-2.2917-1.0792zm10.672-1.6895c-1.1524-1.1514-0.72937-2.3348 0.83462-2.3348 0.82628 0 1.5023 0.67543 1.5023 1.501 0 1.5626-1.1845 1.9852-2.3369 0.83386zm-10.5-4.5529c-1.3853-1.384-1.593-4.7864-0.29219-4.7864 0.90135 0 2.5217 4.9271 1.8433 5.6049-0.20124 0.20107-0.89922-0.16726-1.5511-0.81852zm-1.1852-32.304c0-0.82552 0.67604-1.501 1.5023-1.501s1.5023 0.67543 1.5023 1.501c0 0.82553-0.67604 1.501-1.5023 1.501s-1.5023-0.67543-1.5023-1.501zm53.189 39.177c5.9544-3.6074 6.2341-3.9388 4.4347-5.2534-1.0563-0.77167-2.7512-1.403-3.7664-1.403-2.6576 0-15.762-7.27-15.782-8.7556-0.02524-1.8605 1.5798-1.5322 5.9333 1.2136 3.5762 2.2555 14.699 6.5413 16.976 6.5413 2.1223 0 11.043-9.3404 12.575-13.168 2.0924-5.2248 1.482-5.9326-1.0258-1.1896-1.0592 2.0032-3.1748 4.5721-4.7014 5.7087-2.3879 1.7779-3.2025 1.9056-5.8319 0.91399-1.6809-0.63391-3.7544-0.88491-4.6077-0.55779-1.2769 0.48955-1.1337 0.90957 0.80919 2.3738 1.2983 0.97843 2.106 2.0334 1.7947 2.3443-1.0595 1.0586-10.626-2.4136-14.266-5.1782-4.6653-3.5427-10.598-7.258-11.59-7.258-0.42532 0-0.42094 2.1389 0.01002 4.753 0.43068 2.6142 0.80993 10.006 0.84277 16.427 0.04116 8.0409 0.42789 11.797 1.2428 12.068 0.65068 0.2167 3.3012-0.98407 5.8901-2.6684 2.5888-1.6843 7.5669-4.795 11.062-6.9127zm27.465-0.90273c0.48579-3.984 0.35804-5.7537-0.41537-5.7537-0.61432 0-1.1457 1.4634-1.1809 3.2521-0.03515 1.7886-0.21133 4.7564-0.39148 6.5951-0.55934 5.7087 1.2458 1.9913 1.9877-4.0935zm-21.579 4.0026c-0.01242-1.8206-0.20113-1.9642-0.98621-0.75048-1.2549 1.94-1.2549 3.0019 0 3.0019 0.55085 0 0.99464-1.0132 0.98621-2.2514zm26.556-5.7537c0-0.7338-0.56337-1.5218-1.2519-1.7511-0.74474-0.24801-1.2519 0.46141-1.2519 1.7511s0.50719 1.9991 1.2519 1.7511c0.68856-0.22931 1.2519-1.0173 1.2519-1.7511zm2.1964-4.734c-0.25393-0.97359-0.4784-0.41929-0.49881 1.2318-0.0204 1.651 0.18735 2.4476 0.4617 1.7702 0.27434-0.67747 0.29104-2.0283 0.0371-3.0019zm-12.373-3.2183c0.31062-1.5517 0.87007-4.112 1.2432-5.6897 0.52402-2.2155 0.40331-2.6116-0.53023-1.74-0.66479 0.62065-1.5724 2.6469-2.017 4.5029-0.44455 1.8559-1.1357 4.1675-1.536 5.1369-0.54275 1.3145-0.34608 1.6162 0.77372 1.1868 0.82579-0.3166 1.7556-1.8452 2.0662-3.3968zm19.658-4.9609-0.0333-4.5979-1.9698 2.3623c-1.2442 1.4921-1.9698 3.853-1.9698 6.4091 0 3.9834 0.0313 4.0184 2.0031 2.2357 1.4622-1.3221 1.9941-3.0527 1.9698-6.4091zm-14.125-0.46656c0.60632-2.4057 1.3841-5.1074 1.7284-6.0038 0.34428-0.89638 0.20936-1.6298-0.29982-1.6298s-1.6841 2.4036-2.611 5.3413c-1.94 6.1487-2.0023 6.6664-0.80257 6.6664 0.48545 0 1.3787-1.9683 1.985-4.374zm18.491 0.62165c0.2444-0.41277 0.76588-2.7768 1.1589-5.2534 0.63044-3.973 0.54096-4.3262-0.76044-3.0019-1.6709 1.7004-3.068 9.0057-1.7223 9.0057 0.48372 0 1.0794-0.33771 1.3238-0.75047zm-44.313-2.4032c0.97077-1.8122 0.90732-2.0587-0.40083-1.5572-0.85477 0.32771-1.7353 0.0582-1.9567-0.59875-0.3083-0.91475-0.75561-0.90361-1.9096 0.0475-0.82883 0.68317-1.8035 0.94584-2.166 0.58371-0.36245-0.36213-0.65901-0.20188-0.65901 0.35609 0 0.92167 3.4786 3.0889 5.2229 3.2539 0.39375 0.0372 1.2349-0.90112 1.8692-2.0853zm45.827-18.556c-1.0588-1.2747-1.3461-1.167-2.0648 0.77396-1.1282 3.0472-5.7618 7.647-5.8554 5.8127-0.0389-0.76298-0.99323 0.63905-2.1207 3.1156l-2.05 4.5029-1.0365-2.9589-1.0365-2.9589-1.3346 4.4598c-0.734 2.4529-1.3414 5.1305-1.3498 5.9502-8e-3 0.81968 4.0558-2.7188 9.0314-7.8632 7.5393-7.7951 8.8417-9.6002 7.8167-10.834zm-33.104 14.131c3.2412-7.3763 3.7379-7.9393 6.7838-7.6902 2.4496 0.20033 3.5153-0.51689 6.3186-4.2527 1.8546-2.4715 4.1817-4.4937 5.1714-4.4937 1.6259 0 11.552-10.707 12.702-13.702 0.26016-0.67735 1.3097-1.4969 2.3324-1.8212 1.0226-0.32428 2.161-1.5797 2.5298-2.7898 0.95423-3.1314 3.4031-5.6531 4.9238-5.0701 0.71357 0.27358 2.812-1.3875 4.6632-3.6913 1.8512-2.3038 5.732-6.6601 8.624-9.6807 2.892-3.0206 5.2581-6.1179 5.2581-6.8828 0-0.76497 0.37429-1.3909 0.83176-1.3909s2.3548-2.1389 4.2164-4.753c1.8615-2.6142 3.7357-4.9015 4.1649-5.0829 0.42918-0.18143 4.7992-5.3597 9.7112-11.507 18.265-22.859 20.205-25.22 21.939-26.687 0.9751-0.82553 3.5044-4.3555 5.6206-7.8444 2.1162-3.4889 5.368-8.3334 7.2262-10.766 1.8582-2.4321 3.3785-5.1516 3.3785-6.0432s1.4648-3.2937 3.255-5.338c5.5815-6.3733 6.6844-7.9156 8.1266-11.364 0.76998-1.8411 1.0642-3.9837 0.65392-4.7613-1.0143-1.9221 1.6295-7.9179 3.4913-7.9179 0.82469 0 1.4994 0.45029 1.4994 1.0006s0.70641 1.0006 1.5698 1.0006c1.0975 0 1.3844-0.58369 0.95354-1.9399-0.58872-1.8532 3.7663-12.069 5.1451-12.069 0.34312 0 1.1626 0.73612 1.8211 1.6358 1.0572 1.4445 1.4358 1.2396 3.237-1.7511 2.3128-3.8401 9.063-17.15 12.121-23.9 1.7403-3.8415 1.9377-5.6328 1.3444-12.196-0.73756-8.158-1.5516-10.29-2.6313-6.8914-0.89437 2.8154-2.3541 2.6164-3.1181-0.42491-0.34563-1.3759-0.96015-2.5016-1.3656-2.5016-0.40544 0-3.2965-2.4766-6.4245-5.5035-3.128-3.0269-6.5784-5.5035-7.6674-5.5035-1.0923 0-1.98-0.67291-1.98-1.501 0-1.9436 3.2856-1.9246 7.09 0.0409 1.6414 0.84801 3.3093 1.3412 3.7066 1.0959 1.2114-0.74801 5.8817 3.6569 7.8125 7.3686 1.4017 2.6945 1.9104 3.087 2.2056 1.7019 0.21103-0.99017-0.32967-2.888-1.2016-4.2175-2.002-3.0528-2.0131-4.4889-0.0346-4.4889 0.85287 0 2.1873 1.4634 2.9654 3.2521s1.4324 2.5269 1.454 1.6406c0.0215-0.88632-0.99669-3.1378-2.2628-5.0032-1.2661-1.8654-2.6707-4.2923-3.1212-5.393-0.52421-1.2806-0.98764-1.5508-1.2869-0.75048-0.7118 1.9039-1.575 1.5595-5.8133-2.3191-2.6837-2.4559-3.5228-3.8035-2.6889-4.3184 0.86714-0.53544 0.52666-1.3918-1.1963-3.009-2.0637-1.937-2.6975-2.0801-4.4285-1-1.5851 0.989-2.8678 1.0067-5.9563 0.0823-5.4432-1.6293-17.605-0.0636-21.426 2.7582-1.5628 1.1544-4.2563 2.3815-5.9856 2.7271-2.008 0.40124-4.8162 2.4446-7.7712 5.6548-2.5448 2.7646-5.6342 6.0874-6.8654 7.3841l-2.2385 2.3576 2.7392 0.99081c1.5066 0.54495 3.6406 1.4144 4.7423 1.9322s4.3418 1.677 7.2001 2.5762c6.692 2.105 9.2249 3.9055 7.6878 5.4647-0.85743 0.86971-1.8421 0.79293-4.0062-0.31244-1.5781-0.80608-4.4468-1.8003-6.3747-2.2093-1.928-0.40906-5.53-1.8142-8.0044-3.1224-5.056-2.6732-7.0188-2.98-7.0188-1.0971 0 0.70491 1.8825 1.9432 4.1834 2.7518 2.3009 0.80857 4.3666 2.033 4.5904 2.7209 0.57736 1.7744-4.9098 1.611-7.3305-0.21834-1.0693-0.80801-2.6864-1.4834-3.5937-1.501-2.5568-0.0493-28.5 25.9-52.57 52.584-10.133 11.234-24.402 28.359-24.402 29.288 0 0.43173-4.1098 5.4824-9.1329 11.224-11.245 12.853-24.707 30.428-31.628 41.292-2.8635 4.4946-8.6099 12.982-12.77 18.861-4.1598 5.8789-7.5634 11.599-7.5634 12.711s-0.52861 3.1813-1.1747 4.598c-0.8708 1.9095-0.88293 2.8673-0.04687 3.7026 0.69348 0.69286 0.79531 1.7475 0.2644 2.7386-0.47487 0.8865-0.49725 3.6124-0.04968 6.0575 0.44753 2.4452 0.57311 6.0411 0.27907 7.9911-0.44066 2.9223-0.30047 3.3256 0.79768 2.2946 2.4384-2.2892 3.9345-1.4918 3.2853 1.7511-0.44677 2.2318-0.2282 3.0019 0.852 3.0019 0.79911 0 2.4056 1.0131 3.57 2.2514 2.045 2.1749 2.2383 2.5853 2.2383 4.753 0 0.55035 1.0954 1.0006 2.4342 1.0006 2.8475 0 3.6902-2.8993 2.1149-7.2759-0.71414-1.984-0.64841-3.3325 0.23103-4.7394 0.67604-1.0815 1.2292-2.7919 1.2292-3.8008 0-2.9653 4.5306-6.2122 8.248-5.911 3.8895 0.31514 4.5498 2.246 2.3691 6.9282-0.84318 1.8104-1.4794 4.7834-1.4139 6.6067 0.09094 2.5301-0.62882 3.9976-3.0397 6.1976-5.4408 4.9649-3.8335 9.8234 5.1296 15.506 2.4977 1.5834 2.9553 1.6076 4.507 0.23847 2.4915-2.1985 10.262-3.3251 11.305-1.639 0.61943 1.0014 1.3343 0.66438 2.9534-1.3921 2.0074-2.5496 4.8752-3.5005 6.2911-2.0858 0.34539 0.34507-0.03015 2.2012-0.83462 4.1248-0.80443 1.9235-1.4626 3.9302-1.4626 4.4592 0 1.9307 2.5384 0.0682 3.7905-2.7811zm2.2188-14.313c0-1.4184 2.8283-3.3514 3.9186-2.6782 1.5627 0.96488 0.08874 3.5563-2.0226 3.5563-1.0428 0-1.8959-0.39515-1.8959-0.87812zm10.015-9.5934c0-0.80617 0.92533-1.9605 2.0563-2.5652 1.131-0.60472 3.6236-3.5474 5.5393-6.5394 2.2238-3.4731 4.1747-5.4398 5.3962-5.4398 3.4189 0 3.1349 1.7609-1.0774 6.679-7.0609 8.244-11.914 11.448-11.914 7.8654zm-30.046-3.8827c0-1.811 3.262-4.658 5.337-4.658 2.2137 0 2.1311 2.2783-0.15772 4.3478-2.2077 1.9962-5.1793 2.1741-5.1793 0.31017zm14.616-12.512c-0.88595-1.4322 5.4452-9.1565 7.505-9.1565 2.9753 0 2.3198 3.2194-1.3863 6.8082-3.3238 3.2187-5.1474 3.9185-6.1187 2.3483zm35.477-4.4035c0.0215-3.1576 1.5084-5.1509 3.3234-4.4551 1.2819 0.49146 1.3455 1.0985 0.38228 3.648-1.3463 3.5635-3.728 4.0822-3.7056 0.80704zm-76.761-2.222c-0.31086-0.80935 0.37932-2.6712 1.5337-4.1375 1.2045-1.5299 2.0989-4.1288 2.0989-6.099 0-3.9525 1.2473-6.7652 4.5701-10.306 1.2912-1.3759 3.9755-4.3899 5.965-6.6978 2.2627-2.6247 4.1689-3.9847 5.0902-3.6316 1.797 0.68895 0.62334 2.7007-6.9983 11.996-4.3592 5.3163-5.0236 6.6996-4.8063 10.006 0.20444 3.1101-0.3331 4.4535-2.8366 7.0893-3.5069 3.6923-3.8342 3.8185-4.6169 1.7805zm59.18-8.7735c-0.29173-0.75952 3.6796-5.5853 9.2995-11.3 5.3948-5.4861 11.508-11.888 13.584-14.227 4.0559-4.5682 5.6966-5.2881 5.7009-2.5016 3e-3 1.89 4.6823-2.9221 12.163-12.508 2.3582-3.0218 4.8994-5.2533 5.9824-5.2533 1.0355 0 1.895-0.33772 1.9099-0.75048s2.0389-3.0019 4.4977-5.7537c2.4588-2.7518 4.4748-5.3409 4.4799-5.7537 5e-3 -0.41276 0.68527-0.75048 1.5116-0.75048 0.82627 0 1.5023 0.47315 1.5023 1.0514 0 2.0216-12.403 17.018-14.513 17.547-1.1707 0.29356-3.0039 1.7397-4.0738 3.2136-4.7886 6.5972-20.22 22.803-20.985 22.039-0.74794-0.74727 1.2807-4.9817 2.8853-6.0227 0.59015-0.38283 0.79558-0.97323 0.45651-1.312-0.33907-0.33875-2.7862 2.2012-5.4381 5.6444-9.4875 12.319-17.817 19.626-18.964 16.638zm28.081-24.777c0.34045-0.55035 0.1417-1.0006-0.44166-1.0006s-1.0607 0.45029-1.0607 1.0006 0.19875 1.0006 0.44166 1.0006c0.24292 0 0.72022-0.45028 1.0607-1.0006zm-0.50077 21.573c0-0.79304 0.35954-1.6639 0.79898-1.9352 1.2813-0.79115 3.5306 1.0441 2.7756 2.2646-0.99373 1.6064-3.5746 1.3686-3.5746-0.32939zm-47.073-3.8557c0-0.71229 1.7639-3.185 3.9199-5.4949 2.1559-2.3099 4.0885-4.7054 4.2947-5.3233 0.20616-0.61789 1.1278-0.95947 2.0482-0.75906 1.5504 0.33758 1.5547 0.60769 0.05899 3.6745-3.1823 6.5252-10.322 11.991-10.322 7.9027zm50.077-2.1238c0-0.77965 0.37634-1.5676 0.8363-1.7511 0.45997-0.18345 4.3013-4.9324 8.5362-10.553 4.235-5.6208 8.3154-10.574 9.0676-11.007 3.8333-2.2066 17.062-15.267 18.694-18.456 1.0301-2.013 2.2542-3.8142 2.7202-4.0026 0.46607-0.18836 2.7411-3.146 5.0555-6.5725 2.3145-3.4265 5.0052-6.6562 5.9794-7.1771 0.97423-0.52091 2.4058-2.2203 3.1812-3.7764 0.77545-1.5561 3.0415-5.0807 5.0356-7.8324 3.301-4.555 4.7953-7.1787 9.0732-15.93 0.78552-1.6069 1.9916-3.1079 2.6802-3.3355 2.0915-0.69127 1.3936 2.9261-1.7654 9.1499-1.6456 3.2421-2.992 6.7318-2.992 7.7549s-0.61337 1.8603-1.363 1.8603c-1.4984 0-9.654 11.291-9.654 13.366 0 0.71231-1.0687 2.2982-2.3749 3.5242-1.3062 1.226-3.1932 3.7471-4.1933 5.6025-1.0001 1.8554-2.8426 3.8396-4.0944 4.4095-1.2518 0.56986-3.5338 2.9398-5.071 5.2664-1.5372 2.3267-4.9912 6.2847-7.6756 8.7956-2.6843 2.5109-6.4231 6.0178-8.3084 7.7931-1.8852 1.7753-4.004 3.5765-4.7084 4.0026-1.6007 0.96831-14.653 18.284-14.653 19.439 0 0.46641-0.90139 0.84804-2.0031 0.84804s-2.0031-0.63791-2.0031-1.4176zm19.029-8.1543c0-1.6064 2.2588-4.4371 3.5406-4.4371 1.7978 0 1.8191 0.95376 0.0729 3.2521-1.2531 1.6492-3.6136 2.4233-3.6136 1.185zm-55.998-6.1882c5.4988-7.2132 17.736-21.212 24.886-28.468 6.4007-6.4956 8.7048-9.5432 9.0785-12.008 0.38466-2.5369 1.0535-3.3807 2.8846-3.6395 2.1035-0.29721 2.3087-0.0376 1.7447 2.2073-1.4821 5.8997-3.0615 8.0833-12.923 17.865-5.7014 5.6558-13.183 13.773-16.625 18.038-4.1446 5.1356-6.9548 7.7549-8.32 7.7549-1.8041 0-1.8948-0.21859-0.72647-1.7511zm-35.138-4.0026c2e-3 -1.5135 0.95829-4.3162 2.125-6.2282 3.7525-6.15 15.259-20.039 16.602-20.039 2.0118 0 1.5769 1.3359-1.9544 6.0027-5.4463 7.1976-13.771 20.321-13.771 21.708 0 0.71901-0.67604 1.3073-1.5023 1.3073-0.9721 0-1.501-0.97118-1.4986-2.7518zm104.16-7.8506c0-0.75377 4.0713-6.578 5.5289-7.9094 0.60251-0.55035 2.3547-2.7188 3.8937-4.8188 1.539-2.1 3.0371-3.5795 3.329-3.2878 0.66794 0.66734-2.5548 7.7645-4.1355 9.1072-0.6479 0.55035-2.2062 2.4641-3.4629 4.2527-1.9743 2.8099-5.1531 4.4484-5.1531 2.6561zm-78.121-2.4458c0-3.3474 12.808-21.974 15.109-21.974 1.7637 0 0.88995 3.1527-1.8881 6.813-1.5419 2.0316-4.1729 5.4949-5.8467 7.6963-1.6738 2.2014-3.583 5.0157-4.2426 6.254-1.2357 2.3197-3.132 3.0528-3.132 1.2109zm-1.8322-19.62c0.19406-1.0068 1.1773-1.9891 2.185-2.183 1.3231-0.25459 1.7341 0.15604 1.4793 1.478-0.19406 1.0068-1.1773 1.9891-2.185 2.183-1.3231 0.25458-1.7341-0.15605-1.4793-1.478zm5.5045-7.0234c-1.1184-1.1174-0.77618-2.0525 1.9252-5.26 2.5478-3.0251 5.4195-4.0979 5.4195-2.0246 0 1.1839-5.1856 7.9516-6.0927 7.9516-0.32134 2e-5 -0.88471-0.30016-1.2519-0.66707zm74.001-3.2496c-0.90695-1.4661 1.2193-5.089 2.9868-5.089 2.0599 0 1.8257 2.3675-0.43658 4.413-1.2174 1.1007-2.1367 1.3444-2.5502 0.67608zm-50.018-5.9078c-1.011-1.6344 2.8117-6.8547 13.372-18.261 8.8982-9.611 11.079-11.329 11.03-8.6879-0.0229 1.2355-1.4932 3.0168-13.008 15.76-3.2325 3.5773-6.9588 7.8163-8.2807 9.4201-1.5822 1.9197-2.6458 2.524-3.113 1.7688zm21.439-0.93241c0.01-0.41276 1.7848-2.216 3.9442-4.0071 4.7284-3.922 6.6334-2.505 2.4698 1.837-2.5576 2.6671-6.4577 3.9867-6.414 2.1701zm38.041-1.1697c0-1.8175 3.5318-7.073 4.7573-7.0792 1.6598-8e-3 1.5794 1.4617-0.2761 5.0466-1.4172 2.7382-4.4812 4.128-4.4812 2.0327zm-28.043-1.4987c0-0.77966 0.56337-1.646 1.2519-1.9251 0.97327-0.39455 0.94942-0.71939-0.10717-1.4594-0.85529-0.59904-1.1047-1.7526-0.67292-3.112 0.81184-2.5556 4.5131-6.2271 5.6006-5.5556 0.41874 0.25855 2.4568-1.8959 4.5291-4.7876 5.0429-7.037 5.0891-7.0831 6.3338-6.3145 0.74558 0.46038 0.57208 1.6699-0.55445 3.8653-2.5103 4.8921-11.664 19.112-12.837 19.941-1.704 1.2043-3.544 0.86594-3.544-0.65178zm-43.436-3.2873c-1.3243-1.3231-0.38611-2.6648 8.1171-11.609 15.395-16.193 19.198-19.71 21.311-19.71 1.7565 0 1.9002 0.29766 0.97614 2.0226-0.59592 1.1125-2.5272 2.9768-4.2918 4.143-1.7646 1.1662-7.4899 7.0534-12.723 13.083-9.3903 10.819-12.15 13.307-13.389 12.07zm81.494-15.185c0-1.0333 0.67071-2.4349 1.4905-3.1146 1.2077-1.0014 1.609-0.92728 2.1151 0.39054 0.63325 1.6487-1.1168 4.6028-2.7267 4.6028-0.4834 0-0.87891-0.84543-0.87891-1.8788zm-17.017-12.881c0.0247-1.9712 6.2596-11.336 7.3089-10.978 2.8797 0.98224-2.208 11.693-5.5656 11.716-0.96399 7e-3 -1.7485-0.32533-1.7433-0.73809zm-22.165-2.0013c0.52282-0.96311 2.3817-3.102 4.1308-4.753 1.7491-1.6511 3.8276-4.2402 4.6189-5.7537 0.79124-1.5135 2.2586-2.7518 3.2608-2.7518 1.0022 0 2.6379-0.90057 3.6349-2.0013 1.028-1.1349 1.312-2.0013 0.65601-2.0013-2.3814 0-1.0332-3.9037 2.3835-6.9008 3.8874-3.4101 7.1937-4.0061 8.167-1.4722 0.41887 1.0906-0.52113 2.6702-2.8284 4.753-1.9007 1.7158-5.4283 5.7366-7.8393 8.9352-2.4109 3.1986-5.5465 6.4202-6.9681 7.1592-1.4215 0.73901-3.5957 2.5123-4.8315 3.9406-2.6201 3.0284-5.9144 3.6639-4.3846 0.84585zm46.193-1.596c0-0.74024 0.88988-2.1505 1.9775-3.1339s2.2691-2.706 2.6256-3.828c0.99859-3.1434 7.3564-12.706 8.4478-12.706 1.4672 0 1.1798 1.6716-1.0323 6.0038-1.1017 2.1576-2.0031 4.9007-2.0031 6.096 0 1.1956-1.6089 3.6892-3.5767 5.5434-3.7097 3.4955-6.4387 4.3536-6.4387 2.0244zm19.029-0.78747c0-0.62297 0.8459-2.5367 1.8798-4.2527s2.6475-5.484 3.5859-8.3734c0.997-3.0699 2.2971-5.2534 3.1279-5.2534 0.78201 0 1.4203 0.33772 1.4184 0.75048-6e-3 1.3251-6.037 15.592-7.1652 16.951-1.3382 1.611-2.8469 1.7055-2.8469 0.17834zm12.511-5.8162c0.26834-6.0813 0.88926-8.0141 2.1651-6.7394 1.4161 1.4148 0.83647 9.6243-0.79463 11.254-1.5218 1.5209-1.6222 1.1902-1.3705-4.515zm-85.624 0.62036c0-1.9354 17.505-19.688 19.413-19.688 2.0762 0 2.1045 2.6311 0.0408 3.7851-2.6066 1.4574-12.483 11.483-14.241 14.457-1.68 2.8413-5.213 3.8215-5.213 1.4463zm39.06-6.4571c0-1.298 3.0538-5.2258 4.063-5.2258 1.3496 0 1.1687 3.3785-0.25709 4.8031-1.3466 1.3453-3.8059 1.6185-3.8059 0.42278zm55.085-0.028c-4.0136-1.3217-3.1469-5.0965 1.1422-4.9746 1.6413 0.0466 2.5519 0.35318 2.0235 0.68126-0.52838 0.32807-1.1188 1.5396-1.312 2.6923-0.22466 1.34-0.89314 1.9174-1.8537 1.6011zm-5.009-5.9483c-4e-3 -2.3283-16.392-18.672-20.151-20.096-1.2458-0.47195-1.0963-2.168 0.19105-2.168 4.2451 0 21.964 16.554 21.964 20.52 0 1.3722-0.4507 2.495-1.0016 2.495s-1.0021-0.33772-1.0028-0.75048zm2.8054-4.9385c-9.4531-10.709-13.643-14.648-18.592-17.477-3.6831-2.1053-5.0327-3.3639-4.1751-3.8935 0.697-0.43038 2.2838-0.39639 3.5262 0.0755 3.2561 1.2368 12.676 8.0735 14.399 10.45 0.80698 1.1133 3.3985 4.0971 5.7589 6.6308 2.3604 2.5337 4.2917 5.0962 4.2917 5.6946 0 2.5998-2.1441 1.9902-5.2081-1.481zm-35.605-21.433c-5.3647-3.1245-6.642-4.9059-3.5054-4.8891 2.265 0.0121 12.269 5.7324 12.269 7.0153 0 1.8032-3.4568 0.96455-8.7635-2.1262zm17.667-4.5608c-1.6876-0.45064-3.8953-4.3728-3.8953-6.9204 0-0.8169 0.67604-1.7445 1.5023-2.0612 0.82627-0.3168 1.5023-1.3954 1.5023-2.3968 0-3.0526 3.312-2.7012 6.7459 0.71586 3.3812 3.3646 3.4108 4.3439 0.27439 9.074-1.4415 2.174-2.708 2.5022-6.1296 1.5885zm-21.923-19.299c0-1.3977 6.428-6.0548 8.3573-6.0548 2.5855 0 1.9557 1.7125-1.3465 3.6614-1.6526 0.9753-3.0046 2.1265-3.0046 2.5582s-0.90139 0.78489-2.0031 0.78489-2.0031-0.42737-2.0031-0.94971zm12.019-7.3904c0-2.2157 5.4377-3.6675 13.736-3.6675 6.9304 0 11.302 1.0852 11.302 2.8054 0 0.40352-4.6196 0.72539-10.266 0.71527-5.6462-0.0101-11.28 0.34965-12.519 0.79951-1.686 0.61195-2.2535 0.44762-2.2535-0.6526zm-73.283 241.56c2.4579-2.101 3.4808-3.9332 3.8877-6.9638 0.36499-2.7187 0.16795-4.1127-0.58128-4.1127-0.62339 0-1.1334 0.86375-1.1334 1.9194s-0.28807 2.6694-0.64015 3.5861c-0.50931 1.326-0.80898 1.3939-1.4661 0.332-1.177-1.9019-3.5006 0.70617-4.3828 4.9193-0.82925 3.9603-0.0138 4.0207 4.3161 0.31963zm-85.607-10.461c-7.1981-6.9825-7.3671-7.1147-7.3671-5.7637 0 1.85 12.324 14.248 13.247 13.327 0.59122-0.59068-1.6068-3.4179-5.8798-7.563zm74.729-4.6183c0-1.3342-0.10787-1.3342-0.97087 0-0.53399 0.82552-0.97087 2.1764-0.97087 3.0019 0 1.3342 0.10787 1.3342 0.97087 0 0.53398-0.82553 0.97087-2.1764 0.97087-3.0019zm11.458-6.1643c1.0184-6.363-0.14282-5.7736-2.0372 1.0339-0.93837 3.3721-2.0829 6.131-2.5435 6.131s-0.83734 0.76292-0.83734 1.6954c0 3.1652 4.7318-4.5729 5.418-8.8603zm10.607 7.1649c0-1.1007-0.4507-2.0013-1.0016-2.0013s-1.0015 0.90057-1.0015 2.0013 0.45069 2.0013 1.0015 2.0013 1.0016-0.90058 1.0016-2.0013zm4.9684-5.7537c2.2304-2.0775 3.7858-7.2546 2.1797-7.2546-0.59482 0-1.4718 1.4634-1.9489 3.2521-0.5661 2.1224-1.4458 3.2038-2.5325 3.1131-1.7096-0.14269-2.1813 0.79062-0.99739 1.9735 0.95242 0.95156 1.2017 0.86965 3.2991-1.084zm-115.66-5.6879c-2.9602-3.8776-3.4877-4.2264-3.4877-2.3069 0 1.5117 4.9963 7.089 5.711 6.375 0.27532-0.27507-0.72517-2.1057-2.2233-4.0681zm96.06 2.8526c0.37431-0.97453 0.15047-1.432-0.58141-1.1882-1.4972 0.49859-2.3215 2.7728-1.005 2.7728 0.53782 0 1.2517-0.71305 1.5865-1.5846zm11.208-2.5115c1.2434-1.3727 1.9336-3.7008 2.0023-6.7543 0.0577-2.5628 0.4308-5.6727 0.82914-6.911 0.43211-1.3433 0.30926-2.2514-0.30458-2.2514-0.56586 0-1.5256 1.9137-2.1328 4.2527s-1.7106 6.3916-2.452 9.0057c-1.4658 5.1684-0.88982 5.9125 2.0579 2.6583zm-117.77-9.6437c0-2.1675 3.4792-8.3867 10.02-17.91 3.3525-4.8817 8.2159-11.97 10.808-15.751s5.7279-8.2843 6.9693-10.006 3.3806-4.707 4.7537-6.6332c5.8341-8.1839 7.4022-10.275 15.023-20.036 10.984-14.068 43.121-52.876 49.284-59.514 1.0219-1.1007 9.2599-10.106 18.307-20.013s19.647-21.177 23.555-25.046c3.9087-3.869 8.6349-9.2725 10.503-12.008 3.5083-5.1376 4.2171-5.9669 15.699-18.367 3.7638-4.0646 7.5075-8.3424 8.3193-9.506l1.4761-2.1158-2.9784 1.9154c-3.6836 2.3688-7.577 6.2879-18.973 19.098-4.896 5.5035-10.511 11.625-12.478 13.603-1.9671 1.978-5.7773 6.0306-8.4671 9.0057s-8.6227 9.4619-13.184 14.415c-4.5614 4.9532-9.5965 10.646-11.189 12.65-1.5926 2.0044-7.9785 9.2745-14.191 16.156-6.2122 6.8811-12.011 13.571-12.887 14.867-0.87563 1.2959-3.4299 4.4062-5.6763 6.9116-8.6185 9.6129-15.496 18.088-20.578 25.361-0.80894 1.1574-4.4145 5.9005-8.0124 10.54-7.3592 9.4901-14.538 19.448-25.661 35.592-4.1706 6.0538-9.1072 13.033-10.97 15.51-4.7922 6.3705-12.617 22.665-12.445 25.916 0.063999 1.2084 2.9728-3.325 2.9728-4.6331zm40.792 4.1294c-0.33281-0.3325-1.1966-0.36804-1.9196-0.079-0.79896 0.31943-0.56165 0.55654 0.6051 0.60455 1.0558 0.0434 1.6473-0.19305 1.3145-0.52556zm74.386-2.3974c0-0.55035-0.4507-1.0006-1.0016-1.0006s-1.0016 0.45029-1.0016 1.0006 0.4507 1.0006 1.0016 1.0006 1.0016-0.45028 1.0016-1.0006zm9.6418-0.48433c0.99784-0.99694 1.3858-3.0213 1.1804-6.1598l-0.30591-4.6748-1.5871 6.1598c-0.8729 3.3879-1.4041 6.1598-1.1804 6.1598 0.22369 0 1.0755-0.66823 1.893-1.485zm11.735-0.72277c0.78858-3.0129-0.20369-3.7084-1.9284-1.3518-1.7919 2.4483-1.8028 3.5596-0.035 3.5596 0.76202 0 1.6455-0.99348 1.9634-2.2077zm-125.73-4.7342c0.25039-0.75047-0.12519-1.1257-0.87635-0.87555-0.723 0.24078-1.5117 1.0288-1.7527 1.7511-0.25039 0.75048 0.12519 1.1257 0.87635 0.87556 0.72299-0.24078 1.5117-1.0288 1.7527-1.7511zm130.37-3.3146c8e-3 -0.41276-0.43536-0.75047-0.98621-0.75047s-0.99465 1.0131-0.98621 2.2514c0.0124 1.8206 0.20113 1.9642 0.98621 0.75048 0.53398-0.82553 0.97778-1.8387 0.98621-2.2514zm-9.5412-10.257c0.71189-2.7007 0.6349-2.8513-0.76731-1.501-0.99168 0.95499-1.6144 3.5028-1.712 7.0045-0.21007 7.5351 0.16436 8.4777 0.9937 2.5016 0.38189-2.7518 1.0504-6.354 1.4857-8.0051zm5.109-1.1812c0.66651-5.2772 0.15077-9.3189-0.80691-6.3236-0.88296 2.7616-3.7598 14.827-3.7372 15.674 0.0122 0.46003 0.89237-0.28931 1.9558-1.6652 1.0635-1.3759 2.2282-4.8343 2.5883-7.6853zm8.1154 5.4339c-0.27784-0.68794-0.50517-0.12508-0.50517 1.2508 0 1.3759 0.22733 1.9387 0.50517 1.2508 0.27783-0.68793 0.27783-1.8136 0-2.5016zm3.0255-4.9406c-0.31971-0.79823-0.55704-0.56113-0.60509 0.60456-0.0435 1.0548 0.19322 1.6458 0.52603 1.3133 0.33281-0.33251 0.36838-1.1956 0.079-1.9179zm-2.7678-10.88c1.3463-6.2717 1.3675-8.2387 0.0805-7.444-0.55085 0.34013-1.0016 1.6626-1.0016 2.9388 0 1.2762-0.62205 3.8388-1.3823 5.6946-0.7603 1.8558-1.6855 4.5-2.056 5.8759l-0.67367 2.5016 1.9755-2.2629c1.0865-1.2446 2.4624-4.5314 3.0576-7.3039zm8.0929 4.5636c0-0.82552-0.17713-1.501-0.39361-1.501-0.2165 0-0.65304 0.67543-0.97012 1.501-0.31707 0.82553-0.13994 1.501 0.39362 1.501s0.97011-0.67543 0.97011-1.501zm6.9404-9.315c-0.0567-2.9766-0.23743-3.3049-0.93114-1.6921-1.2085 2.8099-1.2085 6.7501 0 6.0038 0.55085-0.34014 0.96986-2.2804 0.93114-4.3118zm-7.4281-0.91246c2.426-3.1743 3.4311-5.3899 3.0642-6.7543-0.30033-1.1167-0.58271-3.1561-0.62752-4.532l-0.0814-2.5016-1.0868 2.2514c-0.59775 1.2383-1.4258 2.2514-1.84 2.2514-0.41425 0-0.51922 1.7428-0.23326 3.8728 0.31069 2.3143 0.0708 4.1501-0.59608 4.5619-0.74404 0.45942-1.1262-0.58125-1.1465-3.1223-0.0206-2.5803-0.30038-3.3266-0.86609-2.3105-1.3003 2.3357-2.1931 11.007-1.1333 11.007 0.51509 0 2.5611-2.1258 4.5468-4.7239zm11.505-4.7821c0-0.82553 0.47729-1.501 1.0606-1.501s0.76858-0.47215 0.41161-1.0492c-0.4437-0.71725-1.0962-0.67849-2.0622 0.12253-1.6254 1.3477-1.8958 3.9286-0.41161 3.9286 0.55085 0 1.0016-0.67543 1.0016-1.501zm5.2689-4.3921c0.27216-1.0398 0.10627-2.5032-0.36863-3.2521-0.58705-0.92572-0.86836-0.32055-0.87879 1.8905-0.0171 3.6407 0.50243 4.2078 1.2474 1.3616zm-9.843-6.1146c0.61215-4.1816 0.54875-4.3643-0.88877-2.5605-0.85138 1.0683-1.5343 3.77-1.5175 6.0038 0.038 5.0591 1.4593 3.0251 2.4063-3.4433zm14.429 0.45323c0.63927-1.4018 1.1623-3.6532 1.1623-5.0032 0-1.7526 0.54943-2.4545 1.9214-2.4545 1.1012 0 2.8114-1.4387 4.0062-3.3702 2.2708-3.6709 2.6484-5.6356 1.0832-5.6356-0.55085 0-1.0016 0.67543-1.0016 1.501 0 0.82552-0.64333 1.501-1.4296 1.501-2.0183 0-5.5812 4.8314-5.5812 7.5682 0 1.2624-0.67604 2.9706-1.5023 3.7961-1.6128 1.6114-2.0449 4.6458-0.66155 4.6458 0.46244 0 1.3638-1.1469 2.0031-2.5487zm-9.8547-4.6559c0-4.4522-1.6744-4.287-2.0278 0.20013-0.27129 3.4448-0.12828 4.0026 1.0263 4.0026 0.55085 0 1.0016-1.8912 1.0016-4.2027zm4.4601-7.4069c0.83374-4.4402-0.0327-5.6376-1.4274-1.9727-1.2655 3.3256-1.3218 5.5771-0.13949 5.5771 0.48955 0 1.1947-1.622 1.5669-3.6045zm7.4881-11.155c0.0388-0.68794-0.3803-1.2508-0.93115-1.2508s-0.96987 1.4634-0.93115 3.2521c0.059 2.7253 0.20983 2.9279 0.93115 1.2508 0.47342-1.1007 0.89244-2.5641 0.93115-3.2521zm10.687 1.1507c-0.4848-1.2622-0.96706-1.4353-1.7683-0.63483-0.60593 0.60539-0.80173 1.8817-0.4351 2.8362 0.4848 1.2622 0.96706 1.4353 1.7683 0.63483 0.60593-0.60539 0.80173-1.8817 0.4351-2.8362zm-6.0082-4.9497c0.57418-2.2856-0.0403-4.4399-0.96185-3.3722-1.0157 1.1767-1.5604 5.9204-0.67983 5.9204 0.55085 0 1.2896-1.1467 1.6417-2.5482zm12.418-5.516c0-1.7858-0.41722-2.8033-1.0015-2.4425-0.55085 0.34013-1.0016 1.7176-1.0016 3.061 0 1.3434 0.4507 2.4425 1.0016 2.4425s1.0015-1.3774 1.0015-3.061zm-9.3313-2.1298c-0.31971-0.79823-0.55704-0.56113-0.60509 0.60456-0.0435 1.0548 0.19322 1.6458 0.52603 1.3133 0.3328-0.33251 0.36838-1.1956 0.079-1.9179zm4.7816-1.7445c0.31693-0.51232 0.16541-1.1852-0.33671-1.4952-0.50211-0.31004-1.1714 0.10913-1.4872 0.93149-0.62267 1.6212 0.88212 2.0862 1.8239 0.56372zm8.5406 0.18102c-8e-3 -0.41276-0.45223-1.4259-0.98621-2.2514-0.78508-1.2137-0.9738-1.0701-0.98621 0.75047-8e-3 1.2383 0.43536 2.2514 0.98621 2.2514s0.99465-0.33772 0.98621-0.75048zm-4.9924-8.2553c0.85563-1.5973 0.76166-2.0013-0.46554-2.0013-0.86985 0-1.5376 0.86907-1.5376 2.0013 0 1.1007 0.20949 2.0013 0.46553 2.0013 0.25605 0 0.94795-0.90058 1.5376-2.0013zm3.9908-4.3118c-0.0125-1.7824-0.19691-1.9117-0.98622-0.69142-1.2752 1.9714-1.2752 4.2896 0 3.5022 0.55085-0.34014 0.99465-1.605 0.98622-2.8108zm3.9511-7.946c0.0388-0.41276-0.38029-0.75048-0.93114-0.75048s-0.96987 1.2383-0.93115 2.7518c0.0624 2.4384 0.16841 2.5239 0.93115 0.75048 0.47342-1.1007 0.89243-2.339 0.93114-2.7518zm16.095-17.793c0-1.2898-2.8535-2.4544-3.77-1.5388-0.37343 0.3731-0.0159 1.0973 0.79435 1.6092 1.9387 1.225 2.9756 1.2004 2.9756-0.0704zm19.504-46.748c0.43946-2.0837 0.29747-3.2521-0.39525-3.2521-0.59463 0-1.0811 0.394-1.0811 0.87556s-0.28495 2.3953-0.63322 4.2527c-0.8299 4.4262 1.1522 2.6634 2.1096-1.8762zm-4.8193-16.511c-0.27784-0.68794-0.50517-0.12508-0.50517 1.2508 0 1.3759 0.22733 1.9387 0.50517 1.2508 0.27784-0.68793 0.27784-1.8136 0-2.5016zm18.366-4.8639c0-1.4208-1.1716-1.0344-2.612 0.86133-2.2199 2.9217-1.6304 5.1162 0.64221 2.3907 1.0834-1.2993 1.9698-2.7627 1.9698-3.2521zm-5.6471 1.6118c0.31707-0.82553 0.13993-1.501-0.39362-1.501-0.53356 0-0.97012 0.67543-0.97012 1.501s0.17714 1.501 0.39362 1.501c0.2165 0 0.65304-0.67543 0.97012-1.501zm-9.9871-3.2521c-0.73009-3.0948-2.064-4.9156-2.9516-4.0288-0.60788 0.60732 2.2205 6.7806 3.1066 6.7806 0.27178 0 0.20202-1.2383-0.15502-2.7518zm6.3128-6.9854c-0.25393-0.97359-0.4784-0.4193-0.49881 1.2318-0.0204 1.651 0.18735 2.4476 0.4617 1.7702 0.27434-0.67746 0.29104-2.0283 0.0372-3.0019zm21.898-11.526c0.82292-1.5135 1.0891-2.7518 0.59158-2.7518-1.3612 0-2.9334 2.2122-4.6769 6.5809l-1.5668 3.9258 2.078-2.5016c1.1429-1.3759 2.7512-3.7399 3.5741-5.2534zm-7.5691 3.193c0-0.51787-0.45069-0.94158-1.0015-0.94158s-1.0016 0.702-1.0016 1.56 0.4507 1.2817 1.0016 0.94158 1.0015-1.0421 1.0015-1.56zm-79.122-1.5644c0-1.3296-0.27191-1.398-1.5023-0.3778-0.82627 0.68512-1.5023 1.4157-1.5023 1.6235 0 0.20779 0.67605 0.3778 1.5023 0.3778 0.82628 0 1.5023-0.73056 1.5023-1.6235zm3.5054-4.3804c0.34044-0.55035 0.1417-1.0006-0.44166-1.0006s-1.0607 0.45029-1.0607 1.0006 0.19875 1.0006 0.44166 1.0006c0.24292 0 0.72021-0.45029 1.0607-1.0006zm21.815-0.14059c7.1431 0.0622 6.7211-1.3509-0.66235-2.2179-4.2936-0.50417-6.3642-0.21698-9.7932 1.3584l-4.3484 1.9977 4.507-0.59433c2.4788-0.32689 7.1125-0.57164 10.297-0.54389zm-16.694-6.5843c-0.42757-0.42718-1.4166 0.0967-2.1978 1.1641-2.2063 3.0146-1.6726 4.2562 0.7774 1.8084 1.2088-1.2077 1.848-2.5454 1.4204-2.9725zm7.98-9.8622c0.78328-4.1714-1.0547-9.3567-2.7251-7.6878-0.69357 0.69294-0.71784 1.6721-0.0719 2.904 0.53593 1.0222 0.75187 3.322 0.47988 5.1106-0.68446 4.5011 1.4676 4.1976 2.3171-0.32674zm112.18-37.19c-0.69457-0.69393-2.5947 0.71601-2.5947 1.9253 0 0.66352 0.57467 0.5876 1.5265-0.20165 0.83958-0.69617 1.3203-1.4718 1.0682-1.7237zm-44.606-22.897c2.0542-2.1591 2.6406-3.2023 1.4484-2.5769-2.6727 1.4021-6.7009 6.2047-5.2042 6.2047 0.16737 0 1.8575-1.6325 3.7558-3.6277zm45.016-35.348c0.82628-0.56036 0.98888-1.0257 0.36134-1.0341-0.62753-8e-3 -2.205 0.91068-3.5054 2.0425-1.8582 1.6172-1.9355 1.8386-0.36134 1.0341 1.1017-0.563 2.6791-1.4821 3.5054-2.0424zm6.51-4.0514c0.78339-1.2664-0.54247-1.2664-2.5039 0-1.2947 0.83593-1.2682 0.97211 0.19128 0.98532 0.93148 8e-3 1.9721-0.43497 2.3126-0.98532zm168.76-70.045c0-0.55035-0.64944-1.0006-1.4432-1.0006-0.79377 0-1.7218 0.45029-2.0622 1.0006-0.34044 0.55035 0.309 1.0006 1.4432 1.0006s2.0622-0.45029 2.0622-1.0006zm-205.32 154.27c0-3.0415 13.295-18.183 15.966-18.183 1.9302 0 1.071 1.4509-3.5555 6.0038-2.5166 2.4766-5.9641 6.4166-7.6612 8.7556-2.8946 3.9894-4.7492 5.3263-4.7492 3.4236zm67.104-94.65c0-0.23029 1.6901-1.4409 3.7558-2.6903 2.0657-1.2494 6.2346-4.1389 9.2643-6.4211 5.5493-4.1802 16.911-9.9306 17.822-9.0202 0.71649 0.71584-1.8416 3.5408-3.2062 3.5408-0.63986 0-4.1564 2.2514-7.8145 5.0032-3.6581 2.7518-6.8903 5.0032-7.1826 5.0032s-2.1918 1.1257-4.2212 2.5016c-3.1387 2.1281-8.4178 3.4343-8.4178 2.0829zm18.028-18.444c0-0.4684 3.1549-2.2439 7.0108-3.9454 4.8038-2.1199 7.0108-2.6865 7.0108-1.8001 0 0.71156-2.8168 2.4883-6.2597 3.9483-6.7684 2.8703-7.762 3.1004-7.762 1.7972zm21.578-3.0792c-0.63923-1.0333 3.9759-4.2269 4.8486-3.3551 1.1303 1.1292 0.6361 1.9522-1.8525 3.085-1.3574 0.61794-2.7057 0.73947-2.996 0.27007zm18.987-4.0705c-0.30643-0.49536 3.0606-2.5726 7.4822-4.6161 5.1102-2.3617 8.0407-4.2947 8.043-5.3052 4e-3 -1.856 20.759-12.133 24.3-12.033 2.2285 0.06314 2.228 0.06724-0.13644 1.0129-1.3056 0.5222-3.7064 2.0697-5.335 3.4388-1.6286 1.3692-3.4064 2.4894-3.9505 2.4894-2.2032 0-10.875 4.3301-10.875 5.4301 0 2.1364-18.514 11.222-19.528 9.5832zm-14.685-6.3146c1.9119-2.3016 5.3538-2.9012 4.9676-0.86527-0.19129 1.0085-1.4842 1.8058-3.2563 2.0079-2.4951 0.28462-2.7536 0.11204-1.7113-1.1427zm18.001-0.37646c0.72298-0.28906 1.5868-0.25351 1.9196 0.07905 0.3328 0.3325-0.25874 0.569-1.3145 0.52556-1.1668-0.04803-1.4041-0.28513-0.6051-0.60456zm-3.1972-5.1256c-0.75498-1.2205 1.2458-2.0619 8.6431-3.6345 6.4911-1.38 7.411-0.71995 2.3544 1.6892-4.5471 2.1664-10.238 3.173-10.997 1.9452zm42.872-4.0778c0.73614-1.19 5.5118-2.0438 6.1013-1.0908 0.25912 0.41888-0.2392 1.0339-1.1074 1.3668-2.3677 0.90775-5.6152 0.72827-4.994-0.27598zm16.599-5.0113c0-0.6116 0.8847-1.112 1.966-1.112s4.2529-0.90057 7.0479-2.0013c5.7994-2.2838 6.0093-2.3226 6.0093-1.1093 0 1.1006-6.3862 3.7157-11.342 4.6447-2.4462 0.45849-3.6808 0.3169-3.6808-0.4221zm-31.549-2.5057c3.7435-1.7496 7.9296-2.3421 8.2674-1.1702 0.14026 0.48669-0.98647 0.95941-2.5039 1.0505-1.5174 0.09106-4.111 0.47123-5.7635 0.84478l-3.0046 0.67916z" stroke-width="1.0011"/>
</svg>
