<?xml version="1.0" encoding="utf-8"?>
<svg xmlns="http://www.w3.org/2000/svg" version="1.1" viewBox="0 0 1000 444">
	<title>Sketch of a river opening into a lake, with hills in the distance and a wooden railing in the bottom left corner. Suggestions of river plants are drawn on the left, and shrubs and trees to the right.</title>
	<path d="m178 444-1.1-1.4 1.6-3c.8-1.8 2.2-3.2 3-3.2s1.5 1 1.8 2 1 2 1.5 2 1.3-1.2 1.7-2.7c1-3.8 1.4-23.2.5-23.8-.4-.2-1.3 1.6-1.9 4-.6 2.4-1.5 4.7-2.1 5-.5.4-1 2.5-1 4.7v4l-3.5-.7.2-7.1 4.5-6.2 1.5-34.7 1.8-4.7c1-2.7 1.6-5 1.4-5.2-.3-.3-3.6-1-7.4-1.5-3.9-.6-10-1.7-13.5-2.5s-8.2-1.7-10.2-2-3.8-1-3.8-1.6c0-1.5 5.9-1 14.4 1 4.4 1.2 10.5 2.3 13.5 2.7a17 17 0 0 1 7.4 2.2l1.8 1.6 1.7-1.1c1-.6 2-2.6 2.4-4.5.8-3.8 0-9.9-1.3-9.9-.5 0-.6.6-.3 1.4.3.7-.2 2-1.1 2.7l-1.6 1.3-4.7-1.2c-2.6-.6-11-2.3-18.7-3.7-7.7-1.5-14.5-3-15-3.4s-3.5-1.2-6.5-1.5c-3-.4-9.1-1.5-13.5-2.5-19.3-4.4-23.5-5-23.5-3 0 1-3.3 1.2-7.9.3l-3.1-.6 1.1-1.4 1.1-1.3-1.3-.5-13.9-3.5a664.4 664.4 0 0 1-46.5-13L19.7 322C9.4 319.1 0 314.8 0 313c0-.7.6-1.8 1.4-2.5l1.4-1.2 7.6.7c4.2.4 7.9 1.1 8.2 1.6.3.5-.4.8-1.6.8h-2.2l.4 1.2c.2.6 2.6 1.8 5.2 2.6l4.8 1.4 2.5-3.4 2.1.7c1.2.4 2.2 1.3 2.2 2 0 1.8 3.4 2.9 6 2l2-.6v1.3c0 .7 2.6 2.4 5.8 3.7l9 3.7c1.8.8 4.2 1.4 5.3 1.4s3 .5 4 1c1.7 1 12 3.5 24.4 6l11 3c3.8 1.2 7.9 2.2 9 2.2 3.8.1 21 2.9 29.5 4.8a649.9 649.9 0 0 0 25 5.1c5 1 20.7 3.8 25.7 4.6l3.2.5 1.1-2.2c.6-1.2.9-2.4.6-2.7s-1.4.2-2.4 1c-1 1-2.2 1.7-2.5 1.7-1.5 0-.6-2.7 1.6-4.8l2.4-2.2 10-1.2 3 1.6a27 27 0 0 1 6.7 6l3.5 4.2-.6 2.2-.5 2.2h2.1c1.2 0 3.1.5 4.2 1.1a30 30 0 0 0 6.7 2c2.6.4 7 1.4 9.7 2.2l5 1.3 3.7-.6c2.1-.4 6-.3 8.5.2 2.7.5 10.1 1.1 16.6 1.4l11.9.6 11.7 3.6 4.3-3 6.1 1.2 10.2 1.7c2.2.2 4.6.7 5.4 1l1.4.4-2.1 2.2h-10a69 69 0 0 0-13.2.7l-3 1-5.3-1-12-2.1-7-1.1-1.4 2.4-6.7-1.6a66 66 0 0 0-13-1.6h-6.2l-2-1.3c-1-.8-6.2-2-11.4-2.6a71 71 0 0 1-11-2c-.8-.4-1.6-1.3-1.6-2-.3-2.5-.7-2.4-1.4.4a34.2 34.2 0 0 0-.7 10.6l12.7.9a100 100 0 0 1 16.4 2.2c2.2.7 4.2 2 4.4 2.7l.5 1.4-3-.7c-5.8-1.4-13-2.6-21.8-3.4l-9-.9-2.3 2.8-.6 11.7-.7 11.7-1.7 3.8c-1 2-2 3.7-2.4 3.7-1.7 0-1.8-2.3-.4-6.2.8-2.4 1.7-8.2 2-13 .3-4.8 1-9.6 1.6-10.8s1.3-6.5 1.6-12l.6-9.9-3.4-9-5.5-1.6c-5-1.4-8-1.3-6.9.4a39.7 39.7 0 0 1 .6 16.6 162 162 0 0 0-1.4 17.7l-.4 13.6-1.5 2.9c-.8 1.6-2 6.2-2.5 10.4l-1 7.6 1 5.4c.4 3 .6 7.2.3 9.5l-.6 4-6.8 7.4h-2.4c-1.4 0-3-.6-3.6-1.4zm15-53.3V384l-1 1a46.3 46.3 0 0 0-1.1 12.7c0 .5.6.6 1.1.2l1-.6v-6.6zm-4.3-4.5c-.3-.7-.5-.1-.5 1.2s.2 2 .5 1.3.2-1.8 0-2.5zm3.8-4.8c.4-.6.4-1.8 0-2.6l-.5-1.6-1.5 1.2c-.8.7-1.5 1.9-1.5 2.7 0 1.6 2.6 1.8 3.5.3zM290 374c-1.4-.8-6.6-1.8-11.5-2.3l-9-1-1.5.8-1.5.8 1.7.7a5 5 0 0 0 3.1.2c.7-.3 4.2 0 7.8.7 3.5.7 8 1.3 9.9 1.4h3.5L290 374zm12.3-1.2a5 5 0 0 0-3 0l-1.8.4h3c1.6 0 2.4-.1 1.8-.4zm-42.1-1.6-1.3-1.2-14.9-.8v2.2l7.2.3 8.7.5 1.5.2zM202 437l-1.2-1.5 1.8-7c1-4 2.4-8 3-8.8l1.3-1.7 2.3 2.4-.6 4.3-1 7.6c-.3 3.1-2 6.2-3.6 6.2-.4 0-1.3-.6-2-1.5zm-3.8-12.7c-.5-.7-1.1-2-1.2-2.8s-.2-3.7-.1-6.5l.1-5.1 4.5.3.7 4c.7 4.6 0 8.9-1.7 10.3l-1.2 1zm1.5-5-.5-1.3-.1 2c0 1 .2 1.6.5 1.3.3-.4.4-1.2 0-2zm11.3 2c0-.7.5-2 1-2.8l1-1.5v2.2c0 1.2-.5 2.5-1 2.8s-1 0-1-.7zM201 399c0-1.8.9-6.2 2-9.7l2-6.4.5-9.5 1-11.8.6-2.2 1.9 1.2v16l-2.5 11c-1.4 6.1-2.5 12-2.5 13v1.8h-3zm-3.5-3.8c.4-2.9 1.3-6.7 2-8.4 1.3-3.2 1-6.8-.7-9l-1-1.2 1.1-5.6c.6-3 2-7.6 3.1-10l2-4.6 2.1 1.2-1.1 1.4a26 26 0 0 0-2.6 6.6L201 371l1.2 14.2-1.6 3.1a20 20 0 0 0-1.6 7.7v4.5h-2.2zm61.2-13.4c-1.3-1.3.5-2.4 3.8-2.4 4.1 0 6.7 1 6 2.1-.7 1-8.8 1.3-9.8.3zm612.3-3.4v-2.1l1.3.4c.6.2 1.2 1 1.2 1.7s-.6 1.6-1.2 1.8l-1.3.4zm-2.3-8.7c-.2-.4-.7-2-1-3.5l-.7-2.8h1.3c1.7 0 4.2 4.5 3.3 6-.8 1.2-2.3 1.4-2.9.3zm-724.2-5.2c-4.5-1.9-10.3-3.3-11.3-2.7-.5.3-3.6-.3-6.8-1.5s-8.1-2.4-10.9-2.8-8.1-1.6-12-2.5a152.6 152.6 0 0 0-22.2-4.6c-2.2 0-4-1.6-3-2.7.6-.5 14.3 2 28.7 5.2 7 1.6 20.7 4.4 28 5.6a54 54 0 0 1 17 6.2c0 1-5 .8-7.5-.2zm726.2-2.9c-1-1-1.7-2.4-1.7-3.2 0-.7-1-2.3-2-3.5l-2-2.1-.2-8c-.1-4.3.2-9.6.6-11.7l.9-3.8-2.2-.5c-1.1-.3-2.1-.9-2.1-1.3s.5-1.2 1.1-1.8c.6-.6.8-1.6.4-2.2l-.6-1-5.1 1.2.7-15.4 3-1.9-2.3-1.9c-1.2-1-2.8-2-3.5-2.3l-1.2-.4 1.4-2.7 1.5-2.7-2.2-4.5c-1.2-2.5-2.2-6-2.2-8v-3.5h1.4c1.6 0 2.6 2.2 2.6 5.6 0 1.3 1 4.2 2.1 6.4l2.1 4-.5 2-.5 2 1.9 1.6 1.9 1.7v2.8c0 1.6.4 3.1 1 3.4s1 1.9 1 3.4.5 3.2 1 3.8l1.1 1 .2 8.5c.1 4.6-.2 11-.6 14.3l-.8 6 1 1.5c.6.8 1.3 1.2 1.6.8.4-.3.8-6.9 1-14.5l.2-14 2.1-3.5a15 15 0 0 0 2.2-5.1v-1.6l4.8-1.2 1-4 4 1.2 1.6-2.6 1.7-2.6-2.3-2.3a15.1 15.1 0 0 0-4-2.9l-1.8-.6.6-3.3 1-4.8.5-1.5 1.5 2a10 10 0 0 1 1.4 5.2v3.3h2.9l2-4.6c1.2-2.5 2.1-5.4 2.1-6.4s.7-2.3 1.5-3l1.6-1.3 2.3 2.3-3.3 7.8-6.9 15.5-3.6 7.7-1.3-1.1-1.4-1.2-2.2 2.2-.1 8.6-.1 8.6-1.4.9-1.4.8-.5 10.9c-.2 6-.4 12.8-.3 15l.1 4.3h-1.3c-.8 0-2.1-.8-3-1.8zm-703.7-.2c0-.5.6-1 1.4-1s1.8.5 2.1 1l.6 1h-2c-1.2 0-2.1-.4-2.1-1zm-6.2-1.6c.6-.3 1.8-.3 2.5 0s0 .5-1.3.5-2-.2-1.2-.5zm-12.8-2.5-6.5-1.7h4.6c2.5-.1 5 .2 5.5.7.5.5 1.8 1.1 2.9 1.3s1.6.6 1 1c-.5.3-4-.3-7.5-1.3zm-11.2-2.5c.6-.3 1.8-.3 2.5 0s0 .5-1.3.5-2-.2-1.2-.5zm-9.3-2-4-1.3 4.5.6c2.5.3 5 1 5.5 1.4l.9 1-1.4-.2a33 33 0 0 1-5.5-1.5zm-16.7-4c.6-.3 1.8-.3 2.5 0s0 .5-1.3.5-2-.2-1.2-.5zm-48.1-1.5c-3.2-.4-11.1-2.2-17.5-4-6.4-1.7-14-3.4-16.7-3.8-5.3-.7-9.5-2.5-9.5-4 0-.6.8-.7 1.8-.4l1.7.5-1.5-1c-.7-.6-1.8-.8-2.3-.5-1.1.7-13.7-4.6-13.7-5.8 0-.5.3-.9.7-.9a182.9 182.9 0 0 1 25.2 8.3c5.5 2.4 26.4 7.9 39.9 10.4 1.2.2 2.2.8 2.2 1.4 0 1-2 1-10.3-.2zm19.3-2.5a330.2 330.2 0 0 1-34.5-9.4c-.5-.4-3.4-1.5-6.2-2.4s-5.3-2.2-5.3-2.7v-1l1.8.6A231 231 0 0 0 71 340.2l21 5 4.5 1H92c-2.5 0-7-.6-10-1.4zm208.8-5.1c-4.3-.2-7.8-.7-7.8-1.1 0-1 29.3-.2 30.5 1l.9.8-8-.2c-4.3 0-11.4-.3-15.6-.5zm5-4.8c-.2-.2-3.2-.5-6.6-.6-3.5 0-6.5-.6-6.8-1l-.6-1 13.4.2c15.8.2 25.8 1 25.8 1.9 0 .7-24.5 1.2-25.2.5zm22.2-6.1c-8-.7-22.3-1.4-31.8-1.5L269 327l-2.2 2.3-19.2-1.2-4-3.6-8.5-1.2c-4.7-.6-10.4-1.5-12.7-2s-5.7-1-7.6-1c-4 0-9.7-1.8-9.7-3 0-.6.3-1 .8-1l18-1.5c6.1-.4 11.2-1 11.2-1.5s-2.6-1.2-5.7-1.8l-5.8-1.1-11 .7c-6 .4-17.5.7-25.5.8-8 0-15.7.4-17.2.8l-2.8.9v3l-11-1.1-.5 1c-.4.4 0 .8 1 .8s1.5.5 1.5 1c0 .6-2 0-4.3-1.3l-4.2-2.4-5.4-.5c-3-.3-5.6-1-6-1.6-.3-.5-2.8-1.2-5.5-1.3l-5-.4-.4-1.3-.4-1.4 3.3.8c1.9.4 5.2.8 7.3 1h4l.8 2.4h8.8v-1c0-.5-1.5-1-3.4-1h-3.4l-1-4-6.3 1.3-2.7-1.4c-1.5-.7-3.7-2.3-5-3.4l-2.2-2.2-5 1c-2.7.6-5 1.4-5 1.9s1.5.8 3.3.7c1.8-.1 3.9.1 4.7.6l1.3.9-2.1.8c-1.2.4-2.2 1.5-2.2 2.3 0 .8.5 1.5 1 1.5s1 .5 1 1v1h-9.5l-2.5 2c-2.8 2.2-5.5 2.6-6.5 1-.4-.6-.3-1.6.2-2.3.5-.6.8-2.7.7-4.7l-.3-6.2-.1-2.8h-1.7c-1 0-3.8 1.4-6.2 3a19 19 0 0 1-7.2 3.2l-4.1.2c-.6 0-1.4-.7-1.6-1.7l-.4-1.8 3.7-1V289c.1-6.7.5-15.9 1-20.4l.8-8.2 2 1.2-.8 7.1a81 81 0 0 0 0 20.4l.7 6.2 5.8-3v-3.2c0-1.8-.5-4.8-1-6.8-.6-1.9-1.5-7.4-2-12.3l-1-8.8-1.6-1.6c-.8-.8-1.3-2-1.1-2.6.4-1.4 5.6-2.1 6.8-1 .5.6 1.1 4.3 1.4 8.4l.4 7.5 2.5 5.7c1.4 3.2 3 5.7 3.5 5.7 1 0 2-4 2.8-11.1l.5-4.7-2.1-1.1c-1.2-.6-2.1-1.6-2.1-2.2v-1l2.5.5c1.4.4 2.5.3 2.5-.1 0-1.5-2.3-3.3-4.2-3.3-1 0-1.8-.4-1.8-1s.7-1 1.5-1 1.5-.6 1.5-1.5.7-1.5 1.5-1.5 2.6-.6 3.9-1.5l2.3-1.5 1.5 1.8 1.6 1.7-.7 11c-.5 6-.7 12.2-.6 13.5l.2 2.5 1.4-.3a4 4 0 0 0 2.1-1.5c.4-.6.8-4.3.8-8.2 0-3.8.4-7.6 1-8.4l.8-1.4-2.2-4.8 1.5-1c.8-.4 2-.8 2.6-.8h1.2l-1.2 12.7 2 1.2.7-3.8c.3-2.1 1.5-5 2.7-6.5l2-2.7-.6-4.2c-.4-2.4-1-4.9-1.5-5.7l-.8-1.4-.8 2.4-.8 2.4-.7-2.5a36 36 0 0 1-.8-7.1l-.1-4.7 3.5-2.1c1.9-1.2 5-2.4 6.8-2.7l3.4-.6 1.6 2.6-2.7 2.3c-1.5 1.3-3.8 2.3-5 2.3s-2.8.5-3.1 1.1c-.4.6 0 1.6.8 2.3 1.5 1.2 2.5 4.3 3.4 11l.5 3.9 3.9 1-1.4 16.5 2.2 1.3 1-1.9c.6-1 1-4 1-6.5-.1-2.6.3-5.2.9-5.9.5-.7 1.3-3.4 1.7-6 .4-2.6 1.1-5 1.6-5.3 1.2-.8 1.1-5.5-.1-5.5a1 1 0 0 1-1-1v-1.2l2.9 2.4 1-2a9 9 0 0 0 1.1-3.3c0-.8 1.5-2.4 3.3-3.6 3.4-2.3 5.7-2.9 5.7-1.4 0 1-4 4.6-6.8 6l-2.3 1.3 2 2.4.3 12.8.2 12.7 1.6-.3c.8-.2 1.4-1 1.2-1.8-.2-.7.1-2.3.7-3.4s1.1-3.2 1.3-4.5.8-2.6 1.4-2.8l1.2-.3.7 4.6c.3 2.6 1 5.7 1.5 6.8l.8 2.1.7-4.6a20 20 0 0 0 0-6.8l-.6-2h.9c1.1 0 3.4 4.8 2.7 6-.3.4-.2 1.5.1 2.3 1 2.8 2.4.7 2.4-4v-4.4h2v4.5c0 2.5.4 4.5 1 4.5s1.2-2 1.6-4.5 1-4.5 1.6-4.5h1l-1 7h3l-.7-9.5-6.5-1.2c-3.6-.7-8.6-1.5-11.2-1.8-2.7-.3-4.8-1-4.8-1.5s.8-1 1.8-1h1.7l-2.2-1.9c-1.3-1-2.3-2.4-2.3-3 0-1.6 4-1.3 4.7.5.3.8 2 2.2 3.7 3.1a92 92 0 0 0 22.8 5.7c.4-.3.8-1.2.8-2 0-2.9 4.8-8 9.4-10.2 2.5-1.2 5-2.2 5.6-2.2 2.3 0 .7 2.1-3.7 5.1l-4.8 3.1-7.7 11 .7 3.5c.3 2 1 3.2 1.3 2.9.4-.4 1.2-2.8 1.8-5.4l1.2-4.7.7 2.3c.4 1.2 1.1 2.2 1.6 2.2.6 0 1.2-.6 1.4-1.5l1.1-3.2.6-1.8.9 2.3c.4 1.2 1.3 2.2 1.8 2.2s1.2-1.3 1.6-3 1-3 1.6-3c.5 0 1 1.3 1 2.8l.1 2.7 2.5-7.9 1.3 6.6 1-.7c.5-.3 1-1.7 1-3s.5-2.5 1-2.5 1 .7 1 1.5.5 1.5 1 1.5 1-1 1-2.2v-2.3l1.4 1.8c.7 1 1.6 1.7 2 1.7.3 0 .6-1.5.6-3.5s.5-3.5 1-3.5h1v8.3l1.4-1.2c.7-.6 1.6-2.9 2-5 .3-2.3 1-4 1.5-4 .6 0 1.1 1 1.3 2.5s.8 2.6 1.3 2.7 1.1-1.2 1.3-3 .7-3.3 1.3-3.3.9 1.2.9 2.6v2.6l1.2-.4c.7-.2 1.6-2.2 2-4.3.5-2.2 1.7-5.6 2.8-7.6 1.1-2 2-4 2-4.3 0-.3-.8-.2-1.7.3-1 .5-4 .6-6.8.2l-5-.6 1.3-.8c.7-.5 3.5-.5 6.2-.2l5 .7v-1c0-.4 1.1-1.4 2.5-2a6.8 6.8 0 0 0 3.2-2.7l.5-1.5-1.5-1.7a13 13 0 0 1-2.2-5l-.7-3.3h1.1c.6 0 1.7 2 2.3 4.5l1.2 4.5h1.4c2.2 0 8.6-5.6 10.6-9.3l1.8-3.4 4.2.5c2.2.3 4.3.7 4.6 1s-.6.6-1.8.9c-1.2.3-2.2 1-2.2 1.3s.7 1 1.6 1.4c2.3 1 .7 2.6-2.5 2.6-1.6 0-4 1-5.2 2l-2.4 2h6.2l5.4 5 4-2.1 2.3 2c1.2 1.2 3 2.1 4 2.1 2 0 2.1-2.3.3-3.8a12 12 0 0 1-2.5-5c-.7-2.2-1.9-4.5-2.7-5.2-1.8-1.4-2-4-.4-4 .7 0 1.8.8 2.5 1.8l1.4 1.7 1.9-2.4 1.8-2.3 5.1 1.2.7-3c.4-1.7.5-3.3.2-3.6-.3-.3-1.5.4-2.6 1.6-2.3 2.2-4.1 2.7-4.1 1v-1.2l-1.6.6c-1 .4-2.3.2-3-.5l-1.4-1.1-2 1.7c-1 1-2.7 1.6-3.7 1.4l-1.8-.4 3-2.7 5.3-4.7c1.3-1.1 2.2-2.5 2.2-3v-1h-8.4l-2.2 2c-1.2 1.2-2.7 1.8-3.3 1.5l-1.1-.7 1-2a10 10 0 0 1 3.8-3.2c1.5-.8 4.5-1.3 6.7-1.2 4.3.2 10.5 2.3 10.5 3.5 0 .4 2 1.4 4.3 2.1l4.2 1.4h63l2.5-1.4a44 44 0 0 1 18.4-3.8l7.8-.4-.8 2.5-10.4-.5v2.1h3.8c2 0 4.6.7 5.6 1.5l1.9 1.5 62.4-1.3.5 1.5c.7 1.8-2.7 6.6-3.9 5.5-.4-.4 0-1.2.7-1.7s1.2-1.1.8-1.5c-.3-.3-21.7-.8-47.5-1l-77.3-.6-30.5-.4.3 3c.2 1.7-.2 4.8-1 7s-2.6 5.7-4.2 7.8l-3 3.8 2.4 1.7c1.3.9 3.2 2.4 4.2 3.4l1.8 1.8v3c0 1.7.4 3 .8 3 .5 0 1.7-.8 2.6-1.8l1.7-2-2.5-6.2a55.3 55.3 0 0 1-2.6-7.1c0-.5 1.6-.9 3.6-.9h3.6l2.5 2c2.7 2.2 7.3 2.8 7.3 1 0-.6-.7-2.4-1.6-4l-1.5-3.1-5.2.2h-6c-.5 0-.4-.7.2-1.4l1-1.3-1-3.4c-.5-2-.9-3.8-.9-4.3s.6-.6 1.2-.4c.7.2 1.8 2.2 2.4 4.3l1 4 3 .2c1.6.1 4.8 1.3 7.2 2.5l4.2 2.2v1.5c0 .9.7 3.3 1.4 5.5.8 2.2 1.2 5.1.9 6.4l-.6 2.4 1.4-.5c.8-.2 1.5-1.8 1.7-3.5.2-1.7-.4-4.7-1.2-6.7l-1.5-3.6h1c.5 0 1.4 1.3 2 2.8a47 47 0 0 0 2.1 5l1.2 2.3.9-1.6a4 4 0 0 0 .3-3l-.6-1.6 1.7.3c1 .2 2 1.2 2.1 2.2.2 1 0 3-.3 4.3l-.6 2.5-4.8-1.2-.6 1c-.3.6 0 1.3 1 1.7.8.3 1.5 1 1.5 1.4v1h-17.9l-.6 1c-1 1.6-2.5 1-2.5-1 0-1-.5-2.2-1-2.6l-1.1-.7-.6 2.1c-.3 1.2-1.2 2.1-2 2.1s-1.3.6-1.3 1.4v1.3l19.8.3a731.4 731.4 0 0 1 32.5 1h3.8l-.6 1c-.3.6-2 1-3.8 1l-3.2.1 1.5.8c.8.4 6.5.5 12.5 0 6-.4 13.3-.8 16-.8 2.8 0 15.1.1 27.5.5 12.3.3 22.8.9 23.3 1.3s.7 2.4.5 4.3l-.3 3.3-2.9.4c-1.5.1-3.3-.2-4-.8l-1-1h1.6c.8 0 2-.7 2.7-1.5l1.2-1.4-1.3-.8c-1.7-1-31-.4-32.4.7l-1 .9-1.9-1.9-39.9-1-3.5-3.3-4.3.7c-2.4.4-7.2.7-10.8.6-3.6 0-8.9.1-11.8.5l-5.2.6.5 1 .6.8h9.9a34 34 0 0 1 10.4 1l.6.9-5.2-.3-12-.4-6.6-.2.2-1.6c0-1-.5-1.9-1.3-2.1l-1.4-.5.7 2.8c.4 1.6 1.2 3.2 1.8 3.5 1.3.9-6.3 1.8-9.4 1.2l-2.6-.4.5-1.8.4-1.7-14.6.3-.6 6.9 5.3.2c7.2.3 12.7 1.2 13.3 2.3.3.5-.6 1.2-2 1.5l-2.6.7-1.2-1.1c-.6-.7-2.2-1.1-3.6-1.1h-2.6l4.4 3.6 17.8.8c9.8.4 18.9.8 20.2 1 1.3 0 2.6.7 2.9 1.4l.5 1.4-10-.7c-5.4-.4-15.5-1-22.4-1-7-.2-14-.7-15.7-1l-3-.7-3.2 1.6c-1.7.9-2.8 2-2.5 2.6.4.5 1.6 1 2.8 1 1.2.1 0 .5-2.7 1s-5.3.6-5.8.3-.6-1-.2-1.5c.3-.5 1.4-.7 2.5-.3l1.9.6v-1c0-.5-1.2-1.2-2.6-1.6l-2.6-.6 1.2-1.5 1.2-1.5h-1.6c-.9 0-1.6.7-1.6 1.5s-.4 1.5-1 1.5c-1 0-5-3.5-5-4.5 0-.2.9-.5 2-.5s2-.4 2-1v-1h-7.5c-4.1 0-7.5-.4-7.5-.8s1.7-.9 3.8-.9 6.8-.3 10.5-.7l6.7-.7v-2.7l-7.7 1-1.4-2.2 2.3-.1 4.2-.3c1 0 2.1-.6 2.3-1.3l.4-1.1-6-.7c-3.4-.4-6.4-1-6.6-1.5-.3-.4-3.5.7-7 2.6a38.3 38.3 0 0 1-8 3.4c-.8 0-1.7.5-2 1l-.6 1 6.1 1.3v3l-2.2-.7-6.2-1.7-4-1-2.5 1c-1.4.5-4 1.3-5.6 1.6-4 1-11.5 4.7-11.5 5.8v1l3.1-.6c1.7-.4 4-.7 5.1-.7h2l-.6-1.5c-.3-.8-.2-1.5.3-1.5 1 0 2.1 3.7 1.3 4.5-.3.3-2.2.5-4.3.5-3.8 0-5.9 1.5-4.3 3 .9.8 2.6 1 17.4 2.6 3.6.3 7.1.8 8 1l1.3.5-2 2-6.4-1.2c-3.5-.6-11.1-1.5-16.9-1.8s-11.2-1-12.1-1.4l-1.6-.8-1.5 1.5c-.8.8-2.6 1.6-3.9 1.9l-2.4.4 1.8.8 1.8.8 4.7-2.5 2.3 1.3c2.8 1.4 4 3 3.3 4.1-.7 1.1-4.8 1-6 0a65 65 0 0 0-21.2-2.2l-2.7.7-.3 1.7-.4 1.8 2.1-1.1c1.2-.6 2.6-.8 3.3-.5s4.4.6 8.4.5c4 0 8 .3 9 .8 1 .6 3.2 1.3 4.7 1.6l2.8.6-.4 1.2-.4 1.2h-6.9c-3.8 0-11-.4-16.1-.8l-9.3-.7v1c0 .6 1.2 1.1 2.8 1.2 7.4.5 9.1.7 14.2 1.7l9.3 1.6c2 .4 3.7 1 3.7 1.5 0 1.5-11.8 2.2-25.3 1.7l-12.7-.6v3h4l-1.2 6H181c6.3 0 12 .4 12.8.8l1.3.9 3-1.1c1.5-.6 2.8-1.5 2.8-1.9s1.1-.8 2.5-.8 2.5.5 2.5 1-1.3 1.7-3 2.5-3 2-3.2 2.8l-.5 1.2-36.5.5-1.4 1.1c-.8.7-1.4 1.8-1.4 2.6v1.3h2c1.1 0 2-.4 2-1s-.6-1-1.2-1h-1.3l3.2-1.9 6 1c3.2.5 11.5 1 18.6 1H202v2h-11v2.7l-4.2-.4a32 32 0 0 1-5.8-1.1c-.8-.4-3-.7-5-.8-3.6-.2-6.4 1.1-5.4 2.6.3.5 3.5.9 7.2.9s9.1.2 12 .4l5.4.5-1.1-1.3-1-1.2 13.2.3c7.2.2 15.7.6 18.7.8 8.4.7 18 2.3 18.8 3 .4.4-.4 1.5-1.8 2.6l-2.5 1.9h-10.7a33 33 0 0 0-11.2 1c-.7 1 3 1.7 12.4 2.5 9.4.9 17.2 2.6 19.3 4.4l1.8 1.6 23.2-.3c12.7-.2 23.5-.5 24-.8 1.2-.8 41.4.8 42.9 1.7l1.3.9-1.2 1.1c-.6.7-2.9 1.3-5 1.4-2 .1-10.3-.4-18.3-1.1zm-159.3-15c-.3-.3-1.2-.3-1.9 0l-1.3.5h2c1 .1 1.6-.1 1.2-.5zm-41.4-3c1.5-.3 2.7-1 2.7-1.5 0-.4-1.8-2-4-3.3-2.2-1.4-4.2-2.6-4.5-2.6s-.5 2-.5 4.6v4.6l1.8-.5 4.5-1.2zm50.3 0c-.4-.5-3.5-1.5-6.9-2.4l-6.2-1.6.3-1.2.2-1.2-2 1c-1 .6-2 1.5-2 2s.7 1 1.5 1 1.5.5 1.5 1c0 1 3.6 1.6 10.4 1.9 2.2 0 3.6-.2 3.2-.6zm.4-4.9c-.7-.8-1.7-1.5-2.2-1.5h-1l1.2 1.5c.7.9 1.7 1.5 2.2 1.5h1zm-20.2-3c-.3-.3-1.3-.2-2.2.2l-1.8.6 2.7 1.7 1-1c.4-.5.6-1.2.3-1.5zm-8.1-1c.1-.5-1.1-1.8-2.8-2.7l-3.1-1.8-1.2 1c-.6.4-2 1-3.1 1.3l-2 .5 6.5.2v3.2l2.7-.3c1.4-.2 2.8-.8 3-1.4zM158 300v-1.4l-4.2-.6a504 504 0 0 0-10-1l-5.7-.6.5 1.5a4 4 0 0 0 2.8 2c1.1.3 4.6.7 7.6.8l7.3.6 1.7.1zm-38-1.2c.7-.8-2.3-2.3-4.5-2.3s-4.5 1.7-4.5 3.2v1l4.3-.8a27 27 0 0 0 4.7-1.1zm46-.9c-.7-.8-1.5-1.3-1.7-1-.7.6.7 2.5 1.9 2.5h1zm26.4 0c.9-.4 1.3-1 1-1.6-.3-.5-5.4-.9-11.5-.9H171v3h10c5.4 0 10.5-.2 11.4-.6zm-61.4-2.5c0-.5-.9-1-2-1s-2 .5-2 1 .9 1 2 1 2-.4 2-1zm29 0c0-.5-1.2-1.2-2.7-1.5l-4.5-1c-.9-.3-2 0-2.3.6l-.8 1.2 1.4.8c2 1.2 8.9 1.2 8.9 0zm-58-1c0-.5-.4-1-1-1s-1 .5-1 1 .5 1 1 1 1-.4 1-1zm17.5-1c-.3-.5-1.4-1-2.3-1h-1.7l1.5 1c2 1.3 3.3 1.3 2.5 0zm49.5-.4v-1.5l-2.5-.5-5-1-2.5-.6v1.5c0 .8 1 1.7 2.3 2l7 1.4c.4 0 .7-.5.7-1.3zm-66.4-3c.7-1.8-2.5-14.4-3.8-15.2-1-.7-1 1.4.2 5.6.6 2 1 5.2 1.2 7.3.1 3.8 1.4 5 2.4 2.2zm53.9-2.6.6-1-9.6.3 3.5.7c2 .4 3.8.8 4.2 1s1-.4 1.3-1zm30.9-4a20 20 0 0 0-7.5-1.5l-6.4-.4-3 2 4.2-.2c2.3-.2 4.5 0 5 .4.3.4 2.5.7 4.7.7h4zm-17.7-.6c-.3-.3-1.2-.3-1.9 0l-1.3.5h2c1 .1 1.6-.1 1.2-.5zm-42.7-1.4c0-.5-.2-1-.4-1s-.8.5-1.1 1-.1 1 .4 1 1.1-.4 1.1-1zm41.9-1.8c.9.2 2.7-.6 4-1.9l2.4-2.3h-2.6c-1.4 0-2.9.5-3.2 1s-2 1-3.5 1c-3 0-4.5 1.3-3.5 3l.6 1 2-1c1.2-.6 2.8-1 3.8-.8zm-40.9-4.1c0-1.6-.4-3.2-.9-3.5-1-.7-2.4 4.1-1.6 5.5 1.2 1.9 2.5.9 2.5-2zm6.5.7c.2-.7.6-4.7.8-9l.5-7.8h-.8c-1 0-3 9-3 14v4h1c.6 0 1.2-.5 1.5-1.2zm62.2-.4c-.3-.3-1.2-.3-1.9 0l-1.3.5h2c1 .1 1.6-.1 1.2-.5zm-33.7-1.4c0-.5-.4-1-1-1s-1 .5-1 1 .5 1 1 1 1-.4 1-1zm-14.2-10c.3-7.6-.4-12.7-1.5-11.6-.8.8-1 2.7-1.6 11.8a25 25 0 0 0 .1 7.3c.3.3 1 .4 1.6.2l1.1-.3zm27.2 4.5v-1.6l-1 .6c-.6.4-.8 1.1-.5 1.6.9 1.4 1.5 1.1 1.5-.6zm22.5-5.5c.3-.5 0-1-.9-1-.8 0-1.8.5-2.1 1s0 1 .9 1c.8 0 1.8-.4 2.1-1zm-15.3-3.5.7-2.8-1-1.3c-.6-.8-1.5-1-2-.8-.5.3-.9 2.4-.9 4.6v4l1.2-.4c.7-.2 1.5-1.7 2-3.3zm27.8 2.5c0-.6-.6-1.3-1.4-1.6l-1.5-.5.6-1.4c.3-.8.2-1.5-.3-1.5-.4 0-2.2.6-4 1.2s-3.4 1.9-3.4 2.7v1.4l2-.6c1.1-.2 2 0 2 .4s1.4 1 3 1 3-.5 3-1zm66.7-8.2-.4-1.3h-4.1c-2.3 0-4.2.3-4.2.7 0 .4 1.7.9 3.8 1.1l4.5.6c.5 0 .7-.4.4-1.1zm-11-.4c-.3-.3-1.2-.3-1.9 0l-1.3.5h2c1 .1 1.6-.1 1.2-.5zm8.3-3.8c0-.2-.2-1-.6-1.9l-.5-1.4-2.4 1.1c-1.4.6-2.5 1.4-2.5 1.7 0 .4 1.4.7 3 .7 1.7 0 3 0 3-.2zm-44.5-1.5c.3-.5 0-1.2-.5-1.6l-1-.6v1.6c0 1.7.6 2 1.5.6zm5.5-1.2c0-.6.6-.8 1.4-.5.8.3 2 0 2.6-.8l1.1-1.4-1-.6c-.5-.3-1.3-.1-1.6.5-.4.6-1.3.8-2 .6-1.5-.6-3.8 1.7-2.8 2.7 1 1 2.3.8 2.3-.5zm35-2.4c0-.8-.4-1.5-1-1.5s-1 .7-1 1.5.5 1.5 1 1.5 1-.6 1-1.5zm-25.1-.8 1-1.3-2-2 3.6-6.3 4.4 5.4v-3.7c.1-4 1.5-5 2.4-1.8l.5 1.9 3.6-1.7c2-1 3.6-2.2 3.6-3 0-.6.6-1.2 1.3-1.2.6 0 2.4.7 4 1.5l2.7 1.4.6-1c.3-.5-.2-1.1-1-1.5l-1.6-.6v-4.8l-7.7 1.3-2.9-4.1-12.6-.6-1.9 2.3a21 21 0 0 0-3 6.2l-1.2 4-4.7 3v3c0 1.6.4 3 1 3s1.3-1.3 1.6-2.7l.7-2.7 1.2 1.7 1.3 1.7.6-1.7.7-1.7 2.2 2.3-1.2 1.5c-1.3 1.4-.7 3.5.8 3.5.5 0 1.4-.6 2-1.3zm29.1.9c0-.2-.4-.7-1-1s-1-.2-1 .4.5 1 1 1 1-.2 1-.4zm23.4-1.1c1-2.5.7-3.7-.6-3.2-.7.2-1.3 1.4-1.4 2.6-.1 2.5 1.1 2.9 2 .6zm-8.4-3c.7-.8 1-1.8.6-2.2-1.1-1.1-13-1.4-15.7-.4l-2.4 1 3 .2c1.7 0 3.9.2 5 .3l2 .1-.5 2.5h6.8zm5 .5c0-.5-.4-1-1-1s-1 .5-1 1 .5 1 1 1 1-.4 1-1zm-45-1.5c0-.8-.4-1.5-1-1.5s-1 .7-1 1.5.5 1.5 1 1.5 1-.6 1-1.5zm13 .5c1.1-.6 2-1.8 2-2.7v-1.6l1.3 1.5c.6.9 2 1.8 3 2.2 2 .7 3.4-1.2 1.3-2-.9-.3-1.6-1.3-1.6-2v-1.6l-2.6.7c-3 .7-7.4 3.4-7.4 4.5 0 .8 1 2 1.7 2 .3 0 1.3-.4 2.4-1zm49.5-2 .6-1h-4.6l1.5 1a7 7 0 0 0 1.7 1c.1 0 .5-.4.8-1zm-36.5-5c0-.5-.4-1-1-1s-1 .5-1 1 .5 1 1 1 1-.4 1-1zm31.2-8.5c-.2-2.2-.6-4.1-.8-4.4-.2-.2-1 .2-1.9 1-1.4 1.1-2.9 1-7-.6l-1.8-.8.7 3.3c.3 1.9 1.1 4 1.8 4.7l1.1 1.4 8.2-.6zm-25.2 2c-.7-.8-1.6-1.5-2.1-1.5s-.9.7-.9 1.5v1.5h4.2zm11-3.4c0-.5-.4-1.2-1-1.6l-1-.6v1.6c0 .8.5 1.5 1 1.5s1-.4 1-.9zm-12-12c0-.6-.2-1-.4-1s-.8.4-1.1 1-.1 1 .4 1 1.1-.5 1.1-1zm-.7-10.5c1.5-1.4 2.7-2.7 2.7-3 0-.7-6-1.8-6.7-1.2-.3.3 0 1.2.6 2l1.2 1.5-1 .6c-1.3.8-1.5 2.6-.3 2.5.4 0 2-1.1 3.5-2.4zm85.3-5.5c-.4-.6-1.7-1-3-1-3 0-6.6 1-6.6 2s8.2 1.7 9.4.8c.4-.4.5-1.2.2-1.8zM178 323.7c-1.4-.2-4-1-5.6-1.8s-3.7-1.5-4.3-1.5-1-.5-1-1c0-.7.5-1 1.3-.6s3.5.8 6.2 1.2 5.5 1.1 6.2 1.7c1.3 1 1.7 2.8.5 2.6l-3.3-.6zm-20.5-1.3-3-.7h4.5c2.5 0 5.6.3 7 .7l2.5.8h-4a30 30 0 0 1-7-.8zm122.5-1-17.4-.8c-1.6-.1-2.6-.4-2.3-.8.8-.8 30.2-.5 33.5.3 1.2.3 2.2 1 2.2 1.4 0 .5-.3.9-.7.8l-15.3-1zm-227.6-6.5a33 33 0 0 1 .1-8.8c.5-3.4.8-8.5.9-11.4 0-2.8.6-5.7 1.3-6.3l1.1-1.1 1.3 9.7-1 2.8c-.6 1.5-1 5.9-1 9.6 0 3.8-.5 7.2-1 7.5l-1 .6zm119.6.5v-1l5.8.2c3.1 0 7 .4 8.7.8l3 .8-17.5.2zm21.8.3c1.2-.2 3-.2 4 0 1 .3 0 .5-2.3.5h-4zM79 314.5c0-.6 1.1-1.5 2.5-2s2.5-1.7 2.5-2.5v-1.6h2.4c1.3 0 3.9-.2 5.7-.5l3.4-.6-5.8 5.3-2-.5-2-.6-1.1 1.4c-.6.7-2.1 1.6-3.3 2l-2.3.7zm280.5-.9c-.4-.4-2.5-.8-4.8-.9-2.3 0-10-.6-17.2-1.2s-18.5-1-25.2-1H300v-2l71.5 1.2 1.8 1c1 .5 1.7 1.4 1.4 2l-.4 1.2-7 .2a26 26 0 0 1-7.8-.5zm21.3-2.4c1.2-1.2 2.5-1.8 2.8-1.5 1 1-1.6 3.7-3.4 3.7h-1.6zm352.4 1c-.7-.7-4.3-1.5-8-1.8l-6.5-.5-.8-2.4 27.1.4-.3 1c-.2.6-1.7 1.4-3.3 2a34.6 34.6 0 0 0-6.7 2.5c-.2 0-.9-.5-1.5-1.2zM263 310.4l-9.7-2c-3.5-.6-6-1.5-5.8-1.9.6-1 21.4-.4 26 .8 2.2.6 5.7 1.1 7.8 1.1 2 0 3.7.5 3.7 1v1h-8a74 74 0 0 0-9.2.4c-.7.2-2.9 0-4.8-.4zM62 298.2c0-6.7-.5-14-1-16-.6-2.1-.8-4.7-.5-5.7s1.3-2.2 2.2-2.5c.9-.3 1.7-.5 2-.3l.9 9.9.7 9.6-2.3 1.4v15.8h-2v-12.2zm629.3 11.6c-.7-.3-1.3-1.4-1.3-2.4v-2h1.5c.8 0 1.9 1 2.5 2s1 2.2 1 2.5c0 .6-2 .6-3.7-.1zM75 306v-37.8c0-.7.4-1.9 1-2.7l.8-1.4 1.7 1.7c.9.9 2 1.6 2.6 1.6.5 0 .9-.9.9-2s.5-2 1-2c1.1 0 1.1-.2 1.5 6.7l.4 5.2-2 1.7a11 11 0 0 0-2.5 5.5l-.6 3.8-3 1.1.4 9.2.3 9.1-1.2.5c-.7.2-1.3.1-1.3-.2zm5-35-1-1 .2 8 1.8-6-1-1zm263.3 33c-3.4-.6-6.5-1.4-6.9-1.8s1-.8 3-.8h3.7l-.6-1c-.6-1 .9-1.4 3-1 .6.1 6 .2 12.3.1l11.2-.1v2l-4.2.2-9.5-.1-5.3-.3v1.1c0 .6 1.1 1.1 2.4 1.1s2.8.5 3.1 1l.6 1-3.3-.1c-1.8 0-6-.6-9.5-1.3zm525.2-2.3a53 53 0 0 1-3.5-13.1v-1.4l1.5 1.2c.8.7 1.5 2.3 1.5 3.5 0 4.2 1.3 8.6 2.3 8.3l1.1-.4-.6-19.5-1.8-4.1c-1-2.3-1.6-4.6-1.3-5 .3-.5 1.2-.2 2.2.5a12 12 0 0 0 3 2l1.4.3-.2 14.3c-.1 7.9-.5 15-.8 15.7-1 2.6-3.2 1.5-4.8-2.3zM713 303.4c0-1 4-1 8.5 0l3 .8-11.5.2zm18.8-.3c-2.1-.5-3.8-1.4-3.8-1.8 0-1.4 4.5-1 8.4.7 2 .8 3.6 1.7 3.6 2 0 .7-4 .3-8.2-.9zm-477.8-.7c0-.5.9-1 2-1s2.2.5 2.5 1l.6 1h-2.5c-1.4 0-2.6-.4-2.6-1zm450.5-1.1a18 18 0 0 1-4.7-3.2l-.7-1.2-31.6-1 1-2h8.3c4.5.1 8.2-.1 8.2-.5 0-.3-1.3-1.3-3-2.3l-2.9-1.7-8 1.3v-1a4 4 0 0 1 1-2c1.3-1.2.8-7.8-.6-7.8-.5 0-1.1 1.7-1.3 3.8l-.3 3.7h-2c-1 0-1.9.5-1.9 1.2v1.1l-22-1-.4 1.4c-1 2.4-2.4 1.4-3-2l-.6-3.2 1.3-5c.7-2.7 1.3-5.5 1.3-6.2-.1-2-1.8-2-3 .2a11 11 0 0 1-2 2.7l-.8.6 1.1.7c.6.4 1.1 2.2 1.1 4v3.4l-2.2.7c-5.6 1.6-10.8 4-10.8 5.2 0 .6-.8 1.6-1.8 2.1l-1.8 1-2.9-1.8 1-1.7c.7-1 3-2.4 5.4-3.2l4.3-1.4-1.2-7.6 3-1.8c1.6-1 5.8-4.7 9.4-8.1 3.6-3.5 6.7-6.3 7-6.3.2 0 .6 1 .9 2l.5 2-2.4 3c-2.5 3-3 5.5-1.4 6.5l1 .7 1-2.6c.5-1.4 1.6-2.6 2.4-2.6h1.4l.5 2.6.4 2.5-1.6.9c-.9.5-1.3 1.2-.9 1.6.4.4 2-.3 3.4-1.4 1.5-1.2 3.1-2.2 3.7-2.2.5 0 1.5.7 2.1 1.5l1.1 1.4 5.5-1v-3.5c0-1.8-.4-3.4-1-3.4s-1 1.2-1 2.5-.5 2.5-1.1 2.5h-1.1l.7-3.7 1.1-4.4c.2-.4 1.3-.4 2.4-.1l2 .5-1.2 6.4 2.5 1.6c1.4 1 2.8 1.4 3 1s.7-2 .7-3.7c0-1.7.7-3.9 1.5-5l1.4-1.8 1.6.6c1.7.7 2 2.4.5 4.6l-.9 1.5 2 2.4-.6 3.5c-.4 2-1.3 3.7-2 4-.9.3-1.5 1.3-1.5 2.1v1.5h4.7l1.1-2.5c.7-1.4 1.2-4 1.2-5.9v-3.2l3.8-3.5.6 2.6c.4 1.4 1 2.5 1.6 2.5s1-1.2 1-2.7v-2.8l1 1.5a6.5 6.5 0 0 1-1 8c-1 1.1-2.2 2-2.5 2s-.5-.8-.5-1.9-.4-2.2-.9-2.5-1 2-1.4 5.1c-.3 3.2-.4 6 0 6.5.2.5 1.5.8 2.9.8h2.4V289c0-.8.4-1.7 1-2l.8-.6-.5 2c-.3 1.1 0 2.7.6 3.5l1.2 1.4 14.8 1.4-.2 1-.2 1 14.8 3 1.6-1.1c.9-.7 2.7-1.6 4-2.2l2.4-1 5.8 1.1c3.2.7 6.7 1.8 7.6 2.6l1.8 1.5-3.5-.7-8-1.5-4.5-.8-5.8 2.8H711v1.5c0 .9-.6 1.5-1.2 1.5-.7 0-3-1-5.3-2.1zm-47.3-15.4c0-.5-.5-1-1.1-1.3-.6-.2-1 .4-1 1.3s.4 1.5 1 1.3c.6-.1 1-.7 1-1.3zm8.8-.5c.6-1.1 1-2.6.7-3.3l-.5-1.2-.1 1.7c0 .9-1 1.9-2.2 2.2l-2 .5.6 1c.3.7 1 1.1 1.5 1.1s1.4-.9 2-2zm-13-.5c0-1.8-2.1-1.5-2.8.4-.2.6.4 1.1 1.2 1.1.9 0 1.6-.7 1.6-1.5zm-18-3.5v-3.1l-1 .3c-.7.2-1.1.7-1 1.1v2.7c0 1.1.5 2 1 2s1-1.3 1-3zm10.8 1.3c-.4-2.1-2.2-2-2.6.2l-.3 1.5h3.3zm18.2-2.3c0-.5-.2-1-.4-1s-.8.5-1 1-.2 1 .3 1 1.1-.4 1.1-1zm-7.5-2c-.3-.5-1-1-1.6-1s-.9.5-.9 1 .7 1 1.6 1h1.5zM316 301.3l-2.5-1-12.6 1 .4-1.2.4-1.2 7.9.2c10.6.2 20.4 1.4 20.4 2.5 0 1.2-11 1-14-.3zm-233.9-5.1c0-1.8.4-5.5.9-8.3l.7-5 .3 16.5h-1c-.5 0-1-1.4-.9-3.2zm187.7.5c-2.1-.2-3.8-.8-3.8-1.3v-1l5.8.4c3.1.3 9.2.5 13.5.6h7.7v2l-9.7-.1a234 234 0 0 1-13.5-.6zm-17.3-1.3c.3-.5 2.2-1 4-1s3.5.5 3.5 1v1h-8zm71.2.3c1.8-.2 5-.2 7 0 2.1.2.7.4-3.2.4-3.8 0-5.5-.2-3.8-.4zM836 295c0-.8.5-1.5 1-1.5s1 .7 1 1.5-.4 1.5-1 1.5-1-.6-1-1.5zm-756.8-3.5c0-1.3.2-1.9.5-1.2.2.7.2 1.8 0 2.5-.3.7-.5.1-.5-1.3zm230.8.4c0-.8-.9-1.8-2-2s-2-1-2-1.6v-1l2.8.7c3.7 1 7.4 3.4 6.7 4.6-.3.5-1.7 1-3 1H310zm-126.2-.8c-5.3-.6-10-1.4-10.4-1.8A71.3 71.3 0 0 1 199 292c0 .6-3.6.4-15.2-1zm521.6.2a8.7 8.7 0 0 1-4.3-3l-1.3-2 2.9.7c3 .8 5.4 1 20.8 2 10.6.7 15 1.3 14.3 2.1-.3.3-7 .6-14.9.8-8 .1-15.8-.2-17.5-.6zm-431.4-.8c0-.5 1-1 2-1s2 .5 2 1-.9 1-2 1-2-.4-2-1zm561.6-3.1c-.2-.8-.7-5.3-1-10.1l-.5-8.8h2.6l.6 8.4c.3 4.5.7 8.9.9 9.6.4 1.7-2 2.6-2.6.9zm-521.3-1.5c-2-.8-1.5-2.4.9-2.4a7 7 0 0 0 4-1.6l1.7-1.6 18 1.5-1.1 2-16-1.5-2 2.1c-1.9 2.1-3.1 2.5-5.5 1.5zm547.4 0c-.4-.4-.7-2.9-.7-5.6v-4.8l-2-2.9c-2.2-2.8-2.4-6.2-.5-6.2.6 0 1.2 1 1.3 2a3.6 3.6 0 0 0 2.3 2.7l2 .6-.2 7.4c0 4.1-.4 7.4-.8 7.4s-1-.3-1.4-.6zm-561.2-1.2-3-.7 1-.7c1.5-.9 9.5.3 9.5 1.4 0 1-3 1-7.5 0zm456.6-.6-3.4-1.3 1.2-.7c.6-.4 1.1-1.1 1.1-1.6v-1h-13v-2l9.2.4 1.6-2.7 1.7 1.7a6 6 0 0 0 3.6 1.6h2v1.6c0 .8.9 1.9 2.1 2.3l2.2.8-2.1 1.2a8.3 8.3 0 0 1-2.5 1l-3.7-1.3zm-504.6-.6c-2.7-.3-4.8-.8-4.5-1s6.2-.4 13.3-.6l12.7-.3v1c0 .5-.8 1-1.7 1-8.5.5-15.6.5-19.8 0zm-11.5-1c0-.5 1.1-1 2.4-1s2.8.5 3.1 1l.6 1h-3c-1.7 0-3-.4-3-1zm465.5 0c.4-.5 1-.7 1.6-.4 1.4.8 1.1 1.4-.7 1.4H706zm-277.5-2c0-.5.5-1 1-1s1 .5 1 1-.4 1-1 1-1-.4-1-1zm334.5-1-.6-1h2.8c1.5 0 3.5.5 4.3 1l1.5 1h-3.7c-2 0-4-.4-4.3-1zm-65.5-1c0-1.2 4-1.2 6 0l1.5 1h-3.7c-2.1 0-3.8-.4-3.8-1zm152.6-1.4c-.9-1.4-1.6-2.8-1.6-3.1 0-.4-1.1-2-2.5-3.6-1.4-1.7-2.5-3.7-2.5-4.5s.8-2.9 1.7-4.4l1.7-3-2.3-6.5.4-21.8.4-22 1-1c.6-.6 1.1-2.3 1.1-3.8s.7-4.6 1.6-6.7l1.5-3.9-1.6-4.4a22 22 0 0 1-1.6-5.4l.5-7.5c.2-3.5.7-14.3 1-24s1.2-17.9 1.7-18.4 1-2.3 1-4c0-3 1-7.3 3.6-13.6l1.3-3.5-1-3.5c-1.3-4.4-1.3-15.7 0-16.5.6-.3 1-3.4 1-7s.4-6.6.9-6.9c.5-.3 1.2-1.8 1.6-3.2a7.8 7.8 0 0 1 2.2-3.9l1.5-1-1.4-9.3-2.1-.6a20 20 0 0 0-4.2-.5 18 18 0 0 0-6.7 4.2c-5.6 5-10.4 8.7-11.2 8.7-.4 0 0-1.3 1-3a8.6 8.6 0 0 1 3.2-3.7 26 26 0 0 0 6-4.7l4.3-4 5.2.1c2.9 0 5.8-.3 6.5-.9.6-.5 1.2-2.4 1.2-4.2v-3.2l2.3-1 5-2.2 2.6-1 1.4 2.2-7.3 5.8V55c0 1.3.5 2.6 1 3 1.4.8 1.3 4.4-.1 4.4h-1.1l.6 2.6c.4 1.5.3 3.2-.2 3.8-.5.6-1.2 3.2-1.6 5.6l-1.5 9-.7 4.5-.8-2c-1.3-3.5-3.4-7-4.3-7-.4 0-1 1.7-1 3.7l-.4 3.7 4.6 4.2-.1 3.8a13 13 0 0 1-1.7 6.2l-1.5 2.4-.3 5.5a98 98 0 0 0 0 7.9l.1 2.3 4.2 1.1-.6 4.1c-.4 2.3-1.1 4.6-1.7 5.1l-1 1-1-1.5a10 10 0 0 1-.9-3.7c0-1.2-.4-2.3-1-2.3-1.3 0-2.2 3.8-1.5 6.9l.6 2.8-3 2.6v24.9l-1.2 2c-.6 1.1-1.2 6.4-1.4 11.7l-.3 9.6 1.6 6.9 1.6 6.8-1 .7c-.6.3-1.4 3.5-1.8 7s-1.2 7.4-1.8 8.8l-1.1 2.4 1.1 1.2c.7.6 1.2 1.7 1.2 2.5v1.3l-1.7-.3-1.8-.3.4 1.5a547.2 547.2 0 0 0 5.5 18.8c.4.3 1.3-.3 2-1.3l1.5-2v1.8c.1 1-.3 1.7-.9 1.7s-1 1.2-1 2.5v2.5h-1.4c-.7 0-1.7-.7-2-1.7l-.7-1.7-1 1.5c-.4.8-.9 3-.8 5a50 50 0 0 0 4.9 16.2c.7 1.5 1 3 .6 3.5s-2-.8-3.4-2.6c-1.5-1.8-3-3-3.5-2.6-1.5 1.6-.6 4.4 2.2 7.1l2.9 2.8.6 3.3c.3 1.8.2 3.2-.3 3.2s-1.6-1-2.5-2.4zM859 96c0-1.4-.4-2.6-1-2.6s-1 1.2-1 2.5.5 2.5 1 2.5 1-1 1-2.5zm6.4-19c-.3-.8-1-1.3-1.5-1l-1 .6 1.2 1.4c.7.8 1.4 1.3 1.6 1.1s0-1.1-.3-2zm1.6-15v-3.6l-1.2.4c-.7.2-1.4 1.8-1.6 3.6l-.3 3.1h3.1zm-91 214.5c0-.5 1.4-1 3-1s3 .5 3 1-1.3 1-3 1-3-.4-3-1zm-484.5-1c-1-1.6.3-2.5 1.6-1.3l1 1.1-1 .6c-.5.4-1.3.2-1.6-.4zm8 0a.8.8 0 0 1 .2-1.2c.5-.2 3.2-.2 6 0l5.3.4-.6 1c-.7 1-10.3.8-11-.3zm21.5 0a13 13 0 0 0-5.3-1h-3.8l1.2-4h-3.3l-25.7-.5-22.4-.4-1-1-1-1 3.4-.2c1.9 0 7.5 0 12.4.2 18.3.5 26.3.4 40.4-.2l14.3-.7 2.7.9c1.4.4 10.7 1 20.6 1.3l24 .7 6 .2-5.5.8c-5.2.7-13.5.5-34.2-.6l-8.8-.4v1c0 .5 1.1 1 2.5 1s2.5.4 2.5 1v.9l-9-1.2-3.7 1.7-4.3 2.1c-.3.2-1.2-.1-2-.6zm59-1-6.5-.6 16.4-.4 1.2 2-2.3-.1-8.8-.9zm313-2c0-1.6.5-3 1-3s1 1.1 1 2.5-.4 2.7-1 3l-1 .7zm66.5 2c-.3-.5-.1-1 .5-1s1 .5 1 1-.2 1-.4 1-.7-.4-1-1zM369 274c0-.2.7-.6 1.5-1 .8-.2 1.7 0 2 .5l.6 1h-2c-1.2 0-2-.2-2-.5zm201.7-.7 1.2-1.1-1-2.4-.8-2.4h1c2 0 5 2.1 5 3.5 0 1.5-3 3.5-5.2 3.5h-1.3zm214.8 0c-.4-.5-.5-1.2-.2-1.5.8-.8 4.7.6 4.7 1.7 0 1.3-3.7 1.2-4.5-.1zm-53.7-2.4c-1.5-.8-4.6-1.7-7-1.9l-4.8-.5c-.3 0 .1-.5.9-1 1.6-1 8.8-.2 11.6 1.3 1.1.6 4 1 6.5 1 2.5.1 4.7.6 5 1.1l.5 1-10 .5zm-338.3-.5-.6-1h2.6c1.4 0 2.5.5 2.5 1s-.9 1-2 1-2.1-.4-2.5-1zm141.7.2-4.4-.3 3.7-2.7-7-.7a247 247 0 0 0-32.5-3l-17.5-.7 2.2-.8c2.4-1 45.4-3 46.6-2.3.4.3.5 1 .1 1.5l-.6 1-8.6-1.3-1.2 2 4.2.6 10.8 1.3 6.5.8-.3 1.7-.3 1.7h31l1.2 2-14.8-.2c-8.1-.1-16.7-.4-19.1-.6zm163.6-2.7c-.2-1.9 0-4 .6-4.5 1.3-1.3 5.6-1.3 5.6 0 0 .6-.9 1-2 1h-2v3c0 1.6-.4 3.2-.9 3.5s-1-1-1.3-3zM421 269.2c-14-1.3-19.8-1.6-35-2.3-8-.3-18.5-1.2-23.5-2a263 263 0 0 0-19.2-2l-10.3-.7.6-.9c.7-1.1 12.6-1.1 19.5 0l12.4 2.2 7 1.1 56.3.9 9.3-2 4.2 2.2 38 1.3c21 .8 38.2 1.6 38.4 1.8s-3.3.7-7.9 1c-11 .8-79 .3-89.8-.6zm103.3.5c1-.2 2.3-.2 3 0 .7.4-.1.6-1.8.5h-3zM868 265c-.7-.8-1-2-.6-2.5.3-.6 1.5-1 2.6-1h2l-.3 2.1c-.2 1.2-.8 2.3-1.4 2.5-.6.2-1.7-.3-2.3-1zm-144.5-1-3-1.5 4 .5 5.3.5c.6 0 1.2.5 1.2 1 0 1.5-4 1.2-7.5-.5zm19.5.6-2.5-.7 1.6-.6a4 4 0 0 1 3 .3c.7.4 1.1 1 .9 1.2-.3.2-1.6.1-3-.2zm49.5 0c-1-.5-5.7-1-10.3-1h-8.4l.5-1.3.4-1.3 6-.3c3.3-.1 8.2.1 11 .6l4.8.8v1.4c0 .7-.4 1.5-1 1.6-.5.2-1.9-.1-3-.6zm-532.7-.8c.7-.2 1.6-.2 2 .1.3.4-.3.6-1.4.6l-1.9-.1zm49.7-.3-.6-1h2.8c1.5.1 4.6.5 6.8 1l4 .8-12.4.2zm-61.2-.7c1-.2 2.3-.2 3 0 .7.4-.1.6-1.8.5h-3zm1.7-3.3c0-.5 1.6-1 3.4-1s3.8.5 4.1 1l.6 1h-8zm281.5-.5-5-1.3H509c-19.7-.2-33.4-1-32.2-2.2.4-.4 14-.3 30.3.2s31 1.1 32.8 1.4c3.4.6 4.5 2.4 1.3 2.4-1 0-2.5.2-3.3.4-.7.2-3.5-.2-6.3-.9zm-403.5-.5c0-.5.5-1 1-1s1 .5 1 1-.4 1-1 1-1-.4-1-1zm110.8.3a17 17 0 0 1 4.5 0c1.2.3.2.5-2.3.5s-3.5-.2-2.2-.5zm626.6-1.6-2.2-1-.7-7.4c-.4-4.1-.4-7.7 0-8 1.3-1.4 2.8 2 3.2 7.4l.4 5.8 1.5 1.1c1.5 1.2 2 3.5.7 3.3-.5 0-1.8-.6-3-1.2zM691.5 256c-2.2-.7-3.3-1.4-2.5-1.5 2.6-.3 6.5.2 7.3 1l.9.8-.9.5c-.4.3-2.6-.1-4.8-.8zm-13.5-.5c0-1.1 1.4-1.1 5 0l2.5.8-7.5.2zm40.4-.5-.6-1.5h-3.3c-4.1 0-9.5-1-9.5-1.8 0-.4 2.3-1.7 5-2.9l5-2.1v-3.9l-9.9 1-.4-3.9-.4-3.9-.7 2.2-.8 2.2-1.9-.2c-1 0-1.9-.4-1.9-.9 0-.4.4-.8 1-.8.5 0 1.1-.8 1.5-2l.6-1.9 1.4.6c.7.2 1.6 0 2-.6.3-.6 1.3-1 2-1h1.5v3.7l3.2 1.1c1.7.6 3.5 1.1 4 1.1s2.3-1.3 4.2-3l3.4-3 .7 1c.3.5-.4 1.4-1.5 2a17 17 0 0 0-4.4 6.5l-2.4 5.3-2.1.7c-1.1.4-2 1-2 1.6 0 .5.8 1 2 1 2.2 0 7 2.7 7 4 0 1.5-2.1 1-2.7-.6zm34.6.5c-.8-.4-3.6-1.1-6.2-1.5-2.6-.4-4.8-1-4.8-1.6s1-.9 2.3-.9c3.2 0 9.5 2 10.3 3.1.9 1.5 0 2-1.6 1zm-647-2c-.8-.5-2.5-.6-3.7-.3l-2.3.5v-2.3l8.4.6.4 1.3c.4 1.5-.7 1.6-2.8.3zm651.6-3.6a20 20 0 0 0-7.2-3.4h-2.5l-6.9-6.9.6-1.5c.8-2.2 2.4-2 2.4.3 0 1 .8 2.6 1.8 3.5 1 .9 3.4 2 5.3 2.3s5.8 2.2 8.7 4.1l5.2 3.5 1.8-1.6c1-1 2.8-1.7 4-1.7 1 0 2.5.7 3.2 1.5l1.3 1.5-5.9-1.1-1.3 1.5c-.7 1-2.3 1.6-3.5 1.5a20 20 0 0 1-7-3.5zm72.4-1.3-2-4V239c0-3.1-.6-6.5-1.2-7.6l-1.3-2 1.4-2.1c2-3.3 4.2-10 3.5-11l-.6-1-1.4 1.2c-.8.7-1.4 2.4-1.5 3.8l-.1 2.6-.5-1.8a21.4 21.4 0 0 1 3.4-11.9l1.3-1 1.6 3.8 1.6 3.8-1.2 3.7-1.2 3.6 1.3 4.3h-4v1.8a5 5 0 0 0 1.1 3l1.3 1.3-.2 5.9-.1 5.9 1.9 1.7c1 1 2 2.6 2 3.6v1.8h-1.6c-.8 0-2.4-1.7-3.5-4zm-322.2 2-38.7-.6-2-2h97.4l.3 1.5.3 1.5h-9.3l-48-.5zm192.9-1.7c-1.3-1.3-.7-2.4 1.4-2.4h2l-.3 1.2c-.5 1.5-2.2 2.1-3.1 1.2zM278 246.4c0-.5.5-1 1-1s1 .5 1 1-.4 1-1 1-1-.4-1-1zm-141.5-.9c-.3-.5 0-1.2.5-1.6l1-.6v1.6c0 1.7-.6 2-1.5.6zm199-1c.5-.9 7.2-.7 8.2.3.4.3-1.5.6-4 .6s-4.6-.3-4.3-.8zm11.3.2c1.2-.2 3-.2 4 0 1 .3-.1.5-2.3.5h-4zm386.8-2.5a8.1 8.1 0 0 1-1.6-3.7V237l2.5 2.7c1.4 1.5 3 2.7 3.6 2.7.6 0 .7.5.4 1-1 1.7-3.3 1.2-5-1.2zm57.2 1.4a34 34 0 0 0-5.9-4.5 23 23 0 0 0-7.8-3.7h-2.2l.6-1c1.3-2 4.9-.9 11.6 3.7 3.8 2.5 7 5 7 5.5 0 1-2.8 1.1-3.3 0zM163.3 242a16 16 0 0 1 5.7-2c2.2-.3 4-1 4-1.4s-.5-1.3-1.1-1.9-1.4-2.6-1.8-4.4l-.7-3.4-3 .2a37 37 0 0 0-5.7.9l-2.9.7.4-1.8.3-1.8 6.6-1.7-.7-3.5-.6-3.5h1.4c.7 0 1.9 1.4 2.5 3l1.1 3h4.2v-14.6l-2.3-2.3 1.7-.7c1-.3 3.5-.3 5.6 0 2.2.4 4 .4 4 0 0-.2-.6-1.7-1.4-3.3l-1.5-2.8 1.6-2.2 1.5-2.2.9.8c.4.5 1 3.2 1.1 6l.3 5.3h1c.6 0 1.9-.7 3-1.5 1.9-1.5 4-1 3 .6-.4.6-2.4 2.1-4.5 3.5l-3.9 2.4-.3 4.8-.3 4.7h-3l.4-3.5c.3-1.9.5-4.8.5-6.5l.1-3-5.8-.6.6 6.6a21 21 0 0 0 1.6 7.8c.6.6 1.1 1.5 1.1 2s-1 .7-2.4.7c-3 0-5.6 1-5.6 2.1 0 .5.9 1 2 1h1.8l-1 4 4.6 5-1 1a45 45 0 0 1-13.4 3.9h-1.5l1.8-1.4zm602.7-.3c-2-.9-4.8-1.8-6.5-2.2l-3-.6-.6-4.5h6.2l1.5 4.3 11 4.7H772c-1.4-.1-4-.8-6-1.7zm41.7 1c-.4-.3-.7-3.3-.8-6.7 0-3.3-.4-8.5-.8-11.4l-.7-5.3-4-4-7.5-1c-4-.6-7.6-1.3-7.9-1.6-.2-.2.2-.7 1-1.2l1.2-.8 10.8 2.5 3.2-3.6-.7-3.1-.7-3 3.5-9h2.3c1.3 0 2.4-.5 2.4-1s-.6-2.2-1.4-3.7-1.9-4.9-2.4-7.3l-1-4.5 2.2-4-.3-5.8-.2-5.8 2-5.5c2.3-6 4.9-10.5 6.1-10.5.9 0 3.5 7.4 4.4 12.5.3 1.7 1 7.7 1.5 13.4l1 10.3-1 6-1.1 6 2.2 1.4-1.3 7.5-1-.3c-.6-.2-1.5-2-2-3.8l-.8-3.3 1-4.1 1.2-4-.5-8.4a106 106 0 0 0-3.4-24.2l-1.6-5.5-.9 6.5c-.4 3.6-1.2 7.3-1.7 8.2l-1 1.8 1 2.6a17 17 0 0 1 1 5v2.4h-2c-1 0-2.2.5-2.5 1-.4.7-.1 2.5.5 4.1l1.3 3 3.1-.6 1.4 8-2.3 5-2.3.4c-1.2.1-2.6 1-3 2s-.8 4.7-.7 8.4l.3 6.8 3.5 5.4 1.3 8.5c.8 4.7 1.4 10 1.4 11.8v3.2h-1.3c-.8 0-1.7-.3-2-.6zM692 241.5a19 19 0 0 0-3.2-1.4c-1-.3-1.8-1.2-1.8-2v-1.6h2c1 0 2.6-.2 3.4-.6l1.6-.6v2c0 1.2.5 2.4 1 2.7s.8 1 .5 1.6c-.7 1.1-1.5 1.1-3.5 0zm82.4-1.5c-.9-2.1.5-3.3 1.6-1.4 1.3 1.9 1.2 3 0 3-.6 0-1.3-.8-1.6-1.6zm62.9-.7c-1.3-1.8-3.5-9.8-2.9-10.5.3-.3 1.2 0 2 .7 1 .7 1.6 2.5 1.6 4.1 0 1.5.5 3 1 3.4 1.2.8 1.3 3.5.1 3.5-.5 0-1.3-.5-1.8-1.2zm-43.5-2.1c-1.6-.6-2.8-1.4-2.8-1.9 0-1.4 3.7-.8 5 .8.7.8 1.1 1.6.9 1.8-.2.1-1.6-.2-3.1-.7zM213 231.6v-4.2h-1.2c-.6 0-.3-.6.8-1.4 1-.8 1.6-1.7 1.2-2.1s.2-1.9 1.2-3.2c2.2-2.8 2.6-5.3 1-5.3-.6 0-2 .5-3.1 1.1s-2.5.9-3.2.6c-.7-.2.6-1.2 2.8-2l4-1.8-3.2-3a17 17 0 0 1-3.3-3.4c0-.2.6-.5 1.3-.5.8 0 2.7 1.4 4.3 3 1.6 1.6 3.2 3 3.6 3 1.1 0 3.9-7 3.2-8-.3-.6-1-1-1.8-1s-2.1-.9-3-2l-1.9-2h1.5c.9 0 2.1.7 2.8 1.5s1.9 1.5 2.7 1.5 1.6-.6 1.9-1.3c.3-.7 0-4-.5-7.2-.5-3.3-.7-6.2-.5-6.4.5-.5 5.4 4.8 5.4 6 0 .5.5 1 1 1h1.1l-1.2 4h4.3l-.4 1.2c-.3.7-2 1.7-3.7 2.3s-3.7 1.7-4.2 2.5-.9 2.2-.9 3.2v1.7h4.3l-1.4 1.6c-.7.9-2.9 2.3-4.8 3.3-2 .9-3.7 2.4-3.9 3.4l-.3 1.7h1.2c.7 0 2-.6 2.8-1.3.9-.8 3.3-1.7 5.4-2l3.8-.5-.6.9c-.4.5-1.1 1-1.8 1s-3.4 1-6.2 2.5c-4.7 2.3-7.5 4.8-7.5 6.6 0 .5.7.8 1.5.8s1.5-.4 1.5-1 1-1.4 2.1-2l2.1-1.2 2.2 2.2h-1.2c-.7 0-2.2 1.6-3.3 3.5s-2.6 3.5-3.2 3.5c-.6 0-1.9.8-2.9 1.7l-1.8 1.6zm-23.5.8a47 47 0 0 1 17.5-.2c0 .4-4 .8-9 1l-9 .1zm537-1.6 1.1-4c.4-1.3 1-2.4 1.5-2.4s1-.6 1-1.5.4-1.5 1-1.5 1 .7 1 1.6v1.6l3.7-1.2.5 2.2.6 2.3-1.2.8c-.6.4-2 .6-3 .3l-1.8-.4-1.2 2c-.6 1-1.8 1.8-2.5 1.8h-1.4zm-542.5-.7c0-2 6.1-4.7 11-4.7h4v1c0 .6-1.6 1-3.5 1s-5.4 1-7.5 2l-4 2zm617.5.4c-.3-.5 0-1.2.5-1.6l1-.6v1.6c0 1.7-.6 2-1.5.6zm-659.8-.7c-1.2-1.2-.8-2.4.8-2.4.8 0 1.5.7 1.5 1.5 0 1.6-1.2 2-2.3.9zm610.8-.4a59 59 0 0 1 13.7-7c.4 0 .8.4.8.8s-2 1.4-4.4 2.1-5.2 2.2-6.2 3.2-2.3 2-3.1 2h-1.4zm-10.6-.7-3.7-.4-.4-3.5c-.4-3.8.7-5.6 1.5-2.4.3 1.1 1.3 2 2.2 2h1.6l-.7-3.5-.6-3.5h4.4l-.5 1.5-.6 1.5 1.9 1c1 .6 2.2 2 2.5 3l.7 2.1-1.2 1.5c-.7.8-1.7 1.4-2.4 1.3l-4.7-.6zM796 227c-.7-.8-1.9-1.5-2.6-1.5-.8 0-1.4-.4-1.4-1s.8-1 1.8-1c2.7 0 7.2 2.4 7.2 3.8 0 1.7-3.5 1.5-5-.3zm16 .8c0-.4.5-1.4 1-2.3l1-1.5 1 1.2c.7.6 1 1.6.6 2.2-.8 1.3-3.6 1.5-3.6.4zM205 225c0-1.5 2.1-2.6 5-2.6h2l-2 2c-1.1 1.1-2.7 2-3.5 2s-1.5-.6-1.5-1.4zm582-2.6c0-.5.7-1 1.6-1h1.5l-.6 1c-.3.6-1 1-1.6 1s-.9-.4-.9-1zm29.5-.9c-.3-.5 0-1.2.5-1.6l1-.6v1.6c0 1.7-.6 2-1.5.6zm-648.3-3.4a19 19 0 0 1-1.2-5.4c0-2.5 1.8-4 2.4-2 .8 2.5 1.3 10.7.7 10.7-.4 0-1.2-1.5-1.9-3.3zm609.9-.9a178 178 0 0 0-7-5c-1.4-1-2.6-2-2.6-2.4s1.8-.8 4-1l3.9-.3 1.3 2c.8 1 2.1 2 3 2h1.5l-.6-1.6c-.3-.8-.2-1.5.3-1.5 1.4 0 3.3 2.9 2.7 4-.3.4 0 1.6.9 2.4 1.7 1.7 2 3.6.6 3.6-.5 0-1.6.3-2.3.6l-1.4.5zm-2.9-6c-.6-.6-1.5-.8-1.9-.4s0 1.1.7 1.6c1.9 1.2 2.7.3 1.2-1.2zm-532.1 1.5c-.6-2-1-4.4-1-5.1l-.1-1.4 4.5 1.1 2-1.4c1-.8 2.2-1.5 2.7-1.5 1.4 0 .8 2.3-1 3.6-1 .8-2.5 1.4-3.6 1.4h-1.8l.6 3.5.7 3.5h-1c-.6 0-1.5-1.7-2-3.7zm480.1 1.4c2.7-.6 4.8-1.6 4.8-2.2 0-.5-1.5-1.1-3.5-1.3-2-.1-3.5-.7-3.5-1.2s1.8-1.2 4-1.6c2.2-.3 4.3-1 4.6-1.6l.6-1-5.3.5c-3 .2-10 1-15.7 1.7l-10.3 1.3-2.5-1.1c-1.4-.7-3.8-1.2-5.4-1.2-1.6 0-3.2-.4-3.5-1-.4-.6-1.8-1-3.3-.8l-2.5.3-.4-1.1-.4-1.1 3.3-.6c1.8-.3 9.6-.2 17.3.2l14 .8-13.7.3.9 2.5 13.7-.7 1-1.3c.6-.7 3.1-1.6 5.6-2 4.6-.9 22.7-1 45-.3l12.5.3.5 2h-13.3c-7.2 0-13.7.2-14.2.3-.6.1-.3.7.5 1.2s3.4 1 5.6 1h4.2l1.2 1.5c.7.8 1 2.1.7 2.9l-.5 1.3-5.9.8c-3.2.5-9.9 1-14.9 1-5 .2-12.9.5-17.5.9l-8.4.5 4.7-1.2zm21.3-10.7.6-1h-2c-1.2 0-2.1.5-2.1 1s.6 1 1.4 1 1.8-.4 2.1-1zm68.5 10c0-.5.4-1 1-1s1 .5 1 1-.5 1-1 1-1-.4-1-1zm5.4 0c-.3-.7-.1-1.6.5-2.3l1.1-1v2.1c0 1.2-.2 2.2-.4 2.2s-.8-.5-1.2-1zm48.2-3.5c-.3-1-.6-3.5-.6-5.8s-.5-4.8-1-5.7l-1-1.5-2 3-.1-5.5V187c.2-1 .9-2.6 1.6-3.5.7-.8 1.8-3.4 2.4-5.7.7-2.4 1.6-4.3 2.1-4.3s1 1.5 1 3.4v3.4l-4.2 5.3.5 3.2c.3 1.8 1.2 5.7 2 8.7s1.8 7.4 2.2 9.8l.7 4.2h-1.5c-.8 0-1.8-.7-2-1.5zM236 207.4l-1.4-1h2.7c1.6 0 2.8.2 2.8.4s-.6.6-1.3 1c-.8.2-2 0-2.8-.4zm305.8.4c-.3-.3-5.4-.7-11.2-.8H520l.2-1 .3-1 25.5-.1v1.2c0 .7-.7 1.5-1.6 1.8-2 .8-2 .8-2.7 0zm266.7-1.8c-.3-.8-.2-2 .2-2.7l.7-1.2 1.3 1.9c.8 1 1.4 2.2 1.4 2.6s-.7.8-1.5.8c-.9 0-1.8-.6-2.1-1.4zM636 203.7l-1.4-.5 6.6-2.8 2.2 2.1-1.5 1c-1.6 1-3.7 1-5.9.2zm194.2-.5c-1-1.6-3.2-9.7-3.3-12.2a7 7 0 0 1 1.9-4l1.8-2 .6-6.8.6-6.8h-1.2a6 6 0 0 1-2.5-.8l-1.3-.9-.5-7.9a28 28 0 0 0-1.4-8.8c-1.4-1.4-1.2-3.6.3-3.6.8 0 2.1.9 3 1.9l1.7 1.8v14.3h1c1.6 0 2.8-4.1 2.2-7.8l-.5-3.4 1.4.4c2.2.8 2.6 5 1.1 10.2l-1.4 4.8 2.2 2.2v-1.2c0-.6.4-1.2 1-1.2h1v4.5c0 5-1.7 9.5-3.5 9.5-.7 0-2.3.9-3.6 2l-2.4 1.9 2.5 2.5 2-2.2c1.2-1.2 2.5-2.2 3-2.2.6 0 1 .6 1 1.3v1.2l2-2.3c1.1-1.3 2-3 2-3.7s.6-1.7 1.4-2.4l1.4-1.2 1.2 7.3c.7 4 1.3 8.4 1.4 9.8 0 1.4-.3 2.8-.9 3l-1 .5-.7-4.9c-.4-2.6-1.1-5.3-1.6-5.8l-1-1-.6 5.7-.7 5.5H837l-.7-3.5a9 9 0 0 0-1.3-3.9c-.3-.2-1.5.2-2.5 1l-2 1.4 1.2 3.9a38 38 0 0 1 1.2 4.5c0 1.1-1.9.7-2.7-.6zm4.8-23c-.1-1.2-1.5-1-2 .3-.2.6.2 1 .8.8s1.2-.7 1.2-1.1zm63.1 23c-.5-.7-1.3-4.3-1.7-8l-.7-6.8 1.5.6c.8.3 1.8 1.6 2 2.8.3 1.2.9 4.5 1.3 7.4l.7 5.2h-1c-.6 0-1.5-.5-2-1.2zm-268.4-1.3c-.3-.3-10.8-.5-23.4-.5-12.6 0-28-.5-34.1-1.2l-11.2-1.1 1.2-2 22.1.9 32.6 1c11.2.1 17 1 17 2.5 0 1-3.3 1.3-4.2.4zm255.4-2.2c-.6-1.5-1.2-3.3-1.2-4s-1.2-2.4-2.6-3.6l-2.7-2.3.7-3.2c.4-1.7 1.1-3.2 1.6-3.2s1 1.5 1.2 3.2c.1 1.8.9 3.4 1.5 3.6l1.3.4v-3.3c0-1.7.2-3 .5-2.7s1 3.6 1.8 7.4a85 85 0 0 0 2.2 8.7l.7 1.7h-3.7l-1.3-2.7zM243 199c0-.9.7-1.6 1.6-1.6 1.7 0 1.4 2.2-.4 2.8-.7.2-1.2-.3-1.2-1.2zm259.5.6c-.3-.3-.5-.9-.5-1.4v-.9l24.2.2c13.4 0 25-.2 26-.6s3-.4 4.4 0l2.5.6-.4 1.2-.4 1.2-27.6.1c-15.2 0-28-.1-28.2-.4zm143-.2c-.4-.6-.3-1.5.1-2 1-.9 31.7-3.1 48.8-3.5l8.8-.2.7-1.1c.4-.6 3.6-3 7.1-5l6.5-4-.3-1.6-.3-1.6h3.8l9.3-9.9v-5.3l-3.5-2.8 10-9.7c5.6-5.4 11.2-11.2 12.4-13 1.3-1.8 2.7-4.9 3.2-6.8 1-3.8 2.9-4.7 2.9-1.5 0 1.1.3 2 .6 2s1.5-1 2.5-2.4 2.8-2.7 4-3c1-.4 2.8-2.5 4-4.6 1-2.1 2.7-4.4 3.8-5 1-.5 2.1-2 2.4-3.2l.6-2.3 3.5-1.9c2-1 4.7-3.5 6.1-5.6s3.3-4 4-4.4a55 55 0 0 1 6.6-1.2l5.2-.7-.5 1.4c-.3.8-1.7 1.6-3.1 1.7s-3.3 1.2-4 2.2c-.6 1-2.3 2.1-3.7 2.5-3.6 1.2-10.8 7.5-11.4 10.1-.4 1.3-1.4 2.6-2.5 2.9-1.8.6-4.1 4.4-4.1 6.8 0 .7-1.2 1.8-2.8 2.5-1.5.6-7.4 6-13.2 11.8a114.4 114.4 0 0 1-13.1 12 20 20 0 0 0-5.4 4.6l-2.7 3.3 1 9.4-1.9 2.5c-1 1.3-2 3-2 3.5 0 .6-1.7 2.3-4 3.7l-4 2.6-2.9 6.6-13.5 6.7 13 .6c7.1.3 10.7.6 7.9.7l-15.8.9-10.6.6v-3.3h-4.3c-2.3 0-7.6.5-11.7 1.1a248 248 0 0 1-13.5 1.4 273 273 0 0 0-21.7 2.1c-.9.3-2 0-2.3-.6zm-172.5-.9c0-.4.8-1 1.9-1.3a44 44 0 0 1 16 1.4c0 .4-4 .8-9 .8h-9zm-236-5.8a58 58 0 0 0-2.6-9l-1.4-3.4-3.5-1.4c-1.9-.8-4.4-1.5-5.6-1.5h-2.1l.6-1.5c.3-.8.2-1.5-.2-1.5-.5 0-1.6-.5-2.6-1.2l-1.7-1.3 1.1-3c.7-1.6 1.3-3.9 1.4-5v-2l8.3-.6 3.2 2.7c1.7 1.4 3 3.3 3 4 0 .8 1.2 2 2.6 2.4s2.5 1.4 2.5 1.9c0 1.5-3.2 2.2-4.6 1l-1.4-1.1v3c0 1.6.9 4.1 2 5.5l2 2.5v4.1c0 2.3.4 4.1.8 4.1s1.3-.5 2-1.2c1.5-1.5 2.8-.2 1.4 1.5-.5.7-1.2 2.3-1.4 3.7s-.8 2.5-1.5 2.8l-1.1.3zm-5-19.7c0-.3-.5-.7-1-1s-1-.2-1 .4.4 1 1 1 1-.2 1-.4zm-4.5-2c2-.8 3.5-2 3.5-2.7 0-1.5-3-3.8-5.3-3.8H224v1.9c0 1-.5 2.2-1 2.5-1.3.8-1.3 3.5 0 3.5.6 0 2.6-.6 4.5-1.4zm404.6 25a86.4 86.4 0 0 0-14.7-8.5c-6.8-3.4-12.6-6.6-13-7.1-.3-.5-1.4-1-2.5-1s-3.3-.6-4.8-1.4l-2.8-1.4-2.3-8-9.2-1-5.8-6c-3.1-3.3-7.6-8.8-10-12.2-5-7.3-7.3-10.2-16.1-19.3-3.7-3.8-7-6.4-7.2-6-1 1.5 4 8 7 9.5 1.4.7 2.8 1.8 3 2.4l.4 1.2-3.8.5-6.3 1.3-2.5.7 1.7-2c1-1 1.8-2.4 1.8-3v-1.1l-7 1v-1c0-.7.4-1.2 1-1.2 1.4 0 4-3 3.4-4-.3-.6-1.6-.7-3-.4l-2.4.6-1-2.7-1-2.8-2.4 2.3 1 1.1c1.5 1.4.6 5-1.2 5-1.6 0-1.9-1.7-.4-2.6 1.5-.9 1.2-2.5-.5-2.5-.8 0-1.5-.4-1.5-.9s1.1-1.6 2.5-2.5l2.5-1.6 5.1 1.3 4.9-2.6 7.9 2.4.6 2c.4 1.1 2.4 3.2 4.6 4.6l3.9 2.6v3.7h2c1 0 2 .4 2 .9 0 1.4 9 12.4 16.5 20.1l10.6 11.2c3.5 3.7 21.2 16 28.5 19.7 2.3 1.1 6.4 2.3 9.1 2.7l5 .7.7 3 .6 3.9c0 1.6-2.7.8-5-1.6zm224.5.8a4 4 0 0 1 .4-3.2l1-1.7v3.3c0 1.8-.2 3.2-.4 3.2s-.7-.7-1-1.6zm34.2-3.1c-.2-5.5.3-17.5.8-19.5l.5-1.7 2.8 1.1.6-9.5 2.7-.9-.6 5.9a87.5 87.5 0 0 1-3.5 19.6c-.6 1.6-1.1 4.2-1.1 5.8 0 4.3-2 3.6-2.2-.8zm-404.3 2.2-3.8-.9c-1.5-.3-2.7-1-2.7-1.6s1.8-1 4-1h4v2c0 1.1-.1 2-.3 2l-1.2-.5zm279.4-.2v-3a6 6 0 0 0-1-3.8l-1-1.4 5.2-1.3 2.2 2.1-1.7 1.6c-.9 1-1.6 2.5-1.6 3.5s-.5 2.2-1 2.5-1 .3-1.1-.2zm11.6-.3c-.7-1.1.2-3 1.5-3 .6 0 1 1 1 2 0 2.1-1.5 2.7-2.5 1zM320 194.2l-4.5-1-6.4-7.2.7-1c.5-.6.8-1.7.7-2.6V181l-2.4.3c-1.3.1-5.1 1.5-8.5 3.1s-7.8 3.2-9.8 3.5l-3.7.7-.6-1c-.4-.7-.1-1.8.6-2.7l1.2-1.5 5.7 1.3 4.7-1.8a58.9 58.9 0 0 1 22-6c.3.4-.3.6-1.4.6-1 0-2.8.7-3.9 1.5l-2 1.5h1.4c.7 0 4-.7 7.2-1.7l5.9-1.7.4-1.8.5-1.8 3.1-.6c1.7-.3 3.4-1 3.7-1.5.3-.5-.6-.9-2-.9H330l1-2.7-1.5-.6c-.8-.3-3.1.3-5.2 1.4-2.1 1-4.8 2-5.9 2-1 0-3.3.6-4.9 1.4s-3.5 1.5-4.3 1.5c-2.2 0-16.5 5-19 6.6-2.5 1.6-5.3 1.9-5.3.5 0-.5 1.3-1.2 3-1.6 3.2-.7 4-2.4 1.2-2.5l-1.7-.1 1.5-.5 4.6-2 5.5-2.2 2.4-.9 1.1 1.6 1.1 1.5 4.4-1.6c2.4-1 6.3-2.1 8.6-2.7s4.3-1.6 4.3-2.2v-1.1l-8 1.2.6-1.5.6-1.5h-2.4c-1.3 0-6.4 2-11.3 4.5s-9.6 4.5-10.3 4.5c-.6 0-1.2-.4-1.2-1s1.8-1.4 4-2c2.2-.7 4-1.7 4-2.2v-1l-2.5.6c-1.4.4-2.5.3-2.5-.1 0-1 7.1-4.3 9.1-4.3.8 0 2 .6 2.7 1.2l1.2 1.2v-4.5l6.2.7c3.5.4 6.7 1 7.2 1.6 1.7 1.5 3.6 1 3.6-1.1 0-1 .5-2.2 1-2.6l1.1-.7.5 2 .5 1.9 3.6 1.3c2 .7 5.2 2.8 7.3 4.6 2 2 4 3.4 4.5 3.4 1.3 0 11.5 8.2 11.5 9.2 0 .4-.7.8-1.5.8H349v4h4.4c2.4 0 4.6-.4 4.8-.9.1-.5 2.7-1 5.5-1.2l5.3-.3 1.2 1.2c.7.7 1.9 1.3 2.7 1.3h1.6l-4 1.6-4.2-1.9-9 2.2a600 600 0 0 0-10.6 2.7l-1.7.5.6-1.5c.3-.8 0-1.8-.5-2.1-1.6-1-1.3-3.7.6-5.8l1.7-1.8-4.4-4.4h-3.8c-2 0-6.6 1-10.2 2.1l-11.3 3.3-4.7 1.3v1.7c0 2.9 1.3 3.2 3.1.9l1.7-2.3 5.8 1.2c3.1.6 6.4 1.9 7.4 2.7a6 6 0 0 0 3.1 1.5h1.5v4l-2.6-.6c-1.4-.4-2.9-1-3.3-1.4-1.1-1-8.8 1-8.2 2.1.3.5 2.5.6 4.9.3l4.3-.6 1.4 2.2h-1.8c-1 0-2.7.2-3.8.5-1.1.2-4-.1-6.5-.7zm7-7c0-.4-.5-.8-1-.8s-3.1.5-5.6 1.2c-4.2 1-5.1 1.8-3.9 3 .8.8 10.5-2.3 10.5-3.4zm57 7.2c0-.5.7-1 1.5-1h1.6l-.6 1c-.4.6-1 1-1.6 1s-1-.4-1-1zm368.2-.6c.1-1 .9-1.9 1.5-2.1l1.3-.4v4.1h-3.2zm21.5-1.6-.4-3.2 1.7-2.5c1.6-2.2 2.3-4.7 4.6-15.8.2-1.3 1-2.3 1.8-2.3s1.9 1.5 2.5 3.3c.6 1.8 1.4 6.6 1.8 10.6l.6 7.4-1.2-.7-1.3-.8.6-2.8c.3-1.6.1-3.2-.4-3.5-.5-.3-1.2.6-1.6 2l-.6 2.4-5.8 2.4v3.4c0 1.8-.4 3.3-.9 3.3s-1-1.4-1.4-3.2zm8.3-9.8c0-.5-.5-1-1-1s-.8.5-.5 1 .8 1 1 1 .5-.4.5-1zM739 193v-1.5h-2c-1.1 0-2-.4-2-.9s2.4-.8 5.2-.7l5.3.1v-5l9.4-.6 1.8 2a6 6 0 0 0 4 2.1c2.6 0 3 1.8.6 2.7l-1.6.7-2.4-3.4h-8.4l-.9 2.4a5.9 5.9 0 0 1-2.5 3c-1 .3-2.8.6-4 .6H739zm-269-.1-3-1-1.3-.4 2-2.2 6.3 1.4v1.4c0 1.4-1.3 1.7-4 .8zm20.5-.4c-.3-.5-.2-1 .4-1s1.3.5 1.6 1 .2 1-.4 1-1.3-.4-1.6-1zm154 0c.3-.5 2-1 3.6-1s2.9.5 2.9 1-1.6 1-3.6 1H644zm144.3-3.5-.2-4.6c0-.6.9-1.5 2.1-2l2.2-.8.6 1c.4.5 0 1.2-1 1.5l-1.5.6.6 4 .6 3.8H789zm-402.4-.5-2.9-3-2.2.5c-2.4.6-5.3-.2-5.3-1.6 0-.5 2.1-.9 4.7-.8h4.8l3.2 3c1.8 1.6 3.3 3.4 3.3 4 0 1.9-2.7.9-5.6-2.1zm43.3 2.4c-1.4-1.4-.6-2.4 1.8-2.4h2.5v3h-1.8c-1 0-2.2-.3-2.5-.6zM304 189v-1.6h4.2l-.5 1.3c-.2.7-1.1 1.4-2 1.6l-1.7.3zm141.2-2.5c-3.7-2.7-6-5-4.9-5 .2 0 2.4.6 4.8 1.5l4.4 1.5 3-3.7 2.3 1c1.2.5 2.2 1.5 2.2 2.2s1.3 1.7 3 2.3c1.6.6 3 1.5 3 2s-.2 1.1-.5 1.1c-1.3 0-6.2-2.6-7.1-3.9l-1.1-1.4-3.2 1.2.6 2 .5 2.1h-1.4c-.9 0-3.3-1.3-5.6-2.9zm-187.2-2v-4h-2.5c-1.4 0-2.5-.3-2.5-.6s.7-1.6 1.6-3l1.6-2.5h5l5.8-6.2v-4.9c0-5.4 1.7-6.7 2.2-1.6.1 1.8.7 3 1.3 3 .5-.3.9-1.3.7-2.5-.3-2.5 1.4-4.8 3.6-4.8h1.6l-1.1 1.2c-.7.6-1 1.7-.6 2.5s0 2-.7 2.8l-1.2 1.5 1.5.6c.8.3 2.7-.2 4.2-1.2l2.7-1.8 2.4 2.8c1.3 1.5 2.4 3.6 2.4 4.6 0 1-.6 2.5-1.3 3.2a12 12 0 0 0-2.1 3.3l-.8 2-.5-1.2c-.3-.7 0-2.7.6-4.4.6-1.8 1-4.2 1-5.5 0-2.6-1.4-3.2-2.2-1-.3.7-2 1.6-3.6 2s-3.1 1-3.1 1.6 1 1 2.4 1h2.4l.6 1.6c.3.9.3 2 0 2.5s-3.4 1-7 1h-6.3l-4.8 4.4-.7 3.8c-.4 2-1.1 3.7-1.7 3.7-.5 0-1-1.8-1-4zm11-12.6c0-.8-.4-1.5-1-1.5-1.2 0-2.1 1.6-1.3 2.4 1.1 1.1 2.3.7 2.3-.9zm152.5 15c-1-.8-3.2-1.5-4.7-1.5s-2.8-.4-2.8-1c0-1.7 5.9-1 10 1 2.2 1.2 4 2.3 4 2.6 0 .2-1 .4-2.3.4a9 9 0 0 1-4.2-1.5zm55 .5c-.4-.5 0-1 .9-1 .8 0 1.7.5 2 1s0 1-.8 1-1.8-.4-2.1-1zm-6-.7c-1.1-.2-3.4-1-5.2-1.8-1.7-.8-4-1.5-5.3-1.5-1.2 0-1.9-.3-1.6-.8l.5-.8 5.3 1.2c7.4 1.7 9.8 2.5 9.8 3.5s-.2 1-3.5.2zm254.5 0c0-.8 3.7-2.6 7.7-3.7l2.3-.7v1c0 .4-2 1.6-4.3 2.5s-4.6 1.6-5 1.6a.7.7 0 0 1-.7-.7zm-435-4.2c0-.9 3.4-2 6-2 .8 0 0 .7-1.9 1.5-1.8.8-3.5 1.4-3.7 1.4s-.4-.4-.4-.9zm70-2c-.8-.6-2.6-.7-4-.4l-2.5.6 3.2-3.4 4.1 1.2c2.3.7 3.9 1.6 3.6 2-.7 1.2-2.5 1.1-4.4 0zm42.7-1.5c-1.5-1.4-2.4-2.7-2-3 .5-.2 2.3.2 4 1l3.3 1.3v1.6c0 .8-.6 1.5-1.3 1.5-.7 0-2.4-1.1-4-2.4zm38.3 0c-.7-.9-2-1.6-3-1.6-2.6 0-11-3.9-11-5.1v-1l1.7.6a63 63 0 0 0 6.5 1.7c2.6.5 5 1.4 5.3 2 .3.4 1.8.8 3.4.8s3.6.7 4.6 1.5l2 1.5h-2.7a15 15 0 0 0-4 .6c-.9.3-2-.2-2.8-1zm401-1.7c-2.7-4.8-2.8-17.3-.3-26.8l1.7-6.3-4.7-3.8-.2-6-.3-6h1.3c1.3 0 2.4 3 2.5 6.9 0 1.3 1 3.7 2.1 5.4l2.2 3-.1 3.5c-.1 2-1 5.2-1.8 7l-1.7 3.5.5 10.9c.2 6 .3 10.8.1 10.8s-.8-1-1.4-2zm-592.5.2c-.7-1.2.4-6 1.8-7.9l1-1.3-2.1-2-2.1 1c-1.2.7-2.1 1.8-2.1 2.5 0 .8-.7 2-1.5 2.6s-1.5 2.1-1.5 3.2v1.8h-3.2l.7-1.7c.4-1 1-4.8 1.3-8.5l.4-6.8h2.8v4l4.5-1 4.6 3.6-1.2 5.2c-1 5.3-2.3 7-3.4 5.3zm169 0c-.3-.5-.1-1.2.4-1.5.5-.3 1.2-.2 1.5.3.3.6.2 1.3-.3 1.6-.6.3-1.2.1-1.6-.4zm-42-2.1c-.4-.6-.6-1.2-.4-1.3 3.8-2.6 6.2-3.7 8.1-3.6 1.3 0 1.7.3 1 .6-1.7.7-1.5 2.3.3 2.3h1.4l.7-2.5.6-2.6-1.8-1.4c-2.6-2-.4-1.9 2.4 0l2.2 1.6v5.8l-3.5.7c-2 .4-4.2.4-5 0-1-.3-2.5-.1-3.5.4l-1.9 1-.7-1zm208.4-3c-3.4-2.9-2.7-4 1.4-1.8 2.2 1.2 3.6 2.7 3.7 4 0 1.5-1.6.8-5-2.1zm135.8 2.4c-.3-.3-.3-1.2 0-2 .6-1.5 4.3-2 4.3-.4 0 1.2-3.6 3.2-4.3 2.4zm21.4-2.3a4 4 0 0 0-3-.3l-1.6.6 1.2-1.5c.7-.9 3.8-2.1 7-2.9 3.2-.7 7-1.9 8.5-2.6s4.5-1.4 6.8-1.4h4.1l-.4 1.3c-.2.7-1.3 1.3-2.3 1.3-1 0-4 .4-6.7.8-2.6.4-4.7 1.2-4.7 1.8v1l6.8-1.2.6.9c.3.5-.8 1.4-2.6 2-3.7 1.4-11.8 1.5-13.7.2zm-337.8-3.8-1.8-3.8-5.5-1.7c-3-1-7.2-2-9.3-2.3l-3.7-.6v-3l1.7.7c1 .4 4.5 1.2 7.8 2 3.3.6 7.4 1.8 9.1 2.7s4 3.1 5.2 5l2 3.2-1.1.7a5 5 0 0 1-1.9.8c-.4 0-1.5-1.7-2.5-3.7zm-77.5 2c.7-.2 1.6-.2 2 .1.2.4-.4.6-1.4.6l-2-.1zm71.2-.2c0-.5-1-1.2-2.1-1.6l-2.1-.7 1.9-1.8 2.6 1c2.8 1 3.7 4 1.2 4-.8 0-1.5-.4-1.5-.9zm-33.7-3.2c-.6-.6-4.2-1.3-7.9-1.6l-6.7-.6 1.8-1.3c1-.8 3.2-1.4 5-1.3 1.6 0 5 .9 7.3 2l4.3 1.9-.6 1c-.4.6-1 1-1.4 1s-1.2-.5-1.8-1zm513.3.4c-.3-.3-.6-1.7-.6-3v-2.5l1.5 1.2c.8.7 1.5 1.9 1.5 2.6 0 1.6-1.5 2.6-2.4 1.7zm-662.4-1c-1.4-.5-1.7-3.3-.3-3.3.5 0 1.7-.2 2.7-.6l1.9-.6-1.2.9c-.6.5-1.3 1.6-1.5 2.4-.2 1-.9 1.4-1.6 1.2zm73.4-2c-.3-.3-.6-1-.6-1.3 0-1.2 11.6-6 14.4-6 1.5 0 3.7-.7 5-1.5l2.4-1.6 4.4 1.2c2.3.7 4.7 1.6 5.2 2 1.8 1.7-.3 2-4.2.9l-4-1.2-5.4 1.7c-3 1-6 2.2-6.8 2.6a50 50 0 0 1-9 4c-.4 0-1-.4-1.4-.7zm582.8-2.5c-.3-1.2-1.3-3-2.2-4s-1.3-2-1-2.4 1.8-.3 3.2 0l2.6.7v3.4c0 1.9-.4 3.7-1 4-.5.3-1.2-.5-1.6-1.7zm-502.6-.7a25 25 0 0 1-6-3.3 87.7 87.7 0 0 0-12-6.3L342 148l.6-1.8.5-1.8H342c-.7 0-2.6.7-4.4 1.4-3.6 1.7-9.6 2.6-9.6 1.6s9.2-4 12-4c1 0 3.8.6 6 1.3l4 1.2v4l6.1 2c3.3 1 7.4 3 9 4.4 1.7 1.3 4.7 2.7 6.7 3 2 .4 3.7 1.2 4 1.9l.4 1.2h-2.4c-1.3-.1-3.5-.5-5-1zm523.5-3.6c-.3-.9 0-3.3.5-5.4.7-2 1.2-5 1.2-6.5v-2.7l-1.3.4c-.7.2-1.4 1.7-1.7 3.2s-1.1 3-1.8 3.3l-1.3.4.5-3.3c.3-1.9.7-6.3 1-9.9a33 33 0 0 1 2.3-9.7c1-1.7 1.3-3.5 1-4-.5-.4-1.7.4-2.7 1.7s-2.2 2.2-2.6 1.8c-.4-.4-.2-2 .4-3.5l2.2-7.6 1.3-4.8-1.3-2.3a11 11 0 0 1-.8-5.2l.3-2.9h3l-.3 2.2c-.2 1.3.2 3.2.7 4.3.6 1 1.4 6.6 1.7 12.2l.8 13.3c1.3 14 1.5 20.5.8 23-.4 1.6-1.4 3-2 3.3-.7.2-1.5-.3-1.9-1.3zm-605.8-1.2a32.1 32.1 0 0 1 12.3-2.8c.7.7-3.6 2.2-8.8 3l-4.5.7zm42.2-.9c-1.6-1.6-.6-3.4 2.6-4.7l3.3-1.4 5 .8c6 1 12.4 3.4 12.4 4.9 0 .6-.2 1-.4 1l-3.6-1.6-3.4-1.7-5 1.2c-9 2.1-10.1 2.3-10.9 1.5zm472.2-3.5c-.6-1.1-.8-2.3-.5-2.6.8-.8 4.6 2.8 4 3.9-.9 1.4-2.3 1-3.5-1.3zm-55 .2c0-.6.9-1.4 1.8-1.7s3-2 4.5-3.5l2.7-2.9h7.3l2.6-2.8a30 30 0 0 0 4.1-5.8c1.8-3.4 5.1-7.4 6.3-7.4 1.3 0 1 2-1 6.5l-3 6.7-1.1 2.8-5.2 2.6a67.4 67.4 0 0 1-16.7 6l-2.2.7zm-214.2-2.1c-1-.6-1.7-1.5-1.7-2 0-1.3 3.8 0 4.4 1.6.3.8.2 1.4-.2 1.4s-1.5-.5-2.5-1zm290.6-4.2c-.3-.5-.1-2 .4-3.1l3.1-7c1.2-2.6 2.2-5.8 2.2-7.2s.5-2.5 1-2.5h1.1l-.7-4.4-.6-4.4 5.4-3.6 1.4 2a13 13 0 0 1 1.4 6.1v4.3l-5 1.2-1.1 4.2a27 27 0 0 0-.7 12.1l.3 3-3.8.1c-2 .1-4-.3-4.4-.8zm-19.2-3.9c-.5-1.3-.7-2.7-.4-3.1s1.5-.8 2.8-.8 2.5.4 2.7.8-.6 1.8-1.9 3.1l-2.3 2.4zm-357.9-.5c-.7-.3-1.2-1-1.2-1.5s1.8-.9 4-.9h4.1l-.6-1c-.4-.5-3-2.3-5.8-4l-5.2-3H427l-.6 2-.7 2-1.9-1a3.5 3.5 0 0 1-.8-5.7l1.2-1.2 1.8 1c1 .5 5.4 1.1 9.8 1.4l8 .3 4.3 2.4a19 19 0 0 0 5.7 2.4c.7 0 1.7 1 2.2 2.1l.8 2.2-2.4 1.6c-2.4 1.5-6.7 2-9.3.9zm22.2-2.5.6-4.1v-1l4.9 1.3 1-2c.7-1.2 1.5-1.9 2-1.6.4.2 1.7-.4 3-1.5l2-2v-5.7l2.3-.6c1.2-.3 2.3-.5 2.5-.3.2.2-.4 2-1.2 4.2l-1.6 4 1.3-1.6c1.5-1.8 4.8-1.4 4.8.5 0 .7 1.4 1.8 3.2 2.5l3.3 1.1-1.5 1c-.8.5-3.2 1-5.2 1-4 0-11.7 2.9-15.6 6a9.3 9.3 0 0 1-4.5 2h-2zm314 .9c-.5-.7-.7-2.6-.5-4.3l.2-3 6.4-6.5 4.3.5 1.9-2.3 1.9-2.4 9.4-1v3.2h-5l-6.6 7h-5.7l-6.1 6.2 1.1 1c.7.7 1.2 1.6 1.2 2 0 1.3-1.8 1-2.7-.4zm16-2.3c-.4-.9-.2-2 .4-2.7s1.8-.7 2.7-.4l1.6.6-.3 1.8c-.2 1-1.1 1.9-2 2l-1.8.4zm9-4c-.4-.9-.4-1.8 0-2.2.6-.7 3.6 1.6 3.6 2.9 0 .4-.7.8-1.6.8-.8 0-1.7-.7-2-1.5zm7-1.5c-.3-.6-.4-1.4 0-1.7.8-.8 3.6.5 3.6 1.7 0 1.4-2.7 1.3-3.6 0zm-304.8-1.6c-1-1.1 4.6-6.4 6.8-6.4 1.2 0 3 1 4 2.1 1 1.2 1.5 2.4 1.2 2.6-.3.3-1.3-.2-2.1-1-1-1-2.3-1.7-3.1-1.7s-1.9 1.2-2.4 2.5c-1 2.4-3 3.3-4.4 1.9zm269.4-6.2c0-.5.7-2.3 1.6-4s2-3.2 2.6-3.2h1l-.7 2.8c-.4 1.5-1.1 3.3-1.7 4-1.2 1.4-2.8 1.6-2.8.4zm-327.8-2.4c.3-.7 1.2-1.4 2.1-1.6l1.7-.3v3.1h-4.2zm50.8-.9c0-.6.5-2.9 1.2-5l1.1-4 2.1.5c1.1.3 3.2 0 4.5-.8l2.5-1.3 3.5 1.5 7.3 3.2c2 .9 3.7 1.9 3.8 2.3 0 1.4-3.3 2-5 1-1-.6-2.7-.9-3.9-.6l-2 .6-1-2.7c-.6-1.4-1.4-2.6-1.9-2.6-.4 0-2.4 1.2-4.5 2.6l-3.7 2.5v4h-2c-1.1 0-2-.6-2-1.2zm-60-4c-2.4-1.6-5.2-2.9-6.2-2.9s-1.8-.5-1.8-1v-1.2l3.2.6c3.7.8 10.8 5.1 10.8 6.6 0 .6-.4 1-.8 1a32 32 0 0 1-5.2-3zm347.8 2.4c.7-.2 1.6-.2 2 .1.2.4-.4.6-1.4.6l-2-.1zm-258.6-2.6-1.6-1.8 1.4-1c1.7-1 8-1.2 10.4-.3.9.4 1.6 1.5 1.6 2.4v1.8l-10.2.7zm-64.4.5c-.2-.5-3.2-3.5-6.8-6.6s-8.4-6.6-10.7-7.6l-4.2-2h-4.5c-4.8 0-7-1.4-3.6-2.5 3.3-1 10.5.6 15.6 3.5 2.7 1.5 7.2 4.9 10 7.4 2.9 2.6 5.7 4.6 6.3 4.6s1-.9 1-2v-2.1l2.6.9-.3 2.3a7.8 7.8 0 0 1-1.4 3.6c-1.2 1.5-3.5 1.8-4 .5zm346.8.2c-.3-.4-.6-1-.6-1.4 0-1 5.8-3 8.9-3l2.6.1-3 2.5c-3 2.3-6.5 3.2-7.9 1.8zm-269.4-7c-.7-2.1-1-4-.7-4.2.4-.4 4.5 5.9 4.5 7 0 .5-.6.8-1.4.8s-1.8-1.6-2.4-3.7zm255.8 1.7c0-1.3 3-2.2 5.1-1.5 3.1 1 2.1 2.4-1.6 2.4-2 0-3.5-.4-3.5-.9zm-359.3-2.2c-3.6-1.9-5-3.9-2.5-3.8 1.5 0 7.4 4.7 6.7 5.3-.2.2-2.1-.4-4.2-1.5zm85.3 1.4c0-1.3 3.3-4.3 4.8-4.3.6 0 1.2-.5 1.2-1.3 0-1.5-4.3-4.1-8.3-5l-2.8-.7-1-2.6c-.5-1.5-.8-2.9-.5-3.1.2-.3 2 .6 3.8 2 1.8 1.4 4.2 2.8 5.4 3.2 1.2.3 3.8 2.6 5.8 5s3.6 4.8 3.6 5.2-2 .9-4.3.9-5 .4-6 .8l-1.7.8zm287-3.8v-1.6l2.2.3c1.3.2 2.3.8 2.3 1.3s-1 1.2-2.3 1.4l-2.2.3zm-402.2-1.8a48.6 48.6 0 0 1-6-3.4l-1.3-1-7.5.1c-4.2 0-8.1.5-8.9 1l-1.3.9-3.3-3.3v-5l.1-4.8 6.7-6.3 1.4 2.3 7.3-1.4-1.2 3.2h1.8l10.9.4 9 .3 6.2 2.9c3.5 1.5 6.3 3.4 6.3 4.1 0 .7-.3 1.3-.6 1.3s-2.4-1-4.7-2.1l-4.2-2.2-23.2-2.2-3 .7a12 12 0 0 0-4.8 2.8c-1 1.1-2.5 2-3.3 2s-1.2.6-1 1.3c.2.6 2.4 1.6 4.8 2l4.3 1 4.7-2.2 2.6 1c4.2 1.6 17.4 8 17.4 8.5 0 .2-1 .4-2.3.4s-4.3-1-7-2.3zm-19.9-14.8c4-2 4.6-3.9 1.2-3.9-2.3 0-6.1 2.8-6.1 4.6 0 .8.2 1.4.4 1.4.3 0 2.3-1 4.5-2zm41 14.5c0-.8.6-1.4 1.3-1.1 1.8.6 2.1 2.7.4 2.7-1 0-1.6-.7-1.6-1.6zm69.7-.2c-.8-1.2 4-5.5 5.3-4.7 1.4.9 1.4 2.5-.1 2.5-.6 0-2 .7-2.9 1.6l-1.7 1.6-.6-1zm22.4-.2c0-.5.4-1 1-1s1 .5 1 1-.5 1-1 1-1-.4-1-1zm232-3.6c-.6-1.4-2-3.7-3-5.1-2-2.6-1.9-4.5.3-3.7 1.7.6 5.7 7.6 5.7 9.8 0 2.5-2 2-3-1zm-242-.9c.7-.8 1.9-1.5 2.7-1.5h1.5L516 101c-.7.9-2 1.5-2.8 1.5h-1.5zm23-1c-1.3-1.3-2.9-2.5-3.5-2.5-.6 0-2-.6-3-1.4l-2-1.5h2c1.2 0 3.9 1.5 6 3.3s3.7 3.7 3.4 4c-.3.4-1.6-.5-3-1.9zm351.5-2.5c-.4-.6-.3-1.6.2-2.1l1-1 .8 1.1a2 2 0 0 1-.3 2.2l-1 1zm-394-1.8-1.5-1.8v-4.1c0-2.3.3-4.4.7-4.6.4-.3 3-.6 5.7-.8l4.9-.4.4 1.3.5 1.4-7.2-1.4-.4 1.4-1.4 4.6-1 3.2h2.8a7 7 0 0 0 4.3-1.5c1.7-1.6 3.7-2 3.7-.6 0 .5 1.8 1.2 4 1.5l4.1.7-.4 1.2c-.2.7-1.4 1.4-2.6 1.6l-2.1.3V96c0-.9-.7-1.6-1.5-1.6-.7 0-1.5.4-1.7.9-.2.4-2.4 1.1-5 1.4l-4.6.7zm30.5-3.2c0-.5.4-1 1-1s1 .5 1 1-.5 1-1 1-1-.4-1-1zm-12.8-2.2c-1.2-.6-2.2-1.5-2.2-2 0-1.5 3.7-.8 5.5 1.2l1.8 2h-1.4a12 12 0 0 1-3.7-1.2zm36.5-2.6c-1.5-1.5-2.7-3.5-2.7-4.4v-1.7l-3 1.1v-2c0-1.2-.4-2.2-1-2.2-.4 0-1.4.7-2 1.5s-1.9 1.5-2.5 1.5-1.6-1-2-2.5l-.6-2.5h-1.5c-.8 0-1.4-.6-1.4-1.4v-1.4h7V75c0 .8.4 1.4 1 1.4s1-.9 1-2v-2h1.6c1 0 2.2.8 2.8 1.7l1.3 1.6L552 72l4.2 2.6 1-1c.4-.4 2.2-.6 3.8-.4l3 .5-3.8 4.3c-5.4 6.2-8.2 10-8.2 11.3 0 .6-.4 1.1-.8 1-.4 0-2-1.2-3.5-2.7zm5-4.5c.6-.7-2.5-4.7-3.8-4.7-1 0-2.2 3.8-1.5 4.9.6 1 4.2.8 5.2-.2zm270.7 6.2c-.7-1.2.5-4.9 1.5-4.9.5 0 1.1-1 1.5-2.5a8.4 8.4 0 0 1 3.2-4.1L832 76l4 4-5.2 9.8h-3.5c-2 .2-3.7-.2-4-.6zm57.6-1c0-2.7 2.4-6.7 3.4-5.7s-.8 7.1-2.2 7.6l-1.2.4zm-45-1.4c.6-.8 1.6-1.2 2.2-.8l1 .6-1.4.8c-2.1 1.4-3.2 1-1.8-.6zm-359.8-1.1c-1.7-.7-.5-2.4 1.7-2.4 1 0 4.3-.8 7.4-1.8 5.6-1.9 10.7-1.8 10.7 0v1l-5.2-1.3-1.6 1.3c-.8.7-3.6 1.9-6.1 2.5l-5.1 1.2-1.8-.5zM869 83.5c0-1.1.4-2 1-2s1 .6 1 1.4-.5 1.7-1 2l-1 .7zm-126.8-2.2c-1.8-1.6-3.2-3.5-3.2-4.2s1.6.5 3.7 2.6 3.4 3.9 3.2 4.2c-.3.2-2-1-3.7-2.6zm105.8 0v-2.1l1.5 1.2c1.5 1.3 1.1 3-.6 3-.5 0-1-1-1-2zm-384.5.1c-.4-.6-.2-1.7.5-2.4l1.1-1.4-1.7-2.6c-.9-1.4-2.5-2.6-3.4-2.6-2.2 0-3.3-2.5-1.7-3.8.6-.5 2.8-1.2 4.9-1.6s4-1.1 4.4-1.8l.7-1-1.9-1.4c-1-.8-2.9-1.4-4.1-1.4s-3.1-.4-4-.9-3.2-1.2-4.8-1.7l-3-1-.6-4.1 1.6-.6c2-.8 7 1.7 7.8 3.8l.6 1.5h2.6c1.5 0 3.9.8 5.4 1.6l2.7 1.7 8.3-2.1c4.6-1.2 8.8-2.5 9.5-3a47 47 0 0 1 19.4-3.3l7.4.2-1.2-3h1.3l8-1.1 7-1 9 4.3 14.2-2.1 6.8 1.4 2 3.8c1 2 1.7 3.9 1.5 4.1-.2.2-2.3.1-4.6-.2-2.3-.3-4.2-1-4.2-1.4s.6-.9 1.4-.9c.7 0 1.9-.6 2.5-1.4l1.3-1.5-2.7-.6c-1.5-.4-4.8-.4-7.3 0-6.1 1-14 1-17.6 0l-2.8-.7L531 57l-33.5-.2-3.5 1.9a37 37 0 0 1-10 2.6c-8 1-14 3.1-13.8 4.7.2.6-.7 2-2 3l-2.2 1.8.6 2.4.7 2.3 3.6-.7c2-.5 5.7-.8 8.4-.9h4.8l1.8 3-1 .3c-.5.2-1.6-.2-2.4-.8l-1.4-1.2-7.1 1.4v2.7h-2.6c-1.4 0-3.6.7-4.9 1.6l-2.3 1.5-.7-1zm417.7-1.8-2.2-.3v-6l-5-1.8V60.2l1.5 1.2c.8.7 1.5 1.7 1.5 2.2s.6 1.6 1.4 2.4l1.4 1.4 4.3-.9a34 34 0 0 0 6-1.5l1.7-.7 1.3 2.1-2.8 1c-1.6.6-3.5 1.4-4.3 1.9l-1.5.8-1 9.8zM881 70c0-.8-.5-1.5-1-1.5s-.7.7-.4 1.5c.3.9.8 1.5 1 1.5.2 0 .4-.6.4-1.5zm-41 6.2c0-.8.9-2.2 2-3.2s2-1.5 2-1.2l-1 3.2c-1 2.7-3 3.5-3 1.2zm-7-1.2c0-.8.4-1.5 1-1.5s1 .7 1 1.5-.5 1.5-1 1.5-1-.6-1-1.5zm16-1.9c0-.9.7-1.6 1.6-1.6.8 0 1.4.6 1.1 1.2-.6 1.9-2.7 2.2-2.7.4zm-454.5-.5c-.3-.5-.3-2 0-3.3l.6-2.3-3.8-3a55 55 0 0 0-8.8-5.5c-5.5-2.6-8.5-4.8-8.5-6.1 0-.5.6-.9 1.4-.9 2.7 0 13.1 5.6 17 9 2.1 2 4.5 5 5.3 6.9l1.4 3.3-1.2 1.4c-1.4 1.7-2.6 1.8-3.4.5zm170.7-2.2c.2-.8 1.2-1.5 2.2-1.7l1.8-.4-.4 1.4c-.3.7-1.3 1.5-2.3 1.7l-1.8.3zm4.5-3.1c-.2-.7-.3-1.8 0-2.4l.4-1.1 12.8 1 6.2-2.5-.4-1.7-.3-1.6-2.5.1c-1.3 0-3.2.5-4.2 1l-1.8.7-1.1-4.2-3-.6c-1.5-.3-4.7-.5-7-.3l-4.3.3v-1.2l.3-2.3.2-1h5.5c3.1 0 6.4.5 7.4 1s4.5 1.3 7.7 1.6c3.2.4 6.4 1.2 7.1 1.7l1.3 1-1.1 1.3c-1.2 1.4-.5 3.4 1.2 3.4.5 0 2.8-1.7 5-3.8l4-4 4.4-.5c2.5-.4 7.1-2 10.4-3.6l6-3 16.5-.8 10.7 2.7 21.2.2 1.4 1.4c.8.8 2.4 1.4 3.6 1.4 1.2 0 5 1 8.2 2.1l6 2.1 7.2-1c4-.7 10.5-1.2 14.3-1.2h7l4.8 3.2 15 1.1 6.2-2.2 2.2.8c1.1.4 3.8.5 5.9.1l3.8-.7 4.6 4.9 26-.5 4.7 1.5c2.7.8 5.8 2.5 7 3.8l2.3 2.3-3-.7c-1.7-.4-4.1-.7-5.4-.7-1.4 0-3-.7-3.9-1.5a9.9 9.9 0 0 0-3.9-2l-2.5-.6-5.3 5.1-7.5-.3a400.3 400.3 0 0 0-26.5-1.1l-19-.3-10.8-3-11.7 1.1-13-4.4h-6.2c-3.5 0-15.4-1-26.4-1.9s-21.2-1.6-22.5-1.4l-10 .9c-4 .2-8.7.7-10.2 1.1l-2.7.7v-3.4l-3.3.7c-1.8.3-4.6 1.9-6.2 3.4s-4.4 3.2-6 3.8-6.2 1.4-10 1.8a56.7 56.7 0 0 0-13.7 2.8l-2.6.6zM729.8 63l2.4-.7-.9-.8a53 53 0 0 0-9.5-3l-8.7-2-8.3 1c-4.6.7-8.5 1.4-8.7 1.6-.3.2-.3.6 0 .9.2.2 5.7.7 12.1 1.1l11.7.7 2.3 1.3c2.3 1.2 3.2 1.2 7.6 0zm27.8.5 2.7-1-1-.9c-.4-.4-4.3-1.1-8.5-1.5l-7.7-.6-.6 1a3 3 0 0 0-.1 2.6l.5 1.4h6c3.3 0 7.2-.4 8.7-1zm-76.6-7c0-1-6.6-2.4-18.5-4.2l-7-1-3.4 2-6-3-7.8-.2c-4.3-.2-9.9.1-12.3.6-2.5.5-6 1.6-7.7 2.5L615 55l1.2.7c.6.4 2 .2 3-.3 3.3-1.8 15.6-2.1 30.8-.9 8 .6 17.4 1.5 21 2 9.6 1.1 10 1.1 10 .1zm145.5 10.3a71 71 0 0 1-5.3-1l-2.2-.4v-3l7.7.6c4.3.4 8.2 1 8.8 1.6l1 1-1.5.9c-1.5.9-3 1-8.5.3zm28-.4-.6-1h1.5c.9 0 1.6.5 1.6 1s-.5 1-1 1-1.2-.4-1.5-1zm-409.5-2c0-.4 1.3-1.1 3-1.5 3.2-.7 9 .2 9 1.5 0 .4-2.7.7-6 .8-3.3 0-6-.3-6-.8zm456.2-.2.4-1.3 5.2-.9c5.2-.8 7.4-.3 5.6 1.3-.5.5-3.3 1.2-6.3 1.6l-5.3.6zm-97.6-.6c-.9-1.3 2-3.4 4.6-3.4 1.3 0 3.5.5 5 1.1l2.9 1.1-.7 1-.6 1.1-1.4-1.1c-1.4-1.2-4.1-1-7.6.5-.9.4-1.9.2-2.2-.3zm113.4 0c0-1.2 1.9-2.6 2.6-2 .2.3-.3 1.1-1.1 1.8l-1.5 1.3zm-507.6-1.2c-1-1.7 3.5-5.9 7.8-7.2l3.8-1.1 7 3.3v-1.5c0-.8-.8-1.8-1.8-2s-2.6-1-3.7-1.6-3.4-.9-5-.8c-4.1 0-9.6-1.4-9.6-2.6 0-.5 1-1.1 2-1.3 3-.5 1.5-2.2-2-2.2h-2.8l-.4 2.3-.4 2.2-1-2.6c-.7-1.5-2.3-3-3.5-3.4-1.3-.4-3.3-1.6-4.4-2.6l-2.1-2L377 39v-1.2c0-1.8-1.7-1.6-2.4.3l-.6 1.5-5.8-.5-7-.5c-.7 0-2-.9-3-2a62.4 62.4 0 0 0-17.4-9A116.6 116.6 0 0 0 312 23l-22.3-.5-15.7-.2-19.2 2.5-2-2.4A9.2 9.2 0 0 1 251 18v-1.8l4 1.3 1.5-1.2 1.4-1.1 12.3-.6 17-.6c2.5 0 6.4.8 8.7 1.7 2.3.9 5.6 1.6 7.5 1.6 1.8 0 3.8-.6 4.4-1.3l1.1-1.3 16.2.6-.6-1-.6-1h1.5c.9 0 1.6.4 1.6.8s1.7.6 3.9.4l3.8-.4 5.8 3.3-7.5-1.3v1c0 .6 3.8 2.9 8.4 5.1 4.6 2.3 8.8 4.1 9.4 4.1.6 0 1.8-.7 2.6-1.6l1.7-1.6 4.4 1.2c2.4.7 5 2 5.7 2.8l1.3 1.5-2.4-.7c-3-1-13.1.2-13.1 1.5 0 .5 2.1 1 4.7 1h4.8l-2.3 1c-1.2.5-2.2 1-2.2 1.3 0 .3 2 1.4 4.5 2.7l4.6 2.2 4.2-.6 8.2-1.4 4-.8-6.6-2.7-2.5 1c-3 1.4-9 1.6-9.8.4-.3-.5.2-1.6 1.1-2.4l1.8-1.5 12.1-.4 2.6 3.1h6.5l1 4h6.4l-1.3-4 1.6.6c.9.4 1.6 1.2 1.6 1.8 0 1.8 3.3 5.3 6.7 7 1.8.9 4.5 1.6 6.1 1.6s3.7.3 4.6.6a3 3 0 0 1 1.6 2.5v2h4.4c2.4 0 5.6-.7 7.2-1.6 1.6-.8 3.6-1.5 4.4-1.5a80 80 0 0 1 15.7 6.4c2.2 1.3.3 2.6-3 2l-3.2-.6 3.1 2a17 17 0 0 1 3.8 3c.3.6.1 1.4-.5 1.8l-1 .6-2.5-2.2c-1.3-1.3-2.8-2-3.2-1.6s.3 1.7 1.7 2.7c1.3 1.1 2 2.3 1.7 2.6-.3.4-1.7 0-3.1-.7-2.6-1.3-3.5-1.5-16.6-2.5l-7.6-.6-1.7 2.6c-1.7 2.6-4 3.3-5.2 1.5zm27.2-8.5c.3-.8 0-2.2-.6-3l-1.3-1.5h-3.9c-2 0-3.8.4-3.8 1 0 .5 1.4 1.2 3 1.5s3.3 1.4 3.6 2.1 1 1.4 1.5 1.4 1.2-.6 1.5-1.5zM332.4 22.5c.3-.4 0-1.3-.7-1.8a31.3 31.3 0 0 0-13.2-2.7l-3.3 1-1.7.6 1.8 1c1 .5 3 .7 4.5.4l2.7-.6 2.5 1.4c2.9 1.7 6.6 2 7.4.7zm-73.4-2a1 1 0 0 0-2 0c0 .6.4 1 1 1s1-.5 1-1zm33-.5c0-.3-.5-.7-1-1s-1-.2-1 .4.4 1 1 1 1-.2 1-.4zm585.9 43c-.4-.3-.4-2 0-3.8l.6-3.1 3.5-1.3c2-.7 4.6-1.2 6-1.3a37 37 0 0 0 8.8-2.6 38 38 0 0 1 8.7-2.5h2.6l-.6 1c-.4.6-1.5 1-2.5 1s-4 1.2-6.6 2.5l-4.7 2.5h-3.5c-1.9 0-4.9.7-6.6 1.6l-3.3 1.5-.9 2.6c-.5 1.4-1.2 2.2-1.5 1.9zm-272.4-3a7.8 7.8 0 0 1 4-1.5h2l-1.5.8c-.8.5-2.6 1.2-4 1.6l-2.5.7 2-1.5zm185.3-2.3c.7-.2 1.6-.2 1.9.1.3.4-.3.6-1.3.6l-2-.1zm83.2-4.5v-2.3l5.8-1.7a58 58 0 0 1 6.7-1.8 21.5 21.5 0 0 0 11.7-5 21 21 0 0 1 6.4-3.4c1.7-.4 4.6-1.8 6.5-3.1 1.8-1.4 5.2-3 7.4-3.7 2.2-.6 5.1-2.3 6.5-3.8l2.6-2.7 6.8-2.1c3.8-1.2 8-2.2 9.2-2.2h2.3l1.7-2.5c1.7-2.6 4.4-3.3 4.4-1.1 0 .7-1.1 2.5-2.5 4l-2.4 2.6h-3.3c-1.8 0-6 1.1-9.3 2.5l-6 2.4-3.7 5.1h-3.7c-2 0-4.3.6-5 1.2l-1.1 1.2 4.7 1.3c2.6.7 8.7 1.2 13.5 1.2l8.8-.1 2.5-2c1.3-1 4-2.2 6.1-2.5 3.5-.5 4.8-1.4 10-6.3l2-2h6.4v2.8l-5-1v1.1c0 .7-1.2 1.6-2.5 2.1l-2.5 1v4l-10.3 1.3-3.9 4.5-13-1-6.1 4.5-7.2-1.8.6-4.8-3.8.7a62 62 0 0 1-7 .6c-1.9 0-3.3.5-3.3 1s.6 1 1.5 1 1.5.5 1.5 1c0 1-1.5 1.5-3.4 1.1a65 65 0 0 0-8.7 2.9c-4.3 1.7-8.9 3-10.1 3-1.3 0-4.3 1.2-6.7 2.5l-4.7 2.5c-.2 0-.4-1-.4-2.2zm-324.5-4.8c.3-.5 1.4-1 2.3-1h1.7l-1.5 1c-2 1.3-3.3 1.3-2.5 0zm388.7-13.7.3-1.8 6-1 8.7-9.5h3.9l-4.3 5c-2.4 2.8-5 5-5.9 5s-2.3 1-3.2 2-2.6 2-3.8 2h-2zM969 23.4c0-.5 1.3-1 3-1s3 .5 3 1-1.4 1-3 1-3-.4-3-1zm-623-2.6c-3-1.4-5-2.8-4.4-3 .7-.3 3.5.7 6.3 2 4.7 2.5 6.1 3.6 4.3 3.6-.4 0-3.2-1.2-6.2-2.6zm635.5-2.3c-.3-.4.2-1.4 1-2.1l1.6-1.3 1 1c.6.7.8 1.6.4 2.2-.8 1.4-3.2 1.5-4 .2zm-21.4-2.7.4-1.9 5.3-.6.5-1.8c.6-2.5 7.7-6 11.9-6.1 1.8 0 4.1-.7 5.2-1.5l2-1.5H999v3.2L987.2 5l-4 3.7-2.9-.2h-4c-.8 0-3 1.8-5.1 4l-3.8 3.9-7.6 1.4zM296 13.4c0-1 2-1 6.5 0l3 .8-9.5.2z"/>
</svg>
