<?xml version="1.0" encoding="utf-8"?>
<svg xmlns="http://www.w3.org/2000/svg" version="1.1" viewBox="0 0 1197 543">
	<title>Sketch of a boat on a canal to the left, with a towpath then a road to the right. Trees line the road, and a town with a church steeple is in the distance.</title>
	<path d="m949.8 542.4-2.4-1 1.3-7.8-2.9-3.3a75.2 75.2 0 0 1-6.6-10l-3.7-6.8-2.2-.6c-1.2-.3-3.1-2-4.4-4s-2.2-3.6-2.2-4c0-.3-1-1.7-2-3.1l-2-2.6v-7.8l5-1.9-.6-2.7a23 23 0 0 0-1.6-4.5 11 11 0 0 1-.8-3.5c0-2-8.1-17.2-9.2-17.3-.4 0-1 1-1.4 2.2a6.5 6.5 0 0 1-1.8 3l-1.1.8h4.7l-.6 3.2-.6 3.3 3 5.8-1.1 1.3c-.6.7-2.5 1.4-4.3 1.6l-3.1.3v6l-2-.3c-2.3-.5-4.5-3-4.5-5.5 0-2-3.7-7.6-6.3-9.5-1-.7-1.7-2.2-1.7-3.3 0-1.1.6-3.3 1.5-4.9a46.9 46.9 0 0 0 4.4-26c-.4 0-1 1-1.1 2.2l-.3 2.3-4 .7-3.8-4.3c-2-2.4-3.7-3.8-3.7-3.1 0 1.3 5 9.5 6 10 2.3 1 3.9 3.2 4.5 6l.7 3.4-4.7-.7-1-3.3c-.5-1.7-1.5-3.2-2-3.2s-1.8 1.8-2.5 4l-1.4 4-1.6-.2-1.5-.4v-2.4l1-7.2.7-4.6-7.2-7.3v-2.3c0-2.3-1.9-4.3-7.7-8.3l-3.2-2.2-2.3 2.8-13.3.6-.3 2.5-.2 2.5 1-2.3c.5-1.2 1.3-2.2 1.9-2.2s1.4.8 2 1.8l1 1.9 14.3 1.2 1.6 1.4c1 .8 2.4 1.7 3.4 2s2 1.8 2.4 3.2l.6 2.6-2.2 2.2-6.8-7.2-7.5-1.4.5 1.4c.2.7 1.5 1.6 2.8 2l2.5.5.3 2.1.3 2.2 5.4.6.6 6.7 5.2-1.3.8 1.3c1.2 1.8 1 5.5-.2 7.9l-1 2-1.9-1c-1-.6-2-2.2-2.4-3.6l-.7-2.5h-3.8l-.6 9.5-4.5.6v-2.3c0-1.3.5-2.9 1-3.5.7-.6.9-2 .6-3l-.7-2-8.8-1.1c-4.9-.7-10.5-1.2-12.4-1.2s-3.9.4-4.2 1c-.4.5-.1 2 .5 3l1.2 2.2-1 1c-.5.4-1.7.6-2.6.2l-1.6-.6v-5.8h-1.3c-.7-.1-2.8-.3-4.7-.3l-3.5-.2v-4l15.7.7-.6-2.6-.7-2.6 1.5-.6c2.1-.8 5.6 1.4 5.6 3.6v2h9.1l-.4-1.2c-.2-.7-1.5-1.3-2.8-1.3h-2.4l-.3-3c-.2-1.7-.5-4-.8-5.3l-.5-2.4-2.9 1.1-1-2c-.7-1-1-3.7-.8-5.7l.3-3.7 2.5-.3c1.3-.2 2.9-.8 3.4-1.3s2.1-.9 3.6-.9h2.6l6.5-6.8-1.3-.5c-.7-.2-2.8-.2-4.6 0l-3.2.6v-2.5c0-3 3.5-7.8 5.6-7.8h1.6l-.8-1.8c-.4-1-.8-2.6-.8-3.7l-.1-2h1.5c.8 0 2 1.2 2.8 2.7s2.8 4 4.7 5.5l3.3 2.7-2 3.6 4.2 4.9a133 133 0 0 1 6.8 8.8c7.4 11.1 10.5 15.3 11.3 15.3.5 0 .9-2 .9-4.4 0-2.4.7-6.7 1.6-9.4l1.6-5.1-4.2-5a35.4 35.4 0 0 0-6.1-6.2c-1-.5-2-1.8-2-2.7 0-1 1-2.2 2.3-2.7l2.3-1 .3-3.3.3-3.4-1.6-1.8c-1-1-3.1-2-5-2.4s-4-1.5-5-2.6-2.2-2-2.7-2-.8 1-.8 2 1.3 3.5 3 5c3.1 3 4 6 1.6 6-.8 0-3-1.8-5-4l-3.8-4.1.7-5.4 2.2-.3c1.3-.2 2.3-.8 2.3-1.4v-1l4 1V384c0-.7-.8-1.9-1.6-2.6l-1.6-1.3 1-7.1-1.1-1.5c-.7-.9-3.6-3-6.5-5l-5.3-3.3-.6-2.6-.5-2.6-3.5-2.3c-2-1.2-3.9-2-4.4-1.7l-.9.6.5 5.7 1 11 .7 5.2h2.5l.6 7.2c.3 4 .4 7.4.1 7.6-.2.3-1.1-.1-2-.9l-1.7-1.4 1.4 4.5-1.7 5.3c-1 2.8-2 5.6-2.6 6.1s-.8 2.8-.8 5v4l1.6 1.7 1.6 1.8-3.7.7c-2 .3-5.3.4-7.4 0l-3.7-.6-1.3 2c-.7 1.2-1.8 2-2.4 1.7s-1.5-2-1.7-4c-.3-2.1-1-3.7-1.5-3.7-.6 0-1 1.4-.9 3l.2 3H835c-.7 0-2.1-1-3.1-2.3l-1.8-2.2h-2.5c-1.4 0-3.1.4-3.8.8s-1.7.5-2.3.1l-1.2-.7.6-3.3a16 16 0 0 0 0-5.2l-.5-1.9-8.8-.1v5.9l2.8 1-.3 8c-.1 4.4-.7 8.5-1.3 9a2 2 0 0 1-2.3.4l-1.2-.8.6-3.8.5-3.8-1.2-1c-1.6-1.2-5.3-.7-7.3 1-1 1-3.6 2-5.7 2.3l-3.8.7.4-1.8.3-1.8 1.8.3c.9.2 1.7-.3 1.8-1l.5-5.7c.2-2.5 0-6-.5-7.7l-1-3.3 1.4-1.1 1.4-1.2.5 2.4 1.4 6.3 1 4 .2-14.1-1.1-1.1a64.4 64.4 0 0 1-3.5-19.6l-.5-5.7h4l.6 2.4c.4 1.3.5 3.2.3 4.2s0 2.5.5 3.1c.4.7 1.9 1.3 3.3 1.3h2.4l.6-1.5c.3-.8 1.4-1.5 2.5-1.5 1 0 2.2.7 2.5 1.5.3.8 1.4 1.5 2.5 1.5 3 0 2.2 1.8-.9 2.2l-2.7.3-.2 5.8c0 3.1.3 6 .8 6.3l.9.5v-10.3l1.7.4 1.8.4-.1 5.7-.2 5.6.9-.5c.5-.3.9-1.8.9-3.3 0-1.6.7-3.4 1.5-4.2a16 16 0 0 0 3-4l1.5-2.9h-1.4c-.8 0-1.8-1-2.1-2l-.7-2-3.3.5-.7-4.5h-4.7c-2.6 0-5.3-.5-6-1.2-1.7-1.7-1.4-5.5.5-6.2.8-.3 1.9-.4 2.2-.2.7.4 18 1.8 25.3 2 2 0 3.9.3 4.1.6s.8 3.1 1.1 6.3l.7 5.7-3.2 1.3-1-1.4c-.4-.8-.8-2.4-.8-3.7 0-1.2-.4-2.2-1-2.2-.4 0-1.4.7-2 1.5l-1.3 1.5-1.7-1.5c-1-.8-2-1.5-2.4-1.5s-.6.7-.6 1.6.8 1.8 2 2 2.6 1.7 3.4 3c1 1.3 2.5 2.4 3.5 2.4s2.2.4 2.6 1l.6 1h-2.3a8 8 0 0 0-3.5.8l-1.2.7 1.6 2.8 1.2-.8 1.2-.7 1 4 1.9-.5 1.8-.5 2.2 4.2h5v3.9l-4.2 1.3.8 1.6c.4 1 .7 3.2.6 5v3.2h2.8v-7h2c1 0 2 .6 2 1.2 0 .7.9-.7 2-3 1-2.5 2-6.2 2-8.3v-3.9h-3.8l-.5-2-.5-2 1.1-.4c.7-.2-.5-.5-2.5-.5l-3.7-.1-1-3.8c-1.4-4.8-1.4-8.5 0-10l1-1v-13c-.1-7.2-.3-13.7-.6-14.4a67 67 0 0 1-1-4l-.6-2.9-3.4.6-1.3-2.8c-1.4-2.7-3.2-2.8-3.2-.1 0 1.7-2.2 1.8-3.8.2l-1.2-1.2v4.3l4 1.2v3.2c0 3.1 4.4 15.2 7 19.5l1.4 2.1-2 2-1.5-1.2c-1-.7-3.6-5.1-6-10l-4.2-8.7H827c-.7 0-1.3.8-1.3 1.8s-.5 2.2-1 2.8-1 2.5-1.2 4.4l-.3 3.5 9 1 .3 1.8a4 4 0 0 1-1 3.3l-1.1 1.5-25.2-.9-1.9 1-1.8 1-2.3-2.3 1.6-1.2 1.6-1.2-1.4-1.3c-.7-.7-1.3-1.7-1.3-2.2s1.4-1.6 3.2-2.4l3.3-1.3 2.7 1.3a12 12 0 0 0 4.2 1.4c1.8 0 2.1-2 .3-2-1.5 0-6.2-4.8-7-7.3-.4-1-1.1-1.7-1.7-1.7-.6 0-1 .8-1 1.7 0 2.4-4 7-6.8 7.8l-2.2.6v-1c0-.5.4-1.3 1-1.6s1-2.4 1-4.6-.5-3.9-1-3.9-1 .5-1 1v1.1l-2.3-1.5a9.6 9.6 0 0 0-5-1.6h-2.7v-1.3c0-.7.5-1.8 1.2-2.5l1.2-1.2-1.5-.1h-2.3a11 11 0 0 1-2.7-.4c-1-.4-2-1.2-2-2s1-1.5 2.3-1.7c1.3-.2 8-.4 15-.3h12.8v-1.3c0-.6.4-1.2.8-1.2.5 0 1.5.7 2.2 1.5s1.6 1.5 2 1.5c.6 0 1-3.8 1-8.5v-8.5h-3c-1.6 0-3.6-.7-4.5-1.6l-1.5-1.5.5-2.2a12 12 0 0 0-1-6 21 21 0 0 1-1.5-6 9 9 0 0 0-2-4.8l-2-2.4v2c0 1.2.5 2.6 1.2 3.3l1.2 1.2-2.3 3c-1.2 1.7-2 3.5-1.6 4 .8 1.4-4 2.3-8.6 1.7l-4-.5v1.3c0 .7.7 1.8 1.5 2.4l1.4 1.2 5.2-1.3 1.5 1.2 1.6 1.3 1.1-1.1c1.7-1.7 4.5-1.5 5.6.4.5 1 .7 2.5.4 3.5l-.5 1.9h2c2.1 0 6.3 2.7 6.3 4 0 .6-.7 1.3-1.6 1.6l-1.5.6-3.7-3.3-10.7.6-.3 4c-.2 2.2-.5 4.5-.7 5.2l-.4 1.2-6.1-2.1v-3.4c0-1.9.4-3.4 1-3.4s1-.3 1-.8-2-.8-4.3-.8c-18-.6-30.2-1.5-31-2.3-.6-.5-.7-1.7-.4-2.6l.7-1.7 16.5.7.3-2.3c.2-1.2.7-2.2 1.2-2.2s1.4.9 2 2 1.5 2 2 2 1-.7 1-1.5v-1.5h5l.7-1.7.6-1.6-2.8-2.2-2.7-2.2-25.3-.4-1.5-2.4 4.2-3.5h5.3c3 0 5.6-.5 6-1 .8-1.3 8.8-1.3 10.1 0l1.1 1.1 7.4-1.4-1.3-1.3-1.4-1.4-17.4-.3v-2.6l3.5-.7c2-.3 4.6-.4 6-.2 1.3.3 2.5.1 2.5-.3 0-.8-3-1.2-11.5-1.3l-3-.1v-3l3.2-.3c1.8-.2 3.3-.7 3.3-1.2s-1.2-1.8-2.7-3l-2.6-2h-7.7v-4h4.8c2.7 0 5.1-.3 5.5-.7.4-.4-.2-1.2-1.4-1.9l-2.2-1.1 3.1-1.1c3.3-1.2 4.4-3.5 1.4-3l-1.7.3v-3l7-2.3-.3-4-.3-4 4.8 1 .5-5.9c.3-3.2.3-7.8.1-10.3-.2-2.5-.5-7.5-.5-11.2v-6.7l-2.8-2.4v1.5c0 .8-.7 2.8-1.5 4.5l-1.5 3 1.5 4.4c.8 2.4 1.3 4.9 1 5.6l-.5 1.3-1.4-.6c-.8-.3-2-2-2.6-3.6-1.3-4-1.3-10.1 0-11.5l1-1-1.5-4.4a29 29 0 0 1-1.5-7.5v-3.2l3.1-2.6-3.3-2.5.4-1.8c.2-1-.3-2.3-1.2-3l-1.5-1-2.5 7.2.6 5c.3 2.7 1.2 6 2 7.2l1.4 2.2v5.1c0 5.5-1.3 9-3.3 9-1.5 0-4.2-8.4-3.3-10 .4-.5 0-2.3-1-4-.8-1.7-1.5-4.5-1.5-6.3v-5.7c0-1.4.6-6.8 1.3-12l1.3-9.5 1.7-.3c.9-.2 2.7.2 3.9.9l2.2 1.1 1-1.4c.7-.8 2.1-2 3.3-2.6l2.1-1.1.7-4.6c.4-2.4 1.4-5.2 2.2-6 .8-.8 2.6-1.5 4-1.5h2.4l1 2.6c1.4 3.6 1.2 7-.5 8.3l-1.4 1.2-1.9-3.4-1.1.7c-1.4.9-1.5 4.3-.1 5 .5.4 1 2.7 1 5.2s.4 5.4 1 6.4l1 1.8-5.5 4.2 3.8 3 .6 4.3a24 24 0 0 1 0 7.1l-.8 2.9 1 1.8c1.2 2.4 1.1 7.6-.2 8.4l-1 .7.6 3.1a22 22 0 0 0 1.8 5l1.1 1.7-1.3 2-1.3 2.2.7 2.8c.3 1.6.2 3.6-.3 4.5l-.9 1.6 1.8 5.2c1 2.9 2.3 5.2 3 5.2s1.6-1.5 2-3.2l1-3.2-4.1-7.5 1.6-2.4 1.6-2.4-1.6-8.7c-.9-4.7-1.8-11.5-2.1-15.1l-.6-6.5 2-3.8 2.2-3.9-1-7.5c-.7-4.1-1.4-8-1.7-8.5-.3-.5 0-1.6.7-2.5l1.3-1.5.1-17.8c.1-9.7.5-18.2.9-18.9 1.5-2.4 3.4-.8 6.5 5.4 1.8 3.6 3.6 6.5 4.1 6.5 1.7 0 1-4-1.3-7l-2.2-3 1.9-5.3 2.3-6.3c.3-.6-.6-1.4-1.8-1.7l-2.2-.6.8-2.3c.4-1.3 1-4.2 1.2-6.5l.5-4.1 5.4-6.6 1.6.7c.9.3 3 3.5 4.7 7.1l3.2 6.6 1.5 8.7c.8 4.9 1.7 9.6 2 10.5s1 1.8 1.8 1.8 1.8-1.1 2.6-2.5l1.3-2.5-1-6.7-1-6.7 1-4c.5-2.3 1.6-5 2.3-6 .8-1.2 1.4-3 1.4-4a14 14 0 0 0-1.5-5 27 27 0 0 1-2-7.4l-.6-4.7 2-3.3c1.1-1.7 2.7-3.2 3.4-3.2h1.5l.5-3.8 1.4-8.2.8-4.5 4-.4 2.3 3 2.3 2.9V104l2.2 2.6c1.2 1.4 3.4 3.4 4.8 4.3l2.7 1.7.6 3.4c.4 2 .4 5 0 7l-.7 3.6-3.2-.6-.8-3.8c-.5-2-1.3-3.7-1.7-3.7s-2.5-2.3-4.5-5l-3.6-5.1-3.4.6-.4 10.3 1.6-.2 1.7-.1.1 2.7c0 1.6.6 3.3 1.3 4l1.2 1.2v12.5l-1.1.6c-.6.4-1.9 0-2.8-1s-2.2-1.5-2.6-1.5-1.7-.7-2.7-1.6l-1.8-1.7-.6 1.6c-.4 1-.1 3 .5 4.8a30 30 0 0 1 1 8c0 2.7.5 4.9 1 4.9 1.3 0 5 6.8 5 9v2h-1.4c-.8 0-1.9-.8-2.4-1.8l-1-1.7-2.4 2.4 2.2 6.1 2.2 6.1-.7 1.7c-.4 1-.7 2.2-.6 2.9.1.7-.7 1.7-1.8 2.3-1.2.6-1.8 1.5-1.5 2 .3.6 1.5 1 2.5 1h2v2.7c0 1.6.7 4 1.5 5.3s1.4 3.5 1.4 4.8c0 1.2.7 3.3 1.5 4.5s1.8 4 2.1 6.4l.7 4.1-2.9 1.5c-1.5.8-3.4 1.2-4.1 1-1.9-.7-4.2-7-4.2-11.3v-3.8l-1.6-1.2c-.8-.7-1.7-1-2-.8-.3.3 0 1.6.4 3s.7 3.8.4 5.6l-.5 3.3 1.6 1.7c.8 1 1.8 3.3 2.2 5.4l.7 3.6 3.8 1v4.5c0 2.5-.5 4.9-1 5.2s-1 3-1 5.8v5.2l3.8 6.2.4 5.4c.3 3 .8 6.4 1.2 7.6l.8 2.3-3.5 1.3-2-1.2c-1-.7-2.1-1-2.4-.7-.7.6.6 4.6 1.5 4.5h4v4c0 2 .5 4.8 1.1 6a7 7 0 0 1 .7 4.3c-.3 1.1 0 3.1.4 4.4l1 2.5-1.6.6-1.6.6.7 4.9.7 4.8-3.2 5 2.2 4.9-2.5 6 .7 5.8c.4 3.2 1.2 6.4 1.8 7 1.4 1.8 4.7 1.6 5.4-.2l.6-1.5h2.8c1.6 0 3.1-.5 3.5-1s1.2-1 2-1h1.5v2c0 1-.5 2.2-1.1 2.6l-1.1.6.5 3.7c.6 4.8 2.5 12 3.7 14l1 1.6v-3.7c0-2 .4-4 1-4.3.5-.4.9-2.5.7-4.8l-.2-4.2h1.4c.8 0 1.7 1.1 2 2.5l.7 2.5.7-1.3c.4-.7.5-2.1.1-3.3l-.6-2 2.3-2.8-7.3-3 .7-5.6 2.2-.3c1.3-.2 2.3-.7 2.3-1.2s-1-2.5-2-4.5-2-5.1-2-7-.5-3.7-1-4c-1.5-.9-1.3-5.3.2-5.8l1.3-.4-1.7-5.2c-1-3-1.5-6-1.1-6.7s1.2-1.4 2.1-1.2l1.6.3 1 4.2c.6 2.3 1.6 4.8 2.3 5.5a4 4 0 0 1 1.3 2.5c0 .8-.7 1.6-1.5 1.9l-1.4.5 1 3c.6 1.6 1.4 2.9 1.8 2.9 1.5 0 2.8-2.5 3.4-6.5l.6-4-6.4-6.6v-13.7l-5.8-5.3.7-6c.4-3.4 1.1-7.2 1.6-8.6l1-2.5 1.2.5c1.4.4 1.5 3.1.3 6l-.7 1.7h1c.5 0 1.3-.8 1.7-1.8s1-5.8 1.4-10.7l.6-9h4l-.3 1.3c-.2.8 0 2.3.3 3.4l.7 2 .9-1.3c.4-.8.8-2.4.9-3.7v-2.3l-2.5-2.3c-1.4-1.3-2.5-3.2-2.5-4.2 0-2.2-1.7-5-2.5-4.3-.2.3-1 3.8-1.5 7.7-.6 4-1.4 8-2 9l-1.8 4.2-3.8 9.2a33 33 0 0 1-4 8c-1.6 1.2-4.4.4-4.4-1.3 0-.6.9-1.3 2-1.6s2-1 2-1.7c0-.6-.8-2-1.6-3a7.4 7.4 0 0 1-1.4-3.7 4 4 0 0 1 1.4-2.8l1.4-1.2.7 2c.3 1.2 1 2 1.3 2 .9 0 3.2-8 3.2-11 0-3.2 4.9-17.2 6.4-18.4.7-.6 1.5-3.6 2-6.7.3-3.2 1-6.8 1.7-8.1l1-2.4-2.5-5.1c-1.5-2.8-2.6-6.5-2.6-8.1s.7-3.6 1.5-4.3c3.5-2.9 5.5-5.2 5.5-6.4 0-1.9-2-2.8-3.3-1.5-.6.6-1.5 1-2 1s-.7-1.4-.7-3.3v-3.3l-5.3 1 .7-2.4c.4-1.3 1-5 1.3-8l.5-5.8-5.7-.6-.3-6.5a416 416 0 0 1-.3-10.8c0-3.8-.4-4.4-2.6-4.1-1.1.1-2.3-2.6-2.3-5.4v-2.8l3.3-1.2 1 1.5c.7.8 1.8 1.3 2.5 1s1.7 0 2.1.7c.4.7.7 5.6.7 10.9l-.1 9.7 5.5 3.5v12.8l3.5 4.2 7.7-2.4-1-10.5 1.2-.5c.7-.2 1.8 0 2.4.7.7.6 1.2.8 1.2.3 0-.4-.8-3-1.6-5.6l-1.6-5-2-.5a8 8 0 0 1-3.3-3.3l-1.5-2.7v2c0 1.2.6 3 1.4 4a8 8 0 0 1 1.5 3.8v1.8l-1.7-.3c-2-.4-5.1-6.2-5.2-9.6v-2.2h3.7l.9-7.3-1.8-1.6a5 5 0 0 1-1.8-3.3v-1.8h3v-2.3c0-1.3.6-4.3 1.4-6.8l2-7.2.6-2.7h2c1 0 2.1-.5 2.5-1 .7-1.2-.4-7-1.4-7-.4 0-1.1 1-1.6 2.1s-1.5 2.1-2 2-1.2-2-1.3-4.3l-.3-4.3 2.4-5.8c1.3-3.2 3-6.7 4-7.8l1.7-2v-7.2c0-4-.4-8.6-1-10.4l-.9-3.2 1.5-4.2a56 56 0 0 1 2.5-6l1-1.9h2.4c1.4 0 2.5-.1 2.5-.3l-2-4.5c-1-2.3-2-4.6-2-5.2s.7-2.5 1.7-4.3L880 32l.1-9c0-5 .7-10.7 1.4-12.8l1.3-3.8 4.6-1.8.3-2.3.4-2.3 9.9.4 2.6 3.5v6.5c0 3.6.3 8.3.6 10.3l.6 3.8 4.5-1.2.9 1.3c.4.8.7 2.6.5 4.2 0 1.5.5 3.8 1.3 5s1.6 3.3 1.6 4.7.5 3.1 1 3.7a46.5 46.5 0 0 1 6 15c0 2.4 1.4 3 2.5 1.3.3-.6 1.5-1 2.7-1h2l-1.3 18h3l.6 2.4c.4 1.4.3 3 0 3.6-.4.6 0 2.2.9 3.5l1.6 2.4-2.6 7.8-2.7 7.8.7 6.4a35 35 0 0 0 1.7 8.4l1 2 2-3c1-1.5 1.9-3.6 1.9-4.5v-1.7l-4.5-.6.1-2.5c.3-4.2 2.4-11.4 3.6-12.1.6-.4 2.3-.3 4 .3l2.8 1v2c0 1.2-.6 3.6-1.2 5.4l-1.2 3.3 2.6 5-.6 3.5-.7 3.5-5.2 2.6-1.3 4a29 29 0 0 0-1.4 4.7c0 .5.6.8 1.4.8.8 0 2.2-1.7 3.2-3.7s2.4-3.9 3.1-4c2.2-.8 2.5 2.4.6 6.4l-1.8 3.8v5c.1 2.7.5 8.7 1 13.2l.8 8.2-2.6 3.1-1.2-1-1.2-1-1.3 5.8a48.5 48.5 0 0 1-4.2 13.9c-.6.7-1 2.6-1.2 4.4l-.1 3.2-3.4 2-1.5-1.2c-1-.8-1.6-2.4-1.6-3.6s.7-2.8 1.5-3.6a17 17 0 0 0 4.3-9.8 85.8 85.8 0 0 1 5.2-18.3c.6-1 1-4 .8-6.5V143l-2 10.7-1.8.5-1.8.5-.7 4.6c-1 7.3-3.5 14-6.4 17.4l-2.6 3.2.6 17 1.4 1.6a6 6 0 0 1 1.5 3.4v1.8l-5.7-1.3-1.1 2.8-1.8 5.1-.6 2.3-1.6-.3c-1-.2-2.1-1.6-2.7-3.2l-1-2.9 4.5-3v-2.8c0-1.5-.5-3-1-3.4-1.5-1-1.2-6.3.3-7.2l1.4-.8 1-9.6-5 .6-3-12.6 1.2-5.2a26 26 0 0 1 2.3-6.5l1-1.2-1.2-1.5c-.7-.8-1.9-1.5-2.7-1.5-.7 0-1.4-.8-1.5-1.8a78.5 78.5 0 0 0-.7-6.4c-.2-2.6-5-7.7-9.2-9.8l-3.8-2-1.6-4.8-1.6-4.8 1.3-9.4h3.7l1.2 4c.7 2.3 2 4.6 3 5s1.9 1.7 1.9 2.5c0 .7-1 1.5-2.3 1.7s-2.1.7-2 1.3 1.8 1.3 3.7 1.6l3.6.6v-2.5c0-1.4-1.2-4.9-2.6-7.8l-2.6-5.3-2-.6c-1-.4-1.8-1.4-1.8-2.3 0-1-1.1-3.7-2.5-6.2l-6-11.4-3.5-7-1.5 3.7c-.8 2-1.5 4.8-1.5 6.2s.6 4.2 1.5 6.2c.8 2 1.5 5 1.5 6.8v3.4l4.5.6-.3 3.8c-.2 2.1.2 4.5.8 5.2l1.2 1.4.1 19.2 5.7 3v1.8c0 1 .5 3.2 1 5l1.2 3.1h3.8v6h-2.5c-1.3 0-3.1-.7-4-1.6-.9-1-1.9-1.4-2.2-1-.3.3.1 3.7 1 7.5 1 3.8 2 9.8 2.1 13.3.5 8.5 1.6 15 3 16.7l1 1.4.6-3.7c.2-2 .9-3.8 1.4-3.9.4-.1 1.2.5 1.6 1.3l1.9 3.8 1.2 2.4-1.6 1.7c-.8 1-1.5 2.4-1.5 3.2s.8 3.1 1.8 5.1c1 2 2.4 5.8 3 8.3.7 2.6 2.1 5.6 3.2 6.8 1 1.1 2 2.9 2 3.9v1.7l2.8-1 .7-8.4a32 32 0 0 1 2-10.1l1.2-1.7 2.3 1.5-1.2 6.6 4.3 1.4-2.4 2.8h1c.5 0 1.6-1.5 2.4-3.3.8-1.7 3-7.9 4.9-13.5l3.4-10.4 3.6-1.9.5 1.4c.3.8-.4 3.8-1.5 6.8s-2 5.7-2 6.1c0 .5.7.8 1.5.8s1.8.6 2 1.3c.3.7-.2 3.2-1 5.6s-1.2 4.8-.9 5.3l.6 1 4.4-5.5 3.4 1.2v2.5c0 1.3-.8 3.8-1.8 5.5-1 1.6-1.4 3.3-1 3.7 1.3 1.2 3.7-1.7 4.8-5.8.6-2.2 2.3-5.2 3.7-6.6l2.5-2.6 1.3 1.8 1.3 1.7.6-1c.4-.6 1.6-1.1 2.6-1.1h2v2.3c0 1.3-1 3.2-2.1 4.3l-2 1.9.4 2.5 1.1 4.5.7 2-2.8 3.2a23.4 23.4 0 0 0-4.1 8c-1.3 4.7-6.8 17.6-8.6 20-.5.7-2 1.3-3.4 1.3h-2.4l.7-1.8c.4-1 1-3.7 1.4-6.2s1.5-6.2 2.4-8.4c1-2.1 1.7-4.6 1.7-5.6s-.7-2.3-1.6-3l-1.6-1.4-.9 1.5c-.5.7-.7 1.9-.5 2.5.6 1.6-1 3.7-2.3 3-.6-.4-1.1-2.1-1.1-3.9v-3.1l-.9 1c-.4.5-1.9 4.7-3.2 9.3l-2.4 8.3-2.2 1c-2.2 1-5 5.4-4.1 6.4.3.3 1.5-.5 2.6-1.7l2-2.2 1.6.6c.9.4 1.6 1 1.6 1.4 0 .5-1.2 2-2.6 3.6l-2.5 2.7h-2.3c-1.3 0-3.5-1-5-2l-2.6-2.1V260c0-1.3-.5-2.7-1.1-3l-1-.7.1 1.3c.4 2.9-.1 3.9-2 3.9H905l-1-3c-.6-1.6-2-4-3.3-5.2-2.9-3.1-7-12-7-15.5 0-1.5-.3-3.4-.8-4.2l-.9-1.3-.7 1.1c-.9 1.5.2 8.3 2 12.7.8 1.8 1.5 3.8 1.5 4.4 0 1.8-2.6 1-4.8-1.3a14 14 0 0 1-2.7-5.7c-1-5.5-3.3-9.6-6.1-11.5-1.4-.9-2.8-1.4-3.1-1.2-.3.3 0 1.5.7 2.7l1.2 2.2-.6 2.8-.5 2.8 4.7 1.2.7 3.2c1.1 5.7 1.6 6.8 2.9 6.8.7 0 2.5 1 4 2l2.6 2.1v2.4c0 2.7 1.4 5.7 5.2 10.6 1.5 2 2.8 4.2 2.8 5 0 .8.9 2.5 2 3.9s2 3.3 2 4.2v1.8h-5l-3-5.9a61 61 0 0 0-5.3-8.7 26 26 0 0 1-3.7-7.2c-1.3-4-3.2-5.4-4.6-3.2-.3.6 0 1.8.7 2.7l1.4 1.6V277l2 .4c1 .3 2.3 1 2.7 1.6.4.6.4 2.1.1 3.4a10 10 0 0 0 .5 5 46 46 0 0 1 1.6 6.4l.7 3.8h-5l-2.1-3.5c-1.2-2-2.8-3.5-3.6-3.5s-1.4.5-1.4 1 1.3 2.3 3 3.7c3.4 2.8 7.4 9.8 6.4 11.3-.9 1.5.5 5 2 5h1.3l-.5-2.5-.5-2.5h3.2l2 4.6c1.1 2.6 2 5.7 2 7 0 2.8 1 5.4 2 5.4.5 0 1-1 1.4-2.1l.5-2.1 1.4.4 1.3.5.1 7.1.2 7.2h-1.3c-1.5 0-3.2-1.9-3.7-4.2-.2-.9-3-4.4-6.2-7.7-3.2-3.4-6-6.1-6.3-6.1s-.2.9.2 2l.6 1.9-1.6 3c-.8 1.6-1.5 3.7-1.5 4.6 0 .8 1 2 2.2 2.4l2.3.8 1.1-1.6c2-2.7 2.9-.8 3.4 7.4l.2 3 .8-3.3c.4-1.8 1-3.6 1.3-3.9.3-.3 1-.2 1.6.2.6.3 1 2.3 1.1 4.3 0 2 .6 6 1.4 8.6l1.2 5 .8-1.3c.4-.7 1.3-1 2-.8l1 .4.2 16.8 2.2 4.8 2.2 4.8 2.1-1.3-.6-2.5-.6-2.4 3-3c1.6-1.6 3.4-4.6 4-6.5l1-3.6-1-2.3c-.4-1.3-.6-3.9-.3-5.8l.6-3.4-2.1-4.3a27 27 0 0 1-2.1-5.3c0-.4 1.2-.7 2.7-.5l2.7.3 1 3.2c.4 1.8 1.1 3.3 1.5 3.3 1 0 3-6.2 2.5-7.2-.3-.4-1.3-.8-2.1-.8h-1.6l.6-3.5.5-3.5-1.8-1c-1-.5-2.6-.7-3.4-.4-.9.3-1.8 1.4-2.2 2.5s-1.2 1.9-2 1.9h-1.4v-2.3c0-2.7 3.8-6.7 6.3-6.7 1 0 2.7.5 3.8 1s2.3.9 2.7.5.7-3.3.7-6.5l.1-6 1.3-1.4c.7-.9 1.7-1.3 2.3-1l1 .6-.8 5-.7 5 2.6 4.8-4.4 6 1.5 2.2c.9 1.2 1.6 3 1.6 3.8s-1.4 3.7-3 6.2c-1.7 2.5-3.3 6-3.7 7.9l-.6 3.4 2.1-2c1.2-1 2.2-2.4 2.2-3s.9-2 2-3l2-1.8v2.2c0 1.2-1 3.8-2.4 5.9-1.3 2-3.8 6.7-5.6 10.4s-3.6 6.8-4 6.8c-.3 0-1.2 2.2-1.9 4.8l-1.2 4.8 1 2.7c.6 1.5.8 3.4.4 4.2l-.5 1.5h1.5c1.7 0 5.2-4 6.2-7l.6-2h5.4l2-3.3c3.6-6.2 4.3-7.7 4.6-10l.4-2.2h2.5c4.3-.2 6.8-1.6 7.8-4.5l1-2.7-1-1.4c-.4-.8-.8-2.6-.8-4v-2.8l7.3-.6 1.2-3.5c.6-2 1.4-5.6 1.8-8.3l.6-4.7h-1c-.5 0-1 1.3-1 2.9 0 3-2.2 5.7-4 4.6l-1-.7.3-5 .3-5-2.4-1-2.5 4c-1.4 2.3-3.5 5-4.7 6s-2.5 4-3 6.3l-4 14.1-3 9.8H932c-.8 0-2 1.1-2.4 2.5l-1 2.5h-3.3l.6-2.3c.4-1.2.6-3.4.7-4.8v-2.6l3.3-4.4c1.9-2.4 4.2-6.8 5.1-9.6s1.8-8 2-11.3l.1-6 1.3-1.2c.6-.7 1.2-1.8 1.2-2.6v-1.4l-4 1V323a18 18 0 0 1 3-9.5l1.8-2.5 1 2.4.8 2.4 3-4.4c3.6-5.3 5.9-10.7 5-11.6-.4-.4-1.5-.2-2.5.4l-1.8 1-3.3-1.8v2.5c0 3.5-1 5.6-2.6 5.6h-1.4v-11.8l1.6-3.8c.8-2.2 2.5-5 3.6-6.2l2.1-2.2h5.4l5 5 3.4-3a18 18 0 0 1 5.5-3.5c2.9-.7 7.2 1 8 3.1l.7 1.7-2.4 1.8-4.5 3.9c-2.3 2.3-5.4 2.7-5.4.6 0-.8 1-2.1 2.5-3 1.3-1 2.5-2.3 2.5-3.1v-1.4l-1.5.5a25 25 0 0 0-9.4 10l-.7 2.6 5.6 6v4.4c0 2.4.4 4.4.9 4.4s1.2-1.4 1.6-3c.7-3.3 4-7 6.1-7 .7 0 2 1.5 3 3.2l1.7 3.3-.2 16.5h1c.4 0 .9-2.4.9-5.4v-5.4l2.9-1.1.6 2c.3 1 .3 2.3 0 2.8-.3.6-.3 2.3.1 3.8l.7 2.8 1.3-3a18 18 0 0 0 1.3-5.6 19 19 0 0 1 4.6-10.9l1.6-1.3 2 2V341l-.1 5-1.6 1.7-1.6 1.8 1 5c.7 2.9 1.2 7.8 1.2 11v5.9l1.5.6 1.6.6-.2-17.3-.2-17.2 2.2-10.5c2.2-10.2 4.5-16.8 6.5-18.2 1.8-1.3 2.8.4 2.3 3.8l-.6 3.3 1.4 1.2c.8.6 1.5 1.8 1.5 2.5 0 .8.7 1.4 1.5 1.4h1.5l-.6-5.3a71 71 0 0 0-1-6.3c-.1-.6 0-1.6.5-2.3l.7-1.2 1.6.6c1 .4 2 2 2.4 3.8 1 3.8.6 33-.5 33.7-.4.3-1.2 1.7-1.9 3.2l-1.2 2.7 1 .6 1 .7-.3 5-.4 5.2 1.1-1.9c.6-1 1.9-2.7 3-3.8l1.8-1.9.8.8c.4.5 1 2 1.2 3.4l.4 2.5.8-4.2c.5-2.4 1.4-5 2-6l1.3-1.6 2.3 1.4v13.7l6.8 5.2.6 8.7c.3 4.9.5 11.2.5 14v5.3h1.4c.8 0 1.7-.5 1.9-1.2s0-3.2-.4-5.7c-.9-5.5-1-38.7-.2-41.8l.6-2.3 4 2.2-.6 10.9-.5 10.9h1c.8 0 1.3-2.1 1-4.8-.2-.8.4-2.3 1.2-3.5 1.5-2.4 3.3-16 2.8-21.5l-.2-3.4 3.6.8-.5 1.5c-.5 1.6-.3 6.6.5 12.4.3 2.2.8 8.8 1.1 14.7s1 10.8 1.5 10.8c2 0 2.1-6.5.9-25-.7-10.7-1.3-22.4-1.2-25.8v-6.4l1.2-1.4 1.2-1.4 5.1.5.8-3.4c.3-1.8 1.4-4 2.3-5l1.6-1.5v1.2c0 .7 1.2 2.4 2.6 3.8l2.7 2.4-1.4 2.8a16 16 0 0 1-3.3 4.3l-2 1.6 1.2 3.3a63 63 0 0 1 1.3 13.4v10l1-3a104 104 0 0 0 1.4-13.8l.7-10.8 1.4-.6c.8-.3 1.8-.2 2.1.1.4.4.7 2.1.7 3.8v3.2l5 1.2-.3 10c-.2 5.4-.7 10.3-1.2 10.8l-1 1-1.1-1.2-1.2-1.2.2-6.7c.3-11.1-1-6.2-1.6 5.9l-.5 11.3 3.2-2.7 1.3 2.7 1.2 2.7-1.7 3a12 12 0 0 0-1.7 5.3 5 5 0 0 1-1.3 3.3l-1.3 1.1v9.4l1.3.4 1.3.5v-2.9c.3-5.7.5-6.6 1.5-7 .6-.2 1.6.8 2.3 2.2.6 1.4 1.5 2.5 2 2.5 1.5 0 2-2.3 1.6-7a155 155 0 0 1 .6-29.1c.5-1 1-3.3 1-5.3 0-1.9.2-4.2.6-5 .9-2.4 3.3-1.9 4 .9.3 1.4.3 4.2 0 6.2l-1.3 8.3a21 21 0 0 1-1.8 6.5l-1.3 2 2.7 5v-2.6c0-1.5.7-3.2 1.6-3.9l1.4-1.2.5 1.3 1 2.9.4 1.5.2-3.5h4l-.6 4.4-.6 4.4 2.5 1.5 2.6-3.6-.5-5.1c-.3-2.8-.8-6.9-1.3-9.1l-.8-4-.7 1.7-1.1 3.4c-.3.9-1.1 1.4-1.8 1.1l-1.2-.4-.8-6.9a72 72 0 0 1-.1-12.6l.5-5.7-5.6-.6-.4-2.3-.3-2.2h-3.8l-.6-2.8a13 13 0 0 0-2.2-4.4c-.8-1-1.1-2.2-.8-2.7.4-.6 1.6-1.1 2.7-1.1h2l.5-3c.4-1.7 1-3.3 1.4-3.5.5-.3 1.4 0 2.1.7.8.7 2.6 2.1 4.1 3l2.8 1.8v8.5l1.4-2.5c.8-1.4 2.6-3.2 4-4l2.6-1.3v-5.8l2.7-3.5c1.5-1.9 3.6-3.4 4.5-3.4s1.8.4 1.8 1 1 1 2 1h2.2l.5 2c.3 1.1 1 2 1.5 2h1l-1.3-7h1.8c1 0 2.4.5 3 1.2s1.2 3 1.2 5.2v4.1l-4.4 9h-4v-5.3c0-2.8-.3-5.2-.7-5.2-.4 0-1.3 1-1.9 2.1-1.1 2-.9 6 .6 10.6l.7 2.3h-6l-.4 2.2-.3 2.3-2.2.3-2 .3-1.4-7.2-1 .6c-.5.3-1 2-1 3.9 0 1.8-.8 5.1-2 7.4l-2 4.2 1 2a6 6 0 0 1 .6 4c-.4 1-.2 2.8.4 3.7l1 1.8v-11.3l2-2.3 1.9-2.4 1.5 3.8 1.6 3.7.5 9c.3 5 1.2 10.9 2 13.2s1.2 4.5 1 5c-.3.4-1.2.8-2 .8h-1.4v10.6l2.3 2.2c1.3 1.2 2.7 2.2 3.3 2.2.5 0 1.5 2 2.2 4.5l1.2 4.6 3.2 1.2.9-1.4c.5-.8.7-2.5.5-3.8s.2-4.9 1-8a51 51 0 0 0 1.3-8.2v-2.7l-3.2-1.2.7-3.3c1.6-8 2.9-17.4 2.7-20-.4-6.4-.4-11.7.1-19l.6-8 5.7-12.7 1.5.3 1.5.3-.2 2c0 1-.4 3.4-.9 5.3l-.7 3.3 2-1a9.3 9.3 0 0 1 3.2-1.2h1v6.3c0 3.5-.4 7.8-1 9.6l-1.2 3.2-1.4-.5-2.8-1.2-1.5-.6v1.7c0 1 .7 2.3 1.6 3l1.7 1.2-1.2 4.8-1.2 4.7 3.8 2.7-.4 6c-.3 3.4-.3 6.1 0 6.1s1.4-1.5 2.5-3.2l2-3.3.7 1.8c.4 1 .2 3.6-.4 5.8l-1.2 3.9h-1.9c-1 0-2.1.8-2.4 1.7-.3 1-.8 4-1.2 6.5l-.7 4.8h1.2c.6 0 1-.7 1-1.5v-1.5h3.8l.6 8.2c.3 4.6.4 10 0 12l-.6 3.8h1c1.2 0 4.5-7.6 4.5-10.3 0-1.2-.5-6.3-1-11.2l-1-9 1-1.3c.6-.6 1.4-1.2 1.9-1.2s1.1 1.1 1.5 2.5c1 4.1 2.3 2.8 2.1-2.1l-.2-4.7-3.5-2.2v-5.4l4.7-5.4 3.3 1.2v4.3c0 2.4.4 3.7.6 3s1.5-1.2 2.6-1.2h2l-1.3 10.5-3.7 3.4-3.7 3.5v38l-1.1.3c-.6.2-2-1.6-3-4l-1.8-4.2-.4 4c-.2 2.2 0 6.4.3 9.3l.6 5.3 3.4-.6.6-5.5h1.4c.7 0 1.7-.5 2-1.1.4-.7.8-4.8 1-9.3l.1-8.1 1.4-2.5c.7-1.3 1.8-3 2.5-3.7l1.3-1.2-.3-8.6-.3-8.5 1.4-1.7 1.4-1.8 1.5 2c.8 1 1.3 2.5 1 3.2-.2.7 0 1.3.6 1.3h1.1l-.5-5.3c-.3-2.8-1-8.3-1.7-12.1l-1-7 1.1-.7c.7-.4 1.7-.5 2.4-.2l1.3.4.8 6.2.8 6.2.7-19.5c.4-10.7.5-19.7.3-19.9-.2-.2-.8.8-1.4 2.3l-1 2.6-2.4-.6-2.4-.6-1.1 6.4c-.6 3.6-1.1 7.6-1.1 9s-.3 2.7-.6 3c-.3.3-1.4.3-2.5 0l-2-.4.1-3.2c0-1.7.8-6.5 1.8-10.6l1.7-7.5 2.3-1 2.3-1-.8-31.8-2-.7c-1-.4-2.6-1.7-3.6-2.8l-1.9-2 1.1-.7c.6-.3 1-1.3 1-2.1v-1.5l-2 1.1c-1.1.6-2.4 2.1-2.9 3.3s-1.6 2.9-2.4 3.6l-1.7 1.4-12.2-1.3-1.4 1.1c-.7.6-1.3 2.2-1.3 3.5v2.4h-1.9c-1 0-3-1-4.5-2.1l-2.7-2.1-3.9 3.4-1.5-.6c-.8-.3-1.5-1-1.5-1.4s.6-1.5 1.5-2.2 1.5-1.6 1.5-2.1-.7-.9-1.5-.9c-.7 0-3.5 2-6 4.6l-4.6 4.6-1.7-1.5c-1-.8-2.7-1.8-3.9-2.1l-2.2-.7-.6 1c-.4.6-1.7 1.1-3 1.1h-2.5v-1.3c0-2 6.9-10.5 9-11.2l1.7-.6.7-3.7c.3-2 1.4-4.8 2.5-6.2l1.9-2.4 4.3-1c2.3-.6 4.4-1.6 4.5-2.1.2-.6-.5-1.6-1.7-2.3l-2-1.2-1.9 1c-1 .5-3 1-4.4 1s-2.8.4-3.1 1c-.9 1.4-3.5 0-3.5-2 0-.9-1.3-2.9-3-4.4l-2.8-2.8-4.2 1.3-.6-1.5c-.4-1-.1-2.3.6-3.1l1.2-1.5h-16.1l-.6 1c-.4.5-2.4 1-4.5 1s-4.2-.5-4.5-1-2-1-3.6-1h-3v5h-3v4h1.4c.8 0 2-.7 2.7-1.5l1.2-1.5h6.5l.6 2.2c.4 1.3.6 2.9.7 3.5v1.3h-5v2c0 1.1-.7 2.3-1.5 2.6l-1.4.6-8.5-8.2-.8 1.2c-.4.7-.5 2.3-.2 3.5l.6 2.2-2.6 1.2c-2.7 1.2-3.4 3.3-1.6 4.4 1.4 1 1.2 4.2-.4 4.8l-1.4.6-2.1-2.3c-1.2-1.2-2.1-3-2.1-3.8s1.3-4 3-7c1.5-3 2.6-5.8 2.3-6.2-.7-.6-7 3.8-8.8 6.1-.6.8-2.4 1.5-4 1.6l-3 .2-.4-2.3-.3-2.2h1.1c.6 0 1-.7 1-1.5s-.4-1.5-1-1.5-3.6 2.7-7 6-6.6 6-7.3 6c-1.3 0-2.6 2-2.6 4 0 .6.9 1 2 1s3.5-1.4 5.1-3c1.7-1.7 4-3.5 5-4l2-1.1 1.4 1.1c.8.7 1.5 1.6 1.5 2.1s-1.2 1.4-2.5 1.9l-2.5 1v1.9c0 1-1.2 2.6-2.6 3.5l-2.5 1.7-8.4-.6.3-1.8.3-1.7h-2c-1 0-2.6.8-3.5 1.8l-1.6 1.9v9.2l-6.4 3.3-1.2-1.6-1.2-1.7-.7 1c-.4.6-1.5 1.1-2.6 1.1h-1.9l1-2.7-4-1.1-13.5 10-.4-1.6c-.4-2 3.6-7.6 5.5-7.6.8 0 2-1 2.5-2.4l1.1-2.4 5.1-.6 8-.9c1.5-.2 2.7-.5 2.7-.8s1-2.3 2.4-4.3 2-3.6 1.5-3.6-4 1.6-7.7 3.5l-6.7 3.6-4-.7c-2.2-.4-4.4-1.2-4.8-1.8a8 8 0 0 1-.7-3.4v-2.4l4-1v-2c0-2-1.5-2.4-2.6-.7l-.7 1.1-7.4-1.2-3.8 3h3.2c1.7 0 3.5.5 3.9 1.1l.7 1.2-1.6 1.2c-2.3 1.7-9.6 4-10.4 3.2-.3-.4.1-1.8 1-3.1l1.6-2.5-2-.6c-3.1-1-6-3.7-6-5.6v-1.7l-3.6-1.2-3.6-1.2-.8 1.3a119.1 119.1 0 0 1-9.5 26.2 13.9 13.9 0 0 1-4.4 5l-2.4 1.2-2.2 6.8-4.4 1.6-4-5.1.6-2.7a76 76 0 0 1 2.4-7.6l2.5-7.3.6-2.2h3.9v1.5c0 .8-1.4 4.3-3 7.7l-3 6.2 1.7 1.8.8-1.3c.4-.7 1-2.6 1.4-4.3l.7-3.1h5.6l1.4-2.8a32 32 0 0 0 2.4-8c.6-2.8 2-7.8 3.2-11l2.3-5.9 7.6-3.3.5-2.2c.3-1.1 0-3.1-.6-4.3l-1.2-2.2 1-1 1.1-1.2 4 3.7v6.3l4 4.2 4.3-.5c4.3-.6 7.3-2 6.3-3.1-.3-.4-2.5-.5-5-.3l-4.3.2-.5-2.8c-.3-1.5-.2-3.2.3-3.7s5-.8 10.1-.7c5.1.1 9.6.4 10 .7s.5 1.1.2 2c-.3.7-1.6 1.4-3 1.4h-2.3v5.6l-4.5 4.3-5 .3c-2.7.2-5 .8-5.2 1.4l-.4 1 5.8-.3c3.2-.3 7-1 8.5-1.5l2.8-1V260l5-4.4 5-4.4 6.8.7c11.2 1 15.2 1.8 15.7 2.7.8 1.3-1.4 4.9-3 4.9h-1.6l-.6 3.1-.6 3.1-8.2 3.7-1.3-1c-.7-.7-1.2-2-1.2-3v-1.9h-2c-2.1 0-2.7 1.4-1 2.5.4.3.6 1.2.3 2l-.6 1.6-1.9-.7-2-.6-1.4 1.2c-.8.7-1.4 2.1-1.4 3.2v2l5.2-.7c2.9-.4 6-1.2 7-1.7s4.4-1.3 7.4-1.8c3.1-.5 5.9-1.2 6.2-1.5.3-.3 0-1.6-.8-3-.7-1.3-1-3-.7-4 .3-.8 1.5-1.5 2.6-1.5h2l.6-2c.3-1.1 1.1-2 1.8-2h6.7l5.5.1 5.6 4 3.2-2 3.2-2.2-7.6.6-.8-1.3c-.4-.7-2.1-1.6-3.8-2.1l-3-.9-10.6 2.1-1.6-2-1.6-2-5.5-.7c-3-.3-13.9-.7-24-1a239.4 239.4 0 0 1-29.9-2.1c-.2.3-1 0-1.8-.6l-1.4-1.2 2-2.4 4.8.6c6.6.9 28.3.5 37.3-.7l7.5-1 95.7.6 1.9 2-.7 2.5-.6 2.7-8.3 2.3 6.7 2 1.3-1.6c.6-1 1.7-1.7 2.3-1.7s1.3.9 1.7 2 1 1.8 1.5 1.5c.5-.4 1-2 1-3.6v-2.9h2c1 0 2.4.9 3 2s1.5 2 2 2c1.2 0 1.2-5 0-7l-.9-1.4-2.6 1.2c-1.5.7-3.1 1-3.6.6-1.6-1-1-3.2 1.3-5.4l2.3-2.2 7.5 1V237c0-.7-1.4-2-3-2.9l-3-1.5-.6-3.5-.7-3.5 1.7-2.6c1-1.4 3-3.3 4.6-4.2 1.6-1 3-2.2 3-2.7 0-.6 1.4-1.9 3-2.9l3.1-1.8 5.8 1.1.8-1.3c.4-.7 2.3-1.6 4.3-2l3.5-.6 4.8 2.5 1.7 6.4 3.4-.1c2 0 4.2.5 5 1.2s1.6 2.2 1.6 3.4c0 1.2.5 2.7 1.2 3.4l1.2 1.2-2.7 4.3 3.7 2.7-1.2 2c-.7 1.2-1 2.5-.7 3 .3.6 1.4 1 2.3.8l1.7-.3v3l.3 3.8c.1.4 1.2.1 2.4-.7 1.2-.9 3.6-1.6 5.2-1.6 3 0 17.3-2.7 18.6-3.5.9-.6 9.2 1.6 10.7 2.8 1.3 1 1.7 6.4.7 9l-.6 1.5-4-1c-4-.9-5.8-.5-5.8 1.3v1l2.8-.3c3.3-.3 6.3 1.7 5.5 3.7-.6 1.7-5.3 2.6-7.6 1.4-1-.6-1.7-1.6-1.7-2.4v-1.5l-4.8.7c-2.6.3-5 .7-5.2 1-.2.2.1.9.8 1.5.6.7 1.2 2 1.2 3v1.8h-2.5c-1.3 0-2.7-.5-3-1s-1.7-1-3-1a6 6 0 0 1-3.7-1.3l-1.4-1.4-7-.6-8.8-1-1.8-.2-1.5 4.6c-.8 2.5-2.4 5-3.5 5.8l-2 1.2-3.4-1.1-3.4-1.2v-2c0-1.2-.8-3-1.6-4-1-.9-1.3-2.2-1-2.8l.7-1 10.2 1.3-.7-1.7a53.4 53.4 0 0 1-2-16l.6-1.6h-3.2l1 14.9-1 .5c-1.3.9-4-.4-4-2v-1.4h-2.1c-1.1 0-3-.5-4-1l-2-1.1-3 2.4 1.6 1.8 1.7 1.8-.7 5.3c-.4 3-1.3 6-2 6.8l-1.3 1.5-.4 7.7c-.2 4.3 0 7.8.3 7.8.4 0 2.2-.8 4-1.8l3.7-1.9c.2 0-.4-1.3-1.3-2.7-1-1.4-1.4-3-1-3.6.3-.5 1.7-1 3-1h2.5l1 2.6 1 2.6 1.7-.7 6.2-2.2 4.3-1.5 3.7.7c2 .4 4.4 1.4 5.4 2.3l1.9 1.7 3-4.5h8.7l1.5-3.5 1.5-3.5h1.9c1 0 2.5.7 3.2 1.5l1.3 1.6-1.3 3.9-1.3 3.9.7 6.8.7 6.8 2 3.8 1.9 3.8-.7 2.5c-.3 1.4-.6 5-.7 8.2l-.1 5.7h-3.3c-1.7 0-3.4.4-3.7.7-.5.5-1.1 4.5-3.2 21.5l-.6 5.3h3l.5-6a19 19 0 0 1 1.8-7.5l1.2-1.5 4 2.2-.7 8.6c-.3 4.8-.9 10.4-1.2 12.5l-.5 3.8-6.3-.6-.7 3.7 1.8-.6c1-.3 2.5-.2 3.3.3l1.4.9-2.3 9.1 1.2 19.8-1 .7-1.1.6 1.2 18-1.7.6c-1 .3-2.3 0-3.1-.6l-1.5-1.2V397c0-4.6-.3-9-.6-10-.9-2.1-2.4-1.9-2.4.4 0 1.1-.4 2.2-1 2.5-.5.4-1.6-.1-2.5-1l-1.5-1.5v-7l-2 1.2.6 7.8c.4 4.3.3 9 0 10.5l-.7 2.6h-3.6l-.7 6.1a162 162 0 0 0-.6 14.3v8.1l2-2.4c1-1.3 2-3.5 2-5 0-1.4 1-4.8 2.2-7.4l2.3-4.8 1.4.3c.8.2 1.8 1.6 2.3 3.3.9 3 .3 20.3-.8 26.3l-.7 3.4 3.8-.7.2-6.5c.1-3.6.5-8 .8-9.8l.6-3.3 1.4 1.1a5 5 0 0 1 1.5 3.4 8 8 0 0 0 1 3.6l1 1.5v-9.1c0-5 .4-10.4.9-12a78 78 0 0 0 1.5-5.7l.6-2.7h5v2.3c0 1.3-.7 4.6-1.5 7.3s-1.5 7.1-1.4 9.9v5l1-4.2c.5-2.3 1.6-4.6 2.3-5.3l1.4-1.1 4 2-1 3.3c-2.2 7-3 16-2.7 31.8l.4 16.5-1.3.1c-2.5.3-2.6.4-1.6 1.5l1 1 5.4-1.3v-21.4l1.1-1.2 1.2-1.1 1.9 1 1.9 1-1.4 17.9h4.3v3.2c0 4.1-2.2 10.4-4.3 12.5l-1.6 1.6-1.6-1.3a5 5 0 0 1-1.5-3.3V480l-1.2 1.2c-1.3 1.2-5.6 1.6-8.1.6l-1.4-.5.3-2.2.4-2.2-1.9-2.2-1.8-2.1-3.4-.2c-1.9-.1-3.9-.2-4.4-.1-.6 0 .3 1.2 2 2.5l3 2.4-2 2.1c-1 1.2-1.7 2.1-1.4 2.1 1.2 0 11.4 4.1 13.4 5.4l2.4 1.6-.6 1.6-.6 1.6-3.1-.5a48 48 0 0 1-9-3.2l-5.8-2.7-1.1-2.5-1.1-2.5 1.7-1c.9-.5 1.7-1.8 1.7-2.9v-1.9h-8l-2.1-4 .8-1.8c.5-1 .6-3.3.3-5.2l-.5-3.5h-3l.1 13.5h-1.3c-.8 0-2.4-2.1-3.6-4.8l-2.3-4.7-6-.1.4-2.5c.2-1.3.4-6 .5-10.2l.2-7.9-1.2-1-1.2-1-.7 3.5c-.3 2-.2 5.6.3 8 .6 2.6.8 4.9.5 5.2s-1.4.5-2.3.5h-1.8l-.6-4-.7-4.1-1.3 1.7-1.2 1.7-6.5-2.8-1.4-3.4c-.8-1.8-1.4-4.2-1.4-5.3s-.7-2.1-1.5-2.4l-1.5-.6v-2.4c0-1.3-.5-2.4-1-2.4-1.3 0-1.4 4.7-.1 5.2.5.1 1.2 1.5 1.6 3l.7 2.8h-2c-1.1 0-2.7-1-3.6-2.3l-1.6-2.2-1 1.7c-.7 1-1.8 1.8-2.6 1.8h-1.5l-1-3c-.7-1.7-1.8-3-2.5-3s-1.7 1.1-2 2.5l-.7 2.5h-1.8c-1 0-2-.6-2.2-1.3-.2-.6 0-3 .5-5.2l.9-4-.6-13.5c-1-22.4-1.6-31-2.4-31-.5 0-.9 8.9-1 19.7l-.1 19.8 1 3.3c.7 1.8.9 4 .5 4.8l-.6 1.6-2.3-1.5c-1.3-.9-3.6-1.7-5.2-1.9l-3-.3-.6-3.6 4.3-1.2-.6-3.4c-.4-2-2-5.2-3.4-7.3l-2.8-3.9.4 5 .5 4.9-2.9.1h-3.7c-2.1-.4-4.5 1.2-4.8 3.2-.2 1.2-1 2.3-1.9 2.5l-1.5.3-3.6-7.5 2-1.7c1.2-1 2.2-2.2 2.2-2.8s-1.2-2.2-2.6-3.8l-2.5-2.7.2-3c.4-4-1-35.3-1.8-39l-.5-2.8-2.2 2.1.2 7.8c0 4.3.5 14.3 1 22.3s.6 14.8.4 15.2c-.5 1.2-9 1-11.3-.2l-2-1v-6h-2.8l-.6-3-.7-3.1-1.2.4c-.6.2-1 1.6-1 3l.2 2.7h-1.9c-1 0-2-.5-2-1s-.6-1-1.4-1c-.8 0-2.6-1-4-2.3l-2.6-2.2-1-6a19 19 0 0 0-2.4-7.4l-1.5-1.5v2.1a16 16 0 0 1-1.2 4.8l-1.2 2.5h-1.8c-1 0-2.2-.7-2.5-1.5l-.6-1.6-1.6.5c-.9.3-2.1.2-2.7-.2-1-.7-3.1-6.8-3.7-10.6-.4-2.9-2.4-3-3.1-.2l-.6 2.4-3.8-1-.5 2.2-.6 2.2-1.8-.4-1.8-.3v-3.5l-.1-3.5-2.4-1.2a7.2 7.2 0 0 1-3.2-3.2c-.4-1.2-1.5-2.1-2.4-2.1h-1.6l.7 6.5-1.3-.1c-2.8-.2-3.1-.5-3.4-2.6l-.3-2.3-2-.3a6 6 0 0 1-3.2-2l-1.2-1.4 1.2-6.1-1.2.7c-.6.4-1.1 2.3-1.1 4.2v3.5l-1.7-.3c-2-.4-3.4-4.6-2.3-6.8.4-.8.4-3.5 0-6l-.8-4.5-.1 4.3-.1 4.4-2.1.5-2.1.6.5 1.8.4 1.8-2.7 1-1.5-2.2-1.5-2.1-.2-7-.2-7.1-.4 5.7c-.3 5.4-1.3 7.1-2.7 4.8-1-1.5-2.5-1.2-2.5.5v1.5h-2.4c-1.3 0-3.7.7-5.5 1.6l-3.1 1.5-.1 2.2c-.1 4.5-.8 8.3-1.9 11.1l-1.1 3-.9-1a8 8 0 0 1-1.3-3.4l-.4-2.5-2.4 5.7-1.8-.5a6 6 0 0 0-3.5.5l-1.6.9v2.8c0 1.6-1 4-2 5.4s-2 3-2 3.6-1.1 2-2.4 3.3a12 12 0 0 0-3 4.8l-.6 2.4 1.4 1.6 1.3 1.5 1.2 17.7c1 17 2.8 25.9 4.7 24.8.5-.3.8-1 .7-1.5l-1.8-11-1.7-10v-11.2l-.1-11.3 1-1.2c.5-.7 1.6-3.1 2.3-5.3s2.1-4.6 3.1-5.3c1-.7 1.9-2.2 1.9-3.3v-1.9h1.6c.8 0 1.8.9 2 2s.9 2 1.2 2 1.5-1 2.8-2.1c2.3-2.2 4.4-1.9 4.4.7v1.4h5l.6 1.6c.4.9-.1 3.1-1 5l-1.7 3.6-1.2-.5c-.7-.2-1.4-1.4-1.6-2.6l-.3-2.3-4.6 1.2-1.7-2c-1-1-2.1-1.7-2.6-1.5a8 8 0 0 0-1.4 3.2c-.4 1.6-1.7 4-3 5.3l-2.4 2.5-1.4 8.5h1.1c.7 0 1.2-.5 1.2-1s1-1 2.3-1h2.4l.6-3c.7-3.3 4.2-7.3 6-6.7l1.2.4-.4 2.3c-.3 2.2-3 7.5-5.8 11.5-.7 1-1.3 2.6-1.3 3.3s-1.4 3-3 4.9l-3.1 3.4.5 3.2a82 82 0 0 1 2.2 22c-.4 2-1.4 4-2.2 4.7l-1.4 1.2v6.7l4.2 2.3-.5 6-.6 6 2.5 1c1.3.6 2.4 1.5 2.4 1.9s1.1 2.1 2.6 3.8l2.5 3.1h4.7l4 4.9c2.3 2.7 4.2 5.2 4.2 5.6s1.1 2.3 2.6 4.2a15 15 0 0 1 2.8 6.3c.2 3.4 4 8 6.7 8 2.5 0 6.7 4 7.4 7.2l.7 2.8h-4.3l.3 2.6.3 2.7-1.3.4c-2 .7-7-5.4-7.8-9.1-.3-1.8-1.7-4.6-3.1-6.2-5-5.7-7.3-9.1-7.3-10.7 0-.9-1-2.2-2.1-3a49 49 0 0 1-6.4-7.5 48.7 48.7 0 0 0-5.5-6.7c-2.5-1.5-2.3 1 .4 6.3 1.6 3.1 4 7 5.3 8.6l2.3 2.8-.6 2-.6 1.8 3 4.6c1.8 2.5 3.2 4.8 3.2 5.1s1 2 2.4 3.8a22 22 0 0 1 3.5 7.6l1 5.5c0 1.7-2.1 2.3-4.8 1.3zm-20.6-46.5-1.5-2.9v2c0 1.2.5 3.3 1.2 4.8l1.3 2.7.3-1.8c.1-1-.4-3.1-1.3-4.8zM909 474.7c-.3-1.2-1-2.2-1.5-2.2-1 0-1.1 4.3-.2 5.3 1.2 1.2 2.3-.8 1.7-3zm266.7-12.7c0-1.4-.5-2.5-1-2.5-1.2 0-1.4 3.3-.4 4.3.4.4.8.7 1 .7.2 0 .4-1.1.4-2.5zm-268.8-2.2-.5-1.4-.9.9c-.5.5-.6 1.6-.2 2.6l.6 1.8.8-1.3c.4-.7.5-1.9.2-2.6zM921 457l.7-2.4-3.8-8.7.2 6 .4 6.7c.1.5.6.8 1 .8.5 0 1.2-1 1.6-2.4zm-7.5-9.6c0-2.7-.5-4.7-1-4.4-.5.3-.8 2.8-.8 5.5v5l1-.6c.5-.4 1-2.8.8-5.5zm245.2 2c0-1.7-.5-3-1-3s-1 1.6-1 3.6v3.5l1-.6c.5-.3 1-2 1-3.6zm-13 1c0-.6-.5-1-1-1s-1 .7-1 1.6v1.5l1-.6c.5-.3 1-1 1-1.6zm18.6.3c-.3-.3-.6 0-.6.7s.3 1 .6.7c.4-.4.4-1 0-1.4zm10-4.5-.4-2.3v4c0 2.2.2 3.2.4 2.3s.3-2.8 0-4zm-302.6.7c0-.8-1.2-1.8-2.6-2.1l-2.6-.7-.9-2.3c-.5-1.3-1.3-2.4-1.8-2.4s-1.1 1.5-1.3 3.4l-.4 3.5 1.8.8c1 .4 3.2.9 4.8 1l3 .2zm255.6-8-.7-6.2 1.1-3 1.1-3.2-4.3-4.3.5-1.9c.2-1 0-1.9-.4-1.9-1.2 0-2.3 8.6-1.5 10.7.4 1 .9 5.2 1 9.4.2 4.3.7 8.2 1 9l.8 1.2 2-3.6zm17 1.3-.5-1.3v2c-.1 1 .1 1.6.5 1.2s.3-1.2 0-1.9zm-286-4.6c-1.2-1.1-1.8.7-1 3l.8 2.3.3-2.3c.3-1.3.2-2.6-.2-3zm27.3-3.4c-.7-1.3-2.3-3.6-3.6-5.1l-2.3-2.9v1.6c0 .9.4 1.6 1 1.6s1 .6 1 1.4c0 1.6 4 7 4.7 6.2.2-.2-.1-1.5-.8-2.8zm221-.2c0-1.4-.4-2.8-1-3.1l-1-.6v3c0 1.7.5 3.1 1 3.1s1-1.1 1-2.4zm-193.3-4.6c-.2-3.4-.7-6.4-1-6.7-.4-.4-.6 2.4-.6 6v6.7h2zm-35.7-7c-.8-.5-1.6-.7-1.8-.5-.2.3.2 1.2 1 2l1.3 1.7.4-1.2c.2-.7-.2-1.6-1-2zm267.7.8-.5-1.3v2c-.1 1 .1 1.6.5 1.2s.3-1.2 0-1.9zm-69.4-4-1.2-1.2-.1-11c0-6.1-.5-12.2-.8-13.6l-.7-2.5-.6 1c-.4.6-.8 6-1 12.1l-.3 11.1 1.7 1.7c1 1 1.8 2.2 1.8 2.7s.5.9 1.2.9h1.2l-1.2-1.2zm28.7-17.9V392l-2.9-4v3.6a9 9 0 0 1-1.2 4.8c-.7.6-1.5 3.4-1.8 6.2l-.7 5 1.8.6 1.9.5v4.2l.1 4.2 1.4-5c.7-2.8 1.4-8.4 1.4-12.6zm10 11.7c0-5.6 2.1-12 4.4-13.3.7-.4 1.8-3 2.3-5.8l1-5-1-3.5-1-3.5-.4 3c-.2 1.6-.6 3.7-1 4.5s-.4 2.3-.3 3.3l.2 1.8-4.1 1.1-1 3.7c-.6 2-1 7-1 11.3v7.8h2V411zm-262.3 2.7a1 1 0 0 0-1.3 0c-.4.4 0 .7.7.7s1-.3.6-.7zm198-4c-.3-.3-.6 0-.6.7s.3 1 .6.7c.4-.4.4-1 0-1.4zM901.7 406c0-1.4-4.6-3.7-5.4-2.8-1.2 1.2-.6 4.2 1 5.8l1.7 1.7 1.3-1.8c.8-1 1.4-2.3 1.4-3zm164.6 1.3-.5-1.3v2c-.1 1 .1 1.6.5 1.2s.3-1.2 0-1.9zm-258.6-.3c0-.8-.5-1.5-1-1.5s-1 .7-1 1.5.4 1.5 1 1.5 1-.7 1-1.5zm30.5-.8a45 45 0 0 1-1.3-5.5l-.5-3.3-2.6 2.2-.7-1.2-.7-1.1-.7 1.2-.7 1.1-1.7-1.6a6.6 6.6 0 0 1-1.6-4c0-1.4-.5-2.5-1.1-2.5h-1l.4 1.7 1.2 4.5.7 2.8h-1.7c-.9 0-2-1-2.5-2.3l-1-2.2v3c0 1.7.6 4 1.4 5l1.4 2 5.3 1 6.7 1.4 1.4.1-.7-2.3zm30.5 1.4c0-1.1-3-3.5-3.6-2.9-.3.3-.2 1.2.1 2.2s1.3 1.6 2 1.6c.8 0 1.5-.4 1.5-.9zm182.3-3.4c-.4-1.7-.8-3.4-1-3.6-.2-.3-.3 1.2-.3 3.2s.4 3.7 1 3.7h1zm15.3-4.5c-.2-1-.4-.1-.4 1.8s.2 2.7.4 1.7a7 7 0 0 0 0-3.5zm60.9-3.2c.1-3.3-.1-7.4-.5-9.2l-.7-3.3-.7 7.3c-.6 6.8 0 13 1.1 11.8.3-.3.6-3.3.8-6.6zm-219.6 4.2c0-1-1-3-2.3-4.6l-2.4-2.8-2.1 1.1c-1.2.7-2.1 1.8-2.1 2.5 0 1.5 5.6 5.6 7.7 5.6.7 0 1.2-.8 1.2-1.8zm174.2-10.7.4-7h-3l-.3 6c-.2 3.2 0 7 .3 8.4l.6 2.6.8-1.5c.5-.8 1-4.7 1.2-8.5zm-35.1 8c0-.2-.6-.7-1.2-1.1l-1.1-.7.7 1.1c.7 1.2 1.6 1.6 1.6.8zm-239-8.5c0-1-.7-2.3-1.6-3l-1.5-1.3-.9.9c-1.3 1.3-1.5 4.5-.6 7.3l.8 2.5 1.9-2.3a9 9 0 0 0 1.9-4zm107.6-2.3c-.3-.6-.5 0-.5 1.3s.2 2 .5 1.2.3-1.8 0-2.5zm-23.6 1.3c0-.5-1-2.4-2-4.2l-2-3.2-.6 1.8c-1 2.3 1.1 6.6 3 6.6.9 0 1.6-.4 1.6-1zm149.2-5.3c.3-3.1.2-6-.3-6.2-1-.7-1.7 4.5-1.1 9 .2 2 .5 3.5.7 3.3.1-.2.5-2.9.7-6zm-22.6 3.6c-.3-.3-.6 0-.6.7s.3 1 .6.7c.4-.4.4-1 0-1.4zm46-8.6c-.1-1.7-.3-.3-.3 3.3s.2 5 .4 3.2.2-4.7 0-6.5zm34.3 5.5a7 7 0 0 0-.8-3l-.9-1.4-.7 1.1c-.8 1.4.3 5 1.5 5 .5 0 1-.7 1-1.7zm-245-.7 1.4-1.6-1.1-2.2c-.6-1.2-1.3-3-1.4-4.1-.2-1-1-2.1-1.6-2.4l-1.2-.4v5.4c0 5.2.4 6.8 2 6.8.4 0 1.3-.7 2-1.5zm53-4.1a53 53 0 0 0-3.7-10.5l-2.7-5.8H898c-1.2 0-2.5-.6-2.8-1.1s-1.7-1-3-1h-2.5l.6 1.4c.3.8 2.2 2 4.2 2.6l5.2 1.6 1.5.5-3.8 2.8.6 1.6c.3.8 1.7 2 3 2.4l2.4 1 .7 3.8a24 24 0 0 0 1.2 4.5c.3.5.8.8 1.3.8h.8zm186 2v-2.4h-1.3c-1.6 0-3 2.7-2 4 .2.6 1.1 1 2 1h1.4zm-195.2.3c-.2-.6-1.6-1.3-3-1.5l-2.7-.3v3h6.1zm120-6.5c-.3-4.2-.9-8.6-1.3-9.6l-.8-2-.7 2c-1.2 2.9-1 10.7.2 14.2.6 1.8 1.5 3.2 2.1 3.2h1zm68.2-.9a16 16 0 0 0-.5-4.7c-1.2-3.2-2-.7-1.6 5.5l.4 6.4.8-2c.5-1.1.9-3.4.9-5.2zM886 378c-.6-1.6-2.3-2-2.3-.7 0 1 1 2.2 2 2.2.5 0 .6-.7.3-1.5zm112.7-8.7c0-4.5-.3-7.9-.6-7.5-.8.7-1.2 14.6-.6 15.2.3.3.6.5.8.5.2 0 .4-3.7.4-8.2zm-106.5 3.4a12 12 0 0 0-2.6-4.7l-2-2v1.5c0 .7.6 2.8 1.3 4.7s1.8 3.3 2.6 3.3h1.4zm88-14.5c-.7-13-1.8-22.4-2.8-23.3-1.4-1.4-2 5-1 10.4a87 87 0 0 1 1.2 11.2c0 5.3.8 10.7 1.7 12.2 1.3 2.2 1.5-.3 1-10.5zm143.3 1.5.2-4.3-1 .6c-.6.3-1 1.7-1 3s-.5 2.7-1 3c-1.4.9-1.3 4.8.2 6.4l1.3 1.2.6-2.8c.3-1.5.7-4.7.7-7.1zM820.7 366c0-.8-.5-1.5-1-1.5s-.7.7-.4 1.5c.3.8.8 1.5 1 1.5.2 0 .4-.7.4-1.5zm247.5-1c0-1-.6-2-1.3-2.3l-1.2-.4v5.4l1.2-.5c.7-.2 1.3-1.2 1.3-2.2zm-181.9-3.7-.5-1.3v2c-.1 1 .1 1.6.5 1.2s.3-1.2 0-1.9zm77.3-2c0-2.4-.4-6.3-.9-8.8l-.8-4.5-.1 8.7-.1 8.8h2l-.1-4.3zm-85.8 2.2h1l-.6-3-.7-3 1.3-3.4 1.2-3.5-1.1-2.6c-.7-1.4-2-2.8-2.8-3.2l-1.6-.6-.9 1.4c-.5.8-.6 2.4-.3 3.6l.6 2.3h-1.4c-2.2 0-5.8-3-5.9-4.8 0-2-4.5-5.6-6-4.7-.5.3-1 1.5-1 2.6 0 3 4 9.9 5.6 9.9.8 0 2.6 2 4.1 4.2a25 25 0 0 0 3.8 5 3 3 0 0 0 2.4.3c.7-.3 1.8-.5 2.3-.5zm182.1-13a158 158 0 0 0-2.3-27.5c-1.2-.8-2.2 3.3-1.6 5.9l.6 2.2-1.5 2.8-1.5 2.9 2.3 2.7.4 11.1.4 12.3c0 .6.8-.7 1.7-2.9l1.6-4v-5.5zm-209.5 6.8-.5-2.3v4c0 2.2.2 3.2.4 2.3s.3-2.8 0-4zm156.7-2.4c-.2-9.2-1-15.3-2.2-16.5l-1-1.1.3 7.3.4 12.2v4.9l2.6-.9zm-110-1.1-2.9-7.8-.7-2-2.8 3.8-1.4-1.2a9.6 9.6 0 0 1-2-4.6l-.7-3.5h-3v6.7l2 1.7c1 1 2.1 2.7 2.4 4 .3 1.1 2 3 3.9 4a21 21 0 0 1 4.6 3.8c2.5 3.5 3 .8.7-5zm169.5 5c0-2.3-1.6-5-2.5-4-1 .9.4 5.7 1.6 5.7.5 0 1-.8 1-1.8zm-182.5-2.4c-.8-1.3-2.4 0-2.4 1.8v1.5l1.4-1.2c.9-.7 1.3-1.6 1-2.1zm-62.5-5c0-.8.8-2.5 1.7-3.7l1.6-2.3-1-2.7a73 73 0 0 1-2.3-8.5l-1.3-5.7H818l1 6.5c.5 3.6.6 7.2.3 8l-.6 1.5h-14l-1.2 2 2.4 1a44 44 0 0 0 7.1 1.5l4.7.7v3.7c0 2 .3 4.1.7 4.5.8.8 3.1-3.9 3.2-6.4zm145.7 4.4c-.3-.3-.6 0-.6.7s.3 1 .6.7c.4-.4.4-1 0-1.4zm17.4-.9v-2.5l-1 .6c-.6.3-1 1.5-1 2.6s.4 1.9 1 1.9 1-1.2 1-2.6zm-13-3.7-1.1-1.2.5 2.5c.6 3.6.7 3.7 1.3 1.6.2-1 0-2.3-.7-3zm-116-4-1-1.1v2c0 2.7 1.4 4 1.8 1.9.2-1-.1-2.2-.8-2.8zm110.9-6.3c-.6-5.4-.9-11-.6-12.5l.6-2.7-3-3.7.4 9.5c.2 5.2 1 11.9 1.7 14.8.7 2.9 1.4 5 1.6 4.9s-.1-4.9-.7-10.3zm31.7 2.6c-.3-6.1-1.7-9.7-1.6-4.4 0 3.4 1 10.4 1.6 10.4.2 0 .2-2.7 0-6zm-197.9 2.7c-.5-1.4-4.7-2.3-4.7-1 0 1.5 1.1 2.3 3.2 2.3h2zm-8-1.4a1 1 0 0 0-1.4 0c-.4.4 0 .7.7.7s1-.3.6-.7zm178.6-8.4c0-3.9-.4-7.3-.6-7.5-.8-.8-2 10.5-1.2 12.6 1.2 4 2 1.9 1.8-5zm-92.3 2c0-1-.2-2-.5-2l-2-.5-1.5-.6v1.4c0 1.5 1.9 3.8 3.2 3.8.4 0 .8-1 .8-2zm105.6-1-.5-1.4v2c-.1 1 .1 1.6.5 1.2s.3-1.2 0-1.9zm-114-3.2-1.6-8.4c-.6-2.9-1.1-5.7-1.5-6.2-.4-.6-.2-1.8.3-2.8l1-1.6 1.8 2.1c1 1.2 2 2.2 2.4 2.2.8 0-1.5-9.4-2.7-11.3-.4-.6-1-3-1.3-5.1-.3-2.2-1-4-1.5-4.3l-1-.3-.2 6.2c-.1 3.5-.3 11.1-.3 17l-.2 10.9 1.6 2.4c.9 1.4 2.1 2.5 2.7 2.5h1zm12.5-2.3c-.5-3-3-6.4-4.7-6.4h-1.4v1.9c0 2.4 3.8 7.3 5.3 6.8.7-.2 1-1.3.8-2.3zm120.1-2.3c.3-1.1.3-2.2 0-2.5-.3-.4-1.2-.6-2-.6-.6 0-1.2.8-1.2 1.8 0 3.5 2.4 4.4 3.2 1.3zm-57.4-4.4.3-3.7h-1c-.7 0-1.1.8-1.2 1.7 0 1-.3 2.9-.6 4.2l-.6 2.4 2.8-1zm180.2.8c0-2-.5-3.5-1-3.5-1.2 0-1.8 2-1.2 4.7.6 3.5 2.2 2.7 2.2-1.2zm-137.5.7c0-1.8-2-1.5-2.4.4l-.3 1.6 1.3-.4c.8-.3 1.4-1 1.4-1.6zm-202-2.2c-.4-.6-1.3-1-2-1s-1.7.4-2 1l-.7 1h5.3zm172.5.6c0-.3-.5-.8-1-1.1s-1-.1-1 .4.4 1 1 1 1-.1 1-.3zm206.4-12.5 1.5-1.5 1.3 1.2c.6.7 1.5 1.2 2 1.2 1 0-.2-8.2-1.4-9.5-.4-.5-.8-2.4-.8-4.2s-.4-3.3-1-3.3c-1.6 0-3.2 3-3.5 6.7-.1 2-.8 6.3-1.5 9.4l-1.3 5.7 1.6 5.7.8-5a15 15 0 0 1 2.3-6.4zM950.7 317c0-1.4-.5-2.5-1-2.5s-1 1.1-1 2.5.4 2.5 1 2.5 1-1.1 1-2.5zm19-2v-4.7l-1.3.4c-1.7.6-2.2 5.6-.7 7.4.7.7 1.4 1.4 1.6 1.4.2 0 .4-2 .4-4.6zm-150 .2-.1-3.2-1 1.8c-.6 1-.9 2.5-.6 3.3 1 2.4 1.7 1.6 1.6-1.9zm41.6 1.6c-.3-.3-.6 0-.6.7s.3 1 .6.7c.4-.4.4-1 0-1.4zm17.3-2.3c-.6-1.2-1.3-2-1.5-1.7-.3.2 0 1.7.7 3.3l1.1 2.9.4-1.2c.3-.7 0-2.2-.7-3.3zm-64-1.3v-4.3l-2.9-2.2c-5.4-4-6.7-2.3-2.5 3.2a12 12 0 0 1 2.5 5.4v2.2h3zm142-2c0-2.3-.4-5-.9-6.2l-.7-2-1.2 2.3-1.3 2.3.7 3.2 1.1 4c.2.4.9.7 1.4.7.5 0 1-2 .9-4.3zm-95.4 2.3c.3-.6.1-1-.5-1s-1 .4-1 1 .2 1 .4 1 .7-.5 1-1zm-35.4-1.5c.3-.3 0-3.3-.8-6.8a306 306 0 0 1-2.2-11.5l-.8-5.2.8-5.2.8-5.2-1.5-3c-.8-1.6-1.4-5-1.4-7.7v-4.8l1.4-.8 1.5-.9-2.2-7.1 1.8-3.7 1.8-3.8-1-.6c-.6-.4-1.6-4.6-2.3-9.5l-1.2-8.7h-2.6l.5 4 .5 4H816a10 10 0 0 1-4-.8c-1.3-.9-2.4-7.5-1.4-9l.7-1.3 3.2 1.3 1.2-2.3a16 16 0 0 1 3.4-4l2-1.7-3.4-6v-17.4l-2-.5c-1.1-.3-2-1-2.1-1.7l-.3-3.1-.1-2-5.5-.6v6.6l6.5 4v3c0 1.7.4 3.5.8 4.2 1 1.6-.3 4.3-2 4.3h-1.6l.7 3.7.9 5.8.2 2h-4l-.8-3.5-1-3.5-1.3 1.8-1.3 1.9.5 3.6c.3 2 .9 4.9 1.4 6.4.4 1.4.5 2.9.2 3.2-.3.3-1.4.6-2.4.6s-1.8.2-1.8.4l1.1 3 1.2 2.6-2.3 5 1.5 3.1c.9 1.7 1.4 3.7 1 4.5s.3 2.3 1.3 3.3 2.2 3.6 2.6 5.7l.7 3.8 5 4.7-.6 3.8c-.4 2-.8 6-.9 8.9l-.2 5 4.3 2 .2 4.4.2 7.8c0 2 .4 5.6 1 8.2l1 4.7 1.3-.5c.8-.3 1.7 0 2 .5.7 1.2 2 1.4 2.7.6zM812 257.2a55 55 0 0 1-2.6-6.4l-1.8-5.1.3-3.9.4-3.8h5l.1 4.2a69 69 0 0 0 1.3 9.3l1 5.4c0 .2-.6.6-1.4 1a2 2 0 0 1-2.3-.7zm70.8 49.2c0-1.2-1.1-3-2.5-4-1.3-1-2.5-3-2.7-4.2l-.3-2.2h-3l-.3 2.7-.4 2.7 2.4 2 3.7 3.6c.8.8 1.8 1.5 2.3 1.5.4 0 .8-1 .8-2.1zm-95.6-.5.6-1.6-1.7.4c-1 .1-1.9.9-2 1.5-.7 1.9 2.3 1.6 3-.3zm6.6-4.3c-.6-1-1-3.1-1-4.5v-2.5l-3-2c-1.5-1.2-3.3-2.1-4-2.1s-2-1.4-3.2-3c-2.4-3.2-4.8-4-4.8-1.5 0 .8-.7 1.5-1.5 1.5h-1.5v-2c0-1.1-.5-2-1-2s-1.6-.3-2.5-.6l-1.5-.6v1c0 .5 1.2 2.3 2.7 4l2.8 2.9 3.9.1c2.1 0 4.3.7 4.7 1.4l.8 1.3-2 2 6.6 2.2.3 1.7c.5 2.3 4.5 7 5 5.7a6 6 0 0 0-.8-3zm19.7-2.9a6 6 0 0 0-1.5-3.4l-1.4-1.7.7-10.6-3.6-3.6-.6 1.7c-.4 1-.1 3.7.5 6.2l1.2 4.5-3.1 3.5 3.3 2.6c1.8 1.4 3.5 2.6 3.8 2.6.4 0 .6-.8.7-1.8zm137.2-5.2h1.3l-.6-1.6c-.4-.9-.6-2-.6-2.6s-1-.8-2.3-.6l-2.2.3-1.4 2.6-1.5 2.6 1.4 3.6 2.3-2.2c1.3-1.1 2.9-2.1 3.6-2.1zm-150.3-3.3c-.3-.6-.5 0-.5 1.3s.2 2 .5 1.2.3-1.8 0-2.5zm-4.4-6c.2-4 0-8.7-.6-10.4l-1-3.3 2.7-2.4c1.5-1.4 2.7-3 2.7-3.6s-.9-1.9-2-2.9l-1.8-1.9.5-2.6c.3-1.5.9-2.9 1.4-3.2 1.2-.7 1-8.8-.2-10l-1-1.1v-8c.1-4.3.2-9.6.1-11.7v-4l-2.5-1.5-.6 5.7-1.3 8.8-.7 3 1.5 1.4c.9.7 1.6 2 1.6 3a5 5 0 0 1-1.3 2.9l-1.2 1.2 1.7 1c1 .5 1.8 1.6 1.8 2.4s-.8 1.5-1.7 1.5c-1.9 0-5.3 2.8-5.3 4.3a17 17 0 0 0 3 4.7l3 3.7-2 1.8a6 6 0 0 0-2 4c0 1.3.7 5.4 1.5 9.1a29 29 0 0 1 1 9.2 9.4 9.4 0 0 0 0 4.3c1.2 3.8 2.2 1.7 2.7-5.4zm78.3 6.2.7-1.2-1.4-.8c-1.6-.9-4.4-9-5.3-15l-.6-3.7-2.5-2.6c-1.3-1.5-2.4-3.2-2.4-3.8v-1l-1.5 1.2c-.9.7-1.5 2.3-1.5 3.6v2.3l5.5.6v19.6l1.5 1c2 1.2 6.7 1.1 7.5-.2zm227-.7c.7-.4 2-2.2 2.9-4a9.8 9.8 0 0 1 4.1-4.2l2.5-1v-4.8l-2 .5c-1.1.3-2.7 0-3.5-.7-.8-.6-2-.9-2.5-.5s-1 1.6-1 2.7c0 1.2-.7 2.9-1.6 3.8-.8 1-1.8 3.4-2.1 5.4l-.6 3.6h1.4c.7 0 1.9-.4 2.5-.8zm63.8-3c1-3.3.3-5.3-1.2-3.6a12 12 0 0 0-1.5 4.2l-.6 3.4 1.2-.5c.7-.2 1.6-1.8 2.1-3.6zm-286-4.3-.8-5.7c-.3-2.6-2.9-8.2-3.8-8.2-.4 0-.7.7-.7 1.5s.4 1.5 1 1.5h1.1l-.6 2-.6 1.8 1.1.7 1.1.7-1.3 7 1.2 1.4c.7.8 1.6 1.4 2.1 1.4h.9zm259.7-.4c1.6-.9 3-2 3-2.5s-1.1-1-2.5-1a10 10 0 0 0-5.2 2.5l-2.8 2.4h2.3c1.2 0 3.6-.6 5.2-1.4zm-156.6-3.6c-.7-1-2.4-.2-2.4 1.1 0 .5.6.7 1.5.4.8-.4 1.2-1 .9-1.5zM778.3 277c-.3-.8-1.4-2-2.6-2.6l-2-1v4.9l2.2.3c1.3.2 2.4.3 2.6.1.2-.1.2-.9-.2-1.7zm25-2.1c-.3-1-1-1.3-1.7-1l-1 .7 1.2 1.4c.6.8 1.4 1.2 1.6 1s.2-1.2-.1-2.1zm-19.6-2c0-.3-1.6-2.1-3.5-4s-3.5-3.2-3.5-2.6c0 1.1 5.2 7 6.2 7 .4 0 .8-.1.8-.4zm26.3-1.7 1-1.6-1.3-1.6c-.7-.9-1.7-1.3-2.1-1-.5.3-1 1.9-1 3.5v3l1.2-.3c.7-.2 1.7-1.1 2.2-2zm16.3-1c-.2-.7-.5-.2-.5 1.2s.3 2 .5 1.2.3-1.8 0-2.5zm45.8-9c-.3-2.4-1-5-1.6-6s-1.5-1.8-2.3-1.8-1.5.8-1.7 1.7a18 18 0 0 0 2.5 9 3 3 0 0 0 2.3 1.3h1.5zm240.3-1.8h2.4l-.7-3.5-7.5-.6-.6 1.5c-.3 1 0 2.3.7 3.1l1.3 1.6 1-1c.6-.6 2.1-1.1 3.4-1.1zM803.7 258c0-.8-.4-1.7-1-2-1-.7-2.2 1.9-1.3 2.8 1 1 2.3.6 2.3-.8zm24-3.3V250l-2.3 2.2.7 3.6c.4 2 .9 3.6 1.1 3.6.3 0 .5-2.1.5-4.7zm168 3.2 1.2-1.5-1.6-.6c-2.4-1-5 0-5.4 1.9l-.4 1.7h2.5c1.3 0 3-.7 3.7-1.5zm7 0v-1.6l-1 .6c-.6.4-.8 1-.5 1.6.9 1.4 1.5 1 1.5-.7zm-126-3c0-1.5-1.8-3-2.7-2.1-.8.8.4 3.6 1.6 3.6.6 0 1-.7 1-1.4zm45-6.3c-1.7-.6-4 1.8-4 4.2v2l5.2-5.8zm235.7 3.2c-1-1-2.8.6-2.1 1.8l.6 1 1-1.1c.6-.6.9-1.3.5-1.7zm12.7-.5 1-1h-3.7c-3.5 0-4.6 1-3 2.4.7.8 4.3 0 5.7-1.4zm-303.4-.4c0-.8-.5-1.5-1-1.5s-1 .7-1 1.5.4 1.5 1 1.5 1-.7 1-1.5zm178.7-.1c-.3-.3-1.2-.4-2 0l-1.2.4 1.9.1c1 0 1.6-.2 1.3-.5zm5.3-1v-1.7l-1.5 1.3c-.9.7-1.5 1.4-1.5 1.6 0 .2.6.4 1.5.4s1.5-.7 1.5-1.6zm-171-3c-1.4-2.5-3-3.2-3-1.2 0 1.4 3.1 5 3.8 4.3.3-.3-.1-1.6-.8-3zm30 1.6c0-1.1-.5-2-1-2s-1 .9-1 2 .4 2 1 2 1-1 1-2zm12.3-5.2 1.8-.3 2.5-7 2.4-7-.5-3.3c-1.5-8.8-1.8-10.2-2.6-10.2-.5 0-1.6 1.6-2.4 3.6-.9 2-2.7 4.7-4 6-1.4 1.3-2.5 2.8-2.5 3.3s.7 1 1.5 1 1.8.8 2.1 1.6l.6 1.6-3.7 2.8h1.7c.9 0 2 .6 2.4 1.3l.7 1.1-2 1.7c-2 1.5-6.4 9-6.3 10.7 0 .4 1.5-.9 3.2-2.9 1.8-2 4-3.8 5-4zm194.2 4a15 15 0 0 1 4-2.4c2-.8 3.5-1.8 3.5-2.3 0-.5-.7-1.4-1.4-2l-1.4-1.1-3.6 3.2c-2 1.7-3.6 3.8-3.6 4.5 0 1.6 1.6 1.7 2.5.2zm30.8-4c-.3-.5-1.6-.8-3-.8h-2.7l4.8 5 .7-1.7c.3-1 .4-2.1.2-2.6zm-276.3.7c0-.8-.5-1.5-1-1.5s-1 .7-1 1.5.4 1.5 1 1.5 1-.7 1-1.5zm33.6 0c.7-1.8 3-2 3.6-.3.8 2.2 2 0 2.8-4.7l.6-4.5h-1.8c-1 0-3.3-1.4-5.2-3l-3.4-3-2.2-8.3c-3.1-11.8-5-16.9-7.6-19.7a33.4 33.4 0 0 1-4.4-8.8l-2.2-6.2.2-5.3v-6.4c0-.6-1-1.5-2.1-1.8a6.3 6.3 0 0 1-3.2-3l-1-2.5h-4.7v5l4 2v5.3c0 6.2 2.9 16.4 5.8 20.5a12 12 0 0 1 2.2 4.2c0 1.7 3 7 5.7 10 1.2 1.4 2.5 4 2.9 5.8l.6 3.2h-1.4c-.8 0-2.5-1.4-3.7-3l-2.2-3h-4l-1.8-4c-.9-2.2-2-4-2.5-4-2.2 0 4.3 11.7 7.2 12.7 3 1 5.2 3.5 5.2 6v2.3h1.9c1 0 2-.5 2.3-1.2l.4-1.2 3.4 1.4-1 2c-.6 1-1 3.8-1 6.2v4.4l1.5 2.2c.9 1.2 2.2 2.2 3 2.2.9 0 1.8-.7 2.1-1.5zm225.4-4.3c0-2-3.9-7.6-6.6-9.6l-1.8-1.3 1.2-11.3h-2.8v5.2l-2 .5c-1 .3-2.3 1.4-2.6 2.5l-.7 2 1.7 1c1 .5 2 2 2.6 3.4l1 2.4h5l1.7 3.5c.9 2 2 3.5 2.4 3.5s.9-.8.9-1.8zm17-5.3v-2l-2.3-.8a21 21 0 0 0-6.3-.8 14 14 0 0 1-5.3-.7l-1.3-.8 4-4.3-.5-3.5c-.3-2-.5-4.3-.5-5.3s-.3-1.7-.7-1.7-1.8.5-3.2 1.2l-2.4 1.1-.2 4.6-.2 4.6 1.7 3.5 1.7 3.5 4.3.6c4.2.5 6.1 2 6.1 4.7v1.2l2.6-1.6c1.3-.9 2.5-2.5 2.5-3.5zm-276.7-8a18.3 18.3 0 0 1-5.4-12.5v-3l-.8 1.6a22 22 0 0 0-1.5 5.3l-.5 3.7 4.6 3-.5 2-.5 2h1.1c.6 0 1.2 1 1.2 2.4v2.5l4.5 3.2.6-7.6-2.8-2.5zm74.6 5.6 2 .6.6-2.5c.4-1.3.2-3.3-.4-4.3l-1-1.8-.1 1.8c0 1-.6 2-1.3 2.2l-4.1 1.5-2.9 1 1.3 1.5 1.2 1.5 2.7-2.2 2 .7zm-154-12.3v-3.4l-1.7.4-1.7.3v7c0 3.9.1 7.4.3 8 .7 1.2 3-8.3 3.1-12.3zm36 9.8c0-.6-.4-1-1-1s-1 .4-1 1 .5 1 1 1 1-.5 1-1zm60.3-2-.5-2-2.4-.6c-1.3-.4-2.7-.4-3-.1-.7.7 4.8 5.7 5.7 5.1.4-.2.5-1.3.2-2.4zm257-2.6c.4-.4.2-1.6-.4-2.7l-1-2-1 1.6c-1.4 2.5.6 5 2.5 3zm-270.9-5-1.5-3.8.9-9.1-2-5.9c-2-5.6-5.7-10.6-7.8-10.6h-1l1.3 10.5 1.8 1.6c2.3 2 5.2 10.1 4.4 12.2-.8 2 2.4 8.7 4.1 8.7h1.3zm-96.8-8.2-.7-2.5-2.4 2.3c-1.3 1.3-2.5 3.2-2.5 4.3v2l4.2-1.2.7 1.7.6 1.7.4-2.9c.2-1.6 0-4-.3-5.4zm102.4 6.3c0-.8-.7-1.5-1.6-1.5h-1.6l1.2 1.5c.7.8 1.5 1.5 1.7 1.5.2 0 .3-.7.3-1.5zm-85.6-6c-.3-.8-1-1.5-1.5-1.5s-.9.7-.9 1.5.7 1.5 1.5 1.5h1.5zm7.6-1.5a62 62 0 0 0-3.7-15.1l-1.4-3.6 1.6-3.8c.8-2 1.5-5.7 1.5-8v-4.4l-2.4-3.6c-1.3-2-2.6-4-2.8-4.7l-.4-1.2-3.4 1.3.8 14.2 3.5 2.5.1 7.8.2 7.8-1.3.5c-.7.3-1.3.8-1.3 1.2 0 .4 1.2 1.3 2.5 2l2.5 1v7l1.3.4c2.3 1 2.7.7 2.7-1.3zm30-3.4c0-.8-.4-1.8-1-2.1l-1-.6v2c0 1.2.5 2 1 2s1-.6 1-1.3zm-22-3.4c0-1.3-1.1-2.2-2.1-1.6-1 .6-.2 2.4 1.2 2.4.5 0 1-.4 1-.8zm69.6-4c-1-1-1.8.7-1 2.5l.8 1.8.4-1.8c.2-1 .2-2.1-.2-2.5zm-103.8 1.1 3.5-1.7-1.4-1a7.4 7.4 0 0 1-2.1-2.9c-.4-1-1.1-1.7-1.6-1.7s-1.4 1.2-2 2.7l-1.7 4.5-.7 1.8h1.2c.7 0 2.8-.8 4.8-1.7zm16.2-3c0-.5-.4-1.5-1-2.3l-1-1.5v2.2c0 1.3.5 2.3 1 2.3s1-.3 1-.8zm32.3-5.3c.3-1.1.1-2.3-.4-2.6s-.9.6-.9 2 .2 2.6.4 2.6.6-1 1-2zm49.7-10.2v-3.7l-1.9-1c-1-.6-3.4-1.1-5.2-1H862l5 3.8-.3 3c-.2 1.6.2 4 .9 5.2l1.2 2.2 1.8-2.4 1.9-2.4v-3.7zm-59.5-8.6c-.4-3.1-.8-8-.9-10.7v-5l-1.6-.3-1.6-.3-3.2 6.8.5 4.4.6 4.4 2.4 3.2c1.4 1.8 3 3.3 3.5 3.3h1.1l-.8-5.8zm6-8.3c-1-2.1-2.1-3.6-2.6-3.3-1.6 1-.8 6.1 1.4 9l2.2 2.9.4-2.4a15 15 0 0 0-1.4-6.2zm91.5-.2c0-1 1-3.6 2-5.7s2.4-6 2.7-8.5l.6-4.5h-1c-1.1 0-2.2 2.5-5 12-2.9 9-3.2 11-2.5 12.8l.6 1.6 1.3-3a17 17 0 0 0 1.3-4.7zm9.5-4.5.7-3.2h-1c-1.3 0-3.2 5.7-2.5 7.6l.6 1.6.8-1.3c.4-.8 1-2.9 1.4-4.7zm-37.8-5.3.2-6-4.4-5c-2.5-2.7-4.5-5.6-4.5-6.4s-.6-1.5-1.5-1.5h-1.5v3.3c0 3.7 3.3 10.7 5.5 12l1.5.8v6.8l1.7 1.6c.9.9 1.8 1.3 2.2 1 .3-.3.7-3.3.8-6.6zm-59.7 5c0-.5-.4-1-1-1s-1 .5-1 1 .5 1 1 1 1-.4 1-1zm-16.4-5.4.7-2.5-1.3-1.5c-.6-.8-1.8-1.5-2.6-1.5s-1.9 1.2-2.4 2.6l-1 2.6 1.1 1.4c.7.8 2 1.4 3 1.4h1.9zm-1.9-9.7-.5-1.3v2c-.1 1 .1 1.6.4 1.2.4-.3.4-1.2.1-1.9zm104.4-12 1-3.8h4v2.6a9 9 0 0 1-1 4.2l-1.4 4.4-.7 2.8 3-.4c1.8-.1 4-1.2 5-2.2 1-1 2.1-3 2.5-4.2l.7-2.3-4.2-1.1V131c0-1.2.7-3.1 1.5-4.2.8-1 1.5-2.4 1.5-3s-.9-1.4-2-1.7l-2-.5v-2.1c0-1.2.8-3.3 1.7-4.7l1.6-2.5-4.4-1.2.6-2.8 1.1-5.8c.3-1.6.2-3.2-.3-3.5-.5-.3-1.7 1-2.6 3-.9 1.8-2.1 3.4-2.7 3.4s-1.3-.7-1.6-1.6l-.7-1.6 2.2-4.4c1.2-2.5 2.1-5.1 2.1-6s-.5-1.4-1.2-1.4-2.2 2.2-3.4 4.8l-2.2 4.7-.7 9.5a196 196 0 0 0-.8 31l.6 3.5.9-3.5 1.9-7.3zm-106.4 5.5c-.4-.3-.7 0-.7.7s.3 1 .7.7c.4-.4.4-1 0-1.4zm77.1-6.7c-.3-2.3-1.4-6.2-2.6-8.8-1.2-2.6-2.2-5.2-2.2-5.8s-.5-1-1.2-.7l-1.3.4.3 3.4c.2 1.9 1 5 1.7 6.9l2.6 6.7 1.2 3.3 1-.6 1-.7zm-49.2-4.4c-1-1-1.8.7-1 2.5l.7 1.8.5-1.8c.2-1 .2-2.1-.2-2.5zm38.4.9c0-.6-.4-1.3-1-1.6l-1-.6v1.5c0 .9.5 1.6 1 1.6s1-.4 1-1zm33.5-12c.3-.6.2-4.7-.4-9l-1-8.1 1.9-5h-1.3c-.7 0-2.5-.6-4-1.3l-2.6-1.2v-5.4l4-2.2 1.6 4.5 1.1-3.4c.6-2 1.4-5.2 1.8-7.3l.7-3.8 3.2.7-.1 7.3-.1 7.3 5-5.3.4-7.4-2.9-4.8.6-3.6c.3-2 .8-4.7 1.2-6.1l.7-2.5-1.3 1.2c-.8.7-1.9 1.3-2.5 1.3h-1.2l-.6-4c-.4-2.2-1.1-4-1.7-4s-1 .9-1 2v2h-1.3c-.7 0-2.2-1-3.3-2.1l-1.9-2.1-.6-11.2a259 259 0 0 0-3.4-32.9 3 3 0 0 0-2.6-1.7c-1 0-1.9.2-1.9.4l1.1 2.9 1.1 2.4-1.6 3.7c-1.7 4.1-2.1 13.6-.7 15.1.5.6 1.2 4 1.6 7.6l.7 6.7-1 .7c-1.3.7-1.5 4.4-.6 7 .4.8 1.3 1.5 2 1.5s2 1.1 2.6 2.5l1.2 2.5-2.8 2.5c-1.5 1.4-3.5 2.5-4.3 2.3-1.6-.3-5.5-6.7-6.6-11l-.6-2.3-2.5 2.5 3.5 6-1 3.7c-1.3 5-1.7 11-.7 12 .4.4 1.6.2 2.6-.5l2-1.2.4 1.8c.2 1 .4 4.2.5 7.2l.1 5.5 2 1.4c1.1.7 2 2.2 2 3.3 0 2.3 4 14.8 4.8 14.8.3 0 1.1-.8 1.8-1.8s1.6-1.3 2-1 1 2 1 3.6l.3 5c.1 2.3 1.6 3 2.6 1.2zm-13.8-37.2c-1-1.3-1.7-4-1.7-6v-3.7l3.1-2.5.9.9c.4.5 1 3 1.4 5.5l.6 4.6-2.6 3.6zm-1.7-35.2c0-.6-.7-2.3-1.5-3.7l-1.4-2.5v3c0 1.8.2 3.5.6 3.8 1 1.1 2.3.8 2.3-.6zM975.9 538l-1.6-3.5 1.2-1.2 1.2-1.3 1.7 1.1c2.3 1.4 4.2 5.3 3.5 7-.2.8-1.3 1.4-2.4 1.4h-1.9zm18.6-3.3c-.8-1-2.3-3-3.2-4.5l-1.7-2.7h-2c-1 0-2.1-.5-2.5-1-1-1.6 1.5-4 4.1-4h2.4l1.1 2.2a41 41 0 0 0 4.6 6c1.9 2.2 3.1 4.3 2.8 4.8-1 1.6-4 1.1-5.6-.8zm12.3-2a61.8 61.8 0 0 0-10.7-14.7c-3-3.3-5.5-6.8-5.5-7.7v-1.8h1.6c1.8 0 13.2 11.8 15.3 15.8.8 1.5 2.5 4.1 3.9 5.9s2.1 3.7 1.8 4.2c-1.2 2-4.4 1.1-6.4-1.7zm32.3-1.3c-3-1.7-17.3-16.8-19-20.1l-1.6-3 2-.5 2.2-.5-.6-3.3h4.4l8.5 7.4c4.7 4 8.3 7.8 8 8.3-.9 1.4-4.2.9-5.6-1a72 72 0 0 0-12.1-10.2c-.4 0-.7.7-.7 1.6 0 2 15.8 17.2 18.4 17.6l2.1.3.4 2.2.3 2.3h-2.3a13 13 0 0 1-4.4-1.1zm9.8-8.2a92.8 92.8 0 0 0-16.8-19.1c-3.1-2.6-6-4.6-6.6-4.6s-.9-1-.9-2v-2h2c2.4 0 10.9 6.7 15.2 12 1.8 2.4 6 7.1 9 10.6a26 26 0 0 1 5.8 7.9v1.5h-4.6zm41.1-1.8c-1-.4-2.7-1.8-3.6-3l-5.6-7c-2.3-2.4-4.2-5.2-4.2-6.2v-1.7h3.7l6.7 7c3.7 3.8 7.2 7 7.7 7s1 .8 1 1.9v1.9l-1.8.4c-1 .3-2.7.2-3.9-.3zm-24.7-2.3a28.7 28.7 0 0 1-3.7-5.3c-.8-1.5-2-3.3-2.5-3.8l-4.7-3.8c-2-1.5-3.6-3.2-3.3-3.7.8-1.3-.5-4-2-4-.7 0-4.4-2.9-8.2-6.4a90.2 90.2 0 0 0-10.1-8.2c-3.3-2-4.2-4.8-1.8-5.7.8-.3 2.3.2 3.3 1.1 1 1 3.4 2.8 5.3 4.2 2 1.3 4.8 3.9 6.4 5.7 1.6 1.8 4.4 4 6.3 5l3.4 1.5.6 2.4a16 16 0 0 0 4.8 5.8c2.4 2 5 5 6 6.8.8 1.8 2.5 4.5 3.7 6 2 2.5 1.9 4.8-.3 4.8-.5 0-2-1-3.2-2.4zm-95.6-5.2a9.5 9.5 0 0 1-2-4.5v-2h3.8l2 3a11 11 0 0 1 2.1 4.5v1.6h-1.9c-1 0-2.8-1.2-4-2.6zm139.4.6c-1-.4-3.2-2.1-4.7-3.7l-2.8-3-.2-3.9-.3-4 2.4-.2c1.3-.2 3.4-.1 4.7.2 2.6.7 5.4 3.2 5.4 4.8v1l-8-1.2v1c0 .7 2.3 2.1 5 3.3l5 2v1.8c0 1-.7 2-1.5 2.3-2 .7-2.4.7-5-.4zm11.2-1.7c-1.2-1.2-.7-3.3.8-3.3h1.5v2c0 2-1 2.6-2.3 1.3zm17-6.8a17.6 17.6 0 0 1-5-4l-.9-1.7 2.3-2.2 6 3c5.7 2.8 7.5 4.6 6.4 6.5-1 1.6-4.8.9-8.9-1.6zm-59.2-6c-4.5-2.2-10.5-6-13.4-8.2a69.3 69.3 0 0 0-10.7-6.9c-3-1.5-5.4-3-5.4-3.3s-1.8-1.7-4-3.1l-4-2.5v-1.7c0-1 .4-2 1-2.2.4-.3 3 1 5.7 2.8l10.8 7.2c3.3 2 7.3 4.9 8.9 6.3 1.5 1.4 6.4 4.4 10.9 6.7s8.6 4.8 9.2 5.7l1 1.6-1 .9-1 .8zm-70.5-2.4c-6-3.8-10-7.7-10-9.6 0-.9.8-1.8 1.6-2.2l1.6-.6 2.5 2.7c1.4 1.5 4.4 3.9 6.7 5.4 2.3 1.5 4.5 3.1 4.9 3.7 1.3 1.8.8 3.5-1 3.5-1 0-3.9-1.3-6.3-2.9zm147-1a93.2 93.2 0 0 1-12-5.1c-2.4-1.4-6.5-3.2-9-3.9s-5.6-2.1-7-3c-1.3-1-3.6-2-5-2.4s-3.3-1.3-4.4-2l-2-1.5 1.3-1.5 1.3-1.6 2.7 1 8.6 3.8c3.3 1.5 8 3.4 10.5 4.1a34 34 0 0 1 7 3c2.7 1.8 6 3 13 5 2.5.8 5.1 1.8 5.8 2.3a4 4 0 0 1 1.2 2.8v1.9l-2.2-.1c-1.2 0-5.6-1.3-9.8-2.8zm-32 .4a78 78 0 0 0-17.5-9l-5.9-2.7a329 329 0 0 0-18.9-9.2l-3.8-1.6.4-1.7.3-1.8 3.3.3c1.8.1 7.2 2.4 12 5s11.3 5.8 14.6 7.1c8 3.2 19.3 9 20.7 10.7.6.8.8 2 .5 2.9-.3.8-1.5 1.5-2.5 1.5s-2.5-.7-3.2-1.5zM983 492c-.3-.8-.2-1.9.1-2.5.4-.5 1.4-1 2.4-1 2 0 4.1 1.9 4.1 3.7v1.3h-6zm-17.2-1.9a47.1 47.1 0 0 1-6.2-12c0-.8.7-1.7 1.5-2l1.6-.6 4.4 6.2c2.5 3.4 4.5 7 4.5 8v1.8h-2.3c-1.3 0-3-.6-3.5-1.4zm-52-.8a4.2 4.2 0 0 1-1.2-2.5v-1.3h3c3 0 6.5 2.5 5.5 4-.8 1.4-5.8 1.2-7.3-.2zm160.2-1a67.5 67.5 0 0 1-4.2-3.5 9.7 9.7 0 0 0-4-1.9c-1.5-.3-3.3-.9-4.1-1.3-1.8-1-3.7-3.8-3-4.6.4-.3 2.9 0 5.6.7l4.8 1.2 6.3 4.9c3.4 2.7 6 5.3 5.7 5.8-1 1.6-4 1-7-1.3zm-69.2-5.9-2.3-.9.3-2.3.3-2.2 2 .3c1.1.2 2.6.8 3.3 1.4.7.6 1.2 1.9 1.2 3 0 1-.5 1.8-1.2 1.7a15 15 0 0 1-3.6-1zm133.3-1.3a31 31 0 0 1-6.1-4 12.7 12.7 0 0 0-4.2-2.6 100 100 0 0 1-15.6-8.2l-1-.8 3.3-3.3 6.1 3.6c3.4 2 6.7 3.7 7.4 3.7 1.4 0 7.1 3.4 9.9 6 1.2 1.1 3 2 4.2 2 2.4 0 4.5 1.7 4.5 3.7v1.3h-2.7a18 18 0 0 1-5.8-1.4zM968 478.9c-.4-.8 0-2 .6-2.7l1.2-1.2 1.4 1.9c.7 1 1.1 2.3.8 2.7-.8 1.5-3.4 1-4-.7zm25-7.2a20.2 20.2 0 0 0-4.7-3.5l-1.7-.6v-5.1h1.4c.8 0 3.8 1.8 6.5 4l5.1 4v4h-1.8c-1 0-3.2-1.3-4.8-2.8zm33.8-5.4-4.2-3.2v-3.6h2c1 0 3.4 1.5 5.4 3.3 3.6 3.3 4.8 6.7 2.3 6.7a19 19 0 0 1-5.5-3.2zm-366.3.7a8.5 8.5 0 0 1-3.2-3l-.6-1.6 1.3-.5c.8-.3 3.8-.4 6.8-.2l5.3.3.3 2.1.4 2.2-3.3 1c-1.7.7-3.4 1.2-3.8 1.2-.3 0-1.7-.7-3.2-1.5zm220.6.1a6 6 0 0 1-.3-3.3l.4-1.8h4v6l-3.6.6zm77.3-2.4c-2.4-2.7-4-6.2-3.2-7.2.3-.6 1.1-1 1.8-1 1.8 0 5.6 4.3 5.6 6.2 0 .8-.6 2-1.3 2.7l-1.4 1zm-256.3-1c-2.7-.6-6.5-4.2-6.5-6.2 0-.9.6-2.1 1.2-2.8s2.5-1.2 4.1-1.2 5.2 1 7.9 2.2l5 2.3-.7 3.8-4.5 1.3c-2.4.8-4.5 1.3-4.5 1.3s-.9-.4-2-.6zm2.5-5.2c0-.6-.2-1-.4-1s-.7.4-1 1-.2 1 .4 1 1-.5 1-1zm148.7 1.3-4.8-.4-1-2.6-1-2.6 1.2-1.3c.7-.8 1.6-1.4 2-1.4.6 0 1.4 1.1 2 2.5s1.2 2.5 1.5 2.5 1.4-.4 2.3-1 2.8-.6 4-.3l2.1.5v4.8l-1.7-.2-6.6-.5zm240-1.3c-5.5-1.7-24.8-11-27.4-13.2-1.8-1.5-1.6-3.8.4-3.8.9 0 6.6 2.4 12.7 5.4a153 153 0 0 0 17.1 7.3l6 1.9v3.9l-1.5.1a31 31 0 0 1-7.2-1.6zM677 457.1c-.3-.8-.3-2 .1-2.6.4-.5 1.5-1 2.5-1h1.8l-.5-2-.5-1.9 6.7-1.7 3.4-7-.6-9a55 55 0 0 0-1.4-10.5l-.8-1.7-9.3 1 .8-3.7 3.7-.6c2.1-.3 4.4-1.2 5-1.8l1.2-1.3-2.7-2.2c-1.6-1.2-2.5-2.5-2.1-3 1.2-1.1 5.1-.7 6.6.8l1.5 1.5-1 4.9 1.2.7c.7.4 1.7.2 2.3-.4.6-.6 2.4-1.1 4-1.1s2.7-.2 2.7-.5l-2-8.2a36.8 36.8 0 0 0-3.7-9.5c-1.7-2-1-4.8 1-4.8.7 0 1.8.5 2.4 1 .5.6 4.2 1.2 8.1 1.3l7.2.2 2 6.4c1.1 3.5 2 7 2 7.7 0 2.3 2.9 4.1 7.5 4.8 5.5.9 11.5 3.2 11.5 4.6 0 1.4-4.9 1.2-10.3-.4l-4.7-1.4v1.4c0 .8.9 2.3 2 3.3l1.9 2-.5 1.9-.5 2 3.2 1.1-1.3 8.6 3.4-4.6 4.3.6.7 3.6-2 .6c-1.2.3-2.2 1-2.2 1.5v1l-5.7-1.1-1.9 1.4c-1 .8-2.7 1.4-3.6 1.5h-1.8v-3c0-1.7.5-5.1 1.1-7.6l1.2-4.4-1.7-3.5-1.7-3.5h-11.1l.7 4.4.6 4.5-4 2.2v5l-2.2-.3c-1.2-.2-2.4-.9-2.6-1.5s.6-1.8 2-2.3l2.2-1.1-.3-4.7c-.2-2.6-.8-5.2-1.4-5.7l-1-1 .7 6-3.4.6-1.3-5.1h-3.7l.6 6.7c.3 3.8 1 7.8 1.4 9l.9 2.3h12v-6l2.4-1a5.1 5.1 0 0 0 2.9-3c.6-2 3.2-2.7 4.2-1 .9 1.4-1.3 5-3 5h-1.5v5l5.1 4.7-3 2.4-8.3-2.5-1 1.7c-.4 1-1.4 1.7-2 1.7s-2-.7-2.9-1.6l-1.8-1.6-5 1.2v2.8c0 1.5-.5 3.2-1 3.7-.5.6-1 2.8-1.3 5l-.3 4-13.5.6zm39.6-43c0-.5-1-4-2-7.5l-2.2-6.6h-9.8v1a94 94 0 0 0 3.4 13.2c.3.5 2.8 1 5.6 1h5v-1zm-12.5-16.6.6-1h-4.2l.6 1c.4.5 1 1 1.5 1s1.2-.5 1.5-1zm322.5 58.8c-1.9-1.1-3.7-2.3-4-2.7s-2.3-2-4.4-3.6-5.2-3.2-6.5-3.5-2.5-1-2.3-1.5 1.6-1.4 3.3-1.8l3.1-.8 7.2 5.3c4 3 8 5.8 9.1 6.4 1.1.6 2 1.7 2 2.5s-.9 1.5-2 1.6-3.5-.7-5.5-1.9zm37 .4c-1-.4-3.2-2-5-3.5a58 58 0 0 0-7.4-5c-2.1-1.2-4.1-2.8-4.3-3.5s.3-1.5 1.3-1.9l1.6-.6 4.2 2c2.3 1.1 6.5 4 9.4 6.3l5.2 4.3-1.1 1.4c-.6.7-1.4 1.3-1.7 1.2-.4 0-1.4-.4-2.3-.7zm-271.3-4a6 6 0 0 1-1.7-3.5v-1.7h2.2c2.3 0 5.8 3.4 5.8 5.6v1.4h-2.3c-1.3 0-3.1-.8-4-1.8zm24-.8c-1-2.6-.8-6.2.5-7l1.1-.7 1.4 1.8c.7 1 1.3 3.1 1.3 4.7v2.8h-1.9a3 3 0 0 1-2.5-1.6zm-171.7-1.5v-2l11.5.6.3 1.7.4 1.8h-12.2zm179-2v-2l1.8.3c1 .2 1.7 1 1.7 1.8s-.8 1.6-1.7 1.8l-1.8.3zM661 448c-.4-.9-.2-2.1.4-2.7s1.8-.8 2.9-.6l1.8.3v4l-4.5.6zm281.3-.6c-1-1.1-1.6-2.8-1.5-3.7s1.2-1.9 2.3-2l1.9-.4 1.3 1.8c.7 1 1.3 2.8 1.3 4v2.4h-1.8c-1 0-2.5-1-3.5-2zM987 444l-6.2-5.4-3.3-2.8v-4.2h4.8l5.4 4.7c3 2.6 5.6 5.2 6 5.7.9 1.3-1 4.6-2.5 4.6-.6 0-2.5-1.2-4.2-2.6zm-202.3.7c-1.7-1-4.2-5.9-4.2-8.2 0-1 .5-2 1-2.4 1.3-.8 4.8 3 5.6 6l.6 2.5h2.4c1.3 0 2.4.5 2.4 1.1v1.1l-2.2-.5c-1.2-.4-2.7-.2-3.3.3l-1 .9zm22.5.2c-1.2-1.2-.7-3 1-3.7 1.8-.7 4.3 1 4.3 3v1.4h-2.3c-1.3 0-2.6-.3-3-.7zM633 443c-.3-.8 1.3-6.7 3.5-13.2l4-11.8-1.4-.8a3 3 0 0 1-1.5-2.3v-1.4l4.8.1c2.6 0 6 .4 7.7.8l3 .6.7 3.8-8.1-1.1-.9 1.1c-.5.7-1.2 2.3-1.5 3.6l-.6 2.5 1 1.3c.7.7 2.6 1.3 4.4 1.3h3.3l1-4.2 4.7.7.4 2c.2 1 .9 2.3 1.5 2.7 1.6 1 6.6 1 6.6 0 0-.6-1-1.7-2.2-2.5l-2.3-1.6h1.8l1.8-.1 4.1-9.3-1.2-2.3c-1.3-2.5-2.6-2.9-5.4-1.8l-1.6.6v7.5l-1.3 1.2c-.8.6-1.7.8-2 .4-.4-.3-.7-3.5-.7-6.9v-6.3l-4.5-.6v-3l5.4-.6 2 3.9 7.4.5c4 .3 9 1 11.2 1.4l4 .8.3 1.8.4 1.7h-11l-.5 5.2c-.3 3-.8 6.8-1.2 8.5l-.7 3.3h4.2v3h-4.2c-2.4 0-8.1-.7-12.8-1.5s-9.5-1.5-10.6-1.5h-2.2l-1.1 3.4c-.6 1.8-2 4.1-3.1 5.1-1 1-2 2.6-2 3.6v1.9h-2c-1.1 0-2.3-.7-2.6-1.5zm106.2-1-1.6-1.6v-6.8l3-2a9.6 9.6 0 0 1 4-2.1h1v6.9l-3.4 1.9 1.3 1.6c1.5 1.7.7 3.6-1.4 3.6-.7 0-2-.7-2.9-1.6zm96.5-2.3a44 44 0 0 1-1.4-9.7l-.2-6h2.9l1.2 6c.7 3.3 1.3 7.7 1.4 9.7v3.8h-1.3c-.7 0-1.9-1.7-2.6-3.8zm-81.8 2.1c-.7-.2-1.3-1.4-1.3-2.5v-2l4.5.7v2c0 2-1.2 2.6-3.2 1.8zm-103-2.5c-.2-.6 0-1.4.5-2l1-1 13.1-.3c7.2 0 13.4-.5 13.8-.8 1-1.1 1.3-6.6.3-7.2a3 3 0 0 1-1-2v-1.5h4.6l2.4 6.5-2.8 2.1 1.6 1 1.6 1-.7 1.8-.7 1.8-5-1-.3 1.2-.3 1-27.4.3zm167.3.3c-.8-1.2 1.1-2.4 2.4-1.6 1.2.7.4 2.5-1 2.5-.5 0-1.1-.4-1.4-1zm212.5-2.7a194 194 0 0 1-10-6.4c-3.1-2-6.5-4-7.6-4.2l-2-.3v-5l2.3.2c1.3.2 4.8 2 8 4 3 2.1 7.8 5.2 10.6 6.8l5.1 3 .3 2.3.4 2.2h-1.4c-.7 0-3.3-1.2-5.7-2.6zm-415-1.8-1.2-1.5.3-3.8.3-3.8h1.7c.9 0 2.5-1.1 3.6-2.5l2-2.5.7 1.7c.4.9.5 2.7.4 4l-.4 2.3-3.4-.6-.3 3.7c-.1 2-.8 3.9-1.4 4.1-.6.2-1.6-.3-2.3-1.1zm187.1.2c-.6-.7-1.2-1.7-1.2-2.4 0-.6-.7-1.7-1.5-2.4s-1.5-1.9-1.5-2.7c0-.7 1.2-1.9 2.7-2.6l2.6-1.2 1.6 2.4a30 30 0 0 1 2.7 5.7l1.1 3.3-1.4.5c-2.2.9-3.8.7-5-.6zm18.9-5.4a32 32 0 0 1-2-5.5c0-1.4 5-1 5.4.3.3.7.6 3 .7 5.2l.3 3.9-2.3.8zm-226 2.2-1.2-1.5 3.5-11.2-1.4-1c-.8-.5-2.3-.6-3.3-.3-2 .6-5-1.3-4.1-2.7.7-1.2 14.7-1.2 17.9 0l2.5 1v1.9a8 8 0 0 1-1.5 3.8l-1.5 1.9-1.3-1.7-1.4-1.8-1.2 4.2c-1.4 4.5-3.8 8.8-5 8.8-.5 0-1.4-.7-2-1.4zm245.4-.9c-.3-1.2-.6-3.3-.7-4.7l-.3-2.5h3l.9 3.2c1 3.4.3 6.3-1.3 6.3-.6 0-1.3-1-1.6-2.3zM607.4 430c-1-1-1-3.6 0-5.1.5-.7 2.3-1.6 4-2l3.2-.6v1.7c0 1-.8 2-1.7 2.3-1 .4-2.5 1.5-3.3 2.6s-1.8 1.5-2.2 1zm137.6-7-4.6-4.5.6-2 .6-2-3.1-6.6c-1.8-3.6-3-7.2-2.6-8l.5-1.5 1.5.6c.7.3 2.2 2.6 3.1 5.2 1 2.6 2.2 5.1 2.6 5.6a5 5 0 0 1 1 2.8c0 1 1.5 3.5 3.4 5.6 3.6 4 5 8.2 2.8 9-.7.1-3.3-1.7-5.8-4.2zm-8.3.8c.4-2.1 2.2-2.3 2.6-.2l.4 1.8h-3.3zm33.6-7.9a30.2 30.2 0 0 1-4.8-8v-1.5h3.6l2.2 3.7c1.2 2.1 3.3 5.1 4.7 6.7 1.4 1.6 2.5 3.5 2.5 4.2s-.8 1.4-1.7 1.4H775l-4.7-6.5zm-148.1 4.8c-.4-.3-.7-1.6-.7-2.9v-2.2l-4.8-.9-1 3.8-10.3-7-20 1-2.7-1.7a8.7 8.7 0 0 0-4.8-1.6 4 4 0 0 1-3.3-1.2l-1.3-1.6 1.5-.6c.8-.3 6.3-.3 12.2-.1l10.6.5 2.9 3.7v-5.4l-4.2-.5a325 325 0 0 0-14.5-1.1l-10.1-.7-.4 2.9-.3 2.8h-1.5c-.8 0-1.6-1-1.8-2a17 17 0 0 0-2.3-4.4l-1.8-2.3-31.3-.5c-17.2-.2-34.5-.4-38.4-.3l-7.1.1-.7-1.7c-.4-1-.2-2.2.4-2.8l1-1 11.3 1.2c6.2.7 23 1.2 37.2 1.2h27c.6-.2-.8-.6-3-1s-9-1-15-1-19.4-.3-29.7-.7l-18.8-.6v-2.5l15.3-.6c14.4-.7 42.5.5 49.5 2l3.2.6v-7l-4.5-.4c-2.5-.2-5 0-5.5.6l-.9 1-13.3-.3-28.2-.5-15-.4-1.3-1.8c-.7-1-1.2-2.6-1-3.4l.3-1.5 3 .2 14.3 1 11.4.6 2.8-3.8h8.4c8 0 11.5-.9 8.4-2-.8-.2-13.3-.6-27.8-.8l-26.5-.5-2.4.9c-1.3.5-9.6.9-18.5.8h-23.7c-1.4.2-9.5 0-18-.5l-15.5-.7-2-1.3a9 9 0 0 0-4.3-1.4h-2.4l.5 1.2c.4 1.4 4.6 2.5 13.6 3.6l6.5.7.4 1.2.4 1.3H403l-6.4-6.6v-2.6c0-1.5.4-3 1-3.2 1.2-.9 41.5 1.2 48 2.3l5.5 1 44 .6 46.5.7 2.5.3.7-4.5h-5.9c-5.8 0-35.8-1.4-59.5-2.6l-12.8-.7v-4l8.8.6L490 361c7.2.6 51.9 2.5 52.2 2.2l.9-5.4.7-5.2h-16c-14.7-.2-32.3-1.4-34-2.4-.4-.3-11.6-.8-24.8-1.2l-27-.9-3-.1-.6-3.5 7.8.1c4.3 0 14.1.4 21.8.8l14 .7 2-1.1c1.1-.7 5.6-1.7 10-2.3 7.5-1 11.8-1.5 27-2.7 3.2-.3 6.2-1 6.5-1.5.3-.5.4-2.6.2-4.5l-.4-3.5-9.1-.1-29.2-.8-20-.6-.6-3.5h12.8c7 0 16.9.5 21.8 1l9 1.1 13.5-1.3v-1.4c0-.8-1.2-2-2.7-2.5l-2.7-1-4 2.2-29-.6v-3h3.4l13 .5 9.4.4.4-1.2.4-1.2h-9.2v-3h6.5l-4.8-2.7 1.2-.7c.7-.4 4.5-.5 8.7 0l7.4.6v-1c0-1.3-2.4-2.2-6-2.2-1.5 0-3.3-.7-4-1.5-.7-.9-1-1.8-.7-2.2.4-.3 1.9-.6 3.4-.5 3.4 0 6.6-1.6 5.8-2.9-.3-.5-3-1-6-1h-5l-1.3-1.4-1.2-1.4 2.6-.7c1.5-.3 2.6-1 2.6-1.5s-2.1-1-4.7-1a37.2 37.2 0 0 0-10 .8l-3 .5-.7-1.1-.7-1.1h-32.8l-.6 1-.7 1-1.1-.9c-.7-.5-2.8-1-4.7-1.3l-3.5-.3-.3-1.8-.3-1.7 13.3.5 31.2 1 17.8.5-.4-1.3-.4-1.2-19.9-1v-3l5.5-.1c3 0 6-.2 6.8-.3.7 0 1.2-.8 1.2-1.6v-1.5h-14.2l.5-1.3c.2-.6 1.7-1.4 3.3-1.5 1.6-.2 3.4-.8 4-1.4l1-1-7.9.7-.4-1.2-.4-1.2 8.6-1.7.4-2c.2-1 1.2-3 2.2-4.3 1-1.3 1.9-3.3 1.9-4.5V261l-1.5 1.9-1.4 1.8-1.5-.5-1.4-.6.5-2a7.2 7.2 0 0 1 2-3.2c.7-.6 1.3-2.1 1.2-3.3V253l-1 2c-.6 1-2.1 2.8-3.5 3.8l-2.5 1.9-7-3.3.3-7.7.3-7.7 11.5-1.8.6-1.9c.3-1 1-1.8 1.5-1.8s2 .7 3.4 1.6l2.5 1.6v-4.4c0-2.4.6-5.3 1.4-6.3l1.3-1.8 1.6.6c.8.3 1.8 2 2.2 3.7l.7 3.1 3.5-3.2 3.3 1.3v-1c0-.5-.7-1.5-1.5-2.2s-1.5-2.2-1.5-3.4c0-1.1.7-3.4 1.5-4.9l1.4-2.8-.5-2.8-.6-2.8 3.2-1.2V208c0-1.9.3-4.2.6-5l.6-1.6h2.3c1.3 0 2.5.6 2.8 1.3a9 9 0 0 1 0 3.9l-.5 2.5 2.6.7c1.4.3 3 1.6 3.7 2.7l1.1 2.1-1.8 4-1.7 3.9 4.3 4.3v-7.4h2c1 0 2.3-.6 2.7-1.3s.9-6.3 1-12.6v-11.3l2.7-1.7 3.6 2 .6-1.6c.4-.8 1.4-1.5 2.4-1.5h1.7l1.2 2.5c.6 1.4 1.1 5.3 1.1 8.6v6l-1.5.5c-2.3 1-1.7 3.1 1 3.8l2.5.6v20.9l1 .6c.7.4 1.4.5 1.7.2.2-.3.7-4.9 1-10.1.4-5.3 1-9.9 1.4-10.2 1.6-1 4.7 1.6 5.8 4.7.6 1.8 1.1 4.7 1.1 6.5s.5 4.4 1.2 5.8l1.1 2.5-1.3 1.6c-.6.8-1 2.1-.7 2.9l.6 1.4 9.1-1 3 2.4v-2.5c0-1.4.4-2.8.9-3.1 1-.6 5.1 2.1 5.1 3.5 0 .5-1.6 2.4-3.6 4.1l-3.6 3.1.5 2.4c.2 1.3 0 2.6-.5 3l-.9.5.7 3.1c.3 1.8 1.2 3.9 2 4.7l1.2 1.5-.3 7.5c-.4 10.8-1.2 17.1-2.4 18.3-.6.6-1 3-1 5.4v4.3h1.3c.8 0 2-1.4 2.5-3.2.6-1.7 1.1-5.8 1.1-9.2v-6l2-2.3c1-1.2 2.6-2.2 3.4-2.2l1.7.2.6 5.3.5 5 2.3 2.2c1.4 1.3 3 2.3 3.6 2.3h1l-1.2-6h1.3c.8 0 2 .6 2.7 1.2l1.4 1.3.4-1.3c.6-1.5 3.3-1.6 3.3-.1 0 .6.6.9 1.2.7.7-.3 1.3-1.5 1.3-2.9V280l3.7-.7.5 2.1.5 2h3.8l.2 6.6.7-2.5.7-2.5 2-.1c1.1 0 3-.7 4.4-1.4l2.4-1.3 1.3 1.9c.7 1 1.3 2.2 1.3 2.7s-.5 1.7-1 2.8l-1 2-2-1.1c-1.1-.6-2-1.7-2-2.5 0-2.5-1.7-1.7-2.4 1l-.6 2.5 3.3 3.5c1.9 2 4 3.5 4.6 3.5h1.1v-7h6.1l-.5-1.8c-.3-1-.1-2.3.3-3.1l1-1.4 3.1 1.2v6h-1.4c-1.5 0-2.6 3-2.6 7.3 0 1.6-.3 2.8-.8 2.8s-1.4-.6-2.1-1.3l-1.3-1.2.6 3.7c.4 2 .3 3.8-.1 4a23 23 0 0 1-7.1-2.4l-6.4-3-1-3.6-9.3-3V293c0-1.6-.5-3-1.2-3.2l-1.3-.5v5.5l-4.4-.5c-2.4-.3-5.8-1.3-7.6-2.2-1.8-.9-3.7-1.6-4.1-1.6s-.9 1.3-.9 3a16 16 0 0 1-.6 4.5c-.4.9-1.7 2-3 2.5s-2.4 1.3-2.4 1.7 1 1.3 2.3 1.8 2.4 2 2.5 3.1l.3 2.2 2 .5c1 .3 2 1.2 2 2.1s.3 1.6.9 1.6h.9l-.6-3.5c-.3-1.9-.3-4.1 0-5l.6-1.5 3.1 1.2v10.1l1.6 1.8 1.7 1.8-.6 1.6c-1 2.3-3.6 1.8-4.8-1l-1.1-2.3-4.8-1v12.6l4-1v4.4l3.7 1v3.9c0 2.1.6 4.6 1.3 5.4l1.3 1.5-1.6 1.8a6 6 0 0 0-1.7 3.2v1.4l1.2-1.2c1.4-1.4 4.8-1.6 4.8-.4 0 .5 1.6 1.6 3.5 2.5l3.5 1.7v1.8c0 1-1.3 3.3-3 5.2-1.6 2-3 4-3 4.6 0 .7.8 1.4 1.9 1.6l1.8.5.6 4.4c.3 2.4.4 4.7 0 5.1-.2.4-1.4.8-2.6.9h-2.2l5.5 2v2.4c0 1.2.7 2.5 1.5 2.8.8.4 1.6.3 1.9-.1s.7-2.6 1-5l.8-4.2h-1c-1.4 0-2.4-3.2-1.3-4.3l.9-.9 2.2 1.2c1.2.6 2.5 2 3 3.2s.3 4.1-.1 6.5l-.8 4.3 2 4.6-1.8 6.9-1.6-.3c-1-.2-1.7.2-1.7.8s.7 1 1.5 1 2 1 2.5 2c1.4 2.5 1.8 9.8.7 12.6l-.7 2.1 4.2 1.1-.4 2.8c-.3 2.7-1.8 4-3.1 2.7zm-8.7-10.4v-2l5.3.6.4-1.2.4-1.2-4.6-.6-1-8-3.5 7.7-4-1 .6 2c.7 2.1 4.2 5.7 5.7 5.8.4 0 .7-1 .7-2zm-22.4-12 .6-1-2-1.5c-1.2-.9-2.2-2-2.2-2.5s.7-1 1.5-1 1.5-.4 1.5-1v-1.1l-5.2 1-4.5-2c-2.4-1-4.2-2.3-3.8-2.6a13 13 0 0 1 5.2-.3l4.5.3-1.4-2.3-5.6.2c-3.1.1-6.2.6-7 1.2s-1.2 2-1.2 3.3v2.4h4.4c2.5 0 5.2.3 6 .6.9.3 1.6 1 1.6 1.6v1l-11.3-.7-1 2.8 11.8-1.4 1.8 2c1.8 2.3 5.2 2.8 6.3 1zm13.4-1c0-.5-.5-1-1-1s-.8.5-.5 1 .8 1 1 1 .5-.4.5-1zm-2.5-5 .6-1h-2.5c-1.4 0-2.6.5-2.6 1s.9 1 2 1 2.2-.4 2.5-1zm11.2.5c-.3-.3-1.2-.4-1.9 0l-1.3.4 2 .1c1 0 1.6-.2 1.2-.5zm3.3-5.3v-2l-2 .6c-1 .3-2 1.1-2 2v1.3h4zm-12-1.1c0-.6-1.3-1-3-1H598c-.4-.1-.9.3-1 1l-.5 1h8.2zm-43-5 2.5-.8-4.1-.1c-2.3 0-5.5-.4-7.3-.7l-3-.7v3.3l4.7-.1c2.6 0 5.8-.5 7.2-1zm-19.7-1.1c.7 0 0-.5-1.3-1-3.3-1-9.4-1-11.7-.2l-1.8.8 5.5.6c3 .3 6.1.4 6.8.2l2.5-.4zm31.4.4a1 1 0 0 0-1.4 0c-.3.4 0 .7.7.7s1-.3.7-.7zm10.8-3.2c-1.3-1.2-9.5-2.1-9.5-1 0 1 2.5 1.6 7 1.8h3.4zm4.2-.8c-.4-.3-.7 0-.7.7s.3 1 .7.7c.3-.4.3-1 0-1.4zm-24.8-.7 1.2-1.4-1.6-.6a10 10 0 0 0-4.4 0l-2.8.6-.6-1.6-.6-1.6 8-2.3v-2.7H552v4.7l.1 4.8 4 .6 5 .8c.7 0 1.7-.5 2.3-1.3zm-13.9-4.6v-5h-2v10h2zm33 1.6c0-.3-.4-1.6-1-3l-1-2.6H578c-1.3 0-2.5.5-2.5 1s1 1.4 2 1.7 2 1.1 2 2 .7 1.3 1.5 1.3 1.5-.2 1.5-.4zm-14.5-4.6c.4-.6.2-1-.4-1s-1 .4-1 1 .1 1 .4 1 .7-.5 1-1zm4.5 0c0-.6-.4-1-1-1s-1 .4-1 1 .5 1 1 1 1-.5 1-1zm24.5-2 .6-1h-3.2l.6 1c.4.5.8 1 1 1s.7-.5 1-1zm-15.5-3c0-1.2-3.8-2.3-5.1-1.4l-1.2.7 1.8 1.3c1.7 1.3 4.5.9 4.5-.6zm-31.5-1 .7-1.1 1.2 1c1.5 1.2 2.6.5 2.6-1.7v-1.4l-5 1.2v-4l2.4-.6c1.3-.3 3.2-.5 4.3-.3s3-.3 4.3-.9l2.5-1-2.5-.3c-1.4 0-5-.2-8-.1H547l.2 4.3.2 5.1c.1 1.2 1.9 1 2.6-.3zm13.2-.6.4-1.1-3.1-.7c-1.8-.3-3.6-.3-4.1 0l-1 .6 1.2 1.4 1.2 1.5 2.6-.3c1.3-.2 2.6-.8 2.8-1.4zm9-1c-.4-.8-1.1-1.2-1.7-.9l-1 .7 1.1 1.4c.7.8 1.4 1.2 1.7 1s.2-1.2-.2-2.1zm34.3-1.6c0-1.3-1.6-1-3 .6l-1.2 1.5 1.5 2.4 1.4-1.8a7 7 0 0 0 1.3-2.7zm-3-4.2c0-.3-.4-.7-1-1-.4-.4-1.1-.2-1.5.4l-.6 1h1.6c.8 0 1.5-.2 1.5-.4zm-18-1.6c0-.6-.5-1-1-1s-.8.4-.5 1 .8 1 1 1 .5-.5.5-1zm10-2.5c0-.8-.4-1.5-1-1.5s-1 .7-1 1.5.5 1.5 1 1.5 1-.7 1-1.5zm-58.4-3c.3-.7.4-2.8.1-4.7l-.4-3.3-.8 2.2c-.8 2.6-3.5 3.1-3.5.7v-1.5l-1.7.5a331 331 0 0 1-28.6 3.1l-8.9.7.9.9c1 1 19.1 2.6 32.6 2.8h9.8zm12 0a12 12 0 0 1-.6-3.6v-2l-1 .6c-.5.3-1 2-1 3.6v2.9h3.2zm47.9-2.4.6-3-1.8-3.3-1.8-3.3-.3 2.9c-.4 3.7.6 9.6 1.8 9.6.5 0 1.1-1.3 1.5-3zm-53.5-1.2v-2l-1 .6c-.5.3-1 1.5-1 2.6v2l1-.6c.6-.3 1-1.5 1-2.6zm9-.5v-1.5l-1 .6c-.6.3-.8 1-.4 1.6.8 1.3 1.4 1 1.4-.7zm4-5.7V337l-2.5-.2c-1.4 0-2.5.3-2.5.7 0 .5 1 1 2.3 1.3l2.5.6c.2 0 .2-.5.2-1.2zm-24-3.7c0-1.7-.4-3-1-3-1.1 0-1.4 4.3-.3 5.3.3.4.8.7 1 .7.2 0 .3-1.4.3-3zm28.7 1.3c-.4-.3-.7 0-.7.7s.3 1 .7.7c.3-.4.3-1 0-1.4zm-13 0a1 1 0 0 0-1.4 0c-.3.4 0 .7.7.7s1-.3.7-.7zm-9.9-2c-.1-.9-.8-1.8-1.5-2l-1.3-.5v4.2h3.2zm18.9-2c-.4-.3-.7 0-.7.7s.3 1 .7.7c.3-.4.3-1 0-1.4zm14.3-2.4v-2l-1 .6c-.5.3-.6 1.2-.3 2s.7 1.5 1 1.5c.1 0 .3-1 .3-2zm9.2-5.4c-.6-1.4-1.6-2.5-2.2-2.5h-1l.6 3.7c.4 2.1 1 4.2 1.2 4.7.3.5 1 0 1.5-1.2l1-2.2zm-48 2.9c.9-.8-.2-3.4-1.3-3.4-.5 0-.9.9-.9 2 0 2 1 2.6 2.3 1.4zm5.2-.9c-.3-.8-1-1.2-1.5-1-1 .7-.2 2.5 1.1 2.5.5 0 .7-.7.4-1.5zm51.3.8a1 1 0 0 0-1.4 0c-.3.4 0 .7.7.7s1-.3.7-.7zm-2.4-17.8-.6-3-.8 2c-1 2.6-1 10-.1 11 1 1 2.1-6.4 1.5-10zm-53.3 4.5c0-.6-.4-1-1-1s-1 .4-1 1 .5 1 1 1 1-.5 1-1zm35.8-7.8-.4-2.7-1.6 7.5 1.6 3.5.4-2.8c.2-1.5.2-4 0-5.5zm-5.8.7v-3l-1 .6c-.5.3-1 1.7-1 3s.5 2.5 1 2.5 1-1.4 1-3zm-31.4-2c.3-.6.5-1.2.3-1.4-.2-.2-2-.6-4.1-1l-3.8-.7v1.5c0 .8.6 1.8 1.3 2 2.2 1 5.6.7 6.3-.4zm42.4-4c0-1-.4-2-1-2.4l-1-.6v6.2l1-.6c.6-.3 1-1.5 1-2.5zm-19.7-26c.3-6.8.8-13.4 1.2-14.6l.7-2.1-3.6.3-.8-4.4c-.4-2.5-1.1-4.7-1.6-5s-1.2-3.5-1.5-7.1l-.6-6.6 1-4.4 1-4.4-1.2-2.3c-.6-1.2-1.6-2-2-1.7s-.6 2.4-.2 4.8l.6 4.4-2.2 1.8a6.3 6.3 0 0 0-2 4v2.3l-4 2.2v5.9h-1.5c-1.4 0-2.5-3-2.6-6.8v-2.2h-1.4c-1.4 0-2.6 3-2.6 6.8v2.3l3.5-.6.2 6c.2 10 .3 10.8 1 10.1.4-.4.7-2.8.8-5.4V253h3l-.7 22-1.4 4c-.7 2.2-1.4 4.3-1.4 4.7 0 .4.7.5 1.6.1l1.5-.6 2.8 3.8.5-1.5c.6-1.4.6-4.8.4-21-.2-13.5 0-18.7.9-22 .5-2 1.5-3.6 2.4-3.8l1.4-.3.2 13.8.1 13.8 3.4 9.8-.6 7c-.3 4-.2 9.9.1 13.2l.7 6 1.2-7.5c.7-4.1 1.5-13.1 1.7-20zm72.7 24.2c0-1.2-2-2.5-2.7-1.8-.7.7.6 2.7 1.8 2.7.5 0 1-.4 1-1zm-100-1.1c0-.6-.4-1-1-1s-1 .4-1 1 .5 1 1 1 1-.5 1-1zm-9.2-1c-.2-.7-.8-1.2-1.3-1.2s-1.1.5-1.3 1.1c-.2.6.4 1 1.3 1s1.5-.4 1.3-1zm4.2 0c0-.6-.7-1-1.5-1h-1.6l.6 1c.4.5 1 1 1.6 1s1-.5 1-1zm15.5-1a10 10 0 0 0 0-4.8l-.8-2.7-.7 2.5c-1.1 3.6-1.1 7 0 7 .5 0 1.2-1 1.5-2zm23.1.4c-.3-.9-.6-2.8-.6-4.2V289l-3.1 3 1.3 5.4h3zm-16.1-.3c.3-.6 0-1.3-.5-1.6l-1-.6v1.5c0 1.8.6 2 1.5.7zm-22.8-3.8a1 1 0 0 0-1.4 0c-.3.4 0 .7.7.7s1-.3.7-.7zm6.3-.9v-1.5l-1 .6c-.5.3-1 1-1 1.6s.5.9 1 .9 1-.7 1-1.6zm89.2-2.6-1-2.3-.2 6.9 2.3-2.3-1-2.3zm-47.3-2.6-.2-4.7-.6 4c-.6 3.8-.5 5.5.5 5.5.2 0 .3-2.1.3-4.8zm-45.3.3 2.9-2.4-2.2-2c-1.2-1.2-2.7-2.1-3.2-2.1-.6 0-1 .7-1 1.5 0 2.2-2.7 1.8-4.5-.6a12 12 0 0 0-3.7-3.3 6.4 6.4 0 0 1-3-3.6l-.6-2.5-1.1 2.7c-.6 1.5-.9 3.5-.6 4.3a3 3 0 0 0 2.5 1.5c2.4 0 3.5 2 1.8 3l-1.4 1h1.6c2 0 7.6 2.8 8.5 4 .3.6.7 1 .8 1a24 24 0 0 0 3.2-2.5zm54.7-1.3c.3-1.5.4-2.9.2-3-.2-.3-.8-.1-1.4.3-1.3.7-1.5 5.5-.2 5.5.5 0 1.1-1.2 1.4-2.8zm-45-13.3 1.7-1V265l-.9 1.4c-1.4 2.2-3 .3-3-3.5v-3.5l-1 .6c-1.3.7-1.4 7.6-.4 16.6l.8 6.4 1-10.7zm-30.6 6.4c-.4-.3-.7 0-.7.7s.3 1 .7.7c.3-.4.3-1 0-1.4zm24.6-36c.3-3.5.2-6.3-.2-6.3a37 37 0 0 0-2.5 9.2l-1.8 9.3.2 9.4a46 46 0 0 0 1.3 12l1 2.6.8-15 1.2-21.3zm34.3 31.1c-.4-2-.8-6.6-1-10.3 0-3.6-.7-7.5-1.3-8.6l-1.2-2v5.1c0 2.8-.4 7.1-.7 9.6l-.6 4.4 1.4 1.5c.8.7 1.7 2.2 2.1 3.3 1.2 3 2 1 1.3-3zm8 3c-.3-.4-.6-.1-.6.6s.3 1 .7.7c.3-.4.3-1 0-1.4zm-50.6-18c.4-12.7.2-17.4-1-17.4h-1l.2 31.5.8-2.6a70 70 0 0 0 1-11.5zm-7 8.6c0-.6-.2-1-.4-1s-.7.4-1 1-.2 1 .4 1 1-.5 1-1zm62 0c0-.5-.4-1.2-1-1.5l-1-.6v1.5c0 .9.5 1.6 1 1.6s1-.4 1-1zm-5-8.5c0-.8 1.5-2.9 3.4-4.6s3.7-4.2 4-5.5 1-2.4 1.6-2.4 1-.3 1-.8c0-.4-2.5-.8-5.5-.9-3 0-5.5.3-5.5.7 0 .5 1 1 2.3 1.2l2.2.3v4l-4.3.6-.6 3c-.3 1.8-.6 4-.6 5v2l1-.6c.6-.3 1-1.3 1-2zm-61.3-4.2c-.4-.3-.7 0-.7.7s.3 1 .7.7c.3-.4.3-1 0-1.4zm-14.8-3.1c0-1.5-.4-3.6-.8-4.6l-.7-2-.6 1.5c-.8 2.1.3 9 1.3 8.3.5-.3.9-1.7.8-3.2zm20.6-8c-.3-.3-.9-.2-1.3.4l-.8.9 2.1 11 .3-5.9c.2-3.2 0-6-.3-6.4zm-13 2c-1.2-1.3-1.7 1-.9 4.5l.8 3.8.4-3.9c.2-2 0-4-.2-4.4zm54 2.5c-.4-1.2-.6-5.6-.6-9.7l.1-7.5-1.5 3.4-1.5 3.3v11.6l1.3.5c.7.3 1.6.6 2 .6h1l-.8-2.2zm-48.5-2.2c0-1.4-.4-2.5-1-2.5s-1 1.1-1 2.5.5 2.5 1 2.5 1-1.1 1-2.5zm51.6-5c-.3-.8-1-1.5-1.5-1.5h-.9l1.2 2.5c.6 1.3 1.3 2 1.5 1.4.1-.5 0-1.6-.3-2.4zm-34.6-2c0-.8-.4-1.5-1-1.5-.5 0-.7.7-.3 1.5.3.8.7 1.5 1 1.5.1 0 .3-.7.3-1.5zm4.7-17.2c-.4-.3-.7 0-.7.7s.3 1 .7.7c.3-.4.3-1 0-1.4zM783 417.5c-.3-.6-.1-1 .5-1s1 .4 1 1-.2 1-.4 1-.8-.5-1-1zm1-4.5-2-1.4 1.2-1.2c.6-.6 1.9-.9 2.7-.6 1.7.7 2.2 3.2.8 4.1-.5.3-1.7-.1-2.8-.9zm6.5-1.4v-3l-3-1.6a11 11 0 0 1-4-3.4c-.5-1.1-1-3-1-4.1v-2.2l7-7-1.2-7.8h-2.8v-5c0-2.6.3-5.6.6-6.4l.6-1.6h5.8v5h-4v8h4.2l.5 2c.3 1.1 1 2 1.5 2h1l-.7 8.5-3.6-.6-2.5 2.7-2.5 2.6.5 1.4c.6 1.6 3.2 1.9 4 .4.4-.5 1.2-.7 1.9-.4l1.2.4V414l-3.5.6zm-161.8-1c-.8-.5-1.2-1.7-1-2.7l.3-1.8 7.5-1.8V400l4.5-2 1-8h3l.7 4.5c1 6.5 1 14.8 0 15.4-.5.3-2.5 0-4.5-.5l-3.6-1-3 1.6-3.3 1.5-1.6-.9zm12.8-6c0-1.5-1.6-2.2-3.4-1.5-2.4 1-1.9 2.4 1 2.4 1.3 0 2.4-.4 2.4-1zm237.7 5.3c-.8-.8.1-2.4 1.4-2.4.5 0 .9.7.9 1.5 0 1.5-1.2 2-2.3.9zm-210.1-6.2c-.4-.4-2.4-.7-4.4-.7H661v-3l7.5-1.7v-1.8c0-1-.4-2.2-1-2.5s-1-1.7-1-3 .5-2.7 1-3 1-1.9 1-3.4.3-3 .7-3.4c.3-.4 1.6 0 2.8.7l2 1.4 1.8-1.2a10 10 0 0 0 2.6-4c1-2.6 3.4-3.5 4.6-1.6.3.5.3 2.5 0 4.5l-.7 3.5-1-.7c-1.5-.9-3.7 2.4-3 4.7l.4 2h-1.6c-1 0-2-.7-2.2-1.5-.3-.8-1.3-1.5-2-1.5h-1.5l.6 6.5 2.8.3c1.5.2 2.7.8 2.7 1.3s-1 1.4-2.2 1.9l-2.3.9 7.3.1 2.4 3-1.6.6c-.9.3-3 .4-4.6.2l-3-.5-1.1 1.4c-1.3 1.5-2.2 1.6-3.3.5zm76-.8c-.3-.4-.6-1.6-.6-2.6v-2l3.5.7v2c0 2-1.6 3-2.8 1.9zm10.5-4.8a12 12 0 0 1-2-4.5c0-.6.6-1.1 1.4-1.1 1.8 0 6.9 6.6 6 8-1.2 2-3.3 1-5.4-2.4zm-69 .4v-2h5v4h-5zm87-1.6c-.4-1-.6-2.5-.4-3.5l.5-1.9-2.6-1c-1.4-.5-2.6-1.7-2.6-2.5s1.2-2 2.7-2.6l2.6-1-2.3-2.3-2.5 1.4-2.6 1.4-3.4-2.2v-4.3c-.2-6.6-.4-7.9-1.4-7.9-.5 0-1.2.9-1.6 2s-1.2 2-2 2c-1.7 0-4.5-3.8-4.5-6.2v-1.8h1.5c.9 0 1.8-.6 2.1-1.4.3-.8-.4-3.3-1.6-5.6l-2.1-4.2.7-7.9.7-7.9 1.4-1.2 1.5-1.2 3.3 2.1v4c0 2.2.6 4.7 1.3 5.6.8.9 1.3 2.6 1.2 3.9-.3 3.7 0 4.3 1.3 2.7 1.3-1.7 11.3-4.3 12.8-3.3 1.8 1 .9 3.2-1.6 3.8l-2.5.6v4.1l-4-1.2v7.3l1.5-.6c.8-.3 2.2-.3 3 0l1.5.6v14.7l1 .6c.6.3 1 1.5 1 2.6s-.4 1.9-1 1.9-1 .7-1 1.5v1.5h4.1l-1.4-16h3.3l.4 2.2c1.2 5.6 1.5 11.6.8 14.8l-.8 3.5-4.2.6-.5 2c-.3 1-1 1.9-1.6 1.9s-1.4-.7-2-1.6zm-122-3.3c-1.5-.4-2.7-1.5-3-2.4l-.2-1.7h7.2l.5-1.5c.7-1.7 3-2 3.9-.5.8 1.3-3.2 7-4.8 6.9-.7 0-2.3-.4-3.7-.8zm79.2.2c-1.8-.7-1.6-3 .3-3.7 2.4-1 11.2-.7 11.8.3.3.5 0 1.3-.7 1.8a24.4 24.4 0 0 1-11.4 1.6zm-27.3-4.2v-2.1h1.7c.9 0 3.1-.5 5-1.2l3.2-1.2 4.3 1.3 5.7 1.7 1.4.5-1 1c-.6.6-5.4 1.3-10.7 1.6l-9.6.5zm241.3-1.8-2.3-1.5v-4.6l3.1-2.6 3.1-2.6.5-4 .6-4.1 3 .6 1.8 6.8-3.8 3.9-3.8 4 3.8 2.7-.6 1.5c-.4.9-1.2 1.6-2 1.5-.6 0-2.2-.7-3.4-1.6zm-217.3-2.3v-1.8l4.5-.7c2.5-.3 5-.3 5.5 0 1.2.7 1.4 3.5.3 3.5l-5.5.4-4.8.4v-1.8zm-98.2-.3c-.8-2 .2-3.7 2.3-3.7h1.9v5h-1.9c-1 0-2-.6-2.3-1.3zm8.5-3.1c-.9-2-2.4-3.6-3.3-3.9l-1.7-.4-.6-3.4c-.2-1.9 0-3.8.4-4.4l1-1 2.8 1.8c1.6 1 4.5 1.7 6.4 1.7s3.8.4 4 .8c.8 1.2-.6 2.9-3.1 3.7l-2.3.7 1.3 7.8h-3.2zm54.7 1c0-.7.3-1.5.6-1.9 1-1 3.4.4 3.4 1.9v1.4h-4zm178.5-2.6c-.3-1-.4-2.4 0-3 .3-.5 1.5-1 2.6-1h1.9v6h-3.9zm-185.1-.2a8.7 8.7 0 0 1-1.2-4.2 8.8 8.8 0 0 0-1.3-4.2l-1-1.2 2.3-1.5 7.3 7.3-5.2 5.1zm-25.6-3.2-3.8-2.1-1-2.8c-.5-1.5-1.6-3-2.4-3.3a16 16 0 0 1-4.2-4.5l-2.7-3.9H644c-2.2 0-5.5-2.8-5.5-4.6 0-1 4.4-5.4 5.3-5.4 1.2 0 6.9 6.6 8.7 10 1 2 4.3 6 7.4 9 5.1 5 6.8 8.2 4.8 9.3-.4.3-2.4-.5-4.4-1.7zm10.4.7c-.6-.2-1.2-1-1.2-1.8s.7-1.8 1.5-2.5 1.5-2.5 1.5-4v-2.8l-6.5-1-4.3 2.9-1.6-1.6c-.9-1-1.6-2.2-1.6-3 0-2 5.8-6.5 8.2-6.5h2l8.6 8.5-.3 5.2c-.2 2.8-.6 5.6-1 6.2-.6 1.1-3 1.3-5.3.4zm29.5-2.6-.5-3.2 1.4-.8c.8-.4 1.4-1.3 1.4-1.8a34 34 0 0 0-12.3-9.9c-.4 0-.7.6-.7 1.4a5 5 0 0 1-1.6 3l-1.6 1.7-1.7-1.5a9 9 0 0 0-3.6-1.8l-2-.3v-4l1.5.4 3.7.8 2.3.5v-1.3c0-.8-3-3.4-6.7-5.8l-6.7-4.4-5.9-.3-.7-2c-.4-1-2.8-3-5.3-4.2l-4.6-2.3-2.2 1.2-2.2 1.1-1.4-1.8c-.7-1-1.3-2.6-1.3-3.5 0-1 .7-2 1.7-2.3 2-.8 10.7 2 12.3 4a5 5 0 0 0 3.1 1.4c1 0 2.7.8 3.7 1.8s3.8 3 6.4 4.5 5.3 3.3 6 4c.7.7 2.2 1.6 3.4 1.9l2 .5 1.3-1.8c.6-1 1.9-1.9 2.9-1.9s2.2.8 2.9 1.9c.6 1 1 2.8.6 4l-.6 2.2 6 5.7c3.4 3.1 6.6 6.7 7.2 7.9s1.1 3 1.1 4.2c0 1.1-.9 2.5-2 3s-3 1.1-4.3 1.1h-2.5zm409.2 1.1-.3-11.8c-.3-10.4.7-18 2.3-18 .5 0 1.3.6 1.8 1.2l1 1.3-1.2 28-3.5.6v-1.3zm-380.9-3.8c-1.2-2.2-1.3-4.7-.2-5.4 1.3-.8 3 .8 3.7 3.5l.6 2.6-1.5.6-1.6.6zm-13.5 0c.3-.6.8-1 1-1s.5.4.5 1-.5 1-1 1-.8-.5-.5-1zm155.5-1.2-2-2.2 1.9-1.9 2.5 1.7c2.8 1.8 3.5 4.6 1.1 4.6-.8 0-2.3-1-3.5-2.2zM735 367.7c-.6-.4-2.7-2.8-4.8-5.3-3.5-4.4-4.8-7.9-2.8-7.9 1 0 6.2 5.7 8.7 9.6l1.7 2.5-1 1c-.4.4-1.3.5-1.8.1zm15.7-5c-1.7-.5-6-9.3-5.9-11.7l.2-2-11.5-1.7-.6-2.4a6 6 0 0 0-2.5-3.4c-1-.6-4-1-6.8-1h-5.1v-1c0-.6-.7-1-1.5-1s-2.1-1-3-2.3l-1.5-2.4-5.8.9-1.5-2.4c-.9-1.2-1.9-4-2.2-6l-.7-3.6 1.1-.6c1.3-.9 1.4-4 .2-6.4-.6-1-1.3-3-1.6-4.6l-.6-2.8-1.8 1.6c-1 .9-2.3 1.6-3 1.6s-1.1-.9-1.1-2 .4-2 .9-2 1-1 1.3-2.4l.5-2.4-1.8 1.1c-1 .6-2 1-2.2.7-.3-.3-.8-1.5-1.2-2.8l-.6-2.2 1.6-.7c1-.3 4.2-.2 7.3.3l5.7.9-.7 12.3 1.3.7c.6.5 2.3.8 3.8.9l2.5.1 1.3 2.5 1.2 2.5-1.7 1.7-5-3.3-.5 3.8-.7 3.7 2.1 2.1 2-2.8c1.2-1.5 2.7-2.7 3.5-2.7h1.4v4h5.1l-.6 4.5-9.5-.6v1.5c0 .9.6 1.6 1.4 1.6.8 0 2.2.8 3.2 1.7l1.7 1.7h4.1c2.2 0 4.4-.4 4.8-.9s.8-2 .8-3.3v-2.2h1.8c1 0 2.2-1 2.7-2.2 1.1-2.6 4.2-3.5 5.8-1.9l1 1.1-1.1 1.2c-1.5 1.5-1.6 6.8-.1 6.8.6 0 2.4-.8 4-1.7l2.9-1.7 2 2-1 4.8a14 14 0 0 0-.4 5.8l.7 1.1 1.7-4.5 2.5.9.5 8.9c.3 4.9.8 9.4 1.2 10 1 1.4-.4 3.2-2 2.7zm-13.5-22.9c-.4-.3-.7 0-.7.7s.3 1 .7.7c.3-.4.3-1 0-1.4zm-35.6 19.8-2.1-3 1-.6c1.4-.9 5 1.7 5 3.7 0 3-1.8 3-4-.1zm-78.5-1.2c-1.5-1.7-2.4-3.5-2-4 1-1.6 3.1-1 4.8 1.6 1.8 2.7 2.1 5.5.7 5.5-.5 0-2.1-1.4-3.5-3zm-230.6 1.1-3.5-.5v-5l4.5.2 38 .8 33.5.6 1 1c.4.4.6 1.1.3 1.4-.3.3-12 .8-26 1l-34.8.8c-5.2.1-11 0-13-.3zm239-2.5c0-.8-1-2-2-2.5l-2-1.1.6-1c.3-.6-.3-2.4-1.5-4a11.7 11.7 0 0 1-2.1-3.8c0-2.5 2.4-2 6.5 1.6l4.4 3.8.1 8.5h-4V357zm81.5.6c-.3-.5 0-1.2.5-1.6l1-.6v1.5c0 1.8-.6 2-1.5.7zm315-2.1c-.4-.6-1-6.8-1.3-13.8l-.7-12.7-2 .5V341l-1.8.4-1.7.3 1.3-14.6 1.4-1 1.4-1-1-2.8c-.6-1.6-1.1-4.3-1.1-6V313l2-2.3c1.2-1.2 2.7-2 3.3-1.8.7.2 1.6 3 2.1 6.3s1.5 6.3 2.3 6.7l1.3.8v3.4c0 1.9.5 3.7 1.1 4l1.2.8-.6-5.4-1.3-10.2-.7-4.8 2-.5 2-.6-.4-1.8c-.3-1 0-2 .7-2.5s1.7-.1 2.5.5l1.5 1.2v6.8h-1.5c-.9 0-1.8.7-2.1 1.5-.3.8.2 3.7 1.1 6.5l1.7 5.1-.5 3.2-1.4 7-.8 3.6-1.4-.8-1.4-.9.6-1.7c.4-.9.2-2.6-.4-3.7l-1-2-3.6 3.2.1 10 .2 10.1-2.4 2zm2-31.8c-1-1.1-1.7.7-.9 3l.8 2.3.4-2.3c.2-1.3.1-2.6-.2-3zm74.7 26.6-1.2-1.2v-10.4l1.5-.6c.8-.3 1.8 0 2.1.6 1 1.4.6 9.7-.5 11.5l-.7 1.3zm-403.5-1.8c-1.5-1.2-2.7-3-2.7-4v-2h1.9c1.9 0 5.6 4.1 5.6 6.2 0 2-2 2-4.8-.2zm-90.5-1.8c.2-1 1-1.7 1.8-1.7s1.6.8 1.8 1.7l.3 1.8h-4.3zm521.2-5.5c.3-4 1.2-10.2 2-13.8l1.3-6.4-.8-.6c-.5-.3-1-3.4-1.1-7l-.3-6.4h5.5v-4.7l-6 1.4v-4.2h2.5c1.4 0 2.5-.4 2.5-.8s1.5-1.7 3.4-2.7l3.4-1.9 1.6 1.3c.9.8 1.6 2.4 1.6 3.8v2.4l1.5.6 1.6.5-.7 7.2-.6 7.1-2 3.3-1.8 3.3v5.9a36 36 0 0 1-.6 7.4c-.3.9-1.2 1.6-1.9 1.6s-1.6-.7-1.9-1.6a20 20 0 0 1-.6-5c0-6.2-1.8-3.5-2.6 3.8a85 85 0 0 0-.6 8c.1.5-.2 1.8-.8 2.8l-1 2h-4.3l.7-7.3zm9.1-21.7c.8-2.6-.4-10-1.6-10-.9 0-1.4 1.9-2.3 8.2l-.5 3.8h3.8zm-1022.3 24-2.2-1v-5l2.2-.4 14.5-2.7a80.8 80.8 0 0 0 12.3-2.6c0-.3-6-.3-13.3 0l-13.2.4-5.6 2.6-2.3-2.2 2.3-5.1 47 .2 2 3.5-1.2 1.1c-.6.7-2.7 1.2-4.7 1.2s-7.1 1-11.5 2-10.2 2.3-12.8 2.6c-2.6.4-4.7 1-4.7 1.6v.9l9.2-.6c23.9-1.3 61-2.5 61.8-2 .5.3 1 1.5 1 2.5v1.9l-2.3.7c-1.9.6-15.6.7-27.2.1-1.7 0-13.4.2-26 .6l-23 .7zm897.4-3.8a168 168 0 0 1 .3-30.2c.4 0 1.3 2.2 2 5a16 16 0 0 0 2.1 5.5l.9.5-1.5 4.2-1.4 4 .8 7.2c.5 3.9.7 7.4.5 7.8-.3.5-1 .8-1.8.8h-1.3zm-381.7 2.8-1.2-.8.6-1.6.6-1.6h6.2l-.7-1.1-.7-1-8.7 1.2v-5.3l-3 1.1-1.6-3c-.8-1.6-1.2-3.4-1-4s1.8-.9 3-.9h2.5l1.3 2c.8 1 3.4 2.9 5.8 4 4.5 2 12 8.8 12 10.9 0 1.3-3.2 1.5-4.6.2l-1-1-4.1.8c-2.3.5-4.7.5-5.4 0zm-28.4-3-2.8-2.9.5-2 .6-2-1.4-1.2a3.8 3.8 0 0 1-1.4-2.5v-1.4h4v2.5c0 1.4.4 2.5 1 2.5s1.2 1.1 1.6 2.5c.3 1.4 1.2 2.5 1.9 2.5s1.5.7 1.9 1.7l.6 1.6-1.2.9c-.8.4-1.6.8-1.9.8-.3 0-1.8-1.3-3.4-3zm74.2.3c-2.6-1.4-4.7-3-4.7-3.4 0-2.1 3-2 8.4.5l5.6 2.6v3h-2.3c-1.2 0-4.4-1.3-7-2.7zm82.3-.8c0-.8.7-1.8 1.6-2.3l1.7-1-.6-1.4c-.3-.8-.2-2 .3-2.8l.8-1.3 1.8.8c1 .4 2.7.7 3.6.6l1.8-.2v5.2l-7.5-.6-.7 4.5H764c-.8 0-1.4-.7-1.4-1.5zM216 335.8a7.5 7.5 0 0 1-2.7-1.2c-.4-.3-.4-1.3.1-2l.9-1.5 18.3-.3c10.1-.1 21-.5 24.4-.8s15.9-.6 28-.7l22-.3.3 2.1.3 2.1-19.6-.5-11.2 2.8-29.4.3c-16.2.2-30.3.2-31.4 0zm581.5-2.2c-1.3-2.5-1.3-4.8 0-5.6 1.7-1 4 1.5 4 4.6v2.9H800c-.8 0-2-.9-2.5-2zm313.2-.3c-.7-.7-1.2-2-1.2-2.8 0-1 .8-2.4 1.8-3.3 1-1 2-1.7 2.4-1.7.3 0 .8.7 1.2 1.6.3.8-.1 2.8-1 4.5-.8 1.6-1.6 2.9-1.8 2.9s-.8-.5-1.4-1.2zm-447.1-2.7-2.4-1.8.6-1.7c.3-.9 1-1.6 1.5-1.6s2 .8 3.2 1.8l2.3 1.9-.6 1.6c-.4 1-1 1.7-1.5 1.7-.4 0-1.8-.9-3.1-1.9zm31.4.2c-1-.3-2.4-1-3-1.7s-1.9-2.8-2.6-4.9l-1.3-3.6 2.7-5.1h4.9l-.7 1.7c-.4 1-1 3-1.2 4.4l-.5 2.5 1.6 1.3 1.6 1.3v-6.2h5v3.6c0 2-.5 4.4-1 5.5-1.1 2-1.9 2-5.5 1.2zm81-.7-2-1.5 3.6-1.4 2.3 2.3-2 2zm27.5-.1c0-.8.6-1.5 1.5-1.5s1.5.7 1.5 1.5-.7 1.5-1.5 1.5-1.5-.7-1.5-1.5zm-190.7-1c-.3-.9-.1-2.1.4-2.7s1.9-.8 2.9-.6l1.9.3v4l-4.5.6zm-405.1-1.7c-.7-.6-1.2-2.7-1.2-4.5v-3.4l1.5-.6c.9-.3 2-.2 2.4.3.5.5 1 2.7 1.2 4.9l.4 4-1.6.3c-.8.1-2-.3-2.7-1zm538-1c-1.2-1.4-2.2-3-2.2-3.6s.8-1.2 1.8-1.2c2.2 0 6.4 3.8 5.9 5.3-.7 2.1-3.3 1.8-5.5-.6zm-104.5.6c-.4-.4-.7-1.4-.7-2.1v-1.4l4.5.6v1.5c0 1.6-2.7 2.5-3.8 1.4zm40.8-.2a9 9 0 0 1-2.1-2.7l-1.1-2-10.8-3-.7-4.4-5.4 1-2.6-3 .4-3.3.3-3.3h4l-.6 7 2.3-2.6c2.5-3 5.8-4.9 8.2-4.9h1.6v4.9l-6.5.6-.3 1.7-.4 1.7 7.5 1.4 1.7-2.3 1.7-2.2 2.1.6c1.2.4 2.2 1.4 2.2 2.1 0 .8.9 2 2 2.5l2 1v10h-2.3c-1.2 0-2.7-.4-3.2-.8zm361-4c-1.5-4.6-1.3-8.2.5-8.2l2.4-.6 1.6-.6v14.2h-2.9zm-207-2.2c-2-2.2-3.5-4.7-3.5-5.5 0-.9.6-1.8 1.4-2.1s2.7-.2 4.3.3l2.7 1 .7 2.9 1.4 5.1.7 2.3h-4zm-114-2.9c-.3-.5 0-1.4.8-2l1.4-1.1 1.1 1.3c.6.8.8 1.7.5 2-1 1-3.1.9-3.8-.2zm-509.9-.8c-.3-.3-.6-1.3-.6-2s-1.3-2.7-2.9-4.3l-2.8-2.8-28.8 1-8.5-1.2c-4.7-.7-11-1.8-14-2.4l-5.3-1.1-1-1.6c-.6-.9-.8-2.4-.4-3.3l.6-1.6h3.1c1.7 0 3.9-.4 4.8-1 1-.5 8-1 15.6-1.2l13.8-.2 2.9-2.2-.6-1.6-.7-1.6-14.6.4a910 910 0 0 0-45.7 2.5l-15.4 1a6 6 0 0 1-4-1.5l-1.5-1.6 2-2 26.4-.5c31.9-.6 48-1.5 48-2.6 0-.5-2.8-.9-6.2-.9-3.4 0-9-.5-12.5-1.1l-6.4-1.1-1-1.8c-.5-1-1.2-5-1.6-9l-.6-7h-11.7v-3h5c2.6 0 5.1-.4 5.4-1 .3-.4 0-2.8-.9-5.2-.8-2.4-1.5-6.8-1.5-9.8 0-3 .7-9.1 1.6-13.5a254.6 254.6 0 0 0 3-17.3l.4-2.2h5.9l1.3 1.8 1.3 1.9 3.2-.9c1.8-.5 3.3-1.3 3.3-1.7v-1l-4 .6c-2.2.3-4 .2-4-.1 0-1.7 3-3.6 7-4.2l4-.7-.5-1.5-.6-1.5 6.2-5.6c3.4-3 7-6 8-6.3l2-.8.6 1.7.6 1.6-4.3 3.9a92.3 92.3 0 0 1-6.3 5.3c-1.2.8-1.9 1.7-1.6 2 .6.6 12.7-1.5 20.8-3.5 2.4-.6 6.9-.9 9.8-.6l5.4.4 2 1.7 1.8 1.7 3-1.1-.1-4.3c-.1-2.4-.8-11-1.6-19.3l-1.4-15-1.4-1.6c-.8-.8-1.4-2.1-1.4-2.8s.9-2.5 2-4l2.1-2.6-.6-6c-.3-3.3-.2-6.5.2-7.1.4-.6 2.2-1.5 3.9-1.8l3-.7 2.4 2.9-2.3 5 4.4 4.3-.6 3-.7 2.9h1.1c.6 0 1.4.8 1.8 1.7a37 37 0 0 0 3.2 5.8c3.7 5.9 5 8.6 5 10.1 0 2.8-3 1.3-5.9-3-1.7-2.5-3-4.9-3-5.4s-.7-1.5-1.5-2.2l-1.5-1.2v5l-1.5.6c-.9.3-1.5 1.4-1.5 2.4s.6 2.5 1.5 3.2l1.5 1.2v26.7l-3.3 1.8 4.4 1.2 2-3.3 1.8-3.2 6.7-2.4 1.7-4 1.8-3.9-1.3-2-1.2-2 1.4-2.6 1.4-2.6 4.9.5c2.7.3 5.5 1 6.3 1.7l1.4 1.2-.2 3.3c-.1 1.8.1 3.7.5 4 .4.5 1.6.3 2.7-.4 2.5-1.6 6.4-1.5 7.8 0a12 12 0 0 1 1.7 4l.6 2.6-5.6 5.3 2 1.4c1 .8 2.4 1.5 3.2 1.5h1.3v4.7l8.2.6c4.6.3 9.6 1 11.3 1.6l3 1.2 7.4 9.8 1.3 11.1 3.9.1 7.1.3 3.3.1 1.5-1.9 1.6-1.9 2 2c1 1.1 3.6 2.6 5.6 3.2s3.8 1.8 3.8 2.6c0 1.3 2 2.5 4.6 2.5h1.5l-.6-2.8-.6-2.9 3-2.5 5.8 2.3 6.8-1.2 2.7 1c1.5.6 2.8 1.7 2.8 2.6v1.5h4.2l1-4.2 3.7.7c2 .4 6.8.8 10.8.9h7.3v1.3c0 1.5 1.2 1.7 2.5.4l1-1 22-.5 27.5-.8 5.5-.3.5 1c.2.5-1 1.4-2.8 2-1.8.5-3.2 1.3-3.2 1.8s.7.6 1.5.3c1-.3 2.7-.6 4-.6h2.5v-2.4c0-1.3.6-2.9 1.3-3.5l1.3-1 4 .3c2.1.2 5.3 1 7.1 1.6l3.3 1.2v6.8l-9.8.1-27.2.4-17.5.2-1.8-1.5c-1-.8-3-1.7-4.6-1.8l-3-.4-.5 1.5-.6 1.5-3.3-.1-13.1.5-10 .6-1-1-1.1-.8-4.5.8c-2.5.5-6.7 1-9.4 1-5 0-9-1.5-8.1-3 .3-.6 2.2-1 4-1h3.6l-.6-.9c-.3-.5-2.3-.9-4.5-1h-4l-.7 1.2c-.4.7-.6 2.4-.5 3.8l.3 2.6-8.8-.3c-4.9-.2-11.2-.6-14.1-1l-5.3-.6-3 2.5-6.2-.6a48 48 0 0 1-8.2-1.3l-2-.8 1.6 2.5 1.7 2.5-.8 1.5c-.4.7-1 3.1-1.5 5.3l-.7 3.8 23.8-.7 33.4-1 9.5-.3 3.7 2-1.8 1.8-36 .6c-19.8.3-36.5.7-37.1 1s-1.3 1.3-1.5 2.6l-.3 2.3h-3l-.7 4.4 2.7.7c1.5.4 7.4.4 13.2.1l10.4-.5.6 1.4c.3.8.2 1.8-.2 2.2s-16.4.7-35.5.7h-34.8l-2.1 1.9c-1.2 1-2.1 2.5-2.1 3.3v1.3h25.8l.6 1c.3.4.2 1-.2 1.4-.5.2-9.7.6-20.6.7l-19.8.2-2 5.1-.9-1.4c-.5-.8-1-2.3-1-3.3s-.4-1.7-.9-1.7-1 2.6-1.2 5.7l-.3 5.8-4.3-.4-1.1 5.4 3 2.4.9 13.1h-1.4c-.7 0-1.6-.3-2-.7zm-19.7-16-.1-3.8-1.1 2.7c-.6 1.6-1.5 2.8-2 2.8s-1.2-1-1.5-2l-.5-2.2-14.6.5c-8 .3-15.8 1-17.1 1.5l-2.5 1 2.5.6c3.5 1 20 2.3 29.2 2.5l7.8.1zm7 2c0-1 .4-2.9.7-4.1l.6-2.4-4.7.7-.3 3.7-.4 3.8h4.2v-1.8zm8-2.7v-4.4l-1.4-.6c-.8-.3-1.7-.2-2 .2s-.1 2.7.2 5l.5 4.2h2.8v-4.4zm-14.4-7.6a2 2 0 0 0-1.3-1.8l-1.2-.4v4.4l1.2-.5a2 2 0 0 0 1.3-1.7zm8.5 0c0-1.1-3.7-2.3-5-1.5-2 1.2-1 2.5 2 2.5 1.6 0 3-.4 3-1zm6.6-4.2-.5-1.3v2c-.1 1 .1 1.6.5 1.2.3-.3.3-1.2 0-1.9zm6.4-.9c0-2-1.5-2.6-2.6-.9-.9 1.5.3 4.3 1.6 3.5.5-.3 1-1.5 1-2.6zm-11.4-.4c-.3-.8-1-1.5-1.6-1.5-1.5 0-1.3 2.7.2 3.3.7.2 1.4.3 1.6.1.2-.2.1-1-.2-1.9zm-9.6-1c0-.8-.5-1.5-1-1.5-1.2 0-2.1 1.6-1.3 2.4 1 1 2.3.6 2.3-.9zm4 .5a1 1 0 0 0-2 0c0 .6.4 1 1 1s1-.5 1-1zm-9-1c0-.6-.7-1-1.5-1s-1.5.4-1.5 1 .6 1 1.5 1 1.5-.5 1.5-1zm42.4-4.2c.4 1.2 1.4 2.2 2.2 2.2h1.6l-.8-1.8c-.4-1-1-2.7-1.2-4l-.5-2.2h-4.7v8.5l1.4-2.4 1.3-2.4.7 2.1zm-38.3-3.8-.8-3.5-.5 3.5c-.3 2-.4 3.9-.1 4.3l.5.9.8-.9c.5-.4.5-2.4 0-4.3zm10.7 3.3c-.2-.9-.9-1.8-1.6-2l-1.2-.5v4.2h3.1zm9.1-7c0-4.9.2-11 .6-13.6l.7-4.7h-1.2c-.6 0-1.3.6-1.5 1.2-.2.7-.6 6.8-.8 13.5l-.3 12.3h2.7zm8 5.7c0-1.7-.2-3-.5-3-.8 0-2.3 4.4-1.8 5.2.3.5 1 .8 1.4.8s1-1.4 1-3zm4 2c0-.6-.4-1-.9-1s-1.2.4-1.5 1l-.7 1h1.6c.9 0 1.6-.5 1.6-1zm-46.7-1.9c.3-1 .2-2.3-.1-2.8l-.6-1-7.9.8c-4.3.4-8 1-8.4 1.3-.3.3-.3.8 0 1.1.5.5 10.3 2.1 14.4 2.4l2.1.1.5-1.9zm5.7-2.9c0-.6-.3-1.2-.8-1.2-1 0-2.1 4.7-1.3 5.5.6.6 2-2.1 2.1-4.3zm4 1v-3.6l-1.4 1.4-1.5 1.5.6 2.3c.3 1.2 1 2.2 1.5 2.2s.9-1.7.9-3.7zm10-1.7c0-1.4-.4-2.5-1-2.5s-1 1.1-1 2.5.5 2.5 1 2.5 1-1.1 1-2.5zm-36.3-6.3.1-3.2h-2.7v7.2l1.2-.4c.7-.3 1.3-1.9 1.4-3.6zm13.6 3.2c2-.4 3.8-1 3.8-1.4 0-.5-1-.6-2-.3l-2 .5v-6.3l-1.5-.5c-.8-.3-2 0-2.8.8-1.7 1.6-3 6.2-2 7.1.7.8 1.7.8 6.5 0zm83.8-1.7c0-1.3-.6-3.1-1.3-4.1l-1.4-1.8-3.8.7-.4 2.5c-.2 1.4-.6 2.8-1 3.3s-1.6 0-2.7-.7l-2-1.5 2.7-4.3-1-1c-.5-.6-1.7-.8-2.6-.5l-1.5.6v3.9c0 2.1.3 4.2.6 4.5.4.4 3.8.7 7.5.7h6.9zm18.6.7c.4-.9.7-3.5.7-5.8l.1-4.1-6.5.3a32 32 0 0 0-8.2 1.3l-1.7 1v8.9h15zm-113-7.2c-1.2-1.1-1.5.5-.8 4.4l.7 3.9.3-3.9c.2-2 0-4-.3-4.4zm19.4 6.4c0-.8-.4-1.7-1-2-1.1-.8-2.3 1-1.5 2.4.9 1.5 2.5 1.2 2.5-.4zm35-1.1c0-2.5-1.4-3.4-2.5-1.6-.7 1.2.4 4.1 1.6 4.1.5 0 .9-1.1.9-2.5zm-30.2-.7c-.2-1.2-.9-2.3-1.6-2.6l-1.2-.4v2c0 2 .8 3.2 2.2 3.2.5 0 .8-1 .6-2.2zm93.8.5c-.3-.3-.6 0-.6.7s.3 1 .6.7c.4-.4.4-1 0-1.4zm0-6.5-.4-2.3v4c0 2.2.2 3.2.5 2.3s.2-2.8 0-4zm-43 .5c-1-1-1.9.5-1 1.8l.7 1.3.5-1.3c.2-.7.1-1.5-.2-1.8zm-64.6-3.8c0-.8-.7-1.5-1.5-1.5-.7 0-1.7-.9-2-2l-.7-2h-4.1l1.6 1.8a6 6 0 0 1 1.7 3.5v1.7h5zm13.2-1.5c-.3-1.7-.9-3.3-1.3-3.6l-1-.5v7.1h2.7zm83.3.4c3.6-.4 6.8-1 7-1.5.4-.5.1-.9-.5-.9s-1.5-1.1-2-2.5l-1-2.5h-2.8l-8.5-.4-5.7-.2v2.3c0 2.8 3.9 7.5 5.7 6.9a58 58 0 0 1 7.8-1.2zm-112-.3c.2-.5 0-1.2-.5-1.6l-1-.6v1.5c0 1.8.6 2 1.4.7zm87.5-1c0-1.1-.5-2.3-1-2.6l-1-.6v2.5c0 1.4.4 2.6 1 2.6s1-.9 1-2zm45-1.7c0-1.3-.5-2.4-1-2.4s-1 1.4-1 3v3.1l1-.6c.5-.3 1-1.7 1-3zm-8-.2c0-1.5-.5-3.4-1-4.2l-1-1.5v8.5h1c.5 0 1-1.2 1-2.8zm-105.5-.2.6-1h-2c-1.2 0-2.1.4-2.1 1s.6 1 1.4 1 1.7-.5 2-1zm76.8-3.3c-.3-.4-.8-.5-1.3-.2s-.6 1.5-.3 2.7l.6 2.2.7-2c.4-1 .5-2.2.3-2.7zm32.4.1-.6-1.3v2c0 1 .2 1.6.5 1.2s.4-1.2 0-1.9zm-122-1.5a1 1 0 0 0-1.4 0c-.4.4 0 .7.7.7s1-.3.6-.7zm49.3-.2c0-1-2.4-2.1-4.2-2.1h-1l1.2 1.5c1.3 1.6 4 2 4 .6zm-39-2c0-1.1-.4-2.2-.9-2.5-1.3-.8-6.5.9-7 2.3l-.4 1.3 3.6-.4c2-.2 3.3 0 3 .4-.2.4 0 .8.6.8s1-.9 1-2zm8-3.1c0-.6-1.1-1-2.5-1s-2.5.4-2.5 1 1.1 1 2.5 1 2.5-.5 2.5-1zm91-1c0-.6 1.3-1 3-1s3-.5 3-1-1.3-1-3-1h-2.8l-.6-2.2c-.3-1.2-.3-2.5 0-3 .6-1 5.2 0 8 1.8a9 9 0 0 0 3.3 1.4c1.7 0 1.2-1.8-1-4l-2-2h-8l.6-1c.3-.6 1.9-1 3.5-1s3.5-.3 4.4-.6c3-1.2 1.6-2.4-2.8-2.4a24 24 0 0 1-6-.6c-1-.3-1.6-1.1-1.6-1.8V225l10.2.2c5.6.2 9.8 0 9.4-.4-.4-.5-5.4-1.3-11-1.8l-10.1-1 1-2 6.3.2c3.5 0 6-.2 5.7-.5s-4-1-7.9-1.3a264 264 0 0 1-15.3-1.9c-4.5-.7-8.9-1-9.7-.7-2.8 1.1-1.7 2.7 1.8 2.7 3.3 0 5.5 1.4 4.1 2.8-.3.3-2.4.1-4.6-.5l-4-1-.6 1c-.3.5 0 1.3.8 1.8s3.5 1.2 6.1 1.5 4.8 1 4.8 1.4c0 .4-2.1 1-4.7 1.5-5.6.8-7.3 1.4-7.3 2.6 0 .5 3 .9 6.9.9h6.9l.5 1.5.6 1.5-14.9-.5-.5 1.2c-.8 2.2.6 4.3 3 4.3 1.2 0 2.8-.7 3.5-1.5l1.2-1.5h3.9c2.1 0 3.9.4 3.9.9s-1.3 1.2-2.8 1.6l-2.7.7 1.2.5c.7.3 1.3 1.2 1.3 2v1.6l-3.8-.6c-2-.3-4.7-.9-6-1.3l-2.2-.6v1c0 .5 1.7 1.6 3.7 2.4l3.8 1.5 19.5.2zm-109-.9c0-1-3.4-2-6.3-2-2.8-.1-2 1.7 1 2.2 5 .7 5.3.7 5.3-.2zm4-2V240l-1 1.5c-1.3 2-1.3 3.3 0 2.5.5-.3 1-1.4 1-2.3zm56.5-.1c-.4-.6-1.2-1-1.8-1H223l1.5 1 1.8 1c.2 0 0-.5-.3-1zm79.2-1.7c.2-.6-.5-1.3-1.6-1.6-2-.5-4.1 1-4.1 3v1.1l2.7-.7c1.4-.4 2.8-1.2 3-1.8zm21.3 2.3c0-.3-.5-.8-1-1.1s-1-.1-1 .4.4 1.1 1 1.1 1-.2 1-.4zm94.6-.3a1 1 0 0 0-1.3 0c-.4.4 0 .7.7.7s1-.3.6-.7zM179 240.5l2-.9h-2.7c-1.5 0-3 .3-3.3.9-.8 1.2 1.2 1.2 4 0zm137.5-.5c0-.8-.7-1.5-1.5-1.5s-1.5.7-1.5 1.5.6 1.5 1.5 1.5 1.5-.7 1.5-1.5zm5.5.5c-.4-.6-1-1-1.6-1s-1 .4-1 1 .8 1 1.6 1h1.6zm-10.5-1c0-.6-.7-1-1.5-1s-1.5.4-1.5 1 .6 1 1.5 1 1.5-.5 1.5-1zm-136.5-2c.3-.5-.9-.8-2.5-.8l-3 .1v2.4l2.5-.5c1.4-.2 2.7-.8 3-1.3zm-6.6-1.5c3-.8 5.8-1.8 6.3-2.3l.8-.9h-6c-3.3 0-6 .4-6 .9 0 .4-1.6.8-3.5.8h-3.5v3h3.2a44 44 0 0 0 8.7-1.5zm42.7-1.8c-.2-.6-.5 0-.5 1.3s.3 2 .5 1.2.3-1.8 0-2.5zm25.8 2.4c.3-.5.1-1.2-.4-1.6l-1-.6v1.5c0 1.8.6 2 1.4.7zm54-4.1 2-.9h-2.7c-1.5 0-2.7.3-2.7.9 0 1.2.7 1.2 3.5 0zm-130.7-1.6c-.3-.3-1.2-.4-2 0l-1.2.4 1.9.1c1 0 1.6-.2 1.3-.5zm6.8-2.6 1-.9-1.5-1c-2-1.2-7.7-1.2-8.5.1l-.6 1h1.5c1 0 1.9.7 2.2 1.5l.6 1.6 2.1-.7a8 8 0 0 0 3.2-1.6zm7.7.5c-.7-.2-1.8-.2-2.5 0s-.1.5 1.3.5 2-.2 1.2-.5zm1.4-4c-.3-.3-.6 0-.6.7s.3 1 .6.7c.4-.4.4-1 0-1.4zm67.9-.3c.3-.6.4-1 0-1s-.7.4-1 1-.4 1-.1 1 .7-.5 1-1zm-76.5-3.5a12 12 0 0 1 4.7-1.5c1.2 0 2.5-.5 2.9-1.2l.7-1.1-4.5.6a41 41 0 0 0-7.2 1.7l-2.7 1 .6 1c.3.5 1.1 1 1.8 1 .6 0 2.3-.7 3.7-1.5zm67 .5c0-.6-.7-1-1.6-1h-1.5l.6 1c.3.5 1 1 1.5 1s1-.5 1-1zm-21.6-6.3c.7-6.1.1-9.7-1.4-9.7-.5 0-.8 1.7-.8 3.7 0 2.1-.3 5.7-.7 8l-.8 4.3h3zm65.6-.7v-1h-4.3a68 68 0 0 1-11.7-2c-4-1.1-7.8-2-8.2-2-.5 0-.8.7-.8 1.5s.5 1.5 1.2 1.5l9.8 1.4c4.6.8 9.7 1.4 11.2 1.5 1.5 0 2.8-.4 2.8-.9zm-34.4-.7a1 1 0 0 0-1.3 0c-.4.4 0 .7.7.7s1-.3.6-.7zm-68.1-1.3 2-.9h-1.5c-.9 0-2.2.4-3 .9-1.9 1.2-.3 1.2 2.5 0zm78.5-14c0-.5-.7-.7-1.5-.4-.9.4-1.5.8-1.5 1 0 .2.6.4 1.5.4s1.5-.4 1.5-1zm-7-3.4c0-.3-.5-.8-1-1.1s-1-.1-1 .4.4 1.1 1 1.1 1-.2 1-.4zm-24.3-42.8-.6-1.3v2c0 1 .1 1.6.5 1.2.3-.3.3-1.2 0-1.9zM733 315.7c-.6-.4-1.4-2-1.8-3.5l-.7-2.8-5-1.9 1-1.9a6 6 0 0 1 2.5-2.4c.8-.3 2.3.2 3.4 1.1 1 1 2.4 3.6 3 6 1.6 5.3.6 7.4-2.4 5.4zm7.2.1c-1-1-.7-4.1.6-4.6.7-.2 2 0 3 .5l1.8.9-1 2c-1.1 1.9-3.1 2.5-4.4 1.2zm-88-3.8a9.9 9.9 0 0 0-5-2.5c-1.1 0-3.2-.3-4.4-.6l-2.3-.7.3-1.6c.2-.9.8-1.5 1.3-1.5l5.2.8 4.3.6v-2c0-2.2 2.6-3.8 4-2.4.4.5 1 3.3 1.1 6.3l.4 5.4-1 .3c-.6.2-2.3-.8-3.8-2.1zm65.7 1c-.7-2 1.4-4.5 3.2-3.8 2 .7 1.9 4-.1 4.7l-2 .6c-.2 0-.8-.7-1-1.5zm-28.1-1.7a4.3 4.3 0 0 1-1.2-2.6v-1.3l4.5.6.6 4.5h-1.4a4 4 0 0 1-2.5-1.2zm377.8-1v-2l1.5 1.2c1.5 1.2 1.1 3-.6 3-.5 0-1-1-1-2.1zm-14.4.5c-1-1-.7-4.8.6-6.1.6-.7 1.5-1.2 2-1.2 1 0 1 4.1.2 6.4-.7 1.7-1.7 2-2.8 1zm-59-2c-.4-.9-.2-2.1.3-2.7l1-1 1.7 1.6c1.7 1.7 1.1 3.8-1 3.8-.8 0-1.7-.8-2-1.7zm-159.4-.5a5.7 5.7 0 0 1-1.2-3.5v-2.3h1.4c.8 0 2 1 2.6 2 1.2 2.2.7 5-.8 5-.5 0-1.4-.5-2-1.2zm12.3-1.5-.6-1.7 1.5-1.5c.8-.8 1.8-1.2 2.2-.8.8.8-.4 5.7-1.5 5.7-.5 0-1.2-.8-1.6-1.7zm127.5-.8v-2.5h3v5h-3zm6.4 1.2c-.3-.9-.4-2.6-.3-3.9l.4-2.3h3l.3 2.6.3 2.6-3.1 2.5zm64.6-.7v-2h1.4c1.5 0 2.8 2.4 1.8 3.4-.3.3-1.2.6-1.9.6h-1.3zm-812.3-.8c-.5-.7-.8-1.5-.5-1.7.7-.7 18.4-2 25.6-1.9l6.4.1 3.1 3.2-1.4.5c-.8.3-8.3.6-16.8.8l-15.3.3zm475.8-.1c-.3-.5-.1-1.2.5-1.6 1.1-.7 3 .2 3 1.6 0 1.2-2.7 1.2-3.5 0zm191.2-3.2-3.5-6.3c-1.3-2.3-1.7-7-.5-6.4l3.5 1.7 2.8 1.4.6 2.6c.4 1.4 1.5 4.2 2.5 6.2s1.5 4 1.2 4.3-1.5.6-2.5.6h-1.8zm174.3 1.6c-.7-.8-1-2.2-.6-3l.6-1.6 4.5.6.3 1.7.3 1.7-4 2zm-410-1.2c0-1 .5-2.6 1.2-3.5s2.7-2 4.5-2.3l3.3-.7v3c0 1.7-.4 3.3-.8 3.5-.4.3-2.4.8-4.5 1.2l-3.7.7zm52.3 0-2.3-1.8 1.5-2.3 6.5 2.7v3h-1.8c-1 0-2.7-.7-4-1.7zm-73-.8c-.6-1.8.2-4.5 1.5-4.5a7 7 0 0 1 2.6 1.4l1.9 1.3-.6 1.7c-.8 2-4.6 2.1-5.4 0zm36-1c-.3-1-.1-2.1.5-2.7 1.5-1.6 4.2-.2 4.2 2.2v2h-2c-1.2 0-2.4-.7-2.7-1.6zm56.7-1v-2.5h4.1l-.6 4.5-3.5.6zm258.4 1.1c-.3-.8-.3-2 0-2.6.4-.5 1.6-1 2.7-1h2l-.3 2.2-.3 2.3-3.5.6zm-33.4-1.6c0-.6.7-1 1.5-1s1.5.4 1.5 1-.7 1-1.5 1-1.5-.5-1.5-1zm44.5 0c-.3-.4-.8-2.8-1.1-5.3l-.7-4.4 2.4-1.7a9 9 0 0 1 3.6-1.6h1.3v5.3l2.3-2.1c2.4-2.3 5.7-3 5.7-1.1 0 .5-.5 2-1.2 3.2l-1.1 2.2 4.8-4.3 8.4-2.1c4.6-1.2 9-2.1 9.7-2.1h1.4v2c0 1-.7 2.3-1.4 2.7a50 50 0 0 0-5.5 4.5c-2.2 2.1-4.7 3.8-5.6 3.8h-1.5l-.8-3.1-.8-3-2.4 2-2.5 2 1.2 1.2c.7.7 1.3 1.7 1.3 2s-.9.9-1.9.9c-2 0-5.1-3-5.1-4.8 0-2-2.1-1.3-5 1.8-1.6 1.6-3.3 3-3.9 3s-1.3-.4-1.6-1zm-346.9-.7c-1-1-.7-5.1.5-5.9.6-.3 1.7 0 2.6.9l1.5 1.5-1.2 2c-1.1 2.2-2.2 2.7-3.4 1.5zm384.6-.7c-2.3-.5-4.2-1.5-4.2-2a34 34 0 0 1 11.5-10.6c.8 0 1.8.7 2.1 1.5l.6 1.4-2.1 2.7c-1.2 1.5-2.1 3.7-2.1 5s-.4 2.4-.8 2.6c-.4.2-2.6 0-5-.6zm-393.7-2.5c-.3-1-.3-3 0-4.4l.6-2.4-3-1.2.5-1.6c.3-.8 1.2-1.5 2-1.5 1.2 0 1.8 1.2 1.5 3.2 0 .5.7 1.6 1.8 2.7l1.8 1.9-1 5.2h-3.6zm80.5-.5c0-.8-1.1-1.7-2.5-2-1.4-.4-2.5-1.3-2.5-2 0-1.9 3-3.6 6.3-3.6h2.5l.5 1.5c.4.8.4 2.9 0 4.5l-.6 3h-1.8c-1 0-2-.6-2-1.4zm336.4 0-.7-1.7 1.1-1.2c.7-.6 1.2-1.5 1.2-1.9 0-1.7-3.1-.7-6.4 2.2-3.5 3-6 3.8-7.1 2-.4-.6.5-2.4 2-4.1s2.5-3.5 2.5-4 1-.9 2-.9c1.2 0 3-.5 4-1l2-1V281c0-1.3.5-2.5 1.2-2.8 1.7-.5 10 2.3 11.3 3.9.5.7 2.1 1.4 3.5 1.6l2.5.3v3.7l-7 2.3.2 2.8.2 2.7h-2.9c-1.5 0-4.2.3-5.9.6l-3 .6-.7-1.7zm7.1-9.5c-.4-1.2-1-2.1-1.6-2.1-1 0-1.2 2-.3 4.5l.6 1.6 1-1c.5-.5.7-1.8.3-3zm-371.7 9.2c.7-.3 1.6-.2 2 0 .2.4-.4.7-1.4.6h-2zm-28.7-1.2-1.3-.8.7-4.8h3l.3 2.4c.2 1.3 0 2.7-.5 3.2l-.8.8-1.4-.8zm4.9-.1c0-.6.5-1 1-1s.8.4.5 1-.8 1-1 1-.5-.5-.5-1zm3.2-2a9 9 0 0 1-1.2-4v-2h1.4c1.8 0 4.6 3.8 4.6 6.2v1.8h-1.8c-1 0-2.3-.9-3-2zm33.4-.5-.7-2.5H713c-.8 0-2-1.1-2.6-2.4-1.2-2.7-.6-5.6 1.2-5.6.5 0 1.5 1.1 2.2 2.5l1.1 2.5 4.8 1.2-.3 3.2-.3 3-3.3.7zm-14.6-1.8c0-1.7 2-3.7 3.7-3.7h1.3v5h-5zm-45-2.2c-1-2.6-.4-5.5 1.1-5.5.5 0 1.4 1.1 1.9 2.5 1 2.6.4 5.5-1.2 5.5-.5 0-1.3-1.1-1.8-2.5zm7-.4c-.7-1.7-1-3.5-.6-4 .4-.6 1.6-1.1 2.8-1.1a5 5 0 0 0 3.4-1.8l1.3-1.7 1.8 1.2a23 23 0 0 0 4.1 2.3l2.3 1-.8 2.5-2.4-.4-4.4-.5-2-.1-.7 5.5h-3.6zm28-.6v-3.6l4.5.6v6l-4.5.6zm30.7-1.7c-.7-2.1.3-3.8 2.4-3.8h2l-.3 2.2c-.4 2.5-3.3 3.6-4 1.6zm12.3-.3-1.2-1.5 1.5-.6c2-.7 3.7.3 3.7 2.2 0 1.8-2.4 1.8-4 0zm107.3 0c-.3-.9-.1-2.1.5-2.7s1.8-.8 2.7-.4l1.6.6-.3 1.7c-.2 1-1.1 2-2 2.1l-1.8.3zm-155.8-.5c-1-1.4 1.7-5 3.7-5 1 0 1.8.2 1.8.4l-1 3c-1 2.6-3.4 3.4-4.5 1.6zm15.5-1.5v-2.6l4.5.6v4l-4.5.6zm-102.6-.6c-.9-1.5.2-2.3 2-1.5 1 .3 1.4 1 1 1.6-.7 1.3-2.1 1.3-3 0zm46.3-2.3c-.9-1.9-1.3-3.7-1-4 .3-.3 1.4-.6 2.3-.6h1.7l.6 3c1 4.4.9 4.5-.6 4.8l-1.3.3zm-7.4.8c-.3-.8 0-2 .5-2.7l1.2-1.1 1.1 1.1c1.3 1.3.5 4.3-1.1 4.3-.6 0-1.4-.7-1.7-1.6zm-12.6 0c-1-.3-1.7-1.4-1.7-2.3v-1.8l3.6-.6c2-.4 4-.4 4.5-.1 1.7 1 .8 3.5-1.7 4.4-1.4.6-2.6 1-2.7.9l-2-.6zm-565.4-3c-1.2-.9-2-2.1-1.8-2.7l.5-1.2 94 .2 2.3 2.2-1.4.6c-.8.2-19.7.7-42 .9-22.2.2-42.5.6-45 .9l-4.4.5-2.2-1.5zm597.4.3c-.8-2 .8-4 2.9-3.5l1.9.3.6 4.5h-2.5c-1.3 0-2.6-.6-3-1.3zm178.3-1.6c-.6-1.1-1-2.9-1-4v-2.1h1.5c1.7 0 4.8 5.6 4 7-1 1.6-3.4 1.1-4.5-1zm-162.6-.2c-.7-1.2 1.2-2.9 3.2-2.9 1.3 0 2.5 2.5 1.6 3.4-1 1-4 .7-4.8-.5zm276 0c-.9-1.4 1.5-3.9 3.2-3.2.7.3 1.4 1.4 1.4 2.4v1.9h-2c-1 0-2.2-.5-2.5-1zm115.5-1-1-2 1.5-2.2c2.9-4.2 5-6.5 7.4-7.6l2.3-1.2-.6-1.8c-.8-2.6.4-5.1 2.5-5.1h1.8l.6 2.7c.4 1.6 1.7 3.8 2.8 5l2.2 2.3-3.3 3c-1.8 1.7-3.8 3-4.5 3-.7 0-1.8-.6-2.5-1.3l-1.3-1.2-1.9 2.4c-1 1.3-2 3.2-2 4.2v1.9h-1.4c-.8 0-2-1-2.6-2zm-36.5-1c-.4-.6 0-1.8.9-2.6l1.5-1.6 1.6.6 1.7.7-1.1 2c-1.2 2.2-3.5 2.6-4.6.9zm-532-2.3-.7-1.7 2.2-2.2 1.3 3.4-2.2 2.2zm199 0c-.7-1.7.2-3.6 1.6-3.6 1.3 0 1.2 3.7 0 4.5-.6.3-1.3 0-1.6-.9zm-57-.7c-.4-.6 0-1.8 1-2.7l1.6-1.6 1.1 1.1c.6.6.9 1.9.5 2.7-.7 1.8-3.2 2.1-4.2.5zm35-1.4c-.4-.8-.3-1.9 0-2.5 1-1.5 3.1-1.2 4.6.6l1.3 1.5-1.4 1c-2.1 1.3-4 1-4.5-.6zm-182.2-2c.4-2.2 2.2-2.4 2.6-.3l.3 1.8h-3.3zm271.4-2.2c-.3-.3-.6-1.6-.6-2.8v-2.3l4.3-2.8-1.2-2.1c-.6-1.2-1.1-3.8-1.1-5.7v-3.6h3v1.7c0 1 .9 3 2 4.3l2 2.5v7.1l-2.3 2.2c-2.3 2.2-4.8 2.8-6 1.5zm-394-3.1c-.3-.4-.1-1.4.3-2.1l.9-1.4 3.1 1.2-.5 1.6c-.7 1.6-3 2-3.8.7zm469-1.1-1.7-1.9.6-10.7 3.6-.7-.2 3.9c-.1 2 0 5.2.5 7l.7 3.1-1 .6c-.4.3-1.6-.3-2.5-1.3zm-232.8-7.1-1-3-1.2.8c-1.8 1.5-8.6 2.2-11.2 1.2-1.4-.6-2.7-1.7-3-2.6l-.7-1.5 2-1.4c1.1-.8 2.8-3.3 3.6-5.5 1-2.2 2-4 2.6-4 .5 0 1.3.5 1.6 1l.7 1.2 4.8-1.2v2.4c0 1.4.4 2.8 1 3l1 .7.2-1.8.2-5.3V234l7.6.2 1.8 1.7c1 .9 2 1.6 2.3 1.6.3 0 1.1-1.8 1.8-4l1.2-4 8.2.3 1.8 1.9c1 1 2.2 1.8 2.6 1.8s1.4-1.3 2-3l1.4-2.8 2.5-.6c1.4-.4 3.4-.4 4.5 0l1.9.5 6-4.3 2.4.6c1.2.3 2.6.3 3 0 1-1.2-1.4-3.2-3.2-2.8-2.2.5-4.7-1-3.8-2.5.4-.6 1.5-1.1 2.5-1.1h1.8l1.2-6h6l1.2-2.2c1.4-2.6 2.7-11.8 3.8-26.8l.9-11.5 2.4-6.7c1.3-3.7 2.8-7.2 3.3-7.7l1-1 3 1.8v7.8c.1 4.3.7 9.3 1.4 11l1.3 3.4-1.7 1.9c-1.8 2-1.3 4 .8 4h1.3v3.2c0 1.8.6 7.3 1.3 12.2l1.3 8.8 3.8 1v1.9c0 1 .5 2 1 2.4.7.4 1.7.2 2.3-.4.6-.6 3.2-1.1 5.9-1.1s5.6-.5 6.6-1.1l1.8-1.2 3.1 1.7a14 14 0 0 1 4.8 4.4l1.7 2.8 11-2.8 1 1c.6.6.8 1.8.4 2.7l-.6 1.7-12-.7.5 1.3.5 1.8c0 .2 3.8.4 8.4.4h8.5l.6 1c.3.5 2 1 3.5 1h3l4.3 4.3 1.8-1.2c1-.6 2-1.1 2.4-1.1.3 0 1 1.2 1.5 2.6l1 2.6 2.2-.5c1.1-.3 3-.2 4 .4l1.8 1v4.9H754c-.8 0-1.5-.5-1.5-1s-1-1-2-1-2 .4-2 1c0 .4.9 1.1 2 1.5l2 .6v3.9H751c-.8 0-2.8-.7-4.4-1.5l-2.9-1.5-.3-2.2c-.2-1.2-1-2.4-1.7-2.6l-1.4-.5.6 3 .6 3-2 1.8c-1 1-2 2.9-2 4.2s-.6 2.6-1.3 2.9c-.8.3-2.5-.1-3.8-1-1.3-.8-4.8-1.6-7.8-1.8l-5.5-.4-2.4-4.7-.3 3.4-.3 3.4h-28.5v-3.5h2c1.1 0 2.3-.7 2.6-1.5.7-1.7 4-2 4.9-.5 1 1.5 2.5 1.2 2.5-.5v-1.5l-3.8-.1-4.7.1c-.6.1-2.4.2-4.2.1h-3.1l-2.5 2.9 1.3 1.5c.6.8 1 2 .7 2.7l-.5 1.3h-17.7l-.6-3.7c-.3-2-.3-4.2 0-4.8.5-.6 3.3-1.4 6.4-1.7l5.6-.6-1-1.8c-.5-1-1.9-1.9-3-1.9s-2.3.8-2.8 1.7l-1 1.8-3.7-3.5-10.7 1.3 2.2 1.2c2.5 1.3 6 6.3 6 8.5v1.5h-11.4l-4.4 3.9h-15.1v-1.3c0-.8.7-2 1.6-2.6l1.6-1.2-3.7-2.1c-2-1.2-4-2.2-4.6-2.2s-1 .9-1 1.9v2l2-.6c1-.3 2.1 0 2.5.6.4.5-.3 2-1.4 3l-2 2-3.2-1.2.5-1.8.5-1.9h-3.8v4.1l-3.5-.6-.3-3.3-.4-3.3-1.3 1.1c-.8.6-2.4 1-3.7.8l-2.3-.3-1.1-6-2.3 4 1 1.8 1 1.7h6.7l.5 1.4c.3.8.3 1.7 0 2-.4.3-1.4.6-2.4.6h-1.7l-1 4h-5.3zm41.8-3.7a1 1 0 0 0-1.3 0c-.4.4 0 .7.7.7s1-.3.6-.7zm-45-1.8c.8-.8 1-1.5.5-1.5s-1.3-1-1.6-2-1-1.8-1.6-1.5c-1 .7-1.3 4.8-.3 5.8.4.4.9.7 1.1.7.2 0 1-.7 2-1.5zm112-12.2c-1.7-1.7-6.1-2-8-.4l-1.7 1.4-1.7-1.5c-2-1.7-5.2-1.3-5.2.8v1.4h-2.2a5 5 0 0 1-3.4-1.7l-1.2-1.8-5.3 2.9-2.5-3a18 18 0 0 1-3-5.2c-.4-1.2-.2-2.8.3-3.5.6-.6 1.3-3 1.6-5l.6-3.9-1.3 1.1-1.4 1.1-1-1.2c-.6-.7-1.4-4.4-1.8-8.2-.4-3.9-1-8.1-1.4-9.5l-.8-2.6-.7 3.8c-.4 2-.4 5.2 0 7 .4 1.7.8 7 .8 11.7l.2 8.5-5.5.6v3.5c0 1.8.4 3.4 1 3.4s1-.7 1-1.5c0-.9.6-1.8 1.4-2.1l1.5-.6 7 5.7v4.6l4.4-3 2.7 2.2 9.5-.6c5.2-.3 9.5-.2 9.5.2s-.5 1.2-1.2 1.8c-1.6 1.7-.2 4.3 2.4 4.3 1.2 0 3 .5 3.8 1l1.5 1 .6-5.8.6-5.7-1.1-1.2zm-38 10.7c.7 0 1.4-.5 1.4-1s-1.4-1-3-1h-3v3.2l1.6-.6c.8-.3 2.2-.6 3-.6zm-18.6-1c0-.6-.7-1-1.5-1s-1.5.4-1.5 1 .7 1 1.5 1 1.5-.5 1.5-1zm67.8-1.7-.3-1.7 3.5-.8v2.1c0 1.2.3 2 .7 2s1.7-.9 2.9-2l2.2-2.1-2.3-3.8 2.4-2.3 3.2 2.6 1-1c.6-.6.8-1.6.5-2.1-.8-1.3-12.8-2.6-16.1-1.8-1.4.3-2.5 1-2.5 1.6s1.7 1 3.7 1.2c2 .2 3.8.7 3.8 1.3s-1.5 1.1-3.3 1.3-3.2.7-3.2 1.2.4 2 1 3.4c1 2.9 3.2 3.6 2.8.9zm-101.8-3.5c0-.4-.6-.8-1.4-.8-.8 0-1.7.7-2 1.6-1.2 3-.6 3.7 1.4 1.9 1-1 2-2.2 2-2.7zm25 1.7c0-1.4-.3-2.5-.6-2.5s-1.4.5-2.5 1-2 1.7-2 2.5v1.5h5zm-13-1.6c0-1-.4-1.9-1-1.9-1 0-2.2 3-1.5 4.1 1 1.4 2.5 0 2.5-2.2zm-25.4-1.6c-.3-.3-.6 0-.6.7s.3 1 .6.7c.4-.4.4-1 0-1.4zm18.4-1.3v-3h-3v2.3c0 1.3.3 2.7.6 3 1.5 1.5 2.4.6 2.4-2.3zm23.6 1.3a1 1 0 0 0-1.3 0c-.4.4 0 .7.7.7s1-.3.6-.7zm-5.2-3c2-.7 2-2.9.2-3.6-1.6-.6-3.6 1-3.6 3 0 1.4 1 1.6 3.4.7zm11-1.9c.3-.8.1-2.4-.5-3.5l-1-2-2 1a8 8 0 0 0-2.5 2.1c-.8 1.5 1.4 4 3.6 4 1 0 2-.7 2.4-1.6zm59-2.3c.4-.5.2-1.2-.4-1.6l-1-.6v1.5c0 1.8.6 2 1.4.7zm-26.6-2 .4-1.4-1.3.5c-.7.2-1.5 1-1.7 1.7l-.5 1.3 1.3-.4c.8-.2 1.6-1 1.8-1.7zm-23.8-.7v-1.5l-1 .6c-.6.4-.8 1-.5 1.6.9 1.4 1.5 1 1.5-.7zm44.4-2.2c-1-3.7-2.4-6.5-4.3-8-2-1.4-9.8-1.6-10.6-.2l-.7 1 6 2.1 1.2 2.9c.6 1.6.9 3.4.5 4l-.6 1h9.1zm-47.4-6.8v-1.5l-1 .6c-.6.4-.8 1-.5 1.6.9 1.4 1.5 1 1.5-.7zm96 35.6c0-.7.3-1 .6-.7.4.4.4 1 0 1.4-.3.3-.6 0-.6-.7zm169 .1c0-.4.7-2.2 1.6-4 1.6-3.2 4.4-4.2 4.4-1.6 0 2.3-3 6.5-4.6 6.5-.8 0-1.4-.4-1.4-.9zM57 253.5l-.7-1-28 .8.4-2.1.3-2.1 18.3-.2c17.2-.2 22.3-.8 17.5-2a4 4 0 0 1-2.7-2.6l-.5-2-1.8.8c-2 .8-26.7.7-29.6-.2l-1.7-.5v-4.1l2.2.7c3.5 1 15 1.3 17.5.4l2.2-.8 1.9 3.3 9.7-2.5 6.8 3.4 9.2-5-.7-4.3h3l.7-5.5 3.7-.7-.4 5.6c-.5 5.7.5 7.6 1.6 3.1l.6-2.5H88c.8 0 1.5.7 1.5 1.6v1.6l1.5-.6c.8-.3 1.5-.1 1.5.4 0 .6.8 1 1.8 1h2v-2.6c0-1.4.7-3.3 1.5-4.2l1.7-1.6 1 1c.6.6 1.4 3 1.8 5.5l.7 4.4 5.5.6v2c0 1 .4 1.9.9 1.9s1.2-.8 1.5-1.8l.7-1.7 1 1.7c.5 1 1.5 1.8 2 1.8h1.1l-.5-2-.6-2 3.9-2.5v-6.6l4.5.6.3 2.7c.2 1.6.7 2.8 1.2 2.8.4 0 1 1 1.2 2.2l.3 2.3h2.2c1.2 0 2.5.4 2.9.8s1.4.7 2.2.7c.8 0 2.3.7 3.3 1.7l1.9 1.6v-5.3h4.1l-.6 3c-.4 1.6-.3 3 .2 3s1.4-1 2-2 1.8-1.8 2.3-1.5 1 2.1 1 4v3.3l-6.3 3.2-13.2-2.1-4.5.6c-5.2.8-52.7.6-58.2-.2l-3.6-.5-4.1 2.2-.6-1zm57-3 .6-1H113c-.8 0-1.5.4-1.5 1s.4 1 1 1 1.1-.5 1.5-1zm-16.5-.9c0-1-2.4-2.1-4.6-2.1-.8 0-1.4.7-1.4 1.5v1.5h3c1.6 0 3-.4 3-.9zm-27.4-2.8c-.3-.3-.6 0-.6.7s.3 1 .6.7c.4-.4.4-1 0-1.4zm49-2c-.3-.3-.6 0-.6.7s.3 1 .6.7c.4-.4.4-1 0-1.4zm253.3 8.7c-4.7-.4-9.2-1-9.8-1.5l-1.3-.7.8-.7c.5-.4 10-.5 21.2-.3l20.3.4-.3 1.4-.3 1.4-11 .3c-6 .2-14.9 0-19.6-.3zm46.8-.4c-.3-.8-.3-1.7 0-2 .3-.3 1.5-.6 2.5-.6h2l-.4 1.7c-.4 2.2-3.4 2.9-4.1 1zm-91.9-.6c-8.6-.3-16-.8-16.4-1.3s-.5-1 0-1.4c1-1 33.8-.4 34.9.6 1.1 1.1 0 3.2-1.6 2.9-.7-.1-8.3-.5-16.9-.8zm154.7-.9a8.7 8.7 0 0 1-3.6-4.2l-.7-2.4-.1 2.3c0 1.2-.8 2.5-1.7 2.9s-2.6 0-3.8-.6c-1.2-.7-3.7-2.6-5.5-4.3l-3.2-3 .3-2.2.3-2.1 3-.2 3.5-.2 6.3-.6 5.7-.3-.1 3.6c-.2 2 0 5.2.5 7l.7 3.2 3.4-.5v1.4c0 .8-.5 1.5-1 1.7s-2.4-.5-4-1.5zm-7.8-8.3-.6-1.3v2c0 1 .1 1.6.5 1.2s.3-1.2 0-1.9zM771 252c-1.6-1.6-2.1-5.4-.8-5.4 1.7 0 3.2 1.7 3.8 4.3l.7 2.7h-1c-.6 0-1.8-.7-2.7-1.6zm-334-2.1c-3.9-.2-7.7-.6-8.4-.9l-1.5-.5 1.9-1.8 17.3-.2c9.5 0 17.6.1 18 .5 1.4 1.5-2 2.4-10.8 2.8-5.2.2-12.7.3-16.5 0zm303.7 0a2.2 2.2 0 0 1-1.2-1.9v-1.4h1.9c1 0 2.1.6 2.4 1.4.5 1.4-.1 2.7-1.2 2.5-.4 0-1.2-.3-1.9-.6zm14.1-3.6.2-4.2h1.4c.7 0 1.8.7 2.4 1.6l1 1.6-.7 2.6-.7 2.7h-3.7zm80-8.1c-.2-.8-.3-3-.1-4.8l.3-3.3 4.3.6 1.4-4.2 3.3.6.3 2.5c.2 1.4 1 3 1.8 3.7s1.4 2 1.2 3l-.3 1.8h-5l-1.2-3.5-1.2-3.5-.7 4.2-.7 4.3H837c-.8 0-1.6-.6-2-1.4zm-410.7-4.3c-.5-.6-2.6-1-6.4-1.2-.7 0-1.2-1-1.2-2v-2l5.9.4c3.3.1 6.4.6 7 1l1 .6-1 2c-1 1.9-4 2.6-5.3 1.2zm152.4-2.7c0-.9.1-1.6.2-1.6l5.7-2c3-1 5.8-1.7 6.2-1.4.5.3 2.3-.2 4-1 1.8-.9 4-1.6 5-1.6s2 .5 2.5 1.1l.7 1.2-2 1.3a48 48 0 0 0-3 2.3c-.5.5-3.2 1.1-6 1.4l-9 1.3-4.3.6zm-179-.3c-1.8-.3-7.7-1.6-13-3l-9.5-2.4-20-1.1-8.5 1.1c-4.7.6-11 1.6-14 2.2s-7.5 1.2-10 1.5c-7 .7-15.8.7-17 0-.5-.4-1-1.4-1-2.3v-1.6l16.5 1.3 4.5-1.6c2.4-.9 5.8-1.8 7.5-2l11-1.6a126.8 126.8 0 0 1 33.3 0c4.6.7 10.9 2.1 14 3.3s8.8 2.2 12.6 2.5 7.1.6 7.4.8c.2.3.2 1.2-.2 2l-.6 1.6-4.7-.2c-2.7 0-6.4-.3-8.2-.5zm43-1.2v-2.1l1.7-.1h2.5c.4 0 2-.4 3.5-1s3.7-.8 5-.4 2.3 1.2 2.3 2c0 .7-.4 1.6-.8 1.8-.4.3-3.8.8-7.5 1.2l-6.7.7v-2zm407.6.4c-.7-1.8 1.2-3 2.6-1.7 1 1 .3 3.2-1.2 3.2-.4 0-1-.7-1.4-1.5zM496 226.4l-5-1.8-12.5.8-1-1.3-1-1.3 1.5-1.6c.9-.9 2-1.6 2.6-1.6l8.2 1.2 7.2 1.1 1.6 2.8 4-1.3 2.5 1.7c1.3.9 2.2 2 1.9 2.5-.4.6-1.6 1-2.8.9a39 39 0 0 1-7.2-2zm-356.6-.2c-.2-.2-4.2-1-9-1.6a505.3 505.3 0 0 1-48.5-9.1c-.7-.5-4-1.5-7.3-2l-6.2-1.1-2.7 2.3-.6-1-.6-.8-4 1c-2.2.6-4.3.8-4.7.3s-.3-1.5.3-2.4l1-1.7 6.4-.6v2l3.7-1.1a28.4 28.4 0 0 1 17.2 1.8l3.3 1.7 8.5.8c4.6.5 9 1.2 9.5 1.5s3.5 1 6.6 1.4c16 2.3 26 4 28.6 5l2.7 1-.4 1.3c-.4 1.2-3 2.1-3.8 1.3zm471-3.3v-2l3.6-1.6c2-1 4.1-1.7 4.8-1.7.7 0 3.3-1 5.7-2.1l4.4-2.1 7.4 1.8c6.8 1.7 9.5 3.5 7.8 5.1-.3.4-3.5.1-7.1-.6l-6.5-1.1-4.2 1.9a53 53 0 0 1-13 3.8l-2.8.5zm229.1-3.7c-1.3-4.7-.7-8.6 1.4-8.6h1.4l.4-3.2.5-3.1-1.7-1.6c-2.3-2.4-6-9.8-6-12 0-1.1.4-2.2.9-2.6 1.3-.8 4 2.3 4 4.5 0 1 1.4 3.2 3 5l3 3.2v9.7l-1.3.8c-.7.4-1.5 1.8-1.8 3l-.6 2.2 1.5 2c.8 1.2 1.2 2.8.9 3.6-.3.8-1.4 1.5-2.5 1.5h-1.9zm-111 0c-1.4-1.7-.6-3.6 1.5-3.6h1.5v2c0 1-.4 2.1-.9 2.4-.5.3-1.4 0-2-.9zm12.2-3.8a4.4 4.4 0 0 1-1.2-2.5v-1.3l3.5-.2 5.2-.2 1.8-.1v5l-8 .6-1.3-1.3zm-700.2-1.8c-3-.4-8.6-.5-12.4-.3-3.8.3-8.4.2-10.3-.2l-3.3-.6v-3l28.5.3 2.7 1.2c1.5.6 2.8 1.6 2.8 2.3s-.6 1.2-1.3 1.2l-6.7-.9zm809.2-7.8.3-8.7h4v2.5c0 1.4.4 3.5.8 4.7l.8 2.2-2.4 8h-3.8l.3-8.7zm103-2.6c.1-2.5 0-4.6-.4-4.6s-1.2.9-1.8 2-1.9 2-2.8 2c-2.5 0-6.2-2.8-6.2-4.8 0-.9-1.2-2.8-2.5-4.2l-2.5-2.6 1-5.4c.5-2.9 1-6.1 1-7.1s-.6-1.9-1.3-1.9-1.7 1-2.2 2.1-1.5 2.1-2 2c-2.3-.1-1.4-4.5 2.2-11.3l3.8-7.3v-31.4l2.6-2.6 1.4 2 1.5 1.9-.6 1.9-.6 1.8 1.7 2 1.7 1.8-.6 1.7-.7 1.6 1.8 1.3 1.7 1.3-1.4 4.4c-.7 2.3-1.4 7.4-1.5 11.2v7l-1.3.3c-2.2.8-1.3 2.3 1.3 2.3 1.4 0 2.5.5 2.5 1 0 .6-.7 2.6-1.5 4.5l-1.4 3.5h6.7l.6 1.7c.3 1 .2 3.1-.3 4.8l-.8 3-4.1.6-.6 2.2a20 20 0 0 0-.6 4.2v2l1.5-2.3c1.6-2.2 4.5-3 4.5-1.2 0 .5 1.1 2 2.6 3.3l2.5 2.4-.6 6.8-2.4.3-2.3.4zM0 201.6c-.3-.5-.3-1.6 0-2.5l.7-1.6h12.4a47 47 0 0 0 9.5-1c2.4-.7 6.4-1.4 8.9-1.6 2.5-.2 9-1 14.5-1.8a437 437 0 0 1 10.7-1.6c.4 0 .8.8.8 1.8v1.8l-9.3 1.2A19290.2 19290.2 0 0 0 1 202.5c-.1 0-.5-.4-.8-1zm81-13.2c-.4-.6-.4-1.4.1-1.9.5-.4 2.3-1 4-1.3l3.3-.6 1.4 2.2-1.9 1.3c-2.2 1.7-6 1.8-7 .3zm757.4-4.2c-.5-1.2-1.7-3.3-2.5-4.7s-1.3-3.6-1.2-5l.3-2.5h4l1 10.8 2.5.9v-3c0-3.9 1.8-8 3.8-8.7.8-.3 2-.1 2.5.4l1 1-1.1 2.6a16 16 0 0 0-1.2 5.5v3H845c-1.3 0-2.7.4-3 1-1 1.6-2.5 1.1-3.6-1.3zm-736.7 0c-.6-.7-.8-1.8-.4-2.3s1.8-1.4 3.2-1.7c3-.6 8.8-2.6 11.2-3.8 1-.5 3.3-.9 5.3-.9s4.3-.4 5.3-1c3.5-1.8 24.8-9 28.7-9.6l4-.6 2.6 3-1.8 1c-2 1-21.2 8.4-28.3 10.9-2.5.8-5 1.9-5.5 2.4s-3.4 1-6.5 1c-3 0-7.3.6-9.5 1.4-2.2.8-4.7 1.5-5.6 1.5a4 4 0 0 1-2.7-1.3zm795-11-1.3-1.5.3-5.4.3-5.3h3l.3 5.2c.2 3-.1 6-.6 6.9l-.9 1.5-1.2-1.5zm-720.5-12.5-1.8-.4.3-2 .3-2 4.5-2.3a170 170 0 0 1 19.5-9l4-1.4 1.4 1.3c.7.8 1 1.9.6 2.5a33 33 0 0 1-7.3 4.3c-3.7 1.7-8 4-9.4 5-3.5 2.4-9.9 4.5-12.1 4zm662.5-13 .3-2.7h3l.6 5.5h-4.2zM214.9 139l-.5-1.4 6.5-8.1h5l-.6 4.5c-.3 2.5-.7 4.7-.9 5s-2.3.5-4.6.8l-4.3.5zm732.3-9.2c-1.6-1.6-.3-3.4 3.8-5.2a41 41 0 0 0 9-6.2l4.7-4.3-.4-1.7c-.3-.9 0-2.4.5-3.3l1-1.7 2.1.1c1.2.1 2.8.2 3.5.1.7 0 4.8-3.6 9-7.9s10.5-9.6 13.7-12 7-4.2 8.3-4.2c1.2 0 4-.9 6-2 17.4-8.9 23.8-12 24.8-12a65.4 65.4 0 0 1 26.6-10c2.1 0 4.6-.4 5.5-.9 1.8-.9 8.8-3.7 17.8-7.3l5-2 40-2 6.5-2.5c3.6-1.3 9-3.7 12-5.2s8.4-3.6 12-4.6 7.9-2.4 9.5-3c1.7-.8 5-1.8 7.3-2.4 2.3-.5 5.3-1.6 6.7-2.5l2.4-1.6h10l1 2c.6 1 .8 2.5.5 3.3-.7 1.8-7.6 5.7-10.2 5.7-1.2 0-2.4.4-2.7 1s-1.4 1-2.4 1-3.6.9-5.9 2c-2.3 1.1-4.8 2-5.7 2-1 0-2.5.5-3.6 1-1 .6-5.2 2-9.2 3s-12 3.6-17.7 5.6a173 173 0 0 1-19.4 5.3l-9 1.7-8.6-1.3-1.2 1.5-1.3 1.4-5.7-.5a34 34 0 0 0-7.7 0 4 4 0 0 0-2.4 2.3l-.5 1.8-4.4 1.2-6.8 2-8.5 2a44 44 0 0 0-7.8 2c-1 .6-3.3 1-5.2 1-2 0-5.3.8-7.3 1.9-2 1-6.2 2.6-9.2 3.6s-6.6 2.6-8 3.5c-5.9 4-16 8.7-21.3 9.9-3.2.7-7.3 2.2-9.1 3.4a30 30 0 0 0-6.7 7.5c-1.9 3-4.3 5.9-5.4 6.4-3.7 2-11.8 8.3-16 12.4a48.4 48.4 0 0 1-8.9 6.7c-4.6 2.6-9.5 3.5-11 2zm-93.4-7.6-1.1-1.3 3-3.2c1.6-1.8 3.4-3.2 4-3.2.5 0 1.2.7 1.5 1.6l.6 1.5-2.8 3a13 13 0 0 1-3.5 2.9c-.4 0-1.2-.6-1.7-1.3zm93-8.8.3-2.4 12.5-.6v4.1h-2.8a45 45 0 0 0-6.6.7l-3.8.6.3-2.4z"/>
</svg>
