<?xml version="1.0" encoding="utf-8"?>
<svg xmlns="http://www.w3.org/2000/svg" version="1.1" viewBox="0 0 1000 481">
	<title>Sketch of a country road going straight into the distance and winding over hills, with a small tree on the right hand side.</title>
	<path d="M709.9 477.8a16.7 16.7 0 0 0-5-4.8c-11.9-6.5-12-6.7-12-9 0-3 2.5-3.7 4.8-1.5a43.2 43.2 0 0 1 10.7 7.2c5.7 4.6 7 6.1 7 8.5 0 3.9-3 3.7-5.5-.4zm142.9-9c-3.7-1-7.4-4.4-6.5-5.8.8-1.4 13 3.3 13 5 0 1.9-2 2.1-6.5.9zm75.2-19c0-1.3.4-3 1-3.8.9-1.3 1.2-1.2 2.5.5 2 2.6 1.5 5-1.3 5.3-1.8.3-2.3-.1-2.2-2zm-8.9-3c-3-3.2-3.2-3.9-3.2-10.4 0-4.8-.5-7.6-1.5-9-1.4-1.8-1.5-1.1-1.3 7.3.3 10-.7 12.8-3.7 10.3-2-1.6-2-8 0-9.4 1.4-1 1.4-1.8-.2-7.9-1.4-5.3-2.2-6.7-3.7-6.7s-1.7-.5-1.2-3.3c1.3-6.8 1.6-13.3.7-14.7-1.4-2-2-1-2.8 3.6-.3 2.1-1.3 4.7-2.1 5.6-1.2 1.4-1.5 4-1.3 11.8 0 6.4-.2 10-.9 10-1.1 0-1.1 0-1.6-10.5l-.5-8.5.5-10.8c.5-6.8.3-10.7-.8-14.5-3-10.6-2.8-19.6.3-14 .7 1.5 4 19.1 4 21.7 0 .3.5.6 1 .6s1.1-2.9 1.4-6.3l.9-9.3c.2-2.6 0-3-2.5-3.3-2.3-.2-2.7-.7-2.7-3.5 0-1.8-1-5.8-2-9-2.2-6-2.6-10.2-1.1-11.1.7-.5 3 4.5 4.7 10.2.1.7.8 1.2 1.5 1.2 1.7 0 0-7-2.2-9.5-1.5-1.6-2-3.6-2-8 0-5.5.3-6 2.7-7.2 3.6-1.7 4.4-1 4.4 4.3 0 2.4.4 4.4 1 4.4.4 0 1.7-2.3 2.8-5.2 1-2.9 2.4-5.4 3-5.5 1-.4 2.2 2.9 2.2 6.7 0 3.1 1.6 1.6 2.7-2.7.4-1.8 1.3-3.3 1.8-3.3 1.6 0 2.6 17.7 1.4 25-1.4 8.6-1.2 17.1.7 21.5.8 2 1.5 4.7 1.5 6.3 0 2.4.2 2.5.9.8.7-1.8 2-11.6 3.5-27 .3-2.7 1.2-5.9 2-7 .7-1.2 1.5-3.3 1.7-4.6.2-1.3.9-2.5 1.5-2.7.9-.3 1 2.8.7 11.4-.6 18-.5 27.3.3 28.6.3.5 1.2.3 2-.3 1-.9 1.2-3.8.9-13.5-.4-10.8-.2-12.9 1.5-16.9 1.2-2.5 2.3-4.6 2.5-4.6.5 0-.3 14.5-1.1 21.3-.6 5 0 5.9 2.1 3 2-2.7 2.5-1.1 1.9 5.5-.7 6.3-2.1 9.8-3 7.5-1.1-2.5-3.4-1.2-4.4 2.5-.6 2-1 7.8-1 12.8v9l2-3c1-1.7 2-4.2 2-5.5 0-1.4.5-3.2 1-4 .9-1.3 1.2-1.3 2.4.3 1.7 2.1 1 9.7-1 11.2-1.6 1-3.7 19-2.7 22.4.6 2.3-1.4 5.4-2.9 4.5-.4-.3-.8-3.3-.8-6.8 0-3.4-.5-6.7-1-7.2a19 19 0 0 1-2.4-5c-1.4-3.9-1.4-3.9-.9 3.3.4 5.2.1 7.7-.8 8.9-.8.9-1.6 3.7-2 6.2-.6 5.9-2.4 6.4-6.8 2zm6.2-12.8c.6-3.6.5-7-.2-10-.6-2.5-1.4-9-1.8-14.5-.7-11.6-2.2-16-2.5-7.5v9.4c.2 2.1-.5 5.8-1.4 8.3-1.7 4.3-1.6 6.6.2 17.1.5 2.7 1 3.2 2.7 3 1.7-.3 2.3-1.3 3-5.8zm-11.9-14.8c-.2-3.1-.8-7.5-1.4-9.7-1.1-4.4-.8-10 1.4-24s3.4-27.2 2.8-29.5c-.9-3.5-2.8-1.7-2.5 2.3.3 2.8 0 3.6-1.2 3.6-.9 0-1.6-.8-1.6-1.8 0-2.5-1-3.4-2.7-2-.8.6-1.3 3-1.2 5.7.1 4.4.2 4.5 1.2 1.9 2-5 3.7-3.4 3.7 3.2 0 8.2-1.8 16.2-4 18.2-2.6 2.2-2.5 3.9 0 3.9 2 0 2.1.4 1.6 3.7a41 41 0 0 0 .7 20c1 1.7 1.7 4.8 1.7 6.7 0 2 .4 3.6 1 3.6s.7-2.6.5-5.8zm16-10.5c-.6-14.8-1.3-20-2.6-19.1-2 1.2.7 30.4 2.8 30.4l-.2-11.3zm-11-1.8c-1.2-5.4-2.5-4.2-2.4 2.3 0 6.2 0 6.2 1.5 3.5 1-1.8 1.3-4 1-5.8zm9.5-25c0-.5-.6-1-1.5-1-1.5 0-2 1.2-.8 2.4.8.8 2.3-.2 2.3-1.4zm-25-10c0-.5-.5-1-1-1-.7 0-.9.5-.5 1 .3.6.8 1 1 1 .3 0 .5-.4.5-1zm-236.4 74.5c-1.8-.8-5.1-2.7-7.4-4.4a29 29 0 0 0-9.7-4c-4.8-1-8.3-2.3-18.1-7-2.5-1-.7-2.5 3-2.4 2 0 5 1 6.6 2.2 1.7 1.2 4.4 2.2 6 2.2 1.5 0 4.8 1 7.2 2 2.4 1.1 4.8 2 5.4 2 .6 0 1.8.7 2.7 1.5 1 .8 3.7 2.5 6.1 3.8 7.6 4 6 7.5-1.8 4.1zm186.2.7c-3.7-1-3.7-4.3 0-7.5 3.1-2.5 7.1-3.3 10.5-2 2 .7 2.2 6.7.3 8.2-1.7 1.4-7.8 2.2-10.8 1.3zm5.8-5.7c-1-1-2.9.6-2.2 1.8.5.6 1 .6 1.8-.1.5-.6.7-1.3.4-1.7zm-54 2.2c-2.5-1.8-9-5-14.5-7.1-11.1-4.3-12.5-5.1-12.5-7.3 0-1.1.8-1.3 3.1-.8 3.2.6 4.3 1 16.4 6.5 3.7 1.7 7.4 3.1 8 3.1 2 0 9 6.6 8.2 7.8-1.1 2-3.8 1.3-8.7-2.2zm75.8-3.3a587 587 0 0 0-2-9c-.8-3.4-1.5-7.3-1.5-8.5 0-1.3-.7-3.2-1.5-4.2-.7-1-1.1-2.4-.9-3.1.3-.7.1-1.6-.4-2-.5-.2-1.2.5-1.6 1.7-1.3 5-1.6.3-.6-10.6 1-11.3.8-14.2-1-19.7-1.6-4.8-2-7.5-1-9 .8-1.2 1.1-1.2 2.4.5 2.3 3.2 3.3 1 4-9.2.6-7.5.5-9.3-.6-9.3-.7 0-2.6-1.3-4-3-2-2.3-2.8-4.5-3.3-9.3-1.4-13.8-1-17.2 1.9-14.8 1 .9 1.3 2.7.9 7-.4 4-.2 6 .6 6.6 2 1.2 2.5-.3 2.6-8.3 0-7.3.1-7.7 2.2-7.5 2 .2 2.2-.3 2.5-4.4.4-6.3 2.8-7 2.8-.9 0 2.5.5 4.6 1 4.6.6 0 1-1.1 1-2.5s.4-2.5 1-2.5c1 0 2.4 3.6 1.7 4.8-.3.4-.6 8.2-.7 17.2 0 9.1-.6 18-1.2 20-.8 2.7-.7 3.5.6 4.2 1 .6 1.6 2.2 1.6 4.4 0 3.8.7 4.3 2.6 1.7 1.2-1.5 1.4-.3 1.4 8.2 0 5.6.2 11.6.3 13.5.4 5.4-2 5-2.8-.6-1.2-9.5-1.8-10.2-2.5-2.8-.6 7.7.7 11.5 4.2 11.5 3.2 0 2.4 5.4-1.1 8l-3 2-.3 13.8c-.3 13.3-.3 13.7-2.5 14-1.7.3-2.3-.3-2.8-2.5zm1.3-26.7c-1.1-5-1.3-8.9-.8-13.1 1.4-10 1.2-22-.4-24-1.3-1.9-1.4-1.9-1.9 0-1.3 4.6-2 13.8-2 25.2 0 9.8.4 12.5 1.7 13.8 2 2 3 5.9 2.3 8-.4.8-.3 2.3 0 3.2.6 1.3 1 .8 1.7-2 .6-2.8.4-6-.6-11.1zm4.2-5.1a1.5 1.5 0 0 0-3 0 1.5 1.5 0 0 0 3 0zm-3-46c0-.8-.4-1.7-1-2-.5-.4-1-.5-1-.2l-.6 2c-.4 1 0 1.6 1 1.6.9 0 1.6-.6 1.6-1.4zm-1.3-9.8c-.3-.8-.6-.5-.6.6 0 1 .2 1.7.5 1.3.4-.3.4-1.1.1-1.9zm-.7-6.2c0-1.3.8-4.6 1.7-7.4.8-2.8 1.3-5.8 1-6.8-.6-1.4-1-1.3-3.2 1-2 2.1-2.5 3.8-2.5 7.6 0 5.3.7 8 2.1 8 .5 0 1-1 1-2.4zm-398.3 94.9c-.4-.4-.7-7.7-.7-16.3 0-15.6-.6-18.9-4.3-27.1a38 38 0 0 1-2.5-14.6c-.5-9.6-.3-10.5 2.6-17.2 1.8-4 3.2-8.1 3.2-9.4 0-1.2.6-3 1.4-3.8.8-1 2.2-4.3 3-7.5 2-8 7.7-13.6 13.6-13.6 3 0 2.4 1.1-2.5 4.8-3.1 2.4-4.9 4.7-6.1 8l-4 9.7a25 25 0 0 0-2.4 6.7c0 1-1.2 3.8-2.5 6.4-2.1 4-2.5 6.1-2.5 13 0 7.9 1.1 12.2 4.8 18.5a61.8 61.8 0 0 1 3.6 24.5c.2 7.1.4 14.1.7 15.5.3 2 0 2.5-2.2 2.8-1.4.2-2.8 0-3.2-.4zm408-2.2c-.2-.4-.7-5-1.1-10.3-.6-8-.5-9.7.9-10.9 1.4-1.1 1.6-.9 1.4 2.1 0 1.9.2 7.1.6 11.6.5 5.5.4 8.3-.3 8.3-.6 0-1.2-.3-1.5-.8zm-19.2-7.4c-2.9-6.2-3.1-8.6-1-9.5 2.3-.9 3.6.9 4.7 6.3 1.4 7.1 1.4 7.6 0 8.1-.7.3-2.2-1.7-3.7-4.9zm72.9 4c-1.6-1.6-1.5-3.3.3-4.8 2.2-1.8 4 .1 3.1 3.4-.7 2.9-1.6 3.2-3.4 1.4zm-41.3-5.4c0-3 .4-5.3.9-5 1.2.8 2.3 7 1.5 9-1.3 3.3-2.4 1.4-2.4-4zm-179.5-8.6-5.8-2.5c-1.7-.8-3.2-2-3.2-2.9 0-2 4-1.8 8.1.3 1.9 1 6.6 2 10.4 2.3 5.4.4 7 .8 7 2s-1.5 1.5-7 1.7c-3.8.1-8.1-.3-9.5-.9zm-125.8-1.7c-8.6-2.3-19.6-7.3-19.6-8.8 0-1.6 5.6-1.8 6.5-.3.4.5 1.4 1 2.3 1 .9 0 2.4.7 3.4 1.6 1 1 4.2 2 7.1 2.5 6.6 1 11 2.8 10.5 4.3-.5 1.6-3.5 1.5-10.2-.3zm-372.5-.5c0-2 1.9-3.3 6.5-4.5 3-.8 7.3-4 16.6-12.7 6.9-6.4 14.9-13.2 17.8-15.1 3-2 5.2-4 5-4.6-.6-1.7-8-5.7-10.5-5.7a21 21 0 0 1-6.7-2.4c-2.4-1.3-7-2.7-10-3.1-5-.6-8.8-2.8-7.4-4.2 1-1 14.6 1.6 19 3.6 7 3 11 4.8 16.6 6.9 5 1.9 5.3 1.9 7.5.2 1.2-1 4.3-2.8 6.8-4 2.4-1.3 6.6-3.8 9.2-5.7 2.7-1.8 5.4-3.4 6.2-3.4.8 0 2.1-1.1 3-2.6 1.7-2.4 1.7-2.7 0-4.4-.9-1-4.2-2.4-7.3-3a435 435 0 0 1-15.6-3.6l-17-4c-3.9-.9-8.2-2.1-9.6-2.9-1.4-.7-5.9-1.6-10-2-4.2-.3-11.2-1.3-15.7-2.2a28.8 28.8 0 0 0-13.5-.4c-4.7 1-6.2 1-12.7-1-4-1.3-7.1-2.8-7-3.4.6-1.8 5-1.7 10.3 0 4.2 1.5 5.8 1.6 8.5.7a29.8 29.8 0 0 1 16.3 0c1.2.7 6.3 1.5 11.3 1.9 5.4.3 11 1.4 14 2.7 2.7 1 7 2.5 9.5 3.2l10.5 2.6c3.3.9 10.4 2.4 15.7 3.4 5.3 1 11.1 2.8 13 4 4.6 2.7 7.3 2.6 11.2-.8 6-5.4 14.7-8.7 38.7-15.2 4-1.1 8.5-2.8 9.9-3.7l2.5-1.7-2.4-.9a32 32 0 0 0-7.3-1.2c-7.4-.4-14.6-2.4-14.6-4 0-2 3.8-2 8.4 0 2 .8 4.6 1.5 5.8 1.5 2 0 2-.2.8-1.3-4.3-3.9-27.5-9.9-25.4-6.6 1 1.7-10.6.1-13.6-2-2.2-1.3-2.3-1.6-.7-2 1-.1 3.6.4 5.7 1.3 5 2 7 2 7 .2 0-.7-1.3-1.6-2.9-2-4-.7-14.6-5.5-13.9-6.2.4-.4 2.9-.1 5.6.6 3.6.8 5.6.8 7 0 2.8-1.4 8.8 1.5 7.1 3.5-.9 1.1-.5 1.5 1.5 2 1.4.4 3.7.4 5 .1 1.8-.4 3.3 0 5.4 1.8 1.6 1.4 4.2 2.8 5.8 3.2a51.9 51.9 0 0 1 16.6 8.8c1.6 2 1.7 2 7-1.7 3-2 6-3.7 6.6-3.7.7 0 2.7-.6 4.5-1.4l9-3.6c7-2.7 9.5-5.7 7.2-8.9-.8-1.2-2.2-2.1-3.2-2.1s-2.6-.7-3.7-1.5c-1.8-1.4-1.7-1.4 1.6-.9 1.9.4 4.5 1.2 5.7 2 2.8 1.7 5.3 1.8 5.3 0 0-1.4-6.1-4.6-8.8-4.6-1 0-4.6-1.2-8-2.7-6-2.7-7.9-4.3-4.8-4.3.9 0 1.5-.5 1.5-1 0-1.7-3-2.5-4-1-.5.8-2.6 1-6.3.8-5.3-.3-5.5-.2-4 1.4 2 2.1 1 2.3-2.6.4a63 63 0 0 0-12.6-5.2c-3.3-.8-10.5-5.4-10.6-6.8 0-1.2 7.5.2 14 2.5 3.1 1.1 7.4 2.5 9.6 3 2.2.6 4.8 1.5 5.7 2 1 .5 2.7.9 4 .9 1.7 0 1.9-.3.8-1.5-.7-.9-1.8-1.5-2.6-1.5-1.3 0-3-1.9-2.2-2.6a59 59 0 0 1 14.5 4.4l9.4 4.7c4.1 2 8.2 4.3 9 5 2 1.8 5.4 1.9 8 .3 1-.7 2.2-1 2.6-.6.9.9-3.6 6.7-5.8 7.3-1 .4-4.4 3.2-7.6 6.4-3.9 4-7.3 6.4-10.7 7.6-7.6 2.7-22.7 10-28.3 13.8-2.8 1.8-7.2 4-10 4.6-14.7 3.9-32 10.5-37 14.2-3 2.2-5.6 4-6 4-1 0-10.5 7.2-10.5 8 0 .6-.8 1.3-1.7 1.7a78 78 0 0 0-7.5 4.5 33 33 0 0 1-6.7 3.7c-1.2 0-4.7 2.4-15.2 10.2a84.8 84.8 0 0 0-21 16.8c-4.7 4.8-10.3 10-12.5 11.6-6.5 4.7-15.6 7.1-15.6 4.1zm173.4-121c-1.3-.4-3.2-1.5-4.1-2.4-1-.8-2.5-1.3-3.5-1.1-1.3.2-.4 1 3.1 3 2.8 1.3 5.5 2.3 6 2 .5-.3-.2-1-1.5-1.4zm-66.6 121.5c-1.3-2.3 3.7-7.1 7.5-7.1 1.8 0 1 3-1.5 5.5s-5 3.2-6 1.6zm497-3.7c-2.8-3.3-4-6-4.8-10.2-.7-3.8-1.5-5.8-2.6-6-1.2-.3-1.5.6-1.5 4 .1 4 0 4.2-2.2 4-1.4-.1-5.1-2.9-8.4-6l-6-5.9-2-10c-1.1-5.4-2-11.4-2.2-13.3-.2-4.2 2-5.3 3-1.4.2 1.6.9 3.5 1.4 4.4.4.9 1.1 4.2 1.5 7.3.6 4.6 1 5.7 2.4 5.4 1.3-.2 1.6-1.6 1.6-7.3 0-5.8.4-7.5 2.5-10.2 2.7-3.7 3.5-4 4.4-1.7 1 2.4.8 7.4-.2 7.4-.5 0-1.1 2.3-1.4 5.1-.4 3.8 0 6.2 1.4 9 3 6.1 4.2 5 3.4-2.9-.5-5.3-.3-7.1.8-8 2-1.6 3.9.9 3.5 4.5-.1 1.6.8 4.4 2 6.3 1.2 2 2.2 4.5 2.2 5.7 0 3.5 1 5.4 3 5.4 3 0 4.2-8.5 1.2-9.5-1-.3-2.7-2.7-4-5.3-1.9-4.1-2-5-.7-6.3 2-2.3 2-4.7 0-3-1.7 1.4-2 1-3-5.3-.6-3.6-.6-3.8 1.4-2.7 2.5 1.3 2.8-.5.7-3.5-1.3-1.8-1.7-1.8-4.2-.5-4.4 2.4-5.4-.1-5-12.8.4-10.6 1.8-14.3 2.9-8 .3 1.8.4 6 .2 9.1-.3 4.2 0 5.7.8 5.4.6-.2 1-1.1.9-2-.5-2.6 1.7-3 2.7-.5 1.1 2.7 3.5 5.8 4.4 5.8 1.4 0 .5-4.3-1.8-9-3-5.8-3-6.5-1-10.5 1.2-2.3 1.5-4.5 1-9-.6-5-.5-5.7.8-4.7 1.1 1 1.5.9 2-.8.7-2.8 2.5-2.5 3.7.6 1.6 4 1.2 6-1.5 7.2-2.4 1.1-2.5 1.3-1.2 4.4.7 1.8 2 3.4 3 3.6 1.3.3 1.7-.4 1.7-3.2 0-2.5.4-3.6 1.4-3.6 2.1 0 3.7 3.5 3 6.5-.9 3.4 1.9 3.4 3.4 0 2.2-4.8 3.2-2.7 3.2 6.9 0 9.7-1.1 12.6-4.5 11.3-1.2-.5-1.2-1 0-3.3 1.3-2.6 1-5.4-.5-5.4-.4 0-1 1.3-1.3 2.9-.4 1.6-1.4 3.2-2.3 3.5-1.5.6-1.6 0-1.1-4.1.3-2.6.8-5.6 1.2-6.5.8-2.2-2-2.5-3.2-.5a6 6 0 0 1-2.7 2c-1.3.5-1.6 1.2-1 2.5.4 1 1 8 1.4 15.7.8 14.9 1.5 18.9 3.4 18.2.6-.2 1.2-3.7 1.4-9 .2-6.6-.1-9.2-1.4-11.1-1.6-2.4-1.3-4.6.6-4.6.6 0 1 1.1 1 2.5 0 1.6.6 2.5 1.5 2.5.8 0 1.5-.9 1.5-2 0-1 .6-2 1.4-2 .8 0 1.7 1 2.1 2 1.3 4 3.5 1 3.5-4.9 0-3 2.1-10 3-10 .9 0 2.7 17 1.8 17.5-.3.3-1 0-1.3-.6-.4-.7-1.4 0-2.6 2-2.1 3.5-2.6 3.6-5 1.4-1.7-1.5-1.8-1.3-1.8 5 0 3.7.4 6.6.9 6.6 1.2 0 2.8-2.3 3.5-5.3.9-3.3 2.9-3 3.3.4.6 5.4 3.4 18.6 4.4 21.2.6 1.5 1.4 2.5 1.9 2.2.8-.5.7-3.4-.6-22.2-.7-8.9-.6-10.3.8-10.3 1 0 1.7 1.6 2.2 6 .7 6.2 2.2 8 2.7 3.4.4-3.2 2.3-4.2 3.4-1.7.4 1 1.3 9.7 2 19.3 1.2 16.8 1.2 17.7-.7 21.4-2.4 4.6-4.9 4.6-6.2 0-.7-2.5-.6-3.6.7-4.9 3.4-3.4 1-5.4-3.4-2.8-2.1 1.3-3.3 1.5-4 .7-1.5-1.4-3-7.8-3-12.6 0-2-.4-3.8-1-3.8-.5 0-1 1.5-1 3.3 0 1.8-.4 3.9-.9 4.6-1 1.6-3.1.7-3.1-1.4 0-.9-1-1.5-2.4-1.5-1.9 0-2.3-.4-2-1.9.3-1 0-3-.7-4.2-1.3-2.4-1.3-2.4-2 1-.4 2-.2 5.2.5 7.5 1 3.3 1.6 4 3.3 3.9 1.8-.3 2.1.4 2.7 5.9.8 6.9.3 8-4.3 8.3-1.8.2-3.5.6-3.8 1-1.3 1.2-2.3.5-6-4zm8.8-4.5c0-3.5-4.9-8.5-6.5-6.7-.7.7-.6 1.2.2 1.5.7.2 2 1.8 2.8 3.4 1.5 2.8 3.5 3.9 3.5 1.8zm-19.2-11.4c.2-1.1-.2-1.6-1-1.3-.8.2-1.5 1.2-1.7 2.2-.2 1.1.1 1.6 1 1.3.7-.2 1.5-1.2 1.7-2.2zm43.2-5.6c0-.5-.4-1-1-1s-.8.5-.5 1c.4.6.9 1 1.1 1 .2 0 .4-.4.4-1zm84.3 22.5c0-2.9.3-3.5 1.7-3.2 1.2.2 1.9 1.4 2 3.5.3 2.7 0 3.3-1.7 3.3s-2-.7-2-3.6zM213.3 415c-4-2.5-4.1-4-.1-4 3.5 0 9 2.9 8.6 4.4-.6 1.9-5.2 1.7-8.5-.4zm634.6-.2c-1.3-1.4-1.6-4.9-.4-4.8 1.8 0 4.4 3 3.9 4.4-.7 1.9-1.9 2-3.5.4zM681.8 413c-.4-.6-1.4-1-2.3-1-1 0-2.9-.7-4.2-1.5l-12.6-6.5c-13.5-7-19-10-25.6-14.3-6.6-4.2-18-15.5-18-17.8 0-1.6-6.2-8-7.7-8-1.7 0-5.3-4.6-5.3-6.8 0-2.8 2.6-2.9 4-.2.6 1.1 2.6 2.7 4.4 3.4 3 1.2 8.6 7.7 8.6 9.8 0 .4 1 1.8 2.3 3l5.3 6c3.1 3.6 8 7.2 18 13 6.7 4 23 11.9 24.4 11.9.5 0 1.4.6 2 1.4.7.7 2.4 1.7 4 2a53 53 0 0 1 6 2.1c2.9 1.2 3.2 1.7 2.2 3-1.4 1.7-4.6 2-5.5.5zm267-4.2c-.3-.7.1-4.4.8-8.3.7-3.9 1.3-9 1.3-11.6.1-5 1.5-8 3-6.5.5.7.5 3.9 0 8.5a1120 1120 0 0 0-1.5 13.3c-.4 3.7-1.1 5.8-2 5.8a2 2 0 0 1-1.7-1.2zm9.7-1c-1.1-3-.1-8.3 1.5-8.3 1.1 0 1.4 1 1.2 4-.4 4.4-1.8 6.7-2.7 4.2zm-740.7-1.4c-3.2-1.8-3.6-3.4-.7-3.4 2.6 0 7.1 2.9 6.4 4-.8 1.3-2.5 1.1-5.7-.6zm345-3.7a45 45 0 0 1-12.4-18.9c-.4-2.4-1.3-5.5-2-6.9-.6-1.3-1.5-4.3-1.9-6.5-.4-2.2-1.4-6-2.2-8.5-1.4-3.9-1.4-5.6-.4-12 .7-4.1 1.2-9.8 1.2-12.7-.1-5.1 1.9-8.7 3.7-6.7 1.7 1.8 2.1 14 .6 16.8-2.4 4.6-1.3 18.8 2.1 26.1.8 1.7 2 5.3 2.6 8 1 4.6 9.8 18.1 12.8 20 1.5 1 1.4 3.6-.2 3.6-.7 0-2.5-1-4-2.3zm-339.2-1.3a36.6 36.6 0 0 0-7.6-2.4c-1 0-3.7-.8-6-1.7-2.5-.9-6.7-2.1-9.5-2.8-3.8-1-5-1.6-5-3.1 0-2.8 6.6-3.2 10.3-.7 1.5 1.1 4.5 2.5 6.7 3.2 2.3.7 5.4 1.9 7 2.5 1.7.7 4.7 1.6 6.6 2 4 1 6 2.2 6 4.2 0 1.8-1.4 1.6-8.5-1.2zm573 .6c-.6-1-1-4.3-1-7.3s-.3-5.7-.6-6c-1.1-1.1-1.3-10.7-.3-11.4 1.5-.9 3 1.7 2.4 4.1-.2 1.1.2 4.5 1 7.5.7 3 1.6 7.7 2 10.3.6 4 .4 4.8-.9 4.8-.8 0-2-1-2.6-2zm-6.4-2.7c-.3-.4-.6-2.2-.6-4.1 0-2.9-.3-3.3-1.5-2.3-1.8 1.5-2.4.5-3.2-6.3-.8-6.7 1.2-8.1 2.3-1.6.6 4 2.4 6.5 2.4 3.5 0-2.6 1.9-1.8 2.6 1.1 1.6 6.5.5 12.1-2 9.7zM233.4 394c-4.3-2-5.7-4-2.8-4 .8 0 1.5.5 1.5 1 0 .6.8 1 1.8 1s2.7 1 3.7 2c2.3 2.5 1.2 2.5-4.2 0zm132.4.5c-.8-2.1.8-3.7 7-6.8 3-1.4 6.8-3.7 8.3-5 1.6-1.3 4.5-3.2 6.4-4.2 11.4-6.2 24.3-17.3 27.9-24 .7-1.4 1.7-2.3 2.2-2 2 1.2.9 5.2-2.1 8a42.5 42.5 0 0 0-5.5 6.7c-1.3 2-4.6 5-7.2 6.5a69.7 69.7 0 0 0-7.9 5.3 51.6 51.6 0 0 1-6 4.2l-12 7.2c-4.9 3.1-9.3 5.6-9.7 5.6-.5 0-1-.6-1.4-1.5zm577.7-.3c-.6-1.1 0-9.7 1-11.2 1.4-2.3 2.5-.6 2.5 4 0 6.8-1.6 10.1-3.5 7.2zm-172-2.7c-1.4-.7-3.9-1.4-5.6-1.4-2 0-4-1-6-3.1-2.6-2.8-3.3-3-7.1-2.5-3.6.6-4.5.3-5.6-1.4-.7-1.3-2.3-2-4-2-2 0-3.1-.8-3.9-2.4-.8-1.8-1.6-2.2-4.4-1.9-4.4.6-10-1.3-13.9-4.7-1.7-1.5-4.5-3-6.1-3.5l-5.6-1.2a14 14 0 0 1-5-2.9 36.9 36.9 0 0 0-7.1-4.4c-2.6-1.2-5-2.8-5.2-3.5-.3-.8-3.3-1.5-8.2-1.9-6-.4-8.3-1-10-2.6-1.2-1.2-2.8-2-3.6-2-.7 0-3.2-1-5.4-2l-6.8-3c-1.6-.5-2.8-1.7-2.8-2.4 0-.8-1.2-2-2.8-2.8-1.5-.7-4-2.8-5.4-4.5a20.7 20.7 0 0 0-6.8-4.8c-2.2-.8-4.7-2.7-5.7-4.2a94.5 94.5 0 0 0-15.6-16c-1.6-.9-2.8-2.5-2.8-3.5s-.9-2-2-2.4c-1.1-.4-2-1.3-2-2 0-.8-1-3.3-2-5.5l-2.2-4 2.2-6c1.2-3.2 3.8-8.3 5.6-11a32 32 0 0 0 3.4-6c0-1.6 9.3-12 10.7-12 2.4 0 1.5 2.8-1.7 5-3.5 2.7-3.9 5.5-.8 6.3 2 .5 1.7.9-2.7 4-8 5.4-12.7 15.9-10 22l1.3 3.2.1-3.2c.1-4.6 5-15 6.3-13.5.9.8.6 2.2-.8 5.3-1.2 2.9-1.8 6-1.6 9.6.1 4.2-.1 5.3-1.4 5.3-2.1 0-1.2 2.2 1.4 3.5a16 16 0 0 1 4.3 3.8c1.1 1.5 3 2.7 4 2.7 1.7 0 1.9-.7 1.7-4.7-.2-3.8 0-4.8 1.5-5.1 1-.2 1.7.2 1.7 1.2s.7 1.9 1.6 2.2c2 .8 1.9 3.7-.2 7.6-1.6 3-1.5 3.2.8 5.2 1.4 1.2 3 3.3 3.6 4.8 1.2 2.8 6.6 6.8 9 6.8.8 0 1.2-1.1 1-3-.4-5 1.8-3.6 2.6 1.8.8 4.7 1.1 5.2 3.4 5.2 1.6 0 2.7.7 3 1.9.3 1.2 1.1 1.7 2.3 1.4 1.2-.3 2 .2 2.5 1.6.4 1.2 1 2.1 1.4 2.1.4 0 2.3 1.4 4.1 3 4 3.5 9.5 4.1 11.7 1.3 1.2-1.6 1.3-1.6 1.3-.2 0 1 .8 2.2 1.6 3 1.3 1 1.5.6 1.5-3.2 0-5.4 1.6-8.5 2.4-4.8.3 1.3.7 4 .8 5.8.2 2 .8 3.6 1.5 3.9 1.7.5 2.9-4.6 1.4-6-.6-.7-1.1-2.5-1.1-4 0-2.3.4-2.9 1.7-2.6 1.5.3 1.8 1.5 2 7 .1 6.7 1.5 10.8 3.5 10.8.7 0 .8-1.2.4-3.2-.3-1.8-1-6.5-1.3-10.4-.4-5.7-.2-7.6 1-9.5 1-1.3 1.7-3.6 1.7-5.2 0-4.4 2.3-2.8 3.3 2.2.8 3.8.6 4.5-1.2 5.8-1.7 1.2-2 2.4-2 7.6 0 8.2 1.1 14 2.7 14.5.7.2 1.2-.4 1.2-1.3 0-2.4 2.4-1.2 3 1.6.5 1.6 1.3 2.3 2.5 2 1 0 2.2.4 2.7 1 .5 1 .8 0 .8-2.3 0-3.9 1.4-5 2.5-2.2.3.9.6 2.6.6 4 0 3.6 1 5.4 3 5.4 1.6 0 2-.7 2-4 0-2.2.4-4 1-4 1 0 1.6 2.1 2.3 9 .5 4.5 1.8 6 5 6 1.6 0 1.8-.5 1.3-3-1.3-6.7-2-25-.8-25s1.8 3.9 2.6 16.3c.6 8 1.8 11.7 3.8 11.7.6 0 .8-1.2.5-3.2-2.5-14.6-3-20.9-1.9-22 .6-.6 1.3-1 1.5-.7.2.2 1.3 7 2.4 15 2 13.8 2.1 14.3 3.4 11.2.8-1.8 2-3.3 2.7-3.3 1 0 1.2-2.4 1.2-9.4 0-5.2.4-9.7.9-10 .4-.3 1.7.1 2.8 1 1.7 1 2.2 2.9 2.7 10.1 1 14 1.4 16.5 3 18 2 2.2 4-.6 2.7-3.8-1.6-4-3.1-14.2-2.2-15.2 1.1-1 2.6 3.8 2.3 7.5-.2 1.4.2 3 .8 3.3.6.4 1 1.8 1 3.2 0 3.1 2.3 2.6 3.2-.7.8-3 1.5-1.5 2.4 5.2.3 2.6 1.2 5.2 2 5.9 1.7 1.4 1.7 1.4 1.5-6.8-.1-6.1 0-6.3 2.4-6.3 3.8 0 6.7 3.3 6 6.8a31 31 0 0 0 2.2 13c.6 1.9.3 2.2-1.7 2.2-1.3 0-3.5-.7-4.9-1.5zm0-13c0-.9-.4-1.3-1-1-.6.4-.8 1-.5 1.6 1 1.4 1.5 1.1 1.5-.6zM749 364.8c0-3.3-.5-5.4-1.3-5.6-1.3-.5-1.8 6.1-.6 9.1 1.1 3 1.9 1.6 1.9-3.5zm32.7 27c-1.4-1.5-1.5-4.5-.2-5.4 1.4-.8 3.7 4.3 2.4 5.6-.6.6-1.4.5-2.2-.3zm-558-1.8c-.8-1.2 1-2.4 2.4-1.5 1.1.6.4 2.4-1 2.4-.5 0-1.1-.4-1.5-.9zm18.7-2.3c-2.5-1.2-2.5-3 0-3.6 1.8-.3 5 2.6 4.2 4-.7 1-1.3 1-4.2-.4zm717.8-1.3c.2-1.4.8-2.5 1.3-2.5.6 0 1.2 1.1 1.3 2.5.3 1.8-.1 2.5-1.3 2.5s-1.5-.7-1.3-2.5zm-729-1.7c-6.6-1.8-9.1-3-8.5-3.9 1.4-2.3 13.4 1 13.4 3.7 0 1.6-.1 1.6-5 .2zm735.3-.8c-1-1.7 1.3-3.6 2.6-2.2 1.2 1.1.5 3.2-1 3.2-.6 0-1.3-.4-1.6-1zm-187-4.7c0-1.8.4-3.3.8-3.3s1.6-1.2 2.6-2.6c1.7-2.3 1.7-2.7.3-5.7-.9-1.8-2.5-4.1-3.6-5.1a7 7 0 0 1-2-4.5c0-1.5-.6-3.2-1.3-4-1.6-1.5-1.7-14.6-.1-16.2 1.8-1.8 4.3 4 4.9 11.3.6 7.4 1.2 9.8 2.7 9.8.7 0 .9-3.6.4-12a63 63 0 0 1-.1-12c.3 0 1.6 1.2 2.9 2.7l2.3 2.6.7-2.7c1-4.4 3.6-1.4 3.7 4.3 0 4.8 1.4 15 1.9 14.1.1-.3.9-5.4 1.7-11.5 1.4-11.2 2-23.7 1.2-31-.3-3 0-4 1-4 2.5 0 3 5.9 2.6 30.1l-.4 23.2-2.5 2.8c-2.1 2.2-2.6 2.4-2.6 1 0-1-.5-3.6-1.2-5.8-1.2-3.9-1.2-3.9-2.5-1.6-.7 1.3-1.3 3.8-1.3 5.6a14 14 0 0 1-1.1 5.4c-.7 1.3-.8 2.9-.1 4.7 1 2.9 0 7.3-1.2 5.4a34 34 0 0 1-1.3-7.8c-.8-8.9-2.3-9.2-2.3-.5 0 6.3-.2 7-2 7-1 0-2.4.8-3 1.8-.8 1.4-1 1.2-1-1.5zm19.4-19.6c-.3-.5-1-.4-1.5.1-.6.6-.7 1.6-.3 2.2.6 1 1 1 1.6 0 .4-.8.5-1.8.2-2.3zm-9.3-16.7c0-.5-.2-1-.5-1-.2 0-.7.5-1 1-.4.6-.2 1 .4 1 .6 0 1-.4 1-1zm170.6 26.8c-.7-.7-1.2-2-1.2-2.9 0-.9-.7-3.2-1.5-5.2s-1.5-5.5-1.5-7.8c0-3-.6-5-2.1-6.5-2.6-2.8-1.9-5.4 1.5-5.4s4.6 2.6 4.7 10.2c0 3.5.7 8.1 1.5 10.3 1.6 4.6 1.8 7.2.6 8-.5.2-1.4 0-2-.7zM766 367.9c-.7-2.1 0-4 1.6-4 1.2 0 1.2 4.7 0 5.5-.5.3-1.2-.3-1.6-1.5zm-482.6-.3c-1.7-2-11.2-6.4-15.8-7.2-5-1-6-1.5-4.3-2.6 2.5-1.6 14 1.2 17.4 4.1 1.1 1 3.4 2.4 5 3.1 1.7.8 3 1.9 3 2.4 0 1.6-4 1.8-5.3.2zm477.1-.7c0-1 .5-2 1-2 .6 0 1 1 1 2 0 1.1-.4 2-1 2-.5 0-1-.9-1-2zm43.7.4c-.3-.8-.6-3.6-.6-6 0-6.9 2.4-5.1 2.8 2 .3 5.3-.9 7.5-2.2 4zm140-3.5c.4-7.5 2.8-7.8 2.8-.5 0 4.4-.3 5.6-1.6 5.6-1.2 0-1.5-1-1.2-5.1zm6.8 2.1c0-2.3.4-3 2-3 2 0 2.5 1.5 1.4 4.4-1 2.8-3.4 1.9-3.4-1.4zm-727.9-.5c0-.8 1-1.5 2-1.5 1.1 0 2 .7 2 1.5 0 .9-.9 1.5-2 1.5-1 0-2-.6-2-1.5zm589-1.3c-2.3-1.5-4.5-7.7-4.5-12.8 0-4-.3-5.2-1.3-4.8-1.6.6-4-6.6-2.8-7.9.5-.5 1.2.3 1.5 1.8 1.3 5.1 2.3 1.5 1.5-5.7-.5-4-.6-7.9-.4-8.6 1-2.4 2.3-.3 3 4.6.3 2.8 1.3 5.4 2.5 6.4 2.4 2 3.6 9.7 2.2 13.9-.8 2.2-.8 4.3 0 7.5 1.3 4.5.4 7-1.7 5.6zm44.3-.8a15 15 0 0 1-.6-5.6c0-4.2.2-4.9 1.7-4.6 2 .4 2.8 4.5 1.8 8.4-.6 2.4-1.6 3-2.9 1.8zm-654.6-2c-1.6-.8-4.7-1.8-7-2.2-2.9-.5-4.4-1.3-4.6-2.5-.5-2.5 6.2-2.2 13.5.5 6.3 2.3 8.4 3.6 8.4 5s-7.3.9-10.3-.8zm538 .1c-.5-1-1-5.4-.8-9.5.1-4.1 0-8.3-.3-9.3-.4-1.8-.5-1.8-1.8 0-1.6 2.1-1.5 2.7-1.9-11-.2-7.8.1-11 1-11.8 1-.8 1.5-.5 1.8 1.2 4 20 4.2 22.6 3.7 33-.4 7.5-.8 9-1.6 7.4zm124.5.4c-1.1-3-2.7-11.6-2.9-15.6-.3-7-5.6-10-5.6-3.2 0 3.1-1.4 4-2.4 1.3-.4-.8-.6-3.3-.6-5.4 0-4.7-.9-7-2.6-7-1.3 0-1.8-1.8-3-10.4-.5-4.3-.4-4.8 1.2-4.4 1.5.2 2 1.4 2.2 5.8.3 6 1.6 8.5 3.1 6 .8-1.2 1.4-1 3.5 1.3 1.4 1.6 2.6 3.2 2.6 3.6 0 .5 1.1 1.6 2.5 2.5 2 1.4 2.5 2.4 2.5 6.2 0 2.5.5 7.7 1 11.6.9 5 .9 7.3.1 8-.7.8-1.2.7-1.6-.3zm103.4-3.5c-1-1-.8-6.2.2-6.8 1.4-.9 3.4 2 3 4.5-.3 2.3-2 3.5-3.2 2.3zm-721-1.3c-.6-.5-3.5-1.3-6.5-1.7-6.1-1-8.2-3.4-2.9-3.4 4.4 0 15 3.2 14.6 4.5-.5 1.4-4 1.8-5.2.6zm642.7-.4c-1-2.2.2-13.8 1.6-15.4.6-.7 1.5-1 2-.7 1 .6 1.1 8.8 0 9.8-.3.4-1.2 2.4-1.8 4.4-.9 3-1.2 3.4-1.8 2zM707 353.1c-.5-1.8-.6-3.6-.2-4 1.1-1 1.7.6 1.4 4l-.4 3.3zm215.5-3.4c-1.2-9.7-1.2-10.3.4-10.3 1.2 0 1.6 1.7 1.8 7.8.4 8.7-1.1 10.5-2.2 2.5zm-160 .2c0-2.2.5-4 1-4 1.3 0 2.4 4.5 1.7 6.5-1.2 3-2.7 1.5-2.7-2.5zm5.5-2.4c-.8-5 0-7.3 2-5.7 1.5 1.3 1.4 9.3-.1 9.8-.8.3-1.5-1.3-1.9-4zm-65.8 3.4a34 34 0 0 1 .2-11c.8 0 2.3 5.8 2 8-.2 1.5-2 3.8-2.2 3zm55.3-3.7c0-1-.7-4.8-1.6-8.5-1.9-7.5-1.3-12.1 1.4-11.6 1.5.3 1.7 1.7 1.7 11 0 6-.3 10.8-.7 10.8-.5 0-.8-.8-.8-1.7zm170.2-7c-.5-8.6.2-13.8 1.6-11.6 1 1.8 1 18.3 0 19.4-.8.7-1.2-1.8-1.6-7.8zm6.4 6.5a18 18 0 0 1 .2-7.2c1.1-5.3 1.1-8 .1-18.2-.5-4.7-.3-6.3 1-7.3 1.8-1.5 3.6-.7 3.6 1.7 0 1 .6 2.9 1.4 4.4 1 2 1.2 3.7.5 6.8-.5 2.2-.7 5-.4 6.3.4 1.5 0 2.8-1 3.6-.9.8-1.5 3-1.5 5.1 0 6.6-2.2 9.4-3.9 4.8zm7.6-.5c-.6-3.2.9-7.7 2.3-6.8 1.6 1 1.3 9.5-.4 9.5-.8 0-1.6-1.2-1.9-2.7zm-638.2-1a98.5 98.5 0 0 0-14.8-4.2c-4.7-.9-8.6-2-8.8-2.6-.3-2 5.7-1.6 12.6.6 6.5 2 7.2 2.1 9.7.6 3-1.7 9.6-1.6 11.4.2.8.8 0 1.1-3.6 1.1-2.6 0-4.7.4-4.7.8 0 1.6 3.7 4.2 5.9 4.2 1.2 0 2.1.5 2.1 1 0 1.6-3 1.1-9.8-1.6zm446.6 1.1c-.4-.8-.3-5.5 0-10.2.8-9.2 1-9 3 3 1 6-1.3 11.7-3 7.2zm-6.7-3.8c0-1.7 1.5-2.8 2.3-2 .8.8-.3 3.4-1.4 3.4-.5 0-.9-.6-.9-1.4zM426.6 341c0-2 3-5.2 4.9-5.2 1.8 0 1.3 3.5-.7 5.3-2.4 2.2-4.2 2.1-4.2-.1zm172.7-.2c-2-3-1.6-7 .6-7 1.6 0 5.2 5.5 5.2 8 0 1.8-4.5 1-5.8-1zm114.7 1.3c-1-1-.7-4.1.5-4.9 1.3-.8 2.8 1.3 2.9 3.9 0 1.7-2 2.3-3.4 1zm8-.1c-2-3.3-1.2-13.1 1-11 1.2 1.3 1.7 10.5.6 11.2-.6.3-1.3.3-1.6-.2zm7.1-.8c-1.6-5.8-1.7-9.2-.2-10.4 2-1.6 2.1-1.4 3 4 .4 3.2.2 5.1-.8 6.5-1.4 1.8-1.4 1.8-2 0zm34-.6c-1-3.6-.7-14.4.4-17.2.5-1.5 1.6-2.6 2.5-2.6 2 0 2 3.8 0 6-2 2.3-.9 6 1.9 5.7 1.6-.2 2.2.4 2.4 2.5.3 2-.1 2.8-1.2 2.8-.9 0-1.7-.6-1.7-1.3-.1-.6-.4.3-.8 2.2-.7 4.1-2.6 5.1-3.5 1.9zm-432.3-.8c-1-1.7-7-4.1-14-5.6a431.7 431.7 0 0 1-21.8-5c-1.5-.4-3-1-3.3-1.5-.3-.5-3.3-1-6.6-1s-6.8-.3-7.8-.9c-1-.5-7.2-1.5-13.8-2a154 154 0 0 1-15.6-2.1c-2-.5-7.3-1.3-11.8-1.6-8.5-.6-9.4-1-8-3.3.6-1 2.4-1.1 10.2-.1l18.4 2.2c5 .5 11.6 1.6 14.8 2.4 3.2.8 8.2 1.5 11.1 1.5 3.1 0 7.7 1 11.3 2.3 3.2 1.3 8.3 2.7 11.1 3a42 42 0 0 1 8.7 2.2c2 .8 5.5 1.5 8 1.5 3.4 0 5.2.7 8.3 3 2.1 1.8 3.9 3.7 3.9 4.3 0 1.5-2.2 2-3 .7zm339-6.3c-.4-4-1.1-7.7-1.5-8.2a18 18 0 0 1-1.6-5.4c-.5-3.4-.4-4.3.7-4 .7.3 1.6 2.2 2 4.2.2 2 1 4.2 1.6 5 1.3 1.4 1.5 14.4.3 15.2-.4.2-1.1-2.8-1.5-6.8zm5.4 2c0-2.8-.3-7.6-.6-10.5-.5-4.4-.4-5.2 1-5.2s1.7 1.4 1.7 10.5c0 6.3-.4 10.5-1 10.5s-1-2.4-1-5.3zm31.1 2.3c0-.6.5-1 1-1s1.2.4 1.5 1c.4.6 0 1-1 1-.8 0-1.5-.4-1.5-1zm191.4-3.7a37 37 0 0 1 1.9-16.6c.9-2 2.1-3.7 2.7-3.7.7 0 2 2.2 3 5 1.2 3.5 2.3 5 3.6 5 1.6 0 2-1 2.2-5.7.2-3.5.8-5.8 1.6-6 1-.4 1.1 1 .6 7.2-.6 6.6-1.1 8-3.7 10.6-3.7 3.7-4.6 3.6-5.9-.1-.6-1.7-1.7-3-2.6-3-1.2 0-1.4 1.1-1.1 5.7.2 3.9 0 5.8-1 6-.8.3-1.2-1-1.3-4.4zm-639 1c-5.6-1.3-3.1-2.3 5.8-2.3 8 0 9.7.3 9.7 1.5s-1.4 1.5-6.8 1.4c-3.7 0-7.6-.4-8.7-.6zm517.2-1-1.5-4.3c-1.3-3.8-4-25-3.2-26.3.7-1.2 4.3 8.6 4.3 12 0 3.5 1.1 5.3 3.2 5.3 2.3 0 2.4 2.8.1 4.5-1.4 1-1.5 1.8-.6 4.6 1 3.6.8 5.9-.8 5.9-.5 0-1.2-.8-1.5-1.8zm38.3.1c-1.2-3.1-.7-6.4 1-5.8.9.4 1.4 2 1.4 4 0 3.5-1.3 4.6-2.4 1.8zm132.3.3c-.2-.6-.6-3.6-1-6.5-.5-4.3-.3-5.4 1-5.9 2.5-.9 3.5 1.4 3.5 8 0 4.5-.3 5.7-1.5 5.7-.9 0-1.8-.6-2-1.3zm-241-4.4c.5-6.4 2.4-6.6 2.6-.3.2 4 0 5-1.3 5-1.2 0-1.5-1-1.2-4.7zm7.5 2.3c-.7-2.7.6-7 2.3-8 .7-.5 1 1.2 1 4.8 0 4.1-.3 5.6-1.3 5.6-.8 0-1.7-1.1-2-2.4zm107.4 1.6c-.3-.4-.8-2-1.1-3.5-.7-2.6-.5-2.7 1.3-1.7 1.2.6 2 2 2 3.5 0 2.4-1.3 3.4-2.2 1.7zM182 332.5c-3-.7-8.5-2.6-12-4.3-3.6-1.7-8.2-3.6-10-4.2-2-.6-5.1-2.4-7-4-2.7-2.2-3-3-2-3.9 1.5-1.1 2.4-.8 20 7.9a76 76 0 0 0 13.5 4.8c5 1.2 7 2.2 7.3 3.4.4 2-1.7 2-9.8.3zm159.4.4c0-.6.7-1 1.5-1s1.5.4 1.5 1c0 .5-.7 1-1.5 1s-1.5-.5-1.5-1zm449.8-2.6c-1.6-4 0-12 2-10 1.1 1 3.3 10 2.7 10.8-.8 1.4-4.1.8-4.7-.8zm98 .2c-.6-1.7.2-10.5 1-11.4.3-.2 1-.1 1.6.3.7.4.9 2.5.4 5.8-.7 5.8-2 8-3 5.3zm-234 .4c0-.3-.4-4.2-.6-8.8-.6-9.2 0-10 4.9-6 3.3 2.7 5.2 11.8 2.5 11.8-.9 0-1.8-1.3-2.1-3-.4-2-1-2.9-1.7-2.5-.6.4-1 1.2-.7 1.8.2.7-.2 2.5-.9 4.2-.7 1.6-1.3 2.8-1.4 2.5zm88-.7c-.4-.3-.8-2.2-.8-4 0-4.2 2.4-4 2.9.1.3 2.9-1 5.2-2.2 4zm212.4-1.1c-.8-1.3 1-3.5 2.3-2.8 1.6 1 1.4 3.6-.3 3.6-.8 0-1.7-.4-2-.8zm-264.6-.9c-1.2-1.2-.7-8.9.7-10.8 1-1.4 1.1-2.5.4-4.1-.7-1.5-.6-2.9.3-4.5 1.3-2.3 1.4-2 2 3.8.3 3.5 1 6.6 1.3 7 .3.3 0 1.7-1 3-.8 1.4-1.3 3.3-1 4.4.4 1.8-1.3 2.6-2.7 1.2zm-364.6-1.4c-6.4-1.2-7.6-1.8-6.4-3 1.3-1.3 12.4 1.1 12.4 2.8 0 .7-.4 1.2-.8 1.2l-5.2-1zm355.3-1.3c-1-2.4 0-6.1 1.5-6.1 1 0 1.6 1.2 1.7 3.7.2 2.8-.1 3.8-1.2 3.8-.8 0-1.7-.7-2-1.4zm-90-.3c-1.2-1.2-.7-3.3.9-3.3.8 0 1.5.9 1.5 2 0 2-1.1 2.6-2.4 1.3zm192.6 0c-.3-.6-.2-18 .2-20.3 0-.2.5 0 1 .6 1.4 1.3 1.6 18.2.3 19.5-.6.6-1.2.7-1.5.2zm-340.6-1.4c0-1.3 6.9-8 8.2-8 2.3 0 1.8 3.4-.8 6.1-2.7 3-7.4 4-7.4 1.9zm63.7.4c-.3-.4-.6-1.7-.6-3 0-1.6.6-2.3 2-2.3 1.5 0 2 .7 2 2.4 0 2.3-2.1 4.1-3.4 2.9zm213.5-1.4c-.8-2.4.7-4.5 2.4-3.5.6.4 1.1 1.8 1.1 3.1 0 3-2.6 3.3-3.5.4zm118.7-.6c-1.5-4-1.6-9.5-.2-10 1.7-.6 3.3 3.8 3.3 8.8 0 4.5-1.6 5.1-3 1.2zm-292.5.6c.2-.6.8-1 1.3-1 .6 0 1.2.4 1.3 1 .2.6-.3 1-1.3 1-.9 0-1.5-.4-1.3-1zm181-4.9c-3-6.4-3.4-9-1.2-9 1 0 1.5 1 1.5 3 0 1.7.7 3.3 1.7 3.8 1.2.7 1.7 2 1.5 4.3a17 17 0 0 1-.5 3.5s-1.4-2.4-3-5.6zm99 1c-1.1-5.1-.5-7.8 1.5-6.6 1.2.8 1.5 11.6.3 11.6-.5 0-1.3-2.3-1.9-5zm92.8 1c0-4.6 1.4-6 3-3 1.5 2.7.5 7-1.5 7-1 0-1.5-1.1-1.5-4zm-614.6 2c-1.1-.7-1.2-1.2-.4-2 1.4-1.4 5.8.5 4.9 2-.8 1.2-2.6 1.2-4.5 0zm56.8-3c-3-1.5-7-3.1-8.9-3.5-1.8-.4-4.1-1.6-5-2.6-1.8-1.9-1.8-2 1-2 1.4.1 3.8.8 5.2 1.6l4 2c6 2.6 12 6 12 6.7 0 1.5-2.7.8-8.3-2.1zm351.7-1.8-1.4-10.1c-.9-6-.4-9.4 1.3-8.8 1.5.4 2.5 7.1 2.6 16.4 0 8.2-1.5 9.8-2.5 2.5zm119.3 3.5c-.4-1-.4-4.5-.1-7.7.4-4 .1-7.5-1-11-1.3-4.8-1.2-7 .5-7 .4 0 1.5 3.2 2.5 7.2 1.6 6.6 1.6 8 .3 13.8-1 4.7-1.6 6-2.2 4.7zm-83-.4c-1-1-.8-11.3.3-11.3.6 0 1 2.6 1 6 0 6 0 6.5-1.3 5.3zm56.1-.1c-.3-.6-.6-2-.5-3.4 0-1.3-.3-3.3-.6-4.6-.6-1.6-.3-2.2.7-2.2s1.7 1.5 2.2 4.7c.6 4.4-.4 7.6-1.8 5.5zm-510.2-.8c-1.4-1.4-.7-2.6 1.3-2.2 1.1.1 2 .7 2 1.3 0 1.2-2.4 1.8-3.3.9zm345.2-5.2c0-6.2 1-9 3-7.8 1.2.8.9 10.3-.4 12.4-1.7 2.6-2.6.9-2.6-4.6zm178 5c-.3-.3-.6-2.4-.6-4.6 0-4.5 1.4-3.9 2.4 1 .5 3.2-.4 5-1.7 3.7zM212 317.5c-1.4-.8-3.1-1.5-4-1.5-.7 0-2.3-1-3.5-2-2.5-2.3-10.9-4-19.9-4-5 0-5.8-.3-5.5-1.8.7-3.7 19-1.8 30.4 3.1a91 91 0 0 0 10.8 4.1c1.5.4 2.7 1.3 2.7 2.1 0 2-7.5 2-11 0zm165 .5c-.4-.5-2.5-1.5-4.7-2-4.3-1.2-11.3-5-9-5 .8 0 1-.7.6-2-.8-2.5 1.7-2.7 6-.5 3.3 1.7 15.6 4.5 15.6 3.5 0-1.3-6-5-7.3-4.5-1.5.6-10.3-3-11.3-4.6-.4-.6-2.1-2-3.8-3-2.8-1.7-3-2-1-2 4 0 13.2 4 13.9 6.2.5 1.5 1.2 1.8 3.8 1.4 2.2-.4 4.6.2 7.7 1.8 4 2 4.5 2.7 4.5 5.8 0 3.4 0 3.4-4.4 3-2.4-.1-6.2-1-8.5-2-5.3-2.3-13.2-3.8-12.3-2.3.4.6 2.2 1.5 4 2.1 1.8.6 5 2 7.2 3.1 3 1.5 3.4 2 1.7 2-1.2 0-2.4-.5-2.7-1zm437-1.3c-.9-3.6 1-5.8 2.5-3 .8 1.5.7 2.5-.4 3.9-1.3 1.8-1.4 1.7-2-1zm-35.2-2c-1.9-5.4-2.5-9.5-1.5-10.1 2.3-1.4 5 7.2 3.4 11.3-.7 2-.8 2-1.9-1.1zM279.7 316c-.4-.6.7-1 2.4-1s3.1.4 3.1 1c0 .5-1 1-2.4 1s-2.8-.5-3.1-1zm30.6 0c-.8-.6-3.1-1-5-1a83.3 83.3 0 0 1-23.9-5.8c-.5-1.7 2.8-1.5 7 .2 2 .8 7 1.7 11.4 2 8.4.7 15.7 2.6 16.3 4.5.4 1.3-3.8 1.4-5.8 0zm389.7-.5c-.7-1.8.1-4.5 1.4-4.5.5 0 1 .9 1 2v2.7c.1 1.5-1.9 1.3-2.4-.2zm7.3-1.5c0-2 .5-3 1.5-3s1.5 1 1.5 3-.5 3-1.5 3-1.5-1-1.5-3zm51.2.2c0-4.8 1.1-7.4 2.9-7 4.5 1.4 4.6 1.4 4.3-2-.3-2.5 0-3.2 1.4-3.2s1.6.7 1 5.2l-.6 7.5c0 2.8-2.7 3-3.5.3-.4-1.1-1-2-1.5-2-.4 0-1 .9-1.3 2-.8 3-2.7 2.4-2.7-.8zm35 .5c0-1.3-.5-2.8-1-3.5-1.3-1.1-.6-4.2.8-4.2.7 0 3.3 6.9 3.3 9 0 .5-.7 1-1.5 1-1 0-1.6-1-1.6-2.3zm-74-3.8c-1.6-6.4 1.2-11.4 6-10.8 1.6.3 2.5 1.2 2.7 2.7.5 3.4-1.3 4.9-3.3 2.8-2.7-2.7-3.9-2-3.3 2.1.3 2 .7 4.4 1 5.2.1.7-.2 1.5-.9 1.7-.6.3-1.5-1.4-2.1-3.7zm24.2 2.9a41.2 41.2 0 0 1-1.3-17.3c1.4-1 2 1 3 9.2.9 7.7.3 10.6-1.7 8zm123-2.8c-1.2-4.6-1-7.2.6-7.7 1.3-.5 3.8 6.6 3.3 9.2-.7 3.5-2.7 2.7-3.9-1.5zm-9-3.6c0-4.8.3-6.5 1.3-6.2.7.3 1.3 2.8 1.5 6.6.3 5 0 6.2-1.2 6.2-1.3 0-1.6-1.3-1.6-6.6zm-7.3 4c-1-1-.9-12.4.2-12.4.7 0 1.9 4.9 2.4 10.4.2 2-1.4 3.1-2.6 2zm-185.5-1c-1-1.1-.8-10.4.2-10.4 1.5 0 1.9 1 2.2 5.9.3 4.1-.8 6-2.4 4.4zm14-.1c-1.3-1.3-.7-5.3.8-5.3 1 0 1.5 1 1.5 2.4 0 2.5-1.2 4-2.3 2.9zm7.4-2.3c0-1.7.4-3 1-3 .5 0 1 1.3 1 3 0 1.6-.5 3-1 3-.6 0-1-1.4-1-3zm50.6-4c-.7-7.3-.3-9.2 1.6-7.4 1.5 1.5 1.7 13.6.3 14-.8.3-1.4-2-2-6.6zm105.4 3.8c-1.1-5.5-.8-12 .6-11.6 1.4.5 3 10.2 2.2 13-.9 2.7-2.1 2.1-2.8-1.3zM304.8 309c-.4-.5-2.5-1-4.8-1-7.4 0-27.3-3.2-28.8-4.7-2.6-2.4.5-3.3 5.7-1.7 2.6.8 5.6 1.4 6.7 1.3 2 0 2 0-.4-2l-2.5-2 6 .5 7.9.6c1 0 2.9.5 4.2 1 1.5.6 3.4.5 5.1 0 2.1-.9 4-.6 9.4 1.5 3.7 1.4 7.6 3.2 8.6 4 1.8 1.3 1.8 1.4-.7 1.4-1.5 0-4.4-.7-6.5-1.6-4.9-2-15.4-2.9-13.6-1 .7.6 3 1.2 5 1.2 2.6 0 3.7.4 3.7 1.5 0 1.7-4 2.6-5 1zm-7-5c.3-.6-1.3-1-4.3-.9-4.6.1-4.7.2-1.3.9l4.2.8c.4.1 1-.3 1.3-.8zm37.8 2.8c-6.8-3.4-8.2-5.5-3-4.4 4.4.8 12.3 4.8 12 6-.3 2-2.8 1.5-9-1.6zm336.4-.5c-.6-4.2.5-6.4 2.3-4.7 1.3 1.4.8 7.6-.7 8-.7.3-1.4-1.1-1.6-3.3zm214.2 2.3c-1.1-2.9-1-11 .2-11.3 1.4-.5 2.1 1.6 2.6 7.6.3 4.4-1.6 7-2.8 3.7zm-419.8-.2c-.4-.4 1.2-2.2 3.4-4 4-3.4 11-6 13-5 1.7 1.2 1 2.5-1.8 3.2-1.6.3-5.1 2-8 3.5-5.5 3.1-5.7 3.2-6.6 2.3zm-200.8-1.6c-2.2-.5-5.5-1-7.5-1.3a48.7 48.7 0 0 1-15.7-4.4c-4.6-2.3-9.3-2.8-11-1-1.2 1-7.3.8-21-1-7.9-.9-17.9-4.2-23.5-7.7-2-1.2-5.9-3.4-8.7-4.8-5-2.6-6.7-5-4-5.9.6-.2 3.2.7 5.7 2 18.6 10.3 21.5 11.5 29.6 12.4a62 62 0 0 0 18.4.3c3.8-.5 8.2 0 14.6 1.4 15.4 3.4 20 4.4 21.1 4.1a14 14 0 0 1 3 0c1.5 0 1.6.3.5 1.6-1 1.3-.8 1.7 1.9 2.7 1.7.7 3.2 1.6 3.2 2 0 1-1.2.9-6.6-.4zm80.4-1c-2.1-1-3.7-2.1-3.5-2.3.5-.5 10.7 3 11.6 3.8 1.5 1.5-4.5.4-8-1.4zm529.7-.2c0-1.3-.3-3.8-.6-5.5-.5-2.4-.3-3.1.9-3.1 1.8 0 2.8 4.2 2 8.2-.6 3.4-2.3 3.7-2.3.4zm17.4.8c-.7-1.2-.8-2.6-.3-3.5 1.2-2 2.2-.6 1.8 2.7-.3 2.7-.4 2.8-1.5.8zm-536.3-.3c-3.2-3-27.7-11-30.8-9.9-.6.3-3.4-.2-6-1-2.9-.8-6.5-1.1-8.6-.8-2.4.4-5.2 0-8.2-1-2.4-1-6.5-1.9-9-2a142.7 142.7 0 0 1-37-7.4 4890 4890 0 0 1-16.5-4.4c-3.2-.9-6.3-1.4-6.8-1-.4.2-2.5 0-4.6-.6l-7.5-1.6c-2.5-.3-3.8-1-3.8-2.1 0-1.3.8-1.4 4.3-1l11.8 1.6c4 .5 9.4 1.6 11.7 2.4 2.3.8 6.3 1.8 9 2.2 2.6.4 6.9 1.7 9.3 2.8a90.4 90.4 0 0 0 27.6 5c3.9.2 9.5.8 12.4 1.5 3 .6 7 1.2 8.9 1.2 2 0 4.9.6 6.6 1.4 1.8.8 6.6 1.6 10.7 1.8 6.4.2 8.8 1 16 4.4 4.7 2.3 10.3 4.9 12.3 5.7 2.1 1 3.8 2.1 3.8 2.7 0 1.2-4.3 1.3-5.6 0zm346.5-.6c0-1 .5-1.5 1-1.3.6.2 1.1.7 1.1 1.3 0 .5-.5 1-1 1.3-.6.2-1.1-.4-1.1-1.3zm104.5-.4c-1.7-1-2.5-11.3-1.6-18.6l.9-6 5-1.7c2.7-1 5.6-1.8 6.4-1.8.8 0 3-1.2 4.8-2.6 1.8-1.4 3.8-2.3 4.3-2 2 1.3.9 3.7-2.4 5a12 12 0 0 0-4.1 2.5c-.3.6-1.7 1-3 1-1.2 0-3.6.5-5.4 1.1-4.3 1.6-5.8 7-4.1 15 1.3 6.5 1 9.3-.8 8.1zm16.3 0c-1.3-2.2-1.7-9.9-.6-10.6 1.7-1 2-.6 2.7 5.8.5 3.8.3 5.7-.4 5.7-.6 0-1.3-.4-1.7-1zm-236.4-1.5c-.3-.7-.1-2 .3-2.7 1.2-1.9 3.5.3 2.6 2.5-.7 2-2.2 2-3 .2zm36.8-2.7c.7-4.4 2-6.8 3.1-5.7 1 1-1 9.1-2.4 9.6-1.1.3-1.3-.4-.7-4zm-80.2 2c-.9-1.4 1-3.3 2.5-2.5.6.4 1 1 1 1.5 0 1.4-2.8 2-3.5 1zm-158.3-1c-.4-.5 0-1 .9-1s1.6.5 1.6 1c0 .6-.5 1-1 1s-1.2-.4-1.5-1zm368-.4c-.7-2 .3-4.7 1.5-4 .5.3 1 1.4 1 2.5 0 2.4-1.7 3.4-2.4 1.5zm44.2-2.3c-1-5.6-.8-11.2.3-11.2.6 0 1.2 1 1.5 2.2 3 13.2 3 12.8.7 12.8-1.4 0-2-1-2.5-3.8zm18 3.1c-1.3-2.2-1.8-12.4-.6-13.9 2-2.5 2.8-1.6 2 2.3-.6 2.5-.5 4.9.2 7 .9 2.4.9 3.6.1 4.4-.6.6-1.3.7-1.6.2zm-704.5-1c-12.8-4-15.4-5-16.7-7a51.1 51.1 0 0 0-16.4-11.4 20.3 20.3 0 0 1-7.8-6.2c-1.2-1.9-3.4-4-4.9-4.8-1.5-.8-4.6-2.8-6.8-4.6a61.6 61.6 0 0 0-9.9-5.9c-3.2-1.5-7.3-4-9-5.4-5.4-4.6-16-8-18.5-5.8-.8.6-3 1.7-5 2.4-3.3 1.1-4.2 1-8.2-1-4-2-4.8-2.8-6.5-7.9L0 238l3-2.3c7.1-5.6 16-5.5 15.3.1-.2 2-1 2.7-2.8 3-4.5.6-4.1 1.7 1 3 2.9.8 5.4 2 5.6 2.6.3.7 1.4 1 2.5.8 4-1 16.6 3.8 22.5 8.6 2.8 2.3 8 5.1 9.6 5.1.7 0 3.2 1.9 5.4 4a38 38 0 0 0 7.6 5.8c1.9 1 4.6 3.5 6 5.6 1.8 3 4.1 4.7 9.5 7.1 4.2 2 9 5.1 11.6 7.7a17 17 0 0 0 10.4 5.8c8.6 1.8 10.5 2.7 10.5 5 0 2-2.2 2.6-6 1.4zm-96.2-53.9c0-1-1-1.5-3.2-1.5-2.6 0-2.9.2-1.8 1.5.7.8 2 1.5 3.1 1.5 1 0 1.9-.7 1.9-1.5zm682 50c-.9-3-1-5.2-.3-6.3 1-2 1.5-1.1 2.5 5.1.8 5 .8 5.2-.2 5.5-.4.2-1.4-1.8-2-4.3zm93 2.7c-.5-1.1-1-4.2-1-6.8 0-4.7.1-4.8 1.4-2.3 2 3.6 3 9.6 1.7 10.4-.5.3-1.5-.3-2-1.3zm-369-1.5c-.5-1.6-2.2-2.9-4.7-3.7a573.6 573.6 0 0 0-41-13.5 293 293 0 0 1-11.7-3.5c-6.5-2.2-8.8-2.4-8.8-.9 0 1.4-4.6.4-10-2.2-4.6-2.2-10-3.3-23.5-4.8-5-.5-13.1-2-18-3-5-1.2-10.7-2-12.6-1.8-2 .3-4.4 0-5.5-.4-1.1-.4-6-1.2-10.9-1.7-5.4-.6-9.4-1.5-10.5-2.5-1-.9-5.2-2-10-2.6-7-.9-13.1-2.8-25.8-8-3-1.3-15.3-2-18.9-1l-6 1.4c-5.2 1.1-1.5 2.3 10.9 3.5 11.7 1.1 23.5 3.8 23.5 5.3 0 .8-1.7 1.1-3.5.7-.5 0-5-.2-9.8-.1-6 0-8.6-.3-8.1-1 1-1.8-1.8-2.8-7.7-2.9-3.1 0-7.8-.7-10.6-1.5a43.9 43.9 0 0 0-16.4-.8l-11.5.6 6.3 1.8c3.5 1 9 2 12.4 2.4 3.4.4 7.7 1.3 9.7 2 7.3 2.8 14.2 3.4 38.6 3.5 22 0 25.5.3 29.6 2 2.5 1 7.5 2.1 11 2.4 3.5.2 6.9 1 7.5 1.6.6.6 3.7 1 7 1 4.4 0 6.9.6 10.2 2.6 3.1 1.8 6.5 2.7 12.2 3.2 6.3.6 7.9 1 8.2 2.5.7 3.6-14 1.7-22.8-3-1.5-.6-4.6-1.2-7-1.2-2.3 0-5-.5-6-1-1-.6-5.2-1.5-9.3-2-4-.7-9.6-1.9-12.3-2.7A40 40 0 0 0 251 268a283.5 283.5 0 0 1-68.6-7.3c-2.2-.4-7-2-10.5-3.3a72.5 72.5 0 0 0-11-3.2c-2.5-.4-5-1-5.6-1.4-.5-.4-2.9-1.3-5.2-2-2.4-.6-4.7-2-5.3-3.1-.8-1.5-2.1-2-5.1-2-5.5 0-4.7 2 1.6 3.8a23 23 0 0 1 7 3.2c1.1 1 5.4 3.6 9.5 6 6 3.4 9.9 4.7 18.8 6.5 6.2 1.3 12.5 3.1 14 4.2 2 1.3 4.2 1.7 7.6 1.5 6.2-.4 14 1.4 16.8 4 3 3 1 4.8-2.6 2.4-1.7-1.1-5.4-2-9.4-2.3a40.4 40.4 0 0 1-13-2.7c-23.2-5-28.8-6.9-36.5-12a95.1 95.1 0 0 0-12.7-7l-8.5-4c-5.6-2.7-22.7-4.8-24.5-3-1.6 1.6 13.2 9 23.5 11.6 2.2.6 8.2 3.1 13.3 5.6 8.4 4.2 9.1 4.7 7.7 6.2-1.2 1.2-1.8 1.3-3.3.3-1-.7-3.3-2-5.2-2.9l-7.7-3.5c-2.3-1-5.3-1.9-6.6-1.9-1.3 0-3.2-.6-4.3-1.3a87.2 87.2 0 0 0-16-6.7c-2.8.1-12.5-3.7-12.5-4.8 0-.7-.8-1.5-1.8-1.9-1-.3-2.9-1.5-4.2-2.5-2.2-1.7-4-1.9-14-1.7-10.9.3-11.6.1-11.6-1.6 0-1.6 1-2.1 5.5-2.8 8.4-1.3 20 0 23.4 2.4 1.6 1.2 3 2 3 1.8l2-3c2.2-3.7 7.6-4.2 13-1.3 3 1.5 6.7 2.3 13 2.7 12.2.7 16.7 0 17.8-2.8 1-2.5 3.3-3.7 5.5-2.8 1.2.4 1.4 1.4 1 4l-.7 3.3h4c2.2 0 5.4.3 7.1.6 2.7.6 3.1.4 3.1-1.4 0-1.5-1-2.6-3.5-3.6-3.9-1.6-4-2.2-2.1-8.5 1-3.4 2-4.6 4.6-5.7 4.5-1.9 5-1.8 5 1 0 1.4.5 2.8 1.1 3.1.6.4 1.8 2.5 2.6 4.6.9 2.2 2.5 4.4 3.5 5 2.8 1.5 2.5 5-.5 5-2.7 0-8 3.6-7.1 5 .6 1 7.8 1.2 11.2.3 2-.5 2.2-1 1.6-5-.7-5 2.3-12.5 5.7-14.6 1.1-.7 2-1.8 2-2.4 0-1.6 8.1-2.3 8.7-.8.3.7 0 2.2-.7 3.4-1.3 2.5-1.3 2.5 2.4 3.4 2.5.6 2.8.5 2.2-1-1.5-3.9-3-13.1-2.8-18.3 0-5.2 1.1-7 4-7.1 1.5 0 1.7 4.6.2 5.5-1.2.7-1.3 4.5-.2 4.5 1.8 0 4.3-8 4.3-13.9 0-4.3.4-6.3 1.3-6.7 2.1-.8 8 2.9 9.5 5.9a19 19 0 0 0 4.7 5.3c3.7 2.8 4.4 4.8 2 5.8-2.6 1-1.6 3 2.2 4.8 4.6 2.2 5.4 1.6 2.3-1.7-2.6-2.7-2.5-3.2.5-3.5 3.8-.4 4.5 0 4.5 2.5 0 2 .5 2.5 2.4 2.5 2.6 0 7.4 4.2 8.7 7.8.6 1.3 1.7 2.2 3 2.2 1.8 0 2-.5 1.8-3.2-.3-3.1-.2-3.3 3.4-3.6 4.5-.4 7.8 1.2 7.8 3.8 0 1.6-.5 1.9-2.8 1.4-2-.4-3 0-3.7 1.4-4.1 7.7-4 7.2-2.2 9 .9.9 3.2 1.6 5.2 1.6 2.2 0 3.5.5 3.5 1.3 0 1.8 2.3 1.6 7.3-.6 2.3-1 5.3-2.1 6.7-2.3 3.3-.4 4.1-3.8 1-3.8-2.1 0-2.1-.1-.6-2.4 1.7-2.7 1-4-1.4-2.6-1 .6-2 .4-3.2-.7-2.2-2-4.6-1-5.4 2.2-.8 3.4.1 4.2 2.4 2.2 2-1.8 4.2-2.2 4.2-.8 0 1.6-3.7 4.1-6.3 4.1-3.9 0-7.7-2-7.7-4.2 0-1 .7-1.8 1.6-1.8.9 0 2.9-1.4 4.4-3 2.7-2.9 3.1-3 8.7-2.4 3.2.4 6.6 1 7.5 1.5 1 .5 3.1.6 4.9.3 2.8-.6 3.6-.2 7 3.7 4.2 5 1.7 5 19.5-.6a118 118 0 0 1 15.4-3.5c4-.6 8.1-1.4 9-1.9 1-.5 14.1-1.4 29.3-2 15.1-.7 29.6-1.6 32-2.1 2.5-.5 11.6-1.6 20.1-2.4 8.5-.9 18.7-2 22.6-2.6 9-1.3 29.2-4 37.6-5 3.5-.5 20.7-1.2 38-1.6 27.3-.6 33.4-.4 44.7 1A109 109 0 0 1 573 210c.9.5 5.8 1.1 11 1.4 5.1.4 12.2 1.3 15.6 2.2 5.2 1.2 9 1.3 22 .5l17.4-1.2 25.2-.9c22.5-.6 24-.7 26.8-2.9 1.7-1.2 3.7-2.2 4.6-2.2 2.3 0 9.6-3.1 9.6-4.1 0-.5.6-1 1.3-1 .8 0 2-.5 2.5-1.3a34 34 0 0 1 12-2.6c5.9-.7 11.5-1.7 12.5-2.2 2.3-1.2 29.6-4 32-3.3 2.8 1 1.2 2.5-2.5 2.5-4.8 0-24.6 3-29.9 4.6-2.5.7-8.2 1.7-12.5 2.2a28 28 0 0 0-13 4 52.4 52.4 0 0 1-8.9 4.2c-2.1.7-5.3 2-7 3a79.6 79.6 0 0 1-17.6 5.7c-3.3.6-6.9 2.3-10.6 5a32.5 32.5 0 0 1-7 3.4 17 17 0 0 0-4.5 2c-.7 1-8.2 5-16.3 9a39.3 39.3 0 0 0-7.9 4.6c-1.2 1.4-2.9.9-2.8-1 0-1.3 3.8-3.8 11.5-7.4 2.7-1.4 5.7-3 6.5-3.7.8-.8 3.3-2 5.5-2.7a28 28 0 0 0 6.4-3.1c1.3-1 3-1.8 3.6-1.8.7 0 1.8-.6 2.5-1.4.6-.8 2.5-1.8 4.1-2.1 1.7-.4 2.7-1.1 2.4-1.7-.4-.5-1.4-.6-2.3-.3a70.7 70.7 0 0 1-14.7 3.5c-1.3 0-2.7.5-3 1-.3.6-1.7 1-3 1-2.7 0-14.6 4.5-18.6 7a170 170 0 0 1-28.3 13c-2.8 0-9.3 2.5-10.2 4-.3.5 2.4 1.1 6.2 1.5 17 1.5 18 1.9 15 4.4-1 .9-2.8.9-6.5 0-2.8-.5-9.5-.8-15-.6-15.4.6-49.7 3.7-51.9 4.7-2.2 1-6.2 1.6-20.5 3a66.9 66.9 0 0 0-22.2 4.6c-1.5.8-5 1.9-7.8 2.5-2.8.6-5.1 1.4-5.1 1.8 0 .4-2 2-4.3 3.4a25 25 0 0 0-6.2 5.7c-3.2 4.8-12 9.2-23.1 11.5-3.6.8-8.2 2.7-11.5 5-3 2-6 3.6-6.7 3.6-.6 0-1.4.6-1.7 1.5-1 2.3-3.6 1.7-4.6-1zm11.5-6.6c1.1-1.2 3.5-2.8 5.3-3.6 1.8-.7 4-2 4.9-2.9 1-1 2.7-1.3 5.8-.9 3.3.4 5.2.1 7.5-1.2 1.7-1 3.1-2.3 3.1-3 0-2.3-5-5.1-12-6.8-4.2-1-8.5-2.2-9.8-2.7-1.5-.6-2.6-.5-3.6.6-1.7 1.6-4.2 1-5-1.1a2.5 2.5 0 0 0-2.2-1.5c-.9 0-4-1-7-2.5-3-1.3-6.5-2.5-7.5-2.5-1.1 0-2.8-.4-3.8-1-1-.5-6.5-2-12.2-3.5l-16.6-4.2c-6.2-1.5-13.8-6.3-10.2-6.3 1 0 5 1.1 9 2.4 4 1.3 10 3 13.2 3.6 6.2 1.2 19 4.5 23.6 6l14.5 4.5c6.7 2 12.9 4.1 13.8 4.6 2.4 1.3 11.5 1.2 10.2 0a21 21 0 0 0-6-2.3c-5.6-1.4-7.2-3.1-3.4-3.6 4-.4 11.7 3.4 12.4 6.2.3 1.3 1.5 2.6 2.6 3 1.2.2 2 1.3 2 2.6 0 3.8 4 2.4 9.2-3.1 3.7-4 4.6-5.5 3.7-6.5-1.6-2-3.4-1.7-5 .8l-1.5 2.2-7.7-2.8c-4.3-1.6-8-3.2-8.3-3.7-.9-1.4 6-1 10.7.6 2.3.9 4.5 1.3 4.7 1 .8-.7-8.7-4.5-11.4-4.5-3.8 0-8.4-2.7-8.4-5 0-1 .4-2 1-2 .5 0 1-.4 1-.9s-.8-.7-1.8-.5c-3 .8-16.6-1-17-2.2-.2-.8.4-1 1.6-.7 3.7 1 3.1-1.5-.8-3.5-3.2-1.7-5.8-2-14.3-2-5.7 0-17-.6-25.3-1.2-11.9-1-15.4-.9-17.3.1-1.3.7-2 1.6-1.6 2 1.4 1.4 17.7 3 18.4 1.9.8-1.4 5.5-.3 7 1.6.7.8 2 1.4 2.9 1.4 1 0 2.1.4 2.6 1 .5.4 4.1 1 8 1.4 3.9.2 8.3.8 9.8 1.2 4.1 1 3.3-1-1.3-3-5-2.3-5.1-3.6-.4-3.6 4.2 0 7.4 1.5 7.4 3.5 0 .8 2.4 2.5 5.3 3.9 11.3 5.4 11.9 8.2 1 4.9a73.4 73.4 0 0 0-24.1-3.6c-2.1.4-4 0-5-.9-1-.8-5.1-2-9.3-2.7-6.7-1-12.8-2.2-25.5-5-2.5-.4-4.7-.4-5.7.2-1.1.8-2.9.4-6.3-1.3-3.1-1.5-6.8-2.3-10.4-2.4-5 0-5.7.2-5.7 1.8s.8 2 5 2.1c5.7.2 20.6 5.7 24.7 9 1.5 1.3 4.9 2.8 7.6 3.4 9.2 2.2 13.3 3.6 13.3 4.4 0 1-3 1-16.5-.3a78.4 78.4 0 0 1-22-3.7c-7.3-2.2-9-5-2.5-3.9 2.4.4 4.9 1.1 5.5 1.7.6.5 4.5 1.1 8.5 1.4l7.5.5-3.5-1.7c-2-.9-5.3-2.2-7.5-2.9-2.2-.6-5.9-1.9-8-2.7-2.3-.9-6.1-1.6-8.7-1.6-6 0-10.6-1.7-11.2-4-.4-1.6-1.5-1.8-9.9-1.6-10.7.2-14.9 1.1-14.9 3.2 0 1.1.7 1.4 2.5 1 1.4-.4 5.8 0 9.8.8a74 74 0 0 0 9.8 1.5c3 0 6.9 2.5 5.8 3.6-.4.4-4.3.2-8.6-.5-16.7-2.6-26.4-3.1-28.7-1.5-2.3 1.6-5.6 2-5.6.5 0-.5.5-1.3 1-1.6.7-.4.4-1.2-.8-2-1.9-1.4-10.2-1-10.2.5 0 .9 4.6 3 6.5 3 .8 0 1.5.5 1.5 1 0 1.3-6 1.3-9.3.1a85 85 0 0 0-11.8-2c-5.2-.7-9.6-1.3-9.8-1.5-.1-.2 0-1.5.4-3 .8-3.1 6.2-5 10.2-3.5 1.8.7 3.5.7 5.4-.2 4.5-1.8 3.3-2.7-3.4-2.4-8.9.4-12.5 1.4-13.1 3.6-.3 1-1.6 2.3-3 2.8-1.3.5-2.7 1.7-3 2.6-.6 1.5-1.6 1.6-6.7 1-5.2-.6-6-.4-6 1 0 1.2 1.1 1.5 5.7 1.6 8.8.1 16.5 1.4 17.7 3 1 1.4 12.4 3.5 23.2 4.4 8.4.6 25 3.7 27.8 5.2a16 16 0 0 0 7.1 1.2c5.2-.3 16.6 1 19 2.3 1 .6 4.8 1.4 8.3 2 6 .8 18.4 4 28.2 7.4 5.5 1.8 5.3 1.8 5.3-.6 0-2.6 3.5-2.6 5.8.1 2 2.4 6.5 5 8.5 5 .8-.1.7-.6-.5-1.4-1-.8-1.7-1.7-1.7-2 0-1 2.7-.2 15 4.7 7.2 2.9 9.7 4.3 8.2 4.5-1.3.2-3.1-.4-4.1-1.3-1-.8-2.7-1.5-3.9-1.5-1.1 0-2.4-.5-2.7-1-.4-.6-2.3-1-4.3-1H401l6 3c3.3 1.6 6.5 3 7.1 3 .6 0 2.7 1 4.7 2.4 2 1.3 4.4 2.6 5.4 2.8 2.3.5 6.2-1.4 8.8-4.2zm-5-5.2a279 279 0 0 1-15-5.8c-6-2.7-21-7-27.6-8-12.2-2-12.3-2-11-3.5 1.5-1.9 14.2-1.3 17.5.8 1.3.9 3.6 1.6 4.9 1.6 1.3 0 6.5 1.8 11.4 4 5 2.3 9.7 4 10.4 4 1.5 0 6.9 1.7 12.2 4 6 2.4 3.5 5-2.8 3zm9.6-7.8c-3.5-1.2-5.4-2.3-5.2-3.2.5-2.1 2.3-2.8 4.9-1.8 1.3.5 3.9 1 5.7 1 4 0 4.4.3 3.8 3.5-.5 3-1.8 3-9.2.5zm13.5 0c-.3-.6 0-1 .9-1 .8 0 1.8.4 2.1 1 .3.5 0 1-.9 1-.8 0-1.8-.5-2.1-1zm-32.5-4.5c-.7-.8-3.6-2-6.6-2.5-5.4-1.2-9.5-3.4-8.4-4.5.8-.9 8 1 14.3 3.6 2.6 1 5.5 1.7 6.3 1.4 1.8-.7 4.6 1.2 3.8 2.6-1 1.4-8.1 1-9.4-.6zm-48.2-1.6c-1.2-.7-1.1-1 .7-1 1.2 0 2.5.5 2.8 1 .8 1.3-1.5 1.3-3.5 0zm-3.4-3.7c-.3-.2-6.4-.8-13.6-1.3a68.7 68.7 0 0 1-14.4-1.7 43 43 0 0 0-9.2-2.7c-4.4-1-9.4-2.1-11-2.6-1.7-.5-5.4-1.2-8.3-1.5-3-.4-5.3-1.1-5.3-1.6 0-1.5 5.3-2.2 8.5-1 1.8.6 5 1.2 7.1 1.2 2.2 0 5.8.7 8 1.6a75 75 0 0 0 25.5 5.2c6.4.5 13.2 1.5 15 2.3l3.6 1.5-2.7.5c-1.5.3-3 .4-3.2.1zm28.6-3.3c.2-.6.8-1.1 1.4-1.1.5 0 1 .5 1.3 1 .2.7-.4 1.1-1.3 1.1-1 0-1.6-.4-1.4-1zm38-2.2-5.6-2.3a39 39 0 0 0-6.7-2c-2.1-.4-3.8-1-3.8-1.6 0-1.2 1-1.1 7.2.5a51.2 51.2 0 0 1 14.9 6.1c0 .9-3.3.5-6-.7zm48-1.7c0-.6-1.8-1.5-4.2-2.2-2.3-.7-4.7-1.6-5.2-2-1.8-1.6 0-1.8 4-.4 5 1.8 11.5 2 11.5.3 0-.8-1.8-1.3-5-1.4-3.4-.1-5.9-.8-7.1-2-1.7-1.4-2.3-1.5-4.3-.5-1.2.7-4.5 1.1-7.2 1-4.9-.4-5-.4-5.6-4.1-.6-4.1-1.5-5.5-2.6-4.4-.4.4-.2 1.6.5 2.7 1 1.6 1 2 0 2.4-5.5 1.6-5.5 1.6-3.4 3 1 .8 4.4 2.2 7.5 3 3.1.9 7.9 2.5 10.6 3.5 5.5 2 10.6 2.6 10.6 1zm15.1-4.7c0-1.7-2.1-1.4-2.8.4-.2.7.4 1.2 1.2 1.2.9 0 1.6-.7 1.6-1.6zm9-.7c0-1.8-4.7-4-5.5-2.6-.4.6-.4 1.7-.1 2.5.7 1.8 5.6 2 5.6 0zm18.8-2c1.3-1.3-.9-2-2.7-.9-1 .7-3.3 1-4.9.6-1.8-.4-3.2-.1-3.7.7-.6 1 .6 1 5 .7 3-.2 5.9-.7 6.3-1.1zm-43.8-4.6c0-1.2-2.9-2.2-3.5-1.1-.3.5 0 1 .7 1.4 2 .8 2.8.7 2.8-.3zm85.2 0c7.5-.8 10.8-1.7 17.4-4.9 4.5-2.1 10-4.5 12.2-5.1a145 145 0 0 0 14.1-6.2c5.6-2.7 10.8-4.9 11.6-4.9.9 0 2.3-.9 3.3-1.9 1-1 2.8-2.2 4-2.5a120.9 120.9 0 0 1 26-6.9c1.6-.1 3.2-.8 3.4-1.6.4-1.1-1-1.3-8-.8-39.3 2.9-41.1 3-52 1.3-6-.9-13.1-1.6-16-1.7-3 0-7.7-.5-10.5-1-20.4-4-22.5-4-57.1-3.5-18.8.2-37.5 1-41.7 1.6l-11 1.4a306 306 0 0 0-24.9 3.7c-7.8 1.7-35.3 4.2-66.3 6-30 1.6-49.7 4.3-61.7 8.4a29 29 0 0 1-6.5 1.5c-2.2 0-3.2 1.3-2.5 3.3.5 1.2 1.5 1.3 5.3.5a49 49 0 0 1 9-1c9.6.2 12.8.5 13.3 1.2.2.4 3.6.4 7.5 0 3.9-.5 8-.7 9-.4 1.1.2 13.8.6 28 .9 14.4.3 32.5 1 40.2 1.7a716 716 0 0 0 39 1.3c26.5.3 45.4 1.8 50 4.1 1.4.8 5.4 1.4 8.7 1.4 3.3 0 7.8.7 10 1.6 7 2.8 30.6 4 46.2 2.5zm-291.8-1c0-.6-.9-1-2-1s-2 .4-2 1c0 .5 1 1 2 1s2-.5 2-1zm29-2c1.3-2.4 1.4-6.8.2-7.5-.5-.3-1.4.1-2.1 1-.7.7-2 1.4-2.8 1.4-1.3 0-1.3.3.1 1.8 1 1 1.7 2.6 1.7 3.6 0 2.2 1.7 2 3-.3zm195.6 1c0-.6-.4-1-1-1-.4 0-1.1.4-1.5 1-.3.5 0 1 1 1 .8 0 1.5-.5 1.5-1zm-296.5-1.7c1.4-.4 1.8-1.6 1.8-5.9 0-3-.5-5.6-1-6-.6-.3-1 0-1 .8 0 .9-1.2 1.4-3 1.4-3.8 0-5.1 1.2-2.8 2.4 1 .6 1.7 1.6 1.7 2.4 0 2.3-3.5 2.7-8 .7l-4.5-1.9 6-3.2h-3.2c-2.5 0-3.3.4-3.3 1.7 0 1-.7 2.6-1.5 3.7-2 2.6-1.9 3.3.8 3.8 3.1.6 15.9.7 18 0zm43.9-.8c0-.8-1.5-1.6-3.5-2-2-.4-3.6-1-3.6-1.5 0-1 3.1-3.6 5.3-4.4 2.4-.8 2.2-2.7-.2-2.7-1.5 0-2.3-1-3.1-4.2a850 850 0 0 0-1.5-5.5c-.2-.7-1.5-1.3-3-1.3-2 0-2.6.6-3.1 3-.7 3.2-2.8 4-3.7 1.5-.7-1.7-3.3-2-4.2-.6-.3.6.8 2.5 2.5 4.4 1.7 2 3 3.9 3 4.3-.1 2.4-3.3 4.8-7 5.4-2.3.3-4.2 1-4.3 1.5-.2 1 13.3 2.7 14.3 1.9.2-.2-.2-2-.9-4-.8-2.2-1-3.9-.4-4.3.6-.3 1.4-2.6 2-5 .4-2.4 1.3-4.6 2-4.8 1.6-.5 2.6 9 1.3 12-1.7 3.5 1.2 7.7 5.2 7.7 1.8 0 2.9-.5 2.9-1.4zm206 .5c1.2-2-3.5-3.2-9.2-2.5-6.3.8-6 2.1.7 2.7l6.2.5c1 .1 2-.2 2.3-.7zm32.6-.5c0-.8-7.2-1.2-7.7-.4-.2.5 1.4.8 3.6.8 2.3 0 4-.2 4-.4zm-191.2-4.6c.7-2.7-.4-3.1-4.4-1.8l-5 1.6c-1 .3-.7.7 1 1.3 4.9 1.4 7.8 1 8.4-1zm-79-5c.8 0 1.5.7 1.5 1.5s.4 1.7 1 2c1 .7.2-8.5-.9-9.6-.3-.4-1.7-1-3-1.4-2.2-.7-2.3-.5-2 4.7.2 5.8 1.2 8.6 1.7 5 .2-1.2 1-2.2 1.7-2.2zm99.7 3c0-.5-.6-1-1.5-1-.8 0-1.5.5-1.5 1 0 .6.7 1 1.5 1s1.5-.4 1.5-1zm-92.6-8.8c-2.4-2.4-2.7-1-.8 3 1.6 3.3 1.7 3.4 2 1 .2-1.3-.3-3.2-1.2-4zm64.4 1.8c.1-1.4-.4-3.3-1.1-4.4-1.4-1.8-1.5-1.8-3.6.5-3.6 3.8-2.7 7.2 1.8 6.7 1.9-.2 2.6-1 2.9-2.8zm-79.7-7.5c-.4-8-.5-9.2-1-7-.3 1.1-1 3.9-1.8 6.2-1.5 4.4-1.1 5.6 1.4 5 1.1-.1 1.5-1.3 1.4-4.2zm18.5-.7c-.3-.7-1.5-1.3-2.8-1.3-1.3 0-2.5.6-2.8 1.3-.2.8.7 1.2 2.8 1.2 2.1 0 3-.4 2.8-1.2zm-10.8-5.3c0-.8-1-1.5-2-1.5-2.2 0-2.7 1.5-.8 2.3 2.2 1 2.8.7 2.8-.8zm-.7-11c.6-1.4 0-2.5-1.5-2.5-.5 0-.8.9-.8 2 0 2.3 1.5 2.7 2.3.6zm534 91.6c0-1.1.5-2 1-2 1 0 2.1 2.6 1.3 3.4-1.2 1.2-2.2.5-2.2-1.4zm33.7-.3c-1.2-6.2-1.3-10.7-.2-10.7 1.3 0 4 10.6 3 12.1-.9 1.6-2.3.9-2.8-1.4zM378 299c-.3-.6 0-1 1-1 .8 0 1.5.4 1.5 1 0 .5-.4 1-1 1-.5 0-1.2-.5-1.5-1zm311.8 0c-1-1.6.4-6.2 1.6-5.8.6.2 1 .6 1 1v3.3c0 2.5-1.5 3.3-2.6 1.4zm-57.7-2.6c-1-3-1.2-8.6-.3-16.2.5-4.2 1-5.3 2.5-5.3 2 0 2.3 3 1 11.2-.6 3.3-.4 5.7.5 8 1.8 4.2 1.7 4.9-.7 4.9-1.2 0-2.4-1-3-2.6zm15.3 1.4c-2.5-2.5-.4-20.9 2.4-20.9.8 0 1.4 1.6 1.6 3.8.2 2.8.9 4 2.6 4.7 2.7 1.2 3 2.6.4 2.6-3.9 0-5.7 4.3-2.2 5.3 2.8.7 2.5 3.5-.6 4.7-3.1 1.2-2.8 1.2-4.2-.2zm-504.5-6.5-19-6.5c-3.9-1.2-6-2.6-6-4 0-1.7 8-.8 13.4 1.6 3 1.3 9.3 3.6 14 5 11 3.3 16.1 6.2 14.5 8.2l-1.2 1.2-15.7-5.5zm116.5 4.4c.3-.8 2.4-1.2 5.8-1.2s5.5.4 5.8 1.2c.3 1-1.3 1.3-5.8 1.3s-6-.4-5.8-1.3zm92.8-.4c-3.9-1.6-5-3.3-2.2-3.3 2.1 0 7.4 2.8 7.4 4 0 1.3-.7 1.2-5.2-.7zm413.9.8c-1.2-2-1.8-9-.8-9.5 1.4-1 2.1.4 2.8 5.8.5 3 .3 4.6-.4 4.6a2 2 0 0 1-1.6-.9zm7 .2c-1-1-.7-10.3.3-10.3 1.1 0 2 3.5 2.1 7.7 0 3.1-.9 4-2.3 2.6zm-88.8-3.3c0-2.1.4-3 1.2-2.8.7.2 1.3 1.5 1.3 2.8 0 1.2-.6 2.5-1.3 2.7-.8.3-1.2-.6-1.2-2.7zm177.8.5c-.8-2 .4-4.8 1.6-4 1.4.8 1.3 5.5 0 5.5-.6 0-1.3-.7-1.6-1.5zm49.8 0c-1.5-1.8-.6-4.9 1.2-4.3 1.5.5 2.4 5.8 1 5.8-.6 0-1.5-.7-2.2-1.5zm-248.7-4c0-3.4.4-4.5 1.5-4.5s1.5 1.1 1.5 4.5c0 3.3-.4 4.5-1.5 4.5-1 0-1.5-1.2-1.5-4.5zm13.4 3c-.8-2.3.5-6.8 2-6.3 1.5.6 1.5 7 0 7.5-.8.2-1.6-.3-2-1.2zm251.3-.5c0-2.3 2.5-2.8 3.3-.6.7 1.6 0 2.6-2 2.6-.7 0-1.3-1-1.3-2zM624 290.7c0-3.5 2-8.8 3.2-8.8 1.5 0 0 8.1-1.7 10-1.3 1.2-1.5 1-1.5-1.2zm232.6-3.3c0-4.6 1.7-9.6 3.2-9.6.8 0 .2 9.8-.7 12.8-1 3-2.5 1-2.5-3.2zm-185.4-.9c0-3.4.3-4.7 1.2-4.4 1.9.6 2 5 .3 7.3-1.4 1.8-1.5 1.7-1.5-2.9zm41 3.4c0-.6.8-1 1.6-1 .9 0 1.3.4 1 1-.4.5-1 1-1.6 1-.5 0-1-.5-1-1zm163.5-1.5c0-1.3-.5-3.6-1-5.1a8.5 8.5 0 0 1 0-6.1c1.9-5.7 3-3.8 3 5.2 0 5-.4 8.5-1 8.5s-1-1.1-1-2.5zm15-3.9c0-3.7.6-7 1.4-8.1 2-2.7 2.4-1 1.9 7.2-.4 5.3-.9 7.3-1.9 7.3-1 0-1.4-1.6-1.4-6.4zm-308.2 3.8c-.3-.9.1-1.8 1-2.1 1.9-.7 4 1 3 2.6s-3.3 1.3-4-.5zm176.2 0c-.8-2 1.3-4.2 2.7-2.8 1.2 1.1.3 4.4-1.2 4.4-.5 0-1.2-.7-1.5-1.6zm109.5-1.6c-.7-2 .8-8 2-7.9 1.4 0 1.2 8.3-.3 8.8-.7.2-1.5-.2-1.7-1zm16.1-.4c-1-2.4-.7-6.5.3-6.5 1.1 0 2.1 2.6 2.1 5.6 0 2.8-1.5 3.3-2.4.9zm-513.8-1c-4.6-2-3.5-2.8 1.4-1.1 2.1.7 3.4 1.6 3 1.9-.6.3-2.6 0-4.4-.9zM820 285c-.3-.5 0-1.2.7-1.6 3-1.4 11-6.3 16.1-9.8 6-4 7.7-4.6 7.7-2.4 0 1.9-1.7 3.2-9.2 7a93.6 93.6 0 0 0-9.5 5.4c-3.4 2.4-4.9 2.8-5.8 1.4zm-488.6-1a13 13 0 0 1-6-2.6c-1.7-1.7-1.4-1.8 6.8-1.2 9.7.7 14 1.7 14 3.2 0 1.2-8.9 1.5-14.8.5zm409.9-1.1c-1.4-2.6-.5-7.4 1.2-6.8 1.6.5 2.2 6.7 1 8-.7.6-1.5.2-2.2-1.2zm8.5.8c-.2-.7-.3-3.1-.2-5.4.2-4.4 2.2-5 2.2-.7 0 1.5.4 3.3.8 3.9.3.6 0 1.7-.8 2.4-1.2 1-1.6.9-2-.2zm87.7-.7c0-1.8 2.6-4.9 3.4-4 .3.2.2 1.6-.1 3.1-.6 3-3.3 3.8-3.3.9zm85.6.3c-.9-2.2 1.4-4.4 2.6-2.5 1 1.6.3 4-1.1 4-.5 0-1.2-.7-1.5-1.5zm21.9.3c-.6-.7-1.4-2.9-1.7-4.9-.6-3.2-.4-3.8 1.4-4.3 3-1 4 0 4 4 0 5.7-1.5 7.9-3.7 5.2zm-158.6-2.7c0-2.1.4-3 1.2-2.8.7.2 1.3 1.5 1.3 2.8 0 1.2-.6 2.5-1.3 2.7-.8.3-1.2-.7-1.2-2.7zm147.8 1.6c-1-2.6 0-6.1 1.8-6.5 1.4-.2 1.8.4 1.8 2.7 0 3.5-2.7 6.3-3.6 3.8zM725 281.1c-.7-2.5.1-4.3 1.9-4.3 1 0 1.3.9 1.1 2.7-.3 3.2-2.3 4.2-3 1.6zm72.4-2.8c0-2.5.5-5.5 1-6.5 1.2-2.3 5.1-4.4 9.8-5.4 2.6-.6 3.2-.4 3.2.9 0 .9-.8 1.8-1.7 2.1-6.6 2-7.9 3.2-9.3 8.3-1.7 6.4-3 6.6-3 .6zm47.6 3.5c-1-1.6.4-6.2 1.8-5.7 1.6.5 1.6 6 0 6.5-.6.2-1.4-.1-1.8-.8zm-484.2-1c-1.3-.5-1.5-.8-.5-.8.8 0 2.4.4 3.5.9 1.2.5 1.4.8.5.8a11 11 0 0 1-3.5-.8zm373.5-2.1c-1.1-3.4-.2-5.7 1.9-4.4 1.3.8 1.4 7.6.1 7.6-.5 0-1.4-1.5-2-3.2zm179.6.4c-2-5.3-2.2-7-1.2-9.7 1.5-3.9 3.5-2.6 3.7 2.3 0 2.4.4 4.9.7 5.7.6 1.7-.2 4.5-1.4 4.5-.4 0-1.2-1.3-1.8-2.8zm-212.4.3c-.8-2.2.3-4.6 2.2-4.6 1.1 0 1.5.8 1.3 2.7-.4 3-2.6 4.3-3.5 2zm55.5-.5a5 5 0 0 1 .8-3.7c1.1-1.6 1.3-1.6 2.4.4 1.3 2.4.5 5.3-1.4 5.3-.7 0-1.5-1-1.8-2zm197.8-.6c0-1.5.6-2.5 1.4-2.5 2.2 0 3 2 1.6 3.6-1.8 2.2-3 1.8-3-1zm-236.6 0c0-.8.4-1.5 1-1.5s1 .7 1 1.5c0 .9-.5 1.5-1 1.5-.6 0-1-.6-1-1.5zm184.5-.4c0-1.2.6-2 1.5-2 1 0 1.5.6 1.3 1.6-.5 2.5-2.8 2.9-2.8.4zm-208.9.3c-1.4-1.4-.7-3.5 1-3.2 1 .2 1.8 1 1.8 1.8 0 1.6-1.7 2.5-2.8 1.4zm17.4-3.7c0-2.5.7-3.8 3-5.5 1.6-1.2 3.2-2.2 3.6-2.2a77 77 0 0 1 21-10c.3 0 1.8-.9 3.2-2 3.1-2.5 5.3-2.5 5.3-.2 0 1.9-2.5 3.2-12.6 6.8a48 48 0 0 0-8.5 4.1c-1.9 1.3-3.9 2.3-4.4 2.3-2 0-7.4 5.1-8 7.5-1 3.6-2.6 3.1-2.6-.8zm251.6 1.3c0-1 .4-2 .9-2 1.3 0 3.2 2.6 2.5 3.4-1.4 1.4-3.4.6-3.4-1.4zm-110.6.4c-1.3-1.3-.7-4.4.8-4.4.9 0 1.5 1 1.5 2 0 2-1.3 3.4-2.3 2.4zm-198.5-1c-1.4-1.4-.6-3 2-4.2 2-1 2.4-1.7 1.9-3.8-.6-2.2-.4-2.5 1.1-1.8 1 .4 3 .8 4.3 1 3.4.2 3.2 2.6-.2 4.3-1.6.7-3.4 2.2-4 3.2-1.2 2-3.8 2.6-5.1 1.3zm-11.5-1.6c-.7-.6-1.2-1.5-1.2-2 0-1.2 2.8-1 3.5.3 1 1.7-1 3.1-2.3 1.7zM96 270.5c-1.6-2.5-14-8.7-17.5-8.7-1 0-2.1-.4-2.5-.9-.3-.5-2.4-1.2-4.8-1.6-4.7-.8-14.4-7-15.1-9.7-.3-1-1.8-2-3.7-2.4-2-.4-3.5-1.5-4-3a7.4 7.4 0 0 0-2.2-3 41 41 0 0 0-13.5-3.3c-3 0-6.3-2.2-6.3-4 0-.4.6-1.5 1.3-2.5 1-1.4 2.2-1.7 4.8-1.3 10.2 1.6 14.7 4.2 24 14.1 7.2 7.8 11 10 22.7 13.5 13 4 16.3 5.4 20.7 9.3 4.5 4 4.7 5.8.7 5.8a5 5 0 0 1-4.6-2.3zm580.5-1.7c-1-1.7 1.3-3.6 2.7-2.2 1.1 1.1.4 3.2-1.1 3.2-.5 0-1.2-.4-1.6-1zm160-.7c0-1.7 3.9-4.5 5.5-4 1.8.8 2 3.7.2 3.8-.6 0-2.2.2-3.5.6-1.2.3-2.2.1-2.2-.4zm-195.9-1c-1-1-.8-4.3.4-4.3 1.5 0 2.4 3 1.3 4.1-.5.5-1.3.7-1.7.3zm262-.7c0-.8 1-2 2-2.5 3.3-1.8 4.2-1.2 2.5 1.4-1.8 2.8-4.5 3.4-4.5 1zm-31-1.2c0-1.2 1.4-2.5 3.7-3.6 2.1-1 5.4-3 7.4-4.8 2-1.8 4.5-3 5.5-2.8 1.6.3 1.2 1.1-2.6 5.2-4.3 4.7-6.3 6-11.6 7.2-2 .5-2.4.3-2.4-1.2zm19-1.3c0-.5 2-2 4.5-3.5 7.4-4.4 10.7-2.8 3.8 1.9-3.7 2.5-8.3 3.4-8.3 1.6zm-73.2-3c0-.5.5-1.2 1-1.6.6-.3 1 .1 1 1 0 .8-.4 1.5-1 1.5-.5 0-1-.4-1-1zm-45.1-2c0-1.4 3.8-3.8 7.5-4.6 1.7-.4 4.7-1.7 6.8-2.8 3.3-1.8 4-1.9 4.7-.7.5.8.7 1.8.4 2.3-.8 1.2-7 3.8-11.4 4.8-2 .4-4.5 1-5.7 1.5-1.4.4-2.3.2-2.3-.4zm24.3-3.8c2.4-2.4 4-3.4 4.7-2.7 1.2 1.2.4 2.5-2.9 4.7-4.6 3.2-5.7 2-1.8-2zm28.3.7c-.3-.5.4-1 1.5-1s2 .5 2 1c0 .6-.6 1-1.4 1-.8 0-1.7-.4-2-1zm-209-.9c-3.9-.5-4.6-1-4.8-3-.2-2.1.6-3 4.3-5.3a25 25 0 0 1 5.6-2.8c1.9 0 .9 2.8-1.6 4.5-3.5 2.2-2.5 3.2 4 4 5.5.7 11-.6 17.6-4 1.6-.8 3.7-1.5 4.8-1.5 1 0 3.7-1.3 6-3 3-2.1 6.8-3.4 15.9-5.3a148 148 0 0 0 15.9-4c2.2-1 7.1-1.6 11-1.6 4 0 9.7-.8 12.9-1.6 7.5-2 16.7-2 16.7-.1 0 1-2.3 1.6-8.8 2.1a38 38 0 0 0-12.3 2.6c-6.1 3.3-11 5.2-11.7 4.6-.3-.3.6-1.1 2-1.8 1.5-.7 2.7-1.6 2.7-2.1 0-1.7-14.9 1.2-17.7 3.4a33 33 0 0 1-8.6 1.7c-6 .7-8.5 1.5-12.3 4.1a37.4 37.4 0 0 1-9.4 4.5c-2.5.7-7.1 2.2-10.1 3.4a44.2 44.2 0 0 1-22.1 1.2zm99.3 0c0-1.1 3-3.5 7-5.4l5-2.6c5.3-3.2 11.3-5.3 12.3-4.2.8.8-.1 1.6-3.4 3.1-2.4 1.2-6 3-7.9 4.2-9.4 5.6-13 7-13 5zm207.8-1.1c-3-1.2-3-4.8.2-8.2 2-2.1 3-2.5 4.3-1.8l3.5 1.4c2 .6 2.2 3.2.7 7-1 2.8-4.3 3.4-8.7 1.6zm-233-1.9c0-1.2 8.3-5.7 12.1-6.6 5.3-1.1 3.6 2.1-2.6 5-5.8 2.6-9.4 3.2-9.4 1.6zm-27-.9c0-3 10-7.2 21-8.7 5.6-.7 5.1 1.1-1.2 4.3-3.7 1.8-5 2-6.5 1.1-1.5-.9-2.9-.6-7 1.5-5.7 2.9-6.3 3-6.3 1.8zm236-3.2c.6-4.8 5-11 7.7-11 2.8 0 2.5 3.2-.6 6a19.8 19.8 0 0 0-4 5.8c-2 4.7-3.9 4.2-3.2-.8zm14.3 2.6c-.5-1.4 4-8.7 6.3-10 2-1.3 1.1 2.2-1.7 6.8-3 4.9-3.7 5.4-4.6 3.2zm-152.7-1.1c-.8-2 .2-3 5-4.5 2.8-.8 4.2-.9 5-.1 1.4 1.4-.9 4.1-3.5 4.1-1 0-2.8.5-3.9 1-1.5.9-2 .8-2.6-.5zm146.8-2c-1-1 3.7-7.4 5.6-7.4 2 0 1.8.4-1.6 5.2-1.9 2.7-2.9 3.3-4 2.1zm-15.3-1.5c-.3-.6 0-2.4 1-4.1 1.8-3.8 2-5.8.3-4-1.6 1.5-3.8 1.4-3.8-.2 0-.8 1-2.2 2-3.2 1.6-1.4 2.3-1.6 3.2-.7.7.7 2 1.2 3 1.2 2.4 0 2.3.3-.9 6.7-2.7 5.3-3.6 6.2-4.8 4.3zm-191.8-3c.4-1.2 6-3.6 10.7-4.7 1.9-.4 2.3-.2 2 1.3-.2 1.2-2 2.1-5.9 3-6.9 1.7-7.2 1.7-6.8.3zm25.6-1.6c-1.3-1.3 1.5-3.4 4.4-3.4a12 12 0 0 0 4.7-1l6.5-3c4-1.8 4.7-2.5 4.2-4.3-.6-1.6-.4-1.9 1-1.3 1.2.4 2.4-.2 3.7-1.9 1.1-1.4 2.8-2.5 3.7-2.5.9 0 2.5-.7 3.6-1.5 1-.8 2.3-1.2 2.8-.9 1 .6-6.8 8-9.5 9-1 .3-1.8 1-1.8 1.5 0 1.6 4.2 1 7.2-1.2 1.6-1.2 3.3-1.8 3.6-1.5 1.6 1.6-4 6.8-8.6 8.1-1.8.5-2.4.2-2.8-1.4-.7-2.6-.9-2.6-4.2-.2-6.4 4.5-16.5 7.5-18.5 5.5zm115.9-.2c-1.8-1.1-.3-2.6 4.2-4 4.7-1.4 6-.5 4 2.6-1.6 2.2-5.8 3-8.2 1.4zm104.1-1.9c.5-2.1 8.4-6.5 11.1-6.1 2.8.4 3.5 2.6 1.1 3.5-1 .3-2.5 1.2-3.3 1.8-.8.7-3.2 1.5-5.3 1.8-3.2.5-3.8.3-3.6-1zm-129.8 0c-.4-.3-.7-1.2-.7-2 0-1.5 3.6-1.8 4.5-.3.7 1-2.9 3.3-3.8 2.3zm120-5.7c-.3-.8 0-2.4.6-3.5 1.2-2.3 7.2-7.1 8.8-7.1.6 0 2.8-1.8 5-4 4.3-4.3 7-5 8-2.3.8 2.1-6.2 8.5-12.4 11.3-2.4 1-5.5 3-6.9 4.4-2 2-2.7 2.3-3 1.2zm-143.7-2.1c0-1.5 3.8-5.5 5.1-5.5 1.6 0 1.8 1.8.4 3.7-1.8 2.5-5.5 3.7-5.5 1.8zm-616.3-2.1c-.4-1-.1-2.4.5-3.3.6-.9 1.4-2.3 1.7-3.1 2.4-6.6 5.4-9.2 8.2-7.2l4 2.2c3.3 1.4 2.8 2.7-2 4.9a28 28 0 0 0-7.2 5c-3.3 3.5-4.3 3.8-5.2 1.5zm701.1-1c-1.7-1.8-.2-4.6 4.5-8.8 4.7-4.2 7.6-5.5 9.2-4 1 1.1-.5 3.5-3.4 5a31 31 0 0 0-6.2 4.9c-1.9 2-3.7 3.2-4 2.8zm20.1 0c-1.1-1.1.5-3.4 2.5-3.4 1.4 0 1.9.5 1.4 1.6l-.6 2c0 .6-2.6.5-3.3-.2zm66-3.5c-.4-.6-.2-1.6.4-2.2.9-.9 1.4-.8 2 .3 1 1.5.5 3-1 3-.4 0-1.1-.5-1.5-1zm-227.1-.8c0-1.3 1.9-2.1 10-4.5 3.5-1 6.8-2.7 8.5-4.6 1.6-1.7 3.3-3 3.9-3 .5 0 3.5-1.6 6.6-3.5a84.5 84.5 0 0 1 21.4-10c4-.8 5.4-2 3.8-3-.6-.3-5-.6-10-.6-8.8 0-12-1.1-9-3 .8-.6 3-.7 4.9-.4 2 .3 7.1.8 11.6 1.1 6.9.6 8.7.3 12.9-1.5 2.6-1.2 5.6-2.1 6.5-2.1 3.5 0 11.7-5.8 13.7-9.7 1-2.1 3.1-5.3 4.6-7a48 48 0 0 0 6.8-15.3c0-1.1-3.6-2-8.2-2-3 0-3.7.3-4 2.2-.2 1.9-1 2.2-4.3 2.2-2.2 0-4.6.4-5.4 1-.7.4-1.7.3-2.3-.3-1.5-1.5-3.8 1-3.8 4.2 0 1.4-.5 2.8-1 3.1-1.4.9-4-4.8-3.4-7.3.3-1.2 0-2.8-.6-3.6-1-1.3-1.7-1.2-4.6.2-2 .9-3.7 2.4-4 3.5-.7 2.1-2.8 1.9-3.3-.4-.4-2.2 3.7-7 7.5-8.5 4.5-1.9 4.7-5.6.3-7.9-2.5-1.3-3-2.1-3-5.4 0-2.2.7-4.6 1.6-5.5 2.2-2.2 7.1-2 8.4.4 1.4 2.4 1.4 7 0 7s-1.2 3.3.5 5.6c.8 1.1 3.2 3.3 5.3 4.7l3.9 2.7 3.6-1.8c2-1 5.1-3 6.8-4.5 1.8-1.5 3.7-2.7 4.4-2.7 1.9 0 4.3 3 5 6.4.7 2.8.8 2.8 2.7 1.1 2-1.8 2.3-1.5 2 2.4-.3 3.8 2.2 2.1 5-3.3 2.9-5.6 4.3-6.5 7-4 1.4 1.2 2.3 1.3 3.7.6 1-.6 3.9-.8 6.3-.4 6.6.8 4.2-1.3-3.1-2.7-3.4-.7-7-1.6-8-2.1l-4-2c-1.3-.7-2-.7-2 0 0 2.1-5.2 8-7 8-3.5 0-3-2 1.3-6.3 2.5-2.3 5-5.2 5.7-6.5 1.6-3 4.2-2.7 6.6.9 3.5 5.2 14.7 6.9 15.3 2.2.4-2.5-.7-3-2.6-1-1.8 1.7-2.7 0-1.6-3 .7-2 1.7-2.9 3.8-3.1 2.2-.3 2.8 0 2.4 1-.3.8.3 2 1.3 2.7 1 .6 2 1.8 2 2.5 0 2 7.3 6.8 9.3 6 2.2-.8 2.1-1-1-3.9-2.3-2-2.6-2.6-1.5-3.3 2-1.3 1-4.7-1.3-4.7-1.2 0-2.6-1.1-3.3-2.7-1.3-2.6-1.6-2.7-6-2-2.7.3-5.3 1.2-5.9 2-1 1.4-1.4 1.3-3-.6-1.3-1.5-2.5-2-4.2-1.5-2 .5-2.3.3-1.8-1.4.9-2.7-.2-5-2.6-5.6-1.5-.4-1.9-1.2-1.6-3.9.2-2.8.7-3.3 3.1-3.6 2.7-.3 2.8-.2 2.2 2.6-.7 3.5.4 4.5 4.6 4.4 1.9 0 3 .5 3 1.4 0 2.3 2 1.6 5.6-1.8 2.8-2.6 3.4-2.9 4-1.5.7 2.2 5.2 2.2 6 .1.6-1.5-.6-2.8-3.2-3.7-1.7-.6 1.4-3.4 4.7-4 3.3-.7 6.9.7 6.9 2.7 0 .7-1.2 2.3-2.5 3.6-3 2.9-3.2 4-.5 4 2.3 0 2.4.4.8 3-.7 1-.9 2.3-.5 2.7 1 1 3.7-2.5 3.7-4.8 0-.9.9-1.9 2-2.2 1.5-.4 2-1.3 2-3.9 0-1.9.5-4 1.2-4.6.8-.9.7-1.3-.8-1.8-6.1-2-7.5-2.8-7.2-4.3.4-2 7.4-5.5 9.4-4.7 2.4 1 1.5 2.6-1.6 3.2-1.7.4-3 1.3-3 2 0 1 1.6 1.4 6.4 1.4h6.4l.9 3.8c.8 3.2 1.3 3.7 4.1 4 3.7.4 4.1 1.5 1.3 3.5-3 2-3 4.1 0 4.4 7 .7 9 1.5 9.5 4.2.3 1.4 1 3.4 1.5 4.2.5 1.1.3 2.4-.7 3.9-1.3 1.8-2.2 2-5.4 1.5-3.6-.6-8 1-8 2.7 0 .4 1.8 1.3 4 2 4 1.1 5.3 2.7 2.8 3l-2.8.3-4.1.4c-2.2.1-2.6.5-2.1 2.3.5 2 .3 2-3.3 1.4-6.4-1.2-14.5-1.6-14.5-.8 0 .4-1.4 1.6-3.1 2.6l-3.1 1.9-4.4-4.3c-2.4-2.4-4.8-3.9-5.4-3.5-.8.5-.9 1-.1 2 2 2.5-1.4 5-7.6 5.5l-5.9.5-.7 4.8c-.3 2.6-.3 6.9 0 9.5l.7 4.8 4.3.3c3 .2 5.6-.4 9-2.2 5.5-3 15.6-5.9 26.3-7.7 7.3-1.3 7.6-1.4 10.6-5.9 2.4-3.6 3.8-4.6 6.3-4.9 4-.4 4.1 1.3.2 2.7-3 1-5.8 4.6-4.3 5.5 1.4.8 8.4-2.2 11.2-4.8 1.5-1.4 3.4-2.6 4.4-2.6 1.9 0 4-3 5.6-8.1 1.4-4.4 4.2-7 7.9-7.5l6.9-1c2.6-.4 4.4-.1 4.8.6 1.3 2-.7 3-7.3 3.7-6.3.6-8.3 1.7-6.5 3.5.6.6 2 .5 3.6-.1 1.5-.6 3.3-.8 4.1-.5 4.4 1.7 1.3 8-3.3 7-2.1-.5-3.6.4-8.4 4.7-5.5 5.2-7 7.7-4.5 7.7.6 0 2.2-1 3.5-2.1 2.8-2.7 4-1.8 1.9 1.3-2.3 3.2-2 4 1 3.7 3.9-.5 4 1.5.3 4.3-1.8 1.3-6 5-9.2 8.1-6.4 6-8.8 7-8.8 3.8 0-1.1-.6-2-1.4-2-1.8 0-6.6 6-6.6 8.3 0 1.7-3.6 4.7-5.7 4.7-.7 0-1.3-.7-1.3-1.5 0-.9.7-1.5 1.6-1.5 1 0 1.5-.8 1.2-2.3-.3-2.4-.2-2.4-11.3-1.1-5.9.6-8.5 1.7-8.5 3.5 0 1 8 0 9.4-1.3 1.5-1.3 3.6-1 3.6.4 0 .8-2.5 1.9-5.7 2.7-6 1.3-11.4 4-8.1 4 .9 0 2.9-.4 4.3-1 3-1 7.3-.3 5.8 1-1 1.1-11.1 4-13.5 4-1 0-2.3-.9-2.9-2-1-1.7-.8-2.5 1-4.3 4-4.4 1.3-7.6-3.5-4.2a21 21 0 0 1-7 2.1 30 30 0 0 0-6.8 1.6c-1 .6-2.4.6-3.5 0-1.5-1-1.5-1.2.5-1.7 1.3-.4 2.3-1.1 2.3-1.7 0-.6-2.4-.8-6.5-.5-4.7.4-7 .1-8.6-1-3-2-17-1.4-19.7 1-1 1-2.7 1.8-3.6 1.8-1 0-3.4.9-5.5 2a18 18 0 0 1-5 2c-.6 0-3.3 1.3-6 2.9a78.1 78.1 0 0 1-11.4 5c-8.1 3-19.4 8.5-24 12-10.2 7.7-29 15-29 11.2zm121.3-41.2c0-.5-.5-1-1-1-.6 0-.8-.4-.5-1 .3-.5 1.5-1 2.6-1 1 0 2-.4 2-1 0-1.6-6-1-12.3 1.2-5.5 2-7 3.3-4.8 4 2 .7 14-.3 14-1.2zm18 0c3-1.2 5.8-2.4 6-2.7.3-.3-3-.2-7.4.1-7.2.6-9.5 1.5-9.6 4 0 1.3 5.6.7 11-1.4zm-47-2c0-.5-.5-1-1-1s-1.2.5-1.6 1c-.3.6.1 1 1 1 .8 0 1.5-.4 1.5-1zm76.2-2.6c.8-.9 3.3-2.4 5.7-3.4 4.8-2.1 5.3-3.3 2-5.3-2.8-1.9-9.8-3.2-9.8-2 0 .6-1.1 1.6-2.5 2.4-3 1.5-3.3 3-.7 3 1.9 0 4.2 1.7 4.2 3.2 0 1.4-5 .8-9-1.2a33.8 33.8 0 0 0-12.7-2.6c-4.8-.2-10.5-1-12.6-1.6-4-1.2-6.7-.2-5.4 2 1 1.5 12.5 3.2 20.4 3 5.7-.3 7.5 0 8.5 1.3 2.5 3.2 9.7 3.9 12 1.2zm-58.2-2.6c1.2-1.5 2-3.5 1.6-4.3-.7-1.9-3.6-1.9-3.6 0 0 2-4.4 4.7-6.4 4-2.4-1-2-4.3.9-8 4-5.2 2.7-9.3-1.3-4.3-1 1.2-3.3 4-5.2 6-1.9 2.2-3 4.3-2.5 4.7 4 3.5 6.6 4.7 10.2 4.7 3.3 0 4.5-.6 6.3-2.8zm44.5-7.8c1.5-1.7 2.4-3.5 2-4-.6-1.1-8.3-.3-9.7 1-.8.7 2.9 6 4.2 6 .4 0 2-1.3 3.5-3zm32.5-1.9c.2-.7-.1-1.1-.9-.9-.7.3-1.5 1-1.7 1.8-.3.7 0 1.1.8.9.8-.3 1.6-1 1.8-1.8zm-77-2.6c0-.8-.5-1.5-1-1.5-.6 0-1 .7-1 1.5s.4 1.6 1 1.6c.5 0 1-.7 1-1.6zm68.2-1.6c0-1.9-.4-2-3.8-1.5-2 .3-5 .6-6.5.6s-2.8.5-2.8 1c0 1 3 1.7 8.8 2 3.7 0 4.3-.2 4.3-2zm4.7-4.7c.3-.6-.3-1.2-1.1-1.2-1 0-1.6.8-1.6 1.6 0 1.8 2.1 1.5 2.7-.4zm-115-4.2a1 1 0 0 0-2 0 1 1 0 0 0 2 0zm21.6-3c-3.1-1-5.6-.2-3.6 1 .6.4 2.4.5 3.8.2l2.7-.5zm69.7-9.9c2-1.5 2.2-2.2 1.2-3.2-1-1-2.2-1-6.1.5-2.7 1-5.6 1.4-6.5 1-1.2-.4-1.7 0-1.7 1 0 1.9 1.4 2.5 6.6 2.6 2.7 0 5-.6 6.5-1.9zm-97.3-5c0-2.2-1.5-2.8-2.6-1-.7 1.1.3 3 1.6 3 .5 0 1-1 1-2zm85.6-.6c1.6-2.5 1.4-4.5-.5-4.5-1.4 0-4.2 4.8-3.5 6 1 1.6 2.2 1.2 4-1.5zm21.6-3.4c1.4-1 2.3-2.2 2-2.5-.6-.6-9 3.1-9 4 0 1.2 4.8.2 7-1.5zm-11-1c0-.6-.7-1-1.5-1s-1.5.4-1.5 1 .7 1 1.5 1 1.5-.5 1.5-1zm1.9-6.7c.2-.1 0-.8-.4-1.4-.4-.7-1.9-.8-3.8-.4-4 .8-4.9 1.3-4.2 2.4.4.8 7.3.3 8.4-.6zm-74 100.2c0-1.9 3.2-3.6 4.8-2.6 1 .6 1 1.2-.4 2.5-2 2-4.5 2.1-4.5.1zm-51.2-1c0-1 4.4-4.4 5.7-4.5 2 0 1.5 1.7-1 3.4-2.2 1.6-4.7 2.1-4.7 1zm155-4.1c-.8-1 5.3-8.4 7-8.4 2.8 0 2.5 2.3-.7 5.6s-5 4-6.2 2.8zm-14.1-5.4c1.1-5.4 3.5-9.7 6.1-11 3.5-2 4.3-.2 1.2 2.4-1.4 1.3-3 3.7-3.3 5.3-.4 1.7-1.6 4-2.7 5-2 1.8-2.1 1.8-1.3-1.7zm-16.4-2.3c.2-1.6 2.2-3.1 7.7-5.8 4.1-2 9-5.3 10.9-7.3 3.2-3.4 5.3-4.5 5.3-2.9a47 47 0 0 1-11.6 11.3c-.7 0-3.6 1.6-6.5 3.5-2.8 2-5.4 3.5-5.7 3.5-.2 0-.3-1-.1-2.3zm-91-3.8c-.9-1.4 1.1-3.3 2.5-2.5.6.4 1 1 1 1.5 0 1.4-2.8 2.1-3.5 1zm96.8-12.3c0-.2 1-.6 2-1 1.1-.2 1.8 0 1.5.5-.6.8-3.5 1.3-3.5.5zm31.1-3.1c0-2 6.8-9.5 8.6-9.5 1.7 0 2.6 1.4 1.9 3.1-.6 1.3-8.8 7.9-10 7.9-.3 0-.5-.7-.5-1.5zM258.7 189c-1.2-2 1.5-3 10.4-4.3 5.2-.6 11.3-1.8 13.5-2.5 2.3-.7 5.9-1.6 8-2a54 54 0 0 0 10-3.4c8.3-3.8 13-5.2 20-6.1 3.4-.4 8-1.2 10.1-1.8l10.6-2.6c3.5-1 10.3-2 15-2.6a76.2 76.2 0 0 0 28.3-8c8.7-4.4 10.6-4.7 11.5-2.3.7 1.8-3.1 5.3-6 5.3-.8 0-3.1 1-5 2a59 59 0 0 1-21.8 6c-4.7.6-10.9 1.8-13.8 2.6-5.8 1.7-16 3.7-29.7 6-5 .8-9.5 2-10.2 2.5-3.6 3-19.1 7.2-38.5 10.5-10 1.7-11.8 1.8-12.4.7zm652.3-.4c.2-.7 1.8-1.6 3.6-2a7.7 7.7 0 0 0 4.3-3.1c1.4-2.6 3.9-4.7 5.6-4.7 2 0 1.5 1.4-2.3 6.3-3.2 4.2-4 4.7-7.6 4.7-2.7 0-3.9-.4-3.6-1.2zm-3.7-3.8c-.3-.5.4-1.2 1.5-1.5 2.4-.8 3.5-.2 2.5 1.4-.8 1.3-3.2 1.4-4 .1zm31-11.1c-1.1-1.8 3.6-6 6.7-6 4 0 3.6 2.4-.7 5-4 2.3-5 2.5-6 1zm-69.7-17c0-1.6.6-2 2.3-1.8 3.3.5 3.6 3.8.3 3.8-2 0-2.6-.5-2.6-2zm77 1.4c-1.6-1.6-.7-3.5 1.5-3.2 1.2.2 2.3 1 2.3 1.8 0 1.6-2.7 2.6-3.8 1.4zm-66-2.4c-1-.7-1.1-1.1-.2-2 1.2-1.3 4.3-.6 4.3 1 0 1.3-2.5 2-4.1 1zm4.4-3.5c-.9-2.3.3-2.9 5.5-2.6 9.8.6 10.8 4.1 1.1 4.1-4.5 0-6.1-.3-6.6-1.5zm-481.1-.5c-1-1.6.1-2.3 7-5 3.4-1.3 6.5-2.7 7.1-3.1.6-.4 4.4-2 8.5-3.4 4.1-1.5 8-3.2 8.5-4 2.8-3.4 22-10.3 32.3-11.5 4.3-.5 9.9-1.6 12.3-2.5 2.5-1 8-1.9 12.4-2.2 5.3-.4 8-1 8.4-2 .6-1.5 9.5-1.8 12.2-.4 1 .5 6.2 1.5 11.6 2 14.5 1.7 43.2 10.4 43.2 13.2 0 1.8-4.3 1.7-11-.4a190 190 0 0 0-44-9.9c-4.8-.9-7.9-.7-16.6.7-5.8 1-11.2 2.2-11.8 2.7-.6.5-3.4 1.3-6 1.8-17.9 3.2-22.4 4.4-28.3 7.1-22.5 10.5-35.4 16-37.6 16-.8 0-1.8.4-2.1 1-.9 1.3-5.3 1.2-6.1-.1zm407.2-9.5c-1-1.4-2.5-2.3-3.3-2-2 .8-1.5-.7 1.2-3.3 1.4-1.3 2.5-2.8 2.5-3.3s.5-.9 1-.9c.6 0 1 .8 1 1.8 0 3.3 2.7 6 5.5 5.5 2.9-.6 3.6 1.5.8 2.3-1 .3-2.6 1-3.5 1.5-2.6 1.4-3.1 1.2-5.2-1.6zM638.6 140c-6.2-.8-19.6-1.6-30.4-1.7-19-.1-22.5-.7-20.8-3.5 1-1.7 38.6-1.3 46.6.4a95 95 0 0 0 16.2 1.5c10.6 0 8.5 1 21.4-9.3 2.2-1.8 6-5 8.5-7.3 7.1-6.4 11-9.4 20.4-15.5a77 77 0 0 0 11-9.8c3.6-3.9 8.8-8.2 12.2-10 5.5-3 7-3.4 16.9-3.9 10-.5 11.1-.3 13.8 1.6 3.6 2.7 8 2.8 16 .2a57 57 0 0 1 7.3-2c2.4 0 16.8-10.4 18.6-13.4 1-1.8 3.3-4.3 5.1-5.7 4.2-3.2 16.1-15.2 16.1-16.2 0-.5 1.6-1.5 3.5-2.3 2.3-1 3.5-2.1 3.5-3.4 0-1.3 3-4 8.6-8.1a52 52 0 0 0 8.5-7c0-.4 1.6-1.7 3.6-3 2.8-1.6 5.8-2.2 12.8-2.5l11.6-.7c1.3-.2 2.6.3 2.8 1 .6 1.7-5.3 4-12.2 4.9-3 .3-5.6 1-5.6 1.5 0 1.2 9.3 1 12.5-.1 1.4-.6 10.9-1.3 21-1.6 10.2-.3 20.7-1 23.4-1.5 9.6-2 23.6-3 29-1.9 3.6.7 7 .7 11 0 3.3-.5 9.6-1.2 14.2-1.5 8.2-.5 8.2-.5 8.2 2 0 1.3 0 2.5-.2 2.5-1.4.6-24.6 2-28.8 1.9-11.4-.6-27.9-.2-36.1.9-7.8 1-42.7 3.3-51.2 3.4-2 0-5-.3-7-.7-3.1-.7-4.3-.3-9.7 3.3a92 92 0 0 0-9 6.6c-1.4 1.4-3.6 2.5-4.9 2.5-1.6 0-2.4.8-2.8 2.8-.7 3-5.8 8.9-11.5 13a62 62 0 0 0-7.8 7.2c-13.2 14.7-17.6 17.7-30.2 21.2-12.2 3.2-21.4 3.8-23.4 1.3-1-1.2-3-1.5-10-1.1-12.5.6-16.8 2.5-26.4 12.1-4.5 4.5-9.7 9-11.7 10-2 .9-7.3 5.1-12 9.3-4.7 4.2-9.7 8.3-11 9.2-1.4.9-6 4.4-10.4 7.9a37.9 37.9 0 0 1-9.6 6.2l-6.2.4c-2.4.3-9.4-.2-15.4-1zm189.6-8.5c-1-.5-2.7-.8-4-.7-4.2.3-4.7 0-4.7-3.6v-3.5h8c4.4 0 8.2.4 8.5.9.9 1.4-2.3 6.9-4.3 7.4-1 .2-2.6 0-3.5-.5zm9.4-1.2c-1.3-1.6-.6-3.6 1.3-3.6.6 0 2-1.2 3.2-2.6 2.8-3.4 5-2.4 4.1 1.9-.3 1.7-1.1 3.6-1.7 4.4-1.5 1.8-5.4 1.7-6.9-.1zm106.4-3.6c-1.7-4.8-1.4-6.4 1.3-8.9 3-2.9 7-2.5 7.4.7.2 1.2-.2 2.2-.8 2.2-1.6 0-1.2 2.1.7 4.2 2 2.3 1 3.4-3.9 4.3-3.4.7-3.6.5-4.7-2.5zm-137.5-1.9c0-1 .7-2.4 1.5-3 1.2-1 1.6-1 2.1.3a5 5 0 0 1 0 3.1c-.8 2.2-3.6 1.9-3.6-.4zm6.4-9.6c-1.2-3 .4-4.5 4.6-4.5 4.2 0 4.8.8 3 4-1.3 2.4-6.8 2.8-7.6.5zm142.7-.1c-1.6-1.6-.7-4.4 1.4-4.4 1.5 0 2 .5 1.7 2.2-.3 2.2-2 3.4-3.1 2.2zm-125-5.9c-1.3-3.4-1.3-4.8.2-6.3 2-2 3.5-1.4 3.5 1.6 0 1.5.2 3.6.4 4.7.6 3.1-3 3.2-4.1 0zm38.3-1c1-1 2-1.6 2.3-1.3.4.4-.4 1.2-1.7 1.8-2.2 1.2-2.3 1.2-.6-.6zm88.7-2c-2.2-2.1-2.2-3.7.2-6.6l1.8-2.3 1.2 2.2c.9 1.6.8 2.9-.2 5.3-1.2 3-1.4 3.1-3 1.5zm-94-2.7c-1.9-4.7-3.5-5.8-8.3-5.8-4.3 0-4.7.2-4.7 2.5 0 2.8-1.7 3.4-2.7 1-.3-1 .3-2.4 1.5-3.5 1-1 2.2-2.3 2.4-2.9.3-.8 4.3-1.5 7.6-1.2.7 0 1.2 1 1.2 2.2 0 1.9.4 2 3.8 1.4 2-.4 4.5-1.3 5.3-2 2.1-2 5.5-1.9 7.4 0 1.6 1.6 1.3 3.5-.5 3.5-.5 0-3.1 1.6-5.8 3.5-2.7 2-5.2 3.5-5.5 3.5-.4 0-1.1-1-1.6-2.2zM843.4 96c-1.6-1.6-.6-3.4 1.9-3.4 1.9 0 2.5.4 2.2 1.7-.3 1.9-2.9 2.9-4.1 1.7zm114.7-.8c-1-1-.8-1.8.4-3 2-2 3-2 4.5-.1 1 1.2 1 1.8 0 3-1.6 1.9-3.4 2-5 .1zm9-7.5c0-2.2 2.6-4.1 5.7-4.1 1 0 3-1.1 4.2-2.5 2.6-2.8 4.9-3.2 7.3-1.3 2.5 2 .6 5.8-3 5.8a10 10 0 0 0-4.8 1.4 18 18 0 0 1-5.8 2.1c-3.3.6-3.7.5-3.7-1.4zm20-56.2c-11.6-6-12-6.4-9.6-9 2.7-3 16.1-2.9 20 .1 2.3 1.8 2.6 2.8 2.6 8 0 7.4-.3 7.4-13 .9zM876.9 17.7c-1.6-1-.6-3 1.5-3 .8 0 3.3-1 5.6-2.2 2.3-1.1 6.5-2.5 9.3-3 2.8-.4 8.6-1.4 13-2.3 4.5-.8 13-1.7 18.8-2 11.7-.5 13.6-1 11.8-3-1.7-2.2.7-3 3.4-1.3 1.9 1.3 5.2 1.5 16.8 1.3 8-.2 15.6-.8 17-1.3 1.6-.7 4.7-.7 9.2 0 6.1.8 7 1.3 8.4 3.9 2.2 4.4 1.5 8-1.9 9-2 .5-3.4.1-5.2-1.4-2-1.5-4.6-2-12.3-2.5-13-.6-25.2-.4-40.3.8-7.7.6-12.8.6-13.5 0-1.9-1.5-24.3 2.2-31.4 5.3-6.7 2.8-8 3-10.2 1.7z"/>
</svg>
