<?xml version="1.0" encoding="utf-8"?>
<svg xmlns="http://www.w3.org/2000/svg" version="1.1" viewBox="0 0 1375 199">
	<title>A two-dimensional line where the line starts flat on the left, then rises a moderate amount, and is labeled Box Hill. Then the line drops into a valley, and then remains flat through the center, labeled The Weald. Finally, the line rises again a great deal, and is labeled Chanctonbury, after which it drops off and ends.</title>
	<path d="m936.43 198.96c-2.1999-0.14168-6.8124-0.52148-10.25-0.84401l-6.2504-0.58641-8.1872-6.8387h-2.5009c-1.3755 0-3.8651-0.97119-5.5324-2.1582l-3.0316-2.1582-3.6224 1.854c-1.9923 1.0197-4.8388 2.9547-6.3256 4.3l-2.7032 2.446-22.068-3.5496-1.1396-1.3728c-0.6268-0.75507-1.4353-2.8322-1.7966-4.6158l-0.65702-3.2429-17.93-2.0988-5.4997-2.6898c-3.0248-1.4794-6.5345-2.6942-7.7992-2.6996-1.2647-5e-3 -3.5146-0.62827-4.9997-1.3842l-2.7002-1.3745-21.419-0.91829-0.96092 2.7559c-0.52851 1.5157-1.9134 3.2655-3.0776 3.8884-1.1642 0.62291-2.9879 0.85611-4.0527 0.51823-1.0648-0.33789-2.8185-1.736-3.8971-3.1069l-1.9611-2.4925-7.0907-1.1504-2.5337 1.6598-2.5337 1.6597-9.8945-1.3122-3.7878 1.505c-3.9842 1.5831-10.147 2.4-24.411 3.2357-4.743 0.27788-10.464 1.1544-12.713 1.9478l-4.0897 1.4426-6.9279-1.124-2.8216 1.9776c-1.5519 1.0877-5.1416 2.2759-7.9771 2.6404l-5.1555 0.66277-4.7429-2.5212c-2.6086-1.3867-5.5546-2.5212-6.5468-2.5212-0.99214 0-2.9622-0.52764-4.3779-1.1725l-2.574-1.1726-1.1728 1.1726c-1.5064 1.506-7.0264 1.5185-8.526 0.0193l-1.1535-1.1533-4.5868 1.7513c-2.5227 0.96322-5.5809 1.5086-6.796 1.212l-2.2093-0.53928-1.941 1.4408c-1.0676 0.79243-3.507 1.4408-5.4209 1.4408s-4.1903 0.61497-5.0586 1.3666c-2.3717 2.0531-14.602 4.5816-23.077 4.7708-9.5054 0.2122-18.556-0.90239-22.815-2.8097l-3.3162-1.4851-10.183 1.6803c-5.6006 0.92417-13.033 2.3276-16.516 3.1186-3.4829 0.79107-7.1792 1.1696-8.2141 0.84128l-1.8815-0.59704-5.9022 4.3627-3.334-0.68447c-1.8337-0.37645-4.2339-0.64719-5.3338-0.60163-1.0999 0.0456-6.7064 0.25617-12.459 0.468l-10.459 0.38516-3.5404-1.8103c-1.9472-0.99564-5.1707-2.3129-7.1633-2.9273l-3.6229-1.1171-9.14 3.917-3.1644 6.1179h-3.014c-1.6577 0-4.778-0.89975-6.9341-1.9994-2.1561-1.0997-4.8639-1.9994-6.0175-1.9994-1.1536 0-6.6727 0.94787-12.265 2.1064l-10.167 2.1064-13.523-1.3323-5.058-3.403c-2.7819-1.8716-6.4997-3.6204-8.2618-3.8861-1.7621-0.26569-6.0309-0.7267-9.4861-1.0245l-6.2823-0.5414-1.9902 1.2377-1.9902 1.2377-6.1158-3.499-4.6687 0.0153c-2.5678 8e-3 -5.1212 0.34582-5.6743 0.74978-0.5531 0.40397-2.2634 2.4215-3.8007 4.4834l-2.795 3.7489h-8.628l-4.7694-3.7206-9.4994-0.71016c-8.7622-0.65504-16.983-2.5526-19.474-4.4951-1.7509-1.3652-11.967-2.091-15.436-1.0966l-3.3003 0.94629-21.286-2.9899-6.9996 0.62099c-3.8498 0.34154-8.5465 1.3181-10.437 2.1701l-3.4376 1.5491-8.0618 0.11396c-4.434 0.0627-9.9419-0.22361-12.24-0.63618l-4.178-0.75013-1.3306 1.3303c-0.73184 0.73167-1.8641 1.1525-2.5162 0.93522s-2.0606 0.0731-3.1302 0.64539c-1.0695 0.57228-6.8097 1.3057-12.756 1.6298-5.9462 0.32408-11.257 0.86472-11.802 1.2014-0.54491 0.3367-4.6166 0.96219-9.0482 1.39-4.4316 0.4278-10.082 1.0622-12.557 1.4098l-4.4997 0.632-4.4997-2.1306c-9.5202-4.5078-9.1502-4.1766-20.416-18.275-2.5202-3.1538-4.5822-6.4154-4.5822-7.2479 0-0.83253-0.50243-1.5137-1.1165-1.5137h-1.1165l0.48765-2.5504 0.48765-2.5504-5.6861 1.2486-2.4141-2.6862c-5.0106-5.5754-6.2028-7.0318-8.4229-10.29-1.255-1.8417-3.6173-4.4722-5.2497-5.8454s-2.9823-3.2441-2.9998-4.1574c-0.0175-0.91335-0.57997-2.3424-1.2499-3.1757-0.66997-0.83327-3.0337-2.9313-5.2526-4.6622-2.219-1.731-4.6308-4.2611-5.3596-5.6225-0.72877-1.3614-2.4217-2.9748-3.7621-3.5854s-4.5783-1.1101-7.1954-1.1101h-4.7584l-3.3641 2.4814c-3.517 2.5942-13.364 14.519-14.926 18.075-0.49789 1.1337-2.4382 3.4069-4.3118 5.0516l-3.4066 2.9903-7.4391 2.5709c-4.0915 1.414-10.162 3.1197-13.49 3.7904-7.5802 1.5276-22.011 1.7978-34.631 0.64843-5.3261-0.48507-10.501-0.54041-11.499-0.12298-2.646 1.1061-20.717 1.4921-22.359 0.47757-0.76863-0.47493-1.1449-1.1161-0.83607-1.4248 0.3088-0.30872 5.4705-0.88697 11.47-1.285 10.882-0.72185 19.429-0.79718 41.654-0.36709 6.4603 0.12501 12.194-0.0496 12.742-0.38792 0.54763-0.33838 3.8087-1.0682 7.2468-1.6217 3.4381-0.55357 8.0766-1.8138 10.308-2.8005 2.2311-0.98671 5.7423-3.2738 7.8027-5.0824 2.0604-1.8086 4.39-4.6853 5.177-6.3925 2.1161-4.5907 11.28-15.772 15.008-18.311l3.2452-2.2104 13.814-0.34853 2.2677 1.385c1.2473 0.76172 3.7365 3.4094 5.5316 5.8837 1.7952 2.4743 4.9975 5.4042 7.1163 6.5108l3.8524 2.0121 0.76737 2.8687c0.42205 1.5778 2.2528 4.2915 4.0683 6.0306 5.1542 4.9371 8.788 9.6041 10.306 13.236 1.4188 3.395 3.2383 4.1879 5.1725 2.2541 0.59297-0.59283 2.3704-0.93024 3.9498-0.74979l2.8716 0.32809 0.63906 4.4987h-1.5694c-0.8632 0-1.5695 0.67481-1.5695 1.4996 0 0.82477 0.44997 1.4996 0.99994 1.4996s0.99994 0.67134 0.99994 1.4919c0 0.82051 1.3122 2.6608 2.9161 4.0895s3.5036 4.0189 4.2216 5.7561c0.71805 1.7372 2.7185 4.5734 4.4454 6.3028 1.7269 1.7294 6.1582 4.5411 9.8473 6.2482l6.7075 3.1039h3.871c2.129 0 4.1491-0.44988 4.489-0.99972s3.037-0.99971 5.9936-0.99971c2.9566 0 6.6328-0.47791 8.1695-1.062 1.5367-0.58411 7.9781-1.4904 14.314-2.014 6.3362-0.5236 13.478-1.6747 15.87-2.558l4.35-1.606 14.299 2.262 5.7034-0.95008c3.1368-0.52254 6.5946-1.4269 7.6838-2.0097 1.0892-0.58282 4.0056-1.0597 6.4808-1.0597 2.4752 0 5.6841-0.44993 7.1308-0.99986l2.6304-0.99986 1.9957 1.0678 1.9956 1.0678 35.64 0.6674 1.9985 1.0693c3.6399 1.9476 10.661 3.8976 16.165 4.4896l5.4285 0.58389 2.3396-1.9413 4.4011 2.4836c2.4206 1.366 5.4117 3.0105 6.6469 3.6545l2.2458 1.1709 2.0039-1.8131c1.1022-0.99723 2.0039-2.4248 2.0039-3.1725s1.4624-2.2594 3.2498-3.3595l3.2498-2.0002 6.9996 0.38467c3.8498 0.21157 7.7938 0.71912 8.7644 1.1279 0.97066 0.40877 2.6964 0.49966 3.835 0.20199 1.1386-0.29768 6.419-0.0598 11.734 0.52871l9.6643 1.0699 3.8854 2.1078c2.137 1.1593 4.8368 2.6635 5.9996 3.3427 1.1628 0.6792 4.6467 1.2415 7.7418 1.2496l5.6275 0.0147 3.6659-1.5314c2.0162-0.84225 7.1482-1.7495 11.404-2.0162l7.7386-0.48483 3.4111 2.516c1.8761 1.3838 4.199 2.5161 5.1621 2.5161h1.7511l2.6267-5.4984 10.222-5.4862 13.759 5.4862 13.499 0.1893c7.4246 0.10411 14.859 0.47755 16.522 0.82987l3.0224 0.64058 1.8824-2.0795 1.8824-2.0795h4.6346c2.549 0 7.1113-0.64494 10.138-1.4332 3.027-0.78826 9.4655-1.9873 14.308-2.6645l8.8039-1.2313 3.1514 1.1166c4.7868 1.696 14.105 2.6862 24.65 2.6193l9.4994-0.0603 5.3783-1.6568c2.9581-0.91126 5.9632-2.1422 6.6781-2.7353 0.71487-0.59316 3.4693-1.2432 6.121-1.4446 7.4253-0.56394 14.573-1.9865 17.215-3.4264l2.3942-1.3047 3.856 1.2723 3.856 1.2723 4.9906-2.2734 2.5689 0.97647c1.4129 0.53707 4.2788 0.97648 6.3687 0.97648h3.7998l5.0849 3.9989h3.4649c1.9057 0 5.6076-0.94756 8.2263-2.1057l4.7614-2.1057 7.3408 1.1736 4.5128-3.1602 10.688-0.95681c5.8783-0.52625 14.68-1.6583 19.56-2.5156l8.8722-1.5588 9.0912 1.0245 3.7804-1.3335c4.2521-1.4999 11.303-1.1836 13.457 0.60377 0.78361 0.65019 1.4247 1.8019 1.4247 2.5593v1.3772h4.9729l1.5122-3.6185 1.5122-3.6185 10.75 0.71432c5.9128 0.39288 13.928 1.0623 17.812 1.4876l7.0612 0.7733 3.9382 2.4711c3.8122 2.392 9.9219 3.862 17.69 4.256l3.7525 0.19034 4.9943 4.6909v6.4069l5.885 2.4371 8.2288-1.3899 6.1734 2.5565 1.8957-2.3406c1.0426-1.2873 4.0151-3.3791 6.6054-4.6484 2.5904-1.2694 5.2115-2.322 5.8248-2.3392 0.6133-0.0172 2.2986 0.89947 3.7451 2.037l2.63 2.0683 3.6317-1.1524 7.877 6.7377 3.4998 0.5324c1.9249 0.29282 5.568 1.3386 8.0959 2.3239l4.5961 1.7915 3.5796-1.6983c4.4383-2.1057 12.465-3.6739 18.804-3.6739 2.6423 0 5.0823-0.44988 5.4222-0.99972 0.8177-1.3228 4.4804-1.2646 9.7914 0.15558l4.3205 1.1553 4.4434-2.5405c2.4438-1.3973 6.7358-2.8232 9.5378-3.1686l5.0945-0.62803 3.6229 1.5134c4.0074 1.674 13.362 2.0045 15.657 0.55309l1.4705-0.92971 3.1473 1.9447c1.7311 1.0696 3.8958 1.9447 4.8106 1.9447s1.9223-0.67481 2.2389-1.4996l0.5755-1.4996h5.0217l3.4166 2.9992c1.8791 1.6495 3.8668 2.9992 4.417 2.9992 0.5501 0 2.095-0.71711 3.4329-1.5936 1.338-0.87646 3.0034-1.4034 3.7009-1.1709 1.9751 0.65825 11.406-6.3808 14.34-10.703 3.1583-4.6529 7.3345-13.677 8.5725-18.524 0.4916-1.9244 1.2901-6.4648 1.7745-10.09s2.563-10.823 4.6191-15.995l3.7384-9.4047 5.6244-6.8293c3.0935-3.7561 6.688-8.6237 7.9878-10.817 2.8399-4.7914 26.337-28.339 30.61-30.677l3.0241-1.6539 16.499-5e-3c9.0744-2e-3 18.524 0.31575 20.999 0.70716 13.186 2.0854 16.524 2.9356 22.244 5.6658 3.4397 1.6416 8.2788 4.3565 10.754 6.0332 2.4749 1.6767 4.8672 3.0567 5.3164 3.0667 0.4492 0.01 2.2915 1.1429 4.0941 2.5175 1.8026 1.3746 3.5947 2.4993 3.9825 2.4993 0.3877 0 6.2851 4.4987 13.105 9.9972 6.8203 5.4984 12.719 9.9972 13.108 9.9972 0.3889 0 3.2234 1.8877 6.299 4.1949 6.3843 4.7892 8.1288 6.24 13.305 11.065 2.0424 1.9039 4.9978 3.9935 6.5677 4.6436s4.7043 3.1474 6.9652 5.5494c4.8461 5.1486 12.815 10.699 23.377 16.281l7.6251 4.0304 5.123 0.70442c2.8177 0.38744 5.3425 1.0596 5.6109 1.4937 0.2684 0.43411 3.7562 1.8071 7.7506 3.051 3.9946 1.244 15.98 5.1366 26.634 8.6503 10.654 3.5137 21.362 6.6613 23.795 6.9946l4.423 0.6061-0.3234 1.6073-0.3233 1.6073-2.4725-0.11423c-1.3598-0.0628-6.3737-0.78205-11.142-1.5983l-8.6697-1.484-1.6512-1.6508c-0.9082-0.90794-2.4949-1.6508-3.526-1.6508-1.0313 0-9.4361-2.5363-18.678-5.6363-9.2415-3.0999-19.952-6.2468-23.802-6.9931l-6.9996-1.3569-2.4999-2.0174c-1.3749-1.1096-4.0748-2.788-5.9996-3.7298-1.9249-0.9418-6.1997-3.4991-9.4995-5.6829-6.0127-3.9792-9.5221-6.7606-28.478-22.57-5.6038-4.6737-11.613-9.2508-13.354-10.171-1.741-0.92065-5.8459-3.9573-9.1219-6.7481-3.276-2.7908-6.3178-5.0742-6.7595-5.0742s-4.061-2.6135-8.0428-5.8077-9.7845-6.9921-12.895-8.4398c-3.1102-1.4476-5.9543-3.1165-6.3203-3.7086-0.966-1.5627-9.1566-5.5418-15.523-7.5414-3.0248-0.95005-8.8745-2.2374-12.999-2.8607l-7.4996-1.1333-7.4997 0.62509c-4.1247 0.3438-11.35 0.43749-16.056 0.20821l-8.5568-0.41689-1.8476 2.0412c-1.0162 1.1226-2.3524 2.0412-2.9694 2.0412-1.5579 0-13.418 12.158-19.503 19.994-2.7756 3.574-7.5123 9.6896-10.526 13.59l-5.4793 7.092-3.6256 8.4036-3.6255 8.4036-0.7771 7.4979c-0.4274 4.1238-1.4766 9.9722-2.3314 12.996-0.8549 3.0241-2.9806 8.5391-4.724 12.255l-3.1698 6.757-15.302 13.971-2.4998 0.0352c-1.3749 0.0194-3.3733 0.69574-4.4408 1.503-1.0677 0.80728-2.8959 1.4678-4.0627 1.4678-1.1669 0-3.415-1.3496-4.9957-2.9992s-3.5079-2.9991-4.2826-2.9991c-0.7746 0-2.7372 0.7847-4.3612 1.7438l-2.9526 1.7438-3.8216-2.1989-3.8215-2.1989-7.6407 2.1092-5.4756-1.0994c-3.0115-0.60464-7.9915-1.0994-11.066-1.0994h-5.5909l-9.656 5.1392-9.728-2.4927-3.7992 1.1289c-2.0896 0.62088-7.3128 1.3962-11.607 1.7229s-8.7942 0.91683-9.9994 1.3114-3.9912 0.60145-6.1911 0.45977zm-789.45-59.255c0-0.54985-0.44997-0.99972-0.99994-0.99972s-0.99994 0.44987-0.99994 0.99972c0 0.54984 0.44997 0.99971 0.99994 0.99971s0.99994-0.44987 0.99994-0.99971zm380.2 4.0041-2.0343-2.1831-0.71378-7.106-0.7138-7.106 5.3615-4.6107 1.9968 1.0684c1.0982 0.58763 2.2561 1.744 2.573 2.5698 0.31694 0.82576 0.0813 1.9962-0.52367 2.6011l-1.0999 1.0997-0.63974-1.6667c-0.35185-0.91671-1.0112-1.6667-1.4653-1.6667-0.45406 0-1.1293 0.95671-1.5005 2.126l-0.67493 2.126 5.7148 4.7046-4.4997 1.2736v1.7759c0 0.97673 0.64901 2.0249 1.4423 2.3292 0.79323 0.30433 2.9859 0.30288 4.8726-3e-3l3.4303-0.55655 0.73996 1.197c0.40697 0.65836 0.35168 1.5707-0.12287 2.0274s-2.943 1.1348-5.4856 1.5069l-4.6227 0.67657-2.0344-2.1831zm86.733-2.5559-1.3249-1.5961-0.26698-6.0691-0.26697-6.0691 3.0118-5.8229 7.3726 0.61398 0.32955 1.7388 0.32955 1.7388-6.1114-1.222-1.3811 3.5982 4.4058 2.9247-1.649 1.8218-1.649 1.8218 0.58985 1.5368 0.58987 1.5368h3.5312c1.9422 0 3.5312 0.39529 3.5312 0.87842 0 0.84451-3.1741 2.3363-7.6084 3.5758l-2.1087 0.58946zm24.428-0.98117-1.6595-2.5321 0.57135-5.5347c0.31426-3.0441 1.1057-6.1784 1.7589-6.9652 0.65312-0.78678 2.4517-1.4305 3.9968-1.4305h2.8093l2.068 2.9035c1.1374 1.597 2.068 3.329 2.068 3.8489 0 0.51993 1.3527 2.8123 3.0061 5.0942l3.0061 4.1489h4.1539l-0.41032 1.2496c-0.22568 0.6873-1.8802 1.3938-3.6767 1.5699l-3.2663 0.32025-1.9063-1.7248c-1.0485-0.94866-1.9064-2.3299-1.9064-3.0695 0-0.73954-0.36535-1.3446-0.81189-1.3446-0.44655 0-1.8099 1.3496-3.0298 2.9992s-2.869 2.9991-3.6648 2.9991c-0.79582 0-2.1937-1.1394-3.1064-2.5321zm7.0067-5.6568c1.1279-3.1897 0.0236-7.8065-1.8673-7.8065h-1.4356l-0.64026 3.4121c-0.75475 4.0222 0.23379 7.856 1.8844 7.3082 0.64079-0.21266 1.5672-1.5238 2.0587-2.9138zm-133.14 6.5271-1.2499-0.50424v-11.83h-3.8772l-0.63589 4.7486c-0.34973 2.6118-0.82751 5.3484-1.0617 6.0814-0.23421 0.73302-0.98808 1.1483-1.6752 0.92273-0.68717-0.22554-1.3691-1.95-1.5154-3.8321s-1.2341-7.2525-2.4173-11.934l-2.1513-8.5122 1.373-5.4691h2.8846l1.0553 4.2488c0.58043 2.3368 1.3998 5.5984 1.8207 7.2479l0.76537 2.9991 8.9349 0.99972 0.621 10.973 1.4416 1.5926c0.79286 0.87591 1.1406 1.8935 0.77277 2.2612-0.75653 0.75635-3.2187 0.75953-5.0852 7e-3zm80.176-6.3359c-2.023-3.8489-4.2456-6.998-4.9392-6.998-1.9072 0-4.4909 4.547-4.4909 7.9036 0 3.2188-1.5855 4.9072-3.1445 3.3486-0.5337-0.53358-1.1958-3.621-1.4714-6.8609l-0.50099-5.8908-6.1727-13.297 0.6137-1.5989c0.33753-0.8794 1.4732-1.5989 2.5236-1.5989h1.91l1.2047 3.2491c0.66257 1.787 1.5615 3.9412 1.9976 4.7871 0.4361 0.84591 1.1131 3.4327 1.5044 5.7484 0.39131 2.3157 1.0094 4.196 1.3736 4.1786 0.36412-0.0175 1.5355-0.6923 2.6031-1.4996 1.0676-0.80728 2.9684-1.4678 4.2241-1.4678h2.283l1.5682 3.0318c0.8625 1.6675 1.9793 2.7778 2.4818 2.4673 0.50253-0.31051 0.67831-1.1778 0.39063-1.9273-0.84268-2.1955 1.5887-9.7976 4.2644-13.334 2.5974-3.4324 10.903-8.2331 14.244-8.2331h1.9657l0.65866 2.0748c0.36226 1.1411 0.39377 2.3396 0.07 2.6633-0.32376 0.32368-2.3247 0.52049-4.4465 0.43738l-3.8579-0.15114-3.5912 2.7364c-1.9752 1.505-4.1776 4.086-4.8942 5.7355l-1.303 2.9991 0.21968 6.998c0.12081 3.8489-2.5e-4 8.0102-0.26905 9.2474-0.26878 1.2371-1.1306 2.2494-1.915 2.2494h-1.4263l-3.6782-6.998zm99.674 5.6313c-1.8493-2.2278-2.1046-6.656-0.59366-10.299 1.403-3.3831 4.0931-5.329 7.3673-5.329h2.0157l0.29989-5.7386 0.29988-5.7386 3.3649-0.63991 1.1355 2.1212 1.1355 2.1212-3.1611 12.602 1.6309 7.7695 10.735 0.0242 0.38225 1.1465 0.38224 1.1465-2.9742 0.6531c-1.6358 0.3592-5.5969 0.59157-8.8024 0.51636-3.2055-0.0752-7.2038 0.16007-8.8849 0.52282l-3.0567 0.65954-1.2759-1.537zm7.7443-4.213 1.176-2.5806-1.2655-2.5941c-0.69604-1.4268-1.7504-2.7515-2.3432-2.9438-0.59268-0.19231-1.6291 0.86052-2.3032 2.3396l-1.2256 2.6893 1.1746 2.8351c0.64602 1.5593 1.7227 2.8351 2.3927 2.8351 0.66995 0 1.7473-1.1612 2.3941-2.5806zm-220.84 1.5808v-1.9994h6.9996v-2.977c0-3.4004-4.8878-14.015-6.4579-14.024-0.57289-3e-3 -2.3606-0.6938-3.9726-1.5342l-2.931-1.5281-2.9679 1.0344c-3.6757 1.2811-7.3663 1.3335-8.1193 0.11527-1.1146-1.8031 2.4601-3.8676 8.5556-4.941l6.1915-1.0904 6.5235 3.0949 3.839-1.0658c2.1114-0.58615 4.6264-1.0683 5.5888-1.0713 0.96245-3e-3 1.7499 0.6534 1.7499 1.4588 0 1.7324-3.0252 3.5342-5.9339 3.5342h-2.0656v1.6708c0 0.91893 0.7131 2.4586 1.5847 3.4214 1.8402 2.033 2.9418 8.669 2.0372 12.273-0.34377 1.3694-1.3315 3.196-2.1949 4.0592l-1.5698 1.5695h-6.8567zm194.37-0.45199c-0.71109-1.8526 0.32604-3.5469 2.1712-3.5469h1.4332l-2.951-5.7484c-1.6231-3.1616-3.2196-7.3229-3.5479-9.2474l-0.59692-3.499 1.3057-1.6486c0.71814-0.90671 2.3204-1.9499 3.5605-2.3183l2.2548-0.66973 0.60202 1.5685c0.33112 0.86268 0.32358 2.294-0.0168 3.1807l-0.61879 1.6122-2.9762-2.4694v2.3631c0 1.2997 1.626 4.7234 3.6133 7.6083l3.6133 5.2452-1.3131 6.9976-1.8911 1.0119c-1.0401 0.55652-2.3847 1.0119-2.9881 1.0119-0.60338 0-1.3478-0.65326-1.6543-1.4517zm616.25-68.195c-1.3389-1.3386-0.6015-4.678 2.2501-10.19 1.6042-3.1011 3.4114-7.2417 4.016-9.2013l1.0991-3.563-1.6741-3.435c-0.9208-1.8893-2.503-4.6292-3.516-6.0887-1.8207-2.6233-2.4029-5.9495-1.244-7.108 1.3194-1.3192 3.5128 0.72052 5.5059 5.1202l2.1026 4.6414 1.4224-3.9747c0.7823-2.1861 1.8607-4.413 2.3964-4.9486l0.9741-0.97388 1.1798 1.1794 1.1797 1.1795-1.1157 2.2696c-0.6137 1.2483-1.8735 5.6436-2.7997 9.7674-0.9261 4.1238-2.98 10.197-4.5641 13.496s-2.88 6.9205-2.8798 8.0477c4e-4 1.9602-1.6961 4.4487-3.0328 4.4487-0.3483 0-0.9333-0.29991-1.2999-0.66648zm-216.65-25.229v-2.1468l5.4997-1.0977-0.6804-9.6632-4.3193-1.2186 3.3826-2.6012 0.3086-5.3807 0.3086-5.3807 6.6539-3.8739 1.592 1.5916 1.5919 1.5916-1.237 5.5264c-0.6804 3.0395-1.6564 5.7856-2.1691 6.1023-0.5127 0.31675-0.932 1.2729-0.932 2.1249v1.549l2.4304-0.60988c1.3367-0.33542 3.5866-0.17039 4.9997 0.36674l2.5693 0.97661v6.9084l2.1715 0.31946c1.1944 0.1757 2.3381 0.82575 2.5417 1.4446l0.3701 1.1251-2.7283 0.52142c-1.5005 0.28679-3.2629 0.31633-3.9162 0.0657-0.6534-0.25067-1.9877-2.2288-2.9652-4.3958-0.9773-2.167-2.0686-3.94-2.4251-3.94-1.6014 0-3.0479 2.6724-3.0479 5.631v3.2317l-2.2499 0.76322c-1.2374 0.41977-2.8457 0.64764-3.574 0.50638-0.7283-0.14127-1.9657 0.27549-2.7498 0.92612l-1.4258 1.183zm-24.295-0.65295c-1.5377-0.85581-3.2251-2.6848-3.7498-4.0643-0.5246-1.3796-0.9539-3.9652-0.9539-5.7459 0-1.7807 1.1644-5.5737 2.5875-8.4288 2.7826-5.5826 6.7252-9.3981 8.8635-8.5778 1.5328 0.58805 2.7646 5.651 1.9141 7.867-0.7019 1.8286-3.5026 1.9734-5.2071 0.26923l-1.2417-1.2413-0.8868 1.4347c-0.4878 0.78908-0.8869 3.7935-0.8869 6.6766v5.2419l1.3137 1.09 1.3136 1.09 4.6348-1.5732c2.5492-0.86526 5.0756-1.3008 5.6145-0.96783 0.5389 0.33294 0.9548 1.1412 0.9244 1.796-0.084 1.8057-5.4166 5.6435-8.6129 6.1983l-2.8311 0.4915zm231.72-0.90007c-0.8851-1.3504-1.344-2.8844-1.0199-3.4088 0.8543-1.3818-0.4141-4.133-1.9052-4.133-0.7008 0-2.4754 1.5746-3.9436 3.499s-3.3419 3.499-4.1638 3.499h-1.4943l0.6217-3.3132 0.6216-3.3132-1.5763-1.3079c-1.7599-1.4603-2.0095-3.8292-0.6326-6.0048l0.913-1.4427 2.5715 1.1714c1.4143 0.64425 2.5714 1.8558 2.5714 2.6924 0 0.83655 0.2546 1.521 0.5657 1.521s1.4066-0.44993 2.4344-0.99985l1.8687-0.99987 5.1306 1.9502v6.7778l1.9671 2.5002c1.0819 1.3751 1.6819 2.7854 1.3333 3.134-1.4063 1.406-4.3468 0.49251-5.8633-1.8216zm-129.23 0.25595c-0.6599-0.65981-1.1999-2.8485-1.1999-4.8638v-3.6641l2.0725-2.6341c1.1398-1.4488 2.9239-2.6341 3.9646-2.6341 1.8493 0 3.9624 2.6928 3.9624 5.0494v1.182l-5.1079-0.97619 0.3041 2.6209 0.304 2.6209 2.7499 0.31633c1.5124 0.17398 2.7499 0.72049 2.7499 1.2145 0 1.3056-3.4917 2.9679-6.2341 2.9679-1.301 0-2.9055-0.53985-3.5655-1.1997zm104.69-0.42348-1.2489-1.5045-4.5872 1.151-1.6305-2.4879c-0.8967-1.3683-1.6979-3.9439-1.7804-5.7235l-0.1498-3.2356 3.4541-0.7101 0.6506 4.0678c0.3578 2.2373 0.95 4.0678 1.3159 4.0678 0.366 0 1.096-1.4325 1.6221-3.1834 0.5262-1.7509 1.5193-3.3629 2.2067-3.5823l1.2499-0.39892 0.014 2.3327c0.01 1.283 0.2849 3.3449 0.6166 4.582l0.603 2.2494h3.9331l-0.3848 1.1542c-0.2116 0.63479-1.3412 1.5078-2.51 1.9401l-2.1252 0.78597-1.2489-1.5046zm-67.494-0.14167c-1.7261-1.1523-3.3995-4.866-3.3995-7.5444 0-1.3434 0.5624-2.9039 1.2499-3.4677 1.9941-1.6354 6.3274-1.8143 8.1105-0.33481l1.6389 1.3599v6.7532l-1.9999 1.9994c-2.0971 2.0968-3.7592 2.4631-5.5999 1.2343zm4.6-5.0421c0-2.2755-2.5034-5.8019-3.2552-4.5856-0.3084 0.49881-0.3246 2.1415-0.036 3.6504l0.5246 2.7435h1.3833c0.7608 0 1.3833-0.81376 1.3833-1.8084zm38.023 3.8332c-1.086-1.0857-2.2313-3.2226-2.5453-4.7486-0.314-1.5261-1.0004-4.4014-1.5254-6.3896-1.2452-4.7162-1.2127-9.5302 0.081-11.946l1.0348-1.9337h2.4961c1.3728 0 2.7394 0.6342 3.0369 1.4093 0.2976 0.77514-0.1452 2.736-0.9839 4.3576l-1.5249 2.9482 2.2008 13.279h2.9659l-0.5535-3.4097c-0.3044-1.8754-0.2922-3.6709 0.027-3.9902 0.3193-0.31926 1.1844-0.0794 1.9225 0.53299 0.738 0.6124 1.3419 2.6329 1.3419 4.49l2e-4 3.3766-1.9999 1.9994c-1.0999 1.0997-2.4498 1.9994-2.9998 1.9994s-1.8885-0.8883-2.9744-1.974zm-116.36-0.85393c-0.9102-1.0055-1.6549-3.03-1.6549-4.4987v-2.6705h-3.2224l0.6231 3.3206c0.3427 1.8263 0.3495 3.594 0.015 3.9283-0.9506 0.95032-7.3633-2.5924-7.3908-4.083-0.014-0.73313 0.5379-1.1451 1.2253-0.91544l1.2499 0.41752 1-3.0834 0.9999-3.0834 2.3077-0.32704c1.2692-0.17987 3.3518 0.35693 4.6279 1.1929 1.2761 0.83595 2.558 2.7826 2.8486 4.3259 0.2905 1.5433 0.8478 3.8182 1.2383 5.0553l0.7101 2.2494h-1.4616c-0.8038 0-2.2062-0.8227-3.1164-1.8282zm16.546 0.56757c-0.5636-0.68126-1.177-2.5883-1.3632-4.2378l-0.3385-2.9991-4.4997-0.63892v-1.8075c0-0.99411 0.6938-2.3831 1.5417-3.0867l1.5417-1.2792 2.7769 2.0525 2.7768 2.0525 2.6867-0.51351 2.6869-0.51349 1.4941 1.2398c0.8218 0.68187 1.4942 2.4443 1.4942 3.9166 0 1.4722 0.54 3.2166 1.1999 3.8764l1.1999 1.1997-1.1327 1.1324c-0.6229 0.62286-1.8245 0.86706-2.67 0.54267-0.8456-0.32439-1.8133-1.8462-2.1506-3.3818-0.3374-1.5356-0.7836-3.3468-0.9919-4.0248l-0.3786-1.2328-1.5377 0.58996-1.5378 0.58996v3.333c0 1.8332-0.399 3.5796-0.8867 3.8809-0.4876 0.30132-1.3478-0.01-1.9114-0.69078zm84.4-0.32069c-0.3339-0.86974-0.607-2.8676-0.607-4.4397 0-5.7932-4.2916-4.5642-5.4404 1.558l-0.6498 3.4634h-2.6867l-0.6607-3.5214-0.6609-3.5214-1.9503-1.2178c-1.0727-0.66976-1.9504-1.7146-1.9504-2.3219 0-1.5396 3.0219-4.0305 5.9919-4.939l2.4919-0.76231-1.3281 1.6c-0.7306 0.87999-1.0625 2.0298-0.7379 2.555l0.5904 0.95503 2.8946-1.0923 2.8946-1.0923 5.3317 3.4926-1.2472 5.6766 1.0586 0.65404c0.5821 0.35972 1.0584 1.5272 1.0584 2.5945v1.9404h-1.8929c-1.0411 0-2.1661-0.7116-2.4998-1.5813zm-44.521-0.34522-1.4162-0.89621-0.084-5.8366-0.083-5.8366-6.4997-0.62654v-4.1054l2.0231 0.52892 2.023 0.52892 1.5156-3.6264c0.8335-1.9945 2.0605-3.9726 2.7267-4.3959 0.6661-0.42324 2.2235-0.77641 3.461-0.78483l2.2498-0.0153v1.531c0 0.84203-0.6749 1.7899-1.4999 2.1064-0.8249 0.3165-1.4999 1.4526-1.4999 2.5246v1.9492l2.2224-1.5563c2.5112-1.7586 5.3667-2.0293 6.2546-0.59301 0.9002 1.4563-3.1688 5.0348-5.7272 5.0367l-2.2498 2e-3 -0.1943 5.5427-0.1943 5.5426 5.0086 1.9038-0.6191 1.0016c-0.7658 1.2389-5.502 1.2866-7.417 0.0748zm-958.35-3.8725-1.6965-1.8742-1.968-20.65 5.0258-6.5877 2.725 1.0454 0.12579 10.185c0.0692 5.6017 0.23413 12.199 0.36657 14.662l0.24077 4.4769-1.5614 0.3088c-0.85878 0.16985-2.3248-0.53459-3.2579-1.5654zm-14.613-1.6186c-0.68717-0.82782-1.4898-4.156-1.7837-7.396l-0.53428-5.8909 2.3349-1.635c1.2842-0.89929 2.6536-1.3018 3.0432-0.89454 0.38955 0.40729 0.85098 4.3347 1.0254 8.7275l0.31716 7.987-1.5766 0.30357c-0.86713 0.16696-2.1388-0.37374-2.826-1.2015zm28.294 0.4299-2.1379-0.86272-0.83464-9.321c-0.45905-5.1266-0.72053-10.221-0.58106-11.32s1.0572-2.8042 2.0393-3.7879l1.7857-1.7884 1.6832 0.64574c0.92575 0.35517 1.6832 1.2432 1.6832 1.9733 0 0.73014-0.42723 2.451-0.9494 3.8241l-0.94939 2.4965 2.4561 13.305 1.7212 0.96304c0.94667 0.52966 1.7212 1.5673 1.7212 2.306 0 1.3558-2.1789 2.61-4.3315 2.4932-0.64247-0.0349-2.1302-0.45159-3.306-0.92607zm-101.88-2.2596c1.5008-4.7541 1.6753-7.5949 0.59089-9.6206-0.619-1.1563-2.2374-2.3814-3.5964-2.7225-1.359-0.34102-2.471-1.0308-2.471-1.5328 0-0.50202 1.172-1.4467 2.6045-2.0992l2.6045-1.1864 3.0518 1.7511 3.0518 1.7511 1.0433-1.0431c0.57383-0.5737 1.4309-1.0431 1.9045-1.0431h0.86123l-1.3496 8.9974h6.2267v1.3926c0 0.76595-0.71176 1.6657-1.5817 1.9994-0.86992 0.33374-2.8431 0.60681-4.3847 0.60681h-2.803l-1.638 2.4993c-0.90089 1.3746-2.355 2.4993-3.2314 2.4993h-1.5935zm48.733 1.0622c-1.4684-1.4681-1.5882-4.461-0.21249-5.311 0.54997-0.33982 0.99994-1.9046 0.99994-3.4773s-0.70379-5.6059-1.564-8.9628-1.4226-7.3258-1.2499-8.8197l0.31405-2.7163 1.8561-0.35223c1.0209-0.19373 2.2947 0.0863 2.8308 0.62227 0.5361 0.53598 1.2001 4.064 1.4756 7.8402 0.2755 3.7761 0.65512 7.0198 0.84359 7.2082 0.18847 0.18842 1.2765 0.0463 2.4179-0.31591l2.0752-0.65852v-9.5525l3.8012-3.4393 0.67313 1.0889c0.37022 0.5989 0.93488 6.9729 1.2548 14.164l0.58165 13.075-3.8109-0.72358-1.3595-4.287c-0.74771-2.3578-1.7406-4.1535-2.2064-3.9903-0.46582 0.1632-1.8989 2.2903-3.1847 4.7269-1.2857 2.4366-2.7846 4.5791-3.3308 4.7612-0.54619 0.18201-1.5387-0.21453-2.2055-0.88121zm-100.71-3.7858c-1.0999-0.48548-3.1248-1.1202-4.4997-1.4105l-2.4999-0.52783-1.6783-3.2924c-0.92309-1.8108-2.0961-6.4309-2.6067-10.267l-0.92839-6.9744 0.86848-3.1447 0.86848-3.1447 8.9684-0.70143c4.9326-0.38578 9.934-0.39502 11.114-0.0205l2.1459 0.68092-1.1311 9.5481 4.8778 4.5814-0.0037 3.0748c-0.0021 1.6912-0.90221 4.5481-2.0003 6.3488-1.902 3.1188-4.4047 4.6464-9.2894 5.6697-1.2132 0.25416-3.1058 0.0649-4.2057-0.42056zm9.277-3.5813c1.2223-0.85595 2.2224-2.2043 2.2224-2.9963 0-0.79201-1.6556-3.2722-3.6791-5.5115l-3.6791-4.0714-1.5706 0.45615c-0.8638 0.25088-2.358 0.78025-3.3204 1.1764l-1.7499 0.72025v-1.1809c0-0.6495 1.7953-1.9348 3.9896-2.8562l3.9896-1.6753 0.01017-2.0494c0.0056-1.1272-0.5298-2.5893-1.1898-3.2491-1.5259-1.5255-8.4535-1.5685-9.3871-0.0582-0.3881 0.62782-0.78776 4.7891-0.88814 9.2474-0.10037 4.4582-0.55988 8.9645-1.0211 10.014l-0.83862 1.908 3.0218-0.60423c1.662-0.33232 3.4249-0.22238 3.9176 0.2443 0.92474 0.87596 3.7505 1.7234 6.423 1.9264 0.84007 0.0638 2.5275-0.58436 3.7498-1.4403zm18.43 2.8674-2.1644-1.811-0.6387-4.1778-0.6387-4.1778 5.1417-5.1405h2.4895c1.3692 0 3.6226 1.0122 5.0075 2.2494 1.3849 1.2372 2.7966 3.4384 3.1371 4.8916l0.61917 2.6422-2.8314 3.0705c-1.5573 1.6888-3.9848 3.3391-5.3944 3.6675l-2.5631 0.59705zm8.9537-4.7692 1.1203-2.4583-3.4099-5.203-4.3733 0.62236-0.31163 2.6998c-0.1714 1.4849 0.18191 3.6218 0.78513 4.7486 0.60323 1.1269 1.9905 2.0489 3.0829 2.0489h1.9862zm90.278-11.625c-0.36952-0.59775-0.17108-1.5875 0.44095-2.1994l1.1128-1.1126 1.1128 1.1126c1.1539 1.1536 0.4317 3.2862-1.1128 3.2862-0.48505 0-1.1842-0.48907-1.5538-1.0868z" stroke-width=".99983"/>
</svg>
