<?xml version="1.0" encoding="utf-8"?>
<svg xmlns="http://www.w3.org/2000/svg" version="1.1" viewBox="0 0 554 591">
	<title>Sketch of a house built on top of what sees to be artificial ground surrounded by a wall.</title>
	<path d="m206 587-4-3-10-1-1-1-1-2 1-8 1-8h4v3l-1 7-1 5h1l1-3c0-4 1-8 2-7h1v9l1-1 1-4 2-7 1-8v-4l-1 3-3 4h-1v-3c0-4-2-8-3-8v6l-4-2v1c-1 2-4 2-4 0v-2l4 1v-2a93309 93309 0 0 1 2-20l1-4 4 1v10l3-1 1 4v11l1 1v-8l1-10v-3h4v3l-2 10v5l1-1 1-4c0-3 2-8 4-8l1 1 1 9 1 12v4l1-2 1-7 1-4c2-1 3 3 2 8v6l-4 1 1 6v6l-6 3v3l1 3 3-3 4-1c2 1 1 4-1 6l-1 2-8-1-4-3zm4-11 3-6-1-9-1-9-2 8-3 10-2 4v8l3-1 3-5zm-11-35-1-1v3c0 3 1 4 2 1l-1-3zm26 44-4-14v-2h3l5 1 1 1v10l-4 4h-1zm-105-2-6-3-3-4c-2-4-3-10-4-18l-3-25-1-2 1 8v10l1 2h-4v-8h-2v9l-2 1-3 1h-3l-2-3-5-3-2-9 1-3h-1l-2 1-4 2-4 1-2 1-5-5-2-11h1l1-2v-1l-1 1-3 2h-1v-4l1-4 1-2-2-11v9h-3l1 8-2 2-1 1-11-6-2-6-4-8-1-2-1-8v-8h2l2 10 1 8c1 1 2 0 2-3l-1-10-2-17v-4l-1 5-1 6-2 2h-2l1-13h-1l-2 5-1 3-3-1-2 4-2-1v-20l1-1 3 2 1 3 5-1 3 3 5 3 3 1 1 2 1-1 3-1h2v-3l2-2h2l1 6 1-1 1-3 1-2 4-1v2l-2 8-3 6v19h3v-20c1-3 4-3 4-1v2l3-1v9l1-1v-1c0-2 5-7 6-6l1 8v8l1-1h2l-1-8v-7h3v2l1 9c1 6 2 10 4 9l-1-6-1-5v-2l3-2h1v4l1 5 1 1v-4l1-4 3-1 1 2 3 2h1v2l-2 4v3h1c1 0 4-5 5-9v-3h3l1 4 1 5 1-2c0-3 2-4 3-3l1 1-2 6-2 8-2 4c-2 2-5 11-5 15v2h3l1-5 4-10 2-5h4v-5l1-8 1-4 3-1v4l1 6 3 5v2l1-2c0-2 1-3 2-3l1-1-1 20 1-1 2-10 2-10h4v5l-1 5-1 6-1 6h1c1 0 2-3 2-9l1-4 3-1-2 16-2 2-2 2v5l-1 4 3 4v6l1 9 1 3v-14l-1-12 1-1c2-1 3 1 3 5l1 4c1 0 3-4 2-6v-14l-1 1-1 4v4h-1l-2-2 2-10 1-9 4 1-1 6h4l1 2v2l3-3v2l1 6 1 5 2-6v-5l4 1-1 5v5l2 4 2 6 1 5-1 2 1 1 1 2v33h-5v-7l1-15 1-9-1 4-3 9v5l-2 1h-1l-1-1v-8l1-7-3 4-1-1-1-6-1-4-1-1v8l1 7 2 6c2 3 3 6 2 7l2 2 2 1v7h-6v-2l1-2 1-2-3 1-1 2-1-1-2-2 2-3 2-1-1-3-3-7-1-5-2 2-2 3v5l-1 4 3 3-1 3-3 4c-2 1-7-2-8-4l1-19v-7l-1 2-2 8v6l-4 1v12l-2 1h-6zm4-20-1-10-1-2 1-2c2-5 3-7 2-11v-5l-1 1-1 4 1 3h-3l-3 1-1 1v5l1 5 3-1v5l2 8v4l-2-1-1 5v4l4-5zm15 1v-6l-1 1-1 6v6h2zm-9 0c-1-2 2-15 4-15l1-1-1-4-3-3-2 2-1 2 1 5v6l-1 2-1 3 1 3v3l1-1 1-2zm-13-1h-1l-1 1v2l1-1 1-2zm2-6-1-2-1-1v2l1 3 1-2zm-5-9-4-17-1-1v4l4 18 1 2v-6zm49-4v-4l-1 1-3 9v2l2-2 2-6zm-15 4-1-2-1 2 1 2 1-2zm-56-3-3-9c-1 0-2 6-1 9v2h4zm64 0c-1-1-1 0-1 1h1v-1zm-58-10a179 179 0 0 1 6-26c1-1 2-10 1-11s-3 2-5 6l-2 11-2 11-2 8c0 4 1 11 2 10l2-9zm3 5c-1-1-1 0-1 1h1v-1zm54-7-2-6v-6l-2 3-1 2 1 3 2 6 1 3 2-2 1-2zm-25 1-1-2-1 2 1 3 1-3zm-12-2-2-2v-5l-1-2 1-6 1-7-3 5-3 7-1 1 2 4c3 5 6 8 7 8l-1-3zm-34-7 2-1h1v3l1 4 1-11 2-14v-4l-1 1-2 4v3l-4 1v10l-2 2-1 5v3l1-2 2-4zm41 2 1-3v-3l-5-5-2 3 1 3 1 5c0 2 2 2 4 0zm-31-4v-3l-1 2-1 3v2l1-1 1-3zm40 2 1-1h-1l-3-2-2-2v2l2 5 3-2zm-53-9v-6l-1 7h-3l-3 2 1 4 1 3 4-4zm-14 1-1-1v2c0 1 0 2 1 1v-2zm27 2 1-8 2-9-1-1-1-3v-2l-3 4 1 3 1 2-1 6-1 7 1 2 1-1zm-22-4 1-6 1-3 3-1-1 4v4l1-3 1-5-1-2h-4l-1 3-2 8-1 5h3zm-17-6h2l-1-4-1-5c-1-1-2 1-3 5l-1 3-3-1v-2l2-5v-3l-3 3v3l-1 3h-1l1 4 1 6 1 2 5-9zm69 1v-2l-2-3-1-3v3l-1 5v3h4zm-56-4 1-6-2-6-1-4-2 2 1 1 1 1-1 8v8h1l2-4zm14 1 1-2-2-7-2 2 1 5 1 5 1-3zm-9-11-1-4c-2-2-2-1-1 3l1 4 1-3zm-18-5v-5l-1 3-2 5-1 3 4-1zm-5 0 1-7-1-6-1-4-2 3-1 19 1-1 3-4zm17-9v-1l-1 1v1l1-1zm-14-11-1 2c0 2 0 1 1 1v-3zm-24 1-1-1-1 1 1 2 1-2zm147 109-3-3v-3l1-2-1-9a164 164 0 0 0-7-38l-1-2h2l2-1 1 3v3l2-4h6v7l3 4 3 4h1c1-1 0-2-1-4l-2-4v-7l4 6v-1l1-5v-3l4-1v4l-2 16-1 11h-2l-1-3-2-5-1-1 1 7 2 9 1 4v4l-1 4-4 1 1 8-4 2zm4-14-1-3c-1 0-2 2-2 5v2l4-1zm0-12-2-10-2-9v-4h-1l-1 3 4 24 1 2h1zm1-15v-2l-1 1v2c0 1 1 1 1-1zm24-16v-2c1-2 9-2 9 0l1 1-3 1h-7zm12-3c-1-1 3-3 8-4h6l-1 2-2 2-5 1-6-1zm-52-7v-2h10l1 2-5 1h-5zm28-2v-2l3 1 3 1-3 1-3 1zm25-1-1-2h7v3l-6 1zm23 0v-2c1-2 7-4 9-4l1 1 1 2-3 2c-3 2-7 2-8 1zm-41-1-2-2 5-2 5-1 1 1 1 1-1 2c-1 2-5 2-9 1zm86-5-1-3v-1l2-1h10l1 1v2l-3 3c-4 1-8 1-9-1zm-75-1 1-1 5-2h4l2 2-1 1-6 1h-4zm-180-4-2-2 1-13h3v5l1 8v4h-1l-2-2zm206-1v-2h13c1 2-3 4-8 4h-5zm73-2-2-4v-2l5 1 5 1 1 3c0 2-3 4-6 4-1 0-3-1-3-3zm-133-1v-2l5 1 5 1v1l-10 1zm-32-1v-1l7-1h6v4h-12zm-123-2-4-9-5-12-4-9-1-4 2-2 1-2h3l5 1 2 2 1 16 2 15 2-3h1v10h-1l-4-3zm-5-24-1-1-1 1 1 2 1-2zm315 23-1-3v-2l7-1 3 2-1 2-1 3-6 1zm-146 0-3-1v-3h25l3 1-1 1-24 2zm-40-6-1-1 2-1h16l1 4h-18zm73-6v-2l3-2h14l16 2 1 1v-2l1-2 10 1 12 1 1 2v2l-14-1-28 1-15 1zm-96-8-2-2-8 1v-4h24c1 1-1 4-3 4l-5 1-3 1-3-1zm-16-2 1-1 2 1-2 2-1-2zm41 0v-2l3-1h9c6 1 9 2 9 4v1h-21v-2zm155-6-4-2c0-2 4-5 7-4h2l1 3v3l-1 1-5-1zm-80-1-2-4v-4l2 1h6l3 1v3l-1 3h-8zm89-2c0-2 2-3 5-2l1 1-1 1-3 2h-2zm-114-3v-2l-4 1-10 1h-4v-3l3-1 6-1 2 1 1-2v-1h9l2 2 6-1 1 2-1 4-1 3h-9zm5-1h-4 4zm35 3-1-3v-1h12l1 1-1 1c-1 2-10 3-11 2zm30 0-4-1-7-1-4-1v-4l3-1h9l1 1 2 2 5-2 6 1 1 2-1 3-1 2h-5l-5-1zm119-2c-2-1-4-4-3-5 1-2 8-2 12-1l3 1v4l-2 1h-10zm-49-2-7-1-9-1-3-1v-2h4l7-2 2-1 1 1 5 2h4l1 3-2 1-2 2-1-1zm-263-1-14-1H47v-3l21-1 1-1 2-2 3 1c3 0 5 2 5 5l-2 2h-2zm8-1c-1-1 1-2 4-2l5-2 4-2 2-1 2 3 2 2 20-1 2 2c1 0 2 1 1 2v1h-25l-4-4-2 3h-5l-6-1zm339-2-1-1 2-3h8l1 1-1 3-4 1-4 1zm-400 0c-2-1-1-3 2-4 2-1 13 0 14 1v2l-1 2-7-1h-8zm285-1-2-1-9 2-1-2-2-1v-2l1-1h7l8 1 1 3c0 1 0 3-1 2l-2-1zm-40-2-3-1-36 1-2-3c-2-2-2-3 0-3l3 1 1 1 6-1 13-1 7-1 3 2 5 2c2 0 7 3 6 4l-3-1zm8 1 2-1 2 1-2 1-2-1zm66-3-1-2h-8l-9-1v-1l1-1h21l1 4-1 1-2 2-2-2zm107-1-1-2v-2l4 1 5 1c2 2 0 4-3 4l-5-2zm-277-1v-2l-10 2-1-3 3-2h28l4 2-2 2-8-1h-6l-2 4h-6zm192-2v-2h23l1 1-2 2-12 1h-9zm-151-1-2-1v-4h5c5 0 11 1 11 3 0 1-4 2-5 1l-4 1-3 1-2-1zm280 1c-2-1-1-3 2-5l3-2 17-1v1c0 2-2 4-6 4l-6 1-10 2zm-404-1-2-2v-1h25l1 1-1 2H88zm31-1v-2h6c1 1-1 4-4 4h-2zm272 1-2-2h-10l-9-1-2-2h26l4 2v2c-1 1-3 2-7 1zm15-2-4-2v-4l3-1 20 1v6l-9 1-7 1zm40-2-4-1v-3l17-1 3 3-1 1c-1 1-10 2-15 1zm-385-1c-1-2 1-3 5-3 5 0 7 1 5 3H61zm31-2h-2l1-2v-1h7l2 3v2l-3-1-5-1zm430-3-1-2h5v1c0 2-2 3-4 1zm-477-1-2-1 2-1c3-1 17 0 17 1 0 2-3 3-9 3h-6zm463 0c0-2 2-3 5-2l2 1v2h-3l-4-1zm24 0c0-2 2-3 4-3h2l-1 3h-5zm-154-3v-2c1-1 9 1 9 2v1l-8 1-1-2zm24 1c0-2 2-3 4-2l1 2h-5zm28 0-1-2v-2l4 1v1c0 2-2 3-3 2zM67 417v-4l1-3 3-3 7-6c5-2 14-9 14-11v-1l-11 1a513 513 0 0 1-55 2l-19 2-7-3v-2l1-3c2-2 5-2 7 0l1 1 1-3 7 1v-3l-3-1-2-1-1-1h14l1 4 2-1c1 0 2 2 2 5l1 2h1v-10l2 1h1v9h4l-1-8 5-3 16 1 3 4 3 5v-11l-4-2 6-2 9 4 13-1v1l-4 2h-3l2 1c2 1 2 3 2 4l2 2 1 1-1-3v-2h1l3 2 2 2c2 0 1-3-1-8l-1-4-6-1-6-2-1-1 11-1v-4l7-1v-5l4-1v-7l5 2 1-2-1-2-1-1H78l-2 3h-6l-12-1-6-1-14 1-18 1h-3l-1-2v-1h4l-1-5h33l1-1-1-1-13-1-12-1v-2l1-2 7 1 20 1 12 1 2 3h23l1 2 2 2h10l4-7 2 1c2 0 3 1 3 2v1l-2 1-2 1c0 2 2 2 4-1l4-2 2 1 1 2h13l2-4h2c2 1 6 4 5 5l-14 1-13 1-3 2 1 5 3-1 1 2 1 1c2-1 7 4 7 5v2l6-2v2l-1 2-1 6-1 4-1 3-2 4v1l44-1 2-1 1-1-40-1 1-2h21a168 168 0 0 1 36 3l13-1 24-1h11v-1l-1-1a896 896 0 0 0-50 0l-7-2h-45l-1-2 1-1h23l39 1 15 1 7-1 8 1h11v-4a247 247 0 0 1 0-13v-6l-9-1a929 929 0 0 0-78-1l-1-2v-2l31 1-3-1c-3-2-5-4-4-5s3 0 5 1l9 2 8 2 14 1 9 1-1-6 4 1v5l8-1-4-3v-3l1-3 3 1c2 0 3 2 4 4 1 3 4 3 3 0a238 238 0 0 1-1-29l1-42v-10l-2-3-1-4 2-2h2l-1-3-1-2-4-1v-14l1-1h2v-7l1-11v-4l5-5h6l2 2c0 1 2 3 4 3l2 1 2-3 2-2 4 3v3l-1 5-1 2h1l5-5 5-5v-5l2-2 3-5v-2l7-2 8 3 1 2v3h-2l-4-2-1-1-5 2v2l1 3 2-2 1-1 2 2 2 4-2 2-2 2 3 4 3 2v2l-1 2-8-1-2 2-3 3-1-2c0-2 3-5 5-6h2l-8-8 1 4v3l-3 4-4 4-7-1 1 3 1 4a417 417 0 0 0 75 1l5-1 7-4h4l6 1 1 1 2-2c1-2 3-2 4-2l3-1 4-2 4-3v-1l-2-1-3-1 8-6-1-1c-2-2-11-3-13-2l-1 1 1 3 2 4h-14l-5 3-4 2-2 4-4 5h-1v-3c0-3 3-8 6-10 1-1 8-4 14-5h3l1-3 2-4 2-2 6 1v-1l-1-1-1-3v-2l8-7-1-3-2-4c2-3 4-1 6 2l2 6-3 4-3 2v2c0 2 1 5 3 7l3 7 1 3-1 2-2 3-4 5-3 4 2 1h3l1-3v-2l3-2c2 0 4-2 5-3l3-3 6-2 6-3c2-1 3-2 1-2l-3-2v-3l15-1 5 2 1 1 3-3 9-5 6-3c1-1 0-2-1-3v-6l2-3 2-4 1-2h2l4 1 3 2h2c1 1 0 3-2 4h-2l-1-2-2-2-3 3-2 4 2 6v5l-2 1h-2v3h-8l-9 7v1l1 4v1l2-2 1-3 5-2 8-1 3 1 4 2h2l1-4 1-3-1-3c-2-2-3-7-1-8s4 1 5 5l2 7-1 5-4 3-3 2 2 2 2 2-1 2-1 2v1h2l5-2 2-1-1-1-1-5v-3h1l3 1 1 1-1 3v2l2-1 6-1 4-1 4 2c3 3 6 3 6 1l2-1 3-1v-7l-3-1v-7l3-3 1 2 1 5v3l7-7 1-5v-7l-1-1-3 1v-1l2-1 2-3c1-2 5-4 6-2l-1 3v3h2l5 2 4 3v4h-5l-3-5-2 3-2 4v2l-2 2-2 2 3 1h3v2l-2 4-1 1-3-2-5-1v5l4 2h2v1c0 2-4 7-6 7h-2v-2l-2-2-1-2-6 7-3-1-4-1c-2 1-5 3-4 4l9 1 8 1v3h-5l-11-1h-7l-1 1-1 2 2 2 27 1 7-4 1 1c2 2 9 3 14 2l5-1 3 2v1l-1 2-30-1-33 1h-4 7l22 1h15v1l-4 2a1316 1316 0 0 1-94-1l1 6 2 6 3-5 1-4 3 1 4-1 9 1 8 1-1 1h-10l-9 1-1 2 1 2 13 2 2-2c2-1 4 0 4 2l-2 2-2 2-13-1-3 2h-6v6h10l1-2v-2h4v2l-2 4-3 2-5-1h-8l-4-3-3-2c-1 1 0 5 2 6s1 3-2 4l-2 1v3l-2-1c-2 0-5-2-5-4v-2l-1 1h-2v9l2 2 2 2-4 5-2-1h-1v-6l-6-1-7-15v3c0 3 4 12 7 14l3 4 3 4 2 2-2 3-2 7-3 4-1 1-1-2c0-2-1-2-2-2l-2 3v3l-2-1-3-3-1-3 1-1 5-3 2-3-1-1-1-8v-3l-6-7v4l-2 5-1 4-1 5v3l-14-1v8l2 1 6 1h5l2 4v4l-1 4 10 2 9-3 1 1 1 2-4 2-3 2v4l2 4c1 0 1 2 3 2 4 1 5 2 5 3l-1 1-21-1v9l-3 1-1-5v7l-2 2-2 3c0 3-1 4-3 1l-2-2-4 3-4-2-4-1-1 1-4 2h-3l-1-2-1-5v-3h4v2l1 3c1 1 2-6 1-8l-2-2-14-1-12-1v12h6l1-3v-3h2c2 0 3 2 1 4l-1 2v1l10-2v2c0 2-2 4-5 3h-2v7l3 1h10l5-1 2-4h5v4h10l11 1 1 1-2 1-4 2h-3l-1 5v4h15l1 3h-8l-5 2h-3v-1l-1-3-2 1-6 2-6 2-1 1 1 1 1 2 34-1 1-1c2-1 10-1 12 1l2 1v-1l1-1h15l1-2 1-1-1-1-5-1h-3v-2l1-2h6l4 1 1 7h3l6 2 2 1 10-1 17-1 7-1 2-3 1 1c2 2 6 3 15 3l7 1 17-1 27-1h11l2 2-2 1-7 2h-22l-2-1-3 1-3 2H224l-3 3-13-1-26-1h-14l-1-2-1 1-2 1-69 1-2 3h1v1l28-1h60l32-1v1a3919 3919 0 0 1-107 3h-6l-2 3h-9l-11 1-1 1 12 1h13v-4l4 1v3l3 1c4 1 8 0 8-2l1-2h47l10 3 1-1h7l5-1 6-2 68-1 64-1v-2l-105 1v-2l-1-1 2-1h104l1 1c0 1 1 2 3 2h2v1l-1 1h2l3-2 1-1 26-1 66-1 5 1 1 4-2-1-20-1-41 2-2 1-3-2-31 1v2h14a343 343 0 0 1 37 0l6-1 18 2 5-3 10 1 21 1h11l5 3 2-1 15-1 19-1 7-1 2 5h12l12-1c1-2-3-2-9-2l-6-1 1-1 8-1h8l1 2 2 1 2-2 1-1 3 1 2 3 1 2v4l-9-1h-17l-16 1h-5l2 1 2 2-67 1-93 1-218 2H68zm28-3h17l-1-3-6 1-17-1-11-1-2 2c-1 1 0 3 2 2h18zm120-2 52-1 23-1 17 1 2 1 1 1 4-1 10-1 8 1h159v-2h-24l-32-1a9565 9565 0 0 0-288 2h-13l8 2h14l59-1zm-97 0h-4 4zm3 0h-2l1 1 1-1zm13 0c0-2-3-2-7 0h-3l10 1v-1zm310-4-1-1-1 1 2 1h1zm9 0 1-1h-8l2 1h5zm44-2-1-1-1 1c0 1 0 2 1 1l1-1zm-283-1h-5 5zm41 0h-2l1 1 1-1zm13-20-1-4c-3 0-3 0-4 3l-1 2h-2l-2 1-1-3v-2h-13c0 1 2 2 5 2h4v2h-5l-7 1-1 1 4 2 23-1zm18 3-2-3-1-3-9 1-2 1-1 3v1l5 1h11l-1-1zm23-3 1-5 1-2h12v-9h-7l-10 1-2 2-2 3-1 2 2 1h2v-3l1-2h1l1 9h-18l-1 4-1 2h9v-1c-1-2 1-3 3-3l2 1v2c0 1 2 2 5 2h1l1-4zm26 4 2-1-1-4-7-1v-1l1-2 11-1 10-1 1-5v-3h-4l-6-1v-1h-5l-6 2h-2l1 3v2l-3 3c-1 3-3 5-4 5l-2 2-4 1c-3 1-4 1-3 3h21zm129 0h-4 4zm-442-7-1-1-1 3 1 4v1l2-6-1-1zm23 2v-2h-3v2l1 3c1 1 2-1 2-3zm26 0 1-4h-3v4l1 4 1-4zm65 3-1-1-3 1v1h2l2-1zm-84-3h2l-1 1v2l1-1 2-2 1-2h-1l-4-1-4 1v5l1-2 3-1zm29-1-1-2h-1l-1 3v2l1-1 2-2zm238 0 1-1-2-1c-2-1-3 0-2 2h3zm-243-2-1-1h-2l1 1 1 2 1-2zm39-1v-2l-2 1-2 1v2l2-1 2-1zm5 0 1-2h-1c-2 1-3 4-2 4l2-2zm-13 0-1-1-1 1 1 1 1-1zm160-3 2-4v-3h-7l-11-1-3-1 1 2 1 4-1 2-2-1-3-1-1 1 2 2h22zm26-2c1-1 2-3 1-4l-5-3h-4l-2 3-1 3 3 2 5 3h2zm-182 1 1-2c-1-1-4 2-3 3 0 1 2 1 2-1zm10-5v-1h-3l-3-1 2-3 2-1-1-3-1-2-4 1-2-2-1-2v2l-2 2-4 4c0 2 2 2 5 0l5-2v14l3-2 4-4zm161-1h-2l-1 3-1 3 5-6zm-174 1-1-1-1 1 1 1 1-1zm-10-1-1-2-1-1v2l1 2 1-1zm210-4h6l1-4-1-3h-3a1070 1070 0 0 1-29-2h-4l-1 1v1h2l2-1 2 5h3l4 1 3 1h1v-2l1-3h2l1 1-1 2v4l1 2 2-1 8-2zm-56-2-2-1-2-2 1-2 1-2 3 2v6h2l2 1 1-3 1-4 1-1-5-4-4 1-5 2v7c2 2 6 2 6 0zm22-3v-4l-6-1-5-1 2 2 1 4 1 3 4 1h4zm26-9 2-4 1-3-1-1-1-1h-14v2l1 5v2l2 1h6l4 1zm54-1 2-4h-4v-2l-1-3-4 1-4 1-1-1h-2v10l6 1h6zm-75-3-2-5-1-1h-16l-1 1v7l4 1h5l2 1v-8l1-1 3 1-1 5v4h6v-5zm-15 1c-1-2 0-3 1-2l1 1-1 1-1 2zm-11 0 1-5v-3l-10 1v8l1 1h4l3 1 1-3zm31 0v-4l-1-1-1-1v9h1l1-3zm-252-3h-4 4zm35 0H56v1h6l5-1zm289-2c-1-1-1 0-1 1h1v-1zm-37-8v-6l-2-3h-23l-2 1-2 1-1-4-1-2-2 1-1 2-11 1v9l2 1 4 2h2v-2l-2-2-2-2c0-1 3-2 5-1l2 4 3 2h1v-3c0-3 2-6 4-5l1 5v3l4 1h21zm-18-1-5-2-1-1h4c5 0 10 1 10 3v2l-2-1-6-1zm-32 2c2-3 1-7-1-9-3-3-5-3-7-1l-5 1-5 1v4l7-1 2 5 4 1h4l1-1zm56 0c-1-1-1 0-1 1h1v-1zm20 1 2-1-1-5-1-5h-21l-1 1-1 1 1 2 4 3h2v5h7l9-1zm28-1c1-1-1-9-2-10l-7-2-6-2v-3l1-2-2-5-4-1h-5c-1 1-3-1-4-7l-2-6-5-1v-5l4-1v-5h4v9h11l1-4 3-5 1-3 1-3 1-3-1-2-1 4-2 4-1-1-1-5v-6l-1 1-1 4c1 2 0 6-2 6h-1v-8h-3l-1 8h-2l-9-1h-6v2l-1 3-3-1-2-2h-12l-3-1-1 1-4 2h-3v1l2 2 2 1v4h10v-3l-1-3 3-1 2 1v2c0 2 4 5 7 4h1l5-9h4l-1 3-2 6-1 3-10 2v8l2 1 2-1 1-1 13 1 2 1 1 2-6 5-1 6 2 1 9 1 7 1 1 1v1l-5 1v5l-1 5 2 1h11l10-1zm-25-45 2-4h2v6h-2l-2-2zm-101 41v-4h-3l-2 1 2 2 1 2v2l-1 2h3zm7-13 3-1 1 2v2l1-2 1-3-1-1-5-1h-3v-2l1-3h-6v11l1 1 1 2 2-2 4-3zm1 4h-2 2zm76-1 3-1v-3l-1-4h-2l-4-1-7-2h-7l-1 4-2 5v2l6 1 15-1zm-12-5v-1h1l2 1-1 1-2-1zm-13 2-1-5v-2l-6 1h-12v3l1 3c1 1 9 3 14 3l4 1zm-16-2 1-1 1 1 1 1h-1l-2-1zm-10 4h3v-4l-5-2v-2h-6l-1 6 1 1 1 2 2-1h5zm-16-3v-2l-1 2v3l1-3zm70-8 1-1h-8l3 1h4zm-44-2v-10l-1-2h-4l-6 1-2 1 1 5 1 6 5 1h5zm-16-6v-5h-2l-4-2-1-1 2-4-2-7h-9v2l-2 4-1 1-1-2v-4l1-1h-5l1 2v3l-2 1c-2 1-3 2-1 3h15l1 2v2l-2 1h-2v10l6 1h6l2-6zm27 5 2-1 5 3 3-1 5-1h2l-1-7 1-1 2-3v-1l-11 1-4-2v1c0 2-5 5-8 5h-2v9h2l4-2zm-45-5-1-5-3 1-1 1-2-1-2-1v1l-1 2h6v1l-2 2-2 1 2 1 4 1 2 1zm43-6c1-1-1-1-4-1l-3 1 1 1h3l3-1zm-1-8-1-4-4-1h-16v2l1 4v3l6-1 2-3 2-3h2l2-1v5h-2l-1 1v2l1-1h3l3 1 3-1-1-3zm79 3-1-1h-1l1 2 1-1zm-105-9c0-2-2-2-2-1l1 3v2l1-1v-3zm-26 1c-1-1-1 0-1 1h1v-1zm73-3h-2l1 1 1-1zm-11-7v-7h-10l-4 2-5 3-1 4v3l1 1h10l9 1v-7zm-24 0v-4l-3-1c-3-2-10-2-12 0l-2 1v7l4 1v-4l-1-3 3-1v4l5-2v1l1 2h-2l-2 2v1l3 1h5zm61 5-1-2-1-2v-2l8-3v-4l-3 1-5 1h-2v-3l5-1 1-2 1-2h2l2 1 1-2 1-1-5-3v-2l1-5 1-2h-2l-2 1v-4h-18a1369 1369 0 0 0-42 1l2 3 3 3h12l2-2 3-1 1 1c0 1 3 2 7 2l3 1v2l1-2 2-2 4 1 1 2v3l-3-1h-4l2 4 1 4 3-1v1l-1 2h-1l2 2 5-4v-2l1-4c1-3 3-1 3 4v4l-5 6-3-1-10-1-6-1v5h4v5h6l10 1 9 1 4 1v-1zm-6-23-1-2 4-7h2l2 1v1h-2v2l-1 4c0 2 0 4-2 4l-2-3zm-79 20 2-4c0-2-2-3-4-3l-2 4c-1 2-3 3-4 2v-4l1-2-1-1h-9l1 2 1 4 1 1v-2l1-4h2v10h9zm119-8v-5l-1 1v3l-1 3-2 2 2 1h2v-5zm9 0-1-5h-5v1c0 2 4 8 5 8l1-4zm5-1c-1-2-2-2-1 0l1 2v-2zm-101-2 4-2v-8l-5-2-4-2-10 2v3l3 1 3 1-2 2-4 1v2h2l4 1 3 1 2 3 4-3zm65 1v-2h-2l-1 1c0 1 1 2 3 2v-1zm-109-1h1v-6l-1-6h-4l-2 2 5 4-4 4v1l1 2 2-1h2zm24-2 1-1-2-2-1 1c-1 1-6 1-6-1s1-3 3-4l2-2v-2l-2-1-5 1h-5l-4 1c-1 1 1 2 3 3l4 2v4h-4v1l1 2 15-2zm43-1v-2l3 1h2l-3-5-2-4-15 1 1 2v8l5 1a6715 6715 0 0 0 9-2zm56 0-1-1-1 1 1 1 1-1zm21-2c1-1 0-2-2-2l-2-1v-1l2-8 3-5 3-1 5-3 2-4v-1l-5-1c-5 0-8-2-7-4v-1l4 1h7l7-4 4-4-1-2-1-1 1-2v-2h-1l-5 1-4 1v3l-2 3-3-3v-2l-5 5-5 5-1 5v3h3c3 0 6 2 5 3l-3 2-4 1-1 1 2 3-1 4-1 7c0 3 5 6 6 4zm7-5v-3h-1l-2 1-1 4-1 1 1 1 1 2 2-2 1-4zm-37 0-2-1-2 1 3 1h2zm12-5-1-4c-1-1-2 7-1 9v1l1-2 1-4zm6 1-1-1 3-3 2-5-2-4-1-2-1-1v2l1 3 1 3-2 2c-2 3-3 5-2 7 0 1 2 1 2-1zm-100-2 4-1 1-2 1-2h-2c-2-1-33 0-38 1l-3 1v3h16l4-2 2-2 2 1c3 3 5 5 7 4l6-1zm85-5v-5l-1 1-2 3-1 2-7 2 1 1v2l6-2 1 2v1l1-1 2-6zm34 4 1 2 2-1-1-2v-1h-7l1 2 1 2 2-2 1-1zm-26-8 1-2-7-3c-2 0-1 2 1 4l3 3 2-2zm-11-4v-1h-2l-3 1v2l1 2 2-1 2-3zm-88 0 2-1c0-1-12-2-27-2l-11 1-2 1v1h25l2 1c1 1 8 1 11-1zm17 1 3-1h20l2 2c1 1 3 0 3-1 0-2-5-3-17-3h-12l-5 1-6 2-1 2 5-1 8-1zm39 1-1-1-3 1v1h2l2-1zm11 0v-1l-2 1c-1 1 0 1 1 1l1-1zm70 0-1-2v-2l21 1v-1c0-1-1-2-3-2l-5-2 7-1 8-1 4-2 4-1 4-1 1-1v-9h-2l-4-3-3-2-3 2c-3 0-5 2-5 3l-1 4-1 3-12-2-4 4-4 5 2 1 2 1c1 1-2 2-4 1l-3-1-3 7 1 2 3-1h1zm7 0h-4 4zm-70-3 2-2-1-1c-1-1-4 2-3 4v1l2-2zm110 1h7v-3l-1-2h-3l-3-1c0-2 3-2 8-2h5v-2l3-4c2-1 2-3 2-3-1-1-8 2-10 4l-1 3-5-2-7 5h-5c-5 0-5 0 0 1l3 1-1 1v1l-13-1-1 3 2 1h20zm-80-3c0-2-4-4-6-3s-1 2 1 3h5zm-18-3-4-1-3 1 3 1 4-1zm-102-13v-2l-1 1v3c0 1 1 1 1-2zm-17-5-1-1h-1l-1 1 1 2 1 2 1-1v-3zm183 1v-3l-5-5-3 1-5 2 3 3c3 3 6 4 9 4l1-2zM110 405v-1h3l4 1-3 1-4-1zm62-1h2-2zm276-4c-3 0-5-1-5-2l4-1a757 757 0 0 0 39-1h7l1 1v1l-6 1-40 1zm50-3c0-1 12-3 14-2l1 2v1h-8l-7-1zm-67-13c0-1 2-4 3-3l1 3v2h-1l-3-2zm51-1-1-1 3-2 4-5 2-2c2 0 4 2 4 4v1l2 1 8 1h5v3l-16-1-1-1-1-1-3 2-4 3-2-2zm-102-1v-2l1-1 5 1v-9h4v9l6-1 1 1v2l-8 1-8 1zm38 0-3-2v-1l14-1v2l-1 2h-10zm45 0-1-2v-1h8l2 1-1 1v2h-4l-4-1zm55-2 1-4 1-3 3 3v2l-1 3h-1c-1 1-2 0-3-1zm10 1 1-1 2 1-2 1-1-1zm-89-2-1-1 1-1 2-3v-3h2l2-1 1 3 2 4 1 1-7 3h-3v-2zm-69-4v-2c2-1 3 0 1 2l-1 1zm11-3v-4h3v8h-3zm14 2v-3h2c1 2 0 3-2 3zm12-1v-2l1-3v-4l1-1 2 1 2 4v5h-6zm105-1-5-1-3-2h-2v-4h2l3 1 1 2h6l7 1c1 1 0 3-2 4l-7-1zm-483 0-3-3-1-2h1l5 1 5 2c2 0 3 1 0 2h-7zm397-1-1-6v-3h-7l1-4h8l1 2 1 5v3l8 1v3l-11 1zm-360-1-2-2h7l1 2c-1 2-4 2-6 0zm383 0v-1h1c2-1 4-4 4-6v-2l6-5 9 1v3h-11v3l1 5 1 2-1 1c-2 1-9 1-10-1zm31 1-4-1-1-5-1-5 1-1c1-1 3 0 3 4v3h4l10 2 2 2-14 1zm-431-2h-2v-1l6-1h5l1 1-1 2c-2 1-6 1-9-1zm101 0-6-1v-2h5c6 0 14 1 13 3h-12zm21-1v-1a208 208 0 0 1 39 1l-2 1h-36zm298 0v-1h4v3h-4zm-250-1v-1l3-1c4 0 6 0 6 2l-5 1-4 1zm196 1c-2-1-1-5 1-5s3 3 1 5h-1zm-47-2 2-6c1 0 2 0 2 2 1 2 4 2 4 0l1-2 2-2 1 2 1 2 3-2 1 1 1 3-1 2-5-1-1 3h-11v-2zm29 1-4-1-4-1 2-2 2-1h2l4 1 2-3 1-2 3 1v6l-3 1-5 1zm-197-3-1-1h2l2-1v-2l-1-1h6l8 1c1 1-1 1-2 1l-2 1 1 1c1 0 2 1 1 2v1h-13zm-142-1v-2l2-2 3 1 3 1c0 2-7 3-8 2zm119 0v-1h12v2h-5l-7-1zm19 0h2l-1 1-1-1zm23 0 1-2h11v1l-5 1-6 1zm223-1-2-1 2-1 5-2 4-1 1 2-1 3-4 1-3 1zm-291-1 2-2h3v2l-3 2h-2zm211 1v-8l3-1 4-3 2-3 1 3v5l-2 1-5 3-3 3zm141-2 1-3 2-1 2 1 2 1-1 2-3 2-3-2zm8-1c0-2 1-4 3-3 1 1 1 3-1 4h-1l-1-1zm-16 0-3-3v-1h9v1l-2 3h-4zm-15-1-1-3v-2l6-1 1 2 2 2-2 1c-2 2-4 2-6 1zm-327-2v-2h6v1l-1 2-5 1zm71 1c-2-2-1-2 4-2h6v3h-5l-5-1zm212-1c-1-2 0-5 2-5l2-1v4c-1 3-3 5-4 2zm-252-1v-2l4 1 3 1-4 1-4 1zm192 0c0-2 2-3 5-2 2 1 0 3-2 3l-3-1zm15-1 1-1h4l4 1v1l-9 1zm16 0 1-2h2c3 1 4 1 3 3l-3 1h-3zm-360-1-1-2 4 1 4 1-3 1-4 1zm152 0 1-2 6 1 5 1v1l-13 1zm-29-1 3-1h2l-1 1-2 1-2-1zm215-1c-1-1 1-4 2-3l1 3c0 2-3 2-3 0zm-180-8-1-2 6 1v2l-2-1h-3zm-80-2v-1l-9-2 1-3h8l2 3 2 3-2 1-2 1zm265-1-1-1 5-6 1 1 1 4-1 3h-2l-3-1zm9 0v-1h4v-2c0-2 2-3 3-2l1 1-1 3-1 3h-6zm10 1c-1-1 0-2 2-2l1 1c0 2-2 2-3 1zm-253-1-1-2v-1h16l1 2v1h-16zm56-1-9-3h-3l-1-2c0-2-2-2-2 0 0 0-1 2-3 2l-2 1-2-1-1-1-1 1c-2 2-4 2-4 0l3-2 4-1 2-1c0-3 1-3 2-1 1 1 3 1 3-1s3-2 4 1l1 2h3l5 1 4 2 3 3v2h-2l-4-2zm-73-2 1-1 2 1-2 2-1-2zm8 0c-1 0-2-1-1-2h4v1l-1 2-2-1zm-68-1 1-2 2-2 1 2c1 0 2 1 1 2h-5zm16-2v-1h7v3h-7zm79 1-1-5-1-5-1-2-4 3-5-6h-3l-3 1c0 1-4 1-6-1-1-1-9-2-10 0-1 1-4 0-4-3l-1-1h-2c-1 0-3 0-4 2s-2 2-4 2l-3-2-4-1h-3l-7-9-7 1-4 4-4 4c-2 0-2-3-1-5l1-3v-1h-2l-3-2-3-2-5 1-2 2-19-2-1 3-2 3-5 1-1-3-1-2 1-4 2-3 4-1 21-1h16l3 2 2 4v2l2-1c5-1 8-2 12-1l5 2 2 2 6 1h16l8 3 4 2 10 1 3 1 6 3 3 1 3 3 4 4 1-2 2-4 2-1h18l9 3v2l-1 3h-4l-2 1-1-5h-18l1 3v3h-5l-1 2-2 2-3-2-2 2-2 1zm-33-19c-1-1-1 0-1 1h1v-1zm-16-1-1-1-1 1 1 1 1-1zm-53 19-1-2v-1h5v2c-1 2-3 2-4 1zm159-1-1-2c1-2 4-2 5 0l1 3-2 1-3-2zm-102-1v-2l3-1h2l1 3-2 1c-2 1-3 1-4-1zm-71 0-3-1v-6h-2l-2 1 1 1v2l-2 1c-2 0-5-4-4-6l2-2 7-1h6l1 1-1 2-1 3v2h3c2 0 3 1 3 2l1 2-3-1h-6zm28-1c0-1-1-3-3-3l-2-2h9l2 4v3h-5zm22 1c0-2 1-3 2-3l1 2c0 2-1 2-3 1zm6-2v-2l2 1c2 0 2 2 0 2l-2 1zm-46-3c-2-2 0-3 3-3h3v1l-1 2h-5zm345-2v-2h5v2l-1 2-4 1zm-11 0-2-2-2 2h-7v-1l3-4 2-2 10 2v3l-1 3-3-1zm21-1c1-2 3-3 3 0l-1 1-2 1zm-23-12-1-1 1-1c3-1 5 0 5 2v2h-2l-3-2zm18 1-5-1-2-2-3-2 1-1 3-1 6 4 3-2-4-2v-3h13l4 1 2 2 1 4v1l-4 1-7 1h-8zm-35-1c0-2 3-4 5-3l2 1-1 1c0 2-5 2-6 1zm61 0-1-2 4-2 3-1 1 1 1 1-1 1c-2 2-5 3-7 2zm-43-12-6-1 1-2c0-2 2-2 4-1l4 1c2 0 5 2 4 4h-1l-6-1zm19-3v-3l1-1 2-2 1-2c2-1 4 1 4 3l1 3-3 5h-5zm-55-4v-2l3-1h2v2l-1 2-3 1zm34-2c0-2 1-3 3-3h1v4h-1l-3-1zm39-6-4-2 3-1 4-2 3-1v6l-2 1zm-22-1-6-1v-2l1-3 1-2 3 2 2 2h10l1-2 3-1 2 1v4l-1 3-5-1h-11zm36 0v-6l1-2v-2l1-2 2 1 3 1v4l-2 6h-5zm-60-1-3-1v-2h10v3h-7zm42-12c-2-2-1-3 2-4h3v-6l2-1h2l1 4v2l1 1 2 1c0 2-2 2-8 3h-5zm22-1-1-2c0-1 4-3 6-2l2 2-2 2h-5zm10-8v-2c2-2 7-4 8-3l-2 3c-3 4-6 4-6 2zm-12-1v-2h4l1 2v2h-5zm9-6c-2-1-3-2-1-3l6-1 6-1v4l-4 1h-7zm-15-2v-3l2-2 2 1 4 3c1 0 2 1 1 2l-4 1h-5zm31 0c0-1 1-3 3-2l1 1c0 2-3 3-4 1zm-188-27c-2-2-1-2 1-2h3l-1 1c0 2-2 2-3 1zm20-2-9-1-7-1 9-10 2-1h2l2 1 8-4 5-8-1-1-1-1-4 2v2l-2 2-3-1-1-2-3 1-3 3-2 1c-1 0-3 0-4 2s-2 2-3 2h-2v-2l3-4 3-3 5 1v-2l-1-1-2-2-3-1-3-2c-1-2-1-5 1-7l3-1 1 4v1l5 2 5 3 1 1 7-4-5-4-1-12-1 2-2 3-2-2v-2l-2 1-1 2-1-1-2-1h-3l-4 2-1 5-1 5h-1l-5-1-3-1v-2l1-4 2-4 1-2 2-3v-2l13-1 2 1 1 1 3-3 3-4-1-3-1-14-1-10 1-1 1-6-1-5-2-2-3-3 3-5 7-12a253 253 0 0 0 20-27l3-8 1-26 2-2 2 1 5 5 1 3-3 7 4 4 10 1 1-1 4-7 4-7 2-2 1 1 2 3 2 7 2 5-1 3-1 3 2 2 2 3 1 3 2 1v-8h-2l-1-2 2-5 2-3h4l2 15v14l2 4a361 361 0 0 0 14 26l2-3 5-8 5-8 3-5 1-7 1-10 1-6 2-6 1-2 4 1 1 5v5l2 1 1 1h8l10 1 2 1 5-3 3 1 16 1c16 0 25 1 26 3s-3 3-9 2h-6v3l2-1 7 1 4 1 5-4-1-5 3-3h6v8l5 4-1 1c-2 2-4 9-3 10l2 1h2v1l-3 3h-3l10 1 1 2v3l-4 3-1-2-5-3-4-1-1-2-1-2-2 1-1 2 4 1 1 3v4h-5v-7l-2 2v4l2 5 5 2h3v10l1 9 1 2c1 1 3 4 6 5 6 5 6 6 5 7-1 2-4 0-9-4l-7-8-1-6v-4l-5-5-6-7-1-1v-4l3-6 3-5 1-2-1-2-3-6-1-3h-7l-1 3-2 3-1-3c0-2-1-3-2-3l-2 3-3 3h-1v-6h-3l-6-1h-3l1 2-1 6v3l-3 2-5 3-5-3-3-3v-5l3-2 4-1v3l-1 4 3 2h2v-8l-4-3h-8l-3 7-2-1-4-1-2-1v1l-2 2-2-1 1-3 2-3v-1h-1c-2 1-5 8-5 11v3l-4 5-1-2-3-2h-2l1-3c2-3 0-3-2 0l-1 3 2 1v3c-1 3-5 9-6 8l-1-2-1-1-2 3-3 5c-3 2-6 7-6 8 1 1 3-1 5-3l4-4v2c0 2 3 6 5 6l2-3 1-3-3 1-2 2v-2l8-10h1l3 1h2c1 1 0 3-1 5l-1 3-4 2-3 4h1l5-3v2l2 2 4-3 1-2-1-2-1-1v-3l3-5 3-5 3-6c1-3 5-3 5-1l-2 3-2 4v2h3l5 1 1 1 2-3 5-2h1v1l-10 13-2 3-2-2-1-1 1-2 2-3c0-2-3-2-5-1l-1 4-2 3c-1 1-2 1-2 3s2 2 3 0l2-1h1l-1 6h1l5-3 2-3 3 3 2-2 2-2v3l-1 2 1 1 1 1 2-2 2-3 11 1 7-4 6 1 14 2 3 1v1c0 2-1 5-3 5l-2-2-3-1-3-2-1-1-4 2 1 4-6 7-5-1-7-1h-2v-2l-1-2c-2 0-3 2-3 6v3h7l11-2h5c1 1-1 4-4 5l-9 1h-6v4h-2l-3 1-1 1 1 1a871 871 0 0 0 5 3c0 2-4 8-6 8v-4c2-2 3-4 1-4l-3 3-3 3h-1l1-6h-2c-3 0-11 6-11 8l1 2 1 2-1 1-1 1-2-3-3-2-2 1c-3 2-5 5-5 8l-1 3c-2 1-1 3 2 6s4 7 2 7l-3-2-3-1-13 3 4 7 2 3h-5l-3-2-2 2-3 2h-2v-2l3-3 3-2v-2l-1-3 4-4 10-3 1-2v-11l-2-1c-2 0-7 2-7 4s-4 4-5 3v-40l-2 1c-1 1-2 2-5 2l-4 2v25l5-2v3l-2 6v4l-4-1v-7l-5-2-4 1-7 2-4 4-1 3h-7v-2l2-3 2-3-3-5-2-2v-2c1-1-1-4-3-5h-2v-7l1-9c0-2 2-1 2 3 0 3 4 9 5 8h1v-7l1-7 1-4 4-4 1-3c0-1-2 0-5 3l-3 3v7l-3 1-1-1v-6l1-4-2-2-6-3-3-1v-5l4-2 1 1c2 2 10 3 19 3h8l-2-2-3-1-3-7-4-8-2-6c-6-11-8-17-8-19v-1h-9l-1 6-1 9-1 3-8-2-3 4-1 6-1 6h-11V94l-2 2-1 2-2-1-2-2-3 3-7 8-6 9-3 3 1 1c2 1 7 1 8-1l2-2-1-2-1-1 1-2c1-4 5-9 7-9h1l-2 2c-2 5-1 6 2 3l3-4 1 1 1 1-2 3c-4 4-7 9-6 10v1l4-1h7l3 1 2-2 2-1 2 2 3 2 2-2 4-4 3-3 3-3 2-1 2 3-1 2-5 4-3 3 2 2 1 1-1 1-2 5-3 4c-2 1-5 6-5 8l3 1h1v4l-3 1-3 2-1 4c-2 2-1 4 1 5h2v2l2 6 2 4-4 3 4 10h2l2-2 1-2 7 1v4l-5 1 9-1v2l-3 3-6 7-5 7-4 4-2 3-2 1-1-2 1-4 5-5 4-3-1-2-1-5v-4l-6 1-6-6v-9l2-1h1l-1 6 1 2 2 1v-3l-1-2v-3l1-4-2-3-1-5c0-2-2-4-4-4l-1 1-2 4-1 2 1 5 2 5-2 1-2 1-1 3-1 4c-1 3-3 1-3-4l1-8c1-3 2-7 1-19v-5l-3 1-1 9-3 1v-3l-1-11v-9l8-6v-3l-2 2-3 1-4 1-2 2-1-2c0-1-1-2-2-1h-1l1 34h3l6 1 4 1v2l-2 2-5-1-4-1v9l-1 2 3 1 4 1 1 3 1 4 1 4-1 3-5-1v2c0 1 5 6 7 6h2l-3 4-6 6-3 3v2c1 3-1 6-4 9l-3 2zm48-37v-2l-1 2v2l1-2zm-37 1-1-2-1-1v2l1 2 1-1zm-7-16 1-3v-1l-2 2c-1 1-2 4 0 4l1-2zm119-8c6-6 8-7 11-7l2-1 4-3 4-4 1-5v-5l-2-3-1-4-2 1-3 3-1 7v4l-1-3c0-2-1-3-2-3l-3 11v4h-4v-6l-1-8v-3l3-3 4-3h-2l-3 2-2 2h-7l1-2 1-1-1-1s-2 0-3 2l-1 2 2 4v9l-1 9h-1l-1 1-1-5-1-8-1-4v6l-1 7-1 2v4l-1 2h4l3-2 3 2 3 1 2-1zm-45-1 1-2 1-30-5-2v1l-1 1 1 3 2 13v9l-1 1-3-1-4-2h-2l-1 2v3l5 5 6 1zm-48-18c2-1 2-2 2-4l1-6 2-5-1-2-1-2h-2l-2-2-1 2-3 2v-3l1-2v-1l-2 2-1 2-1 2-1 1 3 2 3 1-1 1c-1 2-2 17-1 18l2-3 3-3zm121 1-1-2-1 2 1 2 1-2zm-38-11v-2c-1-1-4 2-3 3 0 1 2 1 3-1zm11-2c-1-1-1 0-1 1h1v-1zm28-1c-1-1-3 0-2 1l2 1 1-1zm-4 1h-2 2zm19-1h-2l1 1 1-1zm6-7-1-1h-1l1 2 1-1zm-56-9h-1l-1 1v2l1-1 1-2zm-103-5c-1-1-1 0-1 1h1v-1zm18-12v-2l-1 1-1 2 1 1 1-2zm89-8 1-4-1 1-2 6v4l1-1 1-6zm-83-1 4-4v-3l1-5 2-3h2c5 0 4-1-2-2l-6-1-1 1-2 4-2 3-1 1c0 3-3 7-5 7h-2l-1 2v2l1 1 2-1c2 0 3-2 4-4l1-3 1 1 1 1-2 3-1 3 1 2 5-5zm-17 2h-2l1 1 1-1zm180-1c0-2 2-2 3-2h2v-4l-4 1-6 2-2 2 2 1 3 2 2-2zm-64-1 1-2c0-2-4-2-5 0l2 4 2-2zm-108-7 1-1h-4v1l1 2 2-2zm87-2-1 2c0 2 0 1 1 1v-3zm37 1c-3-2-5-2-5-1 0 2 1 3 4 2h2zm17 1v-1h-12v2h12zm-37-1 1-1h-1l-2 1 1 1 1-1zm7 0-2-1-2 1v1h5zm-107-6c1-1 2-3 1-4l-3 1-2 3 1 2 2 2 1-4zm25-7 1-1h-5l2 1 2 1v-1zm-47 154-1-1 1-4 4-7 4-4 2 1 2 2 1-2 1-2-1-2-1-8v-6l2-2 3-3 2-1 1 1v3l-1 4 3 1v3c0 5-2 12-4 14s-6 5-9 5l-4 1-2 2 1 3v4h-1l-3-2zm65-16 1-3 4-1h2v1l-1 2-1 1v2h-5zm80 0h-6v-3l5-1 8-9h4v5l-6 1-1 9h-2l-2-2zm-112-2 2-3 5-6 4-4h1l1 1-1 2-2 5-1 3-3 2c-4 2-6 2-6 0zm129-14-2-2-4 1-3 1-1-1 1-3 1-2 5 1 8 1h4l1 1-3 3-4 2s-2 0-3-2zm37 1v-9l1-2-2-7-3-8v-2l2-2 1-1h6l4 3 4 4v2l-1 1-2-2-4-2-3-3-2-2v3l2 8 2 5 3 2 3 3v2h-8v1l1 4c0 1 2 2 1 3s-4 1-5-1zm-125-6-1-2v-2l4 1v2c0 1-2 2-3 1zm-26-8v-7h3l1 3v3l-3 3zm111 0 1-5 2-2h4l-2 5c-2 4-5 5-5 2zm-120-3-1-3v-2h-4l-2-5-2-9v-4l7-5v-6l-1-6 1-2 2-2 3-2 3-2h1l-1 3v9l-1 6-5 2v9l-3 1v3l1 4 1 3v3l7-1 1 2 1 2h-3l-2-1v2c-1 2-2 2-3 1zm2-36c-1-1-1 0-1 1h1v-1zm91 33v-3l4-3 4 1h4l2-4 2-3h3l4 1 2 1-1 5-1 4h-4l1-4v-3h-1l-2 1-1 5v3h-1l-3-1-4-1h-4v5h-4zm-93-9 1-2 2 2v3h-3zm134-1-2-3c0-2 10-11 12-11l1 1-4 4-3 3v6l-1 1-3-1zm-6-14-1-2 1-1 2-2 1 2c1 2 1 5-1 5l-2-2zm54-16-2-3-2-3-2-3v-5l-1-6-3-12 1-6 1-2-4-8-4-9-1-1-4 1-3 2-1-1-1-1 3-4 4-4-2-5-3-9-1-5 1-4 3-8c0-2 1-5 3-7l3-6c0-2 7-15 10-18 2-3 8-6 8-5v6l-1 4 1 4v6l-1 2-4-2-3-2h-2v2l1 2-1 3-3 4c-2 0-1 5 1 10l1 4 6-1v7l-1 7-2 1-2 1-1-1v-4l1-3-2-3-2-3-2-3-2-2v2l1 2 1 3v3l-6-1 1 3 2 7 2 5 3-1 3-1-1 4-1 4-1 4v3l1-2 3-1 1 1-1 3v4l1 4 5 8 3 5-1 2h-2l-4-5-1 1-1 1 1 4c2 6 5 13 10 17l4 5-1 3-1 6-2 2-4-2zm1-10-2-1c-1 1 0 2 1 4l1 2 1-1-1-4zm-75-1-3-2-1-2 1-3 3-6 2-2h9l2 2 2 5-4 5-4 4-2-1h-5zm9-5 1-2-3-4-1 3-2 3c1 2 4 2 5 0zm-17-3 1-2 1-2 1 1 2 1-1 1c-1 2-4 2-4 1zm-107-6-2-8c1-3 4-3 4-1l2 3 2 3-1 2-3 3-2-2zm13 0v-9l1-3v-1l5-2 3 3v3l-2 7-1 3h-3l-3-1zm5-10-2-1-1 1 1 1 2-1zm63 8c0-2 3-6 4-6l1 2-2 4-2 2-1-2zm15 0c0-2 4-6 4-5 2 1 0 4-2 6l-2 1zm97-12-5-15 1-3 1-1-4-13 2-4 5-5h2l2 1 1 1-2 6h-2l-2 1-1 1 3 6 3 7-1 3-2-2h-3s5 10 7 11l1 1v4l-1 4-4 1zm-72 0v-1h1l2 1-1 1-2-1z"/>
</svg>
