<?xml version="1.0" encoding="utf-8"?>
<svg xmlns="http://www.w3.org/2000/svg" version="1.1" viewBox="0 0 1026 747">
	<title>Sketch of a gorge, with the river running through the right hand side at the bottom. A straight railroad line enters from the bottom left, goes through a tunnel, then out over a bridge that runs over the gorge toward the center.</title>
	<path d="M559.9 744.9c-2-1-3.8-2.3-3.8-2.7 0-1.6 2.5-3.2 4.8-3.2h2.3v1.5c0 .8.3 1.5.7 1.5.4 0 1.3-.9 2-2s1.7-2 2.2-2c1.2 0 4 5.3 4 7.4v1.6l-4.2-.1c-2.3 0-6-1-8-2zm-8.8-12c-1-1-2-2.4-2-3 0-.6.5-1.9 1-3l1.1-1.9h2.3a8 8 0 0 0 4.2-1.6l2-1.5-1.3-.5c-.7-.3-1.3-1.4-1.3-2.5V717h2c1.2 0 2 .5 2 1.2s.3.9.6.6c.3-.3.2-1.2-.1-2.1-.3-.9-1.8-1.7-3.3-1.9l-2.7-.3-.3-2.3-.3-2.4 2-2c1.2-1 2.2-2.3 2.2-2.8s-1.4-1-3-1H553l.1-1.2V699h-2.6c-1.3 0-2.5.5-2.5 1 0 .6-.6 1-1.5 1s-1.5.5-1.5 1c0 .6-.9 1-2 1h-2l.6-2.7a8.6 8.6 0 0 1 1.8-3.8c2-1.8 4.8-6.6 5-8.9.2-1.2.5-2.6.8-3.1.3-.6.3-1.9-.2-3l-.7-2-1.1 2.8c-.7 1.6-1.2 3.4-1.2 4s-1.3 2.7-2.9 4.5l-3 3.2h-4.6l-1 2.3-1 2.2-6.7.6-.8-1.2c-1-1.7-3-.2-3 2.4v2.3l3.5 3.3c3.4 3.1 3.8 5.1 1.2 5.1-.6 0-1.6-1-2.2-2.1s-1.4-2.2-2-2.3c-.5 0-1 .8-1.2 1.9-.8 5-1.4 6.5-2.8 6.5H518l.7-8.4c.3-4.6.3-9.5 0-11a4.4 4.4 0 0 0-6-3c-.8.3-2 2.5-2.6 4.9l-1 4.4-4 1.2v6l-3.6 1.5c-2 .8-3.8 2.1-4.1 3-.3.8 0 2 .6 2.8l1.2 1.5-.4 3.8-.3 3.8h-4l-.3-4c-.2-2.2-.7-4.4-1.2-5-1.7-1.7-1-4.8 1.7-7.7 1.5-1.5 3.3-2.8 4-2.8h1.3v-5l2.5-1c2.7-1 3.2-2.4 1.4-3.6l-1.1-.7.8-5.6c1-8.2.8-13-.8-15-1.7-1.9-3.2-11.4-3-18.8l.2-5.1-1.6-.6c-.8-.3-2-.3-2.5 0-1.2.7-1.1 4.1.3 8l1.2 3.3-1.2 2.6a7.4 7.4 0 0 1-2.7 3.2c-.9.3-2.1 0-2.7-.5l-1.1-1.2 2.6-5-1.2-1.5c-.7-.8-1.9-1.5-2.6-1.5-1.5 0-3-5.4-2-7 .4-.5 1.1-1 1.7-1 .6 0 1.7-.8 2.4-1.7l1.4-1.8v-10.4l-1.8-1-1.9-1-2-5.8c-2.3-6.4-2.8-13.4-1.3-16.3l1-1.8-4.9-3.2-1 2a45 45 0 0 0-1.3 11.6c0 5.2-.5 9.8-1 10-1.8 1.2-.5 5.2 3.2 10l4 5v2.5c0 1.4-.5 3-1.1 3.6l-1.1 1.2.7 8.6a32 32 0 0 0 1.2 8.1c.3-.3.9-2 1.2-3.7.4-1.8 1.2-3.4 1.8-3.6l1-.4.7 4.5a18 18 0 0 1 0 6c-.3.9-1.4 1.8-2.5 2.2l-2 .6-1.8-1.6c-1-.9-2.5-1.6-3.4-1.6H478v-2.4c0-1.4.5-2.8 1-3.1 1.6-1 1.2-4.2-1-8.7-1-2.3-2-5.2-2-6.5s-.6-4-1.5-6c-.8-1.9-1.2-3.9-1-4.4.4-.4-.1-2-1-3.3L471 635l3.2-6.8-.3-7.6-.3-7.5-2.4.2c-1.3 0-2.5-.4-2.7-1-.2-.5.5-2 1.6-3.1a8 8 0 0 0 2-4.6c0-1.3-.9-3.2-2-4.2l-2-1.8v-3.1c0-1.8-.9-5-2-7a23 23 0 0 1-2-5.7 4 4 0 0 0-1.4-2.8 47.3 47.3 0 0 1-4.6-19.5c0-2.4-.4-4.7-1-5-.5-.4-1-1.5-1-2.5s-1-2.6-2.4-3.5a10 10 0 0 0-3.5-1.6c-2 0-1 3.7 2 7 1.5 1.8 3.1 4.7 3.4 6.4l1 9.1.5 6 4 8c2.2 4.3 4 8.9 4 10s-.6 2.8-1.5 3.5-2.1 1-3 .7l-1.5-.6v-8.6l-2.6-2.8c-1.4-1.6-2.6-4-2.6-5.3s-.6-2.9-1.4-3.5l-1.4-1.1v1.5a3 3 0 0 1-1.2 2.3c-.6.4-3 .7-5.2.5l-4-.2-1.3-2c-.8-1-2-1.9-2.9-1.9-.8 0-1.9-1.2-2.4-2.7l-1-2.6 1.8-1.9 3.5 1.2c2 .6 4.1 1.8 4.8 2.6 1.3 1.6 6 2 6 .5 0-.5-1-1-2.3-1.3l-2.1-.3-1.6-6c-.9-3.2-2.1-6-2.8-6.2l-1.3-.4-4.2 7.2-1.7-.3-1.6-.3V564c0-1.4.4-3.6.7-5l.6-2.5-5.8-4.7-3 1.2 1 2c.6 1.1.8 2.5.5 3-.7 1.2-5.5 1.4-5.5.3 0-.4-.7-1.6-1.4-2.6l-1.4-1.8-4.1 4 1 5.6-2.6 5-10 1 .3 3.3.3 3.2h-2c-1 0-2.4-.6-3-1.4-.7-.8-1-2.7-1-4.3l.4-2.8 3.5-1.6c2-1 4.9-2 6.5-2.6l3-.8.3-1.9.4-1.8-9.2 1.3v-2a3 3 0 0 1 1.6-2.5c.9-.3 2.9-.6 4.5-.6h2.9l1.6-2.4c1.7-2.7 1.6-6.7-.2-7.3l-1.1-.4-.6 3-.6 3.1h-2a4 4 0 0 1-3-1.7l-1-1.8-1.1 1.8c-.6 1-1.7 1.7-2.4 1.7s-1.8-1.1-2.4-2.5l-1.2-2.6 1-1.8c1-2 2.6-2.5 10.3-3.6l4.7-.7v-1.3c0-.7 1.4-2.7 3-4.3 3-3.1 3.9-5.2 2-5.2-.7 0-1.4 1-1.7 2-.3 1.1-1.1 2-1.9 2-.7 0-2-1-2.8-2.2-1.6-2.2-1.7-2.1-2 .5-.1 1.6-3.5 2.2-4.9.8a4 4 0 0 0-2.4-1H400l.6 3.8.6 3.8-3 1.1c-1.7.6-3.3.8-3.5.6-.3-.3-1.5 0-2.7.6l-2.2 1.2-2.5-.6-2.4-.7.3-2c.2-1.2 1-2.5 1.8-3 .8-.4 2.7-1 4.3-1.3l2.7-.6v-1.5c0-.9 1-2.6 2.3-4l2.4-2.2 12.4-1.5-.4-1.1-.4-1.2H402l-1-1.5c-1.6-2.5-1.1-4.6 1.5-5.8l2.5-1.1-.3-2.2-.2-2.1 1.7-1.1c1-.6 2-.8 2.4-.4.4.4.7 2 .6 3.7v3l2.9.7c1.6.3 3 1 3 1.4s1 1 2.4 1c2.7 0 7.7 1.9 8.7 3.4l.8 1 2-1.2a9 9 0 0 1 4.1-1.3h2.2l8 8.2 2-.5c1-.3 3.2 0 4.8.5l3 1 3.2 6.2v4.8c0 2.7.2 5 .6 5.2l3.4 1 2.8.7-3.2-5 .6-2c.4-1.2 1.1-2 1.6-2h1l-.6-3.4-.6-3.3 1.5-1.3c.8-.7 2-1 2.6-.6s1 2.9 1 5.6v5l2.5 1a7 7 0 0 1 3.5 3.5c.6 1.4.8 3.6.4 4.9l-.5 2.3 1 .7c.6.3 1.1 1.6 1.1 2.8v2.2l3.3 1.6c1.8.9 3.4 2.3 3.6 3.3l.3 1.6H475l.4 1.2a36 36 0 0 0 12.4 6.8c1.7 0 7.3 5 7.3 6.5 0 .8-.4 1.7-1 2a26 26 0 0 1-8.6-3.4c-4.2-2.3-9-4-10.5-4s-2.9.2-2.9.5 1 2.3 2.3 4.5l2.2 3.9h6.2l3.5 2.4c2 1.2 4.7 2.6 6.1 3l2.7.6v4.3l-7.8-1-3.4-2.7c-2-1.4-4-2.6-4.5-2.6s-1.3-.6-1.6-1.2l-.5-1.3v1.7c-.1 1 .2 2 .7 2.2 1 .6 2.2 6.1 2.6 10.9.1 1.5.5 3 .8 3.4.4.3 1.7.6 3 .7l2.2.1.4 2.4a7.6 7.6 0 0 0 2.4 4.1l2.1 1.7-2.4 8.3 1 3.8 1.5 6.6.6 2.9 5-4.7 1.7 1c1 .6 1.9 2.2 2 3.5s.5 3 .8 3.8l.5 1.4 1.2-1.1c1.5-1.6 5.4-1.5 6.4 0 .5.7.9 7.5 1 15l.1 13.6 1.6 2.3c1 1.3 1.6 3.3 1.6 4.5s.7 4 1.5 6.4c.9 2.3 1.5 5.6 1.5 7.2v3l5.7 5.6 3-1.7-.2-6-.2-6.1-1.7-2-1.7-1.8.3-2.8.3-2.8 5-1.2v-12.9h5l.3 5.7.3 5.7-3.1 9.4 1.8 1.9 1.4-2.8 1.4-2.9 4.4-.6v-4c0-2 .5-4 1-4.4s1.8-.1 2.6.5l1.4 1.2v7.7l3-1 3-1 4.2 2.2-.6 5c-.2 2.8-.8 5.4-1 6l-.7.9h9.2l1-2.5c.5-1.4 1.5-2.5 2.3-2.5s2 .6 2.5 1.4l1.2 1.3-3 7-6.2 1.3.3 1.7c.2 1 1.5 2 2.9 2.3l2.5.6.3 4.2.3 4.2-1.6 2.2a9 9 0 0 0-1.5 3c0 .5 1.1 1.3 2.5 1.8l2.6 1-.3 5.7-.3 5.8-2.8 1.3c-1.5.7-2.7 2-2.7 2.8 0 .7-.7 1.4-1.5 1.4s-2-.7-2.9-1.5l-1.5-1.4-2.2 2.7 2 .5c1.1.3 2 1.2 2 2s-.9 1.7-2 2l-2.1.5zm8.3-33c-.7-.7-1.5-1-1.8-.7-.3.3-.2 1.3.2 2.2l.6 1.7 2.2-2.1zm-28.8-5.9.7-1h-4.7l1.5 1 1.7 1c.1 0 .5-.4.8-1zm22.3-2.6c-1-1-2.9.6-2.2 1.8l.7 1 1-1c.6-.7.8-1.4.5-1.8zm-39.8-5.5c0-2.8-1-4.9-2.6-4.9-.7 0-1.4.8-1.4 1.8s-.3 3.5-.6 5.7l-.6 4 2.6-2.4c1.4-1.4 2.6-3.2 2.6-4.2zm25.7 2.4c-.4-.3-.7 0-.7.7s.3 1 .7.7c.4-.4.4-1 0-1.4zm-8.7-.3c0-.5-.6-1-1.5-1s-1.5.5-1.5 1c0 .6.7 1 1.5 1s1.5-.4 1.5-1zm-23.8-39.7a10 10 0 0 1-.4-5l.5-3.3h-2c-1 0-2.2.3-2.5.6-.3.3.3 2 1.4 3.9l2 3.3-2.3 1.4 1.8 1.3c1 .8 2 1 2.1.5.2-.5 0-1.7-.6-2.7zm-31-55.6a14 14 0 0 1-1.6-4.7c-.4-2-1.5-5.5-2.3-7.9l-1.7-4.4-.6 2-.7 1.8 1.4 2.7c.7 1.5 1.3 3.7 1.3 5 0 2.3 1.5 7.6 3.4 11.8l1 2.5.4-3.8c.2-2.1 0-4.4-.6-5zm-23-26.3c-.2-2.5-.8-5.4-1.5-6.5-.6-1-2.2-1.9-3.4-1.9h-2.2l1.1 2.8c.7 1.5 2 3.8 3 5.1s1.8 3.3 1.8 4.4c0 1.1.3 1.7.7 1.4.4-.4.6-2.8.5-5.3zM469 560c0-.6-.7-1-1.5-1-1.5 0-2 1.2-.8 2.3.8.8 2.3 0 2.3-1.3zm-23.4-5.6 1.4-1-5.2-6.3-3.1.6c-1.8.3-3.3.7-3.5.9s.3 1.2 1 2.4l1.3 2.1-2 1.5c-1 .8-1.6 1.6-1.3 2s2.2-.3 4.2-1.1l3.8-1.6.6 2.3.6 2.3.4-1.5c.2-.8 1-2 1.8-2.6zm-23.6-5.8c0-.7.6-1.6 1.4-1.9l1.4-.5-.5-2.4-.4-2.3 2-1.8 1.9-1.8-1.2-2.4c-.6-1.4-1.4-2.5-1.8-2.5-.5 0-.8.9-.8 1.9 0 1-.6 2.4-1.4 3l-1.5 1.3-4-1.3v4.5c0 2.4.2 5.2.5 6a3 3 0 0 0 2.5 1.6h2zm10.8-4 1.3-2.6h7l-.3-1.2-.4-1.3h-7.7l-1.8 3a13 13 0 0 0-1.8 4.3c-.1 2.2 2.3.8 3.7-2.1zM468 546c0-1.2-1-1.2-3 0l-1.5 1h2.3c1.2 0 2.2-.4 2.2-1zm-18-6.5V534l-1.5-.6c-.9-.4-1.8-.4-2-.2a20 20 0 0 0-1 4.6l-.7 4.2h1.5c.8 0 1.8.7 2 1.5s.9 1.5 1.2 1.5c.3 0 .5-2.5.5-5.5zm86.3 186.3c-.6-.7-1.5-4.7-2-8.8l-1-7.5 1-1.2c.5-.7 1.4-1 1.9-.7.4.3.8 1.7.8 3.2s.6 5.2 1.2 8.4l1.2 5.8-2 2zm8.4-.5c-.4-.3-.7-1.5-.7-2.6v-1.9l2-.5 1.8-.5.7-3 .6-3.2-2.2-2.1-1.4 1.9a12 12 0 0 0-1.7 3l-.4 1-3.4-1.3v-5l3.8-3c2-1.7 4.4-3 5.2-2.9 1.5.3 2 1.5 4 9.8l1 4.5-2.7 2.3c-3.7 3.1-5.9 4.3-6.6 3.5zm-16.7-7.2c0-2.2.4-4.2.8-4.5.5-.2 1.4-.1 2.1.3l1.3.8-.3 3.4-.4 3.4-3.5.6zm-60-49.5-1.1-1.4 1.4-2.9c.8-1.5 1.8-4.2 2.2-6l.6-3.1-1-.7c-.6-.3-1-2-1-3.7v-3l-3.2 2.5-.9-.9c-1-1-1.5-5-1.2-9.7l.2-2.8 3.2-1.2 1 1.4c.4.8.8 2.7.8 4.3v2.9l1.7 1.2c1.8 1.3 4.2 9.2 4.3 14a36 36 0 0 1-1 6.8l-1 3.7h-1.9c-1 0-2.4-.6-3-1.4zm-251-6.3a57 57 0 0 1 3.3-11c.4-.7.5-2.1.2-3.1s.4-4.5 1.5-7.8c1.1-3.2 2.7-8.3 3.5-11.3.8-3 2.6-8.6 4-12.5A96 96 0 0 0 236 593a73 73 0 0 1 5-19.2c.5-1 1-2.6 1-3.6s.3-2.2.8-2.7a43 43 0 0 0 4.1-14l1-6.3c0-.3-.9.7-2 2.1-1.1 1.5-2.7 5-3.5 8l-2.1 6.7a382 382 0 0 0-6.4 22c-4 15.2-8.7 30.4-10.6 34.8-.8 1.8-2.5 7.5-3.8 12.5l-2.3 9.2-3.2.7v-4.6c0-2.5.5-5.8 1-7.3a164 164 0 0 0 8-26.3c.7-3 1.5-6.2 2-7 .4-.9 1-3.1 1.4-5 .4-2 1.6-5.3 2.6-7.5s2.3-6.7 3-10 1.7-6.8 2.2-7.9a37 37 0 0 0 1.9-7.2 81.8 81.8 0 0 1 4.3-19.6c.9-2 1.6-4.8 1.6-6.2s.4-2.7.8-3 1.2-2 1.5-3.8c.4-1.8 2-6.7 3.6-10.8a232 232 0 0 0 8.1-25.5 626 626 0 0 0 12-50.3c0-1.2-.4-2.2-.8-2.2s-1.8 4.4-3 9.8a99.8 99.8 0 0 1-4.2 13.7c-1 2.2-2.9 7.3-4 11.3-1.2 4-2.6 7.4-3 7.7-.5.3-1.2 2.4-1.5 4.8a41 41 0 0 1-2.5 8.2c-1 2.2-2.4 6-3.3 8.5-.8 2.5-2.7 7.2-4 10.5-1.4 3.3-3 9.3-3.6 13.3-.5 4-1.5 8-2.1 8.7-1.4 1.6-7 16.8-7.8 20.7a7.6 7.6 0 0 1-1.8 4c-.8.5-1.4 2.1-1.4 3.4 0 1.3-.5 2.6-1 3-.6.3-1 1.3-1 2.2s-2 5.8-4.5 10.7A55 55 0 0 0 214 590c0 .9-.7 2.2-1.4 2.8a17 17 0 0 0-3.1 5.9l-3.6 8.7c-1 2.2-2 4.8-2.3 5.8s-1.3 1.7-2.2 1.7h-1.7l.7-3.7c.4-2.1 1.8-6 3.1-8.6 1.4-2.7 2.5-5.6 2.5-6.6s.3-2.1.8-2.6c.5-.6 1.4-2.6 2.1-4.5l4.3-10a596.3 596.3 0 0 0 10.7-25.5l5-14a115 115 0 0 0 6.4-19.5l.6-3.5-2.3 4.5a87 87 0 0 0-4.6 11.5l-3 10.6c-.6 2-3 7.6-5.4 12.5a157 157 0 0 0-4.8 11 15 15 0 0 1-3.1 4.7c-1.4 1.5-2.5 3.5-2.5 4.4s-1.4 4.6-3 8.3-3.6 8.9-4.5 11.6-2.4 6.6-3.3 8.5c-.8 2-2 4.8-2.4 6.5-.4 1.7-1.6 5.4-2.6 8.3l-1.7 5.4-3.8-.5a11 11 0 0 1-5.3-2c-.9-1-2.2-1.7-3-1.7s-1.5-.6-1.8-1.4a40 40 0 0 1 2.5-16.4l3.6-4c1.2-1.2 2.5-3.9 2.8-6 .4-2 1.1-4.5 1.6-5.4l1-1.8h5.4l-3-2.3-2.8-2.3.8-3.9 2.2-.3 2.3-.3.6 3c.3 1.7 1 3.1 1.5 3.1s1.2-.7 1.5-1.5l.6-1.6-1.6-1.8c-1-1-1.6-2.4-1.6-3.2 0-1.9 2-3.9 3.8-3.9 2.2 0 4-3.1 4.1-6.7V560l-3-2.2c-1.6-1.3-3-3-3-4s.6-1.9 1.3-1.9c.7 0 2.4 1 3.8 2s3 2 3.8 2h1.3l-.7-2.2c-1-3-2.4-4.8-4-4.8-1.4 0-2.4-2.2-2.4-5v-2l9-4.2 4 3.6 1.1-1.1c1.3-1.3.3-4.7-1-3.8-.6.3-1.3.1-1.6-.4-.9-1.5.4-3.8 2.5-4.4 1-.3 2-1 2-1.6s-1-1-2-1h-2l-1.5-3c-.9-1.7-2-3-2.5-3-1 0-2 2.5-2 5.5v2.4h-3v-3c0-1.6.7-4.5 1.7-6.4l1.8-3.5 3.7-1.7c2-1 4-1.4 4.4-1.1.3.3 1.9-.6 3.5-2l3-2.7-.3-4-.3-4 4.7-.7-.8 5.3c-.4 3-1 6.3-1.5 7.6l-.9 2.2h-5.5l1.9 1.6c1 .8 2.5 1.4 3.2 1.4 2 0 6.4-7.5 10-17.4 1.9-4.9 3.4-9 3.4-9.3s-.8 0-1.7.6l-1.7 1-2.3-1.1a5.8 5.8 0 0 1-2.9-3c-.3-1-1.3-1.8-2.2-1.8a6 6 0 0 0-3.2 1.5l-1.7 1.5-4.7-.6c-2.5-.4-4.6-1-4.6-1.5s.8-1.8 2-2.9l2-2 6 1.3v-1c0-.6 1.9-1.3 4.2-1.5l4.3-.5 7.5 4.8 1.5-1.5c.8-.8 1.5-2.8 1.5-4.4v-3l-1.6-.6c-.9-.3-2.9-.6-4.4-.6-1.5 0-3.3-.6-3.9-1.3s-.8-2.2-.5-3.4c.3-1.1 0-2.4-.6-2.7l-1-.7-1 2.5c-.5 1.4-1.8 3-2.8 3.5l-2 1-1-1.1c-.7-.7-1.2-2.4-1.2-3.8 0-2.6 1.1-4.6 4-6.8l1.7-1.2 2.4 1.3c1.3.7 3.5 2 4.9 3l2.4 1.7-2.5 4h3c1.6 0 3.2.5 3.6 1 .3.6 1.4 1 2.4 1h1.8l4.5-10.7a243.3 243.3 0 0 0 6.8-16.8c1-1.2 3.1-11.2 4.4-20l1.9-4.7c1-2 1.7-5.2 1.6-7 0-1.8-.7-4.1-1.5-5.2l-1.4-2-1 1-.9 1 .9 4.4c.8 4.6.3 9.7-1 10.5-.4.3-1.6-.2-2.6-1l-1.9-1.3 1.4-2.5c.7-1.4 1-3 .6-3.6l-.7-1-1.8 1c-1 .5-2.6.6-3.5.3l-1.5-.6v-3.2c0-1.7-.6-3.9-1.3-4.8-1.5-1.8-5.5-3-6.3-1.7-.3.5-1.7 1-3 1s-2.4.3-2.4.8c0 1.2 3.4 4.1 5 4.1.7 0 2.1.8 3.1 1.7l1.8 1.6-1 1.9-1 1.8h-5.4l-3.2-3c-1.8-1.6-4.2-3-5.3-3h-2l-9.8-9.5-1.2-5.7c-.6-3.2-.9-6.2-.5-6.8.8-1.3 5-1.3 7.5 0l2 1.1v5h1.5c.8 0 1.5-.5 1.5-1s.7-1.7 1.6-2.6l1.7-1.6 6.7 1.2v-1.5c0-.9-.4-1.6-1-1.6-1.2 0-2.3-6.7-1.5-10.2l.7-3 7 .5c3.7.2 7.1.8 7.5 1.1s0 1.7-.7 3l-1.2 2.4 2 3.8 9.1.4-.9-2.4-.9-2.4 2.2-.6c1.2-.3 3-.5 3.9-.6 1 0 2.9 1.1 4.3 2.5s3 2.3 3.5 2c.4-.3 1.1-2.3 1.5-4.4.3-2.2 1.3-4.5 2-5.1.8-.7 2.6-1 4-.7l2.5.5v-1.3c0-1.7 3.7-4.8 5-4 1.3.8 1.3 6.5 0 6.5-.6 0-1 .6-1 1.2 0 .7 1.2 0 2.8-1.5 1.5-1.5 3.8-2.7 5-2.7h2.2v-6h-7.8l-2.7-3.2-.6 2.3-.5 2.4H282c-1.4.1-3.3 1-4.3 1.9L276 376l-1.4-1.2c-.8-.6-1.4-2-1.4-3 0-2 3.6-4.9 6.2-4.9h1.8l-1.2-4.7 7.2-1.4-.6-1c-.3-.4-2-.9-3.8-.9h-3.3l-3.6-4-1.9 2.5a8.8 8.8 0 0 0-1.8 3.4c0 1.4-2.3 1.5-3.7 0l-1-1-2.8 3.4.2 7.6.3 7.5-2.2 2.3c-1.2 1.3-3 2.3-4 2.3h-1.8v-1.8c0-1 1-2.6 2.2-3.4l2.3-1.5-1.8-3.7-1.7-3.6 1.4-2.3c.8-1.2 1.6-3.7 1.8-5.6l.3-3.4-6.5-1.7v-3.7l-2.2-.6c-1.2-.3-2.4-.4-2.6-.2-.3.2.3 4.7 1.3 10 1 5.2 1.4 10.2 1 11.1l-.6 1.7-1.4-1.2c-.8-.7-1.6-2.8-1.7-4.7-.2-1.9-.8-3.4-1.3-3.4-.6 0-1.5 2.3-2 5.1-.6 3-1.6 5.4-2.2 5.7-.6.2-1.4 0-1.6-.5-.3-.4.1-4.1.8-8.3l1.3-7.5-1.2-1.2-1.2-1.2-7 4.9-2.9-.8c-1.6-.4-3-1.3-3.3-1.9-.2-.6.4-1.7 1.2-2.6.9-.8 1.6-2 1.6-2.4 0-1-4.9-5.8-5.3-5.2l-1.7 3.2-1.4 2.8-3.1-.6-.4-2.7-.3-2.7 5.5-5h5.5l5.3 11.1 1.8-1.6 1.7-1.6 6.9 1.2-1.8-1.5c-2-1.6-2.3-5.6-.5-8 .7-.8 2.8-1.7 4.7-1.9l3.4-.3.5-1.4.4-1.3-15.2 1v-1c0-.4-1.2-.8-2.5-.8H232v-1.3c0-1.9 6-7.3 9.5-8.4l3-1-2-.7c-1.1-.4-2.8-1.1-3.8-1.7l-1.8-1-3.1 1.6a16 16 0 0 1-4.4 1.5c-.7 0-1.6-.8-1.9-1.8l-.5-1.8-6.8.8-.6-1.6a5 5 0 0 1 0-3l.5-1.5 7 .3 1 2.5 2.4-1c1.4-.7 2.5-1.6 2.5-2 0-.9-.9-1-7-1.2l-3.5-.2-.3-1.7-.4-1.8h5.2l-2-2c-1.1-1-2-3-2-4.3 0-1.3-.7-3-1.5-3.7l-1.6-1.2-4 5.2h-7v-1.6c0-1 1.9-3.3 4-5.4l4.1-3.7-2.5-1.6a9.7 9.7 0 0 0-3-1.7c-.3 0-.5 1-.5 2s-1.6 3.7-3.4 5.6l-3.4 3.6-4.4-2.3.4-2.5.5-2.4h-1.1c-1.3.1-6.6 4.6-6.6 5.7 0 .4-1 2.2-2.3 4l-2.2 3.4-5.4-1.2-2.6 4a16 16 0 0 1-3.1 4.1c-.3 0-1.5-.4-2.5-1l-2-1v-5l1.8-.7a22 22 0 0 0 4.8-3c1.7-1.2 4.3-2.3 5.7-2.3h2.5l.6-1.5c.4-1 .7-2.7.7-4V296l1.9-1c1-.6 3-1.1 4.2-1.1l2.4-.1 5.6-6.8-.8-1.3c-.5-.7-.8-2.2-.8-3.3v-2l-7.5.6-1.7-4-1.6-4.1-1.4 2.6-1.4 2.7 1 1.3 1.1 1.2-.7 2.9a38 38 0 0 0-.8 5.3v2.5h-4l-.6-5.5c-.4-3-1-6.2-1.4-7.2a3 3 0 0 0-2.5-1.8h-1.8l-.5 2-.6 2h-1.9c-1 0-2.8-.9-4-2-1.2-1-2.5-2-2.9-2-.4 0-1.7-.9-3-2l-2.2-2.1-2 1-2.2 1.2v4.9l-3 1.6-3.2 1.6 3.1 2.9 3.1 2.8v2.1c0 3-1.6 5.8-4 7l-2 1.2-1.5-1.2c-.8-.7-1.5-2-1.5-3.2v-2l2-.5c1.1-.3 2-.9 2-1.4 0-.5-1.1-.9-2.5-.9H149l-.6-1.5c-.3-.8-1-1.5-1.4-1.5-.5 0-1.2 1.2-1.6 2.6l-.6 2.5-3.3-.6.3-3.1.2-3.2-5.4-1.3-2.5 3.4-5.4-1a24 24 0 0 0-7.4-.6c-1.1.3-2.3 0-2.7-.6-.4-.6-1.6-1-2.7-1h-2l-.6-2-.5-2-2.4-.7c-1.3-.3-3-1.5-3.5-2.7l-1.2-2-1.6 4.3h-2c-1.2 0-2 .5-2 1s.8 1 2 1 4.3 1.6 7.2 3.5c2.9 2 6.2 3.5 7.5 3.5 1.2 0 2.2.4 2.2.8 0 .8-7 3.2-9.4 3.2-.8 0-2.4-1.3-3.6-3l-2.1-3h-2.2c-1.3 0-3.2-.6-4.2-1.4A9 9 0 0 0 93 283a15 15 0 0 1-10-6l-1-2 2.3-2.4c1.2-1.3 4.1-3 6.5-3.6l4.2-1 4 1c2 .6 4.4 1.7 5 2.5.7.9 2.2 1.5 3.2 1.5 3.2 0 15.3 3.4 16 4.5 1 1.5 3.8 1.8 13.7 1.6 1.9 0 4.5.6 5.8 1.5 1.4.8 3 1.4 3.6 1.2.6-.2 1.2-2 1.2-3.8v-3.5l6.8-1 3-7.5-1.6-1.8c-1-1-1.7-2.7-1.7-3.7s.8-5.5 1.7-10c1-4.3 2.4-8.7 3.2-9.7l1.5-1.8H155v1.3c0 .7-.4 3-1 5l-1 3.7h-5l-.6-1.5c-.4-.9-.2-2 .4-2.6l1-1-.5-9-.5-9 6.4-6.6-1.5-.9c-.8-.5-1.6-2.2-1.8-3.8s-.9-3-1.6-3.3l-1.2-.4-3.3 7.6.3 9.3-3.2 1.2.7 6.3.6 6.3-2 1.9c-1.2 1-2.2 2.7-2.2 3.7s-.8 2.2-1.8 2.8c-1 .5-2.2.7-2.5.3-1.3-1.2-.6-4.5 1.3-7 1.1-1.4 2-3 2-3.4s-.6-.9-1.3-.9-1.7 1-2 2.1l-.5 2-4.2-2.1v-3.3c0-1.8.4-3.7 1-4.2.5-.5 1-2 1.2-3.5l.3-2.5h4l-.2 4.3c0 2.3.3 4.2.8 4.2h1v-13.7l1.4-1.3c.9-.6 1.5-2.2 1.5-3.5 0-1.3-.7-2.8-1.6-3.3l-1.7-1-.1-4.1v-4.2l-2-1.4a9 9 0 0 0-4.6-1.5c-3 0-5.5-2.2-4.6-4.4l.5-1.4 3.5.8 3.5.8 1-1c.7-.7 1.1-2 1.1-3V192l5.1-2.3-.6-1.6-1.2-3.2-.4-1.6 2.6-.6c1.4-.4 2.5-1.1 2.5-1.7 0-.5-.9-1-2-1h-2v-3.4c0-1.9-.4-3.7-1-4l-.9-.6-.7 2.5c-.3 1.5-1.1 2.5-1.7 2.3-1.7-.6-2-4.6-.6-6.3.7-.8 1-1.6.8-1.8a78.5 78.5 0 0 0-13.1-5.7c-2.6-.8-4.8-1.7-4.8-2.2 0-.4-1-.8-2.5-.8H113l-1.2 2c-.7 1.1-2 2-3 2s-2.7-.5-3.7-1.1l-2-1.2-4 1.8c-2.3 1-4.4 1.6-4.7 1.2-.4-.3-.1-2.4.6-4.7.8-2.2 1.1-4.2.9-4.5s-1 .7-1.7 2l-2.4 5.2a7.7 7.7 0 0 1-2.6 3.1l-1.4.5L71 148.5l-.6-2.7-.6-2.8H65v-1.3c0-2.3-2.4-4.7-5-5-1.4-.2-3.1-.6-3.8-1a3 3 0 0 1-1.2-2.3v-1.6l3.8.6c2 .2 5.9 1 8.5 1.7l4.7 1.3-.5 1.8-.6 1.8h1.8c1 0 2.4-.9 3-2l1.3-2h3c1.5 0 3.3.7 4 1.5l1.2 1.5-3.4 2c-1.9 1.1-4 3.1-4.7 4.4-.7 1.3-1 3.4-.8 4.7l.4 2.4 1.1-2.6c.6-1.5 2-3.2 3-3.7l1.9-1 11.7 3.6 1 2.4c.6 1.3 1 2.5 1.2 2.6 0 .2 1.4-.4 3-1.2 1.5-.8 3.4-2.5 4-3.8 1.5-2.4 1.8-10 .8-16l-.6-3.8-1.3 1-1.2 1 .5 2.7.5 2.7-4.3-1.2-1.1 2.2a9.3 9.3 0 0 1-2.2 2.8c-1.6 1-2.7-1.2-1.7-3.2a6 6 0 0 0 .4-3.8c-.7-2.4 1.3-8.1 2.7-8.1.5 0 1-1.4 1-3s.5-4 1.1-5l1.2-1.9-2.7-3.2-1 1c-.6.6-1.9 1-2.9 1H91v-11l-4.9-5-2.3 1c-1.2.4-2.8.6-3.5.3-.7-.2-1.3 0-1.3.4 0 .5.9 2.2 2 3.8l1.9 2.9-1 2.4-.9 2.8c0 .3 1.1.5 2.5.5H86l.6 2.4c.3 1.3.4 3.4.3 4.7l-.4 2.4h-3l-.3-2.8c-.2-1.5-.9-2.7-1.6-2.7-.6 0-2 .7-3.1 1.7l-5.7 4.6c-2 1.5-3.8 3.2-3.8 3.7s1.6 1 3.5 1 3.7.4 4 1c.7 1-4.1 6-5.9 6-2.1-.1-3.3-1.6-4-5.3L66 124l-1.6.9a5 5 0 0 1-3.4.4l-1.9-.5v1.6c0 2-1.9 3.1-3.3 1.8l-1-1.2 1.2-3.7c.7-2 1.7-4.8 2.4-6 .6-1.2.9-2.4.6-2.7-.2-.2-1.6-.7-3.1-1l-2.8-.8v1.6c0 2.4-2.8 2-3.2-.4l-.3-2-4 3 3.2 3.2c1.8 1.9 3.9 5.2 4.7 7.5l1.5 4.2-2.8 1-5.3-10.8-3.3-2a11.3 11.3 0 0 1-3.9-3.6l-.6-1.6 4.5-7.8h3c3.3 0 2.7-1.3-.9-1.6l-2.4-.3-1.5 1.7c-.8.9-1.8 2.7-2.1 3.9-.4 1.2-1.3 2.3-2 2.3-1.7 0-2.6-2.2-2.6-6v-2.9l6.4-5.3 3.5.7c2 .3 4 .8 4.3 1a14 14 0 0 1 2.3 3.7 42 42 0 0 0 5.5 7.5l3.9 4.3.6-1c.3-.6 1.7-1 3-1H67l1.3 2c.6 1 2 2 3 2H73v-1.5c0-.9.6-1.5 1.3-1.5s1.7-1.6 2.3-3.6l1.1-3.5-5.7-8v-8.7l3-2.5-1-1.8c-.6-1-.7-3-.4-4.4l.6-2.5H72v9h-1.7c-1 0-2.8-1.6-4.1-3.5L63.8 80v-3.5l-.2-3.5h-1.2c-1.7 0-7.4-6.2-8-8.7l-.6-2.3-4.3.5-.3-3.4-.3-3.3 3.5-4-1.3-.8c-1.4-.8-4.8-.3-6.6 1-1.6 1.2-5.8.6-6.3-1l-.5-1.3 4.2 1 1.2-1.3 1.1-1.4-3.2-3-2 .7-2 .6V44l-1.7.5-4.5 1.2-2.7.7-1.2-2.6c-.7-1.5-1.6-2.6-2-2.6s-2.5-1-4.4-2.3c-2-1.2-3.5-3-3.5-3.9 0-.9 1-2.2 2-3l2.1-1.3-1.4-3.7-4.6 5.7-1-1.5c-.5-.8-.7-1.8-.5-2.3.3-.4-.4-1.6-1.7-2.6l-2.2-1.8v-9.8L8 19.3l-1.8-1.4C2.5 15 0 11.5 0 9.2c0-1.4 1.2-4 2.6-5.8L5.2 0l3.6.6c2 .4 4.7 1.3 5.9 2A8 8 0 0 1 17.5 7a8.8 8.8 0 0 0 2 4.1c.9.7 1.5 1.6 1.5 2.2 0 1 5.6 9.4 7.7 11.6.7.7 1.3 2.3 1.3 3.6 0 2.3 1.6 4 5.9 6.4l2.3 1.3 1.1-1c.6-.7 2.3-1.1 3.7-1.1h2.5l7.2 9.7-1.6 1-1.6 1.1 7.4.2 3.1 4.5c1.7 2.4 3.5 4.5 4 4.5 1.4 0 12 11 13 13.4.5 1.3.7 3.2.4 4.3l-.5 1.9 3 3.2 3 3.3 1.2-.7 1-.6-1.2-5.5 2-1.8c1.2-1 2.1-2.7 2.1-3.7v-1.8h4l.7 1.7c.4 1 1.7 3 3 4.6l2.4 3L97 82h1c.6 0 2 2 3.1 4.4a67 67 0 0 0 4.5 8.2c1.4 2 2.5 4.7 2.5 6 0 1.3.5 3.2 1 4.1 1 1.8 3.8 12.3 4.7 18l.5 3.2-6.5 4 2.6 1c1.5.5 2.7 1.3 2.7 1.6 0 .3-1 1-2.2 1.4l-2.3 1h1.5a50.9 50.9 0 0 1 13 11.4c0 .3 1.6 2 3.6 4l3.6 3.6 5.7-1.2 1.6 3c.8 1.8 1.5 4.3 1.5 5.7s.5 2.5 1 2.5 1-.8 1-1.8v-2l2-.4a9 9 0 0 1 4 0l1.8.4 1.2 4.2c.7 2.3 2.1 5.4 3.2 6.8l2 2.7-.7 2.5-.6 2.4 5.1 15.1.3 30.2 1.3-1.1a6 6 0 0 0 1.6-3.3l.3-2.2 2.4-.3 2.4-.3-.6 4-.7 4.2 5 1.9v4.3c0 2.3-.6 5.5-1.4 7l-1.5 3 1.7 2.3c1 1.3 2.5 2.4 3.5 2.4h1.8v6l2 1.4c1.2.8 2.8 1.2 3.6 1l1.3-.6 2.5 2.4c1.4 1.3 2.5 2.7 2.5 3 0 1.4-2.2.9-4.2-1l-2-1.7.8 5 3.9.4c2.2.1 5 1.1 6.4 2.2 1.3 1 3 2 3.7 2a42 42 0 0 1 10.5 12.9c0 .6.7 1 1.5 1h1.6l-.6-2-.7-2h1c.6 0 1.3.5 1.7 1 .3.6 1.9 1 3.5 1s4 .6 5.4 1.2l2.5 1.2 4.6 9 7 13.5c1.5 2.4 2.3 4.6 2 5-.4.3-1.8-.7-3.2-2.2-1.3-1.6-2.7-2.7-3-2.4-.8.9 4.6 8.7 6 8.7a4 4 0 0 0 2.4-1.1l1.2-1.2 3.8 2.9c2 1.5 4 3.1 4.3 3.5.2.3 2 1.2 3.7 2l3.3 1.4v3.3l-2-.5c-1-.2-2.7-1.3-3.6-2.4-1.9-2-3.4-2.4-3.4-.9a30 30 0 0 0 9.7 10c.7 0 1.3-.7 1.3-1.5s.7-2.6 1.6-4l1.6-2.5h4.3c2.4 0 4.6.5 5 1 .3.5 2.1 1.7 4 2.6l3.5 1.7 1.4-1.2c.8-.7 2.5-1 3.8-.9l2.3.3 1 3.3c1 3.4 2.9 4.3 3.8 1.8l.6-1.5 3.3 1c1.8.5 3.5 1.5 3.7 2.1.2.7 1.4 2.2 2.6 3.5l2.3 2.2 9.6-3.6 1.7-5 3.7-.6c2-.2 6-1.3 9-2.4l5.3-1.8-1.8-1.6c-1-1-2.8-2-4.1-2.3a5.9 5.9 0 0 1-3.3-3.2l-1-2.5-8.6 1.3-1.7-1.6c-.9-1-1.6-2.3-1.6-3V309l-7.1-2-4-4.1c-4-4.1-6-8.2-5.2-10.7.5-1.4 4.3-1.7 4.3-.4 0 .5 1.9 3.2 4.2 6l4.3 5.1h2c1 0 2.5.4 3.2.8s1.6 2 2.2 3.6l1 2.8 2.8-.3 2.8-.4-.3-2.6c-.2-1.5.1-3 .7-3.3.6-.4 1-1.6 1-2.8 0-1.1 1.2-3.6 2.6-5.4l2.6-3.4 3.3 1.4c1.8.8 4.5 1.2 6 1a12 12 0 0 1 5 0l2.6.7.5 2.2.6 2.3 3 1.3c1.6.7 3.7 2.4 4.6 3.8l1.6 2.4-1.8 2c-1 1-2.7 2-3.7 2a3 3 0 0 1-2.6-1.8l-.7-1.8h-6v-8l-5.3-.5c-3-.3-5.5-.3-5.8 0-.2.2-.4 1.4-.4 2.6v2.2l3.1.6c1.8.4 3.8 1.2 4.6 1.8l1.3 1.1-1 1.3-1.2 1.3-4.9-.6c-2.7-.3-5-.3-5 0l1.7 3.6c.8 1.7 2.1 3.1 2.8 3.1.7 0 3.3 1.8 5.8 4l4.6 4 21.3-2.4 1.7 1a17 17 0 0 1 3.5 6.5l1.9 5.4V355l-1.8 6.3c-1 3.5-1.7 8.6-1.6 11.3a23 23 0 0 1-1 7.8l-1 2.7 1 2.8a27 27 0 0 1 1.4 7.2c0 2.5.6 5.5 1.1 6.7l1 2.1-1 8.8-1.1 8.8 2.7 4.1-.5 3.8-.4 3.8 8-4.1 4.2 2.2-.7 2.2-1.6 6.4a30 30 0 0 1-1.4 5.2c-.3.5.7 1.7 2 2.7l2.7 2 1 4.9c.6 2.7 1.1 8 1.3 11.7.1 3.7.5 7 .8 7.3.3.3 1-.3 1.7-1.5 1.2-2.3 3.5-2.8 4.3-.8.3.8.3 2.6 0 4.2l-.6 2.8 3.8-.7 3.8-.7.8 1.3c.5.7.9 2.3.9 3.6v2.3l2.5 1.1c1.4.6 2.5 1.8 2.5 2.5s1.3 2.5 2.9 3.9c1.6 1.3 3.1 3.3 3.4 4.4l.5 2h-1.3c-.8 0-2-1-2.6-2.2l-1.2-2.3-1.3 3a17 17 0 0 0-1.3 4.3v1.3l7.4-.6.3 2.7.3 2.6-2 .7c-1.1.3-3 1.8-4 3.2l-2 2.5-4.6-.7-1 2c-.6 1.1-2 2.2-3.3 2.3l-2.2.4v1.4c0 1.4-1 1.8-4.2 1.5l-1.8-.2v6.1h10.1l-.3 2.3-.3 2.2-7.7.6-3.7-3.3-3.2 1.2 1 2c.6 1 1.1 2.8 1.1 4v2h-1.8c-2.5 0-5-2-5.4-4.5-.2-1-.7-1.9-1-1.7l-5 .2h-4l.7 6.5.7 6.5h-4.9l-1.1-3.9c-.7-2-1.2-4.8-1.2-6V530l5.8-5.9h5.2v-1.3c0-.7 1.6-2.8 3.5-4.7 2-1.8 3.5-4 3.5-4.6s.6-1.6 1.3-2.2l1.4-1.1 1 1c1.3 1.3 9.3 3 9.3 2 0-.4-1-1.8-2.4-3l-2.5-2.3-1.2-7.6 2.5-5.4a25 25 0 0 0 2.6-8.4 13 13 0 0 0-2-5.9l-2-3v7.5a30 30 0 0 1-1 9l-.9 1.4-8.5-.5-4.7-5.4.5-4.5c.3-2.5.2-7.4-.3-11l-.7-6.5-.8 2-1.7 4.4-1 2.3-1.7-.7-7.9-2c-3.4-.7-6.6-1.6-7.2-2-.6-.3-1.1-1.4-1.1-2.3 0-2.1-2-4.5-4.7-6l-2.1-1.1-.7-5-.7-4.9-2-.5a6.1 6.1 0 0 0-3.9.4c-2 1-5 .3-5-1.2 0-.6.6-1.9 1.1-3l1-1.9h9l2.5 1.6c1.4 1 2.3 2 2 2.4-.2.4 0 2.3.6 4.3l1 3.6 6.9 2.5v6.3l3 .1c1.7 0 4 .4 5 .7l2 .7-6.2-6.7.6-6c1.3-13 1.9-16.5 3.2-17.6 1.7-1.4 1.8-5 .2-6.6l-1.1-1.2 1.1-2.6c.7-1.4 1.2-3 1.2-3.5s-1.3-1-3-1h-2.9l-.6 2-.6 2h-5.2l.6-2.8.6-2.9-2-2 1-3.9a38 38 0 0 0 1-4.6c.1-.4-.7-.8-1.7-.8s-2.2 1-2.7 2.3l-1 2.2-4.5.7-.4-1.4c-.3-.7-.7-3-1-5l-.7-3.8h-5v-2.4c0-1.4-.4-2.8-1-3.1-.6-.4-1.7 0-2.5.7-.8.8-1.8 2.8-2.3 4.5l-1 3.1 1.2 1.1c.6.6 1.9 1.1 2.9 1.1h1.7l1.5 3a28 28 0 0 1 2.2 6.9l.6 4-2.7 1.1c-1.5.6-3.1.8-3.7.4a6.7 6.7 0 0 1-1.8-2.7l-.8-2.2-1.5 3.6 1.8 1.9c.9 1 1.5 2.6 1.3 3.6-.2 1-1.5 2.6-3 3.7l-2.7 2-4.2-1.8 3.6-4 .3-5.3.4-5.4-1.1.7c-.6.3-1.1 2.2-1.1 4 0 1.8-.5 3.5-1.1 3.7-.6.2-1.3 2.5-1.6 5l-.6 4.8-2 .6c-1 .3-2 .4-2.3.2-.2-.2 0-4.4.6-9.3l1-9 4.3-4.5h2.9c1.5 0 2.8-.4 2.8-1 0-.5-1-1-2.4-1-1.3 0-3-.7-3.7-1.6-1.4-1.6-2.2-8.6-1.3-11.5l.5-1.7 5.8 1.7 1-1.3c.6-.7.9-1.4.7-1.7-.3-.2-2.6-.2-5.3 0l-5 .3-2.1 5.8h-2c-1 0-2.6-.8-3.6-1.8a7 7 0 0 1-1.6-4V395h1.3c.7 0 1.9.6 2.6 1.3l1.3 1.2.5-1.3c.3-.8 1.4-2.3 2.5-3.4l2-1.9 5.8 1.3.6-1.6c.4-1 .4-2 0-2.2-.2-.3-3.5.5-7.3 1.9s-7.4 2.2-8 2c-.8-.2-1.3-1.3-1.3-2.3v-1.8l-2 .5-2 .6v-3c0-1.5.8-4.2 1.9-5.9l1.9-3-1.5-2.5-1.7 2.5a10 10 0 0 0-1.6 4c0 2.4-2 3-4.5 1.2l-2.4-1.5-.6 2c-.4 1-.1 2.8.5 4l1.2 2.1-2.3 2.3-1.7-1.1c-1-.6-1.9-2-2-3s-1-2.2-1.6-2.6a8 8 0 0 0-3.4-.8H281l1.3 4-5.3 1.3-1.9 5-5-1.3v7.8l-3 2.5 2.2 2.2.7-1c1.2-1.8 4-2.5 6.7-1.5l2.4 1-.5 1.5c-.4.8-1.5 1.5-2.5 1.5s-2 .3-2 .6 1 1.4 2 2.3 2.4 3.2 2.8 5.1l.9 3.5 5.2 2.5.6 4.3.6 4.2-2.1 4.5a35.6 35.6 0 0 1-3.7 6.3c-.8.9-1.6 2.7-1.8 4-.2 1.2-1 5.1-1.9 8.7l-1.4 6.5 1.6 1c2.2 1.4 4.6 3.8 5.8 6l1 1.8 2.3-.7c2.4-.8 3-3.6.7-3.6-2 0-2.9-1.8-1.5-3.5s5.6-2 6.5-.5c.3.6 0 1.3-1 1.6-2 .8-2 2.4 0 2.4 2.2 0 1.8 3.1-.5 3.7-1.1.3-1.8 1-1.5 1.4.3.4 2 .3 4-.2s4-.7 4.5-.4c1.8 1.2 1 2.6-2 3.7-1.7.5-3 1.6-3 2.4 0 2.2-2 2.7-4.6 1-1.4-1-3-1.4-3.4-1-.6.3-1 1.4-1 2.4v1.9l4.5.6v4l-4.5 2v2.3c0 1.2-.4 2.2-.8 2.2s-.8 2.1-1 4.7c0 2.6-.6 5.1-1.2 5.7-.6.6-1 2-1 3.3 0 3.4-2 7-4.1 7.6l-2 .5v3c0 2.9-2.5 8.7-5.2 12-.5.7-1.8 1.2-2.8 1.2-1 0-2.1.5-2.5 1l-.6 1.1 8.7-.6.3-2.1.3-2.2 5.9-2.4V521c0-2.2 2.8-6 4.4-6 .7 0 2.5 1 4 2.2l2.6 2.3 2.8 11-.8.8c-1.2 1.2-3-.2-3-2.4 0-1.1-.3-2-.6-2-1.2 0-3.4 3-3.4 4.5 0 1 .7 2.3 1.5 3.2.8.8 1.5 1.9 1.5 2.4s-1 1.4-2.3 1.8l-2.2.8-4.8-3-12.8-.5-1 2-1.1 2 2.7-.6a9 9 0 0 1 4.6 0c1 .3 1.9 1.2 1.9 2v1.4h-2.4c-3.7 0-5.6 1-5.6 3 0 1-.5 2.2-1 2.5l-1 .6 2.2 3.5 6.5-.8 1.6 2.5-3.8 2.2 10 1 2 12-1.4 3.3c-1.5 3.2-3.4 4.1-4.6 2.2-.8-1.3-2.5-1.3-2.5 0 0 1.6-5.3 8-6.6 8-2 0-4 5.7-5 14.4-.5 4.1-1.6 6.1-4.4 7.6l-1.6.9-2.9-1.8 2.4-2.5 2.4-2.6h-1.6c-.9 0-1.9.5-2.2 1-1 1.6-4.3 1.2-6.5-.7-1.1-1-2-2.5-2-3.5s1.1-2.5 2.6-3.4l2.5-1.7.8 1.2c.4.7.6 2.4.3 3.8l-.5 2.5 1.9-1.2c2.9-1.8 5.3-5.6 6-9.2l.6-3.3-2.7 2.8-2.8 2.9-1.7-1.8 3.5-6.9 4.5.7v-2a5 5 0 0 1 1.2-3.1l1.3-1.3-4.5 1.3v-5l2.2-2c1.3-1 3.7-3.2 5.5-4.8l3.3-3v-4.6l-1.4 1.8c-.7 1-1.9 1.7-2.5 1.7-.6 0-1.1-1.1-1.1-2.5V556l-2.5 1.8c-1.4 1-2.5 2.6-2.5 3.7v1.8l2 .5c3.2.9 1.7 2.8-2.1 2.9h-3.4l-.3 3.2-.4 3.3-1.9 1.2c-1 .7-2 2.1-2 3.2a33 33 0 0 1-5.2 14.3l-2.8 4.3-2 9.1a42.9 42.9 0 0 1-4 12.9c0 .9-.8 2.8-2 4.2l-2 2.5v3.9c0 2-.7 5.6-1.5 7.8s-1.4 6.5-1.4 9.5-.5 7-1 9c-.5 1.8-2 4.4-3.2 5.7-1.2 1.3-3.2 2.3-4.5 2.3s-2.3-.3-2.3-.7zm-27.7-46.6 1.7-3.3-.6-1.8-.7-1.8 2.5-1.5-.7-3.2c-.4-1.7-1.1-3-1.7-3-1.5 0-3.5 5.8-4.3 12.2l-.7 5.7h1.4c.7 0 2.1-1.5 3-3.3zM196 600c0-.5-.5-1-1-1a1 1 0 0 0 0 2c.5 0 1-.4 1-1zm2.6-8.7a1 1 0 0 0-1.3 0c-.4.4 0 .7.7.7s1-.3.6-.7zm3.4-5.8v-1.6l-1 .6c-.6.4-1 1-1 1.6 0 .5.4 1 1 1s1-.8 1-1.6zm62-7.5v-1.5l-1 2c-1.1 2.8-1.1 4.3 0 2.5a6 6 0 0 0 1-3zm-62.3 1.3a1 1 0 0 0-1.3 0c-.4.4 0 .7.7.7s1-.3.6-.7zm73.4-9.2c0-.5-.5-1.2-1-1.6s-1-2.4-1-4.5c0-4.2-1.7-5.5-2.2-1.7l-.3 2.2-2.8 1.3c-3.7 1.8-3.6 3.5.3 3.4l2.7-.6 2.3-.7v1.5c0 1 .4 1.6 1 1.6s1-.4 1-1zm-63.4-6.8c-.3-.3-.6 0-.6.7s.3 1 .6.7c.4-.4.4-1 0-1.4zm39.4-.3c0-.6-.5-1-1-1-.6 0-1 .7-1 1.6v1.5l1-.6c.5-.3 1-1 1-1.5zm3.5-15.9-1-1.4-.7 4c-.3 2-1 5.6-1.2 7.8l-.7 4 2.3-6.5 2.3-6.5zm-36.1 1.8a21 21 0 0 0 1.6-3.7c0-.2-.7 0-1.4.7-.8.7-1.6 2.3-1.9 3.6l-.2 2.5c.2 0 1-1.4 1.9-3.1zm-6.5-.8c.6-1 1-2.4 1-3 0-1.2-4.6-1.5-5.3-.3-.6 1 1.1 5.2 2.3 5.2.5 0 1.5-.9 2-2zm37.6-11.8 2.5-7.8a234 234 0 0 1 8.2-22.4c2-4.3 5-16.8 6.2-27a335 335 0 0 1 2.7-15.9 47.9 47.9 0 0 0 1.5-10.9c-.3-.3-.7 0-1 .8l-1.4 5a67 67 0 0 0-1.8 7.4 335 335 0 0 1-7.3 28.8c-.6 1.6-1.1 4.2-1.1 5.8 0 1.6-1.6 6.9-3.6 11.7-3.3 8-8.4 25-8.4 28 0 .7.4 1.2.9 1.2s1.6-2.1 2.6-4.7zm8.5 1v-2.7l-1.2 1.2c-.6.6-.8 1.8-.5 2.7s.8 1.5 1.1 1.5c.3 0 .6-1.2.6-2.7zm-36.4-11-.7-1.6-2.4 2.4 1.4 1c.8.4 1.7.6 2 .4.1-.2 0-1.2-.3-2.1zm152.4-4.2v-1.6l-1.5 2a7 7 0 0 0-1.5 3.5v1.5l1.5-2a7 7 0 0 0 1.5-3.4zm-106.3 1.3c-.3-.3-1.2-.4-2 0l-1.2.5h1.9c1 0 1.6-.2 1.3-.5zM241.5 504l.8-2.5-1.5 1.5a19.7 19.7 0 0 0-3.7 10c0 .8 1-.3 1.9-2.5 1-2.2 2.1-5.1 2.5-6.5zm26.2 4.4c-.3-.4-.6-.1-.6.6 0 .8.3 1 .6.7.4-.4.4-1 0-1.3zm122.8-4.1a54 54 0 0 0-1-7.3l-.5-1.5-3 5.6.7 2.2c.7 2.2 3.3 6.7 4 6.7l-.2-5.7zm-115 1.7c-.3-.5-1-1-1.5-1-.6 0-.8.5-.4 1 .3.6 1 1 1.6 1s.7-.4.4-1zm121.2-6.2c-.6-3-1.5-6-1.8-6.3-1.2-1.2-.6 10.9.5 12.3 1.9 2.4 2.5-.3 1.3-6zm-118.6-3.7a18 18 0 0 0-3.5-4.6l-3.5-3.9-1.2 1.2-1.1 1.1 1.2 1.6c.7.8 1.9 1.5 2.6 1.5s1.5 1 1.8 2 1.2 2 2 2c1 0 1.7-.4 1.7-.9zm-32.4-6.3-.5-1.3v2c-.1 1 .1 1.6.5 1.3.3-.4.3-1.2 0-2zm133.2-3.1.3-3.9-1.7-1.9c-1-1-2.3-1.9-3-1.9h-1.1l-.6 3.6-.6 3.7 1.7 2.3c1 1.3 2.4 2.3 3.2 2.2l1.5-.3zm-99.3-.7c.3-.5-.1-1.3-1-1.6-2-.7-3 0-2 1.6.8 1.3 2.2 1.3 3 0zm-8-5.7-.6-1.7-1 1.4-.8 1.5 1.1 1.3 1.2 1.4.4-1.1c.2-.6 0-1.9-.3-2.8zm8.3-2.5c0-1.8.1-4.2.3-5.3l.4-2h-3l-.3 4c-.2 2.1 0 4.5.2 5.2 1 2.5 2.4 1.3 2.4-2zm-29.2-3c-.3-.7-.5-.2-.5 1.2s.2 2 .5 1.3.3-1.8 0-2.5zm25.4-8.2c0-.3-.5-.7-1-1-.6-.4-1-.2-1 .4 0 .5.4 1 1 1 .5 0 1-.2 1-.4zm90-11.6c.8-3 1.4-7.7 1.5-10.5 0-2.7.4-6 .8-7.2l.8-2.2-3.1 1.6a9 9 0 0 0-4 3.7 91 91 0 0 0-3 16.4v2.1l2.2 1.6c1.2.8 2.5 1.2 2.8.8.4-.4 1.3-3.3 2-6.3zm-87.4-25.6c-.3-.4-.6-.1-.6.6 0 .8.3 1 .6.7.4-.4.4-1 0-1.3zm52.4-10.9a3 3 0 0 0-1-2l-1-.6v5.2l1-.6c.5-.3 1-1.2 1-2zm26-1.2 3-1.7-.2-3.5c0-2 .2-5 .5-6.6l.7-3-1.5-6c-.9-3.3-1.8-8.4-2.1-11.4l-.6-5.5-2.7-2-2.1-14a275 275 0 0 1-4.1-32.3V327h-5v1.3a130.2 130.2 0 0 1 3.1 15.7l2.5 17.5 4 30.5 2.7 20.5-1.1 1.8c-1.2 1.8-1.5 4.7-.5 4.7.3 0 1.9-.7 3.5-1.7zm-99.5-10.2c-.3-.6-1-1-1.5-1-1.2 0-2.2 2.9-1.4 4.1l.6 1 1.5-1.5c.8-.8 1.2-2 .8-2.6zm12.2 1.7-.6-1.3v2c-.1 1 .1 1.6.5 1.3.3-.4.3-1.2 0-2zm-42.7-1.2c0-.8-.5-1.7-1-2-1.2-.8-2.4 1.1-1.5 2.4.9 1.5 2.5 1.2 2.5-.4zm26-1c0-.9-.7-1.6-1.5-1.6s-1.5.7-1.5 1.5.6 1.5 1.5 1.5 1.5-.6 1.5-1.5zm68.6-1-.5-1.5-1.6.6-1.6.6 1.8 1.3c1 .7 2 1.1 2.2.9.2-.2 0-1-.3-2zm-85.1-1c1.5-.8 3.3-1.2 4-.9 2.3.9 1.7-1.5-.6-2.7l-2.1-1.1-1.7 1.4c-.9.8-2.4 1.7-3.4 2-2 .8-2.3 2.7-.4 2.7.8 0 2.7-.6 4.2-1.4zm113-4.3c-.3-2.6-1.1-8-1.8-11.8a56 56 0 0 1-.9-7.8c.1-.4-.3-3.5-.8-7-1-5.8-2.6-18-3.5-27.2l-1.6-10.7-1-6.8h-1.3c-1.6 0-5.5 3-4 3 1.4 0 3.2 8.2 4.4 20.1 2.3 22 4 35.7 5.2 44.1l1.1 7.7 1.6.5 2.4.5c.4.1.5-2 .2-4.6zm-100.4 3 .4-3.5.3-2.8h-3.8v7h1.5c.8 0 1.5-.3 1.6-.7zm15.3-2.9c3-1.1 1.5-2.4-3-2.4-4.1 0-5.4.8-3.8 2.4.9.8 4.7.8 6.8 0zM244 396c0-.5-.5-1-1-1a1 1 0 0 0-1 1c0 .6.4 1 1 1 .5 0 1-.4 1-1zm11-.5c.7-.8 1-1.8.7-2.1-1-1-3.7.5-3.7 2.1 0 .8.4 1.5.8 1.5.5 0 1.5-.7 2.2-1.5zm-32.5-.4c-.3-.6-1.3-.7-2-.4s-1.5.7-1.5 1c0 .2.9.3 2 .3h2zm118-1.3a621.7 621.7 0 0 1-7-54l-.8-7.8h-1c-2.7 0-10.4 3.4-13.5 5.7a16.8 16.8 0 0 0-4.4 4.9l-1.1 2.4 1.1 5.7a863 863 0 0 1 2.8 15.6c.9 5.4 2 10 2.5 10.3.5.3 1.2-.2 1.5-1.1.4-1 0-9-1-17.7l-1.8-16 1-1 .9-.8 1.2 1.4a43 43 0 0 1 2.1 11.3c2 20.3 2.8 26 4 30.6a15 15 0 0 0 2.1 5.3c.5.3.9-.5.9-1.8 0-4.5-4-45.3-4.6-47.5l-.6-2.2 3.5-1.4 2.7 3.7v6c0 3.4.9 15.1 2 26.1l2 21.3c0 .7 1 1.7 2.2 2.2 1.3.5 2.7 1 3.2 1 .4 0 .5-1 .2-2.2zM247 390c0-1.2-5-4.4-5.6-3.7-.8.7 3.9 5.7 4.8 5 .4-.2.8-.8.8-1.3zm65-2.9c0-1-4-2.2-5.3-1.4l-1 .6 1.4.8c1.8 1.2 4.9 1.2 4.9 0zm6-1c0-.6-.5-1-1-1s-.9.4-.5 1c.3.5.8 1 1 1s.5-.5.5-1zm-6-5v-2h-1.5c-.8 0-1.5.6-1.5 1.3 0 1.2.8 2 2.7 2.6.2 0 .3-.9.3-2zm-11.9-12.2c-3-3.2-4.7-3.5-3.6-.7.5 1.3 3.8 3.4 5.8 3.7.5 0-.5-1.3-2.2-3zm58-9.7a17 17 0 0 1-1.1-6c0-2.1-.4-6.3-1-9.2-.5-3-1.2-8-1.5-11.1l-.6-5.7-3.1-1.2.6 6.8c.4 3.7 1.6 12.3 2.6 19 1.1 6.8 2 13.8 2 15.6 0 5.5 1.4 5.2 2.3-.5l.8-5.4zm-45.1 9.6a6 6 0 0 0-.9-2.6l-.8-1.3-.7 1.6c-.3 1-.4 2.1 0 2.6.8 1.4 2.4 1.1 2.4-.3zm-20.5-4.6c0-1.8-2-1.5-2.4.4l-.3 1.7 1.3-.5c.8-.2 1.4-1 1.4-1.6zm18.5-4.4v-3.2l-3.4 3.3 1.3 1.6c.7.8 1.5 1.5 1.7 1.5.2 0 .4-1.4.4-3.2zm-38.7-5.3 2.2-.8-3.9-.4a14 14 0 0 0-4.3 0c-.2.3.1 1.8.7 3.3l1.2 3 1-2.2a7 7 0 0 1 3.1-3zm17.2 3.5c.3-.5.1-1-.5-1s-1 .5-1 1 .2 1 .4 1c.3 0 .7-.4 1-1zm72-20c-.9-5.7-2-10.9-2.6-11.4l-.9-1 .4 5c1 10.3 2.5 26 2.7 26.4 0 .3.6-1.5 1.1-4l1-4.5zm-61.9 14c.7-3.2 4.1-7.3 8.4-10.1 1.4-1 2.2-2 1.9-2.3-.4-.4-2.8-.1-5.4.5l-4.7 1.2-1.3 2.1a15 15 0 0 0-1.5 6.1c-.1 2.2-.2 4.4-.1 4.8 0 .4.5.7 1.1.7s1.3-1.3 1.6-3zm-37.6.5V351l-6.5.1 2.5 1.4c1.3.8 2.8 1.5 3.2 1.5.4 0 .8-.6.8-1.5zm44 1c0-.1-.5-.7-1.2-1l-1.1-.8.7 1.2c.7 1.1 1.6 1.5 1.6.7zm-31-5.5c0-.5-.5-1-1-1s-1.2.5-1.5 1l-.7 1h1.6c.9 0 1.6-.4 1.6-1zm-15.1-3.6c-1.4-1.6-5.5-1.8-6.5-.3-.4.7-.2 1.5.5 1.9.6.4 2.5.5 4.1.2l3-.4zm4.8-4.6c-.6-1.8-2.7-2.1-2.7-.3 0 .8.7 1.5 1.5 1.5s1.5-.5 1.2-1.2zM296 337c0-.5-.5-1-1-1a1 1 0 0 0-1 1c0 .6.4 1 1 1 .5 0 1-.4 1-1zm-49.8-2.6c3-.9 2-2.4-1.7-2.4h-3.4l-1.6 1.6c-.8.9-1.5 1.8-1.5 2 0 .6 4.4-.1 8.2-1.2zm18.3-.4c-.4-.5-1.3-1-2.2-1s-1.2.5-.8 1c.3.6 1.3 1 2 1 1 0 1.3-.4 1-1zm2.5-7c0-.5-.7-1-1.6-1H264l.7 1c.3.6 1 1 1.5 1s1-.4 1-1zm-24.8-8.2c.6-1.6-.2-3.8-1.3-3.8-.5 0-1 1.2-1 2.5 0 2.6 1.5 3.5 2.3 1.3zm-16.5-24.2-2.2-3.5-.4 1.5c-.2.9.5 2.5 1.4 3.5 2.9 3.2 3.6 2.2 1.2-1.5zm-18.2-2.6c1-2.2 1.4-4.3 1-4.7-.5-.4-1-.2-1.3.5-.2.6-1.5 2.8-2.8 4.7L202 296h3.6zm14.5-3.9c0-.4-1.3-2-3-3.5l-2.8-2.7-2.8.3c-1.5.2-3 1-3.3 1.7l-.4 1.4 7.3-1.4v5.9l2.5-.5c1.3-.3 2.5-.8 2.5-1.2zm-69-8a1 1 0 0 0-2 0c0 .6.4 1 1 1s1-.5 1-1zm-59-1.7v-1.6l-1.6 1.2c-.8.7-1.5 1.5-1.5 1.7 0 .2.7.3 1.5.3s1.5-.7 1.5-1.6zm5.4-4.4c-.3-.5-1-1-1.5-1a1 1 0 0 0-1 1c0 .6.7 1 1.6 1h1.5zm-7-1c.4-.5.2-1-.4-1s-1 .5-1 1c0 .6.1 1 .4 1s.7-.4 1-1zm85.4-2.4 1.4-2.9-1.6-1.2c-1-.6-1.7-1.7-1.7-2.4V263l-1.5 1.5c-.8.8-1.5 1.8-1.5 2.2s.7.4 1.6 0l1.6-.5-.7 2.2-1.1 4.1-.6 1.9 1.4-.5c.7-.2 2-1.7 2.7-3.2zm-8.9-1.1c0-.8-.6-1.5-1.5-1.5-1.5 0-2 2.2-.8 3.3 1 1 2.3-.1 2.3-1.8zm28.6 1c-2.2-1.7-3.6-1.9-3.6-.5 0 1 1.8 1.9 4 2h1.5l-1.9-1.5zm-11.9-1.1a1 1 0 0 0-1.3 0c-.4.3 0 .6.6.6.8 0 1-.3.7-.6zM163 264c0-.5-.2-1-.4-1s-.7.5-1 1c-.4.6-.2 1 .4 1 .6 0 1-.4 1-1zm9.6-3.4 2-1.4-1.1-1.8c-1.3-2-4.2-4-4.9-3.3-.7.7.5 8 1.4 8 .4 0 1.5-.7 2.6-1.5zm-12.2-4c-.3-.9-.8-1.6-1-1.6-.2 0-.4 1-.4 2.1v2l1-.5c.5-.4.7-1.3.4-2zm3.6-8.9c0-2.8-.4-6-.9-7.1l-.7-2-.7 6.8c-.4 3.7-.5 7.2-.1 7.7 1.3 2.1 2.4-.4 2.4-5.4zm6 .3c0-.5-.4-1-1-1s-1 .7-1 1.6v1.6l1-.7c.6-.3 1-1 1-1.5zm-11-16.7.3-2.3h-3l-.4 2.6-.5 2.5 1.6-.3c1-.1 1.8-1.3 2-2.5zm-6.2 0a1 1 0 0 0-1.3 0c-.4.4-.1.7.6.7.8 0 1-.3.7-.6zm13.3.3c0-.2-.4-.7-1-1s-1-.2-1 .4c0 .6.5 1 1 1s1-.2 1-.4zm-11.6-5c.3-.8.1-1.8-.4-2l-1-.7v2c0 1.2.2 2.1.4 2.1s.7-.6 1-1.4zm-9.4-18.7c0-1.7 1.1-2.3 3.3-2 1.4.3.7-1.4-1.8-3.7-1.4-1.3-2.5-3.2-2.5-4.3 0-1-.4-1.9-.9-1.9-2 0-4 1.4-4 2.7v1.4l3.4-.6.4 3.4c.1 1.9-.2 3.9-.8 4.5-.6.6-1 2.2-1 3.5v2.5l2-1.9c1-1 2-2.6 2-3.6zm9.7-4.5a1 1 0 0 0-1.3 0c-.4.3-.1.6.6.6.8 0 1-.3.7-.6zm-2-8c-.4-.8-.7-2.2-.7-3 0-2.1-1.7-1.6-2.5.8l-.7 2.1 1.4.9c2 1.3 3.1 1 2.4-.7zm-4.7-20.2c0-.5-.6-1.5-1.5-2.2l-1.5-1.2v4.2h1.5c.9 0 1.5-.3 1.5-.8zM88 156c.7-1.7 1-3.3.7-3.7-.3-.3-1.4.2-2.4 1.1l-1.9 1.7-1.6-.6c-1-.4-1.7-.4-1.7 0 0 .6 4.2 4.6 5 4.6.3 0 1.1-1.4 1.9-3.1zm24.9-7.1 1.2-1.2 2.5 1.2c1.4.6 2.5.7 2.5.3s-1.1-1.3-2.5-2c-1.4-.6-2.8-1.8-3.1-2.6-.3-.9-1.4-1.5-2.5-1.5h-2v1.9c0 1-.3 2.6-.6 3.5l-.6 1.6h2a5 5 0 0 0 3-1.2zm-4.8-27.3c0-.2-.4-.7-1-1-.5-.4-1-.2-1 .4 0 .6.5 1 1 1 .6 0 1-.1 1-.4zm-41.5-3.5.6-1h-2c-1.2 0-2 .4-2 1 0 .5.6 1 1.4 1 .7 0 1.7-.5 2-1zm38.5-17c0-.6-.2-1-.4-1-.3 0-.7.4-1 1-.4.5-.2 1 .4 1s1-.5 1-1zm-9.3-5.2-.5-1.3-.1 1.9c0 1 .2 1.6.5 1.3.4-.3.4-1.2.1-2zm-15.9-1.2.4-1.6H76v1.3c0 3 3.3 3.3 3.8.3zm1.7-5.6c-.3-.6-1-1-1.5-1s-1 .4-1 1 .7 1 1.6 1H82zm-9.2-14.7c1-1-.3-2.3-1.8-1.7-.8.3-1.2 1-1 1.5.7 1 2 1.1 2.8.2zm-4.6-6c-.4-.4-.7 0-.7.7s.3 1 .7.6c.3-.3.3-1 0-1.3zm-5-2.1c-.9-1-2-2.9-2.5-4.3l-1-2.4-1.4 3.5 2.4 2.4c2.6 2.8 5 3.5 2.5.8zm3.3-2.8v-1.6l-1 .7c-.6.3-.8 1-.4 1.5.8 1.4 1.4 1.2 1.4-.6zm-8-9.1c0-2.2-2.4-1.5-3.6 1.1L53.2 58l1.2.4c1.3.5 3.6-2 3.6-4zM44 41c0-.6-.7-1-1.5-1s-1.5.4-1.5 1 .7 1 1.5 1 1.5-.5 1.5-1zm-12-.8c0-.4-.8-1.3-1.9-2l-1.9-1.1.5 2c.3 1 1.2 1.9 2 1.9.7 0 1.3-.4 1.3-.8zm-4.4-12.8c-2-1.5-3.2-1.3-2.1.5.3.6 1.4 1 2.3 1h1.7zM19 20.1h1.2l-2.5-3-1.3 1a5 5 0 0 0-1.4 3.3v2.2l1.4-1.8c.7-1 1.9-1.7 2.6-1.7zM13.4 8.6c-.4-.9-1-1.5-1.5-1.5s-.6.6-.3 1.5c.4.8 1 1.5 1.5 1.5.4 0 .6-.7.3-1.5zM215 650a7.2 7.2 0 0 1-2-4.2v-2l1.7.3c1 .2 2.4 1.5 3.2 3l1.5 2.7-1.1 1.2-1.2 1.1zm227.6.6-1.9-1.4.7-3.6.7-3.7h-2.4c-1.4 0-2.7-.6-3-1.3-.3-.7 1.3-4.7 3.4-8.7 2.2-4.1 4-8 4-8.7 0-1.8 3.6-1.6 4.3.3l.6 1.6-3 5.3c-1.5 3-2.6 5.6-2.2 6 .8.7 6.2-4.5 6.2-6 0-.7.7-1.8 1.5-2.5l1.5-1.2 1.6 1.3a32.6 32.6 0 0 1 6.4 14.3v2.6h-4.8l-.6-1.6a16 16 0 0 1-.6-4.4c0-1.6-.4-3.1-1-3.5l-1-.6-.9 2.3c-.5 1.3-1.6 3-2.5 3.8l-1.7 1.3.6 2.8.6 2.8-1 2c-.7 1.2-1.7 2.1-2.4 2.1s-2.1-.6-3.1-1.3zm79.9-5.1L521 643l.6-2 .7-2h4.3l1.4 3c.7 1.6 1 3.6.8 4.4s-1.5 1.5-2.6 1.5h-2zm-283.9-10.3c-1.4-1.4-.5-6.5 2.2-12.2 1.6-3.3 4-7 5.5-8.5 1.4-1.4 2.8-3.4 3.1-4.6l.7-2h4.7l3.4-3.5c2-1.9 3.8-3.1 4.1-2.8 1 1 .8 5.1-.3 5.8-.6.4-1 1.5-1 2.6s-.4 2-1 2c-.4 0-1.6 1.5-2.5 3.5l-1.7 3.5-1.7-.3c-1.7-.4-1.8-1-.6-4.2l.8-1.8-2 1c-1 .6-3.3 3.9-5.2 7.4a29.4 29.4 0 0 0-3.1 7.3c.1.6-.4 2.5-1.1 4.3-1.3 3-2.8 4-4.3 2.5zm448-1.3-5.8-1.5c-1.5-.3-4.2-1.9-6.1-3.5l-3.5-3-.6 4.5-7.2.6-1.3-1.5-1.3-1.6h-7.6l-2 3.5-2.4-2.4 1.3-3 1.2-3.1 4.5-1.1 4.7 2.1c2.6 1.2 5.7 2 6.9 1.8l2.2-.4-4.8-2.4c-2.6-1.3-4.7-3-4.7-3.6 0-.7-.6-1.6-1.3-2a69 69 0 0 0-19-1.3h-5.7l-3-1.7c-3.1-1.9-4.4-4-3.5-5.5.8-1.3 3.9-1.1 5.3.3.6.7 4.2 1.5 8 2s7.6 1 8.7 1.4l2 .8-1.9-2.2c-1-1.1-4.4-2.8-7.5-3.7-3-.9-7.3-2-9.2-2.7l-3.6-1-5.7 3-2.3-1c-2.4-1.1-3.7-3.4-2.7-5l.6-1 7.8 1.4v-1c0-.5-1.6-2-3.6-3L620 595l.3-1.7c.2-.9.9-1.8 1.5-2 .6-.2 1.7.2 2.5 1a17 17 0 0 0 11 3.7c2.3 0 6.3.8 9 1.8l4.9 1.7v4.1l3 2.2c1.6 1.2 3.3 2.2 3.9 2.2 1.7 0 4 3.1 4 5.4v2.3l4 1.2c2 .6 4.1 1.1 4.5 1.1.3 0-.3-1-1.4-2.2-1.1-1.2-2-2.5-2-3 0-1.2 2-2 3.2-1.1.7.4 2.4.9 3.8 1 3.7.2 8 2 8.6 3.8a4 4 0 0 1-.5 3l-1.2 1.3-4-.5-4-.5v1c0 .7.6 1.2 1.3 1.2.7 0 2.4 1 3.8 2s3.9 2 5.6 2c3.4 0 8.5 2.2 10.4 4.5 1.4 1.7.6 4.6-1.2 4.4-.7 0-2.7-.5-4.3-1zm-45-32c-.4-.5-1.2-1-1.8-1h-1.2l1.5 1c.8.6 1.6 1 1.8 1 .1 0 0-.4-.3-1zm-211 29c-1-1-1.6-2.7-1.4-3.7l.4-1.8 5.4.6 2-4.5c1-2.5 2.3-4.6 2.8-4.6.4 0 1.3.5 1.9 1.1l1 1-1 3.7c-1 3.9-6.2 10.2-8.2 10.2-.7 0-2-.9-3-2zm29.8-1.5c-.8-2.1 1.8-9.6 3.8-10.9l1.8-1 1.2 1.2 1.2 1.2-1.7 5.5-1.8 5.5h-2c-1 0-2.2-.7-2.5-1.5zm-203.8-2.2c-1.2-1.2-.6-4 1.2-5.7 1-1 2.2-3.5 2.6-5.6l.6-4h1.6c1.7 0 5.4 3.6 5.4 5.2 0 1.2-5 7.9-7 9.5-1.7 1.4-3.4 1.6-4.4.6zm384.5-2-2.4-2 .7-1.6c.3-1 1.4-1.7 2.4-1.7s2.6.7 3.6 1.5l1.8 1.4-.3 1.8c-.2 1-1 2-2 2.1-.8.2-2.6-.5-3.8-1.6zm-20-1.3a58 58 0 0 0-9.8-.9h-7.2l-2.1-4h-4.2c-2.3 0-6-.6-8-1.2l-3.9-1 .3-2.2.4-2.2 6.8-.2c3.7-.2 7.7.2 8.7.8 1 .5 2 1.8 2 2.9v1.8h6.7c3.7-.1 8.8.2 11.3.8l4.5 1 .6 5.4h-1.8c-1-.1-3-.5-4.3-1zm65-1.3a9.1 9.1 0 0 0-2.4-3.6c-1.8-1.5-1.3-3 1-3 1.5 0 3.8 3 4.8 6.7l.7 2.2h-1.6c-.8 0-2-1-2.4-2.3zm-164.5-1c-1.1-.6-4-2.9-6.4-4.9l-4.4-3.7-4.2.4-.4-1.9-.4-1.9 4.1 1.1.6-1.5.5-1.8c0-.1-1-.5-2.4-.9l-2.4-.6-.7-3a8.7 8.7 0 0 1 0-4c1.2-1.9 4.4-1 7 2 1.4 1.8 2.5 4 2.5 5s.7 2 1.6 2.4c.8.3 2.4 2.2 3.6 4 1.1 2 2.7 3.6 3.5 3.6.8 0 2.8.7 4.4 1.5l3 1.6v4l-3.8-.1c-2 0-4.7-.6-5.7-1.3zm-72.1-2-1.7-1.4 3.4-5.2-1.6-3.2c-.9-1.8-1.6-3.8-1.6-4.5V604h2.5c1.3 0 2.7.5 3 1 1 1.6 1.6 9.2 1 12.2-.4 1.4-1.2 2.9-2 3.2-.7.2-2 0-3-.8zm-14.4-4.3v-1.9l.6 1.3c.3.8.2 1.6 0 2-.4.3-.7-.3-.6-1.4zm63-2V610l4.4.6.3 3.3.4 3.2H498zm-57.9-.3c-.6-.3-1.4-2.5-1.8-4.8l-.6-4.2 3-2.8c1.8-1.5 3.2-3.5 3.2-4.4 0-.9.7-2.2 1.5-2.8l1.4-1.2 2 .6c1.2.4 2.1 1.2 2.1 2 0 2.2-2.7 6.6-5 8.2l-2 1.5.5 1.9c1.3 3.8-1.5 7.7-4.3 6zm-12.6-1.6a5 5 0 0 1 0-3l.7-1.6 4.2.6.6 5.5h-4.9l-.6-1.5zM277 610.3l.1-2.6a8 8 0 0 0-1.3-4.2l-1.6-2.4.1-7.3.1-7.3 1.4-3.5a20 20 0 0 1 9.3-9.5c1.1-.3 2.9-.1 4 .5 1 .5 2.4 1 3 1h1l-.2-4-.2-4.2 5.5-4.2 3 1.8c1.6 1 3.4 1.5 4 1.1s1-1.4 1-2.4 1.2-3 2.6-4.4l2.6-2.7h3.9c2 0 4 .5 4.5 1.2l.7 1.1-1.7 1.2c-.9.7-1.6 2-1.6 2.8v1.6l-7.5.6-.3 3.5c-.2 2-.7 3.9-1.1 4.3-.4.4-2-.4-3.5-1.8-1.5-1.3-3.4-2.5-4.2-2.5-1.5 0-3.8 3.2-4.9 6.7l-.6 2 3.4 1.4.8-1.3c.5-.7.8-2.3.9-3.5 0-1.2.4-2.5 1-2.8.6-.4 1.7-.1 2.5.6l1.5 1.2v6.6l-2 .6c-1.1.4-2.4.4-3 0-.5-.2-1 .5-1.2 1.7-.2 1.2-.9 2.3-1.5 2.5-.6.3-2.2-.7-3.5-2a12.3 12.3 0 0 0-5-3l-2.6-.7-7.3 6.7v8.2l-.2 8.1 1 1.3c1 1.2 1.6 3.8 1.4 7l-.1 1.7h-2c-1.1 0-2-.3-2.2-.7zm184.9-3c-.4-.3-.7-1.2-.7-2 0-.7 1-1.3 2-1.3h2v4h-1.3c-.8 0-1.7-.3-2-.6zm30.3-1c-2-.8-2.9-2.3-2.2-4l.5-1.5 11.7.8 1.4 2c.8 1 1.2 2.2 1 2.7a32 32 0 0 1-12.4 0zm-77-3c-3.5-.7-7-1.8-7.6-2.4-.8-.6-1.6-2.6-2-4.4l-.6-3.4-2.2-1.4c-1.3-.8-3.3-1.7-4.7-1.8l-2.4-.4-.3-1.8c-.2-1 .2-2.4.8-3.2.7-.8 2.2-1.5 3.4-1.5 1.1 0 3.4.7 5 1.5a13 13 0 0 0 4.5 1.5h1.7l1.4 6.4 1.3 6.3 4.7-1 .6 1.7c.3.9 1.2 1.6 1.9 1.6s1.5-1 1.9-2.2l.6-2.3-1.6-1.1c-.8-.7-2.3-1-3.4-.7l-1.8.5-1.2-2.1-1-2.1 2-.8c1.2-.4 4-.5 6.3-.2l4.2.5.9 4.5.8 4.5-2.1 5.5-2.3-.1c-1.3 0-5.2-.8-8.7-1.5zm176-.2-3.5-.6v-4l8-.6 3.9 2.8-.7 1.7c-.6 1.7-1.7 1.8-7.7.7zm-309.5-8c-.7-2.2.7-6.2 2.8-8l1.6-1.3 10.2 1.4-.3 1.6c-.2 1-1.7 2.1-3.3 2.7l-2.9 1-.4-1.2c-.8-2.4-2.1-1.3-2.8 2.2l-.7 3.5H284c-1 0-2-.8-2.4-1.9zm328.6 1c0-1.2-4.9-4.2-7.4-4.6a19 19 0 0 1-5-1.4c-1.5-.6-4.7-1-7-1h-4.3l-4.1-2a19 19 0 0 0-5.2-2c-.6 0-1-1.2-1-2.5v-2.4l3.2-1.2 5 2.5c2.9 1.4 5.9 2.5 6.7 2.5a60 60 0 0 1 25.2 9.5c.4.5.3 1.5-.3 2.2-1.2 1.5-5.8 1.8-5.8.4zM507.9 588l-3.8-3.1V580h2.4a7 7 0 0 1 4.1 2c1 1.1 2.6 2 3.5 2 2.2 0 4 2 4 4.2v1.8h-1.9c-1 0-2.5.2-3.2.5-.8.3-3-.8-5.1-2.5zm106.2 2c-1.4-.4-3.6-1.5-4.7-2.5a53.3 53.3 0 0 0-16.4-7c-1.5-.2-3.7-.9-5-1.5-3.1-1.6-6.8-6-6.8-8.2V569h1.9c1 0 2.6.7 3.4 1.5s2.1 1.5 2.9 1.5c.7 0 1.9-.5 2.5-1.1l1.2-1.2 3.9 1.2c2.1.6 5 1.1 6.4 1.1 1.4 0 3 .7 3.8 1.5s2 1.5 3 1.5c2.5 0 9.4 6.8 10.2 10 .7 2.7-.7 6-2.5 6a24 24 0 0 1-3.8-1zm1-5.5c-.6-.8-1.6-1.5-2-1.5s-.6.7-.3 1.5 1.3 1.5 2 1.5h1.6zm-7-3.3c0-1.7-3.5-4-7-4.5-1.9-.3-4.5-.9-5.7-1.3s-2.2-.2-2.2.3c0 .4 3 2 6.7 3.5s7.1 2.7 7.5 2.8c.4 0 .8-.4.8-.8zm-228 6.1c-3.1-1.2-7-4.5-8.2-7-.7-1.4-1.8-2.8-2.5-3-.6-.2-1.3.4-1.5 1.4l-.3 1.8-2.3-2.3c-1.3-1.3-2.1-2.8-2-3.5.3-.6 1.5-1.1 2.7-1.1h2.1V570c0-2 .4-4 .9-4.3.5-.3 3-.3 5.5 0l4.7.7 1.4 3.5c.8 1.9 1.5 4.3 1.5 5.3s-1 2.5-2.1 3.3l-2.1 1.5 3.5 2.3c2 1.3 3.8 3.1 4 4l.5 1.8h-2.1c-1.2-.1-2.9-.4-3.7-.7zm-3.2-14 .3-2.3h-2c-1 0-2.3.5-2.6 1-.4.6-.4 1.8 0 2.6l.5 1.6 1.7-.4 1.8-.3.3-2.2zm-70.8 4.4c0-1.5 10.2-11.5 14.3-14l2.8-1.8 2 .6c1 .4 1.9 1.3 1.9 2 0 2-6.5 8.5-8.4 8.5-.9 0-1.6.7-1.6 1.5v1.5l-3.6 1.5c-2 .8-4.5 1.5-5.5 1.5s-2-.6-2-1.3zm112-2.2c-.7-.8-2.6-1.5-4.2-1.5h-3l.4-1.7.3-1.8 4.5-.6v3.2l3-2.2c1.7-1.3 3-2.8 3-3.5s1-1.5 2.1-2l2.2-.6.8 1.4c1.3 2 0 7-2.3 9-1 1-2.8 1.8-3.8 1.8s-2.3-.7-3-1.5zM569 570l-3.7-3-11.4-2-2-1.8c-1.2-1-4.2-2.4-6.7-3.2-2.4-.7-4.9-1.7-5.4-2.2-.5-.4-2.2-.8-3.7-.8s-3-.4-3.4-1c-.3-.5-2.7-1-5.4-1h-4.8l-1.2-1.4c-.7-.8-1-2.3-.9-3.3a3 3 0 0 1 2.3-2.1c1.9-.4 8.6 1.3 11.8 3 1 .4 2.6.8 3.7.8 1 0 2.2.5 2.5 1 .4.6 2 1 3.5 1s4.4.7 6.3 1.5l3.5 1.5 9.8-1.2 10.5 3.1v-.9c0-1.9-4.9-3.3-13.6-4-4.9-.5-9.6-1.1-10.5-1.4-.8-.4-2-1.6-2.5-2.8l-1-2.2-3.4-.7c-2-.4-4-1.5-4.7-2.5-.8-1-3-2.4-5.1-3.2-2-.7-6.5-1.6-9.8-1.8l-6-.5-1.8-1.8-2-1.9.8-1c.3-.7 1.3-1.2 2.1-1.2.9 0 2.8.7 4.4 1.5l2.8 1.5 1.1-2.8-8-5.3-2.5 3.4-2.4-1.6a60.9 60.9 0 0 0-18.8-4.4l-4.3-.5-.6-1.4c-.3-.8.3-2.4 1.3-3.5l2-2 3.1.5c1.8.2 4.6 1.5 6.2 2.7l3 2.2 7.3-1.4 3 2.5.8-1.3c.8-1.3 4.4-3.6 7.3-4.7 1-.3 1.7-1.2 1.7-2V515h-2.4c-1.4 0-4.1 1.1-6.2 2.5-2 1.4-4.7 2.5-6 2.5H507l-1.7-3.5-1.7-3.5-2.2-.6a7.6 7.6 0 0 1-3.5-2l-.9-1.4 1.1-1.4 1.2-1.4 4 1 .5-1.6c.4-.8 1.4-1.6 2.4-1.6s3.3.7 5.2 1.4a31 31 0 0 0 7.7 1.8l4.5.3.3-1.1c.5-1.2-2.7-2.3-6.8-2.4a39 39 0 0 1-8.8-1.9l-6-1.9-.6 1c-.3.4-1.2.8-2 .8-1.5 0-7.3-3.6-11.8-7.4l-2.9-2.4-5.6-.7c-3.1-.4-7.1-1.3-8.9-2-1.8-.7-4.2-2.3-5.4-3.4-1.3-1.1-3-2-4-2s-2-.5-2.3-1c-.3-.5-2-1.2-3.6-1.6l-3-.6V477h1.8a48 48 0 0 1 17.7 7.6c.6.7 4 1.8 7.5 2.4l6.5 1 1-1c.5-.5 2.9-1 5.2-1h4.3v-1.2c0-2.2-4.3-4.3-10.5-5a94 94 0 0 1-10-1.5l-4-.8v-9l-2.4-2.1a25 25 0 0 0-8.5-3.9c-3.3-1-7.8-2.6-9.8-3.6-2-1-4.5-3.1-5.5-4.6-3.2-5-7.7-9-13.7-11.9a23.3 23.3 0 0 1-7-4.6l-1-1.7 2.1-2.2 7.6 1.4 21.2 20.8 2.5.5c1.4.3 3.6 1 4.8 1.5 1.3.5 3 1 4 1 1.9 0 7.2 4.3 7.2 5.8 0 .5 1.4 2 3 3.3s3 2.9 3 3.5 1 2 2.2 2.8l2.3 1.5h4.2c2.3 0 5.2.4 6.5 1 3.6 1.3 6.9 4.9 7.5 8.2l.6 3 2.4 1c1.3.7 2.3 1.5 2.3 2 0 .4.8.8 1.8.8s2.3.4 2.8 1c.5.5 2.3 1 4 1.2l3 .3-.2 2.6-.2 2.7 10.3 1.2 1.3 1.7a7 7 0 0 1 1.2 3.5v1.9l-2.5 1.1c-2.4 1.1-3.4 2.8-1.5 2.8.6 0 1.7 1 2.5 2.4l1.6 2.4-1 2.4c-.5 1.4-.5 3-.1 3.7l.7 1.2 4.8-1 6 4.9-1.2 2c-1.7 2.7-1.6 7.5.2 9a12 12 0 0 0 5.3 1.5c2 .1 5 .7 6.4 1.3l2.6 1 1.2 5 7.3 1.2c7.5 1.1 15.2 4.3 16.1 6.5.3.8 2.1 2.1 4 3 2 1 4.8 2.8 6.2 4.2l2.7 2.5-3 3-2.9-1.6-6.8-4-4-2.4-2 1.7-6.8-1.3c-6.9-1.3-8.4-.4-2.2 1.3 1.9.5 5.5 2.2 8 3.8l4.4 2.8-.2 2-.2 2-4 .6zm-37.8-38v-2.1l-1 .6a3 3 0 0 0-1 2c0 .9.5 1.5 1 1.5.6 0 1-.9 1-2zm2.7-2.6a1 1 0 0 0-1.3 0c-.4.3 0 .6.6.6.8 0 1-.3.7-.6zM514.6 515c.7-1.1-6-6.4-7.4-6l-1 .4 4.1 6.5h1.9c1 0 2-.4 2.4-1zm-16.5-21.5c0-.3-.4-.7-1-1s-1-.2-1 .4.5 1 1 1 1-.2 1-.4zm-2 76a334 334 0 0 0-6.6-6.4l-5.2-4.9-2.1-7.7.9-1c.5-.4 1.5-.6 2.2-.3.8.2 2 1.8 2.8 3.4A34 34 0 0 0 498 564l2.6 1.6v4.8l-1.5.3a4 4 0 0 1-3-1.3zm-118.6-10.4-4-3.7.4-2c.1-1.3 1.4-2.7 2.7-3.3 1.4-.6 2.5-1.8 2.5-2.5 0-.8 1-2.2 2-3.2l2.1-1.9 3.4 2.2-.3 1.9c-.6 2.8-1 7.5-1.1 11l-.1 3.3-3.7 2-4-3.8zm3.6-3.7c0-.8-.5-1.5-1-1.5-.6 0-1 .7-1 1.5s.4 1.5 1 1.5c.5 0 1-.7 1-1.5zm10.5 6.3a22 22 0 0 1 .3-6.3l.7-5 1.9-.3c4-.8 4.8 5.3 1.4 9.9-1.2 1.6-2.6 3-3 3-.5 0-1-.6-1.3-1.3zm-71.8-6.8c-1-1-2.4-2-3.2-2-.8 0-2.1-1-3-2.2-1.8-2.6-2-7.3-.4-8.3l1-.7 5 5.2h5l.5 1.5c.3.9.3 3.1 0 5l-.7 3.5h-1.2c-.7 0-2-.9-3-2zm-39 .4c-1-1-.9-5.2.3-5.9.5-.3 1-1.2 1-2V546h-8.2l.4-1.7.3-1.8h12v5.8l.2 5.8-1.8 1c-2.1 1-3.3 1.2-4.3.3zm349.7-1.5c-.7-.6-3.3-1.5-6-2s-5.3-1.5-5.8-2.2A31.4 31.4 0 0 0 607 544c-.8 0-2.6-1.1-3.8-2.5-1.3-1.4-3-2.5-3.6-2.5s-2.2-.8-3.6-1.8a16 16 0 0 0-5.8-2.5c-7.4-1.2-9.7-2-13.3-5.3-2-1.9-4.4-3.4-5.2-3.4-1.8 0-3.6-3-3.6-6.2v-2.4l-7.6-1.8c-8-1.9-15.2-5.6-17.2-8.7-.6-1-.9-2.5-.5-3.3.3-.9 1.6-1.6 2.8-1.6s3 1 4 2c1 1.1 2.4 2 3 2 .6 0 2.9 1 5 2a21 21 0 0 0 7.8 2h3.8l2.5 2.7c1.4 1.5 2.8 3.8 3.1 5.2.4 1.5 2.6 4.5 5 6.9l4.3 4.2h2.8c4 0 10.5 2 12.4 3.7 1 .8 5.3 3.2 9.7 5.4s8.3 4.3 8.6 4.9c.4.5 3.8 2 7.6 3.1l7 2.1 2.2 4-2.8 2.8-1.1-1zm51.2-3.9a21 21 0 0 0-6.1-1h-4.1l-1.8-2-1.8-2 1.2-1.4 1.2-1.4 13.8-.1.6 1c.3.5 2 1 3.5 1h3v4.8l-2.3.6c-4.4 1.3-5.2 1.4-7.2.5zM295 548l-1.5-.9 1.1-1.1c.6-.6 2.2-1 3.5-.8l2.4.3v1.5c0 1.8-3.4 2.4-5.5 1zm359-2.2c-2.4-.5-5.8-1.3-7.4-1.9l-9-2.7-6-1.7-.7-4.5h1.3c2.6-.3 5.4.2 9.9 1.7 2.4.9 9 2.3 14.5 3.3l10 1.7v4.8l-4 .1c-2.2 0-6-.3-8.5-.8zm-363.4-3.6c-.9-1.4 3.2-5.2 5.5-5.2 1 0 3.7-.8 5.9-1.7l4-1.8 1.1-4.3 6.3-.9 2.7 2.9c1.5 1.5 3.3 2.8 4.1 2.8 2 0 4.1 2.6 3.3 4-.4.6-2.6 1-5 1H314v-2h-11.2l1.2 3.8-3.8.6-6.4 1.2-2.6.6zm35.8-1.2-1.8-2 2-3.5 6.4-.6 1.8 4.6-1.6 1.8c-.8 1-2.3 1.7-3.2 1.7-1 0-2.6-.9-3.6-2zm155.1-8.7-5-2.6-7.8-.3-1-1.5c-.6-.9-.7-2.4-.3-3.3l.6-1.8 2.8.7c1.5.4 5.2 1.8 8.2 3.2 3 1.4 6.6 3 7.8 3.4l2.4 1-.4 1.6c-.1 1-.7 1.8-1.3 2a17 17 0 0 1-6-2.4zm-188.5-3v-5l1.2-1c.7-.6 2.4-1.4 3.8-1.8l2.5-.6 1.7 1.9c1 1 2 3.2 2.3 4.8l.6 3-1.4 1.2c-.8.7-3.5 1.5-6 1.9l-4.7.6zm5.7-.8c.1-1.4-.2-2.5-.7-2.5-.5 0-1.4.9-2 2s-1 2.1-1 2.5.8.5 1.7.5h1.8zm399.9 1.6c-3.3-1.7-7-3-8.2-3-1.2 0-2.5-.5-2.8-1s-.3-1.6 0-2.5l.7-1.6h3c1.6 0 3.8.5 4.8 1s6.6 1.6 12.4 2.2l10.6 1.2v2.2c0 1.3-.4 2.5-.8 2.8-.5.3-3.8.8-7.3 1.1l-6.4.6zm-376 .4c-1-1-1.6-2.3-1.6-3 0-2.1 2.7-1.8 4 .5 1.2 2.4 1.3 4 0 4-.5 0-1.6-.7-2.5-1.5zm337.5-3a209.4 209.4 0 0 0-29.9-13.5 97.6 97.6 0 0 1-12-4.8l-5.4-2.7-2.9-3.6a21 21 0 0 1-2.9-4.3c0-.3.9-.6 2-.6s2.4.7 3.1 1.6a56 56 0 0 0 14.6 7.4c.4 0 1.6.8 2.6 1.7l1.9 1.8 6.6-.6 5 3c2.7 1.7 5.7 3.1 6.6 3.1s1.7.5 1.7 1 1.2 1.3 2.7 1.6 4.3 1.6 6 2.7c1.9 1 5.7 2.5 8.6 3.1l5.2 1.2v4l-9 .5zm102 .4-12-2c-4.7-.6-9-1.5-9.5-1.9-.6-.4-4-1.8-7.5-3s-7.7-3.2-9.2-4.2l-2.8-1.9H712l-14.7.1-10.3.1-4.8.1-4-2.6c-2.2-1.4-4-3-4-3.6 0-.6.6-1.9 1.3-3 .6-1 .9-2.2.5-2.6-.5-.4-4.5-1-9-1.4l-8.2-.5-3.2-1.8c-1.8-.9-3.9-1.7-4.6-1.7s-2.4-1.1-3.7-2.5c-1.3-1.3-3.1-2.5-4-2.5-2.6 0-8.4-2.3-11.6-4.6a17 17 0 0 1-4.3-4.7l-1.3-2.4-7.9-2.4-3.2-5 3.6-3.9h2.8c1.6 0 2.9-.3 2.9-.8 0-1.2-5.2-4.7-8.9-6a25 25 0 0 1-6.8-4.2l-3.4-3h-3c-3 0-3.3-.3-7-5.2L593 448h-6.5l-3.2-6.3c-1.7-3.4-3.2-6.6-3.2-7s-1.1-1.8-2.6-3l-2.6-2 .6-4.7.7-4.7 11-21.7-.6-1.8-.6-1.8 3.6-4a23 23 0 0 0 3.5-4.5c0-.3-1-1-2.5-1.5l-2.5-1v-4.7l4.2-2.8-3-5.8 1-1.8c.4-1 2.4-3 4.4-4.4 1.9-1.5 3.4-3.4 3.4-4.1v-1.5l-2.2.8a30.2 30.2 0 0 1-11.5 0c-.2-.2 0-1.1.3-2l.7-1.7h5.3c3 0 5.6-.4 6-1 .3-.5 2.1-1 4-1h3.4v-5.5l3.1-1.7c1.7-1 4-1.8 5-1.8s2.3-.7 3-1.5l1.3-1.5 5.8 1.2-.3-2.8-.3-2.9 18.5-1.7-.7-2.2-10 .3c-5.4.2-10.4.7-11 1.3s-3 .7-5.1.4l-4-.5-1.1 3c-.6 1.6-1.5 3-2 3-.6 0-1.3.8-1.6 1.8l-.6 1.8-3.7 1a94 94 0 0 1-20.3 3.9c-3.6.3-7.9.9-9.5 1.3l-3 .8v2.1c0 1.2-1.5 3.7-3.2 5.5l-3.3 3.3v2.3c0 1.2-1 3.4-2.5 4.7a25.1 25.1 0 0 0-4 6l-1.4 3.4H549l1.2 1.5c.7.9 1.9 1.5 2.7 1.5s2.1-.9 3-2 2.5-2 3.5-2h1.6l1-3c.7-1.6 1.8-3 2.6-3 .7 0 2-.6 2.6-1.5s2-1.5 3-1.5h1.7l1.2-2.5c.6-1.4 1.1-4 1.1-5.6 0-3.5 3.4-8.9 5.6-8.9h1.4v2.3c0 1.3-.5 2.9-1.1 3.5l-1.2 1.2 2.7 8.2-1.1 3.1c-.6 1.8-1.7 6-2.4 9.2l-1.3 5.9 1.2.4c1.5.5 1.6 3.4.3 4.8-.5.5-1 2.3-1.2 4l-.4 3-2.7 1.2c-1.4.7-2.9 2-3.2 3-.3 1-2.8 4-5.6 6.6-2.7 2.7-5 5.5-5 6.2s-.6 1.5-1.5 1.8c-.8.3-1.5 1.3-1.5 2.1a9 9 0 0 1-1.6 4L554 425h-7.6l-.5-1.5c-.3-.8-1.5-1.5-2.6-1.5s-2.3-.5-2.6-1c-.4-.7-.2-1.6.4-2.3.6-.6 1.1-2.4 1.1-4.1 0-1.7.4-3.6.8-4.2a10 10 0 0 1 3-2.3c1.2-.6 2.2-1.6 2.2-2.1s-.8-1-1.8-1-2.5-.6-3.2-1.5a5.4 5.4 0 0 0-3.7-1.5H537l.7-4.7 1-6.5c0-1 .4-2 .7-2.4.4-.4.7-1.5.7-2.5 0-3 2.2-6.7 4.3-7.2l2-.5-.6-1.6-.6-1.6 5.8-5.9-.5-1.9-.5-1.9 4-3.2c2.3-1.8 4.1-4 4.1-5s1.6-3.7 3.5-6.1l3.4-4.4 5.3-1.4c3-.7 6.2-1.3 7.3-1.4 1.1 0 3.2.3 4.5.7l2.5.7-5-4 1-1.1c.7-.6 3-1.1 5.4-1.2 2.3-.1 3.9-.5 3.4-.8-.4-.4-3.4-1.5-6.6-2.4l-5.8-1.8-4.2-4c-4.6-4.5-7.6-8.7-7.7-10.6 0-2.3 3.8-1.3 6.4 1.7 1.4 1.7 3.4 3 4.5 3 2.3 0 5.1 2.5 5.1 4.6 0 .7.9 1.8 2 2.4a32 32 0 0 0 6 2l4.3.9.5-2 .5-2 11.2 1.4-11.7-11 .7-1.2c1.2-1.9 4.4-1.2 6 1.3 1 1.4 3.4 3.6 5.6 5l4 2.6h6.4c3.6 0 6.5-.3 6.5-.7 0-.4-.7-1.6-1.5-2.7-.8-1-1.4-3-1.4-4.3V318l3.2-1.3 1.4 1.9c.7 1 1.4 3 1.4 4.5s.5 3.1 1.2 3.7l1.3 1 9-1.3-.2-5.5-.5-11-.3-5.7 1.8-2.6 1.7-2.7h4v1.6c0 .9-.6 2.6-1.3 3.8l-1.2 2.1v11.8c0 6.4.3 11.7.8 11.7s2.3-.6 4-1.5 4.2-3 5.4-4.8l2.3-3.3v-7c0-4 .2-8 .6-8.8.6-1.6 3.9-2.1 4.8-.7.3.5 0 5-.6 10.2l-1.2 9.4-1.9 2.5-2 2.5 16.5.6 2.3-2.1c1.2-1.2 3.5-5.5 5.1-9.6l2.9-7.5 8.6-8.9-4.2-5.3 1.6-2a50.2 50.2 0 0 0 5.5-11.6c0-.5 1.6-2 3.5-3.5a24 24 0 0 0 8-13.3l.6-3.2 6-4.5c3.2-2.5 6.3-4.6 6.9-4.6 1.2 0 8.1-7 10.4-10.6 2.9-4.4 9-10.3 10.6-10.3h1.6l1.2-5.3c.7-2.9 1.4-6.6 1.5-8.3s1-4.4 2-6.2 1.7-4 1.7-5.1 1.5-3.6 3.4-5.6l3.5-3.7 2 1a9 9 0 0 0 3 1.2c.5 0 1.2-1.4 1.6-3l.6-2.9 4.8-4.4c2.6-2.5 5.3-4.7 6.1-5l1.5-.5-3.4-3.8.6-2.4c.7-2.7 5.6-11 9.7-16.3 1.5-2 3.6-3.8 4.5-3.8 3.7 0 10.3-8.3 10.6-13.4.1-1.7.7-4.1 1.4-5.3.6-1.3 2.8-3 4.9-3.8l3.7-1.6h12.6l1.5 1.2c.8.7 1.4 2 1.4 3.1 0 2.3-2.7 3.6-4.3 2-.6-.6-1.4-1.1-1.8-1.1-.4 0-1 1-1.3 2.5l-.6 2.5h-4v-2.5c0-1.4-.4-2.5-.8-2.5-1.5 0-6.2 2.5-6.2 3.3 0 .5 1.2 1.8 2.6 2.9l2.6 2-10.1 9.8.6 3 .6 3-1.8 2c-1 1-2.7 2-3.7 2h-2l-1-4.2-4.3.7v7l-5.6-.1.6 2c.8 2.3.8 4.1.2 10l-.5 4-1.5.5a68.3 68.3 0 0 0-13 14.2c-.3 1-2.3 2.2-4.4 2.9a19 19 0 0 0-6 3.2l-2.2 2-.7 4.4c-.3 2.4-1 4.6-1.5 4.9-.5.3-1.3 2.4-2 4.7a62 62 0 0 1-3 8.5l-2 4.3-5 1.9-1.3 3.3-2 5c-.3 1-1.3 2-2.2 2.4-.9.4-3.3 2.4-5.3 4.5a47 47 0 0 1-10.1 7.2l-6.5 3.5v2.8a30 30 0 0 1-1.3 7L708 278l-8 6.5-5 10v3.8a16.8 16.8 0 0 1-6.4 13.1l-2.5 1.7v8.1l-13 13.2-.6 3c-.3 1.5-.4 3 0 3.3.8 1-1.4 4.3-2.8 4.3-.7 0-2.2 1.3-3.3 2.8-2.4 3.3-10.3 7.6-13 7-3.3-.6-2-3 3.2-5.7l5-2.6v-4l-28-1.1-11.4 5.9.5 1.2c.2.6-.4 1.9-1.4 2.7-1.7 1.5-3.8 2.2-10.8 3.5-3.6.8-7.5 3.2-7.5 4.8 0 1.8 2.1 3.4 3.7 2.9.7-.3 1.3-1 1.3-1.6 0-1.7 3.4-3.7 6.4-3.7h2.8l-.4 1.2c-.2.7-1.6 1.2-3.1 1.2H611l.4 1 .4 1 4.4-.3c2.4-.1 4.8-.7 5.3-1.2 1.6-1.6 3.6-1 3.6 1v2l-2.8 1.2c-1.5.6-5.7 1.1-9.2 1-6.2 0-12 1.2-14.8 3.2-1.4 1-1.7 4.6-.4 4.6.5 0 1.2.7 1.5 1.6l.6 1.6-3 2.8-3.1 2.8 1 .6c.5.3 3.7-1.3 7-3.6l6.2-4.1 4.7-.8c2.6-.4 6-.8 7.5-.8h2.8v3.9l-2.3.5-6.9 1c-4.6.5-11.4 3.7-13.5 6.4l-1 1.4-2.2-.5c-1.2-.3-2.2-.2-2.2.3s.7 1 1.5 1 1.6.5 1.8 1.1l.4 1.2 4.7-1.3c2.5-.7 5.6-2.2 6.8-3.2 2.3-2 6.4-2.4 8.7-1 .8.5 1.1 1.4.7 2-.4.6-1.7 1.1-2.9 1.2-1.2 0-3.3.9-4.6 2s-3.1 1.9-3.9 2c-2.5 0-7 2.9-7.4 4.9-.3 1.1-1.3 2-2.2 2H597v1.7c0 .9-1.1 3.1-2.5 5L592 408h-6l.7 3.5 2-.3 5-.5 3-.2 3.2-3.5 5.3-5.6 2-2.2 11 1.1v-2c0-1.2.4-2.4 1-2.8.5-.3 1-1.6 1-2.9s.6-3.9 1.4-5.8l1.4-3.5 4.4-1.6a28 28 0 0 1 5.5-1.7c2.6 0 2.1 2.2-1.2 5.3l-3.5 3.2-1.8 5.2c-1 2.8-2.4 5.9-3.2 6.7-.7 1-2.1 1.6-3.2 1.6-1 0-1.8.5-1.8 1s-1 1.4-2 2l-2 1-5.1-2-1.1 2.5c-.7 1.4-1.5 2.5-2 2.5-.3 0-3 2.3-5.8 5l-5 5h-2c-1 0-2.2-.4-2.6-1-.3-.5-1-1-1.4-1-1.1 0-.3 9.2 1 10.4.5.6 1 2.1 1 3.5v2.4l-3-.6c-1.7-.3-3-.3-3 .1 0 1.9 4.2 5.4 8.3 7.2l4.5 1.9.7 2.2.7 2.2.8-1.4c.5-.7 1-2.4 1-3.6v-2.2l3.8-2 .7 1c.4.6.4 3 0 5.6l-.7 4.4-1.4.6c-2.5 1-1.6 2.3 1.5 2.3h3v-13.6l-2.3-2.3 1.3-1.5c.7-.9 1.7-1.6 2.2-1.6.5 0 1.9 1.3 3.1 2.8a93 93 0 0 0 5.6 6l3.3 3.2-.6 2c-.4 1-.8 4.2-1 6.8l-.5 5 2.5 2.3 2.5 2.3v-3c0-1.8.6-3.7 1.4-4.4.9-.6 2.2-1 3-.6l1.6.6v8h-5.4l1.1 1.2c.6.6 2.9 1.4 5 1.7l3.8.7.3 2.8.3 3-1.3.8c-.7.4-3.5.8-6.2.8H623l.7 1c.3.6 1.8 1 3.4 1 3.4 0 9.3 2.4 11 4.4l1.2 1.4-1 .7c-.7.4-1.1 1.2-1.1 2v1.2l9.2 1.3a105 105 0 0 0 12 1.2c1.5 0 2.8.3 2.8.7 0 .4 1 1.8 2 3l2.2 2.3 10.8-1.3-.6 1.6-.6 1.5h2c1.2 0 2.2.5 2.2 1 0 .6 1.4 1 3.2 1 1.8 0 3.8.4 4.3.8a6 6 0 0 1 1.8 2.5c.3 1 1.5 1.7 2.6 1.7s3.1-.5 4.5-1.1l2.6-1.2 2.7 1.2c1.5.7 9.7 2.1 18.3 3.2a296 296 0 0 1 46 8.9 55 55 0 0 1 12.7 4.3l1.2.8-1 3-1.1 3-3.2 1.3c-4.8 2-7.8 2.4-11.6 1.5zm-15-7.3c0-.3-.4-.7-1-1-.5-.3-1.2-.2-1.5.4l-.6 1h1.5c.9 0 1.6-.2 1.6-.4zm-8.3-8.2c-.3-.3-1.2-.3-1.9 0l-1.3.5h1.9c1 0 1.6-.1 1.3-.5zm-7-3c-.4-.4-.7-.1-.7.6 0 .8.3 1 .7.7.3-.4.3-1 0-1.3zm-31.2-.4-.7-1-8.4.2c-4.6.2-8.4.7-8.4 1 0 .5 4 .8 9 .8h9zm-86-58.4c.1-2.4-.2-5-.7-5.7l-.8-1.4v6.4c0 7.1 1.2 7.7 1.5.7zm-28.8-22.4.4-1.2H581l1.3 1.6c1.4 1.6 3 1.5 3.7-.4zM548.5 418c.3-1.2.3-2.7 0-3.2l-.7-1-.8 1.9c-1 2.7-1 4.4 0 4.4.5 0 1.2-1 1.5-2.1zm13-19c1.3-.6 3-2 3.6-3.3s1-3.8.9-5.6l-.4-3.5h-3l-1.2 4c-.7 2.2-2.5 5-3.9 6.3l-2.6 2.3-1.8-.6c-1-.3-2 0-2.4.5l-.7 1h4.5a21 21 0 0 0 7-1zm33.8-2c2.7-3 3.7-5.9 2.1-5.8-.4 0-2 1-3.3 2.3a11.5 11.5 0 0 0-3.2 4.4l-.6 2.2h1.1c.6 0 2.3-1.4 4-3.1zm-42.3-6a9 9 0 0 1 1.4-3.6l1-1.3h-4l-1.2 2.5c-1.5 2.7-.7 6 1.2 5.3.7-.2 1.4-1.5 1.6-2.8zm18.7-5.8c-.8-3.4-.8-3.9 0-8.3l.7-3.8h-1.7c-.9 0-2 1-2.4 2.2-.4 1.1-.5 4.2 0 6.7l.8 5.9v1.2l3.2-1.2-.6-2.7zm-6.1-6c-.6-.5-2.5 1-2.5 2v1l1.4-1.3c.8-.7 1.3-1.4 1.1-1.6zm47-29 .7-1h-1.6c-.8 0-1.5.4-1.5 1 0 .5.4 1 .9 1s1.2-.5 1.6-1zm-20-7 1.9-.7-3.2-1.2-1.2 1.4c-1.3 1.6-.5 1.7 2.5.5zm75.2-5.4c.4-.3.4-1.2 0-2l-.5-1.5-10.1-.7v1.2c0 .7 1 2 2.1 2.7l2.2 1.6 2.9-.4a9 9 0 0 0 3.4-.9zm-69.2-1.7c-.3-.5-1-1-1.6-1s-.7.5-.4 1c.4.6 1.1 1 1.7 1 .5 0 .7-.4.3-1zm5.5 0c0-.5-.9-1-2-1-1 0-2 .5-2 1s1 1 2 1c1.1 0 2-.4 2-1zm44-1.5c0-1.6-.9-1.8-3.4-.8l-1.7.6 1.3.9c2.1 1.3 3.9 1 3.9-.7zm-341 191.2c0-1.3.8-3.1 1.8-4 2-1.8 5.7-2.2 6.6-.8.8 1.4-.4 4.1-2 4.1-.6 0-1.7.7-2.4 1.5s-1.9 1.5-2.7 1.5h-1.3zm324 1.4a13 13 0 0 0-5.4-1 79 79 0 0 1-24.5-7l-5.5-2.6-.6-2.5c-.3-1.3-1.2-2.6-2.1-2.8a38 38 0 0 1-13.2-7.4l-1.1-1.7 2.3-2.4 6.3 3.3c3.5 1.8 7.7 4 9.4 4.7 5.3 2.6 6 3 6 4.4.2.8.3 2 .3 2.7.1.7 1 1.2 2 1.2s4 1 6.6 2c2.6 1.1 5.6 2 6.9 2 2 0 7.5 1 15.7 2.8l3.5.8v4l-2.5.2a8 8 0 0 1-4-.7zm-310.8-10.8.3-5.8 7.2-1.8 7.8 3.8.3 1.9.4 1.8-4.4-.7c-2.4-.4-4.9-1.2-5.6-1.7-1.9-1.5-2.8 0-1.4 2.3a8 8 0 0 1 1.2 3.3c0 1.5-2 2.6-4.7 2.6H320zM463 521c-.8-.5-3.4-1.4-5.8-2s-4.6-1.9-4.9-2.7l-.6-1.6 1.4-.8c.8-.5 2.5-.6 3.9-.3 2.9.7 9.2 4.2 10.2 5.8.5.6.8 1.4.8 1.8 0 1-3 .8-5-.2zm-153.4-8-.7-4.1 1-2c1.4-2.4 1.4-6.3 0-7.6-.5-.6-1.1-3-1.2-5.4l-.2-4.3 2.5-.8v2c0 1.1.4 2.3 1 2.6s1 1.6 1 2.8v2.2l6.3 5.3-5 5v3.9l.2 3.8-2.1.3-2.2.3-.6-4zm-23.9 2.3c-.3-.3-.4-1.2 0-2 .2-.7 1.3-1.4 2.4-1.4s1.9-.5 1.9-1.1c0-.6-1.2-2.2-2.5-3.5L285 505v-3.8c0-2.2.7-6 1.6-8.6l1.6-4.7h4.8v1.9c0 1-1 2.6-2 3.6-1.1 1-2 2.6-2 3.4 0 1 .7 2.5 1.5 3.6l1.5 2-1.2.6c-.6.4-.8 1.2-.4 1.8.9 1.4 3.6 1.5 3.6.1 0-.5.9-1 2-1s2 .5 2 1c0 2.2-2.1 5-3.7 5H293l.4 1.3c.3.7 0 2-.4 3l-.9 1.7h-2.8c-1.5 0-3-.2-3.4-.6zM360 514c0-.6-1-1-2.4-1h-2.4l-.5-2c-.3-1.2-1.2-2-2-2s-2.1.8-2.7 2l-1 2h-4.6c-2.4 0-4.4-.5-4.4-1s-1-1-2-1.4a4.3 4.3 0 0 1-2.7-2.2l-.6-1.6 3.2-3.2 3.8 3.4 5.4-.6c3-.3 6-1 6.6-1.7.7-.5 1.3-1.7 1.3-2.5v-1.5l-1.8.7-3.5 1.3-1.7.5v-3.8l-2 3.6h-5v-1.7c0-1-.2-2.7-.5-4l-.6-2.1 2.3-1.2c1.3-.7 3.2-1.3 4.3-1.4h2v-6l8.8-.7 2.4 2.2c2.3 2.2 3 5 1.8 6.2-.4.4-1.5.2-2.5-.3l-1.8-1-.6 1c-.4.6-1.5 1-2.6 1h-2v3h6.8l1.3 1.5 1.2 1.5 7.4-1.2 3.2 3.2c1.8 1.8 3.2 3.6 3.2 4.2 0 .5-1.3 1.4-2.8 2l-2.9.9.1 2.2v2.2l-9.4.6v-1zm4.7-2.7a1 1 0 0 0-1.4 0c-.3.3 0 .6.7.6s1-.3.7-.6zm4.8-5.3.6-1-2.5-.6c-1.4-.4-3-.3-3.7.1l-1.3.8 2 .7c2.7 1.1 4.2 1 4.9 0zm7 2c-.8-1.4.5-4 2-4 2.2 0 2.6 1.6 1 3.3-1 1-1.8 1.6-2 1.6-.2 0-.6-.4-1-.9zm-55.2-4.7c-.8-2 2.5-12.1 4.2-12.7.7-.3 1.5-2.2 2-4.3a15 15 0 0 1 1.7-5.1 4 4 0 0 1 2.7-1.3c2 0 5 3 5 5.2v1.4l-6.4 2v7l-2.8.2c-1.5.2-2.7.7-2.7 1.1 0 .4.4 1.2 1 1.8.6.5.8 1.6.5 2.4-.3.8-1.5 2-2.6 2.7l-2 1.3zm127.2-1a29 29 0 0 1-6.2-2.6c-.7-.5-3-1-5.3-1l-4 .1-1.5-1.5c-.8-.8-1.5-2-1.5-2.6v-1l-2.6 1.7c-1.4 1-3.2 1.4-4 1.1a2.4 2.4 0 0 1-1.4-2c0-1 1.2-2.8 2.8-4 1.5-1.4 3-2.5 3.6-2.5.4 0 2.1.9 3.7 2s5.7 2.8 9 3.6c3.5.9 8.3 2.8 10.8 4.3 4.6 2.6 6 5.3 3.1 5.7-.8.1-3.7-.5-6.5-1.3zm152 .2c-1-.8-2.6-1.5-3.5-1.6-.8 0-2.6-.9-4-2s-3-2-3.8-2c-.7 0-2.5-.8-4-1.8a52 52 0 0 0-19-5.9l-5.5-.6-4-2.3a52 52 0 0 1-7.4-5.2c-3.2-2.9-4.1-5.5-2.4-6.6.5-.3 3 .8 5.5 2.5 2.6 1.6 5.3 3 6.1 3 .8 0 1.7.3 2 .8a15 15 0 0 0 5.3 2l7.2 2.1 8.5 2.6c3.3 1 6.9 2.5 7.8 3.6 1 1 2.7 1.8 3.7 1.8 1.1 0 2.8.9 3.8 2 1 1 3.1 2.2 4.8 2.6 1.6.4 3.3 1.2 3.7 1.8.4.6.7 2 .7 2.9v1.7h-1.8c-1 0-2.6-.6-3.7-1.4zm-389.4-.8c-.6-.6-1.2-1.5-1.2-2 0-1 4.3-4.8 5.5-4.8.7 0 2 .6 3 1.3l1.7 1.3-1 2.7-1.1 2.7h-2.8c-1.6 0-3.4-.5-4-1.2zm82.4-2.7-.7-2 1.7-3.5c1.7-3.6 4.5-4.9 4.5-2 0 .8-.6 3.3-1.3 5.4-.7 2.2-1.8 4-2.4 4s-1.5-.9-1.8-2zm25.1.3c-1-1-.8-4.4.6-8 .6-1.8.9-3.6.5-4-.3-.3-1.6-.6-3-.5-3.1 0-10.6.9-14.6 1.7l-3.3.7.3-3.9.4-3.9 9.7-4.7 2.6 1.9 2.7 1.8h9.6l-.4 5.5a33 33 0 0 1-3.9 13.5c-.3.3-.8.2-1.2-.1zm-8.9-16c-.3-.3-1.2-.3-2 0l-1.2.5h1.9c1 0 1.6-.1 1.3-.5zM478 499.6c-.3-.3-2.7-.7-5.5-1l-5.6-.5c-1.2-.1-1-3.9.2-4.6 1-.6 10.7 1 14.7 2.6l2.3.9-.6 1.5c-.3.8-1.6 1.5-2.8 1.5s-2.5-.2-2.7-.4zm-28.1-5.7c-1-.5-1.8-1.6-1.8-2.4 0-.8.9-1.9 2-2.5 1.1-.6 2-1.7 2-2.5s.5-1.5 1-1.5c.7 0 3.3.7 6 1.6 4.8 1.6 7 4 5.2 5.7l-1 .9-3.6-.7c-2-.4-3.9-1.1-4.2-1.6-1-1.8-2.1-.8-1.6 1.6l.4 2.5H453a8 8 0 0 1-3.1-1zM573 480.7c-2-1.2-6.1-4.4-9.2-7.2-5.4-4.7-6.9-7.6-4.7-9 .6-.3 2 0 3.3.7 3.2 1.7 16.8 16 16.1 17-.2.4-.8.8-1.2.8-.3 0-2.3-1-4.3-2.3zm-252.6-4.5a6.1 6.1 0 0 1-1.7-2.8l-.7-2.2 2.3-1.6a9.4 9.4 0 0 1 4.4-1.6h2.3l1.5 2.3c1.6 2.2 2.2 6.7.9 6.7-.4 0-1.5-.7-2.5-1.6l-1.8-1.7-1.8 1.6c-1 1-2.3 1.3-2.9 1zm-20.3-3.7V469h1.4c1.8 0 4 3.7 3.2 5.6-.3.8-1.5 1.4-2.6 1.4h-2zm191 .6c-.8-.6-3-1-4.8-1a15 15 0 0 1-5.2-1l-1.8-1 .5-2c.3-1.2 1.1-2 1.8-2s3.6.4 6.5 1l5.3 1 3.4-1.3c1.8-.6 3.3-1.5 3.3-2s-1.4-.8-3-.8-5.3-1.2-7.9-2.6a23.4 23.4 0 0 1-7-6c-1.1-1.9-2.6-3.4-3.3-3.4-.6 0-2.8-.8-5-1.7s-4-2.6-4.3-3.5c-.4-1-1.7-2.5-3-3.3l-2.3-1.6-.6-3.4-.7-3.4-10.3-9 2.3-2.3 3.4.6c4.1.8 8.7 4.1 8.7 6.3 0 .9 1.2 3 2.6 4.6l2.5 3-.6 2.6-.6 2.7 4 2.5c2.3 1.3 4 2.8 4 3.2.1.4 1.1.7 2.4.7 3 0 8.4 3.5 9.2 5.9l.6 2 5.1 1.5c2.9.8 5.5 1.3 6 1 .4-.2.6-2.8.3-5.7l-.4-5.2 1.2-3.3 1.2-3.3-1.5-1c-.8-.4-2.9-.8-4.6-.9h-3l-1.7-1.8c-1-1-1.7-2.3-1.7-2.8s-2.2-3.2-5-5.9c-2.7-2.7-5-5.5-5-6.1s.9-1.7 1.9-2.3l1.9-1 7.1 5.4v2.1c.1 1.2 1.6 3.9 3.5 6l3.4 4 2-1.9c1.1-1 2.6-3.8 3.3-6.2.8-2.5 1.9-4.5 2.5-4.5.6 0 3.6-2.3 6.6-5.2l10.8-10.1 5.2-4.9-4.2-4.4V395h1.4a13 13 0 0 1 4.7 3l3.4 2.9.1 2.3c.1 1.3.5 3 .8 3.9.4.8.3 3.3-.1 5.5l-.9 4-2 .3c-1 .2-3 1.2-4.5 2.3a10 10 0 0 1-4.2 1.8h-1.5l-.4 2.8-.3 2.7-5 .6-1 3.2-1 3.2-3 1c-1.8.6-3.2 1.5-3.3 2l-.2 1h8.2l3 4-1.4 13-1.4.8c-2.3 1.4-.5 2.7 3.6 2.7h3.8l.5 1.4c.3.8.3 3.3 0 5.5l-.5 4.2-6-.5a32 32 0 0 1-7.7-1.5 9 9 0 0 0-3.4-1h-1.5l-.7 5.4-4 .7-6.5 1.3c-1.4.3-3.2.1-4-.4zm28-11c-2-1.3-4.3-1.3-3.5 0 .4.5 1.6 1 2.8 1l2.2-.1zm-9.7-10.8-1.8-2.7-.3 2.4-.4 2.3 1.3.8c2.3 1.4 3-.1 1.2-2.8zm2.7-8.2c0-1.2-2-2.4-2.6-1.7-.8.7.5 2.6 1.7 2.6.5 0 1-.4 1-1zM440 467.5a23 23 0 0 1-5.8-6.4 35.3 35.3 0 0 0-6.6-7.5 13.2 13.2 0 0 1-4-4.4c-.3-1 0-3.2.6-4.8l1.1-2.9 1.7 4.5h1.8c2.4 0 7.8 5.9 8.7 9.4.4 1.6 2.5 4.7 4.7 7 2.2 2.2 3.8 4.5 3.6 5-.6 1.7-3 1.7-5.8.1zm108-1.4-4.7-3-5.3-9 .6-2c.4-1.2 1.3-2 2-2s3.5 2.3 6.2 5.3 5.9 5.9 7.1 6.6l2.4 1.2-.4 2.6-.3 2.7-1.5.3c-.8.2-3.6-1-6.1-2.7zm-316-1-1-2 2.6-1c1.4-.6 4-1 5.6-1h3l-.6-2.6-.6-2.5h1c.6 0 1.6-1 2.2-2.5l1.2-2.5h1.7c1 0 2.1-.4 2.4-1l.7-1h-1.9c-1 0-3.4 1-5.5 2l-3.7 2-.6-1c-1-1.6-4.4-1-6.6 1.1l-2 2.1-.8-.8a19 19 0 0 1-1.5-6l-.6-5.1 2.5-1.7c1.5-.9 3-1.4 3.6-1l1 .6-2 2.5 6.7 3.2 1.5-1.7c.8-1 1.7-2.5 2.1-3.5l.7-1.9 3.4 2c2 1.2 3.7 1.7 4 1.3.7-1.2-.4-4-1.6-4-1.4 0-1-4 .6-5.6l1.4-1.4-.6-2-.5-2 3.3-1.3 1.5 1.3 1.6 1.3-.6 3.6a73 73 0 0 0-.8 7 23 23 0 0 1-2.5 7.7 21.3 21.3 0 0 0-2.3 5.4c0 1-2.1 6.3-5 12l-.7 1.4-11.2.5zm62.7.3c-.3-.4-.6-1.6-.6-2.6v-1.9l5.5.6 5.5-2.7 9.2-4.2 3.7-1.6 2.5.6c1.4.4 3.5 1.9 4.5 3.3l2 2.7-1.7 2.6L315 460l-4.5 1.5a27 27 0 0 1-5.4 1.5c-.6 0-1.8.7-2.6 1.5-1.5 1.6-6.5 2-7.7.9zM290 457l-1.3-.8 1.3-1.6c.7-.9 1.7-1.6 2.3-1.6.5 0 1.8-1 2.8-2.2l1.8-2.3 1.6 1.6 1.7 1.6-1.8 2c-1 1-3 2.5-4.4 3l-2.6 1.1zm-9.2-.6c-1-1-.9-4.6.2-6.3l.8-1.3 2.5.6 2.5.6-.7 3.3-.6 3.2-2 .3c-1.1.2-2.3 0-2.7-.4zm351.1-1.4c-1-.6-1.7-1.7-1.7-2.5V451h-5l-1-1.8-1-1.9 2.1-2 12.7 1 .3-2.8c.2-1.5 1.1-3.3 2.1-3.9l1.8-1 3.5 2.2 4.2-2.8 5.3 2.4v2c0 1-.8 2.5-1.8 3.2-1 .8-2.7 1.4-4 1.4h-2.1l-.6-2c-.4-1-1.1-1.7-1.7-1.4-.5.3-.7 1.5-.3 2.5l.6 2-2.6 1c-1.4.4-2.5 1.6-2.5 2.4s-.7 1.5-1.4 1.5-1.7.7-2 1.5c-.3.9-1.2 1.5-1.9 1.5a8 8 0 0 1-3-1zm-139-2c-.8-1-3-2.6-5-3.4-2-.9-4.6-3-5.9-4.8a42.7 42.7 0 0 0-5.8-6.4l-3.6-3.2 3.7-3.7 13.5 14.5h4.5l.5 2 .6 2 4.7 1.2v3.8h-5.9zm-210.5-6.4-.5-1.5 2.8-3.5c1.6-2 3.6-3.6 4.6-3.6h1.8v4.5l-3 2.8c-1.5 1.5-3.4 2.7-4 2.7-.6 0-1.4-.6-1.7-1.4zm17.4-.3-1.9-.4.7-4.4 7.5-.6 1.3 3.4-1.9 1.4c-1.9 1.4-2.6 1.4-5.7.6zm28-4.4c-1-.5-1.7-1.8-1.7-2.9s.9-2.4 2-3 2.3-2.5 2.8-4.2l.8-3.3h4.9l.3 4.3.3 4.2H333l-.9 2.4a7.6 7.6 0 0 1-1.7 3c-.5.2-1.6 0-2.6-.5zm-91.8-3.4V436h2.5l3.3-.1c.4-.1 1 .6 1.1 1.6.2 1-.3 2.2-1 2.6s-2.4 1-3.6 1H236zm58.7.9a5 5 0 0 1-.6-2.5V435l5.1-1.3 1.7 1.7 1.7 1.7-2 1.4c-2 1.5-4.8 1.9-5.9.8zm-6.6-7.2v-2l4-1v4.8h-4zm209.5.5-1.8-1.4 1.3-.7 1.2-.8 3 3-1 .6c-.5.3-1.7 0-2.7-.7zm-201-2.7c.3-.5.8-1 1-1s.5.5.5 1c0 .6-.5 1-1.1 1s-.8-.4-.4-1zm4.2.4c-.3-.3-.4-1-.3-1.7l1-4 .6-2.7h4v2.6c0 1.4-.5 3.4-1 4.5-1 1.9-3.1 2.5-4.3 1.3zm-9-5.7c-.3-.8 0-2 .5-2.5 1.6-1.6 5.3-1.5 6.6.2l1.1 1.3-1.2 1.2c-.6.6-2.4 1.1-3.8 1.1h-2.7zm76 .7c-.4-.4-.7-1.4-.7-2.2v-1.4l1.5 1.2c.8.7 1.5 1.7 1.5 2.2 0 1-1.4 1.1-2.4.2zm81.4-4.8c-.8-1.3-1-2.9-.7-3.5.4-.6 1.4-1 2.2-1 2 0 7.4 4 7.4 5.6v1.3h-7.7zm214.3.7c-1.2-.2-2.7-1-3.3-1.7-.6-.7-.8-2-.4-3l.6-1.6h3.4c1.8 0 3.4-.3 3.4-.8 0-.4-2-1.2-4.3-1.7l-4.2-1v-6l5.6-.6-.7-3.1-.7-3.2 2.4 1.6a16 16 0 0 1 4 4.4l1.7 3v5.6l.2 5.6-1.3 1a8 8 0 0 1-6.4 1.5zm-381.8-7c-.3-2-.6-5.4-.6-7.4v-3.7l-1.5-1.5c-.9-.8-1.5-2.2-1.5-3s.8-1.7 1.9-2l2-.4 2 1.9c1.1 1 2 2.3 2 2.7 0 .4-.4 1.2-1 1.7l-1 1 .7 4.8.7 4.8 1.5-2.6a8.1 8.1 0 0 1 3.5-3.2c1-.3 2.4 0 3 .6l1.1 1-1.2 1.8a16 16 0 0 0-2.7 5.7l-.5 1.5h-7.8l-.6-3.7zm93.5-4c-.5-2-1.3-7-1.6-10.8-.4-3.8-1.3-8.3-2-10a102 102 0 0 1-4.8-16l.1-4.2.2-3.3h2.7l1.2 6.3a72.4 72.4 0 0 0 5.3 17.2 81.6 81.6 0 0 1 3.8 20.8v3.7h-4zm275.2-4.5-2.3-1.1.3-2 .3-2.1 5.5-2 1.6 1.7 1.7 1.6-1.7 2.6c-1 1.4-2 2.5-2.4 2.5-.4 0-1.8-.6-3-1.2zm-146.5-3.1c-2-1.2-4.6-3.1-5.8-4.2-1.3-1-4-4.4-6-7.5-2-3-6.8-8.2-10.4-11.5a64.5 64.5 0 0 1-8.7-9.2c-1.1-1.8-2.6-3.3-3.3-3.3s-1.9-1.2-2.6-2.7a60 60 0 0 0-3.2-5.4 11 11 0 0 1-1.8-5c0-1.4-.7-3.4-1.5-4.4l-1.4-2v-4.7c0-2.6-.5-4.8-1-4.8-.4 0-2.4-1.4-4.4-3.2l-3.6-3.3.7-1 .7-1.2 8 2.3 2.7 4c1.5 2.2 3.4 6.4 4.3 9.4a55.1 55.1 0 0 0 8 17.5l4.5 5.2c1.4 1.5 4.6 4.6 7.3 6.7 2.6 2.2 4.7 4.6 4.7 5.4 0 1.7 4 6.2 5.5 6.2 1.3 0 11.8 10 14 13.3l1.6 2.5-.7 1.6c-.3.9-1.3 1.6-2.2 1.5-1 0-3.3-1-5.4-2.2zm121.8-.4-.7-1.7 1.8-1.3a8 8 0 0 1 4-1.3 5 5 0 0 1 3.3 1.5c.7.8 1 2.2.7 3l-.6 1.5h-7.8zm34.2-6.3-1.7-1v-5l1.9-1c1-.6 2.6-1 3.5-1h1.6v2.9c0 1.6-.8 3.6-1.6 4.5l-1.8 1.5-1.9-1zm-274.6-2.2c-.7-.6-1.2-1.8-1.2-2.5s-.5-2-1-3-2-5-3.2-9.2l-2.2-7.4-4.3-4c-2.4-2.1-4.3-4.8-4.3-5.8V360h1.7c1 0 2.7 1.4 3.8 3 2 3 3.5 4 3.5 2.2l-1.1-11.7-1.1-11-1.4-1.5-1.4-1.6 2.5-3.5 1.7.7c1 .3 2.2 2.3 2.7 4.3.6 2 1.6 7.1 2.2 11.4l1.2 7.7h3.5l1 6.4c.7 3.5 1.2 7 1.2 8s-.7 1.6-1.4 1.6c-1.8 0-3 3-1.7 4.4.6.6 1 1.9 1 2.9s.5 2.7 1 3.8l2.1 4c.6 1 .8 2.5.4 3-.8 1.3-3.8 1.2-5.2-.3zm.8-20.7c0-1-.5-2.2-1-2.6l-1-.6v2.6c0 1.4.4 2.5 1 2.5s1-.8 1-1.9zm-2.4-8.3c-.2-.7-.5-.1-.5 1.2 0 1.4.3 2 .5 1.3.3-.7.3-1.8 0-2.5zM501.3 388c-.6-1.1-1.2-2.5-1.2-3s.6-1 1.3-1c1.6 0 5.8 4.5 5 5.4-1.3 1.2-3.9.5-5-1.4zm146-.7c-1.1-.9-2.2-2.5-2.2-3.5V382l8.1 1.3 1.7-1.5c2.2-2 7.3-3 9.1-1.9.7.5 1.2 1.7 1 2.6l-.4 1.8-7.5 2.4-7.5 2.3-2.2-1.6zm71.5 1c-.3-.4-.6-1.5-.6-2.6V384l2.7-1c1.4-.6 4.5-2.7 6.7-4.8 2.2-2 5.5-4.3 7.3-5 1.8-.8 3.3-1.7 3.3-2.1 0-.4 1.1-1.3 2.5-1.9l2.6-1.2 2 1c1 .6 1.9 2 1.9 3s-1.2 2.8-2.6 3.7c-1.3 1-4 3-5.7 4.6a12.5 12.5 0 0 1-4.4 2.7c-.7 0-2.6 1.4-4.3 3l-3.1 3h-3.8c-2 0-4.1-.3-4.5-.6zm-48.2-2.4c-.4-.6.2-2.7 1.2-4.6l1.9-3.4 4.6-1.2 2.8 2.8-6 7.4h-2c-1 0-2.1-.5-2.5-1zm-33.8-6.6c-1.7-1.7-.3-3.4 4.4-5.1l5-1.9 5-4.7c2.7-2.6 5.3-4.7 6-4.7.5 0 1.3.7 1.6 1.6l.6 1.6-3.3 3.4c-1.8 1.9-4 3.4-4.7 3.4s-1.3.5-1.3 1c0 1.1-9.2 6-11.3 6a4 4 0 0 1-2-.6zm51.7-3-.7-1.6 3-2.2c1.5-1.1 4.3-3.3 6.1-5l3.3-2.8v-2.2c0-1.2.9-3 2-4.1l2-1.9 18.2-1 .5.9c.3.5-1 2.2-2.8 3.8l-3.4 2.9-3.3-.5a12 12 0 0 0-4.7 0c-.8.3-2 2-2.6 4-.6 1.8-1.5 3.3-2 3.3s-2 1.2-3.2 2.7a17.5 17.5 0 0 1-10.2 5.3c-.9 0-1.9-.7-2.2-1.6zm-84.9-4.4c-1-1.7 1.6-4 4.7-4 1.5 0 2.8.4 2.8.9 0 1.4-3.5 4.1-5.2 4.1-1 0-2-.4-2.3-1zm71.2-.5-.6-2c0-.3 1.8-2.5 4-5l4.2-4.5h5.8l.7 1.7.6 1.7-3 2.4-5.6 4.9a9.6 9.6 0 0 1-4.1 2.3c-.8 0-1.7-.7-2-1.5zM484 369c-1.7-1.7-3-3.4-2.6-3.7.3-.3 1.5 0 2.6.6 2.2 1.2 4.6 4.9 3.7 5.7-.3.3-2-.8-3.7-2.6zm143.5-3.6-.6-1.6 2-2.2c1-1.2 2.2-3 2.6-4l.6-1.8 2.3.3 2.2.3.4 2.3.3 2.3-3 3c-1.7 1.6-3.7 3-4.6 3-.9 0-1.9-.8-2.2-1.6zM510.6 360c-.3-.6-.5-3-.4-5.5l.3-4.5-2.2-2.4c-2.3-2.4-2.8-5.1-1.2-6.2.6-.3 1-1 1-1.3 0-.5-1.1-1.4-2.5-2.2l-2.5-1.3v-3.9l2.5.5c1.4.3 2.5 0 2.5-.4s-.9-1.3-2-1.8l-1.9-1-.3-2.7-.3-2.7-4.3-1.4c-2.4-.8-4.6-2.1-4.9-2.9l-.5-1.4h-5.6l-.5-2-.6-2.1 2-2c1-1 3-1.9 4.4-1.9s2.5-.3 2.5-.8c0-1.1-5.7-5.2-7.3-5.2-.8 0-2 .7-2.7 1.5-1.5 1.8-5.1 2-6.8.4-.6-.7-2.7-1.1-4.7-1H471l-1-3-1.1-3-1.2.5c-.6.2-1 1-.8 1.7s0 1.9-.3 2.7l-.5 1.5-5.2-3.4-2 1.8-2 1.8-4-.1c-2.2 0-4.5-.6-5-1.2l-1.2-1.2 2.3-2.2 6.2 2.5 1-1 1.1-1-2.8-1.5a9 9 0 0 0-4.8-1 10 10 0 0 0-4 2.8l-2.1 2.3-3 .2c-4 .3-11.4-1.1-12.1-2.2-.3-.5 0-1.6.6-2.4l1.2-1.4 10.5 1.2 2.4-1.6c3.2-2 9.8-3 12.9-1.9 1.4.5 3 .8 3.7.5a2 2 0 0 0 1.3-1.8V294h-2.4c-3.2 0-7.6-1.6-7.6-2.8 0-2.1 2.7-2 14.9.8.2 0-.2.7-1 1.5l-1.2 1.5h10l.6-1.4.6-1.4 2 .5a12 12 0 0 1 4.6 3.5l2.5 3 7.2-.2h12.8v-3l-4.2-.1h-9.2c-2.7.2-5.1 0-5.5-.5a57.3 57.3 0 0 0-10.7-8.4c-.6 0-1.4 1-1.7 2l-.5 2h-2c-1.1 0-2.2-.6-2.5-1.3l-.5-1.4-5.4-.6c-9.3-1-12.3-1.8-13.6-3.5l-1.3-1.6-.5 2-.5 2-12.4-2.5-4.9-5.6.7 2.4.6 2.4-8.2 9.7 2.6 6.2-1 1c-.6.6-1.9.9-2.9.7-1-.2-2.6-1.6-3.7-3l-2-2.8 4-4.9c2.3-2.7 5-6.7 6-9s2.3-4.2 3-4.2c2.3 0 1.3-1.7-1.3-2.4l-2.5-.6-3.4 4.2-1.7-.7c-1-.3-2-1.5-2.4-2.6l-.6-2-1.7.7c-3.7 1.5-4.7 1.5-7-.6-1.2-1.2-2-2.9-2-3.8.3-.9 1.1-1.8 2-2 1-.1 2.4.5 3.4 1.5l1.8 1.8 1.5-2.2c.8-1.3 2-2.3 2.7-2.3s2 1 2.8 2.3l1.6 2.2 4-4.6 9.5.6.5 2.2a10 10 0 0 0 3.3 4.3l2.7 2 .3 2.7c.1 1.5 1 2.9 1.7 3.1l1.4.5-.7-3.4-.6-3.4 1.4-2 1.5-2.2 12-2.3 2 1c1 .6 3.7 1 6 1h3.9l1.2 1.5c.7.9 2.1 1.5 3.2 1.5h2l-.6-1.5c-.3-.8-.3-2.8 0-4.5l.6-3h4.8v3l5.3.5 6.4 9 3 .4c1.8.1 3.7 1 4.4 1.7.6.8 2.4 1.4 4 1.4s3.3.8 4 1.7l1.4 1.6.2 6 .2 6 1.5 1.7c1 1 1.6 2.2 1.6 2.8 0 1.3 5.6 4.2 8 4.2 2.2 0 4.4 2.6 3.5 4l-.6 1 4.4 4.4c2.5 2.4 5.9 5.3 7.6 6.6l3.1 2.2v2.2a29 29 0 0 0 6.3 12.9c.9.7 1.9 3 2.3 5l.6 3.7h-2c-2 0-3.2-1.8-3.2-5v-2H541a7 7 0 0 1-3.3-.7 16 16 0 0 1-2.8-3.6c-1-1.5-1.6-3.5-1.3-4.3.8-2-2.2-6.4-4.3-6.4-.9 0-2.6-.7-3.9-1.5l-2.2-1.6v-4.3l-2.6-2.3a15.1 15.1 0 0 0-6.3-2.8l-4.6-.9c-.6-.2-1-2.2-1-4.6v-4.5h-3l-.6 6.8-3.8 1 .4 4.2-5.6.7.4 1.2c.2.6 2.2 1.8 4.5 2.7 2.2.8 5.2 2.5 6.7 3.7 1.4 1.2 2.5 3.1 2.5 4.2s.7 2.6 1.6 3.5c1.6 1.6 1.7 2.3 1.1 10l-.3 4 2.3 3.4c1.3 1.9 2.3 4.3 2.3 5.5 0 1-.5 3.5-1.2 5.3l-1.2 3.3H513c-1 0-2-.4-2.4-1zm-11.5-55c0-.5-.7-1.6-1.6-2.5-1.6-1.6-3.4-2-3.4-.9 0 1 3.2 4.3 4.2 4.3.4 0 .8-.4.8-.9zm-22.3-3.7c3.8-1 2.6-2-1.8-1.5l-4.1.4 1.3.8a7 7 0 0 0 1.9 1l2.7-.7zm23.3-9.4c0-.5-.7-1-1.6-1H497l.6 1c.3.6 1 1 1.6 1s.9-.4.9-1zm-9-1.5c-1.3-1.6-4-2-4-.6 0 1.3 1.2 2.1 3.3 2.1h2zm4.7-.1a1 1 0 0 0-1.4 0c-.3.3 0 .6.7.6s1-.3.7-.6zm-10.2-3.4c-.3-.5-1.3-1-2.1-1s-1.2.5-.9 1c.3.6 1.3 1 2.1 1s1.2-.4.9-1zm18.5-.3c0-.8-.7-1.7-1.5-2l-1.5-.6 1.3 2 1.4 2c.2 0 .3-.7.3-1.4zm-41.3-2.3a1 1 0 0 0-1.4 0c-.3.3 0 .6.7.6s1-.3.7-.6zm34.3-.3c0-1.2-2-2.4-2.7-1.7-.7.7.6 2.6 1.8 2.6.5 0 .9-.4.9-.9zm-8.4-1c-.8-1.2-6.6-3.4-7.3-2.7-.3.3 0 1.3.7 2.1.7.9 2.6 1.5 4.2 1.5s2.7-.3 2.4-.8zm-36.6-3v-2h-3v4h3zm13.2-1-.9-2.4-.7 1.2c-.4.6-.1 1.8.6 2.5.7.8 1.4 1.3 1.6 1.2.1-.1-.1-1.3-.6-2.6zm7.3 2c.3-.6.1-1-.4-1s-1.1.4-1.1 1c0 .5.2 1 .4 1 .3 0 .8-.5 1.1-1zm-36.8-3.7c-.4-.4-.7 0-.7.6 0 .8.3 1 .7.7.3-.4.3-1 0-1.3zm22.8-2.3c-1-1.5-3.5-1.3-3.5.4 0 1.6 2.1 2.6 3.4 1.5.4-.4.5-1.3.1-1.9zm10.7-.7c-.6-.3-1.8-.3-2.5 0-.6.3 0 .5 1.3.5s2-.2 1.2-.5zm12.2-.2c.3-.5 0-1.2-.9-1.5-1.5-.6-2.9.6-1.8 1.7.9 1 2 .8 2.7-.2zM222 357.7c0-.8.7-2 1.6-2.7l1.5-1.3 1.1 1.1c1.6 1.6.2 4.2-2.1 4.2h-2zm504.2-.7v-2l1.7-.7c2.9-1 11.2-8.5 13.4-12l2-3.3h2.2c1.2 0 3.2-.6 4.3-1.4 1.2-.8 2.4-1.2 2.7-.9 1.5 1.5.4 3.5-4.3 8-2.8 2.7-5 5.6-5 6.4v1.6l-6 3.2a27.9 27.9 0 0 1-8.5 3.1h-2.5zm18-1.5v-1.6l3-1.2c1.6-.6 3-1.6 3-2.3 0-.6.7-1.7 1.6-2.4.9-.8 2-2.4 2.5-3.7.4-1.2 1.5-2.3 2.4-2.3.9 0 3.3-1.4 5.5-3.2l3.8-3.2-5.6-2.4v-5l.2-5.1 1.8-.6c1-.3 1.8-1.4 1.8-2.3 0-1 1.3-3 3-4.7l3-2.9 2 1.2c1 .7 2.6 1.2 3.5 1.2s1.5.7 1.5 1.4-1 2.2-2.1 3.2c-1.2 1-2.3 1.8-2.5 1.7-.2-.1-.3 0-.2.5.2.4.6.6 1 .5.4-.1.8.8.8 2.1 0 2.8-2.4 5.1-4.1 4l-1.2-.6 1 1.8 1 1.8-.9 2.6c-.5 1.4-.7 4-.4 5.7l.6 3.1-2.5 3a13.7 13.7 0 0 1-4.7 3.8l-2 .7-1.6-2.4-7.5 9.1h-7.7zm-62-12.9c-.6-.7-.8-2-.5-2.9s1.5-1.9 2.6-2.2l2-.6 1.4 1.2 1.5 1.2-1.2 1.4c-.7.8-2 1.9-3 2.4l-1.6.9zm58-10.4c0-1.6.6-4.5 1.5-6.5l1.5-3.7h6v7.8L745 335h-4.8zM476 330v-3l-2.7-1.3c-1.4-.7-3-2.2-3.4-3.3l-.7-2.1 1.5-3.2c.9-1.7 2-3.2 2.5-3.2 1 0 1.3.8 2.3 5.4a17 17 0 0 0 4 6.3l3.5 3.4-2 4h-5zm-280.2 1.3c-1.7-.5-3.9-4.4-3.9-7 0-.8 1.6-3 3.5-4.9 3.3-3.3 5.4-4.2 6.8-2.9.3.4.1 2-.4 3.5-.6 1.6-2 3.1-3 3.5-1 .3-1.9 1.2-1.9 1.9s1.2 1.6 2.6 2l2.5.6 1.5-1.5c.9-.9 2-1.6 2.5-1.6s.8-1.4.7-3.1l-.3-3.2 5.5-3.1 2.1 2.1-2.4 5.3 1.7 1.9c.9 1 1.6 2.3 1.6 3 0 1.4-3.3 2.4-5.3 1.6-1-.4-2.3-.2-3 .3a21.1 21.1 0 0 1-10.8 1.6zm251.4-3.6c-.7-.6-1.2-2.5-1.2-4.2 0-1.7-1-4.2-2-5.6-1-1.3-2-3.2-2-4.2V312h5.7l2.6 5.1a23 23 0 0 1 2.7 7.3c0 2.4-1.7 4.6-3.5 4.6-.6 0-1.7-.5-2.3-1.2zm-264-8a4.2 4.2 0 0 1-1.3-2.5V316h5.8l.5-2 .5-2h2.6c1.5 0 2.6.3 2.6.7s-.7 2.4-1.7 4.5l-1.7 3.8h-3c-1.8 0-3.7-.5-4.4-1.2zm179.1-.4a1 1 0 0 1 1.3 0c.4.3.1.6-.6.6-.8 0-1-.3-.7-.6zm117.8-3.5-1.1-3.5c0-.2 1-.4 2-.4 2 0 2.6.9 3.2 4.5l.3 2-1.6.3-1.7.3zm265.6 2.5c-1.2-1.3-.6-3.3 1.9-6 1.3-1.4 2.5-3.4 2.5-4.3 0-.8 2-3.2 4.6-5.3l4.6-3.8h4.8l.6 1.6.6 1.5-9.2 8.6v2c0 1-.6 2.5-1.2 3.1-.7.7-2.3 1.2-3.5 1.2s-2.3.5-2.3 1c0 1.2-2.3 1.4-3.4.4zm-355.5-2.8-3.2-1.4-.6-2.6a8.4 8.4 0 0 1 0-4c.3-1 1.2-1.9 2.1-2.2l1.7-.6 3.9 4.1c2.1 2.3 3.9 4.6 3.9 5.1s-1 1.4-2 2c-1 .6-2 1-2.2 1l-3.6-1.4zM208 313.1l-1-1.8 1.2-1.2a4 4 0 0 1 2.4-1.2c1.5 0 3.2 3 2.6 4.8-.7 1.9-4 1.5-5.2-.6zm565.2-1a5 5 0 0 1-1.6-3c0-1.2-1-2.8-2.1-3.6l-2-1.4 2.2-2.3c1.2-1.3 2.8-3.7 3.6-5.4.9-1.6 2.5-3.8 3.6-4.8s2.8-1.7 3.8-1.5a3 3 0 0 1 2.2 2.2c.2 1-1 4-2.6 6.5l-2.9 4.8 3 4.3-1.7 2.5c-1 1.4-2.2 2.5-2.9 2.5-.7 0-1.9-.4-2.6-.9zm-576.5-2.8-1.8-.5V304h4.9l.6 2c.6 2 0 4.1-1.3 4a41 41 0 0 1-2.4-.6zm115.1-9.1c-.5-1.5-2.2-4-3.6-5.5l-2.6-2.8h-6.8l-5.6-6.1-2 1.2-2 1.3-3.5-1.4.6-4.5.6-4.4-3.6-3.3a50 50 0 0 0-8.2-5.7l-4.7-2.6-.3-2-.3-2.2-2.5-1.1c-1.3-.6-3-1.2-3.9-1.2-2.1 0-4.5-2.9-4.5-5.5 0-1.4.6-2.4 1.2-2.4 2 0 9.5 3.9 11.3 6 1 1 2.4 2 3 2s1.6-.7 1.8-1.4l.6-1.4-4.9-4.6v-3.3c0-1.9-.5-4.2-1.2-5.3l-1.1-1.8 5.8-5.2h-5.7l-5.6-6h-4.8l-3.2-4a15 15 0 0 1-3.2-5.5c0-.8.3-1.5.6-1.5a44 44 0 0 1 5.5 2.5l5 2.5v4l2.5 1c1.4.5 4 1 6 1h3.4l.9 1.7c.5 1 1.2 3.8 1.5 6.3l.7 4.6-1.5 1.3c-.9.7-1.6 2-1.6 2.7v1.4h2.5c1.3 0 2.8-.7 3.2-1.5a5 5 0 0 1 2.8-1.7l2-.3.4 1.9.3 2-1.7 1.2-1.8 1.3-2.7-2.2v2.6c0 1.4.5 2.8 1 3.1 1.9 1.2 1 3.7-2 6.6l-3 2.8 2 1c1 .7 2.7 1.2 3.7 1.2 2.6 0 10.7 7.7 13.2 12.6 1.1 2.3 2.8 4.9 3.7 5.7l1.6 1.6h8.6l2.3 2.8-1.4 3.6 1.7-.7 1.7-.6 1.5 3.4c.8 2 1.4 4.4 1.4 5.5v2h-4zm121.2-4a10 10 0 0 1-3.7-1.4c-.7-.6-1-1.7-.6-2.5l.5-1.5 2.2.6c5.2 1.6 8.6 2.3 8.6 1.7 0-.8-7.4-3.2-10-3.2h-2v-1.4c0-.8.5-1.7 1-2.1s3 0 5.5 1c2.3.9 5.6 1.5 7.1 1.3l2.8-.3.4 1.8c.2 1-.4 3-1.3 4.3L442 297h-3.2c-1.8-.2-4.4-.4-5.7-.7zm-28.5-3.8c-.9-1-1.5-2.7-1.3-3.8l.3-2.2 4-.5 1.9 2c1 1 1.6 2.7 1.4 3.7l-.4 1.8-2 .3c-1.2.2-3-.4-3.9-1.3zm344 .5c-.4-.6-.2-1.6.4-2.2l1.2-1.2 1 1 1 1.1-1.4 1.2-1.5 1.2zm39.4-7.2v-6.2l.2-3 3.6-4.2c2-2.4 4.3-4.4 5.2-4.4h1.7l2.2-5.7 6.4-2.2 10-3.3 3.8-1.1 4.2 3.7-.3 2-.3 2-3.5 1.2c-2 .7-6 1.3-9.2 1.4h-5.6l-1.1 1.5-1.2 1.4 1.3 5.1-3 1.8a9.8 9.8 0 0 0-5.2 8.2c0 1-.3 2.6-.6 3.5l-.6 1.5h-7.8zm-432.2-3c-.2-.7-.1-2.4.2-3.8l.6-2.5h5v7l-5.3.7zM391 277l-2.5-.6-.4-4.2-.3-4.3h4.2l1.9-4.8 7.4-1.4 1.6 1a5 5 0 0 1 1.9 3l.3 2.2-10.1 1.3.6 3.7.6 3.8-1.4.4c-.7.3-2.5.2-3.8-.1zm378.6-1.7-5.8-1.5-3.7-1.2V269l2-.6c1-.2 2-.7 2-.9l-1.3-2.3-1.2-2 1.3-5.2 1.8-7.8a13 13 0 0 1 2.7-4.8 11 11 0 0 1 5.1-3l3-.9 1-8.8 3.2-.6 1.2 2.6c.6 1.4 1.2 3.6 1.2 5v2.4l-2.3 1.2a9 9 0 0 0-3 2.5c-.5.7-1.6 1.4-2.5 1.4-1 0-2.6.6-3.6 1.4l-1.8 1.4 2.3 8.2-2.5 6.9 8.9 8-2 1.5c-2 1.6-2.5 1.6-6 1zm-389.9-2.6a8 8 0 0 1-2.3-3.9l-.6-2.6 1-.7c.6-.3 2.7.2 4.8 1.2l4.2 2c.2 0 .1 1.3-.2 2.7l-.7 2.5h-2.3c-1.2 0-3-.5-3.9-1.2zm-11-.4c-.4-.4-.8-2.5-.8-4.6v-4l-3.9-3.3-.2-4.7c-.1-2.6 0-5 .3-5.3 1.1-1 5.4 1.7 7.1 4.7 2 3.4 2.3 6.4.7 7.4l-1 .6 3.2 2.4.2 3.5.2 3.4-2.6.3c-1.4.2-2.8 0-3.2-.4zm416.4-6.2V264l2.5-1.6c2.4-1.7 3.3-4.8 1.6-5.9-1.3-.8-.2-4.4 1.8-5.8a12 12 0 0 0 3-3.5l1.2-2.3 2 .6c1 .3 2.5.2 3.2-.4a18 18 0 0 1 6.2-1.7l5-.6 4.7 5-.6 1.6c-.3.9-1.4 1.6-2.5 1.6-1 0-3.2-.7-4.8-1.6l-2.8-1.5-1.6 2a8 8 0 0 1-4 2.2l-2.4.4-2 3.8-1.8 3.8 1.1 1.1c1.3 1.3 1.5 4.4.4 5-.4.3-2.9.9-5.5 1.3l-4.7.7zm-410.5-3.7-.6-1.5h1.5c.8 0 1.4.7 1.4 1.5s-.4 1.5-.8 1.5c-.5 0-1.2-.6-1.5-1.5zM831.4 251l-1.2-1.2 1.1-1.3c.6-.8 2.2-1.3 3.5-1.3 1.3 0 2.4-.4 2.4-.9s-.9-1.6-2-2.5l-1.8-1.7-3.8 2.5c-2 1.4-4.2 3.3-4.8 4.1l-1.2 1.6-1.7-.7c-2-.8-2.3-4.3-.3-5 .8-.4 1.7-1.6 2-2.8.3-1.2 1.7-3.4 3-5l2.3-2.9 3.8 1.4a19 19 0 0 1 6.2 3.7c2.4 2.3 4.8 2 3.9-.5-.9-2.1 3.2-10 6.6-12.9l3-2.4h3.3c1.8 0 3.7.5 4 1l.7 1.2-2.4 2.1a16 16 0 0 0-3.7 5.2 60 60 0 0 1-6.6 12.3 32.6 32.6 0 0 1-13.9 7.2c-.7 0-1.8-.6-2.4-1.2zm-475.2-1.6a10 10 0 0 0-3.6-3.2l-2.6-1.4v-4.3c0-2.3-.5-5.4-1.1-6.8l-1.2-2.5h-2.3c-1.2 0-2.5-.4-2.8-1-.3-.4-1.8-1-3.4-1.4l-3-.5L326 218v-2c0-1 1-2.3 2-3l2-1 3.7 3.8c4.7 4.7 10 8.3 12.1 8.3 3 0 8.1 5.7 11.2 12.4 1.7 3.6 3.5 6.7 4 7 1.4.9 1.3 4.9-.2 6.4-.6.6-1.7 1.2-2.4 1.2s-1.7-.9-2.2-1.8zm385.8-1.7-1.1-2.5 2.3-2c2.5-2 9.8-3.4 12.4-2.4l1.6.6v6l-8-1.4-1.7 2c-1 1.2-2.4 2.2-3 2.2-.8 0-1.9-1.2-2.5-2.5zm4.7-9.5c-.8-1.3 2.4-6.2 3.8-5.8 1.7.6 3 3.4 2.3 5.1l-.6 1.7h-2.5c-1.3 0-2.7-.5-3-1zm72-.9c-.5-1-5.4-2.3-9-2.5l-2-.1-.3-2.8-.4-2.8 1.5-.5c.8-.3 4 .6 7 2l5.7 2.7v3.6c.2 1.1-1.8 1.5-2.4.4zm-323-6.8a4 4 0 0 1-.6-2c0-.8 3-4.6 6.9-8.6 3.8-4 7.9-8.5 9-10 1.3-1.5 2.9-2.7 3.7-2.7.8 0 1.7.6 2 1.4.7 1.7-4.2 11.5-6.1 12.2-.8.3-3.1 2.8-5.1 5.5l-3.6 4.9h-2.7c-1.6 0-3-.3-3.5-.7zm-244.7-2a34 34 0 0 1-9.1-9.8 8 8 0 0 1 0-2c.2-.5-.3-2-1-3.2-.7-1.3-2-2.3-3-2.3h-1.8l-1.3-4.3 2.9-2.9 2.6 1.3c1.5.6 3.5 2.6 4.6 4.3 1 1.8 2.6 5.6 3.6 8.6s2.8 6.5 4.2 7.8 2 2.7 1.8 3.2l-.8 1-2.7-1.7zm527.6.8c-.2-.3-.4-1.3-.4-2.2s.7-2 1.5-2.3c1-.4 3-.6 4.5-.6 1.6 0 3.1-.5 3.5-1 .3-.6 1.9-1 3.4-1h2.8l.7 1.5c.3.9.6 2 .6 2.5s-1 1.1-2.2 1.5a53 53 0 0 1-14.4 1.6zm50.2-.8c-1.2-1.3-.6-3.4 2-7.4l2.6-4h3.8v-4.9l3-1.5c1.6-.9 3.7-1.5 4.8-1.5 1 0 2.5.6 3.1 1.4l1.2 1.4-2.1 1.8a261 261 0 0 0-8.9 8.6 42.4 42.4 0 0 1-7.8 6.8c-.5 0-1.3-.3-1.7-.7zm-67.5-2.6c-.5-1.2-.7-3-.4-3.7.8-2.3 5.5-7 7-7 .6 0 1.7.8 2.2 2l1.1 2-2.6 2.2c-1.5 1.2-3 3.3-3.5 4.5-.5 1.2-1.4 2.3-2 2.3-.5 0-1.4-1-1.8-2.3zm35.6-3.4c-1.1-1-.9-3.3.5-4.9l2.5-2.9c1.6-1.8 8.5-3.8 10.7-3 .8.4 1.6 1.5 1.6 2.6v1.9h-2c-1.1 0-2.7 1-3.6 2.3a7.3 7.3 0 0 1-3.7 3c-1.2.2-3 .7-3.8 1-.8.4-1.9.4-2.2 0zm-324.4-1.7c-.7-2 5.8-13.7 8.9-16l2.6-2 3 2.5-2.5 4.7c-1.4 2.5-3.2 5-4 5.4-.8.5-1.4 1.5-1.4 2.2 0 1.8-2.8 4.6-4.6 4.6-.8 0-1.7-.6-2-1.4zm-19-2c-.8-2 2.4-8.8 5.9-12.4l3-3.2h4.7v1.8c0 1-1.8 3.9-4 6.3s-4 5-4 6c0 1.5-2 2.9-4.1 2.9-.6 0-1.2-.6-1.5-1.3zm94.3-1.8a6 6 0 0 1 .4-4c.5-1 2.3-2.5 4-3.4 5.4-2.8 6.6.5 2.2 6.1-1.6 1.9-3.5 3.5-4.4 3.5h-1.7zm226.6 1c-1.7-1.7-1.6-4.5.2-5.2.8-.3 2.5.3 3.7 1.2l2.2 1.8-.6 1.7c-.8 2-3.8 2.2-5.5.5zm-523.9-3c-1-1.6.4-3 2.6-3h2l-.3 1.7c-.4 2-3.3 2.9-4.3 1.3zm0-5.6c-.8-.9-1.5-2-1.5-2.4 0-.4.6-1.3 1.3-1.9l1.3-1 4.4 3-1 2c-.6 1-1.5 1.9-2 1.9s-1.6-.8-2.4-1.6zm266.3-7.1c-1.7-1.6-.4-4.5 4-9.3a20 20 0 0 1 5.9-5c1.4 0 5.8-4.1 7.3-6.9.6-1.2 1.8-2.1 2.6-2.1s1.8-.8 2.3-1.6a84 84 0 0 1 7.3-8.2l6.4-6.5 4.4-2c2.4-1 5.5-3.1 6.7-4.5l2.3-2.5 2.5.6c3 .8 5.8 3.5 5.3 5-.2.6-1.4 1.3-2.8 1.5-1.3.2-3 1-3.9 1.7s-3.8 2-6.5 3l-5 1.7-6.2 6.6c-3.5 3.7-6.3 7-6.3 7.3 0 .4-1.5 1.6-3.3 2.7a17.3 17.3 0 0 0-5.1 5.6c-1 2-2.7 3.8-3.6 4a29 29 0 0 0-6.4 5c-4.4 4.3-6.5 5.4-8 3.9zM311 198a11 11 0 0 0-2.9-4.2l-5-5.1-3.2-3.9.4-1.8.5-1.9-6.8-5.1v-2c0-1 .9-2.3 2-2.9l1.8-1 9.7 8 .1 2.4c.1 2.5.8 3.7 6.4 11 1.6 2.3 3.3 4.6 3.6 5.3.4.7.4 2 0 2.8l-.5 1.5h-4.8l-1.3-3zm471.2 1.6c-.7-.8-1-1.9-.6-2.4l.6-1-6 2.3-2.5-2.6 6.5-5.8h5l-.2-1.8-.3-1.7 3-.3c1.6-.2 4-.8 5-1.4s3.2-.9 4.5-.7c1.2.2 2.7 1 3.3 2l1 1.6-3.4 7.3-3.2 1.3c-1.8.7-3.9 2-4.6 3-.8 1-2.6 1.7-4.1 1.7s-3.3-.7-4-1.5zm12.1-8.8c.4-.7.6-1.4.4-1.6-.2-.2-2 .2-4 1s-3.2 1.6-2.9 2.1c.7 1.2 5.6 0 6.5-1.5zm-225 7.6c-.6-.3-1.2-1-1.2-1.8s.9-2 2-3l2-1.8 1.5.6 1.6.6-.3 1.7c-.4 2-3.9 4.3-5.6 3.7zm-95.2-8.2v-3l5-5.2c2.7-3 5-6.1 5-7 0-.9 1.1-2.1 2.5-2.8 1.4-.6 3.2-1.1 4-1.1.7 0 1.5.7 1.9 1.5l.6 1.6-4.6 4.1a31 31 0 0 0-6.4 8.4c-1.7 3.9-4.4 6.4-7 6.4-.5 0-1-1.3-1-3zm-16.7-10.7c-.9-2.3 1.5-7 5.8-11.5l3.9-4h4v2c0 1-.7 2.4-1.6 3.1a14 14 0 0 0-3 4.3c-1.6 3-6.2 7.6-7.7 7.6-.4 0-1-.6-1.4-1.5zm-27-2.7c-.4-.7-.7-2.1-.5-3.2.4-2.3 5-7.5 6.6-7.6.6 0 2.1-1.3 3.4-3 2.4-3 5.5-3.9 6.7-1.9.4.6.2 2.3-.5 3.8l-1 2.7-8.2 4.6-2 5.9H433c-1 0-2.2-.6-2.6-1.3zm-46.9-3.7a42 42 0 0 1-6.7-1.9c-3-1.2-5.4-5.1-4.5-7.5.4-.8 2-1.8 3.7-2.1l3-.7 7.8 1.8c4.3 1 8.5 2.4 9.5 3.2 1 .8 1.7 2 1.7 2.8 0 1.7-3.7 4-7.5 4.6a24 24 0 0 1-7-.2zm.2-3.7a1 1 0 0 0-1.3 0c-.4.4 0 .7.6.7.8 0 1-.3.7-.7zm6.6 0c-.7-.3-1.8-.3-2.5 0s-.1.5 1.2.5 2-.2 1.3-.5zm93.8-3c0-1.4.5-4.5 1.2-6.7l1.2-4.1 5.5-5.3c3-3 7.5-6.4 10-7.8a19 19 0 0 1 6.7-2.4h2.4l.6 1.5c.9 2.2-1.2 6.5-3.1 6.5-.8 0-1.5-.5-1.5-1.1 0-.6-.6-1-1.3-.7-.7.2-1.2 1.1-1.2 2 0 2.1-2.5 4.8-4.4 4.8-2.2 0-9.1 6.5-9.1 8.5s-2 5.7-3.4 6.7c-.6.4-1.7.7-2.4.7h-1.2v-2.6zm-20-6c0-.9.5-3.3 1.1-5.4l1.2-3.8 4.4-4.6c2.4-2.5 4.8-4.5 5.3-4.5.6 0 1-1.1 1-2.4 0-1.4 1.2-4.8 2.6-7.6l2.7-5.1 4.2.6-.2 1.5c-.1.8-1.3 4.5-2.6 8.3l-2.5 6.8-5.6 6c-3.1 3.2-5.6 6.7-5.6 7.7s-.6 2.3-1.2 3c-.7.6-2 1.2-3 1.2H464v-1.7zm-192.2-3.8-3.6-2.4-2.3-5.8c-1.2-3.2-3-6.4-3.9-7.1-.8-.7-2.3-3.2-3.2-5.5l-1.6-4.2-5-.6-6.5-8 .6-1.5c.3-.8 1.4-1.4 2.4-1.4s3.3 1.2 5 2.7l4.9 4.3a32.8 32.8 0 0 1 8.3 12c0 1 1.4 3 3 4.3 1.7 1.4 3 3.4 3 4.4 0 1 .4 2.3 1 2.8.8 1 2.6 8.5 1.9 8.4-.2 0-2-1.1-4-2.4zm113.5-1a4 4 0 0 1 2.3-5.2l1.6-.7 1.3 1.7c.7 1 1 2.6.7 3.7l-.5 2H386zm4-8.1-.6-1.6 2-2.7c1-1.4 2.6-2.6 3.4-2.6 1.7 0 2.3 3.8.9 6.4-.6 1.1-2 2-3.1 2s-2.3-.7-2.6-1.5zm-99.9-4.2c-4.6-5-15.8-29.8-14.8-32.9.2-.6-1-2.1-2.9-3.4-3.8-2.6-9.8-9-9.8-10.4 0-.6-1-1.7-2.2-2.4-1.3-.8-5.3-3.7-9-6.4s-6.8-5.6-6.8-6.4v-1.3h-2.6c-2.7 0-6.8-2.7-11.2-7.3-1.5-1.5-3-2.7-3.6-2.7-.5 0-3.3-2.5-6-5.4-2.8-3-6.5-6.1-8.1-7-1.7-.8-4.8-3.2-7-5.3a31.9 31.9 0 0 0-6.8-5 37 37 0 0 1-7.1-5.4 25 25 0 0 0-7.3-4.8l-2.8-.9-4.8 1.8-1.7-1.5a7 7 0 0 0-3.8-1.5c-1.1 0-2.3-.4-2.6-.9-.7-1.2-7.4-1.3-8.1-.1-.4.5-2.9 1-5.6 1a17 17 0 0 0-6.8 1.1l-2 1.2-6.6-3.3-1.1 1.5-1.1 1.4-6-2.3-7.7 3.6-11.4-1-5.9 1.4a117 117 0 0 1-19.2 4l-5.4.5-4.5-4.2-7.6.2c-4.2 0-8-.1-8.3-.5-.4-.4.6-2 2.2-3.6l2.8-3h2.4c1.3 0 3.4.7 4.7 1.5l2.5 1.6 1.6-1c1-.4 2.6-.6 3.6-.4a4 4 0 0 0 3.3-.7l1.4-1.1.6 1c.3.4-.1 1.4-1 2-1.9 1.7-1.9 4 0 4 .9 0 1.6-.4 1.6-.9 0-1.1 9.9-6 12.1-6 .8 0 2 .5 2.6 1.1l1.2 1.2 11.1-3.5 12.2-.4c6.6-.3 12.6-.9 13.3-1.4a27 27 0 0 1 8.6-1.4c4-.2 8.2-.7 9.3-1.1l1.8-.8L161 28l1.7 2.3 2-1.1c2.7-1.4 7.6-1.5 8.9-.1 1.5 1.5 15 4 20.3 4a76 76 0 0 1 20.7 2.1c.3.5 2 .9 3.8.9 1.8 0 5.1.9 7.4 2 2.3 1.1 5.9 2 8 2 2 .1 7-.4 11-1l7.4-1.2 7.9 2 1.4-1.4c1.6-1.6 5.1-1.9 6-.5l.5 1 20.2-.2.7 1c.6 1 11.3 2.4 19.5 2.6l3.9.2 4.1 5.5-2 2-5-1c-2.7-.6-7.6-1.2-10.9-1.5-3.3-.2-7.6-.8-9.5-1.4-1.9-.6-5-1.1-6.7-1.1h-3.2l1 2.7-3.7.5c-5 .6-12.9-.9-18-3.3l-4-2h-7.2c-4 0-9.2.6-11.7 1.3l-4.5 1.2-3.3-1.3c-3-1.3-5.2-1.8-16-4-2.3-.5-4.9-1.1-5.7-1.4l-4.3-1.2-2.7-.6v1.5c0 .9.5 1.6 1 1.6s4.9 3.6 9.6 8c4.6 4.4 9 8 9.7 8 1.6 0 6.7 5.1 6.7 6.7 0 1.8 3.1 4.4 4.5 3.9.7-.3 2.1.4 3 1.4 1 1.1 2.6 2 3.6 2s3.3 1.2 5.1 2.7c1.8 1.5 4 3.2 5 3.8 6.8 4.2 7.7 5 23 21.1l8.6 9.1.7 4.9c.7 5.3 3.6 12 7.2 17a11 11 0 0 1 2.3 4.7c0 2.2 2 5.8 4.3 7.5 1 .7 1.7 2.1 1.7 3.2v2h-1.4c-.8 0-2.7-1.3-4-2.8zm-13-99.1c-.6-.5-4.1-1.2-8-1.6l-7-.7 1 1c1.2 1.2 4.5 1.8 10.5 2l4.4.2zm-78.8-2.8a1 1 0 0 0-1.4 0c-.3.4 0 .7.7.7s1-.3.7-.7zm-2.3-2.8a2.5 2.5 0 0 0-2.1-1.5h-1.6l1.3 1.5c.7.8 1.6 1.5 2 1.5s.7-.7.4-1.5zm47.9 105.7c-.7-.2-1.3-1.5-1.3-2.9v-2.5l1.7.3c2 .4 3 3.6 1.7 4.8-.5.5-1.5.6-2.1.3zm99.7-4.8a35.5 35.5 0 0 1-6.3-7.3c-.3-1-.8-2.9-1-4.4a11 11 0 0 0-2.9-4.7 7.8 7.8 0 0 0-4.3-2h-2.2l-.6-2-.5-2h-2c-1 0-2.6-.9-3.5-1.9l-1.7-1.8 1.4-1.9 1.4-1.9 4.9 2.4c5.4 2.6 12.9 10 17.8 17.6a56 56 0 0 0 6.4 7.9c1.7 1.6 3.1 3.5 3.1 4.2s-.9 1.8-2 2.4l-2 1zm195.6 2.5c-1-1.6.5-7 2.1-7.6 2-.8 4.4 1.5 4.4 4.1v2.2l-2.6 1.2-2.9 1.2c-.2 0-.7-.5-1-1zm-184.2-3.5-.6-1.5 2.7-3.5c1.4-1.9 3-3.4 3.6-3.4.5 0 1-1.4 1-3v-3l4.2-2.8c2.3-1.6 6.3-4 8.7-5.3a43 43 0 0 0 13-9.3c1.1-1.3 3.5-3 5.3-3.7 1.8-.7 4.4-2.1 6-3.1 1.4-1 4-1.8 5.7-1.8h3.1l.6-1.5a15 15 0 0 1 4.4-4l4-2.5h4.8c2.7 0 6.5-.7 8.5-1.5 2-.9 6-1.5 9-1.5h5.4l3.7-2.6c4.2-2.8 19.7-10.4 21.3-10.4.6 0 1.5-.7 2.2-1.4 1-1.2 5.1-2.5 10-3.2.9-.1 3.6-1.2 6-2.3l4.6-2 9.5-.1 9.8-7.1 5.7-1c3.1-.4 6.3-1.3 7-2 .7-.5 2-.7 2.9-.3l1.6.6 2.5-1.6c1.4-1 2.5-2 2.5-2.6 0-1.6-3.3-2-6.9-1l-5.2 2c-.8.4-4.1 1.3-7.3 2a20 20 0 0 0-6.2 2.1c-.3.5-1.7.9-3.2.9a19 19 0 0 0-6.7 2c-2.2 1-4.4 2-4.9 2a17 17 0 0 1-4.1-1.6l-3.3-1.6-5.5 2.6c-3 1.4-5.8 3.3-6.1 4l-.6 1.6h-3a13 13 0 0 1-4.8-1 89 89 0 0 0-29.8-7.3l-8-.5-6.7-4-11.3-.2c-6.3 0-12-.3-12.7-.6-.7-.2-5.6-.6-11-.7l-9.8-.3-1-1.2-1.2-1.1.6-1.7.7-1.7 17.7.7 24.2 1.2 6.5.4 2.2 1.5c1.3.8 3.2 1.5 4.3 1.5s2.3.5 2.6 1.1l.7 1.1 12.6-1.1 6.8 2c3.8 1.2 8.2 2.3 9.9 2.6 1.6.3 3.4 1.2 4 2l1 1.4 3.9-2c7.9-4.5 16.2-6.3 19.4-4.2l1.4.8 2.6-1.3a12 12 0 0 1 4.5-1.4c3 0 21-5.1 23.4-6.6 1.2-.8 3.1-1.4 4.2-1.4s2.2-.5 2.6-1c.3-.6 2.2-1 4.2-1h3.5l-.5 2c-.3 1 0 2.2.4 2.6.6.3 2.4 0 4-.7l3-1.2 4.7 2.2 1-1.2c.6-.7 3-2.1 5.6-3.2 2.5-1.1 4.6-2.6 4.6-3.4V38l-2.3.7a21 21 0 0 0-4.2 2 24 24 0 0 1-7.2 2l-5.2.6-1.8-1-1.8-1 2-.7 4-1.4c1-.5 5-1.8 8.9-2.9l6.8-2 2 1 2 1 1-1.3a6 6 0 0 0 .8-2.5c0-.7 1-1.9 2.2-2.7l2.1-1.5 3.4 1.8 10.5-6.6 5 2.5c2.8 1.3 6.2 2.5 7.7 2.5a64 64 0 0 0 16.7-2.5c2.2-1.7 13.1-5 24.4-7.5 16-3.4 21-4.2 24.8-3.6 1.7.3 3.7 1.1 4.3 1.9l1.2 1.4h4.4c2.4 0 5.9.6 7.6 1.3l3.3 1.4L697 20l18-6h13l9.2-4.3 8.2.8c4.5.4 10.8 1 14 1 3.1.2 6.3.7 7 1.3l1.2 1 21-.2 5.2 2.2c3 1.2 6.3 2.2 7.5 2.2h2.2l7.5 7.3 4-3.3 21.2-1.2 24.8 3.6 16.7-4.6 5.6.7a39 39 0 0 1 10.8 3.1c3 1.4 6.4 2.5 7.7 2.5 1.2 0 2.8-.6 3.4-1.4.6-.8 3.2-2.2 5.7-3.1l4.5-1.7 7.4.9 5.7-2.4a31 31 0 0 1 8.4-2.3h2.6l1-3.8 3.1-.5c1.8-.3 5 .1 7.3.9l4 1.3 10.6-3.8 5.5 1 6.4-3.2a58 58 0 0 1 17.4-6l4-.8 10.9 3.1L1024 3l1.2 2.1c.6 1.2.8 3.2.5 4.5l-.6 2.4-2.6.7c-1.4.3-6.5.3-11.2 0l-8.7-.8-1.6-1.4c-.8-.8-2.2-1.4-3-1.4s-2.4 1-3.5 2c-1 1.2-3.7 3-5.9 4a115 115 0 0 1-20 7.3c-1 0-3.5-.3-5.4-.8l-3.4-.8 1.4 5.3-1.6.6c-1 .4-2 1.7-2.5 3l-1 2.3-3.7 1.6c-2 1-6.7 2.1-10.2 2.7l-6.4 1.1-9-2.4-1.7 1.5c-.9.9-2.2 1.6-2.8 1.6s-2.2 1-3.4 2.5-2.7 2.5-3.4 2.5-1.8-1-2.7-2.3l-1.5-2.2-1.8 1.6c-1 1-3.3 2-5 2.3l-3.2.7-.6-1.7c-.3-.9-.4-2 0-2.5.3-.5 1.2-1 2-1h1.5l-.6-5.3-3-1.6a61 61 0 0 0-7-3l-4-1.4-15.2.1-4.7 2.6-25.3-.1-2.1-1.1-2.1-1.1-15.6.2 3.4.6c1.8.4 3.8 1.4 4.4 2.4s.8 2 .5 2.3c-.3.3-5.5.1-11.4-.4l-10.7-1-5-3a19.7 19.7 0 0 0-6.2-3.1 74 74 0 0 1-9.7-2.9l-8.4-2.8-2 .8c-1 .4-4.9.7-8.4.8-6.3 0-14.6-1.5-20.4-3.8a27.5 27.5 0 0 0-14.2-.2l-2 .8 2.9 1.2c1.5.6 3.7 1 4.9 1s3.5.5 5.2 1c1.7.6 5.7 1.6 9 2.4l6 1.3 1 1.7c.5.8.7 1.8.4 2.2-1.1 1-10.2.8-17.4-.5-3.8-.7-9-2-11.5-3l-4.5-1.8-16.5-1-.5.8c-.8 1.3-6.9 3-15.9 4.4l-7.9 1.2-4.6-.8c-2.5-.5-7.3-1.1-10.6-1.5-6.7-.7-11.5-2.4-13.4-4.8-.7-.8-2-1.5-2.8-1.5s-2.1.6-3 1.5c-.8.8-1.9 1.2-2.4.9-.5-.3-2.1.1-3.5 1l-2.5 1.7-10.2 1.5c-5.6.8-10.8 2-11.6 2.7-.8.6-2.2 1-3.2.9l-1.8-.3-2 4-4.8.6c-2.7.4-6.2 1.5-7.9 2.4l-3 1.8-11.3.1-.6-2-.7-2-5.8 1.3v-1.6c0-.8-.6-1.5-1.3-1.5s-1.8.9-2.5 2c-.7 1-1.8 2-2.6 2-.7 0-1.9.6-2.6 1.4-.6.8-1.7 1.3-2.3 1.2-.7-.2-.9-.1-.5.1.5.2.8 1.3.8 2.3v1.8l-4.1 1.3-2.6-2.1-1.8 2c-1 1-2.2 2-2.7 2s-2.8 1.8-5 4-4.7 4-5.4 4c-.6 0-1.7.6-2.4 1.4-.6.8-3.6 2-6.7 2.7l-5.5 1.2-1.4-2.2-1.4.9c-.8.5-2.4 1-3.5 1s-3.4.7-5 1.5l-3 1.6-5.4-1-2.5 2A41 41 0 0 1 508 68l-4.3 2h-12.2l-2.2 1.9a22 22 0 0 1-7.3 3 53 53 0 0 1-6.2 1c-.7 0-2.1 1-3.1 2a20 20 0 0 1-11.6 5.6l-4.1.7-5.1 5.7-4.8 1.6c-2.6.9-8.5 1.8-13.1 2-4.6.4-10 .7-12.2 1l-3.8.3-3.1 2.8-4.5 4.1c-.8.7-2.4 1.3-3.7 1.3-1.3 0-4 .6-5.9 1.5-3.3 1.3-8 5-13 10a13.6 13.6 0 0 1-4.3 2.9 8.4 8.4 0 0 0-3.4 2.1 5 5 0 0 1-3.5 1.5h-2.2l-3.4 3.2a72.7 72.7 0 0 0-7.3 8.5c-3.3 4.7-6.2 7.3-8 7.3-.4 0-.9-.7-1.2-1.6zm191.5-83.3c-.2-.8-1.2-1.7-2.3-2.1-2.5-1-6.5.4-6.5 2.2v1.3h9zM600.6 35c.4-.6.2-1-.4-1s-1 .4-1 1c0 .5.1 1 .4 1s.7-.5 1-1zm317.8-.7c1-.9 1.8-2.2 1.8-2.8 0-.6-.6-2-1.3-3l-1.3-1.8-2.2 1.4c-1.2.7-2.2 2-2.2 2.6 0 .7-1.2 1.5-2.6 1.9l-2.5.6.8.8c.7.7 2.8 1.2 6.7 1.8.5.1 1.8-.6 2.8-1.5zM572 31.1c0-.6-.4-1-1-1-.5 0-1 .4-1 1s.5 1 1 1c.6 0 1-.5 1-1zm359.1.5-.6-2-.6-1.5h-4.8v1.4c0 .8.6 1.6 1.2 1.9 1.6.6 4.8.8 4.8.2zm18.8-3.8 2.2-2V19h-4c-2.2 0-5 .5-6.3 1.1a117 117 0 0 1-3.6 1.8c-.8.4-1.9 1.3-2.4 2.1l-.9 1.5 1 2.5 1 2.5 10.7-.7zM968 16l-1.8-1-3.5 2h7zM723 137c0-.6.5-.8 1-.4.6.3 1 .8 1 1s-.4.5-1 .5c-.5 0-1-.5-1-1.1zm-401-4-4.4-4 2.2-2.2 2.3.6c1.3.3 3.8 1.5 5.6 2.7l3.4 2-.7 4.5-4 .5zm-74.5-.4-.5-1.5h1.3c.8 0 1.7.6 2 1.5l.5 1.5h-1.3c-.8 0-1.6-.7-2-1.5zm55.5-1.5c-1.5-2.7-1.3-5 .5-5.7l1.5-.6 2 1.8c1 1 2 2.8 2 4.1v2.4h-5zm508.7-1.2c-.9-.5-1.6-1.6-1.6-2.3 0-.8 1.4-2.8 3.1-4.5l3.1-3.2-1-1.1c-.7-.6-1.2-1.7-1.2-2.4s1.4-2 3.2-3l3.6-1.9c.2-.1-.2-1.2-.8-2.4l-1.1-2 1.7-3c1-1.7 2.1-3 2.5-3s1-1 1.4-2l.6-2 5-1.3-1-5.6 2.1-2.8a23 23 0 0 1 3.5-3.8c.6-.6 2-2.8 2.8-4.9l1.6-3.8 6-2 1.7-3.7 1.7-3.6 3.2-1a14 14 0 0 0 4.5-2.4c1.2-1.1 1.7-3.9 1.8-9.9v-2.2l2.2-1.4a18 18 0 0 1 5-2l2.7-.6 1.5 2.2a8.5 8.5 0 0 1 1.6 3.5c0 .7-.8 1.6-1.8 2-2.3.8-8.2 5.6-8.2 6.5 0 .4 2 .8 4.7.8h4.7l7.7-5.4-.7-2c-.3-1.2-.7-3.5-.8-5l-.1-3 3.6-1c3.7-1.2 9.9-6.3 9.9-8.3 0-.6.7-1.4 1.7-1.8l1.6-.6 5.8 5.5-1.7 1.2c-.9.7-2.2 1-3 .7l-1.4-.5-.7 1.8c-.4 1-1.5 2.5-2.6 3.2l-1.8 1.4.6 2.6.5 2.7-2.7 3a35.6 35.6 0 0 1-5.3 4.6c-1.4 1-2.2 2-1.7 2.5l.7.8 7.8-2.1 1.6.9c.8.4 1.3 1.4 1 2.2-.7 1.9-7.7 4.8-10.5 4.4l-2.4-.3-.3-2.3c-.2-1.2-.7-2.2-1-2.2-.5 0-1.3.4-1.9 1-.5.6-3.1 1.2-5.8 1.3l-4.8.3-2.4 3.4-6.3-1.3v1.6c0 1 .4 1.7 1 1.7s1 .8 1 1.8v1.8l-3.8 1.1-7 1.8-3.2.6v3.9l1.8-1.2c1-.6 2.7-.9 3.6-.5a4 4 0 0 1 2.2 2.2c.3.8 0 2.1-.6 3-.7.8-2.6 2.1-4.3 3l-3.2 1.5-5.5-1.2v1.9c0 1-.4 2.3-1 2.8-.5.5-1 2.3-1.2 4l-.3 3-5 2.4-.7 2.8-1.6 6.2-.8 3.5-5 1.1-.2 3.7-.4 3.8-1.9 1c-1 .6-2 1.6-2 2.4 0 1.7-3.2 2.6-5.3 1.4zM885 50.2l1.4-.9-1.1-.7c-1.3-.8-3.1.1-3.1 1.5 0 1.2 1 1.2 2.8 0zM295.2 126a15 15 0 0 1-2.7-6l-.6-3.9-5.2-5.9c-2.8-3.2-6-7.3-6.9-9l-1.7-3.1h-3.7l-2.5-9.7-5-3.8a32 32 0 0 1-5.8-5.4l-1-1.6-1.2 1.2c-.7.7-2.1 1.3-3.2 1.3H254l.7-3.5 10 .6 2 1.7c1 1 3.2 2.4 4.7 3.1 1.5.8 3.3 2.3 4 3.5a31 31 0 0 1 2.5 6l1.2 4 8 8c4.4 4.5 8 8.8 8 9.7 0 .8 1 4.2 2 7.4l2 5.8-1.7 1.8zm-79.2-4.4c-.6-.8-1-2.3-.8-3.2l.3-1.8h2.4c1.3 0 2.8.7 3.4 1.6.6.9.7 2.3.4 3.2-.3 1-1.5 1.7-2.5 1.7s-2.5-.7-3.2-1.5zm405.1-.1v-1.6l1 .7c.6.3 1 1 1 1.5s-.4 1-1 1c-.5 0-1-.7-1-1.6zm184 .1c0-.8.8-1.5 1.7-1.5.8 0 1.4.5 1.1 1.1-.6 1.9-2.7 2.2-2.7.4zM300.7 118l-1.8-4 2.5-3 1.9 1.7 1.8 1.7v7.7h-1.3c-.7 0-2-1.9-3-4zm508-2c-.4-.6-.3-1.5.2-2l.9-.9 1.3.9c.8.5 1.1 1.3.7 2-.8 1.4-2.2 1.4-3 0zm-513.8-8c-1-.6-2.5-2.5-3.4-4.2s-2.3-3.8-3-4.5c-1.8-1.8-1.8-4.2 0-4.2 1.4 0 10.6 8.6 10.6 10 0 1.4-1.2 4-1.8 4-.4 0-1.5-.6-2.4-1.1zM383 97.6c-.7-.8-1-2-.6-2.5l.7-1h12.5l1.2-4c.6-2 1.8-4.4 2.7-5l1.5-1.3 9.4 1.1 6.9-1.4c3.7-.8 7.7-2 8.9-2.6 1.1-.6 5-1.3 8.4-1.5l6.4-.5v3.9l-6.6.7c-3.7.3-8.5 1.3-10.8 2.2a94.2 94.2 0 0 1-19.4 5.5l-2.2-.1-1 1.8c-1.3 2.6-9.2 6.2-13.4 6.2h-3.4zm-100.9-5.1-2.2-1.6v-4.8h1.9c2.2 0 5.5 4.5 4.7 6.5-.3.8-.9 1.5-1.3 1.5a9 9 0 0 1-3-1.6zm90.2-.9c-.3-.8-.2-2 .1-2.5.4-.6 2.8-1 5.5-1h4.8l.6-2.1.5-2.2 1.3.5c.8.2 1.5 1.4 1.7 2.7l.3 2.2-3.5 3.9H373zm-4.6-1c-.3-.4-4.1-1.1-8.4-1.6-13.5-1.7-15.8-2.1-17.2-3.2l-1.3-1-11.8.4-6-3.1h-6c-3.2 0-6.6-.3-7.5-.6a3 3 0 0 1-1.6-2.5v-2h1.8c1 0 2.3.5 2.8 1l1 1 3.9-2.7-5-.7-6.2-1a2.2 2.2 0 0 1-1.3-1.9v-1.4l6.4-1 4.8 1.7c2.7 1 6 2.8 7.3 4l2.5 2.4 16.7.5 3 1.5c1.8 1 7.6 2.1 13 2.8s10.4 1.6 11.1 2.1c.8.6 1.2 2 1 3-.3 2.1-1.9 3.3-3 2.2zM468.6 88c-.4-.7-.3-1.7.2-2.2l1-1 .8 1.2c.4.6.2 1.6-.3 2.1l-1 1zm-79.3-3.7c-2.3-1-1.3-3.4 2-4.8 1.8-.7 8.4-2 14.8-3l11.5-1.7 4-1.9c2.3-1 5.8-2 7.8-2h3.6l2.1-4h6c3.2 0 6-.3 6.3-.7a22 22 0 0 1 7.6-1l7-.2v1.4c0 .8-.7 2-1.7 2.5s-4.1 1.1-6.9 1.3c-2.7.3-5.6.8-6.4 1.3-.8.5-2.3 1-3.4 1l-5.1.3-3.1.2-1.1 2.3-1 2.4-4 .6c-2 .4-7.8 1-12.7 1.6a108.8 108.8 0 0 0-24 4.2c-1 1-1.4 1-3.3.2zm-112.5-3.7c-.9-.9-2.8-2-4.2-2.6l-2.6-1v-4h1.8c1 0 3 1.3 4.6 2.9l2.8 2.9-.3 1.7-.4 1.8zM291 74c-2.6-1-7-4.7-7-6 0-1.2-6.7-7.4-9.4-8.6-1.5-.7-4-1.2-5.7-1.2-3.6 0-6.9-1.6-6.9-3.4v-1.3l5.3.2c2.8.1 6.7.5 8.4.9l3.3.7 3.2 4.2c1.8 2.3 5.5 6.3 8.2 9l5 4.7-1.9 1.8zm-35.3-9c-1-.5-1.7-1.5-1.7-2.2 0-.7-1.5-2-3.2-3-1.8-.8-5-2.6-7.1-3.9l-3.9-2.2-1.3-3.8c-.7-2-1-3.9-.7-4.2.3-.3 2.3-.2 4.5.1l6.6.9c4.8.3 5.1.5 5.1 2.4v2l-5.1 1.3-1.2-1.1c-.6-.6-1.5-1.1-1.9-1.1s-.8.6-.8 1.5c0 .8 1.1 2 2.5 2.5s3.1 1.4 3.8 2l4.5 3.5c3 2.5 4 4.8 2.4 5.8-.4.3-1.5 0-2.5-.5zm637.1-11.5c-1.2-1.2-.6-4.4.9-5 .8-.3 1.5-1.3 1.5-2.2 0-.9.4-2.2.8-3l.8-1.2 1.7.6a4 4 0 0 1 1.9 2.2l.3 1.7 6-.3c3.3-.2 6.4-.7 7-1.2.5-.5 2.3-1 4.1-1 1.8 0 3.5-.4 3.9-1 .3-.5 1.7-1 3-1 1.4 0 3.4-.5 4.5-1.2l2-1.2 2.4 2.5-1 1.6c-1.1 1.8-10.4 5.2-14.5 5.3a6 6 0 0 0-3.6 1.2l-1.1 1-15-.7-1.1 1.8c-1.2 1.8-3.2 2.3-4.5 1.1zM34.5 50.1c-.7-1 .9-2.3 1.8-1.3 1 1 .8 2.3-.3 2.3-.5 0-1.2-.5-1.5-1zm326 0-1.1-1-13-.1c-7 0-15.5.3-18.6.6l-5.8.6v-1.6c0-1 .6-2.3 1.3-3a14 14 0 0 1 5.8-2c5.2-1 27-1 31.9-.1 1.8.3 4.4 1.3 5.7 2.1l2.4 1.5-1 2-1.1 2h-2.8c-1.5 0-3.2-.5-3.8-1zm10-.4a5 5 0 0 1 0-3.4l.7-1.7 1.1 2.2 1 2.3-1 1.2-1.2 1.1zm215.4-28.3c.7-.3 1.6-.3 2 0 .3.4-.3.6-1.4.6h-1.9l1.3-.6z"/>
</svg>
