<?xml version="1.0" encoding="utf-8"?>
<svg xmlns="http://www.w3.org/2000/svg" version="1.1" viewBox="0 0 1300 527">
	<title>Sketch of a large flat-topped rock in the center, with clouds in the sky to the right and mountains in the background.</title>
	<path d="M1092.2 525c-1.2-1.1-2.2-2.5-2.2-3 0-1 3.2-5 4-5 .9 0 4 6.8 4 8.6 0 2.1-3.3 1.8-5.8-.6zm-9.6-5a7.6 7.6 0 0 1-.7-10.8c2.4-2.8 4.8-2 6.6 2.5.8 1.8 1.9 3.3 2.5 3.3.5 0 1 .5 1 1.2 0 .6-1.2.9-3 .6-2.3-.3-2.7-.1-2 1.2.8 1.7.3 4-1 4-.4 0-2-.9-3.4-2zm-14-8.8c-1.7-2-2.2-7.2-.7-8.7a10 10 0 0 0 1.3-4.4c.4-4.3 2.5-5.1 3.8-1.5a27 27 0 0 0 3.5 5.6c2.6 3 3.2 6.3 1.5 7.3-.5.4-2-1-3-3-2.2-3.5-4-4.6-4-2.2 0 .7.7 2.4 1.5 3.7.8 1.4 1.4 3.1 1.5 3.8 0 1.9-3.5 1.5-5.3-.6zm-962-4.4c0-1.1 6.2-5.8 7.6-5.8a75 75 0 0 0 7.9-5c5.3-3.5 9.5-5.4 15.2-6.9a71.6 71.6 0 0 0 24.5-10.1 9 9 0 0 0 3.7-1.9c4.2-2.9 15.2-5.2 15.2-3 0 1.5-3 3.8-5.2 3.9-1 0-3.4.9-5.3 2-2 1.1-4 2-4.5 2s-3 1.4-5.4 3-5.3 3-6.4 3c-1 0-2.2.3-2.6.7-1 1.1-11 4.3-13.3 4.3a42 42 0 0 0-16.4 8.6c-1.3 1.3-2.7 2.4-3.2 2.4-.4 0-2.7 1-5 2-4.7 2.3-6.7 2.6-6.7.8zm921.4-.5c-3.6-.8-7.2-2.4-8.1-3.4-1.1-1.3-3-1.9-5.7-1.9-2.3 0-4.4-.4-4.7-1s-3.8-1-7.7-1c-8 0-14.8-1.7-14.8-3.6 0-1.3 3-2 7-1.6l6 .3c2.5.2 5.8.8 7.5 1.5 1.6.6 3.5 1 4.2.7.7-.2 1.3 0 1.3.6s1.4.8 3.3.4c2-.3 4.4 0 5.8.9 1.3.7 2.8 1.4 3.4 1.4.5 0 2.1.6 3.5 1.2l6.5 2.4c4.9 1.7 6 4.9 1.8 4.7-1.5 0-5.7-.7-9.3-1.6zm33-4c0-.4-1-1.4-2-2.1-1.9-1.1-2.4-1-3.4.4-1.2 1.5-1.5 1.5-4-1.2-1.4-1.6-2.6-3.8-2.6-4.9 0-1-.7-2.8-1.5-3.8a7.5 7.5 0 0 1-.8-5.1 10 10 0 0 0-.5-5.3c-1.6-3 0-4.8 2.8-3.3 1.2.7 3.8 1.2 5.6 1.2 3.8 0 4.6 2.2 1.6 4.4-1.6 1.2-1.6 1.3 0 1.4 1 0 2-.4 2.3-1 .9-1.5 3.5-1.2 3.5.3 0 .8-1 2.4-2.4 3.6-3.2 3-7 2.1-6.3-1.5.3-2 0-2.4-2-2.4-2.9 0-3.1 2.7-.5 6.1 1 1.3 1.7 3 1.4 3.8-.3 1 0 1.2 1 .9.7-.3 2.2 0 3.3.8 2.6 2 3.4 1.8 4.5-1 .6-1.6 1.7-2.6 3-2.6 2 0 2 .5 1.8 5.8-.3 5-.6 5.8-2.6 6-1.2.2-2.2 0-2.2-.5zm-452.6-7.2c-.7-1.2 6.4-9.7 8.7-10.4 3.2-1 2.6.8-2 6-4.5 5.3-5.7 6.1-6.7 4.4zm407.4-2.4c-2-.7-4.4-2-5.5-2.8-1-1-3.6-2.2-5.8-2.8-4.5-1.2-7.2-2.7-6.4-3.5.8-.9 11 2.2 13 4 1 .9 2.2 1.3 2.7 1 .8-.5 4 1.5 7.6 4.6 1.3 1.1-1 .9-5.6-.5zm17-.6c-3-1-9.3-3.7-14-6.1l-8.3-4.4-15.7-.3c-14.7-.3-22-1.4-20.4-3a189 189 0 0 1 37 1 40 40 0 0 1 8 3.4 138.4 138.4 0 0 0 12.8 6.3c1 .6 2.6 1 3.5 1 2.2 0 5.5 2.5 4.6 3.4-.8.8-.9.8-7.4-1.3zm-411.6-11.6c-.4-1 .3-2.4 1.5-3.6 1.2-1 2.1-2.4 2.1-3 0-1.8 4-5.3 5-4.4 1.3 1.4-2.4 8.9-5.4 10.9-2.4 1.5-2.6 1.5-3.2 0zm20.7-8c-1.8-3-2.5-5.2-3-9.7 0-.4-1.2.4-2.5 1.7-2.4 2.5-5.5 3.3-5.5 1.6 0-.6.5-1.6 1.2-2.3 3.6-3.7 5.8-8 5.8-11.3 0-2 .6-5.2 1.5-7 1.4-3 1.4-3.5-1.5-9.9-3.7-8.1-5-15.7-2.8-15.7 1 0 1.7 1.5 2.1 4.5a25 25 0 0 0 1.6 6.3c2 3.9 5 11 5 12 0 .6-.6 2.2-1.3 3.7-2.3 4.3-1 19.1 2 23.6 1.3 1.9 2.4 4 2.4 4.7 0 2.5-3 1.2-5-2.2zm392.7 2.5a18 18 0 0 0-5.6-.3c-1.4.4-1.9-.5-2.5-4.4-.7-5-1.7-6.3-5-6.3-2.4 0-6.5-5.7-6.5-8.9 0-2.4-.5-2.7-6.8-3.6-2.9-.4-4.1-.2-3.7.4.8 1.4-2.8 1.4-7.6 0-3.7-1.2-5-3.1-3-4.4.6-.3 2.6 0 4.7 1 2 .8 4.1 1.2 4.7.8.6-.4 2.8-.6 5-.5 4 .3 6-.4 5.2-1.8-.3-.5-2-.5-4 0-2 .4-3.5.4-3.5-.1s-.6-.6-1.4-.3c-.8.3-1.7 0-2-.6s-1.6-1-2.7-1c-2.4 0-2.5-2-.2-2.6 1-.3 2.6-1 3.5-1.5 1.7-1 4.8 1.1 4.8 3.2 0 .5.4.7.9.4 1.5-1 7.1.6 7.1 2 0 .7.8 1.5 1.7 1.6 1.3.3 1.7 1.5 1.8 4.6 0 2.4.6 4.8 1.3 5.5 1.9 1.9 2.6 0 1-2.4-1.9-2.9-.7-7.1 1.7-6.2 1 .4 1.5 2 1.5 5.7 0 4.4.3 5.4 2.2 6.2 1.3.6 2.4 2 2.6 3.5.5 3.7 3 6 7.4 6.6 2.1.4 4 1 4.4 1.5.9 1.5-3 2.6-7 1.9zm-84-2.4c-6-2.3-8.5-4.6-4.8-4.6s14.4 4.8 13.6 6c-.8 1.3-2 1.1-8.9-1.4zm-767.5.2c-.5-.7 0-1.6 1-2.2 1-.6 3.3-2.3 5-3.8 4-3.6 1.5-3.7-3.5-.2-3.6 2.4-6 2.5-6 .2 0-.6 1.8-2.6 3.8-4.4 2.6-2.5 4.6-3.4 7-3.4 1.8 0 3.3.4 3.3 1s2.6-.4 5.7-2c4.1-2 7.2-2.9 10.8-2.9 4.4 0 5.3-.3 7.6-3 1.4-1.7 3-3.1 3.7-3.1 1.9 0 7.2-5.1 7.2-7 0-1 1.7-2.9 3.8-4.3a132 132 0 0 0 18.9-17.9c7.7-8 16.5-15.8 19.5-17.5 1.3-.7 1.9-1.3 1.3-1.3-2-.1 10.1-8 13.7-9 2-.7 5.8-2.6 8.5-4.5a109 109 0 0 1 10.3-6.3c3-1.5 6.4-3.6 7.5-4.6 1.1-1 3-2 4-2.2l6.5-1.2c4-.7 4.6-1.3 7-6 2-3.7 2.5-5.7 1.9-7.8-.6-2.1-.2-3.6 1.3-5.7 3.3-4.7 7-3.5 4 1.3-1.3 2.5-1.4 3.2-.3 5 1 1.8 1 2.2-.5 3.3-2.3 1.8-1.1 4.6 1.7 3.9 1.7-.5 2-.2 1.8 1.2-.2 1.2-2.1 2.5-5.1 3.5-2.6 1-5.7 2.7-7 4-2.7 3-8.7 5.5-10 4.2-.6-.7 0-1.6 1.9-2.6 2.3-1.2 2.5-1.5.8-1.5-1 0-3 .8-4.5 1.9s-1.9 2-1.2 2 1.2.6 1.2 1.4c0 .9-1.7 1.6-4.9 2-2.7.3-5.4 1.3-6 2.1-.8.8-2.2 1.5-3.3 1.5-1.1 0-2.2.9-2.5 2-.3 1.2-1.3 2-2.7 2-1.2 0-2.6.4-3.1.9s-3.8 1.8-7.2 3a22.4 22.4 0 0 0-7 3.6 9 9 0 0 1-3 2.4c-2.7 1.4-3.1 4.5-.5 3.7 1-.3 4.4-.8 7.6-1 7.5-.7 12.6-2.1 20.5-5.7 3.5-1.6 6.8-2.9 7.3-2.9s2.1-.9 3.6-2c3.2-2.2 10.4-3 11-1.2.4 1.2-2.8 2.8-7.5 3.7-1.5.2-2.9 1-3 1.5s-1.1 1-2 1c-.9 0-3 1.1-4.9 2.5-1.8 1.4-3.6 2.5-4 2.4-.5-.1-1.5 0-2.4.3-2 .8-15 3.2-17.5 3.3a8 8 0 0 0-3.2.8c-.6.4-1.4.3-1.8-.3-1.8-2.9-9.6 0-14 5.2a45.7 45.7 0 0 1-7 6.3c-4.4 3.1-9 8.3-8.3 9.1.3.2 3.1-1.4 6.3-3.6a59.7 59.7 0 0 1 14.6-7.8c5-2.2 17-3.7 17-2.2 0 .6-1.2 1-2.5 1-1.4 0-2.7.5-3 1-.4.6-2.3 1-4.2 1a82 82 0 0 0-24.9 12c-2.3 2-11.1 7.4-13.7 8.3-1 .4-1.8 1.3-1.8 2 0 .8-1.3 2.4-3 3.6-1.6 1.2-3 2.9-3 3.7 0 .8-.8 1.5-1.7 1.5a9 9 0 0 0-4.2 2c-2 1.7-2.3 2.4-1.4 3.9 1 1.5.6 2-2.1 3-1.8.6-5.5 1-8.2 1-6.6 0-12.3 3-20.3 10.2-6.3 5.8-9.3 7-10.7 4.7zm835 .3c-3.7-.7-5.5-3.1-2.3-3.1 3.9 0 8.3 1.3 8 2.3-.5 1.4-1.6 1.5-5.7.8zM780 467.6c-1-1.1-.8-1.7.5-2.4 1.5-.8 1.3-1.3-1.5-3.8a27.7 27.7 0 0 0-7.4-4.4c-5.2-2-6.7-5.6-1.8-4.6a29 29 0 0 1 13 7c1.4 1.4 3.3 2.6 4.3 2.6 2.7 0 3.4 2.7 1.3 5-2.1 2.3-6.7 2.6-8.4.6zm-530.7-.6c1.3-1.3 11-5 14.7-5.7 2.1-.4 2.7-.2 2.7 1.2 0 1-.3 1.5-.6 1.2s-3 .5-6.1 1.8c-5.6 2.5-12.7 3.5-10.7 1.5zm728.2-1a46 46 0 0 0-7-.9c-3.4-.1-4.6-.8-8.8-5.3-3-3.2-4.7-6-4.5-7.1.4-2.5 6.7-4.7 13.6-4.7 4.5 0 6 .5 9.2 3.1 3.2 2.6 5.5 3.4 11.5 4.3 8.7 1.2 9.7 3.2 1.5 2.8-7.9-.5-12.3-1.8-15.6-4.8-2.7-2.3-3.5-2.5-8.9-2-7 .7-9 2-5.2 3.7 2.1 1 2.4 1.5 1.5 2.6-1.8 2.2 1.6 3.9 10.9 5.3 5.6.9 8.3 1.7 8.3 2.6 0 1.5-1.8 1.6-6.5.4zm-744.8-3.1c0-1.6 3.7-4.7 8.2-7 4.6-2.4 12.8-2.6 12.8-.4 0 1.3-1.8 2-4.3 1.6a38.3 38.3 0 0 0-11.2 5.9c-.8 1.4-5.5 1.3-5.5-.1zm38-3.4c0-.8.9-1.5 2-1.5a26 26 0 0 0 11.3-6c1.1-1.1 2.7-2 3.5-2s2.6-.9 4-1.9a36 36 0 0 1 19.6-4.7c4.8.6 7.8 0 21.6-3.4 2.5-.6 6.2-2.2 8.3-3.6s4-2.4 4.2-2.4c.2 0 2-1.6 3.8-3.6 2-1.9 3.7-3.5 4.1-3.5s1.5-.7 2.5-1.7c4.7-4.4 11.3-8.3 14.4-8.3.7 0 3.2-.8 5.3-1.8 2.2-1 9.8-3.4 17-5.1a235.3 235.3 0 0 0 21-6.1c2.2-.7 4.9-2 6-3a22 22 0 0 1 4.6-2.7c1.5-.6 4-2.9 5.5-5 3.9-5.1 16.3-17.3 17.8-17.3a16 16 0 0 0 4.8-2.5 15 15 0 0 1 5.1-2.5c.8 0 1.7-1 2-2.3.4-1.2 2-4.3 3.6-6.7 1.6-2.5 3.3-5.8 3.6-7.3.8-3.1 10-12.7 12-12.7 3 0 2.3 2-2 6.1-2.5 2.4-4.5 5-4.5 5.7 0 1.4-3.9 9.4-5 10.2-.3.3-2 3.4-4 7-3.7 7.2-6.7 11-8.7 11-2 0-1.6-2 .9-4.7 1.2-1.3 1.6-2.3 1-2.3-2 0-13 8-17.7 13-5 5.3-5.1 6.3-.5 3 1.6-1.1 4.5-2.7 6.4-3.5 3.1-1.3 3.5-1.3 3 0A46.6 46.6 0 0 1 434 396c-.4 0-2.4 1.1-4.3 2.4a56 56 0 0 1-16.4 8.3 120.3 120.3 0 0 1-18 5.4 332 332 0 0 0-18.5 5.2c-9.2 2.9-11.7 4.4-23 14A49.7 49.7 0 0 1 335 442c-1 0-2.8.6-3.8 1.4-1 .8-3 1.5-4.3 1.5-1.3 0-3.3.6-4.4 1.2-1.3.7-6 1-11.1 1-8.4-.2-9.4 0-16.5 3.5a141 141 0 0 0-15 7.8c-5 3-9.2 3.4-9.2 1zm653.9.4c-2.1-.5-5.2-1.9-6.8-3-1.7-1.3-6-2.7-10-3.3-8.7-1.4-8.4-3.2.5-3 5.1.1 7.9.8 12.8 3.3 3.4 1.7 7 3 7.9 3 2 0 4.3 2.4 3.3 3.4-.8.8-2.8.7-7.7-.4zm-499.3-1c-.4-.5-1.5-1-2.5-1-2.9 0-5.4-2.8-4-4.5 1-1.2 1.7-1.2 4.3.2 6 3.1 6.6 3.4 8.7 3.4 1 0 2 .6 2 1.5 0 1.7-7.5 2.2-8.5.5zm9.5-.2c0-1.8 7.4-9.7 9-9.8.8 0 2.4-.7 3.4-1.5s3.3-1.4 4.9-1.4a63 63 0 0 0 27.2-10c2.6-2 8.7-5 10-5 1 0 4.5-3 8.1-6.6 5.8-5.8 8.4-7.2 11.9-6.5 1.4.3 11.7-3.1 13.3-4.4a66.2 66.2 0 0 0 18.6-23.4c2.1-6.7 2.8-7.7 7.9-10.9a31 31 0 0 1 18.5-3.7c7.1 1 5.3 3.1-2.9 3.2-12.5.1-19 5-22.3 16.7-1.3 4.2-2.3 5.8-5.1 7.5-2 1.2-3.5 2.5-3.5 3 0 1-7.5 8.5-11.6 11.7-1.9 1.4-6 2.9-11 3.8-5 1-8.4 2.2-9.2 3.3-4.5 6-6 7.6-9.4 9.3-2 1.1-4.4 2-5.3 2-.9 0-2.7.7-4.1 1.6-10.5 6.9-20 11-26.8 11.7-4.5.4-6.7 1.2-9.7 3.6a15 15 0 0 1-5.2 3c-.8 0-2.2 1-3.2 2-2 2.4-3.5 2.7-3.5.8zm-240.4-3.4c-1.4-2.3 4.7-6.3 9.5-6.3 7.3 0 7.8 4.4.6 5.3-2.4.3-5.5.8-7 1.2s-2.8.3-3.1-.2zm153.3-2.2c0-.7.8-1.5 1.8-1.8 1-.4 2-1 2.2-1.3 1.3-1.6 13-9 14.4-9 .8 0 2-.7 2.6-1.5.7-.9 2.4-1.5 3.7-1.5 1.3 0 2.3-.6 2.3-1.2 0-.7 1.3-.9 3.6-.5 4.8.7 10.5-2.4 10.5-5.7 0-1.5 4.4-5.7 6-5.7.5 0 2-1 3.4-2.5 2.6-2.6 5.6-3.3 5.6-1.2 0 .7-1.6 2.3-3.5 3.6-5.4 3.7-9.4 7.9-10.1 10.6a4.3 4.3 0 0 1-2.9 3 38 38 0 0 0-8.7 6.5c-6.2 5.7-13.4 9.1-15.9 7.5-1.6-1-.2-2.2 3.5-2.9 3.4-.6 13.7-8.8 12.5-9.9-.4-.5-2 .1-10 3.7a78.7 78.7 0 0 0-13 8.7c-.9 1.4-8 2.3-8 1zm-113-2c0-2.8 5-4.5 7.8-2.5 1.8 1.2 2.7 1 8.4-1.8 6.7-3.4 11.2-7.4 10.2-9-.3-.5 0-1.6.7-2.4.9-1.1 1.5-1.2 2.5-.4 1 1 2.5.4 6-2 3-1.9 6-3 8-3 4.8 0 4.2 1.1-1.8 3.8a44.3 44.3 0 0 0-10.3 7.2c-6.3 6-15.6 10.8-21 10.7-2.2 0-5.5.3-7.3.7-2.8.6-3.2.5-3.2-1.3zm715.6 1c-.6-.3-1.3-2-1.5-3.6-.3-2.6-.9-3-4-3.6a21 21 0 0 1-7.4-3.6 35.6 35.6 0 0 0-10-4.9c-10-3-19.5-8.3-19.5-11.1 0-2 2.3-1.7 4.8.6 1.2 1.1 2.9 2 3.7 2 .8 0 1.5.5 1.5 1 0 .6 1 1 2.3 1 3 0 18.7 7.7 20.8 10.1 1 1.2 3 2 4.9 2 1.7 0 4.2.7 5.5 1.5 2 1.4 2.4 2.2 1.9 4.8-.7 3.8-1.5 4.8-3 3.9zm-687.6-3c0-1.3 7.1-7.1 8.7-7.1.7 0 2.4-1.2 3.8-2.6 5.6-5.6 22.2-10.3 28.2-8 2.8 1 .1 2.1-8.7 3.5l-8.6 1.4c-1.3.3-10 7.7-9 7.7.3 0 2.2-1 4.3-2.1 4.1-2.3 4.9-2.6 14.3-4 7.3-1 11.7-2 20.3-4.4 3.2-.8 7.2-1.5 8.8-1.5 1.6 0 3-.5 3-1.2 0-.6-1-.8-2.6-.4-1.5.3-2.5.2-2.5-.5 0-2.4 24.3-11 26.1-9.3 1.4 1.4-1.8 3-13 6.8-4.2 1.4-6.6 2.5-5.5 2.5 2 0 5.4 2.8 5.4 4.4 0 .4-1.6.7-3.5.7s-4.5.4-5.5 1c-1 .5-5 1.2-8.9 1.5a67 67 0 0 0-11.8 2c-2.6.8-5.8 1.4-7 1.4-1.1 0-2.3.6-2.5 1.2-.3 1-1.2 1-3.7 0-3-1-3.9-.9-6.8.9-1.9 1-4 2-4.7 2s-1.9.6-2.5 1.4c-.7.8-3.8 1.7-7 2l-7.3 1.2c-1 .2-1.8 0-1.8-.5zm618.7-1.7a184 184 0 0 0-21-4.5c-18.6-3-20.9-3.5-21.3-4.8-.4-1.1.6-1.3 5-.8 10.6 1.2 44.5 8 45.6 9.1.4.4 0 1-.8 1.6-1.7 1.1-1.2 1.2-7.5-.6zm-146.2-1.2c-.4-1-2.8-4.1-5.5-7-4.2-4.7-6.8-10-6.8-14 0-1.6-3.3-3.3-6.5-3.3-3.3 0-3.4-2.7 0-3.5a16 16 0 0 1 6.1.2c3.1.7 3.7 1.3 3.8 3.6.2 4 2.6 5.8 9.3 6.7 5.7.8 6.6 1.3 13 7.4 5.7 5.5 6.5 6.6 5 7.2-1.3.5-3.2-.7-7-4.6a20.9 20.9 0 0 0-12.1-7.2c-3.8-1-7.1-1.6-7.4-1.3-.4.3 1.2 2.5 3.4 4.8 7.9 8.3 10.3 12.8 6.8 12.8-.8 0-1.8-.8-2.1-1.8zm-499.5-.5c0-.8.7-1.8 1.5-2.1s1.5-.2 1.5.3-.7 1.4-1.5 2c-1.2 1-1.5 1-1.5-.2zm5.7.6c-.4-.4-.7-2-.7-3.5 0-2.1.7-3.2 3.2-4.5a15 15 0 0 0 4.6-3.5c.7-1 1.8-1.9 2.5-1.9s3-.9 5.2-2c2.2-1 4.4-1.4 5-1s1.9.5 3 0c1.1-.3 2.6-.5 3.2-.2 2.9 1 1 2-5.3 2.6-5.1.5-7 1-8.1 2.6-.8 1.1-2.3 2-3.4 2-1 0-2 .5-2 1s2.3.2 5-.7c2.8-.9 5.4-1.3 5.8-.9.9 1-1.3 2.4-4.7 3.3a9.8 9.8 0 0 0-4.3 3c-1 1.3-2.5 2.4-3.3 2.4-.8 0-1.4.4-1.4 1 0 1-3.3 1.3-4.3.3zm752.8-6.3c-1.8-.3-4.1-1.3-5.2-2.3-2.1-1.8-2.7-3.7-1.1-3.7 3.3 0 4-5 3.2-22.9-.2-4.2-2.6-3.8-2.7.4l-.4 4c-.1.5-.2 1.3 0 1.7 1 3 .3 6.7-1.3 7.1-2 .5-2.4 2.6-.5 2.7.9 0 .8.3-.2.9-1.1.7-.9 1 1.3 1.6 3.5.9 3.5 2.7 0 2.3-2-.3-3-1-3.2-2.6-.3-2.7-1-2.8-2.6-.7-.9 1.2-1.7 1.4-3.8.5-2.8-1-3.8-3-1.5-3 3.9-.2 6.3-5.5 5-11l-.5-2.3-2.4 2.6c-2.9 3.1-4.7 3.4-3.8.6.4-1.5.1-2-1.5-2-3.3 0-2.7 4.3.9 5.8 1.6.7 3.1 2 3.4 2.8.5 1.3-.3 1.5-4.1 1.3-2.6-.1-5.4-.6-6.3-1l-3.2-1.3c-1-.3-1.8-1.1-1.8-2 0-1.7 3-3 4.4-1.7.6.7 1.4.5 2.3-.4 1.8-1.7 1.7-3.5 0-3.5-.9 0-1.8-1.3-2.2-3-.7-3.4-1.4-3.7-3.5-1.2-2.4 2.8-2.3 3.7.7 4.9l2.7 1-3.1.8c-1.8.4-3.5 1.1-3.8 1.6-1.3 2.2-8.2-5.4-9-10 0-.3-.5-1.3-.9-2.2-1-2.3-.3-7.5 1-7 .5.2 1.5 2.2 2.2 4.6 1.1 4 1.4 4.2 4.5 3.7 4.7-.6 6.4-2.2 4.1-3.9-1-.7-1.2-1.3-.5-1.3s1.1-.7 1.1-1.6c0-1.3-.6-1.5-3.5-1-4.8 1-9.4-2.2-8.7-5.9.3-1.4 0-2.5-.6-2.5s-1.3-1-1.7-2.2c-.4-1.2-1.3-2.8-2-3.5s-1.1-2-.9-3c.3-1-.2-2.6-1-3.6-1.1-1.5-1.8-1.6-3.4-.8-1.6.8-2.4.7-3.6-.5-.9-.8-1.6-2-1.6-2.4 0-2.2 1.4-4 3.2-4 1.1 0 3.3-1.4 4.8-3 2.4-2.5 3.3-2.9 5.2-2.1 2.5.9 2.5 1.3 1.7 11.5-.3 3.6 0 5 1 5.4 1 .3 1.3 0 .9-1-.7-1.9 0-3 3.4-4.7 4.8-2.4 6.2.7 3.4 7.5-1.7 4-4 3.7-3.3-.2.5-2.7-.4-3.1-2.3-.9-1 1.3-.9 2.2.6 5 2.2 4 2.5 4.2 4.2 1.5 1.5-2.4 3.8-2.6 4.6-.4 1 2.3.8 2.4-1.2 2.4-1 0-2.6.9-3.6 2-1.7 1.8-1.6 1.9 1.8 1.7 2-.1 3.6-.5 3.6-1 0-.3 1-.7 2-.7 1.5 0 2 .7 2 2.4 0 1.3.8 3.8 1.7 5.6s1.7 4.6 1.8 6.2c0 3.2 1.1 3.5 4.3 1.3 1.3-.9 2.7-1.3 3.1-1 .5.3 1.5-.9 2.2-2.5 1.5-3.6 2.2-4.2 4.4-3.4 1 .4 1.4 1.3 1 2.5-.3 1-.1 2 .4 2s1.2-1.3 1.3-2.7c.4-3.3 2.8-4.9 6.1-4 2.5.6 2.6 1 2.4 6.9-.1 5.8 0 6.3 2.1 6.6 2.3.3 2.6 1 2.3 4.7 0 1.2 1 2.9 3 4.3 3.3 2.5 3.7 5 1.4 8.7-1 1.3-1.4 3-1.2 3.7.3.7.5 1.7.4 2.3-.1 1.5-5.8 3-9.4 2.5zm1.8-4.5c0-.7.5-1.6 1.2-1.9.8-.3.6-.5-.5-.6-1.9 0-2.5-3-.6-3 .8 0 .8-.4 0-1.4-.8-1-.8-1.6 0-2.5 1-.9.8-1.2-.5-1.2-1.5 0-1.7.6-1.2 2.5.3 1.4.3 2.6-.2 2.6-.4 0-.8 1.5-.8 3.5 0 2.2.4 3.5 1.2 3.5.8 0 1.4-.7 1.4-1.5zm5-4.8c0-1.8-.3-2-1-.8-1.3 2-1.3 3 0 3 .5 0 1-1 1-2.2zm0-5.8c0-.5-.5-1-1-1a1 1 0 0 0-1 1c0 .6.4 1 1 1 .5 0 1-.4 1-1zm-4.5-6c-.4-.5-1-1-1.6-1-.5 0-1 .5-1 1s.8 1 1.6 1c.9 0 1.3-.4 1-1zm-12.2-9.4c.9-2.4-1.1-2.9-2.3-.6-.9 1.6-.8 2 .3 2 .8 0 1.7-.6 2-1.4zm-19.4-8.6c0-1.2-.4-1.8-1-1.5a3 3 0 0 0-1 2c0 .9.5 1.5 1 1.5s1-1 1-2zm-18-30c0-.6-.4-1-1-1s-1 .4-1 1 .5 1 1 1 1-.5 1-1zm61 67.4c0-2.4 8.5-5.3 10.3-3.5 1.8 1.8-1 4-6 4.7-3.7.6-4.2.5-4.2-1.2zM696.4 422a20 20 0 0 1-15.4-7.5c-2.4-2.5-5.8-3.3-7.6-1.7-3.5 3-11.6 3.6-21.2 1.6-2.2-.5-4.4-.1-6.9 1a11.3 11.3 0 0 1-8.1.9c-6.7-1.2-7-3.7-.5-2.8 3.7.5 6 .2 8.3-1 3.6-1.8 9.5-2.1 10.4-.6.4.6 3 1 5.9 1 8.7 0 14.4-4 6.8-4.8-3.5-.3-3.9-2.4-.7-3 1.6-.3 3.5.3 8.6 2.9 1 .4 2.3.3 3-.1 1.9-1.2 9.2-1.2 8.5 0-.3.4-2.2 1.1-4.3 1.5l-3.8.7 3 2.5c5.6 4.5 8.5 5.5 18.9 6.2 8 .5 10.2 1 10.2 2.1 0 1.8-4.5 2.1-15.1 1.1zm-291.6-4.4c0-.7 1-2.2 2-3.1 1.9-1.7 2-1.7 2.6-.2.5 1.1 0 2.3-1.2 3.2-2.4 1.8-3.4 1.8-3.4 0zm-59-2.6c2-1.7 4.3-3 5.2-3 .8 0 2.2-.8 3-1.7.7-.9 2.2-2 3.3-2.4 2-.8 2-.9-.3-1a79 79 0 0 0-18.7 6c-.5.5-3.2 1-6 1.2-3.9.3-5 0-5-1.1 0-.8 1.4-1.8 3-2.1 1.7-.4 5.7-1.7 9-3a153 153 0 0 1 41.8-5.3c.6.4-3.8 2-9.9 3.7A81 81 0 0 0 349 416a9.4 9.4 0 0 1-4.6 2c-1.8 0-1.6-.4 1.4-3zm515 1.2c-.7-1-2-3-2.8-4.6a9 9 0 0 0-3.3-3.8 29.7 29.7 0 0 0-12.6-3.2c-1.2.3-3.3-.5-5.4-2a16.7 16.7 0 0 0-4.1-2.7c-2 0-6.6-4.3-6.6-6 0-2.4-4.4-3.7-6.5-2-2.5 2-21.5-.6-21.5-3.1 0-1.6 3.1-2.3 5-1.1 2.5 1.5 10.8 1.8 12.2.4.6-.7 2.2-1.2 3.5-1.2 1.9 0 2.3-.5 2.3-3 0-1.7.4-3 1-3 .5 0 1-.6 1-1.3 0-1.6 4.1-5.7 5.6-5.7 1.4 0 5.4 4.3 5.4 5.8 0 .7.9 1.2 2 1.2s2-.5 2-1c0-.6 1.4-1 3-1 1.7 0 4-.4 4.9-1 1-.5 2.3-.5 3.1 0 1 .7.3 1.4-3 2.9-4 1.8-4.2 2-1.8 2a8 8 0 0 1 4.7 2c1.5 1.5 2.9 1.7 7 1.3 3.4-.3 5.1 0 5.1.7 0 .6-.9 1.1-2 1.1-1 0-3.1 1.1-4.6 2.5-3.3 3.1-4 3.1-5.9.2-.8-1.3-3.1-3.2-5-4.3l-3.5-1.9-2.4 3-2.4 3-4.6-1.6c-2.5-1-4.6-1.4-4.6-1.2a37 37 0 0 0 3 4.9c2.2 3.1 3.8 4.4 5.5 4.4 1.3 0 2.7.5 3 1 .3.6 2 1 3.9 1 3.4 0 8 2 12.8 5.2 3.6 2.5 4.5 2.3 5.8-1.5 1.5-4.7 5.8-8.4 10.5-9.2 5.3-1 5.7-1.3 4.3-3.4-1-1.6-.5-2.6 3.8-6.8 8.3-8 8.8-8.8 7.2-11.4-.7-1.3-2-3.2-3-4.3-2-2.3-3.4-6.4-2.4-7.3 1-1 7.5 6.6 8.3 9.5 1 4 4.4 10.3 6 10.9.6.3 2.2-.2 3.5-1.1 4-2.9 7.3-2 12.8 3.4 4 4 5 5.4 4.6 7.5-.3 1.7 0 2.5 1 2.5 1.6 0 3.2-2.2 1.7-2.7-1.5-.5-.3-5.4 1.6-6 2.4-1 3.2-2.5 2-4a2.6 2.6 0 0 1 2-4.3c3.2 0 7.5 2.8 7.6 5 .2 1.7-.2 2-2 1.6-3.3-.8-5 1.6-2.3 3.3 2 1.2 2.4 1 4-1a9 9 0 0 0 1.8-3.7c0-.7 1.3-1.2 3-1.2 3.5 0 4.2 2 2.4 7-.7 2-1.2 4.9-1 6.5 0 1.7-.3 4.4-.7 6.1-.6 2.5-.4 3 .8 3 1 0 1.8-1.2 2.2-3.7.3-2.2 1-3.9 1.3-3.9 1.8 0 4 4 4 7.2 0 2 .9 4.6 2 6.1 2 2.5 2.7 5.7 1.3 5.7-.5 0-1.8-.6-3-1.5-1.1-.8-2.8-1.2-3.7-.9-1.8.7-7.8-5.4-7.2-7.2.3-.7.2-1.5-.2-1.9-.3-.3-.7-3-.7-6 0-3.9-.4-5.9-1.5-6.5-1-.7-1.7-.4-2.4 1-.5 1.1-1.5 2-2.2 2-.8 0-1.4.7-1.4 1.5 0 2.5.4 3 2.4 2.7 1.2-.2 1.7.2 1.5 1.5-.2 1 0 2.4.5 3.1 1.2 1.9.1 3.9-2.3 4.5-1.6.4-2.4 0-3-1.8a7.2 7.2 0 0 0-2-3c-.6-.3-1-1.9-1-3.5s-.5-3.1-1-3.5-1 0-1 .8c0 2-6 2.9-6.8 1a1.5 1.5 0 0 0-2-.8c-.8.3-2.3 0-3.4-.5s-5.1-1-9-1.1c-4 0-8-.5-9-1.2-1.4-.9-2.1-.9-3 0-.7.8-2.2 1.3-3.4 1.3-1.2 0-2.5.3-2.9.7-.4.4-3.4 1.4-6.8 2.3-4 1-6.5 2.2-7.2 3.5-.6 1.1-2.1 3.5-3.3 5.2-2.8 3.9-2.8 3.5-.3 6.4 2.1 2.4 2.3 5 .4 5.6-.6.2-1.7-.4-2.5-1.4zm82.2-7.8c0-.9-.4-1.3-1-1-.5.4-.7 1-.4 1.6.8 1.4 1.4 1.1 1.4-.6zM913.3 392a11 11 0 0 1-2.2-3.4c-.6-1.5-1.6-2.6-2-2.3-.6.3-1.7-.6-2.7-2l-1.8-2.8-1.1 3.5c-1.5 4.4-1.2 5 3 5 2.3 0 3.8.5 4.6 1.8.7 1.1 1.6 1.7 2.1 1.4.5-.3.6-.8 0-1.2zm-24.7-9.8c.3-3.7-1.2-3.5-6 .9-5.3 4.7-6 6.2-2.1 4.8 2.2-.9 2.7-.7 3.1 1 .5 1.8.8 1.6 2.7-1.3a14 14 0 0 0 2.3-5.4zm10.3 8.2c0-.8-3.4-4.5-4.2-4.5-1.4 0-.8 2.3 1 3.6 1.8 1.4 3.2 1.8 3.2 1zm-66-6a15 15 0 0 0-3-3.6l-2.8-2.9-1.6 2.5c-1.6 2.4-1.6 2.6.6 3.5 2.6 1 6.8 1.3 6.8.4zm-217 30.6c-2.4-1.5 0-3 4.7-3 5.6-.1 8.6-1.5 6.3-3-1-.6-2.2-.5-3.4.1-2.1 1.1-11-.5-15.5-2.8-6.8-3.5-11.4-11.3-9-15.6.7-1.5 1.2-1.7 2.4-.7.8.6 1.4 2 1.4 3.1 0 2.5 3 7.6 4.8 8.3 1 .4 1.2 0 .9-1-1.4-3.5 1.8-2.2 6.3 2.6 2.8 3 5.2 4.9 5.9 4.5.8-.5.7-1.2-.4-2.3a5.6 5.6 0 0 1-1.3-4c.4-3.2 2.8-4.3 2.8-1.3 0 3.3 4.6 6.8 9.9 7.6l6.4 1c3 1 1.8 2.4-2 2.5-2.2 0-5.4 1-7.8 2.5-4 2.4-9.8 3.2-12.4 1.5zm-3-10c0-.6-.6-1-1.1-1s-.8.4-.5 1c.4.5.8 1 1 1s.5-.5.5-1zm358.6-.3c1-3.5 2.6-5 4.9-4.6 2.5.4 3.2 4 1 5.8-1.2 1-1.5 1-1.5-1.1v-2.4l-2 2.3c-1 1.2-2 2.2-2.4 2.2s-.4-1 0-2.2zm-628.1-2.4c-1-1 .3-2.4 2.3-2.4 1 0 2-.3 2.2-.7a14 14 0 0 1 3.8-2.6c6.2-3.1 9.3-5.1 12.8-8.2 4.6-4 7.2-5.4 10.5-5.5 1.5 0 2.7-.4 2.7-1 0-1.1 4.5-2 13-2.4 3.6-.2 8.4-1 10.8-1.6 4.4-1.4 6.4-.8 4.5 1.2a38.2 38.2 0 0 1-15.8 2.8c-5.8 0-13.9 2.2-12.8 3.4.5.5-.1.6-1.3.2-1.5-.5-2.6 0-4 1.9-1 1.4-2.5 2.5-3.4 2.5s-2.8 1.1-4.4 2.5c-1.6 1.4-3.4 2.5-4.1 2.5-.7 0-1.8.7-2.6 1.6a45.3 45.3 0 0 1-12.8 6.4c-.4 0-1-.3-1.4-.6zm40.3-.2c0-.5.7-1.2 1.6-1.6 1-.3 1.4-.1 1.2.6-.5 1.5-2.8 2.3-2.8 1zm-4-4c0-.7.7-1.2 1.6-1.2s2.9-.7 4.6-1.6c3.4-1.7 5-1.1 2.8 1-2 2-9 3.2-9 1.7zm11.5-.2c-.3-.5.1-1 1-1 1 0 1.4.5 1 1-.3.6-.8 1-1 1-.2 0-.6-.4-1-1zm4.5-1.8c0-.4.6-1.3 1.2-2 1.8-1.8 2.8-1.5 2.8.8 0 1.3-.6 2-2 2-1 0-2-.3-2-.8zm-5-1.6c0-2.3 4.8-5.2 6.3-3.8.6.7.9 1.3.7 1.4-5.3 3.3-7 3.9-7 2.4zm551.2-4c0-1 .7-1.6 1.5-1.6.9 0 1.5.7 1.5 1.5s-.6 1.5-1.5 1.5c-.8 0-1.5-.7-1.5-1.5zm-640.7-.6c-.3-.5-.1-1 .4-1s1.1.5 1.1 1-.2 1-.4 1c-.3 0-.8-.4-1.1-1zm4-.9c-.2-.5.2-1.2 1-1.5 2.6-1 3.5-.7 2.9 1-.7 1.6-3 2-3.8.5zm40 0c-.8-1.5.3-3.1 2.1-3.1a22 22 0 0 0 6.2-2.7l7.4-4c1.5-.8 3-1.9 3.4-2.4.3-.5 1.6-1 3-1 1.3 0 2.4-.3 2.4-.8s2.4-1 5.3-1a35 35 0 0 0 11.2-1.5c8.6-3.3 9.9-3.7 10.9-2.7.6.7.7 1.4 0 1.9a18 18 0 0 1-10.3 2.7c-1-.3-2.2-.2-2.5.3-.3.5-3.1 1.3-6.3 1.6-6.7.8-10.3 2-15.8 5.5-10.1 6.3-16 8.8-17 7.1zm244.3-3c-2-2.1-2-5.2-.3-15.2 1.4-8.3 2.2-10.3 3.7-9.4 1.2.8.4 10.4-1 11.8-1.8 1.8-1.3 8.2.9 11a12 12 0 0 1 2 3.1c0 1.4-3.8.5-5.3-1.2zm-276.3-1c.4-.6 1-.8 1.6-.5 1.4.9 1.1 1.5-.7 1.5-.8 0-1.2-.5-.9-1zm502.2 0c-.4-.5-1.7-1-3-1-1.4 0-2.5-.4-2.5-1s-1.3-1-2.8-1-3.2-.4-3.8-1c-.5-.5-3.8-1-7.4-1.2-5-.2-6.5-.7-6.5-1.8 0-2.3 9.6-2.5 17.3-.4 4.4 1.1 6.6 1.3 7.4.6 1.6-1.6 0-3.2-3.2-3.2-3.6 0-5.8-2.4-4-4.5.8-1 .9-1.5.1-1.5-.6 0-1.1.3-1.1.8 0 .4-2.2.7-4.8.6-6.4-.3-6.2-.2-6.2-1.7 0-.7-.5-1.8-1.2-2.5-.9-.9-1.5-.7-2.5.6-1.1 1.5-1.4 1.5-2.3.2-.6-.8-.8-3.4-.5-5.8.4-3.7.2-4.2-1.6-4.2s-2 .4-1.4 3.4c.6 2.9.3 3.6-1.6 4.6-1.7 1-1.9 1.4-.8 2 .7.5 1.9.4 2.6-.2 1.4-1.2 1.7 0 .4 2-1.2 2-4.4.7-5.7-2.2-.8-1.8-.9-2.8-.1-3.5.8-.8.7-1.1 0-1.1s-1.4-1.3-1.6-2.8c-.3-2.1-.5-2-.6 1.1-.1 3.5-.3 3.7-1.7 2.3-2-2-4-2-4.8-.1-.3.8-1 1.5-1.7 1.5s-1.7.7-2.4 1.6c-1 1.4-1.3 1.4-2.4 0-1.1-1.3-1-1.7.3-2.2 1.8-.7 2.1-2.4.4-2.4-.7 0-2.2 1.2-3.5 2.7l-2.2 2.8-3-2.3c-1.7-1.3-3.1-1.9-3.1-1.4s-1.9 1.4-4.1 2c-4 1.3-4.1 1.4-3.5 4.7.4 2 .2 3.6-.5 4-1.4.9-5.2-2.5-4.5-4.1.2-.7-.2-1.8-1-2.5-2-1.6-1.8-7 .3-8.5 2.8-2.1 7.4-1.8 8 .6.4 1.6.8 1.8 1.9.9.7-.7 1.4-.8 1.4-.3s.9-1.1 1.9-3.6a11 11 0 0 1 5.1-6.3c2.9-1.4 3.4-2.3 3.7-5.7.2-3.7-.1-4.2-5.4-8.7-8.4-7.1-13.7-13.2-14.6-16.6-1-3.9-.5-4.3 2.7-2.2a5 5 0 0 1 2.6 4.7c0 2.2.3 2.8 1.4 2.4.8-.3 1.7-.2 2 .3.3.5 1.4.6 2.4.4 2.3-.6 6.2 3.2 6.2 6 0 2 9.2 11.7 11.1 11.7.5 0 1.5-.5 2.2-1 8-6.6 7.5-6.4 11.7-5 5.2 1.7 7.4 4.2 6.6 7.4-.8 3.3-3.6 3.4-3.6.1 0-1.4-1.1-3.2-2.6-4.5l-2.7-2-1.8 2.4c-2.5 3-2.5 3.2 1 4.4 1.7.6 3 1.5 3 2.1s.7 1 1.5 1 1.8 2 2.5 4.6c1 4 1.4 4.5 3.2 4 2-.7 4.9.9 4.9 2.6 0 .5-.8.9-1.7.9-2.6 0-.4 1.7 3.7 2.8 2.6.8 3 1 1.2 1-1.4.1-2 .6-1.7 1.2 1 1.6 5.8.7 7.3-1.3 1.1-1.5 1-2.2-1.2-4.8-1.5-1.7-2.6-3.7-2.6-4.5 0-.8-1.7-3.4-3.9-5.7-3.5-4-5.8-7.7-4.5-7.7 1.5 0 4.6 2.5 11.7 9.4 4.2 4.2 8.4 7.6 9.2 7.6.8 0 2.3.4 3.3.9 4.8 2.4 7.4 3 14.9 3.3 8.7.3 10.3.9 8.4 3.2-1 1.1-1.9 1.2-3.7.5a26 26 0 0 0-7-1c-4.2 0-16.8-3.5-21.8-6-1.6-1-1.4-.5.8 2 1.7 1.7 4.7 3.9 6.8 4.8s3.8 2 3.8 2.5.5.6 1 .2c1.8-1 6.5.5 5.2 1.8-.7.7-2.5.6-6-.3-4.2-1-5.4-1-6.7 0-1.4 1.2-1.4 1.5.2 2.6 1 .8 3 1 4.5.8 3.8-.8 3.7 2-.2 5.7-3.6 3.4-3.7 3.8-.8 4.2 3 .4 3.7 3.8 1 3.8-1.2 0-2.4-.4-2.7-1zm-1.2-17.7c.4-.4-.7-1.3-2.4-2-3.2-1.3-6-.5-6 1.8 0 1 7.4 1.2 8.4.2zm-68.3-5.8c0-.8-.7-1.5-1.5-1.5s-1.5.7-1.5 1.5.6 1.5 1.5 1.5 1.5-.7 1.5-1.5zm19.7-4.6c2.6 0 2.7 0 .8-1.5a9 9 0 0 0-4.7-1.4c-2.4 0-2.8.4-2.8 2.5 0 2.2.2 2.4 1.9 1.5 1-.6 3.2-1 4.8-1zm6.8-1.2c.3-.8-.1-2.6-1-4.2-.8-1.7-1.2-4-.8-5.7.3-1.6.1-2.8-.4-2.8-1.8 0-3.1 1.6-3.8 4.6-.5 2.6-.2 3.3 1.9 4.7 1.5 1 2.3 2.3 2 3.2-.4.8-.1 1.5.5 1.5s1.4-.6 1.6-1.3zm9.4-6a9 9 0 0 0-2.6-3 3 3 0 0 1-1.3-2.3c0-2.4-2-1.6-3 1.1-1.7 4.4-1.3 5.8 1.4 5.2 1.3-.2 3 0 3.8.4 2.2 1.5 2.9 1 1.7-1.4zm-26.4-22c-1.8-2.6-2-.7-.4 2.6.7 1.3 1.4 1.7 1.6 1 .2-.8-.3-2.3-1.2-3.6zm-585 51.7c-1.3-1.3.6-3.4 3-3.4 1.4 0 3.6-1.3 5.6-3.4 3.5-3.7 8.7-5.6 8.7-3.2 0 .8-1.2 2.4-2.6 3.5l-2.6 2 5.3-.6c5.1-.5 5.3-.5 3.7 1.2-1 1.1-3.5 2-6.2 2-2.5.2-5.4.8-6.5 1.4-2.2 1.2-7.4 1.5-8.4.5zm593.7-3c-1.4-.4-2.2-1.3-2.2-2.5 0-1.7.7-1.9 9-1.8 6 0 9.2.5 10 1.4.6.7.7 1.5.3 1.8-1.3.8-14.5 1.5-17 1zm-568.7-1c-1.2-1.3.4-2.4 3.3-2.4 2.2 0 2.8.4 2.3 1.5-.5 1.5-4.4 2-5.6.9zm533.5-3.4c-6.2-.3-9.5-1-9.8-1.8-.3-.9 1.7-1.2 7.8-1.2 7 0 8-.2 7-1.4-1.8-2.2.2-2.6 2.8-.6 1.3 1 2.2 2.7 2 3.7-.3 1.6-1.3 1.7-9.8 1.3zm-366.2-1.6c0-2 1.5-2.5 9.3-3a53 53 0 0 0 12-2.1c3.5-1.3 5-1.4 5.8-.6.9.8-.2 1.7-3.7 3.2-2.6 1.2-5.7 2-6.8 2-1.2-.1-2.7 0-3.6.4-.8.3-4 .7-7.2 1-4.2.2-5.8 0-5.8-1zm87.3-1c-1.7-.8 5.6-8.4 8-8.4 1 0 1.8.4 1.8.9 0 .8-7.7 8.2-8.3 8l-1.5-.6zm257.1-2.6c-2.1-1-3-3.7-1.6-5.1.3-.3 1.6 0 3 1 3.6 2.4 9 .5 10.6-3.8.7-1.8 6.6-3.3 9.1-2.3 3 1.1 1.8 3.2-2 3.6-3.1.2-4 .7-4.2 2.5-.3 2.5.1 2.7 2.7 1.4 1-.6 2.3-.6 3-.2 1 .6.4 1.2-1.8 2-2.3.7-3.7.7-5-.1-1.5-1-2.4-.8-4.4.5a9 9 0 0 1-9.4.5zm63.4.3c-.3-.4.6-1.3 2-2 3.1-1.4 3.4-1.4 3.4.3 0 2-4.4 3.5-5.4 1.7zm-39.1-4c-.7-1.2 1.1-2.4 2.5-1.6 1 .7.4 2.5-1 2.5-.5 0-1.2-.4-1.5-1zm-360.7-1.6c0-.8.6-1.5 1.3-1.5s2.1-1.4 3-3a12 12 0 0 1 4-4.1 37 37 0 0 0 5.5-4.3c5.6-5.2 11.5-8.8 12.6-7.7 1.5 1.5 0 3.6-3.6 5.4a40 40 0 0 0-7.9 5.7c-11 10.3-14.9 12.8-14.9 9.5zm320.4-.8c-3.2-2.2-4.6-4.5-4.7-8.2 0-1-1-2.4-2-3-1.2-.6-2-1.8-1.8-2.7.5-2.2-1.8-6.4-5.7-10.8l-3.1-3.6.4 4a70 70 0 0 0 3.5 16.4c1.4 2.6.6 3.2-4.4 3.2-4.8 0-10.5-2.5-10.5-4.6 0-1.8 2.1-1.8 4.6 0 2.6 2 6.4 2 6.4 0 0-.8-1-4.3-2-7.7-1.6-4.6-2-7.5-1.5-11 .5-4.2.4-4.8-1.3-4.8-1.3 0-2.6-1.4-4-4.2-1.8-3.9-1.9-4.4-.4-5.5 2-1.5 2-1.4 2.4 1.8.5 3 1.6 5 2.9 5 1.6 0 1-3.4-1-6.8-1.2-1.8-2-4.1-2-5 0-1.4-.3-1.5-1-.4a4 4 0 0 0-.4 2.8c.3.8-.1 1.3-1 1.3-1.5 0-2.2-1.7-1.8-4.2 0-.4-.3-.8-.7-.8-2 0-3.4-9.2-2.9-19.1.5-9.6 1-12 2.3-10.7 1 1 1.4 8.7.5 9.3-1.2.7.3 7.8 1.7 8.3 1 .3 1.2-2.1.9-10.5a75.8 75.8 0 0 1 1.5-20c0-1.3.7-2.3 1.4-2.3.8 0 1.4-.6 1.4-1.4s1.6-2.1 3.5-3c2.6-1.3 3.8-2.8 5.3-6.7 1.8-4.8 4-6.9 3.4-3.1l-.5 3.2c-.1.8-1.2 3-2.4 5-2.5 4-2.2 5.1.7 2.5 1.1-1 2.3-1.6 2.6-1.3 1 1-1.4 4.4-5.3 7.3-4.8 3.7-6.2 5.5-6.2 8a55 55 0 0 0-1.8 13.4c-.3 7.7 0 10.6 1.2 13a23 23 0 0 1 1.5 3.6c0 1.3-2.8.4-4.5-1.5-2.5-2.8-3.1-2.5-2.7 1.5.4 3 .9 3.5 2.8 3.5 2 0 2.9 1.1 5 5.6a35 35 0 0 1 2.4 6.8c0 3.2 3.2 8.5 7.3 12.3 2.7 2.6 4.8 5.6 5.7 8.4.8 2.5 1.8 4.9 2.2 5.4.5.5.8 2 .8 3s1.4 3.5 3 5c2.9 2.8 4 5.6 2.3 5.6-.4 0-2.2-1-4-2.3zm-18.8-91.8c.4-.6.2-1-.3-1-.6 0-1.3.4-1.7 1s-.1 1 .4 1 1.3-.5 1.6-1zm200 93.3a6.1 6.1 0 0 1-1.7-2.6c-.5-1.3-1.2-1.6-2.5-1-1 .4-3.5.9-5.7 1.1-3.3.4-4.5 0-6.8-2.2-3.3-3-3.4-6.9-.2-7.3 1.4-.2 2.4.7 3.5 3 1.2 2.6 2.1 3.3 4.5 3.4 5 .1 5.6-1.2 2.8-6.1a27 27 0 0 0-5.6-7c-1.8-1.5-4.5-3.8-6-5.3-2.8-2.6-2.9-2.6-1.7-.4.6 1.3 2.5 3 4 4 4 2.2 3.8 3.6-.2 2.8l-3.3-.9-2.9-4.5a44.6 44.6 0 0 0-9.7-9.4c-6-4.4-7-5.4-5.6-6.3 1.3-1 1-1.7-2.1-4.8-2-2-5.6-5.3-8-7.3-4-3.6-5.5-6.5-3-6.5.5 0 1.8.8 2.7 1.8.9 1 3 2.4 4.8 3.2s3.3 1.9 3.3 2.6a38 38 0 0 0 9.6 10.4l6.4 5a83 83 0 0 1 8.5 7.2c4.2 3.9 8.1 5.9 11.8 5.9 1.7 0 2.8 1.1 4.4 4.7a46 46 0 0 1 2.8 7.5c1 4-1.1 3.5-3.8-1-1.7-3-2.2-3.3-2.5-1.8-.2 1 .1 2.2.8 2.5 1.4 1 4 5.8 4 7.6 0 1.7-1.3 2.5-2.6 1.7zm74.8-.3c.2-.6.8-1 1.3-1 .6 0 1.1.4 1.3 1 .2.6-.3 1-1.3 1-.9 0-1.5-.4-1.3-1zm-744.4-1c0-.5 1.3-1.6 2.9-2.2 2.3-1 2.7-1.6 2-3-.8-1.3-.4-2.3 1.5-4.2 2-2 3-2.4 5.8-1.9a17 17 0 0 1 5.5 2c2.4 1.5 5.3 1.7 10.2.7 2.2-.4 2.8-.9 2-1.4-2.3-1.4-.2-2.2 7.3-2.5l10.8-.7c6.3-.5 4.2 1.7-3.2 3.4l-15.3 3.7a71.3 71.3 0 0 1-9.8 2.2c-1 0-3.3.6-5 1.3-7.3 3.2-14.7 4.5-14.7 2.6zm12.4-5.5c2.8-2 .7-4-2.2-1.9-1.2.9-2.2 2-2.2 2.5 0 1.4 2.2 1.1 4.4-.6zm139.1 3.6c-.3-.5.6-1.2 2-1.5l5-1 4-1.1c1-.5 1.5 0 1.5 1.3 0 1.5-.9 2.2-3.7 2.6-5.4 1-8 .8-8.8-.3zm-10.5-1c0-.4 1.6-2 3.6-3.5 4.4-3.4 6.5-2.1 2.9 1.8-2.4 2.5-6.5 3.7-6.5 1.8zm250.7-1.9c-.4-.7-.5-3-.1-5 1-5.5 5.5-9.7 5.5-5.1 0 1-.4 2-1 2s-1 .8-1 1.7c-.1 3.2-2.5 7.8-3.4 6.4zm-251.7-3.5c0-2.2 3.4-4.7 5-3.6 1.2.7 1.2 1.2-.4 3-2.1 2.3-4.6 2.6-4.6.6zm-120.7-2c.5-1.5 5.8-2.3 5.8-1 0 1.2-2.4 2.3-4.7 2.3-.8 0-1.3-.6-1-1.3zm36-3c.3-.7 4.1-1.8 8.9-2.6 6-1 8.7-2 9.7-3.3.8-1 2.5-1.8 4.3-1.8 1.7 0 3.8-.4 4.7-1 1-.4 5.7-1 10.6-1.4 4.9-.4 9.5-1.1 10.2-1.7 1.6-1.3 18.1-.8 17.4.6-.3.5-3.4 1-7 1s-7.6.5-9 1.1c-1.4.6-4.3.9-6.4.8a15 15 0 0 0-6 .6c-1.4.6.7.9 6.4.7 4.9-.1 8.5.2 8.5.7 0 1.2-1.5 1.4-14 2-5.5.4-13.4 1.3-17.5 2.2a97.8 97.8 0 0 1-18.3 3.3c-1.9 0-2.7-.4-2.5-1.2zm23.8-5.2c-.7-.6-1.3-.6-2 0-.6.7-.3 1 1 1s1.6-.3 1-1zm54 .6c0-1 2.2-4.2 5-7.2 3.8-4.3 5.1-5.2 6-4.2 1.3 1.2 1 1.5-7.5 11.5-2 2.3-3.5 2.2-3.5 0zm467.2-1.7c0-.8-1-2.2-2-3.2-1.1-1-2-2-2-2.4s-1.5-2.2-3.4-4a20.2 20.2 0 0 1-4.5-7.4c-1.4-5-1.5-12.5-.1-12.5.5 0 1 1.4 1 3s.4 3.2 1 3.5c.5.4 1 1.6 1 2.8 0 2.8 4.6 10.4 7 11.8 1.1.5 2.7 2.6 3.5 4.6 1.9 4.5 1.9 5.4 0 5.4-.8 0-1.5-.7-1.5-1.6zm-489.7-.4c-.3-.6 0-1 1-1 .8 0 1.5.4 1.5 1s-.4 1-1 1-1.2-.5-1.5-1zm37.4-6.8a282 282 0 0 1-3-7c-.4-1.2-1.4-2.3-2.1-2.3-.7 0-2.3-.8-3.7-1.8-3.4-2.7-2.1-6.6 4.2-13.4a151 151 0 0 0 15.1-18.2c2.4-3.6 8.6-11.1 13.1-16a46 46 0 0 0 6.5-9c0-.4 1.6-2.7 3.6-5.2 6-8 6.8-10.7 5.5-20-1.3-10-1.4-23.2 0-24 .5-.3 1-2 1-3.8s.6-4.2 1.4-5.2c1-1.4 1.3-3.3.9-6.7-.8-5.8.6-7.8 5.3-7.8 4.5 0 7-2.7 7.8-8.6a58 58 0 0 0-.5-15s-.3-3.8-.4-8.4c-.4-11-1.3-20.8-2.6-29.9-.6-4-.9-7.6-.6-7.8s-.4-2.6-1.4-5c-1-2.5-2.4-7.7-2.8-11.7-1.2-9.3.3-12.6 6.9-14.6 2.4-.7 5.3-1.8 6.4-2.4 1.1-.5 5.1-1.2 9-1.4 3.9-.1 8-.4 9-.5 1.1 0 9 .2 17.6.6 13.6.7 18.4 1.5 16.9 3-.2.2-10.4.7-22.7 1-25.3.6-29 1-32.3 3.7-2 1.6-2.2 2-1 2.9 1.4.8 1.3 1.3-.2 4-2 3.5-2.3 6.5-.8 5.5.6-.3.7.1.4 1.1-.5 1.3-.3 1.5.6 1 1-.6 1-.4.2 1a22 22 0 0 0-.3 8.7c.6 5.6.5 6.7-.7 6.5-.8-.2-1.7.3-2 1-.3 1 .2 1.3 1.5.8 1.9-.6 2 .2 2.4 15.7.2 9 .4 22.9.3 30.9 0 13.7-.2 14.8-2.5 17.8-1.8 2.6-3 3.2-5.4 3a9 9 0 0 0-4.2.5c-1.5.9-1.7 7.6-.3 7.6 1.8 0 1.1 3.6-1 5.5-1.4 1.3-2 3.1-2 6.1 0 2.4-.4 4.6-1 5-1.2.7-1.3 10.1-.1 10.8.4.3.6-.8.3-2.4-.2-1.6-.1-3.6.2-4.5.5-1.3 1-1.3 2.7-.2 1.7 1 2 2 1.6 5.5-.2 2.3 0 4.2.5 4.2s2.6-1.5 4.7-3.4c3.8-3.7 7.1-4.6 7.1-2 0 .8-1 2-2.3 2.5-1.3.6-3.6 3.7-5.2 6.8a315.6 315.6 0 0 1-14 24 189.2 189.2 0 0 1-16.5 21.2l-5 6c-.3.3-1.7 2-3 4s-2.6 3.7-3 4l-5.5 6.5c-2.7 3.3-5.8 6.8-6.7 7.8-2.5 2.5-2.3 4.1 1.7 10.9 2 3.3 3.5 6.6 3.5 7.3 0 .8.5 1.7 1 2s1 2 1 3.6c0 4.6-2.7 3.7-5.1-1.8zm45.4-91.6c.3-.7 0-2.6-.7-4.2-1-2.4-1.3-2.6-2.3-1.3-1 1.1-1 2 0 4 1.4 3 2.3 3.4 3 1.5zm8.8-141c1-1.9.9-2-1-1-1.1.7-2 1.9-2 2.7 0 1.9 1.6 1 3-1.7zm237.5 234.8-5.7-2c-1-.4-2-1.5-2.3-2.6-.3-1-1-1.9-1.4-1.9s-1.3-1.1-2-2.6c-1.1-2.5-1.4-2.6-6.8-2-3.1.4-6.2 1.1-6.8 1.6-.6.5-2 .9-3.3.8-1.7-.1-2.2-.7-1.9-2 .6-2-3.4-3.1-11.3-3-3.3.1-6.3-.4-7.7-1.3a12 12 0 0 0-10-.6c-4 2-8 2.7-11.3 2-2-.4-6-.5-8.9-.2-4.3.5-5.3.4-4.9-.8.4-1 2.8-1.4 9.4-1.5 4.9-.1 12-1 15.7-2 6.4-1.7 7-1.7 9.6 0 2 1 5.2 1.6 9.8 1.7 4 0 7.8.6 9.3 1.4 3 1.7 8.6 2 9.5.5.4-.5 2.8-1 5.4-1 4.5 0 5 .3 7.5 3.9 5.3 7.7 8.2 9.6 15 10.2 3.3.2 6.1.9 6.1 1.5 0 1.5-8.5 1.5-13 0zm147.1-1.4c-.3-.5-.1-1.2.4-1.5a1.1 1.1 0 0 1 1.2 1.9c-.6.3-1.2.2-1.6-.4zm-414.2-3.6a8.7 8.7 0 0 1 5.5-1.2c5.5.4 4.1 2.2-2 2.5-5.1.2-5.3.2-3.5-1.3zm411.5-2.2c-3.7-9.5-5-29.8-1.8-29.8 1.2 0 1.6 2.3 2 11 .7 11.6 1.6 17.3 3.1 19.2.6.7.4 1.3-.6 1.7-1 .4-2-.3-2.7-2.1zm-378.4-.2c-1.7-1.2-4.4-2-6-2-4.7.2-5.2 0-3.1-1.6 2.7-2 7.5-1.8 11.5.7 3 1.7 4.5 2 9.3 1.5 3.3-.4 5.8-.2 5.8.3 0 1.5-1.1 1.8-8 2.5-5.6.5-7 .3-9.5-1.4zm-35.6-3c0-1.4.7-2 2-2a5 5 0 0 0 3.1-1.6c2-2.5 6.6-4.5 10.4-4.5 2 0 5.3-.7 7.5-1.6 2.2-.8 4.7-1.4 5.7-1.2 2.7.6-8.6 5.8-12.5 5.8a16 16 0 0 0-11 5.2c-1.7 2.5-5.2 2.4-5.2-.2zm77-1.7c0-2 3.2-2.6 14.3-3 11-.2 13.9.6 10.3 3.2-2.3 1.7-24.5 1.5-24.5-.2zm62-.7c0-1 1.8-1.6 5-2 2.8-.3 7.2-1.5 9.8-2.7 6.4-3 14-5 18.6-5 3 0 3.7.4 3.7 2 0 1.8-.7 2-5.2 2-5.3 0-12.9 1.6-13.8 3-.3.3-3 1.4-5.9 2.3-6.5 2.1-12.1 2.3-12.1.4zm-25.6-1.3c-.3-.8-.3-1.7 0-2 1-1 20.4-3.7 22.2-3 3 1.2.1 3-6.2 3.7-3.2.4-8 1.2-10.6 1.7-4 .8-5 .7-5.4-.4zm-71.1-4.5c.2-.7 1-1.4 1.8-1.4s1.8-.4 2.1-1c.4-.4 3.8-1 7.5-1.1a68 68 0 0 0 10.1-1c2-.4 3.3-.2 3.3.5 0 2.1-4.7 3.5-12.5 3.7a70 70 0 0 0-10.4 1c-1.8.6-2.3.4-2-.7zm429-4.9c0-.5.8-1 2-1s2-.4 2-.8c0-1.5 13.1-7.3 20-8.8l9.2-2c1.5-.4 3-1 3.3-1.5s1.6-.9 2.9-.9c1.3 0 2.5-.6 2.8-1.3.7-1.8 10-6.3 15.8-7.6 2.5-.5 7.6-2.6 11.4-4.6 6.7-3.5 9.2-4.1 7.8-1.9a47.6 47.6 0 0 1-17.3 8.4 78 78 0 0 0-20 10c-.6.8-8.3 2.7-13.3 3.4-3.2.4-14.6 5-22 8.7-2.2 1.2-4.7 1.2-4.7 0zm-449.2-1.3c0-.7 2.4-2.5 5.4-4 4.6-2.5 6-2.8 10.3-2.2 4.3.6 5.3.4 6.4-1.2 1.9-2.6 8.2-6.3 10.7-6.3 1.2 0 2.2-.6 2.2-1.4 0-1.9-7-.4-8.6 1.9-1.4 1.9-3.4 2-3.4.2 0-2.4 3.3-4.5 8-5l4.7-.6c.2 0 .3-1.5.3-3.1 0-1.7.5-3.2 1.2-3.4l5.6-1.6c4.1-1 6.5-2.8 15-10.8 3.4-3.2 5.6-4 6.6-2.3.6 1-7.1 10.1-8.6 10.1-.6 0-2.9 2-5.1 4.6a100 100 0 0 1-23.2 18l-4.6 3c-2 1.8-9.5 3-10.4 1.5-.4-.7-2.2-.2-5.6 1.4-5.5 2.8-7 3.1-7 1.2zm41.8-20.3c2.4-1.6 2.9-3.4 1-3.4-1.4 0-4.8 3-4.8 4.2 0 1.2 1.3 1 3.8-.8zm-15.2 19.2c.3-.9 1.4-1.6 2.4-1.6s3.6-1.8 6-4a17 17 0 0 1 5.4-4c.6 0 3-.9 5-2 2.2-1 4.8-2 5.7-2 2 0 13.6-5.8 15.7-7.7 1.8-1.8 4.3-1.6 3.6.2-1 2.5-9.9 8.3-13.6 8.9-.9 0-2.2.7-3 1.3a14 14 0 0 1-4.5 1.8c-4.1.8-11 4.1-14.8 7a19.6 19.6 0 0 1-5.8 3c-2.3.6-2.6.5-2.1-.9zm117.6-1.3c.2-1.1 1.2-1.8 2.8-1.8 3.6 0 3.3 3-.3 3.4-2.3.2-2.8 0-2.5-1.6zm273.9-1c-3-1-7-5.7-7-8 0-3 1.2-2.9 3.8.7a16 16 0 0 0 4.9 4.2c4.9 2.4 3.5 5-1.7 3.1zm-318-1.6c-.4-.6-1.1-3-1.4-5.2-.3-2.2-.9-5-1.2-6.1-.5-1.4-.2-2.3 1-2.7 3-1.2 4.2.3 4.1 4.6 0 2.3.3 5.4.7 6.8.6 2 .4 2.8-.7 3.2-.8.3-1.9 0-2.4-.6zm81.5.4c-.9-1.3 8.3-8 10-7.4 3 1.1 1.4 4-3.4 6.1-5.5 2.5-5.8 2.6-6.6 1.3zm223-2.2c-3.5-3.1-4.6-5.9-2.2-5.9 1.3 0 8.7 7 8.7 8.3 0 1.7-3.2.5-6.5-2.4zm-317.1-1.9c-1.6-1.8-1.6-2-.2-2 .9 0 2.1-1 2.7-2 1.6-3 3.2-1.1 2.4 2.8-.8 3.7-2.3 4-5 1.2zm343.1-.6c-.9-1.4-1.4-2.8-1-3.2.8-.9 3.5 1 5.3 3.6 1.3 2 1.3 2.2-.6 2.2-1 0-2.7-1.1-3.7-2.6zm-289.5.2c-1-1.2-.7-1.7 2.3-3 3.9-1.6 4-1.9 2.7-4.4-1.5-3-1.9-15.2-.4-15.2 1.4 0 2.8 4.5 4.4 14.8 1.2 7.9.8 9.3-1.9 7.6-1.2-.8-2.2-.7-3.8.3-1.8 1.2-2.3 1.2-3.3-.1zm-80.1-.8c0-.7 1.2-2 2.7-3l7.8-5.8c5-4 9.5-5.2 9.5-2.7 0 2-2.2 3.7-4.8 3.7-1.4 0-3.4 1.2-4.9 3-1.4 1.7-3 3-3.8 3-.7 0-1.8.7-2.5 1.5-1.5 1.8-4 2-4 .3zm358-3.8a23 23 0 0 0-5-4c-1.9 0-4-5.6-8-21-1.5-6-1.7-8.9-1-15 .4-4.2.6-9.2.3-11.3-.3-2.7 0-4.4 1.3-5.7 1.4-1.6 1.6-3 1-7.2-1-6.8-.7-14 .6-15.5.6-.7 1-3.9.8-7-.5-12.5-.2-18.6 1.1-19.4 1-.7 1-1.4-.4-3.4-.9-1.4-2-2.6-2.6-2.6-2 0-5.4-9.6-5.8-16.6-.4-6.8-.3-7.3 2.6-10.6 3.8-4.2 4.6-3.5 2.2 1.7-2 4.3-2.6 11.4-1 14.2.5 1 1.1 3 1.5 4.5.6 3.2 4.5 6.1 6.9 5.2 1.2-.5 1.6-2 1.6-6.5 0-6.3 1.2-8.2 3-4.9 1.5 2.8.3 9.9-2 12.5-4.8 5.4-6.5 20.3-2.8 25 1.7 2.3 1.8 2.6.3 3.1-1 .5-1.3 1.3-1 2.7.4 1 .3 2.3-.3 2.6-1.2.8-1.8 10.7-.8 14.2a33 33 0 0 1-.8 10 67 67 0 0 0-1 25c.7 11.4 2.1 15.4 7.3 21 1.7 1.7 3.1 3.8 3.1 4.5 0 .8 1.4 2.3 3 3.5 3.2 2.3 4 5 1.5 5-.8 0-3.3-1.8-5.6-4zm-338 1.8c0-3.6 7.6-10.8 11.4-10.8 2.6 0 1.8 1.7-1.9 4a29.7 29.7 0 0 0-6 5c-2.6 3.2-3.5 3.7-3.5 1.8zM.2 291c-1.2-2 3.2-3.7 14.3-5.8a128.2 128.2 0 0 0 31.4-8.3c3.7-1.2 7-2.6 7.3-3 .3-.6 1.2-1 2-1a50 50 0 0 0 8-3 35 35 0 0 1 7.9-3c.8 0 1.7-1 2-2 1.7-5.2 15.8-16.7 18.5-15 1 .5.8 1.2-.7 2.6-8.3 7.7-12.2 11.9-11.4 12.2.6.2 1.8-.1 2.8-.7 2.6-1.3 11.4-2.5 11.3-1.5 0 2.1-1.8 3.3-6.5 4.4-2.7.7-5.7 1.6-6.7 2.1s-3 .9-4.8.9c-2.6 0-8.7 2.2-14.2 5-1 .6-2.6 1-3.8 1-1 0-2 .3-2 .7s-2.8 1.7-6.2 2.7c-3.5 1-7.6 2.5-9.3 3.1-4.3 1.8-14.5 4.2-25.5 6.1-5.2 1-10 2-10.4 2.5-1.3 1.2-3.3 1.2-4 0zm220-.8c-1.1-.3-3.4-1.5-5-2.7-2.6-1.8-4.9-2.2-17.5-2.7-14.3-.6-24.5-2.2-25.6-4-.3-.5-1.4-1-2.4-1s-2.3-.5-3-1.3c-.6-.8-4-1.7-7.8-2-8.5-1-13.2-2.4-13.2-4.2 0-1.8 1.2-1.8 8.4.1 6 1.6 7.8 1.3 5.7-.8-1.4-1.4-4.2-1.8-12.3-1.7-7.4 0-9-1.4-8.2-7.8a16 16 0 0 1 1.6-6c1.6-2-.7-3.6-7.2-5.6a33.5 33.5 0 0 0-15.6-.7c-10.2 1-15.2.7-16.9-1-1.7-1.7 3-2.4 18-2.4 9.1 0 16.1.4 17.6 1a122.7 122.7 0 0 0 9.9 4.3 54 54 0 0 0 6.5 2.2c5 1.5 8.8 3.5 9.3 4.9.5 1.5-4.1 1.4-5.6-.1-.7-.7-1.2-.8-1.2-.2 0 .6 1.1 2 2.5 3.3 2 1.7 2.4 2.5 1.5 3.6-.9 1-.8 1.5.3 2.1.8.5 4 3.2 7.2 6.1 3.2 3 6.8 5.3 8 5.3 1.1 0 2.6.5 3.3 1.2a63 63 0 0 0 18.2 1.8c14.6.5 17.2.9 19 2.5 1.2 1 3.4 1.8 5.3 1.8a66 66 0 0 0 20.2-3 11 11 0 0 1 5.2-1.3c4.5 0 7.5-1.6 9.8-5.3 1.6-2.6 3-3.4 6.5-4 6.3-.9 15.4.2 14 1.7-1.2 1.5 2.5 3.9 5 3.1 2.6-.8 8 1.8 7 3.4-1.4 2.4-9.8.6-14.3-3-3.7-3-4-3.1-8.5-1.9-2.6.7-6 2.5-7.7 4a21.5 21.5 0 0 1-7 4c-2.2.6-5.3 1.7-7 2.3a34 34 0 0 1-8.5 1.2 36.5 36.5 0 0 0-13.4 3.4s-1-.4-2.1-.6zM155.8 267c1.8-2.1 1.1-3.5-3.8-7-2.3-1.6-4-2-6.3-1.5-3.4.7-3.6 2.7-.3 3.2 1.2.2 2.4 1 2.7 1.9.5 1.1.1 1.4-1.4 1-2.4-.6-3.9 1.1-2 2.4 2.7 1.6 6 1 6-1.1 0-1.4.6-2 2-2 1 0 2 .6 2 1.5 0 .8-.5 1.5-1 1.5a1 1 0 0 0-1 1c0 1.5 1.4 1.2 3.1-.9zm124 21.6c-2.3-2.4-1.2-3.8 2.4-3.1 3.3.6 11.8-.8 16-2.6 5.6-2.4 20.6-3.3 21.3-1.3.3 1-1.2 1.3-5.6 1.3-3.3 0-6.3.4-6.7 1-.3.5-1.8 1-3.3 1-1.5 0-3.2.4-3.7.8s-4.4 1.4-8.5 2.1l-9.1 1.6c-1 .2-2.2-.2-2.8-.8zm321.9-2.5c-.1-.4-.3-5.2-.4-10.7-.2-6.6-1-12.6-2.4-17.5-3.5-12.2-3.5-12-1.7-12 2 0 3.1 2.2 4.5 10 2.4 12.7 3.1 13 5.7 2.2a43.2 43.2 0 0 0 0-23.4c-.8-1.9-1.7-6.9-2-11.1-.6-6.7-.5-7.8.8-7.8s1.6 1.1 1.6 4.8c0 2.6.5 6.5 1.1 8.7 1 3.7 1.2 3.9 2.5 2 .8-1 1.4-2.6 1.4-3.6 0-2.9 2.2-6.9 3.8-6.9 1.9 0 1 3.7-2.4 10.5-2 4-2.4 6.1-2 10.5a58 58 0 0 1-4.6 23.5c-1 2-2.1 6.4-2.4 9.5-.7 8.9-1.4 12.1-2.4 12.1-.5 0-1-.3-1.1-.8zm48.2-6.7c0-2.5.4-3.5 1.2-3.3.7.3 1.3 1.7 1.3 3.3s-.6 3-1.3 3.2c-.8.3-1.2-.7-1.2-3.2zm-150-1.7a8 8 0 0 0-2-4.7c-2.6-2.3-5.4-8-4.7-9.8 1-2.3 4.6.2 4.6 3.2 0 1.4.4 2.5 1 2.5.5 0 1 .7 1 1.5s.4 1.5.9 1.5c1 0 3.1 5.3 3.1 7.6 0 .8-.8 1.4-1.8 1.4-1.3 0-1.8-.9-2-3.2zm425 1.9c0-.8 1.4-1.7 3.3-2l5.5-1.3c1.6-.5 2.3-.2 2.3.9 0 1-1.4 1.7-3.8 2.1l-5.5 1.2c-1 .3-1.7 0-1.7-1zm230.1-1.9c-3-1.6-6.2-3.6-7-4.4-1-.8-2.1-1.4-2.7-1.4-.6 0-1.6-.7-2.3-1.5-.7-.8-1.9-1.5-2.6-1.5-1.8 0-6.3-2.1-12.9-6a228.4 228.4 0 0 0-10.5-6c-.3-.3-2.7-.6-5.5-.8s-6.3-.9-8-1.7l-9-4.1c-11-4.9-12.5-5.7-12.5-6.6 0-.4.8-.8 1.7-.8 4 0-.8-2.3-5.4-2.6a61.9 61.9 0 0 1-21.7-7.6 41.2 41.2 0 0 0-10.8-3.6c-3.4-.4-4.5-.9-4.1-1.9.3-.9-.2-1.4-1.7-1.4s-2 .5-1.7 1.5c.4 1-.8 1.7-5 2.7-5.3 1.2-8.2 3-15.8 10.1a13 13 0 0 1-3.8 2.8c-.4 0-2.4 1-4.5 2.4-2 1.3-5 2.8-6.7 3.1-1.7.4-7 2.7-12 5.1-9.6 4.7-11.5 5.2-11.5 2.9 0-1.7 4.5-3.9 10.2-5 2-.3 3.8-1 3.8-1.4 0-1 9.2-6.1 10.9-6.1 1.7 0 7-4 11-8.3 1.9-2 4-3.8 4.7-3.8.7 0 1.8-.5 2.6-1.2 1.1-1.1 4.9-2.9 12.6-5.9 3.5-1.3 10-1 10.9.5.4.7 2.9 1.6 5.4 2 2.5.3 7.5 2 11 4a69 69 0 0 0 14.4 5.1 68 68 0 0 1 15.3 5.7c4.3 2.3 9 4 11.5 4.2a31 31 0 0 1 9.4 3c2.9 1.5 6.2 2.7 7.3 2.7s6.7-1.5 12.3-3.2 13-3.4 16.2-3.8c7-.8 9.2-1.6 12-4.1a53 53 0 0 1 19.2-6c6-.9 12.3.2 14 2.5.6.8 2.5 1.5 4.2 1.5 2 0 3.1.6 3.1 1.4 0 1.7-15.7 3-17.6 1.5-1.5-1.2-13.4-.8-13.4.4 0 .6-1.3.8-3 .5-1.7-.2-3 0-3 .7 0 1.6-5.8 4.6-9 4.6-1.6 0-6.4 1-10.7 2.4a96.5 96.5 0 0 1-13 3.1c-3.5.5-5.3 1.2-5.3 2.1 0 .8.6 1.4 1.3 1.4.7 0 4.4 1.5 8.2 3.4s11.8 4.8 17.5 6.6c5.8 1.7 11.8 3.7 13.3 4.2l2.8 1-2 2c-1.7 1.6-3 1.8-5.7 1.3-2.4-.4-3.4-.3-3 .4a3 3 0 0 0 2.2 1c.7 0 1.8 1 2.4 2 1.6 3-1.2 2.6-8-1zm7.2-5.4a14 14 0 0 0-5-1.3c-1 0 0 .6 1.8 1.4 4.8 1.8 7.4 1.8 3.2 0zm-46.6-18.1a23 23 0 0 0-5-2.4c-3.2-1.2-4.3-1.3-4-.4.3.6 2 1.7 3.7 2.2 4 1.3 6.3 1.5 5.3.6zm-17.6-5.7a56 56 0 0 0-11.6-5.6 36 36 0 0 0 10.4 5.9c.6 0 1.2-.1 1.2-.3zm-775.8 28.3c-3.6-1.8-5-2-14.3-1.2-10.5.9-14 .3-17.2-2.8-.8-.8-2.8-2-4.4-2.7-2.2-1-2.6-1.6-1.7-2.5 1-1 2.1-.7 5.2 1.1 7 4 11.6 5 20.4 3.8 7.4-.8 8.4-.7 12.5 1.3 4.2 2 5.6 2.2 21 2a62 62 0 0 1 17 .6c.7 1.3-9 2.2-23.5 2.3-9.1.1-11.6-.2-15-2zm339-.3c-1.2-3.3.6-8.8 5.3-15.9a51.4 51.4 0 0 0 6-10.6 17 17 0 0 0 2.5-4.9c1.4-3.6 1.5-4.3.3-5.3-2-1.6-1.9-2 1.5-9.2 1.5-3.4 3.4-8.4 4-11 .8-2.8 1.7-4.5 2.3-4.1.7.4.8.1.3-.6-1.2-2 1.5-14 3.2-14 1.2 0 1.3.9.7 5.2a71.2 71.2 0 0 1-6.5 22.7c0 .8-1.1 3.3-2.5 5.5-2.9 4.7-3 5.7-.8 4.9 3.8-1.5-2 13-9 22.3-3.7 4.8-4.7 7-4.9 10.7-.3 5-1.3 6.9-2.3 4.3zm-376.5-.6a1 1 0 0 1 2 0c0 .6-.4 1-1 1s-1-.5-1-1zm-6.5-1c.3-.6 1.3-1 2-1 .9 0 1.5.4 1.5 1s-1 1-2 1-1.8-.5-1.5-1zm668.4-3.7c-1.4-1.4 1.8-3.3 5.5-3.3 3.5 0 5 1.2 3.1 2.3-1.6.9-8 1.7-8.6 1zm13.5-3.2c-1.1-.7-1-1.1.7-2 2.1-1.2 3.8 0 2.7 1.9-.8 1.2-1.6 1.2-3.4 0zm-307.7-10.3c1.3-13.4 1-28-.6-30.9-1-1.7-1.4-7.5-1.7-19.5a530 530 0 0 0-.6-20c-.1-1.7.2-5 .6-7.5s1-9 1.3-14.5a413 413 0 0 1 3-38.6c.4-3.5-1.5-17.2-2.7-18.7-.6-.7-.7-2.5-.4-4.1.5-2.2-.2-4.8-2.4-9.7-2.3-5-3-7.9-2.7-11.5.3-6 1.7-7.7 6.5-8.5 6.1-1 21.2-1.3 21.2-.4 0 1.5-7.9 3-13.2 2.3-4.6-.5-5.8-.3-8.1 1.6-3 2.4-3.5 4-1.3 4 1.8 0 2 1.3.4 3.8-.9 1.4-.8 2.3 0 3.8 1 1.6 1.2 1.6.8.1-.4-1 0-1.7.9-1.7.8 0 1.4.8 1.4 1.8s.5 2.2 1 2.7c2.7 2.8 3.5 24.4 1.7 41.9l-1.5 15.7c0 .8-.4 5.4-1 10.3-.5 4.8-.7 11-.4 13.7.3 3.7 0 5.4-1.2 6.5-2 2-1.9 9.5.2 18.3 1 4.5 1.1 7 .4 9a49.6 49.6 0 0 0 1.3 20.6c2.2 8.5.5 36.5-2.3 37.5-1.1.3-1.2-1-.6-8zm-194 6.5c-.3-.4-.6-4.7-.6-9.6 0-6.7.3-8.8 1.2-8.5.8.3 1.3 2.4 1.3 5.6 0 5.7.8 6.3 4.7 3.2 2.2-1.7 4-4.8 7.7-13a47 47 0 0 0 6-22.7c0-3.4.5-4.4 1.7-4.4 1.5 0 1.6 1 1 8.7a48 48 0 0 1-6.2 22.8 16 16 0 0 0-2.4 5c0 2.1-3.2 5.4-7 7.3-2.2 1.1-3.6 2.6-3.8 4-.3 2.2-2.2 3-3.6 1.6zm295.2-9.2c-.6-9.3-2.8-17.2-5-17.2-.4 0-.7-1.3-.7-3 0-1.6-.5-3-1-3s-1-.6-1-1.5-.4-1.5-.9-1.5-1.4-1.3-2.1-3c-.7-1.7-2-3.4-2.8-3.9-1.3-.7-1.3-1.5-.3-5.5 1-3.8.9-5.2-.3-7.4-2.9-5.4-6.6-14-6.6-15 0-2.9 2.7-.2 5.3 5.3l5.4 11c2 4.3 2.2 5 .8 5.8-2.2 1.2-1.9 4.4.9 8 1.3 1.8 3.2 5.2 4.1 7.5 2.4 6 5.5 5.3 5.5-1.3 0-1.6.6-2.5 1.6-2.5 1.3 0 1.5.7.9 3.8-.4 2-1.1 4.3-1.6 4.9-.6.7-.6 2.8 0 5.5 1.6 6.8 1.4 22.9-.3 22.9-1 0-1.5-2.6-2-9.9zm-55.6-6.4c-2.6-6.8-2.4-28.4.2-27.5.8.3 1.2 4.3 1.4 12.1a62 62 0 0 0 1.2 13.6c1.5 2.7 1.3 4-.5 4-.8 0-1.9-1-2.3-2.2zm-158.2-2.1c0-2 .5-4.7 1.2-6.1 1.2-2.6 4.8-4.3 6.7-3 .7.3 1.1-1 1.1-4.2 0-3.4.7-5.5 2.4-7.8 2.7-3.6 3.2-9 1-12.3-2.7-4.2-2.9-10.7-.4-17.3 1.2-3.3 2.6-5.7 3.1-5.4 1.2.7 1.1 7.4-.1 7.4-1.5 0-1.2 10.2.5 13 3.5 6 3.7 7.3 1.9 11l-2.9 6c-.6 1.4-1.3 4.3-1.4 6.5-.3 5.5-2.5 8.7-5.7 8.3-2.2-.2-2.8.3-3.7 3.2-1.7 4.8-3.7 5.2-3.7.7zm-58-2.1c0-.9.6-1.5 1.4-1.5 1.4 0 9.6-8.7 9.6-10.2 0-.5.7-.9 1.5-.9s1.5.7 1.5 1.4c0 1.6-5.2 8.4-8.3 10.9-2.7 2.1-5.7 2.3-5.7.3zm730.2-2.5c0-.5 1-1 2.3-1.4 15.4-3.7 22.4-4.6 21.3-2.7-1.4 2.3-23.6 6.1-23.6 4zm-985.8-12.2a116 116 0 0 0-10.3-.8c-3.9 0-5.2-.4-5.2-1.5 0-1.6-1.1-1.6 31.8.1 7 .4 10.2 1 9.9 1.7-.4 1.3-18.4 1.7-26.2.5zm591.7-.7c0-1.5.2-1.5 25.5-1.7 20.4-.1 52.2-1 69.5-2l26.5-1c19.2-.7 22.4-1 19-2.5-1.4-.7-.4-.9 3.5-.9 10.3 0 32.1-1.4 31.3-2-1.2-1-36.3.4-37 1.5-1 1.4-17 1.8-17.8.5-.9-1.6-17.2-1.2-18.8.4-.7.7-1.9 1.2-2.7 1.3l-23.5.7c-12 .3-24.8.8-28.2 1-4.9.4-6 .2-5.7-.9.4-1 6-1.5 23.7-2.2 12.8-.4 21.3-1 19-1.2-2.4-.1-4.3-.7-4.3-1.1s6.2-.9 13.8-1c37-.2 113.6-2.8 126.6-4.2 9.9-1 13-.9 11.4.7-.3.4-2.8.8-5.4 1-6.7.4-27.4 2.4-35.8 3.3-3.9.5-8.5.5-10.3 0-1.8-.3-3.2-.3-3.2.2 0 .4.7 1 1.7 1.2 2.2.4-12.5 2.7-17.7 2.7-2.1 0-6.5.7-9.7 1.5-5.7 1.3-14.7 2-43.4 3l-22 1.1c-4.7.3-26 .8-47.2 1.1-28.8.5-38.8.3-38.8-.5zm-284.8-2c-.3-1.2-.8-2.2-1.2-2.2-.3 0-.5-2-.3-4.5.5-5.8 2.4-5.4 3.3.6l1 5.8c.2.8-.2 1.6-1 1.9-.7.2-1.5-.5-1.8-1.7zm-236.7-3c-2-.2-3.7-.8-3.7-1.3 0-1.2-2.5-1 21.5-1.6 30.7-.7 32-3 2-3.8-17.4-.4-16.2-.3-15-1.6 1.5-1.4 20.3-1.4 31.5 0 5.2.5 16.3 1.5 24.5 2.1 14 1 16.5 1.3 15.4 2.3-.2.2-7.6.6-16.4.7-8.8.2-16.8.7-17.7 1.2-2.5 1.1-35.4 2.8-42 2zm625.3-2c.7-.2 1.8-.2 2.5 0 .7.3.1.6-1.3.6-1.3 0-2-.3-1.2-.5zm-673.8-2.6c.3-.7 3.6-1.5 7.9-2a176 176 0 0 1 33.5-.6c.3.5-1.6 1-4.3 1.1l-9.1.3c-2.4.1-4.7.7-5 1.3-1.1 1.7-23.5 1.6-23 0zm157-.3c-.5-1-1.3-3.6-1.7-5.6-.5-3-.4-3.8.7-3.8 1.9 0 4.5 8.8 3 10.2-.6.7-1.3.5-2-.8zm291.6 0c-.8-.9-.8-4.8 0-5.7 1.3-1.3 3 1.4 2.6 3.8-.5 2.5-1.3 3.1-2.6 1.9zm65-1c-1.1-1.2-.7-2.4.9-2.4.8 0 1.5.4 1.5 1 0 1.2-1.6 2.1-2.4 1.3zM291 216.4c.2-.7 1.2-1.3 2.2-1.3 1 0 2 .6 2.3 1.3.2.8-.6 1.2-2.3 1.2s-2.5-.4-2.2-1.2zm267.4-4.5c-1.6-11.5-1.8-17.6-.5-20 1-1.8.9-3.2-.5-7.7a19 19 0 0 1-1-8.7c.5-2.9.5-3-1.5-1.8-2.7 1.7-3.4.8-2.1-2.6a48 48 0 0 0 1.3-10.8c.2-8.9-1.1-11-3.4-5.5-2.3 5.4-6.3 11.8-7.5 11.8-.6 0-1.8.8-2.7 1.8-1.3 1.4-1.4 2-.5 3 .8.8.8 1.5 0 2.4a22 22 0 0 0-2.3 6c-.7 3-1.7 4.8-2.6 4.8-1.2 0-1.4 1.7-1.2 9.7.2 8.3 0 9.9-1.3 10.1-1.3.3-1.7-1.5-2.3-11.4-.8-12-2.2-16.5-6.9-20.3-1.9-1.6-2.2-5.5-.4-4.9.6.2 1.9 1.8 2.7 3.5s2.6 3.7 3.8 4.4c1.3.7 2.5 2.6 2.9 4.5 1 5.6 2.9 2.9 3.2-4.8.2-5.6.7-7.6 2.3-9.2a57 57 0 0 0 12.7-21.1c.9-1.5.9-5.6 0-6.2-1.2-.7-1-9.1.2-9.9.5-.3.9-2.5.8-4.8 0-2.3.5-5.5 1.2-7.2 1.2-2.9 1.4-4.1 2.4-15.3 1-11 3-7.9 4 6.3a146.6 146.6 0 0 1 3.1 26c1.1 20.5 1.1 22.5 0 22.6-.6 0-1.5-7.7-2.2-18.8-1-17-2.5-27.8-3.8-29.1-.3-.3-.6 1.5-.6 3.9l-.4 6.4c-2 15.2-.3 36.8 3.2 40.8 1.3 1.5 1.5 2.2.5 2.5-1.6.6-1.5 2 .3 4 .8.7 1.5 2.7 1.5 4.3 0 1.6.4 5 1 7.7l1.4 9.6c.5 4.3.3 5-1.4 5.4-2.1.6-2.8 4.7-1 5.8.5.3 1 4.4 1 9 0 6.6-.3 8.5-1.4 8.5-1 0-1.6-1.6-2-4.7zm203.8-5c1-9.9 1.4-13.9 2.2-17.3a7 7 0 0 0-1-5.5c-.8-1.3-1.5-3-1.5-3.8 0-.7-1-3-2-5.2-1.1-2.2-2-4.8-2-5.8s-1-3-2-4.5c-1.2-1.4-1.8-3.3-1.5-4.2a3 3 0 0 0-.9-3c-1-.8-1.3-3.4-1-11.3l.3-14.4c0-2.3.5-4.5 1-4.8.6-.4.8-1.7.5-3-.7-2.8 1-4.2 3.1-2.5 1.2 1 1.5.9 1.5-.3 0-.9.6-1.8 1.5-2.1 2-.8 1.7 2.6-1.9 15.5-1 4-1.3 6.5-.6 8.5l2 7.5c.7 2.6 1.8 5 2.6 5.3.8.3 1.4 1.4 1.4 2.5 0 1.2.9 2.8 2 3.8 2 1.8 1.8 3.3-.6 3.3-.9 0-2.2-1.5-3-3.3-3.4-7-5-9.8-5.7-9.1-1.2 1.2-.8 3 1.6 8.6 1.4 2.9 3 7 3.6 9 .7 2 1.6 4 2.1 4.3s1 1.3 1 2 .9 3.4 2 5.7c1 2.3 2 5 2 5.9s.7 2.2 1.5 2.9 1.5 2.7 1.5 4.4c0 1.7.7 5.5 1.4 8.5 1.8 6.5 1 9-1 3.5a44.3 44.3 0 0 1-2.3-12.2c0-.7-.6-1-1.1-.7-.6.3-1 0-1-.9 0-.8-.5-1.8-1.2-2.2-.8-.5-1-.2-.5 1 .4.9 1 2.2 1.2 3s0 2-1 2.9c-.8.8-1.7 4.3-2.1 8.1-.4 3.6-1.1 6.6-1.7 6.6-.6 0-.8-2.5-.4-6.7zm46.1.6c-.6-1 1.3-3.9 2.7-3.9.5 0 .9.9.9 2 0 2-2.6 3.5-3.6 2zm-79.1-3.1c-4.8-6.3-8.9-16.5-6.3-15.6 1.2.4 6.6 9 7.6 12 .3 1 1 1.8 1.5 1.8s.9.7.9 1.5c0 1.8-2.4 2-3.7.3zm-34.3-6.7c0-4.5-.4-6-1.7-6.5-1.2-.5-1.3-1-.5-2 .8-.9.8-1.6 0-2.3-.7-.8-.7-1.3.1-1.8.8-.5.8-1 .1-2-1.2-1.5 2.2-5.1 3.9-4 1 .6 1.3 14 .4 20.8-.8 5.8-2.3 4.4-2.3-2.2zm-3 3.4a26 26 0 0 1 0-4c.2-4 2-5.8 1.9-2 0 3-1.7 7.8-2 6zm482.1-5.5c-1.4-.4-3.9-.8-5.6-.9-1.7 0-3.8-1-4.8-2-1.7-1.9-1.5-1.9 5.1-1.8 15.2.1 54.3-1.8 76.3-3.8 7.5-.6 14-1 14.6-.6 1.6 1 6.9 0 8.4-1.5 1.3-1.2.6-1.4-5-1.5h-7.2a498.4 498.4 0 0 1-59.3 3.2c-2.2 0-7.4.3-11.5 1a89 89 0 0 1-37.7-5.3c-.6-.6-2.1-.7-3.2-.3-1.4.4-2.3.1-2.7-.9-.3-.8-2.3-1.8-4.5-2.1-3.1-.6-4.5-.3-6 1-1.9 1.8-2.2 1.8-6.7.2-5.3-2-8.8-2.2-9.7-.8-1.3 2.2 4 4 10 3.5l8.5-.7c1.7-.1 2.5.3 2.5 1.3s-1.8 1.9-6 2.7a25 25 0 0 1-6.4.8c-.2-.2-1 .5-2 1.5-1.6 2-1.7 2-7.6-.5-8-3.3-10.8-5.6-11.6-9.5-.4-1.8-1.4-4-2.3-4.8-1.4-1.4-1.6-1.3-2.5 1-1 2.9-2.2 3.3-11.1 4.7-5.2.8-6 .7-12-2.5-7.1-3.8-8-4-8-2 0 1-.9 1.6-2 1.6-1 0-2.1.4-2.4.8-.7 1.2-5.4.6-7-.8-1.1-.8-3-.8-7.4.1-7.5 1.6-10.2.2-12.1-6.3a23 23 0 0 0-2.4-5.6c-.7-.9-.5-1.2 1-1.2 1.1 0 2.5 1.1 3.3 2.7 3 5.9 5 7 10.7 6.5 3.4-.3 5.3-1 5.3-1.8 0-.7.8-1 2-.7 3 .8 2.4-1.9-1.2-4.8-1.8-1.5-2.8-3.1-2.4-3.8 1.1-1.8 2.3-1.4 6.3 2.4 4.4 4.2 9.7 7 11.3 6 .6-.4 1.7 0 2.3.8 1.4 1.8 11.8 4 13 2.7 1.2-1.1.1-4-1.4-4-.6 0-.9.6-.6 1.4.7 1.7-2.2 1-3.8-.9a7.9 7.9 0 0 0-2.8-1.8c-1-.4-1.7-1.3-1.7-2.2 0-.8-.6-1.2-1.3-1-.8.3-1.8-.5-2.5-2-1.2-2.7-4.3-3.9-8.8-3.4-1.7.2-3.4-.2-4.1-1.1-1-1.2-1.6-1.3-3.2-.3s-2 .9-2.5-.3c-.4-1.1.5-1.5 4.7-1.5 5-.2 29.2-.1 31 0 .5 0 .6 1.2.3 2.5-.6 2.3 1.4 5.6 3.3 5.6 1 0 2.2 4.2 1.5 5-.3.2-1.4-.7-2.5-2-1.5-2-2-2.3-2.8-1.1-1.8 2.8 3.4 5.3 6.6 3.3 1.6-1-1.3-11.2-3.2-11.2-1.6 0-4-12-2.6-13.4.5-.4 1.7-.7 2.7-.5 1.6.3 1.9 1.3 2 5.7 0 4.5.3 5.6 2.4 7.2 3 2.3 4.4 2.5 3.7.5-.3-.8-.9-3-1.2-5-.7-3.2-.5-3.5 2-4.1 1.8-.5 3.2-.2 4.2.8 1.4 1.4 1.4 1.9 0 4.8a23 23 0 0 0-.7 15 6 6 0 0 0 2.6 2.4c1.4.5 1.6 0 1-3.2l-1.2-6c-.5-1.8-.2-2.2 1.5-2.2 1.8 0 2.1.6 2.1 4.3 0 4.2 1.9 7.5 3.3 6 .4-.4.7-.1.7.5 0 .7-1 1.2-2 1.2-1.2 0-2 .5-1.8 1.1.6 1.6 7.8 1.7 7.8.1 0-.7-.4-1.2-1-1.2-.5 0-.7-.7-.4-1.5.7-1.8 6.2-2 11.3-.6 1.8.6 7.7 1 13 1.2 9 .1 13 .6 25.6 3 2.8.6 7.2 1 9.8 1.2 2.7.1 5.2.8 5.6 1.5.7 1.1 1.7 1 5.5-.2a39.6 39.6 0 0 1 18-1.3c4.8.6 6.4 1.2 5.5 2.2-.3.3-4.3.7-8.8 1-7.4.4-11.9 1.3-8 1.6.8 0 0 .5-1.6.9-2.6.6-2.3.8 2.2.9 2.8 0 5.3-.4 5.5-.9.2-.6 3-1.2 6.2-1.5 3.3-.3 6.6-1 7.5-1.4 1-.5 5-1.1 9-1.5 4-.4 7.9-1 8.5-1.3.6-.4 3.8-.8 7.1-.9 3.3 0 10.3-.3 15.6-.5 7.9-.4 9.5-.2 9.5 1s-1.4 1.7-4.8 1.9c-3.2.2-4.6.7-4.1 1.4.4.7.1 1-1 .5-.9-.3-1.9-.2-2.2.4-.4.6-1 .6-2-.1-1-.8-1.4-.8-1.8.2-.4 1-.7 1-1.5-.2-1-1.3-1.3-1.2-2.6.5-1.4 1.8-1.5 1.8-1.5.2 0-1.2-.5-1.6-1.3-1-.7.4-1.9.7-2.7.8-.7 0-1.6.6-1.8 1.3-.4 1.1 1.7 1.2 11.4.6 16-1 32.7-.8 33.2.6.2.7 3.5.9 10.4.4 9.2-.7 10-.6 9.6 1-.3 1.6-1.6 1.9-11 2-8 0-10.8-.2-10.8-1.2 0-.6-.5-1.2-1-1.2s-1 .4-1 .9c0 .4-2 1.3-4.3 1.8-3.9 1-3.4 1 5.5 1.2 10.4.1 14 2 4 2.2-3.2 0-7.6.2-9.8.4-4.2.5-15 .7-29 .6-4.4 0-8.4.4-9 1-.6.7 2 .8 7.6.4 8-.6 8.3-.5 5.8 1-1.7.9-7.5 1.8-16 2.5a447.6 447.6 0 0 1-56.9 0zm55.4-3.6c3-1.8.3-2.5-5.7-1.6-3 .5-10.8 1-17.3 1.1-6.5.2-16 .7-20.9 1-6.6.7-2.1.8 16.5.7a154 154 0 0 0 27.4-1.2zm-119.8-13c-2.8-2.5-4.6-3-4.6-1.6 0 1.3 3.3 4.8 5 5.4 2.6.9 2.4-1.5-.4-3.9zm77.3 3.6c-.7-.4-5-1-9.4-1.5a184 184 0 0 1-19.5-2.5c-15.4-2.6-23.6-4-24.5-4-2.8 0 6.1 2.8 14 4.4 5 1 10.7 2.1 12.7 2.7 2 .5 4.9.7 6.2.3 1.4-.3 3.3-.1 4.3.5 1 .5 5.4 1 9.7 1 4.4-.1 7.3-.5 6.5-1zm22.6.1c.5-.9-7.3-.6-8.2.3-.3.3 1.3.6 3.5.6 2.3 0 4.4-.4 4.7-.9zm21.3-1.3c-.4-1.3-7.3-1.2-14.3.2-3.2.6-2.1.8 5.4.9 6.8 0 9.2-.2 9-1.1zm2.7-.8c.4-.6.2-1-.4-1-.6 0-1 .4-1 1 0 .5.1 1 .4 1 .2 0 .7-.5 1-1zm-42.5-.4c0-.2-.6-.7-1.5-1-.8-.3-1.5-.1-1.5.4 0 .6.7 1 1.5 1s1.5-.2 1.5-.4zm-63-3.5c0-.7-1.4-1.6-6.2-4-.5-.1-.8.4-.8 1.2s1.2 2 2.8 2.5c3.5 1.3 4.2 1.4 4.2.3zm-38.4-3.8c-1-1-1.9.5-1 1.8.6 1 .8 1 1.2 0 .2-.7.1-1.5-.2-1.8zm-26.1.7c-.4-.6-1-1-1.6-1-.5 0-1 .4-1 1s.8 1 1.6 1c.9 0 1.3-.5 1-1zm32.5-1.6c0-1.4-.3-1.4-1.5-.4-.8.7-1.5 1.4-1.5 1.6 0 .2.7.4 1.5.4s1.5-.8 1.5-1.6zm4-6.4c0-2.2-2.1-3.2-4-2-.9.6-1 1-.4 1 .7 0 1.4 1 1.7 2 .7 2.5 2.7 1.7 2.7-1zm-23-2c-2.3-1.5-2.8-1.2-2.2 1.6.4 2.3.6 2.4 2 1 1.5-1.5 1.5-1.8.2-2.7zm8.7-2.8c.3-.9-.8-1.2-3.9-1.1-2.4 0-3.3.3-2 .6 1.2.2 2.2.9 2.2 1.4 0 1.4 3.2.6 3.7-.9zm-749 27.5a237 237 0 0 0-23.2-.3c-7.6.3-14 .1-14.2-.3-.6-.9 10.5-3.3 17-3.7a227.5 227.5 0 0 1 17.5-1c6.8 0 13.9-.5 15.7-.9 3.4-.7 4.8 1 1.5 1.8-1.5.4-1.5.5-.1.6.9 0 2.1-.6 2.8-1.4 1-1.1 3.3-1.5 8.7-1.5 4 0 7.3.4 7.3.8s-3.5.7-7.7.5c-6.8-.3-7.6-.2-6 1 1.2 1 3.3 1.3 6.4 1 2.7-.4 4.8-.2 5.2.5.4.7 6.6 1.3 15.7 1.7 8.2.4 15.4 1 16 1.6 1 1.1-48.2.8-62.6-.4zm8.3-2.4c-.7-.2-2-.3-3 0s-.4.5 1.2.5 2.5-.2 1.8-.5zm-222.9.7c-.4-.7-.2-1.6.4-2.2a689 689 0 0 1 76-.3c.6 2-6.9 2.4-39.4 2.4a536 536 0 0 0-34.7.6c-.8.4-1.9.1-2.3-.5zm612.3-.3c-.2-.6-.7-2.9-1-5-.4-2.4-1.2-3.7-2.2-3.7-1.2 0-1.4-.7-.9-2.8.4-1.5.6-4.4.6-6.5-.1-4.5 2.4-8.7 5.3-8.7h2l-2 2.2a13.8 13.8 0 0 0-2.8 5.5c-.6 2.7-.4 3.2.9 2.7s1.6.3 1.6 4.7c0 3 .3 7 .6 9.1.4 2.6.3 3.8-.5 3.8-.7 0-1.4-.6-1.6-1.3zm-3.9-.4c-1.2-2-1-6.7.3-7.1 1-.4 1.2.1.8 1.7-.3 1.1-.1 2 .4 2 1.2 0 1.1 2.8 0 3.6-.6.3-1.2.2-1.5-.2zm345.8-.7c-3.6-1.7-3-4 .8-3.2 1.7.3 5.3.6 8 .6 8 0 5.6 3-2.6 3.5-2.2 0-5-.3-6.2-1zm-797.8-.1c-.3-.3-13-.8-28.4-1.2-15.3-.3-28-.7-28.3-.9-.1-.1 0-.8.4-1.4.5-.8 8.3-1 25.8-1 23.3 0 31.3-.4 48.7-2.9 9-1.3 24.3-1.4 23.5-.1-.3.5-1.5 1-2.5 1-2.4 0-2.6 1.7-.2 2.4 1 .2-1.4.2-5.3-.2a100 100 0 0 0-27.2.7c-1.3.7 1.5 1 10 1 7.7-.2 12.2.2 13 1 .8.8-.6 1.1-5.8 1.2-3.9 0-10.6.3-15 .5s-8.4.1-8.7-.1zm95.2.1c0-.8 4.8-1.2 6.6-.5 1.4.5.7.8-2.3.8-2.3 0-4.3 0-4.3-.3zm9.6-.6c.3-.6 2.5-1 5-1 2.4 0 4.6.4 5 1 .3.6-1.6 1-5 1-3.5 0-5.4-.4-5-1zm-12.6-2c0-.7.5-.9 1-.5.6.3 1 .8 1 1 0 .3-.4.5-1 .5a1 1 0 0 1-1-1zm5.5 0c2-.8 8.3-1.4 7.5-.7-.3.2-2.5.7-5 1-3 .4-3.8.3-2.5-.3zm663 .3c-1.2-.3-2.2-1.2-2.2-2 0-1.3.8-1.5 4-1 4.8.6 6 1.4 4 2.7-1.6 1-2 1-5.8.3zm18.8-1.2c0-1 3-2 4.7-1.4 2.4.8 1.3 2.3-1.7 2.3-1.7 0-3-.4-3-.9zm-911.2-2.5c-1-1-.8-1.5.3-2 2.1-.8 4.6.3 4.6 2 0 1.8-3.4 1.8-5 0zm176.7.7c1.2-.3 3.3-.3 4.5 0 1.2.2.2.4-2.3.4-2.4 0-3.5-.2-2.2-.4zm7.2-.3c0-.4 1.3-.7 2.8-.7a3466.2 3466.2 0 0 0 49.3-2.4c1.2.1 1.1.3-.3 1.1-.9.6-5.2 1.3-9.5 1.5-14 .9-42.3 1.2-42.3.5zM805 179c0-1.2.3-1.4.6-.6.3.7.2 1.6 0 2-.4.2-.7-.3-.6-1.4zm-632.7 0c-1.2-1.4-.6-2.4 1.4-2.4 1 0 2 .7 2 1.5 0 1.5-2.1 2-3.4.8zm16 0c-.3-.4-.6-1-.6-1.5 0-1 10-2.2 21.5-2.5 23.4-.5 66.7-2.5 75.5-3.4 10.3-1 61-1 61 .1 0 1.3-12.8 2-32 1.9a354 354 0 0 0-47.4 2.4c-1.7.3-12.3.8-23.6 1l-35.5 1a184.3 184.3 0 0 0-18.8 1zm828.7-1.3c-9.2-1.3-24-11.4-24-16.3 0-1.3-.8-1.8-2.3-1.8-2.6 0-8.3-5.3-7.3-6.9.3-.5 1.9.3 3.5 2 1.6 1.5 3.8 2.9 5 2.9 1 0 3.3 1.7 5 4 1.8 2.2 3.9 4 4.7 4 1.9 0 3.1-3.3 1.5-3.8-.7-.3-2.8-1.8-4.6-3.4-1.8-1.5-4-2.8-4.9-2.8-.8 0-2.8-1.6-4.3-3.5-1.6-2-3.4-3.5-4-3.5s-1.3-1-1.3-2c0-3.2 2.7-2.4 6.7 2 2 2.2 4.4 4 5.4 4 .9 0 2.2.7 3 1.5.6.9 1.8 1.3 2.5 1 .8-.2 1 .1.7 1-.3.8.6 2.4 2 3.7 2 1.8 2.4 2.7 1.6 4.5-.5 1.3-1.6 2.3-2.6 2.3-1.7 0-1.7 0 0 1.7 1.5 1.6 1.9 1.6 2.7.3.6-1 1-1.1 1-.3 0 .7.5 1.3 1 1.3s2 1 2.9 2.1c1.4 1.8 3 2.2 8.2 2.5 4.2.2 7.1-.2 8.6-1.2 2.4-1.6 5.3-1 5.3 1.2 0 .8-1 1.4-2.4 1.4s-2.6.4-2.8 1c-.4 1.3-5.5 1.9-10.8 1zm-695.3-1.2c0-.5 2.4-1 5.4-1 3 0 8.2-.2 11.7-.5 4.4-.4 6-.2 5 .4-2 1.3-22 2.3-22 1.1zm134-.4c0-.8.5-1.7 1-2 .6-.4 1-2.2 1-4 0-2.5.5-3.5 1.6-3.5 1 0 1.5 1 1.5 3.9 0 2.2-.3 4.6-.6 5.5-.8 2-4.4 2.1-4.4.1zm-108-1.7c3.7-1.5 18-2.3 18-1 0 1.4-5 2.2-13.3 2.1-5.9 0-6.7-.2-4.7-1zm457.2-.3c0-.8 1-2.3 2.1-3.4 1.7-1.6 2-2.8 1.7-6.8a29 29 0 0 0-1.2-6.6c-.6-1.3-.3-1.7 1.2-1.7 2.3 0 3.2 2.4 3.2 9.1 0 3.2-.4 4.8-1.5 5.2-.8.4-1.5 1.2-1.5 2 0 .6-.9 1.8-2 2.4-1.6 1-2 1-2-.2zm-436-.4c-1-.7-1-1 .4-1.5 2.8-1 6.7-.7 6.2.6-.5 1.6-4.7 2.1-6.6 1zm561-2.5c-1.3-.6-2.5-1.7-2.7-2.4-.3-1 .7-1.2 4.7-.6 3.3.4 5.5.2 6.5-.5 1-1 1.6-1 2 0 1.8 2.6-6.6 5.5-10.5 3.5zm92.7.6c-.8-.7-1.3-.8-7.8-1-3-.2-3.5-.6-3.2-2 .3-1-.4-2.6-1.5-3.7-2.7-2.3-2.7-4.5-.1-4.5 1.3 0 2 .6 2 1.8 0 2.4 4 6.2 6.6 6.2 1.2 0 1.5-.3.7-.8-1.4-1-2.9-6.2-1.7-6.2.5 0 1.6 1.5 2.4 3.2.8 1.8 2.4 3.4 3.5 3.6 4.2.6 4.8 1 3.5 2.7-1.4 1.6-3.2 2-4.4.7zm-447.2-1c-.3-.5.4-2.7 1.5-4.8 1-2.1 2-4.5 2-5.4s.7-2.4 1.5-3.5a7 7 0 0 0 1.4-3.3c0-.8 1-2.9 2.3-4.6 1.8-2.6 2.3-5 2.8-13a36 36 0 0 1 1.7-10.9c2-2 2.4 1.4 1.3 11.8a37.5 37.5 0 0 1-4.1 16 79.3 79.3 0 0 0-4.7 11c-2 6.6-4.1 9.1-5.7 6.6zm466.6-1.2c0-.6.7-1 1.5-1 .9 0 1.2-.6.9-1.5-.5-1.2.1-1.5 2.5-1.5 1.8 0 3.1-.6 3.1-1.3 0-.7.6-.4 1.2.6 1 2-.2 3.6-3 3.7-.6 0-1.2.4-1.2 1 0 .5-1.1 1-2.5 1s-2.5-.5-2.5-1zm-13-.2a18 18 0 0 1-.7-5.8c1.6 1.8 2.6 5 1.7 5.5-.5.3-1 .5-1 .3zm-115.1-2.7c-1.9-1.5-2.2-2.3-1.3-3.2 1-.9 1.7-.8 3.5.5 1.3.8 3.6 1.6 5.2 1.6 4.1 0 2.8 2.4-1.5 2.8-2.3.2-4.3-.4-6-1.7zm149-1.4c-1-1.2-1.9-2.5-1.9-3 0-1.3 4.2.2 6.3 2.2 1.8 1.7 1.8 1.8-.2 2.4-1.4.3-2.8-.2-4.1-1.6zm-188 .5c-9.4-.3-12.6-1-11.2-2.4 1.5-1.5 40.5 0 40 1.6-.4 1-11.7 1.4-28.8.8zm74.8-1.8c-2.8-1.5-3.3-4.3-.6-3.5.7.2 4.3.6 7.9.8 3.5.3 6.9.9 7.4 1.4.6.5.4.9-.5 1-2.4 0-5.2.5-8.4 1.2-2 .4-4 0-5.8-1zm-336.8-.4c-1-.7-.6-2.5 2.3-9.2 3.6-8.4 6.6-11.4 6.6-6.5 0 1.4-.4 2.8-1 3.1-.4.4-1.9 3.3-3 6.6-2.5 6.7-3 7.2-4.9 6zm113.5-2.3a9 9 0 0 1-1.5-3.7c0-.8-.8-2.7-1.7-4s-2.2-4.5-2.9-7c-1.2-4.8-1.3-4.8-5.8 1.5-1.5 2-1.5 2-2.2 0-.6-1.5.4-3 4.9-7 5.3-4.8 6.9-7.7 4.8-9-.5-.3-1.1.8-1.5 2.5-.3 1.7-1 2.8-1.6 2.4-1.8-1-1-4.8 1.7-8.8 1.8-2.5 2.7-5.3 2.8-8l.4-4.7c.2-.3.4-2.1.5-4.1.2-2 1-5.3 2-7.3 1-2.2 1.4-4.2.9-5-.5-.6-.8-5-.7-9.6.2-10.1-1.1-13.3-5.3-12.6-1.5.3-3.2.1-3.8-.3-1-.8-13.2-.8-18.4 0-1.3.2-2.6 0-2.8-.6-.4-1.2 6.4-3.5 10.4-3.5 2.1 0 2.4-.3 1.3-1a43.5 43.5 0 0 0-18.3 1.5c-2.8.8-5 1-5.3.4-1.5-2.5 2.6-3.7 15.6-4.6 6.1-.4 8.6 0 13 1.7 3 1.1 7.6 2.1 10.3 2.2 5.3.1 5.2 0 6.2 7 .5 4.2 1 4.8 3 4.8 1.3 0 2.6.4 3 1 .3.5 5.2.8 11.3.7 8.3-.2 11.5.2 14.2 1.5a34 34 0 0 1 12.4 13.2c1.5 2.7 3.8 4.7 7.4 6.6 2.9 1.5 6.2 3.6 7.5 4.7 5.3 5 12.7 13.2 12.7 14.3a14 14 0 0 0 2.6 4.5c1.4 1.8 2.8 5 3.1 7.2s1 4.3 1.3 4.8a16 16 0 0 1 1.5 3.4c.7 2.2.5 2.3-2.3 1.7-2.6-.6-3-.4-3.4 1.6-.1 1.3-1.1 2.5-2.2 2.7-1.3.3-1.6 0-1-1 .5-.7.7-2.1.6-3.1-.2-1 .2-1.7.9-1.7 1.9 0 .3-10-2-12.5-1-1.1-2.4-3.7-3-5.8-1.2-4.8-11.2-14.9-17.5-17.8a17.1 17.1 0 0 1-6.3-4.8c-5.4-8.5-12.8-15.2-18.3-16.5-1.4-.3-6.2 0-10.7.6-6.9 1-8.6 1.6-10 3.6-.9 1.3-1.2 2.2-.7 1.9 1-.7 1.1 11.9 0 14.7l-2 4.5a24 24 0 0 0-1.5 8c-.1 3.9-.7 6-2.1 7.6-1.1 1.1-2 2.7-2 3.5s-.7 2.5-1.4 3.8c-1.1 2-1.1 3.3.1 7.5.8 2.9 1.9 5.9 2.3 6.8.5.9.4 2-.1 2.6-1.2 1.1.5 6.3 2 6.3.6 0 1 .6 1 1.5 0 2.2-1.6 1.8-3.4-.8zm.2-37c-.4-.8-.6-.5-.6.6s.2 1.7.5 1.4c.3-.4.4-1.2 0-2zm4.3-17.9c0-.4-.7-.6-1.5-.3-.8.4-1.5 1.3-1.5 2.1 0 1.3.3 1.3 1.5.3.8-.7 1.5-1.6 1.5-2zm310.3 56.5c-.6-.3-1.2-1.3-1.2-2.4 0-1.5.7-1.8 3.5-1.6 2 .1 4.2 1 5.2 2 1.5 1.5 1.5 1.5-1.3.8-2-.5-3.2-.4-3.9.4-.6.7-1.6 1-2.3.8zm48.8-.4c0-.6.5-.8 1-.4.6.3 1 .8 1 1s-.4.5-1 .5-1-.5-1-1zm-118.6-1c-.3-.6-1.3-.8-2-.5s-2.3-.2-3.3-1a15 15 0 0 0-7-1.9c-3.8-.2-6-.9-7.4-2.4-2-1.9-2-2.1-.4-2.1 1 0 2.9.7 4.2 1.6 1.4.9 2.8 1.4 3 1.1.8-.7-5.4-6.7-7-6.7-1.8 0-4.5-3.4-4.5-5.7 0-2.2-3.6-7.4-5.1-7.4-.5 0-1 1.4-1 3 0 2 1.3 4.2 4 7.2 2.3 2.3 4 4.9 4 5.6 0 2.2-2.6 1.4-3.8-1.2-1.2-2.8-4.1-3.4-4.1-1 0 1-.6 1.5-1.5 1.1-.7-.3-1.6.2-2 1-.3.9-1.2 1.3-2 1-.9-.3-1.5-.2-1.5.3 0 1.3 5 1.8 7.7.7 1.6-.7 2.7-.6 3.4.1 1.6 1.6.5 2.7-4 4.2-3.3 1.1-4.4 1.1-5.6 0-1.2-1-1.8-1-3 0-.8.7-2.1 1-2.9.8-.8-.3-1.8-.1-2.4.4-.7.7-2 .5-4.2-.6-2.7-1.4-6.8-1.7-26.4-1.7-12.7 0-31.5.3-41.7.7-31.5 1.1-37.4 1-36.5-.5.4-.6 2-1 3.5-1 1.6 0 3.2-.5 3.6-1.1.4-.8 9.6-1 29.8-.9 16 .2 35.9.2 44.2 0h16.3c3 1 2-2-1.3-3.6-3.4-1.6-5.2-4.3-2-3.1 2 .8 3-1.5 1.1-2.9-.9-.6-1.6-2-1.6-3 0-3.2-3-6.6-5-6-2.1.7-8-2-8-3.5 0-.5-.7-1-1.5-1-.9 0-3.3-1.6-5.5-3.6-4.2-3.7-5-6.7-3-10.4.8-1.6.4-2-2.6-3.1-3.5-1.3-8.1-7-7-8.7.2-.4 0-2.8-.6-5.2-1-4.6-.5-9 1.1-9 .5 0 1.3 1.6 1.6 3.6.4 2 1.5 4 2.6 4.7 2.2 1.4 2.4 2.7.3 2.7-1.6 0-2 1.6-.5 2.5.5.3.6 1.4.3 2.5-.3 1.4.2 2.3 1.9 3a27 27 0 0 1 4.1 2.3c1.5 1 2.2.8 4.8-2 3.5-3.8 5.5-4.2 6.5-1.3.3 1.1 1.3 2 2 2 2.4 0 1.2 3.5-1.2 3.8-1.5.2-2.4-.3-2.8-1.7-.8-2.5-2.3-1.8-3.6 1.5-.5 1.3-1.6 2.4-2.4 2.4-1.1 0-1.6 1-1.6 3.5 0 2 .5 3.5 1.1 3.5.6 0 .8-.8.4-2-.3-1.1-.1-2 .5-2s1 1.6 1 3.5c0 5.5 1.7 5 2.5-.7.7-5.7 2.5-5 2.5 1 0 2.4.4 3 1.6 2.6.8-.3 1.5-1.8 1.5-3.4 0-4.2 1.8-4.6 3.5-.8 5 10.7 7 13.2 10 12.4 2.6-.6 5 1.7 4 4-.7 2 1.2 4.7 2.6 3.9.5-.3.6-1.6.3-3-.7-2.6 1.3-4.4 2.2-2 .4 1.1 1 1.3 1.8.6 1.3-1.1 2.7-.3 6 3.8 1.7 2 1.8 2.4.5 3.2-1.1.7-1.2 1.1-.2 2.1s1.3 1 1.3-.1c0-1 .4-1 1.7.2 1.2 1 2.3 1.3 3.2.8 1.2-.7 1.1-1.5-.4-4.6a10.7 10.7 0 0 1-1-6.8c.3-1.7.7-5 .8-7 0-2.2.6-4.2 1.2-4.3.6-.2 2.5 1.1 4.3 3 2.8 2.9 3.4 4.3 3.9 9.6.4 4.5 1 6.4 2.4 7 2.4 1.4 3.1 0 2.3-4.4-.9-4.8 1.1-4.7 3.3.2 1 2 2.3 4.5 3.1 5.5 1.3 1.5 1.3 1.8 0 1.8-.8 0-2-.5-2.5-1.1-.8-.8-1.3-.8-1.8 0-.7 1.1 5.8 8 7.5 8 1.7 0 2-2 .5-2.6-.8-.3-1.5-1.2-1.5-2 0-1 .8-.8 3.3.7 3.6 2.1 7.2 1.7 6.2-.8l-.5-1.8c0-.3-1-.4-2-.4s-2-.5-2-1c0-.6-.6-1-1.3-1-1.2 0-4.7-5.3-4.7-7.1 0-1.8 1.8-1 4.6 2 3.1 3.3 4.4 3.8 4.4 1.7a7 7 0 0 1 1.4-3.2c1-1.5 1.7-1.7 2.6-.8.8.8.8 1.3 0 1.8-1.9 1.2-1.1 6.8 1.5 10.1 2 2.8 2.2 3.4 1 4.5-1 .7-2.8 1-5.1.5-3.1-.6-3.5-.4-3.2 1.2.2 1 1.3 1.9 3 2 2.8.4 3.6 1.6 1.8 2.7-.5.3-1.2.1-1.6-.5zm-42.4-5.9c0-.5-1.3-1-2.8-1.2l-2.7-.4 3.2-1.7c3.1-1.7 3.8-4.3.8-3.1-.7.3-1.6 0-2-.6-.4-.6-1-1-1.5-1-1 0-2.2 7-1.4 8.1.7 1.2 6.4 1 6.4 0zm-7-4.4c0-.7-1.2-1.8-2.5-2.5-2.5-1.1-3.2-.6-1.8 1.5.6.9 2 1.6 4 2.3.1 0 .3-.5.3-1.3zm-5-10.7c0-.5-.5-1-1-1s-1 .5-1 1 .4 1 1 1 1-.4 1-1zm27.6-7.8c-2-2-2.2 0-.4 2.9 1 1.7 1.3 1.8 1.6.4.2-1-.4-2.4-1.2-3.3zm-39.4-2.4c-2.4-2.3-3.7-2-2.7.6.4.9 1.6 1.6 2.8 1.6h2.1zm119.8 30.3c0-1.3-.7-2-1.8-2-1 0-2.3-.5-3-1.2-.8-.8-1.5-.7-2.6.4-1.2 1.2-1.3 1.7-.4 2.2.7.3.4.4-.7.3-1.4-.2-2.1-1.1-2.3-3-.3-2.6-.6-2.8-3.5-2.2-2.4.4-2.8.3-1.7-.5 1.2-.8 1.2-1-.5-1-1.2 0-4.5-1.3-7.6-2.9a952.3 952.3 0 0 0-11.7-6c-1.2-.6-2.7-1.2-3.3-1.2a41 41 0 0 1-10.8-8.2 18 18 0 0 1-3.7-5.3 20 20 0 0 0-4.3-5.7c-3.3-3-3.8-4.2-2.1-5.3 1.1-.7 12.8 7.5 13 9 .1 2 5 4.7 8 4.4 2-.2 3.7.4 5.7 2.3 1.5 1.4 3.7 2.9 4.8 3.3 2 .7 2 .7 0 2.1-1 .8-1.6 1.7-1.3 2 1 1 22.5 5.8 28.3 6.2 4 .3 6.4 1 7.5 2.2 1 1.3 2.9 1.8 6 1.8l9 .1c4.1.3 4.3.4 2 1.3-3.8 1.5-18.7.1-19.4-1.8-.5-1.2-1.5-1.4-3.6-1-1.6.3-3.2.1-3.6-.5-.3-.5-1.4-.8-2.4-.5-2.5.6-13.4-2-13.8-3.3-.2-.6-1.4-.8-2.7-.5a4 4 0 0 1-3.9-1c-1.7-1.7-4.1-1.2-3 .6 1 1.8 9.4 4.9 13 4.9 2 0 4.2.7 5.1 1.5a4 4 0 0 0 4 1c3.2-.8 10.4 1.2 12.6 3.6 1.7 1.8 1.7 1.9-.8 1.9-1.5 0-2.5.5-2.5 1.4 0 .8-.5 1.7-1 2-.6.4-1-.2-1-1.4zm-31-17c1.2-.8 1.2-1-.4-1.6-1-.4-2.2-1.7-2.6-3-.6-1.5-2-2.5-4.2-3a35 35 0 0 1-8.3-3.7l-5-3 3.5 3.7c1.9 2 4.8 4 6.5 4.4 2 .5 3 1.5 3.3 2.8a4.8 4.8 0 0 0 2.5 3.2c2.8 1.3 2.9 1.3 4.7.2zm-536 16.8c.6-1.9 2.8-2.2 2.8-.4 0 .9-.7 1.6-1.6 1.6-.9 0-1.4-.6-1.2-1.2zm576.5-.8c-1.8-2-1.8-2 .7-2 2.1 0 2.5.3 2 2-.2 1-.5 2-.7 2s-1-1-2-2zm-524.2-2a32 32 0 0 1-2-9.3c-.8-8.5-1.4-11-2.5-10.3-.5.4-.7 2-.3 3.7.5 2.4.3 3-.8 2.7-.8-.3-1.7-2-2-4-.3-1.8-1.1-4.6-1.8-6.2a20 20 0 0 1-1.1-6c0-1.8-.4-3.7-1-4.2-1.3-1.4-1.7-7.7-.5-8.1.6-.2 2.3 3.8 3.9 8.9l3.2 10.5c.2.7.9 1.2 1.5 1.2.8 0 1-2.2.5-8-.4-4.8-.3-8 .2-8 1.4 0 2.1 4.2 2.8 16.5.4 7.7 1.2 12 2.4 14.1 1.7 3 1.7 9.5 0 9.5-.6 0-1.6-1.4-2.5-3zm499.1 1c.3-.5-.2-1-1.2-1.3-1.3-.4-1.2-.5.5-.6 1.4 0 2.3.4 2.3 1.4 0 .8-.5 1.5-1 1.5-.7 0-.9-.5-.6-1zm-280.1-2.5a3 3 0 0 1 .5-2.7c4.2-5 5-6.4 5-8 0-1.2.8-1.9 2-1.9s2 .4 2 .9-.8 1.9-2 3.2c-1 1.2-2 2.9-2 3.6 0 .8-.6 1.7-1.4 2s-1.5 1.4-1.5 2.5c0 2.2-1.8 2.5-2.6.4zm-133.9-2.4c-.7-1.2 4.2-11.2 5.5-11.2 1.5 0 1.1 3.7-.6 5.4-.8.8-1.5 2.2-1.5 3 0 1.9-2.6 4-3.4 2.8zm475-1.7c-.4-.9-.1-2.1.5-2.8 1-.9 1.6-.7 2.7.8.8 1 1.4 2.3 1.4 2.7 0 1.5-4 .9-4.7-.7zm-263-.5c.4-.5 1-.7 1.6-.4 1.4.9 1.1 1.5-.6 1.5-.9 0-1.3-.5-1-1zm271.6 0c0-.5 1.3-1 2.8-1 2.1 0 2.4.3 1.2 1-2 1.3-4 1.3-4 0zm-101-.8c0-.5.6-1.4 1.3-2 1-.9 1.7-.8 2.6.2.9 1.1.8 1.6-.5 2-2.2.9-3.4.8-3.4-.2zm-99.3-.7a20 20 0 0 0-6.7-.6c-3.5.1-6-.3-6-.8 0-.7 7.1-1 20-.8 14.2.2 20 .6 20 1.4 0 1.3-26 2-27.3.8zm29.2-1c0-.8.5-1.4 1-1.4s1 .6 1 1.5-.4 1.5-1 1.5-1-.7-1-1.5zm-456.6-1.7c-1.9-6.2-1.4-11.8 1.1-11.8 1 0 1.4 1.7 1.4 6.5 0 3.8-.4 6.6-1 6.6s-1.2-.6-1.5-1.3zm582.4-1.2c-6-2-12.9-7.6-14.6-11.6-1.2-3-2.5-4.1-5.5-5-5.4-1.9-11.4-11-7.2-11 .8 0 2 1.3 2.8 2.8a8.7 8.7 0 0 0 3.5 3.7c1.3.6 2.3 1.3 2.3 1.8s.7.7 1.5.7 2.7 2 4.1 4.3c3.2 5 8.5 10.7 10 10.7.7 0 2.3.6 3.6 1.3 1.4.7 4.5 1.1 7 1l4.7-.4-4-3.8c-2.7-2.6-3.7-4.3-3.3-5.4.9-2.3 4.4-2.1 4.4.2 0 2.5 3.7 6.1 6.3 6.2 1.2 0 2.9.4 3.7 1 3.6 2.2-13.7 5.4-19.3 3.5zm32-2c-1.6-.9-3.5-1.6-4.2-1.6-2 0-6.5-4.7-6.5-7 0-1.6.6-2 3.5-2 3.2 0 3.5.3 3.5 2.8 0 3.7 1.7 5.2 5.6 5.2 3.6 0 5.4 1.8 3.3 3.1-1.8 1.2-2 1.2-5.3-.6zm-358.8-3c0-.9.4-1.6 1-1.6s1 .7 1 1.5c0 .9-.5 1.5-1 1.5s-1-.6-1-1.5zm323.4-2.4c-6.3-5.8-8.4-15.2-3.3-15.2 1.8 0 2 .4 1.4 3.4-.7 4 .7 7.1 5 10.8 2.1 1.9 2.8 3 2 3.7-.7.8-2.2 0-5-2.7zm49.2.6c-1-.6-3.3-1.4-4.9-1.7-2-.4-3.2-1.4-3.9-3.5-1.1-3.3.2-4.5 4.7-4.6 2 0 2.7.4 2.3 1.5-.4 1 .7 2.2 3 3.6 4.8 3 3.7 7.6-1.2 4.7zm-628.4-11c1.6-6.6 1.8-9.8.8-9.8-.6 0-1.1.7-1.1 1.4 0 2.8-2.5 2.3-3.8-.7-1.5-3.5-.9-4.6 1.8-3 1.1.8 2.1 1 2.5.3 1.5-2.4 19.9-9 25.9-9.3 4.6-.2 5.1 0 5.4 2 .2 1.8-.2 2.3-1.7 2.3-1 0-2.3-.4-2.6-1-.4-.6-1-.8-1.5-.5-.5.3-5.2 2-10.6 4-11 3.8-12.3 4.7-10.5 6.9.8 1 .8 1.7.1 2.1-.6.4-1 2-1 3.5 0 1.6-.7 3-1.6 3.4-2.5 1-2.7.8-2.1-1.6zm144.6-1.6a33 33 0 0 1 6.3-6c3-2.2 6.2-5.5 7.3-7.1 2-3 6.1-4.4 5.3-1.9a56.6 56.6 0 0 1-12.2 13.4c-1.1.4-2.6 1.3-3.3 2-2.2 2.2-4.6 1.9-3.4-.4zm-154-4.2-.5-5.4a14 14 0 0 0-1.9-6.5c-2-2.2-2-4 0-4 3.6 0 6.7 10.9 4 14.4-.8 1.1-1.5 1.8-1.6 1.5zm572-2.7c-2-1.4-3.7-2.9-3.7-3.3 0-.4-1-.5-2.3-.3-3.3.5-4.8-.9-5.9-5.7-.7-3.3-.6-4.5.3-5.1 1.6-1 4 .8 3.3 2.5-.3.6.2 2 1 3.1 1.5 2 1.5 2 1.5-.6 0-3.3 2.6-5.7 4.3-4 .8.8.8 1.7-.3 3.7-1.3 2.5-1.2 2.8 2.6 6 2.2 1.9 4.3 3.4 4.7 3.4.4 0 .8.7.8 1.5 0 2.2-2 1.8-6.3-1.2zM431 116.4c-.7-.6-1.2-2.8-1.2-4.9 0-2-.7-4.2-1.5-4.9-2-1.6-2-5-.1-5s6.6 5.7 6.6 8c0 1.1.3 2 .7 2s1.4 1 2 2c1.8 2.9.5 4.7-1.4 2-1.8-2.5-3.3-2.6-2.6 0 .6 2.3-.7 2.7-2.5.8zm531.4-1.9c-1.1-.5-2.9-2.3-4-4-1.6-2.5-2.5-3-5-2.6-1.6.3-5.7 0-9-.4-3.7-.5-6-.5-6.3.1-.2.6-2 1-4 1-5 0-9.2-4-9.2-9.2 0-2.7.5-3.8 1.5-3.8.9 0 1.5.9 1.5 2 0 3.2 2.8 6.7 6.3 8 4 1.3 4.6.6 2-2.3-1.3-1.3-2.3-2.8-2.3-3.5 0-2.3 2.3-2.4 4.4 0 3 3.3 5.2 4.1 11.9 4.3 5.4 0 5.7 0 5.7-2.2 0-1.6.6-2.3 2-2.3 1.1 0 2 .7 2 1.5s1.6 4 3.5 7c4.8 7.3 4.5 9-1 6.4zm27-.8c-.5-.5-2.3-1-3.8-1.3-2.4-.2-3.2-1-4.3-4.3-1.7-4.8-1.2-6.5 2.1-6.5 2 0 2.6.5 2.6 2.1 0 2 4.6 7.2 8.5 9.6 1.8 1.1 1.7 1.2-1 1.3-1.8 0-3.6-.4-4-1zM491 112.6c-3.4-1.4-2.1-3.6 2-3.2 3.8.4 5.4 1.5 4.4 3.1-.8 1.3-3.2 1.3-6.4 0zm15.3-2.5a24 24 0 0 1-2-5.5c-.3-2-1.1-4.6-1.7-6-.5-1.4-1-3.6-.8-5 .1-2-.7-3-3.6-4.5-2-1.1-3.9-2.6-4.1-3.4-.7-2.2 4.8-.4 8 2.5 1.8 1.9 3.8 2.6 7.3 2.8 4.4.2 5.1 0 7.8-3 3.3-4 6.7-4.3 15.7-2 3.5 1 6 1 7.2.5.9-.5 3-1 4.6-1 1.6 0 3.5-.6 4.2-1.4.7-.8 2-1.5 3-1.5 1.6 0 4.8-2.7 5-4.3v-4.1c0-3.6 1-4.4 9.3-6.5 3-.8 5.2-.6 10.2 1 5.7 1.7 6.6 1.7 9.8.4a14 14 0 0 1 6.4-1 275 275 0 0 0 30.3 1.7c10.2.2 13.5.6 13.3 1.5-.2.7.4 1.3 1.3 1.3.8 0 3 .7 4.6 1.6 4.5 2.3 2 3.2-5.4 2-4.3-.7-8.6-.6-14 .2-6.5 1-8.3.9-11.4-.4a36.9 36.9 0 0 0-21.4-1c-5 1.7-10 2-10 .7 0-.5 1-1.2 2.3-1.6 1.9-.6 1.4-.9-2.8-2-9.3-2.7-17.1-1.8-18.1 2.1-.3 1.3-1 2.4-1.5 2.4s-.9 1-.9 2.4-.7 4-1.6 5.8c-1.4 3-2.4 3.6-10.2 5.8l-8.7 2.5-2.2-2.2c-1.8-1.9-3.3-2.3-8-2.3-5.1 0-6.2.4-9.1 3.1-2.9 2.7-3.9 3-7 2.5-5.3-.8-6.4.2-5.1 4.7.5 2 .9 5.9.7 8.5-.3 4-.5 4.5-1.4 2.7zm119.5-37c.2-.2-1.7-.7-4.3-1-5-.8-9 0-6.7 1.4 1.1.7 10 .3 11-.5zm-33.4-1.5c.4-.6-.3-1-1.4-1s-2.2.4-2.6 1c-.3.5.3 1 1.4 1 1.1 0 2.3-.5 2.6-1zm38.3.4c-.4-.4-1.2-.4-2-.1-.8.3-.5.5.7.6 1 0 1.6-.2 1.3-.5zm254.8 35.6c.4-.6 1-.8 1.6-.4 1.4.8 1.1 1.4-.6 1.4-.9 0-1.3-.4-1-1zm-396.4-1c-4.3-1-5-1.7-3-3.6 1.2-1.3 2-1.3 4.4-.2 3.2 1.4 4.5 2.8 3.8 4-.6 1-.6 1-5.2-.2zm57.2-.1c-.4-.7 0-1.7.8-2.3a7 7 0 0 0 2-2.6c.5-1.2.7-1.1 1.4.4.5 1.3.3 2.1-.4 2.4-.7.2-1.2 1-1.2 1.8 0 1.7-1.6 1.9-2.6.3zm-3-2.8c.7-4 3.4-7.4 5.2-6.7 1.5.6 3.5-1.6 3.8-4 .2-1 .8-2 1.4-2.2 1.5-.5 1.5-.6-.2 4.3-1 2.8-2 4.1-3.5 4.3a4.3 4.3 0 0 0-3 2.6c-.5 1.2-1.7 2.8-2.7 3.6-1.6 1.4-1.7 1.3-1-2zm375.4-1.3c-7.5-3.8-10.6-9.7-7-13.2 1.4-1.5 1.3-1.9-1-4.7-3.3-3.9-4-10.4-1.4-12 2-1.3 2.8 0 2.1 4-.5 3.3-.2 4 3 6.9 4.2 3.6 4.4 4.7 1.6 6.4-1 .7-2 2.1-2 3.1 0 1.9 4 6.3 7.5 8.3 1 .5 1.7 1.5 1.4 2.1-.2.8-1.7.5-4.2-.9zm-53.2-10.6a18.3 18.3 0 0 1-9-9c-1-2.1-2-3.2-3.4-3.2-2.5 0-4.3-3.2-4.3-7.7 0-1.8-.4-3.6-.9-3.9-1.8-1.1-.9-4.5 1.6-5.4 1.4-.6 2.5-1.4 2.5-2s.7-1 1.5-1c1.8 0 1.9.4.4 3.3a21 21 0 0 0-1.5 6.4c-.4 3.7 0 4.8 2.6 7.5a84 84 0 0 1 6 7.6c1.7 2.3 3.5 4 4 3.7 1-.6 10 3.3 10 4.3 0 1.3-6.5 1-9.5-.6zm19.3-1.1a17 17 0 0 1-7-1.9 4.4 4.4 0 0 0-2.5-1.2c-2.5 0-10.2-6-12-9.3a29 29 0 0 1-2-9c-.4-4.8-.2-5.7 1.1-5.7 1.2 0 1.6 1 1.7 3.7 0 3.3.2 3.5 1 1.5.4-1.2 1.6-2.2 2.4-2.2 1.2 0 1.4.8 1 4-.5 2.8-.3 4.3.8 5.4a57 57 0 0 1 3.4 3.9c2.5 3 7.8 6.7 9.9 6.7 2.7 0 0-2.7-4.2-4-1.8-.7-3.4-1.6-3.4-2.1 0-1.2 2.4-1.2 3.6 0A18 18 0 0 0 885 82l8.1 1.1c1.4.3 3.8.1 5.2-.4 1.8-.7 2.9-.7 3.3 0 .4.6 1 .6 2-.2 1.1-.9 1.6-.8 2 .6 1 2.5-3.3 6-8.3 6.8l-5.4 1c-.8.2-4 .1-7-.2zm3-4.7c-.4-.3-1.2-.4-2 0-.8.2-.5.5.6.5s1.7-.2 1.4-.5zM472 89.6c.5-1.7 6.3-3.8 10.5-4 6.9-.1 1.7 3.6-6.5 4.7-3.5.5-4.4.3-4-.7zm421.4-20.3c-.2-.7-.6-2.8-.7-4.7-.2-3 0-3.5 1.7-3.5 2.2 0 4.3 5.2 3.2 8-.7 1.8-3.5 2-4.2.2zm-55.7-7.6C832.6 60 827 55 827 52.3c0-2.1-2.1-7-3.5-8-.5-.4-2.2-.5-3.6-.2-1.6.3-3.2 0-4.1-1a4.9 4.9 0 0 0-3.4-1.2c-1 0-2.3-.8-2.9-2.1a5.1 5.1 0 0 0-2.6-2.8c-1.6-.5-3.9-4.5-3.9-6.9a29 29 0 0 0-2.9-6.7 16.9 16.9 0 0 1-2.5-11.9c.6-8.9 1.2-11 3-11 1.2 0 1.4.7.9 3.1-.7 2.9-.5 3.1 1.3 2.7 2.5-.7 4 2.2 1.9 3.7-2 1.4-2.7 14.6-1 15.3.8.2 1.3-.6 1.3-2.3 0-1.7.5-2.5 1.3-2.2.7.2 1.1 1.8 1 3.8-.3 3-.2 3.2.7 1 1.3-2.9 3.6-2.2 3.2 1-.5 4.2.8 9 2.5 9 1.1 0 1.4-.8 1-2.6-.3-1.6 0-2.5 1-2.5.9 0 1.2 1.3 1 5-.4 3.8-.1 4.8 1 4.4.7-.3 1.3 0 1.3.5 0 1.2 3.2 1.6 4.3.5.3-.3 0-1.4-.6-2.4-.8-1.4-.8-2.4 0-4.2.7-1.2 1.4-3.4 1.5-4.8.3-2.8 1.7-3 3.2-.7.7 1.1.5 2.6-.8 5-1 2-1.6 4.2-1.2 5.2.5 1.5.7 1.5 2.2.1 3-3 4.6-1.5 2 2-2 2.5-2 4.4 0 4.4.7 0 1.4.4 1.5.8l.3 3.6c.2 2.8 2.3 5 3.9 4 .5-.3 1.1.4 1.4 1.6.3 1.2 1.9 2.8 3.4 3.6s3 2.2 3 3-.2 1.4-.3 1.4l-5-1.8zM813 38c0-.8-.4-1.5-1-1.5s-1 .7-1 1.5.5 1.5 1 1.5 1-.6 1-1.5zm-4-3.5c0-.6-.7-1.8-1.5-2.6-1.3-1.3-1.5-1.3-1.5.4 0 1 .3 2.2.7 2.6 1 1 2.3.8 2.3-.4zm37.3 27.3c-1.8-.6-1.6-2.3.5-3.8 2.4-1.9 3.2-1.8 3.2.4 0 2.3-2 4-3.7 3.4zm6.7-7c-3.1-.7-4.5-5.7-4-14.9 0-2.6 4.7-7.4 7.2-7.4s2.3 1.4-.7 4.6c-1.6 1.8-2.2 3.1-1.6 3.8.5.6 1.6 3.8 2.4 7 1.3 5.2 1.3 5.8-.2 6.5-.9.5-2.3.6-3.1.4zm.4-5.8c-.3-.8-.8-1.5-1-1.5-.2 0-.4.7-.4 1.5 0 .9.5 1.6 1 1.6s.7-.7.4-1.6zm-62.9-4.5c-.3-.5-1.9-1-3.4-1-1.6 0-3.5-.7-4.2-1.6-.7-.8-2.4-2-3.6-2.4-1.6-.6-2.3-1.7-2.3-3.4 0-3 .7-3.2 2.7-.8 1 1.3 1.6 1.4 2 .5.7-2 3.3-1.5 3.3.5 0 2.8 2.5 5.9 3.5 4.3.4-.7.2-1.7-.4-2.3-1.2-1.2-1.5-4.8-.5-4.8s3.3 3.1 4.4 5.9c.7 1.4 1.6 2.1 2.8 1.9 2.2-.5 7.4 2 6.7 3.3-.8 1.3-10.2 1.2-11 0zm9.8-4.7c-2.4-2.7-2.9-4.3-1.4-4.3 1.6 0 4.1 3.1 4.1 5.1 0 2.4 0 2.4-2.7-.8zm-28.7-4.1c-2.4-2.7-1.9-10.5.8-11 1.6-.3 1.8.1 1.3 3-.2 1.8 0 4.4.5 5.7 1.2 3.3-.4 4.7-2.6 2.3zm84.8-6c-2.6-1.6-6.2-10.4-7-16.6-.5-5.6-.3-6.9 1.5-9.4 2.2-3.1 5.7-4.7 6.7-3 .4.5-.5 2.2-1.9 3.6a14.7 14.7 0 0 0-3.2 5.4c-.6 2.4-.4 2.6 1.4 2.1 1.7-.4 2.1 0 2.1 2 0 2.5 3 9.7 5.2 13 .7.9 1 1.8.8 2-1.1 1-4.6 1.6-5.6 1zm-2-11c-.4-1.8-.9-3-1.1-2.8-.3.3-.2 1.9.2 3.6 1 4.1 1.7 3.3.9-.9z"/>
</svg>
