<?xml version="1.0" encoding="utf-8"?>
<svg xmlns="http://www.w3.org/2000/svg" viewBox="0 0 1728 195">
	<title>Five bars of musical notation on the treble clef, in the key of D, and labeled with a tempo of Vivace.</title>
	<path d="M0 52v2h1728v-2zm0 25v2h1728v-2zm0 25v2h1728v-2zm0 25v2h1728v-2zm0 25v2h1728v-2z"/>
	<path d="M382 52v102h4V52zm468 0v102h4V52zm727 0v102h4V52zm-468 2v102h4V54zM263 27v4h49v-4zm261 0v4h49v-4z"/>
	<path d="M301 25v90h2V25zm261 0v106h2V25zM449 50v90h2V50zm341 0v64h2V50zM676 75v48h2V75zm987 0v87h2V75z"/>
	<path d="M303 21c-2-4-6-5-10-5l-11 2c-7 4-11 10-11 15l1 4c2 3 6 5 11 5 3 0 7-1 10-3 7-3 11-9 11-14l-1-4m147 24c-2-3-6-5-10-5l-11 3c-6 4-10 10-10 15l1 4c2 3 5 5 10 5 3 0 7-1 10-3 7-4 11-9 11-14l-1-5m114-24c-2-4-6-5-10-5l-11 2c-7 4-11 10-11 15l1 4c2 3 6 5 11 5 3 0 7-1 10-3 7-3 11-9 11-14l-1-4m113 49c-1-3-5-5-10-5-3 0-7 1-10 3-7 4-11 9-11 14l1 5c2 3 6 4 10 4s7 0 11-2c6-4 10-10 10-15l-1-4m114-25c-2-3-6-5-10-5s-7 1-11 3c-6 4-10 10-10 15l1 4c2 3 5 5 10 5 3 0 7-1 10-3 7-4 11-9 11-14l-1-5m874 25c-2-3-6-5-11-5-3 0-7 1-10 3-7 4-11 9-11 14l1 5c2 3 6 4 10 4s7 0 11-2c7-4 10-10 10-15l-1-4M84 122l-5-10a22 22 0 0 0-20-9l-3-18 11-16c4-6 5-11 5-11 2-5 2-13 1-21-1-7-3-14-6-17l-3-3-6 4c-3 3-6 6-8 12-3 7-4 17-3 24l1 12 1 5h-1l-3 4-3 2c-8 9-21 21-21 40a32 32 0 0 0 9 23 37 37 0 0 0 33 9l3 22c0 7-1 11-5 13-3 2-5 3-8 3l-7-1c2-1 6-2 8-5s3-7 1-11c-1-3-4-5-9-6a11 11 0 0 0-11 6c-3 5-2 11 1 14 3 4 7 6 13 7h2c5 0 9-1 13-3 3-3 5-7 6-12s0-11-1-19l-2-9a24 24 0 0 0 16-29m-33 26c-5-1-9-4-13-7l-5-7-2-10 4-14c3-6 8-11 14-17l4-3 2 13c-4 2-8 5-11 10-4 7-4 12-3 16s3 8 7 10c1 1 5 3 7 2 1-2 0-2-2-3l-2-2c-3-2-4-6-3-11l3-6 6-3 6 30 1 2H49m11-33c10 0 14 7 15 12 1 2 1 7-1 11-1 3-3 7-8 9l-1-1-5-31m-7-70c1-6 4-9 6-11l4-2h1l1 1c3 5 2 11 0 16-1 5-4 11-13 20v-3c-1-8-1-15 1-21m103 35 1-1v-6l-1-1h-4V57h-3v16l-8 2V61h-3v14l-4 1-1 1v6l1 2h1l3-1v16l-4 1-1 1v6l1 2h1l3-1v15h3v-16l8-2v14h3v-14l4-1 1-1v-6l-1-1h-4V81l4-1m-15 20V83l8-2v17l-8 2m-10-57 1-1v-6l-1-2-4 1V20h-2v16l-9 1V23h-3v15l-4 1-1 1v6l2 1h3v16l-4 1-1 1v6l2 1h3v14h3V71l9-2v14h2V69l4-1 1-1v-6l-1-2-4 1V44l4-1m-15 19V46l9-2v17l-9 1m98 23c-2 2-4 5-4 8v1c1 4 4 7 8 8h1c5 0 9-4 9-9v-2c-1-4-5-14-22-14-22 0-24 18-24 25 0 12 1 26 26 26 10 0 18-5 18-16l-1-1h-1l-1 1c0 8-6 13-15 13-8 0-13-4-13-13V93c0-6 3-12 11-12 5 0 7 2 8 3v1m222-54c1 2 4 2 5 0 2-1 2-4 0-5-1-2-4-2-5 0-2 1-2 4 0 5M550 7h5c2-2 2-4 0-6h-5c-2 2-2 4 0 6m113 37h6v-6h-6v6m114-13c1 2 4 2 5 0 2-1 2-4 0-5-1-2-4-2-5 0-2 1-2 4 0 5"/>
	<path d="m448 134 344-27v13l-344 26v-12"/>
	<path d="m303 116 1-4 6-12 12-16s7-9 8-22v-3c0-6-1-14-5-23 0-1 0-2-1-1-2 0-1 1-1 2 2 7 3 14 3 22s-3 12-5 15c-7 11-15 16-19 18l-1 1v22l1 2 1-1"/>
	<path d="M997 27v4h50v-4z"/>
	<path d="M1036 13v101h2V13z"/>
	<path d="M1037 8c-1-3-5-5-10-5-3 0-7 1-10 3-7 4-11 9-11 14l1 4c2 4 6 5 10 5s7 0 11-2c6-4 10-10 10-15l-1-4m1 107 1-4 6-12 11-16s8-10 8-23v-2c0-6 0-14-4-23l-2-2v3l2 21c0 9-3 13-4 16-7 11-15 16-20 18v23l1 1h1"/>
	<path d="M1157 27v4h50v-4z"/>
	<path d="M1196 25v90h2V25z"/>
	<path d="M1197 21c-1-4-5-5-10-5l-10 2c-7 4-11 10-11 15l1 4c2 3 6 5 10 5s7-1 11-3c6-3 10-9 10-14l-1-4m1 95 1-4 6-12 11-16s8-9 8-22v-3c0-6-1-14-4-23 0-1-1-2-2-1v2l2 22c0 8-3 12-4 15-7 11-16 16-20 18v23l1 2 1-1"/>
	<path d="M1299 38v90h2V38z"/>
	<path d="M1300 33c-2-3-6-5-10-5s-7 1-11 3c-6 3-10 9-10 14l1 4c1 4 5 5 10 5 3 0 7-1 10-3 7-3 11-9 11-14l-1-4m1 95 1-4 5-11 12-17s7-9 8-22v-2c0-6-1-15-4-23l-2-2-1 3 3 21c0 8-3 12-5 16-6 11-15 16-19 17l-1 1v23l2 1 1-1"/>
	<path d="M1401 31v69h2V31z"/>
	<path d="M1403 95c-2-3-6-5-11-5-3 0-7 1-10 3-7 3-11 9-11 14l1 4c2 4 6 5 10 5s8-1 11-3c7-3 11-9 11-14l-1-4m1-60-1-4-1-1-1 1v23l1 1c4 1 12 6 19 17 2 4 5 8 5 16l-3 22v2c1 1 2 0 2-1 4-9 5-18 5-24v-2c-1-13-8-22-8-22l-12-17c-4-5-6-11-6-11"/>
	<path d="M1504 16v72h2V16z"/>
	<path d="M1505 83c-2-4-5-5-10-5l-11 2c-6 4-10 10-10 15l1 4c2 3 5 5 10 5l11-3c6-3 10-9 10-14l-1-4m2-63-1-4-1-1-2 1v23l1 1c4 1 13 7 19 18 2 3 5 7 5 15 0 7-1 15-3 22l1 2c1 1 1 0 2-1 3-9 4-18 4-24v-2c0-13-8-22-8-22l-12-17-5-11M123 184l-7-16v-1l2-1h1v-2h-14v2c2 0 3 0 4 3l9 24h4l9-22c1-3 3-5 5-5v-2h-11v2c2 0 4 1 4 3l-1 1-5 14m23-10h-10v2h1c2 0 3 0 3 4v9l-1 1-2 1h-1v2h13v-2c-3 0-3-1-3-2v-15m-3-11c-2 0-4 2-4 4s2 3 4 3 3-1 3-3-1-4-3-4m21 24-5-9v-1l2-1v-2h-11v2c1 0 2 0 3 2l7 15h3l6-14 4-3v-2h-9v2l3 1v3l-3 7m30-7c0-3 0-4-2-5l-7-2c-6 0-9 2-9 5 0 2 1 3 3 3s3-1 3-2v-2l-1-1 3-1c3 0 4 1 4 4v2l-3 1-5 1c-4 1-5 3-5 6 0 2 2 4 6 4 3 0 5-1 8-3 0 2 2 3 4 3s4-1 4-3v-1l-1 1h-1l-1-3v-7m-6 3v2c0 4-2 5-4 5s-3-1-3-2c0-2 2-4 5-4l2-1m28 3-1 2c-1 2-3 2-4 2-4 0-5-2-5-7s1-8 4-8l2 1v1l-1 2c0 2 1 3 3 3 3 0 4-1 4-3 0-4-3-6-8-6-7 0-11 4-11 10s4 10 10 10c3 0 5-1 7-3l2-4h-2m25-3c0-6-4-10-10-10-3 0-5 1-7 3s-3 5-3 7c0 3 1 6 3 8l7 2c5 0 8-2 10-6l-2-1c-2 3-3 4-6 4-2 0-3 0-4-2l-1-5h13m-13-2c0-4 1-6 4-6 2 0 3 2 3 5l-1 1h-6"/>
	<path d="M929 31v69h2V31z"/>
	<path d="M930 95c-2-3-6-5-10-5l-11 3c-6 3-10 9-10 14l1 4c2 4 5 5 10 5l11-3c6-3 10-9 10-14l-1-4m13-4a5 5 0 1 0 10 0 5 5 0 0 0-10 0m735 0a5 5 0 1 0 10 0 5 5 0 0 0-10 0"/>
</svg>
