<?xml version="1.0" encoding="utf-8"?>
<svg xmlns="http://www.w3.org/2000/svg" version="1.0" viewBox="0 0 1815 1482">
	<title>Nineteen bars of musical notation on the treble clef, in the key of G. Lyrics in Italian are given below the music.</title>
	<path d="M0 58v2h1814v-2zm0 25v2h1814v-2zm0 25v2h1814v-2zm0 25v2h1814v-2zm0 24v2h1814v-2zm0 211v2h1814v-2zm0 25v2h1814v-2zm0 25v2h1814v-2zm0 25v2h1814v-2zm0 24v2h1814v-2zm0 211v2h1814v-2zm0 25v2h1814v-2zm0 25v2h1814v-2zm0 25v2h1814v-2zm0 24v2h1814v-2zm0 211v2h1814v-2zm0 25v2h1814v-2zm0 25v2h1814v-2zm0 25v2h1814v-2zm0 25v2h1814v-2zm0 210v2h1814v-2zm0 25v2h1814v-2zm0 25v2h1814v-2zm0 25v2h1814v-2zm0 25v2h1814v-2zM999 24c40-36 113-29 146 13-34-35-107-42-146-13m397 13c43-43 129-43 172 0-43-36-129-36-172 0"/>
	<path d="M1064 0c-24 0-48 7-66 23a1 1 0 0 0 0 1 1 1 0 0 0 0 1 1 1 0 0 0 1 0c20-15 48-20 75-18 27 3 54 13 70 31a1 1 0 0 0 2-2c-19-23-51-36-82-36zm0 2c25 0 51 8 69 24-16-11-38-18-59-20s-42 1-60 8c15-8 32-12 50-12zm418 2c-32 0-65 11-87 32a1 1 0 0 0 0 1 1 1 0 0 0 0 1 1 1 0 0 0 1 0 1 1 0 0 0 1 0c21-18 53-27 85-27s64 9 85 27a1 1 0 0 0 2-2c-22-21-55-32-87-32zm0 2c25 0 50 6 70 20-20-11-45-17-70-17s-50 6-70 17c20-14 45-20 70-20zM380 58v102M945 58v102m397-102v102m470-102v102M597 368v102m660-102v102m555-102v102M585 678v102M378 58v102h4V58zm565 0v102h4V58zm397 0v102h4V58zm470 0v102h4V58zM595 368v102h4V368zm660 0v102h4V368zm555 0v102h4V368zM583 678v102h4V678zM825 678v102M818 678v102h14V678zM1372 678v102m426-102v102m14-102v102M589 988v102m388-102v102m462-102v102m373-102v102M580 1298v102m440-102v102m398-102v102M1370 678v102h4V678zm426 0v102h4V678zm14 0v102h4V678zM587 988v102h4V988zm388 0v102h4V988zm462 0v102h4V988zm373 0v102h4V988zM578 1298v102h4v-102zm440 0v102h4v-102zm398 0v102h4v-102zM1790 1298v102m17-102v102M1783 1298v102h14v-102zm17 0v102h14v-102zM1250 654h49M624 964h49M1250 652v4h49v-4zM624 962v4h49v-4zM268 87v84m184-84v81M604 50v84m94-84v84m152-84v84m134-84v84m146-72v84m120-84v84m131-84v84m118-71v83m54-96v90m54-102v84m118-72v84M196 385v83m171-71v81m141-81v84m137-108v83m140-83v83m83-83v83m146-71v83m140-83v83m179-71v81m205-56v74m168-99v84M196 707v81m126-81v84m108-71v77m196-65v74m301-99v81m111-118v84m111-71v83m111-108v83m184-46v83m98-108v84m98-47v81M248 1017v81m90-105v83m91-83v83m90-83v83m115-108v83m54-71v87m55-62v77m84-71v-67m54 92v-70m55 95v-73m108 54v74m115-99v84m72-59v74m116-74v84m160-78v-77m92 77v-77m80 90v-81m63 37v84M196 1290v84m118-47v84m73-121v84m118-47v84m111-83v71m72-59v71m72-59v71m102-65v-77m85 46v84m109-121v84m111-47v84m70-121v84m110-47v84m136-78v-64m72 77v-62m72 74v-59m72 72v-81M603 50v84h2V50zm94 0v84h2V50zm152 0v84h2V50zm134 0v84h2V50zm623 0v84h2V50zm-477 12v84h2V62zm120 0v84h2V62zm131 0v84h2V62zm172 0v90h2V62zm172 0v84h2V62zm-226 13v83h2V75zM267 87v84h2V87zm184 0v81h2V87zm193 286v83h2v-83zm140 0v83h2v-83zm83 0v83h2v-83zm-672 12v83h2v-83zm818 0v83h2v-83zm140 0v83h2v-83zm-787 12v81h2v-81zm141 0v84h2v-84zm825 0v81h2v-81zm373 0v84h2v-84zm-168 25v74h2v-74zm-278 236v83h2v-83zm-222 12v84h2v-84zm504 0v84h2v-84zm-393 13v83h2v-83zm295 12v83h2v-83zM195 707v81h2v-81zm126 0v84h2v-84zm605 0v81h2v-81zm713 0v81h2v-81zM429 720v77h2v-77zm196 12v74h2v-74zm201 212v67h2v-67zm54 22v70h2v-70zm-247 2v83h2v-83zm873 3v77h2v-77zm92 0v77h2v-77zm-911 9v87h2v-87zm991 0v81h2v-81zm-743 8v73h2v-73zm-598 5v83h2v-83zm91 0v83h2v-83zm90 0v83h2v-83zm224 12v77h2v-77zm-495 12v81h2v-81zm911 0v84h2v-84zm583 0v84h2v-84zm-698 25v74h2v-74zm187 0v74h2v-74zm116 0v84h2v-84zm136 227v64h2v-64zm-621 12v77h2v-77zm693 3v62h2v-62zm-1359 6v84h2v-84zm191 0v84h2v-84zm669 0v84h2v-84zm181 0v84h2v-84zm462 0v81h2v-81zm-72 9v59h2v-59zm-1313 28v84h2v-84zm191 0v84h2v-84zm442 0v84h2v-84zm220 0v84h2v-84zm180 0v84h2v-84zm-731 1v71h2v-71zm72 12v71h2v-71zm72 12v71h2v-71z"/>
	<path d="M482 76c-2-3-5-5-10-5l-11 3c-6 3-10 9-10 14l1 4c2 3 6 5 10 5l11-3c6-3 10-9 10-14l-1-4m152-37c-2-4-6-5-11-5-3 0-7 1-10 3-7 3-11 9-11 14l1 4c2 3 6 5 10 5s7-1 11-3c7-3 11-9 11-14l-1-4m94 0c-2-4-5-5-10-5l-11 3c-6 3-10 9-10 14l1 4c2 3 5 5 10 5l11-3c6-3 10-9 10-14l-1-4m152 0c-2-4-6-5-11-5-3 0-7 1-10 3-7 3-11 9-11 14l1 4c2 3 6 5 10 5s7-1 11-3c7-3 11-9 11-14l-1-4m134 0c-2-4-6-5-10-5s-7 1-11 3c-6 3-10 9-10 14l1 4c1 3 5 5 10 5 3 0 7-1 10-3 7-3 11-9 11-14l-1-4m146 12c-2-3-6-5-10-5l-11 3c-6 3-10 9-10 14l1 4c2 4 5 5 10 5l10-2c7-4 11-10 11-15l-1-4m120 0c-2-3-6-5-10-5s-7 1-11 3c-6 3-10 9-10 14l1 4c1 4 5 5 10 5l10-2c7-4 11-10 11-15l-1-4m131 0c-2-3-6-5-11-5-3 0-7 1-10 3-7 3-11 9-11 14l1 4c2 4 6 5 10 5l11-2c7-4 11-10 11-15l-1-4m118 13c-2-4-6-6-10-6l-11 3c-6 4-10 10-10 15l1 4c2 3 5 5 10 5 3 0 7-1 10-3 7-3 11-9 11-14l-1-4m54-13c-2-3-6-5-10-5s-7 1-11 3c-6 3-10 9-10 14l1 4c1 4 5 5 10 5l10-2c7-4 11-10 11-15l-1-4m54-12c-2-4-6-5-11-5-3 0-7 1-10 3-7 3-11 9-11 14l1 4c2 3 6 5 10 5s8-1 11-3c7-3 11-9 11-14l-1-4m118 12c-2-3-6-5-10-5s-7 1-11 3c-6 3-10 9-10 14l1 4c1 4 5 5 10 5l10-2c7-4 11-10 11-15l-1-4M226 374c-2-4-6-5-11-5-3 0-7 0-10 2-7 4-11 10-11 15l1 4c2 3 6 5 10 5s7-1 11-3c7-3 11-9 11-14l-1-4m171 12c-2-3-5-5-10-5-3 0-7 1-10 3-7 3-11 9-11 14l1 4c2 4 6 5 10 5s7-1 11-3c6-3 10-9 10-14l-1-4m141 0c-2-3-5-5-10-5l-11 3c-6 3-10 9-10 14l1 4c2 4 5 5 10 5l11-3c6-3 10-9 10-14l-1-4m137-25c-2-3-5-5-10-5l-11 3c-6 3-10 9-10 14l1 4c2 4 6 5 10 5 3 0 7 0 11-2 6-4 10-10 10-15l-1-4m140 0c-2-3-6-5-10-5s-7 1-11 3c-6 3-10 9-10 14l1 4c1 4 5 5 10 5 3 0 7 0 10-2 7-4 11-10 11-15l-1-4m83 0c-1-3-5-5-10-5-3 0-7 1-10 3-7 3-11 9-11 14l1 4c2 4 6 5 10 5s7 0 11-2c6-4 10-10 10-15l-1-4m146 13c-1-4-5-5-10-5-3 0-7 0-10 2-7 4-11 10-11 15l1 4c2 3 6 5 10 5s7-1 11-3c6-3 10-9 10-14l-1-4m140 0c-2-4-6-5-10-5-3 0-7 0-11 2-6 4-10 10-10 15l1 4c2 3 5 5 10 5 3 0 7-1 10-3 7-3 11-9 11-14l-1-4m179 12c-2-3-6-5-10-5s-7 1-11 3c-6 3-10 9-10 14l1 4c1 4 5 5 10 5 3 0 7-1 10-3 7-3 11-9 11-14l-1-4m205 25c-2-4-6-5-10-5s-7 1-11 3c-6 3-10 9-10 14l1 4c1 3 5 5 10 5 3 0 7-1 10-3 7-3 11-9 11-14l-1-4m168-25c-2-3-6-5-10-5s-7 1-11 3c-6 3-10 9-10 14l1 4c1 4 5 5 10 5 3 0 7-1 10-3 7-3 11-9 11-14l-1-4M226 696c-2-3-6-5-11-5-3 0-7 1-10 3-7 3-11 9-11 14l1 4c2 4 6 5 10 5s7-1 11-3c7-3 11-9 11-14l-1-4m126 0c-2-3-5-5-10-5l-11 3c-6 3-10 9-10 14l1 4c2 4 5 5 10 5l11-3c6-3 10-9 10-14l-1-4m108 12c-2-3-6-5-10-5s-7 1-11 3c-7 4-11 10-11 15l1 4c2 3 6 5 11 5 3 0 7-1 10-3 7-4 11-9 11-15l-1-4m196 13c-2-3-6-5-11-5-3 0-7 1-10 3-7 3-11 9-11 14l1 4c2 3 6 5 10 5s8-1 11-3c7-3 11-9 11-14l-1-4m301-25c-2-3-6-5-11-5-3 0-7 1-10 3-7 3-11 9-11 14l1 4c2 4 6 5 10 5s7-1 11-3c7-3 11-9 11-14l-1-4m111-37c-2-3-6-5-11-5-3 0-7 1-10 3-7 3-11 9-11 14l1 4c2 3 6 5 10 5s8-1 11-3c7-3 11-9 11-14l-1-4m111 12c-2-3-6-5-10-5s-7 1-11 3c-7 3-11 9-11 14l1 4c2 4 6 5 11 5 3 0 7 0 10-2 7-4 11-10 11-15l-1-4m111-25c-2-3-6-5-10-5s-7 1-11 3c-7 4-11 10-11 15l1 4c2 3 6 5 11 5 3 0 7-1 10-3 7-4 11-9 11-15l-1-4m184 38c-2-4-6-5-11-5l-10 2c-7 4-11 10-11 15l1 4c2 3 6 5 10 5s8-1 11-3c7-3 11-9 11-14l-1-4m98-25c-2-3-6-5-10-5s-7 1-11 3c-6 3-10 9-10 14l1 4c1 3 5 5 10 5 3 0 7-1 10-3 7-3 11-9 11-14l-1-4m98 37c-2-3-5-5-10-5l-11 3c-6 3-10 9-10 14l1 4c2 4 5 5 10 5l11-3c6-3 10-9 10-14l-1-4m-4 7-9 5a38 38 0 0 1-11 5l-3-2-1-2 2-3 9-6a38 38 0 0 1 11-4c1 0 2 0 3 2l1 1-2 4M278 1006c-2-3-6-5-10-5s-7 1-11 3c-6 3-10 9-10 14l1 4c1 4 5 5 10 5l10-2c7-4 11-10 11-15l-1-4m90-25c-2-3-6-5-11-5-3 0-7 1-10 3-7 4-11 9-11 14l1 5c2 3 6 4 10 4s8 0 11-2c7-4 11-10 11-15l-1-4m91 0c-2-3-5-5-10-5l-11 3c-6 4-10 9-10 14l1 5c2 3 5 4 10 4 3 0 7 0 11-2 6-4 10-10 10-15l-1-4m90 0c-2-3-6-5-10-5s-7 1-11 3c-7 4-10 9-10 14l1 5c1 3 5 4 10 4 3 0 7 0 10-2 7-4 11-10 11-15l-1-4m115-25c-2-3-6-5-11-5-3 0-7 1-10 3-7 4-11 10-11 15l1 4c2 3 6 5 10 5s7-1 11-3c7-4 11-9 11-14l-1-5m54 13c-2-3-5-5-10-5l-11 3c-6 3-10 9-10 14l1 4c2 3 5 5 10 5l11-3c6-3 10-9 10-14l-1-4m55 25c-2-4-6-5-10-5l-11 2c-7 4-11 10-11 15l1 4c2 3 6 5 11 5 3 0 7-1 10-3 7-3 11-9 11-14l-1-4m54 12c-2-3-5-5-10-5l-11 3c-6 3-10 9-10 14l1 4c2 4 5 5 10 5l11-2c6-4 10-10 10-15l-1-4m55 25c-2-3-6-5-10-5s-7 1-11 3c-7 3-11 9-11 14l1 4c2 3 6 5 11 5 3 0 7-1 10-3 7-3 11-9 11-14l-1-4m54 25c-2-4-5-5-10-5l-11 3c-6 3-10 9-10 14l1 4c2 3 6 5 10 5l11-3c6-3 10-9 10-14l-1-4m138-25c-2-3-6-5-10-5s-7 1-11 3c-6 3-10 9-10 14l1 4c1 3 5 5 10 5 3 0 7-1 10-3 7-3 11-9 11-14l-1-4m115-25c-2-3-5-5-10-5l-11 3c-6 3-10 9-10 14l1 4c2 4 5 5 10 5l11-2c6-4 10-10 10-15l-1-4m72 25c-1-3-5-5-10-5-3 0-7 1-10 3-7 3-11 9-11 14l1 4c2 3 6 5 10 5s7-1 11-3c6-3 10-9 10-14l-1-4m116 0c-2-3-6-5-11-5-3 0-7 1-10 3-7 3-11 9-11 14l1 4c2 3 6 5 10 5s8-1 11-3c7-3 11-9 11-14l-1-4m130 12c-1-3-5-5-10-5-3 0-7 1-10 3-7 4-11 9-11 15l1 4c2 3 6 5 10 5s7-1 11-3c7-4 10-10 10-15l-1-4m92 0c-2-3-5-5-10-5l-11 3c-6 4-10 9-10 15l1 4c2 3 5 5 10 5l11-3c6-4 10-10 10-15l-1-4m81 13c-2-4-6-5-10-5s-7 1-11 3c-6 3-10 9-10 14l1 4c1 3 5 5 10 5 3 0 7-1 10-3 7-3 11-9 11-14l-1-4m91-50c-1-3-5-5-10-5-3 0-7 1-10 3-7 3-11 9-11 14l1 4c2 4 6 5 10 5l11-2c7-4 10-10 10-15l-1-4M227 1279c-2-3-6-5-11-5-3 0-7 1-10 3-7 3-11 9-11 14l1 4c2 3 6 5 10 5s7-1 11-3c7-3 11-9 11-14l-1-4m118 37c-2-3-6-5-11-5-3 0-7 1-10 3-7 3-11 9-11 14l1 4c2 4 6 5 10 5l11-2c7-4 11-10 11-15l-1-4m73-37c-1-3-5-5-10-5-3 0-7 1-10 3-7 3-11 9-11 14l1 4c2 3 6 5 10 5s7-1 11-3c6-3 10-9 10-14l-1-4m118 37c-1-3-5-5-10-5-3 0-7 1-10 3-7 3-11 9-11 14l1 4c2 4 6 5 10 5l11-2c6-4 10-10 10-15l-1-4m111 0c-2-3-6-5-10-5s-7 1-11 3c-6 3-10 9-10 14l1 4c1 4 5 5 10 5l10-2c7-4 11-10 11-15l-1-4m72 13c-2-4-6-6-10-6s-7 1-11 3c-6 4-10 10-10 15l1 4c1 3 5 5 10 5 3 0 7-1 10-3 7-4 11-9 11-14l-1-4m72 12c-2-3-6-5-10-5s-7 1-11 3c-6 3-10 9-10 14l1 4c1 3 5 5 10 5 3 0 7-1 10-3 7-3 11-9 11-14l-1-4m72 12c-2-3-6-5-10-5l-11 3c-6 4-10 9-10 15l1 4c2 3 5 5 10 5 3 0 7-1 10-3 7-4 11-10 11-15l-1-4m115-37c-1-3-5-5-10-5-3 0-7 1-10 3-7 3-11 9-11 14l1 4c2 4 6 5 10 5l11-2c6-4 10-10 10-15l-1-4m109-37c-2-3-5-5-10-5l-11 3c-6 3-10 9-10 14l1 4c2 3 5 5 10 5l11-3c6-3 10-9 10-14l-1-4m111 37c-2-3-5-5-10-5l-11 3c-6 3-10 9-10 14l1 4c2 4 5 5 10 5l11-2c6-4 10-10 10-15l-1-4m69-37c-1-3-5-5-10-5-3 0-7 1-10 3-7 3-11 9-11 14l1 4c2 3 6 5 10 5s7-1 11-3c6-3 10-9 10-14l-1-4m111 37c-1-3-5-5-10-5-3 0-7 1-10 3-7 3-11 9-11 14l1 4c2 4 6 5 10 5l11-2c6-4 10-10 10-15l-1-4m107 13c-2-4-6-6-11-6-3 0-7 1-10 3-7 4-11 10-11 15l1 4c2 3 6 5 10 5s8-1 11-3c7-4 11-9 11-14l-1-4m71 12c-1-3-5-5-10-5-3 0-7 1-10 3-7 3-11 9-11 14l1 4c2 3 6 5 10 5s7-1 11-3c7-3 10-9 10-14l-1-4m72 12c-1-3-5-5-10-5-3 0-7 1-10 3-7 4-11 9-11 15l1 4c2 3 6 5 10 5s7-1 11-3c6-4 10-10 10-15l-1-4m72 13c-1-4-5-5-10-5-3 0-7 1-10 3-7 3-11 9-11 14l1 4c2 3 6 5 10 5s7-1 11-3c6-3 10-9 10-14l-1-4M298 76c-2-3-6-5-10-5s-7 1-11 3c-7 3-11 9-11 14l1 4c2 3 6 5 11 5 3 0 7-1 10-3 7-3 11-9 11-14l-1-4M83 128l-5-10a22 22 0 0 0-20-10l-3-17 11-16 5-11c2-6 2-13 1-21s-3-14-6-18l-3-2-6 4c-3 2-6 6-8 12-3 7-4 17-3 23l1 13 1 4-1 1-3 3-3 3c-8 8-21 20-21 39a32 32 0 0 0 9 23 37 37 0 0 0 33 10l3 22c0 6-1 10-5 13-3 2-5 3-8 3l-7-1v-1c2 0 6-1 8-4s3-8 1-11c-1-3-4-6-9-6a11 11 0 0 0-11 6c-3 5-2 10 1 14s7 6 13 7h2c5 0 9-1 13-4 3-2 5-6 6-12 1-4 0-10-1-18l-2-9a24 24 0 0 0 16-29m-33 26c-5-1-9-4-13-7l-5-7-2-10 4-15c3-5 8-11 14-16l4-4 2 14c-4 1-8 4-11 10-4 7-4 12-3 16s3 8 7 10l7 2v-1c1-1 0-2-2-3l-2-1c-3-2-4-7-3-11l3-6 6-4 6 31 1 2H49m11-33c10-1 14 7 15 11 1 3 1 7-1 12-1 3-3 7-8 9l-1-1-5-31m-7-71c1-5 4-9 6-10l4-2h1l1 1c3 4 2 11 0 15-1 6-4 11-13 21v-3c-1-8-1-16 1-22m30 388-5-10a22 22 0 0 0-20-10l-3-17 11-16 5-11c2-5 2-13 1-21s-3-14-6-18l-3-2-6 4c-3 2-6 6-8 12-3 7-4 17-3 23l1 13 1 4-1 1-3 4-3 2c-8 8-21 21-21 40a32 32 0 0 0 9 22 37 37 0 0 0 33 10l3 22c0 6-1 10-5 13-3 2-5 3-8 3l-7-1c2-1 6-2 8-5s3-7 1-11c-1-3-4-6-9-6a11 11 0 0 0-11 6c-3 5-2 10 1 14s7 6 13 7h2c5 0 9-1 13-4 3-2 5-6 6-12 1-4 0-10-1-18l-2-9a24 24 0 0 0 16-29m-33 26c-5-1-9-4-13-7l-5-7-2-10 4-14c3-6 8-11 14-17l4-4 2 14c-4 1-8 5-11 10-4 7-4 12-3 16s3 8 7 10l7 2v-1c1-1 0-2-2-2l-2-2c-3-2-4-7-3-11l3-6 6-4 6 31 1 2H49m11-33c10-1 14 7 15 12 1 2 1 6-1 11-1 3-3 7-8 9l-1-1-5-31m-7-71c1-5 4-8 6-10l4-2h1l1 1c3 4 2 11 0 16-1 5-4 10-13 20v-3c-1-8-1-16 1-22m30 388-5-10a22 22 0 0 0-20-10l-3-17 11-16 5-11c2-5 2-13 1-21s-3-14-6-18l-3-2-6 4c-3 2-6 6-8 12-3 7-4 17-3 23l1 13 1 4-1 1-3 4-3 2c-8 8-21 21-21 40a32 32 0 0 0 9 22 37 37 0 0 0 33 10l3 22c0 6-1 10-5 13-3 2-5 3-8 3l-7-1c2-1 6-2 8-5s3-7 1-11c-1-3-4-6-9-6a11 11 0 0 0-11 6c-3 5-2 10 1 14s7 6 13 7h2c5 0 9-1 13-4 3-2 5-6 6-12 1-4 0-10-1-18l-2-9a24 24 0 0 0 16-29m-33 26c-5-1-9-4-13-7l-5-7-2-10 4-14c3-6 8-11 14-17l4-4 2 14c-4 1-8 5-11 10-4 7-4 12-3 16s3 8 7 10c1 0 5 3 7 2v-1c1-1 0-2-2-2l-2-2c-3-2-4-7-3-11l3-6 6-3 6 30 1 2H49m11-33c10-1 14 7 15 12 1 2 1 6-1 11-1 3-3 7-8 9l-1-1-5-31m-7-71c1-5 4-8 6-10l4-2h1l1 1c3 4 2 11 0 16-1 5-4 10-13 20v-3c-1-8-1-16 1-22m30 388-5-10a22 22 0 0 0-20-10l-3-17 11-16c4-6 5-11 5-11 2-5 2-13 1-21s-3-14-6-18l-3-2-6 4c-3 2-6 6-8 12-3 7-4 17-3 23l1 13 1 4-1 1-3 4-3 2c-8 8-21 21-21 40a32 32 0 0 0 9 22 37 37 0 0 0 33 10l3 22c0 6-1 10-5 13-3 2-5 3-8 3l-7-1c2-1 6-2 8-5s3-7 1-11c-1-3-4-6-9-6a11 11 0 0 0-11 6c-3 5-2 10 1 14s7 6 13 7h2c5 0 9-1 13-4 3-2 5-6 6-12 1-4 0-10-1-18l-2-9a24 24 0 0 0 16-29m-33 26c-5-1-9-4-13-7l-5-7-2-10 4-14c3-6 8-11 14-17l4-4 2 14c-4 1-8 5-11 10-4 7-4 12-3 16s3 8 7 10c1 0 5 3 7 2v-1c1-1 0-1-2-2l-2-2c-3-2-4-7-3-11l3-6 6-3 6 30 1 2H49m11-33c10-1 14 7 15 12 1 2 1 7-1 11-1 3-3 7-8 9l-1-1-5-31m-7-71c1-5 4-8 6-10l4-2h1l1 1c3 5 2 11 0 16-1 5-4 10-13 20v-3c-1-8-1-16 1-22m30 388-5-10a22 22 0 0 0-20-10l-3-17 11-16c4-6 5-11 5-11 2-5 2-13 1-21s-3-14-6-17l-3-3-6 4c-3 3-6 6-8 12-3 7-4 17-3 23l1 13 1 4-1 1-3 4-3 2c-8 8-21 21-21 40a32 32 0 0 0 9 22 37 37 0 0 0 33 10l3 22c0 6-1 10-5 13-3 2-5 3-8 3l-7-1c2-1 6-2 8-5s3-7 1-11c-1-3-4-6-9-6a11 11 0 0 0-11 6c-3 5-2 11 1 14 3 4 7 6 13 7h2c5 0 9-1 13-3 3-3 5-7 6-13 1-4 0-10-1-18l-2-9a24 24 0 0 0 16-29m-33 26c-5-1-9-4-13-7l-5-7-2-10 4-14c3-6 8-11 14-17l4-3 2 13c-4 2-8 5-11 10-4 7-4 12-3 16s3 8 7 10c1 1 5 3 7 2v-1c1-1 0-1-2-2l-2-2c-3-2-4-7-3-11l3-6 6-3 6 30 1 2H49m11-33c10 0 14 7 15 12 1 2 1 7-1 11-1 3-3 7-8 9l-1-1-5-31m-7-70c1-6 4-9 6-11l4-2h1l1 1c3 5 2 11 0 16-1 5-4 11-13 20v-3c-1-8-1-15 1-21M131 49l1-2v-6l-1-1-4 1V26h-2v15l-9 2V29h-3v15h-4l-1 2v6l2 1 3-1v17h-4l-1 2v6l2 1 3-1v15h3V77l9-2v14h2V74h4l1-2v-6l-1-1-4 1V49h4m-15 19V52l9-2v16l-9 2m15 291 1-2v-6l-1-1-4 1v-15h-2v15l-9 2v-14h-3v15l-4 1-1 1v6l2 1 3-1v17l-4 1-1 1v6l2 1 3-1v15h3v-15l9-2v14h2v-15h4l1-2v-6l-1-1-4 1v-17h4m-15 19v-16l9-2v16l-9 2m15 291 1-2v-6l-1-1-4 1v-15h-2v15l-9 2v-14h-3v15l-4 1-1 1v6l2 1 3-1v17l-4 1-1 1v6l2 1 3-1v15h3v-15l9-2v14h2v-15h4l1-2v-6l-1-1-4 1v-17h4m-15 19v-16l9-2v16l-9 2m15 291 1-2v-5l-1-2-4 1v-15h-2v15l-9 2v-14h-3v15l-4 1-1 1v6l2 1 3-1v17l-4 1-1 1v6l2 1 3-1v15h3v-15l9-2v14h2v-15h4l1-2v-5l-1-2-4 1v-17h4m-15 19v-16l9-2v16l-9 2m15 291 1-2v-5l-1-2-4 1v-15h-2v15l-9 2v-14h-3v15l-4 1-1 1v6l2 1 3-1v17l-4 1-1 1v6l2 1 3-1v15h3v-15l9-2v14h2v-15h4l1-2v-5l-1-2-4 1v-17h4m-15 19v-16l9-2v16l-9 2M180 80c-6 0-8 1-9 3l-1-5 1-5c0-4 3-8 8-8 3 0 4 1 5 2-2 1-4 3-4 5 0 4 3 7 7 7 3 0 6-3 6-7v-3c-2-4-6-9-16-9-9 0-15 9-17 13-1 3-3 7-3 13s2 13 8 18c6 4 9 5 13 5 3 0 16-4 16-16 0-10-7-13-14-13m-3 25c-3 0-6-5-6-11 0-5 3-10 6-10s6 5 6 10c0 6-3 11-6 11m11 26c3-2 5-5 5-9 0-7-7-13-17-13s-18 6-18 13c0 4 1 7 6 10-4 3-7 7-7 11 0 8 9 15 19 15s19-7 19-15c0-4-2-9-7-12m-12 21c-6 0-12-3-12-9s5-8 5-8c7 2 17 6 17 11 0 3-4 6-10 6m6-23c-7-2-14-6-14-10s4-6 8-6c6 0 10 3 10 8 0 4-2 7-4 8m697 582c-2 2-4 5-4 8v1c1 4 4 7 8 8h1c5 0 9-4 9-9v-2c-1-5-5-14-22-14-21 0-24 18-24 25 0 11 2 26 26 26 10 0 18-6 18-16l-1-1h-1l-1 1c0 8-6 13-15 13-8 0-12-5-12-13v-19c0-6 2-12 11-12 4 0 6 2 7 3v1m-699 299c-6 0-8 2-9 3l-1-5 1-5c0-4 3-8 8-8 3 0 4 1 5 2-2 1-4 3-4 6s3 6 7 6c3 0 6-3 6-6v-4c-2-3-6-9-16-9-9 0-15 9-17 13-1 3-3 8-3 13 0 6 2 13 8 18s9 5 13 5c3 0 16-4 16-16 0-10-7-13-14-13m-3 25c-3 0-6-5-6-10 0-6 3-11 6-11s6 5 6 11c0 5-3 10-6 10m11 27c3-3 5-6 5-10 0-7-7-13-17-13s-18 6-18 13c0 4 1 7 6 10-4 3-7 7-7 11 0 8 9 15 19 15s19-7 19-15c0-4-2-9-7-11m-12 20c-6 0-12-3-12-9s5-8 5-8c7 2 17 6 17 11 0 3-4 6-10 6m6-23c-7-2-14-6-14-10s4-6 8-6c6 0 10 3 10 8s-2 7-4 8m517-342v11l1 1h30l1-1v-11l-1-1h-30l-1 1m988 234c-9-10-17-11-22-11s-14 1-23 11c-5 5-8 16-8 21l1 4c3 0 2-9 10-17 7-8 17-8 19-8h1c2 0 12 0 19 8 9 8 7 17 10 17l2-4c0-5-4-16-9-21m-29 19a7 7 0 1 0 14 0 7 7 0 0 0-14 0m49 283c-9-10-18-11-23-11s-13 1-22 11c-5 5-9 16-9 21 0 2 1 3 2 3 2 0 1-8 9-17 8-7 18-7 20-7 3 0 13 0 20 7 8 9 7 17 10 17l1-3c0-5-3-16-8-21m-30 19a7 7 0 1 0 14 0 7 7 0 0 0-14 0M1498 152l56-6v12l-56 7v-13m0-18 56-7v12l-56 7v-12m-866 911 112 32v12l-112-31v-13m193-109 112 45v13l-112-44v-14m-210 456 146 25v13l-146-25v-13m867-130 146 30v13l-146-30v-13"/>
	<path d="m269 171 1-4 5-11 12-17s8-9 8-22v-2c0-6-1-15-4-24l-2-1-1 3 3 21c0 8-3 12-4 15-7 11-16 17-20 18l-1 1v23l2 1 1-1m336-37 1-4 5-12 12-16s8-9 8-22v-2c0-7-1-15-4-24-1-1-1-2-2-1l-1 2c2 7 3 14 3 22s-3 12-5 15c-6 11-15 17-19 18l-1 1v22l2 2 1-1m246 0 1-4 5-12 12-16s7-9 8-22v-2c0-7-1-15-4-24-1-1-1-2-2-1l-1 2c2 7 3 14 3 22s-3 12-5 15c-6 11-15 17-19 18l-1 1v22l2 2 1-1m400 12 1-3c0-1 2-7 6-12l11-17s8-9 8-22v-2c0-6 0-15-4-23l-2-2v3l2 21c0 8-3 13-4 16-7 11-15 16-20 17v24l1 1 1-1m475 0 1-3c0-1 2-7 6-12l11-17s8-9 8-22v-2c0-6 0-15-4-23l-2-2v3l2 21c0 8-3 13-4 16-7 11-15 16-20 17v24l1 1 1-1M509 481l1-4s2-6 6-11l12-17s7-9 8-22v-2c0-6-1-15-5-23l-2-2v3l3 21c0 8-3 12-5 15-7 11-15 17-19 18l-1 1v23l1 1 1-1m275-24 1 1 2-1s1-11 5-16c4-6 10-9 15-15 3-4 4-10 4-15 1-5 0-10-1-13v-8c0-5-2-11-4-14l-2-1-1 3 3 11c0 4-1 8-5 14-5 9-13 14-16 15l-1 1v38m23-51c0 4 0 9-5 16-4 5-10 9-14 9l-1 1 1-1c0-2 2-6 6-10a118 118 0 0 0 13-15m60 51 2 1c2 0 1-1 1-1s2-11 5-16c4-6 10-9 15-15 4-4 5-10 5-15l-2-13v-8c0-5-2-11-4-14l-2-1v3l2 11c0 4 0 8-4 14-6 9-14 14-16 15l-2 1v38m23-51c1 4 1 9-5 16-4 5-10 9-14 9v1-1c1-2 2-6 6-10a118 118 0 0 0 13-15m265 63 1-4 6-12 12-16s7-10 7-22v-3c0-6 0-14-4-23 0-1-1-2-2-1v2l3 21c0 9-3 13-5 16-7 11-15 16-19 18l-1 1v22l1 2 1-1m552 12 1-4s2-6 6-11c2-5 12-17 11-17 0 0 8-9 8-22v-2c0-6 0-15-4-23l-2-2v3l2 21c0 8-3 12-4 15-7 11-15 17-20 18v24l1 1 1-1M323 791l1-4s2-6 6-11l12-17s7-9 7-22v-2c0-6 0-15-4-23l-2-2v3l3 21c0 8-3 12-5 15-7 11-15 17-19 18l-1 1v23l1 1 1-1m16 286 1-4 5-12 12-16s8-10 8-23v-2c0-6-1-15-4-23l-2-2-1 3 3 21c0 8-3 13-5 16-6 11-15 16-19 17l-1 2v22l2 1h1m181 0 1-4 6-12 11-16s8-10 8-23v-2c0-6-1-15-4-23l-2-2v3l2 21c0 8-3 13-4 16-7 11-16 16-20 17v24l1 1h1m640 24 1-4s2-6 6-11l12-17s7-9 8-22v-2c0-6-1-15-5-23 0-1 0-2-2-2v3l3 21c0 8-3 12-5 16-7 11-15 16-19 17l-1 1v23l1 1 1-1m188 25 1-4 5-11 12-17s8-9 8-22v-2c0-6-1-15-4-24-1-1-1-2-2-1l-1 3c2 6 3 14 3 21 0 8-3 12-5 15-6 11-15 17-19 18l-1 1v23l2 1 1-1m253-152-1-4-1-1-2 2v22l1 1c4 2 13 7 19 18 2 3 5 7 5 16l-3 21 1 3 2-2c3-8 4-18 4-24v-2c0-12-8-22-8-22l-12-16-5-12m142 127 1-4 5-11 12-17s7-9 8-22v-2c0-6-1-15-4-23l-2-2-1 3 3 21c0 8-3 12-5 16-6 11-15 16-19 17l-1 1v23l2 1 1-1M315 1411l1-4 5-11 12-17s8-9 8-22v-2c0-6-1-15-4-23l-2-2-1 3 3 21c0 8-3 12-5 16-6 11-15 16-19 17l-1 1v23l2 1 1-1m192 0 1-4s1-6 5-11l12-17s7-9 8-22v-2c0-6-1-15-5-23l-1-2-1 3 3 21c0 8-3 12-5 16-6 11-15 16-19 17l-1 1v23l1 1 2-1m442 0 1-4s1-6 5-11l12-17s7-9 8-22v-2c0-6-1-15-5-23l-1-2c-2 0-1 2-1 3l3 21c0 8-3 12-5 16-6 11-15 16-19 17l-1 1v23l1 1 2-1m219 0 1-4s2-6 6-11l12-17s7-9 7-22v-2c0-6 0-15-4-23l-2-2v3l3 21c0 8-3 12-5 16-7 11-15 16-19 17l-1 1v23l1 1 1-1m181 0 1-4 5-11 12-17s7-9 8-22v-2c0-6-1-15-4-23l-2-2-1 3 3 21c0 8-3 12-5 16-6 11-15 16-19 17l-1 1v23l2 1 1-1M262 226v5h4l8-1 4-3h1l-1 4-7 2h-5a66 66 0 0 0-11 0h-1l1-1 2-1 1-4v-23c0-2-1-3-3-3l-1-1v-1l2 1a44 44 0 0 0 9-1v2h-1c-2 0-2 2-2 4v21m18-29 2 2 1 3-2 6-3 2-1-1h1l2-4c0-2-1-3-3-4v-2l2-2h1m20 25v-3l-1-4-4-1c-2 0-3 1-3 3v3l-2-1-1-1 1-3 6-3 5 2c2 1 2 2 2 4v10l1 3 2 1h1l-1 1h-2c-1 0-3 0-4-2l-6 3-4-2-1-3 2-4 9-3m0 1-6 2-2 3 1 3 3 1 3-1 1-3v-5m125-7c2-2 4-4 6-4l4 1 2 3c2-2 4-4 7-4 2 0 4 1 5 3 2 1 2 3 2 5v8l1 3 2 1 1 1h-4a42 42 0 0 0-5 0v-1l2-2v-9l-2-5-4-2-3 1-1 3v11l1 2 2 1 1 1h-4a41 41 0 0 0-5 0h-1l2-2 1-2v-9l-2-4-3-2-4 2-1 2v11l1 2 2 1 1 1h-1a68 68 0 0 1-3 0h-3a10 10 0 0 0-2 0h-1l2-2 1-2v-11l-1-2-1-1h-2l1-1 4-2h1l1 1v3m43-4c3 0 6 1 8 4 2 2 3 4 3 7s-1 6-3 8-5 3-8 3-6-1-8-3-3-5-3-8 1-5 3-7 5-4 8-4m-1 1c-2 0-3 1-4 3-2 1-2 3-2 6s0 5 2 7c2 3 3 4 6 4 2 0 3-1 5-3l1-6c0-3 0-6-2-8-1-2-3-3-6-3m22 4c2-3 3-5 5-5l2 1 1 2v1l-2 1h-1l-2-1-2 1-1 3v11l2 1h2v1h-6a20 20 0 0 0-3 0h-1l2-2 1-2v-11c0-2-1-3-3-3h-2l1-1 6-2 1 1v4m13 4 2 7 6 3 6-2-1 2c-2 2-5 3-7 3-3 0-5-1-7-3s-2-5-2-8l2-7 7-4c3 0 5 2 7 4l1 2v2l-1 1h-13m0-2h10l-1-4-4-1-3 1-2 4m111 2 2 7 6 3 6-2h1l-2 2c-2 2-4 3-7 3-2 0-5-1-7-3s-2-5-2-8 1-5 3-7c1-2 4-4 6-4 3 0 5 2 7 4a13 13 0 0 1 1 4l-1 1h-13m0-2h10l-1-4-4-1-3 1-2 4m5-10-3-4v-2h3v1l1 1a112 112 0 0 0 1 4v1l-2-1m75 21c-2 2-4 4-7 4-2 0-4-1-5-3l-2-5v-12h-2l-1-1h4a13 13 0 0 0 2-1l1 1v15l2 3 3 1 4-1 1-3v-14h-2l-1-1h2l2-1h2l1 1v18l2 1h1l-1 1h-2a12 12 0 0 0-3 0l-1-2v-1m17-14c2-2 4-4 6-4 3 0 5 2 6 4 2 1 2 3 2 6v8l2 2h1l1 1h-9v-1h1l1-2v-8l-2-5c-1-2-2-2-4-2l-4 1-1 3v11c0 1 1 2 3 2l1 1h-4a52 52 0 0 0-6 0v-1l2-1v-15l-2-1h-1v-1l3-1h2a84 84 0 0 1 1-1l1 1v3m32 6v-3l-1-4-4-1c-2 0-3 1-3 3l1 1v1l-1 1-2-1-1-1 2-3c1-2 3-3 6-3l5 2 2 4v13l2 1h2l-2 1h-2c-1 0-2 0-3-2l-7 3-4-2-1-3c0-2 1-3 3-4l8-3m0 1-6 2-2 3 1 3 3 1 3-1 1-3v-5m114-11 4 1c2 0 1 1 1 1v4l-1-1-3-2-3-1-4 2-2 6c0 2 1 5 3 7l6 2c1 0 3 0 5-2h1l-1 2c-2 2-5 3-8 3l-6-3c-2-2-3-4-3-7s1-6 3-8 5-4 8-4m21 10v-3l-1-4-4-1c-2 0-3 1-3 3v3l-2-1-1-1 1-3 6-3 5 2 2 4v10l1 3 1 1h2l-1 1h-2c-2 0-3 0-4-2-2 2-5 3-7 3l-3-2-2-3c0-2 1-3 3-4l9-3m0 1-6 2c-2 1-2 2-2 3l1 3 2 1 4-1 1-3v-5m112-8v13l1 3 3 1 2-1h2l-2 2-4 1c-3 0-5-2-5-6v-13h-3l1-1 4-5 1-1v5h7l1-1v1l-1 2h-7m13 6 2 7 6 3 6-2-1 2-7 3c-3 0-5-1-7-3s-3-5-3-8 1-5 3-7 4-4 7-4c2 0 5 2 6 4a13 13 0 0 1 2 4l-1 1h-13m0-2h10c0-2 0-3-2-4l-3-1-3 1-2 4m247-3c2-2 4-4 7-4 2 0 4 2 6 4l1 6v8l2 2h1l1 1h-9v-1h1l1-2v-8l-2-5-4-2-4 1-1 3v11c0 1 1 2 3 2l1 1h-4a52 52 0 0 0-6 0v-1l2-1v-15l-2-1h-1v-1l4-1h1a47 47 0 0 1 1-1l1 1v3m33 6v-3l-1-4-4-1c-2 0-3 1-3 3v3l-3-1v-1l1-3 6-3 5 2 2 4v10l1 3 1 1h2l-1 1h-2c-2 0-3 0-4-2-2 2-5 3-7 3l-3-2-2-3c0-2 1-3 3-4l9-3m0 1-6 2c-2 1-2 2-2 3l1 3 2 1 4-1 1-3v-5m13-8 1 1 2 1v3l-2 1-1 1-3-3 1-1 1-2 1-1m0 12 2 2 1 4c0 2 0 3-2 5-1 2-2 2-3 2l2-2v-3c0-1 0-3-2-4l-1-1h1l2-2v-1m91-28v28l1 3c0 1 1 2 3 2l1 1h-6a29 29 0 0 0-4 0v-1l2-1v-29c0-1 0-2-2-2h-1v-1h2l1-1 3-1v2m11-2 2 2 1 3-2 6-3 2v-1l2-2v-2l-2-4-1-1v-1l2-2h1m20 25v-3l-1-4-4-1c-2 0-3 1-3 3v3l-2-1-1-1 1-3 6-3 5 2 2 4v10l1 3 1 1h2l-1 1h-2c-2 0-3 0-4-2-2 2-5 3-7 3l-3-2-2-3c0-2 1-3 3-4l9-3m0 1-6 2c-2 1-2 2-2 3l1 3 2 1 4-1 1-3v-5m162-7c2-2 4-4 7-4l3 1 3 3c2-2 4-4 6-4 3 0 4 1 6 3l1 5v8l1 3 3 1v1h-4a42 42 0 0 0-4 0h-1v-1l2-1v-10l-1-5-4-2-3 1-2 3v11l1 2 2 1 1 1h-4a41 41 0 0 0-5 0v-1l2-1v-11l-1-4-4-2-3 2-2 2v11l1 2 2 1 1 1h-1a65 65 0 0 1-3 0h-3a10 10 0 0 0-2 0v-1l2-1v-13l-1-2-1-1h-2l1-1 5-2h1v4m43-4c3 0 6 1 8 4 2 2 3 4 3 7s-1 6-3 8-5 3-8 3-5-1-7-3-3-5-3-8 1-5 3-7 4-4 7-4m0 1c-2 0-4 1-5 3l-2 6 2 7c2 3 4 4 6 4s4-1 5-3l2-6c0-3-1-6-3-8-1-2-3-3-5-3m21 4 5-5 2 1 2 2-2 2h-1l-2-1-3 1-1 3v8l1 3 2 1h1l1 1h-6a20 20 0 0 0-4 0h-1l1-1 2-1v-13c0-2-1-3-3-3h-1v-1h1l5-2h1v5m13 4c0 3 1 5 3 7s3 3 5 3l6-2h1l-2 2c-2 2-4 3-7 3l-6-3c-2-2-3-5-3-8s1-5 3-7 4-4 6-4c3 0 5 2 7 4a13 13 0 0 1 2 4l-2 1h-13m0-2h11l-2-4-4-1-3 1-2 4m78 2c0 3 1 5 3 7 1 2 3 3 5 3l6-2h1l-2 2c-2 2-4 3-7 3l-6-3c-2-2-3-5-3-8s1-5 3-7 4-4 6-4c3 0 5 2 7 4l2 4-2 1h-13m1-2h10l-2-4-4-1-3 1-1 4m5-10-3-4h-1v-1l1-1h2v1l1 1a240 240 0 0 0 1 5l-1-1M191 540c-2 3-4 4-7 4l-5-2c-2-1-2-3-2-6v-10l-1-1-2-1 1-1h2a13 13 0 0 0 2 0l1 1v15l2 2 3 1 4-1 2-3v-11l-1-2-1-1h-1l1-1h4l1-1v17l1 3h2v1h-2a12 12 0 0 0-3 1l-1-3v-1m16-13c2-3 4-4 7-4l6 3 1 7v6l1 2 2 2h1l-1 1-3-1-3 1h-2v-1l2-2v-9l-1-5-5-2-3 1-2 3v11c0 2 1 3 3 3h1v1h-2l-2-1a52 52 0 0 0-6 1v-1h1l1-1 1-2v-11l-1-3h-3v-1h1l3-1 1-1a127 127 0 0 1 2-1v5m33 6v-3l-1-4-4-2c-2 0-3 1-3 3v3h-2l-1-1 1-4 6-2 5 1c2 1 2 3 2 5v9l1 3 2 1h1v1h-1l-2 1c-2 0-3-1-4-3l-6 3-4-1-1-3c0-2 0-4 2-5l9-2m0 1-6 1c-2 1-2 3-2 4l1 3 2 1 4-2 1-2v-5m134-11 3 1 2 1v4l-1-1-6-4c-2 0-3 1-4 3l-2 5c0 3 1 5 3 7 1 2 3 3 5 3l6-2v-1l1 1-2 1c-2 2-4 3-7 3-2 0-5-1-6-3l-3-7c0-3 1-6 3-8s5-3 8-3m20 10v-3l-1-4-3-2c-3 0-4 1-4 3l1 2v1h-3l-1-1 2-4 6-2 5 1 2 5v12l2 1h1l1 1h-1l-3 1-3-3-7 3-3-1-2-3c0-2 1-4 3-5l8-2m0 1-5 1-3 4 1 3 3 1 4-2v-7m118-8v12l1 3 3 1h3l1-1c0 1 0 2-2 2l-3 1c-4 0-6-2-6-6v-12h-3l1-1 4-5 1-1h1l-1 5h6l1-1h1v1l-2 2h-6m13 5v1l2 7 6 3 6-3 1 1-2 2-7 2c-2 0-5-1-7-3l-2-7c0-3 1-6 3-8 1-2 4-3 6-3 3 0 5 1 7 3a13 13 0 0 1 1 5h-14m0-1h8l2-1-1-3-4-2-3 2-2 4m119-3c2-3 5-4 7-4s5 1 6 3l2 7v8l2 2h1v1h-1l-3-1-3 1h-2v-1h1v-1l1-1v-9l-1-5-5-2-3 1-2 3v11c0 2 1 3 4 3s0 1 0 1h-1l-3-1a52 52 0 0 0-5 1l-1-1h1l1-1 1-2v-11l-1-3h-3v-1h1l3-1 1-1a127 127 0 0 1 2-1v5m33 6v-3l-1-4-4-2c-2 0-3 1-3 3v3h-2l-1-1 1-4 6-2 5 1c2 1 2 3 2 5v9l1 3 2 1h1v1h-1l-2 1-4-3-6 3-4-1-1-3 2-5 9-2m0 1-6 1-2 4 1 3 3 1 3-2 1-2v-5m14-8 3 3-3 3-2-1-2-2 1-1 2-1 1-1m-1 12c1 0 2 0 3 2l1 3-3 6-3 2v-1l2-2 1-2c0-2-1-3-3-4l-1-1 3-3m94-29v29l1 3 3 2h1l-1 1h-1l-1-1h-3a29 29 0 0 0-4 1l-1-1h1l2-1v-29l-2-2h-1l-1-1h1l2-1h1l2-1 1-1v2m11-2 2 2 1 4-2 5c-1 2-2 2-3 2h-1l2-2 1-3-2-4-1-1 3-3m20 26v-3l-1-4-4-2c-2 0-3 1-3 3v3h-3v-1l1-4 6-2 5 1 2 5v9l1 3 1 1h2v1h-1l-2 1c-2 0-3-1-4-3-2 2-5 3-7 3l-3-1-2-3c0-2 1-4 3-5l9-2m0 1-6 1c-2 1-2 3-2 4l1 3 2 1 4-2 1-2v-5m26-8 6-3 4 1 3 3c1-3 4-4 6-4l5 2c2 2 2 3 2 6v8l1 3 2 1h1l-1 1-3-1a42 42 0 0 0-5 1v-1l2-1v-10l-1-5-4-2-4 1-1 2v11l1 3 2 1h1l-1 1h-1l-2-1a41 41 0 0 0-5 1v-1l2-1v-12l-2-4-3-1-4 1-1 3v10l1 3 2 1h1l-1 1a59 59 0 0 1-3-1h-2l-1 1a10 10 0 0 0-2 0l-1-1h1l1-1 1-2v-11l-1-3h-3v-1h1l6-3v4m43-3c3 0 6 1 8 3s3 5 3 7c0 4-1 6-3 8s-5 3-8 3-6-1-8-3-3-4-3-7 1-6 3-8c3-2 5-3 8-3m0 1-5 2-2 6 2 8c1 2 4 3 6 3l5-2 1-6c0-3 0-6-2-8-1-2-3-3-5-3m21 3c2-3 4-4 5-4l2 1 1 1v2l-1 1-4-2-2 1-1 3v9l1 3 1 1h3l-1 1h-6a20 20 0 0 0-3 0l-1-1h1l1-1 1-3v-10c0-2-1-3-3-3h-1v-1l6-2h1v4m13 4v1l2 7 6 3 6-3 1 1-2 2-7 2c-2 0-5-1-6-3-2-2-3-4-3-7s1-6 3-8c1-2 4-3 6-3 3 0 5 1 7 3l1 3v2h-14m0-1h9l1-1-1-3-4-2-3 2-2 4m61 1v1c0 3 1 5 3 7 1 2 3 3 5 3l6-3 1 1-2 2-7 2-6-3c-2-2-3-4-3-7s1-6 3-8l6-3c3 0 5 1 7 3a12 12 0 0 1 2 5h-15m0-1h9l2-1-2-3-4-2-3 2-2 4m6-11-4-3v-1l1-1h2v1l1 1a127 127 0 0 0 2 4h-1l-1-1m41 21c-1 3-4 4-6 4l-6-2-2-6v-11l-2-1h-1l2-1h2a13 13 0 0 0 2 0l1 1v15l2 2 3 1 4-1 1-3v-13l-2-1h-1l1-1h5v-1l1 1v19h3v1h-3a12 12 0 0 0-3 1v-3l-1-1m17-13c2-3 4-4 6-4 3 0 5 1 7 3l1 7v8l2 2h2l-1 1h-1l-3-1-2 1h-2v-1l2-2v-9l-2-5-4-2-4 1-1 3v11c0 2 1 3 3 3h1l-1 1h-1l-2-1a52 52 0 0 0-6 1v-1l2-1v-16h-3v-1l3-1 2-1a62 62 0 0 1 1-1l1 1v4m33 6v-3l-2-4-3-2c-3 0-4 1-4 3l1 2v1h-3l-1-1 2-4 6-2 5 1 2 5v12l2 1h1l1 1h-1l-3 1-3-3-7 3-3-1-2-3c0-2 1-4 3-5s4-2 9-2m0 1-6 1c-2 1-2 3-2 4l1 3 2 1 4-2 1-2v-5m84-11 4 1 2 1v2l-1 2v-1l-3-2-4-2-3 3-2 5 2 7 6 3 5-2 1-1v1l-1 1c-2 2-4 3-7 3s-5-1-7-3-2-4-2-7 1-6 3-8 4-3 7-3m21 10v-3l-1-4-4-2c-2 0-3 1-3 3v2l1 1h-3l-1-1 2-4 6-2 5 1 2 5v12l2 1h1l1 1h-2l-2 1-3-3-7 3-4-1-1-3c0-2 1-4 3-5l8-2m0 1-6 1-2 4 1 3 3 1 3-2 1-2v-5m156-8v12l1 3 3 1h2l2-1-2 2-3 1c-4 0-6-2-6-6v-12h-3l1-1 4-5 1-1v5h6l1-1h1v1l-2 2h-6m13 5v1l2 7 6 3 6-3v1l-1 2-7 2c-3 0-5-1-7-3s-2-4-2-7l2-8c2-2 4-3 7-3s5 1 6 3l2 3v2h-14m0-1h8l2-1-1-3-4-2-3 2-2 4m187-3c2-3 4-4 6-4 3 0 5 1 7 3l1 7v8l2 2h2l-1 1h-1l-3-1-2 1h-2v-1l2-2v-9l-2-5-4-2-4 1-1 3v11c0 2 1 3 3 3h1l-1 1h-1l-2-1a52 52 0 0 0-6 1v-1l2-1v-16h-3v-1l3-1 2-1h1v-1l1 1v4m33 6v-3l-2-4-3-2c-2 0-4 1-4 3l1 2v1h-3l-1-1 2-4 6-2 5 1 2 5v12l2 1h1l1 1h-1l-3 1-3-3-7 3-3-1-2-3c0-2 1-4 3-5s4-2 9-2m0 1-6 1c-2 1-2 3-2 4l1 3 2 1 4-2 1-2v-5m13 4 2 2 1 3-2 6-3 2v-1l2-2v-2l-2-4-1-1v-1l2-1v-1h1m128-25v7l-1-1c-3-5-7-8-12-8-4 0-8 1-10 4s-4 6-4 10c0 5 2 9 4 13s6 5 11 5l7-2c3-1 4-3 5-5l1-1v1l-1 3-1 2-12 3c-6 0-10-1-13-5-3-3-5-7-5-12s2-9 5-12c4-4 8-5 13-5 3 0 6 0 9 2h1l1 1v-1h1l1 1m11 14c2-3 5-4 7-4l6 2c2 1 2 4 2 7v10l3 1h1l-1 1h-1a45 45 0 0 0-7 0l-1-1h1l1-1v-10l-1-5-4-2-4 1-2 3v10l1 3 3 1v1h-2a54 54 0 0 0-7 0h-1l1-1 2-1v-28c0-2-1-3-2-3h-1v-1l3-1 2-1h1v19m24 4v1c0 3 1 5 3 7 1 2 3 3 5 3l6-3h1v1l-2 2-7 2-6-3c-2-2-3-4-3-7s1-6 3-8l6-3c3 0 5 1 7 3a13 13 0 0 1 2 5h-15m1-1h8l2-1-2-3-4-2-3 2-1 4M178 850c3-3 5-4 7-4 3 0 5 1 6 3l2 7v8l2 2h2l-1 1h-8l-1-1h2l1-2v-9l-2-5-4-2-4 1-2 3v10l1 1c0 2 1 3 3 3h1l-1 1h-3a49 49 0 0 0-6 0v-1l2-1v-16h-3l-1-1h1l3-1 2-1h1s1 0 0 0v4m33-4c3 0 5 1 7 3s3 5 3 7c0 4-1 6-3 8s-4 3-8 3c-3 0-5-1-7-3s-3-4-3-7 1-6 3-8 5-3 8-3m-1 1-5 2-2 6c0 3 1 6 3 8 1 2 3 3 5 3l5-2 2-6-2-8-6-3m21 3c3-3 5-4 7-4 3 0 5 1 6 3l2 7v8l2 2h2l-1 1h-8l-1-1h2l1-2v-9l-2-5-4-2-4 1-2 3v10l1 1c0 2 1 3 3 3h1l-1 1h-3a49 49 0 0 0-6 0v-1l2-1v-16h-3l-1-1h1l3-1 2-1h1s1 0 0 0v4m99-4 3 1h1l1 1v4l-1-1c-1-3-2-4-5-4l-2 1-1 2 1 2 4 2 4 3 1 3c0 2 0 4-2 5-1 2-3 2-5 2l-4-1h-1l-1-1v-5l1-1v1l2 4 4 2 3-1 1-3-3-4h-2l-4-3-2-3 2-4 5-2m15-10 2 1v3l-2 1-2-2 1-2 1-1m2 27v2l2 1h2l-1 1h-8l-1-1h1l1-1 1-2v-11l-1-3h-1l-1-1h1l3-2h2v17m65-17 3 1h2v5l-1-1c-1-3-2-4-5-4l-2 1-1 2 1 2 4 2 4 3 1 3c0 2 0 4-2 5l-4 2-5-1h-1l-1-1v-5h1l2 4 4 2 3-1 1-3-3-4h-2l-4-3-1-3 1-4 5-2m17 4c2-3 4-4 7-4l6 3c2 2 2 4 2 7s-1 6-3 8-4 3-7 3l-5-1v8l3 1 1 1h-10v-1l2-1v-25h-3v-1a15 15 0 0 0 6-3l1 1v4m0 2v9l1 3 5 2 5-2 2-6c0-3-1-5-3-7-1-2-3-3-5-3l-4 1-1 3m23 2v1c0 3 0 5 2 7s3 3 6 3l5-3h1v1l-2 2-6 2c-3 0-5-1-7-3s-3-4-3-7 1-6 3-8 4-3 7-3c2 0 5 1 6 3a13 13 0 0 1 2 5h-14m0-1h8l2-1-2-3-3-2-4 2-1 4m28-3h-8l-1 2-1 1v-4l1-2h12v1l-10 15h5c2 0 4 0 4-2l1-1 1 1-1 1-1 2v2l-1 1h-11l-1-1h1v-1l10-15m154 0h-8l-1 2-1 1-1-1 1-1v-2l1-2h12v1l-10 15h5c2 0 4 0 4-2l1-1 1 1-1 1-1 2v2l-1 1h-11l-1-1h1v-1l10-15m18 6v-3l-1-4-4-2c-2 0-3 1-3 3v3h-2l-1-1 1-4 6-2 5 2c2 1 2 2 2 4v9l1 3 2 1h1v1l-1 1h-2c-2 0-3-1-4-3l-6 3-4-1-1-3c0-2 0-4 2-5l9-2m0 1-6 1-2 4 1 3 2 1 4-2 1-2v-5m15-24 1 1-1 4v7a318 318 0 0 1-2 8 124 124 0 0 0-1-14 77 77 0 0 0 0-5l3-1m-1 28 3 3-3 3-1-1-2-1-1-1 1-1 2-1 1-1m265-28h5l1 1h2v-1l1 2v6l-5-5-6-2-4 2-2 4 1 3 3 2 5 2c6 2 9 5 9 10 0 3-1 5-3 7s-5 3-8 3a18 18 0 0 1-8-2s-1-1-1-2v-2l-1-3v-1l1 1 4 5c2 2 4 2 6 2s4 0 6-2l2-4-2-5-6-3c-4-1-7-2-8-4-2-1-2-3-2-6l3-6c2-2 4-2 7-2m18 21v1c0 3 0 5 2 7 1 2 3 3 6 3l5-3h1v1l-2 2-6 2c-3 0-5-1-7-3s-3-4-3-7 1-6 3-8 4-3 7-3l6 3a13 13 0 0 1 2 5h-14m0-1h8l2-1-2-3-3-2-4 2-1 4m96-7 4 1h1l1 1v3l-1 1v-1c-1-3-3-4-5-4l-3 1-1 2 1 2 4 2 5 3 1 3-2 5-5 2-4-1h-2v-2l-1-3 1-1h1l2 4 3 2 3-1 1-3-2-4h-3l-4-3-1-3 2-4 4-2m16-10 2 2-1 2-1 1-2-1v-1l1-2 1-1m1 27 1 2 1 1h2v1h-9v-1h1l1-1v-16h-2l-1-1h1l4-2h1v17m61-17 3 1h1l1 1v4l-1-1c-1-3-2-4-5-4l-2 1-1 2 1 2 4 2 4 3 1 3c0 2 0 4-2 5-1 2-3 2-4 2l-5-1h-1l-1-1v-5h1c1 0 0 0 0 0l2 4 4 2 3-1 1-3-3-4h-2l-4-3-1-3 1-4 5-2m17 4c2-3 4-4 7-4l6 3 2 7c0 3-1 6-3 8s-4 3-7 3l-5-1v8l3 1 1 1h-10v-1l2-1v-25h-3v-1a15 15 0 0 0 6-3l1 1v4m0 2v9l1 3 5 2 5-2 2-6c0-3-1-5-3-7-1-2-3-3-5-3l-4 1-1 3m23 2v1c0 3 0 5 2 7s3 3 6 3l5-3h1v1l-2 2-6 2c-3 0-5-1-7-3s-3-4-3-7 1-6 3-8 4-3 7-3c2 0 5 1 6 3a13 13 0 0 1 2 5h-14m0-1h8l2-1-2-3-3-2-4 2-1 4m28-3h-8l-1 2-1 1v-4l1-2h12v1l-10 15h5c2 0 4 0 4-2l1-1 1 1-1 1-1 2v2l-1 1h-11l-1-1h1v-1l10-15m17 0h-8l-1 2-1 1v-4l1-2h12v1l-10 15h5c2 0 4 0 4-2l1-1 1 1-1 1-1 2v2l-1 1h-11l-1-1h1v-1l10-15m10-20 2 2 1 4c0 2 0 3-2 5-1 2-2 2-3 2l2-2v-3c0-1 0-3-2-4l-1-1h1l2-2v-1m50 16c3 0 5 1 7 3s3 5 3 7c0 4-1 6-3 8s-4 3-7 3c-4 0-6-1-8-3s-3-4-3-7 1-6 3-8 5-3 8-3m-1 1-5 2-2 6c0 3 1 6 3 8 1 2 3 3 6 3l4-2 2-6-2-8-6-3m20-11 2 2-1 2-1 1-2-2 1-2 1-1m2 27v2l2 1h2l-1 1h-8l-1-1h1l1-1v-16h-2l-1-1h2l3-2h2v17m164-31v32l3 2h1v1h-1l-1-1-2 1h-1a26 26 0 0 0-4 0l-1-1h1l1-1 1-2v-27l-2-2h-2v-1h1l1-1h2l2-1 1-1v2m14 31v2l2 1h1s1 0 0 0v1h-8l-1-1h1l1-1v-16h-2l-1-1h1l4-2h2v17m-3-21-3-3h-1v-1l1-1h2l1 1v1l2 4h-1l-1-1m86 4c3 0 5 1 7 3l4 7c0 4-1 6-4 8-2 2-4 3-7 3s-6-1-8-3-3-4-3-7 1-6 3-8 5-3 8-3m-1 1-5 2-2 6c0 3 1 6 3 8 1 2 3 3 6 3l4-2c2-2 2-4 2-6l-2-8c-2-2-3-3-6-3m20-11 2 2-1 2-1 1-2-2 1-2 1-1m2 27v2l2 1h2l-1 1h-8l-1-1h1l1-1v-16h-2l-1-1h2l3-2h2v17m75-31v32l3 2h1v1h-5a26 26 0 0 0-4 0l-1-1h1l1-1 1-2v-27l-2-2h-2v-1h1l1-1h2l2-1 1-1v2m18 24v-3l-1-4-4-2c-2 0-3 1-3 3l1 2v1h-3l-1-1 2-4 6-2 5 2 2 4v12l2 1h1l1 1-2 1h-2l-3-3-7 3-4-1-1-3c0-2 1-4 3-5l8-2m0 1-6 1-2 4 1 3 3 1 3-2 1-2v-5m-3-15-3-3h-1v-1l1-1h2l1 1v1l2 4h-1l-1-1m18-9 1 1v11l-1 4v4l-1 3v-3l-1-4a321 321 0 0 1-1-15l3-1m-1 28 3 3v1l-2 1v1h-1l-3-3 3-3M253 1129l4 1h3l1 1v3l1 2v1l-1 1-1-1c0-2-1-4-3-5l-6-1-5 1-1 4 1 3 2 2 6 2c6 2 9 6 9 10 0 3-1 6-3 8-3 2-5 3-9 3a18 18 0 0 1-7-2l-1-1v-2a163 163 0 0 0-2-5l1-1 1 2c0 2 1 3 3 5l6 2 6-2c2-2 2-3 2-5s0-3-2-5l-6-2-8-4-2-6c0-3 1-5 3-7l8-2m17 22 2 7 6 3 6-2-1 2c-2 2-5 3-7 3-3 0-5-1-7-4l-2-7 2-7c1-2 4-4 7-4s5 2 6 4a13 13 0 0 1 2 4l-1 1h-13m0-2h10l-1-4-4-2-3 2-2 4m76-7 3 1h1l1 1v3l-1 1v-1c-1-2-3-3-5-3h-3l-1 3 1 2 4 2 5 2 1 4-2 5-5 2-4-2h-2v-6l1 1 2 4 3 1 3-1 1-2-2-4-3-1-4-3-1-3 2-4 5-2m15-10 2 2v1l-2 2-2-2 1-2 1-1m1 27 1 2 1 1h2v1h-9v-1h1l1-1v-15l-2-1h-1l1-1 4-2h1v17m50-17 3 1h1l1 1v3l-1 1v-1c-1-2-3-3-5-3h-3l-1 3 1 2 4 2 5 2 1 4-2 5-5 2-4-2h-2v-6l1 1 2 4 3 1 3-1 1-2-2-4-3-1-4-3-1-3 2-4 5-2m16 4 7-4c3 0 5 1 6 3 2 2 3 4 3 7s-1 6-3 8l-7 4-6-2v5l1 4h3l1 1h-11l2-2 1-2v-20l-1-2-2-1h-1l1-1a15 15 0 0 0 6-2v4m0 3v8l2 4 4 1 5-2 2-6-2-7-6-2-3 1-2 3m23 2 2 7 6 3 6-2h1l-2 2c-2 2-4 3-7 3-2 0-5-1-6-4-2-2-3-4-3-7s1-5 3-7c1-3 4-4 6-4 3 0 5 2 7 4l1 2v2l-1 1h-13m0-2h10l-1-4-4-2-3 2-2 4m28-3h-6l-1 1-2 1-1 1v-2l1-2v-2h12l1 1h-1l-10 16h6l4-2 1-2v2l-1 2v2l-2 1h-10l-1-1v-1l10-15m48 0h-6l-2 1-2 2v-4l1-2h11l1 1-10 16h5l4-2 1-2 1 1-1 1v2l-1 2-1 1h-11l-1-1h1v-1l10-15m18 6v-3l-1-4-4-1c-2 0-3 1-3 3v3l-2-1-1-1 1-3 6-3c3 0 4 1 5 2 2 1 2 2 2 4v10l1 3 2 1h1l-1 1h-2c-1 0-3 0-4-2l-6 3-4-2-1-3 2-4 9-3m0 1-6 2-2 3 1 3 3 1 3-1 1-3v-5m13 4 3 2 1 4c0 2-1 3-3 5-1 2-2 2-3 2l2-2 1-3-3-4-1-1h1l2-2v-1m90-9 4-2 3-1c3 0 5 1 6 3l3 7c0 3-1 6-3 8s-4 3-7 3-5 0-7-2l-2 2h-1v-32l-1-1h-2v-1l6-2h1v18m0 3v10l3 3 3 1c3 0 4-1 5-2l2-6-2-7-6-3-4 2-1 2m36 12c-2 2-4 3-7 3-2 0-4 0-5-2l-2-6v-9l-1-2-2-1 1-1h2a14 14 0 0 0 2 0l1 1v15l2 3 3 1 4-2 2-3v-11l-1-2-1-1h-1l1-1h5v16l1 3h2l1 1h-2l-1 1a13 13 0 0 0-3 0l-1-2v-1m20-18c3 0 6 1 8 3s3 5 3 8-1 5-3 7-5 3-8 3-6-1-8-3-3-4-3-7 1-6 3-8 5-3 8-3m0 1-5 2c-2 2-2 4-2 6l2 8 6 3c2 0 4 0 5-2l1-6c0-3 0-6-2-8-1-2-3-3-5-3m21 3c2-3 4-4 7-4l6 3 2 7v6l-1 1 1 1c0 1 0 2 2 2h1v1h-9v-1h1l1-2v-9l-1-5-5-2-3 2-2 2v12c0 1 1 2 3 2h1v1h-4a49 49 0 0 0-5 0l-1-1h1l1-1 1-2v-11l-1-3h-3v-1h1l3-1 1-1a49 49 0 0 1 2 0v4m33 6v-3l-1-4-4-1c-2 0-3 1-3 2v3h-2l-1-1 1-3 6-3 5 2c2 1 2 2 2 4v9l1 4 2 1 1-1v1l-1 1h-2l-4-2-6 2-4-1-1-3c0-2 0-4 2-5l9-2m0 1-6 2-2 3 1 3 3 1 3-2 1-2v-5m79-11 3 1h2v5l-1-1c-1-2-2-4-5-4l-2 1-1 2 1 3 8 4 1 4c0 1 0 3-2 4-1 2-3 2-4 2l-5-1h-1l-1-1v-5h1l2 5 4 1 3-1 1-3c0-1-1-3-3-3l-2-1-4-3-1-3c0-2 0-3 2-4l4-2m14 9 2 7c2 2 3 3 6 3l5-2 1-1v1l-2 2c-2 2-4 2-6 2-3 0-5-1-7-3s-3-4-3-7 1-5 3-8 4-3 7-3c2 0 5 1 6 4l2 4-2 1h-12m0-2h8l2-1c0-1 0-2-2-3l-3-2-4 2-1 4m24-2 5-5 2 1 2 2-2 2-1-1h-2l-3 1-1 2v9l1 3 2 1h1l1 1h-11l2-2 1-3v-10c0-2-1-3-3-3h-1v-1h1l5-2h1v5m22 5v-3l-1-4-4-1c-2 0-3 1-3 2v3h-2l-1-1 1-3 6-3 5 2c2 1 2 2 2 4v9l1 4 2 1 1-1v1l-1 1h-2l-4-2-6 2-4-1-1-3 2-5 9-2m0 1-6 2-2 3 1 3 3 1 3-2 1-2v-5m15-24 1 1v5l-1 6a329 329 0 0 1-2 9 123 123 0 0 0-1-15 76 76 0 0 0 0-5l3-1m-1 28 3 3-3 3-1-1-2-1v-2l2-1 1-1m135-18v24h-1l-1-1-21-23v-1l-1 1v20l1 2 3 1h1l-1 1h-6a13 13 0 0 0-3 0l-1-1h1l3-2v-21l-1-6c-1-2-2-3-4-3l-1-1h5l2 1 22 25 1 1v-22l-1-3-4-1h-1l1-1h1a48 48 0 0 0 8 0l1 1h-1l-2 1v8m17 3c3 0 6 1 8 3s3 5 3 8-1 5-3 7-5 3-8 3-5-1-7-3-3-4-3-7 1-6 3-8 4-3 7-3m0 1-5 2-2 6 2 8 6 3c2 0 4 0 5-2l2-6c0-3-1-6-3-8s-3-3-5-3m22 3c2-3 4-4 7-4l6 3 1 7v8l2 2h2l-1 1h-8v-1h1l1-2v-9l-2-5-4-2-4 2-1 2v12c0 1 1 2 3 2h1l-1 1h-3a49 49 0 0 0-6 0v-1l2-1v-16h-3v-1l4-1 1-1a79 79 0 0 1 1 0h1v4m82-4 3 1h2v5l-1-1c-1-2-2-4-5-4l-2 1-1 2 1 3 8 4 1 4c0 1 0 3-2 4-1 2-3 2-4 2l-5-1h-1l-1-1v-5h1l2 5 4 1 3-1 1-3c0-1-1-3-3-3l-2-1-4-3-1-3 1-4 5-2m16-10 1 1v1l1 1-1 1-2 1-2-2 1-2 2-1m1 27v2l2 1h1l1 1h-10l2-2 1-2v-11l-1-2-1-1h-1l1-1 3-2h2v17m32-13c2-3 4-4 7-4l6 3c2 2 2 4 2 7s-1 6-3 8-4 3-7 3l-5-1v8l3 1 1 1h-10v-1l2-1v-25h-3v-1a15 15 0 0 0 6-3l1 1v4m0 2v9l1 4 5 1 5-2 2-6-2-7-6-3-4 2-1 2m36 12c-2 2-4 3-7 3-2 0-4 0-5-2-2-1-2-3-2-6v-9l-1-2-2-1 1-1h2a13 13 0 0 0 3 0v13l2 6 3 1 4-2c1-1 2-1 2-3v-13l-2-1h-1l1-1h5v16l1 3h2l1 1h-2l-1 1a13 13 0 0 0-3 0l-1-2v-1m20-18c3 0 6 1 8 3s3 5 3 8-1 5-3 7-5 3-8 3-6-1-8-3l-2-7c0-3 1-6 3-8s4-3 7-3m0 1-5 2-2 6 2 8 6 3c2 0 4 0 5-2l2-6c0-3-1-6-3-8-1-2-3-3-5-3m-1-5-3-3v-1l1-1h2v1l1 1 2 4h-1l-2-1m69 9c2-3 4-5 6-5l2 1 1 2-2 2-1-1h-2l-3 1-1 2v9l1 3 2 1h1l1 1h-10v-1l2-1v-13c0-2-1-3-3-3h-1v-1h1l5-2h1v5m22 5v-3l-1-4-4-1c-2 0-3 0-3 2v2l1 1h-3l-1-1 2-3c1-2 3-3 6-3l5 2 2 4v13l2 1h1v-1l1 1-2 1h-2l-3-2-7 2-4-1-1-3c0-2 1-4 3-5l8-2m0 1-6 2-2 3 1 3 3 1 3-2 1-2v-5m20-11 4 1 2 1v2l-1 2v-1l-3-2-4-1c-1 0-2 0-3 2l-2 5 2 7 6 3 5-2h1l-1 2-7 2c-3 0-5-1-7-3l-2-7c0-3 1-5 3-8 2-2 4-3 7-3m80 0h4l2 2v2l-1 2v-1l-3-3-4-1-4 3-1 5 2 7c1 2 4 3 6 3l5-2 1-1v1l-1 1c-2 2-4 3-7 3s-5-1-7-3l-2-7c0-3 1-6 3-8s4-3 7-3m21 0c2 0 5 1 7 3s3 5 3 7c0 3-1 6-3 8s-5 3-8 3-5-1-7-3-3-4-3-7 1-6 3-8 5-3 8-3m-1 1-5 2-2 6 2 8 6 3 5-2 2-6-2-8-6-3m21 2c2-2 4-3 7-3l3 1 3 3c2-3 4-4 7-4l5 2 2 6v11l3 1v1h-1l-2-1a40 40 0 0 0-5 1l-1-1h1l1-1v-10l-1-5c-1-2-2-2-4-2l-3 1-2 2v11l1 3 2 1h1v1h-1l-3-1a43 43 0 0 0-5 1v-1l2-1v-12l-1-4-4-1-3 1-2 3v10l1 3 2 1h1v1l-2-1h-5a10 10 0 0 0-2 1v-1l2-1v-16h-3v-1l5-2 1-1v4m60 0c2-2 4-3 7-3l3 1 3 3c2-3 4-4 7-4l5 2 2 6v11l3 1v1h-1l-2-1a40 40 0 0 0-5 1l-1-1 2-1v-10l-1-5-4-2-3 1-2 2v11l1 3 2 1h1v1h-1l-3-1a43 43 0 0 0-5 1v-1l2-1v-12l-1-4-4-1-3 1-2 3v10l1 3 2 1h1v1l-2-1h-5a10 10 0 0 0-2 1v-1l2-1v-16h-3v-1l5-2 1-1v4m44-3c2 0 5 1 7 3s3 5 3 7c0 3-1 6-3 8s-5 3-8 3-5-1-7-3-3-4-3-7 1-6 3-8 4-3 8-3m-1 1-5 2-2 6 2 8 6 3 5-2 2-6-2-8c-1-2-4-3-6-3m31 16-4 3-4 1-6-3c-2-2-2-4-2-7s1-6 3-8 4-3 7-3c2 0 4 0 6 2v-10c0-3-1-5-3-4h-1v-1h1l5-3h1v32c0 2 1 3 2 3h2l-1 1h-3a8 8 0 0 0-3 1v-4m0-3v-8l-1-3-6-2-5 2-2 6c0 3 1 5 3 7 1 2 3 3 5 3l4-1 2-4m21-4v-3l-1-4-4-2c-2 0-3 1-3 3v2l1 1h-3l-1-1 2-4 5-2 6 1 1 5v9l1 3 2 1h1l-1 1-2 1-4-3-6 3-4-1-1-4 2-4 9-2m0 1-6 1-2 4 1 3h3l3-1 1-3v-4m16-7c2-3 4-4 6-4l2 1 1 1-1 2-1 1-1-1-2-1-3 1-1 3v9l1 3 2 1h2l-1 1h-9v-1l2-1v-13c0-2-1-3-3-3h-1v-1h1l5-2 1-1v5m13 11 3 3-2 2v1h-1l-3-3 3-3M157 1440v1c-3 2-4 5-6 9a47 47 0 0 0-1 23l2 6 1 1h-1l-2-2a36 36 0 0 1-4-17l1-9 6-9 4-3m18 5-3 24v2l2 2 2 1-1 1-1-1a31 31 0 0 0-6 0h-1l-1 1-1-1 1-1 2-1v-2l4-25v-1h-7c-3 0-5 1-5 3l-1 1-1-1 1-3 1-2v-1h3a175 175 0 0 0 24 0v6l-1 1v-1l-1-3h-9l-1 1m17 14c3-3 5-5 7-5l3 2 1 3v2l-1 6v2l1 3 3-3h1l-1 3-4 3c-2 0-3-2-3-5v-2l1-7v-1c0-2-1-3-2-3-2 0-3 0-4 2-1 1-2 2-2 5l-2 9v1l-1 1-2-1v-1l4-30v-1l-1-1h-2l1-1a29 29 0 0 0 5 0v1l-2 18m19 5 1-6v-1l-1-1h-2l1-1h6l-2 7-1 8 1 1c1 0 2 0 2-2h1l-2 4-3 2-1-2v-9m4-19h1v1l1 1v1l-2 1v1l-1-1v-1l-1-1 2-2m11 16 4 4 1 4c0 1 0 3-2 4l-5 2-3-1-2-2 2-2 4 4 2-1 1-3-2-4-2-2-2-5 1-3 5-2c2 0 4 1 4 3l-2 1-1-1h-1l-2-1c-1 0-2 0-2 2l2 3m23 7 3-25v-1l-1-1h-2l1-1a29 29 0 0 0 5 0v1l-3 28v1l1 2 4-4v2l-4 4-2 1-2-4v-3m22 1c-3 4-6 6-9 6l-3-2-1-3 2-6c0-3 2-4 3-6 2-2 4-3 7-3h3l2-1 1-1v2l-1 3a73 73 0 0 0-1 10l1 3h1l1-2 1-1v1l-1 3-4 3-1-2-1-4m-1-13c-2 0-4 1-5 3l-3 4-1 6c0 2 1 3 4 3l4-2 2-5 1-2v-2a81 81 0 0 1 1-4l-1-1h-2m17 5 4 4 1 4c0 1 0 3-2 4l-5 2-3-1-2-2 2-2 4 4 2-1 1-3-2-4-2-2-2-5 1-3 5-2c2 0 4 1 4 3l-2 1-1-1h-1l-2-1c-1 0-2 0-2 2l2 3m15-3-1 9v4l2 1 3-2 1-1v1l-2 3-4 2-2-2-1-3v-3l1-9a18 18 0 0 1 0-1l-1-1h-2l1-1 5-4v-1l1 1v1l-1 1v1l1 1h5l-2 1h-3l-1 1v1m10 11 2 1 1 4-3 6-2 2h-1l1-2c2-1 2-2 2-4l-1-3h-1v-1l1-1a68 68 0 0 0 1-2m31-15c2 0 4 1 5 3 2 1 2 3 2 5l-2 9c-2 3-5 4-7 4s-4-1-5-3c-2-1-2-3-2-6l1-5 3-4c1-2 3-3 5-3m0 2-4 3c-2 2-2 4-2 8s1 6 4 6c2 0 3-1 4-3 2-2 2-5 2-8 0-4-1-6-4-6m17 3 4-3 4-1 2 1 1 4v4l-1 6 1 2 3-3 1 1-2 3-4 2c-1 0-2-1-2-4l1-2v-11l-2-1c-2 0-3 0-4 2l-2 7-1 7v1l-2 1-1-1v-1l1-6a144 144 0 0 1 1-7l-1-2h-1l-1 2-1 1v-1l1-4 3-1 1 1 1 2v1m19 6v1l2 5 4 1 5-1v-1h1l-2 3-6 2-5-2-2-5c0-4 1-7 4-9 2-3 4-5 7-5l3 1 1 3c0 2-1 4-4 5l-8 2m0-1 7-2 2-4c0-2-1-2-2-2-2 0-3 0-4 2l-3 6m42 2-3 5c-2 3-4 4-5 4l-2-2-1-4v-2l-3-1-1-3 2-6c1-2 2-2 4-2 1 0 2 1 2 4l-1 2v9l2 2 2-2 2-3 3-9v-2l1-1 2 1-1 2v12l2 2 2-1 2-3 3-8-1-3v-2h1l1 2-1 8c-1 3-3 6-5 7l-4 3c-1 0-2-1-2-3l-1-6m-11-8-1 2-1 3v2l1 1 1-1 1-2v-3l-1-2m32 1c3-3 5-5 7-5l3 2 1 3v2l-1 6v2l1 3 3-3h1l-1 3-4 3c-2 0-3-2-3-5v-2l1-7v-1c0-2-1-3-2-3-2 0-3 0-4 2-1 1-2 2-2 5l-2 9v1l-1 1-2-1v-1l4-30v-1l-1-1h-2l1-1a29 29 0 0 0 5 0v1l-2 18m19 5 1-6v-1l-1-1h-2l1-1h6l-2 7-1 8 1 1c1 0 2 0 2-2h1l-2 4-3 2-1-2v-9m4-19h1v1l1 1v1l-2 1v1l-1-1v-1l-1-1 2-2m11 16 4 4 1 4c0 1 0 3-2 4l-5 2-3-1-2-2 2-2 4 4 2-1 1-3-2-4-2-2-2-5 1-3 5-2c2 0 4 1 4 3l-2 1-1-1h-1l-2-1c-1 0-2 0-2 2l2 3m15-3-1 9v4l2 1 3-2 1-1v1l-2 3-4 2-2-2-1-3v-3l1-9a18 18 0 0 1 0-1l-1-1h-2l1-1 5-4v-1l1 1v1l-1 1v1l1 1h5l-2 1h-3l-1 1v1m9 10 3-25v-1l-1-1h-2l1-1a29 29 0 0 0 5 0v1l-3 28v1l1 2 4-4v2l-4 4-2 1-2-4v-3m12-3v1l2 5 4 1 5-1v-1h1l-2 3-6 2-5-2-2-5c0-4 1-7 4-9 2-3 4-5 7-5l3 1 1 3c0 2-1 4-4 5l-8 2m0-1 7-2 2-4c0-2-1-2-2-2-2 0-3 0-4 2l-3 6m20-3 4 4 1 4c0 1 0 3-2 4l-5 2-3-1-2-2 2-2 4 4 2-1 1-3-2-4-2-2-2-5 1-3 5-2c2 0 4 1 4 3l-2 1-1-1h-1l-2-1c-1 0-2 0-2 2l2 3m12 8 3 3h-1l-3 3v-1l-2-1v-1l3-3m11-29c1 0 2 0 3 2a36 36 0 0 1 4 17l-2 9-5 9-4 3h-1l1-1c2-2 4-5 5-9a47 47 0 0 0 2-23l-3-6v-1M924 217v4h19v-4zm195 0v4h20v-4zm369 0v4h20v-4zM444 528v4h20v-4zm134 0v4h20v-4zm672 0v4h20v-4zm187 0v4h20v-4zM544 851v4h19v-4zm816 0v4h19v-4zm237 0v4h20v-4zM490 1147v4h20v-4zm921 3v4h19v-4zM1027 47a5 5 0 1 0 10 0 5 5 0 0 0-10 0M239 382a5 5 0 1 0 10 0 5 5 0 0 0-10 0m1137 0a5 5 0 1 0 10 0 5 5 0 0 0-10 0M473 716a5 5 0 1 0 10 0 5 5 0 0 0-10 0"/>
</svg>
