<?xml version="1.0" encoding="utf-8"?>
<svg xmlns="http://www.w3.org/2000/svg" version="1.1" viewBox="0 0 729 1582">
	<title>Sketch of an ornate arch along the wall of a building. Within the arch is a balcony, and above it on the next story of the building is another balcony.</title>
	<path d="M258 1582v-26a480 480 0 0 0-3-68l-1-5 1-1 2-2-2-2-1-2 1-5 1-5-2-3-1-3v-13a308 308 0 0 0 2-20l1-1v-20l1-27v-7h1l1-1v-25l1-30v-4l-1-3-2-4 1-1 2-1v-2l-1 1h-1v-8l1-21 1-13 1-1 1-1-1-4-1-20 1-44 1-16-2-2-1-4v-2h3v-16l1-4 1-2-4-8-4-7v-7l-3-14a1117 1117 0 0 1-5-24h-3l1 2 2 1v3l-2 8-2 5-3 1-4 1c-1 0-2-1-2-3l-5-6-3-3 1-6a75 75 0 0 0 2-14h1l2 2-1-5v-5h1l1 2c0 3 2 5 2 3l2-2 5-4 3-3v-6l-3 1-1-2-1-2 1-4 5-14v-1l-1 1-2 5-4 8-4 8-1 3-1-3-1-2-1 3-2 3v11l-1-1-2-1 1-10 2-5 3-5 1-6 1-10 3-5h2l-1 4-3 9v6l2 2 1-4 5-12 4-11 2-4v-2l-2 2c-3 2-5 3-5 1l1-3 2-5 2-6 2-8 2-7 2-6c0-3-2-3-3 0l-2 5c0 1-8 17-10 18l-1 3-2 5-2 5c0 3 1 4 2 2l2-1c2 0 1 3-1 4l-2 2h-6l1-4-1-19v-4l-1 1-1 4-1 4c-2 1-2-4-1-10l1-5-1-1-1-2-3 1v7l-1 2 1 6 1 5h2l1-1v8l-2 19-1 11v20a33963 33963 0 0 0 3 40l1 3v5l-1 4-2 2-2 4c0 2-2 3-3 2l-1-3v-2l3-3c3-3 4-6 2-7l-1-1v2l-2 3c-2 2-4 3-4 1l2-2 2-2-1-2-2-5-1-3-2 1-1 1v11l-2 3-1 2-1 8v8h1l1-5c1-5 3-8 4-7l1 19 1 30v10l1-3v-50h3a1927 1927 0 0 1-3 207v10h-1l-1 1-1-2-1-48-1-49v-3h1l2 4 1 4h1v-3l-1-7v-5l-2 1h-2v-4c-1-4 0-15 2-21l1-4-1-13-1-30-1-18h-3l1 5 1 18 1 13-1 8a171 171 0 0 1-3 19 921 921 0 0 1 2 95v49h-3v-15l-2-2-1-2v-4l1-5 1-2v-7l-1-7-1-4v-3l-1 4-1 5h-3l-1-3 1-4 1-21v-20l-2-2-2-2-1-5-1-16v-12l1-10 1-10-2-35 1-5 1-5-1-10-1-9 1-3a219 219 0 0 0 3-32l1-1-2-1-1 1-2 1h-3l-5-6v2l1 2h-8l-1 3-3 3-2 1-3-2 2-1 3-2c0-3 4-5 9-7l4-1 5 2 5 2 4-9-1-2-1-2h-8l-11 1a467 467 0 0 0-36 6l3 4 2 3-1 1-1 1-3-2-4-2-4-2-2-3-2 1-9 2-7 1v2l1 1 3-1 3-2v1c1 0 0 2-2 3l-3 3-2-1-2-1v2l1 2-1 2-1 2 3-1 5-1h3l1-2 3-4 2-2h10l3 3 5 3 5-4 4-4h4l4 1-3-1-4-2-1-1v-2h14l3-1v1l-1 1-3 2-1 1 1 2 1 2-2 2-3 2-2-1v-1l-2 1-1 1-1-1-1-2c-1-1-2 0-4 2l-6 5-4 1-3-2-5-4-3-2c-3 0-7 3-7 5 1 1-2 5-4 5l-1 1v24l-1 1-2 1-3-2-1-3 2-3v-18h-7l-1-2-5-2-5-3-7-4-4-1-4-6 3-2 4-3 3 2 2 2 2-7h3l3-1 3-1 4-3 6-3 2-1v-2l2-2h3l2 1V882l-3-4v-8l-1-10c-1-1-1-3 1-10l2-12v-6l-1-4-1-7v-4l4-1v2l2 4 1 2-1 19v19h1l4-6 3-5v-7l1-11 4-6 3-3v-4l-1 1c-2 2-4 3-4 1l3-3 3-3h4l6-1 1-1 3 2 2-2 4-2h1v-6l1-6-2-3-2-3h-2c-2 2-7 1-9-1l-3-2v-3l1-6 2-3v1l1 3 1 2 1-3c1-3 5-6 7-5v2h-2v4l-1 4-3 1-2 2 2 1 1 1 6-4h1l4 5 1 4v16c1 1-1 8-2 10l-1 3c-1 4-8 13-8 12l2-6 4-11 2-6h-1l-4 4-4 5-6 2h-4l-1 2-2 13c-1 11-2 18-4 19l-2 3-3 13-2 12-4 1v182l1 13h12c3-2 9-3 14-4l6-1 2-1 1 3 1-2 5-1 10-3 6-1 4 3 1-1 3-6 2-7 1-2-3-2 1-3v-4h-2v-12h3v-17l1-4-2 1h-2l2-1 1-17-1-13-1-34v-33h2v-3l-1-16-2-29v-47l1-11h-1l-2 4-2 7-2 8a212 212 0 0 1-10 37l-4 2-4 1-2 1-5-2-4 2-10-1-1-2-1-2 6-13-1-2-1-3 4-12h2l1 1-2 4-1 4 1 5 1 9-1 4h1c1 0 4-4 6-9l5-10 3-5c2-2 3-7 4-10l3-17 2-11-1-2-1-4-1-9-1-6h-2l-2-2-5-5-2-3 1-1 3-2 3 4 1 3 3 1 5 2 3 8c1 7 1 19-1 26l-1 12v6l-3 9a457 457 0 0 1-10 25v1l2-1c4-1 7-4 7-7a1262 1262 0 0 1 14-50v-5l2-2 2-1 1 5v12l2-1-1-16-1-19-1-4v9c0 9-1 13-3 12v-25l2-3-1-6v-13l1-1 2-3 1-1 1 3 1 3 3-2 2-1v-6l-6 1-4-3-5-2-3 6c-1 3-2 5-3 4l5-12 2-4 3 3 5 4s2-1 2-3l2-4h-2l-3-1-2-1-3-2v-1l1-1 2-4 2-3 3 2 1 1 3-2v1l1 2 2-4c0-1-10-3-12-2-3 0-8-1-8-3l-1-1 6 1-1-5-2-4-2 2c-1 2-2 1-2-1v-3h-3l-3-1 2-2 2-1v-6h-2l-4 3-4 2 4-7 4-4 3-2 2-4 2-4 1 1-1 3v2h1l3-1 1-2-2-9h-2c-5 0-16 3-18 4l-2 1-2-1 3-2 7-4 4-1h-3l-4-1c-1-1-14-4-19-4h-3v-1c0-2 1-4 4-5l3-1v-4c-1-4-3-6-5-6l-1 6v5h-6l-1-2v-6l1-4-2-4h-3l-4 2-1 1h-6l-5-1c0-1 2-3 4-3l5 1h4v-2l2-4 2-2 2 3 4 6v3l1-4 3-4h1v6l6-1 4 3 1-3 1-3 2 3 1 2c2-1 3-5 4-14l1-6 1-8v-7l-4 1v-5l1-6 1 2c1 1 1-1 1-3v-5l-5-5v3l-2-1v-15l-7-2-1 2-1 2v-3c0-2-3-5-5-5h-1v4c0 4 4 12 6 12h1v4l3 14 2 9 1-3 1-5v-3l1 1h1v12a2640 2640 0 0 0-1 19l-1 1-1-2-2-4-2-4c1-1-2-10-4-12l-1-7c-1-5-3-12-5-12v21l3 13v7h-1l-2-1h-3l-4-1-2-1 2-2 1-2-2-8-4-12-1-5-2-2v5l2 10v15l-6 2-6 2-9 3-7 2-2 3c-3 2-5 3-5 1h-7l-6 2-4 1-1 3 2 2 2 4-1 1-6-3-5-3v-4l5-2 10-3 7-2 3-1-1-2a336 336 0 0 1-6-21c-2-1-4-5-5-7l-4-7-5-7-8-7-4-4v-2l1-2c2 0 9 5 13 11l4 5 2 3 9 15c3 3 5 8 7 19l2 4 16-4 7-2 5-2 1-3c0-5-4-18-9-29l-6-13-6-7-5-6h-3l-3-1 4-3 3-2 2 1 2 3 4 6 4 5-2-5-3-6-2-2 2-1h2v-14l-1-1-4-1-2-1v4l-1 7h-1v-11l-2-1-3-2h-2l1 20h-3v-4l-2-8-1-3 1-1 2-3-3-4-2-2v-8l2 1h3l1-3 3-4 16 7 3 1c1-1 3 3 3 4h-6v11h1l1-3 1-3c2 0 2 4 2 8l-1 2-4-1v4c0 3 0 4 1 3l1-2h1l-1 5v5l2 2v10l5 2 3 6 5 11 4 12 1 7 1-3c0-4-2-11-4-15l-5-14-3-5-2-3v-4l-1-3-1-1h-2l1-3 1-5 2-1-1-9 1-10v-1l1 4 1 15v11l1 2c1 3 3 4 3 2l1-2h1v9l1 1h1v-12l-4-5v-3l1-12v-8l-2-2-5-4-1-1-1-3v-2l-3-1-5-2-3-2c-3 0-6-2-6-3 0-2 3-2 10 1l10 4 17 6 15 6h2l-4-2a2985 2985 0 0 0-42-20l1-2-4-1-5-4-1-1h1l9 3 24 11 1 1 1-1v-2l-12-6c-2 0-4-2-4-3l2-1 1-1 5-11 6-12h2c1 0-1 7-6 15l-4 9v2l3 1 5 2 2 1c2 0 5-5 6-9l7-12 1 1-4 10-4 8v5l4 1 1-4 2-5 4-7 4-6v4l-8 19-1 2h3l10 5 8 3v2l1 2v-6h1c2 0 3-2 1-2l-2 1-1 1 1-9 3-8 6-3v-1l-1-3v-2l5-2 3-5 4-7 2-1v1l-2 5-2 3h1l6-2 4-1 1-4 4-5 1-1-1 4-2 3v2l5-2 7-3 1-2 2-2 1 1 1 1 8-3 8-3 5-2 4-1v-2c-1-1 2-8 9-17l3-5-2-1-4-1-3-1-2 1-3 6-4 8-6 9c-3 4-5 6-5 4l3-7 4-6c0-2-2-1-3 1l-4 7-6 7-1 1 1-4 2-5h-3c-2 1-6 8-9 13 0 2-1 3-2 3l-1-1 2-5 3-5-1-1-3 3-2 3-1-2 1-2-5 2-7 4-2 3-1-3-3 2-8 5-4 4-1 3-1 3c-1 1-10-4-34-16l-16-8c-4-2-7-4-7-6l2-1 2-3 1-1-3-1-2 2-2 4v2l-2 1-3-1-1-4c0-3 2-7 5-10l3-6 1-5 4-3 5-4 1-2 1-3 2-1 3 1 5 3 4 2 4 1 1 3 1 2h9l2-5c0-3 2-6 3-7s2-3 2-7l4-6 4-5v-1h5l6 7h2l5 2 6 4h3v-6l4-4-1-4v-4l3-2 3-4c0-2 3-6 6-6l2-1 6 5h3l4 1 5 2 4 1 1-1 1-2-1-6 2-4c2-2 3-5 3-7l2-6 2-3h2l5 1 3 1 2 5h6l2 3 3 2 4 3 2 4v-3l2-7 2-6 1-4 3-8v-4l3-3c2-2 6-3 8-1l1 4 1 3 6-1 1 1 2 3-1 1 9 1v-6l5-4v-6l3-5 4-5 2 1h1l-1 2-2 4v3l-2 1-2 1v4l1 3-1 2-3 1h-2v16l-1 1-2-1h-1l-6 11 4-2 4-1 2-5 3-5 2-5 3-8 3-7 2-2h2v2l-1 4-3 5-3 6-2 6-2 4h2l4-1 4-2 3-7c5-11 6-13 8-14h1v4l-3 6-2 4v3l3 1-1 2-4 3-3 1v2l-6 12-6 12c-1 2 2 1 9-2l7-5 8-18c0-2 7-15 9-16 2-2 4-2 4 0l-2 3-5 9-4 9-5 11 2-1c3-1 4 0 4 1l-2 1-6 3-3 3 3-1 13-7 4-3 1-4c2-5 5-11 8-11l1 1-4 9-4 9-3 5-5 8-5 10-4 6h2l6-2 5-4 5-10 8-15 3-6v-9l1-1 1-1 6 4v7l6 2v3l-9 1v3l-1 7v5h2l3-1 1-1-1-3v-3h2c2 0 2 1 2 4v2l5 1v2l-3 2-2 1v2l-2 4-1 4v2h2c4 0 8 2 8 4v1l-6 1v8h3l5 1 1 1-1 3-1 3h-4v4h3c4 0 6 2 5 3l-3 1-2 1 2 2 2 1 3-1h2v2l1 3 4 8 2 6 6 2 7 4 7 6c2 3 5 5 6 5l5 7 4 8 4 9 4 9 1 1 16-6 7-3h4v1l-2 2a133 133 0 0 0-29 12l-6 2h-1v-1l1-2 2-1v-3l1-4 1-1c0-3-6-14-10-17l-8-10-7-8-15-8c-4 0-6-2-4-3v-3l-3-1-1-2 2-3-6-1v-5l-3-2-3-2v-2l-2-2-1-1v-3l-1-3-6 2-14 5a419 419 0 0 0-40 16l-18 6a361 361 0 0 0-51 20l-14 5-1-2v-2l4-1 4-2 4-1 9-4 10-3 7-3 5-2a234 234 0 0 0 32-15 201 201 0 0 0 13-7 119 119 0 0 0-29 11 182 182 0 0 0-21 9l-10 4-4 2-5 2-36 15a212 212 0 0 0-34 14l-8 3-7 3c-1 0-2 1-2 3-2 2-5 3-5 1l-2-1-3-2-7-4-12-5-5-2-1 1c-2 1-1 4 2 4l19 8 4 3v1h-9l-3 3h1l5 2 4 1v2l1 2 2-3c0-2 1-3 2-3h1v9l2 2 3 2h2l-2-5 2-2 6 2 6-3 8-4 13-5c6-4 15-7 19-9 8-2 18-7 27-12l12-4 6-2a333 333 0 0 0 44-18 263 263 0 0 1 25-10 228 228 0 0 1 30-13l3-1c1-3 6-6 7-5h1l-5 4 5-1 2 1 1 3v2l-2 1h-3l-2 1c-2 2-11 5-47 20l-6 2-3 3-2 5c0 2-6 9-7 9-2 0-1-2 2-6l3-6v-1l-2 1c-2 0-3 1-5 3-4 5-7 8-7 10l-2 2c-2 0-1-2 1-4l2-3 1-3 1-1h-1l-4 1-3 1-1 6-3 13-2 10-1 2 1 2 2 3v6c0 8-2 21-4 26l-1 4 2 3 2 3-2 12-2 1-2 3v2l9-3a1437 1437 0 0 1 88-32l-2-2h-1v-3c0-4 2-8 3-8v4l1 6 1 3 9-1v1l1 1h-2l-6 1-12 4a1502 1502 0 0 0-143 53 350 350 0 0 0-46 17l-4-2-2-1 2-1 4-1c4 0 15-4 17-6l5-2 10-3 9-3 9-3a1636 1636 0 0 1 37-15l-2-1-3-1-1-2 6-14-1-4-1-8-1-4h-1c-2 0-5 3-5 4l-2 5-2 6-1 4-4 2c-2 2-4 3-5 2s-2 0-3 1l-1 1-1-1v-6l4 1 3 1-1-2v-3l2-3c0-2 2-4 3-4l1 1v1l1-1 4-6 4-6h8l1 2 1 2 2-2 2-2v21l-5-1v7l-2 1-2 3v2l2-1 2-1 1 2v2h3l4-1 1-1 2-5 2-4-1-5-1-5h-1l-2-1 1-5 2-3-1-8-1-8-3-3 1-3 1-6-1-3 2-1 1 2 2 2v-6l-3-1-2-1 1-2 1-7v-4l-2-4 3-4v-2l-1-2-4-1-6 8-2-1-1-2-2 1-8 3-8 3-4 1-1 2a159 159 0 0 1-21 25v3h1l2-1c0-2 3-2 3-1l-2 4-3 2-8 1-3 3c-2 2-3 6-1 6l4-1 3-2v1c1 1-3 4-5 4l-5 2-4 1v2l-1 2a536 536 0 0 1-6 2l-3 2v-1l1-3 1-2h5v-1l3-4 3-2v-4l4-4 6-5 3-2v-6l3-3 5-4 11-13-4 1a144 144 0 0 1-27 12l-5 2v2l-7 11-7 9-2 6c-1 3-4 9-7 12l-5 10-1 2h1l7-10c1-2 4-3 4-1l-2 2-2 3-3 6c-4 5-5 8-6 11v3l3-1v1l-2 3-1 3v2h-3v2l-1 4v3l1-3 5-8 6-7 3-3 2-1 2 1-7 9-8 8 1 8-1 8v1l-3-2c-2 0-4-2-4-4l-1-2v-53l-2-7-1-7 1-3 1-4v-1l-1 1-3 1h-1l1-6-2-1-6-1-12-4-9-2-1 1-1 5v3h2l2-1c1-3 3-2 3 0v3h5v-3c1-4 3-3 2 2v4l1 1 2 2h2l1-1 1-2c0-3 2-2 2 2v4l5 4v-3l1-4 1-2v3l1 33v30l-1 2-4 13-1 10-1 5 1 1 1 1 1-1 1-8 2-9c1-3 2-2 2 2l1 4 3-3 2-3h1v11l-1 10 4 1v-18l2 1v20h1l1-1a290 290 0 0 0 1-18l1-1 2 10v9l-2 3 2 4 6-6h3l4-2v-1h-7l7-7 8-2 21-8a225 225 0 0 1 41-13l8-2 9-4a16151 16151 0 0 1 63-20 366 366 0 0 1 47-17l6-2 3-1 1 1 1 1v-2l1-1 7-3 12-3 5-1 2 1 1 1v-4l4-1 13-1 8-1v2l1 3-1 1-1-2v-1l-7 1v-1l-1-1v6h4l6-1h2l2-5h2l3 1-3 4-2 4v2h2l3 1 1 1-3 1-4 1h-1v-5c-2-2-7-3-8-2-1 2-10 5-23 9l-15 5-4 1-13 3-14 4-10 3-3 1 1 1 5 2h4v3l-11-1-1 1-1 1 1 2 1 18v18l-2 3 3 2v-5l1-18v-13l2-5 6 1v35l1 10-2 1c-2 0-3 3-1 3l2 1 1 1 1-2c0-3 1-4 2-2l8 4 9 3 1 1v-1l-3-2-4-2-4-2-6-6a58 58 0 0 1 22 12l10 8a182 182 0 0 0 23 19l2 4 2 2 1-2 2-1 13 11 4 3-1 3v3l6 4v2l-1 2-22-20c-8-8-15-13-17-13h-1v6l-2 3h2l5 2h3l3 5 4 7v3h-1l-3-5c-1-4-4-8-6-8l-1 3v2l-3-3-2-3h-5l-2-3c-1-3-4-5-5-5v2l2 2c0 2-3 0-7-4l-5-3h-2l-4-9h-2l-2-1 2 3c3 3 4 5 2 5l-3-2-2-2-3-1 1-2 2-1-5-3-4-4v-1l5 2v-1c0-2-8-8-9-8l1 8 1 12 1 4 3 3 5 6 4 3 4-2 4-3h1v6l4 4c2 3 5 5 6 5l1-1-2-2c-1-1-2-4 0-4l6 6 3 5 4 3 1-2v-2l4-1v2l1 4 4 4c2 0 3 2 3 2l-2 1h-3l6 5 1-1 1-1h2l2 3-1 1-1 2-1 1-2-1-2-2h-1l1 1v3c-2 0-9-7-9-9l1-2 2-2-3-1-3-2-1 2c0 1-2 2-3 0 0-1-1-2-3-2-2-1-3-3-1-3h1l-1-1-6-2-5-1 3 2 2 3v1l-8-5-1 1-1 1-8-7-8-8-1-1h1l4 2-2-3-5-3 1 1 1 2-1 5v6c2 4 3 9 3 14l1 5h2l1-1 2 2 5 10-4-2-3-2 3 5 3 5 5-1 4 6 5 8v1h-6v9l-4-1-5-1c-2 0-1-4 0-5l2-2 1-2h3l2-1-3-5-2-4v7l-4-1-6-1-5-7-5-9-1-3-3 3c-4 3-7 4-7 2v-2l-3 1-4 1-3 1h-3l-2 4c0 2-4 6-7 10a318 318 0 0 0-28 49l-1 5-3 3c-2 3-8 13-8 16l-1 4-8 17-2 5-3 8-3 6-2 7a157 157 0 0 1-5 16l-1 4c-3 5-6 20-6 22l1 2 1-3 4-4 2-1 2 1 2 3-2 2h-1l3 4-4 1v6l1 6 2-4 1-5 1 1 1 5v4l4 1 6 2 5 6 2 5 1-4 1-7v-2l-5-1-1-4-1-4v-5l1-4h-3l-5 2h-3l-1-5v-5l2-1 3-1 3-2 5-1 6-2 6-2 1-4 1-5 2-9 7-20a225 225 0 0 0 11-26l2-2a283 283 0 0 1 15-29l6-10c3-6 11-17 18-23l4-5 1-2-4-3-3-4v-1h4l-3-4c-5-4-7-7-7-9v-3h1l5 4 3 5 4 1 4 3 2 3 2 2-2 4h1l1 2-2 1-2 2-4 5c-6 6-14 16-19 25l-7 10-3 4-9 17c-3 4-7 14-15 36l-4 10-5 16-2 7 1 2 1 1 5-1 7-1 5-1 12-2a724 724 0 0 1 56-10l12-3 9-3 5-1 16 8 4 2 3 2 1 2h5v1l-2 3h-2l8 7v2l-1 2-5-2-10-5-7-2-3 1-4 1v12l1-4 1-6 2-1 1 1 1 24-1 50c-2 11-2 31-1 59l1 27 2 2 2 2-3 3v11l-2 3-3 3h-2l-3-1-2-2-5 4h-6l-19 1a37535 37535 0 0 0-99 9h-7v2h-5l3 1 2 1v2l-1 2h-4l-3-2-2-4 2-3 2-2h3l6-1 15-2a1992 1992 0 0 0 85-7l22-1 3-1 8-2 5-1 2-3c1-2 2-3 1-4l-1 1-1 2-2-1h-2v-4h-3l-36 5a2591 2591 0 0 0-63 8l-25 3a143 143 0 0 0-26 4l1 3 2 3c-1 2-5 1-6 0l-3-2-3-3v-5l1-3h4l1 2v3l2-1 2-2v-2h5l1-2-1-6V990h-1v-4l2-2v-15l-1-1 1-2 1-3-2-1h-2l-1-3-1-11v-9h-1l-3-2-2-2v5l-2 6-2 7-1 8a211 211 0 0 0-6 43 3817 3817 0 0 0 0 127 1227 1227 0 0 0 2 91v2l-1 2-1 14-1 12-2 2v-39l-1 14-1 18-1 5 1 1 1 1 1 40v39l-1 2-1 2h1l1 12 1 11 1 2 1 2-1 2-1 3 1 14 1 14 3 6v11l3 4-2 4v23l-1 23h-2l-3-1a121 121 0 0 1-1-37v-28l-2-15-1-26-2-55v-47l-3 5v7l1 7-1 1-1 1 1 1v7l-2 1 3 1v13l-1 1-2 1 2 1 1 1v117l-1 4-1 7v4h-4l1-18v-119l1-3 2-2h-2v-40l-1-42-1-2v9a7171 7171 0 0 1-4 195l-1 23h3l1 6 1 6v4h-2l3 2v3l-1 6-2 6-1 3 1 1 1 2v34l2 37v3l-2 2v9l-1 10-1 4c-2 3-3 5-4 4zm-41-320-1-1-1 1 1 1 1-1zm-18-8-1-3-1 3 1 3 1-3zm74-6v-6l-1 1-1 5c0 4 0 6 2 6v-6zm-75-6c-1-1-1 0-1 1l1 1v-2zm8-2c-1-1-1 0-1 2s0 3 1 2v-4zm13-2v-5l-1 3-1 6c1 2 2 1 2-4zm-21 0-1 1 1 1v-2zm76-1-1-2-1-1v2l1 2 1-1zm-59-2-1 1 1 1v-2zm-12-3h-3l3 1h1zm71-3-1-1-1-1v2l1 1 1-1zm-57-3-1-1v1l1 2v-2zm57-4-1 1 1 1v-2zm0-17v-16h-1l-1 4c-1 6 0 27 1 27h1zm4-10c0-4-1-1-1 6l1 6v-12zm-12 14v-2l-1 1v1c0 2 1 1 1 0zm12-28-1-1v1l1 2v-2zm-69-1-1 1 1 1v-2zm69-3-1 1 1 1v-2zm-11-6-1-1-1 1 2 1h1zm-1-9-1 1 1 1v-2zm7-3-1-2-2-2-1 1-1 1h1l2 2 1 1 1-1zm0-9-1 1 1 1v-2zm-63-5-1-4-1 3-1 3h1l2 1v-3zm68-2c-1-1-1 0-1 2s0 3 1 2v-4zm-66-6-1-1v3l1 5v2l1-4-1-5zm66-2-1-3v3c0 3 1 7 2 5l-1-5zm-14-1-1-16v-14l1-4 1-4v-31l-1-2-2-6a669 669 0 0 0-5-39v-1l1 1 2 11a231 231 0 0 0 5 30l1-16v-17l1-3 1-4v-6c-1-3 0-10 1-15l1-9-1-2-1-1v2l-1 3-2-2 2-6a148 148 0 0 0-2-39c-2-1-3 2-3 8l-1 7 2 2 1 6 1 5h-1l-1-1-1-4-2-1v3a369 369 0 0 0 5 45v5h-1l-1-3a289 289 0 0 1-5-30v-1l-1 2c-2 2-2 17-1 21l1 4-1 1-1 1-2-6-1 1h-1l1 2 1 2v5l-2 21c-1 5-1 8-3 11l-1 2 1 1 2 1v25l1 7 6 33 6 18 1-3zm-6-53a157 157 0 0 0-8-34l1-1h2l2 7a179 179 0 0 1 6 36l1 5h-2zm-147 35-1-1-1-4-1-3h-3l-4 2 2 2 2 3 5 2 1-1zm157-6-1 1 1 1v-2zm-155-2-1 1 1 1v-2zm92-2v-2l-1 1v5l1-1 1-1zm74 1-1-1v1l1 2v-2zm-184-1-1 1 1 1v-2zm124-9-1-3v4l1 7v3l1-4-1-7zm-93 5 3-1h-2c-2 0-4-1-2-2l8-1 14-2a275 275 0 0 1 36-3h10c1 1 1-1 2-2l1-1-1-1-1-2-2-2a400 400 0 0 1-44 5l-13 2-10 1h-6v2l-8 3-4 1 4 1c4 0 5 1 2 2l-2 2v1l6-1 9-2zm-8-1c-1-1 0-2 3-2 2 0 3 2 0 2h-3zm14 0 1-1h-1l-2 1 1 1 1-1zm108-1v-2l1-2 2-4v-1l-2 1h-2l1-4-2 2c-2 3-3 7-1 10l2 2h2zm82 0a1054 1054 0 0 0 14-3l-9-1-6-1-6-6-7-6h-2v3l1 9v7h4l11-2zm-10-2c-2-1-1-3 0-3h2v2c0 2-1 3-2 1zm-97-2v-6h-5l-3 4-3 2h3l2-1 1-1 1 3 2 4h2v-5zm239 4v-1l-2 1 1 1 1-1zm-96-4 2-1-2-1-5-3-3-4v-10l-2-1h-1l-2 1-4 2-3 1-2 1-1-4v-2l3 1h3l2-1 2-1-1-4-8-3-2 1-3 1-2 1-1 3c-1 5-4 10-6 11l-3 2-1 1 6 6h9v-1c0-1-1-2-3-2l-2-1v-5l1-6 1-4c1 0 2 1 2 3l2 10 2 7h7l2-5 1-4 1 8v4h5l6-1zm-124-3-1-7-1-4-1 5-1 4 1 2 2 2 1-2zm-32-1-2-3h-1v2c0 2 1 3 2 3l1-2zm172 1-1-5-1-5 1-2 1-4c-1-2 1-4 3-3h2v3l-1 4-1 2 5 5 7-1v1c0 2-4 3-8 3s-5 1-3 2c3 1 31-3 46-6l9-2 1-3 1-2-6-5h-9l5-2-1-3-1-7v-3h3l1-3 2-4h1l-1 10h-3l1 3v4l4 2 4 2c1 1 3 3 3 6l2 5 4-1h5v-14l1-14-1 1-4 1h-2v-1l1-3 2-2 4 1v-6l1-5-1-1-1-1-4 1-6 1-2 1v5l-1 6 2 1 1 2-2 1-4-2-1-2 1-2 1-6v-4l-4-3v-8h-14l-1 1 1 5v6l3 1 4 3 1 5v3h-1l-3-4-3-4c-2 0-8 9-8 12l2 2 3 3v1h-3l-4-1c-2-1-2-4-1-8l1-3-3-3-3-3-6 6v9l2 1 1 3-2 1-3 1-4 3-3 1v4h4l2 3 2 5-2 2-1 1v-4l-8-5v-6l8-8-1-4-1-4-2-1-4-1 1-5 1-2 2 2 4 3h2l1-3 1-2-1-2-10-9-5-1h-3l-1 3-2 3h-6l-8 8v2l2 5 1 2 2-1 1-2c0-2 2-4 4-3 1 0 2 1 2 3l1 2-1 2-1 1 1 2 2 3-1 4-2 7-1 2-1-2v-2l3-7-2-2-4-2-4-1-4-5-2-4 1-3 5-7 4-4 7-1 1-3v-3l-2-3-4-5-2-3-3 1-5 4-2 3 1 3 1 2h7v1l-1 3-5 2h-4l-2 6-5 3-6 3-2 1v10l2 1 4 2 7-2c3-3 6-4 6-2l-5 4-5 4 2 2 3 1v3l1 6v2l3 3 3 3h6l1 3 2-1 2 1h3zm25-11-1-4-1-6v-3h2l3 1 1 2v5c-1 5-2 7-4 5zm13-3-1-2 1-2 1-2 3-1h2l-1 3c0 3-2 5-3 5l-2-1zm-135 11v2l1 1-1-3zm-57-1v-13h-4l1-6v-9l1-13 1-11 1-1 1-2v-2l-2 1-3 1 1 3 1 4-2 2-2 18v7l1 8v4l3-1v6l1 6 1-2zm-19-3 1-2-1-3c-1 0-4 3-4 5v1h2l2-1zm40-1-1 1 1 1v-2zm0-3 3-11-3 1-3 2-2 2-1 3 1 8 2-3 3-2zm214-9-1-10-1 7-1 8 2 7 1-1zm-275 10-2-1-1 1 1 1 2-1zm-15-1h-2l1 1 1-1zm149-11v-9h-5l-3-4v21h2l4 1h2zm9 7 1-5v-3l-3-3-4-3h-1v7l2 8 2 1 3-2zm-134 0-1-1h-1l-1 1h3zm11-5v-3l-1 1-1 4c1 2 2 1 2-2zm48-2-1-1v1l1 2v-2zm-45-4c-1-1-1 0-1 1s0 2 1 1v-2zm-3 0-1-1-1 1 1 1 1-1zm9 0h-2l1 1 1-1zm126-4 1-3v-4l-1-5h-3v10h-1l-2-1 1-11 1-10-3 1-3 2-2-1v-2h4l5-8-1-3v-3l-5-3h-2l-2 1-1 5-1 5 4-1 4-1v3l-10 3v6h1l3 2 3 3 2 1-1 2-1 2h-2l-4-1c-1-2-2-1-2 2l-1 3c-1 1-2-11-1-13l1-2-1-3-1-3 1-3 1-2-3-2c-1-2-4-3-5-3h-2v15l1 1 2-1 1-1c2 1 1 3-2 5l-2 4 3 5 3 4 4 1 12 6 1 2 2-1 4-3zm8-16 1-2-2-1-1-4c0-2 2-3 4-2l1 3 2 3 2-2 1-7 2-8c2-4 4-6 7-7l3-4 1-2-1-4-2-4-2-1-2-1-3 3-4 2c-2 0-1-3 1-4l3-2v-3l-1-3 2-1h1l2 3 2 3 5-3 3-3v-3l-2-6-1-3h-2l-2 1-1-3-1-2h-3l-5 1-2 2-1-2 3-4 2-2h9v-5l1-12v-7l-2-1-4-4-3-1-1-4v-9l-1-4-5 16-1 3 1 2 2 6v3l5 5v5l-1 6c-1 0-3-3-3-6l-1-4-2-1-2 2-2 3v6l-1 7-1 2-2 3-4 4-3 2-10 1v6h2l3 1 10 3 1-1-1-2-1-2v-3l1-4 2 1 4 1 1 3-2 5-1 4 2 2 3 1 1 4 1 4-2 4c-2 6-5 9-7 9l-3 2-1 8v7l6 3 2-2zm71-3-2-7-1-5-4-2c-2-2-3-3-4-2l-1 2v3h-1l-4-1c-1-1-2-2-3-1l-3-1-1-1-1 2-1 3 2 2 3 2 3 3 2 3h6l2 2 2 2 6-2zm34-9 3-1v-19l-1-1-2-1-5 1-7 1-2 9-1 8 1 3 2 2c3 1 10 0 12-2zm-239 0v-1l-2 1 1 1 1-1zm-2-5 1-1-2 1v1l1-1zm176-3 2-3-1-1-6-5-3-3-1-7v-6l-1-1-2-2v-1l11 1 3-2-1-5-2-6v-2l-7-1-2 2-2 2 1 4v5l-4 4-3 4 1 6 5 12 3 6 3 1 4 2 2-4zm19-2 4-3 3 3 2 3h2l4-1 1-4c0-3 2-5 4-5l1 5 2 5 1 2 3-4 3-3v-7l-7-8h-2l-2-1 1-3 3-2-1-3-1-6v-3h1c2 0 3 3 3 7l1 4 1 4 2 4 2 1 13 1 2-2 3-2-1-6v-6h-11l-5-5v-7l2-2c3-3 5-6 5-9v-3l-2 2-4 3-4 3-2 3-4-3v-4h9l4-4v-7l-1-7-9-9 1-4v-5h-1l-3-2-1-1-3 1c-5 1-9 3-10 6l-1 3 4 3 8 3 5 2 1 3 2 3 4 3 2 2-1 2c0 2-2 3-3 4l-3 1-7-1-2-5 2-3c2-4 3-7 1-6l-1 2-1 3-4 4c-3 1-9 0-10-1l1-3 3-2h2v3h2c2 0 4-3 4-6v-2l-3-1-4-2-6 4-5 3-12 1v-1c0-1 3-3 7-3l6-2 3-1 1-5 2-9c2-3 4-4 7-4 2 0 8-7 8-10l-1-5v-3l-6 1-8 1-2 2-1 3-1 2 1 2h5v5h-6l-3-2 1-3v-6l1-2-5 1-6 1-1 1 5 1v8c0 1-3-2-3-4v-1h-7l-2-2-1-2h-4c-3 0-8 2-8 3l2 2 2 2 1-3 3-3v4l-3 5-1 5h6l-1 6v7l1-2 5-3 5-2 2-3 2-4c1-1 1-2 2-1h1l-1 3-10 11-3 1v2l-1 3 3 6 4 7 1 1 4-1h3l3 2-1 2-1 2-2-1h-3v2l-5 6-4 5 1 2 3 6 3 6 2 1 4-1 5-2 2-1-1-4-1-3h-5v-6l4-1v3l6-3 2-1 4 1v4l-7 1v12l3-1h2l1 4 2 4-1 1-2-2-1-3h-7l2 8 2 7-1 1c-1 2-3 0-3-2 0-4-3-13-5-14l-3 1-1 1v10l-2 4-2 6v2l2 1 2 2 2-1c2 0 4-1 5-3zm-63 0c1 0 3-3 3-5l2-3-1-3-3-4-2-3-1-1-1 1-1 8-1 9v3h1l4-2zm-118-4v-4l-1 1v7l1 1v-5zm96-9v-12l-2-1-3-1-2 2c-2 1-3 2-3 4l-1 10v9l1-2 1-1h2l3 3 3 2h2l-1-13zm8 5c0-3-2-13-4-13h-1v15l1 1 1-1 3-2zm7-4 1-6h-2l-3-1c-2-2-2 0-1 2l1 6v4l2 1 2 1v-7zm57 5 2-4 1-2-2-5-2-5h-4l-6 1h-1v3c0 5 5 12 10 13l2-1zm-175-3v-2l-1 2v1l1-1zm8-1-1-1v1l1 2v-2zm-11-3h-2l-2 1h2l2-1zm25-6 3-5v-8l-2-1-1-1v-2l2-1 1-1-1-2-2 1v-20h1l1 9 1 9 2-3 2-3v-16l-2-1v-7c2-18 3-26 2-27l-1-1-1 6-3 8v10c1 1 0 9-1 9l-1-1v-1l-1 1-3 14-2 13 1 13 2 14 3-6zm-25 1-1-1-2 1v1h1l2-1zm4-6-1-2 1-9 1-11 1-14c1-14 1-17 4-29a792 792 0 0 0 6-30l1-2 4 1v-1l-2-1-1-1v-2l1-5 1-8 1-5-1 1-2 5a1040 1040 0 0 1-10 42l-2 12-1 7-1 11-2 6 1 10-1 14v14l3-2zm39-3h-1l-1 2v3l1-2 1-3zm-45-1-1-1v2c0 2 1 4 2 2l-1-3zm68 0v-1l-2 1c-1 1 0 1 1 1l1-1zm40-1h2v-1c1-1 0-3-1-4l-2-5-1-2 1-4 2-8c2-4 2-8 1-10l-9-5h-2v14a243 243 0 0 1 0 25h9zm-72-4 2-5 3-8c0-3 3-8 5-11l3-11 1-4-1 1-3 6c-2 6-4 9-7 12l-2 5-1 3-3 7c-1 4-1 8 1 8l2-3zm202 0 3-2v-8l1-19v-11h-7v1l-1 2-1-1v-1l1-2 1-1 6-1v-38l-1-1v-2l3-1 2 1v7h5l1-2-2-5-3-3-17-1-7 2a593 593 0 0 0-25 8c8-2 17-3 25-3l8-1v3h-4l-6 1h-2v5l-1 8-1 3 3 3 4 2 6-3 5-3 2-7-1-2v-9l1 2 1 4 2 2-1 4-2 7c0 2-3 4-5 6l-5 3v9l3 4 4 5 2 2v17l-1 1-4 6-2 4 1 2 3 3 3 1 3-1zm-117-5 1-4 1-1 6 2v-3l1-7 1-4-3-1 1-2c1-1 3-7 4-15 1-2-4-2-9 0l-4 1v3l-2 14-3 10-2 1v-6l1-5-2 4-2 4v7l2-1h2v1c0 2 4 5 6 5h1v-3zm2-19-2-3 2-5 1-2 2 1c1 0 2 5 0 6v1l-1 2h-2zm-103 0 3-11 1-7 1-8 1-9 1-5 2-2 2-2v-7l1-9 3-3h1l-4-6 2-4 1-6a320 320 0 0 1 16-50l8-17 4-7a373 373 0 0 1 35-68l3-7a6241 6241 0 0 0 18-27l4-2c2 1 1 4-3 7l-3 3 2 2-2 4-1 4h4l1-4 2-6 1-3 8 5v5l-1 4-1 1h-1l-1-2c0-3-1-4-3-2l-2 1h-2l1 1-3 5-3 3 2 1h1v3l-3 6-2 3-2 4-2 3 1 1 1 2-2 2-5 8-3 6-6 4-5 6-2 4-2 3 2 1h2l3-4 4-6 1-2h2l1 2c0 2-4 7-16 19l-4 5-1 3-1 2v1l2-2 7-4 5-4 3-3 4-5 2-3 4-4 3-5-2-5 1-4 3-7 1-4h2l1 1c-3 5-4 10-4 11 1 1 4-3 5-6l2-4 1-2-1-1c-2-1-3-5-1-7l2-5 1-5h4l-3 6-2 7c1 1 3-1 6-6l3-6 2-6 2-4v-11l3-1v3l1 4 3-1 2-2-3-6c-2-5-5-7-7-6v-5l-4-6-6-8-1-1-2 2a438 438 0 0 0-55 100l-2 3-5 9-6 15-4 8-3 8c-2 3-2 8-2 10l-1 4-2 2-2 6a2375 2375 0 0 0-7 23l-2 7 1 4v4l-2 1-2 2-1 6-2 13v8l-2 6-3 10-1 6-1 4 1 3 1 3-1 1c-1 2-2 18-1 20l1 2 2-6 2-15zm103-227 2-3 2-2 1 2-2 3-2 2-1-2zM212 981l-1-1-1 1 1 1 1-1zm60-9 2-18 2-7-1-2-1-1 1-31h-1l-2 3-2 5-4 2-4 2 8-14 1-4v-3l-3-1v-3l6-13h1l1 1 1 2v25l-1 26 1-1 4-11 2-10-1-1c-2 0-1-4 0-4h2l1-4 2-8 1-4-1-4-1-3v-28l-1 2-2 3 1 11v11l-2 1-1-18-2 1-1 2 1 3v9h-1l-2-5-2-6-1-1 3-4c4-5 8-13 8-19 1-4 5-13 8-17 2-1 4-5 5-7l2-5-1-5 4-3 4-3 1-4 1-5-6 5-5 5c-2 0-12 11-12 12l-3 4-5 6-2 7v3l4-4 7-9c3-5 5-7 7-6l-3 5-4 7-8 8-6 7-3 7-2 7-2 3-2 3 2 3a257 257 0 0 1 10-14l4-6 2 2-3 5c-3 5-4 8-11 16l-5 6v2c1 1 0 2-1 4l-1 3 1 1 2-3c2-4 6-8 7-8 2 0 1 4-1 8l-4 5-4 5-2 4-1 2-3 5-2 4v7h3l3-5 2-6h2l1 2-1 1-2 4-1 4h-2l-1 2-2 2-1 2-2 6c-3 5-5 11-3 11l3-5c2-5 9-13 10-13 2 0 0 4-4 9-4 7-9 17-9 20v2l2-3a197 197 0 0 0 16-32h4l-1 18-1 21 2 17 1-10zm9-61 1-2v2l-1 2v-2zm1-12v-1l1 1v2l-1-2zm90 79v-3l4-1 1 3 1 3 4 1 3-2 3-4 1-2-3-4c-3-3-6-11-6-15v-3h-2l-1-1-2-1h-2l-1-4-2 4h-5l1 5v7l-1 9v9l1 2 1 1h5zm-95-2-1-1v1l1 2v-2zm5-1c-1-1-1 0-1 1l1 1v-2zm-34-11-1-1-1 2v3l1-2 1-2zm184 0-1-3-2-1-3 2-2 3 5 2h2zm-232-1-1 1 1 1v-2zm145-4 1-3-1-1-1-1v2l-2 6v3l1-1 2-5zm-100-3v-2l-1 1v2l1 2v-3zm57-2c-1-1-1 0-1 1l1 1v-2zm-23-1-1 1 1 1v-2zm-71-2c-1-1-2 1-1 2v1l1-1v-2zm131-5 5-1v-6l1-6 2-2 2-2v-1l-5 1-8 1-3 1v2c1 2-1 9-3 10h-1l-1-4v-4l1-1 1-2-1-1-7 8v2l3 5 1 2h4l9-2zm31-1 1-2 1-2v-2l-4 1v-1l2-3 2-1v-3l-2-3-4-3-3-2-5 1v3l-2 3-1 1 1 3 2 5c2 3 7 6 10 6h2zm-102-4v-4l-1 1v4l1 3v-4zm-21-1 2-5 2-3-2-4 1-9v-20l-1 1-2 7-2 4 1 2 1 1v3l-2 15v13l1-2 1-3zm74-9 11-3 9-2 7-1v-1l5-3 5-1 2 1 1 1 1-1 1-1 6-1 9-1 4-1v-2l-1-1-3 2-3 1h-1l1-1v-1h-3l-36 9-5 2-7-1-6 2c-6 1-8 3-8 4l2 1 9-1zm-104-12a750 750 0 0 1 10-41l1-8a196 196 0 0 1 17-44c3-9 5-13 7-14h1l-1-2v-3l2-3a520 520 0 0 0 22-43l14-24 20-36c4-7 8-12 10-12s1 4-1 7c-2 1-4 4-5 7l-3 5-2 2-4 7-3 7-5 8-4 6-3 6-9 15-2 5-2 4 3-3 7-10 11-20 1 2v1l2-3 3-4-2 2-3 1 4-7 1 1 1 2 1-2 1-1-2-1-1-2 2-4 7-10 9-13 5-6-2-5 2-2 1 2a249 249 0 0 0 11 16l6 11 5 10 5 6a7436 7436 0 0 0 10 14l2 5h3l4-1 2-1 1 1 2 4 2 2 1-2 1-1c2 0 7-6 8-9l3-4c2-1 2-3 2-4l-2-4-5-14-9-24-9-24v-2l1-1c1-1 3-2 4-1l1-1c0-1-3-3-4-2h-2v-1l1-2h2v-5l-3 3-3-1-1-9v-13l1-4 2-4 1-2h-1l-5 1c-6 3-22 7-23 7l-8 2-8 4-3 3-1 3 1 16 2 17c0 1 15-4 17-6l9-3 13-4 5-2 1 1c1 2-2 4-6 5l-13 4-15 5-9 5-5 3-2-2-2-2 1-2a91 91 0 0 0-2-28v-6l3-4-5 1-15 3a380 380 0 0 0-54 19l-3 1-13 4-13 5-1 1v5l1 7 1 2-1 1v10l2 21-1 1-3-2-1 3-2 4 3-1h2l2 1 1 4v2h-2l-3-1-2-1h-1v3l1 5 1 1 4-1 1 2-1 3-1 4v3l-1-2v-2l-1-3v-1l-1 1v12h3v60l-1 6-1 11-1 6h-1v17l2 2v17c0 16 0 36-2 51v8l1-1 3-12zm14-99-1-2v-24a1234 1234 0 0 0 1-73l2-36 6-1 6-2 1-1-8 1 2-1c1-1 4-3 8-3l6-1 2 3v-3l2-2 5-1h4l1-1 3-2 16-4 12-4 2 1 2 4 1 3-1 8-2 12-1 4-3 2-3 2-4 4-3 6-2 2-1 3c0 2-2 5-11 14l-1 3-4 8-5 9-3 5a146 146 0 0 0-10 22 142 142 0 0 0-9 34l-1 8-2 2-4 2-3-1zm8-14h-1c-2 2-3 8-2 10l2-5 1-5zm-5-3-1 1 1 1v-2zm8-11 1-2h-1l-1 2-2 4-2 3 1 2 1 2 1-4 2-7zm-5 1-1-2-1 2 1 1 1-1zm5-17 1-4 3 1 1 2-2-4-3-2-4 11v3l1-2 3-5zm-1-13c0-3-1-2-3 2v6l2-3 1-5zm8 5 1-4v-2l-1 3-2 4h1l1-1zm-3-8h-1v3l1-1v-2zm-4-4-2-1 1 2 1 2v-3zm6 1h-1l-1 1 1 1 1-2zm0-9 4-8-3-1-3-1-1-1-3 2 2 1 2 4v2l-1-1-2 1 1 1h1l-1 4v4l4-7zm6 1-1-1v1l1 2v-2zm4 0v-1l-1 1-1 1 1 1 1-2zm-18-6v-6l-2 1v6l1 6 1-7zm16 2-1 1 1 1v-2zm7-4 1-3-2-2-1 2-1 3-1 3c0 2 2 0 4-3zm-12-9v-3l2 1 2 2 2-4 13-22 2-3-4-3v-5l-1-5h-8l-1 4-2 3v-4l1-3c-2-1-5 3-5 7l-1 4-1 1h2v10l-2 1-4 2-1 7v4l2 3-1 2c-2 0-2 1-2 2l6 2 1-3zm-12-4-1-4 1-12 1-11-1 1-2 25 1 5 1-1 1-1zm25-2h-1l-1 1 1 1 1-2zm5 0v-1l-2 1 1 1 1-1zm-26-2v-2l-1 1v3l1-2zm30 0-1-1-1 1 1 1 1-1zm3-4-1 1 1 1v-2zm2-8 3-5 3-4 1 1 2-1v-1c-3 0-1-3 6-10l6-6v-2l-2-1h-2v5l-5 2-1 3-1 3-3 1-5 1 14-17 5-5v-2l1-4v-2h-3v2c0 3-2 6-4 6l-4 3-5 3h-1l1-2 3-3c4-4 2-5-4-2l-4 2 1 1h2l-2 3-2 3-1-1c-1-1-2-2-3-1l-1 1v4l1 6v7l1 1 3-1 1-1 2 1 1 2-2 3c-3 4-5 9-4 9 1 1 2 0 2-2zm0-24 1-2c1-2 2-1 2 1-1 2-3 3-3 1zm-33 24 2-1 2-1v-2l-1-3-2 2-1 2-3-1 1 2 1 3 1-1zm4-16 2-4h-4l-4 2v3l1 1-1 4 2-1 4-5zm-10 2-1 1 1 1v-2zm0-6-1-1v1l1 2v-2zm5-2-1-2h-1v1l2 1zm25-5-1-1-1-1v1l1 2 1-1zm-2-5v-1l-2 1-4 1-1 1h3l4-2zm111 65h2l-1 1-1-1zm-12-6-6-9-4-8a97 97 0 0 1-14-21l-6-10c-2-4-3-6-1-9 0-2 5-5 14-8l8-3 5-2h4v1l-1 2-3 1-13 7-12 5 13 20 1 2 1-2 2-2 1 2v3h2l1 1v3l-1 2 2 3c0 2 2 4 4 4l2 1-3 3 1 1v2l1-1 3-2h3l1 3 5 5 3 3v-4l-2-2 2-1 1-1-2-3-2-2 1-4v-4l-7-8v-8l-6-4v1c0 3-3 2-4 0l-2-6-1-4-4-1v-1l3-2h3l2 5 2 5 2-2 2 1h2l-1-3c-2-2-5-12-4-12 1-1 3 1 4 7l5 10a153 153 0 0 1 10 21l2 3 1 3-1 1-1 9-1 7-9 4-4-2v1c0 2-2 1-4-1zm7-4-2-2 1 3 2 1-1-2zm8-21-1-1v2c0 2 1 4 2 2l-1-3zm-33-16-1-6v-2l1 1 1 4 1 3-1 1-1-1zm-11-38-1-3h2l3 1v-1l-2-2h-1l-3 2-2 3h-5l1-8 1-10 1-2h1v9l-1 8 4-4 4-4 7 1 1-1 1-1 2 1 2 1 1-3-1-2h4l1-2v-2l-3-1-3-1-2-4 1-2 3-2 2 1v1l5-1 1 4v3l-1 7-1 8-3 2-4 2-5 1-6 2-3 1-1-2zm-49 254-1-1-1 2v1h1l1-2zm101 1h-3l-2 1h3l2-1zm-184-2h-2l1 1 1-1zm261-2-4-3 1 4 2 2h4l-3-3zm-176-2v-1l-1 1v1c0 1 1 1 1-1zm-33-11 1-7 3-19 1-21 1-3-1 1a1365 1365 0 0 1-9 56h-1l1 2 1 3 2-4 1-8zm-50 9h-2l1 1 1-1zm67-7-1-1v1l1 2v-2zm-29-2v-1l-1-1v1c0 2 1 2 1 1zm47-13 2-8a200 200 0 0 1-2-24v-5l-1 1-2 6v37l3-7zm-85 2v-1l-1 1v1l1-1zm1-4-2-2-1 2 3 3 1-1-1-2zm27-11a148 148 0 0 1 7-20l1-4 7-20-2 3-5 13-1 3-2 5-4 13-4 12v1l1-1 2-5zm-102 1h-1l-1 2 1 1 1-3zm108-1-1-1h-1l1 1h1zm57-5 1-11v-21l-3 4-1 4 1 14 1 15 1-5zm-94-4c-1-1-2 1-1 2v1l1-1v-2zm-68-1-1 1 1 1v-2zm129-7-1-1v1l1 2v-2zm6-10 2-9 1-2 1-1-1-3-1-4-2 8-4 19v3l1-2 3-9zm32 8 2-5 2-4-1-7v-13l-1-3h-3v10l-1 17v7h1l1-2zm-99-4v-2h-4l2 2 2 1v-1zm64-11 2-8v-3l-2 2-3 8-2 8v2l5-4zm-64 3-1 1 1 1v-2zm110-10 1-5-2-4-1-3v-7l1-7-1 1-1 5-1 6-2 3v8l1 9c1 1 3-1 5-6zm-135 4-1-1v1l1 2v-2zm75-3-1 1 1 1v-2zm-73-1-1-1-1 2v1h1l1-2zm101-11v-4l2-4 3-4 1-1-2-1-3 6-6 16 2-2 3-1v-5zm-27-1a313 313 0 0 1 5-17 33977 33977 0 0 0-5 17zm20 5 4-9a240 240 0 0 0 9-26l-7 17-2 3-3 3v4l-2 6-1 3h1l1-1zm44-5 2-4 3-7 4-7-1-5-1-11v-5l-2 2-1 3-1 11-1 11-2 1v-12l-3 1v25l3-3zm-169 0h-2l-1 1h1l2-1zm62-14v-3l-1-2-4 1v7h5zm80-6v-5l1-3-1 1-5 13 2-2 3-4zm51-3-1 1 1 1v-2zm-130-4c-1-1-1 0-1 2s0 3 1 2v-4zm119 2 2-5 1-3-1-1-1-10v-8l-2 5-2 14v9h1l2-1zm-64-5 3-6 2-6-4 4-3 9-1 3 1-1 2-3zm27-4 1-2-1 1-2 4v1l1-1 1-3zm-82-1v-2l-1 1-1 2 1 1 1-2zm125-1 3-6 3-4-2-6c-2-7-3-10-3-6l-1 4-2 2v18h1l1-2zm-39-10v-2l-1 2-1 5-1 4 1-4 2-5zm2 5 1-2c-1-1-3 1-3 3s2 1 2-1zm-23-1h-2l1 1 1-1zm-3-4-1 1 1 1v-2zm35-3 4-6 1-2c0-2-3-1-5 2a24 24 0 0 0-5 10c0 2 2 0 5-4zm39-4 2-3-1-4-3-8v-3l-3 3-3 3 1 1h2v4c0 6 1 10 2 10l3-3zm62 1-2-2v1c0 2 2 3 2 1zm-110-3h-2l1 1 1-1zm12-15 3-11-7 15-2 7-1 2 4-3zm-7 7v-2l-1 1-1 3-1 2h1l2-4zm49 2v-5l-1-1v-14l1-3h-3l-1 7 2 17 2-1zm-145-1-1-1h-1l1 1h1zm110-8c2-4 2-8 1-8s-2 1-2 3l-2 6-2 3 2 1h1zm42-6-3-2-2-1v11l6-5zm-154-3-1-1-2 4v1l2-1 1-3zm90 0 1-1-1 1-1 1c0 2 1 1 1-1zm25-12h-1l-1 3v3l1-2 1-4zm-122 2v-2l-1 1-1 2 1 1 1-2zm5 1-4-3 3 4 1-1zm216-6-3-4-2-1-2 2-1 2 3 1 4 2 2 1-1-3zm54-1-1 1 1 1v-2zm-80-5v-3l-1 1v4l1 2v-4zm-188-4v-2h-1l-1 2 1 2 1-2zm5 0-1-1-2 2c0 1 2 1 3-1zm-10 0h-2l1 1 1-1zm261-1h-3l3 1h1zm-265-3 1-2h-1l-4 2c0 2 3 1 4 0zm16-4-1 1-1 1h-1l1-5h-2c-4-2-4 0 1 5l4 3v-2l-1-3zm227 4-9-9-10-10-1-4-5-2-5-2 1 1v2l-4-3c-4-3-8-6-8-4l4 4 3 2 9 10 8 8h1l1-1-13-14h1l1-1 4 4 9 10c6 6 10 10 12 10l1-1zm-126-2-1 1 1 1v-2zm82-1-1-1v1c0 2 1 3 2 2l-1-2zm42-3-2-5-1-2-2-1h-3l8 9v-1zm-244-1 1-2v-2h-1l-3 1-1 1v1l2 2 2-1zm5 0 2-2v-1l-2 1-3 2h3zm-11-2-1-3-1 3 1 2 1-2zm24-2-3-1-1 1 2 1h2zm171-10-8-21v-3l-2 2 1 3a779 779 0 0 0 9 19zm12 7-3-17-1-2h-1v4l4 17 1-2zm-188 1-1-1h-1l-1 1h3zm182-4-1-1v3c0 1 0 2 1 1v-3zm-186 2c0-1-1-2-3-1-2 0-1 2 1 2l2-1zm226-2c0-3-1-4-3-2l1 3 1 1 1-2zm-239 0-1-1-2 1 2 1 1-1zm20-2-2-4-1-1-2 1-1 1-2 1 9 5h1l-2-3zm-14 1-2-1-1 1 2 1h1zm6-8-3-1-2-1v1l4 2h2l-1-1zm10-2-1-1v1l1 2v-2zm-10-2-1 1 1 1v-2zm6-4h-6l2 3 2 1 1-1 1-3zm180-5v-6l-3 2-2 2v3l1 4 2-2 2-3zm-176 2-1 1 1 1v-2zm-29-5-1-1h-2l-1 1h4zm-25-5h-2l1 1 1-1zm26-3-1-5-1-1-1 1-2 1v8h5v-4zm-14-2v-6h-1v11l1-5zm211 4v-1l-1 1v1l1-1zm-216-2v-10h-3v11h1l2-1zm224-2v-1l-1-1v1c0 2 1 2 1 1zm-237-4-1-4-1-1v8h1l1-3zm104-1h-2l1 1 1-1zm116-7v-4l-1 1c-1 2 0 7 1 7v-4zm4-5-1 1 1 1v-2zm-188-4v-2l-1 1v2l1 2v-3zm191-7-1-3v9l1-1v-5zm-11 2c-1-1-1 0-1 1l1 1v-2zm-216-3v-5h-4l1 5 2 4 1-4zm228-7v-2h-1l-2 2-1 1v-4h-2l-2 1 1 4v2l3-1 4-3zm-230-3-1-1-1 2v1h1l1-2zm12-5-1-1 1 1 1 2-1-2zm30-10-1 1 1 1v-2zm-57-3c0-3-6-13-7-13l1 2 1 3 5 10v-2zm15-4v-5l-2-5-3-5v14l3 7 1-1 1-5zm257 2-1 1 1 1v-2zm-215-5-1-2v4c0 2 0 3 1 2v-4zm80 0-1-3-1-1v3l1 3 1-2zm-73-7 3-6 2-6c2-4 8-13 13-18l2-4c-2 0-12 7-12 8l-3 6-6 5h-2v4l-1 4 1 1 1 2-1 3c-2 3-2 7-1 7l4-6zm-1-10 5-6h1l-2 4-3 3-1-1zm249 15 1-2h-2l-2 2 1 1 2-1zm-272-5 1-6v-2l-3 1v6l1 6 1-5zm18-3v-22l1-1-1-2-2-1-1 3a176 176 0 0 1 0 18l1 10 2-5zm99 4-1-1-1-1v1l1 2 1-1zm-105-11-1-1v1l1 2v-2zm-38-3 2-2-1-2-1 2-1 2-1-1-2-2-1 2 1 1h4zm38-6 1-2-1-3-1 2-1 3c-1 0-2 3-1 5v2l1-2 2-5zm1 4v-1l-1 1v1c0 1 1 1 1-1zm116-4-1-1-1 2v3l1-2 1-2zm-102-3 2-5-5 2-4 3c0 3 1 5 2 5l5-5zm97-6v-1l-1 1v1c0 1 1 1 1-1zm5-3-1-1v3c0 1 0 2 1 1v-3zm-158 1v-10h-3l-1 3-1 4 1 2c0 2 1 3 2 3l2-2zm17-6-2-1h-1l1 1 2 1v-1zm-42-6v-5l1-1-4-1-3-1-1 5-1 5 2 1 4 1h2v-4zm32 2-2-1v1l1 1 1-1zm-42-7 1-4-2-2-2-2-1 1-1 6-1 5h1l3 1h2v-5zm351 1v-1l-1 1-1 1 1 1 1-2zm-359 0-1-1-1 1 1 1 1-1zm44 0-12-7v2l5 3 5 2 2 1h1zm48-11-3-1-3 1v3l3-1 3-2zm-7-4 1-6 1-3h-1c-1 0-3 3-3 7l-1 4h1l2-2zm16-4 15-6 9-3 7-2 6-2 3-2 5-3a4405 4405 0 0 0 34-14l1-2 5-1a1792 1792 0 0 1 70-27 785 785 0 0 1 26-10l5-1 3-1v2c0 2 2 1 3-2l1-3-2-2-3-1h-1v-7l1-7-4-3-2 2-2 3c0 1-6 5-11 6l-6 3-2 1-7 3-27 11a1019 1019 0 0 0-68 29 898 898 0 0 0-65 27l-3 2-2 5-2 7v2h2l11-4zm104-7v-1l-2 2-1 2v1l2-2 1-2zm-1-4-1-1-1 1-1 1h1l2-1zm7-3 2-1h-2l-2 1h2zm-124-14 3-6a162 162 0 0 0 20-31l1 1-3 6-3 6-5 9-5 8 4-1c5-2 9-5 10-8 0-2 2-3 2 0v1l2-1c4-1 8-5 10-10s3-9 1-9l-9 11-3 4h-1l1-2 2-4 6-9 4-6v-4l1-4 4-2h3l-1 2-1 4v3h4v1c0 2 2 4 3 4l4-8 4-9 5-8 3-8-1-5h-2c-3 0-8 5-12 14l-5 8-1 1v-1l11-22 2-3v-2l-1-1-2 1-2 2-2-2-2 2-2 5-6 11-6 12c-2 3-9 10-11 10l-5 1-4 1-4 7-5-2-7 3-3 5-6 9-5 8-4 3h-1l2-3 7-10 5-9v-1l-2 2-6 3-7 4-2 4v2l4 1v1l-1 1-6-1-1 3-1 4a117 117 0 0 0 14 7c2 0 5-3 5-5l1-3h1l-1-1c-3-1-1-3 1-2h2l1-2a82 82 0 0 1 9-16l2-2h2l-3 5-16 29 3 1 2 1 2-3 3-5zm152 2h-2l-1 1h1l2-1zm-181-13 4-5 1-3-3 1-4 2-2 2-1 1-1-1 6-10a323 323 0 0 1 7-8l1 1-3 3-4 8 11-7h2c3 0 10-4 14-8l3-3v1l1 2 6-3 6-3 1-3 4-9 2-3-1-2-3-1-4 5a116 116 0 0 1-10 14c-2 0-1-2 1-5l5-7 3-6 1-2-1-2-4-2h-2l-7 10-9 16-5 7h-1v-3h-4l-4-6h-5l-6 1-5 11-6 10-3 1-1-1 3-3 5-9 3-6 7-8-2-1-1-1-1 1-3 1h-2l-3 4c-8 11-12 19-11 21l5 4 5 2 4-6 7-12 4-6 2 2-3 4c-3 3-5 7-9 16l-2 4 4 2 5 2 3-4zm-23-9c-1-2 1-4 2-4v3l-2 2zm6-11v-1l1 1v2l-1-2zm207 12a720 720 0 0 1 38-16l-1-2-20 9a163 163 0 0 1-19 9l-9 3-1 1c0 1 7-1 12-4zm-85 1 5-2 6-10 7-11c2-1 1-2-1-2h-2l2-3 3-4 1-2h-4l-2 5-3 6h2l2 1-3 2-5 3-4 8-2 6h-2l2-5 2-5 2-4v-4h-1l-1 2-5 10-6 9-1 2h2l6-2zm20-12 3-6 5-8 4-8 8-19c1-2 0-3-2-2l-3 7a863 863 0 0 1-26 44l1 1 4-2 3-2zm-54 3h-3l-1 3v3l2-3c2-1 3-3 2-3zm10 2-1-1v-1c0-1-3-4-4-3l-1 4v3h3l3-2zm-109-4-1-1-1 1 1 1 1-1zm8-4 3-6 1-2v-1h-2l-2 1-1 1-2 6-2 5 1 1 4-5zm154 1 1-4 1-2 3-5 7-14 1-3 2-2-1-1-1-2c-2 1-13 23-13 26l-2 4-3 5v2l2-1h2zm-60 1-2-3-2-3-1-1h-1l3 7h3zm18-4 2-5 1-2-2-1-1-1-2 2-2 2 1-3 1-5-1-1c-1 0-9 13-9 15v1l2-1c2-2 4-2 4 0v2l2-1 4-2zm53 0 6-3 3-6a151 151 0 0 1 8-15v-1l-1 1-6 1h-4l-3 5-4 7-5 10-2 4h1l7-3zm65 1v-2l-1 1-1 1c0 2 2 1 2 0zm24-3 2-1-4-2-1 1-2 2h5zm-214-6 7-12c3-3 5-8 5-9l1-2h-1l-4 1h-3v5l1 4-2 1-3 3-1 3-1 4-3 4v3h1l3-5zm199 3h-2l1 1 1-1zm-113-1h-3l2 1h3zm57-1 3-2h2l1-2 8-14 4-8-7 2-6 3-4 7-7 11-2 4h7zm-101-11a396 396 0 0 1 14-25l3-5-1-1-2 1-2 1-3-3-1 1-3 4-2 3h-2l-3 1c-1 1 0 2 1 2v6l-2 6c0 5-2 9-3 9-2-2-4 0-6 5l-3 5v1l12-6zm48 8 2-4 5-8 2-5-1-2-3-3h-2l-6 11a61 61 0 0 1-9 12v1l9-1v1c1 1 3 0 3-2zm5 1 7-10c1-1 0-4-1-4l-5 7-4 8c0 2 2 1 3-1zm-128-1 2-2-1-1c0-2-3-3-3-1l-1 4v2l3-2zm115-9 2-2 6-12-4 1-3 1-2 3-4 7c-2 5-3 8-1 9 1 1 6-5 6-7zm81 4 8-4a386 386 0 0 0 15-26c-1 0-5 1-9 4l-9 4-3 5a664 664 0 0 1-12 20v1l2-1 8-3zm-48-13 5-9 2-5-3 1-5 2c-2 2-2 2-2 0l-1-1h-2l-3 4-1 3 4 4 4 4 2-3zm87-7 3-9 1-5 1-2h-1l-7 12-5 8-1 3v1l7-3zm-124 5a200 200 0 0 0 19-33l1-2-2-2-5 1-2-3-2-3-4 2 1 3v4l-2 1-2 2 1 5v5l-4 2v3l1 2c1 1 5-4 7-10 3-6 5-9 5-6l-7 13-1 3-1 2-2 5-3 5-1 2c0 2 2 1 3-1zm62 0 3-2 5-4 7-13a12469 12469 0 0 1 7-14c0-5-9 1-12 7a2418 2418 0 0 0-11 22l-3 5h1l3-1zm-5-3 2-3 1-3 2-3 1-3 3-7 3-5c0-2-2-1-6 1l-4 3-3 6-3 7 1 5a524 524 0 0 0 2 4l1-2zm79 1-1-1h-1l1 1h1zm-118-11 5-7h2l1 1-3 4-5 8 3 2h3l3-3 2-5 2-4 1-2-1-3-3-6-3-3-5 1-4 7a489 489 0 0 0-9 16l-1 2h8zm61 6-1 1 1 1v-2zm5-1-1-1h-1l1 1h1zm-31-8 2-5c0-2-2-1-5 3-2 3-2 5 0 5l3-3zm-13-5a429 429 0 0 1 14-33l-2 1-4-5h-1l-1 1 2 2-1 2-2 4c0 1-1 3-3 3l-2 2 1 1 1 6v4h-2c-2 0-2 3-1 4l1 2v2l-2 3-1 1-2 4-2 2h4zm7 3a178 178 0 0 1 7-14c4-9 8-14 9-14l2 1v2l-7 7v2l-2 5-2 4 3-1 2-1 4-9 4-10-1-3-2 1c-2 2-4 1-5-2s-3-4-3-2l-2 7a208 208 0 0 0-10 25l1-1v1l-1 2-1 1c0 2 3 1 4-1zM115 1460l-1-1 1-2 2-1-1-3-1-3 1-4 1-4 1-4c0-2 2-3 2-3h2v17l-2 2-1 1 1 1 1 3v2h-3l-3-1zm132-14-1-2v-2h2l3 2v2h-4zm-128-14-1-2v-29a523 523 0 0 1 1-71l1-24-1-1-1-2 1-17a606 606 0 0 0 1-52l-2-56c-1-12 0-23 1-25l2 1h1v9l-1 8 2 3v30a4218 4218 0 0 0 4 127c1 13 0 17-1 16l-1-11-1-9-1-2-1-2 1 15v15l1 2 1 2-3 54v20l-1 1-1 1-1-1zm5-116-1-3v4l1 1v-2zm0-13v-10l-1 4-1 5c0 2 2 3 2 1zm88 116c-1-2 1-5 3-5l2 1v3l-1 2h-2l-2-1zm2-13-1-30 1-22 1-1c1-1 3 0 2 1v25l-1 26c0 2-2 3-2 1zm-19-4v-4c1-5 4-8 5-8h1v3l-2 7v3h-2l-2-1zm5-20-1-1h3v1l-1 1-1-1zm-1-5h2l-1 1-1-1zm8-9 1-7h2v14l-2 1h-1zm47 7 1-1 1 1-1 1-1-1zm-54-2v-9c1-3 2-1 2 4s-1 7-2 5zm0-13-1-10v-9h1l2 1v9c0 8-1 11-2 9zm121-14 2-2h1l2 1 1 2h-3l-3-1zm-5-12v-2l2-1h1l3 3v1l-1 2h-5zm-117-6 2-6v-1l1 1v11h-3zm-60-4 1-4-1-1-2-2v-31l2-4 5-8 7-4 2-1 2-4 1-4 3-3 6-3h2l3 4c3 4 4 8 3 10l-1 1-2-3-3-4-2-2-2 2-4 7-9 11-7 7-1 19-1 20-1 1h-1v-4zm170-4 1-26 1-22-4-1-2-6 1-4c1-5 1-22-1-24v-1l3-3v-10h1l2 2 1 3 1 2h-1l-1 3-1 3 2 1 1 2 1 18a604 604 0 0 1-1 29l-1 4 1 1 1 17v15h-5zm-125-35-1-2-3-6-4-6c0-2 3-1 6 3l4 5v3c0 4-1 5-2 3zm60-3v-19l1-2h-1l-1 2-1 1h-1v-2l2-10 2-8 1 3 2 18v16l-1 2-3 1h-1zm-9-13-1-2v-2h3v2c0 2-1 3-2 2zm93-7c-1-2 0-5 1-5 2 1 2 5 0 6l-1-1zm-93-1-2-6v-5h3v2l1 6v4h-1l-1-1zm-89-7c-2-1-3-4-1-5l1-5v-4h4v2l-1 7-1 5h-2zm184-6-1-3-2-7-1-4 1-1 1-1-3-4 1-7 1-9 2-3c2 1 2 5 1 8l-1 2v4l2 13 1 9-1 2-1 1zm-89-4c0-3 0-6 3-10l3-4-1-5v-4l-4 5v-2l1-5 1-2-1-3-1-2 1-2 1-2v-17l-1-1-2-2 1-3 2-6 1-2-2-3-1-3v-5l1-6 1-7v-6l-2-2-1-2v-2l1-1h3l3 1 1 4 1 5-1 8v8l1 2c2 3 5 13 5 16l-1 1-3-8-1-6-3-3-3-2 1 3 2 6 1 4 1 1-2 2-1 2 2 2v3l-1 3h1l1 4 1 3-3 12 1 2 1 10v7l-1 1-1 3-1 3-2 4c-1 3-3 5-3 3zm235-1c-2 0-4-5-4-8v-3l3-1 6-1h2l1 4-2 9h-6zm-116-1 1-5c1-5 0-20-1-21l-1-2 1-4v-5h4v3l-1 3 1 1h2v13l-1 15c-1 2-4 3-5 2zm-128-2-1-1-1-10v-12c0-2 3-1 2 1l1 4 1 1v6l-1 6 2 2 1 3h-4zm-84-7-1-3-2-4c-2-2-3-6-2-11l2-6 2-2 1 1v12l-1 3 5 2v2l-2 4c0 3-1 4-2 2zm20-1 2-2 1 2-1 1-2-1zm71-3-2-5 1-1 1-1 1 3 2 5v3h-1l-2-4zm-82 0-1-2 1-5 1-5 2-2h2v2c-2 3-2 5-2 10l1 3-3 1zm322-1-2-2 1-5 1-7 1-5 1-6c0-1 2 0 3 2l3 2v16l-2 3-3 3-3-1zm-171-7-1-2-1-12a300 300 0 0 1 0-45l1-25 1-1 2-1 1 1v28a2788 2788 0 0 1-1 56l-1 2zm-70-9-1-8v-7h3v17h-1l-1-2zm234-1-1-2 1-8 6 1v11h-5zm-144-6c0-2 1-5 2-4l1 2c0 2-2 4-3 2zm-160-4v-2l2-4 2-4-1-1-1-1v-3l1-2 1-1h2v5l1 5-1 3-3 5-2 1zm308-3-4-2-1-1 5-2 7 2v4h-2l-5-1zm-243-5-1-10 1-6h1l1 2 1 3v1l1-1 2-1 1 2v2l-5-1v5l-1 8-1-4zm23 2 1-2 1 1-1 2h-1zm99-2v-1h2l2 2v1h-4zm-116 0h2l-1 1-1-1zm117-4-2-2 1-2 2-4 2-3 2-2-1-5a66 66 0 0 0-11-29l-3-6-1-3-5-4-5-6v-1h2c1 0 4 1 5 3l3 2v-1l-1-4-1-2-3-1-2-1-1-1v-2l7 1h7l6-1 11-2h3l-1 2h4l-1-1v-2h8v1h8l13-2c4-1 7 0 7 1l-2 2a404 404 0 0 1-44 5l1 14a644 644 0 0 1 1 34l1 1-1 1-1 3 3 3 3 2-1 1-4 1-3 1-1 1 1 3 1 1 3-1 2-2 1 1 1 2c-1 2-4 4-9 5l-3 1-2-2zm5-32v-3l-1-1v5l1-1zm0-18-1-12-1-1c-2-2-3-5 0-5l1-1-2-1h-3v21h2v-14l1 1h1v11c0 10 0 13 2 13v-12zm-4 6-1-2-1 2 1 1 1-1zm-4-10a193 193 0 0 1-2-14h-1v15h1l1 2 2 5-1-8zm-5-14-1-1v1l1 2v-2zm20-6h-3l-1 1h3c1 0 2 0 1-1zm10-1-1-1-1 1 1 1 1-1zm93 76-4-2-2-1v-2l1-2 4-1 1 2 2 2h5v-2c0-2-1-2-2-2l-3-3-1-4v-2l1-1h4v-7l1-7-2-3-1-13-1-12-1 15 1 14 1 5c-2 1-3-1-4-7l-2-8-11-18-5-6-4-4-1 1-2 1v-4l1-3 2 1h1v-5h4l1-2 1-2 2 1-1 13 1 3 2 3h1l-1-8a1363 1363 0 0 1 1-12h1l1 4 1 3c0-3 2-7 3-7v15l2 16c1 5 2 1 1-11v-16l1-1 1 1 3 2 2 1 1 4 1 8 2 3-1 3v3l1 15v14l2 1 2 4 1 2-2 3-2 5v3l2 1c2 1 3 5 1 5h-3l-2-1-3 1-3 2-3-1zm-6-62-1-7-1-2 2 14v-5zm-320 59-2-3v-4l1-6c2-4 9-10 11-10h1v4l-2 1c-3 1-8 8-8 10l4 4 3 5v1h-6zm181-4-2-3v-18a255 255 0 0 1 2-25l2 2 1 25 1 23h-1l-3-4zm-163 1-3-3-1-5c0-4 4-8 5-5v2l-2 3v2h2c2 1 4 5 2 6h-3zm66-15c-1-4-1-7 1-6l1-1 1-1h1v10c1 1 0 2-1 2l-3-4zm121 2-1-3-7-15-2-3c-2-4-8-11-13-15-3-2-5-5-4-5 1-2 4-1 10 5l8 9 4 7 6 11 3 8-1 1-2 1zm114-3-4-7-3-7-2-3-8-10-2-5-1-3-4-4-7-5-4-4-1-4c1-2 3-1 4 2l2 4 4 1 4 2 3 5a626 626 0 0 1 14 20l4 4 2 7 2 7-1 1-1 1zm-297-2c-1-1 4-5 6-5l1 1c0 1-4 5-6 5l-1-1zm92-2-1-6-1-4h1c1 0 2 2 2 5l1 5v1zm-21-9-1-4 1-1 2 2v6l-1 1zm-94 0-2-5 2-3 4-1 1 1-1 2-2 2 1 1 1 4v2h-1l-3-3zm87-2-2-5-1-3 1-4 1-4 1-15 1-16 2-2h1l-1 2v16l1 2 2 2-1 10-1 10v-3l-1-2h-2l-2 2 2 4 3 5v3h-1l-3-2zm3-19v-3h-1v4l1-1zm1-7h-2l1 1 1-1zm-69 23-2-3 2-14c2-2 4-1 4 1l1 2-2 2-1 2-1 5v3l2 1 2 1-3 2zm90-1-2-6-4-16-1-3-3 7-3 7h-1v-6l1-5h-2l-1 1v-1l2-5 1-4-1-1-2-2 3-5 2-6v-3h1c2 1 2 7 1 10l-1 3 1 3 3 4 2 4a984 984 0 0 0 6 25l-1 2zm-10-26v-1l-1 1-1 1 1 1 1-2zm-90 26-1-2 1-3 1-2v1l1 5v2zm-18-10c-1-2 0-5 2-7 2-1 8-2 11-1l2 2c0 1-4 2-8 1h-3l-1 3-2 3-1-1zm176-10-2-5v-3l2-1 6-1h3v1l-1 2-3-1h-3v2l3 2 2 3-2 1-3 1-2-1zm-76-9v-3l2 4-1 1-1 1v-3zm175-7v-2h4v3h-4zm20 0 1-1 2 2h-4zm40-9-7-2-4-2-1-1v-2l6 1 8 1c2 1 3 5 1 5h-3zm-4-13-5-1-1-4 1-2 3 2 3 1v-1l-5-7-5-5v-4l1-3 2-1h2v1l-1 3-1 2 5 5 8 8 1 5v2h-2l-6-1zm-325-14-2-4-1-3-1-17-1-20a24114 24114 0 0 0 1-113v-20l2-1 6-2a347 347 0 0 1 34-7v7l4-1-1 6-1 7-2 1h-1v-3l-1-6v-4h-2l-6 2-12 4-11 3-1 1v27a2228 2228 0 0 0 0 110v3l-1 2-2 2 2 1h2v3a9666 9666 0 0 1 1 16l1 1 4-2 1 1c2 1 6 0 6-1l-2-1-3-1 8-4h3l1-6 2-7 1-1c0-2-4-1-8 1l-5 2 7-6 3-1h3l2 1 1 5-2 5 1 3v8l3-1 4-1 1-3-1-5a29597 29597 0 0 0 1-111l-1-31 1-1 1-1 2 2 1 65v66l-1 1c-2 2-2 6-1 6l1 2 1 3 1 1v5l-1 6h-4l-14 2-22 5-2-1zm3-8h-2l1 1 1-1zm0-4h-2l1 1 1-1zm324 8-2-4-2-6-4-7-1-3 1-4 1-6 3-2h1v-2l-3-7-4-5v-3l2-7 2-3 2 1 1 2-1 1-1 2-1 2 4 7 5 8 1 4-1 1-1 1-4-2v2l-1 3-2 4v3l4 4 3 6 2 11c-1 2-3 1-4-1zm-316-13c-1-2 1-6 3-6l1 2-2 4-2 2zm77 1 1-2 1-1v1c1 2-1 4-2 2zm-48-9 1-1v2l-1-1zm44-3v-2l1 1 1 2-2 2zm-74-13v-13c0-3 2-8 4-8s3 0 5-2l6-3 4-1 1 1 1 6v5l-1 2-1 1 1 1 1 5v4l-4 4-5 3-4 2-6 2h-2v-9zm7-1 2-3v-1h2l2-1 1-7v-6h-3l-6 2-2 1v16h1l3-1zm7-1-1-1v1l1 1v-1zm59 8 1-1v2l-1-1zm-31-16 1-2 1-1v4l-2-1zm273-12-4-7-3-3v-5c1-5 4-13 6-13l1 1-1 6-2 7 3 5c4 3 5 8 4 11-1 2-3 1-4-2zm-316-14-2-2-1-1 3-2c2-1 5-2 6-4l2-2h2l4-1 2-8v-7l-4-3v1l-6 4-5 2v14h-3v-3c-1-5 0-11 3-14 1-2 4-4 7-5l4-2 5 1c4 1 7 3 7 6l-2 4-2 1 1 14-2 4h-7l-1 2-2 2h-3l-6-1zm320-11-3-8v-2l-3-1-4-3c0-3 1-12 3-13l1-1 1 1 1 1-1 1-1 4-1 3 2 2 4 3 3 6c2 6 2 9-2 7zm5-14-1-11 1-1 1-1 1 1 1 12v11h-3zm-326-15-2-7v-6l2-7 3-2 4-3 14-2 3 1 3 3v8l1 8-1 2-5 1-5 1c-2 2-10 4-14 4l-3-1zm8-8 3-2 10-1v-9l1-3h-2c-2-1-6-1-10 1l-5 3c-2 2-4 8-4 11 0 2 1 3 2 3l5-3zm15-2-1 1 1 1v-2zm292 6-5-5v-10l3-3 3-4 2-1 2 1 1 3h-5l-1 2-2 5v2l5 6 5 7-2 1-2 1zm10-14-1-7v-3l-3-3-7-5c-2 0-3-2-3-2 0-2 3-2 5 0l8 4 7 4-1 3-2 3 1 5v5h-4zm-324-10-2-1v-5l1-8 1-4 3-3 5-3 2-1 6-2h5l1 2 1 11 1 8h-1s-2 1-2 3l-2 3h-2l-4-1-1-1-2 1-4 2h-3l-2 1-1-2zm9-6 6-2h1v-4l2-7 1-4v-1h-2l-8 4-5 3-2 5v6l2 2 5-2zm191-16 4-15 2-5 4-12 4-10a331 331 0 0 1 40-66l4-4h1l2 3-3 4-6 8a263 263 0 0 0-20 31 245 245 0 0 1-13 24l-2 5-4 10-3 7 1 1c1 1 0 4-2 4l-3 4a8964 8964 0 0 1-6 11zm106-77-1-3v-2h1c2 0 4 2 4 4v2h-2l-2-1zm-325-11v-3l-4-5-4-5-2-2-3-3-1-2 1-2 3-1h2l-1 2v3h1l2-2 5-4 4-3v-2l-1-1-2 1-5 2-4-1v-3l4-4 6-2h3v-12l2-1c1-2 3-2 3 0l3 3 3 1v3l-1 2h1l1-1v3l-1 6-1 3 4 4v6l1 5h-4l-2-4-2-3-1 1-3 2-5 3-3 3 5 5v2l-1 2 2 2 1 3-1 1h-5zm8-27a331 331 0 0 1 3-13l-1-3-1 8-2 11 1-3zm0-16-1 1 1 1v-2zm357 42-1-4c0-3-1-8-4-10-2-1-5-7-6-10l-1-2h3l-3-1-4-2c0-2-29-32-31-32l-10-6-13-8-12-5-7-3-1-1v-2h2l5 1 5 2 9 5a120 120 0 0 1 19 11l3 3c1 2 4 3 6 4 1 0 7 5 11 10l9 9h2c2 0 7 5 12 11l4 8a735 735 0 0 0 9 21v2h-3l-3-1zm-55-12-11-9c-2 0-4-2-5-3l-2-2 2-1 5 3 6 3 7 7c4 3 7 7 7 8l-1 1-8-7zm14-3-6-7a136 136 0 0 0-24-17l-2-2 1-1 1-1 3 2 6 2h3l10 10 12 14 2 5v1l-6-6zm-41-11-1-4-2-4h1c2 0 6 6 6 8l-2 2h-2v-2zm-303-1-1-2v-8l1-7 7-13-1-1-1-9v-12l-1-5 2-2 2-1-5-4v-6c0-7 1-15 3-15l1 4v3h2l3-2 3-5c2-4 6-9 8-9h2v2l-2 4-10 11-7 10 3 4 6 6 2 4-1 4-5 18-4 10-4 8v5l1 6 4 1-1 1-4 2h-2zm12-48v-5c-1-4-2-2-2 3v5l2-3zm270 38c-1-1 0-2 1-1v2l-1-1zm-271-1c-1-2 3-9 5-11l2-1 1 1-2 3-3 6-2 3-1-1zm60-11 3-6 3-6v-3h2l1 1-6 15-2 3h-1zm-4-2 2-4 1-5v-3l2-1h2l-5 14-2 1v-2zm-3 0c-1-1 3-13 4-13l1 2-4 11-1 1zm-1-10 3-10 9-20 1-2 2 2-4 9-6 13c0 3-2 6-3 7l-2 2zm-5-3 1-3 2-5 6-15 3-6 2 1-2 4-2 5-5 13-4 7-1-1zm-9-9-2-2-1 1-1 2h-3l-4-1-1-1v1c0 2-3 1-4-1l-1-5v-4h1l2 1 1 1 1-1 2-3 2-2h-2l-5-1-3-1c-1-1 3-3 7-3l6 1 7 2h3v4l-2 6v2l5 2v3l-7 1zm-1-7-1-1h-2l-3-1 2 4 1 2 2-2 1-2zm-1-5h-2l-1 1h1l2-1zm35 13v-2h1v1c0 2-1 2-1 1zm293-2c-1-2 0-3 2-3h2v4h-2l-2-1zm-21-7c-2-6-3-10-6-13l-3-3h2l3 2v2l2 1 2 1 2 5 1 6c0 2-2 1-3-1zm-293 0v-3l2-3 2-5 3-4v2l-2 4-4 10-1-1zm250-2c-2-2-2-4 0-3l2 3v2l-2-2zm-286-1-2-2v-7l3-6 5-6 1-1v2l-3 6-3 4v3l1 5 2 2-3 2zm32-4 5-12 4-7c2-1 2 1 1 3l-6 13-3 6-1 1zm238-4c-5-5-6-7-4-7l5 5 4 5 3 3h-1l-7-6zm-280-4 1-5 3-3 3-5 3-3 2-2 2 2-5 8-6 11-2 2h-1zm42-4 2-8c1-4 3-6 4-6l1 1-4 12c-1 2-3 3-3 1zm312-4-3-3-2-2-1-2-1 2-2 1-1-1v-4l-1-3h-1l-1 1-1 1-3-2-1-3v-3h-2l-2-1 1-1v-2l3 1 4 2 2 2h1v-22l2-2v1l1 14 1 12 8 7 1 5v4l-2-2zm-334-7v-1l2-5 1-4h3v1l-5 10-1-1zm-28-6v-2h8c0 1-2 3-5 3l-3-1zm-7-4c-1-1 1-3 3-3 1 0 2 2 1 3h-4zm9-1-2-2-1-13 1-1 9 1-1 2-2 2-4-2v2l-1 1 2 2 4 8h-5zm-18-2c-2-2-2-11-1-11l3 2 2 2v5l2 1v1h-6zm33-1-3-3-1-2 1-4c0-4 4-10 7-12l3-1c1 1-3 8-6 10l-2 3c0 2 4 6 6 6s1 2-2 3l-2 1-1-1zm23-4-1-2-1-4v-3l1-2 3-4 1-3 4-2 4-1 1 1-3 3-4 4-3 3-1 2 1 1 1 1 2-1 2-2h1l-1 1-2 4-2 3-1 2-2-1zm7 0 3-4 2-4 2-1h3l-3 2-2 3v1l4-2 4-2-4 4-4 4h-5v-1zm284-5c-7-8-19-17-24-20l-4-2-3 2-1-1-1-3-1-2-5 1v-5l-1-4 2-4 1-5-1 1-2 1-1-5-1-4 1-2 3-1c2 1 3 6 2 7-2 0-1 2 1 1h1v-5l2-2 14-5 17-7 8-2 8-2 6-1-2 3c0 2-2 3-4 4l-4 1h-1v11l-2 1-4 3c-2 2-8 4-12 4h-3l-1 2-1 5-1 3-1 3v2l-3-1v4c0 2 0 3 1 2l1-2h1l-1 4 3 3 3 3 1-8-1-8h-1l1 7v6h-1l-2-6-1-5 1-1 1-3v-2h2c2 0 10 7 10 9v1h9v1l-1 2-1 1 3 2 4 1v13l-1 3v-4l-2-5-4-4-3-3 1 8 1 10v2h5l-3 3-8-6zm1-14-1-5-1 1v12l3 3v-3l-1-8zm-5-2v-5l-2-1v6l1 6 1-6zm-18-8-2-12-1-6-1-2v6c0 7 1 13 3 14h1zm-12-6-1-2h-1v1l1 2 1-1zm19-12 2-6h-5v10l3-4zm-6-3c-1-1-1 0-1 2l1 2v-4zm18-1 2-1h-2l-2 1h2zm5-9-1-3c-1 0-2 4-1 7v3l1-2 1-5zm-5 4-1-1-2 1-1 2h4zm10-6c0-2-2-4-3-3v3l1 3 1-1 1-2zm6 59 1-1 1 1-1 2-1-2zm-313-1-2-5-1-3 1-3 5-6 5-2h3v1l-1 2c-2 0-8 3-9 5l-1 2 3 9-1 1-1 1zm-56-4-1-1 3-1 3-1-1-2-2-3-2 2c-2 2-4 2-4 0l8-4 3 2 1 2h2c3 0 16-5 20-8l8-3 6-2 1 1 1 2-5 1-14 6c-14 7-18 9-23 9l-4 1zm365-1c-1-2 0-6 1-5v5h-1zm-380-1-2-1-1-3h3l6 1h2v4h-3l-5-1zm101 0v-2l7 2h-7zm-114-5-2-4 3-5 3-3h22l1-2 3-1c2 0 1 2-2 5l-4 2h-9l-10 1 1 4 1 5c-2 2-5 1-7-2zm30-19 3-2 6-2h2l-1 2-1 3h-5l-4-1zm106 0 3-2c2 0 5-2 5-4v-1h4c3 0 7-1 23-8a213 213 0 0 1 42-13l6-2 5-2a300 300 0 0 1 25-10 596 596 0 0 1 74-25l9-3 9-4 7-1a160 160 0 0 0 35-12l3-1 5 1-1 1a161 161 0 0 0-32 12 658 658 0 0 0-53 18 231 231 0 0 0-34 11l-12 5-10 3a662 662 0 0 0-77 27 329 329 0 0 0-33 10l-4 1zm-82-8c0-1 1-2 3-1v1h-3zm76-9c0-2 2-5 3-5 2 0 1 2-1 4l-2 2v-1zm-39-9 1-2v2l-1 2v-2zm40 0c0-2 4-8 6-9l2 1-4 5-4 4v-1zm218-2 2-2 6-2 16-6 13-4 18-6 3 1c0 1-4 3-7 3l-5 1-12 5-12 5-21 6-1-1zm-258-3 1-2 1 1-1 1-1 1zm0-4v-4l1-2 1 3v2l-2 2zm16-4v-2l1 2v2l-1-2zm68-1v-4l3 1 4 2 2 1h-9zm9-4-1-1 2-5-3-3v-6l-2-1-2-2v-1h4l2 3 9 9 2 1v1h5l7-3 3-1-1 2-4 5-2 2h-13l-4 1zm-53-2c0-2 5-10 7-12l2-1 2 2-3 3-5 6c-1 3-3 4-3 2zm45-2-2-2-6 1-2-1-4-1-5-3-1-3 1-7 2-1h3l1 4 1 5 5 1h4l-1-3v-4h3l2 4 1 5-1 2 3 2 2 3-2 1-4-3zm52-2-1-3-1-3h3l1 3v2l-1 1h-1zm-85-12c-1-1 1-5 3-5v3c-1 1 0 1 1 1h2v1h-6zm67-3c0-2 3-5 4-4l-3 5-1-1zm-29-4-1-5v-2h2l5 2 4 2c2 0 7-6 7-7l1-2 4-2 4-2c3 0 1 3-7 10l-7 8h-10zm-18 0-1-1 2-2h8c3 1 2 2-2 2l-6 1-1 1v-1zm-167-5-2-1-1-5-1-5 2-2 3 3v4l-1 3h2l4-2c1-1 4-3 7-3l6-3 2-1 8-3 7-3h1v3l-8 3-8 4-6 2-4 2-8 5-3-1zm264-1-4-3-4-3v-1l2-1 2-1-1-2c-3-1-2-3 1-3l2-1v1l2 4 1 1v-10h4l6 6h4l7-1 3-1-1-2 1-4v-1l3 1c4 3 9 4 13 4h4l1-3 1-3v-1l-5 1v-1l3-4 4-2 2-3 2-3-1-3v-2l3-4 2 1 1 1 2-5 3-4 7-3v-4l1-8 2-4-1-5-2-5 1-5 3-7h1v4l1 7 1 3-1 1v6l1 1-1 3c-1 2-2 3-1 4l1 6v5l-8 1-1 5c0 2-1 5-3 6l-4 4-3 2-1 2-2 6v4h-2l-3 2v1h2c3 0 4 2 1 2l-6 5-7 4-10 2-8 2-1 1-4 2-3 3h-6l-7-1zm11-4v-1h-4l1 1 2 1 1-1zm9-4 5-2 1-1h-3c-4 1-10 2-13 1l-3-1 4 2 5 2 4-1zm15-4c1-1-1-2-4-2h-2l2 1 3 2 1-1zm30-35c0-2-2-1-3 1s-2 3-1 4v1l2-2 2-4zm-136 45c-1-1 4-4 7-4h1l-3 2-4 3-1-1zm215-7-3-3h-9l4-3 5-2 2 3 2 4 2 1h2l1 2v2h-1l-5-4zm-185-2 2-2h1v-4l-1-4 1-2 3-3c2 0 3 3 1 5v7l1 1-1 1-4 2-3 1v-2zm126 1 9-3c2 0 3 2 1 2l-6 1-4 1zm-196-3 2-4a273 273 0 0 0 15-16l1 1-5 6a412 412 0 0 0-12 14l-1-1zm-165-2 1-5 1-9v-5l-5-2 1-3v-3h-1l-1-3v-1h2l3 1 1 1v-1l-2-5h-4l-5-4-4-3-2-4-3-6v-4h3l2 1h2v2l1 3 1 3 3 4 3 2-2-5c-3-5-4-8-2-8 1 0 8 9 10 14l2 5 2 2c1 1 7-1 7-2l-3-1h-3l-2-3-6-14 1-2 3 5 4 9 2 2v-2l-3-5-1-3v-5c-1-5-3-12-5-13h-1l-2 6h-4l-6-7-1 3-1 3-7-1-3-3-2-4 1-2 4 3 4 3 3-3 4-2h2l1 2 3 3 1-2 1-1h2c4 0 6 1 6 3l1 3 1 3 2-3 3-6 1-2h5l1-3c0-2 1-3 2-3l3 1 1 2h-4v2l-1 4-5 1h-3l-1 5 1 5c2 7 7 17 8 17l12-5 11-5h3l2 1-11 6-4 1-9 6a153 153 0 0 0-20 11l-2 1 1 1 4 2 18-8a311 311 0 0 1 19-10c4-1 9 0 9 2l-3 1c-6 2-16 5-18 7l-14 7-13 7-1 2 1 2-1 4-1 3 1 1 1 1 3-2 3-2 6-3 10-4 6-3 4-1 5-2h2v3l-7 3-8 3-21 10-5 2h-3zm18-38-2-6-4-7-2-4c-2 0-2 3 2 10l3 8h2l1-1zm243 39-1-1 2-2 3 1 3 2v1h-3l-4-1zm96-1 1-4 2-2-1-6-2-11-2-5 1-1 2-1 2 1v2l1 3 2-2 1-3-1-1-1-2-1-3-2-1v-4l-1-6-1-2 2-2 2-1-2-1-1-1 1-8 1-9c2-1 4 2 4 6v10l-1 6 1 3c2 7 5 42 4 45 0 2-2 1-3-2 0-2-2-3-2-1l-2 2-3 2h-1zm7-20-1-1h-2l1 2c0 2 2 2 2-1zm-156 18c-2-1-1-2 3-2l4-1 2 1 3 2h-12zm174-1 4-4v2l-3 3-1-1zm25 0 3-2 3-1 1-3 1-3 9 3 7-2 8-2 1 1-10 3-13 5c-5 2-10 3-10 1zm-56-1v-11l-2-2-1-2v-12l1-3 3 1v4l-1 5-1 2 2 4 3 5 2 1c2 0 1 2-1 3-3 1-4 2-2 3l1 2h-4zm-67-3-4-2v-1l9 1 3-2 4-1c2 0 1 2-1 3-3 2-8 3-11 2zm105 0c-1-1-1-2 1-2l1 1-2 1zm-208-2 7-9 5-7 2 2-3 4-5 6-4 4-2 1zm30-3-3-5-4 1 2-2 3-2 5 4 7 5h1v1l-4 2h-4zm15-3v-1l4-2 5-1c1 1 3 4 2 5l-3-1-2-1-3 1-2 2-1-2zm14 0-1-3-2-4-2-3v-10l2-2 3-2 1 1-2 5-1 5 1 2c2 2 4 11 3 12 0 1-2 1-2-1zm158 1h-2v-4h3l4 1h6v1c0 3-5 3-11 2zm-130-2c-1-2 2-7 4-8h11l3 1 5-2-1-2-1-1 5-5 7-5 2 1v1l-8 7v2c0 1-1 4-3 5l-3 3-15-1-2 2-3 3-1-1zm36-2-4-3c0-2 3-2 5-1l6 2h4v3h-3l-4 1-4-2zm96-5 1-1 1 1-2 1h-1zm-140-1c-1-1 0-2 1-3l7-6 4-4 8-1 1-2 6-8 4-5v-2l-1-2 2-4 4-5h3l-1 2-3 4-1 3h2l8 2 6 3-1 1-3 2-4-2-4-2h-2l-2 4c-1 3-3 5-4 5l-5 7-4 8-1 1-1-4v-2l-4-1-2 3-2 4-5 2-5 3-1-1zm-47-2 3-5 3-4 2 1-2 2-3 5c-1 2-3 3-3 1zm-75-1c0-1 12-7 23-11l15-6 12-5 8-4 3-1 2 1 2 2-3 1-3 1-5 1-4 2-1 1 1-1 2 1c1 1-3 2-4 1l-2 1-1 1-4 1-6 1-12 5a347 347 0 0 0-23 8zm86-4 1-3 1 1-1 2h-1zm192 0v-2l14-4 21-8 7-2v-7l-5-10-8-15c-1-3-4-5-6-7l-3-3 1-3 2-1 1 1c3 1 5 4 9 9l6 10 4 7 1 5 3 18-1 1-5-1-3 1-17 6-5 2-15 4-1-1zm-108-3h-2v-2l1-2 11-1v2l-2 1c-3 2-7 3-8 2zm-191-9 1-5c0-2 3-4 4-6 1-5 4-8 5-7l-1 4a1433 1433 0 0 0-8 16l-1-2zm-94-1c-3-2-7-11-7-13 0-3 1-5 2-4l1 3 3 9 3 7-2-2zm103 1 4-7 1 1-4 7-1-1zm209 0c-1-1 4-7 6-7s1 2-1 5c-3 3-5 3-5 2zm-282-3c-1-2 1-2 4-1l3 1-3 1-4-1zm421-2h-4v-1c0-2 4-5 6-5l2-1c0-2 4-1 5 1l2 2-2 3-4 2-5-1zm-448-1-6-17 1-1c1 0 8 14 8 17 0 1-2 2-3 1zm399 0-2-2 2-2 1-1 1 2v2h2l2 1h-6zm-108-5-4-4-4 1-2-3-1-3 1-3 4-6 2-2 3 1-2 3c-3 3-5 6-5 8v1l6 1 7 7 9-1v1l-2 3-5 1h-4zm-284 1-3-7-3-4-1-9h1l3 5c0 3 2 7 4 10l2 6c0 2-2 1-3-1zm22 0c0-3 0-7 2-9l1-3h-1c-2 0-4 2-4 3l1 1h-2l-2-2-2-4c-2-3-6-8-8-15l-2-5h-5l-1 4-2 4-2 2-1-1-2-1 2-2 2-1 1-5v-4l2-1 3 1 1 1v-2l-1-3h-1l1-2 3-2h2l-2-1c-2-1-1-3 2-4l4-2 1-11-3-7 3-8h2l3 2 1 2-1-17a1108 1108 0 0 0-1-33v-31l1-28h2v13l1 1h1v-49l2-4-5-3 1 8v7l-1 2-2 1-1-10v-9l1-1 3-4 1-2-1-8 2-3-1-2-1-5v-3h-2l-3-1 1-1 4-2 5-2h2v2c-1 3 1 4 1 1l1-2h6l1 3 3 4 2 2-2 1c-2 1-2 4 0 4l1-1c0-2 4-4 12-8a556 556 0 0 0 27-11v2l-12 6a96 96 0 0 0-16 8l-6 3-6 2v17l-4 4v11a225 225 0 0 0-1 20v69l-1 1-2 3-1 1-1-3v-2h-1v7l1 1-2 8 1 4v11l1-2 1-8 1-7 3 1 1 1-1 2-1 2-1 11v10l-5 3-4-5v2l-1 4-1 2 2 2 3 2 3 3 2 3-3 2-3 1-3 7-3 9-1 3h1l2-3 3-8 2-5 6-5 7-5 13-6h2v1l2 3 1 2-5 2-9 4h-4v2l-1 4v2l2-2c3-3 5-4 5-2 0 1-6 10-8 11l-1 1v7h-3v5l1 4-3 1-3 2v1h1l2 2-1 4-2 2 3 11 3-1v4h3l3-7a235 235 0 0 0 8-17c2 0 2 3 1 4l-3 8-4 10-1 2 1 1 2 2 3-4a179 179 0 0 1 7-16l2-5h3l-2 5a367 367 0 0 0-9 21l1 3h-1l-7-2-5-2-3 1c-2 0-4 1-4 3l-2 2h-4zm-2-16-1 1 1 1v-2zm4-4v-2h-7l2 1 3 2c1 2 2 1 2-1zm-8-3c1-2 1-4-1-4s-3 3-2 4h3zm5-8-1-1-2 1 2 1 1-1zm3-5-2-3h-5s1 2 3 2l3 2 1-1zm-11-6-3-6-2 6v2l2-1 3-1zm17-6c2-2 1-3-1-3h-1l-2 4c-2 6-1 8 1 3l3-4zm0 5v-1l-1 1v2l1-2zm-4-7 3-6v-4c-1-1-8 12-8 14l1 2h2zm-1-20h-2l-3-2-1-1-1 1-2 1-1-2-2-1 1 5v13l2-2 1-3c0-3 2-7 3-7 2 0 1 2-1 7l-2 6 8-15zm4-68-1-3h-1v8l1-1 1-4zm-1-50c0-2-1-1-2 0l1 1 1-1zm4-39-3-2-3-1v1l1 1 1 2v1h2l2-2zm66 224 3-3h1l-1 2-3 3h-1zm-34 0c-1-1 2-8 5-15l3-3 1 1-8 18-1-1zm-57-1-2-1-3-6-3-8 1-1h2l2 5 5 9-3-11-2-8v-2l2 1 1 3 2 4 2 7 2 7v2h-2l-4-1zm-76-8-1-2-5 3-5-2v-2l-2-5-3-3v-7l2 1 1 2 3 4 2 2v5l3 1 4-3h2l1 2c0 1 3 2 5 1l1-1v2l-1 3-4 1h-2zm358-3 3-7 4-5h3l-3 5c-2 2-4 4-4 6-1 2-3 3-3 1zm-355-8-1-3c1-2 4-1 5 0l2 2h2l2-5c2-5 4-6 4-4l-1 2-1 3v3l7-1h7l4-8 5-9c2-1 2 1 0 5l-3 5-2 3-2 3 2 3 1 4-3-1-2-1-2 2-5-1-6-1h-4l-2-1-2 2-2 1-3-3zm39 1-3-1-2-1 2-2 3-1 2 1 2 4-2 1-2-1zm-49-1-1-4v-3l5-2 15-7 12-5 22-8a506 506 0 0 0 25-12c2 0 2 2 0 6l-1 3-1-2-2-2-11 5-6 3-10 4a130 130 0 0 1-27 12l-12 4-6 4 1 2v2H9zm381 0 3-6 1 1c0 2-3 6-4 5zm-325-3 3-7 3-7 3-3 6-6 5-3 1 1-2 3-5 4-3 3h-2l-2 5-6 11-1-1zm59-2c0-2 2-4 3-2l-1 3-2 1zm272 0h2l-1 1-1-1zM1 483l-1-4v-3l4-2 10-3 8-3 6-2 4-1a179 179 0 0 1 28-14l4-2 3-2 6-3 7-4 4-3h2l1 2-4 1-3 2v1l2-1 7 2v1l-3-1-9 3a514 514 0 0 0-67 33l-9 3zm4-5 2-1-3 1c-3 1-4 2-2 2l3-2zm34 5c0-2 3-6 4-5l-3 6-1-1zm21-4 2-4 2-2-1 4c-2 3-3 4-3 2zm13-13c0-3 2-5 3-4s-1 6-2 6l-1-2zm-47-2c-1-2 0-5 1-5v5l-1 1v-1zm425-2 1-2 1 1c0 2-1 2-2 1zm34-4 2-1 1 1-1 2-2-2zM27 447l-1-38v-18l1-1 1-1 1 1 1 29v31l1 2-2 1h-2zm456 3-3-1h-1v-2l2-3h1l7 5-1 2-2 1-3-2zm-321-5-3-2-4-2-4-2-4-1-1-2 5-2-1-3 3-2 7-3 10-4 8-3 3 2 1 2-3 5c-2 2-5 7-6 11l-3 7-1-1c-1-1 0-4 2-7l3-8 3-4 2-3-7 4-2 2c-3 0-12 5-12 6 0 0 1 2 3 2 3 2 6 6 6 8v2h-2l-3-2zm-121-1 1-1 1 2h-1l-1-1zm79-4v-1l2-2 6-3 9-5 7-3 27-12 15-7 11-5a748 748 0 0 1 51-25l35-17 38-19 9-4 1 1-1 2-13 7-12 5-2 2-6 4a76 76 0 0 0-22 11 1386 1386 0 0 0-94 44l-16 8-10 4-11 5-3 1-10 4-7 3-1 2-1 2-2-2zm-81-52v-60l-1-7 3-1 2-1 3 1 3 1h1l-2 6-1 5 1 3 1 5-2 1h-2v19l1 6-2 4 1 11a209 209 0 0 0 0 20l-1 29-1 7v4h-4zm436 51c-2-1-1-2 2-2h2v3h-2l-2-1zm-424-4v-3h3v2l-2 3h-1zm3-6 2-6 1-3 2 2-1 4-3 5h-1zm414-3c-2 0-1-5 1-7l1-1-1-1-1-7v-2h4v5l1 4-1 1-2 1 1 3-1 4h-2zm43 0v-3h6c0 1-2 4-4 4l-2-1zm-9-3-5-3c-4 0-7-1-7-3 0-1 3-2 7-2h3l3 3 4 3 2 4c0 2-4 1-7-2zm-297 1-4-3c-4-1-10-6-10-7l1-1 19-11 3-2h7v2l-1 4-2 1-2-2-6 3c-6 3-8 6-6 7l2 3c1 2 3 3 3 1l1-4 2-2 1 1-2 5c-3 5-5 7-6 5zm-154-1v-8l-1-3c-1-2-1-5 1-5l2 4 1 3 2-2 1-5-2-7-1-3 1-2 1-7v-5l-2-3-1-5 2-1 2-2c1-1 0-5-2-11-1-3-1-6 1-8l1-2-6-16 2-3c2-1 3-4 3-5l-1-3-2-5v-2h-5l-3 1h-2v-1c1-2 8-7 10-7l3-2 3-1 6-3 7-6 4-2 11-1 4 4-1 13v14c1 2-1 13-2 13l-1-7v-6l-2 1v3c0 6 1 10 3 12 1 1 1 3-1 2h-2v2l-1 10-1 7-2 6h-5v-2c0-3 2-8 4-9l1-1-1-3-1-6 2-22-4-14-1-3v-2h2c2 0 6 4 6 6l1 2 2 2-1-8-1-8-7 3-9 4-8 4-7 3 2 2 1 2 3 3 2 2 1 5v4l-4 6h-3l1 1 3 8 2 9-1 3-1 1 1 2 1 3-1 5-1 5 1 2 1 4 1 5 1 5-1 7-2 8v3l-4 5 1 2v2l-5-1v2c0 2-1 4-2 3zm11-29v-3l-1 1-1 4-1 2 1-1 2-3zm12-92v-1l-1 1c-2 0-2 1-1 1l2-1zm51 118-2-36c0-12 1-19 3-19l1-1 1 11 1 11-1 17-2 18-1 1zm-47-2 1-4 1-1 1-17v-18l-3-4 2-3 2-2 2 2 1 2 1-2v-5l1-4 1-2v3l1 10-1 7-4 7 1 3v15l-1 10-1 3-3 3h-2zm-5-4-1-5-1-14-1-4 1-1 1 1 2 7 2 8c1 2 1 4-2 4v1l2 1c2 0 3 1 0 2l-1 1-2-1zm13-3 1-2c1 0 2 2 1 4s-2 1-2-2zm53 1c0-3 0-7 2-8h1v4c0 4-2 6-3 4zm290 0 5-8 2-1h2v1l-3 5c-3 4-5 5-6 3zm-216-3h2l-1 1-1-1zm-79-2c-1-1 0-3 1-3v4l-1-1zm311-2 1-2 3-1h2v4l-5 1zm-358-4 1-4c1 0 2 5 1 7l-1 2-1-5zm150 1-4-2v-2l1-4 4-3 4-2 5-3c4-2 8-3 10-1l-2 3-5 9-8 8-5-3zm8-5 2-4 2-2-5 3-4 3 1 3 1 1 2-1 1-3zm326 5 1-3 1-2h3l1 6h-2l-4-1zm-523-1c0-3 1-5 2-5l1 3c0 2-2 4-3 2zm66 0 1-1 1 1-1 1-1-1zm44-1-1-20-2-26v-9l3-3 3 1v10a300 300 0 0 1-1 46c0 3-2 4-2 1zm-26-1 1-1 2 1v1h-1l-2-1zm45 0-1-7 1-7h2v15h-1l-1-1zm-45-8 1-2 1-1-3-10 1-6c1-12 3-6 3 11v9l-1 1-2-2zm17 0v-4l1 1 1 3h-2zm322-2-2-5c0-2 2-4 3-4 2 0 4 10 3 11-1 2-3 1-4-2zm102 1c-2-2-1-5 1-6l3-2 1-1 3 5-2 2-3 3-3-1zm-192-1h-1v-12l-1-1-2-2h-12l-2-4-3-5-3-2-4-1-1-5-2-6-2-6v-2l3-1 3 2 3 3 3-4 2-3h2l6 1 6 1 1 1 6-2 3 1 19 5c2 0 5 3 6 6v3h-1l-1 1-5-5-3 2-3-3-4-2-3 1-4 2s-2-1-2-3l-1-2h-3l-2 1c-1 1-4 1-6-1l-1-1-9 1-3 3-3 3v6l8-1 1 5 2 7 1 1 3-2 6-1h3l1 2 3 6 1 4 1 2v3l6 2v3h-5l-7-1zm-309-5-3-4v-3l2-2 1 3 2 6 2 3-2 2zm207 0-6-6c0-2 20-13 24-14h3l-2 3-1 3h-5l-11 8h4l1 3 2 3 2-6 3-5 1 1-1 4-3 6v4l-2 1-9-5zm-139 0 1-3 1 3-1 4-1-4zm45 3v-19l-1-39-1-20 1-8 1-8-1-12-1-13 2-3 1-4 4-3 7-3c1 1-1 4-4 5l-5 3-1 3-1 2 4-3v6l2-1 5-1h3l-1-4v-4l3 1v11l1 14 1 2-6 3 1 3 1 5 1 4-1 1-3-2-2-2v-10l5-4-4-4v-4l-1-5-1-1v1l-1 6v4h-2l-3-3-1-2 1 32-1 1-1 2 2 1v36a484 484 0 0 1-3 36zm-158-1-1-2v-57l2-2 2 1v25l1 24h-1l-1 1 2 8-3 3zm22 0-2-1 1-7 1-7h1l1 5 1 8v3h-1l-2-1zm161-9-1-11v-2l3-1v2l1 11v8h-3zm-61 5 1-8h1v9h-1l-1-1zm55-3 2-4h1v8h-3zm-28-27v-29h3v58h-3v-29zm291 25-2-7v-6l1-1 3-2c2 0 4 3 4 4l-3 1h-1v3l1 6 1 3c0 1-3 1-4-1zm108 0v-1l2-2 1-2h6v4l-4 1-4 2-1-2zm-378-4 2-7v-3l-4-3 1-4 2-4h2c2 1 1 13 0 19l-2 5h-1zm18 0-1-7v-5h-5v-23l1-2 2-2-3-2v-24l-1-50-1-8-1-1-1-3h4c1 1 1 0 1-1v-2l-5-2-1-3-2-3-2-1v-5l1-5 4-2-1-3v-4l4-2-3-4 1-1h4l5 3c1 2 4 3 5 3l3 2 1 1-1 3-2 7-1 4-4 2v4l-2 5-1 2 1 5 5-5 1 2 1 1-1 2v7h-2l1 26h-2l1 2 1 3-1 1-1 1 1 3 2 2v27l-1 28c-1 1 0 5 1 6l1 15h-1c-2-2-3-1-3 1 0 3-2 4-2 2zm-3-137-1 1 1 1v-2zm-3-4-1 1 1 1v-2zm-4-4v-2l-1 2v2l1-2zm7 2-2-2-2 2v1h4zm-4-14v-1l-1 1v2l1-2zm4 0-1-1-1 1 1 1 1-1zm12 145v-26c1-15 1-25-1-33l-1-5 1-6 2-9c1-1 2-3 1-4v-7l1-4 6-7h5l3 3c3 5 6 9 6 12s3 8 4 8h1l-1-7 4-9v-10l1-6 2-2c2-3 8-5 11-4l3 1 2 4 2 5 1-19v-18l1-1 2-1v20a1387 1387 0 0 1 1 50l1 24-1 2-2 3-1 1 1 2c1 3 1 13-1 22v5h-2l-1-1v-3a363 363 0 0 0 1-29l1-25v-25l-2-1-2-2-2-4-2-3h-4l-3 5c-1 3-2 5-1 6v1l2-1 1-2v3c-2 7-3 30-3 58l1 28-2 1-1 4-1 3h-1v-12l-2-23c-1-13-2-19-1-23l1-3h2c2-1 3-4 1-5-1 0-6 4-7 8a421 421 0 0 0 3 55l1 5-7 3v4l-3-1 1-12a806 806 0 0 0 1-58l1-9-2-3-3-5-2-9-2-5h-4l2 3-3 6v5l1 4-3 4-2 5 3 4 2 2v7l-5 5 1 5v13l1 10v21l1 12-1 1-5 1h-3v-12zm5-8-1-5-1-2v10l1-1 1-2zm24 1-1 1 1 1v-2zm-50 15 1-2 1 2-1 2-1-2zm-133-3-1-3 2-8-1-7c-1-7-1-11 1-11l1 4 1 6 2 1c2 1 2 3 0 3h-2v13l1 3v2h-1l-3-3zm69 1-1-5-1-5c-1-1-2-11-1-12h2l1 1v4l-1 4 3 2v6c0 5-1 7-2 5zm179 0-3-4-4-4-2-1 1-2 1-1 5 1 4-2 8-5c3-2 7-3 7-1l-2 4c-2 1-4 5-6 9l-5 7-4-1zm7-9v-2l-3 1-3 1 1 2 2 1 3-3zm257 8-1-4 3-3 2-1 2 1 1 2-1 3-3 3-2 1zm-379-3v-2h1l1 2-1 2-1-2zm-156-1v-7c0-6 1-9 2-8l2 6v5h-2l3 3v1l-3 2h-2zm76-3 2-2 3-3 1-1-2-1-4-2-2-6-1-5 2-4c0-3 2-7 4-8l2-5 2-6c0-3 2-6 4-7l4-3 3 2 2 2-3 2-4 3 1 2 1 3v3l-3-2v5l-3 2-3 2-1 9-1 9 4 3v6l-3 1-4 2-1-1zm80-2a1238 1238 0 0 1-3-11c0 2-1 3-2 3h-1v-6l1-6-3-5 1-1 3-1h1l2 4 1 4v-3c0-3 1-6 2-4v15l-1 14-1-3zm-53 0-1-2 1-1 1-1 1 1-1 4-1 1zm312-2a380 380 0 0 0 4-13h2l1 1v4l-2 7-1 3h-4zm-49-2c-1-3 3-8 7-11l4-3v-6l1-5 4-2 4-2 1-2c0-2 3-7 6-8l2-1 1 1 1 1-3 3-4 5v6h-6l-1 2-2 9-1 8-1 1-7-1-2 3-3 3-1-1zm-326-2 1-3v-1l1 1 1 2-1 1-1 1zm-11-5-1-2v-1h4v1c0 2-1 3-3 2zm490-1v-1l7-8 1 4-7 7zm11 1c-2-1-1-5 1-7l2-2 1 5v5h-2l-2-1zm-19-3 3-4 4-3c1 0 2 3 1 4l-1 1-3 2-3 2-1-2zm-408-1v-8l-3-4-2-5-1-4-2-5 1-3h4l1 6 1 6 4 7v11h-1l-2-1zm446 0v-2l4-2 7-2h2v2c-1 2-5 4-10 5h-3zm-464-1v-9l3 1v8l-2 1-1-1zm420-3 1-3 2 2 1 2-1 1-2 1-1-3zm-395-1c-2-4-2-15 1-28v-5l6-6h5l3 4 2 6 1 2h1l-1-36 1-1 1-2 3 4v10a975 975 0 0 0 0 20l-1 2 1 1 1 1-1 5-2 5-1 1-2-5-7-12-2 4-4 6-1 1 1 3 1 4-1 4-2 5-1 2 1 4v4h-1l-2-3zm184 1h-9l6-6-5-1-1-2-2-2-4-1-4-1-1-1 2-6 3-5c0-1 2-3 5-4l4-3 6-1c6 0 7-1 27-10a347 347 0 0 0 41-21l15-7 5-2 8-4 8-4 5-2 6-2 4-1 1 1 2 5 1 3-1 1-1 1-6-6v1l-3 1-6 2a325 325 0 0 0-29 14l-24 12-8 4-3 2-4 2-6 3-6 3-5 2a698 698 0 0 1-36 19l3 1h4l1 1 2 2 6 4 4 3v6h-2l-3-1zm125-3c-2-3-2-7-1-8l2 2c2 3 3 8 1 8l-2-2zm-63 0c-4 0-7-2-7-4l2-1c3-1 11 1 12 2l1 1-1 1c-1 2-2 2-7 1zm-265-3 1-4 1 1 1 3v2l-4 1zm251 2c-1-2 0-5 1-5l3 1 2 3v2h-2l-4-1zm159-1-1-3v-1h-3l-4 1-1-1-1-5-1-4-3-3-3-5c1-2 4-3 6-1l3 8 3 7c1 0 2-1 2-3l1-2h2c2 0 2 1 3 7l1 4-1 1-2 1zm70-2 2-2 2-1 2 1 1 1-1 1-4 2h-2zm-549 0c-1-2 2-15 3-16l2-1v6l-2 5-1 4h1c2 1 1 3-1 3l-2-1zm311-1-7-1-6-1v-1l5-2c2 0 5-2 5-3 1-1 3-2 3 0l3 3 2 4v2h-2l-3-1zm32-1 2-2h1v1l-2 3h-1zm235 1v-4c2 0 6 3 5 4h-5zm-293-1-3-5v-4h4l1 3 1 4 1 1-1 1-2 1zm-254-2 1-9c0-6 1-8 2-4l1 6v6l-5 3zm103-4 1-3 1 3-1 3-1-3zm212 1v-2l3-3 6-5 3-3 1 1 1 1-3 6-4 5-7 2v-2zm-221-2v-4l-1-4-2-3 2-2 3 2v9l1-1h1v-5l-1-5h3l1 5v6l-1 2-4 2h-2zm455 0-1-2 1-2 6-3 6-2 2-2 6 2 1 2-1 3c-1 2-5 2-7 1l-1-1-6 2v2l-3 2-3-2zm-624-2-1-3 2-4 2-2 3 5-1 3-3 3-2-2zm278 1 1-7 1-1v2l-1 2 1 2c1 1 1 3-1 3l-1-1zm-13-3c0-3 0-5 2-6h1v3c0 3-2 5-3 3zm66-2v-1a112 112 0 0 1 19-11l3-1 4-1a263 263 0 0 1 29-14 145 145 0 0 1 15-7c2-2 8-4 9-4l1 2-1 1-4 2-6 3c-1 1-3 3-6 3l-14 7a1572 1572 0 0 1-49 21zm133-1-2-8-2-6 1-1h2l3 12 1 3-2 1-1-1zm-173-6-1-8 1-1 5 6-2 4-2 5-1-6zm208 5-1-3v-2l-7-7v-2c0-1 1-2 3-2h2l2 3 2 5 2 5v3h-3zm-76-2 1-1 1 1-1 2-1-2zm47 1-1-1 2-4 3-6 2-1 1 1c2 1 3 5 1 6l-1 1-1-2-1-2-1 4-2 4h-2zm104 0v-3l1-2 8-5 9-4 4-2 2-2-1-1-1-1 2-1h5l2 2 2 3 17-8 9-3h2v3l2-1a614 614 0 0 1 56-20h2l2-3 2-2h4l1 2v3l-2 1-5 3-7 2-7 2-8 3-8 4-8 3-16 5a127 127 0 0 0-26 9l-4 2-12 4-7 2-17 6-3-1zm28-13 1-1-3 1-4 1h3l3-1zm-51 7-4-3v-5h2c2 0 10 8 10 10v2h-2l-6-4zm-146 1c0-1 4-6 6-6s2 2 1 4l-4 3-3 1zm-407-2v-5l-1-2-6-1-1-3-2-3-2-2c0-2 2-4 4-4l17-8 7-3 1-1 3-2 7-3 4-3-2-5 1-7 1-9v-93l-2-7 1-4 2-3 2 1 1 1v36a940 940 0 0 1-2 86l3 3 2 1 5-3 6-3 4-3 8-4 10-4h3v1c0 2-4 4-7 4h-3l-4 3-5 3-1 1-4 2-5 2-2 2-17 8-18 8-10 5-2 2 1 2 3 3 4-1a2883 2883 0 0 1 63-30l2 2v1l-8 5a254 254 0 0 1-15 8l-10 5a531 531 0 0 0-29 12l-4 1 1 2v5l3-1 5-2 4-2 4-1 8-4 7-4 23-11 9-4 4-2 1 1c0 2-11 10-16 12a1207 1207 0 0 1-38 19l-6 3H22l1-3zm52-22-1 1 1 1v-2zm-10-5-1-1-2 1 2 1 1-1zm85 28-6-8c0-3 3-2 5 1l2 2 2-4c2-5 6-9 7-9l1 1-1 1c-2 2-7 13-7 16h-3zm159-7v-33h-1l-1 1v10a2763 2763 0 0 0 0 17l-1 3-1-1c-1-1-3-30-3-60l-1-18-1-2-1-2 1-2v-10l3-7 6-1v-3l-2-3-2-2-1 2c-1 1-2 2-3 1l-1-4v-3l2-2 2-4 2-1h1v9c1 1 1 0 1-2v-2h4v15h-1l-1 1v15a1545 1545 0 0 0 1 73l1 22-3 1v-8zm159 6v-1h5v3h-5zm-266-6 1-5c1 0 2 7 1 8-1 4-2 2-2-3zm91 2-1-1h-2l-1-4-1-10v-6l1-1h2l1 6 1 10 2-3 1-3c2 0 2 4 1 9l-1 5h-2l-1-2zm25-4-2-7-1-3-1-12v-11l1-2 3-1h2l1 9v30l-3 1zm151 2 2-3 3-2 1 2-1 4-3 1h-2zm-341 0 7-5c3 0 2 2 0 4-3 2-7 2-7 1zm545-2v-1h1l1 2-1 1-1-2zm-550-2c0-1 2-3 5-4l7-4 2-2-3 1-4 2-1-2v-1l10-5a506 506 0 0 1 35-16l-2-5-4-5c-2 0-4-4-2-5l1-1 2 2 4 2 4-4 9-6 6-3 1 2 2-1 3-1 1 1-1 1-5 3-3 1-1-1-1-2v2c0 2-4 6-6 6l-4 2-2 2 1 2 1 5 1 4-5 3-7 5-6 3-11 6-14 8a52 52 0 0 1-13 6v-1zm24-15h-1l-2 1h2l1-1zm318 13v-24h3v9l1 1 2 3v-12l-2-3-2-4 2-3h2l5 5 2-1 4-1 1-3v-3l7-6h5l3-2 5-3 4 3 5 4 4 3 6 3h2l1 3v2h3l7 4 5 3 5 3 19 12 4 2v5l-1 1c-2 0-6-2-10-6l-7-3-10-5-7-4-8-6a176 176 0 0 0-20-17l-1-1-1 2-4 2-4 2-4 3-3 3-3 3-10 1v5l1 6 1 1-1 4-1 4-6-1v3c-1 4-3 5-4 3zm27-36h-2l1 1 1-1zm-349 34c0-2 5-5 8-5h1l-2 3c-3 3-7 4-7 2zm469-2c0-1 2-3 4-2v2h-4zm-243-17 2-13 1-13v-12l-4-4 2-5 1-5-1-17v-17h1l1-1v-20l-2-5 1-4 2-3 1 1 2 1v43l1-1h2l1 1-3 4v21a228 228 0 0 1-2 26v2l4-1v1l-2 2-2 1v2l1 3 1 1-1 2-1 9-1 10-1 4h-4v-13zm-212 11c0-1 5-4 6-3v2l-1 2h-2l-3-1zm293-2-1-5v-4l1-1 2-1 1 3 1 5v3l-2 1-2-1zm-157-2-1-4v-2h3v4c0 4-1 5-2 2zm49-1-1-14-1-12 1-1h3l2 1-1 6 1 1 1 1-1 10v10h-2l-2-2zm-216-1a176 176 0 0 1 35-18l3-2 1 1v2l-18 9-20 9-1-1zm44 0v-2l1 1v1h-1zm407-5v-6h3v6l-1 5-2 1zm-478-2v-1h4v3h-4zm469-8v-7h4v6l-1 6-3 1zm-274 4-1-2c0-3-2-3-3 0v2h-4v-2a116 116 0 0 1-2-11l-1-2h1l2-1 2 11 1-1 2-7v-6h-1l-2-2v-1h6v4l1 10 1 7-1 1h-1zm87-6v-3l2 2 2 4v1h-4zm-138-2c0-2-2-4-4-6l-3-3 3-4 4 4 3 4 3-6c0-3 2-6 3-7l3-2c2 0 1 4-1 5l-2 1-1 6-5 10-3-2zm148 1v-2l2-2 1 3-2 2zm-23-2 1-1v2l-1-1zm172-2 1-1 1 1-1 2-1-2zm36-2 2-4h1v7h-3zm-257 1c-1-1 0-3 1-4l1-2-1-2-2-3c-3-3-2-11 3-17l3-4 1-7 3-9 3-3 2-1 5 4 5 4v5l1 5-1 2c-1 1-1 2-2 1v-6l-2-3c-2-3-4-5-6-5l-3 3-2 4v4l1 3-2 2-2 2-2 5-3 4c0 1 1 4 3 5l2 6c0 3-2 6-4 7l-2 1zm48-2v-2h1l2 2v2h-3zm57-1 2-2h2v3h-4zm-33-1v-4l2 4h-2zm90 0h1l2 1h-2l-1-1zm-343-1c-1-1 0-5 1-5 2 0 2 2 2 4-1 2-2 3-3 1zm22-4-2-1v-3c0-4 1-7 2-7l3-3c1-2 3-2 4-2l5-3 8-5 6-4 6-4 5-3h8l-5 4 1 5h-1s-2-1-2-3l-3-2-6 4c-5 4-15 11-23 15l-4 3-1 4v2l3 1 2-2c3-3 11-9 17-12 2-1 6-3 7-5 3-2 6-3 6-1l-21 16-8 6h-7zm410 0v-2l1-2 1 1c1 1 0 4-1 4l-1-1zm-341-3 1-2h2l2 1-2 2-2 1-1-2zm348 1-1-31v-13l1-3 1-4 1 1 2 8v7l-1 1-1 2v16l1 17h-1l-2-1zm-355-2-1-3v-2l8-8 4 1 3-1 3-2 6-4 4-3 6-3 5-3v-5h2l1 1 2 1h3v4l-5 4-8 5-7 4-5 3-11 6-9 6-1-1zm119-2v-7l-1-1-2-1 8-4 2 1 1-3 3-3v17l-4 2-5 2-2-3zm7-4-1-1v1l1 2v-2zm55 5 1-4 2-1 2 2-1 5h-4zm136 0-1-33 1-25 1-5 2 1v7l-1 29v21l1 1 1 3c-1 2-4 2-4 1zm-405-2-1-3v-2h-3v-23h3v5l-1 8-1 4 2 3 1 2v-3l1-4c1 0 2 13 1 14l-1 1-1-2zm413-4 1-7h1v13h-3zm15 5-1-24-1-23 1-1 1 1 2 22v23c1 3-2 4-2 2zm-437-5 1-2 1 2-1 2-1-2zm26 1v-8l1 1 1 3 1-3v-6l-1-1h-1l1-16 1-31 1-15 2-1v4l-1 60v11l-2 1-3 2zm92 0c0-2 2-3 5-3h2l-3 2-3 2-1-1zm163-2-1-2v-1h4v4h-1l-2-1zm-119-1v-5l2 4v2zm190 1a505 505 0 0 1 0-33v-2h3v17a1059 1059 0 0 1-3 18zm37-1-1-3 1-5 1-4h3v13h-1l-3-1zm15-1v-1h1v2c0 1-1 1-1-1zm42 0v-2l1 2v2l-1-2zm-431 0c-1-2 0-6 1-6v5l-1 2zm151-1 1-1 1 1-1 2-1-2zm96 1v-19l1-17-2-1-1-2v-7l1-21 1-14 2 1 4 1 1 2-1 5-1 38v12l-1 3-1 11 1 8-2 1-2-1zm-239-2 1-1v2l-1-1zm211-1 2-1 1 1-1 1-2-1zm46-2-1-4c0-3 2-5 3-3l1 4 1 4h-2l-2-1zm165-14v-17l1-2c1 0 2 7 2 18l-1 16-2-15zm-340 13v-2l8-4-3 4c-2 3-4 4-5 2zm299 0 1-1 1 1-1 1-1-1zm-368-2v-7l1-20v-51l1-3 2-3v-18l-1-18 3-2 1 1v18l1-7 1-9 2-1v11l1 11 1-2 2-13 1-11 1-2 1 2c1 1 0 20-1 29v46l-3-1v2l1 3 1 1-1 5-1 12-1 15h-1l-2-1 1-12 2-38v-28l-1-5-1 5a673 673 0 0 0-3 58l-1 8v7l-4 7v6l-1 6-2-1zm6-39v-27h-2v41l2-14zm1-34v-1l-1 1v1l1-1zm0-9c-1-1-1 0-1 1l1 1v-2zm1-10-1 3 1 3v-6zm0 91-1-2h3l1 2c-1 2-3 2-3 0zm123 0-2-6v-5h3l2 3 1 7v3h-1l-3-2zm-151-1v-7l1 3 1 2-2 4v-2zm407 1-1-12v-13c-1-2 1-5 1-4l1 12a289 289 0 0 0 1 16c0 2-1 3-2 1zm-413-3 1-4h1v2l-1 3-1 1zm354 0c-1-2 0-34 1-43 0-5 1-7 3-4l-1 18a331 331 0 0 0-2 29l-1 2zm-264 0c0-2 8-8 17-12l11-6 5-2c2 2 3 2-21 16l-9 4-3 1zm17-2 6-5c6-4 9-5 9-2l-3 2-5 3-5 2-2 1zm151 0 1-1 1 1-2 1v-1zm52-2v-5l4-1 1 1v5l-2 1-3-1zm72-1-1-4v-3h3v3c0 4-1 6-2 4zm9-1v-21l3 3-1 7v6h2v-14l-1-14 1-8v-13l-1-5-4-2 4-3 3 2 3 3 4 4 3 4 4 4 4 4-1 1-6-4-3-3-5-4-2-2-1 11v42h-3v2l-1 2-2-2zm-176-4v-5l3-4c1-3 3-5 5-6l2-1 2 3-7 9-1 4-1 4-3 1zm146 3v-7l1-6h1v14h-1l-1-1zm9-14v-15h3v22h1l1 3 1 2-2 2-3 1h-1zm-370 12c0-3 1-5 2-5v5c0 3-2 2-2 0zm6-5a599 599 0 0 0 3-47l2 13-1 18-2 20-1 2h-1zm412 1c-1-7 0-10 1-10s2 10 1 13-2 2-2-3zm-278 2-2-4v-1h2l4 2c2 3 2 5 0 5l-4-2zm134-1v-24h3v13l1 13h-2l-2-2zm-279-7 1-8-3-4v-66l-2-10 1-3 2-3 2 1 3 1 1 4-1 25-1 22-1 3v7l2-4 2-5 1-2 1-1v18c1 17 1 25-1 25h-1v-11a338 338 0 0 1-1-18h-1v30c0 4-1 7-3 7h-1v-8zm1-90c-1-2-1-1-1 2 0 2 0 3 1 2v-4zm269 92c0-3 0-6 2-6l1 3 2 5v2h-4zm116-2 1-13v-29h-3l1-1 1-1h1l-2-1-1-1 1-1 1-13v-11l1-1 2-1 2 1-1 16 1 31 1 15-1 2-1 7-1 4-2 1zm-238 1 5-4h2v4l-4 1-3-1zm-7-3-4-1h-4v-1c-1-1 0-2 1-3l1-2-1-4v-8h4v8l1 4 3 2 3 4v2h-2l-2-1zm226-8 1-6c1-1 1 0 1 1 1 1 0 11-1 11l-1-6zm-350 3 1-3 1 1 1 2v2h-3zm133 0 6-5c4-2 5-2 5 0l-5 3-6 3v-1zm98-1h2l-1 1-1-1zm95-4v-15l1-23-1-9 2-1h1l1 13-2 29c0 6-1 8-2 6zm-141-1c0-1 1-3 3-3l4-2h-2l-5 2-2 1-2-2 3-2 8-4 10-6 7-4c3 0 2 3 0 3l-4 3-2 1 2 2 1 2-7 7-5 1-7 1-2 1v-1zm10-8h-2l1 1 1-1zm183 7c0-4 0-11 1-10 2 0 2 10 1 11l-1 1zm-249 0v-2l5-2 7-4 5-3h4v1l-10 6a346 346 0 0 1-11 4zm164-2-1-3 1-4 1-5v-3h3v16h-1l-3-1zm-35-1 1-1v2l-1-1zm102-2-1-1 1-7a362 362 0 0 0 2-48c1-4 2 3 2 28v29h-1l-3-1zm-238-1c0-1 2-3 9-6l11-6 3-2 1 1 1 1 2-2h1l2 2c0 2-4 4-6 3l-15 7-8 3-1-1zm290-2-5-5-1-3h1l1-1 4 3 5 4 1 2v2h-1l-5-2zm-231-1v-2a132 132 0 0 1 26-16l4-2h1v4h-2l-7 5-11 6-7 5h-4zm-21-4-1-4-1-2h1c2 0 5 5 4 7 0 2-3 1-3-1zm50 1 1-2h1v1l-1 2-1-1zm41-3-2-5 1-3 1-5c2-2 3-1 3 5v9l1 3h-3zm-249-10 1-14h1v27h-2v-13zm169 5v-2h1c2 0 4 2 3 3l-2 1h-2zm167 0a443 443 0 0 1-1-62h2v3a444 444 0 0 1-1 59zm-286-1-6-1h-3l1-5 2-8 3-2h1v4l-1 4h1l3-4 1-4-1-2-2-3v-2l-4 1v-7l-1-20-1-15 1-2-1-1V86l3-2h1l1 6 1-2 1-2 2 1 1 1v24l1 15 2 3v4l-1 13-1 9h1l2-2 2-3 2-1 1 1 1 1 3-1 8-6 6-3 4-3 4-3 2 2v1l-3 3-3 4-1 2-3 3-14 7-10 5v2l-2 2-4-1zm0-29v-4h-1v4l1 4v-4zm315 26v-2h1l1 2-1 2-1-2zm-15-20v-21l2 1v37l-1 2-1 2zm-8 19v-41l1-6h3v14c0 20-1 34-2 34l-2-1zm13 0-1-19v-18l2-1h1v10c0 14-1 30-2 28zm-99-2c-2-1-1-6 0-7l2-1v1c1 1 0 7-1 7h-1zm46-3c-1-2 0-7 2-8h1v8h-3zm-191-4v-10l1-7-1-5v-15l2-20a602 602 0 0 1 3-27h1l-1 15-1 22-1 7 2 3v15a315 315 0 0 1-4 24h-1v-2zm18 1c0-2 1-4 3-3 1 1 0 4-1 4l-2-1zm6-3-1-2 1-22 1-21-1-2-1-3-1 7v17l1 10-2-3-1-3v10l-1 10h-2l-1-1v-9l1-10-2-2-1-2 1-15 1-15 3-6v4l1 3 1-6a8673 8673 0 0 1 6-53l1 1-1 5v4l3-1-1 16a1066 1066 0 0 0-3 90l-1 1-1-2zm-6-39 1-3h-1l-1 4v3l1-4zm2-9v-2h-1l-1 3v2l1-1 1-2zm5-6h-1v2l1-2zm1-17v-2h-1l-1 3 1 2 1-3zm1-29-1-2v2l1 2v-2zm79 100-3-1-1-1v-2h4l6 1 1 1-2 2-2 1-3-1zm76-8-1-8-1-3 1-1 1-1 1 1 2 2v6l-1 7c-1 3-2 2-2-3zm-77 1-2-1-3-1-1-1v-3l1-3 3-1 3-3v-2h2l2 1c0 2-3 6-5 6h-2l1 3h2l3 1 1 3v2h-2l-3-1zm23 0c-1 0 0-3 2-5l8-5c7-4 10-5 10-2l-1 1c-2 0-7 5-6 6h-5l-3 3-4 3-1-1zm-69-7c-3-1-4-3-2-4s1-2-1-2-3-2-1-4l4-3 4-2-1-1-1-2 8-4a163 163 0 0 1 31-15l2-1 2 1 2 1 1 1h1V90l2-8 2-2 4 3v4l1 4c2 0 1 4 0 6l-2 5-2 3-1 1 1 1 2 1-3 1-5 1-4 2-3 1-5 4-7 4-5 3-7 5-6 4-2 2-4 3-3 1-2-2zm5-9 1-1h-2l-3 2c0 1 3 1 4-1zm4-5h-2l1 1 1-1zm20-11-1-1-1 1 1 2 1-2zm-108 24 3-3h3l-1 2c-2 2-5 3-5 1zm234-1v-28l1-4 2-4 1 6a68 68 0 0 1-1 27c0 3-1 5-3 3zm-163-8c-1-1 1-26 1-27l1-27 1-26 2-5 1-10-1-6h4v3l-1 4h1l1 1 1-2 2-4 3 1 1 1-2 2-1 1v5a368 368 0 0 0-1 13l-1 2 1 3 1 3-1 2v6l4-2 9-4c3-2 9-5 11-8l8-5h3v-2l3-3 3-2v-5l4-1c3-2 4-4 1-4l-1-6c0-3 3-11 4-11l3 1 2 2 5-5 1 1c2 2 1 6-1 7l-2 1v12a380 380 0 0 1-3 45h-2l-2-1-12 8-1 5-1 5-1 1-1-1 1-5 1-3h-2c-2 0-1-2 3-4l3-3 2-8 1-6 7-6 1-5 2-6 1-4v-4l-1 3-2 3h-3l-8 3a247 247 0 0 0-32 17c-10 5-10 5-11 7v1l1-1h2v5l-3 2v1l2 2 2-1 5-4 8-5c5-4 9-6 13-6h3l6-3 5-4 1-5 1-5 2-1 3-1 2 2v3l-3 5c-1 3-3 5-4 5l-2 1-9 5-7 4-7 4-8 5-5 3-3 1v3l-2 7-1 5 16-9 11-6 2-2 2-1h2v2l-1 2c-1 2-10 8-12 8l-6 4c-2 3-7 6-9 7l-6 4-1 6c-1 4-2 6-4 6v-6l2-3h-1l-3 1-2 2 1 5v5h-3zm7-16 2-3h-3l-3-3v4l1 4 3-2zm58-44-1-1c-1-1-1 0-2 1v1h1l2-1zm-12-20 1-1c0-2-2-1-2 0l-1 2 2-1zm-43-5-1-1-1 2v2l1-1 1-2zm49-1v-2h-1l-1 4v2l1-1 1-3zm6-13-1-1-1 1v2l1-1 1-1zm-129 97h2l-1 1-1-1zm-6-4-1-4 1-3 2-5v-1l1 1 1 8 1 7-5 1zm277 2v-2l2-1 2 1v2l-2 2h-2zm-127-1 6-3a273 273 0 0 0 42-22l9-4 6-3 2 2v2l-2 1a2721 2721 0 0 1-45 24l-16 4-2-1zm-143-6-1-8v-3h-3l-1-6 1-16 1-16v-8h4l1 24 1 24-2 14-1-5zm261 0a98 98 0 0 1-13-11 1422 1422 0 0 1-13-12v-1h8l4 3 4 3 1 1 4 2 1 2-4-1 6 6 7 7h2l-1-2-3-4-1-1 4-2 3 2c3 2 4 4 2 5l-2 4-1 2h-2l-6-3zm7-8-1 1 1 1v-2zm-131 4v-4l5-2 7-3a139 139 0 0 0 31-14l9-5 8-4v2l-8 5a117 117 0 0 0-19 11l-9 5c-13 8-21 12-23 12h-1zm7-3c2-2 0-2-3 0l-2 2h2l3-2zm114-4c0-2 1-3 2-1l1 1h-3zm11 0-2-2-2-2c-3-1-12-8-12-10v-1h-3l-4-1-2-1c-2 0-14-11-14-13v-1h3l2 1-6-5 2-1h2l3 3 3 5 2 4 1 2h7l7 5c9 6 19 15 19 17v1h-2l-4-1zm-139-1c-1-1 4-6 11-12l5-3c2-1 3-3 0-3l-1 1-3 2-3 1v-2l1-2h3l3-2 3-2c1 0 4-1 5-3l3-3h6l-1-2v-1l2-1c2-1 2-1 2 1h1l1-1 4-6 4-7-1-1c-1 0-1-1 1-1 1-1 5-6 5-8l-2-1h-2l-1 2-1 2-2-4v-4l-13 6-12 6-3-1-4-1 3-2 2-1 2 2 4-2 12-6 9-5 3-3 2-3h1l-1-1-1-4-1-3-4 2-4 3-1-1-1-2 1 2v2h-1l-9 3-8 3h-2l1-2 1-2 8-1 1-2 3-2 4-3 4-2 3-2 6-1h4l3 4-1 3-2 5 1 4 1 2-1 2-2 1h-2v2l1 2 1 1v-4l3 4v15l-1 4-3 4-6 1h-5l1 3-1 2-5 3-5 3-3 2-1 3c1 1 2 0 3-1 2-3 7-5 9-5l3-2 6-4 4-1 1 1 1 3-1 2-4 1a250 250 0 0 1-12 6l-2 2-5 3c-2 2-5 3-7 3l-2 1-7 4a422 422 0 0 0-12 4zm22-13-1-2h-1v1l1 2 1-1zm26-26-1-1-1 1 1 1 1-1zm-2-23-1-1v2c1 1 2 1 1-1zm-2 60 2-2h1l1 1-2 1-3 2h-1zm10-6 2-1 3-2 4-2h1l-1 1-2 1-8 5h-1zm39-6c-2-1-1-3 2-5l2-1 1 1 1 1-2 2-3 3-1-1zm-25-3 2-3h5c1-2 7-5 8-4v2l-1 2-4 1c-2 0-5 1-7 3l-5 2h-1zm13 2c1-2 2-2 3 0l-2 1-1-1zm-180-1-1-25 1-23 4-2-1 18-1 26-2 7zm101-3 1-2c1 0 4 2 3 3l-2 1h-2zm-21-5c-1-1-1-3 1-7l2-3 1 1 1 1-1 1-1 3c0 2-2 5-3 4zm78 0V69l5-40v-1l1 1 1 1-1 14a590 590 0 0 0-6 36zm-57-2c0-1 2-1 3 1l-1 1-2-2zm71 0c-1-1 2-4 4-4s2 2 0 3l-3 2-1-1zm21 0-1-1 2-1 2 1 1 2h-1l-3-1zm-85-4 6-3 7-4 10-6 8-3h2l1 1-15 8-18 8-1-1zm-31-11v-2l2-1v1c1 1 0 3-1 3l-1-1zm30-2 5-3-2 2-2 2-1-1zm80-5a426 426 0 0 1 4-27l1 1v12l-1 14v2h-4v-2zm-82-1 1-2c1-2 2-1 2 1-1 2-3 3-3 1zm-56-2 12-7 12-6 4-2 4-2h2v5h-3l-5 1-5 5-5 4h-4l-8 2-5 2h-1zm68-5 14-8 13-6v1l-2 2a741 741 0 0 0-25 13h-1zm-68-4v-5l8-4 19-8 4-3c3-2 7-3 7-1l-4 3a186 186 0 0 1-25 13l-6 5h-3zm64-5h2l-1 1-1-1zm-3-11v-1l6-2c5-1 10-4 24-11l2-3 1-4V5l-5 1-9 3a61 61 0 0 1-13 5l-4 2v-1l14-7 6-2 5-3 6-2 5-1h3l-4 3 4 3 3 5c0 1-8 5-11 5s-9 2-13 5l-4 4-16 5zm36-20-1 1 1 1V8zm18 15v-2h1v1c0 2-1 2-1 1zm-52-12h2l-1 1-1-1zm52 0c0-3 0-6 2-6h1v3c0 3-2 5-3 3zm-3-7-1-3 2-1 2 4-1 1-1 1z"/>
</svg>
