<?xml version="1.0" encoding="utf-8"?>
<svg xmlns="http://www.w3.org/2000/svg" version="1.1" viewBox="0 0 615 1785">
	<title>Sketch of a stone tower fading off to the right, with a very rough sketch of a valley to the left.</title>
	<path d="M282 1784v-3l1-2-5-6 7-6 1 2 1 8v6l-2 1h-3zm-2-23-2-4v-10l2-1 1-2 6 1v6l-1 9-1 4h-3zm1-38c-2-2-3-7-3-12v-4l1-3 4-2 4 3 2 2v7l-1 9-1 2h-2l-4-2zm-2-36-1-7-1-7 2-2c1-2 4-3 5-1l2 8 1 6-2 4h-3l-3-1zm1-26-3-2 1-3v-4l-1-1 1-2 1-3 5 1 1 2 1 7v5l-4 2-2-2zm1-18-2-7-1-5v-5l1-4 2-1 4 1 1 10v10l-1 1-1 1-3-1zm0-34-3-1v-10l1-1 3-1 2 3 2 5 2 3-2 2-2 1-3-1zm1-20-1-1v-5h9l1 2 1 2-3 2-3 1-4-1zm-2-9-1-1-1-13-1-13 1-2 1-1h3l2 1 1 9v14l-1 6h-4zm28-22-2-1-1-3-1-2 3-5h7v3l1 4-3 2-2 3zm-29-14-1-4 2-2 2-1 1 1 2 1v6h-2l-4-1zm25-4-1-5 1-5 2-2 4 3-1 5v6h-3zm-19-9c-2-2-1-5 1-5h7v2l-2 3c-1 2-5 1-6 0zm-11-6-3-2v-7l6-2-5-2-1-2v-8l2-1 4-1 2-1 1 1 2 9v8h-3l-1-1v1l1 3 2 1 8-3v2l1 1-2 2-4 3-4 1-6-2zm-10-8v-6l-2-14-1-10v-1h3l4 1 1 4-1 3 3 1 3 3 1 1h-2l-3-1-1-1v1l-2 10c0 8-1 11-3 9zm28-15-3-1 1-4 2-5 2-1 1 1 2 1-1 5-1 5c-1 1-2 0-3-1zm0-13-2-7-1-5h4c1 0 2 3 2 7v5l-1 1-2-1zm-18-10-1-4 1-4 3-1h1l2 7-2 2-2 1-2-1zm24-3-2-3 2-2c1-3 4-4 5-3l1 1-2 11h-3zm11-6-1-5c0-3 1-5 3-5h2l-1 11-1 1-2-2zm-39-11-2-4 1-3 1-3 9-3 1 1v5l-5 1v2c1 3-1 6-2 6l-3-2zm22-16-8-3-3-2-1 2-2 2-4-2-2-2 1-4 1-4-2-4c-2-5-2-11-1-13 1-1 5-1 7 1l3 1-1 5v5l5 2v5l5-1 3 5 4 1 5 2 2 1 4-2h6l5 1v1c1 2 0 3-1 3h-26zm30 0v-2l2-1 1-2h8l-1-4-1-9v-6l4-1 1 8a45 45 0 0 1-1 13l6-2 5-1 2 1 3 1-3 3-9 2-12 1h-4zm36-2-1-2v-2l6-3v2l-1 4-2 2-2-1zm-62-15v-2l2-1h1l1 2c1 2-1 4-3 4h-2zm-2-9v-20h3l1 4v17h-2l-2-1zm7-6-1-4v-2l4-1 1 3 1 4v2h-4zm-28-7-2-1 2-5-2-4-2-4v-3l2-3 3-2 1-2 2 1 2 1v23h-2l-4-1zm52-29-2-3 2-2c3-2 11-1 11 2 0 1-3 4-7 5h-3zm-34-1c-2-1-3-2-4-1h-6l-6-1-2-4c-2-2-2-5-2-5l-2-4c-2-3-2-6-1-15l1-6-2-2-2-2 3-4 2-5 1-2 2-1-1-3-1-3h2l3 1 1 1v29l-1 1-1 2 1 2 2 1-1 6 7 1v-3c0-3 1-5 2-3l1 6 1 5 1 1c4 1 8 4 8 6l-1 2h-5zm8 0 1-2 1 2-1 1-1-1zm8-1-2-1 1-1 4-2h7l4 1v4h-6l-8-1zm40-2v-3l3-1 2 1v4h-4zm-56-14v-1l4-4-2-2v1l-2 2h-1v-8l2-3c3-2 4-6 4-12v-4l1-1 2-1 2 2-1 3-1 12-1 12c-1 3-3 6-5 6l-2-2zm19-10c-1-3 0-5 1-6h2l1 4v4h-4zm-27-2-2-1v-7l2-10 1-2h-1c-1-1-2-6-3-21l-1-16 1-4h3v-16h3l1 4v17l-2 1h-1l-1-3v16l1 3h2l2 2-1 2h-1v33l-2 3-1-1zm8-21-1-2 1-2 1-2-5-3 1-1 1-1 3 1h4l6-5h3l9 2 5 1v3l-2 2c-2 1-6 0-9-2l-2-1-2 1-2 2-4 2-2 1-2 3-2 3-1-2zm42-11-2-9-1-7 2-1 3-2 3 3 2 2-1 5-1 9v3h-3zm-60-8v-3l1-2-2-2-3-1 1-3 1-7 2-4 1-7v-6h1l2 1v14l1 16v3c-2 2-4 3-5 1zm12-4c-2-2-1-6 0-7 1 0 2 1 2 3l1 3-1 2-1 1zm9-7-2-11c-1-3 1-9 2-9l2-1-1 6 1 11 1 5h-2l-1-1zm4-5-1-11 1-7 1-1h4l-1 7-1 12v3l-1 1h-1l-1-4zm17-3c-1-1 0-3 2-3h2v4h-2l-2-1zm-60-4-2-6v-3h5l1 3v6l-2 1-2-1zm48-1v-2l2-1h2v5h-2l-2-2zm13-1-2-2-1-5v-5l1-2 1-1h2l2 1v4l1 5 1 3v3l-3 1zm-34-17-3-3-2-3-2-3v5l1 5-2 1-2-1-2-17v-17l2-5h1l2 1v23l2-8 1-13 1-6h2l2 1 1 7v6l2 4 3 7-2 2h-1l-1-1-1-2v12l4 3 4 2-2 2-4 1h-2zm-36-1c-1-3 0-5 2-5 3 0 5 3 4 5v1h-5zm49-1-1-1c0-2 3-4 6-3 2 0 3 1 3 2l-2 2h-6zm-54-10-1-5 3-1h2l2 4 1 5-3 1h-2l-2-4zm62 3-1-3v-3h2l3-1c0-2 3-1 4 1s1 5-1 6h-1l-1-1-1-2-1 2-1 2-2-1zm-6-6c-1-3 0-11 1-10 1 0 2 9 1 11l-1 2zm21 0v-2h4v4h-4zm-83-7-2-3v-11l-2-12-3 2c-5 7-7 9-10 8h-1v-5l1-1 7-8 5-6v-7l-6-6v-1l2-2c2 0 6 3 8 5l1 2 1 5 1 14 2 15v7l2 2 2 2-2 3h-4l-2-3zm55-9c-1-2-2-13 0-13h3l2 1v14h-2l-3-2zm28-6-1-3 2-1c0-1 1-2 2-1h2v6h-2l-1 1zm-39-8v-8h1c2 0 6 7 5 8h-6zm-9-3-2-2v-21l1-1 1-1 2 1 2 2-3 16 1 2 1 2 1-3 2-3h2v2c0 3-3 8-5 8-1 1-2 0-3-2zm25-3v-2l7-4 4 2 2 2-1 1c-1 1-11 2-12 1zm11-7-1-4 2-2 1-1 2 1 2 3c0 2-2 4-4 4l-2-1zm-28-1-2-8-1-5-2-3-3-5v-10l1-6h6v-1l3-2h2l-2-2-1-3 1-2 2-1 4 4v6l-3 3-4 2h-2l1 3v4l-4 3 1 2c1 2 4 2 4 0v-2h1c2 1 3 12 3 21v3h-2l-3-1zm-60-2-3-8-1-6v-5c1-5 3-8 5-8l2 2 1 2-2 9 1 4 1 5 1 1c1 0 2 1 2 3v2h-3l-4-1zm121 0 1-2c1-1 4 1 3 2l-2 1h-2zm-51-10-3-9v-4h4l1 4 3 8c1 4 0 7-1 7l-4-6zm55 5-1-1v-2l1-3c2 0 3 3 2 5l-1 2zm-42-2v-3h5l-1 2v3h-4zm14 0-1-2 2-1 1-2 2 3-2 2-1 1zm19-9-2-2 2-2 2-1 1 1 2 1-1 2-2 2-2-1zm-8-3-1-5v-2l3-2 2 1c1 2 1 8-1 9l-1 1-2-2zm-44-7c0-2 4-5 8-5h3v3l-5 2-6 1v-1zm-69-2c-1-1 0-3 3-3h2v4h-2l-3-1zm-19-7-4-1-2-4-1-3 1-1 1-1 2 1 3 1 5 2 4 2v5h-2l-2 1-5-2zm96-8v-6l-3-1-2-1 1-3 2-3-2-16h-1c-1 0-2-2-1-5l-6-6-6-6v-12l-2-3-2-3v-8l1-3 4-2h2l-1 2-1 5-1 2h1l3-3 3-3h2v3l2 7 2 8 3 16 1 1h4l4-1 2 7 1 9c1 2 0 4-2 4h-1l-1-5-1-8v-2h-4l-4 2-1 1 2 1h3l-1 2 1 8 1 6 1 1c2 0 2 3 1 4l-1 9v8h-4l1-6zm-8-47c1-1-2-3-3-2h-1l1 2h3zm-4-16v2-2zm-9 63c0-3 2-3 2-1l1 2h-4zm37 0-2-9-1-8 1-2 2-1 2 5 2 15h-4zm-34-2v-7l1-4-2-2-2-6v-4l2-1h3l1 5 1 4 1-7 1-8 2-1h1v11l-3 18-1 2v2h-4l-1-2zm51-5-2-2 1-9h-1l-2-1v-4h2l2 1v2l2 2 2 1 1 1-1 5v6h-3zm-121-1-2-4-1-2-1 2-1 2-2-2-2-8-2-6 1-5 1-6 2-1h2l1 2 2 2-1 3-1 4v2l5-1 1 6 2 10v3h-2l-2-1zm68-22c-2-4-2-7 0-9l2-1 2 5v4l-1 1-1 2-2-2zm30-6-2-2 2-1h6l3-2 4-3h1l2 2-3 4-3 3h-8zm20-7c0-2 2-3 3-2 2 2 1 4-1 4h-2zm7 0c-1-1 1-3 6-5 2-2 6-3 8-3l3-1 2 1 2 2-2 3-1 1h-5l-6 2h-7zm-136-4-1-4c-1-2-3-17-3-31l-1-12h6l1-2 1-11 1-9-1-4-1-4 1-7 2-7 2-1 2 2-1 4-1 4 2 8 1 6-4 29 1 3c2 5 2 9 1 9-2 0-4-4-6-10l-2-6 2 13 3 26v5h-5v-1zm113-1c-2-1-4-7-3-9l1-2h4v11l-1 1zm10-2-1-5-1-5-1-3v-2l2-1h2l1 2 1 9 1 7h-2l-2-2zm-24-7-3-9c-2-6-1-9 1-9l2 4 1 3 4 2v3l1 4-2 2-3 2-1-2zm15-22-1-1 2-1c2-1 10-2 12-1l1 2v2h-4l-7 1h-2zm-20 0v-3l8-2 1 2c0 2-4 4-7 4l-2-1zm-9-4-2-3v-2l1-1 2-2-2-1c-1 0-2-1-2-3l-3-4-2-1v-4l2-6c1-3 6-8 7-8 3 0 3 3 1 6l-2 2 1 4v5l1-4 2-4h2v25l-1 1-3 1-2-1zm57-1c-1-1 0-5 1-7l1-1-1-8-1-8 1-2 1-1h2l1 5v5c1 3 2 2 2-1l-1-4h7v4l1 3-2 5-4 8-3 3h-2l-3-1zm-8-4v-2h3v4h-3zm23 1-1-4v-1l13-1 1 1 1 2c0 2-6 4-10 4h-3zm-56-3-1-1v-9l-1-9 1-1 2-1v1l2 7c2 6 2 13 0 14l-3-1zm7-1-1-3 1-1c2-1 5 2 4 3 0 2-3 2-4 1zm-15-7-1-3 1-2 2-1 1 5 1 5h-3zm30-3c0-2 1-6 3-6 1 0 2 2 1 5 0 2-3 3-4 1zm-12-3c-2-3-1-6 1-6s3 2 3 5-2 3-4 1zm-126-2-2-2v-6l-1-9-1-2 2-1h2l2 2 2 7 3 6 1 2-2-14 2-1h2l-1-14-1-13h2l3 1a412 412 0 0 1 3 39v1l-1-2-2-2 1-3v-5l-1-2-1 8-1 9-5-1-1 2-2 2-3-2zm139-16c-3-5-4-8-2-9h2l5 2 2 1v2l1 4v3c-1 2-4 1-8-3zm-37 2-5-4-2-3-1-7v-10l5-10 2-1-4-2-3-2-2-4-2-9-1-6 2-6 2-5h5l-1 4c0 4 1 6 3 6l1-3 1-3h3v16h-1l-3-4c-2-6-2-1 1 6l4 8 2 2-2 1-1 1v14l1 3h3l-1-4-1-6-1-3c1-3 3-2 5 0l1 11v8l-2 2-4 2c-2-1-4-7-4-11l-1-7-1-2v21l4 4h13v1l-2 2h-13zm18-3v-2l5-4 5-4-1-7-2-14 4 1c2 0 4 2 4 3v17l-2 5-2 2-5 3-4 2h-2zm37 1-3-1 2-2c3-2 10-3 14-2h2v2l-2 3h-13zm-37-13-1-3v-1l2-2c1 1 3 6 2 7l-1 1zm-129-3-4-7a274 274 0 0 1-10-29c-2-2-3-5-4-12l-1-3 2-1 3 1 3 8 4 10 1 5 2 5 3 8 4 10 3 8-2 1h-2zm177 0h-4v-2l1-2 4-1h4l1 2v3h-6zm-53-7-1-4 2-1h2l1 5v4h-3zm-95 2a143 143 0 0 1 3-44l2-8-3-2v-3l3-7 3-5 2-1 2 1v2a728 728 0 0 1-8 54v13h-4zm136-2-2-2v-12l-8-2-2 1-6 1h-4l-1-1 1-2 6-2h6l2-3 1-3 5-1v-9l-1-9 2-3 1-2c2 0 3 2 5 7l1 11 1 7h2l3 1v2l-3 2-3 1 1 2 1 3-1 1-4-1v7l1 7h-1c-1 1-2 0-3-1zm38-13-2-3-3-2-4-3v-1l10-1 3 3 2 5c0 3-2 5-4 5-1 0-2-1-2-3zm-82-1-3-2v-7l-1-6 1-2c1-2 1-4-1-12l-1-5-5-4v-5l-3-1-3-4-2-2 2 6 2 4-3 2-5-4-1-7c0-8 2-22 4-24l2-1h1l-1 4 1 7v2l2-4 2-8v-3l-8-5-1-3-2-8-2-12-2-6 2-2 3-3 1 1v6l1 6h1l1-4 1-6 1-4h2l3 1 2 1v8c0 7 1 13 2 12l1-10v-8h3l1 11 1 12 1 2 2-4 1 1c2 2 2 6 0 8l-3 1h-2l-2-3-2-5v-2l-6 3-5-1 1 3 3 3 6 3 7 2 6-1 5-2 2 1-1 2-5 2-6 4-1 1 5 3v11h-2l-4-2-3-2-1-1v-3l1-4 2-3-6-3h-3l1 1 1 7 1 7 3 4 1 5 2 6 1 1v-2l2-3 3 2 2 1h1l-1-3c0-3 0-7 2-7h1l3 9-2 2-1 2v2h-5l-6 1-3 1h5c7 2 12 1 13 0 2-1 6-1 6 1l-4 2-4 2-11 1v1c0 1 0 2 2 3l2 2-1 4-2 5c-2 0-2 4 0 5l1 3 1 3 4 1 3 1v-1l1-1h-4l-1-3-1-4 2-1h2l1 4 2 4h3l-1-3c-1-7-3-19-2-20l2-2h1l4 24-2 2-8 5-6 3-3-2zm-12-61v2-2zm-97 57-3-5v-5l-1-8-1-6c1-2 3-1 4 1l1 4 1 4h1v-5l1-8 1-3h3l-1 4v4h1l4-5 4-4c3 0 3 2-1 7l-5 8-2 2-1 10-1 10h-3l-2-5zm168 2v-4l11-1 1 1 1 1-5 4h-3l-5-1zm-34-5-1-5-3-6-2-3 2-1 1-2 6 5v12l-1 1-2-1zm-2-33-1-3 3-5 2-8-1-8-2-6 2-4 2-4-1-2-2-2 1-1 6-1h5v1l1 1-3 1-3 1 1 2 1 3-3 2v8l2 1c2 1 2 5 1 6l-1 5v5l1 2 2 3v2l-3 1-6 2h-3zm5-5v2-2zm-145 1-3-2-1-6-3-20-5-22-3-12-1-4 3-3 1 1 2 7c2 9 4 14 5 14s1-4-1-8l-1-5 1-8 1-9h4a1001 1001 0 0 1 2 62l2 9 1 6-1 1-1 1zm-5-42-1 1 1 1v-2zm159 42-2-2 1-2 4-2c4 0 12 3 12 5l-5 2-7 1-3-2zm20 1-1-2 1-1 10-2 13-1 5-1 3 1 3 3-2 2-2 1h-23l-6 1zm-42-7-3-21 2-3 1-1 1 3 2 4 2 1v12l-1 1c1 2 0 5-2 5l-2-1zm44-7v-10l2-1 1 1 1 6v6h-3zm-136-1v-2c0-3 4-8 6-8 3 0 3 5 0 9-3 2-5 3-6 1zm117 0c-1-1 1-14 2-15h7l1 7 1 7-1 1h-2l-2-7-1-6-1 4-2 10-2-1zm-120-10-2-16 1-8 2-8v-4h4v2l4 4c2 1 3 4 3 5l2 16v1h-5v-8l-2-7c-1-2-2 4-3 14v10h-2l-2-1zm97-13-2-2 1-2v-2l3-1 3-1 1-1 2 2-1 2-2 4-2 2-3-1zm45-3-2-2 1-1 9-2h15l1 1-2 3h-8l-10 2h-3zm-21-3c-2 0-3-2-3-4v-1h7v-3l1-8v-5l2-3 3-6 1-4h-21l-1-1 1-2 3-2 6-2 3-3 3 2 5 2 2-1v-1h5l7 2 3 1h2l-3-4 1-2v-1l5 1 6 1h2v-4c0-4 1-6 3-6h2v8l4 3v2l-1 3-7 2-6 2 2 2-2 2-2 1-3-1-2-2-2-2-5-1h-3l3 1 3 3c0 1-3 2-7 2h-2v4c0 6 1 13 3 15l2 3-2 5-2 3h-2l-3-1-2-2-4 1-5 1zm14-7a1 1 0 0 0-2 0 1 1 0 0 0 2 0zm19-28-1-1h-1l1 1h1zm-59 26-2-9-1-5h3l1 4 2 8 1 5h-3zm-8-2-3-2-2-2-1-7v-5h1l2 2 2 2h2v2l1 7 2 5h-2l-2-2zm16 0c-1-2-1-8 1-9l1-1 1 1 1 6v4h-2l-2-1zm7-4-1-4 1-1 2 1c2 1 2 5 0 5l-1 1zm-100-9-1-1h4l-1 1-1 1-1-1zm-1-6c0-3 1-8 5-15l3-8v-2h2l3 1-1 3-1 2 5 4-1 1-2 2-9 13v2h-4zm63 0-3-4-1 1-2 1c-1 0-3-2-4-5l-3-5-1-11 9-20h10l-3-1c-3 0-7-3-7-4l-1-5-1-3-2-2-3-1c-1 1 3 9 5 10l1 2v1h-3l-4-2-3-7-2-5 1-7v-7l2-2 4-4 2-1 1-4v-4l-2-3-2-4-1-4c-2-1-5-11-6-18l-1-6 2-4 3-6 2-2h6v2l3 1 2 1 4 12v6l1 5h3l5 2c3 2 6 3 6 1l1-1h2v2c0 2-4 5-7 6h-3v3l3-1 6-2 5-2c1 0 2-3 1-9v-4l7-1 1 5 1 5 1 2 2 2 13 1v-2l2-5 2-3h1l1 1v6h12l8 1v4l-20 1-4 3-9-2-7 1-13 3-8 1-9-1h-6v-4l5-2-1-2v-5l-2 1-4-1-1-1v8h-2l-1 1 1 3 2 1v10c2 1 3 9 3 23v12h12l1 3 1 3 4-1 2 8 2 11 1 2-2 1h-2l-4-17v-3l-2 1-3-1v-1l-3 2c-2 0-3 2-3 3l2 2 2 1v4l-1 4c-2 0-2 3 0 3l2-2 1-1 2 1h1l-1 5 1 2c0 2 1 3 2 3l2 5 1 4-3 5-4 2-6 2h-3zm12-4 2-1-2-5-4 3-3-1-4-5-2-3h-2l1 2a7199 7199 0 0 1 5 9l3 2h2l4-1zm-17-9-1-8v-4h-1l-1 4c0 4 2 15 3 14v-6zm5-14-1-6-1-4v10c1 3 3 2 2 0zm-9-39v2-2zm-5-55v2-2zm31 122-1-2 2-2 4-2c1 0 3 0 2-1h-5v-8l6-1 5 3v5l2-1-1-7-2-9-1-3v4h-2l-2-1-1-7-1-7 2-1h2l2 6c0 3 0 5 1 4v-2h4v5l1 4 2 10 1 6-1 1-3 1-8 3-7 3-1-1zm-141-10 2-9 1-6-1-7-1-6v2l-5 11-3 3-7-1v-3l-1-2 1-1 1-3v-5l2-4-2-11a492 492 0 0 1-3-18l-2 2-9-6-5-2-8-4-6-6-3-4v-2l2-2 4 3 4 4 5 3 1 1 3-2 4-2v-5l-1-3 4-1-1-2-2-3-2-3v-2h2l4-2 2-3 4 1v2l-1 6-1 4 9 1v2l1 1-2 1-2 1 2 4-2 1-2 4v2l-4-1v3l1 3 1-1 1-2 6 3 6 3 1 2 1 3-2 2-5-4-1 1v5l1 15a697 697 0 0 0 1 20l1 4 1-5 4-10 3-2 3-2 1 1v20l2 1c2 1 5 6 4 8l-2 1-3-1c-1-2-3-2-2 0v4l-1 3h-4zm-20-72 1-1-2-3-2-2v2l-2 3c-1 1-1 4 1 6l1 1v-2l1-3zm-1-10v-1l-2 1 1 1 1-1zm251 81-1-4c1-2 3-2 7-1l3 1v3l-1 3h-6zm-235-2-1-3v-2l4 1v2l1 3h-2l-2-1zm184-2c-1-2 0-4 2-4s5 4 4 4l-3 1-3-1zm-8-4-2-2v-13l2-1 2-2h2v18l-2 1-1 1zm28-5v-3l2-1c2 0 3 3 2 5s-3 1-4-1zm-7-3c-1-2 1-4 3-3l1 2v2h-2l-2-1zm-215-4-3-4 1-2-1-7-2-4 1-6v-5l-1-2-2-4v-1h5l2 4c2 5 2 10 0 12l-1 1 1 4 2 4 3-5 2-6 2 1v3l-3 8-2 6v3l1 4h-1l-4-4zm209 0-2-5c-2-1-1-9 0-10h1l2 4 2 14c0 2-2 1-3-3zm-108 0c-1-3 1-7 5-10l4-2v-2l2-9 2-6h5v1l-2 6-2 8v4h-2l-5 6-5 5-2-1zm-1-12v-3l-1-12-1-9 1-2h4l1 22v5h-2l-2-1zm71-5-7-1-5-1-4-3-3-3-1-5c-2-6-3-17-3-21v-3l4 1 1-3 2-3h2v17h-4l2 5 1 5v2l1 1 3 2 3-1 1-1-2-8-2-12v-3h1l2 2v1l5-1v6l-1 4 1 9 2 10 1 1 14-1-1 1-2 3h-11zm-150-4-2-6v-4l1-1c2 0 6 6 7 10l1 3h-5zm169 1v-2c0-2 3-5 5-5h2v-6c0-2 3-1 5 1 1 2 3 3 4 2l3 2 3 3 7-1h13l1 1v2l-5 2-9 1-11-1-3-3c-1-3-3-3-3 0v3l-7 1h-5zm-97-6h-2l1-9 1-11c1-2 4-1 4 1l-1 19h-3zm86-3-3-4-2-2v-9l2-1 3-1h2l1 6 1 10v4l-2 1-2-4zm-62-3-2-1 1-3a174 174 0 0 1 2-12l1-2h4v3l-1 4-2 6v5h-3zm95-2-1-3v-2h1c2 0 3 4 2 5h-2zm-225-1v-3l2-1 1 1 1 3c-1 2-4 1-4 0zm242-1-1-2v-14h4l1 18h-2l-2-2zm-34 0-1-5v-4l-5-5-1-6v-7h2l2 2 1 1 2-1 1-2 2 3v24l-1 1-2-1zm-2-20v2-2zm12 17c-3-3-4-7-3-10l1-2h4v3l1 5c2 3 1 6 0 6l-3-2zm30-3v-2l1-2 2-1 1 1 2 2-1 4h-4zm9-9 1-2 1-1v3l-1 1zm-149-10c-1-2-2-12-1-15l1-4h2l2 1v19h-2l-2-1zm-87-7-1-2 3-3 2 2 1 3c0 2-3 1-5 0zm222-1 1-4 1-6 1-4 2-1 2-1v1l2 1 2 1 1 3 1 4 4-1 5-1 2 3v2l-3 1-5 2h-2l-3-1-3-3-1-1-1 2c0 3-4 5-6 3zm33-3-2-2c0-2 2-3 5-3l3 1 2 2-1 2-3 2-4-2zm-71-1-2-2v-21l2-1h1l1 10 1 12 1 3h-2l-2-1zm-29-10-1-9v-7l1-1 2-1 5 2 1 4v6c-1 2-2 1-3-3l-3-4h-1l1 5 1 8 1 3h-3zm-161 1-2-2 3-2 3 2-1 1-1 2-2-1zm181-7-3-7 1-5 1-6 2-1h2l-1 4v4l1 7 2 9v2h-3zm60 2-1-6v-3h3l1 5 1 6-2 1s-2-1-2-3zm12 0v-3h4v5h-2l-2 1v-3zm-54 0-1-7c-1-7-2-15-1-19l1-2h3l1 11v18l-1 1-2-2zm35 0-5-19 1-5 1-1 3 1v4a586 586 0 0 0 3 20h-3zm-84-4-3-9-1-4 2-2 3-3 2 2 1 8 1 9 1 3h-2l-4-4zm76 1-1-2v-4l1-3h3l1 12h-3zm-18-2-2-6-1-4h2c2-2 3 1 4 5 1 5 0 7-1 7l-2-2zm11-5-1-6v-3l3-3 2 3-1 12-2 1zm30 2-1-5-1-5h6v5l-1 5-1 1-2-1zm-158-5-3-11-1-10 1-1 2-4 1-3 2-1v1l2 15v15h-2l-2-1zm-10-4 1-2 1 1-1 2h-1zm53-5-4-4-2-3v-3l1-16 1-13 3-4 2-5-2 2-2 2c-3 0-2-3 0-7l2-5-2-1c-2-1-7-16-7-22 0-5 2-12 5-19l3-5 3-1 3-2-3-2-4-4-1-3 1-11v-11l-1-2-1-8 3-18 1-3-1-8v-23l-2-5 1-3 1-4-1-5-1-10c0-7 1-16 3-18l2-2-6-11v-17l2-1 1-6v-6l4-7-5-4-1-6-1-10-1-5 5-7-4-9-1-7v-7l1-2 3-2 3-1 1-2-1-1-3-2-3-1-2-7-1-11-1-4 2-2 5-1h3v1l-2 3-1 1v15h1v-6l-1-3 2-3 6-8c1 0 4-4 3-5l-5 2-6 2-4-1-2-4-1-14v-10l2-2 2-2-3-2-4-3-2-3 2-3 6-8 5-4v-2l1-4 2-1-1-7 2-3 3-7c0-2 3-5 4-6a7869 7869 0 0 1 23-38c1-4 5-12 9-16l6-5 9-5c2-3 5-5 6-5l12-9 8-6 12-8 11-6 4-3 2-3v-2l5-3 24-20 10-9c1 0 4-2 6-5 7-9 16-18 19-19l2-1v-2l3-6 3-4c0-2 9-14 10-14l3 1 2 1 1-2v-7l2-2 3-5 6-11 4-9 4-1v2l-2 5-1 3h3l2 1v4h-6l1-2-1-1-8 13 4-4 5-5h1l2 2-2 2-1 3-3 3-2 3v2l-2 1-3 2-1 2 1 2 3 1 1 1-1 1-5 1h-4l-1 2-1 3 1 1-2 1-2 2v1l2-1 9 2 9 1h3l1 1-3 2-14-1-1 1-3 1h-3v1l4 2 4 2-4 1-5 1h-1l-4-4-2 1-2 2-1 3 1 1-5 2-6 4v1h2l6-3 3-2 1 1-2 4-3 2h6l5-1-1-1-1-3v-2h2l4 1 2 2 10-1v3h3c4 0 6 2 6 4v1h-26l-13 1-3 3-2 3-3 5-3 4 7-1c4-1 8-2 9-1h3l-1-2h-12v-4h8l4-4h11v3l-6 1v2l1 4 1 3v1h-15v4h5l12-1 7-1 1 1 7 1h6v1l-1 2h-25l-7 1v2h1l8-2h7v1c0 1-8 5-9 4s-9 0-11 1l-3 3-3 3-2 2-1-1-3-2h-2v-1c0-2 3-3 5-3l5-3 3-3-4-1-5 1v-2l2-2 2-3v-1h-4l-6 3-2 3v2l4 1c3 0 5 1 5 2l-3 1-6 3-4 3 2 1 1 2-3 1h-3l-7 6v5h-2c-1 0-4 3-3 4s4-1 7-4l3-2-3-2 3-2v1l3 1 3 1-2 3-3 2 7-1v1l1 1-5 2 1 3h61l4-3h8l3 2 5 3h2v1c0 1-1 2-3 2h-11l-10-1-3 1-4 2h30l11 3h5l6-2-5-2h-5v-3h4l7 2 2 1h6l17 1 11 2 1 1 1 4-1 1h-3a334 334 0 0 0-17-3l4 2v3l-5-1-38-3-3-2-5 1c-7 1-33 0-35-1a242 242 0 0 0-89 9l-19 5a88 88 0 0 0-36 15c-4 2-7 5-14 13l-10 13a717 717 0 0 1 14-14l5-5 4 1 1-2c2-3 5-4 5-2l-3 4c-2 2-1 2-1 3l4-3 4-3h2l3-4 4-4a664 664 0 0 0-21 32c-1 0 0-3 4-9l6-9 1-2c0-1-9 9-15 18-3 5-6 8-7 8l-2-2-1-1 4-6a128 128 0 0 1 7-13l-10 11-7 9-2 4v1l2-1 3-2c1 1-1 3-3 5-4 5-11 17-11 20v2l4-8c2-6 5-9 5-5l-2 6-1 4h1l2-5c1-5 4-10 7-14l3-3 1 1c1 2 0 5-2 8l-3 6-1 3 5-7 5-6 7-8c0-2 2-4 3-5 2-2 5-3 5-1l-5 7-11 19-7 13 1 2 1 2 1-7 7-6 4-8a172 172 0 0 1 14-22c1 0 2 2 0 4l-3 5-9 18-3 4-3 4-1 4 2 1 2-2h5l10-1 8-2h4l1-2c2-4 8-9 11-10 3-2 4-4 3-6 0-1-2 0-8 6l-5 3v-2l3-15 2-5 1-4c2-3 2-5 0-3l-5 12-4 10-1 1-1-1c0-1 3-13 7-20l6-12 4-7-1-1-6 8-6 10-2 2-1-1 3-6a194 194 0 0 1 16-26h2l1 1 1 2 1-2c6-8 10-13 11-12v3h3l1 2v2l-2 1c-2 2-3 4-1 4l4-4 3-5-2-1-1-1v-2l3-1 5-2 5-1 3-2h12l7 4 3 6v6c0 10-5 34-6 35-1 0-2 6-2 13l-1 13 2 1 18-1c17-2 36-3 38-2s17 0 37-2l11-1 22 1 22 2 1 1-2 2-41 1h-67l-25 1-3 1-10 1a626 626 0 0 0-138 24l-1 1 3 1 8 1c5-1 18-3 26-6a590 590 0 0 1 146-18 477 477 0 0 1 64-2 494 494 0 0 1 77 7l3 2h5l6 1-1 3v2h-2l-15-4c-1-2-12-4-16-4l-3 1h2l5 2 4 1v4l-12-1-20-1h-8l-3 1-4 2-6-1-4-2h-25l-1 1v1l-83-1 1 12h-3l-1-6-2-6h-21l-3 1-9 2-13 2-7 1-1 2v2h-4v-1c0-3-3-2-4 1l-2 2-2-2-1-1-2 3-4 4-2-1-1-1-1 1-1 2 1 5v6l4 4h6l-4-4 2-2h6l2-1 2 2-1 2-1 2h4l3-1 1-15 3-3 2 1-1 3 1 5c1 3 4 3 4 0v-1h3l6 2h3v3l2 3h1l-1-2v-3l1-1 3 1c2 2 4 1 4 0l1-2 5 2 6 1 2-1v-3l1-6 1-3h4v2l1 3h5v2c1 2 7 5 9 4h3c4 3 5 2 1 0l-3-3 1-1 2-2 5 3 6 3 4 1 3-2 13 1-1 2v2h-6l-13 1-17 2h-12l-4-4-3 1c-3 2-9 3-24 6l-9 1-2-2c-3-2-5-2-3 1l1 1-2 1-3-1-2-1-6 3-22 1-7 3-5-1-2 2-6-1-4 3-9 5-3 3v4l2-2 2 2 1 6v3h-2l-2-4c0-2-1-3-2-2s-1 6 1 8c1 3 5 5 7 3h1l-1-7v-7l2-3 3-2c2 0 3 3 2 6l-2 8v5l5-1 6-1 1-1-7-1-1-2-1-1 4-3-1-3-1-4c1-3 3-2 4 3l3 4 2-9v-2l2-1h1l1 3 1 4-1 2-1 3v2h2l4-1h2v-5l1-8 1-4h1l2-1 2-1h1l1 5c1 7 1 8 3 9h1l-1-8 1-1 1-2 1 1 3 6 1 4 2 1 3 2v1l2-1h10l2 2-2 1-15 4-9 1-5 1-7-4-6 4-12 4-5 2 1 1h1v13l-1 1h-2l-1-8v-7h-2l-4 1-2 1v8l1 13 1 5h2l3-1-2-2-2-2v-7l-1-7h4v3l2 4 2 4 2 5 1 3 2-3v-8l-1-1v-8l1-8h1c1 0 4 6 4 9l1 1h3l3-1v1l-2 3-2 5v3l3-4 3-3v-10l1-3h4v20h3l5-1h2l-1-2-1-2 3-1 4-3 3-4-1-4v-4h6l1-5h2l2 1v3c-2 3-1 5 1 3l3-1h1l-1 3v3l1-2c2-2 4-1 4 1l-1 2-6 6 2 1h2v6l-6 1-4 1-3-4-2 1-8 4-6 2-7-2-2 2-5 2-5 2-2 2-2-1-3 1c-2 1-4 7-4 10l2 4 2 2-1 3v3h2c1-2 2-1 3 4l2 6 2 2-1 2-2 1h-10l-2 3v3l-2-1-2 1 2 3 3 6v2l2-1c2-2 3 0 2 3l-1 3 1 4 3 4h2v-3c-1-3 1-7 3-8h2l1 1-2 6-1 7h1l3-6 2-4h4l-1 5-2 7-1 1h6l1-1-1-2-1-2h10v4l2 5 1 2-2 2-1 2v4l2 5 1-2c1-3 3-7 5-7h1l1 3v15l-1 2 3-4 3 1h15l4-1 8-17v-7l2-1 3-2h1v13l1-1 3-4 2-6 2-1h2v2l-2 6-1 4 1 1 1 2-1 3-1 4h29v6l-1 4-5 6v4l1 7 1 2-2 7 3 6 4-1h11v3l-7 1-8 3-2 1h-2l-1-2-2-2-2-1-4 4-7 1-9 1-6 1-10 2-3 1v2l1 1 2 1 1 1-3 1-10 2-8 1-2 3h-4c-4 0-7-2-4-3l4-1h4v-4h-3l-7-1-9 3 1 4 2 4v12l-2 1-2-1-2-8-2-9-1-2-9 1-2 4h-3c-5 0-5 0 0 1l4 1v2l1 2h-2a276 276 0 0 0-40 10c-4 0-7 2-9 6-2 2-2 13-1 13l1-5 1-8 3-2 3 3 2 2c1 0 3-2 3-4v-2l3 1v14l2-2 2-2 2 2-1 4-1 5h-1l-2-1v2l1 6v3h1l1-2v-5l1-3h4l-1 5v4l2 1 3 1 23-3h6l2 2 1 1h8v2l-2 2h-4l-25 4-8 2-1-1v-2l-2 1-6 2-6 2c-2 0-4 3-6 5l-2 4 1 4v30l5 4h4l11-2h7v-2l1-5 1-2-1-19-1 6v5h-2l-2-2c-1-4 0-16 1-18l1-3 2 1v6l1-1 2-1 3 3v28l-3 4-4 4-6 1-5 1-1 2h-10l-3 4-3-1-3-1v-5l-2-16h-1v10h-3v-8l-1-8-1 4 1 17 3 3 3 1-1 6 1 2 3 1h3l-1 5v13l1 6 1-1 4-2h3v2l1 3h2c3 0 4 2 3 5v2l1 1 1-1 2-1 1 1 1 4v3h2l4-1 1-1-1-1-1-5v-3l1-1 2-1 1 2 3 3v6h2l6-1 5-1 1 1 1 3v1h-7l-11 2-12 2-19 6c-4 2-6 3-8 1zm6-5-2-9-1-2v-4c0-8-2-18-3-17v29l1 2c2 2 5 3 5 1zm9-3-3-4-2-7-1-3v11l1 3h5zm0-12v2-2zm-14-71-1-1-1 3v3l1-2 1-3zm6-22h-1l1 1v-1zm9-6 5-1-2-1-5 1-7 2-3 1v1h3l9-3zm27-4-1-1h-3l-2 1 3 1h4zm-36-3-2-4-2-1v7l3 1h2zm9-2-1-4v7l1-3zm-5-2c-1-5-2-7-1-2l1 5 1 1zm-7-6a1 1 0 0 0-2 0 1 1 0 0 0 2 0zm6-7v-6l-1 1-1 1v5l1 6 1-7zm-4-25a1 1 0 0 0-2 0 1 1 0 0 0 2 0zm11-2-1-5-1-3-2-4-2-4h-1l1 7v7l4 4 3-1zm10-4 1-1-3 1-6 2v1l3-1 5-2zm14 0 2-2-3-1-3 1-2 2c1 2 4 1 6 0zm-34-11c-1-2-2 0-2 2v4l1 2 1-4v-4zm21 6h5l-1-3v-3h3l2 1v-6a387 387 0 0 1-1-28v-1h-3c-7 2-9 2-11 4l-2 2-7 1h-6l2 2 2 3 1 1 2 1v5l-1 3 1 3 3 8 1 6 1 1 3 1 6-1zm-4-3-1-1-4 1v-1l-1-6v-6l1-1 1-1v-9h1l2 1c1 2 3 9 3 16l1 6-1 1-1 1zm9-19v-1 2-1zm22 14 4-2h4l5-1 7-1 7-1 3 1 4 3 4 2h3l3-2-1-2-1-2v-10c0-10-1-18-2-19-2 0-1-3 1-5l2-2-1-1v-2l2-1 4-1h2l-1 8-1 15-1 7 1 4 2 4 4-1 13-2 13-2h4v-2l2-2 1-1 2-4 3-3-1-4-3-9-1-6 2-1 6-2 4-2v-4l-6 1-11 2-8 2-6-1-3-2v-6l-2-1-2-1-1 1 1 2 2 1-1 2-3 1-2 2-1 2h-7l-11 2-2 1-2-1-3-1v2l1 3-3 1-5 2h-3l-3-3 3-1 4-2-4-2h-2l-1 4-9 7-3-5-5 2-9 3-6 1-1-3-2-3-3-6-1-4 2-1c0-1 1-2 2-1l1 2 2 6 2 3h2l3-1-2-3-2-4 1-2h1l8 8v-5h2l3 2 1 1h9v-7l1-10 1-3-3-1-2-3 1-3 2-2-3 1h-12v3h-3l-3 1-7 1-9 2-3 1-6-1-5 4 5 3 1-2 3-3 1 2 1 1-4 4c-2 2-5 5-5 7l-1 3 1 2c0 2 1 3 2 3l1-4 3-6 3-2 2 2v8l4 4 3 4 2 5 2 5-1 8 1 7 2-1 2-2 1 8v8c1 2 4 1 8-1zm2-4c-1-3 0-5 2-5l1 3c0 3-2 4-3 2zm-4-3-1-2-2-3-3-2-1-15 2-2 2-2h1v15l1 1 1-1 2-5 3-2-1-2c-1-2 1-6 2-6l2 1 1 10v8h-3v-2l-1-3-2 1v6l-1 5h-2zm22-6v-7l3-1 1 2c1 2-1 6-2 7l-2-1zm-7-3c-1-2-2-10 0-12l2-1 1 1v6l-1 6h-2zm-61 4v-8h-1l-2 1-1 9v7l3 2v-2l1-9zm10-24v-4l-1 1c-2 3-2 8 0 8l1-5zm-13-1v-6c-2 0-2 7-1 9l1 2v-5zm26 1-1-1-1 1 1 1 1-1zm-3-5h-1l-1 2 1 1 1-3zm-15-3 2-5 2-3 2-4-1-2v2l-1 2h-5v2l-1 11c1 0 2-1 2-3zm3-19v-5l-2 3c-2 3-2 4 0 4l2-2zm-9-1h-1l1 1v-1zm9-13-1-3-1-1v13l1-3 1-6zm8 5 2-2 2 1 2 1v-2l1-3 1-1-1-3v-4l3-2 3 3v-3l-1-17v-1h-3c-4 0-12 3-14 5l-2 4 1 14 1 12h1l4-2zm-1-10-2-8-1-7h5l-1 3 1 8 1 5-2 1zm-18 8-1-4c-1-2-2-2-2 1l2 6 1-3zm31 0-1-1-1 1 1 1 1-1zm14-5v-2l-1 1c-2 2-2 4 0 4l1-3zm-36-17-1-6-1-3h-1l-2 1v4l-1 4 1 1 2 2-1 3-1 5 1 1 2-4 2-8zm15-12 2-2c-1-1-3-1-5 1l-3 2h2l4-1zm-8-2v-1l-3 1h3zm-6-4 2-2h-1c-2-1-2-6 0-11l2-4-2-6-1-5-5-1-1 2c-2 1-2 2-2 3l1 1 2 1-2 11 5-6 3 2-2 3-1 6v3h-4l-4 1-2 1 2 1h10zm18-1h-4l-2 1h4c2 0 3 0 2-1zm-13-6c0-2 0-4-1-3l-1 3-1 3h1c1 0 2-1 2-3zm28 1-2-2-2-4-3-4-2-1 1-8 1-10v-2l-2-1-5-3-2-3v-6h-4v-2l2-8 2-5-2-1-2-1-3-1-1-1-6 7 1 4c1 9 2 16 4 18l3 4 3 4v1l2-1h2l1 8 1 8h-2l-1 1h3l2 2 2 2-1 3v2h5l3 1h2zm-21-34-2-5v-2h4v2l2 2 1 3v2h-2l-3-2zm9 33-2-2-1-1-5 4h4l4-1zm-32-6-1-3-1 3v3h1l1-3zm22-6c-1-7-3-11-4-11-2 0-2 4-1 9l1 4 4 1-1 3v4l2-4zm-25-20v2-2zm7 0c0-2-1-3-2-3s-1 3 1 5 3 0 1-2zm10 1-2-6c-2-3-2-6-2-7v-3c-2-3-4-4-7-4h-1v9l1 1 1 1 1-4v-3l3-1 1 8c1 7 2 10 4 10l1-1zm-15-9v-2l-1 1-1 3v4l1-2 1-4zm53 1h-1l1 1v-1zm8-3 1-2-1 1-2 2-2 2h2l2-3zm25-7v2-2zm7-5 1-1-2 1-1 1c0 2 2 1 2-1zm-82-8 2-3-1-4-3-5v-1l-1 2-1 8v5h1l3-2zm13-8-1-4-1-1v3l1 4 1-2zm-7-6v-7l1-4h-2l-2 2-2 1 1 3 2 5 1 3h1zm8-11h-2l-1 1h2c1 0 2 0 1-1zm-18-3-1-3c-1-1-1 0-1 2 0 4 2 4 2 1zm24-5v-1h-2l-3-1c-1-1-6 2-5 3l6 1h5l-1-2zm-16-3v-1 3-2zm22-1h-2l1 2 1 1v-3zm12-5-1-2v1l-1 5-1 4 3-3 2-2-2-3zm-20 2-1-1v1l1 2v-2zm11-3-2-4 1-3 3-3 4 2 1 1 1-1 2-2 2 6 3 6 1-2 1-2-5-7 1-3 1-4-14 4-3 1v11l2 2 2 2c1-1 0-2-1-4zm-24-1-2-1v3l2 1 1-1zm47-2 1-2-2-2-2-1 2 7 1-2zm-32-3 2-3h-4v6l2-3zm114-1c-1-2-2-4-2-2l2 4v-2zm-137-2v-1l-1 1v1l1-1zm57-8 1-2h-2l-4 2-3 3 2 3 2-2 4-4zm-62 2h-3v2l1 1 5-2zm18-21c-1-1-2 2-2 3l1 1 1-1v-3zm12-6 3-8-5 8c-3 3-4 7-4 7l1 1 5-8zm147 3h-1l1 1v-1zm46-1h-39l-1 1v1l20-1 20-1zm43 1 1-1h-20l-1 1v1h9l11-1zm18 1-4-1-3-1v1l4 1h3zm-195-5 10-2 11-7 11-7v-1l-2 1-4 2-12 7-11 5-3-2-2-2 1-1 2-2v-3c-1 0-2 1-2 3l-1 2-3 1-6 3-3 2-1 2v1h3l12-2zm27-6 10-5c3 0 2 2-2 3l-4 3-1 1h1l3-1 2-2 1 1 1 1 2-2 2-2h1l-1 2 1 2 1-5v-2l-2-1-2-1-3-2-4 2-9 7-6 4v1l9-4zm-17-3 17-10v-3l-1-8a72 72 0 0 1 5-26l2-4 2-2-3-3c-3-4-5-7-4-8s5 3 6 6l2 2v-2l-2-5v-4l5-2-4-3-5 3-6 6-4 6c-3 4-6 12-6 16l-1 7a162 162 0 0 0-9 34v2h1l5-2zm16-58 1-1c2 1 2 3 0 3l-1-2zm-106 53v2-2zm74-4 3-3 1-3v-3l-1-1-4 5-6 7-1 1h2l6-3zm10-8 1-4h-1l-2 8v2h1l1-6zm-4-10 3-10 2-7 1-2h-1l-3 7-4 8-2 3-2 5-2 4v1l3-2 5-7zm-1-12 2-6 5-8 5-8v-1l-2 1-6 8c-4 7-8 15-8 18v1h1l3-5zm10-6v2-2zm3-5 1-2-2 1-1 4v2-2l2-3zm35-15-2-1v3l2 1 1-1zm-61-9c1-1 2-2 1-3l-3 2c-2 2-1 3 2 1zm29-3h-1l1 1v-1zm8-2-1-1-2 1-2 1h6l-1-1zm-20-1 1-1h-2l-1 1 1 1 1-1zm17-3 12-2h2v-4l4-5 4-5-1-1-8 8c0 2-5 4-8 4l-4 1-3 1-6 2c-3 1-4 3-2 3l10-2zm17 1h-1l-2 1h2c1 0 2 0 1-1zm16-2h-8v2l4-1 4-1zm59 0 1-1h-2l-2 1 1 1 2-1zm-7-1h-2l1 1 1-1zm-17-3h-2l-2 1h2l2-1zm6 0 2-1h-2l-4 1h4zm-90-2 1-2-3 2-1 2 3-2zm40 1c1-2 1-2-2-1l-1 1c0 2 1 1 3 0zm-27-4c2-3 0-3-2-1l-3 2h2l3-1zm11 0a1 1 0 0 0-2 0 1 1 0 0 0 2 0zm-8-11a1 1 0 0 0-2 0 1 1 0 0 0 2 0zm30-2 2-3h-3c-4 0-9 4-9 5v1l8-1zm-22-6 2-2v-1l-2 1-3 2-2 2h2l3-2zm30-3 3-2 1-1h-3l-2-1 4-8c3-2 2-3-1-2l-3 2v1l-1 2-3 2 1 3 2 3v1h-3c-3-1-6 0-5 2l1 1 3-1 6-2zm-13 0v-3l-3 3c1 2 3 1 3 0zm5-8 1-1h-3l-5 2-1 1h7zm1-7c3-2 4-4 2-4s-6 4-6 5c0 2 1 1 4-1zm13-4 4-2 1-1-9 1-4 4h3l5-2zm4-7 7-3v-1l-2 1h-6l-3 1-2 2-2 2 8-2zm3-7 1-1h-2l-2 1 1 1 2-1zm9-3 2-1h-3l-4 2 5-1zm20-25v-2h-2l-2 2-1 2h5zM341 727l-4-3-1 2-1 2h-3v-3l2-4 4-2 3-1 1 2 3 2c2 0 3 4 2 6l-2 1-4-2zm38-2-3-3 2-3 2-1 1 1 4 3h2v-1l2-3h7v2l-1 2-1 3v2h-12zm-19 0h-1v-13h4l1 4 1 4h1c2 0 3 2 1 3-1 2-5 3-7 2zm71-1 1-3 2-1 2 1v4h-4zm-224-3-3-9-2-6-3-7-2-6-4-4-4-5-3-5-3-5-5-7-4-6v-5l4-1 5 8v-1c1-1 0-3-1-5-2-2-3-5-3-7l-1-5h4l2 1 5 14-1 5v6l4 9 6-1v2l1 1-2 1-2 2 7 5 2 6 2 7 3 7 3 5v8h-2l-3-2zm199-1-2-3h-3l-2-4c-2-4-2-8-2-16v-5l1-2 2-1 6 1-1 4v15l1-2 3-2h1v4l1 7 1 3-1 2-3 1-2-2zm-83-2-1-3v-2l-4 3-1-3-1-4-2-8-1-5 5 1v2l2 7 1 5h4v7h-2zm93 0-2-1 1-1 1-2h10v4h-10zm-81-1-2-2v-26l1-1 3 1 1 2v25l-2 2-1-1zm49-1v-3h3v5h-3zm-33-2-1-3v-4l1-3h4v11l-1 2h-2zm80 2 1-3 8-2h6l2 1 2 2-4 3h-15zm-136-4-1-3v-6l-1-8v-3h3l1 5 2 11v6l-1 1-3-3zm70 2c-1-1 0-5 1-5h2l2 2-1 2c0 2-2 3-4 1zm89-2-1-2 2-3 2-2 3 1v3c0 3-2 5-3 5l-3-2zm-112-1c-1-2-2-17-1-20v-2h4v20c-1 3-2 4-3 2zm33-2c-2-2-2-6 0-7h1l1 2c2 2 2 6 0 6l-1 1zm-73-5-2-7v-4l1-2 2-1a335 335 0 0 1 2 17c-1 2-2 1-3-3zm-82 2-2-5-1-4 1-2 2-1 3 9 1 4h-2l-2-1zm62 0-2-8-1-8 2-1h2l1 9 1 9h-1l-2-1zm26-7-1-9-1-6 5 1 1 5c1 7 0 12-2 13h-1zm54-1-1-4 1-2 2-2 2 2 1 6-1 4h-3l-1-4zm-75 1-1-11 1-3h3v7l-1 7-1 1zm-57-4-1-5-2-11-3-7 2-2 1-1 2 1 2 1 1 10 2 12v3h-2l-2-1zm54-22-3-20v-9l3-1h6v8h4l2 1v6l-11-1 1 6 1 8v3l-1 1h-1zm31 0-2-2 1-1c2-1 5 0 4 2l-1 2-2-1zm10 0 2-5 4-2c3-2 7-3 7-1v1h4c7 0 6 3-3 5l-9 3h-4l-1-1zm-31-2v-3h3v5h-3zm62-5-2-1 1-1 3-2h2l-1-3v-3l5-5v-8l1-9 3-1h2v3l1 14-1 11h19v3l-3 1c-5 1-29 2-30 1zm57-5-1-3 3-2c8-4 9-5 9-6v-3l-1-2-2 5h-1l-2-1v-5l-2-7v-3l1-1 3-1 2 3 1 2 1-2v-3l-4-1v-2l2-5 1-2 4 1v3l1 5 1 13v11l-1 3-1 3h-5l-6 1c-1 2-2 1-3-1zm-96-3-1-8v-5l2-2 2-1 2 2-2 4 1 12-2 1-2-3zm13 2-1-3v-1h-4l-1-2v-7l1-8 1-1 2 1 1 6v7h5l-1 4-1 4h-2zm19-2-1-3v-6h4v11l-3-2zm100 1h-17l-2-2 1-1c2-1 7-2 26-2h13l1 1-5 5-17-1zm-225-1v-14l-3-8-4-22-2-7-1-13v-10l-2-4c-2-3-2-9-1-10 2-1 4 1 6 6l2 5 1 15a228 228 0 0 0 4 29l1 3 1-3v-3c1-1 2 0 3 1l2 1-1 2-1 14-1 15c-1 3-3 5-4 3zm153 0 1-3 1-1 1 1c2 1 1 4-1 4l-2-1zm-38-8-1-8v-7l2-1h2l1 9v9h-1l-3-2zm-176-1-3-4-1-2 1-5 2-5 1-1 2 3v8l1 2c2 3 1 6 0 6l-3-2zm227 1 1-3 2-1 2 1v2l-3 2h-1zm-219-2a2 2 0 0 1 3 0 2 2 0 0 1-3 0zm207 0c-1-2 0-4 2-4s3 3 2 4c-1 2-3 1-4 0zm-6-8v-3l1-3c1-4 3-6 5-6v6a996 996 0 0 0-4 9h-1zm-195 0-1-2v-2h4v5h-1l-2-1zm37-2c-5-2-7-5-8-7l-2-4-1-3 1-2c2 0 14 12 15 14l-1 4-4-2zm-44-2v-2c2-2 4 0 4 2v2h-2l-2-2zm-15-2-6-18-2-4 1-2 2-2c2 1 7 17 8 22v4l-1 1-2-1zm15-9-1-6v-5l3-1 1 2v7c-1 5-2 7-3 3zm-9-12c-1-9-3-15-6-18l-1-1-7 1v-2l-1-2 3-1 3-2 1-2h4l5 6 1-1c1-1 3-1 4 1l1 2-2 3-2-1-2-1v1c0 2 3 3 5 2h1v1l-1 3-2 2v9l1 9h-3zm262 6c-1-1 1-3 3-2l1 2v2h-2l-2-2zm-196-8v-4l4 1v2c1 2-1 5-3 5h-1zm115 3v-2l-2 1-4-1-1-4-1-4h-2l1-9v-9l2-2 2-1 3 1-1 6-1 6 2 1 2 2 1 2 3 1 8 1 3 1 9-2 19-3 10-1 1 1 1 1-2 3h-11l2 1 10 1h9v2l-1 1-4 2-15 1-17 2-14 1-10 1-2-1zm27-6h9v-2l1-2-3 1a294 294 0 0 1-20 4l-1 1h3l11-2zm-63 4c-1-3 0-6 2-6l2 2c1 2 0 6-2 6l-2-2zm-72 0 1-5 2-3 5-1v1c0 2-5 9-7 9l-1-1zm67-5-1-3v-1l-4 1-1-1-1-3-1-8-1-7h2l2 1 1 7 1 7h2l2-3v-2l5-1v2l-2 3-2 1v4l1 4h-1l-2-1zm9-8c-2-10-3-15-2-19l1-2 4 1 1 10 1 14v4h-3zm124 5-5-1-9 1-1-3 2-1h7l18 1 11 1v3l-1 1h-8l-14-2zm-29-5c-1-1-2-4 0-4h3l15-1 11-1 3 2-1 3h-22l-2 2-4 1-3-2zm-82-1-2-3-2-2h-2l-1-3v-5l2-2 2 2 1 2h2l2 1 1 5 1 5h-4zm119 0v-2c1-1 8-3 13-3h5v4l-6 1h-8l-3 1-1-1zm-90-3-1-6 2-1h2l1 2c1 2 0 6-2 6l-1 1zm-218-4-7-5v-2l2-2c1-1 5 1 8 4l4 4c1 3 1 6-1 6l-6-5zm331 3v-2l4-1 5-1c2 1 2 5 0 5l-5 1h-4zm-66 0v-7c0-6 2-12 4-13h3l1 1v8l1 9h-2l-3 2c0 1-3 2-4 0zm59-4-1-2v-13l3-1 3 1 2 1v6l-1 8-2 2-4-2zm-339-2-4-9-3-7 1-4v-3h4l2 6 2 8 1 6-1 3-1 1-1-1zm228 0c-1-1 0-9 1-11 0-2 2-3 2-3l2 2v7l-2 6h-1l-2-1zm-117-31-1-1v-41c1-2 3-3 4-1l1 22 1 20-3 2-2-1zm155-1v-2l22-3h5l4 4-1 2h-15l-15-1zm56-1-7-1-1-1 7-2 13 1v4h-3l-9-1zm-331-5-3-7c-1-8-5-15-8-19l-3-3 1-1 1-3c1-1 3 1 5 3l4 3 1 4a4637 4637 0 0 0 7 24l-1 2h-3zm332-5v-2c1-1 6-2 10-1l3 1v4h-12l-1-2zm-238-7-1-26v-26h3l1 16v18l1 6 1 5-2 3-2 4h-1zm-5-8-3-10-4-13-2-7-3-9-3-8 3-2 3 2 2 7 3 12c3 8 7 22 7 26l-1 2h-2zm254-25h-9l-1-2-2-2-1 1-4 1h-2l-1-2 1-2 1-1-2-6-2-7 2-2 2-4 1-6 1-3h4l-1 3v3l1 1 2 6 1 6 1-4 3-3h2v5l2 6 1 3v2l-2-1-3-2-2-1h-1l1 2 4 3h9l8 1 2 1v2l-1 3h-3l-12-1zm-231-26v-9l3-5 3 1v6l1 7 1 2-2 1-2 4v3h-4zm33 5c-1-2 1-3 3-3l2 3v1h-2l-3-1zm90-8-2-1 1-1 1-2h3l4 1 1 1-2 2h-6zm14-2-2-1v-2l2-4 2-1 1-5 1-7c0-1-1-5-3-7l-3-5h-2l-2-2v-1l3-1 4 1 2 1v-2l-1-3 3-1v2l1 2 6-1-1 2c-2 4-2 9 0 9h1l-1 10h1l3-3c3-4 6-5 6-3l-2 3c-2 2-6 15-6 17v2l-5 1-8-1zm17-2-1-2v-3l2-5 2-4 2-2h2v2l-1 3-2 3v2h1l2-2 1-3 4-1 5 5h6l6-1 1-24-1-5h3l2 10 1 13v3l2-2-1-10v-17h1l3-3 4-5 2-2-7 3-7 2h-12l-4 1-2-1-1-1v-5l-2-23 1-2c1-2 3-2 6-1h2v9l-2 2-1 5v3h2l2-1 1 2 2 4v2l6 2 11-3v-2l2-3 2 2 1 1 3-2 4 1 5 2 3 1 3 1v13h-5v-4l-1-3-1 1-1 4v1l-4-3-1 2-3 3-2-2v-2l-2 3c0 2-2 3-3 3h-1v10h3l2-1v-3l1-5 1-2h2l1 1v10l1 1 2 2-2 2-1 3v2l6-5 3 1-2 3c-2 4-3 6-1 6l1-3 1-3 4-1 1 3 2 2 3-2 1-2h3l5 2 5 1c3 0 5 2 4 4l-3 1-4 1-2 1-1-2-2-1-9 2a225 225 0 0 1-31 3l-8 1-10 1-1 1-5-2-4 2-4 2-2-1zm46-18-1-3c-1-1-3 3-2 4 1 2 3 1 3-1zm8-32-3-1h-4l2 1h5zm-226 35v-2l3-1 2 1-1 2-3 2-1-2zm-5-8-2-1v-4h6l5 4-1 3h-3l-5-2zm141-10-5-2-3-2-2 2-2 2c-1 0-3-2-4-7v-3l1-4 1-4h5l-5-10-1-5v-3h4l1 3 1 2 2-4 2-4h2l3 1-3 6-2 5h1c2 0 5-2 5-4 0-1 2-2 4-1h1l-1 2c-1 3 0 12 1 15l1 2-4 4 2 2c1 1 2 2 3 1h1l-1-8v-9l2-4 3 2v14l3 2 7-3 1-3 1-3h2l1 2 1 2 7-1 8-1 4 3 1 2-1 1-1 2-2-2-5-1-16 4-7 3-5 2-9 3-3-1zm-2-6v-1 3-2zm-1-8c2-2 3-5 3-7v-3h-2l-4 10-1 4h1l3-4zm-144 10h-4l-2-5-3-5c-1-1-2 1-4 2-4 2-6-1-2-5l2-2h7l2 3c3 4 7 7 8 7l6-12 1-4h4v3l-3 11-4 8h-2l-6-1zm24-5c-7-3-9-6-8-7h6c1 1 3 2 11 3l5 2 1 1-2 2-4 2-9-3zm226-1-1-2 2-5-1-5-2-6c-1-2-2-13-1-15l1-2-5-2-6-1-8-3-5-2-1-11-1-10 1-1 3-2h1l-1 7v6l1 3 3 3 1-4 1-6 1-2 2 2v14h1l2-2v-2l4 1 2 2c0 2 2 3 3 4h7l4 1 1 4h-7v6l1 6 1 3 1 5 2 2-1 4-1 8-1 4h-2l-2-2zm-284-1-1-4 1-1h6l8 2 1 1v2l-1 1h-13zm296-3-3-4v-2l10-5 5 3 3-1 6-1h4l1 2 1 3-1 1h-10l-4 5-5-6-1 2-3 6-3-3zm-400 1-1-2 1-1 8-3 7-1c1 1 0 4-3 5l-6 3h-4zm301-2-1-2 1-5 3 1v7l-1 1-2-2zm-283-6-1-4c-1-2 0-5 1-5l4 2 2 2-2 1c-1 2 0 4 2 3 1-1 3-7 1-8l-1-2v-2h2l2 1v4l1-3v-2l6-5c2-3 5-5 6-5l1 1v3l-1 3h2l1-1 2-2h1v4l-6 2-1-1h-2l-3 4-4 3h-2l1 3 1 5v2H72zm337-1-1-3 1-3 2-2 2 2v9h-2c-1 0-2-1-2-3zm-7-3-2-3v-5l-1-6 3-2 6 3-1 2-1 7-1 7-3-3zm-337 1-3-2 1-3 1-2h2l2 1 1 3-1 4-3-1zm25 0v-2l7-4c5-3 10-4 11-2l3 1 3 1-2 3-2 1-7-2-5 3-6 2-2-1zm27-7-2-3v-1l3 1 4 1c1 1 0 3-2 3l-3-1zm-50-2v-3l2-1h2v2l-1 2-2 1-1-1zm70 0v-3l-4 1-7 1h-2l-1-2c0-2-1-3-3-2h-8l-8 1-1-3v-4l3 1 1 1 3-1c2-2 6-2 6-1l2 1 12 3c1 1 8 2 10 1l1-1 4 3 9-1v-3l1-2h-2l-4-2-4-2h-3v5h-4l-2-2-1-4v-3l6 1 1-2 3-3 2-1 1 2 4 4 4 3 3 2 3 2 2 1 4-3 4-2v-4l1-1c1 0 3-1 3-3l2-3-17-3-10-1v-4h10l9 1 6 3 6 4 2 2h2v-2l-2-5-1-3 3-2 3-2 1 1v6l-1 7v3l4-1v-5l1-5h5l2 4-1 2h-3l-1 2-1 2 2 1-1 3h-8v-1l-1-2-2 2-7 6-6 3v4l-13 1-4 3h-11v-1l-1-2-2 3-3 2-1-1zm-28-1a2 2 0 0 1 3 0 2 2 0 0 1-3 0zm130-7c-4-2-5-4-5-5 1-2 4-1 8 1l5 2v4h-3l-5-2zm135-5-1-1 6-4 6-3 10 1 7-4 3 2-2 1-6 4-5 3h-5l-9 1h-4zm36 0-3-2v-6l5-1v2l1 4 2 2-3 2zm-280-1c-1-1 0-2 1-2h2c0 2-2 3-3 2zm120-1-3-1 1-2 2-2 4 2 2 2-3 3zm222 0-3-3c-2 0-5-5-6-11l-1-8v-3l9-1v11l3 2v9h5l2 1 8-4 3 2 3-1 6-1h3v2l-1 3-8 2-2-1-1-2-4 2-3 2-4-2-2 2-3 1-4-2zm-313 0 1-5 2-4 2 1 1 1-2 4c-1 4-3 5-4 3zm76-1-2-2 1-1 1-2 2 1 4 2c1 0 2 1 1 2h-7zm104-1-1-6v-3h4l1 2-2 9-2-2zm116 1-1-2v-2h5v2l-2 2-2 1v-1zm-291-1c0-1 3-2 5-1v1h-5zm36-4c-1-1 0-2 2-2h2v2c0 1-3 2-4 0zm25 0-7-2-2-2v-4h2l8 2 6 2v5h-2l-5-1zm215 0v-2h3c1 1-2 3-3 2zm-32-11v-5l1-1 2-1 2 1v5l-1 6h-3zm-290 1-2-3 1-2v-1l5 3 13-2 2-2 5-3h2l-1 3-1 4c-2 2-10 3-16 3l-5 1-1 1zm-20-4v-2h2l1 2-1 2h-2zm-13 0h-5v-3l-1-2h3c1-1 5 0 8 1l6 1-1 4h-3l-7-1zm15-4c-1-2 0-3 2-1l1 1h-3zm-35-4-4-4 4-3 3 1 2 2v7c1 2-1 1-5-3zm314-3v-2l4-2c3-1 5-3 6-5l2-5 1-5 1-3h2l2-1 2-2h2l-1 9v10l4 2 8-2 4 2 13-1v2l-1 2h-14l-13 1-6-2-7 1-8 2-1-1zm51-2c-1-2 1-4 5-4l3-1v-7l2-9 1-2h1l1 1v16l2 3c2 1 3 3 2 3-1 2-4 1-6 0l-2-2-3 2-5 1-1-1zm21 0c0-2 3-4 7-5l3-1v-2l1-2 4 1 1 2v3l1-1 6-1 16-2 1-6v-5l1-2 3-1h2v9l5 9-1 1v1h-5l-4-1-8 3-16-1-1-2-1-1-2 1-12 4-1-1zm-34-4-2-1v-2l1-3c1 0 4 2 4 5l-1 2zm-11-4-1-7v-2l2-1h1l2 6 1 6c-1 2-3 1-5-2zm46 0-3-2h-3v-6l-1-5 1-3 1-3 2 1 1 12h5l1 4v3h-2l-2-1zm-303-6-4-2v-4h2l8 4c2 1 1 4-1 4l-5-2zm71-7v-2l-9-1-5 1-5 1-1-3-1-4-1-2 2-1 6 1 12 1 8 1 3 1 4 3 1 3v2h-14zm19-2 1-3 1-1 10 1v2l-2 1-5 1h-4zm-226-5-6-5-4-3-3 1-1-3 2-2 1-1 3 1 7 4 3 4h7l11-2h5l1 2 1 2-4 3-20 1zm125 0-4-4-7-3-6-2h-5l-8 3-11 4-9 3-13-2-3 1-10 1h-6l-2-1-1-3 1-2h7l11-1 3-1 5 1 8 1 7-2 5-2 5-2 4-2h19l6 3c5 4 8 8 8 11l-1 1-3-2zm411-2v-4h7v2l-1 3h-3l-3-1zm-379-2v-2h9v4h-10zm18 1h-4l-1-4h12l2 2-1 1-3 2-5-1zm276-4-2-4v-9l1-2 3-2h1v14l2 1c4 3 4 5 0 5h-2l-3-3zm10 1-2-4-2-2 1-4 1-6 1-1 1 1 2 4 1 5 1 3 3-1 3-2 2-1h3l1 2 1 2 23 1v-10l1-1 3 1 2 8v6h-26l-20 1v-2zm53 1v-1l1-2 6-2c3 0 10 0 11 2l-1 2-1 2h-15zm-103-7-2-5v-4l1-1 3 1 1 5v4l-1 1-2-1zm183-25-21-5-3-1-6-2h-12v-3l15-1 1 1 2 2 13 2 16 2 2 1c1 1-1 2-1 3l-1 2zm-279-7 4-14 2-4h1l2 1a117 117 0 0 1-8 19l-1-2zm9-3c0-2 1-3 2-2l-1 3-1-1zm100-12v-13l2-14 1-5h3v7l2-4c1-4 3-8 5-8l1 2 1 1-3 5c-2 3-4 8-4 12s-2 6-2 7l-1 4-1 5c-1 3-4 4-4 1zm-12-5v-6c1-2 3-2 4-1l-1 7-1 5h-2zm34-8-1-2-2 3-1 1-1-1c-1-3 2-13 4-15l2-2 2-8 1-8 2-2 2-2 3 3-1 3-5 25-1 8h-3zm3-12-1-1c-1-1-2 2-2 5v2l1-2 2-4zm-40 7 2-7 2-6-1-3c0-4 1-15 3-18l2-2h2v3l-2 6v3h1l1-3c0-2 5-10 6-10h2v2l-2 4-2 4-4 10c-2 3-4 8-4 11l-2 6h-4zm-81-20c0-2 6-11 7-11 2 0 1 4-2 8-2 4-5 5-5 3zm15-13v-2h5c0 1-4 3-5 2zm250-6c-1-1 1-3 4-3h3v4h-4l-3-1zm-19-6-5-2-2-3 2-1 4-2 3 2 3 2c2 0 4 3 4 4h-9zm-141-25v-2h4l10-1h5l1-3 20 1v1l-7 1-10 3-3 1h-20zm64 0-1-2 1-1 1-1 2 1 1 2c0 2-3 2-4 1zm11 0-1-2v-1l5 1 1 1v2h-2l-3-1zm-91-1v-1l2-1h9l1 1-3 1h-9zm0-5v-3l2 1 1 1-2 2zm15 0v-2l7-1 7-1v3l-7 1-6 1zm103-1 1-2c1-2 4 0 4 2v2h-2l-3-2zm-34-2-1-2v-1h5v2c-1 2-3 3-4 1zm-22-1c-1-3 5-4 13-2h4v3h-16zm43 0-2-1 1-1 2-2c3 0 6 2 6 4v1h-3l-4-1zm-104-3 1-2h3l1 1-1 3h-5zm44 1-3-2v-1h14v3h-11zm-30-1 4-2 2 2h-6zm73-1v-3h6v3l-3 1-3-1zm-63-1-3-2-4-2 4-1c3-1 5-2 12-1l2 2v1h-7v2c-1 2-3 3-4 1zm18-3-2-2h7l1 2h-6zm31-3v-3c1-1 4 1 4 3s-3 2-4 0zm-19-1-1-2v-1h6v3h-5zm42-4-1-2v-2h2c4 0 6 1 6 3v2h-3l-4-1zm-40-4v-2l19-2h3v1l-2 2-10 2h-9zm25 0c1-2 5-2 5 0l-3 1h-2zm-47-8 2-1 6-1h5v3h-13zm20 0 1-2 8-2h6l-1 3h-4l-7 1-2 1zm27-2v-1l6-1 5-1v3h-11zm-48-4 1-2 9-1h7v1l-2 2-8 1h-7zm48-2v-2h5v3h-5zm-24-2 2-2 9-1h7v3l-9 1h-9zm9-5c-3-1-3-4-1-4l7 4h-6zm23-1c-1-2 0-3 2-3v3h-2zm-10-5c-1-2 1-3 5-3h4v2l-1 2h-7zm-28-3c-2-1 0-2 5-2h6v3h-5l-6-1zm69-1-6-7-7-9-4-6v-2h2c2 0 7 4 7 6l1 1 5 6c4 5 6 10 4 11h-2zm-67-4-3-3-1-2h-7v-1l1-2h17l16-1v2c0 1-3 2-9 2l-11 2 6 1 5 1 1 2h-6l-9-1zm28-1-1-1c0-1 6-3 8-2h2v2l-1 2h-4l-4-1zm-9-11a2 2 0 0 1 3 0 2 2 0 0 1-3 0zm-10-2h-3v-4l3-1h5l2 1v5h-2l-5-1zm-23-5-2-1v-1c3-2 9-3 16-3h7v3h-4l-8 2-5 1-4-1zm56-4-5-7a233 233 0 0 0-15-20h-1l-4-7-3-9v-2h4l1 3c1 4 4 10 6 11l5 5 3 6 3 3 11 15 1 4-3 2zm-27 1h-3v-3h5l6 1 1 2v1h-3l-6-1zm-19-8c0-2 2-3 6-3 3 0 6 2 5 3l-6 1h-5zm14-3c-1-2 1-4 3-5h2l-1 7h-3zm11-1c-1-2 1-3 6-3l3 1 1 1v2h-4l-6-1zm-19-7 1-1 6-1 6-1-3-2-4-1v-1c0-2 3-3 4-2l4 1h4l1 2c2 2 2 5 1 6l-11 1h-9zm1-29 1-5 1-2h3l1 1c0 3-2 7-4 7l-2-1zm6-9-2-5V7l2-4 3-3 2 1-1 17-2 14 2 3 1 3v1l-2 2-3-4z"/>
</svg>
