<?xml version="1.0" encoding="utf-8"?>
<svg xmlns="http://www.w3.org/2000/svg" version="1.1" viewBox="0 0 403 442">
	<title>Sketch with a boat floating on a lake in the foreground, covered by canvas in the manner of a wagon. A small tower sits behind, with mountains further in the distance.</title>
	<path d="M174 441c-.4-1 .6-2.9 1.5-2.9.3 0 1 .5 1.7 1 1 .7 1 1 .4 1.9-1.2 1.3-3 1.3-3.6 0zm26-1.2c-1.2-.9-1.5-2.6-.6-3.2.4-.2 4-.2 8.2 0 7 .4 7.5.5 7.4 1.7-.2 1.2-.8 1.3-6 1.4-3.3 0-6.3.3-6.9.6-.5.2-1.5 0-2-.5zm19.5-1.4c-3-1.6-2.1-2.2 2.7-2.2 4.4 0 4.6 0 4.6 1.6 0 1.5-.3 1.6-2.8 1.6a12 12 0 0 1-4.5-1zm-49.1-1.9c0-.5.5-1 1.3-1 .7 0 1.3.5 1.3 1 0 .6-.6 1-1.3 1-.8 0-1.3-.4-1.3-1zm46-2.9c-4-.5-5.4-1-4.8-2 .4-.7 5-.7 7.4 0 1.4.4 2.8 2.8 1.5 2.6l-4.2-.6zm-37-3.6c0-.8.6-1 2.7-.8 4 .3 4.1 1.8.3 1.8-2.2 0-3-.2-3-1zm-10.8-1c-1.2-1.2-1-3.2.3-3.1 3 0 4.8 3.8 2 3.8-.9 0-2-.3-2.3-.7zm55.6-.5c-1.5-1 0-2 3.2-2 3 0 4.6.8 3.4 1.5-1.2.8-5.7 1.1-6.6.5zm64-1.4c-2-1.2-1-3.5 1.3-2.7.9.3 1 2.5.3 3-.3.1-1 0-1.6-.3zm6.6-.3c-1-1.2-.2-2.3 1.9-2.4.8 0 1.4-.6 1.4-1.3 0-.6.3-1.1.6-1.1 1 0 1.6 2 .7 2.6-.5.2-.7.8-.4 1.1.2.4-.2 1-.9 1.4-1.7 1-2.3.9-3.3-.3zm-55.7-.4c0-.4.6-.8 1.3-1 1-.3 1.2-.5.5-.9-1.2-.7-.4-1.3 2.6-1.7 3.5-.5 4.2.8 1.1 2.1-1.2.5-2.3 1.3-2.3 1.6 0 .4-.7.6-1.6.6-.9 0-1.6-.3-1.6-.7zm-30.8-.8c-.7-.5-1-1.1-.8-1.4.6-.7 4.5.5 4.8 1.5.4 1.1-2.5 1-4-.1zm-24.6-1c-.2-.3-.2-1 0-1.6.8-2 17-.8 17.3 1.2.2.9-16.8 1.3-17.3.4zm119-1.3c-2-.5-3.4-4.1-2.2-5.3.6-.6 1-.3 1.4.9.5 1.2 1 1.5 2.2 1.3 2-.4 3.6 1.3 2.4 2.7-.9 1-1.4 1.1-3.9.4zm-10.5-1.3c-.8-.6-.8-.8 0-1.3 1.1-.7 2.6-.2 2.6 1 0 1-1.2 1.2-2.6.3zm-37.9-.7c-.3-.4-.2-1 .2-1.4 1-1 3-.4 3 .8 0 1.1-2.6 1.6-3.2.6zm-18.8-.7c-.8-1.3.2-1.5 7-1.3 3.4 0 4.4.3 4.4 1 0 .8-1 1-5.5 1-3.2 0-5.7-.3-6-.7zm79.7-.7c-.7-.4-3.2-.8-5.6-.7-3 0-4.4-.3-4.7-.9-.5-1.3.6-1.6 5.7-1.5 2.5 0 5.6 0 6.7-.3 1.7-.4 2.2-.3 2.8 1 1.4 2.6-1.8 4.2-4.9 2.4zm-19.7-1.5c-1-1.2-.3-3.2 1-2.6l1.6.3c.3 0 .6.8.6 1.7 0 1.8-1.9 2.2-3.2.6zm-112-3.4c-1.3-.1-2.1-.6-2.1-1.2 0-1.5 6-1 6.3.6.3 1.1 0 1.2-4.2.6zm-16.6-.8c-5.3-.5-7.1-1.4-5.8-2.7.5-.5 1.6-.5 3.9 0 1.7.4 5.5.8 8.5 1 5.6.4 6.9.7 6.2 1.7-.4.7-5.3.7-12.8 0zm50 .2c-1.2-1.1-.2-1.5 3.7-1.4 2.3.1 4.3.5 4.4.9.2.7-7.4 1.2-8.2.5zm15.5-.6c.4-1.2 6.1-1 6.5.2.2.6-.7.8-3.3.8-3 0-3.5-.1-3.2-1zm-30-.2c-.6-1 1.1-1.4 5-1.2 2 .1 3.5.5 3.6 1 .4 1-8 1.2-8.6.2zm-117.1-2.2c-.7-1.7.7-3.7 2.6-3.7 4.1 0 6.6.8 6.6 2 0 1.5-.4 1.7-5.3 2.2-2.6.2-3.7.1-4-.5zm149.4-.6c.3-.9 7-2.1 8.6-1.5.5.2 1 .8 1 1.3 0 .8-1 1-5 1-3.6 0-4.8-.2-4.6-.8zm57 0a2.5 2.5 0 0 1-1.4-2.2c0-1.4.2-1.5 4.5-1.4 3.5 0 4.5.2 4.9 1 .5 1.3-1.3 2.8-3.3 2.8-.8 0-1.9 0-2.3.2-.5.2-1.6 0-2.4-.4zm-77.6-1a6 6 0 0 1-2-.8l-2.4-.9c-1-.2-1.7-.8-1.7-1.4 0-1.2 4.4-1.2 6.2 0 .8.6 3.3 1.2 5.7 1.4 3 .3 4.3.7 4.3 1.3 0 .7-1 1-4.4.8-2.4 0-5-.2-5.7-.4zm101.5 0c-2.7-1-2.1-2.7.8-2.7 2.7 0 4 .9 3.5 2.2-.4 1-2.4 1.3-4.3.5zm-122.9-1-5-1.2c-1.5-.3-2.4-1-2.4-1.6 0-.8.5-1 2.7-.6l9.6 1c6 .7 8.6 1.4 7.7 2.2a41 41 0 0 1-12.6.3zm93.3.2c-.6-1.1.9-2.3 1.8-1.5.7.8.2 2.2-.8 2.2-.3 0-.7-.3-1-.7zm-110.4-.5a8.3 8.3 0 0 1-4-1.1 9.4 9.4 0 0 0-4-1.4c-2.3-.3-3-.2-3.3.7-.6 1.5-1.5 1.3-2-.6-.2-1-.8-1.6-1.6-1.6-1.8 0-3.3-.7-3-1.4.6-.9 9.9-.6 12.3.4 1.2.5 2.4 1.3 2.8 2 .4.7 1.7 1 5.7 1.1 3 .1 5.2.4 5.2.8 0 .8-4.2 1.4-8.1 1zm86.6 0c-.2-.1-4.3-.4-9-.4-6.2 0-8.6-.3-8.8-.9-.2-.5.9-.8 3.9-.8a40.8 40.8 0 0 1 18.5 1c.2.2 0 .7-.5 1-1.1.7-3.5.8-4.1.2zM94 406.8c-2.4-.6-4-1.3-4-1.9 0-1.1 1.6-1.6 3.8-1.2 1.5.3 2 0 2.6-1 .6-1 1.4-1.4 3.5-1.4 1.8-.1 2.2-.2 1-.4-1-.1-2-.7-2.5-1.2-.4-.5-1.9-1-3.3-1-3 0-4.5-.5-4.5-1.6s1.2-1.5 3.8-1c1.1.1 2.4 0 2.9-.4.4-.4 1.8-.9 3-1.1 2.5-.6 3.2-2 1.7-3.6-1.4-1.6-.4-2.2 3-1.6a8 8 0 0 0 5-.7c1.2-.6 3.6-1.3 5.2-1.5 1.6-.1 3.4-.7 3.9-1.2 1.7-1.7 8 .4 7 2.3-.3.4-1.8.9-3.3 1.1-2.4.4-2.8.6-2.5 1.7.3 1.2 0 1.3-2.8 1.1-2.7-.2-3.2 0-3.9 1.2-.4.8-1.9 2.7-3.3 4.2-1.4 1.6-2.5 3.4-2.5 4 0 1.2-.5 1.4-3.2 1.6-3.2.2-3.2.2-1.5 1 1.7.7 1.8.8.8 2.2-1.2 1.7-3.7 1.8-9.9.4zm8.7-9c-1.4-1-3-1.3-3-.4 0 1 .8 1.4 2.5 1.3 1.7 0 1.7 0 .5-1zm14.3-8.5c-.2-.2-.7-.2-1.2 0s-.4.3.4.4c.7 0 1-.2.8-.4zm-.8 17.7c-2-1.1-.8-1.8 3.3-1.8 3.2 0 4.2.3 4.2 1 0 1-6 1.7-7.5.8zm117.2-.5c-.8-.3-1.4-1-1.4-1.6 0-.9.3-1 1.7-.7l4.6.8c1.7.3 2.7.7 2.7 1.3 0 1-5.2 1.2-7.6.2zm-109-2.5c-1-1.7 0-2.1 3.2-1.6 2 .3 2.6.7 2.6 1.6 0 1.8-4.9 1.8-5.8 0zm11.1-.5c-5.6-.4-3.8-1.5 2.5-1.5 4.4 0 5.8.2 5.6.8-.2.9-2.7 1-8 .7zm85.8-.2a30 30 0 0 0-4.7-.6c-2.1 0-2.8-.3-2.8-1.1 0-1 .8-1 8-.6 4.3.2 8 .5 8.1.7.1.1.1.7-.1 1.2-.4 1.1-5 1.3-8.5.4zm-32.4-2.6c-1-1-1.8-2-1.6-2.2.2-.2 3.4 0 7.1.3l10.5 1c2.4.3 3.7.7 3.7 1.2 0 1-5.8 1.6-13.3 1.6-4.3 0-4.7 0-6.4-1.9zm96 .9c-1-1-.4-3.5 1.2-4.3 1-.4 1.5-1 1.3-1.5-.4-1 .7-1.8 1.6-1.2.5.3.5.6 0 1.2-.9 1.1 1 2.8 3.5 3 3.4.5 2.5 1.6-1.9 2.4-4.8 1-5.1 1-5.7.4zM88 400.2c0-.5.4-.9.8-.7 1.2.4 1.4 1.8.3 1.8a1 1 0 0 1-1-1zm43.8-.3c-.3-.4-1.8-.6-3.5-.6-4 .2-4.7.1-4.3-.6.2-.4 1.4-.7 2.5-.8h2l-2-.4c-4-.8-2.6-1.7 3-2 7-.2 6.9-1.5-.3-1.8a45 45 0 0 1-6-.5c-1.2-.5-.3-1.6 1.2-1.6.7 0 1.2-.5 1.2-1 0-.6.4-1 .9-.8.4.1.7.7.6 1.3-.2 1 .5 1 5.8 1 3.3 0 5.5-.2 4.9-.3-.6-.2-1.1-1-1.1-1.6 0-1-.5-1.2-3.6-1.2-2 0-3.7-.3-3.9-.7-.4-.7.2-.8 3.5-.6 1.2 0 2.4-.2 2.6-.6a354 354 0 0 1 55.4 2.9c9.1.7 6.6 1.7-3.3 1.2-5-.2-9.2-.6-9.4-.7-.3-.2-5.5-.3-11.6-.3-8 0-11.3.2-12 .8-.7.5-3.3.9-7.3 1l-6.5.1c-.1 0 .9.9 2.3 1.8 2.1 1.5 3.2 1.7 8.3 1.8 3.2 0 6 .4 6.2.7.6 1.2-4.3 1.5-11 .7-5-.5-7.5-.6-9.4 0-2.8.8-3.9 2.2-1.7 2.2.8 0 1.4.3 1.4.7 0 .8-4.4.8-5 0zm7.5.2a33 33 0 0 1 11.6-1.1c.4.2.5.7.3 1-.5.8-12 .8-12 0zm93.8 0c-3.9-.1-5-.4-5-1.1 0-.5.7-1.1 1.6-1.4 2.2-.5 8.7.2 9.8 1.2 1.2 1 1 1.8-.3 1.7l-6.1-.4zm15.3-.4c-.3-.5-1.7-1-3.4-1.1-1.6-.2-3-.6-3.1-1a134 134 0 0 1 24.3 0c.8 1-1.5 1.6-6.3 2l-8 .8c-2.2.2-3.1 0-3.5-.7zm-137.2-.8c-.8-.7.2-1.5 1.9-1.5 1 0 1.5.3 1.4.8-.3.9-2.6 1.4-3.3.7zm68.1-.6a29 29 0 0 0-5.6-.6c-5.5-.4-8-1-8.8-2.2-.3-.4-3-.7-6.5-.7-7.1 0-12.1-.6-11.6-1.4.4-.7 25.5-.4 25.5.3 0 .2-.7.4-1.6.4-.9 0-1.6.3-1.6.7 0 .4 2.1.7 5 .7 5.6 0 10.6 1.1 11 2.4.2.5-.6.8-2.6.8-1.6 0-3-.2-3.2-.4zm124-.1c-2.7-.2-3.3-.4-3.2-1.3.2-.9 1-1.2 4-1.3 2.8-.2 4.2-.6 4.7-1.3.8-1 1-1 1.9.3.8 1.1 1.8 1.5 4.7 1.6 3 .2 3.8.4 4 1.3.1 1-.5 1.2-6.2 1-3.5 0-8-.2-9.8-.3zm19-.2c-.8-1.3.8-2 4.6-2 4 0 4.9.4 3.9 1.3-1 1-7.9 1.6-8.4.7zm-123.3-.8c-2-1-1.9-3 .1-3 .8 0 1.7.2 2 .4.3.3 2 .8 3.7 1.2 1.8.3 3.3.9 3.4 1.3.1.9-7.4 1-9.2.1zm11.3.3c-1.2-2 9.3-3.7 12-2 1.6 1 0 1.5-4.8 1.5-2.6 0-5.2.3-5.7.6-.7.3-1.3.2-1.5-.1zm143.3-2.5c-5.1-1.3-5-2 .2-2.3 3-.1 3.6 0 3.8 1 .4 1.9-.6 2.2-4 1.3zm-69.8-1.5c0-.4.4-.7 1-.7.5 0 1 .3 1 .7 0 .3-.5.6-1 .6-.6 0-1-.3-1-.6zm38.3 0c-2.2-1.4.4-2 7.8-1.8 6 .1 7.4.3 7.4 1.1s-1.3 1-7.1 1.2c-4 0-7.6-.1-8.1-.5zm-64.5-1.3c-1.5-.2-6.4-.3-11-.1-9.9.3-26.3-.4-26.3-1.2 0-.3 9.4-.5 20.9-.4 26.6.3 25.1.2 25.1 1.4 0 1-3.6 1.2-8.7.3zm-4.6-4.4-36.4-.5a1753 1753 0 0 1-84.2-2.5c-20.9-.8-26.3-1.2-25.8-1.7a5 5 0 0 1 2.2-.7c.9-.1 1.6-.7 1.6-1.2 0-1.3 5.2-2.2 9.1-1.7 3.4.5 3.3 1.7-.1 1.7-1.2 0-2.1.2-2 .5.3.4 2 .6 4 .6 4.4 0 4.5.1-4.7-7.2a49.2 49.2 0 0 1-14-16.6c-4-11.1-3.9-13 1.3-17.8 2-1.8 4-4.3 4.6-5.5 1.4-2.8 3.2-3.2 5.1-1a4.7 4.7 0 0 1 1.4 4l-.2 2.5 2.7-.1c2.1-.2 2.9 0 4.4 1.7 1 1.1 2.4 2 3 2 .5 0 1.8.5 3 1l5 2.7c1.6.8 3.2 1.9 3.5 2.3.9 1.5 3.6 2.3 5.4 1.6 1.5-.5 1.8-1 2-4 .6-5.1 2.3-8.4 4.6-8.7 1.2-.1 2.1-.8 2.8-2.2.6-1.2 1.5-2.6 2-3.2.6-.6.8-1.6.6-2.4-.3-.8 0-1.8 1-3 2.5-2.9 4-4.2 4.9-4.2.5 0 .8-.3.8-.6 0-1-1.1-.8-3.2.4-2 1.2-5.2 5.7-5.2 7.4 0 1.5-1.7 2.9-2.3 1.9-.3-.5-.9-.3-1.9.8-2 2-2.7 3.6-4.2 8.3-1.2 4-2.8 6.4-4.3 6.4-1.2 0-1.8-1.2-1-2.1.4-.5.8-2.8.9-5.2.2-4.7 1.3-5.9 1.8-2 .3 2.8.9 2.4 1.6-.9a21 21 0 0 1 2.6-5.4c1.7-2.6 2-3.5 1.5-4.4-.9-1.4 1-8.6 2.7-10.9.7-.9 1.3-2 1.3-2.6 0-2 2.2-7.2 3-7.2 1.1 0 1.1.6 0 5.7-.6 2.3-1 4.3-.7 4.5.7.7 2.2-4.3 2.6-8.8.3-2.6.7-4.7 1-4.7.3 0 .6-.4.6-1 0-.5.3-1 .6-1 .4 0 .8-1 1-2.1a7 7 0 0 1 1.7-3.4c1.6-1.4 1.6-2.2 0-1.7-.8.2-1.4 0-1.4-.4s-.2-.7-.6-.7-.6.4-.6 1c0 .5.2 1 .6 1 1 0 .7 1.4-1 3.4-1 1.3-1.9 1.8-2.8 1.5-1.1-.3-1.6.5-3.6 6-1.3 3.4-3 9.2-4 13a432.7 432.7 0 0 1-3.2 12.7c-.6 2-1.6 1.9-1.6-.3a94 94 0 0 1 4.4-20.4 44 44 0 0 0 2.4-6 48 48 0 0 1 11.3-19.3c2.2-1.9 3-2.3 3.5-1.7.6.6.6.9 0 1.1-.5.2-.9.7-.9 1.1 0 .5-.7 2-1.7 3.4-1.5 2.3-1.5 2.4-.2 1.2l1.5-1.3-.4 1.8c-.2 1.2 0 1.8.6 1.8 1.2 0 1.1.5-.4 3.4-.7 1.3-1.2 2.4-1 2.4.3 0 6.8-6.5 6.8-6.8 0-.2-.5-.3-1.2-.3s-1.7-.7-2.3-1.4c-.8-1.3-.8-1.6 0-3.3 1.2-2.2 2.4-2 2.8.2.3 1.9 1.1 2.5 3.5 2.5 1 0 1.8-.3 1.8-.9 0-1.5 2-3 3.1-2.6.6.3 1.8.4 2.8.4 1.4-.1 1.7.1 1.4 1.2-.3.9-1 1.3-2 1.3-1.7 0-1.7 0-.6 1 .7.5 2.9 1.2 5 1.6 2 .4 4 1.2 4.7 1.8 1 .9 1.5.8 5.3-1.2 2.2-1.1 4.4-1.9 4.8-1.6 1 .6.3 1.6-1.6 2.3-2 .8-2 2.2 0 1.6l4.8-2.1c2.6-1.3 3.6-1.5 4.3-.9.7.6 1.7.3 4.5-1.1 2.5-1.3 3.8-1.7 4.3-1.2.4.5.6.4.6-.3 0-.6-.5-1.2-1.2-1.4-.9-.2-1.3-.9-1.4-1.9 0-.8-.1-2-.3-2.8-.4-1.2 0-1.5 2-1.7 1.9-.3 2.8 0 3.4.7.5.6 1 .9 1.3.7.3-.2.5 1 .6 2.6.3 6.8 1.7 17.2 2.4 17.6 1.3 1 1.7.5 1.7-1.9 0-1.3-.6-3.3-1.3-4.4-.7-1-1.3-2.4-1.3-3 0-2.2 1.2-1.7 2.7 1.2a10 10 0 0 0 2 3c.4 0 1-.8 1.4-2 1.3-3.7 1.9-3.2 1.4 1.5a50 50 0 0 0 1.3 14.3c.1.8.8 1.5 1.5 1.7.7.2 1.3 1 1.5 1.9.1 1 .6 1.5 1.5 1.5 1 0 1.4.6 1.9 3.2l.6 3.3.7-4.6c.5-3.3 1-4.5 1.7-4.7 1.7-.3 2 1.5 2.4 12.7.2 8.9.1 10.6-.6 10.3-.5-.1-1-1-1.1-2-.2-1.8-1.2-2.3-1.8-.9-.1.5.2 2.3.7 4 .5 1.8 1 4.2 1 5.4 0 2.4 1 2.8 1.5.7.6-2.5 1.1-1 1.5 4.7.2 3 .6 5.7.9 6 .3.4.7 1.8 1 3 .3 2 .2 2.6-.7 3-1 .6-1 1-.4 2 .4.8.7 2 .8 2.9 0 1.4.1 1.2 1-1.3.1-.7.5-.7 1-.3.5.3 1.6.8 2.6 1 1.6.4 1.8.8 1.8 2.9 0 1.3 0 3 .3 3.7.6 2-1 3.8-3.1 3.3-1.5-.3-1.7-.7-1.7-2.9 0-1.4-.4-2.8-.8-3.2-.5-.3-7.3-1.2-15.1-2a465.5 465.5 0 0 1-33-3.6 156 156 0 0 0-11.4-1.6c-3.2-.3-6.3-.9-7-1.2-.6-.4-5.6-1.6-11.2-2.7l-16.2-3.4c-3.4-.8-7.6-1.4-9.4-1.5-1.8 0-4-.5-4.8-1-1-.7-3.3-1.6-5.2-2-2-.6-4.1-1.2-4.7-1.5-.7-.2-1.2-.3-1.2 0a55 55 0 0 0 18 6.2c1.3 0 5.1.7 8.6 1.5a374 374 0 0 0 46 8.8c1.3.4 3.3.7 4.5.7a107 107 0 0 0 16.3 2c22 1.5 23.5 1.7 24 2.6.8 1.2-2 1.8-5.1 1.1-1.4-.3-8.7-1-16.2-1.5a239 239 0 0 1-20.3-2.2c-9.8-1.8-18.3-3.2-24.3-4-2.9-.4-6.2-1-7.4-1.4-1.3-.3-4.7-1.2-7.8-1.8a521 521 0 0 1-33.6-8.4c-1 0 4.8 2.6 8.8 3.8 2.5.8 4.7 1.8 5 2.3 1 1 4.6 3 5.9 3 .5 0 2 .5 3.4 1.2 1.3.6 5 1.6 8.1 2 5.1.7 7 1.4 6.2 2.3-.2.1-2.1 0-4.4-.4a18 18 0 0 0-4.3-.4c-.2.1.9 1.5 2.3 3 2.5 2.6 2.9 2.7 8.6 3.6 5.7.9 7.8 1.6 6.5 2.4-.3.3-1.6.1-2.8-.2-3-.9-3.8-.7-1.9.3 1 .5 3.5 1 5.9 1.3 2.3.3 4.6.8 5.1 1.3.6.5 1.9 1 3 1.3 1 .2 2.3.8 2.9 1.3 2.8 2.5 25.7 3.9 69.3 4.3a82 82 0 0 1 13.1.7c.7.3 2 .3 3 0 1.6-.4 1.5-.5-1.2-.8-4.6-.5-3-1.6 2.8-1.8 3 0 5.6-.5 6-.8.8-.8 3.1-.8 4 0 1 1 44.5 1.2 45.7.2.5-.4 1.8-.9 3-1.1a32 32 0 0 0 4.9-1.7c2.8-1.2 10-7.8 12.8-11.6 1.8-2.5 5-11.4 4.3-12-.7-.8-6.1 2.4-6 3.5 0 .7-.7 1.1-2.2 1.3-1.8.1-2.1 0-1.8-.9.3-.8.2-.9-.9-.3-.7.4-1.3 1-1.3 1.5 0 1.6-3.9 6.9-5 6.9-2.1 0-3-1.6-2.2-4 1-2.7.6-3.1-2.6-2.3-2.4.6-2.6.7-1.5 1.5 2.1 1.6.8 2.1-9.4 4.1-5 1-10.4.8-10.8-.4-.3-.8-1-1-4-.6-2 .2-4.3.6-5.1.8-1.2.3-1.5.1-1.5-1 0-1.4 1-1.7 8.1-2.3a52 52 0 0 0 12.3-2.3l7.5-1.6 3.6-.8v-3l-.9-11c-.5-5.4-.5-8 0-8.6.5-.6.4-1.1-.3-2-.6-.5-1.2-2.5-1.5-4.3a56 56 0 0 0-1-5.6c-.7-2.9 0-7.6 1-7.6.6 0 1 1.4 1.4 3.9.2 2 .7 4 1 4.2.3.2.6 1 .6 1.8 0 .9.4 2.4 1 3.5a43.3 43.3 0 0 1 1.9 14.5c-.3.7-.1 2.2.3 3.4.5 1.5.5 3.3.1 5.5-.5 3.2-.5 3.3 1 3.3 1.2 0 1.6.4 2 2 .1 1 .6 1.9 1 1.9.3 0 .4-.5.1-1.2-.2-.6-.7-2.3-1-3.9a22.2 22.2 0 0 1-1.6-9.2c0-2.6-.3-6.8-.6-9.3-.5-4-.4-4.4.7-4.2 1 .2 1.3 1.3 2 6.7 1.5 12 2.2 15.3 3.4 15 .6-.2 3-.7 5.2-1 2.3-.5 5-1 6-1.4 2.5-1 4.2.2 5 3.4.6 2 .6 3.1.1 4.2-.4.9-.7 2.4-.7 3.3 0 1-.6 2.5-1.3 3.4a6 6 0 0 0-1.3 2.5c0 1.5-6.6 7.8-10 9.4-1.8 1-4 2.2-5 2.9-1.9 1.2-1.8 1.2 14.2 1.6 9.6.2 17.5 0 19.6-.3 2-.4 5-.8 6.7-1 3-.3 3-.3 3 1.3 0 3.1-6.1 5.7-8.3 3.5-1.1-1.1-76-1.2-85 0-5.3.6-36.7 1-37.3.3zm-90-4c-.3-.4-1-.7-1.5-.7s-.8.3-.5.7c.2.3.8.6 1.3.6.6 0 .8-.3.6-.6zm-31.5-2.3c0-1.1-.4-1.6-1.3-1.6-1.5 0-3.7-2.6-6.7-8-1.3-2.3-3.4-5.7-4.7-7.6a45.7 45.7 0 0 1-5.8-17c-.2-2-.7-3.6-1.1-3.6-.5 0-.6 1.2-.3 3.7a45 45 0 0 0 8.6 22.6 31 31 0 0 1 3 4.6c.8 2.4 5.2 7.3 6.2 7 .4-.2 1 0 1.2.6.5 1.4.9 1.1.9-.7zm25.8 1c-.6-.4-3.8-1-7.1-1.3-3.4-.3-7.1-.8-8.4-1-1.7-.4-2-.3-1.5.3.4.4 3.9 1 8 1.3a45.4 45.4 0 0 1 9 1.3c1 0 1 0 0-.6zm10.5-.6c-1.4-.8-6.5-1.3-6.5-.7 0 .5 2.3 1 5.8 1.2 1.2 0 1.4-.1.7-.5zm13.8-.2c-.2-.3-1.5-.5-2.9-.5s-2.4.2-2.3.5c.2.2 1.5.5 3 .5 1.3 0 2.4-.3 2.2-.5zm-7.3-.5c0-.4-1-.6-2.2-.6-2 0-2 .1-.4.6 2.3.7 2.6.7 2.6 0zm-18-2.4c-.5-.2-1.2-.2-1.7 0-.4.2 0 .4.9.4.8 0 1.2-.2.8-.4zm9.9-1.5a330 330 0 0 1-11-2.5c-1.5-.4-3.8-.7-5.3-.6h-2.5l2.9 1a42 42 0 0 0 6.5 1.2c2 .3 3.9.7 4.3 1a25 25 0 0 0 10.2 1.7c2.7 0 1.6-.3-5.1-1.8zm-14.6.7c-1.7-1-6.5-1.5-6.5-.8s2 1.1 5.5 1.3c1.4 0 1.7 0 1-.5zm-10-1.7c-4.3-1-6.6-1-3.3 0 1.4.5 3.4.9 4.5.9 1.5 0 1.2-.2-1.3-.9zm-1.2-2.5c-.1-.2-1.3-.5-2.5-.7l-2.2-.3 2.3.9c2 .8 3.2.8 2.4 0zm14.4-1c0-.9-5.2-2-9-1.8-2 0-4.5 0-5.6-.3-1.8-.4-1.8-.4-.3.2l2.6 1.2c.6.3 3 .6 5.5.6 2.4 0 4.6.2 4.7.4.6.5 2.1.4 2.1-.2zm-15-4.1c-.1-.2-1.7-.7-3.4-1.3-3.4-1.2-3.6-.6-.2.6 2 .8 4.2 1.2 3.6.7zm-7.7-.7c-.6-.6-6.7-3.6-6.9-3.5-.4.5 1 1.6 3 2.6s4.5 1.5 3.9.9zm20.1-1.6c-.5-.3-2.7-.9-4.8-1.4-2.2-.4-4.8-1-5.8-1.4a12 12 0 0 0-3.3-.5c-1 0-.9.2.6.7 6.9 2.3 16 4 13.3 2.6zm77.5-1.2c-.6-.7-1.2.3-.6 1.2.4.7.5.7.8 0 .1-.5 0-1-.2-1.2zm-16.3-1.1c-.7-.5-1.9-.8-2.7-.6-1.1.3-1.4 0-1.4-.8 0-1-.2-1-.7-.3-1 1.5.5 2.6 3.5 2.6 2.4 0 2.5 0 1.3-1zm-8-.4c0-1-2-3.9-2.7-3.9-.8 0-.7 1.8.1 3.3.7 1.3 2.6 1.7 2.6.6zm123.8 0c0-.4-.7-.5-1.8-.2-2.5.6-2.6.9-.3.9 1.2 0 2-.3 2-.7zm-128.6-3.4a14 14 0 0 1 .4-4.4 9 9 0 0 0 0-4.2c-.7-2.5-.7-2.5-.8-.4 0 1.1-.3 2-.7 2-.3 0-.6 1.4-.6 3 0 4-1.5 3.5-2-.7l-.4-3.2-.1 4c-.1 4.9.6 6.7 2.8 6.7 1.5 0 1.6-.2 1.4-2.8zm-6.2.8c-.1-.5-.4-3.6-.5-6.8-.1-3.2-.4-6.6-.6-7.7-.3-1.1-.2-1.7.2-1.4.4.2 1.3-.4 2.1-1.3 1.4-1.6 1.5-2.4 1.6-9.7 0-4.4-.1-8-.4-8-.6 0-1.2 1.8-1.2 3.8 0 .9-.4 2.5-.9 3.5-1.6 3-3.7 11.6-4 16-.2 3.9-1.5 6.7-2.6 5.6-.2-.2-.1-3.1.2-6.4.4-3.3.5-6.4.2-7-.8-1.4-1.4 2.5-1.6 9.8 0 3.8-.3 7.2-.6 7.6-.7 1 .1 2 1.6 2 1 0 1.2-.3.9-1.5-.5-2 .2-4.3 1.4-4.3.7 0 .9.8.9 3.1 0 1.8.2 3.4.5 3.6.8.8 3 .1 2.8-.9zm0-21.9c0-.7.2-1.5.6-1.7.3-.2.6.2.6.9s-.3 1.5-.6 1.7c-.4.2-.7-.2-.7-.9zm-12 19c-.3-1.2-.2-2.7.3-3.5.8-1.6.3-6.1-.6-5.6-.3.2-.7 1.3-1 2.5-.8 5.4-2.9 8.5-3.9 5.9-.5-1.5.3-10.4 1.3-13.5.4-1.4 1-4.2 1.3-6.2.2-2 .8-4.6 1.3-6 .5-1.4.8-2.7.6-2.9-.1-.2-.4 0-.6.6l-1 3.2a70.6 70.6 0 0 0-3 12.3c-.2 2-.8 3.7-1.1 4-.4.2-.6 2.1-.5 4.3 0 2.5-.1 4-.6 4-.3 0-.7.2-.7.5 0 .7 3 1.7 5.9 2.2l2.1.4c.3 0 .3-1 .1-2.1zm44.7-.8c-.7-.7-1.5.6-1.2 1.9l.4 1.4.6-1.5c.3-.8.4-1.6.2-1.8zm-102.4.8c-1.3-1-2-.8-1.4.3.3.4 1 .7 1.6.7 1 0 .9-.2-.2-1zm45.7-.9c0-.3-.5-.7-1-1-1-.3-1.3.4-.6 1.2.7.6 1.6.5 1.6-.2zm-4-.6-.3-1.7c-.3-.8-.6-.9-1-.3-.6 1-1.9.2-1.9-1.4 0-1.5-.4-1.6-1.7-.3-1.3 1.4-.8 3.1 1 3.7 2.5.6 4 .6 4 0zm44-1.1c.3-1 .2-1.1-.7-.4-1.3 1-1.4 2.3-.3 1.9.5-.2 1-.8 1-1.5zm-52.8-1.1c.3-.8.4-2.4.4-3.5 0-1.2.7-3.3 1.4-4.7a8.3 8.3 0 0 0 1.1-3.7c-.3-1.8-3 3.2-3.7 6.7-.6 3.2-2 5.1-3.3 4.4-1.2-.7-.4-4 2.2-9.4 1.3-2.5 2-4.5 1.5-4.4-.4.1-2 3-3.7 6.2-2 4-3.3 6-4 6-.7 0-1.2-.5-1.2-1s-.6-1-1.3-1c-1.3 0-1.6 1-.8 2.4.4.6 8 3 10.6 3.4.3 0 .6-.6.8-1.4zm63.3.8a.6.6 0 0 0-1.3 0 .6.6 0 0 0 1.3 0zm18.8-5c-.6-1-.6-.7-.3 1l.4 3.6c0 .8.3.3.4-1 .1-1.4 0-3-.5-3.6zm-70.8 2c-.2-.7-.3-.2-.3 1 0 1.3.1 1.8.3 1.2v-2.3zm49.4.4c0-.3-.1-.6-.3-.6l-.6.6c-.3.4-.1.7.2.7.4 0 .7-.3.7-.7zm-3.5-3.5c.3-1.3.2-1.8-.2-1.3-.4.3-.8 1.5-1.1 2.6-.3 1.2-.2 1.7.2 1.2.4-.3.9-1.5 1.1-2.5zm-53.5 1.2c0-.5-.3-.8-.7-.6-.3.2-.5.7-.3 1 .6 1 1 .8 1-.4zm35.4-1c-.2-.6-.3-.4-.4.4 0 .6.2 1 .4.8.2-.2.2-.8 0-1.2zm-30.5-11.9c1.2-3.3 1-6.2-.3-3.6a55 55 0 0 0-2.8 14.3c.2.5.7-1 1.2-3.5a51 51 0 0 1 1.9-7.2zm1.3 8.9c-.6-.6-1.7 1.3-1.2 2 .2.3.6.1 1-.5.3-.6.4-1.3.2-1.5zm-19.2-3c0-1-.3-.7-1 .8a11 11 0 0 0-.9 3c0 1.2 1.9-2.5 1.9-3.9zm37.1 0c.5-4-.5-3-1 1.2-.3 1.9-.2 3 .1 2.6.4-.4.8-2 1-3.8zm15.2 1.4c-.2-.5-.3 0-.3.8 0 .9.1 1.3.3.8.2-.4.2-1.2 0-1.6zm3.5 0c0-.3-.3-.4-.7-.2-.3.2-.6 1-.6 1.5 0 1 0 1 .6.1a4 4 0 0 0 .7-1.4zm14.9.4c0-.5-.3-.8-.7-.6-.3.2-.6.9-.6 1.4 0 .5.3.8.6.6.4-.3.7-.9.7-1.4zm-45.2-4.1.4-3-1.6 3.6c-1.3 2.7-1.5 3.6-.8 4 1 .6 1.5-.5 2-4.6zm42 2.6c0-.4-.2-.7-.4-.7-.1 0-.4.3-.6.7-.3.3-.1.6.2.6.4 0 .7-.3.7-.6zm-46.7-.9.4-2.4c.3-1.1.2-1.4-.3-1-1 1-1.7 4.3-.9 4.3.4 0 .8-.4.8-.9zm41.9-3.4c1.2-4.8 2.3-6.8 5.2-10 1.3-1.5 2.2-2.7 2-3-.5-.4-8.3 7.6-8.4 8.7-.2 3-.3 8.5 0 8.3l1.2-4zm-26.6-.2a227 227 0 0 1 2.4-8.7c1.7-5.6 1.8-8.6.2-8-.4.1-.7 1.2-.6 2.3.2 1.7 0 2.2-1 2.5-1.4.3-2 1.5-.8 1.5 1 0 .8 2.4-.3 5.5-1.1 3.3-2 9.2-1.2 8.5.3-.3.9-1.9 1.3-3.6zm34.6-3c0-.8-.3-.9-1.3-.3-.9.5-1.3 1.3-1.3 2.7v2l1.3-1.7a6 6 0 0 0 1.3-2.6zm-106.3 1.6c0-.7-.3-1.3-.7-1.3-.3 0-.6.8-.6 1.7 0 1 .2 1.5.6 1.2.4-.2.7-1 .7-1.6zm77.7-5.7A55 55 0 0 1 193 322c0-1-.2-.8-1 .5a47.7 47.7 0 0 0-4.4 16.9c.8 1.2 1.5-.7 2.8-7.2zm23.8 5.6c-.2-.5-.3-.4-.4.4 0 .7.2 1 .4.9.2-.3.2-.8 0-1.3zm-54.5-6.2c-.5-.5-4.3 3.6-4.3 4.7 0 .3 1.1-.4 2.4-1.8 1.4-1.3 2.2-2.6 2-2.9zm16.7 1.4c.3-.5.2-.8-.2-.6-.4.3-.7.7-.7 1 0 1 .5.8 1-.4zm-4.2-6.5c2.7-3.6 3.2-4.7 2.2-4.7s-6 6.7-6 8c0 1.1 1.4 0 3.8-3.3zm39-1.1c.4-.8 1.6-2.2 2.5-3.2.9-1 1.4-1.7 1-1.7-1 0-1.7.7-4.1 3.8a25.7 25.7 0 0 1-3.4 3.8c-.7.5-1.2 1.1-1.2 1.5 0 .8 3.9-2.4 5.1-4.2zm-6.7-2.3a.8.8 0 0 0-1 .5c0 .4-1 1.6-1.8 2.6s-1.5 2.2-1.5 2.7c0 .4 1.1-.6 2.5-2.4 1.5-1.8 2.2-3.2 1.8-3.4zm-38.4.2c1.7-2.6 3-5 2.8-5.2-.6-.5-7.6 8.8-7.6 10.1 0 1.5 1.8-.4 4.8-4.9zm28.2 2.3c0-.6-.2-.5-.6.4-.8 1.7-.8 2.8 0 1.6a4 4 0 0 0 .6-2zm28.2.7c.3-.4.1-.7-.2-.7-.4 0-.8.3-1 .7-.3.3-.2.6.2.6.3 0 .8-.3 1-.6zm-44.1-1c.2-.6.1-.9-.3-.6-.3.2-.6.6-.6 1 0 .9.5.7.9-.4zm55.2-2.2c-.3-1.1-1-2.3-1.7-2.6a4.8 4.8 0 0 1-1.6-2.7l-.4-2-1 2c-.8 1.7-.8 2.1 0 3.9 1 1.6 4.2 4 4.9 3.5l-.2-2.1zm-51 .6c.1-.5-.1-.7-.6-.5a2 2 0 0 0-1.1 1.1c-.2.5 0 .7.5.6a2 2 0 0 0 1.2-1.2zm-24.7-2.7c1.2-1.2 1-2-.5-1.2-.7.4-1.3 1-1.3 1.3 0 .9.9.8 1.8-.1zm48.1-.5c0-.4-.1-.7-.3-.7l-.7.7c-.2.3 0 .6.3.6.4 0 .7-.3.7-.6zm-16.6-4c.3-1.2 0-1.1-1.6.4-1 1-1.9 2.3-1.9 2.8 0 1.4 3-1.5 3.5-3.3zm-6 2.2c1.5-1.6 2.7-4.1 2.3-4.5-.2-.2-.7.4-1 1.3-.4 1-1.1 2-1.6 2.1-1 .4-2 2.2-1.2 2.2.3 0 1-.5 1.6-1.1zm14.5-5c.6-1.8 1.4-3.7 1.8-4.2.3-.6-.1-.2-1 .8-1 1-1.8 2.5-1.8 3.2a6 6 0 0 1-1 3c-1.1 2.1-1.1 3.4 0 1.8a21 21 0 0 0 2-4.5zm-23.7 3.2c0-.5 0-1-.2-1l-.6 1c-.2.5-.1 1 .2 1 .4 0 .6-.5.6-1zm19.5 0c0-.5-.1-1-.3-1l-.6 1c-.2.5 0 1 .3 1s.6-.5.6-1zm21.7.3c.2-.3.1-.6-.2-.6-.4 0-.9.3-1 .6-.3.4-.2.7.2.7.3 0 .8-.3 1-.7zM166 310c.5-1 .5-1.5 0-2-.8-.8-4 2.5-4 4.2a9 9 0 0 1-.4 2.2c-.5 1.4 3.3-2.4 4.4-4.4zm60.7 1.4-1-6c-.3-2.9-1.4-3.2-1.4-.5 0 1.7 2.5 10.7 2.9 10.2 0 0-.1-1.7-.5-3.7zm-56.4 1.2c2-2 2.8-3.8 1.6-3.8-.6 0-5.3 4.7-5.3 5.3 0 1.1 1.6.4 3.7-1.5zm8.4-1.6c.9-2 1.5-3.7 1.3-3.9-.6-.6-4.4 4.4-4.4 6 0 2.6 1.3 1.7 3-2zm35.8 1c0-.3 0-.6-.2-.6s-.5.3-.7.6c-.3.4-.1.7.3.7.3 0 .6-.3.6-.7zm-5.1-.6c0-.4-.3-.7-.7-.7-.3 0-.7.3-1 .7-.2.4 0 .6.6.6s1-.2 1-.6zm-24.5-4.2c2.7-2.5 2.2-3.7-.6-1.5-2 1.5-2.8 2.5-2.8 3.3 0 1 1 .4 3.4-1.8zm37.1 1c-.2-.4-.8-.7-1.2-.7-.4 0-.4.3.2.7 1.3.8 1.5.8 1 0zm-26.6-4.6c.5 0 1-.3 1.3-.6.6-1-1.9-.8-3.3.3-1 .8-1 1-.3 1.6.8.5 1 .4 1.2-.3.1-.5.6-1 1.1-1zm-5.8-.6c.2-.4 0-.7-.3-.7-.4 0-.7.3-.7.7 0 .3.1.6.3.6.2 0 .5-.3.7-.6zm-4.2-1c.7-.8.4-1-1.9-1-2.5 0-3.2.5-2.2 1.6.7.7 3.2.4 4-.6zm-15.6-.3a.6.6 0 0 0-1.3 0 .6.6 0 0 0 1.3 0zm-2-3.6c0-.5 0-1-.2-1l-.6 1c-.2.6-.1 1 .2 1 .4 0 .7-.4.7-1zm47.8-3c-.2-.5-.3-.4-.4.4 0 .7.2 1 .4.8.2-.2.2-.7 0-1.2zm80.5 86.7c.6-.6 1-.6 1.5 0 .6.6.5.8-.7.8s-1.4-.2-.8-.8zm-257.4-1c-1-.1-1.8-.5-1.8-.8 0-.7 2.3-2 2.8-1.6.1.2 4 .4 8.7.6 4.7.1 8.8.4 9.2.6 1.4.9 0 1.8-2.1 1.4a79.2 79.2 0 0 0-16.8-.2zM364 380c-7.1-.2-6.3-1.5 1-1.7 4.1-.1 5.7 0 5.7.7 0 1.1-1 1.2-6.7 1zm-299-.7c-.8-1.4 5.4-2.6 13.3-2.7 6.1 0 7.5-.2 5.5-.6a103 103 0 0 0-13.7-.2c-7 .2-11.2 0-11.2-.3 0-.4.4-.8 1-1 1.5-.6 48.9-.4 49.2.3.4.5-.4.8-4.2 1.5-.9.2 1 .2 4.4 0 3.3 0 6.1 0 6.3.3.4.7-5.2 2-8.8 2H87.6c-10.3 0-16.9.2-17.7.6-1.5.8-4.3 1-4.8.1zm34.7-3.3c-2.3-.7-6.5-.7-6.5 0 0 .4 1.8.6 4 .6 3.1 0 3.7-.2 2.5-.6zm-73.3.5c-3-1.8-2-2.7 3.5-3 3.7 0 5 .1 5.8.9.8.7 2.6 1 7.4 1 5.6 0 9 .6 8 1.5-.2.1-5.4.4-11.6.5-10 .2-11.4.1-13.1-.9zm260.5-1.2c-.9-.5-1-1-.5-2.3a4 4 0 0 0 0-3.4c-.3-1-.7-3.1-.8-5-.2-2.8 0-3.1 1.1-3.1s1.4.6 2 4.7c.5 3.7.9 4.9 2 5.4 2 1.1 3 2.6 2 3.6-.7 1-4.2 1-5.8.1zm85.9 0c.4-1.3 3-1.5 3-.3 0 .7-.5 1-1.6 1-1 0-1.6-.3-1.4-.8zm25.4-.7c-1.6-1.4-1.7-1.8-1-3 .9-1.6 3.7-3 5-2.4.7.2.9 1.2.8 3.4-.2 2.6-.5 3.1-1.6 3.3-.8.1-2.2-.5-3.2-1.3zm-137.9-1c-4.2-.2-5.1-.4-5.7-1.5-.4-.7-1.1-1.3-1.7-1.3-.5 0-.8-.3-.7-.8.3-.8 3-1.2 16.4-2.3 7.3-.6 9-.5 8.5.8-.1.4-3 1-6.6 1.4l-6.5.7 6.3.1c3.6.1 6.5-.1 6.7-.5.5-.8 1.6-.8 3 0 1.7 1.1-.5 2.1-6.7 3-3.3.4-6.5.8-7 .7l-6-.3zm123.5-.7c-5.5-.2-6-.3-6-1.4 0-1.2.5-1.3 5.5-1.4l6.3-.2c1 0 1.5 2.2.7 2.8-.3.2-3.2.3-6.5.2zm-26-1.2c-.4-.2-.7-.7-.7-1.2 0-.8 1-1 5.1-1 4.9 0 6.8.7 5.1 1.7-.9.6-8.2 1-9.4.5zm-320.2-1c-.8-.2-2.4-.5-3.5-.5H31c-.5 0-3.1.1-5.7.4-5 .5-6-.1-2.8-1.6 2-.8 18.5-.7 24.7.2 2.7.4 2.8.4 1.6-.5-1.3-1-10.7-1.7-26.2-2.1-7.3-.2-9.5-.8-8-2.3.6-.6 1.2-.6 2.5 0a6 6 0 0 0 3.2.3c1-.2 8.6 0 17 .4 14.7.8 15.7.7 22.4-.5a45 45 0 0 1 18.3-.3c8.5.8 11.3 1.3 11.3 2 0 .9-6.6.7-18.4-.5a18 18 0 0 0-6.3 0c-.6.3-2.6.6-4.4.6-2.5 0-3.3.2-3.3 1 0 .6-.6 1-1.8 1-1 0-2.3.3-3 .6-.9.4.5.5 3.8.3a457 457 0 0 1 52.5-.3c.3.3.5.7.3.7l-10.9.1c-8 .1-10.7.4-10.9 1-.2.7-5.2.8-24 .7-13.1 0-24.5-.3-25.3-.6zm253-.8a13 13 0 0 1 0-4c.6-5.7.3-28.1-.5-29.8-.9-2 .6-3.3 2-1.9 1.1 1 2.2 28.7 1.3 33l-.5 3.2c0 .8-2 .5-2.4-.5zM278 368c.3-1 3.7-1.1 4-.2 0 .4-.9.8-2 .9-1.7.1-2.2 0-2-.7zm-178-1.7c-.4-.6 4-1.7 4.6-1.1.2.1.1.6-.1 1-.5.8-4 .9-4.5 0zm147-3.2c-1.2-1-1.5-2.2-2.2-8.5-.4-4.1-.9-12.6-1-18.8a96.2 96.2 0 0 0-1.6-18.3c0-1-.3-1.8-.7-1.8-.3 0-1.1-1-1.7-2.4-.5-1.3-1.3-2.8-1.7-3.3-.4-.5-1.2-2.3-1.8-3.9-1-2.5-1.1-2.7-1.2-1.2 0 3.7-2.6 1.4-2.6-2.4 0-.8-.9-3-2-5.2-2-4-2.4-6.2-1.2-6.2a25.8 25.8 0 0 1 13.5 14c.3 1 1.3 3.4 2.1 5.1 2 4 2.4 5.4 3.5 14.5 1.5 12 1 31.3-.6 26.6-.2-.5-.5-2-.6-3.2-.2-1.3-.2.1-.1 3.1.1 3.6.5 5.7 1.1 6.5a9 9 0 0 1 1.5 3.8c.5 3.1-.3 3.6-2.7 1.6zm0-32.2a56.2 56.2 0 0 0-8.4-28.6c-.4.4 2 7.9 3.3 10.2a13 13 0 0 1 1.4 3.9c0 .9.6 2.8 1.1 4.2 1 3 1 2.2 1.3 12.6.4 10 .4 10 1.1 6.5.4-1.6.5-5.6.2-8.8zm-13-33.5c-.4-1.1-1.5-1.5-1.5-.6 0 .7 1.4 2.2 1.7 1.9.2-.2 0-.7-.1-1.3zm28.7 62c-.5-1.3.3-3.5 1.3-3.5.6 0 .9.7.9 2.2 0 2.3-1.4 3.2-2.2 1.4zm10-2.4c-.3-2.5.2-6.1.8-6.8.3-.5.8-2.5 1-4.5.3-2 .8-3.8 1.3-4 1.3-.4 1.1 10.8-.2 11.3-.5.2-1 1-1 1.6 0 2.4-1.8 4.6-2 2.4zm49-1c-.8-.7-.4-3.2.6-3.6.6-.3 1 .1 1.3 1.2.6 2.2-.6 3.7-1.9 2.5zm-37.6-3.2-.4-4.2c0-.9-.4-1.8-.9-2-.6-.2-1-2.1-1.3-5.7-.2-3-.8-5.8-1.3-6.4-.5-.5-1-2.3-1.3-3.9-.2-1.6-.5-3.6-.8-4.4-.3-1-.1-1.4.7-1.4.5 0 1 .3 1 .7 0 .3.8 1.4 1.7 2.2 1.4 1.3 1.8 2.4 2.2 6.6l.5 5v-5.7c.1-4.2.4-5.6 1-5.4 1.2.4 3 12.4 1.8 13-1 .7-.9 1.7.3 1.7 1.5 0 1.4 10.2-.2 11.4-1.8 1.4-2.6 1-3-1.5zm30.1-.1c-.8-1.4-.6-14.2.2-15.5 1.2-1.9 1.7.5 1.7 8 0 7.8-.5 10-1.9 7.5zm-10.3-2.1c.3-2.1 1.8-2.3 1.8-.3 0 1-.3 1.7-1 1.7-.6 0-1-.5-.8-1.4zm6.8-1.6c-.2-.3-.4-1.6-.4-3 0-2 .2-2.5 1.1-2.3.9.1 1.2.8 1.2 2.7 0 2.4-.9 3.6-1.9 2.6zm-39.9-7.2c-1.2-4.9-1.4-8.5-.4-8.8 1-.4 1.4.7 2 6.8.5 4.9-.5 6.2-1.6 2zm-8.5.8c0-1.5.8-3 1.4-2.6 1 .7.6 3.6-.4 3.6a1 1 0 0 1-1-1zm59.3-1.7c-.6-.9.2-3.8 1-3.8.3 0 .8.7 1 1.6.4 1.6 0 3-1 3-.3 0-.8-.4-1-.8zm-14.2-7.9c-.8-2.8-.7-7.1 0-7.4 1-.3 2.2 3.7 2.2 6.8 0 2.5-1.7 3-2.2.6zm13.3-2c-.5-1.3-1-2.3-1.4-2.3-.4 0-.6-1.1-.5-2.5.3-3.6 1.8-3 3.2 1.2.6 2 1.2 4 1.2 4.7 0 2-1.8 1.2-2.5-1.2zm14.4.1a20 20 0 0 1-1-5.9c-.5-5-.4-5 1-4.8 1.3.2 1.5.6 1.8 5 .3 3.4.2 5.1-.3 5.7-.7.7-1 .7-1.5 0zm-45.8-4.1c-.8-1-.4-2.2.8-2.2.8 0 1.2.4 1.1 1-.2 1.3-1.2 1.9-1.9 1.2zm-8-6.4c-.4-1.2 0-3 .8-3.1.3-.1.7.8.8 2 .2 2-.9 2.9-1.5 1.1zm-3.2-.7c-.6-1.5 1-2.8 1.7-1.6.4.6.7 1.4.7 1.8 0 1.2-2 1-2.4-.2zm-4.4-1c-1.2-1.8-1.4-4-.2-3.7 1.4.5 2.8 3.6 2 4.4-.5.6-1 .4-1.8-.7zm57.6-2.7c-.7-1.1-1.9-3.7-2.6-5.6-.8-1.9-2.1-4.2-3-5.1a46.8 46.8 0 0 0-9.4-9.2c-.5 0-.8 1.2-1 3-.2 3.9-2 4.4-2.4.9-.3-1.7-.5-2-.8-1.1-.5 1.3-2.5 1.5-2.5.3 0-.5-.6-1.1-1.4-1.5-2-.8-4.1-4.7-3.3-5.6.8-.7 4.2.1 7.4 1.8 2.4 1.2 2.8 1.1 1.4-.3a7.6 7.6 0 0 0-3.5-1.7c-2.4-.4-5.1-2.4-5.1-3.6 0-1 2-1.5 3.2-.7.5.4 2 1.2 3.2 1.8 1.2.6 3.1 2 4.3 3.1 1.2 1.1 2.5 2 2.9 1.8a37 37 0 0 1 9 8.9 121 121 0 0 1 6.4 11.2c2 3.7-.6 5.1-2.8 1.6zm-44.9.4c.3-1.6 1.8-1.9 1.8-.3 0 .8-.4 1.4-1 1.4s-1-.5-.8-1.1zM63.2 316c-1-1-.4-2.3 1-2.1.8.1 1.5.6 1.5 1.2 0 1-1.7 1.6-2.5.9zm212.8-1.3c0-.5-.4-1.7-1-2.5-1-1.5-.8-3 .3-3 1 0 2.9 4.4 2.5 5.5-.5 1.3-1.8 1.4-1.8 0zm48.5-.3c-1.5-.9-1.5-3.8-.1-4.3 1.2-.5 3.4 2 3.5 3.8 0 1.3-1.6 1.5-3.4.5zm-267.9-2.2c-1-.4-3-1.8-4.4-3.1a12.3 12.3 0 0 0-3-2.4c-.3 0-.7-.6-.9-1.3-.2-.8-.9-1.3-1.7-1.3-.7 0-2-1-3-2.5-1-1.3-2.4-2.8-3-3.2-.7-.5-1.2-1.3-1.2-1.8 0-1.2-1.2-1.2-1.7 0-.5 1.3-1.8 1.3-3.8 0-1.5-1-1.6-2.6 0-3.7.4-.3 0-.5-.7-.5a4 4 0 0 0-2.5 1.3c-1.5 1.7-2.6 1.7-5 0-1.7-1.3-2.5-3.2-1.3-3.2.4 0 1.2-1 2-2.2 2.9-5 4.8-6 7.7-4 .8.6 1.4.8 1.4.4 0-2 3 .2 3.6 2.8.6 2 .8 2 2.3.2 1-1.1 1.4-1.3 2.3-.7 1.7 1 1.9 2.2.3 2.6-1 .3-1.4.8-1 1.8l.3 2.8c0 1 .6 1.7 1.8 2.2 1 .3 3 1.8 4.5 3.3 2.3 2.2 2.7 3 2.3 4.5-.3 1.7-.2 1.8 2 1.8 1.7 0 2.5.4 3.4 1.8a10 10 0 0 0 2.3 2.6c.7.5 1.2 1.3 1.2 1.8 0 1-1.4 1.1-4.2 0zm221.5-2c0-.5.5-1 .8-1 1 0 .8 1.5-.2 1.9-.5.1-.8-.2-.6-.8zm42.4-.7c-.8-.8-.4-4.8.4-4.8 1 0 2.6 3.8 2 4.6-.3.7-1.8.8-2.4.2zm-3.6-5.4c0-3.8.7-5.4 1.7-3.6.9 1.5.2 7.5-.8 7.5-.7 0-1-1-1-3.9zm-38.8.4c-1.5-1.5-2-3.7-.7-3.7 1 0 3.9 3.4 3.6 4.2-.4 1.2-1.5 1-3-.5zm-9.7-.5c-1.2-1.2-1-4.4.3-4.9 1.4-.5 2.9 1.6 2.7 3.7-.3 1.8-1.8 2.4-3 1.2zm-6.4-7.7c-.7-.3-1.5-1-1.7-1.6-.3-.5-.9-1-1.4-1-1.3 0-2.3-2-2.3-4.3s-.6-3.2-2.3-3.5c-.8-.2-1.3-.8-1.3-1.6 0-1 .5-1.3 2.3-1.5 3.2-.3 7 1 7.4 2.5.7 2-.1 2.7-2 1.8-1.8-.8-3 0-1.4.9.7.3 1.2 1.2 1.2 1.8 0 .7.7 1.6 1.7 2.1 1.4.6 1.9 1.4 2 3 .2 2.2 0 2.3-2.2 1.4zm8.8-.6c-1.5-1.5-1.6-2.4-.4-2.8 1.2-.5 3 1 3 2.7 0 1.7-.9 1.7-2.6 0zm-4.7 0c-1.5-1-1.4-2.6.2-2.6 1 0 1.3.4 1.3 1.6 0 1.8 0 1.8-1.5 1zm-78-4.4c-1-.2-1.5-.7-1.5-1.3 0-1.1-3.8-2.8-6.4-2.8-1.5 0-3.4-2-3.4-3.4 0-2 1.8-1.8 5.6.7 3.5 2.3 4 2.4 8.2 2.3 5-.2 5.8.7 1.6 1.6-2 .5-2.2.7-1 .7 1 0 4.6-.7 8-1.6 9.7-2.5 9.4-2.5 9.4-1.3 0 1.3-5 2.8-16.2 4.8a18 18 0 0 1-4.4.3zm86.5-.2c-4.9-.6-5.7-.9-5.7-2.4 0-.8.5-.9 3-.5l9.6.8c6 .4 7.9 1 7 2.3-.3.6-8 .5-14-.2zm21.6.1c-2.7-.5-3.3-1.7-1.2-2.2 2.5-.7 7.3-.5 8.1.3 2.3 2.3-.6 3-7 2zm-126.7-1.8a8 8 0 0 1-.4-3c0-1.7-.4-2.8-1.2-3.4-1-.7-.8-1 2.1-2.2 3.8-1.7 9.7-3.3 11.9-3.3 2 0 1.5 1.6-.6 1.8l-4 .9c-1.9.5-2.4 1-2.4 2.1 0 .8-.7 2.1-1.6 2.9-1 .8-1.6 2-1.6 3 0 1.5-1.2 2.2-2.2 1.2zm55.7-1.9a3 3 0 0 1-1-2c0-.4-.3-.8-.6-.8-.4 0-1.5-.8-2.6-1.7-1-1-3.7-2.2-5.7-3-2-.7-4.3-1.7-5-2.2-1.8-1.3-3-1.1-3 .3 0 .9-.6 1.3-2.4 1.6a29 29 0 0 1-11.5-.2c-.9-1.4 1-2.6 4-2.6 2 0 2.7-.2 2.4-.7a1 1 0 0 1 .4-1.2c1.2-.8 9-.1 11.3.9 4.2 2 7.9 2.8 9 2.2.9-.5 1.7-.2 3.3 1 1.2.9 3.8 2.2 5.8 2.8 2 .6 3.6 1.5 3.6 2 0 1-2 1-5-.2-3-1.3-3.3-.8-1.6 1.6.8 1 1.5 2.2 1.5 2.6 0 1-1.8.8-3-.4zm-139-3.5c-1.7-2.2-1.6-3 .2-2.7 2 .4 3 1.4 3 3.1 0 2-1.4 1.9-3.2-.4zm159.8 1.6c-1.2-1.3-.3-2.2 2.1-2.2 2.2 0 4 .8 3.2 1.6-.6.5-4.8 1-5.3.6zm-152-2c-1.5-1-2-2.8-.6-2.8 1.3 0 3.7 1.9 3.7 3s-1.3 1.1-3-.1zm20.1.3c-1-1-1-3.8 0-3.8 1.3 0 4 3 3.5 3.9-.6.9-2.5.8-3.5-.1zm86 0c-.8-.3-1.2-.8-.8-1.1 1-1 9.4-2.2 10.1-1.5 1.4 1.4-6.4 3.6-9.2 2.6zm35.4 0c-.8-1.2.8-2 3.2-1.6 3.3.7 3.1 2.4-.2 2.4-1.4 0-2.8-.4-3-.7zm-44.9-.4c-2.9-.1-4-.4-4-1.1 0-.5.3-1 .6-1.3 1.1-.7 11.1 1 10.9 1.9-.3.8-1.7.9-7.5.5zm-67.3-.6c-.4-.3-1-1.1-1.2-2-.3-1.1-1-1.4-3.7-1.5-2-.2-3.5-.6-3.6-1-.4-1 6.4-1.2 8.2-.2.9.4 1.4.3 2-.3.4-.6 1.6-1 2.5-1 1 0 2-.3 2.5-.7 1.1-1.2 3.7-.4 4 1 .2 1.6-1.8 2.3-6.4 2.3-2.1 0-2.3.1-2.3 1.7 0 1.8-.8 2.5-2 1.7zm-21-1c-1.3-1.3-7.8-2.3-12.6-2a93 93 0 0 1-19.2-.2c-1.8-1.8 4.7-3.5 10.7-2.8 2.2.3 7.9.6 12.7.6h8.9l.5-4.7c.6-5.4.6-18 0-53.2-.5-40.2-1-54.9-1.4-56.5-.2-.8-1-1.4-1.6-1.4-2.6 0-2.2-2 2.5-15.3.5-1.5 1.4-3.2 2-3.7 1-.9 7-3.3 10.3-4.1.8-.2 1.5-.6 1.5-1 0-.2.5-.5 1.1-.5a5 5 0 0 0 2.4-1c.7-.5 1.7-1 2.2-1 .5 0 1.6-.5 2.6-1.1a14 14 0 0 1 3.5-1.7l3.3-.8c1.2-.3 1.7 0 2.3 1.7 1 2.3.4 3.5-.9 1.8a2.7 2.7 0 0 0-4.2-.2c-.5.6-1.2 1-1.7 1s-3 1-5.6 2.3l-4.7 2.2h3.3c2.2 0 3.6-.3 4.1-1 .5-.5 1.2-1 1.7-1s1.2-.5 1.6-1.2c.9-1.7 3-1.7 3.9 0 .9 1.7 2.1 1.6 2.9-.2.3-.8 1-1.4 1.6-1.4 1 0 1 .5.3 2.4s1.5 1.4 3.7-.8c2.1-2.1 3.2-2 3 .2l.4 3.2c.6 2-.3 2.4-1.6.7-.6-.7-1.6-1-3.3-.7-1.7.2-2.7 0-3.2-.6-.7-.8-1-.8-2 .5-.6 1-1.1 1.2-1.5.7-.8-1.3-5-.9-7 .7l-2 1.5h23.7c22.3 0 24.5-.2 24.5-1.8 0-1-1.5-.5-2.3.6-.8 1-1.1.9-4-2.2a20.3 20.3 0 0 0-4.2-3.7c-.6-.2-1.2-.8-1.2-1.4 0-1.4 2-1 7.3 1.7 2.3 1 5.1 2.2 6.4 2.6 1.3.3 3.4 1.3 4.8 2.2 1.4 1 3.3 1.6 4.6 1.6 2.7 0 4.8 1 4.8 2.3 0 1-8.5 6.8-10 6.8-.6 0-1-.6-1-1.5 0-1-.2-1.2-.6-.6-.6 1-4 0-4-1.3 0-.5-.3-.4-.6.3-1 1.8-2.8 1.5-2.4-.5.4-2-.8-2.1-2.4-.3-.7.7-1.8 1.3-2.5 1.3-1 0-1.2-.3-1-1.6.2-1 .1-1.6-.2-1.6-.6 0-2.5 1.8-2.5 2.5 0 .3-.6.4-1.3.2-1-.2-1.2-.7-1-1.5.3-.9.1-1-1-.8-.7.2-1.4.6-1.6 1-.7 1-2.1.5-2.6-.8-.5-1.7-.9-1.6-3.1.3-1 1-2.3 1.6-2.8 1.6-1 0-1.1-1.4 0-2.4.5-.6.3-.8-1-.8a5 5 0 0 0-3.1 1.6c-2 2-4.2 2.3-3.6.4.5-1.6-.4-1.8-1.6-.4-1 1.3-3.2 1.3-3.2 0 0-.6-.6-1-1.7-1-.8 0-1.6.3-1.6.6 0 .2-.9 1-2 1.6-1.5 1-2.1 1-2.8.5-.7-.6-1.3-.6-2.3 0-1.1.5-1.6.5-2.2 0-.5-.7-.5-1 0-1.2.5-.1.9-.6.9-1 0-.3-1 .1-2.2 1-2.2 1.7-4.4 1.5-3.3-.2.4-.6 0-.5-1 .2-.9.7-2.3 1.5-3 1.9-2.2 1-3 4.4-2.6 9.8.3 2.6.5 21.7.5 42.5 0 38.2.2 43.7 1.3 45.4.5.7.9.5 2-.9 1-1.3 1.8-1.8 3.5-1.8 1.5 0 2.2.3 2.2 1 0 .5-.4 1-1 1-.5 0-2.3 1.4-4 3l-3 3.1.2 12.4c0 13.6-.1 14.5-3.7 14.5-2.4 0-3.5.8-3 2.1.5 1.4-1.6 1.5-3 .2zM117 143.6c3.3 0 4.1-.2 4.1-1 0-1-.6-1-3.7-.7-5.6.6-7.3 1-7.3 1.8 0 .4.6.5 1.4.3.8-.2 3.3-.4 5.5-.4zm59-.6c-.7-1-3.7-1.3-3.7-.3 0 .5.8.9 2 .9 1 0 1.8-.3 1.6-.6zm-22.3 137.2c-1.9-1.2-2-1.5-1.5-3 .4-1 .4-2.9 0-5.2-.7-3.5-.7-3.7 1-5.4.9-1 1.6-2.3 1.6-3 0-1.5 1.2-2.9 2.5-2.9.7 0 .8.5.4 2.1-.2 1.2-.6 4.5-.7 7.3-.2 2.9-.6 5.8-1 6.7-.6 1-.6 1.6 0 2.2.8.8 1 2.4.3 2.4-.3 0-1.5-.5-2.6-1.2zm-120.5-.4c-.6-1.4.5-2.4 1.6-1.6 1 .6.5 2.6-.6 2.6-.3 0-.8-.5-1-1zm27.3-.5c-.9-1.2-1.2-1.3-2.4-.6-1.8 1.2-2.6.2-1.6-1.8.8-1.7 3.8-2.5 5.2-1.4.5.4 1.1.5 1.7 0 1.5-.8 2.5-.7 3.9.8 2 2 1.7 3.3-.8 3-1.2 0-2.8.3-3.5.7-1.3.7-1.6.6-2.5-.7zm-12.3-.5c-.4-.5-1.9-.6-4.8-.3-3.2.3-4.6.1-5.5-.6-2.8-2.2.8-6.3 4.4-4.9.9.3 1.7 1 1.7 1.5s.8.8 2.2.8a6 6 0 0 1 3.4 1 6 6 0 0 0 2.3 1.3c.7.2 1.3.6 1.3 1 .2.8-4.5 1.1-5 .2zm140.3-2.5c0-.4.9-.7 2-.7 1 0 2 .3 2 .7 0 .3-1 .6-2 .6-1.1 0-2-.3-2-.6zm-29.5-15c-.2-.3.1-.8.8-1l3-1c2-.8 3.4 0 2.8 1.7-.4 1.2-5.9 1.5-6.6.4zm15 .3-2.3-.7-1.6-.3c-.3.1-1 0-1.7-.2-1.3-.4-1.7-2.6-.7-3.2.3-.2.7-1.2 1-2.2.2-1.3 1-2.1 2.2-2.7 3.4-1.4 4.3-.7 4.8 3.5.3 2.1.8 4.2 1.1 4.5 1.6 1.5.4 2-2.9 1.3zm9.1 0c-1-1-.3-1.5 1.9-1.5 2.5 0 3 1 .8 1.5-2 .5-2.2.5-2.7 0zm6.9-.4c.1-.4 1-1 1.7-1.1.9-.2 1.6-.8 1.7-1.4 0-.6.4-2 .6-3 .5-2.4 0-2.6-1.7-1-1 1-1.5 1-2.6.3-1.8-1.2-2.7-.3-2.2 2.2s-.7 3-2.3 1.2c-.6-.8-.5-1.6 1.1-5 1-2 2.4-4.4 3-5.2 1.2-1.3 1.5-3 .6-3-.2 0-.9 1-1.3 2.3-.6 1.6-1.2 2.2-1.8 2-.6-.3-1.1.2-1.5 1.2-.8 2.1-1.7 1.6-2.2-1.2-.3-1.6 0-3 1.2-5.3 1-1.7 1.6-3.4 1.4-3.8-.1-.4-.7.2-1.3 1.4-1.4 2.6-2.7 2.8-2 .3.2-1 .5-3.2.5-5 0-1.8.5-3.3 1-3.4.4-.2.7-.7.7-1.2 0-1.4 1.7-4.4 3.5-6.3a44 44 0 0 0 6.5-12.8c-.6-1 .4-4.5 1.3-4.5 2 0 2.3 1.6 1.4 9.8-1 8.8-.4 23.7 1.2 34.5 1 6.3.9 7-.6 6.5-.6-.3-1 0-1 .9 0 1.1-.4 1.3-3.6 1.3-2.5 0-3.5-.2-3.3-.7zm-1.2-19.2c.3-.4 0-.7-.6-.7-.5 0-1 .3-1 .7 0 .3.3.6.6.6.4 0 .8-.3 1-.6zm1-6.8c0-.6-.3-1-.6-1-.4 0-.7.4-.7 1 0 .5.3 1 .7 1 .3 0 .6-.5.6-1zm-13 22.5a17 17 0 0 1-.5-5.3c.2-2.9.5-3.7 1.4-3.9 1.4-.2 2.1 1.6 1.2 3.4-.5 1-.6 2-.2 3.5 1.1 3.7-.6 5.7-1.9 2.3zm-18.4-4.3c.2-.8 1.1-2.1 2-3 1.3-1.3 1.5-1.4 1.9-.5.2.6-.2 1.9-1 3-1.8 2.4-3.6 2.7-3 .5zm57.9-.8c-.5-.5.1-3.5.9-4 1-.6 2 1 1.5 2.7-.4 1.5-1.6 2.2-2.4 1.3zm-97-1c-1-1.1-1-3.8 0-3.8.5 0 1.3.7 1.7 1.6 1.1 2.5 0 3.8-1.7 2.1zm44.6-1.9c0-.7.4-1.3 1-1.3.5 0 1 .6 1 1.3s-.5 1.3-1 1.3c-.6 0-1-.6-1-1.3zm58.7-3c-.2-.3-.4-.8-.4-1.3 0-1 2.3-1.2 3-.2.4.7-2 2-2.6 1.5zm-76.5-.9c-.8-1.1.3-2 2.7-2 1.8 0 2.2.3 1.9 1.1a4 4 0 0 0-.4 1.3c0 .6-3.9.2-4.2-.4zm58.4-.3c-.2-.5-.1-1 .2-1.3.8-.4 6.5 1.1 6.5 1.8 0 1-6.3.5-6.7-.5zm-37.6 0c-.7-.8-.5-4.7.3-5.2 1-.7 2.6 1.7 2.4 3.6-.2 1.6-1.7 2.4-2.7 1.5zm50.3-2.3c-.3-1.3-1.2-1.4-14.1-1.5-1.9 0-2.6-.3-2.6-1 0-.9 1.2-1 8-.8 4.9.2 8.2 0 8.7-.4 1.3-1 8 0 8 1.2 0 .6-.9 1-2.8 1.1-2 .2-2.7.5-3 1.5-.4 1.6-1.7 1.6-2.2 0zm-40 0c-.6-1 .2-4.3 1.3-5.2 1.2-1 1.8.4 1.5 3.4-.2 2.2-2 3.3-2.8 1.9zM15 238.6c-.5-1.4 1.6-4.9 3-4.9s1.6.7.7 2.5l-1 2.2c-.4 1.4-2.2 1.5-2.7.2zm22 .5c-1.7-.6-.8-2.5 1.5-3.4 2.7-1 3.7-.3 3.4 2-.2 1.2-.7 1.6-2.2 1.7-1 0-2.3 0-2.7-.3zm168.8-1.3c-.2-.2-.4-1.4-.4-2.6 0-2-.1-2.1-2.7-2.1-3.4 0-3.1-1.5.4-2 2.2-.2 2.6-.5 2.8-2 .2-1.8.2-1.8-3.7-1.8-3.1 0-4-.2-4-1s.9-1 4-1c3.7 0 3.8 0 3.8-1.6 0-1-.4-1.8-.8-1.9l-3.6-1c-3.8-1-2.9-2.2 1.2-1.6 2.5.3 3.2.2 3.2-.5l.4-2.2c.3-1 0-1.5-.8-1.7-1-.3-.9-.3.3-.4.9 0 2-.6 2.4-1.2 1.3-1.7 0-2.8-3.5-2.8s-4.8-.6-4-1.8c.8-1.3 9.6-.4 10.3 1.1 1 1.8 0 6-1.3 6.4-.7.2-1.2.9-1.2 1.8 0 1.3.4 1.5 2.8 1.7 1.9.2 2.7.5 2.7 1.2s-.7 1-2.9 1c-2.6 0-3 .1-3.1 1.5-.2 1 .2 1.8.8 2.2 1 .5 1 .7 0 1.8-.6.6-1 1.8-.8 2.7.1 1.3.6 1.5 3.1 1.6 1.6 0 3.9 0 5-.2 1.8-.3 2.1-.6 2.1-2.2 0-1.7-.2-2-1.9-2-1 0-2 .4-2.3.7-.2.4-.8.7-1.4.7-.7 0-.9-.6-.7-2.1.1-1.5.5-2 1.1-1.9 4.6 1.2 5.5.6 4.9-3.3-.5-2.7.3-3.5 2.3-2.4 1.2.6 1.3 1 1 3-.4 1.8-.2 2.4.7 3.1 1.1.9 1.1 1-.3 2-1 .7-1.4 1.6-1.3 2.7.2 1.5.5 1.7 3.1 1.7 2.2 0 3 .3 3.1 1.2.2 1-.2 1.1-2.6 1.1-1.9 0-3.2.4-3.8 1-.7 1-1 1-1.8-.1-1-1.1-1.6-1.2-5.6-1-4.4.4-4.5.5-4.8 2.3-.4 2-1.3 2.8-2.2 2zm-157-2.5c-1.3-1.4-1-2.5 1-2.8 1.6-.2 3.2 1.3 3.2 3 0 1.2-3 1-4.2-.2zM.1 232c-.2-.6-.2-1.3 0-1.7.8-1.2 1.7-.7 1.7 1s-1.1 2.2-1.7.7zm21.4-1.4c-.5-1.1 1-3.2 1.8-2.4.6.6 0 3.4-.8 3.4-.4 0-.8-.4-1-1zm117.2 0c-1.3-1.5-.9-2 1.7-2.5 2-.3 2.6-.1 3.5 1 .7.7 1 1.6.9 1.8-.5.9-5.2.6-6-.3zm-107.6-1c-1-1.2-1-3 .3-3.4 1.4-.6 3 .8 2.7 2.4-.2 1.6-1.8 2-3 1zm88.3-2.3c-1-2.5-1.5-7.7-.7-8.4.2-.3 1 0 1.7.7 1 1 1.3 2 1.3 5.3 0 4.8-.8 5.7-2.3 2.4zm-102.7.7c0-.7-.6-.8-3-.5-2.4.3-3.1.2-4.5-1.1-1.8-1.7-2-3-.5-3.5 2-.8 3.9-.3 6 1.6l2 1.9.7-1.6c.5-1.4 4.4-4.9 5.4-4.9s.2 1.9-1.9 4.5a11.8 11.8 0 0 0-2.2 3.7c0 .5-.5 1-1 1a1 1 0 0 1-1-1zm9.5.2c-1.2-1-1.3-3.1 0-3.5.7-.2 2.9 3.4 2.3 4-.5.5-1 .4-2.3-.5zm50.4-2.8c-.3-2-.1-2.6 1.4-4.2 1-1 2-1.9 2.4-1.9 1 0 .5 2.6-.5 3-.6.2-1 1.3-1 2.9 0 3.3-1.7 3.5-2.3.2zm-23.6 1c0-.4.3-.5.7-.3.3.2.6.5.6.7 0 .1-.3.3-.6.3a.7.7 0 0 1-.7-.7zm123.6.2a23 23 0 0 1-.4-5.8c0-4.2.2-5.5 1-5.8.5-.2 1.4 0 2 .4 1.2 1 1.1 5.8-.1 7.4-.5.7-1 2-1 2.8 0 1.4-.6 1.9-1.5 1zm-142-.8c-.3-.4-1-.7-1.7-.7-1 0-1.3-.4-1.3-1.6 0-.8.3-1.7.7-2 .3-.2.6-1 .6-1.9 0-1.8 1-2.6 1.6-1.3.2.6.9 1 1.5 1 .7 0 1.6.7 2 1.5 1.1 2.7-2 7.4-3.4 5zm104-1c0-.8.2-1 .4-.4.2.4.2 1 0 1.2-.2.2-.4-.2-.4-.9zm-138-1.5c0-1 .4-2 1.1-2.5.7-.4 1.4-1.9 1.6-3.4.4-2 .8-2.7 2-3a11 11 0 0 0 4-3c2-2.2 2.2-2.9 2.2-6 0-4.5.7-7.6 1.6-7.3.8.3.8 5.2 0 10.6-.5 3.7-3.2 7.4-5.4 7.4-1.3 0-2 1.1-2 3.5 0 .9-.4 2-.9 2.4-.4.5-1 1.4-1.2 2a2 2 0 0 1-1.8 1.1c-1 0-1.3-.4-1.3-1.8zm125.1-.2c-.5-1-.7-2.1-.5-2.3.8-.8 3.2 2.2 2.8 3.3-.6 1.5-1.3 1.2-2.3-1zm16.1 1.2c0-1 2.7-3.7 3.8-3.7 1.2 0 1 1.1-.6 2.9-1.6 1.8-3.2 2.1-3.2.8zM56.4 223c.1-1 1-1.7 3.4-2.5a20 20 0 0 1 4.7-1.2c1.1 0 1.4-.4 1.6-2.1.1-1.4.6-2.2 1.4-2.3 1-.2 1.1.2 1 3.2l-.2 3.5-3.2-.2c-2.5-.2-3.5 0-5.3 1.4-2.6 2-3.7 2.1-3.4.2zm58.9-6.4c0-7.9.7-8.7 2-2.4.6 2.8.6 4.2 0 6.6-.5 1.7-1.2 3-1.5 3a24 24 0 0 1-.5-7.2zm34.2 5.6c-.2-.2-.3-2.2-.1-4.5.2-3.8.1-4-1-3.8-1.8.5-1.8-.8 0-1.9.6-.4 1.2-1.3 1.2-2 0-2.4-1.9-.8-4.8 4.3-2.3 4.1-3.4 4-4-.5-.2-2-.8-3.8-1.3-4.2-1-.9-.6-2.3 1.4-4.7l1.5-1.8-1.3-1.4c-1.8-1.7-2.8-.7-2.7 2.7.1 3-1.5 3.7-2.2.9-1-4.4-.2-10.6 1.4-10.6.8 0 1 .6.8 2.4-.2 1.4-.2 2 0 1.3.1-.6.8-1.4 1.5-1.8 1.8-.9 1.6-1.4-.8-2.8-1.3-.7-2.2-.9-2.3-.4-.2.3-.7.7-1.2.7-1.2 0-1.2-2.3 0-3.5.6-.5 1-2 1-3.1 0-1.2.2-3.7.6-5.7.9-4.3 1-4-.2-4-.5 0-1.5.8-2.3 1.8-1 1.3-1.3 2.6-1.3 6 0 4.9-.3 5.5-2 4.5-1.5-.8-1.6-2.4-.3-5.6 1.2-2.6.5-3.7-2-3-1 .4-1 .3-.3-.6.5-.6 1.2-1 1.7-1 .4 0 1.2-1.5 1.6-3.2.5-1.6 1.2-3.6 1.7-4.3.6-.9.7-1.5.2-2-.6-.7-.5-1 .4-1.4.8-.3 1.6.1 2.5 1.3.8 1 1.6 1.8 1.8 1.8.2 0 .6-1.4.8-3 .6-4 1-4.8 2.1-4.8.6 0 .9.3.7.8-.5 1.2.7 3.7 1.7 3.7.5 0 1.2-.7 1.6-1.6 1.2-2.5 2.5-2 2.1.9-.2 1.5 2 3.4 3.6 3 1.4-.3 1.5-.2 1.4 3-.2 3.1 0 3.5 1.3 3.7 1.5.2 2 1.7.6 2.2-.6.2-.6.6 0 1.7.6 1 .7 1.7.3 2.2-.4.5-.6 7.3-.6 17.3 0 15 0 16.5-1 16.4-.7 0-1.1.4-1.1 1.2 0 2.3-1.7 4.4-2.7 3.4zm-1.4-15.4c2.4-2.8 3-4.9 1-3.6-1.7 1-6 7-6 8.3 0 .7.4.6 1.4-.6.8-.9 2.3-2.8 3.6-4.1zm-.9-5.6c-.4-.4-4 3.9-4 4.8 0 .4 1-.5 2.2-1.9 1.2-1.4 2-2.7 1.8-3zm3.5-3.7c-.8-.8-2 1-1.4 2.2.4 1 .5 1 1.1-.3.4-.8.5-1.7.3-2zm-8.5 1.7c.2-.3 0-.6-.3-.6-.4 0-.7.3-.7.6 0 .4.1.7.3.7l.7-.7zm6.1-4.1c0-.3-.7.2-1.6 1.2-.9 1-1.6 2-1.6 2.5 0 .9 3.2-2.8 3.2-3.7zm-3-.8c.4-.9.3-1-.5-.3-1.2 1-1.3 1.4-.4 1.4.3 0 .7-.5 1-1.1zm-1.9-1.5c.3-.4.1-.7-.2-.7-.4 0-.7.3-.7.7 0 .3.1.6.3.6l.6-.6zm6.9 0a.6.6 0 0 0-1.3 0 .6.6 0 0 0 1.3 0zm-8.2-8.4c1-1.2 1.4-3.3.5-3.3-1.2 0-3.7 5.6-3.5 7.8.4 3.7 1 3.8 1.5.1.3-1.9 1-4 1.5-4.6zm8.5 4c.6-1.6-.2-1.8-1.6-.5-1.8 1.6-1.8 3.2 0 2.1.7-.4 1.4-1.2 1.6-1.7zm-4-5a11 11 0 0 1 2-2.9c1.1-1 1.4-2.6.3-2.6-.3 0-.8.5-1 1a38 38 0 0 1-2.6 4.4c-2.3 3.5-3 6.2-1 3.6a27 27 0 0 0 2.3-3.6zm2.8.6c.7-.7.8-1.3.4-1.7-.4-.4-.9 0-1.4 1-.8 2-.5 2.2 1 .7zm-2.9-6.6c1.2-2.5.7-4.7-1.1-4.7-1.2 0-1.3 1-.2 1.5.7.2.7.6 0 2-.9 2-1 3.6-.3 3.6.3 0 1-1 1.6-2.4zM26.1 220.7c-.4-.7.8-1.5 1.7-1 .7.5.2 1.6-.7 1.6-.3 0-.7-.2-1-.6zm198-.3c0-1 2.8-2 4-1.3 1.5 1 .6 2.2-1.7 2.2-1.5 0-2.2-.3-2.2-1zm-215.8-.2c0-1 1.6-2.1 3-2.1 1.8 0 2 .5.4 1.7-1.3 1-3.4 1.2-3.4.4zm9-1.3c0-1.6 2.5-4.2 3.9-3.9.5.1 1.1.8 1.2 1.6.2 1-.3 1.7-1.7 2.4-2.6 1.3-3.3 1.3-3.3-.1zm28 .5a.6.6 0 0 1 1.2 0 .6.6 0 0 1-1.3 0zm-8.5-2.1c0-1.5 3.7-4.4 5.5-4.4.5 0 1-1.1 1.3-2.9l.7-5.8c.4-2.3.8-3 2.3-3.6 2.3-1 4-.6 4.4.8.1.8-.4 1.1-2 1.3-2 .2-2.1.3-2.6 3.8l-.7 5.5a7.2 7.2 0 0 1-4.5 6c-3.2 1.2-4.4 1-4.4-.7zm95.6.8c-.5-.8.3-2 1-1.6.8.5.8 2.3 0 2.3-.3 0-.7-.3-1-.7zm-84.3-.7c-.3-.5.2-1.3 1.1-2 2.4-1.8 5.4-1 4 1.2-.8 1-4.5 1.7-5 .8zm87.7-1c-.4-.8 0-5.3.4-5.8.6-.6 1.8 3 1.6 4.5-.2 1.3-1.5 2.2-2 1.3zM13.5 215c0-1.1 1.4-1 1.8.3.1.4-.2.8-.8.8a1 1 0 0 1-1-1zm200-.3c-.3-.3-.1-1 .3-1.6.6-.6.6-1 0-1-.3 0-.7-.8-.7-2v-2l4 .4c2.2.3 4.9.4 5.9.4 1.6 0 1.9.3 1.7 1.5-.2 1.1-.6 1.4-1.7 1.3-1-.2-2.1.4-3.4 1.7-2 2-5.3 2.7-6.2 1.3zm3.1-3.9c-.4-.7-1.5-.1-1.5.7 0 .4.4.5 1 .3.5-.2.7-.7.5-1zm-200.2 3.3c-.5-.8 1.3-1.6 2.2-1 .4.3.6.7.4 1-.5.9-2.1.8-2.6 0zm11.3-.5c0-1.6 6-6.7 7.2-6.2.5.3 2 .5 3.4.4 2 0 2.4.2 2.4 1.2 0 1.5-2.7 2.3-4.7 1.4-1.2-.5-1.8-.2-3.7 1.9-2.4 2.6-4.6 3.3-4.6 1.3zm94.5.7c-.7-.6-.6-4 .1-4 .8 0 1.6 3.2.9 4-.3.2-.8.3-1 0zm10.3-1.3c-.8-.8-.4-3.3.6-3.6.7-.3 1 .1 1 1.8 0 2.2-.6 2.8-1.6 1.8zm69.1-1c.3-1 2.4-1.1 2.6-.1.1.3-.5.7-1.4.8-1 .2-1.4 0-1.2-.6zm-145.5-.9c-.6-.2-1.2-.8-1.4-1.4-1-3.4-1-5.3-.3-6.7l1.2-2.4c.6-1.4 2-1.6 2-.4 0 .6-.5 2.1-1.1 3.4-1.4 2.8-.6 5.6 1.6 5.9.8 0 1.4.5 1.2 1-.3.8-1.5 1-3.2.6zm-36.1-1c0-1.7 1-2.4 3.8-2.6 2-.1 3 .1 3.5 1 1 1.5-.4 3-1.8 1.7-.8-.6-1.4-.6-2.7 0-2 .9-2.8.9-2.8-.1zm154.9-1.1c0-.4.3-.8.6-1 .4-.2.7 0 .7.6 0 .5-.3 1-.7 1a.6.6 0 0 1-.6-.6zm-145.6-2.4c-.7-2.9 0-11.4 1.2-12.2.7-.5 1-2.3 1.2-6.6.4-7.8 2.5-10.7 3.4-4.8.2 1.5.7 2.6 1 2.6.7 0 1.5-4 1.7-8.4.1-3.6 1.4-4 3.4-1 1 1.4 1.4 3 1.4 5 0 1.7.5 4.9 1 7 1.3 4.8.9 11-.7 11-.5 0-1.2-.6-1.6-1.4-.5-1.2-.5-.9-.2 1.2.3 2.5.2 2.7-1.7 3.5-1.6.6-2 1.1-1.8 2.5.2 2.3-1.5 2.2-2.4 0-.5-1.6-.2-2.3 1.8-5.3 1.9-2.7 2.4-4.2 2.7-7.6l.7-6.8.3-2.6-1.4 2.6c-1 2-1.4 4-1.4 7.6-.1 5.6-1.3 7-2 2.4-.8-4-1.4-2.4-1.4 3.8 0 5-.2 5.6-1.5 6.5-.7.5-1.4 1.3-1.4 1.8 0 1.6-1.9 1-2.3-.8zm3.6-8.3c0-1-.9-2.2-1.3-2-1 .6-.7 2.3.4 2.3.5 0 1-.1 1-.3zm2.3-8.7c-.2-.4-.7-.7-1.1-.7-.4 0-.4.4.1 1 1 1 1.7.8 1-.3zm93.7 18.1c0-.3.4-.9 1-1.3.7-.7 1-2.3 1-7.2 0-4.6.1-6.5.8-7 1.4-1.2 1.8 0 2.2 6.7.3 5 .1 6.4-.8 7.8-1 1.5-4.2 2.3-4.2 1zm-58.4-1.6c0-1.3 1.8-2.5 3-2.1 1.2.5 1.2 2.1-.1 2.6-1.7.7-2.9.5-2.9-.5zm-8.6-3.4c-.5-.5 0-1.5.9-1.5.3 0 .6.4.6 1 0 1-.8 1.2-1.5.5zm4.7-1c0-3 1.6-5.2 4.8-6.8 1.8-.9 3.8-2 4.5-2.6 1-1 1.1-.9 1.5 0 .6 1.6-1.2 3.3-4.3 4.3a5.8 5.8 0 0 0-3.7 3.2c-1.3 2.4-2.8 3.4-2.8 1.8zm101-1c-.5-.6-.5-1.6-.1-3.3.5-2 .8-2.4 2.4-2.2 1 0 2.3.4 2.8.8 1.1 1 1.2 4.1 0 5.1-1.1 1-4.2.7-5-.4zm-122.8-2.4c-.3-1 2.2-4.9 3.2-4.9.7 0 .6 2.4-.1 3.9-.9 1.5-2.6 2.1-3 1zm-33-2.3a42.2 42.2 0 0 1-.3-14.1c1-2 1.8-1.8 2.2.3l.2 1.8.1-1.8c0-1 .6-2 1.1-2.1.5-.3 1-1.1 1-2 0-.8.4-1.5.9-1.5.6 0 1 1.4 1.3 5.2a16 16 0 0 1 0 5.7c-.5.6-1.5-1.3-1.6-3.2l-.1-1.6-.5 1.6c-.3 1-.6 3.5-.6 5.8 0 2.2-.4 4.6-.7 5.3-.8 1.3-2.3 1.7-3 .6zm163.7-1.7c-1.4-3.6-.2-5.8 2-3.8 1.5 1.4 1.7 4.6.3 5.1-1.5.6-1.6.6-2.3-1.3zM84 195c-.7-.7.1-1.6 1.5-1.6.8 0 1.2.3 1 .8-.2 1-1.9 1.4-2.5.8zm-32.6-4.2c-.2-1.1-.3-2.2 0-2.4.6-.7 2.3 1.3 2.3 2.8 0 2.3-1.8 2-2.3-.4zm8.1.7a.6.6 0 0 1 1.3 0 .6.6 0 0 1-1.3 0zm27.7-.6c-2.4-1.4-2.2-2 .4-2 2.3 0 4 1.4 3.4 2.5-.6 1-1.7.8-3.8-.5zm-20 .2c-.6-.5.7-3.5 1.4-3.5 1 0 2 2 1.7 2.9-.4 1-2.4 1.3-3.2.6zm-5.8-1.3a6 6 0 0 1 1.3-2.7c1.5-1.9 1.8-3.3.5-2.2-1 .8-3 .4-3-.5 0-1.4 1.8-2.7 3.6-2.5 2.7.3 3 3.5.5 6.6-1.8 2.5-2.9 3-2.9 1.3zm14.7-2.1c-.2-.3-.2-1.2 0-2 .3-1.1.6-1.2 1-.6.7 1.2.7 3.1 0 3.1-.4 0-.8-.2-1-.5zm-6.9-1.8c0-1.8 2.1-4.1 3.7-4.1 1.5 0 1 2.2-1 4-2.2 2.2-2.7 2.2-2.7 0zm10.4-.7c0-1.9 1-3 2.6-2.7 2 .3 2.5 1.8.7 1.8-.8 0-1.4.5-1.4 1 0 .6-.4 1-1 1-.5 0-.9-.5-.9-1.1zm-26.6-2c0-.9.4-1.4 1-1.4s1 .4.9 1c-.4 1.7-1.9 1.9-1.9.3zm-32.5-4.5c-.2-2-.3-7.2-.2-11.3 0-8.8-.7-9.2-1.9-1-.6 4-1 5.4-1.8 5.5-.6.1-1.2 1.2-1.4 2.8-.5 3-2 3.4-2.7.6-.2-1-.8-2.2-1.3-2.6-.5-.5-1-1.8-1-3a18 18 0 0 0-1-4.8c-1.2-3.4-1.2-5.4 0-6.4 1.6-1.3 2.9-4.4 3.3-7.7a54 54 0 0 1 1.1-5.8c.8-3.2 0-6.2-1.7-5.6-.5.2-1 0-1.3-.4-.3-.4 0-.8.9-1 1-.3 1.3-1 1.3-2.1 0-3.6.7-4.6 3-4.6 1.3 0 2.2.3 2.3.8 0 1 2.5-4 2.5-5.3 0-.4-.4-.7-.9-.5-.4.2-1.2.1-1.6-.2-1.2-.7 1.7-4 3.4-3.8 2.3.4 1.6 5.3-1.4 11.1-3 5.6-4 10-2.5 9.3.8-.3 1 0 1.1 1.4 0 1.6 0 1.6.6.3.3-.7.9-1.5 1.3-1.8.5-.3.4-.8-.4-1.7-1-1.1-1-1.3.6-2.5 1-.8 1.7-1.9 1.7-2.5 0-1 0-1-.6 0-.8 1.4-2 1.6-2 .3a45 45 0 0 1 4.8-9.3c.4-.5.9-.6 1.3-.3.3.4 0 1.7-.9 3.4-1 1.9-1.2 3-.7 3 .4.2.7.9.7 1.6 0 .7.5 1.7 1 2.2.8.8 1.2.8 3.2-.4 1.3-.7 2.4-1 2.6-.7.5.8-.2 2.7-1 2.7-.4 0-1.4.7-2.2 1.6-2 2-4.2 2.1-4.7.3-.1-.7-.5-1-.8-1-.3.3-.4.9-.2 1.4a2 2 0 0 1-.3 1.7c-.3.5-.8 2.5-1 4.4-.5 4-2.2 9.7-3 9.7-.4 0-.8-.3-1-.6-.8-1.4-1.5-.6-2 2.3-.2 1.8-.7 2.8-1.1 2.7-.5-.2-.7-1-.6-1.7 0-.9-.2-1.3-.5-1-.4.2-.7.9-.7 1.6 0 .6-.3 1.4-.6 1.6-.8.5-.9 3.3 0 3.8.2.2.6-.2.8-1 .6-2.1 2-1 2.4 1.8.4 2.8 1 2 1.7-3 .6-4 1.4-5.3 2.8-4.9 1 .4 1.3 0 1.6-3 .4-4.7 1.5-11 2-11.4.6-.6 1.1.3 1.5 3.1.2 1.9 0 2.9-.5 3.2a22 22 0 0 0-1.7 7.9c-1.1 9.8-1.1 12 .1 12.7.9.5 1 1.2.4 4.4-.6 3.8-1.7 7.4-2.3 7.4a13 13 0 0 1-.5-3.7zM15.9 152c-.2-.6-.4-.4-.4.4 0 .6.1 1 .3.8.2-.2.3-.8 0-1.2zm0-17.5c-.2-.5-.4-.4-.4.4 0 .7.1 1 .3.8.2-.2.3-.7 0-1.2zm160 44c.5-4.5.8-5.2 1.6-4.7 1.1.7 1.3 4.8.3 6.7-1.6 3.3-2.4 2.5-1.9-2zm20.4 2.7c0-2 1.7-6.4 3.4-8.9 1.6-2.3 2.2-2.7 4-2.7 1.5 0 2.5-.4 2.7-1 .2-.5.8-1 1.2-1 .4 0 1.1-.7 1.5-1.6 1.1-2.4 2.9-1.5 2 1-.4 1-1 2-1.6 2-.5 0-.9.6-.9 1.4 0 .9-.5 2-1.2 2.6-1 1-1.3 1-2.9.1-1.6-.8-1.8-.7-2.7.5-.5.8-1 2-1 2.5 0 .6-.4 1.4-1 1.8a4 4 0 0 0-1 2.2c-.3 1.5-2.5 2.4-2.5 1zm-139.2-1c-.4-1 .8-2.2 2.2-2.2.9 0 1.7 1.8 1.1 2.6-.6 1-2.8.7-3.3-.4zm18 .4c0-.3.3-.8.7-1a5 5 0 0 0 1.2-2c.6-1.4 1-1.6 3.4-1.4 2.5.1 2.8.3 3.1 2.2.6 2.6-.8 3.4-2 1.1-1-2-2-2-2.9 0-.6 1.4-3.5 2.4-3.5 1.1zm15.2.1c-.2-.3-1-.5-1.8-.5-1.7 0-2.1-1.2-.8-2.5 1.4-1.4 5.5-.2 5.5 1.6 0 .8-2.3 2-2.9 1.4zm98.2-1c0-1.7 1.9-5.4 3-5.9 1.7-.6 2.8-.4 2.8.6 0 .5-.2 1-.5 1s-1.2 1-1.9 2.4c-1.3 2.5-3.4 3.7-3.4 2zm-178-.6c-.5-1.4 0-4 .7-3.9.4 0 .8 1 .9 1.9.2 2-1 3.6-1.6 2zm191.7-1c.3-1.4 3.2-2.9 4-2 .5.3.2 1-.7 1.9-1.7 1.6-3.6 1.7-3.3.2zm4.8.6c-.8-1.3 4-4.6 6.5-4.6 1.7 0 1 1.8-1 2.6-1 .4-2.3 1.2-2.7 1.7-.8 1-2.2 1.2-2.8.3zm-85.5-1.3c-.2-.3 1-1.8 2.6-3.3 1.9-1.7 2.8-3 2.5-3.7-.6-1.8 1-5.9 3.2-8.2a7.9 7.9 0 0 1 5.5-2.7l3.3-.4v1.8c0 2.2-2.8 5.1-4.2 4.5-.6-.2-1-1.1-1-2.1v-1.8L132 163c-3.1 3.8-3.4 4.5-2.6 5.5a3 3 0 0 0 2 1c.7 0 1.3.4 1.3 1 0 .5-.6.9-1.5.9-1 0-2.9 1.3-4.9 3.2-3.4 3.3-4.3 3.8-5 2.7zm8.8-.6c-.4-.3-.5-.8-.2-1.3.4-.7.6-.6 1 .2.5 1.4.3 1.7-.8 1zm85.5-1.1c.3-1.4 1.5-1.5 1.7-.2.2.8-.1 1.2-.8 1.2-.6 0-1-.4-.9-1zm-131.5-.4c-1.2-1.2-1-2 .6-1.7.8 0 1.6.7 1.7 1.3.3 1.3-1.2 1.5-2.3.4zm89.1-3c-2-3.5-.8-9.2 1.7-8.4 1 .3 1 9.7 0 10-.3.1-1-.6-1.7-1.7zm7.5-.5c-.4-1.2 1.8-3.5 3.5-3.5 1.5 0 1 1.6-1.1 3.1-1.8 1.3-2 1.3-2.4.4zm-156-1.6c-.6-.8.1-3.2 1-3.2.3 0 .5.6.5 1.3v1.7c.2.8-1.1 1-1.6.2zm164.9-2.3c-.4-.5-1.2-1-1.8-1-.5 0-.8-.3-.6-.7.1-.5 1-.8 2.1-.8 1.6 0 2 .2 2.1 1.7.2 2-.6 2.3-1.8.8zm26.3-.3c-.6-.9.8-2.6 2-2.6 1.3 0 .8 2.9-.5 3.1-.6.1-1.3 0-1.5-.5zm-186-1.4-.6-2.7c-.1-1.5-.5-2-1.6-2-2-.2-2-.2-2.2-4.2-.2-5.7.8-12.3 1.8-12.3 1.2 0 2.6 2.4 3.2 5.3.5 2.7-.8 3.6-1.5 1-.4-1.4-.5-1.3-.9.5-.8 3.7-.5 5.3 1.4 8.1 1.1 1.7 2 3.7 2 5 0 2-1.1 2.9-1.7 1.3zm164.5-.1c-.5-1.3 3.5-6.6 4.4-5.7 1.3 1.3.2 4.2-2 5.5-1.8 1-2 1-2.4.2zm25.2-3.2.8-2.7c.3-.9-.2-.6-1.5.9-1.6 1.7-2.5 2.2-5 2.3-1.6.1-3 0-3.2-.3-.5-.8 1.6-3.2 3-3.2a9 9 0 0 0 3.2-1c1-.6 2.5-.9 3.2-.7 1 .3 1.3.1 1.3-.8 0-.6.3-1.5.7-2 .6-.5.5-1-.3-1.9-.6-.7-1-1.7-1-2.3a15 15 0 0 1 3.1-6.5c1-1 .9-1.3-.8-2.7-2.2-1.9-3.7-2-4.1-.3-.5 1.6-2.7 1.8-3.3.3-.2-.6.5-2.2 1.6-3.7 1.5-2.2 1.7-3 1.2-3.8-.8-1.4-.2-2.1 1.2-1.4 2.3 1.3 9 8.4 9.8 10.4 1 2.5.8 3.4-1 3.4-1.3 0-3.9 2.6-3.9 4 0 .6.4 1.4 1 1.8 1 1 1.3 3.6.3 4.2-.4.3-.7 1.1-.7 1.9 0 1.5-3.7 5.6-5 5.6-.6 0-.8-.5-.6-1.5zm-51.6-.2c-.5-.5 0-1.6.9-1.6.3 0 .6.5.6 1 0 1-.8 1.3-1.5.6zM141 162c-.3-.4-.2-1.7.2-2.9l.6-2.4s-1.3 0-2.9.3c-2.4.3-3 .2-3-.6 0-1 3.2-2.4 5.3-2.4.7 0 1.8.9 2.6 2 1.6 2.3 2.1 2.3 4 .6.8-.8 1.6-1 2-.7 1 1 .2 3-1.8 3.9-1 .5-2 1.1-2.2 1.4-.3.9-1.9.7-2.2-.2-.2-.6-.6-.5-1.3.4-.5.7-1 1-1.3.6zm34.7-3.2c0-1.7.4-3 .8-3 1 .3.8 5.5-.2 5.8-.6.3-.8-.4-.6-2.8zm-142.8-.2c-1.6-.4-2.7-2.6-1.3-2.6 1.4 0 4.6 2 4.2 2.6-.4.7-.5.7-2.9 0zm166.4.2c-.8-.8 1-3 2.2-2.6a2 2 0 0 0 2-.6c1-1.2 3.2-1.2 3.2 0 0 1-2.1 3-3.2 3a.8.8 0 0 1-.7-.8c0-.4-.5-.3-1.2.3-1.3 1.2-1.7 1.3-2.3.7zm28.7-2.2c0-1.2.2-1.4.8-.8.6.6.6 1 0 1.6-.6.6-.8.4-.8-.8zm-98.7-.7c-1-.6-1.6-2.5-.8-2.5 1.3 0 3.6 1.4 3.6 2.2 0 1.2-1.1 1.3-2.8.3zm22.5-.6c-.4-.8 1-1.5 4-2 1.4-.2 3-.6 3.7-.9 1.3-.5 1.6 1.1.3 2.1-1 .8-7.5 1.5-8 .8zm16.6 0a.6.6 0 0 1 1.3 0 .6.6 0 0 1-1.3 0zm45-1.7c-.6-1.2 1.4-2.9 2.7-2.4 1.2.5 1.2 2.6-.1 3-1.6.7-2.2.6-2.7-.6zm14.4-.7c-.8-.8-.4-2.5.8-3.6 1.7-1.6 2.7-1.3 2.7.7 0 2.6-2 4.3-3.5 3zm-13.4-5c-.6-.8-.6-1.4 0-2.7 1-2.2 2.3-1.6 2.3 1 0 2.5-1 3.2-2.3 1.7zm-172-.8c-.9-.9-.4-2.1 1-2.1.8 0 1.2.3 1 1-.2 1.2-1.3 1.8-2 1.1zm113.2-6.6c-1.1-1-.7-3 .5-2.7l3.3.7c2.8.5 4 1.2 3.6 2.1-.3 1-6.3 1-7.4 0zm-7.3.1c-2-.3-3.2-1.9-3.2-4.1 0-1.4.2-1.8 1-1.5.5.2 1 .8 1 1.2 0 .5.3 1.2.9 1.6.8.7 1.2.7 2 0s1-.7 1.6 0c.3.6.6 1.5.6 2.2 0 1-.6 1.2-3.9.6zm-105-1.4c0-.8.4-1.4 1-1.4s1 .5.8 1.1c-.3 1.7-1.8 1.9-1.8.3zm-2-2.3c0-.5.5-1 1-1 1.2 0 1 1.4-.2 1.8-.4.1-.8-.2-.8-.8zm4.6-.7c0-1 3.2-5.5 4-5.5 1.2 0 .3 3.2-1.3 4.8-2 2-2.7 2.1-2.7.7zm109.8-1.3c-.3-.6-1.9-1.2-3.7-1.4-2-.2-3.3-.7-3.7-1.5-1-1.7-4.6-3.3-7.2-3-2.1.1-2.2 0-2-2 .1-1.5-.2-2.7-1-3.5-.9-1-1-1.5-.3-2.4l1.4-2.6c1-2 2.7-1.5 4.2 1.4 1.1 2 1.2 2.6.5 3.7-1.3 2.2-1 3 2 3.9 1.5.4 3.3 1 4 1.5l4.6 2.4c2 1.1 3.2 2.1 3.2 2.9 0 1.5-1.1 1.9-2 .6zm-118.5-6.6a20 20 0 0 1 1-5.6 3 3 0 0 0 .6-1.7c0-1.5 1.7-2.1 2.2-.8.4 1.2-2.9 13.1-3.7 13.1-.3 0-.4-2.2-.1-5zm2.5 2.7.8-2.8c.7-3.2 2.8-4.2 2.8-1.4 0 .7.4 1.4 1 1.6 1 .4 1.3 2.3.3 2.3-.3 0-.9-.5-1.2-1-.6-1-.7-1-1.5.6-.8 1.8-3 2.5-2.2.7zm94.7.4c-.2-.3-.2-1 0-1.5 1-2.4 4-1.6 3.2.7-.4 1.4-2.5 2-3.2.8zm-102.7-1.8c.2-.6 1-1.2 1.7-1.3 1.6-.3 1.9.4.7 1.7-1.2 1.1-2.6.9-2.4-.4zm-8-8.3c-.9-.9.5-3 2.8-4.6a8.9 8.9 0 0 0 3.2-3.1c.3-1 .9-1.6 1.3-1.6.3 0 .6-.5.6-1 0-1.5 3.8-6 6.2-7.5 1.5-.9 3.2-1.2 6.1-1.2h4l3.8-3.9c3.7-3.8 3.8-3.8 6.1-3.1 1.8.5 2.3 1 2.3 2.2 0 1-.6 1.6-2.7 2.3-2.3.8-3 1.5-4.5 4-2 3.8-6 6.2-7 4.4-.4-.8-.7-.7-1.7.8-1.3 2-3.5 3.3-7 3.9-1.8.3-2.7.2-3-.4-.4-.6-.9-.1-1.6 1.5-.5 1.3-2.3 3.5-4 5-3 2.6-4.1 3-4.9 2.3zm23.5-15.9c0-.3-.3-.5-.7-.2-.3.2-.6.7-.6 1 0 .4.3.5.6.3.4-.3.7-.7.7-1zm-4 0c.8-.4.6-.5-1-.6-1.1 0-2.3.3-2.5.7-.5.8 2.3.8 3.6 0zm15.6 6.6c0-.3-.6-.7-1.4-.8-1.2-.2-1.4-.6-1.3-2.2.2-1.5 0-1.7-.6-1-1.5 1.4-2 .8-1.7-2 .5-3 .9-3.6 2-2.6 1 1.1 1.5 1 2.3-.9.8-1.7 2-1.6 2 .2 0 .6.5 1.5 1 2 .6.8.8 2.1.5 4.5-.3 2.8-.5 3.4-1.5 3.4-.7 0-1.3-.3-1.3-.6zm14.6-7.6c.3-1 .5-3.1.5-4.7 0-2.4.4-3.7 2.5-7 1.5-2.2 3-4 3.4-4 .4 0 1.4.7 2.1 1.6 1.4 1.6 1.4 1.8.6 5a10 10 0 0 1-2.2 4.3c-.7.6-1.5 1.8-1.7 2.8-.5 2-1.3 2.8-3.8 3.5-1.8.4-1.9.4-1.4-1.5zm5.4-8c.8-.7 1.4-2 1.4-2.7 0-1.4-.2-1.3-2 .8-2.7 3.2-2.3 4.6.6 1.9zM62 97.6l-.2-5.8-.2-5.6 2.5-2.4a12 12 0 0 0 3.3-5c.9-3.4 3.2-5.7 5.8-5.7 1 0 2.5-.4 3.3-.9a13 13 0 0 1 3.9-1.4c2.2-.4 2.4-.3 2.4 1 0 .7-.4 1.5-1 1.7-.5.2-.8.6-.6 1 .4.6-4.4 8-6 9A14.2 14.2 0 0 0 71 90c-.4 2-2 3-2.5 1.6-.2-.5.8-3.2 2.2-6.1a31 31 0 0 0 2.5-6.5c0-.6.7-1.5 1.5-1.9l1.4-.7-1.5.1c-1.2.2-1.9 1-3.1 4-.9 2.2-2.1 4.4-2.8 5-1.6 1.4-2.4 3-2.9 6.5-.4 2.9-3.1 7-3.7 5.6zm20.4-9.3c-.5-1.3 2.8-4.8 4.4-4.8 2.7 0 1 3.3-2.5 5.1-1.2.6-1.6.6-1.9-.3zm-55.3-1c0-1 2-2.5 3.4-2.5s1.4.8 0 2.1-3.4 1.5-3.4.4zm9-4.8c0-.5.5-2.1 1.1-3.5.6-1.5.9-3.1.6-3.7-.5-1.4 1.2-3.9 3.6-5.1 3-1.5 3.9-.3 1.5 2-1 1-1.8 2.2-1.7 2.9.1.6-.4 2.1-1.1 3.3a9 9 0 0 0-1.3 3.2c0 .6-.5 1.3-1 1.5-1.5.5-1.6.5-1.6-.6zm-27.6-2c-.2-.4-.1-1.1 0-1.5.8-1.2 2.4-.8 2.4.5 0 1.5-1.9 2.4-2.4 1zm3.4-4.3c-1.4-2.1-1.1-4 .7-4.2 1-.2 1.4.2 1.7 1.8.1 1-.1 2.4-.5 3-.7 1-1 .9-2-.6zm5 .4c.2-1.6 2.2-2.7 3-1.8.6.5.5 1-.3 1.8-1.4 1.4-3 1.4-2.8 0zm69.5-1c-.6-.9 1.5-3.1 4-4.2 2.6-1 2.8-1.6.4-1.4-1.4.2-1.8 0-1.8-1s.7-1.6 2.8-2.3c2.8-.8 3-1.6.4-2-1.8-.4-2-2.6-.3-2.6 1.3 0 2.6-2.1 2.6-4.4 0-1-.8-1.1-5.3-1.2-4 0-6-.4-8-1.4-4.1-2.1-6.7-2.3-10.3-.8-4.3 1.9-9.4 1.8-12.6-.1-3.5-2.2-10.9-5-13-5-.9 0-3.2.5-5 1.2-1.7.7-5.7 1.6-8.7 2-7 1-11 2-15.6 4.1a44 44 0 0 1-11.8 3c-1 0-.2-2.9.8-3l4.7-.5c2-.3 3.8-.7 3.8-1.1 0-.5-1.1-.6-3.2-.3-3.5.5-5.3 0-5.3-1.3 0-.9.8-1.1 2.6-1 .8.2.9 0 .1-.4-1.2-.9-.3-2 1.5-2 2.2 0 3.6.6 3.6 1.5 0 1 6.3 1.9 7.7 1 .8-.4.3-.6-1.8-.6-3.3 0-5.6-1-4-1.6.6-.2 6-.5 12.3-.6 7-.2 11.5-.5 12-1s-.5-.7-3.6-.7c-5.1 0-6.3-1-2-1.5a29 29 0 0 1 17 1.9 6 6 0 0 0 4.2.3c1.9-.6 1.8-.6-1-.7-3.1 0-4.6-.9-2.9-1.5.5-.2 10.8 0 22.9.3 19 .6 22 .8 22.8 1.7.7.9 1 1 1.2.2.4-1 4-5.4 5.2-6a8 8 0 0 0 1.8-2.5c.5-1.1 1.6-2.7 2.4-3.7 3.6-4.2 5.5-5.3 8.9-5.3a4 4 0 0 0 2.8-1.3c1.2-1.8 7.5-4.6 10.3-4.6 1.4 0 2.5-.2 2.5-.5s2-2.7 4.6-5.5a50 50 0 0 0 9-10.9c0-1.4 5.4.7 5.5 2.2 0 .5.3 1.3.6 2 .6 1.3-3 6.4-5.8 8.2l-2 1.3 2.6-.1c3.6-.3 3.6 1 0 2.9l-5.4 2.7a7 7 0 0 1-4.4.8c-2.7-.5-6.2 0-5.7.9.7 1.2-.4 3-2.4 3.8-1.9.8-2.1.8-3.5-.9-1.3-1.4-1.8-1.6-2.9-1-1.6.8-1.6 1.9 0 1.9 3 0 .4 2.5-2.7 2.6-.8 0-1.1.2-.7.4 1.1.5 1 1.7-.3 4.6-1.4 2.9-1.7 3.2-4.5 3.7-3 .6-9 4.7-10.6 7.4-2 3.2-1.1 3.1 2-.2 4.1-4.5 6.5-3.7 2.6.8-2.3 2.6-2.3 2.6-.9 3.7 1 .7 1 1-1.1 2.9a35.2 35.2 0 0 1-4.2 3.3c-1.9 1.2-1.9 1.2-.5 1.6 2.1.6.8 2.9-1.7 2.9-1 0-2.2.4-2.7 1-.6.7-.6.9.3.9 2.1 0-.2 2.5-4.8 5.2-5 2.8-5 2.8-5.5 1.9zm17.8-19.4c0-.6-2.2-.3-2.7.4-1.2 1.6-.5 2.3 1 1.2 1-.7 1.7-1.4 1.7-1.6zM95.3 54c.2-1 .2-2 0-2.1a51 51 0 0 0-11.7.3c-.2.2 1.8.3 4.3.3 4.4 0 4.7.1 5.3 1.6.8 2.2 1.7 2 2.1-.1zm-25.8-2 2-.9h-2.7c-1.4 0-4.4-.3-6.6-.5-2.8-.3-4-.2-4 .3 0 .4 1 .8 2.1.8 1.2 0 2.7.3 3.4.6 1.9.8 3.6.7 5.8-.3zm10.9-.8c-.4-.1-1.2-.1-1.6 0-.5.2-.1.4.8.4s1.2-.2.8-.4zm-.2-2.4a91.5 91.5 0 0 0-15.8-.4c1.2.6 16.4 1 15.8.4zm29-6.3a3 3 0 0 0 .9-2 4 4 0 0 1 1-2.5c1-1 1-1.1-.4-.8-.8.2-1.5.7-1.6 1.1 0 .4-.5 1.7-.8 2.9-.7 2.1-.4 2.6 1 1.3zm5-3.1c.3-.4.2-.7-.2-.7-.3 0-.8.3-1 .7-.2.3-.1.6.2.6.4 0 .9-.3 1-.6zm1.4-3.3c1-.4 1-.5-.8-.6-1.2 0-2.1.3-2.1.6 0 .8 1 .8 2.9 0zM137.9 23c0-.5-.3-.8-.6-.6-.4.3-.5.7-.3 1 .5 1 1 .8 1-.4zm11-9.3c0-.4 0-.7-.2-.7s-.5.3-.7.7c-.2.3-.1.6.3.6.3 0 .7-.3.7-.6zM17.2 71.5c-.5-1.4 0-2.3 1.5-2.3.6 0 2-.8 3-1.9 1-1 2.2-2 2.6-2 2 0 1.5 1.7-1 4.3-3 3-5.4 3.7-6.1 1.9zm68.3-.6c0-.6.6-1 1.4-1 1.6 0 1.3 1.5-.3 1.8-.6.1-1-.2-1-.8zm-56.6-1.6c-.5-.7 1.4-2.4 3.3-3 2-.5 2 1.2 0 2.6-1.6 1.1-2.8 1.3-3.3.4zM11 48.7c-.8-.1-1.4-.7-1.4-1.2 0-.7 1.6-1 8.8-1 6.7 0 8.7.3 8.5.9-.2.5-1.6.8-3.8.9-1.9 0-5 .2-7 .4s-4.3.2-5 0zm-1.1-4c-.8-1.3 1-2 4.1-1.5 2.3.3 2.8.2 2.6-.6-.2-.5-1.3-.9-3.2-1-3.3 0-3.7-.8-1.9-3.3l1.4-1.8 9.5.2 12.7.4c2 0 3.3.4 3.5 1 .2.4-.3.7-1.3.7s-2 .5-2.4 1c-1 1.2-2.6 1.3-2.6 0 0-.7-1.7-1-8.8-1.1-4.9-.1-9 0-9.1.2-.2.3 1 .6 2.7.7 3.4.2 4.3 1.2 2 2.2-1.1.6-.4.8 3.7 1 5 .5 6.2.8 5.3 1.7-.8.8-17.7 1-18.2.1zm29.6 0c-3.6 0-5.3-.3-5.1-.8.1-.6 7.3-.7 25.4-.6 21.2 0 25.4.2 26.2 1 .8.8-1.6 1-20 .8-11.6 0-23.5-.2-26.5-.3zm49.5 0c-.5-1 1.4-1.3 6.2-1.3 3.6 0 4.5.2 4.5 1 0 .7-1 .9-5.2.9-2.8 0-5.3-.3-5.5-.6zm-37.3-3.1c-8.8-.2-11-.5-11-1.5 0-.7 29.3-.4 31.3.4 2.5 1 0 1.6-5.9 1.4l-14.4-.3zm37.6-.5c0-.5.2-1 .5-1 3.3-.4 9.8-.4 10.5 0 2 1.2-.2 2-5.5 2-4.4 0-5.5-.2-5.5-1zM25 40.8c-.2-.3 0-.7.4-.8 1.1-.5 2.5.1 2 .8-.4.8-2 .8-2.4 0zm15.5-2.6c-.6-1 3.8-1.2 24.5-1.4 14.3-.2 20.2 0 20.3.5.2.4-1 .9-3.2 1.1-5.3.6-41.2.5-41.6-.2zm52-.4c-1-1-.4-1.6 1.5-1.6 1.3 0 2 .3 1.7.8-.3 1-2.5 1.5-3.2.8zM18 32.6c0-.5.2-1 .5-1 3-.3 76.4 0 77.4.3.7.2 1.1.7 1 1-.3.4-17 .6-39.7.6-33 0-39.2-.1-39.2-.9zm80.7-.3c-.3-.4 0-1 .4-1.3 1.3-.8 9.7-.7 9.7 0 0 1-.9 1.2-5.7 1.6-2.6.2-4.2.1-4.4-.3zm-25.2-5.6s-11.3-.3-25-.4l-25.1-.4c-.1 0-.2-.6-.2-1.4 0-1.4 0-1.4 9.9-.9 5.4.3 25.5.6 44.7.6 19 0 35 .3 35.2.6.3.2.2.8-.3 1.2-.5.6-5.7.8-19.9.8H73.5zM60 16.2c-4.5-.2-7.2-.6-7.4-1.1-.4-1.3 1.7-1.4 15.7-1 10 .3 13.6.7 13.8 1.3.2.6-1 .8-5.1.8-3 0-6.4 0-7.7.2-1.2.1-5.4 0-9.3-.2zm32 0c-.7-.5-.8-.8-.2-1.4.8-.8 2.8-.4 2.8.6s-1.6 1.4-2.6.7zm-55.6-.6c-.8 0-1.4-.6-1.4-1.1 0-1.6 2.7-2.1 8-1.5 5.6.7 6.4 1 6 2.1-.2.7-8.8 1-12.6.5zm38.4-9.2c-1-.3-4.4-.6-7.4-.7-6.8 0-7.8-.3-7.8-1.8 0-1.1.5-1.2 7-.9 20.4 1 20.2.9 20.2 2.2 0 1-.4 1.3-1.8 1.3l-5 .3c-1.8.1-4.1 0-5.2-.4zM152 6c-1-.9-.4-3.3 1-4.7 2.3-2 5.3-1.6 5.6.8 0 1-.1 1.8-.4 1.8-.4 0-1.3.6-2.1 1.3-1.5 1.3-3.3 1.6-4.1.8z"/>
</svg>
