<?xml version="1.0" encoding="utf-8"?>
<svg xmlns="http://www.w3.org/2000/svg" version="1.1" viewBox="0 0 959 731">
	<title>Sketch of a mountain ridge along the top, with a fortress or town surrounded by woods about halfway up. A few trees or bushes line a path to the bottom left.</title>
	<path d="m426 731-13-1c-7 0-12-1-13-2h4l5-2a309 309 0 0 1 47 1l3-1c2-3 2-3 3-1l4 2 1 1v2l-9 1a223 223 0 0 0-32 0zm54 0c-5-1-4-3 1-3l4 2-5 1zm13 0-6-2c0-1 3-4 5-4 3 0 10 4 10 5l-9 1zm-161-5-5-2-2-1c0-2 5-2 9 0 3 2 4 2 9 2a585 585 0 0 1 55 1c0 2-1 2-3 2l-4-1a199 199 0 0 0-51 1c-5 0-7 0-8-2zm-102-1c-8-1-12-3-13-5-2-2-2-2-7-1l-7 2c-1 2-8 0-10-2l-5-1-5-1-8 1c-5 0-7 0-11-2l-7-1c-2 2-10 1-12-1-1-2 1-3 10-4 8-1 9-1 12 1 4 2 13 3 16 2 4-2 14 0 16 3 1 2 2 2 3 1l8-1c5-1 7 0 8 1 2 2 14 5 19 5l6-1c1-1 2-2 3-1v3l-8 2h-8zm241 0a1 1 0 0 1 2 0 1 1 0 0 1-2 0zm-21-1 1-1 2 1-2 1-1-1zm-135 0c-1-1 1-3 3-3 3 0 6 1 5 2 0 1-7 2-8 1zm-84-3c-2-2 2-3 7-2l2 1h-2l-7 1zm104-2 1-1 1-1c-1-2-5-4-7-3l-7 1-8 2h-2v-1c1-1 2-1 1-2l-1-2 11 1 3 1 4-2 7 1 4 3 3 2-4 1-5 1-1-1zm-3 0h1-1c-1 0-1 0 0 0zm-31-2-4-1-4-1h16l2 1c0 2-8 2-10 1zm-20-3c-6 0-7-1-4-2h12c3 3 2 3-8 2zm-55 0c-1-2 0-3 6-3l6 2c1 1-1 1-5 1h-7zm17-1v-1h2c1 2-1 2-2 1zm4 0c-1-1 1-2 5-1 3 1 3 1 1 1l-4 1-2-1zm61 0-7-1c-4 0-6-1-6-2l12 1 3 1c1-1 2 0 2 1s-3 2-4 0zm-26-5c-2-2-2-2 0-2 3 0 4 1 3 3-1 1-1 1-3-1zm-6-9c-1-1-1-2 2-5a199 199 0 0 0 15-17l4-5 1-3 1-9c-1-7 1-11 3-11 1 0 1 6-1 7l1 1v5c2 0 1 8 0 9l-1 5c0 3 0 4-2 4-1-1-3 0-4 1l-2 2c-2 0-14 13-14 15 0 3-2 3-3 1zm37-19 1-4 1-5 4-8c2 0 2 2 0 6l-1 6-2 4c-2 3-2 3-3 1zm2-20c0-1 1-11 3-13l1-4 1-2c2-2 3 1 2 5l-2 8c-1 4-4 7-5 6zm-14-15c-1-2 0-6 1-6l2 3c0 3-2 5-3 3zm12-11-2-3-3-5c-3-5-4-7-2-8 1-1 4 2 5 5l4 6 3 5c0 2-2 2-5 0zm-18-1c-2-3-3-9-2-10l1-2c1-6 14-14 14-9 0 2-2 4-5 5l-1 2-3 3c-1 1-2 2-1 3l2 6c0 3-1 3-2 3l-3-1zm19-29-1-12-2-4c-2 0-5-5-5-7l1-3c1-1 3-3 5-3s6 4 4 5-2 4 0 5c2 2 2 4 0 6-2 1-2 1 0 5 2 3 2 4 1 6s-3 3-3 2zm-3-51-1-3c-2 0-2-4 0-5s1-3-1-3l-3-1c0-1 1-2 4-2 5 0 5 1 3 6l-1 4c0 2 3-2 4-5l2-2c2 0 1 6-1 8l-2 4c-2 3-4 3-4-1zm-30-4v-6l-1-1c-2-1-2-6 0-9l4-2c3 0 4 2 1 3-3 2-3 3 0 3 2 0 3 2 1 3l-1 7c0 5 0 6-2 6l-2-4zm40-8 2-5c2-3 3-4 6-4l5-2 2-1 5-1c1-1 2 0 2 2 0 3-6 5-8 3-1-2-1-2-2 0s-2 2-3 2c-2-1-6 3-6 5l-2 2-1-1zm-12-4-2-3c-2-1-2-2-2-4 1-2 1-2-2-1-3 0-3 0-3-2 1-4 9-3 9 1l2 4c1 2 2 3 1 4-2 3-3 3-3 1zm38-4c-1-3 0-8 5-14l5-8c2-4 10-13 12-13l4-2c3-2 9-2 9 0l-2 1-4 2-5 3c-2-1-3 0-4 3l-4 4-3 4-2 5-2 3-3 2c-1 2-2 3-2 7 0 6-1 8-4 3zm-61-3c-1-3 5-10 10-12 3-1 3-1 4 1 2 2 2 2 0 2s-5 3-7 5c-5 6-6 6-7 4zm42-7c0-2 2-5 4-5s0 4-2 4l-2 1zm-6-4c-3-1-3-2-1-5 2-2 2-3-1-2l-2 3c-1 4-3 4-3 1 0-4 4-9 8-9 3 0 4 2 2 7-2 4-2 4 2 1 1-2 2-3 3-2s0 2-2 4c-3 4-3 4-6 2zm101-5c-2-2-1-3 7-7l7-5 3-5c2-3 3-3 8-2 3 0 5 1 6 3s0 4-3 3c-1-1-1 0-1 2s0 3-2 3c-4 1-5-1-3-5s1-5-1-2l-2 5c-1 3-1 4-3 4l-8 4c-6 4-5 4-8 2zm-13-6c-1-2 1-8 5-12l5-5c2 0 1 3-1 6-2 1-3 3-2 4l-1 3-2 3c-1 2-3 3-4 1zm-113-1 1-3c2-3 3-6 1-5l-4 2c-4 1-5 0-3-4l2-4c0-3-3-2-4 1-1 2-4 4-5 3-2-1-2-2 2-6 3-3 4-4 8-4 5 0 6 1 3 5s-3 4 2 4c3-1 4-1 4 2 0 5-6 12-7 9zm129-2c-2 0-1-1 1-3 5-4 8-9 8-12s6-11 9-11l2 2-5 5-2 4c1 1 0 3-1 4l-2 5c0 2-3 4-4 3 0-2-3 0-3 2-1 2-1 2-3 1zm35 0 1-2 1-1 2-2 2-3 3-1 4-1c3-1 3 0 2 4-1 3-8 7-12 7l-3-1zm-40-6 10-8c3-1 0 5-4 8s-6 3-6 0zm-14 0c-1-2 3-7 6-8s3 0 1 3l-4 5c0 2-2 2-3 0zm-16-6c-2-2-1-4 3-4l5 1c1 2 4 1 6-2 3-3 4-4 9-5 2-1 3-1 3 1s-1 2-3 2l-6 4c-3 4-4 4-9 4l-8-1zm72-3c0-2 6-7 8-7l3 7-6 2c-5 0-5 0-5-2zm-212-5-1-3-1-4c0-3-1-5-6-10l-6-6-3 3c-2 3-3 3-4 1-3-4-2-9 2-12 2-2 4-3 8-3 6 0 10 2 11 5l4 2c2 0 2 1 1 4 0 5 0 5 4 3 3-2 4-1 3 2l-1 3-1 3v2l1-1 1-1 3-2 3-3h8l-2 5c-2 5-5 7-8 5-2-1-7 2-6 4 1 3-2 6-6 6-3 0-3 0-4-3zm7-6 1-1c-1-1-4 0-4 1 0 2 1 2 3 0zm13-5c1-2-1-2-2 0l1 1 1-1zm-12-2-1-2-2 2 1 1 2-1zm-7-9c0-2-3-5-4-5v5l-1 3c1 2 5-1 5-3zm-8-3c0-2 0-2-1 0v3c1 2 1 2 1 0v-3zm-5-2-1-1-2 1 1 1 2-1zm36 30 2-4c3-4 3-6 1-6l-2 3c-1 4-3 4-3 2 0-3 3-8 5-8l4 2c2 3 2 3 1 5-3 6-6 7-8 6zm144-4v-5l3-3v-2l1-3c2 0 3 4 1 8l-2 5c0 2-2 3-3 0zm25-7c-1-2 0-4 4-8 2-3 4-4 5-3 2 0 2 2 0 3l-2 3-5 5h-2zm-23-8c0-3 5-11 7-11s2 2 0 6l-3 4-2 2-2-1zm15-26 2-3 3-5c1-2 2-5 4-6l4-5c1-1 2-2 3-1 3 1 2 1-2 6-2 3-3 5-3 8 0 4 0 4-3 5l-4 1c-1 2-4 1-4 0zm16-22c-1-1 0-2 2-6l5-2c2 1 3 1 6-3 5-6 11-7 15-3 2 2 3 3 3 6 0 4-2 7-3 4l-1-4c0-3-1-4-3-3h-4c-1-1-2 0-5 4-4 3-5 4-8 4l-4 2c0 1-1 2-3 1zm31-19 2-1 1 1-2 1-1-1zm1-2c-1-1 0-7 1-7 2 0 3 2 2 5 0 2-2 3-3 2zm2-12 2-3c3-3 5-2 4 1-1 2-5 4-6 2zm8-7 2-3 2-2v2c0 3-3 5-4 3zm3-8 4-2c2 0 4-1 5-3 1-3 4-4 4-1l-3 4c-3 3-4 3-7 3l-3-1zm24-7c-1-1 0-3 2-3l2 2c-1 1-3 2-4 1zm-8-2 2-2c4 0 3 3 0 3l-2-1zm32-24v-6c2-3 6-4 6-1l-1 1-1 5-2 5c-1 0-2-1-2-4zm-129-2c-4 0-5-2-2-7 2-3 2-3 0-5s-4-2-5 0l-3 1c-2 0-3-1-2-2 0-2-1-1-3 1-1 2-4 3-6 4l-5 2c-1 1-2 0-2-4l-2-1v2c4 2-4 6-13 5l-6-1 1-1c1-1 2-2 4-1 3 0 4 0 5-2l3-2 3-1 2-1 4-3c3-3 6-3 6-1l-2 1c-2 0-2 2 0 4 2 1 2 1 3-1l3-3 5-2 3-2 5-3 4-3 2-2c1-2 2-2 5-1l5-1h7c1 2 1 2 1 0-2-3 1-5 6-5h4l-1 2 1-1 1-2c-1-2 3-4 8-5h4l1-1 4-3c3 0 8 4 7 5l-3-1c-1-1-1-1-1 1v1c-1-1-3 0-4 2l-4 3-1 2-1 1c-2-2-3-2-2 1 0 1 0 2-2 1l-1 1h-1c-2-1-2-1 0 1 1 1 2 1 4-1l3-2 4-2 3-2c2 2 3 2 3 0-1-2 0-3 3-4 3-2 3-2 1-4-2-3-1-9 3-13 2-3 2-4 5-3l3-1 4-1 8-4c5-3 7-3 9 1 1 3 0 4-1 3-2-2-7-2-7 0 1 1 0 1-1 1-3-1-3 0 0 1l2 1-2 1-2 1-2 1c-1-1-2 0-3 2l-4 4c-2 2-3 2-4 1-2-3-1-1 0 2 2 3 2 4-1 4-2 0-13 12-13 13 1 1-1 1-3 2l-4 1 3 1c3 1 3 1 8-6l8-5-4 4-1 2-1 2-5 5c-2 3-4 4-5 4l-2 1c0 1-7 6-8 5h-2l-4 3-2 4c1 3 0 3-3 0-2-3-2-3-2-1-1 2-2 2-4 2l-2 1-2 1-1-1-2 1c-3 2-7 3-12 2zm8-3 2-3c-1-1-2 0-4 2-3 3-2 3 2 1zm-5-4-2-1c-2 0-1 1 0 2 2 1 3 1 2-1zm5-4-1-1 3 1h2l3 1h4c1-1 0-2-1-4-2-2-3-2-5-1l-4 1-2 1c-1 1 0 5 1 4v-2zm7-2v-1 2-1zm10-2v-5l-1-2c-2-1-2-3 0-2l2-1 3-1c3 0 4-1 1-3-1-1-1-1-3 1l-3 1c-2 0-4 4-3 6 1 1 0 1-1 1l-2-2v-2l-1-2c1-1 0-1-1-1-2 1-4 3-3 4l2-1h1l-1 2c-2 3-2 4 1 4l3-1h1c2 2 2 2 1 3-2 1-2 3 0 3l2 2 1-1 1-3zm-20 0 4-2c2 1 2-2 1-3s-6 2-6 4h-1c-1-3-4-1-4 2 0 2 4 1 6-1zm-14 0-1-1-1 1 1 1 1-1zm42-2c0-3 0-3-2-3l-2-2c0-2-2-3-3-2l1 3 1 1 2 2c2 4 3 4 3 1zm6-1c0-1 0-2 1-1 2 1 2-1 0-3-1-2-1-1-2 1v3c2 2 2 2 1 0zm-37-3c0-2-2-3-4-1v2c1 1 4 1 4-1zm7-4c0-4-1-4-4-1l-2 3h3c3 0 3 0 3-2zm34 0-2-1v1c1 2 2 2 2 0zm-22-4v2-2zm6-2c1 0 1-1-1-1l-3 1c0 2 2 2 4 0zm7-1 1-1-4 1c0 2 0 2 1 0h2zm2-3c-1-1-1-1-1 1l2 1-1-2zm2-2v-1l-1 1v1l1-1zm7-1v-1l-1 1h-1c0 2 2 1 2 0zm15-5v-1l-1 1v1l1-1zm5 0a1 1 0 0 0-2 0 1 1 0 0 0 2 0zm-3-3v-4c3-4 2-4-1-1s-4 4-2 4l2 1v1l1-1zm10-10-2-1-2 1 2 1 2-1zm-91 51 3-2c4-2 6-1 5 2 0 1-8 2-8 0zm73-2c-1-2 1-3 4-4l7-3 4-2c1 4-14 12-15 9zm-169-1c-3-1-1-3 3-3l6-1c3-2 5-1 5 1 0 1-8 4-11 4l-3-1zm185-1 1-2h2l7-6 4-3 4-4 5-3c4-4 5-4 8-2 1 2 2 2 3 2h2l1 1h1l3 3 4 3c0 2-4 5-5 4l-2 1-3 1-4 3-4 2c-2 0-1-2 1-4 3-3 2-6-2-6-2 0-3 0-2 1l-1 3-1-1c1-2-2-3-4-1l-3 1-3 2-11 6-1-1zm37-9v-2l-1-2c0-3-2-1-2 2 0 4 0 4 3 2zm-5-4c-1-1-1 0-1 1v1l1-2zm-3-2v-1l-1 1v1l1-1zm48 14c-1-2-1-4 1-4 1 0 2 1 2 3 0 4 0 4-3 1zm6-2c0-2 0-3 5-3s7-1 6-4c0-2 1-2 3 0l1-1c0-3 0-3 3-5l5-6 3-4 1-2c-1-3 1-4 2-1v4c1 2 0 3-3 6l-4 5c0 3-6 9-10 11-6 3-11 3-12 0zm-41 0c0-2 8-7 11-7l2-1 2-1 2 1-4 4-5 2c-4 3-8 4-8 2zm24-2 2-4-4-4c-3-3-5-5-6-4l-4-2c-2-2-2-2-3-1-2 2-7 2-8 0l4-2c4-2 5-2 8 0l4 1 4 3 6 5c2 0 2 1 1 2s0 2 3 2c2 0 3 1 3 2l-3 1-4 2-3 2h-2l2-3zm-335-1 1-1 8-7c6-6 12-10 16-10 1 0 2-1 1-3 0-2 0-2 1 0 1 1 3 2 6 1 2 0 2 0 0-1l-3-1c-1 0-3-4-2-5s2 0 3 1l2 2 2 2 4 1 3-1-2-1-5-2c-2-1-2-1-1-3 2-2 1-6-1-5l-1 2v2l-1-1-2-3c-1-1-1-2 1-3h5c2 0 3 0 1-1l-4-3c-2-1-3 0-4 1-3 3-6 5-8 3-2-1-2-1 0-1l2-1 3-2c3-1 4-4 1-4-5 0-15 5-17 7-3 3-5 4-5 3l2-4c2-1 2-3 2-4l1-1 7-1c5-2 14-1 16 1l4 1h2l2 1c1-1 2 0 2 1 1 2 3 3 7 3 4 1 5 0 3-2-1-2-2-3-6-2l-4-1c0-1 1-2 2-1l7-1c3-1 3 0 3 1l2 6a117 117 0 0 1 2 9v2l1 2c1 1 1 0 1-1l3-2 2-3h-2c-3 2-3 2-3 0 0-3 3-7 5-7l3-1c2-1 1-2-2-1-5 0-5-1-2-3 2-1 2-2 1-3-2-3-3-3-5 0l-1 3v-3l1-3 8-7c3-3 3-5 2-5l1-3c2-4 5-5 9-4 1 0 3 0 4-2 2-3 7-3 9-1l4 2 5 1c1 1 2 1 3-1l2-1 2-2c2-2 3-2 7-1l8 1c1 0 2 1 1 3-1 3 1 3 4 0 2-2 3-3 2-4-2-1 3-3 6-2 4 1 5 5 2 7v3c3 4 3 6 0 9l-2 3-2-2c-3-3-3-3 0-3l3-2h-3l-2-1c0-1 0-2 2-1 2 0 2 0 1-2-1-4-2-4-5-1l-5 2c-2-1-2 0 0 2h3c2-1 3 0 2 3 0 2-1 2-2 1-2-2-3-1-1 2l-1 3-2-1-2-1c-2 0-2-3-1-5s2-2 2 0h2v-2c-2-1-3-1-6 1-2 2-2 3-1 4 1 2 0 3-4 3l-3 1c-1 1-5 0-5-2l2-2c2-1 2-1 0-2l-1-2-1-2-1 1-2 1c-2 0-4-2-4-4h-3l-2 1 2 1c2 0 3 1 3 2l2 3c2 3 2 5 0 6s-2 1-2-2c1-3-1-4-3-2l-2 1h-3c-1 0-1 1 1 2h6c1 2 0 5-1 4-2-1-5 0-5 1h15c2 1 2 3 0 2l-4 2c-2 2-3 2-6 2h-1l4 4c-2 0-2 3-1 6h1l1-2 1-3c0-5 2-7 6-6h3c-2-1-2-3 0-3l2 2 2-1c1-3 5-4 4-2l2 1h1c-1 1-2 1 0 3 1 1 1 1 2-1s1-2 2-1l1 1-1-3-2-2c3-2 6-4 7-3s1 3-1 2c-1 0-2 1-2 3s1 1 5-2a45 45 0 0 1 10-8c3-2 10-4 11-3s0 2-1 4l-2 2h2l3-3c1-3 4-3 4 0l1 2 1-2c0-2 1-2 3 0s4 1 4-1l1-2 4-2c2-1 3-2 4-1h12l-3 2-1 1h-2l-7 1 3 1c4-1 3 1-1 4-3 2-5 7-4 11l-1 2-1 3 1 3v-2l1-1s2 0 3-2l3-2c2 0 5 4 5 6s2 5 4 3h2c1 1 2 1 3-1s0-4-1-2l-3 1c-1-1-1-1 1-3l2-3 3-2c1-1 2-2 1-4l1-3 3 6c0 2 0 3-2 3l-1 1a454 454 0 0 1 7 1l3-2c4-2 5-2 3 0l-3 2-4 5h2c-1 3-4 3-5 0-1-2-1-2-3 0-2 1-2 1 0 1s2 1 1 2c-2 2-4 2-3 0v-1l-1 1 4 5v-4h4l1 1 2-1 1-1 1 2-1 1-1 2c1 1 0 1-1 1l-2 2c-1 2-2 2-3 2l-2-2-1-2-1 2v4c0 2-1 2-2 1l-2-1-2-1c-1-1-1-1-2 1-1 1-5 2-5 0l-3-3-2-2c1 2-4 5-7 4l-2 1-3-1c-1-2-1-2-3 0l-2 1-4 1c-2 2-4 2-5 1s1-4 3-3 3-3 1-4c-2 0-2 0-3 2-3 4-7 9-9 9l-2 1c0 2-2 2-4 0-1-2-1-2-5 0l-5 1-1 2c0 2-6 8-8 8l-1-2c1-2 0-3-1-3l-3-1c-2-2-3-2-8 2-5 3-8 4-8 3 0-2 7-9 8-9h2c0-2-3-4-3-3l-4 2-4 1 2-3c2-1 2-2 1-3h-4l1-3c2-2 2-2-1-2l-3-1 2-1 4-2c2-3 2-3 0-3-1-1-5 2-5 4s-2 2-3 0l-1-1-10 9c-2 2-4 2-7 2l-8 2-6 2-4 3c-2 3-3 3-5 3-1-1-1-1 1-3 3-4 0-4-3-1-4 3-5 2-6-3v-4l-2 2c-3 2-7 3-7 1l1-2-1-3h-5l-5 3-3 3-13 8c-4 3-9 5-9 2zm51-11v-2h-2c-1 2-1 3 2 2zm12-1 3-1 5-2h3l5-3 10-8 1-1c0-1-3-1-5 1-1 1-2 1-4-1-3-3-3-3-7-1s-6 7-4 9c1 2 0 2-3 0l-1-1c1 1 0 1-2 1-3-1-5 0-6 4l1 3h4zm9-12c0-1 0-2 2-2s3 1 2 3-4 2-4-1zm42 9c1-1 0-2-2-1h-3v1c1 2 4 2 5 0zm23 0-2-1-1 1 2 1 1-1zm-11-2c0-2-2-3-3-1-3 2-3 3 0 3l3-2zm-81 1c0-2-7-4-8-3l1 2 7 1zm76-3v-1l-1 1v1l1-1zm-3-2c-2-1 0-5 1-5 3 0 4-3 3-5-2-1-2-1-5 2s-3 4-1 4l-1 1-2 3 3 1 2-1zm76-2-2-1 1 2 2 1-1-2zm-64-3-1-1-2 1c-2 0-2 3 0 4 3 0 5-2 3-4zm-65 2h-2l1 1 1-1zm77-3c-1-3-2-2-1 1 0 2 0 2-2 0v1c1 2 1 2 3 1v-3zm48 1c1 0 1 0 0 0-1-1-3 1-2 3l1-1 1-2zm-78-1-2-1c-2 0-3 1-2 3l4-2zm24 0c3-3 3-4 1-5s-5 1-3 3v2l-1 2 3-2zm-1-3 1-1 1 1c0 2-1 2-2 0zm30 1-5 3 3-1 2-2zm-69-1h-2c-2 1-3-1-1-2v-1h-1l-2 1c-2-1-2 0 1 3s3 3 4 2l1-3zm63 1 2-4-4 1c-3 0-3 0-2 2v2l-1 1c0 2 2 1 5-2zm12 2h1c1 1 4-1 3-2l1-2a844 844 0 0 1-4 2c-2-2-2-2-3-1-2 3-1 4 0 4l2-1zm-118-2-2-1-1 1 1 1 2-1zm132 0-1-1-1 1 1 1 1-1zm-75-1-3-1-2 1 3 1 2-1zm40-1c3-3 4-5 2-4l-1-1-3-1-3-1c0-1 1-2 3-2l3-2c1-2 2-2 3-1s0 1-1 2c-3 1-3 2 0 4 2 1 2 1 2-1 0-3 1-4 2-2l4 2c2 0 3 0 2 2 0 2 2 3 4 2h2c2 2 2 2 2 0v-4l1-2v-4c1-3 0-8-1-6l-1 3c0 1 0 1 0 0l-3 1-4 1-3 2c-1 2-1 2-2 0l-2-1h-1l-1-3h-3l-1 3c1 0 1 0 0 0l-2-1c-1-1-1-1-1 1l-1 1-1-1-3 2c-3 2-3 3-1 3l4 3 1 3c-2-1-2 0 0 2 1 3 1 3 4 0zm-21 0c1-2 0-3-2-3s-2 1-2 2c0 3 3 3 4 1zm-78-4c0-2-3-1-4 1 0 2 0 2 2 1l2-2zm22 2-1-1-1 1 1 1c1 0 2 0 1-1zm69 0-2-2c-1-2-3 0-2 2s4 2 4 0zm-55-1 1-1c0-1-3-1-4 1-2 2-2 2 0 1l3-1zm28 0c-1-2-4-3-5-2l-1-1-2-1c-2 0-2 2 0 3l4 1h2l2 1v-1zm-16-2-3 1h2l1-1zm23 0-2-1 1 2c3 2 3 2 1-1zm14-5c2-3 0-2-3 1l-1 2 1 3 1-2 2-4zm-51 3c0-1-3-3-4-2s0 3 2 3l2-1zm7 0-1-1-2 1 2 1 1-1zm26 0c0-2-2-3-3-1s-1 2 1 2l2-1zm8-1v2-2zm-49 0c3-1 3-3 0-3s-5 2-4 3c1 2 1 2 4 0zm46 0-1-1h-1l1 1h1zm-34-8 2-2v-1h-3c-2 0-2 1-2 4v4c1 1 4-3 3-5zm-16 1s-4-4-5-3v3c1 1 1 2 3 2l2-2zm7-1c0-2 1-3 2-3l3-3 6-3 3-1 3-1c2 0 2 0 0-1-1-1-4-1-8 1-2 1-2-3 1-5 2-1 2-2 1-3-1-3-3-3-5-1l-4 2-1 1-3 1c-1 0-2 0-2 2l-2 3c-3 2-2 3 1 3 2 0 3 1 2 3l-1 3c-2 1-1 3 0 3l1 1 1 1c1 0 2-1 2-3zm80 1-2-2c-2-1-2-1 0 1l2 1zm0-5v2-2zm9 1v-1l-1 1v1l1-1zm-19-4-2-1-1 2-2 1h-1c0 2 2 2 4 0l2-2zm-24-1c-1-1-1-1-1 1l2 1-1-2zm-10-5-2-1-1 1 1 1 2-1zm8-4v-1l-3-1c-2 2-2 4 0 3l3-1zm55 62a1 1 0 0 1 2 0 1 1 0 0 1-2 0zm88-1v-3l-1-3c-2 0-1-3 3-8l4-8 3-5v-5c1-1 1-1 3 1 1 2 2 2 3 1 3-2 3-2 5 0 1 1 2 2 1 4l-1 2c0-2-5-2-8 0-3 1-3 3-1 3l2 2c0 2-1 3-3 3-3 0-3 1-3 3v2c-2 2-3 2-3 0s0-2-2 0v4c2 2 1 7-1 7h-1zm-353-4c-1-2 0-4 3-5 5-1 6-1 5 1s-7 5-8 4zm396-3-1-2c0-2 2-1 2 1 1 1 0 2-1 1zm-330-3v-3c0-2 0-2-2 0 0 2-1 2-2 1h-5l-4-1-4 1c1 1 0 2-5 2s-5-1-5-2l3-3c3-1 3-2 0-3-2-1-5 0-9 2l-8 3-8 2-5 1c-2-2 3-4 11-6l12-4c3-3 6-3 9-1 1 2 2 2 5-1l4-5c0-2 5-4 5-2l3 1 4-1-2 4c-2 3-2 3 0 6l2 3v-1c-1-1 0-2 2-4l5-3c1 0 1 3-1 7 0 2 0 2 1 0l2-2 4-2c4-3 6-3 6 0s-3 6-5 6c-1 0-3 1-3 3-2 2-2 2-4 0s-2-2-3 1c0 2-3 3-3 1zm-7-9-1-1-1 1 1 1 1-1zm-1-6-1-2-1 2 1 2 1-2zm329 12c-1-1 6-8 8-7l3-1 1-1h4c1 2-2 4-4 3-1-1-1 0-2 1l-2 1-3 2c-1 2-4 4-5 2zm65 1c-2-2-1-4 1-5 2 0 3-1 3-2l1-6c2-3 6-7 6-5l2-2 4-3 2-1 3-1c3 0 4 0 4-2l2-2 2-1h2l1-1c1-3-5-2-8 1l-4 4-1-3 2-4c2-1 1-3-2-3l-3-1 3-1c6 0 7 2 3 5l-2 2c9-3 9-4 6-6l-2-4c0-2 0-3-1-1 0 3-3 3-5 1-1-1-1 0-3 1-2 3-3 7-1 6h1c1 1-1 2-3 2s-3 2-3 3h-2c-2 0-3 0-4 2-3 3-4 3-3 0 0-2-3-3-4-2v3c2 1 2 1 0 3s-3 2-3-1l-1-2-1 1-1 1-3 2c-1 2-1 2-3 0l-3-1 2 2c1 1 2 2 1 3l1 1 1-2c1-2 4-3 6-2l5 1c3-1 4 0 4 1 0 2 2 2 4 0l2-1c1 1-4 3-7 3-5-1-8-1-10 1-3 2-2 3 3 3 3 0 4 1 4 2l-4 1c-3 0-3 1-3 3s0 2-1 0l-1-4c1-3-2-4-6-2l-3 2-2 1-2 1-2 1-3 1-7 2h-6l3-2 2-3 1-1c3 1 5 0 5-1-1-2 0-2 2 0 2 1 2 1 2-2-1-4-1-4 3-4l3-1c0-1-1-2-3-2h-7l-4 1-2 1c-2 0-2 0-1-1v-3h-1l-2 1c0-1-2 0-3 2l-5 2 6-6c4-1 1-6-3-5l-3 2c-1 2-1 2 1 2 2-1 2-1 0 1-1 2-2 2-3 1-2-2-2-2-2 0 0 1 0 2-1 0-1-1-1-1-3 1-1 1-1 1 1 1 4 0 4 2 0 3-5 2-6 2-7 1s-1 0-1 1c0 3-7 8-10 8l-4 1-4 1c-1-1-1-1 1-3l4-2h2v-3c1-1 0-3-1-3-2-2-1-3 1-2h9l1-2-2-3 1-2 2 1h3c2 0 3-1 3-2h2l4-3c1-2 3-3 5-3s3 0 3-2c0-1 0-2 1-1l4-1c1 0 2 0 1 1l-2 2c-4 0-3 2 0 3 3 0 3 1 2 3 0 3 0 3 3 0l4-3h2l6-2c13-1 17-2 16-3l2-3v-2l-4-2c-3-3-10-4-11-2l-3 1-5 1h-3c-1 0-1-1 2-2l3-2h4c2 0 2 0 0-1l-11 1-5 2-4 2c-2 4-6 8-7 7h-2l-3 2h-1c0-2-3-2-4-1l-2 1c-2 0-4 4-2 6 1 1 0 1-2 1-4 0-4 0-3-6 1-2 2-4 4-4h5c0-2 3-2 5-1 0 1 1 1 2-1l4-2c2 0 3-1 4-3 0-2 1-3 2-2l2-1 3-2 2-1 2-1c3 1 6 1 6-1l-3-1h-2c0-2 2-4 5-4 4 0 4-1 5-4l3-3c2-1 1-4-1-4l-2-1 2-1 3-1c0-2-2-3-9-1h-7c-2-2-1-3 9-3s13 1 11 3c-1 1 0 2 1 3 2 1 2 2 1 2h-2l-2 2-2 2c-1-1-2 1-1 3l-2 3-1 2a477 477 0 0 0 3 3c0 1 1 2 5 2s9 4 9 7l1 3 1 2v2c1 1 2 1 2-1l2-2 2 1c-1 1 0 2 1 3l2 2 2-1 2-3h-2c-2 2-4 2-4-1 0-2 1-3 6-4 5-3 9-3 9-2s1 1 3-1c2-1 3-2 5-1l2 2c0 2-3 3-3 3-1-1-1 0-1 1 0 2 2 2 4 0l12-4 2-2c0-2-5-3-6-2h-1l-1-1v-2l-1-3-1-4v-2l-4 4c-3 4-5 4-8 2-2-1-2-2-2-4 1-3 1-4-1-4-1 0-3 3-3 6 0 4-2 2-2-2-1-5 0-5 4-6 5-2 6-1 6 4v5l3-4 4-6c0-3 2-4 6-4l2-1h6l-2 2c-1 1 0 1 5 1 8 0 13 1 13 3 0 1-6 2-7 1s-3 0-3 3c0 4-2 4-3 0 0-3-1-4-3-4-4 0-6 3-6 8l3 5h1c0-2 9-2 10 0 2 1 2 1 1 3-1 1-1 1 1 2 1 0 1 1-1 3l-1 2 6-1 5 1c0 1-2 2-6 2h-5l-2 2-5 4-3 1c0-2 0-2-3 0-2 2-2 3-3 1h-1c0 1 1 3 3 3 3 2 6 2 6 0l1-1c3 0 2 3 0 5-3 2-6 2-8 0-1-1-2-2-3-1l-2-1c0-1-4-1-5 1h1l1 1c1 2 1 2-1 2s-5 1-7 3l-11 5-1 1-1 3-1 4-2 2h-1l-5 4zm-69-15c-1-1-3 1-3 4 0 2 0 2 2 0 1-2 2-3 1-4zm40-10c1-2 3-3 4-2v-1l2-1-1-1-3 1-1 1c-2 0-5 3-5 5l4-2zm12 0 1-1c0-2 1-2 4-2v-1l1-1c3 0 2-1 0-2l-2 1-2 1-5 3-2 3 5-1zm-16-2-2 1c0 1 0 2 1 1l1-2zm30-5c-1-1-5 2-4 4l2-2 2-2zm8-1-1-1c-2 0-3 4-2 5l3-4zm36-3c-1-1-1 0-1 1l1 1v-2zm-7-2-2 1 1 1c1-1 2-1 1-2zm7-3h-2c-1 0-1 1 1 1l2 1c1-1 0-1-1-2zm7 0v-1l-2-1-1 1v1h1c0 2 2 2 2 0zm-11-21c3-1 2-4-1-4l-2 2c0 2 1 3 3 2zm-310 59c0-2 0-2 1 0v2l-1-2zm352-2-4-1-3-1c-1-3 1-4 3-2 3 2 5 0 3-2l-2-2c0-2 6-3 8-1l3-1 9 1c2 2-3 3-7 2h-5l-2 1h-1v1c1 0 2 3 1 5s-3 2-3 0zm-126-4 2-3 3-4c1-2 1-2 7-2l7 2c0 2-1 2-4 2s-4 0-6 2l-2 2h-3c-3 3-4 3-4 1zm-103-3 1-1 1 1-1 1-1-1zm-217-1c-1-1 0-1 7-3l5-2 3-1c3-1 3-1-1 1l-4 3-3 1-3 1c-1 2-3 2-4 0zm212 0a1 1 0 0 1 2 0 1 1 0 0 1-2 0zm253 0a2 2 0 0 1 3 0 2 2 0 0 1-3 0zm-440-1 2-1 1 1-2 1-1-1zm288 1h3-3zm-86-3-3-3c-1-2-3-2-3-1l1 1h1l-2 2-2-1c1-2-2-2-3 0l-5 1c0-2 5-6 6-6l4-3c2-2 3-3 2-4 0-1 0-2 1-1h2l12-1c0 2-3 3-6 3-4-1-4-1-5 3l-2 3-1 1h2l2 1 2-1c1-2 2-2 4-1l4 2c2 0 2 0 1-1v-2l1-1-1-1c-2 1-1-1 2-4s4-3 1 0v4c2 2 2 2 3 0 1-1 0-1-1-1-2 1-2-1 0-3s2-3 0-3l-5-3-3-1-9 2 11-6 1-1 1 1v1c2 0 8-4 8-5 0-2 3-2 3 0s0 2 1 0c1-1 2-1 2 3 1 2 0 4-3 8l-4 6a1626 1626 0 0 0-1 5h-4v1l-1 2-3 2c-1 3-5 3-5 0 1-2-1-2-4 0v2l1 2-3-2zm1-4-1-1-1 2 1 1 1-2zm17-19-1-1h-1l1 1h1zm8-2-2-2c-1 0-2 2-1 3s3 0 3-1zm182 27c-1-1 2-7 3-7l6-4c4-4 4-5 1-4-2 0-2 1-3 2l-1 2c-1-1-4 0-6 1-5 3-8 2-6 0l7-5 7-5c2-4 4-6 6-6l3-2 3-2 2-1v-2h-2l-1-1c-1 0-2 1-1 2 0 2 0 2-2 2l-1-2c0-1-1-2-3-2-4 0-6-1-5-2l10-2c8 0 10 0 11 2h3c0-2 6-4 9-3 1 0 2 0 5-3l4-4c4 0 5-1 5-4 0-4-2-5-4-3h-2l2-3 5-3h1c0-2 4-4 5-3 1 0 0 2-2 3l-2 2h9v4l-2 5-2 5-3 4-1 2c0 2 4 0 5-3l3-7c3-3 3-4 2-6l-1-3c0-2 0-2 2 0l3 4c0 2 1 2 2 2v-4c0-1 0-2-2-2-1 0-2 0-2-2s4-8 6-8l1-4 3-4 4-2h3c1 1 1 1-1 2-1 1-2 1-1 2 1 2 1 2 2 1 2-3 8-2 10 1 2 2 3 2 6 1l6-1 4-1 7-1c6 0 7-1 10-5 3-5 6-3 4 2-2 3-2 3 0 3s2 0 2-2c-2-5 6-9 9-5l5 3c6 3 6 6 1 6-3 1-3 1-1 2l2 2c-1 1 0 2 1 2h1c0-2 4-9 6-8l1 4c0 4 0 5-4 9l-6 4s-2 0-1-1v-3c-1-2-1-2-2 0-2 3-3 3-4 1v2l1 3 4 1 2-1 2-1 2-1c2-2 4-2 4 0 1 1-1 3-3 6l-5 5-2 2-2 3-2 2c0-1-7 2-10 5l-5 4-3 3c0 2-3 1-5 0v-3l1-3-6 4c-8 6-12 8-12 6-1-1 1-4 2-4l5-3c3-3 3-3 1-2l-5 3-3 1-2 1c-2 3-4 3-4 1 0-1-2-1-4 1-1 1-1 2-2 1 0-2-1-1-4 0l-6 5c-2 2-5 1-4-1 0-2 0-2-1-1-3 2-7 1-6-1 0-1 0-2-1-1-1 2-5 3-8 3s-4-1-1-3v-2l-1 1-4 3c-3 1-4 2-3 3v2c-1 2-6-3-5-4l-1-2-1 1s-1 2-3 2-4 3-5 4c-3 2-5 2-6 0s-2-2-5 0l-4 2-5 3-2-2c0-2-1-1-5 2-2 3-4 4-5 4l-2 2c-1 2-4 3-5 2zm21-13-1-1h-2l2 1h1zm16-3 1-2-3 1c-3 3-1 3 2 1zm-7-5c0-1-1-1-3 1l-3 4 3-1 3-4zm-10 1c1-1 1-2-1-1l-2 1c0 2 3 2 3 0zm14-1c0-2-2-2-3 0l1 1 2-1zm20-1c3-2 0-2-3 0-2 1-2 1 0 1l3-1zm-26-3h-2c-1 0-1 0 0 0h2zm13-2 1-2c0-3-2-3-3 0v4l2-2zm20-2h-1l-2 3 2-1 1-2zm42 1 5-3 8-5c4-5 2-6-2-1l-6 4c-2 0-3 1-5 3l-1 3 1-1zm-74-2v-2l-2 2v1l2-1zm49-1c1-2 1-2-1-2v4l1-2zm-41-2-1-1-1 1 1 1 1-1zm15-2 2-3-1 1h-5l-1 2c0 2 3 2 5 0zm74-3 2-1c1 0 2 1 1 2l2-1 6-3c6 0 12-5 7-6v1c1 1 1 1-1 2h-4l-2-2 2-1v-1c-2-2-5 0-5 2l-1 3c-1 2-1 1-3-1s-2-2-2 2l-2 2c-2 2-3 6-1 5l1-3zm-53-1 2-1 1-2-1-3-1-1-1 3-1 3-2 2c0 2 1 2 3-1zm-23-2v-1c-2 0-2 2-1 2l1-1zm58 0 3-2c2-1 3-3 2-3 0-1-1-1-4 1-3 3-4 5-2 5l1-1zm-16-1c0-1 0-2-1-1l1 1c1 2 1 2 0 0zm-7-1v-4c-2 0-4 4-3 5s1 0 3-1zm11-1a1 1 0 0 0-2 0 1 1 0 0 0 2 0zm23 0-1-1-2 1 2 1 1-1zm-60-4c2-2 3-6 1-6-1 0-3 3-3 5-1 3 0 3 2 1zm44-1-1-1-2 1 2 1 1-1zm14-1c0-2 0-2-1-1l-1 2 2-1zm16-2v-2l-1 2 1 2v-2zm-34 0a2 2 0 0 0-3 0 2 2 0 0 0 3 0zm-11 0c1-1 2-2 1-3 0-2-2-2-2-1l-1 1c-2 0-2 0-1 1 1 3 1 3 3 2zm50-2v-3l2-2-3 1c-2 2-2 3-1 4l3 2-1-2zm-49-6c-1-1-1 0-1 1l1 1v-2zm46-1c3-2 3-3 2-3-2 0-6 4-6 5 0 2 1 2 4-2zm-60 1v-2l-1 2v1l1-1zm24-1-1-3-1 3c0 3 2 3 2 0zm13 2h-2 2zm33-6v-2l-2 2c-1 2-1 2 1 2l1-2zm-30 0 1-2c0-2 0-2-2 0l-5 1v1h6zm8 0-1-1v1l1 1v-1zm-40-3-1-1-1 2 1 1 1-2zm10 1v-2c-1-1-4 1-3 2 1 2 2 2 3 0zm30-3h-3c-1 1 0 1 2 1s2 0 1-1zm-87 66-3-4c0-1 3-1 5 1l3 3c2 0 1 3-1 3l-4-3zm-472 0h1l1 1h-1l-1-1zm-26-1-1-3c-1-2 0-2 1-1l3-1 3-1c2 0 5-1 7-3l6-3 2-1 3-1c1 0 2 0 2-2 1-3 9-5 11-2 1 1 2 0 3-2 2-1 3-2 5-1l6 1c4 1 8 0 9-3 1-2 2-3 4-3l4 1c1 1 5 1 5-1l4-5c5-5 8-6 12-3 2 2 2 2 1 4-2 4-4 6-6 5v-2l2-3c0-3-2-2-3 1l-5 3-4 3-2 3c-2 2-6 2-6 0s-2-2-5 1-7 3-12 2l-7 1c-3 2-4 2-6 0-3-2-6 0-6 4 1 2 0 2-1 2l-3 1 1 1 1 2-2 1-2 2c-2 2-7 3-9 1s-3-2-6-1l-5 3c-2 2-4 2-4 0zm319-1-6-1c-8 0-7-1 2-2l5-1 2-1c1 1 1 0 1-1-1-1 0-1 1-1 2 0 4 5 3 5l-1-1-1-1-1 2-1 1-2 1h-2zm81-2c-1-1 0-6 1-6l1 2h1l3-2 2-1v-1h5c1 1-1 4-3 4-4 0-5 0-5 3 0 1 0 2-1 0h-2l-2 1zm-124-2-1-2 2 1c1 3 1 3-1 1zm-246-1a1 1 0 0 1 2-1 1 1 0 0 1-2 1zm189 0 1-1c2-1 2-1 0-2l-1-2c0-1 0-2 1-1s1-2 3-5c2-6 2-6 0-5l-3 2c-1 2-1 2-1 0l2-3 2-3 6-4c1 0 2-1 2-3 1-3 3-5 6-4l8 1c5-1 6 0 7 1 1 3-1 4-2 2-2-1-4-1-4 1v2c-2 1 0 3 2 3l2 1c0 2-2 4-4 3l-4 1c-1 2-4 1-4-1l2-2 2-2h-1l-3-2c-2-3-3-3-3 0l3 1c2 0 0 3-2 3l-4 1-4 1c-1 0-2 1 0 3 0 1 1 1 3-1 3-2 3-2 4-1 1 3 0 5-2 5l-3 1-2 1c-2 0-2 1-2 3 1 3 0 3-3 5-2 1-3 2-4 1zm225-2c-3-4-2-7 2-4 3 1 9 1 9-1l2-1 4-3c3-2 6-4 6-2 0 1-8 8-13 10-4 3-8 3-10 1zm-209-2 1-4c1 0 2 1 2 3 0 3-2 4-3 1zm42 1 11-12 4-5c2-4 4-6 8-6l4-2 3-1 2-1 2-1 1 1v-2c-1-1-1-2-4 0h-4c-1-2-2-3 0-2 1 1 5-2 5-4 0-1-1-2-2-1l-3-1h-1l-1 1c1 1 0 1-1 1-2-1-2 0-2 1 0 2 1 2 2 2s1 1-1 1c-3 2-4 1-4-2 0-6 3-9 8-9 4 0 5 1 6 2l1 1c2 0 2 2 1 3v4c0 2 0 2 1 0l1-1c-2-1 2-7 4-7l3-2h6c5 0 6 0 7 2 1 3 1 3-1 5l-2 2c1 1 7-5 6-6h1c1 1 2 2 1 3l1 6c1 5 1 5-1 5l1 2c2 2 3 2 4 1 1-2 1-2 1 0s-5 6-6 5l1-1-1-3-3-3v1c2 1 2 3 0 3v2c2 2 1 3-1 1s-3-1-1 1h-1c-2-2-4-2-3 0 0 1 0 2-2 1-1 0-2 0-2 2l-2 3c-2 0-1-1 0-3 1-1 1-1 0 0l-3-1c-2-2-1 1 0 3 2 2 2 6 1 6l-1-2-2-4c-1-1-1-1 0 0 2 3 1 5-2 5-3-1-5-3-3-5 1 0 1-1-1-2h-2 1l1 1-3 1h-3c-1 2-2 1-1 0 0-2-1-2-3 0-1 1-2 1-2-1-2-3-1-4 6-4 6 0 8-1 6-3h-3c-1 2-1 2-1-1v-1l-6 1-6 2-3 2-3 3-2 3v2c0 2-1 2-3 3l-6 3-3 2zm47-18-2 2h1c1-1 2-1 1-2zm10-3-1-1-1 1 1 1 1-1zm-13-1-1-2-1 2 1 1 1-1zm9-6v-4h-2l-1 1c-2-2-1 1 1 3 2 3 2 3 2 0zm7-2c0-2-1-2-3 0v4l1-1 2-3zm-19 2c1-2 1-2-1-1-1 2-2 2 0 2l1-1zm-1-2v-2l-2 2v1l2-1zm11-6 1-2-9 1v2l1 1 2 1c0 2 2 0 5-3zm4 34c0-1 2-2 3 0 1 1 1 1-1 1l-2-1zm-270 0c-1-1 0-2 3-2 7-2 8-2 8 0l-2 1-9 1zm177-2c0-5 2-6 5-2v1c-2-2-4-1-4 2-1 1-1 1-1-1zm333 2c-2-2-1-4 3-6l5-2c1 2-2 6-5 7-2 2-2 2-3 1zm-430-2 2-1c2 1 2 1 0 1-3 2-4 1-2 0zm105-1v-2c-2 0 0-3 1-3l1 3a22147 22147 0 0 1-2 2zm-170-1 2-1v1l-1 1-1-1zm216-1c-1-2-1-2 1-4 3-3 5-4 3-1-1 1-1 2 1 2 2 1 3 2 0 2v2c0 2-2 2-5-1zm65 0c0-1 0-2 1-1v2l-1-1zm15-2 1-1 1 1c0 2-1 2-2 0zm-287 0c-1-2 0-4 2-5 3-1 5 0 4 2l-6 3zm285-1c1-2 1-3 2-2s-1 1-2 2c-1 2-1 2 0 0zm-88-5c0-3-3-6-4-5s-7 2-7 0l1-1v-1h4c1 1 2 1 3-1l2-2 3-2c2-1 2-2 3 0h2c5-1 7-1 4 1-2 1-3 3-4 6l-1 3c-1 0-2 1-2 3-2 3-4 3-4-1zm3-1-1-1-1 1 1 1 1-1zm0-4v-3l-1-1-2 1-1 3c1 2 3 2 4 0zm-33 5 2-1c4 0 5-3 3-7l-2-2 2-3 2-4c0-2 3-4 8-5 3-1 3 0 2 1l-3 2-1 1 2 1 2 2c0 1-4 3-6 2l-1 1-1 1-1 2c0 3 0 3 3 1l3 1c1 1 0 2-1 3-4 4-13 7-13 4zm-163-1c-1-1 1-4 2-4l3 2c1 2 0 2-2 2h-3zm308-1 2-1 4-2c2-2 4-1 4 1h-1l-2 1c-2 2-7 3-7 1zm55 0v-15c2-2 2 0 3 8 0 8-1 10-3 7zm-61-4h1l3-1c3-2 6-1 6 0 0 2 0 1-5 2l-5-1zm17 0 2-2 2 1-2 2c-2 1-2 1-2-1zm53 1c-3-1-5-2-3-3s7 1 7 2l-4 1zm-115-7c-1-5 0-8 2-8s3 0 3-2c1-2 0-2-1-2l-1 1c-1-1-2 0-2 1l-4 1c-3-1-4-3-1-3l6-4c4-3 7-4 8-3l-1 2c-2 2-2 2-1 4v4c0 2-2 6-4 6l-1 3c0 5-3 4-3 0zm45 2c-1-1 3-4 5-4s2 3-1 4l-3 1-1-1zm70 0-2-2c0-2 1-2 5-1 5 0 6 1 5 2l-8 1zm-82-1v-4l1-4c2-1 3 0 2 4s-2 5-3 4zm-109-6c0-5 2-8 4-6s2 3 0 3c-3 0-3 2-2 3l2 3 1 1 1-3c0-4 10-10 15-8 2 1 2 3-1 3s-8 3-9 5l-1 2c-1-1-1 0-1 1l-5 1h-4v-5zm118 0v-4l-1-2v-2c4 0 5-3 5-12l1-11 2-4 1-2c1 0 2-1 1-2 0-2 1-2 7-3 4-1 5 0 6 1 2 2 2 2 1 3-3 2-2 2 0 2s2 0 3 12v13c-1 1-9 4-10 3-2-1 0-4 3-4s3 0 4-6v-10c0-4-1-4-4-5-2 0-4-2-5-3l-2-2-1 13c-1 10-1 13 1 15v3l-3 1-4 2-3 2h4l3 1c0 2-1 2-5 3-3 0-3 0-4-2zm-31-7c-1-2-1-2 1-2l2 2c0 2 0 2-3 0zm5 0c-1-1 1-2 2-1v2l-2-1zm4-1a1 1 0 0 1 2 0 1 1 0 0 1-2 0zm54-1 1-2c2 0 2 2 0 3-1 1-1 1-1-1zm-36-3-3-2h5c5 0 5 0 4 2-1 3-3 3-6 0zm33 0c-1-2 3-5 6-4 4 0 5 2 1 3l-5 1h-2zm-13-13c0-3 0-5 1-4 2 0 3 5 2 8-2 3-3 1-3-4zm160-4 10-4c7-1 13 0 13 2s-1 2-13 3l-10-1zm-357-14 2-2 4-3c2-1 2-1-7-1-8 0-9-1-12-3s-5-2-9-2l-7 1-6 1-4 1-2 1-7 3c-5 2-17 4-18 2 0-1 3-2 7-2l10-4c2-2 5-3 8-3l8-2 10-1c6-1 7 0 11 2 5 2 8 3 19 2 5 0 5 0 11-5 4-5 7-7 12-8 8-3 14-4 14-2 1 2 4-1 21-18l10-10 6-3 5-4 4-2 4-3 1-1-4-1c-2 0-3-1-3-2 0-2 11-6 16-6 6 0 5 2-1 3-5 1-9 3-8 4s3 1 7-1l6-1c1 1 14-2 16-3l-5-1-7-1 4-1c2 0 6 0 9-2l9-1c4 0 5-1 9-6l6-5 2-1c1-2 12-9 13-8s0 2-2 3l-5 4-3 2-8 7c-5 5-11 9-18 11l-4 2c-4 2-6 2-15 3l-11 3-11 8a77 77 0 0 0-10 7c-1 0-5 3-18 17-11 10-11 10-15 10-15 1-18 2-29 14l-9 7-2 1c-1 2-4 2-4 0zm148-62 6-6a652 652 0 0 0 31-31c0 2-9 16-10 16l-5 5a173 173 0 0 1-17 14c-2 2-5 3-5 2zm-157-28c0-1 5-7 7-7l3-2 4-3-1-1c-3-1-3-2 0-3 2 0 3-1 3-2s4-3 10-4c7-1 11-2 17-5s12-3 16-2c4 2 7 1 13-3 4-3 6-4 13-5l22-3c1-1 1-1-8-4l-6-2c-3-2-23-7-34-8l-7-2-4-2-4-2-4-3-6-3c-9-6-16-8-33-9-15-1-17-1-16-3h15l19 2h3l8 4c9 4 11 6 12 7l5 3 4 2c0 2 10 4 13 3h3l2 1 5 1 9 3 7 2 5 2 4 1 6 2 8 4-2 2-3 2h-3c0-2-5 2-5 4s-14 17-16 17-1-2 7-11c6-5 7-8 6-8l-4 2-5 1c-8 0-14 1-14 2l-1 1-7 6-14 14c-2 0-1-1 5-8l7-7-3-1-6-2c-3 0-12 2-12 4h-2c-2 0-8 2-10 4l-7 7a61 61 0 0 1-12 12c-2 0 4-7 10-13 5-6 5-6 2-6s-8 4-8 6-12 14-14 14l-2-1zm20 0 21-22c2 0 0 3-7 10l-8 9-5 4-1-1zm-27-5c0-1 6-6 15-11v1c-7 8-13 12-15 10zm42-1c0-1 5-7 7-7l2-2 1-2 3-2c1-3 3-4 3-2l-6 8-6 8c0 1-4 1-4-1zm140-3c-2-2 2-4 10-7l7-1c2 2-2 4-5 4l-2 1-2 1-4 1c0 2-2 2-4 1zm175-1c-1-1 7-10 11-12l3-2 4-2 7-4 8-5h6l-1-2c-2-1-1-1 2-3l5-4 1-3c2 0 1-5-2-10-1-4-3-6-5-6-2-1-7-3-8-5l-10-5-5-2-6-2-4-2-6-3-3-2-3-2-5-2c-2-2-6-3-10-2s-14 0-17-2c-5-2-24-3-35-1-4 1-8 0-6-2l4-1 5-1c1-1 28 0 33 2l15 1c10 0 11 1 13 3l5 2 3 2 4 2 6 3 8 4c7 2 13 5 17 8l4 2c4 0 10 7 12 13l3 7 1 3 6 7 20 22c0 5-4 2-7-4l-6-6-5-6-6-6-5-5c-1-2-3-2-3 0l-2 3c-2 2-6 10-6 14l-5 9c-1 0 0-9 2-12 2-4 1-5-3-3l-5 3-7 5c-2 2-5 3-7 3s-6 4-6 6c0 1-6 6-8 6l-1-1zm45 0 2-6 3-9 3-5c2-1 1 5 0 8l-2 6c-1 4-3 7-5 7l-1-1zm-331-1 12-15c3-4 6-3 3 0l-9 9-1 2-1 3c-3 2-4 3-4 1zm-76 0c0-1 7-7 9-7s1-2-3-5c-3-3-5-4-8-4l-6 1c-2 2-3 1-3-3 0-3 0-3 5-2 8 1 10 2 16 6s7 7 3 7l-5 4c-3 3-7 4-8 3zm419-1c-1-2 0-5 2-5l1 3c0 3-3 4-3 2zm7-5v-7c1-2 2 0 2 3l2 4v4c-1 4-2 3-4-4zm-218 3c0-3 7-10 9-9 2 0 1 1-2 4l-5 5h-2zm35-3c1-2 12-11 14-11l2-1 3-2c2 0 7-6 7-8l3-4 2-4 3-4c2 0 1 2-1 5l-4 8c-2 6-7 11-13 13l-6 3c-6 6-10 8-10 5zm-137-1 20-20-4 8-6 7-8 6-2-1zm206-1-6-5c-4-2-5-4-3-5l6 3 8 5c2 0 2 4-1 4l-4-2zm-180-5 6-8 7-8 2-1h2l-7 9-7 9-3-1zm288-2 1-3 1 2-1 3-1-2zm-274 0 1-2 12-12c1-3 4-6 6-7l3-3-5 1c-5 1-12 3-11 5l-1 1c-2 1-1-2 1-3v-2l-18 5c-3 2-5 2-6 1l1-2c1-1 22-7 29-7l8-2c4-2 16-7 17-6 2 1 1 2-5 4l-7 3c-2 2-2 4-1 4v2l-2 2-2 1-5 5c-8 11-15 17-15 12zm-20-3 4-5 7-7c1-2 3-3 3-2 2 0 1 1-1 3l-7 8c-3 4-6 6-6 3zm98 0c-2-2 1-5 4-5s4 3 1 4l-3 1h-2zm-59-2c0-1 5-8 13-16 6-7 8-9 8-11s1-3 5-4l6-1 8-4c4-3 9-5 11-5l10-6c14-15 15-15 22-16l8-1c1 1 1 1-1 2l-2 2c0 1 6 0 8-3 1-2 2-2 3-1s0 2-2 3l-2 2 3 2c5 3 7 3 11-1l3-4h-4c-4 0-6-1-5-2h6c7 1 8 2 3 7-7 6-7 6-15 3a481 481 0 0 1-15-5c1-2-2 0-7 4l-7 5-1 1-5 6c-3 3-5 4-8 4l-6 2-5 3-2 2h-1c-1 0-2 1-1 2 0 1-11 15-17 20l-5 2c0-1 4-6 10-11l10-11-4 1c-4 1-6 2-10 7l-9 8c-8 11-11 14-13 14h-1zm335-3h1l1 1h-1l-1-1zM636 71l2-12c2-5 13-16 14-15s0 3-4 7c-5 4-6 6-7 10l-1 11c0 5-1 7-3 7l-1-8zm-26 7c-2-2 0-3 5-3 4 0 5 1 5 2-1 1-9 2-10 1zm-38-4v-2c1-3 16-18 17-18 2 0 1 3-4 8l-5 7-1 1-4 2c-1 2-2 3-3 2zm103-1 3-6 2-1c0-3 5-5 6-4s0 2-2 4l-3 4-5 4-1-1zm-318-2 1-3c1-1 4 0 4 2-1 2-4 3-5 1zm593-5c-4-2-11-6-11-8s8 0 10 3l4 2 5 2c2 2 2 2-1 2l-7-1zm-301-4c-1-1 1-4 3-4v3c-2 2-2 2-3 1zm260-2c-6-1-7-3-6-8s3-10 4-9l1 6c0 6 0 6 2 6l2-1c0-5 5-6 13-2l9 3c3 0 4 1 4 3l-3 1-3-1-3-1-5-2c-3-2-10-1-10 1 0 3-2 4-5 4zm-247-2 1-4 2-3 2-1 3-1c2-2 2-2 3-1s0 3-4 6c-5 6-6 6-7 4zM41 55c-1-2 0-2 4-3l8-3 14-2 12-2 9-3c5-2 7-2 6-4l2-1c4 2 5 2 5-1 0-1 0-2 3-1 4 0 5 0 8-3s4-4 2-4a92 92 0 0 1-14-7c-3-1-1-2 2-2s8 3 11 5c1 2 2 2 4 0l4-2c1 2 17 2 20 0l11-2c16-2 23-3 27-6l19-2a174 174 0 0 0 36-5l6-4c4-2 6-2 12 3 5 2 5 4 1 4-2 0-4 0-5-2-1-3-2-3-6-2l-5 2c-5 4-18 6-39 7-11 0-14 1-20 3-10 4-15 5-21 5s-10 1-17 3-10 2-11 1l-4-1c-4 0-5 1-8 5l-3 5c2 1 1 2-3 5-3 3-7 3-8 1 0-1-6 0-19 4-5 2-11 3-16 3l-8 1-16 5h-3zm635-6 1-1 1 1c-1 2-2 2-2 0zm217-6-7-2-7-4c-6-2-10-4-16-11-3-3-4-4-7-3-4 1-5-1-1-2 4-2 6-2 10 2 7 6 11 10 18 12l17 6c3 1 3 3 0 3l-7-1zm-251-2c0-1 9-10 13-12l5-1c4 1 8 0 8-2l2-1 3-1 3-2c3 0 2 4 0 4l-6 3c-3 2-5 3-9 3-5-1-5 0-10 5-6 5-9 7-9 4zm-286-2-13-3-12-2c-7 0-11-1-11-3h6c6 0 6 0 4-1l-3-2-12-9-16-3a65 65 0 0 1-21-5l-13-1c-9 0-11-2-3-3l14 1a597 597 0 0 0 42 9c11 11 28 19 41 19l8 1-2 3-9-1zM16 36c-2-3 1-4 8-2 5 0 8 1 8 2 0 2-14 2-16 0zm746 0c0-2 6-4 12-6 5-1 53-3 54-2 2 2-3 2-24 3-22 1-34 3-36 5s-6 2-6 0zM93 33h2-2zm743-5 3-1 2 1-2 1-3-1zM36 25v-1l4 1c0 2-3 2-4 0zm758 0c0-1 7-6 9-6 3 0 2 2-2 5s-7 3-7 1zM46 22l1-2 2 1-2 2-1-1zm763-3 2-2c3 0 4 2 2 3-3 1-4 1-4-1zm11 0c-3-1-1-3 3-4l8-2c5-2 9-2 9 0l-5 2-6 2-9 2zM84 14l-5-3c-2 0-4-2-3-3s6 1 9 4c4 4 3 5-1 2zM1 14c-2-2 0-4 7-6 20-4 32-5 33-2 1 2 0 2-14 3-8 0-13 1-14 2l-4 1-4 2c-2 2-3 2-4 0zm847-3c-1-1 1-3 4-4 3 0 3 3 0 4-3 2-4 2-4 0zM70 9l-1-2c1-1 6 1 5 2-1 2-3 2-4 0zm794 0-4-2a259 259 0 0 1 62 2 226 226 0 0 1-43 0c-5 2-10 2-15 0zM65 7l-2-1-4-1c-2-2-5-2-13 0l-2-1c0-2 3-3 9-4 3 0 5 0 9 3l5 4c-1 2-1 2-2 0z"/>
</svg>
