<?xml version="1.0" encoding="utf-8"?>
<svg xmlns="http://www.w3.org/2000/svg" version="1.1" viewBox="0 0 1399 99">
	<title>A two-dimensional line where the line starts flat on the left, then rises a very small amount, and is labeled Box Hill. Then the line drops a very small amount and goes up and down in small amounts through the center, labeled The Weald. Finally, the line rises again a very small amount, and is labeled Chanctonbury, after which it barely drops back down and ends.</title>
	<path d="m1322.5 98.164-0.5357-0.86713-23.546 0.50266-8.9998-1.367c-4.9499-0.75185-11.235-1.3751-13.966-1.3849-2.7315-0.01-7.0064-0.7916-9.4998-1.7372-2.4933-0.94557-7.3784-3.1964-10.856-5.0019l-6.3225-3.2827h-3.3281c-3.3728 0-10.984-3.0735-15.499-6.2587-1.3599-0.95936-3.0721-1.7443-3.8049-1.7443s-3.2357-0.86744-5.5622-1.9276c-2.3262-1.0602-5.4022-2.2221-6.8356-2.5819l-2.6059-0.65429-7.8592 4.2674c-11.245 6.106-15.023 7.8849-20.243 9.5324-4.4786 1.4134-17.422 2.6821-27.615 2.7066-2.7499 7e-3 -7.6998-0.54153-11-1.2181-10.365-2.125-16.658-3.0696-27.999-4.2028l-11-1.0991-33.999 0.82068-6.9998 3.6776-17.5 0.25519c-30.237 0.44092-41.325 0.2541-43.94-0.74035-4.6294-1.7608-19.057-2.1581-35.405-0.97505-8.8841 0.64289-19.978 1.8326-24.653 2.6439-4.6749 0.81125-11.65 1.5455-15.5 1.6317l-6.9999 0.15676-5.9999-2.4572-33.999-0.73147-13.823 2.9372-11.771-2.3167-10.703 0.53634c-5.8864 0.29499-12.053 1.0758-13.703 1.7352-1.65 0.65935-4.1249 1.3407-5.4999 1.514-1.375 0.17338-6.3249 1.1553-11 2.182l-8.4998 1.8667-4.4999-0.70577c-2.475-0.38818-15.3-1.1958-28.499-1.7947-13.2-0.59891-29.174-1.7913-35.499-2.6498-6.3249-0.85845-16.225-1.7379-22-1.9544-11.568-0.43359-21.577-1.5844-32.999-3.7943-7.8352-1.5158-10.621-1.6716-35.999-2.0123-8.5248-0.11448-18.425-0.77374-22-1.465-8.0494-1.5565-22.549-3.1057-34.73-3.7106l-9.2307-0.45842-5.056 1.9937c-2.7808 1.0965-7.1768 1.9971-9.7689 2.0012-2.5921 4e-3 -7.5457 0.46744-11.008 1.0295-8.3479 1.3552-31.523 1.7967-47.864 0.91174-7.2379-0.39198-15.106-0.35658-17.486 0.0786l-4.3258 0.79134-1.8701-1.0012-1.8701-1.0012-4.4987 1.1332c-5.0231 1.2653-10.528 1.7944-33.788 3.2474l-16 0.99943-6.9999-1.2338c-7.4374-1.3109-23.35-4.4811-29.999-5.9766-5.4438-1.2243-19.108-1.1697-24 0.0959-2.2 0.56919-8.0498 1.4043-13 1.8558s-11.475 1.5907-14.5 2.5315l-5.4999 1.7106-13-0.13326c-7.1498-0.0733-15.7-0.33311-19-0.57737-6.2044-0.45924-89.294-1.8445-95.498-1.5921-1.925 0.0783-8.4498 0.16218-14.5 0.1864-6.0499 0.0242-15.5 0.66996-21 1.4349-11.656 1.6212-23.713 1.8499-27.992 0.53094-1.6541-0.50985-6.3824-1.3678-10.507-1.9066-13.099-1.7108-24.363-4.201-27.988-6.1872-1.9315-1.0584-6.2117-2.5669-9.5117-3.3522-3.2999-0.78536-8.6998-2.199-12-3.1415s-8.0248-2.0739-10.5-2.5143c-2.475-0.44037-6.7052-1.2795-9.4005-1.8648l-4.9006-1.0642-4.0992 1.088c-2.2546 0.59842-6.3491 2.3553-9.0991 3.9042-2.75 1.5489-7.6998 3.941-11 5.3157-6.3312 2.6376-28.629 6.9656-31.067 6.0299-2.7436-1.0532-1.4023-3.257 3.2298-5.3068 2.5644-1.1348 5.4251-1.8212 6.357-1.5253 0.93189 0.2959 5.3864 0.12476 9.8988-0.38029l8.2045-0.91827 26.376-13.238 2.7749 0.0123c1.5262 7e-3 5.3355 0.91266 8.4652 2.0131 3.1296 1.1004 6.6058 1.997 7.7249 1.9923 2.8824-0.0119 15.03 2.9401 21.534 5.233 3.0249 1.0664 7.9748 3.0099 11 4.319l5.4999 2.3801 8.9984 1.1111c4.9491 0.61112 10.799 1.5096 13 1.9967 2.2008 0.48708 6.7013 1.3071 10.001 1.8224l5.9999 0.93678 12-1.0051c6.5999-0.55282 18.975-1.1744 27.499-1.3814 8.5248-0.20692 16.4-0.43058 17.5-0.497 1.1-0.0664 11 0.19584 22 0.58282 21.727 0.76435 26.164 0.80565 43.499 0.40485 6.3249-0.14625 20.5 0.28426 31.499 0.95669l20 1.2226 8.9998-1.9866c4.9499-1.0927 10.973-2.5286 13.385-3.1909l4.3853-1.2042 3.4217 2.1377 15.807-3.0249 20 0.25765 9.3389 2.4716c5.1364 1.3594 11.027 2.4716 13.09 2.4716 2.063 0 7.2659 0.89935 11.562 1.9985l7.8111 1.9985 3.8531-1.0379c2.1192-0.57087 5.7635-0.94932 8.0985-0.84101s6.2704-0.30664 8.7453-0.92212c2.475-0.61547 11.7-1.8119 20.5-2.6587l16-1.5396 15.943 0.78799c8.7686 0.4334 22.268 0.44507 29.999 0.0259 7.7311-0.41915 17.882-0.96532 22.556-1.2137 4.6749-0.24841 12.1-1.4007 16.5-2.5606l7.9998-2.1089 12 0.53007c6.5999 0.29154 13.35 0.68585 15 0.87625 3.9772 0.45893 19.601 2.5923 26.499 3.6184 3.0249 0.44993 13.6 0.84291 23.5 0.87327l18 0.0552 7.9998 1.5592c4.3999 0.85756 9.7097 1.5593 11.799 1.5594 2.0898 9e-5 5.0147 0.62696 6.4999 1.393l2.7003 1.3929 11.207 0.0576c6.1638 0.0317 12.961 0.53022 15.106 1.1079 2.1443 0.57763 14.651 1.4872 27.792 2.0213 13.141 0.5341 28.136 1.4818 33.321 2.106l9.4277 1.1349 4.072-1.2326c2.2396-0.67796 6.547-1.6011 9.5719-2.0514s8.8748-1.552 13-2.4482c4.1249-0.89621 12.648-1.8723 18.94-2.1691l11.44-0.53966 10.745 2.5786 4.6868-1.6107 4.6868-1.6107 13.5-0.061c7.4248-0.0335 16.425 0.44557 20 1.0647 3.5749 0.61917 10.775 1.2893 16 1.4892l9.4998 0.36346 7.9998-2.8228 13-0.55867c7.1499-0.30728 17.33-0.8525 22.622-1.2116l9.622-0.65295 24.491 4.5164 12.632-1.0571c6.9474-0.58142 17.582-0.81518 23.632-0.51948l11 0.53762 10.428-4.161 16.286-0.59407c8.957-0.32674 16.736-0.62154 17.286-0.65511 0.55-0.0336 6.6248 0.46404 13.5 1.1058 13.086 1.2215 26.63 3.4993 31.174 5.2422l2.6742 1.0259 6.8255-1.2229c3.754-0.67262 9.1937-1.1418 12.088-1.0427l5.2628 0.1802 2.2095-1.5482c1.2153-0.85152 3.5719-1.561 5.237-1.5765l3.0275-0.0283 5.9998-3.9916c3.3-2.1954 8.4209-4.8992 11.38-6.0086l5.3799-2.017 3.6199 1.1654c1.9909 0.64096 4.0698 1.4794 4.6197 1.8631 0.55 0.38376 3.0824 1.4667 5.6275 2.4065 2.5452 0.93983 5.4273 2.5929 6.4049 3.6736 0.9776 1.0806 2.7951 1.9648 4.0391 1.9648 1.2439 0 2.4323 0.51211 2.6408 1.138 0.2084 0.62591 3.2414 1.5296 6.7397 2.0082s6.8942 1.3133 7.5466 1.8549c0.6524 0.54159 4.5193 2.3879 8.5933 4.1029l7.4072 3.1182 8.4999 0.94422c4.6749 0.51933 10.675 0.89653 13.333 0.83823s5.4707 0.42325 6.2499 1.0701l1.4166 1.1761 1.436-1.1923 1.436-1.1923 1.8678 0.99999 1.8677 0.99999 1.4461-0.92872c0.7953-0.5108 3.307-0.66109 5.5816-0.33397l4.1356 0.59478 1.8902-1.012 1.89-1.012 1.6894 0.94577 1.6893 0.94577 2.0098-1.2556 2.0099-1.2556 1.2248 1.2254c0.6738 0.67399 2.0616 1.2254 3.084 1.2254h1.8589l-0.6179-1.0004-0.6179-1.0004h2.0724c1.1399 0 2.9665 0.55846 4.0589 1.241l1.9864 1.241 2.0959-1.3093 2.0957-1.3093 1.7393 1.5748 1.7395 1.5748 8.682-1.5146c4.7751-0.83304 10.587-1.4744 12.914-1.4253 2.3279 0.0491 9.1628-0.39432 15.189-0.98546l10.957-1.0748 1.6338 1.6344-3.681 3.3325-34.132 0.82633-1.9167 1.0263c-1.8804 1.0067-3.5926 1.0948-23.816 1.2256l-9.9998 0.0647-0.3333 0.94019c-0.4178 1.179-1.8756 1.2202-2.5843 0.073zm49.528-39.514-1.2189-1.4692 3.054-5.7253c1.6797-3.1489 3.04-6.4497 3.0228-7.3351-0.017-0.88541-1.1399-3.4105-2.4948-5.6113-1.355-2.2008-2.466-4.9593-2.4688-6.1298 0-1.1706 0.613-2.6415 1.3684-3.2687l1.3735-1.1404 1.5129 2.31c0.8322 1.2705 1.6827 3.1916 1.8902 4.2691 0.2074 1.0775 1.0398 1.959 1.8496 1.959 0.8099 0 1.6423-0.88157 1.8497-1.959 0.2075-1.0775 1.0529-2.9907 1.8788-4.2516 1.4798-2.2595 3.7172-3.0078 4.611-1.5423 0.2517 0.41266-0.3762 2.3259-1.3951 4.2516-1.019 1.9257-2.8032 5.5218-3.9652 7.9912l-2.1124 4.4899 0.5959 3.1769 0.5958 3.1769-1.8383-0.4809-1.8382-0.4809-1.1909 2.6148c-0.655 1.4381-1.1909 3.0962-1.1909 3.6847v1.07l4.1141-1.0763-0.3841 1.1718c-0.2112 0.64446-1.7377 1.3073-3.3922 1.4729l-3.008 0.30118zm-830.08-3.1219c-1.4836-1.7883-0.64738-4.5144 1.3847-4.5144 0.80191 0 1.6638 0.7878 1.9153 1.7507l0.45732 1.7506 0.116-2.5165c0.0638-1.3841-0.72424-4.0851-1.7512-6.0022l-1.8672-3.4857-4.3827-2.7351c-6.8371-4.2668-8.8324-5.1556-9.6368-4.2931-0.41016 0.4398-0.18326 1.0006 0.50422 1.2462 1.9182 0.68536 1.4831 3.281-0.54998 3.281-2.2777 0-4.1999-1.8898-4.1999-4.129 0-2.2353 4.6337-5.8748 7.4797-5.8748 1.2156 0 3.0246 0.90033 4.02 2.0008 0.99547 1.1004 2.4152 2.0007 3.1549 2.0007 0.73973 0 1.345 0.64493 1.345 1.4332 0 0.78823 0.91374 1.7233 2.0306 2.0779l2.0306 0.64472 4.3974-2.5781c2.4186-1.4179 5.1422-2.5781 6.0526-2.5781h1.6552l-0.40679 1.2505c-0.22372 0.68776-2.3243 2.3181-4.668 3.6231l-4.2613 2.3726 0.65891 2.1291c0.3624 1.171 0.89997 4.1858 1.1946 6.6996l0.53569 4.5705-1.6812 1.6819c-0.92467 0.92502-2.269 1.6819-2.9873 1.6819-0.71836 0-1.8615-0.66952-2.5404-1.4878zm41.659-3.264-1.5663-4.7518 2.9417-4.5017 2.2269 0.0153c1.2248 8e-3 2.855 0.41316 3.6226 0.89941l1.3957 0.88409-0.58455 1.5239c-0.32152 0.83817-1.6246 1.7268-2.8957 1.9747l-2.3111 0.45078 2.25 0.74386c1.2375 0.40912 2.25 1.1112 2.25 1.5601s-0.90651 1.1041-2.0145 1.4559c-3.2354 1.0273-1.2778 2.418 2.5328 1.7994l3.4816-0.5652v1.0146c0 1.1724-3.327 2.2149-7.1313 2.2346l-2.6314 0.0136zm92.425 3.3689c-0.631-0.7606-1.0863-2.6738-1.0117-4.2516 0.0746-1.5778-0.18953-4.3019-0.58688-6.0536l-0.72246-3.1849 5.1325-5.1345h4.8768l0.5633 1.4685c0.30982 0.80768 0.24547 1.6458-0.143 1.8624s-1.9438 0.68982-3.4563 1.0515l-2.75 0.65755v1.4141c0 0.77775 0.89998 1.6998 2 2.0491 2.1126 0.67079 2.6847 2.9599 0.99998 4.0015-0.54999 0.34005-0.99998 1.5483-0.99998 2.685v2.0668l2.8819-0.57661c1.585-0.31713 3.1561-0.30228 3.4913 0.033 0.33516 0.33528 0.10818 1.2137-0.50438 1.9521l-1.1137 1.3425h-7.5101zm35.902-0.61783c-1.2683-1.1004-2.6606-2.0008-3.0939-2.0008-0.43338 0-1.0661 0.45017-1.406 1.0004-1.0397 1.6829-4.369 1.1135-5.4647-0.9346-0.56934-1.0642-1.0352-3.0293-1.0352-4.3668s0.95908-3.6515 2.1313-5.1423 3.3067-3.1576 4.7432-3.704l2.612-0.99347 4.698 5.4639-0.60233 3.0129-0.60235 3.0129 2.1147 2.2519c2.1292 2.2674 1.8865 4.4008-0.50078 4.4008-0.70837 0-2.3256-0.90034-3.5939-2.0008zm-2.1718-7.3831c0.1805-1.5754-0.11511-3.3078-0.65688-3.8498l-0.98506-0.98545-3.406 5.2003 0.60691 1.5822 0.60692 1.5822 3.506-0.66516zm66.92 8.3034c-0.96248-0.56081-1.75-1.646-1.75-2.4115 0-0.76549-0.42773-1.6563-0.95052-1.9795-0.52279-0.32323-2.6536 0.32545-4.7351 1.4415-2.0815 1.1161-4.3379 2.0292-5.0142 2.0292-1.8633 0-3.1782-3.1872-2.5884-6.274 0.28916-1.5132 1.8568-3.8718 3.4837-5.2413 1.6269-1.3695 3.403-2.49 3.947-2.49s1.8594 0.46602 2.9232 1.0356l1.9342 1.0356v-12.932l1.6214-1.622c0.89174-0.8921 2.3542-1.4786 3.2499-1.3033l1.6286 0.31867-0.20923 5.9836c-0.11506 3.291-0.48925 8.4865-0.83151 11.546l-0.62229 5.562 1.3315 1.102c0.73232 0.60612 2.6776 1.2544 4.3229 1.4406l2.9914 0.33862 0.33186 1.7506 0.33188 1.7507-4.8232-0.0304c-2.6528-0.0167-5.6107-0.48927-6.5732-1.0501zm-6.9499-6.1222c0.65998-0.66024 1.2-2.0108 1.2-3.0011v-1.8007h-1.893c-1.8699 0-3.1069 1.8249-3.1069 4.5835 0 1.7316 2.163 1.8559 3.7999 0.21829zm-207.14 3.5064c-0.28305-0.99315-0.65873-6.0744-0.83484-11.292l-0.3202-9.486 3.4999-0.68207 0.0997 3.8248c0.0548 2.1036 0.41243 4.9502 0.79469 6.3257l0.69499 2.5009 2.0693 0.10698c1.1381 0.0588 2.6068 0.43933 3.2638 0.84552l1.1945 0.73853-0.6171 2.8106-0.61707 2.8107 1.0585 0.65446c0.58218 0.35995 1.0585 1.108 1.0585 1.6622v1.0078l-5.4999-0.63308 0.32864-3.3608 0.32863-3.3608-1.3286 0.4422c-0.73074 0.24323-1.5536 1.7184-1.8286 3.2783-0.275 1.5598-1.0243 3.0105-1.6651 3.2238-0.64082 0.21322-1.3967-0.42489-1.6798-1.418zm81.958 0.52831c-1.5391-5.3113-5.8892-22.947-6.3128-25.593l-0.5205-3.2512h1.5837c1.6729 0 3.9195 3.6865 5.0026 8.209 0.35657 1.4888 1.072 3.8217 1.5898 5.1842l0.94147 2.4772 6.226-2.351 1.869 2.4788c1.028 1.3634 2.0516 2.2605 2.2746 1.9936 0.22306-0.26688 1.8001-3.513 3.5045-7.2136l3.0989-6.7284 3.3138-2.0211c1.8226-1.1116 4.5031-2.0228 5.9567-2.0249l2.643-4e-3 0.6614 1.7242 0.6614 1.7243-1.5556 1.1379c-0.85556 0.62585-2.657 0.92728-4.0031 0.66984l-2.4476-0.46806-2.3401 2.526c-1.2871 1.3893-3.5821 5.5515-5.1 9.2492l-2.7599 6.7232 0.60052 2.7353 0.60053 2.7353-3.2137 1.2337-1.5443-3.7412c-1.8212-4.412-4.1457-7.2425-5.9478-7.2425h-1.2927l-0.30225 5.1733-0.30225 5.1733-1.2494 0.41193c-0.6872 0.22654-1.4234-0.18824-1.6359-0.92175zm95.634 0.50475c-0.68749-0.27751-1.25-1.3674-1.25-2.422v-1.9174h4.1588l-0.69987-3.2512c-0.38494-1.7882-1.3207-4.4668-2.0794-5.9526-1.4619-2.8626-1.7442-6.8394-0.74926-10.554l0.60296-2.2508h3.7667v4.0512c0 2.2282 0.62861 5.2672 1.3969 6.7536 0.76829 1.4863 1.715 5.2495 2.1038 8.3627l0.70693 5.6603-2.0381 1.0912c-2.1407 1.1461-3.8377 1.269-5.9195 0.42866zm575.86-11.264c-0.6026-0.37258-2.0023-3.314-3.1106-6.5364l-2.015-5.859v-17.449l1.3733-1.1401 1.3732-1.1401 1.7192 0.66002 1.7194 0.66001-0.6198 3.1086c-0.3408 1.7098-0.8792 5.363-1.1963 8.1184l-0.5766 5.0097 1.1034 3.9937c0.6069 2.1965 1.5193 4.64 2.0275 5.4299l0.9241 1.4362 1.6336-1.3564 1.6337-1.3564-0.1633-2.5808c-0.09-1.4194-0.1158-3.1435-0.058-3.8312 0.1491-1.7586 2.7728-1.5613 3.4717 0.26104 0.9196 2.3974-0.4556 7.7945-2.5858 10.149-2.1864 2.4161-5.0051 3.4424-6.6541 2.4228zm-48.47-1.9072c-1.8676-2.0644-2.162-6.3578-0.6321-9.2175 0.5626-1.0516 1.908-2.3859 2.9898-2.9651l1.9668-1.053 2.7602 1.7277c1.518 0.95025 2.836 1.7524 2.9288 1.7824 0.093 0.0301 0.4612 1.2205 0.8187 2.6453l0.6499 2.5906-5.315 6.319h-2.2562c-1.2409 0-3.0008-0.82324-3.9109-1.8294zm7.8906-4.2469c0.788-1.2756-3.4541-6.1029-4.6911-5.3381-1.01 0.62455-1.1463 4.787-0.1879 5.7457 1.0414 1.0418 4.1437 0.78273 4.879-0.40752zm19.204 4.9958-1.75-1.0197v-3.3926c0-3.5793-1.3635-5.3501-2.5905-3.3642-0.4006 0.6487-1.0127 2.5693-1.36 4.2679l-0.6314 3.0884h-2.8626l-0.7559-4.43c-0.4158-2.4365-1.2158-4.8899-1.7777-5.452-1.5264-1.527-1.2343-3.6042 0.6063-4.3108l1.6278-0.62493 1.7094 2.267 1.7093 2.267 2.0302-1.2684c1.1166-0.69759 2.7648-0.98636 3.6626-0.64169l1.6324 0.62667v2.9507c0 1.6229 0.2731 3.6628 0.607 4.5331 0.3338 0.87032 1.4588 1.5824 2.5 1.5824 1.041 0 1.8929 0.43434 1.8929 0.96519 0 0.53084-0.8704 1.4312-1.9342 2.0007-1.0638 0.56957-2.0763 1.0219-2.25 1.0052-0.1736-0.0167-1.1032-0.48926-2.0656-1.0501zm39.662-2.474c-0.8165-1.955-1.7323-4.7937-2.0351-6.3084l-0.5506-2.7539 1.5165-1.259 1.5163-1.259 1.0698 1.9996c0.5884 1.0998 1.0698 2.734 1.0698 3.6317s0.4569 2.4861 1.0153 3.5298l1.0152 1.8977 1.4575-0.55953c0.8016-0.30774 1.7448-2.0916 2.096-3.9642l0.6385-3.4047h1.3887c0.7637 0 1.3886 0.60808 1.3886 1.3513s-0.4837 2.7392-1.0748 4.4357c-1.1202 3.2149-4.7137 6.2175-7.4408 6.2175h-1.5863zm24.694 1.7543-1.0272-1.9201 0.6073-3.7439 0.6074-3.7439-6.3306 3.275-0.4346-1.2854c-0.8665-2.5634-0.892-4.3497-0.1095-7.671l0.7974-3.3844 0.7218 1.1684c0.3971 0.64263 2.2605 1.9906 4.1412 2.9954l3.4194 1.827 0.2699 3.3901c0.1485 1.8646 0.4946 4.403 0.7691 5.641l0.4991 2.2508h3.1285l-0.4105 1.2505c-0.2257 0.68775-1.5829 1.39-3.016 1.5605l-2.6056 0.31006zm-104.43-0.66735-1.4666-1.4671-0.7006-6.9788-0.7005-6.9788-2.4353-0.30729c-1.3394-0.16902-2.4833-0.75747-2.542-1.3077-0.059-0.55021 0.9678-1.5488 2.2811-2.2191l2.3877-1.2187v-7.5664h3v6.9521l3.7609 0.61987c2.0685 0.34093 4.0261 0.88506 4.3501 1.2092 1.0051 1.0055-0.634 2.7232-2.5987 2.7232-1.0282 0-2.5319 0.6626-3.3414 1.4724l-1.4719 1.4725 1.6999 5.4963c0.935 3.023 1.9842 5.7806 2.3316 6.1282 0.9771 0.97747-0.2868 3.4374-1.7662 3.4374-0.7268 0-1.9815-0.66021-2.7881-1.4671zm-27.605-3.3646-1.2128-2.929 1.0976-4.0776c1.1589-4.3054 3.3403-7.1688 5.4611-7.1688 1.9266 0 4.5835 3.3801 4.5835 5.8309v2.1721h-1.441c-0.7924 0-1.719-0.45017-2.0589-1.0004-0.3399-0.55021-1.2665-1.0004-2.059-1.0004h-1.4409v2.3784c0 1.3082 0.5624 2.8217 1.2499 3.3634s2.5195 1.2887 4.071 1.66l2.8209 0.67502-0.7984 2.4271-9.0603 0.59825zm-14.563-0.42028c-0.2365-0.68775-0.5599-2.826-0.7186-4.7518l-0.2886-3.5013h-3.9999l-0.5 3.9233c-0.275 2.1578-1.0191 4.0941-1.6534 4.3028l-1.1534 0.37946-0.7103-4.2059-0.7104-4.2059-2.5033-2.321-2.5035-2.321 0.5859-1.5273c0.3222-0.83998 1.2251-1.5272 2.0064-1.5272s2.4662 0.84703 3.7442 1.8823l2.3235 1.8823 4.8092-2.192 1.8826 2.3257 1.8824 2.3257v6.5476l2.1645 0.56623 2.1643 0.56622-1.2869 1.5512c-1.5453 1.8627-4.9342 2.0468-5.5347 0.30072zm-1102.2-1.2064-2.2104-1.6027-4.6666 1.1717-1.6242-1.8073-1.6242-1.8073-0.2802-8.5032c-0.15412-4.6768 0.0726-9.5423 0.50381-10.812l0.78402-2.3092 4.3281 0.61682-0.31001 5.5021c-0.17051 3.0261-0.64581 6.8526-1.0562 8.5032s-0.57045 3.8146-0.35565 4.8089l0.39054 1.8078 3.3313-0.63914 0.17455-5.4897c0.26494-8.3333 1.2725-13.704 2.8105-14.981l1.387-1.1516 4.1278 2.21v7.8791l-4.2786 8.8102 0.62839 2.5048 0.62841 2.5048 2.2609 0.59272c1.2435 0.32599 3.7231 0.0644 5.5102-0.58137l3.2493-1.1741 2.216 2.2169-2.136 1.1436c-1.1748 0.62897-4.2605 1.3788-6.8572 1.6663l-4.7213 0.52276zm2.7104-19.669v-2.0008l-0.99998 0.61827c-0.54999 0.34005-0.99998 1.5186-0.99998 2.619v2.0008l0.99998-0.61826c0.54999-0.34005 0.99998-1.5186 0.99998-2.619zm1067.9 18.579c-0.7053-0.85034-1.9212-1.3009-2.7018-1.0013-2.4121 0.92596-5.944-0.49439-7.2363-2.91l-1.2324-2.3037 1.7617-3.7141c0.969-2.0428 2.3963-3.9577 3.1718-4.2554 0.7754-0.29768 2.392-0.0721 3.5924 0.50134 1.2004 0.57342 2.9699 1.2944 3.9324 1.6021l1.75 0.5595v8.1158l2.9999 0.60023c1.65 0.33012 3 1.171 3 1.8687 0 2.6982-6.9764 3.4214-9.0377 0.93683zm-1.9621-6.4883c0-1.1177-0.6944-2.2987-1.5431-2.6245-0.8487-0.3258-1.7897-0.3456-2.0912-0.044-0.3015 0.30161-0.2518 1.4826 0.1105 2.6245 0.3622 1.1419 1.3033 2.0761 2.0912 2.0761h1.4326v-2.0322zm-1088.4 4.5004c-0.3442-0.89732-0.62582-3.3402-0.62582-5.4287v-3.7972l2.7368-2.2723 0.58994 4.2649c0.32446 2.3457 0.72116 5.148 0.88153 6.2273l0.29159 1.9624-3.2483 0.67507zm1033-1.4973c-1.402-1.6668-2.8596-4.6861-3.239-6.7095l-0.69-3.679 2.4013-4.5447 2.4012-4.5447 2.4989 0.2059c1.3743 0.11324 4.0737 0.33832 5.9987 0.50018l3.4999 0.29429v3.0011l-11.982 1.0004-0.353 1.8595c-0.1942 1.0228 0.4092 3.8566 1.341 6.2973l1.6942 4.4378 2.9208 0.58441c1.6065 0.32142 3.1492 0.95383 3.4281 1.4054 0.6478 1.0486-2.8108 2.9221-5.3941 2.9221-1.0872 0-3.1239-1.3638-4.5258-3.0306zm23.987 1.2182c-0.3136-0.50756-1.2747-5.3026-2.1358-10.656l-1.5655-9.7329 1.1925-1.4375c0.6559-0.79063 1.6875-1.275 2.2925-1.0765 0.6049 0.19855 1.3249 2.5769 1.5999 5.2853l0.4999 4.9243 6.0915-0.60813 2.1349 4.3056c1.1741 2.3681 2.4495 5.5825 2.8342 7.1432l0.6995 2.8377-4.6788-0.67347-0.8107-3.9232c-0.849-4.1081-2.3463-6.5808-3.9849-6.5808h-0.9694l0.3418 5.2271 0.3419 5.2271-1.6568 0.33031c-0.9111 0.18167-1.9132-0.0849-2.2267-0.59251zm-1066.8-5.9405-0.29989-5.7522-5.4999-0.63309-0.0153 4.318c-8e-3 2.3749-0.413 4.9463-0.89905 5.7143-0.48606 0.76794-1.5346 1.1464-2.33 0.84105l-1.4462-0.55519 2.0714-10.116-1.314-6.6135-1.314-6.6135 2.2474-2.2482 1.0266 1.027c0.5646 0.56483 1.3051 3.3795 1.6455 6.2547l0.61891 5.2278 5.2089-0.60499-0.29159-3.5013c-0.38121-4.5774 0.51365-8.003 2.0906-8.003h1.2609l0.21134 13.505 0.21136 13.505h-2.8829zm-35.209 3.898c-0.2901-0.46957-2e-3 -2.2477 0.6413-3.9514l1.1688-3.0976-3.6431-4.0272 0.6033-1.5728 0.60331-1.5728 3.0422 1.5738c1.6732 0.8656 3.8188 1.444 4.7679 1.2854l1.7256-0.28835-0.29974 1.7764c-0.16487 0.97703 0.62262 3.0723 1.75 4.6561 1.1273 1.5838 2.0497 3.3729 2.0497 3.9757 0 1.587-2.6084 1.3448-4.357-0.40452-0.82498-0.82531-1.9783-1.5006-2.5629-1.5006-0.58461 0-1.625 0.90033-2.3119 2.0007-1.3422 2.15-2.336 2.5088-3.1773 1.147zm-14.261-3.9233c-0.64388-0.40975-1.4412-1.8659-1.7718-3.2359l-0.60111-2.4909 4.0142-6.5024h5.7082l1.1605 2.548c0.63827 1.4014 1.1605 3.6201 1.1605 4.9304 0 1.3103-0.70713 3.0898-1.5714 3.9544-1.6404 1.6411-6.085 2.0781-8.0991 0.7964zm6.1761-3.2348c0.94354-1.5273-0.4543-4.9929-2.0139-4.9929-0.75547 0-1.6542 0.45419-1.9971 1.0093-0.94354 1.5273 0.4543 4.9929 2.0139 4.9929 0.75546 0 1.6542-0.4542 1.9971-1.0093zm-32.838 2.3432c-1.1299-1.1303-0.74247-3.1158 0.93542-4.7944l1.6021-1.6027-0.56373-3.7207c-1.4574-9.619-1.976-11.773-2.9906-12.42-0.60052-0.38274-0.8799-0.90201-0.62083-1.1539 0.25906-0.25192 3.171-0.72519 6.4709-1.0517l5.9999-0.59365-2.75 1.0807c-1.5125 0.59438-2.7499 1.5209-2.7499 2.059v0.97831l8.8222-1.3235 1.113 2.0805c0.61215 1.1443 0.84637 3.1432 0.5205 4.4421l-0.5925 2.3616 2.5683 1.6834c1.4125 0.92589 2.5683 2.3707 2.5683 3.2106 0 0.83994-0.67761 2.838-1.5058 4.4402l-1.5058 2.913-7.9827 2.3926-1.7527-1.5817-1.7527-1.5817-1.9411 1.4242c-1.0676 0.78331-2.2301 1.4242-2.5833 1.4242s-0.94219-0.30011-1.3088-0.66692zm16.333-6.395v-1.8643l-3.9999-1.0775c-2.2-0.59262-3.9999-1.4945-3.9999-2.0041s0.89998-1.4085 2-1.9974 2-1.682 2-2.4291c0-1.8894-2.7756-2.7633-4.9976-1.5736l-1.8528 0.99199 0.1958 12.915 2.5774 0.32551c1.4175 0.17904 3.8148-0.0677 5.3273-0.54825l2.75-0.87378z" stroke-width="1.0002"/>
</svg>
