<?xml version="1.0" encoding="utf-8"?>
<svg xmlns="http://www.w3.org/2000/svg" version="1.1" viewBox="0 0 151 59">
	<title>A hand with the index finger pointing to the right, and other fingers curled up. The hand appears to be coming out of the very end of the sleeve of a ruffled dress (only the very end is visible).</title>
	<path d="m19.525 56.827-2.113-2.1129-0.5631-1.6894-0.5631-1.6893-13.504 6.3249-1.3911-0.8598-1.3911-0.8597 1.4472-4.3038 1.4472-4.3039 0.8997-1.3333 0.89971-1.3334 3.5314-11.205 0.14116-9.0643 0.14115-9.0644-2.2968-10h2.7364 2.7364l0.8241 1.3333 0.824 1.3333h3.2546 3.2547v-1.9531-1.9531l5.6141-3.0046 9.0636 1.7003 5.8238 7.8771h2.5434 2.5434l7.0784-4.9696 13.006-5.697h7.0166 7.0165l20.962 3.7713 21.333 1.6506 16 2.7049 6.333 2.0438 6.334 2.0437v2.2628 2.2629l-4.232 6.0418-32.435-2.0087-7.398 0.1808-0.728 0.7272-0.727 0.7272 5.52 10.819v2.5565 2.5565l-4 3.3198v2.9634 2.9634l-2.439 2.2066-2.438 2.2067h-1.015-1.0143l-2.2713 2.8049-2.2712 2.8049-40.438-2.4094-5.9416-4.2668-5.9415-4.2669h-1.079-1.079l-4.703 5.3927-4.7031 5.3927-9.5359 1.4882zm11.552-5.5225 2.5693-1.9438-1.8498-1.8498-1.5777 1.5778-1.5778 1.5777h-1.8966-1.8966l1.5613-1.8813 1.5614-1.8813-1.4628-0.904-1.4629-0.9041 1.5614-1.8813 1.5613-1.8813-2.3265 0.0408-3.4278 2.175-1.5878 9.7842 7.6823-0.0848zm62.159-0.0685-2.5909-0.9484-2.9614-0.8029-2.5476 0.2887-0.1369 2.2264 1.666 1.3333 2.5824 0.5894 3.7035 0.1846zm-23.02-0.5514 3.0418-0.0182 0.7438-1.9381 0.7437-1.9382-1.562-3.0355-1.983-2.783-3.3483 1.131 0.3562 1.8045-0.2136 3.8617-4.4806-0.3791-4.1439-0.5474-3.0096-0.7615-2.4203-1.3509-2.7502-1.8241-2.1609-1.9082-4.1131-2.9161-0.4085 2.9777 6.8886 7.1019 10.445 3.7874 5.3333-1.2457 3.0419-0.0182zm12.011 0.0239-1.0525-1.3754-2.0841-0.7578-1.9159 0.7578-0.7998 1.3754 0.7998 1.2913 2.0421 0.884 1.9579-0.884zm19.662-4.4651-2.9771-1.4587-3.3882-1.1602-4.6981-0.9816-3.6114-1.0121-2.5993 0.1191-0.774 1.3165v1.7334l3.2 3.2 6.9476 1.3097 7.1855-1.3097zm-20.176-3.4308-1.205-1.9252-1.6667-0.5549-1.9048 0.2488-0.8335 2.3312 1.0716 2.4206 2.0978 0.6251 2.0978-0.6251zm-41.446-13.742 0.8283-13.595-1.3172-1.3172-2.4573 0.5208-1.2786 3.5098-1.2323 10.313-0.643 10.018 0.3745 2.8307 1.2165 1.3152h1.8404 1.8405zm33.31 9.5953h3.1539l1.7836-1.7836-2.2802-2.5195-2.2802-2.5196 2.9296-4.5106 9.6795 0.5932-1.3184-2.4634-1.3183-2.4634-2.8079-0.7342-2.8078-0.7343-4.4688 4.8814-4.3947 6.3951-4.1939 1.587-3.8285 1.0012-3.155-0.43-2.3973-9e-3 -2.3972-0.6827-2.1446-1.1036-2.1446-0.43-2.3973-0.5985-0.9659 1.5906 2.1696 1.2591 4.0248 1.9569 2.9371 1.8679 3.0214 1.1943 3.1994 0.7126v1.8071l9.2477-3.8639zm31.321-0.3294 1.724-1.4242-1.057-0.952-1.056-0.952-8.8813-0.7765-5.8446-0.5385-2.9604 0.6412-1.5912 2.3677 1.1983 2.1984 2.0317 0.8886 3.1069 0.6197 3.4642 0.6196 3.476-0.5446 4.6664-0.7233zm-73.998-1.7078-0.6525-1.625-4.6097 0.3958-0.5473-1.2923 2.6619-1.5523 2.4725-1.0052-0.4916-1.0587-0.8495-1.3745-1.8618 0.3581-2.7037 0.3581-1.3893-0.2039-0.0632-0.9405 2.9756-1.2366 3.3333-0.8366v-1.3924-1.3924l-8.5835 0.8356-1.9788 3.5426-1.9789 3.5425 1.5754 3.4575 1.5753 3.4574h2.6952 2.6953zm52.848-5.5769-1.525-1.7192-1.8425-0.4167-1.8722 0.4167-0.6102 1.8889 0.6102 1.8889 1.4732 0.9253 1.8601 0.2704 0.9418-0.5295 0.9418-0.5294zm18.035 1.0435 0.764-1.2374-5.0201-1.5934-4.7577-5.2572 0.1207-4.244 0.1206-4.2439-3.5188-8.4218-15.428-3.0984h-3.0609-3.061l-14.157 5.2968-8.5022 7.3698-1.7376 10h1.3262 1.3262l0.6974-2.6666 0.6327-3.3649 3.4675-0.0744-0.1402 1.5134-1.4196 0.5003 0.2234 1.5698 2.3066 0.2976 0.1816-1.5499-1.292-0.8178 0.1402-1.5134 3.0643 0.0149 1.5158 2.3577 1.6 1.6v-1.6-1.6h1.465 1.4651l-5.7052 9.6695 0.8357 0.8319 0.8356 0.832 5.1038-6.2955v-3.1069-3.1069l2.4824-1.5342 0.8204 1.3275 0.8205 1.3275-1.503 2.8084-1.503 2.8085 1.3215 1.3215 2.2658-4.775 2.2659-4.7749h0.5577 0.5577l1.1531 3 1.153 3 1.4377-3.6667 1.4376-3.6667h1.4092 1.4091l9.0706 3.79 4.2106 8.1424 7.2999 3.9609 3.1761 0.1068zm-0.144-9.0634-2.1236-1.6993-1.8367-0.9526-1.8368 0.9526-0.4167 1.8213 1.1907 1.6075 1.407 1.2283 2.1811 2.181 2.255-0.41 0.47-2.3151zm-74.635-7.9416-3.8291-3.2681 3.8995 0.839 3.8995 0.8391-1.7294-2.0839-1.7294-2.0838h1.5842 1.5843l2.579 1.3802 2.579 1.3803v-1.5666-1.5666l-4.6667-3.5425-5.9061-0.0848-1.3803 2.579-1.3802 2.579v2.6576 2.6575l3.6347 2.8591 3.6348 2.8592 1.0552-3.1656zm84.838-1.6326v-3.8749l-6.494-1.1722-5.5404-0.33866-4.6815-0.0217 0.3789 3.7885 2.1694 2.092 2.229 3.4018 5.9696 0.4763 5.969-0.4763zm18.426 0.2082 0.426-3h-7.426-7.426v2.4445 2.4444l0.95 0.9504 0.951 0.9503 6.049-0.3948 6.05-0.3948zm14.907 2.476v-1.1907l-4.218-1.6186-2.845-0.884h-3.267l-0.336 1.9951v1.1111l0.383 1.7309 1.394 0.0469h4.445 4.444z" stroke-width="1.3333"/>
</svg>
