<?xml version="1.0" encoding="utf-8"?>
<svg xmlns="http://www.w3.org/2000/svg" version="1.1" viewBox="0 0 478 88">
	<title>A series of ten musical notes, not on a staff, each with a small line underneath. The notes alternate between sixteenth notes and eighth notes. The sixteenth notes are raised on the y-axis, so that the bottom of these notes starts approximately halfway above the eighth notes. All the sixteenth notes are aligned together on their x-axis in parallel, as are the eigth notes.</title>
	<path d="m6.9974 45.728q0-2.0243 0.8314-3.7595 0.8314-1.7713 2.2412-3.0365 1.4459-1.3014 3.3257-2.0243 1.8797-0.75914 3.9763-0.75914 1.5544 0 2.9281 0.39763v-36.546h3.7233v0.976q0 1.2652 0.83141 2.1689 0.86756 0.90373 2.2051 1.699 1.3375 0.79523 2.9281 1.5905 1.6267 0.79524 3.1087 1.8797 1.5182 1.0483 2.7473 2.4943 1.2291 1.446 1.7713 3.5064 0.54222 2.0243 0.21685 4.8439-0.32535 2.7835-1.8797 6.5429 0.75914 1.9159 0.93984 4.2655 0.18076 2.3135-0.46995 5.1331-0.61455 2.7835-2.2412 6.1452-1.5905 3.3257-4.4463 7.2661l-0.976-0.79524q0.68681-1.0122 1.5182-2.4219 0.8314-1.446 1.5544-3.1088 0.75914-1.699 1.2652-3.5425 0.54221-1.8436 0.65064-3.7595 0.14459-1.9159-0.25302-3.7956-0.39756-1.8797-1.5181-3.5787-1.0844-1.7351-3.0365-3.2172-1.952-1.5183-4.9162-2.675v19.773q0 2.2774-0.72297 4.3378-0.68681 2.0605-1.952 3.6149-1.2652 1.5544-3.0365 2.4943-1.7713 0.90373-3.9041 0.90373-3.6149 0-5.5307-1.8436-1.8797-1.8797-1.8797-5.1692zm17.026-34.558v0.25302q0 0.79523 0.57838 1.5905 0.57838 0.75914 1.4821 1.6267 0.9399 0.8314 2.1328 1.8074 1.1929 0.93991 2.4219 2.0966 1.2652 1.1206 2.4219 2.4581 1.1568 1.3375 2.0605 2.928 0.50604-1.6628 0.54221-3.4341 0.03642-1.8074-1.0483-3.4703-1.0483-1.699-3.5425-3.2172-2.4942-1.5183-7.0492-2.6389z" stroke-width="6.9953"/>
	<path d="m0.0021959 56.221 31.235-0.22959" stroke="#000" stroke-width=".5975px"/>
	<path d="m55.965 77.208c0-1.3501 0.27702-2.603 0.83175-3.76 0.55403-1.1808 1.3011-2.1931 2.2413-3.036 0.96397-0.86813 2.072-1.5425 3.3256-2.0245 1.2529-0.50647 2.5785-0.759 3.9762-0.759 1.036 0 2.0126 0.13222 2.9283 0.39734v-36.546h3.7229v0.97586c0 0.96397 0.32529 1.8559 0.97586 2.675 0.65057 0.79537 1.4704 1.6264 2.4582 2.4945 0.98844 0.84295 2.0482 1.7831 3.1815 2.8191 1.1563 1.0367 2.2287 2.2777 3.2172 3.7236 0.98775 1.4215 1.8069 3.1088 2.4582 5.0605 0.65058 1.9279 0.97587 4.2294 0.97587 6.9044 0 1.5663-0.1084 3.1088-0.32529 4.6268-0.21686 1.5187-0.50647 2.9884-0.86813 4.4106-0.36097 1.3977-0.77088 2.7471-1.2284 4.0482-0.4582 1.2774-0.9164 2.4582-1.3739 3.5425-1.1088 2.5547-2.3616 4.9527-3.7593 7.1941l-0.97655-0.79537c1.085-1.8314 2.0608-3.9041 2.9283-6.2175 0.36166-0.96397 0.71074-2.0364 1.0486-3.2172 0.36095-1.1808 0.67435-2.4463 0.93947-3.7957 0.28962-1.3494 0.51837-2.7716 0.68696-4.2658 0.16859-1.4942 0.25323-3.0605 0.25323-4.6988 0-1.4222-0.15669-2.7114-0.47009-3.8684-0.28892-1.1563-0.68695-2.1805-1.1927-3.0724-0.50647-0.91569-1.085-1.7111-1.7356-2.3861-0.62608-0.69884-1.2648-1.2893-1.9153-1.7712-1.5425-1.1563-3.3018-1.9881-5.278-2.4939v29.497c0 1.518-0.24063 2.9639-0.72261 4.3371-0.4582 1.3739-1.1088 2.5792-1.9524 3.6152-0.84364 1.036-1.8559 1.8678-3.0367 2.4945-1.1808 0.6023-2.482 0.9031-3.9034 0.9031-2.4099 0-4.2539-0.61419-5.5313-1.8433-1.2529-1.2529-1.8797-2.9765-1.8797-5.1696z" stroke-width="6.9953"/>
	<path d="m48.97 87.701 31.235-0.22944" stroke="#000" stroke-width=".5975px"/>
	<path d="m104.93 45.728q0-2.0243 0.83141-3.7595 0.83142-1.7713 2.2412-3.0365 1.4459-1.3014 3.3257-2.0243 1.8797-0.75914 3.9763-0.75914 1.5544 0 2.928 0.39763v-36.546h3.7232v0.976q0 1.2652 0.83148 2.1689 0.86755 0.90373 2.2051 1.699 1.3375 0.79523 2.928 1.5905 1.6267 0.79524 3.1087 1.8797 1.5182 1.0483 2.7474 2.4943 1.229 1.446 1.7713 3.5064 0.54215 2.0243 0.21677 4.8439-0.32521 2.7835-1.8797 6.5429 0.75919 1.9159 0.9399 4.2655 0.18063 2.3135-0.46997 5.1331-0.61455 2.7835-2.2412 6.1452-1.5905 3.3257-4.4462 7.2661l-0.97595-0.79524q0.68678-1.0122 1.5181-2.4219 0.83149-1.446 1.5544-3.1088 0.75918-1.699 1.2651-3.5425 0.54232-1.8436 0.65073-3.7595 0.14458-1.9159-0.25297-3.7956-0.39769-1.8797-1.5182-3.5787-1.0845-1.7351-3.0366-3.2172-1.952-1.5183-4.9162-2.675v19.773q0 2.2774-0.72292 4.3378-0.68682 2.0605-1.952 3.6149-1.2652 1.5544-3.0365 2.4943-1.7713 0.90373-3.904 0.90373-3.6149 0-5.5307-1.8436-1.8797-1.8797-1.8797-5.1692zm17.026-34.558v0.25302q0 0.79523 0.57848 1.5905 0.57838 0.75914 1.4821 1.6267 0.93983 0.8314 2.1327 1.8074 1.1929 0.93991 2.422 2.0966 1.2651 1.1206 2.422 2.4581 1.1567 1.3375 2.0604 2.928 0.50598-1.6628 0.54217-3.4341 0.0363-1.8074-1.0483-3.4703-1.0484-1.699-3.5426-3.2172-2.4941-1.5183-7.0493-2.6389z" stroke-width="6.9953"/>
	<path d="m97.938 56.221 31.235-0.22958" stroke="#000" stroke-width=".5975px"/>
	<path d="m153.9 77.208c0-1.3501 0.2769-2.603 0.83168-3.76 0.5541-1.1808 1.3011-2.1931 2.2413-3.036 0.96393-0.86813 2.072-1.5425 3.3256-2.0245 1.2529-0.50647 2.5784-0.759 3.9762-0.759 1.0359 0 2.0126 0.13222 2.9282 0.39734v-36.546h3.723v0.97586c0 0.96397 0.3253 1.8559 0.97579 2.675 0.65061 0.79537 1.4705 1.6264 2.4583 2.4945 0.98834 0.84295 2.0483 1.7831 3.1814 2.8191 1.1563 1.0367 2.2288 2.2777 3.2173 3.7236 0.98763 1.4215 1.8068 3.1088 2.4581 5.0605 0.65064 1.9279 0.97581 4.2294 0.97581 6.9044 0 1.5663-0.10824 3.1088-0.32517 4.6268-0.21689 1.5187-0.50651 2.9884-0.86828 4.4106-0.36087 1.3977-0.77084 2.7471-1.2283 4.0482-0.45823 1.2774-0.91638 2.4582-1.3739 3.5425-1.1087 2.5547-2.3616 4.9527-3.7593 7.1941l-0.9765-0.79537c1.085-1.8314 2.0608-3.9041 2.9282-6.2175 0.36171-0.96397 0.71076-2.0364 1.0486-3.2172 0.36102-1.1808 0.67436-2.4463 0.93952-3.7957 0.2896-1.3494 0.51839-2.7716 0.68688-4.2658 0.16867-1.4942 0.2532-3.0605 0.2532-4.6988 0-1.4222-0.15655-2.7114-0.46995-3.8684-0.2889-1.1563-0.68706-2.1805-1.1927-3.0724-0.50654-0.91569-1.085-1.7111-1.7357-2.3861-0.62608-0.69884-1.2647-1.2893-1.9153-1.7712-1.5424-1.1563-3.3018-1.9881-5.278-2.4939v29.497c0 1.518-0.24062 2.9639-0.72262 4.3371-0.45823 1.3739-1.1087 2.5792-1.9524 3.6152-0.84367 1.036-1.8559 1.8678-3.0367 2.4945-1.1807 0.6023-2.482 0.9031-3.9033 0.9031-2.41 0-4.2539-0.61419-5.5313-1.8433-1.2528-1.2529-1.8796-2.9765-1.8796-5.1696z" stroke-width="6.9953"/>
	<path d="m146.91 87.701 31.235-0.22944" stroke="#000" stroke-width=".5975px"/>
	<path d="m202.87 45.728q0-2.0243 0.8315-3.7595 0.83136-1.7713 2.2411-3.0365 1.446-1.3014 3.3257-2.0243 1.8797-0.75914 3.9763-0.75914 1.5545 0 2.9281 0.39763v-36.546h3.7233v0.976q0 1.2652 0.8315 2.1689 0.86756 0.90373 2.2051 1.699 1.3375 0.79523 2.928 1.5905 1.6267 0.79524 3.1087 1.8797 1.5183 1.0483 2.7474 2.4943 1.229 1.446 1.7713 3.5064 0.5422 2.0243 0.21681 4.8439-0.32539 2.7835-1.8797 6.5429 0.75918 1.9159 0.93992 4.2655 0.1806 2.3135-0.46998 5.1331-0.61457 2.7835-2.2412 6.1452-1.5905 3.3257-4.4462 7.2661l-0.97607-0.79524q0.68688-1.0122 1.5182-2.4219 0.8315-1.446 1.5544-3.1088 0.75916-1.699 1.2651-3.5425 0.54213-1.8436 0.65068-3.7595 0.14467-1.9159-0.25312-3.7956-0.3975-1.8797-1.518-3.5787-1.0845-1.7351-3.0366-3.2172-1.952-1.5183-4.9162-2.675v19.773q0 2.2774-0.72294 4.3378-0.68677 2.0605-1.952 3.6149-1.2651 1.5544-3.0364 2.4943-1.7713 0.90373-3.9041 0.90373-3.6148 0-5.5307-1.8436-1.8797-1.8797-1.8797-5.1692zm17.026-34.558v0.25302q0 0.79523 0.57836 1.5905 0.57852 0.75914 1.4821 1.6267 0.93998 0.8314 2.1328 1.8074 1.1929 0.93991 2.422 2.0966 1.2651 1.1206 2.4218 2.4581 1.1569 1.3375 2.0605 2.928 0.50608-1.6628 0.5423-3.4341 0.0363-1.8074-1.0483-3.4703-1.0483-1.699-3.5425-3.2172-2.4942-1.5183-7.0493-2.6389z" stroke-width="6.9953"/>
	<path d="m195.87 56.221 31.235-0.22959" stroke="#000" stroke-width=".5975px"/>
	<path d="m251.84 77.208c0-1.3501 0.27693-2.603 0.8317-3.76 0.55409-1.1808 1.3011-2.1931 2.2413-3.036 0.96393-0.86813 2.072-1.5425 3.3255-2.0245 1.253-0.50647 2.5785-0.759 3.9763-0.759 1.0359 0 2.0125 0.13222 2.9282 0.39734v-36.546h3.723v0.97586c0 0.96397 0.3253 1.8559 0.97579 2.675 0.65063 0.79537 1.4704 1.6264 2.4583 2.4945 0.98837 0.84295 2.0481 1.7831 3.1814 2.8191 1.1563 1.0367 2.2288 2.2777 3.2172 3.7236 0.98777 1.4215 1.8069 3.1088 2.4582 5.0605 0.65052 1.9279 0.97578 4.2294 0.97578 6.9044 0 1.5663-0.1082 3.1088-0.32526 4.6268-0.21673 1.5187-0.50642 2.9884-0.86816 4.4106-0.3609 1.3977-0.77086 2.7471-1.2283 4.0482-0.45823 1.2774-0.91647 2.4582-1.3739 3.5425-1.1088 2.5547-2.3618 4.9527-3.7594 7.1941l-0.97651-0.79537c1.085-1.8314 2.0608-3.9041 2.9282-6.2175 0.36173-0.96397 0.71076-2.0364 1.0486-3.2172 0.36105-1.1808 0.67433-2.4463 0.93953-3.7957 0.28962-1.3494 0.51827-2.7716 0.68693-4.2658 0.16855-1.4942 0.25314-3.0605 0.25314-4.6988 0-1.4222-0.15672-2.7114-0.47007-3.8684-0.28891-1.1563-0.68693-2.1805-1.1926-3.0724-0.5065-0.91569-1.085-1.7111-1.7356-2.3861-0.62608-0.69884-1.2647-1.2893-1.9154-1.7712-1.5424-1.1563-3.3018-1.9881-5.2779-2.4939v29.497c0 1.518-0.24064 2.9639-0.72262 4.3371-0.45823 1.3739-1.1089 2.5792-1.9524 3.6152-0.84369 1.036-1.8559 1.8678-3.0368 2.4945-1.1807 0.6023-2.482 0.9031-3.9033 0.9031-2.41 0-4.2539-0.61419-5.5313-1.8433-1.2528-1.2529-1.8796-2.9765-1.8796-5.1696z" stroke-width="6.9953"/>
	<path d="m244.84 87.701 31.235-0.22944" stroke="#000" stroke-width=".5975px"/>
	<path d="m300.8 45.728q0-2.0243 0.83131-3.7595 0.83149-1.7713 2.2412-3.0365 1.4461-1.3014 3.3258-2.0243 1.8797-0.75914 3.9763-0.75914 1.5544 0 2.928 0.39763v-36.546h3.7233v0.976q0 1.2652 0.8315 2.1689 0.86753 0.90373 2.2051 1.699 1.3375 0.79523 2.928 1.5905 1.6267 0.79524 3.1088 1.8797 1.5182 1.0483 2.7472 2.4943 1.2292 1.446 1.7714 3.5064 0.54218 2.0243 0.21674 4.8439-0.32538 2.7835-1.8797 6.5429 0.75912 1.9159 0.93973 4.2655 0.1807 2.3135-0.46986 5.1331-0.61452 2.7835-2.2412 6.1452-1.5906 3.3257-4.4462 7.2661l-0.97609-0.79524q0.68689-1.0122 1.5182-2.4219 0.83132-1.446 1.5544-3.1088 0.75902-1.699 1.2651-3.5425 0.54215-1.8436 0.6507-3.7595 0.14448-1.9159-0.25312-3.7956-0.3975-1.8797-1.518-3.5787-1.0844-1.7351-3.0366-3.2172-1.952-1.5183-4.9162-2.675v19.773q0 2.2774-0.72297 4.3378-0.68674 2.0605-1.952 3.6149-1.2651 1.5544-3.0364 2.4943-1.7713 0.90373-3.9041 0.90373-3.6149 0-5.5307-1.8436-1.8797-1.8797-1.8797-5.1692zm17.026-34.558v0.25302q0 0.79523 0.57836 1.5905 0.57837 0.75914 1.4822 1.6267 0.93995 0.8314 2.1328 1.8074 1.1929 0.93991 2.422 2.0966 1.2651 1.1206 2.4219 2.4581 1.1567 1.3375 2.0605 2.928 0.50607-1.6628 0.5423-3.4341 0.0363-1.8074-1.0483-3.4703-1.0484-1.699-3.5426-3.2172-2.4943-1.5183-7.0493-2.6389z" stroke-width="6.9953"/>
	<path d="m293.81 56.221 31.235-0.22958" stroke="#000" stroke-width=".5975px"/>
	<path d="m349.77 77.208c0-1.3501 0.27707-2.603 0.83184-3.76 0.55397-1.1808 1.3011-2.1931 2.2414-3.036 0.96394-0.86813 2.072-1.5425 3.3255-2.0245 1.2529-0.50647 2.5785-0.759 3.9762-0.759 1.0361 0 2.0127 0.13222 2.9283 0.39734v-36.546h3.723v0.97586c0 0.96397 0.32515 1.8559 0.97579 2.675 0.65063 0.79537 1.4705 1.6264 2.4581 2.4945 0.98853 0.84295 2.0483 1.7831 3.1816 2.8191 1.1563 1.0367 2.2288 2.2777 3.2171 3.7236 0.98778 1.4215 1.8069 3.1088 2.4583 5.0605 0.65046 1.9279 0.97579 4.2294 0.97579 6.9044 0 1.5663-0.10802 3.1088-0.32533 4.6268-0.21669 1.5187-0.50636 2.9884-0.86807 4.4106-0.3609 1.3977-0.77088 2.7471-1.2284 4.0482-0.45814 1.2774-0.9164 2.4582-1.3738 3.5425-1.1088 2.5547-2.3617 4.9527-3.7593 7.1941l-0.97652-0.79537c1.0849-1.8314 2.0608-3.9041 2.9282-6.2175 0.36166-0.96397 0.71079-2.0364 1.0486-3.2172 0.36088-1.1808 0.67434-2.4463 0.93953-3.7957 0.2896-1.3494 0.51825-2.7716 0.68693-4.2658 0.16839-1.4942 0.25317-3.0605 0.25317-4.6988 0-1.4222-0.15677-2.7114-0.47012-3.8684-0.2889-1.1563-0.68688-2.1805-1.1927-3.0724-0.50641-0.91569-1.0849-1.7111-1.7355-2.3861-0.62606-0.69884-1.2647-1.2893-1.9153-1.7712-1.5424-1.1563-3.3018-1.9881-5.278-2.4939v29.497c0 1.518-0.24062 2.9639-0.72272 4.3371-0.45812 1.3739-1.1088 2.5792-1.9523 3.6152-0.84368 1.036-1.8559 1.8678-3.0368 2.4945-1.1808 0.6023-2.482 0.9031-3.9035 0.9031-2.4098 0-4.2539-0.61419-5.5311-1.8433-1.2529-1.2529-1.8798-2.9765-1.8798-5.1696z" stroke-width="6.9953"/>
	<path d="m342.78 87.701 31.235-0.22944" stroke="#000" stroke-width=".5975px"/>
	<path d="m398.74 45.728q0-2.0243 0.83132-3.7595 0.83148-1.7713 2.2412-3.0365 1.4459-1.3014 3.3258-2.0243 1.8797-0.75914 3.9763-0.75914 1.5543 0 2.928 0.39763v-36.546h3.7233v0.976q0 1.2652 0.83136 2.1689 0.86768 0.90373 2.2052 1.699 1.3375 0.79523 2.928 1.5905 1.6267 0.79524 3.1088 1.8797 1.5182 1.0483 2.7472 2.4943 1.2291 1.446 1.7713 3.5064 0.5423 2.0243 0.21684 4.8439-0.32538 2.7835-1.8796 6.5429 0.75899 1.9159 0.93973 4.2655 0.18068 2.3135-0.47 5.1331-0.61442 2.7835-2.241 6.1452-1.5906 3.3257-4.4463 7.2661l-0.97607-0.79524q0.68676-1.0122 1.5182-2.4219 0.83134-1.446 1.5543-3.1088 0.75922-1.699 1.2653-3.5425 0.54219-1.8436 0.65057-3.7595 0.14469-1.9159-0.25299-3.7956-0.39751-1.8797-1.5182-3.5787-1.0844-1.7351-3.0364-3.2172-1.952-1.5183-4.9162-2.675v19.773q0 2.2774-0.72293 4.3378-0.68673 2.0605-1.952 3.6149-1.2651 1.5544-3.0364 2.4943-1.7714 0.90373-3.9041 0.90373-3.6149 0-5.5307-1.8436-1.8797-1.8797-1.8797-5.1692zm17.026-34.558v0.25302q0 0.79523 0.57835 1.5905 0.57837 0.75914 1.4821 1.6267 0.93996 0.8314 2.1328 1.8074 1.1929 0.93991 2.4218 2.0966 1.2653 1.1206 2.422 2.4581 1.1567 1.3375 2.0605 2.928 0.50609-1.6628 0.54229-3.4341 0.0363-1.8074-1.0484-3.4703-1.0483-1.699-3.5426-3.2172-2.4942-1.5183-7.0492-2.6389z" stroke-width="6.9953"/>
	<path d="m391.74 56.221 31.235-0.22958" stroke="#000" stroke-width=".5975px"/>
	<path d="m447.71 77.208c0-1.3501 0.27709-2.603 0.83187-3.76 0.55397-1.1808 1.3011-2.1931 2.2413-3.036 0.96393-0.86813 2.072-1.5425 3.3255-2.0245 1.2529-0.50647 2.5785-0.759 3.9762-0.759 1.0361 0 2.0126 0.13222 2.9284 0.39734v-36.546h3.7228v0.97586c0 0.96397 0.32528 1.8559 0.97594 2.675 0.65054 0.79537 1.4705 1.6264 2.4581 2.4945 0.98851 0.84295 2.0483 1.7831 3.1816 2.8191 1.1563 1.0367 2.2287 2.2777 3.2171 3.7236 0.98782 1.4215 1.807 3.1088 2.4583 5.0605 0.6505 1.9279 0.9758 4.2294 0.9758 6.9044 0 1.5663-0.10822 3.1088-0.3253 4.6268-0.2167 1.5187-0.5064 2.9884-0.86811 4.4106-0.36099 1.3977-0.77088 2.7471-1.2284 4.0482-0.45811 1.2774-0.91639 2.4582-1.3738 3.5425-1.1089 2.5547-2.3618 4.9527-3.7594 7.1941l-0.97648-0.79537c1.0849-1.8314 2.0608-3.9041 2.9282-6.2175 0.36159-0.96397 0.71075-2.0364 1.0486-3.2172 0.36088-1.1808 0.67431-2.4463 0.93936-3.7957 0.28965-1.3494 0.51838-2.7716 0.68704-4.2658 0.16842-1.4942 0.25321-3.0605 0.25321-4.6988 0-1.4222-0.15676-2.7114-0.47012-3.8684-0.28892-1.1563-0.68687-2.1805-1.1927-3.0724-0.50642-0.91569-1.0849-1.7111-1.7355-2.3861-0.62606-0.69884-1.2648-1.2893-1.9153-1.7712-1.5425-1.1563-3.3018-1.9881-5.2781-2.4939v29.497c0 1.518-0.24064 2.9639-0.7226 4.3371-0.45809 1.3739-1.1087 2.5792-1.9524 3.6152-0.8436 1.036-1.8558 1.8678-3.0366 2.4945-1.1809 0.6023-2.482 0.9031-3.9035 0.9031-2.4098 0-4.2539-0.61419-5.5311-1.8433-1.253-1.2529-1.8798-2.9765-1.8798-5.1696z" stroke-width="6.9953"/>
	<path d="m440.71 87.701 31.235-0.22944" stroke="#000" stroke-width=".5975px"/>
</svg>
