<?xml version="1.0" encoding="utf-8"?>
<svg xmlns="http://www.w3.org/2000/svg" version="1.1" viewBox="0 0 69 13">
	<title>A series of ten musical notes, not on a staff, each with a small line underneath. The notes alternate between sixteenth notes and eighth notes. The sixteenth notes are raised on the y-axis, so that the bottom of these notes starts approximately halfway above the eighth notes. All the sixteenth notes are aligned together on their x-axis in parallel, as are the eigth notes.</title>
	<path d="m1.0009 6.5368q0-0.28938 0.11885-0.53742 0.11885-0.25321 0.32038-0.43407 0.2067-0.18603 0.47541-0.28938 0.26871-0.10852 0.56842-0.10852 0.2222 0 0.41857 0.05684v-5.2243h0.53225v0.13952q0 0.18086 0.11885 0.31005 0.12402 0.12919 0.31522 0.24287t0.41857 0.22737q0.23254 0.11368 0.4444 0.26871 0.21703 0.14986 0.39273 0.35656t0.25321 0.50125q0.07751 0.28938 0.031 0.69244-0.04651 0.3979-0.26871 0.93531 0.10852 0.27388 0.13435 0.60976 0.02584 0.33072-0.06718 0.73378-0.08785 0.3979-0.32038 0.87847-0.22737 0.47541-0.6356 1.0387l-0.13952-0.11368q0.09818-0.14469 0.21703-0.34622 0.11885-0.2067 0.2222-0.4444 0.10852-0.24287 0.18086-0.50641 0.07751-0.26354 0.09301-0.53742 0.02067-0.27388-0.03617-0.54258-0.056832-0.26871-0.21702-0.51158-0.15502-0.24804-0.43407-0.4599-0.27904-0.21704-0.70278-0.38239v2.8266q0 0.32555-0.10335 0.6201-0.09818 0.29455-0.27904 0.51675t-0.43407 0.35656q-0.25321 0.12919-0.55809 0.12919-0.51675 0-0.79062-0.26354-0.26871-0.26871-0.26871-0.73895zm2.4339-4.9401v0.03617q0 0.11368 0.08268 0.22737 0.08268 0.10852 0.21187 0.23254 0.13436 0.11885 0.30488 0.25837 0.17053 0.13436 0.34622 0.29971 0.18086 0.16019 0.34622 0.35139t0.29455 0.41857q0.07234-0.2377 0.07751-0.49091 0.0052-0.25837-0.14986-0.49608-0.14986-0.24287-0.50641-0.45991t-1.0077-0.37723z"/>
	<path d="m9.1877e-4 8.0368 4.4651-0.03282" stroke="#000" stroke-width=".25px"/>
	<path d="m8.0009 11.037c0-0.193 0.0396-0.3721 0.1189-0.5375 0.0792-0.1688 0.186-0.3135 0.3204-0.434 0.1378-0.1241 0.2962-0.2205 0.4754-0.2894 0.1791-0.0724 0.3686-0.1085 0.5684-0.1085 0.1481 0 0.2877 0.0189 0.4186 0.0568v-5.2243h0.5322v0.1395c0 0.1378 0.0465 0.2653 0.1395 0.3824 0.093 0.1137 0.2102 0.2325 0.3514 0.3566 0.1413 0.1205 0.2928 0.2549 0.4548 0.403 0.1653 0.1482 0.3186 0.3256 0.4599 0.5323 0.1412 0.2032 0.2583 0.4444 0.3514 0.7234 0.093 0.2756 0.1395 0.6046 0.1395 0.987 0 0.2239-0.0155 0.4444-0.0465 0.6614-0.031 0.2171-0.0724 0.4272-0.1241 0.6305-0.0516 0.1998-0.1102 0.3927-0.1756 0.5787-0.0655 0.1826-0.131 0.3514-0.1964 0.5064-0.1585 0.3652-0.3376 0.708-0.5374 1.0284l-0.1396-0.1137c0.1551-0.2618 0.2946-0.5581 0.4186-0.8888 0.0517-0.1378 0.1016-0.2911 0.1499-0.4599 0.0516-0.1688 0.0964-0.3497 0.1343-0.5426 0.0414-0.1929 0.0741-0.3962 0.0982-0.6098s0.0362-0.4375 0.0362-0.6717c0-0.2033-0.0224-0.3876-0.0672-0.553-0.0413-0.1653-0.0982-0.3117-0.1705-0.4392-0.0724-0.1309-0.1551-0.2446-0.2481-0.3411-0.0895-0.0999-0.1808-0.1843-0.2738-0.2532-0.2205-0.1653-0.472-0.2842-0.7545-0.3565v4.2167c0 0.217-0.0344 0.4237-0.1033 0.62-0.0655 0.1964-0.1585 0.3687-0.2791 0.5168-0.1206 0.1481-0.2653 0.267-0.4341 0.3566-0.1688 0.0861-0.3548 0.1291-0.558 0.1291-0.3445 0-0.6081-0.0878-0.7907-0.2635-0.1791-0.1791-0.2687-0.4255-0.2687-0.739z"/>
	<path d="m7.0009 12.537 4.4651-0.0328" stroke="#000" stroke-width=".25px"/>
	<path d="m15.001 6.5368q0-0.28938 0.11885-0.53742 0.11885-0.25321 0.32038-0.43407 0.2067-0.18603 0.47541-0.28938 0.26871-0.10852 0.56842-0.10852 0.2222 0 0.41857 0.05684v-5.2243h0.53225v0.13952q0 0.18086 0.11885 0.31005 0.12402 0.12919 0.31522 0.24287t0.41857 0.22737q0.23254 0.11368 0.4444 0.26871 0.21703 0.14986 0.39273 0.35656t0.25321 0.50125q0.07751 0.28938 0.031 0.69244-0.04651 0.3979-0.26871 0.93531 0.10852 0.27388 0.13435 0.60976 0.02584 0.33072-0.06718 0.73378-0.08785 0.3979-0.32038 0.87847-0.22737 0.47541-0.6356 1.0387l-0.13952-0.11368q0.09818-0.14469 0.21703-0.34622 0.11885-0.2067 0.2222-0.4444 0.10852-0.24287 0.18086-0.50641 0.07751-0.26354 0.09301-0.53742 0.02067-0.27388-0.03617-0.54258-0.05683-0.26871-0.21702-0.51158-0.15502-0.24804-0.43407-0.4599-0.27904-0.21704-0.70278-0.38239v2.8266q0 0.32555-0.10335 0.6201-0.09818 0.29455-0.27904 0.51675t-0.43407 0.35656q-0.25321 0.12919-0.55809 0.12919-0.51675 0-0.79062-0.26354-0.26871-0.26871-0.26871-0.73895zm2.4339-4.9401v0.03617q0 0.11368 0.08268 0.22737 0.08268 0.10852 0.21187 0.23254 0.13436 0.11885 0.30488 0.25837 0.17053 0.13436 0.34622 0.29971 0.18086 0.16019 0.34622 0.35139t0.29455 0.41857q0.07234-0.2377 0.07751-0.49091 0.0052-0.25837-0.14986-0.49608-0.14986-0.24287-0.50641-0.45991t-1.0077-0.37723z"/>
	<path d="m14.001 8.0368 4.4651-0.03282" stroke="#000" stroke-width=".25px"/>
	<path d="m22.001 11.037c0-0.193 0.0396-0.3721 0.1189-0.5375 0.0792-0.1688 0.186-0.3135 0.3204-0.434 0.1378-0.1241 0.2962-0.2205 0.4754-0.2894 0.1791-0.0724 0.3686-0.1085 0.5684-0.1085 0.1481 0 0.2877 0.0189 0.4186 0.0568v-5.2243h0.5322v0.1395c0 0.1378 0.0465 0.2653 0.1395 0.3824 0.093 0.1137 0.2102 0.2325 0.3514 0.3566 0.1413 0.1205 0.2928 0.2549 0.4548 0.403 0.1653 0.1482 0.3186 0.3256 0.4599 0.5323 0.1412 0.2032 0.2583 0.4444 0.3514 0.7234 0.093 0.2756 0.1395 0.6046 0.1395 0.987 0 0.2239-0.0155 0.4444-0.0465 0.6614-0.031 0.2171-0.0724 0.4272-0.1241 0.6305-0.0516 0.1998-0.1102 0.3927-0.1756 0.5787-0.0655 0.1826-0.131 0.3514-0.1964 0.5064-0.1585 0.3652-0.3376 0.708-0.5374 1.0284l-0.1396-0.1137c0.1551-0.2618 0.2946-0.5581 0.4186-0.8888 0.0517-0.1378 0.1016-0.2911 0.1499-0.4599 0.0516-0.1688 0.0964-0.3497 0.1343-0.5426 0.0414-0.1929 0.0741-0.3962 0.0982-0.6098s0.0362-0.4375 0.0362-0.6717c0-0.2033-0.0224-0.3876-0.0672-0.553-0.0413-0.1653-0.0982-0.3117-0.1705-0.4392-0.0724-0.1309-0.1551-0.2446-0.2481-0.3411-0.0895-0.0999-0.1808-0.1843-0.2738-0.2532-0.2205-0.1653-0.472-0.2842-0.7545-0.3565v4.2167c0 0.217-0.0344 0.4237-0.1033 0.62-0.0655 0.1964-0.1585 0.3687-0.2791 0.5168s-0.2653 0.267-0.4341 0.3566c-0.1688 0.0861-0.3548 0.1291-0.558 0.1291-0.3445 0-0.6081-0.0878-0.7907-0.2635-0.1791-0.1791-0.2687-0.4255-0.2687-0.739z"/>
	<path d="m21.001 12.537 4.4651-0.0328" stroke="#000" stroke-width=".25px"/>
	<path d="m29.001 6.5368q0-0.28938 0.11885-0.53742 0.11885-0.25321 0.32038-0.43407 0.2067-0.18603 0.47541-0.28938 0.26871-0.10852 0.56842-0.10852 0.2222 0 0.41857 0.05684v-5.2243h0.53225v0.13952q0 0.18086 0.11885 0.31005 0.12402 0.12919 0.31522 0.24287t0.41857 0.22737q0.23254 0.11368 0.4444 0.26871 0.21703 0.14986 0.39273 0.35656t0.25321 0.50125q0.07751 0.28938 0.031 0.69244-0.04651 0.3979-0.26871 0.93531 0.10852 0.27388 0.13435 0.60976 0.02584 0.33072-0.06718 0.73378-0.08785 0.3979-0.32038 0.87847-0.22737 0.47541-0.6356 1.0387l-0.13952-0.11368q0.09818-0.14469 0.21703-0.34622 0.11885-0.2067 0.2222-0.4444 0.10852-0.24287 0.18086-0.50641 0.07751-0.26354 0.09301-0.53742 0.02067-0.27388-0.03617-0.54258-0.05683-0.26871-0.21702-0.51158-0.15502-0.24804-0.43407-0.4599-0.27904-0.21704-0.70278-0.38239v2.8266q0 0.32555-0.10335 0.6201-0.09818 0.29455-0.27904 0.51675t-0.43407 0.35656q-0.25321 0.12919-0.55809 0.12919-0.51675 0-0.79062-0.26354-0.26871-0.26871-0.26871-0.73895zm2.4339-4.9401v0.03617q0 0.11368 0.08268 0.22737 0.08268 0.10852 0.21187 0.23254 0.13436 0.11885 0.30488 0.25837 0.17053 0.13436 0.34622 0.29971 0.18086 0.16019 0.34622 0.35139t0.29455 0.41857q0.07234-0.2377 0.07751-0.49091 0.0052-0.25837-0.14986-0.49608-0.14986-0.24287-0.50641-0.45991t-1.0077-0.37723z"/>
	<path d="m28.001 8.0368 4.4651-0.03282" stroke="#000" stroke-width=".25px"/>
	<path d="m36.001 11.037c0-0.193 0.0396-0.3721 0.1189-0.5375 0.0792-0.1688 0.186-0.3135 0.3204-0.434 0.1378-0.1241 0.2962-0.2205 0.4754-0.2894 0.1791-0.0724 0.3686-0.1085 0.5684-0.1085 0.1481 0 0.2877 0.0189 0.4186 0.0568v-5.2243h0.5322v0.1395c0 0.1378 0.0465 0.2653 0.1395 0.3824 0.093 0.1137 0.2102 0.2325 0.3514 0.3566 0.1413 0.1205 0.2928 0.2549 0.4548 0.403 0.1653 0.1482 0.3186 0.3256 0.4599 0.5323 0.1412 0.2032 0.2583 0.4444 0.3514 0.7234 0.093 0.2756 0.1395 0.6046 0.1395 0.987 0 0.2239-0.0155 0.4444-0.0465 0.6614-0.031 0.2171-0.0724 0.4272-0.1241 0.6305-0.0516 0.1998-0.1102 0.3927-0.1756 0.5787-0.0655 0.1826-0.131 0.3514-0.1964 0.5064-0.1585 0.3652-0.3376 0.708-0.5374 1.0284l-0.1396-0.1137c0.1551-0.2618 0.2946-0.5581 0.4186-0.8888 0.0517-0.1378 0.1016-0.2911 0.1499-0.4599 0.0516-0.1688 0.0964-0.3497 0.1343-0.5426 0.0414-0.1929 0.0741-0.3962 0.0982-0.6098s0.0362-0.4375 0.0362-0.6717c0-0.2033-0.0224-0.3876-0.0672-0.553-0.0413-0.1653-0.0982-0.3117-0.1705-0.4392-0.0724-0.1309-0.1551-0.2446-0.2481-0.3411-0.0895-0.0999-0.1808-0.1843-0.2738-0.2532-0.2205-0.1653-0.472-0.2842-0.7545-0.3565v4.2167c0 0.217-0.0344 0.4237-0.1033 0.62-0.0655 0.1964-0.1585 0.3687-0.2791 0.5168s-0.2653 0.267-0.4341 0.3566c-0.1688 0.0861-0.3548 0.1291-0.558 0.1291-0.3445 0-0.6081-0.0878-0.7907-0.2635-0.1791-0.1791-0.2687-0.4255-0.2687-0.739z"/>
	<path d="m35.001 12.537 4.4651-0.0328" stroke="#000" stroke-width=".25px"/>
	<path d="m43.001 6.5368q0-0.28938 0.11885-0.53742 0.11885-0.25321 0.32038-0.43407 0.2067-0.18603 0.47541-0.28938 0.26871-0.10852 0.56842-0.10852 0.2222 0 0.41857 0.05684v-5.2243h0.53225v0.13952q0 0.18086 0.11885 0.31005 0.12402 0.12919 0.31522 0.24287t0.41857 0.22737q0.23254 0.11368 0.4444 0.26871 0.21703 0.14986 0.39273 0.35656t0.25321 0.50125q0.07751 0.28938 0.031 0.69244-0.04651 0.3979-0.26871 0.93531 0.10852 0.27388 0.13435 0.60976 0.02584 0.33072-0.06718 0.73378-0.08785 0.3979-0.32038 0.87847-0.22737 0.47541-0.6356 1.0387l-0.13952-0.11368q0.09818-0.14469 0.21703-0.34622 0.11885-0.2067 0.2222-0.4444 0.10852-0.24287 0.18086-0.50641 0.07751-0.26354 0.09301-0.53742 0.02067-0.27388-0.03617-0.54258-0.05683-0.26871-0.21702-0.51158-0.15502-0.24804-0.43407-0.4599-0.27904-0.21704-0.70278-0.38239v2.8266q0 0.32555-0.10335 0.6201-0.09818 0.29455-0.27904 0.51675t-0.43407 0.35656q-0.25321 0.12919-0.55809 0.12919-0.51675 0-0.79062-0.26354-0.26871-0.26871-0.26871-0.73895zm2.4339-4.9401v0.03617q0 0.11368 0.08268 0.22737 0.08268 0.10852 0.21187 0.23254 0.13436 0.11885 0.30488 0.25837 0.17053 0.13436 0.34622 0.29971 0.18086 0.16019 0.34622 0.35139t0.29455 0.41857q0.07234-0.2377 0.07751-0.49091 0.0052-0.25837-0.14986-0.49608-0.14986-0.24287-0.50641-0.45991t-1.0077-0.37723z"/>
	<path d="m42.001 8.0368 4.4651-0.03282" stroke="#000" stroke-width=".25px"/>
	<path d="m50.001 11.037c0-0.193 0.0396-0.3721 0.1189-0.5375 0.0792-0.1688 0.186-0.3135 0.3204-0.434 0.1378-0.1241 0.2962-0.2205 0.4754-0.2894 0.1791-0.0724 0.3686-0.1085 0.5684-0.1085 0.1481 0 0.2877 0.0189 0.4186 0.0568v-5.2243h0.5322v0.1395c0 0.1378 0.0465 0.2653 0.1395 0.3824 0.093 0.1137 0.2102 0.2325 0.3514 0.3566 0.1413 0.1205 0.2928 0.2549 0.4548 0.403 0.1653 0.1482 0.3186 0.3256 0.4599 0.5323 0.1412 0.2032 0.2583 0.4444 0.3514 0.7234 0.093 0.2756 0.1395 0.6046 0.1395 0.987 0 0.2239-0.0155 0.4444-0.0465 0.6614-0.031 0.2171-0.0724 0.4272-0.1241 0.6305-0.0516 0.1998-0.1102 0.3927-0.1756 0.5787-0.0655 0.1826-0.131 0.3514-0.1964 0.5064-0.1585 0.3652-0.3376 0.708-0.5374 1.0284l-0.1396-0.1137c0.1551-0.2618 0.2946-0.5581 0.4186-0.8888 0.0517-0.1378 0.1016-0.2911 0.1499-0.4599 0.0516-0.1688 0.0964-0.3497 0.1343-0.5426 0.0414-0.1929 0.0741-0.3962 0.0982-0.6098s0.0362-0.4375 0.0362-0.6717c0-0.2033-0.0224-0.3876-0.0672-0.553-0.0413-0.1653-0.0982-0.3117-0.1705-0.4392-0.0724-0.1309-0.1551-0.2446-0.2481-0.3411-0.0895-0.0999-0.1808-0.1843-0.2738-0.2532-0.2205-0.1653-0.472-0.2842-0.7545-0.3565v4.2167c0 0.217-0.0344 0.4237-0.1033 0.62-0.0655 0.1964-0.1585 0.3687-0.2791 0.5168s-0.2653 0.267-0.4341 0.3566c-0.1688 0.0861-0.3548 0.1291-0.558 0.1291-0.3445 0-0.6081-0.0878-0.7907-0.2635-0.1791-0.1791-0.2687-0.4255-0.2687-0.739z"/>
	<path d="m49.001 12.537 4.4651-0.0328" stroke="#000" stroke-width=".25px"/>
	<path d="m57.001 6.5368q0-0.28938 0.11885-0.53742 0.11885-0.25321 0.32038-0.43407 0.2067-0.18603 0.47541-0.28938 0.26871-0.10852 0.56842-0.10852 0.2222 0 0.41857 0.05684v-5.2243h0.53225v0.13952q0 0.18086 0.11885 0.31005 0.12402 0.12919 0.31522 0.24287t0.41857 0.22737q0.23254 0.11368 0.4444 0.26871 0.21703 0.14986 0.39273 0.35656t0.25321 0.50125q0.07751 0.28938 0.031 0.69244-0.04651 0.3979-0.26871 0.93531 0.10852 0.27388 0.13435 0.60976 0.02584 0.33072-0.06718 0.73378-0.08785 0.3979-0.32038 0.87847-0.22737 0.47541-0.6356 1.0387l-0.13952-0.11368q0.09818-0.14469 0.21703-0.34622 0.11885-0.2067 0.2222-0.4444 0.10852-0.24287 0.18086-0.50641 0.07751-0.26354 0.09301-0.53742 0.02067-0.27388-0.03617-0.54258-0.05683-0.26871-0.21702-0.51158-0.15502-0.24804-0.43407-0.4599-0.27904-0.21704-0.70278-0.38239v2.8266q0 0.32555-0.10335 0.6201-0.09818 0.29455-0.27904 0.51675t-0.43407 0.35656q-0.25321 0.12919-0.55809 0.12919-0.51675 0-0.79062-0.26354-0.26871-0.26871-0.26871-0.73895zm2.4339-4.9401v0.03617q0 0.11368 0.08268 0.22737 0.08268 0.10852 0.21187 0.23254 0.13436 0.11885 0.30488 0.25837 0.17053 0.13436 0.34622 0.29971 0.18086 0.16019 0.34622 0.35139t0.29455 0.41857q0.07234-0.2377 0.07751-0.49091 0.0052-0.25837-0.14986-0.49608-0.14986-0.24287-0.50641-0.45991t-1.0077-0.37723z"/>
	<path d="m56.001 8.0368 4.4651-0.03282" stroke="#000" stroke-width=".25px"/>
	<path d="m64.001 11.037c0-0.193 0.0396-0.3721 0.1189-0.5375 0.0792-0.1688 0.186-0.3135 0.3204-0.434 0.1378-0.1241 0.2962-0.2205 0.4754-0.2894 0.1791-0.0724 0.3686-0.1085 0.5684-0.1085 0.1481 0 0.2877 0.0189 0.4186 0.0568v-5.2243h0.5322v0.1395c0 0.1378 0.0465 0.2653 0.1395 0.3824 0.093 0.1137 0.2102 0.2325 0.3514 0.3566 0.1413 0.1205 0.2928 0.2549 0.4548 0.403 0.1653 0.1482 0.3186 0.3256 0.4599 0.5323 0.1412 0.2032 0.2583 0.4444 0.3514 0.7234 0.093 0.2756 0.1395 0.6046 0.1395 0.987 0 0.2239-0.0155 0.4444-0.0465 0.6614-0.031 0.2171-0.0724 0.4272-0.1241 0.6305-0.0516 0.1998-0.1102 0.3927-0.1756 0.5787-0.0655 0.1826-0.131 0.3514-0.1964 0.5064-0.1585 0.3652-0.3376 0.708-0.5374 1.0284l-0.1396-0.1137c0.1551-0.2618 0.2946-0.5581 0.4186-0.8888 0.0517-0.1378 0.1016-0.2911 0.1499-0.4599 0.0516-0.1688 0.0964-0.3497 0.1343-0.5426 0.0414-0.1929 0.0741-0.3962 0.0982-0.6098s0.0362-0.4375 0.0362-0.6717c0-0.2033-0.0224-0.3876-0.0672-0.553-0.0413-0.1653-0.0982-0.3117-0.1705-0.4392-0.0724-0.1309-0.1551-0.2446-0.2481-0.3411-0.0895-0.0999-0.1808-0.1843-0.2738-0.2532-0.2205-0.1653-0.472-0.2842-0.7545-0.3565v4.2167c0 0.217-0.0344 0.4237-0.1033 0.62-0.0655 0.1964-0.1585 0.3687-0.2791 0.5168s-0.2653 0.267-0.4341 0.3566c-0.1688 0.0861-0.3548 0.1291-0.558 0.1291-0.3445 0-0.6081-0.0878-0.7907-0.2635-0.1791-0.1791-0.2687-0.4255-0.2687-0.739z"/>
	<path d="m63.001 12.537 4.4651-0.0328" stroke="#000" stroke-width=".25px"/>
</svg>
