<?xml version="1.0" encoding="utf-8"?>
<svg xmlns="http://www.w3.org/2000/svg" version="1.0" viewBox="0 0 427 232">
	<title>A hand with the index finger pointing to the right, and other fingers curled up. The hand appears to be coming out of the very end of the sleeve of a ruffled dress (only the very end is visible).</title>
	<path d="m198 54.2c-8.1 1.2-14.3 2.7-17.6 4.3-2.8 1.4-5.6 2.5-6.2 2.5-1.8 0-14.5 6-17.7 8.4-1.6 1.2-5.8 3.4-9.3 5-8.5 3.7-9.8 3.3-24.6-9.4-8.6-7.5-15.3-9.7-23.8-7.9-5.1 1.1-7.1 2.9-10.8 9.7-2.2 4.1-3 4.7-6.1 5-2.7 0.2-4.9-0.5-8.4-2.7-6.3-4-10.1-4.8-12.6-2.5-2.4 2.2-2.4 4.6 0.1 11.9 3.6 10.6 4.1 16.4 2.4 33.9-2 21.7-5.5 35.2-13.3 51.6-3.5 7.3-3.8 10.1-1.5 12.4 2 2 7.3 2.1 10.1 0.1 3.6-2.5 17-6.6 19.5-6 1.3 0.3 3.7 2.5 5.3 4.9 4.5 6.7 8.2 8.6 16.3 8.6 6.4 0 7.2-0.3 12.3-3.9 3-2.2 8-6.9 11.2-10.5 7.4-8.4 13.3-12.1 17.2-10.6 3.3 1.3 15.5 9.2 15.5 10.1 0 0.3 3.3 2.2 7.3 4.2 8.9 4.4 21.6 6.1 38.2 5.2 9.5-0.6 12.7-0.3 23.6 1.9 15.3 3.1 26.6 3.4 32.4 0.7 2.3-1 5.5-3.8 7.5-6.4 2.6-3.4 4.7-5.1 8.2-6.2 4.1-1.4 9.7-6.2 9.8-8.3 0.4-8.5 2.1-14.6 4.9-17.7 5.6-6.4 5.4-12.3-1-26.6-4-9.3-4.8-13.6-2.7-15.7 1.6-1.6 13.9-1.5 26.8 0.4 5.9 0.8 22.2 1.7 37 2l26.5 0.6 3.5-2.4c3.9-2.7 6.9-7.8 7-12.2 0-4-5.3-8.8-12.1-10.8-3-0.9-8.1-2.6-11.4-3.7-13.4-4.5-40.7-8.3-87.9-12.1-6.5-0.6-14.8-1.7-18.5-2.5-3.6-0.8-14.5-2.6-24.1-4-9.6-1.5-18.2-2.8-19-2.9-0.8-0.2-7.1 0.5-14 1.6zm18.5 9.3c20.1 2.4 28 5.2 31.9 11.4 1.4 2.2 2.6 4.6 2.6 5.3s0.8 2.6 1.7 4.3c1.2 2.2 1.7 5.5 1.7 12.2 0.1 8.3 0.3 9.4 2.5 11.7 3.7 3.9 5.1 3.4 5.1-1.9 0-3.3 0.5-4.7 1.8-5.4 2.5-1.3 8.2 1.5 9.9 4.9 1.5 3 1.7 9.4 0.3 12-1.5 2.9 1 8.5 5 11.2 3 2 3.5 3 3.8 6.7 0.4 5.3-0.8 6.8-6.1 7.6-6 1.1-11.1 0.8-21.2-1-5-0.9-10.8-1.9-13-2.2-4.7-0.7-5.5-1.6-5.5-6.5 0-4.8 4-8.3 8.5-7.3 5.1 1.1 8.8 1.1 9.2-0.1 0.2-0.5-2.4-3.9-5.8-7.5-5.9-6.2-9.9-12.4-9.9-15.2 0-2-3-4.4-6.5-5.2-1.6-0.4-3.9-1.3-5.1-2.1-1.2-0.7-4.6-2-7.7-2.9-5.1-1.5-5.8-1.5-8.7 0-1.7 0.9-3.3 2.2-3.6 3s-1.6 1.7-2.7 2.1c-1.2 0.3-3 1.3-3.9 2.1-1.5 1.3-2.6 1.4-8.1 0.3-10.6-2.1-13.7-0.1-10.3 6.5 1.4 2.6 1.3 3.1-1.5 7.1-1.6 2.3-2.9 4.5-2.9 4.8s-0.8 1.5-1.7 2.6c-2.1 2.5-7.8 2.7-8.7 0.4-1.1-2.9-0.6-4.4 2.9-8.3 3.6-4 4.5-8 2.3-9.8-0.7-0.6-3.7-1.6-6.6-2.3-6.4-1.5-9.6-0.5-14.1 4.6-3.7 4-4.6 4.2-6.6 1-1.3-2-1.5-3.4-0.6-7.8 1.8-9.6 3-11.5 14.1-20.1 8.1-6.3 15.4-10.7 17.8-10.7 1.1 0 4.2-1 6.9-2.1 5.4-2.5 13.6-4.7 17.3-4.8 1.4 0 8.4 0.6 15.5 1.4zm-101.8 2.7c5.6 1.4 7.5 3.6 7.1 8.5l-0.3 3.8-9.2-0.4-9.3-0.3v2.6c0 1.4-0.5 2.6-1.1 2.6-0.7 0 0 0.9 1.4 2s2.9 2 3.5 2c1.9 0 6.4 8.1 5.8 10.6-1.3 5.2-11.2 1.4-15.1-5.9-1.7-3.1-1.8-4-0.7-5.8 1-1.5 1.1-3.9 0.7-8.3-0.7-6.2-0.6-6.3 2.9-10 3.8-4.1 4-4.1 14.3-1.4zm168 7.2c12.9 2.2 14.1 2.8 14.9 7.2 0.9 4.7-0.4 8.2-3.9 10.8-2.4 1.8-4.2 2.1-11.5 2.1-5.1-0.1-9.7-0.6-11-1.4-3.1-1.7-9.4-11.8-9.4-14.9 0-1.5 0.9-3.4 2.3-4.5 2.5-2 2-2.1 18.6 0.7zm47 3.7c7.3 1.3 9.3 3.2 9.3 9.1 0 4.4-1.1 5.2-8.9 6.6-5.9 1.1-18.5-0.1-20.7-1.8-2.2-1.9-2.8-8.7-1-11.5 2.2-3.3 10.6-4.3 21.3-2.4zm36.8 8.3c5.9 4.5 3.8 8-4.9 8-9.4 0-14.6-5.2-9.9-9.9 2.5-2.6 10.3-1.5 14.8 1.9zm-231.4 3.7c2.3 2.3 2.3 4.5-0.2 23.4-0.6 4.9-1.1 14.1-1 20.3 0.1 11-0.9 15.9-3.9 17.7-1.5 0.9-7-2.4-8-4.9-0.4-1.2-1.1-8.7-1.5-16.7-0.8-15.8 0.7-27.5 4.5-36.2 2.7-6.2 6.3-7.4 10.1-3.6zm92.4 14.4c8.2 2.5 9.5 3.4 9.5 7.2 0 2.5-0.8 4.1-3.1 6.2-3 2.8-3 2.9-1.5 5.9 0.9 1.7 1.3 3.8 1 4.6-0.7 1.9-6.3 3.5-9.8 2.9-2.3-0.5-2.6-1-2.6-4.3 0-5.2 0.8-7 3.9-8.2 2.4-1 2.5-1.1 0.6-1.8-2.9-1.1-15.5 1-15.5 2.6 0 0.8 5.4 7.9 6.3 8.2 2.4 1.1 3.8 3.8 3.4 6.2-0.7 3.4 2.3 10.1 5.8 12.9 4.4 3.3 7.2 3.7 9.9 1.2 2.1-2 2.9-2.1 6.2-1.3 2.2 0.6 7.4 1.5 11.7 2.2 4.2 0.7 7.7 1.7 7.7 2.1 0 0.5 1.6 0.9 3.5 0.9 3.5 0 8.5 3.5 8.5 5.8 0 4.4-9.1 7.5-20.5 7-3.3-0.1-6.5 0.1-7.1 0.5-0.7 0.4-1.7 0.1-2.3-0.7-0.7-0.8-2.2-1.7-3.5-2s-3.6-2.4-5.1-4.6l-2.8-4-3.3 2.5c-4.6 3.5-8 2.6-10.5-2.9-1-2.2-1.9-5.3-1.9-6.8 0-4.3-3.9-6.3-9.3-4.9-2.3 0.6-6.4 1.7-9.2 2.5-4.1 1.1-5.8 1.1-10 0-2.7-0.8-7.1-1.4-9.6-1.4-6 0-10.3-3-7.9-5.4 0.9-0.9 3.8-1.9 6.5-2.3 5.9-0.8 17.1-6 23.5-10.9 2.5-1.9 5.9-4.1 7.7-4.9 4.2-1.9 4.8-3.2 3.2-6.2-1.8-3.4 0.5-7.4 5.1-9s5.6-1.5 11.5 0.2zm-120.4 2.5c1.5 0.9 1.9 2.2 1.9 7v5.9l-5.7 0.6c-3.2 0.3-6.5 0.7-7.3 0.8-0.9 0.1-1.6 1.5-1.8 3.3-0.2 2.4 0.2 3.3 2.3 4.2 1.4 0.7 4.4 1.2 6.7 1.2 3.4 0 3.9 0.2 2.8 1.4-0.9 1.2-0.9 3.6-0.1 10.4 1.5 11.9 0.9 14.2-4 16.5-3.4 1.6-3.9 2.3-3.9 5.3 0 3.3 0.1 3.4 4.1 3.4 5 0 7.7-1.4 8.9-4.6 1.1-2.8 3.6-3.1 6.2-0.7 3 2.7 2.1 4.5-4.3 9.7-7.6 6-12.8 7.1-17.3 3.5-3.6-2.8-5.6-7.6-5.6-13.3 0-3.9 0.5-4.9 4-8.2 3-2.8 4-4.6 4-6.9 0-2.7-0.5-3.2-5.2-5-7.4-2.9-9.2-5.8-9.6-15.5-0.4-8.4 0.9-12 5.8-16.5 3-2.7 14.6-4.3 18.1-2.5zm45.1 22.2c2.8 3 2.9 3.3 1.2 4.5-1 0.7-2.6 1.3-3.6 1.3-2.6 0-5.8-3.6-5.8-6.5 0-3.8 4.4-3.4 8.2 0.7zm53.3 21.2c2.6 1.1 3.6 2.4 4.5 5.3 1.5 5 0.2 8.3-4.6 12-3.5 2.6-4.5 2.8-14.1 3.1-8.6 0.3-11.5 0-16.1-1.6-3.1-1.1-6.9-2.3-8.3-2.6-8.3-1.8-20.6-16.6-13.8-16.6 4.3 0 9.9 2.4 14.3 6l4.5 3.8 11.8-0.3c6.5-0.1 12.5-0.5 13.4-0.9s2.2-2.7 2.9-5.2c0.7-2.4 1.4-4.4 1.7-4.4 0.2 0 1.9 0.6 3.8 1.4zm19.3 14.8c0.7 0.7 1.2 2 1.2 3 0 1.3-0.8 1.8-3 1.8-2.5 0-3-0.4-3-2.4 0-2.1 1-3.2 3.1-3.5 0.3-0.1 1 0.4 1.7 1.1zm23.9 3.1c2 1.1 2.1 1.5 1 3.7-2.5 4.9-10.6 2.8-9.3-2.4 0.5-2 1.3-2.6 3.4-2.6 1.5 0.1 3.7 0.6 4.9 1.3z"/>
</svg>
